<svg xmlns="http://www.w3.org/2000/svg" viewBox="0 0 154 74" width="154" height="74">
  <path d="M 7.00 48.00 L 22.00 49.00 L 24.00 51.00 L 31.00 52.00 L 31.00 46.00 L 33.00 43.00 L 39.00 43.00 L 42.00 39.00 L 48.00 36.00 L 57.00 36.00 L 58.00 38.00 L 68.00 38.00 L 70.00 34.00 L 102.00 35.00 L 111.00 33.00 L 113.00 38.00 L 111.00 40.00 L 112.00 44.00 L 108.00 60.00 L 105.00 62.00 L 106.00 65.00 L 111.00 65.00 L 112.00 56.00 L 116.00 45.00 L 118.00 45.00 L 120.00 48.00 L 122.00 55.00 L 121.00 60.00 L 123.00 61.00 L 128.00 60.00 L 128.00 58.00 L 124.00 54.00 L 121.00 41.00 L 122.00 30.00 L 123.00 29.00 L 149.00 30.00 L 150.00 24.00 L 145.00 24.00 L 143.00 22.00 L 140.00 25.00 L 123.00 25.00 L 118.00 23.00 L 117.00 17.00 L 114.00 17.00 L 113.00 25.00 L 107.00 25.00 L 104.00 23.00 L 68.00 22.00 L 65.00 21.00 L 63.00 17.00 L 44.00 16.00 L 42.00 18.00 L 36.00 18.00 L 32.00 16.00 L 29.00 18.00 L 29.00 22.00 L 26.00 24.00 L 25.00 27.00 L 21.00 29.00 L 11.00 28.00 L 7.00 29.00 Z M 12.00 33.00 L 13.00 32.00 L 19.00 32.00 L 20.00 33.00 L 20.00 37.00 L 24.00 37.00 L 26.00 39.00 L 26.00 41.00 L 25.00 42.00 L 25.00 43.00 L 24.00 44.00 L 22.00 44.00 L 20.00 46.00 L 13.00 46.00 L 12.00 45.00 Z" fill="#FFFFFF" stroke="#FFFFFF" stroke-width="0.5" fill-rule="evenodd" clip-rule="evenodd"/>
</svg>
