<svg xmlns="http://www.w3.org/2000/svg" viewBox="0 0 131 58" width="131" height="58">
  <path d="M 127.00 23.00 L 125.00 22.00 L 123.00 19.00 L 121.00 19.00 L 121.00 21.00 L 119.00 23.00 L 114.00 23.00 L 113.00 22.00 L 84.00 22.00 L 79.00 20.00 L 74.00 21.00 L 73.00 22.00 L 60.00 22.00 L 59.00 23.00 L 52.00 23.00 L 51.00 22.00 L 45.00 22.00 L 44.00 21.00 L 42.00 21.00 L 41.00 22.00 L 38.00 22.00 L 38.00 28.00 L 33.00 31.00 L 30.00 31.00 L 29.00 30.00 L 21.00 30.00 L 20.00 31.00 L 4.00 32.00 L 3.00 33.00 L 4.00 45.00 L 5.00 46.00 L 5.00 49.00 L 9.00 49.00 L 27.00 40.00 L 34.00 40.00 L 35.00 38.00 L 38.00 36.00 L 40.00 36.00 L 41.00 38.00 L 47.00 38.00 L 50.00 35.00 L 52.00 35.00 L 53.00 34.00 L 68.00 33.00 L 69.00 32.00 L 76.00 32.00 L 77.00 31.00 L 82.00 31.00 L 83.00 30.00 L 93.00 30.00 L 94.00 32.00 L 96.00 32.00 L 96.00 29.00 L 97.00 28.00 L 114.00 28.00 L 115.00 26.00 L 117.00 26.00 L 118.00 25.00 L 127.00 25.00 Z" fill="#FFFFFF" stroke="#FFFFFF" stroke-width="0.5" fill-rule="evenodd" clip-rule="evenodd"/>
</svg>
