<svg xmlns="http://www.w3.org/2000/svg" viewBox="0 0 146 80" width="146" height="80">
  <path d="M 137.00 34.00 L 133.00 31.00 L 131.00 31.00 L 130.00 33.00 L 84.00 32.00 L 83.00 33.00 L 78.00 33.00 L 77.00 34.00 L 68.00 34.00 L 67.00 33.00 L 59.00 32.00 L 57.00 34.00 L 54.00 34.00 L 54.00 36.00 L 46.00 42.00 L 36.00 41.00 L 35.00 42.00 L 20.00 43.00 L 19.00 44.00 L 13.00 44.00 L 12.00 45.00 L 10.00 45.00 L 9.00 46.00 L 9.00 49.00 L 10.00 50.00 L 10.00 55.00 L 11.00 56.00 L 11.00 63.00 L 12.00 64.00 L 15.00 64.00 L 16.00 63.00 L 20.00 64.00 L 20.00 62.00 L 21.00 61.00 L 23.00 61.00 L 38.00 54.00 L 45.00 54.00 L 46.00 55.00 L 48.00 55.00 L 50.00 50.00 L 54.00 46.00 L 58.00 46.00 L 60.00 50.00 L 66.00 50.00 L 71.00 44.00 L 81.00 44.00 L 82.00 43.00 L 92.00 43.00 L 93.00 42.00 L 104.00 42.00 L 105.00 44.00 L 108.00 44.00 L 108.00 42.00 L 115.00 36.00 L 128.00 36.00 L 129.00 37.00 L 131.00 37.00 L 132.00 36.00 L 137.00 36.00 Z M 62.00 46.00 L 63.00 45.00 L 65.00 45.00 L 66.00 46.00 L 66.00 48.00 L 65.00 49.00 L 63.00 49.00 L 62.00 48.00 Z" fill="#FFFFFF" stroke="#FFFFFF" stroke-width="0.5" fill-rule="evenodd" clip-rule="evenodd"/>
</svg>
