<svg xmlns="http://www.w3.org/2000/svg" viewBox="0 0 163 64" width="163" height="64">
  <path d="M 156.00 18.00 L 152.00 16.00 L 151.00 12.00 L 149.00 13.00 L 148.00 17.00 L 119.00 17.00 L 118.00 16.00 L 95.00 16.00 L 91.00 15.00 L 89.00 17.00 L 75.00 16.00 L 71.00 18.00 L 64.00 19.00 L 63.00 18.00 L 57.00 18.00 L 56.00 16.00 L 54.00 16.00 L 53.00 18.00 L 50.00 18.00 L 49.00 22.00 L 42.00 26.00 L 32.00 25.00 L 31.00 26.00 L 18.00 27.00 L 17.00 28.00 L 5.00 30.00 L 4.00 31.00 L 5.00 49.00 L 7.00 52.00 L 9.00 52.00 L 32.00 40.00 L 40.00 40.00 L 46.00 33.00 L 49.00 33.00 L 52.00 38.00 L 55.00 38.00 L 62.00 31.00 L 82.00 30.00 L 83.00 29.00 L 107.00 27.00 L 108.00 26.00 L 115.00 26.00 L 116.00 25.00 L 118.00 25.00 L 121.00 28.00 L 123.00 25.00 L 127.00 24.00 L 151.00 23.00 L 151.00 21.00 L 155.00 20.00 Z M 54.00 32.00 L 55.00 31.00 L 57.00 31.00 L 58.00 32.00 L 58.00 34.00 L 57.00 35.00 L 55.00 35.00 L 54.00 34.00 Z" fill="#FFFFFF" stroke="#FFFFFF" stroke-width="0.5" fill-rule="evenodd" clip-rule="evenodd"/>
</svg>
