<svg xmlns="http://www.w3.org/2000/svg" viewBox="0 0 127 47" width="127" height="47">
  <path d="M 5.00 37.00 L 6.00 38.00 L 6.00 41.00 L 9.00 41.00 L 10.00 40.00 L 12.00 40.00 L 15.00 37.00 L 20.00 35.00 L 25.00 31.00 L 29.00 31.00 L 32.00 28.00 L 35.00 28.00 L 37.00 29.00 L 38.00 31.00 L 42.00 31.00 L 44.00 29.00 L 45.00 29.00 L 45.00 27.00 L 46.00 26.00 L 48.00 26.00 L 50.00 24.00 L 63.00 24.00 L 64.00 23.00 L 69.00 23.00 L 70.00 24.00 L 97.00 24.00 L 100.00 22.00 L 115.00 22.00 L 117.00 23.00 L 119.00 22.00 L 119.00 18.00 L 121.00 17.00 L 121.00 13.00 L 40.00 13.00 L 39.00 14.00 L 35.00 15.00 L 35.00 17.00 L 29.00 21.00 L 21.00 21.00 L 20.00 22.00 L 16.00 22.00 L 15.00 23.00 L 9.00 23.00 L 8.00 24.00 L 6.00 24.00 L 5.00 25.00 Z M 40.00 26.00 L 41.00 25.00 L 43.00 25.00 L 44.00 26.00 L 44.00 28.00 L 43.00 29.00 L 41.00 29.00 L 40.00 28.00 Z" fill="#FFFFFF" stroke="#FFFFFF" stroke-width="0.5" fill-rule="evenodd" clip-rule="evenodd"/>
</svg>
