<svg xmlns="http://www.w3.org/2000/svg" viewBox="0 0 166 59" width="166" height="59">
  <path d="M 160.00 13.00 L 158.00 13.00 L 156.00 9.00 L 154.00 10.00 L 153.00 13.00 L 89.00 13.00 L 88.00 12.00 L 80.00 13.00 L 76.00 12.00 L 75.00 14.00 L 65.00 14.00 L 62.00 16.00 L 52.00 15.00 L 49.00 12.00 L 49.00 14.00 L 45.00 15.00 L 44.00 19.00 L 37.00 24.00 L 25.00 23.00 L 24.00 24.00 L 17.00 24.00 L 16.00 25.00 L 7.00 26.00 L 6.00 27.00 L 7.00 45.00 L 10.00 46.00 L 30.00 36.00 L 36.00 36.00 L 43.00 29.00 L 45.00 29.00 L 47.00 33.00 L 55.00 33.00 L 58.00 31.00 L 60.00 31.00 L 62.00 29.00 L 66.00 28.00 L 68.00 25.00 L 85.00 24.00 L 86.00 23.00 L 90.00 23.00 L 93.00 21.00 L 156.00 19.00 L 157.00 16.00 L 160.00 16.00 Z" fill="#FFFFFF" stroke="#FFFFFF" stroke-width="0.5" fill-rule="evenodd" clip-rule="evenodd"/>
</svg>
