<svg xmlns="http://www.w3.org/2000/svg" viewBox="0 0 159 50" width="159" height="50">
  <path d="M 156.00 15.00 L 152.00 13.00 L 152.00 10.00 L 151.00 9.00 L 149.00 10.00 L 149.00 13.00 L 148.00 14.00 L 103.00 14.00 L 102.00 13.00 L 95.00 13.00 L 94.00 12.00 L 83.00 12.00 L 82.00 14.00 L 73.00 13.00 L 69.00 15.00 L 64.00 15.00 L 63.00 14.00 L 57.00 14.00 L 55.00 12.00 L 53.00 14.00 L 50.00 14.00 L 49.00 15.00 L 49.00 18.00 L 46.00 21.00 L 40.00 24.00 L 37.00 23.00 L 12.00 24.00 L 5.00 26.00 L 5.00 31.00 L 6.00 32.00 L 7.00 44.00 L 10.00 45.00 L 27.00 37.00 L 29.00 37.00 L 33.00 34.00 L 37.00 34.00 L 48.00 28.00 L 50.00 28.00 L 52.00 32.00 L 57.00 32.00 L 58.00 31.00 L 69.00 29.00 L 72.00 27.00 L 74.00 27.00 L 75.00 25.00 L 92.00 24.00 L 102.00 21.00 L 118.00 21.00 L 119.00 20.00 L 130.00 20.00 L 133.00 21.00 L 134.00 20.00 L 141.00 20.00 L 142.00 19.00 L 154.00 19.00 Z M 56.00 27.00 L 57.00 26.00 L 59.00 26.00 L 60.00 27.00 L 60.00 29.00 L 59.00 30.00 L 57.00 30.00 L 56.00 29.00 Z" fill="#FFFFFF" stroke="#FFFFFF" stroke-width="0.5" fill-rule="evenodd" clip-rule="evenodd"/>
</svg>
