<svg xmlns="http://www.w3.org/2000/svg" viewBox="0 0 157 53" width="157" height="53">
  <path d="M 156.00 17.00 L 152.00 16.00 L 150.00 11.00 L 148.00 12.00 L 148.00 15.00 L 147.00 16.00 L 102.00 16.00 L 101.00 15.00 L 94.00 15.00 L 93.00 14.00 L 82.00 14.00 L 81.00 16.00 L 72.00 15.00 L 68.00 17.00 L 63.00 17.00 L 62.00 16.00 L 53.00 15.00 L 52.00 16.00 L 49.00 16.00 L 48.00 17.00 L 48.00 20.00 L 45.00 23.00 L 39.00 26.00 L 36.00 25.00 L 11.00 26.00 L 4.00 28.00 L 4.00 33.00 L 5.00 34.00 L 6.00 46.00 L 12.00 46.00 L 26.00 39.00 L 28.00 39.00 L 32.00 36.00 L 36.00 36.00 L 38.00 34.00 L 40.00 34.00 L 47.00 30.00 L 49.00 30.00 L 51.00 34.00 L 55.00 34.00 L 56.00 33.00 L 61.00 33.00 L 65.00 31.00 L 68.00 31.00 L 71.00 29.00 L 73.00 29.00 L 74.00 27.00 L 91.00 26.00 L 101.00 23.00 L 116.00 23.00 L 117.00 22.00 L 129.00 22.00 L 132.00 23.00 L 133.00 22.00 L 140.00 22.00 L 141.00 21.00 L 153.00 21.00 Z M 55.00 29.00 L 56.00 28.00 L 58.00 28.00 L 59.00 29.00 L 59.00 31.00 L 58.00 32.00 L 56.00 32.00 L 55.00 31.00 Z" fill="#FFFFFF" stroke="#FFFFFF" stroke-width="0.5" fill-rule="evenodd" clip-rule="evenodd"/>
</svg>
