<svg xmlns="http://www.w3.org/2000/svg" viewBox="0 0 147 75" width="147" height="75">
  <path d="M 137.00 18.00 L 133.00 18.00 L 131.00 14.00 L 129.00 14.00 L 127.00 19.00 L 106.00 19.00 L 99.00 17.00 L 91.00 18.00 L 72.00 17.00 L 71.00 19.00 L 48.00 18.00 L 42.00 19.00 L 40.00 21.00 L 37.00 29.00 L 28.00 29.00 L 19.00 31.00 L 11.00 31.00 L 9.00 25.00 L 6.00 25.00 L 8.00 32.00 L 8.00 44.00 L 9.00 46.00 L 11.00 45.00 L 12.00 35.00 L 15.00 33.00 L 38.00 31.00 L 42.00 35.00 L 42.00 37.00 L 36.00 49.00 L 37.00 51.00 L 43.00 53.00 L 47.00 42.00 L 56.00 41.00 L 59.00 38.00 L 60.00 33.00 L 76.00 35.00 L 79.00 31.00 L 83.00 31.00 L 85.00 37.00 L 85.00 66.00 L 91.00 66.00 L 92.00 27.00 L 112.00 23.00 L 121.00 23.00 L 122.00 26.00 L 124.00 27.00 L 129.00 23.00 L 137.00 23.00 Z M 53.00 35.00 L 54.00 34.00 L 57.00 34.00 L 58.00 35.00 L 58.00 37.00 L 57.00 38.00 L 54.00 38.00 L 53.00 37.00 Z" fill="#FFFFFF" stroke="#FFFFFF" stroke-width="0.5" fill-rule="evenodd" clip-rule="evenodd"/>
</svg>
