<svg xmlns="http://www.w3.org/2000/svg" viewBox="0 0 128 71" width="128" height="71">
  <path d="M 7.00 24.00 L 7.00 40.00 L 8.00 43.00 L 11.00 46.00 L 11.00 48.00 L 20.00 48.00 L 21.00 47.00 L 21.00 43.00 L 25.00 41.00 L 30.00 41.00 L 31.00 42.00 L 38.00 41.00 L 40.00 44.00 L 43.00 55.00 L 48.00 60.00 L 51.00 61.00 L 60.00 60.00 L 64.00 56.00 L 74.00 56.00 L 75.00 47.00 L 78.00 41.00 L 90.00 41.00 L 91.00 44.00 L 94.00 44.00 L 95.00 41.00 L 112.00 41.00 L 115.00 43.00 L 115.00 47.00 L 116.00 48.00 L 123.00 48.00 L 125.00 44.00 L 125.00 39.00 L 127.00 38.00 L 127.00 33.00 L 125.00 32.00 L 124.00 24.00 L 115.00 24.00 L 114.00 28.00 L 112.00 30.00 L 95.00 30.00 L 94.00 27.00 L 86.00 28.00 L 85.00 27.00 L 81.00 28.00 L 40.00 28.00 L 39.00 30.00 L 33.00 30.00 L 32.00 27.00 L 30.00 27.00 L 28.00 23.00 L 26.00 24.00 L 23.00 23.00 L 21.00 17.00 L 21.00 12.00 L 19.00 10.00 L 12.00 10.00 L 10.00 12.00 L 10.00 18.00 Z M 43.00 42.00 L 44.00 41.00 L 62.00 41.00 L 63.00 42.00 L 63.00 48.00 L 62.00 49.00 L 62.00 51.00 L 61.00 52.00 L 61.00 55.00 L 57.00 58.00 L 51.00 58.00 L 50.00 57.00 L 49.00 57.00 L 45.00 53.00 L 45.00 51.00 L 44.00 50.00 L 44.00 46.00 L 43.00 45.00 Z" fill="#FFFFFF" stroke="#FFFFFF" stroke-width="0.5" fill-rule="evenodd" clip-rule="evenodd"/>
</svg>
