<svg xmlns="http://www.w3.org/2000/svg" viewBox="0 0 180 64" width="180" height="64">
  <path d="M 8.00 53.00 L 10.00 55.00 L 14.00 54.00 L 36.00 43.00 L 40.00 43.00 L 52.00 36.00 L 55.00 36.00 L 57.00 40.00 L 69.00 40.00 L 79.00 37.00 L 83.00 37.00 L 84.00 33.00 L 105.00 32.00 L 120.00 28.00 L 145.00 28.00 L 146.00 27.00 L 155.00 28.00 L 164.00 26.00 L 173.00 27.00 L 175.00 24.00 L 179.00 24.00 L 179.00 21.00 L 108.00 21.00 L 105.00 19.00 L 99.00 20.00 L 90.00 19.00 L 89.00 14.00 L 75.00 14.00 L 74.00 12.00 L 71.00 12.00 L 70.00 14.00 L 56.00 14.00 L 56.00 21.00 L 53.00 22.00 L 53.00 26.00 L 45.00 31.00 L 22.00 31.00 L 7.00 34.00 Z" fill="#FFFFFF" stroke="#FFFFFF" stroke-width="0.5" fill-rule="evenodd" clip-rule="evenodd"/>
</svg>
