<svg xmlns="http://www.w3.org/2000/svg" viewBox="0 0 136 68" width="136" height="68">
  <path d="M 124.00 19.00 L 123.00 17.00 L 120.00 16.00 L 120.00 12.00 L 119.00 11.00 L 116.00 12.00 L 116.00 16.00 L 115.00 17.00 L 67.00 17.00 L 65.00 15.00 L 60.00 17.00 L 58.00 15.00 L 54.00 15.00 L 52.00 12.00 L 50.00 12.00 L 47.00 17.00 L 37.00 18.00 L 36.00 19.00 L 36.00 25.00 L 31.00 30.00 L 26.00 31.00 L 13.00 37.00 L 10.00 37.00 L 9.00 33.00 L 6.00 32.00 L 6.00 38.00 L 8.00 43.00 L 9.00 52.00 L 10.00 53.00 L 12.00 52.00 L 11.00 44.00 L 13.00 42.00 L 27.00 37.00 L 32.00 34.00 L 41.00 34.00 L 44.00 40.00 L 51.00 41.00 L 55.00 37.00 L 69.00 32.00 L 72.00 29.00 L 77.00 29.00 L 78.00 32.00 L 73.00 46.00 L 70.00 51.00 L 70.00 57.00 L 71.00 58.00 L 76.00 58.00 L 79.00 53.00 L 85.00 35.00 L 89.00 31.00 L 90.00 28.00 L 97.00 27.00 L 99.00 25.00 L 123.00 25.00 Z M 48.00 32.00 L 49.00 31.00 L 51.00 31.00 L 53.00 33.00 L 53.00 36.00 L 52.00 37.00 L 49.00 37.00 L 48.00 36.00 Z" fill="#FFFFFF" stroke="#FFFFFF" stroke-width="0.5" fill-rule="evenodd" clip-rule="evenodd"/>
</svg>
