<svg xmlns="http://www.w3.org/2000/svg" viewBox="0 0 147 93" width="147" height="93">
  <path d="M 9.00 65.00 L 12.00 67.00 L 21.00 63.00 L 30.00 56.00 L 43.00 54.00 L 48.00 50.00 L 51.00 45.00 L 54.00 45.00 L 58.00 48.00 L 58.00 51.00 L 52.00 60.00 L 54.00 65.00 L 61.00 67.00 L 62.00 62.00 L 64.00 60.00 L 64.00 57.00 L 66.00 55.00 L 76.00 55.00 L 77.00 56.00 L 77.00 78.00 L 78.00 79.00 L 85.00 79.00 L 85.00 44.00 L 86.00 43.00 L 91.00 43.00 L 93.00 46.00 L 125.00 45.00 L 127.00 44.00 L 128.00 39.00 L 141.00 40.00 L 141.00 36.00 L 137.00 36.00 L 135.00 33.00 L 132.00 36.00 L 77.00 36.00 L 76.00 35.00 L 72.00 36.00 L 47.00 36.00 L 44.00 33.00 L 37.00 32.00 L 37.00 35.00 L 33.00 36.00 L 33.00 43.00 L 32.00 44.00 L 27.00 43.00 L 9.00 43.00 L 8.00 44.00 Z M 72.00 48.00 L 74.00 48.00 L 75.00 49.00 L 75.00 52.00 L 74.00 53.00 L 71.00 53.00 L 70.00 52.00 L 70.00 50.00 Z" fill="#FFFFFF" stroke="#FFFFFF" stroke-width="0.5" fill-rule="evenodd" clip-rule="evenodd"/>
</svg>
