<svg xmlns="http://www.w3.org/2000/svg" viewBox="0 0 135 88" width="135" height="88">
  <path d="M 112.00 25.00 L 106.00 21.00 L 105.00 21.00 L 102.00 25.00 L 71.00 25.00 L 68.00 23.00 L 47.00 23.00 L 45.00 22.00 L 42.00 28.00 L 35.00 27.00 L 35.00 29.00 L 40.00 32.00 L 40.00 35.00 L 36.00 39.00 L 30.00 39.00 L 29.00 40.00 L 28.00 47.00 L 25.00 51.00 L 20.00 63.00 L 20.00 66.00 L 19.00 67.00 L 19.00 76.00 L 23.00 76.00 L 24.00 77.00 L 24.00 81.00 L 25.00 82.00 L 28.00 82.00 L 30.00 77.00 L 35.00 76.00 L 35.00 65.00 L 36.00 64.00 L 36.00 60.00 L 42.00 53.00 L 45.00 53.00 L 47.00 55.00 L 48.00 59.00 L 51.00 61.00 L 58.00 61.00 L 59.00 60.00 L 61.00 60.00 L 64.00 57.00 L 64.00 52.00 L 66.00 49.00 L 70.00 49.00 L 70.00 48.00 L 74.00 45.00 L 75.00 39.00 L 79.00 37.00 L 79.00 34.00 L 80.00 33.00 L 90.00 33.00 L 91.00 32.00 L 112.00 32.00 Z M 50.00 51.00 L 52.00 51.00 L 53.00 52.00 L 53.00 54.00 L 54.00 55.00 L 54.00 58.00 L 53.00 59.00 L 51.00 59.00 L 48.00 56.00 L 48.00 53.00 Z M 57.00 49.00 L 61.00 49.00 L 63.00 51.00 L 63.00 55.00 L 61.00 58.00 L 58.00 58.00 L 55.00 56.00 L 55.00 51.00 Z" fill="#FFFFFF" stroke="#FFFFFF" stroke-width="0.5" fill-rule="evenodd" clip-rule="evenodd"/>
</svg>
