<svg xmlns="http://www.w3.org/2000/svg" width="1448" height="1086" viewBox="0 0 1448 1086">
<rect width="100%" height="100%" fill="white"/>
<path d="M 1144,609 L 1142,611 L 1141,615 L 1132,616 L 1129,612 L 1126,612 L 1113,617 L 1114,622 L 1108,626 L 1105,625 L 1107,626 L 1105,628 L 1100,624 L 1089,633 L 1090,637 L 1089,641 L 1085,645 L 1081,643 L 1078,645 L 1072,654 L 1072,656 L 1076,659 L 1071,667 L 1066,667 L 1064,670 L 1061,680 L 1064,683 L 1063,685 L 1064,683 L 1066,684 L 1065,685 L 1065,690 L 1063,693 L 1060,693 L 1058,695 L 1059,696 L 1058,702 L 1059,703 L 1059,709 L 1064,711 L 1066,719 L 1061,722 L 1064,735 L 1065,736 L 1070,736 L 1074,743 L 1070,748 L 1078,760 L 1082,759 L 1083,760 L 1082,761 L 1083,761 L 1084,759 L 1090,765 L 1088,770 L 1093,775 L 1099,779 L 1101,779 L 1104,776 L 1113,782 L 1112,784 L 1113,787 L 1126,792 L 1128,792 L 1131,788 L 1140,789 L 1142,795 L 1158,795 L 1160,793 L 1161,789 L 1167,789 L 1168,790 L 1167,791 L 1169,791 L 1168,790 L 1169,788 L 1172,793 L 1174,793 L 1189,787 L 1188,783 L 1197,777 L 1201,781 L 1214,771 L 1213,768 L 1214,766 L 1213,765 L 1216,762 L 1217,763 L 1218,760 L 1223,762 L 1228,756 L 1229,757 L 1228,755 L 1231,751 L 1231,748 L 1228,745 L 1233,737 L 1234,738 L 1238,737 L 1242,723 L 1239,721 L 1240,720 L 1239,721 L 1238,720 L 1239,713 L 1245,710 L 1245,695 L 1241,694 L 1239,692 L 1239,686 L 1238,685 L 1243,682 L 1239,668 L 1238,667 L 1234,668 L 1232,666 L 1229,660 L 1230,658 L 1231,659 L 1230,658 L 1232,656 L 1232,654 L 1224,643 L 1219,645 L 1217,643 L 1218,642 L 1217,643 L 1214,640 L 1215,639 L 1214,640 L 1213,639 L 1215,634 L 1211,630 L 1212,629 L 1211,630 L 1203,624 L 1201,624 L 1199,627 L 1197,627 L 1189,622 L 1190,617 L 1177,612 L 1173,612 L 1170,616 L 1162,615 L 1160,610 L 1158,609 Z" fill="black" fill-rule="evenodd"/>
<path d="M 925,609 L 923,615 L 914,616 L 911,612 L 908,612 L 895,618 L 896,622 L 890,626 L 888,625 L 886,626 L 884,624 L 882,624 L 870,634 L 872,639 L 867,645 L 864,643 L 862,643 L 854,654 L 854,656 L 857,658 L 854,666 L 847,668 L 843,679 L 843,681 L 846,683 L 845,685 L 846,683 L 848,684 L 846,692 L 841,694 L 840,707 L 842,710 L 845,710 L 847,714 L 847,719 L 846,720 L 845,717 L 846,720 L 843,722 L 843,726 L 846,735 L 848,737 L 852,736 L 856,743 L 852,748 L 860,760 L 863,760 L 866,758 L 872,765 L 870,770 L 881,779 L 884,779 L 887,776 L 894,781 L 893,782 L 894,781 L 895,782 L 894,785 L 895,787 L 905,790 L 908,792 L 911,792 L 914,788 L 917,788 L 918,789 L 923,789 L 925,795 L 941,795 L 944,789 L 953,788 L 955,792 L 959,792 L 972,787 L 972,782 L 979,777 L 982,778 L 983,780 L 985,780 L 997,771 L 995,766 L 999,762 L 1000,763 L 999,762 L 1001,760 L 1002,761 L 1003,760 L 1006,761 L 1014,750 L 1014,748 L 1012,746 L 1013,745 L 1012,746 L 1011,745 L 1015,737 L 1019,738 L 1023,730 L 1024,722 L 1022,721 L 1023,720 L 1021,718 L 1021,712 L 1022,711 L 1026,711 L 1027,709 L 1027,696 L 1026,694 L 1022,694 L 1021,693 L 1020,685 L 1021,684 L 1022,685 L 1021,684 L 1024,682 L 1024,679 L 1020,667 L 1016,668 L 1011,660 L 1012,658 L 1013,659 L 1012,658 L 1014,656 L 1013,652 L 1006,643 L 1001,645 L 1000,644 L 1001,643 L 1000,642 L 999,643 L 995,639 L 997,634 L 985,624 L 982,626 L 981,625 L 982,626 L 981,627 L 973,624 L 971,622 L 972,621 L 971,617 L 958,612 L 956,612 L 953,616 L 948,616 L 944,615 L 943,611 L 941,609 Z" fill="black" fill-rule="evenodd"/>
<path d="M 247,609 L 245,615 L 236,616 L 233,612 L 219,616 L 217,618 L 218,622 L 216,624 L 210,627 L 206,624 L 204,624 L 192,634 L 194,639 L 189,645 L 183,643 L 176,654 L 177,657 L 176,658 L 178,660 L 175,667 L 170,667 L 166,676 L 165,681 L 169,683 L 170,685 L 169,686 L 169,692 L 163,694 L 163,709 L 167,710 L 169,714 L 169,718 L 170,719 L 165,722 L 169,736 L 174,736 L 178,743 L 174,748 L 183,760 L 188,758 L 194,765 L 192,770 L 196,774 L 203,779 L 206,779 L 209,776 L 217,781 L 216,785 L 217,787 L 227,791 L 233,792 L 235,788 L 240,788 L 241,789 L 245,789 L 247,795 L 263,795 L 266,789 L 272,789 L 274,791 L 272,789 L 274,788 L 277,793 L 290,789 L 294,787 L 293,782 L 301,777 L 303,779 L 301,780 L 303,779 L 306,781 L 319,771 L 317,766 L 318,765 L 319,766 L 320,765 L 319,764 L 322,761 L 323,762 L 322,761 L 323,760 L 328,762 L 337,750 L 337,748 L 333,745 L 337,738 L 338,739 L 337,738 L 338,737 L 342,738 L 344,735 L 347,723 L 342,720 L 343,719 L 343,714 L 345,712 L 349,711 L 349,695 L 345,694 L 343,692 L 343,686 L 342,685 L 347,682 L 344,670 L 342,667 L 338,668 L 333,660 L 334,658 L 335,659 L 334,658 L 336,656 L 336,653 L 328,643 L 323,645 L 322,644 L 323,643 L 320,640 L 319,641 L 317,639 L 319,634 L 314,629 L 307,624 L 302,628 L 300,626 L 301,625 L 299,626 L 293,622 L 294,619 L 293,617 L 281,612 L 277,612 L 274,616 L 266,615 L 263,609 Z" fill="black" fill-rule="evenodd"/>
<path d="M 1080,423 L 1080,440 L 1081,441 L 1125,441 L 1126,442 L 1125,441 L 1125,424 L 1126,423 L 1153,423 L 1154,424 L 1154,441 L 1219,441 L 1220,440 L 1220,423 L 1217,420 L 1083,420 Z" fill="black" fill-rule="evenodd"/>
<path d="M 1232,415 L 1232,440 L 1233,441 L 1320,441 L 1321,440 L 1321,415 L 1319,413 L 1234,413 Z" fill="black" fill-rule="evenodd"/>
<path d="M 756,373 L 756,440 L 757,441 L 909,441 L 909,424 L 910,423 L 922,423 L 922,415 L 921,414 L 922,413 L 922,373 L 919,370 L 759,370 Z" fill="black" fill-rule="evenodd"/>
<path d="M 1230,376 L 1230,406 L 1233,409 L 1320,409 L 1323,406 L 1323,376 L 1322,375 L 1322,374 L 1321,374 L 1320,373 L 1313,373 L 1312,372 L 1312,370 L 1311,369 L 1311,368 L 1310,368 L 1309,367 L 1244,367 L 1242,369 L 1242,372 L 1241,373 L 1233,373 Z" fill="black" fill-rule="evenodd"/>
<path d="M 804,367 L 809,367 L 810,368 L 860,368 L 851,368 L 850,367 L 833,367 L 832,368 L 813,368 L 812,367 Z" fill="black" fill-rule="evenodd"/>
<path d="M 931,347 L 931,423 L 938,423 L 939,424 L 938,425 L 939,426 L 939,440 L 1070,440 L 1070,347 L 1069,346 L 932,346 Z M 1004,409 L 1005,408 L 1006,408 L 1007,407 L 1008,407 L 1009,408 L 1008,407 L 1009,406 L 1010,406 L 1012,408 L 1013,408 L 1014,409 L 1015,409 L 1016,410 L 1018,410 L 1019,411 L 1020,411 L 1021,412 L 1022,412 L 1023,413 L 1024,413 L 1026,415 L 1027,415 L 1028,416 L 1030,416 L 1032,418 L 1033,418 L 1034,419 L 1035,419 L 1036,420 L 1038,420 L 1039,421 L 1040,421 L 1041,422 L 1042,422 L 1043,423 L 1044,423 L 1045,424 L 1046,424 L 1047,425 L 1048,425 L 1049,426 L 1050,426 L 1052,428 L 1051,429 L 1049,429 L 1052,429 L 1053,428 L 1054,429 L 1056,429 L 1057,430 L 1056,431 L 1047,431 L 1046,430 L 1044,430 L 1042,428 L 1041,428 L 1040,427 L 1039,427 L 1038,426 L 1037,426 L 1036,425 L 1035,425 L 1034,424 L 1033,424 L 1032,423 L 1031,423 L 1030,422 L 1029,422 L 1028,421 L 1027,421 L 1026,420 L 1025,420 L 1024,419 L 1023,419 L 1022,418 L 1023,417 L 1022,418 L 1021,418 L 1020,417 L 1019,417 L 1018,416 L 1016,416 L 1015,415 L 1014,415 L 1013,414 L 1012,414 L 1011,413 L 1010,413 L 1009,412 L 1008,412 L 1007,411 L 1006,411 Z M 998,409 L 997,410 L 996,410 L 995,411 L 994,411 L 993,412 L 992,412 L 991,411 L 992,412 L 991,413 L 990,413 L 989,414 L 988,414 L 987,413 L 986,413 L 985,414 L 986,415 L 985,416 L 984,416 L 983,415 L 984,416 L 983,417 L 982,417 L 981,418 L 980,418 L 979,419 L 978,419 L 977,420 L 976,420 L 975,421 L 974,421 L 973,422 L 972,422 L 971,423 L 970,423 L 969,424 L 968,424 L 967,423 L 968,424 L 967,425 L 966,425 L 964,427 L 963,427 L 962,428 L 961,428 L 960,429 L 959,429 L 958,430 L 957,430 L 956,431 L 946,431 L 945,430 L 946,429 L 947,429 L 948,428 L 949,428 L 950,429 L 951,429 L 950,429 L 949,428 L 950,427 L 951,427 L 952,426 L 953,426 L 954,425 L 955,425 L 956,424 L 957,424 L 958,423 L 959,423 L 960,422 L 962,422 L 963,421 L 964,421 L 965,420 L 966,420 L 967,419 L 968,419 L 969,418 L 970,418 L 972,416 L 974,416 L 976,414 L 978,414 L 979,413 L 980,413 L 982,411 L 983,411 L 984,410 L 985,410 L 986,409 L 987,409 L 988,408 L 989,408 L 990,407 L 991,407 L 992,406 L 993,406 L 994,407 L 995,407 L 996,408 L 997,408 Z M 948,382 L 949,381 L 953,381 L 955,379 L 956,379 L 957,380 L 958,380 L 959,381 L 960,381 L 961,382 L 962,382 L 963,383 L 964,383 L 965,384 L 966,384 L 967,385 L 968,385 L 969,386 L 970,386 L 971,387 L 972,387 L 973,388 L 974,388 L 975,389 L 976,389 L 977,390 L 978,390 L 979,391 L 980,391 L 981,392 L 982,392 L 984,394 L 985,394 L 986,395 L 987,395 L 988,396 L 990,396 L 991,397 L 992,397 L 994,399 L 995,399 L 997,401 L 996,402 L 995,402 L 993,404 L 992,404 L 991,403 L 990,403 L 988,401 L 987,401 L 986,400 L 985,400 L 984,399 L 982,399 L 981,398 L 980,398 L 979,397 L 978,397 L 977,396 L 976,396 L 975,395 L 974,395 L 973,394 L 972,394 L 971,393 L 970,393 L 969,392 L 968,392 L 967,391 L 966,391 L 964,389 L 963,389 L 962,388 L 960,388 L 959,387 L 958,387 L 957,386 L 956,386 L 955,385 L 954,385 L 953,384 L 951,384 L 950,383 L 949,383 Z M 1057,379 L 1055,381 L 1054,381 L 1053,382 L 1052,382 L 1051,383 L 1050,383 L 1049,384 L 1048,384 L 1047,385 L 1046,385 L 1045,386 L 1044,386 L 1043,387 L 1042,387 L 1041,388 L 1040,388 L 1039,389 L 1038,389 L 1037,390 L 1036,390 L 1035,391 L 1034,391 L 1033,392 L 1032,392 L 1031,393 L 1030,393 L 1028,395 L 1026,395 L 1025,396 L 1024,396 L 1023,397 L 1022,397 L 1021,398 L 1020,398 L 1019,399 L 1018,399 L 1017,400 L 1016,400 L 1015,401 L 1014,401 L 1013,402 L 1012,402 L 1010,404 L 1009,404 L 1007,402 L 1006,402 L 1005,401 L 1005,400 L 1006,399 L 1007,399 L 1008,398 L 1009,398 L 1010,397 L 1011,397 L 1012,396 L 1013,396 L 1014,395 L 1015,395 L 1016,394 L 1017,394 L 1018,393 L 1019,393 L 1020,392 L 1021,392 L 1022,391 L 1023,391 L 1024,390 L 1025,390 L 1026,389 L 1027,389 L 1028,388 L 1029,388 L 1030,387 L 1031,387 L 1032,386 L 1033,386 L 1034,385 L 1035,385 L 1036,384 L 1037,384 L 1038,383 L 1039,383 L 1041,381 L 1042,381 L 1043,380 L 1044,380 L 1045,379 L 1046,379 L 1047,378 L 1056,378 Z M 950,372 L 951,371 L 1047,371 L 1048,372 L 1047,373 L 1037,373 L 1036,374 L 959,374 L 958,373 L 951,373 Z" fill="black" fill-rule="evenodd"/>
<path d="M 1079,347 L 1079,373 L 1078,374 L 1078,376 L 1079,377 L 1078,378 L 1078,383 L 1079,384 L 1079,414 L 1080,414 L 1082,416 L 1219,416 L 1222,413 L 1222,347 L 1220,345 L 1081,345 Z" fill="black" fill-rule="evenodd"/>
<path d="M 1110,328 L 1110,340 L 1111,341 L 1190,341 L 1191,340 L 1191,328 L 1190,327 L 1111,327 Z" fill="black" fill-rule="evenodd"/>
<path d="M 871,320 L 868,323 L 868,363 L 870,365 L 909,365 L 910,364 L 910,322 L 908,320 Z" fill="black" fill-rule="evenodd"/>
<path d="M 795,322 L 795,363 L 797,365 L 862,365 L 863,364 L 864,364 L 864,322 L 862,320 L 797,320 Z" fill="black" fill-rule="evenodd"/>
<path d="M 76,613 L 76,684 L 97,685 L 99,666 L 119,666 L 124,680 L 158,680 L 174,643 L 217,609 L 245,602 L 286,606 L 313,619 L 341,647 L 359,704 L 374,703 L 375,680 L 664,685 L 668,666 L 800,673 L 801,690 L 818,691 L 821,680 L 836,680 L 849,648 L 870,624 L 923,602 L 961,605 L 992,620 L 1017,645 L 1032,680 L 1054,680 L 1078,634 L 1113,609 L 1141,602 L 1188,608 L 1226,634 L 1251,680 L 1260,676 L 1262,666 L 1290,667 L 1292,731 L 1306,729 L 1307,681 L 1351,681 L 1360,691 L 1372,690 L 1379,681 L 1371,667 L 1371,679 L 1364,683 L 1362,668 L 1350,661 L 1318,661 L 1324,638 L 1345,634 L 1351,588 L 1371,586 L 1371,563 L 1351,561 L 1350,425 L 1329,425 L 1326,445 L 1153,445 L 1151,425 L 1128,425 L 1127,445 L 937,445 L 935,425 L 913,425 L 911,445 L 754,445 L 754,425 L 731,425 L 730,561 L 723,562 L 722,404 L 701,402 L 698,337 L 688,322 L 668,314 L 512,330 L 481,342 L 462,358 L 476,363 L 467,445 L 455,445 L 448,432 L 434,429 L 425,448 L 180,476 L 164,496 L 162,522 L 142,516 L 133,533 L 136,560 L 148,566 L 137,577 L 137,590 L 160,597 L 162,617 L 125,618 L 118,632 L 100,632 L 97,612 Z M 405,623 L 406,624 L 406,625 L 407,626 L 407,627 L 408,628 L 408,630 L 409,631 L 409,632 L 410,633 L 410,635 L 409,636 L 409,637 L 409,636 L 410,635 L 411,636 L 411,637 L 412,638 L 412,640 L 413,641 L 413,643 L 414,644 L 414,646 L 415,647 L 415,650 L 416,651 L 416,654 L 417,655 L 417,658 L 418,659 L 418,663 L 417,664 L 416,663 L 416,662 L 415,661 L 415,659 L 414,658 L 414,655 L 413,654 L 413,652 L 412,651 L 412,649 L 411,648 L 411,647 L 410,646 L 410,644 L 409,643 L 409,641 L 408,640 L 408,639 L 407,638 L 407,637 L 406,636 L 406,635 L 405,634 L 405,632 L 404,631 L 404,630 L 403,629 L 403,628 L 402,627 L 402,626 L 403,625 L 404,625 L 404,624 Z M 723,589 L 730,589 L 731,590 L 731,604 L 730,605 L 723,605 L 722,604 L 722,590 Z M 161,558 L 162,559 L 162,565 L 161,566 L 160,566 L 159,565 L 159,563 L 158,562 L 158,561 Z M 1152,557 L 1153,556 L 1327,556 L 1328,557 L 1327,558 L 1327,560 L 1328,561 L 1327,562 L 1153,562 L 1152,561 Z M 936,557 L 937,556 L 1127,556 L 1128,557 L 1128,561 L 1127,562 L 937,562 L 936,561 Z M 753,561 L 754,560 L 754,557 L 755,556 L 911,556 L 912,557 L 912,561 L 911,562 L 754,562 Z M 196,554 L 197,553 L 200,553 L 201,552 L 204,552 L 205,551 L 208,551 L 209,550 L 212,550 L 213,549 L 216,549 L 221,547 L 231,546 L 232,545 L 239,545 L 240,547 L 242,546 L 249,546 L 242,546 L 241,545 L 242,544 L 250,544 L 251,543 L 277,543 L 278,544 L 289,544 L 290,545 L 295,545 L 296,546 L 301,546 L 302,547 L 306,547 L 307,548 L 314,549 L 315,550 L 329,554 L 336,558 L 338,558 L 348,563 L 350,565 L 353,566 L 362,572 L 369,578 L 370,578 L 382,590 L 381,591 L 382,590 L 385,593 L 384,594 L 385,595 L 386,594 L 391,600 L 391,601 L 394,604 L 394,605 L 392,606 L 394,605 L 396,607 L 394,610 L 396,610 L 397,609 L 402,617 L 400,618 L 400,619 L 401,619 L 402,617 L 405,623 L 403,624 L 402,626 L 400,624 L 399,621 L 391,609 L 387,605 L 383,599 L 369,585 L 368,585 L 359,577 L 350,571 L 345,569 L 343,567 L 333,562 L 331,562 L 328,560 L 326,560 L 323,558 L 321,558 L 314,555 L 307,554 L 303,552 L 294,551 L 293,550 L 278,549 L 277,548 L 280,546 L 275,546 L 277,546 L 278,547 L 277,548 L 243,548 L 242,549 L 231,549 L 230,550 L 216,551 L 215,552 L 206,553 L 201,555 L 197,555 Z M 1152,518 L 1153,517 L 1160,517 L 1161,518 L 1166,518 L 1167,517 L 1310,517 L 1311,518 L 1314,518 L 1315,517 L 1326,517 L 1327,518 L 1327,522 L 1326,523 L 1153,523 L 1152,522 Z M 936,518 L 937,517 L 1127,517 L 1128,518 L 1128,522 L 1127,523 L 937,523 L 936,522 Z M 754,518 L 755,517 L 756,518 L 757,517 L 906,517 L 907,518 L 911,518 L 912,519 L 912,522 L 911,523 L 755,523 L 754,522 Z M 190,517 L 192,519 L 192,554 L 196,554 L 197,555 L 196,556 L 193,556 L 192,557 L 190,557 L 189,558 L 186,558 L 185,559 L 183,559 L 182,558 L 183,557 L 184,557 L 184,519 L 185,518 L 186,519 L 189,519 L 186,519 L 185,518 L 186,517 Z M 1327,479 L 1327,483 L 1326,484 L 1153,484 L 1152,483 L 1152,480 L 1153,479 L 1325,479 L 1326,478 Z M 936,480 L 937,479 L 948,479 L 949,478 L 950,479 L 1103,479 L 1104,478 L 1105,478 L 1106,479 L 1125,479 L 1126,480 L 1125,481 L 1124,481 L 1124,482 L 1126,482 L 1126,479 L 1127,478 L 1128,479 L 1128,483 L 1127,484 L 937,484 L 936,483 Z M 754,480 L 755,479 L 769,479 L 770,478 L 777,478 L 778,479 L 911,479 L 912,480 L 912,483 L 911,484 L 755,484 L 754,483 Z M 638,374 L 638,376 L 639,377 L 639,445 L 638,446 L 638,448 L 634,452 L 633,452 L 632,453 L 618,453 L 617,454 L 523,454 L 522,453 L 502,453 L 501,452 L 499,452 L 495,448 L 495,446 L 494,445 L 494,431 L 495,430 L 495,412 L 496,411 L 496,392 L 497,391 L 497,378 L 498,377 L 498,376 L 501,373 L 502,373 L 503,372 L 508,372 L 509,371 L 518,371 L 519,370 L 530,370 L 531,369 L 546,369 L 547,368 L 571,368 L 572,367 L 599,367 L 600,368 L 623,368 L 624,369 L 633,369 Z" fill="black" fill-rule="evenodd"/>
<path d="M 925,291 L 925,338 L 927,340 L 1075,340 L 1077,338 L 1077,291 L 1076,290 L 926,290 Z" fill="black" fill-rule="evenodd"/>
</svg>