<?xml version="1.0" encoding="UTF-8" standalone="no"?>
<svg
   width="500"
   height="250"
   viewBox="0 0 500 250"
   version="1.1"
   id="svg2"
   sodipodi:docname="60l_transport_black.svg"
   inkscape:version="1.4.2 (f4327f4, 2025-05-13)"
   xmlns:inkscape="http://www.inkscape.org/namespaces/inkscape"
   xmlns:sodipodi="http://sodipodi.sourceforge.net/DTD/sodipodi-0.dtd"
   xmlns="http://www.w3.org/2000/svg"
   xmlns:svg="http://www.w3.org/2000/svg">
  <defs
     id="defs2" />
  <sodipodi:namedview
     id="namedview2"
     pagecolor="#ffffff"
     bordercolor="#000000"
     borderopacity="0.25"
     inkscape:showpageshadow="2"
     inkscape:pageopacity="0.0"
     inkscape:pagecheckerboard="0"
     inkscape:deskcolor="#d1d1d1"
     inkscape:zoom="2.1639042"
     inkscape:cx="318.40596"
     inkscape:cy="179.5366"
     inkscape:window-width="2560"
     inkscape:window-height="1377"
     inkscape:window-x="-8"
     inkscape:window-y="-8"
     inkscape:window-maximized="1"
     inkscape:current-layer="svg2" />
  <path
     d="m 14.197445,156.70646 0.761681,13.71023 26.658794,-1.90419 3.808396,-4.57008 -5.712594,18.28031 3.046714,14.85276 10.282683,12.94856 16.376111,7.23595 23.231231,-4.95092 8.759319,-7.6168 6.85512,-12.94855 -2.28505,-24.37375 -15.995269,-17.13779 12.567709,9.52099 4.95093,8.75932 h 8.75931 l 4.18924,7.6168 9.90183,0.38083 0.76168,3.8084 h 14.47192 l 1.14253,-3.8084 131.38975,-2.66588 5.7126,-10.66351 -5.33176,16.75695 4.18924,20.18451 12.56772,12.56773 20.94619,4.95091 15.23359,-5.33176 12.18688,-12.56771 4.18923,-12.18688 -4.18923,-22.08871 -12.18688,-12.56773 -15.23359,-5.33174 -14.85276,1.90419 -17.51863,13.71024 12.94855,-12.94855 22.08871,-3.42756 18.66116,9.14015 10.28267,16.75696 12.18689,-0.38085 4.9509,-9.52099 -5.33175,22.08871 7.23594,19.42283 16.37618,11.4252 20.56535,0.38084 15.99523,-9.90184 9.1402,-20.94619 -4.57008,-20.18452 -15.99527,-14.85274 13.3294,9.14015 5.71258,10.66352 h 13.3294 l 1.14251,6.47427 h 14.09108 l 1.14251,-7.99763 17.51866,-3.04672 5.71258,3.8084 3.80838,-2.66588 -1.90419,-8.37849 -11.42516,1.52337 v -7.99764 l 5.71257,-1.52335 v -14.09108 l 2.66589,-1.52336 -2.66589,-2.66588 V 99.199633 l -6.09344,-2.285033 2.66588,-51.413389 -4.18925,-9.52099 -7.61678,-5.331759 -29.7055,-3.42756 -36.9415,2.285044 -159.95276,-2.285044 -5.33176,2.665879 -3.42756,8.75932 2.28505,58.649334 -3.8084,1.904198 -0.38084,35.037277 -4.18925,-85.308138 -10.28267,-4.570078 -15.23359,0.380847 -46.46247,8.378473 -4.57008,5.331759 4.18924,2.665879 -5.33175,33.133069 -90.639894,7.616789 -5.331759,7.23597 v 25.13543 l 4.189242,-0.38085 -6.09344,2.66588 -2.285044,-5.33176 -9.140155,-2.66588 -2.665879,6.09345 1.142517,6.09344 3.808407,1.52335 -3.427561,6.85512 7.235956,0.76168 6.855122,-3.8084 3.42755,9.90184 z m 377.031525,20.18452 h 0.76164 l 0.38086,-0.38085 h 3.8084 l 0.38081,0.38085 h 0.38087 l 0.38082,0.38083 h 0.38087 l 1.14251,1.14252 -0.38083,0.38085 0.38083,0.38083 0.38081,-0.38083 0.38087,0.38083 v 0.38084 l 0.38082,0.38084 v 0.38084 l 0.38087,0.38085 v 0.76168 l 0.38081,0.38083 v 1.52336 l -0.38081,0.38084 v 1.14252 l -0.38087,0.38084 v 0.38084 l -0.76169,0.76168 v 0.38083 l -0.38081,0.38085 h -0.38083 l -1.14255,1.14252 h -0.38082 l -0.38087,0.38083 h -1.1425 l -0.38082,0.38085 h -1.9042 L 392.7523,188.697 h -0.76169 l -0.38082,-0.38083 h -0.38082 l -0.38086,-0.38084 h -0.38083 l -1.52337,-1.52336 v -0.38084 l -0.38082,-0.38084 v -0.38084 l -0.38087,-0.38084 v -0.38084 l -0.38081,-0.38084 v -3.04672 l 0.38081,-0.38083 v -0.38085 l 0.38087,-0.38084 v -0.38084 l 0.38082,-0.38084 v -0.38083 l 1.14251,-1.14253 h 0.38086 z m -79.97642,-0.38085 h 3.8084 l 0.38083,0.38085 h 0.38085 l 0.38084,0.38083 h 0.38084 l 2.28503,2.28504 v 0.38084 l 0.38084,0.38084 v 1.14253 l 0.38085,0.38083 v 1.9042 l -0.38085,0.38084 v 0.76168 l -0.38084,0.38084 v 0.38084 l -0.38083,0.38084 v 0.38084 l -1.52336,1.52336 h -0.38084 l -0.38084,0.38084 h -0.38084 l -0.38085,0.38083 h -1.14251 l -0.38084,0.38085 h -1.90421 l -0.38083,-0.38085 h -0.76168 l -0.38084,-0.38083 h -0.38084 l -0.76168,-0.76168 h -0.38084 l -0.76168,-0.76169 v -0.38083 l -0.76168,-0.76168 v -0.38084 l -0.38084,-0.38084 v -0.76168 l -0.38085,-0.38084 v -2.28503 l 0.38085,-0.38085 v -0.76168 l 0.38084,-0.38084 v -0.38084 l 2.28504,-2.28504 h 0.38084 l 0.38084,-0.38083 h 0.38084 z m -239.548276,0.38085 h 0.761681 l 0.380836,-0.38085 h 3.808396 l 0.380846,0.38085 h 0.380835 l 0.380835,0.38083 h 0.380846 l 1.523363,1.52337 v 0.38083 l 0.380835,0.38084 v 0.38084 l 0.380835,0.38084 v 0.38085 l 0.380847,0.38083 v 3.04672 l -0.380847,0.38084 v 0.76168 l -0.380835,0.38084 v 0.38084 l -1.904198,1.9042 h -0.380846 l -0.380835,0.38084 H 77.036033 L 76.655187,188.697 H 75.51267 l -0.380835,0.38085 H 73.989307 L 73.608472,188.697 h -1.142517 l -0.380846,-0.38083 h -0.380835 l -0.380846,-0.38084 h -0.380835 l -1.523363,-1.52336 v -0.38084 l -0.380835,-0.38084 v -0.38084 l -0.380846,-0.38084 v -0.76168 l -0.380836,-0.38084 v -2.28503 l 0.380836,-0.38085 v -0.76168 l 0.380846,-0.38084 v -0.38084 l 0.76167,-0.76167 v -0.38085 l 0.761692,-0.76168 h 0.380836 z M 478.82215,160.8957 h 1.90419 l 0.76169,0.76167 v 3.42756 l -0.76169,0.76169 -0.38086,-0.38084 0.38086,0.38084 -0.38086,0.38083 h -1.52333 l -0.76169,-0.76167 v -3.80841 z m -109.30111,-4.57008 0.38087,0.38084 v 0.38084 l 0.38082,0.38084 -2.66589,2.66587 v 0.38085 l -0.38082,0.38084 v 0.76167 l -0.38087,0.38085 -0.38081,-0.38085 v 0.76169 l 0.76168,-0.76169 0.38082,0.38085 v 0.38084 l -0.76169,0.76168 v 0.38084 l -0.76168,0.76167 h -0.38082 l -0.38082,-0.38083 0.76164,-0.76168 h -0.38082 l -0.38082,-0.38084 0.38082,-0.38084 v -1.9042 l 2.28506,-2.28505 v -0.38083 z m 30.84808,-7.99764 0.38081,-0.38084 0.38087,0.38084 v 0.38084 l 0.38083,0.38084 v -1.14252 l 0.38081,-0.38083 0.76169,0.76167 0.38087,-0.38084 h 1.52333 l 0.38086,0.38084 h 0.76169 l 0.38081,0.38084 h 0.76169 l 0.38083,0.38084 h 0.38086 l 0.38082,0.38084 h 0.38087 l 0.38082,0.38084 -0.76169,0.76168 h -0.38082 l -0.38086,-0.38083 h -0.38083 l -0.38082,-0.38085 h -0.76168 l -0.38087,-0.38084 h -0.76168 l -0.38082,-0.38084 h -0.7617 v 0.38084 l -0.76168,0.76169 -0.38082,-0.38085 h -1.52338 l -0.38081,-0.38084 z m -319.143856,0 0.380846,-0.38084 h 0.380835 l 0.380846,-0.38083 h 0.380836 l 0.761681,0.76167 h 0.380835 l 0.380846,-0.38084 h 0.761671 l 0.380846,0.38084 h 0.761681 l 0.380836,0.38084 h 0.761681 l 0.380846,0.38084 h 0.380831 l 0.38085,0.38084 h 0.76167 l 0.76168,0.76169 -0.38083,0.38083 h -0.38085 l -0.38083,0.38084 -0.38084,-0.38084 h -0.38085 l -0.380831,-0.38083 h -0.380846 l -0.380835,-0.38085 h -0.761682 l -0.380846,-0.38084 h -0.380835 l -0.380846,-0.38084 h -0.380835 l -1.142517,1.14253 h -0.761681 l -0.380836,-0.38085 H 81.60611 l -0.380846,-0.38084 z m 320.286366,-0.76167 -0.38083,0.38083 h -0.38087 l -0.38081,0.38084 h -0.38087 l -0.38082,-0.38084 h -1.90419 l -0.38087,-0.38083 h -1.52333 l -0.38086,0.38083 v 0.76168 l -0.38082,0.38084 h -2.66589 l -0.38086,-0.38084 v -0.76168 l -0.38082,-0.38083 h -1.14251 l -0.38086,0.38083 h -1.9042 l -0.38081,0.38084 h -0.7617 v 1.14252 l -0.38085,0.38084 h -0.76165 l -0.38087,0.38085 h -1.14251 l -0.76168,-0.76169 h -0.76169 l -0.38081,0.38084 h -0.7617 l -0.38086,0.38085 h -0.38082 l -0.38082,0.38083 h -0.76168 l -0.38087,0.38084 v 1.52336 l -0.38083,0.38083 h -0.38086 l -0.76164,0.76169 h -0.38087 l -0.38081,-0.38084 v -0.38085 h -1.14256 l -0.76164,0.76169 h -0.38087 l -1.90419,1.90419 0.38086,0.38085 v 0.38084 l -1.90425,1.90419 -0.76164,-0.76167 h -0.38087 l -0.38082,-0.38084 v -0.38084 l 0.38082,-0.38084 h 0.38087 l 0.38081,-0.38084 h 0.38083 v -1.14252 l 0.7617,-0.76168 h 0.38087 l 1.52333,-1.52336 h 0.38086 l 0.76169,-0.76168 h 0.38082 l 0.38082,0.38084 h 0.38087 -0.38087 l -0.38082,-0.38084 0.38082,-0.38084 h 0.38087 l 0.38082,-0.38084 h 1.14255 l 1.1425,-1.14252 h 0.38083 l 0.38087,-0.38084 h 0.38081 l 0.38087,-0.38084 h 0.38082 l 0.38082,-0.38084 h 0.76169 l 0.38087,-0.38084 h 1.1425 l 0.38082,-0.38084 h 0.38086 l 0.38083,0.38084 h 0.76168 l 0.38087,0.38084 -0.38087,-0.38084 1.14252,-1.14252 h 1.52336 l 0.38087,-0.38083 h 2.28502 l 0.38086,-0.38085 h 1.52333 l 0.38086,0.38085 h 1.52333 l 0.38087,-0.38085 h 1.52332 l 0.38087,0.38085 h 2.66588 l 0.38082,0.38083 h 1.14255 z m -319.143839,0 -0.380846,0.38083 H 81.60611 l -0.380846,0.38084 -0.380835,-0.38084 h -2.285044 l -0.380836,-0.38083 h -1.523362 l -0.380836,0.38083 v 0.76168 l -0.380846,0.38084 h -2.665879 l -0.380835,-0.38084 v -0.76168 l -0.380836,-0.38083 h -1.904198 l -0.380846,0.38083 h -2.285044 l -0.380835,0.38084 v 1.14252 l -0.380846,0.38084 h -0.761671 l -0.380846,0.38085 h -0.761681 l -1.142517,-1.14253 -0.380835,0.38084 H 63.32579 l -0.380835,0.38084 h -0.761682 l -0.380835,0.38085 h -0.761681 l -1.523363,1.52335 0.380835,-0.38084 0.380846,0.38084 v 0.38084 l -0.380846,0.38084 h -0.380835 l -1.142517,1.14252 -1.142516,-1.14252 h -0.380846 l -1.142517,1.14252 h -0.380846 l -1.142517,1.14252 h -0.380846 v 0.76167 l 0.380846,0.38085 v 0.38084 l -0.761681,0.76168 h -0.380835 l -0.761682,0.76168 h -0.380846 l -0.380835,-0.38084 h -0.380835 l -0.380847,-0.38084 v 0.38084 l -3.046714,3.04672 v 0.76168 l 0.761681,0.76168 -0.761681,0.76168 v 0.38084 l -0.761681,0.76168 -0.761682,-0.76168 h -0.380835 l -0.380846,-0.38084 1.142527,-1.14253 v -0.38083 l -0.380846,-0.38084 0.380846,-0.38084 v -0.38085 l 1.904198,-1.9042 v -0.38083 l 1.904198,-1.9042 h 1.142517 l 0.761681,-0.76168 0.380846,0.38083 h 0.380836 v -0.38083 l -0.380836,0.38083 -0.380846,-0.38083 v -0.76168 l 0.380846,-0.38084 h 0.380836 l 1.142516,-1.14253 h 0.380846 l 1.142517,-1.14251 h 0.380835 l 0.380846,-0.38084 h 1.142517 l 0.380835,-0.38084 v -0.38084 l 0.380846,-0.38083 h 0.761682 l 0.380835,-0.38085 h 0.380835 l 0.380846,-0.38084 h 0.380835 l 0.380847,-0.38084 h 0.380835 l 0.380846,-0.38084 h 0.76167 l 0.380847,-0.38084 h 0.380835 l 0.380846,-0.38084 h 2.665879 l 0.761671,-0.76168 h 1.523363 l 0.380846,-0.38083 h 1.904198 l 0.380835,-0.38085 h 1.904198 l 0.380846,0.38085 h 0.380835 l 0.380846,0.38083 h 0.380836 l 0.761681,-0.76168 h 2.665879 l 0.380836,0.38085 h 1.904197 l 0.380847,0.38083 h 1.142516 z m 28.943819,-3.04673 3.42756,3.42756 v 0.38084 l 1.14252,1.14252 v 0.38084 l 0.76168,0.76168 v 0.38084 l 0.76168,0.76168 v 0.38084 l 0.76168,0.76167 v 0.38085 l 0.76167,0.76168 v 0.38084 l 0.7617,0.76168 v 0.38083 l 0.38083,0.38085 v 0.38084 l 0.38084,0.38084 v 0.38084 l 0.76168,0.76168 v 0.38083 l 0.38084,0.38085 v 0.38085 l 0.38084,0.38083 v 0.38084 l 0.38084,0.38083 v 0.38085 l 0.38084,0.38084 v 0.38084 l 0.38084,0.38083 v 0.38085 l 0.38084,0.38084 v 0.38084 l 0.38084,0.38084 v 0.38084 l 0.38084,0.38084 v 0.38083 l 0.38084,0.38085 v 0.38083 l 0.38083,0.38085 v 0.38084 l 0.76169,0.76168 v 0.38083 l 0.38084,0.38085 v 0.38083 l 0.38084,0.38085 v 0.38084 l 0.76168,0.76168 v 0.38083 l 0.76168,0.76168 v 0.38084 l 1.52335,1.52336 v 0.38085 l -0.38083,0.38083 h -0.76168 l -1.14252,-1.14251 v -0.38085 l -0.76168,-0.76168 v -0.38084 l -0.76168,-0.76168 v -0.38083 l -0.38084,-0.38085 v -0.38083 l -0.76168,-0.76169 v -0.38083 l -0.38084,-0.38085 v -0.38083 l -0.38084,-0.38085 v -0.38083 l -0.38084,-0.38084 v -0.38085 l -0.76168,-0.76168 v -0.38083 l -0.38084,-0.38084 v -0.38084 l -0.38084,-0.38084 v -0.38084 l -0.38084,-0.38084 v -0.38085 l -0.38084,-0.38083 v -0.38084 l -0.38085,-0.38084 v -0.38085 l -0.76167,-0.76167 v -0.38083 l -0.38083,-0.38085 v -0.38085 l -0.38085,-0.38083 v -0.38084 l -0.38085,-0.38084 v -0.38084 l -0.76167,-0.76168 v -0.38085 l -0.38084,-0.38083 v -0.38084 l -0.76168,-0.76168 v -0.38084 l -0.38084,-0.38084 v -0.38085 l -0.76168,-0.76167 v -0.38084 l -1.52336,-1.52335 v -0.38085 l -1.52335,-1.52336 v -0.38084 l -2.28505,-2.28503 v -0.38085 z m 312.28874,-3.42755 0.76168,-0.76169 0.38083,0.38085 h 0.38082 l 1.90423,1.90419 h 0.38083 l 2.28505,2.28505 v 0.38083 l 0.76165,0.76168 -0.38082,0.38084 h -0.38083 l -3.42756,-3.42755 h -0.38087 l -1.1425,-1.14253 h -0.38083 z m -318.76301,-0.76169 0.38083,-0.38084 h 0.38085 l 0.38083,0.38084 0.38085,-0.38084 0.38084,0.38084 h 0.38083 l 3.42756,3.42756 -0.76168,0.76168 -0.38084,-0.38083 h -0.38084 l -3.04672,-3.04672 h -0.38083 z m 180.13725,0 -0.76168,0.76169 h -0.38083 l -0.76168,0.76167 h -0.38084 l -1.14253,1.14253 h -0.38083 l -3.42756,3.42755 h -0.38084 l -0.38084,-0.38084 v -0.38083 l 3.42756,-3.42757 h 0.38084 l 1.52336,-1.52335 h 0.38084 l 1.14252,-1.14252 h 0.38083 z m 3.8084,-3.42755 0.38085,0.38083 -0.38085,0.38084 0.38085,0.38085 -0.38085,0.38083 h -0.38083 l -0.38085,0.38085 h -0.38084 l -0.38083,-0.38085 0.38083,0.38085 -0.38083,0.38083 h -0.38085 l -0.76168,-0.76168 0.76168,-0.76168 h 0.38085 l 0.38083,-0.38084 h 0.38084 l 0.38085,-0.38083 z m 125.67716,-0.38085 0.38087,-0.38083 h 0.38083 l 0.38087,-0.38085 h 0.76168 l 0.38082,0.38085 h 0.76168 l 0.38083,0.38083 -0.38083,0.38085 h -0.38087 0.38087 l 0.38083,0.38083 -0.38083,0.38084 h -0.76168 l -0.38082,-0.38084 h -0.38087 l -0.38081,-0.38083 h -0.7617 z m -125.67716,0.38085 0.38085,-0.38085 h 0.76168 l 0.38083,0.38085 -0.38083,-0.38085 0.38083,-0.38083 h 0.38084 l 0.38084,-0.38085 h 0.76169 l 0.38083,0.38085 h 0.38085 l 0.38083,0.38083 -0.38083,0.38085 h -0.76168 l -0.38084,-0.38085 0.38084,0.38085 -0.38084,0.38083 h -0.38085 l -0.38084,0.38084 h -0.76167 l -0.38085,-0.38084 h -0.38083 z m 6.85512,-1.90421 -0.38083,0.38085 h -0.38085 l 0.38085,0.38083 -0.38085,0.38085 h -0.76168 l -0.38084,0.38083 h -0.76168 l -0.38083,-0.38083 h -0.38085 l -0.38083,-0.38085 0.38083,-0.38083 h 0.76168 l 0.38085,-0.38085 h 0.76167 l 0.38085,-0.38083 h 0.76168 z m -198.417579,0.38085 0.76169,-0.76168 h 0.76168 l 0.38083,0.38083 h 0.38085 l 0.761679,0.76168 h 0.38084 l 0.38083,0.38085 h 0.38085 l 0.76168,0.76168 h 0.38083 l 0.76168,0.76167 -0.38084,0.38085 h -0.38084 l -0.38083,-0.38085 -0.38085,0.38085 h -0.38083 l -0.76168,-0.76169 h -0.38084 l -0.380849,-0.38083 h -0.38083 l -0.76168,-0.76168 h -0.38085 l -0.38083,-0.38085 0.38083,-0.38083 -0.38083,0.38083 h -0.38084 z m 198.036749,0 0.76168,-0.38085 -0.38085,-0.38083 0.38085,-0.38084 h 1.14251 l 0.38084,-0.38085 4.18924,0.38085 h -1.52336 l -0.38084,-0.38085 0.38084,-0.38083 h 106.63519 l 0.38083,0.38083 -0.38083,0.38085 h -1.1425 l 4.18921,-0.38085 0.38086,0.38085 4.1892,0.76167 1.14257,0.76168 -1.14257,0.76168 h -0.76163 l -1.90424,-0.76168 0.76169,-0.38083 -0.76169,0.38083 -3.42752,-0.38083 -0.38087,-0.38085 0.76169,-0.38083 -1.14251,0.38083 H 299.44651 l -0.76167,-0.38083 0.76167,0.38083 -0.38084,0.38085 h -1.9042 l -0.38084,0.38083 h -1.14252 z m -200.321769,-1.9042 0.38083,-0.38085 h 0.38083 l 0.76168,0.76168 h 0.76168 l 0.76169,0.76169 -0.76169,0.76168 h -0.38083 l -0.38085,-0.38085 h -0.38083 l -0.38085,-0.38083 h -0.38083 l -0.38083,-0.38084 0.38083,-0.38085 z m -45.700799,-0.38085 0.380846,-0.38083 h 0.761681 l 0.380835,-0.38084 h 0.761682 l 0.380835,0.38084 h 0.380846 l 0.380846,0.38083 -0.380846,0.38085 h -0.761681 l -0.380835,0.38083 h -0.761682 l -0.380846,-0.38083 h -0.380835 z m 40.749869,-0.76167 0.38085,-0.38084 h 0.38083 l 0.38084,-0.38084 h 0.76168 l 0.38085,0.38084 h 0.76168 l 0.38083,0.38084 h 0.38084 l 0.38084,0.38084 h 0.38084 l 0.38085,0.38083 -0.76169,0.76168 h -0.76168 l -0.38083,-0.38083 h -0.38085 l -0.38083,-0.38085 0.38083,-0.38083 h -0.38083 l -0.38085,0.38083 h -0.38083 l -0.38085,-0.38083 h -0.76167 z m -2.285031,-0.76168 0.380831,-0.38085 h 0.38085 l 0.38084,-0.38083 h 1.14251 l 0.38085,0.38083 h 0.38083 l 0.38084,0.38085 -0.38084,0.38084 h -0.38083 l -0.38085,0.38084 h -0.76168 l -0.38083,-0.38084 h -0.76169 z m -22.088716,-1.52336 -0.380846,0.38083 h -2.285033 l -0.380847,0.38085 H 61.040757 L 60.65991,130.4285 h -0.761681 0.380846 l 0.380835,0.38085 -0.380835,0.38083 h -1.142516 l -0.380846,0.38085 h -1.142517 l -0.380835,-0.38085 h -0.380846 0.380846 l 0.380835,0.38085 -0.380835,0.38084 h -1.142528 l -0.380835,0.38084 h -1.142517 l -0.761692,-0.76168 0.380846,-0.38085 h 0.380846 l 0.380836,-0.38083 h 1.142516 l 0.380846,-0.38085 h 0.761682 l 0.380835,-0.38083 h 1.523363 l 0.380835,-0.38084 h 1.523363 l 0.380835,-0.38084 h 2.665879 l 0.380846,0.38084 h 0.761671 z m -1.523363,-0.76168 0.380846,-0.38084 h 2.285034 l 0.380835,-0.38085 h 3.427571 l 0.380836,-0.38083 0.380835,0.38083 0.380846,-0.38083 h 3.427561 l 0.380835,0.38083 h 3.046715 l 0.380846,0.38085 h 3.42756 l 0.380836,0.38084 h 1.142516 l 0.380846,0.38084 h 1.523352 l 0.380846,0.38084 h 1.523363 l 0.380831,0.38083 h 0.38085 l 0.38084,0.38085 -0.38084,0.38083 h -0.38085 l -0.380831,0.38085 h -1.523363 l -0.380846,-0.38085 h -1.142516 l -0.380836,-0.38083 0.380836,-0.38085 h 0.761681 -0.761681 l -0.380836,0.38085 h -1.523362 l -0.380836,-0.38085 h -2.285044 l -0.380835,-0.38083 0.380835,-0.38084 h 1.142517 -1.904198 l -0.380835,0.38084 h -3.808396 l -0.380846,-0.38084 h -4.189232 l -0.380846,0.38084 h -4.189242 l -0.380835,-0.38084 h -1.142517 z m 51.794219,-12.18688 0.38084,0.38084 v 14.85276 l -0.38084,0.38084 -0.38084,-0.38084 v -14.85276 z m 4.57008,-0.38084 0.38083,0.38084 v 15.61444 h 0.38085 l 0.38084,0.38083 -0.38084,0.38085 h -0.76168 l -0.38084,-0.38085 v -15.99527 z m -22.850389,0 0.38084,0.38084 v 12.94856 l -0.38084,0.38083 -0.38085,-0.38083 v -12.94856 z m 23.992909,-0.76168 0.38084,0.38085 v 16.37611 l -0.38084,0.38083 -0.38084,-0.38083 v -12.56772 l -0.38085,-0.38084 v -1.9042 l 0.38085,-0.38084 v -1.14251 z m -6.85512,0 0.38084,0.38085 v 15.99527 l -0.38084,0.38084 -0.38084,-0.38084 v -15.99527 z m -15.995269,0 0.38083,0.38085 v 14.47191 l -0.38083,0.38083 -0.38085,-0.38083 v -14.47191 z m -6.85512,0 0.38085,0.38085 v 0.38083 h 0.38083 v -0.38083 l 0.38085,-0.38085 0.38083,0.38085 v 12.18686 l -0.76168,0.76169 h -0.38083 l -0.38085,-0.38084 0.38085,-0.38085 v -1.14251 1.14251 l -0.38085,0.38085 -0.38083,-0.38085 v -12.18686 z m 17.518629,-0.38084 h 0.76169 l 0.76168,0.76169 -0.38085,0.38083 h -0.38083 l -0.38085,-0.38083 v 0.38083 h 0.38085 l 0.76168,0.76168 v 1.9042 l -0.38085,0.38084 v 4.95092 l 0.38085,0.38085 v 3.42754 l -0.38085,0.38085 v 4.18923 l -0.38083,0.38085 h -0.76169 l -0.76168,-0.76168 v -16.37611 z m -5.71259,0 h 0.38084 l 0.76168,0.76169 v 13.71023 l 0.38083,0.38083 v 1.14253 l -0.38083,0.38084 v 1.14251 l -0.38085,0.38085 h -1.14252 l -0.38084,-0.38085 v -16.75694 l 0.38084,-0.38085 0.38085,0.38085 -0.38085,-0.38085 z m 326.76062,-22.088711 0.38087,-0.380835 h 14.09108 l 0.38082,0.380835 v 3.808396 l -0.38082,0.380846 h -0.38086 l -0.38082,-0.380846 0.38082,-0.380835 h -0.38082 v 0.380835 l -0.38087,0.380846 H 432.7405 l -0.38082,-0.380846 V 96.9146 l -0.38086,-0.380835 v -0.380846 0.380846 l -0.38083,0.380835 -0.38087,-0.380835 v -1.142528 l -0.38081,-0.380835 v -1.142517 z m -53.31755,0 0.38081,-0.380835 h 14.47191 l 0.38086,0.380835 v 3.808396 l -0.38086,0.380846 h -12.94854 l -0.38086,0.380836 -0.38082,-0.380836 V 96.9146 l -0.38082,-0.380835 v -1.142528 l -0.38087,-0.380835 v -0.761681 l 0.38087,-0.380836 0.38082,0.380836 v 0.380835 l 0.76168,-0.761671 h 0.38083 -1.9042 z m -52.93679,0 0.38085,-0.380835 h 14.09107 l 0.38084,0.380835 v 3.808396 l -0.38084,0.380846 h -12.94855 l -0.38085,-0.380846 V 96.9146 l -0.38084,-0.380835 v -1.142528 l -0.38083,-0.380835 v -1.142517 z m -52.5559,0 0.38084,-0.380835 h 13.71024 l 0.38083,0.380835 v 3.808396 l -0.38083,0.380846 h -12.94857 l -0.38083,-0.380846 v -0.76167 l -0.38084,-0.380846 v -1.142517 l -0.38084,-0.380846 z m -38.08398,-0.380835 h 0.76167 l 0.38084,0.380835 v 3.046726 l -0.38084,0.380835 -0.38084,-0.380835 v -1.142528 1.142528 l -0.38083,0.380835 -0.38085,-0.380835 v -3.046726 z m -71.21706,0.761681 1.14251,-1.142527 0.38085,0.380846 -0.38085,-0.380846 v -0.380835 l 1.14253,-1.142528 h 1.52335 l 0.76168,-0.76167 h 0.76168 l 1.52337,1.523362 h 0.38083 l 1.9042,1.904198 -0.38084,0.380836 h -8.37848 z m -6.47428,-31.609717 1.14252,-0.761681 h 44.55826 l 0.38084,0.380846 -0.76168,0.380835 1.52336,-0.380835 0.38084,0.380835 v 30.848036 l -0.38084,0.380835 -0.38083,-0.380835 0.38083,0.380835 -1.52336,0.761682 h -25.13543 l -0.38084,-0.380836 -0.38083,0.380836 -0.38085,-0.761682 -1.14252,-1.142516 h -0.38083 l -0.38085,-0.761682 h -0.38083 l -1.14253,-1.142516 v -0.380846 l -3.04671,-2.66588 0.38083,-0.761681 -0.76168,-0.761671 v -0.380846 l -3.04672,-1.523363 -4.18924,-4.189231 0.38085,-0.380846 -1.52336,-1.523352 -0.38084,0.380836 -0.76168,-0.761682 -1.14252,-0.380835 -0.76168,0.380835 -0.38084,1.523363 6.47427,6.474275 0.38085,1.142517 -0.76168,0.761681 v 1.523363 l -1.52337,1.523363 h -0.76167 l -2.28504,1.904198 -0.76168,-0.761682 h -0.38084 l -4.18924,-4.189242 0.38083,-5.712594 0.38085,-0.380846 v -2.285033 l 0.38084,-0.380835 v -2.285044 l 0.38084,-0.380836 v -1.904198 l 0.38084,-0.380846 v -2.285044 l 0.38083,-0.380835 v -2.285044 l 0.38085,-0.380835 v -2.285045 l 0.38084,-0.380835 V 63.01985 Z m 77.69134,-3.42756 h 0.76167 l 0.38084,0.380846 v 28.182145 l -0.38084,0.380846 h -0.76167 l -0.38085,-0.380846 V 59.211454 Z M 451.0208,57.307245 h 11.80606 l 0.76169,0.761692 v 0.380836 h 1.14251 l 0.76169,0.761681 -0.38087,0.380835 v 1.142528 l 0.38087,0.380835 v 22.850386 l -0.38087,0.380847 -0.38082,-0.380847 v -1.904197 l -0.38087,-0.380836 v -0.761681 l -1.1425,-1.142517 h -0.76168 l -0.38083,-0.380846 H 451.0208 l -0.38083,-0.380835 V 57.688091 Z m -53.69843,0.380846 0.38087,-0.380846 h 47.22415 l 0.38082,0.380846 v 29.705508 l -0.38082,0.380846 h -15.2336 l -0.76168,-1.142527 v -1.523352 l -0.38087,-0.380846 v -1.142517 l -0.38081,-0.380835 v -1.523363 l -0.38087,-0.380846 -0.38082,-1.142516 h -0.38083 l -1.14255,-0.761682 h -28.18212 l -0.38087,-0.380835 0.38087,-0.380835 V 58.068937 Z m -52.93675,0 0.38084,-0.380846 h 47.22415 l 0.38086,0.380846 v 29.705508 l -0.38086,0.380846 H 376.3762 l -0.38087,-0.380846 v -0.761681 l -0.38082,-0.380835 V 84.72772 l -0.38082,-0.380835 v -1.142517 l -0.38087,-0.380846 V 81.681005 L 374.472,81.300159 v -0.76167 l -0.76168,-0.761682 h -0.76169 l -0.38082,-0.380846 h -27.80135 l -0.38084,-0.380835 z m -52.93674,0 0.38084,-0.380846 h 46.8433 l 0.38084,0.380846 v 29.705508 l -0.38084,0.380846 h -15.2336 l -0.76168,-1.142527 v -1.523352 l -0.38083,-0.380846 v -1.142517 l -0.38085,-0.380835 v -1.523363 l -0.38084,-0.380846 -0.38083,-1.142516 h -0.38085 l -1.14251,-0.761682 h -27.80131 l -0.38084,-0.380835 z m -51.41339,1.523363 0.38084,-0.380846 h 0.76168 l 0.38084,-0.380835 h 0.38084 l 0.76168,-1.142528 h 43.03491 l 0.38083,0.380846 v 29.705508 l -0.38083,0.380846 h -15.2336 l -0.38085,-0.380846 V 86.251083 L 269.741,85.870247 V 84.72772 l -0.38084,-0.380835 v -1.142517 l -0.38084,-0.380846 v -1.523363 l -0.76168,-1.142516 h -0.38084 l -1.14251,-0.761682 h -26.27796 l -0.38084,-0.380835 z"
     fill="#000000"
     fill-rule="evenodd"
     id="path2"
     style="stroke-width:0.38084" />
</svg>
