<?xml version="1.0" encoding="UTF-8" standalone="no"?>
<svg
   width="750"
   height="250"
   viewBox="0 0 750 250"
   version="1.1"
   id="svg15"
   sodipodi:docname="60l_supply_black.svg"
   inkscape:version="1.4.2 (f4327f4, 2025-05-13)"
   xmlns:inkscape="http://www.inkscape.org/namespaces/inkscape"
   xmlns:sodipodi="http://sodipodi.sourceforge.net/DTD/sodipodi-0.dtd"
   xmlns="http://www.w3.org/2000/svg"
   xmlns:svg="http://www.w3.org/2000/svg">
  <defs
     id="defs15" />
  <sodipodi:namedview
     id="namedview15"
     pagecolor="#ffffff"
     bordercolor="#000000"
     borderopacity="0.25"
     inkscape:showpageshadow="2"
     inkscape:pageopacity="0.0"
     inkscape:pagecheckerboard="0"
     inkscape:deskcolor="#d1d1d1"
     inkscape:zoom="1.0819521"
     inkscape:cx="723.69191"
     inkscape:cy="25.417021"
     inkscape:window-width="2560"
     inkscape:window-height="1377"
     inkscape:window-x="-8"
     inkscape:window-y="-8"
     inkscape:window-maximized="1"
     inkscape:current-layer="svg15" />
  <path
     d="m 575.00629,157.85966 -0.93761,0.96338 -0.4688,1.92682 -4.21918,0.48175 -1.40638,-1.92685 h -1.40637 l -6.09431,2.40851 0.46877,2.40855 -2.81278,1.92684 -1.40641,-0.48177 0.93766,0.48177 -0.93766,0.96337 -2.34398,-1.9268 -5.15685,4.33534 0.46891,1.9268 -0.46891,1.92692 -1.8751,1.92664 -1.87517,-0.96331 -1.40644,0.96331 -2.81276,4.3354 v 0.96342 l 1.87524,1.4451 -2.34411,3.85368 h -2.34383 l -0.93766,1.4451 -1.40637,4.81705 1.40637,1.4451 -0.4688,0.96341 0.4688,-0.96341 0.93766,0.4817 -0.46885,0.48171 v 2.40851 l -0.93761,1.44517 h -1.40638 l -0.93759,0.96332 0.46879,0.48166 -0.46879,2.89031 0.46879,0.48172 v 2.89022 l 2.34398,0.96339 0.93766,3.85364 -2.34403,1.44513 1.40637,6.26219 0.46881,0.48167 h 2.344 l 1.87524,3.37202 -1.87524,2.40847 3.75031,5.78043 1.87524,-0.48168 0.46876,0.48168 -0.46876,0.48171 h 0.46876 l 0.46887,-0.96339 2.81275,2.89019 -0.93763,2.40857 2.34395,2.40849 2.81281,1.9268 h 0.93764 l 1.40633,-1.44509 4.21924,2.89021 -0.46893,0.96343 0.46893,1.44512 6.09431,2.40854 h 0.93763 l 1.40636,-1.92681 4.21919,0.48165 0.93755,2.89025 h 7.5008 l 0.93757,-0.96333 0.46876,-1.92692 h 2.81279 l 0.46882,0.48168 -0.46882,0.48173 h 0.93763 l -0.46881,-0.48173 0.46881,-0.96333 1.40638,2.40857 h 0.93761 l 7.03193,-2.8903 -0.46881,-1.92679 4.21917,-2.89027 1.87515,1.92683 6.09441,-4.81705 -0.46881,-1.44509 0.46881,-0.96344 -0.46881,-0.48172 1.40637,-1.44514 0.46881,0.48178 0.46881,-1.44515 2.34395,0.96337 2.34403,-2.8902 0.46876,0.48171 -0.46876,-0.96342 1.40638,-1.9268 v -1.44509 l -1.40638,-1.44516 2.34395,-3.85357 0.46881,0.48167 1.87519,-0.48167 1.87514,-6.7439 -1.40635,-0.96344 0.46887,-0.48166 -0.46887,0.48166 -0.46879,-0.48166 0.46879,-3.37195 2.81269,-1.44509 v -7.22565 l -1.87511,-0.48166 -0.93758,-0.96331 v -2.89031 l -0.46879,-0.48172 2.34394,-1.44508 -1.87515,-6.74392 -0.46879,-0.48166 -1.87519,0.48166 -0.93757,-0.96338 -1.40643,-2.89024 0.46881,-0.96338 0.46881,0.48166 -0.46881,-0.48166 0.93762,-0.96344 v -0.96342 l -3.75042,-5.29871 -2.34395,0.96331 -0.93761,-0.96331 0.46881,-0.48166 -0.46881,0.48166 -1.40637,-1.44515 0.46874,-0.48171 -0.46874,0.48171 -0.46881,-0.48171 0.93755,-2.40848 -1.87512,-1.92686 0.46871,-0.48171 -0.46871,0.48171 -3.75042,-2.89019 h -0.93761 l -0.93748,1.44509 h -0.93767 l -3.75036,-2.4085 0.4688,-2.40855 -6.09442,-2.40851 h -1.87511 l -1.40644,1.92685 -3.75037,-0.48175 -0.93756,-2.40855 -0.93757,-0.48165 z"
     fill="#000000"
     fill-rule="evenodd"
     id="path1"
     style="stroke-width:0.475211" />
  <path
     d="m 472.33985,157.85966 -0.93761,2.8902 -4.21917,0.48175 -1.40634,-1.92685 h -1.40641 l -6.09437,2.8902 0.46885,1.92686 -2.81282,1.92684 -0.93759,-0.48177 -0.9376,0.48177 -0.93761,-0.96343 h -0.93758 l -5.62555,4.81705 0.93758,2.40848 -2.34399,2.89017 -1.40645,-0.96331 h -0.9375 l -3.7504,5.29871 v 0.96342 l 1.40641,0.96344 -1.40641,3.85362 -3.28157,0.96338 -1.8752,5.29878 v 0.96338 l 1.40639,0.96343 -0.46876,0.96341 0.46876,-0.96341 0.93765,0.4817 -0.93765,3.85374 -2.34397,0.96331 -0.46877,6.26219 0.9376,1.44512 h 1.40638 l 0.93757,1.92681 v 2.40848 l -0.46881,0.48175 -0.46876,-1.4451 0.46876,1.4451 -1.40639,0.96338 v 1.9268 l 1.40639,4.33539 0.93765,0.96343 1.87511,-0.48176 1.87514,3.37202 -1.87514,2.40847 3.75043,5.78043 h 1.40634 l 1.40641,-0.96339 2.81278,3.3719 -0.93758,2.40857 5.15679,4.33529 h 1.40634 l 1.4064,-1.44509 3.28156,2.40853 -0.46881,0.48168 0.46881,-0.48168 0.46881,0.48168 -0.46881,1.44512 0.46881,0.96343 4.68791,1.44506 1.40646,0.96348 h 1.40641 l 1.40634,-1.92681 h 1.40641 l 0.46887,0.48165 h 2.34389 l 0.93761,2.89025 h 7.50076 l 1.40637,-2.89025 4.21917,-0.48165 0.9376,1.92681 h 1.8752 l 6.09437,-2.40854 v -2.40855 l 3.28152,-2.40851 1.40644,0.48173 0.46885,0.96339 h 0.93753 l 5.62546,-4.33534 -0.9375,-2.40853 1.87521,-1.92686 0.46877,0.48178 -0.46877,-0.48178 0.93753,-0.96337 0.46882,0.48171 0.46875,-0.48171 1.4064,0.48171 3.75038,-5.29872 v -0.96342 l -0.93763,-0.96351 0.46887,-0.48165 -0.46887,0.48165 -0.46875,-0.48165 1.8752,-3.85357 1.87518,0.48167 1.87516,-3.85367 0.4688,-3.85362 -0.93755,-0.48172 0.46875,-0.48166 -0.9376,-0.96343 v -2.89023 l 0.46885,-0.48173 h 1.87514 l 0.46877,-0.96339 v -6.26225 l -0.46877,-0.96332 h -1.87514 l -0.46885,-0.48166 -0.46881,-3.85368 0.46881,-0.48171 0.46885,0.48171 -0.46885,-0.48171 1.4064,-0.96337 v -1.44514 l -1.87521,-5.78044 -1.87514,0.48166 -2.34399,-3.85362 0.46875,-0.96338 0.46887,0.48166 -0.46887,-0.48166 0.93763,-0.96344 -0.46876,-1.92679 -3.28162,-4.33534 -2.34397,0.96331 -0.46876,-0.48165 0.46876,-0.48166 -0.46876,-0.48166 -0.46877,0.48166 -1.87521,-1.92686 0.9375,-2.40848 -5.62546,-4.81705 -1.40638,0.96343 -0.46878,-0.48177 0.46878,0.48177 -0.46878,0.48166 -3.75042,-1.44509 -0.93763,-0.96341 0.46887,-0.48173 -0.46887,-1.92682 -6.09431,-2.40851 h -0.93771 l -1.40628,1.92685 h -2.34397 l -1.8752,-0.48175 -0.46875,-1.92682 -0.93762,-0.96338 z"
     fill="#000000"
     fill-rule="evenodd"
     id="path2"
     style="stroke-width:0.475211" />
  <path
     d="m 154.4958,157.85966 -0.93759,2.8902 -4.21917,0.48175 -1.4064,-1.92685 -6.56315,1.92685 -0.93759,0.96335 0.46881,1.92686 -0.93761,0.96341 -2.81277,1.44509 -1.87519,-1.44509 h -0.93759 l -5.62556,4.81705 0.93759,2.40848 -2.34398,2.89017 -2.81278,-0.96331 -3.28157,5.29871 0.46879,1.44515 -0.46879,0.48171 0.9376,0.96338 -1.40639,3.37196 h -2.34399 l -1.87519,4.33532 -0.46879,2.4085 1.87518,0.96343 0.4688,0.96341 -0.4688,0.48172 v 2.89031 l -2.81278,0.96331 v 7.22557 l 1.87519,0.48174 0.93759,1.92681 v 1.9268 l 0.4688,0.48168 -2.34398,1.44513 1.87518,6.74386 h 2.34399 l 1.87519,3.37202 -1.87519,2.40847 4.21916,5.78043 2.34398,-0.96339 2.81278,3.3719 -0.93759,2.40857 1.87518,1.9268 3.28158,2.40849 h 1.40639 l 1.40639,-1.44509 3.75037,2.40853 -0.4688,1.9268 0.4688,0.96343 4.68797,1.92679 2.81277,0.48175 0.9376,-1.92681 h 2.34398 l 0.46879,0.48165 h 1.8752 l 0.93759,2.89025 h 7.50075 l 1.40638,-2.89025 h 2.81279 l 0.93758,0.96341 -0.93758,-0.96341 0.93758,-0.48165 1.4064,2.40857 6.09436,-1.92692 1.87518,-0.96338 -0.46877,-2.40855 3.75031,-2.40851 0.93763,0.96339 -0.93763,0.48173 0.93763,-0.48173 1.4064,0.96344 6.09427,-4.81705 -0.93752,-2.40853 0.46881,-0.48172 0.46871,0.48172 0.46886,-0.48172 -0.46886,-0.4817 1.40647,-1.4451 0.46877,0.48166 -0.46877,-0.48166 0.46877,-0.48171 2.34396,0.96337 4.21926,-5.78038 v -0.96342 l -1.87522,-1.44516 1.87522,-3.3719 0.46875,0.48167 -0.46875,-0.48167 0.46875,-0.48167 1.87514,0.48167 0.93765,-1.4451 1.40645,-5.78047 -2.3441,-1.4451 0.46887,-0.48175 v -2.40848 l 0.93758,-0.96343 1.87516,-0.48173 v -7.7073 l -1.87516,-0.48166 -0.93758,-0.96331 v -2.89031 l -0.46887,-0.48172 2.3441,-1.44508 -1.40645,-5.78048 -0.93765,-1.4451 -1.87514,0.48166 -2.34397,-3.85362 0.46872,-0.96338 0.46889,0.48166 -0.46889,-0.48166 0.93764,-0.96344 v -1.44513 l -3.7504,-4.817 -2.34396,0.96331 -0.46877,-0.48165 0.46877,-0.48166 -1.40638,-1.44515 -0.46886,0.48182 -0.93752,-0.96353 0.93752,-2.40848 -2.34386,-2.40857 -3.28163,-2.40848 -2.34396,1.9268 -0.93759,-0.96337 0.46874,-0.48177 -0.93753,0.48177 -2.81278,-1.92684 0.46877,-1.44511 -0.46877,-0.96344 -5.62559,-2.40851 h -1.87518 l -1.4064,1.92685 -3.75037,-0.48175 -1.40638,-2.8902 z"
     fill="#000000"
     fill-rule="evenodd"
     id="path3"
     style="stroke-width:0.475211" />
  <path
     d="m 545.00324,68.262556 v 8.188977 l 0.46888,0.481704 h 20.62708 l 0.46875,0.481713 -0.46875,-0.481713 v -8.188975 l 0.46875,-0.481706 h 12.65748 l 0.46887,0.481706 v 8.188975 h 30.47175 l 0.46877,-0.481704 v -8.188977 l -1.40638,-1.445115 h -62.81876 z"
     fill="#000000"
     fill-rule="evenodd"
     id="path4"
     style="stroke-width:0.475211" />
  <path
     d="m 616.26042,64.40892 v 12.042613 l 0.46876,0.481704 h 40.7853 l 0.46876,-0.481704 V 64.40892 l -0.93763,-0.963408 h -39.84762 z"
     fill="#000000"
     fill-rule="evenodd"
     id="path5"
     style="stroke-width:0.475211" />
  <path
     d="m 393.11326,44.177322 v 32.274211 l 0.46879,0.481704 h 71.25704 v -8.188975 l 0.46888,-0.481706 h 5.62554 V 64.40892 l -0.46881,-0.481701 0.46881,-0.481707 v -19.26819 l -1.40645,-1.445115 h -75.00744 z"
     fill="#000000"
     fill-rule="evenodd"
     id="path6"
     style="stroke-width:0.475211" />
  <path
     d="m 615.3228,45.622431 v 14.45115 l 1.40638,1.44511 h 40.7853 l 1.40644,-1.44511 v -14.45115 l -0.46873,-0.4817 v -0.481706 h -0.46895 l -0.46876,-0.481703 h -3.28157 l -0.46879,-0.48171 V 42.732207 L 653.29535,42.2505 v -0.481705 h -0.46884 l -0.46876,-0.481702 h -30.47176 l -0.93767,0.963407 v 1.445112 l -0.46877,0.48171 h -3.75037 z"
     fill="#000000"
     fill-rule="evenodd"
     id="path7"
     style="stroke-width:0.475211" />
  <path
     d="m 415.61549,41.287093 h 2.34403 l 0.46876,0.481702 h 23.43982 -4.21915 l -0.46884,-0.481702 h -7.96957 l -0.46882,0.481702 h -8.9071 l -0.46876,-0.481702 z"
     fill="#000000"
     fill-rule="evenodd"
     id="path8"
     style="stroke-width:0.475211" />
  <path
     d="m 475.15266,31.653001 v 36.609555 h 3.2815 l 0.46888,0.481706 -0.46888,0.481707 0.46888,0.481705 v 6.743859 h 61.41233 V 31.653001 l -0.46883,-0.481705 h -64.22513 z m 34.22208,29.86569 0.46879,-0.481703 h 0.4688 l 0.46881,-0.481706 h 0.46879 l 0.46878,0.481706 -0.46878,-0.481706 0.46878,-0.481701 h 0.46885 l 0.93752,0.963407 h 0.46887 l 0.46876,0.481703 h 0.46882 l 0.46879,0.481709 h 0.93756 l 0.46883,0.481711 h 0.46875 l 0.46881,0.481696 h 0.46885 l 0.46875,0.481705 h 0.4688 l 0.93759,0.963408 h 0.46877 l 0.46882,0.481713 h 0.93751 l 0.93773,0.963394 h 0.46887 l 0.46869,0.481706 h 0.46881 l 0.46882,0.481708 h 0.9375 l 0.46888,0.481709 h 0.46878 l 0.46876,0.481701 h 0.46887 l 0.46883,0.481705 h 0.46874 l 0.46881,0.481706 h 0.46876 l 0.46878,0.481707 h 0.46884 l 0.46881,0.481705 h 0.46874 l 0.9376,0.963404 -0.46873,0.481705 h -0.93761 1.40634 l 0.46878,-0.481705 0.46887,0.481705 h 0.93756 l 0.46882,0.481706 -0.46882,0.481703 h -4.2192 l -0.46878,-0.481703 h -0.93757 l -0.93757,-0.963411 h -0.46887 l -0.46876,-0.481707 h -0.46878 l -0.46888,-0.481697 h -0.46876 l -0.46874,-0.481705 h -0.46882 l -0.46881,-0.481707 h -0.46869 l -0.46887,-0.481706 h -0.46885 l -0.46888,-0.481705 h -0.46869 l -0.46882,-0.481701 h -0.46882 l -0.46877,-0.481709 h -0.4687 l -0.46889,-0.481708 h -0.4688 l -0.46875,-0.481706 0.46875,-0.481706 -0.46875,0.481706 h -0.46885 l -0.46881,-0.481706 h -0.46875 l -0.46883,-0.481688 h -0.93756 l -0.46879,-0.481713 h -0.46882 l -0.46876,-0.481701 h -0.46887 l -0.46875,-0.481707 h -0.46877 l -0.46885,-0.481705 h -0.46878 l -0.46879,-0.481696 h -0.46881 z m -2.81272,0 -0.4689,0.481709 h -0.46869 l -0.46881,0.481711 h -0.46878 l -0.46881,0.481696 h -0.46869 l -0.46889,-0.481696 0.46889,0.481696 -0.46889,0.481705 h -0.46882 l -0.46882,0.481707 h -0.46875 l -0.46883,-0.481707 h -0.46876 l -0.46881,0.481707 0.46881,0.481701 -0.46881,0.481713 h -0.46877 l -0.46876,-0.481713 0.46876,0.481713 -0.46876,0.481688 h -0.46885 l -0.46878,0.481706 h -0.46878 l -0.46888,0.481706 h -0.46877 l -0.46877,0.481708 h -0.46883 l -0.46879,0.481709 h -0.46876 l -0.46884,0.481701 h -0.46876 l -0.46887,0.481705 h -0.46876 l -0.46876,0.481706 h -0.46886 l -0.46878,-0.481706 0.46878,0.481706 -0.46878,0.481707 h -0.46876 l -0.93764,0.963402 h -0.46877 l -0.46882,0.481707 h -0.46876 l -0.46882,0.481705 h -0.46877 l -0.46881,0.481706 h -0.4688 l -0.46891,0.481703 h -4.6879 l -0.46875,-0.481703 0.46875,-0.481706 h 0.46883 l 0.46882,-0.481705 h 0.46881 l 0.46877,0.481705 h 0.46889 -0.46889 l -0.46877,-0.481705 0.46877,-0.481707 h 0.46889 l 0.46869,-0.481697 h 0.46881 l 0.46881,-0.481705 h 0.46879 l 0.46868,-0.481707 h 0.46891 l 0.4688,-0.481706 h 0.46881 l 0.46877,-0.481705 h 0.93758 l 0.46882,-0.481701 h 0.46877 l 0.46878,-0.481709 h 0.46886 l 0.46876,-0.481708 h 0.46878 l 0.46886,-0.481706 h 0.46876 l 0.93763,-0.963394 h 0.9376 l 0.93755,-0.963414 h 0.9376 l 0.46877,-0.481707 h 0.46888 l 0.93756,-0.963401 h 0.46885 l 0.46876,-0.481711 h 0.46877 l 0.46881,-0.481709 h 0.46876 l 0.46883,-0.481703 h 0.46875 l 0.46882,-0.481706 h 0.46882 l 0.46889,-0.481701 h 0.46869 l 0.46881,0.481701 h 0.46878 l 0.46881,0.481706 h 0.46869 z m -23.43984,-13.006027 0.46881,-0.481712 h 1.87516 l 0.9376,-0.963407 h 0.46868 l 0.46891,0.481706 h 0.4688 l 0.46881,0.481701 h 0.46877 l 0.46882,0.481712 h 0.46876 l 0.46882,0.481705 h 0.46877 l 0.46878,0.481706 h 0.46886 l 0.46876,0.481704 h 0.46878 l 0.46886,0.481694 h 0.46876 l 0.46876,0.481709 h 0.46887 l 0.46876,0.481706 h 0.46884 l 0.46876,0.481703 h 0.46879 l 0.46883,0.481714 h 0.46877 l 0.46877,0.481698 h 0.46888 l 0.46878,0.481706 h 0.46878 l 0.93761,0.963411 h 0.46877 l 0.46881,0.481706 h 0.46876 l 0.46883,0.481706 h 0.93757 l 0.46882,0.481701 h 0.46889 l 0.9375,0.963411 h 0.46878 l 0.9375,0.963418 -0.46869,0.481699 h -0.46881 l -0.93759,0.963404 h -0.46869 l -0.46889,-0.481707 h -0.46882 l -0.93757,-0.963396 h -0.46883 l -0.46876,-0.481713 h -0.46881 l -0.46877,-0.481705 h -0.93761 l -0.46878,-0.481706 h -0.46878 l -0.46888,-0.481705 h -0.46877 l -0.46877,-0.481701 h -0.46883 l -0.46879,-0.481706 h -0.46876 l -0.46884,-0.481706 h -0.46876 l -0.46887,-0.481706 h -0.46876 l -0.46876,-0.481705 h -0.46886 l -0.46878,-0.481706 h -0.46876 l -0.93764,-0.963412 h -0.46877 l -0.46882,-0.481703 h -0.93758 l -0.46877,-0.481706 h -0.46881 l -0.4688,-0.481709 h -0.46891 l -0.46868,-0.481694 h -0.46879 l -0.46881,-0.481704 h -0.9375 l -0.46889,-0.481706 h -0.46877 z m 51.09883,-1.445119 -0.93757,0.963407 h -0.46881 l -0.46887,0.481712 h -0.46878 l -0.46873,0.481705 h -0.46887 l -0.46874,0.481706 h -0.46881 l -0.46884,0.481704 h -0.46878 l -0.46876,0.481694 h -0.46881 l -0.46874,0.481709 h -0.46883 l -0.46887,0.481706 h -0.46876 l -0.46878,0.481703 h -0.46888 l -0.46876,0.481714 h -0.46874 l -0.46882,0.481698 h -0.46881 l -0.46869,0.481706 h -0.46887 l -0.46885,0.481705 h -0.46888 l -0.93751,0.963412 h -0.93759 l -0.4687,0.481706 h -0.46889 l -0.4688,0.481701 h -0.46875 l -0.46885,0.481705 h -0.46881 l -0.46875,0.481706 h -0.46883 l -0.46877,0.481705 h -0.46879 l -0.46879,0.481713 h -0.46882 l -0.46876,0.481699 h -0.46887 l -0.93752,0.963404 h -0.46885 l -0.93757,-0.963404 h -0.46881 l -0.4688,-0.481699 v -0.481713 l 0.4688,-0.481705 h 0.46881 l 0.46879,-0.481706 h 0.46878 l 0.46885,-0.481705 h 0.46877 l 0.46875,-0.481701 h 0.46887 l 0.46876,-0.481706 h 0.46882 l 0.46879,-0.481706 h 0.46879 l 0.46877,-0.481706 h 0.46883 l 0.46875,-0.481705 h 0.46881 l 0.46885,-0.481706 h 0.46875 l 0.4688,-0.481698 h 0.46889 l 0.4687,-0.481714 h 0.46877 l 0.46882,-0.481703 h 0.46882 l 0.46869,-0.481706 h 0.46888 l 0.46885,-0.481709 h 0.46887 l 0.46869,-0.481694 h 0.46881 l 0.46882,-0.481704 h 0.46874 l 0.46876,-0.481706 h 0.46888 l 0.93754,-0.963417 h 0.46887 l 0.46883,-0.481701 h 0.46874 l 0.46881,-0.481706 h 0.46876 l 0.46878,-0.481705 h 4.2192 z m -50.16125,-3.371933 0.46889,-0.48171 h 45.00434 l 0.46884,0.48171 -0.46884,0.48171 h -4.68797 l -0.46874,0.481703 h -36.09733 l -0.46881,-0.481703 h -3.28149 z"
     fill="#000000"
     fill-rule="evenodd"
     id="path9"
     style="stroke-width:0.475211" />
  <path
     d="m 544.53445,31.653001 v 12.524321 l -0.46877,0.481703 v 0.963406 l 0.46877,0.481702 -0.46877,0.481707 v 2.408529 l 0.46877,0.481706 v 14.451144 h 0.46879 l 0.93768,0.963414 h 64.22513 l 1.40632,-1.445121 V 31.653001 l -0.93755,-0.963417 h -65.1627 z"
     fill="#000000"
     fill-rule="evenodd"
     id="path10"
     style="stroke-width:0.475211" />
  <path
     d="m 559.0672,22.500613 v 5.780451 l 0.46883,0.481712 h 37.03492 l 0.46876,-0.481712 v -5.780451 l -0.46876,-0.481706 h -37.03492 z"
     fill="#000000"
     fill-rule="evenodd"
     id="path11"
     style="stroke-width:0.475211" />
  <path
     d="m 447.02487,18.646978 -1.4064,1.445105 V 39.36028 l 0.93758,0.963412 h 18.28304 l 0.46888,-0.481706 v -20.23161 l -0.93765,-0.963398 z"
     fill="#000000"
     fill-rule="evenodd"
     id="path12"
     style="stroke-width:0.475211" />
  <path
     d="M 411.39633,19.610376 V 39.36028 l 0.93752,0.963412 h 30.47184 l 0.46875,-0.481706 h 0.46875 v -20.23161 l -0.9375,-0.963398 h -30.47184 z"
     fill="#000000"
     fill-rule="evenodd"
     id="path13"
     style="stroke-width:0.475211" />
  <path
     d="m 74.331596,159.78647 v 34.20101 l 9.844727,0.48171 0.937599,-9.15238 h 9.375923 l 2.34398,6.74387 h 15.939085 l 7.50075,-17.82306 20.15824,-16.37796 13.12631,-3.37195 19.22066,1.92684 12.65749,6.26216 13.12631,13.48772 8.43834,27.45716 7.03194,-0.48171 0.46876,-11.0792 135.48223,2.40851 1.87523,-9.15238 61.88111,3.37193 0.4688,8.18896 7.96964,0.48174 1.40629,-5.29876 h 7.03201 l 6.09429,-15.41454 9.84474,-11.56091 24.84619,-10.59752 17.8143,1.44508 14.5328,7.22558 11.71977,12.04256 7.03198,16.85975 h 10.31354 l 11.25105,-22.1584 16.40796,-12.04262 13.12624,-3.37195 22.03346,2.89022 17.81428,12.52435 11.71991,22.1584 4.21913,-1.92683 0.93762,-4.81704 13.12634,0.48172 0.93757,30.82906 6.56312,-0.96339 0.46879,-23.12185 h 20.62705 l 4.21911,4.81709 5.62561,-0.48174 3.28158,-4.33535 -3.75031,-6.74382 v 5.78044 l -3.28157,1.92681 -0.93763,-7.22559 -5.62554,-3.37196 h -15.00149 l 2.81275,-11.07918 9.84468,-1.92677 2.81281,-22.15849 9.37599,-0.96332 v -11.07926 l -9.37599,-0.96337 -0.46875,-65.511871 h -9.84472 l -1.40644,9.634092 h -81.10181 l -0.93755,-9.634092 h -10.7823 l -0.46884,9.634092 h -89.0713 l -0.93763,-9.634092 H 466.7143 l -0.93757,9.634092 h -73.60106 v -9.634092 h -10.7824 l -0.46874,65.511871 -3.28164,0.48165 -0.46869,-76.109325 -9.84476,-0.963404 -1.40644,-31.310809 -4.68791,-7.225576 -9.37592,-3.853628 -73.13226,7.707271 -14.5327,5.78046 -8.90716,7.707272 6.56317,2.408529 -4.2192,39.499781 h -5.62549 l -3.28162,-6.26216 -6.56325,-1.445118 -4.21908,9.152375 -114.85514,13.487736 -7.50076,9.634116 -0.93758,12.52435 -9.37593,-2.89026 -4.21917,8.189 1.40639,13.00595 5.62556,2.89032 -5.15677,5.2987 v 6.2622 l 10.78233,3.37192 0.93759,9.63408 -17.345482,0.48169 -3.281566,6.7439 H 85.58271 l -1.406387,-9.6341 z m 154.234074,4.81704 0.46882,0.48172 v 0.48166 l 0.46875,0.48177 v 0.48166 l 0.46882,0.48171 v 0.96339 l 0.46877,0.48173 v 0.48171 l 0.46879,0.48171 v 0.96337 l -0.46879,0.48177 v 0.48166 -0.48166 l 0.46879,-0.48177 0.46879,0.48177 v 0.48166 l 0.46882,0.48168 v 0.96342 l 0.46875,0.48182 v 0.96333 l 0.46888,0.48166 v 0.96331 l 0.46875,0.48184 v 1.44509 l 0.46877,0.48166 v 1.44515 l 0.46884,0.4817 v 1.44516 l 0.4688,0.48166 v 1.92682 l -0.4688,0.48171 -0.46884,-0.48171 v -0.48165 l -0.46877,-0.48179 v -0.96338 l -0.46875,-0.48166 v -1.44516 l -0.46888,-0.4817 v -0.96337 l -0.46875,-0.48178 v -0.96333 l -0.46882,-0.48171 v -0.48171 l -0.46879,-0.48184 v -0.96331 l -0.46879,-0.48166 v -0.96333 l -0.46877,-0.48182 v -0.48171 l -0.46882,-0.48171 v -0.48168 l -0.46875,-0.48166 v -0.48177 l -0.46882,-0.48166 v -0.96342 l -0.46883,-0.48171 v -0.48173 l -0.46878,-0.48171 v -0.48168 l -0.46879,-0.48171 v -0.48166 l 0.46879,-0.48177 h 0.46878 v -0.48166 z m 149.07722,-16.37798 h 3.28164 l 0.46874,0.48174 v 6.74385 l -0.46874,0.48167 h -3.28164 l -0.46869,-0.48167 v -6.74385 z m -263.46359,-14.93284 0.4688,0.48171 v 2.89023 l -0.4688,0.48174 h -0.46879 l -0.4688,-0.48174 v -0.96342 l -0.4688,-0.48172 v -0.48165 z m 464.57739,-0.48166 0.46874,-0.48171 h 81.57054 l 0.46888,0.48171 -0.46888,0.48166 v 0.96336 l 0.46888,0.48179 -0.46888,0.48165 h -81.57054 l -0.46874,-0.48165 z m -101.26006,0 0.46881,-0.48171 h 89.0713 l 0.46884,0.48171 v 1.92681 l -0.46884,0.48165 h -89.0713 l -0.46881,-0.48165 z m -85.78977,1.92681 0.46881,-0.48179 v -1.44502 l 0.46875,-0.48171 h 73.13231 l 0.46874,0.48171 v 1.92681 l -0.46874,0.48165 h -73.60106 z m -261.11969,-3.37197 0.4688,-0.48171 h 1.40639 l 0.46879,-0.48171 h 1.4064 l 0.46879,-0.48167 h 1.40639 l 0.4688,-0.48178 h 1.4064 l 0.46879,-0.48166 h 1.40638 l 2.34399,-0.96337 4.68797,-0.48171 0.46879,-0.48185 h 3.28158 l 0.46879,0.96356 0.9376,-0.48171 h 3.28158 -3.28158 l -0.46881,-0.48185 0.46881,-0.48165 h 3.75037 l 0.4688,-0.48165 h 12.18871 l 0.4688,0.48165 h 5.15676 l 0.4688,0.48165 h 2.34396 l 0.46886,0.48185 h 2.3439 l 0.46885,0.48171 h 1.87518 l 0.46878,0.48171 3.28163,0.48166 0.46872,0.48166 6.56319,1.92687 3.28155,1.92682 h 0.93761 l 4.68797,2.40852 0.93755,0.96342 1.4064,0.48174 4.2192,2.8902 3.28154,2.89023 h 0.46882 l 5.62557,5.78047 -0.46882,0.48178 0.46882,-0.48178 1.40641,1.44509 -0.46885,0.48166 0.46885,0.48165 0.46875,-0.48165 2.34398,2.89025 v 0.48171 l 1.4064,1.44514 v 0.48167 l -0.93758,0.48176 0.93758,-0.48176 0.9377,0.96342 -0.9377,1.4451 h 0.9377 l 0.46869,-0.48165 2.344,3.85361 -0.93759,0.48169 v 0.48175 h 0.46871 l 0.46888,-0.96344 1.4064,2.89024 -0.93761,0.48172 -0.46879,0.96343 -0.93759,-0.96343 -0.46877,-1.44514 -3.75043,-5.78043 -1.87517,-1.92687 -1.87522,-2.89018 -6.56314,-6.74388 h -0.46879 l -4.21915,-3.85366 -4.2192,-2.89021 -2.34393,-0.9634 -0.93758,-0.96344 -4.68798,-2.40853 h -0.93762 l -1.40642,-0.96344 h -0.93757 l -1.40639,-0.96336 h -0.93756 l -3.28154,-1.44512 -3.28163,-0.4817 -1.87518,-0.96342 -4.21917,-0.48167 -0.46877,-0.48178 -7.03197,-0.48166 -0.4688,-0.48166 1.40639,-0.96342 h -2.34399 0.9376 l 0.4688,0.48171 -0.4688,0.48171 h -15.93909 l -0.46879,0.48166 h -5.15676 l -0.46881,0.48166 -6.56315,0.48178 -0.46879,0.48167 -4.21917,0.48171 -2.34399,0.96341 h -1.87518 z m 448.16952,-17.34132 0.46874,-0.48176 h 3.28162 l 0.46876,0.48176 h 2.34411 l 0.46868,-0.48176 h 67.03791 l 0.46884,0.48176 h 1.40635 l 0.46873,-0.48176 h 5.15681 l 0.46873,0.48176 v 1.92681 l -0.46873,0.4817 h -81.10181 l -0.46874,-0.4817 z m -101.26006,0 0.46881,-0.48176 h 89.0713 l 0.46884,0.48176 v 1.92681 l -0.46884,0.4817 h -89.0713 l -0.46881,-0.4817 z m -85.32096,0 0.46875,-0.48176 0.46884,0.48176 0.46879,-0.48176 h 69.85064 l 0.46882,0.48176 h 1.87522 l 0.46874,0.48165 v 1.44516 l -0.46874,0.4817 h -73.13231 l -0.46875,-0.4817 z m -264.40127,-0.48176 0.93759,0.96341 v 16.85967 h 1.87518 l 0.4688,0.4817 -0.4688,0.48175 h -1.40638 l -0.4688,0.48171 h -0.93759 l -0.4688,0.48166 h -1.40639 l -0.46879,0.48171 h -0.9376 l -0.46879,-0.48171 0.46879,-0.48166 h 0.4688 V 114.5062 l 0.4688,-0.48165 0.46879,0.48165 h 1.40639 -1.40639 l -0.46879,-0.48165 0.46879,-0.48176 z M 660.79597,95.237995 v 1.92685 l -0.46873,0.481714 h -81.10181 l -0.46874,-0.481714 v -1.445094 l 0.46874,-0.481756 h 80.63305 l 0.46876,-0.481675 z m -183.29934,0.481756 0.46881,-0.481756 h 5.15674 l 0.46881,-0.481675 0.46877,0.481675 h 71.72589 l 0.46875,-0.481675 h 0.46882 l 0.46878,0.481675 h 8.9072 l 0.46875,0.481756 -0.46875,0.481672 h -0.46888 v 0.481707 h 0.93763 v -1.445135 l 0.46879,-0.481675 0.46884,0.481675 v 1.92685 l -0.46884,0.481714 h -89.0713 l -0.46881,-0.481714 z m -85.32096,0 0.46875,-0.481756 h 6.56318 l 0.46877,-0.481675 h 3.28169 l 0.46869,0.481675 h 62.34998 l 0.46874,0.481756 v 1.445094 l -0.46874,0.481714 h -73.13231 l -0.46875,-0.481714 z M 337.79526,44.659025 v 0.963406 l 0.46877,0.481702 v 32.755928 l -0.46877,0.481701 v 0.963396 l -1.87521,1.926836 h -0.46877 l -0.46878,0.481681 h -6.56322 l -0.46882,0.481689 h -44.06684 l -0.46875,-0.481689 h -9.37595 l -0.46878,-0.481681 h -0.93764 l -1.87518,-1.926836 v -0.963396 l -0.46876,-0.481701 v -6.743869 l 0.46876,-0.481703 v -8.670682 l 0.46882,-0.481696 v -9.152402 l 0.46878,-0.481706 V 46.58584 l 0.46881,-0.481707 v -0.481702 l 1.40641,-1.445109 h 0.46878 l 0.4688,-0.48171 h 2.3439 l 0.46889,-0.48171 h 4.21916 l 0.46881,-0.481695 h 5.15672 l 0.46882,-0.481707 h 7.03193 l 0.46884,-0.481705 h 11.25108 l 0.46882,-0.481702 h 12.65749 l 0.46879,0.481702 h 10.78229 l 0.46883,0.481705 h 4.21919 z"
     fill="#000000"
     fill-rule="evenodd"
     id="path14"
     style="stroke-width:0.475211" />
  <path
     d="M 472.33985,4.6775377 V 27.31766 l 0.93758,0.963404 h 69.38193 l 0.93757,-0.963404 V 4.6775377 l -0.46877,-0.481706 h -70.31954 z"
     fill="#000000"
     fill-rule="evenodd"
     id="path15"
     style="stroke-width:0.475211" />
</svg>
