<svg xmlns="http://www.w3.org/2000/svg" width="1448" height="1086" viewBox="0 0 1448 1086">
<rect width="100%" height="100%" fill="white"/>
<path d="M 657,469 L 657,563 L 659,563 L 659,473 L 657,471 Z" fill="black" fill-rule="evenodd"/>
<path d="M 109,624 L 111,660 L 181,655 L 191,643 L 176,691 L 184,730 L 211,764 L 254,783 L 315,770 L 338,750 L 356,716 L 350,652 L 308,607 L 341,632 L 354,655 L 377,655 L 388,675 L 414,676 L 416,686 L 454,686 L 457,676 L 802,669 L 817,641 L 803,685 L 814,738 L 847,771 L 902,784 L 942,770 L 974,737 L 985,705 L 974,647 L 942,614 L 902,600 L 863,605 L 817,641 L 851,607 L 909,598 L 958,622 L 985,666 L 1017,665 L 1030,640 L 1016,698 L 1035,749 L 1078,779 L 1132,780 L 1174,754 L 1198,699 L 1186,646 L 1144,607 L 1179,631 L 1194,659 L 1229,659 L 1232,676 L 1269,676 L 1272,655 L 1318,647 L 1333,657 L 1343,650 L 1338,628 L 1308,632 L 1308,611 L 1323,607 L 1323,570 L 1330,566 L 1323,559 L 1323,473 L 1307,467 L 1314,332 L 1303,307 L 1283,293 L 1205,284 L 1108,290 L 688,284 L 674,291 L 665,314 L 671,468 L 661,473 L 660,565 L 649,341 L 622,329 L 582,330 L 460,352 L 448,366 L 459,373 L 445,460 L 207,480 L 193,499 L 193,565 L 204,564 L 188,571 L 182,557 L 158,550 L 151,566 L 154,582 L 164,586 L 155,604 L 174,606 L 192,596 L 201,622 Z M 1099,677 L 1101,677 L 1102,676 L 1112,676 L 1113,677 L 1114,677 L 1115,678 L 1116,678 L 1119,681 L 1118,682 L 1119,683 L 1120,682 L 1121,683 L 1121,684 L 1122,685 L 1122,686 L 1123,687 L 1123,689 L 1124,690 L 1124,694 L 1123,695 L 1123,698 L 1122,699 L 1122,700 L 1120,702 L 1120,703 L 1119,704 L 1118,704 L 1115,707 L 1114,707 L 1113,708 L 1110,708 L 1109,709 L 1104,709 L 1103,708 L 1101,708 L 1100,707 L 1099,707 L 1098,706 L 1097,706 L 1093,702 L 1093,701 L 1092,700 L 1092,699 L 1091,698 L 1091,697 L 1090,696 L 1090,688 L 1091,687 L 1091,686 L 1092,685 L 1092,684 L 1093,683 L 1093,682 L 1096,679 L 1097,679 Z M 889,676 L 899,676 L 900,677 L 901,677 L 902,678 L 903,678 L 909,684 L 909,685 L 910,686 L 910,689 L 911,690 L 911,695 L 910,696 L 910,698 L 909,699 L 909,700 L 908,701 L 908,702 L 904,706 L 903,706 L 902,707 L 901,707 L 900,708 L 897,708 L 896,709 L 891,709 L 890,708 L 888,708 L 887,707 L 886,707 L 884,705 L 883,705 L 881,703 L 881,702 L 879,700 L 879,699 L 878,698 L 878,696 L 877,695 L 877,689 L 878,688 L 878,686 L 879,685 L 879,684 L 885,678 L 886,678 L 887,677 L 888,677 Z M 260,677 L 262,677 L 263,676 L 273,676 L 274,677 L 275,677 L 276,678 L 277,678 L 281,682 L 281,683 L 282,684 L 282,685 L 283,686 L 283,687 L 284,688 L 284,696 L 283,697 L 283,699 L 282,700 L 282,701 L 277,706 L 276,706 L 275,707 L 274,707 L 273,708 L 270,708 L 269,709 L 266,709 L 265,708 L 262,708 L 261,707 L 260,707 L 259,706 L 258,706 L 254,702 L 254,701 L 253,700 L 253,699 L 252,698 L 252,696 L 251,695 L 251,689 L 252,688 L 252,686 L 253,685 L 253,684 L 255,682 L 255,681 L 257,679 L 258,679 Z M 1329,635 L 1334,635 L 1336,637 L 1336,646 L 1334,648 L 1333,647 L 1334,648 L 1333,649 L 1329,649 L 1327,647 L 1327,637 Z M 1042,623 L 1043,624 L 1043,625 L 1044,626 L 1037,633 L 1037,634 L 1036,635 L 1036,637 L 1035,638 L 1034,637 L 1034,639 L 1036,637 L 1037,638 L 1037,639 L 1035,641 L 1035,642 L 1033,644 L 1032,644 L 1031,643 L 1033,641 L 1032,641 L 1031,640 L 1032,639 L 1032,634 L 1038,628 L 1038,627 Z M 1123,602 L 1124,601 L 1125,602 L 1125,603 L 1126,604 L 1126,601 L 1127,600 L 1129,602 L 1130,601 L 1134,601 L 1135,602 L 1137,602 L 1138,603 L 1140,603 L 1141,604 L 1142,604 L 1143,605 L 1144,605 L 1145,606 L 1143,608 L 1142,608 L 1141,607 L 1140,607 L 1139,606 L 1137,606 L 1136,605 L 1134,605 L 1133,604 L 1131,604 L 1131,605 L 1129,607 L 1128,606 L 1124,606 L 1123,605 Z M 285,602 L 286,601 L 287,601 L 288,600 L 289,600 L 291,602 L 292,602 L 293,601 L 295,601 L 296,602 L 298,602 L 299,603 L 301,603 L 302,604 L 303,604 L 304,605 L 306,605 L 308,607 L 307,608 L 306,608 L 305,609 L 304,608 L 303,608 L 302,607 L 301,607 L 300,606 L 298,606 L 297,605 L 296,605 L 295,604 L 294,604 L 291,607 L 289,607 L 288,606 L 286,606 L 285,605 Z M 1126,600 L 1125,601 L 1124,601 L 1123,602 L 1122,602 L 1121,601 L 1116,601 L 1115,600 L 1111,600 L 1110,601 L 1110,603 L 1109,604 L 1102,604 L 1101,603 L 1101,601 L 1100,600 L 1097,600 L 1096,601 L 1091,601 L 1090,602 L 1088,602 L 1088,605 L 1087,606 L 1085,606 L 1084,607 L 1081,607 L 1079,605 L 1077,605 L 1076,606 L 1074,606 L 1073,607 L 1072,607 L 1071,608 L 1069,608 L 1068,609 L 1068,613 L 1067,614 L 1066,614 L 1064,616 L 1063,616 L 1062,615 L 1062,614 L 1059,614 L 1057,616 L 1056,616 L 1051,621 L 1052,622 L 1052,623 L 1047,628 L 1045,626 L 1044,626 L 1043,625 L 1043,624 L 1044,623 L 1045,623 L 1046,622 L 1047,622 L 1047,619 L 1049,617 L 1050,617 L 1054,613 L 1055,613 L 1057,611 L 1058,611 L 1059,612 L 1060,612 L 1059,612 L 1058,611 L 1059,610 L 1060,610 L 1061,609 L 1064,609 L 1067,606 L 1068,606 L 1069,605 L 1070,605 L 1071,604 L 1072,604 L 1073,603 L 1075,603 L 1076,602 L 1079,602 L 1080,601 L 1081,601 L 1082,602 L 1084,602 L 1085,603 L 1084,602 L 1087,599 L 1091,599 L 1092,598 L 1098,598 L 1099,597 L 1103,597 L 1104,598 L 1108,598 L 1109,597 L 1113,597 L 1114,598 L 1121,598 L 1122,599 L 1125,599 Z M 288,600 L 287,601 L 286,601 L 285,602 L 284,601 L 278,601 L 277,600 L 273,600 L 272,601 L 272,603 L 271,604 L 264,604 L 263,603 L 263,601 L 262,600 L 257,600 L 256,601 L 250,601 L 249,602 L 249,605 L 248,606 L 246,606 L 245,607 L 243,607 L 240,604 L 239,605 L 238,605 L 237,606 L 235,606 L 234,607 L 232,607 L 228,611 L 229,610 L 230,611 L 230,612 L 229,613 L 228,613 L 225,616 L 222,613 L 221,613 L 218,616 L 217,616 L 214,619 L 213,619 L 213,621 L 214,622 L 214,623 L 212,625 L 211,625 L 209,627 L 208,627 L 207,626 L 206,626 L 205,625 L 205,626 L 197,634 L 197,636 L 199,638 L 197,640 L 197,641 L 195,643 L 193,641 L 192,641 L 191,640 L 194,637 L 194,636 L 193,635 L 194,634 L 194,633 L 199,628 L 199,627 L 204,622 L 207,622 L 209,620 L 210,621 L 211,621 L 211,620 L 210,621 L 209,620 L 209,618 L 210,617 L 211,617 L 214,614 L 215,614 L 218,611 L 219,611 L 220,610 L 223,610 L 224,609 L 224,608 L 225,607 L 227,607 L 228,606 L 229,606 L 230,605 L 231,605 L 232,604 L 233,604 L 234,603 L 236,603 L 237,602 L 238,602 L 239,601 L 246,601 L 248,599 L 252,599 L 253,598 L 258,598 L 259,597 L 264,597 L 265,598 L 266,598 L 267,599 L 268,599 L 270,597 L 277,597 L 278,598 L 283,598 L 284,599 L 287,599 Z M 364,592 L 373,601 L 373,602 L 376,605 L 376,606 L 378,608 L 378,609 L 380,611 L 380,612 L 382,614 L 382,615 L 384,617 L 384,618 L 386,620 L 386,621 L 387,622 L 387,623 L 388,624 L 388,625 L 390,627 L 390,628 L 391,629 L 391,630 L 392,631 L 392,632 L 393,633 L 393,634 L 394,635 L 394,636 L 395,637 L 395,638 L 396,639 L 396,640 L 397,641 L 397,642 L 398,643 L 398,644 L 399,645 L 399,646 L 400,647 L 400,648 L 402,650 L 402,651 L 403,652 L 403,653 L 404,654 L 404,655 L 406,657 L 406,658 L 408,660 L 408,661 L 412,665 L 412,666 L 411,667 L 409,667 L 406,664 L 406,663 L 404,661 L 404,660 L 402,658 L 402,657 L 401,656 L 401,655 L 399,653 L 399,652 L 398,651 L 398,650 L 397,649 L 397,648 L 396,647 L 396,646 L 394,644 L 394,643 L 393,642 L 393,641 L 392,640 L 392,639 L 391,638 L 391,637 L 390,636 L 390,635 L 389,634 L 389,633 L 387,631 L 387,630 L 386,629 L 386,628 L 385,627 L 385,626 L 384,625 L 384,624 L 382,622 L 382,621 L 381,620 L 381,619 L 379,617 L 379,616 L 378,615 L 378,614 L 376,612 L 376,611 L 372,607 L 372,606 L 368,602 L 368,601 L 362,595 L 362,594 Z M 1184,583 L 1186,581 L 1187,582 L 1188,582 L 1193,587 L 1194,587 L 1200,593 L 1200,594 L 1202,596 L 1201,597 L 1200,597 L 1191,588 L 1190,588 L 1187,585 L 1186,585 Z M 347,581 L 348,580 L 349,580 L 350,581 L 351,580 L 352,581 L 353,581 L 362,590 L 360,592 L 359,591 L 358,591 L 350,583 L 349,583 Z M 820,581 L 818,583 L 817,583 L 815,585 L 814,585 L 811,588 L 810,588 L 801,597 L 800,597 L 799,596 L 799,595 L 808,586 L 809,586 L 813,582 L 814,582 L 817,579 L 818,579 Z M 830,572 L 831,573 L 830,574 L 831,575 L 830,576 L 829,576 L 828,577 L 827,577 L 826,576 L 827,577 L 826,578 L 825,578 L 823,576 L 825,574 L 826,574 L 827,573 L 828,573 L 829,572 Z M 1160,571 L 1161,570 L 1162,570 L 1163,569 L 1165,569 L 1166,570 L 1168,570 L 1169,571 L 1168,572 L 1167,572 L 1168,572 L 1169,573 L 1168,574 L 1166,574 L 1165,573 L 1164,573 L 1163,572 L 1161,572 Z M 830,572 L 831,571 L 833,571 L 834,572 L 833,571 L 834,570 L 835,570 L 836,569 L 838,569 L 839,570 L 840,570 L 841,571 L 840,572 L 838,572 L 837,571 L 838,572 L 837,573 L 836,573 L 835,574 L 833,574 L 832,573 L 831,573 Z M 848,567 L 847,568 L 846,568 L 847,569 L 846,570 L 844,570 L 843,571 L 841,571 L 840,570 L 839,570 L 838,569 L 839,568 L 841,568 L 842,567 L 844,567 L 845,566 L 847,566 Z M 327,568 L 329,566 L 331,566 L 332,567 L 333,567 L 335,569 L 336,569 L 337,570 L 338,570 L 340,572 L 341,572 L 343,574 L 342,575 L 341,575 L 340,574 L 339,575 L 338,575 L 336,573 L 335,573 L 334,572 L 333,572 L 331,570 L 330,570 L 329,569 L 330,568 L 329,569 L 328,569 Z M 847,568 L 849,567 L 848,566 L 849,565 L 852,565 L 853,564 L 864,565 L 860,565 L 859,564 L 860,563 L 1140,563 L 1141,564 L 1140,565 L 1137,565 L 1148,564 L 1149,565 L 1160,567 L 1163,569 L 1160,571 L 1158,571 L 1153,569 L 1155,568 L 1153,569 L 1144,568 L 1143,567 L 1145,566 L 1142,567 L 858,567 L 856,566 L 858,567 L 857,568 L 852,568 L 851,569 L 848,569 Z M 321,563 L 322,562 L 323,562 L 325,564 L 327,564 L 329,566 L 327,568 L 326,568 L 325,567 L 324,567 L 323,566 L 322,566 L 321,565 L 322,564 Z M 201,562 L 202,561 L 204,561 L 205,560 L 207,560 L 208,561 L 209,561 L 210,562 L 209,563 L 207,563 L 206,564 L 204,564 L 203,563 L 202,563 Z M 308,560 L 309,559 L 310,559 L 311,558 L 313,558 L 314,559 L 316,559 L 317,560 L 318,560 L 319,561 L 320,561 L 321,562 L 319,564 L 317,564 L 316,563 L 315,563 L 314,562 L 315,561 L 314,561 L 313,562 L 312,562 L 311,561 L 309,561 Z M 302,558 L 303,557 L 304,557 L 305,556 L 308,556 L 309,557 L 310,557 L 311,558 L 310,559 L 309,559 L 308,560 L 306,560 L 305,559 L 303,559 Z M 244,554 L 243,555 L 237,555 L 236,556 L 232,556 L 231,555 L 229,555 L 230,555 L 231,556 L 230,557 L 227,557 L 226,558 L 223,558 L 222,557 L 221,557 L 222,557 L 223,558 L 222,559 L 219,559 L 218,560 L 215,560 L 213,558 L 214,557 L 215,557 L 216,556 L 219,556 L 220,555 L 222,555 L 223,554 L 227,554 L 228,553 L 232,553 L 233,552 L 240,552 L 241,553 L 243,553 Z M 240,552 L 241,551 L 247,551 L 248,550 L 257,550 L 258,549 L 259,550 L 260,549 L 269,549 L 270,550 L 278,550 L 279,551 L 288,551 L 289,552 L 292,552 L 293,553 L 297,553 L 298,554 L 302,554 L 303,555 L 304,555 L 305,556 L 304,557 L 303,557 L 302,558 L 298,558 L 297,557 L 294,557 L 293,556 L 294,555 L 296,555 L 294,555 L 293,556 L 289,556 L 288,555 L 282,555 L 281,554 L 282,553 L 285,553 L 280,553 L 279,554 L 269,554 L 268,553 L 257,553 L 256,554 L 245,554 L 244,553 L 241,553 Z M 376,520 L 377,521 L 377,560 L 376,561 L 375,560 L 375,521 Z M 388,519 L 389,520 L 389,561 L 390,561 L 391,562 L 390,563 L 388,563 L 387,562 L 387,520 Z M 328,519 L 329,520 L 329,554 L 328,555 L 327,554 L 327,520 Z M 391,517 L 392,518 L 392,561 L 391,562 L 390,561 L 390,528 L 389,527 L 389,522 L 390,521 L 390,518 Z M 373,517 L 374,518 L 374,560 L 373,561 L 372,560 L 372,518 Z M 331,517 L 332,518 L 332,556 L 331,557 L 330,556 L 330,518 Z M 313,517 L 314,518 L 314,519 L 315,519 L 315,518 L 316,517 L 317,518 L 317,550 L 315,552 L 314,552 L 313,551 L 314,550 L 314,547 L 314,550 L 313,551 L 312,550 L 312,518 Z M 359,516 L 361,516 L 363,518 L 362,519 L 361,519 L 360,518 L 360,519 L 361,519 L 363,521 L 363,526 L 362,527 L 362,540 L 363,541 L 363,550 L 362,551 L 362,562 L 361,563 L 359,563 L 357,561 L 357,518 Z M 344,516 L 345,516 L 347,518 L 347,554 L 348,555 L 348,558 L 347,559 L 347,562 L 346,563 L 343,563 L 342,562 L 342,518 L 343,517 L 344,518 L 343,517 Z M 1202,458 L 1203,457 L 1240,457 L 1241,458 L 1241,468 L 1240,469 L 1239,469 L 1238,468 L 1239,467 L 1238,467 L 1238,468 L 1237,469 L 1208,469 L 1207,468 L 1207,467 L 1206,466 L 1206,465 L 1206,466 L 1205,467 L 1204,466 L 1204,463 L 1203,462 L 1203,459 Z M 1062,458 L 1063,457 L 1101,457 L 1102,458 L 1102,468 L 1101,469 L 1067,469 L 1066,470 L 1065,469 L 1065,467 L 1064,466 L 1064,463 L 1063,462 L 1063,460 L 1064,459 L 1065,460 L 1065,461 L 1067,459 L 1068,459 L 1063,459 Z M 923,458 L 924,457 L 961,457 L 962,458 L 962,468 L 961,469 L 927,469 L 926,468 L 926,467 L 925,466 L 925,463 L 924,462 L 924,459 Z M 785,458 L 786,457 L 822,457 L 823,458 L 823,468 L 822,469 L 788,469 L 787,468 L 787,466 L 786,465 L 786,462 L 785,461 Z M 685,457 L 687,457 L 688,458 L 688,466 L 687,467 L 686,466 L 686,463 L 686,466 L 685,467 L 684,466 L 684,458 Z M 498,459 L 501,456 L 502,457 L 501,456 L 501,455 L 504,452 L 508,452 L 510,450 L 512,450 L 516,454 L 517,454 L 522,459 L 521,460 L 499,460 Z M 481,376 L 484,374 L 601,374 L 602,375 L 600,376 L 604,375 L 605,376 L 605,457 L 604,458 L 603,457 L 604,458 L 600,460 L 534,460 L 533,459 L 532,460 L 531,458 L 528,455 L 527,455 L 526,453 L 525,453 L 522,450 L 522,449 L 514,442 L 515,440 L 513,438 L 513,437 L 505,433 L 494,422 L 495,421 L 491,417 L 490,418 L 488,416 L 485,415 L 483,416 L 482,420 L 499,437 L 500,440 L 498,442 L 498,446 L 494,450 L 492,450 L 486,455 L 484,453 L 483,453 L 472,442 L 473,427 L 474,426 L 474,420 L 475,419 L 475,413 L 476,412 L 476,407 L 477,406 L 477,400 L 478,399 L 478,393 L 479,392 L 479,386 L 480,385 L 480,378 Z M 685,367 L 687,367 L 688,368 L 688,442 L 687,443 L 685,443 L 684,442 L 684,368 Z M 1256,363 L 1287,363 L 1289,365 L 1289,366 L 1292,366 L 1294,368 L 1293,369 L 1293,372 L 1294,373 L 1294,433 L 1293,434 L 1292,433 L 1292,428 L 1291,427 L 1291,425 L 1288,422 L 1286,422 L 1285,421 L 1256,421 L 1255,420 L 1255,364 Z M 1115,364 L 1116,363 L 1240,363 L 1241,364 L 1241,442 L 1240,443 L 1200,443 L 1198,440 L 1198,436 L 1197,435 L 1197,432 L 1196,431 L 1196,427 L 1195,426 L 1194,423 L 1193,423 L 1190,421 L 1116,421 L 1115,420 L 1116,419 L 1116,365 Z M 976,364 L 977,363 L 1101,363 L 1102,364 L 1102,442 L 1101,443 L 1060,443 L 1059,442 L 1059,440 L 1058,439 L 1058,435 L 1057,434 L 1057,431 L 1056,430 L 1056,427 L 1055,426 L 1055,424 L 1053,422 L 1051,422 L 1050,421 L 977,421 L 976,420 Z M 837,364 L 838,363 L 961,363 L 962,364 L 962,442 L 961,443 L 921,443 L 919,440 L 919,436 L 918,435 L 918,432 L 917,431 L 917,427 L 916,426 L 915,423 L 914,423 L 911,421 L 838,421 L 837,420 Z M 702,368 L 703,367 L 705,367 L 706,366 L 707,366 L 709,363 L 822,363 L 823,364 L 823,442 L 822,443 L 782,443 L 781,442 L 781,439 L 780,438 L 780,435 L 779,434 L 779,431 L 778,430 L 778,426 L 776,423 L 775,423 L 772,421 L 703,421 L 702,420 Z" fill="black" fill-rule="evenodd"/>
</svg>