<svg xmlns="http://www.w3.org/2000/svg" width="1254" height="1254" viewBox="0 0 1254 1254">
<rect width="100%" height="100%" fill="white"/>
<path d="M 153,609 L 155,749 L 168,779 L 198,815 L 254,855 L 322,887 L 417,916 L 505,932 L 589,939 L 712,936 L 803,923 L 888,902 L 975,868 L 1036,831 L 1081,786 L 1095,759 L 1100,737 L 1100,608 L 1078,639 L 1042,671 L 981,705 L 941,721 L 819,753 L 734,765 L 661,770 L 588,770 L 491,762 L 404,747 L 346,732 L 270,704 L 219,676 L 174,638 Z" fill="black" fill-rule="evenodd"/>
<path d="M 150,555 L 154,593 L 179,633 L 219,667 L 275,698 L 336,721 L 422,743 L 497,755 L 588,762 L 685,761 L 778,752 L 855,738 L 941,713 L 1012,681 L 1059,648 L 1090,612 L 1104,570 L 1098,536 L 1087,516 L 1081,521 L 1081,484 L 1052,439 L 963,457 L 980,511 L 1049,516 L 1048,539 L 1039,561 L 1003,600 L 970,622 L 908,650 L 837,671 L 752,686 L 694,691 L 682,647 L 675,642 L 576,643 L 560,690 L 549,691 L 408,669 L 309,635 L 243,594 L 216,564 L 204,532 L 205,515 L 272,512 L 291,463 L 290,456 L 200,440 L 172,485 L 172,520 L 168,516 L 164,519 Z" fill="black" fill-rule="evenodd"/>
<path d="M 219,526 L 230,560 L 251,584 L 266,596 L 319,625 L 378,647 L 429,661 L 543,678 L 549,677 L 563,639 L 567,636 L 565,634 L 569,631 L 685,631 L 706,678 L 794,667 L 869,649 L 928,628 L 984,598 L 1013,573 L 1025,557 L 1034,532 L 1033,525 L 971,519 L 948,450 L 998,442 L 966,418 L 918,395 L 848,373 L 766,358 L 688,352 L 681,318 L 677,314 L 577,314 L 572,319 L 565,353 L 512,357 L 428,370 L 369,385 L 306,409 L 277,425 L 256,442 L 306,451 L 283,519 Z M 454,457 L 463,439 L 478,424 L 491,415 L 516,403 L 538,396 L 543,398 L 540,396 L 549,394 L 551,398 L 521,407 L 501,417 L 488,426 L 477,439 L 474,440 L 475,442 L 470,454 L 470,465 L 481,488 L 505,504 L 524,513 L 545,520 L 578,527 L 606,530 L 648,530 L 696,523 L 729,513 L 755,500 L 772,486 L 783,466 L 783,448 L 781,448 L 774,433 L 743,412 L 701,397 L 708,394 L 713,396 L 711,398 L 714,398 L 713,396 L 720,397 L 730,401 L 727,403 L 732,401 L 761,414 L 788,436 L 799,457 L 799,486 L 789,505 L 771,521 L 747,534 L 722,543 L 687,551 L 651,555 L 588,554 L 531,543 L 506,534 L 487,524 L 486,521 L 481,520 L 465,506 L 455,489 Z M 675,392 L 676,391 L 678,391 L 677,390 L 678,389 L 683,389 L 684,390 L 689,390 L 690,391 L 689,392 L 689,393 L 693,393 L 690,393 L 689,392 L 690,391 L 695,391 L 696,392 L 700,392 L 701,393 L 704,393 L 705,394 L 704,395 L 701,395 L 702,396 L 701,397 L 696,397 L 695,396 L 692,396 L 691,395 L 687,395 L 686,394 L 682,394 L 681,393 L 676,393 Z M 577,392 L 576,393 L 573,393 L 572,394 L 567,394 L 566,395 L 562,395 L 561,396 L 557,396 L 556,397 L 552,397 L 551,396 L 552,395 L 553,395 L 550,395 L 549,394 L 550,393 L 553,393 L 554,392 L 558,392 L 559,391 L 563,391 L 564,390 L 569,390 L 570,389 L 575,389 L 576,390 L 575,391 L 576,391 Z M 576,389 L 577,388 L 584,388 L 585,387 L 594,387 L 595,386 L 610,386 L 611,385 L 643,385 L 644,386 L 656,386 L 657,387 L 656,388 L 648,388 L 656,388 L 657,387 L 668,387 L 669,388 L 676,388 L 677,389 L 676,390 L 672,390 L 674,390 L 675,391 L 674,392 L 666,392 L 665,391 L 657,391 L 656,390 L 642,390 L 641,389 L 610,389 L 609,390 L 597,390 L 596,391 L 587,391 L 586,392 L 579,392 L 578,391 L 579,390 L 581,390 L 577,390 Z" fill="black" fill-rule="evenodd"/>
</svg>