<?xml version="1.0" encoding="UTF-8" standalone="no"?>
<svg
   width="250"
   height="250"
   viewBox="0 0 250 250"
   version="1.1"
   id="svg3"
   sodipodi:docname="at_mine_gs_mk_v_black.svg"
   inkscape:version="1.4.2 (f4327f4, 2025-05-13)"
   xmlns:inkscape="http://www.inkscape.org/namespaces/inkscape"
   xmlns:sodipodi="http://sodipodi.sourceforge.net/DTD/sodipodi-0.dtd"
   xmlns="http://www.w3.org/2000/svg"
   xmlns:svg="http://www.w3.org/2000/svg">
  <defs
     id="defs3" />
  <sodipodi:namedview
     id="namedview3"
     pagecolor="#ffffff"
     bordercolor="#000000"
     borderopacity="0.25"
     inkscape:showpageshadow="2"
     inkscape:pageopacity="0.0"
     inkscape:pagecheckerboard="0"
     inkscape:deskcolor="#d1d1d1"
     inkscape:zoom="1.3251204"
     inkscape:cx="306.38726"
     inkscape:cy="179.229"
     inkscape:window-width="2560"
     inkscape:window-height="1377"
     inkscape:window-x="-8"
     inkscape:window-y="-8"
     inkscape:window-maximized="1"
     inkscape:current-layer="svg3" />
  <path
     d="m 12.157193,117.09129 0.476345,33.34372 3.096199,7.14508 7.14508,8.57411 13.337486,9.52677 16.195526,7.62142 22.626091,6.90691 20.958913,3.81071 20.006227,1.66719 29.29484,-0.71451 21.67342,-3.0962 20.2444,-5.00156 20.72075,-8.09776 14.52833,-8.81227 10.71762,-10.71761 3.33438,-6.43059 1.19084,-5.23972 v -30.72386 l -5.23973,7.38325 -8.5741,7.62143 -14.52833,8.09775 -9.52678,3.81072 -29.05667,7.62141 -20.2444,2.85804 -17.38637,1.19085 H 115.7609 L 92.658465,153.53122 71.937721,149.95867 58.123889,146.38613 40.023016,139.71738 27.876381,133.04864 17.158756,123.9982 Z"
     fill="#000000"
     fill-rule="evenodd"
     id="path1"
     style="stroke-width:0.238169" />
  <path
     d="m 11.442687,104.23014 0.952674,9.05044 5.954238,9.52677 9.526782,8.09777 13.337486,7.38325 14.528337,5.4779 20.482567,5.23973 17.862705,2.85803 21.673424,1.66719 23.10242,-0.23818 22.14977,-2.14352 18.33904,-3.33437 20.48257,-5.95424 16.91003,-7.62142 11.19397,-7.85959 7.38324,-8.5741 3.33438,-10.00311 -1.42902,-8.097761 -2.61986,-4.76339 -1.42902,1.19084 v -8.812271 l -6.90691,-10.71762 -21.19708,4.28705 4.04888,12.861151 16.43369,1.19085 -0.23817,5.477891 -2.14352,5.23973 -8.57411,9.28861 -7.85958,5.23972 -14.7665,6.66875 -16.91004,5.00156 -20.2444,3.57253 -13.81382,1.19086 -2.85804,-10.47946 -1.66718,-1.19084 -23.57877,0.23816 -3.81072,11.19397 -2.61986,0.23817 -33.581895,-5.23973 -23.578774,-8.09776 -15.71918,-9.76495 -6.430566,-7.14508 -2.858039,-7.621421 0.238169,-4.04889 15.957357,-0.7145 4.525218,-11.670301 -0.238177,-1.66719 -21.435241,-3.81071 -6.668751,10.71762 v 8.335931 l -0.952674,-0.95267 -0.952682,0.7145 z"
     fill="#000000"
     fill-rule="evenodd"
     id="path2"
     style="stroke-width:0.238169" />
  <path
     d="m 27.876381,97.323229 2.619862,8.097761 5.001555,5.71607 3.572544,2.85803 12.622973,6.90691 14.052,5.23973 12.146644,3.33438 27.151311,4.04887 1.42902,-0.23817 3.33437,-9.05044 0.95268,-0.7145 -0.47634,-0.47634 0.95268,-0.7145 h 27.62764 l 5.00157,11.19395 20.9589,-2.61986 17.86271,-4.28705 14.052,-5.00156 13.33749,-7.14509 6.90691,-5.95423 2.85803,-3.81071 2.14353,-5.954231 -0.23817,-1.66719 -14.76651,-1.42902 -5.47789,-16.433681 11.90847,-1.90536 -7.62143,-5.716066 -11.43213,-5.477901 -16.67186,-5.239724 -19.52988,-3.572544 -18.57722,-1.429011 -1.66719,-8.097763 -0.95268,-0.952673 h -23.81694 l -1.19085,1.190842 -1.66718,8.097763 -12.622974,0.952674 -20.006244,3.096207 -14.051992,3.572536 -15.004674,5.716069 -6.906912,3.810713 -5.001555,4.048878 11.908467,2.14352 -5.477893,16.195521 z m 55.969807,-16.433691 2.143525,-4.28705 3.572544,-3.572545 3.096208,-2.143517 5.954231,-2.858039 5.239724,-1.667179 1.19085,0.476337 -0.7145,-0.476337 2.14352,-0.476345 0.47634,0.952682 -7.145084,2.143525 -4.763396,2.381693 -3.096199,2.143525 -2.619862,3.0962 -0.714514,0.23817 0.238177,0.47634 -1.190851,2.85803 v 2.61987 l 2.619862,5.47789 5.71607,3.810711 4.525227,2.14352 5.00155,1.66719 7.85959,1.66719 6.66875,0.71451 h 10.00311 l 11.43213,-1.66719 7.8596,-2.3817 6.1924,-3.09619 4.04888,-3.334381 2.61986,-4.76339 v -4.28705 h -0.47634 l -1.66718,-3.57253 -7.38325,-5.001557 -10.00312,-3.572544 1.66718,-0.714514 1.19086,0.476345 -0.47635,0.476337 h 0.71451 l -0.23816,-0.476337 1.66718,0.238169 2.38169,0.952674 -0.71451,0.476336 1.19085,-0.476336 6.90692,3.096198 6.43057,5.239729 2.61986,5.00156 v 6.90691 l -2.38169,4.525221 -4.28705,3.81071 -5.71607,3.0962 -5.95424,2.143531 -8.33592,1.90536 -8.5741,0.95267 -15.00467,-0.23817 -13.57566,-2.61986 -5.954239,-2.143531 -4.525218,-2.38169 -0.238169,-0.71451 -1.190851,-0.23817 -3.810705,-3.33436 -2.381701,-4.048891 z m 52.635452,-15.481012 0.23817,-0.238169 h 0.47633 l -0.23817,-0.238168 0.23817,-0.238169 h 1.19086 l 0.23816,0.238169 h 1.19085 l 0.23817,0.238168 -0.23817,0.238169 v 0.238168 h 0.95267 -0.7145 l -0.23817,-0.238168 0.23817,-0.238169 h 1.19085 l 0.23816,0.238169 h 0.95268 l 0.23817,0.238168 h 0.71451 l 0.23817,0.238169 -0.23817,0.238168 h -0.71451 l 0.23817,0.238177 -0.23817,0.238169 h -1.19085 l -0.23816,-0.238169 h -0.71452 l -0.23817,-0.238177 h -0.95267 l -0.23817,-0.238168 h -0.95268 l -0.23817,-0.238169 h -1.19084 z m -23.34061,0 -0.23816,0.238168 h -0.71452 l -0.23817,0.238169 h -1.19084 l -0.23817,0.238168 h -0.95268 l -0.23817,0.238177 h -0.95268 l -0.23817,0.238169 h -0.95267 l -0.23817,-0.238169 0.23817,-0.238177 h 0.23816 -0.7145 l -0.23817,-0.238168 0.23817,-0.238169 h 0.7145 l 0.23817,-0.238168 h 0.95269 l 0.23816,-0.238169 h 0.95268 l 0.23817,-0.238168 h 1.19085 l 0.23817,-0.238169 h 1.19084 l 0.23818,0.238169 -0.23818,0.238168 h 0.23818 z m -0.23816,-0.714506 0.23816,-0.238168 h 1.66719 l 0.23817,-0.238177 h 2.14352 l 0.23817,-0.238169 h 3.57254 l 0.23818,-0.238168 h 7.62141 l 0.23817,0.238168 h 2.85803 l 0.23818,0.238169 -0.23818,0.238177 h -1.90535 1.90535 l 0.23818,-0.238177 h 2.61986 l 0.23817,0.238177 h 1.66719 l 0.23816,0.238168 -0.23816,0.238169 h -0.95268 0.47633 l 0.23818,0.238168 -0.23818,0.238169 h -1.90535 l -0.23816,-0.238169 h -1.90536 l -0.23818,-0.238168 h -3.33436 l -0.23817,-0.238169 h -7.38326 l -0.23817,0.238169 h -2.85803 l -0.23817,0.238168 h -2.14352 l -0.23818,0.238169 h -1.66718 l -0.23817,-0.238169 0.23817,-0.238168 h 0.47634 -0.95268 z"
     fill="#000000"
     fill-rule="evenodd"
     id="path3"
     style="stroke-width:0.238169" />
</svg>
