<?xml version="1.0" encoding="UTF-8" standalone="no"?>
<svg
   width="530"
   height="250"
   viewBox="0 0 530 250"
   version="1.1"
   id="svg1"
   sodipodi:docname="ba10_black.svg"
   inkscape:version="1.4.2 (f4327f4, 2025-05-13)"
   xmlns:inkscape="http://www.inkscape.org/namespaces/inkscape"
   xmlns:sodipodi="http://sodipodi.sourceforge.net/DTD/sodipodi-0.dtd"
   xmlns="http://www.w3.org/2000/svg"
   xmlns:svg="http://www.w3.org/2000/svg">
  <defs
     id="defs1" />
  <sodipodi:namedview
     id="namedview1"
     pagecolor="#ffffff"
     bordercolor="#000000"
     borderopacity="0.25"
     inkscape:showpageshadow="2"
     inkscape:pageopacity="0.0"
     inkscape:pagecheckerboard="0"
     inkscape:deskcolor="#d1d1d1"
     inkscape:zoom="1.1123389"
     inkscape:cx="516.0298"
     inkscape:cy="269.25248"
     inkscape:window-width="2560"
     inkscape:window-height="1377"
     inkscape:window-x="-8"
     inkscape:window-y="-8"
     inkscape:window-maximized="1"
     inkscape:current-layer="svg1" />
  <path
     d="m 520.12936,171.82245 -3.95182,-3.95181 -7.90358,0.35926 7.18506,-2.51479 -3.95176,-10.05914 2.51479,-25.86637 -13.65174,-6.10734 -28.74041,-36.284775 -71.13251,-9.699895 -1.07777,-6.107331 18.32202,-0.718511 -0.71851,-28.021901 -27.3034,-5.029574 -0.7185,-4.311063 -15.80723,-4.670315 -38.44031,-1.077765 -4.67032,-9.340637 -4.31105,1.437026 -2.51479,8.262864 -29.45893,4.670322 -7.54435,8.981376 h -10.05914 l -7.18511,9.340641 -86.5805,3.233288 0.35927,4.311065 65.74369,0.359255 2.87403,3.233299 -3.59254,2.514777 21.91456,0.718511 15.44797,9.699896 -79.39539,2.514777 -16.52573,28.02191 -7.1851,0.71851 2.51477,-5.38884 -5.38882,-3.951796 -4.67032,3.592556 2.87405,5.38882 -105.62102,10.4184 -9.69989,-2.87403 -5.74809,5.02957 -5.02956,16.88499 -7.54436,-6.82584 -10.77766,0.7185 0.35926,14.37021 6.4666,6.4666 -23.71085,16.52573 4.67031,4.67032 12.93319,-8.62213 0.35926,3.95181 20.8368,-9.34063 22.27381,4.31105 -28.02189,-2.15553 -15.44798,8.98138 -11.85542,19.75904 -0.35925,16.16648 7.54435,16.52574 12.93319,10.4184 16.16648,4.31106 16.885,-3.2333 14.01095,-10.41839 8.26287,-16.16649 -1.43703,-20.11829 4.67032,16.88499 57.48083,-1.79627 -0.35926,-5.38882 -47.06242,-28.74042 47.42168,28.02191 h 30.89594 l 3.59255,5.38882 h 52.81051 l 3.59256,-5.38882 h 54.96603 l 1.07777,7.9036 h 10.77765 l 1.07776,-15.08871 6.10735,-8.98138 -5.74809,17.6035 3.95181,18.68128 11.13691,13.29243 21.55531,7.54436 24.07009,-7.54436 12.21468,-14.72946 1.07777,-28.74041 -16.52575,-20.83681 14.37022,14.01095 5.02956,24.78861 12.57394,-0.35925 1.79628,-16.52574 -1.07777,16.16648 8.62212,19.75904 15.08872,11.13691 13.29243,2.87404 17.96276,-3.95181 17.24425,-16.88498 3.95183,-19.04054 -6.10736,-17.96276 8.62214,17.96276 21.55531,-5.74807 -3.95182,-8.26288 2.15556,-5.02957 h 11.13688 z m -44.18839,1.07777 1.07776,1.07776 v 0.35926 l 0.71852,0.71851 v 0.35926 l 1.07775,1.07776 v 0.35925 l -0.35922,0.35926 h -0.71853 l -0.35926,0.35926 v 0.35924 l -0.35926,0.35927 -0.7185,-0.71851 v -0.35926 l 0.35925,-0.35926 v -0.7185 l -1.43701,-1.43702 v -0.35926 l -0.71852,-0.71851 0.35925,-0.35926 h 0.71851 z m -58.55859,-2.15553 0.71851,0.71851 h 0.35926 l 0.71851,0.71851 -0.71851,0.71851 v 0.35925 l -0.35926,0.35926 h -1.43702 l -0.35926,-0.35926 0.35926,-0.35925 h 1.07777 -0.71851 l -0.35926,-0.35926 -0.35926,0.35926 v 0.35925 l 0.35926,0.35926 -0.35926,0.35925 v 0.35926 l -1.07776,1.07777 v 0.35924 l -0.71851,0.71852 v 0.71851 l 0.35925,0.35926 v 0.35924 l -0.35925,0.35927 v 0.35925 l -0.71851,0.71852 v 0.35924 l -0.35926,0.35926 -0.35925,-0.35926 v -0.35924 h -1.07777 l -0.35924,0.35924 h 1.43701 l 0.35925,0.35926 -0.35925,0.35926 h -0.71851 v 0.35925 l -0.7185,0.71852 v 0.7185 l -0.35927,0.35926 v 0.35925 l -0.35926,0.35925 v 0.35926 l 0.35926,0.35925 v 1.07777 l -0.35926,0.35926 v 0.71851 l -0.35924,0.35925 v 0.71851 l -0.35927,0.35926 h -0.7185 l -0.35926,-0.35926 0.35926,-0.35925 h 0.35925 v -0.35926 l -0.35925,-0.35925 h -0.71852 l -0.35924,-0.35926 v -0.71851 l 0.35924,-0.35925 v -0.71852 l 0.35926,-0.35925 v -0.71851 l 0.35926,-0.35925 v -0.35926 l 0.35925,-0.35926 v -0.35924 l 0.35925,-0.35927 v -0.35925 l 0.35927,-0.35925 v -0.35926 l 0.35924,-0.35926 v -0.35924 l 0.35926,-0.35927 v -0.35925 l 0.71851,-0.71852 v -0.35924 l 0.71851,-0.71852 v -0.35925 l 0.35926,-0.35925 v -0.35927 l 0.71851,-0.7185 v -0.35925 l 1.07776,-1.07777 v -0.35926 z m 96.99889,-0.71851 h 1.07775 l 0.3593,0.35925 h 0.35922 l 1.07775,1.07777 v 0.35925 l 0.35928,0.35926 v 1.07776 l -1.43703,1.43703 h -0.35922 l -0.3593,0.35925 h -1.07775 l -0.35922,-0.35925 h -0.3593 l -0.35922,-0.35926 h -0.3593 l -0.35922,-0.35926 v -0.35925 l -0.3593,-0.35926 v -0.71851 l 0.3593,-0.35925 v -1.07777 l 0.35922,-0.35925 h 0.3593 l 0.35922,0.35925 -0.35922,0.35926 0.71852,-0.71851 h 1.07775 -0.71853 l -0.35922,-0.35926 z m -183.93864,-1.43703 0.35926,0.35926 -1.07776,1.07777 v 1.07776 l -2.5148,2.51479 h -1.07777 l -0.35924,0.35925 v 0.35926 l -1.43702,1.43701 v 0.35927 l -0.71851,0.7185 0.71851,0.71852 -0.35927,0.35924 v 0.35927 l -0.7185,0.7185 -0.71851,-0.7185 h -0.35925 l -0.71852,-0.71851 v -0.35926 l 0.71852,-0.71851 v -0.35925 l 0.71851,-0.71851 v -0.35926 l 0.71851,-0.71851 v -0.35926 l 2.15553,-2.15553 0.71851,0.71851 h 0.7185 v -0.35925 h -1.07777 l -0.35924,-0.35926 v -0.35925 l 1.43701,-1.43702 1.07777,1.07776 0.35926,-0.35925 v -0.35926 h -1.07776 l -0.35927,-0.35925 1.43703,-1.43703 h 0.35925 l 0.35925,-0.35925 0.35927,0.35925 z M 83.9936,167.15213 h 0.71851 l 0.35925,-0.35925 0.35925,0.35925 h 0.35926 l 0.35926,0.35926 -0.71852,0.71851 h 0.71852 l 0.35924,0.35925 0.35927,-0.35925 0.7185,0.71851 -0.7185,0.71851 v 0.71851 h 0.35926 v -0.35925 l 0.35924,-0.35926 0.35927,0.35926 0.35925,-0.35926 2.15552,2.15553 v 0.35926 l 1.43703,1.43702 v 0.35925 l 0.71851,0.71852 v 0.35925 l 0.71851,0.7185 v 0.35927 l 0.71851,0.7185 v 0.35926 l -0.71851,0.7185 h -0.35926 l -0.35925,0.35927 0.35925,0.35925 h 0.71851 l 0.71851,-0.71852 0.71851,0.71852 v 0.35925 l 0.35926,0.35927 v 0.35924 l 0.35925,0.35926 v 0.71851 l 0.35926,0.35925 v 0.35927 l 0.35926,0.35924 v 0.35926 l 0.35925,0.35926 v 0.7185 l 0.35926,0.35926 v 0.71851 l -0.35926,0.35926 -0.35925,-0.35926 -0.35926,0.35926 h -0.35926 v 1.07776 l -0.35925,0.35926 -0.35926,-0.35926 v -0.71851 l -0.35925,-0.35925 v -0.35926 l -0.35926,-0.35926 v -0.35925 l 0.35926,-0.35926 v -1.43702 l -0.35926,-0.35924 v -0.35927 l -0.71851,-0.7185 v -0.35926 l -0.71851,-0.7185 h -0.35925 l -0.71851,-0.71852 v -0.35925 l -0.35926,-0.35927 v -0.35924 l -0.71851,-0.71852 v -0.35925 l 0.35927,-0.35925 v -0.35927 l -0.35927,-0.35924 v -0.35926 l -1.07777,-1.07777 v -0.35925 l -0.7185,-0.71851 h -1.07776 l -2.15554,-2.15553 0.35926,-0.35926 v -0.35925 l -2.51479,-2.51479 z m 343.44792,-1.43702 -0.35925,0.35926 h -0.35925 l -0.71852,0.71851 h -0.35924 l -0.35927,0.35925 h -0.35926 l -0.71851,0.71851 h -0.35924 l -0.35926,-0.35925 h -0.35926 l -0.35925,-0.35926 0.35925,0.35926 -1.07777,1.07776 h -0.35924 l -1.79628,1.79628 v 0.35926 l 0.35925,0.35925 -1.07776,1.07777 -0.71851,-0.71851 v -0.71851 h -0.35926 l -0.35925,-0.35926 3.23328,-3.2333 h 0.35927 l 1.07777,-1.07776 h 0.35925 l 0.71851,-0.7185 h 0.35926 l 0.71851,-0.71853 h 0.35924 l 0.35926,-0.35924 h 0.35927 l 0.35924,0.35924 -0.35924,0.35926 h 0.7185 l 0.35926,0.35927 h 0.35925 z m -89.09527,-1.79628 -0.35926,0.35927 h -0.35925 l -0.35926,0.35924 h -0.35925 v 1.07777 l -0.35926,0.35926 h -0.35926 l -0.35925,0.35926 h -0.35926 l -0.71851,0.7185 h -0.35925 l -0.71851,0.71851 h -0.35926 l -0.35925,-0.35925 h -0.35926 l -0.71851,0.71851 h -0.35926 l -0.7185,0.71851 -1.07776,-1.07777 1.07776,-1.07776 h 0.35925 l 1.07777,-1.07777 h 0.35925 l 0.71851,-0.71851 h 0.35926 l 0.71851,-0.7185 h 0.35925 l 0.35926,-0.35927 h 0.35925 l 0.35926,0.35927 -0.35926,0.35924 0.35926,-0.35924 -0.35926,-0.35927 0.35926,-0.35925 h 0.35925 l 0.35926,-0.35925 h 0.35926 l 0.35925,0.35925 h 0.71851 z M 76.08999,162.84107 77.16774,161.7633 H 77.527 l 0.35926,0.35927 h 0.35925 l 0.35926,0.35925 -0.35926,0.35925 h -0.35925 0.35925 l 0.35926,0.35926 h 0.35925 l 0.35926,-0.35926 h 0.35925 l 0.71851,0.71851 h 0.35926 l 0.35925,0.35925 h 0.35926 l 0.71851,0.71851 h 0.35926 l 1.07776,1.07777 h 0.35926 l 0.71851,0.71852 -1.07777,1.07776 h -0.35925 l -1.07777,-1.07776 h -0.71851 l -0.35926,0.35925 -0.35925,-0.35925 h -0.35926 l -0.71851,-0.71852 h -0.35925 l -0.35926,-0.35924 H 78.60477 L 77.527,164.2781 v -0.35927 l -0.71851,-0.7185 h -0.35926 z m 350.63303,0.71851 1.07777,-0.71851 h 0.35924 l 0.35926,0.35926 h 0.71851 -0.71851 l -0.35926,-0.35926 0.71851,-0.7185 h 0.35926 l 0.35925,-0.35927 h 0.71851 l 0.35926,-0.35924 h 0.71851 l 1.07777,-0.71853 h 0.71851 l 0.35925,-0.35924 h 1.07777 l 0.35925,-0.35926 h 0.71852 l 0.35925,-0.35926 h 1.43702 l 0.35926,-0.35925 h 1.79628 l 0.35925,-0.35925 h 2.87404 l 0.35925,-0.35926 h 4.31106 l 0.35926,0.35926 h 3.59255 l 0.35926,0.35925 h 1.43701 l 0.35926,0.35925 h 1.43703 l 0.35924,0.35926 h 1.07777 l 0.35926,0.35926 h 0.7185 l 0.35927,0.35924 h 0.7185 l 0.35927,0.35927 h 0.7185 l 0.35926,0.35926 h 0.35925 l 0.35925,0.35924 1.07777,0.35927 0.35925,0.35925 -0.35925,0.35925 h -0.35926 0.35926 l 0.35925,0.35926 h 0.35926 -0.35926 l -0.35925,-0.35926 0.35925,-0.35925 h 0.71851 l 0.35926,0.35925 h 0.35926 l 0.35925,0.35926 1.07777,0.35925 0.71851,0.71852 1.07776,0.35924 0.71851,0.71853 h 0.35926 l 1.07777,1.07776 h 0.35924 l 1.43703,1.43701 -0.35926,0.35926 0.35926,-0.35926 0.35926,0.35926 h 0.35924 l 1.07777,1.07776 -0.35925,0.35926 0.35925,-0.35926 1.79628,1.79628 -0.71851,0.71851 h -0.7185 0.7185 l 0.71851,-0.71851 1.07776,1.07777 v 0.35925 l 0.35926,0.35926 -0.35926,0.35925 h -0.71851 l -0.35925,0.35926 h -1.07777 l -2.51478,-2.51479 v -0.35925 l 0.35926,-0.35926 -0.35926,-0.35925 v -0.35926 l -0.35926,-0.35926 h -0.35925 l -1.07776,-1.07776 h -0.35926 l -1.07777,-1.07777 -1.07776,0.35926 -1.79628,-1.43702 -1.07776,-0.35926 -0.35926,-0.35924 v -0.71853 l -0.35926,-0.35924 h -0.35925 l -1.79628,-1.07777 h -1.07776 l -0.35926,0.35925 h -0.35924 l -0.35927,-0.35925 h -0.7185 l -0.35927,-0.35926 h -0.7185 l -0.35926,-0.35925 h -0.35925 l -0.71852,-1.07776 h -0.7185 l -0.35927,-0.35926 h -1.07776 l -0.35925,-0.35927 h -0.71851 l -0.71851,0.71853 h -0.71851 l -0.35925,-0.35926 h -2.51479 l -0.35926,-0.35927 v -0.35924 h -1.07776 l -0.35926,-0.35926 h -1.79628 l -0.35924,0.35926 H 443.608 v 0.35924 l -0.35925,0.35927 h -2.87404 l -0.35925,0.35926 h -0.35925 l -0.35927,-0.35926 v -0.35927 h -1.79627 l -0.35926,0.35927 h -0.7185 l -0.35926,0.35926 h -0.35925 l -0.71852,1.07776 h -0.35925 l -0.35926,0.35925 h -0.71851 l -0.35925,0.35926 h -0.71851 l -0.35926,0.35925 h -0.35925 l -0.35926,-0.35925 h -0.71851 l -1.79628,1.07777 h -0.71851 l -0.35924,-0.35927 h -0.71852 z m -89.81379,-0.35925 0.35925,-0.35926 h 0.35926 l 0.35925,-0.35925 h 0.35926 l 0.35925,-0.35925 h 0.35926 l 0.35925,-0.35927 h 0.35926 l 0.35924,-0.35924 h 0.35927 l 0.35926,-0.35926 h 0.71851 l 0.35925,-0.35927 h 0.71851 l 0.35926,-0.35924 h 1.07775 l 0.35926,-0.35926 h 1.07776 l 0.35927,-0.35926 h 1.07777 l 0.35924,-0.35925 h 1.79628 l 0.35925,-0.35925 h 3.59256 l 0.35925,-0.35926 h 3.2333 l 0.35926,0.35926 h 3.23329 l 0.35925,0.35925 h 1.79628 l 0.35925,0.35925 h 1.43702 l 0.35926,0.35926 h 1.07777 l 0.35925,0.35926 h 0.71851 l 0.35926,0.35924 h 0.71851 l 0.35925,0.35927 h 0.71851 l 0.35926,0.35926 h 0.35926 l 0.35925,0.35924 -0.35925,0.35927 0.35925,-0.35927 h 0.71851 l 0.35926,0.35927 h 0.35925 l 0.35926,0.35925 h 0.35925 l 0.35925,0.35925 h 0.35926 l 0.35926,0.35926 -0.35926,0.35925 h -0.35926 0.35926 l 0.35926,-0.35925 h 0.35924 l 0.35927,0.35925 h 0.35926 l 0.35924,0.35925 -0.35924,0.35927 h -0.35926 l -0.35927,0.35924 v 0.71853 l -0.35924,0.35924 -0.35926,-0.35924 v -0.71853 h -0.35926 l -0.35925,-0.35924 h -0.35925 l -0.35926,-0.35927 h -0.35925 l -0.35926,-0.35925 h -0.35925 l -0.35926,-0.35925 h -0.71851 l -0.35926,0.35925 h -0.71851 l -0.35925,-0.35925 h -0.71851 l -0.35926,-0.35926 h -0.71851 l -0.35925,-0.35925 h -0.35926 l -0.35925,-0.35925 v -0.35927 l -0.35926,-0.35924 h -0.71851 l -0.35926,-0.35926 h -1.07776 l -0.35925,-0.35927 h -0.35926 l -0.7185,0.71853 h -0.71852 l -0.35925,-0.35926 h -2.5148 l -0.35924,-0.35927 v -0.35924 h -1.07777 l -0.35925,-0.35926 h -2.15554 l -0.35925,0.35926 v 0.35924 l -0.35926,0.35927 h -2.51479 l -0.35925,0.35926 h -1.07777 l -0.71851,-0.71853 h -0.71851 l -0.35924,0.35927 h -1.07777 l -0.35927,-0.35927 h -0.7185 0.7185 l 0.35927,0.35927 -0.35927,0.35926 h -0.7185 v 0.71851 l -0.35926,0.35925 h -0.7185 l -0.35927,0.35925 h -0.7185 l -0.35926,0.35926 h -0.35925 l -0.35925,0.35925 h -1.07777 l -0.35927,-0.35925 h -0.35924 l -0.35926,0.35925 h -0.35925 l -0.35926,0.35925 h -0.35925 l -0.35926,-0.35925 h -0.71851 z m -260.81924,-12.57394 0.7185,-0.71851 h 0.35925 l 0.35926,0.35927 h 0.71851 l 0.35926,0.35924 h 0.71851 l 0.35925,0.35926 h 0.35926 l 0.35925,0.35926 h 0.71851 l 0.35926,0.35925 h 0.71851 l 0.35926,0.35926 h 0.35925 l 0.35926,0.35925 h 0.71851 l 0.35925,0.35926 h 0.35926 l 0.35925,0.35925 h 0.71851 l 0.35926,0.35926 h 0.35924 l 0.35927,0.35925 h 0.35926 l 0.35924,0.35926 h 0.35927 l 0.35925,0.35925 h 0.35925 l 0.35926,0.35926 h 0.35925 l 0.35925,0.35925 h 0.35927 l 0.35924,0.35926 h 0.35926 l 0.35927,0.35926 h 0.35924 l 0.35926,0.35925 h 0.35926 l 0.7185,0.71851 h 0.35926 l 0.35925,0.35926 h 0.35926 l 0.35925,0.35925 h 0.35926 l 0.35925,0.35926 h 0.35926 l 0.35925,0.35925 h 0.35926 l 0.71851,0.71851 h 0.35926 l 0.35925,0.35925 h 0.35926 l 0.35925,0.35926 h 0.35926 l 0.35925,0.35926 h 0.35926 l 0.71851,0.71851 h 0.35925 l 0.35926,0.35926 h 0.35926 l 0.35924,0.35924 h 0.35927 l 0.7185,0.71852 h 0.35926 l 0.35926,0.35925 h 0.35924 l 0.35927,0.35926 h 0.35925 l 0.35925,0.35925 h 0.35926 l 0.35925,0.35925 h 0.35926 l 0.71851,0.71851 h 0.35925 l 0.35927,0.35926 h 0.35924 l 0.35926,0.35927 h 0.35926 l 0.7185,0.7185 h 0.35926 l 0.35925,0.35926 h 0.35926 l 0.35926,0.35925 -0.71852,0.71851 h -0.35925 l -0.35926,-0.35926 h -0.35925 l -0.71851,-0.7185 h -0.35926 l -0.35924,-0.35926 h -0.35927 l -0.35925,-0.35926 h -0.35925 l -0.71852,-0.71851 h -0.35925 l -0.35926,-0.35926 h -0.35925 l -0.35925,-0.35924 h -0.35927 l -0.7185,-0.71852 h -0.35926 l -0.35925,-0.35925 h -0.35925 l -0.35927,-0.35926 h -0.35924 l -0.35926,-0.35925 h -0.35926 l -0.71851,-0.71852 h -0.35925 l -0.35926,-0.35924 H 98.72306 L 98.3638,161.0448 h -0.35925 l -0.71851,-0.71851 h -0.35926 l -0.35925,-0.35926 h -0.35926 l -0.35926,-0.35926 h -0.35925 l -0.35926,-0.35925 h -0.35925 l -0.71851,-0.71851 h -0.35926 l -0.35925,-0.35925 h -0.35926 l -0.35925,-0.35926 h -0.35925 l -0.35926,-0.35925 h -0.35926 l -0.35924,-0.35926 h -0.35927 l -0.35926,-0.35925 h -0.35924 l -0.35927,-0.35926 h -0.35925 l -0.71851,-0.71851 h -0.7185 l -0.35927,-0.35926 H 87.2269 l -0.35926,-0.35925 h -0.35927 l -0.35924,-0.35926 h -0.35926 l -0.35926,-0.35925 h -0.35925 l -0.35925,-0.35926 h -0.35926 l -0.35925,-0.35925 h -0.71851 l -0.35926,-0.35926 h -0.35925 l -0.35926,-0.35925 h -0.35926 l -0.35925,-0.35926 H 80.7603 l -0.35926,-0.35925 h -0.71851 l -0.35925,-0.35926 h -0.71851 l -0.35926,-0.35925 H 77.527 l -0.35926,-0.35926 h -0.71851 z m -27.66266,-2.15553 0.71852,-0.71851 h 2.87404 l 0.35925,-0.35925 h 3.9518 l 0.35927,-0.35925 h 5.74807 l 0.35926,0.35925 h 2.87404 l 0.35926,0.35925 h 2.15553 l 0.35926,0.35927 h 1.43702 l 0.35924,0.35924 h 1.07777 l 0.35926,0.35926 h 1.43702 l 0.35925,0.35926 h 1.07777 l 0.35926,0.35925 h 1.07777 l 0.35924,0.35925 v 0.35927 l -0.35924,0.35924 h -0.71852 l -0.35925,-0.35924 h -1.07776 l -0.35927,-0.35927 h -1.07777 l -0.35924,-0.35925 h -1.07777 l -0.35925,-0.35925 h -1.43703 l -0.35925,-0.35926 H 67.1086 l -0.35925,-0.35926 h -2.87404 l -0.35926,-0.35924 h -9.34064 l -0.35924,0.35924 h -2.87405 l -0.35925,0.35926 h -1.79628 z m 258.30446,37.00329 5.02957,-15.80723 2.87405,-5.38882 4.67031,-6.4666 6.10734,-5.74808 4.67031,-3.2333 8.98139,-3.9518 6.46658,-1.07777 h 112.44688 l 8.62212,2.15553 9.34063,5.02957 7.90361,7.54436 7.18513,8.98138 -0.3593,0.71851 -7.54436,-8.98138 -7.90358,-7.54436 -6.82585,-3.95181 -10.05916,-2.87403 H 344.45358 l -5.38882,1.07776 -7.54437,3.2333 -7.54436,5.38882 -3.59254,3.59256 -6.10734,8.62212 -2.87404,6.46659 -3.59256,11.85542 -0.7185,0.71851 z M 49.5051,142.00428 v 1.07776 l -0.35925,0.35925 v 1.07776 l -0.35926,0.35927 v 0.7185 l -0.35926,0.35926 v 0.35926 l -0.35925,0.35925 v 0.35926 l -0.35926,0.35925 -0.35925,-0.35925 h -2.87405 l -1.07776,-1.07777 0.71851,-0.71851 h 0.35925 l 0.35926,-0.35925 h 0.35926 l 0.35925,-0.35927 h 0.35926 l 0.35925,-0.35924 h 0.35926 l 0.35925,0.35924 h 0.71851 v -0.35924 h -0.35925 l -0.35926,-0.35926 1.43702,-1.43702 h 0.35926 v -0.35925 l 0.35926,-0.35926 z m 13.29244,-25.50713 0.35925,-0.35925 h 3.95181 l 0.35926,0.35925 -0.35926,0.35927 h -3.95181 z m 156.9945,-25.147855 0.35926,-0.359256 h 22.27382 l 0.35926,0.359256 v 1.437021 l -0.71851,0.718511 v 5.748077 l -0.35926,0.35927 h -20.47755 l -0.35925,-0.35927 v -5.748077 l -1.07777,-1.077766 z m 34.84775,-30.536688 0.35926,-0.359255 h 13.65169 l 0.35926,0.359255 -0.35926,0.359256 h -12.93318 l -0.35926,0.359245 z"
     fill="#000000"
     fill-rule="evenodd"
     id="path1"
     style="stroke-width:0.359255" />
</svg>
