<svg xmlns="http://www.w3.org/2000/svg" width="2172" height="724" viewBox="0 0 2172 724">
<rect width="100%" height="100%" fill="white"/>
<path d="M 1776,483 L 1765,472 L 1743,473 L 1763,466 L 1752,438 L 1759,366 L 1721,349 L 1641,248 L 1443,221 L 1440,204 L 1491,202 L 1489,124 L 1413,110 L 1411,98 L 1367,85 L 1260,82 L 1247,56 L 1235,60 L 1228,83 L 1146,96 L 1125,121 L 1097,121 L 1077,147 L 836,156 L 837,168 L 1020,169 L 1028,178 L 1018,185 L 1079,187 L 1122,214 L 901,221 L 855,299 L 835,301 L 842,286 L 827,275 L 814,285 L 822,300 L 528,329 L 501,321 L 485,335 L 471,382 L 450,363 L 420,365 L 421,405 L 439,423 L 373,469 L 386,482 L 422,458 L 423,469 L 481,443 L 543,455 L 465,449 L 422,474 L 389,529 L 388,574 L 409,620 L 445,649 L 490,661 L 537,652 L 576,623 L 599,578 L 595,522 L 608,569 L 768,564 L 767,549 L 636,469 L 768,547 L 854,547 L 864,562 L 1011,562 L 1021,547 L 1174,547 L 1177,569 L 1207,569 L 1210,527 L 1227,502 L 1211,551 L 1222,603 L 1253,640 L 1313,661 L 1380,640 L 1414,599 L 1417,519 L 1371,461 L 1411,500 L 1425,569 L 1460,568 L 1465,522 L 1462,567 L 1486,622 L 1528,653 L 1565,661 L 1615,650 L 1663,603 L 1674,550 L 1657,500 L 1681,550 L 1741,534 L 1730,511 L 1736,497 L 1767,497 Z M 1653,486 L 1656,489 L 1656,490 L 1658,492 L 1658,493 L 1661,496 L 1661,497 L 1660,498 L 1658,498 L 1657,499 L 1657,500 L 1656,501 L 1654,499 L 1654,498 L 1655,497 L 1655,495 L 1651,491 L 1651,490 L 1649,488 L 1650,487 L 1652,487 Z M 1490,480 L 1492,482 L 1493,482 L 1495,484 L 1493,486 L 1493,487 L 1492,488 L 1488,488 L 1487,487 L 1488,486 L 1491,486 L 1489,486 L 1488,485 L 1487,486 L 1487,487 L 1488,488 L 1487,489 L 1487,490 L 1484,493 L 1484,494 L 1482,496 L 1482,498 L 1483,499 L 1483,500 L 1482,501 L 1482,502 L 1480,504 L 1480,505 L 1479,506 L 1478,505 L 1478,504 L 1475,504 L 1474,505 L 1478,505 L 1479,506 L 1478,507 L 1476,507 L 1476,508 L 1474,510 L 1474,512 L 1473,513 L 1473,514 L 1472,515 L 1472,516 L 1473,517 L 1473,520 L 1472,521 L 1472,523 L 1471,524 L 1471,526 L 1470,527 L 1468,527 L 1467,526 L 1468,525 L 1469,525 L 1469,524 L 1468,523 L 1466,523 L 1465,522 L 1465,520 L 1466,519 L 1466,517 L 1467,516 L 1467,514 L 1468,513 L 1468,512 L 1469,511 L 1469,510 L 1470,509 L 1470,508 L 1471,507 L 1471,506 L 1472,505 L 1472,504 L 1473,503 L 1473,502 L 1475,500 L 1475,499 L 1477,497 L 1477,496 L 1478,495 L 1478,494 L 1480,492 L 1480,491 L 1483,488 L 1483,487 Z M 1760,478 L 1763,478 L 1764,479 L 1765,479 L 1768,482 L 1768,483 L 1769,484 L 1769,487 L 1765,491 L 1764,491 L 1763,492 L 1760,492 L 1759,491 L 1758,491 L 1757,490 L 1756,490 L 1755,489 L 1755,488 L 1754,487 L 1754,485 L 1755,484 L 1755,481 L 1756,480 L 1757,480 L 1758,481 L 1757,482 L 1759,480 L 1762,480 L 1760,480 L 1759,479 Z M 1248,474 L 1249,475 L 1246,478 L 1246,481 L 1239,488 L 1236,488 L 1235,489 L 1235,490 L 1231,494 L 1231,495 L 1229,497 L 1231,499 L 1230,500 L 1230,501 L 1228,503 L 1226,501 L 1225,501 L 1223,499 L 1223,498 L 1225,496 L 1225,495 L 1227,493 L 1227,492 L 1229,490 L 1229,489 L 1235,483 L 1237,485 L 1239,485 L 1239,484 L 1236,484 L 1235,483 L 1235,482 L 1239,478 L 1242,481 L 1243,480 L 1243,479 L 1240,479 L 1239,478 L 1243,474 L 1244,474 L 1245,473 L 1246,474 Z M 562,470 L 564,470 L 565,469 L 566,470 L 567,470 L 568,471 L 566,473 L 568,473 L 569,474 L 570,473 L 572,475 L 570,477 L 570,479 L 571,479 L 571,478 L 572,477 L 573,478 L 574,477 L 580,483 L 580,484 L 584,488 L 584,489 L 586,491 L 586,492 L 588,494 L 588,495 L 590,497 L 590,498 L 588,500 L 587,500 L 586,501 L 587,502 L 589,502 L 591,500 L 593,502 L 593,503 L 594,504 L 594,505 L 595,506 L 595,508 L 596,509 L 596,510 L 597,511 L 597,512 L 598,513 L 598,515 L 599,516 L 599,518 L 598,519 L 597,518 L 596,519 L 595,519 L 595,522 L 594,523 L 593,522 L 593,520 L 592,519 L 592,518 L 591,517 L 591,516 L 592,515 L 592,511 L 591,510 L 591,509 L 589,507 L 589,506 L 587,504 L 586,504 L 584,502 L 584,501 L 583,500 L 583,499 L 581,497 L 581,496 L 582,495 L 582,494 L 581,493 L 581,492 L 578,489 L 578,488 L 576,486 L 573,486 L 567,480 L 568,479 L 568,478 L 561,471 Z M 1518,466 L 1517,467 L 1516,467 L 1514,469 L 1513,469 L 1512,470 L 1511,470 L 1509,472 L 1508,472 L 1507,471 L 1506,471 L 1505,470 L 1506,471 L 1503,474 L 1502,474 L 1497,479 L 1497,480 L 1498,481 L 1495,484 L 1493,482 L 1493,480 L 1492,480 L 1491,479 L 1500,470 L 1501,470 L 1504,467 L 1505,467 L 1507,465 L 1508,465 L 1510,463 L 1511,463 L 1512,462 L 1513,462 L 1514,463 L 1513,464 L 1515,464 L 1516,465 L 1517,465 Z M 1270,461 L 1269,462 L 1268,462 L 1267,463 L 1266,463 L 1266,466 L 1265,467 L 1264,467 L 1263,468 L 1262,468 L 1260,470 L 1259,470 L 1257,472 L 1256,472 L 1255,471 L 1254,471 L 1252,473 L 1251,473 L 1249,475 L 1246,472 L 1249,469 L 1250,469 L 1253,466 L 1254,466 L 1256,464 L 1257,464 L 1259,462 L 1260,462 L 1261,461 L 1262,461 L 1263,462 L 1262,463 L 1263,462 L 1262,461 L 1263,460 L 1264,460 L 1265,459 L 1266,459 L 1267,460 L 1269,460 Z M 540,458 L 543,455 L 544,455 L 545,456 L 546,456 L 547,457 L 546,458 L 545,458 L 546,458 L 547,459 L 548,459 L 549,458 L 550,458 L 552,460 L 553,460 L 554,461 L 555,461 L 557,463 L 558,463 L 561,466 L 562,466 L 564,468 L 561,471 L 560,471 L 557,468 L 555,468 L 554,469 L 553,468 L 552,468 L 550,466 L 549,466 L 548,465 L 547,465 L 544,462 L 544,461 L 542,459 L 541,459 Z M 1516,460 L 1519,458 L 1520,458 L 1521,459 L 1523,459 L 1521,459 L 1520,458 L 1522,456 L 1523,456 L 1524,455 L 1526,455 L 1527,454 L 1529,454 L 1532,452 L 1534,452 L 1535,451 L 1538,451 L 1539,450 L 1541,450 L 1542,449 L 1546,449 L 1547,448 L 1552,448 L 1553,447 L 1561,447 L 1562,446 L 1574,446 L 1575,447 L 1585,447 L 1586,448 L 1590,448 L 1591,449 L 1595,449 L 1596,450 L 1599,450 L 1600,451 L 1602,451 L 1603,452 L 1605,452 L 1606,453 L 1608,453 L 1609,454 L 1610,454 L 1611,455 L 1614,456 L 1615,457 L 1614,458 L 1613,458 L 1614,458 L 1615,459 L 1616,459 L 1615,459 L 1614,458 L 1615,457 L 1617,457 L 1618,458 L 1619,458 L 1620,459 L 1623,460 L 1625,462 L 1628,463 L 1630,465 L 1631,465 L 1634,468 L 1635,468 L 1639,472 L 1638,473 L 1639,472 L 1640,473 L 1641,473 L 1644,476 L 1643,477 L 1644,476 L 1649,481 L 1647,483 L 1645,483 L 1647,483 L 1649,481 L 1652,484 L 1652,485 L 1653,486 L 1652,487 L 1650,487 L 1649,488 L 1646,488 L 1639,481 L 1639,480 L 1640,479 L 1639,478 L 1639,477 L 1638,476 L 1637,476 L 1634,473 L 1633,473 L 1630,470 L 1627,471 L 1622,467 L 1619,466 L 1618,465 L 1618,463 L 1617,462 L 1616,462 L 1611,459 L 1608,459 L 1607,460 L 1606,460 L 1605,459 L 1603,459 L 1602,458 L 1600,458 L 1599,457 L 1598,457 L 1596,454 L 1594,454 L 1593,453 L 1590,453 L 1589,452 L 1587,452 L 1585,454 L 1583,454 L 1582,453 L 1575,453 L 1574,452 L 1574,451 L 1571,451 L 1570,450 L 1565,450 L 1564,451 L 1563,451 L 1563,452 L 1562,453 L 1554,453 L 1553,454 L 1552,454 L 1551,453 L 1551,452 L 1546,452 L 1545,453 L 1543,453 L 1542,454 L 1541,454 L 1539,457 L 1538,457 L 1537,458 L 1535,458 L 1534,459 L 1532,459 L 1531,460 L 1530,460 L 1529,459 L 1527,459 L 1522,462 L 1520,462 L 1519,461 L 1517,461 Z M 1266,459 L 1267,458 L 1268,458 L 1269,457 L 1270,457 L 1271,456 L 1272,456 L 1273,455 L 1274,455 L 1275,454 L 1276,454 L 1277,453 L 1279,453 L 1280,452 L 1282,452 L 1283,451 L 1286,451 L 1287,450 L 1290,450 L 1291,449 L 1294,449 L 1295,448 L 1300,448 L 1301,447 L 1311,447 L 1312,446 L 1321,446 L 1322,447 L 1331,447 L 1332,448 L 1337,448 L 1338,449 L 1342,449 L 1343,450 L 1346,450 L 1347,451 L 1349,451 L 1350,452 L 1352,452 L 1353,453 L 1355,453 L 1356,454 L 1357,454 L 1358,455 L 1357,456 L 1358,455 L 1360,455 L 1361,456 L 1362,456 L 1363,457 L 1364,457 L 1365,458 L 1366,458 L 1367,459 L 1366,460 L 1365,460 L 1366,460 L 1367,459 L 1368,459 L 1369,460 L 1370,460 L 1371,461 L 1370,462 L 1369,462 L 1368,463 L 1368,465 L 1367,466 L 1366,465 L 1366,463 L 1365,463 L 1364,462 L 1363,462 L 1362,461 L 1361,461 L 1360,460 L 1359,460 L 1358,459 L 1356,459 L 1355,460 L 1353,460 L 1352,459 L 1350,459 L 1349,458 L 1347,458 L 1346,457 L 1345,457 L 1344,456 L 1344,455 L 1343,454 L 1341,454 L 1340,453 L 1337,453 L 1336,452 L 1335,452 L 1333,454 L 1331,454 L 1330,453 L 1323,453 L 1322,452 L 1322,451 L 1319,451 L 1318,450 L 1312,450 L 1311,451 L 1311,452 L 1310,453 L 1303,453 L 1302,454 L 1299,454 L 1297,452 L 1295,452 L 1294,453 L 1291,453 L 1290,452 L 1288,452 L 1290,452 L 1291,453 L 1290,454 L 1288,454 L 1288,456 L 1287,457 L 1285,457 L 1284,458 L 1282,458 L 1281,459 L 1280,459 L 1279,460 L 1276,460 L 1275,459 L 1274,459 L 1273,460 L 1272,460 L 1271,461 L 1270,461 L 1269,460 L 1267,460 Z M 540,424 L 542,422 L 543,422 L 544,423 L 546,423 L 547,424 L 549,424 L 550,425 L 551,425 L 552,426 L 554,426 L 555,427 L 557,427 L 558,428 L 559,428 L 560,429 L 562,429 L 563,430 L 564,430 L 565,431 L 567,431 L 568,432 L 569,432 L 570,433 L 571,433 L 572,434 L 573,434 L 574,435 L 575,435 L 576,436 L 577,436 L 578,437 L 579,437 L 580,438 L 581,438 L 582,439 L 583,439 L 584,440 L 585,440 L 587,442 L 588,442 L 589,443 L 590,443 L 591,444 L 592,444 L 593,445 L 594,445 L 595,446 L 596,446 L 598,448 L 599,448 L 600,449 L 601,449 L 602,450 L 603,450 L 604,451 L 605,451 L 607,453 L 608,453 L 609,454 L 610,454 L 611,455 L 612,455 L 614,457 L 615,457 L 616,458 L 617,458 L 618,459 L 619,459 L 620,460 L 621,460 L 622,461 L 623,461 L 625,463 L 626,463 L 627,464 L 628,464 L 629,465 L 630,465 L 632,467 L 633,467 L 634,468 L 635,468 L 636,469 L 634,471 L 633,471 L 632,470 L 631,470 L 629,468 L 628,468 L 627,467 L 626,467 L 625,466 L 624,466 L 622,464 L 621,464 L 620,463 L 619,463 L 618,462 L 617,462 L 615,460 L 614,460 L 613,459 L 612,459 L 611,458 L 610,458 L 609,457 L 608,457 L 606,455 L 605,455 L 604,454 L 603,454 L 602,453 L 601,453 L 599,451 L 598,451 L 597,450 L 596,450 L 595,449 L 594,449 L 593,448 L 592,448 L 590,446 L 589,446 L 588,445 L 587,445 L 586,444 L 585,444 L 584,443 L 583,443 L 582,442 L 581,442 L 580,441 L 579,441 L 578,440 L 577,440 L 575,438 L 573,438 L 572,437 L 571,437 L 570,436 L 569,436 L 568,435 L 567,435 L 566,434 L 565,434 L 564,433 L 563,433 L 562,432 L 560,432 L 559,431 L 558,431 L 557,430 L 556,430 L 555,429 L 553,429 L 552,428 L 550,428 L 549,427 L 547,427 L 546,426 L 544,426 L 543,425 L 541,425 Z M 463,418 L 465,416 L 473,416 L 474,415 L 485,415 L 486,414 L 502,414 L 503,415 L 511,415 L 512,416 L 518,416 L 519,417 L 523,417 L 524,418 L 527,418 L 528,419 L 532,419 L 533,420 L 536,420 L 537,421 L 540,421 L 541,422 L 541,423 L 540,424 L 538,424 L 537,423 L 534,423 L 533,422 L 530,422 L 529,421 L 526,421 L 525,420 L 521,420 L 520,419 L 515,419 L 514,418 L 506,418 L 505,417 L 479,417 L 478,418 L 470,418 L 469,419 L 464,419 Z M 1182,521 L 1196,477 L 1204,462 L 1217,444 L 1234,428 L 1247,419 L 1272,408 L 1290,405 L 1603,405 L 1627,411 L 1653,425 L 1675,446 L 1695,471 L 1694,473 L 1673,448 L 1651,427 L 1632,416 L 1604,408 L 1287,408 L 1272,411 L 1251,420 L 1230,435 L 1220,445 L 1203,469 L 1195,487 L 1185,520 L 1183,522 Z M 466,400 L 466,403 L 465,404 L 465,407 L 464,408 L 464,410 L 463,411 L 463,412 L 462,413 L 462,414 L 461,415 L 460,414 L 452,414 L 449,411 L 451,409 L 452,409 L 453,408 L 454,408 L 455,407 L 456,407 L 457,406 L 458,406 L 459,407 L 461,407 L 461,406 L 460,406 L 459,405 L 463,401 L 464,401 L 464,400 L 465,399 Z M 503,329 L 504,328 L 515,328 L 516,329 L 515,330 L 504,330 Z M 940,259 L 941,258 L 1003,258 L 1004,259 L 1004,263 L 1002,265 L 1002,281 L 1001,282 L 944,282 L 943,281 L 943,265 L 940,262 Z M 1037,174 L 1038,173 L 1076,173 L 1077,174 L 1076,175 L 1040,175 L 1039,176 Z" fill="black" fill-rule="evenodd"/>
</svg>