<?xml version="1.0" encoding="UTF-8" standalone="no"?>
<svg
   width="700"
   height="250"
   viewBox="0 0 700 250"
   version="1.1"
   id="svg2"
   sodipodi:docname="bazooka_black.svg"
   inkscape:version="1.4.2 (f4327f4, 2025-05-13)"
   xmlns:inkscape="http://www.inkscape.org/namespaces/inkscape"
   xmlns:sodipodi="http://sodipodi.sourceforge.net/DTD/sodipodi-0.dtd"
   xmlns="http://www.w3.org/2000/svg"
   xmlns:svg="http://www.w3.org/2000/svg">
  <defs
     id="defs2" />
  <sodipodi:namedview
     id="namedview2"
     pagecolor="#ffffff"
     bordercolor="#000000"
     borderopacity="0.25"
     inkscape:showpageshadow="2"
     inkscape:pageopacity="0.0"
     inkscape:pagecheckerboard="0"
     inkscape:deskcolor="#d1d1d1"
     inkscape:zoom="0.93700159"
     inkscape:cx="626.46638"
     inkscape:cy="285.48511"
     inkscape:window-width="2560"
     inkscape:window-height="1377"
     inkscape:window-x="-8"
     inkscape:window-y="-8"
     inkscape:window-maximized="1"
     inkscape:current-layer="svg2" />
  <path
     d="m 14.496906,87.426162 v 8.13625 l -0.581161,0.581142 v 14.529026 l 0.581161,0.58116 v 7.5551 z"
     fill="#000000"
     fill-rule="evenodd"
     id="path1"
     style="stroke-width:0.581161" />
  <path
     d="m 16.821548,57.205783 v 91.242237 l 4.649286,12.20437 10.460892,0.58117 8.717409,-13.94786 11.623215,-5.81162 45.330527,-9.87973 63.927703,-2.32464 2.32463,5.23045 7.55508,0.58116 4.06813,-5.81161 109.83937,0.58117 5.81161,21.50295 -17.43482,61.60304 27.31455,9.87972 12.20439,-0.58116 2.90578,-4.06813 -3.48695,-16.2725 6.97393,-26.15223 38.93776,-2.9058 4.64928,-19.75946 7.55511,-4.06814 V 131.0132 l 3.48695,-1.74349 3.48696,3.48698 10.4609,-3.48698 h 58.69722 l 1.16232,8.71742 8.71743,4.06811 -1.16233,69.73931 5.81161,5.23043 h 18.59714 l 5.81161,-6.97392 -1.74348,-67.41465 9.87972,-4.64928 1.16232,-8.71742 h 12.20438 l 2.32466,4.06814 h 8.71739 l 2.90582,-4.06814 148.77713,0.58117 -26.73339,1.16232 36.03198,2.90581 -5.81161,-0.58116 8.71739,-1.7435 4.64929,-15.11016 V 94.981245 l -6.97392,-16.272515 -39.51893,2.905822 1.74348,-22.665283 -4.06811,-3.486957 V 43.839097 l -1.16234,13.366686 -1.74347,-16.272504 -6.97393,2.324652 v 24.989916 l -16.85368,1.743484 -3.48695,11.623221 -0.58115,-6.392778 -0.58117,6.392778 h -85.43062 l -2.90582,-5.811613 h -8.13624 l 8.7174,0.581154 -11.04205,3.486961 h -27.31455 l 26.73339,1.162333 -119.13794,-0.581167 -2.32466,-4.068127 h -7.55507 l -2.32464,4.068127 -2.90581,-20.340632 -65.67116,1.743485 -1.74349,16.272503 23.24642,1.162319 h -90.0799 l -8.13624,-6.973925 7.55508,-6.973927 V 52.556495 l -12.78552,-5.230441 0.58116,-24.989905 -6.97394,-6.392774 -9.87973,6.973929 v 42.424739 l 5.23046,3.486956 -4.64929,2.905818 4.64929,0.581153 -8.71743,6.973925 h -30.80151 l -2.90581,-5.811607 -23.82758,3.48697 13.94785,1.162318 L 74.937618,72.897136 43.55494,62.436238 30.188243,44.42025 23.214315,45.001416 Z M 312.63235,203.6583 l 0.58117,0.58115 v 5.23045 l -0.58117,0.58116 -0.58117,-0.58116 v -5.23045 z m 16.27248,-34.28849 0.58117,-0.58117 h 21.50296 l 0.58114,0.58117 -0.58114,0.58115 H 329.486 Z m -9.29855,-24.98993 1.16231,-1.16232 h 2.32465 l 0.58116,0.58117 v 1.16233 l 0.58117,0.58116 v 0.58116 l 2.32463,2.32464 h 0.58115 l 0.58116,0.58115 v 0.58117 l -0.58116,0.58115 v 0.58117 l 0.58116,0.58117 v 3.48695 l 0.58116,0.58117 v 1.16232 l 0.58116,0.58116 1.16235,2.90581 1.16231,1.16232 v 0.58114 l 2.90579,2.90583 h 0.58116 l 1.16233,1.16232 1.74348,0.58115 1.16232,-1.16232 v -1.16232 l 0.58117,-0.58115 0.58115,0.58115 v 0.58117 -0.58117 l -2.32464,-2.9058 -0.58115,0.58114 -0.58117,-0.58114 v -0.58117 l -1.16232,-1.16231 v -1.16232 l 0.58116,-0.58116 v -0.58117 0.58117 l -0.58116,0.58116 -0.58117,-0.58116 v -1.16233 l -0.58116,-0.58117 v -5.23044 l 0.58116,-0.58117 0.58117,0.58117 v 1.74349 -1.74349 l 0.58116,-0.58117 v -1.16232 l -0.58116,-0.58115 v -1.16232 l 1.16232,-1.16232 0.58117,0.58116 0.58115,-0.58116 -0.58115,-0.58116 v -0.58116 l 1.74347,-1.7435 h 15.69134 l 0.58116,0.58117 h 0.58117 l 1.16232,1.16233 -0.58117,0.58116 h -0.58115 l 0.58115,0.58116 h 0.58117 l 0.58115,-0.58116 1.16233,1.16232 v 1.16231 l -0.58116,0.58117 h -0.58117 v 0.58115 l 0.58117,0.58117 v 1.16232 l -0.58117,0.58117 v 1.16232 -0.58116 l 0.58117,-0.58116 v -2.90581 l 0.58116,-0.58117 0.58117,0.58117 v 3.48697 l -0.58117,0.58116 v 4.06812 l -0.58116,0.58116 v 5.23045 l -0.58117,0.58116 v 2.32464 l -1.16232,1.16232 v 0.58115 l -0.58115,0.58116 -0.58117,-0.58116 V 166.464 l -1.16232,1.16231 0.58116,0.58117 -0.58116,0.58116 h -0.58116 l -0.58114,-0.58116 h -14.52903 l -0.58117,-0.58117 h -0.58115 l -0.58117,0.58117 h -8.13626 0.58116 l 0.58117,0.58116 -0.58117,0.58117 h -1.74348 l -0.58115,-0.58117 h -0.58118 l -0.58113,-0.58116 0.58113,-0.58117 v -0.58116 h -0.58113 l -0.58116,0.58116 -1.16233,-1.16231 0.58117,-0.58115 h 0.58116 v -0.58117 h -0.58116 v 0.58117 l -0.58117,0.58115 -0.58116,-0.58115 v -1.16232 l 0.58116,-0.58117 v -1.16232 l -0.58116,-0.58116 v -2.32464 l -0.58116,-0.58116 v -1.16232 1.16232 l -0.58117,0.58116 -0.58115,-0.58116 v -1.74348 l -0.58117,-0.58117 v -1.74348 l 0.58117,-0.58117 0.58115,0.58117 v 1.16232 -1.74349 l -0.58115,-0.58116 v -0.58116 1.16232 l -0.58117,0.58117 -0.58114,-0.58117 v -1.74347 l -0.58117,-0.58116 v -1.74349 l 0.58117,-0.58117 h 0.58114 v -0.58115 l -0.58114,-0.58117 v -1.16232 l -0.58117,-0.58115 v -0.58116 l 0.58117,-0.58116 h 0.58114 v -0.58116 z m 366.13124,-29.6392 0.58117,0.58118 v 4.06812 l -0.58117,0.58117 -0.58114,-0.58117 v -4.06812 z m -68.57696,-34.869626 0.58116,-0.581159 0.58116,0.581159 v 0.581166 h 11.04205 l 0.58117,-0.581166 0.58115,0.581166 v 1.162332 l -0.58115,0.581154 h -12.20438 l -0.58116,-0.581154 z m 0.58116,-0.581159 0.58116,-0.581165 h 9.87974 l 0.58117,0.581165 -0.58117,0.581159 h -9.87974 z m -243.50634,-1.162319 -1.16232,1.162319 h -11.62322 l -0.58116,-0.581165 0.58116,-0.581154 h 11.04206 l 0.58116,-0.581165 h 0.58116 z m -143.54669,-22.665264 1.74349,1.743471 v 1.162319 l -0.58117,0.581167 v 1.743485 l -0.58116,0.581166 -0.58116,-0.581166 v -0.581166 l -0.58117,-0.581167 v -0.581152 l -1.74349,-1.743486 0.58117,-0.581153 h 0.58116 z m 2.32464,-0.581166 0.58117,0.581166 v 4.649276 l -0.58117,0.581166 -0.58115,-0.581166 v -4.649276 z m -5.23045,0 0.58115,-0.581166 h 4.06815 l 0.58115,0.581166 -0.58115,0.581166 h -4.06815 z m -203.987404,-9.87973 0.58116,-0.581166 h 5.811607 l 0.581161,0.581166 -0.581161,0.581152 h -5.811607 z m 604.988314,-2.324638 0.58114,0.581153 v 23.827598 l -0.58114,0.581151 -0.58117,-0.581151 V 43.257931 Z M 215.5785,22.336149 h 1.16233 l 0.58115,-0.581167 h 0.58117 l 0.58115,0.581167 h 0.58117 l 1.74349,1.743477 v 0.581161 l 0.58116,0.581167 v 1.162319 l -0.58116,0.581153 v 1.162318 l -1.16232,1.162319 -0.58117,-0.581153 h -0.58117 l -0.58115,-0.581166 h -0.58117 l -0.58115,0.581166 h -1.16233 l -0.58116,-0.581166 v -1.162318 l -0.58114,-0.581153 v -0.581166 l 1.1623,-1.16232 -1.1623,-1.162318 z"
     fill="#000000"
     fill-rule="evenodd"
     id="path2"
     style="stroke-width:0.581161" />
</svg>
