<svg xmlns="http://www.w3.org/2000/svg" viewBox="0 0 154 82" width="154" height="82">
  <path d="M 11.00 38.00 L 12.00 46.00 L 15.00 50.00 L 17.00 50.00 L 19.00 46.00 L 22.00 46.00 L 24.00 48.00 L 26.00 47.00 L 67.00 47.00 L 68.00 46.00 L 71.00 46.00 L 72.00 47.00 L 72.00 62.00 L 73.00 63.00 L 80.00 63.00 L 88.00 60.00 L 88.00 56.00 L 86.00 52.00 L 86.00 49.00 L 88.00 46.00 L 134.00 46.00 L 135.00 47.00 L 141.00 46.00 L 143.00 49.00 L 146.00 49.00 L 148.00 46.00 L 148.00 33.00 L 147.00 31.00 L 143.00 30.00 L 141.00 33.00 L 138.00 33.00 L 137.00 32.00 L 135.00 33.00 L 87.00 33.00 L 85.00 30.00 L 83.00 30.00 L 80.00 33.00 L 19.00 33.00 L 15.00 30.00 L 13.00 32.00 Z M 75.00 46.00 L 77.00 46.00 L 79.00 48.00 L 79.00 49.00 L 80.00 49.00 L 81.00 50.00 L 81.00 53.00 L 82.00 54.00 L 82.00 60.00 L 81.00 61.00 L 74.00 61.00 L 73.00 60.00 L 73.00 55.00 L 74.00 54.00 L 74.00 53.00 L 73.00 52.00 L 73.00 49.00 Z" fill="#000000" stroke="#000000" stroke-width="0.5" fill-rule="evenodd" clip-rule="evenodd"/>
</svg>
