<svg xmlns="http://www.w3.org/2000/svg" width="1254" height="1254" viewBox="0 0 1254 1254">
<rect width="100%" height="100%" fill="white"/>
<path d="M 48,548 L 48,562 L 47,563 L 47,588 L 48,589 L 48,602 Z" fill="black" fill-rule="evenodd"/>
<path d="M 52,496 L 52,653 L 60,674 L 78,675 L 93,651 L 113,641 L 191,624 L 301,620 L 305,629 L 318,630 L 325,620 L 514,621 L 524,658 L 494,764 L 541,781 L 562,780 L 567,773 L 561,745 L 573,700 L 640,695 L 648,661 L 661,654 L 661,623 L 667,620 L 673,626 L 691,620 L 792,620 L 794,635 L 809,642 L 807,762 L 817,771 L 849,771 L 859,759 L 856,643 L 873,635 L 875,620 L 896,620 L 900,627 L 915,627 L 920,620 L 1176,621 L 1130,623 L 1192,628 L 1182,627 L 1197,624 L 1205,598 L 1205,561 L 1193,533 L 1125,538 L 1128,499 L 1121,493 L 1121,473 L 1119,496 L 1116,468 L 1104,472 L 1104,515 L 1075,518 L 1069,538 L 1068,527 L 1067,538 L 920,538 L 915,528 L 901,528 L 916,529 L 897,535 L 850,535 L 896,537 L 691,536 L 687,529 L 674,529 L 670,536 L 665,501 L 552,504 L 549,532 L 589,534 L 434,534 L 420,522 L 433,510 L 433,488 L 411,479 L 412,436 L 400,425 L 383,437 L 383,510 L 392,516 L 384,521 L 392,522 L 377,534 L 324,534 L 319,524 L 278,530 L 302,532 L 152,523 L 98,505 L 75,474 L 63,475 Z M 561,748 L 562,749 L 562,758 L 561,759 L 560,758 L 560,749 Z M 589,689 L 590,688 L 627,688 L 628,689 L 627,690 L 590,690 Z M 573,646 L 575,644 L 579,644 L 580,645 L 580,647 L 581,648 L 581,649 L 585,653 L 586,653 L 587,654 L 587,655 L 586,656 L 586,657 L 587,658 L 587,664 L 588,665 L 588,667 L 589,668 L 591,673 L 593,675 L 593,676 L 598,681 L 599,681 L 601,683 L 604,684 L 606,682 L 606,680 L 607,679 L 608,680 L 608,681 L 608,680 L 604,675 L 603,676 L 602,675 L 602,674 L 600,672 L 600,670 L 601,669 L 601,668 L 601,669 L 600,670 L 599,669 L 599,667 L 598,666 L 598,657 L 599,656 L 600,657 L 600,660 L 600,657 L 601,656 L 601,654 L 600,653 L 600,651 L 602,649 L 603,650 L 604,649 L 603,648 L 603,647 L 606,644 L 633,644 L 634,645 L 635,645 L 637,647 L 636,648 L 635,648 L 636,649 L 637,649 L 638,648 L 640,650 L 640,652 L 639,653 L 638,653 L 638,654 L 639,655 L 639,657 L 638,658 L 638,660 L 638,659 L 639,658 L 639,653 L 640,652 L 641,653 L 641,659 L 640,660 L 640,667 L 639,668 L 639,677 L 638,678 L 638,682 L 636,684 L 636,685 L 635,686 L 634,685 L 634,684 L 632,686 L 633,687 L 632,688 L 631,688 L 630,687 L 605,687 L 604,686 L 603,686 L 602,687 L 588,687 L 589,687 L 590,688 L 589,689 L 586,689 L 585,688 L 584,688 L 583,687 L 584,686 L 584,685 L 583,685 L 582,686 L 580,684 L 581,683 L 582,683 L 582,682 L 581,682 L 581,683 L 580,684 L 579,683 L 579,681 L 580,680 L 580,678 L 579,677 L 579,673 L 578,672 L 578,670 L 578,672 L 577,673 L 576,672 L 576,669 L 575,668 L 575,665 L 576,664 L 577,665 L 577,667 L 577,664 L 576,663 L 576,662 L 576,664 L 575,665 L 574,664 L 574,661 L 573,660 L 573,657 L 574,656 L 575,656 L 575,655 L 574,654 L 574,652 L 573,651 L 573,650 L 574,649 L 575,649 L 575,648 Z M 1203,595 L 1204,596 L 1204,603 L 1203,604 L 1202,603 L 1202,596 Z M 1085,535 L 1086,534 L 1087,535 L 1087,536 L 1106,536 L 1107,535 L 1108,536 L 1108,538 L 1107,539 L 1086,539 L 1085,538 Z M 1086,534 L 1087,533 L 1104,533 L 1105,534 L 1104,535 L 1087,535 Z M 667,532 L 665,534 L 645,534 L 644,533 L 645,532 L 664,532 L 665,531 L 666,531 Z M 420,493 L 423,496 L 423,498 L 422,499 L 422,502 L 421,503 L 420,502 L 420,501 L 419,500 L 419,499 L 416,496 L 417,495 L 418,495 Z M 424,492 L 425,493 L 425,501 L 424,502 L 423,501 L 423,493 Z M 415,492 L 416,491 L 423,491 L 424,492 L 423,493 L 416,493 Z M 64,475 L 65,474 L 75,474 L 76,475 L 75,476 L 65,476 Z M 1105,471 L 1106,472 L 1106,513 L 1105,514 L 1104,513 L 1104,472 Z M 394,436 L 396,436 L 397,435 L 398,435 L 399,436 L 400,436 L 403,439 L 403,440 L 404,441 L 404,443 L 403,444 L 403,446 L 401,448 L 400,447 L 399,447 L 398,446 L 397,446 L 396,447 L 394,447 L 393,446 L 393,444 L 392,443 L 392,442 L 394,440 L 392,438 Z" fill="black" fill-rule="evenodd"/>
</svg>