<svg xmlns="http://www.w3.org/2000/svg" width="1448" height="1086" viewBox="0 0 1448 1086">
<rect width="100%" height="100%" fill="white"/>
<path d="M 264,690 L 263,691 L 261,691 L 260,692 L 258,692 L 257,693 L 256,693 L 254,695 L 253,695 L 250,698 L 249,698 L 248,699 L 248,700 L 245,703 L 245,704 L 244,705 L 244,706 L 243,707 L 243,709 L 242,710 L 242,713 L 241,714 L 241,721 L 242,722 L 242,725 L 243,726 L 243,728 L 244,729 L 244,730 L 245,731 L 245,732 L 247,734 L 247,735 L 246,736 L 247,735 L 251,739 L 252,739 L 254,741 L 255,741 L 256,742 L 257,742 L 258,743 L 259,743 L 260,744 L 264,744 L 265,745 L 271,745 L 272,744 L 276,744 L 277,743 L 279,743 L 280,742 L 281,742 L 282,741 L 283,741 L 286,738 L 287,738 L 289,736 L 289,735 L 291,733 L 291,732 L 292,731 L 292,730 L 293,729 L 293,728 L 294,727 L 294,725 L 295,724 L 295,711 L 294,710 L 294,708 L 293,707 L 293,706 L 292,705 L 292,704 L 291,703 L 291,702 L 284,695 L 283,695 L 282,694 L 281,694 L 280,693 L 279,693 L 278,692 L 277,692 L 276,691 L 273,691 L 272,690 Z" fill="black" fill-rule="evenodd"/>
<path d="M 1105,689 L 1104,690 L 1101,690 L 1100,691 L 1098,691 L 1097,692 L 1096,692 L 1095,693 L 1094,693 L 1092,695 L 1091,695 L 1086,700 L 1086,701 L 1084,703 L 1084,704 L 1083,705 L 1083,707 L 1082,708 L 1082,710 L 1081,711 L 1081,723 L 1082,724 L 1082,727 L 1083,728 L 1083,729 L 1084,730 L 1084,731 L 1086,733 L 1086,734 L 1091,739 L 1092,739 L 1095,742 L 1096,742 L 1097,743 L 1099,743 L 1100,744 L 1103,744 L 1104,745 L 1111,745 L 1112,744 L 1116,744 L 1117,743 L 1119,743 L 1120,742 L 1121,742 L 1123,740 L 1124,740 L 1131,733 L 1131,732 L 1133,730 L 1133,729 L 1134,728 L 1134,726 L 1135,725 L 1135,722 L 1136,721 L 1136,713 L 1135,712 L 1135,709 L 1134,708 L 1134,706 L 1133,705 L 1133,704 L 1131,702 L 1131,701 L 1124,694 L 1123,694 L 1121,692 L 1119,692 L 1118,691 L 1117,691 L 1116,690 L 1110,690 L 1109,689 Z" fill="black" fill-rule="evenodd"/>
<path d="M 265,604 L 261,608 L 255,609 L 253,606 L 247,606 L 244,607 L 242,611 L 235,614 L 233,611 L 228,612 L 223,615 L 222,619 L 216,622 L 214,620 L 211,620 L 204,625 L 205,628 L 197,635 L 194,633 L 187,640 L 188,644 L 187,645 L 186,644 L 187,645 L 182,651 L 179,650 L 175,655 L 172,661 L 172,663 L 174,664 L 171,670 L 169,672 L 166,672 L 162,681 L 165,684 L 162,692 L 159,692 L 157,698 L 157,702 L 160,704 L 160,708 L 157,710 L 159,711 L 156,713 L 156,723 L 160,725 L 160,732 L 157,734 L 159,744 L 163,745 L 165,752 L 162,756 L 166,765 L 169,764 L 171,766 L 174,772 L 172,776 L 178,785 L 182,785 L 188,791 L 187,795 L 194,802 L 196,801 L 200,802 L 205,806 L 204,808 L 205,811 L 212,815 L 216,813 L 222,816 L 224,818 L 223,819 L 224,821 L 233,824 L 235,821 L 239,823 L 237,824 L 242,823 L 244,828 L 252,829 L 254,826 L 262,826 L 263,830 L 273,830 L 275,826 L 282,826 L 284,829 L 294,827 L 295,823 L 301,821 L 304,824 L 313,820 L 313,817 L 319,813 L 324,815 L 332,809 L 331,806 L 337,801 L 341,802 L 348,795 L 347,792 L 353,785 L 357,785 L 363,776 L 361,773 L 364,766 L 366,765 L 367,766 L 366,767 L 369,765 L 373,756 L 373,754 L 370,752 L 372,747 L 375,746 L 373,745 L 376,744 L 378,734 L 375,732 L 377,731 L 376,725 L 380,722 L 379,713 L 376,712 L 375,705 L 379,701 L 377,693 L 374,692 L 371,687 L 371,684 L 373,682 L 370,672 L 365,671 L 362,665 L 364,662 L 362,657 L 357,652 L 356,649 L 353,651 L 347,643 L 348,639 L 340,632 L 337,634 L 330,628 L 331,625 L 324,620 L 320,622 L 314,619 L 313,615 L 308,612 L 304,611 L 301,614 L 295,612 L 294,608 L 284,606 L 282,609 L 276,609 L 274,605 Z M 267,682 L 271,682 L 272,683 L 276,683 L 277,684 L 279,684 L 280,685 L 282,685 L 283,686 L 284,686 L 285,687 L 284,688 L 285,687 L 286,687 L 288,689 L 289,689 L 296,696 L 296,697 L 298,699 L 298,700 L 300,702 L 300,704 L 301,705 L 301,707 L 302,708 L 302,710 L 303,711 L 303,724 L 302,725 L 302,728 L 301,729 L 301,730 L 300,731 L 300,733 L 298,735 L 298,736 L 297,737 L 297,738 L 289,746 L 288,746 L 286,748 L 285,748 L 284,749 L 282,749 L 281,750 L 280,750 L 279,751 L 276,751 L 275,752 L 262,752 L 261,751 L 258,751 L 257,750 L 255,750 L 254,749 L 253,749 L 252,748 L 251,748 L 250,747 L 249,747 L 245,743 L 244,743 L 243,742 L 243,741 L 240,738 L 240,737 L 238,735 L 238,734 L 237,733 L 237,732 L 236,731 L 236,729 L 235,728 L 235,726 L 234,725 L 234,710 L 235,709 L 235,707 L 236,706 L 236,704 L 237,703 L 237,702 L 238,701 L 238,700 L 240,698 L 240,697 L 248,689 L 249,689 L 251,687 L 252,687 L 253,688 L 252,687 L 253,686 L 254,686 L 255,685 L 256,685 L 257,684 L 260,684 L 261,683 L 266,683 Z" fill="black" fill-rule="evenodd"/>
<path d="M 1082,605 L 1081,609 L 1075,611 L 1071,608 L 1062,612 L 1061,616 L 1055,619 L 1052,617 L 1049,618 L 1043,623 L 1044,626 L 1037,632 L 1032,631 L 1025,638 L 1026,642 L 1020,650 L 1016,649 L 1009,659 L 1011,663 L 1006,671 L 1003,671 L 999,681 L 1002,683 L 1001,688 L 999,691 L 996,691 L 995,699 L 994,700 L 993,699 L 993,696 L 991,699 L 991,701 L 993,699 L 994,702 L 997,703 L 997,710 L 993,712 L 993,722 L 997,725 L 998,731 L 995,733 L 996,743 L 1001,745 L 1003,752 L 1000,754 L 1002,762 L 1004,765 L 1007,764 L 1008,765 L 1007,767 L 1005,767 L 1008,766 L 1012,772 L 1010,776 L 1017,786 L 1021,785 L 1026,791 L 1025,795 L 1032,802 L 1036,801 L 1044,807 L 1043,810 L 1050,815 L 1056,814 L 1061,817 L 1059,818 L 1061,817 L 1063,818 L 1062,821 L 1072,824 L 1074,821 L 1083,825 L 1082,826 L 1083,828 L 1092,829 L 1094,826 L 1101,827 L 1102,828 L 1101,829 L 1098,829 L 1113,830 L 1115,827 L 1122,826 L 1124,829 L 1133,828 L 1135,823 L 1142,821 L 1144,824 L 1153,821 L 1155,816 L 1161,813 L 1165,815 L 1173,810 L 1172,807 L 1179,801 L 1183,802 L 1190,795 L 1189,791 L 1195,785 L 1198,786 L 1205,776 L 1203,773 L 1206,767 L 1211,765 L 1215,756 L 1213,753 L 1214,749 L 1215,751 L 1214,746 L 1219,743 L 1220,733 L 1217,731 L 1218,725 L 1222,722 L 1222,714 L 1221,712 L 1218,711 L 1218,703 L 1221,700 L 1219,691 L 1215,690 L 1213,684 L 1216,681 L 1214,676 L 1215,673 L 1214,674 L 1212,671 L 1208,670 L 1211,669 L 1209,668 L 1208,670 L 1205,664 L 1207,660 L 1205,656 L 1198,651 L 1199,650 L 1197,646 L 1194,647 L 1190,642 L 1191,641 L 1190,642 L 1189,641 L 1190,638 L 1186,633 L 1182,630 L 1180,632 L 1177,630 L 1178,629 L 1177,630 L 1172,626 L 1173,623 L 1165,617 L 1160,619 L 1154,615 L 1153,611 L 1145,608 L 1142,611 L 1135,609 L 1134,605 L 1124,603 L 1122,606 L 1116,606 L 1113,602 L 1102,602 L 1100,606 L 1093,606 L 1091,603 Z M 1105,681 L 1112,681 L 1113,682 L 1117,682 L 1118,683 L 1120,683 L 1121,684 L 1122,684 L 1123,685 L 1122,686 L 1123,685 L 1124,685 L 1125,686 L 1126,686 L 1127,687 L 1128,687 L 1138,697 L 1138,698 L 1137,699 L 1138,698 L 1140,700 L 1140,701 L 1141,702 L 1141,704 L 1142,705 L 1142,707 L 1143,708 L 1143,712 L 1144,713 L 1144,721 L 1143,722 L 1143,726 L 1142,727 L 1142,729 L 1141,730 L 1141,732 L 1140,733 L 1140,734 L 1138,736 L 1137,735 L 1138,736 L 1138,737 L 1132,743 L 1131,742 L 1132,743 L 1129,746 L 1128,746 L 1126,748 L 1125,748 L 1124,749 L 1123,749 L 1122,750 L 1120,750 L 1119,751 L 1116,751 L 1115,752 L 1101,752 L 1100,751 L 1097,751 L 1096,750 L 1094,750 L 1093,749 L 1092,749 L 1090,747 L 1089,747 L 1087,745 L 1086,745 L 1079,738 L 1079,737 L 1078,736 L 1078,735 L 1076,733 L 1076,731 L 1075,730 L 1075,729 L 1074,728 L 1074,726 L 1073,725 L 1073,720 L 1072,719 L 1072,714 L 1073,713 L 1073,709 L 1074,708 L 1074,706 L 1075,705 L 1075,703 L 1076,702 L 1076,701 L 1077,700 L 1077,699 L 1079,697 L 1079,696 L 1087,688 L 1088,688 L 1090,686 L 1091,686 L 1092,685 L 1093,685 L 1094,684 L 1096,684 L 1097,683 L 1099,683 L 1100,682 L 1104,682 Z" fill="black" fill-rule="evenodd"/>
<path d="M 674,417 L 674,462 L 674,456 L 675,455 L 675,448 L 676,447 L 676,445 L 675,444 L 675,437 L 676,436 L 676,434 L 676,435 L 675,436 L 674,435 Z" fill="black" fill-rule="evenodd"/>
<path d="M 1376,276 L 1360,261 L 1339,255 L 1132,265 L 1053,259 L 977,265 L 695,261 L 678,287 L 678,456 L 684,473 L 674,500 L 680,510 L 679,591 L 672,590 L 672,350 L 666,327 L 643,311 L 606,304 L 543,305 L 478,317 L 436,341 L 435,348 L 446,353 L 423,431 L 409,448 L 177,469 L 149,458 L 128,473 L 117,494 L 117,535 L 123,543 L 99,535 L 86,557 L 92,580 L 117,588 L 117,648 L 123,641 L 127,646 L 115,660 L 64,660 L 63,695 L 123,696 L 125,685 L 151,678 L 168,643 L 197,614 L 234,596 L 273,591 L 321,602 L 358,628 L 386,670 L 402,720 L 440,721 L 445,713 L 646,713 L 649,700 L 632,697 L 633,666 L 714,666 L 717,694 L 829,694 L 832,685 L 833,691 L 834,685 L 900,685 L 987,715 L 988,696 L 925,678 L 923,672 L 957,675 L 964,668 L 986,667 L 1038,602 L 1073,584 L 1118,579 L 1180,603 L 1231,667 L 1316,664 L 1314,701 L 1331,708 L 1340,697 L 1336,665 L 1346,662 L 1346,623 L 1385,621 L 1384,510 L 1393,506 L 1393,496 L 1382,476 L 1383,308 Z M 1323,689 L 1324,689 L 1325,690 L 1328,690 L 1329,689 L 1330,689 L 1331,690 L 1330,691 L 1331,690 L 1332,691 L 1332,692 L 1333,693 L 1333,697 L 1332,698 L 1332,699 L 1331,700 L 1330,699 L 1329,699 L 1330,699 L 1331,700 L 1330,701 L 1329,701 L 1328,702 L 1325,702 L 1324,701 L 1323,701 L 1321,699 L 1321,698 L 1320,697 L 1320,693 L 1321,692 L 1321,691 Z M 421,656 L 422,655 L 424,655 L 424,654 L 425,653 L 426,654 L 426,655 L 427,656 L 427,657 L 425,659 L 425,660 L 426,661 L 428,659 L 429,660 L 429,661 L 430,662 L 430,663 L 431,664 L 431,665 L 432,666 L 488,666 L 489,667 L 489,697 L 488,698 L 439,698 L 438,697 L 438,696 L 437,695 L 437,693 L 436,692 L 436,691 L 435,690 L 435,688 L 434,687 L 434,686 L 433,685 L 433,683 L 432,682 L 432,680 L 431,679 L 431,678 L 430,677 L 430,676 L 429,675 L 429,673 L 428,672 L 428,671 L 427,670 L 427,669 L 426,668 L 426,666 L 425,665 L 425,664 L 424,663 L 424,662 L 423,661 L 423,660 L 422,659 L 422,658 L 421,657 Z M 422,647 L 423,648 L 423,649 L 424,650 L 424,651 L 423,652 L 423,653 L 422,654 L 422,655 L 421,656 L 420,655 L 420,654 L 419,653 L 419,652 L 418,651 L 418,650 L 419,649 L 420,650 L 421,649 L 421,648 Z M 415,638 L 416,639 L 417,638 L 418,639 L 418,640 L 420,642 L 420,643 L 421,644 L 421,645 L 422,646 L 422,647 L 421,648 L 420,648 L 418,650 L 417,649 L 417,648 L 415,646 L 415,645 L 414,644 L 414,643 L 413,642 L 413,641 L 414,640 L 414,639 Z M 123,641 L 123,639 L 129,629 L 130,631 L 129,628 L 132,624 L 133,625 L 132,623 L 136,617 L 139,616 L 138,615 L 147,603 L 152,598 L 153,599 L 152,598 L 166,585 L 180,575 L 205,562 L 216,558 L 241,552 L 259,551 L 260,550 L 290,551 L 301,554 L 306,554 L 334,563 L 352,572 L 370,584 L 373,587 L 372,588 L 374,587 L 376,589 L 375,590 L 376,589 L 388,600 L 387,601 L 396,608 L 403,617 L 402,618 L 403,617 L 408,623 L 407,625 L 408,624 L 410,626 L 408,630 L 410,627 L 417,637 L 413,641 L 401,623 L 392,612 L 373,593 L 350,577 L 329,567 L 302,559 L 290,558 L 289,557 L 280,557 L 279,556 L 258,556 L 257,557 L 241,558 L 224,562 L 202,570 L 184,580 L 165,594 L 150,609 L 142,619 L 134,631 L 132,636 L 130,638 L 128,635 L 130,638 L 127,644 L 125,640 L 124,642 Z M 686,496 L 687,496 L 688,497 L 688,498 L 692,498 L 691,497 L 692,496 L 693,496 L 695,498 L 695,499 L 696,500 L 696,503 L 695,504 L 695,505 L 694,506 L 694,507 L 693,508 L 692,507 L 692,501 L 691,500 L 688,500 L 687,501 L 687,502 L 686,503 L 686,504 L 685,505 L 683,503 L 683,500 L 684,499 L 685,500 L 685,501 L 685,500 L 684,499 L 684,498 Z M 1371,499 L 1373,497 L 1374,498 L 1375,498 L 1376,497 L 1378,497 L 1375,497 L 1374,496 L 1375,495 L 1379,495 L 1383,499 L 1383,505 L 1382,506 L 1381,505 L 1381,501 L 1380,500 L 1379,500 L 1378,499 L 1377,499 L 1376,500 L 1375,500 L 1374,501 L 1374,502 L 1373,503 L 1373,504 L 1372,505 L 1371,504 Z M 1223,504 L 1223,499 L 1225,497 L 1226,498 L 1228,498 L 1229,497 L 1231,497 L 1232,498 L 1233,498 L 1232,497 L 1227,497 L 1226,496 L 1227,495 L 1233,495 L 1234,496 L 1235,496 L 1237,498 L 1237,499 L 1238,500 L 1238,501 L 1239,502 L 1239,503 L 1242,503 L 1243,504 L 1256,504 L 1257,505 L 1284,505 L 1285,506 L 1291,506 L 1292,505 L 1316,505 L 1317,504 L 1328,504 L 1329,503 L 1333,503 L 1334,502 L 1334,500 L 1338,496 L 1339,496 L 1340,497 L 1337,500 L 1339,498 L 1340,498 L 1341,499 L 1338,502 L 1338,503 L 1337,504 L 1337,505 L 1338,506 L 1338,508 L 1339,509 L 1338,510 L 1235,510 L 1234,509 L 1234,508 L 1235,507 L 1235,503 L 1232,500 L 1231,500 L 1230,499 L 1229,500 L 1228,500 L 1226,503 L 1226,506 L 1225,507 Z M 1193,495 L 1200,495 L 1203,498 L 1203,499 L 1204,500 L 1204,503 L 1203,504 L 1203,506 L 1201,508 L 1200,507 L 1200,502 L 1201,501 L 1201,500 L 1201,501 L 1200,502 L 1199,501 L 1199,500 L 1198,499 L 1199,498 L 1199,497 L 1193,497 L 1192,496 Z M 1037,502 L 1036,503 L 1036,505 L 1035,506 L 1035,507 L 1033,509 L 1032,508 L 1032,507 L 1033,506 L 1033,503 L 1034,502 L 1034,501 L 1034,502 L 1033,503 L 1032,502 L 1032,501 L 1030,499 L 1028,499 L 1027,500 L 1026,500 L 1024,502 L 1024,508 L 1025,509 L 1024,510 L 900,510 L 899,509 L 900,508 L 900,502 L 898,500 L 897,500 L 896,499 L 897,498 L 898,498 L 898,497 L 899,496 L 900,496 L 904,500 L 904,503 L 905,503 L 906,504 L 918,504 L 919,505 L 935,505 L 936,506 L 988,506 L 989,505 L 1005,505 L 1006,504 L 1017,504 L 1020,502 L 1020,500 L 1022,498 L 1023,499 L 1023,500 L 1023,499 L 1022,498 L 1025,495 L 1032,495 L 1033,496 L 1032,497 L 1026,497 L 1026,498 L 1027,497 L 1031,497 L 1032,498 L 1033,498 L 1032,497 L 1033,496 L 1034,496 L 1036,498 L 1036,500 L 1037,501 Z M 898,495 L 899,496 L 898,497 L 893,497 L 893,498 L 894,497 L 896,497 L 897,498 L 896,499 L 895,499 L 894,500 L 893,500 L 892,501 L 892,507 L 891,508 L 889,506 L 889,505 L 888,504 L 888,499 L 889,498 L 889,497 L 890,496 L 891,496 L 892,495 Z M 715,503 L 715,499 L 719,495 L 726,495 L 727,496 L 728,496 L 730,498 L 730,499 L 731,500 L 731,502 L 732,503 L 734,503 L 735,504 L 745,504 L 746,505 L 763,505 L 764,506 L 818,506 L 819,505 L 837,505 L 838,504 L 851,504 L 851,502 L 852,501 L 852,500 L 856,496 L 857,496 L 858,495 L 865,495 L 866,496 L 867,496 L 869,498 L 869,500 L 870,501 L 869,502 L 869,506 L 866,509 L 865,509 L 864,508 L 865,507 L 865,501 L 864,500 L 863,500 L 862,499 L 860,499 L 859,498 L 860,497 L 863,497 L 864,498 L 864,497 L 859,497 L 858,498 L 859,498 L 860,499 L 859,500 L 858,500 L 856,502 L 856,503 L 855,504 L 855,506 L 857,509 L 856,510 L 727,510 L 726,509 L 728,506 L 728,504 L 727,503 L 727,502 L 725,500 L 724,500 L 723,499 L 720,500 L 720,501 L 719,502 L 719,503 L 720,504 L 720,508 L 719,509 L 716,506 L 716,504 Z M 1340,495 L 1342,495 L 1343,494 L 1344,494 L 1345,495 L 1347,495 L 1348,496 L 1349,496 L 1351,498 L 1351,505 L 1350,506 L 1349,505 L 1349,499 L 1348,498 L 1349,499 L 1348,500 L 1349,501 L 1349,505 L 1350,506 L 1350,507 L 1348,509 L 1347,508 L 1347,502 L 1346,501 L 1346,500 L 1345,499 L 1341,499 L 1340,498 L 1341,497 L 1346,497 L 1340,497 L 1339,496 Z M 1055,505 L 1055,499 L 1056,498 L 1056,497 L 1057,496 L 1058,496 L 1061,494 L 1063,494 L 1064,495 L 1066,495 L 1068,497 L 1069,497 L 1071,500 L 1071,503 L 1072,503 L 1073,504 L 1086,504 L 1087,505 L 1105,505 L 1106,506 L 1152,506 L 1153,505 L 1170,505 L 1171,504 L 1183,504 L 1184,503 L 1186,503 L 1186,502 L 1188,499 L 1189,500 L 1190,500 L 1191,499 L 1192,500 L 1192,501 L 1190,504 L 1190,506 L 1191,507 L 1191,509 L 1190,510 L 1067,510 L 1066,509 L 1068,506 L 1068,505 L 1067,504 L 1067,502 L 1065,500 L 1063,500 L 1062,499 L 1059,501 L 1059,507 L 1060,508 L 1059,509 L 1058,509 L 1056,507 L 1056,506 Z M 1361,456 L 1363,456 L 1364,457 L 1363,458 L 1364,459 L 1365,458 L 1367,460 L 1367,461 L 1368,462 L 1368,482 L 1369,483 L 1369,495 L 1368,496 L 1368,497 L 1367,498 L 1367,506 L 1368,507 L 1368,508 L 1369,509 L 1368,510 L 1367,510 L 1367,511 L 1366,512 L 1366,567 L 1365,568 L 1357,568 L 1356,567 L 1356,511 L 1355,510 L 1354,510 L 1353,509 L 1354,508 L 1354,507 L 1355,506 L 1355,499 L 1354,498 L 1354,497 L 1353,496 L 1353,495 L 1352,494 L 1353,493 L 1353,488 L 1354,487 L 1354,482 L 1355,481 L 1355,464 L 1356,463 L 1356,462 L 1357,461 L 1357,460 L 1359,458 L 1360,459 L 1359,458 Z M 1210,456 L 1217,456 L 1220,459 L 1220,485 L 1221,486 L 1221,492 L 1222,493 L 1222,495 L 1221,496 L 1221,497 L 1220,498 L 1220,500 L 1219,501 L 1219,504 L 1220,505 L 1220,506 L 1221,507 L 1221,508 L 1222,509 L 1221,510 L 1219,510 L 1218,511 L 1218,567 L 1217,568 L 1209,568 L 1208,567 L 1208,511 L 1206,509 L 1206,508 L 1207,507 L 1207,505 L 1208,504 L 1208,500 L 1207,499 L 1207,498 L 1206,497 L 1206,496 L 1205,495 L 1206,494 L 1205,493 L 1205,490 L 1206,489 L 1206,483 L 1207,482 L 1207,465 L 1206,464 L 1206,462 L 1207,461 L 1207,459 L 1208,458 L 1209,459 L 1209,460 L 1210,459 L 1210,458 L 1209,457 Z M 878,456 L 882,456 L 884,458 L 884,459 L 885,460 L 885,488 L 886,489 L 886,493 L 887,494 L 887,495 L 886,496 L 886,497 L 885,498 L 885,506 L 886,507 L 886,508 L 887,509 L 886,510 L 885,510 L 884,511 L 884,512 L 883,513 L 883,514 L 884,515 L 884,563 L 883,564 L 883,566 L 884,567 L 883,568 L 874,568 L 873,567 L 873,510 L 872,510 L 871,509 L 872,508 L 872,507 L 873,506 L 873,499 L 872,498 L 872,497 L 871,496 L 871,492 L 872,491 L 872,488 L 873,487 L 873,476 L 874,475 L 874,460 Z M 1046,455 L 1047,455 L 1048,456 L 1050,456 L 1052,458 L 1052,487 L 1053,488 L 1053,493 L 1054,494 L 1054,495 L 1052,497 L 1052,499 L 1051,500 L 1051,505 L 1052,506 L 1052,507 L 1053,508 L 1053,509 L 1050,512 L 1050,517 L 1051,518 L 1051,547 L 1050,548 L 1050,553 L 1051,554 L 1051,563 L 1050,564 L 1050,566 L 1051,567 L 1050,568 L 1042,568 L 1041,567 L 1041,512 L 1040,511 L 1040,510 L 1039,510 L 1038,509 L 1040,507 L 1040,505 L 1041,504 L 1041,500 L 1040,499 L 1040,498 L 1039,497 L 1039,496 L 1038,495 L 1038,491 L 1039,490 L 1039,483 L 1040,482 L 1040,460 L 1041,459 L 1042,460 L 1042,461 L 1042,460 L 1043,459 L 1043,458 L 1042,457 L 1043,456 L 1045,456 Z M 708,455 L 709,456 L 711,456 L 713,458 L 713,487 L 714,488 L 714,493 L 715,494 L 714,495 L 714,496 L 713,497 L 713,498 L 712,499 L 712,506 L 713,507 L 713,508 L 714,509 L 713,510 L 712,510 L 711,511 L 711,565 L 710,566 L 709,566 L 710,566 L 711,567 L 710,568 L 701,568 L 700,567 L 700,511 L 698,509 L 698,508 L 700,506 L 700,497 L 699,496 L 699,495 L 698,494 L 698,476 L 699,475 L 699,460 L 701,458 L 702,459 L 703,459 L 702,459 L 701,458 L 702,457 L 703,457 L 704,456 L 707,456 Z M 489,361 L 492,358 L 494,359 L 492,358 L 495,356 L 601,356 L 602,357 L 604,357 L 606,359 L 605,360 L 607,359 L 609,361 L 608,363 L 609,362 L 611,365 L 611,367 L 612,368 L 612,447 L 611,449 L 607,453 L 605,453 L 604,454 L 597,454 L 596,453 L 588,453 L 587,454 L 575,454 L 574,453 L 529,453 L 528,454 L 526,454 L 525,453 L 523,454 L 522,453 L 508,453 L 507,454 L 501,454 L 500,453 L 490,453 L 489,454 L 485,454 L 484,453 L 472,453 L 470,452 L 466,447 L 466,441 L 468,437 L 468,434 L 470,430 L 470,427 L 472,423 L 472,420 L 474,416 L 474,413 L 476,409 L 476,406 L 477,405 L 477,403 L 478,402 L 478,399 L 480,395 L 480,392 L 482,388 L 482,385 L 483,384 L 483,381 L 484,380 L 484,378 L 485,377 L 485,374 L 487,370 L 487,367 L 489,363 L 490,365 L 489,363 Z M 468,356 L 470,358 L 470,364 L 469,365 L 469,368 L 468,369 L 468,371 L 467,372 L 467,375 L 466,376 L 466,379 L 465,380 L 465,382 L 464,383 L 464,386 L 463,387 L 463,389 L 462,390 L 462,393 L 461,394 L 461,396 L 460,397 L 460,399 L 459,400 L 459,403 L 458,404 L 458,407 L 457,408 L 457,410 L 456,411 L 456,413 L 455,414 L 455,417 L 454,418 L 454,420 L 453,421 L 453,424 L 452,425 L 452,427 L 451,428 L 451,431 L 450,432 L 450,434 L 449,435 L 449,438 L 448,439 L 448,440 L 447,441 L 446,440 L 446,439 L 445,440 L 445,441 L 444,442 L 443,442 L 441,440 L 440,440 L 439,439 L 438,439 L 436,437 L 437,436 L 437,435 L 437,436 L 436,437 L 434,435 L 434,432 L 435,431 L 435,428 L 436,427 L 436,424 L 437,423 L 437,421 L 438,420 L 438,418 L 439,417 L 439,414 L 440,413 L 440,411 L 441,410 L 441,407 L 442,406 L 442,404 L 443,403 L 443,400 L 444,399 L 444,397 L 445,396 L 445,394 L 446,393 L 446,390 L 447,389 L 447,387 L 448,386 L 448,383 L 449,382 L 449,380 L 450,379 L 450,376 L 451,375 L 451,373 L 452,372 L 452,369 L 453,368 L 453,366 L 454,365 L 454,363 L 455,362 L 455,360 L 456,359 L 456,358 L 457,357 L 460,357 L 461,356 Z" fill="black" fill-rule="evenodd"/>
</svg>