<?xml version="1.0" encoding="UTF-8" standalone="no"?>
<svg
   width="550"
   height="250"
   viewBox="0 0 550 250"
   version="1.1"
   id="svg6"
   sodipodi:docname="bedford_oyd_transport_black.svg"
   inkscape:version="1.4.2 (f4327f4, 2025-05-13)"
   xmlns:inkscape="http://www.inkscape.org/namespaces/inkscape"
   xmlns:sodipodi="http://sodipodi.sourceforge.net/DTD/sodipodi-0.dtd"
   xmlns="http://www.w3.org/2000/svg"
   xmlns:svg="http://www.w3.org/2000/svg">
  <defs
     id="defs6" />
  <sodipodi:namedview
     id="namedview6"
     pagecolor="#ffffff"
     bordercolor="#000000"
     borderopacity="0.25"
     inkscape:showpageshadow="2"
     inkscape:pageopacity="0.0"
     inkscape:pagecheckerboard="0"
     inkscape:deskcolor="#d1d1d1"
     inkscape:zoom="1.0819521"
     inkscape:cx="322.56511"
     inkscape:cy="194.55574"
     inkscape:window-width="2560"
     inkscape:window-height="1377"
     inkscape:window-x="-8"
     inkscape:window-y="-8"
     inkscape:window-maximized="1"
     inkscape:current-layer="svg6" />
  <path
     d="m 89.51231,190.06628 -0.398608,0.39861 h -0.797194 l -0.398608,0.39859 h -0.797215 l -0.398587,0.39861 h -0.398607 l -0.797205,0.7972 h -0.398597 l -1.195813,1.19582 h -0.398608 l -0.398597,0.3986 v 0.39859 l -1.195812,1.19582 v 0.3986 l -0.398608,0.3986 v 0.3986 l -0.398587,0.39861 v 0.79721 l -0.398607,0.39859 v 1.19581 l -0.398608,0.39861 v 2.79021 l 0.398608,0.39861 v 1.1958 l 0.398607,0.39861 v 0.7972 l 0.398587,0.3986 v 0.3986 l 0.398608,0.3986 v 0.39861 l 0.797215,0.7972 v 0.3986 l -0.398608,0.39861 0.398608,-0.39861 1.594399,1.59441 h 0.398608 l 0.797205,0.79721 h 0.398597 l 0.398608,0.39861 h 0.398607 l 0.398587,0.3986 h 0.398608 l 0.398607,0.39859 h 1.59441 l 0.398597,0.39861 h 2.391625 l 0.398608,-0.39861 h 1.594399 l 0.398608,-0.39859 h 0.797194 l 0.398608,-0.3986 h 0.398608 l 0.398607,-0.39861 h 0.398587 l 1.195823,-1.1958 h 0.398597 l 0.797205,-0.79721 v -0.39861 l 0.797204,-0.79719 v -0.39861 l 0.39861,-0.39861 v -0.3986 l 0.39859,-0.3986 v -0.3986 l 0.3986,-0.39861 v -0.7972 l 0.39861,-0.39861 v -5.18182 l -0.39861,-0.39861 v -0.7972 l -0.3986,-0.3986 v -0.39861 l -0.39859,-0.3986 v -0.3986 l -0.39861,-0.3986 v -0.39861 l -2.790221,-2.79022 h -0.398608 l -0.398587,-0.39859 h -0.398607 l -0.398608,-0.39861 h -0.398608 l -0.398597,-0.39861 h -0.398597 l -0.398608,-0.39859 h -1.195812 l -0.398587,-0.39861 z"
     fill="#000000"
     fill-rule="evenodd"
     id="path1"
     style="stroke-width:0.398602" />
  <path
     d="m 424.73707,189.66768 -0.3986,0.3986 h -1.19581 l -0.3986,0.39861 h -0.79721 l -0.39859,0.39859 h -0.39861 l -0.3986,0.39861 h -0.39861 l -0.7972,0.7972 h -0.3986 l -1.99301,1.99301 v 0.39861 l -0.79722,0.79721 v 0.3986 l -0.39859,0.3986 v 0.79721 l -0.3986,0.3986 v 0.7972 l -0.39861,0.39861 v 4.78323 l 0.39861,0.39859 v 1.19581 l 0.3986,0.39861 v 0.3986 l 0.39859,0.3986 v 0.3986 l 0.79722,0.79722 v 0.39859 l 1.99301,1.99301 h 0.3986 l 1.19581,1.19582 h 0.3986 l 0.39861,0.3986 h 0.79719 l 0.39861,0.39859 h 1.1958 l 0.39861,0.39861 h 2.79022 l 0.39859,-0.39861 h 1.59442 l 0.3986,-0.39859 h 0.7972 l 0.39861,-0.3986 h 0.39861 l 0.79719,-0.79721 h 0.39861 l 2.79022,-2.79021 v -0.39861 l 0.7972,-0.79721 v -0.3986 l 0.39861,-0.3986 v -0.7972 l 0.3986,-0.39861 v -1.1958 l 0.3986,-0.39861 v -3.18882 l -0.3986,-0.3986 v -1.1958 l -0.3986,-0.39861 v -0.79721 l -0.39861,-0.3986 v -0.3986 l -0.7972,-0.79721 v -0.3986 l -2.79022,-2.79021 h -0.39861 l -0.79719,-0.79722 h -0.79722 l -0.39859,-0.39859 h -0.39861 l -0.3986,-0.39861 h -2.39161 l -0.39861,-0.3986 z"
     fill="#000000"
     fill-rule="evenodd"
     id="path2"
     style="stroke-width:0.398602" />
  <path
     d="m 89.910907,155.78646 -1.594399,1.59441 -2.391625,0.39861 -0.797194,-1.19582 h -2.391615 l -1.195823,0.3986 -0.797194,1.59441 -2.790223,1.19582 -0.797194,-1.19582 -1.993017,0.39861 -1.993018,1.19581 -0.398597,1.59441 -2.391625,1.1958 -0.797205,-0.79719 h -1.195802 l -2.790222,1.99301 0.398607,1.19581 -3.18883,2.79022 -1.195812,-0.79722 -2.790209,2.79022 0.398605,1.59442 -0.398605,0.39859 -0.398604,-0.39859 0.398604,0.39859 -1.993013,2.39162 -1.195815,-0.39861 -1.594407,1.99302 -1.195803,2.39161 v 0.79722 l 0.797209,0.3986 -1.195815,2.39161 -0.797204,0.79721 h -1.195807 l -1.594411,3.58741 1.195807,1.19582 -1.195807,3.18881 h -1.195806 l -0.797206,2.39163 v 1.5944 l 1.195807,0.79721 v 1.59441 l -1.195807,0.7972 0.797206,0.39861 -1.195808,0.7972 v 3.98603 l 1.594409,0.7972 v 2.79022 l -1.195807,0.7972 0.797206,3.98602 1.594409,0.39861 0.797204,2.79022 -1.195807,1.59441 1.594411,3.58742 1.195807,-0.3986 0.797204,0.7972 1.195815,2.39163 -0.797209,1.5944 2.391617,3.58743 h 1.594408 l 2.391618,2.39161 -0.398605,1.59441 2.790209,2.79022 0.797215,-0.39861 1.59441,0.39861 1.993017,1.59441 -0.398607,0.7972 0.398607,1.19581 2.790223,1.59441 1.594399,-0.79721 2.391625,1.19582 0.797194,0.79719 -0.398597,0.39861 0.398597,0.79721 3.587438,1.19581 0.797194,-1.19581 1.59441,0.7972 -0.797205,0.39861 1.993018,-0.39861 0.797194,1.99302 3.18883,0.39859 0.797205,-1.1958 h 3.188819 l 0.398597,1.59441 h 3.986025 l 0.797215,-1.59441 h 2.790222 l 0.797195,1.1958 3.986021,-0.79719 0.39861,-1.59442 2.39162,-0.7972 1.1958,1.19581 3.58743,-1.59441 v -1.19581 l 2.39161,-1.59442 1.99302,0.79721 3.18882,-2.39162 -0.3986,-1.1958 2.39161,-1.99302 1.59442,0.39861 2.79021,-2.79022 -0.39861,-1.1958 2.39162,-2.79022 h 1.59441 l 2.39162,-3.58743 -0.7972,-1.1958 1.1958,-2.79023 0.79721,-0.3986 0.39859,0.3986 -0.39859,0.39861 1.19581,-0.79721 1.59441,-3.58742 v -0.79721 l -1.19581,-0.7972 0.7972,-1.99301 1.19581,-0.3986 -0.7972,-0.39861 1.19581,-0.39861 0.79719,-3.98602 -1.1958,-0.7972 0.79721,-0.39861 -0.3986,-2.39161 1.59441,-1.1958 -0.39861,-3.58743 -1.1958,-0.3986 -0.39861,-2.79022 1.59441,-1.59441 -0.7972,-3.18882 -1.19582,-0.39861 -1.1958,-1.993 v -1.19581 l 0.79721,-0.79721 -1.19581,-3.98602 -1.99301,-0.39861 -1.19582,-2.39162 0.79721,-1.1958 -0.79721,-1.99302 -1.99301,-1.993 -0.39859,-1.19581 -1.19582,0.7972 -2.39162,-3.18882 0.39861,-1.59441 -3.18882,-2.79022 -1.19581,0.79721 -2.79021,-2.39161 0.3986,-1.19581 -2.79022,-1.99301 -1.59441,0.79719 -2.39161,-1.1958 -0.39861,-1.59441 -1.99302,-1.19581 -1.59441,-0.39861 -1.1958,1.19582 -2.39162,-0.79721 -0.39861,-1.59441 -3.986021,-0.79721 -0.797195,1.19582 h -2.391625 l -0.797205,-1.59441 z m 0.797216,31.091 h 1.594409 l 0.398608,0.39861 h 1.594399 l 0.398608,0.3986 h 0.797194 l 0.398608,0.39859 h 0.797215 l 0.398587,0.39861 h 0.398608 l 0.398607,0.39861 -0.398607,0.39859 0.398607,-0.39859 h 0.398608 l 0.797194,0.7972 h 0.398608 l 2.790224,2.79021 v 0.39861 l 0.79719,0.79721 v 0.39859 l 0.79722,0.79721 v 0.79721 l 0.3986,0.3986 v 0.79721 l 0.3986,0.3986 v 0.7972 l 0.3986,0.39861 v 5.18182 l -0.3986,0.39861 v 1.19581 l -0.3986,0.3986 v 0.3986 l -0.3986,0.3986 v 0.79722 l -0.79722,0.79719 v 0.39861 l -0.39859,0.3986 v 0.39861 l -3.188824,3.18882 h -0.398608 l -0.797194,0.7972 h -0.398608 l -0.398607,0.3986 h -0.797195 l -0.398607,0.39861 h -0.398608 l -0.398608,0.39859 h -1.195802 l -0.398597,0.39861 h -5.181837 l -0.398597,-0.39861 h -1.195823 l -0.398587,-0.39859 h -0.797215 l -0.398597,-0.39861 h -0.398597 l -0.398608,-0.3986 h -0.398608 l -0.398597,-0.3986 h -0.398608 l -1.594409,-1.59441 h -0.398608 l -0.398587,-0.3986 v -0.39861 l -1.195812,-1.1958 v -0.39861 l -0.797205,-0.79721 v -0.3986 l -0.398608,-0.39859 v -0.39861 l -0.398597,-0.39861 v -0.7972 l -0.398608,-0.3986 v -0.7972 l -0.398608,-0.39861 v -5.97904 l 0.398608,-0.39859 v -0.79721 l 0.398608,-0.39861 v -0.7972 l 0.398597,-0.3986 v -0.39861 l 0.398608,-0.3986 v -0.39861 l 0.797205,-0.79719 v -0.39861 l 3.188819,-3.18882 h 0.398597 l 0.797205,-0.7972 h 0.398608 l 0.398608,0.39859 -0.398608,-0.39859 0.398608,-0.39861 h 0.398597 l 0.398597,-0.39861 h 0.398608 l 0.398607,-0.39859 H 87.9179 l 0.398608,-0.3986 h 1.993007 z"
     fill="#000000"
     fill-rule="evenodd"
     id="path3"
     style="stroke-width:0.398602" />
  <path
     d="m 415.56922,156.18507 -0.39861,1.59441 -2.39161,0.79719 -1.59441,-1.1958 -3.58742,1.59441 -0.39861,1.59441 -2.39161,1.19581 -1.19581,-0.7972 -1.19582,0.39859 -2.39161,1.99302 0.39861,1.1958 -2.79022,2.39162 -1.99301,-0.3986 -2.79023,2.79022 0.39861,1.59441 -2.39162,3.18881 -1.5944,-0.39859 -2.79022,3.98603 0.7972,1.59441 -1.99302,3.18881 h -1.1958 l -1.59442,3.98602 1.19582,0.79722 -0.3986,1.993 -0.79722,1.19582 h -1.1958 l -0.3986,3.18882 -0.39861,0.39859 -0.39859,-0.39859 v -1.19582 l -0.79721,1.19582 v 0.7972 l 0.79721,-0.7972 0.39859,1.1958 1.19582,0.39861 v 2.79021 l -1.59441,0.79721 v 3.98603 l 1.59441,1.1958 0.3986,2.39161 -1.19581,0.79722 0.3986,3.98602 1.99302,0.7972 0.7972,2.79022 -1.19581,0.7972 0.79721,3.18882 0.7972,1.19581 1.19581,-0.3986 0.39861,0.3986 -0.39861,0.79721 h -0.7972 l 1.19581,-0.39861 1.59441,2.39163 -0.79722,1.5944 2.79023,3.98603 1.5944,-0.3986 1.99302,2.39161 -0.39861,1.59441 2.79023,2.79022 1.59441,-0.39861 3.18882,2.39163 -0.39861,1.1958 2.79022,1.99301 2.39162,-0.3986 1.99301,1.19581 -0.79721,0.39859 0.79721,-0.39859 0.7972,0.39859 -0.39859,1.19582 3.98602,1.19581 0.7972,-1.19581 3.58743,1.5944 -0.3986,0.39861 0.3986,0.79721 3.58742,0.39859 0.7972,-1.1958 2.79022,0.39861 0.39861,0.3986 -0.39861,0.39859 h -1.19581 l 5.97904,0.39861 0.7972,-1.1958 2.79022,-0.39861 0.79721,1.1958 3.58742,-0.39859 0.79721,-1.99302 2.79021,-0.7972 0.79721,1.19581 3.58743,-1.19581 0.7972,-1.99301 2.39162,-1.19582 1.59441,0.79721 3.18882,-1.99301 -0.39861,-1.1958 2.79022,-2.39163 1.59441,0.39861 2.79022,-2.79022 -0.39861,-1.59441 2.39163,-2.39161 1.1958,0.3986 2.79022,-3.98603 -0.79721,-1.1958 1.1958,-2.39162 1.99302,-0.79721 1.59442,-3.58742 -0.79721,-1.1958 0.3986,-1.59442 0.39861,0.7972 -0.39861,-1.993 1.99302,-1.19581 0.39861,-3.98602 -1.19583,-0.79722 0.39861,-2.39161 1.59441,-1.1958 v -3.18882 l -0.39861,-0.79721 -1.1958,-0.3986 v -3.18882 l 1.1958,-1.19582 -0.79719,-3.58741 -1.59441,-0.39861 -0.79721,-2.39161 1.19581,-1.19582 -0.79721,-1.99301 0.39861,-1.1958 -0.39861,0.3986 -0.7972,-1.19581 -1.59441,-0.3986 1.1958,-0.3986 -0.7972,-0.3986 -0.3986,0.7972 -1.19581,-2.39161 0.7972,-1.59442 -0.7972,-1.5944 -2.79022,-1.99302 0.39861,-0.39861 -0.79722,-1.59441 -1.1958,0.39861 -1.59441,-1.99301 0.3986,-0.39861 -0.3986,0.39861 -0.39861,-0.39861 0.39861,-1.1958 -1.59442,-1.99302 -1.59441,-1.1958 -0.79719,0.7972 -1.19582,-0.7972 0.3986,-0.3986 -0.3986,0.3986 -1.99301,-1.59442 0.39861,-1.1958 -3.18882,-2.39161 -1.99301,0.7972 -2.39163,-1.59441 -0.39859,-1.59442 -3.18882,-1.1958 -1.19582,1.1958 -2.79021,-0.79719 -0.3986,-1.59441 -3.98603,-0.79721 -0.79721,1.1958 h -2.39161 l -1.19581,-1.59441 h -4.38462 l -0.79721,1.59441 h -2.79022 l -0.7972,-1.1958 z m 9.16785,30.29378 h 2.79021 l 0.39861,0.39861 h 1.59441 l 0.39861,0.39861 h 0.7972 l 0.39861,0.3986 h 0.39859 l 0.3986,0.39859 -0.3986,0.39861 0.3986,-0.39861 h 0.39861 l 0.39861,0.39861 h 0.3986 l 0.39859,0.39861 h 0.39861 l 3.98602,3.98602 v 0.39861 l -0.3986,0.3986 0.3986,-0.3986 0.79721,0.79719 v 0.39861 l 0.39861,0.3986 v 0.79721 l 0.39859,0.3986 v 0.79721 l 0.3986,0.3986 v 1.59441 l 0.39861,0.3986 v 3.18882 l -0.39861,0.39861 v 1.59441 l -0.3986,0.39859 v 0.79721 l -0.39859,0.3986 v 0.79721 l -0.39861,0.39861 v 0.39859 l -0.79721,0.79721 -0.3986,-0.39861 0.3986,0.39861 v 0.3986 l -2.39161,2.39162 -0.3986,-0.3986 0.3986,0.3986 -1.19581,1.19581 h -0.3986 l -0.7972,0.7972 h -0.3986 l -0.39861,0.3986 h -0.39861 l -0.3986,0.39861 h -0.7972 l -0.39861,0.39859 h -1.1958 l -0.39861,0.39861 h -5.58043 l -0.3986,-0.39861 h -1.1958 l -0.39861,-0.39859 h -0.79721 l -0.3986,-0.39861 h -0.3986 l -0.7972,-0.7972 h -0.39861 l -0.7972,-0.79721 h -0.3986 l -2.79022,-2.79021 v -0.39861 l -0.39861,-0.3986 v -0.39861 l -0.7972,-0.79719 v -0.79722 l -0.3986,-0.3986 v -0.3986 l -0.39861,-0.3986 v -0.7972 l -0.39861,-0.39861 v -1.99302 l -0.39859,-0.3986 v -1.993 l 0.39859,-0.39861 v -1.5944 l 0.39861,-0.39861 v -0.79721 l 0.39861,-0.3986 v -0.7972 l 0.3986,-0.39861 v -0.3986 l 0.3986,-0.39861 v -0.39859 l 0.79721,-0.79721 v -0.39861 l 3.18882,-3.18882 h 0.39859 l 0.79722,-0.7972 h 0.3986 l 0.3986,-0.39861 h 0.3986 l 0.3986,-0.39859 h 0.79721 l 0.39861,-0.3986 h 0.79719 l 0.39861,-0.39861 h 1.59441 z"
     fill="#000000"
     fill-rule="evenodd"
     id="path4"
     style="stroke-width:0.398602" />
  <path
     d="m 252.93936,81.247785 v 17.937119 -2.391615 l 0.39861,-0.398608 v -2.790222 l 0.3986,-0.398597 v -0.797205 l -0.3986,-0.398608 v -2.790212 l 0.3986,-0.398608 v -0.797205 0.398597 l -0.3986,0.398608 -0.39861,-0.398608 z"
     fill="#000000"
     fill-rule="evenodd"
     id="path5"
     style="stroke-width:0.398602" />
  <path
     d="m 532.75836,25.044817 -6.37763,-5.97904 -8.37066,-2.391618 -82.51073,3.986027 -31.48961,-2.391607 -30.29378,2.391607 -112.40593,-1.594409 -6.77625,10.36367 v 67.363842 l 2.39162,6.776241 -3.98603,10.76227 2.39162,3.98602 -0.3986,32.2868 -2.79021,-0.39859 V 54.541406 l -2.39163,-9.167855 -9.16786,-6.377644 -14.74829,-2.790211 -25.11196,0.398593 -25.90916,4.783236 -16.74132,9.56646 -0.39859,2.790223 4.38462,1.993013 -9.16786,31.091001 -5.58044,6.776237 -92.475796,8.370661 -11.160872,-4.384637 -8.370655,5.979047 -4.384627,8.37065 v 16.34271 l 2.391614,3.18882 -9.566461,-3.18882 -5.181834,8.76925 2.391616,9.16786 9.965065,3.18882 v 23.91616 l 2.391614,-2.79023 1.594411,1.99301 -4.78323,5.58044 H 9.7917937 l -0.3986024,13.95109 23.9161527,0.3986 0.797205,-4.38463 10.363667,-2.79021 6.776244,-13.95109 11.559471,-11.55947 14.748295,-7.17485 15.545501,-1.99302 19.132943,4.38463 14.74828,10.36368 11.16088,16.7413 6.37763,19.93012 15.14691,0.39861 1.99301,-3.18882 h 80.11912 l 1.1958,-5.18184 -6.77624,-1.1958 0.39861,-12.35668 h 32.2868 l 1.19581,11.16088 h 44.64349 l 1.1958,-3.58744 0.39861,2.39163 0.39859,-2.39163 h 26.30778 l 34.67842,11.95808 0.39861,-7.57345 -25.11197,-7.17484 -0.7972,-2.39161 13.55248,1.1958 2.79021,-2.79021 8.76926,-0.39861 20.72733,-25.90917 13.95109,-7.17484 17.93713,-1.99302 24.71336,9.56647 20.32872,25.51056 33.88122,-1.1958 -0.7972,14.74829 6.77624,2.79022 3.58742,-4.38463 -1.59441,-12.75529 3.98603,-1.1958 v -15.5455 l 15.5455,-0.79721 -0.39861,-44.24488 3.58743,-1.59441 v -3.98602 l -4.38463,-7.97205 0.39861,-66.965236 z M 511.63243,189.66768 h 0.39861 l 0.3986,0.3986 h 1.19581 l 0.39861,-0.3986 h 0.39858 l 0.39861,0.3986 -0.39861,0.39861 0.39861,-0.39861 0.39861,0.39861 v 0.39859 l 0.3986,0.39861 v 1.59441 l -0.3986,0.39861 v 0.3986 l -0.39861,0.39859 -0.39861,-0.39859 h -0.39858 0.39858 l 0.39861,0.39859 -0.39861,0.39861 h -0.39858 l -0.39861,0.3986 h -1.19581 l -0.3986,-0.3986 h -0.39861 l -0.7972,-0.7972 v -0.3986 l -0.39861,-0.39861 v -1.59441 l 0.39861,-0.39861 v -0.39859 z m -359.53952,-13.15388 0.39861,-0.39861 h 0.79721 v -0.3986 l 0.3986,-0.39861 0.3986,0.39861 v 0.3986 l 0.3986,0.39861 v 0.39859 l -0.7972,0.79722 v 0.39859 l 0.3986,0.3986 0.7972,-0.79719 0.39861,0.39859 v 0.3986 l 0.39861,0.39861 v 0.39861 l 0.39859,0.3986 v 0.39859 l 0.3986,0.39861 h 22.32175 l 0.39861,0.3986 v 11.95808 l -0.39861,0.39861 h -19.53152 l -0.39861,-0.39861 v -0.39861 l -0.39861,-0.3986 v -0.7972 l -0.3986,-0.39861 v -0.39859 l -0.39859,-0.39861 v -0.79721 l -0.39861,-0.39859 v -0.39861 l -0.3986,-0.39861 v -0.79719 l -0.39861,-0.39861 v -0.79721 l -0.3986,-0.39859 v -0.39861 l -0.39859,-0.3986 v -0.39861 l -0.39861,-0.3986 v -0.7972 l -0.39861,-0.3986 v -0.39861 l -0.3986,-0.3986 v -0.3986 l -0.3986,-0.3986 v -0.79721 l -0.3986,-0.39861 v -0.39859 l -0.3986,-0.3986 v -0.39861 l -0.39861,-0.39861 v -0.3986 l -0.3986,-0.39859 V 177.311 l -0.39861,-0.39861 z m 0.39861,-3.58743 0.3986,0.39861 v 0.3986 l 0.39861,0.39859 v 0.39861 l -0.39861,0.39861 v 0.39859 l -0.3986,0.39861 v 0.3986 l -0.39861,0.39861 -0.39859,-0.39861 v -0.3986 l -0.3986,-0.39861 v -0.39859 l -0.39861,-0.39861 v -0.39861 l 0.39861,-0.39859 0.3986,0.39859 0.39859,-0.39859 v -0.3986 z m -2.79021,-3.58742 0.39859,0.3986 0.3986,-0.3986 0.39861,0.3986 v 0.3986 l 0.79721,0.79721 v 0.3986 l 0.39859,0.39861 v 0.39859 l 0.39861,0.3986 v 0.39861 l -0.39861,0.39861 h -0.39859 l -0.79721,0.79719 -0.39861,-0.39859 v -0.3986 l -0.79719,-0.79722 v -0.3986 l -0.39861,-0.39859 v -0.39861 l -0.39861,-0.3986 v -0.39861 l 0.39861,-0.3986 v -0.3986 z m -116.391966,1.1958 v -0.7972 l 2.391616,-3.98602 0.398602,0.7972 -0.398602,-1.1958 1.195807,-1.59441 0.398604,0.3986 -0.398604,-0.79721 1.594411,-2.39161 1.195808,-0.39861 -0.398603,-0.3986 3.587424,-4.78323 1.993013,-1.99302 0.398602,0.39861 -0.398602,-0.39861 5.580435,-5.18182 5.580433,-3.98603 9.965073,-5.18184 4.384622,-1.59441 9.965066,-2.39162 7.174844,-0.39859 0.398607,-0.3986 11.958073,0.3986 4.384637,1.19581 h 1.99302 l 11.16087,3.58741 7.17484,3.58742 7.17485,4.78324 1.19581,1.1958 -0.39861,0.39861 0.7972,-0.39861 0.79722,0.79722 -0.39861,0.3986 0.39861,-0.3986 4.78322,4.38463 -0.3986,0.39859 3.58743,2.79022 2.79021,3.58743 -0.39861,0.39859 0.39861,-0.39859 1.99302,2.39161 -0.39861,0.79721 0.39861,-0.3986 0.7972,0.79719 -0.7972,1.59442 0.7972,-1.19581 2.79021,3.98602 -1.59441,1.59441 -4.78322,-7.17484 -3.58743,-4.38463 -7.57344,-7.57345 -9.16787,-6.37764 -8.37065,-3.98603 -10.76227,-3.18882 -4.783237,-0.3986 -0.398597,-0.3986 h -3.587427 l -0.398608,-0.3986 h -8.370656 l -0.398587,0.3986 -6.377649,0.3986 -6.776247,1.59441 -8.769253,3.18883 -7.174854,3.98602 -7.573444,5.58043 -5.979037,5.97905 -3.188821,3.98602 -3.18882,4.78323 -0.797206,1.99301 -0.797205,0.79721 -0.797205,-1.1958 0.797205,1.1958 -1.195807,2.39162 -0.797206,-1.59442 -0.398602,0.79721 z M 257.7226,112.73739 h 0.3986 l 0.3986,0.39859 v 0.39861 h 1.59442 l -0.39861,-0.39861 0.39861,-0.39859 h 0.3986 l 0.7972,0.7972 v 0.3986 l 0.39861,0.39861 v 1.1958 l -0.39861,0.39861 v 0.3986 l -0.39861,0.3986 v 0.3986 l -0.39859,0.39861 -0.3986,-0.39861 v -2.39161 l -0.39861,-0.3986 h -1.19581 l -0.3986,0.3986 v 0.39859 l -0.3986,0.39861 v 0.39861 l -0.3986,0.3986 -0.79722,-0.79721 v -1.1958 l 0.39861,-0.39861 0.39861,0.39861 v 0.3986 -0.3986 l -0.39861,-0.39861 v -0.3986 z m 273.04276,1.1958 0.7972,-0.79721 0.3986,0.39861 h 0.3986 l 0.3986,-0.39861 h 0.79722 -1.19582 l -0.3986,-0.39859 0.3986,-0.39861 h 1.59441 l 1.59442,1.59441 v 2.39162 l -0.39861,0.3986 -0.3986,-0.3986 v -1.59441 l -0.39861,-0.3986 h -0.3986 l -0.39859,-0.39861 h -0.39861 l -0.39861,0.39861 h -0.3986 l -0.3986,0.3986 v 0.39859 l -0.3986,0.39861 v 0.39861 l -0.3986,0.3986 -0.3986,-0.3986 z m -58.99318,1.99302 v -1.99302 l 0.7972,-0.79721 0.3986,0.39861 h 0.7972 l 0.39861,-0.39861 h 0.7972 l 0.3986,0.39861 h 0.39861 l -0.39861,-0.39861 h -1.993 l -0.39861,-0.39859 0.39861,-0.39861 h 2.39161 l 0.39861,0.39861 h 0.3986 l 0.7972,0.7972 v 0.3986 l 0.3986,0.39861 v 0.3986 l 0.39861,0.39859 v 0.39861 h 1.1958 l 0.39861,0.39861 h 5.18182 l 0.39861,0.3986 h 10.76227 l 0.3986,0.3986 h 2.39161 l 0.39861,-0.3986 h 9.56646 l 0.39861,-0.3986 h 4.38463 l 0.39861,-0.39861 h 1.5944 l 0.3986,-0.39861 v -0.79719 l 1.59441,-1.59441 h 0.3986 l 0.3986,0.39859 -1.19581,1.19582 0.79721,-0.79721 h 0.3986 l 0.3986,0.3986 -1.1958,1.1958 v 0.39861 l -0.39861,0.39861 v 0.3986 l 0.39861,0.3986 v 0.79721 l 0.3986,0.39859 -0.3986,0.39861 h -41.05606 l -0.3986,-0.39861 v -0.39859 l 0.3986,-0.39861 v -1.59441 l -1.19582,-1.1958 h -0.3986 l -0.39859,-0.39861 -0.39861,0.39861 h -0.39861 l -0.7972,1.1958 v 1.19581 l -0.3986,0.3986 z m -11.95809,-3.58743 h 2.79023 l 1.1958,1.19581 v 0.3986 l 0.39861,0.39861 v 1.1958 l -0.39861,0.39861 v 0.7972 l -0.79721,0.79721 -0.39859,-0.39861 v -1.99302 l 0.39859,-0.39859 v -0.3986 0.3986 l -0.39859,0.39859 -0.3986,-0.39859 v -0.3986 l -0.39861,-0.39861 0.39861,-0.3986 v -0.39861 h -2.39163 l -0.3986,-0.39859 z m -62.18199,2.79021 -0.3986,0.39861 v 0.79721 l -0.39861,0.3986 v 0.3986 l -0.79721,0.7972 -0.39859,-0.39859 v -0.39861 l 0.39859,-0.3986 v -1.19581 l 0.3986,-0.39861 v -0.39859 0.39859 l -0.3986,0.39861 -0.39859,-0.39861 v -0.39859 l -0.79721,-0.79721 h -0.7972 l -0.3986,0.39861 h -0.39861 l -0.79721,0.79719 v 2.39163 l 0.3986,0.39859 -0.3986,0.39861 h -49.42671 l -0.3986,-0.39861 0.3986,-0.39859 v -2.39163 l -0.79721,-0.79719 h -0.3986 l -0.3986,-0.39861 0.3986,-0.3986 h 0.3986 v -0.39861 l 0.39861,-0.39859 h 0.3986 l 1.59442,1.59441 v 1.1958 h 0.39858 l 0.39861,0.39861 h 4.78324 l 0.3986,0.3986 h 6.37764 l 0.39859,0.3986 h 20.72735 l 0.39859,-0.3986 h 6.37765 l 0.39859,-0.3986 h 4.38464 l 1.1958,-0.79722 v -0.79719 l 0.79721,-0.79721 0.39861,0.3986 v 0.39861 -0.39861 l -0.39861,-0.3986 1.1958,-1.19581 h 2.79023 l 0.39859,0.39861 -0.39859,0.39859 h -2.39162 v 0.39861 l 0.39861,-0.39861 h 1.5944 l 0.39861,0.39861 h 0.39859 l -0.39859,-0.39861 0.39859,-0.39859 h 0.3986 l 0.79722,0.7972 v 0.79721 l 0.3986,0.3986 z m -55.40576,-2.79021 0.39861,0.39861 -0.39861,0.39859 h -1.99301 v 0.39861 l 0.3986,-0.39861 h 0.79721 l 0.3986,0.39861 -0.3986,0.3986 h -0.39861 l -0.3986,0.39861 h -0.3986 l -0.3986,0.3986 v 2.39161 l -0.39861,0.39861 -0.7972,-0.79721 v -0.3986 l -0.3986,-0.3986 v -1.99302 l 0.3986,-0.3986 v -0.39861 l 0.39859,-0.39859 h 0.39861 l 0.39861,-0.39861 z m -72.94427,3.18882 v -1.59441 l 1.59441,-1.59441 h 2.79022 l 0.3986,0.39861 h 0.39861 l 0.7972,0.7972 v 0.3986 l 0.39861,0.39861 v 0.79719 l 0.39859,0.39861 h 0.79721 l 0.39861,0.39861 h 3.98602 l 0.39861,0.3986 h 6.77624 l 0.39859,0.3986 h 21.52455 l 0.3986,-0.3986 h 7.17485 l 0.39859,-0.3986 h 5.18184 v -0.79722 l 0.3986,-0.39859 v -0.3986 l 1.59441,-1.59441 h 0.39861 l 0.3986,-0.39861 h 2.79023 l 0.39858,0.39861 h 0.39861 l 0.79722,0.7972 v 0.79721 l 0.39859,0.3986 -0.39859,0.39859 v 1.59442 l -1.19583,1.1958 h -0.39858 l -0.39861,-0.39859 0.39861,-0.39861 v -2.39161 l -0.39861,-0.3986 h -0.39861 l -0.39861,-0.39861 h -0.79719 l -0.39861,-0.3986 0.39861,-0.39861 h 1.1958 l 0.39861,0.39861 v -0.39861 h -1.99302 l -0.3986,0.39861 h 0.3986 l 0.39861,0.3986 -0.39861,0.39861 h -0.3986 l -0.79721,0.79719 v 0.39861 l -0.39859,0.39861 v 0.7972 l 0.7972,1.1958 -0.39861,0.39861 H 274.0653 l -0.3986,-0.39861 0.79721,-1.1958 v -0.7972 l -0.39861,-0.39861 v -0.39861 l -0.7972,-0.79719 h -0.3986 l -0.39861,-0.39861 -1.1958,0.39861 v 0.3986 l -0.39861,0.39859 v 0.39861 l 0.39861,0.39861 v 1.59441 l -0.39861,0.39859 -1.1958,-1.1958 v -0.7972 z m 249.1266,-3.18882 h 0.79721 l 0.39861,-0.3986 h 0.39859 l 0.3986,0.3986 h 0.79721 l 0.39861,0.39861 h 0.39859 l 0.79721,0.7972 v 2.79022 l -0.39861,0.3986 -0.3986,-0.3986 v -2.39162 l -0.39859,-0.3986 0.39859,0.3986 -0.39859,0.39861 0.39859,0.3986 v 1.59441 l 0.3986,0.3986 v 0.3986 l -0.79719,0.7972 -0.39861,-0.39859 v -2.39163 l -0.3986,-0.39859 v -0.3986 l -0.39861,-0.39861 h -1.59441 l -0.3986,-0.3986 0.3986,-0.39861 h 1.99302 -2.39162 l -0.3986,-0.39859 z m -113.60172,3.98603 v -2.39162 l 0.3986,-0.3986 v -0.39861 l 0.3986,-0.39859 h 0.3986 l 1.19581,-0.79721 h 0.7972 l 0.3986,0.3986 h 0.79721 l 0.7972,0.7972 h 0.39861 l 0.79721,1.19582 v 1.1958 h 0.3986 l 0.39859,0.39861 h 5.18185 l 0.3986,0.3986 h 7.17484 l 0.39861,0.3986 h 18.33571 l 0.39861,-0.3986 h 6.77624 l 0.39861,-0.3986 h 4.78322 l 0.39861,-0.39861 h 0.79719 v -0.39861 l 0.79722,-1.1958 0.39859,0.39861 h 0.39861 l 0.3986,-0.39861 0.3986,0.39861 v 0.3986 l -0.7972,1.19581 v 0.7972 l 0.3986,0.3986 v 0.7972 l -0.3986,0.39861 h -49.02811 l -0.39861,-0.39861 0.7972,-1.1958 v -0.3986 l -0.39859,-0.3986 v -0.79722 l -0.79721,-0.79719 h -0.79721 l -0.39859,-0.39861 -1.19582,0.79721 v 2.39161 l 0.3986,0.39861 -0.3986,0.39859 h -0.3986 l -0.7972,-0.7972 v -0.3986 z M 526.77932,96.793289 h 0.79722 l 0.39859,0.398597 -0.39859,0.398597 0.39859,0.398608 0.3986,-0.398608 0.79722,0.797205 v 0.398608 l 0.3986,0.398608 v 7.972046 l 0.39859,0.3986 v 4.78323 l -0.39859,0.39861 v 0.39859 l -0.3986,0.39861 v 3.18882 l 0.3986,0.3986 v 0.39861 l 0.39859,0.39859 -0.39859,0.39861 h -0.3986 v 0.39861 l -0.39861,0.3986 v 21.92313 l -0.39861,0.39861 h -3.18881 l -0.3986,-0.39861 v -22.32173 l -0.39861,-0.39861 h -0.39861 l -0.39859,-0.39861 0.39859,-0.39859 v -0.39861 l 0.39861,-0.3986 v -2.79022 l -0.39861,-0.3986 v -0.39861 l -0.39859,-0.39859 v -0.39861 l -0.3986,-0.3986 0.3986,-0.39861 v -1.99301 l 0.39859,-0.3986 v -1.99301 l 0.39861,-0.39861 v -6.776242 l 0.39861,-0.398608 v -0.398586 l 0.3986,-0.398608 v -0.398608 l 0.7972,-0.797205 0.39861,0.398608 -0.39861,-0.398608 z m -60.18898,0 h 2.79021 l 1.19583,1.195802 v 10.363659 l 0.39858,0.39861 v 2.39161 l 0.39861,0.3986 v 0.79721 l -0.39861,0.39861 v 0.39859 l -0.39858,0.39861 v 0.79721 l -0.39861,0.3986 v 1.19581 l 0.39861,0.3986 v 0.3986 l 0.39858,0.3986 v 0.39861 l 0.39861,0.39859 -0.39861,0.39861 h -0.79719 l -0.39861,0.39861 v 22.32173 l -0.39861,0.39861 h -3.18881 l -0.3986,-0.39861 v -22.32173 l -0.79722,-0.79722 v -0.39859 l 0.39861,-0.39861 v -0.7972 l 0.39861,-0.3986 v -1.59441 l -0.39861,-0.39861 v -0.3986 l -0.39861,-0.39861 v -0.39859 l -0.39859,-0.39861 0.39859,-0.3986 -0.39859,-0.39861 v -1.1958 l 0.39859,-0.39861 v -2.39161 l 0.39861,-0.3986 v -6.77624 l -0.39861,-0.398612 v -0.797194 l 0.39861,-0.398608 v -0.797205 l 0.39861,-0.398608 0.3986,0.398608 v 0.398597 l 0.3986,-0.398597 v -0.398608 l -0.3986,-0.398597 z m -132.33605,0 h 1.59441 l 0.79721,0.797194 v 0.398608 l 0.39859,0.398597 v 11.160872 l 0.39861,0.3986 v 1.59441 l 0.3986,0.39861 v 0.3986 l -0.3986,0.39861 v 0.39859 l -0.39861,0.39861 v 3.18882 l 0.39861,0.3986 v 0.39861 l 0.3986,0.39859 -0.3986,0.39861 h -0.39861 l -0.39859,0.39861 v 0.3986 l -0.3986,0.39859 v 0.39861 l 0.3986,0.39861 v 19.13291 l -0.3986,0.39861 v 0.7972 l 0.3986,0.3986 -0.3986,0.39861 h -3.58743 l -0.39861,-0.39861 v -22.72034 h -0.39859 l -0.39861,-0.39861 0.39861,-0.39859 v -0.39861 l 0.39859,-0.3986 v -2.79022 l -0.39859,-0.3986 v -0.39861 l -0.39861,-0.39859 v -1.59442 l 0.39861,-0.39859 v -1.19582 l 0.39859,-0.3986 v -4.38462 l 0.39861,-0.39861 v -5.979042 z m 66.96523,-0.398608 h 0.39861 l 0.39859,0.398608 h 0.79721 l 0.79721,0.797194 v 11.559477 l 0.39859,0.3986 v 1.99301 l 0.39861,0.39861 v 0.3986 l -0.7972,0.7972 v 0.79721 l -0.3986,0.39861 v 1.99301 l 0.3986,0.3986 v 0.3986 l 0.39859,0.39861 v 0.39859 l -1.1958,1.19582 v 1.993 l 0.39861,0.39861 v 11.55948 l -0.39861,0.39859 v 1.99302 l 0.39861,0.39861 v 3.58741 l -0.39861,0.39861 v 0.7972 l 0.39861,0.3986 -0.39861,0.39861 h -3.18882 l -0.3986,-0.39861 v -21.92313 l -0.3986,-0.3986 v -0.39861 h -0.39861 l -0.39861,-0.39861 0.79722,-0.7972 v -0.7972 l 0.3986,-0.3986 v -1.59441 l -0.3986,-0.39861 v -0.3986 l -0.39861,-0.39861 v -0.39859 l -0.39861,-0.39861 v -1.5944 l 0.39861,-0.39861 v -2.79022 l 0.39861,-0.3986 v -8.769262 l 0.3986,-0.398597 0.3986,0.398597 v 0.398608 -0.398608 l 0.3986,-0.398597 v -0.398608 l -0.3986,-0.398597 0.3986,-0.398597 h 0.7972 z m -134.72767,0 0.3986,0.398608 h 0.79722 l 0.79719,0.797194 v 11.559477 l 0.39861,0.3986 v 1.99301 l 0.3986,0.39861 -0.3986,0.3986 v 0.39861 l -0.39861,0.39859 v 0.39861 l -0.39859,0.3986 v 2.79022 l 0.39859,0.3986 v 0.39861 l 0.39861,0.39859 -0.39861,0.39861 h -0.39859 l -0.3986,0.39861 v 21.52453 l -0.39861,0.3986 h -0.39861 0.39861 l 0.39861,0.3986 -0.39861,0.39861 h -3.58742 l -0.3986,-0.39861 v -22.32173 l -0.79722,-0.79722 v -0.39859 l 0.79722,-0.79721 v -3.58743 l -0.39861,-0.39859 v -0.39861 l -0.39861,-0.3986 v -7.17484 l 0.39861,-0.39861 v -5.979042 l 0.79721,-0.797205 0.3986,0.398608 h 0.3986 -0.3986 l -0.3986,-0.398608 0.3986,-0.398597 h 0.3986 l 0.3986,-0.398597 h 1.19582 z m -87.29395,-37.468644 1.1958,-1.195803 0.79721,0.398593 -0.79721,-0.398593 1.1958,-0.79721 h 42.25188 l 0.39861,0.398605 h 0.79719 l 0.79721,0.797198 -0.3986,0.398605 0.79721,-0.398605 0.79719,0.79721 -0.39859,0.797209 0.39859,-0.398604 0.79722,1.195803 v 0.79721 l 0.3986,0.398604 v 31.489603 l -0.3986,0.797194 -1.59441,1.59441 h -0.79721 l -0.39861,0.398608 h -2.79021 l -0.39861,-0.398608 h -3.1888 l -0.39861,0.398608 h -4.78324 L 213.0791,95.597466 H 195.142 l -0.3986,0.398608 h -0.79722 l -0.3986,-0.398608 -0.7972,0.398608 -0.39861,-0.398608 h -5.58043 l -0.3986,0.398608 h -2.39162 l -0.3986,-0.398608 h -3.98603 l -0.39859,0.398608 h -1.59441 l -0.39861,-0.398608 h -4.78323 l -0.7972,-0.398587 -1.59442,-1.993017 v -2.391615 l 0.79721,-1.59441 v -1.195813 l 0.79721,-1.59441 V 85.23381 l 0.7972,-1.594419 v -1.195803 l 0.79721,-1.594409 v -1.195815 l 0.79719,-1.594407 v -1.195803 l 0.39861,-0.398606 v -0.797197 l 0.39861,-0.398606 V 74.07293 l 0.7972,-1.594407 V 71.28272 l 0.79721,-1.594409 v -1.195815 l 0.39859,-0.398604 v -1.195803 l 0.39861,-0.398606 v -0.797197 l 0.39861,-0.398606 v -1.195814 l 0.79719,-1.594408 v -1.195803 l 0.79722,-1.594409 0.39859,0.797199 -0.39859,-0.797199 z m -8.37066,-1.993013 0.79721,0.79721 v 2.391606 l -0.39861,0.398605 v 1.195814 l -0.3986,0.398594 v 0.797209 l -0.39861,0.398606 v 1.195803 l -0.3986,0.398605 v 1.195803 l -0.39859,0.398604 v 0.79721 l -0.39861,0.398605 v 1.195804 l -0.3986,0.398605 v 0.797198 l -0.39861,0.398605 v 1.195814 l -0.3986,0.398593 v 0.79721 l -0.3986,0.398605 v 0.797198 l -0.3986,0.398606 v 1.195815 l -0.3986,0.398593 v 1.195814 l -0.39861,0.398593 v 0.79721 l -0.39861,0.398605 v 0.797198 l -0.39859,0.398606 v 1.195815 l -0.3986,0.398593 v 0.79721 l -0.39861,0.398604 v 1.195803 l -0.39861,0.398605 v 0.79721 l -0.3986,0.398594 v 1.195818 l -0.39859,0.398597 v 0.797205 l -0.39861,0.398597 v 1.195813 l -0.39861,0.398597 v 0.398609 l -0.39859,0.398607 -0.39861,-0.398607 v -0.398609 l -0.3986,0.398609 v 0.398607 l -0.3986,0.398608 h -0.3986 l -0.79722,-0.797215 h -0.39859 l -0.3986,-0.398609 h -0.39861 l -0.79721,-0.797194 0.3986,-0.398608 v -0.398608 0.398608 l -0.3986,0.398608 -0.7972,-0.797216 v -1.195802 l 0.39861,-0.398597 v -1.195818 l 0.39859,-0.398594 v -1.195815 l 0.3986,-0.398604 v -0.797199 l 0.39861,-0.398604 v -0.79721 l 0.39861,-0.398593 V 80.05197 l 0.3986,-0.398606 v -0.797198 l 0.39859,-0.398605 v -1.195803 l 0.39861,-0.398604 v -0.79721 l 0.39861,-0.398593 v -1.195815 l 0.3986,-0.398606 v -0.797198 l 0.3986,-0.398605 v -0.79721 l 0.3986,-0.398593 V 70.48551 l 0.39861,-0.398605 v -0.797198 l 0.39859,-0.398605 v -1.195804 l 0.39861,-0.398605 v -0.79721 l 0.39861,-0.398604 v -1.195803 l 0.39859,-0.398605 v -0.797198 l 0.3986,-0.398605 v -1.195815 l 0.39861,-0.398594 v -0.79721 l 0.39861,-0.398604 v -0.797199 l 0.3986,-0.398604 v -0.79721 l 0.39859,-0.398605 v -0.398593 l 0.39861,-0.398605 h 1.19581 l 0.3986,-0.398605 z"
     fill="#000000"
     fill-rule="evenodd"
     id="path6"
     style="stroke-width:0.398602" />
</svg>
