<?xml version="1.0" encoding="UTF-8" standalone="no"?>
<svg
   width="550"
   height="250"
   viewBox="0 0 550 250"
   version="1.1"
   id="svg4"
   sodipodi:docname="bedford_oyd_supply_black.svg"
   inkscape:version="1.4.2 (f4327f4, 2025-05-13)"
   xmlns:inkscape="http://www.inkscape.org/namespaces/inkscape"
   xmlns:sodipodi="http://sodipodi.sourceforge.net/DTD/sodipodi-0.dtd"
   xmlns="http://www.w3.org/2000/svg"
   xmlns:svg="http://www.w3.org/2000/svg">
  <defs
     id="defs4" />
  <sodipodi:namedview
     id="namedview4"
     pagecolor="#ffffff"
     bordercolor="#000000"
     borderopacity="0.25"
     inkscape:showpageshadow="2"
     inkscape:pageopacity="0.0"
     inkscape:pagecheckerboard="0"
     inkscape:deskcolor="#d1d1d1"
     inkscape:zoom="1.0819521"
     inkscape:cx="185.77532"
     inkscape:cy="260.17787"
     inkscape:window-width="2560"
     inkscape:window-height="1377"
     inkscape:window-x="-8"
     inkscape:window-y="-8"
     inkscape:window-maximized="1"
     inkscape:current-layer="svg4" />
  <path
     d="m 391.94293,165.30195 -4.57534,1.66377 -0.41593,0.41593 0.41593,1.66375 -0.83188,0.83187 -1.2478,-0.41593 0.83187,0.41593 -1.66376,0.83189 -1.24782,-1.24782 h -0.83187 l -2.91157,2.0797 -0.83188,-0.41594 0.41593,0.41594 -1.24782,1.24781 0.41595,1.24782 -1.66376,1.66375 0.41594,0.41595 -0.83188,0.83188 -1.66376,-1.24783 -2.49563,2.49564 -1.66376,2.49564 v 1.24782 l 0.83188,0.83187 v 0.83189 l -0.41595,0.41593 -0.41593,-0.41593 0.41593,0.83188 -1.2478,1.66375 -1.24782,-0.83188 -0.83189,0.41593 -2.49562,6.2391 2.07969,2.07969 -0.83188,2.91158 -2.0797,0.83188 v 6.23908 l 2.0797,0.83188 v 2.0797 l 0.41594,0.41593 -0.41594,0.41595 -0.83187,-0.41595 0.41593,0.41595 -1.24783,1.24781 1.66377,5.82315 1.24781,2.49563 0.83189,0.41595 1.24782,-0.83188 1.66375,2.49563 -1.24782,1.66376 v 0.83187 l 3.74346,4.57533 1.66376,-1.24781 2.49562,2.49564 -0.83187,2.07968 3.74344,2.91158 1.24783,0.41593 1.66375,-1.24781 2.49564,1.66377 -0.41594,0.41594 0.41594,1.66374 2.0797,0.41594 2.49562,1.24783 2.07971,-1.66377 h 1.24781 l 1.24783,0.83187 0.41593,1.66378 0.83187,0.41593 h 4.99128 l 0.83188,-2.07971 h 1.66375 l 0.41594,-0.41593 1.24782,2.07971 3.74345,-0.41595 2.0797,-0.83187 0.41594,-1.24783 -0.41594,-0.41593 0.83187,-0.83188 2.0797,-0.83187 2.07969,1.66375 3.74346,-2.07971 0.83187,-1.24781 -0.83187,-1.2478 1.66376,-1.66378 1.24781,-0.41593 1.24782,1.24781 0.83188,-0.41593 3.74345,-4.15939 -0.83188,-2.07971 1.24782,-2.07968 0.83188,-0.41593 1.24782,0.83186 1.24782,-1.24781 2.07969,-4.57534 -1.66376,-1.66375 1.24782,-2.91157 1.66376,0.41593 0.83187,-1.66376 0.41594,-5.4072 h -0.83188 l -0.83187,-0.83187 v -2.49564 l 1.66375,-1.24783 -0.41594,-4.57532 -0.41594,-0.83187 -1.66375,-0.41595 -0.83189,-2.07969 1.66377,-1.66375 -2.0797,-5.40722 -0.83187,-1.24781 -1.66377,0.41593 -2.07969,-2.49563 1.24782,-1.66377 -3.74346,-4.57532 -2.07969,0.83188 -2.0797,-1.66375 0.41595,-2.49564 -4.57533,-2.91158 -1.66377,1.24783 -0.83187,-0.41596 0.41594,-0.41593 -0.41594,-0.41594 0.41594,0.41594 -1.24782,0.41593 -1.24782,-0.83187 v -0.83188 l 0.41593,-0.41593 0.41595,0.83188 -0.83188,-1.66375 -4.99126,-1.66377 -1.66376,1.66377 h -2.49564 l -0.83188,-0.83189 v -1.66375 h -6.23909 l -0.41593,2.07968 -2.49564,0.83189 -1.24782,-2.0797 z m 5.82314,26.62011 h 1.66376 l 0.41594,-0.41595 h 1.66376 l 0.41594,0.41595 h 1.24781 l 0.41594,0.41593 h 0.83188 l 0.41594,0.41594 h 0.41595 l 0.83187,0.83189 h 0.41593 l 2.07971,2.07968 v 0.41595 l 0.41593,0.41593 v 0.41595 l 0.41594,0.41594 v 0.41594 l 0.41594,0.41593 v 0.83188 l 0.41594,0.41594 v 4.1594 l -0.41594,0.41593 v 0.83188 l -0.41594,0.41594 v 0.83187 l -0.83187,0.83189 v 0.41593 l -2.07971,2.0797 h -0.41593 l -0.41594,-0.41594 0.41594,0.41594 -0.83187,0.83189 h -0.41595 l -0.41594,0.41593 h -0.83188 l -0.41594,0.41594 h -4.99126 l -0.41595,-0.41594 h -0.83187 l -0.41595,-0.41593 h -0.41593 l -0.41594,-0.41596 h -0.41593 l -0.83189,-0.83187 0.41594,-0.41594 -0.41594,-0.41594 -0.41594,0.41594 -0.83188,-0.83187 0.41594,-0.41595 -0.41594,0.41595 -0.83187,-0.83188 v -0.41595 l -0.41594,-0.41594 v -0.41594 l -0.41594,-0.41593 v -0.41594 l -0.41594,-0.41594 v -1.24783 l -0.41595,-0.41593 v -2.49562 l 0.41595,-0.41596 v -1.24781 l 0.41594,-0.41594 v -0.83187 l 0.83188,-0.83189 v -0.41593 l 0.83187,-0.83188 v -0.41594 l 0.83188,-0.83188 h 0.41594 l 0.83189,-0.83188 h 0.41593 l 0.41594,-0.41594 h 0.41593 l 0.41595,-0.41594 h 0.41593 z"
     fill="#000000"
     fill-rule="evenodd"
     id="path1"
     style="stroke-width:0.415939" />
  <path
     d="m 68.75821,162.80631 -4.159401,1.66377 v 2.07968 l -0.415938,0.41596 -2.495639,0.83187 -1.663749,-1.24783 -3.743451,2.49564 -1.247826,1.24783 0.831889,1.24781 -0.415938,1.24781 -1.663764,1.66377 -1.247811,-0.83188 h -0.831889 l -3.327513,3.74345 -0.831875,1.66375 1.247826,1.66376 -1.663764,2.91158 h -2.0797 l -0.831875,0.83188 -1.66375,4.99126 v 0.83189 l 1.66375,1.2478 -0.415938,2.91159 -2.495638,0.83187 v 5.82315 l 2.495638,1.24781 -0.415938,0.41594 0.415938,0.41593 v 1.66377 l -0.831875,0.41594 -0.415937,-0.41594 0.415937,-0.41594 -0.415937,0.41594 0.415937,0.41594 -0.831874,0.83187 0.415937,2.91158 0.831874,2.0797 0.831876,0.83188 0.415937,2.49563 0.831889,0.83188 1.247812,-0.83188 1.247812,0.83188 0.831889,1.66376 -1.247826,1.24781 v 1.24782 l 3.327513,4.1594 2.079701,-0.83189 2.079687,2.07971 -0.831875,1.66374 4.57534,3.74346 2.079687,-1.24783 2.495638,1.66378 v 1.66374 l 4.575326,2.0797 h 0.831888 l 1.247812,-1.66376 h 1.663751 l 1.247826,0.83189 v 1.66375 l 5.82315,0.41593 0.831876,-2.07968 h 2.079687 l 0.41595,-0.41596 1.247813,2.07971 h 1.66375 l 3.743464,-1.24781 0.415938,-0.41594 v -1.66377 l 2.495625,-1.2478 2.0797,1.66374 4.575326,-2.91157 -0.415938,-2.0797 2.079705,-1.66376 1.247805,0.83188 h 0.83189 l 4.15939,-4.15939 v -0.83188 l -0.83188,-0.83186 0.41594,-1.24783 0.83187,-0.83188 0.41594,0.41593 2.49564,-1.2478 2.49564,-4.99128 -1.24783,-1.66375 0.41594,-2.49564 0.41593,-0.41594 h 1.66377 l 0.83187,-1.66376 0.41594,-4.15939 -1.66375,-1.24781 v -2.91158 l 1.66375,-0.83187 -0.41594,-4.99128 -0.41593,-0.83188 h -1.66375 l -0.41596,-0.41593 -0.41593,-2.49564 0.41593,-0.41594 0.41596,0.41594 -0.41596,-0.41594 1.24783,-1.24781 -2.91157,-6.23909 h -0.83188 l -0.83189,0.83188 -0.41594,-0.41594 0.41594,-0.83187 -0.41594,0.41593 -1.66374,-2.07969 1.24781,-1.24782 -0.41594,-1.24782 -3.32751,-3.32752 -1.66375,0.83189 -2.495635,-2.0797 0.831865,-1.66377 -4.159379,-3.32751 h -1.247826 l -1.247813,1.24783 -1.247812,-0.83187 0.831874,-0.41596 -1.247812,0.41596 -0.41595,-0.41596 0.41595,-0.83187 -0.41595,0.83187 -0.415938,-0.41593 v -1.66375 l -0.415938,-0.41594 -3.74345,-1.24783 h -2.079701 l -0.831875,1.66377 -2.495638,-0.41594 -0.831876,-2.0797 h -5.823151 l -0.831875,2.0797 -0.415937,-1.24783 -0.831874,0.41594 0.831874,0.41595 -0.831874,0.83188 h -1.247826 l -1.247813,-1.66377 z m 6.655026,26.20417 H 80.4045 l 0.415936,0.41594 h 0.831876 l 0.41595,0.41593 -0.41595,0.41596 0.41595,-0.41596 H 82.4842 l 0.415938,0.41596 h 0.415937 l 2.911576,2.91156 v 0.41595 l 0.831875,0.83188 v 0.83187 l 0.415937,0.41593 v 1.24783 l 0.415938,0.41594 v 2.49562 l -0.415938,0.41596 v 1.2478 l -0.415937,0.41595 v 0.83187 l -0.831875,0.83189 v 0.41593 l -2.911576,2.91158 H 82.900138 L 82.4842,207.3118 h -0.415938 l -0.41595,0.41595 h -0.831876 l -0.415936,0.41593 h -4.991264 l -0.415951,-0.41593 H 74.16541 l -0.415937,-0.41595 h -0.415937 l -0.831875,-0.83188 h -0.415938 l -2.495637,-2.49563 v -0.41593 l -0.415938,-0.41596 v -0.41593 l -0.415938,-0.41594 v -0.83188 l -0.415952,-0.41593 v -4.57534 l 0.415952,-0.41593 v -0.83188 l 0.415938,-0.41594 v -0.83188 l 1.247812,-1.24782 v -0.41594 l 1.663763,-1.66375 h 0.415938 l 0.831875,-0.83189 h 0.415937 l 0.415937,-0.41593 h 0.831875 z"
     fill="#000000"
     fill-rule="evenodd"
     id="path2"
     style="stroke-width:0.415939" />
  <path
     d="m 31.739614,128.28337 h -0.831876 l -0.415936,0.41594 h -0.415938 v 0.41593 l -0.415937,0.41593 v 17.05351 l 0.831875,0.83189 h 0.415936 l 0.415938,0.41594 0.415938,-0.41594 h 0.831888 l 0.831875,-0.83189 h 0.415938 l 0.415936,-0.41593 h 0.415938 l 2.495639,-2.49563 v -0.41595 l 0.415938,-0.41593 v -0.41595 l 0.415936,-0.41593 v -0.41594 l 0.415938,-0.41593 v -1.24783 l 0.415952,-0.41595 v -3.3275 l -0.415952,-0.41594 v -1.24781 l -0.415938,-0.41594 v -0.41593 l -0.415936,-0.41596 v -0.41593 l -3.327515,-3.32753 h -0.415936 l -0.415938,-0.41593 H 32.98744 l -0.415938,-0.41593 h -0.415937 z"
     fill="#000000"
     fill-rule="evenodd"
     id="path3"
     style="stroke-width:0.415939" />
  <path
     d="m 531.69848,37.608628 -10.39847,-16.637566 -11.6463,-3.743451 -259.1301,2.911562 -12.06222,9.566602 -2.49564,14.557879 v 67.798076 l 10.39847,2.07971 2.91158,-5.40722 -1.66377,7.90284 -11.64628,1.66377 v 34.93888 l 9.98254,2.0797 -0.41594,8.31879 -14.14194,0.83188 V 74.211273 l -4.99126,-12.478178 -12.89413,-7.070964 -37.43452,-0.831874 -24.12447,5.823137 -6.65502,5.823151 -13.31005,40.762045 -4.1594,-2.91157 -69.045889,2.91157 -8.734727,-2.91157 -10.398478,3.32751 -4.159387,6.65502 -0.415952,15.38976 5.407214,9.15066 -5.407214,9.15067 0.415952,8.73471 22.460703,-15.80569 31.611382,-2.91156 17.885376,6.65502 13.72599,11.23035 16.22162,32.02732 h 74.03718 l -0.83188,3.32752 h -74.86904 l -10.39848,-24.54042 -11.23037,-13.72599 -12.06222,-7.90284 -17.88539,-4.99128 -16.221628,0.83188 -17.053504,6.65502 -14.141928,12.06225 -8.318789,12.89411 -8.734716,-0.41594 7.90284,0.83188 -12.894109,-3.32751 -1.247818,15.80569 24.956342,-2.49564 17.053517,-16.63757 21.62883,-6.23909 17.053502,2.91158 11.230361,6.65503 19.96508,31.61138 86.51534,-1.66377 6.23909,-3.74345 2.07969,-7.90284 29.53169,0.41594 4.99126,4.99126 h 94.00226 l 7.07096,9.98254 9.56661,-21.21289 8.31878,-9.5666 11.6463,-7.07096 14.9738,-2.91158 12.89411,2.0797 13.31005,7.4869 9.98254,12.06223 7.90284,19.96507 3.74346,-2.49562 -0.41594,-6.23908 14.55788,-12.06225 33.69106,-0.41593 1.24782,11.23035 9.98254,1.66376 3.32751,-13.31005 h 11.6463 l 0.41594,-16.22163 4.57533,-2.0797 v -7.90284 l 5.40721,-2.0797 v -35.35483 l -14.14193,-1.24782 -1.66376,-7.07096 2.91158,4.57534 16.63756,-2.07971 z m -87.76317,145.162762 0.41594,-0.41594 h 9.5666 l 0.41594,0.41594 -1.24781,1.24782 h -0.41594 l -1.66376,1.66375 h -0.41594 l -1.66375,1.66377 h -0.41593 l -1.66377,1.66375 h -0.41594 l -0.41593,-0.41594 v -1.24781 l -0.41595,-0.41594 v -0.41595 l -0.41593,-0.41593 v -0.83188 l -0.41594,-0.41594 v -0.41593 l -0.41595,-0.41595 v -0.83188 z m 61.55901,-1.24781 0.41593,0.41594 v 0.41593 l -0.41593,0.41594 v 7.07096 l -0.41594,0.41596 h -3.74345 l -0.83189,-0.83189 v -7.07097 l 0.41594,-0.41593 h 2.91158 l 0.41593,0.41593 -0.41593,0.41594 h 0.83188 l -0.41595,-0.41594 0.83189,-0.83187 z m 5.4072,-26.20417 0.41595,-0.41594 h 9.15065 l 0.41593,0.41594 v 6.23909 l -0.41593,0.41594 -0.41594,-0.41594 v -0.41594 h -0.41593 l 0.41593,0.41594 -0.41593,0.41594 h -8.31878 l -0.41595,-0.41594 v -2.0797 l 0.41595,-0.41594 v -3.32751 z m -56.98367,0 0.41594,-0.41594 h 46.58519 l 0.41595,0.41594 -0.41595,0.41594 0.41595,0.41594 v 5.40721 l -0.41595,0.41594 h -46.58519 l -0.41594,-0.41594 0.41594,-0.41594 -0.41594,-0.41594 v -3.32751 l 0.41594,-0.41593 v -1.24783 z m -145.57869,0 0.41594,-0.41594 h 34.93888 l 0.41594,0.41594 v 7.4869 l -0.41594,0.41594 H 308.7551 l -0.41594,-0.41594 z m -52.40833,0 0.41593,-0.41594 h 41.17798 l 0.41593,0.41594 -0.41593,0.41594 h -0.83188 l 0.41594,0.41594 v 0.41593 -0.41593 l 0.41594,-0.41594 0.41593,0.41594 v 6.65502 l -0.41593,0.41594 h -5.40721 l -0.41593,0.41595 h -35.35484 l -0.41593,-0.41595 z m 98.16163,0 0.41593,-0.41594 h 28.28388 l 0.41593,-0.41593 h 1.24782 l 1.66376,-0.83188 3.32752,-0.41595 0.41593,-0.41593 5.40722,0.41593 h -2.91158 l -0.41594,-0.41593 0.41594,-0.41595 h 2.49563 l 0.41595,-0.41593 h 9.98254 l 0.41593,0.41593 h 2.49564 l 0.41594,0.41595 -0.41594,0.41593 h -2.91157 l 5.40719,-0.41593 0.41594,0.41593 4.57534,0.83189 1.66375,0.83187 h 26.20417 l 0.41593,0.41594 v 6.23909 l -0.41593,0.41594 h -5.82315 l -2.07969,1.24781 v 2.0797 l 3.32751,6.65503 v 0.83187 l -0.41593,0.41594 -2.49564,-3.32752 -5.82315,-5.40719 -5.40721,-3.74346 -6.65502,-3.32751 h -0.83189 l -3.74345,-1.66376 h -1.24782 l -0.41593,-0.41594 h -1.24783 l -2.07968,-0.83187 h -2.07971 l -0.41593,-0.41594 h -4.57533 l -0.41595,-0.41594 -0.83187,0.41594 h -5.40721 l -0.41594,0.41594 h -2.49563 l -0.41594,0.41593 h -1.66376 l -0.41593,0.41594 -2.91159,0.41594 -3.74344,1.66376 h -0.83188 l -3.74345,2.07969 h -0.83189 l -7.07096,4.57534 -5.4072,4.99126 -0.83189,-0.83188 0.83189,0.83188 -1.66377,1.66376 -0.41593,-0.41593 0.41593,0.83187 -1.66375,1.66375 -0.41594,-0.83187 1.24782,-2.49564 v -0.83187 l 1.66375,-2.91158 v -1.24781 l -2.07968,-1.66377 h -3.74346 l -0.41594,0.41594 -3.32753,-0.41594 -0.41593,-0.41594 z m 108.56012,-39.51422 0.41595,0.41593 v 20.38102 l -0.41595,0.41596 -0.41593,-0.41596 v -20.38102 z m -105.64854,0 0.41593,0.41593 v 20.38102 l -0.83187,0.83189 h -0.41595 l -0.83186,-0.83189 v -8.31877 l 0.41593,-0.41594 v -0.83187 l -0.41593,-0.41596 v -4.15938 l 0.41593,-0.41595 v -0.83186 l -0.41593,-0.41594 v -3.74345 l 0.83186,-0.8319 h 0.41595 z m -106.89636,0 h 0.83186 l 0.41595,0.41593 v 20.79698 l -0.41595,0.41593 h -0.41593 l -0.41593,-0.41593 0.41593,-0.41596 -0.41593,0.41596 -0.41594,-0.41596 v -20.38102 z m 264.5373,-0.41593 h 0.41594 l 0.41594,0.41593 -0.41594,0.41593 v 12.06225 -12.06225 l 0.41594,-0.41593 0.41593,0.41593 v 20.38102 l -0.41593,0.41596 -0.41594,-0.41596 v -4.57532 4.57532 l 0.41594,0.41596 -0.41594,0.41593 h -0.41594 l -0.83188,-0.83189 0.41593,-0.41593 -0.41593,-0.41594 v -2.07968 l 0.41593,-0.41596 v -1.24781 l -0.41593,-0.41594 v -15.38976 z m -52.40833,0 0.41593,0.41593 -0.83187,0.83187 v 19.96508 l -0.41595,0.41596 -0.41594,-0.41596 v -20.38102 l 0.83189,-0.83186 z m -53.24022,0 h 0.41594 l 0.83188,0.83186 v 20.38102 l -0.83188,0.83189 h -0.41594 l -0.83187,-0.83189 v -20.38102 l 0.41594,-0.41593 0.41593,0.41593 v 0.41594 -0.41594 l -0.41593,-0.41593 z m -105.23261,0 h 0.41594 l 0.83189,0.83186 v 20.38102 l -0.83189,0.83189 h -0.41594 l -0.83187,-0.83189 v -19.96508 l 0.41594,-0.41594 v -0.41593 z m 160.96847,-4.99128 0.41593,-0.41594 0.41593,0.41594 v -0.41594 l 0.41595,-0.41594 0.41594,0.41594 v 0.41594 l 0.41593,0.41595 v 3.32751 h 43.25767 v -0.83189 l -0.41593,-0.41594 v -1.24781 l 0.41593,-0.41593 v -0.83189 l 0.83188,-0.83188 0.41595,0.41594 v 0.41594 l 0.41593,-0.41594 0.41595,0.41594 v 0.41595 l -0.41595,0.41594 v 4.99125 l -0.41593,0.41594 h -45.75332 l -0.41593,-0.41594 v -4.99125 l -0.41593,-0.41594 z m 48.24893,-2.49562 0.41593,0.41593 -0.41593,0.41593 h 0.41593 l 0.41595,0.41594 -0.41595,0.41594 h -0.41593 l -0.83187,0.83188 -0.41595,-0.41594 h -0.41593 l -0.41595,-0.41594 v -0.41594 l 0.83188,-0.83187 h 0.41595 l 0.41593,-0.41593 z m -47.00112,1.66374 -0.41595,0.41594 h -0.41593 l -0.41593,0.41594 -0.8319,-0.83188 h -0.41593 l -0.41593,-0.41594 h -2.07971 l -0.41594,-0.41594 0.41594,-0.41593 h 2.49564 l 0.41593,-0.41593 h 0.41594 l 0.41596,0.41593 h 0.41593 l 0.83188,0.83187 z m -110.63981,-1.24781 -0.41594,0.41593 0.41594,0.41594 -1.24783,0.83188 v 0.41594 l -0.41593,0.41595 v 0.83187 l -0.41595,0.41593 v 4.15939 l -0.41593,0.41594 h -45.33737 l -0.41595,-0.41594 v -4.99125 l -0.41593,-0.41594 v -0.41595 l -0.83187,-0.83188 1.2478,-0.83188 1.24783,1.24782 v 0.41594 l -0.41595,0.41595 v 0.83187 -0.83187 l 0.41595,-0.41595 0.41594,0.41595 v 3.32751 h 42.84173 v -2.91157 l 0.41595,-0.41594 v -0.83189 l 1.66375,-1.66375 h 0.41593 l 0.41593,-0.41593 h 0.41596 z m -52.40834,0 -0.41594,0.41593 0.41594,0.41594 -0.41594,0.41594 h -0.41594 l -0.83189,0.83188 -0.41593,-0.41594 -0.41594,0.41594 0.41594,-0.41594 0.41593,0.41594 v 0.41595 l -0.41593,0.41594 v 4.99125 l -0.41594,0.41594 H 254.683 l -0.41593,-0.41594 0.41593,-0.41593 h 0.83189 -0.83189 l -0.41593,-0.41593 v -4.57533 l 0.83189,-1.24783 0.83187,1.24783 v 2.91158 l 0.41593,0.41593 h 42.84174 v -2.91157 l 0.41593,-0.41594 v -0.83189 l 2.07971,-2.07968 h 0.83187 z m 104.81666,-0.41593 0.41595,-0.41595 h 2.49562 l 0.41594,0.41595 1.24782,0.41593 0.83188,0.83187 v 0.41594 l 0.83187,1.24783 v 3.32751 h 43.25767 v -2.91157 l 0.41595,-0.41594 0.41595,-1.24783 0.83188,-0.83188 0.41593,0.41594 0.41593,1.24782 -0.83186,1.24782 v 4.57532 l -0.41595,0.41594 h -45.7533 l -0.41595,-0.41594 v -4.99125 l -0.41593,-0.41594 v -0.41595 l 0.41593,-0.41594 0.41595,0.41594 -0.41595,-0.41594 -0.41593,0.41594 -0.83189,-0.83188 h -0.41594 l -0.41593,-0.41594 h -2.07969 l -0.41595,-0.41594 0.41595,-0.41593 h 2.07969 -2.07969 z m -52.82426,0 0.41594,-0.41595 h 2.49563 l 0.41594,0.41595 1.24782,0.41593 1.24781,1.24781 v 0.41594 l 0.41594,0.41594 v 0.83189 l 0.41594,0.41593 v 2.49564 h 42.84173 v -2.91157 l 0.41594,-0.41594 0.41595,0.41594 -0.41595,-0.41594 v -0.83189 l 0.83188,-0.83188 0.41594,0.41594 h 0.41593 l 0.41595,0.41594 v 0.41594 l -0.83188,0.83189 v 4.99125 l -0.41594,0.41594 h -45.75331 l -0.41593,-0.41594 0.41593,-0.41593 v -3.32751 l -0.41593,-0.41595 v -0.83186 l -0.41594,-0.41594 v -0.41595 l -0.83188,-0.83188 h -0.41594 l -0.41595,-0.41594 h -2.07968 l -0.41594,-0.41594 0.41594,-0.41593 h 2.07968 -2.07968 z m -52.40834,0 0.41594,-0.41595 h 2.49563 l 0.41595,0.41595 h 0.41593 l 0.83187,0.83186 -0.41593,0.41594 h -0.41594 l -0.41593,0.41594 h -0.41595 l -0.41593,-0.41594 0.41593,-0.41594 -0.41593,-0.41593 h -2.0797 z m -52.82427,0 0.41594,-0.41595 h 2.49564 l 0.41593,0.41595 h 0.41594 l 0.41594,0.41593 h 0.41594 l 0.83189,0.83187 v 0.41594 l -0.41596,0.41594 h -0.41593 l -0.41594,0.41594 -0.83188,-0.83188 h -0.41593 l -0.41594,-0.41594 0.41594,-0.41594 -0.41594,-0.41593 h -2.0797 z m -81.10814,-38.682364 0.41594,0.415938 v 32.027326 l -0.41594,0.41594 h -16.22162 l -0.41595,-0.41594 h -1.24783 l -0.41593,-0.41594 h -0.41593 l -0.83188,-0.83187 h -0.41594 l -0.41594,-0.415956 v -0.415935 l -0.83188,-0.83188 v -0.415935 l -0.41594,-0.415934 v -3.743456 l 0.41594,-0.415934 v -0.831892 l 0.41593,-0.415934 v -0.831869 l 0.41595,-0.415946 V 90.43291 l 0.41594,-0.415957 v -0.831869 l 0.41594,-0.415934 v -0.831881 l 0.41594,-0.415934 v -0.831892 l 0.41594,-0.415934 v -0.415946 l 0.41593,-0.415934 V 84.60976 l 0.41593,-0.415946 v -0.415935 l 0.41595,-0.415945 v -0.83188 l 0.41594,-0.415936 v -0.831876 l 0.41594,-0.415937 v -0.831889 l 0.41595,-0.415937 v -0.831876 l 0.41593,-0.415936 v -0.415938 l 0.41594,-0.415937 v -0.831889 l 0.41593,-0.415937 v -0.415943 l 0.41595,-0.415938 v -0.415937 l 0.41593,-0.415938 v -0.415937 l 2.49564,-2.495638 h 0.41594 l 0.41593,-0.415938 h 0.41595 l 0.41594,-0.415937 h 0.83188 l 0.41594,-0.415938 h 1.24781 l 0.41594,-0.415951 h 2.07969 l 0.41595,-0.415937 h 2.49563 l 0.41594,-0.415938 z m 4.57533,-0.415938 h 2.49564 l 0.41593,-0.415936 h 23.70854 l 0.41593,0.415936 h 2.49564 l 0.41594,0.415938 h 0.83188 l 0.41593,0.415938 h 0.41594 l 0.83189,0.831888 h 0.41593 l 0.41595,0.415938 v 0.415937 l 0.83187,0.831875 v 0.415937 l 0.41593,0.415938 v 0.831888 l 0.41595,0.415938 V 97.08793 l -0.41595,0.415945 -0.41593,1.247804 -2.49564,2.495641 h -0.83187 l -0.41595,0.41594 h -1.2478 l -0.41595,0.41594 h -28.6998 l -0.41594,-0.41594 V 69.219996 Z"
     fill="#000000"
     fill-rule="evenodd"
     id="path4"
     style="stroke-width:0.415939" />
</svg>
