<svg xmlns="http://www.w3.org/2000/svg" width="1448" height="1086" viewBox="0 0 1448 1086">
<rect width="100%" height="100%" fill="white"/>
<path d="M 1002,630 L 991,634 L 990,635 L 991,639 L 989,641 L 986,640 L 988,641 L 984,643 L 981,640 L 979,640 L 972,645 L 970,644 L 971,645 L 968,648 L 969,651 L 965,655 L 966,656 L 964,658 L 960,655 L 954,661 L 950,667 L 950,670 L 952,672 L 952,674 L 951,675 L 950,674 L 951,676 L 948,680 L 945,678 L 943,679 L 937,694 L 942,699 L 940,706 L 935,708 L 935,723 L 940,725 L 940,730 L 941,731 L 940,732 L 938,731 L 939,732 L 936,735 L 940,749 L 943,755 L 945,756 L 948,754 L 952,760 L 949,764 L 949,766 L 958,777 L 962,774 L 968,780 L 966,785 L 975,792 L 978,793 L 982,790 L 988,794 L 987,795 L 988,799 L 993,800 L 999,803 L 1004,799 L 1007,799 L 1010,801 L 1011,805 L 1013,806 L 1025,806 L 1027,801 L 1031,801 L 1032,800 L 1035,805 L 1044,804 L 1049,802 L 1050,799 L 1049,798 L 1051,796 L 1056,794 L 1061,798 L 1070,793 L 1072,790 L 1070,787 L 1074,783 L 1077,782 L 1080,785 L 1082,784 L 1091,774 L 1089,769 L 1092,764 L 1094,763 L 1097,765 L 1100,762 L 1105,751 L 1101,747 L 1104,740 L 1108,741 L 1110,737 L 1111,724 L 1109,724 L 1107,722 L 1107,716 L 1111,713 L 1110,702 L 1109,700 L 1105,699 L 1103,694 L 1107,690 L 1102,677 L 1100,674 L 1096,675 L 1091,669 L 1094,665 L 1085,654 L 1080,656 L 1075,652 L 1076,646 L 1065,639 L 1061,642 L 1059,641 L 1060,640 L 1059,639 L 1060,640 L 1057,641 L 1054,639 L 1054,637 L 1055,636 L 1056,638 L 1054,634 L 1042,630 L 1038,634 L 1032,634 L 1030,632 L 1030,628 L 1015,628 L 1014,633 L 1008,635 L 1005,630 Z M 1016,694 L 1020,694 L 1021,693 L 1025,693 L 1026,694 L 1029,694 L 1030,695 L 1032,695 L 1033,696 L 1034,696 L 1036,698 L 1037,698 L 1042,703 L 1042,704 L 1043,705 L 1043,706 L 1044,707 L 1044,708 L 1045,709 L 1045,711 L 1046,712 L 1046,722 L 1045,723 L 1045,725 L 1044,726 L 1044,728 L 1042,730 L 1042,731 L 1037,736 L 1036,736 L 1035,735 L 1036,736 L 1034,738 L 1033,738 L 1032,739 L 1030,739 L 1029,740 L 1017,740 L 1016,739 L 1014,739 L 1013,738 L 1012,738 L 1011,737 L 1010,737 L 1008,735 L 1009,734 L 1008,733 L 1007,734 L 1005,732 L 1006,731 L 1005,732 L 1003,730 L 1003,729 L 1002,728 L 1002,727 L 1001,726 L 1001,725 L 1000,724 L 1000,721 L 999,720 L 999,714 L 1000,713 L 1000,710 L 1001,709 L 1001,707 L 1003,705 L 1003,704 L 1005,702 L 1005,701 L 1007,699 L 1008,699 L 1010,697 L 1011,697 L 1012,696 L 1013,696 L 1014,695 L 1015,695 Z" fill="black" fill-rule="evenodd"/>
<path d="M 225,624 L 215,628 L 215,633 L 214,634 L 208,636 L 204,633 L 195,639 L 192,642 L 194,645 L 193,648 L 189,652 L 186,650 L 184,650 L 176,659 L 174,663 L 177,667 L 173,674 L 168,674 L 166,676 L 162,688 L 162,690 L 166,693 L 165,700 L 159,702 L 159,716 L 165,719 L 164,720 L 165,721 L 165,725 L 163,726 L 162,725 L 163,724 L 162,725 L 163,726 L 161,728 L 162,735 L 164,740 L 166,742 L 167,748 L 169,750 L 172,748 L 175,750 L 177,754 L 174,757 L 174,760 L 182,770 L 187,768 L 192,773 L 190,777 L 201,786 L 206,783 L 212,787 L 212,791 L 223,796 L 225,796 L 228,792 L 232,792 L 235,794 L 235,798 L 249,799 L 251,794 L 256,794 L 257,793 L 260,798 L 264,798 L 273,795 L 274,794 L 274,790 L 280,787 L 285,791 L 296,784 L 295,779 L 300,775 L 303,777 L 305,777 L 315,767 L 315,765 L 313,763 L 314,760 L 316,758 L 317,759 L 323,756 L 329,744 L 326,740 L 327,734 L 328,733 L 332,733 L 334,729 L 335,719 L 331,716 L 331,709 L 335,707 L 334,695 L 333,693 L 329,693 L 328,692 L 327,686 L 328,685 L 329,686 L 328,685 L 331,682 L 324,667 L 322,667 L 320,669 L 319,668 L 320,666 L 319,667 L 315,662 L 318,659 L 317,656 L 309,648 L 305,650 L 299,645 L 301,641 L 291,633 L 288,633 L 285,636 L 282,634 L 284,633 L 281,634 L 280,633 L 281,631 L 280,633 L 279,632 L 279,628 L 278,627 L 269,624 L 264,624 L 262,628 L 256,627 L 254,622 L 240,622 L 238,627 L 237,624 L 235,625 L 237,626 L 235,628 L 232,628 L 229,624 Z M 241,687 L 253,687 L 254,688 L 256,688 L 257,689 L 256,690 L 257,689 L 258,689 L 259,690 L 260,690 L 267,697 L 267,698 L 269,700 L 269,702 L 270,703 L 270,706 L 271,707 L 271,713 L 270,714 L 270,717 L 269,718 L 269,720 L 267,722 L 267,723 L 260,730 L 259,730 L 258,731 L 257,731 L 256,732 L 254,732 L 253,733 L 241,733 L 240,732 L 238,732 L 237,731 L 236,731 L 234,729 L 233,729 L 227,723 L 227,722 L 226,721 L 226,720 L 225,719 L 225,717 L 224,716 L 224,705 L 225,704 L 225,702 L 226,701 L 226,699 L 229,696 L 229,695 L 233,691 L 234,691 L 236,689 L 237,689 L 238,688 L 240,688 Z" fill="black" fill-rule="evenodd"/>
<path d="M 136,541 L 134,541 L 133,542 L 132,542 L 132,543 L 131,544 L 131,585 L 133,587 L 134,587 L 135,588 L 136,587 L 138,587 L 140,585 L 141,585 L 142,584 L 143,584 L 149,578 L 149,577 L 150,576 L 150,575 L 151,574 L 151,573 L 152,572 L 152,569 L 153,568 L 153,560 L 152,559 L 152,556 L 151,555 L 151,554 L 150,553 L 150,552 L 142,544 L 141,544 L 140,543 L 139,543 L 138,542 L 137,542 Z" fill="black" fill-rule="evenodd"/>
<path d="M 1338,323 L 1313,283 L 1285,274 L 662,281 L 633,304 L 627,339 L 627,502 L 652,507 L 659,494 L 655,513 L 627,517 L 627,601 L 651,606 L 650,626 L 616,628 L 616,411 L 604,381 L 573,364 L 483,362 L 425,376 L 409,390 L 377,488 L 367,481 L 201,488 L 180,481 L 155,489 L 145,505 L 144,542 L 157,564 L 144,586 L 145,607 L 199,569 L 275,562 L 318,578 L 351,605 L 390,682 L 568,682 L 566,690 L 386,690 L 361,631 L 334,598 L 305,579 L 262,567 L 223,569 L 182,585 L 148,614 L 128,645 L 107,644 L 126,646 L 95,638 L 92,676 L 152,670 L 193,630 L 245,615 L 286,622 L 313,638 L 361,714 L 569,710 L 584,701 L 589,682 L 660,683 L 672,695 L 898,695 L 915,719 L 938,668 L 958,645 L 986,628 L 1022,621 L 1053,626 L 1085,644 L 1109,673 L 1128,721 L 1137,715 L 1136,700 L 1171,671 L 1252,670 L 1255,697 L 1279,701 L 1287,669 L 1315,669 L 1316,630 L 1327,625 L 1327,606 L 1340,601 L 1340,516 L 1306,513 L 1302,496 L 1309,507 L 1349,502 Z M 1127,672 L 1128,671 L 1151,671 L 1152,672 L 1149,675 L 1148,675 L 1144,679 L 1143,679 L 1139,683 L 1138,683 L 1134,687 L 1133,687 L 1132,686 L 1132,683 L 1131,682 L 1131,681 L 1130,680 L 1130,678 L 1129,677 L 1129,676 L 1128,675 L 1128,673 Z M 1275,669 L 1276,670 L 1276,671 L 1275,672 L 1275,689 L 1274,690 L 1265,690 L 1263,688 L 1263,671 L 1264,670 L 1271,670 L 1272,671 L 1271,672 L 1273,672 L 1272,671 L 1274,669 Z M 1288,606 L 1289,605 L 1311,605 L 1312,606 L 1312,621 L 1311,622 L 1310,621 L 1310,620 L 1309,620 L 1310,621 L 1309,622 L 1289,622 L 1288,621 L 1288,616 L 1289,615 L 1289,607 Z M 1151,606 L 1152,605 L 1264,605 L 1265,606 L 1264,607 L 1265,608 L 1265,621 L 1264,622 L 1152,622 L 1151,621 L 1152,620 L 1151,619 L 1151,611 L 1152,610 L 1152,607 Z M 801,606 L 802,605 L 886,605 L 887,606 L 887,624 L 886,625 L 802,625 L 801,624 Z M 675,606 L 676,605 L 775,605 L 776,606 L 775,607 L 773,607 L 774,608 L 774,609 L 774,608 L 775,607 L 776,608 L 776,624 L 775,625 L 762,625 L 761,626 L 676,626 L 675,625 Z M 911,606 L 912,605 L 980,605 L 981,604 L 984,604 L 988,602 L 996,601 L 997,600 L 1010,601 L 1003,601 L 1002,600 L 1003,599 L 1009,599 L 1010,598 L 1034,598 L 1035,599 L 1041,599 L 1042,600 L 1041,601 L 1034,601 L 1047,600 L 1048,601 L 1059,603 L 1063,605 L 1126,605 L 1127,606 L 1127,621 L 1126,622 L 1112,622 L 1107,625 L 1107,630 L 1115,646 L 1115,648 L 1114,649 L 1108,641 L 1094,628 L 1081,619 L 1065,611 L 1063,611 L 1054,607 L 1051,607 L 1050,606 L 1047,606 L 1042,604 L 1037,604 L 1036,603 L 1025,603 L 1024,602 L 1022,603 L 1009,603 L 1008,604 L 1002,604 L 1001,605 L 997,605 L 996,606 L 989,607 L 980,611 L 978,611 L 969,616 L 967,616 L 950,627 L 937,639 L 935,637 L 937,639 L 933,643 L 932,642 L 933,644 L 929,648 L 928,646 L 931,640 L 931,638 L 935,631 L 935,628 L 930,624 L 921,624 L 920,625 L 912,624 L 911,623 Z M 1172,511 L 1173,512 L 1173,561 L 1172,562 L 1171,561 L 1171,512 Z M 918,511 L 919,512 L 919,561 L 917,563 L 916,563 L 914,561 L 914,541 L 915,540 L 915,538 L 914,537 L 914,527 L 915,526 L 915,524 L 914,523 L 914,514 L 916,512 L 917,512 Z M 661,511 L 663,511 L 664,512 L 664,562 L 663,563 L 662,563 L 661,562 L 662,561 L 661,562 L 660,561 L 660,512 Z M 1297,510 L 1298,510 L 1299,511 L 1298,512 L 1298,541 L 1298,512 L 1299,511 L 1300,512 L 1300,561 L 1299,562 L 1298,561 L 1298,550 L 1298,561 L 1299,562 L 1298,563 L 1297,563 L 1295,561 L 1296,560 L 1295,559 L 1295,554 L 1296,553 L 1296,550 L 1295,549 L 1295,512 Z M 1171,510 L 1172,511 L 1170,513 L 1170,561 L 1169,562 L 1168,561 L 1168,512 L 1170,510 Z M 1043,510 L 1044,510 L 1046,512 L 1046,561 L 1044,563 L 1043,563 L 1041,561 L 1041,512 L 1042,511 L 1043,512 L 1043,513 L 1043,512 L 1042,511 Z M 790,510 L 791,510 L 793,512 L 793,561 L 791,563 L 790,563 L 788,561 L 788,513 L 789,512 L 789,511 Z M 1177,498 L 1178,497 L 1179,498 L 1179,497 L 1180,496 L 1181,497 L 1181,498 L 1182,499 L 1182,507 L 1286,507 L 1286,505 L 1285,504 L 1285,501 L 1286,500 L 1286,498 L 1288,496 L 1289,497 L 1289,498 L 1290,497 L 1291,498 L 1291,499 L 1290,500 L 1290,512 L 1289,513 L 1179,513 L 1178,512 L 1178,500 L 1177,499 Z M 1293,492 L 1294,493 L 1293,494 L 1294,494 L 1295,495 L 1294,496 L 1293,496 L 1291,498 L 1290,497 L 1289,497 L 1288,496 L 1288,495 L 1290,493 L 1291,493 L 1292,492 Z M 1180,496 L 1179,497 L 1178,497 L 1177,498 L 1175,496 L 1174,496 L 1173,495 L 1168,495 L 1167,494 L 1168,493 L 1174,493 L 1175,492 L 1176,492 L 1177,493 L 1178,493 L 1180,495 Z M 914,493 L 913,494 L 914,495 L 911,497 L 911,498 L 910,499 L 910,501 L 909,502 L 909,512 L 908,513 L 799,513 L 798,512 L 798,500 L 797,499 L 797,498 L 795,496 L 798,494 L 801,497 L 801,498 L 800,499 L 800,501 L 800,499 L 801,498 L 802,499 L 802,507 L 905,507 L 905,500 L 906,499 L 906,497 L 910,493 L 911,493 L 912,492 L 913,492 Z M 788,493 L 787,494 L 788,495 L 787,496 L 786,496 L 784,498 L 783,497 L 782,498 L 783,497 L 784,498 L 784,499 L 783,500 L 783,512 L 782,513 L 672,513 L 671,512 L 672,511 L 674,511 L 672,511 L 671,510 L 671,499 L 673,496 L 675,499 L 675,506 L 676,507 L 779,507 L 779,500 L 780,499 L 780,497 L 785,492 L 787,492 Z M 1040,492 L 1041,491 L 1047,491 L 1048,492 L 1051,493 L 1053,495 L 1053,496 L 1055,499 L 1055,507 L 1159,507 L 1159,500 L 1160,499 L 1161,496 L 1163,494 L 1164,495 L 1165,498 L 1163,501 L 1163,512 L 1162,513 L 1052,513 L 1051,512 L 1051,500 L 1050,499 L 1050,498 L 1051,497 L 1052,498 L 1051,497 L 1050,498 L 1048,496 L 1047,496 L 1046,495 L 1041,495 L 1040,494 L 1041,493 L 1046,493 L 1041,493 Z M 913,492 L 914,491 L 920,491 L 921,492 L 924,493 L 927,496 L 927,497 L 928,498 L 928,500 L 929,501 L 929,507 L 1032,507 L 1032,500 L 1033,499 L 1034,500 L 1033,499 L 1033,497 L 1035,495 L 1036,496 L 1037,496 L 1038,497 L 1038,498 L 1036,500 L 1036,512 L 1035,513 L 925,513 L 924,512 L 925,511 L 925,503 L 924,502 L 924,500 L 923,499 L 923,498 L 921,496 L 920,496 L 919,495 L 914,495 L 913,494 L 914,493 L 919,493 L 914,493 Z M 787,492 L 788,491 L 794,491 L 795,492 L 796,492 L 798,494 L 797,495 L 796,495 L 795,496 L 794,496 L 793,495 L 794,494 L 793,493 L 788,493 Z M 660,492 L 661,491 L 667,491 L 668,492 L 669,492 L 670,493 L 671,493 L 673,495 L 673,496 L 672,497 L 671,497 L 670,498 L 668,496 L 667,496 L 666,495 L 667,494 L 666,493 L 661,493 Z M 465,399 L 466,400 L 466,477 L 465,478 L 426,478 L 425,477 L 422,477 L 421,476 L 420,476 L 418,474 L 417,474 L 416,473 L 416,472 L 414,470 L 414,469 L 413,468 L 413,459 L 414,458 L 414,456 L 415,455 L 415,453 L 416,452 L 416,450 L 417,449 L 417,447 L 418,446 L 418,444 L 419,443 L 419,441 L 420,440 L 420,439 L 421,438 L 421,436 L 422,435 L 422,434 L 423,433 L 423,431 L 424,430 L 424,428 L 425,427 L 425,425 L 426,424 L 426,422 L 427,421 L 427,420 L 428,419 L 428,417 L 429,416 L 429,415 L 430,414 L 430,413 L 431,412 L 431,411 L 437,405 L 438,405 L 439,404 L 440,404 L 441,403 L 443,403 L 444,402 L 447,402 L 448,401 L 453,401 L 454,400 L 460,400 L 461,399 Z M 476,398 L 482,398 L 483,397 L 540,397 L 541,398 L 547,398 L 548,399 L 550,399 L 551,400 L 552,400 L 554,402 L 555,402 L 556,403 L 556,404 L 558,406 L 558,407 L 559,408 L 559,410 L 560,411 L 560,466 L 559,467 L 558,470 L 552,476 L 550,476 L 549,477 L 546,477 L 545,478 L 476,478 L 475,477 L 475,399 Z" fill="black" fill-rule="evenodd"/>
</svg>