<svg xmlns="http://www.w3.org/2000/svg" width="1448" height="1086" viewBox="0 0 1448 1086">
<rect width="100%" height="100%" fill="white"/>
<path d="M 1300,549 L 1261,548 L 1259,611 L 1256,451 L 1185,451 L 1183,368 L 1195,360 L 1183,353 L 1181,305 L 1130,286 L 1104,303 L 1023,289 L 931,285 L 926,270 L 881,270 L 870,288 L 816,294 L 803,287 L 798,297 L 712,308 L 699,300 L 653,511 L 609,511 L 563,476 L 555,451 L 661,464 L 679,373 L 666,372 L 661,380 L 309,341 L 192,315 L 183,356 L 189,364 L 233,370 L 296,365 L 534,400 L 533,413 L 506,413 L 498,430 L 529,447 L 560,510 L 414,507 L 367,531 L 359,508 L 349,509 L 355,535 L 337,543 L 341,570 L 287,585 L 217,589 L 166,610 L 167,616 L 188,613 L 196,628 L 203,626 L 183,642 L 189,649 L 173,673 L 179,694 L 172,700 L 185,715 L 183,727 L 192,727 L 201,744 L 211,742 L 218,752 L 229,750 L 255,767 L 336,795 L 1078,795 L 1189,757 L 1191,750 L 1206,751 L 1209,741 L 1228,734 L 1224,728 L 1240,718 L 1235,705 L 1244,696 L 1235,676 L 1240,665 L 1230,660 L 1228,645 L 1243,640 L 1250,656 L 1258,657 L 1275,632 L 1299,625 Z M 1064,782 L 1065,781 L 1068,781 L 1069,782 L 1071,782 L 1072,781 L 1073,782 L 1073,784 L 1072,785 L 1066,785 L 1064,783 Z M 870,784 L 870,783 L 872,781 L 878,781 L 879,782 L 878,783 L 878,784 L 877,785 L 871,785 Z M 734,784 L 734,782 L 735,781 L 740,781 L 741,782 L 742,781 L 743,782 L 743,783 L 741,785 L 735,785 Z M 340,783 L 341,782 L 344,782 L 345,781 L 348,781 L 349,782 L 349,784 L 348,785 L 342,785 Z M 656,781 L 657,780 L 658,781 L 664,781 L 665,782 L 665,784 L 664,785 L 658,785 L 656,783 Z M 519,781 L 520,780 L 521,781 L 521,782 L 522,781 L 527,781 L 528,782 L 528,784 L 527,785 L 520,785 L 519,784 Z M 470,781 L 469,782 L 469,784 L 468,785 L 461,785 L 460,784 L 460,782 L 461,781 L 466,781 L 467,780 L 469,780 Z M 957,780 L 957,781 L 956,782 L 956,784 L 955,785 L 949,785 L 948,784 L 948,782 L 949,781 L 953,781 L 954,780 L 955,780 L 956,779 Z M 442,779 L 443,778 L 444,778 L 445,779 L 447,779 L 448,780 L 449,780 L 450,781 L 449,782 L 449,784 L 448,785 L 442,785 L 441,784 L 441,781 L 442,780 L 443,780 Z M 927,777 L 928,776 L 930,778 L 931,778 L 932,779 L 933,779 L 934,780 L 935,780 L 937,782 L 937,784 L 936,785 L 929,785 L 928,784 L 928,780 L 927,779 Z M 685,776 L 686,777 L 686,778 L 685,779 L 685,782 L 684,783 L 684,784 L 683,785 L 677,785 L 676,784 L 676,782 L 675,781 L 676,780 L 678,780 L 679,779 L 680,779 L 681,778 L 683,778 Z M 550,777 L 549,778 L 549,779 L 548,780 L 548,782 L 547,783 L 547,784 L 546,785 L 540,785 L 539,784 L 539,783 L 538,782 L 540,780 L 542,780 L 543,779 L 544,779 L 545,778 L 546,778 L 548,776 L 549,776 Z M 321,778 L 323,776 L 324,777 L 325,777 L 326,778 L 327,778 L 328,779 L 327,780 L 326,780 L 325,781 L 323,781 L 321,779 Z M 1091,774 L 1092,775 L 1092,780 L 1091,781 L 1090,781 L 1088,779 L 1087,780 L 1086,780 L 1089,780 L 1090,781 L 1089,782 L 1086,782 L 1085,783 L 1084,782 L 1084,781 L 1083,780 L 1083,779 L 1084,778 L 1086,778 L 1088,776 L 1089,776 Z M 1184,741 L 1185,740 L 1188,740 L 1189,741 L 1188,742 L 1187,742 L 1190,742 L 1191,743 L 1190,744 L 1189,744 L 1188,745 L 1186,745 L 1185,744 L 1185,743 L 1184,742 Z M 229,740 L 230,739 L 232,739 L 233,740 L 233,742 L 240,742 L 241,743 L 237,747 L 236,746 L 235,746 L 234,745 L 235,744 L 237,744 L 235,744 L 234,745 L 232,745 L 231,744 L 231,741 L 230,741 Z M 213,734 L 214,733 L 215,733 L 216,734 L 217,734 L 218,735 L 219,735 L 220,736 L 221,736 L 222,737 L 221,738 L 220,738 L 219,739 L 218,739 L 217,738 L 218,737 L 217,738 L 216,738 L 214,736 L 214,735 Z M 198,721 L 199,720 L 207,728 L 206,729 L 205,729 L 204,728 L 203,728 L 202,729 L 197,724 L 198,723 Z M 1222,714 L 1223,715 L 1223,716 L 1222,717 L 1222,719 L 1223,720 L 1220,723 L 1218,723 L 1217,724 L 1216,723 L 1216,722 L 1218,720 L 1218,719 L 1220,717 L 1220,716 Z M 973,714 L 974,713 L 987,713 L 988,714 L 988,715 L 993,720 L 994,720 L 996,722 L 998,722 L 999,723 L 1010,723 L 1011,722 L 1013,722 L 1014,721 L 1015,721 L 1018,718 L 1019,718 L 1019,717 L 1023,713 L 1051,713 L 1054,718 L 1050,721 L 1049,721 L 1044,726 L 1044,727 L 1042,729 L 1042,730 L 1039,734 L 1039,736 L 1038,737 L 1038,740 L 1037,741 L 1037,754 L 1038,755 L 1038,758 L 1039,759 L 1039,761 L 1040,762 L 1041,765 L 1043,767 L 1043,768 L 1049,774 L 1050,774 L 1055,778 L 1054,779 L 1054,782 L 1053,783 L 1053,784 L 1052,785 L 1046,785 L 1045,784 L 1045,781 L 1044,780 L 1044,778 L 1043,777 L 1043,776 L 1037,776 L 1035,779 L 1035,782 L 1033,785 L 1027,785 L 1025,782 L 1025,779 L 1024,778 L 1024,777 L 1023,776 L 1018,776 L 1017,777 L 1016,777 L 1016,779 L 1015,780 L 1015,783 L 1013,785 L 1008,785 L 1007,784 L 1008,783 L 1009,783 L 1008,783 L 1007,784 L 1006,783 L 1006,780 L 1005,779 L 1005,777 L 1004,777 L 1003,776 L 998,776 L 996,779 L 996,783 L 994,785 L 988,785 L 987,784 L 987,782 L 986,781 L 986,778 L 984,776 L 979,776 L 978,777 L 977,777 L 977,780 L 976,781 L 976,783 L 974,785 L 968,785 L 967,784 L 967,781 L 966,780 L 966,777 L 965,777 L 964,776 L 964,775 L 965,774 L 966,774 L 972,768 L 972,767 L 974,765 L 974,764 L 976,761 L 976,759 L 977,758 L 977,756 L 978,755 L 978,741 L 977,740 L 977,737 L 976,736 L 973,729 L 968,723 L 972,720 L 972,716 L 973,715 Z M 896,713 L 918,713 L 919,714 L 919,716 L 920,717 L 920,718 L 923,721 L 923,722 L 918,727 L 918,728 L 917,729 L 917,730 L 915,732 L 915,733 L 914,734 L 914,736 L 913,737 L 913,739 L 912,740 L 912,755 L 913,756 L 913,758 L 914,759 L 914,761 L 915,762 L 915,763 L 916,764 L 916,765 L 918,767 L 918,768 L 924,774 L 925,774 L 926,775 L 925,776 L 920,776 L 919,777 L 919,779 L 918,780 L 918,782 L 917,783 L 917,784 L 916,785 L 910,785 L 909,784 L 909,783 L 908,782 L 908,779 L 907,778 L 907,777 L 906,776 L 901,776 L 899,778 L 899,780 L 898,781 L 898,784 L 897,785 L 890,785 L 889,784 L 889,781 L 888,780 L 888,777 L 890,775 L 891,775 L 898,768 L 898,767 L 900,765 L 900,764 L 901,763 L 901,762 L 902,761 L 902,759 L 903,758 L 903,755 L 904,754 L 904,741 L 903,740 L 903,738 L 902,737 L 902,735 L 901,734 L 901,733 L 900,732 L 900,731 L 899,730 L 899,729 L 895,725 L 895,724 L 894,723 L 893,723 L 891,721 L 891,720 L 894,717 L 894,716 L 895,715 L 895,714 Z M 760,719 L 762,718 L 767,713 L 790,713 L 795,719 L 796,719 L 798,721 L 802,723 L 813,723 L 814,722 L 816,722 L 818,721 L 826,713 L 852,713 L 854,715 L 854,718 L 852,720 L 851,720 L 843,728 L 840,734 L 839,739 L 838,740 L 838,746 L 837,747 L 837,749 L 838,750 L 838,755 L 839,756 L 839,759 L 843,767 L 852,776 L 860,780 L 859,781 L 859,784 L 858,785 L 852,785 L 850,782 L 850,779 L 848,776 L 843,776 L 841,777 L 841,779 L 840,780 L 840,783 L 838,785 L 833,785 L 831,783 L 831,780 L 830,779 L 830,777 L 828,776 L 823,776 L 821,779 L 821,782 L 819,785 L 813,785 L 812,784 L 812,781 L 811,780 L 811,778 L 809,776 L 804,776 L 802,778 L 802,780 L 801,781 L 801,784 L 800,785 L 794,785 L 792,783 L 792,779 L 790,776 L 784,776 L 782,779 L 782,782 L 780,785 L 775,785 L 773,783 L 773,780 L 770,776 L 764,776 L 763,778 L 763,782 L 761,785 L 755,785 L 753,782 L 753,780 L 756,778 L 758,778 L 760,776 L 764,774 L 767,771 L 767,770 L 771,766 L 773,762 L 773,760 L 775,756 L 775,753 L 776,752 L 776,744 L 775,743 L 775,739 L 774,738 L 774,736 L 770,728 L 763,721 L 762,721 Z M 687,713 L 720,713 L 722,715 L 722,716 L 723,717 L 723,718 L 724,719 L 722,721 L 721,721 L 716,726 L 716,727 L 714,729 L 714,730 L 712,732 L 712,734 L 711,735 L 711,736 L 710,737 L 710,739 L 709,740 L 709,754 L 710,755 L 710,758 L 711,759 L 711,761 L 712,762 L 712,763 L 714,765 L 714,766 L 716,768 L 716,769 L 721,774 L 722,774 L 725,777 L 725,780 L 724,781 L 724,782 L 723,783 L 723,784 L 722,785 L 716,785 L 715,784 L 715,782 L 714,781 L 714,778 L 712,776 L 707,776 L 705,778 L 705,781 L 704,782 L 704,784 L 703,785 L 696,785 L 695,784 L 695,781 L 694,780 L 694,778 L 692,776 L 688,776 L 687,775 L 690,772 L 691,772 L 691,771 L 695,767 L 695,766 L 696,765 L 696,764 L 697,763 L 697,762 L 698,761 L 698,760 L 699,759 L 699,756 L 700,755 L 700,751 L 701,750 L 701,745 L 700,744 L 700,739 L 699,738 L 699,736 L 698,735 L 698,734 L 697,733 L 697,732 L 696,731 L 696,730 L 695,729 L 695,728 L 693,726 L 694,725 L 693,726 L 687,720 L 686,720 L 684,718 L 684,717 L 685,716 L 685,715 Z M 548,714 L 549,713 L 577,713 L 582,719 L 583,719 L 587,722 L 589,722 L 590,723 L 601,723 L 602,722 L 605,721 L 613,713 L 645,713 L 646,714 L 648,719 L 640,727 L 640,728 L 638,730 L 638,731 L 636,734 L 636,736 L 635,737 L 635,740 L 634,741 L 634,755 L 635,756 L 636,761 L 637,762 L 638,765 L 640,767 L 640,768 L 647,775 L 648,775 L 649,776 L 648,777 L 647,777 L 645,784 L 644,785 L 638,785 L 636,782 L 636,778 L 634,776 L 629,776 L 627,778 L 627,780 L 626,781 L 626,784 L 625,785 L 619,785 L 617,783 L 617,780 L 616,779 L 616,777 L 615,777 L 614,776 L 609,776 L 607,779 L 607,782 L 605,785 L 599,785 L 597,782 L 597,779 L 595,776 L 589,776 L 588,777 L 588,779 L 587,780 L 587,783 L 586,784 L 585,783 L 585,781 L 585,783 L 586,784 L 585,785 L 579,785 L 578,784 L 578,781 L 577,780 L 577,778 L 575,776 L 570,776 L 568,779 L 568,781 L 567,782 L 567,784 L 566,785 L 559,785 L 558,784 L 557,777 L 556,777 L 555,776 L 551,776 L 550,775 L 551,774 L 552,774 L 557,769 L 557,768 L 559,766 L 559,765 L 562,760 L 562,758 L 563,757 L 563,753 L 564,752 L 564,742 L 563,741 L 563,738 L 562,737 L 562,735 L 561,734 L 559,729 L 553,722 L 552,722 L 547,718 L 547,716 L 548,715 Z M 480,713 L 504,713 L 505,714 L 505,716 L 506,717 L 506,718 L 508,720 L 509,720 L 510,721 L 504,727 L 504,728 L 502,730 L 502,731 L 501,732 L 501,733 L 500,734 L 500,735 L 499,736 L 499,738 L 498,739 L 498,743 L 497,744 L 497,749 L 498,750 L 498,755 L 499,756 L 499,759 L 500,760 L 500,761 L 501,762 L 501,763 L 502,764 L 502,765 L 503,766 L 503,767 L 512,776 L 511,777 L 510,777 L 510,778 L 509,779 L 509,782 L 508,783 L 508,784 L 507,785 L 501,785 L 500,784 L 500,783 L 499,782 L 499,779 L 498,778 L 498,777 L 497,776 L 491,776 L 490,777 L 490,779 L 489,780 L 489,782 L 488,783 L 488,784 L 487,785 L 481,785 L 480,784 L 480,782 L 479,781 L 479,778 L 477,776 L 478,775 L 479,775 L 485,769 L 485,768 L 487,766 L 487,765 L 488,764 L 488,763 L 489,762 L 489,761 L 490,760 L 490,758 L 491,757 L 491,754 L 492,753 L 492,742 L 491,741 L 491,738 L 490,737 L 490,735 L 489,734 L 489,733 L 488,732 L 488,731 L 487,730 L 487,729 L 486,728 L 487,727 L 486,728 L 484,726 L 484,725 L 481,722 L 480,722 L 478,720 L 479,719 L 479,718 L 479,719 L 478,720 L 477,720 L 476,719 L 477,718 L 477,717 L 478,716 L 478,715 Z M 358,715 L 360,713 L 387,713 L 389,715 L 389,716 L 392,719 L 393,719 L 395,721 L 396,721 L 397,722 L 399,722 L 400,723 L 410,723 L 411,722 L 413,722 L 415,720 L 416,720 L 423,713 L 431,713 L 432,714 L 432,716 L 433,717 L 434,720 L 436,722 L 430,729 L 430,730 L 427,735 L 427,737 L 426,738 L 426,741 L 425,742 L 425,753 L 426,754 L 426,757 L 427,758 L 427,760 L 428,761 L 430,766 L 432,768 L 432,769 L 437,774 L 438,774 L 439,775 L 438,776 L 433,776 L 431,778 L 431,780 L 430,781 L 430,784 L 429,785 L 421,785 L 419,782 L 419,780 L 418,779 L 418,777 L 417,777 L 416,776 L 411,776 L 409,779 L 409,781 L 408,782 L 408,784 L 407,785 L 400,785 L 398,782 L 398,779 L 396,776 L 390,776 L 389,777 L 389,779 L 388,780 L 388,782 L 386,785 L 380,785 L 379,784 L 379,781 L 378,780 L 378,778 L 376,776 L 371,776 L 369,778 L 369,781 L 368,782 L 368,784 L 367,785 L 361,785 L 359,782 L 359,779 L 358,778 L 367,770 L 367,769 L 369,767 L 369,766 L 371,764 L 371,763 L 372,762 L 372,760 L 374,757 L 374,753 L 375,752 L 375,742 L 374,741 L 374,738 L 373,737 L 373,735 L 372,734 L 370,729 L 364,722 L 363,722 L 360,719 L 359,719 L 358,718 L 359,717 L 360,717 L 359,717 L 358,716 Z M 248,741 L 249,740 L 253,740 L 254,739 L 256,739 L 257,738 L 258,738 L 259,737 L 261,737 L 262,736 L 263,736 L 264,735 L 265,735 L 267,733 L 268,733 L 271,730 L 272,730 L 279,723 L 281,723 L 288,716 L 289,716 L 289,715 L 291,713 L 310,713 L 311,714 L 311,716 L 312,717 L 312,721 L 313,722 L 313,723 L 315,725 L 315,727 L 313,729 L 313,730 L 311,732 L 311,733 L 310,734 L 310,736 L 309,737 L 309,739 L 308,740 L 308,754 L 309,755 L 309,758 L 310,759 L 310,761 L 311,762 L 311,763 L 313,765 L 313,766 L 314,767 L 314,768 L 315,769 L 313,771 L 313,772 L 311,774 L 311,775 L 310,776 L 309,776 L 308,775 L 307,775 L 306,774 L 304,774 L 303,773 L 303,766 L 304,765 L 303,764 L 302,764 L 300,762 L 296,762 L 295,763 L 295,764 L 293,766 L 293,767 L 291,769 L 290,768 L 288,768 L 287,767 L 286,767 L 285,766 L 285,757 L 284,756 L 283,756 L 282,755 L 280,755 L 279,754 L 278,754 L 277,755 L 277,756 L 276,757 L 276,758 L 273,761 L 271,761 L 270,760 L 269,760 L 268,759 L 267,759 L 266,758 L 266,753 L 267,752 L 267,750 L 266,749 L 265,749 L 264,748 L 263,748 L 262,747 L 261,747 L 258,750 L 258,751 L 255,754 L 254,754 L 253,753 L 251,753 L 248,750 L 249,749 L 249,745 L 250,744 L 250,743 Z M 233,706 L 234,706 L 235,707 L 238,707 L 241,710 L 241,716 L 240,717 L 240,718 L 238,720 L 232,720 L 231,719 L 232,718 L 237,718 L 232,718 L 231,719 L 230,719 L 229,718 L 229,716 L 228,715 L 228,711 L 229,710 L 229,709 L 231,707 L 232,707 Z M 251,704 L 253,702 L 254,702 L 255,701 L 258,701 L 259,702 L 260,702 L 261,703 L 261,704 L 262,705 L 262,706 L 263,707 L 263,710 L 261,712 L 260,711 L 259,712 L 255,712 L 254,713 L 251,710 L 251,709 L 250,708 L 250,706 L 251,705 Z M 212,689 L 217,689 L 221,693 L 221,695 L 222,696 L 222,697 L 221,698 L 221,700 L 218,703 L 217,703 L 216,704 L 213,704 L 212,703 L 211,703 L 209,701 L 209,700 L 208,699 L 208,693 Z M 263,676 L 266,676 L 267,677 L 267,687 L 266,688 L 265,687 L 265,686 L 265,687 L 264,688 L 265,687 L 266,688 L 266,689 L 265,690 L 263,690 L 259,686 L 259,681 L 260,680 L 260,679 L 262,677 L 264,679 L 265,679 L 265,678 L 263,678 L 262,677 Z M 1226,667 L 1227,668 L 1227,669 L 1228,670 L 1228,672 L 1229,673 L 1229,677 L 1231,679 L 1231,684 L 1230,685 L 1230,703 L 1227,706 L 1226,705 L 1226,703 L 1227,702 L 1227,698 L 1228,697 L 1228,679 L 1227,678 L 1227,675 L 1226,674 L 1226,671 L 1225,670 L 1225,668 Z M 218,662 L 223,662 L 224,663 L 225,663 L 227,665 L 227,667 L 228,668 L 228,670 L 227,671 L 227,672 L 224,675 L 223,675 L 222,676 L 219,676 L 218,675 L 217,675 L 214,672 L 214,666 Z M 243,655 L 249,655 L 250,656 L 251,656 L 252,657 L 252,658 L 251,659 L 250,658 L 251,659 L 251,660 L 251,659 L 252,658 L 253,659 L 253,665 L 250,668 L 249,668 L 248,669 L 246,669 L 245,668 L 243,668 L 240,665 L 240,663 L 239,662 L 240,661 L 240,658 Z M 213,640 L 214,641 L 212,643 L 211,643 L 208,646 L 207,646 L 200,653 L 200,654 L 198,656 L 198,657 L 196,659 L 196,660 L 194,662 L 194,663 L 193,664 L 193,666 L 192,667 L 192,668 L 191,669 L 191,671 L 190,672 L 190,675 L 189,676 L 189,679 L 188,680 L 188,694 L 189,695 L 189,700 L 190,701 L 190,703 L 191,704 L 191,706 L 192,707 L 192,708 L 190,710 L 189,710 L 188,709 L 188,707 L 189,706 L 189,705 L 188,704 L 188,702 L 187,701 L 187,698 L 186,697 L 186,693 L 184,691 L 184,688 L 186,686 L 186,678 L 187,677 L 187,674 L 188,673 L 188,672 L 187,671 L 187,670 L 188,669 L 188,668 L 189,667 L 190,667 L 190,666 L 191,665 L 191,663 L 192,662 L 192,661 L 193,660 L 193,659 L 196,656 L 196,653 L 197,652 L 198,652 L 199,651 L 199,650 L 201,648 L 202,648 L 208,642 L 209,642 L 211,640 Z M 1187,635 L 1188,634 L 1189,634 L 1190,633 L 1191,633 L 1192,634 L 1193,634 L 1194,635 L 1196,635 L 1198,637 L 1199,637 L 1200,638 L 1201,638 L 1202,639 L 1203,639 L 1205,641 L 1206,641 L 1207,642 L 1208,642 L 1209,643 L 1210,643 L 1211,644 L 1211,645 L 1219,653 L 1219,654 L 1221,656 L 1221,657 L 1222,658 L 1223,658 L 1224,659 L 1224,660 L 1226,662 L 1226,663 L 1225,664 L 1225,665 L 1224,666 L 1223,665 L 1223,664 L 1222,663 L 1222,662 L 1221,661 L 1221,660 L 1219,658 L 1219,657 L 1216,654 L 1216,653 L 1207,644 L 1206,644 L 1205,643 L 1204,643 L 1202,641 L 1201,641 L 1200,640 L 1199,640 L 1198,639 L 1197,639 L 1196,638 L 1194,638 L 1193,637 L 1192,637 L 1191,636 L 1188,636 Z M 332,639 L 333,638 L 333,635 L 334,634 L 334,633 L 335,632 L 341,632 L 342,633 L 342,635 L 343,636 L 343,639 L 342,640 L 333,640 Z M 1167,633 L 1168,632 L 1170,632 L 1171,631 L 1177,631 L 1178,632 L 1182,632 L 1183,633 L 1182,634 L 1168,634 Z M 908,637 L 909,636 L 909,634 L 910,633 L 910,632 L 911,631 L 917,631 L 918,632 L 918,633 L 919,634 L 919,636 L 920,637 L 919,638 L 909,638 Z M 525,632 L 526,631 L 533,631 L 534,632 L 534,636 L 535,637 L 534,638 L 525,638 L 524,637 L 525,636 L 530,636 L 529,636 L 528,635 L 528,634 L 527,633 L 527,635 L 526,636 L 525,635 Z M 428,638 L 429,637 L 429,636 L 430,635 L 430,632 L 431,631 L 437,631 L 438,632 L 438,636 L 439,637 L 438,638 L 437,638 L 436,639 L 429,639 Z M 411,632 L 412,631 L 417,631 L 419,633 L 419,637 L 420,638 L 419,639 L 418,639 L 416,637 L 412,637 L 411,638 L 410,637 L 410,636 L 411,635 Z M 392,633 L 394,631 L 399,631 L 400,632 L 400,636 L 401,637 L 401,638 L 400,639 L 394,639 L 393,640 L 392,640 L 391,639 L 391,636 L 392,635 Z M 371,639 L 371,637 L 372,636 L 372,634 L 373,633 L 373,632 L 374,631 L 380,631 L 381,632 L 381,635 L 382,636 L 382,638 L 380,640 L 372,640 Z M 360,631 L 361,632 L 361,633 L 362,634 L 362,637 L 361,638 L 359,638 L 361,638 L 362,639 L 361,640 L 353,640 L 352,639 L 353,638 L 357,638 L 356,638 L 355,637 L 354,637 L 353,638 L 352,637 L 352,636 L 353,635 L 353,633 L 354,632 L 358,632 L 359,631 Z M 315,632 L 316,631 L 317,632 L 320,632 L 321,631 L 323,633 L 323,635 L 324,636 L 324,639 L 323,640 L 314,640 L 313,639 L 314,638 L 314,634 L 315,633 Z M 295,634 L 296,633 L 297,634 L 301,634 L 301,633 L 300,633 L 299,632 L 300,631 L 302,631 L 304,633 L 304,637 L 305,638 L 305,639 L 304,640 L 296,640 L 294,638 L 295,637 Z M 277,632 L 278,631 L 283,631 L 284,632 L 284,633 L 285,634 L 285,637 L 286,638 L 285,639 L 284,639 L 282,637 L 281,637 L 280,636 L 277,636 L 276,635 L 277,634 Z M 255,636 L 256,635 L 257,635 L 258,634 L 258,632 L 259,631 L 264,631 L 266,633 L 266,635 L 267,636 L 267,637 L 268,638 L 268,639 L 266,641 L 265,641 L 264,640 L 263,640 L 262,639 L 261,639 L 260,638 L 258,638 L 257,637 L 256,637 Z M 247,633 L 246,634 L 234,634 L 233,635 L 229,635 L 228,636 L 225,636 L 224,637 L 222,637 L 221,638 L 220,638 L 219,639 L 218,639 L 217,638 L 219,636 L 220,636 L 221,635 L 222,635 L 223,634 L 224,634 L 226,632 L 227,633 L 232,633 L 233,632 L 239,632 L 240,631 L 245,631 Z M 1212,631 L 1213,630 L 1214,631 L 1214,633 L 1215,634 L 1215,636 L 1216,636 L 1219,639 L 1219,640 L 1222,640 L 1223,639 L 1225,639 L 1227,641 L 1226,642 L 1225,642 L 1224,641 L 1223,642 L 1220,642 L 1219,643 L 1218,643 L 1217,642 L 1216,642 L 1215,641 L 1216,640 L 1215,641 L 1214,640 L 1213,640 L 1212,639 L 1213,638 L 1212,639 L 1211,638 L 1211,635 L 1212,634 Z M 1158,630 L 1159,631 L 1159,633 L 1163,635 L 1162,636 L 1159,636 L 1154,639 L 1152,639 L 1141,646 L 1131,657 L 1129,662 L 1127,664 L 1127,666 L 1125,669 L 1124,675 L 1123,676 L 1123,681 L 1122,682 L 1122,694 L 1123,695 L 1124,703 L 1125,704 L 1125,706 L 1128,713 L 1130,715 L 1133,721 L 1142,730 L 1143,730 L 1146,733 L 1149,734 L 1151,736 L 1155,737 L 1158,739 L 1164,740 L 1165,741 L 1172,741 L 1173,742 L 1174,741 L 1175,742 L 1175,746 L 1174,747 L 1173,746 L 1173,744 L 1172,744 L 1173,745 L 1173,748 L 1172,749 L 1167,743 L 1161,746 L 1161,751 L 1162,752 L 1162,754 L 1156,757 L 1151,750 L 1148,750 L 1144,753 L 1145,761 L 1144,762 L 1141,762 L 1140,763 L 1138,763 L 1133,756 L 1127,758 L 1127,767 L 1122,770 L 1121,770 L 1119,768 L 1116,763 L 1113,763 L 1109,765 L 1109,771 L 1110,772 L 1110,774 L 1107,776 L 1103,777 L 1101,775 L 1100,772 L 1096,769 L 1098,767 L 1102,759 L 1102,756 L 1103,755 L 1103,751 L 1104,750 L 1104,747 L 1103,746 L 1103,740 L 1102,739 L 1102,736 L 1099,730 L 1090,720 L 1090,718 L 1093,713 L 1125,713 L 1125,711 L 1123,708 L 1123,706 L 1121,702 L 1121,699 L 1120,698 L 1120,678 L 1121,677 L 1121,674 L 1123,670 L 1123,667 L 1127,659 L 1129,657 L 1130,654 L 1141,643 L 1145,641 L 1147,638 L 1149,638 L 1151,631 L 1152,630 L 1153,631 L 1157,631 Z M 1129,637 L 1130,636 L 1130,635 L 1131,634 L 1131,632 L 1133,630 L 1134,631 L 1135,630 L 1138,630 L 1139,631 L 1139,632 L 1140,633 L 1140,635 L 1141,636 L 1141,637 L 1142,638 L 1141,639 L 1130,639 L 1129,638 Z M 1109,638 L 1110,637 L 1110,635 L 1111,634 L 1111,632 L 1113,630 L 1119,630 L 1120,631 L 1120,634 L 1121,635 L 1121,637 L 1122,638 L 1121,639 L 1119,639 L 1118,638 L 1117,639 L 1110,639 Z M 1102,638 L 1101,639 L 1095,639 L 1094,638 L 1091,638 L 1090,637 L 1091,636 L 1091,632 L 1092,631 L 1098,631 L 1099,630 L 1100,631 L 1100,633 L 1101,634 L 1101,637 Z M 1071,632 L 1073,630 L 1079,630 L 1080,631 L 1080,632 L 1081,633 L 1081,636 L 1082,637 L 1081,638 L 1071,638 L 1070,637 L 1070,636 L 1071,635 Z M 1051,631 L 1052,630 L 1053,631 L 1055,631 L 1056,630 L 1058,630 L 1060,632 L 1060,634 L 1061,635 L 1061,638 L 1060,639 L 1056,639 L 1055,638 L 1050,638 L 1049,637 L 1050,636 L 1050,634 L 1051,633 Z M 1029,637 L 1030,636 L 1030,633 L 1031,632 L 1031,631 L 1032,630 L 1038,630 L 1040,632 L 1040,636 L 1041,637 L 1040,638 L 1039,638 L 1038,637 L 1032,637 L 1031,638 L 1030,638 Z M 1010,632 L 1011,631 L 1013,631 L 1014,630 L 1018,630 L 1019,631 L 1019,635 L 1018,636 L 1017,635 L 1016,636 L 1018,636 L 1019,635 L 1020,636 L 1020,637 L 1019,638 L 1010,638 L 1009,637 L 1010,636 Z M 990,631 L 991,630 L 997,630 L 999,632 L 999,636 L 1000,637 L 999,638 L 990,638 L 989,637 L 989,636 L 990,635 Z M 977,630 L 978,631 L 978,632 L 979,633 L 979,636 L 980,637 L 979,638 L 970,638 L 969,637 L 969,635 L 970,634 L 970,632 L 971,631 L 976,631 Z M 948,637 L 949,636 L 949,634 L 950,633 L 950,631 L 951,630 L 957,630 L 959,632 L 959,634 L 960,635 L 960,637 L 959,638 L 949,638 Z M 940,637 L 939,638 L 929,638 L 928,637 L 929,636 L 929,635 L 930,634 L 930,632 L 931,631 L 936,631 L 937,630 L 938,631 L 938,633 L 939,634 L 939,636 Z M 888,637 L 889,636 L 889,634 L 890,633 L 890,631 L 891,630 L 897,630 L 898,631 L 898,632 L 899,633 L 899,636 L 900,637 L 899,638 L 889,638 Z M 869,637 L 870,636 L 870,634 L 871,633 L 871,631 L 872,630 L 877,630 L 879,632 L 879,634 L 880,635 L 880,637 L 879,638 L 870,638 Z M 851,632 L 853,630 L 856,630 L 857,631 L 858,630 L 859,631 L 859,633 L 860,634 L 860,636 L 861,637 L 860,638 L 851,638 L 850,637 L 850,636 L 851,635 L 852,636 L 856,636 L 855,635 L 854,635 L 853,634 L 853,635 L 852,636 L 851,635 Z M 830,637 L 831,636 L 831,635 L 832,634 L 833,635 L 833,636 L 834,636 L 835,635 L 833,635 L 832,634 L 832,631 L 833,630 L 834,631 L 835,630 L 839,630 L 840,631 L 840,635 L 842,637 L 841,638 L 840,638 L 839,637 L 836,637 L 835,638 L 831,638 Z M 813,632 L 815,630 L 816,631 L 817,630 L 818,631 L 819,630 L 821,632 L 821,636 L 822,637 L 821,638 L 815,638 L 813,636 Z M 801,630 L 802,631 L 802,634 L 803,635 L 803,636 L 802,637 L 801,637 L 800,638 L 794,638 L 793,637 L 794,636 L 794,635 L 795,634 L 796,635 L 796,636 L 799,636 L 800,635 L 800,633 L 798,635 L 796,635 L 795,634 L 795,632 L 796,631 L 798,631 L 799,630 L 800,631 Z M 776,631 L 777,630 L 780,630 L 781,631 L 782,630 L 784,632 L 784,636 L 783,637 L 782,637 L 781,636 L 782,635 L 782,634 L 779,634 L 781,634 L 782,635 L 781,636 L 778,636 L 777,637 L 776,637 L 775,636 L 776,635 Z M 757,632 L 759,630 L 764,630 L 765,631 L 765,633 L 766,634 L 766,636 L 767,637 L 766,638 L 757,638 L 756,637 L 757,636 Z M 738,632 L 740,630 L 745,630 L 746,631 L 746,633 L 747,634 L 747,637 L 746,638 L 738,638 L 737,637 L 737,635 L 738,634 Z M 727,632 L 727,635 L 728,636 L 728,637 L 727,638 L 718,638 L 717,637 L 718,636 L 718,634 L 719,633 L 719,632 L 720,631 L 724,631 L 725,630 Z M 698,637 L 699,636 L 699,633 L 700,632 L 700,631 L 701,630 L 706,630 L 708,632 L 708,635 L 707,636 L 705,636 L 708,636 L 709,637 L 708,638 L 699,638 Z M 680,632 L 682,630 L 683,631 L 684,630 L 685,631 L 686,631 L 687,630 L 688,631 L 688,633 L 689,634 L 689,636 L 690,637 L 689,638 L 680,638 L 679,637 L 679,636 L 680,635 L 681,636 L 687,636 L 686,635 L 686,634 L 685,634 L 685,635 L 684,636 L 681,636 L 680,635 Z M 661,632 L 663,630 L 668,630 L 669,631 L 669,632 L 670,633 L 670,636 L 671,637 L 670,638 L 661,638 L 660,637 L 660,636 L 661,635 Z M 640,637 L 641,636 L 641,634 L 642,633 L 642,631 L 643,630 L 644,631 L 648,631 L 649,630 L 650,631 L 650,634 L 651,635 L 651,637 L 650,638 L 641,638 Z M 622,632 L 624,630 L 627,630 L 628,631 L 629,630 L 631,632 L 631,636 L 632,637 L 631,638 L 622,638 L 621,637 L 622,636 Z M 610,630 L 611,631 L 611,633 L 612,634 L 612,636 L 613,637 L 612,638 L 603,638 L 602,637 L 602,636 L 603,635 L 603,632 L 604,631 L 609,631 Z M 582,637 L 583,636 L 583,634 L 584,633 L 584,631 L 585,630 L 591,630 L 592,631 L 592,633 L 593,634 L 593,637 L 592,638 L 583,638 Z M 563,637 L 564,636 L 564,633 L 565,632 L 565,631 L 566,630 L 570,630 L 571,631 L 572,631 L 573,632 L 573,634 L 574,635 L 574,637 L 573,638 L 564,638 Z M 555,637 L 554,638 L 544,638 L 543,637 L 544,636 L 544,634 L 545,633 L 545,632 L 546,631 L 551,631 L 552,630 L 553,631 L 553,633 L 554,634 L 554,636 Z M 504,637 L 505,636 L 505,634 L 506,633 L 506,631 L 507,630 L 513,630 L 514,631 L 514,635 L 513,636 L 508,636 L 506,638 L 505,638 Z M 485,637 L 486,636 L 486,634 L 487,633 L 487,631 L 488,630 L 489,631 L 492,631 L 493,630 L 495,632 L 495,635 L 496,636 L 496,637 L 495,638 L 486,638 Z M 466,637 L 467,636 L 467,634 L 468,633 L 468,631 L 469,630 L 475,630 L 476,631 L 476,635 L 475,636 L 474,635 L 474,633 L 473,634 L 472,634 L 472,635 L 471,636 L 476,636 L 477,637 L 476,638 L 467,638 Z M 447,637 L 448,636 L 448,634 L 449,633 L 449,631 L 450,630 L 451,631 L 452,631 L 453,630 L 454,631 L 455,630 L 456,631 L 456,632 L 457,633 L 457,636 L 458,637 L 457,638 L 448,638 Z M 1192,626 L 1193,625 L 1199,625 L 1200,626 L 1201,626 L 1202,627 L 1201,628 L 1201,629 L 1200,630 L 1199,630 L 1198,629 L 1195,629 L 1194,628 L 1195,627 L 1197,627 L 1195,627 L 1194,628 L 1193,628 L 1192,627 Z M 219,619 L 218,620 L 216,620 L 215,621 L 214,621 L 213,622 L 211,622 L 210,623 L 209,623 L 208,622 L 210,620 L 212,620 L 213,619 L 214,619 L 215,618 L 218,618 Z M 1216,616 L 1217,615 L 1219,615 L 1220,616 L 1221,616 L 1223,618 L 1224,618 L 1226,620 L 1225,621 L 1224,621 L 1223,620 L 1222,620 L 1220,618 L 1219,618 L 1218,617 L 1217,617 Z M 1234,612 L 1235,611 L 1248,611 L 1249,612 L 1248,613 L 1235,613 Z M 574,502 L 575,501 L 576,502 L 577,502 L 578,503 L 579,502 L 580,502 L 583,505 L 584,505 L 586,507 L 585,508 L 584,508 L 585,508 L 586,509 L 587,508 L 588,508 L 590,510 L 589,511 L 577,511 L 576,510 L 576,508 L 575,507 L 575,505 L 574,504 Z M 555,416 L 556,415 L 556,409 L 557,408 L 558,409 L 564,409 L 565,410 L 571,410 L 572,411 L 578,411 L 579,412 L 585,412 L 586,413 L 593,413 L 594,414 L 599,414 L 600,415 L 607,415 L 608,416 L 613,416 L 614,417 L 621,417 L 622,418 L 629,418 L 630,419 L 635,419 L 636,420 L 643,420 L 644,421 L 651,421 L 652,422 L 656,422 L 657,423 L 657,427 L 656,428 L 656,429 L 655,430 L 651,430 L 650,429 L 643,429 L 642,428 L 636,428 L 635,427 L 629,427 L 628,426 L 622,426 L 621,425 L 614,425 L 613,424 L 607,424 L 606,423 L 600,423 L 599,422 L 591,422 L 590,421 L 584,421 L 583,420 L 577,420 L 576,419 L 570,419 L 569,418 L 561,418 L 560,417 L 556,417 Z M 232,333 L 235,333 L 236,334 L 237,334 L 238,335 L 238,338 L 237,339 L 237,345 L 236,346 L 236,352 L 235,353 L 234,352 L 234,346 L 233,345 L 233,341 L 233,345 L 234,346 L 234,351 L 233,352 L 233,354 L 233,353 L 234,352 L 235,353 L 235,355 L 234,356 L 230,356 L 229,355 L 229,348 L 230,347 L 230,341 L 231,340 L 231,334 Z M 1135,314 L 1136,313 L 1138,313 L 1139,314 L 1144,314 L 1145,315 L 1154,315 L 1155,316 L 1155,318 L 1154,319 L 1136,319 L 1135,318 Z" fill="black" fill-rule="evenodd"/>
</svg>