<?xml version="1.0" encoding="UTF-8" standalone="no"?>
<svg
   width="550"
   height="250"
   viewBox="0 0 550 250"
   version="1.1"
   id="svg1"
   sodipodi:docname="bishop_sp_25pdr_black.svg"
   inkscape:version="1.4.2 (f4327f4, 2025-05-13)"
   xmlns:inkscape="http://www.inkscape.org/namespaces/inkscape"
   xmlns:sodipodi="http://sodipodi.sourceforge.net/DTD/sodipodi-0.dtd"
   xmlns="http://www.w3.org/2000/svg"
   xmlns:svg="http://www.w3.org/2000/svg">
  <defs
     id="defs1" />
  <sodipodi:namedview
     id="namedview1"
     pagecolor="#ffffff"
     bordercolor="#000000"
     borderopacity="0.25"
     inkscape:showpageshadow="2"
     inkscape:pageopacity="0.0"
     inkscape:pagecheckerboard="0"
     inkscape:deskcolor="#d1d1d1"
     inkscape:zoom="1.0819521"
     inkscape:cx="507.41617"
     inkscape:cy="435.78638"
     inkscape:window-width="2560"
     inkscape:window-height="1377"
     inkscape:window-x="-8"
     inkscape:window-y="-8"
     inkscape:window-maximized="1"
     inkscape:current-layer="svg1" />
  <path
     d="m 523.25582,134.44166 -17.24528,-0.44218 -0.88437,27.85775 -1.32656,-70.74986 h -31.39526 l -0.88436,-36.701483 5.30624,-3.5375 -5.30624,-3.095306 -0.88437,-21.224963 -22.55151,-8.401542 -11.49687,7.517167 -35.81711,-6.19061 -40.68117,-1.768751 -2.21095,-6.632805 h -19.89839 l -4.86406,7.959361 -23.87807,2.653125 -5.74842,-3.095305 -2.21094,4.421874 -38.02805,4.864041 -5.74844,-3.537485 -20.34057,93.301372 h -19.45623 l -20.34058,-15.47653 -3.53749,-11.05466 46.8718,5.748437 7.95934,-40.23899 -5.74841,-0.442195 -2.21093,3.537501 L 85.048857,42.46684 33.313015,30.96998 l -3.979667,18.129657 2.653111,3.5375 19.456212,2.653124 27.85776,-2.21093 105.240419,15.476513 -0.44217,5.748425 h -11.93905 l -3.53749,7.517192 13.70779,7.517167 13.70777,27.857742 -64.55924,-1.32655 -20.78278,10.61248 -3.53749,-10.1703 -4.42186,0.44219 2.65311,11.49686 -7.959357,3.53749 1.768749,11.93903 -23.878076,6.63281 -30.953075,1.76875 -22.551513,9.28591 0.442181,2.65312 9.28593,-1.32656 3.537486,6.63281 3.095319,-0.88437 -8.843736,7.07498 2.653111,3.0953 -7.074986,10.61247 2.653125,9.28594 -3.095319,2.6531 5.74843,6.63281 -0.884361,5.30624 h 3.979667 l 3.979694,7.51718 4.421861,-0.88437 3.095306,4.42185 4.864053,-0.88437 11.496852,7.51718 35.817119,12.38122 h 328.10249 l 49.08271,-16.8031 0.88437,-3.0953 6.63281,0.4422 1.32656,-4.42188 8.40154,-3.09531 -1.76875,-2.6531 7.075,-4.42189 -2.21093,-5.74841 3.97967,-3.97968 -3.97967,-8.84374 2.21093,-4.86405 -4.42188,-2.21093 -0.88437,-6.63281 6.63281,-2.21092 3.09529,7.07498 3.53751,0.4422 7.51716,-11.05468 10.61249,-3.09531 z m -104.35604,103.02949 0.44218,-0.44219 h 1.32655 l 0.4422,0.44219 h 0.88436 l 0.4422,-0.44219 0.44218,0.44219 v 0.88437 l -0.44218,0.44219 h -2.65312 l -0.88437,-0.88438 z m -85.78422,0.88437 v -0.44219 l 0.88437,-0.88437 h 2.65313 l 0.44218,0.44219 -0.44218,0.44218 v 0.44219 l -0.44219,0.44219 h -2.65311 z m -60.13737,0 v -0.88437 l 0.44218,-0.44219 h 2.21093 l 0.44217,0.44219 0.4422,-0.44219 0.44219,0.44219 v 0.44218 l -0.88439,0.88438 h -2.6531 z m -174.221541,-0.44219 0.442183,-0.44218 h 1.326558 l 0.44219,-0.44219 h 1.32656 l 0.44219,0.44219 v 0.88437 l -0.44219,0.44219 h -2.653123 z m 139.730971,-0.88437 0.44219,-0.4422 0.44219,0.4422 h 2.65313 l 0.44218,0.44219 v 0.88437 l -0.44218,0.44219 H 239.372 l -0.88438,-0.88438 z m -60.57956,0 0.44217,-0.4422 0.4422,0.4422 v 0.44219 l 0.44218,-0.44219 h 2.21094 l 0.44219,0.44219 v 0.88437 l -0.44219,0.44219 h -3.09532 l -0.44217,-0.44219 z m -21.66714,0 -0.4422,0.44219 v 0.88437 l -0.44218,0.44219 h -3.09531 l -0.44218,-0.44219 v -0.88437 l 0.44218,-0.44219 h 2.21093 l 0.4422,-0.4422 h 0.88436 z m 215.3449,-0.4422 v 0.4422 l -0.4422,0.44219 v 0.88437 l -0.44219,0.44219 h -2.65312 l -0.44218,-0.44219 v -0.88437 l 0.44218,-0.44219 h 1.76875 l 0.44219,-0.4422 h 0.44218 l 0.44219,-0.44217 z m -227.72613,-0.44217 0.44218,-0.4422 h 0.44219 l 0.44219,0.4422 h 0.88437 l 0.44219,0.44217 h 0.44218 l 0.44219,0.4422 -0.44219,0.44219 v 0.88437 l -0.44218,0.44219 h -2.65312 l -0.44219,-0.44219 v -1.32656 l 0.44219,-0.4422 h 0.44218 z m 214.46051,-0.88439 0.4422,-0.44217 0.88437,0.88436 h 0.44219 l 0.44218,0.4422 h 0.44219 l 0.44219,0.44217 h 0.44218 l 0.88438,0.88439 v 0.88437 l -0.4422,0.44219 h -3.09531 l -0.44217,-0.44219 v -1.76876 l -0.4422,-0.44217 z m -107.00917,-0.44217 0.4422,0.44217 v 0.44219 l -0.4422,0.4422 v 1.32656 l -0.44217,0.44218 v 0.44219 l -0.4422,0.44219 h -2.65312 l -0.44219,-0.44219 v -0.88437 l -0.44218,-0.44219 0.44218,-0.4422 h 0.88439 l 0.44217,-0.44217 h 0.4422 l 0.44218,-0.4422 h 0.88437 z m -59.69518,0.44217 -0.4422,0.44219 v 0.4422 l -0.44217,0.44217 v 0.88439 l -0.4422,0.44218 v 0.44219 l -0.44219,0.44219 h -2.65312 l -0.44218,-0.44219 v -0.44219 l -0.44218,-0.44218 0.88436,-0.88439 h 0.88438 l 0.44219,-0.44217 h 0.44218 l 0.4422,-0.4422 h 0.44217 l 0.88439,-0.88436 h 0.44217 z m -101.260751,0.44219 0.884375,-0.88436 0.442184,0.44217 h 0.44219 l 0.442185,0.44219 h 0.442183 l 0.442192,0.4422 -0.442192,0.44217 h -0.442183 l -0.442185,0.4422 h -0.884374 l -0.884375,-0.88437 z m 340.483711,-1.76874 0.44219,0.44218 v 2.21093 l -0.44219,0.4422 h -0.44218 l -0.88438,-0.88437 -0.44217,0.44217 h -0.4422 1.32657 l 0.44218,0.4422 -0.44218,0.44219 h -1.32657 l -0.44219,0.44218 -0.44217,-0.44218 v -0.44219 l -0.4422,-0.4422 v -0.44217 l 0.4422,-0.4422 h 0.88436 l 0.88437,-0.88436 h 0.4422 z m 41.12337,-14.59216 0.44217,-0.44219 h 1.32657 l 0.44218,0.44219 -0.44218,0.4422 h -0.4422 1.32657 l 0.44218,0.44217 -0.44218,0.4422 h -0.44219 l -0.44218,0.44218 h -0.88437 l -0.4422,-0.44218 v -0.4422 l -0.44217,-0.44217 z m -422.288251,-0.44219 0.442184,-0.44218 h 0.884375 l 0.442183,0.44218 v 0.88439 h 3.095308 l 0.442192,0.44217 -1.76875,1.76875 -0.442183,-0.44218 h -0.442192 l -0.442183,-0.44219 0.442183,-0.44218 h 0.884375 -0.884375 l -0.442183,0.44218 h -0.884375 l -0.442184,-0.44218 v -1.32657 h -0.442191 z m -7.074984,-2.65312 0.442181,-0.44218 h 0.44218 l 0.442195,0.44218 h 0.44218 l 0.442195,0.44218 h 0.442188 l 0.442183,0.4422 h 0.442192 l 0.442183,0.44217 -0.442183,0.4422 h -0.442192 l -0.442183,0.44219 h -0.442188 l -0.442195,-0.44219 0.442195,-0.4422 -0.442195,0.4422 h -0.44218 l -0.884375,-0.88437 v -0.4422 z m -6.632806,-5.74842 0.442195,-0.44219 3.537487,3.53751 -0.442181,0.44217 h -0.442194 l -0.442182,-0.44217 h -0.44218 l -0.442195,0.44217 -2.21093,-2.21093 0.44218,-0.44218 z m 452.799121,-3.09532 0.44219,0.4422 v 0.44218 l -0.44219,0.44219 v 0.88438 l 0.44219,0.44218 -1.32656,1.32657 h -0.88437 l -0.44218,0.44218 -0.44219,-0.44218 v -0.44219 l 0.88437,-0.88438 v -0.44218 l 0.88437,-0.88438 v -0.44219 z m -110.10446,0 0.44217,-0.44217 h 5.74843 l 0.44219,0.44217 v 0.4422 l 2.21093,2.21093 h 0.44219 l 0.88438,0.88438 h 0.88437 l 0.44219,0.44219 h 4.86405 l 0.44217,-0.44219 h 0.88439 l 0.44218,-0.44219 h 0.44219 l 1.32657,-1.32657 h 0.44218 v -0.44218 l 1.76875,-1.76874 h 12.38122 l 1.32655,2.21092 -1.76874,1.32657 h -0.44218 l -2.21093,2.21093 v 0.44219 l -0.88437,0.88437 v 0.44218 l -1.32656,1.76875 v 0.88438 l -0.4422,0.44217 v 1.32657 l -0.44218,0.44219 v 5.74842 l 0.44218,0.44219 v 1.32657 l 0.4422,0.44218 v 0.88437 l 0.44217,0.4422 0.4422,1.32656 0.88436,0.88437 v 0.44217 l 2.65313,2.65313 h 0.44218 l 2.21093,1.76874 -0.44219,0.4422 v 1.32656 l -0.44218,0.44218 v 0.44219 l -0.44219,0.44219 h -2.65311 l -0.4422,-0.44219 v -1.32656 l -0.44217,-0.4422 v -0.88437 l -0.4422,-0.44219 v -0.44217 h -2.65311 l -0.88437,1.32656 v 1.32656 l -0.88438,1.32656 h -2.65312 l -0.88439,-1.32656 v -1.32656 l -0.44217,-0.4422 v -0.44219 l -0.44218,-0.44217 h -2.21093 l -0.4422,0.44217 h -0.44217 v 0.88439 l -0.4422,0.44217 v 1.32657 l -0.88437,0.88438 h -2.21093 l -0.4422,-0.44219 0.4422,-0.44219 h 0.44217 -0.44217 l -0.4422,0.44219 -0.44218,-0.44219 v -1.32657 l -0.44219,-0.44217 v -0.88439 h -0.44218 l -0.44219,-0.44217 h -2.21093 l -0.88437,1.32656 v 1.76874 l -0.88438,0.88438 h -2.65312 l -0.44219,-0.44219 v -0.88437 l -0.44219,-0.44219 v -1.32657 l -0.88437,-0.88436 h -2.21093 l -0.44218,0.44217 h -0.4422 v 1.32656 l -0.44217,0.4422 v 0.88437 l -0.88439,0.88438 h -2.65311 l -0.44219,-0.44219 v -1.32656 l -0.4422,-0.4422 v -1.32656 h -0.44217 l -0.4422,-0.44217 v -0.4422 l 0.4422,-0.44218 h 0.44217 l 2.65313,-2.65313 v -0.44217 l 0.88437,-0.88437 v -0.4422 l 0.88439,-1.32656 v -0.88437 l 0.44217,-0.44218 v -0.88437 l 0.4422,-0.4422 v -6.19061 l -0.4422,-0.44219 v -1.32657 l -0.44217,-0.44217 -1.32656,-3.09531 -2.21094,-2.65311 1.76874,-1.32657 v -1.76875 l 0.4422,-0.44218 z m -34.04838,-0.44217 h 9.7281 l 0.4422,0.44217 v 0.88438 l 0.44217,0.44219 v 0.44218 l 1.32656,1.32657 v 0.44219 l -2.21093,2.21093 v 0.4422 l -0.44217,0.44217 v 0.44218 l -0.88439,0.88438 v 0.44219 l -0.44217,0.44218 v 0.88438 l -0.4422,0.44217 v 0.88439 l -0.44219,0.44218 v 6.6328 l 0.44219,0.4422 v 0.88437 l 0.4422,0.44218 v 0.88437 l 0.44217,0.4422 v 0.44217 l 0.44219,0.44219 v 0.4422 l 0.88437,0.88437 v 0.44217 l 2.65312,2.65313 h 0.44219 l 0.44218,0.44218 -0.44218,0.4422 h -2.21094 l -0.44217,0.44217 v 0.88439 l -0.4422,0.44217 v 0.88439 l -0.44217,0.44218 v 0.44219 l -0.4422,0.44219 h -2.65312 l -0.44218,-0.44219 v -0.44219 l -0.44219,-0.44218 v -1.32656 l -0.44218,-0.4422 v -0.44219 l -0.4422,-0.44217 h -2.21093 l -0.88437,0.88436 v 0.88437 l -0.4422,0.4422 v 1.32656 l -0.44217,0.44219 h -3.09531 l -0.44219,-0.44219 v -1.32656 l -0.44218,-0.4422 v -1.32656 l 0.88437,-0.88437 h 0.4422 l 3.09528,-3.09531 v -0.44217 l 0.88437,-0.88437 v -0.4422 l 0.4422,-0.44219 v -0.44217 l 0.44219,-0.4422 v -0.88437 l 0.44219,-0.44218 v -1.32657 l 0.44218,-0.44219 v -5.74842 l -0.44218,-0.44219 v -0.88437 l -0.44219,-0.4422 v -0.88437 l -0.44219,-0.44218 V 215.804 l -0.4422,-0.44219 v -0.44218 l -0.44217,-0.4422 v -0.44218 l -1.76875,-1.76874 v -0.44219 l -0.44218,-0.44218 h -0.4422 l -0.88435,-0.88438 v -0.44219 l 1.32655,-1.32656 v -0.44219 l 0.44218,-0.44218 v -0.4422 z m -60.13738,2.65312 0.88437,-0.4422 2.21093,-2.21092 h 10.17029 l 2.21095,2.65312 h 0.44218 l 0.88437,0.88437 1.76875,0.88438 h 4.86404 l 0.4422,-0.44219 h 0.88437 l 0.88437,-0.44219 3.5375,-3.53749 h 11.49684 l 0.88438,0.88437 v 1.32655 l -0.88438,0.88438 h -0.44218 l -3.53748,3.53751 -1.32657,2.6531 -0.44219,2.21094 -0.44219,0.44218 v 2.65313 l -0.44218,0.44218 v 0.88437 l 0.44218,0.44219 v 2.21093 l 0.44219,0.4422 v 1.32655 l 1.76876,3.5375 3.97966,3.97968 3.53751,1.76873 -0.4422,0.4422 v 1.32656 l -0.44219,0.44219 h -2.65312 l -0.88437,-1.32656 v -1.32656 l -0.88436,-1.32656 h -2.21093 l -0.88438,0.44217 v 0.88439 l -0.44219,0.44217 v 1.32657 l -0.88438,0.88438 h -2.21093 l -0.88437,-0.88438 v -1.32657 l -0.44219,-0.44217 v -0.88439 l -0.88437,-0.44217 h -2.21093 l -0.88438,1.32656 v 1.32656 l -0.88437,1.32656 h -2.65313 l -0.44217,-0.44219 v -1.32656 l -0.4422,-0.4422 v -0.88437 l -0.88437,-0.88436 h -2.21094 l -0.88436,0.88436 v 0.88437 l -0.4422,0.4422 v 1.32656 l -0.44217,0.44219 h -2.65313 l -0.88437,-0.88438 v -1.76874 l -0.88438,-1.32656 h -2.65313 l -0.88435,1.32656 v 1.32656 l -0.88438,1.32656 h -2.21092 l -0.88439,-0.88438 v -1.32657 l -1.32657,-1.76873 h -2.65311 l -0.44219,0.88436 v 1.76876 l -0.88438,1.32656 h -2.6531 l -0.88438,-1.32656 v -0.88439 l 1.32655,-0.88437 h 0.88439 l 0.88437,-0.88436 1.76874,-0.88438 1.32656,-1.32655 v -0.44219 l 1.76875,-1.76876 0.88437,-1.76873 v -0.88438 l 0.88439,-1.76874 v -1.32657 l 0.44217,-0.44219 v -3.53748 l -0.44217,-0.4422 v -1.76874 l -0.4422,-0.44219 v -0.88437 l -1.76876,-3.53748 -3.0953,-3.09532 h -0.44218 z m -32.27962,-2.65312 h 14.59215 l 0.88437,0.88437 v 0.44218 l 0.4422,0.44219 v 0.44218 l 0.44218,0.4422 -0.88438,0.88437 h -0.44218 l -2.21094,2.21093 v 0.44219 l -0.88437,0.88437 v 0.44218 l -0.88437,0.88438 v 0.88437 l -0.44218,0.44218 v 0.4422 l -0.4422,0.44217 v 0.88439 l -0.44217,0.44218 v 6.19061 l 0.44217,0.44219 v 1.32657 l 0.4422,0.44218 v 0.88437 l 0.44218,0.4422 v 0.44217 l 0.88437,0.88439 v 0.44217 l 0.88437,0.88437 v 0.4422 l 2.21094,2.21093 h 0.44218 l 1.32657,1.32655 v 1.32656 l -0.44219,0.4422 v 0.44219 l -0.44218,0.44218 v 0.44219 l -0.4422,0.44219 h -2.65312 l -0.44218,-0.44219 v -0.88437 l -0.44219,-0.44219 v -1.32657 l -0.88437,-0.88436 h -2.21093 l -0.88438,0.88436 v 1.32657 l -0.44219,0.44219 v 0.88437 l -0.44218,0.44219 h -3.09531 l -0.44219,-0.44219 v -1.32656 l -0.44218,-0.4422 v -0.88437 l -0.88437,-0.88436 h -1.76875 l -0.44218,-0.4422 1.32654,-1.32655 h 0.4422 v -0.44218 l 1.76874,-1.76875 v -0.4422 l 0.44219,-0.44217 v -0.4422 l 0.44218,-0.44219 v -0.44217 l 0.4422,-0.4422 v -0.44218 l 0.44217,-0.44219 v -1.32655 l 0.44219,-0.4422 v -1.76873 l 0.4422,-0.4422 v -2.21093 l -0.4422,-0.44218 v -2.21094 l -0.44219,-0.44219 v -0.88437 l -0.44217,-0.4422 v -0.44218 l -0.4422,-0.44218 v -0.44219 l -0.44218,-0.44218 v -0.4422 l -0.44219,-0.44218 v -0.44217 l -0.88437,-0.88439 0.44219,-0.44218 -0.44219,0.44218 -2.65311,-2.65312 h -0.44219 l -0.88437,-0.88438 v -0.44218 l 0.44217,-0.44219 v -0.44218 z m -61.46394,0.44217 0.44217,-0.44217 h 12.38123 l 2.21094,2.65312 h 0.44218 l 1.76875,1.32656 h 0.88437 l 0.44219,0.44219 h 4.86405 l 0.4422,-0.44219 1.32654,-0.44219 3.5375,-3.53749 h 14.14997 l 0.44219,0.44217 0.88437,2.21095 -3.5375,3.53749 v 0.4422 l -0.88437,0.88435 v 0.4422 l -0.88438,1.32655 v 0.88438 l -0.44217,0.44217 v 1.32657 l -0.4422,0.44219 v 6.19061 l 0.4422,0.4422 0.44217,2.21092 0.4422,0.4422 0.44218,1.32656 0.88437,0.88437 v 0.44217 l 3.09532,3.09531 h 0.44218 l 0.44219,0.4422 -0.44219,0.44217 h -0.44218 l -0.88438,3.09532 -0.44218,0.44219 h -2.65313 l -0.88438,-1.32656 v -1.76876 l -0.88437,-0.88436 h -2.21093 l -0.88436,0.88436 v 0.88437 l -0.4422,0.4422 v 1.32656 l -0.44218,0.44219 h -2.65313 l -0.88437,-0.88438 v -1.32657 l -0.44217,-0.44217 v -0.88439 h -0.4422 l -0.44219,-0.44217 h -2.21094 l -0.88435,1.32656 v 1.32656 l -0.88439,1.32656 h -2.6531 l -0.88438,-1.32656 v -1.32656 l -0.88437,-1.32656 h -2.65313 l -0.4422,0.44217 v 0.88439 l -0.44217,0.44217 v 1.32657 l -0.4422,0.44219 -0.44218,-0.44219 v -0.88437 0.88437 l 0.44218,0.44219 -0.44218,0.44219 h -2.6531 l -0.4422,-0.44219 v -1.32656 l -0.44219,-0.4422 v -0.88437 l -0.88437,-0.88436 h -2.21094 l -0.88438,1.32656 v 0.88437 l -0.44218,0.44219 v 0.88437 l -0.44218,0.44219 h -3.0953 l -0.4422,-0.44219 -0.44218,-3.09532 h -0.44218 l -0.4422,-0.44217 h -1.76875 l -0.44217,-0.4422 0.44217,-0.44218 h 0.4422 l 2.21093,-2.21093 v -0.4422 l 0.88438,-0.88437 v -0.44217 l 1.32656,-2.21094 v -0.88437 l 0.44217,-0.4422 v -1.76874 l 0.4422,-0.44219 v -4.42185 l -0.4422,-0.4422 v -1.32656 l -0.44217,-0.4422 v -0.88437 l -0.44219,-0.44218 -0.88437,-2.21093 -2.65313,-3.0953 h -0.44218 l -2.21094,-1.76876 v -0.88437 l 0.4422,-0.44218 z m -30.06871,-0.44217 h 10.61249 l 0.44219,0.44217 v 0.88438 l 0.44218,0.44219 v 0.44218 l 0.88439,0.88438 h 0.44217 l 0.4422,0.44219 -2.65313,2.65312 v 0.4422 l -0.88437,0.88435 v 0.4422 l -0.4422,0.44218 v 0.44219 l -0.44218,0.44218 v 0.44218 l -0.44219,0.4422 v 0.88437 l -0.44218,0.44219 v 1.76874 l -0.4422,0.4422 v 2.21092 l 0.4422,0.44219 v 2.21093 l 0.44218,0.4422 v 1.32655 l 0.44219,0.44219 v 0.44218 l 0.44218,0.4422 v 0.44217 l 0.4422,0.44219 v 0.4422 l 0.44217,0.44217 v 0.4422 l 3.97969,3.97968 -0.44218,0.44217 h -0.44218 v 0.44219 l -0.4422,0.4422 v 1.32656 l -0.44217,0.44218 v 0.44219 l -0.4422,0.44219 h -2.65313 l -0.44218,-0.44219 v -0.44219 l -0.44219,-0.44218 v -1.32656 l -0.44218,-0.4422 v -0.44219 l -0.4422,-0.44217 h -2.6531 l -0.44219,0.44217 v 0.88439 l -0.4422,0.44217 v 0.88439 l -0.44217,0.44218 v 0.44219 l -0.4422,0.44219 h -2.65311 l -0.4422,-0.44219 v -0.88437 l -0.44217,-0.44219 v -1.32657 l -0.88437,-0.88436 0.44217,-0.4422 h 0.4422 l 2.65312,-2.65311 v -0.4422 l 0.88436,-0.88437 v -0.44217 l 0.4422,-0.4422 v -0.44219 l 0.44217,-0.44217 v -0.4422 l 0.4422,-0.44218 v -0.88437 l 0.44219,-0.4422 v -1.32656 l 0.44217,-0.44218 v -4.86404 l -0.44217,-0.4422 v -1.32656 l -0.44219,-0.4422 v -0.88437 l -0.4422,-0.44218 V 215.804 l -0.44217,-0.44219 v -0.44218 l -0.4422,-0.4422 v -0.44218 l -0.44218,-0.44217 0.44218,-0.4422 -0.44218,0.4422 -0.88437,-0.88439 v -0.44218 l -1.32656,-1.32656 h -0.4422 l -0.88437,-0.88438 0.4422,-0.44218 v -0.4422 0.4422 l -0.4422,0.44218 h -0.44217 l -0.4422,-0.44218 0.4422,-0.4422 v -0.44218 l 0.44217,-0.44219 v -0.44218 z m -53.94676,0.88437 0.88437,-0.88437 h 11.93904 l 0.88438,0.88437 v 0.44218 l 1.32655,1.32657 h 0.44219 l 0.88437,0.88437 h 0.44219 l 0.44219,0.44219 h 0.88437 l 0.44219,0.44219 h 4.42186 l 0.44219,-0.44219 h 0.88437 l 0.88438,-0.88438 h 0.44218 l 3.09531,-3.0953 h 3.53749 l 0.44219,0.44217 v 0.88438 l 0.44218,0.44219 0.4422,1.32656 0.88436,0.88438 -2.65311,3.0953 v 0.44218 l -1.32656,2.21093 v 0.88437 l -0.44219,0.4422 v 1.32656 l -0.44219,0.4422 v 4.86404 l 0.44219,0.44218 v 1.32656 l 0.44219,0.4422 v 0.88437 l 0.44218,0.44218 0.88438,2.21093 0.88437,0.88437 v 0.4422 l 2.21093,2.21093 h 0.44219 l 0.44219,0.44218 -0.44219,0.4422 H 139.88 l -0.88437,0.88436 v 0.88437 l -0.44218,0.4422 v 1.32656 l -0.44219,0.44219 h -3.5375 l -0.88436,-1.32656 v -0.88439 l -0.44219,-0.44217 v -0.88439 h -0.44219 l -0.44219,-0.44217 h -2.21093 l -0.88437,1.32656 v 0.88437 l -0.44219,0.44219 v 0.88437 l -0.44219,0.44219 h -3.0953 l -0.88438,-1.32656 v -1.32656 l -0.88437,-1.32656 h -2.65312 l -0.44218,0.44217 v 0.88439 l -0.4422,0.44217 v 0.88439 l -0.88436,1.32656 h -2.65313 l -0.44218,-0.44219 v -1.32656 l -0.44219,-0.4422 v -0.88437 l -0.88437,-0.88436 h -2.21094 l -0.88437,0.88436 v 1.32657 l -0.44218,0.44219 v 0.88437 l -0.4422,0.44219 h -2.65311 l -0.88438,-1.32656 v -1.32656 l -0.44218,-0.4422 3.97967,-3.53748 v -0.44219 l 0.88438,-0.88437 v -0.4422 l 0.88437,-0.88437 v -0.44219 l 0.44219,-0.44217 v -0.88438 l 0.88437,-1.32657 v -1.76874 l 0.44219,-0.44219 v -4.42185 l -0.44219,-0.4422 v -1.32656 l -0.44218,-0.4422 v -0.88437 l -0.44219,-0.44218 -0.88438,-2.21093 -2.65311,-3.0953 h -0.44219 l -1.32656,-1.32656 h -0.44219 l -0.44218,-0.4422 0.44218,-0.44218 h 0.44219 -0.44219 l -0.44218,-0.44219 z m -48.640538,11.49685 0.442191,-0.44219 h 1.768743 l 0.442191,-0.44218 h 0.884367 l 0.442192,-0.44219 h 0.442183 l 0.442192,-0.4422 h 0.884366 l 0.442192,-0.44217 h 0.442183 l 0.442192,-0.4422 h 0.442184 l 0.884375,-0.88436 h 0.442183 l 1.326558,-1.32657 h 0.442191 l 3.095308,-3.09529 h 0.884369 l 3.095309,-3.09532 h 0.442183 v -0.44218 l 0.884374,-0.88437 h 8.40155 l 0.442183,0.44217 v 0.88438 l 0.442192,0.44219 v 1.76875 l 0.442184,0.44219 v 0.44219 l 0.884375,0.88437 v 0.88437 l -0.884375,0.88437 v 0.44218 l -0.884376,0.88438 v 0.44219 l -0.442183,0.44218 v 0.88438 l -0.442191,0.44217 v 0.88439 l -0.442184,0.44218 v 6.19061 l 0.442184,0.44219 v 1.32657 l 0.442191,0.44218 v 0.88437 l 0.442183,0.4422 v 0.44217 l 0.884376,0.88439 v 0.44217 l 0.442184,0.4422 v 0.44217 l 0.442191,0.4422 -0.884375,0.88438 v 0.44218 l -0.884376,0.88437 v 0.44218 l -0.442183,0.4422 h -0.442191 l -0.442184,-0.4422 H 84.16449 l -0.442192,-0.44218 h -0.884375 l -0.442183,-0.44219 v -3.09531 l 0.442183,-0.44217 -0.442183,-0.4422 h -0.442184 l -0.884375,-0.88436 h -1.76875 l -0.442183,0.44217 v 0.44219 l -0.884375,0.88437 v 0.4422 l -0.884375,0.88437 -0.442183,-0.4422 h -0.884374 l -0.442185,-0.44217 h -0.442192 l -0.442183,-0.4422 v -3.97968 l -0.442192,-0.44217 h -0.442183 l -0.442184,-0.4422 h -0.884375 l -0.442184,-0.44219 h -0.442189 l -0.442186,0.44219 v 0.4422 l -0.442189,0.44217 v 0.4422 l -1.326561,1.32655 h -0.884374 l -0.442183,-0.44218 h -0.442183 l -0.442192,-0.44219 h -0.442183 l -0.442192,-0.44218 v -2.21094 l 0.442192,-0.44219 v -0.88437 l -0.442192,-0.44219 h -0.442183 l -0.442184,-0.44218 h -0.442192 l -0.442183,-0.44219 h -0.442192 l -1.326558,1.32656 v 0.4422 l -1.326558,1.32654 h -0.442184 l -0.442191,-0.44218 h -0.884375 l -1.326559,-1.32656 0.442191,-0.44219 v -1.76874 l 0.442184,-0.44218 v -0.4422 z m -6.632801,-15.47653 h 0.442192 l 0.442183,0.44218 h 1.326558 l 1.326567,1.32657 v 2.65311 l -0.442192,0.44219 v 0.44218 l -0.884375,0.88438 h -2.653116 l -0.442184,-0.44218 0.442184,-0.4422 h 2.210933 -2.210933 l -0.442184,0.4422 h -0.442191 l -0.442184,-0.4422 v -0.88437 l -0.44219,-0.44218 v -1.76874 l 0.44219,-0.44219 v -0.4422 l 0.884375,-0.88437 h 0.442184 z m 7.95936,-0.88438 0.884375,-0.88437 h 0.442191 l 0.442184,-0.44218 h 1.326558 l 0.442192,0.44218 h 0.442183 l 0.442183,0.44219 v 0.44218 l 0.442192,0.4422 v 0.44218 l 0.442183,0.44218 v 1.32657 l -0.884375,0.88436 -0.442183,-0.44217 -0.442183,0.44217 h -1.76875 l -0.442184,0.4422 -1.326566,-1.32656 v -0.4422 l -0.442184,-0.44217 v -0.88438 l 0.442184,-0.44218 z m -17.24528,-6.6328 h 2.21093 l 1.768758,1.76875 v 0.88437 l 0.442183,0.4422 v 0.44219 l -0.442183,0.44218 v 0.88436 l -1.326563,1.32657 h -0.442195 l -0.44218,0.44218 H 42.598945 L 42.156751,202.5384 H 41.71457 l -0.884374,-0.88437 v -0.4422 l -0.442181,-0.44217 v -2.65313 z m 22.551521,-5.74842 h 1.326559 l 0.442192,0.44219 v 4.42186 l -0.442192,0.44219 -0.442183,-0.44219 v -0.44219 0.44219 l -0.442184,0.44219 0.442184,-0.44219 0.442183,0.44219 v 0.44218 l -0.442183,0.44219 h -0.884376 l -1.768741,-1.76875 v -2.21093 l 0.442183,-0.44217 v -0.4422 l 0.884375,-0.88437 0.884375,0.88437 h 0.442184 v -0.44218 h -0.884376 l -0.442183,-0.44219 z m 425.825748,-3.97968 0.44217,0.44219 v 0.44217 l 0.44219,0.4422 v 0.88437 l 0.4422,0.44218 v 1.76876 l 0.88437,0.88437 v 2.21093 l -0.4422,0.4422 v 7.95935 l -1.32656,1.32656 -0.44217,-0.44218 v -0.88438 l 0.44217,-0.44219 v -1.76874 l 0.44219,-0.44218 v -7.95937 l -0.44219,-0.44218 v -1.32657 l -0.44217,-0.44218 v -1.32657 l -0.4422,-0.44218 v -0.88437 z M 44.809876,184.40875 h 2.210929 l 0.442191,0.44218 h 0.442183 l 0.884375,0.88438 v 0.88437 l 0.442185,0.44219 v 0.88437 l -0.442185,0.44218 v 0.44219 l -1.326558,1.32656 h -0.442191 l -0.442183,0.44219 h -1.326558 l -0.442188,-0.44219 h -0.442195 l -1.326555,-1.32656 v -2.65313 z m 11.054663,-3.09531 h 2.653124 l 0.442184,0.44219 h 0.442184 l 0.442191,0.4422 V 182.64 l -0.442191,0.44218 -0.442184,-0.44218 0.442184,0.44218 v 0.4422 -0.4422 l 0.442191,-0.44218 0.442184,0.44218 v 2.65313 l -1.326559,1.32656 h -0.442184 l -0.442191,0.44217 h -0.884367 l -0.442191,-0.44217 h -0.884375 l -1.32656,-1.32656 v -0.88438 l -0.442183,-0.44218 0.442183,-0.44219 V 182.64 Z m -13.265594,-6.63279 0.442181,0.44217 -0.884375,0.88437 H 41.71457 l -1.326555,1.32656 h -0.442194 l -3.095307,3.09532 v 0.44219 l -0.884375,0.88437 v 0.4422 l -0.884374,0.88435 v 0.4422 l -0.884375,0.88437 v 0.44218 l -0.442181,0.44218 v 0.88437 l -0.442194,0.4422 v 0.44219 l -0.442181,0.44217 v 0.88438 l -0.442194,0.44219 v 1.32656 l -0.442181,0.44219 v 1.32656 l -0.44218,0.4422 v 6.19061 l 0.44218,0.44217 v 2.21093 l 0.442181,0.4422 v 0.88437 l 0.442194,0.44218 v 0.88438 l 0.442181,0.44218 v 0.4422 l -0.884375,0.88437 h -0.442181 l -0.44218,-0.4422 v -0.88437 l 0.44218,-0.44218 v -0.44218 l -0.44218,-0.4422 v -0.88437 l -0.442195,-0.44218 v -1.32656 l -0.44218,-0.44218 v -1.76876 l -0.884375,-0.88437 v -1.32656 l 0.884375,-0.88438 v -3.53748 l 0.44218,-0.44219 v -1.32656 l 0.442195,-0.4422 v -0.44218 l -0.442195,-0.44219 v -0.44218 l 0.442195,-0.4422 v -0.44217 l 0.44218,-0.44219 h 0.442181 v -0.4422 l 0.442194,-0.44217 v -0.88438 l 0.442181,-0.44218 v -0.44219 l 0.442194,-0.44218 v -0.4422 l 1.326556,-1.32655 v -1.32656 l 0.442194,-0.4422 h 0.44218 l 0.442195,-0.44217 v -0.4422 l 0.884375,-0.88437 h 0.44218 l 2.653126,-2.65311 h 0.442181 l 0.884374,-0.88437 z m 430.689775,-2.21094 0.4422,-0.44218 h 0.44218 l 0.44219,-0.44219 h 0.44218 l 0.4422,0.44219 h 0.44217 l 0.4422,0.44218 h 0.88437 l 0.88439,0.88438 h 0.44217 l 0.44219,0.44217 h 0.44219 l 0.44218,0.4422 h 0.44218 l 0.88437,0.88436 h 0.4422 l 0.44218,0.4422 h 0.44219 l 0.44219,0.44217 h 0.44218 l 0.44219,0.4422 v 0.44218 l 3.5375,3.5375 v 0.44219 l 0.88438,0.88437 v 0.4422 l 0.44217,0.44217 h 0.44219 l 0.44218,0.44218 v 0.4422 l 0.88439,0.88437 v 0.44218 l -0.4422,0.44218 v 0.4422 l -0.44219,0.44217 -0.44218,-0.44217 v -0.4422 l -0.44219,-0.44218 v -0.44218 l -0.44217,-0.44219 v -0.44218 L 487.43871,182.64 v -0.44217 l -1.32656,-1.32657 v -0.44219 l -3.97969,-3.97968 h -0.44218 l -0.4422,-0.4422 h -0.44218 l -0.88437,-0.88437 h -0.44218 l -0.44219,-0.44217 h -0.44219 l -0.44217,-0.44219 h -0.4422 l -0.44219,-0.4422 h -0.88437 l -0.4422,-0.44217 h -0.44217 l -0.4422,-0.4422 h -1.32655 z m -378.069571,1.76875 0.442191,-0.4422 v -1.32655 l 0.442183,-0.44218 v -0.44219 l 0.442192,-0.44219 h 2.653117 l 0.442185,0.44219 v 0.88437 l 0.442193,0.44218 v 1.32657 l -0.442193,0.44219 H 95.66134 Z m 369.225861,-2.65312 0.44217,-0.44219 h 0.88437 l 0.4422,-0.44219 h 2.65311 l 0.4422,0.44219 h 1.76873 l 0.4422,0.44219 -0.4422,0.44219 h -6.19061 z m -114.52635,1.76875 0.44219,-0.4422 v -0.88436 l 0.44218,-0.44219 v -0.44219 l 0.44219,-0.44219 h 2.65313 l 0.44217,0.44219 v 0.44219 l 0.4422,0.44219 v 0.88436 l 0.44217,0.4422 -0.44217,0.44217 h -4.42187 z m -169.35748,-2.21094 0.44218,-0.44219 h 3.09532 l 0.44217,0.44219 v 1.76874 l 0.44219,0.4422 -0.44219,0.44217 h -3.97967 l -0.44219,-0.44217 0.44219,-0.4422 h 2.21093 -0.44218 l -0.44219,-0.44218 v -0.44218 l -0.44219,-0.44219 v 0.88437 l -0.44219,0.44218 -0.44218,-0.44218 z m -42.89211,2.65311 0.44219,-0.44217 v -0.4422 l 0.44219,-0.44218 v -1.32656 l 0.44218,-0.44219 h 2.65312 l 0.44219,0.44219 v 1.76874 l 0.44219,0.4422 -0.44219,0.44217 h -0.44219 l -0.44219,0.4422 h -3.0953 z m -7.51717,-2.65311 0.44219,-0.44219 h 2.21093 l 0.88438,0.88438 v 1.76875 l 0.44218,0.44217 -0.44218,0.4422 h -0.44219 l -0.88438,-0.88437 h -1.76874 l -0.44219,0.44217 -0.44219,-0.44217 v -0.4422 l 0.44219,-0.44218 z m -8.40155,0.44219 0.88438,-0.88438 h 2.21093 l 0.44219,0.44219 v 1.76874 l 0.44219,0.4422 v 0.44217 l -0.44219,0.4422 h -2.65312 l -0.44219,0.44219 h -0.44219 l -0.44218,-0.44219 v -1.32657 l 0.44218,-0.44218 z m -9.28592,2.65312 v -0.88437 l 0.44219,-0.4422 v -0.88436 l 0.44219,-0.44219 v -0.44219 l 0.44218,-0.44219 h 2.65312 l 0.44219,0.44219 v 1.32656 l 0.44219,0.44218 v 0.88437 l -0.88438,0.88439 h -3.53749 z m -4.86405,-3.5375 0.44219,0.44219 v 0.44219 l 0.44218,0.44219 v 1.32656 l -0.44218,0.44217 h -0.88438 0.88438 l 0.44218,0.4422 -0.44218,0.44219 h -3.53749 l -0.4422,-0.44219 0.4422,-0.4422 h 1.76874 -0.44219 l -0.44219,-0.44217 h -0.44218 l -0.44218,0.44217 -0.4422,-0.44217 v -0.4422 l 0.4422,-0.44218 v -0.88437 l 0.44218,-0.44219 h 1.76875 l 0.44218,-0.44219 z m -19.898398,0.44219 0.442184,-0.44219 0.442183,0.44219 h 1.326567 l 0.442183,-0.44219 0.884375,0.88438 v 0.88437 l 0.442184,0.44218 v 1.32657 l -0.442184,0.44219 h -3.979683 l -0.442184,-0.44219 0.442184,-0.4422 v -1.76873 l 0.442191,-0.44219 z m -8.843734,0.88438 0.442183,-0.44219 0.442192,0.44219 h 1.768742 v -0.44219 h -0.442184 l -0.442191,-0.44219 0.442191,-0.44219 h 0.884375 l 0.884367,0.88438 v 1.76875 l 0.442192,0.44217 v 0.4422 l -0.442192,0.44219 h -3.537492 l -0.884375,-0.88439 0.442192,-0.44217 z m -7.95936,-0.88438 0.442186,-0.44219 h 2.210932 l 0.442183,0.44219 v 0.44219 l 0.442192,0.44219 v 1.32656 l 0.442183,0.44217 -0.442183,0.4422 h -0.442192 l -0.884367,-0.88437 h -0.44219 l -0.442185,-0.4422 h -1.326559 l -0.442189,-0.44218 0.442189,-0.44218 z m -9.728107,1.76874 0.442183,-0.44218 h 0.442192 l 0.442183,-0.44218 v -0.88438 l 0.442192,-0.44219 h 2.210933 l 0.884367,0.88438 v 0.88437 l 0.442192,0.44218 v 0.4422 l 0.442183,0.44217 v 0.4422 l -0.884375,0.88436 h -0.442183 l -0.442184,-0.44217 h -0.442192 l -0.442183,-0.44219 h -0.442192 l -0.442183,-0.4422 h -0.884375 l -0.442183,-0.44217 h -0.442192 z m -3.537493,-1.32655 -0.442183,0.44219 h -5.306242 l -0.442192,0.44218 h -1.768742 l -0.44219,0.44218 h -1.32656 l -0.442183,0.4422 h -0.884374 l -0.442183,0.44217 h -0.442192 l -0.442183,0.4422 h -0.442188 l -0.442195,-0.4422 0.884383,-0.88437 h 0.442183 l 0.442192,-0.44218 h 0.442183 l 0.442183,-0.44218 h 0.442191 l 0.884375,-0.88438 0.442183,0.44219 h 2.210934 l 0.442183,-0.44219 h 2.653125 l 0.442183,-0.44219 h 2.210935 z m 426.710122,-0.88438 0.44217,-0.44218 0.4422,0.44218 v 0.88438 l 0.44218,0.44219 v 0.88436 h 0.44219 l 1.32656,1.32657 v 0.44219 h 1.32655 l 0.44219,-0.44219 h 0.88437 l 0.88437,0.88436 -0.44217,0.4422 h -0.4422 l -0.44219,-0.4422 -0.44218,0.4422 h -1.32656 l -0.44218,0.44217 h -0.44219 l -0.44218,-0.44217 h -0.44219 l -0.44219,-0.4422 0.44219,-0.44217 -0.44219,0.44217 -0.44218,-0.44217 h -0.4422 l -0.44217,-0.44219 0.44217,-0.4422 -0.44217,0.4422 -0.4422,-0.4422 v -1.32655 l 0.4422,-0.44218 z m -23.87808,-0.44218 0.44217,0.44218 v 0.88438 l 1.76875,0.88437 -0.44219,0.44218 h -1.32656 l -2.21093,1.32657 h -0.88437 l -4.86405,3.09529 -4.42187,4.86408 -0.88437,2.21092 -0.88437,0.88436 v 0.88437 l -0.88439,1.32656 -0.44217,2.65313 -0.4422,0.44219 v 2.21093 l -0.44218,0.44219 v 5.30625 l 0.44218,0.44217 0.4422,3.5375 0.44217,0.44218 v 0.88438 l 1.32657,3.09531 0.88439,0.88437 1.32655,2.65312 3.97967,3.97967 h 0.44219 l 1.32657,1.32657 1.32655,0.44218 0.88437,0.88438 1.76876,0.44217 1.32656,0.88439 2.65311,0.44218 0.44218,0.44219 h 3.09532 l 0.44218,0.4422 0.44219,-0.4422 0.44218,0.4422 v 1.76874 l -0.44218,0.44218 -0.44219,-0.44218 v -0.88437 h -0.44218 l 0.44218,0.44218 v 1.32656 l -0.44218,0.44218 -2.21093,-2.65312 -2.65313,1.32657 v 2.21094 l 0.44218,0.44217 v 0.88437 l -2.65312,1.32656 -2.21093,-3.0953 h -1.32655 l -1.76874,1.32656 0.44217,3.53749 -0.44217,0.4422 h -1.32657 l -0.44219,0.44217 h -0.88437 l -2.21093,-3.09529 -2.65312,0.88437 v 3.97968 l -2.21094,1.32656 h -0.44219 l -0.88438,-0.88439 -1.32656,-2.21093 h -1.32654 l -1.76876,0.88439 v 2.65312 l 0.4422,0.44218 v 0.88437 l -1.32656,0.88438 -1.76875,0.44217 -0.88437,-0.88437 -0.4422,-1.32655 -1.76876,-1.32656 0.88439,-0.88437 1.76874,-3.5375 v -1.32655 l 0.4422,-0.4422 v -1.76873 l 0.44218,-0.4422 v -1.32656 l -0.44218,-0.44218 v -2.65313 l -0.4422,-0.44218 v -1.32656 l -1.32656,-2.65313 -3.97967,-4.42186 v -0.88438 l 1.32656,-2.21092 h 14.14996 v -0.88437 l -0.88437,-1.32656 v -0.88438 l -0.88437,-1.76875 v -1.32655 l -0.44219,-0.44219 v -8.84373 l 0.44219,-0.44219 v -1.32656 l 0.88437,-1.76875 v -1.32656 l 1.76876,-3.5375 0.88437,-0.88435 0.4422,-1.32657 4.86404,-4.86407 1.76874,-0.88437 0.88438,-1.32656 h 0.88437 l 0.88437,-3.0953 0.44219,-0.44218 0.44219,0.44218 h 1.76874 z m -12.82342,3.09531 0.4422,-0.4422 v -0.44218 l 0.44217,-0.44218 v -0.88438 l 0.88438,-0.88437 0.44217,0.44218 0.4422,-0.44218 h 1.32656 l 0.44217,0.44218 v 0.44219 l 0.4422,0.44219 v 0.88437 l 0.44219,0.44218 v 0.4422 l 0.44218,0.44217 -0.44218,0.4422 h -4.86404 l -0.4422,-0.4422 z m -8.84374,0.44217 0.4422,-0.44217 v -0.88438 l 0.44217,-0.44218 v -0.88438 l 0.88439,-0.88437 h 2.6531 l 0.44219,0.44218 v 1.32657 l 0.44219,0.44218 v 0.88438 l 0.44219,0.44217 -0.44219,0.4422 h -0.88438 l -0.44218,-0.4422 -0.44218,0.4422 h -3.0953 z m -3.09531,0 -0.44217,0.4422 h -2.65313 l -0.44218,-0.4422 h -1.32657 l -0.44218,-0.44217 0.44218,-0.4422 v -1.76874 l 0.44219,-0.44219 h 2.65312 l 0.44218,-0.44218 0.44219,0.44218 v 0.88438 l 0.4422,0.44219 v 1.32656 z m -13.70779,-2.65311 0.88438,-0.88437 h 2.65313 l 0.44219,0.44218 v 0.44219 l 0.44218,0.44219 v 1.32655 l 0.4422,0.4422 -0.4422,0.44217 h -4.42188 l -0.44217,-0.44217 v -0.4422 l 0.44217,-0.44218 z m -8.84372,-0.44219 0.44218,-0.44218 0.44219,0.44218 h 0.88437 l 0.4422,-0.44218 h 0.88437 l 0.88437,0.88437 v 0.88438 l 0.44218,0.44218 v 1.32655 l -0.44218,0.4422 h -1.76874 l -0.4422,-0.4422 h -2.21093 l -0.44218,-0.44217 0.44218,-0.4422 v -0.88436 l 0.44219,-0.44219 z m -9.72811,2.65313 0.44218,-0.4422 v -1.32655 l 0.44219,-0.44219 v -0.44219 l 0.44219,-0.44218 h 2.65312 l 0.88437,0.88437 v 1.76874 l 0.4422,0.4422 -0.4422,0.44217 h -0.44217 l -0.4422,-0.44217 h -2.65312 l -0.44219,0.44217 h -0.44219 z m -8.40154,-2.21094 0.44217,-0.44219 h 0.88439 l 0.44218,-0.44218 h 1.76876 l 0.44218,0.44218 v 1.76875 l -0.44218,0.44218 -0.4422,-0.44218 -0.44217,0.44218 h 0.88437 l 0.44218,-0.44218 0.44218,0.44218 v 0.4422 l -0.44218,0.44217 h -3.97968 l -0.4422,-0.44217 0.4422,-0.4422 z m -8.84373,-0.44219 0.44217,-0.44218 h 2.65312 l 0.88439,0.88437 v 1.76874 l 0.44218,0.4422 -0.44218,0.44217 h -3.97968 l -0.4422,-0.44217 v -0.4422 l 0.4422,-0.44218 z m -5.74844,-0.44218 0.4422,0.44218 v 0.44219 l 0.44218,0.44219 v 1.32655 l 0.44219,0.4422 -0.44219,0.44217 h -3.97968 l -0.44219,-0.44217 v -0.88438 l 0.44219,-0.44218 v -0.88438 l 0.4422,-0.44219 h 2.21093 z m -12.8234,3.09531 0.44218,-0.4422 v -0.88436 l 0.4422,-0.44219 v -0.88438 l 0.44218,-0.44218 h 2.65313 l 0.88436,0.88437 v 0.88438 l 0.44218,0.44218 v 0.88438 l -0.44218,0.44217 h -4.42187 z m -3.5375,0 -0.44219,0.44217 h -4.42187 l -0.44217,-0.44217 0.44217,-0.4422 v -0.44218 l 0.4422,-0.44218 v -0.88438 l 0.44219,-0.44219 h 2.21092 l 0.4422,-0.44218 0.44217,0.44218 v 0.88438 l 0.44219,0.44219 v 0.88436 z m -22.9937,0 0.44218,-0.4422 v -0.88436 l 0.44219,-0.44219 v -0.88438 l 0.4422,-0.44218 h 2.65311 l 0.44217,0.44218 v 0.44219 l 0.4422,0.44219 v 1.32655 l 0.44217,0.4422 -0.44217,0.44217 h -4.42187 z m -8.40155,0 0.44218,-0.4422 v -0.88436 l 0.4422,-0.44219 v -0.88438 l 0.44217,-0.44218 h 2.21094 l 0.88437,0.88437 v 0.88438 l 0.4422,0.44218 v 0.88438 l -0.4422,0.44217 h -3.97968 z m -7.95936,-2.21094 0.88437,-0.88437 h 1.32656 l 0.44219,0.44218 0.44218,-0.44218 0.44219,0.44218 v 0.88438 l 0.4422,0.44219 v 0.88436 l 0.44217,0.4422 -0.44217,0.44217 h -3.97969 l -0.44219,-0.44217 v -0.4422 l 0.44219,-0.44218 0.44218,0.44218 h 1.76875 l -0.4422,-0.44218 h -0.44217 l -0.44219,-0.44218 v 0.44218 l -0.44219,0.44218 -0.44218,-0.44218 z m -9.28592,2.21094 0.44219,-0.4422 v -0.44218 l 0.44217,-0.44218 0.4422,0.44218 v 0.44218 h 0.44218 l 0.44219,-0.44218 h -0.88437 l -0.4422,-0.44218 v -1.32657 l 0.4422,-0.44218 0.44218,0.44218 0.44219,-0.44218 h 1.76875 l 0.44219,0.44218 v 1.76875 l 0.88437,0.88438 -0.44218,0.44217 h -0.44219 l -0.44219,-0.44217 h -1.32656 l -0.44219,0.44217 h -1.76874 z m -7.51718,-2.21094 0.88437,-0.88437 0.4422,0.44218 0.44219,-0.44218 0.44218,0.44218 0.44219,-0.44218 0.88437,0.88437 v 1.76874 l 0.44218,0.4422 -0.44218,0.44217 h -2.65313 l -0.88437,-0.88437 z m -5.30624,-0.88437 0.4422,0.44218 v 1.32657 l 0.44219,0.44218 v 0.44218 l -0.44219,0.4422 h -0.4422 l -0.44217,0.44217 h -2.65313 l -0.44218,-0.44217 0.44218,-0.4422 v -0.44218 l 0.4422,-0.44218 0.44218,0.44218 v 0.44218 h 1.32655 l 0.4422,-0.44218 v -0.88437 l -0.88438,0.88437 h -0.88437 l -0.44218,-0.44218 v -0.88438 l 0.44218,-0.44219 h 0.88437 l 0.44218,-0.44218 0.4422,0.44218 z m -11.05466,0.44218 0.4422,-0.44218 h 1.32655 l 0.44218,0.44218 0.4422,-0.44218 0.88435,0.88437 v 1.76874 l -0.44217,0.4422 h -0.44218 l -0.4422,-0.4422 0.4422,-0.44218 v -0.44218 h -1.32657 0.88437 l 0.4422,0.44218 -0.4422,0.44218 h -1.32655 l -0.44218,0.4422 h -0.4422 l -0.44217,-0.4422 0.44217,-0.44218 z m -8.40154,0.44219 0.88437,-0.88437 h 2.21093 l 0.44219,0.44218 v 0.88438 l 0.44218,0.44219 v 0.88436 l 0.44219,0.4422 -0.44219,0.44217 h -3.97967 l -0.4422,-0.44217 0.4422,-0.4422 z m -8.40155,0 0.88437,-0.88437 h 2.21093 l 0.4422,0.44218 v 0.88438 l 0.44217,0.44219 v 1.32656 l -0.44217,0.44217 h -3.5375 l -0.44218,-0.44217 v -0.88438 l 0.44218,-0.44218 z m -4.86404,0 v 1.32656 l 0.44217,0.44218 v 0.4422 l -0.44217,0.44217 h -3.9797 l -0.44218,-0.44217 0.44218,-0.4422 v -0.88436 l 0.44219,-0.44219 v -0.44219 l 0.44219,-0.44219 h 1.76875 l 0.44219,-0.44218 z m -12.82342,2.21094 0.44217,-0.4422 v -1.32655 l 0.44219,-0.44219 v -0.44219 l 0.4422,-0.44218 h 2.21093 l 0.88437,0.88437 v 1.32656 l -0.44218,0.44218 h -0.88438 1.32656 l 0.4422,0.4422 -0.4422,0.44217 h -3.97969 z m -7.95936,-2.21094 0.88437,-0.88437 0.44218,0.44218 0.4422,-0.44218 0.44217,0.44218 h 0.4422 l 0.44219,-0.44218 0.44218,0.44218 v 0.88438 l 0.44219,0.44219 v 0.88436 l 0.44217,0.4422 -0.44217,0.44217 h -3.97968 l -0.4422,-0.44217 v -0.4422 l 0.4422,-0.44218 0.44218,0.44218 h 2.65313 l -0.44219,-0.44218 v -0.44218 h -0.4422 v 0.44218 l -0.44217,0.44218 h -1.32657 l -0.44218,-0.44218 z m -8.40154,0 0.88437,-0.88437 h 2.21093 l 0.44218,0.44218 v 0.44219 l 0.4422,0.44219 v 1.32655 l 0.44217,0.4422 -0.44217,0.44217 h -3.97968 l -0.4422,-0.44217 v -0.4422 l 0.4422,-0.44218 z m -9.28594,2.21094 0.4422,-0.4422 v -0.88436 l 0.44218,-0.44219 v -0.88438 l 0.44219,-0.44218 0.44219,0.44218 h 1.76874 l 0.44219,-0.44218 0.4422,0.44218 v 1.32657 l 0.44217,0.44218 v 0.88438 l -0.44217,0.44217 h -3.97969 z m -7.95935,-2.21094 0.88437,-0.88437 h 1.32657 l 0.44218,0.44218 0.44218,-0.44218 0.88437,0.88437 v 1.76874 l 0.4422,0.4422 -0.4422,0.44217 h -3.97967 l -0.44218,-0.44217 0.44218,-0.4422 z m -5.30624,-0.88437 0.44218,0.44218 v 0.88438 l 0.44219,0.44219 v 0.88436 l 0.44219,0.4422 -0.44219,0.44217 h -3.97968 l -0.44217,-0.44217 v -0.4422 l 0.44217,-0.44218 v -1.32656 l 0.4422,-0.44219 h 2.21091 z m -12.38122,3.09531 0.44218,-0.4422 v -0.88436 l 0.44219,-0.44219 v -0.88438 l 0.44218,-0.44218 h 2.65312 l 0.44219,0.44218 v 0.88438 l 0.4422,0.44219 v 1.32656 l -0.4422,0.44217 H 206.208 Z m -8.40156,0 0.4422,-0.4422 v -1.32655 l 0.44217,-0.44219 v -0.44219 l 0.4422,-0.44218 h 1.76874 l 0.44219,0.44218 h 0.44218 l 0.4422,0.44219 v 0.88438 l 0.44217,0.44218 v 0.88438 l -0.44217,0.44217 h -3.97968 z m -3.53749,0 -0.44218,0.44217 h -4.42187 l -0.44218,-0.44217 0.44218,-0.4422 v -0.88436 l 0.4422,-0.44219 v -0.44219 l 0.44217,-0.44219 h 2.21093 l 0.4422,-0.44218 0.44218,0.44218 v 0.88438 l 0.44219,0.44219 v 0.88436 z m -22.55151,0 0.44219,-0.4422 v -0.88436 l 0.44218,-0.44219 v -0.88438 l 0.44219,-0.44218 h 2.65312 l 0.44218,0.44218 v 1.76875 l -0.44218,0.44218 h -2.21092 l -0.88439,0.88437 h -0.44218 z m -8.40154,0 0.44218,-0.4422 v -0.88436 l 0.44218,-0.44219 v -0.88438 l 0.4422,-0.44218 0.44217,0.44218 h 1.32656 l 0.4422,-0.44218 0.88437,0.88437 v 1.32656 l 0.44218,0.44218 v 0.4422 l -0.44218,0.44217 h -3.97968 z m -8.40156,0 0.4422,-0.4422 v -0.88436 l 0.44218,-0.44219 v -0.88438 l 0.44218,-0.44218 h 2.65312 l 0.44219,0.44218 v 1.76875 l -0.44219,0.44218 -0.44218,-0.44218 v -0.88437 l -0.44219,0.44219 h -0.44218 v 0.44218 l -0.44219,0.44218 h 2.21093 l 0.4422,0.4422 -0.4422,0.44217 h -3.97967 z m -8.40154,0 0.44219,-0.4422 v -0.88436 l 0.44218,-0.44219 v -0.88438 l 0.44219,-0.44218 0.44218,0.44218 h 0.44219 l 0.44219,-0.44218 0.44218,0.44218 0.4422,-0.44218 0.44217,0.44218 v 0.44219 l 0.4422,0.44219 v 1.32655 l 0.44219,0.4422 -0.44219,0.44217 h -3.97968 z m 329.42905,-4.86405 0.44217,-0.4422 h 2.65313 l 0.44219,0.4422 h 0.44219 l 0.44218,0.44217 -0.44218,0.4422 v 0.44217 l -0.44219,0.4422 h -0.44219 l -0.44217,-0.4422 h -1.32657 l -0.44219,-0.44217 0.44219,-0.4422 h 0.88437 -0.88437 l -0.44219,0.4422 h -0.4422 l -0.44217,-0.4422 z m -430.247606,-3.09531 -0.442188,0.44218 h -0.884375 l -0.442195,0.44217 h -0.44218 l -0.442181,0.4422 H 41.71457 l -0.442194,0.44219 h -0.44218 l -0.442181,-0.44219 0.884361,-0.88437 h 0.884375 l 0.442194,-0.44218 h 0.442181 l 0.44218,-0.4422 h 1.32657 z m 440.860086,-1.32657 0.44219,-0.44219 h 0.88437 l 0.44218,0.44219 h 0.4422 l 0.88436,0.88437 h 0.44218 l 0.88439,0.88438 -0.4422,0.44217 h -0.44219 l -0.44218,-0.44217 h -0.44219 l -0.88437,-0.88438 h -0.44218 l -0.44219,-0.44218 h -0.44218 z m 7.95935,-1.76875 0.4422,-0.44218 h 5.74841 l 0.4422,0.44218 -0.4422,0.44219 h -5.74841 z m -291.84319,-48.64052 0.4422,-0.44218 0.44219,0.44218 h 0.44218 l 0.44219,0.44219 0.4422,-0.44219 h 0.44217 l 1.32656,1.32656 h 0.44219 l 0.88436,0.88437 -0.44218,0.44218 h -0.44218 0.44218 l 0.44218,0.44219 0.4422,-0.44219 h 0.44217 l 0.88439,0.88437 -0.44219,0.44219 h -5.30624 l -0.44218,-0.44219 V 116.312 l -0.44219,-0.44218 v -0.88437 l -0.4422,-0.4422 z m -8.40154,-38.028052 0.4422,-0.442186 v -2.653125 l 0.44218,-0.442186 0.44218,0.442186 h 2.65313 l 0.44217,0.442198 h 2.65313 l 0.44218,0.442173 h 2.65313 l 0.4422,0.442198 h 2.6531 l 0.44218,0.442173 h 3.09533 l 0.44217,0.442198 h 2.21095 l 0.44217,0.442185 h 3.09532 l 0.44217,0.442186 h 2.21094 l 0.44218,0.442185 h 3.09532 l 0.44218,0.442199 h 3.0953 l 0.4422,0.442173 h 2.21093 l 0.44217,0.442185 h 3.09532 l 0.44219,0.442198 h 3.0953 l 0.44218,0.442173 h 1.76875 l 0.44219,0.442186 v 1.768755 l -0.44219,0.442185 v 0.442186 l -0.44218,0.442198 h -1.76875 l -0.44217,-0.442198 h -3.09532 l -0.44219,-0.442186 h -2.65313 l -0.44217,-0.442185 h -2.65313 l -0.44218,-0.442186 h -2.65312 l -0.44218,-0.442198 h -3.09532 l -0.44218,-0.442173 h -2.65311 l -0.4422,-0.442198 h -2.65312 L 213.283,78.283951 h -3.53751 l -0.44218,-0.442173 h -2.65312 L 206.208,77.39958 h -2.65312 l -0.44218,-0.442185 h -2.65313 l -0.44218,-0.442173 h -3.53749 l -0.4422,-0.442199 h -1.76873 z M 51.000488,38.929339 h 1.326558 l 0.442192,0.442181 h 0.442183 l 0.442183,0.442194 v 1.326557 l -0.442183,0.442194 v 2.65313 l -0.442183,0.442181 V 47.3309 L 52.327046,47.773081 51.884863,47.3309 v -2.653124 l -0.442192,-0.442181 v -1.768755 1.768755 l 0.442192,0.442181 v 2.21093 L 51.442671,47.3309 v 0.884362 -0.442181 l 0.442192,-0.442181 0.442183,0.442181 v 0.884376 l -0.442183,0.44218 h -1.76875 l -0.442184,-0.44218 V 45.56215 l 0.442184,-0.44218 v -2.65313 l 0.442191,-0.442194 V 39.37152 Z m 399.294542,-8.40154 0.44218,-0.442194 h 0.88438 l 0.44217,0.442194 h 2.21096 l 0.44217,0.442181 h 3.97968 l 0.4422,0.442194 v 0.884375 l -0.4422,0.44218 h -7.95936 l -0.44218,-0.44218 z"
     fill="#000000"
     fill-rule="evenodd"
     id="path1"
     style="stroke-width:0.442186" />
</svg>
