<svg xmlns="http://www.w3.org/2000/svg" width="1254" height="1254" viewBox="0 0 1254 1254">
<rect width="100%" height="100%" fill="white"/>
<path d="M 448,1024 L 448,1027 L 449,1028 L 449,1029 L 450,1030 L 451,1030 L 452,1031 L 460,1031 L 460,1030 L 458,1028 L 458,1027 L 455,1024 L 454,1024 L 453,1023 L 449,1023 Z" fill="black" fill-rule="evenodd"/>
<path d="M 808,990 L 806,988 L 806,987 L 805,986 L 800,986 L 798,988 L 797,988 L 792,993 L 791,993 L 786,998 L 785,998 L 782,1001 L 782,1002 L 790,1002 L 791,1001 L 795,1001 L 796,1000 L 800,1000 L 801,999 L 803,999 L 804,998 L 805,998 L 806,997 L 806,995 L 807,994 L 807,993 L 808,992 Z" fill="black" fill-rule="evenodd"/>
<path d="M 182,986 L 181,987 L 181,989 L 183,991 L 183,992 L 184,993 L 184,994 L 186,996 L 186,997 L 188,999 L 188,1000 L 189,1001 L 189,1002 L 190,1003 L 190,1004 L 191,1005 L 191,1006 L 192,1007 L 194,1007 L 195,1008 L 197,1008 L 198,1009 L 197,1010 L 196,1010 L 197,1010 L 198,1009 L 200,1009 L 201,1010 L 203,1010 L 204,1011 L 206,1011 L 206,1009 L 207,1008 L 207,1004 L 208,1003 L 208,1000 L 206,998 L 206,997 L 204,995 L 203,995 L 202,994 L 201,994 L 200,993 L 198,993 L 197,992 L 196,992 L 195,991 L 194,991 L 193,990 L 192,990 L 191,989 L 190,989 L 189,988 L 188,988 L 187,987 L 186,987 L 185,986 Z" fill="black" fill-rule="evenodd"/>
<path d="M 1035,960 L 1034,960 L 1033,961 L 1032,961 L 1030,963 L 1029,963 L 1027,965 L 1026,965 L 1025,966 L 1024,966 L 1022,968 L 1021,968 L 1019,970 L 1018,970 L 1016,972 L 1016,977 L 1015,978 L 1015,981 L 1016,982 L 1017,982 L 1018,981 L 1019,981 L 1020,980 L 1022,980 L 1023,979 L 1025,979 L 1027,977 L 1027,976 L 1029,974 L 1029,973 L 1030,972 L 1030,971 L 1032,969 L 1032,968 L 1034,966 L 1034,965 L 1036,963 L 1036,961 Z" fill="black" fill-rule="evenodd"/>
<path d="M 962,925 L 957,925 L 957,926 L 956,927 L 956,928 L 955,929 L 955,930 L 954,931 L 954,940 L 955,941 L 955,947 L 956,948 L 956,949 L 957,949 L 958,948 L 958,947 L 959,946 L 959,945 L 960,944 L 961,945 L 960,944 L 960,943 L 961,942 L 961,941 L 962,940 L 962,938 L 963,937 L 963,936 L 964,935 L 964,930 L 963,929 L 963,927 L 962,926 Z" fill="black" fill-rule="evenodd"/>
<path d="M 357,908 L 356,908 L 356,909 L 348,917 L 348,918 L 343,923 L 343,924 L 339,928 L 339,931 L 340,932 L 340,936 L 341,937 L 341,939 L 343,939 L 344,940 L 345,940 L 348,937 L 349,937 L 350,936 L 351,937 L 350,936 L 352,934 L 352,931 L 353,930 L 353,927 L 354,926 L 354,923 L 355,922 L 355,918 L 356,917 L 356,914 L 357,913 Z" fill="black" fill-rule="evenodd"/>
<path d="M 463,906 L 462,907 L 462,916 L 463,917 L 464,917 L 465,918 L 466,918 L 468,920 L 469,920 L 471,922 L 472,922 L 473,923 L 474,923 L 475,924 L 476,924 L 477,925 L 479,925 L 479,924 L 480,923 L 480,921 L 479,920 L 479,919 L 478,918 L 478,917 L 474,913 L 474,912 L 472,910 L 472,909 L 469,906 Z" fill="black" fill-rule="evenodd"/>
<path d="M 765,880 L 755,880 L 754,881 L 754,882 L 753,883 L 753,884 L 751,886 L 751,887 L 749,889 L 749,890 L 747,892 L 747,893 L 745,895 L 745,896 L 742,899 L 742,900 L 740,902 L 740,903 L 739,904 L 739,906 L 740,907 L 740,911 L 741,912 L 741,913 L 747,913 L 751,909 L 752,909 L 756,905 L 757,905 L 761,901 L 762,901 L 767,896 L 768,896 L 768,890 L 767,889 L 767,886 L 766,885 L 766,882 L 765,881 Z" fill="black" fill-rule="evenodd"/>
<path d="M 650,878 L 645,878 L 645,879 L 642,882 L 642,883 L 640,885 L 640,893 L 641,894 L 641,899 L 642,900 L 642,906 L 643,907 L 643,910 L 644,910 L 645,909 L 645,908 L 646,907 L 646,906 L 647,905 L 647,903 L 648,902 L 648,901 L 649,900 L 649,898 L 650,897 L 650,895 L 651,894 L 651,892 L 652,891 L 652,890 L 653,889 L 653,885 L 652,884 L 652,882 L 651,881 L 651,879 Z" fill="black" fill-rule="evenodd"/>
<path d="M 584,843 L 583,844 L 583,845 L 582,846 L 582,847 L 581,848 L 582,849 L 582,850 L 583,851 L 583,852 L 584,853 L 584,854 L 585,855 L 585,856 L 586,857 L 587,856 L 587,853 L 586,852 L 587,851 L 587,848 L 586,847 L 586,846 L 585,845 L 585,844 Z" fill="black" fill-rule="evenodd"/>
<path d="M 688,837 L 687,837 L 686,838 L 685,838 L 683,840 L 683,841 L 682,842 L 682,843 L 681,844 L 681,855 L 682,855 L 688,849 L 688,848 L 690,846 L 690,840 L 689,839 L 689,838 Z" fill="black" fill-rule="evenodd"/>
<path d="M 1154,1091 L 1085,1076 L 1053,1057 L 1019,1064 L 1004,1058 L 1015,1048 L 995,1051 L 1045,999 L 977,1031 L 993,1003 L 969,1016 L 1001,914 L 943,1004 L 941,967 L 924,1004 L 880,915 L 894,1007 L 872,989 L 885,1025 L 829,990 L 871,1046 L 847,1042 L 859,1055 L 834,1060 L 789,1037 L 732,1048 L 760,1019 L 725,1026 L 809,936 L 701,998 L 732,944 L 690,969 L 757,790 L 636,971 L 609,895 L 602,937 L 555,836 L 563,951 L 448,809 L 525,974 L 486,951 L 525,1012 L 425,971 L 507,1044 L 474,1047 L 461,1057 L 419,1037 L 365,1053 L 394,1013 L 355,1031 L 398,931 L 336,1006 L 339,965 L 316,1002 L 285,888 L 281,1003 L 203,931 L 253,1020 L 225,1010 L 251,1045 L 207,1038 L 234,1058 L 206,1068 L 171,1061 L 99,1092 Z M 284,1042 L 285,1041 L 290,1046 L 291,1046 L 296,1051 L 297,1051 L 300,1054 L 301,1054 L 302,1053 L 302,1048 L 303,1047 L 304,1047 L 305,1048 L 305,1050 L 306,1051 L 306,1053 L 307,1054 L 307,1055 L 308,1055 L 316,1047 L 317,1048 L 316,1047 L 320,1043 L 321,1044 L 321,1045 L 320,1046 L 320,1048 L 319,1049 L 319,1050 L 318,1051 L 318,1053 L 317,1054 L 317,1056 L 316,1057 L 316,1060 L 317,1060 L 318,1059 L 320,1059 L 321,1060 L 320,1061 L 321,1062 L 320,1063 L 319,1063 L 318,1064 L 313,1064 L 312,1065 L 308,1065 L 307,1066 L 304,1066 L 303,1067 L 288,1067 L 283,1062 L 284,1061 L 287,1061 L 288,1062 L 292,1062 L 292,1061 L 291,1060 L 291,1058 L 290,1057 L 290,1055 L 289,1054 L 289,1053 L 288,1052 L 288,1051 L 287,1050 L 287,1049 L 286,1048 L 286,1046 L 285,1045 L 285,1044 L 284,1043 Z M 961,1064 L 960,1065 L 959,1065 L 958,1066 L 957,1066 L 955,1068 L 954,1068 L 953,1069 L 952,1069 L 950,1071 L 945,1071 L 944,1070 L 941,1070 L 940,1069 L 937,1069 L 936,1068 L 918,1068 L 917,1069 L 913,1069 L 905,1061 L 905,1060 L 903,1058 L 904,1057 L 905,1057 L 906,1058 L 908,1058 L 909,1059 L 910,1059 L 911,1060 L 912,1060 L 913,1061 L 915,1061 L 916,1062 L 917,1061 L 917,1052 L 916,1051 L 916,1046 L 915,1045 L 915,1042 L 916,1041 L 918,1043 L 918,1044 L 919,1045 L 919,1046 L 918,1047 L 918,1049 L 919,1049 L 920,1048 L 922,1050 L 922,1051 L 923,1052 L 924,1051 L 926,1053 L 926,1054 L 927,1055 L 928,1055 L 929,1054 L 929,1053 L 933,1049 L 933,1048 L 939,1042 L 939,1041 L 941,1039 L 941,1038 L 943,1036 L 944,1037 L 944,1041 L 943,1042 L 943,1045 L 942,1046 L 942,1050 L 941,1051 L 941,1054 L 940,1055 L 940,1059 L 939,1060 L 939,1062 L 940,1062 L 941,1061 L 943,1061 L 944,1060 L 945,1060 L 946,1061 L 944,1063 L 944,1065 L 947,1065 L 948,1064 L 953,1064 L 954,1063 L 960,1063 Z M 556,1036 L 557,1035 L 558,1035 L 559,1036 L 561,1036 L 562,1037 L 563,1037 L 564,1038 L 565,1038 L 566,1039 L 563,1042 L 561,1040 L 560,1040 Z M 563,1042 L 565,1041 L 566,1039 L 568,1039 L 573,1042 L 575,1042 L 578,1044 L 580,1044 L 585,1047 L 587,1047 L 590,1049 L 595,1050 L 595,1047 L 594,1046 L 594,1042 L 593,1041 L 593,1035 L 592,1034 L 592,1028 L 591,1027 L 591,1023 L 590,1022 L 590,1018 L 589,1017 L 589,1012 L 588,1011 L 588,1006 L 587,1005 L 587,1000 L 586,999 L 586,994 L 585,993 L 585,988 L 586,987 L 589,990 L 593,998 L 601,1009 L 603,1014 L 607,1019 L 608,1022 L 610,1024 L 611,1027 L 613,1029 L 613,1030 L 615,1032 L 617,1036 L 618,1036 L 618,1034 L 620,1030 L 620,1027 L 621,1026 L 623,1027 L 623,1029 L 624,1030 L 624,1033 L 625,1034 L 625,1036 L 626,1036 L 635,1027 L 635,1026 L 644,1017 L 644,1016 L 659,1000 L 660,1001 L 660,1003 L 659,1004 L 659,1007 L 657,1010 L 657,1012 L 656,1013 L 655,1018 L 653,1021 L 652,1026 L 650,1029 L 650,1031 L 649,1032 L 648,1037 L 646,1040 L 646,1042 L 644,1045 L 644,1047 L 643,1049 L 646,1049 L 647,1048 L 649,1048 L 650,1049 L 649,1050 L 649,1052 L 651,1052 L 652,1051 L 655,1051 L 656,1050 L 659,1050 L 660,1049 L 663,1049 L 664,1048 L 666,1048 L 667,1047 L 670,1047 L 671,1046 L 674,1046 L 675,1048 L 677,1049 L 675,1051 L 674,1051 L 663,1059 L 660,1060 L 655,1064 L 646,1064 L 645,1063 L 641,1063 L 640,1062 L 635,1062 L 634,1061 L 626,1061 L 625,1062 L 614,1063 L 613,1064 L 609,1064 L 608,1065 L 604,1065 L 603,1066 L 599,1066 L 598,1067 L 588,1067 L 580,1059 L 581,1058 L 580,1059 L 578,1057 L 579,1056 L 578,1057 Z" fill="black" fill-rule="evenodd"/>
<path d="M 526,732 L 526,738 L 525,739 L 525,748 L 524,749 L 524,751 L 526,751 L 530,754 L 529,755 L 528,755 L 525,753 L 521,753 L 521,756 L 517,760 L 516,760 L 509,766 L 509,769 L 513,772 L 516,773 L 517,774 L 516,775 L 517,774 L 518,774 L 532,782 L 536,782 L 537,781 L 540,781 L 541,780 L 543,780 L 544,779 L 547,779 L 548,780 L 547,779 L 548,778 L 549,778 L 551,780 L 550,781 L 551,780 L 553,782 L 553,783 L 555,785 L 556,788 L 561,794 L 561,795 L 562,796 L 563,796 L 567,800 L 568,800 L 569,801 L 572,802 L 574,804 L 579,806 L 581,808 L 584,809 L 586,811 L 595,815 L 597,817 L 606,821 L 608,823 L 609,823 L 612,825 L 614,825 L 617,827 L 619,827 L 620,828 L 623,828 L 624,829 L 636,829 L 637,828 L 640,828 L 641,827 L 643,827 L 652,822 L 652,815 L 651,814 L 651,811 L 650,810 L 649,805 L 647,803 L 647,802 L 645,800 L 645,799 L 635,789 L 634,789 L 632,787 L 623,783 L 621,781 L 620,781 L 619,780 L 618,780 L 617,779 L 602,772 L 600,770 L 599,770 L 588,764 L 586,764 L 585,763 L 583,763 L 582,762 L 574,762 L 573,761 L 559,761 L 558,760 L 558,758 L 557,757 L 557,755 L 556,754 L 556,752 L 555,751 L 555,748 L 554,747 L 554,745 L 551,742 L 536,735 L 534,733 L 533,733 L 530,731 L 527,731 Z M 531,756 L 532,755 L 533,755 L 534,756 L 535,756 L 536,757 L 537,757 L 538,758 L 539,758 L 541,760 L 540,761 L 539,761 L 538,760 L 537,760 L 536,759 L 535,759 L 534,758 L 533,758 Z" fill="black" fill-rule="evenodd"/>
<path d="M 561,626 L 561,643 L 560,644 L 558,644 L 557,645 L 557,648 L 555,650 L 554,650 L 551,653 L 550,653 L 546,657 L 547,660 L 548,660 L 549,661 L 550,661 L 551,662 L 552,662 L 553,663 L 554,663 L 555,664 L 556,664 L 557,665 L 558,665 L 559,666 L 560,666 L 561,667 L 562,667 L 563,668 L 564,668 L 569,671 L 570,671 L 571,670 L 574,670 L 575,669 L 577,669 L 578,668 L 580,668 L 581,667 L 585,667 L 588,670 L 589,673 L 591,675 L 591,676 L 593,678 L 593,679 L 598,684 L 601,685 L 603,687 L 604,687 L 605,688 L 606,688 L 607,689 L 608,689 L 609,690 L 610,690 L 611,691 L 612,691 L 613,692 L 616,693 L 618,695 L 619,695 L 620,696 L 621,696 L 622,697 L 623,697 L 624,698 L 625,698 L 626,699 L 627,699 L 628,700 L 629,700 L 630,701 L 631,701 L 632,702 L 633,702 L 634,703 L 635,703 L 636,704 L 637,704 L 642,707 L 644,707 L 645,708 L 647,708 L 648,709 L 653,709 L 654,710 L 658,710 L 659,709 L 664,709 L 665,708 L 667,708 L 670,706 L 672,706 L 674,704 L 675,704 L 676,703 L 676,702 L 677,701 L 677,700 L 676,699 L 676,694 L 675,693 L 675,691 L 674,690 L 674,689 L 673,688 L 672,685 L 662,675 L 661,675 L 659,673 L 658,673 L 657,672 L 656,672 L 655,671 L 652,670 L 651,669 L 652,668 L 651,669 L 650,669 L 649,668 L 648,668 L 647,667 L 646,667 L 645,666 L 644,666 L 643,665 L 642,665 L 641,664 L 640,664 L 639,663 L 638,663 L 637,662 L 636,662 L 635,661 L 634,661 L 629,658 L 627,658 L 626,657 L 625,657 L 624,656 L 623,656 L 622,655 L 621,655 L 616,652 L 613,652 L 612,651 L 593,651 L 590,648 L 590,646 L 589,645 L 589,643 L 588,642 L 588,639 L 587,638 L 587,637 L 585,635 L 584,635 L 583,634 L 582,634 L 581,633 L 578,632 L 576,630 L 575,630 L 572,628 L 570,628 L 565,625 L 562,625 Z" fill="black" fill-rule="evenodd"/>
<path d="M 587,533 L 587,545 L 586,546 L 584,546 L 583,547 L 583,550 L 584,551 L 584,552 L 582,554 L 581,554 L 576,559 L 575,559 L 575,562 L 576,563 L 577,563 L 578,564 L 579,564 L 580,565 L 581,565 L 582,566 L 583,566 L 584,567 L 585,567 L 586,568 L 587,568 L 588,569 L 589,569 L 590,570 L 591,570 L 594,572 L 596,572 L 597,571 L 600,571 L 601,570 L 603,570 L 604,569 L 608,569 L 611,572 L 612,575 L 615,578 L 615,579 L 620,584 L 621,584 L 622,585 L 623,585 L 625,587 L 626,587 L 627,588 L 628,588 L 629,589 L 630,589 L 631,590 L 632,590 L 633,591 L 634,591 L 635,592 L 636,592 L 637,593 L 638,593 L 639,594 L 640,594 L 641,595 L 642,595 L 643,596 L 644,596 L 645,597 L 646,597 L 647,598 L 650,599 L 652,601 L 653,601 L 656,603 L 658,603 L 661,605 L 663,605 L 664,606 L 667,606 L 668,607 L 676,607 L 677,606 L 680,606 L 681,605 L 683,605 L 684,604 L 685,604 L 686,603 L 689,602 L 691,600 L 691,596 L 690,595 L 690,592 L 689,591 L 689,590 L 688,589 L 687,586 L 685,584 L 685,583 L 678,576 L 677,576 L 674,573 L 673,573 L 670,571 L 668,571 L 667,570 L 666,570 L 665,569 L 664,569 L 663,568 L 662,568 L 661,567 L 660,567 L 659,566 L 658,566 L 657,565 L 656,565 L 655,564 L 654,564 L 653,563 L 652,563 L 651,562 L 650,562 L 647,560 L 645,560 L 644,559 L 643,559 L 642,558 L 641,558 L 640,557 L 639,557 L 636,555 L 633,555 L 632,554 L 619,554 L 618,555 L 617,554 L 615,554 L 614,553 L 615,552 L 617,552 L 615,552 L 614,553 L 613,552 L 613,549 L 612,548 L 612,546 L 611,545 L 611,543 L 609,540 L 608,540 L 607,539 L 606,539 L 605,538 L 604,538 L 603,537 L 602,537 L 601,536 L 600,536 L 599,535 L 598,535 L 597,534 L 596,534 L 595,533 L 594,533 L 591,531 L 589,531 Z" fill="black" fill-rule="evenodd"/>
<path d="M 603,467 L 603,476 L 604,477 L 604,479 L 603,480 L 602,479 L 603,480 L 602,481 L 601,481 L 601,485 L 602,486 L 602,487 L 595,494 L 595,497 L 596,498 L 598,498 L 599,499 L 602,499 L 603,500 L 605,500 L 606,501 L 609,501 L 610,502 L 612,502 L 613,503 L 616,503 L 617,502 L 618,502 L 619,501 L 620,501 L 621,500 L 622,500 L 625,498 L 627,498 L 637,508 L 638,508 L 640,510 L 642,510 L 645,512 L 647,512 L 648,513 L 651,513 L 652,514 L 654,514 L 655,515 L 658,515 L 659,516 L 661,516 L 662,517 L 664,517 L 665,518 L 668,518 L 669,519 L 671,519 L 672,520 L 675,520 L 676,521 L 679,521 L 680,522 L 694,522 L 695,521 L 697,521 L 698,520 L 699,520 L 700,519 L 701,519 L 703,517 L 704,517 L 708,513 L 708,512 L 707,511 L 707,509 L 706,508 L 706,507 L 705,506 L 705,505 L 704,504 L 704,503 L 696,495 L 695,495 L 694,494 L 693,494 L 691,492 L 689,492 L 688,491 L 686,491 L 685,490 L 683,490 L 682,489 L 679,489 L 678,488 L 676,488 L 675,487 L 672,487 L 671,486 L 668,486 L 667,485 L 665,485 L 664,484 L 661,484 L 660,483 L 657,483 L 656,482 L 653,482 L 652,481 L 642,481 L 641,482 L 637,482 L 636,483 L 631,483 L 629,481 L 629,480 L 628,479 L 628,478 L 627,477 L 627,476 L 625,474 L 625,473 L 624,472 L 623,472 L 622,471 L 620,471 L 619,470 L 616,470 L 615,469 L 613,469 L 612,468 L 610,468 L 609,467 L 606,467 L 605,466 L 604,467 Z" fill="black" fill-rule="evenodd"/>
<path d="M 91,333 L 101,340 L 146,349 L 143,355 L 158,373 L 533,423 L 527,448 L 548,453 L 572,449 L 581,439 L 581,430 L 638,433 L 640,448 L 753,450 L 755,434 L 764,433 L 764,414 L 773,464 L 779,433 L 854,432 L 856,401 L 860,459 L 863,434 L 889,429 L 971,429 L 1006,433 L 1013,440 L 1038,438 L 1040,434 L 1033,430 L 1035,421 L 1067,413 L 1080,401 L 1088,383 L 1105,381 L 1089,377 L 1082,360 L 1066,349 L 1013,337 L 999,329 L 971,331 L 962,316 L 951,311 L 914,311 L 883,322 L 850,322 L 849,340 L 842,281 L 832,343 L 831,321 L 774,319 L 772,336 L 761,262 L 752,310 L 755,350 L 748,342 L 748,318 L 689,319 L 688,304 L 674,294 L 658,297 L 650,307 L 633,306 L 649,312 L 649,318 L 543,325 L 490,316 L 487,293 L 483,312 L 357,290 L 335,283 L 307,265 L 292,245 L 264,180 L 252,169 L 229,162 L 204,173 L 191,191 L 176,301 L 163,314 L 149,314 L 164,320 L 154,332 L 290,348 L 122,331 Z M 1064,405 L 1064,402 L 1063,401 L 1063,400 L 1064,399 L 1073,399 L 1074,400 L 1070,404 L 1069,404 L 1068,403 L 1067,403 L 1068,403 L 1069,404 L 1067,406 L 1065,406 Z M 1080,386 L 1081,387 L 1081,389 L 1080,390 L 1080,391 L 1077,394 L 1076,393 L 1076,392 L 1077,391 L 1077,387 L 1078,386 L 1079,387 Z M 1064,383 L 1072,383 L 1073,384 L 1072,385 L 1069,385 L 1069,386 L 1070,387 L 1070,386 L 1071,385 L 1072,386 L 1072,389 L 1071,390 L 1071,392 L 1070,393 L 1064,393 L 1063,392 L 1063,384 Z M 683,374 L 684,373 L 688,373 L 689,372 L 697,372 L 698,373 L 702,373 L 703,374 L 702,375 L 684,375 Z M 1079,368 L 1080,368 L 1081,369 L 1081,371 L 1080,372 L 1080,375 L 1080,373 L 1081,372 L 1082,373 L 1082,376 L 1081,377 L 1079,377 L 1078,376 L 1078,369 Z M 1063,369 L 1064,368 L 1065,369 L 1065,372 L 1066,371 L 1065,370 L 1066,369 L 1072,369 L 1073,370 L 1072,371 L 1069,371 L 1070,372 L 1070,373 L 1070,372 L 1071,371 L 1072,372 L 1072,373 L 1073,374 L 1073,376 L 1072,377 L 1064,377 L 1063,376 Z M 834,370 L 833,371 L 834,372 L 834,373 L 833,374 L 833,378 L 834,379 L 834,380 L 833,381 L 832,381 L 831,380 L 824,380 L 823,379 L 818,379 L 817,378 L 815,378 L 814,377 L 808,377 L 807,376 L 808,375 L 810,375 L 811,374 L 812,374 L 813,375 L 812,374 L 813,373 L 814,373 L 815,372 L 816,372 L 818,370 L 820,370 L 821,369 L 824,369 L 825,368 L 831,368 L 832,369 L 833,369 Z M 750,378 L 749,379 L 738,379 L 737,378 L 728,378 L 727,377 L 715,377 L 714,376 L 704,376 L 703,375 L 704,374 L 708,374 L 708,373 L 698,373 L 697,372 L 698,371 L 706,371 L 707,370 L 716,370 L 717,369 L 726,369 L 727,368 L 735,368 L 736,367 L 746,367 L 747,368 L 749,368 L 750,369 Z M 1021,365 L 1022,364 L 1030,364 L 1031,365 L 1043,365 L 1044,366 L 1044,376 L 1042,378 L 1022,378 L 1021,377 L 1021,367 L 1022,366 L 1023,367 L 1024,366 L 1025,366 L 1022,366 Z M 994,364 L 995,363 L 1012,363 L 1013,364 L 1013,376 L 1011,378 L 997,378 L 996,377 L 996,375 L 996,377 L 995,378 L 994,377 Z M 850,364 L 851,363 L 855,363 L 856,364 L 858,364 L 859,365 L 861,365 L 865,369 L 864,370 L 862,370 L 861,369 L 860,369 L 859,368 L 858,368 L 857,367 L 855,367 L 854,366 L 851,366 L 850,365 Z M 769,363 L 770,362 L 773,362 L 774,363 L 776,363 L 777,364 L 778,364 L 779,365 L 780,365 L 781,366 L 780,367 L 781,368 L 780,367 L 781,366 L 782,366 L 783,367 L 783,368 L 784,369 L 783,370 L 780,370 L 779,371 L 779,373 L 777,375 L 776,374 L 776,373 L 775,373 L 775,374 L 774,375 L 773,374 L 773,369 L 771,367 L 770,367 L 769,366 Z M 1051,352 L 1052,351 L 1053,351 L 1054,352 L 1057,352 L 1058,353 L 1061,353 L 1062,354 L 1064,354 L 1065,355 L 1066,355 L 1067,356 L 1068,356 L 1069,357 L 1068,358 L 1069,357 L 1070,357 L 1071,358 L 1072,358 L 1073,359 L 1072,360 L 1071,360 L 1072,361 L 1073,361 L 1074,360 L 1076,362 L 1075,363 L 1068,363 L 1067,362 L 1064,362 L 1063,361 L 1054,361 L 1053,360 L 1052,360 L 1051,359 Z M 1021,347 L 1022,346 L 1028,346 L 1029,347 L 1034,347 L 1035,348 L 1039,348 L 1040,349 L 1043,349 L 1044,350 L 1043,351 L 1040,351 L 1042,351 L 1044,353 L 1044,358 L 1043,359 L 1034,359 L 1033,358 L 1022,358 L 1021,357 Z M 385,348 L 386,347 L 387,347 L 386,346 L 387,345 L 389,345 L 390,346 L 391,346 L 392,347 L 395,347 L 396,348 L 398,348 L 399,349 L 401,349 L 402,350 L 401,351 L 400,351 L 401,351 L 402,350 L 404,350 L 405,351 L 407,351 L 408,352 L 410,352 L 411,353 L 414,353 L 415,354 L 416,354 L 417,355 L 420,355 L 421,356 L 423,356 L 424,357 L 426,357 L 427,358 L 430,358 L 431,359 L 432,359 L 433,360 L 436,360 L 437,361 L 439,361 L 440,362 L 442,362 L 443,363 L 445,363 L 446,364 L 449,364 L 450,365 L 452,365 L 453,366 L 455,366 L 456,367 L 455,368 L 452,368 L 451,367 L 448,367 L 447,366 L 444,366 L 443,365 L 441,365 L 440,364 L 437,364 L 436,363 L 434,363 L 433,362 L 430,362 L 429,361 L 427,361 L 426,360 L 423,360 L 422,359 L 419,359 L 418,358 L 416,358 L 415,357 L 413,357 L 412,356 L 409,356 L 408,355 L 406,355 L 405,354 L 403,354 L 402,353 L 403,352 L 402,353 L 399,353 L 398,352 L 395,352 L 394,351 L 392,351 L 391,350 L 389,350 L 388,349 L 386,349 Z M 994,344 L 996,342 L 997,343 L 1007,343 L 1008,344 L 1012,344 L 1013,345 L 1013,356 L 1012,357 L 1005,357 L 1004,356 L 995,356 L 994,355 Z M 514,343 L 515,342 L 519,342 L 517,342 L 516,341 L 517,340 L 522,340 L 523,341 L 527,341 L 528,342 L 532,342 L 533,343 L 538,343 L 539,344 L 543,344 L 544,345 L 543,346 L 539,346 L 541,346 L 542,347 L 544,347 L 543,346 L 544,345 L 549,345 L 550,346 L 554,346 L 555,347 L 554,348 L 551,348 L 552,348 L 553,349 L 558,349 L 555,349 L 554,348 L 555,347 L 560,347 L 561,348 L 565,348 L 566,349 L 570,349 L 571,350 L 570,351 L 565,351 L 568,351 L 569,352 L 570,352 L 570,351 L 571,350 L 576,350 L 577,351 L 581,351 L 582,352 L 581,353 L 578,353 L 579,353 L 580,354 L 585,354 L 583,354 L 582,353 L 583,352 L 587,352 L 588,353 L 592,353 L 593,354 L 598,354 L 599,355 L 603,355 L 604,356 L 609,356 L 610,357 L 609,358 L 605,358 L 606,359 L 611,359 L 610,359 L 609,358 L 610,357 L 614,357 L 615,358 L 619,358 L 620,359 L 623,359 L 624,360 L 623,361 L 618,361 L 623,361 L 624,362 L 623,361 L 624,360 L 628,360 L 629,361 L 631,361 L 632,362 L 631,363 L 630,363 L 633,362 L 636,365 L 635,366 L 633,366 L 632,365 L 627,365 L 626,364 L 622,364 L 621,363 L 616,363 L 615,362 L 610,362 L 609,361 L 605,361 L 604,360 L 599,360 L 598,359 L 595,359 L 594,358 L 589,358 L 588,357 L 584,357 L 583,356 L 579,356 L 578,355 L 573,355 L 572,354 L 568,354 L 567,353 L 562,353 L 561,352 L 557,352 L 556,351 L 552,351 L 551,350 L 546,350 L 545,349 L 541,349 L 540,348 L 536,348 L 535,347 L 531,347 L 530,346 L 525,346 L 524,345 L 520,345 L 519,344 L 515,344 Z M 372,343 L 373,342 L 375,342 L 374,341 L 375,340 L 376,340 L 377,341 L 378,341 L 379,342 L 378,343 L 377,343 L 378,344 L 379,344 L 378,343 L 379,342 L 380,342 L 381,343 L 383,343 L 384,344 L 385,344 L 386,345 L 385,346 L 384,346 L 385,346 L 386,347 L 385,348 L 382,348 L 381,347 L 380,347 L 379,346 L 377,346 L 376,345 L 375,345 L 374,344 L 373,344 Z M 487,338 L 488,337 L 492,337 L 490,337 L 489,336 L 490,335 L 494,335 L 495,336 L 499,336 L 500,337 L 505,337 L 506,338 L 510,338 L 511,339 L 516,339 L 517,340 L 516,341 L 512,341 L 514,341 L 515,342 L 514,343 L 509,343 L 508,342 L 504,342 L 503,341 L 499,341 L 498,340 L 493,340 L 492,339 L 488,339 Z M 457,333 L 458,332 L 464,332 L 460,332 L 459,331 L 460,330 L 466,330 L 467,331 L 472,331 L 473,332 L 477,332 L 478,333 L 477,334 L 473,334 L 477,334 L 478,333 L 483,333 L 484,334 L 488,334 L 489,335 L 488,336 L 486,336 L 487,336 L 488,337 L 487,338 L 482,338 L 481,337 L 477,337 L 476,336 L 471,336 L 470,335 L 465,335 L 464,334 L 458,334 Z M 365,338 L 366,337 L 366,336 L 368,334 L 369,334 L 368,334 L 367,333 L 368,332 L 369,332 L 370,331 L 373,331 L 374,330 L 379,330 L 380,331 L 379,332 L 376,332 L 383,332 L 384,331 L 386,331 L 380,331 L 379,330 L 380,329 L 387,329 L 388,328 L 408,328 L 409,327 L 417,327 L 418,328 L 448,328 L 449,329 L 458,329 L 459,330 L 458,331 L 450,331 L 456,331 L 457,332 L 456,333 L 433,333 L 432,332 L 407,332 L 406,333 L 386,333 L 385,334 L 379,334 L 378,335 L 375,335 L 373,337 L 373,338 L 375,340 L 374,341 L 373,341 L 373,342 L 372,343 L 371,343 L 370,342 L 369,342 Z M 919,320 L 920,319 L 944,319 L 946,321 L 946,322 L 947,323 L 947,325 L 948,326 L 948,327 L 949,328 L 948,329 L 920,329 L 919,328 Z M 184,306 L 186,306 L 187,307 L 188,307 L 189,308 L 189,318 L 188,319 L 183,319 L 182,318 L 182,310 L 183,309 L 184,310 L 184,313 L 184,311 L 185,310 L 184,310 L 183,309 L 183,307 Z M 178,306 L 179,307 L 178,308 L 178,309 L 177,310 L 177,312 L 176,313 L 176,316 L 175,317 L 174,316 L 173,316 L 172,315 L 170,315 L 169,314 L 169,313 L 170,312 L 171,313 L 172,313 L 172,312 L 174,310 L 175,310 L 175,309 L 174,309 L 173,308 L 174,307 L 175,307 L 176,306 Z M 663,300 L 664,301 L 663,302 L 663,303 L 662,304 L 662,305 L 661,306 L 661,307 L 660,308 L 659,308 L 658,307 L 657,307 L 656,306 L 656,305 L 660,301 L 661,301 L 662,300 Z" fill="black" fill-rule="evenodd"/>
</svg>