<?xml version="1.0" encoding="UTF-8" standalone="no"?>
<svg
   width="300"
   height="250"
   viewBox="0 0 300 250"
   version="1.1"
   id="svg17"
   sodipodi:docname="bombing_run_black.svg"
   inkscape:version="1.4.2 (f4327f4, 2025-05-13)"
   xmlns:inkscape="http://www.inkscape.org/namespaces/inkscape"
   xmlns:sodipodi="http://sodipodi.sourceforge.net/DTD/sodipodi-0.dtd"
   xmlns="http://www.w3.org/2000/svg"
   xmlns:svg="http://www.w3.org/2000/svg">
  <defs
     id="defs17" />
  <sodipodi:namedview
     id="namedview17"
     pagecolor="#ffffff"
     bordercolor="#000000"
     borderopacity="0.25"
     inkscape:showpageshadow="2"
     inkscape:pageopacity="0.0"
     inkscape:pagecheckerboard="0"
     inkscape:deskcolor="#d1d1d1"
     inkscape:zoom="0.93700159"
     inkscape:cx="339.38043"
     inkscape:cy="447.70468"
     inkscape:window-width="2560"
     inkscape:window-height="1377"
     inkscape:window-x="-8"
     inkscape:window-y="-8"
     inkscape:window-maximized="1"
     inkscape:current-layer="svg17" />
  <path
     d="m 112.34943,224.74436 v 0.73546 l 0.24515,0.2452 v 0.24512 l 0.24514,0.24513 h 0.24515 l 0.24515,0.24513 h 1.96119 v -0.24513 l -0.4903,-0.49025 v -0.2452 l -0.73545,-0.73546 h -0.24515 l -0.24514,-0.24513 h -0.98059 z"
     fill="#000000"
     fill-rule="evenodd"
     id="path1"
     style="stroke-width:0.245149" />
  <path
     d="m 200.60282,216.40934 -0.4903,-0.49026 v -0.24519 l -0.24514,-0.24514 h -1.22575 l -0.49029,0.49033 h -0.24515 l -1.22575,1.22572 h -0.24515 l -1.22573,1.2257 h -0.24515 l -0.73544,0.73547 v 0.24512 h 1.96118 l 0.24514,-0.24512 h 0.98059 l 0.24516,-0.24513 h 0.98059 l 0.24515,-0.24512 h 0.4903 l 0.24514,-0.24522 h 0.24516 l 0.24514,-0.24512 v -0.49033 l 0.24516,-0.24512 v -0.24513 l 0.24514,-0.24514 z"
     fill="#000000"
     fill-rule="evenodd"
     id="path2"
     style="stroke-width:0.245149" />
  <path
     d="m 47.139986,215.42875 -0.24515,0.24514 v 0.49032 l 0.490292,0.49026 v 0.24519 l 0.24515,0.24514 v 0.24513 l 0.490302,0.49032 v 0.24513 l 0.490293,0.49034 v 0.24512 l 0.245149,0.24513 v 0.24512 l 0.245151,0.24521 v 0.24513 l 0.245143,0.24512 v 0.24513 l 0.24515,0.24521 h 0.490301 l 0.245143,0.24511 h 0.4903 l 0.245143,0.24513 -0.245143,0.24522 h -0.245151 0.245151 l 0.245143,-0.24522 h 0.4903 l 0.24515,0.24522 h 0.490293 l 0.245151,0.24512 h 0.490293 v -0.49034 l 0.245149,-0.24513 v -0.98057 l 0.245151,-0.24513 v -0.73546 l -0.4903,-0.49034 v -0.24512 l -0.490293,-0.49033 h -0.245151 l -0.245149,-0.24512 h -0.245144 l -0.24515,-0.24513 h -0.4903 l -0.245143,-0.24514 h -0.245151 l -0.245149,-0.24519 h -0.245143 l -0.245151,-0.24513 h -0.24515 l -0.24515,-0.24513 h -0.245143 l -0.245151,-0.24513 h -0.245149 l -0.24515,-0.24519 H 48.12058 l -0.245151,-0.24514 z"
     fill="#000000"
     fill-rule="evenodd"
     id="path3"
     style="stroke-width:0.245149" />
  <path
     d="m 256.25148,209.0549 h -0.24515 l -0.24515,0.24513 h -0.24514 l -0.4903,0.49032 h -0.24516 l -0.49028,0.49027 h -0.24516 l -0.24515,0.2452 h -0.24514 l -0.4903,0.49025 h -0.24515 l -0.49029,0.49034 h -0.24515 l -0.49029,0.49025 v 1.22579 l -0.24516,0.24513 v 0.73546 l 0.24516,0.24513 h 0.24513 l 0.24516,-0.24513 h 0.24515 l 0.24514,-0.24521 h 0.4903 l 0.24515,-0.24512 h 0.49029 l 0.49031,-0.49026 v -0.2452 l 0.49028,-0.49026 v -0.2452 l 0.24516,-0.24513 v -0.24513 l 0.4903,-0.49033 v -0.24513 l 0.49029,-0.49025 v -0.2452 l 0.4903,-0.49027 v -0.49032 z"
     fill="#000000"
     fill-rule="evenodd"
     id="path4"
     style="stroke-width:0.245149" />
  <path
     d="m 238.35566,200.47469 h -1.22575 v 0.24519 l -0.24515,0.24513 v 0.24513 l -0.24515,0.24513 v 0.2452 l -0.24514,0.24513 v 2.20629 l 0.24514,0.24522 v 1.47082 l 0.24515,0.24522 v 0.24512 h 0.24515 l 0.24515,-0.24512 v -0.24522 l 0.24515,-0.24512 v -0.24512 l 0.24514,-0.24513 0.24515,0.24513 -0.24515,-0.24513 v -0.24521 l 0.24515,-0.24511 v -0.24513 l 0.24516,-0.24522 v -0.49024 l 0.24515,-0.24513 v -0.2452 l 0.24513,-0.24514 v -1.22571 l -0.24513,-0.2452 v -0.49026 l -0.24515,-0.24513 z"
     fill="#000000"
     fill-rule="evenodd"
     id="path5"
     style="stroke-width:0.245149" />
  <path
     d="m 90.040933,196.30721 h -0.245151 v 0.24513 l -1.961179,1.96117 v 0.24512 l -1.225744,1.22579 v 0.24513 l -0.980593,0.98059 v 0.73546 l 0.245149,0.24513 v 0.98059 l 0.245144,0.2452 v 0.49025 h 0.4903 l 0.24515,0.24512 h 0.245143 l 0.735451,-0.73537 h 0.245142 l 0.245151,-0.2452 0.245151,0.2452 -0.245151,-0.2452 0.490293,-0.49026 v -0.73546 l 0.245151,-0.24513 v -0.73546 l 0.24515,-0.24513 v -0.73546 l 0.24515,-0.24513 v -0.98066 l 0.245142,-0.24512 v -0.73546 l 0.245151,-0.24512 z"
     fill="#000000"
     fill-rule="evenodd"
     id="path6"
     style="stroke-width:0.245149" />
  <path
     d="m 116.02665,195.81687 -0.24515,0.24513 v 2.20638 l 0.24515,0.24513 h 0.24515 l 0.24515,0.24512 h 0.24515 l 0.4903,0.49034 h 0.24514 l 0.4903,0.49032 h 0.24514 l 0.24515,0.24513 h 0.24515 l 0.24515,0.24513 h 0.24515 l 0.24515,0.24514 h 0.4903 v -0.24514 l 0.24514,-0.24513 v -0.49032 l -0.24514,-0.24513 v -0.24513 l -0.24515,-0.24521 v -0.24512 l -0.9806,-0.98058 v -0.24514 l -0.4903,-0.49033 v -0.24512 l -0.73544,-0.73547 z"
     fill="#000000"
     fill-rule="evenodd"
     id="path7"
     style="stroke-width:0.245149" />
  <path
     d="m 190.06145,189.44304 h -2.45149 l -0.24515,0.24511 v 0.24521 l -0.24514,0.24513 v 0.24512 l -0.4903,0.49034 v 0.24512 l -0.49029,0.49033 v 0.24514 l -0.49031,0.49025 v 0.24519 l -0.49029,0.49026 v 0.24514 l -0.73545,0.73545 v 0.2452 l -0.49029,0.49026 v 0.24513 l -0.24516,0.2452 v 0.49025 l 0.24516,0.24513 v 0.98066 l 0.24515,0.24513 v 0.24514 h 1.47088 l 0.9806,-0.98059 h 0.24515 l 0.98059,-0.98059 h 0.24516 l 0.98058,-0.98059 h 0.24516 l 1.22573,-1.22578 h 0.24516 v -1.47084 l -0.24516,-0.24514 v -0.73545 l -0.24514,-0.24521 v -0.73538 l -0.24515,-0.24521 z"
     fill="#000000"
     fill-rule="evenodd"
     id="path8"
     style="stroke-width:0.245149" />
  <path
     d="m 161.86939,188.95278 h -1.22574 v 0.24513 l -0.73544,0.73545 v 0.24513 l -0.4903,0.49025 v 1.96124 l 0.24514,0.24513 v 1.22572 l 0.24516,0.2452 v 1.47084 l 0.24515,0.24513 v 0.73546 h 0.24514 l 0.24515,-0.24512 v -0.24513 l 0.24515,-0.24521 v -0.24513 l 0.24515,-0.24512 v -0.49033 l 0.24515,-0.24513 v -0.24513 l 0.24514,-0.24513 v -0.49033 l 0.24515,-0.24512 v -0.49034 l 0.24516,-0.24513 v -0.49032 l 0.24514,-0.24513 v -0.24512 l 0.24515,-0.24514 v -0.98066 l -0.24515,-0.24513 v -0.49025 l -0.24514,-0.24521 v -0.49024 z"
     fill="#000000"
     fill-rule="evenodd"
     id="path9"
     style="stroke-width:0.245149" />
  <path
     d="m 145.68961,180.37255 -0.24515,0.24512 v 0.24514 l -0.24516,0.2452 v 0.24513 l -0.24514,0.24512 0.24514,0.2452 v 0.24514 l 0.24516,0.24513 v 0.24512 l 0.24515,0.2452 v 0.24513 l 0.24514,0.24513 v 0.24512 l 0.24515,0.24521 0.24515,-0.24521 v -0.73538 l -0.24515,-0.2452 0.24515,-0.24512 v -0.73547 l -0.24515,-0.24512 v -0.24513 l -0.24515,-0.2452 v -0.24514 z"
     fill="#000000"
     fill-rule="evenodd"
     id="path10"
     style="stroke-width:0.245149" />
  <path
     d="m 171.18503,178.90163 h -0.24515 l -0.24516,0.2452 h -0.24514 l -0.4903,0.49026 v 0.24513 l -0.24514,0.2452 v 0.24513 l -0.24516,0.24512 v 2.69664 h 0.24516 l 1.47089,-1.47085 v -0.2452 l 0.49029,-0.49025 v -1.47092 l -0.24515,-0.24512 v -0.24514 z"
     fill="#000000"
     fill-rule="evenodd"
     id="path11"
     style="stroke-width:0.245149" />
  <path
     d="m 285.42413,241.16934 -16.91524,-3.67722 -7.84473,-4.65787 -8.33505,1.71604 -3.67722,-1.47084 2.69662,-2.4515 -4.90296,0.73546 12.25742,-12.74769 -16.67009,7.84468 3.92238,-6.8641 -5.88357,3.18689 7.84475,-25.00514 -14.2186,22.06338 -0.49029,-9.07049 -4.16753,9.07049 -10.78652,-21.81818 3.43206,22.55364 -5.39324,-4.41268 3.18692,8.82534 -13.72832,-8.58021 10.29624,13.72828 -5.88355,-0.98059 2.94177,3.18697 -6.12871,1.2257 -11.03167,-5.63839 -13.97345,2.69664 6.86416,-7.10931 -8.5802,1.71604 20.59246,-22.06336 -26.47602,15.19918 7.5996,-13.23794 -10.29623,6.12864 16.42495,-43.88151 -29.66296,44.37184 -6.619,-18.63129 -1.71605,10.29628 -11.52196,-24.76002 1.96119,28.19202 -28.19206,-34.81102 18.87642,40.44949 -9.56079,-5.63847 9.56079,14.95407 -24.51483,-10.05106 20.10216,17.89584 -8.0899,0.73545 -3.18693,2.45143 -10.29622,-4.90294 -13.23801,3.92235 7.109299,-9.80594 -9.560779,4.41268 10.54137,-24.5148 -15.199188,18.38608 0.735444,-10.05106 -5.638412,9.07047 -7.599599,-27.94689 -0.980594,28.1921 -19.121565,-17.6507 12.257417,21.81817 -6.864156,-2.45142 6.373856,8.58014 -10.786524,-1.71605 6.619007,4.90301 -6.864156,2.45143 -8.580184,-1.71596 -17.65068,7.59955 z m -213.279018,-12.01231 0.245143,-0.24513 1.225743,1.22572 h 0.245151 l 1.225737,1.22579 h 0.24515 l 0.735444,0.73545 h 0.245149 l 0.24515,-0.2452 v -1.22571 l 0.24515,-0.24513 h 0.245144 l 0.245151,0.24513 v 0.49033 l 0.245149,0.24513 v 0.49025 l 0.245143,0.2452 v 0.24514 h 0.24515 l 1.961188,-1.96118 0.24515,0.24513 -0.24515,-0.24513 0.980593,-0.98059 0.245151,0.24514 v 0.24512 l -0.245151,0.24513 v 0.49033 l -0.245151,0.24512 v 0.24521 l -0.245141,0.24513 v 0.49025 l -0.245151,0.2452 v 0.49027 l -0.24515,0.24512 v 0.73545 h 0.24515 l 0.245151,-0.24512 h 0.490292 l 0.245151,0.24512 -0.245151,0.24522 0.245151,0.24512 -0.245151,0.24512 h -0.245151 l -0.245141,0.24513 H 79.25441 l -0.245149,0.24521 h -0.980595 l -0.24515,0.24511 h -0.735443 l -0.245144,0.24514 h -3.677223 l -1.225744,-1.22571 0.24515,-0.24512 h 0.735443 l 0.245151,0.24512 h 0.980586 v -0.24512 l -0.245143,-0.24522 v -0.49025 l -0.245151,-0.2452 V 232.344 l -0.245149,-0.24514 v -0.2452 l -0.245143,-0.24512 v -0.24513 l -0.245151,-0.24513 v -0.24521 l -0.24515,-0.24512 v -0.49033 l -0.24515,-0.24513 v -0.24512 l -0.245143,-0.24514 z m 165.965388,5.39326 -0.24515,0.24521 h -0.24514 l -0.24515,0.24511 h -0.24515 l -0.4903,0.49027 h -0.24514 l -0.24516,0.2452 h -0.24514 l -0.4903,0.49025 h -1.22573 l -0.24515,-0.24513 h -0.73544 l -0.24515,-0.24512 h -0.73544 l -0.24516,-0.2452 h -4.41266 l -0.24515,0.2452 h -0.9806 l -1.96119,-1.96116 v -0.24522 l -0.49029,-0.49025 0.24514,-0.2452 h 0.24515 l 0.24515,0.2452 h 0.49029 l 0.24516,0.24513 h 0.24514 l 0.24515,0.24512 h 0.24515 l 0.24515,0.24522 h 0.49029 l 0.24515,0.24512 0.24516,-0.24512 v -2.20638 l -0.24516,-0.24513 v -1.22579 l -0.24515,-0.24513 v -0.73546 l 0.24515,-0.24513 0.49031,0.49033 v 0.24514 l 0.24513,0.24512 v 0.24513 l -0.24513,0.2452 v 0.49025 h 0.24513 l 0.24516,-0.24512 0.4903,0.49033 v 0.24513 l 0.24514,0.24513 0.24515,-0.24513 0.4903,0.49025 v 0.2452 l 0.24514,0.24514 h 0.24516 l 0.24515,-0.24514 v -0.2452 l 0.98059,-0.98059 v -0.24512 l 1.47088,-1.47092 v -0.24513 l 0.49031,-0.49025 v -0.24521 l 0.49029,-0.49025 0.24515,0.24512 v 0.98059 l -0.24515,0.24513 v 0.73546 l -0.24514,0.24513 v 0.98066 l -0.24515,0.24513 v 0.73545 l -0.24515,0.24514 v 0.98058 l -0.24516,0.24512 v 0.49034 h 0.24516 l 0.24515,-0.24512 h 0.49029 l 0.24515,-0.24522 h 0.24515 l 0.24515,0.24522 -0.4903,0.49024 v 0.49034 h 0.73544 l 0.24516,-0.24521 h 1.22572 l 0.24516,-0.24513 h 1.47088 z m -99.28505,-6.8641 0.24514,-0.2452 h 0.24516 l 0.24514,0.2452 h 0.4903 l 0.24514,0.24512 h 0.24516 l 0.24515,0.24513 h 0.24515 l 0.24514,0.24521 -0.73544,0.73538 -0.4903,-0.49025 h -0.24515 z m 1.71604,1.47084 0.4903,-0.24513 0.24514,-0.49025 h 0.4903 l 1.22575,0.73538 h 0.49029 l 0.73544,0.49034 h 0.4903 l 1.22574,0.73545 h 0.4903 l 0.73544,0.49025 1.22574,0.24521 v -0.73546 l -0.24514,-0.2452 v -0.98059 l -0.24516,-0.24513 v -1.47091 l -0.24514,-0.24513 v -1.47084 l -0.24515,-0.2452 v -0.98059 l -0.24515,-0.24513 v -0.98059 l -0.24514,-0.2452 v -1.22572 l -0.24515,-0.24512 v -1.22579 l -0.24515,-0.24513 v -1.22571 l -0.24515,-0.24512 v -1.22579 l -0.24515,-0.24513 v -1.22572 l 0.24515,-0.24519 0.73545,0.73545 0.98058,1.96116 1.96119,2.69663 0.4903,1.22579 0.98059,1.22572 0.24515,0.73546 0.4903,0.49026 0.24514,0.73546 0.4903,0.49032 v 0.24513 l 0.49029,0.49034 0.49031,0.98058 h 0.24515 v -0.49033 l 0.49029,-0.98059 v -0.73545 l 0.24515,-0.24514 0.49029,0.24514 v 0.49032 l 0.24515,0.24513 v 0.73546 l 0.24515,0.24513 v 0.49033 h 0.24515 l 2.20633,-2.20637 v -0.24514 l 2.20634,-2.20637 v -0.24512 l 3.67723,-3.92235 0.24513,0.24513 v 0.49033 l -0.24513,0.24513 v 0.73546 l -0.49031,0.73546 v 0.49024 l -0.24515,0.24513 -0.24514,1.22579 -0.49029,0.73546 -0.24515,1.22571 -0.4903,0.73546 v 0.49026 l -0.24515,0.24521 -0.24514,1.2257 -0.4903,0.73547 v 0.49025 l -0.4903,0.73546 v 0.49033 l -0.24514,0.49025 h 0.73544 l 0.24515,-0.24512 h 0.49029 l 0.24515,0.24512 -0.24515,0.24521 v 0.49026 h 0.49031 l 0.24514,-0.24513 h 0.73544 l 0.24514,-0.24513 h 0.73546 l 0.24513,-0.24521 h 0.73546 l 0.24513,-0.24512 h 0.49031 l 0.24515,-0.24513 h 0.73544 l 0.24515,-0.2452 h 0.73545 l 0.24514,0.49033 0.4903,0.24512 -0.4903,0.49034 h -0.24514 l -2.69663,1.96117 -0.73546,0.24512 -1.22573,0.98059 h -2.20633 l -0.24515,-0.24513 h -0.9806 l -0.24514,-0.24512 h -1.22575 l -0.24514,-0.24512 h -1.96119 l -0.24515,0.24512 -2.69662,0.24512 -0.24516,0.24513 h -0.98059 l -0.24515,0.24521 h -0.9806 l -0.24514,0.24511 h -0.9806 l -0.24515,0.24514 h -2.45147 l -1.96119,-1.96117 0.24515,-0.24513 -0.24515,0.24513 -0.4903,-0.49033 0.24515,-0.24512 -0.24515,0.24512 z"
     fill="#000000"
     fill-rule="evenodd"
     id="path12"
     style="stroke-width:0.245149" />
  <path
     d="m 131.471,153.16109 v 1.47088 l -0.24515,0.24516 v 2.20634 l -0.24514,0.24514 v 0.4903 h 0.49029 l 0.9806,0.73544 -0.24516,0.24515 h -0.24513 l -0.73546,-0.49029 h -0.9806 v 0.73544 l -0.98059,0.98059 h -0.24515 l -1.71603,1.47089 v 0.73544 l 0.98059,0.73544 0.73544,0.24516 0.24515,0.24514 -0.24515,0.24514 0.24515,-0.24514 h 0.24515 l 3.43208,1.9612 h 0.98059 l 0.24514,-0.24516 h 0.73545 l 0.24515,-0.24515 h 0.4903 l 0.24515,-0.24515 h 0.73544 l 0.24515,0.24515 -0.24515,-0.24515 0.24515,-0.24514 h 0.24515 l 0.49029,0.49029 -0.24514,0.24515 0.24514,-0.24515 0.4903,0.49031 v 0.24513 l 0.4903,0.49031 0.24515,0.73544 1.22574,1.47089 v 0.24514 l 0.24514,0.24516 h 0.24516 l 0.98059,0.98059 h 0.24515 l 0.24516,0.24515 0.73544,0.24515 0.49028,0.4903 1.22575,0.49029 0.4903,0.4903 0.73545,0.24514 0.49029,0.49029 2.20633,0.98058 0.4903,0.49034 2.20634,0.98058 0.49029,0.49026 h 0.24515 l 0.73544,0.49033 h 0.49031 l 0.73544,0.49034 h 0.49028 l 0.24516,0.24512 h 0.73544 l 0.24515,0.24512 h 2.94178 l 0.24516,-0.24512 h 0.73544 l 0.24514,-0.24512 h 0.49031 l 2.20633,-1.22579 v -1.71606 l -0.24514,-0.24512 v -0.73546 l -0.24516,-0.24513 -0.24515,-1.22575 -0.49029,-0.4903 v -0.24514 l -0.4903,-0.4903 v -0.24515 l -2.45149,-2.45148 h -0.24514 l -0.4903,-0.4903 -2.20634,-0.9806 -0.49029,-0.49029 h -0.24515 l -0.24516,-0.24515 h -0.24513 l -0.24515,-0.24515 -3.67724,-1.71604 -0.49029,-0.4903 h -0.24515 l -2.69662,-1.47088 h -0.4903 l -0.24515,-0.24514 h -0.49029 l -0.24516,-0.24515 h -1.96119 l -0.24513,-0.24515 h -3.43209 l -0.24514,-0.24515 v -0.4903 l -0.24516,-0.24514 v -0.4903 l -0.24514,-0.24515 v -0.49029 l -0.24515,-0.24515 v -0.73544 l -0.24515,-0.24516 v -0.49029 l -0.73545,-0.73545 -3.67722,-1.71604 -0.49029,-0.4903 h -0.24515 l -0.73544,-0.49029 h -0.73545 z m 1.22575,5.88356 0.24514,-0.24515 h 0.24515 l 0.24515,0.24515 h 0.24514 l 0.24515,0.24515 h 0.24514 l 0.24516,0.24514 h 0.24515 l 0.49029,0.4903 -0.24515,0.24515 h -0.24514 l -0.24515,-0.24515 h -0.24516 l -0.24514,-0.24514 h -0.24515 l -0.24514,-0.24516 h -0.24515 z"
     fill="#000000"
     fill-rule="evenodd"
     id="path13"
     style="stroke-width:0.245149" />
  <path
     d="m 140.05119,127.17537 v 4.16752 l -0.24515,0.24515 h -0.49029 l -0.24516,0.24515 v 0.73543 l -0.49029,0.49031 h -0.24515 l -0.73545,0.73544 h -0.24514 l -0.9806,0.98059 0.24515,0.73544 h 0.24515 l 0.24515,0.24516 h 0.24515 l 0.24514,0.24515 h 0.24516 l 0.24514,0.24515 h 0.24515 l 0.24515,0.24514 h 0.24515 l 0.24514,0.24515 h 0.24516 l 0.24514,0.24515 h 0.24515 l 0.24515,0.24515 h 0.24514 l 0.24516,0.24514 h 0.24515 l 1.22575,0.73545 h 0.24513 l 0.24515,-0.24515 h 0.73544 l 0.24516,-0.24514 h 0.4903 l 0.24514,-0.24516 h 0.4903 l 0.24515,-0.24514 h 0.98059 l 0.73545,0.73544 0.24515,0.73545 0.49029,0.4903 v 0.24514 l 0.49029,0.4903 v 0.24515 l 1.22574,1.22574 0.73545,0.24514 0.4903,0.49031 h 0.24514 l 0.24515,0.24514 h 0.24516 l 0.24514,0.24515 h 0.24515 l 0.24515,0.24515 h 0.24515 l 0.24514,0.24515 h 0.24515 l 0.24515,0.24515 0.73544,0.24514 0.49031,0.49031 h 0.24513 l 0.24516,0.24514 h 0.24515 l 0.24515,0.24515 h 0.24514 l 0.24515,0.24515 h 0.24515 l 0.24515,0.24515 h 0.24514 l 0.24516,0.24515 h 0.24515 l 0.24514,0.24514 h 0.24515 l 0.24515,0.24515 h 0.24515 l 0.24515,0.24516 h 0.24514 l 0.24515,0.24514 h 0.24516 l 1.22574,0.73545 h 0.49029 l 0.24515,0.24515 h 0.4903 l 0.24515,0.24513 h 1.22574 l 0.24514,0.24515 h 0.98059 l 0.24516,-0.24515 h 1.22572 l 0.24516,-0.24513 h 0.4903 l 0.73544,-0.4903 h 0.49029 l 0.49031,-0.4903 h 0.24514 l 0.24515,-0.24514 v -0.24516 l 0.24515,-0.24515 v -0.24514 l -0.24515,-0.24515 v -1.22574 l -0.24515,-0.24516 v -0.49029 l -0.24514,-0.24515 v -0.24515 l -0.24515,-0.24515 -0.24516,-0.73545 -2.45147,-2.45147 h -0.24516 l -0.49028,-0.4903 h -0.24516 l -0.24515,-0.24515 h -0.24515 l -0.24514,-0.24515 -0.73544,-0.24515 -0.24514,-0.24514 0.24514,-0.24516 -0.24514,0.24516 h -0.24516 l -0.24515,-0.24516 h -0.24514 l -0.24515,-0.24514 h -0.24515 l -0.24515,-0.24515 h -0.24515 l -0.24514,-0.24515 h -0.24515 l -0.24516,-0.24515 h -0.24514 l -0.24515,-0.24514 h -0.24515 l -0.24514,-0.24515 h -0.24516 l -0.24515,-0.24515 h -0.24514 l -1.22574,-0.73544 h -0.49031 l -0.24514,-0.24516 h -0.24515 l -0.24515,-0.24515 h -0.24515 l -0.24514,-0.24515 h -0.24515 l -1.22575,-0.73544 h -0.73544 l -0.24515,-0.24515 h -4.65782 l -0.73544,-0.73545 v -0.49028 l -0.24514,-0.24515 v -0.4903 l -0.24515,-0.24514 v -0.73545 l -0.24515,-0.24514 V 129.872 l -0.4903,-0.4903 h -0.24514 l -0.24515,-0.24514 h -0.24516 l -0.24514,-0.24515 -0.73545,-0.24515 -0.49029,-0.49029 h -0.24515 l -0.73544,-0.4903 h -0.49031 l -1.22573,-0.73545 h -0.73546 z"
     fill="#000000"
     fill-rule="evenodd"
     id="path14"
     style="stroke-width:0.245149" />
  <path
     d="m 146.42505,104.37657 v 2.94178 l -0.24515,0.24515 h -0.49029 l -0.24515,0.24515 v 0.73544 l 0.24515,0.24516 v 0.24515 l -0.49031,0.49029 h -0.24514 l -1.22574,1.22574 h -0.24515 v 0.73545 l 0.24515,0.24515 h 0.24515 l 0.24514,0.24515 h 0.24515 l 0.24515,0.24514 h 0.24515 l 0.24514,0.24515 h 0.24516 l 0.24515,0.24515 h 0.24514 l 0.24515,0.24516 h 0.24515 l 0.24515,0.24513 h 0.24515 l 0.24514,0.24515 h 0.24515 l 0.73545,0.49031 h 0.49028 l 0.24516,-0.24515 h 0.73544 l 0.24515,-0.24516 h 0.4903 l 0.24514,-0.24515 h 0.9806 l 0.73544,0.73546 0.24515,0.73544 0.73544,0.73544 v 0.24516 l 1.22575,1.22573 h 0.24515 l 0.24515,0.24516 h 0.24514 l 0.4903,0.49029 h 0.24515 l 0.24514,0.24515 h 0.24516 l 0.24515,0.24515 h 0.24514 l 0.24515,0.24513 h 0.24515 l 0.24515,0.24517 h 0.24515 l 0.24514,0.24513 h 0.24515 l 0.24516,0.24516 h 0.24514 l 0.24515,0.24514 h 0.24515 l 0.24514,0.24514 h 0.24516 l 0.24515,0.24516 h 0.24514 l 0.24515,0.24515 h 0.24515 l 0.24515,0.24514 0.73544,0.24515 0.4903,0.4903 h 0.24515 l 0.73543,0.49029 h 0.4903 l 0.73544,0.49031 h 0.49031 l 0.24513,0.24514 h 0.73546 l 0.24514,0.24515 h 1.96119 l 0.24515,-0.24515 h 0.73544 l 0.24515,-0.24514 h 0.4903 l 0.24516,-0.24516 h 0.24514 l 0.24514,-0.24515 0.73545,-0.24514 0.4903,-0.4903 v -0.98059 l -0.24515,-0.24516 v -0.73544 l -0.24515,-0.24513 v -0.24517 l -0.24514,-0.24513 -0.24515,-0.73545 -0.4903,-0.4903 V 116.634 l -1.71604,-1.71604 h -0.24515 l -0.73544,-0.73545 h -0.24515 l -0.73545,-0.49029 h -0.4903 l -0.24514,-0.24516 h -0.24515 l -0.24515,-0.24515 h -0.24516 l -0.24513,-0.24513 h -0.24515 l -0.24516,-0.24516 h -0.24515 l -0.24513,-0.24515 h -0.24516 l -0.24515,-0.24515 h -0.24515 l -0.24514,-0.24514 h -0.24515 l -0.24514,-0.24515 h -0.24515 l -0.24514,-0.24515 h -0.24516 l -0.73544,-0.49029 h -0.4903 l -0.24515,-0.24516 h -0.24514 l -0.24515,-0.24515 h -0.24516 l -0.24514,-0.24514 h -0.24515 l -0.73545,-0.4903 h -0.73544 l -0.24515,-0.24515 h -3.18694 l -0.24513,0.24515 -0.24515,-0.24515 h -0.49031 l -0.24513,-0.24515 0.24513,-0.24514 h 0.49031 -0.49031 l -0.24513,0.24514 -0.24516,-0.24514 v -0.73545 l -0.24515,-0.24514 v -0.49031 l -0.24515,-0.24515 v -0.49029 l -0.49029,-0.73545 h -0.24515 l -0.24515,-0.24515 h -0.24514 l -0.24516,-0.24514 h -0.24515 l -0.24514,-0.24515 h -0.24516 l -0.24514,-0.24516 h -0.24515 l -0.24515,-0.24514 h -0.24515 l -0.24514,-0.24514 h -0.24516 l -0.24514,-0.24516 h -0.24514 l -0.73545,-0.49029 h -0.49029 z"
     fill="#000000"
     fill-rule="evenodd"
     id="path15"
     style="stroke-width:0.245149" />
  <path
     d="m 150.34742,88.196789 v 2.206336 l 0.24514,0.245147 v 0.490298 l -0.24514,0.245146 -0.24516,-0.245146 0.24516,0.245146 -0.24516,0.245159 h -0.24514 v 0.980589 l 0.24514,0.245148 v 0.245146 l -1.71603,1.716032 v 0.735453 l 0.24514,0.245147 h 0.4903 l 0.24515,0.245147 h 0.73544 l 0.24516,0.245147 h 0.49029 l 0.24516,0.245148 h 0.73544 l 0.24515,0.245148 h 0.49029 l 0.24515,0.245146 h 0.73544 l 0.24516,-0.245146 h 0.24515 l 0.24513,-0.245148 h 0.24516 l 0.24515,-0.245148 h 0.24515 l 0.73544,-0.490294 h 0.49029 l 2.4515,2.451485 h 0.24514 l 0.4903,0.490295 h 0.4903 l 0.73544,0.490305 h 0.4903 l 0.24515,0.245138 h 0.73545 l 0.24514,0.245147 h 0.49029 l 0.24515,0.245158 h 0.73544 l 0.24516,0.245142 h 0.49028 l 0.24516,0.24514 h 0.49028 l 0.24516,0.24516 h 0.73544 l 0.24515,0.24515 h 0.4903 l 0.24514,0.24515 h 0.73545 l 0.24515,0.24514 h 0.73545 l 0.24514,0.24515 h 3.43208 l 0.24515,-0.24515 h 0.4903 l 0.24515,-0.24514 h 0.24515 l 0.24515,-0.24515 h 0.24514 l 0.4903,-0.49031 h 0.24516 l 0.98059,-0.980587 v -0.245138 l -0.24515,-0.245157 v -0.490295 l -0.24516,-0.245148 v -0.245148 l -0.24515,-0.245147 v -0.245158 l -0.24513,-0.245137 v -0.245159 l -1.96119,-1.961178 h -0.24516 l -0.24515,-0.245158 h -0.24514 l -0.4903,-0.490295 h -0.4903 l -0.24514,-0.245147 h -0.49031 l -0.24514,-0.245147 h -0.4903 l -0.24514,-0.245148 h -0.73545 l -0.24515,-0.245147 h -0.4903 l -0.24515,-0.245148 h -0.73545 l -0.24514,-0.245146 h -0.73545 l -0.24514,-0.245148 h -0.4903 l -0.24516,-0.245148 h -0.73544 l -0.24515,-0.245157 h -0.73544 l -0.24515,-0.245138 h -0.73543 l -0.24515,-0.245146 h -2.45148 l -0.24516,0.245146 h -0.98058 l -0.24516,0.245138 h -1.22574 l -0.49029,-0.490284 v -0.245159 l -0.24515,-0.245146 v -0.24515 l -0.24516,-0.245148 v -0.245147 l -0.49029,-0.490294 v -0.245148 l -0.24515,-0.245157 h -0.24515 l -0.24514,-0.245148 h -0.4903 l -0.24516,-0.245137 h -0.73544 l -0.24515,-0.245158 h -0.49029 l -0.24515,-0.245148 h -0.49029 l -0.24515,-0.245146 h -0.73544 l -0.24516,-0.245148 -0.24515,0.245148 z"
     fill="#000000"
     fill-rule="evenodd"
     id="path16"
     style="stroke-width:0.245149" />
  <path
     d="m 24.83149,55.346917 2.451483,1.716042 11.031671,2.206337 -0.735445,1.470885 3.677226,4.412673 91.930615,12.257409 -1.47089,6.128715 5.14811,1.225737 5.88357,-0.9806 2.20633,-2.451473 v -2.206337 l 13.97345,0.735442 0.4903,3.677231 27.70176,0.490295 0.49029,-3.922379 2.20634,-0.245147 v -4.65781 l 2.20632,12.257409 1.47089,-7.599599 18.38613,-0.245147 0.4903,-7.599599 0.98059,14.218608 0.73544,-6.128715 6.37387,-1.225737 H 240.562 l 8.58018,0.98059 1.71603,1.716042 6.12872,-0.490306 0.49029,-0.980589 -1.71604,-0.980589 0.4903,-2.206337 7.84475,-1.961189 3.18692,-2.941778 1.96119,-4.412663 4.16752,-0.490306 -3.92237,-0.980589 -1.71604,-4.167515 -3.92237,-2.696632 -12.99287,-2.941789 -3.43206,-1.961179 -6.86415,0.490295 -2.20634,-3.677221 -2.69664,-1.225747 h -9.07049 l -7.59958,2.696631 h -8.0899 l -0.24516,4.412673 -1.71603,-14.463751 -2.45149,15.199194 -0.24514,-5.393263 -13.97345,-0.490295 -0.49029,4.167516 -2.69664,-18.14097 -2.20633,11.767117 0.73544,9.805937 -1.71603,-1.96119 v -5.883557 l -14.46376,0.245147 -0.24514,-3.677221 -3.43208,-2.451484 -3.92238,0.735442 -1.96118,2.451485 -4.16752,-0.245148 3.92237,1.470884 v 1.470895 l -25.98572,1.716031 -12.99286,-2.206326 -0.73545,-5.638413 -0.98059,4.657813 -30.888687,-5.393256 -5.393261,-1.716037 -6.864156,-4.412675 -3.677224,-4.902961 -6.864148,-15.934641 -2.941781,-2.69663 -5.638411,-1.716038 -6.128705,2.696631 -3.186931,4.412667 -3.677224,26.966319 -3.186924,3.186916 h -3.432074 l 3.677224,1.470894 -2.451488,2.941779 33.340168,3.922369 -41.18491,-4.167516 z M 263.36079,72.9976 v -0.735453 l -0.24515,-0.245146 v -0.245148 l 0.24515,-0.245148 h 2.20632 l 0.24514,0.245148 -0.98059,0.980589 h -0.24514 l -0.24515,-0.245136 h -0.24514 0.24514 l 0.24515,0.245136 -0.49029,0.490305 h -0.4903 z m 3.92236,-4.657821 0.24515,0.245148 v 0.490295 l -0.24515,0.245147 v 0.245158 l -0.73544,0.735442 -0.24515,-0.245158 v -0.245136 l 0.24515,-0.245148 v -0.9806 l 0.24515,-0.245148 0.24514,0.245148 z m -3.92236,-0.735441 h 1.96118 l 0.24514,0.245147 -0.24514,0.245148 h -0.73545 v 0.245146 l 0.24514,0.245148 v -0.245148 l 0.24515,-0.245146 0.24516,0.245146 v 0.735443 l -0.24516,0.245147 v 0.490306 l -0.24515,0.245136 h -1.47087 l -0.24515,-0.245136 v -1.96119 z M 169.95928,65.398 l 0.24516,-0.245146 h 0.98059 l 0.24514,-0.245148 h 1.96119 l 0.24515,0.245148 h 0.98059 l 0.24515,0.245146 -0.24515,0.245148 h -4.41266 z M 267.038,63.927106 h 0.24515 l 0.24515,0.245158 v 0.490295 l -0.24515,0.245147 v 0.735442 -0.490294 l 0.24515,-0.245148 0.24515,0.245148 v 0.735442 l -0.24515,0.245147 h -0.4903 l -0.24514,-0.245147 v -1.716032 z m -3.92236,0.245158 0.24515,-0.245158 0.24514,0.245158 v 0.735442 l 0.24515,-0.245147 -0.24515,-0.245158 0.24515,-0.245137 h 1.47089 l 0.24514,0.245137 -0.24514,0.245158 h -0.73545 l 0.24514,0.245147 v 0.245148 -0.245148 l 0.24515,-0.245147 0.24516,0.245147 v 0.245148 l 0.24514,0.245146 v 0.490296 l -0.24514,0.245147 h -1.96118 l -0.24515,-0.245147 z m -56.13897,0.245137 -0.24515,0.245158 0.24515,0.245147 v 0.245148 L 206.73152,65.398 v 0.980591 l 0.24515,0.245146 v 0.245159 l -0.24515,0.245136 h -0.24515 l -0.24514,-0.245136 h -1.71604 l -0.24514,-0.245159 h -1.22575 l -0.24514,-0.245146 h -0.4903 l -0.24515,-0.245148 h -1.47089 l -0.24514,-0.245147 0.24514,-0.245148 h 0.4903 L 201.33827,65.398 h 0.24514 l 0.24516,0.245148 -0.24516,-0.245148 0.24516,-0.245146 h 0.24514 l 0.24515,-0.245148 h 0.24515 l 0.49029,-0.490305 h 0.4903 l 0.24515,-0.245137 h 0.73544 l 0.24515,-0.245158 h 1.47089 l 0.24514,0.245158 h 0.24515 z m -20.59246,1.96119 -0.24513,0.245146 h -2.69664 l -0.24514,-0.245146 h -2.20635 l -0.24514,-0.245148 h -2.94178 l -0.24516,-0.245147 h -2.45146 l -0.24516,-0.245148 0.24516,-0.245148 h 0.98059 v -0.245146 h -2.45149 l -0.24515,-0.245148 0.24515,-0.245147 h 1.96118 l 0.24516,-0.245158 h 2.20632 l 0.24515,-0.245137 h 2.20634 l 0.24515,-0.245158 h 1.96118 l 0.24515,-0.245148 h 2.45148 l 0.24515,0.245148 h 0.49031 l 0.24513,0.245158 z m 66.43519,-3.186927 0.24515,-0.245147 h 1.96119 l 0.24515,0.245147 h 2.94178 l 0.24515,0.245148 v 2.451484 l -0.4903,0.490295 h -4.90297 l -0.24515,-0.245148 v -2.451485 l 0.24515,-0.245146 0.24515,0.245146 0.24515,-0.245146 h 0.24514 -0.73544 z m -6.619,-0.245147 0.24515,-0.245148 h 4.16752 l 0.24514,0.245148 v 2.941779 l -0.49029,0.490295 h -3.43207 l -0.24514,-0.245148 v -0.490295 0.490295 l -0.24516,0.245148 -0.24515,-0.245148 z m -35.30135,0 0.24514,-0.245148 h 0.9806 l 0.24515,0.245148 h 0.4903 l 0.24514,0.245147 h 0.4903 l 0.98059,0.9806 -0.24514,0.245137 h -0.4903 l -0.24515,-0.245137 h -0.24515 l -0.24515,-0.245158 h -0.24514 l -0.24516,-0.245148 h -0.49029 l -0.24515,-0.245146 h -0.73545 l -0.24514,-0.245148 z m -19.85701,-0.245148 0.24515,-0.245147 h 0.73543 l 0.24516,0.245147 h 0.49029 l 0.24515,0.245148 h 0.24515 l 0.24514,0.245147 h 0.24515 l 0.24515,0.245148 -0.24515,0.245146 0.24515,0.245148 -0.24515,-0.245148 0.24515,-0.245146 h 0.24516 l 0.24514,0.245146 v 0.245148 l 0.24514,0.245158 -0.24514,0.245137 h -0.73545 l -0.24515,0.245158 v 0.490295 l -0.49029,0.490294 -0.24515,-0.245148 v -0.245146 h -0.24515 V 65.398 l -0.24514,0.245148 -0.24516,-0.245148 v -1.225736 l -0.49028,-0.490306 h -0.24515 l -0.24515,-0.245146 z m 69.13181,-2.696631 0.24516,-0.245148 h 0.24515 l 0.24513,0.245148 h 0.73546 l 0.24514,0.245148 h 0.73546 l 0.24513,0.245147 h 0.49031 l 0.24514,0.245148 h 0.24515 l 0.24515,0.245146 h 0.24514 l 0.24515,0.245148 -0.24515,0.245157 0.24515,-0.245157 h 0.24514 l 0.24515,0.245157 h 0.24516 l 0.24514,0.245138 -0.24514,0.245158 h -0.24516 l 0.24516,0.245147 h 0.24514 l 0.24514,-0.245147 0.49031,0.490294 -0.24515,0.245147 h -1.71604 l -0.24514,-0.245147 h -0.73544 l -0.24515,-0.245147 h -2.20635 l -0.24513,-0.245147 h -0.24515 l -0.24516,-0.245158 z m -7.35445,-1.225737 0.24515,-0.245147 h 1.47089 l 0.24514,0.245147 h 1.22575 l 0.24515,0.245138 h 0.98059 l 0.24515,0.245157 h 0.73545 l 0.24515,0.245148 -0.24515,0.245146 h -0.73545 0.4903 l 0.4903,0.490296 v 1.225746 l -0.24515,0.245138 h -2.20634 l -0.24515,-0.245138 h -2.69663 l -0.24515,-0.245157 z m -155.914312,0.245138 0.245143,-0.245138 h 0.245151 l -0.245151,-0.245147 0.245151,-0.245158 h 0.4903 l 0.245142,0.245158 h 0.245151 l 0.245151,0.245147 h 0.735443 l 0.24515,0.245138 h 0.490291 l 0.24515,0.245157 h 0.49029 l 0.24515,0.245148 -0.24515,0.245146 h -0.24514 0.24514 l 0.24515,-0.245146 h 0.49031 l 0.24514,0.245146 h 0.4903 l 0.24515,0.245148 h 0.49029 l 0.24515,0.245148 h 0.73545 l 0.24515,0.245147 h 0.24514 l 0.24515,0.245148 h 0.73544 l 0.24515,0.245146 h 0.4903 l 0.24515,0.245148 h 0.4903 l 0.24514,0.245157 h 0.73545 l 0.24514,0.245138 h 0.24515 l 0.24515,0.245158 h 0.73545 l 0.24515,0.245147 h 0.49029 l 0.24515,0.245147 h 0.49029 l 0.24515,0.245147 h 0.4903 l 0.24515,0.245148 h 0.73545 l 0.24514,0.245147 h 0.4903 l 0.24515,0.245148 h 0.49029 l 0.24516,0.245146 -0.24516,0.245148 h -0.73544 l -0.24515,-0.245148 h -0.73544 l -0.24515,-0.245146 h -0.73545 l -0.24515,-0.245148 h -0.49029 l -0.24515,-0.245147 h -0.73544 l -0.24515,-0.245148 h -0.4903 l -0.24515,-0.245147 h -0.73544 l -0.24515,-0.245147 h -0.4903 l -0.24514,-0.245147 h -0.73545 l -0.24515,-0.245158 h -0.73544 l -0.24515,-0.245138 h -0.4903 l -0.24514,-0.245157 h -0.49031 l -0.24514,-0.245148 h -0.73545 l -0.24514,-0.245146 h -0.4903 l -0.24515,-0.245148 h -0.49029 l -0.24516,-0.245147 0.24516,-0.245148 -0.24516,0.245148 h -0.73544 l -0.24515,-0.245148 h -0.735441 l -0.24515,-0.245148 h -0.490293 l -0.245151,-0.245146 h -0.490293 l -0.24515,-0.245148 h -0.490301 z m 149.295312,-0.980591 0.49031,-0.490294 0.24514,0.245148 h 2.45149 l 0.24515,0.245146 h 0.98058 l 0.24514,0.245148 v 2.696631 l -0.24514,0.245148 h -1.71604 l -0.24514,-0.245148 h -2.20634 l -0.24515,-0.245146 z m -117.67118,-0.245146 0.24515,-0.245148 h 0.9806 -0.49031 l -0.24515,-0.245147 0.24515,-0.245148 h 1.22575 l 0.24515,0.245148 h 0.98059 l 0.24516,0.245147 h 0.98058 l 0.24515,0.245148 h 1.22574 l 0.24515,0.245146 h 0.98059 l 0.24515,0.245148 -0.24515,0.245158 h -0.98059 0.49029 l 0.24515,0.245147 h 0.4903 l -0.24515,-0.245147 0.24515,-0.245158 h 1.22574 l 0.24515,0.245158 h 0.98059 l 0.24515,0.245147 -0.24515,0.245138 h -0.73545 0.24516 l 0.24514,0.245157 h 1.22575 -0.73545 l -0.24515,-0.245157 0.24515,-0.245138 h 1.22574 l 0.24515,0.245138 h 0.9806 l 0.24514,0.245157 h 0.98059 l 0.24515,0.245148 -0.24515,0.245146 h -1.22573 0.73544 l 0.24516,0.245148 h 0.24513 V 59.75959 l 0.24515,-0.245146 h 1.22575 l 0.24515,0.245146 h 0.98059 l 0.24514,0.245148 -0.24514,0.245148 h -0.73545 0.24515 l 0.24515,0.245147 h 1.22574 -0.49029 l -0.24516,-0.245147 0.24516,-0.245148 h 0.98059 l 0.24515,0.245148 h 0.98059 l 0.24514,0.245147 h 1.22574 l 0.24515,0.245148 h 0.9806 l 0.24514,0.245146 h 1.22575 l 0.24515,0.245148 -0.24515,0.245157 h -0.9806 l 0.24516,0.245138 h 1.22573 -0.24514 l -0.24515,-0.245138 0.24515,-0.245157 h 0.9806 l 0.24513,0.245157 h 0.98059 l 0.24516,0.245138 h 0.73544 l 0.24515,0.245158 -0.24515,0.245147 h -1.22573 1.22573 l 0.24515,0.245147 -0.24515,-0.245147 0.24515,-0.245147 h 0.9806 l 0.24515,0.245147 h 0.49029 l 0.24515,0.245147 -0.24515,0.245147 h -0.24515 l 0.73545,-0.245147 0.73544,0.735442 -0.24515,0.245148 h -0.49029 l -0.24515,-0.245148 h -1.22575 l -0.24514,-0.245147 h -0.98059 l -0.24515,-0.245148 h -1.22575 l -0.24515,-0.245147 h -1.22573 l -0.24515,-0.245147 h -0.9806 l -0.24515,-0.245147 h -1.22574 l -0.24515,-0.245158 h -0.73544 l -0.24514,-0.245138 h -1.22574 l -0.24515,-0.245157 h -0.98059 l -0.24515,-0.245148 h -0.9806 l -0.24515,-0.245146 h -1.22573 l -0.24515,-0.245148 h -0.9806 l -0.24515,-0.245147 h -1.22575 l -0.24514,-0.245148 h -0.9806 l -0.24514,-0.245148 h -0.98059 l -0.24516,-0.245146 h -1.22574 l -0.24515,-0.245148 h -0.98059 l -0.24515,-0.245157 h -0.98059 l -0.24515,-0.245138 h -0.98058 l -0.24515,-0.245147 h -1.22575 l -0.24514,-0.245158 h -0.9806 l -0.24514,-0.245148 h -0.9806 z m -34.811064,0 0.245151,-0.245148 h 0.490294 l -0.245144,-0.245147 0.245144,-0.245148 h 0.245151 l 0.245149,0.245148 h 0.245151 l 0.245142,0.245147 -0.245142,0.245148 h -0.245151 l 0.245151,0.245146 h 0.245142 l -0.245142,-0.245146 0.245142,-0.245148 h 0.245151 l 0.245149,0.245148 h 0.490295 l 0.245149,0.245146 h 0.24515 l 0.245143,0.245148 -0.245143,0.245158 h -0.24515 0.24515 l 0.245143,0.245147 -0.245143,0.245138 h -0.73545 l -0.245144,-0.245138 h -0.245149 l -0.245151,-0.245147 h -0.490293 l -0.245149,-0.245158 h -0.245151 l -0.245144,-0.245148 h -0.24515 z m 28.192054,-1.225737 0.24515,-0.245158 h 0.98059 -0.49029 l -0.24515,-0.245147 0.24515,-0.245138 h 0.98059 l 0.24514,0.245138 h 0.98061 l 0.24514,0.245147 h 1.22575 l 0.24514,0.245158 h 0.9806 l 0.24515,0.245147 h 1.22573 l 0.24515,0.245147 -0.24515,0.245148 h -0.98059 0.4903 l 0.24515,0.245147 -0.24515,0.245148 h -1.22574 l -0.24515,-0.245148 h -0.9806 l -0.24514,-0.245147 H 124.852 l -0.24515,-0.245148 h -1.22574 l -0.24516,-0.245147 h -0.98059 z m -7.35445,-1.225748 0.24515,-0.245147 h 1.47089 -0.98059 l -0.24515,-0.245147 0.24515,-0.245147 h 1.47089 l 0.24515,0.245147 h 1.22573 l 0.24515,0.245147 h 0.9806 l 0.24515,0.245147 -0.24515,0.245148 h -0.9806 0.9806 l 0.24515,-0.245148 h 1.22574 l 0.24514,0.245148 h 0.9806 l 0.24515,0.245157 -0.24515,0.245138 h -0.4903 0.24515 l 0.24515,0.245147 -0.24515,0.245158 h -1.22574 l -0.24515,-0.245158 h -0.98059 l -0.24515,-0.245147 h -1.22574 l -0.24515,-0.245138 h -1.22574 l -0.24515,-0.245157 h -1.47089 z m -22.55364,1.225748 0.245151,-0.245158 V 56.08236 l 0.490292,-0.490295 h 0.245151 -0.245151 l -0.245149,-0.245148 0.245149,-0.245147 h 0.245151 l 0.24515,-0.245147 h 0.735443 l 0.24515,-0.245147 h 1.225737 l 0.245151,0.245147 -0.245151,0.245147 h -0.735442 1.716037 l 0.245149,-0.245147 h 0.490293 -1.470886 l -0.245151,-0.245147 0.245151,-0.245148 h 1.716037 l 0.24515,-0.245147 h 4.902968 l 0.24514,-0.245148 h 1.96119 l 0.24515,0.245148 h 7.35445 l 0.24515,0.245147 h 2.20633 l 0.24515,0.245148 -0.24515,0.245147 h -1.96119 1.4709 l 0.24514,0.245147 -0.24514,0.245147 h -5.63842 l -0.24515,-0.245147 h -6.1287 l -0.24515,0.245147 h -4.902969 l -0.245143,0.245148 h -1.470894 l -0.245142,0.245157 h -0.735451 l -0.490294,0.490285 v 0.245158 l 0.490294,0.490294 -0.245144,0.245148 h -0.24515 v 0.245147 l -0.245151,0.245148 h -0.245148 l -0.245144,-0.245148 h -0.24515 z m 135.81215,-4.412674 0.24516,-0.245147 h 5.88356 l 0.4903,0.490295 v 0.245147 l 0.24514,0.245148 v 0.490294 l 0.24516,0.245158 v 0.245147 l 0.24513,0.245148 -0.24513,0.245147 h -6.86416 l -0.24516,-0.245147 z M 47.630278,48.727918 h 0.490302 l 0.245143,0.245148 h 0.24515 l 0.245149,0.245147 v 2.451484 l -0.245149,0.245147 h -1.225745 l -0.245142,-0.245147 v -1.96119 l 0.245142,-0.245147 0.24515,0.245147 v 0.735453 -0.490305 l 0.245151,-0.245148 h -0.245151 l -0.24515,-0.245147 v -0.490294 z m -1.470886,0 0.245151,0.245148 -0.245151,0.245147 v 0.245147 l -0.245151,0.245147 v 0.490295 l -0.245149,0.245158 v 0.735442 l -0.245143,0.245147 -0.24515,-0.245147 h -0.245151 l -0.24515,-0.245147 H 44.198206 L 43.953055,50.689097 V 50.44396 l 0.245151,-0.245158 0.24515,0.245158 h 0.245142 v -0.245158 l 0.490301,-0.490295 h 0.24515 V 49.46336 h -0.24515 l -0.245151,-0.245147 0.245151,-0.245147 h 0.24515 l 0.245143,-0.245148 z m 118.896928,-1.470894 0.24513,0.245157 -0.24513,0.245148 v 0.245136 l -0.24515,0.245158 v 0.245148 l -0.24516,0.245147 v 0.245148 l -0.24515,0.245147 h -0.24513 l -0.24516,-0.245147 h -0.24515 l -0.24515,-0.245148 v -0.245147 l 0.98059,-0.98059 h 0.24515 l 0.24516,-0.245157 z"
     fill="#000000"
     fill-rule="evenodd"
     id="path17"
     style="stroke-width:0.245149" />
  <path
     d="m 112.34943,224.74436 v 0.73546 l 0.24515,0.2452 v 0.24512 l 0.24514,0.24513 h 0.24515 l 0.24515,0.24513 h 1.96119 v -0.24513 l -0.4903,-0.49025 v -0.2452 l -0.73545,-0.73546 h -0.24515 l -0.24514,-0.24513 h -0.98059 z"
     fill="#000000"
     fill-rule="evenodd"
     id="path18"
     style="stroke-width:0.245149" />
  <path
     d="m 200.60282,216.40934 -0.4903,-0.49026 v -0.24519 l -0.24514,-0.24514 h -1.22575 l -0.49029,0.49033 h -0.24515 l -1.22575,1.22572 h -0.24515 l -1.22573,1.2257 h -0.24515 l -0.73544,0.73547 v 0.24512 h 1.96118 l 0.24514,-0.24512 h 0.98059 l 0.24516,-0.24513 h 0.98059 l 0.24515,-0.24512 h 0.4903 l 0.24514,-0.24522 h 0.24516 l 0.24514,-0.24512 v -0.49033 l 0.24516,-0.24512 v -0.24513 l 0.24514,-0.24514 z"
     fill="#000000"
     fill-rule="evenodd"
     id="path19"
     style="stroke-width:0.245149" />
  <path
     d="m 47.139986,215.42875 -0.24515,0.24514 v 0.49032 l 0.490292,0.49026 v 0.24519 l 0.24515,0.24514 v 0.24513 l 0.490302,0.49032 v 0.24513 l 0.490293,0.49034 v 0.24512 l 0.245149,0.24513 v 0.24512 l 0.245151,0.24521 v 0.24513 l 0.245143,0.24512 v 0.24513 l 0.24515,0.24521 h 0.490301 l 0.245143,0.24511 h 0.4903 l 0.245143,0.24513 -0.245143,0.24522 h -0.245151 0.245151 l 0.245143,-0.24522 h 0.4903 l 0.24515,0.24522 h 0.490293 l 0.245151,0.24512 h 0.490293 v -0.49034 l 0.245149,-0.24513 v -0.98057 l 0.245151,-0.24513 v -0.73546 l -0.4903,-0.49034 v -0.24512 l -0.490293,-0.49033 h -0.245151 l -0.245149,-0.24512 h -0.245144 l -0.24515,-0.24513 h -0.4903 l -0.245143,-0.24514 h -0.245151 l -0.245149,-0.24519 h -0.245143 l -0.245151,-0.24513 h -0.24515 l -0.24515,-0.24513 h -0.245143 l -0.245151,-0.24513 h -0.245149 l -0.24515,-0.24519 H 48.12058 l -0.245151,-0.24514 z"
     fill="#000000"
     fill-rule="evenodd"
     id="path20"
     style="stroke-width:0.245149" />
  <path
     d="m 256.25148,209.0549 h -0.24515 l -0.24515,0.24513 h -0.24514 l -0.4903,0.49032 h -0.24516 l -0.49028,0.49027 h -0.24516 l -0.24515,0.2452 h -0.24514 l -0.4903,0.49025 h -0.24515 l -0.49029,0.49034 h -0.24515 l -0.49029,0.49025 v 1.22579 l -0.24516,0.24513 v 0.73546 l 0.24516,0.24513 h 0.24513 l 0.24516,-0.24513 h 0.24515 l 0.24514,-0.24521 h 0.4903 l 0.24515,-0.24512 h 0.49029 l 0.49031,-0.49026 v -0.2452 l 0.49028,-0.49026 v -0.2452 l 0.24516,-0.24513 v -0.24513 l 0.4903,-0.49033 v -0.24513 l 0.49029,-0.49025 v -0.2452 l 0.4903,-0.49027 v -0.49032 z"
     fill="#000000"
     fill-rule="evenodd"
     id="path21"
     style="stroke-width:0.245149" />
  <path
     d="m 238.35566,200.47469 h -1.22575 v 0.24519 l -0.24515,0.24513 v 0.24513 l -0.24515,0.24513 v 0.2452 l -0.24514,0.24513 v 2.20629 l 0.24514,0.24522 v 1.47082 l 0.24515,0.24522 v 0.24512 h 0.24515 l 0.24515,-0.24512 v -0.24522 l 0.24515,-0.24512 v -0.24512 l 0.24514,-0.24513 0.24515,0.24513 -0.24515,-0.24513 v -0.24521 l 0.24515,-0.24511 v -0.24513 l 0.24516,-0.24522 v -0.49024 l 0.24515,-0.24513 v -0.2452 l 0.24513,-0.24514 v -1.22571 l -0.24513,-0.2452 v -0.49026 l -0.24515,-0.24513 z"
     fill="#000000"
     fill-rule="evenodd"
     id="path22"
     style="stroke-width:0.245149" />
  <path
     d="m 90.040933,196.30721 h -0.245151 v 0.24513 l -1.961179,1.96117 v 0.24512 l -1.225744,1.22579 v 0.24513 l -0.980593,0.98059 v 0.73546 l 0.245149,0.24513 v 0.98059 l 0.245144,0.2452 v 0.49025 h 0.4903 l 0.24515,0.24512 h 0.245143 l 0.735451,-0.73537 h 0.245142 l 0.245151,-0.2452 0.245151,0.2452 -0.245151,-0.2452 0.490293,-0.49026 v -0.73546 l 0.245151,-0.24513 v -0.73546 l 0.24515,-0.24513 v -0.73546 l 0.24515,-0.24513 v -0.98066 l 0.245142,-0.24512 v -0.73546 l 0.245151,-0.24512 z"
     fill="#000000"
     fill-rule="evenodd"
     id="path23"
     style="stroke-width:0.245149" />
  <path
     d="m 116.02665,195.81687 -0.24515,0.24513 v 2.20638 l 0.24515,0.24513 h 0.24515 l 0.24515,0.24512 h 0.24515 l 0.4903,0.49034 h 0.24514 l 0.4903,0.49032 h 0.24514 l 0.24515,0.24513 h 0.24515 l 0.24515,0.24513 h 0.24515 l 0.24515,0.24514 h 0.4903 v -0.24514 l 0.24514,-0.24513 v -0.49032 l -0.24514,-0.24513 v -0.24513 l -0.24515,-0.24521 v -0.24512 l -0.9806,-0.98058 v -0.24514 l -0.4903,-0.49033 v -0.24512 l -0.73544,-0.73547 z"
     fill="#000000"
     fill-rule="evenodd"
     id="path24"
     style="stroke-width:0.245149" />
  <path
     d="m 190.06145,189.44304 h -2.45149 l -0.24515,0.24511 v 0.24521 l -0.24514,0.24513 v 0.24512 l -0.4903,0.49034 v 0.24512 l -0.49029,0.49033 v 0.24514 l -0.49031,0.49025 v 0.24519 l -0.49029,0.49026 v 0.24514 l -0.73545,0.73545 v 0.2452 l -0.49029,0.49026 v 0.24513 l -0.24516,0.2452 v 0.49025 l 0.24516,0.24513 v 0.98066 l 0.24515,0.24513 v 0.24514 h 1.47088 l 0.9806,-0.98059 h 0.24515 l 0.98059,-0.98059 h 0.24516 l 0.98058,-0.98059 h 0.24516 l 1.22573,-1.22578 h 0.24516 v -1.47084 l -0.24516,-0.24514 v -0.73545 l -0.24514,-0.24521 v -0.73538 l -0.24515,-0.24521 z"
     fill="#000000"
     fill-rule="evenodd"
     id="path25"
     style="stroke-width:0.245149" />
  <path
     d="m 161.86939,188.95278 h -1.22574 v 0.24513 l -0.73544,0.73545 v 0.24513 l -0.4903,0.49025 v 1.96124 l 0.24514,0.24513 v 1.22572 l 0.24516,0.2452 v 1.47084 l 0.24515,0.24513 v 0.73546 h 0.24514 l 0.24515,-0.24512 v -0.24513 l 0.24515,-0.24521 v -0.24513 l 0.24515,-0.24512 v -0.49033 l 0.24515,-0.24513 v -0.24513 l 0.24514,-0.24513 v -0.49033 l 0.24515,-0.24512 v -0.49034 l 0.24516,-0.24513 v -0.49032 l 0.24514,-0.24513 v -0.24512 l 0.24515,-0.24514 v -0.98066 l -0.24515,-0.24513 v -0.49025 l -0.24514,-0.24521 v -0.49024 z"
     fill="#000000"
     fill-rule="evenodd"
     id="path26"
     style="stroke-width:0.245149" />
  <path
     d="m 145.68961,180.37255 -0.24515,0.24512 v 0.24514 l -0.24516,0.2452 v 0.24513 l -0.24514,0.24512 0.24514,0.2452 v 0.24514 l 0.24516,0.24513 v 0.24512 l 0.24515,0.2452 v 0.24513 l 0.24514,0.24513 v 0.24512 l 0.24515,0.24521 0.24515,-0.24521 v -0.73538 l -0.24515,-0.2452 0.24515,-0.24512 v -0.73547 l -0.24515,-0.24512 v -0.24513 l -0.24515,-0.2452 v -0.24514 z"
     fill="#000000"
     fill-rule="evenodd"
     id="path27"
     style="stroke-width:0.245149" />
  <path
     d="m 171.18503,178.90163 h -0.24515 l -0.24516,0.2452 h -0.24514 l -0.4903,0.49026 v 0.24513 l -0.24514,0.2452 v 0.24513 l -0.24516,0.24512 v 2.69664 h 0.24516 l 1.47089,-1.47085 v -0.2452 l 0.49029,-0.49025 v -1.47092 l -0.24515,-0.24512 v -0.24514 z"
     fill="#000000"
     fill-rule="evenodd"
     id="path28"
     style="stroke-width:0.245149" />
  <path
     d="m 285.42413,241.16934 -16.91524,-3.67722 -7.84473,-4.65787 -8.33505,1.71604 -3.67722,-1.47084 2.69662,-2.4515 -4.90296,0.73546 12.25742,-12.74769 -16.67009,7.84468 3.92238,-6.8641 -5.88357,3.18689 7.84475,-25.00514 -14.2186,22.06338 -0.49029,-9.07049 -4.16753,9.07049 -10.78652,-21.81818 3.43206,22.55364 -5.39324,-4.41268 3.18692,8.82534 -13.72832,-8.58021 10.29624,13.72828 -5.88355,-0.98059 2.94177,3.18697 -6.12871,1.2257 -11.03167,-5.63839 -13.97345,2.69664 6.86416,-7.10931 -8.5802,1.71604 20.59246,-22.06336 -26.47602,15.19918 7.5996,-13.23794 -10.29623,6.12864 16.42495,-43.88151 -29.66296,44.37184 -6.619,-18.63129 -1.71605,10.29628 -11.52196,-24.76002 1.96119,28.19202 -28.19206,-34.81102 18.87642,40.44949 -9.56079,-5.63847 9.56079,14.95407 -24.51483,-10.05106 20.10216,17.89584 -8.0899,0.73545 -3.18693,2.45143 -10.29622,-4.90294 -13.23801,3.92235 7.109299,-9.80594 -9.560779,4.41268 10.54137,-24.5148 -15.199188,18.38608 0.735444,-10.05106 -5.638412,9.07047 -7.599599,-27.94689 -0.980594,28.1921 -19.121565,-17.6507 12.257417,21.81817 -6.864156,-2.45142 6.373856,8.58014 -10.786524,-1.71605 6.619007,4.90301 -6.864156,2.45143 -8.580184,-1.71596 -17.65068,7.59955 z m -213.279018,-12.01231 0.245143,-0.24513 1.225743,1.22572 h 0.245151 l 1.225737,1.22579 h 0.24515 l 0.735444,0.73545 h 0.245149 l 0.24515,-0.2452 v -1.22571 l 0.24515,-0.24513 h 0.245144 l 0.245151,0.24513 v 0.49033 l 0.245149,0.24513 v 0.49025 l 0.245143,0.2452 v 0.24514 h 0.24515 l 1.961188,-1.96118 0.24515,0.24513 -0.24515,-0.24513 0.980593,-0.98059 0.245151,0.24514 v 0.24512 l -0.245151,0.24513 v 0.49033 l -0.245151,0.24512 v 0.24521 l -0.245141,0.24513 v 0.49025 l -0.245151,0.2452 v 0.49027 l -0.24515,0.24512 v 0.73545 h 0.24515 l 0.245151,-0.24512 h 0.490292 l 0.245151,0.24512 -0.245151,0.24522 0.245151,0.24512 -0.245151,0.24512 h -0.245151 l -0.245141,0.24513 H 79.25441 l -0.245149,0.24521 h -0.980595 l -0.24515,0.24511 h -0.735443 l -0.245144,0.24514 h -3.677223 l -1.225744,-1.22571 0.24515,-0.24512 h 0.735443 l 0.245151,0.24512 h 0.980586 v -0.24512 l -0.245143,-0.24522 v -0.49025 l -0.245151,-0.2452 V 232.344 l -0.245149,-0.24514 v -0.2452 l -0.245143,-0.24512 v -0.24513 l -0.245151,-0.24513 v -0.24521 l -0.24515,-0.24512 v -0.49033 l -0.24515,-0.24513 v -0.24512 l -0.245143,-0.24514 z m 165.965388,5.39326 -0.24515,0.24521 h -0.24514 l -0.24515,0.24511 h -0.24515 l -0.4903,0.49027 h -0.24514 l -0.24516,0.2452 h -0.24514 l -0.4903,0.49025 h -1.22573 l -0.24515,-0.24513 h -0.73544 l -0.24515,-0.24512 h -0.73544 l -0.24516,-0.2452 h -4.41266 l -0.24515,0.2452 h -0.9806 l -1.96119,-1.96116 v -0.24522 l -0.49029,-0.49025 0.24514,-0.2452 h 0.24515 l 0.24515,0.2452 h 0.49029 l 0.24516,0.24513 h 0.24514 l 0.24515,0.24512 h 0.24515 l 0.24515,0.24522 h 0.49029 l 0.24515,0.24512 0.24516,-0.24512 v -2.20638 l -0.24516,-0.24513 v -1.22579 l -0.24515,-0.24513 v -0.73546 l 0.24515,-0.24513 0.49031,0.49033 v 0.24514 l 0.24513,0.24512 v 0.24513 l -0.24513,0.2452 v 0.49025 h 0.24513 l 0.24516,-0.24512 0.4903,0.49033 v 0.24513 l 0.24514,0.24513 0.24515,-0.24513 0.4903,0.49025 v 0.2452 l 0.24514,0.24514 h 0.24516 l 0.24515,-0.24514 v -0.2452 l 0.98059,-0.98059 v -0.24512 l 1.47088,-1.47092 v -0.24513 l 0.49031,-0.49025 v -0.24521 l 0.49029,-0.49025 0.24515,0.24512 v 0.98059 l -0.24515,0.24513 v 0.73546 l -0.24514,0.24513 v 0.98066 l -0.24515,0.24513 v 0.73545 l -0.24515,0.24514 v 0.98058 l -0.24516,0.24512 v 0.49034 h 0.24516 l 0.24515,-0.24512 h 0.49029 l 0.24515,-0.24522 h 0.24515 l 0.24515,0.24522 -0.4903,0.49024 v 0.49034 h 0.73544 l 0.24516,-0.24521 h 1.22572 l 0.24516,-0.24513 h 1.47088 z m -99.28505,-6.8641 0.24514,-0.2452 h 0.24516 l 0.24514,0.2452 h 0.4903 l 0.24514,0.24512 h 0.24516 l 0.24515,0.24513 h 0.24515 l 0.24514,0.24521 -0.73544,0.73538 -0.4903,-0.49025 h -0.24515 z m 1.71604,1.47084 0.4903,-0.24513 0.24514,-0.49025 h 0.4903 l 1.22575,0.73538 h 0.49029 l 0.73544,0.49034 h 0.4903 l 1.22574,0.73545 h 0.4903 l 0.73544,0.49025 1.22574,0.24521 v -0.73546 l -0.24514,-0.2452 v -0.98059 l -0.24516,-0.24513 v -1.47091 l -0.24514,-0.24513 v -1.47084 l -0.24515,-0.2452 v -0.98059 l -0.24515,-0.24513 v -0.98059 l -0.24514,-0.2452 v -1.22572 l -0.24515,-0.24512 v -1.22579 l -0.24515,-0.24513 v -1.22571 l -0.24515,-0.24512 v -1.22579 l -0.24515,-0.24513 v -1.22572 l 0.24515,-0.24519 0.73545,0.73545 0.98058,1.96116 1.96119,2.69663 0.4903,1.22579 0.98059,1.22572 0.24515,0.73546 0.4903,0.49026 0.24514,0.73546 0.4903,0.49032 v 0.24513 l 0.49029,0.49034 0.49031,0.98058 h 0.24515 v -0.49033 l 0.49029,-0.98059 v -0.73545 l 0.24515,-0.24514 0.49029,0.24514 v 0.49032 l 0.24515,0.24513 v 0.73546 l 0.24515,0.24513 v 0.49033 h 0.24515 l 2.20633,-2.20637 v -0.24514 l 2.20634,-2.20637 v -0.24512 l 3.67723,-3.92235 0.24513,0.24513 v 0.49033 l -0.24513,0.24513 v 0.73546 l -0.49031,0.73546 v 0.49024 l -0.24515,0.24513 -0.24514,1.22579 -0.49029,0.73546 -0.24515,1.22571 -0.4903,0.73546 v 0.49026 l -0.24515,0.24521 -0.24514,1.2257 -0.4903,0.73547 v 0.49025 l -0.4903,0.73546 v 0.49033 l -0.24514,0.49025 h 0.73544 l 0.24515,-0.24512 h 0.49029 l 0.24515,0.24512 -0.24515,0.24521 v 0.49026 h 0.49031 l 0.24514,-0.24513 h 0.73544 l 0.24514,-0.24513 h 0.73546 l 0.24513,-0.24521 h 0.73546 l 0.24513,-0.24512 h 0.49031 l 0.24515,-0.24513 h 0.73544 l 0.24515,-0.2452 h 0.73545 l 0.24514,0.49033 0.4903,0.24512 -0.4903,0.49034 h -0.24514 l -2.69663,1.96117 -0.73546,0.24512 -1.22573,0.98059 h -2.20633 l -0.24515,-0.24513 h -0.9806 l -0.24514,-0.24512 h -1.22575 l -0.24514,-0.24512 h -1.96119 l -0.24515,0.24512 -2.69662,0.24512 -0.24516,0.24513 h -0.98059 l -0.24515,0.24521 h -0.9806 l -0.24514,0.24511 h -0.9806 l -0.24515,0.24514 h -2.45147 l -1.96119,-1.96117 0.24515,-0.24513 -0.24515,0.24513 -0.4903,-0.49033 0.24515,-0.24512 -0.24515,0.24512 z"
     fill="#000000"
     fill-rule="evenodd"
     id="path29"
     style="stroke-width:0.245149" />
  <path
     d="m 131.471,153.16109 v 1.47088 l -0.24515,0.24516 v 2.20634 l -0.24514,0.24514 v 0.4903 h 0.49029 l 0.9806,0.73544 -0.24516,0.24515 h -0.24513 l -0.73546,-0.49029 h -0.9806 v 0.73544 l -0.98059,0.98059 h -0.24515 l -1.71603,1.47089 v 0.73544 l 0.98059,0.73544 0.73544,0.24516 0.24515,0.24514 -0.24515,0.24514 0.24515,-0.24514 h 0.24515 l 3.43208,1.9612 h 0.98059 l 0.24514,-0.24516 h 0.73545 l 0.24515,-0.24515 h 0.4903 l 0.24515,-0.24515 h 0.73544 l 0.24515,0.24515 -0.24515,-0.24515 0.24515,-0.24514 h 0.24515 l 0.49029,0.49029 -0.24514,0.24515 0.24514,-0.24515 0.4903,0.49031 v 0.24513 l 0.4903,0.49031 0.24515,0.73544 1.22574,1.47089 v 0.24514 l 0.24514,0.24516 h 0.24516 l 0.98059,0.98059 h 0.24515 l 0.24516,0.24515 0.73544,0.24515 0.49028,0.4903 1.22575,0.49029 0.4903,0.4903 0.73545,0.24514 0.49029,0.49029 2.20633,0.98058 0.4903,0.49034 2.20634,0.98058 0.49029,0.49026 h 0.24515 l 0.73544,0.49033 h 0.49031 l 0.73544,0.49034 h 0.49028 l 0.24516,0.24512 h 0.73544 l 0.24515,0.24512 h 2.94178 l 0.24516,-0.24512 h 0.73544 l 0.24514,-0.24512 h 0.49031 l 2.20633,-1.22579 v -1.71606 l -0.24514,-0.24512 v -0.73546 l -0.24516,-0.24513 -0.24515,-1.22575 -0.49029,-0.4903 v -0.24514 l -0.4903,-0.4903 v -0.24515 l -2.45149,-2.45148 h -0.24514 l -0.4903,-0.4903 -2.20634,-0.9806 -0.49029,-0.49029 h -0.24515 l -0.24516,-0.24515 h -0.24513 l -0.24515,-0.24515 -3.67724,-1.71604 -0.49029,-0.4903 h -0.24515 l -2.69662,-1.47088 h -0.4903 l -0.24515,-0.24514 h -0.49029 l -0.24516,-0.24515 h -1.96119 l -0.24513,-0.24515 h -3.43209 l -0.24514,-0.24515 v -0.4903 l -0.24516,-0.24514 v -0.4903 l -0.24514,-0.24515 v -0.49029 l -0.24515,-0.24515 v -0.73544 l -0.24515,-0.24516 v -0.49029 l -0.73545,-0.73545 -3.67722,-1.71604 -0.49029,-0.4903 h -0.24515 l -0.73544,-0.49029 h -0.73545 z m 1.22575,5.88356 0.24514,-0.24515 h 0.24515 l 0.24515,0.24515 h 0.24514 l 0.24515,0.24515 h 0.24514 l 0.24516,0.24514 h 0.24515 l 0.49029,0.4903 -0.24515,0.24515 h -0.24514 l -0.24515,-0.24515 h -0.24516 l -0.24514,-0.24514 h -0.24515 l -0.24514,-0.24516 h -0.24515 z"
     fill="#000000"
     fill-rule="evenodd"
     id="path30"
     style="stroke-width:0.245149" />
  <path
     d="m 140.05119,127.17537 v 4.16752 l -0.24515,0.24515 h -0.49029 l -0.24516,0.24515 v 0.73543 l -0.49029,0.49031 h -0.24515 l -0.73545,0.73544 h -0.24514 l -0.9806,0.98059 0.24515,0.73544 h 0.24515 l 0.24515,0.24516 h 0.24515 l 0.24514,0.24515 h 0.24516 l 0.24514,0.24515 h 0.24515 l 0.24515,0.24514 h 0.24515 l 0.24514,0.24515 h 0.24516 l 0.24514,0.24515 h 0.24515 l 0.24515,0.24515 h 0.24514 l 0.24516,0.24514 h 0.24515 l 1.22575,0.73545 h 0.24513 l 0.24515,-0.24515 h 0.73544 l 0.24516,-0.24514 h 0.4903 l 0.24514,-0.24516 h 0.4903 l 0.24515,-0.24514 h 0.98059 l 0.73545,0.73544 0.24515,0.73545 0.49029,0.4903 v 0.24514 l 0.49029,0.4903 v 0.24515 l 1.22574,1.22574 0.73545,0.24514 0.4903,0.49031 h 0.24514 l 0.24515,0.24514 h 0.24516 l 0.24514,0.24515 h 0.24515 l 0.24515,0.24515 h 0.24515 l 0.24514,0.24515 h 0.24515 l 0.24515,0.24515 0.73544,0.24514 0.49031,0.49031 h 0.24513 l 0.24516,0.24514 h 0.24515 l 0.24515,0.24515 h 0.24514 l 0.24515,0.24515 h 0.24515 l 0.24515,0.24515 h 0.24514 l 0.24516,0.24515 h 0.24515 l 0.24514,0.24514 h 0.24515 l 0.24515,0.24515 h 0.24515 l 0.24515,0.24516 h 0.24514 l 0.24515,0.24514 h 0.24516 l 1.22574,0.73545 h 0.49029 l 0.24515,0.24515 h 0.4903 l 0.24515,0.24513 h 1.22574 l 0.24514,0.24515 h 0.98059 l 0.24516,-0.24515 h 1.22572 l 0.24516,-0.24513 h 0.4903 l 0.73544,-0.4903 h 0.49029 l 0.49031,-0.4903 h 0.24514 l 0.24515,-0.24514 v -0.24516 l 0.24515,-0.24515 v -0.24514 l -0.24515,-0.24515 v -1.22574 l -0.24515,-0.24516 v -0.49029 l -0.24514,-0.24515 v -0.24515 l -0.24515,-0.24515 -0.24516,-0.73545 -2.45147,-2.45147 h -0.24516 l -0.49028,-0.4903 h -0.24516 l -0.24515,-0.24515 h -0.24515 l -0.24514,-0.24515 -0.73544,-0.24515 -0.24514,-0.24514 0.24514,-0.24516 -0.24514,0.24516 h -0.24516 l -0.24515,-0.24516 h -0.24514 l -0.24515,-0.24514 h -0.24515 l -0.24515,-0.24515 h -0.24515 l -0.24514,-0.24515 h -0.24515 l -0.24516,-0.24515 h -0.24514 l -0.24515,-0.24514 h -0.24515 l -0.24514,-0.24515 h -0.24516 l -0.24515,-0.24515 h -0.24514 l -1.22574,-0.73544 h -0.49031 l -0.24514,-0.24516 h -0.24515 l -0.24515,-0.24515 h -0.24515 l -0.24514,-0.24515 h -0.24515 l -1.22575,-0.73544 h -0.73544 l -0.24515,-0.24515 h -4.65782 l -0.73544,-0.73545 v -0.49028 l -0.24514,-0.24515 v -0.4903 l -0.24515,-0.24514 v -0.73545 l -0.24515,-0.24514 V 129.872 l -0.4903,-0.4903 h -0.24514 l -0.24515,-0.24514 h -0.24516 l -0.24514,-0.24515 -0.73545,-0.24515 -0.49029,-0.49029 h -0.24515 l -0.73544,-0.4903 h -0.49031 l -1.22573,-0.73545 h -0.73546 z"
     fill="#000000"
     fill-rule="evenodd"
     id="path31"
     style="stroke-width:0.245149" />
  <path
     d="m 146.42505,104.37657 v 2.94178 l -0.24515,0.24515 h -0.49029 l -0.24515,0.24515 v 0.73544 l 0.24515,0.24516 v 0.24515 l -0.49031,0.49029 h -0.24514 l -1.22574,1.22574 h -0.24515 v 0.73545 l 0.24515,0.24515 h 0.24515 l 0.24514,0.24515 h 0.24515 l 0.24515,0.24514 h 0.24515 l 0.24514,0.24515 h 0.24516 l 0.24515,0.24515 h 0.24514 l 0.24515,0.24516 h 0.24515 l 0.24515,0.24513 h 0.24515 l 0.24514,0.24515 h 0.24515 l 0.73545,0.49031 h 0.49028 l 0.24516,-0.24515 h 0.73544 l 0.24515,-0.24516 h 0.4903 l 0.24514,-0.24515 h 0.9806 l 0.73544,0.73546 0.24515,0.73544 0.73544,0.73544 v 0.24516 l 1.22575,1.22573 h 0.24515 l 0.24515,0.24516 h 0.24514 l 0.4903,0.49029 h 0.24515 l 0.24514,0.24515 h 0.24516 l 0.24515,0.24515 h 0.24514 l 0.24515,0.24513 h 0.24515 l 0.24515,0.24517 h 0.24515 l 0.24514,0.24513 h 0.24515 l 0.24516,0.24516 h 0.24514 l 0.24515,0.24514 h 0.24515 l 0.24514,0.24514 h 0.24516 l 0.24515,0.24516 h 0.24514 l 0.24515,0.24515 h 0.24515 l 0.24515,0.24514 0.73544,0.24515 0.4903,0.4903 h 0.24515 l 0.73543,0.49029 h 0.4903 l 0.73544,0.49031 h 0.49031 l 0.24513,0.24514 h 0.73546 l 0.24514,0.24515 h 1.96119 l 0.24515,-0.24515 h 0.73544 l 0.24515,-0.24514 h 0.4903 l 0.24516,-0.24516 h 0.24514 l 0.24514,-0.24515 0.73545,-0.24514 0.4903,-0.4903 v -0.98059 l -0.24515,-0.24516 v -0.73544 l -0.24515,-0.24513 v -0.24517 l -0.24514,-0.24513 -0.24515,-0.73545 -0.4903,-0.4903 V 116.634 l -1.71604,-1.71604 h -0.24515 l -0.73544,-0.73545 h -0.24515 l -0.73545,-0.49029 h -0.4903 l -0.24514,-0.24516 h -0.24515 l -0.24515,-0.24515 h -0.24516 l -0.24513,-0.24513 h -0.24515 l -0.24516,-0.24516 h -0.24515 l -0.24513,-0.24515 h -0.24516 l -0.24515,-0.24515 h -0.24515 l -0.24514,-0.24514 h -0.24515 l -0.24514,-0.24515 h -0.24515 l -0.24514,-0.24515 h -0.24516 l -0.73544,-0.49029 h -0.4903 l -0.24515,-0.24516 h -0.24514 l -0.24515,-0.24515 h -0.24516 l -0.24514,-0.24514 h -0.24515 l -0.73545,-0.4903 h -0.73544 l -0.24515,-0.24515 h -3.18694 l -0.24513,0.24515 -0.24515,-0.24515 h -0.49031 l -0.24513,-0.24515 0.24513,-0.24514 h 0.49031 -0.49031 l -0.24513,0.24514 -0.24516,-0.24514 v -0.73545 l -0.24515,-0.24514 v -0.49031 l -0.24515,-0.24515 v -0.49029 l -0.49029,-0.73545 h -0.24515 l -0.24515,-0.24515 h -0.24514 l -0.24516,-0.24514 h -0.24515 l -0.24514,-0.24515 h -0.24516 l -0.24514,-0.24516 h -0.24515 l -0.24515,-0.24514 h -0.24515 l -0.24514,-0.24514 h -0.24516 l -0.24514,-0.24516 h -0.24514 l -0.73545,-0.49029 h -0.49029 z"
     fill="#000000"
     fill-rule="evenodd"
     id="path32"
     style="stroke-width:0.245149" />
  <path
     d="m 150.34742,88.196789 v 2.206336 l 0.24514,0.245147 v 0.490298 l -0.24514,0.245146 -0.24516,-0.245146 0.24516,0.245146 -0.24516,0.245159 h -0.24514 v 0.980589 l 0.24514,0.245148 v 0.245146 l -1.71603,1.716032 v 0.735453 l 0.24514,0.245147 h 0.4903 l 0.24515,0.245147 h 0.73544 l 0.24516,0.245147 h 0.49029 l 0.24516,0.245148 h 0.73544 l 0.24515,0.245148 h 0.49029 l 0.24515,0.245146 h 0.73544 l 0.24516,-0.245146 h 0.24515 l 0.24513,-0.245148 h 0.24516 l 0.24515,-0.245148 h 0.24515 l 0.73544,-0.490294 h 0.49029 l 2.4515,2.451485 h 0.24514 l 0.4903,0.490295 h 0.4903 l 0.73544,0.490305 h 0.4903 l 0.24515,0.245138 h 0.73545 l 0.24514,0.245147 h 0.49029 l 0.24515,0.245158 h 0.73544 l 0.24516,0.245142 h 0.49028 l 0.24516,0.24514 h 0.49028 l 0.24516,0.24516 h 0.73544 l 0.24515,0.24515 h 0.4903 l 0.24514,0.24515 h 0.73545 l 0.24515,0.24514 h 0.73545 l 0.24514,0.24515 h 3.43208 l 0.24515,-0.24515 h 0.4903 l 0.24515,-0.24514 h 0.24515 l 0.24515,-0.24515 h 0.24514 l 0.4903,-0.49031 h 0.24516 l 0.98059,-0.980587 v -0.245138 l -0.24515,-0.245157 v -0.490295 l -0.24516,-0.245148 v -0.245148 l -0.24515,-0.245147 v -0.245158 l -0.24513,-0.245137 v -0.245159 l -1.96119,-1.961178 h -0.24516 l -0.24515,-0.245158 h -0.24514 l -0.4903,-0.490295 h -0.4903 l -0.24514,-0.245147 h -0.49031 l -0.24514,-0.245147 h -0.4903 l -0.24514,-0.245148 h -0.73545 l -0.24515,-0.245147 h -0.4903 l -0.24515,-0.245148 h -0.73545 l -0.24514,-0.245146 h -0.73545 l -0.24514,-0.245148 h -0.4903 l -0.24516,-0.245148 h -0.73544 l -0.24515,-0.245157 h -0.73544 l -0.24515,-0.245138 h -0.73543 l -0.24515,-0.245146 h -2.45148 l -0.24516,0.245146 h -0.98058 l -0.24516,0.245138 h -1.22574 l -0.49029,-0.490284 v -0.245159 l -0.24515,-0.245146 v -0.24515 l -0.24516,-0.245148 v -0.245147 l -0.49029,-0.490294 v -0.245148 l -0.24515,-0.245157 h -0.24515 l -0.24514,-0.245148 h -0.4903 l -0.24516,-0.245137 h -0.73544 l -0.24515,-0.245158 h -0.49029 l -0.24515,-0.245148 h -0.49029 l -0.24515,-0.245146 h -0.73544 l -0.24516,-0.245148 -0.24515,0.245148 z"
     fill="#000000"
     fill-rule="evenodd"
     id="path33"
     style="stroke-width:0.245149" />
  <path
     d="m 24.83149,55.346917 2.451483,1.716042 11.031671,2.206337 -0.735445,1.470885 3.677226,4.412673 91.930615,12.257409 -1.47089,6.128715 5.14811,1.225737 5.88357,-0.9806 2.20633,-2.451473 v -2.206337 l 13.97345,0.735442 0.4903,3.677231 27.70176,0.490295 0.49029,-3.922379 2.20634,-0.245147 v -4.65781 l 2.20632,12.257409 1.47089,-7.599599 18.38613,-0.245147 0.4903,-7.599599 0.98059,14.218608 0.73544,-6.128715 6.37387,-1.225737 H 240.562 l 8.58018,0.98059 1.71603,1.716042 6.12872,-0.490306 0.49029,-0.980589 -1.71604,-0.980589 0.4903,-2.206337 7.84475,-1.961189 3.18692,-2.941778 1.96119,-4.412663 4.16752,-0.490306 -3.92237,-0.980589 -1.71604,-4.167515 -3.92237,-2.696632 -12.99287,-2.941789 -3.43206,-1.961179 -6.86415,0.490295 -2.20634,-3.677221 -2.69664,-1.225747 h -9.07049 l -7.59958,2.696631 h -8.0899 l -0.24516,4.412673 -1.71603,-14.463751 -2.45149,15.199194 -0.24514,-5.393263 -13.97345,-0.490295 -0.49029,4.167516 -2.69664,-18.14097 -2.20633,11.767117 0.73544,9.805937 -1.71603,-1.96119 v -5.883557 l -14.46376,0.245147 -0.24514,-3.677221 -3.43208,-2.451484 -3.92238,0.735442 -1.96118,2.451485 -4.16752,-0.245148 3.92237,1.470884 v 1.470895 l -25.98572,1.716031 -12.99286,-2.206326 -0.73545,-5.638413 -0.98059,4.657813 -30.888687,-5.393256 -5.393261,-1.716037 -6.864156,-4.412675 -3.677224,-4.902961 -6.864148,-15.934641 -2.941781,-2.69663 -5.638411,-1.716038 -6.128705,2.696631 -3.186931,4.412667 -3.677224,26.966319 -3.186924,3.186916 h -3.432074 l 3.677224,1.470894 -2.451488,2.941779 33.340168,3.922369 -41.18491,-4.167516 z M 263.36079,72.9976 v -0.735453 l -0.24515,-0.245146 v -0.245148 l 0.24515,-0.245148 h 2.20632 l 0.24514,0.245148 -0.98059,0.980589 h -0.24514 l -0.24515,-0.245136 h -0.24514 0.24514 l 0.24515,0.245136 -0.49029,0.490305 h -0.4903 z m 3.92236,-4.657821 0.24515,0.245148 v 0.490295 l -0.24515,0.245147 v 0.245158 l -0.73544,0.735442 -0.24515,-0.245158 v -0.245136 l 0.24515,-0.245148 v -0.9806 l 0.24515,-0.245148 0.24514,0.245148 z m -3.92236,-0.735441 h 1.96118 l 0.24514,0.245147 -0.24514,0.245148 h -0.73545 v 0.245146 l 0.24514,0.245148 v -0.245148 l 0.24515,-0.245146 0.24516,0.245146 v 0.735443 l -0.24516,0.245147 v 0.490306 l -0.24515,0.245136 h -1.47087 l -0.24515,-0.245136 v -1.96119 z M 169.95928,65.398 l 0.24516,-0.245146 h 0.98059 l 0.24514,-0.245148 h 1.96119 l 0.24515,0.245148 h 0.98059 l 0.24515,0.245146 -0.24515,0.245148 h -4.41266 z M 267.038,63.927106 h 0.24515 l 0.24515,0.245158 v 0.490295 l -0.24515,0.245147 v 0.735442 -0.490294 l 0.24515,-0.245148 0.24515,0.245148 v 0.735442 l -0.24515,0.245147 h -0.4903 l -0.24514,-0.245147 v -1.716032 z m -3.92236,0.245158 0.24515,-0.245158 0.24514,0.245158 v 0.735442 l 0.24515,-0.245147 -0.24515,-0.245158 0.24515,-0.245137 h 1.47089 l 0.24514,0.245137 -0.24514,0.245158 h -0.73545 l 0.24514,0.245147 v 0.245148 -0.245148 l 0.24515,-0.245147 0.24516,0.245147 v 0.245148 l 0.24514,0.245146 v 0.490296 l -0.24514,0.245147 h -1.96118 l -0.24515,-0.245147 z m -56.13897,0.245137 -0.24515,0.245158 0.24515,0.245147 v 0.245148 L 206.73152,65.398 v 0.980591 l 0.24515,0.245146 v 0.245159 l -0.24515,0.245136 h -0.24515 l -0.24514,-0.245136 h -1.71604 l -0.24514,-0.245159 h -1.22575 l -0.24514,-0.245146 h -0.4903 l -0.24515,-0.245148 h -1.47089 l -0.24514,-0.245147 0.24514,-0.245148 h 0.4903 L 201.33827,65.398 h 0.24514 l 0.24516,0.245148 -0.24516,-0.245148 0.24516,-0.245146 h 0.24514 l 0.24515,-0.245148 h 0.24515 l 0.49029,-0.490305 h 0.4903 l 0.24515,-0.245137 h 0.73544 l 0.24515,-0.245158 h 1.47089 l 0.24514,0.245158 h 0.24515 z m -20.59246,1.96119 -0.24513,0.245146 h -2.69664 l -0.24514,-0.245146 h -2.20635 l -0.24514,-0.245148 h -2.94178 l -0.24516,-0.245147 h -2.45146 l -0.24516,-0.245148 0.24516,-0.245148 h 0.98059 v -0.245146 h -2.45149 l -0.24515,-0.245148 0.24515,-0.245147 h 1.96118 l 0.24516,-0.245158 h 2.20632 l 0.24515,-0.245137 h 2.20634 l 0.24515,-0.245158 h 1.96118 l 0.24515,-0.245148 h 2.45148 l 0.24515,0.245148 h 0.49031 l 0.24513,0.245158 z m 66.43519,-3.186927 0.24515,-0.245147 h 1.96119 l 0.24515,0.245147 h 2.94178 l 0.24515,0.245148 v 2.451484 l -0.4903,0.490295 h -4.90297 l -0.24515,-0.245148 v -2.451485 l 0.24515,-0.245146 0.24515,0.245146 0.24515,-0.245146 h 0.24514 -0.73544 z m -6.619,-0.245147 0.24515,-0.245148 h 4.16752 l 0.24514,0.245148 v 2.941779 l -0.49029,0.490295 h -3.43207 l -0.24514,-0.245148 v -0.490295 0.490295 l -0.24516,0.245148 -0.24515,-0.245148 z m -35.30135,0 0.24514,-0.245148 h 0.9806 l 0.24515,0.245148 h 0.4903 l 0.24514,0.245147 h 0.4903 l 0.98059,0.9806 -0.24514,0.245137 h -0.4903 l -0.24515,-0.245137 h -0.24515 l -0.24515,-0.245158 h -0.24514 l -0.24516,-0.245148 h -0.49029 l -0.24515,-0.245146 h -0.73545 l -0.24514,-0.245148 z m -19.85701,-0.245148 0.24515,-0.245147 h 0.73543 l 0.24516,0.245147 h 0.49029 l 0.24515,0.245148 h 0.24515 l 0.24514,0.245147 h 0.24515 l 0.24515,0.245148 -0.24515,0.245146 0.24515,0.245148 -0.24515,-0.245148 0.24515,-0.245146 h 0.24516 l 0.24514,0.245146 v 0.245148 l 0.24514,0.245158 -0.24514,0.245137 h -0.73545 l -0.24515,0.245158 v 0.490295 l -0.49029,0.490294 -0.24515,-0.245148 v -0.245146 h -0.24515 V 65.398 l -0.24514,0.245148 -0.24516,-0.245148 v -1.225736 l -0.49028,-0.490306 h -0.24515 l -0.24515,-0.245146 z m 69.13181,-2.696631 0.24516,-0.245148 h 0.24515 l 0.24513,0.245148 h 0.73546 l 0.24514,0.245148 h 0.73546 l 0.24513,0.245147 h 0.49031 l 0.24514,0.245148 h 0.24515 l 0.24515,0.245146 h 0.24514 l 0.24515,0.245148 -0.24515,0.245157 0.24515,-0.245157 h 0.24514 l 0.24515,0.245157 h 0.24516 l 0.24514,0.245138 -0.24514,0.245158 h -0.24516 l 0.24516,0.245147 h 0.24514 l 0.24514,-0.245147 0.49031,0.490294 -0.24515,0.245147 h -1.71604 l -0.24514,-0.245147 h -0.73544 l -0.24515,-0.245147 h -2.20635 l -0.24513,-0.245147 h -0.24515 l -0.24516,-0.245158 z m -7.35445,-1.225737 0.24515,-0.245147 h 1.47089 l 0.24514,0.245147 h 1.22575 l 0.24515,0.245138 h 0.98059 l 0.24515,0.245157 h 0.73545 l 0.24515,0.245148 -0.24515,0.245146 h -0.73545 0.4903 l 0.4903,0.490296 v 1.225746 l -0.24515,0.245138 h -2.20634 l -0.24515,-0.245138 h -2.69663 l -0.24515,-0.245157 z m -155.914312,0.245138 0.245143,-0.245138 h 0.245151 l -0.245151,-0.245147 0.245151,-0.245158 h 0.4903 l 0.245142,0.245158 h 0.245151 l 0.245151,0.245147 h 0.735443 l 0.24515,0.245138 h 0.490291 l 0.24515,0.245157 h 0.49029 l 0.24515,0.245148 -0.24515,0.245146 h -0.24514 0.24514 l 0.24515,-0.245146 h 0.49031 l 0.24514,0.245146 h 0.4903 l 0.24515,0.245148 h 0.49029 l 0.24515,0.245148 h 0.73545 l 0.24515,0.245147 h 0.24514 l 0.24515,0.245148 h 0.73544 l 0.24515,0.245146 h 0.4903 l 0.24515,0.245148 h 0.4903 l 0.24514,0.245157 h 0.73545 l 0.24514,0.245138 h 0.24515 l 0.24515,0.245158 h 0.73545 l 0.24515,0.245147 h 0.49029 l 0.24515,0.245147 h 0.49029 l 0.24515,0.245147 h 0.4903 l 0.24515,0.245148 h 0.73545 l 0.24514,0.245147 h 0.4903 l 0.24515,0.245148 h 0.49029 l 0.24516,0.245146 -0.24516,0.245148 h -0.73544 l -0.24515,-0.245148 h -0.73544 l -0.24515,-0.245146 h -0.73545 l -0.24515,-0.245148 h -0.49029 l -0.24515,-0.245147 h -0.73544 l -0.24515,-0.245148 h -0.4903 l -0.24515,-0.245147 h -0.73544 l -0.24515,-0.245147 h -0.4903 l -0.24514,-0.245147 h -0.73545 l -0.24515,-0.245158 h -0.73544 l -0.24515,-0.245138 h -0.4903 l -0.24514,-0.245157 h -0.49031 l -0.24514,-0.245148 h -0.73545 l -0.24514,-0.245146 h -0.4903 l -0.24515,-0.245148 h -0.49029 l -0.24516,-0.245147 0.24516,-0.245148 -0.24516,0.245148 h -0.73544 l -0.24515,-0.245148 h -0.735441 l -0.24515,-0.245148 h -0.490293 l -0.245151,-0.245146 h -0.490293 l -0.24515,-0.245148 h -0.490301 z m 149.295312,-0.980591 0.49031,-0.490294 0.24514,0.245148 h 2.45149 l 0.24515,0.245146 h 0.98058 l 0.24514,0.245148 v 2.696631 l -0.24514,0.245148 h -1.71604 l -0.24514,-0.245148 h -2.20634 l -0.24515,-0.245146 z m -117.67118,-0.245146 0.24515,-0.245148 h 0.9806 -0.49031 l -0.24515,-0.245147 0.24515,-0.245148 h 1.22575 l 0.24515,0.245148 h 0.98059 l 0.24516,0.245147 h 0.98058 l 0.24515,0.245148 h 1.22574 l 0.24515,0.245146 h 0.98059 l 0.24515,0.245148 -0.24515,0.245158 h -0.98059 0.49029 l 0.24515,0.245147 h 0.4903 l -0.24515,-0.245147 0.24515,-0.245158 h 1.22574 l 0.24515,0.245158 h 0.98059 l 0.24515,0.245147 -0.24515,0.245138 h -0.73545 0.24516 l 0.24514,0.245157 h 1.22575 -0.73545 l -0.24515,-0.245157 0.24515,-0.245138 h 1.22574 l 0.24515,0.245138 h 0.9806 l 0.24514,0.245157 h 0.98059 l 0.24515,0.245148 -0.24515,0.245146 h -1.22573 0.73544 l 0.24516,0.245148 h 0.24513 V 59.75959 l 0.24515,-0.245146 h 1.22575 l 0.24515,0.245146 h 0.98059 l 0.24514,0.245148 -0.24514,0.245148 h -0.73545 0.24515 l 0.24515,0.245147 h 1.22574 -0.49029 l -0.24516,-0.245147 0.24516,-0.245148 h 0.98059 l 0.24515,0.245148 h 0.98059 l 0.24514,0.245147 h 1.22574 l 0.24515,0.245148 h 0.9806 l 0.24514,0.245146 h 1.22575 l 0.24515,0.245148 -0.24515,0.245157 h -0.9806 l 0.24516,0.245138 h 1.22573 -0.24514 l -0.24515,-0.245138 0.24515,-0.245157 h 0.9806 l 0.24513,0.245157 h 0.98059 l 0.24516,0.245138 h 0.73544 l 0.24515,0.245158 -0.24515,0.245147 h -1.22573 1.22573 l 0.24515,0.245147 -0.24515,-0.245147 0.24515,-0.245147 h 0.9806 l 0.24515,0.245147 h 0.49029 l 0.24515,0.245147 -0.24515,0.245147 h -0.24515 l 0.73545,-0.245147 0.73544,0.735442 -0.24515,0.245148 h -0.49029 l -0.24515,-0.245148 h -1.22575 l -0.24514,-0.245147 h -0.98059 l -0.24515,-0.245148 h -1.22575 l -0.24515,-0.245147 h -1.22573 l -0.24515,-0.245147 h -0.9806 l -0.24515,-0.245147 h -1.22574 l -0.24515,-0.245158 h -0.73544 l -0.24514,-0.245138 h -1.22574 l -0.24515,-0.245157 h -0.98059 l -0.24515,-0.245148 h -0.9806 l -0.24515,-0.245146 h -1.22573 l -0.24515,-0.245148 h -0.9806 l -0.24515,-0.245147 h -1.22575 l -0.24514,-0.245148 h -0.9806 l -0.24514,-0.245148 h -0.98059 l -0.24516,-0.245146 h -1.22574 l -0.24515,-0.245148 h -0.98059 l -0.24515,-0.245157 h -0.98059 l -0.24515,-0.245138 h -0.98058 l -0.24515,-0.245147 h -1.22575 l -0.24514,-0.245158 h -0.9806 l -0.24514,-0.245148 h -0.9806 z m -34.811064,0 0.245151,-0.245148 h 0.490294 l -0.245144,-0.245147 0.245144,-0.245148 h 0.245151 l 0.245149,0.245148 h 0.245151 l 0.245142,0.245147 -0.245142,0.245148 h -0.245151 l 0.245151,0.245146 h 0.245142 l -0.245142,-0.245146 0.245142,-0.245148 h 0.245151 l 0.245149,0.245148 h 0.490295 l 0.245149,0.245146 h 0.24515 l 0.245143,0.245148 -0.245143,0.245158 h -0.24515 0.24515 l 0.245143,0.245147 -0.245143,0.245138 h -0.73545 l -0.245144,-0.245138 h -0.245149 l -0.245151,-0.245147 h -0.490293 l -0.245149,-0.245158 h -0.245151 l -0.245144,-0.245148 h -0.24515 z m 28.192054,-1.225737 0.24515,-0.245158 h 0.98059 -0.49029 l -0.24515,-0.245147 0.24515,-0.245138 h 0.98059 l 0.24514,0.245138 h 0.98061 l 0.24514,0.245147 h 1.22575 l 0.24514,0.245158 h 0.9806 l 0.24515,0.245147 h 1.22573 l 0.24515,0.245147 -0.24515,0.245148 h -0.98059 0.4903 l 0.24515,0.245147 -0.24515,0.245148 h -1.22574 l -0.24515,-0.245148 h -0.9806 l -0.24514,-0.245147 H 124.852 l -0.24515,-0.245148 h -1.22574 l -0.24516,-0.245147 h -0.98059 z m -7.35445,-1.225748 0.24515,-0.245147 h 1.47089 -0.98059 l -0.24515,-0.245147 0.24515,-0.245147 h 1.47089 l 0.24515,0.245147 h 1.22573 l 0.24515,0.245147 h 0.9806 l 0.24515,0.245147 -0.24515,0.245148 h -0.9806 0.9806 l 0.24515,-0.245148 h 1.22574 l 0.24514,0.245148 h 0.9806 l 0.24515,0.245157 -0.24515,0.245138 h -0.4903 0.24515 l 0.24515,0.245147 -0.24515,0.245158 h -1.22574 l -0.24515,-0.245158 h -0.98059 l -0.24515,-0.245147 h -1.22574 l -0.24515,-0.245138 h -1.22574 l -0.24515,-0.245157 h -1.47089 z m -22.55364,1.225748 0.245151,-0.245158 V 56.08236 l 0.490292,-0.490295 h 0.245151 -0.245151 l -0.245149,-0.245148 0.245149,-0.245147 h 0.245151 l 0.24515,-0.245147 h 0.735443 l 0.24515,-0.245147 h 1.225737 l 0.245151,0.245147 -0.245151,0.245147 h -0.735442 1.716037 l 0.245149,-0.245147 h 0.490293 -1.470886 l -0.245151,-0.245147 0.245151,-0.245148 h 1.716037 l 0.24515,-0.245147 h 4.902968 l 0.24514,-0.245148 h 1.96119 l 0.24515,0.245148 h 7.35445 l 0.24515,0.245147 h 2.20633 l 0.24515,0.245148 -0.24515,0.245147 h -1.96119 1.4709 l 0.24514,0.245147 -0.24514,0.245147 h -5.63842 l -0.24515,-0.245147 h -6.1287 l -0.24515,0.245147 h -4.902969 l -0.245143,0.245148 h -1.470894 l -0.245142,0.245157 h -0.735451 l -0.490294,0.490285 v 0.245158 l 0.490294,0.490294 -0.245144,0.245148 h -0.24515 v 0.245147 l -0.245151,0.245148 h -0.245148 l -0.245144,-0.245148 h -0.24515 z m 135.81215,-4.412674 0.24516,-0.245147 h 5.88356 l 0.4903,0.490295 v 0.245147 l 0.24514,0.245148 v 0.490294 l 0.24516,0.245158 v 0.245147 l 0.24513,0.245148 -0.24513,0.245147 h -6.86416 l -0.24516,-0.245147 z M 47.630278,48.727918 h 0.490302 l 0.245143,0.245148 h 0.24515 l 0.245149,0.245147 v 2.451484 l -0.245149,0.245147 h -1.225745 l -0.245142,-0.245147 v -1.96119 l 0.245142,-0.245147 0.24515,0.245147 v 0.735453 -0.490305 l 0.245151,-0.245148 h -0.245151 l -0.24515,-0.245147 v -0.490294 z m -1.470886,0 0.245151,0.245148 -0.245151,0.245147 v 0.245147 l -0.245151,0.245147 v 0.490295 l -0.245149,0.245158 v 0.735442 l -0.245143,0.245147 -0.24515,-0.245147 h -0.245151 l -0.24515,-0.245147 H 44.198206 L 43.953055,50.689097 V 50.44396 l 0.245151,-0.245158 0.24515,0.245158 h 0.245142 v -0.245158 l 0.490301,-0.490295 h 0.24515 V 49.46336 h -0.24515 l -0.245151,-0.245147 0.245151,-0.245147 h 0.24515 l 0.245143,-0.245148 z m 118.896928,-1.470894 0.24513,0.245157 -0.24513,0.245148 v 0.245136 l -0.24515,0.245158 v 0.245148 l -0.24516,0.245147 v 0.245148 l -0.24515,0.245147 h -0.24513 l -0.24516,-0.245147 h -0.24515 l -0.24515,-0.245148 v -0.245147 l 0.98059,-0.98059 h 0.24515 l 0.24516,-0.245157 z"
     fill="#000000"
     fill-rule="evenodd"
     id="path34"
     style="stroke-width:0.245149" />
</svg>
