<?xml version="1.0" encoding="UTF-8" standalone="no"?>
<svg
   width="1400"
   height="250"
   viewBox="0 0 1400 250"
   version="1.1"
   id="svg1"
   sodipodi:docname="boys_anti_tank_rifle_black.svg"
   inkscape:version="1.4.2 (f4327f4, 2025-05-13)"
   xmlns:inkscape="http://www.inkscape.org/namespaces/inkscape"
   xmlns:sodipodi="http://sodipodi.sourceforge.net/DTD/sodipodi-0.dtd"
   xmlns="http://www.w3.org/2000/svg"
   xmlns:svg="http://www.w3.org/2000/svg">
  <defs
     id="defs1" />
  <sodipodi:namedview
     id="namedview1"
     pagecolor="#ffffff"
     bordercolor="#000000"
     borderopacity="0.25"
     inkscape:showpageshadow="2"
     inkscape:pageopacity="0.0"
     inkscape:pagecheckerboard="0"
     inkscape:deskcolor="#d1d1d1"
     inkscape:zoom="1.0819521"
     inkscape:cx="721.8434"
     inkscape:cy="479.22638"
     inkscape:window-width="2560"
     inkscape:window-height="1377"
     inkscape:window-x="-8"
     inkscape:window-y="-8"
     inkscape:window-maximized="1"
     inkscape:current-layer="svg1" />
  <path
     d="m 15.893616,84.236596 11,58.999994 -1,70 11,5 72.999994,-24 v 17 l 10,6 5,-6 -1,-22 204,-67 10,3 3,21 12,12 38,2 16,-9 12,-33 42,-1 12,-14 h 127 l 8,-4.999994 2,-17 7,-5 264,-3 6,5 -3,21.999994 7,9 1,117 -16,2 -3,9 5,5 h 47 l 5,-12 -18,-4 1,-111 7,-15 -2,-22.999994 5,-4 299.99999,-1 13,1 6,9 h 51 l 86,19.999994 6,-4.999994 v -76 l -9,-5 -85,19 h -50 l -6,9 H 922.89361 l -8,-5 -35,5 h -226 l -4,-6 -34,2 -9,-5 h -174 l -6,-5 5,-18 -19,-3.0000003 1,21.0000003 -5,5 h -23 l -11,15 h -21 l -6,-37 -13,-5.0000002 -7,9.0000002 9,31 -10,5 3,17 -70,28 -12,-3 -14,-14 -210.999994,-3 z M 116.89361,198.23659 h 1 l 1,1 v 12 l -1,1 h -1 l -1,-1 v -12 z m 230,-70 1,-1 v -2 l 2,-2 v -1 l 3,-3 h 1 l 1,-1 h 6 l 1,1 -1,1 v 1 l -1,1 v 1 l -1,1 v 2 l -1,1 v 7 l 1,1 v 2 l 1,1 v 1 l 1,1 v 1 l 1,1 v 1 l 3,3 h 1 l 1,1 h 1 l 2,-2 v -1 l -3,-3 v -1 l -1,-1 v -4 l -1,-1 v -3 l 1,-1 v -2 l 1,-1 v -1 l 1,-1 v -1 l 5,-5 h 1 l 1,-1 h 21 l 1,1 h 1 l 4,4 v 1 l 1,1 v 1 l 1,1 v 13 l -1,1 v 1 l -1,1 v 1 l -6,6 h -1 l -1,1 h -3 l -1,1 h -7 l -1,-1 h -3 l -1,1 h -16 l -1,-1 h -4 l -1,-1 h -1 l -2,-2 h -1 l -2,-2 v -1 l -1,-1 v -1 l -1,-1 v -1 l -1,-1 z"
     fill="#000000"
     fill-rule="evenodd"
     id="path1" />
</svg>
