<svg xmlns="http://www.w3.org/2000/svg" width="1448" height="1086" viewBox="0 0 1448 1086">
<rect width="100%" height="100%" fill="white"/>
<path d="M 39,502 L 50,561 L 49,631 L 60,636 L 133,612 L 133,629 L 143,635 L 148,629 L 147,607 L 351,540 L 361,543 L 364,564 L 376,576 L 414,578 L 430,569 L 442,536 L 484,535 L 496,521 L 623,521 L 631,516 L 633,499 L 640,494 L 904,491 L 910,496 L 907,518 L 914,527 L 915,644 L 899,646 L 896,655 L 901,660 L 948,660 L 953,648 L 935,644 L 936,533 L 943,518 L 941,495 L 946,491 L 1246,490 L 1259,491 L 1265,500 L 1316,500 L 1402,520 L 1408,515 L 1408,439 L 1399,434 L 1314,453 L 1264,453 L 1258,462 L 946,462 L 938,457 L 903,462 L 677,462 L 673,456 L 639,458 L 630,453 L 456,453 L 450,448 L 455,430 L 436,427 L 437,448 L 432,453 L 409,453 L 398,468 L 377,468 L 371,431 L 358,426 L 351,435 L 360,466 L 350,471 L 353,488 L 283,516 L 271,513 L 257,499 L 46,496 Z M 140,616 L 141,616 L 142,617 L 142,629 L 141,630 L 140,630 L 139,629 L 139,617 Z M 370,546 L 371,545 L 371,543 L 373,541 L 373,540 L 376,537 L 377,537 L 378,536 L 384,536 L 385,537 L 384,538 L 384,539 L 383,540 L 383,541 L 382,542 L 382,544 L 381,545 L 381,552 L 382,553 L 382,555 L 383,556 L 383,557 L 384,558 L 384,559 L 385,560 L 385,561 L 388,564 L 389,564 L 390,565 L 391,565 L 393,563 L 393,562 L 390,559 L 390,558 L 389,557 L 389,553 L 388,552 L 388,549 L 389,548 L 389,546 L 390,545 L 390,544 L 391,543 L 391,542 L 396,537 L 397,537 L 398,536 L 419,536 L 420,537 L 421,537 L 425,541 L 425,542 L 426,543 L 426,544 L 427,545 L 427,558 L 426,559 L 426,560 L 425,561 L 425,562 L 419,568 L 418,568 L 417,569 L 414,569 L 413,570 L 406,570 L 405,569 L 402,569 L 401,570 L 385,570 L 384,569 L 380,569 L 379,568 L 378,568 L 376,566 L 375,566 L 373,564 L 373,563 L 372,562 L 372,561 L 371,560 L 371,559 L 370,558 Z" fill="black" fill-rule="evenodd"/>
</svg>