<?xml version="1.0" encoding="UTF-8" standalone="no"?>
<svg
   width="600"
   height="250"
   viewBox="0 0 600 250"
   version="1.1"
   id="svg1"
   sodipodi:docname="bren_gun_black.svg"
   inkscape:version="1.4.2 (f4327f4, 2025-05-13)"
   xmlns:inkscape="http://www.inkscape.org/namespaces/inkscape"
   xmlns:sodipodi="http://sodipodi.sourceforge.net/DTD/sodipodi-0.dtd"
   xmlns="http://www.w3.org/2000/svg"
   xmlns:svg="http://www.w3.org/2000/svg">
  <defs
     id="defs1" />
  <sodipodi:namedview
     id="namedview1"
     pagecolor="#ffffff"
     bordercolor="#000000"
     borderopacity="0.25"
     inkscape:showpageshadow="2"
     inkscape:pageopacity="0.0"
     inkscape:pagecheckerboard="0"
     inkscape:deskcolor="#d1d1d1"
     inkscape:zoom="0.93700159"
     inkscape:cx="379.93532"
     inkscape:cy="414.62043"
     inkscape:window-width="2560"
     inkscape:window-height="1377"
     inkscape:window-x="-8"
     inkscape:window-y="-8"
     inkscape:window-maximized="1"
     inkscape:current-layer="svg1" />
  <path
     d="m 29.924256,162.52331 7.070298,18.85412 3.299472,42.89314 3.770825,4.24218 10.36977,-0.94271 26.867133,-17.91142 34.408786,-16.026 42.42178,-9.42707 16.02601,1.88542 3.77083,9.89841 -16.02601,36.76555 22.62495,8.95571 8.48436,-3.77083 -1.88542,-7.54165 6.1276,-22.1536 6.12759,-3.77082 24.51036,1.88541 4.71353,-13.66924 4.71354,-2.35677 0.47135,-9.42706 h 59.86185 l 3.29947,4.24218 h 4.71353 l 1.41406,-4.24218 25.92442,0.47135 8.013,6.1276 9.89842,-1.41406 3.77083,-6.1276 72.11703,3.29948 1.41406,9.89841 12.72654,0.47136 -1.88542,-7.0703 9.42707,-0.47135 4.24217,-12.25519 8.48436,0.47136 -0.47135,-10.84113 -7.54165,0.47136 5.18488,-4.71354 96.6274,-1.88541 1.41406,2.82812 h 29.2239 l 0.94271,-14.61195 -54.20562,1.88542 -5.18488,-7.0703 -1.88542,-28.75255 -9.42706,-1.41405 8.48436,-0.47136 -8.48436,0.47136 -9.42706,32.52336 3.77082,3.29948 -78.71598,-1.88542 -1.41406,-3.77082 h -6.59894 l -0.94271,3.77082 -0.47135,-3.29947 -1.88541,2.82812 -17.44007,-3.29947 -90.97116,0.47135 20.26819,-1.41406 -6.59895,-1.41406 7.0703,-2.82812 -24.98172,-8.013 -10.84112,5.18488 -3.29947,-3.29947 -56.09102,-2.82812 v -3.77082 l 15.55465,2.82812 1.41406,-3.77083 1.88541,4.24218 32.99472,1.41406 7.54165,-46.192605 23.0963,-42.893144 L 276.91332,6.9767621 250.9889,55.52614 l -10.36977,52.3202 -2.82812,-5.65623 -5.65624,0.9427 -0.94271,29.22389 4.71354,0.94271 -0.47136,3.29947 -10.36977,0.94271 -7.54165,-21.21089 -13.66924,3.77082 -25.92442,-0.9427 -4.71354,-3.29948 -3.77082,5.65624 3.29947,8.95571 5.18489,-4.24218 32.99472,1.41406 -13.66924,0.47136 12.25518,0.9427 -4.71353,3.77083 0.47135,5.18488 h -26.39578 l -6.59894,3.77083 -11.31248,-3.77083 -2.35676,10.84113 -6.1276,0.9427 -0.9427,6.59895 -41.47909,2.82811 -19.325475,-8.013 -40.065019,1.41406 -8.013004,-3.77082 -12.255183,5.65623 z m 151.775724,78.24462 0.47135,-0.47135 h 2.82812 l 0.47136,0.47135 -0.47136,0.47136 h -2.82812 z m 27.80984,-36.76554 0.47135,-0.47136 h 0.94271 v -0.47135 l 0.47135,-0.47135 0.47135,0.47135 h 0.94271 l 0.47135,0.47135 h 10.36977 l 0.47136,0.47136 -0.47136,0.47135 h -13.66924 z m 20.26818,-9.42707 0.47136,0.47136 v 3.77082 l -0.47136,0.47135 -0.47135,-0.47135 v -3.77082 z m -16.96871,-0.9427 0.47135,-0.47136 0.47136,0.47136 v 0.47135 l 0.9427,-0.94271 h 0.47136 l 0.47135,-0.47135 h -0.47135 l -0.47136,-0.47135 0.94271,-0.94271 h 0.94271 l 1.41406,-1.41406 0.47135,0.47135 v 0.47136 h 0.47135 v -0.47136 h -0.47135 l -0.47135,-0.47135 0.47135,-0.47135 h 6.12759 l 0.47135,0.47135 -0.47135,0.47135 h -0.47135 0.47135 l 0.47135,0.47136 h 0.47136 -0.47136 l -0.47135,-0.47136 0.47135,-0.47135 h 0.94271 l 0.47135,0.47135 h 0.47136 l 0.47135,0.47136 -0.47135,0.47135 1.41406,1.41406 v 0.47135 l 0.47135,0.47136 v 0.9427 l 0.47135,0.47136 v 2.82812 l -0.47135,0.47135 v 1.41406 l 0.47135,0.47135 v 0.47135 l -0.47135,0.47136 -0.47135,-0.47136 -0.47136,0.47136 h -0.47135 l -0.47135,0.47135 h -0.47136 v 0.47135 l -0.47135,0.47136 h 0.47135 l 0.47136,0.47135 -0.47136,0.47135 h -0.47135 l -0.47135,0.47136 h -1.41406 l -0.47136,-0.47136 v -0.47135 H 213.752 l -0.47136,-0.47135 v -1.41406 l -0.9427,-0.94271 v -0.94271 l -0.47136,-0.47135 v -3.29947 l 0.47136,-0.47135 v -0.47136 l 0.47135,-0.47135 z m -8.013,-4.24218 h 0.9427 l 0.47136,0.47135 v 0.47135 l 0.47135,0.47136 v 0.47135 l 0.47135,0.47135 h 0.47136 l 0.9427,0.94271 v 0.94271 l -0.47135,0.47135 v 2.82812 l 0.47135,0.47135 v 1.41406 l -0.47135,0.47135 v 0.47136 -0.47136 l 0.47135,-0.47135 0.47136,0.47135 v 0.47136 l 0.9427,0.9427 v 0.47136 l 1.41406,1.41406 -0.47135,0.47135 h -1.88541 0.47135 l 0.47135,0.47135 -0.47135,0.47136 h -0.94271 l -0.47135,-0.47136 h -0.47135 l -0.47136,-0.47135 0.47136,-0.47135 -0.47136,-0.47136 h -0.47135 l -0.47135,0.47136 -0.94271,-0.94271 v -0.47135 l -0.47135,-0.47136 v -0.47135 l 0.47135,-0.47135 h 0.47135 v -0.47136 l -0.47135,-0.47135 v -0.47135 0.9427 l -0.47135,0.47136 -0.47136,-0.47136 v -9.42706 z m 0.47135,-8.01301 h 0.47135 l 0.47136,0.47136 v 1.88541 l -0.47136,0.47135 h -0.47135 l -0.47135,-0.47135 v -1.88541 z m 20.26819,-0.47135 0.47135,0.47135 v 0.47136 l 0.47135,0.47135 -0.47135,0.47135 v 0.94271 l -0.47135,0.47135 h -0.47136 l -0.47135,-0.47135 0.47135,-0.47135 v -1.88542 z m -13.19789,-6.59894 0.47135,-0.47136 h 7.0703 l 0.47135,0.47136 -0.47135,0.47135 h -7.0703 z m -20.26819,0 0.47135,-0.47136 h 8.01301 l 0.47135,0.47136 -0.47135,0.47135 h -8.01301 z m 164.9736,0.47135 0.47135,-0.94271 0.94271,0.47136 h -0.47135 l -0.47136,-0.94271 1.41406,-1.41406 h 18.85413 l 1.88541,-1.41406 h 8.48436 l 0.47135,0.47135 h 5.18489 l 0.47135,-0.47135 h 3.77083 l 0.47135,0.47135 h 1.41406 l 0.47135,-0.47135 h 4.71353 l 0.47136,0.47135 h 10.36977 l 0.47135,-0.47135 h 5.18489 l 0.47135,0.47135 h 3.29947 l 0.47135,-0.47135 h 3.29948 l 0.47135,0.47135 h 1.88541 l 0.47136,0.47136 -0.94271,1.88541 h -1.88541 2.35676 l 0.47136,0.47135 -0.47136,0.47136 h -2.35676 l -0.94271,0.47135 -0.94271,1.41406 h -13.66924 l -0.47135,-0.47135 0.47135,-0.47136 v -1.88541 l -0.9427,-0.94271 h -10.36977 l -1.41406,1.88542 -0.47136,-0.47136 h -0.9427 l -0.94271,0.94271 h -0.47135 2.35676 l 0.47136,-0.47135 0.47135,0.47135 -0.47135,0.94271 h -16.02601 l -0.47135,-0.47136 0.47135,-0.47135 h 11.31247 -3.77082 l -0.47135,-0.47135 h -16.96872 5.65624 l 0.47135,0.47135 -0.47135,0.47135 H 357.5147 Z m -188.0699,-12.25518 0.47135,-0.47136 h 57.50509 l 0.47135,0.47136 -0.47135,0.47135 H 169.4448 Z m 266.78588,-0.94271 -0.47135,0.47135 v 1.41406 l 0.47135,0.47136 -0.47135,0.47135 h -1.41406 l -0.47136,0.47135 h -6.59894 l -0.47135,-0.47135 0.47135,-0.47135 h 3.29947 l 0.47136,-0.47136 h 0.47135 v -3.29947 l 0.47135,-0.47135 h 1.41406 l 1.41406,1.41406 h 0.94271 z m -13.66924,-1.88541 h 0.47135 l 0.47136,0.47135 v 3.29947 l 0.47135,0.47136 -0.47135,0.47135 h -0.47136 l -0.9427,-0.94271 v -3.29947 z m 35.82284,-0.94271 0.47135,-0.47135 h 49.96344 l 0.47135,0.47135 -0.47135,0.47135 h -49.96344 z m 112.18205,-2.35676 0.47136,-0.47136 h 4.24218 l 0.47135,0.47136 -0.47135,0.47135 h -4.24218 z m -1.41405,-1.41406 0.47135,-0.47136 h 13.19789 l 0.47135,0.47136 v 1.41406 l -0.47135,0.47135 h -0.47136 l -0.47135,-0.47135 0.47135,-0.47136 v -0.47135 h -12.25518 v 0.94271 l -0.47135,0.47135 -0.47135,-0.47135 z m -177.2288,-0.47136 0.47136,-0.47135 h 0.47135 l -0.47135,-0.47135 v -1.41406 l 0.47135,-0.47136 h 2.35676 -2.35676 l -0.47135,-0.47135 0.47135,-0.47135 h 16.49736 l 0.47135,0.47135 -0.47135,0.47135 h -0.94271 0.47136 l 0.47135,0.47136 v 1.41406 l 0.94271,0.9427 -0.47136,0.47136 h -8.48435 l -0.47136,0.47135 h -5.65624 l -0.47135,-0.47135 h -2.35676 z m -27.80983,-2.82812 0.9427,-0.9427 h 16.96872 l 0.47135,0.47135 -0.47135,0.47135 h -0.47136 l 0.47136,0.47136 -0.47136,0.47135 v 0.47135 h 0.47136 v -1.41406 l 0.47135,-0.47135 0.94271,0.94271 v 1.88541 l -0.94271,0.94271 h -3.77083 l -0.47135,0.47135 h -4.71353 l -0.47135,-0.47135 h -4.71354 l -0.47135,0.47135 h -1.88541 l -0.47135,-0.47135 h -0.94271 l -0.47135,-0.47136 v -0.47135 l 0.47135,-0.47135 v -0.94271 l 0.47135,-0.47135 -0.47135,0.47135 -0.47135,-0.47135 z m -27.80984,0.47136 1.41406,-1.41406 h 16.96871 l 0.94271,0.9427 v 0.47136 l 0.47135,0.47135 v 0.94271 l -0.47135,0.47135 v 0.47135 l -0.47135,0.47136 h -1.41406 l -0.47136,0.47135 h -0.9427 l -0.47136,-0.47135 h -3.77082 l -0.47135,0.47135 h -1.88542 l -0.47135,-0.47135 h -3.29947 l -0.47136,0.47135 h -3.29947 l -0.47135,-0.47135 h -0.47135 l -0.94271,-0.94271 z m 235.20523,-2.35677 0.47135,-0.47135 h 8.48436 l 0.47135,0.47135 -0.47135,0.47135 h -8.48436 z m -1.88541,-1.88541 0.47135,-0.47135 h 12.25518 l 0.47136,0.47135 -0.47136,0.47135 h -12.25518 z m -259.24424,-9.89842 0.47135,-0.47135 h 5.65624 l 0.47135,0.47135 -0.47135,0.47136 h -5.65624 z m 6.12759,-0.47135 0.47135,-0.47135 h 8.48436 l 0.47135,0.47135 -0.47135,0.47135 h -8.48436 z m 205.98133,-4.24218 0.47135,0.47135 v 4.24218 l -0.47135,0.47136 -0.47135,-0.47136 v -4.24218 z m -4.24218,-5.65624 h 2.82812 l 0.94271,0.94271 v 0.47135 l 0.47135,0.47136 v 3.77082 l -0.47135,0.47135 -0.47136,-0.47135 v 2.35677 l 0.47136,0.47135 v 1.41406 l -0.47136,0.47135 v 0.94271 h 0.47136 l 0.47135,0.47135 -0.47135,0.47135 h -0.47136 l -0.47135,0.47136 h -3.77082 l -0.47136,-0.47136 h -1.41406 l -0.9427,-0.9427 v -1.41406 l 0.47135,-0.47135 v -1.41406 l 0.47135,-0.47136 v -0.9427 l 0.47136,-0.47136 v -0.47135 l 0.47135,-0.47135 V 131.414 l 0.47135,-0.47136 v -0.9427 l 0.47136,-0.47135 v -0.94271 z m -272.44212,-10.84112 0.47135,0.47135 v 4.24218 l -0.47135,0.47135 -0.47135,-0.47135 v -4.24218 z m 8.48436,-2.35677 0.47135,0.47136 v 6.59894 l -0.47135,0.47135 -0.47136,-0.47135 v -6.59894 z m 1.88541,-9.89841 0.47135,0.47135 v 3.29947 l -0.47135,0.47136 v 4.71353 l -0.47135,0.47135 -0.47136,-0.47135 v -2.82812 2.82812 l 0.47136,0.47135 v 6.59894 l -0.47136,0.47136 -0.47135,-0.47136 v -5.65623 l -0.47135,-0.47136 v -5.18488 l 0.47135,-0.47135 v -3.29947 l 0.47135,-0.47136 0.47136,0.47136 v 1.88541 -2.35677 z m -16.96871,-0.47135 0.47135,0.47135 v 7.07029 l -0.47135,0.47136 v 1.41406 l 0.47135,-0.47136 v -3.77082 l 0.47135,-0.47135 0.47135,0.47135 v 4.71353 l -0.47135,0.47135 v 8.48436 l -0.47135,0.47135 -0.47135,-0.47135 v -5.18488 h -0.47136 v 3.77082 l -0.47135,0.47135 -0.47135,-0.47135 v -5.18488 l 0.47135,-0.47136 v -5.65623 l 0.47135,-0.47136 v -5.18488 z m 17.44006,-9.427065 0.47136,0.47135 v 1.88541 l 0.47135,0.47135 v 2.828125 l -0.47135,0.47136 v 3.29947 l -0.47136,0.47135 -0.47135,-0.47135 v -1.88541 1.88541 l -0.47135,0.47135 -0.47136,-0.47135 v -2.82812 l 0.47136,-0.47135 v -2.828125 l 0.47135,-0.47136 v -2.35676 z m 0.94271,-5.18489 0.47135,0.47135 v 1.41406 l 0.47135,0.47136 v 2.35676 l -0.47135,0.47136 v 2.35676 l -0.47135,0.47135 -0.47135,-0.47135 v -1.88541 l -0.47136,-0.47135 v -2.35677 l 0.47136,-0.47135 v -1.88542 z m 0.9427,-4.24218 0.47136,0.47136 v 0.9427 l 0.47135,0.47136 v 1.88541 l -0.47135,0.47135 -0.47136,-0.47135 v -1.41406 l -0.47135,-0.47135 v -1.41406 z m 2.35677,-6.12759 0.47135,0.47136 v 1.41406 l -0.47135,0.47135 v 1.41406 l -0.47135,0.47135 v 1.41406 l -0.47136,0.47135 -0.47135,-0.47135 v -0.94271 0.94271 l -0.47135,0.47135 -0.47136,-0.47135 v -1.41406 l 0.47136,-0.47135 v -1.41406 l 0.47135,-0.47135 v -1.41406 l 0.47135,-0.47136 0.47136,0.47136 v 0.9427 -0.9427 z m 0,-3.770825 0.47135,0.471351 v 0.942709 -0.942709 l 0.47136,-0.471351 0.47135,0.471351 v 1.41406 l -0.47135,0.471354 v 1.41406 l -0.47136,0.47136 -0.47135,-0.47136 h -0.47135 l -0.47136,-0.47135 v -0.94271 l 0.47136,-0.471354 v -1.41406 z m 2.35677,-8.013 0.47135,0.47135 v 0.471351 l 0.47135,-0.471351 0.47136,0.471351 v 0.471359 l -0.47136,0.47135 v 1.41406 l -0.47135,0.471351 V 72.0235 l -0.47135,0.471351 -0.47136,-0.471351 v -1.41406 l 0.47136,-0.47135 -0.47136,0.47135 -0.47135,-0.47135 v -0.94271 l 0.47135,-0.47135 v -0.94271 z m 2.35676,-6.598949 0.47135,0.471359 v 0.47135 l 0.47136,0.471351 v 0.942709 l -0.47136,0.471351 -0.47135,-0.471351 v -0.471359 0.471359 l -0.47135,0.471351 -0.47135,-0.471351 v -0.942709 l 0.47135,-0.471351 v -0.47135 z m 0.94271,-2.82812 0.47135,0.471359 0.47135,-0.471359 0.47136,0.471359 v 0.942701 l -0.47136,0.471359 v 0.942701 l -0.47135,0.471359 -0.47135,-0.471359 V 59.76832 l -0.47136,-0.471359 V 58.35426 Z m 2.35676,-6.12759 0.47136,0.471351 v 0.471358 l 0.47135,-0.471358 0.47135,0.471358 v 0.471351 l -0.47135,0.471351 v 0.942709 l -0.47135,0.47135 -0.47136,-0.47135 v -0.942709 l -0.47135,-0.471351 v -0.942709 z m 1.41406,-3.29947 0.47136,0.47135 v 0.94271 l 0.47135,0.47135 v 0.94271 l -0.47135,0.47135 v 0.471351 l -0.47136,0.471358 -0.47135,-0.471358 v -0.942701 l -0.47135,-0.471351 v -0.942709 l 0.47135,-0.471351 v -0.471359 z m 2.35677,-5.184889 0.47135,0.471359 v 0.47135 l 0.47135,-0.47135 0.47136,0.47135 v 0.471351 l -0.47136,0.471358 v 0.471351 l -0.47135,0.471351 v 0.471358 l -0.47135,0.471351 -0.47135,-0.471351 v -0.471358 l -0.47136,-0.471351 v -0.942709 l 0.47136,-0.471351 v -0.47135 z m 3.29947,-4.242172 0.47135,0.471351 v 0.47135 l -0.47135,0.471359 v 0.471351 l -0.47135,0.47135 V 41.8569 l -0.47136,0.471351 -0.47135,-0.471351 v -0.942709 l 0.47135,-0.471351 v -0.471359 z m 2.35677,-4.713538 0.47135,0.471359 v 0.47135 l -0.47135,0.471351 v 0.471359 l -0.94271,0.942701 -0.47135,-0.471351 v -0.47135 l -0.47136,-0.471359 v -0.471351 l 0.47136,-0.47135 0.47135,0.47135 z m 26.86712,-0.942701 0.47136,0.942701 -0.94271,1.885419 -1.88541,2.356761 -0.47135,1.414059 -0.94271,0.94271 -0.47135,1.41406 -0.94271,0.942701 -0.94271,2.356769 -0.9427,0.942709 -0.47136,1.41406 -0.9427,0.942701 -5.18489,10.36977 v 0.942709 l -2.35676,4.24218 v 0.942701 l -0.94271,1.41406 v 0.942709 l -0.47135,0.471351 -0.47135,2.356769 -0.94271,1.41406 v 0.942701 l -0.94271,1.41406 v 0.942709 l -0.9427,1.885411 v 1.414064 l -0.47136,0.47135 v 0.94271 l -0.47135,0.47135 v 0.94271 l -0.47135,0.47135 v 0.94271 l -0.94271,1.88541 -0.47135,3.29947 -0.94271,1.88541 v 1.88542 l -0.47135,0.47135 v 1.88541 l -0.47135,0.47136 v 1.88541 l -0.47136,0.47135 v 2.35677 l -0.47135,0.47135 v 1.885415 l -0.47135,0.47136 v 2.82811 l -0.47136,0.47136 v 3.29947 l -0.47135,0.47135 v 3.29947 l -0.47135,0.47135 v 6.59895 l -0.47136,0.47135 v 6.59895 l -0.9427,0.47135 -0.47136,-0.47135 v -4.24218 l 0.47136,-0.47136 v -7.07029 l 0.47135,-0.47136 v -4.24217 l 0.47135,-0.47136 v -3.29947 l 0.47136,-0.47135 v -2.82812 l 0.47135,-0.47135 v -2.828125 l 0.47135,-0.47135 v -1.88542 l 0.47136,-0.47135 0.47135,-4.24218 0.47135,-0.47135 v -1.41406 l 0.47136,-0.47135 v -1.41406 l 0.47135,-0.47135 v -1.41406 l 0.47135,-0.47136 0.47135,-3.29947 0.94271,-1.88541 v -1.41406 l 0.47135,-0.47135 v -0.94271 l 0.47136,-0.47135 0.47135,-2.356774 0.94271,-1.41406 V 73.43756 l 0.47135,-0.471359 V 72.0235 l 0.47135,-0.47135 0.47136,-2.35677 1.41406,-2.356769 V 65.89591 l 0.9427,-1.41406 v -0.942709 l 0.94271,-1.41406 V 61.18238 l 3.29947,-6.127599 V 54.11208 l 0.94271,-1.885418 0.9427,-0.942701 2.82812,-6.127591 0.94271,-0.942709 0.47135,-1.41406 0.94271,-0.942701 0.9427,-2.356769 0.94271,-0.942709 v -0.471351 l 0.94271,-0.942709 h 0.47135 l -0.47135,-0.471351 0.9427,-0.942709 0.47135,-1.41406 0.94271,-0.942701 z m -24.98171,-2.356769 0.47135,0.471359 v 0.47135 l -0.47135,0.47135 v 0.471351 l -0.94271,0.942709 v 0.471351 l -0.47135,0.471359 -0.47135,-0.471359 h -0.47136 l -0.47135,-0.471351 v -0.47135 l 0.47135,-0.471359 v -0.471351 l 0.47136,-0.47135 0.47135,0.47135 v 0.471351 l 0.47135,-0.471351 v -0.47135 z m 2.82812,-7.0703 0.47135,0.471359 h 0.47135 l 0.47136,0.471351 v 0.47135 l -0.47136,0.471359 v 0.471351 l -0.9427,0.942709 -0.47136,-0.471359 v -0.942701 l -0.47135,-0.471359 v -0.47135 z m 3.29947,-3.770821 0.47135,0.471351 v 0.942709 l -0.47135,0.471351 v 0.471359 l -0.94271,0.942701 -0.47135,-0.471351 v -0.47135 h -0.47135 l -0.47136,-0.471359 0.47136,-0.471351 v -0.47135 l 0.9427,-0.94271 z"
     fill="#000000"
     fill-rule="evenodd"
     id="path1"
     style="stroke-width:0.471353" />
</svg>
