<svg xmlns="http://www.w3.org/2000/svg" width="1254" height="1254" viewBox="0 0 1254 1254">
<rect width="100%" height="100%" fill="white"/>
<path d="M 47,618 L 62,658 L 69,749 L 77,758 L 99,756 L 156,718 L 229,684 L 319,664 L 353,668 L 361,689 L 327,767 L 375,786 L 393,778 L 389,762 L 402,715 L 415,707 L 467,711 L 477,682 L 487,677 L 488,657 L 615,657 L 622,666 L 632,666 L 635,657 L 690,658 L 707,671 L 728,668 L 736,655 L 889,662 L 892,683 L 919,684 L 915,669 L 935,668 L 944,642 L 962,643 L 961,620 L 945,621 L 956,611 L 1161,607 L 1164,613 L 1226,613 L 1228,582 L 1113,586 L 1102,571 L 1098,510 L 1078,507 L 1096,506 L 1078,507 L 1058,576 L 1066,583 L 899,579 L 896,571 L 882,571 L 880,579 L 879,572 L 875,578 L 838,571 L 645,572 L 688,569 L 674,566 L 689,560 L 636,543 L 613,554 L 606,547 L 487,541 L 487,533 L 520,539 L 523,531 L 527,540 L 597,543 L 613,445 L 662,354 L 571,288 L 516,391 L 494,502 L 488,490 L 476,492 L 474,554 L 484,556 L 483,563 L 461,565 L 445,520 L 416,528 L 361,526 L 351,519 L 343,531 L 350,550 L 361,541 L 431,544 L 402,545 L 428,547 L 418,555 L 419,566 L 363,566 L 349,574 L 325,566 L 320,589 L 307,591 L 305,605 L 217,611 L 176,594 L 91,597 L 74,589 L 48,601 Z M 369,784 L 370,783 L 376,783 L 377,784 L 376,785 L 370,785 Z M 428,706 L 429,705 L 431,705 L 431,704 L 432,703 L 433,704 L 435,704 L 436,705 L 458,705 L 459,706 L 458,707 L 429,707 Z M 471,686 L 472,687 L 472,695 L 471,696 L 470,695 L 470,687 Z M 435,684 L 436,683 L 437,684 L 437,685 L 439,683 L 440,683 L 441,682 L 440,682 L 439,681 L 441,679 L 443,679 L 446,676 L 447,677 L 447,678 L 448,678 L 448,677 L 447,677 L 446,676 L 447,675 L 460,675 L 461,676 L 460,677 L 459,677 L 460,677 L 461,678 L 462,678 L 461,678 L 460,677 L 461,676 L 463,676 L 464,677 L 465,677 L 466,678 L 465,679 L 468,682 L 468,683 L 469,684 L 469,686 L 470,687 L 470,693 L 469,694 L 469,697 L 470,698 L 470,699 L 469,700 L 468,699 L 467,700 L 466,700 L 465,701 L 464,701 L 464,702 L 463,703 L 464,703 L 465,704 L 464,705 L 463,705 L 462,706 L 459,706 L 458,705 L 458,704 L 437,704 L 436,703 L 436,700 L 434,698 L 434,696 L 433,695 L 433,688 L 434,687 L 434,686 L 435,685 Z M 418,675 L 420,675 L 421,676 L 421,677 L 422,678 L 422,679 L 423,680 L 424,680 L 426,682 L 426,684 L 425,685 L 425,691 L 426,692 L 426,695 L 425,696 L 425,697 L 425,696 L 426,695 L 427,696 L 427,697 L 429,699 L 429,700 L 432,703 L 431,704 L 427,704 L 428,704 L 429,705 L 428,706 L 426,706 L 425,705 L 424,705 L 423,704 L 424,703 L 423,702 L 422,702 L 421,703 L 419,701 L 419,700 L 418,699 L 418,698 L 419,697 L 420,697 L 420,696 L 419,695 L 419,694 L 419,696 L 418,697 L 417,696 L 417,676 Z M 419,658 L 420,658 L 421,659 L 421,663 L 420,664 L 419,664 L 418,663 L 418,659 Z M 462,657 L 463,658 L 463,659 L 464,660 L 463,661 L 463,663 L 462,664 L 461,664 L 460,663 L 461,662 L 461,658 Z M 434,643 L 435,642 L 450,642 L 451,643 L 450,644 L 435,644 Z M 391,643 L 392,642 L 409,642 L 410,643 L 409,644 L 392,644 Z M 741,644 L 742,642 L 744,643 L 743,643 L 742,641 L 745,638 L 785,638 L 789,635 L 807,635 L 808,636 L 819,636 L 820,635 L 828,635 L 829,636 L 832,636 L 833,635 L 843,635 L 844,636 L 866,636 L 867,635 L 878,635 L 879,636 L 886,636 L 887,635 L 894,635 L 895,636 L 899,636 L 900,637 L 898,641 L 894,641 L 899,641 L 900,642 L 899,643 L 894,643 L 892,644 L 890,647 L 861,647 L 860,646 L 861,645 L 861,641 L 859,639 L 837,639 L 834,643 L 833,642 L 831,642 L 829,644 L 828,644 L 833,644 L 834,643 L 835,644 L 834,646 L 800,646 L 799,645 L 800,644 L 824,644 L 816,644 L 815,643 L 779,643 L 791,643 L 792,644 L 791,645 L 742,645 Z M 342,618 L 343,617 L 465,617 L 466,618 L 465,619 L 343,619 Z M 908,616 L 907,617 L 907,620 L 908,621 L 907,622 L 904,622 L 903,623 L 889,623 L 888,622 L 889,621 L 896,621 L 897,620 L 898,620 L 898,613 L 899,612 L 902,612 L 905,615 L 907,615 Z M 879,612 L 880,612 L 881,613 L 881,620 L 882,621 L 881,622 L 880,622 L 878,620 L 878,613 Z M 955,610 L 956,609 L 1062,609 L 1063,610 L 1062,611 L 956,611 Z M 1193,605 L 1194,604 L 1203,604 L 1204,605 L 1203,606 L 1194,606 Z M 1190,602 L 1191,601 L 1219,601 L 1220,602 L 1220,605 L 1219,606 L 1218,606 L 1217,605 L 1218,604 L 1218,603 L 1192,603 L 1192,605 L 1191,606 L 1190,605 Z M 814,601 L 815,600 L 816,600 L 815,599 L 815,596 L 816,595 L 821,595 L 816,595 L 815,594 L 816,593 L 851,593 L 852,594 L 851,595 L 849,595 L 850,595 L 851,596 L 851,599 L 853,601 L 852,602 L 834,602 L 833,603 L 821,603 L 820,602 L 815,602 Z M 755,595 L 757,593 L 793,593 L 794,594 L 793,595 L 792,595 L 793,596 L 792,597 L 792,598 L 793,598 L 793,595 L 794,594 L 796,596 L 796,600 L 794,602 L 786,602 L 785,603 L 775,603 L 774,602 L 764,602 L 763,603 L 759,603 L 758,602 L 756,602 L 755,601 L 755,600 L 756,599 L 756,597 L 757,596 L 756,597 L 755,596 Z M 696,596 L 699,593 L 735,593 L 737,595 L 737,596 L 738,597 L 738,599 L 737,600 L 737,601 L 736,602 L 733,602 L 732,603 L 730,603 L 729,602 L 721,602 L 720,603 L 716,603 L 715,602 L 708,602 L 707,603 L 700,603 L 699,602 L 698,602 L 696,600 Z M 1195,591 L 1196,590 L 1214,590 L 1215,591 L 1214,592 L 1196,592 Z M 1191,587 L 1192,586 L 1218,586 L 1219,587 L 1218,588 L 1192,588 Z M 641,566 L 642,565 L 654,565 L 655,566 L 654,567 L 642,567 Z M 654,565 L 655,564 L 673,564 L 674,565 L 673,566 L 655,566 Z M 1091,556 L 1092,557 L 1092,566 L 1091,567 L 1090,566 L 1090,557 Z M 1082,544 L 1088,544 L 1090,546 L 1090,547 L 1091,548 L 1091,556 L 1090,557 L 1089,556 L 1089,561 L 1090,562 L 1090,565 L 1089,566 L 1089,568 L 1090,568 L 1091,569 L 1090,570 L 1089,570 L 1088,571 L 1080,571 L 1079,570 L 1076,570 L 1074,568 L 1074,565 L 1075,564 L 1075,561 L 1076,560 L 1076,558 L 1077,557 L 1077,556 L 1078,555 L 1078,552 L 1079,551 L 1079,549 L 1080,548 L 1080,546 Z M 504,521 L 505,522 L 505,531 L 504,532 L 503,531 L 503,522 Z M 522,516 L 523,517 L 523,531 L 522,532 L 521,531 L 521,517 Z M 526,495 L 527,496 L 527,503 L 526,504 L 526,514 L 525,515 L 524,514 L 524,508 L 524,514 L 525,515 L 525,529 L 524,530 L 523,529 L 523,517 L 522,516 L 522,505 L 523,504 L 523,497 L 524,496 L 525,497 L 525,501 L 525,496 Z M 490,494 L 491,495 L 491,510 L 490,511 L 490,514 L 491,513 L 491,505 L 492,504 L 493,505 L 493,515 L 492,516 L 492,534 L 491,535 L 490,534 L 490,523 L 489,523 L 489,531 L 488,532 L 487,531 L 487,520 L 488,519 L 488,507 L 489,506 L 489,495 Z M 527,474 L 528,475 L 528,479 L 529,480 L 529,486 L 528,487 L 528,494 L 527,495 L 526,494 L 526,490 L 526,494 L 525,495 L 524,494 L 524,488 L 525,487 L 525,481 L 526,480 L 526,475 Z M 529,463 L 530,464 L 530,467 L 531,468 L 531,473 L 530,474 L 530,479 L 529,480 L 528,479 L 528,475 L 527,474 L 527,469 L 528,468 L 528,464 Z M 531,454 L 532,455 L 532,457 L 533,458 L 533,462 L 532,463 L 531,462 L 531,459 L 530,458 L 530,455 Z M 536,441 L 537,442 L 537,445 L 536,446 L 536,449 L 535,450 L 535,453 L 534,454 L 533,453 L 533,451 L 533,453 L 532,454 L 531,453 L 531,450 L 532,449 L 532,446 L 533,445 L 533,442 L 534,441 L 535,442 L 535,444 L 535,442 Z M 536,433 L 537,434 L 537,436 L 537,434 L 538,433 L 539,434 L 539,437 L 538,438 L 538,441 L 537,442 L 536,441 L 535,441 L 534,440 L 534,438 L 535,437 L 535,434 Z M 541,416 L 542,417 L 542,418 L 543,417 L 544,418 L 544,419 L 543,420 L 543,423 L 542,424 L 542,426 L 541,427 L 540,426 L 540,423 L 541,422 L 540,423 L 539,422 L 539,420 L 540,419 L 540,417 Z M 546,402 L 547,403 L 547,404 L 548,405 L 548,407 L 547,408 L 546,407 L 546,406 L 546,407 L 545,408 L 544,407 L 544,405 L 545,404 L 545,403 Z M 548,396 L 549,397 L 550,396 L 551,397 L 551,399 L 550,400 L 550,402 L 549,403 L 548,402 L 548,400 L 547,399 L 547,397 Z M 553,383 L 554,384 L 554,385 L 555,384 L 556,385 L 556,386 L 555,387 L 555,389 L 554,390 L 553,389 L 553,387 L 552,386 L 552,384 Z M 556,376 L 557,377 L 557,379 L 558,380 L 558,382 L 557,383 L 557,384 L 556,385 L 555,384 L 555,382 L 554,381 L 554,379 L 555,378 L 555,377 Z M 561,365 L 562,366 L 562,367 L 563,366 L 564,367 L 564,368 L 563,369 L 563,370 L 562,371 L 562,372 L 561,373 L 560,372 L 560,371 L 559,370 L 559,368 L 560,367 L 560,366 Z M 568,356 L 569,357 L 569,358 L 568,359 L 568,360 L 567,361 L 567,362 L 566,363 L 565,362 L 565,360 L 566,359 L 566,358 Z M 573,346 L 574,347 L 574,348 L 573,349 L 573,350 L 571,352 L 570,351 L 570,350 L 569,349 L 569,348 L 570,347 L 571,348 Z M 630,344 L 631,346 L 629,350 L 625,355 L 624,358 L 622,360 L 621,363 L 619,365 L 617,370 L 615,372 L 614,375 L 612,377 L 601,399 L 601,401 L 596,410 L 596,412 L 594,415 L 594,417 L 593,418 L 592,423 L 590,426 L 590,428 L 588,431 L 588,433 L 586,437 L 586,440 L 585,441 L 585,443 L 584,444 L 584,446 L 583,447 L 583,449 L 581,453 L 580,460 L 578,464 L 578,468 L 577,469 L 577,473 L 576,474 L 576,478 L 575,479 L 575,484 L 574,485 L 574,489 L 573,490 L 573,496 L 572,497 L 572,504 L 571,505 L 571,512 L 570,513 L 570,527 L 569,528 L 569,542 L 567,543 L 566,542 L 566,533 L 567,532 L 567,517 L 568,516 L 568,507 L 569,506 L 569,499 L 570,498 L 570,492 L 571,491 L 571,485 L 572,484 L 572,480 L 573,479 L 574,470 L 575,469 L 575,466 L 576,465 L 576,462 L 577,461 L 577,458 L 578,457 L 579,450 L 581,446 L 581,443 L 582,442 L 582,440 L 583,439 L 584,434 L 586,431 L 586,429 L 587,428 L 587,426 L 588,425 L 589,420 L 592,415 L 592,413 L 594,410 L 594,408 L 596,405 L 596,403 L 603,390 L 603,388 L 605,384 L 607,382 L 613,369 L 615,367 L 616,364 L 618,362 L 620,357 L 622,355 L 622,354 L 624,352 L 625,352 L 624,351 L 626,349 L 627,346 L 629,344 Z M 577,339 L 578,340 L 578,341 L 577,342 L 577,343 L 575,345 L 575,346 L 574,347 L 573,346 L 572,346 L 571,345 L 571,344 L 572,343 L 572,342 L 573,341 L 574,342 L 574,343 L 575,342 L 575,341 Z M 583,324 L 584,325 L 585,325 L 586,326 L 586,327 L 585,328 L 585,329 L 583,331 L 582,330 L 582,328 L 581,327 L 581,326 Z M 590,316 L 591,317 L 591,319 L 590,320 L 590,321 L 588,323 L 587,322 L 587,321 L 586,321 L 585,320 L 586,319 L 586,318 L 588,316 Z" fill="black" fill-rule="evenodd"/>
</svg>