<?xml version="1.0" encoding="UTF-8" standalone="no"?>
<svg
   width="650"
   height="250"
   viewBox="0 0 650 250"
   version="1.1"
   id="svg4"
   sodipodi:docname="browning_m1919_black.svg"
   inkscape:version="1.4.2 (f4327f4, 2025-05-13)"
   xmlns:inkscape="http://www.inkscape.org/namespaces/inkscape"
   xmlns:sodipodi="http://sodipodi.sourceforge.net/DTD/sodipodi-0.dtd"
   xmlns="http://www.w3.org/2000/svg"
   xmlns:svg="http://www.w3.org/2000/svg">
  <defs
     id="defs4" />
  <sodipodi:namedview
     id="namedview4"
     pagecolor="#ffffff"
     bordercolor="#000000"
     borderopacity="0.25"
     inkscape:showpageshadow="2"
     inkscape:pageopacity="0.0"
     inkscape:pagecheckerboard="0"
     inkscape:deskcolor="#d1d1d1"
     inkscape:zoom="0.93700159"
     inkscape:cx="626.46638"
     inkscape:cy="627"
     inkscape:window-width="2560"
     inkscape:window-height="1377"
     inkscape:window-x="-8"
     inkscape:window-y="-8"
     inkscape:window-maximized="1"
     inkscape:current-layer="svg4" />
  <path
     d="m 99.146369,62.791387 h -1.026803 l -0.513394,0.513409 h -3.593786 l -0.513393,0.513395 h -0.513392 6.160768 z"
     fill="#000000"
     fill-rule="evenodd"
     id="path1"
     style="stroke-width:0.513398" />
  <path
     d="m 520.13248,37.634906 v 12.321557 h 0.51339 V 38.148316 Z"
     fill="#000000"
     fill-rule="evenodd"
     id="path2"
     style="stroke-width:0.513398" />
  <path
     d="m 148.94596,34.554531 v 12.321538 -0.513394 l 0.51339,-0.513392 v -4.107199 l -0.51339,-0.513392 0.51339,-0.513392 v -4.10718 l -0.51339,-0.513392 z"
     fill="#000000"
     fill-rule="evenodd"
     id="path3"
     style="stroke-width:0.513398" />
  <path
     d="m 31.377873,136.72066 h 26.696681 l 2.566988,-18.99569 13.861736,-27.72351 h 10.781357 l 7.187554,5.647375 -0.513393,17.455545 12.834954,2.05358 6.67416,7.70097 v 9.75455 l 8.21436,6.16077 25.15649,-3.59378 8.72776,-20.53589 96.00536,-1.02681 4.62059,14.37514 12.32153,4.10718 -1.02677,4.10718 -22.07612,13.86173 3.08038,4.6206 -4.62058,7.18754 -79.06322,64.17471 -12.83495,1.54021 v 6.16077 l 11.80814,5.13398 20.53591,-2.05359 4.1072,-4.10718 -2.56699,-8.21435 82.657,-62.63455 36.45126,-4.10716 2.05357,22.07611 6.16077,-3.08039 -2.05359,-12.32155 8.72777,-2.56701 72.90247,65.71492 -5.64738,3.08038 2.56701,4.10719 26.18327,1.02679 10.78135,-8.21436 -15.91534,-1.54021 -73.92926,-69.30866 -17.96893,-24.6431 2.567,-11.80815 -23.10291,-2.56697 1.02681,-11.29476 6.16078,-0.51341 2.05357,-7.187553 222.81463,1.026775 0.51337,-6.160747 1.5402,3.593772 4.10719,-4.620579 -5.13396,-1.026797 82.657,2.566975 2.05359,-16.42871 -84.71059,1.026778 -1.0268,-14.888523 h -8.72777 l -1.02681,-27.210071 -7.70096,1.026786 -0.51339,24.6431 -204.33229,1.02679 -4.10719,-10.78135 5.64738,-16.428718 -0.51339,4.107178 -4.62057,-9.241163 -40.04503,-1.026803 -6.16076,5.647377 6.67416,9.241163 31.83065,-1.026806 -3.08038,14.375145 -17.45553,-0.513393 -0.51339,-5.647373 -14.37514,-1.540198 -2.56698,7.187571 h -37.47803 l -3.59379,-9.241162 h -68.28189 l -1.0268,-15.915324 -12.83493,0.513393 V 6.3176482 l -4.10718,-0.5133929 -2.0536,35.9378287 -14.37513,-1.026784 -2.56699,16.942126 -8.72777,-0.513411 -2.053587,7.70097 -13.348342,1.5402 -1.026786,7.700965 -34.911046,-2.053596 -7.187568,4.620575 -2.053592,8.727771 5.133977,11.808147 -11.808147,20.022513 z m 276.721367,34.39765 0.51339,0.51339 v 4.10719 l -0.51339,0.5134 h -0.51342 l -0.51339,0.51341 -1.0268,-1.02681 v -4.10719 l 0.5134,-0.51339 0.5134,0.51339 0.51339,-0.51339 z m 33.88423,-7.70096 0.51339,-0.5134 h 0.51342 l 2.05358,2.0536 -0.5134,0.51339 h -0.51341 z m -35.93784,-3.59379 v -1.5402 l 0.5134,-0.51338 h 1.54021 l 0.51339,0.51338 -0.51339,0.51341 h -1.02681 v 0.51339 l 0.51339,0.5134 -0.51339,0.5134 h -0.5134 z m -53.39336,-10.78135 1.02681,1.02679 -0.51343,0.51342 h -0.51338 l -1.54019,1.54018 -1.0268,-1.02679 2.0536,-2.0536 z m 4.10719,-3.08038 0.51337,0.51339 -0.51337,0.5134 v 0.51339 l -0.51339,0.51341 h -0.51341 l -1.0268,1.02679 -0.51339,-0.5134 v -0.51339 l 2.0536,-2.05359 z m 54.93354,-22.07611 1.0268,-1.02679 h 0.51339 l 0.51339,0.51338 v 1.02681 h 0.51343 v -1.02681 l 0.51339,-0.51338 h 0.51339 l 1.0268,1.02679 v 1.5402 l -1.0268,1.0268 h -0.51339 l -0.51339,0.51338 h -0.51343 l -0.51339,-0.51338 h -0.51339 l -0.51339,-0.5134 v -0.5134 l -0.51341,-0.5134 z m -50.31298,-1.02679 0.51342,0.51338 v 2.05361 l -1.0268,1.0268 h -1.5402 l -0.5134,-0.5134 0.5134,-0.5134 h 1.0268 l 0.5134,-0.5134 v -1.54021 z m -0.51338,-0.51339 0.51338,0.51339 -0.51338,0.51338 h -1.0268 l -0.5134,0.51341 v 1.5402 l -0.5134,0.5134 -0.5134,-0.5134 v -2.05361 l 1.0268,-1.02677 z m -135.53699,-0.51339 2.567,-2.56701 h 0.51339 l 0.5134,0.51341 -0.5134,-0.51341 1.0268,-1.02678 h 0.51339 l 0.5134,0.51337 h 10.26795 l 0.5134,0.51341 v 1.0268 h 0.5134 v -0.51339 l 0.51339,-0.51341 0.51339,0.51341 v 0.51339 l 0.51342,0.51339 v 8.72778 l -0.51342,0.5134 v 1.02678 l -2.56697,2.56701 h -0.5134 l -0.5134,0.51339 h -0.5134 l -0.5134,0.51338 H 136.111 l -0.51339,0.5134 h -1.0268 l -0.5134,-0.5134 0.5134,-0.51338 h 0.51339 -2.56698 1.0268 l 0.51339,0.51338 -0.51339,0.5134 h -8.21437 l -0.5134,-0.5134 v -1.02677 l 0.5134,-0.5134 0.51341,0.5134 h 1.02679 l 0.51339,-0.5134 v -1.54021 l -2.05359,-2.05358 v -0.5134 l -0.5134,-0.5134 v -1.02679 l -0.51339,-0.51342 v -2.56698 l 0.51339,-0.5134 v -1.02679 l 0.5134,-0.51339 z m -8.21437,-3.59379 0.5134,0.51337 v 1.54021 l 0.51341,0.51339 h 1.54018 l 0.51341,0.5134 v 2.56699 l -0.51341,0.5134 -0.5134,-0.5134 v -2.05357 h -0.51339 v 2.05357 l 0.51339,0.5134 -0.51339,0.5134 0.51339,0.5134 v 1.54018 -2.05358 l 0.5134,-0.5134 0.51341,0.5134 v 2.05358 l 0.51339,0.51342 v 1.02679 l 0.5134,0.5134 v 0.5134 l 1.0268,1.02677 -0.51339,0.51341 0.51339,-0.51341 1.54019,1.54021 -0.5134,0.51339 v 1.54021 l -0.5134,0.51338 h -2.05359 l -0.51339,-0.51338 h -1.02681 l -0.51339,-0.51339 h -0.51339 l -2.05359,-2.05361 v -0.5134 l -0.51341,-0.51341 v -1.02677 l 0.51341,-0.5134 0.51339,0.5134 v 0.5134 -0.5134 l -0.51339,-0.5134 -0.51341,0.5134 -0.51339,-0.5134 v -8.21438 l 1.0268,-1.02678 0.51339,0.51339 v 1.54021 -2.0536 l -0.51339,-0.51341 z m 17.96892,-0.51339 0.51341,-0.51341 h 3.59378 l 0.5134,0.51341 h 1.02679 l 0.5134,0.51339 -0.5134,0.51337 H 136.111 Z m 216.14044,-27.72351 0.5134,0.513427 v 2.566984 l -1.0268,1.026775 h -0.51341 l -0.51339,-0.513371 1.0268,-1.026807 v -2.053581 z m 51.33976,1.026807 0.51341,-0.51338 V 90.00146 l 0.51338,-0.513384 0.5134,0.513384 h 1.02681 l 0.51339,-0.513384 h 1.02677 l 0.51343,0.513384 h 0.51339 l 0.51339,0.513427 v 2.053581 l -1.02678,1.026807 h -2.567 l -0.5134,-0.513404 -0.5134,0.513404 -1.02679,-1.026807 z m -56.98715,-1.026807 0.51341,-0.513384 0.51339,0.513384 v 0.513427 l 1.0268,-1.026811 h 2.05359 l 1.0268,1.026811 v 0.51338 l -0.51341,0.513404 v 1.5402 l -0.51339,0.513404 h -2.56697 l -0.51342,-0.513404 v -1.026807 1.026807 l -0.51339,0.513404 -0.51341,-0.513404 v -0.513403 l -0.51339,-0.513404 v -1.026797 l 0.51339,-0.51338 z m -14.88853,1.540211 0.51339,-0.513404 V 90.00146 l 0.51342,-0.513384 0.51338,0.513384 v 0.513427 l 0.5134,-0.513427 h 0.51341 l 0.51339,-0.513384 h 0.5134 l 1.02681,1.026811 h 0.51338 l 0.51338,0.51338 v 1.540201 l -1.02676,1.026807 h -2.56701 l -0.5134,0.513371 -1.0268,-1.026775 v -0.513403 l -0.51339,-0.513404 z m 129.37622,-1.026784 0.5134,-0.513427 v -0.513384 l 0.51339,-0.513397 h 0.51342 l 0.51339,0.513397 h 2.05358 l 0.51339,0.513384 v 0.513427 h 0.51343 l 0.51338,0.51338 v 1.540201 l -1.02681,1.026807 h -2.56697 l -0.51339,-0.513404 v -2.053604 h -0.51342 v 1.540201 l -0.51339,0.513403 -0.5134,-0.513403 z m -8.72776,-1.540208 0.51341,0.513397 v 0.513384 l -0.51341,0.513427 v 0.51338 l -0.5134,0.513404 v 1.5402 l -0.51338,0.513404 h -2.05361 2.05361 l 0.51338,0.513371 -0.51338,0.513404 h -2.567 l -0.51341,-0.513404 h -0.5134 l -0.51338,-0.513371 v -1.026807 l -0.5134,-0.513404 v -1.026797 l 0.5134,-0.51338 V 90.00146 l 0.51338,-0.513384 0.5134,0.513384 v 0.513427 l 1.0268,-1.026811 h 2.05361 l 0.51338,-0.513397 z m -43.12541,0 1.0268,1.026781 v 3.080411 l -1.54019,1.540179 h -3.08039 l -0.5134,-0.513404 0.5134,-0.513371 h 2.567 l 1.02678,-1.026807 v -2.053581 l -0.51339,-0.513427 v -0.513384 z m -28.75027,0 1.02679,1.026781 v 3.080411 l -1.54019,1.540179 h -3.0804 l -1.02676,-1.026775 0.51337,-0.513404 h 0.51339 l 0.51341,0.513404 h 2.0536 l 1.02679,-1.026807 v -2.053581 l -0.5134,-0.513427 v -0.513384 z m -305.471618,0.513397 0.513396,-0.513397 h 10.781357 l 0.513394,0.513397 -0.513394,0.513384 H 74.503278 Z m 415.338728,-0.513397 0.51338,-0.513385 h 3.08041 l 0.51341,0.513385 -0.51341,0.513397 h -1.0268 l 0.5134,0.513384 h 0.5134 v -0.513384 l 0.51341,-0.513397 0.51337,0.513397 v 0.513384 l 0.5134,0.513427 v 2.566984 l -1.02677,1.026775 h -0.51341 l -0.5134,-0.513371 1.02681,-1.026807 -1.02681,1.026807 h -2.05361 l -1.02678,-1.026807 v -1.540201 l 0.51338,-0.51338 h 0.5134 V 90.00146 l 0.51342,-0.513384 h -1.02682 z m -13.34834,-0.513385 h 3.08038 l 0.51341,0.513385 -0.51341,0.513397 h -1.0268 l 0.51339,0.513384 h 1.02682 l 0.51339,-0.513384 0.5134,0.513384 v 3.080411 l -1.5402,1.540179 h -3.08038 l -0.5134,-0.513404 0.5134,-0.513371 h 2.56697 -2.05358 l -1.02679,-1.026807 v -2.053581 l 0.5134,-0.513427 h 0.51339 l 0.51342,-0.513384 h -1.02681 l -0.5134,-0.513397 z m -44.15221,1.540166 0.5134,-0.513384 0.51342,0.513384 h 1.02678 l 0.51341,-0.513384 h -1.0268 l -0.51339,-0.513397 0.51339,-0.513385 h 3.08038 l 0.51339,0.513385 -0.51339,0.513397 h -1.02681 l 0.5134,0.513384 h 1.0268 l 0.5134,-0.513384 0.51339,0.513384 v 1.026807 l 0.51342,0.513404 -0.51342,0.513393 v 1.026807 l -0.51339,0.513404 -0.5134,-0.513404 0.5134,0.513404 -0.5134,0.513371 h -0.51339 l -0.51341,-0.513371 h -2.05358 2.05358 l 0.51341,0.513371 -0.51341,0.513404 h -2.56697 l -1.54021,-1.540179 z m -12.83492,-1.540166 h 3.08038 l 0.5134,0.513385 -0.5134,0.513397 h -2.567 2.05361 l 1.02679,1.026811 h 0.51337 l 1.0268,1.026784 v 0.513393 l -0.51339,0.513404 v 0.513403 l -1.54018,1.540179 h -3.08038 l -1.02682,-1.026775 0.51338,-0.513404 v -2.566984 l -0.51338,0.51338 -0.51338,-0.51338 V 90.00146 Z m -14.88855,0.513385 0.5134,-0.513385 h 3.08039 l 0.51339,0.513385 -0.51339,0.513397 h -3.08039 z m -13.86173,-0.513385 h 3.08038 l 0.51341,0.513385 -0.51341,0.513397 h -1.02679 l 1.02679,1.026811 h 0.51341 l 0.51338,-0.513427 0.51338,0.513427 v 2.566984 l -1.54017,1.540179 h -3.08038 l -0.5134,-0.513404 0.5134,-0.513371 h 2.56698 l 1.02681,-1.026807 v -0.513404 0.513404 l -1.02681,1.026807 h -2.05359 l -1.02679,-1.026807 V 90.00146 l 0.5134,-0.513384 0.51339,0.513384 h 0.51339 v -0.513384 h -1.02678 l -0.5134,-0.513397 z m -14.37516,0 h 3.0804 l 0.5134,0.513385 -0.5134,0.513397 h -1.02678 0.51339 l 1.02679,1.026811 v 1.026784 l -0.5134,0.513393 0.5134,0.513404 -1.02679,1.026807 h -2.0536 l -1.0268,-1.026807 v -0.513404 1.026807 l -0.51337,0.513404 -0.51341,-0.513404 V 90.00146 l 0.51341,-0.513384 0.51337,0.513384 v 1.026807 l 1.0268,-1.026807 v -0.513384 h -0.51341 l -0.51339,-0.513397 z m -14.37512,0 h 3.08038 l 0.5134,0.513385 -0.5134,0.513397 h -1.02678 l 1.02678,1.026811 h 0.5134 l 0.5134,-0.513427 0.51339,0.513427 v 2.053581 l -0.51339,0.513403 v 0.513404 l -0.5134,0.513371 h -0.5134 l -0.5134,-0.513371 0.5134,-0.513404 -0.5134,0.513404 h -2.05358 l -1.54019,-1.540211 0.5134,-0.513393 v -1.026784 l 0.51339,-0.513427 h 0.5134 l 0.5134,-0.513384 h -1.0268 l -0.51339,-0.513397 z M 91.958796,76.653129 l -0.513393,0.513412 0.513393,0.513395 v 4.10718 L 91.445403,82.300498 90.932012,81.787116 90.4186,82.300498 89.905208,81.787116 H 75.530074 l -0.513396,-0.513397 0.513396,-0.513394 H 90.4186 v -4.620591 l 0.513412,-0.513396 z m 340.896084,-2.566979 0.51339,-0.513394 h 3.08038 l 0.51339,0.513394 -0.51339,0.513383 h -0.51341 l -0.5134,0.513409 h -1.02677 l -0.51341,-0.513409 h -0.51339 z m -28.75029,0 0.5134,-0.513394 h 3.08039 l 0.51339,0.513394 -0.51339,0.513383 h -1.02682 l -0.51338,0.513409 h -0.51339 l -0.51339,-0.513409 h -0.51341 z m 58.01395,-4.107179 h 3.0804 l 0.51338,0.513382 v 2.053596 l -1.02681,1.026807 h -2.56697 0.51338 l 0.51341,0.513394 h 0.5134 l 0.51339,0.513383 -0.51339,0.513409 h -1.02681 l -0.51338,-0.513409 h -0.51339 l -1.02681,-1.026777 V 73.05936 l 0.51339,-0.513411 h 0.51342 v -2.053596 z m -72.38908,0.513382 0.5134,-0.513382 h 3.08038 l 0.51341,0.513382 0.51338,-0.513382 0.51338,0.513382 v 2.567007 l -0.51338,0.513396 -0.51338,-0.513396 v -0.513411 l -1.02681,1.026807 h -1.02679 l -0.51341,-0.513396 -0.51339,0.513396 h -0.51339 l -0.5134,-0.513396 z m -15.91534,1.026804 0.51341,-0.513382 v -0.513422 l 0.51341,-0.513382 0.51337,0.513382 v 0.513422 -0.513422 l 0.51339,-0.513382 h 3.0804 l 0.5134,0.513382 v 2.053596 l -1.02679,1.026807 -0.51339,-0.513396 -0.51342,0.513396 h -1.02679 l -1.0268,-1.026807 v 0.513411 l -0.51337,0.513396 -0.51341,-0.513396 v -1.026806 z m -12.83493,-1.026804 0.51339,-0.513382 h 3.08038 l 0.5134,0.513382 0.5134,-0.513382 0.51339,0.513382 v 2.567007 l -0.51339,0.513396 -0.5134,-0.513396 v -0.513411 l -1.0268,1.026807 h -0.51338 l -0.51339,0.513394 -1.02681,-1.02679 -0.5134,0.513396 -0.51339,-0.513396 z m 133.48339,0 v 2.567007 l -0.5134,0.513396 -0.51337,-0.513396 H 492.409 l -0.5134,0.513396 h -0.51339 l -0.5134,-0.513396 h -1.02682 l -0.51338,-0.513411 v -2.053596 l 0.51338,-0.513382 h 0.5134 l 0.51342,0.513382 h 0.5134 l 0.51339,-0.513382 h 1.0268 l 0.51341,-0.513396 z m -13.86173,0 v 2.567007 l -0.5134,0.513396 -0.51339,-0.513396 h -1.02682 l -0.51339,0.513396 h -1.02677 l -0.51342,-0.513396 -0.51339,0.513396 -0.5134,-0.513396 v -2.567007 l 0.5134,-0.513382 h 3.08038 l 0.51341,-0.513396 z m -33.37086,-1.540188 h 0.51341 l 0.51339,0.51341 -1.0268,1.026778 0.51341,-0.513382 h 2.567 l 0.51338,0.513382 v 0.513422 l 0.5134,0.513382 -0.5134,0.513397 v 0.513395 l -0.51338,0.513411 h -0.51341 l -0.5134,0.513396 h -1.0268 L 447.7434,73.05936 h -0.51341 l 0.51341,0.513396 h 0.51339 l 0.5134,0.513394 -0.5134,0.513383 h -1.0268 l -1.02678,-1.026777 V 73.05936 l -0.5134,-0.513411 v -1.540174 l 0.5134,-0.513422 v -0.513382 z m -9.24116,1.026806 v 0.513382 l 0.51342,0.513422 v 1.026779 l -0.51342,0.513395 v 0.513411 l -0.51339,0.513396 -0.5134,-0.513396 h -1.0268 l -0.5134,0.513396 h -1.02677 l -0.51341,-0.513396 h -1.02678 l 0.51339,0.513396 -0.51339,0.513394 h -0.51342 l -0.5134,-0.513394 v -3.593785 l 0.5134,-0.513396 0.51342,0.513396 v 0.513382 l 0.51339,-0.513382 h 3.08038 l -0.51341,-0.513396 0.51341,-0.51341 h 0.51339 z m -107.30011,1.026804 0.51339,-0.513422 v -0.513382 l 1.0268,-1.026806 h 0.5134 l 0.51341,0.51341 -0.51341,0.513396 h 3.08039 l 0.51338,0.513382 0.5134,-0.513382 0.51342,0.513382 v 2.567007 l -0.51342,0.513396 -0.5134,-0.513396 h -1.54018 l -0.51339,0.513396 h -1.02679 l -0.51341,-0.513396 h -0.5134 l 1.02681,1.02679 -0.51341,0.513383 h -0.5134 l -1.0268,-1.026777 v -1.026807 l -0.51339,-0.513395 z m 86.76422,-1.026804 1.02676,-1.026806 h 0.51344 l 0.51338,0.51341 v 0.513396 h 2.567 l 0.5134,0.513382 v 0.513422 -0.513422 l -0.5134,-0.513382 h -0.51339 l -0.51341,-0.513396 h -1.5402 l -0.51338,-0.51341 0.51338,-0.513397 h 2.05361 l 0.51339,0.513397 h 0.5134 l 1.02678,1.026806 v 1.026804 l 0.51339,0.513382 v 0.513397 l -0.51339,0.513395 v 0.513411 l -0.51341,0.513396 -0.51337,-0.513396 -0.5134,0.513396 h -3.08038 L 418.4797,73.05936 v -2.567007 l -0.51338,0.513422 -0.51338,-0.513422 z m -14.37513,0 0.51338,-0.513396 0.5134,0.513396 h 3.59379 -0.51339 l -0.51343,-0.513396 h -1.54016 l -0.51341,-0.51341 0.51341,-0.513397 h 2.05359 l 0.51339,0.513397 h 0.51339 l 0.51339,0.51341 v 0.513396 l 0.51341,0.513382 v 2.567007 l -1.0268,1.02679 -1.02678,-1.02679 -0.51343,0.513396 h -1.54016 l -0.51341,-0.513396 h -0.5134 l 0.5134,0.513396 -0.5134,0.513394 h -0.5134 l -0.51338,-0.513394 V 73.05936 l -0.51341,-0.513411 v -1.540174 l 0.51341,-0.513422 z m -57.50056,0 1.0268,-1.026806 h 0.51342 l 0.51338,-0.513397 h 1.5402 l 0.51339,0.513397 -0.51339,0.51341 h -1.02682 v 0.513396 h 2.0536 l 0.51341,0.513382 -0.51341,0.513422 v 1.026779 l 0.51341,0.513395 v -2.053596 l 0.5134,-0.513382 0.5134,0.513382 v 2.567007 l -1.0268,1.02679 -0.51341,-0.513394 h -3.08036 l -0.51342,-0.513396 0.51342,0.513396 -0.51342,0.513394 h -0.51339 l -0.51341,-0.513394 v -1.026807 l -0.51339,-0.513395 v -1.026779 l 0.51339,-0.513422 z m -30.29046,-6.16078 0.51341,-0.513395 h 184.82316 l 0.5134,0.513395 -0.5134,0.513397 H 315.8002 Z m -181.74277,-14.888534 0.51339,-0.513393 h 3.08037 l 0.51343,-0.513391 h 9.24115 l 0.51339,0.513391 h 68.28189 l 0.5134,0.513393 -0.5134,0.513393 h -81.63023 z m -10.26796,0 1.0268,-1.026784 h 1.02679 l 0.51341,0.513391 h 1.54018 l 0.51341,-0.513391 0.51339,0.513391 v 0.513393 l -0.51339,0.513393 h -4.10719 z m 12.32155,-15.915324 1.02678,-1.026805 h 4.10719 l 0.5134,0.513412 v 0.513393 l -0.5134,0.513393 H 136.111 Z"
     fill="#000000"
     fill-rule="evenodd"
     id="path4"
     style="stroke-width:0.513398" />
</svg>
