<svg xmlns="http://www.w3.org/2000/svg" width="1254" height="1254" viewBox="0 0 1254 1254">
<rect width="100%" height="100%" fill="white"/>
<path d="M 205,485 L 203,485 L 202,486 L 195,486 L 194,487 L 193,487 L 205,487 Z" fill="black" fill-rule="evenodd"/>
<path d="M 1025,436 L 1025,460 L 1026,460 L 1026,437 Z" fill="black" fill-rule="evenodd"/>
<path d="M 302,430 L 302,454 L 302,453 L 303,452 L 303,444 L 302,443 L 303,442 L 303,434 L 302,433 Z" fill="black" fill-rule="evenodd"/>
<path d="M 73,629 L 125,629 L 130,592 L 157,538 L 178,538 L 192,549 L 191,583 L 216,587 L 229,602 L 229,621 L 245,633 L 294,626 L 311,586 L 498,584 L 507,612 L 531,620 L 529,628 L 486,655 L 492,664 L 483,678 L 329,803 L 304,806 L 304,818 L 327,828 L 367,824 L 375,816 L 370,800 L 531,678 L 602,670 L 606,713 L 618,707 L 614,683 L 631,678 L 773,806 L 762,812 L 767,820 L 818,822 L 839,806 L 808,803 L 664,668 L 629,620 L 634,597 L 589,592 L 591,570 L 603,569 L 607,555 L 1041,557 L 1042,545 L 1045,552 L 1053,543 L 1043,541 L 1204,546 L 1208,514 L 1043,516 L 1041,487 L 1024,487 L 1022,434 L 1007,436 L 1006,484 L 608,486 L 600,465 L 611,433 L 610,441 L 601,423 L 523,421 L 511,432 L 524,450 L 586,448 L 580,476 L 546,475 L 545,464 L 517,461 L 512,475 L 439,475 L 432,457 L 299,457 L 297,426 L 272,427 L 272,375 L 264,374 L 260,444 L 232,442 L 227,475 L 210,474 L 206,489 L 180,492 L 178,507 L 110,503 L 96,512 L 92,529 L 102,552 L 79,591 Z M 612,696 L 613,697 L 613,705 L 612,706 L 611,706 L 610,707 L 608,705 L 608,697 L 609,696 L 610,697 L 611,696 Z M 678,681 L 679,680 L 680,680 L 684,684 L 683,685 L 682,685 Z M 608,674 L 608,671 L 609,670 L 612,670 L 613,671 L 612,672 L 610,672 L 610,673 L 611,674 L 610,675 L 609,675 Z M 504,653 L 506,655 L 505,656 L 504,656 L 501,659 L 499,657 L 503,653 Z M 512,647 L 513,648 L 512,649 L 512,650 L 511,651 L 510,651 L 508,653 L 507,652 L 507,651 L 511,647 Z M 619,604 L 621,602 L 622,602 L 623,603 L 623,605 L 624,605 L 624,603 L 625,602 L 626,602 L 628,604 L 628,607 L 626,609 L 625,609 L 624,610 L 623,610 L 622,609 L 621,609 L 620,608 L 620,607 L 619,606 Z M 521,602 L 522,603 L 522,607 L 520,609 L 517,609 L 516,608 L 517,607 L 519,607 L 520,606 L 520,603 Z M 520,601 L 521,602 L 520,603 L 518,603 L 517,604 L 517,607 L 516,608 L 515,607 L 515,603 L 517,601 Z M 256,600 L 261,595 L 262,595 L 263,596 L 262,595 L 264,593 L 265,593 L 266,594 L 286,594 L 287,595 L 287,597 L 288,597 L 288,596 L 289,595 L 290,596 L 290,597 L 291,598 L 291,615 L 290,616 L 290,618 L 285,623 L 284,623 L 283,624 L 282,624 L 281,625 L 277,625 L 276,626 L 274,626 L 273,625 L 274,624 L 275,624 L 270,624 L 272,624 L 273,625 L 272,626 L 256,626 L 255,625 L 255,623 L 256,622 L 257,623 L 259,623 L 260,622 L 260,619 L 256,615 L 256,614 L 255,613 L 255,611 L 254,610 L 254,605 L 255,604 L 255,602 L 256,601 Z M 240,593 L 241,594 L 241,597 L 242,598 L 245,598 L 246,599 L 246,604 L 245,605 L 244,604 L 244,600 L 243,600 L 243,604 L 244,605 L 243,606 L 244,607 L 244,610 L 244,606 L 245,605 L 246,606 L 246,610 L 247,611 L 247,613 L 248,614 L 248,615 L 250,617 L 249,618 L 250,617 L 253,620 L 252,621 L 252,624 L 251,625 L 247,625 L 246,624 L 244,624 L 243,623 L 242,623 L 238,619 L 238,618 L 237,617 L 237,615 L 238,614 L 239,615 L 239,616 L 239,615 L 238,614 L 237,615 L 236,614 L 236,598 L 238,596 L 239,597 L 239,600 L 239,596 L 238,595 Z M 275,592 L 276,591 L 283,591 L 284,592 L 286,592 L 287,593 L 286,594 L 277,594 Z M 696,538 L 697,539 L 697,544 L 695,546 L 694,546 L 693,545 L 695,543 L 695,539 Z M 796,540 L 797,539 L 797,538 L 798,537 L 799,538 L 801,538 L 802,537 L 804,537 L 805,538 L 806,538 L 807,539 L 807,543 L 805,545 L 800,545 L 799,544 L 798,545 L 796,543 Z M 685,538 L 686,537 L 687,538 L 687,539 L 689,537 L 693,537 L 695,539 L 695,540 L 694,541 L 694,544 L 693,545 L 688,545 L 687,544 L 687,542 L 687,544 L 686,545 L 685,544 L 685,543 L 684,542 L 684,540 L 685,539 Z M 656,541 L 657,540 L 657,538 L 658,537 L 659,538 L 659,539 L 660,538 L 661,538 L 662,537 L 663,537 L 665,539 L 666,539 L 667,540 L 667,543 L 665,545 L 660,545 L 659,546 L 657,544 L 657,543 L 656,542 Z M 908,539 L 909,538 L 909,537 L 910,536 L 911,536 L 912,537 L 916,537 L 917,538 L 917,539 L 918,539 L 919,540 L 919,543 L 917,545 L 912,545 L 911,544 L 911,540 L 910,540 L 910,543 L 909,544 L 908,543 Z M 891,536 L 892,537 L 892,538 L 891,539 L 891,540 L 890,541 L 890,544 L 889,545 L 885,545 L 889,545 L 890,546 L 889,547 L 884,547 L 883,546 L 882,546 L 881,545 L 881,543 L 880,542 L 880,540 L 881,539 L 881,538 L 882,537 L 883,538 L 883,539 L 885,537 L 889,537 L 890,536 Z M 807,536 L 809,538 L 809,544 L 806,547 L 800,547 L 799,546 L 800,545 L 805,545 L 807,543 L 807,539 L 806,538 L 806,537 Z M 751,536 L 753,538 L 753,544 L 750,547 L 744,547 L 742,545 L 743,544 L 744,544 L 745,545 L 749,545 L 751,543 L 751,539 L 750,538 L 750,537 Z M 156,537 L 157,536 L 178,536 L 179,537 L 178,538 L 157,538 Z M 965,536 L 966,535 L 972,535 L 973,536 L 972,537 L 970,537 L 971,538 L 972,538 L 972,537 L 973,536 L 974,537 L 974,538 L 975,539 L 975,544 L 973,546 L 972,546 L 971,545 L 973,543 L 971,545 L 967,545 L 965,543 L 965,540 L 966,539 L 967,539 L 967,538 L 968,537 L 966,537 Z M 939,535 L 945,535 L 946,536 L 945,537 L 943,537 L 944,538 L 946,538 L 947,537 L 948,538 L 948,544 L 945,547 L 939,547 L 938,546 L 939,545 L 944,545 L 940,545 L 938,543 L 938,539 L 939,538 L 940,538 L 941,537 L 939,537 L 938,536 Z M 853,538 L 854,537 L 855,538 L 857,538 L 858,537 L 856,537 L 855,536 L 856,535 L 862,535 L 863,536 L 862,537 L 860,537 L 861,538 L 863,538 L 864,537 L 865,538 L 865,540 L 866,541 L 865,542 L 865,544 L 864,545 L 863,544 L 864,545 L 863,546 L 862,546 L 861,545 L 857,545 L 861,545 L 862,546 L 861,547 L 856,547 L 853,544 Z M 828,535 L 834,535 L 835,536 L 834,537 L 829,537 L 833,537 L 835,539 L 836,539 L 838,541 L 838,542 L 837,543 L 837,544 L 834,547 L 828,547 L 826,545 L 827,544 L 827,539 L 826,540 L 825,539 L 825,538 Z M 799,536 L 800,535 L 806,535 L 807,536 L 806,537 L 800,537 Z M 772,535 L 778,535 L 779,536 L 778,537 L 776,537 L 778,539 L 779,539 L 780,538 L 781,539 L 781,544 L 778,547 L 772,547 L 771,546 L 772,545 L 777,545 L 779,543 L 779,542 L 779,543 L 777,545 L 773,545 L 771,543 L 771,538 L 772,537 L 773,538 L 774,538 L 774,537 L 772,537 L 771,536 Z M 744,535 L 750,535 L 751,536 L 750,537 L 748,537 L 749,537 L 751,539 L 751,541 L 750,542 L 751,543 L 749,545 L 745,545 L 743,543 L 743,542 L 743,544 L 742,545 L 741,544 L 741,538 L 742,537 L 743,538 L 743,540 L 745,538 L 745,537 L 744,537 L 743,536 Z M 716,535 L 722,535 L 723,536 L 722,537 L 720,537 L 722,539 L 723,539 L 724,538 L 725,539 L 725,543 L 724,544 L 724,545 L 723,546 L 722,546 L 721,545 L 722,544 L 721,545 L 717,545 L 714,542 L 715,541 L 715,539 L 716,538 L 717,538 L 718,537 L 716,537 L 715,536 Z M 191,512 L 190,513 L 191,514 L 191,522 L 190,523 L 189,522 L 188,523 L 187,522 L 159,522 L 158,521 L 159,520 L 188,520 L 188,511 L 189,510 Z M 855,507 L 856,506 L 862,506 L 863,507 L 862,508 L 861,508 L 860,509 L 858,509 L 857,508 L 856,508 Z M 799,507 L 800,506 L 806,506 L 807,507 L 806,508 L 804,508 L 803,509 L 802,509 L 801,508 L 800,508 Z M 912,499 L 918,499 L 919,500 L 919,504 L 917,506 L 912,506 L 913,506 L 914,507 L 915,507 L 916,508 L 915,509 L 913,509 L 912,508 L 911,508 L 909,506 L 909,505 L 910,504 L 911,504 L 911,500 Z M 771,500 L 772,499 L 778,499 L 779,500 L 780,499 L 781,500 L 781,505 L 780,506 L 779,505 L 779,504 L 777,506 L 775,506 L 774,505 L 773,506 L 772,506 L 771,505 Z M 740,502 L 741,501 L 741,500 L 742,499 L 743,500 L 743,501 L 743,500 L 744,499 L 750,499 L 751,500 L 751,504 L 749,506 L 748,505 L 747,506 L 745,506 L 743,504 L 743,505 L 742,506 L 741,505 L 741,503 Z M 715,500 L 716,499 L 722,499 L 723,500 L 724,499 L 725,500 L 725,505 L 724,506 L 723,505 L 723,504 L 721,506 L 720,506 L 719,507 L 717,505 L 716,506 L 715,505 Z M 975,500 L 975,505 L 974,506 L 973,505 L 971,505 L 970,506 L 969,506 L 968,505 L 966,505 L 965,504 L 965,500 L 966,499 L 967,499 L 968,500 L 969,500 L 970,499 L 972,499 L 973,498 Z M 948,500 L 948,505 L 947,506 L 946,505 L 944,505 L 943,506 L 941,506 L 940,505 L 939,506 L 938,505 L 938,500 L 939,499 L 945,499 L 946,498 Z M 883,497 L 884,497 L 885,498 L 883,500 L 884,499 L 889,499 L 890,500 L 890,501 L 891,502 L 890,503 L 890,504 L 889,505 L 888,505 L 887,506 L 885,506 L 884,505 L 883,505 L 884,506 L 885,506 L 886,507 L 885,508 L 883,508 L 881,506 L 881,505 L 880,504 L 880,501 L 881,500 L 881,499 Z M 865,499 L 865,500 L 866,501 L 866,503 L 865,504 L 865,505 L 864,506 L 863,505 L 861,505 L 860,506 L 858,506 L 857,505 L 855,505 L 856,506 L 855,507 L 854,507 L 853,506 L 853,499 L 854,498 L 855,499 L 855,500 L 856,499 L 862,499 L 861,498 L 862,497 L 863,497 Z M 656,501 L 657,500 L 657,499 L 659,497 L 660,497 L 661,498 L 660,499 L 666,499 L 667,500 L 668,499 L 669,500 L 669,505 L 668,506 L 667,505 L 664,505 L 663,506 L 661,506 L 660,505 L 659,505 L 661,507 L 660,508 L 659,508 L 657,506 L 657,504 L 656,503 Z M 825,499 L 827,497 L 828,497 L 829,498 L 829,499 L 834,499 L 835,500 L 835,501 L 835,500 L 834,499 L 833,499 L 832,498 L 829,498 L 828,497 L 829,496 L 833,496 L 834,497 L 835,497 L 837,499 L 837,501 L 838,502 L 838,503 L 837,504 L 837,505 L 836,506 L 835,505 L 834,506 L 828,506 L 827,505 L 827,500 L 826,501 L 825,500 Z M 797,499 L 798,498 L 799,499 L 806,499 L 805,499 L 804,498 L 801,498 L 800,497 L 801,496 L 805,496 L 806,497 L 807,497 L 808,498 L 808,499 L 809,500 L 809,505 L 807,507 L 805,505 L 804,506 L 801,506 L 800,505 L 799,505 L 800,506 L 799,507 L 798,507 L 797,506 L 797,505 L 796,504 L 796,501 L 797,500 Z M 685,499 L 687,497 L 688,497 L 689,496 L 692,496 L 693,497 L 692,498 L 690,498 L 690,499 L 694,499 L 695,500 L 694,501 L 694,503 L 695,504 L 695,500 L 696,499 L 697,500 L 697,505 L 695,507 L 694,506 L 688,506 L 687,505 L 688,506 L 687,507 L 686,507 L 685,506 L 685,504 L 684,503 L 684,501 L 685,500 Z M 626,487 L 627,486 L 987,486 L 988,487 L 987,488 L 627,488 Z M 272,458 L 273,457 L 279,457 L 280,456 L 298,456 L 299,457 L 432,457 L 433,458 L 432,459 L 273,459 Z M 252,458 L 254,456 L 256,456 L 257,457 L 260,457 L 261,456 L 262,457 L 262,458 L 261,459 L 253,459 Z M 276,427 L 278,425 L 286,425 L 287,426 L 287,427 L 286,428 L 277,428 Z" fill="black" fill-rule="evenodd"/>
</svg>