<svg xmlns="http://www.w3.org/2000/svg" width="2172" height="724" viewBox="0 0 2172 724">
<rect width="100%" height="100%" fill="white"/>
<path d="M 1191,566 L 1191,574 L 1192,575 L 1192,583 L 1192,575 L 1193,574 L 1193,567 L 1192,567 Z" fill="black" fill-rule="evenodd"/>
<path d="M 1195,495 L 1195,515 L 1196,516 L 1197,516 L 1197,501 L 1196,500 L 1196,496 Z" fill="black" fill-rule="evenodd"/>
<path d="M 1200,422 L 1199,423 L 1199,433 L 1200,434 L 1200,435 L 1201,436 L 1201,443 L 1201,427 L 1202,426 L 1202,424 L 1202,426 L 1201,427 L 1200,426 Z" fill="black" fill-rule="evenodd"/>
<path d="M 1302,377 L 1301,377 L 1301,383 L 1300,384 L 1300,388 L 1301,389 L 1301,390 L 1301,387 L 1302,386 Z" fill="black" fill-rule="evenodd"/>
<path d="M 1204,343 L 1204,347 L 1203,348 L 1203,356 L 1205,358 L 1205,363 L 1205,353 L 1206,352 L 1206,349 L 1204,347 Z" fill="black" fill-rule="evenodd"/>
<path d="M 1314,289 L 1313,290 L 1313,292 L 1312,293 L 1312,296 L 1314,298 L 1314,300 L 1315,301 L 1314,302 L 1314,305 L 1315,304 L 1315,300 L 1314,299 L 1314,297 L 1315,296 L 1315,290 Z" fill="black" fill-rule="evenodd"/>
<path d="M 1591,240 L 1601,240 L 1602,241 L 1602,243 L 1603,244 L 1603,245 L 1604,246 L 1605,245 L 1605,242 L 1603,240 Z" fill="black" fill-rule="evenodd"/>
<path d="M 633,186 L 633,187 L 632,188 L 631,187 L 630,187 L 630,199 L 630,198 L 631,197 L 632,198 L 632,203 L 631,204 L 632,205 L 632,208 L 631,209 L 632,210 L 632,211 L 631,212 L 629,212 L 632,212 L 632,190 L 633,189 Z" fill="black" fill-rule="evenodd"/>
<path d="M 1999,146 L 1999,147 L 1998,148 L 1998,151 L 1997,152 L 1998,153 L 1998,158 L 1997,159 L 1997,166 L 1998,167 L 1998,170 L 1997,171 L 1997,172 L 1998,171 L 1999,171 Z" fill="black" fill-rule="evenodd"/>
<path d="M 60,312 L 64,305 L 82,473 L 101,489 L 136,490 L 127,489 L 172,480 L 498,312 L 512,314 L 545,289 L 574,288 L 634,259 L 644,278 L 753,268 L 774,337 L 678,485 L 776,528 L 852,389 L 871,379 L 900,394 L 968,391 L 988,377 L 990,346 L 1014,351 L 1155,280 L 1202,268 L 1194,295 L 1211,305 L 1194,593 L 1285,599 L 1302,309 L 1327,269 L 1423,277 L 1425,268 L 1800,268 L 1815,255 L 2000,259 L 2012,240 L 2113,241 L 2114,211 L 2012,210 L 1988,134 L 1964,138 L 1961,174 L 1947,195 L 1815,195 L 1795,180 L 1425,181 L 1423,172 L 1273,179 L 1272,151 L 1269,180 L 1267,149 L 1255,138 L 1233,141 L 1223,168 L 1191,169 L 1188,181 L 729,181 L 709,123 L 704,168 L 693,180 L 690,172 L 644,173 L 634,180 L 633,215 L 99,254 L 65,270 Z M 872,341 L 874,337 L 875,340 L 874,337 L 875,333 L 876,332 L 877,333 L 879,331 L 882,331 L 879,328 L 883,325 L 886,324 L 898,324 L 900,326 L 902,334 L 901,337 L 901,358 L 903,365 L 909,374 L 907,377 L 910,376 L 913,379 L 918,380 L 921,376 L 917,369 L 917,365 L 915,361 L 915,353 L 916,352 L 917,355 L 918,354 L 919,355 L 919,362 L 918,363 L 920,362 L 919,361 L 920,360 L 919,356 L 920,349 L 919,348 L 918,350 L 916,348 L 916,344 L 923,331 L 925,329 L 927,330 L 926,331 L 928,331 L 926,329 L 931,324 L 971,324 L 974,326 L 973,327 L 970,326 L 932,326 L 970,326 L 973,327 L 975,329 L 974,330 L 976,330 L 978,332 L 979,331 L 980,332 L 979,334 L 980,333 L 981,336 L 980,337 L 980,351 L 978,356 L 979,357 L 978,360 L 979,357 L 980,358 L 980,364 L 980,337 L 981,336 L 982,337 L 982,354 L 983,355 L 982,365 L 979,371 L 978,370 L 979,372 L 977,375 L 974,372 L 977,375 L 975,378 L 974,377 L 970,378 L 972,379 L 971,380 L 972,381 L 970,383 L 965,382 L 967,384 L 964,386 L 959,385 L 961,385 L 962,386 L 961,387 L 895,387 L 894,386 L 897,385 L 891,386 L 885,383 L 879,378 L 881,375 L 877,375 L 875,373 L 874,369 L 877,366 L 877,345 L 878,342 L 877,339 L 875,347 L 874,346 L 874,342 L 874,350 L 875,347 L 877,349 L 877,359 L 876,360 L 877,363 L 876,364 L 874,363 L 874,358 L 874,364 L 873,365 L 872,364 Z M 540,255 L 540,266 L 532,272 L 529,271 L 525,276 L 520,276 L 522,277 L 514,282 L 512,281 L 513,279 L 508,282 L 504,277 L 487,285 L 488,293 L 484,298 L 477,299 L 477,301 L 471,304 L 468,303 L 470,304 L 463,308 L 460,307 L 462,308 L 460,310 L 451,312 L 448,316 L 437,321 L 435,320 L 430,325 L 419,330 L 417,329 L 414,333 L 403,338 L 401,337 L 401,339 L 372,354 L 366,354 L 368,355 L 335,372 L 333,371 L 333,373 L 329,373 L 329,375 L 327,374 L 327,376 L 325,375 L 325,377 L 323,376 L 323,378 L 315,382 L 311,381 L 314,382 L 307,386 L 303,385 L 306,386 L 298,390 L 295,389 L 293,393 L 281,399 L 280,397 L 275,402 L 269,402 L 265,407 L 264,405 L 261,406 L 261,409 L 258,410 L 258,408 L 252,411 L 253,413 L 248,413 L 244,415 L 245,417 L 238,418 L 228,423 L 230,424 L 225,427 L 222,426 L 224,427 L 219,428 L 216,432 L 214,430 L 214,433 L 211,432 L 210,435 L 200,440 L 197,439 L 199,440 L 185,445 L 184,448 L 181,447 L 183,448 L 178,451 L 175,450 L 177,451 L 170,455 L 167,454 L 169,455 L 153,464 L 134,464 L 131,462 L 134,461 L 129,461 L 128,458 L 130,457 L 127,457 L 123,451 L 122,453 L 119,448 L 118,440 L 121,424 L 118,440 L 108,359 L 109,350 L 111,363 L 113,357 L 112,351 L 111,357 L 109,349 L 107,350 L 101,305 L 104,288 L 108,283 L 112,283 L 111,280 L 116,276 L 131,273 L 524,244 L 533,246 L 535,248 L 532,250 L 536,249 Z M 1816,238 L 1817,239 L 1817,245 L 1816,246 L 1815,245 L 1815,239 Z M 1669,242 L 1671,239 L 1672,239 L 1673,240 L 1672,241 L 1673,240 L 1683,240 L 1673,240 L 1672,239 L 1673,238 L 1746,238 L 1747,239 L 1748,239 L 1750,241 L 1750,246 L 1748,248 L 1747,248 L 1746,247 L 1747,246 L 1746,247 L 1674,247 L 1746,247 L 1747,248 L 1746,249 L 1673,249 L 1672,248 L 1671,248 L 1669,246 Z M 1526,241 L 1528,239 L 1529,239 L 1530,240 L 1529,241 L 1530,240 L 1531,241 L 1532,240 L 1534,240 L 1530,240 L 1529,239 L 1530,238 L 1604,238 L 1607,241 L 1607,246 L 1605,248 L 1604,248 L 1603,249 L 1530,249 L 1529,248 L 1530,247 L 1602,247 L 1533,247 L 1532,246 L 1529,246 L 1528,245 L 1527,246 L 1526,245 Z M 1924,231 L 1925,230 L 1925,229 L 1926,228 L 1927,229 L 1928,229 L 1929,230 L 1928,231 L 1932,231 L 1933,232 L 1932,233 L 1927,233 L 1926,232 L 1925,232 Z M 1923,221 L 1924,222 L 1924,228 L 1923,229 L 1922,228 L 1922,222 Z M 1840,223 L 1841,222 L 1841,221 L 1842,220 L 1843,221 L 1844,221 L 1845,220 L 1846,220 L 1847,221 L 1850,221 L 1851,220 L 1853,222 L 1854,221 L 1855,222 L 1855,228 L 1854,229 L 1853,228 L 1853,227 L 1851,229 L 1846,229 L 1845,230 L 1844,230 L 1845,231 L 1844,232 L 1843,232 L 1841,230 L 1841,229 L 1840,228 Z M 1924,219 L 1925,219 L 1926,218 L 1927,218 L 1928,217 L 1931,217 L 1932,218 L 1933,218 L 1934,219 L 1935,219 L 1936,220 L 1936,221 L 1937,222 L 1937,227 L 1936,228 L 1936,229 L 1934,231 L 1933,230 L 1929,230 L 1927,228 L 1927,227 L 1926,226 L 1926,225 L 1927,224 L 1927,222 L 1926,222 L 1925,221 L 1924,222 L 1923,221 L 1923,220 Z M 1883,219 L 1884,219 L 1885,218 L 1886,218 L 1887,217 L 1890,217 L 1891,218 L 1892,218 L 1893,219 L 1894,219 L 1895,220 L 1895,221 L 1894,222 L 1894,223 L 1894,222 L 1895,221 L 1896,222 L 1896,224 L 1897,225 L 1896,226 L 1896,228 L 1895,229 L 1894,228 L 1894,225 L 1893,225 L 1892,224 L 1892,222 L 1891,223 L 1891,224 L 1892,225 L 1891,226 L 1892,227 L 1892,228 L 1893,229 L 1893,230 L 1894,231 L 1893,232 L 1892,232 L 1891,231 L 1886,231 L 1885,230 L 1884,230 L 1883,231 L 1882,230 L 1882,229 L 1881,228 L 1881,222 L 1882,221 L 1882,220 Z M 2012,211 L 2013,212 L 2013,235 L 2012,236 L 2011,235 L 2011,212 Z M 933,217 L 934,216 L 934,215 L 937,212 L 938,212 L 939,211 L 1068,211 L 1070,213 L 1068,215 L 1070,215 L 1071,214 L 1073,216 L 1073,221 L 1071,223 L 1068,222 L 1068,224 L 1067,225 L 1060,225 L 1067,225 L 1068,224 L 1069,224 L 1070,225 L 1068,227 L 939,227 L 938,226 L 939,225 L 944,225 L 939,225 L 938,226 L 937,226 L 935,224 L 936,223 L 935,224 L 934,223 L 934,221 L 933,220 Z M 1816,206 L 1817,207 L 1817,213 L 1816,214 L 1815,213 L 1815,207 Z M 1669,204 L 1672,201 L 1674,201 L 1675,200 L 1699,200 L 1700,201 L 1714,201 L 1715,200 L 1723,200 L 1724,201 L 1736,201 L 1737,200 L 1745,200 L 1746,201 L 1747,201 L 1750,204 L 1750,208 L 1749,209 L 1748,208 L 1747,209 L 1745,209 L 1744,210 L 1741,210 L 1745,210 L 1746,211 L 1745,212 L 1675,212 L 1674,211 L 1675,210 L 1678,210 L 1677,210 L 1676,209 L 1675,209 L 1675,210 L 1674,211 L 1672,211 L 1670,209 L 1670,208 L 1669,207 Z M 1526,204 L 1529,201 L 1530,201 L 1531,200 L 1566,200 L 1567,201 L 1580,201 L 1581,200 L 1602,200 L 1603,201 L 1604,201 L 1607,204 L 1607,208 L 1606,209 L 1604,207 L 1604,204 L 1603,204 L 1603,209 L 1604,209 L 1605,210 L 1604,211 L 1603,211 L 1602,212 L 1532,212 L 1531,211 L 1532,210 L 1533,210 L 1532,209 L 1530,209 L 1528,207 L 1528,206 L 1528,207 L 1527,208 L 1526,207 Z" fill="black" fill-rule="evenodd"/>
</svg>