<?xml version="1.0" encoding="UTF-8" standalone="no"?>
<svg
   width="1000"
   height="250"
   viewBox="0 0 1000 250"
   version="1.1"
   id="svg10"
   sodipodi:docname="canadian_sten_mk_ii_black.svg"
   inkscape:version="1.4.2 (f4327f4, 2025-05-13)"
   xmlns:inkscape="http://www.inkscape.org/namespaces/inkscape"
   xmlns:sodipodi="http://sodipodi.sourceforge.net/DTD/sodipodi-0.dtd"
   xmlns="http://www.w3.org/2000/svg"
   xmlns:svg="http://www.w3.org/2000/svg">
  <defs
     id="defs10" />
  <sodipodi:namedview
     id="namedview10"
     pagecolor="#ffffff"
     bordercolor="#000000"
     borderopacity="0.25"
     inkscape:showpageshadow="2"
     inkscape:pageopacity="0.0"
     inkscape:pagecheckerboard="0"
     inkscape:deskcolor="#d1d1d1"
     inkscape:zoom="0.55616943"
     inkscape:cx="650.88079"
     inkscape:cy="551.09106"
     inkscape:window-width="2560"
     inkscape:window-height="1377"
     inkscape:window-x="-8"
     inkscape:window-y="-8"
     inkscape:window-maximized="1"
     inkscape:current-layer="svg10" />
  <path
     d="m 551.54187,222.05065 v 3.76937 l 0.47118,0.47118 v 3.76938 -3.76938 l 0.47117,-0.47118 v -3.2982 h -0.47117 z"
     fill="#000000"
     fill-rule="evenodd"
     id="path1"
     style="stroke-width:0.471173" />
  <path
     d="m 553.42656,188.59739 v 9.42345 l 0.47117,0.47118 h 0.47118 v -7.06759 l -0.47118,-0.47117 v -1.88469 z"
     fill="#000000"
     fill-rule="evenodd"
     id="path2"
     style="stroke-width:0.471173" />
  <path
     d="m 555.78242,154.20179 -0.47117,0.47117 v 4.71173 l 0.47117,0.47117 v 0.47118 l 0.47117,0.47117 v 3.29821 -7.53876 l 0.47118,-0.47117 v -0.94235 0.94235 l -0.47118,0.47117 -0.47117,-0.47117 z"
     fill="#000000"
     fill-rule="evenodd"
     id="path3"
     style="stroke-width:0.471173" />
  <path
     d="m 603.84203,132.99903 h -0.47117 v 2.82703 l -0.47118,0.47117 v 1.8847 l 0.47118,0.47117 v 0.47117 -1.41351 l 0.47117,-0.47118 z"
     fill="#000000"
     fill-rule="evenodd"
     id="path4"
     style="stroke-width:0.471173" />
  <path
     d="m 557.66712,116.97916 v 1.88469 l -0.47118,0.47117 v 3.76938 l 0.94235,0.94235 v 2.35586 -4.71173 l 0.47117,-0.47117 v -1.41351 l -0.94234,-0.94235 z"
     fill="#000000"
     fill-rule="evenodd"
     id="path5"
     style="stroke-width:0.471173" />
  <path
     d="m 609.49609,91.535848 -0.47117,0.47117 v 0.94234 l -0.47117,0.47117 v 1.41352 l 0.94234,0.94234 v 0.94235 l 0.47118,0.47118 -0.47118,0.47117 v 1.41351 l 0.47118,-0.47117 v -1.88469 l -0.47118,-0.47118 v -0.94234 l 0.47118,-0.47117 v -2.82703 z"
     fill="#000000"
     fill-rule="evenodd"
     id="path6"
     style="stroke-width:0.471173" />
  <path
     d="m 740.0109,68.448383 h 4.71173 l 0.47117,0.471172 v 0.942344 l 0.47117,0.471172 v 0.471172 l 0.47117,0.471185 0.47117,-0.471185 v -1.413516 l -0.94234,-0.942344 z"
     fill="#000000"
     fill-rule="evenodd"
     id="path7"
     style="stroke-width:0.471173" />
  <path
     d="m 288.62757,43.005063 v 0.471172 l -0.47117,0.471172 -0.47117,-0.471172 h -0.47117 v 5.654072 -0.471172 l 0.47117,-0.471172 0.47117,0.471172 v 2.35586 l -0.47117,0.47118 0.47117,0.471172 v 1.413516 l -0.47117,0.471172 0.47117,0.471172 v 0.471172 l -0.47117,0.471172 h -0.94235 1.41352 v -10.3658 l 0.47117,-0.471172 z"
     fill="#000000"
     fill-rule="evenodd"
     id="path8"
     style="stroke-width:0.471173" />
  <path
     d="m 932.24929,24.158159 v 0.471172 l -0.47112,0.471172 v 1.413524 l -0.47121,0.471172 0.47121,0.471172 v 2.35586 l -0.47121,0.471172 v 3.298212 l 0.47121,0.471172 v 1.413516 l -0.47121,0.471172 v 0.471172 l 0.47121,-0.471172 h 0.47112 z"
     fill="#000000"
     fill-rule="evenodd"
     id="path9"
     style="stroke-width:0.471173" />
  <path
     d="m 18.645695,102.37281 1.88469,-3.298212 8.481107,79.157002 8.952279,7.53876 16.491036,0.47117 -4.24055,-0.47117 21.202766,-4.24056 153.602257,-79.15699 6.59642,0.94234 15.54869,-11.779302 13.664,-0.47118 28.27035,-13.66401 4.71173,8.95229 51.35781,-4.71173 9.89463,32.510902 -45.23257,69.73355 46.17492,20.26042 35.80911,-65.49299 8.95228,-4.71173 13.66401,7.06759 32.03973,-1.41352 9.42345,-6.59641 0.94234,-14.60635 11.30815,2.35586 66.43533,-33.453252 22.14511,-5.65407 -3.76938,12.72166 8.00993,4.71172 -8.00993,135.697712 42.8767,2.82703 8.00994,-136.64005 11.77931,-18.846902 45.23257,3.76938 0.94234,-4.24055 h 176.68976 l 7.06758,-6.12525 87.1669,1.88469 5.65405,-8.952275 47.58849,0.471172 0.47112,-14.135176 -48.05961,-0.471172 -11.30809,-35.80912 -11.30818,1.884696 -1.41353,16.962208 -6.59638,9.894628 h -62.19477 l -9.42344,-7.067588 -174.3339,0.471172 -0.94234,-4.240556 -70.67588,3.298212 -0.47118,-13.192832 -1.41352,13.664004 -0.94234,-14.606348 -5.65408,-5.1829 -10.36579,1.413516 -4.71173,12.72166 -15.07752,0.471172 -1.41352,5.654072 H 333.86014 l -9.42345,-27.328008 -2.35587,21.202764 -5.18289,5.654072 -1.41352,-3.769384 -21.67394,0.471172 -4.71173,3.298212 -0.47117,16.491036 -251.606145,18.375731 -16.019867,7.53876 z m 382.592125,13.664 0.94235,-1.88469 0.47117,1.41352 -0.47117,-1.41352 0.47117,-1.88468 0.47117,-0.47118 0.47117,0.47118 0.94235,-0.94235 h 1.41351 l -1.41351,-1.41352 1.88469,-1.41352 1.41352,-0.47117 h 5.65406 l 0.94236,0.94234 0.94234,3.76939 -0.47117,1.41351 v 9.89463 l 0.94234,3.29821 2.82703,4.24055 -0.94234,1.41352 1.41352,-0.47117 1.41352,1.41351 2.35586,0.47117 1.41352,-1.88468 -1.88469,-3.29822 v -1.88468 l -0.94235,-1.88469 v -3.76939 l 0.47118,-0.47117 0.47117,1.41352 0.47117,-0.47117 0.47117,0.47117 v 3.29821 l -0.47117,0.47117 0.94234,-0.47117 -0.47117,-0.47117 0.47117,-0.47117 -0.47117,-1.8847 0.47117,-3.2982 -0.47117,-0.47118 -0.47117,0.94235 -0.94234,-0.94235 v -1.88468 l 3.2982,-6.12525 0.94234,-0.94234 0.94236,0.47117 -0.47118,0.47117 h 0.94235 l -0.94235,-0.94234 2.35586,-2.35587 h 18.84691 l 1.41351,0.94234 -0.47117,0.47118 -1.41351,-0.47118 h -17.90456 17.90456 l 1.41351,0.47118 0.94235,0.94235 -0.47118,0.47117 h 0.94235 l 0.94234,0.94234 0.47117,-0.47117 0.47118,0.47117 -0.47118,0.94235 0.47118,-0.47117 0.47117,1.41351 -0.47117,0.47117 v 6.59642 l -0.94235,2.35586 0.47117,0.47118 -0.47117,1.41352 0.47117,-1.41352 0.47118,0.47117 v 2.82703 -12.72166 l 0.47117,-0.47117 0.47118,0.47117 v 8.00994 l 0.47117,0.47117 -0.47117,4.71173 -1.41353,2.82704 -0.47117,-0.47118 0.47117,0.94235 -0.94234,1.41351 -1.41352,-1.41351 1.41352,1.41351 -0.94234,1.41352 -0.47118,-0.47117 -1.88468,0.47117 0.94234,0.47117 -0.47117,0.47117 0.47117,0.47118 -0.94234,0.94234 -2.35587,-0.47117 0.94234,0.94234 -1.41351,0.94235 -2.35586,-0.47117 h 0.94234 l 0.47117,0.47117 -0.47117,0.47118 h -31.09739 l -0.47117,-0.47118 1.41351,-0.47117 -2.82703,0.47117 -2.82703,-1.41352 -2.82704,-2.35586 0.94234,-1.41352 h -1.88469 l -0.94234,-0.94234 -0.47117,-1.8847 1.41351,-1.41351 v -9.89462 l 0.47118,-1.41353 -0.47118,-1.41351 -0.94234,3.76938 -0.47117,-0.47117 v -1.8847 3.76939 l 0.47117,-1.41352 0.94234,0.94235 v 4.71172 l -0.47117,0.47118 0.47117,1.41351 -0.47117,0.47117 -0.94234,-0.47117 v -2.35586 2.82703 l -0.47117,0.47118 -0.47118,-0.47118 z M 244.80853,75.515968 v 5.1829 l -3.76939,2.82703 -1.41351,-0.47117 -1.88469,2.35587 h -2.35587 l 0.94235,0.47117 -3.76938,2.35586 -0.94234,-0.47117 0.47117,-0.94234 -2.35587,1.41351 -1.88469,-2.35586 -8.00993,3.76938 0.47117,3.76938 -1.88468,2.35586 -3.29822,0.47117 v 0.94236 l -2.82703,1.41351 -1.41352,-0.47117 0.94235,0.47117 -3.29821,1.884692 -1.41352,-0.47117 0.94235,0.47117 -0.94235,0.94234 -4.24055,0.94235 -1.41352,1.88469 -5.1829,2.35586 -0.94234,-0.47117 -2.35586,2.35586 -5.1829,2.35587 -0.94235,-0.47117 -1.41351,1.88469 -5.1829,2.35586 -0.94235,-0.47118 v 0.94235 l -13.664,7.06759 h -2.82704 l 0.94234,0.47117 -15.54869,8.00994 -0.94234,-0.47117 v 0.94234 h -1.8847 v 0.94234 l -0.94234,-0.47117 v 0.94235 l -0.94234,-0.47118 v 0.94235 l -0.94235,-0.47117 v 0.94234 l -3.76938,1.88469 -1.88469,-0.47117 1.41352,0.47117 -3.29821,1.88469 -1.88469,-0.47117 1.41352,0.47117 -3.76938,1.88469 -1.41352,-0.47117 -0.94234,1.88469 -5.65408,2.82704 -0.47117,-0.94235 -2.35586,2.35586 h -2.82704 l -1.88469,2.35586 -0.47117,-0.94234 -1.41351,0.47117 v 1.41352 l -1.41353,0.47117 v -0.94234 l -2.82703,1.41351 0.47117,0.94235 h -2.35586 l -1.88469,0.94235 0.47117,0.94234 -3.29821,0.47117 -4.711724,2.35586 0.942344,0.47118 -2.355859,1.41352 -1.413516,-0.47117 0.942344,0.47117 -2.355869,0.47117 -1.413516,1.88469 -0.942344,-0.94234 v 1.41351 l -1.413515,-0.47117 -0.471172,1.41352 -4.711728,2.35586 -1.413516,-0.47118 0.942344,0.47118 -6.596416,2.35586 -0.471172,1.41352 -1.413516,-0.47117 0.942344,0.47117 -2.35586,1.41352 -1.413524,-0.47118 0.942344,0.47118 -3.298204,1.88469 -1.413516,-0.47117 0.942344,0.47117 -7.53876,4.24055 h -8.952284 l -1.413516,-0.94234 1.413516,-0.47118 h -2.35586 l -0.471173,-1.41351 0.942345,-0.47117 h -1.413518 l -1.88469,-2.82704 -0.471172,0.94234 -1.413518,-2.35586 -0.471173,-3.76938 1.413518,-7.53876 -1.413518,7.53876 -4.711725,-38.16498 0.471172,-4.24055 0.942345,6.12524 0.942345,-2.82703 -0.471172,-2.82704 -0.471173,2.82704 -0.942345,-3.76938 -0.942345,0.47117 -2.827035,-21.202772 1.413517,-8.00993 1.884691,-2.35587 h 1.88469 l -0.471173,-1.41351 2.355863,-1.88469 7.067588,-1.41352 185.170813,-13.664007 4.24056,0.942357 0.94234,0.94234 -1.41352,0.94234 1.88469,-0.47117 z m 601.21618,-8.009929 0.4712,0.471172 v 2.827032 l -0.4712,0.471185 -0.47112,-0.471185 v -2.827032 z m -69.26235,1.884688 0.94235,-1.413516 h 0.47117 l 0.47117,0.471172 -0.47117,0.471172 0.47117,-0.471172 h 4.71173 -4.71173 l -0.47117,-0.471172 0.47117,-0.471172 h 34.39562 l 0.47112,0.471172 h 0.47121 l 0.94232,0.942344 v 2.355873 l -0.94232,0.94234 h -0.47121 l -0.47112,-0.47117 0.47112,-0.47117 -0.47112,0.47117 h -33.92445 33.92445 l 0.47112,0.47117 -0.47112,0.47117 h -34.39562 l -0.47117,-0.47117 h -0.47117 l -0.94235,-0.94234 z m -67.37767,-0.471172 0.94234,-0.942344 h 0.47117 l 0.47117,0.471172 -0.47117,0.471172 0.47117,-0.471172 0.47118,0.471172 0.47117,-0.471172 h 0.94234 -1.88469 l -0.47117,-0.471172 0.47117,-0.471172 h 34.86677 l 1.41353,1.413516 v 2.355873 l -0.94236,0.94234 h -0.47117 l -0.47117,0.47117 h -34.3956 l -0.47117,-0.47117 0.47117,-0.47117 h 33.92443 -32.51091 l -0.47117,-0.47117 h -1.41352 l -0.47117,-0.471185 -0.47117,0.471185 -0.47117,-0.471185 z m 187.5267,-4.711728 0.47112,-0.471172 v -0.471172 l 0.47121,-0.471172 0.4712,0.471172 h 0.47112 l 0.47121,0.471172 -0.47121,0.471172 h 1.88474 l 0.47112,0.47118 -0.47112,0.471172 h -2.35586 l -0.4712,-0.471172 h -0.47121 z m -0.47121,-4.71172 0.47121,0.471172 v 2.827032 l -0.47121,0.471172 -0.47112,-0.471172 v -2.827032 z m -39.10729,0.942344 0.47112,-0.471172 v -0.471172 l 0.4712,-0.471172 0.47121,0.471172 h 0.47112 l 0.47121,-0.471172 h 0.47112 l 0.4712,0.471172 h 1.41353 l 0.47121,-0.471172 0.94233,0.942344 0.47112,-0.471172 0.4712,0.471172 v 2.827032 l -0.4712,0.471172 -0.47112,-0.471172 v -0.471172 l -0.94233,0.942344 h -2.35594 l -0.47112,0.471172 h -0.47121 l 0.47121,0.471172 -0.47121,0.47118 h -0.47112 l -0.94241,-0.942352 v -0.471172 l -0.47112,-0.471172 z m 39.5785,-1.884688 h 0.47112 l 0.47121,-0.471172 h 0.4712 l 0.47112,-0.47118 h 1.41354 l 0.4712,0.47118 h 0.47112 l 0.47121,0.471172 h 0.4712 l 0.47113,0.471172 v 0.471172 l 0.4712,0.471172 v 2.35586 l -0.4712,0.471172 v 0.471172 l -0.94233,0.942344 -0.47121,-0.471172 h -1.88465 l -0.94233,-0.942344 v -0.471172 l -0.4712,-0.471172 v -0.471172 l 0.4712,-0.471172 v -0.942344 h -0.4712 l -0.47121,-0.471172 -0.47112,0.471172 -0.47121,-0.471172 v -0.471172 z m -19.31809,0 h 0.4712 l 0.47112,-0.471172 h 0.47121 l 0.47112,-0.47118 h 1.41353 l 0.47121,0.47118 h 0.47113 l 0.4712,0.471172 h 0.47121 l 0.47112,0.471172 v 0.471172 l -0.47112,0.471172 v 0.471172 -0.471172 l 0.47112,-0.471172 0.47121,0.471172 v 0.942344 l 0.47112,0.471172 -0.47112,0.471172 v 0.942344 l -0.47121,0.471172 -0.47112,-0.471172 v -1.413516 h -0.47121 l -0.4712,-0.471172 v -0.942344 l -0.47113,0.471172 v 0.471172 l 0.47113,0.471172 -0.47113,0.471172 0.47113,0.471172 v 0.471172 l 0.4712,0.471172 v 0.471172 l 0.47121,0.471172 -0.47121,0.47118 h -0.4712 l -0.47113,-0.47118 h -2.35586 l -0.47121,-0.471172 h -0.47112 l -0.4712,0.471172 -0.47121,-0.471172 v -0.471172 l -0.47112,-0.471172 v -2.827032 l 0.47112,-0.471172 v -0.471172 z m 60.78124,-3.769384 0.4712,0.471172 v 10.836972 l -0.4712,0.471172 -0.47112,-0.471172 V 55.255551 Z m -508.39519,2.827032 0.47117,-0.471172 v -0.471172 l 1.41352,-1.413516 h 0.47117 l 0.47117,-0.471172 h 60.78127 l 0.94234,0.942344 -0.94234,0.942344 h 0.94234 l 0.47117,-0.471172 0.94235,0.942344 v 2.355868 l -0.94235,0.942344 -1.41351,-0.471172 v 0.942344 l -0.47117,0.471172 h -3.29822 3.29822 l 0.47117,-0.471172 h 0.47117 l 0.47117,0.471172 -0.94234,0.942344 h -60.78127 l -0.47117,-0.471172 0.47117,-0.471172 h 2.35587 -2.35587 l -0.47117,0.471172 h -0.47117 l -0.94235,-0.942344 0.47117,-0.471172 -0.47117,0.471172 -0.47117,-0.471172 v -0.942344 l -0.47117,-0.471172 z m 416.04536,-5.182892 0.4712,0.471172 v 2.827032 l -0.4712,0.471172 -0.47112,-0.471172 v -2.827032 z m -69.26235,-0.942344 1.41352,-1.413524 h 0.94234 l 0.47118,-0.471172 h 11.30814 l 0.47117,0.471172 h 6.59639 l 0.47121,-0.471172 h 3.76939 l 0.47112,0.471172 h 5.65413 l 0.47112,-0.471172 h 3.76939 l 0.47121,0.471172 h 0.47112 l 1.41353,1.413524 v 1.884688 l -0.47112,0.471172 -0.4712,-0.471172 -0.47121,0.471172 h -0.94233 l -0.47112,0.471172 h -1.41353 1.88465 l 0.47121,0.471172 -0.47121,0.471172 H 779.5894 l -0.47118,-0.471172 0.47118,-0.471172 h 1.41352 -0.47117 l -0.47118,-0.471172 h -0.47117 v 0.471172 l -0.47118,0.471172 h -0.94234 l -0.94235,-0.942344 v -0.471172 l -0.47117,-0.471172 z m -67.37767,0 1.41351,-1.413524 h 0.47117 l 0.47118,-0.471172 h 16.49104 l 0.47117,0.471172 h 6.12525 l 0.47117,-0.471172 h 9.89462 l 0.47117,0.471172 h 0.47117 l 1.41353,1.413524 v 1.884688 l -0.47118,0.471172 -0.94235,-0.942344 v -1.413516 h -0.47117 v 2.35586 h 0.47117 l 0.47117,0.471172 -0.47117,0.471172 h -0.47117 l -0.47117,0.471172 h -32.98208 l -0.47117,-0.471172 0.47117,-0.471172 h 0.47117 l -0.47117,-0.471172 h -0.94235 l -0.94234,-0.942344 v -0.471172 0.471172 l -0.47117,0.471172 -0.47117,-0.471172 z"
     fill="#000000"
     fill-rule="evenodd"
     id="path10"
     style="stroke-width:0.471173" />
</svg>
