<svg xmlns="http://www.w3.org/2000/svg" width="1448" height="1086" viewBox="0 0 1448 1086">
<rect width="100%" height="100%" fill="white"/>
<path d="M 116,630 L 152,658 L 148,675 L 158,690 L 157,699 L 182,726 L 190,725 L 208,738 L 221,738 L 231,747 L 241,746 L 246,753 L 266,755 L 276,764 L 287,763 L 303,774 L 315,773 L 320,780 L 341,781 L 343,786 L 354,787 L 358,782 L 377,787 L 384,782 L 429,786 L 440,781 L 442,786 L 454,786 L 457,781 L 468,786 L 479,786 L 482,781 L 505,786 L 508,781 L 523,781 L 526,786 L 546,781 L 551,785 L 597,781 L 603,786 L 617,781 L 628,785 L 656,781 L 660,786 L 674,781 L 685,785 L 700,781 L 711,785 L 725,781 L 736,785 L 751,781 L 761,785 L 776,781 L 785,785 L 800,781 L 809,785 L 822,781 L 831,785 L 846,781 L 856,785 L 871,781 L 881,785 L 896,781 L 907,785 L 921,781 L 931,785 L 946,781 L 956,785 L 972,781 L 983,785 L 997,781 L 1009,785 L 1023,781 L 1033,785 L 1047,781 L 1058,785 L 1072,781 L 1119,785 L 1129,780 L 1138,784 L 1154,775 L 1163,777 L 1172,768 L 1189,767 L 1202,757 L 1213,758 L 1223,749 L 1239,748 L 1244,741 L 1258,741 L 1273,730 L 1288,728 L 1317,693 L 1314,686 L 1320,662 L 1314,650 L 1345,649 L 1350,656 L 1358,654 L 1345,632 L 1345,606 L 1359,603 L 1362,532 L 1341,531 L 1339,516 L 1320,516 L 1318,523 L 1292,523 L 1291,501 L 1241,497 L 1239,485 L 1220,485 L 1218,497 L 1119,495 L 1115,501 L 1096,501 L 1089,495 L 1052,495 L 1049,482 L 1029,483 L 1028,495 L 962,495 L 959,501 L 498,501 L 492,485 L 438,479 L 404,486 L 391,517 L 274,551 L 267,548 L 273,543 L 271,536 L 254,534 L 252,543 L 260,548 L 255,555 L 142,579 Z M 808,772 L 809,771 L 825,771 L 826,772 L 825,773 L 809,773 Z M 355,772 L 356,771 L 369,771 L 370,772 L 368,774 L 359,774 L 358,773 L 356,773 Z M 529,771 L 528,772 L 527,772 L 526,773 L 507,773 L 506,772 L 507,771 L 524,771 L 525,770 L 528,770 Z M 1131,770 L 1130,771 L 1128,771 L 1127,772 L 1119,772 L 1118,771 L 1119,770 L 1126,770 L 1127,769 L 1130,769 Z M 1093,769 L 1094,768 L 1095,768 L 1096,769 L 1100,769 L 1101,770 L 1109,770 L 1110,771 L 1109,772 L 1094,772 L 1093,771 Z M 985,769 L 984,770 L 984,771 L 983,772 L 982,771 L 981,772 L 973,772 L 972,771 L 973,770 L 978,770 L 979,769 L 982,769 L 983,768 L 984,768 Z M 943,771 L 944,770 L 945,770 L 944,769 L 945,768 L 946,768 L 947,769 L 950,769 L 951,770 L 958,770 L 959,771 L 958,772 L 944,772 Z M 796,769 L 797,768 L 798,768 L 799,769 L 802,769 L 803,770 L 808,770 L 809,771 L 808,772 L 797,772 L 796,771 Z M 639,765 L 640,764 L 641,764 L 642,765 L 643,765 L 644,766 L 645,766 L 646,767 L 648,767 L 649,768 L 651,768 L 652,769 L 655,769 L 656,770 L 660,770 L 661,771 L 660,772 L 643,772 L 642,771 L 641,772 L 640,771 L 640,766 Z M 331,765 L 332,764 L 333,764 L 334,765 L 335,765 L 336,766 L 337,766 L 338,767 L 340,767 L 341,768 L 343,768 L 344,769 L 347,769 L 348,770 L 347,771 L 346,771 L 344,773 L 343,772 L 338,772 L 337,771 L 335,771 L 334,770 L 333,770 L 331,768 L 332,767 L 332,766 Z M 396,764 L 396,768 L 395,769 L 395,772 L 394,773 L 393,772 L 392,773 L 380,773 L 379,772 L 379,771 L 378,771 L 377,770 L 378,769 L 380,769 L 381,768 L 384,768 L 385,767 L 386,767 L 387,766 L 389,766 L 390,765 L 391,765 L 392,764 L 393,764 L 394,763 L 395,763 Z M 1154,759 L 1154,765 L 1153,766 L 1152,766 L 1151,767 L 1149,767 L 1148,768 L 1145,768 L 1144,769 L 1142,769 L 1139,766 L 1140,765 L 1142,765 L 1143,764 L 1144,764 L 1145,763 L 1146,763 L 1148,761 L 1149,761 L 1151,759 L 1152,759 L 1153,758 Z M 1272,719 L 1272,720 L 1271,721 L 1270,720 L 1271,721 L 1270,722 L 1268,722 L 1267,723 L 1265,723 L 1264,724 L 1263,724 L 1262,723 L 1261,723 L 1262,723 L 1263,724 L 1262,725 L 1259,725 L 1258,724 L 1258,722 L 1259,721 L 1262,721 L 1263,720 L 1266,720 L 1267,719 L 1268,719 L 1269,718 L 1271,718 Z M 1287,709 L 1286,710 L 1287,710 L 1288,711 L 1287,712 L 1286,712 L 1285,713 L 1284,712 L 1284,713 L 1282,715 L 1281,714 L 1280,714 L 1279,713 L 1280,712 L 1281,712 L 1285,708 L 1286,708 Z M 1110,695 L 1118,695 L 1119,696 L 1120,696 L 1124,700 L 1124,701 L 1125,702 L 1125,704 L 1126,705 L 1126,707 L 1125,708 L 1125,711 L 1123,713 L 1123,714 L 1122,715 L 1121,715 L 1120,714 L 1119,715 L 1120,716 L 1119,717 L 1118,717 L 1117,718 L 1111,718 L 1110,717 L 1109,717 L 1108,716 L 1107,716 L 1103,712 L 1103,710 L 1102,709 L 1102,703 L 1103,702 L 1103,701 L 1108,696 L 1109,696 Z M 961,695 L 969,695 L 970,696 L 971,696 L 975,700 L 975,701 L 976,702 L 976,704 L 977,705 L 977,709 L 976,710 L 976,711 L 975,712 L 975,713 L 974,714 L 973,713 L 974,714 L 971,717 L 970,717 L 969,718 L 961,718 L 960,717 L 959,717 L 955,713 L 955,712 L 954,711 L 954,709 L 953,708 L 953,705 L 954,704 L 954,702 L 955,701 L 955,700 L 959,696 L 960,696 Z M 812,696 L 814,696 L 815,695 L 821,695 L 822,696 L 823,696 L 824,697 L 825,697 L 827,699 L 827,700 L 828,701 L 828,702 L 829,703 L 829,711 L 828,712 L 828,713 L 824,717 L 823,717 L 822,718 L 814,718 L 813,717 L 812,717 L 807,712 L 807,710 L 806,709 L 806,704 L 807,703 L 807,701 Z M 664,696 L 666,696 L 667,695 L 673,695 L 674,696 L 675,696 L 676,697 L 677,697 L 680,700 L 680,701 L 681,702 L 681,704 L 682,705 L 682,708 L 681,709 L 681,711 L 680,712 L 680,713 L 676,717 L 675,717 L 674,718 L 666,718 L 665,717 L 664,717 L 663,716 L 664,715 L 662,713 L 661,714 L 659,712 L 659,710 L 658,709 L 658,704 L 659,703 L 659,702 L 660,701 L 660,700 L 662,698 L 663,699 L 662,698 Z M 513,695 L 519,695 L 520,696 L 522,696 L 527,701 L 527,703 L 528,704 L 528,710 L 527,711 L 527,712 L 522,717 L 521,717 L 520,718 L 512,718 L 511,717 L 510,717 L 507,714 L 508,713 L 507,714 L 505,712 L 505,710 L 504,709 L 504,704 L 505,703 L 505,702 L 506,701 L 507,702 L 506,701 L 506,700 L 509,697 L 510,697 L 511,696 L 512,696 Z M 359,695 L 365,695 L 366,696 L 367,696 L 368,697 L 369,697 L 373,701 L 373,703 L 374,704 L 374,709 L 373,710 L 373,711 L 372,712 L 372,713 L 370,715 L 369,714 L 370,715 L 368,717 L 367,717 L 366,718 L 358,718 L 357,717 L 356,717 L 351,712 L 351,710 L 350,709 L 350,705 L 351,704 L 351,702 L 352,701 L 352,700 L 355,697 L 356,697 L 357,696 L 358,696 Z M 239,691 L 244,696 L 245,696 L 249,700 L 249,703 L 248,704 L 248,705 L 246,707 L 245,706 L 246,707 L 244,709 L 243,709 L 242,710 L 241,710 L 240,711 L 239,711 L 238,712 L 236,712 L 235,713 L 232,713 L 231,714 L 230,713 L 229,713 L 226,710 L 226,709 L 225,708 L 225,706 L 226,705 L 226,701 L 227,700 L 227,697 L 228,696 L 229,697 L 230,697 L 229,697 L 228,696 L 229,695 L 230,695 L 231,694 L 232,694 L 233,693 L 234,693 L 235,692 L 236,692 L 237,691 Z M 1299,689 L 1300,690 L 1300,692 L 1299,693 L 1299,694 L 1298,695 L 1298,696 L 1299,696 L 1300,697 L 1300,698 L 1297,701 L 1295,701 L 1291,705 L 1290,704 L 1290,703 L 1293,700 L 1293,699 L 1294,698 L 1294,697 L 1296,695 L 1296,694 L 1297,693 L 1297,692 L 1298,691 L 1298,690 Z M 182,695 L 183,694 L 184,694 L 186,692 L 187,692 L 188,691 L 189,691 L 190,690 L 191,690 L 192,689 L 193,689 L 194,690 L 193,691 L 195,689 L 197,691 L 198,691 L 200,693 L 201,693 L 202,694 L 203,694 L 205,696 L 204,697 L 204,708 L 202,710 L 201,710 L 200,711 L 195,711 L 194,710 L 193,710 L 192,709 L 191,709 L 189,707 L 188,707 L 181,700 L 181,698 L 182,697 Z M 163,661 L 164,660 L 170,660 L 171,661 L 182,661 L 183,662 L 183,668 L 181,670 L 180,670 L 178,672 L 176,672 L 175,673 L 173,673 L 172,674 L 170,674 L 168,672 L 167,672 L 166,671 L 165,671 L 164,670 L 164,667 L 163,666 Z M 264,657 L 266,657 L 267,658 L 269,658 L 271,660 L 271,661 L 272,662 L 272,664 L 271,665 L 271,673 L 270,674 L 270,676 L 269,677 L 269,678 L 266,681 L 262,681 L 261,680 L 260,680 L 258,678 L 257,678 L 254,675 L 253,675 L 251,673 L 252,672 L 252,670 L 253,669 L 253,662 L 254,661 L 255,661 L 256,660 L 257,660 L 258,659 L 260,659 L 261,658 L 263,658 Z M 1243,657 L 1246,657 L 1247,656 L 1249,656 L 1250,657 L 1253,657 L 1255,659 L 1256,659 L 1258,661 L 1258,662 L 1259,663 L 1259,664 L 1260,665 L 1260,669 L 1259,670 L 1259,672 L 1258,673 L 1258,674 L 1255,677 L 1254,677 L 1253,678 L 1252,678 L 1251,679 L 1245,679 L 1244,678 L 1242,678 L 1238,674 L 1238,673 L 1237,672 L 1237,670 L 1236,669 L 1236,666 L 1237,665 L 1237,663 L 1239,661 L 1240,662 L 1242,660 L 1241,659 Z M 1304,652 L 1305,653 L 1305,656 L 1306,657 L 1306,662 L 1305,663 L 1305,674 L 1306,674 L 1307,675 L 1306,676 L 1306,681 L 1305,682 L 1304,681 L 1304,680 L 1304,681 L 1303,682 L 1304,682 L 1305,683 L 1305,684 L 1304,685 L 1303,685 L 1302,686 L 1302,687 L 1301,688 L 1300,687 L 1300,685 L 1301,684 L 1301,681 L 1302,680 L 1302,676 L 1303,675 L 1303,663 L 1302,662 L 1302,656 L 1301,655 L 1301,653 L 1302,652 Z M 212,652 L 214,652 L 215,651 L 220,651 L 221,652 L 222,652 L 223,653 L 224,653 L 226,655 L 225,656 L 226,655 L 227,656 L 227,657 L 228,658 L 228,659 L 229,660 L 229,665 L 228,666 L 228,667 L 227,668 L 226,667 L 227,668 L 227,669 L 224,672 L 223,672 L 222,673 L 219,673 L 218,674 L 217,674 L 216,673 L 213,673 L 212,672 L 211,672 L 207,668 L 207,666 L 206,665 L 206,660 L 207,659 L 207,657 Z M 548,641 L 562,641 L 564,643 L 563,644 L 564,646 L 564,650 L 571,650 L 572,642 L 573,641 L 588,641 L 589,642 L 590,649 L 591,650 L 597,650 L 597,643 L 599,641 L 614,641 L 615,642 L 615,649 L 616,650 L 622,650 L 623,648 L 623,642 L 624,641 L 638,641 L 639,642 L 639,647 L 641,648 L 635,651 L 627,657 L 618,667 L 616,671 L 614,673 L 613,672 L 614,674 L 608,686 L 607,692 L 606,693 L 606,699 L 605,700 L 605,714 L 606,715 L 606,720 L 607,721 L 610,732 L 618,746 L 634,761 L 630,763 L 630,771 L 629,772 L 614,772 L 612,768 L 612,763 L 610,762 L 606,762 L 605,763 L 604,771 L 603,772 L 588,772 L 587,771 L 587,765 L 585,762 L 581,762 L 579,764 L 579,768 L 577,772 L 563,772 L 561,770 L 561,763 L 560,762 L 555,762 L 554,763 L 553,771 L 552,772 L 538,772 L 537,770 L 535,770 L 534,769 L 535,768 L 543,766 L 554,759 L 556,760 L 555,759 L 568,746 L 576,733 L 576,731 L 580,721 L 580,715 L 581,714 L 581,698 L 580,697 L 580,693 L 579,692 L 578,685 L 568,667 L 556,655 L 545,648 L 547,647 L 547,642 Z M 396,641 L 410,641 L 411,642 L 412,650 L 418,650 L 419,648 L 419,642 L 420,641 L 436,641 L 437,642 L 438,650 L 444,650 L 445,648 L 445,642 L 446,641 L 462,641 L 463,642 L 463,649 L 464,650 L 470,650 L 471,642 L 472,641 L 486,641 L 487,642 L 487,646 L 489,647 L 476,655 L 465,666 L 460,673 L 456,681 L 454,688 L 453,689 L 452,688 L 453,689 L 453,693 L 452,694 L 452,699 L 451,700 L 451,714 L 452,715 L 452,719 L 453,720 L 454,727 L 462,743 L 465,747 L 478,759 L 477,760 L 478,761 L 480,760 L 481,761 L 480,762 L 481,761 L 490,766 L 494,767 L 495,769 L 493,772 L 479,772 L 478,771 L 477,763 L 476,762 L 472,762 L 470,764 L 470,768 L 468,772 L 454,772 L 452,767 L 452,763 L 450,763 L 449,762 L 445,763 L 445,767 L 443,772 L 429,772 L 428,771 L 427,763 L 425,762 L 420,764 L 420,771 L 419,772 L 417,772 L 416,773 L 405,773 L 403,771 L 403,765 L 402,763 L 397,763 L 396,762 L 401,759 L 413,747 L 418,740 L 424,727 L 425,721 L 426,720 L 426,714 L 427,713 L 427,699 L 426,698 L 426,693 L 425,692 L 425,689 L 424,688 L 423,683 L 414,667 L 402,655 L 392,649 L 393,648 L 395,648 L 395,642 Z M 378,643 L 379,642 L 380,642 L 381,641 L 385,641 L 386,642 L 386,644 L 387,645 L 386,646 L 385,646 L 384,645 L 382,645 L 381,644 L 379,644 Z M 1093,643 L 1093,641 L 1094,640 L 1105,640 L 1106,641 L 1105,642 L 1100,642 L 1099,643 L 1096,643 L 1095,644 L 1094,644 Z M 996,640 L 1009,640 L 1011,642 L 1011,649 L 1012,650 L 1018,650 L 1018,644 L 1020,640 L 1031,640 L 1032,641 L 1034,640 L 1035,641 L 1035,645 L 1037,650 L 1042,650 L 1043,642 L 1044,641 L 1045,644 L 1046,642 L 1044,641 L 1045,640 L 1059,640 L 1060,641 L 1060,646 L 1062,650 L 1067,650 L 1068,641 L 1069,640 L 1083,640 L 1084,641 L 1084,645 L 1086,647 L 1073,655 L 1063,665 L 1057,674 L 1053,682 L 1050,691 L 1049,704 L 1048,705 L 1051,725 L 1058,740 L 1064,748 L 1073,757 L 1086,765 L 1083,772 L 1082,771 L 1081,772 L 1069,772 L 1068,771 L 1067,762 L 1062,762 L 1060,764 L 1060,770 L 1058,772 L 1047,771 L 1046,770 L 1047,769 L 1045,768 L 1044,771 L 1043,770 L 1042,762 L 1037,762 L 1035,764 L 1035,770 L 1033,772 L 1020,772 L 1019,771 L 1018,762 L 1012,762 L 1011,764 L 1011,770 L 1009,772 L 1008,771 L 1007,772 L 996,772 L 995,771 L 995,766 L 993,765 L 999,762 L 1008,755 L 1009,756 L 1008,755 L 1016,747 L 1017,748 L 1016,746 L 1021,740 L 1027,727 L 1028,729 L 1027,724 L 1028,723 L 1029,713 L 1030,712 L 1030,700 L 1029,699 L 1029,694 L 1028,693 L 1027,686 L 1024,680 L 1024,678 L 1018,668 L 1013,662 L 1014,661 L 1013,662 L 1004,654 L 992,647 L 994,646 L 994,642 Z M 970,641 L 971,640 L 983,640 L 984,641 L 984,642 L 985,643 L 984,644 L 982,644 L 981,643 L 982,642 L 981,643 L 978,643 L 977,642 L 971,642 Z M 942,641 L 943,640 L 959,640 L 960,641 L 959,642 L 953,642 L 952,643 L 949,643 L 948,642 L 943,642 Z M 844,641 L 857,641 L 859,644 L 859,649 L 860,650 L 865,650 L 866,649 L 866,642 L 868,640 L 869,641 L 883,641 L 884,642 L 885,650 L 891,650 L 892,642 L 893,641 L 906,641 L 907,640 L 909,642 L 909,649 L 910,650 L 916,650 L 916,645 L 918,640 L 932,640 L 933,641 L 933,645 L 934,647 L 936,648 L 930,651 L 922,657 L 913,667 L 904,683 L 904,685 L 902,689 L 902,692 L 901,693 L 901,698 L 900,699 L 900,713 L 901,714 L 901,720 L 902,721 L 903,727 L 906,732 L 906,734 L 911,743 L 918,751 L 917,752 L 921,756 L 922,755 L 924,756 L 927,759 L 935,764 L 932,772 L 918,772 L 917,771 L 916,763 L 915,762 L 910,762 L 909,764 L 909,770 L 907,772 L 893,771 L 892,770 L 891,762 L 886,762 L 884,764 L 884,769 L 882,772 L 868,772 L 866,769 L 866,763 L 865,762 L 860,762 L 859,763 L 858,770 L 855,772 L 844,772 L 843,771 L 842,767 L 852,762 L 861,755 L 862,756 L 864,754 L 863,753 L 868,748 L 873,741 L 880,726 L 880,723 L 882,718 L 882,710 L 883,709 L 882,695 L 881,694 L 881,691 L 879,686 L 879,684 L 880,683 L 879,684 L 878,683 L 877,679 L 868,665 L 858,655 L 851,651 L 849,649 L 850,648 L 848,649 L 843,646 L 843,642 Z M 822,641 L 823,640 L 833,640 L 836,643 L 835,644 L 834,644 L 833,643 L 830,643 L 829,642 L 823,642 Z M 795,644 L 795,643 L 796,642 L 796,641 L 797,640 L 813,640 L 814,641 L 813,642 L 806,642 L 805,643 L 802,643 L 801,642 L 798,642 L 801,642 L 802,643 L 801,644 L 798,644 L 797,645 L 796,645 Z M 786,641 L 787,642 L 787,647 L 789,648 L 780,653 L 771,661 L 770,660 L 769,661 L 770,662 L 769,664 L 765,668 L 758,680 L 755,689 L 755,692 L 754,693 L 754,697 L 753,698 L 753,714 L 754,715 L 754,720 L 755,721 L 755,724 L 757,730 L 763,742 L 766,745 L 767,747 L 766,748 L 767,747 L 772,753 L 776,756 L 775,757 L 776,758 L 777,757 L 787,764 L 790,765 L 787,767 L 787,771 L 786,772 L 773,772 L 771,770 L 771,763 L 770,762 L 764,762 L 763,771 L 762,772 L 761,769 L 759,769 L 761,770 L 760,772 L 758,771 L 748,771 L 745,762 L 740,762 L 739,763 L 739,767 L 737,772 L 736,771 L 735,772 L 722,772 L 721,771 L 720,763 L 719,762 L 714,762 L 713,770 L 711,772 L 697,772 L 696,771 L 696,768 L 694,767 L 697,765 L 699,765 L 711,757 L 721,747 L 727,736 L 729,734 L 734,719 L 735,699 L 734,698 L 734,694 L 733,693 L 733,690 L 730,681 L 721,666 L 710,655 L 699,648 L 694,646 L 696,645 L 698,641 L 712,641 L 713,642 L 713,648 L 714,650 L 720,650 L 720,645 L 722,641 L 737,641 L 738,642 L 739,650 L 745,650 L 746,648 L 746,642 L 747,641 L 762,641 L 764,646 L 764,650 L 770,650 L 771,649 L 771,641 L 772,640 L 773,641 Z M 673,641 L 674,640 L 686,640 L 687,641 L 687,642 L 688,643 L 687,644 L 686,644 L 685,643 L 682,643 L 681,642 L 674,642 Z M 647,644 L 648,643 L 648,641 L 649,640 L 665,640 L 666,641 L 665,642 L 658,642 L 657,643 L 653,643 L 652,642 L 650,642 L 652,642 L 653,643 L 652,644 L 650,644 L 649,645 L 648,645 Z M 518,641 L 519,640 L 527,640 L 528,641 L 537,641 L 538,642 L 538,643 L 539,644 L 538,645 L 536,645 L 535,644 L 533,644 L 532,643 L 527,643 L 526,642 L 519,642 Z M 500,642 L 500,641 L 501,640 L 513,640 L 514,641 L 513,642 L 505,642 L 504,643 L 501,643 Z M 342,643 L 343,642 L 343,641 L 344,640 L 358,640 L 359,641 L 358,642 L 350,642 L 349,643 L 346,643 L 345,644 L 343,644 Z M 1121,641 L 1122,640 L 1126,640 L 1127,639 L 1128,640 L 1130,640 L 1131,641 L 1131,642 L 1130,643 L 1128,643 L 1127,642 L 1122,642 Z M 1107,640 L 1108,639 L 1118,639 L 1119,640 L 1118,641 L 1108,641 Z M 320,638 L 321,638 L 322,640 L 332,640 L 333,641 L 333,646 L 335,647 L 329,650 L 324,654 L 323,654 L 311,666 L 311,667 L 306,673 L 301,683 L 301,685 L 299,689 L 299,692 L 298,693 L 298,698 L 297,699 L 297,715 L 298,716 L 299,724 L 300,725 L 301,730 L 303,733 L 303,735 L 305,739 L 309,744 L 309,745 L 313,749 L 314,751 L 313,752 L 314,751 L 318,755 L 319,755 L 326,761 L 324,762 L 322,766 L 318,765 L 317,764 L 315,764 L 314,763 L 312,763 L 308,760 L 308,755 L 309,754 L 309,752 L 308,751 L 304,750 L 299,757 L 295,757 L 292,755 L 287,754 L 284,751 L 285,750 L 285,747 L 286,746 L 286,743 L 285,742 L 280,741 L 279,744 L 276,747 L 276,748 L 274,749 L 268,746 L 263,745 L 261,743 L 263,735 L 260,733 L 258,733 L 257,732 L 252,740 L 250,739 L 251,738 L 250,737 L 249,737 L 251,738 L 250,739 L 247,739 L 246,738 L 244,738 L 238,735 L 238,732 L 240,729 L 244,728 L 245,727 L 247,727 L 257,722 L 263,717 L 264,717 L 274,707 L 274,706 L 277,703 L 277,702 L 281,697 L 285,689 L 285,687 L 287,684 L 288,678 L 289,677 L 289,671 L 290,670 L 290,652 L 289,651 L 290,650 L 295,650 L 296,649 L 297,643 L 298,642 L 306,641 L 307,640 L 309,640 L 310,641 L 309,643 L 309,648 L 310,649 L 316,649 L 317,640 Z M 263,635 L 264,636 L 264,637 L 266,639 L 266,640 L 267,641 L 267,643 L 268,644 L 268,649 L 266,651 L 265,651 L 263,653 L 261,653 L 260,654 L 255,654 L 254,653 L 255,652 L 259,652 L 260,651 L 258,649 L 256,649 L 256,650 L 255,651 L 254,650 L 255,651 L 255,652 L 254,653 L 252,651 L 252,649 L 251,648 L 251,647 L 250,646 L 250,645 L 252,643 L 253,643 L 254,642 L 255,642 L 257,640 L 258,640 Z M 241,636 L 242,635 L 252,635 L 253,636 L 252,637 L 251,637 L 250,638 L 249,638 L 248,639 L 247,639 L 246,638 L 245,639 L 244,639 Z M 709,634 L 710,633 L 723,633 L 724,634 L 723,635 L 710,635 Z M 571,634 L 572,633 L 586,633 L 587,634 L 586,635 L 572,635 Z M 549,634 L 550,633 L 561,633 L 562,634 L 561,635 L 550,635 Z M 524,634 L 525,633 L 536,633 L 537,634 L 536,635 L 525,635 Z M 498,634 L 499,633 L 509,633 L 510,634 L 509,635 L 499,635 Z M 460,634 L 461,633 L 485,633 L 486,634 L 485,635 L 461,635 Z M 447,634 L 448,633 L 458,633 L 459,634 L 458,635 L 448,635 Z M 397,634 L 398,633 L 434,633 L 435,634 L 434,635 L 398,635 Z M 367,634 L 368,633 L 384,633 L 385,634 L 384,635 L 368,635 Z M 1119,633 L 1120,632 L 1130,632 L 1131,633 L 1130,634 L 1120,634 Z M 996,633 L 997,632 L 1009,632 L 1010,633 L 1009,634 L 1004,634 L 1003,635 L 998,635 Z M 971,633 L 972,632 L 982,632 L 983,633 L 982,634 L 972,634 Z M 1144,632 L 1145,631 L 1160,631 L 1161,632 L 1160,633 L 1145,633 Z M 1201,625 L 1203,627 L 1205,632 L 1207,633 L 1200,642 L 1198,646 L 1198,648 L 1196,651 L 1196,653 L 1195,654 L 1195,658 L 1194,659 L 1194,678 L 1195,679 L 1195,682 L 1196,683 L 1197,688 L 1203,699 L 1214,711 L 1215,711 L 1221,716 L 1227,719 L 1229,719 L 1233,721 L 1236,721 L 1237,722 L 1248,723 L 1249,724 L 1249,729 L 1247,731 L 1245,731 L 1235,735 L 1230,727 L 1228,727 L 1224,729 L 1225,738 L 1223,740 L 1221,740 L 1211,744 L 1209,742 L 1206,736 L 1200,738 L 1201,747 L 1199,749 L 1191,751 L 1188,753 L 1186,752 L 1183,745 L 1180,745 L 1177,747 L 1177,752 L 1178,753 L 1178,755 L 1172,759 L 1164,761 L 1161,758 L 1160,755 L 1158,754 L 1163,749 L 1164,750 L 1163,748 L 1167,744 L 1173,734 L 1173,732 L 1175,729 L 1176,723 L 1178,719 L 1178,714 L 1179,713 L 1179,700 L 1178,699 L 1178,694 L 1177,693 L 1177,690 L 1176,689 L 1175,683 L 1166,667 L 1159,660 L 1159,659 L 1153,654 L 1147,650 L 1144,649 L 1142,647 L 1140,647 L 1139,646 L 1141,645 L 1141,640 L 1142,639 L 1145,639 L 1146,638 L 1153,638 L 1154,639 L 1152,640 L 1154,640 L 1153,638 L 1154,637 L 1156,638 L 1157,645 L 1158,646 L 1163,646 L 1165,644 L 1164,637 L 1166,635 L 1171,635 L 1172,634 L 1176,634 L 1177,633 L 1179,633 L 1180,634 L 1181,638 L 1183,641 L 1186,641 L 1189,639 L 1189,636 L 1187,631 L 1188,630 L 1190,631 L 1189,630 L 1191,628 L 1193,628 L 1194,627 Z M 1219,619 L 1221,621 L 1220,622 L 1219,622 L 1217,624 L 1216,624 L 1212,628 L 1211,627 L 1211,622 L 1212,621 L 1214,621 L 1215,620 L 1216,620 L 1217,619 Z M 1239,613 L 1240,612 L 1257,612 L 1258,613 L 1257,614 L 1240,614 Z" fill="black" fill-rule="evenodd"/>
<path d="M 996,445 L 967,382 L 864,366 L 859,360 L 838,360 L 832,365 L 827,357 L 826,290 L 821,291 L 821,358 L 816,365 L 798,365 L 797,346 L 779,339 L 756,337 L 739,339 L 721,347 L 721,365 L 704,365 L 690,359 L 681,366 L 554,382 L 540,414 L 533,420 L 525,444 L 527,461 L 522,444 L 533,412 L 517,413 L 512,419 L 436,427 L 192,429 L 185,422 L 128,424 L 130,450 L 186,450 L 192,443 L 461,446 L 513,454 L 517,461 L 529,461 L 532,473 L 539,478 L 549,498 L 930,498 L 931,482 L 977,477 Z M 138,432 L 139,431 L 162,431 L 163,432 L 163,440 L 162,441 L 139,441 L 138,440 Z" fill="black" fill-rule="evenodd"/>
</svg>