<?xml version="1.0" encoding="UTF-8" standalone="no"?>
<svg
   width="670"
   height="250"
   viewBox="0 0 670 250"
   version="1.1"
   id="svg1"
   sodipodi:docname="churchill_mk_iii_black.svg"
   inkscape:version="1.4.2 (f4327f4, 2025-05-13)"
   xmlns:inkscape="http://www.inkscape.org/namespaces/inkscape"
   xmlns:sodipodi="http://sodipodi.sourceforge.net/DTD/sodipodi-0.dtd"
   xmlns="http://www.w3.org/2000/svg"
   xmlns:svg="http://www.w3.org/2000/svg">
  <defs
     id="defs1" />
  <sodipodi:namedview
     id="namedview1"
     pagecolor="#ffffff"
     bordercolor="#000000"
     borderopacity="0.25"
     inkscape:showpageshadow="2"
     inkscape:pageopacity="0.0"
     inkscape:pagecheckerboard="0"
     inkscape:deskcolor="#d1d1d1"
     inkscape:zoom="1.0819521"
     inkscape:cx="723.69191"
     inkscape:cy="395.11915"
     inkscape:window-width="2560"
     inkscape:window-height="1377"
     inkscape:window-x="-8"
     inkscape:window-y="-8"
     inkscape:window-maximized="1"
     inkscape:current-layer="svg1" />
  <rect
     width="100%"
     height="100%"
     fill="#ffffff"
     id="rect1"
     x="0.92425531"
     y="0" />
  <path
     d="m 660.00526,123.38782 -48.66958,-19.75694 -17.82945,-3.37315 -38.55016,2.89126 -1.92751,-12.046924 -24.57573,1.445638 -1.44562,3.85501 -17.82946,-3.373134 -5.30065,4.336886 -7.22816,-5.782525 h -53.48835 l -12.04692,10.119419 h -13.01068 l -1.44564,-10.601294 h 6.2644 l 13.97444,-11.565052 12.5288,-1.927505 0.96376,-30.840126 -3.85501,-4.336896 -43.36894,-6.746277 -4.81877,-23.130097 -3.85502,23.130097 -20.72071,-5.300648 -1.92752,-5.782524 -25.53948,0.481876 -0.96375,5.300648 -10.11942,0.481876 -3.85502,6.264401 -7.71003,0.481876 -6.2644,-7.710029 -3.85502,8.191905 -17.34757,3.373144 -13.49256,-2.891268 -1.44563,5.782524 -25.0576,6.264401 -3.37315,10.601297 -164.320065,-2.409381 -0.963763,13.010677 146.490628,2.891268 5.78253,4.336885 h 13.49256 l -1.44564,21.684472 164.80195,0.96375 H 239.3266 l -18.31133,-7.710027 -17.34757,7.710027 h -16.86569 l -1.44564,-3.373132 -9.63754,3.373132 h -19.27508 l -1.44564,-3.373132 -72.763437,3.373132 -9.637533,-3.373132 -25.539485,8.673772 -14.93819,11.56505 -14.938188,38.55016 2.409385,18.79321 h 20.238837 l 8.191909,10.6013 3.855016,-0.96376 4.818771,7.71003 4.336893,-0.96375 31.322006,26.02136 31.322016,10.11943 9.15566,-0.96377 3.37314,4.3369 6.74628,-1.92751 3.37314,4.3369 7.22816,-1.92752 4.33689,4.3369 h 13.01068 l 0.48187,-3.37315 8.19192,3.37315 3.37313,-3.37315 7.71005,3.37315 3.37313,-3.37315 8.19192,3.37315 3.37312,-3.37315 7.71004,3.37315 2.89126,-3.37315 7.22816,3.37315 2.40938,-3.37315 7.71003,3.37315 2.89127,-3.37315 7.22816,3.37315 3.37313,-3.37315 7.71004,3.37315 3.37313,-3.37315 7.71004,3.37315 2.89126,-3.37315 8.19191,3.37315 3.37314,-3.37315 7.22816,3.37315 3.37313,-3.37315 7.71004,3.37315 3.37313,-3.37315 8.19192,3.37315 7.71003,-3.37315 3.85502,3.37315 h 12.5288 l 0.96375,-3.37315 8.67378,3.37315 9.15567,-3.37315 2.40939,3.37315 2.89126,-3.37315 8.67379,3.37315 3.37314,-3.37315 5.30064,3.37315 1.44564,-3.37315 5.78252,3.37315 3.37314,-3.37315 8.19191,3.37315 2.89127,-3.37315 8.1919,3.37315 8.19192,-3.37315 2.89125,3.37315 3.37314,-3.37315 8.19191,3.37315 2.40939,-3.37315 19.75696,3.37315 0.96375,-3.37315 5.78252,3.37315 2.89127,-3.37315 51.56084,3.37315 6.2644,-3.37315 4.81877,3.37315 0.48188,-3.37315 11.08317,1.44565 0.48187,-3.85502 21.20261,-3.37315 1.44562,-4.33688 8.19191,0.48187 0.48188,-3.85502 17.82946,-7.22815 3.37312,-7.22817 3.37315,1.44565 13.97443,-15.90195 5.78252,-0.48187 0.96376,-5.30066 14.45631,-8.19191 8.19192,-13.01068 17.34757,-8.67378 v -4.81877 l 8.1919,-0.96375 z m -261.17736,80.95534 0.96375,-0.96375 h 20.72072 l 0.48187,0.48188 v 1.92751 l 1.44564,1.44563 v 0.48188 l 2.89127,2.89126 v 0.48188 l 1.44562,1.44563 v 0.48187 l 0.96375,0.96375 v 0.96376 l 0.48188,0.48188 v 0.48187 l 0.48187,0.48188 h 0.48188 l 0.48189,0.48188 h 1.9275 l 0.48188,-0.48188 h 0.48187 l 0.48188,0.48188 v 3.85501 l 0.48188,0.48188 v 0.96375 l 0.48188,0.4819 v 0.96374 l 0.48187,0.48188 v 0.48187 l 0.48189,0.48188 v 0.48187 l 1.9275,1.92751 -0.48188,0.48188 h -4.81877 l -0.48187,0.48189 h -0.48188 v 0.48187 l -0.96375,0.96375 -0.96377,-0.96375 v -0.96376 h -8.67378 l -1.44562,1.44564 h -0.96376 l -0.48188,-0.48188 v -0.96376 h -2.40938 l -0.48188,-0.48188 0.48188,-0.48187 h 0.48187 v -0.48188 l 0.96375,-0.96376 v -0.48187 l 0.48188,-0.48188 v -0.48187 l 0.48188,-0.48188 v -0.48187 l 0.48188,-0.48187 v -0.96378 l 0.48188,-0.48187 v -6.74627 l -0.48188,-0.48189 v -0.96375 l -0.48188,-0.48187 v -0.48188 l -0.48188,-0.48187 v -0.48188 l -0.96375,-0.96377 v -0.48187 l -1.9275,-1.9275 h -0.48188 l -0.96376,-0.96375 h -0.48188 l -0.48188,-0.48188 h -0.48187 l -0.48188,-0.48188 h -0.48187 l -0.48188,-0.48189 h -1.44563 l -0.48188,-0.48187 h -4.33689 l -0.48188,0.48187 h -1.44562 l -0.4819,0.48189 h -0.48187 l -0.48188,-0.48189 0.48188,-0.48187 h -0.48188 v 0.48187 l 0.48188,0.48189 -0.48188,0.48188 h -0.48187 l -0.48188,0.48188 h -0.48187 l -0.48188,-0.48188 0.48188,-0.48188 v -0.48189 l 0.48187,-0.48187 z m -82.40097,1.92752 0.96375,-0.96377 v -0.48187 l 0.48188,-0.48188 v -0.48187 l 0.48187,-0.48188 h 21.20259 l 0.48189,0.48188 -0.48189,0.48187 v 0.48188 l 0.48189,0.48187 v 0.48189 l 1.44562,1.44563 v 0.48188 l 1.9275,1.9275 v 0.48187 l 1.44565,1.44565 v 0.48187 l 0.96375,0.96375 v 0.48188 l 0.96375,0.96376 v 0.96375 l 0.96375,0.96375 h 0.48188 l 0.48188,0.48188 h 1.92751 l 0.48188,0.48188 -0.48188,-0.48188 0.96375,-0.96376 0.48187,0.48188 v 4.81877 l 0.48189,0.48187 v 0.96378 l 0.48187,0.48187 v 0.96375 l 0.48188,0.48187 v 0.48188 l 0.96375,0.96375 v 0.48188 l 0.96376,0.96375 -0.48189,0.48188 h -7.22815 l -1.44563,1.44564 h -0.48187 l -0.48188,-0.48188 v -0.48187 l -0.48187,-0.48189 H 335.702 l -1.44562,1.44564 h -0.48188 l -0.48187,-0.48188 v -1.44564 l 0.48187,-0.48187 0.48188,0.48187 -0.48188,-0.48187 0.48188,-0.48188 v -0.48188 L 335.702,224.582 v -0.48187 l 0.48189,-0.48188 v -0.96374 l 0.48187,-0.4819 v -0.96375 l 0.48188,-0.48188 v -4.81877 l -0.48188,-0.48187 v -1.44564 l -0.48187,-0.48187 v -0.96375 L 335.702,212.0532 v -0.48187 l -0.96375,-0.96376 v -0.48189 l -2.89126,-2.89125 h -0.48188 l -0.96375,-0.96375 h -0.48188 l -0.48187,-0.48188 h -0.48188 l -0.48187,-0.48189 h -1.44564 l -0.48188,-0.48187 h -4.33689 l -0.48187,0.48187 h -1.44564 l -0.48187,0.48189 h -0.48189 l -0.48187,0.48188 h -0.48188 l -0.48187,0.48188 h -0.48188 l -0.48187,0.48187 -0.48188,-0.48187 z m 163.83819,-2.40939 0.48188,-0.48188 h 16.38381 l 0.48189,-0.48187 h 2.89126 l 0.48187,0.48187 h 0.48188 l 0.48187,0.48188 v 1.44562 l 1.92752,1.92752 v 0.48188 l 1.44563,1.44562 v 0.48188 l 1.92751,1.92752 v 0.48187 l 1.44562,1.44563 v 0.48187 l 0.48189,0.48189 v 1.44562 l 0.48187,0.48188 h 0.48188 l 0.48188,0.48188 h 0.96375 l 0.48188,0.48188 v 3.37313 l 0.48187,0.48188 v 1.44565 l 0.48188,0.48187 v 0.96375 l 0.96375,0.96375 v 0.48187 l 1.92752,1.92751 -0.48188,0.48188 h -2.89127 l -1.44562,1.44564 h -0.48188 l -0.48188,-0.48188 v -0.96376 h -8.19192 l -0.48187,0.48189 h -0.48188 v 0.48187 l -0.48187,0.48188 h -1.44563 l -0.48187,-0.48188 0.48187,-0.48187 h 0.48188 -0.48188 l -0.48187,-0.48189 h -2.4094 l -0.48187,-0.48188 1.44562,-1.44563 v -0.48188 l 0.48189,-0.48187 V 224.582 l 0.48187,-0.48187 v -0.48188 l 0.48189,-0.48187 v -0.96377 l 0.48187,-0.48188 v -1.44562 l 0.48188,-0.48188 v -3.85502 l -0.48188,-0.48187 v -1.44564 l -0.48187,-0.48187 v -0.96375 l 0.48187,-0.48188 -0.48187,0.48188 -0.48189,-0.48188 v -0.48187 l -0.48187,-0.48188 0.48187,-0.48188 -0.48187,0.48188 -0.48189,-0.48188 v -0.48189 l -2.89125,-2.89125 h -0.48188 l -0.96375,-0.96375 h -0.48188 l -0.48187,-0.48188 h -0.96376 l -0.48188,-0.48189 h -0.96376 l -0.48187,-0.48187 v -0.48188 l -0.48188,0.48188 h -4.33689 l -0.48188,0.48187 h -0.96375 l -0.48187,0.48189 h -0.96376 l -0.48188,0.48188 h -0.48188 l -0.48188,0.48188 h -0.48187 l -0.48188,-0.48188 0.96375,-0.96377 v -0.48187 l 0.48188,-0.48188 z m -40.47767,0 0.48187,-0.48188 h 19.75697 l 0.48187,0.48188 -0.48187,0.48187 0.48187,0.48188 v -1.44563 l 0.48188,-0.48187 0.48187,0.48187 v 1.9275 l 0.96376,0.96377 v 0.48188 l 2.40939,2.40937 v 0.48188 l 1.44563,1.44564 v 0.48188 l 0.96375,0.96375 v 0.48187 l 0.96375,0.96375 v 0.48189 l 0.48188,0.48187 v 0.96375 l 0.48188,0.48188 h 0.48188 l 0.48188,0.48188 h 2.40938 l 0.48187,-0.48188 0.48188,0.48188 v 3.37314 l 0.48188,0.48187 v 1.92753 l 0.48188,0.48187 v 0.48187 l 0.48188,0.48188 v 0.48187 l 0.48188,0.48188 v 0.48187 l 1.9275,1.92751 -0.48188,0.48188 h -6.26439 l -1.44564,1.44564 -0.48188,-0.48188 v -0.96376 h -8.67378 l -1.44563,1.44564 h -0.48187 l -0.48189,-0.48188 v -0.48187 l -0.48188,-0.48189 h -1.44563 l -0.48187,-0.48188 1.44562,-1.44563 v -0.48188 l 0.48188,-0.48187 V 224.582 l 0.48188,-0.48187 v -0.48188 l 0.48189,-0.48187 v -0.96377 l 0.48187,-0.48188 v -1.44562 l 0.48188,-0.48188 v -4.33689 l -0.48188,-0.48188 v -0.96376 l -0.48187,-0.48187 v -0.96375 l -0.48189,-0.48188 v -0.48187 l -0.48188,-0.48188 v -0.48188 l -3.37313,-3.37314 h -0.48188 l -0.96375,-0.96375 h -0.48189 l -0.48187,-0.48188 h -0.96375 l -0.48188,-0.48189 h -0.96376 l -0.48187,-0.48187 h -4.81877 l -0.48188,0.48187 h -0.96375 l -0.48187,0.48189 h -0.96376 l -0.48189,0.48188 h -0.48187 l -0.96375,0.96375 -0.48188,-0.48187 v -0.48188 l 0.96375,-0.96377 v -0.48187 l 0.48188,-0.48188 z m -81.43722,0 0.96375,-0.96375 h 0.48187 l 0.96376,0.96375 h 0.48189 l 0.48188,-0.48188 h 17.82944 l 0.48188,-0.48187 0.48187,0.48187 v 2.40939 l 1.92751,1.92751 v 0.48187 l 1.44564,1.44563 v 0.48187 l 1.44563,1.44565 v 0.48187 l 1.44563,1.44563 v 0.48187 l 0.48187,0.48189 v 0.96375 l 0.96375,0.96375 h 0.48189 l 0.48187,0.48188 h 1.92751 l 0.48188,-0.48188 h 0.48187 l 0.48188,0.48188 -0.48188,0.48188 0.48188,0.48187 v 3.85501 l 0.48188,0.48188 v 0.96377 l 0.48188,0.48187 v 0.48188 l 0.48187,0.48187 v 0.48188 l 0.96375,0.96375 v 0.48188 l 1.44564,1.44563 -0.48188,0.48189 0.48188,0.48187 -0.48188,0.48188 h -0.48187 l -0.48189,-0.48188 v -0.48187 l -0.48187,-0.48189 h -8.19191 l -0.48187,0.48189 v 0.48187 l -0.48188,0.48188 h -0.48187 l -0.48189,-0.48188 v -0.48187 l -0.48187,-0.48189 h -8.67379 l -0.48188,0.48189 v 0.48187 l -0.48187,0.48188 h -0.96375 l -0.48188,-0.48188 v -0.48187 l 2.89125,-2.89128 v -0.48187 l 0.96376,-0.96375 v -0.96375 l 0.48188,-0.48187 v -0.96378 l 0.48187,-0.48187 v -6.74627 l -0.48187,-0.48189 v -0.96375 l -0.48188,-0.48187 v -0.48188 l -0.48188,-0.48187 v -0.48188 l -0.96375,-0.96377 v -0.48187 l -1.9275,-1.9275 h -0.48188 l -0.96377,-0.96375 h -0.48187 l -0.48188,-0.48188 h -0.48187 l -0.48188,-0.48188 h -0.48187 l -0.48188,-0.48189 h -0.96376 l -0.48187,-0.48187 h -4.81877 l -0.48188,0.48187 h -1.44564 l -0.48187,0.48189 h -0.96376 l -0.48188,0.48188 h -0.48187 l -0.48187,-0.48188 v -0.48189 l 0.48187,-0.48187 z m -80.95534,0 0.48187,-0.48188 h 20.23883 l 0.48189,-0.48187 0.48187,0.48187 v 1.9275 l 0.96376,0.96377 v 0.48188 l 2.40938,2.40937 v 0.48188 l 1.44563,1.44564 v 0.48188 l 1.44564,1.44562 v 0.48188 l 0.48187,0.48187 v 0.96376 l 0.48188,0.48188 v 0.48187 l 0.48187,0.48188 h 0.48188 l 0.48188,0.48188 h 2.40939 l 0.48187,-0.48188 0.48188,0.48188 v 3.85501 l 0.48188,0.48188 v 1.44565 l 0.48188,0.48187 v 0.48187 l 0.48187,0.48188 v 0.48187 l 0.96375,0.96375 v 0.48188 l 1.44563,1.44563 -0.96375,0.96377 h -0.48188 l -1.44562,1.44562 h -0.96376 l -0.48188,-0.48187 v -1.44564 h -8.19191 l -0.48188,0.48189 h -1.9275 l 0.48188,0.48187 -0.48188,0.48188 h -0.48187 l -0.48189,-0.48188 v -0.96376 h -5.78252 l -0.48188,-0.48188 0.96376,-0.96375 v -0.48188 l 0.96375,-0.96375 V 224.582 l 0.48187,-0.48187 v -0.48188 l 0.48189,-0.48187 v -0.96377 l 0.48187,-0.48188 v -1.44562 l 0.48188,-0.48188 v -3.37314 l -0.48188,-0.48188 v -1.92751 l -0.48187,-0.48187 v -0.96375 l -0.48189,-0.48188 v -0.48187 l -0.96375,-0.96376 v -0.48189 l -2.89126,-2.89125 h -0.48188 l -0.96375,-0.96375 h -0.48188 l -0.48187,-0.48188 h -0.96375 l -0.48188,-0.48189 h -1.44564 l -0.48188,-0.48187 h -4.33689 l -0.48188,0.48187 h -1.44562 l -0.48189,0.48189 h -0.48187 l -0.48188,0.48188 h -0.48187 l -0.48188,0.48188 -0.48187,-0.48188 v -0.48188 l 0.48187,-0.48189 v -0.48187 l 0.48188,-0.48188 z m -40.47767,0 0.48187,-0.48188 h 8.67378 l 0.48188,0.48188 h 0.48188 l 0.48189,-0.48188 h 7.22815 l 0.48188,-0.48187 h 0.48187 l 0.48188,0.48187 h 1.9275 l 0.48187,0.48188 v 1.44562 l 0.4819,0.48189 v 0.48188 l 1.9275,1.9275 v 0.48188 l 1.92751,1.92751 v 0.48188 l 1.44562,1.44563 v 0.48187 l 0.96376,0.96375 v 0.48189 l 0.48188,0.48187 v 0.48188 l 0.48187,0.48187 v 0.48188 h 0.48188 l 0.48188,0.48188 h 2.40938 l 0.48188,-0.48188 0.48188,0.48188 v 3.85501 l 0.48188,0.48188 v 1.44565 l 0.48188,0.48187 v 0.48187 l 0.48187,0.48188 v 0.48187 l 0.48188,0.48188 v 0.48187 l -0.48188,0.48188 0.48188,0.48188 0.48187,-0.48188 1.44563,1.44563 -0.48188,0.48188 h -4.81877 l -1.44562,1.44564 h -0.96376 l -0.48188,-0.48188 v -0.96376 h -8.19191 l -1.44563,1.44564 h -0.96375 l -0.48187,-0.48188 v -0.96376 h -2.4094 l -0.48187,-0.48188 0.48187,-0.48187 v -0.48188 l 1.44564,-1.44563 V 224.582 l 0.48188,-0.48187 v -0.96375 l 0.48188,-0.48187 v -0.4819 l 0.48187,-0.48188 v -2.40937 l 0.48188,-0.48188 v -1.92751 l -0.48188,-0.48188 v -2.40939 l -0.48187,-0.48187 v -0.48188 l -0.48188,-0.48187 v -0.48188 l -0.48188,-0.48187 v -0.48188 l -0.48188,-0.48188 v -0.48189 l -2.40938,-2.40937 h -0.48188 l -0.96376,-0.96375 h -0.48187 l -0.96375,-0.96376 h -0.96375 l -0.48189,-0.48189 h -0.96376 l -0.48187,-0.48187 h -4.81877 l -0.48188,0.48187 h -1.44562 l -0.48189,0.48189 h -0.48187 l -0.48188,-0.48189 v -0.48187 l -0.48187,-0.48188 z m -40.95956,0 0.48189,-0.48188 h 20.7207 l 0.48188,-0.48187 0.48188,0.48187 v 2.40939 l 1.44564,1.44563 v 0.48188 l 1.9275,1.9275 v 0.48187 l 1.44563,1.44565 v 0.48187 l 1.44563,1.44563 v 0.48187 l 0.48188,0.48189 v 0.96375 l 0.96375,0.96375 h 0.48188 l 0.48188,0.48188 h 1.9275 l 0.48188,-0.48188 h 0.48187 l 0.48188,0.48188 -0.48188,0.48188 v 0.48187 l 0.48188,0.48188 v 3.37313 l 0.48189,0.48188 v 0.96377 l 0.48188,0.48187 v 0.48188 l 0.48187,0.48187 v 0.48188 l 0.96375,0.96375 v 0.48188 l 0.48188,0.48188 h 0.48187 l 0.48188,0.48187 -0.48188,0.48188 h -6.74627 l -0.48188,0.48189 h -0.48188 l -0.96375,0.96375 -0.48188,-0.48188 v -0.48187 l -0.48188,-0.48189 h -7.22815 l -0.48188,0.48189 h -0.48187 l -0.96375,0.96375 H 214.269 l -0.48188,-0.48188 v -0.48187 l -0.48188,-0.48189 h -1.44563 l -0.48188,-0.48188 1.92751,-1.92751 v -0.48187 l 0.48188,-0.48188 v -0.48187 l 0.48188,-0.48188 v -0.48187 l 0.48188,-0.48187 v -1.44565 l 0.48187,-0.48188 v -5.30064 l -0.48187,-0.48188 v -1.44563 l -0.48188,-0.48188 v -0.96375 l -0.96376,-0.96375 v -0.48188 l -3.85502,-3.85501 h -0.48187 l -0.48188,-0.48188 h -0.48187 l -0.48189,-0.48188 h -0.48187 l -0.48188,-0.48189 h -1.44563 l -0.48188,-0.48187 h -4.33689 l -0.48188,0.48187 h -1.44562 l -0.48189,0.48189 h -0.48187 l -0.48188,-0.48189 v -0.48187 l -0.48187,0.48187 -0.48189,-0.48187 z m -40.95955,0 0.96375,-0.96375 0.48189,0.48187 h 2.89126 l 0.48187,0.48188 0.48188,-0.48188 h 13.49257 l 0.48188,-0.48187 h 0.48187 l 0.48187,0.48187 h 1.44563 l 0.48187,0.48188 v 0.96375 l 0.48189,0.48187 v 0.48189 l 0.96375,0.96376 v 0.48187 l 1.92751,1.9275 v 0.48188 l 1.44563,1.44564 v 0.48188 l 0.96375,0.96375 v 0.48187 l 1.44563,1.44564 v 0.96375 l 1.44565,1.44563 h 2.40937 l 0.48187,-0.48188 0.48188,0.48188 v 2.89126 l 0.48188,0.48188 v 1.44562 l 0.48188,0.48188 v 0.96377 l 0.48189,0.48187 v 0.48188 l 0.48187,0.48187 v 0.48188 l 0.48188,0.48187 v 0.48188 l 1.44562,1.44563 -0.48187,0.48188 v 0.48189 l 0.48187,0.48187 -0.48187,0.48188 h -0.48188 l -0.96375,-1.44564 h -8.19192 l -0.96375,1.44564 h -1.44563 l -0.96375,-1.44564 h -7.71004 l -0.96375,1.44564 h -1.44563 l -0.48188,-0.48188 3.37313,-3.37315 v -0.48187 l 0.96375,-0.96375 v -0.48188 l 0.4819,-0.48187 v -0.96377 l 0.48188,-0.48188 v -1.44562 l 0.48187,-0.48188 v -3.37314 l -0.48187,-0.48188 v -1.92751 l -0.48188,-0.48187 v -0.48188 l -0.4819,-0.48187 v -0.48188 l -0.48187,-0.48187 v -0.48188 l -0.96375,-0.96377 v -0.48187 l -1.9275,-1.9275 h -0.48188 l -0.96376,-0.96375 h -0.48187 l -0.96376,-0.96376 h -0.96375 l -0.48188,-0.48189 h -1.44563 l -0.48188,-0.48187 v -0.48188 l -0.48187,0.48188 h -3.37315 l -0.48187,0.48187 h -1.44563 l -0.48187,0.48189 h -0.96376 l -0.48189,0.48188 h -0.48187 l -0.48188,0.48188 h -0.48187 l -0.48188,-0.48188 v -0.48188 l 0.96375,-0.96376 0.48188,0.48187 -0.48188,-0.48187 z m 408.63175,11.08317 -0.48189,0.48188 h -0.48187 l -0.48188,0.48187 h -1.9275 l -0.48188,0.48188 h -0.48188 l -0.48188,0.48188 h -0.48188 l -0.48187,0.48188 h -0.96375 l -0.48188,0.48187 h -0.48187 l -0.48188,0.48188 h -0.48188 l -0.96376,0.96376 v 0.96375 l -0.48188,0.48187 h -0.48187 l -0.48188,-0.48187 0.48188,-0.48188 -0.48188,0.48188 -0.48187,-0.48188 h -0.96376 l -0.48188,0.48188 h -0.96375 l -0.48187,0.48187 h -0.48188 l -0.48188,0.48188 h -0.96375 l -0.48189,0.48187 h -0.96375 l -0.48187,0.48188 h -0.96375 l -0.96375,0.96377 v 0.96375 l -0.48189,0.48187 h -0.48189 l -0.48187,0.48188 -0.48187,-0.48188 v -0.48187 l 0.48187,-0.48188 h 0.48187 -0.48187 l -0.48187,0.48188 h -0.48188 l -0.48187,-0.48188 -0.48188,0.48188 h -1.44563 l -0.48188,0.48187 h -0.96376 l -0.48188,0.48188 h -0.48187 l -0.48188,-0.48188 0.48188,-0.48187 v -0.48188 l 0.48187,-0.48187 v -0.48187 l 0.48188,-0.4819 v -0.96375 l 0.48189,-0.48188 v -5.78252 l -0.48189,-0.48187 v -1.44564 l -0.48188,-0.48187 v -0.48188 l -0.48187,-0.48187 v -0.48188 l -0.48188,-0.48188 v -0.48189 l -2.40938,-2.40937 h -0.48187 l -1.44564,-1.44563 h -0.48188 l -0.48188,-0.48188 h -0.96375 l -0.48188,-0.48189 h -0.96375 l -0.48187,-0.48187 h -5.30066 l -0.48187,-0.48188 0.96375,-0.96375 h 15.90195 l 0.48188,-0.48187 h 7.22815 l 0.48187,0.48187 h 0.48189 l 0.48187,-0.48187 h 0.48188 l 0.48188,-0.48188 v -0.48188 l 0.48188,-0.48188 0.48187,0.48188 v 0.48188 l 0.48188,-0.48188 h 0.48187 l -0.48187,-0.48188 v -0.48187 l 0.48187,-0.48188 0.96376,0.96375 v 0.96376 l 0.48188,0.48188 v 0.48187 l 0.48187,0.48188 v 0.48187 h 0.48188 l 0.48187,0.48188 h 0.48188 l 0.96376,0.96376 v 0.96376 l 0.48188,0.48187 v 0.48188 l 0.48188,0.48187 v 0.48188 l 0.96375,0.96375 v 0.48187 l 2.89126,2.89127 h 0.48188 l 0.48188,0.48188 h 0.48187 l 0.96375,0.96376 -0.48187,0.48187 h -0.48188 0.48188 l 0.48187,-0.48187 h 0.96375 z m -454.41006,0 0.96375,-0.96376 h 0.48187 l 2.89127,-2.89125 v -0.48188 l 0.96375,-0.96376 v -0.48188 l 0.48188,-0.48187 v -0.96375 l 0.96375,-0.96375 h 1.44564 l 1.9275,-1.92752 v -0.96375 l 0.48188,-0.48188 v -2.40938 l 0.48187,-0.48188 v -0.48187 l 0.48189,-0.48189 v -0.96375 l 0.48187,-0.48187 v -0.96376 l 0.48188,-0.48188 v -0.96375 l 0.48187,-0.48187 v -0.48188 l 0.48189,-0.48187 0.48187,0.48187 h 0.48188 l 0.48187,0.48188 -0.48187,0.48187 h -0.48188 l -0.48187,0.48188 0.48187,-0.48188 h 0.48188 l 0.48187,-0.48187 h 0.48188 l 0.48188,0.48187 h 0.48188 l 0.96374,0.96375 h 0.48188 l 0.96376,0.96375 h 0.48188 l 0.48188,0.48189 h 0.48188 l 0.96375,0.96375 h 0.48187 l 0.96375,0.96376 h 0.48188 l 1.44564,1.44562 h 0.48188 l 1.9275,1.92751 v 1.9275 l 0.96376,0.96377 v 0.48188 l 1.9275,1.9275 v 0.48187 l 1.92751,1.92752 v 0.48188 l 1.44563,1.44562 v 0.48188 l 0.48188,0.48187 v 0.96376 l 1.9275,1.92751 h 2.40939 l 0.48188,-0.48188 0.48187,0.48188 v 1.92751 l 0.48188,0.48188 v 2.40937 l 0.48188,0.48188 v 0.96377 l 0.48188,0.48187 v 0.48188 l 0.48187,0.48187 v 0.48188 l 0.96376,0.96375 -0.48188,0.48188 h -0.96375 l -0.96376,0.96375 h -0.96375 l -0.48188,-0.48187 v -1.44564 l -0.48187,-0.48187 h -0.96375 l -0.48188,-0.48188 h -1.44564 l -0.48188,-0.48187 h -1.9275 l -0.48188,-0.48188 h -1.92751 l -0.96375,0.96375 h -0.96375 l -0.96376,-0.96375 v -0.96374 h -0.48188 l -0.48187,-0.4819 h -0.96375 l -0.48188,-0.48188 h -1.44564 l -0.48188,-0.48187 h -1.9275 l -0.48187,-0.48188 h -0.96376 l -0.48188,0.48188 h -0.48189 l -0.48187,0.48187 h -1.44562 l -0.48188,-0.48187 0.48188,-0.48188 v -0.48187 l -0.48188,-0.48188 h -0.96376 l -0.48187,-0.48187 h -1.44564 l -0.48187,-0.48188 h -1.44564 l -0.48187,-0.48188 h -0.96375 l -0.48188,-0.48188 h -1.44562 l -0.96377,0.96376 h -1.44563 l -0.48187,-0.48188 v -1.44563 h -0.48188 l -0.48187,-0.48188 h -0.96376 l -0.48188,-0.48188 h -1.44563 z m 448.14565,-24.09385 0.48188,0.48188 -0.48188,0.48187 h -0.48187 0.48187 l 0.48188,-0.48187 0.96375,0.96375 -2.40938,2.40939 v 0.48188 l -0.48187,0.48187 -0.48188,-0.48187 v -0.48188 0.48188 l 0.48188,0.48187 v 0.48188 l -0.96376,0.96375 -0.48188,-0.48188 v -0.96375 l -0.48188,-0.48187 v -0.96375 l -0.48188,-0.4819 v -0.48187 l 0.48188,-0.48188 h 0.48188 -0.48188 l -0.48188,0.48188 -0.48187,-0.48188 v -0.48187 l 0.48187,-0.48188 h 0.48188 l 0.48188,-0.48187 h 1.44564 l 0.48187,-0.48188 z m 13.49255,-1.92751 0.48189,-0.48187 v -0.48189 l 0.48188,-0.48187 h 0.48188 l 0.48187,-0.48188 h 1.9275 l 0.48188,-0.48187 h 1.92752 l 0.48187,-0.48188 h 1.92751 l 0.48188,-0.48188 h 0.96375 l 0.96375,0.96376 h 0.48187 l 0.48189,0.48187 h 0.48187 l 0.48189,0.48188 h 0.48187 l 0.48188,0.48187 h 0.48187 l 0.48188,0.48189 h 0.48187 l 0.96375,0.96375 h 5.78253 l 0.48188,-0.48188 h 1.44563 l 0.48188,-0.48187 h 0.96376 l 0.48187,-0.48189 h 0.48188 l 0.96375,0.96376 -0.96375,0.96375 v 0.96376 l 0.48187,0.48188 v 0.48187 l -0.96375,0.96375 h -0.96375 l -0.48188,-0.48187 h -0.96375 l -2.89127,2.89127 h -0.48188 l -2.40937,2.40937 v 1.92751 l -0.96376,0.96376 h -0.48189 l -0.48187,-0.48187 h -0.96375 l -0.96375,0.96375 h -0.48188 l -2.89127,2.89126 h -0.48187 v 0.48187 l -0.48188,0.48188 -0.48187,-0.48188 v -5.78252 l -0.48188,-0.48187 v -0.96376 l -0.48188,-0.48188 v -0.48187 l -0.48188,-0.48188 v -0.48187 l -0.96375,-0.96375 v -0.4819 l -2.89127,-2.89125 h -0.48187 l -0.48188,-0.48187 h -0.48187 l -0.48188,-0.48189 h -0.48187 l -0.48188,-0.48187 h -0.48188 z m -521.872838,-12.04693 0.963755,-0.96375 h 2.891262 l 0.481877,0.48187 h 0.963753 l 0.963755,0.96376 v 1.92751 l 0.963754,0.96375 h 4.81877 l 0.963754,-0.96375 v -1.44562 l 0.963755,-0.96377 h 0.481875 l 0.481876,-0.48188 h 1.927516 l 0.481876,-0.48187 1.445629,2.40939 h 0.481875 l 3.373144,2.89125 h 0.481876 l 0.963753,0.96376 h 0.481876 l 1.927504,1.92751 h 0.481876 l 2.409392,2.40939 h 0.481876 l 1.445629,1.44562 -0.481877,0.48189 0.481877,-0.48189 1.445628,1.44564 h 0.963762 l 0.481876,0.48187 h 5.300649 l 0.481876,0.48189 h 1.445628 l 2.409381,-1.92751 h 0.481877 l 0.481876,-0.48189 h 0.481887 l 0.481876,-0.48187 h 0.481875 l 0.481876,-0.48188 1.445629,-0.48187 0.963753,-0.96376 h 0.481876 l 0.481876,-0.48188 h 0.963759 l 1.44563,0.96376 -0.48187,0.48188 h -0.48188 0.48188 l 0.48187,-0.48188 h 0.96375 l 0.48188,0.48188 v 0.96375 l -0.96375,0.96376 -0.48188,-0.48189 0.48188,0.48189 v 0.96375 l -0.48188,0.48187 h -1.927513 l -0.481876,0.48189 h -0.963752 l -0.481877,0.48187 -1.445628,0.48188 -1.445628,1.44562 H 94.28161 l -0.481887,0.48188 v 0.48187 l -1.445629,1.44565 v 0.48187 l -0.963752,0.96375 v 0.48188 l -0.481876,0.48187 v 0.96376 l -0.481877,0.48188 v 0.96376 l -0.481876,0.48187 -0.481876,-0.48187 v -0.48189 0.48189 l 0.481876,0.48187 v 4.81876 l 0.481876,0.48189 -0.481876,0.48188 h -0.481876 l -0.963752,-0.96377 h -0.963763 l -0.481876,0.48189 h -0.963752 l -0.963753,-0.96376 0.481877,-0.48188 v -0.48187 l -1.927505,-1.92751 h -0.481877 l -0.963763,-0.96375 h -0.481875 l -1.445628,-1.44564 h -1.445629 l -0.481876,0.48189 h -0.481877 l -1.445639,-1.44564 v -0.48187 l 0.481887,-0.48189 -0.963763,-1.44562 h -0.481876 l -1.445628,-1.44563 h -0.481876 l -0.963753,-0.96377 h -0.481876 l -0.481876,-0.48187 H 68.74212 l -0.481876,-0.48188 0.481876,-0.48187 v -0.96375 h -0.481876 l -1.927504,-1.92751 h -0.481876 l -0.963763,-0.96375 h -0.481877 l -0.481876,-0.48189 h -0.963751 l -0.481877,0.48189 h -0.481878 l -0.963754,-0.96376 0.481877,-0.48188 v -0.96375 l -0.963754,-0.96376 h -0.481877 l -1.445631,-1.44562 h -0.481877 l -0.963754,-0.96375 h -0.481877 l -1.445631,-0.96377 -0.481877,0.48188 h -0.963755 l -0.963753,-0.96376 v -1.9275 l -0.481877,-0.48187 0.481877,-0.48188 -0.481877,0.48188 h -0.481878 l -0.963754,-0.96375 0.481877,-0.48189 -0.481877,0.48189 h -0.481876 l -0.481877,-0.48189 0.481877,-0.48188 -0.481877,0.48188 H 49.46704 Z m 128.661178,-75.65469 0.96375,-0.96375 h 5.30064 l 0.48188,0.48188 v 0.48187 l -0.48188,0.48188 h -5.78252 z m -29.87638,-0.48187 0.48187,-0.48188 h 5.30066 l 0.96375,0.96375 -0.48188,0.48188 h -5.78253 l -0.48187,-0.48188 z m -30.35825,0 0.48188,-0.48188 h 5.78252 l 0.48187,0.48188 v 0.48187 l -0.48187,0.48188 h -5.78252 l -0.48188,-0.48188 z m -44.332693,0 0.481876,-0.48188 h 5.782524 l 0.481876,0.48188 v 0.48187 l -0.481876,0.48188 h -5.782524 l -0.481876,-0.48188 z"
     fill="#000000"
     fill-rule="evenodd"
     id="path1"
     style="stroke-width:0.481877" />
</svg>
