<?xml version="1.0" encoding="UTF-8" standalone="no"?>
<svg
   width="600"
   height="250"
   viewBox="0 0 600 250"
   version="1.1"
   id="svg1"
   sodipodi:docname="churchill_mk_vii_black.svg"
   inkscape:version="1.4.2 (f4327f4, 2025-05-13)"
   xmlns:inkscape="http://www.inkscape.org/namespaces/inkscape"
   xmlns:sodipodi="http://sodipodi.sourceforge.net/DTD/sodipodi-0.dtd"
   xmlns="http://www.w3.org/2000/svg"
   xmlns:svg="http://www.w3.org/2000/svg">
  <defs
     id="defs1" />
  <sodipodi:namedview
     id="namedview1"
     pagecolor="#ffffff"
     bordercolor="#000000"
     borderopacity="0.25"
     inkscape:showpageshadow="2"
     inkscape:pageopacity="0.0"
     inkscape:pagecheckerboard="0"
     inkscape:deskcolor="#d1d1d1"
     inkscape:zoom="1.0819521"
     inkscape:cx="723.69191"
     inkscape:cy="543"
     inkscape:window-width="2560"
     inkscape:window-height="1377"
     inkscape:window-x="-8"
     inkscape:window-y="-8"
     inkscape:window-maximized="1"
     inkscape:current-layer="svg1" />
  <path
     d="m 587.53548,164.04198 -13.88789,-9.98192 -1.30199,-6.50995 -9.11392,-0.43399 -8.24593,-5.64195 v -25.60579 l -3.90597,-3.90597 H 488.1503 l -5.64195,-2.60398 3.47196,-0.868 -0.86798,-6.94394 h -13.8879 l -0.868,6.94394 3.03797,1.30199 h -83.76131 l 3.47197,-11.717901 h 19.52984 l 2.16999,-9.113916 4.33996,-0.867997 V 75.506704 L 414.80489,74.63872 V 62.48681 l 4.33996,-0.867984 v -7.377949 l -21.26582,-3.471976 -2.16999,-3.471963 -0.868,-39.9276793 h -2.16997 L 390.06709,49.032919 363.5933,47.73093 360.55533,42.522972 328.87359,42.08898 325.83562,32.54105 h -13.4539 l -0.43399,6.943951 -8.67993,8.245929 -26.47378,2.169986 -0.868,-6.075954 -6.94394,-2.603979 -4.33996,3.905968 -0.43401,6.509947 -24.30379,3.037971 -1.30199,-3.471963 h -6.50995 l -2.60397,4.773952 -20.83183,2.603979 -2.16999,30.813758 -0.43399,-17.793859 -16.49187,5.207958 -119.783008,0.434004 -27.775772,-5.641962 -2.603979,3.037984 1.30199,15.189867 29.077761,-4.33996 119.783008,1.301989 16.92586,4.773965 1.30199,8.245928 5.20796,1.301991 v 7.37793 l -78.11935,0.43401 1.30198,-7.37795 h -10.84991 l 0.86799,7.37795 -28.643757,6.94394 -6.943942,14.32188 H 81.06163 l -0.867993,-7.37794 -3.905968,-1.73599 -3.037975,9.11393 -15.623873,0.43399 -12.1519,4.33997 -25.171793,23.00181 20.397833,14.32188 -1.735986,6.07596 4.339965,3.47197 -3.905969,2.60398 3.471971,9.54792 -2.603977,3.90597 9.113924,14.75587 3.037976,-1.30199 5.641954,6.94394 h 7.811935 l 1.301989,3.47198 h 7.37794 l 5.207958,4.77396 h 7.377939 l 3.037975,3.90597 6.509948,-0.434 18.227837,8.67993 386.69085,-0.868 6.50994,-4.77395 4.33998,1.30199 6.94393,-5.20796 3.47198,1.73598 5.64195,-4.77396 2.60398,1.73599 4.77396,-4.33997 4.33996,1.30199 25.1718,-10.84991 0.43399,-4.33996 8.24594,-7.37794 -0.868,-7.37795 3.47198,-1.73598 -4.77397,-16.49186 7.37795,0.434 z m -364.99101,65.09947 0.43399,0.43399 -0.43399,0.434 v 0.86799 l -0.43401,0.434 v 0.86799 l -0.43399,0.434 h -1.30199 l -1.73598,-1.73599 0.43399,-0.43399 h 0.868 l 0.43399,-0.434 h 0.43399 l 0.43401,-0.434 h 0.43399 l 0.43399,-0.43399 z m -26.90779,0.43399 0.43399,-0.43399 h 0.43401 l 0.43399,0.43399 h 0.43399 l 0.43401,0.434 h 0.43399 l 0.43399,0.434 h 0.868 l 0.43399,0.43399 h 0.43401 l 0.43399,0.434 -0.43399,0.434 v 0.43399 l -0.868,0.868 -0.43399,-0.434 h -2.60398 l -0.43401,-0.434 v -0.86799 l -0.43399,-0.434 z m 302.49554,-1.30199 0.43399,0.434 v 2.16998 l -0.86799,0.868 h -1.30199 l -0.43399,0.43399 h -0.868 l -0.43399,0.434 -0.434,-0.434 v -0.86799 l 0.434,-0.434 0.43399,0.434 -0.43399,-0.434 -0.434,0.434 -0.434,-0.434 v -0.43399 l 0.434,-0.434 h 0.86799 l 0.434,-0.434 h 0.434 l 0.43399,-0.43399 h 0.434 l 0.434,0.43399 -0.434,-0.43399 0.434,-0.434 h 0.43399 z m -17.35988,-31.68173 h 0.86801 l 0.434,-0.43401 h 3.03798 l 0.43399,0.43401 -0.43399,0.43399 h -0.43401 0.43401 l 0.43399,-0.43399 h 0.868 l 0.86798,0.86798 h 0.43401 l 0.43399,0.43401 v 0.43399 l 0.43399,0.43399 -0.43399,0.43401 0.43399,-0.43401 0.43401,0.43401 v 0.43399 l 0.43399,0.43399 v 0.868 l 0.43399,0.43399 v 1.73599 l -0.43399,0.434 v 0.86799 l -0.43399,0.434 v 0.43399 l -0.868,0.868 -0.43399,-0.434 0.43399,0.434 -0.868,0.86799 -0.43399,-0.434 0.43399,0.434 -0.86798,0.86799 h -0.868 l -0.43399,0.434 h -3.03798 l -0.434,-0.434 h -0.86801 l -0.86799,-0.86799 0.434,-0.434 -0.434,-0.43399 -0.434,0.43399 -0.86799,-0.86799 v -0.434 l -0.434,-0.43399 v -0.434 l -0.43399,-0.434 v -0.86799 l -0.434,-0.434 v -0.86798 l 0.434,-0.43401 v -1.30199 l 0.43399,-0.43399 v -0.43399 l 1.30199,-1.30199 0.434,0.43399 -0.434,-0.43399 z m -65.53346,-0.43401 h 3.90597 l 0.43399,0.43401 h 0.43401 l 2.16997,2.16997 v 0.43401 l 0.43401,0.43399 v 0.43399 l 0.43399,0.43401 v 3.47196 l -0.43399,0.434 v 0.434 l -0.43401,0.43399 v 0.434 l -1.30199,1.30199 -0.43399,-0.434 0.43399,0.434 -0.43399,0.43399 h -0.43399 l -0.43401,0.434 h -0.43399 l -0.43399,0.434 h -3.03799 l -0.43399,-0.434 h -0.868 l -0.43399,-0.434 h -0.43399 l -1.30199,-1.30198 v -0.434 l -0.868,-0.86799 v -0.868 l -0.43399,-0.43399 v -2.60398 l 0.43399,-0.43399 v -0.868 l 0.434,-0.43399 v -0.43401 l 1.73599,-1.73598 h 0.43399 l 0.43399,-0.43399 h 0.43401 z m -67.70345,0 h 3.47198 l 0.43399,0.43401 -0.43399,0.43399 0.43399,-0.43399 h 0.868 l 0.86798,0.86798 h 0.43401 l 0.43399,0.43401 v 0.43399 l 0.868,0.868 v 0.43399 l 0.43399,0.43399 v 3.90597 l -0.43399,0.434 v 0.434 l -0.43401,0.43399 v 0.434 l -1.30199,1.30199 -0.43399,-0.434 0.43399,0.434 -0.43399,0.43399 h -0.43399 l -0.43401,0.434 h -0.43399 l -0.43399,0.434 h -3.03797 l -0.43401,-0.434 h -0.86798 l -0.868,-0.86799 0.43399,-0.434 -0.43399,0.434 -1.73598,-1.73599 v -0.43399 l 0.43399,-0.434 -0.43399,0.434 -0.434,-0.434 v -0.434 l -0.434,-0.43399 v -2.60398 l 0.434,-0.43399 v -0.868 l 0.86799,-0.868 0.434,0.43401 -0.434,-0.43401 v -0.43399 l 0.868,-0.868 h 0.43399 l 0.868,-0.86798 h 0.43399 z M 278.53,196.59172 h 0.86799 l 0.434,-0.43401 h 3.47197 l 0.43399,0.43401 h 0.43401 l 0.43399,0.43399 h 0.43399 l 1.30199,1.30199 v 0.43399 l 0.43401,0.43401 v 0.43399 l 0.43399,0.43399 v 0.43401 l 0.43399,0.43399 v 2.60398 l -0.43399,0.43399 v 0.434 l -0.43399,0.434 v 0.43399 l -0.43401,0.434 v 0.434 l -0.86798,0.86799 h -0.43401 l -0.86798,0.86799 h -0.868 l -0.43399,0.434 h -3.03798 l -0.434,-0.434 H 278.964 l -0.434,-0.434 h -0.434 l -0.43399,-0.43399 0.43399,-0.434 -1.30198,-1.30199 -0.434,0.434 -0.434,-0.434 v -0.43399 l -0.43399,-0.434 v -1.73599 l -0.434,-0.43399 v -0.43399 l 0.434,-0.43401 v -1.30199 l 0.43399,-0.43399 v -0.43399 l 0.868,-0.868 0.43399,0.43399 -0.43399,-0.43399 z m -71.17541,-0.43401 h 3.47197 l 0.43399,0.43401 h 0.868 l 2.60398,2.60398 v 0.43399 l 0.43399,0.43399 v 1.30199 l 0.43399,0.43401 v 0.86798 l -0.43399,0.434 v 0.86799 l -0.43399,0.434 v 0.434 l -0.43401,0.43399 v 0.434 l -1.30198,1.30199 -0.434,-0.434 0.434,0.434 -0.434,0.43399 h -0.43399 l -0.434,0.434 h -0.434 l -0.43399,0.434 h -3.03798 l -0.43399,-0.434 h -0.868 l -0.86799,-0.86799 0.434,-0.434 -0.434,0.434 h -0.434 l -0.43399,-0.434 0.43399,-0.43399 -0.43399,-0.434 v -0.434 0.434 l -0.434,0.434 -0.434,-0.434 v -0.434 l -0.43399,-0.43399 v -0.434 l -0.43399,-0.434 v -3.47196 l 0.43399,-0.43401 v -0.43399 l 0.43399,-0.43399 v -0.43401 l 0.434,-0.43399 0.434,0.43399 v 0.43401 -0.43401 l 0.43399,-0.43399 -0.43399,-0.43399 0.86799,-0.868 h 0.434 l 0.43399,-0.43399 h 0.434 z m -72.91141,0 h 3.90597 l 0.434,0.43401 h 0.434 l 0.43399,0.43399 h 0.434 l 1.73598,1.73598 v 0.43401 l 0.434,0.43399 v 0.43399 l 0.434,0.43401 v 3.47196 l -0.434,0.434 v 0.434 l -0.434,0.43399 v 0.434 l -1.30198,1.30199 -0.434,-0.434 0.434,0.434 -0.434,0.43399 h -0.434 l -0.43399,0.434 h -0.434 l -0.434,0.434 h -3.47196 l -0.43401,-0.434 h -0.43399 l -0.43399,-0.434 h -0.43401 l -1.30199,-1.30198 0.43401,-0.434 -0.43401,0.434 -0.86798,-0.868 v -0.43399 l -0.43401,-0.434 v -1.30199 l -0.43399,-0.434 v -0.86798 l 0.43399,-0.43401 v -1.30199 l 0.43401,-0.43399 v -0.43399 l 0.86798,-0.868 0.43401,0.43399 -0.43401,-0.43399 1.736,-1.73598 h 0.43399 z m 408.39067,-11.2839 h 0.868 l 0.43399,-0.43399 h 2.60398 l 0.43399,0.43399 h 0.868 l 0.868,0.868 h 0.43399 l 0.868,0.86798 -0.43401,0.43401 h -0.43399 0.43399 l 0.43401,-0.43401 0.43399,0.43401 v 0.43399 l 0.43399,0.43399 v 0.868 l 0.43401,0.43399 v 2.60398 l -0.43401,0.43399 v 0.868 l -2.60398,2.60398 h -0.43399 l -0.43399,0.43399 h -1.30199 l -0.43401,0.43401 h -1.30198 l -0.434,-0.43401 h -0.86799 l -0.434,-0.43399 h -0.43399 l -2.16999,-2.16999 v -0.43399 l -0.43399,-0.43399 v -0.868 l -0.434,-0.43399 v -2.16999 l 0.434,-0.43399 v -0.868 l 0.43399,-0.43399 v -0.43399 l 1.73599,-1.73599 h 0.434 z m -466.546181,-1.30199 0.867993,0.868 v 0.43399 l 0.433996,0.434 v 0.434 l 0.433996,0.43399 v 4.33996 l -0.867992,0.868 v 0.43399 l -1.301989,1.30199 h -0.433997 l -0.867993,0.868 h -1.301989 l -0.433997,0.43399 h -1.735986 l -0.433996,-0.43399 h -0.867993 l -0.433996,-0.43401 H 68.90973 l -2.603979,-2.60396 v -0.868 l -0.433997,-0.43399 v -2.16999 l 0.433997,-0.43399 h 2.169982 l 0.433997,-0.43401 h 0.867992 l 0.433997,-0.43399 h 0.433996 l 0.433996,-0.43399 h 0.867994 l 0.433996,-0.434 h 0.433996 l 0.433997,-0.434 h 0.433996 l 0.433996,-0.43399 h 0.433997 l 0.433996,-0.434 h 0.867994 z m 444.412361,-10.8499 0.868,0.86798 0.43399,1.736 1.73599,1.30198 -2.16998,3.03798 v 0.86799 l -1.30199,2.60398 v 1.30199 l -0.434,0.43399 v 1.73598 l -0.434,0.43401 v 6.94394 l 0.434,0.43399 v 1.73598 l 0.434,0.43401 v 1.30199 l 0.43399,0.43399 v 0.868 l 2.60398,5.20795 3.03797,3.47197 v 0.434 l 3.47198,3.03797 h 0.43399 l 2.16999,1.73598 3.47197,1.30199 0.86799,0.868 -0.43399,0.43399 v 0.868 l -0.868,0.868 h -0.43399 0.86799 l 0.434,0.43399 -0.434,0.43399 h -1.30198 l -1.30199,-1.73598 h -1.30199 l -0.43401,0.43399 -2.16997,0.43401 -0.43401,0.86798 v 1.30199 l 0.43401,0.43401 -0.868,0.86798 h -0.868 l -0.43399,0.43401 h -1.30199 l -0.43399,0.43399 h -0.868 l -1.30199,-2.16999 -2.16998,0.43401 -1.30199,0.86798 h -0.86799 v 2.60398 l 0.43399,0.434 -0.43399,0.434 h -0.86799 l -0.434,0.43399 h -1.30199 l -0.434,0.434 h -0.86799 l -1.73599,-2.16998 -0.86798,0.43399 h -1.30199 l -2.16999,1.30199 0.43399,0.868 v 1.30199 l -0.86798,0.86799 -1.736,0.43399 -0.43399,0.434 h -0.868 l -0.43399,0.434 h -0.868 l -1.30198,-2.16998 h -1.30199 l -0.434,-0.434 0.868,-0.86799 h 0.43399 l 3.03797,-3.03797 0.43401,0.43399 -0.43401,-0.43399 0.868,-0.868 v -0.43399 l 1.30199,-1.30199 0.43399,0.43399 -0.43399,-0.868 1.30199,-1.30199 2.60398,-5.20796 0.43399,0.868 -0.43399,-1.73598 0.43399,-0.434 v -0.86799 l 0.868,-1.73599 v -1.73599 l 0.43399,-0.43399 v -3.03798 l 0.43401,-0.43399 v -2.60398 l -0.43401,-0.43399 v -3.47198 l -0.43399,-0.43399 v -1.736 l -0.43399,-0.43399 v -1.30199 l -3.47198,-6.94394 0.43399,-0.86799 -0.43399,0.434 -0.868,-0.868 v -0.43399 l -2.60398,-3.03798 0.43401,-0.434 -1.30199,-1.30198 -0.43401,0.43399 -3.03797,-2.60398 0.434,-0.43399 -0.86799,0.43399 -0.868,-0.86799 1.30199,-0.86799 h 2.60398 l 0.43399,-0.43399 v -1.30199 l 0.868,-1.30199 h 4.33996 l 0.868,1.30199 0.43399,1.73598 h 4.33997 l 0.434,-0.43399 v -1.30199 l 0.86799,-1.30199 0.434,0.43399 0.43399,-0.43399 z m -26.90778,0.43399 0.434,-0.43399 0.434,0.43399 0.43399,-0.43399 h 3.03798 l 0.86799,0.86798 v 1.30199 l 0.434,0.43401 v 0.43399 l -0.434,0.43399 -0.434,-0.43399 h -0.43399 l -0.434,-0.43399 0.434,-0.43401 v -0.86798 h -0.86799 v 0.43399 l -0.434,0.43399 h -0.434 l -0.43399,-0.43399 h -0.868 l -0.43399,-0.43399 h -0.434 l -0.434,-0.43401 z m -62.4955,-0.43399 h 4.77396 l 0.868,2.60398 0.86798,0.86798 0.43401,-0.43399 0.43399,0.43399 0.43399,-0.43399 h 2.60398 l 0.43401,-2.60398 0.43399,-0.43399 h 4.77395 l 0.43401,0.43399 0.43399,2.60398 0.868,0.43399 0.86798,-0.43399 h 2.60398 l 1.30199,-3.03797 h 4.77396 l 0.868,1.30199 v 1.30199 l 0.86799,0.86798 0.86799,-0.43399 h 3.03797 l 0.43401,-2.16999 0.86798,-0.86798 h 4.33998 l 0.43399,0.43399 v 0.868 l -0.43399,0.43399 -0.43401,-0.43399 v 0.43399 l 0.868,-0.43399 0.43399,0.86798 -2.60398,1.30199 -4.77395,3.47198 -0.43401,-0.434 0.43401,0.434 -5.20796,6.07595 -2.60398,5.20796 -1.30199,3.90595 v 1.30199 l -0.434,0.43401 v 3.03797 l -0.43399,0.43399 0.43399,7.37794 0.434,0.434 v 1.73599 l 1.30199,3.90597 3.47197,6.50995 3.03798,3.03797 v 0.43399 l 3.03797,2.60398 3.90597,2.16998 0.43399,1.30199 -0.43399,-0.43399 0.43399,-0.434 1.30199,0.86799 -1.30199,3.47198 h -3.90597 l -0.86798,-0.868 v -1.30199 l -0.868,-1.30199 h -3.90597 l -0.86799,1.30199 v 1.30199 l -2.16998,0.868 h -1.73599 l -0.43399,-0.434 -0.868,0.434 -1.30199,-3.47198 h -3.90597 l -0.86798,1.30199 v 1.30199 l -0.868,0.868 h -3.47198 l -0.43399,-0.434 -0.43399,0.434 -1.30199,-3.47198 h -3.90597 l -1.73598,3.47198 -0.43401,-0.434 h -3.90596 l -0.86799,-1.73599 0.43399,-1.30199 -0.43399,0.434 -0.434,-0.86799 5.64196,-3.47197 3.47196,-3.47198 0.43401,0.43401 0.43399,-0.43401 -0.43399,-0.43399 3.47196,-4.77397 2.60398,-6.07594 v -1.30199 l 0.868,-2.16999 v -2.60397 l 0.43399,-0.434 v -5.20795 l -0.43399,-0.43401 -0.43401,-4.33996 -0.86798,-1.73598 0.43399,-1.73598 -0.43399,0.86798 -2.16999,-4.77395 -3.03797,-4.33997 0.43399,-0.434 -0.43399,0.434 -3.47198,-3.47197 0.43401,-0.434 -0.43401,0.434 -2.16997,-1.73599 0.43399,-0.43399 -0.43399,0.43399 -1.30199,-0.86799 0.43399,-0.434 -0.86799,0.434 -0.86799,-0.86799 0.43399,-0.43399 -0.43399,-1.30199 0.43399,1.30199 -0.43399,0.43399 -0.868,-0.43399 v -2.16999 z m -67.26945,0 h 4.77396 l 1.30199,3.03797 h 3.90596 l 1.30199,-3.03797 h 4.77397 l 1.30199,3.03797 h 4.33996 l 0.434,-2.16999 0.86799,-0.86798 h 4.33997 l 0.86799,1.73598 v 1.30199 h 4.77396 l 0.43399,-2.60398 0.43401,-0.43399 h 4.77395 l 0.43401,0.43399 v 2.16999 l -0.43401,0.43399 -0.86798,-0.43399 0.43399,-1.30199 -0.43399,1.30199 0.43399,0.43399 -1.30199,0.86799 -0.43399,-0.434 0.43399,0.434 -3.03797,2.16998 -0.43401,-0.43399 -0.43399,0.43399 0.43399,0.434 -3.90597,3.90597 -2.16997,3.03797 -2.60398,5.20796 -0.868,2.60398 v 1.30199 l -0.43399,0.43399 v 2.16999 l -0.434,0.43399 v 7.81194 l 0.434,0.43399 v 1.73599 l 0.43399,0.43399 v 1.73599 l 0.868,2.60397 2.60398,5.20796 2.16997,3.03799 -0.43399,0.43399 0.43399,-0.43399 3.03799,3.03797 -0.43401,0.43399 1.30199,1.30199 0.868,-0.43399 0.43399,1.30199 0.43401,-0.434 4.77395,3.03797 -0.86798,0.868 v 1.30199 l -0.868,1.30199 -0.43399,-0.434 -0.43401,0.434 h -3.47196 l -1.30199,-3.47198 h -4.33997 l -0.86799,2.60398 -0.434,-0.86799 0.434,0.86799 -0.434,0.868 -0.434,-0.434 h -3.03797 l -0.434,0.434 -0.86799,-0.868 -0.86799,-2.60398 h -3.90597 l -1.30199,3.47198 h -4.77397 l -1.30199,-3.47198 h -3.90596 l -0.86799,1.30199 v 1.30199 l -0.868,0.868 -0.43399,-0.434 -0.434,0.434 h -1.73598 l -0.434,-0.434 -1.30199,0.434 -0.434,-0.434 v -1.30199 l -0.86799,-2.16998 6.50995,-4.33997 4.33996,-4.77395 3.47198,-6.07596 1.73598,-5.20796 v -1.30199 l 0.43399,-0.43399 v -9.98192 l -1.73598,-4.77397 v -1.30197 l -2.16999,-4.33998 -4.77395,-6.07594 0.43399,-0.434 -0.43399,0.434 -2.60398,-2.16998 0.43399,-0.434 -0.43399,0.434 -3.90597,-2.60398 0.86799,-0.43399 -0.43399,-1.30199 -0.434,0.86798 -0.434,-0.43399 v -1.30199 z m -66.40145,0 h 4.77396 l 0.43399,0.43399 0.434,2.60398 h 4.77396 l 0.43399,-2.60398 0.43401,-0.43399 h 4.33996 l 0.86799,0.86798 0.434,2.16999 h 4.33996 l 0.434,-0.43399 v -1.30199 l 0.86799,-1.30199 h 4.33997 l 0.43399,0.43399 0.43399,2.16999 0.868,0.86798 0.868,-0.43399 h 3.03797 l 1.30199,-3.03797 h 4.33996 l 0.868,1.30199 -0.434,0.86798 -0.86799,-0.86798 -0.43399,0.86798 0.43399,0.43401 -3.47198,2.16997 -1.30199,1.30199 -0.86798,0.434 -0.43401,-0.434 -0.86798,0.868 0.43399,0.43399 -3.03797,3.03798 -4.33997,7.37793 v 0.868 l -1.30199,3.03797 v 1.30199 l -0.434,0.43399 v 1.736 l -0.43399,0.43399 v 6.94394 l 0.43399,0.434 v 2.16998 l 0.434,0.434 v 1.73598 l -0.434,0.868 0.434,-0.868 3.03798,7.37795 3.03797,4.33996 4.77397,4.33996 -0.43401,0.434 0.43401,0.434 0.86798,-0.434 0.43401,0.434 -0.43401,0.43399 0.43401,0.434 0.86798,-0.434 0.43401,0.434 -0.43401,0.43399 0.868,-0.43399 2.60398,1.73598 -1.30199,3.47198 h -3.90597 l -0.868,-0.868 -0.43399,-2.60398 h -4.33996 l -0.43401,0.434 -0.43399,2.16998 -0.86799,0.868 -0.434,-0.434 h -3.03797 l -0.434,0.434 -0.86799,-1.30199 v -1.30199 l -0.86799,-0.868 h -3.90597 l -1.30199,3.47198 -0.43399,-0.434 -0.43401,0.434 h -2.16997 l -0.43401,-0.434 -0.43399,0.434 -0.868,-0.868 v -0.86799 l -0.86798,-1.73599 h -3.90597 l -1.73599,3.47198 -0.434,-0.434 h -1.73598 l -0.434,0.434 -0.86799,-0.434 -0.86799,0.434 -1.30199,-3.47198 h -1.30199 l -0.434,-0.43399 2.60398,-1.30199 3.47197,-2.60398 5.64196,-6.07595 3.47196,-6.50995 v -0.86799 l 0.868,-1.73599 0.43399,-3.90596 0.43401,-0.434 v -6.94395 l -0.43401,-0.43399 v -3.03797 l -0.43399,-0.43401 -0.868,-3.47196 -2.16997,-4.33996 -3.47198,-4.77397 -3.03797,-3.03797 -3.47197,-2.60398 0.43399,-0.434 -0.43399,0.434 -0.868,-0.434 0.434,-3.03797 z m -69.43943,0 h 4.33996 l 0.86799,0.86798 0.434,2.16999 h 4.33997 l 0.43399,-0.43399 v -1.30199 l 0.868,-1.30199 h 4.33996 l 0.868,1.30199 0.43399,1.73598 h 4.33996 l 0.434,-2.16999 0.86799,-0.86798 h 4.33996 l 0.868,1.30199 0.43399,1.73598 h 4.33997 l 0.43399,-1.73598 0.868,-1.30199 h 4.33996 l 0.868,0.86798 v 1.736 l -0.43401,0.43399 -0.43399,-0.43399 0.43399,0.43399 -3.47196,2.16998 -2.16999,2.16998 -1.30199,0.86799 -0.43399,-0.43399 0.43399,0.43399 -4.33996,5.64195 -3.03797,6.94394 -0.434,3.47198 -0.434,0.43399 v 3.03799 l -0.43399,0.43399 v 3.03797 l 0.43399,0.434 0.434,4.77396 0.434,0.434 0.43399,2.60398 0.868,1.30199 v 0.86798 l -0.434,0.43401 0.434,-0.43401 2.60397,4.77397 5.64196,6.07595 -0.43401,0.434 0.43401,-0.434 1.73598,1.30199 -0.43399,0.434 0.43399,-0.434 4.33996,2.60398 -1.73598,3.90597 h -3.47198 l -0.43399,-0.434 -0.43399,0.434 -0.868,-1.30199 -0.43399,-2.16999 h -4.33997 l -1.30199,3.47198 -0.43399,-0.434 h -0.86799 l -0.434,0.434 -2.16998,-0.434 -0.434,0.434 -0.86799,-1.30199 v -1.30199 l -0.86799,-0.868 h -3.90597 l -1.30199,3.47198 -0.43399,-0.434 -3.90597,0.434 -0.43401,-0.434 -0.43399,-2.16998 -0.868,-0.868 h -3.47196 l -1.73599,3.47198 -0.434,-0.434 -0.43399,0.434 h -3.03798 l -0.86799,-0.868 v -0.86799 l -0.86799,-1.73599 h -3.90597 l -0.43399,-0.43399 6.50994,-4.33997 5.64195,-6.50995 2.60398,-5.20796 v -0.86798 l 0.868,-1.73599 v -1.30199 l 0.43399,-0.434 v -1.73598 l 0.43399,-0.434 v -9.11393 l -0.43399,-0.43399 v -1.73598 l -0.43399,-0.43401 v -1.30199 l -0.43401,-0.43399 -0.43399,-2.16997 -4.33996,-7.37795 -7.37794,-6.94394 1.30199,-0.86799 z m -9.54792,0.43399 0.43399,-0.43399 h 2.60398 l 0.43399,0.43399 v 0.868 l -0.43399,0.43399 h -0.868 l -0.43399,-0.43399 h -0.43399 l -0.43401,-0.43401 h -0.43399 z m -65.96747,-0.43399 h 4.33997 l 0.86799,0.86798 0.434,2.16999 h 4.33996 l 1.30199,-3.03797 h 4.77397 l 0.43399,0.43399 0.43399,2.60398 h 4.77397 l 0.43399,-2.16999 0.868,-0.86798 h 4.33996 l 0.868,1.73598 v 1.30199 l 0.86798,0.43399 h 0.868 l 0.43399,-0.43399 h 2.60398 l 0.434,-2.60398 0.434,-0.43399 h 4.77396 l 0.43399,0.43399 0.434,2.16999 0.86799,1.30198 -3.03797,2.16998 -4.33997,4.33997 -2.16998,3.03797 -2.60397,5.20796 v 0.86798 l -1.30199,3.03799 v 2.16997 l -0.43401,0.43401 v 8.67992 l 0.43401,0.434 v 1.73598 l 0.43399,0.434 v 1.30199 l 1.30199,2.60397 v 0.868 l 2.16998,4.33996 2.60398,3.47198 -0.434,0.43399 0.434,-0.43399 3.03797,3.03797 4.33996,3.03798 -0.86798,0.43399 0.43399,0.434 h 0.43399 l -0.43399,-0.434 0.868,-0.43399 0.86798,0.86799 h 0.868 l 0.43399,0.434 -0.43399,0.43399 h -3.90597 l -1.73598,3.47198 -0.434,-0.868 -1.73598,0.868 h -0.868 l -0.43399,-0.434 -0.434,0.434 -1.30199,-3.47198 h -3.90596 l -0.868,0.868 v 1.30199 l -0.868,1.30199 -0.43399,-0.434 -0.43399,0.434 h -2.16999 l -0.43399,-0.434 -0.43399,0.434 -0.868,-1.30199 -0.43399,-2.16999 h -4.33998 l -1.30199,3.47198 h -3.47196 l -0.434,-0.434 -0.434,0.434 -0.86799,-0.868 -0.434,-2.60398 h -4.33996 l -0.434,0.434 -0.43399,2.16998 -0.868,0.868 -0.43399,-0.434 h -3.03797 l -0.43401,0.434 -0.86798,-0.868 -0.43401,-2.16998 -1.30199,-0.86799 3.03799,-1.73599 4.33996,-3.47197 v -0.434 l 3.47197,-3.47196 3.03797,-5.20796 v -0.868 l 1.73599,-3.90597 0.434,-3.47197 0.43399,-0.43399 v -8.67994 l -0.43399,-0.43399 v -1.73598 l -0.868,-1.736 -0.43399,-2.60396 -4.33997,-7.37795 -5.20796,-5.20795 -3.90597,-2.60398 0.43401,-0.43399 v -1.736 z m -29.07776,0.43399 v 0.868 l -0.43399,0.43399 -0.434,-0.43399 v 0.43399 l 0.86799,0.43399 -5.20795,3.47198 -0.868,-0.434 0.434,0.434 -5.20796,5.20795 v 0.434 l -2.16998,2.60397 -3.03797,6.50995 v 1.30199 l -0.868,2.16999 v 2.60398 l -0.43399,0.43399 v 5.64195 l 0.43399,0.434 0.434,3.90597 0.434,0.43399 0.86799,3.47198 2.60398,5.20796 6.94394,7.37793 6.07595,3.47197 v 1.30199 l -0.86799,2.16999 h -3.03798 l -1.30199,-0.868 v -2.60398 l -1.30199,-0.86799 -3.03797,-0.434 -1.73599,2.16999 -3.03797,-0.868 -0.434,-0.43399 v -0.868 0.434 l -0.86799,0.434 -0.434,-0.434 0.434,-0.434 -0.434,-0.43399 v -0.86799 l 0.434,-0.434 -0.434,-0.86799 -3.03797,-0.868 -0.434,-0.43399 h -0.43399 l -1.73599,2.16998 -4.773957,-1.30199 -0.434,-0.434 0.434,-0.86799 v -1.73599 l -0.86799,-0.86798 h -0.868 l -1.73598,-0.868 h -1.301989 l -1.735986,2.16999 -3.037976,-0.868 -1.301989,-0.868 v -2.60398 l -0.867992,-0.86798 h -0.867994 l -1.735985,-0.868 h -1.30199 l -1.735985,2.16999 -0.433996,-0.43401 -2.169983,-0.43399 -1.301989,-0.868 0.433996,-0.43399 h 0.867993 -0.867993 l -0.433996,0.43399 -0.867993,-0.43399 0.867993,-1.30199 h 1.735985 l 0.433998,-0.43399 2.603978,-0.43401 6.943942,-3.47196 6.075951,-5.64196 1.73598,-2.60398 0.434,-1.30199 0.86799,-0.86798 0.868,-1.736 0.86799,-3.47196 0.434,-0.43401 0.43399,-3.90595 0.433997,-0.43401 v -4.77395 l -0.433997,-0.434 v -2.16998 l -0.43399,-0.434 -0.434,-3.03797 -0.86799,-1.73599 0.43399,-0.434 h 2.169987 l 0.43399,-0.43399 2.16999,3.03797 0.43399,-0.43399 3.47197,-0.434 v -1.30199 l 0.86799,-2.16998 2.60398,-0.43399 0.434,-0.43401 h 1.30199 l 1.73598,2.60398 h 1.73599 l 0.43399,-0.43399 h 1.30199 l 0.868,-0.434 v -3.03798 l 0.43399,-0.43399 h 1.30199 l 0.434,-0.43399 h 2.60398 z m 411.42865,-9.98192 -2.16999,1.30199 -0.43399,3.03798 h -4.77397 l -1.73598,-1.736 -5.20796,0.868 -0.86799,1.30199 -394.50278,-0.868 -30.379744,5.20796 20.397824,-9.98191 402.74872,1.30199 13.45388,-1.73599 z M 42.869942,78.110683 43.30394,77.676691 h 8.679928 l 0.433997,0.433992 -0.433997,0.434005 h -1.301989 1.301989 l 0.433997,-0.434005 0.433996,0.434005 v 5.641949 l -0.433996,0.433993 h -1.735986 l -0.433996,0.434005 H 43.737936 L 43.30394,84.62063 44.171932,83.752645 h 0.433997 -0.433997 L 43.737936,83.31864 v -4.33996 l 0.433996,-0.433992 h 0.867993 -1.301989 v 5.641949 L 43.30394,84.62063 42.869942,84.186637 Z"
     fill="#000000"
     fill-rule="evenodd"
     id="path1"
     style="stroke-width:0.433996" />
</svg>
