<svg xmlns="http://www.w3.org/2000/svg" width="1448" height="1086" viewBox="0 0 1448 1086">
<rect width="100%" height="100%" fill="white"/>
<path d="M 1392,612 L 1360,589 L 1357,574 L 1336,573 L 1317,560 L 1317,501 L 1308,492 L 1163,492 L 1150,486 L 1158,484 L 1156,468 L 1124,468 L 1122,484 L 1129,487 L 936,487 L 944,460 L 989,460 L 994,439 L 1004,437 L 1004,408 L 994,406 L 994,378 L 1004,376 L 1004,359 L 955,351 L 950,343 L 948,251 L 943,251 L 937,347 L 876,344 L 869,332 L 796,331 L 789,309 L 758,309 L 757,325 L 737,344 L 676,349 L 674,335 L 658,329 L 648,338 L 647,353 L 591,360 L 588,352 L 573,352 L 567,363 L 519,369 L 514,440 L 513,399 L 475,411 L 199,412 L 135,399 L 129,406 L 132,441 L 199,431 L 475,434 L 514,445 L 517,464 L 529,467 L 529,484 L 349,485 L 352,468 L 327,468 L 329,485 L 263,501 L 247,534 L 225,534 L 223,517 L 214,513 L 207,534 L 171,535 L 143,545 L 85,598 L 132,631 L 128,645 L 138,653 L 129,659 L 137,681 L 131,690 L 152,724 L 159,721 L 172,737 L 190,737 L 193,745 L 210,745 L 222,756 L 239,756 L 246,765 L 261,764 L 303,784 L 1194,782 L 1209,771 L 1219,774 L 1235,762 L 1243,766 L 1256,755 L 1262,759 L 1273,749 L 1283,752 L 1341,727 L 1342,717 L 1361,700 L 1359,683 L 1367,679 L 1356,641 L 1373,642 Z M 551,762 L 552,763 L 551,764 L 551,766 L 550,767 L 550,769 L 549,770 L 546,770 L 542,766 L 543,765 L 545,765 L 546,764 L 547,764 L 548,763 L 549,763 L 550,762 Z M 489,763 L 490,762 L 491,762 L 492,763 L 493,763 L 494,764 L 495,764 L 496,765 L 498,765 L 499,766 L 500,766 L 501,767 L 500,768 L 500,769 L 498,771 L 497,770 L 491,770 L 490,769 L 490,767 L 489,766 Z M 1186,760 L 1187,761 L 1187,766 L 1185,768 L 1182,768 L 1181,769 L 1179,769 L 1178,770 L 1177,769 L 1177,767 L 1178,766 L 1179,767 L 1178,766 L 1177,767 L 1176,766 L 1176,765 L 1177,764 L 1179,764 L 1180,763 L 1181,763 L 1182,762 L 1183,762 L 1184,763 L 1183,762 L 1184,761 L 1185,761 Z M 1146,687 L 1148,687 L 1149,686 L 1156,686 L 1157,687 L 1156,688 L 1155,688 L 1156,688 L 1157,687 L 1159,687 L 1161,689 L 1162,689 L 1163,690 L 1163,691 L 1164,692 L 1163,693 L 1164,692 L 1165,693 L 1165,694 L 1166,695 L 1166,697 L 1167,698 L 1167,702 L 1166,703 L 1166,705 L 1165,706 L 1165,707 L 1163,709 L 1162,708 L 1163,709 L 1161,711 L 1160,710 L 1161,711 L 1159,713 L 1157,713 L 1156,714 L 1149,714 L 1148,713 L 1146,713 L 1144,711 L 1145,710 L 1144,709 L 1143,710 L 1141,708 L 1141,707 L 1140,706 L 1140,705 L 1139,704 L 1139,702 L 1138,701 L 1138,699 L 1139,698 L 1139,695 L 1140,694 L 1140,693 L 1143,690 L 1144,691 L 1143,690 Z M 995,686 L 1004,686 L 1005,687 L 1006,687 L 1011,692 L 1011,693 L 1012,694 L 1012,695 L 1013,696 L 1013,704 L 1012,705 L 1012,706 L 1011,707 L 1011,708 L 1008,711 L 1007,710 L 1008,711 L 1007,712 L 1006,712 L 1005,713 L 1004,713 L 1003,714 L 996,714 L 995,713 L 993,713 L 992,712 L 991,712 L 988,709 L 988,708 L 986,706 L 986,704 L 985,703 L 985,697 L 986,696 L 986,694 L 987,693 L 987,692 L 991,688 L 992,688 L 993,687 L 994,687 Z M 839,686 L 847,686 L 848,687 L 847,688 L 848,687 L 850,687 L 852,689 L 853,689 L 854,690 L 854,691 L 856,693 L 856,694 L 857,695 L 857,704 L 856,705 L 856,706 L 855,707 L 855,708 L 852,711 L 851,710 L 852,711 L 851,712 L 850,712 L 849,713 L 848,713 L 847,714 L 840,714 L 839,713 L 837,713 L 835,711 L 836,710 L 835,711 L 831,707 L 831,706 L 832,705 L 831,706 L 830,705 L 830,704 L 829,703 L 829,697 L 830,696 L 830,694 L 832,692 L 833,693 L 832,692 L 832,691 L 834,689 L 835,689 L 837,687 L 838,687 Z M 680,687 L 682,687 L 683,686 L 691,686 L 692,687 L 693,687 L 694,688 L 695,688 L 698,691 L 698,692 L 699,693 L 699,694 L 700,695 L 700,696 L 701,697 L 701,703 L 700,704 L 700,705 L 699,706 L 699,707 L 698,708 L 698,709 L 696,711 L 695,711 L 693,713 L 691,713 L 690,714 L 683,714 L 682,713 L 681,713 L 680,712 L 679,712 L 678,711 L 679,710 L 676,707 L 675,708 L 674,707 L 674,706 L 673,705 L 673,701 L 672,700 L 672,699 L 673,698 L 673,695 L 674,694 L 674,693 L 676,691 L 677,692 L 676,691 Z M 516,686 L 524,686 L 525,687 L 527,687 L 533,693 L 533,694 L 534,695 L 534,698 L 535,699 L 535,701 L 534,702 L 534,704 L 533,705 L 533,706 L 532,707 L 532,708 L 529,711 L 528,710 L 529,711 L 528,712 L 527,712 L 526,713 L 525,713 L 524,714 L 517,714 L 516,713 L 514,713 L 512,711 L 513,710 L 512,711 L 511,711 L 510,710 L 511,709 L 510,708 L 510,707 L 510,708 L 509,709 L 508,708 L 508,707 L 507,706 L 507,705 L 506,704 L 506,696 L 507,695 L 507,694 L 508,693 L 508,692 L 509,691 L 510,692 L 510,693 L 510,692 L 511,691 L 510,690 L 512,688 L 513,688 L 514,687 L 515,687 Z M 348,686 L 357,686 L 358,687 L 359,687 L 360,688 L 361,688 L 365,692 L 365,693 L 366,694 L 366,695 L 367,696 L 367,704 L 366,705 L 366,706 L 365,707 L 365,708 L 362,711 L 361,710 L 362,711 L 361,712 L 360,712 L 359,713 L 358,713 L 357,714 L 349,714 L 348,713 L 347,713 L 346,712 L 345,712 L 342,709 L 343,708 L 342,709 L 340,707 L 340,706 L 339,705 L 339,702 L 338,701 L 338,699 L 339,698 L 339,695 L 340,694 L 340,693 L 342,691 L 343,692 L 342,691 L 346,687 L 347,687 Z M 1289,660 L 1291,660 L 1292,659 L 1298,659 L 1299,660 L 1301,660 L 1303,662 L 1304,662 L 1306,664 L 1305,665 L 1304,665 L 1305,665 L 1306,664 L 1307,665 L 1307,666 L 1308,667 L 1308,669 L 1309,670 L 1309,676 L 1308,677 L 1308,679 L 1302,685 L 1301,685 L 1300,686 L 1297,686 L 1296,687 L 1293,687 L 1292,686 L 1290,686 L 1289,685 L 1288,685 L 1283,680 L 1283,679 L 1282,678 L 1282,676 L 1281,675 L 1281,670 L 1282,669 L 1282,667 L 1283,666 L 1283,665 L 1287,661 L 1288,661 Z M 214,657 L 216,659 L 216,660 L 217,661 L 217,662 L 218,663 L 218,673 L 216,675 L 216,676 L 213,679 L 212,679 L 210,681 L 207,681 L 206,682 L 202,682 L 201,681 L 199,681 L 198,680 L 197,680 L 191,674 L 191,672 L 190,671 L 190,666 L 191,665 L 196,665 L 197,664 L 199,664 L 200,663 L 201,663 L 202,662 L 204,662 L 205,661 L 206,661 L 207,660 L 208,660 L 209,659 L 210,659 L 211,658 L 213,658 Z M 1238,632 L 1240,634 L 1241,638 L 1245,641 L 1240,648 L 1240,650 L 1237,656 L 1237,659 L 1236,660 L 1236,664 L 1235,665 L 1235,681 L 1236,682 L 1236,686 L 1237,687 L 1237,690 L 1238,691 L 1238,693 L 1244,705 L 1251,713 L 1251,714 L 1259,721 L 1260,721 L 1265,725 L 1273,728 L 1275,730 L 1274,731 L 1274,733 L 1272,735 L 1271,735 L 1273,735 L 1274,736 L 1273,737 L 1270,737 L 1267,733 L 1264,733 L 1263,734 L 1258,735 L 1257,737 L 1257,740 L 1258,741 L 1256,743 L 1254,743 L 1253,744 L 1250,744 L 1249,745 L 1247,745 L 1244,740 L 1239,741 L 1236,743 L 1234,743 L 1234,749 L 1235,750 L 1234,751 L 1232,751 L 1231,752 L 1228,752 L 1227,753 L 1225,753 L 1221,748 L 1219,749 L 1216,749 L 1211,752 L 1212,754 L 1212,757 L 1210,759 L 1206,760 L 1205,761 L 1203,761 L 1202,762 L 1200,762 L 1197,757 L 1194,757 L 1193,756 L 1195,754 L 1196,754 L 1203,747 L 1204,748 L 1203,747 L 1205,745 L 1205,744 L 1208,741 L 1209,742 L 1208,740 L 1211,737 L 1217,725 L 1218,727 L 1217,723 L 1218,722 L 1218,720 L 1220,716 L 1220,712 L 1221,711 L 1221,704 L 1222,703 L 1222,697 L 1221,696 L 1221,688 L 1220,687 L 1220,683 L 1219,682 L 1219,679 L 1211,663 L 1212,661 L 1211,662 L 1209,660 L 1209,659 L 1203,652 L 1204,651 L 1201,648 L 1200,649 L 1193,643 L 1194,642 L 1192,643 L 1190,641 L 1193,639 L 1199,639 L 1200,638 L 1200,635 L 1202,632 L 1212,632 L 1214,635 L 1215,639 L 1225,639 L 1226,638 L 1226,635 L 1228,632 L 1229,633 L 1230,632 Z M 1176,633 L 1177,632 L 1178,633 L 1179,632 L 1186,632 L 1188,634 L 1188,637 L 1189,638 L 1189,639 L 1188,640 L 1187,639 L 1186,639 L 1185,638 L 1186,637 L 1186,635 L 1184,635 L 1184,636 L 1183,637 L 1182,637 L 1181,636 L 1179,636 L 1178,635 L 1177,635 L 1176,634 Z M 1032,632 L 1043,632 L 1045,638 L 1047,640 L 1048,639 L 1049,640 L 1050,639 L 1056,639 L 1057,633 L 1058,632 L 1069,632 L 1070,633 L 1071,639 L 1073,640 L 1075,639 L 1081,639 L 1084,632 L 1095,632 L 1097,635 L 1097,638 L 1099,640 L 1101,639 L 1108,639 L 1109,634 L 1111,632 L 1121,632 L 1122,633 L 1122,635 L 1121,636 L 1120,635 L 1120,636 L 1122,635 L 1123,637 L 1117,640 L 1106,648 L 1105,647 L 1106,648 L 1094,662 L 1088,674 L 1085,683 L 1085,686 L 1084,687 L 1084,694 L 1083,695 L 1084,712 L 1085,713 L 1085,717 L 1088,726 L 1096,741 L 1103,748 L 1103,749 L 1110,755 L 1119,760 L 1120,763 L 1119,762 L 1120,761 L 1123,763 L 1120,771 L 1111,771 L 1109,769 L 1109,766 L 1107,763 L 1098,763 L 1096,766 L 1096,769 L 1091,771 L 1087,771 L 1086,770 L 1084,771 L 1081,763 L 1072,763 L 1070,766 L 1070,769 L 1068,771 L 1060,771 L 1059,770 L 1058,771 L 1055,763 L 1046,763 L 1042,771 L 1041,770 L 1032,770 L 1030,766 L 1031,763 L 1030,764 L 1029,762 L 1042,754 L 1050,746 L 1051,747 L 1052,746 L 1051,745 L 1059,734 L 1065,720 L 1065,717 L 1067,712 L 1067,706 L 1068,705 L 1068,693 L 1067,692 L 1066,682 L 1064,678 L 1065,674 L 1064,676 L 1059,665 L 1052,655 L 1053,654 L 1052,655 L 1044,647 L 1045,646 L 1044,647 L 1039,643 L 1040,642 L 1039,643 L 1036,641 L 1037,640 L 1035,641 L 1033,639 L 1034,638 L 1033,635 L 1034,638 L 1033,639 L 1031,638 L 1031,633 Z M 877,632 L 888,632 L 891,639 L 900,639 L 903,632 L 914,632 L 917,639 L 927,639 L 928,634 L 930,632 L 940,632 L 942,636 L 942,639 L 953,639 L 954,633 L 955,632 L 966,632 L 967,633 L 967,638 L 966,639 L 964,638 L 965,635 L 964,638 L 965,639 L 962,641 L 961,640 L 962,641 L 955,646 L 954,645 L 953,646 L 954,647 L 945,656 L 940,663 L 934,675 L 932,681 L 932,684 L 931,685 L 931,690 L 930,691 L 930,709 L 931,710 L 931,714 L 932,715 L 932,719 L 934,725 L 940,737 L 945,744 L 944,745 L 945,744 L 952,751 L 951,752 L 954,755 L 956,754 L 957,757 L 958,756 L 969,763 L 967,765 L 967,768 L 965,771 L 964,770 L 963,771 L 955,771 L 952,763 L 942,763 L 940,769 L 939,767 L 940,769 L 939,771 L 938,770 L 931,770 L 930,771 L 928,769 L 926,763 L 917,763 L 914,771 L 903,771 L 900,763 L 891,763 L 889,766 L 889,769 L 887,771 L 886,770 L 885,771 L 881,771 L 880,770 L 877,771 L 876,770 L 876,767 L 874,762 L 889,752 L 899,741 L 907,727 L 911,715 L 911,712 L 912,711 L 912,688 L 908,677 L 908,674 L 903,664 L 892,650 L 893,649 L 892,650 L 886,645 L 887,644 L 886,645 L 877,639 L 879,638 L 878,635 L 877,637 L 876,636 L 876,633 Z M 724,632 L 735,632 L 736,633 L 737,639 L 748,639 L 749,633 L 750,632 L 760,632 L 762,634 L 763,639 L 773,639 L 774,638 L 774,635 L 776,632 L 786,632 L 787,633 L 788,638 L 790,640 L 792,639 L 799,639 L 802,632 L 812,632 L 814,635 L 813,637 L 811,635 L 810,637 L 811,638 L 803,643 L 800,646 L 798,647 L 797,646 L 795,648 L 796,649 L 789,656 L 779,673 L 779,675 L 776,682 L 776,685 L 775,686 L 775,690 L 774,691 L 774,707 L 775,708 L 775,713 L 776,714 L 776,718 L 775,720 L 776,718 L 783,735 L 790,745 L 801,755 L 800,756 L 801,757 L 803,756 L 804,757 L 803,758 L 804,759 L 806,758 L 807,759 L 806,760 L 808,759 L 814,763 L 811,771 L 802,771 L 800,769 L 799,763 L 789,763 L 788,764 L 787,769 L 785,771 L 784,770 L 777,770 L 776,771 L 774,768 L 774,765 L 772,763 L 763,763 L 760,771 L 759,770 L 758,771 L 753,771 L 752,770 L 751,771 L 749,769 L 749,767 L 747,763 L 738,763 L 734,771 L 733,770 L 729,770 L 728,771 L 726,770 L 724,771 L 721,763 L 718,763 L 717,762 L 723,759 L 731,753 L 744,739 L 752,724 L 752,722 L 754,718 L 755,709 L 756,708 L 756,692 L 755,691 L 755,684 L 754,683 L 752,675 L 747,665 L 739,654 L 732,647 L 724,641 L 725,640 L 724,641 L 722,640 L 723,633 Z M 564,632 L 574,632 L 576,634 L 577,639 L 587,639 L 588,638 L 588,635 L 590,632 L 600,632 L 602,635 L 603,639 L 613,639 L 614,634 L 616,632 L 626,632 L 628,635 L 629,639 L 639,639 L 640,635 L 642,632 L 652,632 L 654,634 L 654,638 L 653,639 L 652,638 L 653,639 L 645,644 L 640,649 L 637,651 L 636,650 L 637,651 L 627,664 L 620,680 L 619,688 L 618,689 L 618,696 L 617,697 L 617,704 L 618,705 L 619,716 L 620,717 L 621,723 L 623,726 L 623,728 L 622,729 L 623,728 L 629,739 L 642,753 L 641,754 L 642,753 L 646,756 L 645,757 L 646,756 L 656,762 L 652,771 L 644,771 L 643,770 L 642,771 L 640,768 L 639,763 L 629,763 L 626,771 L 625,770 L 623,770 L 622,771 L 617,770 L 616,771 L 614,768 L 614,765 L 612,763 L 603,763 L 600,771 L 599,770 L 590,771 L 589,770 L 588,765 L 586,763 L 578,763 L 574,771 L 573,770 L 572,771 L 565,771 L 563,769 L 563,767 L 561,763 L 552,763 L 551,762 L 566,752 L 579,737 L 585,725 L 585,723 L 587,719 L 587,716 L 588,715 L 588,711 L 589,710 L 589,689 L 588,688 L 588,684 L 587,683 L 587,680 L 586,679 L 585,674 L 575,657 L 558,641 L 561,639 Z M 542,633 L 543,632 L 549,632 L 550,633 L 550,635 L 549,636 L 547,636 L 546,635 L 545,635 L 544,634 L 543,634 Z M 390,632 L 400,632 L 402,634 L 403,639 L 413,639 L 416,632 L 427,632 L 428,633 L 429,639 L 440,639 L 441,634 L 443,632 L 453,632 L 455,636 L 455,639 L 457,640 L 459,640 L 460,639 L 466,639 L 467,633 L 468,632 L 479,632 L 480,633 L 481,638 L 483,641 L 476,646 L 466,656 L 461,663 L 455,675 L 455,677 L 452,684 L 452,689 L 451,690 L 451,710 L 452,711 L 452,715 L 453,716 L 453,719 L 456,725 L 456,727 L 461,737 L 467,745 L 466,746 L 467,745 L 474,752 L 484,759 L 482,760 L 483,761 L 484,761 L 483,760 L 485,759 L 487,761 L 489,761 L 490,762 L 489,763 L 480,763 L 476,771 L 475,769 L 471,771 L 469,771 L 468,770 L 467,771 L 464,763 L 455,763 L 453,765 L 453,768 L 451,771 L 450,770 L 449,771 L 444,771 L 443,770 L 442,771 L 440,768 L 439,763 L 429,763 L 426,771 L 418,771 L 417,770 L 416,771 L 414,769 L 413,763 L 403,763 L 402,764 L 401,769 L 399,771 L 398,770 L 391,770 L 390,771 L 388,769 L 387,764 L 384,762 L 391,758 L 401,750 L 401,749 L 409,741 L 416,729 L 416,727 L 420,718 L 421,710 L 422,709 L 422,689 L 421,688 L 421,684 L 419,680 L 418,674 L 408,657 L 396,645 L 387,639 L 388,638 L 388,634 Z M 323,633 L 323,635 L 322,636 L 321,635 L 321,636 L 323,637 L 311,645 L 309,644 L 310,645 L 298,657 L 298,658 L 293,664 L 286,679 L 286,682 L 284,687 L 284,693 L 283,694 L 283,707 L 284,708 L 285,717 L 286,718 L 288,726 L 294,738 L 310,755 L 324,763 L 324,766 L 322,771 L 315,771 L 312,769 L 312,763 L 309,761 L 302,760 L 298,765 L 291,763 L 290,762 L 290,760 L 290,761 L 288,762 L 287,761 L 288,760 L 287,759 L 287,757 L 288,756 L 287,754 L 280,752 L 279,751 L 278,751 L 274,756 L 263,753 L 262,752 L 263,750 L 263,746 L 261,744 L 259,744 L 255,742 L 252,742 L 248,747 L 241,745 L 238,743 L 238,737 L 236,735 L 234,735 L 230,733 L 227,733 L 223,738 L 222,737 L 217,736 L 214,734 L 215,733 L 217,733 L 215,733 L 214,734 L 212,733 L 214,730 L 218,730 L 219,729 L 225,728 L 241,720 L 255,707 L 259,701 L 260,698 L 262,696 L 264,692 L 266,684 L 267,683 L 268,674 L 269,673 L 269,662 L 268,661 L 268,656 L 267,655 L 266,648 L 264,644 L 265,643 L 270,643 L 271,642 L 276,649 L 277,648 L 285,647 L 285,644 L 287,639 L 293,638 L 294,637 L 297,637 L 301,643 L 305,643 L 306,642 L 309,642 L 311,641 L 311,634 L 312,633 L 315,633 L 316,632 L 322,632 Z M 1271,610 L 1266,613 L 1265,620 L 1254,620 L 1250,616 L 1238,618 L 1236,621 L 327,619 L 257,631 L 304,608 L 1232,611 L 1263,607 Z M 137,414 L 138,413 L 158,413 L 159,414 L 158,415 L 155,415 L 158,415 L 159,414 L 160,415 L 160,428 L 159,429 L 155,429 L 154,430 L 139,430 L 138,429 L 140,427 L 141,427 L 140,427 L 139,426 L 139,416 L 140,415 L 142,415 L 139,415 L 139,428 L 138,429 L 137,428 Z" fill="black" fill-rule="evenodd"/>
</svg>