<svg xmlns="http://www.w3.org/2000/svg" width="1448" height="1086" viewBox="0 0 1448 1086">
<rect width="100%" height="100%" fill="white"/>
<path d="M 1390,534 L 1289,493 L 1252,486 L 1172,492 L 1168,467 L 1117,470 L 1114,478 L 1077,471 L 1066,480 L 1051,468 L 940,468 L 915,489 L 888,489 L 885,467 L 898,467 L 927,443 L 953,439 L 955,375 L 947,366 L 857,352 L 847,304 L 839,352 L 796,341 L 792,329 L 739,330 L 737,341 L 716,342 L 708,355 L 692,356 L 679,340 L 671,357 L 635,364 L 607,358 L 604,370 L 552,383 L 545,405 L 204,400 L 202,427 L 506,433 L 518,442 L 546,442 L 543,487 L 885,489 L 517,489 L 479,473 L 443,489 L 408,489 L 405,482 L 385,489 L 345,489 L 342,482 L 191,489 L 171,482 L 118,500 L 87,524 L 56,604 L 61,643 L 103,643 L 120,665 L 128,663 L 138,679 L 147,677 L 212,731 L 277,752 L 296,750 L 303,759 L 317,755 L 324,764 L 339,760 L 348,769 L 375,769 L 376,762 L 393,769 L 400,762 L 416,769 L 423,762 L 440,769 L 447,762 L 463,769 L 469,762 L 484,769 L 489,762 L 505,769 L 511,762 L 526,769 L 533,762 L 549,769 L 556,762 L 572,769 L 578,762 L 595,769 L 602,762 L 617,769 L 624,762 L 640,769 L 647,762 L 664,769 L 680,762 L 688,769 L 714,769 L 716,762 L 734,769 L 753,762 L 758,769 L 764,762 L 782,769 L 789,762 L 800,769 L 803,762 L 815,769 L 822,762 L 839,769 L 845,762 L 862,769 L 879,762 L 885,769 L 892,762 L 909,769 L 914,762 L 955,769 L 957,762 L 969,769 L 975,762 L 1082,769 L 1095,762 L 1105,769 L 1106,762 L 1129,765 L 1130,757 L 1174,750 L 1177,741 L 1194,742 L 1195,734 L 1232,719 L 1239,704 L 1246,707 L 1275,674 L 1287,673 L 1289,662 L 1319,645 L 1336,618 L 1372,600 L 1372,590 L 1389,588 Z M 848,702 L 850,700 L 893,700 L 894,701 L 894,705 L 897,708 L 897,709 L 903,715 L 903,716 L 906,719 L 906,720 L 908,722 L 908,724 L 909,725 L 909,726 L 910,727 L 911,727 L 912,728 L 916,728 L 917,727 L 918,727 L 919,728 L 919,736 L 920,737 L 920,739 L 921,740 L 921,742 L 922,743 L 922,744 L 923,745 L 923,746 L 927,750 L 926,751 L 916,751 L 915,752 L 914,752 L 914,753 L 912,755 L 910,753 L 910,751 L 892,751 L 889,754 L 887,754 L 886,753 L 886,751 L 881,751 L 880,750 L 881,749 L 882,749 L 882,748 L 884,746 L 884,745 L 885,744 L 885,743 L 886,742 L 886,741 L 887,740 L 887,738 L 888,737 L 888,723 L 887,722 L 887,720 L 886,719 L 886,718 L 885,717 L 885,716 L 883,714 L 883,713 L 879,709 L 878,709 L 876,707 L 875,707 L 874,706 L 873,706 L 872,705 L 871,705 L 870,704 L 867,704 L 866,703 L 857,703 L 856,704 L 853,704 L 852,705 L 851,705 L 850,704 L 851,703 L 850,703 L 850,704 L 851,705 L 850,706 L 849,706 L 848,707 L 847,707 L 846,706 L 847,705 L 847,704 L 848,703 Z M 677,706 L 679,704 L 679,703 L 680,702 L 680,701 L 681,700 L 725,700 L 726,701 L 725,702 L 725,703 L 726,704 L 726,705 L 729,708 L 729,709 L 733,713 L 733,714 L 736,717 L 736,718 L 738,720 L 738,721 L 740,723 L 740,725 L 742,727 L 743,727 L 744,728 L 748,728 L 749,729 L 748,728 L 750,726 L 751,727 L 751,737 L 752,738 L 752,740 L 753,741 L 753,743 L 754,744 L 754,745 L 756,747 L 756,748 L 758,750 L 757,751 L 742,751 L 739,754 L 738,754 L 737,753 L 737,752 L 736,751 L 717,751 L 714,754 L 713,754 L 712,753 L 712,750 L 713,749 L 714,750 L 713,749 L 714,748 L 714,747 L 717,744 L 717,743 L 718,742 L 718,740 L 719,739 L 719,737 L 720,736 L 720,726 L 719,725 L 719,722 L 718,721 L 718,719 L 717,718 L 717,717 L 715,715 L 715,714 L 709,708 L 708,708 L 706,706 L 705,706 L 704,705 L 703,705 L 702,704 L 699,704 L 698,703 L 689,703 L 688,704 L 685,704 L 684,705 L 683,705 L 682,706 L 681,706 L 680,707 L 679,707 L 678,708 L 677,707 Z M 1017,701 L 1018,700 L 1052,700 L 1053,699 L 1059,699 L 1060,700 L 1061,700 L 1062,701 L 1062,704 L 1066,708 L 1066,709 L 1069,712 L 1069,713 L 1073,717 L 1073,718 L 1076,721 L 1076,722 L 1077,723 L 1077,726 L 1078,727 L 1079,727 L 1080,728 L 1082,728 L 1083,729 L 1083,736 L 1084,737 L 1084,740 L 1085,741 L 1085,743 L 1087,745 L 1087,746 L 1091,750 L 1090,751 L 1084,751 L 1081,754 L 1080,754 L 1079,753 L 1079,751 L 1062,751 L 1061,752 L 1060,752 L 1060,753 L 1059,754 L 1056,754 L 1055,753 L 1056,752 L 1057,752 L 1056,752 L 1055,751 L 1050,751 L 1049,750 L 1052,747 L 1052,746 L 1053,745 L 1053,744 L 1054,743 L 1054,742 L 1055,741 L 1055,739 L 1056,738 L 1056,735 L 1057,734 L 1057,726 L 1056,725 L 1056,722 L 1055,721 L 1055,719 L 1056,718 L 1055,719 L 1054,718 L 1054,717 L 1053,716 L 1054,715 L 1053,716 L 1052,715 L 1052,714 L 1046,708 L 1045,708 L 1043,706 L 1042,706 L 1041,705 L 1039,705 L 1038,704 L 1036,704 L 1035,703 L 1035,702 L 1034,703 L 1025,703 L 1024,704 L 1022,704 L 1021,705 L 1019,705 L 1018,706 L 1017,706 L 1016,707 L 1015,707 L 1014,706 L 1016,704 L 1016,703 L 1017,702 Z M 933,701 L 934,700 L 975,700 L 976,701 L 975,702 L 976,703 L 976,700 L 977,699 L 978,700 L 978,704 L 980,706 L 980,707 L 985,712 L 985,713 L 988,716 L 988,717 L 990,719 L 990,720 L 992,722 L 992,723 L 993,724 L 993,726 L 994,727 L 995,727 L 996,728 L 1001,728 L 1002,727 L 1003,728 L 1003,735 L 1004,736 L 1004,740 L 1005,741 L 1005,742 L 1006,743 L 1006,744 L 1007,745 L 1007,746 L 1011,750 L 1010,751 L 997,751 L 994,754 L 993,753 L 993,751 L 975,751 L 972,754 L 971,754 L 970,753 L 970,752 L 969,751 L 966,751 L 965,750 L 968,747 L 968,746 L 969,745 L 969,744 L 970,743 L 970,742 L 971,741 L 971,739 L 972,738 L 972,735 L 973,734 L 973,725 L 972,724 L 972,722 L 971,721 L 971,719 L 970,718 L 970,717 L 969,716 L 969,715 L 962,708 L 961,708 L 959,706 L 958,706 L 957,705 L 955,705 L 954,704 L 952,704 L 951,703 L 941,703 L 940,704 L 938,704 L 937,705 L 935,705 L 934,706 L 933,706 L 931,708 L 930,707 L 930,706 L 932,704 L 932,703 L 933,702 Z M 764,701 L 766,699 L 767,699 L 769,701 L 770,701 L 771,700 L 808,700 L 809,699 L 810,700 L 810,705 L 814,709 L 814,710 L 817,713 L 817,714 L 820,717 L 820,718 L 823,721 L 823,722 L 824,723 L 824,725 L 826,727 L 827,727 L 828,728 L 832,728 L 833,727 L 834,727 L 835,728 L 834,729 L 835,730 L 835,738 L 836,739 L 836,741 L 837,742 L 837,743 L 838,744 L 838,745 L 840,747 L 840,748 L 843,751 L 842,752 L 843,753 L 842,754 L 841,754 L 840,753 L 840,752 L 839,751 L 822,751 L 821,752 L 821,753 L 820,754 L 819,754 L 818,753 L 818,752 L 817,751 L 799,751 L 798,752 L 798,753 L 797,754 L 795,754 L 794,753 L 794,752 L 800,746 L 800,745 L 802,743 L 802,741 L 803,740 L 803,738 L 804,737 L 804,723 L 803,722 L 803,720 L 802,719 L 802,718 L 801,717 L 801,716 L 799,714 L 799,713 L 795,709 L 794,709 L 792,707 L 791,707 L 790,706 L 789,706 L 788,705 L 787,705 L 786,704 L 784,704 L 783,703 L 773,703 L 772,704 L 769,704 L 768,705 L 766,705 L 765,706 L 764,706 L 763,705 L 763,704 L 764,703 Z M 596,701 L 597,700 L 639,700 L 640,699 L 641,700 L 641,704 L 643,706 L 643,707 L 648,712 L 648,713 L 651,716 L 651,717 L 654,720 L 654,721 L 655,722 L 655,724 L 656,725 L 656,726 L 657,727 L 658,727 L 659,728 L 664,728 L 665,727 L 666,728 L 666,736 L 667,737 L 667,740 L 668,741 L 668,742 L 669,743 L 669,744 L 671,746 L 671,747 L 674,750 L 672,752 L 671,752 L 668,755 L 666,755 L 665,754 L 665,751 L 648,751 L 647,752 L 643,752 L 644,753 L 643,754 L 642,754 L 641,753 L 641,751 L 629,751 L 628,750 L 630,748 L 630,747 L 632,745 L 632,744 L 633,743 L 633,742 L 634,741 L 634,739 L 635,738 L 635,735 L 636,734 L 636,727 L 635,726 L 635,722 L 634,721 L 634,719 L 633,718 L 633,717 L 631,715 L 631,714 L 625,708 L 624,708 L 622,706 L 621,706 L 620,705 L 618,705 L 617,704 L 614,704 L 613,703 L 604,703 L 603,704 L 600,704 L 599,705 L 598,705 L 597,706 L 596,706 L 595,707 L 594,706 L 594,705 L 595,704 L 595,703 L 596,702 Z M 512,701 L 513,700 L 531,700 L 532,701 L 533,701 L 534,700 L 549,700 L 550,699 L 551,699 L 552,700 L 556,700 L 557,701 L 557,704 L 558,705 L 558,706 L 562,710 L 562,711 L 566,715 L 566,716 L 569,719 L 569,720 L 571,722 L 571,723 L 572,724 L 572,725 L 573,726 L 573,727 L 574,727 L 575,728 L 580,728 L 581,727 L 582,728 L 582,736 L 583,737 L 583,740 L 584,741 L 584,742 L 585,743 L 585,744 L 586,745 L 586,746 L 585,747 L 586,748 L 587,747 L 590,750 L 589,751 L 579,751 L 576,754 L 574,754 L 573,753 L 573,751 L 556,751 L 553,754 L 551,754 L 550,753 L 550,751 L 545,751 L 544,750 L 545,749 L 545,748 L 548,745 L 548,744 L 549,743 L 549,741 L 550,740 L 550,739 L 551,738 L 551,733 L 552,732 L 552,728 L 551,727 L 551,722 L 550,721 L 550,720 L 549,719 L 549,718 L 548,717 L 548,716 L 547,715 L 547,714 L 542,709 L 541,709 L 539,707 L 538,707 L 536,705 L 534,705 L 533,704 L 531,704 L 530,703 L 520,703 L 519,704 L 516,704 L 515,705 L 514,705 L 513,704 L 513,703 L 512,702 Z M 427,701 L 428,700 L 471,700 L 472,699 L 473,700 L 473,705 L 476,708 L 476,709 L 480,713 L 480,714 L 483,717 L 483,718 L 486,721 L 486,722 L 487,723 L 487,725 L 489,727 L 490,727 L 491,728 L 495,728 L 496,727 L 497,727 L 498,728 L 497,729 L 497,730 L 498,731 L 498,738 L 499,739 L 499,741 L 500,742 L 500,743 L 501,744 L 501,745 L 503,747 L 503,748 L 504,749 L 505,749 L 506,750 L 505,751 L 491,751 L 490,752 L 489,752 L 487,754 L 486,753 L 486,752 L 485,751 L 470,751 L 469,752 L 468,752 L 466,754 L 465,754 L 464,753 L 464,752 L 463,751 L 460,751 L 459,750 L 463,746 L 463,745 L 464,744 L 464,743 L 465,742 L 465,741 L 466,740 L 466,737 L 467,736 L 467,725 L 466,724 L 466,721 L 465,720 L 465,718 L 463,716 L 463,715 L 455,707 L 454,707 L 453,706 L 452,706 L 451,705 L 450,705 L 449,704 L 446,704 L 445,703 L 436,703 L 435,704 L 432,704 L 431,705 L 430,705 L 429,704 L 429,703 L 428,704 L 427,703 Z M 342,701 L 344,699 L 345,700 L 351,700 L 352,701 L 353,700 L 381,700 L 382,699 L 383,699 L 384,700 L 387,700 L 388,701 L 388,703 L 389,704 L 389,705 L 391,707 L 391,708 L 395,712 L 395,713 L 398,716 L 398,717 L 400,719 L 400,720 L 403,723 L 403,725 L 406,728 L 411,728 L 412,727 L 413,728 L 413,734 L 414,735 L 414,738 L 415,739 L 415,741 L 416,742 L 416,743 L 417,744 L 417,745 L 418,746 L 418,747 L 421,750 L 420,751 L 420,752 L 421,753 L 420,754 L 419,754 L 417,751 L 400,751 L 398,754 L 395,754 L 393,751 L 377,751 L 375,754 L 372,754 L 371,753 L 378,746 L 378,745 L 380,743 L 380,742 L 381,741 L 381,739 L 382,738 L 382,735 L 383,734 L 383,727 L 382,726 L 382,722 L 381,721 L 381,720 L 380,719 L 380,718 L 379,717 L 379,716 L 377,714 L 377,713 L 373,709 L 372,709 L 370,707 L 369,707 L 367,705 L 365,705 L 364,704 L 361,704 L 360,703 L 360,702 L 359,703 L 352,703 L 351,704 L 348,704 L 347,705 L 345,705 L 344,706 L 343,706 L 342,707 L 341,707 L 340,706 L 340,705 L 342,703 L 343,704 L 342,703 Z M 1190,724 L 1189,725 L 1188,725 L 1187,726 L 1183,726 L 1182,727 L 1181,727 L 1180,728 L 1179,728 L 1178,729 L 1176,729 L 1175,730 L 1174,730 L 1173,731 L 1172,731 L 1170,733 L 1170,735 L 1169,736 L 1168,736 L 1167,735 L 1168,734 L 1167,735 L 1166,734 L 1164,734 L 1163,735 L 1161,735 L 1160,736 L 1159,736 L 1158,737 L 1156,737 L 1155,738 L 1153,738 L 1152,739 L 1150,739 L 1148,741 L 1148,743 L 1147,744 L 1146,744 L 1145,745 L 1144,744 L 1144,743 L 1145,742 L 1146,742 L 1145,742 L 1144,743 L 1143,743 L 1142,742 L 1141,743 L 1138,743 L 1137,744 L 1135,744 L 1134,745 L 1133,745 L 1132,744 L 1133,743 L 1133,742 L 1134,741 L 1134,740 L 1135,739 L 1135,737 L 1136,736 L 1136,724 L 1135,723 L 1135,720 L 1134,719 L 1134,718 L 1133,717 L 1133,716 L 1132,715 L 1132,714 L 1127,709 L 1126,709 L 1123,706 L 1122,706 L 1121,705 L 1119,705 L 1118,704 L 1116,704 L 1115,703 L 1104,703 L 1103,702 L 1105,700 L 1138,700 L 1139,699 L 1154,699 L 1155,700 L 1156,700 L 1157,699 L 1158,699 L 1159,698 L 1159,697 L 1160,696 L 1161,697 L 1161,698 L 1162,697 L 1163,697 L 1162,696 L 1162,695 L 1163,694 L 1165,696 L 1165,698 L 1166,699 L 1166,700 L 1167,701 L 1167,702 L 1168,702 L 1169,703 L 1170,703 L 1172,705 L 1172,707 L 1173,708 L 1173,709 L 1174,710 L 1174,711 L 1176,713 L 1176,714 L 1182,720 L 1183,720 L 1184,721 L 1185,721 L 1187,723 L 1186,724 L 1185,724 L 1186,724 L 1187,723 L 1189,723 Z M 247,724 L 249,722 L 250,722 L 256,716 L 256,715 L 258,713 L 258,712 L 259,711 L 259,709 L 261,707 L 264,707 L 268,703 L 268,701 L 269,700 L 269,695 L 270,694 L 270,693 L 271,692 L 271,690 L 272,689 L 272,687 L 273,686 L 273,684 L 274,683 L 274,682 L 275,681 L 276,682 L 277,682 L 278,683 L 277,684 L 276,684 L 275,685 L 276,684 L 277,684 L 278,683 L 279,683 L 280,684 L 281,684 L 283,686 L 284,686 L 286,688 L 287,688 L 288,689 L 289,689 L 291,691 L 292,691 L 294,693 L 295,693 L 298,696 L 299,696 L 303,700 L 303,704 L 305,706 L 305,707 L 309,711 L 309,712 L 313,716 L 313,717 L 316,720 L 316,721 L 317,722 L 317,724 L 321,728 L 326,728 L 327,727 L 328,728 L 328,732 L 329,733 L 329,738 L 330,739 L 330,741 L 331,742 L 331,743 L 332,744 L 332,745 L 334,747 L 333,748 L 331,748 L 329,750 L 327,750 L 326,749 L 326,746 L 325,745 L 323,745 L 322,744 L 319,744 L 318,743 L 314,743 L 313,742 L 309,742 L 307,744 L 305,744 L 303,742 L 303,740 L 302,740 L 301,739 L 299,739 L 298,738 L 295,738 L 294,737 L 290,737 L 289,736 L 287,736 L 286,737 L 285,737 L 284,738 L 281,738 L 280,737 L 281,736 L 281,735 L 280,734 L 278,734 L 277,733 L 274,733 L 273,732 L 270,732 L 269,731 L 267,731 L 266,730 L 263,730 L 261,732 L 258,732 L 257,731 L 257,728 L 256,728 L 255,727 L 253,727 L 252,726 L 249,726 Z M 1177,674 L 1178,675 L 1177,676 L 1176,676 L 1177,676 L 1178,675 L 1180,677 L 1175,682 L 1175,683 L 1174,684 L 1173,683 L 1173,682 L 1173,683 L 1174,684 L 1174,685 L 1172,687 L 1171,686 L 1171,684 L 1170,683 L 1170,681 L 1169,680 L 1169,679 L 1170,678 L 1171,678 L 1170,678 L 1169,679 L 1168,678 L 1168,677 L 1169,676 L 1170,676 L 1171,675 L 1174,675 L 1175,674 Z M 1205,670 L 1206,669 L 1206,668 L 1207,667 L 1208,667 L 1209,666 L 1213,666 L 1214,665 L 1218,665 L 1219,664 L 1223,664 L 1224,663 L 1226,663 L 1228,665 L 1229,665 L 1230,666 L 1231,666 L 1232,667 L 1233,667 L 1234,668 L 1235,668 L 1236,669 L 1237,669 L 1239,671 L 1251,671 L 1252,670 L 1255,670 L 1256,669 L 1258,669 L 1259,668 L 1260,668 L 1262,670 L 1260,672 L 1260,674 L 1261,675 L 1261,676 L 1259,678 L 1257,678 L 1256,677 L 1254,677 L 1248,683 L 1247,683 L 1242,688 L 1242,692 L 1240,694 L 1239,694 L 1238,693 L 1236,693 L 1234,695 L 1233,695 L 1227,701 L 1226,701 L 1226,702 L 1225,703 L 1224,702 L 1224,690 L 1223,689 L 1223,687 L 1222,686 L 1222,685 L 1221,684 L 1221,683 L 1219,681 L 1219,680 L 1213,674 L 1212,674 L 1211,673 L 1210,673 L 1209,672 L 1208,672 L 1207,671 L 1206,671 Z M 122,645 L 124,643 L 130,643 L 131,644 L 133,644 L 135,646 L 135,650 L 137,652 L 147,652 L 149,650 L 149,647 L 151,645 L 152,645 L 153,644 L 157,644 L 158,643 L 161,648 L 162,648 L 169,654 L 170,654 L 172,656 L 173,656 L 177,660 L 178,660 L 183,665 L 184,665 L 187,668 L 186,669 L 187,668 L 190,671 L 192,671 L 193,672 L 204,672 L 205,673 L 208,673 L 213,669 L 214,669 L 215,668 L 216,668 L 217,667 L 218,667 L 219,666 L 222,665 L 224,663 L 225,663 L 226,662 L 228,662 L 231,664 L 230,665 L 229,665 L 230,665 L 231,664 L 233,664 L 234,665 L 234,667 L 232,669 L 231,668 L 232,669 L 232,671 L 231,672 L 227,672 L 226,673 L 224,673 L 223,674 L 220,675 L 217,678 L 216,678 L 215,679 L 215,680 L 212,683 L 212,684 L 210,686 L 210,687 L 209,688 L 209,690 L 208,691 L 208,693 L 207,694 L 206,693 L 206,692 L 206,693 L 207,694 L 207,704 L 208,705 L 207,706 L 206,706 L 204,704 L 202,704 L 201,705 L 199,705 L 197,703 L 198,702 L 198,701 L 194,697 L 193,697 L 191,695 L 190,695 L 187,692 L 184,692 L 183,693 L 182,693 L 179,690 L 179,689 L 180,688 L 178,685 L 177,685 L 174,682 L 173,682 L 171,680 L 170,680 L 169,679 L 163,679 L 162,678 L 163,677 L 163,675 L 162,675 L 158,671 L 157,671 L 155,669 L 154,669 L 153,668 L 151,668 L 150,669 L 149,669 L 147,667 L 148,666 L 148,664 L 146,662 L 145,662 L 142,659 L 141,659 L 139,657 L 138,657 L 135,655 L 134,656 L 132,656 L 130,654 L 130,650 L 129,649 L 130,648 L 129,649 L 128,649 L 126,647 L 127,646 L 126,647 L 125,647 L 124,646 L 125,645 L 124,646 L 123,646 Z M 389,488 L 391,486 L 402,486 L 403,487 L 403,488 L 402,489 L 390,489 Z M 327,487 L 328,486 L 339,486 L 341,488 L 340,489 L 328,489 L 327,488 Z M 264,487 L 265,486 L 277,486 L 278,487 L 278,488 L 277,489 L 265,489 L 264,488 Z M 172,487 L 173,486 L 185,486 L 186,487 L 186,488 L 185,489 L 173,489 L 172,488 Z" fill="black" fill-rule="evenodd"/>
</svg>