<?xml version="1.0" encoding="UTF-8" standalone="no"?>
<svg
   width="550"
   height="250"
   viewBox="0 0 550 250"
   version="1.1"
   id="svg2"
   sodipodi:docname="churchill_mk_iii_avre_black.svg"
   inkscape:version="1.4.2 (f4327f4, 2025-05-13)"
   xmlns:inkscape="http://www.inkscape.org/namespaces/inkscape"
   xmlns:sodipodi="http://sodipodi.sourceforge.net/DTD/sodipodi-0.dtd"
   xmlns="http://www.w3.org/2000/svg"
   xmlns:svg="http://www.w3.org/2000/svg">
  <defs
     id="defs2" />
  <sodipodi:namedview
     id="namedview2"
     pagecolor="#ffffff"
     bordercolor="#000000"
     borderopacity="0.25"
     inkscape:showpageshadow="2"
     inkscape:pageopacity="0.0"
     inkscape:pagecheckerboard="0"
     inkscape:deskcolor="#d1d1d1"
     inkscape:zoom="1.0819521"
     inkscape:cx="723.69191"
     inkscape:cy="543"
     inkscape:window-width="2560"
     inkscape:window-height="1377"
     inkscape:window-x="-8"
     inkscape:window-y="-8"
     inkscape:window-maximized="1"
     inkscape:current-layer="svg2" />
  <path
     d="m 11.559149,164.05831 15.469512,12.03184 -1.718838,7.30504 4.297085,6.44564 -0.429704,3.86738 10.742711,11.60213 3.437666,-0.42971 7.734763,5.58621 h 5.586207 l 4.297085,3.86739 4.297085,-0.42973 2.148543,3.00796 8.594173,0.85943 4.297081,3.86738 4.726805,-0.42971 6.875329,4.72679 5.156508,-0.42971 2.148535,3.00796 9.023885,0.42971 0.85942,2.14855 4.72679,0.4297 1.71884,-2.14855 8.16446,2.14855 3.00795,-2.14855 19.33689,1.71885 4.7268,-2.14855 0.85941,2.14855 h 5.15651 l 1.28912,-2.14855 4.72681,2.14855 h 4.72678 l 1.28913,-2.14855 9.8833,2.14855 1.28912,-2.14855 h 6.44563 l 1.28913,2.14855 8.59416,-2.14855 2.14855,1.71883 19.7666,-1.71883 2.57825,2.14855 6.01591,-2.14855 4.7268,1.71883 12.03184,-1.71883 1.71883,2.14855 6.01593,-2.14855 4.72679,1.71883 6.44563,-1.71883 4.72679,1.71883 6.01593,-1.71883 4.72679,1.71883 6.44563,-1.71883 4.29708,1.71883 6.44562,-1.71883 3.86739,1.71883 6.44563,-1.71883 3.86738,1.71883 5.58621,-1.71883 3.86738,1.71883 6.44562,-1.71883 4.29708,1.71883 6.44563,-1.71883 4.29709,1.71883 6.44563,-1.71883 4.72679,1.71883 6.01593,-1.71883 4.29709,1.71883 6.44562,-1.71883 4.29709,1.71883 6.87532,-1.71883 4.72681,1.71883 6.01592,-1.71883 5.1565,1.71883 6.01591,-1.71883 4.2971,1.71883 6.01592,-1.71883 4.72678,1.71883 6.01593,-1.71883 20.1963,1.71883 4.29708,-2.14854 3.86738,1.71884 6.87535,-3.86739 3.86737,0.85943 3.86738,-3.86739 7.30504,-0.4297 5.58621,-4.29708 4.72681,0.4297 4.29708,-3.86738 6.87533,-0.4297 2.14854,-3.00796 h 6.01593 l 6.44562,-4.7268 6.44563,-0.85941 12.46155,-15.0398 -1.28912,-3.00796 2.57825,-10.31301 -2.57825,-5.15651 13.32097,-0.4297 2.14854,3.00796 3.43767,-0.85941 -5.58621,-9.45359 v -11.17243 l 6.01591,-1.28912 1.28912,-30.50931 -9.02387,-0.42971 -0.85942,-6.44564 h -8.16446 l -0.85942,3.00796 h -11.17242 l -0.42971,-9.45359 -21.48543,-1.71882 -0.85942,-5.15651 h -8.16445 l -0.85942,5.15651 -42.54116,-0.85942 -1.71883,2.57824 h -8.16446 l -3.00796,-2.57824 h -15.89922 l -1.28913,-5.58621 -8.59417,0.4297 -0.42971,5.15651 H 375.0926 l -1.28912,2.57824 H 175.70783 l -2.57826,-6.87533 -23.20426,-2.578261 -14.61008,3.007961 -5.58622,13.32098 -50.275908,14.61009 -3.007952,-1.28913 2.578249,-2.14855 -0.859427,-3.00795 -7.305042,-0.85942 -0.85942,3.86737 3.437678,2.14855 -2.148543,3.00796 -48.557069,10.313 z m 297.358331,61.01862 0.42972,-0.42971 h 6.87533 l 0.42971,0.42971 -0.42971,0.42971 h -6.87533 z m -194.65798,0 0.42971,-0.42971 h 5.58621 l 0.42971,0.42971 -0.85942,0.85942 h -3.86737 l -0.42971,-0.42971 h -0.85942 z m 74.7693,-0.42971 -0.42972,0.42971 h -0.4297 l -0.42971,0.42971 h -8.16446 l -0.42972,-0.42971 0.42972,-0.42971 h 7.30503 l 0.42972,-0.4297 h 1.28912 z m 258.68455,-0.4297 -0.4297,0.4297 h -0.85942 l -0.4297,0.42971 h -3.43768 l -0.4297,-0.42971 0.4297,-0.4297 h 3.00796 l 0.42972,-0.42971 h 1.28912 z m -16.32892,-0.42971 0.4297,-0.42972 h 0.42973 l 0.4297,0.42972 h 1.71883 l 0.42971,0.42971 h 3.43766 l 0.42972,0.4297 -0.42972,0.42971 h -6.44563 l -0.4297,-0.42971 z m -46.40852,0 -0.42972,0.42971 v 0.4297 l -0.4297,0.42971 -0.42971,-0.42971 -0.42971,0.42971 h -3.43766 l -0.42973,-0.42971 0.42973,-0.4297 h 2.14853 l 0.42971,-0.42971 h 1.28913 l 0.42971,-0.42972 h 0.4297 z m -18.04778,0.85941 0.42973,-0.4297 h 0.4297 l -0.4297,-0.42971 0.4297,-0.42972 h 0.42971 l 0.42971,0.42972 h 1.28912 l 0.42972,0.42971 h 3.00796 l 0.4297,0.4297 -0.4297,0.42971 h -6.01592 z m -63.16715,-0.85941 0.42971,-0.42972 h 0.4297 l 0.42973,0.42972 h 1.28912 l 0.4297,0.42971 h 2.14854 l 0.42972,0.4297 -0.42972,0.42971 h -4.72679 l -0.42971,-0.42971 z m -67.46425,-1.71884 0.42972,-0.4297 h 0.4297 l 0.42972,0.4297 h 0.4297 l 0.4297,0.4297 h 0.42972 l 0.4297,0.42972 h 0.85943 l 0.42971,0.4297 h 0.85941 l 0.42971,0.42972 h 1.28913 l 0.4297,0.42971 h 1.71883 l 0.42971,0.4297 -0.42971,0.42971 h -7.30504 l -0.4297,-0.42971 -0.42972,0.42971 -0.4297,-0.42971 v -2.14855 z m -132.35023,0 0.4297,-0.4297 h 0.42972 l 0.4297,0.4297 h 0.4297 l 0.42971,0.4297 h 0.42972 l 0.42971,0.42972 h 0.85941 l 0.42971,0.4297 h 0.85942 l 0.42971,0.42972 h 1.28912 l 0.42971,0.42971 -0.42971,0.4297 h -0.4297 l -0.85942,0.85942 -0.42971,-0.42971 h -2.14854 l -0.42971,-0.42971 h -0.85943 l -0.4297,-0.4297 h -0.4297 l -0.85942,-0.85943 0.4297,-0.4297 v -0.42972 z m 27.93105,-0.4297 v 1.71882 l -0.4297,0.42972 v 1.28912 l -0.42972,0.42971 -0.42971,-0.42971 -0.4297,0.42971 h -5.1565 l -0.42972,-0.42971 v -0.42971 h -0.4297 l -0.42971,-0.4297 0.42971,-0.42971 h 0.85942 l 0.42971,-0.42972 h 1.28911 l 0.42972,-0.4297 h 0.4297 l 0.42972,-0.42972 h 0.85941 l 0.42971,-0.4297 h 0.42971 l 0.42971,-0.4297 h 0.4297 l 0.42971,-0.42971 h 0.42972 z m 325.71911,-2.14855 v 2.57825 l -0.42972,0.4297 h -0.4297 l -0.42972,0.42972 h -0.8594 l -0.42972,0.4297 h -1.28913 l -0.4297,0.42972 h -0.85942 l -1.28914,-1.28914 0.42973,-0.4297 h 0.85941 l 0.42971,-0.4297 h 0.42971 l 0.4297,-0.42971 h 0.42971 l 0.85942,-0.85943 h 0.42972 l 0.8594,-0.85941 h 0.42972 l 0.4297,-0.42971 z m 50.70561,-17.18834 v 0.42971 l -0.42971,0.4297 -0.42971,-0.4297 0.42971,0.4297 -0.42971,0.42971 h -0.85942 l -0.42971,0.42971 h -0.85941 l -0.42972,0.4297 h -0.4297 l -0.4297,-0.4297 h -0.42973 0.42973 l 0.4297,0.4297 -0.4297,0.42972 h -1.28914 l -0.4297,-0.42972 v -0.85941 l 0.4297,-0.42971 h 1.28914 l 0.4297,-0.4297 h 1.28912 l 0.42971,-0.42971 h 0.42971 l 0.42972,-0.42971 h 0.85941 z m 6.44563,-4.29709 -0.42972,0.42971 h 0.42972 l 0.4297,0.4297 -0.4297,0.42972 h -0.42972 l -0.4297,0.42971 -0.4297,-0.42971 v 0.42971 l -0.85943,0.85942 -0.42971,-0.42972 h -0.42971 l -0.4297,-0.4297 0.4297,-0.42971 h 0.42971 l 1.71884,-1.71884 h 0.4297 z m -76.05842,-6.01593 h 3.43767 l 0.4297,0.42972 h 0.42972 l 1.71882,1.71883 v 0.42971 l 0.42972,0.42971 v 0.85941 l 0.4297,0.42972 v 0.85941 l -0.4297,0.42971 v 1.28912 l -0.85942,0.85943 v 0.4297 l -0.42971,0.42972 h -0.42971 l -0.4297,-0.42972 -0.42972,0.42972 0.42972,0.4297 -0.42972,0.4297 h -0.4297 l -0.42972,0.42972 h -2.57824 l -0.42971,-0.42972 h -0.42972 l -0.4297,-0.4297 h -0.42971 l -1.71883,-1.71883 V 198.435 l -0.42972,-0.42971 v -2.57825 l 0.42972,-0.42971 v -0.42971 l 2.14854,-2.14854 h 0.4297 z m -64.02658,0 h 3.43767 l 0.42971,0.42972 h 0.4297 l 1.71884,1.71883 v 0.42971 l 0.42971,0.42971 v 0.85941 l 0.4297,0.42972 v 1.71883 l -0.4297,0.42971 v 0.4297 l -0.42971,0.42972 v 0.42971 l -0.42971,0.4297 -0.4297,-0.4297 0.4297,0.4297 -1.28913,1.28912 h -0.4297 l -0.42971,0.42972 h -3.43767 l -0.42971,-0.42972 h -0.42971 l -1.71884,-1.71882 v -0.42971 l -0.4297,-0.42972 v -0.85941 l -0.4297,-0.42971 v -1.28912 l 0.4297,-0.42972 v -0.85941 l 0.4297,-0.42971 v -0.42971 l 1.71884,-1.71883 h 0.42971 z m -64.02658,0.42972 h 0.85942 l 0.42971,-0.42972 h 2.57826 l 0.4297,0.42972 h 0.42971 l 0.4297,0.42971 h 0.42971 l 0.85941,0.85942 v 0.4297 l 0.42973,0.42971 v 0.42971 l 0.4297,0.42971 v 3.43766 l -0.4297,0.42972 v 0.42971 l -1.71885,1.71882 h -0.4297 l -0.42971,0.42972 h -3.43767 l -0.42972,-0.42972 h -0.4297 l -2.14854,-2.14853 V 198.435 l -0.4297,-0.42971 v -2.14855 l 0.4297,-0.4297 v -0.85942 z m -63.59686,0 h 0.8594 l 0.42972,-0.42972 h 2.57824 l 0.42972,0.42972 h 0.4297 l 0.42972,0.42971 h 0.42971 l 1.28912,1.28912 v 0.42971 l 0.42971,0.42971 v 0.85941 l 0.4297,0.42972 v 1.28912 l -0.4297,0.42971 v 0.85941 l -0.42971,0.42972 v 0.42971 l -1.71883,1.71882 h -0.42972 l -0.4297,0.42972 h -3.43768 l -0.4297,-0.42972 h -0.4297 l -0.42972,-0.4297 0.42972,-0.4297 -0.85942,-0.85942 -0.42972,0.4297 -0.85941,-0.85941 V 198.435 l -0.42971,-0.42971 v -2.14855 l 0.42971,-0.4297 v -0.42971 l 0.4297,-0.42971 v -0.42971 l 0.85943,-0.85941 0.4297,0.42971 -0.4297,-0.42971 z m -64.886,-0.42972 h 2.57824 l 0.42972,0.42972 h 0.85941 l 2.14855,2.14854 v 0.85942 l 0.4297,0.4297 v 2.57826 l -0.4297,0.4297 v 0.42972 l -2.14855,2.14853 h -0.42971 l -0.4297,0.42972 h -3.43767 l -0.42971,-0.42972 h -0.4297 l -1.28913,-1.28912 0.4297,-0.4297 -0.4297,0.4297 -0.85942,-0.85941 V 198.435 l -0.42971,-0.42971 v -2.14855 l 0.42971,-0.4297 v -0.42971 l 0.4297,-0.42971 0.42972,0.42971 -0.42972,-0.42971 v -0.42971 l 1.28912,-1.28912 h 0.42973 l 0.4297,-0.42971 h 0.42971 z m -66.17512,0 h 2.57826 l 0.4297,0.42972 h 0.4297 l 0.42971,0.42971 h 0.42971 l 1.71884,1.71883 v 0.85942 l 0.4297,0.4297 v 2.14855 l -0.4297,0.42971 v 0.4297 l -0.42972,0.42972 v 0.42971 l -0.85941,0.85942 -0.42971,-0.42972 0.42971,0.42972 -0.85942,0.8594 H 119.416 l -0.4297,0.42972 h -3.43767 l -0.42972,-0.42972 h -0.4297 l -2.14854,-2.14853 V 198.435 l -0.42972,-0.42971 v -1.71883 l 0.42972,-0.42972 v -0.85941 l 0.4297,-0.42971 v -0.42971 l 1.28913,-1.28912 h 0.42971 l 0.4297,-0.42971 h 0.42972 z m -51.565038,-1.71882 2.148542,2.14854 h 0.429716 l 1.718827,1.71883 v 1.28913 l -0.429704,0.4297 v 0.42972 l -0.859419,0.85941 -0.429704,-0.4297 0.429704,0.4297 -0.85942,0.85942 H 66.13214 l -0.429715,0.42971 h -0.429704 l -0.429704,0.4297 h -0.429715 l -0.429704,0.42972 h -0.859419 l -0.429704,0.42971 H 61.40534 l -0.429704,0.4297 -0.429704,-0.4297 H 60.116217 L 58.827093,198.435 v -0.42971 l -0.429715,-0.42971 v -0.85941 l 0.429715,-0.42971 v -1.71884 l 0.429705,-0.42971 v -1.28912 l 0.429715,-0.42971 0.429704,0.42971 h 0.429715 -0.429715 l -0.429704,-0.42971 0.429704,-0.42972 h 0.429715 l 0.429704,-0.4297 h 0.429704 l 0.429715,-0.4297 h 0.429704 l 0.429716,-0.42972 h 0.429704 l 0.429704,-0.4297 z m 455.491098,-0.85943 0.42971,0.42972 v 0.85941 l -0.42971,0.42972 v 0.4297 l -0.42971,0.4297 v 0.42972 h 0.42971 l 0.42971,0.42971 v 0.42971 l -1.28913,1.28912 h -0.85942 l -1.71883,1.71884 -0.42971,-0.42972 v -0.4297 l 1.28912,-1.28913 v -0.4297 l 0.42972,-0.42971 v -0.42971 l 0.85941,-0.85943 v -0.4297 l 0.42971,-0.4297 v -0.42972 l 0.42971,-0.4297 v -0.42971 z m -479.984485,2.57825 0.429705,-0.4297 h 0.429715 l 0.859419,-0.85942 h 0.429704 l 0.429704,-0.4297 h 0.429715 l 0.429704,-0.42971 h 0.429716 l 0.429704,-0.42972 h 0.429704 l 0.429715,0.42972 -0.429715,0.42971 0.859419,-0.85943 0.859419,0.85943 h 0.429704 l 0.859419,0.85942 h 0.429716 l 0.429704,0.4297 h 0.429715 l 0.859408,0.85942 -0.429704,0.42971 v 4.72679 l -0.859419,0.85942 h -0.429704 l -0.429716,0.4297 H 45.506124 L 45.07642,198.435 h -0.429715 l -0.429704,-0.42971 h -0.429704 l -0.85942,-0.85942 h -0.429715 l -3.007949,-3.00796 v -0.85941 l 0.429702,-0.42971 z m -8.164465,-14.61007 0.429716,-0.42973 h 2.578246 l 0.429704,0.42973 h 4.726799 l 0.429705,0.4297 v 2.57824 l -0.859407,0.85943 h -0.429717 l -0.859419,0.85941 h -0.859419 l -0.429703,0.4297 h -0.85942 l -0.429704,0.42972 h -0.859419 l -0.859419,-0.85942 h -0.429704 l -0.429715,-0.4297 H 32.61487 l -0.429704,-0.42971 v -1.28913 l -0.429716,-0.42971 z m 43.400561,-1.71884 h 0.859426 l 0.429713,0.4297 h 0.859406 l 0.859416,0.85941 v 0.42973 l 0.429724,0.4297 v 0.85942 l -0.429724,0.4297 v 3.43766 l -0.429703,0.42972 v 0.85942 l -0.429713,0.42971 v 0.42971 l -1.289119,1.28912 h -1.718832 l -0.429714,-0.42971 h -0.429703 l -0.859416,-0.85941 h -0.429713 l -1.289129,-1.28914 h -0.429704 l -0.85942,-0.85942 0.429704,-0.4297 v -0.85941 l 0.429716,-0.42971 v -3.00796 l 0.429704,-0.4297 h 0.429715 l 0.429704,-0.42973 h 0.42971 l 0.429713,-0.4297 h 0.859416 l 0.429703,-0.42971 h 0.859417 z m 420.684709,0 h 1.28912 l 0.42972,-0.42971 h 0.85941 l 0.42971,0.42971 h 1.28912 l 0.85943,0.85941 h 0.4297 l 0.85942,0.85943 v 0.4297 l 0.4297,0.4297 v 0.42972 l 0.42971,0.4297 v 1.71884 l -0.42971,0.42971 v 0.85941 l -0.4297,0.4297 v 0.42972 l -1.28912,1.28913 h -0.42973 l -0.4297,0.42971 h -0.4297 l -0.42972,0.4297 h -2.57824 l -0.42972,-0.4297 h -0.85941 l -1.71884,-1.71884 v -0.42972 l -0.42971,-0.4297 v -0.85941 l -0.4297,-0.42971 v -1.28913 l 0.4297,-0.42971 v -0.85942 l 0.85942,-0.8594 0.42972,0.4297 0.85941,-0.85943 -0.42971,-0.4297 z m 26.21222,-2.14855 0.42971,0.4297 v 1.28914 l 0.42972,0.42971 v 2.14854 l -0.42972,0.4297 v 4.7268 h 0.42972 l 0.4297,0.4297 -0.4297,0.42972 v 2.14854 l -0.42972,0.4297 -0.42971,-0.4297 v -0.42971 0.42971 l -0.42971,0.4297 h 0.42971 l 0.42971,0.42973 v 0.4297 l -0.42971,0.4297 h -0.42971 l -0.42971,0.42972 v 0.4297 l -0.4297,0.42971 -0.42971,-0.42971 v -0.85942 l 0.42971,-0.4297 v -1.28913 l 0.4297,-0.42971 v -1.71883 l 0.42971,-0.42972 v -5.1565 l -0.42971,-0.4297 v -2.57825 l -0.4297,-0.42971 v -0.85943 l 0.4297,-0.4297 z m -469.241769,0 h 0.859419 l 0.429703,-0.4297 h 2.148543 l 0.429715,0.4297 h 0.429704 l 0.429715,0.4297 h 0.429704 l 0.859419,0.85943 -0.429715,0.42971 0.429715,-0.42971 0.429705,0.42971 v 0.42971 l 0.429715,0.4297 v 0.42971 l 0.429704,0.4297 v 2.14855 l -0.429704,0.42971 v 0.42971 l -0.429715,0.4297 -0.429705,-0.4297 0.429705,0.4297 v 0.42972 l -1.289124,1.28912 H 57.53797 l -0.429715,0.4297 h -1.289123 l -0.429703,0.42972 h -0.429717 l -0.429703,-0.42972 h -1.289123 l -0.429715,-0.4297 h -0.429704 l -1.718839,-1.71884 v -0.85941 l -0.429704,-0.42971 v -2.14855 l 0.429704,-0.4297 v -0.85941 z m 144.382089,-4.72679 h 6.01592 l 0.85941,0.85941 -0.42971,0.42971 0.42971,0.85941 v 1.71884 h 3.00797 l 0.4297,-3.43766 0.4297,-0.42971 h 6.44564 l 0.4297,0.42971 0.42972,3.00796 0.42971,0.4297 h 2.57825 v -3.00796 l 0.85941,-0.85941 h 6.44563 l 0.42971,0.42971 v 3.00796 l 0.42971,0.4297 h 2.57825 l 0.42971,-0.85941 v -2.57825 l 0.4297,-0.42971 h 6.01593 l 0.4297,0.42971 v 2.14854 l 0.85942,0.42971 -2.57824,1.28913 -3.43767,2.57825 -3.86739,4.29708 -0.85941,1.71884 -0.85942,0.8594 -0.4297,-0.4297 0.4297,0.85942 -2.57825,5.15651 -0.42971,2.57824 -0.4297,0.42972 v 2.57825 l -0.42971,0.4297 v 6.01592 l 0.42971,0.42972 v 2.14854 l 0.4297,0.4297 1.28913,4.7268 3.43766,6.01591 6.87534,6.44563 -1.71883,0.85943 v 3.43766 l -0.42971,0.42971 h -6.44563 l -0.85942,-1.71884 v -2.14853 l -0.85941,-0.42971 h -1.71883 l -0.42971,0.42971 -0.42971,3.43766 -0.42971,0.42971 h -6.44563 l -0.42971,-0.42971 v -2.57825 l -0.85942,-1.28912 h -1.71883 l -0.85942,0.85942 v 1.71882 l -0.85941,1.71884 h -6.01593 l -0.8594,-0.85941 v -3.00796 l -0.42973,-0.42971 h -2.14853 l -0.42971,0.42971 -0.42972,3.43766 -0.4297,0.42971 h -6.01593 l -0.4297,-0.85941 h -0.85942 l -0.4297,-0.42971 0.4297,-0.42972 3.43767,-0.85942 4.7268,-3.00795 0.85942,0.42971 -0.42971,-0.42971 5.5862,-5.58622 3.43768,-5.5862 v -0.85942 l 1.71882,-4.29709 v -2.57824 l 0.42972,-0.42972 v -6.87533 l -0.42972,-0.42971 v -1.71883 l -0.4297,-0.42972 -0.4297,-3.00796 -4.2971,-7.73475 -5.15649,-5.1565 -4.7268,-3.00796 0.85942,-0.42971 v -2.14854 z m -65.31571,0 h 6.01593 l 0.4297,0.42971 0.42971,3.43766 h 2.57825 l 0.42971,-0.85941 v -2.57825 l 0.42971,-0.42971 h 6.87534 l 0.4297,0.42971 0.42971,3.43766 h 2.57825 l 0.42971,-0.85941 v -2.57825 l 0.42972,-0.42971 h 6.87533 l 0.42971,0.42971 v 3.00796 l 0.4297,0.4297 h 2.57825 l 0.42972,-3.43766 0.4297,-0.42971 h 6.01592 l 0.4297,0.42971 v 1.71882 l 0.85943,0.42972 -5.58621,3.43767 -4.7268,4.72679 -2.14854,3.00795 -1.71883,3.43768 -0.85942,3.00796 -0.4297,0.4297 -0.42972,-0.4297 0.42972,0.4297 v 1.71885 l -0.42972,0.4297 v 2.14855 l -0.42971,0.4297 v 6.01592 l 0.42971,0.42972 v 1.71883 l 0.42972,0.42971 0.4297,3.00796 3.43767,6.87533 1.28912,1.71885 5.58622,5.15649 -0.42972,0.42971 0.42972,0.4297 0.85941,-0.4297 0.42972,0.4297 -0.42972,0.42972 0.42972,-0.42972 3.86737,2.14854 1.71883,0.42972 0.42971,0.85942 -0.85942,1.28912 h -6.01592 l -0.4297,-0.42971 -0.42972,-3.43766 -0.4297,-0.42971 h -1.71884 l -0.85942,0.85942 v 1.71882 l -0.8594,1.71884 h -6.01593 l -0.85942,-2.14854 v -1.71883 h -0.85942 l -0.4297,-0.42971 -1.71884,0.42971 v 1.71883 l -0.85942,2.14854 h -6.01592 l -0.42971,-0.42971 -0.4297,-3.43766 -0.85942,-0.42971 -2.14854,0.85942 v 3.00795 l -0.42971,0.42971 h -0.85941 l -0.42973,0.42971 h -4.72678 l -0.85942,-0.85942 v -2.57825 l -0.4297,-0.85941 h -2.14855 l -0.42971,-0.42971 2.14854,-1.28913 5.1565,-5.15649 2.14855,-3.00797 2.57826,-5.58621 0.4297,-2.57826 0.42972,-0.4297 v -2.57826 l 0.4297,-0.4297 v -6.01592 l -0.4297,-0.42971 v -2.14854 l -0.42972,-0.42972 v -1.28913 l -0.4297,-0.4297 -0.42972,-2.14853 -3.86737,-6.87535 -5.1565,-5.1565 -4.29709,-2.57825 0.4297,-0.42971 h 0.85943 v -2.57825 z m -7.73475,0.85941 0.4297,-0.4297 h 0.42972 l 0.42971,-0.42971 h 1.71883 l 0.4297,0.42971 v 0.85941 l 0.42972,0.42971 -0.42972,0.4297 h -0.4297 l -0.42972,-0.4297 h -0.8594 l -0.42971,-0.42971 h -0.85943 z m 307.24163,0 v -0.85941 l 0.4297,-0.42971 h 4.72681 l 0.4297,0.42971 -0.4297,0.42971 h -2.14855 l -0.42971,0.4297 h -1.28912 l -0.4297,0.42971 h -0.42973 z M 389.7027,168.3554 h 5.58621 l 0.85942,0.85942 v 3.00796 l 0.42971,0.4297 h 2.57825 v -2.57825 l 0.85941,-1.71883 h 4.7268 l 0.42971,0.42971 0.85942,-0.42971 0.4297,0.42971 v 1.71883 l 0.85942,2.14854 h 2.14854 l 0.42971,-3.43766 0.42971,-0.42971 0.42971,1.28912 0.42972,-0.85941 -0.85943,-0.42971 0.42971,-0.42971 h 6.01593 l 0.4297,0.42971 v 2.14853 l 0.85942,1.71884 h 2.14854 l 0.4297,-3.86737 0.42972,-0.42971 h 6.01592 l 0.4297,0.42971 v 1.71883 l 0.85942,0.85942 -5.58621,3.43767 -4.29709,4.29708 -2.57825,3.86738 -1.71883,3.43766 -1.28913,3.86739 -0.42971,5.5862 -0.42971,0.42972 1.28913,8.59417 3.00795,6.44563 2.57826,3.43767 3.86738,3.86738 5.58621,3.43766 -1.28912,3.00796 -0.42971,-0.42971 -0.42971,0.42971 h -5.1565 l -0.42972,-0.42971 -0.4297,-3.86737 h -2.14854 l -0.85942,0.85942 v 2.57825 l -0.85943,0.85941 -4.72678,-0.42971 -0.4297,-0.4297 0.4297,-0.42971 -0.85942,-0.42972 -0.42971,1.28913 -0.42971,-0.4297 -0.42971,-3.43767 h -2.14854 l -0.85942,0.85942 v 2.57825 l -0.85941,0.85941 h -5.58622 l -0.42971,-0.42971 -0.4297,-3.86737 h -2.57825 l -0.42971,0.85942 v 2.57825 l -0.85942,0.85941 -0.42971,-0.42971 -0.42971,0.42971 h -4.72679 l -0.4297,-0.42971 v -2.14855 l -0.85943,-0.4297 2.57825,-1.28912 3.86738,-3.00796 0.42971,0.4297 -0.42971,-0.4297 3.43767,-3.43766 0.42972,0.4297 -0.42972,-0.85943 2.14854,-2.57824 2.57826,-5.58621 0.4297,0.85941 -0.4297,-2.14855 0.4297,-0.4297 0.42971,-4.29708 0.42971,-0.42971 v -5.15651 l -0.42971,-0.4297 v -2.14855 l -0.42971,-0.4297 -0.4297,-3.00796 -1.28912,-2.57826 v -0.85941 l -2.57826,-4.2971 -2.14855,-2.57824 0.42971,-0.4297 -0.42971,0.4297 -3.86738,-3.43766 -5.1565,-3.00797 0.85941,-0.42972 v -1.71882 z m -11.17242,0.42971 0.4297,-0.42971 h 5.15651 l 0.4297,0.42971 v 0.42971 l 0.42972,0.4297 -0.42972,0.42971 h -0.85941 l -0.42971,-0.42971 0.42971,-0.4297 -0.42971,0.4297 h -1.28913 l -0.42971,-0.4297 h -2.57825 z m -12.03185,0 0.4297,-0.42971 h 6.87535 l 0.42971,0.42971 -0.42971,0.42971 h -2.57824 l -0.42972,0.4297 h -1.28913 l -0.4297,-0.4297 h -2.14856 z m -42.11143,0 h 5.5862 l 0.85942,1.28912 v 2.14855 l 0.42972,0.4297 h 2.14854 l 0.42971,-0.4297 v -3.00796 l 0.85941,-0.85942 0.4297,0.42971 h 6.01593 l 0.4297,0.42971 0.42971,3.43766 h 2.57825 l 0.42972,-3.43766 0.42971,-0.42971 h 5.5862 l 0.42971,-0.42971 0.85943,0.85942 v 3.00796 l 0.4297,0.4297 h 2.57825 v -2.14854 l 0.85942,-2.14854 h 6.01592 l 0.4297,0.42971 v 1.71883 l 0.42972,0.85942 0.85942,0.42971 -2.57826,1.28913 -3.43766,2.57825 -3.86739,4.29708 -3.86737,6.87535 v 0.8594 l -0.85941,1.71883 v 1.28913 l -0.42972,0.42972 v 2.14854 l -0.42971,0.42971 v 6.01592 l 0.42971,0.4297 v 2.57826 l 0.42972,0.4297 0.4297,2.57826 1.28912,2.14854 v 0.85941 l 2.14855,3.86738 3.00796,3.43767 -0.42971,0.42971 1.71884,1.71883 0.42971,-0.4297 0.85942,0.4297 1.28911,1.28913 3.43767,2.14855 -1.28912,3.43766 h -6.01592 l -0.42971,-0.42971 -0.42971,-3.43766 -0.4297,-0.42971 h -2.14855 l -0.4297,0.85942 v 2.57825 l -0.85943,0.85941 -6.01591,-0.42971 -0.42971,-0.4297 -0.42972,-3.43767 h -2.14853 l -0.85943,0.85942 v 2.14854 l -0.8594,1.28912 H 334.7 l -0.85941,-1.28912 v -2.57825 l -0.42971,-0.42971 h -2.14854 l -0.42972,0.42971 -0.4297,3.00796 -1.28913,0.85941 H 324.387 l -0.42971,-0.42971 -0.42972,-1.71883 4.29709,-2.14854 3.86738,-3.00796 0.4297,0.4297 0.85942,-0.85941 -0.4297,-0.42972 2.14854,-2.14853 2.14855,-3.00796 3.00796,-6.44563 v -1.28913 l 0.85942,-2.14854 V 198.435 l 0.4297,-0.42971 -0.4297,-6.01593 -0.42972,-0.4297 v -1.28912 L 339.4268,188.122 v -0.85942 l 0.42971,-0.4297 -0.42971,0.4297 -0.42972,-0.4297 -0.4297,-1.71885 -3.86738,-6.01592 -4.29708,-4.29708 -3.00796,-1.71883 -0.85943,-0.85942 0.42973,-0.42971 -0.85943,0.42971 -2.14854,-1.28914 v -1.71882 z m -9.45359,0 0.42971,-0.42971 h 4.29708 l 1.28913,1.28912 -0.42972,0.42971 h -0.4297 l -0.42971,-0.42971 h -1.28913 l -0.4297,-0.4297 h -2.57825 z m -11.60214,1.28912 v -0.42971 l 0.42971,-0.4297 v -0.42971 l 0.42971,-0.42971 h 6.87533 l 0.42972,0.42971 -0.42972,0.42971 h -3.00794 l -0.42972,0.4297 h -1.28912 l -0.42971,-0.4297 h -1.28914 1.28914 l 0.42971,0.4297 -0.42971,0.42971 h -1.28914 l -0.4297,0.42971 h -0.42971 z m -3.86737,-1.28912 0.42971,0.42971 v 2.14854 l 0.85942,0.42971 -3.86738,2.14853 -3.86738,3.43769 -0.4297,-0.42973 -0.42973,0.42973 0.42973,0.4297 -0.42973,0.85942 -1.71882,1.71882 -3.00796,5.15651 -1.28913,3.86737 v 1.28913 l -0.42971,0.42972 v 1.71883 l -0.42971,0.42971 v 6.87533 l 0.42971,0.42972 v 2.14854 l 0.42971,0.4297 v 1.28912 l 0.85943,2.57826 2.57824,5.15651 1.28912,1.28912 0.42972,0.85943 -0.42972,0.4297 0.42972,-0.4297 2.14854,2.57823 1.71882,1.28913 -0.4297,0.42972 0.4297,0.4297 0.42973,-0.4297 4.29708,3.00796 1.28912,0.4297 -1.28912,0.85942 v 1.71883 l -0.42971,0.42971 h -5.58621 l -0.85942,-0.85941 v -3.00796 l -0.4297,-0.42971 h -2.57826 l -0.42971,3.86737 -0.42971,0.42971 -0.42971,-1.28912 h -0.85942 l 0.85942,0.42971 -0.4297,0.85941 -0.85942,-0.42971 h -4.29709 l -1.28912,-3.86737 h -2.14855 l -0.42971,0.42971 v 1.71883 l -0.85942,2.14854 -0.4297,-0.42971 -0.4297,0.42971 h -5.58622 l -0.42971,-0.42971 -0.42971,-3.43766 -0.42971,-0.42971 h -2.14854 l -0.4297,3.43767 -0.85943,0.85941 h -6.01592 l -0.4297,-0.42971 v -1.28913 l -0.85942,-0.4297 1.28912,-0.85942 h 0.85943 l 5.15649,-3.43766 4.29709,-4.29708 2.57825,-4.72681 0.85942,-0.85942 2.14853,-6.44562 0.42973,-8.59417 -0.42973,-0.42971 v -1.71884 l -0.4297,-0.4297 v -1.28913 l -1.28912,-3.86738 -3.86738,-6.44563 -4.7268,-4.72679 -4.72678,-3.00796 -2.14855,-0.85943 0.85942,-0.4297 0.85942,-1.71883 h 6.01591 l 0.42972,0.42971 v 2.57825 l 0.4297,0.85941 h 2.57825 v -2.14854 l 0.85942,-1.71883 h 6.44562 l 0.42972,0.42971 0.4297,3.43766 h 2.57826 l 0.4297,-0.85941 v -2.57825 l 0.4297,-0.42971 h 6.44564 l 0.85942,2.14853 v 1.71884 h 2.57826 l 0.4297,-0.4297 v -3.43767 l 0.42971,-0.42971 0.42971,0.42971 z m -48.55708,0 0.42972,-0.42971 h 5.1565 l 0.42971,0.42971 v 0.42971 l 0.4297,0.4297 -0.4297,0.42971 h -0.42971 l -0.42971,-0.42971 h -1.28913 l -0.4297,-0.4297 h -3.00796 z m -11.17241,1.28912 0.42971,-0.42971 v -0.85941 l 0.42971,-0.42971 h 6.87533 l 0.4297,0.42971 -0.4297,0.42971 h -3.00796 l -0.42971,0.4297 h -1.71884 l -0.4297,-0.4297 h -0.85942 0.85942 l 0.4297,0.4297 -0.4297,0.42971 h -0.85942 l -0.4297,0.42971 h -0.42971 z m -55.43241,-1.28912 0.4297,-0.42971 h 3.43768 l 0.4297,0.42971 h 3.86738 l 0.4297,0.42971 v 0.4297 l 0.42973,0.42971 -0.42973,0.42971 h -0.85941 l -0.42971,-0.42971 h -0.85941 l -0.4297,-0.42971 h -2.14855 l -0.42971,-0.4297 h -3.00797 z m -7.73475,0.42971 v -0.42971 l 0.4297,-0.42971 h 5.15651 l 0.4297,0.42971 -0.4297,0.42971 h -3.43767 l -0.42971,0.4297 h -1.28913 z m -67.89397,0.4297 0.42972,-0.4297 v -0.42971 l 0.42971,-0.42971 h 6.01592 l 0.42971,0.42971 -0.42971,0.42971 h -3.43768 l -0.4297,0.4297 h -1.28912 l -0.42972,0.42971 H 109.103 Z m 334.74299,-0.85941 0.42971,-0.42971 h 1.71883 l 0.42972,-0.4297 0.4297,0.4297 h 0.85942 l 0.4297,0.42971 v 0.42971 l -0.4297,0.4297 h -0.85942 l -0.4297,-0.4297 h -2.14855 z m -6.01592,-0.42971 0.42971,-0.4297 h 4.29709 l 0.4297,0.4297 -0.4297,0.42971 h -4.29709 z M 99.219695,167.49598 h 0.429713 l 0.429712,0.85942 h 4.29708 l 0.42972,0.42971 v 2.14853 l 0.8594,0.42972 -2.57825,1.28912 -2.14853,1.71885 h -0.42972 l -5.156493,5.15649 v 0.42971 l -2.148545,2.57824 -2.148546,4.29711 v 0.8594 l -0.859416,1.71883 v 1.28913 l -0.429713,0.42972 v 2.14854 l -0.429703,0.42971 v 6.87534 l 0.429703,0.4297 0.429713,3.43766 0.429703,0.42972 0.429713,2.14854 0.859416,1.28913 v 0.85942 l 0.859416,1.71882 1.718843,2.14855 v 0.42971 l 1.718822,1.71883 0.429713,0.85942 -0.429713,0.42971 0.429713,-0.42971 1.718833,1.71884 h 0.429713 l 3.007958,2.57824 -0.85941,0.42972 -0.85942,1.71882 -1.718841,-0.4297 -0.429703,-0.4297 H 97.07116 l -0.429714,-0.42971 H 95.78203 l -1.718832,-1.28913 v -2.14854 l 0.429713,-0.42971 v -0.85942 l -0.429713,-0.42971 -1.718833,-0.42971 -2.148545,3.00797 h -1.718833 l -1.289129,-0.85942 -2.148535,-0.42971 -1.28913,-1.28913 0.429703,-0.42971 v -1.28911 l 0.429703,-0.42973 v -1.28912 l -0.429703,-0.4297 -2.148535,-0.42971 -0.429703,1.28912 -1.28914,1.28914 v 0.4297 l -0.859416,0.4297 -2.578249,-1.28913 -2.148545,-0.4297 -0.859417,-0.85942 0.859417,-3.43766 -1.28912,-0.85942 h -0.859416 l -0.429713,-0.42971 -2.148549,3.43767 -0.859408,-0.42972 0.429704,-0.4297 -0.429704,-0.42971 h -0.429715 l 0.859419,0.42971 -0.429704,0.4297 h -1.289134 l -0.429704,-0.4297 h -0.85942 l -2.578246,-1.28912 v -1.28913 l 0.859419,-1.28913 1.718827,-0.4297 0.429716,-0.42971 h 0.859408 l 4.297091,-2.14855 2.578249,-2.14855 h 0.429703 l 4.297091,-4.29708 v -0.4297 l 1.289129,-1.28913 v -0.42971 l 1.718833,-2.14854 1.718832,-3.43768 v -0.85941 l 0.859427,-1.28912 0.429703,-2.57825 0.429713,-0.42971 v -2.57825 l 0.429703,-0.42971 v -7.73476 l -0.429703,-0.4297 0.429703,-0.42972 h 2.148545 l 0.429703,-0.4297 0.429714,-2.57826 0.429703,-0.4297 3.437675,-0.42971 0.429703,-0.42971 h 0.859426 l 0.429703,0.42971 -0.429703,0.85941 v 2.14855 l 0.429703,0.42971 h 2.578259 l 0.429703,-3.86738 z m -24.493387,-1.28912 0.429703,0.4297 v 0.42971 l 0.859426,0.85943 v 0.4297 l 0.429713,0.42971 v 0.85941 l 0.429703,0.42971 v 2.14855 l -0.859416,0.85942 h -0.429703 l -0.859426,0.8594 h -0.859417 l -0.429703,0.42973 h -2.148543 l -0.429715,-0.42973 0.429715,-0.4297 h 1.71883 l 0.429713,-0.4297 -0.859416,-0.85942 h -0.859423 v 0.4297 l -0.429704,0.42972 -0.429715,-0.42972 0.429715,0.42972 v 0.4297 l -0.429715,0.4297 -0.85942,-0.8594 v -0.85942 l -0.429704,-0.42971 v -0.42971 l -0.429704,-0.42972 v -0.4297 l 0.859408,-0.85942 h 0.429716 l 0.429704,-0.4297 h 0.429715 l 0.859414,-0.85942 h 0.429713 z m -9.453587,0.4297 0.429704,-0.4297 h 4.297085 l 0.429716,0.4297 -0.429716,0.42971 h -0.429704 l -0.429704,0.42971 h -0.429715 l -0.429704,0.42972 h -0.429715 l -0.429704,-0.42972 -0.429704,0.42972 h -0.429716 z m 201.103619,-0.85941 0.4297,-0.42971 h 5.58622 l 0.4297,0.42971 -0.4297,0.42971 h -5.58622 z m -59.29978,0 0.4297,-0.42971 h 6.01592 l 0.42971,0.42971 -0.42971,0.42971 h -6.01592 z m -9.45359,0 0.4297,-0.42971 h 4.72681 l 0.4297,0.42971 -0.4297,0.42971 h -4.72681 z m -10.74273,0 0.42972,-0.42971 h 4.72679 l 0.42971,0.42971 -0.42971,0.42971 h -4.72679 z m -11.17241,0 0.4297,-0.42971 h 4.29708 l 0.42973,0.42971 -0.42973,0.42971 h -4.29708 z m -16.32893,0 0.42971,-0.42971 h 10.31301 l 0.4297,0.42971 -0.4297,0.42971 h -10.31301 z m -5.58621,0 0.4297,-0.42971 h 4.29709 l 0.42971,0.42971 -0.42971,0.42971 h -4.29709 z m -21.48543,0 0.42971,-0.42971 h 15.46951 l 0.4297,0.42971 -0.4297,0.42971 h -15.46951 z m -12.89126,0 0.42971,-0.42971 h 6.87533 l 0.42972,0.42971 -0.42972,0.42971 h -6.87533 z m 323.14085,-0.42971 0.42972,-0.4297 h 4.29708 l 0.4297,0.4297 -0.4297,0.42971 h -4.29708 z m -52.85415,0 0.42971,-0.4297 h 5.1565 l 0.42971,0.4297 -0.42971,0.42971 h -2.14855 l -0.4297,0.42971 h -2.14854 z m -10.74272,0 0.4297,-0.4297 h 4.2971 l 0.42971,0.4297 -0.42971,0.42971 h -4.2971 z m 74.33959,-0.4297 0.4297,-0.42973 h 6.44563 l 0.42971,0.42973 -0.42971,0.4297 h -6.44563 z m 24.49339,-3.00796 0.85941,0.85941 0.85942,2.14855 0.85942,0.4297 -3.00797,3.86738 -0.8594,1.71882 v 0.85943 l -0.85943,1.28913 v 0.8594 l -0.42971,0.42973 v 1.71882 l -0.4297,0.42971 v 8.16447 l 0.4297,0.4297 v 1.28912 l 0.42971,0.42973 0.42972,2.14853 2.57824,4.7268 4.7268,5.15649 h 0.4297 l 2.57826,2.14855 2.57825,1.28913 h 0.85942 l 1.71884,0.85941 h 1.28912 l 0.4297,0.42971 4.7268,0.42971 0.42971,0.4297 v 2.14855 l -0.85941,0.85942 h -0.85942 l -4.29709,1.71884 -2.14854,-3.43767 h -0.85942 l -1.71884,0.85941 0.42972,3.86738 -0.85942,0.85942 h -0.85942 l -4.29708,1.71883 -0.85943,-0.85941 -1.28912,-2.57826 -2.57826,0.85942 0.42972,3.86739 -0.85942,0.8594 -3.43766,0.85942 -1.28914,0.85941 -0.85941,-0.4297 -1.28913,-3.00796 h -1.28913 l -1.28912,0.85943 v 2.14853 l 0.42971,0.4297 v 0.85943 l -2.57825,1.71883 -3.43767,0.85941 -1.28913,-1.28912 -0.42971,-1.28912 -0.85942,-0.42971 2.14855,-2.14855 0.42971,0.42971 -0.42971,-0.85941 1.71883,-1.71884 2.57825,-4.29709 v -0.85941 l 0.85943,-1.28913 0.42971,-2.57825 0.85941,-1.71883 v -2.14855 l 0.42971,-0.4297 v -5.58622 l -0.42971,-0.4297 v -2.14855 l -0.42971,-0.4297 v -1.28913 l -0.4297,-0.42972 -0.42971,-2.57823 -3.86739,-6.87535 -3.00795,-3.00797 v -0.4297 l -2.57826,-2.14853 -2.57824,-1.71885 -1.28913,-0.4297 -0.85942,-0.85942 h -0.85941 l -0.42973,-0.42972 0.85943,-0.4297 v -2.14854 l 0.42971,-0.4297 h 1.28912 l 0.42971,-0.42972 h 3.00796 l 0.42972,0.42972 -0.85942,0.4297 h 0.85942 l -0.42972,-0.85942 0.42972,-0.42971 0.85941,0.42971 0.42971,3.00796 0.4297,0.4297 h 2.14855 l 0.85942,-0.85941 -0.42971,-3.00796 0.85941,-0.85941 h 2.14855 l 0.42971,-0.42971 h 1.71884 l 0.4297,-0.42971 h 0.85942 l 0.4297,0.42971 0.42972,1.71883 0.85941,1.28913 h 1.28913 l 1.28912,-0.85941 v -1.28914 l -0.85942,-2.14855 0.42971,-0.4297 0.85942,0.4297 -0.42971,-0.4297 0.85943,-0.85942 h 0.85941 l 0.42971,-0.4297 z m 7.73475,-2.57826 0.85942,0.85941 -0.4297,0.42972 h -0.42972 l -0.85942,0.8594 h -0.42971 l -1.71883,1.71884 -0.4297,-0.4297 v -2.14854 l 0.4297,-0.42972 h 0.85942 l 0.4297,-0.4297 h 0.42971 l 0.42971,-0.42971 z m 8.59417,-2.57825 0.42972,-0.4297 h 7.30504 l 0.42971,0.4297 -0.42971,0.4297 h -7.30504 z"
     fill="#000000"
     fill-rule="evenodd"
     id="path1"
     style="stroke-width:0.429708" />
  <path
     d="m 389.7027,84.562217 -12.46155,-27.071635 -44.25999,-6.875343 -2.14854,-2.578247 h -9.02387 l -2.57826,2.148543 -2.14855,-3.437666 -0.4297,-28.790482 -2.14853,0.429716 v 28.79047 l -2.14855,3.007962 h -7.73477 l -0.4297,-8.164466 -7.73475,-3.007961 -9.8833,-0.85942 -7.30505,0.85942 -7.73475,3.437665 v 7.734762 h -7.30505 l -6.01592,-2.578258 -3.86737,3.007962 -54.57299,6.875343 -6.01592,13.750674 -3.00796,2.578246 -3.43767,10.313011 0.85942,7.305047 -2.14855,-7.305047 4.7268,-13.750677 -6.87533,0.429704 -2.14855,2.578258 -32.65785,3.437665 -104.848899,0.859419 -3.007962,-3.007961 -24.493386,0.85942 0.85942,11.172419 h 24.063681 l 2.578247,-3.00795 115.591609,1.289122 22.34485,3.437666 1.71884,3.007962 h 5.1565 l 1.28913,5.156499 3.00796,2.14855 4.29708,8.594171 h 163.71896 l 0.42972,-6.87533 19.76658,-2.148561 z M 21.012737,78.976006 21.442442,78.546302 h 9.883304 l 0.429704,0.429704 v 3.437665 l -0.429704,0.42972 h -9.883304 l -0.429705,-0.42972 z"
     fill="#000000"
     fill-rule="evenodd"
     id="path2"
     style="stroke-width:0.429708" />
</svg>
