<svg xmlns="http://www.w3.org/2000/svg" viewBox="0 0 106 75" width="106" height="75">
  <path d="M 16.00 65.00 L 18.00 67.00 L 35.00 67.00 L 35.00 63.00 L 36.00 62.00 L 36.00 59.00 L 37.00 58.00 L 37.00 56.00 L 39.00 52.00 L 39.00 49.00 L 40.00 48.00 L 40.00 46.00 L 42.00 44.00 L 54.00 44.00 L 56.00 43.00 L 57.00 41.00 L 57.00 36.00 L 59.00 34.00 L 75.00 34.00 L 76.00 33.00 L 90.00 33.00 L 91.00 32.00 L 91.00 27.00 L 92.00 26.00 L 92.00 21.00 L 91.00 19.00 L 90.00 19.00 L 88.00 17.00 L 86.00 17.00 L 84.00 19.00 L 33.00 19.00 L 30.00 17.00 L 28.00 17.00 L 26.00 19.00 L 25.00 19.00 L 23.00 22.00 L 19.00 21.00 L 19.00 24.00 L 21.00 26.00 L 21.00 29.00 L 20.00 30.00 L 17.00 30.00 L 16.00 31.00 L 16.00 34.00 L 20.00 34.00 L 23.00 36.00 L 23.00 42.00 L 21.00 45.00 L 19.00 53.00 L 16.00 59.00 Z M 50.00 34.00 L 53.00 34.00 L 56.00 38.00 L 56.00 40.00 L 53.00 43.00 L 50.00 43.00 L 48.00 40.00 L 48.00 36.00 Z" fill="#000000" stroke="#000000" stroke-width="0.5" fill-rule="evenodd" clip-rule="evenodd"/>
</svg>
