<?xml version="1.0" encoding="UTF-8" standalone="no"?>
<svg
   width="400"
   height="250"
   viewBox="0 0 400 250"
   version="1.1"
   id="svg3"
   sodipodi:docname="colt_1911_black.svg"
   inkscape:version="1.4.2 (f4327f4, 2025-05-13)"
   xmlns:inkscape="http://www.inkscape.org/namespaces/inkscape"
   xmlns:sodipodi="http://sodipodi.sourceforge.net/DTD/sodipodi-0.dtd"
   xmlns="http://www.w3.org/2000/svg"
   xmlns:svg="http://www.w3.org/2000/svg">
  <defs
     id="defs3" />
  <sodipodi:namedview
     id="namedview3"
     pagecolor="#ffffff"
     bordercolor="#000000"
     borderopacity="0.25"
     inkscape:showpageshadow="2"
     inkscape:pageopacity="0.0"
     inkscape:pagecheckerboard="0"
     inkscape:deskcolor="#d1d1d1"
     inkscape:zoom="0.93700159"
     inkscape:cx="626.46638"
     inkscape:cy="627"
     inkscape:window-width="2560"
     inkscape:window-height="1377"
     inkscape:window-x="-8"
     inkscape:window-y="-8"
     inkscape:window-maximized="1"
     inkscape:current-layer="svg3" />
  <path
     d="m 379.03175,222.53954 -3.39149,-16.61833 -24.75793,-58.33372 3.73065,-4.40895 -11.19193,-24.75793 1.3566,-10.51362 5.76554,-8.139592 9.49619,-5.087249 13.56599,-1.356596 3.73064,-4.069795 -4.0698,-7.800439 -21.70557,-4.408947 -6.78299,-7.800439 0.33915,-15.261725 8.13959,-9.157045 9.15704,-3.730644 -0.6783,-5.765542 -19.67067,3.052352 -4.40895,-2.374049 -4.40895,-9.157045 -11.87023,-1.017443 10.17448,-0.339152 -10.51363,0.678303 -5.76555,-11.191942 -6.10469,2.034898 -3.73064,9.157044 H 49.717511 L 305.09715,25.49364 49.37836,25.832792 44.291111,18.710655 30.72513,19.049796 l -1.695747,6.782996 -5.087238,1.017443 -5.087248,6.782996 -1.695748,17.635776 0.339149,-8.139591 1.356599,17.974928 3.730645,1.695747 -0.33915,15.261736 4.748094,6.443843 139.390484,4.069785 12.54852,10.513638 2.03491,18.314077 8.1396,13.56598 13.56597,5.76555 43.072,-1.3566 10.51364,3.73064 7.12213,9.15704 26.45368,82.41335 -3.73064,3.73064 1.35659,4.40895 66.81247,-5.76555 1.35659,-5.42638 20.00983,-1.69576 z m 0.33915,-5.4264 0.33915,0.33916 v 3.3915 l -0.33915,0.33914 -0.33915,-0.33914 v -3.3915 z m -50.19413,-7.80044 h 3.05235 l 0.33915,0.33916 -0.33915,0.33914 h -0.33916 0.33916 l 0.33915,-0.33914 h 0.33914 l 0.33915,0.33914 h 0.33916 l 1.01744,1.01746 v 0.33915 l 0.33914,0.33915 v 0.67829 l 0.33916,0.33916 v 1.35658 l -0.33916,0.33916 v 1.01745 l -0.33914,0.33916 v 0.33914 l -1.01744,1.01744 -0.33916,-0.33914 h -0.33915 l -0.33914,0.33914 h -0.33915 0.33915 l 0.33914,0.33916 -0.33914,0.33915 h -0.67831 l -0.33915,0.33914 h -1.69574 l -0.33915,-0.33914 h -0.6783 l -0.33915,-0.33915 0.33915,-0.33916 h 0.33915 V 216.774 h -0.6783 l -0.33915,0.33914 -0.6783,-0.67829 0.33915,-0.33915 -0.33915,-0.33914 v -0.33916 l -0.33916,-0.33915 v -1.01746 l -0.33915,-0.33914 -0.33914,0.33914 -0.33914,-0.33914 v -0.33915 l 0.33914,-0.33915 v -1.01745 l 0.33914,-0.33914 0.33915,0.33914 v 1.01745 -1.01745 l -0.33915,-0.33914 v -0.33915 l 0.67831,-0.67831 0.33915,0.33916 h 0.33915 v -0.33916 l -0.33915,-0.33915 0.6783,-0.67829 h 0.33915 z m -139.72963,-108.52787 0.67831,-0.67828 0.67829,0.33915 2.0349,-2.034901 -0.33915,-0.339152 2.0349,-1.69574 0.6783,0.339142 -0.33915,0.339152 0.67829,-0.339152 -0.67829,-0.339142 1.01744,-0.678305 1.01746,0.339152 -0.67831,-0.339152 1.01746,-0.678302 3.39149,-1.017443 h 2.03489 l 0.33916,-0.339153 h 20.34896 l 0.33916,1.017445 1.01745,1.017453 -0.6783,0.339152 2.7132,2.713187 0.33915,-0.339142 1.01744,1.356599 -0.33915,0.339152 0.33915,-0.339152 0.67831,0.678302 -0.33915,0.67829 -0.33916,-0.33916 0.33916,0.67831 0.33915,-0.67831 0.67829,1.01746 -0.33914,1.3566 0.33914,0.33915 0.33915,-0.6783 0.33916,0.33915 1.35658,4.06979 0.33916,6.10469 -0.33916,0.33915 -0.33914,3.05235 -0.67829,1.3566 -0.33915,-1.01744 0.33915,1.69574 -0.67831,1.01745 -0.33915,-0.33915 0.33915,0.33915 -0.33915,1.3566 -0.67829,0.6783 -0.33915,-0.6783 0.33915,-0.33915 -0.33915,0.33915 0.33915,1.01745 -1.01746,1.3566 -0.33915,-0.67831 0.33915,-0.33915 -0.33915,0.33915 0.33915,1.01746 -0.67829,0.67829 -0.33915,-0.33914 -0.33915,0.33914 0.33915,0.33916 -0.6783,1.01744 -3.05235,2.7132 v 0.67829 l 0.6783,0.67831 -0.33916,0.33915 h -19.67067 19.67067 l 0.33916,-0.33915 h 3.05235 l 0.33915,-0.33916 h 1.01744 l 0.33916,0.33916 -3.05235,1.01744 h -23.06217 l -3.05235,-1.01744 0.6783,-0.33916 -1.69574,0.33916 -1.01745,-0.67831 0.33914,-0.33914 -1.01744,0.33914 -2.37405,-1.35659 -0.6783,-0.6783 0.6783,-0.33915 -0.6783,0.33915 -1.01745,-0.6783 0.33915,-0.33915 -0.33915,0.33915 -2.7132,-2.71319 -0.33915,-0.67831 0.33915,-0.33915 -0.33915,0.33915 -0.67829,-0.6783 0.33915,-0.67829 -0.33915,0.33915 -0.67831,-1.01745 0.33915,-1.01744 -0.6783,0.33914 -0.67829,-1.3566 0.33914,-0.67831 -0.33914,-1.69574 v 0.6783 l -0.33916,0.33915 -0.33914,-0.33915 v -1.01745 l 0.33914,-0.33914 -0.33914,-2.37406 v 1.01745 l -0.33915,0.33915 -0.33915,-0.33915 v -5.08724 l 0.33915,-0.33914 0.33915,1.01744 0.33914,-0.6783 -0.33914,-2.7132 0.33914,-0.33915 0.33916,0.6783 0.33914,-0.6783 -0.33914,-1.69574 0.67829,-1.01745 0.33915,0.33916 -0.33915,-0.67831 0.33915,-0.33915 0.33915,0.33915 0.67831,-0.6783 -0.33915,-1.01745 0.67829,-0.6783 0.33915,0.33915 0.33916,-0.33915 -0.33916,0.33915 z m 44.4286,-13.56597 h 1.01745 l 0.33914,-0.339151 0.33915,0.339151 h 1.01746 l 1.69575,1.695747 v 2.374048 l -0.33915,0.339152 -0.33916,-0.339152 v -2.034897 l -0.33915,0.339152 0.33915,0.339151 v 0.678292 l -0.33915,0.339151 v 0.678303 l -0.67829,0.678303 1.01744,-1.017455 0.33916,0.339152 v 0.339152 l -1.01745,1.017443 h -0.33915 l -0.33916,0.339151 h -2.03489 l -0.33915,-0.339151 h -0.33915 l -0.33915,-0.339151 0.33915,-0.339141 v -0.339151 l -0.33915,-0.339152 v 0.339152 l -0.33915,0.339151 -0.33915,-0.339151 v -0.339152 l -0.33915,-0.339152 v -2.034897 l 0.33915,-0.339151 0.33915,0.339151 v 0.339152 -0.339152 l 0.6783,-0.678303 v -0.339141 l -0.33915,-0.339151 z m 54.94223,-2.374049 h 0.6783 l 0.33915,-0.339141 h 1.69574 l 0.33915,0.339141 -0.33915,0.339152 h -1.35659 l -0.33915,0.339151 h 2.37405 -0.33916 l -0.33915,-0.339151 0.33915,-0.339152 h 0.67831 l 0.33915,0.339152 h 0.33914 l 0.33915,0.339151 -0.33915,0.339152 h -0.33914 l 0.33914,0.339151 h 0.33915 l 0.33916,0.339141 v 0.678302 l 0.33915,0.339152 V 87.21886 l 0.33914,-0.339151 0.33914,0.339151 v 0.339152 l 0.33915,0.339151 v 2.374049 l -0.33915,0.339141 v 0.339151 l -0.33914,0.339151 -0.33914,-0.339151 v -0.339151 l -0.33915,0.339151 v 0.339151 l -0.67831,0.678304 h -0.33914 v 0.339151 l 0.33914,0.339141 -0.33914,0.339151 h -0.33915 l -0.33915,0.339151 h -2.7132 l -0.33915,-0.339151 h -0.33915 l -0.33915,-0.339151 0.33915,-0.339141 -0.33915,-0.339151 h -0.33915 l -0.33915,0.339151 -1.01745,-1.017455 v -0.678302 l -0.33915,-0.339141 v -2.374049 l 0.33915,-0.339151 v -0.678303 l 0.6783,-0.678292 v -0.339151 l 0.33915,-0.339152 h 0.33915 l 0.33915,0.339152 -0.33915,0.339151 h 0.33915 v -0.339151 l -0.33915,-0.339152 z"
     fill="#000000"
     fill-rule="evenodd"
     id="path3"
     style="stroke-width:0.339149" />
</svg>
