<svg xmlns="http://www.w3.org/2000/svg" width="1254" height="1254" viewBox="0 0 1254 1254">
<rect width="100%" height="100%" fill="white"/>
<path d="M 643,530 L 645,530 L 646,531 L 648,531 L 649,530 L 650,530 L 651,531 L 664,531 L 665,530 L 666,530 L 667,531 L 669,531 L 670,530 L 671,530 L 672,531 L 679,531 L 680,530 L 685,530 L 686,531 L 700,531 L 701,530 Z" fill="black" fill-rule="evenodd"/>
<path d="M 123,503 L 125,503 L 126,504 L 135,504 L 136,503 L 137,504 L 157,504 L 158,503 L 164,503 L 165,504 L 168,504 L 169,503 L 171,503 L 172,504 L 173,504 L 174,503 L 175,503 L 176,504 L 181,504 L 182,503 L 183,504 L 185,504 L 186,503 L 187,504 L 188,503 L 189,504 L 196,504 L 197,503 L 208,503 L 209,504 L 215,504 L 216,503 L 220,503 L 221,504 L 230,504 L 231,503 L 235,503 L 236,504 L 241,504 L 242,503 L 244,503 L 245,504 L 249,504 L 250,503 L 252,503 L 253,504 L 254,503 L 256,503 L 257,504 L 278,504 L 279,503 L 281,503 L 282,504 L 285,504 L 286,503 L 287,504 L 295,504 L 296,503 L 298,503 L 299,504 L 301,504 L 302,503 L 303,504 L 304,503 L 305,504 L 319,504 L 319,503 Z" fill="black" fill-rule="evenodd"/>
<path d="M 1161,908 L 1151,859 L 1078,687 L 1089,674 L 1056,601 L 1060,570 L 1077,546 L 1105,531 L 1145,527 L 1156,515 L 1144,492 L 1080,479 L 1060,456 L 1061,411 L 1085,384 L 1112,373 L 1110,356 L 1052,365 L 1039,358 L 1026,331 L 991,328 L 1021,327 L 990,329 L 973,296 L 955,302 L 944,329 L 190,329 L 943,327 L 189,328 L 174,307 L 134,308 L 129,328 L 114,331 L 99,351 L 94,403 L 95,379 L 99,432 L 110,437 L 109,482 L 123,501 L 534,513 L 571,544 L 577,598 L 601,638 L 641,655 L 768,651 L 799,662 L 820,689 L 898,932 L 887,943 L 891,956 L 1088,939 L 1092,923 L 1151,918 Z M 1162,892 L 1163,893 L 1163,903 L 1162,904 L 1161,903 L 1161,893 Z M 1014,869 L 1023,869 L 1024,870 L 1023,871 L 1022,871 L 1023,871 L 1024,870 L 1025,870 L 1026,871 L 1027,871 L 1030,874 L 1030,875 L 1031,876 L 1031,878 L 1032,879 L 1032,883 L 1031,884 L 1031,887 L 1030,888 L 1030,889 L 1027,892 L 1026,891 L 1025,891 L 1024,892 L 1023,892 L 1024,892 L 1025,893 L 1024,894 L 1022,894 L 1021,895 L 1016,895 L 1015,894 L 1013,894 L 1012,893 L 1013,892 L 1014,892 L 1014,891 L 1012,891 L 1011,892 L 1009,890 L 1010,889 L 1009,888 L 1009,887 L 1008,886 L 1008,883 L 1007,882 L 1006,883 L 1005,882 L 1005,881 L 1006,880 L 1006,877 L 1007,876 L 1008,877 L 1008,880 L 1008,877 L 1007,876 L 1007,875 L 1009,873 L 1010,874 L 1011,874 L 1011,873 L 1010,872 L 1012,870 L 1013,870 Z M 602,549 L 604,547 L 606,548 L 612,542 L 611,541 L 617,536 L 619,537 L 618,538 L 620,537 L 618,536 L 621,534 L 624,535 L 622,534 L 625,532 L 635,529 L 641,529 L 642,528 L 702,528 L 703,531 L 706,534 L 704,535 L 712,543 L 713,542 L 716,546 L 715,547 L 716,546 L 718,548 L 717,550 L 716,549 L 717,551 L 718,549 L 720,552 L 719,556 L 720,557 L 721,555 L 722,556 L 726,568 L 727,586 L 726,587 L 725,596 L 723,600 L 722,597 L 723,602 L 721,605 L 720,604 L 721,605 L 720,609 L 718,611 L 717,609 L 718,608 L 717,609 L 718,612 L 715,616 L 714,614 L 715,613 L 714,614 L 715,617 L 713,619 L 712,618 L 711,619 L 712,620 L 710,623 L 701,631 L 701,633 L 703,635 L 702,636 L 644,636 L 702,636 L 703,635 L 712,635 L 713,634 L 716,634 L 717,635 L 708,638 L 640,638 L 631,635 L 633,634 L 628,635 L 625,633 L 626,632 L 623,633 L 616,629 L 614,627 L 616,626 L 614,627 L 611,625 L 612,624 L 611,625 L 603,617 L 602,615 L 603,614 L 602,615 L 600,613 L 601,611 L 600,612 L 598,609 L 599,606 L 597,607 L 595,603 L 596,601 L 595,596 L 595,598 L 594,599 L 593,598 L 593,595 L 594,594 L 593,587 L 593,590 L 592,591 L 591,590 L 591,575 L 592,574 L 593,577 L 594,575 L 593,567 L 594,566 L 595,568 L 596,566 L 595,561 L 597,558 L 598,559 L 597,557 L 598,556 L 599,557 L 601,555 L 600,552 L 602,550 L 603,551 L 604,550 L 603,551 Z M 733,509 L 736,509 L 737,508 L 738,509 L 741,509 L 746,514 L 746,521 L 745,522 L 744,521 L 744,515 L 743,516 L 744,517 L 744,519 L 743,520 L 743,522 L 741,524 L 744,521 L 745,522 L 745,523 L 742,526 L 741,526 L 740,527 L 734,527 L 733,526 L 732,526 L 731,525 L 732,524 L 732,523 L 731,522 L 731,523 L 730,524 L 729,523 L 729,522 L 728,521 L 728,515 L 729,514 L 730,515 L 730,516 L 730,515 L 732,513 L 732,512 L 731,511 Z M 895,502 L 897,502 L 898,501 L 903,501 L 904,502 L 903,503 L 899,503 L 898,504 L 905,504 L 904,504 L 903,503 L 904,502 L 906,502 L 907,503 L 908,503 L 909,504 L 908,505 L 907,505 L 908,506 L 909,506 L 910,507 L 910,509 L 911,510 L 911,509 L 912,508 L 913,509 L 913,510 L 914,511 L 914,518 L 913,519 L 913,520 L 912,521 L 911,520 L 911,519 L 910,520 L 910,521 L 908,523 L 907,523 L 907,524 L 908,525 L 907,526 L 906,526 L 905,527 L 897,527 L 896,526 L 895,526 L 894,525 L 895,524 L 894,523 L 893,523 L 892,524 L 889,521 L 889,519 L 888,518 L 888,511 L 889,510 L 889,508 L 891,506 L 891,505 L 892,504 L 893,504 L 894,505 L 893,506 L 894,506 L 894,505 L 893,504 Z" fill="black" fill-rule="evenodd"/>
</svg>