<?xml version="1.0" encoding="UTF-8" standalone="no"?>
<svg
   width="670"
   height="250"
   viewBox="0 0 670 250"
   version="1.1"
   id="svg1"
   sodipodi:docname="cromwell_black.svg"
   inkscape:version="1.4.2 (f4327f4, 2025-05-13)"
   xmlns:inkscape="http://www.inkscape.org/namespaces/inkscape"
   xmlns:sodipodi="http://sodipodi.sourceforge.net/DTD/sodipodi-0.dtd"
   xmlns="http://www.w3.org/2000/svg"
   xmlns:svg="http://www.w3.org/2000/svg">
  <defs
     id="defs1" />
  <sodipodi:namedview
     id="namedview1"
     pagecolor="#ffffff"
     bordercolor="#000000"
     borderopacity="0.25"
     inkscape:showpageshadow="2"
     inkscape:pageopacity="0.0"
     inkscape:pagecheckerboard="0"
     inkscape:deskcolor="#d1d1d1"
     inkscape:zoom="1.0819521"
     inkscape:cx="723.69191"
     inkscape:cy="543"
     inkscape:window-width="2560"
     inkscape:window-height="1377"
     inkscape:window-x="-8"
     inkscape:window-y="-8"
     inkscape:window-maximized="1"
     inkscape:current-layer="svg1" />
  <path
     d="m 647.52832,122.4966 -7.91336,-0.93099 -10.70632,-13.96476 -33.98092,-8.378855 -25.60206,0.465495 -2.32747,-6.982381 h -5.12041 l -1.86197,6.982381 -17.6887,-2.327464 -0.93099,-11.171814 -42.35978,-1.396474 -2.79295,14.895752 -7.91337,-5.585907 -7.91336,5.585907 h -14.89575 l -6.05139,-10.706319 -5.58591,10.706319 -13.03378,-3.723938 -27.92953,4.189428 13.03378,-1.861964 -0.93099,-9.77534 h 18.1542 l 5.58591,-4.189433 4.18943,-42.825267 -4.65493,-8.378865 -23.74009,-1.396474 -13.49928,-4.189423 -1.39647,-4.654927 h -8.84435 l -0.4655,-13.9647631 -6.05139,-0.4654947 -0.46549,17.2232158 h -13.49927 l -2.79296,-5.120412 -32.11896,5.120412 -1.86197,-8.84435 -11.1718,-1.396474 -0.93099,10.240824 -15.36124,-2.792958 -3.72393,4.654927 -16.75772,2.792949 -3.25845,-5.585907 h -9.30983 l -3.72394,7.91337 -28.39502,5.120413 -7.91337,8.378855 -0.46549,26.998545 -0.46549,-18.61969 -10.70632,0.465495 -2.32746,5.120412 -147.560989,-2.792948 -0.465495,14.895742 148.491974,-2.327454 13.49927,8.378855 -1.86197,19.085175 171.3011,3.258444 -222.03974,-0.46549 -5.58591,-4.189428 -32.11894,4.189428 -3.25846,-7.447871 -6.05139,0.465484 -0.93099,6.516897 -48.411161,0.46549 -2.327463,-6.051397 -24.205588,2.792948 -2.792954,7.447879 -18.619683,10.70632 -17.688701,34.9119 2.792953,19.08518 24.205589,1.39648 5.120414,13.03377 4.189428,-1.39647 5.120413,9.30984 8.378861,0.93098 3.258443,7.91338 6.051402,-0.93099 5.120412,9.30984 4.654917,-1.86197 0.93098,5.58591 6.516888,-0.4655 3.25845,7.44788 4.65491,-1.86197 6.5169,9.30985 5.5859,-2.79296 8.37886,7.44787 4.18943,-3.25844 4.18942,5.58591 10.70632,-1.86197 0.4655,4.18943 13.96476,-3.25845 0.93098,4.18943 h 6.51689 l 0.46549,-4.18943 h 6.0514 l 0.93098,4.18943 12.56829,-4.18943 0.93099,4.18943 h 6.98238 l 0.46549,-4.18943 h 5.5859 l 0.93099,4.18943 h 6.98238 l 0.46549,-4.18943 h 5.5859 l 0.93099,4.18943 h 6.51689 l 0.93099,-4.18943 h 5.5859 l 0.93099,4.18943 h 6.51688 l 0.93099,-4.18943 h 5.5859 l 0.93099,4.18943 h 6.98238 l 0.46549,-4.18943 h 5.58591 l 0.93098,4.18943 h 6.98238 l 0.4655,-4.18943 h 5.5859 l 0.93098,4.18943 h 6.98238 l 0.4655,-4.18943 h 5.58591 l 0.93098,4.18943 h 6.98238 l 0.46549,-4.18943 h 5.58591 l 0.93098,4.18943 h 6.98238 l 0.46549,-4.18943 h 5.58591 l 0.93098,4.18943 h 6.98238 l 0.4655,-4.18943 h 5.5859 l 1.39648,4.18943 h 6.51689 l 0.46549,-4.18943 h 5.58591 l 0.93099,4.18943 h 6.98238 l 0.46548,-4.18943 h 5.58591 l 0.93099,4.18943 h 6.51688 l 0.93098,-4.18943 h 5.58591 l 0.93099,4.18943 h 6.98238 l 0.4655,-4.18943 h 5.58589 l 0.93099,4.18943 h 6.98238 l 0.4655,-4.18943 h 5.5859 l 0.93099,4.18943 h 6.98238 l 0.46549,-4.18943 h 5.58591 l 0.93098,4.18943 h 6.98238 l 0.46549,-4.18943 h 5.58591 l 1.39647,4.18943 h 6.51689 l 0.4655,-4.18943 h 5.5859 l 0.93098,4.18943 h 6.98238 l 6.05141,-4.18943 0.93097,4.18943 h 6.98239 l 0.46549,-4.18943 h 5.58591 l 0.93098,4.18943 h 6.51689 l 0.46549,-4.18943 h 5.58591 l 0.93098,4.18943 h 6.98239 l 0.46549,-4.18943 h 5.5859 l 0.93099,4.18943 h 6.98238 l 0.46549,-4.18943 h 5.12042 l 0.93097,4.18943 h 6.51689 l 0.4655,-4.18943 7.44787,2.79296 6.0514,-6.05141 8.37886,2.32747 4.18942,-5.58591 7.91337,2.32746 2.79295,-5.12041 6.98238,2.32746 5.58591,-6.0514 h 11.17181 l 4.65492,-7.44787 4.18943,1.86197 5.58591,-10.24083 8.37886,-3.25844 -2.79295,-2.79296 3.72393,-4.65492 4.18943,1.39648 4.18943,-5.58591 -2.79296,-2.79295 13.96476,-11.63731 -2.79294,-3.25844 5.12041,-6.51689 2.32746,10.70632 5.12041,0.93098 2.79295,-17.6887 9.30985,-0.93098 z m -141.97508,78.66816 0.46548,-0.46548 0.46549,-1.39648 0.93099,-0.93098 0.93098,-2.32747 1.39648,-1.39647 h 0.46549 l 1.39648,-1.39648 v -0.46549 l 0.46549,-0.4655 h 24.67108 l 0.4655,0.4655 v 0.93099 l 0.46549,0.46548 v 0.93099 l 0.46549,0.46549 0.46549,2.32746 1.39648,1.39648 h 2.79295 l 0.46549,-0.46549 h 0.93099 l 1.39647,-0.93099 0.4655,0.4655 v 1.86197 l 1.39647,1.39647 0.4655,-0.4655 h 1.86197 l 0.46548,0.4655 -0.46548,0.46549 0.46548,-0.46549 0.93099,0.93099 v 0.93098 l 0.46549,0.46549 -0.46549,0.46549 v 0.46549 l -1.39647,1.39648 v 0.93099 l 0.93098,0.93098 v 0.46549 h 1.86196 l 0.4655,-0.46549 h 0.93098 l 0.46549,-0.46549 2.32747,2.32745 v 0.4655 l -0.4655,0.46549 v 0.93098 l -0.46549,0.4655 v 0.46549 l 0.93099,0.93098 1.39647,0.4655 2.32747,-2.32747 h 0.46548 l 0.46549,0.4655 -0.46549,0.46549 0.46549,-0.46549 h 0.93099 l 0.93098,0.93098 v 1.86197 l 0.4655,0.46549 -1.39648,0.93099 h -1.39648 l -0.46548,0.46549 h -1.39649 l -0.46548,0.46549 h -1.39649 l -0.46548,0.4655 h -0.93099 l -0.46549,0.46549 h -0.93099 l -0.46549,0.46548 h -1.39648 l -0.46549,0.4655 h -1.39647 l -0.4655,0.46549 h -0.93098 l -0.46549,0.46549 h -1.39648 l -0.46549,0.46549 h -1.39648 l -0.46549,0.4655 h -1.39648 l -0.46549,0.46549 h -1.39647 l -0.4655,0.46549 h -0.93098 l -0.46549,0.46549 h -1.39648 l -0.46549,0.4655 h -1.39648 l -0.46549,0.46549 h -0.93098 l -0.4655,0.46549 h -1.39647 l -0.46549,0.46549 h -1.39648 l -0.46549,0.4655 h -1.39648 l -0.46549,0.46549 h -0.93098 l -0.4655,-0.46549 1.39648,-0.93099 v -0.46549 l 1.39647,-1.39648 0.4655,-1.39648 0.93099,-0.93098 v -0.93099 l 0.46548,-0.46548 v -1.86197 l 0.4655,-0.46549 v -5.58591 l -0.4655,-0.4655 v -0.93097 l -0.46548,-0.4655 v -0.93098 l -0.4655,-0.46549 -0.46549,-1.39648 -4.65492,-4.65493 h -0.4655 l -2.32746,-1.39647 -2.32745,-0.46549 -0.4655,-0.46549 h -5.58591 l -0.46549,0.46549 h -0.93098 l -0.46549,0.46549 -2.32746,0.4655 -0.93099,0.93097 h -0.46549 l -0.93098,0.93099 h -0.4655 l -1.39647,1.39648 h -0.4655 l -0.46549,-0.4655 v -0.46548 l 0.46549,-0.4655 h 0.4655 -0.4655 l -0.46549,0.4655 -0.46548,-0.4655 z m -39.10134,-5.5859 0.93098,-0.93098 h 1.39648 l 1.39647,-1.86197 0.4655,0.46549 h 21.87812 -21.87812 l -0.4655,-0.46549 0.4655,-0.4655 h 22.34362 l 0.93098,1.39649 0.93099,0.46548 h 1.86196 l 0.46549,0.4655 -0.93098,1.39647 v 0.93099 l -0.46549,0.46549 -0.46549,2.32746 -1.39648,2.79296 v 2.32745 l 0.46549,0.93099 1.86197,1.86197 1.86197,0.93098 h 1.86197 l 0.46549,-0.46549 1.86197,0.93099 0.93098,0.93097 v 6.98239 l 0.4655,0.46549 v 1.39647 l 1.39647,2.79296 3.25844,3.72394 -0.46549,0.46549 0.93099,-0.46549 0.93098,0.93098 -0.46549,0.4655 h -5.12041 l -0.46549,0.46549 h -5.58591 l -0.4655,-0.46549 h -13.03377 l -0.46549,-0.4655 0.93098,-0.46549 3.25844,-3.25845 v -0.46549 l 0.93099,-0.93098 0.93098,-1.86197 v -0.93098 l 0.46549,-0.46549 v -1.86197 l 0.4655,-0.4655 v -4.18942 l -0.4655,-0.4655 v -1.39647 l -0.46549,-0.46549 v -0.93099 l -1.39648,-2.79295 -4.18942,-4.18944 -2.79296,-1.39647 -2.32746,-0.46549 -0.46549,-0.46549 h -5.5859 l -0.4655,0.46549 h -1.39647 l -0.4655,0.46549 h -0.93098 l -2.79295,1.39647 -2.32746,2.32747 -1.39648,-1.39648 v -0.93099 z m -42.35979,0.46549 1.39648,-1.39647 h 0.93099 l 1.39647,-1.39648 h 22.80911 -22.34362 l -0.46549,-0.46549 0.46549,-0.4655 h 22.80912 l 0.93098,1.39649 0.93099,0.46548 h 1.39647 l 0.46549,0.4655 -0.46549,0.46549 v 0.93098 l -0.46549,0.4655 v 0.93098 l -0.4655,0.46549 v 0.93099 l -0.46548,0.46549 v 0.93099 l -0.93099,1.86196 v 3.25845 l 1.39647,1.86197 2.79296,1.39647 h 2.79295 l 2.32746,1.39647 v 1.86197 l -0.46549,0.4655 v 2.79295 l 0.46549,0.46549 v 1.86197 l 0.4655,0.4655 0.46548,2.32745 0.93099,0.93099 0.46549,1.39647 2.32746,2.32747 -0.46549,0.93098 0.93099,-0.46549 1.39647,0.93098 -0.46549,0.4655 h -6.0514 l -0.46549,0.46549 h -1.86197 l -0.46549,-0.46549 h -5.5859 l -0.4655,0.46549 -0.46549,-0.46549 h -1.86197 l -0.46549,0.46549 h -3.72394 l -0.46549,-0.46549 h -2.79296 l -0.46548,-0.4655 0.93098,-0.46549 3.72394,-3.72394 1.86197,-3.72393 v -0.93099 l 0.46549,-0.46549 v -6.51689 l -0.46549,-0.4655 v -0.93097 l -0.4655,-0.4655 v -0.93098 l -0.46549,-0.93099 -0.93098,-0.93098 v -0.46549 l -3.72394,-3.72394 h -0.4655 l -0.93098,-0.93098 -1.86196,-0.93099 h -0.93099 l -1.86197,-0.93098 h -5.5859 l -0.46549,0.46549 h -1.39648 l -0.46549,0.46549 h -0.93099 l -1.86196,0.93099 -3.25846,2.79295 h -0.46548 l -1.39648,-1.39648 v -0.46549 l 1.86196,-3.72394 0.93099,-0.93098 z m -41.4288,-0.46549 0.93099,-0.93098 h 0.93098 l 0.4655,-0.4655 h 0.46549 l 0.93098,-0.93098 v -0.46549 l 0.46549,-0.4655 h 22.34362 l 0.93099,1.39649 h 0.4655 l 0.46548,0.46548 h 0.93099 l 0.46549,0.4655 v 0.93098 l -0.46549,0.46549 v 1.39648 l -0.46549,0.46549 v 0.93099 l -0.4655,0.46549 v 0.93099 l -0.93098,1.39647 v 3.72394 l 0.4655,0.46549 v 0.46549 l 0.93098,0.93099 h 0.46549 l 2.32745,1.39647 h 1.86197 l 0.4655,-0.46549 0.46549,0.46549 1.39648,0.4655 0.93099,0.93097 v 2.79296 l -0.4655,0.46549 v 1.39648 l 0.4655,0.46549 v 1.86197 l 0.46548,0.46549 v 1.39647 l 0.4655,0.4655 v 0.46549 l 0.46549,0.46549 0.46549,1.39648 0.93099,0.93098 v 0.4655 l 2.32746,2.32746 -0.4655,0.46549 h -0.46549 0.46549 l 0.4655,-0.46549 1.39647,0.93098 -0.46549,0.4655 h -6.51689 l -0.46549,0.46549 h -2.79295 l -0.4655,-0.46549 h -0.93099 l -0.46548,0.46549 h -3.72394 l -0.46549,-0.46549 h -6.98238 l -0.4655,0.46549 -0.46548,-0.46549 h -0.93099 l -0.4655,-0.4655 0.4655,-0.46549 h 0.46549 l 0.4655,-0.46549 0.46548,0.46549 h 0.4655 v -0.46549 l -0.4655,-0.46549 2.32747,-2.32747 v -0.46549 l 0.93097,-0.93098 v -0.4655 l 0.4655,-0.46549 v -0.93098 l 0.46549,-0.4655 v -0.93097 l 0.4655,-0.4655 0.46548,0.4655 v 0.46549 -0.46549 l -0.46548,-0.4655 v -1.86197 l 0.46548,-0.46549 v -2.79295 l -0.46548,-0.4655 v -1.86197 l -0.4655,-0.46548 v -0.93099 l -0.46549,-0.46549 v -0.93098 l -0.4655,-0.4655 v -0.46549 l -0.93097,-0.93098 v -0.4655 l -3.25845,-3.25844 h -0.46549 l -0.93098,-0.93098 h -0.4655 l -1.39647,-0.93099 h -0.93099 l -0.4655,-0.46549 h -0.93098 l -0.46549,-0.46549 h -6.05139 l -0.4655,0.46549 h -1.39647 l -0.4655,0.46549 h -0.46549 l -0.46549,0.4655 h -0.46549 l -0.46549,0.46549 -1.39648,0.46548 -1.39647,1.39649 h -0.4655 l -0.93099,0.93098 -1.39647,-1.39648 v -0.46549 l 0.46549,-0.4655 0.4655,-1.39647 0.93098,-0.93098 v -0.46549 l 0.46549,-0.4655 v -0.46549 l 0.4655,-0.46549 z m -42.35978,0.46549 1.39648,-1.39647 h 0.93098 l 1.39648,-1.39648 v -0.46549 l 0.46549,-0.4655 h 22.80912 l 0.46549,0.4655 v 0.93099 h 0.46549 l 0.46549,0.46548 h 1.39647 l 0.4655,0.4655 v 0.46549 l -0.4655,0.46549 -0.46548,-0.46549 0.46548,0.46549 v 1.39648 l -0.46548,0.46549 v 0.93099 l -0.4655,0.46549 v 0.93098 l -0.46549,0.4655 v 0.93097 l -0.93098,1.39649 v 1.86196 l 0.46549,0.46549 0.46549,1.39648 0.93099,0.93099 h 0.46548 l 2.32747,1.39647 h 2.79296 l 2.32745,1.39647 v 0.4655 l -0.46549,0.46549 v 5.12042 l 0.46549,0.46549 v 1.39648 l 0.46549,0.46549 v 0.93098 l 0.4655,0.46549 0.93098,2.32746 3.72394,3.72394 h 0.46549 l 0.4655,0.46549 -0.4655,0.4655 h -3.25844 l -0.4655,0.46549 -0.46549,-0.46549 -0.4655,0.46549 h -0.46548 l -0.4655,-0.46549 h -8.37885 l -0.4655,0.46549 h -3.72393 l -0.4655,-0.46549 h -6.05139 l -0.46549,-0.4655 0.93098,-0.93098 1.39648,0.46549 h -0.4655 l -0.46549,-0.46549 2.79296,-2.79296 v -0.46549 l 0.46548,-0.46549 v -0.46549 l 1.39649,-2.32747 v -0.93097 l 0.46548,-0.4655 v -1.86197 l 0.4655,-0.46549 v -3.25845 l -0.4655,-0.46548 v -1.86197 l -0.46548,-0.46549 v -0.93099 l -0.4655,-0.46549 -0.46549,-1.39648 -1.39648,-1.39648 v -0.46549 l -2.79295,-2.79295 h -0.46549 l -0.93099,-0.93098 h -0.46548 l -1.39649,-0.93099 h -0.93098 l -0.46549,-0.46549 h -1.39648 l -0.46549,-0.46549 h -5.58591 l -0.46548,0.46549 h -0.93099 l -0.4655,0.46549 h -0.93098 l -0.46549,0.4655 -2.32746,0.93097 -1.39648,1.39649 -0.46548,-0.4655 h -0.4655 0.4655 l 0.46548,0.4655 -0.93098,0.93098 h -0.46549 l -0.4655,-0.4655 v -0.46548 h -0.46548 l -0.4655,-0.4655 v -0.46549 l 0.4655,-0.4655 v -0.46548 l 0.46548,-0.46549 v -0.4655 l 0.4655,-0.46549 v -0.46549 l 0.46549,-0.46549 z m -41.42879,-0.46549 1.86197,-0.93098 1.39647,-1.39648 0.4655,-0.93099 h 22.80911 l 0.46549,0.4655 -0.46549,0.46549 h -22.34363 22.34363 l 1.39647,0.93098 h 1.39648 l 0.46549,0.4655 v 0.93098 l -0.46549,0.46549 v 0.93099 l -0.4655,0.46549 -0.46548,2.32746 -1.39648,2.79296 v 1.86196 l 0.46549,0.46549 v 0.93099 l 1.86197,1.86197 0.93099,0.46549 h 0.93098 l 0.46549,0.46549 h 3.25844 l 1.86197,1.39647 v 1.39649 l -0.46549,0.46548 v 4.18944 l 0.93099,1.86197 v 1.39647 l 0.93098,1.86197 0.93099,0.93098 v 0.46549 l 3.25844,3.25845 0.93098,0.46549 -0.46549,0.4655 h -9.30984 l -0.4655,0.46549 h -3.25844 l -0.46549,-0.46549 h -3.25845 l -0.46549,0.46549 -0.46549,-0.46549 h -6.98238 l -0.46549,-0.4655 0.93098,-0.93098 0.93099,0.46549 -0.4655,-0.46549 2.32747,-2.32746 v -0.4655 l 0.93098,-0.93098 1.39647,-2.79296 v -1.39647 l 0.46549,-0.46549 v -6.51689 l -0.46549,-0.4655 v -1.39647 l 0.46549,-0.46549 -0.46549,0.46549 -0.46549,-0.46549 -0.93098,-2.32746 -2.32747,-2.32746 -0.46548,-0.93098 h -0.4655 l -1.39647,-1.39649 -2.79296,-1.39647 -2.32745,-0.46549 -0.4655,-0.46549 h -5.58591 l -1.86196,0.93098 h -1.39648 l -4.18943,2.79296 -0.93098,-0.93099 v 0.93099 l -0.4655,0.46548 -0.93098,-0.93098 v -0.46549 l 2.32746,-4.65492 0.93099,-0.93099 0.46549,0.4655 0.46549,-0.4655 -0.46549,0.4655 z m -42.35978,0 0.93098,-0.93098 h 0.93098 l 1.39648,-1.39648 v -0.46549 l 0.46549,-0.4655 h 23.27461 l 0.46549,0.4655 v 0.93099 h 0.46549 l 0.4655,0.46548 h 1.39647 l 0.46549,0.4655 v 0.93098 l -0.46549,0.46549 v 0.93099 l -0.4655,0.46549 v 0.93099 l -0.46549,0.46549 v 0.93098 l -0.46548,0.4655 v 0.93097 l -0.4655,0.4655 v 0.93099 l -0.46549,0.46548 v 1.39648 l 0.46549,0.46549 v 0.93099 l 1.86197,1.86197 h 0.46549 l 0.46549,0.46549 h 0.93099 l 0.46549,0.46549 h 2.79295 l 2.32747,1.39647 -0.4655,0.4655 v 6.0514 l 0.4655,0.46549 v 1.39648 l 0.46548,0.46548 v 0.93099 l 0.46549,0.46549 v 0.46549 l 0.93099,0.93099 v 0.46549 l 1.39648,1.39648 v 0.46549 l 0.93098,0.93099 h 0.46549 l 1.39648,1.39647 -0.46549,0.4655 h -9.30984 l -0.4655,0.46549 h -2.32746 l -0.46549,-0.46549 h -11.6373 l -0.46549,-0.4655 0.93098,-0.93098 h 0.4655 l 1.86196,-1.86197 v -0.46549 l 1.86197,-2.32747 v -0.46549 l 0.93098,-1.39648 v -1.39647 l 0.4655,-0.46549 v -3.25845 l 0.46549,-0.46549 -0.46549,-0.46549 v -2.79296 l -0.4655,-0.46548 v -0.93099 l -0.46549,-0.46549 v -0.46549 l -0.46549,-0.46549 -0.46549,-1.39648 -0.93099,-0.93099 v -0.46549 l -2.32745,-2.32746 h -0.4655 l -0.93098,-0.93099 h -0.46549 l -2.32747,-1.39647 h -0.93098 l -0.46549,-0.46549 h -0.93099 l -0.46549,-0.46549 h -6.0514 l -0.46549,0.46549 h -0.93098 l -0.4655,0.46549 h -0.93098 l -0.46549,0.4655 -1.39648,0.46549 -3.25844,2.79295 -1.39648,-1.39648 v -0.93099 l 0.46549,-0.46548 v -0.46549 l 0.4655,-0.4655 v -0.46549 l 0.46549,-0.46549 v -0.46549 l 0.46549,-0.4655 v -0.46549 l 0.46549,-0.46549 z m -41.89429,0 0.46548,-0.46549 1.39648,-0.46549 1.39648,-1.39648 v -0.46549 l 0.46549,-0.4655 h 22.80911 l 0.93099,1.39649 h 0.46549 l 0.46549,0.46548 h 1.39648 l 0.46549,0.4655 -0.46549,0.46549 v 0.93098 l -0.46549,0.4655 v 0.93098 l -0.4655,0.46549 v 0.93099 l -0.46549,0.46549 v 0.93099 l -0.46549,0.46549 v 0.93098 l -0.46549,0.46549 v 1.39648 l -0.4655,0.46549 0.4655,0.46549 v 0.93099 l 0.46549,0.46549 v 0.46549 l 0.93098,0.93099 h 0.4655 l 2.32746,1.39647 h 3.25844 l 0.93098,0.93099 h 0.93099 l 0.46549,0.46548 -0.46549,0.4655 v 6.0514 l 0.46549,0.46549 v 1.39648 l 0.93099,1.39647 v 0.93098 l 0.93098,0.93099 v 0.46549 l 0.93099,0.93099 v 0.46549 l 1.86197,1.86197 h 0.46549 l 0.93098,0.93098 -0.46549,0.4655 h -6.98239 l -0.46549,0.46549 h -0.93098 l -0.46549,-0.46549 h -5.58591 l -0.46549,0.46549 h -7.91337 l -0.46549,-0.46549 h -0.93098 l -0.4655,-0.4655 1.86197,-1.86197 h 0.4655 l 0.93098,-0.93098 v -0.46549 l 1.86197,-2.32747 v -0.46549 l 0.46549,-0.46549 v -0.93099 l 0.4655,-0.46548 v -1.39648 l 0.46549,-0.46549 v -6.0514 l -0.46549,-0.4655 v -0.93097 l -0.4655,-0.4655 v -0.46549 l -0.46549,-0.46549 v -0.46549 l -0.46549,-0.4655 -0.46549,-1.39647 -3.72394,-3.72394 h -0.4655 l -0.93098,-0.93098 h -0.46549 l -1.39647,-0.93099 h -0.93099 l -0.46549,-0.46549 h -0.93099 l -0.46549,-0.46549 h -5.5859 l -0.4655,0.46549 h -0.93098 l -0.46549,0.46549 h -0.93099 l -0.46549,0.4655 h -0.46549 l -0.46549,0.46549 h -0.4655 l -0.46549,0.46548 -1.39648,0.4655 -1.86197,1.86197 -1.86196,-1.86197 0.93098,-0.93098 v -0.46549 l 0.4655,-0.4655 v -0.46549 l 0.46548,-0.46549 v -0.46549 l 0.4655,-0.4655 v -0.46549 l 0.46549,-0.46549 z m -41.8943,0.46549 3.25844,-2.79295 h 22.80912 -22.34362 l -0.4655,-0.46549 0.4655,-0.4655 h 22.80911 l 0.4655,0.4655 v 0.93099 l 0.93098,0.46548 h 0.93099 l 0.46549,0.4655 -0.93099,0.46549 0.4655,0.46549 0.46549,-0.93098 0.46549,0.46549 v 1.39648 l -0.46549,0.46549 v 0.93098 l -0.46549,0.4655 v 0.93098 l -0.93099,1.39648 v 1.39647 l -0.46549,0.4655 v 2.32745 l 0.93098,1.86197 h 0.4655 l 0.93098,0.93099 1.86196,0.93098 h 3.25845 l 1.86197,1.39647 v 2.32747 l -0.46549,0.46549 v 1.86197 l 0.46549,0.46549 v 1.86197 l 0.46549,0.46549 v 1.39647 l 1.39648,2.79296 0.93098,0.93098 v 0.4655 l 2.32747,2.32746 -0.4655,0.46549 0.93098,-0.46549 0.93099,0.93098 -0.46549,0.4655 h -8.37886 l -0.46549,0.46549 h -1.86197 l -0.4655,-0.46549 h -6.51688 l -0.4655,0.46549 -0.46548,-0.46549 h -6.0514 l -0.4655,-0.4655 0.93099,-0.46549 3.25844,-3.25845 2.32747,-4.65491 v -1.39648 l 0.46548,-0.46549 v -5.12042 l -0.46548,-0.46549 v -1.39647 l -0.4655,-0.4655 v -0.93098 l -0.46549,-0.93099 -0.93098,-0.93098 v -0.46549 l -3.72394,-3.72394 h -0.46549 l -0.93098,-0.93098 -1.86197,-0.93099 h -0.93099 l -1.86197,-0.93098 h -5.58591 l -0.46548,0.46549 h -1.39649 l -0.46548,0.46549 h -0.93099 l -1.86197,0.93099 -3.25844,2.79295 h -0.4655 l -1.39647,-1.86197 0.93099,-0.93098 z m -87.047006,-5.5859 0.465485,-0.46549 2.792958,0.46549 0.465485,-0.46549 4.189433,-0.46549 3.723937,-1.86197 5.120408,-5.58591 h 4.65492 l 0.46549,-0.46549 h 2.32747 l 0.46549,0.46549 h 10.70632 l 0.46548,-0.46549 0.4655,0.93098 -0.4655,0.4655 -0.46548,2.79295 -0.93099,1.39647 v 2.32747 l 2.79295,2.32746 1.39648,-0.4655 1.39648,0.4655 -0.93099,0.46548 0.93099,-0.46548 -0.4655,-0.4655 2.79296,-2.79295 0.93098,-1.86197 h 1.39647 l 0.4655,0.46549 h 1.39647 l 4.18944,1.39648 6.51688,0.93099 6.51688,6.98238 4.65493,7.44787 1.39648,3.25845 1.39647,0.46549 h 4.65493 l 1.39647,0.93098 h 2.79295 l 1.86197,1.39647 -0.4655,4.65493 0.4655,0.46549 0.46549,3.72393 2.32747,4.18944 2.32745,2.32746 -0.93098,0.46549 0.93098,-0.46549 1.39648,0.93098 -0.46549,0.4655 h -4.18943 l -0.4655,0.46549 -11.6373,-0.46549 -0.46549,-0.4655 h -2.79295 l -0.46549,-0.46549 -4.65492,-0.46549 -0.4655,-0.46549 -5.12041,-0.93099 -3.25844,-1.39648 -4.18943,-0.93098 -0.46549,-0.46549 0.46549,-0.4655 3.25844,-0.46549 3.25844,-1.86196 3.72394,-3.72394 2.32746,-6.0514 v -5.12041 l -2.32746,-5.58591 -3.25844,-3.72394 -5.5859,-2.79295 h -2.79295 l -0.4655,-0.46549 -1.39647,0.46549 h -2.79295 l -5.12042,2.32747 -3.72393,3.72393 -1.86197,3.72393 -0.46549,3.25845 -0.4655,0.46549 v 3.25845 l 0.4655,0.46549 0.93098,4.18943 0.93099,1.39648 -0.93099,0.46549 -16.75772,-11.17181 z m 521.351146,-8.37886 0.46549,0.46549 -0.46549,0.4655 v 0.46548 l -1.86197,1.86197 v 0.4655 l -2.32745,2.32746 v 0.46549 l -2.32747,2.32746 v 0.46549 l -1.39647,1.39648 v 0.46549 l -2.79296,2.79295 v 0.4655 l -6.05139,6.0514 h -0.4655 l -1.86196,-1.86197 v -0.93099 l 0.46549,-0.46549 v -1.39648 l 0.93098,-0.93098 h 2.79296 l 0.46548,-0.46549 v -3.72394 h -1.39647 l -0.93098,-0.93098 h -0.4655 l -0.46549,-0.4655 v -0.93098 l -0.46549,-0.46549 v -0.93099 l 1.39648,-1.39647 h 0.46548 l 0.4655,-0.4655 h 0.93099 v -1.86197 l -0.4655,-0.46548 v -0.93099 h -1.86197 l -0.46549,0.46549 h -1.39647 l -0.4655,-0.46549 0.4655,-0.4655 h 0.93098 l -0.46549,-0.46548 -0.93099,0.93098 -0.93098,-0.93098 v -0.4655 l -0.46549,-0.46549 v -0.93098 l 0.46549,-0.46549 v -0.4655 l 1.39648,-1.39647 h 3.25844 l 0.46549,0.46549 v 2.32746 l 0.4655,0.46549 z m -543.229279,-10.70632 0.465491,-0.46549 h 7.913364 l 0.465495,0.46549 h 0.930979 l 0.465495,0.4655 v 1.39647 l -0.465495,0.46549 v 3.72394 l 0.465495,0.46549 v 1.39648 l 0.465495,0.46549 v 0.46549 l 0.465495,0.4655 v 0.93098 l -0.465495,0.46549 -0.93099,-0.93098 h -0.465484 l -0.93099,-0.93099 0.465495,-0.46549 h 0.465495 v -0.46549 h -0.93099 l -1.396474,-1.39648 -0.465495,0.46549 h -0.46549 l -1.396476,-1.39647 0.465493,-0.4655 -0.465493,0.4655 -3.258444,-3.25845 v -0.46549 l -0.930985,-0.93098 v -0.46549 z m 569.762329,-2.32746 0.93099,0.93099 v 2.79295 l -0.46549,0.46549 h -0.4655 l -0.46549,-0.46549 V 169.5113 Z M 70.318117,102.01494 v -1.39647 l 0.465495,-0.46549 h 0.465495 l 0.465484,-0.46549 h 1.396485 l 0.465484,-0.465495 h 1.396485 l 0.465484,0.465495 v 0.46549 h 0.465495 l 0.465495,0.46549 h 0.930979 l 0.465495,0.46549 -0.465495,0.4655 H 74.50755 l -0.465495,0.46548 h -1.861969 l -0.465495,-0.46548 0.465495,-0.4655 h -0.930979 v 0.4655 h 0.465484 l 0.465495,0.46548 -0.465495,0.4655 h -0.930979 z m 12.102794,-3.723924 0.465494,-0.465495 h 5.120413 l 0.465494,0.465495 v 0.930979 l 0.465495,0.465495 -0.465495,0.46549 H 83.3519 L 82.886405,99.68749 V 99.221995 L 82.420911,98.7565 Z m 1.396484,-35.842896 0.930979,-0.930989 h 6.516887 l 0.465495,0.465494 v 5.585907 l -0.465495,0.465495 h -6.516887 l -0.930979,-0.930989 0.465485,-0.465485 -0.465485,-0.465495 z"
     fill="#000000"
     fill-rule="evenodd"
     id="path1"
     style="stroke-width:0.465492" />
</svg>
