<svg xmlns="http://www.w3.org/2000/svg" width="1448" height="1086" viewBox="0 0 1448 1086">
<rect width="100%" height="100%" fill="white"/>
<path d="M 1388,528 L 1371,526 L 1348,496 L 1275,478 L 1220,479 L 1215,464 L 1204,464 L 1200,479 L 1162,474 L 1160,450 L 1069,447 L 1063,479 L 1046,467 L 1029,479 L 997,479 L 984,456 L 972,479 L 944,471 L 884,480 L 912,476 L 910,455 L 949,455 L 961,446 L 970,354 L 960,336 L 909,333 L 880,324 L 877,314 L 858,314 L 857,284 L 844,283 L 843,320 L 814,320 L 808,309 L 739,320 L 735,301 L 711,298 L 709,320 L 676,314 L 668,324 L 632,330 L 625,318 L 605,318 L 597,335 L 536,346 L 519,364 L 518,422 L 517,382 L 494,383 L 489,394 L 172,388 L 171,420 L 490,415 L 519,433 L 515,474 L 883,481 L 406,480 L 394,471 L 325,480 L 318,464 L 305,465 L 303,479 L 199,480 L 194,467 L 142,473 L 136,489 L 96,512 L 58,587 L 64,628 L 116,631 L 127,659 L 136,656 L 147,676 L 165,678 L 172,695 L 185,693 L 196,713 L 206,709 L 208,721 L 222,720 L 229,736 L 239,732 L 253,752 L 265,746 L 283,762 L 292,755 L 301,767 L 324,763 L 325,772 L 355,765 L 357,774 L 371,774 L 372,765 L 385,765 L 387,774 L 414,765 L 416,774 L 431,774 L 432,765 L 444,765 L 446,774 L 461,774 L 462,765 L 474,765 L 476,774 L 490,774 L 492,765 L 504,765 L 506,774 L 520,774 L 522,765 L 534,765 L 536,774 L 551,774 L 552,765 L 564,765 L 566,774 L 581,774 L 582,765 L 594,765 L 596,774 L 611,774 L 612,765 L 624,765 L 626,774 L 641,774 L 642,765 L 654,765 L 656,774 L 671,774 L 672,765 L 684,765 L 686,774 L 701,774 L 702,765 L 714,765 L 717,774 L 731,774 L 732,765 L 744,765 L 746,774 L 761,774 L 762,765 L 774,765 L 776,774 L 790,774 L 792,765 L 804,765 L 806,774 L 821,774 L 822,765 L 834,765 L 836,774 L 851,774 L 852,765 L 864,765 L 866,774 L 881,774 L 882,765 L 894,765 L 896,774 L 911,774 L 912,765 L 924,765 L 927,774 L 941,774 L 942,765 L 954,765 L 956,774 L 971,774 L 984,765 L 986,774 L 1001,774 L 1002,765 L 1014,765 L 1016,774 L 1030,774 L 1031,765 L 1043,765 L 1045,774 L 1060,774 L 1061,765 L 1073,765 L 1075,774 L 1090,774 L 1091,765 L 1102,765 L 1104,774 L 1118,774 L 1119,765 L 1135,771 L 1148,758 L 1166,763 L 1175,751 L 1192,756 L 1198,745 L 1213,750 L 1225,737 L 1249,737 L 1259,721 L 1268,725 L 1280,703 L 1298,696 L 1292,690 L 1300,680 L 1309,683 L 1318,671 L 1312,665 L 1342,640 L 1336,633 L 1347,619 L 1352,642 L 1363,644 L 1369,606 L 1389,604 Z M 1083,697 L 1084,696 L 1085,693 L 1087,691 L 1089,686 L 1092,683 L 1093,683 L 1096,680 L 1096,679 L 1097,678 L 1150,678 L 1151,679 L 1151,681 L 1152,682 L 1152,684 L 1153,685 L 1154,690 L 1157,693 L 1163,693 L 1164,692 L 1166,692 L 1169,690 L 1170,691 L 1170,695 L 1173,698 L 1174,697 L 1178,697 L 1179,698 L 1178,699 L 1179,698 L 1181,700 L 1181,702 L 1182,703 L 1181,704 L 1181,705 L 1178,708 L 1178,710 L 1180,712 L 1180,713 L 1184,713 L 1185,712 L 1187,712 L 1188,711 L 1193,716 L 1193,717 L 1192,718 L 1192,720 L 1191,721 L 1191,722 L 1193,724 L 1196,725 L 1201,720 L 1202,720 L 1203,721 L 1202,722 L 1203,721 L 1205,721 L 1207,723 L 1207,727 L 1208,728 L 1205,730 L 1202,730 L 1201,731 L 1198,731 L 1197,732 L 1194,732 L 1193,733 L 1191,733 L 1190,734 L 1188,734 L 1187,735 L 1184,735 L 1183,736 L 1180,736 L 1179,737 L 1177,737 L 1176,738 L 1173,738 L 1172,739 L 1169,739 L 1168,740 L 1165,740 L 1164,741 L 1161,741 L 1160,742 L 1158,742 L 1157,743 L 1154,743 L 1153,744 L 1150,744 L 1149,745 L 1147,745 L 1146,746 L 1143,746 L 1142,747 L 1139,747 L 1138,748 L 1135,748 L 1134,749 L 1132,749 L 1131,748 L 1134,746 L 1134,745 L 1137,742 L 1138,739 L 1140,737 L 1140,735 L 1141,734 L 1141,730 L 1142,729 L 1142,717 L 1141,716 L 1141,714 L 1140,713 L 1140,711 L 1139,710 L 1138,707 L 1128,697 L 1127,697 L 1122,694 L 1117,693 L 1116,692 L 1104,692 L 1103,693 L 1101,693 L 1100,694 L 1095,695 L 1093,697 L 1092,697 L 1090,699 L 1089,699 L 1086,702 L 1085,702 L 1084,701 L 1084,700 L 1085,699 L 1086,699 L 1085,699 L 1084,700 L 1083,699 Z M 999,685 L 1001,683 L 1004,683 L 1007,679 L 1008,680 L 1055,680 L 1008,680 L 1007,679 L 1008,678 L 1056,678 L 1058,681 L 1060,682 L 1064,682 L 1065,683 L 1063,686 L 1063,688 L 1062,689 L 1061,694 L 1058,700 L 1058,705 L 1059,707 L 1063,711 L 1067,713 L 1071,713 L 1072,712 L 1076,714 L 1078,716 L 1078,731 L 1079,732 L 1079,735 L 1082,741 L 1089,749 L 1088,750 L 1090,749 L 1092,751 L 1091,752 L 1080,752 L 1079,753 L 1067,753 L 1066,752 L 1038,752 L 1037,751 L 1039,750 L 1046,743 L 1046,742 L 1048,740 L 1050,736 L 1050,734 L 1051,733 L 1051,729 L 1052,728 L 1052,719 L 1051,718 L 1051,715 L 1050,714 L 1050,712 L 1047,706 L 1038,697 L 1032,694 L 1027,693 L 1026,692 L 1014,692 L 1013,693 L 1010,693 L 1009,694 L 1007,694 L 1001,697 L 996,702 L 993,699 L 993,697 Z M 908,686 L 911,683 L 913,683 L 916,680 L 965,680 L 917,680 L 916,679 L 917,678 L 966,678 L 968,681 L 970,682 L 973,682 L 974,683 L 973,684 L 973,686 L 972,687 L 972,689 L 971,690 L 971,692 L 970,693 L 970,695 L 968,699 L 968,706 L 971,710 L 977,713 L 983,713 L 988,716 L 988,720 L 987,721 L 987,727 L 988,728 L 988,732 L 989,733 L 990,738 L 992,740 L 993,743 L 998,748 L 997,750 L 999,749 L 1002,751 L 1001,752 L 988,752 L 987,753 L 983,753 L 982,752 L 970,752 L 969,753 L 968,752 L 964,752 L 963,753 L 955,753 L 954,752 L 948,752 L 947,751 L 949,750 L 957,742 L 961,734 L 961,732 L 962,731 L 962,717 L 961,716 L 961,714 L 960,713 L 960,711 L 959,709 L 957,707 L 957,706 L 949,698 L 948,698 L 946,696 L 942,694 L 940,694 L 936,692 L 924,692 L 923,693 L 920,693 L 919,694 L 917,694 L 913,696 L 906,702 L 905,702 L 902,699 L 902,698 L 906,690 L 908,688 Z M 819,685 L 821,683 L 823,683 L 824,682 L 825,682 L 827,680 L 827,679 L 828,678 L 876,678 L 878,681 L 879,681 L 880,682 L 882,682 L 883,683 L 883,685 L 882,686 L 882,689 L 881,690 L 881,692 L 880,693 L 880,695 L 878,698 L 878,706 L 879,707 L 879,708 L 881,710 L 882,710 L 887,713 L 891,713 L 892,712 L 893,713 L 896,714 L 898,716 L 898,722 L 897,723 L 897,726 L 898,727 L 898,731 L 899,732 L 899,735 L 900,736 L 900,737 L 901,738 L 902,741 L 904,743 L 904,744 L 909,749 L 908,750 L 907,750 L 908,750 L 909,749 L 912,751 L 911,752 L 897,752 L 896,753 L 890,753 L 889,752 L 887,752 L 886,753 L 878,753 L 877,752 L 862,752 L 861,753 L 860,752 L 858,752 L 857,751 L 858,750 L 859,750 L 860,749 L 861,750 L 862,750 L 862,749 L 861,748 L 866,743 L 866,742 L 868,740 L 868,739 L 869,738 L 869,736 L 870,735 L 870,733 L 871,732 L 872,733 L 872,734 L 872,733 L 871,732 L 871,728 L 872,727 L 872,721 L 871,720 L 871,716 L 870,715 L 870,713 L 869,712 L 869,710 L 868,709 L 868,708 L 866,706 L 866,705 L 859,698 L 858,698 L 856,696 L 855,696 L 852,694 L 850,694 L 849,693 L 847,693 L 846,692 L 833,692 L 832,693 L 829,693 L 828,694 L 827,694 L 826,695 L 825,695 L 824,696 L 821,697 L 818,700 L 817,700 L 815,702 L 812,699 L 812,698 L 813,697 L 814,694 L 816,692 L 816,691 L 817,690 L 817,689 L 818,688 Z M 728,686 L 731,683 L 733,683 L 736,680 L 736,679 L 737,678 L 786,678 L 787,679 L 787,681 L 788,681 L 789,682 L 792,682 L 793,683 L 793,684 L 792,685 L 791,684 L 792,685 L 792,688 L 791,689 L 791,691 L 790,692 L 790,694 L 789,695 L 789,697 L 787,700 L 787,704 L 788,705 L 789,708 L 791,710 L 792,710 L 797,713 L 803,713 L 808,716 L 808,717 L 807,718 L 807,729 L 808,730 L 808,733 L 809,734 L 809,736 L 810,737 L 812,742 L 820,750 L 821,750 L 822,751 L 821,752 L 814,752 L 813,753 L 812,752 L 811,753 L 810,753 L 809,752 L 791,752 L 790,753 L 782,753 L 781,752 L 768,752 L 767,751 L 769,749 L 772,750 L 771,750 L 770,749 L 776,743 L 776,742 L 777,741 L 777,740 L 780,735 L 780,733 L 781,732 L 781,728 L 782,727 L 782,720 L 781,719 L 781,715 L 780,714 L 780,712 L 779,711 L 778,708 L 775,705 L 775,704 L 769,698 L 768,698 L 766,696 L 765,696 L 762,694 L 760,694 L 759,693 L 756,693 L 755,692 L 743,692 L 742,693 L 740,693 L 739,694 L 737,694 L 736,695 L 731,697 L 728,700 L 727,699 L 726,699 L 727,699 L 728,700 L 726,702 L 725,702 L 724,701 L 724,700 L 723,700 L 722,699 L 722,698 L 723,697 L 723,696 L 724,695 L 724,694 L 725,693 L 725,692 L 726,691 Z M 639,685 L 643,683 L 646,680 L 647,678 L 696,678 L 697,679 L 696,680 L 648,680 L 696,680 L 699,682 L 702,682 L 703,683 L 703,685 L 702,686 L 702,688 L 701,689 L 700,694 L 697,700 L 697,704 L 698,705 L 698,707 L 702,711 L 704,712 L 706,712 L 707,713 L 714,713 L 718,716 L 718,719 L 717,720 L 717,729 L 719,733 L 719,736 L 721,740 L 723,742 L 723,743 L 730,750 L 732,751 L 731,752 L 711,752 L 710,753 L 703,753 L 702,752 L 695,752 L 694,753 L 693,752 L 678,752 L 677,751 L 679,749 L 681,750 L 680,749 L 685,744 L 685,743 L 687,741 L 690,735 L 690,732 L 691,731 L 691,717 L 690,716 L 690,713 L 691,712 L 690,713 L 689,712 L 687,707 L 682,702 L 681,700 L 680,700 L 677,697 L 671,694 L 666,693 L 665,692 L 653,692 L 649,694 L 646,694 L 637,700 L 635,698 L 635,700 L 634,701 L 632,699 L 632,698 L 637,688 L 639,686 L 640,687 L 641,686 L 640,687 Z M 548,685 L 550,683 L 552,683 L 555,680 L 555,679 L 556,678 L 606,678 L 607,679 L 607,681 L 608,681 L 609,682 L 612,682 L 613,683 L 613,685 L 612,686 L 612,688 L 611,689 L 611,691 L 610,692 L 610,694 L 609,695 L 609,697 L 608,698 L 608,700 L 607,701 L 607,704 L 608,705 L 608,707 L 612,711 L 613,711 L 614,712 L 616,712 L 617,713 L 623,713 L 628,716 L 627,717 L 627,730 L 628,731 L 628,734 L 629,735 L 629,737 L 630,738 L 630,739 L 632,741 L 632,742 L 635,745 L 635,746 L 637,748 L 638,748 L 641,751 L 640,752 L 620,752 L 619,753 L 614,753 L 613,752 L 588,752 L 587,751 L 589,749 L 590,749 L 594,745 L 594,744 L 598,739 L 598,738 L 600,735 L 600,732 L 601,731 L 601,724 L 602,723 L 601,722 L 601,716 L 600,715 L 600,713 L 599,712 L 599,711 L 598,710 L 597,707 L 595,705 L 595,704 L 590,699 L 589,699 L 587,697 L 586,697 L 581,694 L 579,694 L 578,693 L 576,693 L 575,692 L 562,692 L 561,693 L 559,693 L 558,694 L 556,694 L 555,695 L 552,696 L 545,702 L 542,699 L 542,697 L 543,696 L 543,695 L 544,694 L 544,693 L 545,692 L 545,691 L 546,690 L 546,689 L 547,688 Z M 458,685 L 459,684 L 462,683 L 465,680 L 465,679 L 466,678 L 515,678 L 517,681 L 518,681 L 519,682 L 522,682 L 523,683 L 522,684 L 522,686 L 521,687 L 521,689 L 520,690 L 520,692 L 519,693 L 519,695 L 518,696 L 518,698 L 517,699 L 517,702 L 516,703 L 517,704 L 517,706 L 518,707 L 518,708 L 520,710 L 521,710 L 526,713 L 533,713 L 535,715 L 537,715 L 538,716 L 537,717 L 537,730 L 538,731 L 538,734 L 540,737 L 540,739 L 542,741 L 542,742 L 544,744 L 544,745 L 548,749 L 549,749 L 551,751 L 550,752 L 535,752 L 534,753 L 532,753 L 531,752 L 519,752 L 518,753 L 501,753 L 500,752 L 498,752 L 497,751 L 501,747 L 502,747 L 504,745 L 504,744 L 508,739 L 508,738 L 509,737 L 509,735 L 510,734 L 510,731 L 511,730 L 511,717 L 510,716 L 510,714 L 509,713 L 509,712 L 508,711 L 508,710 L 507,709 L 506,706 L 498,698 L 497,698 L 495,696 L 494,696 L 491,694 L 489,694 L 488,693 L 486,693 L 485,692 L 473,692 L 472,693 L 470,693 L 469,694 L 467,694 L 466,695 L 465,695 L 464,696 L 463,696 L 462,697 L 459,698 L 455,702 L 451,698 L 453,696 L 453,695 L 454,694 L 454,693 L 455,692 L 455,691 L 456,690 L 456,689 L 457,688 Z M 368,686 L 375,680 L 424,680 L 376,680 L 375,679 L 376,678 L 425,678 L 426,679 L 426,681 L 428,682 L 430,682 L 431,683 L 429,684 L 430,685 L 431,683 L 432,684 L 432,687 L 431,688 L 431,690 L 430,691 L 430,693 L 428,696 L 428,699 L 427,700 L 427,705 L 429,709 L 430,709 L 432,711 L 436,713 L 443,713 L 447,716 L 447,721 L 446,722 L 446,726 L 447,727 L 447,731 L 448,732 L 448,735 L 451,741 L 453,743 L 453,744 L 458,749 L 457,750 L 459,749 L 461,751 L 460,752 L 442,752 L 441,753 L 437,753 L 436,752 L 422,752 L 421,753 L 420,752 L 407,752 L 406,751 L 408,750 L 415,743 L 420,733 L 420,730 L 421,729 L 421,718 L 420,717 L 420,714 L 419,713 L 419,711 L 418,709 L 416,707 L 416,706 L 408,698 L 407,698 L 405,696 L 401,694 L 399,694 L 395,692 L 383,692 L 382,693 L 379,693 L 378,694 L 376,694 L 372,696 L 365,702 L 364,702 L 361,698 L 363,696 Z M 181,674 L 182,673 L 188,674 L 189,673 L 198,672 L 206,668 L 217,656 L 227,656 L 228,655 L 233,655 L 234,656 L 257,656 L 258,655 L 259,657 L 258,658 L 257,664 L 255,667 L 255,672 L 261,677 L 264,676 L 267,677 L 265,678 L 267,677 L 266,676 L 272,670 L 274,666 L 277,666 L 278,667 L 281,667 L 290,670 L 304,672 L 318,687 L 328,703 L 331,710 L 334,711 L 344,711 L 347,713 L 353,713 L 357,716 L 356,726 L 357,727 L 358,735 L 363,744 L 368,749 L 366,750 L 368,749 L 371,751 L 370,752 L 361,752 L 360,753 L 335,752 L 334,751 L 328,751 L 327,750 L 317,749 L 316,748 L 305,746 L 298,743 L 289,741 L 288,740 L 289,739 L 296,738 L 303,734 L 311,726 L 316,713 L 316,702 L 311,690 L 304,682 L 292,676 L 286,676 L 285,675 L 282,676 L 276,676 L 265,681 L 257,689 L 253,697 L 252,704 L 251,705 L 251,712 L 252,713 L 254,722 L 256,725 L 254,726 L 218,702 Z M 1301,656 L 1302,657 L 1301,658 L 1301,659 L 1297,663 L 1297,664 L 1292,669 L 1292,670 L 1287,675 L 1287,676 L 1284,679 L 1284,680 L 1278,686 L 1278,687 L 1265,700 L 1264,700 L 1260,696 L 1260,694 L 1261,693 L 1261,690 L 1263,688 L 1269,688 L 1270,687 L 1270,679 L 1267,679 L 1265,677 L 1264,677 L 1263,676 L 1263,674 L 1262,673 L 1262,671 L 1265,668 L 1266,668 L 1267,667 L 1269,667 L 1269,663 L 1268,662 L 1268,660 L 1264,660 L 1263,661 L 1260,661 L 1259,660 L 1260,659 L 1262,659 L 1261,658 L 1259,660 L 1257,658 L 1257,657 L 1256,656 L 1256,654 L 1257,653 L 1257,652 L 1260,649 L 1267,649 L 1268,650 L 1268,655 L 1269,656 Z M 134,633 L 135,632 L 152,632 L 153,633 L 155,633 L 156,634 L 156,637 L 155,638 L 155,646 L 156,647 L 156,650 L 157,651 L 157,652 L 158,653 L 158,655 L 157,656 L 155,654 L 154,654 L 152,652 L 153,651 L 154,651 L 154,650 L 152,650 L 149,647 L 148,648 L 147,648 L 144,645 L 145,644 L 144,645 L 137,638 L 137,637 L 135,635 L 135,634 Z M 1358,628 L 1360,630 L 1360,636 L 1359,637 L 1358,637 L 1357,636 L 1357,629 Z M 148,484 L 148,481 L 149,480 L 150,480 L 151,479 L 154,479 L 155,478 L 158,478 L 159,479 L 159,480 L 160,480 L 161,481 L 163,481 L 164,482 L 163,483 L 157,483 L 156,484 L 152,484 L 151,483 L 152,482 L 150,482 L 150,483 L 151,483 L 152,484 L 151,485 L 149,485 Z M 174,476 L 175,475 L 186,475 L 187,476 L 187,478 L 188,479 L 187,480 L 176,480 L 175,479 L 175,478 L 174,477 Z M 177,399 L 179,397 L 193,397 L 194,398 L 194,410 L 193,411 L 179,411 L 177,409 L 178,408 L 177,407 Z" fill="black" fill-rule="evenodd"/>
</svg>