<svg xmlns="http://www.w3.org/2000/svg" width="1448" height="1086" viewBox="0 0 1448 1086">
<rect width="100%" height="100%" fill="white"/>
<path d="M 82,573 L 88,581 L 82,605 L 91,614 L 86,622 L 104,638 L 105,650 L 129,659 L 133,671 L 154,676 L 161,690 L 170,687 L 181,694 L 183,705 L 200,707 L 214,726 L 224,723 L 235,730 L 241,743 L 258,742 L 274,756 L 296,753 L 306,764 L 316,758 L 330,761 L 341,772 L 360,767 L 365,776 L 374,777 L 381,769 L 395,768 L 397,776 L 407,777 L 412,769 L 428,768 L 433,777 L 447,768 L 462,768 L 471,777 L 481,768 L 496,769 L 498,776 L 529,768 L 532,776 L 564,769 L 566,776 L 575,777 L 583,768 L 598,768 L 600,776 L 631,768 L 634,776 L 643,777 L 650,768 L 665,768 L 668,776 L 698,768 L 701,776 L 713,776 L 716,769 L 747,776 L 752,768 L 767,768 L 772,777 L 801,768 L 804,776 L 814,777 L 829,768 L 838,776 L 865,768 L 872,776 L 884,776 L 889,768 L 905,769 L 907,776 L 919,776 L 924,768 L 953,776 L 956,769 L 973,768 L 981,777 L 992,768 L 1007,768 L 1010,776 L 1041,768 L 1044,776 L 1055,776 L 1061,768 L 1090,776 L 1093,769 L 1110,768 L 1113,776 L 1122,777 L 1129,768 L 1147,768 L 1154,777 L 1184,757 L 1195,760 L 1202,754 L 1200,746 L 1214,735 L 1228,735 L 1230,723 L 1246,710 L 1254,714 L 1262,708 L 1260,699 L 1275,686 L 1283,690 L 1291,684 L 1289,675 L 1301,664 L 1319,660 L 1317,651 L 1329,639 L 1358,636 L 1360,587 L 1368,580 L 1368,536 L 1361,526 L 1341,520 L 1334,506 L 1298,504 L 1277,488 L 1094,488 L 1090,478 L 1062,478 L 1059,488 L 1047,488 L 1043,477 L 1017,471 L 1052,454 L 1052,379 L 1044,371 L 1007,361 L 1003,343 L 991,344 L 988,356 L 968,350 L 979,330 L 966,321 L 925,324 L 921,337 L 931,349 L 815,349 L 810,331 L 728,332 L 727,349 L 688,350 L 685,341 L 651,341 L 648,354 L 614,358 L 599,372 L 598,457 L 583,458 L 586,448 L 558,376 L 529,378 L 491,289 L 482,287 L 438,301 L 406,322 L 441,416 L 416,434 L 425,457 L 420,472 L 393,472 L 397,470 L 386,460 L 367,460 L 351,488 L 234,488 L 232,479 L 220,478 L 218,488 L 152,493 L 142,511 L 124,515 L 97,538 L 98,550 Z M 1049,752 L 1051,750 L 1052,751 L 1051,750 L 1057,744 L 1057,743 L 1059,741 L 1059,740 L 1060,739 L 1060,738 L 1061,737 L 1061,736 L 1062,735 L 1062,733 L 1063,732 L 1063,730 L 1064,729 L 1064,727 L 1065,726 L 1065,719 L 1066,718 L 1067,719 L 1084,719 L 1085,718 L 1087,720 L 1087,725 L 1088,726 L 1088,728 L 1089,729 L 1089,731 L 1092,734 L 1092,735 L 1101,744 L 1102,744 L 1107,749 L 1106,750 L 1107,751 L 1108,750 L 1110,752 L 1109,753 L 1099,753 L 1098,754 L 1054,754 L 1053,753 L 1050,753 Z M 998,752 L 997,753 L 994,753 L 993,754 L 943,754 L 942,753 L 944,751 L 945,751 L 952,744 L 952,743 L 954,741 L 954,740 L 955,739 L 955,738 L 956,737 L 956,736 L 957,735 L 957,734 L 958,733 L 958,732 L 959,731 L 959,728 L 960,727 L 960,724 L 961,723 L 961,720 L 962,719 L 979,719 L 980,718 L 981,719 L 981,721 L 982,722 L 982,727 L 983,728 L 983,730 L 984,731 L 984,733 L 985,734 L 985,735 L 986,736 L 986,737 L 987,738 L 987,739 L 988,740 L 988,741 L 990,743 L 990,744 L 989,745 L 990,744 Z M 895,753 L 894,754 L 841,754 L 839,752 L 848,743 L 848,742 L 850,740 L 850,739 L 851,738 L 851,737 L 852,736 L 852,734 L 853,733 L 853,732 L 854,731 L 854,728 L 855,727 L 855,722 L 856,721 L 856,720 L 857,719 L 869,719 L 870,718 L 871,718 L 872,719 L 874,719 L 875,718 L 876,719 L 876,721 L 877,722 L 877,727 L 878,728 L 878,731 L 879,732 L 879,733 L 880,734 L 880,735 L 881,736 L 881,737 L 882,738 L 882,739 L 883,740 L 883,741 L 885,743 L 885,744 L 893,752 L 894,752 Z M 733,753 L 737,749 L 738,749 L 739,748 L 739,747 L 743,743 L 743,742 L 745,740 L 745,739 L 746,738 L 746,737 L 747,736 L 747,734 L 748,733 L 748,732 L 749,731 L 749,729 L 750,728 L 750,725 L 751,724 L 751,719 L 752,718 L 753,719 L 771,719 L 772,720 L 772,725 L 773,726 L 773,729 L 774,730 L 774,732 L 775,733 L 775,735 L 776,736 L 776,737 L 775,738 L 776,737 L 777,738 L 777,739 L 779,741 L 779,742 L 781,744 L 781,745 L 787,751 L 786,752 L 787,753 L 786,754 L 738,754 L 737,753 L 736,753 L 735,754 L 734,754 Z M 628,753 L 631,750 L 632,750 L 636,746 L 636,745 L 639,742 L 639,741 L 640,740 L 640,739 L 642,737 L 642,735 L 643,734 L 643,733 L 644,732 L 644,729 L 645,728 L 645,724 L 646,723 L 646,719 L 647,718 L 648,719 L 664,719 L 665,718 L 667,720 L 667,726 L 668,727 L 668,730 L 669,731 L 669,732 L 670,733 L 670,735 L 671,736 L 671,737 L 672,738 L 672,739 L 674,741 L 674,742 L 676,744 L 676,745 L 683,752 L 684,752 L 685,753 L 684,754 L 629,754 Z M 580,753 L 579,754 L 524,754 L 523,753 L 525,751 L 526,751 L 527,752 L 526,751 L 531,746 L 531,745 L 534,742 L 534,741 L 535,740 L 535,739 L 536,738 L 536,737 L 537,736 L 537,735 L 538,734 L 538,733 L 539,732 L 539,729 L 540,728 L 540,725 L 541,724 L 541,720 L 542,719 L 560,719 L 561,718 L 562,719 L 562,725 L 563,726 L 563,729 L 564,730 L 564,732 L 565,733 L 565,734 L 566,735 L 566,736 L 567,737 L 567,738 L 568,739 L 568,740 L 569,741 L 569,742 L 572,745 L 572,746 L 577,751 L 576,752 L 577,751 L 578,752 L 579,752 Z M 476,753 L 475,754 L 415,754 L 414,753 L 415,752 L 416,752 L 422,746 L 422,745 L 424,743 L 424,742 L 425,741 L 425,740 L 426,739 L 426,738 L 427,737 L 427,736 L 428,735 L 428,733 L 429,732 L 429,730 L 430,729 L 430,725 L 431,724 L 431,720 L 432,719 L 448,719 L 449,718 L 452,718 L 453,719 L 455,719 L 456,718 L 457,719 L 457,723 L 458,724 L 458,728 L 459,729 L 459,731 L 460,732 L 460,734 L 461,735 L 461,736 L 462,737 L 462,738 L 463,739 L 463,740 L 465,742 L 465,743 L 474,752 L 475,752 Z M 273,733 L 274,732 L 276,732 L 277,731 L 278,731 L 279,730 L 280,730 L 282,728 L 283,728 L 291,720 L 291,719 L 292,718 L 292,717 L 293,716 L 293,715 L 294,714 L 294,713 L 295,712 L 295,711 L 296,710 L 296,707 L 297,706 L 297,702 L 298,701 L 299,702 L 303,702 L 304,703 L 307,703 L 308,704 L 312,704 L 313,705 L 317,705 L 318,706 L 322,706 L 323,707 L 326,707 L 327,708 L 332,708 L 333,709 L 335,709 L 336,710 L 336,713 L 335,714 L 335,724 L 336,725 L 336,728 L 337,729 L 337,732 L 338,733 L 338,735 L 339,736 L 339,737 L 340,738 L 340,739 L 341,740 L 341,741 L 342,742 L 342,743 L 344,745 L 344,746 L 348,750 L 347,751 L 346,751 L 345,750 L 341,750 L 340,749 L 336,749 L 335,748 L 332,748 L 331,747 L 328,747 L 327,746 L 323,746 L 322,745 L 319,745 L 318,744 L 315,744 L 314,743 L 310,743 L 309,742 L 306,742 L 305,741 L 302,741 L 301,740 L 298,740 L 297,739 L 294,739 L 293,738 L 289,738 L 288,737 L 285,737 L 284,736 L 281,736 L 280,735 L 277,735 L 276,734 L 274,734 Z M 1196,686 L 1197,687 L 1197,690 L 1198,691 L 1198,693 L 1199,694 L 1199,695 L 1200,696 L 1200,697 L 1203,700 L 1203,701 L 1206,704 L 1207,704 L 1210,707 L 1211,707 L 1212,708 L 1213,708 L 1214,709 L 1216,709 L 1217,710 L 1218,710 L 1220,712 L 1219,713 L 1218,713 L 1215,716 L 1214,716 L 1211,719 L 1210,719 L 1207,722 L 1206,722 L 1202,726 L 1201,726 L 1199,728 L 1198,728 L 1195,731 L 1194,731 L 1191,734 L 1190,734 L 1189,733 L 1188,733 L 1187,732 L 1187,734 L 1188,733 L 1189,733 L 1190,734 L 1188,736 L 1187,736 L 1184,739 L 1183,738 L 1183,737 L 1184,736 L 1184,734 L 1185,733 L 1185,731 L 1186,730 L 1186,725 L 1187,724 L 1187,715 L 1186,714 L 1186,710 L 1185,709 L 1185,706 L 1186,705 L 1187,706 L 1186,705 L 1186,704 L 1186,705 L 1185,706 L 1184,705 L 1184,703 L 1183,702 L 1183,701 L 1182,700 L 1182,699 L 1181,698 L 1181,697 L 1180,696 L 1180,695 L 1177,692 L 1177,691 L 1178,690 L 1179,691 L 1178,690 L 1177,691 L 1176,690 L 1176,689 L 1177,688 L 1178,688 L 1179,687 L 1184,687 L 1185,688 L 1188,688 L 1189,687 L 1193,687 L 1194,686 Z M 1245,657 L 1246,656 L 1274,656 L 1275,657 L 1275,660 L 1276,661 L 1274,663 L 1273,663 L 1270,666 L 1269,666 L 1266,669 L 1265,669 L 1263,671 L 1262,671 L 1259,674 L 1258,674 L 1257,675 L 1256,674 L 1256,673 L 1255,672 L 1255,670 L 1254,669 L 1254,667 L 1253,666 L 1253,665 Z M 162,660 L 163,659 L 168,659 L 169,658 L 170,658 L 172,661 L 175,661 L 176,660 L 178,660 L 179,659 L 181,659 L 182,658 L 183,658 L 183,657 L 184,656 L 183,655 L 185,653 L 187,653 L 188,652 L 189,652 L 190,653 L 194,653 L 195,654 L 196,654 L 199,657 L 200,657 L 203,660 L 204,660 L 206,662 L 205,663 L 206,662 L 207,662 L 209,664 L 208,665 L 209,664 L 210,664 L 212,666 L 211,667 L 212,666 L 213,667 L 214,667 L 216,669 L 215,670 L 216,671 L 215,670 L 216,669 L 217,669 L 219,671 L 218,672 L 219,673 L 220,672 L 221,672 L 223,674 L 228,674 L 233,669 L 233,668 L 237,664 L 239,664 L 240,665 L 241,665 L 244,667 L 246,667 L 247,668 L 246,669 L 245,669 L 244,670 L 243,670 L 239,674 L 238,674 L 237,675 L 237,676 L 234,679 L 234,680 L 233,681 L 233,682 L 231,684 L 231,686 L 229,689 L 229,692 L 228,693 L 228,707 L 229,708 L 229,709 L 228,710 L 227,709 L 226,709 L 224,707 L 225,706 L 226,706 L 226,705 L 225,706 L 224,705 L 225,706 L 224,707 L 223,707 L 221,705 L 220,705 L 219,704 L 218,704 L 216,702 L 215,702 L 213,700 L 212,700 L 210,698 L 209,698 L 207,696 L 206,696 L 203,693 L 202,693 L 200,691 L 199,691 L 198,690 L 197,690 L 195,688 L 194,688 L 191,685 L 190,685 L 188,683 L 187,683 L 185,681 L 184,681 L 182,679 L 181,679 L 179,677 L 178,677 L 176,675 L 175,675 L 173,673 L 172,673 L 170,671 L 169,671 L 167,669 L 166,669 L 164,667 L 163,667 L 160,664 L 160,663 L 162,661 L 167,661 L 163,661 Z M 1349,607 L 1350,608 L 1350,628 L 1349,629 L 1348,628 L 1349,629 L 1348,630 L 1343,630 L 1342,629 L 1342,628 L 1339,625 L 1337,625 L 1336,624 L 1336,622 L 1343,615 L 1343,614 L 1348,609 L 1348,608 Z M 1360,535 L 1361,536 L 1360,537 L 1360,538 L 1361,538 L 1362,537 L 1363,538 L 1363,546 L 1362,547 L 1361,546 L 1359,546 L 1361,546 L 1362,547 L 1361,548 L 1359,548 L 1357,550 L 1356,549 L 1356,547 L 1355,546 L 1355,545 L 1354,544 L 1354,542 L 1353,541 L 1354,540 L 1354,539 L 1356,537 L 1357,537 L 1357,536 L 1358,535 Z" fill="black" fill-rule="evenodd"/>
</svg>