<?xml version="1.0" encoding="UTF-8" standalone="no"?>
<svg
   width="650"
   height="250"
   viewBox="0 0 650 250"
   version="1.1"
   id="svg1"
   sodipodi:docname="crusader_mk_iii_black.svg"
   inkscape:version="1.4.2 (f4327f4, 2025-05-13)"
   xmlns:inkscape="http://www.inkscape.org/namespaces/inkscape"
   xmlns:sodipodi="http://sodipodi.sourceforge.net/DTD/sodipodi-0.dtd"
   xmlns="http://www.w3.org/2000/svg"
   xmlns:svg="http://www.w3.org/2000/svg">
  <defs
     id="defs1" />
  <sodipodi:namedview
     id="namedview1"
     pagecolor="#ffffff"
     bordercolor="#000000"
     borderopacity="0.25"
     inkscape:showpageshadow="2"
     inkscape:pageopacity="0.0"
     inkscape:pagecheckerboard="0"
     inkscape:deskcolor="#d1d1d1"
     inkscape:zoom="1.0819521"
     inkscape:cx="723.69191"
     inkscape:cy="543"
     inkscape:window-width="2560"
     inkscape:window-height="1377"
     inkscape:window-x="-8"
     inkscape:window-y="-8"
     inkscape:window-maximized="1"
     inkscape:current-layer="svg1" />
  <path
     d="m 29.317447,142.36295 2.763167,3.68423 -2.763167,11.05266 4.144751,4.14476 -2.302639,3.68422 8.289502,7.36844 0.460528,5.52634 11.052666,4.14475 1.842116,5.52634 9.671084,2.30264 3.223698,6.44738 4.144746,-1.38158 5.065814,3.2237 0.921048,5.0658 7.828978,0.92106 6.447386,8.75003 4.60528,-1.38159 5.065814,3.2237 2.763161,5.98686 7.82897,-0.46053 7.36846,6.4474 10.13161,-1.38159 4.60528,5.06581 4.60528,-2.76317 6.44739,1.38159 5.06581,5.0658 8.75002,-2.30264 2.30264,4.14476 4.14476,0.46052 3.22369,-3.68422 6.44739,-0.46054 0.92106,3.68424 4.60527,0.46052 2.30264,-3.68422 7.36845,-0.46054 2.30264,4.14476 6.44739,-4.14476 h 6.90792 l 4.14475,4.14476 4.60528,-4.14476 6.90792,0.46054 0.92105,3.2237 14.27637,-3.68424 1.38158,3.68424 14.7369,-3.2237 0.92105,3.2237 4.14475,0.46052 3.68422,-4.14476 h 6.90792 l 0.92106,3.68424 14.27637,-3.68424 1.38158,3.68424 4.14474,0.46052 3.2237,-4.14476 h 6.90792 l 1.38158,3.68424 13.81584,-3.68424 1.38159,3.68424 h 5.52633 l 1.38159,-3.2237 14.27636,3.2237 2.30264,-3.68424 h 6.90792 l 2.30264,4.14476 13.35531,-4.14476 1.38158,3.68424 4.60528,0.46052 6.90792,-4.14476 4.14474,3.68424 12.43426,-3.68424 3.22369,3.68424 h 5.52634 l 2.30264,-3.68424 7.36844,0.46054 0.92106,3.2237 h 5.52634 l 2.30264,-3.68424 13.3553,3.68424 1.38159,-3.2237 7.82897,-0.46054 3.68423,4.14476 5.0658,-4.14476 h 6.90792 l 1.38158,3.68424 14.27637,-3.68424 1.38158,3.68424 h 5.06581 l 2.76317,-3.68424 13.3553,3.68424 1.38158,-3.2237 7.82898,-0.46054 1.38158,3.68424 4.14476,0.46052 3.22369,-4.14476 h 8.2895 l 3.2237,4.14476 13.81584,-9.21056 5.0658,1.38158 3.2237,-2.76316 -0.92106,-3.68422 6.4474,-5.06581 h 6.44738 l 0.92106,-5.52634 7.36845,-5.98686 3.68422,1.84211 3.68422,-2.76317 -0.92106,-4.14474 6.90792,-5.98686 3.68422,1.8421 3.68423,-2.76316 -0.92105,-4.14476 5.52633,-5.0658 8.2895,-1.84212 -0.92105,-4.14474 5.52633,-5.52634 13.35531,-1.38158 0.92105,-22.56587 3.68422,-3.2237 v -20.26322 l -3.22369,-4.60528 -9.21055,-2.76317 -3.2237,-6.44738 -16.57901,-0.92106 -9.67108,-7.36845 h -84.2766 l -1.84212,-4.605283 h -12.89478 l -1.38158,4.605283 h -5.52633 l -1.84212,-5.065813 -11.97372,-2.76316 16.11847,-7.828981 v -34.53959 l -3.68422,-3.684222 -17.03953,-4.60528 -1.84212,-8.289502 -5.52632,0.460525 -1.38159,5.526337 -9.21056,-2.763164 5.06581,-9.21056 -5.98686,-4.144746 -18.88165,1.381582 -1.84211,5.986862 4.60528,5.526328 h -53.42124 l -2.30264,-8.289502 -37.76329,0.460534 -0.46052,7.828968 -17.96059,0.460534 -1.38158,-4.144756 h -15.65795 l -1.38159,5.986862 -15.65794,1.842116 -6.90792,6.447386 -0.46053,39.14487 -6.90792,0.460534 1.38159,-4.60528 -12.89479,-33.158008 -13.3553,0.921058 -17.50006,-40.986986 -4.14475,-0.921058 -20.26323,6.447396 -14.73689,9.671084 16.11848,43.289626 -11.5132,8.289502 4.14474,10.592132 -2.30263,6.907919 h -12.43426 l 1.84212,-0.92105 -5.06581,-4.605277 h -8.75003 l -7.36844,12.89478 H 99.317685 l -0.921058,-4.144753 -5.526328,-0.46053 -0.921058,4.605283 -30.394844,2.30263 -4.60528,8.28951 -8.289502,1.84211 -12.43425,10.59214 0.460528,5.52634 z m 445.330473,82.43449 0.92106,-0.92106 0.46052,0.46054 -0.46052,-0.46054 2.76316,-2.76316 v -0.46053 l 0.92106,-0.92105 v -0.46053 l 0.46053,-0.46053 v -0.46053 l 0.46053,-0.46053 V 217.429 l 0.46052,-0.46053 v -0.92106 l 0.46053,-0.46053 v -0.92105 l 0.46053,-0.46053 v -0.92105 l 0.46053,-0.46053 v -3.2237 l 0.46053,-0.46053 0.46052,0.46053 h 7.82898 l 0.46052,-0.46053 0.92106,0.92106 v 2.30264 l 0.46053,0.46053 v 0.92105 l 0.46053,0.46053 v 0.92106 l 1.38158,1.38158 v 0.46053 l 4.14475,4.14475 h 0.46053 l 2.30264,2.30264 -0.46053,0.46052 0.46053,0.46054 0.46052,-0.46054 0.92106,0.92106 -0.46052,0.46053 h -4.60528 l -0.46054,0.46053 h -20.26322 l -0.46053,-0.46053 h -1.38158 z m -23.48693,0 -0.46052,0.46053 h -1.38158 l -0.46053,0.46053 h -23.0264 l -0.46052,-0.46053 0.92105,-0.92105 h 0.46053 l 3.2237,-3.2237 v -0.46053 l 0.92105,-0.92105 v -0.46053 l 0.46053,-0.46053 v -0.46053 l 0.46053,-0.46053 V 217.429 l 0.46053,-0.46053 v -0.46053 l 0.46052,-0.46053 v -0.46053 l 0.46053,-0.46052 v -1.38159 l 0.46053,-0.46052 v -1.38159 l 0.46053,-0.46053 v -1.38158 l 0.46052,-0.46053 h 7.82898 l 0.46052,-0.46053 0.46054,0.46053 v 0.92106 l 0.46052,0.46053 v 2.30264 l 0.46053,0.46052 v 0.92106 l 0.46053,0.46053 v 0.92105 l 0.46052,0.46053 v 0.46053 l 0.46054,0.46053 v 0.46052 l 0.46052,0.46053 v 0.46053 l 0.46053,0.46053 v 0.46053 l 0.92105,0.92105 v 0.46053 l -0.46052,0.46053 0.46052,-0.46053 z m -47.43437,0.46053 -0.46052,0.46053 h -24.40798 l -0.92105,-0.92106 4.14474,-4.14475 v -0.46053 l 0.92106,-0.92105 v -0.46053 l 0.46053,-0.46053 v -0.46053 l 0.46053,-0.46052 v -0.92106 l 0.46052,-0.46053 v -0.46053 l 0.46053,-0.46052 v -1.38159 l 0.46053,-0.46052 v -2.30264 l 0.46053,-0.46053 v -0.46053 l 0.46053,-0.46053 h 5.52633 l 0.46053,-0.46053 h 0.46053 l 0.46052,0.46053 h 0.92106 l 0.46053,-0.46053 0.46053,0.46053 v 0.92106 l 0.46052,0.46053 v 2.30264 l 0.46053,0.46052 v 1.38159 l 0.46053,0.46052 v 0.46053 l 0.46053,0.46053 v 0.46053 l 0.46053,0.46053 v 0.46052 l 0.46052,0.46053 v 0.46053 l 0.46053,0.46053 v 0.46053 l 0.92106,0.92105 v 0.46053 l 3.68422,3.68422 h 0.46053 z m -74.60552,0 1.84212,-1.84211 h 0.46052 l 0.46054,-0.46053 v -0.46053 l 1.8421,-1.84211 v -0.46053 l 0.92106,-0.92105 v -0.46053 l 0.46053,-0.46053 v -0.46053 l 0.46053,-0.46052 v -0.92106 l 0.46052,-0.46053 v -0.46053 l 0.46054,-0.46052 v -0.92106 l 0.46052,-0.46053 v -1.38158 l 0.46053,-0.46053 v -2.30264 l 0.46053,-0.46053 0.46052,0.46053 h 8.28951 l 0.46053,0.46053 v 2.30264 l 0.46052,0.46053 v 1.38158 l 0.46053,0.46053 v 0.92105 l 0.46053,0.46053 v 0.92106 l 0.46053,0.46053 v 0.46052 l -0.46053,0.46053 0.46053,-0.46053 0.46052,0.46053 v 0.46053 l 0.92106,0.92106 v 0.46052 l 0.92106,0.92106 v 0.46053 l 2.76316,2.76317 -0.46052,0.46052 0.46052,0.46053 -0.46052,0.46053 h -22.10535 l -0.46052,-0.46053 h -0.46052 l -0.46054,0.46053 h -0.46052 z m -48.35543,0 1.3816,-1.38159 h 0.46052 l 1.84212,-1.8421 v -0.46053 l 1.38158,-1.38159 v -0.46052 l 0.46052,-0.46053 v -0.46053 l 0.92106,-0.92106 v -0.92105 l 0.46052,-0.46053 v -0.46053 l 0.46054,-0.46053 v -1.38158 l 0.46052,-0.46053 v -1.84211 l 0.46053,-0.46053 v -1.84211 l 0.46053,-0.46053 0.46052,0.46053 h 7.36845 l 0.46053,-0.46053 0.92106,0.92106 v 2.76317 l 0.46052,0.46053 v 1.38158 l 0.46053,0.46053 v 0.46052 l 0.46053,0.46053 v 0.92106 l 0.46053,0.46053 v 0.46052 l 0.46053,0.46053 v 0.46053 l 0.92105,0.92106 v 0.46052 l 0.92106,0.92106 v 0.46053 l 3.22369,3.22369 h 0.46053 l 0.46053,0.46053 -0.46053,0.46053 h -25.32903 z m -22.10533,0 -0.46053,0.46053 h -25.32903 l -0.46053,-0.46053 0.92105,-0.92105 h 0.46054 l 0.46052,0.46052 -0.46052,-0.46052 2.30264,-2.30264 v -0.46053 l 1.38158,-1.38159 v -0.46052 l 0.46052,-0.46053 v -0.46053 l 0.46054,-0.46053 v -0.46053 l 0.46052,-0.46052 v -0.46053 l 0.46052,-0.46053 v -0.46053 l 0.46054,-0.46053 v -1.38158 l 0.46052,-0.46053 v -1.38158 l 0.46054,-0.46053 v -1.84211 l 0.46052,-0.46053 h 8.2895 l 0.46053,-0.46053 0.46053,0.46053 v 2.76317 l 0.46052,0.46053 v 1.38158 l 0.46054,0.46053 v 0.92105 l 0.46052,0.46053 v 0.46053 l 0.46053,0.46053 v 0.46053 l 0.46053,0.46052 v 0.46053 l 0.46052,0.46053 v 0.46053 l 0.46054,0.46053 v 0.46052 l 1.38158,1.38159 v 0.46053 l 2.30264,2.30264 -0.46053,0.46052 0.46053,-0.46052 0.46052,0.46052 h 0.46053 z m -47.8949,0 -0.46053,0.46053 h -27.63167 l -0.46053,-0.46053 0.46053,-0.46053 h 0.46053 l 2.76316,-2.76316 v -0.46053 l 0.92106,-0.92106 v -0.46053 l 0.46052,-0.46052 v -0.46053 l 0.46054,-0.46053 v -0.46053 l 0.46052,-0.46053 V 217.429 l 0.46053,-0.46053 v -0.92106 l 0.46053,-0.46053 v -0.92105 l 0.46052,-0.46053 v -1.84211 l 0.46054,-0.46053 v -1.84211 l 0.46052,-0.46053 h 7.36844 l 0.46054,-0.46053 h 1.38158 l 0.46052,0.46053 h 0.92106 l 0.46054,-0.46053 0.46052,0.46053 v 1.84211 l 0.46052,0.46053 v 1.84211 l 0.46054,0.46053 v 0.92106 l 0.46052,0.46052 v 0.92106 l 0.46053,0.46053 v 0.46053 l 0.46053,0.46052 v 0.46053 l 0.46052,0.46053 v 0.46053 l 0.92106,0.92105 v 0.46053 l 4.14476,4.14475 h 0.46052 z m -93.48717,-9.21056 0.46054,-0.46053 h 0.92104 l 0.46054,-0.46052 h 0.46052 l 0.46054,-0.46053 h 0.46052 l 0.92106,-0.92106 h 0.46052 l 3.68423,-3.68422 v -0.46053 l 0.46053,-0.46053 v -0.46052 l 0.46052,-0.46053 v -0.46053 l 0.46054,-0.46053 v -0.46053 l 0.46052,-0.46052 v -0.46053 l 0.46053,-0.46053 v -1.38158 l 0.46053,-0.46053 v -1.84211 l 0.46052,-0.46053 0.46053,0.46053 h 1.84211 l 0.46053,0.46052 h 1.38159 l 0.46052,0.46054 h 1.84212 l 0.46052,0.46052 h 1.84211 l 0.46053,0.46053 h 1.84211 l 0.46053,0.46053 h 1.38159 l 0.46052,0.46052 h 2.30264 l 0.46053,0.46054 h 0.92105 l 0.46054,0.46052 v 1.38158 l -0.46054,0.46053 v 4.60528 l 0.46054,0.46053 v 1.38158 l 0.46052,0.46053 v 1.38158 l 0.46053,0.46053 v 0.92106 l 0.46053,0.46053 v 0.46052 l 0.46052,0.46053 v 0.46053 l 0.46054,0.46053 v 0.46053 l 0.46052,0.46052 v 0.46053 l 0.92106,0.92106 v 0.46053 l 1.84211,1.8421 -0.46053,0.46054 h -0.46052 l -0.46054,-0.46054 h -1.8421 l -0.46054,-0.46052 h -1.8421 l -0.46054,-0.46053 h -1.38158 l -0.46052,-0.46053 h -1.38159 l -0.46053,-0.46052 h -1.84211 l -0.46053,-0.46053 h -1.38158 l -0.46053,-0.46053 h -1.38158 l -0.46053,-0.46053 h -1.84211 l -0.46053,-0.46053 h -1.38158 l -0.46053,-0.46052 h -1.38158 l -0.46053,-0.46053 h -1.38159 l -0.46052,-0.46053 h -1.38158 l -0.46054,-0.46053 h -1.8421 l -0.46054,-0.46053 h -1.38158 l -0.46052,-0.46052 h -1.3816 l -0.46052,-0.46053 h -1.38158 l -0.46054,-0.46053 h -0.92104 z m 425.06725,-21.6448 0.46053,0.46052 v 1.38158 l 0.46052,0.46054 v 0.92104 l 0.46054,0.46054 v 0.46052 l 0.46052,0.46053 v 0.46053 l 1.38158,1.38158 v 0.46053 l 1.38159,1.38159 h 0.46053 l 1.38158,1.38158 h 0.46053 l 0.46053,0.46052 h 0.46052 l 0.46054,0.46054 h 0.92105 l 0.46053,0.46052 h 0.46052 l 0.92106,0.92106 -0.46053,0.46052 h -0.46053 l -1.38158,1.38159 h -0.46052 l -1.38159,1.38158 h -0.46053 l -1.38158,1.38159 h -0.46053 l -1.84211,1.84211 h -0.46053 l -0.92105,0.92105 h -0.46054 l -1.38158,1.38159 h -0.46052 l -1.38159,1.38158 h -0.46053 l -0.46052,-0.46053 h -0.46054 l -0.46052,-0.46053 v 0.92106 l 0.46052,-0.46053 h 0.46054 l 0.46052,0.46053 -0.92106,0.92106 h -0.46052 l -1.38158,1.38158 -0.46054,-0.46053 v -0.46053 l 0.46054,-0.46052 v -0.92106 l 0.46052,-0.46053 v -0.92105 l 0.46053,-0.46053 v -2.30264 l 0.46053,-0.46053 v -4.14475 l -0.46053,-0.46053 v -1.84211 l -0.46053,-0.46052 v -1.38159 l 0.46053,-0.46053 0.46053,0.46053 -0.46053,-0.46053 v -0.46052 0.46052 l -0.46053,0.46053 -0.46052,-0.46053 v -0.92106 l -0.46054,-0.46052 v -0.46053 l -0.46052,-0.46053 v -0.46052 l -0.46053,-0.46054 v -0.46052 l -0.46053,-0.46053 v -0.46053 l -1.38158,-1.38158 v -0.46052 l 0.46053,-0.46054 0.46053,0.46054 -0.46053,-0.46054 -0.46053,0.46054 -0.46053,-0.46054 v -0.46052 l 0.46053,-0.46054 h 0.46053 l 0.46053,-0.46052 h 2.30264 l 0.46052,0.46052 h 1.38158 l 0.46054,-0.46052 h 1.8421 l 0.46054,-0.46052 z m 22.56587,-13.35532 0.46053,-0.46052 h 12.89478 l 0.46052,0.46052 v 1.38158 l 0.46053,0.46054 -0.92105,0.92105 h -0.46054 l -1.38158,1.38159 h -0.46052 l -1.38159,1.38158 h -0.46053 l -0.92105,0.92106 h -0.46053 l -1.38158,1.38158 h -0.46053 l -0.46053,0.46052 -0.46052,-0.46052 v -0.46053 l -0.46054,-0.46053 v -0.92106 l -0.46052,-0.46052 v -0.92106 l -0.46053,-0.46052 v -0.46054 z m -498.751713,1.38158 0.460534,-0.46052 h 2.30263 l 0.460534,-0.46053 h 0.460524 l 0.921058,1.38159 h 1.381582 l 0.460534,-0.46054 h 0.921048 l 0.460534,-0.46052 h 0.921058 l 0.460524,-0.46053 h 0.460524 v -0.46053 l 0.460534,-0.46052 -0.460534,-0.46053 0.921058,-0.92106 h 0.921058 l 0.460524,-0.46053 h 0.460534 l 0.460524,0.46053 h 1.842116 l 0.460524,0.46053 h 0.460524 l 1.381592,1.38158 h 0.460524 l 1.381582,1.38158 h 0.460524 l 0.921058,0.92106 -0.460524,0.46053 0.460524,-0.46053 h 0.460534 l 0.921048,0.92106 -0.460524,0.46052 0.460524,-0.46052 h 0.460534 l 0.921058,0.92106 -0.460534,0.46052 0.460534,-0.46052 0.460524,0.46052 h 0.460524 l 0.921058,0.92106 -0.460524,0.46052 0.460524,0.46054 -0.460524,-0.46054 0.460524,-0.46052 h 0.460534 l 0.921048,0.92106 -0.460524,0.46052 0.460524,0.46053 0.460534,-0.46053 h 0.460524 l 0.921058,0.92106 h 2.30264 l 2.30264,-2.30264 v -0.46053 l 1.842109,-1.84211 h 0.92106 l 0.46052,0.46052 h 0.46053 l 1.38159,0.92106 h 0.92105 l 0.46053,0.46053 -0.46053,0.46053 h -0.46053 l -0.46052,0.46052 h -0.46053 l -1.84211,1.84212 h -0.46053 l -0.46053,0.46052 v 0.46054 l -1.381585,1.38158 v 0.46052 l -0.460524,0.46054 v 0.46052 l -0.921058,0.92106 v 0.92106 l -0.921058,1.38158 v 1.38158 l -0.460524,0.46052 v 6.4474 l 0.460524,0.46052 v 0.46054 l -0.460524,0.46052 -0.460534,-0.46052 h -0.460524 l -0.921058,-0.92106 0.460534,-0.46053 h 0.460524 v -0.46053 l -0.460524,0.46053 -0.460534,-0.46053 0.460534,0.46053 -0.460534,0.46053 h -0.460524 l -0.921058,-0.92106 h -0.460524 l -0.460534,-0.46052 h -0.460524 l -0.921058,-0.92106 h -0.460524 l -0.921058,-0.92106 h -0.460524 l -0.921058,-0.92106 h -0.460534 l -0.921048,-0.92105 h -0.460534 l -1.381582,-1.38159 h -0.460524 l -0.921058,-0.92104 h -0.460524 l -0.460534,-0.46054 h -0.460524 l -0.921058,-0.92106 h -0.460524 l -1.381592,-1.38158 h -0.460524 l -0.921058,-0.92106 h -0.460524 l -0.921058,-0.92104 h -0.460524 l -0.921058,-0.92106 h -0.460524 l -0.921058,-0.92106 h -0.460534 l -0.921048,-0.92106 h -0.460534 l -0.921058,-0.92105 h -0.460524 l -0.921058,-0.92105 h -0.460524 l -0.921058,-0.92106 h -0.460524 l -0.921058,-0.92106 h -0.460524 l -1.381592,-1.38158 v -0.46053 l 0.921058,-0.92105 h 2.30264 -1.842106 z m 546.646613,-24.40797 0.46052,0.46052 v 9.21056 l -0.46052,0.46053 -0.46053,-0.46053 0.46053,0.46053 -0.46053,0.46053 h -2.30264 l -0.46053,-0.46053 v -0.46053 l -1.38158,-1.38158 h -0.92106 l -0.46052,-0.46053 v -0.92105 l 3.22369,-3.2237 v -0.46052 l 2.30264,-2.30264 v -0.46054 z m 5.0658,-33.15801 0.46053,0.46053 -0.46053,0.46053 v 0.46052 h 0.46053 l 0.46053,-0.46052 0.46053,0.46052 v 3.68423 l -0.46053,0.46052 -0.46053,-0.46052 h -0.92105 0.92105 l 0.46053,0.46052 -0.46053,0.46053 h -0.92105 l -0.92106,0.92106 -0.46053,-0.46053 v -0.92106 l -0.46053,-0.46052 v -0.46053 l -0.46052,-0.46053 v -0.92105 l -0.46053,-0.46053 0.46053,-0.46053 V 126.705 l 0.92105,-0.92105 h 0.46053 v -0.46053 l 0.46053,-0.46053 z"
     fill="#000000"
     fill-rule="evenodd"
     id="path1"
     style="stroke-width:0.460528" />
</svg>
