<svg xmlns="http://www.w3.org/2000/svg" viewBox="0 0 156 73" width="156" height="73">
  <path d="M 7.00 43.00 L 17.00 46.00 L 24.00 41.00 L 25.00 37.00 L 28.00 34.00 L 34.00 35.00 L 38.00 30.00 L 41.00 30.00 L 44.00 36.00 L 50.00 36.00 L 52.00 34.00 L 52.00 31.00 L 57.00 29.00 L 87.00 30.00 L 90.00 28.00 L 114.00 28.00 L 116.00 36.00 L 113.00 49.00 L 112.00 63.00 L 109.00 66.00 L 110.00 68.00 L 114.00 68.00 L 114.00 59.00 L 118.00 41.00 L 121.00 42.00 L 124.00 57.00 L 129.00 58.00 L 129.00 55.00 L 126.00 52.00 L 122.00 39.00 L 121.00 29.00 L 124.00 27.00 L 131.00 28.00 L 132.00 24.00 L 135.00 22.00 L 151.00 24.00 L 152.00 18.00 L 133.00 18.00 L 131.00 10.00 L 128.00 11.00 L 127.00 18.00 L 106.00 18.00 L 103.00 13.00 L 88.00 10.00 L 75.00 11.00 L 67.00 14.00 L 59.00 14.00 L 49.00 10.00 L 49.00 16.00 L 38.00 18.00 L 38.00 21.00 L 36.00 23.00 L 18.00 23.00 L 16.00 21.00 L 9.00 21.00 L 5.00 24.00 Z M 47.00 31.00 L 48.00 30.00 L 50.00 30.00 L 51.00 31.00 L 51.00 33.00 L 50.00 34.00 L 48.00 34.00 L 47.00 33.00 Z" fill="#000000" stroke="#000000" stroke-width="0.5" fill-rule="evenodd" clip-rule="evenodd"/>
</svg>
