<?xml version="1.0" encoding="UTF-8" standalone="no"?>
<svg
   width="430"
   height="250"
   viewBox="0 0 430 250"
   version="1.1"
   id="svg1"
   sodipodi:docname="enfield_no2_mk_i_black.svg"
   inkscape:version="1.4.2 (f4327f4, 2025-05-13)"
   xmlns:inkscape="http://www.inkscape.org/namespaces/inkscape"
   xmlns:sodipodi="http://sodipodi.sourceforge.net/DTD/sodipodi-0.dtd"
   xmlns="http://www.w3.org/2000/svg"
   xmlns:svg="http://www.w3.org/2000/svg">
  <defs
     id="defs1" />
  <sodipodi:namedview
     id="namedview1"
     pagecolor="#ffffff"
     bordercolor="#000000"
     borderopacity="0.25"
     inkscape:showpageshadow="2"
     inkscape:pageopacity="0.0"
     inkscape:pagecheckerboard="0"
     inkscape:deskcolor="#d1d1d1"
     inkscape:zoom="0.93700159"
     inkscape:cx="626.46638"
     inkscape:cy="627"
     inkscape:window-width="2560"
     inkscape:window-height="1377"
     inkscape:window-x="-8"
     inkscape:window-y="-8"
     inkscape:window-maximized="1"
     inkscape:current-layer="svg1" />
  <path
     d="M 19.891399,29.542176 18.84,48.467339 l 2.102796,3.855124 104.789354,0.35047 -45.560587,0.700929 50.116637,-0.350459 11.21491,3.855124 5.95793,4.906523 -12.61678,-0.700929 -0.35047,9.813046 20.32704,-0.35047 13.31771,2.803737 8.76164,13.317711 5.60747,0.350459 7.35979,14.018646 8.41117,3.15419 0.35047,4.20559 17.52331,4.2056 5.60745,7.71024 -0.70093,15.77098 2.45327,9.46259 9.46257,10.51397 11.91585,5.95793 10.16351,2.45326 25.9345,-2.45326 12.96724,-11.56538 7.35979,-19.27563 15.07004,-2.45327 5.60746,2.80373 10.51397,10.16351 7.00932,16.12144 2.80374,19.97657 -1.0514,36.098 4.55605,3.1542 22.7803,1.0514 -0.35047,3.50466 -8.76165,6.65885 v 6.30839 l 7.35978,7.35979 12.61679,0.70093 6.30839,-4.90652 0.35046,-10.16352 -7.00932,-4.90652 v -5.25699 l 25.58402,-1.0514 6.30839,-4.55607 -3.50466,-31.19147 -6.30839,-21.37843 -12.61678,-26.63542 -24.53262,-34.345672 -4.55606,-19.976561 -4.55606,-3.154196 -25.23355,0.35047 -7.35979,-8.06073 -9.11212,-4.205583 0.70094,-10.513985 20.67749,-15.420508 0.70093,-3.154196 -5.95792,-1.401857 -16.4719,8.761647 -16.47191,-10.864444 -2.10279,7.359778 -3.1542,-26.284952 -8.06072,3.504665 -8.76164,-0.350469 -3.50467,6.658861 h -67.99041 l -17.17284,6.65885 -126.868707,0.35047 -0.350469,-4.205595 -7.359787,-2.803725 -3.855126,-8.761658 -10.513982,-1.051399 -4.556059,3.504665 -2.453262,7.00932 -4.906526,2.102797 v 3.504655 z m 344.157661,200.466574 0.35047,-0.35046 v -0.35047 l 2.10279,-2.1028 h 0.35046 l 0.35047,-0.35046 h 0.35047 l 0.35046,0.35046 -0.35046,0.35047 h 0.70093 v -0.35047 l 0.35047,-0.35046 0.35046,0.35046 v 0.35047 l 0.35047,0.35046 v 0.35047 l 0.35047,0.35047 h 0.35046 l 0.70094,0.70093 -0.35047,0.35047 0.35047,0.35046 -0.35047,-0.35046 0.35047,-0.35047 h 0.35046 l 0.35047,0.35047 h 0.70093 l 0.35047,0.35046 h 2.10279 l 0.35046,-0.35046 h 0.70094 l 0.35046,-0.35047 h 0.35047 l 0.35047,0.35047 -0.35047,-0.35047 2.1028,-2.1028 0.35047,0.35047 h 0.35046 l 1.05139,1.0514 -0.35045,0.35046 1.40185,1.40187 v 0.35047 -0.35047 l 0.35047,-0.35047 0.35047,0.35047 v 0.70093 l 0.35046,0.35047 v 2.10279 l -0.35046,0.35047 -0.35047,-0.35047 v -1.75232 1.75232 l 0.35047,0.35047 v 0.35046 l -0.35047,0.35047 -0.35047,-0.35047 -0.35046,0.35047 v 0.35047 l -1.05139,1.0514 0.35045,0.35046 -0.35045,0.35047 h -0.35047 l -0.35047,0.35047 h -0.35046 l -0.35047,-0.35047 h -1.0514 l -0.35047,0.35047 h -0.35046 1.0514 l 0.35046,0.35046 -0.35046,0.35047 h -1.40187 l -0.35047,0.35046 h -3.85512 l -0.35046,-0.35046 h -1.40187 l -0.35047,-0.35047 h -0.70093 l -0.35047,-0.35046 h -0.35046 l -0.35047,-0.35047 h -0.35047 l -0.35046,-0.35047 0.35046,-0.35046 h 0.35047 l -0.35047,-0.35047 h -0.70093 l -0.35047,-0.35047 0.35047,0.35047 -0.35047,0.35047 h -0.35046 l -1.75233,-1.75234 v -0.35046 l -0.35046,-0.35047 v -0.35047 l -0.35047,-0.35045 z m -77.10253,-104.43888 2.45326,3.85512 -0.35047,0.70094 0.35047,-0.35047 0.35046,0.35047 -0.35046,0.70093 0.35046,-0.35047 0.35047,0.35047 -0.35047,1.40187 v -0.70094 l 0.35047,-0.35046 1.0514,2.45326 v 1.05139 l 0.35047,0.35047 v 6.3084 l -0.35047,0.35045 -0.35047,-0.35045 v -1.40187 l -0.35046,1.40187 0.70093,0.35045 v 1.40187 l -1.0514,2.1028 -0.35047,-0.70093 0.35047,1.40186 -0.70093,1.0514 -0.35047,-0.70093 0.35047,0.70093 -0.35047,1.0514 -0.70092,0.70092 -0.35047,-0.70092 0.35047,1.05139 -2.80374,3.1542 -1.0514,0.70093 -0.70093,-0.35046 -1.40186,1.0514 0.35046,0.35046 -0.70093,0.70094 -0.70092,-0.35047 0.35045,-0.35047 -0.70092,0.35047 0.70092,0.35047 -2.45325,1.40185 -1.75234,0.35047 -0.35046,-0.35047 0.35046,-0.35045 h 0.35047 l -1.40187,0.35045 h 0.70094 l 0.35046,0.35047 -0.35046,0.35047 -3.50466,0.70093 -0.35046,0.35046 h -1.75234 l -0.35046,0.35047 h -2.45327 l -0.35047,0.35047 h -10.16351 l -0.35046,-0.35047 0.35046,-0.35047 h 9.81305 l 0.35046,-0.35046 h 2.45327 -3.85512 l -0.35047,0.35046 h -6.65885 l -0.35047,-0.35046 h -3.1542 1.40187 l 0.35046,0.35046 -0.35046,0.35047 h -2.45327 l -0.35047,-0.35047 h -1.75232 l -0.35046,-0.35046 -2.80374,-0.35047 -0.35046,-0.35046 0.35046,-0.35047 h 1.0514 v -0.35047 h -0.70093 l -0.35047,-0.35045 0.35047,-0.35047 h 3.50466 l 0.35046,-0.35047 2.80373,-0.35046 1.0514,-0.70094 1.40187,0.35047 0.35047,-0.35047 -0.35047,-0.35046 0.70093,-0.70094 1.05139,0.35047 0.70094,-0.70093 -0.35047,-0.35047 1.40187,-1.0514 2.45326,-2.80372 0.35047,0.35045 2.10279,-2.80372 -0.35047,-1.40186 0.70093,-1.0514 0.35047,0.35046 0.35047,-0.35046 -0.35047,-1.75234 0.70093,-1.75232 0.35047,0.35047 v 1.0514 -1.0514 l -0.35047,-0.35047 v -1.40187 l 0.35047,-0.35046 v -5.25699 l -0.35047,-0.35047 v -1.75233 l 0.35047,-0.35047 0.35047,0.35047 -0.35047,-0.35047 v -1.40186 1.40186 l -0.35047,0.35047 -0.35046,-0.35047 v -1.0514 l -0.35047,-0.35046 0.35047,-2.10279 -0.35047,-0.35047 v -0.70093 1.0514 l -0.35047,0.35047 -0.70093,-1.40187 0.70093,-1.0514 2.1028,-0.70093 0.35047,0.35046 -0.35047,0.35047 h 0.35047 l 0.35047,-0.35047 -0.35047,-0.35046 0.35047,-0.35047 1.0514,0.35047 0.35046,-0.35047 -0.35046,-0.35047 2.1028,-1.40186 0.70092,0.35046 v -0.70093 l 0.70093,-0.70093 0.35047,0.35046 0.35046,-0.35046 -0.35046,-0.35047 1.40186,-1.40186 4.55606,2.10279 0.70093,0.70094 -0.70093,0.35046 1.0514,-0.35046 0.70093,0.70093 -0.35046,0.35047 0.35046,0.35046 0.35047,-0.35046 z M 244.8906,114.35495 h 3.85513 l 0.35046,0.35047 -0.35046,0.70093 -0.35047,-0.35046 h -0.70093 0.35046 l 0.35047,0.70093 0.70093,0.35047 -0.35046,-0.35047 0.35046,-0.70093 1.40187,1.40186 -0.35047,0.70094 0.70094,0.35046 0.70093,-0.35046 0.35047,0.35046 -0.35047,0.35047 1.0514,1.0514 0.70093,-0.35047 0.70093,0.70093 -0.70093,0.35047 0.70093,0.35047 0.35046,0.70092 h 0.35047 l 0.70093,0.70093 v 0.35047 h 0.35047 l 0.35046,0.70093 1.75234,1.75234 0.35046,-0.35047 1.0514,1.0514 0.35047,1.0514 0.70093,0.70093 1.05139,2.10279 v 0.70093 l 1.0514,2.1028 v 1.40187 l 0.35047,0.35047 v 5.60745 l -0.35047,0.35047 v 1.0514 l -0.70093,1.40185 -0.35047,-0.35045 v -0.70094 0.70094 l 0.35047,0.35045 v 0.70094 l -0.70093,1.0514 -0.35047,-0.70094 -0.35046,0.35047 0.70093,0.35047 -0.70093,1.75233 -1.75233,2.1028 -0.35047,-0.35047 -2.45326,2.45326 0.35046,0.35046 -1.0514,1.0514 h -0.35046 l -0.70093,0.70094 -0.70093,-0.35047 0.35047,-0.35047 -0.35047,0.35047 0.35047,0.35047 -0.35047,0.35046 -0.70093,-0.35046 -1.0514,0.35046 -0.35047,0.35047 0.35047,0.35047 -0.35047,0.35046 -1.0514,-0.35046 0.70094,0.35046 -1.0514,0.70094 v 1.0514 l 0.70093,0.70093 -0.35047,0.35047 h -0.70093 l -0.70093,0.70092 h -1.0514 l -0.35047,-0.35047 h -0.70092 l -0.35047,-0.35045 0.70092,-0.35047 -0.35045,-0.35047 H 245.942 l 0.70094,0.35047 -0.35047,0.35047 -1.75233,-0.35047 -1.0514,-0.70093 0.70093,-0.35047 -1.0514,0.35047 -0.35046,-0.35047 0.35046,-0.35047 -1.0514,-0.70093 -1.0514,0.35047 -0.35046,-0.35047 0.35046,-0.35047 -0.35046,-0.35046 -1.05139,0.35046 -0.35047,-0.35046 0.35047,-0.35047 -0.70094,-0.70093 v 0.35046 l -0.70093,0.35047 -1.40187,-1.0514 0.35047,-0.35047 -0.70093,-0.70093 v -0.35047 l 0.35046,0.70094 -0.70093,0.35046 -3.85512,-3.50465 0.35047,-0.35047 -0.35047,0.35047 -0.70093,-0.70093 v -0.35047 l -2.1028,-2.45327 -1.40187,-2.80372 0.35047,-0.70093 0.35046,0.35046 -0.35046,-0.70093 -0.35047,0.70093 -0.35047,-0.35046 v -0.70094 l -0.70093,-1.40186 v -1.0514 l -0.35047,-0.35047 v -2.80372 l -0.35046,-0.35047 v -1.0514 l 0.35046,-0.35046 v -2.80374 l 0.35047,-0.35046 v -1.0514 l 0.35047,-0.35047 v -0.70092 l 1.0514,-1.75233 v -0.70094 l 0.70093,-0.70093 0.35047,0.35047 -0.35047,-0.70094 2.45327,-2.80373 v -0.35047 l 0.70093,-0.35045 1.40186,-1.40187 1.05139,0.35047 -0.35046,-0.70094 2.1028,-1.40186 0.70093,0.35047 h 0.70093 l 1.0514,-0.70094 h 1.05139 l 0.70094,-0.35046 h -0.70094 l -0.35045,-0.35047 0.35045,-0.35047 h 0.70094 l 0.35046,-0.35046 h 1.40187 l 0.35047,-0.35047 h 1.75233 z m -26.63541,-19.626087 0.35045,-0.350469 h 55.37365 l 0.35047,0.350469 -0.35047,0.350459 h -55.37365 z m -2.80374,-17.873775 1.75234,-2.102797 h 2.10279 l 0.35046,0.35047 v 16.822366 l 0.70094,1.051398 h 52.21944 l 0.70094,-0.700929 v -6.65885 l 0.35046,-0.350469 0.35047,0.350469 v 6.308381 l 0.35047,-0.700929 v -9.112117 1.051398 l -0.35047,0.35047 -0.35047,-0.35047 v -4.556064 l 1.40186,-1.401857 h 1.0514 l 0.35046,0.350459 v 9.813057 l -0.35046,0.350458 v 5.256993 l -0.70094,1.401869 -0.70093,-0.35047 -1.75232,0.35047 -0.70093,-0.700929 -0.35047,0.350459 -0.70093,-0.350459 h -3.50467 l -0.35046,0.350459 h -2.1028 l -0.35046,-0.350459 h -38.90174 l -0.35047,0.350459 -0.35045,-0.350459 h -4.90653 l 0.35046,0.350459 -0.35046,0.35047 h -1.40187 l -0.35047,-0.35047 h -0.70092 l -0.35047,0.35047 -0.70093,-0.700929 0.35047,-0.70094 0.35046,0.35047 v -0.700929 l -0.70093,0.700929 -0.35047,-0.35047 v -2.453256 l 0.70094,-0.35047 v -1.051398 l -0.70094,-0.35047 v -1.401857 l -1.0514,-0.700929 z m 2.45327,-28.037279 h 1.40186 l 0.35046,0.350458 -0.35046,0.35047 h -1.05139 1.05139 l 0.35046,0.35047 V 61.78505 l -0.35046,0.35047 -0.35047,-0.35047 v -0.35047 h -0.35047 l -0.35045,-0.350459 h -0.70094 l -0.35046,0.350459 -0.35047,-0.350459 v -1.401868 l -1.0514,-1.051399 h -0.35047 l -0.35046,-0.35047 h -0.35047 l -0.35047,-0.350458 h -0.70093 l -0.35046,-0.35047 h -0.35047 l -1.0514,-1.051399 V 55.1262 l 0.70093,-0.70094 h 0.35047 l 0.70093,-0.700929 h 0.35047 l 1.40186,-1.401868 v -0.350459 l 0.35047,-0.35047 0.35047,0.35047 h 0.35046 -0.35046 l -0.35047,-0.35047 v -0.350469 l 0.35047,-0.350459 v -0.35047 l 0.70093,-0.700929 0.70093,0.700929 v -0.700929 l -0.35046,-0.35047 z m 77.453,-14.36911 0.35045,0.35047 v 3.154184 l 0.35047,0.35047 v 2.453267 l 0.35047,0.350459 v 1.051399 l -0.35047,0.350469 -0.35047,-0.350469 v -0.350459 l -0.35045,-0.35047 v -0.35047 l -0.35047,-0.350459 v -0.35047 l -0.35047,-0.35047 v -0.700928 l -0.35046,-0.35047 v -0.350459 l 0.35046,-0.35047 0.35047,0.35047 v -3.855124 z m -21.7289,-1.401868 0.35047,0.350469 v 5.957922 l -0.35047,0.35047 -0.35046,-0.35047 V 33.3973 Z m -60.63063,-1.401858 2.1028,-1.051398 h 59.22877 l 0.35045,0.350458 -0.35045,0.35047 h -58.87831 7.00933 l 0.35046,0.35047 h 45.56058 l 1.40187,-0.35047 2.80373,0.700929 -0.35046,-0.350459 0.35046,-0.35047 h 1.75234 l 0.70092,1.401869 v -0.70094 l -0.70092,-0.700929 0.70092,-0.35047 1.0514,1.401869 0.35046,14.01864 -0.35046,0.35047 -0.70094,-0.35047 -1.05138,0.700939 -0.70094,-0.700939 v -5.256993 l 0.35047,-0.350459 0.35047,0.350459 v -6.65885 l -0.70094,-1.401868 -0.35046,0.350469 -1.40187,-1.051398 h -50.81758 l -1.40187,1.401868 v 4.556053 l -1.40185,0.35047 -1.0514,-0.70094 0.70093,-0.350458 -0.35047,-0.35047 -0.70093,0.35047 -1.75233,-2.453267 -1.40187,-0.700929 0.70093,-0.35047 -1.05139,-0.700929 -0.35047,-1.051398 0.70093,-0.35047 z"
     fill="#000000"
     fill-rule="evenodd"
     id="path1"
     style="stroke-width:0.350467" />
</svg>
