<svg xmlns="http://www.w3.org/2000/svg" width="1254" height="1254" viewBox="0 0 1254 1254">
<rect width="100%" height="100%" fill="white"/>
<path d="M 72,339 L 69,393 L 75,404 L 374,405 L 244,407 L 387,406 L 419,417 L 436,431 L 400,429 L 399,457 L 457,456 L 495,464 L 520,502 L 536,503 L 557,543 L 581,552 L 582,564 L 632,576 L 648,598 L 646,643 L 653,670 L 680,700 L 714,717 L 743,724 L 817,717 L 854,684 L 875,629 L 918,622 L 934,630 L 964,659 L 984,705 L 992,762 L 989,865 L 1002,874 L 1067,877 L 1066,887 L 1041,906 L 1041,924 L 1062,945 L 1098,947 L 1116,933 L 1117,904 L 1097,890 L 1097,875 L 1170,872 L 1188,859 L 1178,770 L 1160,709 L 1124,633 L 1054,535 L 1041,478 L 1028,469 L 956,470 L 935,447 L 909,435 L 911,405 L 970,361 L 972,352 L 955,348 L 908,373 L 861,342 L 855,363 L 846,288 L 823,298 L 798,297 L 788,316 L 594,316 L 545,335 L 183,336 L 182,324 L 161,316 L 150,291 L 120,288 L 107,298 L 100,318 L 86,324 L 86,334 Z M 1054,911 L 1055,910 L 1055,909 L 1061,903 L 1062,903 L 1063,902 L 1064,902 L 1065,903 L 1064,904 L 1066,904 L 1066,903 L 1067,902 L 1068,903 L 1068,904 L 1069,905 L 1069,906 L 1070,907 L 1071,907 L 1073,909 L 1072,910 L 1073,911 L 1072,910 L 1073,909 L 1074,909 L 1075,910 L 1077,910 L 1078,911 L 1084,911 L 1085,910 L 1087,910 L 1088,909 L 1089,909 L 1090,910 L 1089,909 L 1095,903 L 1096,904 L 1097,904 L 1100,907 L 1099,908 L 1103,912 L 1103,913 L 1103,912 L 1104,911 L 1105,912 L 1105,914 L 1106,915 L 1106,921 L 1105,922 L 1104,921 L 1104,916 L 1104,921 L 1105,922 L 1105,923 L 1104,924 L 1103,923 L 1102,924 L 1102,925 L 1099,928 L 1100,929 L 1099,930 L 1098,930 L 1097,931 L 1096,931 L 1095,930 L 1092,930 L 1091,931 L 1090,931 L 1093,931 L 1094,932 L 1093,933 L 1089,933 L 1088,934 L 1077,934 L 1076,933 L 1072,933 L 1071,932 L 1069,932 L 1068,931 L 1067,931 L 1066,930 L 1065,930 L 1064,929 L 1065,928 L 1066,928 L 1065,927 L 1063,927 L 1062,926 L 1063,927 L 1062,928 L 1061,928 L 1056,923 L 1056,922 L 1055,921 L 1055,920 L 1054,919 Z M 834,613 L 841,624 L 840,626 L 841,625 L 842,626 L 841,628 L 842,627 L 843,628 L 842,632 L 842,630 L 843,629 L 846,636 L 846,639 L 847,640 L 847,658 L 846,659 L 845,658 L 845,654 L 844,658 L 846,659 L 846,663 L 843,669 L 842,667 L 843,671 L 841,674 L 840,672 L 841,674 L 840,677 L 838,679 L 837,677 L 838,680 L 830,689 L 827,691 L 825,690 L 821,693 L 822,694 L 820,696 L 818,695 L 819,694 L 817,695 L 819,696 L 812,700 L 807,701 L 806,700 L 807,699 L 808,699 L 804,700 L 806,700 L 807,701 L 806,702 L 796,704 L 795,705 L 790,705 L 789,706 L 782,706 L 781,707 L 752,707 L 751,706 L 752,705 L 780,705 L 781,704 L 788,704 L 777,704 L 776,705 L 757,705 L 756,704 L 747,704 L 751,704 L 752,705 L 751,706 L 744,706 L 743,705 L 738,705 L 737,704 L 729,703 L 728,702 L 729,701 L 732,701 L 732,700 L 730,700 L 729,699 L 730,698 L 740,698 L 741,697 L 749,696 L 752,694 L 756,695 L 757,694 L 756,693 L 758,691 L 761,692 L 763,690 L 762,689 L 766,686 L 773,678 L 774,679 L 780,671 L 779,667 L 781,664 L 782,665 L 783,664 L 782,659 L 784,654 L 785,655 L 785,658 L 785,655 L 784,654 L 784,650 L 785,649 L 785,634 L 784,633 L 784,628 L 785,627 L 786,628 L 785,627 L 785,623 L 785,627 L 784,628 L 783,627 L 783,624 L 782,623 L 783,617 L 782,616 L 782,614 L 782,617 L 781,618 L 779,614 L 781,611 L 787,609 L 788,610 L 787,611 L 788,611 L 789,610 L 788,609 L 789,608 L 792,609 L 793,608 L 792,607 L 798,603 L 800,604 L 800,602 L 802,600 L 803,601 L 804,600 L 803,599 L 807,595 L 820,601 L 822,603 L 820,604 L 823,603 L 825,605 L 824,606 L 825,607 L 826,606 Z M 714,581 L 725,581 L 726,582 L 725,584 L 724,583 L 722,583 L 723,583 L 724,585 L 726,586 L 725,585 L 726,583 L 730,587 L 729,589 L 731,590 L 733,589 L 734,590 L 733,591 L 736,594 L 738,593 L 740,595 L 738,596 L 740,597 L 741,599 L 742,599 L 744,601 L 744,602 L 745,602 L 746,604 L 751,609 L 752,608 L 755,611 L 756,614 L 758,616 L 761,622 L 761,624 L 764,630 L 764,634 L 765,635 L 765,651 L 764,652 L 764,655 L 762,659 L 761,658 L 761,656 L 761,658 L 762,659 L 762,661 L 760,664 L 759,662 L 758,663 L 760,664 L 758,669 L 753,675 L 752,674 L 745,681 L 746,682 L 743,685 L 742,685 L 740,687 L 738,686 L 739,685 L 738,686 L 739,687 L 738,688 L 736,687 L 733,688 L 732,689 L 733,690 L 732,691 L 729,690 L 731,691 L 728,693 L 728,696 L 730,698 L 729,699 L 727,699 L 725,701 L 722,701 L 721,700 L 719,700 L 718,699 L 720,698 L 719,697 L 717,697 L 719,698 L 718,699 L 713,698 L 710,696 L 712,695 L 709,696 L 708,695 L 709,694 L 706,692 L 703,693 L 702,692 L 703,691 L 702,690 L 699,691 L 698,690 L 699,689 L 697,687 L 697,688 L 695,689 L 691,686 L 692,685 L 690,683 L 690,682 L 691,684 L 689,685 L 678,675 L 679,674 L 678,675 L 676,673 L 676,672 L 670,665 L 666,657 L 667,655 L 668,656 L 667,654 L 666,656 L 665,655 L 665,653 L 663,649 L 663,646 L 662,645 L 662,637 L 661,636 L 661,633 L 662,632 L 662,624 L 663,623 L 663,620 L 664,619 L 664,617 L 667,612 L 667,610 L 669,608 L 670,609 L 669,607 L 676,599 L 676,598 L 678,597 L 682,593 L 685,594 L 684,592 L 690,588 L 692,589 L 694,589 L 697,587 L 700,587 L 702,586 L 700,586 L 699,585 L 700,584 L 702,584 L 703,583 L 707,583 L 708,582 L 713,582 Z M 638,525 L 639,524 L 797,524 L 798,525 L 797,526 L 639,526 Z M 630,474 L 635,468 L 641,468 L 642,469 L 642,517 L 644,520 L 793,520 L 795,518 L 795,499 L 796,498 L 797,499 L 797,517 L 798,515 L 798,489 L 798,492 L 797,493 L 796,492 L 796,479 L 800,475 L 803,475 L 804,476 L 804,504 L 803,505 L 803,520 L 801,524 L 799,523 L 794,524 L 792,522 L 791,523 L 789,522 L 779,522 L 778,523 L 772,523 L 771,522 L 660,522 L 659,523 L 658,522 L 644,522 L 645,523 L 644,524 L 640,524 L 639,523 L 637,523 L 636,524 L 634,522 L 635,520 L 636,521 L 636,519 L 634,521 L 633,520 L 633,513 L 635,512 L 635,509 L 633,508 L 633,504 L 630,502 Z M 637,394 L 641,394 L 642,395 L 641,396 L 638,396 L 641,396 L 642,397 L 642,431 L 641,432 L 640,431 L 640,430 L 639,430 L 638,429 L 636,429 L 635,430 L 634,429 L 634,425 L 631,422 L 630,422 L 629,421 L 628,421 L 627,420 L 625,420 L 624,419 L 623,419 L 620,416 L 620,412 L 622,410 L 623,410 L 625,408 L 626,408 L 630,404 L 630,403 L 631,402 L 632,403 L 633,403 L 632,403 L 631,402 L 631,401 L 632,400 L 632,399 L 634,397 L 636,399 L 636,397 L 635,396 Z M 858,353 L 859,354 L 859,363 L 860,364 L 860,371 L 861,372 L 861,375 L 860,376 L 859,375 L 859,374 L 858,373 L 858,372 L 857,371 L 857,370 L 856,369 L 856,367 L 855,366 L 855,365 L 856,364 L 857,365 L 857,354 Z M 796,349 L 797,350 L 797,367 L 796,368 L 795,367 L 795,350 Z M 623,345 L 629,342 L 798,342 L 799,343 L 798,344 L 630,344 L 650,344 L 651,345 L 781,345 L 785,344 L 793,346 L 792,345 L 793,344 L 798,344 L 800,348 L 800,346 L 798,344 L 800,343 L 803,347 L 804,387 L 803,388 L 801,387 L 798,389 L 796,387 L 796,372 L 797,371 L 798,372 L 798,353 L 796,349 L 795,350 L 791,347 L 646,347 L 642,351 L 642,364 L 638,365 L 635,363 L 637,362 L 636,361 L 634,362 L 629,355 L 625,353 L 627,352 L 624,350 L 623,347 L 625,346 Z" fill="black" fill-rule="evenodd"/>
</svg>