<svg xmlns="http://www.w3.org/2000/svg" width="1254" height="1254" viewBox="0 0 1254 1254">
<rect width="100%" height="100%" fill="white"/>
<path d="M 720,556 L 718,560 L 718,676 L 719,678 L 723,681 L 817,681 L 821,679 L 826,674 L 831,664 L 831,583 L 832,582 L 832,577 L 831,576 L 831,571 L 829,568 L 829,566 L 824,560 L 824,559 L 816,554 L 724,554 Z" fill="black" fill-rule="evenodd"/>
<path d="M 474,564 L 474,567 L 475,565 L 476,566 L 475,569 L 475,666 L 476,669 L 475,670 L 474,668 L 474,671 L 476,669 L 479,675 L 484,680 L 491,683 L 555,683 L 559,679 L 559,668 L 560,667 L 685,667 L 688,677 L 692,681 L 696,683 L 701,683 L 706,681 L 710,677 L 712,673 L 712,561 L 709,556 L 702,552 L 697,552 L 692,554 L 687,560 L 685,568 L 561,568 L 559,566 L 559,556 L 555,552 L 490,552 L 487,554 L 485,554 L 484,552 L 483,553 L 485,554 L 478,561 L 476,560 L 478,561 L 476,566 Z M 509,639 L 517,639 L 518,640 L 519,640 L 524,645 L 524,646 L 525,647 L 525,650 L 526,651 L 526,652 L 525,653 L 525,656 L 523,658 L 523,659 L 520,662 L 519,662 L 518,661 L 519,662 L 518,663 L 516,663 L 515,664 L 510,664 L 509,663 L 508,663 L 507,662 L 506,662 L 502,658 L 502,657 L 501,656 L 501,654 L 500,653 L 500,649 L 501,648 L 501,646 L 507,640 L 508,640 Z M 510,571 L 515,571 L 516,572 L 518,572 L 519,573 L 518,574 L 517,574 L 518,574 L 519,573 L 520,573 L 524,577 L 524,578 L 525,579 L 525,582 L 526,583 L 526,585 L 525,586 L 525,588 L 524,589 L 524,590 L 520,594 L 519,594 L 518,595 L 517,595 L 516,596 L 510,596 L 509,595 L 507,595 L 505,593 L 504,593 L 503,592 L 503,591 L 501,589 L 501,587 L 500,586 L 500,582 L 501,581 L 501,579 L 502,578 L 502,577 L 506,573 L 507,573 L 508,572 L 509,572 Z" fill="black" fill-rule="evenodd"/>
<path d="M 1224,597 L 1215,575 L 1205,563 L 1187,552 L 1167,548 L 1149,548 L 1004,564 L 909,571 L 861,572 L 858,567 L 854,564 L 842,563 L 838,565 L 838,670 L 843,672 L 854,671 L 859,667 L 861,663 L 886,663 L 1002,671 L 1152,686 L 1176,684 L 1199,674 L 1212,662 L 1221,646 L 1225,630 L 1226,612 Z" fill="black" fill-rule="evenodd"/>
<path d="M 571,417 L 564,409 L 557,407 L 265,410 L 188,453 L 122,504 L 64,564 L 28,613 L 27,620 L 76,684 L 131,738 L 194,785 L 266,825 L 278,828 L 562,828 L 570,821 L 572,815 L 571,696 L 561,688 L 491,688 L 491,686 L 499,686 L 487,687 L 475,678 L 470,664 L 470,571 L 476,556 L 488,548 L 493,550 L 493,547 L 562,547 L 570,541 Z" fill="black" fill-rule="evenodd"/>
</svg>