<?xml version="1.0" encoding="UTF-8" standalone="no"?>
<svg
   width="600"
   height="250"
   viewBox="0 0 600 250"
   version="1.1"
   id="svg4"
   sodipodi:docname="feldspaten_black.svg"
   inkscape:version="1.4.2 (f4327f4, 2025-05-13)"
   xmlns:inkscape="http://www.inkscape.org/namespaces/inkscape"
   xmlns:sodipodi="http://sodipodi.sourceforge.net/DTD/sodipodi-0.dtd"
   xmlns="http://www.w3.org/2000/svg"
   xmlns:svg="http://www.w3.org/2000/svg">
  <defs
     id="defs4" />
  <sodipodi:namedview
     id="namedview4"
     pagecolor="#ffffff"
     bordercolor="#000000"
     borderopacity="0.25"
     inkscape:showpageshadow="2"
     inkscape:pageopacity="0.0"
     inkscape:pagecheckerboard="0"
     inkscape:deskcolor="#d1d1d1"
     inkscape:zoom="0.93700159"
     inkscape:cx="626.46638"
     inkscape:cy="627"
     inkscape:window-width="2560"
     inkscape:window-height="1377"
     inkscape:window-x="-8"
     inkscape:window-y="-8"
     inkscape:window-maximized="1"
     inkscape:current-layer="svg4" />
  <path
     d="m 344.17696,95.604677 -0.91228,1.824581 v 52.913032 l 0.45613,0.91229 1.82459,1.36844 h 42.87781 l 1.82458,-0.91229 2.28074,-2.28074 2.28073,-4.56146 v -36.94789 l 0.45615,-0.45615 v -2.28073 l -0.45615,-0.45616 v -2.28073 l -0.91228,-1.36845 v -0.91228 l -2.28075,-2.736882 v -0.456156 l -3.64918,-2.280726 h -41.9655 z"
     fill="#000000"
     fill-rule="evenodd"
     id="path1"
     style="stroke-width:0.456146" />
  <path
     d="m 231.96486,99.253839 v 1.368451 l 0.45614,-0.912306 0.45616,0.456156 -0.45616,1.36844 v 44.24624 l 0.45616,1.36843 -0.45616,0.45616 -0.45614,-0.9123 v 1.36845 l 0.9123,-0.91231 1.36843,2.73689 2.28073,2.28073 3.19304,1.36845 h 29.19339 l 1.82458,-1.82459 v -5.01762 l 0.45615,-0.45614 h 57.01835 l 1.36844,4.56147 1.82459,1.82458 1.82459,0.9123 h 2.28073 l 2.28073,-0.9123 1.82458,-1.82458 0.91231,-1.82459 V 97.885403 l -1.36845,-2.280726 -3.19302,-1.824603 h -2.28073 l -2.28074,0.912302 -2.28073,2.736882 -0.9123,3.649162 h -56.56221 l -0.91229,-0.91228 v -4.561463 l -1.82458,-1.824603 H 239.2632 l -1.36843,0.912302 h -0.9123 l -0.45615,-0.912302 -0.45615,0.456145 0.9123,0.456157 -3.19303,3.193027 -0.91228,-0.456145 0.91228,0.456145 -0.91228,2.280737 z m 15.96513,34.211011 h 3.64918 l 0.45615,0.45616 h 0.45614 l 2.28075,2.28073 v 0.45615 l 0.45613,0.45614 v 1.36844 l 0.45614,0.45615 v 0.45614 l -0.45614,0.45615 v 1.36845 l -0.91229,0.91229 v 0.45614 l -1.36845,1.36845 h -0.45614 l -0.45614,-0.45615 0.45614,0.45615 -0.45614,0.45613 h -0.9123 l -0.45614,0.45616 h -2.28074 l -0.45615,-0.45616 h -0.45614 l -0.45615,-0.45613 h -0.45614 l -1.82459,-1.82459 v -0.45615 l -0.45615,-0.45614 v -0.91231 l -0.45614,-0.45614 v -1.82458 l 0.45614,-0.45616 v -0.91228 l 2.73688,-2.73688 h 0.45615 z m 0.45615,-31.01798 h 2.28074 l 0.45614,0.45615 h 0.9123 l 0.45614,0.45614 -0.45614,0.45614 h -0.45615 0.45615 l 0.45614,-0.45614 h 0.45614 l 1.82461,1.8246 v 0.45615 l 0.45613,0.45613 v 1.36845 l 0.45614,0.45615 v 0.91228 l -0.45614,0.45616 v 0.91229 l -0.45613,0.45614 v 0.45615 l -1.82461,1.82459 h -0.45614 l -0.45614,0.45615 h -0.45615 l -0.45615,0.45614 h -2.73688 l -0.45615,-0.45614 h -0.91229 l -0.9123,-0.91229 h -0.45614 l -0.45614,-0.45615 v -0.45616 l -0.9123,-0.91229 v -0.91229 l -0.45614,-0.45614 v -1.82459 l 0.45614,-0.45615 v -0.9123 l 0.45615,-0.45613 v -0.45615 l 1.82459,-1.8246 h 0.45614 l 0.45615,-0.45614 h 0.45614 z"
     fill="#000000"
     fill-rule="evenodd"
     id="path2"
     style="stroke-width:0.456146" />
  <path
     d="m 574.07494,114.3067 -4.10532,-10.03524 -4.56146,-5.473766 -8.21065,-5.01762 -9.12294,-1.824581 h -8.21063 l -66.14129,7.298346 -43.33395,3.193031 -21.89504,0.45615 -1.36844,-2.28073 -1.82458,-1.368451 -5.47377,-0.456145 -1.82458,0.91229 v 47.895426 l 2.28073,0.91229 5.01762,-0.45614 2.28073,-1.82459 0.91229,-1.8246 h 11.40367 l 52.91304,3.64919 68.422,6.8422 10.94753,-0.91231 10.49137,-4.56146 5.92991,-5.47375 4.10532,-7.29835 1.82459,-7.29836 0.45615,-8.21064 z"
     fill="#000000"
     fill-rule="evenodd"
     id="path3"
     style="stroke-width:0.456146" />
  <path
     d="m 276.2111,32.200263 -3.19303,-3.649168 -3.19304,-0.912298 -133.19485,1.368435 -35.12331,19.614314 -30.105692,23.263495 -26.456512,27.368798 -16.421286,22.351201 -0.456146,3.19303 22.351193,29.19338 25.088072,24.63194 28.737251,21.4389 32.84258,18.24587 5.47375,1.36844 h 129.54569 l 3.64918,-3.19303 0.91228,-2.73688 -0.45613,-54.28147 -4.56148,-3.64916 h -31.93026 v -0.9123 h 3.64916 l -5.47375,0.45614 -5.47377,-4.10532 -2.28073,-6.38605 v -42.42166 l 2.73689,-6.842193 5.47375,-3.649184 2.28073,0.912302 v -1.368458 h 31.47413 l 3.64918,-2.73686 z"
     fill="#000000"
     fill-rule="evenodd"
     id="path4"
     style="stroke-width:0.456146" />
</svg>
