<?xml version="1.0" encoding="UTF-8" standalone="no"?>
<svg
   width="1000"
   height="250"
   viewBox="0 0 1000 250"
   version="1.1"
   id="svg1"
   sodipodi:docname="fg42_x4_black.svg"
   inkscape:version="1.4.2 (f4327f4, 2025-05-13)"
   xmlns:inkscape="http://www.inkscape.org/namespaces/inkscape"
   xmlns:sodipodi="http://sodipodi.sourceforge.net/DTD/sodipodi-0.dtd"
   xmlns="http://www.w3.org/2000/svg"
   xmlns:svg="http://www.w3.org/2000/svg">
  <defs
     id="defs1" />
  <sodipodi:namedview
     id="namedview1"
     pagecolor="#ffffff"
     bordercolor="#000000"
     borderopacity="0.25"
     inkscape:showpageshadow="2"
     inkscape:pageopacity="0.0"
     inkscape:pagecheckerboard="0"
     inkscape:deskcolor="#d1d1d1"
     inkscape:zoom="0.55616943"
     inkscape:cx="1021.2715"
     inkscape:cy="369.49172"
     inkscape:window-width="2560"
     inkscape:window-height="1377"
     inkscape:window-x="-8"
     inkscape:window-y="-8"
     inkscape:window-maximized="1"
     inkscape:current-layer="svg1" />
  <path
     d="m 979.25965,83.206025 -6.81067,-7.71876 -24.06433,-3.632358 -51.30702,17.253691 H 803.99848 L 799.00399,93.195 656.88804,89.108598 655.97995,76.395354 637.36413,73.671086 V 51.422903 l 72.64713,5.902581 V 23.272138 l -48.58277,6.810671 h -63.56624 l -6.35662,-2.724268 1.36213,-10.443029 -17.25369,-1.816179 -7.71876,2.724268 1.81618,9.53494 -6.35663,2.724268 h -41.31805 l -26.78863,-9.988984 -30.87503,1.362134 1.81618,39.501883 h 30.42098 l 31.32908,-9.534939 v 21.794138 l -16.79965,3.178313 -1.36213,13.167288 -278.32932,0.90809 -13.16729,-7.718752 -14.07538,9.988976 5.90258,6.810674 -60.84197,0.45404 2.72427,-13.621341 -6.35663,-33.599292 -8.62685,-2.270224 -3.63236,33.145257 -4.99448,3.178304 2.27023,13.167296 -34.507396,3.17831 -67.65264,-3.63235 -4.086401,17.25369 3.632356,6.35662 68.106685,-3.63236 107.608556,3.17832 -8.17279,12.2592 4.99449,9.98898 27.6967,0.45405 5.90259,-4.08641 186.15827,4.08641 67.19859,-4.08641 10.44303,9.0809 25.88054,0.90809 -3.63236,58.1177 63.56624,9.08089 5.90258,-56.30153 4.54045,9.98899 0.90809,-9.98899 5.90258,-0.90809 4.08639,13.1673 9.53494,6.81066 39.50187,-3.63235 10.89708,3.17831 25.42649,41.31806 -1.36213,14.52942 8.17281,2.72427 37.68569,-15.89156 -2.72427,-14.07538 -33.14525,-43.13424 3.63235,-24.97245 h 56.75558 l 4.0864,-4.99449 -2.27022,-6.81066 h 32.69121 l 0.90808,7.71875 8.62685,6.81067 67.19859,3.17831 39.04781,26.78864 -5.44848,8.17279 3.63232,8.17281 7.26474,0.90809 7.26473,-7.71876 21.34005,14.52943 26.33456,2.27022 5.44857,-9.53494 -4.08639,-52.21513 z m -67.19858,96.257445 h 1.36218 l 0.45398,0.45405 h 0.45406 l 2.27022,2.27021 v 2.72427 l -0.45406,0.45404 v 0.45405 l -0.90803,0.90809 h -0.45407 l -0.45406,0.45404 h -0.45406 l -0.45398,0.45405 H 911.607 l -0.45397,-0.45405 h -0.45406 l -0.45406,-0.45404 h -0.45407 l -0.90803,-0.90809 v -0.45405 l -0.45407,-0.45404 v -2.27022 l 0.45407,-0.45405 v -0.45404 l 0.90803,-0.90809 0.45407,0.45404 -0.45407,-0.45404 0.90813,-0.90808 h 0.90803 z m -315.56095,-21.79415 0.45404,-0.45404 h 1.36214 l 0.45404,-0.45404 0.45405,0.45404 0.45404,-0.45404 0.45405,0.45404 h 1.36213 l 0.45405,-0.45404 h 0.45404 l 0.45405,0.45404 h 0.45404 l 0.45405,0.45404 -0.45405,0.45405 h -6.35663 z m 9.53493,2.72427 0.45405,-0.45404 v -0.90809 l 0.45404,-0.45405 0.45404,-1.36213 0.90809,-0.90808 v -0.45405 l 1.81618,-1.81617 h 0.45405 l 0.90809,-0.90809 h 0.45404 l 1.36214,-0.90809 h 0.90809 l 0.45404,-0.45405 h 21.34009 l 0.45405,0.45405 v 0.90809 l 2.27022,2.72426 v 0.45405 l 1.36214,2.27021 v 0.90809 l 0.45404,0.45405 v 6.81067 l -0.45404,0.45404 v 0.90809 l -0.45405,0.45405 -0.90809,2.27022 -2.27022,2.27023 h -0.45405 l -0.90809,0.90809 v 0.90808 l 0.90809,0.90809 h 1.36214 l 0.45404,-0.45404 1.36214,-0.45405 0.90809,-0.90808 h 0.45404 l 3.17831,-3.17832 v -0.45404 l 0.90809,-0.90809 v -0.45405 l 0.45405,-0.45404 v -0.90809 l 0.90809,-1.36214 v -1.36213 l 0.45404,-0.45404 v -3.17832 l 0.45405,-0.45404 v -2.72427 l 0.45404,-0.45405 0.45405,0.45405 v 0.45404 l 0.45404,-0.45404 0.45405,0.45404 h 0.45404 l 0.45405,-0.45404 v -0.45405 h -0.45405 l -0.45404,-0.45404 -0.45405,0.45404 -0.45404,-0.45404 v -0.45404 l 0.45404,-0.45404 v -0.90809 l 0.45405,-0.45404 1.36213,1.36213 v 0.45404 l 0.90809,0.90808 v 0.45405 l 0.90809,1.36213 v 1.36214 l 0.45404,0.45404 v 6.35663 l -0.45404,0.45404 v 0.90809 l -0.45405,0.45405 v 0.45404 l -0.45404,0.45405 -0.90809,2.27022 -3.17831,3.17831 h -0.45405 l -3.17831,1.81618 h -1.81618 l -0.45404,0.45405 h -6.81068 l -0.45404,-0.45405 h -8.1728 l -0.45404,0.45405 h -7.26472 l -0.45404,-0.45405 h -1.81618 l -0.45404,-0.45404 h -0.90809 l -0.45405,-0.45405 h -0.90809 l -0.45404,-0.45404 h -0.45405 l -3.63236,-3.17831 v -0.45405 l -0.90809,-0.90809 v -0.45404 l -1.36213,-2.27023 v -1.81618 l -0.45404,-0.45404 v -4.54045 l 0.45404,-0.45404 z m -405.00774,-27.24267 0.45405,0.45404 v 1.81618 l -0.45405,0.45405 v 0.90809 l 0.45405,0.45404 v 1.36213 l 0.45404,0.45405 h 1.36213 l 0.45404,-0.45405 h 0.45405 v -4.99449 l 0.45404,-0.45404 0.45405,0.45404 v 0.45405 l 0.45404,0.45404 v 4.99449 l -0.90809,0.90809 h -0.45404 l -0.45405,-0.45404 h -0.90809 0.90809 l 0.45405,0.45404 -0.45405,0.45405 h -1.36213 l -0.45404,-0.45405 h -0.45404 l -1.36214,-1.36213 v -0.45405 l -0.45404,-0.45404 v -3.17831 l 0.45404,-0.45405 v -0.45404 z M 33.030819,112.71891 v -2.72426 l 1.816179,-1.81617 H 48.92238 l 0.454044,0.45404 h 5.902579 l 0.454045,0.45405 h 4.99449 l 0.454044,0.45403 h 3.178312 l 0.454045,0.45405 h 0.454045 l 0.908088,0.90809 v 0.45404 l -1.362133,1.36213 h -0.454045 l -0.454044,0.45405 h -3.632356 l -0.454045,0.45404 h -4.540446 l -0.454044,0.45405 h -7.264714 l -0.454044,0.45404 h -7.264713 l -0.454044,0.45405 h -3.632357 l -0.454045,-0.45405 h -0.454044 l -0.454044,-0.45404 H 33.938909 L 33.484864,113.627 v -0.45404 z m 357.333071,-8.17279 0.45405,-0.45405 v -0.45404 l 0.90808,-0.90809 h 8.62685 l 0.90809,0.90809 v 0.45404 l 0.45404,0.45405 v 1.36213 l -1.81618,1.81618 h -7.71876 l -0.45404,-0.45404 h -0.45404 l -0.45404,-0.45405 v -0.45404 l 0.45404,-0.45405 0.45404,0.45405 -0.45404,-0.45405 -0.45404,0.45405 -0.45405,-0.45405 z m -30.87503,-0.45405 1.36213,-1.36213 h 20.88605 l 0.90809,0.90809 v 0.45404 l 0.45405,0.45405 v 1.36213 l -1.81618,1.81618 h -20.43201 l -1.36213,-1.36213 z m -30.87503,0 0.90808,-0.90809 0.45405,0.45405 h 0.90809 -0.90809 l -0.45405,-0.45405 0.45405,-0.45404 h 20.432 l 0.45405,0.45404 -0.45405,0.45405 0.45405,0.45404 -0.45405,-0.45404 0.45405,-0.45405 h 0.45404 l 0.45405,0.45405 v 0.45404 l 0.45404,0.45405 v 1.36213 l -0.90809,0.90809 -0.45404,-0.45404 0.45404,0.45404 -0.90809,0.90809 H 330.43 l -0.45404,-0.45404 h -0.45405 l -0.90808,-0.90809 z m -30.87504,0 1.36214,-1.36213 h 20.43201 l 0.45404,0.45404 -0.45404,0.45405 0.45404,-0.45405 h 0.45405 l 0.45403,0.45405 v 0.90809 l 0.45405,0.45404 v 0.45405 l -0.45405,0.45404 v 0.45405 l -1.36212,1.36213 h -19.97797 l -0.45404,-0.45404 h -0.45405 l -0.90809,-0.90809 z m -30.87502,0 1.36213,-1.36213 h 20.43201 l 0.45404,0.45404 -0.45404,0.45405 0.45404,-0.45405 h 0.45405 l 0.45404,0.45405 v 0.45404 l 0.45405,0.45405 v 1.36213 l -1.81618,1.81618 h -19.97796 l -0.45405,-0.45404 h -0.45404 l -0.90809,-0.90809 z m -31.32908,0.90809 0.45405,-0.45404 v -0.45405 l 0.45404,-0.45404 0.45404,0.45404 0.45405,-0.45404 h 1.36213 -1.36213 l -0.45405,-0.45405 0.45405,-0.45404 h 20.432 l 1.36214,1.36213 v 0.45405 l 0.45404,0.45404 v 0.45405 l -0.45404,0.45404 v 0.45405 l -0.90809,0.90809 h -0.45405 l -0.45404,0.45404 h -19.52392 l -0.45404,-0.45404 h -0.45405 l -0.90808,-0.90809 v -0.45405 l -0.45405,-0.45404 z m 398.65112,-19.52392 0.45405,-0.454036 h 1.81618 l 0.45404,-0.454045 h 9.98899 l 0.45404,0.454045 v 3.632349 l -0.45404,0.454045 h -1.81618 l -0.45405,0.454044 -0.45404,-0.454044 h -1.81618 l -0.45404,-0.454045 v -0.454045 h -0.90809 l -0.45405,-0.454045 h -3.63236 l -0.45404,-0.454044 h -1.81618 l -0.45405,-0.454045 z m -28.15076,-0.454036 0.45405,-0.454045 h 3.63235 l 0.45405,0.454045 0.45404,-0.454045 0.45405,0.454045 v 0.908081 l -0.45405,0.454044 v 0.454045 l -0.45404,0.454045 v 0.908089 l 0.45404,0.454045 -0.45404,0.454045 h -1.36214 l -0.45404,-0.454045 v -0.454045 l -0.90809,-0.908089 0.45404,-0.454045 h 0.45405 l -0.45405,-0.454045 0.45405,-0.454044 h -0.45405 l -0.45404,0.454044 h -0.45405 0.45405 l 0.45404,0.454045 -0.45404,0.454045 h -0.90809 L 606.4891,86.838374 V 85.47624 Z m -21.79414,0 0.45405,-0.454045 h 11.80516 l 0.45404,0.454045 v 4.086394 l -0.45404,0.454044 h -0.45404 l -0.45405,-0.454044 h -0.90809 l -0.45404,0.454044 h -2.27023 l -0.45404,0.454045 h -0.45405 l -0.45404,-0.454045 0.45404,-0.454044 -0.45404,0.454044 h -0.45405 l -0.90809,-0.908089 h -0.45404 l -0.45405,-0.454045 h -1.81617 l -0.45405,0.454045 H 585.149 l -0.45404,0.454045 -0.45405,-0.454045 z m -21.34009,0 0.45404,-0.454045 h 9.0809 l 0.90809,0.908081 v 1.816179 l -0.45405,0.454044 h -0.45404 v 0.90809 l -0.45405,0.454045 h -4.0864 l -0.45404,0.454044 h -1.36214 l -0.90809,-0.908089 h -1.81618 l -0.45404,-0.454045 z m -19.06987,0 0.45404,-0.454045 h 9.53494 l 0.45405,0.454045 v 2.724259 l -0.45405,0.454045 h -4.0864 l -0.45404,-0.454045 h -0.45405 l -0.45404,-0.454044 h -3.63236 l -0.45405,-0.454045 V 85.47624 Z m -25.88054,1.81617 1.36213,-1.362134 v -0.454036 l 0.45405,-0.454045 h 8.1728 l 0.45405,0.454045 h 1.36213 l 0.45405,0.454036 v 1.816179 l -0.45405,0.454044 h -0.45404 l -0.45405,0.454045 h -4.0864 l -0.90809,0.90809 h -4.0864 l -0.45405,-0.454045 v -0.454045 z m 26.33458,-35.415471 0.45405,-0.454045 h 18.61582 l 0.45405,0.454045 v 0.454044 h 0.45404 l 0.90809,0.90809 h 30.42099 l 0.45405,-0.454045 h 0.45404 l 1.36213,-1.362134 h 22.24819 l 0.45404,0.454045 v 8.62685 l 0.45405,0.454044 v 6.356618 l -0.45405,0.454044 v 6.356627 l -0.45404,0.454044 h -0.45405 l -0.45404,1.362135 -0.90809,0.908089 h -71.285 l -0.45404,-0.454045 v -0.454044 l -1.36214,-1.362135 h -0.45404 l -0.45405,-0.454044 V 66.40637 l -0.45404,-0.454045 v -4.540438 l 0.45404,-0.454045 z"
     fill="#000000"
     fill-rule="evenodd"
     id="path1"
     style="stroke-width:0.454045" />
</svg>
