<svg xmlns="http://www.w3.org/2000/svg" width="2172" height="724" viewBox="0 0 2172 724">
<rect width="100%" height="100%" fill="white"/>
<path d="M 2081,226 L 2068,207 L 2041,202 L 1890,247 L 1620,240 L 1616,224 L 1543,216 L 1543,133 L 1532,103 L 1517,98 L 1499,133 L 1499,209 L 1238,214 L 1226,132 L 1215,195 L 1199,201 L 1200,211 L 1136,222 L 607,214 L 594,226 L 517,215 L 474,229 L 311,229 L 305,125 L 292,117 L 281,127 L 278,227 L 72,223 L 65,254 L 73,272 L 383,265 L 386,323 L 474,314 L 477,327 L 496,328 L 438,591 L 413,610 L 453,622 L 471,616 L 455,594 L 510,398 L 537,563 L 520,586 L 575,586 L 554,565 L 526,354 L 536,330 L 528,329 L 560,319 L 1137,340 L 1166,328 L 1174,345 L 1141,510 L 1295,554 L 1347,369 L 1357,411 L 1378,433 L 1476,432 L 1528,521 L 1528,548 L 1542,554 L 1623,530 L 1620,509 L 1540,391 L 1548,370 L 1581,368 L 1588,349 L 1615,349 L 1618,339 L 1626,353 L 1643,353 L 1649,340 L 1695,341 L 1823,366 L 1894,399 L 1907,428 L 1940,432 L 2008,480 L 2040,484 L 2063,262 Z M 1363,388 L 1364,387 L 1364,386 L 1365,385 L 1366,382 L 1368,380 L 1368,379 L 1372,375 L 1373,375 L 1375,373 L 1376,373 L 1379,371 L 1381,371 L 1382,370 L 1413,370 L 1414,371 L 1414,374 L 1415,375 L 1415,376 L 1417,378 L 1417,379 L 1418,380 L 1419,383 L 1421,385 L 1421,387 L 1422,388 L 1422,390 L 1423,391 L 1423,403 L 1422,404 L 1422,406 L 1421,407 L 1421,409 L 1420,410 L 1419,413 L 1413,419 L 1413,422 L 1416,424 L 1417,423 L 1420,422 L 1422,420 L 1423,420 L 1429,414 L 1429,413 L 1431,411 L 1431,410 L 1432,409 L 1432,407 L 1433,406 L 1433,405 L 1435,402 L 1435,400 L 1436,399 L 1436,396 L 1437,395 L 1437,392 L 1438,391 L 1444,391 L 1445,390 L 1447,390 L 1448,389 L 1449,389 L 1451,387 L 1452,387 L 1454,390 L 1454,393 L 1455,394 L 1455,401 L 1454,402 L 1454,405 L 1453,406 L 1453,408 L 1452,409 L 1452,410 L 1451,411 L 1450,414 L 1442,422 L 1441,422 L 1439,424 L 1438,424 L 1437,425 L 1435,425 L 1434,426 L 1432,426 L 1431,427 L 1387,427 L 1386,426 L 1384,426 L 1383,425 L 1381,425 L 1380,424 L 1377,423 L 1375,421 L 1376,420 L 1375,421 L 1374,420 L 1373,420 L 1368,415 L 1368,414 L 1367,413 L 1367,412 L 1368,411 L 1367,412 L 1365,410 L 1365,408 L 1364,407 L 1364,405 L 1363,404 L 1363,400 L 1362,399 L 1362,393 L 1363,392 Z M 1972,323 L 1976,323 L 1977,324 L 1978,324 L 1982,328 L 1982,331 L 1983,332 L 1983,351 L 1982,352 L 1982,354 L 1981,355 L 1981,356 L 1979,358 L 1979,359 L 1978,360 L 1977,360 L 1976,361 L 1975,361 L 1974,360 L 1974,359 L 1972,359 L 1972,360 L 1971,361 L 1970,361 L 1969,360 L 1968,360 L 1966,358 L 1966,357 L 1965,356 L 1965,355 L 1964,354 L 1964,332 L 1965,331 L 1965,329 L 1970,324 L 1971,324 L 1972,325 L 1974,325 L 1972,325 L 1971,324 Z M 576,269 L 577,270 L 576,271 L 575,271 L 574,272 L 573,271 L 569,271 L 570,271 L 572,273 L 570,275 L 570,276 L 569,277 L 569,281 L 568,282 L 567,281 L 567,271 L 566,270 L 567,269 Z M 425,272 L 426,271 L 426,269 L 427,268 L 427,267 L 428,266 L 473,266 L 474,267 L 474,268 L 475,269 L 475,284 L 474,285 L 472,285 L 471,284 L 470,284 L 469,285 L 468,284 L 452,284 L 451,285 L 439,285 L 438,284 L 431,284 L 430,283 L 430,280 L 429,279 L 429,278 L 428,277 L 426,277 L 425,276 L 426,275 L 425,274 Z M 1008,261 L 1010,259 L 1011,260 L 1010,259 L 1012,257 L 1013,257 L 1014,256 L 1044,256 L 1045,257 L 1047,257 L 1048,258 L 1047,259 L 1048,258 L 1049,258 L 1052,261 L 1052,265 L 1048,269 L 1013,269 L 1012,268 L 1011,268 L 1009,266 L 1009,265 L 1008,264 Z M 93,259 L 94,258 L 95,258 L 96,257 L 101,257 L 102,256 L 141,256 L 142,257 L 150,257 L 151,258 L 153,258 L 155,260 L 155,261 L 154,262 L 153,262 L 152,263 L 148,263 L 147,264 L 107,264 L 106,263 L 101,263 L 100,262 L 97,262 L 96,261 L 95,261 Z M 931,260 L 932,259 L 932,258 L 934,256 L 935,256 L 936,255 L 969,255 L 970,256 L 971,256 L 972,257 L 971,258 L 972,259 L 973,258 L 975,260 L 975,263 L 974,264 L 974,265 L 972,267 L 971,267 L 970,268 L 937,268 L 936,267 L 935,267 L 931,263 Z M 853,258 L 857,254 L 860,254 L 861,253 L 876,253 L 877,254 L 893,254 L 897,258 L 897,263 L 894,266 L 893,266 L 892,267 L 874,267 L 873,266 L 858,266 L 857,265 L 856,265 L 853,262 Z M 775,259 L 776,258 L 776,256 L 779,253 L 780,253 L 781,252 L 808,252 L 809,253 L 815,253 L 816,254 L 817,254 L 818,255 L 818,256 L 819,257 L 819,262 L 817,264 L 816,264 L 815,263 L 812,263 L 815,263 L 816,264 L 815,265 L 781,265 L 780,264 L 779,264 L 778,263 L 777,263 L 776,262 L 776,260 Z M 698,255 L 702,251 L 737,251 L 739,253 L 740,253 L 741,254 L 741,255 L 742,256 L 742,259 L 741,260 L 741,261 L 739,263 L 738,263 L 737,264 L 712,264 L 711,263 L 702,263 L 701,262 L 700,262 L 699,261 L 699,260 L 698,259 Z M 621,254 L 622,253 L 622,252 L 623,251 L 624,251 L 625,252 L 624,253 L 625,252 L 624,251 L 625,250 L 626,250 L 627,249 L 653,249 L 654,250 L 661,250 L 664,253 L 664,254 L 665,255 L 665,257 L 664,258 L 664,259 L 661,262 L 626,262 L 625,261 L 624,261 L 621,258 Z M 93,239 L 94,238 L 95,238 L 96,237 L 99,237 L 100,236 L 105,236 L 106,235 L 141,235 L 142,236 L 148,236 L 149,237 L 152,237 L 153,238 L 154,238 L 155,239 L 155,241 L 153,243 L 151,243 L 150,244 L 145,244 L 144,245 L 105,245 L 104,244 L 98,244 L 97,243 L 95,243 L 93,241 Z" fill="black" fill-rule="evenodd"/>
</svg>