<?xml version="1.0" encoding="UTF-8" standalone="no"?>
<svg
   width="1000"
   height="250"
   viewBox="0 0 1000 250"
   version="1.1"
   id="svg1"
   sodipodi:docname="fg42_black.svg"
   inkscape:version="1.4.2 (f4327f4, 2025-05-13)"
   xmlns:inkscape="http://www.inkscape.org/namespaces/inkscape"
   xmlns:sodipodi="http://sodipodi.sourceforge.net/DTD/sodipodi-0.dtd"
   xmlns="http://www.w3.org/2000/svg"
   xmlns:svg="http://www.w3.org/2000/svg">
  <defs
     id="defs1" />
  <sodipodi:namedview
     id="namedview1"
     pagecolor="#ffffff"
     bordercolor="#000000"
     borderopacity="0.25"
     inkscape:showpageshadow="2"
     inkscape:pageopacity="0.0"
     inkscape:pagecheckerboard="0"
     inkscape:deskcolor="#d1d1d1"
     inkscape:zoom="0.55616943"
     inkscape:cx="866.64238"
     inkscape:cy="141.14404"
     inkscape:window-width="2560"
     inkscape:window-height="1377"
     inkscape:window-x="-8"
     inkscape:window-y="-8"
     inkscape:window-maximized="1"
     inkscape:current-layer="svg1" />
  <path
     d="m 942.65168,64.508221 -5.72906,-8.373193 -11.89871,-2.203475 -66.54483,19.83125 -118.98747,-3.084863 -1.76275,-7.051107 -32.17071,-3.525561 V 23.523643 l -4.84764,-13.220826 -6.61042,-2.2034754 -7.9325,15.4243014 v 33.492773 l -115.02122,2.203468 -3.30742,-8.80002 -6.82855,0.426833 -7.05112,2.644165 0.4407,4.406943 -28.20444,4.84764 -233.12729,-3.525561 -5.72903,5.288337 -33.93347,-4.847639 -18.94985,6.169718 h -71.83318 l -2.64417,-45.832211 -5.72902,-3.525553 -4.84764,4.406942 -1.32208,44.069434 -90.78303,-1.762777 -3.08486,13.661524 3.525555,7.932499 136.615245,-3.084859 1.32208,25.560271 38.7811,-3.96624 1.32209,5.72902 8.37319,0.4407 -25.56028,115.90261 -11.01736,8.37319 17.62778,5.28833 7.9325,-2.64417 -7.05111,-9.69527 24.23819,-86.3761 11.89874,72.71457 -7.4918,10.13597 h 24.23819 l -9.25458,-9.25458 -12.33945,-92.9865 4.40695,-10.57667 -3.52556,-0.44069 14.10222,-4.40695 254.28063,9.25459 12.78013,-5.28833 3.52555,7.4918 -14.54291,72.71457 67.86693,19.39055 22.91611,-81.52846 4.40695,18.50916 9.25458,9.69528 43.18804,-0.4407 22.91611,39.2218 v 11.89874 l 6.16972,2.64418 35.69624,-10.57667 -1.32208,-9.25458 -35.25555,-52.00193 3.52555,-9.25458 14.54292,-0.88139 3.08486,-8.37319 h 11.89873 l 1.32208,-4.40694 3.52557,6.16971 h 7.4918 l 2.64416,-5.72902 20.27193,0.44069 56.40887,11.01736 31.2893,14.54291 5.72905,12.78014 14.54287,1.76277 29.96722,21.15333 14.10227,1.76278 10.13597,-97.834148 z m -316.41852,71.392479 0.44069,-0.44069 v -0.4407 l 0.4407,-0.44069 0.44069,-1.32208 0.8814,-0.88139 v -0.4407 l 1.76277,-1.76278 h 0.44069 l 0.88139,-0.88139 h 0.4407 l 1.32208,-0.88138 h 0.88139 l 0.44069,-0.44069 h 13.66153 l 0.44069,0.44069 v 1.32208 l 0.4407,0.44069 v 0.4407 l 0.88138,0.88139 v 0.44069 l 0.4407,0.4407 0.44069,1.32208 0.88139,0.88139 v 0.88139 l 0.4407,0.44069 v 0.88139 l 0.44069,0.4407 v 5.28833 l -0.44069,0.44069 v 0.88139 l -0.4407,0.44069 v 0.88139 l -0.44069,0.4407 -0.4407,1.32208 -2.64416,2.64417 v 1.32208 l 1.32208,0.88139 0.44069,-0.4407 1.32209,-0.44069 0.88139,-0.88139 h 0.44069 l 2.64416,-2.64416 v -0.4407 l 0.88139,-0.88139 v -0.44069 l 0.4407,-0.4407 v -0.88139 l 0.44069,-0.44069 v -0.44069 l 0.88139,-1.32209 v -0.88139 l 0.4407,-0.44069 v -1.32209 l 0.44069,-0.44069 v -1.32208 l 0.4407,-0.44069 h 2.64416 l 0.4407,-0.4407 h 0.88139 l 0.44069,-0.44069 h 0.4407 l 0.88138,-0.88139 h 0.44069 l 0.88139,1.32208 v 1.32209 l 0.4407,0.44069 v 3.08486 l -0.4407,0.44069 v 1.32209 l -0.44069,0.44069 v 0.88139 l -0.4407,0.44069 v 0.4407 l -0.44069,0.44069 -0.44069,1.32209 -3.52556,3.52555 h -0.44069 l -0.88139,0.88139 h -0.44069 l -0.4407,0.44069 h -0.88139 l -0.44069,0.4407 h -0.88139 l -0.4407,0.44069 h -19.39055 l -0.44069,-0.44069 h -0.88139 l -0.4407,-0.4407 h -0.88138 l -0.44069,-0.44069 -1.32209,-0.4407 -0.88139,-0.88139 0.4407,-0.44069 -0.4407,0.44069 -0.44069,-0.44069 h -0.4407 l -2.20346,-2.20347 v -0.44069 l -0.4407,-0.4407 v -0.44069 l 0.4407,-0.4407 -0.4407,0.4407 -0.88139,-0.88139 v -0.88139 l -0.4407,-0.4407 v -0.88138 l -0.44069,-0.4407 v -1.76278 l -0.4407,-0.44069 v -2.64416 l 0.4407,-0.4407 z m 268.38286,-28.64513 h 1.76275 l 0.44067,0.4407 h 0.44074 l 1.76275,1.76278 v 1.32207 l 0.44067,0.4407 v 8.3732 l -0.44067,0.44069 v 0.88139 l -0.44067,0.44069 v 0.44069 l -0.88141,0.88139 v 0.4407 l -0.44067,0.44069 h -0.44074 l -0.44067,0.44069 h -0.44067 l -0.44074,-0.44069 v -0.44069 h -0.88134 v 0.44069 l -0.44074,0.44069 h -0.44067 l -0.44066,-0.44069 h -0.44075 l -0.88133,-0.88139 v -0.44069 l -0.44074,-0.4407 v -0.44069 l -0.44067,-0.44069 v -9.69528 l 0.44067,-0.4407 v -0.88138 l 2.20348,-2.20347 h 0.44067 l 0.44074,0.44069 h 0.88134 -0.88134 l -0.44074,-0.44069 z m -615.2093,-23.797492 0.4407,0.4407 -0.4407,0.44069 h -0.44069 l -0.4407,0.44069 -0.44069,-0.44069 h -1.76277 0.44069 l 0.88138,0.88138 -0.88138,0.88139 v 0.4407 l -0.44069,0.44069 v 1.76278 l -0.4407,0.4407 -0.44069,-0.4407 v -4.40694 l -0.4407,-0.44069 0.4407,-0.4407 z m -66.54484,1.32208 0.44069,-0.44069 v -0.88139 l 0.4407,-0.44069 v -0.4407 l 0.44069,-0.4407 h 19.83125 l 0.44069,0.4407 v 0.4407 l 0.4407,0.44069 v 6.61041 l -0.4407,0.44069 h -0.88139 l -0.44069,-0.44069 h -0.4407 l -0.4407,0.44069 -0.44069,-0.44069 h -7.0511 l -0.4407,0.44069 h -5.28833 l -0.4407,-0.44069 h -3.08486 l -0.44069,-0.44069 v -1.32208 l -0.44069,-0.4407 v -0.44069 l -0.4407,-0.4407 h -0.88139 l -0.44069,-0.44069 0.44069,-0.4407 -0.44069,-0.44069 z m 256.9248,-4.847636 0.88139,-0.881389 0.4407,0.440691 -0.4407,-0.440691 0.88139,-0.881388 h 0.4407 l 0.44069,-0.440698 h 13.22083 l 0.4407,0.440698 h 0.88139 l 0.44069,0.440691 -0.44069,0.440697 0.44069,-0.440697 h 0.44069 l 1.32208,1.322086 v 1.762777 l -1.76277,1.762779 h -15.4243 l -0.4407,-0.44069 h -0.44069 l -0.88139,-0.8814 v -0.440689 l -0.4407,-0.440698 z m -403.235312,-0.881389 0.44069,-0.440697 h 0.44069 l 0.44069,-0.440691 h 2.20348 l 0.4407,-0.440698 h 17.18707 l 0.44069,0.440698 h 3.52556 l 0.4407,0.440691 h 0.88138 l 0.88139,0.881388 v 0.440698 l -0.44069,0.44069 h -0.4407 l -0.44069,0.440698 h -1.76278 l -0.44069,0.440691 h -17.62778 l -0.44069,-0.440691 h -2.20347 l -0.4407,-0.440698 h -1.32208 l -0.4407,-0.44069 h -0.44069 z m 369.301852,0.440691 0.44069,-0.440691 v -0.440697 l 0.88139,-0.881389 h 0.44069 l 0.4407,-0.44069 h 14.54291 l 0.4407,0.44069 h 0.44069 l 0.4407,0.440698 -0.4407,0.440691 0.4407,0.440697 0.44069,-0.440697 0.88139,0.881388 v 1.322086 l -0.44069,0.440691 v 0.440698 l -0.88139,0.881389 h -0.4407 l -0.44069,0.4407 h -14.54292 l -0.44069,-0.4407 h -0.4407 l -1.76277,-1.762778 z m -34.37416,-0.881388 1.76278,-1.762777 h 1.32208 l 0.4407,-0.440691 h 6.61041 l 0.44069,0.440691 h 7.05111 l 1.76278,1.762777 v 2.203474 l -1.32208,1.322078 h -0.4407 l -0.44069,0.4407 h -7.9325 l -0.44069,-0.4407 h -6.61042 l -0.44069,-0.440689 h -0.4407 l -1.32208,-1.322087 z m -34.37416,0.440697 0.44069,-0.440697 v -0.881389 l 1.32209,-1.322079 h 0.44069 l 0.44069,-0.440698 h 11.89875 l 0.4407,0.440698 h 2.64416 l 0.4407,0.440691 h 0.44069 l 0.44069,0.440698 v 0.44069 l 0.4407,0.440698 v 2.203467 l -0.88139,0.881389 h -0.44069 l -0.4407,-0.440691 h -1.32208 1.32208 l 0.4407,0.440691 -0.4407,0.440698 h -14.98361 l -0.44069,-0.440698 h -0.44069 l -0.4407,-0.440691 h -0.44069 l -0.4407,-0.440698 v -0.881388 z m -33.93346,-1.762776 1.76277,-1.762777 h 15.4243 l 0.88139,0.881388 h 0.4407 l 0.44069,0.440691 v 0.440698 l 0.4407,0.44069 v 1.322086 l -0.4407,0.440691 v 0.440698 l -0.88139,0.881388 h -0.44069 l -0.4407,0.440691 h -11.01736 l -0.44069,-0.440691 h -3.96625 l -0.4407,-0.440698 h -0.44069 l -0.44069,-0.44069 v -0.440698 l -0.44069,-0.440691 z m -33.93347,-0.440698 0.44069,-0.440691 V 75.96627 l 0.4407,-0.44069 h 0.44069 l 0.4407,0.44069 -0.4407,0.440698 0.4407,-0.440698 -0.4407,-0.44069 0.4407,-0.440698 h 0.44069 l 0.4407,-0.44069 h 11.45805 l 0.44069,0.44069 h 3.08487 l 1.32208,1.322086 v 0.440691 l 0.44069,0.440698 v 0.881388 l -0.44069,0.440691 v 0.440697 l -1.32208,1.322079 h -15.42431 l -0.44069,-0.44069 h -0.4407 l -1.32208,-1.322086 z m -232.686602,-6.610417 0.44069,-0.44069 h 0.44069 l 0.44069,-0.440698 h 1.32209 l 0.44069,-0.440691 h 2.20348 l 0.44069,-0.440698 h 15.4243 l 0.44069,0.440698 h 2.64417 l 0.4407,0.440691 h 1.32208 l 0.44069,0.440698 h 0.4407 l 0.44069,0.44069 v 0.881389 l -0.88139,0.881395 h -0.88138 l -0.4407,0.440691 h -2.20347 l -0.4407,0.440698 h -17.18707 l -0.44069,-0.440698 h -2.64418 l -0.44069,-0.440691 h -0.88139 l -0.88138,-0.881395 z"
     fill="#000000"
     fill-rule="evenodd"
     id="path1"
     sodipodi:nodetypes="ccccccccccccccccccccccccccccccccccccccccccccccccccccccccccccccccccccccccccccccccccccccccccccccccccccccccccccccccccccccccccccccccccccccccccccccccccccccccccccccccccccccccccccccccccccccccccccccccccccccccccccccccccccccccccccccccccccccccccccccccccccccccccccccccccccccccccccccccccccccccccccccccccccccccccccccccccccccccccccccccccccccccccccccccccccccccccccccccccccccccccccccccccccccccccccccccccccccccccccccccccccccccccccccccccccccccccccccccccccccccccccccccccccccccccccccccccccccccccccccccccccccccc"
     style="stroke-width:0.440694" />
</svg>
