<svg xmlns="http://www.w3.org/2000/svg" width="2172" height="724" viewBox="0 0 2172 724">
<rect width="100%" height="100%" fill="white"/>
<path d="M 2131,255 L 2116,238 L 2063,230 L 1950,268 L 1745,268 L 1734,277 L 1421,268 L 1419,240 L 1378,234 L 1378,185 L 1538,198 L 1538,123 L 1431,138 L 1291,138 L 1277,132 L 1280,109 L 1242,105 L 1225,111 L 1229,132 L 1215,138 L 1124,138 L 1065,116 L 997,119 L 1001,206 L 1068,206 L 1137,185 L 1137,233 L 1100,240 L 1097,269 L 484,271 L 455,254 L 424,276 L 437,291 L 303,292 L 309,262 L 295,188 L 276,183 L 268,256 L 257,263 L 262,292 L 186,299 L 37,291 L 28,329 L 36,343 L 186,335 L 423,342 L 405,369 L 416,391 L 477,392 L 490,383 L 900,392 L 1048,383 L 1071,403 L 1128,405 L 1120,533 L 1260,553 L 1273,429 L 1283,451 L 1285,429 L 1298,427 L 1307,456 L 1328,471 L 1415,463 L 1439,470 L 1495,561 L 1492,593 L 1510,599 L 1593,564 L 1587,533 L 1514,438 L 1522,383 L 1647,383 L 1656,372 L 1651,357 L 1723,357 L 1725,374 L 1744,389 L 1892,396 L 1978,455 L 1966,473 L 1974,491 L 1990,493 L 2006,476 L 2053,508 L 2111,513 L 2123,492 L 2114,377 Z M 1983,467 L 1986,467 L 1987,468 L 1988,468 L 1993,473 L 1993,479 L 1992,480 L 1992,481 L 1990,483 L 1989,483 L 1988,484 L 1987,484 L 1986,485 L 1982,485 L 1981,484 L 1980,484 L 1979,483 L 1978,483 L 1976,481 L 1976,480 L 1975,479 L 1975,474 L 1976,473 L 1976,472 L 1978,470 L 1979,471 L 1978,470 L 1980,468 L 1982,468 Z M 1288,419 L 1289,418 L 1292,418 L 1293,417 L 1294,418 L 1295,417 L 1296,418 L 1299,418 L 1300,417 L 1301,417 L 1302,418 L 1303,418 L 1304,419 L 1303,420 L 1289,420 Z M 1309,425 L 1310,424 L 1310,422 L 1311,421 L 1312,418 L 1314,416 L 1314,415 L 1318,411 L 1319,411 L 1321,409 L 1322,409 L 1325,407 L 1327,407 L 1328,406 L 1375,406 L 1376,407 L 1376,409 L 1381,415 L 1381,416 L 1384,421 L 1384,423 L 1385,424 L 1385,439 L 1384,440 L 1384,442 L 1383,443 L 1381,448 L 1376,453 L 1375,453 L 1373,455 L 1373,457 L 1375,459 L 1378,459 L 1379,458 L 1382,457 L 1384,455 L 1385,455 L 1392,448 L 1392,447 L 1394,445 L 1394,444 L 1395,443 L 1395,441 L 1397,438 L 1397,435 L 1398,434 L 1398,427 L 1399,426 L 1399,420 L 1400,419 L 1401,420 L 1401,421 L 1402,420 L 1403,421 L 1404,421 L 1405,420 L 1405,419 L 1404,419 L 1403,418 L 1402,419 L 1401,418 L 1401,417 L 1402,416 L 1402,414 L 1403,413 L 1406,416 L 1406,417 L 1408,419 L 1408,420 L 1410,423 L 1410,426 L 1411,427 L 1411,441 L 1410,442 L 1410,444 L 1409,445 L 1409,446 L 1408,447 L 1406,452 L 1399,459 L 1398,459 L 1391,463 L 1387,463 L 1386,464 L 1371,464 L 1370,463 L 1352,463 L 1351,464 L 1335,464 L 1334,463 L 1330,463 L 1329,462 L 1327,462 L 1326,461 L 1324,461 L 1323,460 L 1322,460 L 1314,453 L 1314,452 L 1312,450 L 1312,449 L 1309,444 L 1309,440 L 1308,439 L 1308,429 L 1309,428 Z M 417,365 L 418,366 L 418,370 L 417,371 L 417,373 L 418,374 L 418,377 L 419,378 L 422,378 L 423,377 L 424,377 L 424,366 L 425,365 L 426,366 L 426,367 L 427,368 L 427,379 L 425,381 L 424,381 L 423,380 L 421,380 L 423,380 L 424,381 L 423,382 L 420,382 L 419,381 L 418,381 L 415,378 L 415,377 L 414,376 L 414,369 L 415,368 L 415,367 Z M 47,320 L 47,314 L 51,310 L 82,310 L 83,311 L 96,311 L 97,312 L 108,312 L 109,313 L 116,313 L 117,314 L 118,314 L 120,316 L 120,317 L 117,320 L 116,320 L 115,321 L 107,321 L 106,322 L 96,322 L 95,323 L 79,323 L 78,324 L 62,324 L 61,325 L 53,325 L 52,324 L 51,324 L 50,323 L 49,323 L 48,322 L 48,321 Z M 834,302 L 835,301 L 835,300 L 837,298 L 856,298 L 858,300 L 858,301 L 859,302 L 859,305 L 855,309 L 838,309 L 837,308 L 836,308 L 835,307 L 835,306 L 836,305 L 837,306 L 836,305 L 835,306 L 834,305 Z M 766,301 L 769,298 L 815,298 L 817,300 L 817,301 L 818,302 L 818,305 L 814,309 L 769,309 L 766,306 Z M 698,301 L 700,299 L 701,300 L 703,300 L 701,300 L 700,299 L 701,298 L 746,298 L 747,299 L 746,300 L 747,301 L 746,300 L 747,299 L 748,299 L 749,300 L 749,301 L 750,302 L 750,305 L 748,307 L 747,306 L 748,307 L 746,309 L 702,309 L 701,308 L 700,308 L 698,306 Z M 630,301 L 633,298 L 678,298 L 679,299 L 678,300 L 679,299 L 680,299 L 681,300 L 681,302 L 682,303 L 682,304 L 681,305 L 681,306 L 678,309 L 634,309 L 633,308 L 632,308 L 630,306 Z M 562,301 L 565,298 L 610,298 L 611,299 L 610,300 L 611,299 L 612,299 L 613,300 L 613,301 L 614,302 L 614,305 L 610,309 L 566,309 L 565,308 L 564,308 L 562,306 Z M 493,303 L 494,302 L 494,301 L 495,300 L 496,301 L 497,300 L 500,300 L 497,300 L 496,299 L 497,298 L 542,298 L 545,301 L 545,302 L 546,303 L 546,304 L 545,305 L 545,306 L 543,308 L 542,308 L 541,309 L 498,309 L 497,308 L 496,308 L 494,306 L 494,305 L 493,304 Z M 1371,260 L 1372,259 L 1376,259 L 1377,258 L 1399,258 L 1400,259 L 1400,267 L 1399,268 L 1395,268 L 1394,269 L 1393,268 L 1389,268 L 1388,267 L 1388,266 L 1386,266 L 1385,265 L 1377,265 L 1376,264 L 1372,264 L 1371,263 Z M 1309,259 L 1310,258 L 1318,258 L 1319,259 L 1320,258 L 1321,259 L 1321,261 L 1320,262 L 1320,263 L 1319,264 L 1319,266 L 1320,267 L 1319,268 L 1316,268 L 1315,267 L 1315,266 L 1313,264 L 1314,263 L 1315,263 L 1314,262 L 1315,261 L 1314,261 L 1313,262 L 1312,262 L 1313,262 L 1314,263 L 1313,264 L 1311,264 L 1310,263 L 1310,260 Z M 1261,259 L 1262,258 L 1288,258 L 1289,259 L 1289,268 L 1288,269 L 1287,269 L 1286,268 L 1284,268 L 1283,269 L 1278,269 L 1277,270 L 1276,270 L 1275,269 L 1276,268 L 1275,269 L 1274,269 L 1272,267 L 1271,267 L 1270,266 L 1266,266 L 1265,267 L 1263,267 L 1262,268 L 1261,267 Z M 1214,259 L 1215,258 L 1235,258 L 1237,260 L 1237,264 L 1236,265 L 1235,265 L 1235,267 L 1234,268 L 1225,268 L 1224,269 L 1221,269 L 1219,267 L 1215,267 L 1214,266 Z M 1172,259 L 1173,258 L 1194,258 L 1195,259 L 1195,265 L 1194,266 L 1185,266 L 1184,265 L 1183,265 L 1182,264 L 1174,264 L 1173,263 L 1173,260 Z M 1115,263 L 1118,260 L 1118,259 L 1119,258 L 1137,258 L 1138,259 L 1141,259 L 1142,260 L 1142,264 L 1141,265 L 1140,265 L 1139,266 L 1130,266 L 1128,268 L 1119,268 L 1118,267 L 1118,266 Z M 1173,185 L 1174,184 L 1215,184 L 1216,185 L 1216,186 L 1217,186 L 1219,188 L 1286,188 L 1287,187 L 1288,187 L 1291,184 L 1340,184 L 1341,185 L 1341,204 L 1342,205 L 1342,219 L 1341,220 L 1341,234 L 1340,235 L 1339,235 L 1338,238 L 1336,240 L 1179,240 L 1178,239 L 1178,238 L 1175,235 L 1174,235 L 1173,234 L 1173,218 L 1172,217 L 1172,207 L 1173,206 Z" fill="black" fill-rule="evenodd"/>
</svg>