<svg xmlns="http://www.w3.org/2000/svg" width="1448" height="1086" viewBox="0 0 1448 1086">
<rect width="100%" height="100%" fill="white"/>
<path d="M 1396,612 L 1381,554 L 1361,527 L 1259,521 L 1259,503 L 1173,492 L 1163,509 L 1001,482 L 1027,477 L 1031,455 L 1098,452 L 1114,434 L 1110,365 L 1074,351 L 1066,328 L 1063,220 L 1052,349 L 934,337 L 921,311 L 851,310 L 842,301 L 815,320 L 811,339 L 738,351 L 734,336 L 721,335 L 694,385 L 672,370 L 636,399 L 147,405 L 70,394 L 61,408 L 68,436 L 181,425 L 636,439 L 656,460 L 669,454 L 668,473 L 687,482 L 546,486 L 540,473 L 513,473 L 506,489 L 470,504 L 387,571 L 387,529 L 360,522 L 356,561 L 340,569 L 368,585 L 353,597 L 282,607 L 261,623 L 278,635 L 323,623 L 1291,633 L 1318,643 L 294,629 L 256,669 L 262,728 L 358,797 L 405,817 L 1155,816 L 1326,746 L 1345,714 L 1341,672 L 1352,673 L 1383,615 Z M 1147,799 L 1145,801 L 1145,802 L 1144,803 L 1143,802 L 1143,801 L 1142,801 L 1141,802 L 1140,802 L 1138,800 L 1139,799 L 1144,799 L 1145,798 L 1146,798 Z M 714,797 L 714,798 L 711,801 L 704,801 L 703,800 L 704,799 L 705,799 L 706,798 L 708,798 L 709,799 L 710,799 L 709,798 L 710,797 L 712,797 L 713,796 Z M 434,797 L 431,800 L 431,801 L 429,803 L 428,803 L 427,804 L 424,804 L 422,802 L 423,801 L 422,802 L 421,801 L 421,800 L 422,799 L 424,799 L 425,798 L 428,798 L 429,797 L 431,797 L 432,796 L 433,796 Z M 396,797 L 397,796 L 398,796 L 399,797 L 400,797 L 401,798 L 405,798 L 406,799 L 404,801 L 403,801 L 402,802 L 400,802 L 399,801 L 399,799 L 398,799 Z M 673,798 L 674,797 L 675,797 L 674,796 L 675,795 L 676,795 L 677,796 L 679,796 L 680,797 L 681,797 L 682,798 L 681,799 L 677,799 L 681,799 L 682,798 L 683,798 L 684,799 L 682,801 L 675,801 L 673,799 Z M 555,796 L 556,795 L 557,795 L 558,796 L 559,796 L 560,797 L 562,797 L 563,798 L 562,799 L 560,799 L 562,799 L 563,798 L 565,798 L 567,800 L 566,801 L 559,801 L 556,798 L 556,797 Z M 602,793 L 602,794 L 601,795 L 601,796 L 600,797 L 600,799 L 599,800 L 598,800 L 597,799 L 598,798 L 597,799 L 595,799 L 594,798 L 593,799 L 590,799 L 589,800 L 588,799 L 588,798 L 589,797 L 591,797 L 592,796 L 594,796 L 596,794 L 598,794 L 599,795 L 598,794 L 600,792 L 601,792 Z M 1171,782 L 1172,783 L 1172,791 L 1170,793 L 1169,792 L 1170,793 L 1169,794 L 1168,794 L 1167,795 L 1164,795 L 1163,794 L 1164,793 L 1166,793 L 1165,792 L 1164,792 L 1164,793 L 1163,794 L 1161,792 L 1166,787 L 1167,787 L 1167,786 Z M 993,796 L 994,795 L 997,794 L 1002,790 L 1003,790 L 1010,783 L 1010,782 L 1013,779 L 1013,778 L 1017,771 L 1017,769 L 1018,768 L 1018,766 L 1019,765 L 1019,761 L 1020,760 L 1020,757 L 1021,756 L 1023,756 L 1024,755 L 1027,755 L 1028,754 L 1031,754 L 1032,753 L 1035,753 L 1036,754 L 1068,754 L 1069,755 L 1072,755 L 1074,753 L 1078,753 L 1079,754 L 1082,754 L 1083,755 L 1087,755 L 1090,757 L 1090,762 L 1091,763 L 1091,766 L 1092,767 L 1093,772 L 1094,773 L 1096,778 L 1098,780 L 1098,781 L 1103,786 L 1103,787 L 1101,789 L 1103,789 L 1104,788 L 1105,788 L 1112,794 L 1111,795 L 1112,794 L 1113,794 L 1118,797 L 1120,797 L 1122,799 L 1121,800 L 1120,800 L 1119,799 L 1113,799 L 1119,799 L 1120,800 L 1119,801 L 1112,801 L 1109,799 L 1109,797 L 1104,791 L 1098,791 L 1096,793 L 1096,794 L 1094,796 L 1094,797 L 1092,800 L 1091,800 L 1090,801 L 1084,801 L 1081,799 L 1081,797 L 1078,792 L 1078,790 L 1076,788 L 1070,788 L 1068,790 L 1064,799 L 1062,801 L 1055,801 L 1054,800 L 1055,799 L 1061,799 L 1055,799 L 1054,800 L 1053,799 L 1049,790 L 1047,788 L 1041,788 L 1039,790 L 1035,799 L 1033,801 L 1026,801 L 1025,800 L 1026,799 L 1032,799 L 1026,799 L 1025,798 L 1024,799 L 1021,794 L 1021,792 L 1020,791 L 1020,790 L 1018,788 L 1011,788 L 1010,789 L 1010,790 L 1007,795 L 1007,797 L 1005,800 L 1004,799 L 1004,798 L 1003,799 L 997,799 L 996,800 L 995,800 L 994,799 L 994,797 Z M 720,793 L 721,792 L 722,792 L 732,782 L 732,781 L 734,779 L 734,778 L 739,769 L 739,767 L 740,766 L 740,762 L 741,761 L 741,757 L 742,756 L 743,756 L 744,755 L 748,755 L 749,754 L 753,754 L 754,753 L 757,753 L 758,754 L 762,754 L 763,755 L 764,754 L 789,754 L 790,755 L 794,755 L 796,753 L 799,753 L 800,754 L 803,754 L 804,755 L 808,755 L 811,757 L 811,762 L 812,763 L 812,767 L 813,768 L 813,770 L 814,771 L 814,772 L 815,773 L 817,778 L 819,780 L 819,781 L 829,791 L 830,791 L 832,793 L 832,794 L 830,797 L 830,799 L 828,801 L 821,801 L 820,800 L 821,799 L 827,799 L 828,798 L 827,799 L 821,799 L 820,800 L 819,800 L 818,799 L 818,797 L 813,788 L 806,788 L 805,789 L 805,790 L 804,791 L 802,796 L 801,797 L 800,796 L 801,797 L 801,799 L 800,800 L 799,800 L 798,799 L 799,798 L 798,799 L 794,799 L 798,799 L 799,800 L 798,801 L 791,801 L 789,799 L 789,798 L 786,793 L 786,791 L 784,788 L 777,788 L 775,790 L 775,792 L 773,794 L 773,796 L 772,797 L 772,798 L 771,799 L 770,798 L 769,799 L 767,799 L 769,799 L 770,800 L 769,801 L 762,801 L 761,800 L 762,799 L 764,799 L 762,799 L 761,800 L 760,800 L 759,799 L 760,798 L 758,796 L 758,794 L 757,793 L 756,790 L 754,788 L 748,788 L 746,790 L 746,791 L 745,792 L 745,793 L 744,794 L 742,799 L 740,801 L 732,801 L 726,794 L 721,794 Z M 439,793 L 440,792 L 441,792 L 452,781 L 452,780 L 456,775 L 456,774 L 457,773 L 457,771 L 458,770 L 458,768 L 459,767 L 459,764 L 460,763 L 460,759 L 461,758 L 461,757 L 464,755 L 467,755 L 468,754 L 472,754 L 473,753 L 476,753 L 479,755 L 482,755 L 483,754 L 508,754 L 509,755 L 513,755 L 515,753 L 518,753 L 519,754 L 522,754 L 523,755 L 527,755 L 528,756 L 530,756 L 531,757 L 530,758 L 531,759 L 531,764 L 532,765 L 532,768 L 533,769 L 533,771 L 534,772 L 534,773 L 535,774 L 536,777 L 538,779 L 538,780 L 541,783 L 541,784 L 546,789 L 543,792 L 543,793 L 541,795 L 541,796 L 540,797 L 540,799 L 539,800 L 538,800 L 537,799 L 535,799 L 537,799 L 538,800 L 537,801 L 530,801 L 529,800 L 530,799 L 529,800 L 528,799 L 528,798 L 527,797 L 527,795 L 526,794 L 525,791 L 522,788 L 518,788 L 517,789 L 516,789 L 516,790 L 515,791 L 515,792 L 512,797 L 512,799 L 511,800 L 510,800 L 509,799 L 505,799 L 509,799 L 510,800 L 509,801 L 503,801 L 500,798 L 500,797 L 499,796 L 499,794 L 498,793 L 497,790 L 496,790 L 495,789 L 490,789 L 488,791 L 488,792 L 487,793 L 487,794 L 486,795 L 485,798 L 482,801 L 475,801 L 473,799 L 473,798 L 472,797 L 471,794 L 468,791 L 463,791 L 459,796 L 458,799 L 457,800 L 456,799 L 457,800 L 455,802 L 449,802 L 446,799 L 445,796 L 443,794 L 440,794 Z M 1279,720 L 1286,720 L 1288,722 L 1288,723 L 1289,724 L 1289,725 L 1290,726 L 1290,728 L 1291,729 L 1291,731 L 1290,732 L 1291,731 L 1292,732 L 1292,733 L 1291,734 L 1291,736 L 1290,737 L 1288,737 L 1290,737 L 1291,736 L 1292,737 L 1292,738 L 1291,739 L 1284,739 L 1283,740 L 1282,740 L 1281,739 L 1275,739 L 1274,738 L 1272,738 L 1271,737 L 1272,736 L 1272,734 L 1273,733 L 1273,732 L 1274,731 L 1274,730 L 1275,729 L 1275,727 L 1276,726 L 1276,725 L 1277,724 L 1277,722 Z M 1300,711 L 1302,711 L 1303,712 L 1305,712 L 1306,713 L 1307,713 L 1308,714 L 1309,714 L 1310,715 L 1311,715 L 1312,716 L 1314,716 L 1315,717 L 1314,718 L 1312,718 L 1308,722 L 1308,723 L 1309,724 L 1309,725 L 1310,726 L 1310,727 L 1311,728 L 1307,732 L 1306,732 L 1305,733 L 1304,733 L 1303,734 L 1302,734 L 1299,731 L 1299,730 L 1298,729 L 1298,728 L 1297,727 L 1297,725 L 1296,724 L 1296,721 L 1295,720 L 1295,718 L 1294,717 Z M 1266,711 L 1267,712 L 1267,713 L 1271,717 L 1271,719 L 1270,720 L 1270,722 L 1269,723 L 1269,725 L 1268,726 L 1268,727 L 1267,728 L 1267,730 L 1266,731 L 1266,732 L 1265,733 L 1265,734 L 1264,735 L 1263,734 L 1262,734 L 1261,733 L 1260,733 L 1257,730 L 1256,730 L 1251,725 L 1251,724 L 1248,721 L 1248,720 L 1247,719 L 1248,718 L 1249,718 L 1250,717 L 1251,717 L 1252,716 L 1253,716 L 1254,715 L 1255,715 L 1256,714 L 1257,714 L 1258,713 L 1260,713 L 1261,712 L 1262,712 L 1263,711 Z M 1322,689 L 1322,691 L 1323,692 L 1323,699 L 1322,700 L 1320,700 L 1319,701 L 1318,701 L 1317,702 L 1317,708 L 1318,709 L 1317,710 L 1316,710 L 1315,709 L 1314,709 L 1313,708 L 1312,708 L 1311,707 L 1310,707 L 1309,706 L 1308,706 L 1307,705 L 1306,705 L 1305,704 L 1304,704 L 1303,703 L 1304,702 L 1304,697 L 1303,696 L 1305,694 L 1306,694 L 1307,693 L 1308,693 L 1309,692 L 1310,692 L 1311,691 L 1312,691 L 1313,690 L 1316,690 L 1317,689 L 1320,689 L 1321,688 Z M 1244,688 L 1245,687 L 1246,687 L 1247,688 L 1248,688 L 1249,689 L 1250,689 L 1251,690 L 1253,690 L 1254,691 L 1255,691 L 1256,692 L 1257,692 L 1259,694 L 1261,694 L 1263,696 L 1262,697 L 1262,703 L 1261,704 L 1260,704 L 1259,705 L 1258,705 L 1257,706 L 1256,706 L 1255,707 L 1254,707 L 1253,708 L 1252,708 L 1251,709 L 1250,709 L 1249,710 L 1248,710 L 1247,711 L 1245,711 L 1243,709 L 1243,706 L 1242,705 L 1242,693 L 1243,692 L 1243,690 L 1244,689 Z M 1262,665 L 1266,665 L 1267,666 L 1267,668 L 1268,669 L 1268,671 L 1269,672 L 1269,674 L 1270,675 L 1270,677 L 1271,678 L 1271,681 L 1272,682 L 1271,683 L 1270,683 L 1265,688 L 1264,687 L 1262,687 L 1261,686 L 1260,686 L 1259,685 L 1257,685 L 1256,684 L 1255,684 L 1254,683 L 1253,683 L 1252,682 L 1251,682 L 1250,681 L 1248,681 L 1247,680 L 1249,678 L 1249,677 L 1252,674 L 1252,673 L 1256,669 L 1257,669 L 1260,666 L 1261,666 Z M 1301,663 L 1302,664 L 1303,664 L 1304,665 L 1305,665 L 1306,666 L 1305,667 L 1305,670 L 1304,671 L 1304,672 L 1307,675 L 1310,675 L 1311,674 L 1312,674 L 1313,673 L 1314,673 L 1315,674 L 1314,675 L 1315,674 L 1316,675 L 1316,676 L 1315,677 L 1315,678 L 1315,677 L 1316,676 L 1317,677 L 1317,679 L 1316,680 L 1315,680 L 1311,684 L 1309,684 L 1308,685 L 1307,685 L 1306,686 L 1304,686 L 1303,687 L 1302,687 L 1301,688 L 1298,685 L 1297,685 L 1294,682 L 1295,681 L 1295,679 L 1296,678 L 1296,675 L 1297,674 L 1297,671 L 1298,670 L 1298,669 L 1299,668 L 1299,666 L 1300,665 L 1300,664 Z M 1273,660 L 1284,660 L 1285,661 L 1285,664 L 1287,666 L 1291,666 L 1292,667 L 1291,668 L 1291,670 L 1290,671 L 1290,672 L 1289,673 L 1289,675 L 1288,676 L 1288,677 L 1286,679 L 1279,679 L 1278,678 L 1278,677 L 1277,676 L 1277,674 L 1276,673 L 1276,671 L 1275,670 L 1275,669 L 1274,668 L 1274,666 L 1273,665 L 1273,664 L 1272,663 L 1272,661 Z M 1005,657 L 1006,658 L 1006,659 L 1007,660 L 1007,661 L 1009,663 L 1009,664 L 1008,665 L 1008,668 L 1007,669 L 1006,668 L 1005,668 L 1004,667 L 1003,667 L 1001,665 L 1001,664 L 1000,663 L 1004,659 L 1004,658 Z M 543,656 L 544,657 L 544,658 L 546,660 L 546,662 L 545,663 L 541,663 L 540,662 L 540,661 L 541,660 L 541,659 L 542,658 L 542,657 Z M 839,661 L 840,660 L 841,661 L 844,661 L 843,661 L 842,660 L 841,661 L 840,660 L 840,659 L 841,658 L 841,657 L 843,655 L 844,656 L 844,657 L 845,657 L 843,655 L 844,654 L 845,654 L 846,655 L 854,655 L 855,656 L 855,662 L 854,663 L 840,663 L 839,662 Z M 1086,719 L 1094,697 L 1096,697 L 1102,693 L 1126,681 L 1128,682 L 1127,681 L 1138,675 L 1141,672 L 1147,662 L 1153,656 L 1157,663 L 1164,663 L 1167,657 L 1167,655 L 1169,653 L 1176,653 L 1177,654 L 1176,655 L 1177,654 L 1179,656 L 1182,663 L 1188,664 L 1190,663 L 1191,659 L 1195,653 L 1203,653 L 1208,663 L 1210,664 L 1215,664 L 1217,662 L 1217,660 L 1220,655 L 1221,657 L 1222,655 L 1228,655 L 1222,655 L 1221,654 L 1222,653 L 1229,653 L 1234,662 L 1239,665 L 1233,673 L 1230,679 L 1227,689 L 1227,694 L 1226,695 L 1226,704 L 1227,705 L 1227,710 L 1229,714 L 1230,720 L 1238,734 L 1251,746 L 1250,747 L 1252,746 L 1265,753 L 1263,754 L 1263,755 L 1265,756 L 1264,757 L 1259,757 L 1254,752 L 1255,750 L 1256,751 L 1255,750 L 1254,751 L 1252,749 L 1249,749 L 1245,752 L 1245,761 L 1240,766 L 1235,767 L 1226,758 L 1224,758 L 1219,761 L 1218,773 L 1215,776 L 1212,777 L 1204,769 L 1199,768 L 1195,771 L 1195,781 L 1192,785 L 1188,786 L 1179,778 L 1176,778 L 1175,779 L 1174,778 L 1178,770 L 1180,763 L 1180,757 L 1181,756 L 1180,744 L 1178,737 L 1174,729 L 1171,725 L 1160,715 L 1150,710 L 1147,710 L 1142,708 L 1128,708 L 1127,709 L 1120,710 L 1112,714 L 1105,719 L 1100,725 L 1087,721 Z M 1117,660 L 1118,659 L 1118,657 L 1120,655 L 1120,654 L 1121,653 L 1125,653 L 1126,654 L 1126,655 L 1128,657 L 1128,658 L 1129,659 L 1129,660 L 1131,662 L 1130,663 L 1119,663 L 1118,662 L 1118,661 Z M 823,652 L 824,652 L 825,653 L 825,660 L 826,661 L 826,662 L 825,663 L 821,663 L 820,662 L 822,660 L 822,659 L 823,658 L 823,654 L 822,653 Z M 1326,651 L 1327,651 L 1329,653 L 1330,653 L 1331,652 L 1335,656 L 1335,657 L 1334,658 L 1332,656 L 1332,657 L 1333,657 L 1334,658 L 1335,657 L 1339,661 L 1339,662 L 1338,663 L 1339,662 L 1341,664 L 1341,666 L 1343,668 L 1343,669 L 1342,670 L 1342,671 L 1341,672 L 1340,671 L 1340,670 L 1339,669 L 1339,668 L 1338,667 L 1336,667 L 1335,668 L 1334,668 L 1333,667 L 1333,666 L 1331,664 L 1330,664 L 1329,663 L 1329,662 L 1328,661 L 1330,659 L 1330,657 L 1325,652 Z M 815,698 L 861,674 L 866,666 L 867,667 L 866,665 L 869,662 L 870,663 L 869,662 L 871,660 L 872,661 L 873,660 L 872,659 L 877,651 L 881,651 L 886,656 L 886,658 L 889,660 L 895,659 L 900,652 L 909,652 L 915,660 L 922,659 L 926,652 L 935,652 L 938,654 L 942,660 L 949,659 L 954,652 L 963,652 L 969,660 L 975,660 L 980,654 L 985,655 L 982,653 L 986,652 L 987,658 L 993,668 L 1001,675 L 1004,676 L 1002,677 L 1004,676 L 1007,677 L 1008,679 L 1008,695 L 1020,705 L 1024,720 L 1014,724 L 1012,724 L 1011,723 L 1012,722 L 1011,723 L 1012,724 L 1010,725 L 1003,718 L 1004,717 L 1003,718 L 994,712 L 981,708 L 962,709 L 949,715 L 940,723 L 935,730 L 929,747 L 929,760 L 932,771 L 937,779 L 936,781 L 937,780 L 950,793 L 948,799 L 945,801 L 938,801 L 931,788 L 924,788 L 918,799 L 917,798 L 908,800 L 901,788 L 895,788 L 893,790 L 890,798 L 887,801 L 880,801 L 877,799 L 876,795 L 884,790 L 894,779 L 897,774 L 901,762 L 901,745 L 895,729 L 880,714 L 864,708 L 850,708 L 839,711 L 830,716 L 821,725 L 810,722 L 807,720 Z M 526,720 L 535,697 L 579,675 L 587,662 L 592,660 L 593,656 L 597,651 L 604,651 L 609,660 L 616,660 L 619,654 L 622,651 L 630,651 L 634,657 L 638,660 L 643,659 L 649,651 L 656,651 L 663,659 L 669,659 L 676,651 L 683,651 L 688,656 L 689,659 L 691,660 L 697,659 L 703,651 L 712,652 L 716,658 L 719,660 L 723,660 L 726,656 L 727,659 L 731,663 L 729,665 L 729,695 L 742,705 L 745,717 L 742,719 L 744,719 L 745,717 L 746,718 L 745,721 L 742,721 L 735,724 L 733,724 L 732,722 L 730,724 L 722,716 L 713,711 L 702,708 L 688,708 L 678,711 L 665,719 L 657,728 L 652,738 L 650,746 L 650,762 L 653,772 L 659,782 L 665,788 L 660,791 L 657,798 L 654,801 L 648,801 L 647,800 L 652,799 L 646,800 L 642,790 L 640,788 L 634,788 L 632,790 L 629,798 L 626,801 L 619,801 L 617,799 L 613,789 L 607,787 L 614,779 L 618,772 L 621,762 L 621,745 L 618,735 L 614,728 L 606,719 L 599,714 L 583,708 L 568,708 L 554,713 L 548,717 L 541,725 L 538,725 L 537,724 L 538,723 L 535,724 Z M 577,660 L 575,662 L 574,661 L 571,661 L 574,661 L 575,662 L 574,663 L 560,663 L 556,659 L 556,658 L 555,657 L 555,656 L 557,654 L 558,655 L 558,656 L 559,657 L 559,658 L 561,660 L 564,660 L 565,659 L 566,659 L 567,658 L 567,657 L 568,656 L 568,655 L 569,654 L 569,653 L 571,651 L 573,653 L 574,653 L 575,654 L 575,655 L 576,656 L 576,657 L 577,658 Z M 440,652 L 449,663 L 448,665 L 448,695 L 461,706 L 465,720 L 464,721 L 455,724 L 453,724 L 450,722 L 449,723 L 438,714 L 432,711 L 421,708 L 407,708 L 397,711 L 387,717 L 379,725 L 375,731 L 370,744 L 370,762 L 372,770 L 376,777 L 374,780 L 376,781 L 377,779 L 383,787 L 379,790 L 372,786 L 371,783 L 372,782 L 372,776 L 371,773 L 368,770 L 366,770 L 356,776 L 352,774 L 348,770 L 349,757 L 345,754 L 343,754 L 334,760 L 330,760 L 325,756 L 324,749 L 318,746 L 319,744 L 322,745 L 320,745 L 319,744 L 320,743 L 323,743 L 331,753 L 334,753 L 337,750 L 336,749 L 337,740 L 339,738 L 341,740 L 342,739 L 340,738 L 343,737 L 352,743 L 356,740 L 353,727 L 357,723 L 370,725 L 372,722 L 364,709 L 366,705 L 378,702 L 380,697 L 370,691 L 368,689 L 367,685 L 378,675 L 377,671 L 375,670 L 367,670 L 363,669 L 361,667 L 367,657 L 367,653 L 368,652 L 369,656 L 369,652 L 370,651 L 372,653 L 375,660 L 382,660 L 387,651 L 390,653 L 388,651 L 389,650 L 395,650 L 399,653 L 401,659 L 404,661 L 410,660 L 413,653 L 415,651 L 422,650 L 425,652 L 427,655 L 426,658 L 427,657 L 429,660 L 434,661 L 437,659 Z M 363,572 L 364,571 L 369,571 L 370,572 L 370,577 L 369,578 L 368,578 L 367,577 L 367,576 L 366,576 L 364,574 L 365,573 L 364,574 L 363,573 Z M 361,561 L 362,560 L 361,559 L 362,558 L 369,558 L 370,559 L 369,560 L 369,561 L 368,562 L 362,562 Z M 105,405 L 114,405 L 117,408 L 117,422 L 114,425 L 105,425 L 104,424 L 105,423 L 107,423 L 106,423 L 105,422 L 105,423 L 104,424 L 103,423 L 103,407 Z M 77,405 L 91,405 L 92,406 L 92,424 L 91,425 L 76,425 L 75,424 L 75,407 L 76,406 L 77,407 L 77,409 L 77,407 L 76,406 Z M 689,390 L 691,392 L 691,396 L 690,397 L 690,399 L 689,400 L 689,402 L 688,403 L 688,405 L 687,406 L 687,408 L 686,409 L 686,411 L 685,412 L 685,414 L 684,415 L 684,418 L 683,419 L 683,421 L 682,422 L 682,424 L 681,425 L 681,427 L 680,428 L 680,429 L 679,430 L 679,433 L 678,434 L 678,436 L 677,437 L 677,439 L 676,440 L 676,442 L 675,443 L 675,445 L 674,446 L 674,448 L 673,449 L 673,451 L 671,453 L 670,453 L 669,452 L 669,450 L 670,449 L 670,447 L 671,446 L 671,444 L 672,443 L 672,441 L 673,440 L 673,438 L 674,437 L 674,435 L 675,434 L 675,432 L 676,431 L 676,428 L 677,427 L 677,425 L 678,424 L 678,422 L 679,421 L 679,419 L 680,418 L 680,416 L 681,415 L 681,413 L 682,412 L 682,409 L 683,408 L 683,406 L 684,405 L 684,403 L 685,402 L 685,400 L 686,399 L 686,397 L 687,396 L 687,395 L 688,394 L 688,391 Z" fill="black" fill-rule="evenodd"/>
</svg>