<?xml version="1.0" encoding="UTF-8" standalone="no"?>
<svg
   width="550"
   height="250"
   viewBox="0 0 550 250"
   version="1.1"
   id="svg4"
   sodipodi:docname="flammenwerfer41_black.svg"
   inkscape:version="1.4.2 (f4327f4, 2025-05-13)"
   xmlns:inkscape="http://www.inkscape.org/namespaces/inkscape"
   xmlns:sodipodi="http://sodipodi.sourceforge.net/DTD/sodipodi-0.dtd"
   xmlns="http://www.w3.org/2000/svg"
   xmlns:svg="http://www.w3.org/2000/svg">
  <defs
     id="defs4" />
  <sodipodi:namedview
     id="namedview4"
     pagecolor="#ffffff"
     bordercolor="#000000"
     borderopacity="0.25"
     inkscape:showpageshadow="2"
     inkscape:pageopacity="0.0"
     inkscape:pagecheckerboard="0"
     inkscape:deskcolor="#d1d1d1"
     inkscape:zoom="0.93700159"
     inkscape:cx="626.46638"
     inkscape:cy="627"
     inkscape:window-width="2560"
     inkscape:window-height="1377"
     inkscape:window-x="-8"
     inkscape:window-y="-8"
     inkscape:window-maximized="1"
     inkscape:current-layer="svg4" />
  <path
     d="m 154.60081,113.40417 v 12.42045 -0.44359 l 0.44359,-0.44359 v -10.64609 l -0.44359,-0.44359 z"
     fill="#000000"
     fill-rule="evenodd"
     id="path1"
     style="stroke-width:0.443587" />
  <path
     d="m 479.30657,99.652976 v 0.443584 h 16.85632 -5.76664 l -0.44358,-0.443584 z"
     fill="#000000"
     fill-rule="evenodd"
     id="path2"
     style="stroke-width:0.443587" />
  <path
     d="m 31.727174,54.407091 v 0.44358 l -0.443587,0.443589 v 2.217936 L 30.84,57.955785 v 3.992282 l 0.443587,0.443589 v 4.879461 L 30.84,67.714697 v 4.879461 l 0.443587,0.443589 v 1.774346 L 30.84,75.255682 v 1.330758 h 0.443587 V 55.29426 l 0.443587,-0.443589 z"
     fill="#000000"
     fill-rule="evenodd"
     id="path3"
     style="stroke-width:0.443587" />
  <path
     d="M 32.170761,52.632735 V 204.33953 l 6.21022,13.7512 12.420441,11.97685 31.494679,10.64609 56.335569,0.88718 22.17936,-2.66152 25.72805,-9.75892 17.74349,-14.19479 17.74348,-28.83316 5.76663,3.10511 4.43587,-2.66153 -3.10511,-7.09738 8.42815,-27.05882 9.31534,4.87946 16.8563,-1.33076 4.43588,-4.87946 1.33076,-18.63067 h 55.44839 l -55.00481,1.33077 55.89199,-0.44359 4.43586,8.42816 6.21023,-0.44359 5.32304,-7.98457 24.84088,0.88718 -24.84088,-1.77436 h 25.28446 l 3.10511,4.43588 -5.76663,0.88717 v 48.79458 l 11.08968,3.54871 4.43587,-3.99229 -2.66152,-53.67405 29.27675,0.44359 -28.38958,3.10512 39.92284,-1.77435 33.26903,16.85631 25.72806,5.32304 5.76663,-18.63066 40.81002,-0.44358 4.43587,-7.09739 0.44359,-18.63067 -4.87946,-10.2025 -58.10991,-0.88718 v 37.70491 l 7.98456,0.44359 -0.44359,11.53326 0.88718,-3.54869 -2.21794,3.1051 -47.46382,-17.74348 1.77435,-4.43587 37.70491,10.64609 v -37.70491 l -37.70491,11.08968 -11.53327,-7.98456 -7.54097,4.43587 H 337.3587 l -2.21794,-4.43587 -15.96913,4.43587 10.2025,-16.856311 -2.21794,-7.09739 -13.7512,20.848591 -58.99708,-0.44359 -3.10511,-7.540981 3.54869,-6.21022 -13.75119,-1.77434 0.88716,11.089671 -6.6538,3.5487 -4.87945,-2.66153 -3.9923,9.75892 -39.03565,-3.5487 -9.31534,7.54099 -10.2025,-2.21794 -0.88717,-78.958509 -0.44359,79.402099 -0.88717,-84.281551 -6.21023,-8.428163 -20.84859,-3.105105 -4.87946,-5.32305 h -10.64609 l -3.10511,5.32305 -20.848599,0.443589 -8.87174,-2.661525 1.77435,-5.32305 -8.87174,-0.443579 0.44359,9.315323 -4.43587,3.548703 4.87945,2.661516 -4.43587,8.871743 -10.646092,7.097396 -2.661516,9.315333 -10.20251,-6.653808 H 44.147613 Z M 120.00101,194.58062 v -1.33077 l 0.44359,-0.44358 h 1.33076 l 0.44359,0.44358 h 0.88717 l 0.44359,0.44359 -0.44359,0.44359 v 0.44359 l -0.44358,0.44359 h -2.21794 z m 123.31722,-53.67404 0.44358,-0.44359 h 0.44359 l 0.44359,0.44359 v 4.87945 l 0.44359,0.44359 v 1.33077 l 0.44359,0.44358 v 0.44358 l 0.88717,0.88718 v 0.44358 l 0.88717,0.88718 h 0.44359 l 0.88717,0.88718 h 0.88718 l 0.44359,0.44358 0.88717,-0.88717 0.44359,0.44359 0.44359,-0.44359 v -0.44359 l -0.88718,-0.88718 v -0.44358 l -0.88717,-0.88718 v -0.44358 l -0.44359,-0.44358 v -0.88718 0.88718 l -0.44359,0.44358 -0.44359,-0.44358 v -0.88718 l -0.44359,-0.44359 v -2.66153 l 0.44359,-0.44358 0.44359,0.44358 v 0.44359 -0.44359 l 0.44359,-0.44358 v -0.44358 l 0.44359,-0.44359 v -0.44359 l -0.44359,0.44359 -0.44359,-0.44359 v -0.44359 l 0.44359,-0.44358 v -0.44359 l 0.44359,-0.44359 0.44358,0.44359 0.44359,-0.44359 -0.44359,-0.44359 1.33077,-1.33076 h 0.44359 l 0.44358,-0.44359 v -0.44358 l 0.44358,-0.44359 0.44359,0.44359 v 0.44358 h 0.88718 -0.44359 l -0.44359,-0.44358 0.44359,-0.44359 H 265.054 l 0.44358,0.44359 v 3.10511 l -0.44358,0.44359 v 2.66151 l -0.44359,0.44359 v 3.99229 l -0.44359,0.44358 v 1.33076 l -0.44359,0.44359 v 0.44359 l -0.44358,0.44359 v 0.44359 l -1.33076,1.33076 h -0.44359 l -0.44359,-0.44359 0.44359,0.44359 -0.44359,0.44359 h -0.44358 l -0.44359,0.44358 h -12.86403 l -0.44358,-0.44358 0.44358,-0.44359 h 3.10511 -2.21794 l -0.44358,-0.44359 v -0.44359 l -0.44359,-0.44358 h -0.88717 v 0.44358 l -0.88717,0.88718 -2.21794,-2.21794 v -0.44359 l -0.44359,-0.44359 v -0.44358 l -0.44359,-0.44359 v -1.33075 l 0.44359,-0.44359 0.44359,0.44359 v 0.88716 -1.77434 l 0.44358,-0.44359 v -4.87946 z m -0.44359,-3.99229 0.44359,0.44359 v 2.21793 l 0.44358,0.44359 v 0.44359 l -0.44358,0.44359 h -0.44359 v 5.76663 l -0.44359,0.44359 -0.44359,-0.44359 v -6.65381 l 0.44359,-0.44359 v -2.21793 z m 89.6046,-1.33076 h 0.88717 l 0.88718,0.88718 v 1.33075 l -0.88718,0.88718 h -1.33075 l -0.44359,-0.44359 v -1.77434 l 0.44359,-0.44359 0.44358,0.44359 v 1.33075 l 0.44358,-0.44358 h 0.44359 v -0.44359 l -0.44359,-0.44358 h -0.44358 l -0.44358,-0.44359 z m 157.91701,-4.87946 0.44359,-0.44358 v -0.44359 l 0.44359,-0.44359 0.44359,0.44359 h 0.44359 -0.44359 l -0.44359,-0.44359 0.44359,-0.44359 h 0.44359 l 0.44358,-0.44359 h 19.51783 l 0.44359,0.44359 h 0.44359 l 0.44359,0.44359 -0.88718,0.88718 v 1.33076 h 0.44359 l 0.44359,0.44358 -0.44359,0.44358 h -0.44359 l -0.44359,0.44359 h -19.96141 l -0.44359,-0.44359 h -0.44359 l -0.44359,-0.44358 v -0.44358 l -0.44359,-0.44359 z m -380.59775,-3.99228 0.44359,0.44358 -0.44359,0.44359 v 54.56122 l 0.44359,0.44358 v 1.33077 l -0.44359,0.44358 -0.44358,-0.44358 v -0.88718 0.88718 l 0.44358,0.44358 0.88718,2.21793 0.88718,0.88718 v 0.44359 l 2.66151,2.66153 h 0.44359 l 0.44359,-0.44359 1.33076,0.88717 -0.44358,0.44358 h -1.33077 l -1.33075,0.88718 v 2.21794 l -0.44359,0.44359 -0.44359,-0.44359 -0.44359,0.44359 h -0.44358 l -0.44359,-0.44359 h -9.75892 l -0.44358,0.44359 h -0.88718 l -0.443589,-0.44359 -0.44359,0.44359 h -0.88717 l -0.44359,-0.44359 0.44359,-0.44359 -0.44359,-0.44359 v -3.54869 l 0.44359,-0.44359 v -0.44359 l -0.88717,-1.33076 h -0.44359 l -0.44359,-0.44359 h -1.77435 l -0.44358,-0.44359 0.44358,-0.44359 h 1.77435 l 0.44359,-0.44358 h 0.88717 -0.88717 l -0.44359,0.44358 h -2.21793 l -0.44359,-0.44358 0.44359,-0.44359 h 1.77434 l 0.44359,-0.44358 h 1.33076 l 0.44359,-0.44359 h 1.33076 l 3.105119,-1.77435 h 0.44358 l 0.44358,0.44359 -0.44358,-0.44359 4.43587,-4.43587 v -0.44359 l 0.44359,-0.44358 v -50.12535 h -0.44359 l -0.44358,-0.44359 0.44358,-0.44358 z m 109.56603,9.75892 0.44359,3.54869 -1.77436,1.33076 0.88718,1.33077 -12.86403,34.59979 v 4.43587 l 1.77435,0.44359 -3.10511,3.54869 -0.44358,-1.33076 v 3.5487 h -1.33077 v 3.54869 l 1.77435,0.88718 -1.77435,8.42816 -13.30761,15.52555 -16.85632,9.31532 -14.63837,4.43587 -2.21793,-0.88717 v 1.33076 l -10.64609,1.77435 -4.87946,-0.88717 1.33076,0.88717 -36.81773,1.77434 -17.299899,-1.33075 1.77435,-0.88717 -5.76663,0.44358 -14.194793,-3.10511 -11.976848,-5.32305 -10.646094,-9.31532 -5.766632,-10.20251 -2.661523,-12.42044 0.443587,-26.17164 11.976854,-0.44359 v 16.41273 l 4.435872,2.66152 h 10.64609 l 0.443589,-1.33076 0.44358,1.33076 -2.661516,-3.10511 0.887169,-54.56121 1.774347,0.44358 v 50.12535 l 5.32305,6.21022 -2.217936,1.33076 10.202504,1.33076 -3.10511,2.21794 -1.774354,-2.66153 h -5.766629 l -2.217936,3.99229 0.443589,7.54098 1.774347,1.77435 6.210218,0.44358 -2.217936,0.44359 3.992281,-2.66152 1.33077,1.77435 4.43587,0.44358 3.1051,5.76664 3.10512,-0.88718 1.77434,-4.87946 4.87946,-1.33076 -1.33076,0.88718 4.87946,4.43587 -1.33076,-1.33077 h 2.217939 l 0.44359,7.98458 -2.217939,3.1051 0.88717,4.87946 8.428159,0.44359 2.21793,-2.21793 v -3.10512 l -2.66152,-1.33075 1.77435,-10.20251 h 3.10511 l 1.33076,2.66152 3.5487,0.88718 2.66152,-0.88718 0.44359,-3.1051 3.5487,1.77434 h 13.30761 l 1.33076,-1.77434 11.08968,0.88716 v -1.33075 l 6.6538,-1.77435 3.99229,-4.43587 4.43587,-13.30762 v -5.32305 l 1.33076,0.44359 0.44359,-47.90741 0.44359,43.47154 v -43.02795 l 3.99228,-0.44359 -2.66153,-0.88717 h 6.65381 l 3.10511,-1.77434 2.21794,3.99228 h 4.87946 l -0.88718,0.88717 2.21794,1.77434 h 6.21022 l 1.33075,-3.1051 h 2.66153 l 6.21022,3.1051 h 13.30761 l -6.6538,0.88718 7.09739,-0.44359 1.77435,4.43588 z m 271.47531,-18.18708 0.44359,-0.44359 0.44359,0.44359 h 0.88717 v -0.44359 l 0.88717,-0.88717 h 0.44359 l 0.44359,-0.44359 h 10.2025 l 0.44359,0.44359 v 0.44358 h 3.5487 l 0.88717,-0.88717 h 2.21794 l 0.44358,0.44359 h 0.88718 l 0.88717,0.88717 v 0.44359 l 0.44358,0.44359 v 1.33076 l -0.88716,0.88718 -0.44359,-0.44359 v -0.44359 l -0.44359,0.44359 h 0.44359 l 0.44359,0.44359 -0.44359,0.44358 h -0.44359 l -0.44359,0.44358 h -19.51783 l -0.44358,-0.44358 h -0.44359 l -0.88718,-0.88717 z m -0.44359,-10.64609 0.88718,-0.88718 0.44359,0.44359 0.44359,-0.44359 h 0.88716 -0.88716 l -0.44359,-0.44358 0.44359,-0.44359 h 19.96141 l 0.44359,0.44359 -0.44359,0.44358 h -1.77435 1.33077 l 0.88717,0.88718 v 0.88718 l -0.44359,0.44358 h -0.44358 0.88717 l 0.44359,0.44359 -0.44359,0.44359 h -20.405 l -0.44359,-0.44359 h -0.44359 l -0.44359,-0.44359 v -0.44358 l -0.44359,-0.44359 z m -330.91599,-9.315331 0.44359,0.44359 v 72.748281 l -0.44359,0.44359 v 1.33077 l -0.44358,0.44358 v 1.33076 l -0.44359,0.44359 v 1.33076 l -0.44359,0.44359 v 1.33076 l -0.44359,0.44359 v 1.33075 l -0.44358,0.44359 -1.77435,8.42816 -0.88717,1.33077 -0.44359,-0.88718 -0.44359,0.44359 v 0.44359 l 0.44359,-0.44359 0.44359,0.44359 -0.44359,1.33075 -1.33076,1.33076 -0.88718,-0.44358 0.88718,-0.88718 -1.33077,1.33076 h -0.88716 l -0.44359,0.44359 0.88717,0.44359 -1.77435,0.88718 h -10.64609 l -0.44359,-0.44359 v -1.33077 l 0.44359,-0.44358 h 2.21793 l 0.44359,0.44358 -0.44359,0.44359 h -1.77434 v 0.44359 h 3.1051 l -0.44358,-0.44359 2.21794,-1.33076 h 0.88717 -0.88717 l -0.44359,-0.44359 2.21793,-1.33075 0.88717,0.44358 -0.44358,0.44358 0.44358,-0.44358 -0.44358,-0.44358 1.77435,-1.33077 0.44359,0.44359 3.1051,-3.5487 -0.44358,-0.88717 0.44358,-2.21794 0.44359,-0.44359 v -55.0048 l -0.44359,-0.44359 2.21794,-0.88717 v -13.30761 l -1.77435,-0.88718 V 98.765799 l 0.44359,-0.44359 0.44359,0.44359 v 12.864021 h 0.44358 l -0.44358,-0.44359 v -10.2025 l 0.44358,-0.88717 0.88718,-0.443584 h -0.88718 l -0.44358,-0.44359 0.44358,-0.443587 h 5.76664 z m 82.95079,-0.88717 0.44359,0.44359 v 3.105101 l -0.44359,0.44359 -0.44359,-0.44359 V 97.878629 Z M 38.824568,90.337649 h 11.976854 l 0.443589,0.44358 v 61.215021 l -0.443589,0.44359 H 38.380981 l -0.443587,-0.44359 0.443587,-0.44358 V 90.781229 Z m 27.502405,-36.374147 0.44358,0.443589 v 39.479248 l -0.44358,0.44359 v 17.743481 l -0.443589,0.44359 h -0.887178 l -0.887169,0.88717 v 12.86403 l -0.443589,0.44359 -0.443589,-0.44359 v -13.30761 l 0.887178,-0.88718 v -3.10511 l 0.44358,-0.44358 v -2.21794 l 0.887178,-0.88717 -0.887178,-1.77435 v -1.33077 l -0.44358,-0.44358 V 85.458179 l 0.44358,-0.44358 V 73.037747 l -0.44358,-0.443589 V 65.94035 l 0.44358,-0.443589 v -1.330758 l -0.44358,-0.443589 v -5.766629 l 0.44358,-0.443589 v -1.774347 l 0.443589,-0.443589 0.443589,0.443589 v 2.217936 l 0.443589,0.443589 v 3.105104 l -0.443589,0.443589 v 23.066532 l 0.443589,0.44358 v 2.21794 l -0.443589,0.44359 v 0.88718 l 0.443589,-0.88718 V 55.737849 L 65.439795,55.29426 Z M 44.5912,50.414799 h 5.323044 l 0.443589,0.443589 h 2.661525 l 0.443589,-0.443589 h 2.217936 l 0.44358,0.443589 h 0.443589 l 0.443589,0.443589 -0.443589,0.443589 h -1.330758 v 0.443589 l 0.887169,0.887169 -0.44358,0.443589 h -1.330767 l -0.443589,0.443589 h -0.44358 l -1.774356,1.774347 v 0.443589 l -0.44358,0.443589 v 20.405002 l -0.443589,0.443589 H 38.380981 L 37.937394,77.030029 38.380981,76.58644 V 56.181438 l 0.443587,-0.443589 V 55.29426 l 0.443587,-0.443589 0.443587,0.443589 v 0.887178 -0.887178 l -0.443587,-0.443589 v -0.44358 l 0.443587,-0.443589 v -0.443589 l 1.774349,-1.774347 h 0.443587 l 0.443587,-0.443589 h 0.443588 l 0.443587,-0.443589 h 0.887173 z m 0,-6.653798 0.443587,-0.443589 h 8.87174 l 0.443589,0.443589 -0.443589,0.44358 h -8.87174 z m 90.49177,-15.525551 0.44359,0.443589 v 3.105105 l -0.44359,0.443589 h -0.44358 l -0.44359,-0.443589 v -1.330758 l 0.44359,-0.443589 v -1.330758 z m 3.10511,-3.105114 0.44359,0.443589 1.33077,-0.887177 h 11.08967 l 3.10511,1.330766 0.88718,0.887169 -0.44359,-0.44358 0.88717,-0.443589 1.77435,1.774347 1.77435,3.105105 -0.44359,1.774356 0.44359,-0.887178 0.88717,2.217936 v 54.561219 l -0.44359,0.44359 h -6.6538 l -0.44359,0.44358 -0.44359,-0.44358 V 54.850671 l 0.44359,-0.44358 0.44359,0.44358 v 33.269038 h 6.21022 l -0.44359,-0.44359 -0.88718,0.44359 h -3.54869 l -1.33076,-1.33076 v -2.21793 l 0.44358,-0.44359 v -1.77435 L 152.82646,81.90949 V 54.407091 l -0.44359,-0.443589 -0.44359,0.887169 -0.44359,-0.44358 0.44359,-2.661525 -0.44359,-0.443589 0.44359,0.443589 v 0.887169 l -0.44359,0.443589 -1.33075,-2.661525 0.44359,-0.887168 -0.44359,0.443589 -0.88718,-1.330767 0.44359,-0.887169 -0.44359,-0.443589 0.44359,0.443589 -0.44359,0.887169 -1.33076,-1.774347 0.44359,-0.443589 -0.44359,0.443589 -1.33077,-1.330758 0.44359,-0.443589 -0.44359,-0.443589 -0.44358,0.443589 -1.33076,-0.887178 0.44359,-0.887169 -0.44359,0.887169 -0.88717,-0.887169 -4.87946,-2.217936 0.44359,-0.443589 v -3.992282 3.992282 l -0.44359,0.443589 -0.44359,-0.443589 v -4.435871 l -1.77435,-1.774347 v -0.887178 l -1.33076,-1.330758 v -2.217936 l 0.44358,-0.443589 v -0.887169 l -0.44358,-0.443589 1.77435,-1.774347 0.44359,0.44358 -0.44359,-0.887169 z m 0,0 v -0.887168 l 0.44359,-0.443589 h 12.42044 l 0.44358,0.443589 -0.44358,0.44358 h -11.97685 v 0.443588 l -0.44359,0.443589 z M 94.716541,23.799579 h 24.397289 l 0.44359,0.443589 -0.44359,0.44358 H 95.160131 v 0.443588 l 0.88717,-0.443588 h 22.179369 l 1.33075,1.330766 v 0.887169 -2.661515 l 0.44359,-0.443589 0.44359,0.443589 v 3.105104 l 0.44358,0.443589 -0.44358,0.443589 0.44358,-0.443589 0.44359,0.887178 1.33077,0.887169 h 3.99228 l 0.44358,0.443589 v 3.105105 l -3.99228,3.105114 -0.44358,-0.443589 0.44358,0.443589 v 4.435871 l -0.88717,0.887178 h -0.88718 l -4.43587,2.217936 -0.88717,0.887169 -0.88718,-0.443589 v 0.443589 l -1.33076,0.887178 0.44358,0.887169 -0.88716,0.887178 -0.44359,-0.443589 -0.44359,0.443589 0.44359,0.887169 -1.33076,0.443589 0.44358,0.887178 -1.33076,0.443589 0.44359,-0.443589 0.44359,0.887168 -1.33077,2.661525 -0.88717,-1.330758 v 2.217936 -0.887178 l 0.44358,-0.443589 0.44359,0.443589 v 1.330767 l -0.44359,0.44358 v 57.222739 l -0.44358,0.44359 h -1.33076 l -0.44359,-0.44359 0.44359,-0.44359 V 46.866106 l -0.44359,-0.443589 -0.44358,-2.661516 -2.66153,-4.435872 -4.879459,-3.992291 h -0.88717 l -3.5487,-1.774347 v -4.435872 l -0.44359,-0.887169 -1.33076,-0.887178 h -0.88718 l -1.33076,-1.330758 0.44359,-0.443589 h 1.77435 z"
     fill="#000000"
     fill-rule="evenodd"
     id="path4"
     style="stroke-width:0.443587" />
</svg>
