<svg xmlns="http://www.w3.org/2000/svg" width="1254" height="1254" viewBox="0 0 1254 1254">
<rect width="100%" height="100%" fill="white"/>
<path d="M 360,578 L 360,606 L 360,605 L 361,604 L 361,580 L 360,579 Z" fill="black" fill-rule="evenodd"/>
<path d="M 1092,547 L 1092,548 L 1130,548 L 1117,548 L 1116,547 Z" fill="black" fill-rule="evenodd"/>
<path d="M 83,445 L 83,446 L 82,447 L 82,452 L 81,453 L 81,462 L 82,463 L 82,474 L 81,475 L 81,486 L 82,487 L 82,491 L 81,492 L 81,495 L 82,495 L 82,447 L 83,446 Z" fill="black" fill-rule="evenodd"/>
<path d="M 84,441 L 84,783 L 98,814 L 126,841 L 197,865 L 324,867 L 374,861 L 432,839 L 472,807 L 512,742 L 525,749 L 535,743 L 528,727 L 547,666 L 568,677 L 606,674 L 616,663 L 619,621 L 744,621 L 620,624 L 746,623 L 756,642 L 770,641 L 782,623 L 838,625 L 782,621 L 839,621 L 846,631 L 833,633 L 833,743 L 858,751 L 868,742 L 862,621 L 928,622 L 864,629 L 954,625 L 1029,663 L 1087,675 L 1100,633 L 1192,632 L 1202,616 L 1203,574 L 1192,551 L 1061,549 L 1061,634 L 1079,635 L 1078,661 L 1080,653 L 1075,660 L 968,620 L 972,610 L 1057,634 L 1057,549 L 972,574 L 946,556 L 929,566 L 772,566 L 767,556 L 731,566 L 754,528 L 749,512 L 718,559 L 585,558 L 578,541 L 586,527 L 555,523 L 557,548 L 542,556 L 531,550 L 522,572 L 434,564 L 413,581 L 390,576 L 388,398 L 387,577 L 385,387 L 371,368 L 324,361 L 313,349 L 289,349 L 282,361 L 235,362 L 215,356 L 219,344 L 199,343 L 200,364 L 190,372 L 201,378 L 191,398 L 167,414 L 161,435 L 138,420 L 111,420 Z M 282,761 L 282,758 L 283,757 L 286,757 L 287,758 L 289,758 L 290,759 L 289,760 L 289,761 L 288,762 L 283,762 Z M 560,640 L 561,639 L 562,639 L 563,640 L 563,651 L 564,652 L 564,655 L 565,656 L 565,657 L 567,659 L 567,660 L 569,662 L 570,662 L 572,664 L 574,664 L 575,665 L 577,663 L 578,664 L 579,663 L 579,662 L 577,660 L 577,659 L 575,657 L 575,656 L 574,655 L 574,653 L 574,655 L 573,656 L 572,655 L 572,653 L 571,652 L 571,646 L 572,645 L 573,646 L 573,647 L 573,646 L 574,645 L 574,644 L 575,643 L 575,642 L 574,643 L 573,642 L 573,641 L 574,640 L 574,639 L 575,638 L 576,639 L 577,638 L 576,637 L 579,634 L 580,634 L 581,633 L 581,632 L 582,631 L 583,632 L 583,633 L 585,633 L 584,633 L 583,632 L 584,631 L 609,631 L 610,632 L 610,639 L 609,640 L 609,646 L 608,647 L 608,656 L 607,657 L 607,660 L 606,661 L 606,662 L 605,663 L 605,664 L 602,667 L 601,667 L 600,666 L 601,667 L 600,668 L 599,668 L 598,669 L 569,669 L 568,668 L 569,667 L 576,667 L 571,667 L 570,666 L 570,665 L 569,664 L 567,664 L 567,665 L 565,667 L 560,662 L 560,661 L 559,660 L 559,659 L 558,658 L 558,655 L 559,654 L 560,655 L 560,657 L 560,653 L 561,652 L 561,641 Z M 559,631 L 560,632 L 560,637 L 561,638 L 561,639 L 560,640 L 559,640 L 559,653 L 558,654 L 557,653 L 557,638 L 558,637 L 558,632 Z M 761,628 L 763,628 L 765,630 L 765,633 L 763,635 L 760,635 L 759,634 L 759,630 L 760,629 L 761,630 L 761,633 L 762,632 L 763,632 L 763,631 L 762,630 L 761,630 L 760,629 Z M 1117,617 L 1118,616 L 1118,615 L 1119,614 L 1120,615 L 1121,615 L 1120,615 L 1119,614 L 1120,613 L 1121,613 L 1122,612 L 1166,612 L 1167,613 L 1168,613 L 1169,614 L 1167,616 L 1167,619 L 1168,619 L 1169,620 L 1168,621 L 1167,621 L 1166,622 L 1121,622 L 1120,621 L 1119,621 L 1118,620 L 1118,619 L 1117,618 Z M 259,608 L 260,609 L 259,610 L 259,733 L 260,734 L 260,737 L 259,738 L 258,737 L 258,735 L 258,737 L 259,738 L 261,743 L 263,745 L 263,746 L 269,752 L 270,752 L 271,751 L 274,753 L 273,754 L 270,754 L 267,756 L 267,761 L 266,762 L 265,761 L 264,762 L 263,762 L 262,761 L 240,761 L 239,762 L 237,762 L 236,761 L 235,762 L 233,762 L 232,761 L 233,760 L 232,759 L 232,751 L 233,750 L 233,749 L 231,746 L 230,746 L 229,745 L 225,745 L 224,744 L 225,743 L 229,743 L 230,742 L 232,742 L 230,742 L 229,743 L 224,743 L 223,742 L 224,741 L 228,741 L 229,740 L 232,740 L 233,739 L 236,739 L 243,735 L 244,735 L 245,736 L 244,735 L 254,725 L 254,724 L 255,723 L 255,610 L 254,610 L 253,609 L 254,608 Z M 506,630 L 507,638 L 503,641 L 505,644 L 476,722 L 476,732 L 480,733 L 473,741 L 472,738 L 472,746 L 469,746 L 469,754 L 473,756 L 469,775 L 439,810 L 401,831 L 368,841 L 363,839 L 363,842 L 339,846 L 328,844 L 331,846 L 248,850 L 209,847 L 213,845 L 200,846 L 168,839 L 141,827 L 117,806 L 104,783 L 98,755 L 99,696 L 126,695 L 126,732 L 136,738 L 160,738 L 161,735 L 162,738 L 156,731 L 158,608 L 162,609 L 162,722 L 174,736 L 169,739 L 192,742 L 185,747 L 181,741 L 168,741 L 163,750 L 164,767 L 168,771 L 182,772 L 177,773 L 186,767 L 189,771 L 199,772 L 206,785 L 213,783 L 217,772 L 228,769 L 225,771 L 236,781 L 233,778 L 238,778 L 239,796 L 234,803 L 236,814 L 255,815 L 260,810 L 260,803 L 254,800 L 258,777 L 265,777 L 268,783 L 276,785 L 282,783 L 283,776 L 291,780 L 321,780 L 324,776 L 349,778 L 349,775 L 364,771 L 373,761 L 383,731 L 383,719 L 386,720 L 387,612 L 388,710 L 388,613 L 397,612 L 391,610 L 406,610 L 413,606 L 418,615 L 429,615 L 427,617 L 432,621 L 446,621 L 449,614 L 455,614 L 469,621 L 499,621 L 484,623 L 500,622 L 504,632 Z M 1118,589 L 1119,588 L 1120,589 L 1122,589 L 1122,588 L 1124,586 L 1125,586 L 1126,585 L 1149,585 L 1150,586 L 1150,587 L 1158,587 L 1160,585 L 1165,585 L 1166,586 L 1168,586 L 1170,588 L 1170,589 L 1171,590 L 1171,593 L 1169,595 L 1168,594 L 1168,593 L 1167,594 L 1168,594 L 1169,595 L 1168,596 L 1167,596 L 1166,597 L 1122,597 L 1121,596 L 1120,596 L 1118,594 Z M 1117,565 L 1119,563 L 1120,564 L 1121,563 L 1123,563 L 1121,563 L 1120,562 L 1121,561 L 1166,561 L 1167,562 L 1166,563 L 1162,563 L 1165,563 L 1167,565 L 1167,567 L 1166,568 L 1165,568 L 1167,568 L 1168,569 L 1167,570 L 1121,570 L 1120,569 L 1119,569 L 1118,568 L 1118,567 L 1117,566 Z M 371,544 L 372,545 L 372,709 L 371,710 L 371,713 L 370,714 L 370,717 L 369,718 L 369,721 L 368,722 L 368,725 L 367,726 L 367,729 L 366,730 L 362,749 L 360,752 L 359,750 L 358,751 L 358,752 L 359,751 L 360,752 L 359,755 L 356,758 L 354,757 L 356,755 L 353,758 L 351,758 L 350,759 L 352,760 L 348,762 L 324,762 L 323,761 L 323,758 L 324,757 L 329,757 L 330,758 L 329,759 L 325,759 L 325,760 L 332,760 L 331,759 L 336,756 L 338,756 L 336,756 L 335,755 L 340,752 L 342,753 L 341,754 L 342,753 L 341,752 L 345,749 L 346,750 L 353,742 L 352,740 L 353,735 L 354,734 L 354,610 L 353,609 L 358,607 L 358,577 L 354,575 L 354,545 L 355,544 L 356,545 L 356,574 L 357,574 L 356,573 L 356,550 L 357,548 L 359,547 L 357,547 L 356,546 L 357,545 L 370,545 Z M 558,542 L 559,543 L 559,550 L 558,551 L 557,550 L 557,543 Z M 99,526 L 126,526 L 127,527 L 127,665 L 126,666 L 98,666 L 97,665 L 98,664 L 98,527 Z M 161,444 L 162,445 L 162,534 L 161,535 L 161,575 L 160,576 L 158,576 L 156,578 L 156,607 L 155,608 L 154,607 L 154,577 L 156,575 L 156,568 L 157,567 L 157,562 L 159,560 L 157,556 L 157,553 L 156,552 L 156,515 L 157,514 L 157,487 L 156,486 L 156,471 L 157,470 L 157,467 L 156,466 L 156,453 L 157,452 L 157,448 L 158,447 L 159,448 L 159,453 L 160,454 L 160,461 L 159,462 L 159,514 L 160,515 L 160,520 L 159,521 L 159,523 L 160,521 L 160,448 L 159,447 Z M 112,436 L 124,436 L 125,437 L 131,437 L 132,436 L 137,436 L 138,437 L 139,437 L 140,438 L 139,439 L 136,439 L 136,440 L 138,442 L 137,443 L 134,443 L 133,444 L 132,444 L 128,448 L 128,449 L 127,450 L 127,496 L 126,497 L 98,497 L 97,496 L 98,495 L 98,449 L 99,448 L 99,447 L 100,446 L 101,447 L 101,449 L 101,447 L 100,446 L 100,445 L 101,444 L 101,443 L 105,439 L 106,439 L 107,438 L 108,438 L 109,437 L 111,437 Z M 112,421 L 113,420 L 133,420 L 134,421 L 133,422 L 113,422 Z M 316,386 L 317,387 L 317,394 L 316,395 L 315,395 L 314,394 L 314,391 L 315,390 L 315,387 Z M 323,379 L 324,380 L 327,378 L 352,378 L 359,381 L 361,383 L 360,382 L 362,381 L 366,385 L 370,392 L 369,396 L 370,394 L 372,399 L 372,522 L 371,523 L 356,523 L 355,524 L 354,523 L 354,446 L 355,445 L 356,446 L 356,521 L 370,521 L 369,520 L 367,521 L 359,521 L 356,518 L 356,513 L 357,512 L 357,508 L 356,507 L 356,445 L 355,444 L 354,446 L 353,445 L 354,439 L 353,438 L 354,439 L 354,441 L 353,442 L 350,436 L 351,434 L 350,435 L 348,432 L 349,430 L 348,429 L 349,430 L 348,432 L 345,428 L 346,427 L 345,428 L 342,425 L 343,424 L 342,423 L 341,424 L 338,422 L 339,420 L 338,422 L 336,420 L 325,415 L 326,414 L 326,405 L 326,414 L 325,415 L 324,414 L 324,404 L 320,400 L 320,398 L 317,395 L 317,390 L 318,389 L 318,387 L 317,386 L 321,382 L 322,383 L 321,381 Z M 323,379 L 323,377 L 324,376 L 352,376 L 353,377 L 352,378 L 325,378 L 325,379 L 324,380 Z M 225,376 L 280,376 L 281,377 L 280,378 L 226,378 L 226,379 L 228,378 L 278,378 L 281,381 L 281,383 L 281,377 L 282,376 L 283,377 L 283,384 L 284,385 L 283,386 L 284,385 L 285,387 L 288,389 L 297,389 L 298,390 L 298,397 L 289,404 L 288,403 L 289,404 L 289,414 L 287,416 L 285,416 L 275,421 L 273,423 L 271,422 L 271,423 L 268,425 L 269,427 L 267,429 L 266,428 L 265,429 L 266,431 L 263,432 L 264,434 L 261,435 L 262,434 L 263,436 L 260,442 L 258,439 L 258,444 L 258,442 L 259,441 L 260,442 L 260,445 L 259,446 L 259,575 L 258,576 L 255,576 L 254,575 L 255,574 L 255,428 L 254,427 L 253,421 L 247,411 L 236,402 L 234,402 L 226,398 L 226,388 L 225,386 L 222,384 L 220,384 L 217,381 L 218,380 L 222,380 Z" fill="black" fill-rule="evenodd"/>
</svg>