<?xml version="1.0" encoding="UTF-8" standalone="no"?>
<svg
   width="350"
   height="250"
   viewBox="0 0 350 250"
   version="1.1"
   id="svg1"
   sodipodi:docname="flare_gun_black.svg"
   inkscape:version="1.4.2 (f4327f4, 2025-05-13)"
   xmlns:inkscape="http://www.inkscape.org/namespaces/inkscape"
   xmlns:sodipodi="http://sodipodi.sourceforge.net/DTD/sodipodi-0.dtd"
   xmlns="http://www.w3.org/2000/svg"
   xmlns:svg="http://www.w3.org/2000/svg">
  <defs
     id="defs1" />
  <sodipodi:namedview
     id="namedview1"
     pagecolor="#ffffff"
     bordercolor="#000000"
     borderopacity="0.25"
     inkscape:showpageshadow="2"
     inkscape:pageopacity="0.0"
     inkscape:pagecheckerboard="0"
     inkscape:deskcolor="#d1d1d1"
     inkscape:zoom="0.93700159"
     inkscape:cx="626.46638"
     inkscape:cy="627"
     inkscape:window-width="2560"
     inkscape:window-height="1377"
     inkscape:window-x="-8"
     inkscape:window-y="-8"
     inkscape:window-maximized="1"
     inkscape:current-layer="svg1" />
  <path
     d="m 327.02631,18.783118 -7.53649,-0.301459 -3.61751,6.632121 H 158.51026 l -0.60292,-6.933579 -9.94818,-1.205834 -1.80876,1.808751 -0.60292,6.632121 -7.53649,4.823358 -3.91898,15.37445 -2.41169,3.316067 -0.90437,-12.359855 -5.12481,-3.316066 -6.0292,6.330662 -5.42629,2.713138 -6.93357,-0.602917 -14.168613,-7.837965 -11.15402,0.602928 -1.808751,2.11022 0.301458,3.014596 12.058396,5.426276 6.029194,6.933579 3.918986,9.646716 L 87.365723,76.060488 75.608796,83.898457 60.535804,98.971454 45.161342,120.67656 34.610249,140.27145 25.86792,164.6897 21.948937,186.99773 v 15.97738 l 4.5219,12.35985 8.139412,9.64672 14.771534,8.13942 22.910947,2.41167 13.867158,-3.61751 6.029192,-6.02921 0.904387,-5.12481 -5.727744,-24.1168 v -21.7051 l 3.918982,-15.67591 6.029192,-10.5511 9.948183,-7.5365 12.96278,-1.80877 10.55109,4.52191 9.0438,11.75695 9.04379,5.72772 29.24161,0.90438 13.5657,-3.01459 9.04378,-7.83795 3.91899,-8.44089 -0.30146,-26.52847 4.22042,-3.01459 h 26.82994 l 4.5219,-2.71313 1.20584,-34.366446 h 74.76205 l 4.22044,6.933573 6.33065,-0.301453 2.71314,-6.029202 1.80876,-19.594887 -0.90438,-27.131388 z M 60.234335,202.07072 h 0.301469 l 0.301459,0.30147 h 1.507292 l 0.301458,0.30146 h 0.30147 l 0.301459,0.30146 H 63.5504 l 1.205834,1.20584 v 0.30145 l 0.602928,0.60292 v 0.60292 l 0.301458,0.30146 v 2.11022 l -0.301458,0.30147 v 0.60292 l -0.30147,0.30144 v 0.30148 l -0.301458,0.30145 -0.301459,-0.30145 -0.301457,0.30145 0.301457,0.30146 v 0.30146 l -0.602916,0.60292 H 63.5504 l -0.301458,0.30146 h -0.301459 l -0.30147,0.30146 h -0.301458 l -0.301459,0.30146 H 59.329958 L 59.0285,211.71744 h -0.301459 l -0.301458,-0.30146 0.301458,-0.30146 -0.301458,0.30146 h -0.301458 l -0.301459,-0.30146 h -0.30147 l -0.904375,-0.90438 v -0.30146 l -0.602917,-0.60293 v -0.60291 l -0.301458,-0.30145 v -2.41169 l 0.301458,-0.30146 v -0.60292 l 0.301459,-0.30144 v -0.30148 l 1.507303,-1.50729 h 0.301459 l 0.301458,-0.30146 h 0.301458 l 0.301459,-0.30146 h 0.904376 z m 81.092705,-73.5562 2.11022,-3.61753 3.91898,-3.91896 1.80876,-1.20585 1.20584,0.90438 -1.5073,7.23503 v 6.63212 l 1.20585,5.42627 2.11021,4.52191 2.11023,3.0146 2.71314,2.71314 4.22042,2.71314 1.50731,-0.30148 0.90438,-0.90437 0.30145,-1.50729 -0.30145,-0.90438 -1.5073,-1.5073 0.30147,-0.30146 -0.60292,-0.60292 -0.30147,0.30147 -2.41169,-3.31607 0.30147,-0.60291 -0.30147,0.30144 -0.30144,-0.30144 0.30144,-0.60293 -0.30144,0.30146 -0.30147,-0.30146 0.30147,-0.90438 -0.30147,0.60292 -0.30145,-0.30146 0.30145,-0.90438 -0.30145,0.30146 -0.30147,-0.30146 -0.90437,-3.31606 v -5.72774 l 1.50729,-5.12481 2.71313,-4.82336 0.90439,-0.90438 0.30147,0.30147 -0.30147,-0.30147 1.5073,-1.80876 0.60292,-2.41168 h 20.49927 l 4.82336,1.80877 2.11022,1.50729 1.50729,1.5073 -0.30146,0.30146 0.30146,-0.30146 0.90438,0.90438 2.71314,4.22044 0.90438,2.71313 0.30146,3.61753 0.30145,0.30146 -0.30145,5.42628 -1.20584,3.91897 -1.20584,2.11022 -0.30146,-0.30147 0.30146,0.60294 -1.20583,1.80876 -2.71314,2.71313 -0.30146,-0.30146 -0.30147,0.30146 0.30147,0.30146 -0.60292,0.60293 -0.60292,-0.30147 -0.30147,0.30147 0.30147,0.30145 -0.60292,0.60291 -0.60292,-0.30144 0.30145,0.30144 -0.60292,0.60292 -3.31605,1.50731 -5.42628,1.20584 h -22.60949 l -0.30145,-0.30147 h -1.80878 l -3.91897,-1.20583 -3.0146,-1.80877 0.30146,-0.30144 -0.60292,0.30144 -3.31605,-3.01459 -0.30146,-0.60292 0.30146,-0.30146 -0.30146,-0.30146 -0.30147,0.30146 -1.80874,-2.41167 -1.80877,-4.52191 -0.60292,-3.0146 v -3.61751 z M 127.76135,79.979476 h 2.41169 l 0.30145,0.301453 h 0.60292 l 0.30146,0.301453 h 0.30145 l 0.60293,0.60293 -0.30146,0.301466 0.30146,0.301453 0.30146,-0.301453 0.90438,0.904371 v 0.301472 l 0.30146,0.301453 v 0.60293 l 0.30146,0.301453 v 1.808755 l -0.30146,0.301466 v 0.602918 l -0.30146,0.301465 -0.30145,-0.301465 0.30145,0.301465 v 0.301454 l -0.30145,0.301452 v 0.301466 l -1.20585,1.205849 h -0.30147 l -0.30145,-0.301466 0.30145,-0.301466 -0.30145,0.301466 0.30145,0.301466 -0.30145,0.301452 h -0.30146 l -0.30146,0.301466 h -0.90437 l -0.30146,0.301453 h -1.20585 L 128.06281,89.6262 h -0.60292 l -0.30145,-0.301466 h -0.30147 l -0.30146,-0.301452 h -0.30145 l -1.5073,-1.507315 v -0.301452 l -0.30147,-0.301454 v -0.904383 l -0.30146,-0.301466 v -2.110208 l 0.30146,-0.301477 v -0.602906 l 0.60293,-0.602925 v -0.301465 l 0.90438,-0.904383 h 0.30146 l 0.30145,-0.301466 h 0.30146 l 0.30147,-0.301453 h 0.30145 z"
     fill="#000000"
     fill-rule="evenodd"
     id="path1"
     style="stroke-width:0.301459" />
</svg>
