<svg xmlns="http://www.w3.org/2000/svg" width="1254" height="1254" viewBox="0 0 1254 1254">
<rect width="100%" height="100%" fill="white"/>
<path d="M 1130,270 L 1105,269 L 1093,291 L 571,291 L 569,268 L 536,264 L 530,270 L 528,292 L 503,308 L 490,359 L 482,370 L 479,329 L 462,318 L 442,339 L 424,348 L 401,346 L 354,320 L 317,322 L 311,329 L 312,339 L 352,357 L 372,380 L 385,412 L 335,460 L 296,486 L 246,536 L 195,608 L 160,673 L 131,754 L 118,828 L 118,881 L 133,922 L 160,954 L 209,981 L 285,989 L 331,977 L 351,957 L 354,940 L 335,860 L 335,788 L 348,736 L 368,701 L 401,676 L 444,670 L 479,685 L 509,724 L 539,743 L 636,746 L 681,736 L 711,710 L 724,682 L 723,594 L 737,584 L 826,584 L 841,575 L 845,461 L 1093,461 L 1107,484 L 1128,483 L 1137,463 L 1143,398 L 1140,308 Z M 245,878 L 246,878 L 247,879 L 252,879 L 253,880 L 254,880 L 255,881 L 256,881 L 260,885 L 260,886 L 262,888 L 262,890 L 263,891 L 263,898 L 262,899 L 262,901 L 261,902 L 261,903 L 260,904 L 259,903 L 258,904 L 259,905 L 259,906 L 257,908 L 256,908 L 255,909 L 254,909 L 253,910 L 252,910 L 251,911 L 242,911 L 241,910 L 240,910 L 239,909 L 240,908 L 239,909 L 238,909 L 237,908 L 236,908 L 233,905 L 233,904 L 231,902 L 231,900 L 230,899 L 230,891 L 231,890 L 231,888 L 232,887 L 232,886 L 237,881 L 238,881 L 239,880 L 240,880 L 241,879 L 244,879 Z M 514,634 L 521,622 L 534,609 L 540,605 L 544,608 L 539,632 L 539,654 L 543,672 L 550,687 L 557,697 L 566,706 L 580,715 L 585,714 L 588,711 L 589,706 L 588,703 L 583,698 L 584,697 L 582,695 L 581,696 L 573,685 L 574,683 L 573,684 L 572,683 L 573,681 L 572,682 L 571,681 L 572,678 L 571,680 L 570,679 L 571,676 L 570,677 L 569,676 L 566,665 L 566,646 L 571,629 L 580,613 L 583,610 L 584,611 L 583,610 L 588,604 L 590,596 L 658,596 L 674,602 L 681,607 L 686,612 L 685,613 L 686,612 L 689,615 L 698,629 L 701,638 L 702,650 L 703,651 L 702,669 L 698,682 L 694,689 L 693,688 L 694,690 L 690,696 L 681,705 L 680,704 L 679,705 L 680,706 L 678,708 L 676,707 L 675,708 L 676,709 L 674,711 L 672,710 L 673,711 L 671,713 L 660,718 L 642,722 L 567,722 L 566,721 L 560,721 L 547,717 L 537,711 L 538,710 L 536,711 L 525,701 L 524,699 L 525,698 L 524,697 L 523,698 L 517,690 L 511,675 L 509,665 L 509,653 Z M 469,473 L 477,473 L 478,474 L 480,474 L 481,475 L 482,475 L 484,477 L 483,478 L 484,479 L 485,478 L 488,481 L 488,482 L 489,483 L 489,485 L 490,486 L 490,492 L 489,493 L 489,495 L 488,496 L 487,495 L 488,496 L 488,497 L 487,498 L 487,499 L 483,503 L 482,503 L 481,502 L 482,501 L 481,502 L 482,503 L 481,504 L 480,504 L 479,505 L 476,505 L 475,506 L 471,506 L 470,505 L 468,505 L 467,504 L 466,504 L 465,503 L 464,503 L 459,498 L 459,497 L 458,496 L 458,493 L 457,492 L 457,485 L 458,484 L 458,482 L 460,480 L 460,479 L 463,476 L 464,476 L 465,475 L 466,475 L 467,474 L 468,474 Z" fill="black" fill-rule="evenodd"/>
</svg>