<?xml version="1.0" encoding="UTF-8" standalone="no"?>
<svg
   width="350"
   height="250"
   viewBox="0 0 350 250"
   version="1.1"
   id="svg2"
   sodipodi:docname="fn_inglis_no2_mk_i_black.svg"
   inkscape:version="1.4.2 (f4327f4, 2025-05-13)"
   xmlns:inkscape="http://www.inkscape.org/namespaces/inkscape"
   xmlns:sodipodi="http://sodipodi.sourceforge.net/DTD/sodipodi-0.dtd"
   xmlns="http://www.w3.org/2000/svg"
   xmlns:svg="http://www.w3.org/2000/svg">
  <defs
     id="defs2" />
  <sodipodi:namedview
     id="namedview2"
     pagecolor="#ffffff"
     bordercolor="#000000"
     borderopacity="0.25"
     inkscape:showpageshadow="2"
     inkscape:pageopacity="0.0"
     inkscape:pagecheckerboard="0"
     inkscape:deskcolor="#d1d1d1"
     inkscape:zoom="0.93700159"
     inkscape:cx="626.46638"
     inkscape:cy="627"
     inkscape:window-width="2560"
     inkscape:window-height="1377"
     inkscape:window-x="-8"
     inkscape:window-y="-8"
     inkscape:window-maximized="1"
     inkscape:current-layer="svg2" />
  <path
     d="m 169.94736,133.2552 h 1.21251 l 0.30312,0.30312 h 39.40635 -3.33437 l -0.30312,-0.30312 h -0.30313 l -0.30313,0.30312 h -6.66877 l -0.30313,-0.30312 h -0.30312 l -0.30313,0.30312 h -10.91253 l -0.30313,-0.30312 -0.30312,0.30312 h -8.48753 l -0.30312,-0.30312 h -1.81875 l -0.30313,0.30312 h -4.54689 l -0.30312,-0.30312 z"
     fill="#000000"
     fill-rule="evenodd"
     id="path1"
     style="stroke-width:0.303126" />
  <path
     d="m 324.84465,229.04295 0.60625,-7.88126 -20.61255,-107.00342 7.57815,-16.975043 20.91568,-13.337536 1.2125,-11.518787 6.97189,-4.546885 0.90938,-8.487525 -9.3969,-6.668763 -16.36879,-30.312584 -6.36565,-1.212505 -10.00315,6.062519 2.12188,-0.606252 -8.48753,-3.33438 -0.60625,-8.184397 -4.54688,0.303121 -2.42501,9.700031 H 35.662635 L 283.92266,24.433032 H 36.268887 l -3.637511,-6.062519 h -6.062519 l 3.031259,0.303122 -8.487523,1.212503 -1.515629,3.940643 -6.668768,1.515625 -5.7593902,7.275022 -0.606252,18.490669 3.031259,3.03126 1.2125022,25.462566 h 72.750189 l 0.30313,3.031266 0.30313,-3.031266 1.2125,3.940637 47.893876,0.303131 9.3969,6.971894 4.24376,24.856315 9.70002,12.73128 12.42816,4.24377 43.04387,0.30312 12.42816,5.45627 9.3969,15.15629 15.45942,73.9627 -3.33439,4.54688 1.21251,6.06252 67.29392,0.60625 2.72814,-5.75939 z M 196.92556,126.2833 l 0.30313,-0.30313 h 0.30312 l 0.30313,-0.30312 h 0.60625 l 0.30313,0.30312 -0.30313,0.30313 h 1.2125 l 0.30313,0.30312 -0.30313,0.30313 h -0.60625 l -0.30312,0.30313 h -0.60625 l -0.30313,-0.30313 v -0.30313 h -0.60625 z m 24.85631,-6.97189 h 2.72814 l 0.30313,0.30312 -0.30313,0.30313 h -0.90937 0.90937 l 0.30313,0.30312 h 0.30312 l 0.30313,-0.30312 h 0.30312 l 0.90938,0.90937 v 0.30313 l 0.30312,0.30313 v 0.30314 l -0.30312,0.30312 0.30312,-0.30312 0.30313,0.30312 v 0.30313 l 0.30312,0.30312 v 2.12187 l -0.30312,0.30313 v 0.60625 l -0.60625,0.60625 v 0.30312 l -0.90938,0.90939 h -0.30312 l -0.30313,0.30312 h -0.60625 l -0.30312,0.30313 H 222.085 l -0.30313,-0.30313 h -0.60625 l -0.60625,-0.60625 h -0.30313 l -0.60625,-0.60626 v -0.30312 l 0.30313,-0.30313 v -0.30312 l -0.30313,-0.30313 v -0.30312 l -0.30312,-0.30313 v -0.30312 0.30312 l -0.30313,0.30313 -0.30312,-0.30313 v -2.12187 l 0.30312,-0.30312 v -0.60625 l 0.30313,-0.30314 0.30312,0.30314 v 0.60625 -0.60625 l 0.60625,-0.60627 h 0.30313 v -0.30313 l 0.60625,-0.60625 -0.30313,-0.30312 0.30313,-0.30313 h 0.30312 z m -8.79064,-19.09692 0.60625,0.90938 v 0.60624 l 0.30313,0.30313 v 0.90937 l 0.30312,0.30313 v 1.2125 l 0.30313,0.30313 v 3.94064 l -0.30313,0.30312 v 1.81875 l -0.30312,0.30313 v 0.90938 l -0.30313,0.30312 v 0.60626 l -0.30313,0.30313 v 0.60625 l -0.30312,0.30312 v 0.60625 l -0.30313,0.30313 v 0.30312 l -0.30312,0.30313 v 0.30312 l -0.30313,0.30313 -0.30313,0.90938 -0.60625,0.60625 -0.30313,-0.30312 v -0.30313 l 0.30313,-0.30312 -0.30313,0.30312 0.30313,0.90938 -0.60625,0.60625 -0.30313,-0.30313 0.30313,0.30313 v 0.30312 l -0.60625,0.60625 -0.30313,-0.30312 h -0.30312 v 0.30312 l 0.30312,-0.30312 0.30313,0.30312 v 0.30313 l -3.33438,3.33439 h -0.30313 l -0.90938,0.90937 h -0.30313 l -0.60625,0.60625 h -0.30312 l -0.30313,0.30313 h -0.30312 l -0.30313,-0.30313 0.30313,-0.30312 h -0.30313 v 0.30312 l 0.30313,0.30313 -0.60625,0.60625 h -0.60625 l -0.30313,0.30312 h -0.30312 l -0.90939,0.60625 h -0.90937 l -0.30313,-0.30312 0.30313,-0.30313 h -1.2125 l -0.30313,-0.30312 0.30313,-0.30313 h 0.30312 l 0.90938,-0.60625 h 0.30312 l 0.30313,0.30313 -0.30313,0.30312 h 0.30313 l 0.60625,-0.60625 -0.30313,-0.30312 0.30313,-0.30313 h 0.30312 l 0.30314,0.30313 -0.30314,-0.30313 0.60626,-0.60625 h 0.30313 l 0.30312,0.30313 -0.30312,-0.30313 0.60625,-0.60625 h 0.30312 l 1.81875,-1.81876 0.30313,0.30313 h 0.30313 l 0.30312,-0.30313 v -0.30313 l 1.21252,-1.2125 -0.30313,-0.30312 0.30313,-0.30313 v -0.30312 l 0.30312,-0.30313 0.30312,0.30313 -0.30312,-0.30313 0.30312,-0.30312 v -0.30313 l 0.60625,-0.60625 0.30313,-0.90938 0.60625,-0.60625 0.30312,0.30312 -0.30312,-0.30312 v -0.30313 l 0.30312,-0.30312 0.30313,0.30312 -0.30313,-0.30312 v -0.30313 l 0.30313,-0.30312 0.30312,0.30312 -0.30312,-0.30312 v -0.60625 l 0.30312,-0.30313 0.30313,0.30313 v 0.30312 -0.30312 l 0.30312,-0.30313 v -0.30312 l -0.30312,-0.30313 v -0.60626 l 0.30312,-0.30312 v -0.60625 l 0.30313,-0.30313 0.30312,0.30313 v 0.60625 -0.60625 l 0.30313,-0.30313 v -0.90938 l -0.30313,-0.30312 v -1.2125 l 0.30313,-0.30313 0.30313,0.30313 v 0.90937 -0.30312 l 0.30313,-0.30313 v -2.72812 2.12187 l -0.30313,0.30313 -0.30313,-0.30313 v -2.72813 l 0.30313,-0.30313 v -1.81876 l -0.30313,-0.30312 v -2.425 l 0.30313,-0.30312 0.30313,0.30312 v 2.12187 -0.30312 l 0.30312,-0.30313 h 0.30313 l 0.30312,0.30313 -0.30312,-0.90938 -0.30313,0.30313 -0.30312,-0.30313 v -0.90937 z m -1.81876,-3.637514 0.30312,0.30312 v 0.303131 l 0.30313,0.30313 v 0.303121 l 0.30313,0.303131 -0.30313,0.30312 v 0.303131 l 0.30313,-0.303131 0.60625,0.606251 v 0.303131 l 0.30313,0.30312 v 0.606259 l -0.30313,0.30313 -0.30312,-0.30313 v -0.303125 l -0.30313,-0.303134 v -0.30312 1.212509 l -0.30313,0.30312 -0.30313,-0.30312 v -1.212509 l -0.30312,-0.303131 v -0.909371 l -0.30313,-0.303131 v -0.909382 z m -55.47202,-3.637518 3.33438,-3.031245 0.60625,0.30312 -0.30312,0.303131 0.30312,-0.303131 -0.30312,-0.30312 1.81876,-1.212513 0.90937,0.303131 -0.60625,-0.303131 1.81875,-0.909382 1.81875,0.303131 -0.90937,-0.303131 1.51564,-0.606251 h 19.40004 l 1.21251,1.515633 -0.30312,0.606262 -0.30314,-0.303131 1.21251,1.212502 1.2125,2.121874 0.30312,-0.30312 0.60625,0.606251 -0.30312,0.909372 0.30312,-0.606252 0.90939,1.515633 -0.30313,0.606252 -0.30313,-0.303131 0.60626,1.212502 v 0.909382 l 0.30312,0.606261 0.30313,-0.909381 0.60626,1.212502 0.30312,2.425012 -0.30312,0.30313 -0.30314,-0.30313 v -0.909379 l 0.30314,2.728129 v -1.51562 l 0.30312,-0.30313 0.30313,0.30313 v 2.42499 l 0.30312,0.30313 v 2.72813 l -0.30312,0.30314 -0.30313,-0.90939 0.30313,3.33439 -0.60625,1.51562 -0.30314,-0.30312 0.30314,-2.72813 -0.60626,3.6375 v -0.60625 l 0.30312,-0.30312 0.30314,0.30312 v 0.90938 l -0.60626,1.2125 -0.30313,-0.90937 -0.30312,0.60625 0.60625,0.30312 v 0.60626 l -0.60625,0.90938 -0.30313,-0.30313 -0.30313,0.30313 0.30313,1.2125 -0.60626,0.90937 -0.30312,-0.60625 -0.30313,0.60625 0.30313,-0.30312 0.30312,0.60625 -1.2125,1.81876 -0.30312,-0.60625 -0.90938,1.51562 0.30313,0.30313 -0.90937,1.2125 -0.30314,-0.30313 0.30314,0.30313 -0.60626,0.60625 -0.60625,-0.30313 -0.60625,0.9094 0.30312,0.30312 -1.51562,1.51562 -1.21251,0.60625 -0.90938,0.90938 -0.30313,0.90937 0.90939,0.90938 h 12.12503 l 0.60625,0.30313 0.30312,-0.60626 1.81875,-0.30312 0.30314,0.30312 -0.30314,0.30313 1.51564,0.30313 -1.51564,0.60625 h -2.425 l -0.30312,0.30313 h -6.9719 l -0.30312,-0.30313 0.60625,-0.30312 h -3.33438 l 0.30312,0.30312 -0.30312,0.30313 h -13.03441 l -6.06253,-1.51564 -1.51562,-0.90937 0.30312,-0.30313 -0.90937,0.30313 -0.60625,-0.60625 0.30312,-0.30313 -0.60625,0.30313 -1.2125,-0.60625 -0.90938,-0.90938 0.30312,-0.30312 -0.30312,-0.30313 0.30312,0.30313 -0.60625,0.30312 -0.60625,-0.60625 0.30313,-0.60624 -0.60625,0.30312 -0.60625,-0.60625 0.30312,-0.30312 -2.72813,-3.03127 -0.30314,0.30312 -0.90937,-1.2125 0.30313,-0.60625 -0.30313,0.60625 -0.60625,-0.90937 0.30313,-0.90939 -1.2125,-2.425 -0.30313,-1.81875 -0.30312,1.2125 -0.90938,-2.72814 v -2.425 l 0.30313,-0.30312 0.30312,0.30312 v 1.81875 -6.06252 1.51563 l -0.30312,0.30313 -0.30313,-0.30313 v -1.81875 l 0.60625,-2.72812 0.30313,-0.30313 0.30312,0.30313 v 0.90937 l 0.30313,-0.90937 -0.30313,-1.51564 0.30313,-0.30312 0.30312,0.606251 0.30313,-0.909382 -0.30313,0.606251 -0.30312,-0.909371 0.90937,-1.212513 0.30313,0.303131 0.30312,-0.606251 -0.30312,-0.606262 0.90937,-0.30312 z m 179.45048,-33.343835 0.30312,0.303122 v 1.515634 l 0.30313,-0.30313 h 0.30313 v -0.303121 l 0.30312,-0.303131 0.30313,0.303131 v 0.606251 l 0.30313,0.303121 v 1.818756 l -0.30313,0.303131 v 0.606252 l -0.30313,0.303121 -0.30312,-0.303121 v -0.303131 l -0.30313,0.303131 v 0.303121 l 0.30313,-0.303121 0.30312,0.303121 v 0.30313 l -1.51563,1.515626 -0.30312,-0.303122 v -2.425007 l -0.60625,-0.606253 V 62.626883 L 334.8478,61.7175 v -1.818755 z m -13.94378,-25.46257 0.30313,0.303131 v 0.303122 l 0.90937,0.909381 -0.30312,0.303122 h -0.30313 l -1.21251,-1.212503 z M 29.903238,18.673635 l 0.30313,-0.303122 h 1.818756 l 0.303121,0.303122 -0.303121,0.30313 h -1.818756 z"
     fill="#000000"
     fill-rule="evenodd"
     id="path2"
     style="stroke-width:0.303126" />
</svg>
