<svg xmlns="http://www.w3.org/2000/svg" width="1254" height="1254" viewBox="0 0 1254 1254">
<rect width="100%" height="100%" fill="white"/>
<path d="M 616,625 L 620,625 L 621,626 L 751,626 L 740,626 L 739,625 L 738,625 L 737,626 L 715,626 L 714,625 L 713,625 L 712,626 L 676,626 L 675,625 L 674,626 L 646,626 L 645,625 L 639,625 L 638,626 L 623,626 L 622,625 Z" fill="black" fill-rule="evenodd"/>
<path d="M 1127,941 L 1129,915 L 1061,562 L 1086,506 L 1155,462 L 1159,424 L 1182,409 L 1185,381 L 1154,359 L 1100,259 L 1079,255 L 1046,275 L 1053,273 L 1025,262 L 1023,235 L 1008,236 L 1000,268 L 173,268 L 992,266 L 175,266 L 163,246 L 143,246 L 153,247 L 125,251 L 120,264 L 98,269 L 79,293 L 77,354 L 87,364 L 91,448 L 331,448 L 332,458 L 333,448 L 337,461 L 495,462 L 526,485 L 540,567 L 572,609 L 613,623 L 755,624 L 796,642 L 827,692 L 878,936 L 867,951 L 871,971 L 1093,973 L 1102,954 Z M 705,602 L 706,601 L 707,601 L 708,600 L 710,600 L 711,601 L 710,602 L 714,602 L 715,603 L 714,604 L 712,604 L 711,605 L 709,605 L 708,604 L 708,603 L 706,603 Z M 787,579 L 796,579 L 797,580 L 796,581 L 793,581 L 796,581 L 797,582 L 798,582 L 799,581 L 800,581 L 803,584 L 803,585 L 804,586 L 804,587 L 803,588 L 804,587 L 805,588 L 805,589 L 806,590 L 806,597 L 805,598 L 805,600 L 803,602 L 803,603 L 800,606 L 799,606 L 798,607 L 796,607 L 795,608 L 788,608 L 787,607 L 785,607 L 783,605 L 782,605 L 780,603 L 780,602 L 781,601 L 781,600 L 780,599 L 780,598 L 779,597 L 779,596 L 779,597 L 778,598 L 777,597 L 777,590 L 778,589 L 778,587 L 779,586 L 780,587 L 780,589 L 780,587 L 782,585 L 783,585 L 783,584 L 785,582 L 784,581 L 785,580 L 786,580 Z M 758,516 L 760,519 L 760,521 L 761,522 L 761,525 L 762,526 L 762,530 L 763,531 L 763,544 L 762,545 L 762,551 L 761,552 L 761,555 L 760,556 L 760,558 L 759,559 L 759,561 L 758,562 L 758,564 L 757,565 L 757,566 L 756,567 L 756,568 L 755,569 L 754,572 L 752,574 L 751,573 L 751,572 L 752,571 L 751,572 L 752,575 L 750,577 L 749,576 L 750,577 L 750,578 L 748,580 L 747,579 L 746,579 L 746,580 L 747,579 L 748,580 L 748,581 L 737,592 L 736,592 L 733,595 L 732,595 L 730,597 L 729,597 L 728,598 L 727,598 L 726,597 L 727,596 L 726,596 L 726,597 L 727,598 L 725,600 L 723,600 L 722,601 L 721,601 L 718,603 L 715,603 L 714,602 L 715,601 L 711,601 L 710,600 L 711,599 L 712,599 L 715,597 L 716,597 L 717,598 L 716,599 L 717,599 L 719,597 L 718,596 L 719,595 L 720,595 L 721,596 L 720,595 L 722,593 L 723,593 L 724,594 L 723,593 L 725,591 L 726,591 L 732,585 L 733,586 L 734,586 L 735,585 L 735,584 L 739,580 L 738,579 L 739,578 L 739,577 L 740,576 L 741,577 L 740,576 L 741,575 L 741,574 L 743,572 L 744,569 L 746,567 L 747,568 L 746,567 L 746,566 L 747,565 L 748,566 L 747,565 L 747,564 L 748,563 L 749,564 L 748,563 L 748,561 L 749,560 L 750,561 L 750,562 L 750,561 L 751,560 L 751,559 L 750,558 L 750,556 L 751,555 L 751,553 L 752,552 L 753,553 L 753,555 L 753,553 L 754,552 L 754,549 L 753,548 L 753,544 L 754,543 L 755,544 L 755,547 L 755,546 L 756,545 L 756,536 L 756,543 L 755,544 L 754,543 L 754,534 L 755,533 L 755,527 L 754,526 L 754,518 L 755,517 L 756,518 L 756,525 L 756,524 L 757,523 L 758,523 L 759,524 L 758,521 L 757,522 L 756,521 L 756,518 Z M 752,504 L 753,505 L 753,506 L 754,507 L 754,508 L 755,509 L 754,510 L 754,511 L 755,510 L 757,512 L 757,513 L 758,514 L 758,516 L 757,517 L 756,516 L 756,515 L 755,514 L 755,513 L 755,517 L 754,518 L 753,517 L 753,513 L 752,512 L 752,509 L 751,508 L 751,505 Z M 569,492 L 580,482 L 582,483 L 581,484 L 582,483 L 581,482 L 587,478 L 590,479 L 588,478 L 594,475 L 600,476 L 597,475 L 602,473 L 666,473 L 670,478 L 669,480 L 668,479 L 672,483 L 676,490 L 677,489 L 679,491 L 678,494 L 679,492 L 682,497 L 681,499 L 680,498 L 682,502 L 682,505 L 683,507 L 684,504 L 686,508 L 687,516 L 686,517 L 685,516 L 685,513 L 686,522 L 686,517 L 687,516 L 688,517 L 688,525 L 689,526 L 689,535 L 688,536 L 687,533 L 688,544 L 686,549 L 685,548 L 686,539 L 684,551 L 684,549 L 685,548 L 686,549 L 686,552 L 684,556 L 683,553 L 682,555 L 684,556 L 684,558 L 682,561 L 681,560 L 680,561 L 681,565 L 679,568 L 678,566 L 677,568 L 678,567 L 679,569 L 675,575 L 674,573 L 671,578 L 672,579 L 669,583 L 668,582 L 669,583 L 667,585 L 665,584 L 663,587 L 664,588 L 659,593 L 655,595 L 652,598 L 651,601 L 654,604 L 694,604 L 696,605 L 697,603 L 703,602 L 704,603 L 703,604 L 708,605 L 703,607 L 695,607 L 694,608 L 671,608 L 670,607 L 672,606 L 661,606 L 662,607 L 661,608 L 618,608 L 598,603 L 593,600 L 594,599 L 591,600 L 589,598 L 590,597 L 588,598 L 584,596 L 581,593 L 582,592 L 581,591 L 582,592 L 580,593 L 578,591 L 579,589 L 577,590 L 575,588 L 576,587 L 567,577 L 566,578 L 563,574 L 564,572 L 563,574 L 561,571 L 562,568 L 558,560 L 557,554 L 556,558 L 553,549 L 553,541 L 554,540 L 555,541 L 555,547 L 555,527 L 555,532 L 554,533 L 553,532 L 553,526 L 555,517 L 556,516 L 557,517 L 557,520 L 558,517 L 557,512 L 558,511 L 559,513 L 560,510 L 559,512 L 558,509 L 561,505 L 562,506 L 563,504 L 562,502 L 565,501 Z M 1161,382 L 1162,383 L 1162,388 L 1163,387 L 1164,387 L 1164,386 L 1165,385 L 1166,386 L 1166,388 L 1167,389 L 1167,395 L 1166,396 L 1166,398 L 1165,399 L 1164,398 L 1164,397 L 1163,398 L 1163,399 L 1164,398 L 1165,399 L 1165,400 L 1160,405 L 1159,404 L 1159,396 L 1157,394 L 1157,392 L 1160,389 L 1160,383 Z M 1115,298 L 1116,299 L 1116,300 L 1119,303 L 1118,304 L 1117,304 L 1113,300 Z M 154,247 L 155,246 L 161,246 L 162,247 L 161,248 L 155,248 Z" fill="black" fill-rule="evenodd"/>
</svg>