<?xml version="1.0" encoding="UTF-8" standalone="no"?>
<svg
   width="1300"
   height="250"
   viewBox="0 0 1300 250"
   version="1.1"
   id="svg1"
   sodipodi:docname="gewehr_black.svg"
   inkscape:version="1.4.2 (f4327f4, 2025-05-13)"
   xmlns:inkscape="http://www.inkscape.org/namespaces/inkscape"
   xmlns:sodipodi="http://sodipodi.sourceforge.net/DTD/sodipodi-0.dtd"
   xmlns="http://www.w3.org/2000/svg"
   xmlns:svg="http://www.w3.org/2000/svg">
  <defs
     id="defs1" />
  <sodipodi:namedview
     id="namedview1"
     pagecolor="#ffffff"
     bordercolor="#000000"
     borderopacity="0.25"
     inkscape:showpageshadow="2"
     inkscape:pageopacity="0.0"
     inkscape:pagecheckerboard="0"
     inkscape:deskcolor="#d1d1d1"
     inkscape:zoom="0.55616943"
     inkscape:cx="850.46026"
     inkscape:cy="331.73344"
     inkscape:window-width="2560"
     inkscape:window-height="1377"
     inkscape:window-x="-8"
     inkscape:window-y="-8"
     inkscape:window-maximized="1"
     inkscape:current-layer="svg1" />
  <path
     d="m 1236.6537,33.583537 -1.3214,1.321473 v 0.660737 l -0.6607,0.660737 v 1.321473 l -0.6608,0.660737 v 9.911041 l -0.6607,0.660737 h -0.6608 v 0.660726 l -0.6607,0.660736 v 8.589579 l 0.6607,0.660725 v 1.321474 l -0.6607,0.660737 v 0.660737 l -0.6608,0.660736 v 0.660737 l -1.3214,1.321474 v 0.660737 l -0.6607,0.660736 v 0.660737 l -0.6608,0.660737 v 0.660737 l -0.6607,0.660737 v 0.660725 l -0.6608,0.660737 v 0.660737 l -0.6607,0.660737 v 0.660737 l -1.3214,1.321473 v 0.660737 l -0.6608,0.660737 h -0.6607 l -0.6608,0.660736 v 0.660737 l -1.3215,1.321474 h -59.4662 l -0.6607,-0.660737 h -12.554 l -0.6607,0.660737 h -3.9644 l -1.9823,-1.982211 h -5.2859 l -0.6607,-0.660736 h -1.3214 l -4.6252,-4.625158 v -0.660737 l -0.6607,-0.660725 v -0.660737 l -0.6608,-0.660737 v -1.321474 l -0.6607,-0.660736 v -0.660737 l -0.6608,-0.660737 v -0.660737 l -1.3215,-1.321473 v -0.660737 l -0.6606,-0.660737 h -0.6608 l -0.6607,-0.660737 h -2.643 l -0.6608,-0.660737 h -5.9465 l -0.6608,0.660737 h -1.3215 l -0.6607,-0.660737 h -0.6607 l -0.6608,-0.660725 H 942.62623 l -0.66073,0.660725 h -1.32148 l -0.66073,0.660737 h -0.66074 l -0.66073,0.660737 h -5.94663 l -1.32147,-1.321474 h -0.66074 l -0.66074,-0.660725 h -3.30367 l -0.66074,0.660725 h -1.32147 l -0.66074,-0.660725 v -0.660737 h -10.57177 l -0.66074,0.660737 h -0.66074 l -0.66073,-0.660737 h -7.2681 l -0.66073,-0.660737 H 877.8741 l -0.66073,-0.660737 h -21.14356 l -0.66074,-0.660736 h -25.76871 l -0.66072,-0.660737 h -22.46503 l -0.66074,-0.660737 h -25.10798 l -0.66073,-0.660737 h -22.46502 l -0.66074,-0.660737 h -24.44724 l -0.66073,-0.660736 h -21.14356 l -0.66072,-0.660737 h -13.87547 l -0.66073,-0.660737 h -5.28589 l -0.66073,-0.660737 h -3.96442 l -0.66074,-0.660737 h -2.64295 l -0.66073,-0.660736 h -1.9822 l -0.66074,-0.660726 h -3.30368 l -0.66074,0.660726 h -1.32147 l -0.66074,-0.660726 v -1.321474 l -1.32148,-1.321473 h -3.96441 l -0.66073,0.660736 v 3.96441 l -0.66074,0.660737 h -8.58957 v 5.285894 l -0.66073,0.660737 h -33.03681 l -1.32147,-1.321473 v -0.660737 h -0.66074 l -0.66074,-0.660737 h -66.0736 l -0.66074,-0.660737 v -3.964421 l -1.32147,-1.321462 h -7.92883 l -1.32147,1.321462 v 4.625158 l -0.66074,0.660737 h -9.91104 l -0.66074,-0.660737 h -1.9822 l -0.66073,-0.660737 h -9.25031 l -0.66073,-0.660737 v -2.642947 l -1.32148,-1.321473 h -7.92883 l -0.66074,-0.660726 H 410.07297 l -0.66073,-0.660737 h -0.66074 l -0.66074,-0.660737 h -0.66074 l -0.66073,-0.660737 h -0.66074 l -0.66074,-0.660736 h -0.66073 l -0.66074,-0.660737 h -0.66074 l -0.66073,-0.660737 h -0.66074 l -0.66073,-0.660737 h -0.66073 l -0.66074,-0.660737 h -6.60737 l -0.66073,0.660737 h -0.66074 v 5.94662 l -1.32146,1.321474 v 1.98221 l -0.66074,0.660737 h -22.46503 l -1.32147,1.321474 v 1.98221 l -0.66074,0.660737 v 9.250304 l 0.66074,0.660737 v 0.660737 l 1.32147,1.321462 h 1.98221 l 0.66074,0.660737 v 5.285894 l -1.98221,1.982211 h -1.32148 l -0.66073,0.660736 h -0.66074 l -0.66074,0.660726 h -0.66073 l -0.66074,0.660737 h -0.66074 l -0.66073,0.660737 h -0.66073 l -0.66074,0.660737 h -0.66073 l -0.66074,0.660736 h -1.32147 l -0.66074,0.660737 h -0.66074 l -0.66073,0.660737 h -0.66074 l -0.66074,0.660737 h -0.66073 l -0.66074,0.660737 h -0.66074 l -0.66073,0.660736 h -1.32147 l -0.66073,0.660739 h -0.66074 l -0.66074,0.660737 h -0.66073 l -0.66074,0.660737 h -1.32147 l -0.66074,0.660737 h -0.66074 l -0.66073,0.660737 h -1.32148 l -0.66073,0.660725 h -0.66073 l -0.66074,0.660737 h -0.66073 l -0.66074,0.660737 h -1.32147 l -0.66074,0.660737 H 337.392 l -0.66073,0.660736 h -1.32148 l -0.66074,0.660737 h -0.66073 l -0.66074,0.660737 h -1.32146 l -0.66074,0.660737 h -0.66074 l -0.66073,0.660737 h -1.32148 l -0.66073,0.660736 h -1.32148 l -0.66073,0.660737 h -1.32148 l -0.66073,0.660737 h -0.66074 l -0.66074,0.660737 h -1.9822 l -0.66073,0.660737 h -0.66074 l -0.66074,0.660736 h -1.98221 l -0.66073,0.660726 h -1.32148 l -0.66073,0.660737 h -1.32148 l -0.66072,0.660739 h -1.32148 l -0.66073,0.66073 h -1.98221 l -0.66074,0.66074 h -1.98221 l -0.66074,0.66074 h -1.98221 l -0.66072,0.66073 h -2.64295 l -0.66074,0.66074 h -2.64295 l -0.66073,0.66074 h -4.62515 l -0.66074,0.66074 h -13.21472 l -0.66074,-0.66074 h -3.96442 l -0.66072,-0.66074 h -1.98221 l -0.66074,-0.66074 h -1.32147 l -0.66074,-0.66073 h -0.66074 l -1.32147,-1.32148 h -0.66074 l -1.32147,-1.321469 h -0.66074 l -1.32146,-1.321463 h -0.66074 l -0.66073,-0.660736 h -1.32148 l -0.66074,-0.660737 h -1.32147 l -0.66074,-0.660737 h -4.62514 l -0.66074,-0.660737 h -29.73312 l -0.66074,0.660737 h -11.89325 l -0.66074,0.660737 h -11.23251 l -0.66074,0.660737 h -12.55399 l -0.66072,0.660736 h -11.89325 l -0.66074,0.660726 h -11.89325 l -0.66074,0.660737 h -9.91104 l -0.66074,0.660739 h -10.57177 l -0.66074,0.66073 h -11.23251 l -0.66074,0.66074 h -11.2325 l -0.66074,0.66074 h -10.57178 l -0.66074,0.66073 H 89.615979 l -0.660737,0.66074 H 77.722727 l -0.660736,0.66074 H 64.508003 l -0.660737,0.66074 H 53.275499 l -0.660737,0.66073 H 34.77488 l -0.660737,0.66074 h -6.607357 l -0.660737,0.66074 h -1.321473 l -0.660737,0.66073 h -1.321462 l -1.321474,1.32147 h -0.660737 l -1.321473,1.32147 v 0.66074 l -0.660737,0.66073 v 0.66074 l -0.660737,0.66074 v 6.60735 l 0.660737,0.66074 v 2.64295 l 0.660737,0.66073 v 2.64295 l 0.660736,0.66074 v 3.96441 l 0.660737,0.66073 v 3.96442 l 0.660737,0.66074 v 4.62515 l 0.660737,0.66073 v 5.2859 l 0.660737,0.66074 v 8.58956 l 0.660725,0.66074 v 12.55398 l 0.660737,0.66073 v 24.44724 l -0.660737,0.66074 v 15.19692 l -0.660725,0.66074 v 3.30369 l 0.660725,0.66073 v 7.2681 l 0.660737,0.66073 v 1.98221 l 0.660737,0.66074 v 1.32147 l 0.660737,0.66074 v 0.66074 l 0.660736,0.66072 v 0.66074 l 3.303684,3.30368 h 1.321474 l 0.660737,0.66074 h 4.625146 l 0.660737,-0.66074 h 1.982211 l 0.660736,-0.66073 h 1.982211 l 0.660737,-0.66074 h 1.982199 l 0.660737,-0.66074 h 2.642947 l 0.660737,-0.66073 h 1.98221 l 0.660737,-0.66074 h 1.98221 l 0.660726,-0.66074 h 1.98221 l 0.660737,-0.66072 h 1.982211 l 0.660736,-0.66074 h 1.321474 l 0.660737,-0.66074 h 1.98221 l 0.660726,-0.66073 h 1.98221 l 0.660737,-0.66074 h 1.98221 l 0.660737,-0.66074 h 1.982211 l 0.660736,-0.66073 h 1.9822 l 0.660736,-0.66074 h 1.982211 l 0.660737,-0.66074 h 1.321473 l 0.660737,-0.66073 h 1.98221 l 0.660737,-0.66074 h 1.321474 l 0.660726,-0.66074 h 1.98221 l 0.660737,-0.66073 h 1.321473 l 0.660737,-0.66074 h 1.982211 l 0.660736,-0.66074 h 1.321474 l 0.660737,-0.66072 h 1.982199 l 0.660737,-0.66074 h 1.98221 l 0.660737,-0.66074 h 1.321474 l 0.66074,-0.66073 h 1.98221 l 0.66073,-0.66074 h 1.32147 l 0.66073,-0.66074 h 1.98221 l 0.66074,-0.66073 h 1.32147 l 0.66074,-0.66074 h 1.32148 l 0.66073,-0.66074 h 1.98221 l 0.66073,-0.66074 h 1.98221 l 0.66074,-0.66073 h 1.32147 l 0.66074,-0.66074 h 1.98221 l 0.66073,-0.66074 h 1.32148 l 0.66073,-0.66073 h 1.32147 l 0.66073,-0.66074 h 1.32148 l 0.66073,-0.66073 h 1.98221 l 0.66074,-0.66073 h 1.32147 l 0.66074,-0.66074 h 1.32147 l 0.66073,-0.66074 h 1.98221 l 0.66074,-0.66073 h 1.98221 l 0.66073,-0.66074 h 1.32148 l 0.66073,-0.66074 h 1.98222 l 0.66072,-0.66073 h 1.98221 l 0.66074,0.66073 h 0.66073 l 0.66074,0.66074 h 1.32148 l 1.32147,1.32147 v 1.32148 l 0.66074,0.66073 v 0.66073 l 0.66073,0.66074 v 0.66073 l 2.64294,2.64295 h 1.32147 l 0.66074,0.66074 h 2.64295 l 0.66073,-0.66074 h 0.66074 l 0.66074,-0.66074 h 0.66073 l 1.32148,-1.32147 v -0.66074 l 0.66072,-0.66073 v -0.66074 l 0.66074,-0.66073 v -7.2681 l 0.66074,-0.66074 v -0.66073 l 0.66073,-0.66074 v -1.32146 l 0.66074,-0.66074 h 1.32147 l 0.66074,-0.66074 h 1.32147 l 0.66074,-0.66073 h 1.32147 l 0.66074,-0.66074 h 1.32146 l 0.66074,-0.66074 h 1.32147 l 0.66074,-0.66073 h 1.32147 l 0.66074,-0.66074 h 1.32147 l 0.66074,-0.66074 h 1.32147 l 0.66074,-0.66073 h 1.9822 l 0.66074,-0.66074 h 0.66073 l 0.66074,-0.66074 h 1.32148 l 0.66073,-0.66073 h 1.32148 l 0.66073,-0.66074 h 1.32148 l 0.66073,-0.66073 h 1.32147 l 0.66073,-0.66073 h 1.32148 l 0.66073,-0.66074 h 1.32148 l 0.66073,-0.66074 h 1.32148 l 0.66073,-0.66073 h 0.66074 l 0.66074,-0.66074 h 1.32147 l 0.66073,-0.66074 h 1.32147 l 0.66074,-0.66073 h 1.32147 l 0.66074,-0.66074 h 1.32147 l 0.66074,-0.66074 h 1.32147 l 0.66074,-0.66073 h 1.32147 l 0.66073,-0.66074 h 1.32147 l 0.66074,-0.66074 h 1.32147 l 0.66074,-0.66074 h 0.66073 l 0.66074,-0.66073 h 1.32147 l 0.66074,-0.66073 h 1.32148 l 0.66073,-0.66073 h 1.32146 l 0.66074,-0.66074 h 1.32147 l 0.66074,-0.66074 h 0.66074 l 0.66074,-0.66073 h 1.32147 l 0.66074,-0.66074 h 1.32147 l 0.66074,-0.66074 h 1.32146 l 0.66074,-0.66074 h 1.32147 l 0.66074,-0.66073 h 0.66073 l 0.66074,-0.66074 h 1.32147 l 0.66074,-0.66074 h 1.32147 l 0.66074,-0.66073 h 1.32147 l 0.66073,-0.66074 h 1.32147 l 0.66074,-0.66074 h 1.98221 l 0.66074,-0.66073 h 1.32147 l 0.66074,-0.66073 h 1.98221 l 0.66073,-0.66074 h 9.91105 l 0.66072,0.66074 h 1.98221 l 0.66074,0.66073 h 1.98221 l 0.66074,0.66073 h 1.32147 l 0.66074,0.66074 h 1.32147 l 0.66074,0.66074 h 1.32146 l 0.66074,0.66073 h 1.32147 l 0.66074,0.66074 h 0.66073 l 0.66074,0.66074 h 1.32147 l 0.66074,0.66073 h 1.32147 l 0.66074,0.66074 h 1.32146 l 0.66074,0.66074 h 1.32147 l 0.66074,0.66074 h 1.98221 l 0.66074,0.66073 h 2.64294 l 0.66074,0.66074 h 1.9822 l 0.66074,-0.66074 h 1.32147 l 0.66074,-0.66073 h 0.66073 l 1.32148,-1.32148 v -0.66074 l 5.28588,-5.28588 v -0.66074 l 15.19694,-15.19693 h 0.66073 l 2.64295,-2.64295 h 0.66074 l 1.9822,-1.9822 h 0.66073 l 1.98221,-1.98221 h 0.66074 l 1.32147,-1.32147 h 0.66074 l 0.66074,-0.66074 h 0.66073 l 1.32148,-1.32147 h 0.66072 l 0.66074,-0.66074 h 0.66074 l 1.32147,-1.32147 h 1.32148 l 0.66073,-0.66074 h 0.66074 l 0.66074,-0.66074 h 0.66073 l 0.66074,-0.66073 h 0.66074 l 0.66073,-0.66073 h 1.32147 l 0.66073,-0.66073 h 0.66074 l 0.66074,-0.66074 h 1.32147 l 0.66074,-0.66074 h 0.66073 l 0.66074,-0.66074 h 1.32147 l 0.66074,-0.66073 h 1.98221 l 0.66073,-0.66074 h 1.32147 l 0.66074,-0.66074 h 2.64294 l 0.66074,-0.66073 h 1.98221 l 0.66074,-0.66074 h 3.96441 l 0.66073,-0.66074 h 1.98221 l 0.66074,0.66074 h 0.66074 l 0.66073,0.66074 h 0.66074 l 3.30367,3.30368 v 0.66074 l 0.66074,0.66074 v 1.32146 l 0.66074,0.66073 v 10.57178 l 0.66074,0.66074 v 1.98221 l 0.66073,0.66074 v 1.32147 l 0.66074,0.66074 v 0.66073 l 0.66074,0.66074 v 0.66074 l 1.32147,1.32147 v 0.66073 l 3.96441,3.96442 h 0.66074 l 1.32147,1.32147 h 0.66074 l 0.66073,0.66074 h 0.66074 l 0.66074,0.66073 h 1.32147 l 0.66074,0.66074 h 1.32147 l 0.66074,0.66074 h 2.64293 l 0.66074,0.66073 h 25.10798 l 0.66073,-0.66073 h 4.62515 l 0.66074,-0.66074 h 1.32147 l 0.66074,-0.66074 h 1.32147 l 0.66074,-0.66073 h 0.66073 l 1.32148,-1.32148 h 0.66072 l 1.32148,-1.32147 h 0.66073 l 3.30369,-3.30368 v -0.66073 l 1.32147,-1.32147 v -0.66074 l 0.66074,-0.66074 v -0.66073 l 0.66073,-0.66074 v -0.66074 l 0.66074,-0.66073 v -1.98221 l 0.66074,-0.66074 v -11.89325 l 0.66072,-0.66073 v -1.32147 l 0.66074,-0.66074 v -0.66074 l 0.66074,-0.66073 v -0.66074 l 1.98221,-1.98221 h 0.66073 l 1.32148,-1.32147 h 13.21472 l 0.66074,-0.66074 h 11.2325 l 0.66074,0.66074 v 0.66073 l 0.66074,0.66074 v 2.64295 l 1.32147,1.32147 h 1.32147 l 1.32148,-1.32147 v -1.32148 l 0.66073,-0.66073 v -1.32148 l 1.32148,-1.32147 v -0.66074 l 0.66073,-0.66073 h 16.5184 l 0.66074,-0.66073 h 10.57178 l 1.32147,-1.32147 h 11.23252 l 0.66073,-0.66074 h 9.25031 l 0.66073,0.66074 v 4.62514 l 0.66073,0.66074 v 5.94663 l 0.66074,0.66073 v 4.62516 l 0.66073,0.66073 v 3.96442 l 0.66074,0.66074 v 3.30367 l 0.66074,0.66074 v 3.30368 l 0.66073,0.66074 v 2.64294 l 0.66074,0.66073 v 2.64295 l 0.66074,0.66074 v 2.64294 l 0.66073,0.66074 v 2.64294 l 0.66074,0.66073 v 1.98221 l 0.66074,0.66074 v 2.64295 l 0.66073,0.66074 v 1.98221 l 0.66074,0.66073 v 0.66073 l -1.32147,1.32147 v 1.98221 l 0.66073,0.66074 v 1.32147 h 1.98221 l 0.66073,-0.66073 h 1.98221 l 0.66074,-0.66074 h 1.98221 l 0.66073,-0.66074 h 1.98221 l 0.66074,-0.66073 h 2.64294 l 0.66073,-0.66074 h 1.98221 l 0.66074,-0.66074 h 1.98221 l 0.66074,-0.66074 h 1.98221 l 0.66074,-0.66073 h 1.98219 l 0.66074,-0.66073 h 2.64295 l 0.66074,-0.66073 h 1.32147 l 0.66074,-0.66074 h 2.64293 l 0.66074,-0.66074 h 1.98221 l 0.66074,-0.66073 h 1.98221 l 0.66073,-0.66074 h 1.98221 l 0.66074,-0.66074 h 1.9822 l 0.66074,-0.66074 h 2.64294 l 0.66074,-0.66073 h 1.98221 l 0.66074,-0.66074 h 1.98221 l 0.66072,-0.66074 h 1.98221 l 0.66074,-0.66073 h 2.64295 l 0.66074,-0.66074 h 1.98221 l 0.66073,-0.66074 h 2.64294 l 0.66074,-0.66073 h 1.98221 l 0.66073,-0.66073 h 2.64295 l 0.66074,-0.66074 h 1.9822 l 0.66073,-0.66073 h 1.98221 l 0.66074,-0.66074 h 2.64295 l 0.66073,-0.66074 h 2.64295 l 0.66073,-0.66073 h 1.98221 l 0.66073,-0.66074 h 1.32148 l 0.66073,-0.66074 v -1.32147 l -0.66073,-0.66074 v -0.66073 l -0.66074,-0.66074 h -0.66074 l -0.66073,-0.66074 v -1.32146 l -0.66074,-0.66074 v -2.64294 l -0.66074,-0.66074 v -3.30368 l -0.66073,-0.66074 v -3.30367 l -0.66073,-0.66074 v -3.30368 l -0.66074,-0.66074 v -4.62515 l -0.66073,-0.66073 v -5.2859 l -0.66074,-0.66074 v -7.26809 l -0.66074,-0.66074 v -1.98221 l 0.66074,-0.66073 h 13.87545 l 0.66074,-0.66074 h 11.23251 l 0.66074,-0.66074 h 11.23251 l 0.66074,-0.66073 h 14.53619 l 0.66073,-0.66073 h 13.21473 l 0.66074,-0.66074 h 15.19692 l 0.66074,-0.66073 h 13.87546 l 0.66074,-0.66074 h 11.89325 l 0.66073,-0.66074 h 15.19693 l 0.66073,-0.66073 h 13.21473 l 0.66074,-0.66074 h 12.55397 l 0.66074,-0.66074 h 13.87546 l 0.66074,-0.66073 h 13.87545 l 0.66074,-0.66074 h 13.87546 l 0.66073,-0.66074 h 15.19693 l 0.66074,-0.66073 h 13.87546 l 0.66073,-0.66074 h 14.53619 l 0.66074,-0.66074 h 13.87546 l 0.66074,-0.66073 h 13.87546 l 0.66072,-0.66073 h 13.87547 l 0.66073,-0.66074 h 6.60736 l 0.66074,0.66074 v 1.9822 l 1.32147,1.32147 h 7.92883 l 0.66074,-0.66073 h 0.66073 l 0.66074,-0.66074 h 0.66074 v -0.66074 l 0.66073,-0.66073 v -1.32147 l 0.66074,-0.66073 h 25.10797 l 0.66073,-0.66074 h 35.67976 l 0.66073,-0.66074 h 39.64415 l 0.6608,-0.66073 h 45.5907 l 0.6607,-0.66074 h 48.2337 l 0.6608,-0.66074 h 6.6074 l 0.6607,-0.66074 h 11.8932 l 0.6608,-0.66073 h 0.6607 l 1.3215,-1.32148 v -0.66073 l 0.6608,-0.660739 v -4.625147 l 0.6607,-0.660736 h 1.9822 l 0.6607,0.660736 v 5.285886 l 0.6608,0.66073 v 0.66074 l 0.6607,0.66074 v 0.66073 l -0.6607,0.66074 v 1.32148 l -0.6608,0.66073 v 7.2681 l 0.6608,0.66073 v 1.32148 l 3.3036,3.30368 h 5.9467 l 0.6607,-0.66074 h 0.6608 l 1.3215,-1.32147 v -0.66074 l 0.6606,-0.66073 v -0.66074 l 0.6608,-0.66074 v -7.26809 l -0.6608,-0.66074 v -1.32147 l -0.6606,-0.66074 v -1.32147 l 0.6606,-0.66074 v -0.66074 l 0.6608,-0.66073 v -0.660739 l 0.6607,-0.660737 v -3.96441 l 0.6607,-0.660736 h 59.4663 l 0.6607,0.660736 v 0.660737 l 1.3215,1.321474 h 0.6608 l 0.6606,0.660737 h 30.3939 l 0.6608,-0.660737 h 0.6607 l 0.6608,-0.660737 v -0.660737 l 1.3215,-1.321473 h 3.9643 l 0.6608,-0.660737 h 4.6251 l 0.6608,0.660737 h 14.5362 l 0.6607,-0.660737 h 0.6608 v -0.660737 l 1.3214,-1.321474 V 79.835057 l -0.6608,-0.660737 v -0.660726 l -1.3214,-1.321473 h -15.1969 l -0.6608,0.660737 h -4.6251 l -0.6608,-0.660737 h -3.9643 l -0.6608,-0.660737 v -0.660737 l -2.643,-2.642947 v -9.911041 l 0.6608,-0.660737 v -3.303684 l 0.6607,-0.660725 h 0.6608 l 0.6607,-0.660737 v -8.589578 l -1.9822,-1.9822 V 36.887221 l -0.6608,-0.660737 V 34.90501 l -1.3214,-1.321473 z M 156.35032,200.08902 l 0.66074,-0.66073 h 1.98221 l 0.66073,0.66073 v 6.60737 l -0.66073,0.66074 h -0.66074 l -0.66074,0.66073 h -0.66073 l -1.32148,-1.32147 v -0.66074 l -0.66073,-0.66073 v -0.66074 l -0.66074,-0.66074 v -0.66073 l -0.66074,-0.66074 v -0.66074 l -0.66072,-0.66073 0.66072,-0.66074 h 0.66074 l 0.66074,-0.66074 z m 253.72265,-71.35949 h 17.83987 l 0.66074,0.66073 h 0.66074 l 1.32147,1.32148 h 0.66074 l 3.30367,3.30368 v 0.66074 l 0.66074,0.66073 v 0.66074 l 0.66073,0.66074 v 0.66074 l 0.66074,0.66073 v 1.32146 l 0.66074,0.66074 v 9.25031 l -0.66074,0.66073 v 1.32148 l -0.66074,0.66073 v 1.32148 l -0.66073,0.66073 v 0.66074 l -1.98221,1.98221 v 0.66074 l -1.32148,1.32147 h -0.66072 l -1.98221,1.9822 h -0.66074 l -0.66074,0.66074 h -0.66073 l -0.66074,0.66073 h -1.32147 l -0.66074,0.66074 h -1.98221 l -0.66074,0.66074 H 394.2153 l -0.66074,-0.66074 h -1.9822 l -0.66073,-0.66074 h -1.32148 l -0.66073,-0.66073 h -0.66074 l -0.66074,-0.66074 h -0.66073 l -0.66074,-0.66074 h -0.66074 l -3.96441,-3.96441 v -0.66073 l -1.32147,-1.32148 v -1.32147 l -0.66074,-0.66074 v -1.32147 l -0.66073,-0.66074 v -9.2503 l 0.66073,-0.66074 v -1.32147 l 0.66074,-0.66073 v -0.66073 l 1.32147,-1.32148 v -0.66074 l 3.30368,-3.30368 h 0.66073 l 1.32148,-1.32147 h 0.66073 l 0.66074,-0.66074 h 3.96441 l 0.66074,-0.66074 h 4.62515 l 0.66074,0.66074 v 0.66074 l -0.66074,0.66073 v 0.66074 l -1.32147,1.32147 v 0.66074 l -0.66074,0.66074 v 0.66073 l -0.66073,0.66074 v 0.66074 l -0.66074,0.66074 v 1.98219 l -0.66074,0.66074 v 6.60737 l 0.66074,0.66074 v 1.9822 l 0.66074,0.66073 v 0.66074 l 0.66073,0.66074 v 0.66073 l 0.66074,0.66074 v 0.66074 l 0.66074,0.66073 v 0.66074 l 3.96442,3.96442 h 1.32146 l 0.66074,-0.66074 v -1.98221 l -1.32147,-1.32147 v -0.66074 l -1.98221,-1.98221 v -1.32147 l -0.66073,-0.66074 v -0.66073 l -0.66074,-0.66073 v -7.26811 l 0.66074,-0.66073 v -1.32148 l 0.66073,-0.66073 v -0.66073 l 1.32148,-1.32147 v -0.66074 l 3.96441,-3.96442 h 0.66073 l 1.32148,-1.32147 h 0.66073 l 0.66074,-0.66074 h 0.66074 z m 742.66733,-22.46502 0.6607,-0.66074 h 2.643 l 0.6607,0.66074 v 0.66074 l 0.6607,0.66073 v 3.96441 l -1.9821,1.98221 h -0.6608 l -1.9822,-1.98221 z m -89.1994,-37.001231 h 29.7331 l 1.3215,1.321474 v 3.303684 l -0.6607,0.660737 h -0.6608 l -0.6606,0.660736 h -29.0725 l -1.9821,-1.98221 v -1.98221 z m -54.1803,0 h 29.7331 l 1.9822,1.982211 v 1.98221 l -1.9822,1.98221 h -29.7331 l -1.3214,-1.321473 V 73.2277 l -0.6608,-0.660737 V 71.24549 Z m -475.72999,0.660737 0.66074,-0.660737 h 9.2503 l 0.66074,0.660737 v 0.660737 l -1.32148,1.321474 h -0.66073 v 1.98221 l -0.66074,0.660737 h -20.48281 l -0.66073,-0.660737 v -3.303684 l 0.66073,-0.660737 z m 445.99684,-0.660737 0.66074,-0.660725 0.66073,0.660725 h 3.96442 l 1.98221,1.982211 v 1.98221 l -1.98221,1.98221 h -29.73312 l -1.98221,-1.98221 v -1.98221 l 1.98221,-1.982211 z m -355.476,-1.982199 h 33.03681 l 0.66073,0.660737 v 5.94662 l -0.66073,0.660737 h -99.11041 l -0.66074,-0.660737 v -1.321474 l -1.98221,-1.98221 v -0.660737 l 0.66074,-0.660737 h 9.2503 l 0.66074,0.660737 h 3.96442 l 0.66074,-0.660737 h 28.41165 l 0.66073,0.660737 h 7.92883 l 0.66074,-0.660737 h 9.91104 l 0.66074,0.660737 h 1.9822 l 0.66073,-0.660737 h 0.66074 z m 615.14525,-5.946631 h 10.5718 l 2.6429,2.642947 v 5.94662 l -0.6607,0.660737 v 0.660737 l -0.6608,0.660737 h -0.6606 l -0.6608,0.660736 h -11.8933 l -0.6607,-0.660736 h -0.6608 l -1.3214,-1.321474 v -1.321474 l -0.6607,-0.660725 v -0.660737 l 0.6607,-0.660737 v -0.660737 l 0.6607,-0.660737 V 65.29887 l 0.6607,-0.660737 v -0.660737 z"
     fill="#000000"
     fill-rule="evenodd"
     id="path1"
     style="stroke-width:0.660736" />
</svg>
