<svg xmlns="http://www.w3.org/2000/svg" width="2172" height="724" viewBox="0 0 2172 724">
  <rect width="100%" height="100%" fill="white"/>
  <path d="M 1968 226 L 1966 228 L 1966 229 L 1965 230 L 1965 232 L 1964 233 L 1964 248 L 1963 249 L 1962 249 L 1962 250 L 1961 251 L 1961 264 L 1962 265 L 1962 267 L 1961 268 L 1961 269 L 1960 270 L 1960 271 L 1958 273 L 1958 274 L 1957 275 L 1957 276 L 1956 277 L 1956 278 L 1955 279 L 1955 280 L 1954 281 L 1954 282 L 1953 283 L 1953 284 L 1951 286 L 1951 287 L 1950 288 L 1949 288 L 1948 289 L 1948 290 L 1946 292 L 1856 292 L 1855 291 L 1836 291 L 1835 292 L 1829 292 L 1826 289 L 1818 289 L 1817 288 L 1815 288 L 1808 281 L 1808 280 L 1807 279 L 1807 278 L 1806 277 L 1806 275 L 1805 274 L 1805 273 L 1804 272 L 1804 271 L 1802 269 L 1802 268 L 1801 267 L 1800 267 L 1799 266 L 1795 266 L 1794 265 L 1785 265 L 1784 266 L 1782 266 L 1781 265 L 1780 265 L 1779 264 L 1523 264 L 1522 265 L 1520 265 L 1519 266 L 1518 266 L 1517 267 L 1508 267 L 1506 265 L 1505 265 L 1504 264 L 1499 264 L 1498 265 L 1496 265 L 1495 264 L 1495 263 L 1479 263 L 1478 264 L 1477 264 L 1476 263 L 1465 263 L 1464 262 L 1425 262 L 1424 261 L 1392 261 L 1391 260 L 1352 260 L 1351 259 L 1317 259 L 1316 258 L 1278 258 L 1277 257 L 1243 257 L 1242 256 L 1205 256 L 1204 255 L 1172 255 L 1171 254 L 1150 254 L 1149 253 L 1141 253 L 1140 252 L 1134 252 L 1133 251 L 1129 251 L 1128 250 L 1125 250 L 1124 249 L 1119 249 L 1118 250 L 1116 250 L 1115 249 L 1115 247 L 1113 245 L 1107 245 L 1106 246 L 1106 252 L 1105 253 L 1092 253 L 1092 261 L 1091 262 L 1041 262 L 1039 260 L 1039 259 L 1038 259 L 1037 258 L 937 258 L 936 257 L 936 251 L 934 249 L 922 249 L 920 251 L 920 258 L 919 259 L 904 259 L 903 258 L 900 258 L 899 257 L 885 257 L 884 256 L 884 252 L 882 250 L 870 250 L 869 249 L 717 249 L 716 248 L 715 248 L 714 247 L 713 247 L 712 246 L 711 246 L 710 245 L 709 245 L 708 244 L 707 244 L 706 243 L 705 243 L 704 242 L 703 242 L 702 241 L 692 241 L 691 242 L 690 242 L 690 251 L 688 253 L 688 256 L 687 257 L 653 257 L 651 259 L 651 262 L 650 263 L 650 277 L 651 278 L 651 279 L 653 281 L 656 281 L 657 282 L 657 290 L 654 293 L 652 293 L 651 294 L 650 294 L 649 295 L 648 295 L 647 296 L 646 296 L 645 297 L 644 297 L 643 298 L 642 298 L 641 299 L 639 299 L 638 300 L 637 300 L 636 301 L 635 301 L 634 302 L 633 302 L 632 303 L 631 303 L 630 304 L 628 304 L 627 305 L 626 305 L 625 306 L 624 306 L 623 307 L 621 307 L 620 308 L 619 308 L 618 309 L 616 309 L 615 310 L 614 310 L 613 311 L 612 311 L 611 312 L 609 312 L 608 313 L 607 313 L 606 314 L 604 314 L 603 315 L 602 315 L 601 316 L 599 316 L 598 317 L 597 317 L 596 318 L 594 318 L 593 319 L 591 319 L 590 320 L 588 320 L 587 321 L 586 321 L 585 322 L 582 322 L 581 323 L 580 323 L 579 324 L 576 324 L 575 325 L 573 325 L 572 326 L 570 326 L 569 327 L 567 327 L 566 328 L 563 328 L 562 329 L 559 329 L 558 330 L 555 330 L 554 331 L 550 331 L 549 332 L 545 332 L 544 333 L 537 333 L 536 334 L 516 334 L 515 333 L 509 333 L 508 332 L 505 332 L 504 331 L 502 331 L 501 330 L 500 330 L 498 328 L 497 328 L 495 326 L 494 326 L 492 324 L 491 324 L 490 323 L 488 323 L 487 322 L 485 322 L 484 321 L 477 321 L 476 320 L 431 320 L 430 321 L 412 321 L 411 322 L 394 322 L 393 323 L 374 323 L 373 324 L 355 324 L 354 325 L 336 325 L 335 326 L 320 326 L 319 327 L 303 327 L 302 328 L 285 328 L 284 329 L 267 329 L 266 330 L 250 330 L 249 331 L 232 331 L 231 332 L 214 332 L 213 333 L 194 333 L 193 334 L 177 334 L 176 335 L 149 335 L 148 336 L 138 336 L 137 337 L 135 337 L 134 338 L 132 338 L 130 340 L 129 340 L 127 342 L 127 343 L 126 344 L 126 345 L 125 346 L 125 356 L 126 357 L 126 361 L 127 362 L 127 366 L 128 367 L 128 373 L 129 374 L 129 380 L 130 381 L 130 388 L 131 389 L 131 397 L 132 398 L 132 411 L 133 412 L 133 431 L 134 432 L 134 469 L 133 470 L 133 493 L 132 494 L 132 499 L 133 500 L 133 511 L 134 512 L 134 515 L 135 516 L 135 518 L 136 519 L 136 520 L 137 521 L 137 522 L 142 527 L 144 527 L 145 528 L 152 528 L 153 527 L 156 527 L 157 526 L 160 526 L 161 525 L 164 525 L 165 524 L 169 524 L 170 523 L 173 523 L 174 522 L 177 522 L 178 521 L 181 521 L 182 520 L 185 520 L 186 519 L 188 519 L 189 518 L 192 518 L 193 517 L 196 517 L 197 516 L 200 516 L 201 515 L 204 515 L 205 514 L 208 514 L 209 513 L 212 513 L 213 512 L 215 512 L 216 511 L 219 511 L 220 510 L 222 510 L 223 509 L 226 509 L 227 508 L 229 508 L 230 507 L 233 507 L 234 506 L 236 506 L 237 505 L 240 505 L 241 504 L 244 504 L 245 503 L 247 503 L 248 502 L 251 502 L 252 501 L 254 501 L 255 500 L 258 500 L 259 499 L 261 499 L 262 498 L 264 498 L 265 497 L 268 497 L 269 496 L 272 496 L 273 495 L 275 495 L 276 494 L 279 494 L 280 493 L 282 493 L 283 492 L 285 492 L 286 491 L 288 491 L 289 490 L 292 490 L 293 489 L 295 489 L 296 488 L 298 488 L 299 487 L 302 487 L 303 486 L 306 486 L 307 485 L 309 485 L 310 484 L 313 484 L 314 483 L 317 483 L 318 484 L 319 484 L 320 485 L 322 485 L 324 487 L 324 489 L 325 490 L 325 491 L 326 492 L 326 493 L 330 497 L 332 497 L 333 498 L 337 498 L 338 497 L 339 497 L 340 496 L 341 496 L 343 494 L 343 493 L 344 492 L 344 491 L 345 490 L 345 479 L 346 478 L 346 477 L 347 476 L 347 474 L 348 473 L 350 473 L 351 472 L 353 472 L 354 471 L 356 471 L 357 470 L 359 470 L 360 469 L 362 469 L 363 468 L 365 468 L 366 467 L 368 467 L 369 466 L 371 466 L 372 465 L 375 465 L 376 464 L 377 464 L 378 463 L 380 463 L 381 462 L 383 462 L 384 461 L 386 461 L 387 460 L 389 460 L 390 459 L 392 459 L 393 458 L 395 458 L 396 457 L 398 457 L 399 456 L 400 456 L 401 455 L 403 455 L 404 454 L 406 454 L 407 453 L 409 453 L 410 452 L 412 452 L 413 451 L 415 451 L 416 450 L 418 450 L 419 449 L 421 449 L 422 448 L 424 448 L 425 447 L 426 447 L 427 446 L 429 446 L 430 445 L 432 445 L 433 444 L 435 444 L 436 443 L 438 443 L 439 442 L 440 442 L 441 441 L 443 441 L 444 440 L 446 440 L 447 439 L 449 439 L 450 438 L 452 438 L 453 437 L 454 437 L 455 436 L 457 436 L 458 435 L 460 435 L 461 434 L 463 434 L 464 433 L 466 433 L 467 432 L 470 432 L 471 431 L 473 431 L 474 430 L 477 430 L 478 429 L 493 429 L 494 430 L 497 430 L 498 431 L 501 431 L 502 432 L 504 432 L 505 433 L 507 433 L 508 434 L 510 434 L 511 435 L 513 435 L 514 436 L 515 436 L 516 437 L 518 437 L 519 438 L 521 438 L 522 439 L 524 439 L 525 440 L 527 440 L 528 441 L 531 441 L 532 442 L 536 442 L 537 443 L 540 443 L 541 442 L 543 442 L 544 441 L 545 441 L 547 439 L 547 438 L 555 430 L 555 429 L 578 406 L 579 406 L 583 402 L 584 402 L 587 399 L 588 399 L 591 396 L 592 396 L 594 394 L 595 394 L 596 393 L 597 393 L 599 391 L 600 391 L 601 390 L 602 390 L 604 388 L 606 388 L 607 387 L 608 387 L 609 386 L 610 386 L 611 385 L 612 385 L 613 384 L 615 384 L 616 383 L 617 383 L 618 382 L 620 382 L 621 381 L 622 381 L 623 380 L 625 380 L 626 379 L 629 379 L 630 378 L 632 378 L 633 377 L 637 377 L 638 376 L 641 376 L 642 375 L 648 375 L 649 374 L 652 374 L 653 375 L 654 375 L 655 376 L 656 376 L 661 381 L 661 382 L 662 383 L 662 385 L 663 386 L 663 402 L 664 403 L 664 406 L 665 407 L 665 409 L 666 410 L 666 411 L 667 412 L 667 413 L 669 415 L 669 416 L 675 422 L 676 422 L 678 424 L 679 424 L 680 425 L 681 425 L 682 426 L 684 426 L 685 427 L 687 427 L 688 428 L 692 428 L 693 429 L 731 429 L 732 428 L 739 428 L 740 427 L 742 427 L 743 426 L 745 426 L 746 425 L 747 425 L 749 423 L 750 423 L 752 421 L 753 421 L 758 416 L 758 415 L 760 413 L 760 412 L 761 411 L 761 410 L 762 409 L 762 408 L 763 407 L 763 404 L 764 403 L 764 385 L 765 384 L 765 382 L 766 381 L 766 380 L 767 379 L 767 378 L 770 375 L 771 375 L 773 373 L 793 373 L 794 372 L 811 372 L 812 373 L 812 374 L 813 375 L 813 379 L 815 381 L 817 381 L 819 379 L 819 377 L 820 376 L 820 374 L 822 372 L 822 371 L 823 370 L 848 370 L 849 369 L 865 369 L 867 367 L 884 367 L 885 366 L 899 366 L 900 367 L 900 374 L 901 375 L 901 384 L 902 385 L 902 392 L 903 393 L 903 399 L 904 400 L 904 405 L 905 406 L 905 411 L 906 412 L 906 416 L 907 417 L 907 421 L 908 422 L 908 426 L 909 427 L 909 431 L 910 432 L 910 435 L 911 436 L 911 440 L 912 441 L 912 444 L 913 445 L 913 446 L 911 448 L 911 451 L 912 452 L 912 454 L 915 454 L 916 453 L 919 453 L 920 452 L 923 452 L 924 451 L 927 451 L 928 450 L 932 450 L 933 449 L 936 449 L 937 448 L 940 448 L 941 447 L 944 447 L 945 446 L 948 446 L 949 445 L 953 445 L 954 444 L 956 444 L 957 443 L 961 443 L 962 442 L 965 442 L 966 441 L 969 441 L 970 440 L 973 440 L 974 439 L 977 439 L 978 438 L 982 438 L 983 437 L 986 437 L 987 436 L 990 436 L 991 435 L 994 435 L 995 434 L 999 434 L 1000 433 L 1003 433 L 1004 432 L 1008 432 L 1009 431 L 1012 431 L 1013 430 L 1017 430 L 1018 429 L 1021 429 L 1022 428 L 1025 428 L 1026 427 L 1030 427 L 1031 426 L 1035 426 L 1036 425 L 1039 425 L 1040 424 L 1042 424 L 1043 423 L 1043 421 L 1042 420 L 1042 419 L 1041 418 L 1040 418 L 1039 417 L 1039 415 L 1038 414 L 1038 410 L 1037 409 L 1037 404 L 1036 403 L 1036 398 L 1035 397 L 1035 392 L 1034 391 L 1034 384 L 1033 383 L 1033 375 L 1032 374 L 1032 363 L 1031 362 L 1031 359 L 1032 358 L 1053 358 L 1054 357 L 1071 357 L 1072 356 L 1089 356 L 1090 355 L 1112 355 L 1113 354 L 1133 354 L 1134 353 L 1157 353 L 1158 352 L 1179 352 L 1180 351 L 1198 351 L 1199 350 L 1222 350 L 1223 349 L 1243 349 L 1244 348 L 1263 348 L 1264 347 L 1285 347 L 1286 346 L 1307 346 L 1308 345 L 1329 345 L 1330 344 L 1353 344 L 1354 343 L 1375 343 L 1376 342 L 1398 342 L 1399 341 L 1420 341 L 1421 340 L 1442 340 L 1443 339 L 1464 339 L 1465 338 L 1475 338 L 1476 339 L 1476 342 L 1478 344 L 1490 344 L 1491 343 L 1492 343 L 1493 342 L 1494 342 L 1494 341 L 1495 340 L 1495 338 L 1496 337 L 1534 337 L 1535 336 L 1589 336 L 1590 335 L 1650 335 L 1651 334 L 1720 334 L 1721 333 L 1794 333 L 1795 332 L 1805 332 L 1806 331 L 1824 331 L 1825 330 L 1826 330 L 1828 328 L 1828 327 L 1829 326 L 1829 319 L 1830 318 L 1833 318 L 1834 319 L 1834 327 L 1835 328 L 1835 329 L 1836 330 L 1836 331 L 1835 332 L 1835 334 L 1834 335 L 1834 346 L 1835 347 L 1835 349 L 1840 354 L 1849 354 L 1850 353 L 1851 353 L 1853 351 L 1853 350 L 1854 349 L 1854 348 L 1855 347 L 1855 336 L 1854 335 L 1854 333 L 1853 332 L 1853 330 L 1854 329 L 1854 328 L 1855 327 L 1855 326 L 1856 325 L 1856 319 L 1857 318 L 1947 318 L 1948 319 L 1948 320 L 1950 322 L 1951 322 L 1952 323 L 1998 323 L 1999 322 L 2000 322 L 2001 321 L 2001 320 L 2003 318 L 2009 318 L 2010 317 L 2017 317 L 2018 318 L 2040 318 L 2041 317 L 2042 317 L 2042 316 L 2044 314 L 2044 296 L 2043 295 L 2043 294 L 2041 292 L 2018 292 L 2017 293 L 2010 293 L 2009 292 L 2003 292 L 2002 291 L 2002 290 L 1998 286 L 1998 271 L 1999 270 L 1999 265 L 2000 264 L 2001 264 L 2002 263 L 2002 250 L 1999 247 L 1999 231 L 1998 230 L 1998 228 L 1996 226 Z M 333 478 L 334 477 L 337 477 L 338 478 L 338 488 L 337 489 L 336 489 L 335 490 L 334 490 L 332 488 L 332 487 L 331 486 L 331 485 L 330 484 L 330 483 L 329 482 L 329 481 L 328 480 L 329 479 L 330 479 L 331 478 Z M 717 370 L 744 370 L 745 371 L 746 371 L 748 373 L 749 373 L 754 378 L 754 379 L 755 380 L 755 381 L 756 382 L 756 383 L 757 384 L 757 386 L 758 387 L 758 401 L 757 402 L 757 404 L 756 405 L 756 407 L 755 408 L 755 409 L 752 412 L 752 413 L 750 415 L 749 415 L 746 418 L 745 418 L 744 419 L 743 419 L 742 420 L 740 420 L 739 421 L 736 421 L 735 422 L 693 422 L 692 421 L 689 421 L 688 420 L 686 420 L 685 419 L 684 419 L 683 418 L 682 418 L 681 417 L 680 417 L 674 411 L 674 410 L 672 408 L 672 406 L 671 405 L 671 403 L 670 402 L 670 388 L 671 387 L 671 385 L 672 384 L 672 383 L 674 381 L 674 380 L 679 375 L 680 375 L 682 373 L 683 373 L 684 372 L 690 372 L 691 371 L 698 371 L 699 372 L 699 373 L 698 374 L 698 375 L 696 377 L 696 378 L 695 379 L 695 380 L 694 381 L 694 382 L 693 383 L 693 386 L 692 387 L 692 397 L 693 398 L 693 401 L 694 402 L 694 403 L 695 404 L 695 405 L 696 406 L 696 407 L 697 408 L 697 409 L 703 415 L 705 415 L 706 414 L 706 411 L 704 409 L 704 408 L 701 405 L 701 403 L 700 402 L 700 401 L 699 400 L 699 389 L 700 388 L 700 386 L 701 385 L 701 384 L 703 382 L 703 381 L 709 375 L 710 375 L 712 373 L 713 373 L 714 372 L 715 372 Z M 1841 336 L 1842 335 L 1846 335 L 1847 336 L 1847 337 L 1848 338 L 1848 344 L 1845 347 L 1844 347 L 1841 344 Z M 1706 280 L 1751 280 L 1753 282 L 1753 287 L 1752 288 L 1751 288 L 1750 289 L 1706 289 L 1703 286 L 1703 283 Z M 1624 280 L 1669 280 L 1672 283 L 1672 286 L 1669 289 L 1624 289 L 1622 287 L 1622 286 L 1621 285 L 1621 283 Z M 904 281 L 905 280 L 919 280 L 920 281 L 920 282 L 918 284 L 917 284 L 917 287 L 916 288 L 885 288 L 884 287 L 884 282 L 885 281 Z M 1579 280 L 1580 279 L 1581 280 L 1587 280 L 1590 283 L 1590 286 L 1587 289 L 1542 289 L 1539 286 L 1539 283 L 1542 280 Z M 1041 277 L 1091 277 L 1092 278 L 1092 287 L 1091 288 L 941 288 L 940 287 L 940 285 L 937 282 L 937 281 L 938 280 L 952 280 L 953 281 L 959 281 L 960 280 L 1003 280 L 1004 281 L 1016 281 L 1017 280 L 1032 280 L 1033 281 L 1036 281 L 1037 280 L 1038 280 Z M 1972 268 L 1988 268 L 1992 272 L 1992 281 L 1991 282 L 1991 283 L 1990 284 L 1989 284 L 1988 285 L 1970 285 L 1969 284 L 1968 284 L 1966 282 L 1966 280 L 1965 279 L 1965 278 L 1966 277 L 1966 276 L 1967 275 L 1967 274 L 1968 273 L 1968 272 Z" fill="black" fill-rule="evenodd"/>
</svg>