<?xml version="1.0" encoding="UTF-8" standalone="no"?>
<svg
   width="750"
   height="250"
   viewBox="0 0 750 250"
   version="1.1"
   id="svg2"
   sodipodi:docname="gmc_cckw_353_supply_black.svg"
   inkscape:version="1.4.2 (f4327f4, 2025-05-13)"
   xmlns:inkscape="http://www.inkscape.org/namespaces/inkscape"
   xmlns:sodipodi="http://sodipodi.sourceforge.net/DTD/sodipodi-0.dtd"
   xmlns="http://www.w3.org/2000/svg"
   xmlns:svg="http://www.w3.org/2000/svg">
  <defs
     id="defs2" />
  <sodipodi:namedview
     id="namedview2"
     pagecolor="#ffffff"
     bordercolor="#000000"
     borderopacity="0.25"
     inkscape:showpageshadow="2"
     inkscape:pageopacity="0.0"
     inkscape:pagecheckerboard="0"
     inkscape:deskcolor="#d1d1d1"
     inkscape:zoom="1.1123389"
     inkscape:cx="523.22185"
     inkscape:cy="442.76076"
     inkscape:window-width="2560"
     inkscape:window-height="1377"
     inkscape:window-x="-8"
     inkscape:window-y="-8"
     inkscape:window-maximized="1"
     inkscape:current-layer="svg2" />
  <path
     d="m 43.532101,106.71404 v 4.24994 h 1.15907 l -0.386353,-0.38636 v -0.38636 l 0.386353,-0.38636 v -1.93179 l -0.386353,0.38636 h -0.386363 l -0.386354,-0.38636 v -0.38636 l 0.386354,-0.38636 h 0.386363 l 0.386353,-0.38635 z"
     fill="#000000"
     fill-rule="evenodd"
     id="path1"
     style="stroke-width:0.386358" />
  <path
     d="m 14.168874,174.32673 11.977105,0.7727 18.931555,-7.3408 13.136176,-0.38635 -6.954451,19.70426 4.249947,23.1815 15.840688,18.15883 18.545193,7.72717 19.704273,-0.77271 22.02241,-12.74983 11.9771,-20.86334 -0.38635,-17.77248 13.13618,-0.77271 2.31815,4.63629 131.74815,-1.15907 -1.15907,-8.88624 35.54495,3.47723 9.27261,-3.86359 86.54423,3.47723 1.15907,5.02265 1.15907,-5.40902 15.45434,1.15908 4.6363,29.74958 15.45433,16.99976 16.6134,7.34081 h 19.70427 l 16.61341,-7.34081 13.52253,-13.90888 6.56809,-16.99977 3.86358,3.09086 8.11353,-2.31814 8.49988,19.31791 13.9089,12.36346 15.84068,6.18173 h 16.22705 l 18.54519,-7.72717 15.45433,-17.38611 4.6363,-17.38613 -2.31815,-20.09062 7.3408,1.93179 5.40902,-7.72717 0.77272,3.86358 9.2726,2.31815 1.93179,18.93156 0.77271,-17.77249 h 8.88624 l 9.2726,-6.18171 1.93179,-7.72717 10.81803,1.15907 14.68161,11.20439 5.79538,-14.29526 9.65896,0.77273 0.77271,-10.04532 -5.79538,-1.15907 1.93179,5.02265 -5.79536,0.77272 -4.24994,-16.22706 1.15907,-5.409 10.43167,-0.77272 1.93179,-39.408547 -6.18173,-6.181719 -6.56809,3.477222 -1.15907,-42.113053 -387.13094,-0.386354 -1.15908,-16.999768 -8.88624,-1.545434 -4.24994,3.090867 -1.15908,101.225856 -4.6363,-1.15907 -2.31815,-105.475794 -15.06796,-8.499884 -42.11305,1.545434 -24.72693,4.6363 -11.59074,6.954442 -8.88624,24.726926 11.20439,-13.136175 -11.97711,29.363231 h -10.04531 v -4.249951 l -3.86358,-0.772717 -0.77271,4.636301 -69.15813,3.863588 -55.635587,10.045309 -8.113521,10.818032 -10.431672,4.636298 3.863584,51.772 -15.454326,0.38636 v -3.09087 l -6.181733,-0.38635 5.79537,-3.47722 -6.568087,-1.54544 -3.863584,9.65896 z m 571.423816,40.5676 0.38635,-0.38634 h 8.11353 l 0.38635,0.38634 -0.38635,0.38637 h -8.11353 z m -105.08944,0 0.38635,-0.38634 h 8.11353 l 0.38636,0.38634 -0.38636,0.38637 h -8.11353 z m -386.744579,0 0.386353,-0.38634 h 8.113526 l 0.38636,0.38634 -0.38636,0.38637 h -8.113526 z m 372.449319,-8.11351 0.38636,-0.38636 2.70451,2.7045 -0.38636,0.38637 h -0.38637 l -2.31814,-2.31815 z m -349.26782,-0.77273 0.38634,0.38637 v 0.38636 l -2.31815,2.31814 h -0.38634 l -0.38637,-0.38635 z m -38.249471,0.38637 0.386354,-0.38637 2.704513,2.70452 -0.386363,0.38635 h -0.386354 l -2.31815,-2.31814 z m 407.221561,-3.86359 h 0.38636 l 0.38636,0.38636 v 0.38637 l 0.38636,0.38634 v 0.77273 l -0.38636,0.38635 v 0.38636 l -0.38636,0.38636 h -0.38636 l -0.38635,-0.38636 0.38635,-0.38636 v -0.38635 l -0.38635,-0.38636 v -0.38637 l 0.38635,-0.38634 -0.38635,-0.38637 z m -389.062722,0 h 0.386353 l 0.386363,0.38636 v 1.15908 l -0.386363,0.38636 v 0.38635 l 0.386363,0.38636 -0.386363,0.38636 h -0.386353 l -0.386363,-0.38636 v -0.38636 l -0.386354,-0.38635 v -1.15907 z m 492.993092,-0.38635 h 0.77271 l 0.38636,0.38635 -0.38636,0.38636 h -0.38635 l -0.38636,0.38637 0.38636,0.38634 v 1.15908 l 0.38635,0.38636 v 0.38636 l -0.38635,0.38635 h -0.38636 l -0.38637,-0.38635 h -0.38635 l -0.77272,-0.77272 v -1.54542 l 0.77272,-0.77273 h 0.38635 z m -104.31672,0 0.38635,0.38635 -0.38635,0.38636 h -0.38637 v 0.77271 l 0.38637,0.38637 v 0.38636 l -1.15908,1.15907 h -0.38636 l -0.77271,-0.77272 v -1.54542 l 1.15907,-1.15908 z m -376.31291,-3.86358 0.38636,0.38635 v 0.38636 l 0.38635,0.38636 v 0.38635 l -0.38635,0.38636 v 0.38636 l -0.38636,0.38637 -0.38636,-0.38637 v -0.38636 h -0.38636 l -0.38636,-0.38636 v -0.77271 l 0.38636,-0.38636 0.38636,0.38636 v -0.38636 z m 364.3358,0 0.38635,-0.38636 h 2.31815 l 0.38637,0.38636 v 0.38635 l 0.38636,0.38636 v 1.54543 l -1.15907,1.15908 h -1.15909 l -0.38635,-0.38637 h -0.38637 l -0.38635,-0.38634 v -0.38637 l -0.38636,-0.38636 v -1.15907 l 0.38636,-0.38636 z m -366.65396,-0.38636 h 0.38636 l 0.38636,0.38636 -0.38636,0.38635 0.77272,0.77272 v 0.38635 l -0.77272,0.77272 0.38636,0.38637 -0.38636,0.38634 h -0.38636 l -1.15906,-1.15907 v -1.15907 z m 492.60674,-0.38636 h 0.77272 l 0.38635,0.38636 h 0.38637 l 0.38635,0.38636 -0.38635,0.38635 h -1.15908 l 0.38636,0.38636 0.38635,-0.38636 0.38637,0.38636 v -0.38636 l 0.38635,-0.38635 0.38636,0.38635 v 1.54543 l -0.38636,0.38636 -0.38635,-0.38636 v -0.38636 0.38636 l -0.38637,0.38636 -0.38635,-0.38636 -0.38636,0.38636 h 0.77271 l 0.38637,0.38637 -0.38637,0.38634 h -1.54542 l -1.15908,-1.15907 v -1.15907 z m -20.47698,0.38636 h 0.38635 l 0.38636,-0.38636 h 0.77272 l 0.38635,0.38636 h 0.38637 l 0.77271,0.77271 v 1.93179 l -0.77271,0.77271 h -2.31815 l -0.77273,-0.77271 v -0.38636 l -0.38634,-0.38636 v -0.38635 l 0.38634,-0.38636 v -0.38636 z m -84.2261,-0.38636 h 0.77272 l 0.77271,0.77272 -0.38635,0.38635 h -1.15908 l 0.38636,0.38636 h 0.38636 l 0.77271,-0.77271 0.77272,0.77271 v 1.15907 l -0.77272,0.77273 -0.38635,-0.38637 h -0.38636 l -0.38636,-0.38636 h -0.38636 l -0.38635,0.38636 h 1.54543 l 0.38635,0.38637 -0.38635,0.38634 h -1.9318 l -0.77272,-0.77271 v -0.38636 l -0.38635,-0.38636 v -0.38635 l 0.38635,-0.38636 v -0.38636 l 0.77272,-0.77271 h 0.38637 z m -408.766997,1.54543 1.15908,-1.15907 h 0.386354 l 0.386353,-0.38636 h 0.386363 l 0.386354,0.38636 h 0.386363 l 0.772717,0.77271 v 0.38636 l 0.386354,0.38636 v 0.38635 l -0.386354,0.38636 v 0.38636 l -0.386363,0.38637 -0.386354,-0.38637 h -0.386363 l -0.386354,-0.38636 v -1.15907 l 0.386354,-0.38636 h -1.15907 l 0.386353,0.38636 v 1.15907 l -0.386353,0.38636 0.386353,0.38637 -0.386353,0.38634 h -0.386354 l -1.15908,-1.15907 z m 424.221337,-8.11352 0.38634,0.38635 v 2.70451 l -0.38634,0.38637 v 1.15907 l -0.38637,0.38636 -0.38636,-0.38636 v -1.54544 l 0.38636,-0.38636 v -2.31815 z m 54.4765,-1.54544 0.38636,0.38637 v 3.86357 l -0.38636,0.38636 -0.38635,-0.38636 v -3.86357 z m 12.36346,-1.54543 0.38636,0.38636 v 0.38636 l 0.38637,0.38636 v 0.77272 l -0.38637,0.38635 v 0.38636 l -0.77271,0.77271 h -1.54544 l -0.77271,-0.77271 0.38635,-0.38636 h 1.15907 v -1.15907 l 0.38637,-0.38636 h 0.38636 l -0.38636,-0.38636 0.38636,-0.38636 z m -105.08943,0 0.38635,0.38636 v 0.38636 l 0.38636,0.38636 v 0.77272 l -0.38636,0.38635 v 0.38636 l -0.77271,0.77271 h -1.54544 l -0.38635,-0.38635 0.38635,-0.38636 h 0.77272 l 0.38636,-0.38636 -0.38636,-0.38635 v -0.77272 l 0.38636,-0.38636 h 0.38636 v -0.38636 z m 131.3618,-0.38636 h 1.15907 l 0.38635,0.38636 h 0.38637 l 0.38635,0.38636 v 0.38636 l 0.38636,0.38636 v 1.15907 l -1.15908,1.15907 h -1.54542 l -1.15908,-1.15907 v -1.54543 z m -104.70309,0 h 1.15908 l 1.15907,1.15908 v 1.54543 l -1.15907,1.15907 h -1.15908 l -0.38636,-0.38635 h -0.38635 l -0.38636,-0.38636 v -0.38636 l -0.38636,-0.38635 v -0.38637 l 0.38636,-0.38635 v -0.38636 z m -387.13094,0 h 1.15908 l 0.38636,0.38636 -0.38636,0.38636 0.38636,-0.38636 0.77271,0.77272 v 1.54543 l -1.15907,1.15907 h -1.54543 l -0.77272,-0.77271 v -0.77271 l -0.38636,-0.38637 0.38636,-0.38635 v -0.38636 z m -28.590504,0 h 1.545434 l 1.159079,1.15908 v 1.54543 l -1.159079,1.15907 h -1.545434 l -1.15907,-1.15907 v -1.15907 l 0.386353,-0.38636 v -0.38636 z m 40.567604,-0.38636 0.38637,0.38636 v 4.63631 l -0.38637,0.38634 -0.38634,-0.38634 v -4.63631 z m 336.13166,-0.38635 0.38636,0.38635 v 5.40901 l -0.38636,0.38637 -0.38635,-0.38637 v -5.40901 z m 50.61294,-1.54544 0.38634,0.38637 v 2.7045 l 0.38637,0.38636 v 0.77271 l -0.38637,0.38637 -0.77271,-0.77272 v -3.47722 z m 77.658,-3.09086 h 4.24993 l 0.38636,0.38636 h 0.38636 l 0.38636,0.38635 h 0.38635 l 0.38637,0.38637 h 0.38635 l 2.31815,2.31815 v 0.38635 l -0.38635,0.38636 -0.38637,-0.38636 0.38637,0.38636 0.38635,-0.38636 0.38636,0.38636 v 0.38636 l 0.38636,0.38635 v 1.15908 l 0.38636,0.38636 v 2.31815 l -0.38636,0.38635 v 0.77273 l -0.38636,0.38634 v 0.77273 l -0.77271,0.77271 v 0.38637 l -1.15908,1.15907 h -0.38636 l -0.77271,0.77271 h -0.38637 l -0.38635,0.38636 h -0.38636 l -0.38636,0.38636 h -0.77271 l -0.38636,0.38636 h -2.31815 l -0.38636,-0.38636 h -1.15907 l -0.38637,-0.38636 h -0.77271 l -0.77271,-0.77271 h -0.38636 l -1.54544,-1.54543 v -0.38637 l -0.38636,-0.38636 v -0.38635 l -0.38635,-0.38636 v -0.38637 l -0.38636,-0.38634 v -1.15908 l -0.38636,-0.38636 v -1.15908 l 0.38636,-0.38635 v -1.54544 l 0.38636,-0.38636 v -0.77271 l 0.38635,-0.38636 v -0.38635 l 2.31816,-2.31815 h 0.38635 l 0.38636,-0.38637 h 0.38637 l 0.38634,0.38637 -0.38634,-0.38637 0.38634,-0.38635 h 0.38637 z m -105.86216,0.38636 h 0.77271 l 0.38637,-0.38636 h 3.86358 l 0.38635,0.38636 h 0.77273 l 0.77271,0.77272 h 0.38636 l 1.93179,1.93178 v 0.38637 l 0.77271,0.77271 v 0.38636 l 0.38637,0.38635 v 1.15908 l 0.38635,0.38636 v 1.93179 l -0.38635,0.38636 v 1.54542 l -0.38637,0.38637 v 0.38636 l -0.77271,0.77271 v 0.38637 l -1.15907,1.15907 h -0.38637 l -1.15907,1.15907 h -0.38635 l -0.38636,0.38636 h -1.15908 l -0.38636,0.38636 h -2.31815 l -0.38636,-0.38636 h -1.15907 l -0.38636,-0.38636 h -0.38636 l -0.38636,-0.38636 h -0.38636 l -2.70449,-2.70451 v -0.38635 l -0.38637,-0.38636 v -0.77271 l -0.38636,-0.38637 v -3.86358 l 0.38636,-0.38636 v -0.77271 l 0.38637,-0.38636 v -0.38636 l 0.77271,-0.77272 v -0.38635 l 1.15907,-1.15908 h 0.38636 l 0.77271,-0.77272 h 0.38636 z M 96.076821,182.05389 h 3.863583 l 0.386356,0.38636 h 0.77272 l 0.38635,0.38635 h 0.38636 l 0.38636,0.38637 -0.38636,0.38635 h -0.38636 0.38636 l 0.38636,0.38636 0.38636,-0.38636 1.93179,1.9318 v 0.38635 l 0.38636,0.38636 v 0.38636 l 0.38635,0.38635 v 0.77272 l 0.38637,0.38636 v 3.09086 l -0.38637,0.38636 v 0.77271 l -0.38635,0.38637 v 0.38636 l -0.38636,0.38635 v 0.38636 l -1.93179,1.9318 h -0.38636 l -0.77272,0.77271 h -0.77272 l -0.38635,0.38636 h -0.772718 l -0.386354,0.38636 h -2.31815 l -0.386363,-0.38636 h -1.159071 l -0.386363,-0.38636 h -0.386354 l -0.772716,-0.77271 h -0.386363 l -1.931788,-1.9318 v -0.38636 l -0.772716,-0.77271 v -0.77271 l -0.386363,-0.38637 v -3.86358 l 0.386363,-0.38636 v -0.38636 l 0.386353,-0.38635 v -0.77272 l 0.772717,-0.77272 v -0.38635 l 1.15908,-1.15908 h 0.386354 l 0.772716,-0.77272 h 0.386363 l 0.386354,-0.38635 h 0.772717 z m 9.658959,-3.09087 0.77271,-0.77272 0.38635,0.38637 h 0.38636 l 0.38636,0.38635 v 1.15908 l -0.38636,0.38635 h 1.15908 l 0.38636,-0.38635 h -0.38636 l -0.38636,-0.38636 v -0.38636 l 1.15908,-1.15908 0.38636,0.38637 v 0.38635 l 0.38635,0.38636 v 0.38636 l -0.38635,0.38636 v 0.38635 l -0.77272,0.77273 h -1.9318 l -1.15906,-1.15908 z m -16.227056,-0.77272 0.772717,0.77272 v 1.15908 l -1.159071,1.15908 h -1.931787 l -0.386363,-0.38636 0.386363,-0.38637 h 1.545424 l -0.386354,-0.38635 v -1.15908 l 0.386354,-0.38635 h 0.386363 z m -2.704504,0 0.386363,0.38637 h 0.386354 l 0.386353,0.38635 v 0.77272 l -1.15907,1.15908 -0.772717,-0.77272 v -1.15908 z m 406.06249,0.77272 0.77272,-0.77272 0.38635,0.38637 -0.38635,-0.38637 0.38635,-0.38635 h 0.38637 l 0.38635,0.38635 v 0.38637 h 1.15908 l 0.38635,-0.38637 0.38637,0.38637 v 1.93178 l -0.77272,0.77273 h -1.9318 l -1.15907,-1.15908 z m 106.63487,-1.54543 h 0.77272 l 0.38635,0.38636 h 0.38637 l 0.38635,0.38635 v 0.38637 l -0.38635,0.38635 -0.38637,-0.38635 0.38637,0.38635 v 1.15908 l 0.38635,0.38635 -0.77272,0.77273 h -1.93178 l -0.77272,-0.77273 v -1.93178 l 0.77272,-0.77272 h 0.38636 z m -20.47698,0.38636 h 0.38635 l 0.38636,-0.38636 h 0.77272 l 0.38635,0.38636 -0.38635,0.38635 h -0.38636 v 0.38637 h 1.15908 l 0.38635,-0.38637 0.38636,0.38637 v 1.93178 l -0.77271,0.77273 h -2.31815 l -0.77273,-0.77273 v -0.38635 l -0.38634,-0.38636 v -0.38636 l 0.38634,-0.38636 v -0.38635 z m -105.08945,0 h 0.38637 l 0.38635,-0.38636 h 0.77272 l 0.38637,0.38636 -0.77273,0.77272 h 0.77273 l -0.38637,-0.38637 0.38637,-0.38635 h 0.38634 l 0.77273,0.77272 v 1.93178 l -0.77273,0.77273 h -0.77271 l -0.38636,0.38635 -0.38636,-0.38635 h -0.77272 l -0.77271,-0.77273 v -1.54543 l 0.38636,-0.38635 v -0.38637 z m 9.27261,-3.09087 0.77271,-0.77272 h 0.38636 l 0.77271,0.77272 v 1.54544 h 0.38637 l 0.38635,-0.38637 v -1.54542 l 0.38636,-0.38637 0.38636,0.38637 v 0.38635 l 0.38636,0.38635 v 0.77272 l -1.15908,1.15908 h -1.54543 l -1.15907,-1.15908 z m -387.130939,0 0.772717,-0.77272 0.386353,0.38637 v 0.38635 l 0.386363,0.38635 v 1.15909 h 0.772717 v -1.15909 l 0.386354,-0.38635 h 0.386363 l 0.386354,-0.38635 0.386362,0.38635 v 1.15907 l -1.159079,1.15908 h -1.545434 l -1.15907,-1.15908 z m 493.379439,-1.15907 h 1.15908 l 0.38636,0.38635 -0.38636,0.38637 h -0.38635 v 1.93179 h 0.38635 l 0.38636,-0.38637 -0.38636,-0.38635 v -0.38637 l 0.38636,-0.38635 h 0.77272 l 0.38635,0.38635 v 0.77272 l -1.15907,1.15908 h -1.54544 l -1.15907,-1.15908 v -1.15907 z m 67.6127,-4.63629 0.38635,0.38634 v 4.24995 l -0.38635,0.38635 -0.38636,-0.38635 v -4.24995 z m 44.81755,-2.31816 0.38636,-0.38636 h 3.09086 l 1.15908,1.15908 v 0.38635 l 0.38635,0.38636 v 0.77273 l -0.38635,0.38634 v 0.38637 l -0.77272,0.77271 h -0.77271 l -0.38637,0.38636 h -0.38635 l -0.38636,-0.38636 h -0.77272 l -1.54542,-1.54542 v -1.54544 l 0.38635,-0.38637 z m -364.33581,2.7045 0.38636,-0.38634 h 0.77272 l 1.15907,-1.15909 v -0.38635 l 0.38637,-0.38637 v -0.38635 l 0.38635,-0.38636 h 1.54543 l 0.38637,-0.38636 h 12.36346 l 0.38635,0.38636 h 4.24995 l 0.38635,-0.38636 h 3.86358 l 0.38636,0.38636 h 15.84069 l 0.38636,0.38636 -0.38636,0.38635 h -1.15908 l -0.38636,0.38637 h -0.38635 l -0.38636,0.38635 h -0.38636 l -0.38635,0.38636 h -2.31815 l -0.77272,0.77273 v 0.38634 l -0.38636,0.38637 h -35.54496 z m 85.38516,-3.86358 0.77273,0.77272 v 0.77271 l -0.38636,0.38637 v 3.47722 l -0.38637,0.38637 -0.38634,-0.38637 v -5.02266 z m 163.42954,-0.77271 0.38637,-0.38636 h 6.95443 l 0.38637,0.38636 -0.38637,0.38636 h -6.95443 z m -105.08944,0 0.38636,-0.38636 h 6.95445 l 0.38636,0.38636 -0.38636,0.38636 h -6.95445 z m -386.744573,0 0.386354,-0.38636 h 6.568089 l 0.38636,0.38636 -0.38636,0.38636 h -6.568089 z m 583.014553,-11.20439 0.38636,-0.38636 h 4.6363 l 0.38636,0.38636 v 0.38636 l 0.38635,0.38635 v 0.38637 l 0.38636,0.38635 v 0.77272 l 0.38637,0.38636 -0.38637,0.38636 0.38637,-0.38636 0.38634,0.38636 v 0.38635 l -0.38634,0.38636 h -4.24995 l -0.38636,-0.38636 v -1.54543 l -0.38636,-0.38636 h -0.77272 l -0.38635,-0.38635 v -0.77272 z m -18.15883,-2.31815 0.38635,0.38636 v 19.70428 l -0.38635,0.38634 -0.38636,-0.38634 v -19.70428 z m -341.54067,-8.11352 v 1.54543 l 0.38635,0.38636 v 1.15907 l -0.38635,0.38637 h -4.24995 l -0.38636,-0.38637 0.38636,-0.38635 h 0.38637 l 0.38635,-0.38636 h 0.38636 l 0.38636,0.38636 h 2.31815 v -0.38636 l -0.38636,-0.38636 v -0.77271 0.38635 l -0.38636,0.38636 -0.38635,-0.38636 v -0.38635 0.38635 l -0.38637,0.38636 0.38637,0.38636 -0.38637,0.38636 h -0.77271 l -0.38636,-0.38636 0.38636,-0.38636 v -1.15908 l 0.38636,-0.38635 h 1.15907 l 0.77272,-0.77272 z m 100.45314,-0.77272 h 1.93179 l 0.38635,0.38636 v 2.31815 l 0.38636,0.38636 v 0.77271 l -0.38636,0.38637 h -2.31814 l -0.38636,0.38635 -0.38636,-0.38635 v -3.09087 l 0.38636,-0.38636 0.38636,0.38636 v 0.77272 -1.15908 l -0.38636,-0.38636 z m 218.67875,-3.47722 0.38636,0.38636 h 0.38636 l 0.77272,0.77271 v 0.38636 l 0.38635,0.38635 -0.38635,0.38637 h -1.54544 1.54544 l 0.38635,0.38635 -0.38635,0.38636 h -1.9318 l -0.38635,-0.38636 v -1.93179 z m -67.99905,0 v 2.31815 l -0.38636,0.38635 h -5.40901 l -0.38636,-0.38635 v -1.93179 l 0.38636,-0.38636 h 5.02265 l 0.38636,-0.38637 z M 302.00575,138.3954 h 1.15907 l 0.38636,0.38637 v 0.77271 l 0.38636,0.38636 v 0.38636 l 0.77271,0.77272 h 1.15908 l 0.38636,0.38635 v 2.70452 h 0.38636 l 0.77272,0.77271 v 0.77272 l 0.38635,0.38635 -0.38635,0.38637 h -6.95445 l -0.38637,-0.38637 v -5.02265 l 0.38637,-0.38637 h 0.38635 l 0.38636,-0.38635 v -0.38636 l 0.38636,-0.38636 v -0.77271 z m 203.22443,0 0.38635,-0.38634 h 0.38636 l 0.77271,0.77271 h 4.24995 l 0.38636,0.38636 v 1.54542 l -0.38636,0.38637 h -5.02266 l -0.38636,0.38635 -0.38635,-0.38635 z m -63.74911,0 -1.9318,1.9318 v 0.38635 l -0.38635,0.38637 h -4.24994 l -0.38636,-0.38637 v -1.54542 l 0.38636,-0.38636 h 4.63629 v -0.38637 l 0.38637,-0.38634 h 1.15907 z m -121.70285,0.38637 0.38637,-0.38637 h 0.77271 l 0.38636,-0.38634 h 2.31815 l 0.38636,0.38634 h 0.77271 l 0.38637,0.38637 v 0.38636 l 0.38634,0.38635 v 0.77272 l 0.38637,0.38635 v 1.15908 l -0.38637,0.38636 -0.38634,-0.38636 v -0.77271 l -0.38637,0.38635 h -0.77271 0.77271 l 0.38637,0.38636 -0.38637,0.38636 h -3.86358 l -0.77271,-0.77272 v -0.38635 l -0.38637,-0.38637 z m 380.94922,-0.77271 0.38635,-0.38636 h 4.6363 l 0.38636,0.38636 v 3.86357 l -0.38636,0.38636 h -4.24993 l -0.38637,-0.38636 0.38637,-0.38636 h 1.54542 -1.54542 l -0.38637,0.38636 h -0.38635 l -0.38637,-0.38636 v -0.77272 l 0.38637,-0.38635 z m -129.81637,1.54542 0.38636,-0.38635 v -1.15907 l 0.38636,-0.38636 h 3.09086 l 0.38636,0.38636 0.38637,-0.38636 h 3.86357 l 0.38636,0.38636 h 11.59075 l 0.38636,-0.38636 h 20.86334 l 0.38636,0.38636 h 10.43167 l 0.38636,-0.38636 h 8.49988 l 0.38635,0.38636 h 0.77273 l 0.38635,-0.38636 0.38636,0.38636 v 2.70449 l -0.38636,0.38637 v 3.47722 l 0.38636,0.38636 v 1.15907 l -0.38636,0.38637 h -24.34057 v 0.38635 l -0.38636,0.38636 -0.77271,-0.77271 h -0.77271 l -0.38637,-0.38637 h -0.77271 l -0.38636,-0.38635 h -1.54543 v 0.38635 l -0.77272,0.77272 h -0.77272 l -1.15907,-0.77272 0.38636,-0.38635 v -0.77272 l -1.15907,-0.77271 h -1.15908 l -0.38636,-0.38637 h -1.93179 l -0.38636,-0.38635 h -0.77271 l -0.77272,0.77272 v 0.77271 l -0.38636,0.38636 -0.38636,-0.38636 h -1.54543 l -0.38636,-0.38636 v -1.15907 l -0.38636,-0.38636 h -5.02265 l -0.77271,1.15908 -0.38637,-0.38637 h -1.54544 l -0.38635,0.38637 -0.77272,-0.77272 h -1.54543 l -0.38636,0.38635 h -1.54543 l -0.38636,0.38637 h -1.15907 l -0.38637,0.38635 v 1.54543 l -0.38634,0.38637 h -0.77273 l -0.38635,0.38635 -1.15907,-1.15907 v -0.38636 h -0.77273 l -0.38635,0.38636 h -0.77272 l -0.38635,-0.38636 -1.9318,0.38636 -0.38636,-0.38636 0.38636,-0.38636 v -4.24995 l -0.38636,-0.38635 z m -130.58908,6.56809 v -0.77271 l 1.54543,-1.93179 v -1.54544 l 0.38637,-0.38636 v -1.54543 l 0.38635,-0.38636 v -0.38635 l 1.15909,-1.15907 h 7.3408 l 0.38635,-0.38636 h 4.6363 l 0.38635,0.38636 h 11.2044 l 0.38636,-0.38636 h 9.65895 l 0.38637,0.38636 h 1.54542 l 0.38636,-0.38636 h 10.81803 l 0.38636,0.38636 h 7.3408 l 0.38637,-0.38636 h 4.24993 l 0.38637,0.38636 v 1.54542 l 0.38635,0.38636 -1.15907,1.15908 v 3.09087 l 1.15907,1.15907 -0.77272,1.15908 h -0.77271 l -0.38636,-0.38637 h -0.77271 l -0.38637,-0.38635 h -1.15907 l -0.77271,1.15907 h -1.54544 l -0.38636,-0.38635 v -1.54544 l -0.38635,-0.38636 h -0.38637 l -0.38635,-0.38635 h -1.54543 l -0.38637,-0.38637 h -1.54542 l -0.38637,-0.38635 h -0.77271 v 0.38635 l -0.77272,0.77272 v 0.38636 l -0.38635,0.38636 h -0.38637 l -0.38635,-0.38636 h -0.77272 l -0.38635,-0.38636 v -0.38635 l -0.38636,-0.38637 v -0.77271 h -5.40902 l -0.77272,1.15908 -0.38636,-0.38637 h -1.15907 v 0.77272 l -0.38636,0.38636 -0.38635,-0.38636 -0.38636,-1.15907 h -1.93179 l -0.38636,0.38635 h -1.54544 l -0.38636,0.38637 h -0.77272 l -0.38635,0.38635 h -0.38636 v 1.54543 l -0.38636,0.38637 h -0.77271 l -0.38636,0.38635 -1.15907,-1.54543 h -0.38637 l -0.38635,0.38636 h -0.77272 l -0.38637,0.38635 h -0.7727 l -1.15908,0.77272 h -0.77271 l -0.38636,-0.38635 h -24.72693 z m -394.471739,-11.9771 0.386354,0.38636 v 0.38635 l 0.386363,0.38637 v 0.38635 l -0.386363,0.38636 v 0.38636 l -0.386354,0.38637 v 0.38634 l -0.386363,0.38637 h -0.772717 l -0.386353,-0.38637 h -0.386363 l -0.386354,-0.38634 v -0.38637 0.38637 l -0.386363,0.38634 -0.386354,-0.38634 v -1.54544 l 0.386354,-0.38637 h 0.386363 l 0.386354,-0.38635 h 1.159079 l 0.386354,-0.38636 z M 700.34107,132.9864 h 0.77272 l 0.38637,0.38635 v 1.15908 l 0.38635,0.38635 v 0.77272 h 0.38636 l 0.38636,0.38636 v 0.38636 l 0.38635,0.38637 -0.38635,0.38634 h -1.15907 l -0.38637,-0.38634 v -0.77273 h -0.77272 l -0.38635,-0.38636 v -0.77272 l -0.38636,-0.38635 0.38636,-0.38636 v -0.77272 z m -2.31815,0 h 0.38637 l 0.38636,0.38635 -0.38636,0.38636 v 3.86359 h 0.38636 l 0.38635,0.38636 -0.77271,0.77271 v 3.47722 l -0.38637,0.38636 v 0.77272 l 0.38637,0.38635 v 0.77272 h 0.38636 l 0.77271,0.77272 v 0.77271 l -0.38636,0.38637 h -1.93179 l -0.38636,-0.38637 v -1.93178 l 0.38636,-0.38637 v -7.72716 l -0.38636,-0.38636 v -0.38635 h -0.38635 l -0.38636,-0.38637 0.38636,-0.38635 -0.38636,-0.38636 v -0.38636 l 0.38636,-0.38636 h 1.15908 z m -60.27187,5.409 0.38635,-0.38634 h 3.47722 l 0.38637,0.38634 v 0.38637 l 0.38635,0.38636 h 1.9318 v -0.77273 l 0.38635,-0.38634 h 0.77272 l 0.77271,-0.77273 v -3.86358 l 0.38637,-0.38635 0.38635,0.38635 h 1.15908 l 0.38635,-0.38635 h 8.11353 l 0.38636,0.38635 v 8.49988 l -0.38636,0.38636 h -11.97711 l -0.38635,-0.38636 v -0.77271 h -0.77272 l -0.38636,0.38635 h -1.54544 l -2.7045,-2.7045 h -0.77272 z m -13.9089,-5.02265 0.38636,-0.38635 h 7.3408 l 0.38636,0.38635 v 1.54543 l -0.77271,0.77272 h -0.77273 v 0.38636 l -0.77271,0.77273 h -2.31814 l -0.38637,-0.38637 h -1.54543 l -0.38635,-0.38636 h -0.38636 l -0.38636,-0.38636 v -1.54543 l -0.38636,-0.38636 z m -112.04389,12.74982 0.38636,-0.38635 h 1.15908 -0.38637 l -0.38634,-0.38636 0.38634,-0.38636 h 0.77273 v -0.38636 l 0.38636,-0.38635 v -1.15908 l -0.38636,-0.38636 v -2.31815 l -0.38636,-0.38636 v -0.77271 l 0.38636,-0.38636 v -0.38637 l 0.38636,-0.38634 h 1.93178 l 0.38637,-0.38636 h 0.38635 v -1.9318 l -1.15907,-1.93179 0.38635,-0.38636 h 1.93179 l 0.38636,0.38636 -0.38636,0.38636 v 0.38636 l 0.38636,0.38635 -0.77271,1.15908 v 1.15907 l 0.38635,0.38637 h 2.70451 l 0.38636,0.38636 h 5.02266 l 0.38635,-0.38636 h 5.40902 l 0.38636,-0.38637 0.38635,0.38637 h 0.38636 l 0.38637,-0.38637 v -0.38634 l -0.38637,-0.38637 v -3.09087 l 0.38637,-0.38635 0.38635,0.38635 h 0.77272 l 0.38636,-0.38635 h 6.95445 l 0.38636,0.38635 v 4.24995 l 0.38634,0.38636 h 6.18174 l 0.38636,-0.38636 h 0.38636 v -0.38637 l -1.15907,-1.15907 v -0.38636 h -0.38636 l -0.38636,-0.38635 v -1.9318 l 0.38636,-0.38635 0.38636,0.38635 h 6.56808 l 0.38636,-0.38635 0.38637,0.38635 v 1.9318 l -0.38637,0.38635 h -0.77271 v 0.38636 l -1.54543,1.15907 h -0.38637 l -0.38634,-0.38634 h -1.54544 l -0.38637,0.38634 0.38637,0.38637 h 1.54544 l 0.38634,-0.38637 h 0.38637 l 0.38636,0.38637 h 4.24993 l 0.38636,0.38636 h 2.70451 l 0.38636,-0.38636 0.38635,0.38636 v 2.31814 l -1.15907,0.77272 v 3.86358 h 0.38636 l 0.77271,0.77272 v 0.38635 l -0.38635,0.38637 h -16.99977 l -1.15907,-1.15908 v -0.38636 l -1.93178,-2.31815 h -1.9318 l -0.38636,-0.38636 h -2.70451 l -0.77272,0.77272 -0.38635,-0.38636 h -0.38636 l -0.38636,0.38636 h -0.77271 l -0.38637,0.38636 v 0.77272 l -1.93178,2.31815 h -18.93156 z m -40.18125,-12.74982 0.38636,-0.38635 0.38635,0.38635 h 2.70451 l 0.38636,-0.38635 h 3.86359 l 0.38635,0.38635 v 1.9318 l -0.38635,0.38635 h -0.38636 l -0.38637,0.38636 h -0.38634 l -0.77273,0.77273 h -3.47723 l -0.38635,-0.38637 h -0.38636 l -0.77272,-0.77272 h -0.38635 l -0.38636,-0.38635 v -0.38637 l 0.38636,-0.38635 -0.38636,-0.38636 z m -47.90842,-0.38635 h 8.49988 l 0.38636,0.38635 v 4.24995 l 1.15908,1.15907 v 2.7045 l -1.15908,1.15908 v 0.38636 l -0.77273,0.77271 h -0.38634 l -0.38636,-0.38635 h -0.38637 l -0.38634,-0.38636 0.38634,-0.38636 h 0.77273 -0.77273 l -0.38634,0.38636 -0.77273,-0.77272 h -6.5681 l -0.38634,-0.38636 v -6.18173 l 0.38634,-0.38635 v -1.54544 z m -28.59051,0.38635 0.38636,-0.38635 h 0.38635 l 0.38636,0.38635 h 0.38636 l 0.38636,-0.38635 h 10.43167 l 0.77272,0.77271 v 0.77272 l -0.38636,0.38635 -0.38636,-0.38635 h -3.86358 v 0.38635 l -0.38636,0.38637 v 0.38635 l -0.38635,0.38636 h -0.77273 l -0.77271,0.77273 h -0.38636 l -0.38635,-0.38637 h -2.31815 l -0.38636,0.38637 -0.38637,-0.38637 h -0.77271 l -0.38636,-0.38636 v -0.38636 l -0.38636,-0.38635 h -0.38635 l -0.38636,-0.38637 z m -66.83997,12.74982 0.38635,-0.38635 v -0.38636 l -0.38635,-0.38636 v -0.38636 l 0.38635,-0.38635 v -8.88624 l -0.38635,-0.38637 v -1.15907 h -0.38636 l -0.38636,-0.38636 0.38636,-0.38635 h 18.54518 l 0.38637,0.38635 v 1.15908 l -0.38637,0.38635 h -1.54541 l -0.38637,0.38637 h -1.93178 l -0.38637,0.38635 h -0.77271 l -0.38636,0.38636 h -0.77271 l -0.38637,0.38636 h -0.77272 l -0.77271,0.77271 v 0.38637 l -0.38636,0.38636 v 1.15907 l -0.38636,0.38635 v 3.09087 l 0.38636,0.38636 v 1.15908 l -0.38636,0.38635 v 1.54543 l -0.38635,0.38637 h -8.49989 z m -2.70452,-13.13617 h 0.77273 l 0.38635,0.38635 v 2.31815 l -0.38635,0.38636 h -0.77273 l -0.38634,-0.38636 v -2.31815 z m -6.56808,0 h 0.77271 l 0.38637,0.38635 v 0.38636 -0.38636 l 0.38636,-0.38635 0.38635,0.38635 v 1.9318 l 0.38636,0.38635 v 1.15909 l -0.38636,0.38634 h -1.54543 l -0.38636,-0.38634 v -0.38637 l -0.38636,-0.38636 v -2.70451 z m 382.49465,-1.9318 0.38635,-0.38635 h 7.3408 l 0.38637,0.38635 -0.38637,0.38636 h -7.3408 z m -116.6802,0 0.38637,-0.38635 h 13.9089 l 0.38635,0.38635 -0.38635,0.38636 h -13.9089 z m -19.70426,0 0.38636,-0.38635 h 7.72717 l 0.38635,0.38635 -0.38635,0.38636 h -7.72717 z m -131.36179,0 0.38634,-0.38635 h 5.02267 l 0.38635,0.38635 -0.38635,0.38636 h -5.02267 z m -86.15789,0 0.38635,-0.38635 h 4.6363 l 0.38636,0.38635 -0.38636,0.38636 h -4.6363 z m -243.79204,-9.27259 0.38636,-0.38636 h 5.40902 l 0.38635,0.38636 -0.38635,0.38635 h -5.40902 z m 530.08348,-5.40902 0.38636,0.38636 v 7.72717 l -0.38636,0.38635 -0.38635,-0.38635 v -7.72717 z m -590.741722,0 0.386363,0.38636 v 5.79537 l 0.386354,0.38636 -0.386354,0.38637 h -0.386363 l -0.386354,-0.38637 v -1.93179 l -0.386363,-0.38636 v -1.15907 l 0.386363,-0.38636 v -2.31815 z m 1.931796,-0.77271 0.386354,0.38634 v 6.5681 l -0.386354,0.38636 -0.386363,-0.38636 v -2.31814 l -0.386353,-0.38637 v -2.31815 l 0.386353,-0.38635 v -1.15909 z m 5.409018,-8.11353 0.386353,0.38636 v 8.11351 l 0.386354,0.38637 v 5.02266 l 0.386363,0.38636 v 1.93178 l -0.386363,0.38637 -0.386354,-0.38637 v -0.38634 l -0.386353,-0.38637 v -0.38636 l -0.386363,-0.38636 v -1.15907 l -0.386354,-0.38636 v -1.54543 l -0.386363,-0.38636 v -9.2726 l 0.386363,-0.38635 v -0.38637 l -0.386363,-0.38635 0.386363,-0.38636 h 0.386354 z m -7.340814,-1.54543 h 1.931796 l 0.386354,0.38635 v 5.02267 l -0.386354,0.38635 h -1.931796 l -0.386354,-0.38635 v -5.02267 z M 632.34203,83.146182 632.72838,82.759825 H 699.182 l 0.38636,0.386357 v 6.954454 l -0.38636,0.386346 h -66.45362 l -0.38635,-0.386346 z m -76.11258,0 0.38637,-0.386357 h 66.45361 l 0.38636,0.386357 v 6.954454 l -0.38636,0.386346 h -66.45361 l -0.38637,-0.386346 z m -76.11256,0 0.38636,-0.386357 h 66.45362 l 0.38635,0.386357 v 6.954454 l -0.38635,0.386346 h -66.45362 l -0.38636,-0.386346 z m -76.49893,0 0.38636,-0.386357 h 66.83997 l 0.38636,0.386357 v 6.954454 l -0.38636,0.386346 h -66.83997 l -0.38636,-0.386346 0.38636,-0.386368 v -0.386356 l -0.38636,-0.386357 0.38636,-0.386357 v -3.863579 l -0.38636,-0.386356 0.38636,-0.386368 v -0.386346 z m -76.49893,0 0.38636,-0.386357 h 66.83998 l 0.38635,0.386357 v 6.18173 l -0.38635,0.386356 h -1.15908 1.15908 l 0.38635,0.386368 -0.38635,0.386346 h -66.83998 l -0.38636,-0.386346 z m 305.223,-8.886238 0.38635,-0.386357 H 699.182 l 0.38636,0.386357 v 0.386367 l -0.38636,0.386347 h -66.45362 l -0.38635,-0.386347 z m -76.11258,0 0.38637,-0.386357 h 66.45361 l 0.38636,0.386357 v 0.386367 l -0.38636,0.386347 h -66.45361 l -0.38637,-0.386347 z m -76.11256,0 0.38636,-0.386357 h 66.45362 l 0.38635,0.386357 v 0.386367 l -0.38635,0.386347 h -66.45362 l -0.38636,-0.386347 z m -76.49893,0 0.38636,-0.386357 h 66.83997 l 0.38636,0.386357 v 0.386367 l -0.38636,0.386347 h -66.83997 l -0.38636,-0.386347 z m -76.49893,0 0.38636,-0.386357 h 66.83998 l 0.38635,0.386357 v 0.386367 l -0.38635,0.386347 h -66.83998 l -0.38636,-0.386347 z m 305.223,-8.886239 0.38635,-0.386363 H 699.182 l 0.38636,0.386363 v 0.386354 l -0.38636,0.386363 h -66.45362 l -0.38635,-0.386363 z m -76.11258,0 0.38637,-0.386363 h 66.45361 l 0.38636,0.386363 v 0.386354 l -0.38636,0.386363 h -0.77271 l -0.38636,-0.386363 h -0.77271 l -0.38637,0.386363 h -64.13546 l -0.38637,-0.386363 z m -76.11256,0 0.38636,-0.386363 0.38635,0.386363 0.38636,-0.386363 0.38636,0.386363 h 0.77272 l 0.38635,-0.386363 h 64.13548 l 0.38635,0.386363 v 0.386354 l -0.38635,0.386363 h -66.45362 l -0.38636,-0.386363 z m -76.49893,0 0.38636,-0.386363 0.38636,0.386363 h 0.38636 l 0.38635,-0.386363 h 65.6809 l 0.38636,0.386363 v 0.386354 l -0.38636,0.386363 h -66.83997 l -0.38636,-0.386363 z m -76.49893,0 0.38636,-0.386363 h 66.06726 l 0.38636,0.386363 0.38636,-0.386363 0.38635,0.386363 v 0.386354 l -0.38635,0.386363 h -0.77272 l -0.38636,-0.386363 -0.38635,0.386363 h -65.29455 l -0.38636,-0.386363 z m 305.223,-8.113521 v -0.772717 l 0.38635,-0.386363 H 699.182 l 0.38636,0.386363 v 0.386354 l -0.38636,0.386363 h -13.52254 l -0.38635,0.386354 h -1.9318 l -0.38635,-0.386354 h -4.63631 l -0.38635,0.386354 h -1.54543 l -0.38636,-0.386354 h -5.40901 l -0.38637,0.386354 h -3.86358 l -0.38636,-0.386354 h -0.38635 l -0.38636,0.386354 h -9.2726 l -0.38635,-0.386354 h -19.70428 l -0.38635,-0.386363 h -0.38637 l -0.77271,0.772717 h -0.77271 l -0.38636,-0.386354 -0.38637,0.386354 z m -76.11258,-0.772717 0.38637,-0.386363 h 66.45361 l 0.38636,0.386363 v 0.772717 l -0.38636,0.386354 -1.15907,-0.772717 h -1.15908 l -0.38636,0.386363 h -7.72716 l -0.38635,0.386354 h -0.38637 l -0.38635,-0.386354 h -0.38636 l -0.38636,0.386354 h -6.18173 l -0.38637,-0.386354 h -3.47722 l -0.38635,0.386354 h -1.15907 l -0.38636,-0.386354 -0.38637,0.386354 h -0.77271 l -0.38636,-0.386354 h -10.43166 l -0.38637,0.386354 h -16.99976 l -0.38636,-0.386354 h -3.09086 l -0.38636,0.386354 h -6.56809 l -0.77272,-0.772717 h -1.15907 v 0.386363 l -0.38636,0.386354 -0.38637,-0.386354 z m -76.11256,0 0.38636,-0.386363 h 66.45362 l 0.38635,0.386363 v 0.772717 l -0.38635,0.386354 -0.38637,-0.386354 v -0.386363 h -1.15907 l -0.38637,0.386363 h -10.0453 l -0.38636,0.386354 h -3.09087 l -0.38635,-0.386354 h -9.65895 l -0.38637,0.386354 h -5.40901 l -0.38636,-0.386354 h -10.43167 l -0.38636,0.386354 h -1.15908 l -0.38635,-0.386354 h -13.13619 l -0.38635,0.386354 h -3.09087 l -0.38636,-0.386354 h -2.7045 l -0.38637,-0.386363 h -1.93179 v 0.386363 l -0.38635,0.386354 -0.38636,-0.386354 z m -76.49893,0 0.38636,-0.386363 h 66.83997 l 0.38636,0.386363 v 0.772717 l -0.38636,0.386354 -0.38635,-0.386354 -0.38637,0.386354 -0.38635,-0.386354 -1.15909,-0.386363 -0.38634,0.386363 h -9.65896 l -0.38636,0.386354 h -8.49988 l -0.38636,-0.386354 h -3.47722 l -0.38637,0.386354 h -3.86357 l -0.38636,-0.386354 h -6.56809 l -0.38637,0.386354 h -9.27258 l -0.38637,-0.386354 h -1.93178 l -0.38637,0.386354 h -3.47722 l -0.38635,-0.386354 h -0.38636 l -0.38636,0.386354 h -8.49988 l -0.38637,-0.386354 h -2.7045 l -0.38635,-0.386363 h -1.54544 z m -76.49893,0.772717 v -0.772717 l 0.38636,-0.386363 h 66.83998 l 0.38635,0.386363 v 0.386354 l -0.38635,0.386363 -0.38636,-0.386363 h -1.15907 l -0.38637,0.386363 h -8.88624 l -0.38636,0.386354 h -18.93155 l -0.38636,-0.386354 h -1.54543 l -0.38636,0.386354 h -18.15883 l -0.38636,-0.386354 h -6.95445 l -0.38636,0.386354 h -5.02266 l -0.38635,-0.386354 h -2.70451 l -0.38636,0.386354 z m -119.77105,9.658954 1.15908,-2.31815 0.38635,0.772717 -0.38635,-1.545433 1.54543,-3.477221 0.38636,0.772717 0.38635,-0.772717 -0.38635,0.386354 -0.38636,-0.386354 1.15907,-3.863584 0.38636,-0.386363 0.38637,0.772717 0.38634,-0.772717 -0.38634,-1.545433 4.24993,-10.818026 0.38636,-0.386362 0.38635,0.386362 -0.38635,-0.772716 1.54544,-1.545434 0.77271,0.386354 -0.38636,-0.386354 0.77272,-0.772716 8.11352,-0.386363 0.38636,-0.386354 h 6.95445 l 0.38636,-0.386354 h 32.84044 l 1.54544,0.772708 1.15908,1.545433 0.38635,1.15908 v 29.749577 l -0.38635,1.159081 -1.93181,1.931794 -1.15907,-0.386356 h -42.11304 42.11304 l 0.38636,0.386356 -0.38636,0.386357 h -43.27211 l -8.88624,-17.386121 -1.9318,1.159071 v 1.15908 l 5.40902,11.204392 -2.31815,1.931784 -3.47722,1.931794 h -3.09087 l -1.54543,-1.15908 v -1.931785 l -1.15908,-3.863584 z m 0,-31.295014 0.38636,0.386354 h 0.77272 l 0.38635,0.386363 -0.38635,0.386354 v 0.772717 l -0.38636,0.386363 v 0.772716 l -0.38636,0.386354 v 0.772717 l -0.38636,0.386354 -0.38635,-0.386354 v -0.386354 h -0.77272 l -0.38636,-0.386363 0.38636,-0.386354 h -0.38636 l -0.38635,-0.386363 0.77271,-0.772716 v -0.386354 l 0.38636,-0.386363 v -0.386354 z"
     fill="#000000"
     fill-rule="evenodd"
     id="path2"
     style="stroke-width:0.386358" />
</svg>
