<svg xmlns="http://www.w3.org/2000/svg" width="2172" height="724" viewBox="0 0 2172 724">
<rect width="100%" height="100%" fill="white"/>
<path d="M 1943,106 L 1933,84 L 1910,76 L 1058,76 L 1042,103 L 1040,272 L 1033,271 L 1033,199 L 1023,192 L 994,196 L 987,264 L 984,149 L 967,121 L 914,107 L 814,115 L 763,143 L 724,235 L 725,159 L 706,158 L 709,242 L 688,233 L 681,245 L 456,266 L 356,289 L 318,335 L 318,372 L 329,386 L 317,402 L 337,439 L 273,431 L 267,441 L 231,433 L 245,422 L 229,418 L 223,444 L 202,449 L 202,502 L 242,501 L 243,488 L 267,474 L 336,474 L 343,495 L 331,538 L 343,584 L 387,632 L 434,648 L 485,642 L 538,603 L 561,553 L 558,514 L 564,522 L 580,515 L 1042,512 L 1048,526 L 1081,532 L 1128,518 L 1302,533 L 1305,525 L 1309,563 L 1330,605 L 1361,632 L 1408,648 L 1453,644 L 1498,619 L 1529,576 L 1533,523 L 1558,518 L 1557,561 L 1591,617 L 1637,644 L 1701,644 L 1746,619 L 1774,583 L 1785,539 L 1776,483 L 1821,485 L 1821,532 L 1830,538 L 1833,484 L 1920,479 L 1925,461 L 1936,462 L 1944,484 L 1946,462 L 1965,458 L 1964,437 L 1946,436 L 1944,417 L 1935,436 L 1924,435 L 1924,416 L 1969,384 L 1972,268 L 1943,271 Z M 1307,513 L 1308,513 L 1309,514 L 1310,514 L 1311,515 L 1311,522 L 1310,523 L 1309,522 L 1309,516 L 1308,516 L 1306,514 Z M 488,511 L 490,513 L 490,514 L 491,515 L 491,517 L 492,518 L 492,520 L 493,521 L 493,524 L 494,525 L 494,542 L 493,543 L 493,546 L 492,547 L 492,549 L 491,550 L 491,551 L 490,552 L 490,554 L 489,555 L 489,556 L 487,558 L 487,559 L 483,563 L 482,562 L 482,561 L 485,558 L 485,557 L 486,556 L 486,555 L 487,554 L 487,553 L 488,552 L 488,551 L 489,550 L 489,549 L 490,548 L 490,546 L 491,545 L 491,542 L 492,541 L 492,526 L 491,525 L 491,522 L 490,521 L 490,519 L 489,518 L 489,516 L 488,515 L 488,514 L 487,513 L 487,512 Z M 1535,504 L 1536,505 L 1536,508 L 1537,509 L 1537,514 L 1536,515 L 1535,514 L 1535,510 L 1534,509 L 1534,505 Z M 560,504 L 561,505 L 561,508 L 562,509 L 562,514 L 561,515 L 560,514 L 560,510 L 559,509 L 559,505 Z M 1404,490 L 1405,491 L 1404,492 L 1403,492 L 1402,493 L 1401,493 L 1400,494 L 1399,494 L 1397,496 L 1396,496 L 1394,498 L 1393,498 L 1385,506 L 1385,507 L 1382,510 L 1382,511 L 1381,512 L 1381,513 L 1380,514 L 1380,515 L 1379,516 L 1379,517 L 1378,518 L 1378,520 L 1377,521 L 1376,520 L 1376,517 L 1377,516 L 1377,515 L 1378,514 L 1378,513 L 1379,512 L 1379,511 L 1380,510 L 1380,509 L 1383,506 L 1383,505 L 1393,495 L 1394,495 L 1396,493 L 1397,493 L 1398,492 L 1399,492 L 1400,491 L 1401,491 L 1402,490 Z M 551,490 L 552,491 L 552,493 L 553,494 L 553,496 L 554,497 L 554,499 L 555,500 L 555,501 L 554,502 L 552,500 L 552,498 L 551,497 L 551,495 L 550,494 L 550,491 Z M 1664,486 L 1676,486 L 1677,487 L 1681,487 L 1682,488 L 1685,488 L 1688,490 L 1690,490 L 1697,494 L 1708,504 L 1715,516 L 1715,518 L 1717,522 L 1717,525 L 1718,526 L 1718,540 L 1717,541 L 1716,548 L 1710,560 L 1703,568 L 1695,574 L 1687,578 L 1684,578 L 1680,580 L 1674,580 L 1673,581 L 1660,580 L 1659,579 L 1653,578 L 1642,572 L 1628,557 L 1625,551 L 1625,549 L 1623,545 L 1623,541 L 1622,540 L 1622,526 L 1623,525 L 1623,521 L 1626,515 L 1626,513 L 1631,505 L 1640,496 L 1646,492 L 1653,489 L 1655,489 L 1656,490 L 1653,492 L 1649,493 L 1640,499 L 1632,508 L 1626,520 L 1625,528 L 1624,529 L 1624,538 L 1625,539 L 1625,543 L 1626,544 L 1627,549 L 1633,560 L 1642,569 L 1648,573 L 1658,577 L 1661,577 L 1662,578 L 1679,578 L 1688,574 L 1690,574 L 1698,569 L 1707,560 L 1714,547 L 1715,539 L 1716,538 L 1716,529 L 1715,528 L 1715,523 L 1710,511 L 1700,499 L 1691,493 L 1680,489 L 1672,489 L 1671,488 L 1668,488 L 1667,489 L 1660,489 L 1659,490 L 1656,490 L 1655,489 L 1656,488 L 1663,487 Z M 1416,486 L 1428,486 L 1429,487 L 1433,487 L 1434,488 L 1439,489 L 1450,495 L 1458,502 L 1458,503 L 1464,510 L 1467,516 L 1467,518 L 1469,522 L 1469,526 L 1470,527 L 1470,539 L 1469,540 L 1469,544 L 1468,545 L 1467,550 L 1461,561 L 1450,572 L 1449,572 L 1447,574 L 1441,577 L 1436,578 L 1435,579 L 1432,579 L 1431,580 L 1426,580 L 1425,581 L 1418,581 L 1417,580 L 1412,580 L 1411,579 L 1408,579 L 1407,578 L 1402,577 L 1393,572 L 1383,562 L 1383,561 L 1379,556 L 1377,552 L 1377,550 L 1375,547 L 1375,544 L 1374,543 L 1374,537 L 1373,536 L 1374,524 L 1376,520 L 1377,521 L 1377,524 L 1376,525 L 1376,541 L 1377,542 L 1377,545 L 1378,546 L 1378,548 L 1379,549 L 1379,551 L 1381,555 L 1383,557 L 1385,561 L 1392,568 L 1393,568 L 1396,571 L 1409,577 L 1412,577 L 1413,578 L 1430,578 L 1431,577 L 1434,577 L 1440,574 L 1442,574 L 1444,572 L 1448,570 L 1451,567 L 1452,567 L 1458,561 L 1464,551 L 1464,549 L 1465,548 L 1465,546 L 1467,542 L 1467,524 L 1466,523 L 1465,518 L 1461,510 L 1459,508 L 1459,507 L 1449,497 L 1438,491 L 1435,491 L 1431,489 L 1412,489 L 1411,490 L 1408,490 L 1407,489 L 1408,488 L 1410,488 L 1411,487 L 1415,487 Z M 441,486 L 453,486 L 454,487 L 458,487 L 459,488 L 464,489 L 472,493 L 474,495 L 475,495 L 485,505 L 488,511 L 487,512 L 485,510 L 483,506 L 474,497 L 463,491 L 457,490 L 456,489 L 450,489 L 449,488 L 437,489 L 436,490 L 428,492 L 424,495 L 421,496 L 419,498 L 418,498 L 410,506 L 403,519 L 403,522 L 402,523 L 402,526 L 401,527 L 401,538 L 402,539 L 402,544 L 403,545 L 403,547 L 409,559 L 420,570 L 434,577 L 437,577 L 438,578 L 445,578 L 446,579 L 448,578 L 455,578 L 456,577 L 459,577 L 472,571 L 482,562 L 483,563 L 483,564 L 476,571 L 475,571 L 470,575 L 464,578 L 461,578 L 457,580 L 451,580 L 450,581 L 436,580 L 435,579 L 427,577 L 420,573 L 417,570 L 416,570 L 411,565 L 411,564 L 405,557 L 402,551 L 402,549 L 400,545 L 400,541 L 399,540 L 399,526 L 400,525 L 401,518 L 408,505 L 417,496 L 418,496 L 421,493 L 427,490 L 429,490 L 432,488 L 440,487 Z M 1318,492 L 1317,493 L 1316,492 L 1317,493 L 1317,495 L 1316,496 L 1316,498 L 1315,499 L 1315,500 L 1314,501 L 1310,501 L 1310,503 L 1309,504 L 1309,507 L 1308,508 L 1308,511 L 1307,512 L 1305,509 L 1291,509 L 1290,508 L 1277,508 L 1276,507 L 1262,507 L 1261,506 L 1249,506 L 1248,505 L 1233,505 L 1232,504 L 1219,504 L 1218,503 L 1205,503 L 1204,502 L 1192,502 L 1191,501 L 1178,501 L 1177,500 L 1164,500 L 1163,499 L 1149,499 L 1148,498 L 1133,498 L 1132,497 L 1129,497 L 1128,496 L 1128,491 L 1127,490 L 1128,489 L 1206,489 L 1207,488 L 1235,488 L 1236,489 L 1243,489 L 1244,488 L 1293,488 L 1294,487 L 1313,487 L 1313,486 L 1315,483 L 1316,484 L 1315,489 L 1316,490 L 1317,490 L 1318,491 Z M 540,463 L 542,465 L 542,466 L 543,467 L 540,470 L 540,471 L 539,472 L 537,470 L 540,467 L 540,466 L 539,465 L 539,464 Z M 1513,460 L 1516,463 L 1516,464 L 1518,466 L 1518,467 L 1517,468 L 1517,469 L 1514,472 L 1513,471 L 1513,470 L 1515,468 L 1515,466 L 1514,465 L 1514,464 L 1512,462 L 1512,461 Z M 1753,456 L 1754,455 L 1757,455 L 1762,460 L 1762,461 L 1761,462 L 1756,457 L 1754,457 Z M 361,455 L 362,456 L 361,457 L 360,457 L 360,458 L 356,462 L 356,463 L 353,466 L 353,467 L 356,470 L 355,471 L 355,472 L 354,473 L 353,472 L 353,470 L 350,467 L 350,466 L 353,463 L 353,462 L 358,457 L 358,456 L 359,455 Z M 1500,451 L 1501,452 L 1501,454 L 1504,457 L 1505,457 L 1506,458 L 1505,459 L 1503,459 L 1498,454 L 1498,453 Z M 667,446 L 668,445 L 669,446 L 669,452 L 670,453 L 670,465 L 671,466 L 671,489 L 938,489 L 939,490 L 938,491 L 670,491 L 669,490 L 669,467 L 668,466 Z M 522,445 L 523,445 L 526,448 L 526,450 L 524,452 L 524,453 L 523,454 L 521,452 L 523,450 L 523,448 L 521,446 Z M 666,434 L 667,435 L 667,438 L 668,439 L 668,445 L 667,446 L 666,445 L 666,440 L 665,439 L 665,435 Z M 392,430 L 393,431 L 391,433 L 390,433 L 389,434 L 389,437 L 390,438 L 388,440 L 387,440 L 386,439 L 387,438 L 387,435 L 386,434 L 389,431 L 390,431 L 391,430 Z M 493,428 L 494,427 L 496,427 L 497,428 L 498,428 L 499,429 L 500,429 L 501,430 L 502,430 L 503,431 L 504,431 L 506,433 L 506,435 L 505,436 L 504,435 L 504,434 L 503,433 L 502,433 L 501,432 L 500,432 L 499,431 L 498,431 L 497,430 L 496,430 L 495,429 L 494,429 Z M 1632,423 L 1633,424 L 1633,426 L 1634,427 L 1634,428 L 1632,430 L 1630,430 L 1629,431 L 1627,431 L 1626,430 L 1627,429 L 1628,429 L 1629,428 L 1631,428 L 1631,424 Z M 441,421 L 442,420 L 443,421 L 449,421 L 450,420 L 451,421 L 451,422 L 450,423 L 442,423 L 441,422 Z M 1416,420 L 1417,419 L 1418,420 L 1418,421 L 1425,421 L 1426,422 L 1425,423 L 1417,423 L 1416,422 Z M 1397,421 L 1397,422 L 1396,423 L 1394,421 L 1393,421 L 1392,422 L 1390,422 L 1389,423 L 1387,423 L 1386,424 L 1385,424 L 1384,425 L 1383,425 L 1382,424 L 1384,422 L 1385,422 L 1386,421 L 1388,421 L 1389,420 L 1391,420 L 1392,419 L 1395,419 Z M 470,421 L 472,419 L 473,420 L 477,420 L 478,421 L 480,421 L 481,422 L 483,422 L 484,423 L 484,428 L 483,429 L 482,428 L 482,424 L 480,424 L 479,423 L 477,423 L 476,422 L 471,422 Z M 1832,418 L 1833,419 L 1833,479 L 1832,480 L 1831,479 L 1831,419 Z M 1431,418 L 1432,417 L 1439,417 L 1440,418 L 1440,422 L 1441,423 L 1440,424 L 1439,424 L 1438,423 L 1438,420 L 1437,419 L 1432,419 Z M 1234,417 L 1235,418 L 1235,483 L 1234,484 L 1233,483 L 1233,418 Z M 988,380 L 989,381 L 990,380 L 991,381 L 992,380 L 993,381 L 993,414 L 996,417 L 998,417 L 999,418 L 1023,418 L 1024,419 L 1024,425 L 1023,426 L 988,426 L 987,425 L 987,381 Z M 617,380 L 618,379 L 620,379 L 621,380 L 623,380 L 624,381 L 625,381 L 626,382 L 627,382 L 628,383 L 629,383 L 631,385 L 630,386 L 629,386 L 628,385 L 627,385 L 626,384 L 625,384 L 624,383 L 623,383 L 622,382 L 620,382 L 619,381 L 618,381 Z M 353,378 L 352,379 L 349,379 L 348,380 L 346,380 L 345,381 L 343,381 L 342,382 L 340,382 L 339,381 L 340,380 L 341,380 L 342,379 L 344,379 L 345,378 L 347,378 L 348,377 L 352,377 Z M 1861,376 L 1862,375 L 1889,375 L 1890,374 L 1909,374 L 1910,375 L 1950,375 L 1951,376 L 1950,377 L 1862,377 Z M 1056,376 L 1065,374 L 1837,374 L 1860,376 L 1290,377 L 1260,414 L 1251,412 L 1251,392 L 1277,377 Z M 335,374 L 336,375 L 336,376 L 337,377 L 337,381 L 336,382 L 337,383 L 336,384 L 335,384 L 334,383 L 334,375 Z M 574,370 L 575,369 L 581,369 L 582,370 L 587,370 L 588,371 L 592,371 L 593,372 L 597,372 L 598,373 L 601,373 L 602,374 L 605,374 L 606,375 L 609,375 L 610,376 L 611,376 L 612,377 L 611,378 L 609,378 L 608,377 L 605,377 L 604,376 L 601,376 L 600,375 L 596,375 L 595,374 L 591,374 L 590,373 L 586,373 L 585,372 L 580,372 L 579,371 L 575,371 Z M 389,369 L 390,368 L 396,368 L 397,367 L 404,367 L 405,368 L 404,369 L 398,369 L 397,370 L 390,370 Z M 355,376 L 356,375 L 358,375 L 359,374 L 362,374 L 363,373 L 367,373 L 368,372 L 370,372 L 371,371 L 371,368 L 372,367 L 373,368 L 373,371 L 376,371 L 377,370 L 383,370 L 384,369 L 389,369 L 390,370 L 389,371 L 385,371 L 384,372 L 379,372 L 378,373 L 374,373 L 373,374 L 369,374 L 368,375 L 365,375 L 364,376 L 360,376 L 359,377 L 356,377 Z M 1034,361 L 1036,361 L 1037,362 L 1037,377 L 1038,378 L 1037,379 L 1037,380 L 1039,380 L 1040,379 L 1043,379 L 1045,381 L 1046,381 L 1047,382 L 1048,382 L 1049,383 L 1050,383 L 1051,384 L 1052,384 L 1053,385 L 1054,385 L 1055,386 L 1056,386 L 1058,388 L 1060,388 L 1061,389 L 1062,389 L 1064,391 L 1065,391 L 1066,392 L 1066,397 L 1065,398 L 1065,411 L 1066,412 L 1065,413 L 1034,413 L 1033,412 L 1033,377 L 1032,376 L 1032,374 L 1033,373 L 1033,362 Z M 1030,335 L 1031,336 L 1031,358 L 1030,359 L 1029,358 L 1029,336 Z M 1942,333 L 1945,333 L 1949,337 L 1949,338 L 1950,339 L 1950,343 L 1951,344 L 1951,345 L 1950,346 L 1950,349 L 1949,350 L 1949,351 L 1945,355 L 1942,355 L 1938,351 L 1938,350 L 1937,349 L 1937,345 L 1936,344 L 1936,342 L 1937,341 L 1937,339 L 1938,338 L 1938,337 L 1940,335 L 1941,336 L 1945,336 L 1944,335 L 1942,335 L 1941,334 Z M 579,322 L 581,324 L 582,323 L 583,324 L 583,361 L 580,364 L 577,361 L 577,324 Z M 609,321 L 611,323 L 611,324 L 612,325 L 612,360 L 609,363 L 608,363 L 606,361 L 606,324 Z M 595,321 L 597,323 L 597,324 L 598,325 L 598,360 L 595,363 L 594,363 L 592,361 L 592,324 Z M 565,321 L 566,322 L 567,322 L 568,323 L 568,324 L 569,325 L 569,328 L 568,329 L 568,354 L 569,355 L 569,360 L 565,364 L 564,364 L 563,363 L 563,362 L 562,361 L 562,325 L 563,324 L 563,323 Z M 549,321 L 551,321 L 553,323 L 553,324 L 554,325 L 554,361 L 551,364 L 549,364 L 548,363 L 548,362 L 547,361 L 547,323 Z M 568,368 L 567,369 L 559,369 L 558,368 L 545,368 L 544,367 L 531,367 L 530,366 L 512,366 L 511,365 L 443,365 L 442,366 L 426,366 L 425,367 L 415,367 L 414,368 L 405,368 L 404,367 L 405,366 L 421,365 L 422,364 L 434,364 L 435,363 L 486,363 L 485,361 L 485,324 L 488,321 L 491,325 L 491,361 L 490,363 L 500,363 L 499,360 L 499,325 L 502,321 L 505,323 L 505,327 L 506,328 L 506,346 L 505,347 L 506,348 L 505,349 L 506,350 L 506,357 L 505,358 L 505,363 L 516,363 L 515,361 L 515,324 L 516,323 L 517,324 L 518,323 L 517,322 L 519,321 L 522,325 L 522,337 L 521,338 L 522,358 L 520,364 L 533,364 L 531,361 L 531,324 L 534,321 L 536,322 L 538,325 L 538,351 L 537,352 L 538,354 L 538,360 L 535,364 L 559,366 L 560,367 L 567,367 Z M 353,315 L 359,315 L 360,314 L 361,315 L 361,327 L 360,328 L 358,328 L 357,327 L 358,326 L 359,326 L 359,319 L 358,318 L 356,318 L 355,317 L 354,317 L 352,319 L 351,319 L 350,318 Z M 1032,286 L 1034,286 L 1035,287 L 1036,287 L 1037,288 L 1037,292 L 1036,293 L 1036,295 L 1037,296 L 1037,307 L 1035,309 L 1035,310 L 1034,311 L 1033,310 L 1033,288 L 1032,288 L 1031,287 Z M 1030,274 L 1031,275 L 1031,285 L 1030,286 L 1029,285 L 1029,275 Z M 923,276 L 923,280 L 919,284 L 914,284 L 913,283 L 912,283 L 911,282 L 911,281 L 890,281 L 889,280 L 888,280 L 887,279 L 887,278 L 889,276 L 909,276 L 910,275 L 911,275 L 913,273 L 912,272 L 914,270 L 915,270 L 916,269 L 917,270 L 918,270 L 919,271 L 919,274 L 921,274 Z M 1723,267 L 1724,266 L 1927,266 L 1928,267 L 1928,271 L 1927,272 L 1724,272 L 1723,271 Z M 1504,267 L 1505,266 L 1706,266 L 1707,267 L 1707,271 L 1706,272 L 1505,272 L 1504,271 Z M 1290,267 L 1291,266 L 1488,266 L 1489,267 L 1489,271 L 1488,272 L 1292,272 L 1291,271 L 1291,268 Z M 1075,271 L 1075,267 L 1076,266 L 1275,266 L 1276,267 L 1276,269 L 1274,272 L 1076,272 Z M 756,241 L 757,240 L 757,238 L 758,237 L 759,237 L 761,239 L 762,239 L 763,240 L 761,242 L 757,242 Z M 1723,215 L 1724,214 L 1927,214 L 1928,215 L 1928,242 L 1927,243 L 1724,243 L 1723,242 Z M 1504,215 L 1505,214 L 1706,214 L 1707,215 L 1707,242 L 1706,243 L 1505,243 L 1504,242 Z M 1291,215 L 1292,214 L 1488,214 L 1489,215 L 1489,228 L 1488,229 L 1488,231 L 1489,232 L 1489,239 L 1487,241 L 1483,241 L 1488,241 L 1489,242 L 1488,243 L 1291,243 L 1290,242 L 1291,241 Z M 1075,215 L 1076,214 L 1274,214 L 1275,215 L 1275,241 L 1276,242 L 1275,243 L 1076,243 L 1075,242 Z M 1723,184 L 1724,183 L 1725,184 L 1726,183 L 1927,183 L 1928,184 L 1928,190 L 1927,191 L 1724,191 L 1723,190 Z M 1504,184 L 1505,183 L 1706,183 L 1707,184 L 1707,190 L 1706,191 L 1705,190 L 1704,191 L 1505,191 L 1504,190 Z M 1290,190 L 1291,189 L 1291,184 L 1292,183 L 1488,183 L 1489,184 L 1489,190 L 1488,191 L 1291,191 Z M 1075,184 L 1076,183 L 1077,184 L 1078,183 L 1274,183 L 1276,185 L 1276,186 L 1275,187 L 1275,189 L 1276,190 L 1275,191 L 1076,191 L 1075,190 Z M 910,171 L 910,173 L 911,174 L 911,229 L 910,230 L 909,233 L 904,238 L 903,238 L 900,240 L 896,240 L 895,241 L 778,241 L 777,240 L 767,240 L 766,239 L 764,239 L 763,238 L 762,238 L 758,234 L 758,233 L 757,232 L 757,230 L 756,229 L 756,226 L 755,225 L 755,221 L 756,220 L 757,215 L 759,212 L 759,210 L 761,207 L 761,205 L 763,202 L 763,200 L 764,199 L 764,198 L 766,195 L 766,193 L 769,188 L 769,186 L 771,183 L 771,181 L 772,180 L 774,175 L 776,173 L 776,172 L 781,167 L 782,167 L 787,164 L 789,164 L 790,163 L 794,163 L 795,162 L 801,162 L 802,161 L 813,161 L 814,160 L 839,160 L 840,159 L 866,159 L 867,160 L 887,160 L 888,161 L 896,161 L 897,162 L 900,162 L 901,163 L 904,164 L 909,169 L 909,170 Z M 1722,92 L 1723,91 L 1913,91 L 1920,94 L 1924,98 L 1928,107 L 1928,113 L 1929,114 L 1929,158 L 1927,160 L 1917,160 L 1916,161 L 1905,161 L 1904,160 L 1732,160 L 1731,161 L 1730,160 L 1728,161 L 1726,161 L 1725,160 L 1724,161 L 1723,160 L 1723,155 L 1722,154 L 1722,136 L 1723,135 L 1722,134 L 1723,132 L 1723,110 L 1722,109 Z M 1504,92 L 1505,91 L 1706,91 L 1707,92 L 1707,102 L 1708,103 L 1708,159 L 1706,161 L 1705,160 L 1690,160 L 1689,161 L 1677,161 L 1676,160 L 1637,160 L 1636,161 L 1630,161 L 1629,160 L 1627,161 L 1626,160 L 1517,160 L 1516,161 L 1505,161 L 1504,160 Z M 1292,92 L 1293,91 L 1488,91 L 1489,92 L 1489,159 L 1488,160 L 1470,160 L 1469,161 L 1460,161 L 1459,160 L 1457,161 L 1452,161 L 1451,160 L 1415,160 L 1414,161 L 1409,161 L 1408,160 L 1406,161 L 1403,161 L 1402,160 L 1348,160 L 1347,161 L 1346,160 L 1333,160 L 1332,161 L 1329,161 L 1328,160 L 1327,161 L 1321,161 L 1320,160 L 1304,160 L 1303,161 L 1292,161 L 1290,159 L 1290,105 L 1291,104 L 1291,96 L 1292,95 Z M 1057,271 L 1056,112 L 1057,111 L 1058,98 L 1060,94 L 1061,96 L 1063,93 L 1061,95 L 1060,94 L 1062,91 L 1276,91 L 1277,92 L 1277,98 L 1276,99 L 1276,159 L 1275,160 L 1255,160 L 1254,161 L 1246,161 L 1245,160 L 1136,160 L 1135,161 L 1130,161 L 1129,160 L 1125,161 L 1123,160 L 1101,160 L 1100,161 L 1090,161 L 1089,160 L 1062,159 L 1059,162 L 1059,230 L 1060,231 L 1059,235 L 1059,244 L 1060,245 L 1059,265 L 1060,266 L 1060,271 L 1059,272 Z" fill="black" fill-rule="evenodd"/>
</svg>