<svg xmlns="http://www.w3.org/2000/svg" width="2172" height="724" viewBox="0 0 2172 724">
<rect width="100%" height="100%" fill="white"/>
<path d="M 260,414 L 276,483 L 294,453 L 347,487 L 384,491 L 389,477 L 370,473 L 426,434 L 387,490 L 392,563 L 433,612 L 497,629 L 546,614 L 581,580 L 597,542 L 590,485 L 620,496 L 601,500 L 602,514 L 685,495 L 658,392 L 677,415 L 689,478 L 916,479 L 689,481 L 689,494 L 980,491 L 1067,475 L 1071,495 L 1198,513 L 1227,509 L 1235,460 L 1285,416 L 1376,406 L 1294,414 L 1239,475 L 1232,543 L 1269,603 L 1313,626 L 1364,628 L 1418,602 L 1444,569 L 1456,524 L 1447,474 L 1423,437 L 1377,406 L 1454,463 L 1458,530 L 1476,538 L 1509,529 L 1513,469 L 1542,444 L 1513,498 L 1523,568 L 1583,622 L 1644,628 L 1701,600 L 1736,536 L 1727,472 L 1683,417 L 1719,452 L 1743,454 L 1767,521 L 1769,452 L 1874,452 L 1881,471 L 1898,467 L 1895,448 L 1891,466 L 1879,461 L 1898,423 L 1875,410 L 1875,360 L 1886,360 L 1886,379 L 1899,377 L 1898,272 L 1883,216 L 1139,223 L 1138,164 L 984,164 L 983,339 L 1138,339 L 1139,266 L 1140,339 L 1152,341 L 980,342 L 994,377 L 964,378 L 959,126 L 926,100 L 845,98 L 738,120 L 696,165 L 717,168 L 690,227 L 518,243 L 359,279 L 336,299 L 335,367 L 360,375 L 346,385 L 349,410 L 284,407 L 285,394 L 302,395 L 282,386 Z M 1337,579 L 1338,578 L 1348,578 L 1349,579 L 1348,580 L 1338,580 Z M 537,534 L 538,535 L 537,536 L 537,538 L 536,539 L 536,540 L 535,541 L 535,542 L 533,544 L 531,542 L 533,540 L 533,539 L 534,538 L 534,536 L 536,534 Z M 1671,533 L 1672,534 L 1672,537 L 1671,538 L 1671,539 L 1670,540 L 1670,541 L 1668,543 L 1666,541 L 1667,540 L 1667,539 L 1668,538 L 1668,537 L 1669,536 L 1669,535 Z M 1577,533 L 1578,533 L 1579,534 L 1579,535 L 1580,536 L 1580,538 L 1581,539 L 1581,540 L 1582,541 L 1582,543 L 1581,544 L 1580,543 L 1580,542 L 1578,540 L 1578,538 L 1577,537 L 1577,536 L 1576,535 L 1576,534 Z M 1391,533 L 1392,534 L 1391,535 L 1391,537 L 1390,538 L 1390,539 L 1389,540 L 1389,541 L 1387,543 L 1386,542 L 1386,541 L 1387,540 L 1387,538 L 1388,537 L 1388,536 L 1389,535 L 1389,534 L 1390,533 Z M 1295,533 L 1296,533 L 1297,534 L 1297,535 L 1298,536 L 1298,537 L 1299,538 L 1299,540 L 1300,541 L 1300,542 L 1299,543 L 1297,541 L 1297,540 L 1296,539 L 1296,537 L 1295,536 L 1295,535 L 1294,534 Z M 550,513 L 551,514 L 551,526 L 550,527 L 549,526 L 549,514 Z M 1281,511 L 1282,512 L 1282,524 L 1281,525 L 1280,524 L 1280,512 Z M 1686,510 L 1687,511 L 1687,524 L 1686,525 L 1685,524 L 1685,511 Z M 1405,510 L 1406,511 L 1406,524 L 1405,525 L 1404,524 L 1404,511 Z M 534,499 L 536,501 L 536,503 L 537,504 L 537,506 L 538,507 L 538,508 L 537,509 L 536,509 L 535,508 L 535,507 L 534,506 L 534,504 L 533,503 L 533,502 L 532,501 Z M 1580,497 L 1581,498 L 1581,500 L 1580,501 L 1580,503 L 1579,504 L 1579,505 L 1578,506 L 1576,506 L 1575,505 L 1575,503 L 1576,502 L 1576,500 L 1577,499 L 1577,498 L 1578,497 L 1579,498 Z M 1669,496 L 1670,497 L 1670,498 L 1671,497 L 1672,498 L 1672,499 L 1673,500 L 1673,502 L 1674,503 L 1674,505 L 1673,506 L 1671,506 L 1670,505 L 1670,503 L 1669,502 L 1669,500 L 1668,499 L 1668,497 Z M 1298,496 L 1299,497 L 1299,499 L 1298,500 L 1298,502 L 1297,503 L 1297,505 L 1296,506 L 1295,506 L 1294,505 L 1294,503 L 1295,502 L 1295,500 L 1296,499 L 1296,498 Z M 1389,495 L 1390,496 L 1390,497 L 1391,498 L 1391,500 L 1392,501 L 1392,504 L 1393,505 L 1392,506 L 1390,506 L 1389,505 L 1389,503 L 1388,502 L 1388,501 L 1387,500 L 1387,497 Z M 505,477 L 506,476 L 508,476 L 509,477 L 510,477 L 511,478 L 512,478 L 513,479 L 511,481 L 510,481 L 509,480 L 507,480 L 505,478 Z M 477,478 L 476,479 L 475,479 L 474,480 L 473,480 L 472,481 L 469,481 L 468,480 L 470,478 L 472,478 L 473,477 L 474,477 L 475,476 Z M 1640,474 L 1641,473 L 1643,473 L 1644,472 L 1645,472 L 1646,473 L 1645,474 L 1646,473 L 1647,473 L 1649,475 L 1647,477 L 1646,476 L 1644,476 L 1643,475 L 1641,475 Z M 1610,472 L 1610,473 L 1608,475 L 1607,475 L 1606,476 L 1605,476 L 1604,477 L 1603,477 L 1602,476 L 1603,475 L 1602,474 L 1603,473 L 1604,473 L 1605,472 L 1607,472 L 1608,471 L 1609,471 Z M 587,465 L 588,466 L 588,467 L 590,469 L 590,470 L 591,471 L 591,472 L 592,473 L 592,475 L 593,476 L 593,477 L 594,478 L 594,481 L 595,482 L 595,484 L 594,485 L 593,485 L 592,484 L 591,485 L 590,485 L 589,484 L 591,482 L 590,481 L 590,479 L 589,478 L 589,477 L 588,476 L 588,475 L 587,474 L 587,473 L 586,472 L 586,471 L 585,470 L 584,470 L 583,471 L 582,471 L 581,470 L 581,469 L 582,468 L 585,468 L 585,467 Z M 272,457 L 273,457 L 274,458 L 274,459 L 275,460 L 275,462 L 276,463 L 276,466 L 277,467 L 277,468 L 278,467 L 279,468 L 279,474 L 278,475 L 274,475 L 270,471 L 270,466 L 271,465 L 271,463 L 272,462 L 272,459 L 271,458 Z M 1618,456 L 1619,455 L 1629,455 L 1630,456 L 1629,457 L 1619,457 Z M 1337,456 L 1338,455 L 1348,455 L 1349,456 L 1348,457 L 1338,457 Z M 1751,452 L 1760,452 L 1761,453 L 1761,470 L 1760,471 L 1759,470 L 1759,469 L 1758,468 L 1758,467 L 1757,466 L 1757,465 L 1755,463 L 1755,462 L 1754,461 L 1754,460 L 1753,459 L 1753,458 L 1754,457 L 1755,458 L 1758,458 L 1758,455 L 1759,454 L 1754,454 L 1755,455 L 1755,456 L 1753,458 L 1752,457 L 1752,456 L 1751,455 L 1751,454 L 1750,453 Z M 1875,450 L 1875,446 L 1876,445 L 1879,445 L 1881,447 L 1880,448 L 1879,448 L 1878,449 L 1877,449 L 1877,450 L 1876,451 Z M 1574,420 L 1574,421 L 1573,422 L 1572,422 L 1571,423 L 1569,423 L 1568,422 L 1566,422 L 1565,423 L 1564,423 L 1560,427 L 1560,430 L 1559,431 L 1558,431 L 1556,433 L 1555,433 L 1554,432 L 1552,432 L 1550,434 L 1549,434 L 1543,440 L 1543,442 L 1544,443 L 1544,444 L 1543,445 L 1541,443 L 1541,442 L 1538,442 L 1537,441 L 1540,438 L 1540,437 L 1548,429 L 1549,429 L 1550,428 L 1552,430 L 1553,429 L 1554,430 L 1553,429 L 1551,429 L 1550,428 L 1551,427 L 1554,427 L 1560,421 L 1561,421 L 1562,420 L 1563,420 L 1564,419 L 1565,419 L 1566,420 L 1569,420 L 1570,421 L 1569,420 L 1570,419 L 1571,419 L 1572,420 L 1573,419 Z M 426,434 L 432,428 L 432,427 L 438,422 L 444,419 L 446,419 L 449,417 L 457,417 L 462,412 L 470,411 L 471,410 L 476,410 L 478,412 L 478,413 L 479,413 L 483,409 L 500,409 L 503,412 L 506,410 L 513,410 L 514,411 L 517,411 L 518,412 L 522,413 L 526,418 L 528,417 L 533,417 L 536,419 L 539,419 L 547,423 L 548,424 L 548,426 L 547,427 L 544,427 L 547,427 L 549,426 L 558,434 L 557,435 L 558,436 L 557,435 L 558,434 L 560,435 L 561,434 L 563,435 L 573,445 L 574,449 L 579,453 L 579,454 L 582,457 L 581,459 L 582,458 L 584,461 L 583,462 L 584,463 L 585,462 L 586,464 L 584,466 L 582,466 L 582,468 L 581,469 L 579,465 L 581,464 L 581,462 L 575,454 L 576,453 L 575,454 L 571,455 L 567,451 L 569,449 L 569,447 L 561,439 L 558,441 L 556,440 L 553,437 L 553,434 L 547,429 L 544,429 L 543,430 L 540,429 L 539,428 L 540,425 L 535,422 L 537,421 L 533,422 L 530,420 L 527,423 L 523,421 L 524,420 L 526,420 L 522,419 L 524,420 L 523,421 L 521,421 L 520,420 L 520,417 L 516,416 L 515,415 L 512,415 L 511,414 L 508,414 L 508,415 L 506,417 L 503,417 L 502,416 L 503,415 L 505,415 L 504,414 L 502,414 L 501,416 L 499,416 L 498,415 L 498,413 L 484,413 L 484,415 L 480,417 L 476,417 L 474,414 L 472,414 L 471,415 L 468,415 L 467,416 L 462,417 L 462,420 L 458,422 L 455,422 L 453,420 L 447,423 L 443,422 L 445,423 L 442,425 L 443,426 L 443,428 L 442,429 L 441,427 L 442,429 L 441,430 L 440,430 L 439,428 L 437,428 L 431,433 L 431,435 L 430,436 L 429,435 L 428,436 Z M 1566,417 L 1568,415 L 1571,414 L 1573,412 L 1574,412 L 1575,411 L 1577,411 L 1578,410 L 1580,410 L 1581,409 L 1584,409 L 1585,410 L 1587,410 L 1591,406 L 1592,406 L 1595,404 L 1598,404 L 1599,403 L 1602,403 L 1603,402 L 1608,402 L 1610,404 L 1612,404 L 1614,402 L 1615,402 L 1616,401 L 1632,401 L 1633,402 L 1634,402 L 1635,403 L 1635,404 L 1637,404 L 1639,402 L 1644,402 L 1645,403 L 1649,403 L 1650,404 L 1652,404 L 1653,405 L 1655,405 L 1656,406 L 1655,407 L 1652,407 L 1655,407 L 1656,406 L 1658,406 L 1659,407 L 1659,408 L 1661,410 L 1663,410 L 1664,409 L 1668,409 L 1671,411 L 1673,411 L 1674,412 L 1675,412 L 1677,414 L 1676,415 L 1677,414 L 1678,414 L 1679,415 L 1680,415 L 1683,417 L 1682,418 L 1679,418 L 1679,419 L 1681,419 L 1682,420 L 1681,421 L 1679,421 L 1679,422 L 1678,423 L 1677,423 L 1676,422 L 1677,421 L 1676,420 L 1677,421 L 1676,422 L 1675,422 L 1674,421 L 1674,417 L 1673,417 L 1672,416 L 1671,416 L 1668,414 L 1666,414 L 1665,413 L 1664,413 L 1662,415 L 1659,415 L 1658,414 L 1659,413 L 1658,414 L 1655,414 L 1654,413 L 1654,410 L 1653,409 L 1651,409 L 1650,408 L 1647,408 L 1646,407 L 1641,407 L 1640,408 L 1637,408 L 1636,409 L 1633,409 L 1631,407 L 1631,406 L 1630,405 L 1618,405 L 1617,406 L 1617,407 L 1615,409 L 1614,409 L 1613,408 L 1613,407 L 1611,407 L 1610,408 L 1612,408 L 1613,409 L 1612,410 L 1609,410 L 1607,408 L 1607,407 L 1602,407 L 1601,408 L 1598,408 L 1597,409 L 1595,409 L 1592,412 L 1591,412 L 1592,412 L 1593,413 L 1592,414 L 1590,414 L 1589,415 L 1586,415 L 1584,413 L 1582,413 L 1581,414 L 1580,414 L 1577,416 L 1576,416 L 1575,415 L 1573,415 L 1575,415 L 1576,416 L 1575,417 L 1574,417 L 1572,420 L 1570,417 L 1569,417 L 1568,418 L 1567,418 Z M 653,389 L 654,388 L 657,388 L 658,387 L 662,391 L 661,392 L 658,392 L 657,393 Z M 1174,325 L 1175,324 L 1176,325 L 1176,339 L 1367,339 L 1368,340 L 1372,340 L 1373,341 L 1372,342 L 1175,342 L 1174,341 Z M 1648,324 L 1649,323 L 1650,324 L 1650,327 L 1651,328 L 1651,332 L 1650,333 L 1650,339 L 1859,339 L 1859,327 L 1860,326 L 1861,327 L 1861,341 L 1860,342 L 1848,342 L 1847,341 L 1846,342 L 1845,341 L 1832,341 L 1831,342 L 1649,342 L 1648,341 Z M 1612,323 L 1613,324 L 1613,325 L 1614,326 L 1614,327 L 1615,328 L 1615,329 L 1616,330 L 1616,332 L 1614,334 L 1611,334 L 1610,333 L 1610,326 L 1611,325 L 1611,324 Z M 1411,324 L 1412,323 L 1413,324 L 1413,339 L 1625,339 L 1626,341 L 1625,342 L 1624,341 L 1621,341 L 1620,342 L 1412,342 L 1411,341 Z M 1845,320 L 1846,320 L 1847,321 L 1845,323 L 1845,330 L 1847,328 L 1847,324 L 1848,323 L 1849,324 L 1849,329 L 1850,330 L 1849,331 L 1850,332 L 1847,335 L 1846,334 L 1844,334 L 1842,332 L 1842,325 L 1843,324 L 1843,322 Z M 379,315 L 380,314 L 392,314 L 393,315 L 392,316 L 380,316 Z M 1403,303 L 1404,304 L 1404,325 L 1405,326 L 1405,327 L 1404,328 L 1398,328 L 1397,327 L 1397,324 L 1395,322 L 1395,306 L 1396,305 L 1397,306 L 1397,308 L 1398,309 L 1398,313 L 1397,314 L 1397,321 L 1398,320 L 1399,321 L 1399,322 L 1400,322 L 1400,321 L 1401,320 L 1401,318 L 1400,317 L 1400,305 L 1401,304 L 1402,304 Z M 1869,302 L 1870,302 L 1871,303 L 1870,304 L 1870,313 L 1869,314 L 1869,315 L 1870,316 L 1870,318 L 1869,319 L 1869,320 L 1871,322 L 1872,321 L 1872,317 L 1873,316 L 1874,317 L 1874,313 L 1873,314 L 1872,313 L 1872,305 L 1873,304 L 1872,304 L 1871,303 L 1872,302 L 1874,302 L 1875,303 L 1875,304 L 1876,305 L 1876,322 L 1875,323 L 1875,327 L 1874,328 L 1870,328 L 1869,327 L 1869,323 L 1867,321 L 1867,306 L 1868,305 L 1868,303 Z M 1639,302 L 1640,302 L 1641,303 L 1641,307 L 1642,308 L 1642,311 L 1640,313 L 1638,311 L 1638,308 L 1639,307 L 1639,306 L 1638,305 L 1639,304 L 1638,303 Z M 1634,302 L 1635,302 L 1636,303 L 1635,304 L 1636,305 L 1636,308 L 1637,309 L 1636,310 L 1636,319 L 1637,320 L 1637,321 L 1636,322 L 1637,323 L 1638,323 L 1639,322 L 1639,321 L 1638,320 L 1638,319 L 1639,318 L 1639,316 L 1640,315 L 1641,316 L 1641,323 L 1640,324 L 1640,327 L 1639,328 L 1635,328 L 1634,327 L 1634,323 L 1633,322 L 1633,321 L 1632,320 L 1632,305 L 1633,304 L 1633,303 Z M 1161,302 L 1165,302 L 1167,304 L 1167,310 L 1168,311 L 1168,312 L 1167,313 L 1167,319 L 1168,320 L 1167,321 L 1167,327 L 1166,328 L 1161,328 L 1160,327 L 1160,322 L 1159,321 L 1159,304 Z M 339,303 L 340,302 L 347,302 L 348,303 L 347,304 L 345,304 L 347,304 L 348,305 L 348,308 L 347,309 L 346,308 L 345,308 L 344,307 L 339,307 L 338,306 L 339,305 Z M 605,296 L 607,296 L 608,297 L 609,297 L 610,298 L 610,299 L 612,301 L 612,355 L 611,356 L 611,357 L 609,359 L 608,359 L 607,360 L 605,360 L 600,355 L 600,302 L 601,301 L 601,300 L 603,298 L 604,299 L 603,298 Z M 658,387 L 653,389 L 649,386 L 653,385 L 649,386 L 646,384 L 648,382 L 644,383 L 626,374 L 601,367 L 564,361 L 523,358 L 449,359 L 401,365 L 362,375 L 357,373 L 376,366 L 398,362 L 399,359 L 396,358 L 400,356 L 403,357 L 401,361 L 445,355 L 499,354 L 499,303 L 504,297 L 507,297 L 511,302 L 511,354 L 520,354 L 520,301 L 522,301 L 524,297 L 527,297 L 532,303 L 531,354 L 541,355 L 540,302 L 542,299 L 545,299 L 543,298 L 548,296 L 553,302 L 553,352 L 551,355 L 562,356 L 560,354 L 560,300 L 566,296 L 569,298 L 568,300 L 571,301 L 571,354 L 569,357 L 582,359 L 579,349 L 579,309 L 581,299 L 586,296 L 592,302 L 592,354 L 587,360 L 613,365 L 634,372 L 648,379 Z M 1884,281 L 1885,281 L 1886,282 L 1886,341 L 1885,342 L 1884,342 L 1883,341 L 1883,282 Z M 1860,264 L 1861,265 L 1861,305 L 1860,306 L 1859,305 L 1859,265 Z M 1649,264 L 1650,265 L 1650,304 L 1649,305 L 1648,304 L 1648,265 Z M 1412,263 L 1413,264 L 1413,306 L 1412,307 L 1411,306 L 1411,264 Z M 1175,263 L 1176,264 L 1176,304 L 1175,305 L 1174,304 L 1174,264 Z M 1139,247 L 1140,248 L 1140,263 L 1139,264 L 1138,263 L 1138,248 Z M 1860,246 L 1861,247 L 1861,257 L 1860,258 L 1859,257 L 1859,247 Z M 1648,246 L 1648,242 L 1649,241 L 1860,241 L 1861,242 L 1860,243 L 1860,246 L 1859,247 L 1649,247 Z M 1411,261 L 1411,242 L 1412,241 L 1625,241 L 1626,242 L 1626,246 L 1625,247 L 1413,247 L 1413,261 L 1412,262 Z M 1174,254 L 1174,242 L 1175,241 L 1388,241 L 1389,242 L 1389,246 L 1388,247 L 1176,247 L 1176,254 L 1175,255 Z M 1139,241 L 1140,240 L 1143,240 L 1144,241 L 1150,241 L 1151,240 L 1152,241 L 1152,246 L 1151,247 L 1140,247 L 1139,246 Z M 995,215 L 996,214 L 1127,214 L 1128,215 L 1127,216 L 996,216 Z M 730,167 L 731,168 L 731,171 L 730,172 L 730,173 L 729,174 L 729,176 L 728,177 L 728,179 L 729,179 L 730,180 L 730,184 L 731,184 L 732,185 L 731,186 L 731,188 L 730,189 L 730,191 L 729,192 L 729,193 L 728,194 L 728,196 L 727,197 L 727,199 L 726,200 L 726,201 L 725,202 L 725,204 L 724,205 L 724,206 L 723,207 L 723,209 L 722,210 L 722,211 L 721,212 L 721,214 L 720,215 L 720,216 L 719,217 L 719,219 L 718,220 L 718,222 L 717,223 L 717,225 L 715,227 L 711,223 L 710,223 L 708,221 L 708,220 L 709,219 L 709,217 L 710,216 L 710,215 L 711,214 L 711,212 L 712,211 L 712,209 L 713,208 L 713,207 L 714,206 L 714,204 L 715,203 L 715,202 L 716,201 L 716,199 L 717,198 L 717,197 L 718,196 L 718,195 L 719,194 L 719,192 L 720,191 L 720,189 L 721,188 L 721,187 L 722,186 L 722,184 L 723,183 L 723,182 L 724,181 L 724,180 L 725,179 L 725,177 L 726,176 L 726,175 L 727,174 L 727,172 L 728,171 L 728,170 L 729,169 L 729,168 Z M 723,159 L 722,160 L 721,160 L 719,162 L 715,162 L 714,163 L 712,163 L 711,162 L 712,161 L 713,161 L 714,160 L 716,160 L 717,159 L 718,159 L 719,158 L 722,158 Z M 743,213 L 747,205 L 749,197 L 752,192 L 752,190 L 754,187 L 754,185 L 756,182 L 756,180 L 757,179 L 757,177 L 760,172 L 762,176 L 763,176 L 764,174 L 760,172 L 760,170 L 764,162 L 766,166 L 766,175 L 767,177 L 769,177 L 771,174 L 771,172 L 770,171 L 770,164 L 769,163 L 769,159 L 767,156 L 771,151 L 773,152 L 772,151 L 774,149 L 780,148 L 781,147 L 887,147 L 888,148 L 892,149 L 897,154 L 898,156 L 898,159 L 899,160 L 899,228 L 898,229 L 897,233 L 891,239 L 889,240 L 765,240 L 764,239 L 760,239 L 758,237 L 756,233 L 747,223 L 743,215 Z M 729,140 L 730,139 L 740,139 L 741,140 L 740,141 L 730,141 Z" fill="black" fill-rule="evenodd"/>
</svg>