<?xml version="1.0" encoding="UTF-8" standalone="no"?>
<svg
   width="750"
   height="250"
   viewBox="0 0 750 250"
   version="1.1"
   id="svg1"
   sodipodi:docname="gmc_cckw_363_supply_black.svg"
   inkscape:version="1.4.2 (f4327f4, 2025-05-13)"
   xmlns:inkscape="http://www.inkscape.org/namespaces/inkscape"
   xmlns:sodipodi="http://sodipodi.sourceforge.net/DTD/sodipodi-0.dtd"
   xmlns="http://www.w3.org/2000/svg"
   xmlns:svg="http://www.w3.org/2000/svg">
  <defs
     id="defs1" />
  <sodipodi:namedview
     id="namedview1"
     pagecolor="#ffffff"
     bordercolor="#000000"
     borderopacity="0.25"
     inkscape:showpageshadow="2"
     inkscape:pageopacity="0.0"
     inkscape:pagecheckerboard="0"
     inkscape:deskcolor="#d1d1d1"
     inkscape:zoom="1.1123389"
     inkscape:cx="637.3957"
     inkscape:cy="431.07368"
     inkscape:window-width="2560"
     inkscape:window-height="1377"
     inkscape:window-x="-8"
     inkscape:window-y="-8"
     inkscape:window-maximized="1"
     inkscape:current-layer="svg1" />
  <path
     d="m 15.470199,150.64412 6.964176,30.03299 7.834683,-13.05782 23.068822,14.79886 16.104646,1.74105 2.176307,-6.09365 -8.269963,-1.74104 24.374609,-16.97517 -16.97518,24.37459 2.176308,31.77403 17.845686,21.32778 27.856687,7.39943 21.32777,-6.52891 15.23413,-14.79886 6.96417,-16.53991 -3.04682,-24.80986 13.05781,4.78787 -8.26994,1.74104 0.43525,6.09365 36.12664,-8.26995 -11.75203,-44.83185 8.26995,10.011 5.22312,27.42142 98.80418,0.43526 -98.80418,0.87052 v 5.65838 l 126.66086,-1.30577 37.86768,-6.96417 1.74104,8.70521 55.27811,7.83468 12.62257,-1.74104 3.48208,-21.32776 21.76304,-19.15148 39.60872,-4.3526 -35.69138,3.48208 -23.93934,26.55091 -3.04683,29.59773 16.10465,26.11563 19.15147,10.01099 22.19829,0.87052 23.50409,-11.31677 11.31678,-14.3636 5.22312,-19.58674 -3.91735,-21.76303 -10.44626,-16.10465 -20.02199,-13.49307 33.51508,24.80985 1.74104,29.16248 7.8347,3.48208 14.3636,-3.91735 1.74104,-26.11564 12.62255,-10.88152 -12.62255,23.50408 4.3526,30.46825 26.11565,23.50407 26.55089,2.61156 24.80987,-12.18729 15.23412,-27.85668 -3.91735,-27.85669 -19.15147,-23.93933 15.66939,15.23413 10.44626,0.87052 10.44626,29.16246 0.87052,-30.03298 h 45.70236 l 3.04683,8.26994 7.39943,-1.74104 -1.30578,-8.26996 -1.74104,7.8347 -5.22313,-2.17631 8.26995,-16.5399 -10.01099,-5.65839 v -21.76303 h 4.78787 V 135.41 l 5.65838,-0.87052 -0.43526,-45.702381 -6.52891,-24.374596 -323.83395,3.046828 -0.43525,-25.680383 h -67.03016 l -0.43525,76.170632 h 67.46541 l 0.43525,-31.774042 0.43527,31.774042 5.22312,0.87052 -74.86484,0.43525 6.09366,15.23413 -13.05782,0.43526 -2.17631,-109.685696 -14.36361,-11.316778 -35.2561,-0.87052 -46.5729,9.575723 -18.28095,19.586747 9.14047,1.305773 -11.75203,25.680383 -74.86485,6.964176 -69.206449,15.669379 -10.01099,8.705213 -0.435267,29.59773 10.881524,3.48209 -6.093655,4.3526 1.305787,10.88152 -28.291944,-1.30579 0.435253,-5.65838 7.399444,0.43526 -8.705217,-3.91735 z m 468.775761,71.81802 0.43525,-0.43527 h 4.35262 l 0.43525,0.43527 -0.43525,0.43526 h -4.35262 z m -348.20856,-19.58673 0.43527,0.43525 -0.43527,0.43527 v 0.87052 l -0.43525,0.43525 v 0.43527 l -0.43527,0.43527 v 0.43525 l -0.87052,0.87052 -0.87052,-0.87052 0.87052,-0.87052 v -0.43527 l 0.43527,-0.43525 v -0.87052 l 0.87052,-0.87052 z m 493.58563,-0.43527 0.43526,0.43527 v 1.30577 l -0.43526,0.43527 v 0.43525 l -0.43527,0.43527 v 0.43527 l -0.87052,0.87052 -0.87052,-0.87052 0.43527,-0.43527 v -0.43527 l 0.43525,-0.43525 v -0.43527 l 0.43527,-0.43525 v -0.43527 z m -40.91451,0 h 0.43527 l 0.43525,0.43527 v 0.43525 l 0.43527,0.43527 v 0.87052 l 0.43525,0.43525 v 0.43527 l 0.43527,0.43527 v 0.87052 l -0.43527,0.43525 -0.43525,-0.43525 v -0.43527 l -0.87052,-0.87052 v -0.87052 l -0.43527,-0.43527 v -0.43525 l -0.43525,-0.43527 v -0.43525 z m -80.95848,0 0.43526,0.43527 -0.43526,0.43525 v 0.87052 l -0.43527,0.43527 v 0.43525 l -0.43525,0.43527 v 0.43527 l -0.87052,0.87052 -0.43527,-0.43527 v -0.43525 l 0.43527,-0.43527 v -0.87052 l 0.43525,-0.43527 v -0.43525 l 0.43527,-0.43527 v -0.43525 l 0.43525,-0.43527 z m -41.78503,0 h 0.43526 l 0.43526,0.43527 v 0.43525 l 0.43526,0.43527 v 0.43525 l 0.43526,0.43527 v 0.87052 l 0.43526,0.43527 v 0.43525 l -0.43526,0.43527 -0.87052,-0.87052 v -0.43527 l -0.43526,-0.43527 v -0.87052 l -0.43526,-0.43525 v -0.43527 l -0.43526,-0.43525 z m -324.26922,-8.70522 0.43527,0.43527 v 5.22312 l -0.43527,0.43527 -0.43525,-0.43527 v -5.22312 z m 318.17557,-0.87052 0.43526,0.43527 v 5.22312 l -0.43526,0.43527 -0.43526,-0.43527 v -5.22312 z m 176.28058,-0.43525 0.43526,0.43525 v 5.65839 l -0.43526,0.43527 -0.43526,-0.43527 v -5.65839 z m -122.30825,0 0.43525,0.43525 v 5.65839 l -0.43525,0.43527 -0.43527,-0.43527 v -5.65839 z m -379.11206,-4.78787 0.87052,0.87052 v 0.87052 l 0.43525,0.43527 v 0.87052 l 0.43527,0.43525 v 0.43527 l -0.43527,0.43525 h -0.43525 l -0.43527,-0.43525 v -0.43527 l -0.43525,-0.43525 v -0.87052 l -0.43527,-0.43527 v -0.43525 l -0.43525,-0.43527 z m 455.28268,-0.87052 0.43525,0.43526 v 0.87052 l -0.43525,0.43526 v 0.87052 l -0.43527,0.43527 v 0.43525 l -0.43525,0.43527 h -0.87052 l -0.43527,-0.43527 v -0.87052 l 0.43527,-0.43525 v -0.87053 l 0.43525,-0.43526 v -0.43526 l 0.43527,-0.43526 0.43525,0.43526 z m 38.7382,-0.43526 0.43525,0.43526 v 0.43526 l 0.43527,-0.43526 0.43526,0.43526 v 0.43526 l 0.43526,0.43526 v 0.87053 l 0.43526,0.43525 v 0.87052 l -0.43526,0.43527 h -0.87052 l -0.43527,-0.43527 v -0.87052 l -0.43525,-0.43525 v -0.87053 l -0.43527,-0.43526 v -0.87052 z m -161.48172,0 0.43526,0.43526 v 0.87052 l -0.43526,0.43526 v 0.87053 l -0.43526,0.43525 v 0.87052 l -0.43526,0.43527 h -0.43526 l -0.43526,-0.43527 v -0.87052 l 0.43526,-0.43525 v -0.87053 l 0.43526,-0.43526 v -0.43526 z m 39.60873,-0.43526 0.43525,0.43526 v 0.43526 l 0.43527,0.43526 v 0.87052 l 0.43526,0.43526 v 1.30579 l 0.43526,0.43525 -0.43526,0.43527 h -0.87053 l -0.43525,-0.43527 v -0.87052 l -0.43527,-0.43525 v -0.43527 l -0.43525,-0.43526 v -1.30578 z m -384.77046,-7.83469 0.43527,-0.43527 h 0.87052 l 0.43526,0.43527 h 0.43526 l 0.43526,0.43526 h 0.43526 l 0.43526,0.43526 -0.87052,0.87052 h -0.43526 l -0.43526,-0.43526 h -0.87052 l -0.87053,-0.87052 z m -12.18729,0.43526 -0.43527,0.43526 h -0.43525 l -0.43527,0.43526 h -0.43525 l -0.43527,0.43526 h -1.30577 l -0.43527,-0.43526 0.87052,-0.87052 h 0.87052 l 0.43527,-0.43526 h 0.43525 l 0.43527,-0.43527 z m 506.20817,-1.74105 0.43527,-0.43525 h 0.87052 l 0.43525,-0.43527 h 0.43527 l 0.43525,0.43527 -0.43525,0.43525 0.43525,-0.43525 h 0.43527 l 0.87052,0.87052 -0.87052,0.87052 -0.43527,-0.43527 h -0.87052 l -0.43525,-0.43525 h -0.87052 z m -13.05782,-0.87052 v 0.43527 l -0.87052,0.87052 h -0.43526 l -0.43526,0.43525 h -0.43526 l -0.43526,0.43527 h -0.43526 l -0.43526,-0.43527 0.43526,-0.43525 -0.43526,-0.43527 0.43526,-0.43525 h 0.43526 l 0.43526,-0.43527 h 0.87052 l 0.43526,-0.43526 h 0.43527 z m -445.27168,-3.04682 0.43527,0.43526 v 0.43526 l 0.87052,0.87052 v 0.43526 l 0.43526,0.43526 v 0.43526 l 0.43526,0.43527 v 0.87052 l 0.43526,0.43525 v 0.43527 l 0.43526,0.43526 v 1.30578 l 0.43526,0.43526 v 0.87052 l -0.43526,0.43526 h -0.43526 l -0.43526,-0.43526 -0.43526,0.43526 h -0.43526 l -0.43527,-0.43526 0.87053,-0.87052 -0.43526,-0.43526 v -0.87052 l -0.43527,-0.43526 v -0.43526 l -0.43525,-0.43527 v -0.43525 l -0.43527,-0.43527 v -0.43525 l -0.43525,-0.43527 v -0.43526 l -0.43527,-0.43526 h -0.43525 l -0.43527,0.43526 h -0.43525 l -0.43527,-0.43526 v -0.43526 l 0.43527,-0.43526 h 1.30577 v -0.43526 z M 20.693321,169.36033 h 0.435267 l 0.435267,0.43527 v 0.43525 l 0.435253,0.43527 v 0.87052 l 0.435267,0.43525 v 1.30579 l 0.435253,0.43526 v 0.43526 l 0.435267,-0.43526 0.435254,0.43526 v 2.61156 l -0.435254,0.43527 h -1.74104 L 19.8228,175.45398 v -2.1763 l 0.435267,-0.43526 v -0.87053 l 0.435254,-0.43525 v -1.30579 l -0.435254,-0.43525 z m 585.860889,-0.43525 0.43526,-0.43527 h 4.3526 l 0.43527,0.43527 -0.43527,0.43525 h -4.3526 z m -122.30825,0 0.43525,-0.43527 h 4.35262 l 0.43525,0.43527 -0.43525,0.43525 h -4.35262 z m 180.19792,-1.74104 h 3.91735 l 0.43527,0.43525 v 7.39943 l -0.43527,0.43526 -0.43527,-0.43526 v -0.43526 l -0.43525,-0.43526 v -0.43526 l -0.43527,-0.43526 v -0.43526 l -0.87052,-0.87053 v -0.43525 l -0.43525,-0.43527 v -0.43525 l -0.43527,-0.43527 v -0.43525 l 0.43527,-0.43527 0.43525,0.43527 h 1.30579 v -1.30579 l 0.43525,-0.43525 h -2.17629 l 0.43525,0.43525 v 0.43527 l -0.87052,0.87052 -0.43525,-0.43527 v -0.43525 l -0.43527,-0.43527 v -0.43525 l -0.43525,-0.43527 z m 53.97233,-0.87054 v -1.74104 l 0.43526,-0.43525 h 1.30578 l 0.87052,0.87052 -0.43526,0.43525 h -0.43526 l -0.43526,0.43527 h -0.43526 v 0.43525 l -0.43526,0.43527 z M 587.40275,153.25568 v 0.43527 l -0.43527,0.43525 h -0.43526 l -0.43526,0.43527 h -0.87052 l -0.43527,-0.43527 h -0.87052 l -0.43525,0.43527 h -0.43527 l -1.74104,1.74104 v 1.30579 l -0.43525,0.43525 h -0.43527 l -0.87052,0.87052 h -0.43527 l -0.43525,-0.43525 h -0.87052 l -0.87052,0.87052 h -0.43527 l -2.61156,2.61156 v 0.87052 l 0.43525,0.43527 v 0.43525 l -0.43525,0.43527 -0.87052,-0.87052 v -0.43527 h -1.30579 l -0.43525,-0.43525 1.30577,-1.30579 v -0.43527 l 3.4821,-3.48208 h 0.43525 l 0.43527,-0.43525 0.87052,0.87052 0.43525,-0.43527 0.43527,0.43527 -0.43527,-0.43527 h -0.87052 l -0.43525,-0.43525 0.43525,-0.43527 h 1.30579 l 2.61156,-2.61156 h 0.43527 l 0.43525,-0.43527 h 0.43527 l 0.43525,-0.43525 h 0.43527 l 0.43525,0.43525 h 1.30579 l 0.43526,0.43527 -0.43526,-0.43527 0.43526,-0.43525 h 0.43526 l 0.43526,0.43525 0.43526,-0.43525 z m -499.679271,6.09366 2.611561,-2.61156 v -0.43527 l 2.611561,-2.17631 2.611561,-1.30577 h 0.87052 l 1.305787,-0.87052 h 3.482081 l 2.17631,-2.17631 3.48208,-0.43527 0.43527,-0.43525 h 2.17629 l 0.87053,0.87052 v 0.43527 h 0.43526 l 1.74104,-1.74106 h 7.39943 l 1.30578,1.30579 1.30579,-0.87052 h 3.04682 l 0.43526,0.43525 h 1.30579 l 0.43525,0.43527 1.74104,0.43527 1.74104,2.17629 0.87054,-0.43525 h 2.17629 l 1.30579,0.87052 h 1.30577 l 3.4821,1.74104 0.43525,0.43525 v 0.87054 l -0.43525,0.43525 h -1.30579 1.30579 l 0.87052,-0.43525 3.91735,3.48208 -0.43527,0.43525 0.43527,0.43527 -0.43527,-0.43527 0.43527,-0.43525 0.87052,0.43525 0.43525,-0.43525 0.87052,0.43525 4.35262,4.35262 0.43525,1.74104 2.17631,1.74104 v 0.43527 l 1.30579,1.30577 -0.43527,0.87052 0.43527,-0.43525 0.87052,1.30577 -0.43527,0.43527 0.43527,0.43525 0.43525,-0.43525 0.43527,0.87052 -0.87052,0.87052 h -0.87052 v 0.87052 l -0.43527,0.43526 -0.87052,-1.74104 0.87052,-0.43526 v -0.87052 l -2.61156,-3.48208 0.43525,-0.43527 -0.43525,0.43527 -1.74104,0.43525 -1.74104,-1.74104 0.87052,-0.87052 v -0.87052 l -3.4821,-3.48208 -1.30577,0.87052 -0.87052,-0.43527 -1.30579,-1.30579 v -1.30577 l -2.61156,-2.17631 h -1.30579 l -0.43525,0.43527 -1.30579,-0.43527 -0.43527,-0.43525 0.43527,-1.30579 -2.17631,-1.30579 0.87052,-0.43525 -1.74104,0.43525 -1.30577,-0.87052 -1.30579,1.30579 -1.74104,-0.87052 0.43525,-0.43527 h 0.87052 l -1.74104,-0.43525 0.87052,0.43525 -0.43525,0.43527 h -0.87052 l -0.43527,-0.43527 v -1.30577 l -1.74104,-0.43527 -0.43525,-0.43525 h -1.30579 l -0.43526,-0.43527 h -1.30578 v 0.43527 l -0.87052,0.87052 h -1.30579 l -0.43525,-0.43527 0.43525,-0.43525 h 0.87052 l -0.43525,-0.43527 h -0.87052 l -0.43527,0.87052 h -0.87052 l -0.43526,-0.43525 v -0.87052 h -6.09364 v 0.87052 l -1.74105,0.87052 h -1.74105 l -0.87052,-1.30579 h -0.87052 l -0.43525,0.43527 h -1.30579 l -0.43525,0.43525 -2.17631,0.43527 v 1.30577 l -1.74104,0.87052 h -1.30579 l -0.87052,-0.87052 -2.611561,1.30579 -1.74104,-0.43527 0.87052,0.43527 -1.305788,0.87052 0.435268,0.43527 v 0.87052 l -0.435268,0.43525 -0.435253,-0.87052 0.435253,0.87052 -0.435253,0.43527 h -0.435267 l -0.435253,-0.87052 h -0.870534 l -2.611561,2.17629 v 0.87052 l -0.435253,0.43527 -0.435267,-0.43527 -0.435253,0.43527 z m 496.197171,-7.39943 0.87052,-0.87052 1.30579,-0.43527 0.87052,-0.87052 h 0.43527 l 0.43525,-0.43527 h 0.87052 l 0.43527,-0.43525 h 0.87052 l 0.43525,-0.43527 h 1.30579 l 0.43526,0.43527 h 0.87052 l 1.74104,-1.74104 h 0.43526 l 1.30579,-0.87052 h 1.30578 l 0.43526,-0.43527 h 1.30578 l 0.43526,-0.43525 h 2.1763 l 0.87052,0.87052 h 0.87052 l 0.87052,-0.87052 h 0.43527 l 0.43525,-0.43527 h 6.96418 l 0.43525,0.43527 h 0.43527 l 0.43527,0.43525 v 0.43527 h 0.87052 l 0.87052,-0.87052 h 2.17629 l 0.43527,0.43525 h 1.74104 l 0.43527,0.43527 h 0.87052 l 0.43525,0.43525 h 0.87052 l 0.43527,0.43527 -0.43527,0.43525 h -1.30577 1.30577 l 0.43527,-0.43525 h 0.87052 l 0.43527,0.43525 v 0.43527 l 0.87052,0.87052 h 0.87052 l 0.43525,-0.43527 h 1.74104 l 1.30579,0.87052 h 0.87052 l 0.43526,0.43527 h 0.43526 l 0.87052,0.87052 -0.43526,0.43527 0.43526,-0.43527 h 0.43527 l 0.43525,0.43527 h 0.43527 l 1.30577,0.87052 -0.43525,0.43525 h -1.30579 v 0.43527 h 0.87052 l 0.43527,0.43525 -0.43527,0.43527 h -0.87052 v 0.43525 l -0.43525,0.43527 h -0.43527 l -0.43526,-0.43527 0.43526,-0.43525 -0.43526,-0.43527 0.43526,0.43527 -0.43526,0.43525 h -0.43526 l -0.43526,-0.43525 v -1.74104 h -0.43526 l -0.43526,-0.43527 h -0.43526 l -1.30579,-0.87052 h -0.87052 l -0.43525,-0.43525 h -0.43527 l -0.87052,0.87052 h -1.30577 l -0.43527,-0.43527 0.43527,-0.43525 -0.43527,0.43525 h -1.30579 l -0.43525,-0.43525 v -1.30579 l -0.43527,-0.43527 h -0.87052 l -0.43525,-0.43525 h -1.30579 l -0.43527,-0.43527 h -2.17629 l -0.43527,0.43527 h -1.30577 l -0.43527,0.43525 h -1.30579 l -0.87052,-0.87052 v -0.43525 l -0.43525,-0.43527 h -5.22313 l -0.43526,0.43527 v 0.43525 l -0.87052,0.87052 h -0.43527 l -0.43525,-0.43525 v -0.43527 h -0.87052 l -0.43527,0.43527 h 0.87052 l 0.43527,0.43525 -0.43527,0.43527 h -1.30577 l -0.87053,-0.87052 v -0.43527 h -2.1763 l -0.43526,0.43527 H 597.849 l -0.43526,0.43525 h -0.87052 l -1.30579,1.30579 h -0.43526 0.43526 l 0.43526,0.43527 -0.43526,0.43525 h -0.87052 l -0.43526,0.43527 h -1.30578 l -0.87052,-0.87052 h -0.87052 l -0.43527,0.43525 h -0.43525 l -1.30579,0.87052 h -0.43525 l -0.43527,-0.43525 h -0.87052 0.87052 l 0.43527,0.43525 -0.43527,0.43527 h -0.43525 l -0.87053,1.30577 -0.87052,-1.30577 h -0.43526 l -0.43527,0.43525 h -0.43525 z m -397.393,-12.1873 0.43525,-0.43527 h 1.30579 l 0.43527,-0.43526 1.74104,1.74105 -0.43527,0.43526 h -1.30577 l -0.43527,0.43526 z m 226.77082,-27.85669 0.43525,-0.43525 0.43527,0.43525 v 6.09366 h 83.13479 l 0.43527,0.43525 h 1.74104 l 0.43525,0.43527 -0.43525,0.43525 h -85.74637 l -0.43525,-0.43525 z m 206.31357,-0.43525 0.43525,-0.43527 0.43527,0.43527 v 1.30577 l 0.43525,0.43527 v 1.74104 l -0.43525,0.43525 v 2.61158 h 90.96947 v -5.22314 l 0.43527,-0.43525 0.43525,0.43525 v 6.09366 l -0.43525,0.43525 h -5.22314 l -0.43525,-0.43525 -0.43527,0.43525 -0.43525,-0.43525 H 699.7 l -0.43527,0.43525 h -79.21744 l -0.43525,-0.43525 z m -15.6694,-0.43527 0.43527,0.43527 v 0.43525 l 0.43525,0.43527 v 0.43525 l 0.43527,0.43527 v 0.43525 l 0.43525,0.43527 v 0.87052 l -0.87052,0.87052 h -1.30577 l -0.43527,-0.43527 v -3.04681 l 0.43527,-0.43527 v -0.43525 z m -87.48739,0.43527 0.43526,-0.43527 0.43526,0.43527 v 6.52891 h 92.27526 l 0.43527,0.87052 -0.43527,0.43525 -0.43525,-0.43525 h -1.30579 l -0.43526,0.43525 h -90.53422 l -0.43526,-0.43525 z m 188.90314,-1.74106 h 0.43525 l 0.43527,0.43527 -0.87052,0.87052 v 3.04683 l 0.87052,-0.87052 v -1.74104 l 0.43525,-0.43527 0.43527,0.43527 v 2.17629 l 0.43527,0.43527 -0.43527,0.43525 0.43527,0.43527 -1.30579,1.30577 -0.43527,-0.43525 h -0.87052 l -0.87052,-0.87052 v -3.04683 l 0.43527,-0.43525 v -0.87054 z m -638.092172,-2.17629 0.435267,-0.43527 h 5.223122 l 0.435267,0.43527 -0.435267,0.43525 h -5.223122 z m 445.706942,-5.22314 0.43526,0.43527 v 9.14047 l 0.43527,0.43527 v 0.43525 l -0.43527,0.43527 h -2.61156 l -0.43526,-0.43527 v -1.30577 l -0.87052,-0.87054 v -6.96416 l 0.43526,-0.43527 0.43526,0.43527 v 0.87052 l 0.43526,0.43525 v 1.74106 l -0.43526,0.43525 v 3.04683 l 0.43526,-0.43527 0.43526,0.43527 v 0.43525 h 0.43526 v -0.43525 l 0.43526,-0.43527 v -0.87052 l -0.43526,-0.43525 v -5.22314 l 0.43526,-0.43525 h 0.43526 z m 202.83149,-0.43525 h 0.43525 l 0.43527,0.43525 -0.43527,0.43527 v 3.91735 l -0.43525,0.43525 v 0.43527 l 0.43525,0.43525 v 0.87052 l -0.43525,0.43527 v 0.43525 l 0.87052,0.87052 0.43525,-0.43525 v -1.74104 l 0.43527,-0.43527 0.43525,0.43527 v -1.74104 l -0.43525,0.43525 -0.43527,-0.43525 v -3.4821 l 0.43527,-0.43525 h -0.43527 l -0.43525,-0.43527 0.43525,-0.43525 h 0.87052 l 0.43527,0.43525 v 0.43527 l 0.43526,0.43525 v 7.39943 l -0.43526,0.43527 v 1.74104 l -0.43527,0.43527 h -1.74104 l -0.43525,-0.43527 v -1.74104 l -0.87052,-0.87052 v -6.52891 l 0.43525,-0.43527 v -0.87052 z m -100.10996,0 h 0.43525 l 0.43527,0.43525 v 1.74104 l 0.43525,0.43527 v 1.30578 l -0.87052,0.87053 -0.87052,-0.87053 v -1.30578 l 0.43527,-0.43527 v -0.43525 l -0.43527,-0.43527 0.43527,-0.43525 -0.43527,-0.43527 z m -2.17631,0 h 0.43527 l 0.43525,0.43525 -0.43525,0.43527 0.43525,0.43525 v 1.30579 l 0.43527,0.43525 -0.43527,0.43527 v 3.91735 l 0.43527,0.43525 v 0.43527 l -0.43527,0.43525 0.43527,0.43527 h 0.43525 l 0.43527,-0.43527 v -0.43525 l -0.43527,-0.43527 v -0.43525 l 0.43527,-0.43527 v -0.87052 l 0.43525,-0.43525 0.43527,0.43525 v 3.04683 l -0.43527,0.43527 v 1.30577 l -0.43525,0.43527 h -1.74104 l -0.43527,-0.43527 v -1.74104 l -0.43527,-0.43527 v -0.43525 l -0.43525,-0.43527 v -6.52891 l 0.43525,-0.43525 v -0.43527 z m -205.8783,0 h 1.74104 l 0.87052,0.87052 v 2.61156 l 0.43527,0.43526 v 0.43526 l -0.43527,0.43527 v 2.61156 l 0.43527,0.43525 -0.43527,0.43527 v 2.61156 l -0.43525,0.43527 h -2.17631 l -0.43527,-0.43527 v -2.17631 l -0.43525,-0.43525 v -7.39943 z m -357.784281,0.43525 0.435253,-0.43525 h 3.046828 l 0.435253,0.43525 -0.435253,0.43527 h -0.870521 0.870521 l 0.435253,0.43525 v 1.30579 l -0.435253,0.43525 -0.435267,-0.43525 h -0.435254 l -0.435267,-0.43527 h -2.176293 l -0.435268,-0.43525 0.435268,-0.43527 z M 165.63514,99.283356 h 0.87052 l 0.43526,0.435267 h 0.43526 l 0.43526,0.435257 v 0.43526 l 0.87052,0.87052 v 23.50408 l -0.43526,0.43527 v 0.43525 l -0.87052,0.87052 h -0.43526 l -0.43526,0.43527 h -0.87052 l -2.17631,-2.17631 v -23.06881 l 0.43527,-0.43527 v -0.43525 l 0.87052,-0.87053 0.43526,0.43526 -0.43526,-0.43526 z m 23.06882,39.608724 -2.17631,0.87053 -1.74104,-1.30579 1.74104,-0.43526 -1.74104,0.43526 -1.30579,-0.87052 0.87052,-0.87052 -1.74104,0.43526 -7.83469,-3.91735 -10.88151,-3.04682 -16.10465,-2.61157 -17.84569,-1.30577 -32.209291,0.43525 -20.892514,2.61157 -16.975166,4.35261 -2.176308,-0.87052 8.269964,-3.04683 9.575723,-1.74104 0.435267,-1.30579 -1.305788,-0.43525 1.741055,-0.87052 1.305773,0.43525 -0.87052,1.74104 19.151474,-2.61156 23.504071,-0.43525 v -22.19831 l 2.17631,-2.611557 h 1.30578 l 1.74104,2.176307 v 22.63356 h 3.91734 v -23.06883 h 0.87052 l 0.87052,-1.741037 h 1.30579 l 2.17631,2.611557 -0.43527,22.19831 4.35262,0.43525 -0.43527,-23.06881 0.87052,-1.30579 h 1.30579 l -0.87052,-0.43526 2.17629,-0.870524 2.17631,2.611574 v 21.76304 l -0.87052,1.30577 4.78787,0.43527 -0.87052,-0.87052 v -23.50408 l 2.61156,-1.741054 1.30579,0.870524 -0.43527,0.87053 1.30579,0.43525 v 23.06883 l -0.87052,1.30577 5.65839,0.87052 -1.30579,-4.3526 v -17.41044 l 0.87052,-4.3526 2.17631,-1.305784 2.61156,2.611574 v 22.63356 l -2.17631,2.61156 11.31678,2.1763 9.14048,3.04682 6.09364,3.04683 z M 722.33355,92.754447 h 0.43526 l 0.43527,0.435267 V 118.8701 l -0.43527,0.43525 h -0.43526 l -0.43526,-0.43525 V 93.189714 Z m -10.44625,-7.399429 0.43525,0.435267 V 103.2007 l -0.43525,0.43527 -0.43527,-0.43527 V 85.790285 Z m -91.84001,0 0.43527,0.435267 v 16.975165 l -0.43527,0.43525 -0.43525,-0.43525 V 85.790285 Z m -103.15678,-0.435253 0.43526,0.435253 v 18.280952 l -0.43526,0.43525 -0.43526,-0.43525 V 85.355018 Z m -103.15679,0 0.43527,0.435253 v 17.410432 l -0.43527,0.43525 -0.43525,-0.43525 V 85.355018 Z m -15.66938,-6.964176 0.43527,0.435267 v 6.528909 l -0.43527,0.435253 -0.43525,-0.435253 v -6.528909 z m 313.82296,-0.435268 0.43525,0.435268 v 4.352601 l -0.43525,0.435267 -0.43527,-0.435267 v -4.352601 z m -92.27526,0 v -1.74104 l 0.43525,-0.435253 h 91.84001 l 0.43525,0.435253 -0.43525,0.435267 v 1.305773 l -0.43527,0.435268 h -91.40474 z m -103.15679,6.528923 v -8.269963 l 0.43526,-0.435253 h 92.71052 l 0.43527,0.435253 v 1.74104 l -0.43527,0.435268 h -92.27526 v 6.093655 l -0.43526,0.435254 z M 413.29847,81.002417 v -5.223136 l 0.43525,-0.435253 h 92.71053 l 0.43527,0.435253 v 1.74104 l -0.43527,0.435268 h -92.27526 v 3.046828 l -0.43527,0.435253 z m -15.23413,-5.658389 0.43527,-0.435267 h 1.30577 l 0.43527,0.435267 h 2.61156 l 0.43527,-0.435267 0.43525,0.435267 v 2.176293 l -0.43525,0.435268 h -4.78787 l -0.43527,-0.435268 z M 335.3868,64.02725 l 0.43527,-0.435267 h 57.01915 l 0.43525,0.435267 -0.43525,0.435253 h -57.01915 z m -115.34408,-20.892514 0.43526,0.435253 v 1.305787 l -0.43526,0.435268 v 0.435253 l -0.43526,0.435267 v 0.87052 l -0.43526,0.435253 v 0.87052 h 0.43526 l 0.43526,0.435268 v 1.74104 h 0.43526 l 0.43527,0.435267 -0.43527,0.435253 v 0.870521 l -0.43526,0.435267 v 0.87052 l -0.43526,0.435253 v 0.435267 l -0.43526,0.435253 v 0.870521 l -0.43526,0.435267 v 0.87052 l -0.43526,0.435267 v 0.435253 l -0.43526,0.435268 v 0.87052 l -0.43527,0.435253 v 0.435267 l -0.43525,0.435253 v 0.87052 l -0.43527,0.435268 v 0.435267 l -0.43525,0.435253 v 0.87052 l -0.43527,0.435267 v 0.435253 l -0.43525,0.435268 v 0.87052 l -0.43527,0.435253 v 0.87052 l -0.43526,0.435267 v 0.870521 l -0.87052,0.87052 -1.74104,-1.741041 h -0.43526 l -0.87052,-0.87052 v -0.435267 l 0.43526,-0.435253 v -0.87052 l 0.43526,-0.435268 V 64.02725 l 0.43526,-0.435267 v -0.87052 l 0.43526,-0.435253 v -0.870535 l 0.43526,-0.435253 v -0.435267 l 0.43526,-0.435253 v -0.87052 l 0.43526,-0.435267 v -0.435253 l 0.43526,-0.435268 v -0.87052 l 0.43526,-0.435253 v -0.435267 l 0.43526,-0.435267 v -0.435253 l 0.43527,-0.435268 v -0.87052 l 0.43525,-0.435253 v -0.87052 l 0.43527,-0.435267 v -0.435253 l 0.43525,-0.435268 v -0.87052 l 0.43527,-0.435267 v -0.435253 l 0.43525,-0.435267 v -0.435253 l 0.43527,-0.435268 v -0.87052 l 0.43526,-0.435253 v -0.435267 l 0.43526,-0.435253 v -0.87052 l 0.43526,-0.435268 v -0.435267 l 0.43526,-0.435253 v -0.435267 z m -3.04682,-3.482087 -0.43527,0.435253 h -0.43525 l -0.87052,0.870521 h -1.74105 l -0.43526,0.435267 h -0.87052 l -0.43526,-0.435267 0.43526,-0.435254 h 0.43526 l 0.43526,-0.435267 h 0.87052 l 0.43526,-0.435253 h 0.43526 l 0.43527,-0.435267 h 1.30577 z m 8.7052,23.504081 1.74106,-3.482095 0.87052,-3.482081 1.30577,-2.176308 v -0.87052 l 0.87052,-1.305773 v -0.870521 l 0.87054,-1.305787 v -0.87052 l 0.43525,-0.435268 v -0.87052 l 1.30579,-2.176293 0.87052,1.74104 h 0.43525 l 0.43527,-0.87052 -1.74104,-0.87052 v -0.870535 l 1.74104,-3.482086 0.87052,1.741046 v 3.917348 l 0.43525,0.87052 h 0.87054 l 0.87052,-1.305773 v -0.87052 l -0.43527,-0.435268 V 41.828948 L 237.0179,41.39369 v -1.741041 l -0.87054,-1.305787 1.74106,-2.176308 0.87052,0.435267 -0.43527,-0.435267 0.87052,-0.87052 2.61156,-0.435253 0.43527,-0.435267 h 46.13763 l 0.43526,0.435267 1.74105,0.435253 2.1763,2.176307 0.43526,0.870521 v 1.305787 l 0.43526,0.435253 v 29.597737 l -0.43526,0.435253 -0.43526,1.741041 -2.61157,2.611575 -0.87052,0.435253 h -53.97233 l -0.43525,-0.435253 h -1.74104 l -0.87052,-0.870521 -0.87052,-1.741054 -3.91735,-4.352602 -1.74106,-3.482081 z m -6.09364,-31.774044 0.43526,-0.435254 h 4.35261 l 0.43525,0.435254 -0.43525,0.435267 h -4.35261 z"
     fill="#000000"
     fill-rule="evenodd"
     id="path1"
     style="stroke-width:0.43526" />
</svg>
