<svg xmlns="http://www.w3.org/2000/svg" width="2172" height="724" viewBox="0 0 2172 724">
<rect width="100%" height="100%" fill="white"/>
<path d="M 243,303 L 243,314 L 246,314 L 245,313 L 245,312 L 246,311 L 246,306 L 245,307 L 244,307 L 243,306 L 243,305 L 244,304 L 245,304 L 246,303 Z" fill="black" fill-rule="evenodd"/>
<path d="M 167,478 L 198,480 L 247,461 L 281,460 L 263,511 L 274,571 L 315,618 L 363,638 L 414,636 L 471,603 L 502,549 L 501,503 L 535,501 L 541,513 L 882,510 L 879,487 L 971,496 L 995,486 L 1219,495 L 1222,508 L 1225,494 L 1265,497 L 1277,574 L 1317,618 L 1360,637 L 1411,637 L 1454,618 L 1489,582 L 1506,538 L 1516,546 L 1537,540 L 1559,590 L 1595,622 L 1636,638 L 1678,638 L 1726,618 L 1766,573 L 1778,528 L 1772,476 L 1791,481 L 1805,461 L 1807,471 L 1831,477 L 1836,526 L 1838,480 L 1861,480 L 1885,464 L 1890,444 L 1918,447 L 1956,476 L 1971,439 L 1996,441 L 1998,415 L 1983,412 L 1988,425 L 1973,427 L 1962,385 L 1965,371 L 1992,369 L 1997,267 L 1981,251 L 1964,260 L 1961,151 L 959,150 L 956,106 L 933,102 L 922,110 L 919,372 L 907,369 L 901,96 L 862,74 L 753,78 L 689,90 L 659,108 L 636,172 L 665,138 L 634,214 L 608,214 L 608,203 L 598,201 L 596,213 L 417,223 L 273,249 L 252,277 L 225,289 L 235,423 L 195,424 L 195,416 L 179,415 L 194,406 L 177,402 L 167,427 Z M 1646,583 L 1647,582 L 1668,582 L 1669,583 L 1668,584 L 1647,584 Z M 1374,583 L 1375,582 L 1396,582 L 1397,583 L 1396,584 L 1375,584 Z M 373,583 L 374,582 L 395,582 L 396,583 L 395,584 L 374,584 Z M 1337,562 L 1338,561 L 1345,568 L 1344,569 L 1343,569 L 1337,563 Z M 433,560 L 434,561 L 434,562 L 428,568 L 427,568 L 426,567 Z M 334,561 L 335,560 L 342,567 L 341,568 L 340,568 L 334,562 Z M 1388,551 L 1389,551 L 1390,552 L 1390,553 L 1391,554 L 1391,556 L 1390,557 L 1390,558 L 1389,559 L 1388,559 L 1387,558 L 1388,557 L 1388,556 L 1387,555 L 1387,554 L 1388,553 L 1387,552 Z M 381,551 L 382,551 L 383,552 L 383,555 L 382,556 L 382,557 L 383,558 L 382,559 L 381,559 L 380,558 L 380,557 L 379,556 L 379,553 Z M 1657,550 L 1659,550 L 1660,551 L 1659,552 L 1658,552 L 1657,553 L 1658,554 L 1658,557 L 1659,558 L 1659,559 L 1658,560 L 1657,560 L 1656,559 L 1655,559 L 1653,557 L 1653,553 L 1655,551 L 1656,551 Z M 1387,550 L 1388,551 L 1387,552 L 1386,552 L 1386,554 L 1387,555 L 1387,556 L 1384,559 L 1383,559 L 1381,557 L 1381,553 L 1384,550 Z M 413,540 L 414,541 L 414,542 L 415,543 L 415,544 L 414,545 L 414,546 L 413,547 L 412,546 L 412,545 L 411,545 L 410,544 L 410,542 L 411,541 L 412,542 L 412,541 Z M 1356,540 L 1357,539 L 1363,539 L 1364,540 L 1364,541 L 1365,542 L 1365,546 L 1362,549 L 1359,549 L 1358,548 L 1357,548 L 1356,547 L 1356,546 L 1355,545 L 1355,542 L 1356,541 Z M 407,539 L 408,539 L 409,540 L 408,541 L 410,543 L 410,544 L 408,546 L 409,547 L 408,548 L 407,548 L 404,545 L 404,542 Z M 1682,538 L 1684,538 L 1685,539 L 1686,539 L 1687,540 L 1686,541 L 1683,541 L 1684,542 L 1685,541 L 1686,542 L 1686,541 L 1687,540 L 1688,541 L 1688,545 L 1687,546 L 1686,545 L 1686,544 L 1686,545 L 1685,546 L 1684,545 L 1683,546 L 1685,546 L 1686,547 L 1685,548 L 1681,548 L 1678,545 L 1678,542 Z M 1629,539 L 1630,539 L 1631,538 L 1633,538 L 1634,539 L 1635,539 L 1637,541 L 1637,546 L 1635,548 L 1629,548 L 1627,546 L 1627,545 L 1626,544 L 1626,543 L 1627,542 L 1627,541 Z M 1411,538 L 1413,538 L 1415,540 L 1414,541 L 1411,541 L 1412,542 L 1413,542 L 1415,540 L 1417,542 L 1417,545 L 1415,547 L 1414,546 L 1413,546 L 1412,545 L 1411,545 L 1410,546 L 1414,546 L 1415,547 L 1414,548 L 1409,548 L 1407,546 L 1407,545 L 1406,544 L 1406,543 L 1407,542 L 1407,541 L 1409,539 L 1410,539 Z M 353,542 L 356,539 L 357,539 L 358,538 L 359,538 L 360,539 L 361,539 L 363,541 L 363,542 L 364,543 L 364,544 L 363,545 L 363,546 L 362,547 L 361,546 L 360,546 L 359,545 L 359,542 L 360,541 L 357,541 L 358,542 L 358,545 L 357,546 L 358,547 L 357,548 L 356,548 L 353,545 Z M 1451,521 L 1452,522 L 1452,529 L 1451,530 L 1451,533 L 1450,534 L 1449,533 L 1449,529 L 1450,528 L 1450,522 Z M 1592,517 L 1593,518 L 1593,528 L 1592,529 L 1591,528 L 1591,518 Z M 1624,513 L 1625,514 L 1625,515 L 1626,516 L 1626,518 L 1625,519 L 1625,520 L 1623,522 L 1619,522 L 1617,520 L 1618,519 L 1621,519 L 1621,516 L 1622,515 L 1623,515 L 1622,514 L 1623,513 Z M 1352,513 L 1353,514 L 1353,515 L 1354,516 L 1354,518 L 1353,519 L 1353,520 L 1351,522 L 1347,522 L 1346,521 L 1347,520 L 1349,520 L 1350,519 L 1349,518 L 1349,516 L 1350,515 L 1351,515 L 1351,514 Z M 1692,512 L 1695,512 L 1696,513 L 1697,513 L 1698,514 L 1698,515 L 1699,516 L 1699,519 L 1696,522 L 1692,522 L 1689,519 L 1689,515 Z M 1421,512 L 1424,512 L 1427,515 L 1427,519 L 1424,522 L 1421,522 L 1420,521 L 1419,521 L 1418,520 L 1418,519 L 1417,518 L 1417,517 L 1418,516 L 1418,515 Z M 419,512 L 422,512 L 423,513 L 422,514 L 423,513 L 425,515 L 425,519 L 422,522 L 418,522 L 416,520 L 416,518 L 415,517 L 416,516 L 416,515 Z M 345,512 L 349,512 L 352,515 L 352,519 L 349,522 L 345,522 L 342,519 L 342,516 L 343,515 L 343,514 Z M 450,511 L 451,512 L 451,524 L 450,525 L 449,524 L 449,512 Z M 1320,510 L 1321,511 L 1321,525 L 1320,526 L 1319,525 L 1319,511 Z M 1451,506 L 1452,507 L 1452,514 L 1453,515 L 1453,517 L 1452,518 L 1450,516 L 1450,507 Z M 1652,498 L 1663,498 L 1664,499 L 1665,499 L 1666,500 L 1667,500 L 1668,501 L 1669,501 L 1675,507 L 1675,508 L 1674,509 L 1673,508 L 1674,509 L 1675,508 L 1676,509 L 1676,510 L 1677,511 L 1677,514 L 1678,515 L 1678,521 L 1677,522 L 1677,524 L 1676,525 L 1676,527 L 1674,529 L 1674,530 L 1671,533 L 1670,533 L 1668,535 L 1667,535 L 1666,536 L 1665,536 L 1664,537 L 1662,537 L 1661,538 L 1655,538 L 1654,537 L 1651,537 L 1650,536 L 1648,536 L 1646,534 L 1645,534 L 1641,530 L 1641,529 L 1640,528 L 1640,527 L 1639,526 L 1639,525 L 1638,524 L 1638,521 L 1637,520 L 1637,517 L 1638,516 L 1638,512 L 1639,511 L 1639,509 L 1640,508 L 1640,507 L 1646,501 L 1647,501 L 1648,500 L 1649,500 L 1650,501 L 1649,500 L 1650,499 L 1651,499 Z M 1378,499 L 1380,499 L 1381,498 L 1391,498 L 1392,499 L 1394,499 L 1396,501 L 1397,501 L 1402,506 L 1402,507 L 1404,509 L 1404,510 L 1405,511 L 1405,514 L 1406,515 L 1406,520 L 1405,521 L 1405,525 L 1404,526 L 1404,527 L 1402,529 L 1402,530 L 1399,533 L 1398,533 L 1395,536 L 1394,536 L 1393,537 L 1390,537 L 1389,538 L 1383,538 L 1382,537 L 1379,537 L 1378,536 L 1377,536 L 1376,535 L 1375,535 L 1368,528 L 1368,527 L 1367,526 L 1367,524 L 1366,523 L 1366,513 L 1367,512 L 1367,510 L 1368,509 L 1368,508 L 1370,506 L 1370,505 L 1373,502 L 1374,502 L 1376,500 L 1377,500 Z M 379,498 L 389,498 L 390,499 L 392,499 L 393,500 L 394,500 L 395,501 L 394,502 L 393,502 L 394,502 L 395,503 L 396,502 L 401,507 L 401,508 L 402,509 L 402,510 L 403,511 L 403,513 L 404,514 L 404,522 L 403,523 L 403,525 L 402,526 L 402,527 L 401,528 L 401,529 L 396,534 L 395,534 L 393,536 L 391,536 L 390,537 L 388,537 L 387,538 L 381,538 L 380,537 L 377,537 L 376,536 L 375,536 L 373,534 L 372,534 L 367,529 L 367,528 L 365,526 L 365,524 L 364,523 L 364,513 L 365,512 L 365,511 L 366,510 L 366,508 L 368,506 L 368,505 L 371,502 L 372,502 L 374,500 L 375,500 L 376,499 L 378,499 Z M 404,490 L 406,488 L 407,489 L 408,489 L 409,490 L 409,493 L 408,494 L 411,494 L 412,493 L 411,493 L 410,492 L 410,491 L 413,488 L 414,489 L 414,490 L 415,491 L 415,492 L 414,493 L 414,494 L 412,496 L 407,496 L 404,493 Z M 362,488 L 364,490 L 364,493 L 361,496 L 356,496 L 355,495 L 356,494 L 360,494 L 359,493 L 359,490 L 360,489 L 361,489 Z M 355,488 L 356,489 L 357,489 L 358,490 L 358,492 L 355,495 L 353,493 L 353,490 Z M 1406,490 L 1408,488 L 1409,489 L 1408,488 L 1409,487 L 1410,487 L 1411,488 L 1411,489 L 1414,489 L 1415,488 L 1416,489 L 1416,494 L 1414,496 L 1409,496 L 1406,493 Z M 1682,486 L 1684,486 L 1685,487 L 1686,487 L 1687,488 L 1687,489 L 1686,490 L 1685,489 L 1686,490 L 1686,493 L 1687,494 L 1685,496 L 1680,496 L 1678,494 L 1678,489 L 1680,487 L 1681,487 Z M 1629,487 L 1630,487 L 1631,486 L 1633,486 L 1634,487 L 1633,488 L 1632,488 L 1632,489 L 1635,489 L 1636,488 L 1637,489 L 1637,494 L 1635,496 L 1629,496 L 1627,494 L 1627,493 L 1626,492 L 1626,491 L 1627,490 L 1627,489 Z M 1357,487 L 1358,487 L 1359,486 L 1361,486 L 1362,487 L 1360,489 L 1362,489 L 1361,488 L 1362,487 L 1363,487 L 1365,489 L 1365,494 L 1363,496 L 1361,496 L 1360,497 L 1359,496 L 1357,496 L 1355,494 L 1355,490 L 1356,489 L 1356,488 Z M 1381,479 L 1383,477 L 1384,477 L 1386,479 L 1386,483 L 1387,483 L 1388,482 L 1388,478 L 1389,477 L 1390,478 L 1390,479 L 1391,480 L 1391,482 L 1388,485 L 1384,485 L 1381,482 Z M 379,479 L 381,477 L 382,478 L 382,479 L 383,480 L 383,483 L 385,483 L 385,480 L 386,479 L 387,479 L 388,478 L 389,479 L 389,482 L 386,485 L 382,485 L 379,482 Z M 1656,476 L 1659,476 L 1660,477 L 1659,478 L 1658,478 L 1658,483 L 1659,483 L 1660,482 L 1659,481 L 1659,480 L 1660,479 L 1662,479 L 1663,480 L 1663,482 L 1660,485 L 1656,485 L 1653,482 L 1653,479 Z M 1831,464 L 1832,465 L 1832,476 L 1831,477 L 1830,476 L 1830,465 Z M 1947,458 L 1948,457 L 1956,457 L 1959,460 L 1959,461 L 1960,462 L 1960,464 L 1959,465 L 1959,466 L 1957,468 L 1955,468 L 1954,469 L 1953,469 L 1952,468 L 1950,468 L 1946,464 L 1946,460 L 1947,459 Z M 1004,465 L 1005,464 L 1007,464 L 1010,461 L 1010,460 L 1011,459 L 1011,458 L 1012,457 L 1016,457 L 1017,456 L 1049,456 L 1050,457 L 1061,457 L 1062,456 L 1072,456 L 1073,457 L 1114,457 L 1115,458 L 1114,459 L 1111,459 L 1110,460 L 1109,460 L 1108,461 L 1107,461 L 1106,462 L 1100,462 L 1098,464 L 1098,465 L 1097,466 L 1005,466 Z M 1225,455 L 1227,457 L 1227,459 L 1226,460 L 1226,469 L 1225,470 L 1224,469 L 1224,456 Z M 1648,453 L 1649,452 L 1667,452 L 1668,453 L 1667,454 L 1649,454 Z M 1376,453 L 1377,452 L 1395,452 L 1396,453 L 1395,454 L 1377,454 Z M 375,453 L 376,452 L 393,452 L 394,453 L 393,454 L 376,454 Z M 1884,424 L 1885,423 L 1897,423 L 1898,424 L 1898,425 L 1899,426 L 1899,427 L 1900,428 L 1900,430 L 1901,431 L 1900,432 L 1901,431 L 1902,432 L 1902,433 L 1901,434 L 1890,434 L 1889,433 L 1889,429 L 1888,428 L 1886,428 L 1885,427 L 1885,425 Z M 1837,418 L 1838,419 L 1838,470 L 1837,471 L 1836,470 L 1836,419 Z M 953,397 L 953,401 L 954,402 L 954,405 L 953,406 L 942,406 L 941,405 L 942,404 L 943,404 L 944,403 L 945,403 L 946,404 L 952,404 L 952,403 L 951,402 L 951,400 L 951,401 L 950,402 L 949,401 L 949,400 L 949,401 L 948,402 L 949,403 L 948,404 L 946,404 L 945,403 L 946,402 L 946,399 L 947,398 L 950,398 L 952,396 Z M 1213,395 L 1218,395 L 1219,396 L 1219,402 L 1220,403 L 1220,405 L 1219,406 L 1213,406 L 1212,407 L 1211,406 L 1211,398 L 1212,397 L 1213,398 L 1213,400 L 1213,397 L 1212,396 Z M 1779,386 L 1780,387 L 1781,387 L 1783,389 L 1783,390 L 1784,391 L 1783,392 L 1779,392 L 1783,392 L 1784,393 L 1783,394 L 1778,394 L 1777,393 L 1777,388 Z M 1603,386 L 1603,392 L 1602,393 L 1588,393 L 1587,392 L 1587,387 L 1588,386 L 1601,386 L 1602,385 Z M 912,385 L 915,385 L 916,386 L 916,388 L 917,389 L 917,390 L 919,392 L 922,392 L 923,393 L 923,400 L 924,400 L 926,402 L 926,404 L 927,405 L 926,406 L 908,406 L 907,405 L 907,392 L 908,391 L 909,391 L 910,390 L 910,389 L 911,388 L 911,386 Z M 1438,385 L 1439,384 L 1440,384 L 1442,386 L 1453,386 L 1454,387 L 1454,391 L 1453,392 L 1440,392 L 1439,393 L 1438,392 Z M 1273,385 L 1268,390 L 1268,391 L 1267,392 L 1256,392 L 1255,391 L 1255,387 L 1256,386 L 1268,386 L 1268,385 L 1269,384 L 1272,384 Z M 958,386 L 959,385 L 961,385 L 962,384 L 968,384 L 969,385 L 971,385 L 972,386 L 972,387 L 973,388 L 973,390 L 974,391 L 974,394 L 973,395 L 972,394 L 972,392 L 971,393 L 969,393 L 971,393 L 972,394 L 971,395 L 961,395 L 959,393 L 959,392 L 958,391 Z M 1944,384 L 1945,383 L 1957,383 L 1958,384 L 1958,394 L 1957,395 L 1946,395 L 1945,394 L 1946,393 L 1950,393 L 1946,393 L 1945,394 L 1944,394 L 1943,393 L 1943,391 L 1944,390 Z M 1608,388 L 1609,387 L 1609,384 L 1610,383 L 1618,383 L 1619,384 L 1620,383 L 1630,383 L 1631,384 L 1661,384 L 1662,383 L 1716,383 L 1717,384 L 1744,384 L 1745,383 L 1767,383 L 1768,384 L 1770,384 L 1771,383 L 1772,384 L 1772,391 L 1771,392 L 1771,401 L 1772,402 L 1772,405 L 1771,406 L 1708,406 L 1708,407 L 1707,408 L 1705,406 L 1703,406 L 1702,405 L 1700,405 L 1699,404 L 1695,404 L 1695,405 L 1693,407 L 1691,407 L 1688,405 L 1689,404 L 1689,402 L 1686,400 L 1683,400 L 1682,399 L 1677,399 L 1676,398 L 1674,398 L 1672,400 L 1672,402 L 1671,403 L 1670,402 L 1666,402 L 1665,401 L 1665,398 L 1664,397 L 1651,397 L 1649,400 L 1648,399 L 1644,399 L 1643,400 L 1641,398 L 1637,398 L 1636,399 L 1632,399 L 1631,400 L 1628,400 L 1627,401 L 1627,405 L 1626,406 L 1624,406 L 1623,407 L 1620,404 L 1620,403 L 1618,403 L 1617,404 L 1615,404 L 1614,403 L 1609,404 L 1608,403 L 1609,402 L 1609,391 L 1608,390 Z M 1270,405 L 1270,403 L 1274,398 L 1274,394 L 1275,393 L 1275,389 L 1276,388 L 1276,387 L 1279,384 L 1298,384 L 1299,383 L 1311,383 L 1312,384 L 1341,384 L 1342,383 L 1367,383 L 1368,384 L 1372,384 L 1373,383 L 1401,383 L 1402,384 L 1421,384 L 1422,383 L 1433,383 L 1434,384 L 1434,388 L 1435,389 L 1432,392 L 1432,400 L 1435,403 L 1433,406 L 1431,406 L 1430,405 L 1428,405 L 1427,404 L 1424,404 L 1422,407 L 1418,407 L 1417,406 L 1417,402 L 1416,401 L 1415,401 L 1414,400 L 1410,400 L 1409,399 L 1405,399 L 1404,398 L 1402,398 L 1402,399 L 1400,401 L 1400,402 L 1399,403 L 1398,403 L 1397,402 L 1395,402 L 1394,401 L 1394,400 L 1393,399 L 1393,397 L 1379,397 L 1377,400 L 1376,399 L 1373,399 L 1373,401 L 1372,402 L 1371,401 L 1370,398 L 1365,398 L 1364,399 L 1360,399 L 1359,400 L 1357,400 L 1356,401 L 1355,401 L 1355,405 L 1354,406 L 1352,406 L 1351,407 L 1348,403 L 1347,403 L 1346,404 L 1344,404 L 1343,405 L 1341,405 L 1338,407 L 1336,407 L 1335,406 L 1271,406 Z M 249,374 L 250,375 L 250,376 L 251,377 L 251,378 L 250,379 L 250,380 L 249,381 L 249,382 L 248,383 L 246,383 L 245,382 L 244,382 L 243,381 L 243,380 L 243,381 L 242,382 L 241,381 L 241,377 L 242,376 L 243,376 L 244,375 L 247,375 L 248,374 Z M 1943,371 L 1945,371 L 1946,372 L 1946,375 L 1947,376 L 1947,378 L 1948,378 L 1949,379 L 1949,380 L 1950,381 L 1949,382 L 1946,382 L 1945,381 L 1945,379 L 1943,379 L 1942,378 L 1942,376 L 1941,375 L 1942,374 L 1942,372 Z M 1937,371 L 1938,371 L 1939,372 L 1938,373 L 1938,383 L 1939,383 L 1940,384 L 1938,386 L 1938,395 L 1937,396 L 1937,398 L 1938,399 L 1938,401 L 1939,401 L 1941,403 L 1941,405 L 1940,406 L 1935,406 L 1934,405 L 1934,400 L 1935,399 L 1935,379 L 1934,378 L 1934,377 L 1933,377 L 1932,376 L 1933,375 L 1932,374 L 1932,373 L 1933,372 L 1936,372 Z M 1781,385 L 1782,384 L 1791,384 L 1792,385 L 1792,386 L 1793,387 L 1798,387 L 1798,385 L 1799,384 L 1801,384 L 1803,382 L 1803,372 L 1804,371 L 1805,372 L 1808,372 L 1809,371 L 1830,371 L 1831,372 L 1831,394 L 1830,395 L 1799,395 L 1798,394 L 1798,392 L 1796,392 L 1795,393 L 1791,393 L 1784,386 L 1782,386 Z M 1745,372 L 1746,371 L 1765,371 L 1766,372 L 1766,376 L 1764,378 L 1762,378 L 1762,379 L 1760,381 L 1754,381 L 1753,380 L 1749,380 L 1748,379 L 1747,379 L 1746,378 L 1746,374 L 1745,373 Z M 1455,405 L 1456,404 L 1459,404 L 1458,404 L 1457,403 L 1458,402 L 1460,402 L 1460,401 L 1461,400 L 1461,397 L 1460,396 L 1460,390 L 1459,389 L 1459,387 L 1460,386 L 1460,385 L 1461,384 L 1466,384 L 1467,383 L 1468,383 L 1468,378 L 1465,373 L 1466,372 L 1471,372 L 1472,373 L 1471,374 L 1471,375 L 1472,376 L 1470,379 L 1470,382 L 1471,383 L 1478,383 L 1479,384 L 1492,384 L 1493,383 L 1507,383 L 1508,382 L 1509,383 L 1510,383 L 1511,382 L 1511,381 L 1510,380 L 1510,372 L 1511,371 L 1512,372 L 1514,372 L 1515,371 L 1533,371 L 1534,372 L 1534,383 L 1535,384 L 1551,384 L 1552,383 L 1553,383 L 1553,382 L 1550,379 L 1550,378 L 1549,378 L 1548,377 L 1548,372 L 1549,371 L 1550,372 L 1567,372 L 1568,371 L 1569,372 L 1569,377 L 1568,378 L 1566,378 L 1566,379 L 1562,382 L 1561,382 L 1560,381 L 1556,381 L 1555,382 L 1556,383 L 1560,383 L 1561,382 L 1562,382 L 1563,383 L 1574,383 L 1575,384 L 1582,384 L 1583,383 L 1584,384 L 1584,390 L 1581,392 L 1581,402 L 1582,402 L 1584,404 L 1584,405 L 1583,406 L 1539,406 L 1536,403 L 1536,402 L 1531,396 L 1526,396 L 1525,395 L 1518,395 L 1516,397 L 1515,396 L 1514,396 L 1513,397 L 1511,397 L 1510,398 L 1510,400 L 1505,406 L 1456,406 Z M 1351,372 L 1352,371 L 1353,372 L 1360,372 L 1361,371 L 1371,371 L 1372,372 L 1372,377 L 1371,378 L 1370,378 L 1369,379 L 1368,379 L 1366,381 L 1357,381 L 1356,380 L 1355,380 L 1353,378 L 1352,378 L 1351,377 L 1351,376 L 1352,375 L 1351,374 Z M 1227,371 L 1249,371 L 1250,372 L 1250,383 L 1253,386 L 1253,393 L 1250,396 L 1250,397 L 1248,399 L 1247,399 L 1246,398 L 1245,398 L 1244,397 L 1245,396 L 1247,396 L 1245,396 L 1244,397 L 1242,395 L 1225,395 L 1224,394 L 1224,378 L 1225,377 L 1225,373 Z M 1153,372 L 1154,371 L 1155,371 L 1156,372 L 1157,372 L 1158,371 L 1185,371 L 1187,373 L 1187,375 L 1186,376 L 1185,375 L 1175,375 L 1175,376 L 1174,377 L 1174,378 L 1173,379 L 1171,379 L 1169,381 L 1168,381 L 1167,380 L 1161,380 L 1160,381 L 1159,380 L 1157,380 L 1156,379 L 1156,378 L 1155,377 L 1154,377 L 1153,376 Z M 980,405 L 981,404 L 981,403 L 980,402 L 980,401 L 981,400 L 981,377 L 980,376 L 980,373 L 979,373 L 978,372 L 979,371 L 1027,371 L 1028,372 L 1028,375 L 1027,376 L 1023,376 L 1022,377 L 1017,377 L 1016,378 L 1014,378 L 1013,379 L 1011,379 L 1010,380 L 1008,380 L 1006,382 L 1006,383 L 1005,384 L 1005,387 L 1004,388 L 1004,396 L 1005,397 L 1005,400 L 1004,401 L 1004,405 L 1003,406 L 981,406 Z M 973,371 L 975,371 L 976,372 L 976,378 L 975,379 L 973,379 L 972,378 L 972,372 Z M 956,371 L 958,371 L 959,372 L 959,373 L 959,372 L 960,371 L 961,372 L 961,377 L 962,378 L 962,381 L 961,382 L 957,382 L 956,381 L 956,380 L 955,379 L 955,372 Z M 1946,366 L 1947,365 L 1966,365 L 1967,366 L 1966,367 L 1947,367 Z M 1644,366 L 1645,365 L 1681,365 L 1682,366 L 1681,367 L 1645,367 Z M 1593,366 L 1594,365 L 1614,365 L 1615,366 L 1614,367 L 1594,367 Z M 1253,366 L 1254,365 L 1267,365 L 1268,366 L 1267,367 L 1254,367 Z M 1030,366 L 1031,365 L 1043,365 L 1044,366 L 1043,367 L 1031,367 Z M 399,342 L 400,341 L 414,341 L 415,342 L 414,343 L 400,343 Z M 1771,328 L 1772,329 L 1772,349 L 1771,350 L 1770,349 L 1770,329 Z M 242,328 L 243,329 L 243,344 L 244,345 L 243,346 L 242,346 L 241,345 L 241,340 L 240,339 L 240,336 L 241,335 L 241,329 Z M 247,326 L 248,327 L 248,344 L 247,345 L 246,344 L 246,338 L 245,337 L 245,331 L 246,330 L 246,327 Z M 261,305 L 262,306 L 262,327 L 263,328 L 263,341 L 264,342 L 264,347 L 263,348 L 262,347 L 262,346 L 261,345 L 261,344 L 260,343 L 260,340 L 259,339 L 259,335 L 258,334 L 258,310 L 259,309 L 259,308 L 258,307 L 259,306 L 260,306 Z M 242,301 L 247,301 L 248,302 L 248,315 L 247,316 L 242,316 L 241,315 L 241,302 Z M 1767,242 L 1768,241 L 1940,241 L 1941,242 L 1941,260 L 1940,261 L 1768,261 L 1767,260 Z M 1570,242 L 1571,241 L 1743,241 L 1744,242 L 1744,260 L 1743,261 L 1571,261 L 1570,260 Z M 1373,242 L 1374,241 L 1546,241 L 1547,242 L 1547,260 L 1546,261 L 1374,261 L 1373,260 Z M 1175,242 L 1176,241 L 1349,241 L 1350,242 L 1350,260 L 1349,261 L 1176,261 L 1175,260 L 1176,259 L 1176,258 L 1175,257 L 1176,256 L 1176,246 L 1175,245 L 1176,244 L 1176,243 Z M 977,242 L 978,241 L 1151,241 L 1152,242 L 1152,258 L 1151,259 L 1148,259 L 1151,259 L 1152,260 L 1151,261 L 978,261 L 977,260 Z M 1767,219 L 1768,218 L 1940,218 L 1941,219 L 1941,220 L 1940,221 L 1768,221 L 1767,220 Z M 1570,219 L 1571,218 L 1743,218 L 1744,219 L 1744,220 L 1743,221 L 1571,221 L 1570,220 Z M 1373,219 L 1374,218 L 1546,218 L 1547,219 L 1547,220 L 1546,221 L 1374,221 L 1373,220 Z M 1175,219 L 1176,218 L 1349,218 L 1350,219 L 1350,220 L 1349,221 L 1176,221 L 1175,220 Z M 977,219 L 978,218 L 1151,218 L 1152,219 L 1152,220 L 1151,221 L 978,221 L 977,220 Z M 1767,196 L 1768,195 L 1940,195 L 1941,196 L 1941,197 L 1940,198 L 1768,198 L 1767,197 Z M 1570,196 L 1571,195 L 1743,195 L 1744,196 L 1744,197 L 1743,198 L 1741,198 L 1740,197 L 1738,197 L 1737,198 L 1571,198 L 1570,197 Z M 1373,196 L 1374,195 L 1375,196 L 1376,195 L 1377,196 L 1379,196 L 1380,195 L 1546,195 L 1547,196 L 1547,197 L 1546,198 L 1374,198 L 1373,197 Z M 1175,196 L 1176,195 L 1177,196 L 1178,196 L 1179,195 L 1349,195 L 1350,196 L 1350,197 L 1349,198 L 1176,198 L 1175,197 Z M 977,196 L 978,195 L 1149,195 L 1150,196 L 1151,195 L 1152,196 L 1152,197 L 1151,198 L 1149,198 L 1148,197 L 1147,198 L 978,198 L 977,197 Z M 1767,175 L 1767,173 L 1768,172 L 1940,172 L 1941,173 L 1941,174 L 1940,175 L 1905,175 L 1904,176 L 1899,176 L 1898,175 L 1886,175 L 1885,176 L 1881,176 L 1880,175 L 1866,175 L 1865,176 L 1855,176 L 1854,175 L 1853,175 L 1852,176 L 1828,176 L 1827,175 L 1776,175 L 1775,174 L 1774,174 L 1772,176 L 1770,176 L 1769,175 L 1768,176 Z M 1570,173 L 1571,172 L 1743,172 L 1744,173 L 1744,175 L 1743,176 L 1740,174 L 1737,174 L 1736,175 L 1716,175 L 1715,176 L 1714,176 L 1713,175 L 1712,175 L 1711,176 L 1695,176 L 1694,175 L 1685,175 L 1684,176 L 1681,176 L 1680,175 L 1679,176 L 1677,176 L 1676,175 L 1649,175 L 1648,176 L 1604,176 L 1603,175 L 1595,175 L 1594,176 L 1577,176 L 1575,174 L 1572,174 L 1572,175 L 1571,176 L 1570,175 Z M 1373,173 L 1374,172 L 1546,172 L 1547,173 L 1547,175 L 1546,176 L 1545,175 L 1545,174 L 1542,174 L 1541,175 L 1515,175 L 1514,176 L 1506,176 L 1505,175 L 1480,175 L 1479,176 L 1465,176 L 1464,175 L 1437,175 L 1436,176 L 1433,176 L 1432,175 L 1398,175 L 1397,176 L 1389,176 L 1388,175 L 1381,175 L 1380,174 L 1375,174 L 1375,175 L 1374,176 L 1373,175 Z M 1175,173 L 1176,172 L 1349,172 L 1350,173 L 1350,175 L 1349,176 L 1348,175 L 1347,176 L 1346,175 L 1343,174 L 1342,175 L 1317,175 L 1316,176 L 1294,176 L 1293,175 L 1284,175 L 1283,176 L 1273,176 L 1272,175 L 1255,175 L 1254,176 L 1230,176 L 1229,175 L 1224,175 L 1223,176 L 1214,176 L 1213,175 L 1212,175 L 1211,176 L 1189,176 L 1188,175 L 1181,175 L 1180,174 L 1176,174 Z M 977,175 L 977,173 L 978,172 L 1151,172 L 1152,173 L 1152,174 L 1151,175 L 1150,174 L 1147,174 L 1146,175 L 1123,175 L 1122,176 L 1073,176 L 1072,175 L 1068,175 L 1067,176 L 1020,176 L 1019,175 L 1001,175 L 1000,176 L 987,176 L 986,175 L 979,175 L 978,176 Z M 667,200 L 670,194 L 671,196 L 670,192 L 674,183 L 675,185 L 676,183 L 675,184 L 674,183 L 677,173 L 678,172 L 679,174 L 680,172 L 679,168 L 690,140 L 691,139 L 692,140 L 691,138 L 695,134 L 697,135 L 696,134 L 698,132 L 719,131 L 720,130 L 738,130 L 739,129 L 824,129 L 828,131 L 831,135 L 832,138 L 832,215 L 831,218 L 826,223 L 823,222 L 714,222 L 823,222 L 824,223 L 823,224 L 711,224 L 688,179 L 683,182 L 683,185 L 697,214 L 691,219 L 682,224 L 674,224 L 670,221 L 670,216 L 667,206 Z M 667,119 L 668,120 L 670,120 L 671,121 L 670,122 L 670,124 L 669,125 L 669,127 L 668,128 L 668,130 L 667,131 L 666,130 L 666,129 L 664,129 L 663,128 L 664,127 L 663,127 L 662,126 L 664,124 L 664,123 L 665,122 L 665,121 Z" fill="black" fill-rule="evenodd"/>
</svg>