<?xml version="1.0" encoding="UTF-8" standalone="no"?>
<svg
   width="570"
   height="250"
   viewBox="0 0 570 250"
   version="1.1"
   id="svg2"
   sodipodi:docname="half_track_black.svg"
   inkscape:version="1.4.2 (f4327f4, 2025-05-13)"
   xmlns:inkscape="http://www.inkscape.org/namespaces/inkscape"
   xmlns:sodipodi="http://sodipodi.sourceforge.net/DTD/sodipodi-0.dtd"
   xmlns="http://www.w3.org/2000/svg"
   xmlns:svg="http://www.w3.org/2000/svg">
  <defs
     id="defs2" />
  <sodipodi:namedview
     id="namedview2"
     pagecolor="#ffffff"
     bordercolor="#000000"
     borderopacity="0.25"
     inkscape:showpageshadow="2"
     inkscape:pageopacity="0.0"
     inkscape:pagecheckerboard="0"
     inkscape:deskcolor="#d1d1d1"
     inkscape:zoom="0.76505568"
     inkscape:cx="581.65701"
     inkscape:cy="554.86158"
     inkscape:window-width="2560"
     inkscape:window-height="1377"
     inkscape:window-x="-8"
     inkscape:window-y="-8"
     inkscape:window-maximized="1"
     inkscape:current-layer="svg2" />
  <path
     d="m 532.07602,160.60806 -0.40384,0.40384 h -0.40384 l -0.40384,0.40384 h -0.40384 v 0.40384 l -0.40384,0.40384 0.40384,0.40384 v 0.40384 l 0.40384,0.40384 v 0.40384 l 0.40384,0.40384 h 0.80768 l 0.40384,-0.40384 h 2.0192 l 1.61536,1.61536 v 3.63455 l -0.40384,0.40384 v 0.40384 l -0.40384,0.40384 -0.40384,-0.40384 0.40384,0.40384 -0.80768,0.80768 h -2.0192 l -0.40384,-0.40384 h -0.80768 l -1.61535,1.61536 v 0.40384 l 1.21151,1.21152 h 0.40384 l 0.40384,0.40383 h 4.0384 l 0.40384,-0.40383 h 0.40384 l 0.40384,-0.40384 h 0.40383 l 1.61536,-1.61536 v -0.40384 l 0.40384,-0.40384 v -0.40384 l 0.40384,-0.40384 v -0.80768 l 0.40384,-0.40384 v -2.82687 l -0.40384,-0.40384 v -1.21152 l -0.40384,-0.40384 v -0.40384 l -0.80768,-0.80768 v -0.40384 l -1.21152,-1.21152 h -0.40383 l -0.40384,-0.40384 h -0.80768 l -0.40384,-0.40384 z"
     fill="#000000"
     fill-rule="evenodd"
     id="path1"
     style="stroke-width:0.403839" />
  <path
     d="M 540.15281,80.244017 529.24915,79.436338 524.80691,70.148031 381.04008,70.55187 376.194,59.244366 h -34.32635 l -6.86527,-14.538219 16.96126,-3.230716 4.03839,2.826876 7.26911,-8.480628 5.24991,9.692147 V 22.898818 l -2.82687,6.057591 -8.48063,1.211518 -38.36475,-1.211518 -1.61535,-2.826876 -4.0384,5.653752 -77.13333,1.211518 v 3.230716 l 79.55637,2.019197 1.21152,6.057591 9.2883,0.40384 -4.84607,14.538219 -14.94206,0.40384 -0.80768,12.922861 -25.03804,0.40384 -4.44224,-4.846073 h -18.17277 l 0.80768,-5.653752 -5.65375,-2.019197 -55.32601,0.807678 -16.96125,36.345546 -3.63456,-0.403839 2.42304,-15.345896 -3.63455,-4.442233 -3.23072,20.999647 -104.998249,9.692152 -4.442234,-7.67295 -11.307504,29.88412 -0.40384,9.2883 3.230716,0.80768 -6.461431,2.0192 2.019197,-14.13438 -6.461431,-6.86527 -4.846073,1.61536 -0.403839,16.15357 6.057591,5.24992 -13.326701,12.92286 9.288307,3.63455 -11.711344,0.40384 -7.269109,-17.76893 h -4.442234 v 27.86492 l 4.038394,2.82687 12.115183,-2.82687 4.442234,9.28831 2.826876,-4.0384 -3.230716,-4.84607 23.018848,-12.51902 18.576614,-2.0192 16.153577,5.65375 10.903668,10.09599 v 3.63455 l -13.326705,-12.92286 -14.942059,-4.44223 -16.961256,2.01919 -15.749737,9.69215 -8.076789,17.36509 0.807679,20.19198 12.115183,17.36509 16.557416,8.07679 20.999651,-1.61536 17.768937,-13.73054 6.86527,-18.17277 -5.65376,-24.23037 8.07679,21.80733 h 48.05689 l 7.26911,-5.24991 -27.86492,-2.42304 68.24887,0.40384 0.40384,-13.73054 14.94206,-23.82653 -13.32671,25.03805 8.48063,-0.40384 -0.80768,14.94206 6.05759,12.11518 11.30751,8.07679 52.49912,16.55742 129.63246,2.42303 68.24886,-6.46143 14.94206,-8.07679 8.48063,-12.92286 -1.21152,-21.40349 -10.09598,-12.51902 11.71134,12.11518 3.23072,-1.61536 -0.40384,-8.07678 4.84607,-1.21152 -10.09599,-20.99965 12.51903,23.42268 9.2883,-4.84607 v -4.44223 l -6.05759,-1.61536 v -20.59581 l 15.3459,-31.90332 z m -128.0171,134.478533 0.40384,-0.40384 v -0.40384 l 0.40384,-0.40384 v -0.40384 l 0.80768,-0.80768 h 5.24991 l 0.80768,0.80768 v 0.40384 l 0.40384,0.40384 v 0.40384 l 0.40384,0.40384 v 0.80768 l -0.40384,0.40384 h -0.40384 l -0.40384,0.40384 h -6.05759 l -0.40384,-0.40384 h -0.40384 l -0.40384,-0.40384 z m -54.51832,0.40384 0.40384,-0.40384 v -0.80768 l 0.40384,-0.40384 v -0.40384 l 0.80768,-0.80768 h 5.24991 l 0.40384,0.40384 v 0.40384 l 0.80768,0.80768 v 0.80768 l 0.40384,0.40384 v 0.40384 l -0.80768,0.80768 h -6.46143 l -0.40384,-0.40384 h -0.40384 l -0.40384,-0.40384 z m -54.51832,0 0.40384,-0.40384 v -0.40384 l 0.40383,-0.40384 v -0.40384 l 0.40384,-0.40384 v -0.40384 l 0.40384,-0.40384 h 5.24992 l 1.21151,1.21152 v 0.80768 l 0.40384,0.40384 v 0.40384 l 0.40384,0.40384 -0.40384,0.40384 h -0.80768 l -0.40383,0.40384 h -6.0576 l -0.40384,-0.40384 h -0.40383 l -0.40384,-0.40384 z m 172.43943,-4.0384 0.40384,-0.40384 v -0.40384 l 0.40384,-0.40384 v -0.80767 l 0.40384,-0.40384 v -0.40384 l 0.40384,-0.40384 v -0.40384 l 0.40384,-0.40384 h 0.80768 l 0.40384,0.40384 h 3.63455 l 0.80768,0.80768 v 0.40384 l 0.40384,0.40384 v 0.80767 l 0.40384,0.40384 v 0.40384 l 0.40384,0.40384 v 0.40384 l -0.80768,0.80768 h -2.82688 l -0.40383,0.40384 h -1.21152 l -0.40384,-0.40384 h -1.61536 l -0.40384,-0.40384 h -0.80768 l -0.40384,-0.40384 z m -45.63385,-3.63455 0.80768,0.80768 v 0.80768 l -1.21152,1.21151 v 0.40384 l -2.0192,2.0192 h -0.40384 l -0.80768,0.80768 h -0.40384 l -0.40384,0.40384 h -0.80768 l -0.80768,-0.80768 v -0.40384 l -0.40383,-0.40384 v -2.0192 l 0.40383,-0.40384 h 0.40384 l 3.23072,-3.23071 0.40384,0.40384 h 0.80768 l 0.40384,0.40384 z m -27.05725,0 h 0.40384 l 0.40384,-0.40384 h 1.21152 l 0.40384,-0.40384 h 0.40384 l 0.40384,0.40384 v 0.40384 l 2.82688,2.82687 h 0.40384 l 0.40383,0.40384 -0.40383,0.40384 v 0.80768 l -0.40384,0.40384 v 0.40384 l -0.40384,0.40384 v 0.40384 l -0.40384,0.40384 h -0.40384 l -0.40384,-0.40384 0.40384,-0.40384 -0.40384,0.40384 h -0.40384 l -0.40384,-0.40384 h -0.40384 l -3.63455,-3.63456 v -0.40383 l -0.40384,-0.40384 v -0.40384 z m -30.69179,14.94206 0.40384,-0.40384 h 0.80768 l 0.80768,-0.80768 h 0.40383 l 0.40384,-0.40384 h 0.40384 l 0.80768,-0.80768 h 0.40384 l 0.80768,-0.80768 h 0.40384 l 4.03839,-4.03839 v -0.40384 l 1.21152,-1.21152 v -0.40384 l 0.40384,-0.40384 v -0.40384 l 0.80768,-0.80768 v -0.80768 l 0.40384,-0.40384 v -0.40384 l 0.40384,-0.40384 v -0.40383 l 0.40384,-0.40384 v -0.80768 l 0.40384,-0.40384 v -0.40384 l 0.40384,-0.40384 h 1.61536 l 0.40384,0.40384 h 1.61535 l 0.40384,-0.40384 h 2.0192 l 0.40384,0.40384 v 0.80768 l 0.40384,0.40384 v 0.80768 l 0.40384,0.40383 v 0.40384 l 0.40384,0.40384 v 0.80768 l 0.80768,0.80768 v 0.40384 l 0.40384,0.40384 v 0.40384 l 0.80767,0.80768 v 0.40384 l 1.21152,1.21152 v 0.40384 l 2.82688,2.82687 h 0.40384 l 1.21152,1.21152 h 0.40384 l 0.80767,0.80768 h 0.40384 l 0.40384,0.40384 h 0.40384 l 0.80768,0.80768 h 0.80768 l 0.40384,0.40384 -0.40384,0.40384 h -0.40384 l -0.40384,0.40384 h -4.03839 l -0.40384,-0.40384 h -6.46143 l -0.40384,0.40384 h -4.44224 l -0.40384,-0.40384 h -6.46143 l -0.40384,0.40384 h -4.44223 l -0.40384,-0.40384 h -4.44223 z m 3.63455,-14.53822 0.40384,0.40384 v 0.80768 l -1.61536,1.61535 v 0.40384 l -0.80767,0.80768 h -0.40384 l -1.61536,1.61536 h -0.40384 l -0.40384,0.40384 h -0.80768 l -0.80768,-0.80768 v -0.80768 l -0.40384,-0.40384 v -1.21152 l 0.40384,-0.40384 0.40384,0.40384 -0.40384,-0.40384 3.63456,-3.63455 h 0.40384 l 0.40384,0.40384 h 0.40384 l 0.40383,0.40384 h 0.40384 l 0.40384,0.40384 z m -27.46108,-0.40384 h 0.80768 l 0.40384,-0.40384 h 0.80768 l 0.40384,-0.40384 3.63455,3.63455 -0.40384,0.40384 0.40384,-0.40384 h 0.40384 l 0.40384,0.40384 -0.40384,0.40384 v 0.80768 l -0.40384,0.40384 v 0.40384 l -0.40384,0.40384 v 0.40384 l -0.40384,0.40384 h -0.80767 l -0.40384,-0.40384 h -0.40384 l -1.21152,-1.21152 h -0.40384 l -1.21152,-1.21152 v -0.40384 l -1.21152,-1.21152 v -0.40383 l -0.40384,-0.40384 v -0.40384 z m -31.09563,15.3459 0.40384,-0.40384 h 0.40383 l 0.40384,-0.40384 h 0.40384 l 0.40384,-0.40384 h 0.40384 l 0.40384,-0.40384 h 0.40384 l 0.40384,0.40384 -0.40384,-0.40384 0.80768,-0.80768 h 0.40384 l 0.80768,-0.80768 h 0.40384 l 2.42303,-2.42304 h 0.40384 v -0.40384 l 2.0192,-2.01919 v -0.40384 l 0.80768,-0.80768 v -0.40384 l 0.80768,-0.80768 v -0.40384 l 0.40384,-0.40384 v -0.40384 l 0.40384,-0.40384 0.40384,0.40384 -0.40384,-0.40384 v -0.80768 l 0.40384,-0.40384 v -0.40383 l 0.40384,-0.40384 v -0.80768 l 0.40384,-0.40384 v -0.40384 l 0.40384,-0.40384 h 1.61535 l 0.40384,0.40384 h 1.61536 l 0.40384,-0.40384 h 2.0192 l 0.40384,0.40384 v 0.80768 l 0.40384,0.40384 v 0.80768 l 0.40383,0.40383 v 0.80768 l 0.80768,0.80768 v 0.40384 l 0.40384,0.40384 v 0.40384 l 0.40384,0.40384 v 0.40384 l 0.80768,0.80768 v 0.40384 l 1.21152,1.21152 v 0.40384 l 2.42304,2.42303 h 0.40384 l 1.61535,1.61536 h 0.40384 l 0.80768,0.80768 h 0.40384 l 0.40384,0.40384 h 0.40384 l 0.40384,0.40384 h 0.40384 l 0.40384,0.40384 h 0.40384 l 0.40384,0.40384 -0.40384,0.40384 h -5.24991 l -0.40384,0.40384 h -4.84608 l -0.40384,-0.40384 h -6.86527 l -0.40384,0.40384 h -6.05759 l -0.40384,-0.40384 h -6.46143 l -0.40384,0.40384 h -2.01919 z m 3.63455,-15.3459 0.80768,0.80768 v 0.80768 l -0.80768,0.80767 v 0.40384 l -2.82688,2.82688 h -0.40383 l -0.40384,0.40384 h -0.40384 l -0.40384,-0.40384 h -0.40384 l -0.40384,0.40384 -0.80768,-0.80768 v -0.40384 l -0.40384,-0.40384 v -1.21152 l 0.80768,-0.80768 h 0.40384 l 2.0192,-2.01919 v -0.40384 l 0.80767,-0.80768 h 0.40384 l 0.40384,0.40384 h 0.80768 l 0.40384,0.40384 z m -26.6534,0 h 0.40384 l 0.40384,-0.40384 h 1.21152 l 0.40383,-0.40384 1.21152,1.21152 v 0.40384 l 1.21152,1.21151 h 0.40384 l 0.80768,0.80768 -0.40384,0.40384 v 0.40384 -0.40384 l 0.40384,-0.40384 0.40384,0.40384 v 0.80768 l -0.40384,0.40384 v 0.40384 l -0.40384,0.40384 -0.40384,-0.40384 v -0.40384 0.40384 l -0.40384,0.40384 v 0.40384 l 0.40384,0.40384 -0.40384,0.40384 h -0.40384 l -0.40384,-0.40384 h -0.40384 l -0.40384,-0.40384 h -0.40384 l -2.82687,-2.82688 v -0.40384 l -0.40384,-0.40384 v -0.40383 l -0.40384,-0.40384 v -0.40384 z m 178.09319,10.49982 -0.40384,0.40384 h -2.42304 l -0.40384,0.40384 h -1.21152 l -0.40384,0.40384 h -2.01919 l -0.40384,0.40384 H 464.231 l -0.40384,-0.40384 h -0.80768 l -0.40384,0.40384 h -3.23072 l -0.40383,0.40384 h -1.61536 l -0.40384,0.40384 h -2.0192 l -0.40384,0.40384 h -2.82687 l -0.40384,-0.40384 -0.40384,0.40384 h -2.42304 l -0.40384,0.40384 h -2.82688 l -1.21151,0.80768 h -2.82688 l -0.40384,0.40384 h -1.21152 l -0.40384,-0.40384 h -0.80768 l -0.40384,0.40384 h -4.44223 l -1.21152,0.80768 h -4.84607 l -0.80768,-0.80768 0.40384,-0.40384 h 0.40384 l 0.40384,-0.40384 h 0.40384 l 0.40384,-0.40384 h 0.40384 l 0.80768,-0.80768 h 0.40384 l 0.40384,-0.40384 h 0.40383 l 1.61536,-1.61536 h 0.40384 l 2.0192,-2.01919 v -0.40384 l 1.61536,-1.61536 v -0.40384 l 0.80768,-0.80768 v -0.40384 l 0.40383,-0.40384 v -0.40384 l 0.80768,-0.80768 v -0.40384 l 0.80768,-1.21152 v -0.80767 l 0.40384,-0.40384 v -0.80768 l 0.80768,-0.80768 h 4.0384 l 0.40383,-0.40384 h 0.40384 l 0.40384,-0.40384 h 0.40384 l 1.61536,-1.61536 v -0.40384 l 0.40384,-0.40384 h 8.07679 l 0.80768,0.80768 v 0.40384 l 0.40384,0.40384 v 0.40384 l 0.40384,0.40384 v 0.40384 l 0.40384,0.40384 v 0.40384 l 0.40384,0.40384 v 0.40384 l 0.80767,0.80768 v 0.40384 l 4.44224,4.44223 -0.40384,0.40384 0.40384,-0.40384 0.80768,0.80768 h 0.40384 l 0.80767,0.80768 h 0.40384 l 0.80768,0.80768 h 0.40384 l 0.40384,0.40384 h 0.40384 l 1.21152,0.80767 -0.40384,0.40384 h -0.40384 0.40384 l 0.40384,-0.40384 h 0.40384 l 0.40384,0.40384 h 1.21152 z m 18.98045,-16.15357 0.40384,0.40384 h 0.80768 l 0.40384,0.40383 h 0.40384 l 0.40384,0.40384 h 0.40384 l 0.80767,0.80768 h 0.40384 l 0.40384,0.40384 -0.40384,0.40384 h -0.80767 0.40383 l 0.40384,0.40384 -1.61535,1.61536 v 0.40384 l -1.61536,1.61536 h -0.40384 l -0.80768,0.80767 h -0.40384 l -0.40384,-0.40383 v -0.40384 h -0.40384 l -0.40384,0.40384 -0.40384,-0.40384 v -0.40384 l -0.40384,-0.40384 v -0.40384 l -0.40384,-0.40384 v -0.80768 l -0.40384,-0.40384 v -0.40384 l 0.40384,-0.40384 0.40384,0.40384 -0.40384,-0.40384 z m -25.84572,1.61535 h 0.80767 l 0.80768,-0.80768 h 0.40384 l 0.40384,-0.40383 h 0.80768 l 0.40384,-0.40384 h 0.80768 l 2.0192,2.01919 v 0.40384 l 0.80768,0.80768 v 0.80768 l -0.40384,0.40384 v 0.80768 l -0.40384,0.40384 v 0.40384 l -0.40384,0.40384 v 0.40384 l -0.80768,0.80767 h -0.40384 l -1.21152,-1.21151 h -0.40384 l -2.42304,-2.42304 v -0.40384 l -0.80767,-0.80768 v -0.40384 l -0.40384,-0.40384 z m -225.34241,-0.80768 0.80768,-0.80767 0.40384,0.40384 0.40384,-0.40384 -0.40384,0.40384 -0.40384,-0.40384 v -0.40384 l 0.40384,-0.40384 h 0.40384 v -0.40384 l 0.80768,-0.80768 v -0.40384 l 0.40384,-0.40384 h 0.40384 l 0.40384,0.40384 h 1.61536 l 0.40384,0.40384 v 2.42304 h 0.40384 l 0.40384,0.40383 h 4.44223 l 0.40384,-0.40383 v -1.21152 l 0.40384,-0.40384 v -0.40384 l 0.80768,-0.80768 h 0.80768 l 0.40384,-0.40384 h 0.80767 l 1.21152,1.21152 v 0.40384 h 0.40384 l 0.80768,0.80768 -0.40384,0.40384 v 0.40384 -0.40384 l 0.40384,-0.40384 0.40384,0.40384 v 0.80767 l -0.40384,0.40384 h -0.80768 l -0.40384,0.40384 h -0.40384 l -0.40384,0.40384 h -1.21151 l -0.40384,0.40384 h -1.61536 l -0.40384,0.40384 h -5.65375 l -0.40384,-0.40384 h -1.61536 l -0.40384,-0.40384 h -0.80768 l -0.40384,-0.40384 h -0.80768 l -0.40384,-0.40384 h -0.40384 z m 192.22757,-7.26911 h 0.40384 l 0.40384,0.40384 v 1.61536 l 0.40384,0.40384 v 4.0384 l -0.40384,0.40384 v 1.21151 l -0.40384,0.40384 h -0.80768 l -0.40384,-0.40384 0.40384,-0.40384 -0.40384,-0.40384 h -0.40384 l -0.40383,-0.40383 0.40383,0.40383 -0.40383,0.40384 h -0.40384 l -1.21152,-1.21151 0.40384,-0.40384 v -4.0384 l 1.61535,-1.61536 h 0.80768 z m -31.90331,0 0.40384,0.40384 h 0.80768 l 0.80768,0.80768 h 0.40383 l 0.80768,0.80768 v 0.80768 l -0.40384,0.40384 v 2.82688 l 0.40384,0.40384 v 0.40384 l -0.40384,0.40383 h -0.40384 l -0.80767,0.80768 h -0.80768 l -0.40384,-0.40384 v -0.40384 0.40384 l 0.40384,0.40384 -0.40384,0.40384 h -0.40384 l -0.40384,-0.40384 v -0.40384 l -0.40384,-0.40384 v -6.05759 l 0.40384,-0.40384 v -0.40384 z m -22.61501,0 h 0.40384 l 0.40384,0.40384 v 2.0192 l 0.40384,0.40384 v 3.23072 l -0.40384,0.40384 v 2.01919 l -0.40384,0.40384 h -0.40384 l -0.80768,-0.80768 h -0.40384 L 376.194,203.0112 h -0.40384 l -0.80768,-0.80767 v -4.84608 l 0.80768,-0.80768 h 0.40384 l 0.80768,-0.80768 h 0.40384 z m -31.90331,0 0.40383,0.40384 h 0.80768 l 0.80768,0.80768 h 0.40384 l 0.80768,0.80768 v 1.21152 l -0.40384,0.40384 v 1.21152 l 0.40384,0.40384 v 1.21152 l -1.61536,1.61535 h -0.80768 l -0.40384,0.40384 h -0.80767 l -0.40384,-0.40384 v -2.01919 l -0.40384,-0.40384 v -2.82688 l 0.40384,-0.40384 v -1.61536 z m -22.61501,0 h 0.40384 l 0.40384,0.40384 v 0.80768 l 0.40384,0.40384 v 5.24992 l -0.40384,0.40383 v 0.80768 l -0.40384,0.40384 h -0.40384 l -0.40384,-0.40384 0.40384,-0.40384 v -0.40384 h -1.21152 l -0.80768,-0.80767 -0.40384,0.40384 -0.40384,-0.40384 v -4.44224 l 1.21152,-1.21152 h 0.40384 l 0.40384,-0.40384 h 0.40384 z m -31.49948,0 0.40384,0.40384 h 0.40384 l 0.40384,0.40384 h 0.40384 l 0.80768,0.80768 h 0.40384 l 0.40384,0.40384 -0.40384,0.40384 v 4.44224 l -0.40384,0.40383 -0.40384,-0.40383 v -0.40384 0.40384 l 0.40384,0.40383 -0.40384,0.40384 h -0.40384 l -0.40384,0.40384 h -0.40384 l -0.40384,-0.40384 0.40384,-0.40384 h -0.80768 v 0.40384 l -0.40384,0.40384 -0.40384,-0.40384 v -1.21151 l -0.40384,-0.40384 v -2.82688 l 0.40384,-0.40384 v -2.0192 z m -25.44188,-2.42303 0.40384,0.40384 -0.40384,0.40384 v 0.40384 l -0.40384,0.40384 v 0.40384 l -0.40384,0.40383 v 0.40384 l -0.40384,0.40384 v 0.40384 l -3.63456,3.63456 h -0.40383 l -0.40384,0.40384 -0.40384,-0.40384 h -0.40384 l -0.40384,0.40384 -0.40384,-0.40384 v -0.40384 l -0.40384,-0.40384 v -0.40384 l -0.40384,-0.40384 v -0.40384 l 0.40384,-0.40384 -0.40384,0.40384 -0.80768,-0.80768 0.80768,-0.80768 h 0.40384 l 0.80768,0.80768 h 1.21152 l 1.61535,-1.61536 v -0.40384 l 0.40384,-0.40383 v -0.40384 l -0.40384,-0.40384 v -0.80768 l -0.40384,-0.40384 v -0.40384 l 0.80768,-0.80768 0.40384,0.40384 h 1.21152 l 0.40384,0.40384 h 0.80768 l 0.40384,0.40384 z m -34.73019,0 h 0.40384 l 0.40384,-0.40384 h 0.80767 l 0.40384,-0.40384 h 0.80768 l 0.40384,-0.40384 0.40384,0.40384 v 0.40384 l 0.40384,0.40384 v 0.40384 l -0.80768,0.80768 v 1.21151 l 0.80768,0.80768 v 0.40384 h 0.40384 l 0.80768,0.80768 h 1.21152 l 0.40384,-0.40384 0.40384,0.40384 v 0.40384 l 0.40384,0.40384 v 0.40384 l -0.40384,0.40384 v 0.40384 l -0.40384,0.40384 v 0.40384 l -0.40384,0.40384 -0.40384,-0.40384 h -0.80768 l -0.40384,-0.40384 0.40384,0.40384 -0.40384,0.40384 h -0.40384 l -2.42304,-2.42304 v -0.40384 l -1.21151,-1.21152 v -0.40384 l -0.80768,-0.80768 v -0.40383 l -0.40384,-0.40384 v -0.40384 l -0.40384,-0.40384 z m 265.72634,-3.23072 h 0.40384 l 0.40384,0.40384 v 0.40384 l 0.40384,0.40384 v 6.86527 l -0.40384,0.40384 v 0.40384 l -0.40384,0.40384 -0.40384,-0.40384 h -0.40384 l -0.40384,-0.40384 0.40384,-0.40384 -0.40384,0.40384 h -0.80768 l -0.40384,-0.40384 h -0.40384 l -1.21151,-1.21152 v -0.80768 l 0.40384,-0.40384 v -2.01919 l -0.40384,-0.40384 v -1.21152 l 0.40384,-0.40384 h 0.40384 l 0.40383,-0.40384 h 0.40384 l 0.80768,-0.80768 h 0.80768 z m -33.51867,0 0.40384,0.40384 -0.40384,0.40384 v 0.40384 -0.40384 l 0.40384,-0.40384 h 0.40384 l 0.40384,0.40384 h 0.40384 l 0.40384,0.40384 h 0.40383 l 0.40384,0.40384 h 0.40384 l 0.40384,0.40384 v 4.84607 l -0.80768,0.80768 h -0.40384 l -0.40383,0.40384 h -0.80768 l -0.40384,0.40384 h -0.80768 l -0.40384,0.40384 -0.80768,-0.80768 v -6.86527 l 0.40384,-0.40384 v -0.40384 l 0.40384,-0.40384 z m -39.57627,-4.03839 0.40384,-0.40384 h 0.40384 l 0.40384,0.40384 h 0.40384 l 0.40384,0.40384 -0.40384,0.40384 0.40384,-0.40384 h 0.40384 l 3.23072,3.23071 v 0.40384 l 0.80768,0.80768 v 0.80768 l -0.80768,0.80768 h -0.80768 l -0.40384,0.40384 h -1.21152 l -2.42304,-2.42304 h -0.40384 l -1.21151,-1.21152 v -1.21151 l 0.40383,-0.40384 v -0.80768 l 0.40384,-0.40384 z m -16.15357,-0.40384 0.40384,0.40384 v 0.80768 l 0.40384,0.40384 v 0.40384 l 0.40384,0.40384 v 1.21151 l -4.0384,4.0384 -0.40384,-0.40384 h -0.80768 l -0.40384,-0.40384 h -0.40384 l -0.40384,-0.40384 h -0.40383 l -0.40384,-0.40384 v -0.40384 l 0.40384,-0.40384 0.40383,0.40384 -0.40383,-0.40384 v -0.40384 l 0.40383,-0.40384 v -0.40384 l 0.80768,-0.80768 0.40384,0.40384 -0.40384,-0.40384 2.0192,-2.01919 h 0.40384 l 0.80768,-0.80768 h 0.40384 l 0.40384,-0.40384 z m -37.96091,0.40384 0.40384,-0.40384 h 0.40384 l 0.80768,0.80768 -0.40384,0.40384 h -0.40384 0.40384 l 0.40384,-0.40384 h 0.40384 l 1.61536,1.61536 -0.40384,0.40384 0.40384,0.40383 0.40384,-0.40383 1.61535,1.61535 v 0.40384 l 0.40384,0.40384 v 0.40384 l 0.40384,0.40384 -0.40384,0.40384 h -0.40384 l -0.40384,0.40384 h -0.40384 l -0.40384,0.40384 h -1.61535 l -2.82688,-2.82688 h -0.40384 l -0.80768,-0.80768 v -0.40384 l 0.40384,-0.40383 v -0.80768 l 0.40384,-0.40384 v -0.40384 l 0.40384,-0.40384 z m -16.55742,-0.40384 0.40384,0.40384 v 0.40384 l 0.40384,0.40384 v 0.40384 l 0.40384,0.40384 v 1.61535 l -4.03839,4.0384 -0.40384,-0.40384 h -0.80768 l -0.40384,-0.40384 h -0.40384 l -0.40384,-0.40384 h -0.40384 l -0.40384,-0.40384 v -0.40384 l 0.40384,-0.40384 v -0.40384 l 0.80768,-0.80768 v -0.40384 l 1.21152,-1.21151 0.40384,0.40384 -0.40384,-0.40384 1.61536,-1.61536 h 0.40384 l 0.40384,-0.40384 h 0.40384 l 0.40383,-0.40384 z m -37.9609,0.40384 0.40384,-0.40384 h 0.40384 l 0.40384,0.40384 -0.40384,0.40384 0.40384,-0.40384 0.40384,0.40384 h 0.40384 l 3.63455,3.63455 v 0.40384 l 0.80768,0.80768 -1.21152,1.21152 h -0.40384 l -0.40384,0.40384 h -0.80768 l -0.40384,0.40384 -4.44223,-4.44224 0.40384,-0.40383 v -0.80768 l 0.40384,-0.40384 v -0.40384 l 0.40384,-0.40384 z m -16.55742,-0.40384 0.40384,0.40384 v 0.40384 l 0.40384,0.40384 v 0.40384 l 0.40384,0.40384 v 1.21151 l 0.40384,0.40384 -0.80768,0.80768 h -0.40384 l -2.0192,2.0192 v 0.40384 l -0.80768,0.80768 h -0.40383 l -0.40384,-0.40384 h -0.80768 l -0.40384,-0.40384 h -0.40384 l -0.80768,-0.80768 v -0.80768 l 0.80768,-0.80768 v -0.40384 l 3.23071,-3.23071 h 0.40384 l 0.40384,-0.40384 h 0.40384 z m 113.07504,-1.61536 0.40384,-0.40384 h 1.21152 l 0.40384,-0.40384 h 4.84607 l 0.40384,0.40384 h 0.80768 l 0.40384,0.40384 v 0.80768 l -0.40384,0.40384 v 0.40384 l -0.40384,0.40384 v 0.80768 l -0.80768,0.80768 h -0.40384 l -0.40384,-0.40384 h -4.44223 l -1.21152,-1.21152 v -0.80768 l 0.80768,-0.80768 h 0.40384 -0.80768 v 0.40384 l -0.40384,0.40384 -0.40384,-0.40384 z m -54.51832,0.40384 v -0.40384 l 0.40384,-0.40384 h 0.40384 l 0.40384,-0.40384 h 6.05759 l 0.40384,0.40384 h 0.80768 l 0.40384,0.40384 -0.40384,0.40384 v 0.80768 l -0.40384,0.40384 v 0.40384 l -0.80768,0.80768 v 0.40384 l -0.40384,0.40384 -0.40384,-0.40384 h -4.03839 l -0.40384,0.40384 -0.80768,-0.80768 v -0.40384 l -0.40384,-0.40384 v -0.40384 l -0.40384,-0.40384 v -0.40384 z m -54.51832,-0.40384 0.40384,-0.40384 h 0.80767 l 0.40384,-0.40384 h 5.65376 l 0.40383,0.40384 h 0.80768 l 0.40384,0.40384 -0.40384,0.40384 v 0.40384 l -0.40384,0.40384 v 0.80768 l -0.40384,0.40384 v 0.40384 l -0.80767,0.80768 -0.40384,-0.40384 h -4.0384 l -0.40384,0.40384 -0.80768,-0.80768 v -0.40384 l -0.40384,-0.40384 v -0.40384 l -0.40383,-0.40384 v -0.80768 z m 167.9972,-4.44223 0.40384,0.40384 v 0.40384 l 0.40384,0.40384 v 0.40384 l 0.40384,0.40383 v 1.21152 l 0.40384,0.40384 v 1.21152 l -2.82688,2.82688 h -1.21152 l -0.40384,-0.40384 h -0.40384 l -0.40384,-0.40384 h -0.40384 l -0.80768,-0.80768 h -0.40383 l -0.40384,-0.40384 v -0.40384 l 0.40384,-0.40384 v -0.40384 l 1.21151,-1.21152 v -0.40384 l 0.80768,-0.80768 h 0.40384 l 1.61536,-1.61535 h 0.40384 l 0.40384,-0.40384 z m 18.98045,-0.40384 0.40384,0.40384 h 0.40384 l 0.80768,0.80768 -0.40384,0.40384 0.40384,-0.40384 0.80768,0.80768 h 0.40384 l 1.21152,1.21151 v 0.40384 l 1.21151,1.21152 v 0.40384 l 0.40384,0.40384 -1.21151,1.21152 h -0.40384 l -0.40384,0.40384 h -0.40384 l -0.40384,0.40384 h -0.40384 l -0.40384,0.40384 h -0.80768 l -1.21152,-1.21152 v -0.40384 l -0.80768,-0.80768 h -0.40384 l -0.80768,-0.80768 v -1.21152 l 0.40384,-0.40384 v -0.40384 l 0.40384,-0.40384 v -0.40383 l 0.40384,-0.40384 v -0.40384 l 0.40384,-0.40384 v -0.40384 z m -259.66875,0 0.40384,0.40384 h 0.80768 l 0.80768,0.80768 h 0.40383 l 0.80768,0.80768 -1.21151,1.21151 v 0.40384 l -0.40384,0.40384 v 0.40384 l -0.40384,0.40384 v 2.0192 l 0.40384,0.40384 v 0.40384 l 0.40384,0.40384 h 0.40383 l 0.80768,0.80768 v 0.80767 l -0.40384,0.40384 -0.40384,-0.40384 v -0.40383 0.80767 l -0.40383,0.40384 h -0.40384 l -0.40384,0.40384 h -0.40384 l -0.40384,0.40384 h -0.40384 l -0.40384,0.40384 -0.40384,-0.40384 v -0.80768 l -0.40384,-0.40384 v -2.42303 l -0.40384,-0.40384 v -2.42304 l 0.40384,-0.40384 v -2.0192 l 0.40384,-0.40383 v -0.80768 l 0.40384,-0.40384 v -0.40384 z m 36.74939,-0.40384 0.80768,0.80768 v 0.80768 l 0.40383,0.40384 v 2.82687 l 0.40384,0.40384 v 2.82688 l -0.40384,0.40384 v 1.61535 l -0.40383,0.40384 v 1.21152 l -0.40384,0.40384 h -0.40384 l -0.40384,-0.40384 h -0.40384 l -0.40384,-0.40384 0.40384,-0.40384 h 0.80768 v -0.40384 l -0.40384,0.40384 -0.40384,-0.40384 v 0.40384 l -0.40384,0.40384 -0.40384,-0.40384 v -0.40384 l -0.40384,0.40384 -0.80768,-0.80768 0.40384,-0.40383 -0.40384,-0.40384 0.80768,-0.80768 h 0.80768 l 0.40384,-0.40384 v -2.82688 l -0.80768,-0.80768 h -0.40384 l -0.40384,0.40384 -0.40384,-0.40384 v -0.80768 l -0.40384,-0.40384 v -0.80767 l 0.40384,-0.40384 h 0.40384 l 1.61536,-1.61536 h 0.40384 z m 208.78498,-1.21152 0.40384,-0.40384 h 0.80768 l 0.40384,-0.40384 h 6.05759 l 0.40384,0.40384 h 0.80768 l 0.40384,0.40384 -0.80768,0.80768 v 0.80768 l -0.40384,0.40384 v 0.40384 l -0.40384,0.40384 v 0.40384 l -0.40384,0.40384 v 0.40383 l -0.40384,0.40384 h -0.40384 l -0.40384,-0.40384 h -3.23071 l -0.40384,-0.40383 0.40384,-0.40384 h -0.80768 l -0.40384,0.40384 -0.40384,-0.40384 v -0.80768 l -0.40384,-0.40384 v -0.40384 l 0.40384,-0.40384 v -0.80768 0.80768 l -0.40384,0.40384 -0.40384,-0.40384 v -0.80768 z m -50.88377,-0.80768 0.40384,-0.40384 h 3.23072 l 0.40384,0.40384 h 6.46143 l 0.40384,-0.40384 h 6.05759 l 0.40384,0.40384 h 6.05759 l 0.40384,-0.40384 h 6.05759 l 0.40384,0.40384 h 6.86527 l 0.40384,0.40384 -0.80768,0.80768 -0.40384,-0.40384 h -4.44223 3.63455 l 0.80768,0.80768 -0.40384,0.40384 v 0.40384 l -0.80768,0.80768 v 0.40384 l -0.80768,0.80768 v 0.40383 l -0.80767,0.80768 v 0.40384 l -0.40384,0.40384 v 0.40384 l -0.80768,1.21152 v 0.80768 l -0.40384,0.40384 v 0.40384 l -0.40384,0.40384 -0.40384,-0.40384 0.40384,0.40384 v 1.21152 l -0.40384,0.40384 v 1.21151 l -0.40384,0.40384 v 2.0192 l -0.40384,0.40384 v 4.44223 l -0.40384,0.40384 h -2.0192 l -0.40384,-0.40384 h -0.80767 l -0.40384,-0.40384 h -2.82688 l -0.80768,-0.80768 v -0.40383 l -1.21152,-1.21152 h -0.40384 l -0.40384,-0.40384 h -0.40384 l -1.21151,-0.80768 h -2.82688 l -0.40384,0.40384 -0.80768,-0.80768 v -0.80768 l -0.40384,-0.40384 v -0.40384 l -0.80768,-1.21152 v -0.80768 l -0.80768,-0.80767 v -0.40384 l -0.40383,-0.40384 v -0.40384 l -0.80768,-0.80768 v -0.40384 l -1.61536,-1.61536 v -0.40384 l -2.42304,-2.42303 h -0.40384 l -1.21152,-1.21152 h -0.40383 l -0.80768,-0.80768 h -0.40384 l -0.40384,-0.40384 h -0.40384 l -0.80768,-0.80768 h -0.40384 l -1.21152,-0.80768 h -0.80768 z m -55.72984,-0.40384 0.40384,-0.40384 h 5.24991 l 0.80768,0.80768 h 6.46143 l 0.80768,-0.80768 h 5.65375 l 0.40384,0.40384 h 0.40384 l 0.40384,0.40384 h 5.65375 l 0.40384,-0.40384 h 6.46144 l 0.40383,0.40384 h 3.63456 l 0.40384,0.40384 -0.40384,0.40384 h -0.80768 l -0.40384,0.40384 h -0.40384 l -0.40384,-0.40384 h -1.21152 l 0.80768,0.80768 -0.40384,0.40384 h -0.40384 l -1.21151,1.21152 h -0.40384 l -1.61536,1.61535 h -0.40384 l -2.42304,2.42304 v 0.40384 l -1.21152,1.21152 v 0.40384 l -0.40384,0.40384 v 0.40384 l -0.80767,0.80768 v 0.40384 l -0.40384,0.40384 v 0.40383 l -0.40384,0.40384 v 0.40384 l -0.40384,0.40384 v 0.40384 l -0.40384,0.40384 v 0.80768 l -0.40384,0.40384 v 0.80768 l -0.40384,0.40384 h -1.21152 l -0.40384,-0.40384 h -3.63455 l -0.40384,-0.40384 v 0.40384 l -0.40384,0.40384 -0.40384,-0.40384 v -0.40384 l -0.40384,-0.40384 v -0.80768 l -0.40384,-0.40384 v -0.40384 l -0.40384,-0.40384 v -0.40384 l -0.40384,-0.40384 v -0.40384 l -0.40384,-0.40383 v -0.40384 l -0.40384,-0.40384 v -0.40384 l -0.80768,-0.80768 v -0.40384 l -1.21152,-1.21152 v -0.40384 l -3.23071,-3.23071 h -0.40384 l -1.61536,-1.61536 h -0.40384 l -0.80768,-0.80768 h -0.40384 l -0.40383,-0.40384 h -0.40384 l -0.40384,-0.40384 h -0.40384 l -0.40384,-0.40384 h -0.40384 l -0.40384,-0.40384 0.40384,-0.40384 h 0.80768 -0.80768 l -0.40384,0.40384 h -0.80768 l -0.40384,-0.40384 h -0.80768 z m -109.84432,-7.26911 h 0.40384 l 0.40384,0.40384 h 0.40384 l 1.21151,1.21152 h 0.40384 l 2.0192,2.0192 v 0.40384 l 0.80768,0.80768 v 0.40384 l 0.40384,0.40383 v 0.40384 l -0.80768,0.80768 0.40384,0.40384 -0.40384,0.40384 h -0.40384 l -0.40384,0.40384 h -1.21152 l -0.40384,-0.40384 -0.40384,0.40384 -0.80767,-0.80768 v -1.21152 l 0.40383,-0.40384 v -0.80767 l -1.21151,-1.21152 h -1.21152 l -0.40384,0.40384 h -0.80768 l -0.40384,-0.40384 v -0.40384 l 0.40384,-0.40384 0.40384,0.40384 -0.40384,-0.40384 v -0.40384 l 0.40384,-0.40384 0.80768,0.80768 -0.80768,-0.80768 v -0.40384 l 0.40384,-0.40384 v -0.40384 z m -20.99965,-0.40384 0.40384,0.40384 v 0.40384 l -0.40384,0.40384 v 0.40384 -0.40384 l 0.40384,-0.40384 0.40384,0.40384 v 0.40384 l 0.40384,0.40384 v 0.80768 l 0.40383,0.40384 v 0.40384 l -0.40383,0.40384 h -0.80768 l -0.40384,0.40384 h -0.40384 l -1.61536,1.61535 v 0.40384 l -0.40384,0.40384 v 1.21152 l -0.80768,0.80768 -0.40384,-0.40384 h -0.80768 l -0.40384,-0.40384 h -0.40384 l -0.40384,-0.40384 h -0.40383 l -0.80768,-0.80768 0.80768,-0.80768 v -0.40383 l 0.80767,-0.80768 v -0.40384 l 2.82688,-2.82688 h 0.40384 l 1.21152,-1.21152 h 0.40384 z m 16.15357,40.78779 5.65376,-2.0192 4.84607,-3.23072 4.84607,-5.65375 1.61536,-2.82688 2.0192,-6.46143 v -7.67295 l -0.80768,-3.63455 -2.82688,-6.05759 -2.82687,-3.23072 1.61535,-0.40384 -1.61535,0.40384 -1.21152,-1.21152 0.40384,-0.40383 3.63455,0.40383 1.21152,1.21152 2.42304,0.40384 1.21152,-0.80768 5.24991,0.80768 1.21152,1.21152 4.03839,0.80768 3.63456,-0.40384 4.84607,0.80768 0.80768,0.80768 1.61536,0.40384 11.3075,0.40384 0.40384,1.21152 h 2.82687 l 0.40384,0.40383 h 2.82688 l 1.21152,-0.80767 h 2.42304 l 0.40383,0.40384 h 3.23072 l 0.80768,0.80767 6.86527,-0.40384 0.40384,0.40384 h 5.24991 l 0.80768,0.80768 h 4.44223 l 0.40384,0.40384 h 1.21152 l 0.80768,-0.80768 h 3.23072 l 0.40384,0.40384 7.2691,0.40384 0.40384,0.40384 -4.03839,1.61536 -6.46143,5.24991 -2.82688,4.0384 -2.42303,5.65375 -1.61536,-0.40384 -4.44223,0.40384 -0.40384,-0.80768 0.80767,-0.40384 -0.40383,-0.40384 -0.40384,0.80768 -0.40384,-0.40384 v -0.80768 l -2.82688,-5.24991 -5.24991,-5.65375 -5.65375,-3.23072 -3.63456,-1.21152 -10.09598,-0.40384 -5.65376,1.61536 -5.65375,3.23072 -5.24991,5.65375 -2.82688,5.65375 -1.21152,4.44223 v 8.07679 l 1.61536,5.65375 3.23072,5.65376 5.65375,5.24991 -0.40384,0.40384 -4.03839,-0.80768 -1.21152,-0.80768 -4.0384,-0.40384 -2.82687,-1.61536 -5.24992,-1.61535 -4.84607,-0.80768 -5.24991,-2.42304 -4.0384,-0.40384 z m -4.84607,-43.21082 0.40384,-0.40384 h 2.42304 l 0.40384,0.40384 h 0.80768 l 0.40383,0.40384 h 0.80768 l 0.40384,0.40384 h 0.80768 l 0.40384,0.40383 v 0.40384 l -0.80768,0.80768 v 0.40384 l -0.80768,0.80768 v 0.40384 l -0.80768,0.80768 -0.40383,-0.40384 h -1.21152 l -0.40384,-0.40384 h -0.40384 l -0.40384,-0.40384 v -0.80768 l -0.40384,-0.40384 v -0.40384 l -0.80768,-0.80768 v -0.40383 l -0.40384,-0.40384 z m -2.42304,-0.40384 0.40384,0.40384 v 0.40384 l -0.40384,0.40384 v 0.40383 l -1.21151,1.21152 v 1.21152 l -0.80768,0.80768 h -2.0192 l -0.40384,-0.40384 v -0.40384 l -1.21152,-1.21152 v -0.40384 l -0.40384,-0.40384 v -0.40384 l 0.40384,-0.40383 h 0.40384 l 0.40384,-0.40384 h 0.80768 l 0.40384,-0.40384 h 1.21152 l 0.40384,-0.40384 z m 199.09284,1.61535 0.40384,-0.40383 v -0.40384 l 1.61536,-1.61536 h 6.86527 l 0.80768,0.80768 v 0.40384 l 0.40384,0.40384 v 0.40384 l 0.40384,0.40383 -0.40384,0.40384 h -1.21152 v 0.40384 l -0.40384,0.40384 v 0.80768 l -0.40384,0.40384 h -4.84607 l -0.40384,-0.40384 v -0.80768 l -0.40384,-0.40384 v -0.40384 h -2.0192 z m -13.3267,0 0.80768,-0.80767 v -0.40384 l 1.21152,-1.21152 h 6.86527 l 1.21152,1.21152 v 0.40384 l 0.80768,0.80767 -0.40384,0.40384 h -1.21152 l -1.21152,1.21152 -0.40384,-0.40384 -0.40384,0.40384 h -3.23071 4.44223 l 0.40384,0.40384 -0.40384,0.40384 h -5.24991 l -0.40384,-0.40384 v -1.21152 l -0.40384,-0.40384 h -2.0192 z m -53.3068,-0.40383 0.40384,-0.40384 v -0.40384 l 1.21151,-1.21152 h 8.07679 l 1.21152,1.21152 h 0.40384 l 0.40384,0.40384 h 0.80768 l 0.40384,-0.40384 1.21152,-0.40384 0.80768,-0.80768 h 8.07678 l 2.0192,1.61536 h 1.21152 l 0.40384,-0.40384 h 0.40384 l 1.21152,-1.21152 h 8.07679 l 1.61535,1.61536 h 2.0192 l 0.40384,-0.40384 h 0.40384 l 1.21152,-1.21152 h 6.86527 l 1.21152,1.21152 v 0.40384 l 0.80768,0.80767 -0.40384,0.40384 h -1.21152 l -0.40384,0.40384 v 1.21152 l -0.40384,0.40384 h -5.24991 l -0.40384,-0.40384 v -1.21152 l -0.40384,-0.40384 h -6.46143 l -0.80768,1.21152 h -4.0384 4.0384 l 0.40384,0.40384 -0.40384,0.40384 h -5.24992 l -0.40383,-0.40384 v -1.61536 h -0.80768 l -0.40384,-0.40384 -0.40384,0.40384 h -5.24991 l -0.40384,0.40384 v 1.21152 l -0.40384,0.40384 h -4.84608 l -0.40384,-0.40384 v -0.80768 l -0.40384,-0.40384 v -0.40384 h -0.40384 l -0.40383,-0.40384 h -0.80768 l -0.40384,0.40384 h -2.0192 l -0.40384,-0.40384 h -0.80768 l -0.40384,0.40384 h -1.21152 v 0.80768 l -0.40384,0.40384 0.40384,0.40384 -0.40384,0.40384 h -5.65375 l -0.40384,-0.40384 0.40384,-0.40384 h 1.61536 -0.40384 l -0.40384,-0.40384 -0.40384,0.40384 -0.80768,-0.80768 v -0.40384 h -0.40384 l -0.40384,-0.40384 h -1.61535 z m 79.9602,0.40383 0.40384,-0.40383 v -0.40384 l 0.40384,-0.40384 v -0.40384 l 0.80768,-0.80768 h 0.40384 l 0.40384,-0.40384 0.40384,0.40384 h 6.46143 l 0.40384,0.40384 v 0.40384 l 0.80768,0.80768 h 0.40384 l 0.40384,0.40384 -0.40384,0.40383 h -2.0192 l -0.40384,0.40384 v 0.40384 l -0.40384,0.40384 0.40384,0.40384 -0.40384,0.40384 h -1.61536 l -0.40383,0.40384 h -3.23072 l -0.40384,-0.40384 v -1.21152 l -0.40384,-0.40384 h -1.61536 z m -108.22896,-0.80767 0.40384,-0.40384 h 0.40384 l 1.61535,-1.61536 h 7.26911 l 0.80768,0.80768 h 0.40384 l 0.80768,0.80768 h 1.61536 l 0.40384,0.40384 0.40384,-0.40384 h 0.40384 l 0.80768,-0.80768 h 0.40383 l 0.40384,-0.40384 h 4.84608 l 0.40384,-0.40384 h 0.80768 l 0.40384,0.40384 h 0.40383 l 0.40384,-0.40384 0.40384,0.40384 h 0.40384 l 0.80768,0.80768 v 0.40384 l 0.40384,0.40384 v 0.40384 l -0.40384,0.40383 H 376.194 l -0.80768,0.80768 v 0.80768 l -0.40384,0.40384 h -2.01919 l -0.40384,0.40384 h -2.82688 l -0.40384,-0.40384 v -1.21152 l -0.80768,-0.80768 h -6.46143 l -0.40384,0.40384 v 1.21152 l -0.40384,0.40384 h -4.84607 l -0.40384,-0.40384 v -1.21152 l -0.40384,-0.40384 h -0.40384 l -0.40384,-0.40383 h -2.82687 z m -11.30751,0 0.40384,-0.40384 v -0.40384 l 1.21152,-1.21152 h 6.46143 l 0.40384,0.40384 h 0.40384 l 1.21152,1.21152 h 0.80768 l 0.40384,0.40384 -0.40384,0.40384 h -1.21152 l -0.40384,0.40383 h -0.40384 v 0.40384 l -0.40384,0.40384 v 0.80768 l -0.40384,0.40384 h -0.40384 l -0.80768,-0.80768 v -1.61535 h -0.40384 l -0.40384,-0.40384 h -1.21151 l -0.40384,-0.40384 h -1.21152 l -0.40384,0.40384 h -1.21152 l -0.40384,0.40384 h -0.80768 z m -13.3267,-0.80768 0.40384,-0.40384 v -0.40384 l 1.21152,-1.21152 0.40384,0.40384 h 6.86527 l 0.80768,0.80768 v 0.40384 l 1.21152,1.21152 -0.40384,0.40384 h -2.0192 v 0.40383 l -0.40384,0.40384 v 0.80768 l -0.40384,0.40384 h -0.40384 l -0.40384,-0.40384 h -3.23071 l -0.40384,-0.40384 0.40384,-0.40384 -0.40384,-0.40384 v -0.40383 h -0.40384 l -0.40384,-0.40384 h -1.61536 z m 148.20907,1.21152 0.40384,-0.40384 h 0.40384 l 0.40384,-0.40384 h 0.80768 l 0.40384,-0.40384 h 1.61536 l 0.40384,0.40384 h 0.40384 -0.40384 l -0.40384,-0.40384 0.40384,-0.40384 h 0.40384 l 0.40384,-0.40384 h 0.80767 l 0.40384,-0.40384 h 0.40384 l 0.80768,-0.80768 h 0.40384 l 0.40384,-0.40384 h 4.03839 l 0.40384,0.40384 h 1.21152 l 0.40384,0.40384 h 1.61536 l 0.40384,0.40384 h 0.80768 l 0.40384,0.40384 h 0.40384 l 0.40384,0.40384 h 0.40384 l 0.40384,0.40384 h 0.40383 l 0.40384,0.40384 h 0.40384 l 0.40384,0.40384 h 0.40384 l 0.40384,0.40384 h 0.40384 l 0.80768,0.80767 v 0.40384 l 0.80768,0.80768 h 0.40384 l 1.21152,1.21152 -0.80768,0.80768 -0.80768,-0.80768 h -0.40384 l -0.40384,-0.40384 h -0.40384 l -0.40384,-0.40384 h -0.40384 l -0.40384,0.40384 v 0.40384 l -0.40384,0.40384 h -0.40384 l -0.40384,-0.40384 h -0.80767 l -0.80768,-0.80768 h -0.80768 l -0.40384,-0.40384 h -0.40384 l -0.40384,-0.40384 v -1.61535 l -0.40384,-0.40384 h -0.40384 l -0.40384,-0.40384 h -0.80768 l -0.40384,-0.40384 h -1.21152 l -0.40384,-0.40384 h -2.42303 l -0.40384,-0.40384 h -1.61536 l -0.40384,0.40384 h -0.40384 v 0.40384 l -0.40384,0.40384 v 0.40384 l -0.40384,0.40384 h -2.82687 l -0.40384,-0.40384 0.40384,0.40384 -0.40384,0.40383 h -1.61536 l -0.40384,0.40384 h -0.40384 l -0.40384,0.40384 -0.40384,-0.40384 z m -162.34345,-2.0192 0.80768,-0.80768 0.40384,0.40384 -0.40384,-0.40384 v -0.40384 l 0.40384,-0.40384 h 5.65375 l 0.40384,0.40384 h 1.61536 l 0.80768,0.80768 v 0.40384 l 0.40384,0.40384 v 0.40384 l -1.21152,1.21152 v 0.80767 l -0.40384,0.40384 -0.40384,-0.40384 v -0.80767 h -0.40384 l 0.40384,0.40383 -0.40384,0.40384 h -4.44223 l -0.40384,-0.40384 v -1.21151 l -0.80768,-0.80768 h -1.61536 z m -80.36404,-2.0192 0.80767,0.80768 -2.42303,2.42304 h -0.40384 l -0.40384,0.40384 -0.40384,-0.40384 -0.40384,0.40384 0.40384,0.40384 -0.40384,0.40383 h -1.61536 l -0.40384,0.40384 v 0.40384 l -1.61535,1.61536 v 0.40384 l -0.80768,0.80768 v 0.80768 l 0.40384,0.40384 v 0.40384 l -0.40384,0.40384 v 0.40384 l -0.40384,0.40384 v 0.40384 l -0.40384,0.40383 v 0.40384 l -0.40384,0.40384 v 0.40384 l -0.40384,0.40384 -0.40384,-0.40384 0.40384,0.40384 v 0.40384 l -0.40384,0.40384 h -1.21152 l -0.40384,-0.40384 0.40384,-0.40384 v -0.40384 l 0.40384,-0.40384 v -0.40384 l 0.40384,-0.40384 v -0.40383 l 0.40384,-0.40384 v -0.40384 l 0.40384,-0.40384 v -0.40384 l 0.40384,-0.40384 v -0.80768 l 0.40384,-0.40384 v -0.40384 l 0.40384,-0.40384 v -0.40384 l 1.21152,-1.21152 v -0.40384 l 2.42303,-2.42303 h 0.40384 l 1.61536,-1.61536 h 0.40384 l 0.80768,-0.80768 h 0.40384 l 0.40384,-0.40384 z m 66.22966,0 1.21152,-1.21152 h 3.23072 l 0.40384,0.40384 h 2.82687 l 0.40384,0.40384 h 0.80768 l 0.80768,0.80768 v 0.80768 l 0.80768,0.80768 -0.40384,0.40384 h -0.40384 v 1.21152 l -0.40384,0.40384 h -0.80768 l -0.40384,-0.40384 h -3.63455 l -0.40384,-0.40384 v -1.21152 l -0.80768,-0.80768 h -0.40384 l -0.40384,-0.40384 h -2.0192 l -0.40384,-0.40384 z m -22.61501,-1.21152 0.40384,-0.40384 v -0.40384 l 0.40384,-0.40384 0.40384,0.40384 0.40384,-0.40384 h 1.61536 l 0.40384,0.40384 0.40384,-0.40384 h 0.40384 l 0.80768,-0.80767 h 0.40384 l 0.40384,-0.40384 h 0.40383 l 0.40384,-0.40384 h 0.80768 l 0.40384,0.40384 h 2.82688 l 0.40384,0.40384 h 2.0192 l 0.40383,0.40384 h 1.21152 l 0.40384,0.40383 h 0.40384 l 0.40384,0.40384 v 0.40384 h 0.40384 v -0.40384 l 0.40384,-0.40384 0.40384,0.40384 v 0.40384 l 0.40384,0.40384 v 2.0192 l 0.40384,0.40384 v 0.40384 l -0.40384,0.40384 h -2.42304 l -0.40384,-0.40384 h -2.01919 l -0.40384,-0.40384 v -0.40384 l 0.40384,-0.40384 v -0.80768 l -0.40384,-0.40384 h -0.40384 l -0.40384,-0.40384 h -2.0192 l -0.40384,-0.40384 h -1.61536 l -0.40384,-0.40384 h -0.80768 l -0.40383,-0.40384 0.40383,0.40384 -0.80767,0.80768 v 0.80768 l -0.40384,0.40384 h -0.80768 l -0.40384,-0.40384 0.40384,-0.40384 h 0.40384 v -0.40384 l -0.80768,0.80768 h -2.0192 l -0.40384,-0.40384 h -1.21152 z m -157.09353,-3.63455 1.21151,1.21152 v 0.40384 l 0.80768,0.80767 v 0.40384 l 1.21152,1.21152 v 0.40384 l 0.80768,0.80768 v 0.40384 l 1.21152,1.21152 v 0.40384 l 0.40384,0.40384 v 0.40384 l 0.80768,0.80768 v 0.40383 l 0.40384,0.40384 v 0.40384 l 0.80768,0.80768 v 0.40384 l 0.40383,0.40384 v 0.40384 l 0.40384,0.40384 v 0.40384 l 0.40384,0.40384 v 0.40384 l 0.80768,0.80768 v 0.40384 l 0.40384,0.40384 v 0.40384 l 0.40384,0.40384 v 0.80767 l 0.40384,0.40384 v 0.40384 l 0.40384,0.40384 v 0.80768 l -0.40384,0.40384 0.40384,-0.40384 0.80768,0.80768 v 0.80768 l 0.40384,0.40384 v 0.40384 l 0.40384,0.40384 v 0.80768 l 0.40384,0.40384 v 0.80767 l 0.40384,0.40384 v 0.40384 l 0.80768,0.80768 v 0.40384 l 0.80767,0.80768 v 0.40384 l 0.40384,0.40384 -0.40384,0.40384 0.40384,-0.40384 2.42304,2.42304 h 0.40384 l 1.21152,1.21151 h 0.40384 l 0.40384,0.40384 h 0.40384 l 0.40384,0.40384 h 0.40384 l 0.40383,0.40384 h 0.40384 l 0.40384,0.40384 -0.40384,0.40384 h -0.40384 l -0.40383,0.40384 h -0.80768 l -0.40384,-0.40384 h -0.40384 l -0.40384,-0.40384 h -0.40384 l -0.80768,-0.80768 0.40384,-0.40384 -0.40384,0.40384 h -0.40384 l -4.84607,-4.84607 v -0.40384 l -0.80768,-0.80768 v -0.40384 l -0.40384,-0.40384 v -0.80768 l -0.40384,-0.40384 v -0.40384 l -0.40384,-0.40383 v -0.40384 l -0.40384,-0.40384 v -0.80768 l -0.40384,-0.40384 V 178.377 l -0.40384,-0.40384 v -0.80768 l -0.40384,-0.40384 v -0.40384 l -0.40384,-0.40384 v -0.40384 l -0.40384,-0.40384 v -0.40384 l -0.40384,-0.40384 v -0.40383 l -0.40384,-0.40384 v -0.40384 l -0.40383,-0.40384 v -0.40384 l -0.40384,-0.40384 v -0.40384 l -0.40384,-0.40384 0.40384,-0.40384 v -0.40384 l -0.40384,0.40384 -0.40384,-0.40384 v -0.40384 l -0.80768,-0.80768 v -0.40384 l -0.40384,-0.40384 v -0.40384 l -0.80768,-0.80768 v -0.40383 l -0.80768,-0.80768 v -0.40384 L 122.179,165.0503 v -0.40384 l 0.40384,-0.40384 -0.40384,0.40384 -0.80768,-0.80768 v -0.40384 l -0.40384,-0.40384 0.40384,-0.40384 -0.40384,0.40384 -0.80768,-0.80768 v -0.40384 l -1.21151,-1.21152 v -0.40384 l -1.21152,-1.21151 z m 145.78603,-0.40384 0.40384,-0.40384 v -0.40384 l 0.40384,-0.40384 h 0.40384 l 0.40384,-0.40384 h 0.80768 l 0.40384,0.40384 h 2.01919 l 0.40384,0.40384 h 2.82688 l 0.40384,0.40384 h 1.21152 l 1.21151,1.21152 v 0.80768 l -0.40383,0.40384 h -2.82688 l -0.40384,-0.40384 -0.40384,0.40384 h -0.80768 l -1.21152,1.21151 h -2.01919 l -0.40384,-0.40384 v -0.40383 l 0.40384,-0.40384 -0.40384,-0.40384 v -0.80768 h -0.40384 l -0.40384,-0.40384 h -1.21152 z m -19.78813,-0.40384 v 1.21152 l -0.80768,0.80768 h -1.21152 l -0.40384,0.40384 h -1.21152 l -0.40384,0.40384 h -0.80768 l -0.40383,0.40383 h -0.40384 l -0.40384,-0.40383 v -0.40384 h -0.40384 l -0.40384,-0.40384 h -0.40384 l -0.40384,0.40384 h -0.40384 l -0.40384,-0.40384 0.80768,-0.80768 h 0.40384 -0.40384 l -0.40384,0.40384 h -0.40384 l -0.40384,0.40384 v 0.80768 l -0.80768,0.80767 h -0.40384 l -0.40384,-0.40384 0.40384,-0.40383 v -0.40384 l 0.40384,-0.40384 v -0.40384 l 1.21152,-1.21152 h 0.80768 l 0.40384,-0.40384 h 1.21152 l 0.40384,-0.40384 h 0.80767 l 0.40384,-0.40384 h 2.0192 l 0.40384,-0.40384 h 0.40384 l 0.80768,0.80768 h 0.40384 z m 1.61536,-1.21152 1.21151,-1.21152 h 0.80768 l 0.40384,-0.40384 h 6.86527 l 0.40384,0.40384 h 2.42304 l 0.80768,0.80768 v 0.40384 l 0.40384,0.40384 v 0.40384 l 0.40384,0.40384 v 0.40384 h 0.40384 l 0.40384,0.40384 -1.21152,1.21152 h -0.80768 l -0.40384,-0.40384 h -2.82688 l -0.40384,-0.40384 h -2.82687 l -0.40384,-0.40384 0.40384,-0.40384 v -0.40384 l -0.40384,-0.40384 v -0.40384 h -5.24991 z m -132.86318,-2.42304 h 0.40384 l 0.40384,-0.40384 3.23072,3.23072 v 0.40384 l 1.21152,1.21152 -0.40384,0.40384 h -0.40384 v 0.40384 l -0.40384,0.40384 -0.40384,-0.40384 v -0.40384 l -4.0384,-4.0384 v -0.40384 z m 119.53647,-3.23071 -0.40384,0.40384 h -0.40383 l -0.40384,0.40384 h -1.21152 l -0.40384,-0.40384 0.40384,0.40384 -0.40384,0.40384 h -0.80768 l -0.40384,0.40384 h -0.80768 l -0.80768,0.80768 -0.40384,-0.40384 -0.40384,0.40384 -0.40384,-0.40384 v -0.40384 l 1.21152,-1.21152 h 0.80768 l 0.40384,-0.40384 h 0.80768 l 0.40384,-0.40384 h 0.80768 l 0.40384,-0.40384 h 0.80768 l 0.40384,0.40384 h 0.40383 z m 272.59162,-0.80768 0.80768,-0.80768 h 0.40384 l 0.40384,0.40384 h 0.40384 l 0.40384,0.40384 h 0.40384 l 0.40383,0.40384 h 0.40384 l 0.40384,0.40384 -0.80768,0.80768 h -0.40383 l -0.40384,-0.40384 h -0.40384 l -0.40384,-0.40384 h -0.40384 l -0.40384,-0.40384 h -0.40384 z m -273.80313,0 0.40384,-0.40384 h 0.80767 l 0.40384,-0.40384 h 0.80768 l 0.40384,0.40384 h 0.40384 l 0.40384,0.40384 -0.40384,0.40384 h -0.80768 l -0.40384,0.40384 h -0.80768 L 232.831,149.7044 h -0.40383 z m -123.57487,0 0.40384,-0.40384 h 0.40384 l 0.40384,-0.40384 0.40384,0.40384 h 0.40384 l 2.82687,2.82688 -0.40384,0.40384 h -0.40383 l -0.40384,0.40384 h -0.40384 z m -3.23071,-2.42304 0.40384,-0.40384 h 0.40384 l 0.80767,0.80768 h 0.40384 l 0.80768,0.80768 -0.40384,-0.40384 0.40384,-0.40384 h 0.40384 l 1.21152,1.21152 -0.40384,0.40384 h -0.40384 l -0.40384,0.40384 h -0.40384 l -1.21152,-1.21152 h -0.40384 z m 129.63245,1.61536 8.48063,-3.23071 258.86107,1.21151 4.44224,2.0192 -1.21152,0.80768 -4.03839,-2.0192 -100.95986,0.40384 -71.88342,-0.40384 -1.21152,-0.80768 -84.40244,0.40384 -6.46143,2.42304 z m -134.47853,-5.65375 0.40384,-0.40384 h 0.40384 l 0.40384,0.40384 h 0.40384 l 0.80768,0.80768 h 0.40384 l 0.80768,0.80768 h 0.40384 l 0.80768,0.80768 -0.40384,0.40384 h -0.40384 l -0.40384,-0.40384 0.40384,0.40384 -0.40384,0.40383 h -0.40384 l -0.80768,-0.80767 h -0.40384 l -0.40384,-0.40384 h -0.40384 l -0.80768,-0.80768 0.40384,-0.40384 h 0.40384 -0.40384 z m -4.442229,-1.21152 0.403839,-0.40384 h 0.40384 l -0.40384,-0.40384 0.40384,-0.40384 h 0.403839 l 0.403839,0.40384 h 0.40384 l 0.403839,0.40384 h 0.40384 l 0.403839,0.40384 -0.403839,0.40384 h -0.40384 0.40384 l 0.403839,0.40384 -0.403839,-0.40384 0.403839,-0.40384 h 0.40384 l 0.403839,0.40384 h 0.403835 l 0.40384,0.40384 -0.40384,0.40384 h -0.403835 l 0.403835,0.40384 -0.403835,0.40384 h -0.403839 l -0.40384,-0.40384 h -0.403839 l -0.40384,-0.40384 h -0.403839 l -0.40384,-0.40384 h -0.403839 l -0.403839,-0.40384 h -0.40384 z m -2.019197,-0.80768 0.403839,-0.40384 h 0.403839 l -0.403839,-0.40384 0.403839,-0.40384 h 0.807679 l 0.40384,0.40384 h 0.403839 l 0.40384,0.40384 -0.40384,0.40384 v 0.40384 l -0.403839,0.40384 h -0.40384 l -0.403839,-0.40384 h -0.807679 z m -7.26911,-2.42303 0.403839,-0.40384 h 0.40384 l -0.40384,-0.40384 0.40384,-0.40384 h 1.211518 l 0.403839,0.40384 h 0.807679 l 0.40384,0.40384 h 0.807679 l 0.403839,0.40384 h 0.807679 l 0.403839,0.40383 h 0.807679 l 0.40384,0.40384 h 0.403839 l 0.403839,0.40384 -0.403839,0.40384 h -0.807679 l -0.403839,0.40384 h -0.807679 l -0.40384,-0.40384 0.40384,-0.40384 h 0.403839 -0.403839 l -0.40384,-0.40384 h -0.403839 0.403839 l 0.40384,0.40384 -0.40384,0.40384 h -0.807678 l -0.40384,-0.40384 h -0.807679 l -0.403839,-0.40384 0.403839,-0.40384 h 0.40384 -0.40384 l -0.403839,0.40384 h -0.807679 l -0.403839,-0.40384 h -1.211519 z m -33.114833,0.80767 0.403839,-0.40384 h 0.807679 l 0.403839,-0.40383 h 0.807679 l 0.40384,-0.40384 h 1.211518 l 0.403839,0.40384 -0.403839,-0.40384 0.403839,-0.40384 h 0.807679 l 0.40384,-0.40384 h 1.211518 l 0.403839,0.40384 h 0.807679 -0.807679 l -0.403839,-0.40384 0.403839,-0.40384 h 1.211519 l 0.403839,-0.40384 h 2.019197 l 0.40384,0.40384 h 1.615357 -1.615357 l -0.40384,-0.40384 0.40384,-0.40384 h 2.423036 l 0.40384,-0.40384 h 12.115183 l 0.403839,0.40384 h 2.826876 l 0.403839,0.40384 -0.403839,0.40384 h -1.615358 1.615358 l 0.403839,-0.40384 h 2.019198 l 0.403839,0.40384 h 1.211518 l 0.40384,0.40384 -0.40384,0.40384 h -0.807679 0.40384 l 0.403839,0.40384 -0.403839,0.40384 h -1.615358 l -0.403839,-0.40384 h -1.211519 l -0.403839,-0.40384 h -2.423037 l -0.403839,-0.40384 H 75.33363 l -0.40384,-0.40384 h -1.615357 l -0.40384,-0.40384 h -0.403839 l -0.807679,0.80768 H 68.06452 l -0.403839,0.40384 h -2.826876 l -0.40384,0.40384 h -2.019197 l -0.403839,0.40384 h -1.615358 l -0.40384,-0.40384 0.40384,0.40384 -0.40384,0.40383 h -0.807678 l -0.40384,0.40384 h -1.211518 l -0.40384,0.40384 h -0.807678 l -0.40384,0.40384 h -0.807679 l -0.403839,-0.40384 H 53.93014 Z m 192.631409,-57.345196 0.40384,0.40384 v 0.403839 l 0.40384,0.40384 v 0.807679 l -0.40384,0.403839 v 0.807679 l -0.40384,0.403839 v 0.807679 l -0.40384,0.40384 v 0.403839 l -0.40384,0.403839 v 0.807679 l -0.40384,0.40384 v 0.807679 l -0.40384,0.403839 v 0.403839 l -0.40384,0.40384 h -0.80768 l -0.40384,-0.40384 v -0.807678 l 0.40384,-0.40384 v -0.807679 l 0.40384,-0.403839 v -0.40384 l 0.40384,-0.403839 v -0.807679 l 0.40384,-0.403839 v -0.40384 l 0.40384,-0.403839 0.40384,0.403839 -0.40384,-0.403839 v -0.807679 l 0.40384,-0.403839 v -0.807679 l 0.40384,-0.40384 v -0.403839 z m 1.21151,-3.230715 0.40384,0.403839 v 0.40384 l 0.40384,0.403839 v 0.807679 l -0.40384,0.40384 v 0.807678 l -0.40384,0.40384 v 0.403839 l -0.40383,0.40384 -0.40384,-0.40384 v -0.403839 l -0.40384,-0.40384 v -0.807678 l 0.40384,-0.40384 v -0.807679 l 0.40384,-0.403839 v -0.40384 z m 235.43839,-0.807679 0.40384,-0.403839 h 13.73054 l 0.40384,0.403839 v 1.211518 l -0.80768,0.807679 h -2.42303 l -0.40384,-0.403839 h -1.21152 l -0.40384,0.403839 h -8.48063 l -0.80768,-0.807679 z m -58.55672,0 0.40384,-0.403839 h 13.73054 l 0.40384,0.403839 v 1.211518 l -0.80768,0.807679 h -3.23071 l -0.40384,-0.403839 h -2.42304 L 431.52,79.840177 h -2.42303 l -0.40384,-0.403839 h -1.21152 l -0.40384,0.403839 h -2.0192 l -0.80768,-0.807679 z m -58.55671,0.40384 0.80768,-0.807679 h 13.3267 l 0.40384,0.403839 v 1.615358 l -0.40384,0.403839 h -13.3267 l -0.80768,-0.807679 0.40384,-0.403839 z m -58.15288,-0.40384 0.40384,-0.403839 h 13.3267 l 0.40384,0.403839 v 1.615358 l -0.40384,0.403839 h -13.3267 l -0.40384,-0.403839 z m -54.92216,-11.307504 0.40384,0.403839 -0.40384,0.40384 h -0.40384 0.40384 l 0.40384,0.403839 v 0.40384 l -0.80768,0.807679 v 0.807678 l -0.40384,0.40384 v 0.807679 l -0.40384,0.403839 v 0.807679 l -0.40384,0.403839 v 0.807679 l -0.40384,0.40384 v 0.403839 l -0.40384,0.40384 v 0.807679 l -0.40384,0.403839 v 0.807679 l -0.40384,0.403839 v 0.40384 l -0.40384,0.403839 v 0.807679 l -0.40384,0.403839 v 0.40384 l -0.40384,0.403839 -0.40384,-0.403839 v -0.40384 l -0.40384,-0.403839 V 77.82098 l 0.40384,-0.403839 v -0.40384 l 0.40384,-0.403839 0.40384,0.403839 -0.40384,-0.403839 v -0.807679 l 0.40384,-0.403839 v -0.807679 l 0.40384,-0.40384 v -0.403839 l 0.40384,-0.40384 v -0.807679 l 0.40384,-0.403839 v -0.807679 l 0.40384,-0.403839 v -0.807679 l 0.40384,-0.40384 v -0.807678 l 0.40384,-0.40384 v -0.403839 l 0.40384,-0.40384 v -0.807679 l 0.40384,-0.403839 z m -6.86527,1.211518 v 1.615358 l -0.80768,1.211518 v 0.807679 l -0.40384,0.40384 v 0.807678 l -0.80768,1.211519 v 0.807679 l -0.40384,0.403839 v 0.807679 l -0.80768,1.211518 v 0.807679 l -0.40384,0.40384 v 0.807678 l -0.80768,1.211519 v 0.807679 l -0.40384,0.403839 v 0.807679 l -0.40384,0.403839 v 0.40384 l -0.40384,0.403839 v 0.807679 l -0.80767,1.211518 v 0.807679 l -0.40384,0.40384 v 0.807678 l -0.40384,0.40384 v 0.807679 l -0.40384,0.403839 v 0.40384 l -0.80768,0.807678 h -0.80768 l -0.40384,0.40384 h -9.28831 l -0.40384,0.403839 h -14.13438 l -5.24991,-5.249912 v -0.40384 l -2.0192,-2.019197 h -0.40384 l -0.40383,-0.403839 h -0.80768 l -1.21152,1.211518 v 1.615358 l 0.80768,0.807679 v 0.403839 l -0.40384,0.403839 h -0.80768 l -0.40384,0.40384 h -1.21152 l -0.40384,0.403839 h -0.80768 l -0.40384,0.40384 h -0.80768 l -0.40383,0.403839 h -0.80768 l -0.40384,0.40384 h -1.21152 l -0.40384,0.403839 h -0.80768 l -0.40384,0.403839 h -0.80768 l -0.40384,0.40384 h -0.80768 l -0.40384,-0.40384 v -1.615357 l 0.40384,-0.40384 v -0.807679 l 0.40384,-0.403839 v -0.807679 l 1.21152,-2.019197 v -0.807679 l 0.80768,-1.211518 v -0.807679 l 0.40384,-0.403839 v -0.807679 l 0.40384,-0.40384 v -0.403839 l 0.80768,-1.211518 v -0.807679 l 0.80768,-1.211519 v -0.807678 l 0.40384,-0.40384 v -0.807679 l 0.80768,-1.211518 v -0.807679 l 1.21151,-2.019197 v -0.807679 l 0.40384,-0.403839 0.40384,-1.211519 0.80768,-0.807679 h 0.40384 l 0.40384,-0.403839 h 5.65375 l 0.40384,-0.403839 h 20.19197 l 0.40384,-0.40384 h 16.55742 l 1.21152,1.211518 v 0.40384 z m 75.51797,-35.941709 0.40384,-0.403839 h 4.44223 l 0.80768,0.807679 -0.40384,0.403839 h -4.84607 l -0.40384,-0.403839 z m 41.59546,-0.403839 0.40384,-0.40384 h 2.0192 l 0.40384,0.40384 v 0.807679 l -0.40384,0.403839 v 0.403839 l -0.40384,0.40384 -0.80768,-0.807679 0.40384,-0.403839 h -0.80768 l 0.40384,0.403839 -0.40384,0.403839 h -0.40384 l -0.40384,-0.403839 z"
     fill="#000000"
     fill-rule="evenodd"
     id="path2"
     style="stroke-width:0.403839" />
</svg>
