<svg xmlns="http://www.w3.org/2000/svg" width="1448" height="1086" viewBox="0 0 1448 1086">
<rect width="100%" height="100%" fill="white"/>
<path d="M 1351,622 L 1350,623 L 1349,623 L 1348,624 L 1347,624 L 1347,625 L 1346,626 L 1347,627 L 1347,628 L 1348,629 L 1348,630 L 1349,631 L 1351,631 L 1352,630 L 1357,630 L 1361,634 L 1361,643 L 1360,644 L 1360,645 L 1359,646 L 1358,645 L 1359,646 L 1357,648 L 1352,648 L 1351,647 L 1349,647 L 1345,651 L 1345,652 L 1348,655 L 1349,655 L 1350,656 L 1360,656 L 1361,655 L 1362,655 L 1363,654 L 1364,654 L 1368,650 L 1368,649 L 1369,648 L 1369,647 L 1370,646 L 1370,644 L 1371,643 L 1371,636 L 1370,635 L 1370,632 L 1369,631 L 1369,630 L 1367,628 L 1367,627 L 1364,624 L 1363,624 L 1362,623 L 1360,623 L 1359,622 Z" fill="black" fill-rule="evenodd"/>
<path d="M 1371,423 L 1344,421 L 1333,398 L 977,399 L 965,371 L 880,371 L 863,335 L 905,327 L 915,334 L 933,313 L 946,337 L 946,281 L 939,296 L 918,299 L 823,296 L 819,289 L 809,303 L 618,306 L 618,314 L 815,319 L 818,334 L 841,335 L 829,371 L 792,372 L 790,404 L 728,405 L 717,393 L 672,393 L 674,379 L 660,374 L 523,376 L 481,466 L 472,465 L 478,427 L 469,416 L 461,468 L 201,492 L 190,473 L 162,547 L 161,570 L 169,572 L 153,577 L 158,542 L 142,525 L 130,529 L 129,569 L 144,582 L 111,614 L 134,623 L 105,624 L 87,580 L 76,580 L 76,649 L 86,656 L 116,649 L 127,672 L 134,662 L 126,650 L 183,619 L 229,614 L 269,628 L 296,653 L 296,662 L 263,630 L 226,619 L 184,624 L 145,648 L 125,691 L 127,741 L 157,784 L 198,804 L 250,800 L 294,766 L 311,721 L 297,661 L 317,715 L 436,715 L 454,702 L 385,696 L 554,697 L 555,663 L 592,604 L 559,666 L 580,665 L 578,702 L 593,732 L 621,752 L 751,793 L 1072,799 L 1241,783 L 1278,763 L 1299,731 L 1296,678 L 1271,647 L 1300,677 L 1308,673 L 1307,653 L 1319,650 L 1294,598 L 1325,656 L 1348,644 L 1348,633 L 1333,629 L 1333,578 L 1371,499 Z M 1054,756 L 1055,755 L 1055,754 L 1056,753 L 1056,752 L 1058,750 L 1071,750 L 1073,752 L 1073,753 L 1074,754 L 1074,755 L 1075,756 L 1075,758 L 1074,759 L 1073,759 L 1072,760 L 1057,760 L 1056,759 L 1055,759 L 1054,758 Z M 919,757 L 920,756 L 920,754 L 921,753 L 921,752 L 923,750 L 936,750 L 937,751 L 937,752 L 939,754 L 939,756 L 940,757 L 940,758 L 938,760 L 922,760 L 921,759 L 920,759 L 919,758 Z M 784,757 L 785,756 L 785,755 L 786,754 L 786,753 L 787,752 L 787,751 L 788,750 L 801,750 L 804,753 L 804,755 L 805,756 L 805,757 L 806,758 L 805,759 L 803,759 L 802,760 L 787,760 L 786,759 L 785,759 L 784,758 Z M 1211,747 L 1212,746 L 1212,745 L 1213,744 L 1213,742 L 1214,741 L 1214,740 L 1215,739 L 1215,738 L 1216,737 L 1218,737 L 1219,738 L 1228,738 L 1230,740 L 1230,741 L 1231,742 L 1231,744 L 1232,745 L 1232,746 L 1233,747 L 1233,748 L 1231,750 L 1224,750 L 1223,751 L 1220,751 L 1219,750 L 1215,750 L 1214,749 L 1212,749 L 1211,748 Z M 1098,738 L 1100,740 L 1100,742 L 1097,745 L 1097,746 L 1092,751 L 1091,751 L 1089,753 L 1088,753 L 1087,754 L 1085,754 L 1083,752 L 1083,751 L 1082,750 L 1082,745 L 1083,744 L 1084,744 L 1092,736 L 1093,737 L 1095,737 L 1096,738 Z M 1031,738 L 1032,738 L 1033,737 L 1036,737 L 1037,736 L 1038,736 L 1039,737 L 1039,738 L 1046,745 L 1047,745 L 1048,746 L 1047,747 L 1047,749 L 1046,750 L 1046,751 L 1045,752 L 1045,753 L 1044,754 L 1043,754 L 1042,753 L 1043,752 L 1042,753 L 1041,753 L 1040,752 L 1039,752 L 1030,743 L 1030,742 L 1029,741 L 1029,740 Z M 955,775 L 956,774 L 958,774 L 960,772 L 961,772 L 962,771 L 963,771 L 965,769 L 966,769 L 968,767 L 969,767 L 979,757 L 979,756 L 982,753 L 982,752 L 983,751 L 983,750 L 985,748 L 985,746 L 986,745 L 986,744 L 987,743 L 987,742 L 988,741 L 988,739 L 989,738 L 989,737 L 990,736 L 994,736 L 995,737 L 999,737 L 1000,736 L 1005,736 L 1006,737 L 1006,739 L 1007,740 L 1007,742 L 1008,743 L 1008,744 L 1009,745 L 1009,747 L 1011,749 L 1011,750 L 1012,751 L 1012,752 L 1014,754 L 1014,755 L 1017,758 L 1017,759 L 1024,766 L 1025,766 L 1028,769 L 1029,769 L 1031,771 L 1032,771 L 1033,772 L 1034,772 L 1036,774 L 1038,774 L 1039,775 L 1038,776 L 1037,776 L 1036,777 L 1026,777 L 1025,776 L 1009,776 L 1008,777 L 997,777 L 996,776 L 980,776 L 979,777 L 968,777 L 967,776 L 956,776 Z M 964,739 L 965,740 L 965,742 L 961,746 L 961,747 L 959,749 L 958,749 L 954,753 L 953,753 L 952,754 L 950,754 L 948,752 L 948,750 L 947,749 L 947,746 L 948,745 L 949,746 L 948,745 L 957,736 L 958,736 L 959,737 L 960,737 L 961,738 L 962,738 L 963,739 Z M 896,738 L 898,738 L 899,737 L 901,737 L 902,736 L 911,745 L 910,746 L 911,745 L 912,745 L 913,746 L 912,747 L 912,749 L 911,750 L 911,751 L 910,752 L 910,753 L 909,754 L 907,754 L 906,753 L 905,753 L 902,750 L 901,750 L 898,747 L 898,746 L 895,743 L 895,742 L 894,741 L 894,740 Z M 819,776 L 820,775 L 821,775 L 822,774 L 823,774 L 824,773 L 825,773 L 826,772 L 827,772 L 828,773 L 827,772 L 829,770 L 830,770 L 832,768 L 833,768 L 839,762 L 840,762 L 840,761 L 845,756 L 845,755 L 847,753 L 847,752 L 849,750 L 849,749 L 850,748 L 850,747 L 851,746 L 852,747 L 851,746 L 851,744 L 852,743 L 852,742 L 853,741 L 853,739 L 854,738 L 854,737 L 855,736 L 859,736 L 860,737 L 864,737 L 865,736 L 870,736 L 871,737 L 871,739 L 872,740 L 872,742 L 873,743 L 873,745 L 875,747 L 875,748 L 876,749 L 876,750 L 877,751 L 877,752 L 879,754 L 879,755 L 882,758 L 882,759 L 888,765 L 889,765 L 893,769 L 894,769 L 896,771 L 897,771 L 898,772 L 899,772 L 900,773 L 901,773 L 902,774 L 903,774 L 904,775 L 903,776 L 890,776 L 889,777 L 877,777 L 876,776 L 859,776 L 858,777 L 843,777 L 842,776 L 826,776 L 825,777 L 820,777 Z M 828,738 L 830,740 L 830,742 L 828,744 L 828,745 L 821,752 L 820,752 L 819,753 L 818,753 L 817,752 L 816,752 L 815,753 L 813,751 L 813,750 L 812,749 L 812,746 L 814,744 L 815,744 L 820,739 L 820,738 L 822,736 L 823,736 L 824,737 L 826,737 L 827,738 Z M 762,738 L 763,738 L 764,737 L 767,737 L 768,736 L 771,739 L 771,740 L 774,743 L 775,743 L 777,745 L 776,746 L 776,747 L 776,746 L 777,745 L 778,746 L 778,748 L 777,749 L 777,750 L 776,751 L 775,750 L 775,749 L 775,750 L 774,751 L 774,752 L 775,753 L 774,754 L 773,754 L 772,753 L 771,753 L 770,752 L 769,752 L 762,745 L 762,744 L 761,743 L 761,742 L 760,741 L 760,740 Z M 1203,764 L 1202,765 L 1196,765 L 1195,766 L 1192,766 L 1191,767 L 1186,767 L 1185,768 L 1183,768 L 1182,767 L 1180,767 L 1179,768 L 1171,768 L 1170,769 L 1166,769 L 1165,770 L 1160,770 L 1159,771 L 1152,771 L 1151,770 L 1150,771 L 1144,771 L 1143,772 L 1136,772 L 1133,774 L 1126,774 L 1125,775 L 1122,775 L 1121,774 L 1119,774 L 1118,775 L 1107,775 L 1104,777 L 1092,777 L 1090,775 L 1091,774 L 1092,774 L 1093,773 L 1094,773 L 1095,772 L 1096,772 L 1098,770 L 1099,770 L 1100,769 L 1101,769 L 1105,765 L 1106,765 L 1111,760 L 1111,759 L 1115,755 L 1115,754 L 1117,752 L 1117,751 L 1118,750 L 1118,749 L 1120,747 L 1120,746 L 1122,743 L 1122,741 L 1123,740 L 1123,738 L 1125,736 L 1135,736 L 1136,735 L 1137,735 L 1138,734 L 1139,734 L 1143,730 L 1143,729 L 1144,728 L 1164,728 L 1166,730 L 1166,731 L 1167,732 L 1167,733 L 1168,734 L 1168,735 L 1169,736 L 1169,737 L 1170,738 L 1170,739 L 1172,741 L 1172,742 L 1183,753 L 1182,754 L 1183,753 L 1185,755 L 1186,755 L 1188,757 L 1189,757 L 1191,759 L 1192,759 L 1193,760 L 1194,760 L 1197,762 L 1196,763 L 1195,763 L 1196,763 L 1197,762 L 1198,762 L 1199,763 L 1202,763 Z M 1250,724 L 1251,725 L 1253,725 L 1254,726 L 1255,726 L 1256,727 L 1257,727 L 1259,729 L 1260,729 L 1261,730 L 1260,731 L 1258,731 L 1259,731 L 1260,732 L 1256,736 L 1256,737 L 1252,741 L 1251,741 L 1249,743 L 1248,743 L 1247,742 L 1247,741 L 1246,741 L 1245,742 L 1244,741 L 1244,740 L 1243,739 L 1243,738 L 1242,737 L 1242,735 L 1241,734 L 1241,733 L 1242,732 L 1243,733 L 1242,732 Z M 1186,728 L 1188,728 L 1190,726 L 1191,726 L 1192,725 L 1194,725 L 1195,724 L 1197,724 L 1202,729 L 1202,730 L 1204,732 L 1204,734 L 1203,735 L 1203,737 L 1202,738 L 1202,739 L 1201,740 L 1201,741 L 1199,743 L 1198,743 L 1195,740 L 1194,740 L 1188,734 L 1188,733 L 1186,731 L 1186,730 L 1185,729 Z M 628,726 L 630,724 L 631,725 L 632,724 L 631,725 L 630,724 L 630,723 L 631,722 L 632,722 L 632,721 L 634,719 L 634,718 L 635,717 L 636,717 L 637,718 L 641,718 L 642,719 L 642,725 L 643,725 L 644,726 L 655,726 L 656,725 L 656,722 L 657,721 L 657,720 L 659,718 L 661,718 L 662,717 L 664,717 L 667,720 L 667,721 L 668,721 L 670,723 L 669,724 L 669,725 L 669,724 L 670,723 L 671,724 L 671,726 L 670,727 L 668,727 L 667,728 L 666,728 L 665,729 L 662,729 L 661,730 L 657,730 L 656,731 L 642,731 L 641,730 L 637,730 L 636,729 L 634,729 L 633,728 L 631,728 L 630,727 L 629,727 Z M 1104,708 L 1105,708 L 1106,709 L 1106,713 L 1107,714 L 1107,724 L 1106,725 L 1106,728 L 1105,729 L 1103,729 L 1102,728 L 1103,727 L 1102,726 L 1101,726 L 1100,725 L 1101,726 L 1100,727 L 1099,727 L 1096,724 L 1097,723 L 1097,713 L 1101,709 L 1103,709 Z M 1025,708 L 1026,709 L 1028,709 L 1030,711 L 1031,711 L 1033,713 L 1033,715 L 1032,716 L 1032,723 L 1033,724 L 1033,725 L 1032,726 L 1031,726 L 1029,728 L 1027,728 L 1026,727 L 1026,726 L 1026,727 L 1027,728 L 1026,729 L 1025,729 L 1024,728 L 1024,727 L 1023,726 L 1023,711 L 1024,710 L 1024,709 Z M 969,708 L 970,708 L 971,709 L 971,714 L 972,715 L 972,723 L 971,724 L 971,729 L 970,730 L 969,730 L 967,728 L 966,728 L 965,727 L 964,727 L 962,725 L 962,713 L 964,711 L 965,711 L 967,709 L 968,709 Z M 890,708 L 891,709 L 893,709 L 895,711 L 896,711 L 898,713 L 898,716 L 897,717 L 897,720 L 898,721 L 898,724 L 894,728 L 892,728 L 891,729 L 889,729 L 888,728 L 888,723 L 887,722 L 887,715 L 888,714 L 888,710 Z M 834,708 L 835,708 L 836,709 L 836,711 L 837,712 L 837,725 L 836,726 L 836,728 L 835,729 L 834,729 L 833,728 L 834,727 L 834,726 L 831,726 L 829,724 L 828,725 L 827,724 L 827,713 L 830,710 L 831,710 L 832,709 L 833,709 Z M 756,708 L 757,709 L 758,709 L 759,710 L 760,710 L 762,712 L 763,712 L 764,713 L 763,714 L 763,725 L 762,726 L 761,725 L 761,724 L 761,725 L 762,726 L 761,727 L 760,727 L 759,728 L 758,728 L 757,727 L 758,726 L 756,726 L 756,727 L 755,728 L 754,727 L 754,724 L 753,723 L 753,716 L 754,715 L 754,710 Z M 693,702 L 694,703 L 693,704 L 693,705 L 692,706 L 692,707 L 691,708 L 691,709 L 690,710 L 690,711 L 681,720 L 680,720 L 679,721 L 678,720 L 677,720 L 676,721 L 675,720 L 675,719 L 674,718 L 674,717 L 673,716 L 673,715 L 674,714 L 673,715 L 671,713 L 673,711 L 674,711 L 676,713 L 679,713 L 683,709 L 683,708 L 684,707 L 684,706 L 683,705 L 683,703 L 682,702 L 682,701 L 684,699 L 685,700 L 688,700 L 689,701 L 691,701 L 692,702 Z M 607,702 L 608,702 L 609,701 L 611,701 L 612,700 L 614,700 L 615,699 L 616,700 L 616,701 L 617,702 L 617,703 L 615,705 L 615,708 L 617,710 L 617,711 L 618,711 L 620,713 L 623,713 L 624,712 L 625,713 L 625,714 L 626,715 L 626,716 L 625,717 L 625,718 L 624,719 L 624,720 L 623,721 L 622,720 L 620,720 L 619,719 L 620,720 L 619,721 L 618,721 L 612,715 L 612,714 L 609,711 L 609,710 L 607,708 L 607,707 L 606,706 L 606,705 L 605,704 Z M 1265,694 L 1266,694 L 1267,695 L 1267,696 L 1268,697 L 1268,714 L 1267,715 L 1267,716 L 1266,717 L 1265,716 L 1264,716 L 1263,715 L 1264,714 L 1263,715 L 1261,715 L 1260,714 L 1259,714 L 1256,711 L 1256,709 L 1257,708 L 1257,703 L 1256,702 L 1256,699 L 1257,698 L 1258,698 L 1259,697 L 1260,697 L 1262,695 L 1264,695 Z M 1182,694 L 1183,695 L 1182,696 L 1182,697 L 1182,696 L 1183,695 L 1184,695 L 1185,696 L 1186,696 L 1187,697 L 1188,697 L 1189,698 L 1190,698 L 1191,699 L 1191,711 L 1189,713 L 1188,713 L 1187,714 L 1185,714 L 1184,715 L 1182,715 L 1181,716 L 1179,714 L 1179,697 L 1180,696 L 1180,695 L 1181,694 Z M 1084,684 L 1085,683 L 1086,683 L 1087,684 L 1088,684 L 1089,685 L 1088,686 L 1089,685 L 1090,685 L 1098,693 L 1098,694 L 1100,696 L 1100,698 L 1098,700 L 1096,700 L 1095,701 L 1092,701 L 1086,695 L 1085,695 L 1082,692 L 1082,689 L 1083,688 L 1083,686 L 1084,685 Z M 1044,683 L 1045,684 L 1045,686 L 1046,687 L 1046,688 L 1047,689 L 1047,692 L 1037,702 L 1036,701 L 1034,701 L 1033,700 L 1032,700 L 1031,699 L 1030,699 L 1029,698 L 1029,697 L 1030,696 L 1031,697 L 1030,696 L 1030,695 L 1031,694 L 1031,693 L 1033,691 L 1034,692 L 1033,691 L 1038,686 L 1039,686 L 1041,684 L 1042,684 L 1043,683 Z M 950,684 L 951,683 L 952,683 L 954,685 L 953,686 L 952,686 L 953,686 L 954,685 L 955,685 L 959,689 L 958,690 L 959,691 L 960,690 L 964,694 L 964,695 L 965,696 L 965,697 L 966,698 L 965,699 L 964,699 L 963,700 L 962,700 L 961,701 L 957,701 L 950,694 L 949,694 L 947,692 L 947,691 L 948,690 L 948,688 L 949,687 L 949,686 L 950,685 Z M 909,683 L 910,684 L 910,685 L 911,686 L 911,687 L 912,688 L 912,692 L 902,702 L 901,701 L 899,701 L 898,700 L 897,700 L 896,699 L 895,699 L 894,698 L 894,697 L 895,696 L 895,695 L 897,693 L 897,692 L 900,689 L 901,690 L 900,689 L 904,685 L 905,685 L 906,684 L 907,684 L 908,683 Z M 815,684 L 816,683 L 817,683 L 818,684 L 817,685 L 818,684 L 819,685 L 820,685 L 829,694 L 829,695 L 831,697 L 828,700 L 827,700 L 826,701 L 824,701 L 823,702 L 812,691 L 813,690 L 813,688 L 814,687 L 814,686 L 815,685 Z M 774,683 L 775,684 L 775,685 L 776,686 L 776,687 L 777,688 L 777,691 L 778,692 L 776,694 L 775,694 L 770,699 L 770,700 L 768,702 L 767,702 L 766,701 L 764,701 L 763,700 L 762,700 L 760,698 L 760,696 L 762,694 L 762,693 L 770,685 L 771,685 L 772,684 L 773,684 Z M 1054,679 L 1055,678 L 1058,678 L 1059,677 L 1071,677 L 1072,678 L 1074,678 L 1075,679 L 1075,681 L 1074,682 L 1074,683 L 1073,684 L 1073,686 L 1071,688 L 1070,688 L 1069,687 L 1058,687 L 1055,684 L 1055,682 L 1057,680 L 1058,680 L 1056,680 L 1056,681 L 1055,682 L 1054,681 Z M 919,680 L 919,679 L 920,678 L 921,678 L 922,677 L 937,677 L 938,678 L 940,678 L 941,679 L 940,680 L 940,682 L 939,683 L 939,684 L 937,686 L 937,687 L 936,688 L 935,687 L 925,687 L 924,688 L 922,686 L 922,685 L 921,684 L 921,683 L 920,682 L 920,681 Z M 784,679 L 785,678 L 787,678 L 788,677 L 802,677 L 803,678 L 805,678 L 806,679 L 805,680 L 805,681 L 804,682 L 804,684 L 803,685 L 803,686 L 801,688 L 800,687 L 790,687 L 789,688 L 787,686 L 787,685 L 786,684 L 786,683 L 785,682 L 785,680 Z M 1200,668 L 1201,669 L 1201,670 L 1202,671 L 1202,672 L 1203,673 L 1203,676 L 1204,677 L 1204,680 L 1197,687 L 1194,687 L 1193,686 L 1192,686 L 1191,685 L 1190,685 L 1188,683 L 1187,683 L 1186,682 L 1186,681 L 1187,680 L 1187,679 L 1190,676 L 1190,675 L 1192,673 L 1193,673 L 1197,669 L 1198,669 L 1199,668 Z M 1247,667 L 1248,668 L 1249,668 L 1251,670 L 1250,671 L 1251,670 L 1253,672 L 1254,672 L 1257,675 L 1257,676 L 1260,679 L 1260,680 L 1261,681 L 1258,684 L 1257,684 L 1256,685 L 1255,685 L 1254,686 L 1253,686 L 1252,687 L 1250,687 L 1247,684 L 1247,683 L 1245,681 L 1244,681 L 1242,679 L 1242,676 L 1243,675 L 1243,674 L 1244,673 L 1244,672 L 1245,671 L 1245,670 L 1246,669 L 1246,668 Z M 604,667 L 605,668 L 607,668 L 609,670 L 610,670 L 612,672 L 609,675 L 609,676 L 608,677 L 608,678 L 607,679 L 607,684 L 608,685 L 608,686 L 609,687 L 610,687 L 612,689 L 612,691 L 611,692 L 610,691 L 610,690 L 610,692 L 609,693 L 608,693 L 607,694 L 606,694 L 605,695 L 604,695 L 603,696 L 602,695 L 602,693 L 601,692 L 601,686 L 600,685 L 600,679 L 601,678 L 601,673 L 602,672 L 602,670 L 603,669 L 603,668 Z M 695,666 L 697,668 L 697,670 L 698,671 L 698,678 L 699,679 L 699,686 L 698,687 L 698,691 L 697,692 L 697,695 L 696,696 L 695,696 L 694,695 L 693,695 L 692,694 L 693,693 L 695,693 L 695,692 L 694,693 L 693,692 L 693,693 L 692,694 L 691,693 L 691,692 L 690,693 L 688,691 L 689,690 L 688,689 L 690,687 L 692,687 L 693,686 L 693,679 L 691,677 L 690,677 L 689,678 L 688,677 L 688,675 L 687,674 L 687,672 L 688,671 L 689,671 L 693,667 L 694,667 Z M 1212,663 L 1213,662 L 1215,662 L 1216,661 L 1231,661 L 1232,662 L 1234,662 L 1235,663 L 1233,665 L 1233,667 L 1232,668 L 1232,669 L 1231,670 L 1231,671 L 1230,672 L 1230,673 L 1229,674 L 1228,674 L 1227,673 L 1219,673 L 1218,672 L 1219,671 L 1217,671 L 1216,672 L 1215,671 L 1215,669 L 1214,668 L 1214,667 L 1215,666 L 1215,664 L 1215,666 L 1214,667 L 1213,666 L 1213,664 Z M 1086,661 L 1087,660 L 1095,660 L 1096,661 L 1112,661 L 1113,660 L 1128,660 L 1129,661 L 1144,661 L 1145,660 L 1160,660 L 1161,661 L 1178,661 L 1179,662 L 1177,664 L 1176,663 L 1165,663 L 1174,663 L 1176,665 L 1175,666 L 1175,667 L 1173,669 L 1173,670 L 1171,672 L 1171,673 L 1169,675 L 1169,676 L 1168,677 L 1168,678 L 1166,681 L 1166,683 L 1165,684 L 1165,685 L 1164,686 L 1163,685 L 1164,686 L 1164,689 L 1163,690 L 1163,693 L 1162,694 L 1162,699 L 1161,700 L 1161,711 L 1160,712 L 1155,712 L 1154,711 L 1152,711 L 1151,710 L 1144,710 L 1142,708 L 1142,707 L 1139,704 L 1138,704 L 1137,703 L 1136,703 L 1133,701 L 1126,701 L 1125,702 L 1123,700 L 1123,698 L 1122,697 L 1122,696 L 1120,693 L 1120,691 L 1118,689 L 1118,688 L 1117,687 L 1117,686 L 1115,684 L 1115,683 L 1111,679 L 1111,678 L 1105,672 L 1104,672 L 1101,669 L 1100,669 L 1098,667 L 1097,667 L 1096,666 L 1095,666 L 1093,664 L 1092,664 L 1089,662 L 1087,662 Z M 948,660 L 949,659 L 962,659 L 964,661 L 980,661 L 982,659 L 996,659 L 997,660 L 998,660 L 999,661 L 1013,661 L 1014,660 L 1030,660 L 1031,661 L 1040,661 L 1041,662 L 1040,663 L 1038,663 L 1037,664 L 1036,664 L 1035,663 L 1032,663 L 1034,665 L 1033,666 L 1032,666 L 1029,669 L 1028,669 L 1024,673 L 1023,673 L 1017,679 L 1017,680 L 1014,683 L 1014,684 L 1013,685 L 1013,686 L 1011,688 L 1011,689 L 1010,690 L 1010,691 L 1009,692 L 1009,693 L 1008,694 L 1008,695 L 1007,696 L 1007,698 L 1006,699 L 1006,701 L 1005,702 L 1002,702 L 1001,701 L 992,701 L 991,700 L 991,701 L 990,702 L 989,701 L 989,700 L 988,699 L 988,697 L 987,696 L 987,695 L 986,694 L 986,693 L 985,692 L 985,691 L 984,690 L 984,689 L 983,688 L 983,687 L 981,685 L 981,684 L 978,681 L 978,680 L 970,672 L 969,672 L 965,668 L 964,668 L 962,666 L 961,666 L 960,665 L 959,665 L 958,664 L 957,664 L 956,663 L 955,663 L 954,662 L 955,661 L 957,661 L 955,661 L 954,662 L 952,662 L 951,661 L 949,661 Z M 676,642 L 677,642 L 678,643 L 679,643 L 682,646 L 683,646 L 688,651 L 688,652 L 690,654 L 690,655 L 691,656 L 691,657 L 689,659 L 690,660 L 689,661 L 688,661 L 687,662 L 684,662 L 683,661 L 682,662 L 680,660 L 680,657 L 681,656 L 681,654 L 678,651 L 675,651 L 674,652 L 672,652 L 671,651 L 671,650 L 672,649 L 673,650 L 672,649 L 672,648 L 673,647 L 675,649 L 673,647 L 673,646 L 674,645 L 674,644 Z M 624,641 L 625,642 L 625,643 L 624,644 L 624,645 L 624,644 L 625,643 L 626,644 L 626,645 L 627,646 L 627,648 L 628,649 L 628,650 L 627,651 L 625,651 L 624,652 L 623,652 L 619,656 L 619,657 L 618,658 L 618,661 L 616,663 L 615,662 L 613,662 L 612,661 L 611,661 L 610,660 L 609,660 L 607,658 L 609,656 L 609,655 L 611,653 L 611,652 L 618,645 L 619,645 L 622,642 L 623,642 Z M 664,742 L 678,737 L 690,729 L 702,715 L 706,708 L 711,692 L 711,673 L 709,664 L 702,649 L 695,641 L 699,640 L 695,641 L 692,638 L 693,637 L 702,638 L 705,641 L 711,642 L 714,640 L 727,642 L 730,645 L 740,647 L 749,646 L 761,648 L 763,650 L 767,651 L 795,652 L 796,655 L 803,655 L 804,656 L 811,656 L 814,654 L 820,654 L 821,655 L 829,655 L 831,657 L 848,656 L 849,657 L 862,657 L 864,659 L 875,659 L 876,660 L 879,660 L 881,658 L 889,658 L 890,659 L 908,660 L 909,661 L 899,665 L 883,678 L 876,688 L 870,702 L 866,701 L 855,702 L 854,700 L 856,699 L 855,698 L 854,700 L 853,699 L 853,697 L 846,684 L 833,670 L 819,662 L 810,659 L 785,658 L 771,662 L 757,670 L 744,684 L 737,698 L 734,709 L 734,729 L 738,743 L 746,757 L 760,770 L 759,771 L 749,769 L 746,767 L 736,766 L 729,762 L 716,758 L 704,756 L 691,750 L 681,749 Z M 652,635 L 653,634 L 659,634 L 660,635 L 662,635 L 663,636 L 665,636 L 666,637 L 668,637 L 669,638 L 669,639 L 667,641 L 667,642 L 665,644 L 665,645 L 663,647 L 662,646 L 659,646 L 658,645 L 657,645 L 656,644 L 656,642 L 655,641 L 655,640 L 653,638 L 653,637 L 652,636 Z M 646,634 L 647,635 L 647,636 L 646,637 L 646,638 L 643,641 L 643,644 L 641,646 L 636,646 L 635,645 L 635,644 L 632,641 L 632,640 L 631,639 L 631,638 L 632,637 L 633,637 L 634,636 L 636,636 L 637,635 L 640,635 L 641,634 Z M 1139,638 L 1140,637 L 1140,636 L 1144,632 L 1161,632 L 1163,634 L 1163,635 L 1164,636 L 1164,637 L 1165,638 L 1164,639 L 1161,639 L 1161,640 L 1160,641 L 1160,643 L 1159,644 L 1147,644 L 1146,643 L 1146,641 L 1145,640 L 1145,639 L 1140,639 Z M 1106,638 L 1108,636 L 1108,635 L 1111,632 L 1128,632 L 1131,635 L 1131,636 L 1133,638 L 1132,639 L 1129,639 L 1126,642 L 1125,641 L 1124,642 L 1116,642 L 1127,642 L 1128,643 L 1127,644 L 1114,644 L 1113,643 L 1113,640 L 1112,639 L 1107,639 Z M 974,637 L 975,636 L 975,635 L 978,632 L 998,632 L 1001,635 L 1002,635 L 1003,636 L 1005,636 L 1006,635 L 1009,634 L 1011,632 L 1031,632 L 1036,636 L 1039,636 L 1040,635 L 1041,635 L 1044,632 L 1064,632 L 1068,636 L 1073,636 L 1074,635 L 1075,635 L 1078,632 L 1095,632 L 1098,635 L 1098,636 L 1100,638 L 1099,639 L 1096,639 L 1095,640 L 1095,643 L 1094,644 L 1081,644 L 1080,643 L 1080,640 L 1079,639 L 1063,639 L 1061,642 L 1051,642 L 1061,642 L 1062,643 L 1061,644 L 1048,644 L 1047,643 L 1047,639 L 1045,639 L 1044,638 L 1043,639 L 1030,639 L 1029,640 L 1029,643 L 1028,644 L 1016,644 L 1015,643 L 1015,641 L 1014,640 L 1014,639 L 1013,639 L 1012,638 L 1010,638 L 1009,639 L 1004,639 L 1003,638 L 1001,638 L 1000,639 L 997,639 L 997,641 L 996,642 L 997,643 L 996,644 L 982,644 L 981,643 L 982,642 L 986,642 L 985,642 L 984,641 L 983,642 L 981,640 L 981,639 L 980,639 L 979,638 L 975,638 Z M 1172,638 L 1173,637 L 1173,636 L 1174,635 L 1174,634 L 1176,632 L 1177,632 L 1178,631 L 1179,632 L 1195,632 L 1196,633 L 1196,634 L 1198,636 L 1199,636 L 1200,637 L 1199,638 L 1194,638 L 1193,639 L 1193,640 L 1192,641 L 1193,642 L 1192,643 L 1188,643 L 1187,644 L 1179,644 L 1178,643 L 1178,640 L 1177,639 L 1173,639 Z M 904,636 L 905,635 L 906,635 L 910,631 L 928,631 L 930,633 L 931,633 L 933,635 L 937,635 L 938,636 L 939,635 L 940,635 L 942,633 L 943,633 L 944,632 L 956,632 L 957,631 L 959,631 L 960,632 L 961,632 L 962,631 L 963,632 L 964,632 L 966,634 L 966,635 L 967,636 L 967,637 L 966,638 L 965,638 L 963,640 L 963,642 L 962,643 L 957,643 L 956,644 L 949,644 L 948,643 L 948,640 L 946,638 L 930,638 L 929,639 L 929,642 L 928,643 L 916,643 L 915,642 L 915,639 L 914,638 L 913,638 L 912,637 L 905,637 Z M 876,636 L 877,635 L 877,634 L 880,631 L 896,631 L 897,632 L 898,632 L 901,635 L 903,635 L 904,636 L 903,637 L 900,637 L 899,638 L 898,638 L 898,639 L 897,640 L 897,642 L 896,643 L 895,643 L 893,641 L 893,637 L 892,637 L 891,636 L 888,636 L 887,635 L 884,635 L 883,636 L 880,636 L 879,637 L 877,637 Z M 843,634 L 844,633 L 844,632 L 847,629 L 848,630 L 865,630 L 867,632 L 867,633 L 870,636 L 869,637 L 864,637 L 864,638 L 863,639 L 863,641 L 862,642 L 861,642 L 860,641 L 852,641 L 851,640 L 852,639 L 851,638 L 851,637 L 850,637 L 849,636 L 845,636 Z M 1210,637 L 1211,636 L 1212,636 L 1213,635 L 1215,635 L 1216,634 L 1220,634 L 1221,635 L 1222,635 L 1221,635 L 1220,634 L 1221,633 L 1222,633 L 1223,632 L 1225,632 L 1226,631 L 1227,631 L 1229,629 L 1230,629 L 1231,628 L 1241,628 L 1242,629 L 1245,629 L 1246,630 L 1250,630 L 1251,631 L 1253,631 L 1254,632 L 1255,632 L 1256,633 L 1257,633 L 1258,634 L 1259,634 L 1260,635 L 1261,635 L 1262,636 L 1263,636 L 1264,637 L 1265,637 L 1267,639 L 1267,640 L 1269,642 L 1270,642 L 1273,645 L 1271,647 L 1269,645 L 1268,645 L 1267,644 L 1266,644 L 1265,643 L 1264,643 L 1263,644 L 1263,645 L 1262,646 L 1261,646 L 1260,645 L 1258,645 L 1256,643 L 1254,643 L 1253,642 L 1252,642 L 1251,641 L 1251,637 L 1250,636 L 1249,636 L 1248,635 L 1246,635 L 1245,634 L 1242,634 L 1241,633 L 1235,633 L 1234,632 L 1230,632 L 1229,633 L 1228,633 L 1228,634 L 1227,635 L 1227,636 L 1226,637 L 1219,637 L 1218,636 L 1219,637 L 1218,638 L 1214,638 L 1213,639 L 1212,639 L 1211,640 L 1210,639 Z M 808,632 L 810,630 L 811,631 L 810,630 L 810,629 L 811,628 L 825,628 L 826,629 L 830,629 L 832,631 L 832,632 L 833,633 L 833,634 L 830,637 L 830,639 L 829,640 L 828,639 L 828,637 L 827,637 L 828,638 L 827,639 L 816,639 L 815,638 L 815,635 L 813,633 L 809,633 Z M 609,627 L 611,629 L 605,635 L 604,635 L 603,636 L 602,635 L 601,636 L 602,637 L 601,638 L 597,638 L 596,639 L 596,640 L 592,644 L 592,645 L 590,647 L 590,649 L 591,650 L 591,651 L 590,652 L 590,653 L 589,654 L 589,655 L 588,656 L 588,657 L 587,658 L 587,659 L 586,660 L 585,659 L 586,660 L 586,661 L 585,662 L 582,662 L 581,661 L 582,660 L 582,659 L 583,658 L 583,657 L 584,656 L 584,655 L 585,654 L 585,653 L 586,652 L 586,651 L 587,650 L 587,648 L 588,647 L 588,646 L 589,645 L 589,644 L 592,641 L 592,640 L 598,634 L 599,634 L 603,630 L 604,630 L 606,628 L 607,628 L 608,627 Z M 773,627 L 776,624 L 784,624 L 785,625 L 792,625 L 793,626 L 795,626 L 797,628 L 797,630 L 799,632 L 798,633 L 797,633 L 797,636 L 796,637 L 794,637 L 793,636 L 784,636 L 783,635 L 783,632 L 781,630 L 780,630 L 779,629 L 774,629 L 773,628 Z M 717,624 L 718,623 L 718,622 L 719,621 L 720,622 L 721,621 L 725,621 L 726,622 L 727,621 L 728,621 L 730,619 L 731,619 L 732,618 L 733,618 L 734,617 L 736,617 L 737,618 L 744,618 L 745,619 L 750,619 L 751,620 L 754,620 L 755,621 L 756,621 L 757,622 L 757,623 L 758,623 L 758,622 L 759,621 L 760,622 L 760,623 L 761,624 L 761,629 L 762,630 L 762,631 L 761,632 L 755,632 L 754,631 L 749,631 L 748,630 L 748,629 L 749,628 L 749,626 L 748,625 L 747,625 L 746,624 L 741,624 L 740,623 L 736,623 L 735,622 L 733,622 L 732,621 L 733,622 L 731,624 L 731,626 L 730,627 L 728,627 L 727,626 L 728,625 L 729,625 L 729,624 L 727,626 L 722,626 L 721,625 L 718,625 Z M 328,615 L 331,618 L 331,619 L 333,621 L 333,622 L 336,625 L 336,626 L 338,628 L 338,629 L 341,632 L 341,633 L 342,634 L 342,635 L 344,637 L 344,638 L 345,639 L 345,640 L 347,642 L 347,643 L 348,644 L 348,645 L 349,646 L 349,647 L 350,648 L 350,649 L 352,651 L 352,652 L 353,653 L 353,654 L 354,655 L 354,657 L 355,658 L 355,659 L 356,660 L 356,662 L 355,663 L 356,662 L 358,664 L 358,666 L 359,667 L 359,668 L 360,669 L 360,671 L 361,672 L 361,674 L 362,675 L 362,676 L 364,678 L 364,679 L 366,681 L 366,682 L 367,683 L 366,684 L 367,683 L 373,689 L 374,689 L 377,692 L 378,692 L 379,693 L 380,693 L 381,694 L 382,694 L 383,695 L 384,695 L 385,696 L 384,697 L 383,697 L 382,698 L 380,698 L 379,697 L 378,697 L 377,696 L 376,696 L 374,694 L 375,693 L 374,694 L 373,694 L 361,682 L 361,681 L 359,679 L 359,678 L 358,677 L 358,675 L 357,674 L 357,673 L 356,672 L 356,671 L 355,670 L 355,668 L 354,667 L 354,666 L 353,665 L 353,663 L 352,662 L 352,661 L 351,660 L 351,659 L 350,658 L 350,657 L 349,656 L 349,655 L 348,654 L 348,653 L 347,652 L 347,651 L 346,650 L 346,649 L 345,648 L 346,647 L 346,646 L 345,647 L 344,646 L 344,645 L 342,643 L 342,642 L 341,641 L 341,640 L 339,638 L 339,637 L 337,635 L 337,634 L 336,633 L 336,632 L 337,631 L 336,632 L 334,630 L 334,629 L 333,628 L 334,627 L 333,628 L 331,626 L 331,625 L 328,622 L 328,621 L 325,618 Z M 689,614 L 690,613 L 690,612 L 691,611 L 692,611 L 693,610 L 695,610 L 696,611 L 701,611 L 702,612 L 709,612 L 710,613 L 713,613 L 716,616 L 716,618 L 715,619 L 708,619 L 707,618 L 706,619 L 704,619 L 701,622 L 696,622 L 695,621 L 695,620 L 696,619 L 695,618 L 695,616 L 694,616 L 693,615 L 690,615 Z M 640,613 L 640,616 L 638,618 L 635,618 L 634,619 L 631,619 L 630,620 L 628,620 L 627,621 L 626,621 L 625,620 L 625,619 L 624,619 L 623,618 L 622,618 L 621,619 L 620,619 L 619,618 L 621,616 L 622,616 L 621,616 L 620,617 L 619,617 L 618,618 L 618,620 L 616,622 L 615,622 L 614,621 L 615,620 L 615,619 L 616,618 L 616,617 L 619,614 L 621,614 L 622,613 L 625,613 L 626,612 L 628,612 L 629,611 L 634,611 L 635,610 L 636,610 L 638,612 L 639,612 Z M 644,610 L 647,607 L 649,607 L 650,606 L 667,606 L 668,607 L 674,607 L 676,609 L 676,610 L 677,611 L 677,612 L 678,613 L 678,614 L 679,614 L 680,615 L 677,618 L 675,618 L 674,617 L 667,617 L 666,616 L 659,616 L 658,615 L 659,614 L 659,613 L 658,612 L 658,611 L 645,611 Z M 315,604 L 316,604 L 317,603 L 325,611 L 325,612 L 328,615 L 327,616 L 326,616 L 326,617 L 325,618 L 324,617 L 324,616 L 314,606 L 314,605 Z M 611,596 L 610,597 L 609,597 L 608,598 L 605,598 L 604,597 L 605,598 L 604,599 L 602,599 L 601,600 L 599,600 L 597,602 L 596,601 L 595,602 L 594,601 L 594,600 L 597,597 L 599,597 L 600,596 L 602,596 L 603,595 L 605,595 L 606,594 L 608,594 L 609,595 L 610,595 Z M 1286,594 L 1288,592 L 1289,592 L 1290,593 L 1291,593 L 1292,594 L 1293,594 L 1294,595 L 1295,595 L 1296,596 L 1294,598 L 1293,598 L 1292,597 L 1291,597 L 1290,596 L 1289,596 L 1288,595 L 1287,595 Z M 608,594 L 609,593 L 611,593 L 612,592 L 614,592 L 615,593 L 616,593 L 617,594 L 616,595 L 614,595 L 613,596 L 611,596 L 610,595 L 609,595 Z M 302,594 L 303,593 L 304,593 L 305,592 L 306,593 L 307,593 L 314,600 L 313,601 L 312,601 L 311,602 L 310,602 Z M 294,588 L 295,587 L 296,587 L 298,589 L 299,589 L 301,591 L 300,590 L 301,589 L 302,589 L 305,592 L 304,593 L 303,593 L 302,594 L 301,594 L 298,591 L 297,591 Z M 615,592 L 636,584 L 1277,587 L 1288,592 L 1285,594 L 1275,589 L 1025,590 L 847,589 L 844,587 L 635,588 L 619,594 Z M 282,578 L 283,577 L 284,577 L 285,578 L 286,578 L 288,580 L 289,580 L 291,582 L 292,582 L 294,584 L 293,585 L 292,585 L 291,584 L 292,585 L 291,586 L 290,586 L 288,584 L 287,584 L 286,583 L 285,583 L 283,581 L 284,580 L 285,580 L 284,580 Z M 271,575 L 272,574 L 273,574 L 272,573 L 273,572 L 274,572 L 275,573 L 276,573 L 277,574 L 278,574 L 279,575 L 278,576 L 277,576 L 278,576 L 279,577 L 278,576 L 279,575 L 280,575 L 281,576 L 282,576 L 283,577 L 282,578 L 281,578 L 282,579 L 281,580 L 280,580 L 279,579 L 278,579 L 277,578 L 276,578 L 275,577 L 274,577 L 273,576 L 272,576 Z M 266,573 L 267,572 L 268,572 L 267,571 L 268,570 L 270,570 L 271,571 L 272,571 L 273,572 L 272,573 L 272,574 L 271,575 L 270,575 L 269,574 L 267,574 Z M 248,567 L 249,566 L 250,566 L 249,565 L 250,564 L 253,564 L 254,565 L 256,565 L 257,566 L 259,566 L 260,567 L 262,567 L 263,568 L 265,568 L 266,569 L 267,569 L 268,570 L 267,571 L 265,571 L 264,572 L 262,572 L 261,571 L 262,570 L 263,570 L 262,570 L 261,569 L 260,569 L 261,569 L 262,570 L 261,571 L 259,571 L 258,570 L 256,570 L 255,569 L 256,568 L 257,568 L 256,568 L 255,569 L 253,569 L 252,568 L 249,568 Z M 166,569 L 167,568 L 169,568 L 170,567 L 172,567 L 173,566 L 176,566 L 177,567 L 176,566 L 177,565 L 179,565 L 180,564 L 183,564 L 184,565 L 186,565 L 184,565 L 183,564 L 184,563 L 187,563 L 188,562 L 193,562 L 194,563 L 198,563 L 194,563 L 193,562 L 194,561 L 200,561 L 201,560 L 231,560 L 232,561 L 239,561 L 240,562 L 239,563 L 235,563 L 239,563 L 240,562 L 245,562 L 246,563 L 249,563 L 250,564 L 249,565 L 247,565 L 248,565 L 249,566 L 248,567 L 244,567 L 243,566 L 240,566 L 239,565 L 233,565 L 232,564 L 220,564 L 219,563 L 215,563 L 214,562 L 213,562 L 211,564 L 202,564 L 201,565 L 194,565 L 193,566 L 188,566 L 187,567 L 183,567 L 182,566 L 183,567 L 182,568 L 180,568 L 179,569 L 176,569 L 175,570 L 173,570 L 172,571 L 170,571 L 169,570 L 167,570 Z M 643,427 L 644,428 L 644,429 L 645,430 L 645,432 L 644,433 L 644,435 L 643,436 L 643,438 L 642,439 L 642,440 L 641,441 L 641,443 L 640,444 L 640,446 L 639,447 L 639,448 L 638,449 L 636,449 L 635,448 L 635,446 L 636,445 L 636,443 L 637,442 L 637,441 L 638,440 L 638,438 L 639,437 L 639,436 L 640,435 L 641,436 L 640,435 L 640,433 L 641,432 L 641,430 L 642,429 L 642,428 Z M 646,419 L 647,420 L 647,421 L 648,422 L 648,424 L 647,425 L 647,427 L 646,428 L 646,429 L 645,430 L 644,429 L 644,428 L 643,427 L 643,425 L 644,424 L 644,422 L 645,421 L 645,420 Z M 1229,417 L 1230,416 L 1264,416 L 1265,417 L 1265,420 L 1263,422 L 1257,422 L 1256,421 L 1253,421 L 1252,422 L 1231,422 L 1229,420 Z M 1084,417 L 1085,416 L 1119,416 L 1120,417 L 1120,420 L 1118,422 L 1110,422 L 1109,421 L 1103,421 L 1102,422 L 1096,422 L 1095,421 L 1092,421 L 1091,422 L 1086,422 L 1084,420 Z M 939,418 L 941,416 L 974,416 L 975,417 L 975,421 L 974,422 L 941,422 L 939,420 L 940,419 Z M 795,417 L 796,416 L 829,416 L 830,417 L 830,421 L 829,422 L 796,422 L 795,421 Z M 659,389 L 660,390 L 659,391 L 658,391 L 659,391 L 660,392 L 660,393 L 658,395 L 658,397 L 657,398 L 657,400 L 656,401 L 656,403 L 655,404 L 655,406 L 654,407 L 654,408 L 653,409 L 653,411 L 652,412 L 652,414 L 651,415 L 651,416 L 650,417 L 650,419 L 649,420 L 649,421 L 648,422 L 647,421 L 647,420 L 646,419 L 646,417 L 647,416 L 647,415 L 648,414 L 649,415 L 648,414 L 648,412 L 649,411 L 649,409 L 650,408 L 650,407 L 651,406 L 651,404 L 652,403 L 652,401 L 653,400 L 653,398 L 654,397 L 654,395 L 655,394 L 655,393 L 656,392 L 656,390 L 657,389 Z M 642,392 L 642,396 L 640,399 L 640,401 L 639,402 L 639,404 L 637,407 L 637,409 L 636,410 L 636,412 L 634,415 L 634,417 L 633,418 L 633,420 L 631,423 L 631,425 L 630,426 L 630,428 L 629,429 L 629,430 L 628,431 L 628,433 L 626,436 L 626,438 L 625,439 L 625,441 L 624,442 L 624,444 L 623,445 L 623,446 L 621,448 L 619,448 L 618,449 L 595,449 L 594,450 L 559,450 L 546,437 L 546,436 L 541,431 L 540,431 L 539,430 L 537,430 L 534,433 L 534,437 L 536,439 L 536,440 L 535,441 L 533,441 L 532,442 L 529,442 L 528,443 L 526,443 L 525,444 L 523,444 L 522,445 L 520,445 L 519,446 L 516,446 L 515,447 L 513,447 L 512,448 L 510,448 L 509,449 L 507,449 L 506,448 L 506,444 L 507,443 L 507,441 L 508,440 L 508,438 L 511,433 L 511,431 L 513,428 L 513,426 L 514,425 L 514,423 L 515,422 L 515,421 L 517,418 L 517,416 L 519,413 L 519,411 L 520,410 L 520,408 L 522,405 L 522,403 L 525,398 L 525,396 L 526,395 L 527,392 L 529,390 L 530,390 L 531,389 L 545,389 L 546,388 L 596,388 L 597,387 L 638,387 L 641,390 L 641,391 Z M 829,303 L 830,302 L 841,302 L 843,304 L 842,305 L 830,305 L 829,304 Z M 932,302 L 933,301 L 938,301 L 939,302 L 939,304 L 938,305 L 938,306 L 937,307 L 935,305 L 936,304 L 934,304 L 935,305 L 934,306 L 933,306 L 932,305 Z" fill="black" fill-rule="evenodd"/>
</svg>