<svg xmlns="http://www.w3.org/2000/svg" width="2172" height="724" viewBox="0 0 2172 724">
<rect width="100%" height="100%" fill="white"/>
<path d="M 1931,433 L 1930,432 L 1929,432 L 1928,431 L 1927,432 L 1924,432 L 1923,433 L 1922,433 L 1920,435 L 1919,435 L 1918,436 L 1917,436 L 1916,437 L 1915,437 L 1915,439 L 1916,440 L 1918,440 L 1920,438 L 1921,438 L 1922,437 L 1926,437 L 1927,436 L 1930,436 L 1931,435 Z" fill="black" fill-rule="evenodd"/>
<path d="M 2061,456 L 2012,384 L 2009,348 L 1980,343 L 1949,317 L 1930,316 L 1929,325 L 1918,288 L 1465,288 L 1456,340 L 1446,300 L 1343,294 L 1350,283 L 1393,277 L 1417,230 L 1440,225 L 1417,222 L 1410,195 L 1391,189 L 1382,166 L 1354,153 L 1353,144 L 1313,142 L 1298,107 L 1224,100 L 1220,83 L 1204,85 L 1198,102 L 1172,97 L 1151,116 L 1146,137 L 1134,136 L 1129,119 L 1115,124 L 1115,138 L 1044,144 L 1032,127 L 1011,127 L 998,148 L 896,158 L 859,189 L 807,199 L 218,197 L 115,179 L 82,182 L 73,207 L 79,241 L 143,246 L 221,228 L 807,238 L 816,248 L 858,250 L 912,292 L 845,293 L 829,309 L 739,331 L 727,305 L 701,300 L 701,350 L 679,367 L 598,379 L 557,423 L 590,446 L 578,476 L 582,508 L 607,541 L 762,621 L 1805,622 L 1982,560 L 2016,518 L 2014,463 L 2034,468 Z M 1771,605 L 1772,604 L 1777,604 L 1778,603 L 1780,603 L 1781,604 L 1783,604 L 1784,605 L 1783,606 L 1772,606 Z M 1612,605 L 1613,604 L 1618,604 L 1619,603 L 1620,603 L 1621,604 L 1625,604 L 1626,605 L 1625,606 L 1613,606 Z M 1579,605 L 1580,604 L 1584,604 L 1585,603 L 1588,603 L 1589,604 L 1593,604 L 1594,605 L 1593,606 L 1580,606 Z M 1251,605 L 1252,604 L 1257,604 L 1258,603 L 1260,603 L 1261,604 L 1266,604 L 1267,605 L 1266,606 L 1252,606 Z M 1121,605 L 1122,604 L 1127,604 L 1128,603 L 1130,603 L 1131,604 L 1134,604 L 1135,605 L 1134,606 L 1122,606 Z M 1090,605 L 1091,604 L 1094,604 L 1095,603 L 1097,603 L 1098,604 L 1103,604 L 1104,605 L 1103,606 L 1091,606 Z M 971,605 L 972,604 L 976,604 L 977,603 L 979,603 L 980,604 L 983,604 L 984,605 L 983,606 L 972,606 Z M 786,605 L 788,603 L 790,603 L 791,604 L 796,604 L 797,605 L 796,606 L 787,606 Z M 1414,604 L 1415,603 L 1415,602 L 1416,601 L 1418,601 L 1419,602 L 1421,602 L 1422,603 L 1424,603 L 1425,604 L 1430,604 L 1431,605 L 1430,606 L 1416,606 Z M 1737,601 L 1738,600 L 1739,600 L 1740,601 L 1742,601 L 1743,602 L 1745,602 L 1746,603 L 1748,603 L 1749,604 L 1753,604 L 1754,605 L 1753,606 L 1740,606 L 1738,604 L 1738,603 L 1737,602 Z M 1302,601 L 1299,604 L 1298,603 L 1299,604 L 1297,606 L 1285,606 L 1284,605 L 1285,604 L 1290,604 L 1291,603 L 1293,603 L 1294,604 L 1295,604 L 1294,604 L 1293,603 L 1294,602 L 1296,602 L 1297,601 L 1298,601 L 1299,600 L 1301,600 Z M 1087,601 L 1088,600 L 1089,600 L 1090,601 L 1091,601 L 1092,602 L 1094,602 L 1095,603 L 1094,604 L 1091,604 L 1090,605 L 1087,602 Z M 934,600 L 935,599 L 936,599 L 937,600 L 938,600 L 939,601 L 940,601 L 941,602 L 940,603 L 938,603 L 939,604 L 943,604 L 944,603 L 946,603 L 947,604 L 951,604 L 952,605 L 951,606 L 938,606 L 935,603 L 935,601 Z M 1145,598 L 1143,600 L 1142,600 L 1141,601 L 1140,601 L 1139,602 L 1138,602 L 1136,604 L 1135,603 L 1134,604 L 1131,604 L 1130,603 L 1131,602 L 1133,602 L 1134,601 L 1135,601 L 1136,600 L 1138,600 L 1139,599 L 1140,599 L 1141,598 L 1142,598 L 1143,597 L 1144,597 Z M 840,597 L 837,600 L 836,600 L 835,601 L 834,601 L 833,602 L 832,602 L 829,605 L 828,605 L 827,604 L 828,603 L 827,604 L 825,604 L 827,604 L 828,605 L 827,606 L 815,606 L 814,605 L 815,604 L 820,604 L 821,603 L 823,603 L 824,602 L 826,602 L 827,601 L 829,601 L 831,599 L 833,599 L 834,598 L 835,598 L 836,597 L 837,597 L 838,596 L 839,596 Z M 763,587 L 768,592 L 767,593 L 765,593 L 766,594 L 768,594 L 767,593 L 768,592 L 769,592 L 774,597 L 772,599 L 772,600 L 771,601 L 771,602 L 770,603 L 768,601 L 764,601 L 763,602 L 762,602 L 761,601 L 761,595 L 762,594 L 762,588 Z M 1958,552 L 1957,553 L 1956,553 L 1955,554 L 1952,554 L 1951,555 L 1949,555 L 1948,556 L 1946,554 L 1947,553 L 1950,553 L 1951,552 L 1954,552 L 1955,551 L 1957,551 Z M 1761,535 L 1765,535 L 1766,536 L 1768,536 L 1770,538 L 1771,538 L 1773,540 L 1773,541 L 1775,543 L 1775,546 L 1776,547 L 1776,551 L 1775,552 L 1775,554 L 1769,560 L 1768,560 L 1767,561 L 1759,561 L 1758,560 L 1757,560 L 1756,559 L 1755,559 L 1752,556 L 1752,555 L 1753,554 L 1752,555 L 1751,554 L 1751,552 L 1750,551 L 1750,545 L 1751,544 L 1751,543 L 1752,542 L 1752,541 L 1756,537 L 1757,537 L 1758,536 L 1760,536 Z M 1601,535 L 1604,535 L 1605,536 L 1607,536 L 1608,537 L 1609,537 L 1610,538 L 1611,538 L 1614,541 L 1614,542 L 1615,543 L 1615,545 L 1616,546 L 1616,551 L 1615,552 L 1615,553 L 1614,554 L 1614,555 L 1609,560 L 1608,560 L 1607,561 L 1599,561 L 1598,560 L 1597,560 L 1596,559 L 1595,559 L 1591,555 L 1591,554 L 1590,553 L 1590,550 L 1589,549 L 1589,547 L 1590,546 L 1590,544 L 1591,543 L 1591,542 L 1592,541 L 1593,542 L 1592,541 L 1596,537 L 1597,537 L 1598,536 L 1600,536 Z M 1438,535 L 1442,535 L 1443,536 L 1445,536 L 1446,537 L 1447,537 L 1451,541 L 1451,542 L 1452,543 L 1452,545 L 1453,546 L 1453,551 L 1452,552 L 1452,553 L 1451,554 L 1451,555 L 1446,560 L 1444,560 L 1443,559 L 1438,559 L 1443,559 L 1444,560 L 1443,561 L 1436,561 L 1435,560 L 1433,560 L 1428,555 L 1428,554 L 1427,553 L 1427,551 L 1426,550 L 1426,547 L 1427,546 L 1427,544 L 1428,543 L 1428,542 L 1433,537 L 1434,537 L 1435,536 L 1437,536 Z M 1274,535 L 1277,535 L 1278,536 L 1281,536 L 1282,537 L 1283,537 L 1287,541 L 1287,542 L 1288,543 L 1288,545 L 1289,546 L 1289,551 L 1288,552 L 1288,554 L 1286,556 L 1286,557 L 1285,558 L 1284,558 L 1282,560 L 1281,560 L 1280,561 L 1272,561 L 1271,560 L 1270,560 L 1269,559 L 1268,559 L 1264,555 L 1264,554 L 1263,553 L 1263,551 L 1262,550 L 1262,547 L 1263,546 L 1263,544 L 1264,543 L 1264,542 L 1269,537 L 1270,537 L 1271,536 L 1273,536 Z M 1111,535 L 1115,535 L 1116,536 L 1118,536 L 1119,537 L 1120,537 L 1122,539 L 1121,540 L 1122,539 L 1124,541 L 1124,542 L 1125,543 L 1125,545 L 1126,546 L 1126,551 L 1125,552 L 1125,554 L 1122,557 L 1121,556 L 1122,557 L 1119,560 L 1117,560 L 1116,561 L 1110,561 L 1109,560 L 1110,559 L 1114,559 L 1110,559 L 1109,560 L 1107,560 L 1106,559 L 1105,559 L 1101,555 L 1101,554 L 1100,553 L 1100,544 L 1101,543 L 1101,542 L 1106,537 L 1107,537 L 1108,536 L 1110,536 Z M 960,535 L 963,535 L 964,536 L 966,536 L 967,537 L 968,537 L 969,538 L 970,538 L 972,540 L 972,541 L 973,542 L 973,543 L 974,544 L 974,553 L 973,554 L 973,555 L 970,558 L 969,557 L 970,558 L 969,559 L 968,559 L 967,558 L 968,559 L 967,560 L 966,560 L 965,561 L 958,561 L 957,560 L 955,560 L 950,555 L 950,554 L 949,553 L 949,550 L 948,549 L 948,547 L 949,546 L 949,544 L 950,543 L 950,542 L 951,541 L 951,540 L 953,538 L 954,538 L 955,537 L 956,537 L 957,536 L 959,536 Z M 804,535 L 808,535 L 809,536 L 811,536 L 812,537 L 813,537 L 817,541 L 817,542 L 818,543 L 818,545 L 819,546 L 819,552 L 818,553 L 818,554 L 816,556 L 816,557 L 815,558 L 814,558 L 812,560 L 811,560 L 810,559 L 806,559 L 810,559 L 811,560 L 810,561 L 802,561 L 801,560 L 800,560 L 799,559 L 798,559 L 795,556 L 795,555 L 794,554 L 794,553 L 793,552 L 793,545 L 794,544 L 794,543 L 795,542 L 795,541 L 799,537 L 800,537 L 801,536 L 803,536 Z M 628,534 L 629,533 L 630,533 L 631,534 L 633,534 L 634,535 L 636,535 L 637,536 L 639,536 L 640,537 L 645,537 L 646,538 L 645,539 L 636,539 L 635,538 L 634,538 L 633,537 L 632,537 L 631,536 L 630,536 Z M 1928,523 L 1931,523 L 1932,524 L 1932,539 L 1931,540 L 1930,539 L 1927,539 L 1926,538 L 1925,538 L 1924,537 L 1923,537 L 1922,536 L 1921,536 L 1919,534 L 1919,533 L 1927,525 L 1927,524 Z M 1954,522 L 1955,523 L 1955,524 L 1958,527 L 1958,528 L 1962,532 L 1962,533 L 1963,534 L 1961,536 L 1960,536 L 1959,537 L 1958,537 L 1957,538 L 1955,538 L 1954,539 L 1951,539 L 1950,538 L 1950,525 L 1952,523 L 1953,523 Z M 1994,519 L 1996,521 L 1996,522 L 1994,524 L 1994,525 L 1991,528 L 1991,529 L 1988,532 L 1987,531 L 1987,529 L 1990,526 L 1990,525 L 1991,524 L 1991,523 L 1993,521 L 1993,520 Z M 1796,596 L 1801,592 L 1802,594 L 1805,594 L 1801,592 L 1807,586 L 1807,585 L 1811,581 L 1812,578 L 1814,576 L 1817,570 L 1818,564 L 1819,563 L 1819,560 L 1820,559 L 1820,553 L 1821,552 L 1820,536 L 1819,535 L 1817,527 L 1813,520 L 1814,518 L 1818,518 L 1819,517 L 1822,522 L 1822,524 L 1827,524 L 1828,525 L 1828,530 L 1829,532 L 1835,537 L 1854,537 L 1855,536 L 1859,535 L 1864,530 L 1865,526 L 1866,525 L 1883,525 L 1884,526 L 1887,523 L 1890,527 L 1890,529 L 1888,532 L 1889,536 L 1892,538 L 1898,537 L 1901,540 L 1902,542 L 1902,545 L 1904,548 L 1906,549 L 1910,549 L 1912,547 L 1914,547 L 1915,548 L 1913,549 L 1917,548 L 1921,552 L 1924,552 L 1926,551 L 1927,552 L 1936,553 L 1937,554 L 1936,555 L 1934,555 L 1930,561 L 1926,562 L 1925,563 L 1922,563 L 1921,562 L 1920,563 L 1912,553 L 1908,553 L 1905,556 L 1905,568 L 1904,569 L 1903,568 L 1900,568 L 1899,569 L 1901,569 L 1902,570 L 1898,572 L 1895,569 L 1893,565 L 1889,561 L 1886,560 L 1881,563 L 1881,577 L 1879,579 L 1877,579 L 1870,582 L 1866,580 L 1863,574 L 1860,571 L 1856,571 L 1852,574 L 1853,585 L 1852,586 L 1848,586 L 1851,586 L 1852,587 L 1851,588 L 1847,588 L 1844,585 L 1843,582 L 1840,579 L 1837,578 L 1835,580 L 1835,593 L 1833,595 L 1831,595 L 1827,597 L 1823,597 L 1820,594 L 1817,588 L 1815,586 L 1811,586 L 1808,589 L 1807,591 L 1807,600 L 1805,603 L 1804,602 L 1804,599 L 1802,599 L 1801,601 L 1799,601 Z M 1331,515 L 1332,516 L 1332,517 L 1334,519 L 1334,521 L 1333,522 L 1332,521 L 1331,521 L 1330,522 L 1330,523 L 1329,524 L 1328,523 L 1328,522 L 1326,520 L 1326,519 L 1325,518 L 1325,517 L 1326,516 L 1328,516 L 1329,515 L 1330,516 Z M 1710,513 L 1711,514 L 1712,513 L 1713,513 L 1714,514 L 1715,514 L 1716,515 L 1715,516 L 1715,517 L 1714,518 L 1714,519 L 1712,521 L 1711,520 L 1711,519 L 1710,519 L 1709,518 L 1708,519 L 1707,518 L 1707,517 L 1708,516 L 1708,515 Z M 854,513 L 855,514 L 856,514 L 858,511 L 861,515 L 861,516 L 863,518 L 865,524 L 894,524 L 898,527 L 901,527 L 901,525 L 904,520 L 905,521 L 905,522 L 908,522 L 908,521 L 905,521 L 904,520 L 905,517 L 908,513 L 909,514 L 909,515 L 912,515 L 913,514 L 914,515 L 914,516 L 912,518 L 912,519 L 906,530 L 906,532 L 905,533 L 905,536 L 904,537 L 904,542 L 903,543 L 903,553 L 904,554 L 904,560 L 905,561 L 905,563 L 906,564 L 906,566 L 907,567 L 908,572 L 910,574 L 911,577 L 913,579 L 913,580 L 915,582 L 915,583 L 925,593 L 925,594 L 923,597 L 923,601 L 920,606 L 908,606 L 907,605 L 907,603 L 906,602 L 906,600 L 905,599 L 904,594 L 901,591 L 897,591 L 895,593 L 895,594 L 894,595 L 894,597 L 893,598 L 893,600 L 892,601 L 892,603 L 889,606 L 877,606 L 874,602 L 874,599 L 873,598 L 873,596 L 872,595 L 871,592 L 870,592 L 869,591 L 866,591 L 863,593 L 863,594 L 862,595 L 862,598 L 861,599 L 861,602 L 858,606 L 847,606 L 845,604 L 845,602 L 844,601 L 844,599 L 843,598 L 843,597 L 842,596 L 841,597 L 840,597 L 839,596 L 841,594 L 842,594 L 852,584 L 852,583 L 856,578 L 860,569 L 861,568 L 862,569 L 861,568 L 861,566 L 862,565 L 862,562 L 863,561 L 863,558 L 864,557 L 864,540 L 863,539 L 863,535 L 862,534 L 862,532 L 861,531 L 860,526 L 858,523 L 858,522 L 861,519 L 858,519 L 857,520 L 853,515 L 853,514 Z M 755,510 L 756,511 L 757,511 L 758,512 L 759,512 L 760,513 L 760,514 L 757,517 L 757,518 L 756,519 L 755,518 L 755,517 L 754,517 L 753,516 L 752,517 L 751,516 L 751,515 L 752,514 L 752,513 Z M 629,517 L 636,510 L 637,511 L 641,511 L 642,510 L 644,510 L 645,511 L 645,523 L 644,524 L 640,524 L 639,523 L 637,523 L 636,522 L 635,522 L 634,521 L 633,521 L 632,520 L 631,520 L 629,518 Z M 1649,511 L 1653,509 L 1657,514 L 1653,516 L 1656,516 L 1657,514 L 1661,521 L 1660,523 L 1661,522 L 1662,524 L 1693,524 L 1699,529 L 1702,529 L 1704,525 L 1704,523 L 1707,518 L 1708,520 L 1711,520 L 1712,521 L 1708,529 L 1707,527 L 1708,531 L 1707,532 L 1707,535 L 1706,536 L 1706,540 L 1705,541 L 1705,556 L 1706,557 L 1706,561 L 1707,562 L 1707,565 L 1708,566 L 1708,568 L 1713,578 L 1719,585 L 1719,586 L 1725,592 L 1727,593 L 1724,597 L 1724,601 L 1721,606 L 1709,606 L 1706,601 L 1706,598 L 1705,597 L 1705,595 L 1702,591 L 1697,591 L 1695,593 L 1694,597 L 1693,598 L 1693,600 L 1692,601 L 1692,603 L 1691,604 L 1690,602 L 1689,604 L 1690,603 L 1691,604 L 1690,606 L 1675,606 L 1672,603 L 1672,600 L 1671,599 L 1671,597 L 1669,593 L 1667,591 L 1663,591 L 1660,594 L 1660,596 L 1658,599 L 1658,602 L 1655,606 L 1644,606 L 1643,605 L 1644,604 L 1647,604 L 1644,604 L 1643,605 L 1640,600 L 1639,596 L 1636,599 L 1635,599 L 1633,601 L 1629,602 L 1627,604 L 1624,602 L 1636,596 L 1647,586 L 1647,585 L 1653,578 L 1657,570 L 1657,568 L 1658,567 L 1658,565 L 1660,561 L 1660,555 L 1661,554 L 1661,542 L 1660,541 L 1660,537 L 1659,536 L 1659,533 L 1658,532 L 1657,527 L 1653,519 L 1648,513 Z M 1006,509 L 1008,511 L 1009,510 L 1010,510 L 1010,509 L 1011,508 L 1014,511 L 1014,512 L 1016,514 L 1016,515 L 1017,516 L 1017,517 L 1019,519 L 1019,521 L 1018,522 L 1017,522 L 1016,523 L 1016,524 L 1015,525 L 1014,524 L 1014,523 L 1012,521 L 1012,520 L 1011,519 L 1011,518 L 1009,516 L 1009,515 L 1005,511 L 1005,510 Z M 667,508 L 674,515 L 674,516 L 676,518 L 674,520 L 673,520 L 671,522 L 669,522 L 668,523 L 666,523 L 665,522 L 663,522 L 665,522 L 666,523 L 665,524 L 663,524 L 662,525 L 660,523 L 660,511 L 661,510 L 663,510 L 664,511 L 663,512 L 662,512 L 663,512 L 664,511 L 665,511 L 664,511 L 663,510 L 664,509 L 666,509 Z M 913,507 L 914,508 L 914,509 L 917,509 L 918,510 L 918,511 L 914,515 L 913,514 L 909,514 L 908,513 L 908,512 Z M 1110,508 L 1111,507 L 1112,507 L 1113,506 L 1114,506 L 1116,508 L 1116,509 L 1114,511 L 1112,511 L 1110,509 Z M 803,509 L 804,508 L 804,507 L 805,506 L 807,506 L 809,508 L 809,509 L 807,511 L 805,511 Z M 1970,505 L 1979,505 L 1980,506 L 1984,506 L 1985,507 L 1984,508 L 1984,511 L 1983,512 L 1983,513 L 1982,514 L 1982,515 L 1979,518 L 1978,518 L 1968,508 L 1968,507 Z M 1912,505 L 1914,507 L 1914,510 L 1909,515 L 1908,515 L 1903,520 L 1902,519 L 1902,518 L 1901,517 L 1901,516 L 1900,515 L 1900,514 L 1899,513 L 1899,510 L 1898,509 L 1898,507 L 1899,506 L 1906,506 L 1907,505 Z M 1643,507 L 1644,506 L 1647,506 L 1648,505 L 1650,507 L 1651,506 L 1653,508 L 1652,509 L 1651,509 L 1650,510 L 1648,510 L 1647,511 Z M 1397,507 L 1398,508 L 1392,515 L 1392,516 L 1388,521 L 1386,526 L 1385,527 L 1384,525 L 1383,526 L 1382,525 L 1381,526 L 1381,527 L 1382,526 L 1383,527 L 1384,526 L 1385,527 L 1385,529 L 1383,533 L 1383,536 L 1382,537 L 1382,542 L 1381,543 L 1381,554 L 1382,555 L 1382,560 L 1383,561 L 1383,564 L 1384,565 L 1385,570 L 1388,576 L 1390,578 L 1392,582 L 1396,586 L 1396,587 L 1402,593 L 1400,596 L 1400,599 L 1399,600 L 1398,604 L 1396,606 L 1384,606 L 1381,602 L 1381,600 L 1379,596 L 1379,594 L 1380,593 L 1381,594 L 1380,593 L 1379,594 L 1378,592 L 1376,591 L 1371,591 L 1368,594 L 1367,593 L 1368,594 L 1368,596 L 1366,600 L 1366,603 L 1362,607 L 1361,606 L 1347,606 L 1344,603 L 1343,599 L 1341,596 L 1341,594 L 1338,591 L 1334,591 L 1331,594 L 1330,596 L 1330,599 L 1329,600 L 1329,603 L 1327,605 L 1326,604 L 1317,604 L 1326,604 L 1327,605 L 1326,606 L 1316,606 L 1313,603 L 1313,600 L 1312,599 L 1312,597 L 1310,595 L 1319,587 L 1319,586 L 1326,578 L 1331,568 L 1331,566 L 1332,565 L 1332,562 L 1333,561 L 1333,557 L 1334,556 L 1334,541 L 1333,540 L 1333,536 L 1332,535 L 1332,532 L 1329,526 L 1329,524 L 1330,523 L 1333,523 L 1334,521 L 1336,524 L 1367,524 L 1372,528 L 1377,530 L 1379,527 L 1379,525 L 1383,517 L 1384,516 L 1385,518 L 1388,518 L 1384,516 L 1386,512 L 1388,510 L 1389,512 L 1392,512 L 1393,511 L 1391,511 L 1389,509 L 1391,507 L 1391,506 L 1392,505 L 1393,507 Z M 1002,507 L 1003,506 L 1005,506 L 1006,505 L 1007,506 L 1008,505 L 1011,508 L 1010,509 L 1008,509 L 1007,510 L 1006,509 L 1005,510 Z M 759,505 L 761,507 L 763,507 L 764,508 L 764,509 L 761,512 L 760,511 L 756,511 L 755,510 L 755,509 Z M 682,490 L 694,490 L 695,491 L 695,492 L 694,493 L 694,495 L 693,496 L 693,498 L 692,499 L 692,500 L 691,501 L 691,502 L 690,503 L 690,504 L 688,506 L 687,506 L 682,501 L 681,501 L 678,498 L 679,497 L 679,496 L 680,495 L 680,494 L 681,493 L 681,491 Z M 611,491 L 612,490 L 624,490 L 625,491 L 625,493 L 626,494 L 626,496 L 627,497 L 627,498 L 622,503 L 621,503 L 618,506 L 617,506 L 616,505 L 616,504 L 615,503 L 615,501 L 614,500 L 614,499 L 613,498 L 613,497 L 612,496 L 612,492 Z M 2000,487 L 2001,488 L 2001,493 L 2002,494 L 2002,499 L 2001,500 L 2000,499 L 2000,495 L 1999,494 L 1999,488 Z M 1873,486 L 1874,487 L 1875,487 L 1876,488 L 1875,489 L 1875,495 L 1876,495 L 1877,496 L 1876,497 L 1877,496 L 1878,497 L 1878,499 L 1879,499 L 1880,500 L 1880,501 L 1881,502 L 1881,504 L 1882,505 L 1882,509 L 1881,510 L 1881,511 L 1880,512 L 1880,513 L 1879,514 L 1879,516 L 1880,517 L 1879,518 L 1880,518 L 1881,517 L 1882,518 L 1884,518 L 1885,519 L 1884,520 L 1885,519 L 1886,520 L 1886,521 L 1884,523 L 1881,520 L 1878,520 L 1875,517 L 1875,516 L 1876,515 L 1876,514 L 1877,513 L 1877,512 L 1878,511 L 1878,510 L 1879,509 L 1879,504 L 1871,496 L 1871,489 L 1872,488 L 1872,487 Z M 1711,511 L 1715,507 L 1716,508 L 1719,508 L 1718,508 L 1716,506 L 1716,505 L 1719,502 L 1720,502 L 1722,504 L 1723,504 L 1722,504 L 1720,502 L 1723,499 L 1724,500 L 1723,499 L 1725,497 L 1726,497 L 1728,495 L 1729,495 L 1731,493 L 1732,493 L 1733,492 L 1734,492 L 1735,491 L 1736,491 L 1739,489 L 1741,489 L 1742,488 L 1744,488 L 1745,487 L 1747,487 L 1748,486 L 1752,486 L 1753,485 L 1773,485 L 1774,486 L 1778,486 L 1779,487 L 1782,487 L 1783,488 L 1785,488 L 1788,490 L 1790,490 L 1791,491 L 1792,491 L 1794,493 L 1795,493 L 1796,494 L 1795,495 L 1796,494 L 1797,494 L 1799,496 L 1800,496 L 1803,499 L 1804,499 L 1814,509 L 1814,510 L 1813,511 L 1811,511 L 1810,512 L 1812,512 L 1814,510 L 1817,513 L 1817,514 L 1819,516 L 1819,517 L 1818,518 L 1817,517 L 1815,517 L 1813,519 L 1811,517 L 1811,516 L 1808,513 L 1808,512 L 1800,504 L 1799,504 L 1796,501 L 1795,501 L 1793,499 L 1792,499 L 1791,498 L 1790,498 L 1787,496 L 1785,496 L 1782,494 L 1780,494 L 1779,493 L 1776,493 L 1775,492 L 1771,492 L 1770,491 L 1757,491 L 1756,492 L 1752,492 L 1751,493 L 1748,493 L 1747,494 L 1745,494 L 1744,495 L 1742,495 L 1741,496 L 1740,496 L 1737,498 L 1735,498 L 1733,500 L 1732,500 L 1730,502 L 1729,502 L 1724,507 L 1723,507 L 1719,511 L 1719,512 L 1717,514 L 1714,512 L 1713,512 L 1712,513 L 1711,512 Z M 1550,512 L 1551,511 L 1551,510 L 1553,508 L 1554,509 L 1558,509 L 1557,508 L 1555,508 L 1554,507 L 1558,503 L 1560,505 L 1562,505 L 1561,504 L 1559,504 L 1558,503 L 1562,499 L 1563,500 L 1562,499 L 1564,497 L 1565,497 L 1566,498 L 1567,497 L 1566,496 L 1567,495 L 1568,495 L 1570,493 L 1571,493 L 1572,492 L 1573,492 L 1574,491 L 1575,491 L 1576,490 L 1578,490 L 1579,489 L 1580,489 L 1581,488 L 1583,488 L 1584,487 L 1586,487 L 1587,486 L 1591,486 L 1592,485 L 1613,485 L 1614,486 L 1618,486 L 1619,487 L 1621,487 L 1622,488 L 1624,488 L 1625,489 L 1627,489 L 1628,490 L 1629,490 L 1630,491 L 1631,491 L 1632,492 L 1633,492 L 1634,493 L 1635,493 L 1636,494 L 1637,494 L 1640,497 L 1641,497 L 1644,500 L 1642,502 L 1641,502 L 1642,502 L 1644,500 L 1645,500 L 1649,504 L 1648,505 L 1645,505 L 1643,507 L 1641,505 L 1640,505 L 1637,502 L 1636,502 L 1634,500 L 1633,500 L 1632,499 L 1631,499 L 1630,498 L 1629,498 L 1628,497 L 1627,497 L 1626,496 L 1625,496 L 1624,495 L 1623,495 L 1622,494 L 1620,494 L 1619,493 L 1616,493 L 1615,492 L 1610,492 L 1609,491 L 1596,491 L 1595,492 L 1590,492 L 1589,493 L 1587,493 L 1586,494 L 1584,494 L 1583,495 L 1581,495 L 1580,496 L 1579,496 L 1578,497 L 1577,497 L 1576,498 L 1575,498 L 1574,499 L 1573,499 L 1572,500 L 1571,500 L 1568,503 L 1567,503 L 1561,509 L 1560,509 L 1560,510 L 1555,515 L 1554,514 L 1552,514 Z M 1392,505 L 1395,502 L 1400,503 L 1397,501 L 1401,497 L 1415,489 L 1429,485 L 1450,485 L 1464,489 L 1473,494 L 1472,495 L 1474,494 L 1483,501 L 1480,503 L 1484,502 L 1487,505 L 1485,507 L 1483,507 L 1485,508 L 1488,506 L 1491,510 L 1489,512 L 1487,512 L 1489,513 L 1492,511 L 1496,517 L 1495,519 L 1494,518 L 1492,518 L 1492,519 L 1495,520 L 1496,518 L 1499,524 L 1530,524 L 1536,528 L 1541,529 L 1546,517 L 1548,515 L 1549,516 L 1551,514 L 1553,515 L 1554,514 L 1555,516 L 1549,525 L 1546,533 L 1545,543 L 1544,544 L 1544,554 L 1545,555 L 1546,564 L 1551,576 L 1555,582 L 1567,594 L 1564,597 L 1562,605 L 1561,606 L 1549,606 L 1546,603 L 1546,600 L 1543,593 L 1541,591 L 1536,591 L 1533,594 L 1531,602 L 1529,605 L 1528,604 L 1529,605 L 1528,606 L 1513,606 L 1510,602 L 1507,593 L 1505,591 L 1501,591 L 1498,593 L 1496,601 L 1493,606 L 1487,606 L 1486,607 L 1481,606 L 1479,604 L 1477,596 L 1475,596 L 1471,600 L 1466,602 L 1463,606 L 1449,606 L 1448,605 L 1449,604 L 1454,604 L 1455,603 L 1460,604 L 1457,603 L 1463,601 L 1475,594 L 1486,583 L 1494,570 L 1497,558 L 1498,547 L 1497,546 L 1497,539 L 1495,530 L 1491,521 L 1485,512 L 1474,502 L 1459,494 L 1446,491 L 1433,491 L 1418,495 L 1408,500 L 1398,508 Z M 1330,513 L 1327,514 L 1325,517 L 1313,504 L 1306,499 L 1295,494 L 1283,491 L 1264,492 L 1254,495 L 1240,503 L 1230,513 L 1222,526 L 1218,540 L 1218,556 L 1223,573 L 1231,585 L 1240,594 L 1258,603 L 1251,605 L 1249,603 L 1250,602 L 1249,601 L 1248,602 L 1246,600 L 1242,599 L 1238,595 L 1236,597 L 1236,600 L 1233,606 L 1220,606 L 1216,602 L 1214,594 L 1211,591 L 1206,591 L 1202,597 L 1201,603 L 1197,607 L 1196,606 L 1183,606 L 1177,592 L 1171,591 L 1167,597 L 1166,603 L 1164,605 L 1160,604 L 1163,604 L 1164,605 L 1163,606 L 1153,606 L 1151,604 L 1149,597 L 1147,595 L 1157,586 L 1163,578 L 1168,568 L 1171,556 L 1170,536 L 1167,526 L 1159,513 L 1160,512 L 1165,511 L 1168,516 L 1164,517 L 1167,518 L 1168,516 L 1170,518 L 1172,524 L 1203,524 L 1210,529 L 1214,530 L 1218,521 L 1222,522 L 1218,521 L 1222,514 L 1223,515 L 1227,514 L 1225,514 L 1223,512 L 1226,508 L 1230,510 L 1231,509 L 1229,509 L 1227,507 L 1231,503 L 1233,505 L 1235,505 L 1231,503 L 1236,498 L 1245,492 L 1254,488 L 1266,485 L 1286,485 L 1307,492 L 1311,495 L 1310,496 L 1311,497 L 1313,496 L 1314,497 L 1313,498 L 1314,497 L 1318,500 L 1317,501 L 1318,502 L 1319,501 L 1321,503 L 1318,506 L 1322,504 L 1325,507 L 1322,510 L 1324,510 L 1326,508 Z M 1164,509 L 1163,511 L 1160,511 L 1159,513 L 1150,504 L 1143,499 L 1132,494 L 1125,492 L 1120,492 L 1119,491 L 1101,492 L 1091,495 L 1081,500 L 1063,518 L 1057,531 L 1056,539 L 1055,540 L 1055,546 L 1054,547 L 1056,562 L 1060,573 L 1067,584 L 1077,593 L 1075,598 L 1075,603 L 1072,606 L 1061,606 L 1059,604 L 1056,593 L 1054,591 L 1050,591 L 1047,594 L 1046,600 L 1043,606 L 1031,606 L 1028,603 L 1027,596 L 1024,591 L 1020,591 L 1017,593 L 1015,598 L 1015,601 L 1012,606 L 1002,606 L 1001,605 L 1002,604 L 1009,604 L 1002,604 L 1001,605 L 997,597 L 987,603 L 985,601 L 998,593 L 1008,583 L 1016,569 L 1017,564 L 1018,563 L 1019,564 L 1018,563 L 1018,560 L 1019,559 L 1020,546 L 1019,545 L 1019,538 L 1018,537 L 1017,530 L 1015,527 L 1015,525 L 1017,522 L 1018,523 L 1019,521 L 1021,524 L 1045,524 L 1050,528 L 1052,528 L 1054,521 L 1057,517 L 1059,519 L 1061,518 L 1058,518 L 1057,517 L 1061,510 L 1063,513 L 1065,512 L 1061,510 L 1068,502 L 1082,492 L 1102,485 L 1123,485 L 1137,489 L 1146,494 L 1145,495 L 1147,494 L 1150,496 L 1151,499 L 1152,498 L 1156,501 L 1154,503 L 1152,503 L 1155,502 L 1158,505 L 1156,507 L 1159,506 L 1160,507 L 1161,506 Z M 913,507 L 913,506 L 919,500 L 920,500 L 923,497 L 924,497 L 926,495 L 927,495 L 929,493 L 930,493 L 931,492 L 932,492 L 933,491 L 934,491 L 935,490 L 936,490 L 937,489 L 939,489 L 940,488 L 942,488 L 943,487 L 946,487 L 947,486 L 950,486 L 951,485 L 972,485 L 973,486 L 977,486 L 978,487 L 980,487 L 981,488 L 983,488 L 984,489 L 985,489 L 986,490 L 988,490 L 989,491 L 990,491 L 991,492 L 992,492 L 994,494 L 995,494 L 997,496 L 998,496 L 999,497 L 998,498 L 999,497 L 1000,497 L 1005,502 L 1006,502 L 1007,503 L 1007,504 L 1006,505 L 1005,504 L 1002,507 L 1001,507 L 996,502 L 995,502 L 993,500 L 992,500 L 991,499 L 990,499 L 989,498 L 988,498 L 987,497 L 986,497 L 985,496 L 984,496 L 983,495 L 981,495 L 980,494 L 978,494 L 977,493 L 974,493 L 973,492 L 969,492 L 968,491 L 955,491 L 954,492 L 949,492 L 948,493 L 946,493 L 945,494 L 942,494 L 941,495 L 940,495 L 939,496 L 938,496 L 937,497 L 935,497 L 934,498 L 933,498 L 931,500 L 930,500 L 928,502 L 927,502 L 923,506 L 922,506 L 921,505 L 920,505 L 919,504 L 918,504 L 918,505 L 921,505 L 922,506 L 918,510 L 916,508 L 914,508 Z M 760,504 L 766,498 L 767,498 L 769,496 L 770,496 L 772,494 L 773,494 L 775,492 L 776,492 L 777,491 L 778,491 L 779,490 L 781,490 L 782,489 L 783,489 L 784,488 L 786,488 L 787,487 L 790,487 L 791,486 L 795,486 L 796,485 L 816,485 L 817,486 L 821,486 L 822,487 L 824,487 L 825,488 L 824,489 L 823,489 L 824,489 L 825,488 L 827,488 L 828,489 L 830,489 L 831,490 L 832,490 L 833,491 L 834,491 L 835,492 L 836,492 L 837,493 L 838,493 L 839,494 L 840,494 L 842,496 L 843,496 L 846,499 L 845,500 L 846,499 L 847,499 L 857,509 L 857,510 L 858,511 L 857,512 L 855,512 L 853,514 L 843,504 L 842,504 L 839,501 L 838,501 L 836,499 L 835,499 L 834,498 L 833,498 L 832,497 L 831,497 L 830,496 L 829,496 L 828,495 L 826,495 L 825,494 L 823,494 L 822,493 L 819,493 L 818,492 L 813,492 L 812,491 L 799,491 L 798,492 L 793,492 L 792,493 L 789,493 L 788,494 L 787,494 L 786,495 L 784,495 L 783,496 L 782,496 L 781,497 L 780,497 L 779,498 L 778,498 L 777,499 L 776,499 L 775,500 L 774,500 L 771,503 L 770,503 L 766,507 L 765,507 L 764,506 L 762,506 Z M 1882,476 L 1883,477 L 1883,479 L 1882,480 L 1882,482 L 1880,484 L 1880,485 L 1879,486 L 1877,484 L 1880,481 L 1880,479 L 1881,478 L 1881,477 Z M 1980,473 L 1982,475 L 1982,476 L 1983,477 L 1983,478 L 1984,479 L 1984,481 L 1985,482 L 1985,485 L 1986,486 L 1985,487 L 1984,487 L 1983,486 L 1980,486 L 1979,487 L 1970,487 L 1969,486 L 1969,482 L 1970,481 L 1971,481 L 1974,478 L 1975,478 Z M 597,473 L 598,474 L 598,491 L 597,492 L 596,491 L 596,474 Z M 1903,472 L 1912,481 L 1911,482 L 1912,483 L 1913,482 L 1914,483 L 1914,484 L 1913,485 L 1913,486 L 1912,487 L 1901,487 L 1900,486 L 1898,486 L 1897,485 L 1898,484 L 1898,482 L 1899,481 L 1899,479 L 1900,478 L 1900,477 L 1901,476 L 1901,475 L 1902,474 L 1902,473 Z M 1991,464 L 1993,464 L 1994,465 L 1994,466 L 1995,467 L 1995,469 L 1998,472 L 1998,475 L 1999,476 L 1999,479 L 2000,480 L 2000,483 L 2001,484 L 2000,485 L 2000,487 L 1999,488 L 1998,487 L 1998,482 L 1997,481 L 1997,479 L 1996,478 L 1996,477 L 1995,476 L 1995,474 L 1994,473 L 1994,472 L 1993,471 L 1993,470 L 1992,469 L 1992,468 L 1991,467 L 1991,466 L 1990,465 Z M 688,459 L 689,459 L 690,460 L 690,461 L 691,462 L 691,463 L 692,464 L 692,466 L 693,467 L 693,468 L 694,469 L 694,471 L 695,472 L 695,474 L 694,475 L 682,475 L 681,474 L 681,472 L 680,471 L 680,470 L 679,469 L 679,468 L 683,464 L 684,465 L 685,464 L 684,463 Z M 618,459 L 619,460 L 620,460 L 622,462 L 622,463 L 627,468 L 627,470 L 626,471 L 626,472 L 625,473 L 625,474 L 624,475 L 612,475 L 611,474 L 611,473 L 612,472 L 612,470 L 613,469 L 613,467 L 614,466 L 614,465 L 615,464 L 615,463 L 616,462 L 616,461 Z M 1885,456 L 1886,457 L 1885,458 L 1886,459 L 1885,460 L 1885,463 L 1886,464 L 1886,465 L 1887,466 L 1887,470 L 1886,471 L 1886,472 L 1885,473 L 1885,474 L 1884,475 L 1884,476 L 1883,477 L 1882,476 L 1882,474 L 1883,473 L 1883,468 L 1882,467 L 1882,463 L 1881,462 L 1881,460 L 1883,458 L 1883,457 L 1884,456 Z M 1951,451 L 1954,451 L 1955,452 L 1957,452 L 1958,453 L 1959,453 L 1960,454 L 1961,454 L 1962,455 L 1963,455 L 1964,456 L 1964,457 L 1962,459 L 1962,460 L 1958,464 L 1958,465 L 1955,468 L 1951,468 L 1950,467 L 1950,459 L 1951,458 L 1951,453 L 1950,452 Z M 1930,451 L 1932,451 L 1933,452 L 1932,453 L 1932,467 L 1931,468 L 1929,468 L 1922,461 L 1922,460 L 1919,457 L 1922,454 L 1923,454 L 1924,453 L 1925,453 L 1926,452 L 1929,452 Z M 660,454 L 660,442 L 661,441 L 662,441 L 663,442 L 662,443 L 663,444 L 666,444 L 667,443 L 669,443 L 670,444 L 671,444 L 672,445 L 673,445 L 674,446 L 673,447 L 674,446 L 675,446 L 677,448 L 668,457 L 666,457 L 665,456 L 663,456 L 662,455 L 661,455 Z M 644,441 L 645,442 L 645,454 L 643,456 L 641,456 L 640,457 L 638,457 L 636,455 L 637,454 L 640,454 L 637,454 L 636,455 L 629,448 L 632,445 L 633,445 L 634,444 L 635,444 L 636,443 L 638,443 L 639,442 L 642,442 L 643,441 Z M 1909,437 L 1910,438 L 1910,439 L 1908,441 L 1907,441 L 1903,445 L 1903,446 L 1902,447 L 1902,449 L 1901,450 L 1901,451 L 1895,457 L 1894,457 L 1892,455 L 1893,454 L 1894,454 L 1895,453 L 1895,452 L 1896,451 L 1896,447 L 1897,446 L 1898,446 L 1901,443 L 1901,442 L 1903,440 L 1904,440 L 1906,438 L 1907,438 L 1908,437 Z M 646,539 L 669,536 L 692,524 L 709,488 L 705,462 L 691,443 L 695,442 L 661,427 L 1952,430 L 1974,440 L 1987,454 L 1971,441 L 1946,435 L 1912,444 L 1909,433 L 1901,432 L 1895,437 L 1878,433 L 1863,438 L 1857,433 L 1848,438 L 1842,433 L 1781,437 L 1777,432 L 1702,437 L 1698,431 L 1669,437 L 1663,432 L 1653,437 L 1645,432 L 1630,434 L 1636,436 L 1551,432 L 1528,437 L 1512,432 L 1499,437 L 1496,432 L 1376,436 L 1368,431 L 1342,436 L 1217,432 L 1208,437 L 1205,432 L 1180,431 L 1174,436 L 1166,432 L 1096,436 L 1095,431 L 1085,436 L 1075,431 L 1066,436 L 1062,432 L 1038,436 L 1035,431 L 989,436 L 980,431 L 967,435 L 935,431 L 931,436 L 915,431 L 901,436 L 886,429 L 867,436 L 857,431 L 829,435 L 766,431 L 761,436 L 741,431 L 730,436 L 734,434 L 701,430 L 687,433 L 705,450 L 714,471 L 714,495 L 704,517 L 717,524 L 756,519 L 748,554 L 761,585 L 742,595 L 738,576 L 724,586 L 717,581 L 716,565 L 699,573 L 696,555 L 681,563 L 672,558 L 674,542 L 654,548 Z M 1880,351 L 1881,350 L 1920,350 L 1921,351 L 1920,352 L 1918,352 L 1917,353 L 1894,353 L 1893,352 L 1881,352 Z M 1736,351 L 1737,350 L 1863,350 L 1864,351 L 1864,352 L 1863,353 L 1862,352 L 1859,352 L 1858,353 L 1814,353 L 1813,352 L 1790,352 L 1789,353 L 1757,353 L 1756,352 L 1746,352 L 1745,353 L 1739,353 L 1738,352 L 1737,352 Z M 1687,351 L 1688,350 L 1719,350 L 1720,351 L 1721,350 L 1722,351 L 1722,352 L 1721,353 L 1700,353 L 1699,352 L 1688,352 Z M 1509,352 L 1509,351 L 1510,350 L 1622,350 L 1623,351 L 1622,352 L 1608,352 L 1607,353 L 1534,353 L 1533,352 L 1531,352 L 1530,353 L 1512,353 L 1511,352 L 1510,353 Z M 1462,352 L 1464,350 L 1493,350 L 1494,351 L 1494,352 L 1493,353 L 1490,353 L 1489,352 L 1478,352 L 1477,353 L 1463,353 Z M 1672,350 L 1670,352 L 1668,352 L 1667,353 L 1644,353 L 1643,352 L 1642,353 L 1641,352 L 1640,352 L 1639,351 L 1640,350 L 1669,350 L 1670,349 L 1671,349 Z M 1676,290 L 1678,292 L 1678,293 L 1677,294 L 1677,298 L 1676,299 L 1676,336 L 1677,337 L 1677,344 L 1676,345 L 1675,345 L 1674,344 L 1674,295 L 1673,294 L 1673,292 L 1674,291 L 1675,291 Z M 808,200 L 809,201 L 809,238 L 808,239 L 807,238 L 807,201 Z M 140,198 L 144,198 L 145,199 L 151,199 L 152,200 L 158,200 L 161,203 L 161,204 L 162,205 L 162,206 L 161,207 L 161,210 L 162,211 L 162,218 L 161,219 L 161,222 L 159,224 L 158,224 L 157,225 L 155,225 L 154,226 L 146,226 L 145,227 L 141,227 L 140,226 L 141,225 L 144,225 L 140,225 L 139,226 L 138,225 L 138,224 L 137,223 L 137,202 L 138,201 L 139,202 L 139,204 L 139,202 L 138,201 L 138,200 L 139,199 L 140,200 L 139,199 Z M 92,198 L 114,198 L 116,200 L 116,201 L 117,202 L 117,223 L 116,224 L 115,223 L 113,225 L 103,225 L 113,225 L 114,226 L 113,227 L 93,227 L 92,226 L 91,226 L 90,225 L 90,224 L 89,223 L 89,201 Z" fill="black" fill-rule="evenodd"/>
</svg>