<?xml version="1.0" encoding="UTF-8" standalone="no"?>
<svg
   width="800"
   height="250"
   viewBox="0 0 800 250"
   version="1.1"
   id="svg2"
   sodipodi:docname="is_1_black.svg"
   inkscape:version="1.4.2 (f4327f4, 2025-05-13)"
   xmlns:inkscape="http://www.inkscape.org/namespaces/inkscape"
   xmlns:sodipodi="http://sodipodi.sourceforge.net/DTD/sodipodi-0.dtd"
   xmlns="http://www.w3.org/2000/svg"
   xmlns:svg="http://www.w3.org/2000/svg">
  <defs
     id="defs2" />
  <sodipodi:namedview
     id="namedview2"
     pagecolor="#ffffff"
     bordercolor="#000000"
     borderopacity="0.25"
     inkscape:showpageshadow="2"
     inkscape:pageopacity="0.0"
     inkscape:pagecheckerboard="0"
     inkscape:deskcolor="#d1d1d1"
     inkscape:zoom="1.1123389"
     inkscape:cx="475.5745"
     inkscape:cy="63.379967"
     inkscape:window-width="2560"
     inkscape:window-height="1377"
     inkscape:window-x="-8"
     inkscape:window-y="-8"
     inkscape:window-maximized="1"
     inkscape:current-layer="svg2" />
  <path
     d="m 730.37228,155.52844 -0.37994,-0.37994 h -0.37993 l -0.37994,-0.37993 -0.37993,0.37993 h -1.13981 l -0.37993,0.37994 h -0.37994 l -0.75987,0.75986 h -0.37993 l -0.37993,0.37995 h -0.37994 l -0.37994,0.37993 h -0.37992 v 0.75987 l 0.37992,0.37993 h 0.75988 l 0.75986,-0.75988 h 0.37995 l 0.37992,-0.37992 h 1.51974 l 0.37994,-0.37993 h 1.1398 l 0.37994,-0.37995 z"
     fill="#000000"
     fill-rule="evenodd"
     id="path1"
     style="stroke-width:0.379934" />
  <path
     d="m 779.76379,164.26694 -18.6168,-27.35531 -1.1398,-13.67763 -11.01811,-1.89969 -11.77798,-9.8783 -7.21876,-0.37994 -0.37993,3.41942 -4.17928,-14.05758 H 553.32271 l -3.41941,19.75659 -3.79935,-15.19738 -39.13326,-2.27961 2.65953,-4.179276 16.3372,-2.279612 9.11843,-17.856915 8.7385,-1.89969 -8.7385,-1.139788 -2.65954,-10.258242 -7.21876,-2.279612 -3.41941,-8.7385 -10.63816,-4.939148 -0.37995,-3.419409 -15.19738,-0.759874 -5.69903,-13.297715 -28.11516,-2.659535 -1.51975,-6.458897 -6.07895,0.759874 -2.27961,6.458887 -9.87829,-1.899671 -7.97863,7.21876 -1.89967,7.978626 -4.55923,-0.379933 -1.89967,-6.458895 -5.31908,1.89968 v 5.31908 l -26.97537,2.279613 -4.55921,-6.458896 h -7.97862 l -4.93916,7.978634 -38.75333,3.799342 -14.0576,11.777977 -19.7566,3.79935 -223.781518,-0.759873 -39.133273,-6.83882 -12.537844,1.139797 -3.419413,9.498374 2.279608,12.917778 24.315822,1.899678 29.634906,-6.838833 222.641712,3.799357 3.41941,3.799335 15.95726,0.75988 20.51648,15.957242 -25.45562,0.37994 -6.07896,6.07896 -34.19412,8.35856 -4.55921,-9.87831 -9.87832,-1.89967 v 18.99674 l -8.35855,6.45888 -30.77471,4.55922 -15.57732,16.71713 12.53785,8.73849 -4.55922,11.39805 1.51974,12.1579 9.49835,12.53784 58.88989,30.39479 396.27188,0.37993 67.24843,-23.55595 12.91777,-15.95725 -0.75987,-20.89641 7.5987,1.89967 z m -110.18106,56.61026 0.37994,-0.37993 h 1.89966 l 0.37995,-0.37994 h 0.75986 l 0.37993,0.37994 h 0.75988 l 0.37993,0.37993 -0.37993,0.37994 h -4.17928 z m -60.40962,0 0.37994,-0.37993 h 1.89968 l 0.37992,-0.37994 h 0.37993 l 0.37996,0.37994 h 1.51973 l 0.37993,0.37993 -0.37993,0.37994 h -4.55922 z m -12.53784,0 0.37993,-0.37993 h 1.51974 l 0.37994,-0.37994 h 1.1398 l 0.37994,0.37994 h 1.51974 l 0.37994,0.37993 -0.37994,0.37994 h -4.93916 z m -124.61857,0 0.37993,-0.37993 h 1.89967 l 0.37994,-0.37994 h 0.75987 l 0.37993,0.37994 h 1.89968 l 0.37993,0.37993 -0.37993,0.37994 h -5.31909 z m -49.39151,0 0.37992,-0.37993 h 1.89969 l 0.37993,-0.37994 h 0.75986 l 0.37994,0.37994 h 1.1398 l 0.37994,0.37993 -0.37994,0.37994 h -4.55922 z m -11.77798,0 0.37994,-0.37993 h 1.1398 l 0.37994,-0.37994 h 0.75987 l 0.37992,0.37994 h 1.89969 l 0.37992,0.37993 -0.37992,0.37994 h -4.55922 z m -45.21223,0 0.37994,-0.37993 h 1.51974 l 0.37992,-0.37994 h 0.75988 l 0.37993,0.37994 h 1.13981 l 0.37994,0.37993 -0.37994,0.37994 h -4.17928 z m -70.28791,0 0.75986,-0.75987 h 0.75988 l 0.37993,0.37994 h 1.89967 l 0.37994,0.37993 -0.37994,0.37994 h -3.4194 z m 238.59897,-0.37993 0.37994,-0.37994 v -0.37994 l 0.37994,-0.37992 h 0.75987 l 0.37992,0.37992 h 0.75989 l 0.37992,0.37994 h 0.75988 l 0.37993,0.37994 h 1.89967 l 0.37993,0.37993 -0.37993,0.37994 h -5.31908 z m 122.71891,-1.1398 0.37992,-0.37995 h 0.37996 l 0.37993,0.37995 h 0.75987 l 0.37994,0.37992 h 0.75986 l 0.37993,0.37994 h 0.75988 l 0.37992,0.37994 h 1.51974 l 0.37994,0.37993 -0.37994,0.37994 h -4.93914 l -0.75989,-0.75987 v -0.37994 l -0.37992,-0.37994 z m -165.27158,0 -1.1398,1.1398 -0.37995,-0.37994 0.37995,0.37994 -0.75988,0.75987 h -4.55922 l -0.37993,-0.37994 0.37993,-0.37993 h 1.89968 l 0.37993,-0.37994 h 0.75987 l 0.37994,0.37994 h 0.37992 -0.37992 l -0.37994,-0.37994 0.37994,-0.37994 h 0.75987 l 0.37993,-0.37992 h 0.37993 l 0.37995,-0.37995 h 0.75985 z m -81.68596,0 0.37993,-0.37995 h 0.37994 l 0.37993,0.37995 h 0.37994 l 0.37993,0.37992 h 0.75987 l 0.37994,0.37994 -0.37994,0.37994 h -1.1398 l -0.37994,0.37993 -1.1398,-1.13981 z m -58.13001,-0.37995 0.37994,-0.37994 h 0.37993 l 0.37993,0.37994 h 0.37994 l 0.37994,0.37995 h 0.37993 l 0.37992,0.37992 -0.37992,0.37994 h -0.75987 l 0.37994,0.37994 h 1.51974 l 0.37992,-0.37994 h 0.75988 l 0.37993,0.37994 h 1.51975 l 0.37992,0.37993 -0.37992,0.37994 h -4.93916 l -1.1398,-1.13981 v -0.75986 z m 80.16622,-0.75986 -0.75987,0.75986 h -0.37993 l -0.37995,0.37995 h -0.37992 l -0.37994,0.37992 h -0.37994 l -0.75986,0.75988 -0.37994,-0.37994 -0.37994,0.37994 h -1.1398 l -0.37994,-0.37994 0.37994,-0.37994 h 0.75987 l 0.37993,-0.37992 h 0.37994 l 0.37994,-0.37995 h 0.75986 l 0.37994,-0.37994 h 0.37994 l 0.37992,-0.37992 h 0.37995 l 0.37993,-0.37993 h 0.37993 z m -115.88008,-0.37993 -1.1398,1.13979 h -0.37994 l -0.37994,0.37995 h -0.37993 l -0.37992,0.37992 h -0.37995 l -1.1398,1.13981 h -0.37994 l -0.37993,-0.37993 0.37993,-0.37994 -0.37993,0.37994 h -0.75986 0.75986 l 0.37993,0.37993 -0.37993,0.37994 h -4.55922 l -0.37992,-0.37994 0.37992,-0.37993 h 1.89967 l 0.37995,-0.37994 h 0.75985 l 0.37995,-0.37994 h 0.75986 l 0.37994,-0.37992 h 0.75987 l 0.75986,-0.75989 h 0.75989 l 0.37992,-0.37992 h 0.37993 l 0.37994,-0.37993 h 0.37994 l 0.37993,-0.37995 h 0.37993 z m -29.25497,-3.79936 1.89967,1.89967 -0.37993,0.37995 h -0.75987 l 0.37994,0.37993 h 0.75986 l -0.37993,-0.37993 0.37993,-0.37995 h 0.37994 l 1.89967,1.89969 -0.75987,0.75985 v 0.37994 l -0.37994,0.37995 v 0.37992 l -0.37992,0.37994 -0.75988,-0.75986 h -1.51974 l -0.37993,0.37992 h -0.37993 l -0.37995,-0.37992 v -2.27962 l 0.37995,-0.37993 v -2.27961 z m 454.02195,-13.29771 -0.37994,0.37994 h -0.37993 l -0.37994,0.37994 h -1.1398 l -0.37994,0.37993 h -0.75987 l -0.37992,0.37992 -0.75989,-0.75985 0.37994,-0.37994 h 1.1398 l 0.37994,-0.37994 h 1.1398 l 0.37994,-0.37993 h 0.75987 z m -74.84714,-6.45889 h 1.51973 l 0.37995,0.37994 h 0.75986 l 0.75987,0.75987 h 0.37994 l 0.75986,0.75986 v 0.37993 l 0.75989,0.75988 v 1.13981 l 0.37992,0.37993 v 1.51974 l -0.37992,0.37993 v 0.75988 l -2.27962,2.2796 h -0.37994 l -0.37992,0.37994 h -3.03948 l -0.37994,-0.37994 h -0.37994 l -0.37993,-0.37994 h -0.37993 l -1.13981,-1.13981 v -0.37992 l 0.37993,-0.37993 -0.37993,0.37993 -0.37992,-0.37993 v -0.75988 l -0.37995,-0.37993 v -2.27962 l 0.37995,-0.37993 v -0.37993 l 0.37992,-0.37992 v -0.37996 l 1.51974,-1.51974 h 0.37993 l 0.37994,-0.37992 h 0.75987 z m -60.78955,0 h 1.1398 l 0.37995,0.37994 h 0.75986 l 0.37992,0.37992 h 0.37995 l 0.37994,0.37995 h 0.37992 l 1.13981,1.13979 v 0.37996 l 0.37994,0.37992 v 0.75986 l 0.37992,0.37995 v 1.89967 l -0.37992,0.37993 v 0.37994 l -0.37994,0.37994 v 0.37993 l -1.89967,1.89967 h -0.37995 l -0.37992,0.37994 h -3.03947 l -0.37994,-0.37994 h -0.37993 l -0.37994,-0.37994 h -0.37994 l -1.51973,-1.51973 v -0.37993 l -0.37993,-0.37994 v -1.1398 l -0.37994,-0.37995 v -0.75986 l 0.37994,-0.37993 v -0.75988 l 0.37993,-0.37993 v -0.37992 l 0.37992,-0.37996 0.37995,0.37996 -0.37995,-0.37996 1.51975,-1.51974 h 0.37994 l 0.37993,-0.37992 h 0.75986 z m -61.92936,0 h 1.51975 l 0.37993,0.37994 h 0.75988 l 0.37992,0.37992 h 0.37993 l 1.51976,1.51974 v 0.37996 l 0.37992,0.37992 v 0.75986 l 0.37994,0.37995 v 1.89967 l -0.37994,0.37993 v 0.37994 l -0.37992,0.37994 v 0.37993 l -1.89969,1.89967 h -0.75987 l -0.37993,-0.37994 h -1.89968 1.89968 l 0.37993,0.37994 -0.37993,0.37994 h -2.65954 l -0.37994,-0.37994 h -0.75986 l -1.89968,-1.89967 v -0.37993 l -0.37994,-0.37994 v -0.75987 l -0.37993,-0.37993 v -1.13981 l 0.37993,-0.37993 v -0.75988 l 0.37994,-0.37993 v -0.37992 l 1.89968,-1.8997 h 0.37993 l 0.37993,-0.37992 h 0.75988 z m -62.30928,0 h 1.1398 l 0.37995,0.37994 h 1.1398 l 0.37993,0.37992 h 0.37993 l 1.51974,1.51974 v 0.37996 l 0.37994,0.37992 v 0.75986 l 0.37993,0.37995 v 1.89967 l -0.37993,0.37993 v 0.75988 l -0.75987,0.75985 v 0.37995 l -0.37994,0.37994 h -0.37993 l -0.75987,0.75986 h -0.37993 l -0.37994,0.37994 h -3.03947 l -0.37995,-0.37994 h -0.37992 l -0.37994,-0.37994 h -0.37994 l -1.51973,-1.51973 v -0.37993 l -0.37994,-0.37994 v -0.75987 l -0.37993,-0.37993 v -1.13981 l 0.37993,-0.37993 v -0.75988 l 0.37994,-0.37993 v -0.37992 l 1.89967,-1.8997 h 0.37994 l 0.37992,-0.37992 h 0.75988 z m -61.92934,0 h 1.51973 l 0.37994,0.37994 h 0.75986 l 0.37994,0.37992 h 0.37993 l 0.75986,0.75989 -0.37992,0.37992 0.37992,-0.37992 0.75989,0.75985 v 0.37996 l 0.37992,0.37992 v 0.75986 l 0.37993,0.37995 v 1.89967 l -0.37993,0.37993 v 0.75988 l -1.13981,1.1398 -0.37992,-0.37995 0.37992,0.37995 -1.13979,1.1398 h -0.75988 l -0.37992,0.37994 h -2.27962 l -0.37993,-0.37994 0.37993,-0.37994 h 1.51973 -1.51973 l -0.37993,0.37994 h -0.75987 l -0.37994,-0.37994 h -0.37992 l -1.51975,-1.51973 v -0.37993 l -0.37993,-0.37994 v -3.41942 l 0.37993,-0.37993 v -0.37992 l 1.89967,-1.8997 h 0.37994 l 0.37995,-0.37992 h 0.75985 z m -57.37015,0 h 1.13981 l 0.37993,0.37994 h 0.75987 l 0.37994,0.37992 h 0.37993 l 0.37993,0.37995 h 0.37995 l 0.75986,0.75986 v 0.37993 l 0.37993,0.37996 v 0.37992 l 0.37994,0.37993 v 3.41942 l -0.37994,0.37994 v 0.37993 l -1.13979,1.13981 -0.37995,-0.37994 0.37995,0.37994 -0.37995,0.37992 h -0.37993 l -0.37993,-0.37992 0.37993,0.37992 -0.37993,0.37994 h -0.37994 l -0.37994,0.37994 h -2.65954 l -0.37993,-0.37994 h -0.75987 l -1.89968,-1.89967 v -0.37993 l -0.37993,-0.37994 v -1.1398 l -0.37993,-0.37995 v -0.75986 l 0.37993,-0.37993 v -0.75988 l 0.37993,-0.37993 v -0.37992 l 0.37995,-0.37996 v -0.37993 l 0.75985,-0.75986 h 0.37995 l 0.37993,-0.37995 h 0.37993 l 0.37994,-0.37992 h 0.75987 z m -59.26982,0 h 1.51975 l 0.37994,0.37994 h 0.75987 l 0.37992,0.37992 h 0.37995 l 1.51975,1.51974 v 0.37996 l 0.37992,0.37992 v 0.75986 l 0.37993,0.37995 v 2.2796 l -0.37993,0.37994 v 0.37994 l -0.75988,0.75985 v 0.37995 l -0.37993,0.37994 h -0.37992 l -0.75989,0.75986 h -0.37992 l -0.37994,-0.37994 h -1.51973 1.51973 l 0.37994,0.37994 -0.37994,0.37994 h -3.03947 l -0.37995,-0.37994 h -0.37993 l -0.37993,-0.37994 h -0.37993 l -1.13981,-1.13981 v -0.37992 l -0.37993,-0.37993 v -0.37994 l -0.37994,-0.37994 v -2.65955 l 0.37994,-0.37993 v -0.37993 l 0.37993,-0.37992 v -0.37996 l 1.51974,-1.51974 h 0.37993 l 0.37993,-0.37992 h 0.75988 z m -66.8685,-0.37992 0.37994,-0.37995 h 0.37994 l 0.37993,0.37995 h 0.75988 l 0.37992,0.37992 h 0.75987 l 0.37994,0.37994 h 0.75987 l 0.37993,0.37992 h 1.89968 l 0.37993,0.37995 -0.37993,0.37994 h -3.41942 l -0.37993,-0.37994 h -0.37994 l -0.37992,-0.37995 h -0.37995 l -0.37993,-0.37992 h -0.37993 z m 493.91509,-4.17929 h 1.13981 l 0.37992,0.37993 v 5.69903 l -0.37992,0.37992 -0.37994,-0.37992 h -1.1398 l -0.37994,-0.37994 h -0.37993 l -0.37994,-0.37995 h -0.37993 l -0.37994,-0.37992 h -0.37992 l -0.75988,-0.75986 v -0.37995 l 3.03948,-3.03948 v -0.37993 z m 9.8783,-0.37994 0.37994,0.37994 v 0.37993 l 1.13981,1.13981 v 0.37993 l 1.51973,1.51973 v 0.37994 l 0.37994,0.37995 -0.75987,0.75986 h -0.37993 l -0.37995,0.37992 h -0.37992 l -0.37994,0.37995 h -0.75987 l -0.37994,0.37994 h -1.1398 l -0.37994,-0.37994 v -4.93916 l 0.75988,-0.75986 h 0.37993 z m 15.1974,-1.1398 0.75987,0.75986 v 0.37994 l -0.75987,0.75987 v 0.37993 l -1.13981,1.13981 v 0.37992 l -1.1398,1.13981 -0.37994,-0.37992 v -0.75989 l 1.13981,-1.13979 v -0.37994 l 0.37993,-0.37993 v -0.37993 l 0.75987,-0.75988 v -0.37993 z m -75.22707,29.25496 1.89967,-1.51974 0.37995,0.75988 h 1.1398 l -1.51975,-0.75988 2.27961,-2.2796 v -0.37993 l 1.51973,-1.51975 0.37994,-1.1398 0.75987,-0.75987 1.1398,-2.2796 0.37995,-2.27962 0.37992,-0.37992 v -1.13981 l 0.37993,-0.37994 v -2.2796 l 0.37995,-0.37994 -0.37995,-6.07895 -0.37993,-0.37994 -0.75987,-3.03947 -1.51973,-2.65955 0.37993,-0.75986 h 1.51975 l 0.37992,-0.37995 1.13981,1.89968 v 0.75987 h 1.89967 l 0.37993,0.37993 v 1.89968 l 0.37994,0.75986 2.2796,1.89967 h 7.21877 l 0.37993,-0.37992 1.51973,-0.37994 1.89969,-1.89967 0.37993,-1.51974 0.37994,-0.37994 h 6.45888 l 0.37994,0.37994 1.1398,-1.1398 1.13981,1.51974 v 0.75985 l -0.75987,1.13981 0.37993,1.51975 1.1398,0.75987 2.27961,-0.37995 1.13981,1.13981 0.37994,0.75989 v 1.13978 l 0.75986,1.13981 0.75987,0.37993 h 1.51974 l 0.75987,-0.75986 h 0.75986 l 0.37995,0.37993 -0.75987,0.37993 1.51973,-0.37993 1.51975,1.51974 h 1.13979 l 0.75987,-0.37993 0.37994,0.37993 3.41942,0.37994 0.37993,0.37994 -0.37993,0.37993 h -0.75988 l -1.51974,2.27961 -1.51974,0.37993 -0.37993,0.37994 h -1.13981 l -0.37992,-0.37994 -0.37995,0.37994 -3.03947,-3.79935 h -1.51975 l -1.13978,1.13979 v 4.55922 l -0.37995,0.37995 -0.37993,-0.37995 h -1.13981 l -0.37993,0.37995 h 0.75987 l 0.37994,0.37993 -1.51975,0.75985 -1.13981,-1.13978 -0.75985,-1.51975 -1.51975,-1.51973 -1.1398,-0.37994 -1.89967,1.13981 v 5.31908 l -0.75988,0.75987 h -0.75986 l -2.65955,1.13981 -1.51973,-0.75988 -1.13981,-2.2796 -1.1398,-1.13981 h -1.51974 l -1.51974,1.13981 0.37993,4.17928 -0.37993,0.37993 h -1.51974 1.1398 l 0.37994,0.37993 -0.37994,0.37994 h -1.51974 l -1.13981,-1.1398 -0.37993,-1.1398 -1.1398,-1.13981 -1.1398,-0.37994 -0.75988,0.75987 v 4.93916 l -0.75986,0.75986 h -0.75987 l -1.51974,0.75988 h -1.51974 l -1.13981,-1.13981 -1.1398,-2.27961 -0.75986,-0.75987 h -1.51975 l -1.13981,1.13981 -0.37992,0.75986 v 3.41941 l -0.75986,1.13981 -0.37995,-0.37994 v -1.13981 h -0.75985 l -0.37995,0.75989 h -0.75986 z m -176.66963,-30.77469 0.37993,0.37992 v 0.37993 l 0.75987,0.75988 v 0.75986 l -0.37993,0.37994 -0.37994,-0.37994 h -0.37993 l -0.37994,0.37994 v 0.37994 l -0.37993,0.37993 -0.37994,-0.37993 v -0.37994 l -0.75987,-0.75987 v -0.37993 l -0.37993,-0.37993 v -0.37995 l 0.37993,-0.37993 h 0.75987 l 0.37994,-0.37992 0.37993,0.37992 z m 143.99524,-0.75989 0.37993,0.37994 0.37995,-0.37994 h 0.37993 l 0.37992,0.37994 h 0.37995 l 0.37994,0.37995 -0.37994,0.37992 v 0.37993 l -0.37995,0.37995 v 0.37993 l -0.75985,0.75986 -0.37995,-0.37993 v -0.37993 h -0.37993 l -0.37993,-0.37993 -0.37994,0.37993 -0.37993,-0.37993 v -0.37995 l 0.37993,-0.37993 v -0.37992 z m -325.22408,0 0.37992,0.37994 h 0.37995 l 0.75986,-1.1398 1.13981,1.51975 v 0.37992 l 0.75986,0.75988 0.75988,2.2796 h 11.0181 l 1.51973,1.13981 h 1.13981 v -0.75988 l 1.13981,-1.89967 0.37994,0.37993 v 0.37994 h 1.13981 v -0.37994 h -1.13981 l -0.37994,-0.37993 0.37994,-1.13981 1.13981,-1.51974 0.37992,0.37994 v 0.37995 h 1.13981 l 0.37993,-0.37995 0.37992,0.37995 v 0.37992 l -0.75985,0.75988 v 0.37993 l -2.27962,4.17928 v 0.75986 l -0.37992,0.37994 v 1.13981 l -0.37994,0.37992 v 1.8997 l -0.37993,0.37992 v 3.79935 l 0.37993,0.37994 v 2.2796 l 0.37994,0.37994 v 0.75987 l 0.37992,0.37992 v 0.75989 l 0.37994,0.37992 0.37995,1.89966 0.75985,0.75989 0.37996,1.1398 0.75985,0.75987 v 0.37993 l 0.75988,0.75988 v 0.37992 l 3.79933,3.79936 v 0.37993 l -0.75986,1.13981 v 1.51974 l -1.13981,1.89967 h -4.5592 l -0.37995,-0.37994 v -0.75987 l -0.37994,-0.37994 v -0.75987 l -0.37992,-0.37994 -0.37994,-1.89966 -1.13981,-1.13981 h -1.51973 l -0.75987,0.75988 v 0.37993 l -0.37994,0.37993 v 0.75988 l -0.37993,0.37993 v 0.75986 l -0.37993,0.37995 v 0.75986 l -1.13981,1.13981 h -4.55922 l -1.13981,-1.51975 v -1.13981 l -0.37992,-0.37992 v -0.75988 l -0.37993,-0.37993 -0.37996,-1.13981 h -0.37992 l -0.37993,-0.37993 h -1.13981 l -1.13981,0.75988 v 0.37993 l -0.37993,0.37993 v 1.13981 l -0.37993,0.37992 v 1.13981 l -1.13981,1.51975 h -4.17929 l -0.75985,-0.75987 v -0.75988 l -0.37995,-0.37992 v -0.75989 l -0.37993,-0.37992 v -0.37993 l -0.37993,-0.37995 -0.37993,0.37995 h -0.37994 l -0.37994,-0.37995 0.75988,-0.75986 h 0.37993 l 3.79934,-3.79936 v -0.37993 l 1.51975,-1.89967 1.51975,-3.4194 0.37992,-0.37995 0.37993,0.37995 -0.37993,-0.37995 v -0.75985 l 0.37993,-0.37995 v -1.1398 l 0.37993,-0.37993 v -1.1398 l 0.37995,-0.37994 v -6.4589 l -0.37995,-0.37992 v -1.51975 l -0.37993,-0.37992 v -0.75989 l -0.37993,-0.37992 -0.37992,-1.89968 -0.75989,-1.1398 v -0.37994 l 1.13981,-1.1398 h -1.13981 l -0.37992,0.37993 -1.51975,-1.89966 v -0.37995 z m -37.61354,-1.1398 0.37993,0.37994 h 0.37994 l 0.37994,0.37994 h 0.37993 l 0.37994,0.37992 v 0.37994 l -1.13981,1.1398 v 0.37995 l -0.37994,0.37993 -0.37993,-0.37993 v -0.37995 h -0.37992 l -0.37996,-0.37993 -0.37993,0.37993 -0.37992,-0.37993 v -0.37992 l 0.37992,-0.37995 v -0.37994 z m -47.87177,2.65954 2.65954,-2.65954 0.37994,0.37994 h 1.51974 l 0.37993,-0.37994 h 0.75988 l 0.37993,0.37994 v 4.55922 l -0.37993,0.37993 h -1.51975 l -0.37993,-0.37993 h -0.75987 l -0.37994,-0.37994 h -0.37993 l -0.37994,-0.37994 h -0.37992 l -0.37995,-0.37993 h -0.37993 l -0.75987,-0.75986 z m 387.53338,-2.2796 1.51974,-0.75987 1.51974,1.89967 -1.51974,0.75987 h 1.1398 l 0.37994,-0.75987 1.51974,2.65954 -0.37994,0.75988 0.37994,-0.37994 0.37992,0.75987 h 11.77799 l 2.27961,1.89966 h 1.1398 l 0.75987,-1.51973 v -0.75986 l 1.1398,-1.89967 0.37993,0.75986 h 1.1398 l 0.37995,0.37993 -1.51975,3.03947 -0.37993,-0.75985 0.37993,1.51974 -0.37993,0.37992 v 1.13981 l -0.37994,0.37994 v 1.51973 l -0.37992,0.37993 v 5.69902 l 0.37992,0.37995 v 1.51974 l 0.37994,0.37993 v 1.1398 l 0.37993,0.37995 v 0.75985 l 1.89968,3.79935 2.2796,2.65955 v 0.37993 l 2.27961,2.2796 0.75988,0.37995 -1.1398,1.51974 v 1.51974 l -1.13981,1.89967 h -4.55922 l -1.13981,-1.89967 v -1.13981 l -0.37992,-0.37993 v -0.75988 l -1.13981,-1.51974 h -1.89967 l -0.75988,0.75988 -0.37993,1.51974 -0.37993,0.37993 v 0.75986 l -0.37994,0.37995 v 0.75986 l -0.37993,0.37994 -0.37994,-0.75988 -0.37993,0.75988 0.37993,-0.37994 0.37994,0.37994 -0.37994,0.75987 H 633.109 l -1.13979,-1.13981 v -1.13981 l -0.37996,-0.37994 v -0.75985 l -0.75985,-1.51974 -0.75988,-0.75988 h -1.51974 l -1.1398,1.13981 v 0.75986 l -0.75987,1.1398 v 1.13981 l -1.13981,1.51975 h -4.17928 l -0.37994,-0.37994 0.37994,-0.37993 h 1.1398 -1.1398 l -0.37994,0.37993 -1.13979,-1.89968 -0.37994,-1.51974 -1.1398,1.1398 h -0.37995 l -0.75985,0.75989 -1.51974,0.37992 -0.75988,0.75988 -1.13981,-0.75988 4.55923,-2.27961 4.17927,-3.79934 v -0.37993 l 2.27962,-2.65955 1.51974,-3.03947 v -0.75988 l 0.37993,-0.37993 v -0.75987 l 0.75987,-1.51973 v -2.27961 l 0.37994,-0.37993 v -4.55921 l -0.37994,-0.37996 v -1.51974 l -0.37994,-0.37992 v -1.13981 l -0.37993,-0.37994 -0.37993,-1.89966 -1.51974,-3.03948 -1.89967,-2.27962 z m -244.298,-0.75987 0.75987,0.75987 0.37993,-0.37994 h 0.37994 v -0.37993 l 0.37994,-0.37994 1.13981,1.13981 v 0.37994 l 0.75985,0.75986 v 0.37995 l 0.37993,0.37992 v 0.37993 l 0.75988,0.75988 v 0.75986 l -0.37993,0.37994 h -0.37995 l -0.37993,0.37994 v 0.37993 l -0.37993,0.37993 -0.37992,-0.37993 v -0.37993 l -0.75989,-0.75988 v -0.37993 l -0.37992,-0.37993 v -0.37993 l -0.75988,-0.75988 v -0.37992 l -1.51973,-1.51975 v -0.37994 z m -128.79786,-0.37994 2.65953,2.65956 v 0.37992 l 0.75989,0.75988 -0.75989,0.75986 h -0.37992 l -0.75987,0.75987 h -0.75987 l -0.37993,0.37994 h -0.75988 l -0.37993,-0.37994 h -0.75987 0.75987 l 0.37993,0.37994 -0.37993,0.37993 h -0.75987 l -0.37994,0.37993 -0.75985,-0.75986 v -4.55922 l 0.37992,-0.37994 h 0.75987 l 0.37994,0.37994 -0.37994,0.37994 h -0.37994 0.37994 l 0.37994,-0.37994 h 0.37993 -0.37993 l -0.37994,-0.37994 0.37994,-0.37993 h 0.75986 z m 93.46393,-0.37992 0.37992,0.37992 v 0.37994 h 1.13981 l 0.37994,0.37993 v 0.37994 l -1.51975,1.51975 -0.37992,-0.37995 h -1.51974 l -0.37992,-0.37994 v -0.37992 z m 74.84713,0.37992 0.37995,-0.37992 h 0.37993 l 0.37993,-0.37994 h 0.37992 l 0.75989,0.75986 v 0.37994 l -0.75989,0.75987 h -0.75985 l -0.75988,-0.75987 z m -116.63994,0.37994 0.37992,-0.37994 v -0.37992 l 0.37996,-0.37994 h 0.75985 l 0.75988,0.75986 v 0.37994 l -0.75988,0.75987 h -0.75985 z m 443.38377,-1.51975 h 3.41941 l 0.37994,0.37995 h 1.51974 l 0.37993,0.37994 -0.37993,0.37992 v 1.13981 l -0.37994,0.37994 v 0.37992 l -0.37993,0.37994 v 0.37995 l -1.13981,1.1398 h -0.37993 l -3.79935,-3.79936 v -0.37992 z m -22.03621,0 0.75986,0.75989 v 1.13979 l -1.89966,1.89969 h -0.37995 l -1.89966,1.89966 -0.37993,-0.37993 v -0.37993 l -0.37994,-0.37995 v -0.37993 l -0.37994,-0.37992 v -0.37995 l -0.37993,-0.37994 v -1.1398 l -0.37994,-0.37993 v -0.75986 l 0.37994,-0.37994 h 2.65954 l 0.37994,-0.37995 z m -102.20244,0.75989 0.37994,-0.37994 h 1.1398 l 0.37995,-0.37995 0.75986,0.75989 0.37994,-0.37994 0.75987,0.75986 -0.37994,0.37994 h -0.37993 l -0.37994,0.37993 h -0.75986 l -0.37995,0.37994 z m -93.46392,0 0.37993,0.37992 -2.2796,2.65956 v 0.37992 l -1.51974,1.89967 -0.75987,1.89968 -0.37994,0.37994 -0.37993,-0.75988 -0.37994,0.37994 -0.37993,-0.37994 -0.37993,0.37994 v 0.37994 l 0.37993,-0.37994 0.37993,0.37994 0.37994,-0.37994 0.37993,0.37994 v 0.75985 l -0.75987,1.51975 v 1.13981 l -0.37993,0.37992 v 1.8997 l -0.37993,0.37992 v 4.17929 l 0.37993,0.37993 v 1.89967 l 0.37993,0.37994 v 1.13979 l 0.37994,0.37994 0.37993,1.89968 1.13981,2.2796 0.75987,0.75987 0.75987,1.51975 1.51974,1.51973 v 0.37993 l 2.27961,2.27962 -0.75987,1.13979 v 1.1398 l -0.37994,0.37994 -0.37994,1.51975 -0.75986,0.75987 h -4.55922 l -1.1398,-1.51975 v -0.75987 l -0.75988,-1.51974 v -0.75986 l 0.37993,-0.37993 0.37995,0.37993 -0.37995,-0.37993 -0.37993,0.37993 -0.37992,-0.75988 -0.75989,-0.37993 h -1.89967 l -1.13981,1.13981 -0.37992,-0.37993 0.37992,0.37993 v 0.75986 l -0.75985,1.51974 v 1.13981 l -1.51974,1.51974 -0.37994,-0.37993 h -5.31909 l -1.13981,-1.13981 -0.37992,-1.51975 -0.75988,-1.1398 v -0.75986 l -1.13981,-1.13981 h -1.51973 l -1.1398,1.13981 -0.37994,0.75986 v 1.1398 l -0.37993,0.37994 v 1.13981 l -0.75986,0.75987 -0.37995,-0.37993 h -3.41941 3.41941 l 0.37995,0.37993 -0.37995,0.37994 h -3.79934 l -1.1398,-1.13981 v -1.13981 l -0.37994,-0.37994 v -0.75985 l -0.75987,-0.75988 3.41942,-3.03948 v -0.37993 l 2.65953,-3.03948 1.89968,-3.79935 v -0.75985 l 0.37993,-0.37995 v -1.1398 l 0.37994,-0.37993 v -1.51974 l 0.37993,-0.37995 v -5.69902 l -0.37993,-0.37993 v -1.51973 l -0.37994,-0.37994 v -1.13981 l -1.1398,-2.2796 v -0.75987 l 0.37993,-0.37993 h 1.13981 l 0.37993,-0.75988 0.75987,1.13981 h 11.77798 l 1.89967,1.51974 1.89967,0.75987 0.75987,-1.1398 v -0.75988 l 1.51974,-3.03948 0.37994,-0.37993 0.37993,0.75988 h 1.13981 l -1.51974,-0.75988 0.75987,-1.51973 0.75987,-0.75988 0.37993,0.75988 h 1.13981 l 0.37993,-0.37994 h -0.75987 l -0.75987,-0.75987 0.75987,-0.75986 v -0.37994 l 0.37994,-0.37995 0.37993,0.75989 z m -150.07419,0 0.37993,-0.37994 h 0.75987 l 0.37993,-0.37995 0.37993,0.37995 0.37994,-0.37995 1.13981,1.13981 -0.37994,0.37994 h -0.75987 l -0.37994,0.37993 -0.37993,-0.37993 -0.37993,0.37993 z m -92.32414,-0.75989 0.75986,0.75989 h 0.75988 l 0.37993,0.37992 v 0.37994 l -1.13981,1.13981 -0.37992,-0.37994 h -1.51975 l -0.37993,-0.37994 v -0.37993 z m -29.25498,-5.69901 h 4.55923 l 0.37994,0.37995 v 0.37992 l -0.37994,0.37993 v 0.75988 l -0.37994,0.37993 v 0.75987 l -0.37993,0.37994 v 0.37993 l -0.37994,0.37993 v 0.37993 l -0.37994,0.37995 v 0.37993 l -0.75986,0.75987 h -0.37993 l -1.89969,-1.89968 h -0.37992 l -1.13981,-1.1398 0.37994,-0.37994 v -0.37993 l 0.37993,-0.37993 v -0.37994 l 0.37994,-0.37994 v -0.75985 z m -26.97535,0.37995 0.37993,-0.37995 h 4.55922 l 0.37994,0.37995 v 0.75985 l 0.37992,0.37994 v 0.75987 l 0.37995,0.37993 v 0.37994 l -1.89968,1.89968 h -0.37993 l -1.13981,1.1398 h -0.37992 l -0.37995,-0.37995 v -0.37992 l -0.37994,-0.37993 v -0.75988 l -0.37992,-0.37993 v -0.37993 l -0.37994,-0.37994 v -0.37994 l -0.37994,-0.37993 v -1.51974 z m 527.72927,-1.51975 0.37993,0.37994 v 1.89966 l 0.37995,0.37994 v 1.89968 l -0.37995,0.37993 -0.37993,-0.37993 v -1.51974 l -0.37993,-0.37994 v -2.2796 z m -48.2517,-0.37994 0.37993,0.37994 h 0.37994 l 0.37993,0.37994 -0.37993,0.37992 v 2.27962 h 0.37993 l 0.37994,0.37993 -0.37994,0.37993 0.37994,-0.37993 0.37993,0.37993 v 0.75988 h 0.37993 l 0.37994,0.37993 v 0.37993 l 0.37994,0.37993 v 0.75988 l 0.37993,0.37992 v 1.51975 l -0.37993,0.37993 v 0.37994 l -0.37994,0.37994 v 0.37992 l -0.37994,0.37994 v 0.75987 l 0.37994,0.37993 -0.37994,0.37995 h 0.37994 l 0.37994,-0.37995 0.37993,0.37995 h 0.75987 l 0.37994,0.37993 -0.37994,0.37993 0.37994,-0.37993 0.37993,0.37993 v 0.37993 l -0.75987,0.75988 -1.1398,-1.13981 h -1.13981 l -1.1398,-1.13981 v -0.37993 l 0.37993,-0.37992 v -0.37995 l 0.37994,-0.37994 v -0.37992 l 0.37993,-0.37994 v -0.37994 l 0.37993,-0.37993 v -1.89967 l -3.03948,-3.03948 v -2.65955 l 0.37995,-0.37992 v -0.37994 z m -61.54943,9.49837 1.51975,-1.51973 0.37994,0.37992 h 1.13979 -0.37993 l -0.75986,-0.75986 v -0.37995 l 1.13979,-1.1398 h 0.37994 l 0.75986,0.75988 h 0.37994 -0.37994 l -0.75986,-0.75988 1.1398,-1.13979 0.37995,0.37993 -0.37995,-0.37993 0.75987,-0.75988 h 0.37993 l 0.75988,-0.75986 h 0.37993 l 0.75988,-0.75988 h 0.37993 l 0.37993,-0.37993 h 0.37993 l 0.37995,-0.37992 h 0.37993 l 1.13981,-0.75989 h 0.75985 l 0.37995,-0.37992 h 0.75986 l 0.37994,-0.37994 h 0.75987 l 0.37994,-0.37994 h 1.51973 l 0.37993,-0.37993 h 7.59869 l 0.37994,0.37993 h 1.51975 l 0.37993,0.37994 h 1.1398 l 0.37994,0.37994 h 0.75986 l 1.13981,0.75986 h 0.75987 l 0.37994,0.37995 h 0.37992 l 0.75988,0.75985 h 0.37993 l 0.37994,0.37994 -0.37994,0.37994 0.37994,-0.37994 h 0.37994 l 0.75987,0.75987 h 0.37992 l 1.13981,1.13981 h 0.37993 l 3.79935,3.79934 v 0.37993 l -0.37993,0.37994 h -0.75988 l -0.37992,0.37994 h 0.75986 l 0.75987,-0.75988 1.1398,1.1398 v 0.37994 l 0.75987,0.75987 v 0.37993 l -0.37992,0.37995 -0.37995,-0.37995 h -0.75986 l -0.75987,0.75988 -0.75988,-0.75988 v -0.37993 l -1.13981,-1.13981 v -0.37992 l -3.03947,-3.03948 h -0.37992 l -1.13981,-1.13981 h -0.37994 l -0.75987,-0.75986 h -0.37994 l -0.37992,-0.37994 h -0.37994 l -1.1398,-0.75987 h -0.75988 l -1.1398,-0.75987 h -0.75987 l -0.37993,-0.37994 h -1.13981 l -0.37992,-0.37993 h -1.51975 l -0.37994,-0.37992 h -4.93915 l -0.37993,0.37992 h -1.51974 l -0.37992,0.37993 h -1.13981 l -0.37994,0.37994 h -0.75987 l -0.37994,0.37994 h -0.75986 l -0.37995,0.37993 h -0.37992 l -1.13981,0.75987 h -0.75986 l -0.75988,0.75987 h -0.37993 l -0.75988,0.75986 h -0.37993 l -1.89966,1.89969 h -0.37995 l -1.51974,1.51973 v 0.37994 l -0.75987,0.75986 -1.13981,-0.75986 h -0.37992 l -0.37993,0.37992 -0.37995,-0.37992 z m -61.16948,0.37994 0.37995,-0.37994 v -0.37994 l 0.75985,-0.75987 0.37994,0.37994 h 1.51974 l -0.37994,-0.37994 h -0.75986 l -0.37994,-0.37992 1.51974,-1.51974 0.75987,0.75985 h 0.75987 l -0.37994,-0.37992 h -0.75986 l -0.37994,-0.37993 1.51974,-1.51974 0.37994,0.37993 -0.37994,-0.37993 0.75987,-0.75988 h 0.37992 l 0.37996,0.37994 0.37993,-0.37994 -0.37993,-0.37993 0.37993,-0.37993 h 0.37992 l 0.75989,-0.75988 h 0.37992 l 0.37994,-0.37993 h 0.37992 l 0.37995,-0.37992 h 0.37994 l 0.37992,-0.37995 h 0.75989 l 0.37992,-0.37994 h 0.37993 l 0.37993,-0.37992 h 0.75988 l 0.37993,-0.37994 h 0.75988 l 0.37993,-0.37994 h 1.51974 l 0.37992,-0.37993 h 7.97864 l 0.37993,0.37993 h 1.51975 l 0.37992,0.37994 h 0.75989 l 0.37992,0.37994 h 0.75986 l 0.37995,0.37992 h 0.75986 l 0.37993,0.37994 h 0.37995 l 0.37993,0.37995 h 0.37993 l 0.37993,0.37992 h 0.37995 l 0.37993,0.37993 h 0.37992 l 0.37995,0.37994 h 0.37994 l 1.1398,1.1398 h 0.37993 l 1.1398,1.13981 -0.75986,0.75986 h -0.37994 0.37994 l 0.75986,-0.75986 h 0.37995 l 1.51973,1.51974 -0.37993,0.37992 h -1.1398 l -0.75989,0.75989 -0.75986,-0.75989 h -0.37993 l -1.1398,-1.1398 h -0.37994 l -0.75987,-0.75986 h -0.37993 l -0.37995,-0.37993 h -0.37993 l -0.37993,-0.37994 h -0.37993 l -0.37995,-0.37994 h -0.37993 l -0.37993,-0.37993 h -0.37993 l -0.37995,-0.37993 h -0.37993 l -0.37993,-0.37994 h -0.75988 l -0.37993,-0.37994 h -1.13981 l -0.37992,-0.37993 h -1.89967 l -0.37994,-0.37992 h -4.93915 l -0.37994,0.37992 h -1.89966 l -0.37994,0.37993 h -0.75987 l -0.37993,0.37994 h -0.75988 l -0.37993,0.37994 h -0.75988 l -0.37993,0.37993 h -0.37993 l -0.37992,0.37993 h -0.37996 l -0.37993,0.37994 h -0.37992 l -0.37994,0.37994 h -0.37995 l -0.37992,0.37993 h -0.37994 l -1.13981,1.13981 h -0.37992 l -2.27962,2.2796 h -0.37993 v 0.37993 l -1.89967,1.89969 -0.37994,-0.37995 h -0.75987 z m -60.02967,-2.65956 1.13979,-1.1398 1.89969,0.37995 -1.13981,-0.75988 1.51973,-1.51974 5.31909,-3.03948 5.31909,-1.51973 h 7.97862 l 5.3191,1.51973 3.4194,1.89968 -0.37992,0.37994 0.75985,-0.37994 3.41942,2.65954 -1.1398,0.75988 1.51974,-0.37995 1.1398,1.1398 -0.75987,0.75989 h -0.75987 l 0.75987,0.37992 1.13981,-0.75986 1.1398,1.51973 -0.75987,0.75988 h -0.75987 l 0.75987,0.37992 1.1398,-0.75986 1.51975,2.2796 -0.37995,0.75988 -0.37993,-0.37993 h -0.75987 v 0.37993 l 1.1398,0.37993 0.37995,-0.75986 1.1398,2.2796 h 11.77797 l 2.27961,1.51974 1.89966,0.37992 1.89968,-4.55921 0.75988,-0.75985 0.37992,0.37992 0.75989,-0.75987 0.75985,0.37995 0.37994,-0.37995 0.37994,0.75987 -2.27962,3.41941 -1.1398,3.03948 -0.37993,3.79935 -0.37994,0.37993 v 3.79936 l 0.37994,0.37993 0.37993,3.4194 1.89969,4.55922 1.51973,2.27962 4.55922,4.55921 -1.13981,1.13981 -0.75987,3.03947 -0.37994,0.37994 h -4.55922 l -1.1398,-1.13981 v -1.13981 l -1.13979,-2.65953 -0.75989,-0.75988 h -1.89966 l -1.13981,1.13981 -0.75986,3.03947 -0.75988,1.13981 -0.37993,-0.37993 0.37993,0.37993 -0.37993,0.37994 h -5.69902 l -1.13981,-1.51975 -1.1398,-3.4194 -0.75986,-0.75988 h -1.51975 l -1.13981,0.75988 -0.75985,3.03948 -1.13981,1.89967 h -2.27961 l -0.37994,0.37993 -1.89966,-0.37993 -0.75988,-0.75987 -0.75987,-3.03949 h -0.75986 l -1.51975,1.51974 -1.89967,0.75987 -1.1398,1.51975 h -5.31909 l -0.37993,-0.37994 0.37993,-0.37993 h 1.89967 l 0.37994,-0.37994 1.89968,0.37994 -1.13981,-0.37994 2.27961,-0.75986 4.55922,-2.65955 4.17927,-4.17929 3.03948,-4.93914 1.13981,-4.55921 0.37992,-4.17929 -0.37992,-0.37993 v -2.65954 l -0.75988,-3.41942 -1.51973,-3.41942 -2.27961,-3.4194 -4.17929,-3.79936 -5.69901,-3.03947 -4.93916,-1.13979 h -4.93914 l -5.69902,1.51973 -3.79934,1.89967 -3.79936,3.03947 z m -23.55596,3.03948 -1.13979,0.37994 -0.75988,1.1398 -4.55921,-4.93914 -2.65955,-1.89967 -4.17929,-1.89968 -4.55921,-1.13979 -7.21875,0.37992 -3.79934,1.13981 -5.3191,3.03948 -3.79935,3.79933 -3.03948,4.93916 -1.51973,5.31908 v 6.07895 l 1.89967,6.4589 3.03948,4.55922 3.41941,3.41941 6.83883,3.41941 -2.65954,0.75987 -0.75988,-0.75987 0.37994,-0.37994 -0.37994,-0.37992 -0.37992,0.37992 -0.75987,-0.75987 -1.51975,-0.37994 -1.51975,-1.51973 -0.75986,0.75988 v 1.13979 l -1.1398,2.27962 h -4.93916 l -1.51973,-1.51975 -0.75988,-3.03947 -1.13978,-1.13981 h -1.89969 l -1.51973,2.27962 -0.37994,2.2796 -1.51973,1.51974 -0.37994,-0.37993 h -4.93915 l -2.27962,-5.3191 -2.27961,-0.37993 -1.51973,2.27962 -0.37993,2.2796 -0.75987,0.75987 -1.51974,-0.37993 h 1.1398 l 0.37994,0.37993 -0.37994,0.37994 h -3.79935 l -0.75986,-0.75987 -0.75988,-2.65954 -0.75987,-0.75988 3.79936,-3.41941 2.2796,-3.03948 1.89967,-3.79935 1.1398,-4.55922 -0.37992,-7.59868 -1.13981,-3.79935 -3.03948,-4.93916 0.37994,-0.37992 1.89967,-0.37994 1.1398,1.89967 -1.51973,0.37993 1.1398,0.37995 0.37993,-0.75988 0.75988,0.75988 0.75987,2.2796 h 11.77798 l 2.65953,1.89966 1.51973,0.37995 1.51975,-3.41942 1.51973,0.37994 -1.51973,-0.37994 1.51973,-2.65954 0.37994,0.37995 1.51975,-0.37995 h -0.75988 l -0.75987,-0.75986 1.1398,-1.51975 1.51974,0.75987 0.37994,-0.37993 h -0.75987 l -0.75986,-0.75986 1.51973,-1.51974 0.75987,0.75985 h 0.75987 l -1.51974,-0.75985 1.89967,-1.89968 3.41942,-2.27961 3.41942,-1.51973 4.55921,-1.13981 h 7.59869 l 7.97863,2.65954 1.51975,1.13981 -0.37995,0.37993 0.37995,0.37993 0.75986,-0.37993 0.37992,0.37993 -0.37992,0.37994 0.37992,-0.37994 1.51975,1.13981 -0.37994,0.37993 0.37994,0.37993 0.37994,-0.37993 0.75987,0.75988 -1.13981,1.1398 1.51973,-0.75987 1.13981,1.13981 -1.13981,1.13979 h 0.75988 l 0.75986,-0.75987 z m -63.06915,-1.51973 -0.37994,0.75987 h -1.1398 l -0.37994,0.75986 -3.41941,-3.4194 -2.65954,-1.89967 -4.17928,-1.89968 -2.65955,-0.75987 h -1.89967 l -0.37993,-0.37992 -6.83883,0.37992 -3.79934,1.13981 -3.79934,1.89967 -6.83884,6.83883 -2.27959,4.93915 -0.37995,3.03948 -0.37994,0.37992 v 2.27962 l -0.37992,0.37993 0.75986,5.69902 1.51974,4.17928 2.65954,4.17927 3.79935,3.41943 -0.75987,1.89967 v 1.89967 l -1.1398,1.13981 h -4.17928 l -0.75988,-0.75987 -1.1398,-4.17928 -0.75986,-0.75988 h -1.51975 l -1.13981,1.13981 -0.37992,2.2796 -1.13981,2.27962 h -4.55922 l -1.13981,-1.13981 -0.37992,-2.65955 -1.13981,-1.89967 h -1.51975 l -1.1398,0.75988 -0.75986,1.89967 v 1.13981 l -1.13981,1.89967 h -3.79933 l -0.37995,-0.37994 0.37995,-0.37993 h 2.65953 -2.65953 l -0.37995,0.37993 -1.51973,-3.03947 -3.79934,2.2796 -0.75988,-0.75986 4.93915,-3.03948 3.79935,-3.79936 3.03947,-5.31907 0.37993,-1.89969 0.37995,-0.37992 0.37993,0.37992 -0.37993,-0.37992 v -1.13981 l 0.37993,-0.37994 0.37992,-4.93914 -0.37992,-0.37995 v -2.65953 l -0.37993,-0.37995 -0.37995,-2.65953 -0.75986,-1.1398 v -0.75988 l 0.75986,-1.1398 0.37995,0.37994 0.37993,-0.75988 0.75987,1.13981 h 9.11844 l 1.89966,1.51974 h 0.75987 l 0.75988,-2.65955 1.13981,-1.51974 0.75985,0.75988 0.75988,-0.37993 h -1.13981 l -0.37992,-0.37995 1.51973,-2.65954 0.75986,1.1398 0.75988,-0.37992 -1.51974,-0.75988 2.65953,-3.03948 5.31909,-3.79934 7.5987,-2.65954 h 7.97862 l 5.31909,1.51973 3.41942,1.89968 -0.37994,0.37994 0.75986,-0.37994 1.13981,0.75987 0.37994,1.13981 0.37993,-0.37994 1.51974,1.1398 -0.75986,0.75988 h -0.75988 l 1.1398,-0.37995 1.13981,1.1398 -0.75987,0.75989 1.1398,-0.37994 0.37994,0.37994 0.37993,-0.37994 z m -95.36361,-0.75986 v -0.37994 l 2.27962,-2.27961 h 0.37992 l 1.13981,-1.13981 h 0.37994 l 0.75986,-0.75986 h 0.37995 l 0.75985,-0.75988 h 0.37995 l 0.37993,-0.37993 h 0.37993 l 0.37993,-0.37992 h 0.37994 l 0.37994,-0.37995 h 0.37993 l 0.37993,-0.37994 h 0.75988 l 0.37993,-0.37992 h 0.75987 l 0.37994,-0.37994 h 1.1398 l 0.37993,-0.37994 h 1.1398 l 0.37995,-0.37993 h 7.97862 l 0.37993,0.37993 h 1.51973 l 0.37996,0.37994 h 0.75985 l 0.37995,0.37994 h 0.75986 l 0.37994,0.37992 h 0.37993 l 0.37994,0.37994 h 0.75986 l 0.37994,0.37995 h 0.37994 l 0.37993,0.37992 h 0.37993 l 0.75988,0.75987 h 0.37993 l 0.75987,0.75987 h 0.37993 l 0.37994,0.37993 -0.37994,0.37994 0.37994,-0.37994 h 0.37993 l 1.89968,1.89967 h 0.37993 l 0.37993,0.37995 v 0.37993 l -0.37993,0.37992 -0.37993,-0.37992 -1.1398,1.13981 h -0.37995 l -1.89967,-1.89969 h -0.37993 l -0.75987,-0.75986 h -0.37994 l -0.37993,-0.37993 h -0.37993 l -0.37994,-0.37994 h -0.37994 l -0.37992,-0.37994 h -0.37994 l -0.37994,-0.37993 h -0.37993 l -0.37994,-0.37993 h -0.75986 l -0.37995,-0.37994 h -0.75985 l -0.37996,-0.37994 h -1.13979 l -0.37994,-0.37993 h -1.51974 l -0.37993,-0.37992 h -4.93915 l -0.37993,0.37992 h -1.89968 l -0.37993,0.37993 h -0.75987 l -0.37994,0.37994 h -1.1398 l -0.37995,0.37994 h -0.37992 l -0.37993,0.37993 h -0.37994 l -0.37994,0.37993 h -0.75986 l -0.37994,0.37994 h -0.37994 l -0.75986,0.75987 h -0.37993 l -0.75988,0.75986 h -0.37992 l -1.51975,1.51975 h -0.37995 l -0.37992,-0.37995 h -0.37994 l -0.37992,-0.37992 h -0.37995 v 0.37992 h 1.13981 l 0.37992,0.37995 -1.51973,1.51973 -0.75986,-0.75987 h -0.75989 z m -58.13,-1.13981 2.27961,-2.27961 h 0.37993 l 0.75987,-0.75987 h 0.37994 l 0.75986,-0.75987 h 0.37994 l 0.75987,-0.75987 h 0.37993 l 0.37993,-0.37992 h 0.37995 l 0.37993,-0.37995 h 0.75987 l 0.37993,-0.37994 h 0.37993 l 0.37994,-0.37992 h 0.75987 l 0.37994,-0.37994 h 1.1398 l 0.37993,-0.37994 h 1.51974 l 0.37993,-0.37993 h 7.59869 l 0.37996,0.37993 h 1.51973 l 0.37993,0.37994 h 0.75987 l 0.37994,0.37994 -0.37994,0.37992 h -0.37995 0.37995 l 0.37994,-0.37992 h 0.75986 l 0.37993,0.37992 h 0.75988 l 0.37992,0.37994 h 0.37994 l 0.37995,0.37995 h 0.37992 l 0.37993,0.37992 h 0.37994 l 0.37994,0.37993 h 0.37993 l 0.37993,0.37994 h 0.37994 l 0.75987,0.75987 h 0.37993 l 1.13981,1.13981 -0.37993,0.37993 0.37993,-0.37993 h 0.37992 l 3.79937,3.79934 v 0.37993 l 0.37992,0.37994 -0.37992,0.37994 h -0.75989 l -0.75986,0.75986 -3.79935,-3.79934 h -0.37993 l -1.13981,-1.13981 h -0.37993 l -0.75987,-0.75986 h -0.37994 l -0.37993,-0.37994 h -0.37992 l -0.37995,-0.37994 h -0.37994 l -0.37992,-0.37993 h -0.37994 l -0.37994,-0.37993 h -0.75987 l -0.37992,-0.37994 h -0.75989 l -0.37992,-0.37994 h -1.13981 l -0.37993,-0.37993 h -1.89967 l -0.37995,-0.37992 h -4.93914 l -0.37993,0.37992 h -1.89968 l -0.37994,0.37993 h -1.1398 l -0.37994,0.37994 h -0.37992 l -0.37994,0.37994 h -0.75987 l -0.37994,0.37993 h -0.37993 l -0.37993,0.37993 h -0.37995 l -0.37992,0.37994 h -0.37993 l -0.37995,0.37994 h -0.37993 l -0.37993,0.37993 h -0.37994 l -1.13981,1.13981 h -0.37992 l -1.51974,1.51974 h -0.37994 l -0.37994,-0.37994 h -0.75986 z m 426.28671,-10.63817 0.37993,0.37993 v 0.75987 l -0.37993,0.37994 v 0.75986 l -0.75987,0.75987 v 0.37994 l -0.37994,0.37993 -0.75986,-0.75987 1.1398,-1.13981 v -0.75986 l 0.37994,-0.37995 v -0.37992 z m 37.2336,-1.13981 0.75987,0.75986 v 0.37995 l 0.37993,0.37993 v 0.37992 l 0.37994,0.37995 v 0.75986 l 0.37993,0.37994 v 1.13981 l 0.37993,0.37993 -0.37993,0.37994 h -0.37993 l -0.37994,-0.37994 h -1.1398 l -0.37994,0.37994 h -3.41941 l -0.37993,-0.37994 v -1.51974 l 0.37993,-0.37994 h 0.37993 l 1.13981,-1.13981 h 0.37994 z m -525.44966,0 0.37993,0.37993 v 6.45891 l -0.37993,0.37992 -0.37994,-0.37992 v -6.45891 z m 496.19469,-0.37992 3.41941,3.41939 -0.37994,0.37994 0.37994,0.37995 0.37994,-0.37995 0.37992,0.37995 v 0.37992 l -0.37992,0.37994 v 0.37993 l -0.37994,0.37994 h -4.17928 l -0.37994,-0.37994 h -0.75987 l -0.37993,-0.37993 0.37993,-0.37994 v -0.75987 l 0.37994,-0.37994 v -0.75986 l 0.37993,-0.37995 v -0.37992 l 0.37994,-0.37993 v -0.37995 l 0.37994,-0.37993 v -0.37993 z m 33.43425,-3.03948 h 0.75987 l 0.37994,0.37992 v 0.37994 l 0.37992,0.37993 v 0.75988 l 1.13981,1.13981 v 1.13978 l 0.37994,0.37995 v 1.1398 l 0.37993,0.37994 v 1.13981 l 0.37993,0.37992 -0.37993,0.37994 v 0.75987 l -0.37993,0.37994 -0.37994,-0.37994 v -1.89968 l -0.37994,-0.37994 v -0.75986 l -0.37992,-0.37995 v -0.37992 l -0.37995,-0.37993 v -0.75988 l -0.37992,-0.37993 v -0.37992 l -0.37994,-0.37995 v -0.37994 l -0.37994,-0.37992 v -0.37994 l -0.37993,-0.37994 v -0.37993 l -0.37993,-0.37994 z m -495.05489,-1.89969 h 0.37993 l 0.37993,0.37995 v 0.37993 l 0.37994,0.37992 v 0.37995 l 0.37994,0.37994 v 0.75986 l 0.37993,0.37993 v 0.37994 l 0.37994,0.37994 v 0.75986 l 0.37994,0.37995 v 0.75985 l -0.37994,0.37993 h -4.55923 l -0.37992,-0.37993 v -0.75985 l -0.37994,-0.37995 v -0.37994 l -0.37993,-0.37992 v -0.37994 l 1.51973,-1.51973 0.37995,0.37992 0.37992,-0.37992 -0.37992,-0.37994 z m -26.59543,0 0.37993,0.37995 h 0.37993 l 0.75988,0.75985 v 0.37995 l 1.89968,1.89967 v 0.75986 l -0.37995,0.37994 v 0.37995 l -0.37992,0.37992 v 0.37993 l -0.37994,0.37993 h -4.55922 l -0.37993,-0.37993 v -0.37993 l 0.37993,-0.37992 v -0.75989 l 0.37994,-0.37992 v -0.75988 l 0.37994,-0.37993 v -0.37994 l 0.37992,-0.37992 v -0.37994 l 0.37994,-0.37995 v -0.37992 z m 481.37725,-1.13979 0.37993,0.37993 -0.37993,0.37993 0.37993,0.37993 -0.37993,0.37995 v 1.1398 l 0.37993,0.37994 v 0.37992 l 0.37993,0.37994 v 1.51973 l -0.37993,0.37994 v 0.37995 l -0.37993,0.37992 v 0.37993 l -0.37994,0.37993 v 0.37995 l -0.37994,0.37993 -0.37993,-0.37993 v -0.75988 l 0.37993,-0.37993 v -1.89967 l -0.37993,-0.37994 v -1.51973 l -0.37993,-0.37995 v -0.75985 l 0.75986,-0.75988 v -0.37993 l 0.37994,-0.37993 z m 25.07568,-1.89968 h 1.1398 l 0.37994,0.37994 h 0.75987 l 0.37994,0.37993 h 0.37992 l 0.37995,0.37993 h 0.37993 l 0.37993,0.37994 h 0.37994 l 0.37994,0.37994 v 0.37993 l -0.75988,0.75986 v 0.37995 l -1.51973,1.51974 v 0.37992 l -1.13981,1.13981 h -1.51974 l -0.37994,-0.37994 v -3.03948 l 0.37994,-0.37993 v -1.89967 l -0.37994,-0.37993 z m -7.97863,0 h 0.75986 l 0.37995,0.37994 -0.37995,0.37993 v 5.31908 l -0.37992,0.37994 h -0.75987 l -2.65955,-2.65954 v -0.37993 l -1.1398,-1.13981 1.1398,-1.13981 h 0.37994 l 0.37993,-0.37993 h 0.37994 l 0.37993,-0.37993 h 1.13981 z m -482.51703,1.1398 v -4.55921 l 0.37992,-0.37994 h 0.37993 l 0.37994,0.37994 -0.37994,0.37993 0.37994,0.37994 h 1.1398 l 0.37994,-0.37994 h 0.75987 l 0.37993,0.37994 h 0.37994 l 0.37994,0.37994 h 0.37993 l 0.37992,0.37992 -0.37992,0.37994 0.37992,-0.37994 h 0.37995 l 0.75986,0.75988 -3.4194,3.41941 h -0.75988 l -0.37993,-0.37993 h -0.75987 l -0.37994,-0.37994 h -0.37993 z m -6.07896,-4.93915 0.37993,0.37994 v 4.55921 l -0.75987,0.75988 h -0.75987 l -0.37994,0.37993 h -0.75987 l -0.75987,-0.75987 0.37994,-0.37994 h 1.1398 -1.1398 l -0.37994,0.37994 -2.65954,-2.65954 1.1398,-1.1398 h 0.37995 l 0.37992,-0.37994 h 0.37994 l 0.37993,-0.37994 h 0.75987 l 0.37994,-0.37993 h 1.1398 l 0.37994,-0.37994 z m 480.61737,-1.51973 0.37993,0.37992 v 0.37995 l -0.75988,0.75986 h -0.37992 l -1.51974,1.51975 v 0.37992 l -0.37993,0.37994 v 0.75987 l -0.37994,0.37993 v 0.37994 l -2.27962,2.27961 h -0.37992 l -0.75988,-0.75987 0.37995,-0.37994 h 0.37993 l 0.37992,-0.37993 v -0.37993 l 0.37995,-0.37994 v -1.51974 l 0.37993,-0.37994 h 0.37993 l 1.13981,-1.1398 v -0.37993 l 0.75987,-0.75987 h 0.37993 l 0.75987,-0.75988 h 0.37994 l 0.37992,-0.37992 z m -479.85751,38.75334 8.7385,-1.13981 8.7385,-4.55922 6.45888,-13.67764 -1.51973,-9.87832 -5.31909,-7.21875 1.51975,-0.37993 -12.91779,-5.69902 490.49568,1.1398 8.35856,3.79935 4.93915,5.31908 -6.07896,-4.93915 -9.49837,-2.27961 -12.91777,3.41942 -1.1398,-4.17928 -3.03948,-0.37994 -2.27962,1.89968 -6.45888,-1.51974 -5.69902,1.89966 -2.27961,-1.89966 -3.41941,1.89966 -2.2796,-1.89966 -23.17603,1.51974 -1.51974,-1.89968 -28.49509,1.89968 -1.51975,-2.27961 -11.01809,2.27961 -2.27962,-1.89968 -3.79934,1.89968 -3.03947,-1.89968 -5.69903,0.75987 2.27961,0.75988 -32.29444,-1.51975 -8.73851,1.89968 -6.07895,-1.89968 -4.93915,1.89968 -1.1398,-1.89968 -45.59218,1.51975 -3.03948,-1.89968 -9.87829,1.89968 -47.49184,-1.51975 -3.4194,1.89968 -1.1398,-1.89968 -9.49838,-0.37993 -2.27961,1.89968 -3.03947,-1.51975 -26.59543,1.51975 -0.37993,-1.89968 -3.79935,1.89968 -3.79935,-1.89968 -3.41941,1.89968 -1.51974,-1.51975 -9.11843,1.51975 -1.13981,-1.89968 -17.47699,1.89968 -3.41942,-1.89968 -4.93914,1.51973 -12.15791,-1.51973 -1.51974,1.89968 -6.07895,-1.89968 -5.3191,1.89968 -5.69902,-2.65956 -7.21876,2.65956 -3.79933,-1.89968 -10.63818,1.51973 -23.93588,-1.51973 -1.89969,1.89968 -7.59869,-1.89968 -4.17927,1.89968 1.51973,-0.75988 -12.53785,-1.51974 -5.31907,1.13981 6.83882,6.45888 3.41942,7.97863 v 9.11844 l -3.79936,8.35855 4.93914,2.65955 14.81746,-1.89967 -3.03947,13.29772 4.93914,11.77797 -7.21875,3.79934 -1.51974,-7.21876 -5.31908,3.79935 -2.65956,-1.89968 -0.37992,-6.07895 -6.45888,3.03948 -1.13981,-6.83882 -5.69902,3.03948 -3.41941,-1.89967 0.75985,-6.07895 -7.59868,2.27959 z m 468.8394,-71.42773 0.37994,-0.37993 h 14.81744 l 0.37995,0.37993 -0.37995,0.37994 h -0.75986 l -0.37994,0.37993 h -8.73849 l -0.37993,-0.37993 h -4.55922 z m -54.71059,0 0.37993,-0.37993 h 47.87177 l 0.37994,0.37993 v 0.37994 l -0.37994,0.37993 -0.37994,-0.37993 h -1.13981 l -0.37992,0.37993 h -16.71713 l -0.37993,-0.37993 h -8.7385 l -0.37995,0.37993 h -12.1579 l -0.37993,-0.37993 h -3.79935 l -0.37993,0.37993 h -2.2796 l -0.37996,-0.37993 h -0.37992 z m -18.61681,0 0.37995,-0.37993 h 11.77796 l 0.37994,0.37993 0.37994,-0.37993 0.37992,0.37993 v 0.37994 l -0.37992,0.37993 h -7.97863 l -0.37993,-0.37993 h -4.17928 z m -67.62837,0.37994 v -0.37994 l 0.37993,-0.37993 h 42.55269 l 0.37993,0.37993 -0.37993,0.37994 h -5.3191 l -0.37992,0.37993 h -27.73523 l -0.37994,-0.37993 h -0.75986 l -0.37994,0.37993 h -6.83882 l -0.37995,-0.37993 -0.37993,0.37993 z m -17.85693,0 0.75988,-0.75987 h 11.0181 l 0.37993,0.37993 v 0.37994 l -0.37993,0.37993 h -1.13981 l -0.37993,-0.37993 h -4.17928 l -0.37994,0.37993 h -5.31908 z m 79.7863,-0.75987 -0.75988,0.75987 h -0.75988 l -0.37993,0.37993 h -8.7385 l -0.37994,-0.37993 -0.37992,0.37993 -0.37994,-0.37993 h -0.37993 l -0.37994,-0.37994 0.37994,-0.37993 h 11.01811 l 0.37993,-0.37994 h 0.37992 z m 1.51973,-22.79609 0.75987,0.75987 v 0.37994 l -0.37994,0.37993 v 1.51974 l -0.37993,0.37994 v 14.05758 l 0.37993,0.37994 v 2.65953 l -0.37993,0.37995 H 633.109 l -0.37994,-0.37995 v -18.6168 l -0.37993,-0.37993 v -0.75987 l 0.37993,-0.37993 h 0.37994 z m -329.78331,-34.194112 0.37994,0.379932 v 14.057593 l -0.37994,0.379929 -0.37994,-0.379929 V 67.38359 Z M 49.909266,66.243784 h 1.519738 l 0.379933,0.379941 h 2.279611 l 0.379933,0.379933 h 2.279614 l 1.139796,1.139805 v 0.379933 l 0.379942,0.379933 v 0.379932 l -0.379942,0.379942 v 1.139806 l 0.379942,0.379932 v 2.65955 l -0.379942,0.379929 v 1.139809 l -0.759864,0.759859 h -0.379932 l -0.379942,0.379929 h -0.759865 l -0.379933,0.37995 h -3.039477 l -0.379941,0.37993 h -1.519739 l -0.379932,-0.37993 0.379932,-0.37995 h 1.139806 -1.519738 l -0.379932,0.37995 -0.379942,-0.37995 v -0.379929 l -0.379932,-0.37993 v -7.978636 l 0.379932,-0.379932 0.379942,0.379932 v 0.759874 -0.759874 L 49.149392,67.38359 v -0.379932 l 0.379942,-0.379933 0.379932,0.379933 -0.379932,-0.379933 z m -18.236865,0 h 8.358563 l 0.75987,0.759874 v 0.379932 l 0.379934,0.379932 v 7.978636 l -0.379934,0.37993 -0.379935,-0.37993 -0.75987,0.759859 h -3.799347 3.799347 l 0.379935,0.37995 -0.379935,0.37993 h -7.598693 l -0.379935,-0.37993 h -0.379935 l -0.379935,-0.37995 v -0.379929 l -0.379933,-0.37993 V 67.38359 Z"
     fill="#000000"
     fill-rule="evenodd"
     id="path2"
     style="stroke-width:0.379934" />
</svg>
