<svg xmlns="http://www.w3.org/2000/svg" width="1448" height="1086" viewBox="0 0 1448 1086">
<rect width="100%" height="100%" fill="white"/>
<path d="M 1066,665 L 1065,666 L 1060,666 L 1059,667 L 1057,667 L 1056,668 L 1054,668 L 1053,669 L 1052,669 L 1051,670 L 1050,670 L 1049,671 L 1048,671 L 1037,682 L 1037,683 L 1036,684 L 1036,685 L 1035,686 L 1035,687 L 1034,688 L 1034,690 L 1033,691 L 1033,693 L 1032,694 L 1032,698 L 1031,699 L 1031,705 L 1032,706 L 1032,710 L 1033,711 L 1033,713 L 1034,714 L 1034,716 L 1035,717 L 1035,718 L 1036,719 L 1036,720 L 1038,722 L 1038,723 L 1046,731 L 1047,731 L 1049,733 L 1050,733 L 1051,734 L 1052,734 L 1053,735 L 1054,735 L 1055,736 L 1057,736 L 1058,737 L 1061,737 L 1062,738 L 1073,738 L 1074,737 L 1077,737 L 1078,736 L 1081,736 L 1082,735 L 1083,735 L 1084,734 L 1085,734 L 1086,733 L 1087,733 L 1089,731 L 1090,731 L 1097,724 L 1097,723 L 1099,721 L 1099,720 L 1100,719 L 1100,718 L 1101,717 L 1101,716 L 1102,715 L 1102,714 L 1103,713 L 1103,711 L 1104,710 L 1104,706 L 1105,705 L 1105,699 L 1104,698 L 1104,694 L 1103,693 L 1103,691 L 1102,690 L 1102,689 L 1101,688 L 1101,686 L 1100,685 L 1100,684 L 1098,682 L 1098,681 L 1096,679 L 1096,678 L 1092,674 L 1091,674 L 1088,671 L 1087,671 L 1086,670 L 1085,670 L 1084,669 L 1083,669 L 1082,668 L 1081,668 L 1080,667 L 1077,667 L 1076,666 L 1072,666 L 1071,665 Z" fill="black" fill-rule="evenodd"/>
<path d="M 287,666 L 286,667 L 283,667 L 282,668 L 281,668 L 280,669 L 279,669 L 278,670 L 277,670 L 275,672 L 274,672 L 266,680 L 266,681 L 264,683 L 264,684 L 263,685 L 263,686 L 262,687 L 262,688 L 261,689 L 261,690 L 260,691 L 260,694 L 259,695 L 259,708 L 260,709 L 260,712 L 261,713 L 261,715 L 262,716 L 262,717 L 263,718 L 263,719 L 264,720 L 264,721 L 266,723 L 266,724 L 272,730 L 273,730 L 276,733 L 277,733 L 278,734 L 279,734 L 280,735 L 281,735 L 282,736 L 285,736 L 286,737 L 289,737 L 290,738 L 301,738 L 302,737 L 305,737 L 306,736 L 308,736 L 309,735 L 311,735 L 312,734 L 313,734 L 315,732 L 316,732 L 319,729 L 320,729 L 323,726 L 323,725 L 326,722 L 326,721 L 327,720 L 327,719 L 328,718 L 328,717 L 329,716 L 329,715 L 330,714 L 330,712 L 331,711 L 331,707 L 332,706 L 332,698 L 331,697 L 331,693 L 330,692 L 330,690 L 331,689 L 331,688 L 331,689 L 330,690 L 329,689 L 329,688 L 328,687 L 328,685 L 326,683 L 326,682 L 324,680 L 324,679 L 318,673 L 317,673 L 315,671 L 314,671 L 313,670 L 312,670 L 311,669 L 310,669 L 309,668 L 308,668 L 307,667 L 305,667 L 304,666 L 299,666 L 298,665 L 294,665 L 293,666 Z" fill="black" fill-rule="evenodd"/>
<path d="M 100,621 L 103,669 L 139,674 L 145,657 L 177,661 L 167,682 L 167,722 L 187,773 L 227,812 L 276,830 L 335,825 L 385,793 L 414,750 L 422,677 L 438,677 L 457,699 L 489,707 L 527,707 L 547,688 L 622,688 L 640,699 L 900,705 L 912,694 L 914,677 L 935,677 L 949,753 L 978,795 L 1027,825 L 1082,831 L 1133,813 L 1174,773 L 1193,727 L 1192,669 L 1216,669 L 1196,671 L 1218,670 L 1263,689 L 1277,669 L 1317,667 L 1316,632 L 1274,638 L 1285,615 L 1324,613 L 1341,590 L 1347,536 L 1342,391 L 1326,367 L 1274,366 L 1255,389 L 1253,447 L 1243,445 L 1243,426 L 1231,423 L 1219,429 L 1214,446 L 998,444 L 975,464 L 942,463 L 956,401 L 932,397 L 918,406 L 864,533 L 759,520 L 744,530 L 757,565 L 667,565 L 645,552 L 636,524 L 721,431 L 763,465 L 773,461 L 680,365 L 675,375 L 710,420 L 636,496 L 636,482 L 648,477 L 641,456 L 654,418 L 649,401 L 692,268 L 686,255 L 670,268 L 618,436 L 554,448 L 546,442 L 313,447 L 309,436 L 267,436 L 262,448 L 221,450 L 210,465 L 210,523 L 222,547 L 222,590 L 196,593 L 188,624 Z M 132,664 L 134,662 L 137,662 L 138,663 L 138,666 L 137,667 L 134,667 L 132,665 Z M 1065,658 L 1071,658 L 1072,659 L 1077,659 L 1078,660 L 1081,660 L 1084,662 L 1086,662 L 1087,663 L 1088,663 L 1089,664 L 1090,664 L 1092,666 L 1091,667 L 1092,666 L 1093,666 L 1095,668 L 1094,669 L 1095,670 L 1096,669 L 1101,674 L 1100,675 L 1101,674 L 1104,677 L 1104,678 L 1106,680 L 1106,681 L 1107,682 L 1107,683 L 1109,686 L 1109,688 L 1110,689 L 1110,692 L 1111,693 L 1111,698 L 1112,699 L 1112,704 L 1111,705 L 1111,710 L 1110,711 L 1110,714 L 1109,715 L 1109,717 L 1108,718 L 1108,719 L 1107,720 L 1107,721 L 1106,722 L 1106,723 L 1105,724 L 1105,725 L 1104,726 L 1103,725 L 1104,726 L 1102,728 L 1102,729 L 1096,735 L 1095,735 L 1092,738 L 1091,738 L 1090,739 L 1089,739 L 1087,741 L 1085,741 L 1082,743 L 1079,743 L 1078,744 L 1074,744 L 1073,745 L 1064,745 L 1063,744 L 1058,744 L 1057,743 L 1054,743 L 1053,742 L 1052,742 L 1051,741 L 1050,741 L 1049,740 L 1048,740 L 1047,739 L 1046,739 L 1045,738 L 1044,738 L 1041,735 L 1040,735 L 1034,729 L 1034,728 L 1031,725 L 1031,724 L 1030,723 L 1030,722 L 1031,721 L 1030,722 L 1029,721 L 1029,720 L 1027,717 L 1027,715 L 1026,714 L 1026,711 L 1025,710 L 1025,694 L 1026,693 L 1026,690 L 1027,689 L 1027,687 L 1028,686 L 1028,684 L 1029,683 L 1029,682 L 1031,680 L 1031,679 L 1032,678 L 1033,679 L 1034,678 L 1033,677 L 1033,676 L 1039,670 L 1040,671 L 1039,670 L 1042,667 L 1043,667 L 1044,666 L 1045,667 L 1044,666 L 1047,664 L 1048,664 L 1049,665 L 1048,664 L 1050,662 L 1052,662 L 1055,660 L 1058,660 L 1059,659 L 1064,659 Z M 292,658 L 299,658 L 300,659 L 305,659 L 306,660 L 308,660 L 309,661 L 311,661 L 312,662 L 314,662 L 316,664 L 315,665 L 316,664 L 317,664 L 318,665 L 319,665 L 322,668 L 321,669 L 322,668 L 323,668 L 329,674 L 329,675 L 332,678 L 332,679 L 334,681 L 334,683 L 335,684 L 335,685 L 336,686 L 336,688 L 337,689 L 337,693 L 338,694 L 338,697 L 339,698 L 339,706 L 338,707 L 338,710 L 337,711 L 337,715 L 336,716 L 336,718 L 335,719 L 335,720 L 334,721 L 334,722 L 332,724 L 332,725 L 331,726 L 331,727 L 321,737 L 320,737 L 318,739 L 317,739 L 316,740 L 315,740 L 312,742 L 310,742 L 309,743 L 307,743 L 306,744 L 300,744 L 299,745 L 292,745 L 291,744 L 285,744 L 284,743 L 282,743 L 281,742 L 279,742 L 278,741 L 277,741 L 276,740 L 275,740 L 274,739 L 273,739 L 271,737 L 270,737 L 267,734 L 266,734 L 265,733 L 265,732 L 263,730 L 264,729 L 263,730 L 259,726 L 259,725 L 258,724 L 258,723 L 257,722 L 257,721 L 256,720 L 256,719 L 254,716 L 254,713 L 253,712 L 253,708 L 252,707 L 252,696 L 253,695 L 253,691 L 254,690 L 254,688 L 255,687 L 255,685 L 256,684 L 256,683 L 257,682 L 257,681 L 259,679 L 259,678 L 261,676 L 261,675 L 265,671 L 266,672 L 265,671 L 269,667 L 270,667 L 272,665 L 273,665 L 274,664 L 275,664 L 276,663 L 277,663 L 280,661 L 282,661 L 283,660 L 286,660 L 287,659 L 291,659 Z M 1238,574 L 1244,574 L 1245,575 L 1247,575 L 1248,576 L 1249,576 L 1254,581 L 1254,582 L 1255,583 L 1255,586 L 1256,587 L 1256,590 L 1255,591 L 1255,594 L 1254,595 L 1254,596 L 1249,601 L 1248,601 L 1247,602 L 1246,602 L 1245,603 L 1237,603 L 1236,602 L 1235,602 L 1234,601 L 1233,601 L 1227,595 L 1227,593 L 1226,592 L 1226,585 L 1227,584 L 1227,583 L 1228,582 L 1228,581 L 1230,579 L 1231,580 L 1230,579 L 1233,576 L 1234,576 L 1235,575 L 1237,575 Z M 928,663 L 945,628 L 962,589 L 971,572 L 981,562 L 987,558 L 999,553 L 1009,551 L 1126,551 L 1135,553 L 1150,561 L 1162,572 L 1213,637 L 1215,638 L 1214,639 L 1207,639 L 1154,573 L 1148,568 L 1136,561 L 1125,558 L 1010,558 L 1000,560 L 989,565 L 976,577 L 968,592 L 967,591 L 968,592 L 967,596 L 951,629 L 950,627 L 951,631 L 939,657 L 936,658 L 937,657 L 938,658 L 935,664 L 929,664 Z M 229,548 L 230,547 L 408,547 L 424,552 L 435,559 L 447,571 L 450,576 L 449,578 L 450,577 L 454,582 L 458,590 L 467,603 L 503,663 L 502,664 L 496,664 L 493,661 L 491,656 L 489,654 L 490,652 L 489,653 L 480,639 L 481,637 L 480,638 L 478,636 L 443,577 L 432,565 L 420,558 L 407,554 L 231,554 L 229,552 Z M 229,488 L 230,489 L 230,515 L 229,516 L 228,515 L 228,489 Z M 259,487 L 262,487 L 263,488 L 263,489 L 264,490 L 264,515 L 263,516 L 262,516 L 261,515 L 261,513 L 262,512 L 262,503 L 261,502 L 261,500 L 257,496 L 257,489 Z M 242,487 L 245,487 L 246,488 L 245,489 L 243,489 L 245,491 L 245,496 L 245,489 L 246,488 L 247,489 L 247,497 L 244,500 L 244,502 L 243,503 L 243,511 L 244,512 L 244,513 L 245,514 L 245,516 L 244,517 L 242,517 L 240,515 L 240,489 Z M 225,487 L 228,487 L 229,488 L 228,489 L 227,489 L 228,490 L 228,514 L 227,515 L 228,515 L 229,516 L 228,517 L 225,517 L 223,515 L 223,489 Z M 1253,457 L 1254,458 L 1254,495 L 1253,496 L 1252,495 L 1252,469 L 1251,468 L 1251,467 L 1250,466 L 1250,465 L 1248,463 L 1247,463 L 1246,462 L 1244,462 L 1243,461 L 1241,461 L 1240,460 L 1241,459 L 1250,459 L 1251,458 L 1252,458 Z M 990,463 L 990,462 L 993,459 L 995,458 L 997,458 L 998,457 L 1030,457 L 1031,458 L 1188,458 L 1189,459 L 1211,459 L 1212,460 L 1211,462 L 1210,461 L 1207,461 L 1206,462 L 1121,462 L 1120,463 L 1114,463 L 1113,462 L 1107,462 L 1106,463 L 997,463 L 996,464 L 991,464 Z" fill="black" fill-rule="evenodd"/>
</svg>