<?xml version="1.0" encoding="UTF-8" standalone="no"?>
<svg
   width="530"
   height="250"
   viewBox="0 0 530 250"
   version="1.1"
   id="svg3"
   sodipodi:docname="jeep_black.svg"
   inkscape:version="1.4.2 (f4327f4, 2025-05-13)"
   xmlns:inkscape="http://www.inkscape.org/namespaces/inkscape"
   xmlns:sodipodi="http://sodipodi.sourceforge.net/DTD/sodipodi-0.dtd"
   xmlns="http://www.w3.org/2000/svg"
   xmlns:svg="http://www.w3.org/2000/svg">
  <defs
     id="defs3" />
  <sodipodi:namedview
     id="namedview3"
     pagecolor="#ffffff"
     bordercolor="#000000"
     borderopacity="0.25"
     inkscape:showpageshadow="2"
     inkscape:pageopacity="0.0"
     inkscape:pagecheckerboard="0"
     inkscape:deskcolor="#d1d1d1"
     inkscape:zoom="1.0819521"
     inkscape:cx="232.91234"
     inkscape:cy="287.90553"
     inkscape:window-width="2560"
     inkscape:window-height="1377"
     inkscape:window-x="-8"
     inkscape:window-y="-8"
     inkscape:window-maximized="1"
     inkscape:current-layer="svg3" />
  <path
     d="m 396.57661,172.3979 -0.38739,0.38738 h -1.93692 l -0.38739,0.38738 h -0.77477 l -0.38739,0.38739 h -0.77476 l -0.38739,0.38739 h -0.38739 l -0.38738,0.38738 h -0.38739 l -0.38738,0.38739 h -0.38738 l -4.26124,4.26124 v 0.38738 l -0.38739,0.38738 v 0.38739 l -0.38738,0.38738 v 0.38739 l -0.38739,0.38739 v 0.77476 l -0.38739,0.38739 v 0.77477 l -0.38738,0.38739 v 1.54953 l -0.38738,0.38739 v 2.32431 l 0.38738,0.38739 v 1.54954 l 0.38738,0.38738 v 0.77478 l 0.38739,0.38737 v 0.77478 l 0.38739,0.38738 v 0.38739 l 0.38738,0.38739 v 0.38737 l 0.77477,0.77478 v 0.38738 l 3.09908,3.09909 h 0.38739 l 0.77477,0.77476 h 0.38738 l 0.38739,0.38739 h 0.38738 l 0.38739,0.38739 h 0.38739 l 0.38738,0.38738 h 0.77477 l 0.38738,0.38739 h 1.16216 l 0.38738,0.38738 h 4.26125 l 0.38737,-0.38738 h 1.16216 l 0.38739,-0.38739 h 1.16215 l 0.38739,-0.38738 h 0.38738 l 0.38739,-0.38739 h 0.38739 l 0.38737,-0.38739 h 0.38739 l 0.77477,-0.77476 h 0.38739 l 2.7117,-2.7117 v -0.38739 l 0.77476,-0.77477 v -0.38739 l 0.38739,-0.38737 v -0.38739 l 0.38739,-0.38739 v -0.38738 l 0.38738,-0.38739 v -0.38739 l 0.38739,-0.38737 v -0.77478 l 0.38738,-0.38738 v -1.54954 l 0.38738,-0.38739 v -2.32431 l -0.38738,-0.38739 v -1.54953 l -0.38738,-0.38739 v -0.77477 l -0.38739,-0.38739 v -0.38738 l -0.38738,-0.38738 v -0.77478 l -0.38739,-0.38738 v -0.38739 l -0.77477,-0.77476 v -0.38739 l -0.77477,-0.77478 v -0.38738 l -1.54955,-1.54954 h -0.38737 l -1.16216,-1.16215 h -0.38739 l -0.38739,-0.38739 h -0.38737 l -0.38739,-0.38738 h -0.38739 l -0.38738,-0.38739 h -0.38739 l -0.38739,-0.38739 h -1.16215 l -0.38738,-0.38738 h -1.54954 l -0.38739,-0.38738 z"
     fill="#000000"
     fill-rule="evenodd"
     id="path1"
     style="stroke-width:0.387385" />
  <path
     d="m 94.803581,172.78528 -0.38739,0.38738 h -1.16215 l -0.38739,0.38739 h -0.38739 l -0.38738,0.38739 h -0.38739 l -0.38739,0.38738 h -0.38737 l -0.77478,0.77477 h -0.38738 l -3.099088,3.09908 v 0.38739 l -0.774763,0.77477 v 0.38738 l -0.387387,0.38739 v 0.38738 l -0.387387,0.38739 v 0.38739 l -0.387387,0.38738 v 0.38738 l -0.387387,0.38739 v 1.16216 l -0.387376,0.38738 v 5.036 l 0.387376,0.38739 v 1.16216 l 0.387387,0.38739 v 0.77476 l 0.387387,0.38739 v 0.38738 l 0.387387,0.38739 v 0.38739 l 0.387387,0.38737 v 0.38739 l 0.774763,0.77477 v 0.38739 l 2.324308,2.32431 h 0.38739 l 1.16216,1.16215 h 0.38739 l 0.38737,0.38739 h 0.38739 l 0.38739,0.38739 h 0.38738 l 0.38739,0.38738 h 1.16215 l 0.38739,0.38739 h 1.16216 l 0.38738,0.38738 h 4.261239 l 0.38738,-0.38738 h 1.16216 l 0.38739,-0.38739 h 0.77477 l 0.38738,-0.38738 h 0.77477 l 0.38739,-0.38739 h 0.38738 l 0.77477,-0.77477 h 0.38738 l 1.16216,-1.16215 h 0.38739 l 1.16215,-1.16217 v -0.38737 l 1.16216,-1.16216 v -0.38739 l 0.38738,-0.38739 v -0.38737 l 0.38738,-0.38739 v -0.38739 l 0.38739,-0.38738 v -0.38739 l 0.38739,-0.38739 V 190.605 l 0.38739,-0.38739 v -1.54953 l 0.38738,-0.38739 v -3.09909 l -0.38738,-0.38738 v -1.54954 l -0.38739,-0.38739 v -0.77477 l 0.38739,-0.38738 v -0.38738 0.38738 l -0.38739,0.38738 -0.38739,-0.38738 v -0.38738 l -0.38739,-0.38739 v -0.77477 l -0.77476,-0.77477 v -0.38738 l -0.77477,-0.77478 v -0.38739 l -2.32431,-2.32431 h -0.38739 l -0.77477,-0.77476 h -0.38738 l -0.38739,-0.38739 h -0.38738 l -0.38739,-0.38738 h -0.38739 l -0.38738,-0.38739 h -0.38738 l -0.38739,-0.38739 h -0.77477 l -0.38739,-0.38738 h -1.936921 l -0.38739,-0.38738 h -1.54954 l -0.38738,0.38738 z"
     fill="#000000"
     fill-rule="evenodd"
     id="path2"
     style="stroke-width:0.387385" />
  <path
     d="m 22.362553,155.35295 1.162161,18.59449 13.945865,1.93692 2.324311,-6.58554 12.396317,1.54953 -3.873848,8.1351 v 15.4954 l 7.747707,19.75665 15.495402,15.10801 18.981873,6.97293 22.855719,-1.93692 19.36926,-12.39633 11.23417,-16.65756 3.09908,-28.27911 h 6.19816 l 7.36032,8.52247 12.39632,3.09909 h 14.72064 l 7.7477,-7.36032 h 29.05388 l 6.97294,4.26123 100.72014,2.32431 4.64862,-4.26123 0.77477,-6.58555 h 8.1351 l 5.42338,29.44127 11.23417,16.27017 18.98187,11.62156 21.30619,2.32431 19.75664,-6.97293 15.88279,-15.4954 7.36032,-17.81973 -0.38738,-22.46833 h 9.29724 l -7.74771,0.77477 8.52248,-0.38739 17.43233,7.36032 5.42339,-7.7477 15.49541,-0.77478 -0.38739,-13.55848 -16.27018,2.32432 4.26124,-8.90986 15.10802,-0.77477 6.58555,-8.90986 2.32431,-20.9188 -1.93692,-56.170846 -6.19816,-9.297243 -20.14404,-0.387387 -7.36032,8.909856 -0.77476,22.468346 -3.87386,-0.774774 v -7.36032 l -4.64862,-1.16215 -4.64862,2.324311 -1.93692,6.585546 -83.6752,-0.774774 -8.90985,7.747706 -12.78372,-0.387387 5.4234,-24.017882 -9.29724,-1.549537 -5.4234,3.486461 -20.9188,49.197914 -40.67543,-5.036 -5.81079,3.87385 5.03601,13.55848 h -34.86466 l -8.52247,-5.03601 -3.48647,-10.84678 32.92774,-36.026824 16.27017,13.171102 3.87385,-1.549548 -36.02681,-37.188973 -1.93692,3.873858 13.55847,17.432326 -28.6665,29.441279 v -5.4234 l 4.64862,-1.936915 -2.7117,-8.135099 5.03601,-14.720628 -1.93692,-6.585556 16.65756,-51.522226 -2.32431,-5.035998 -6.19817,5.035998 -20.14402,65.080715 -24.79265,4.648621 -3.09908,-2.32431 -90.26074,1.936924 -1.54954,-4.261235 H 87.05587 l -1.936924,4.648621 -15.882789,0.774763 -4.261235,5.810783 V 117.3892 l 4.648622,9.29725 v 16.65756 l -10.072017,1.16215 -3.099085,12.00894 z m 12.396328,16.65756 0.774763,-0.77477 h 1.162161 l 0.387387,0.38739 v 1.16215 l -0.387387,0.38738 H 35.533644 L 34.758881,172.3979 Z M 396.18922,169.6862 h 2.32431 l 0.38739,0.38739 h 1.93692 l 0.38739,0.38738 h 1.16215 l 1.16216,0.77477 h 0.77476 l 0.38739,0.38739 h 0.38739 l 0.38738,0.38738 h 0.38739 l 0.77476,0.77477 -0.38737,0.38738 0.38737,-0.38738 h 0.38739 l 0.77478,0.77477 -0.38739,0.38739 0.38739,0.38738 0.38738,-0.38738 1.93693,1.93692 -0.38739,0.38739 0.38739,-0.38739 1.16215,1.16216 v 0.38738 l 0.77477,0.77477 v 0.38739 l 0.38739,0.38739 v 0.38738 l 0.77477,1.16215 v 0.77478 l 0.38738,0.38738 v 1.16215 l 0.38738,0.38739 v 1.93692 l 0.38739,0.38739 v 1.93693 l -0.38739,0.38738 v 1.93693 l -0.38738,0.38738 v 1.16215 l -0.38738,0.38739 v 0.77477 l -0.38739,0.38739 v 0.38739 l -0.38738,0.38737 v 0.38739 l -0.38739,0.38739 v 0.38738 l -0.38739,0.38739 v 0.38739 l -0.38738,0.38737 -0.38738,-0.38737 0.38738,0.38737 -0.77477,0.77478 v 0.38739 l -2.32431,2.32431 h -0.38738 l -1.16217,1.16215 h -0.38737 l -0.38739,0.38738 h -0.38739 l -0.77477,0.77478 h -0.77476 l -1.16216,0.77477 h -1.16215 l -0.38739,0.38738 h -1.54955 l -0.38737,0.38738 h -3.48648 l -0.38738,-0.38738 h -1.93693 l -0.38738,-0.38738 h -1.16215 l -0.38739,-0.38739 h -0.38739 l -0.38738,-0.38738 h -0.38739 l -0.38738,-0.38739 h -0.38738 l -0.38739,-0.38739 h -0.38739 l -0.38739,-0.38738 h -0.38738 l -1.16215,-1.16215 h -0.38739 l -2.32431,-2.32431 v -0.38739 l -1.16215,-1.16215 v -0.38739 l -0.38739,-0.38739 v -0.38738 l 0.38739,-0.38739 -0.38739,0.38739 -0.38738,-0.38739 v -0.38739 l -0.77478,-1.16215 v -0.77477 l -0.38739,-0.38739 v -1.16215 l -0.38737,-0.38738 v -6.19816 l 0.38737,-0.38739 v -1.16216 l 0.38739,-0.38738 v -0.77477 l 0.38739,-0.38739 v -0.77477 l 0.38739,-0.38738 v -0.38738 l 0.77477,-0.77478 v -0.38739 l 0.38738,-0.38738 0.38738,0.38738 0.38739,-0.38738 -0.38739,-0.38738 v -0.38739 l 2.32431,-2.32431 0.38739,0.38739 -0.38739,-0.38739 1.16216,-1.16216 h 0.38739 l 0.38738,-0.38738 0.38738,0.38738 -0.38738,-0.38738 1.16216,-0.77477 h 0.38739 l 0.38738,0.38739 -0.38738,-0.38739 0.77476,-0.77477 h 0.77477 l 1.16216,-0.77477 h 1.16215 l 0.38739,-0.38738 h 1.93692 z m -299.448721,0 h 2.7117 l 0.38738,0.38739 h 1.936931 l 0.38739,0.38738 h 0.77477 l 0.38738,0.38738 h 0.77477 l 0.38739,0.38739 h 0.77477 l 0.77476,0.77477 -0.38738,0.38739 0.38738,-0.38739 h 0.38739 l 0.38739,0.38739 h 0.38738 l 1.16215,1.16215 -0.38738,0.38739 0.38738,-0.38739 h 0.38739 l 2.32431,2.32431 v 0.38739 l 1.16216,1.16215 v 0.38738 l 0.77477,0.77478 v 0.77477 l 0.38738,0.38738 v 0.38739 l 0.38739,0.38738 v 0.77478 l 0.38739,0.38738 v 1.54954 l 0.38738,0.38739 v 1.16215 l 0.38738,0.38738 v 3.09909 l -0.38738,0.38739 v 1.16215 l -0.38738,0.38738 v 1.54954 l -0.38739,0.38739 v 0.77477 l -0.38739,0.38739 v 0.38737 l -0.38738,0.38739 v 0.38739 l -0.77477,0.77477 v 0.38739 l -0.38738,0.38737 v 0.38739 l -3.87386,3.87386 h -0.38738 l -0.77477,0.77476 h -0.38739 l -0.38739,0.38739 h -0.38738 l -1.16215,0.77477 h -0.77478 l -0.38738,0.38739 h -0.77477 l -0.38738,0.38738 h -2.324321 l -0.38738,0.38738 h -2.7117 l -0.38739,-0.38738 h -2.324308 l -0.38739,-0.38738 h -0.77476 l -0.38739,-0.38739 h -0.77477 l -0.38739,-0.38738 h -0.38737 l -0.38739,-0.38739 h -0.38739 l -0.38738,-0.38739 h -0.38739 l -0.77476,-0.77476 h -0.38739 l -1.162161,-1.16216 h -0.387387 l -0.387376,-0.38739 v -0.38738 l -0.774774,-0.77477 0.387387,-0.38738 -0.387387,0.38738 -1.549537,-1.54955 v -0.38737 l -0.387387,-0.38739 v -0.38739 l -0.387387,-0.38738 v -0.38739 l -0.387387,-0.38739 v -0.38737 l -0.774774,-1.16216 v -1.16215 L 81.632485,190.605 v -1.54955 l -0.387387,-0.38737 v -4.26125 l 0.387387,-0.38738 v -1.54954 l 0.387376,-0.38739 v -0.77476 l 0.387387,-0.38739 v -0.77477 l 0.387387,-0.38739 v -0.38738 l 0.387387,-0.38738 v -0.38739 l 0.774774,-0.77478 v -0.38738 l 0.774763,-0.77477 v -0.38738 l 1.549548,-1.54954 0.387376,0.38738 -0.387376,-0.38738 1.549537,-1.54955 h 0.387387 l 0.77476,-0.77476 h 0.38739 l 0.38739,-0.38739 h 0.38738 l 0.38739,-0.38738 h 0.38739 l 1.16215,-0.77478 h 0.77477 l 0.38739,-0.38738 h 1.16215 l 0.38739,-0.38738 h 1.549528 z M 463.20685,137.14585 h 2.32431 l 0.38739,0.38738 h 0.77477 l 0.38739,0.38738 h 0.38737 l 1.93694,1.93693 v 0.38738 l 0.38737,0.38739 v 1.16216 l 0.38739,0.38738 v 1.16216 l -0.38739,0.38739 v 1.16215 l -0.38737,0.38738 v 0.38739 l -1.93694,1.93692 h -0.38737 l -0.38739,0.38739 h -0.38739 l -0.38738,0.38739 h -3.09909 l -0.38737,-0.38739 h -0.38739 l -0.38739,-0.38739 h -0.38739 l -2.32431,-2.32431 v -0.77477 l -0.38738,-0.38738 v -2.71169 l 0.38738,-0.38739 v -0.38739 l 0.38739,-0.38739 v -0.38738 l 0.77477,-0.77477 0.38738,0.38739 -0.38738,-0.38739 1.16215,-1.16216 h 0.38739 l 0.38739,-0.38738 h 0.77476 z m -120.08939,34.47728 6.58554,-13.55848 6.58555,-15.10803 3.48647,-6.58554 3.87385,-3.87385 2.32431,-1.54955 4.64862,-1.93692 3.87385,-0.77478 h 45.32407 l 3.48646,0.77478 5.81078,3.09908 4.64862,4.26124 19.75664,25.18003 0.77477,0.38739 -0.38738,0.38738 h -2.7117 l -20.53141,-25.56742 -2.32431,-1.93692 -4.64863,-2.7117 -4.26123,-1.16216 h -44.54929 l -3.87385,0.77477 -4.26124,1.93693 -5.036,4.64862 -3.09909,5.81078 -0.38739,-0.38738 0.38739,0.38738 -0.38739,1.54954 -6.19816,12.78371 -0.38738,-0.77477 0.38738,1.54954 -4.64862,10.07202 -1.16216,0.38738 0.38739,-0.38738 0.38739,0.38738 -1.16215,2.32431 h -2.32431 z m -270.782218,-44.5493 0.387376,-0.38738 h 68.954562 l 6.19816,1.93692 4.26123,2.7117 4.64862,4.64862 1.16216,1.93692 -0.38738,0.77478 0.38738,-0.38739 1.54954,1.93692 1.54955,3.09909 3.48646,5.03601 13.94586,23.24311 -0.38738,0.38738 h -2.32431 l -1.16215,-1.16216 -0.77478,-1.93692 -0.77477,-0.77478 0.38739,-0.77476 -0.38739,0.38739 -3.48646,-5.4234 0.38738,-0.77477 -0.38738,0.38739 -0.77478,-0.77478 -13.55847,-22.85572 -4.26124,-4.64862 -4.64862,-2.7117 -5.03601,-1.54954 H 73.110005 l -0.774763,-0.77477 z m 0,-23.24311 0.387376,0.38739 v 10.07201 l -0.387376,0.38738 -0.387387,-0.38738 v -10.07201 z m 11.621554,-0.38738 h 1.16215 l 0.387387,0.38738 v 0.38739 l 0.387387,0.38739 v 9.68462 l -0.387387,0.38738 h -0.387387 l -0.387387,-0.38738 v -0.77477 l 0.387387,-0.38738 v -3.48647 l -0.387387,-0.38738 v -0.77477 l -1.549537,-1.54954 v -2.7117 z m -6.585557,0 H 78.5334 l 0.387387,0.38738 -0.387387,0.38739 h -0.774774 l 0.774774,0.77476 v 1.93694 -2.7117 l 0.387387,-0.38739 0.387387,0.38739 v 3.09908 l -1.162161,1.16216 v 0.77477 l -0.387387,0.38738 v 3.09908 l 0.387387,0.38739 v 0.38738 l 0.387387,0.38739 v 0.77476 l -0.387387,0.38739 h -0.774774 l -0.774763,-0.77477 v -10.07201 z m -6.585545,0 h 1.162161 l 0.387387,0.38738 -0.387387,0.38739 h -0.387387 l 0.387387,0.38739 v 9.29724 l -0.387387,0.38738 h 0.387387 l 0.387387,0.38738 -0.387387,0.38739 h -1.162161 l -0.774763,-0.77477 v -10.07201 z m 398.231936,-11.621557 0.38739,0.387387 v 14.33325 l -0.38739,0.38739 -0.38739,-0.38739 V 96.470405 l -0.38738,-0.387387 v -0.387387 l -0.38739,-0.387376 v -0.387387 l -0.77476,-0.774774 h -0.38739 l -0.38739,-0.387387 h -0.77477 l -0.38739,-0.387387 h -0.77476 l -0.38739,-0.387376 0.38739,-0.387387 h 3.48646 l 0.38739,-0.387387 h 0.38738 z m -101.8823,2.324311 v -0.387387 l 1.16216,-1.16215 0.77477,-0.387387 h 0.77477 l 0.38738,-0.387387 h 12.39633 l 0.38739,0.387387 h 60.81947 l 0.38737,0.387387 h 8.52249 l 0.38738,0.387387 -0.38738,0.774763 -0.38739,-0.387387 h -1.16216 l -0.38738,0.387387 h -32.92774 l -0.38738,0.387387 h -2.32432 l -0.38738,-0.387387 h -2.32431 l -0.38739,0.387387 h -42.22498 l -0.38739,0.387387 h -1.93692 z"
     fill="#000000"
     fill-rule="evenodd"
     id="path3"
     style="stroke-width:0.387385" />
</svg>
