<?xml version="1.0" encoding="UTF-8" standalone="no"?>
<svg
   width="530"
   height="250"
   viewBox="0 0 530 250"
   version="1.1"
   id="svg2"
   sodipodi:docname="jeep_willys_black.svg"
   inkscape:version="1.4.2 (f4327f4, 2025-05-13)"
   xmlns:inkscape="http://www.inkscape.org/namespaces/inkscape"
   xmlns:sodipodi="http://sodipodi.sourceforge.net/DTD/sodipodi-0.dtd"
   xmlns="http://www.w3.org/2000/svg"
   xmlns:svg="http://www.w3.org/2000/svg">
  <defs
     id="defs2" />
  <sodipodi:namedview
     id="namedview2"
     pagecolor="#ffffff"
     bordercolor="#000000"
     borderopacity="0.25"
     inkscape:showpageshadow="2"
     inkscape:pageopacity="0.0"
     inkscape:pagecheckerboard="0"
     inkscape:deskcolor="#d1d1d1"
     inkscape:zoom="1.1123389"
     inkscape:cx="284.08609"
     inkscape:cy="307.01076"
     inkscape:window-width="2560"
     inkscape:window-height="1377"
     inkscape:window-x="-8"
     inkscape:window-y="-8"
     inkscape:window-maximized="1"
     inkscape:current-layer="svg2" />
  <path
     d="m 394.12356,139.56539 -3.37584,1.01275 -0.33759,2.02551 -2.36309,1.01276 -2.02551,-1.35033 h -1.68792 l -4.38859,2.36308 0.33757,2.02551 -3.03825,1.68792 -0.67518,-1.01275 h -2.36308 l -4.72619,3.71343 0.33759,3.03827 -2.02551,2.02549 -2.36309,-0.67516 -2.02551,1.68792 -0.67516,3.71343 -2.3631,0.33759 -3.03825,4.72618 0.67516,1.68792 1.01276,0.67517 -1.68792,4.05102 h -1.68794 l -1.68792,1.68792 -0.33757,-0.67518 -1.01276,0.33759 0.67517,0.67516 0.33759,-0.67516 0.33757,0.33759 -1.01275,5.06376 2.02551,2.3631 -0.33759,2.70067 -2.0255,0.67517 -0.67518,1.35033 v 4.38861 l 1.35035,1.35033 1.35033,0.33759 0.33759,2.70068 -1.68792,1.68792 1.01275,5.06376 1.01276,1.35034 h 2.02551 l 1.35033,3.03827 -1.68792,1.35033 1.35033,3.71343 -0.33758,0.67516 0.33758,-0.33757 1.68793,2.02551 2.0255,-0.33759 1.68792,2.02551 -1.01274,1.35033 v 1.01275 l 2.70067,3.03827 1.35033,0.33757 1.35035,-0.67516 2.02549,2.02551 -0.33757,2.36308 0.67516,1.01276 4.05103,2.70067 3.71343,-0.33757 1.35033,0.67516 0.33759,2.36309 4.38859,2.3631 1.68792,0.33757 1.68792,-1.68792 2.70068,0.67517 0.33759,1.68793 2.02551,1.35033 3.71343,0.3376 1.68792,-2.02552 h 2.36308 l 1.35035,1.68792 1.68792,0.67517 6.07651,-0.33757 1.68792,-1.01276 -0.33757,-1.35035 1.01275,-0.67516 3.37585,-0.33759 0.67516,1.01275 1.68792,0.33759 5.40135,-2.02551 1.01276,-1.35033 -0.33758,-1.35034 2.70068,-1.68792 1.01275,1.01275 h 2.0255 l 2.70067,-2.02551 0.67518,0.33759 1.68792,-2.70067 -0.67516,-1.68792 2.02549,-2.02551 1.01276,0.67516 2.02551,-0.33759 3.03826,-3.71343 -0.67518,-1.68792 0.67518,-1.68792 2.70068,-0.33757 1.01275,-1.01276 1.68792,-3.37585 v -1.68792 l -1.01275,-1.35033 0.67516,-2.3631 0.67517,-0.67517 1.35034,0.33759 1.35033,-1.35034 1.01276,-3.71343 v -2.02551 l -1.68792,-1.35033 0.33759,-2.70068 1.35033,-0.33759 1.01275,-1.35033 v -4.72619 l -2.36308,-2.02551 -0.33759,-2.70067 1.68792,-1.35035 v -2.02549 l -1.35033,-4.38861 -1.35035,-1.01274 -1.35033,0.33757 -1.01275,-2.36308 0.33759,-0.67517 h -0.67518 v -1.01275 l 1.01275,-1.01276 -0.33757,-3.03826 h -0.67518 l -1.35033,-2.36309 h -1.35035 l -0.67516,-0.67518 0.33759,-1.35033 -0.67518,-1.35034 -3.03825,-3.37584 -2.3631,0.67516 -1.35033,-1.35033 -0.67518,-3.37584 -2.36309,-2.3631 0.33759,-0.33759 -0.33759,0.33759 -1.35033,-1.01276 0.33758,-0.33757 -0.67517,0.33757 -1.35034,-1.01275 h -2.0255 l -0.67518,0.67518 -1.68792,-0.33759 -1.35033,-1.01276 0.33758,-1.35033 -1.01276,-1.35034 -5.06376,-2.02551 -3.37584,1.01275 -3.71343,-0.33757 -0.67518,-0.67518 0.33759,-1.35033 -1.35033,-0.67518 -7.42686,-0.33758 -1.35035,2.36309 h -2.36308 l -1.35035,-2.02551 z m 6.75169,34.7712 h 3.37584 l 0.33759,0.33759 h 1.35033 l 0.33759,0.33759 h 0.67517 l 0.33759,0.33758 h 0.67516 l 0.33759,0.33759 h 0.33758 l 0.33759,0.33759 h 0.33759 l 0.33757,0.33757 h 0.33759 l 0.67517,0.67517 h 0.33759 l 0.33757,0.33759 -0.33757,0.33759 0.33757,0.33757 0.33759,-0.33757 1.01276,1.01275 -0.33759,0.33758 0.33759,0.33759 0.33759,-0.33759 1.01274,1.01275 v 0.33759 l 0.67518,0.67517 v 0.33759 l 0.33758,0.33757 v 0.33759 l 0.67518,1.01276 v 0.67516 l -0.33759,0.33759 v 0.67517 -0.67517 l 0.33759,-0.33759 0.33757,0.33759 v 0.67517 l 0.33759,0.33759 v 1.68792 l 0.33758,0.33757 v 1.68792 l -0.33758,0.33759 v 1.35035 l -0.33759,0.33757 v 1.01276 l -0.33757,0.33759 v 0.67516 l -0.33759,0.3376 v 0.33757 l -0.33759,0.33759 v 0.33759 l -0.67517,0.67517 v 0.33757 l -1.01276,1.01276 v 0.33759 l -1.01275,1.01275 h -0.33758 l -1.35034,1.35033 h -0.33759 l -0.67517,0.67518 h -0.33757 l -0.33759,0.33758 h -0.33759 l -1.01276,0.67518 h -0.67516 l -0.33758,0.33757 h -0.67518 l -0.33757,0.33759 h -1.68794 l -0.33757,0.33758 h -2.70068 l -0.33759,-0.33758 h -1.35033 l -0.33759,-0.33759 h -1.01275 l -1.01276,-0.67516 h -0.67516 l -0.33759,-0.33759 h -0.33758 l -0.33759,-0.33758 h -0.33759 l -1.01274,-1.01275 h -0.33759 l -2.70067,-2.70068 v -0.33759 l -1.01276,-1.01275 v -0.33758 l -0.33759,-0.33759 v -0.67516 l -0.33757,-0.3376 v -0.33759 l -0.33759,-0.33757 v -0.67517 l -0.33759,-0.33759 v -1.01275 l -0.33758,-0.33759 v -3.37584 l 0.33758,-0.33759 v -1.01274 l 0.33759,-0.33759 v -1.01276 l 0.33759,-0.33759 v -0.33757 l 0.33757,-0.33759 v -0.33758 l 0.33759,-0.33759 v -0.33759 l 0.33759,-0.33757 v -0.33759 l 1.35033,-1.35035 v -0.33757 l 1.68792,-1.68792 h 0.33759 l 1.01276,-1.01276 h 0.33757 l 0.67518,-0.67516 h 0.33758 l 0.33759,-0.33759 h 0.67516 l 1.01276,-0.67517 h 1.01275 l 0.33759,-0.33759 h 1.35033 z"
     fill="#000000"
     fill-rule="evenodd"
     id="path1"
     style="stroke-width:0.337584" />
  <path
     d="m 24.468543,171.97351 14.178541,-2.02551 3.038266,8.43961 -4.726186,7.42686 17.891988,4.72619 -0.337591,-5.73894 -7.764435,-2.02551 15.866461,-17.89197 -0.337574,7.76443 -5.063776,2.3631 -0.337575,15.86646 7.426845,22.28059 23.630929,19.91748 23.968484,3.71343 26.66918,-10.12754 12.49062,-14.85372 3.71343,-18.90473 4.05102,-0.67516 -8.10203,-22.95575 2.36309,-5.06377 6.07653,18.90474 8.10203,3.37584 -7.42686,1.68792 -0.33759,5.73894 19.24231,-2.70068 6.41411,-7.42686 40.51014,0.67517 2.0255,5.40135 16.20407,0.33759 14.8537,-0.33759 1.68794,-6.07652 60.09003,1.35035 6.75168,6.07651 22.95575,3.37585 -0.33757,-5.40136 -13.84097,-1.68792 14.17854,-5.40135 2.70068,-12.15304 h -4.3886 l 12.15305,-25.31884 22.28057,-15.19129 25.65642,-3.37586 23.9685,8.10203 17.5544,16.87923 7.42686,13.84097 -8.10203,0.33757 3.71343,10.80272 18.90473,10.46511 -17.21681,2.70067 -0.67518,5.73895 23.96851,-3.71344 3.71343,-5.40135 -6.07652,-3.71343 0.33758,-5.73894 19.5799,0.33759 0.33759,-15.19131 15.1913,-6.07651 0.67517,-78.3196 -9.78995,-8.102026 -14.51613,3.03825 -3.71343,9.114781 1.68792,22.955745 -4.3886,8.10203 -1.35034,-6.75169 -129.29486,0.33758 6.7517,-25.993995 -5.73894,-5.063776 -6.41411,4.726186 -9.78994,29.369855 -20.59267,20.25507 -33.75845,-3.37584 -5.06376,4.051 1.35033,11.47788 -27.34434,-0.67518 -10.8027,-8.4396 -2.02551,-13.84096 35.44637,-32.745694 16.20407,13.840947 5.06376,-0.675161 -39.83497,-38.822209 -1.68793,3.37584 13.84096,17.891972 -22.28056,21.267825 -0.67518,-28.357096 18.56715,-51.988008 -9.11478,-7.089271 -23.96851,73.593411 -116.46664,1.012755 -2.02551,-9.114781 -6.75169,-0.675165 -3.03825,10.127536 -33.420877,-4.388595 -0.675165,4.72617 -10.465111,2.3631 v 24.306074 l 109.377373,0.67517 22.28056,48.27459 -24.30607,-44.89874 H 58.902157 l 8.102026,34.43362 20.255072,-14.17855 24.306095,-3.71343 24.30607,8.10203 17.21681,18.56714 -15.52889,-15.1913 -31.39534,-9.45237 -27.681936,8.7772 -15.528886,16.87922 2.700675,-8.4396 -5.401351,-3.37585 -22.955747,3.37585 -2.025511,-5.06377 h -9.452356 z m 77.644437,3.71343 h 0.67516 l 0.33759,-0.33759 h 1.01276 l 0.33757,-0.33758 h 5.73894 l 0.33759,0.33758 h 1.01276 l 0.33757,0.33759 h 0.67518 l 0.33758,0.33759 h 0.33759 l 0.33757,0.33757 h 0.33759 l 0.33759,0.33759 h 0.33758 l 0.33759,0.33758 h 0.33759 l 1.35033,1.35034 h 0.33759 l 0.67516,0.67517 v 0.33759 l 1.68792,1.68792 v 0.33759 l 0.33759,0.33757 v 0.33759 l 0.67517,0.67517 v 0.67516 l 0.33759,0.33759 v 0.67517 l 0.33757,0.33759 v 0.67516 l 0.33759,0.33759 v 5.06376 l -0.33759,0.33759 v 1.01276 l -0.33757,0.33757 v 0.67519 l -0.33759,0.33757 v 0.33759 l -0.33759,0.33759 v 0.33758 l -0.33758,0.33759 v 0.33757 l -0.67518,0.67518 -0.33757,-0.33759 0.33757,0.33759 v 0.33758 l -2.70067,2.70067 h -0.33758 l -0.67516,0.67518 h -0.33759 l -0.67517,0.67517 h -0.67518 l -0.33757,0.33759 h -0.33759 l -1.01276,0.67516 h -1.01276 l -0.33757,0.33758 h -1.35035 l -0.33757,0.33759 H 106.164 l -0.33759,-0.33759 h -1.68792 l -0.33759,-0.33758 h -1.01276 l -0.33757,-0.33759 h -0.33759 l -0.33759,-0.33757 h -0.33758 l -0.33759,-0.33759 h -0.33759 l -0.33757,-0.33759 h -0.33759 l -0.337578,-0.33758 0.337578,-0.33759 -0.337578,0.33759 h -0.33759 l -0.675165,-0.67518 h -0.33759 l -2.363086,-2.36308 v -0.33759 l -1.012755,-1.01276 v -0.33757 l -0.67518,-0.67517 v -0.67518 l -0.337575,-0.33757 v -0.67519 l -0.33759,-0.33757 v -0.67517 l -0.337575,-0.33759 v -1.35034 l -0.33759,-0.33758 v -1.35034 l 0.33759,-0.33758 v -2.3631 l 0.337575,-0.33757 v -0.67518 l 0.675165,-1.01276 v -0.67516 l 0.33759,-0.33758 v -0.33759 l 0.675165,-0.67516 v -0.33759 l 1.350345,-1.35035 v -0.33757 l 1.35033,-1.35035 h 0.337591 l 0.675165,-0.67516 h 0.33759 l 0.675168,-0.67517 h 0.33759 l 0.33757,0.33758 -0.33757,-0.33758 0.33757,-0.33759 h 0.33759 z m 83.72094,-8.10203 0.33759,-0.33759 v -0.33757 l 0.33759,-0.33759 h 0.33758 l 1.01275,-1.01276 0.33759,0.33759 v 0.33758 l 0.33758,0.33759 v 0.33759 l 0.33759,0.33757 v 0.33759 l 0.33759,0.33758 v 0.33759 l 0.33757,0.33759 v 0.33757 l 0.33759,0.33759 v 0.33759 l 0.33758,0.33758 v 0.33759 l 0.33759,0.33757 h 15.1913 l 0.33759,0.33759 h 19.24231 l 0.33759,0.33759 -0.33759,0.33758 h -28.0195 l -0.3376,0.33759 h -5.40135 l -0.33759,-0.33759 h -3.37584 l -0.67516,-0.67517 v -0.33759 l -0.33759,-0.33757 V 169.948 l -0.33758,-0.33758 v -0.67518 l -0.33759,-0.33757 v -0.33759 l -0.33759,-0.33759 z m 94.52367,-26.66918 0.67516,-0.67516 h 0.67517 l 0.33759,-0.33759 h 0.33759 l 0.33757,-0.33759 h 0.67517 l 0.67518,-0.67517 0.33757,0.33759 h 3.03827 l 0.33759,0.33758 h 16.87922 l 0.33759,-0.33758 h 0.67516 l 0.33759,0.33758 -0.33759,0.33759 h -0.33759 l -0.33757,0.33759 h -0.67517 l -0.33759,0.33757 h -1.01275 l -0.33759,0.33759 h -2.70068 l -0.33757,0.33759 h -18.90475 z m 31.73294,-8.43961 0.33759,0.33759 v 0.33757 l -0.33759,0.33759 v 0.33759 l -0.33759,0.33758 v 0.33759 l -0.67517,0.67516 v 0.33759 l -3.37584,3.37584 h -0.33759 l -0.33757,0.33759 h -0.33759 l -0.33759,-0.33759 0.67518,-0.67516 h 0.33757 l 2.3631,-2.36309 v -0.33759 l 1.01276,-1.01275 v -0.33759 l 0.67516,-0.67517 v -0.33759 z m 150.56268,-1.68792 h 0.67517 l 0.33759,-0.33759 h 3.03826 l 0.33758,0.33759 h 0.67518 l 0.67516,0.67516 h 0.33759 l 1.68792,1.68792 v 0.33759 l 0.33758,0.33759 v 0.33758 l 0.33759,0.33759 v 1.01275 l 0.33759,0.33759 v 1.01274 l -0.33759,0.33759 v 1.01276 l -0.33759,0.33759 v 0.33757 l -0.33758,0.33759 v 0.33758 l -1.01275,1.01275 h -0.33759 l -0.33758,0.33759 -0.33759,-0.33759 0.33759,0.33759 -0.33759,0.33759 h -0.33759 l -0.33757,0.33758 h -0.33759 l -0.33759,0.33759 h -1.35033 l -0.33759,0.33759 h -0.67517 l -0.33759,-0.33759 h -1.35033 l -0.33759,-0.33759 h -0.33757 l -0.33759,-0.33758 h -0.33759 l -2.02551,-2.02551 v -0.67516 l -0.33758,-0.33759 v -0.33759 l -0.33759,-0.33758 v -1.01275 l -0.33757,-0.33759 0.33757,-0.33758 v -1.35034 l 0.67517,-0.67517 v -0.33759 l 0.33759,-0.33759 v -0.33757 l 1.01275,-1.01276 h 0.33759 l 0.67517,-0.67516 h 0.33759 z m 18.56715,-4.3886 h 0.33758 l 0.33759,0.33759 v 1.01274 l 0.33759,0.33759 v 4.3886 l 0.33757,0.33759 v 1.68792 l 0.33759,0.33759 h 0.67517 l 0.33759,0.33757 v 2.3631 l 0.33759,0.33758 v 0.33759 h 0.33757 l 1.01276,0.67516 v 0.33759 l -0.33759,0.33758 h -0.67517 l -0.67516,0.67518 v 3.03825 l 1.01275,1.01275 h 0.33758 l 0.33759,0.33759 v 0.33759 l -0.33759,0.33758 h -0.67517 l -0.67516,0.67516 v 3.03827 l 0.67516,1.01275 h 0.67517 l 0.33759,0.3376 v 0.67516 l -0.33759,0.33759 -0.33758,-0.33759 0.33758,0.33759 -0.33758,0.33758 v 2.70067 l 0.33758,0.33759 v 0.67517 l 0.67518,0.67516 v 0.33759 h 0.33757 l 0.33759,0.33759 h 0.67517 l 0.33759,0.33758 v 1.35034 l 0.33757,0.33758 h 0.33759 l 0.67517,0.67518 h 0.33759 l 1.01275,0.67516 h 1.01276 l 0.67516,-0.67516 0.33759,0.33757 h 0.67517 l 0.33759,0.33759 v 0.67517 l 0.33757,0.33759 -0.33757,0.33757 h -1.68794 l -1.35033,1.35035 v 0.33759 l -2.02551,2.02549 v 0.33759 l -1.01275,0.67517 h -6.41411 l -0.33757,-0.33758 0.33757,-0.33759 v -7.76443 l -0.33757,-0.33759 v -1.68792 l 0.33757,-0.33759 v -28.69468 z m 0,-8.43961 h 0.33758 l 0.33759,0.33759 h 0.33759 l 0.33757,0.33757 v 1.01276 l 0.33759,0.33759 v 0.67516 l -0.33759,0.33759 h -1.35033 l -0.33759,-0.33759 v -2.36308 z m -252.17562,-5.40135 h 2.02551 l 0.33758,0.33759 -0.33758,0.33757 h -0.33759 0.33759 l 0.33758,-0.33757 0.33759,0.33757 v 0.33759 l -1.01276,1.01276 v 1.01275 l 1.01276,1.01276 v 0.67516 l -1.35033,1.35033 h -2.3631 l -0.33759,-0.33757 h -0.33758 l -1.01275,-1.01276 v -1.35034 l 0.33759,-0.33758 v -0.33759 l 0.33757,-0.33759 v -0.33757 l 0.33759,-0.33759 v -0.33758 l 0.67517,-0.67518 0.33759,0.33759 -0.33759,-0.33759 0.33759,-0.33757 h 0.33757 z m 8.10203,-3.71343 v -2.36309 l 0.33759,-0.33759 h 2.36308 l 0.3376,0.33759 -2.70068,2.70068 z m 0.33759,-8.43962 0.33757,0.33759 v 2.70067 l 0.33759,0.33759 -0.33759,0.33758 h -0.33757 l -0.33759,-0.33758 v -3.03826 z m 1.35033,-3.375838 h 0.67518 l 0.33757,0.33759 v 1.68792 l 0.3376,0.337571 v 4.051017 l -0.3376,0.33759 v 0.33758 l -0.67516,0.67518 h -0.33759 l -0.33758,-0.33759 h -0.33759 l -0.33759,-0.33759 0.33759,-0.33758 h 0.33759 v -3.03826 h -0.33759 l -0.33759,-0.33759 0.67518,-0.675167 v -1.687916 l -0.33759,-0.33759 z m -3.71343,-2.700675 v 1.012755 l -0.33758,0.33759 v 0.675165 l -0.33759,0.337575 v 0.67518 l -0.33759,0.337575 v 0.67518 l -0.67516,1.012736 -0.33758,-0.337571 v -0.675165 l 0.33758,-0.33759 v -0.33759 h -0.33758 l -0.67518,-0.675165 -0.33757,0.33759 v 0.675165 l -0.33759,0.33759 v 0.337575 h 1.01275 l 0.67517,0.675161 v 0.675177 l -0.33758,0.33758 v 1.01275 l -0.33759,0.33759 v 0.67517 l -0.33759,0.33759 v 0.67516 l -0.33757,0.33759 v 0.33758 l -0.33759,0.33759 v 0.67516 l -0.33759,0.33759 v 1.01276 l -0.67517,1.01276 -0.33757,-0.33759 v -0.67517 l 0.33757,-0.33759 v -0.33759 l -0.33757,0.33759 -1.01276,-0.67517 v 1.01276 l -0.33759,0.33757 1.01276,0.67519 0.33759,-0.33759 0.33757,0.33759 v 0.67516 l -0.33757,0.33757 v 0.3376 l -0.67518,0.67516 v 0.33759 l -0.67517,0.67517 v 0.33759 l -3.03826,3.03826 h -0.33758 l -0.67518,0.67517 h -0.33757 l -1.68792,1.01275 h -0.67518 l -0.33758,0.33758 h -0.67518 l -0.33757,0.33759 h -1.35035 l -0.33757,0.33759 h -2.02551 l -0.33759,0.33757 h -20.25508 l -1.01274,-1.01275 v -1.01276 l 0.33758,-0.33757 v -0.33759 l 0.67516,-0.67517 h 21.60542 l 0.33758,-0.33759 h 1.35034 l 0.33759,-0.33757 h 0.67517 l 0.33757,-0.33759 h 0.33759 l 0.33759,-0.33759 h 0.33758 l 0.33759,-0.33758 1.68792,-0.67516 2.70067,-2.3631 v -0.3376 l 0.67517,-0.67516 v -0.33757 l 0.67518,-1.01276 v -0.67518 l 0.67516,-1.01274 v -0.67518 l 0.33759,-0.33758 v -0.67518 l 0.33758,-0.33757 v -0.67518 l 0.33759,-0.33758 v -0.67516 l 0.33759,-0.33759 v -0.67517 l 0.33757,-0.337587 v -0.675161 l 0.33759,-0.33759 v -0.675165 l 0.33758,-0.33759 v -0.675165 l 0.33759,-0.33759 v -0.675165 l 0.33759,-0.337575 v -1.012755 l 0.33757,-0.33759 v -0.675165 l 0.33759,-0.337591 v -0.33759 l 0.33759,-0.337575 0.33758,0.337575 v 0.675181 l 0.33759,0.337574 v 0.337591 h 0.33757 l 0.33759,0.33759 v -0.33759 l 0.33759,-0.337591 z m -166.766732,-4.388596 0.33759,-0.33759 h 0.675165 l 0.337575,-0.337575 H 84.55858 l 0.33759,0.337575 -0.33759,0.33759 h -3.37584 l -0.337591,0.337575 H 68.692118 Z m 168.117072,-6.414106 0.33758,0.337575 -0.33758,0.33759 v 1.68792 l 0.33758,0.337591 -0.33758,0.33759 0.33758,0.337575 0.33759,-0.337575 0.33759,0.337575 V 84.53913 h -0.67518 l -0.33758,-0.33759 0.33758,-0.33759 h 1.01275 l 0.33759,0.33759 v 3.038266 l 0.33759,0.337575 v 0.33759 l 0.67517,0.675165 0.33759,-0.337575 0.33757,0.337575 v 4.05102 l -0.33757,0.337575 h -0.33759 l -0.33759,-0.337575 0.33759,-0.33759 h -0.33759 l -0.33758,-0.337575 h -0.33759 l -0.33759,0.337575 v 1.012755 l -0.33757,0.337591 -0.33759,-0.337591 v -0.675165 l -0.33759,-0.33759 v -0.675165 h -0.67517 v 0.33759 l -0.33757,0.337575 v 0.675165 l -0.33759,0.33759 v 0.675165 l -0.33759,0.337591 -0.33758,-0.337591 v -0.675165 l -0.33759,-0.33759 h -0.33759 l -0.33757,-0.337575 -0.33759,0.337575 -0.33758,-0.337575 v -1.012755 l 0.33758,-0.33759 v -0.675165 l 0.33759,-0.33759 v -0.675165 l 0.33757,-0.337575 h 0.33759 v -0.33759 l 0.33759,-0.33759 v -1.35033 l 0.33758,-0.33759 v -0.675165 l 0.33759,-0.337591 v -0.675165 l 0.33759,-0.33759 V 83.86395 l 0.33757,-0.337575 z m 5.06376,-16.879232 0.3376,0.33759 v 2.363086 l -0.3376,0.33759 v 1.012755 l -0.33757,0.33759 v 1.01274 l -0.33759,0.33759 v 4.726186 l -0.67516,0.675165 V 78.4626 l -0.3376,0.33759 v 1.350345 l -0.33757,0.337575 -0.67518,-0.675165 v -0.33759 l 0.33759,-0.337575 -0.33759,0.337575 -0.67517,-0.675165 V 78.4626 l -0.33759,-0.337575 v -0.675181 l 0.33759,-0.337574 v -1.012756 l 0.33759,-0.33759 v -0.675165 l 0.33758,-0.33759 v -0.675165 l 0.33759,-0.337575 v -0.67518 l 0.33759,-0.337575 v -1.012755 l 0.33757,-0.33759 v -0.675165 l 0.3376,-0.33759 v -0.675165 l 0.33757,-0.33759 v -0.675165 l 0.33759,-0.337591 v -0.675165 l 0.33759,-0.337574 v -0.337591 z m 2.02552,-6.75168 h 0.33759 l 0.33757,0.337574 -0.33757,0.337591 0.33757,-0.337591 h 0.33759 l 0.33759,0.337591 v 1.012755 l -0.33759,0.337575 v 1.012755 l -0.33759,0.33759 v 0.675165 l -0.33757,0.33759 -0.33759,-0.33759 v -0.337575 l -1.01276,-1.012755 0.33759,-0.33759 v -1.012755 l 0.33758,-0.337575 v -0.675181 z m 4.05102,-12.828212 0.33757,0.337575 v 1.012755 h 0.67518 l 0.33758,-0.337575 0.33759,0.337575 v 0.67518 l -0.33759,0.337575 v 1.012755 l -0.33758,0.337591 v 0.675165 l -0.33759,0.33759 v 0.675165 l -0.33759,0.337575 v 0.67518 l -0.33757,0.337575 v 0.67518 l -0.33759,0.337575 v 0.67518 l -0.33759,0.337575 v 0.33759 l -0.33758,0.337575 -0.33759,-0.337575 h -1.01275 l -0.33758,-0.33759 v -1.012755 l 0.33758,-0.337575 v -0.67518 l 0.33759,-0.337575 v -0.67518 l 0.33757,-0.337575 0.33759,0.337575 v 0.33759 l 0.33759,-0.33759 h 0.33758 l 0.33759,0.33759 v -1.012755 l -0.33759,0.33759 -0.33758,-0.33759 v -0.337575 0.675165 l -0.33759,0.337575 -0.33759,-0.337575 v -1.012755 l 0.33759,-0.337591 v -0.675165 l 0.33759,-0.33759 v -0.675165 l 0.33758,-0.337575 v -0.67518 l 0.33759,-0.337575 v -0.67518 z m 1.35033,-4.388595 0.33759,0.337575 v 0.675165 h 0.33757 l 0.33759,0.33759 v -0.33759 l 0.33759,-0.337575 0.33758,0.337575 v 1.350345 l -0.33758,0.33759 v 0.675165 l -0.33759,0.337575 v 0.67518 l -0.33759,0.337575 v 0.67518 l -0.33757,0.337575 -0.33759,-0.337575 v -0.67518 h -1.01276 l -0.33757,-0.337575 v -1.012755 l 0.33757,-0.33759 v -0.675165 l 0.33759,-0.33759 v -0.675165 l 0.33759,-0.33759 v -0.675165 z m 7.08927,-18.90474 0.33759,0.337591 v 1.350326 l -0.33759,0.337591 v 0.675165 l -0.33758,0.33759 v 0.675165 l -0.33759,0.33759 v 0.675165 l -0.33757,0.33759 v 1.012755 l -0.33759,0.337575 v 0.675165 l -0.33759,0.33759 v 0.675165 l -0.33758,0.33759 v 0.675165 l -0.33759,0.33759 v 0.675165 l -0.33759,0.337591 v 1.012755 l -0.33757,0.337575 v 0.67518 l -0.33759,0.337575 v 0.675165 l -0.33759,0.33759 v 0.675165 l -0.33758,0.33759 V 39.3028 l -0.33759,0.33759 v 0.675165 l -0.33757,0.33759 h -0.67518 l -0.33758,-0.33759 h -0.33759 l -0.33759,-0.337575 0.33759,-0.33759 v -1.012755 l 0.33759,-0.33759 V 37.27729 l 0.33758,-0.337575 V 36.26455 l 0.33759,-0.33759 v -0.675165 l 0.33759,-0.33759 v -1.012756 l 0.33757,-0.337574 v -0.675181 l 0.33759,-0.337574 v -1.012756 l 0.33758,-0.33759 v -0.675165 l 0.33759,-0.33759 v -0.675165 l 0.33759,-0.33759 v -0.675165 l 0.33757,-0.33759 0.33759,0.33759 v 0.675165 -0.337575 l 0.33759,-0.33759 0.33758,0.33759 v 0.337575 -0.337575 l -0.33758,-0.33759 h -0.33759 l -0.33759,-0.33759 v -1.01274 l 0.33759,-0.33759 v -1.012755 l 0.33759,-0.337591 v -0.675162 l 0.33758,-0.337574 v -0.675181 l 0.33759,-0.337574 0.33759,0.337574 v 0.675181 -0.33759 l 0.33757,-0.337591 0.33759,0.337591 z"
     fill="#000000"
     fill-rule="evenodd"
     id="path2"
     style="stroke-width:0.337584" />
</svg>
