<svg xmlns="http://www.w3.org/2000/svg" width="2172" height="724" viewBox="0 0 2172 724">
<rect width="100%" height="100%" fill="white"/>
<path d="M 1453,392 L 1443,395 L 1442,401 L 1435,404 L 1429,400 L 1424,400 L 1411,407 L 1412,413 L 1403,418 L 1401,415 L 1394,415 L 1380,426 L 1381,435 L 1375,441 L 1368,439 L 1362,444 L 1360,455 L 1353,456 L 1344,470 L 1346,475 L 1349,477 L 1344,489 L 1339,489 L 1334,494 L 1333,492 L 1330,493 L 1332,495 L 1333,493 L 1334,494 L 1331,509 L 1337,516 L 1336,524 L 1330,526 L 1328,530 L 1328,543 L 1332,547 L 1336,548 L 1337,556 L 1332,561 L 1335,576 L 1338,580 L 1344,580 L 1348,589 L 1343,593 L 1347,604 L 1346,606 L 1347,605 L 1352,611 L 1358,610 L 1363,616 L 1360,620 L 1360,623 L 1368,632 L 1372,633 L 1376,631 L 1382,637 L 1381,644 L 1383,647 L 1395,655 L 1406,654 L 1410,656 L 1411,663 L 1424,670 L 1429,671 L 1434,666 L 1442,668 L 1443,673 L 1449,677 L 1460,678 L 1465,672 L 1472,672 L 1476,677 L 1481,679 L 1499,678 L 1504,675 L 1503,671 L 1506,669 L 1516,668 L 1518,671 L 1523,672 L 1539,666 L 1542,662 L 1541,658 L 1549,653 L 1552,656 L 1558,656 L 1566,650 L 1568,651 L 1573,643 L 1571,638 L 1577,632 L 1580,634 L 1586,633 L 1595,622 L 1593,617 L 1595,612 L 1603,611 L 1606,608 L 1611,598 L 1611,593 L 1608,589 L 1610,582 L 1612,580 L 1616,581 L 1620,577 L 1623,566 L 1623,560 L 1618,556 L 1619,548 L 1623,547 L 1626,543 L 1626,529 L 1619,523 L 1618,515 L 1623,511 L 1623,505 L 1619,492 L 1615,489 L 1611,490 L 1608,483 L 1609,481 L 1607,481 L 1607,478 L 1610,475 L 1609,466 L 1607,466 L 1603,459 L 1599,459 L 1597,457 L 1598,453 L 1596,449 L 1587,439 L 1580,441 L 1576,437 L 1574,427 L 1567,420 L 1568,419 L 1567,420 L 1563,417 L 1564,416 L 1562,417 L 1558,414 L 1552,414 L 1550,416 L 1545,415 L 1541,412 L 1542,408 L 1539,404 L 1524,398 L 1514,401 L 1503,400 L 1501,398 L 1502,394 L 1498,392 L 1476,391 L 1472,398 L 1465,398 L 1461,392 Z M 1473,495 L 1483,495 L 1484,496 L 1488,496 L 1489,497 L 1491,497 L 1492,498 L 1494,498 L 1495,499 L 1496,499 L 1497,500 L 1498,500 L 1499,501 L 1500,501 L 1502,503 L 1503,503 L 1504,504 L 1503,505 L 1504,506 L 1505,505 L 1508,508 L 1507,509 L 1508,510 L 1509,509 L 1512,512 L 1512,513 L 1514,515 L 1514,516 L 1515,517 L 1515,518 L 1517,521 L 1517,523 L 1516,524 L 1516,526 L 1516,524 L 1517,523 L 1518,524 L 1518,526 L 1519,527 L 1519,532 L 1520,533 L 1520,538 L 1519,539 L 1519,543 L 1518,544 L 1518,547 L 1517,548 L 1517,550 L 1516,551 L 1516,552 L 1515,553 L 1515,554 L 1513,556 L 1513,557 L 1510,560 L 1510,561 L 1507,564 L 1506,564 L 1502,568 L 1501,568 L 1499,570 L 1498,570 L 1497,571 L 1496,571 L 1493,573 L 1491,573 L 1490,574 L 1488,574 L 1487,575 L 1482,575 L 1481,576 L 1473,576 L 1472,575 L 1468,575 L 1467,574 L 1464,574 L 1461,572 L 1459,572 L 1458,571 L 1457,571 L 1456,570 L 1455,570 L 1452,567 L 1451,567 L 1443,559 L 1443,558 L 1440,555 L 1440,554 L 1439,553 L 1439,551 L 1438,550 L 1438,549 L 1437,548 L 1437,546 L 1436,545 L 1436,542 L 1435,541 L 1435,531 L 1436,530 L 1436,527 L 1437,526 L 1437,523 L 1438,522 L 1438,521 L 1439,520 L 1439,519 L 1440,518 L 1440,517 L 1441,516 L 1441,515 L 1445,511 L 1445,510 L 1450,505 L 1451,505 L 1454,502 L 1455,502 L 1457,500 L 1458,500 L 1459,499 L 1461,499 L 1464,497 L 1467,497 L 1468,496 L 1472,496 Z" fill="black" fill-rule="evenodd"/>
<path d="M 358,488 L 400,482 L 409,507 L 395,529 L 448,543 L 447,526 L 424,520 L 471,467 L 470,490 L 455,497 L 454,544 L 476,610 L 546,669 L 617,680 L 696,650 L 733,606 L 744,550 L 756,548 L 732,480 L 739,465 L 757,521 L 781,531 L 759,536 L 758,553 L 815,545 L 834,523 L 954,525 L 960,541 L 1008,542 L 1052,541 L 1057,523 L 1235,527 L 1255,545 L 1323,555 L 1322,539 L 1281,534 L 1323,518 L 1331,482 L 1318,482 L 1354,407 L 1420,362 L 1496,352 L 1567,376 L 1619,426 L 1641,467 L 1617,468 L 1628,500 L 1684,531 L 1633,539 L 1631,556 L 1702,545 L 1713,529 L 1695,518 L 1696,501 L 1754,502 L 1755,457 L 1800,439 L 1802,207 L 1773,183 L 1730,192 L 1719,219 L 1724,287 L 1711,311 L 1707,291 L 1324,292 L 1344,215 L 1327,200 L 1308,214 L 1279,301 L 1218,361 L 1118,351 L 1103,363 L 1107,397 L 1026,395 L 994,370 L 988,329 L 1093,232 L 1141,273 L 1156,271 L 1038,156 L 1033,166 L 1074,219 L 1008,282 L 1006,198 L 1061,44 L 1034,23 L 963,241 L 618,244 L 612,217 L 592,215 L 583,245 L 484,232 L 482,246 L 451,253 L 451,325 L 775,327 L 841,470 L 769,337 L 460,337 L 484,439 L 544,397 L 616,386 L 688,410 L 739,465 L 693,420 L 600,392 L 518,418 L 472,468 L 480,443 L 464,433 L 396,443 L 390,428 L 362,428 Z M 588,499 L 590,499 L 591,498 L 594,498 L 595,497 L 612,497 L 613,498 L 616,498 L 617,499 L 619,499 L 620,500 L 621,500 L 622,501 L 623,501 L 624,502 L 625,502 L 626,503 L 627,503 L 631,507 L 632,507 L 634,509 L 634,510 L 639,515 L 639,516 L 640,517 L 640,518 L 642,520 L 642,522 L 643,523 L 643,525 L 644,526 L 644,528 L 645,529 L 645,544 L 644,545 L 644,548 L 643,549 L 643,551 L 642,552 L 642,553 L 641,554 L 641,555 L 640,556 L 640,557 L 638,559 L 637,558 L 638,559 L 638,560 L 630,568 L 629,568 L 627,570 L 626,570 L 624,572 L 622,572 L 621,573 L 620,573 L 617,575 L 614,575 L 613,576 L 609,576 L 608,577 L 600,577 L 599,576 L 594,576 L 593,575 L 590,575 L 589,574 L 588,574 L 587,573 L 586,573 L 585,572 L 584,572 L 583,571 L 582,571 L 581,570 L 582,569 L 581,570 L 580,570 L 578,568 L 577,568 L 570,561 L 570,560 L 567,557 L 567,556 L 565,554 L 565,552 L 564,551 L 564,549 L 563,548 L 563,546 L 562,545 L 562,541 L 561,540 L 561,536 L 562,535 L 562,528 L 563,527 L 563,525 L 565,522 L 565,520 L 566,519 L 566,518 L 568,516 L 568,515 L 572,511 L 572,510 L 576,506 L 577,506 L 579,504 L 580,504 L 582,502 L 583,502 L 584,503 L 583,502 L 584,501 L 585,501 Z M 836,475 L 837,474 L 837,473 L 838,472 L 839,472 L 842,469 L 843,470 L 843,471 L 844,472 L 844,473 L 845,474 L 845,475 L 846,476 L 846,477 L 847,478 L 847,479 L 848,480 L 848,481 L 849,482 L 849,483 L 850,484 L 895,484 L 896,485 L 953,485 L 954,486 L 953,487 L 870,487 L 869,488 L 853,488 L 852,487 L 842,487 L 840,485 L 840,484 L 839,483 L 839,482 L 838,481 L 838,479 L 837,478 L 837,477 L 836,476 Z M 1116,396 L 1118,394 L 1120,394 L 1121,393 L 1122,393 L 1123,392 L 1125,392 L 1127,390 L 1128,391 L 1137,391 L 1138,392 L 1188,392 L 1189,391 L 1191,391 L 1192,392 L 1191,393 L 1190,393 L 1189,394 L 1187,394 L 1186,395 L 1183,395 L 1182,396 L 1174,396 L 1173,397 L 1117,397 Z M 1210,371 L 1211,372 L 1211,373 L 1210,374 L 1210,375 L 1209,376 L 1209,377 L 1207,379 L 1207,380 L 1197,390 L 1196,390 L 1195,391 L 1194,391 L 1193,390 L 1195,388 L 1196,388 L 1203,381 L 1203,380 L 1206,377 L 1206,376 L 1208,374 L 1208,373 Z M 1656,366 L 1658,366 L 1659,365 L 1668,365 L 1669,366 L 1671,366 L 1673,368 L 1674,368 L 1679,373 L 1679,374 L 1680,375 L 1680,376 L 1681,377 L 1681,380 L 1682,381 L 1682,384 L 1681,385 L 1681,388 L 1680,389 L 1680,390 L 1679,391 L 1679,392 L 1676,395 L 1675,395 L 1674,396 L 1673,395 L 1674,396 L 1673,397 L 1672,397 L 1671,398 L 1670,398 L 1669,399 L 1665,399 L 1664,400 L 1662,400 L 1661,399 L 1657,399 L 1656,398 L 1655,398 L 1654,397 L 1653,397 L 1647,391 L 1647,389 L 1646,388 L 1646,387 L 1645,386 L 1645,383 L 1644,382 L 1645,381 L 1645,377 L 1647,375 L 1647,374 L 1648,373 L 1648,372 L 1651,369 L 1652,369 L 1654,367 L 1655,367 Z M 1711,353 L 1712,353 L 1713,354 L 1713,357 L 1714,358 L 1714,371 L 1715,372 L 1715,377 L 1716,378 L 1718,378 L 1719,379 L 1719,386 L 1720,387 L 1720,388 L 1721,388 L 1724,390 L 1724,391 L 1723,392 L 1721,392 L 1719,394 L 1719,403 L 1722,406 L 1723,406 L 1724,407 L 1724,408 L 1723,409 L 1721,409 L 1719,411 L 1719,420 L 1721,423 L 1723,423 L 1724,424 L 1724,426 L 1723,427 L 1722,426 L 1723,427 L 1722,428 L 1722,436 L 1723,437 L 1723,439 L 1725,441 L 1725,442 L 1726,442 L 1727,443 L 1729,443 L 1730,444 L 1730,448 L 1731,449 L 1732,449 L 1734,451 L 1735,451 L 1738,453 L 1741,453 L 1743,451 L 1744,452 L 1746,452 L 1747,453 L 1747,455 L 1748,456 L 1747,457 L 1742,457 L 1738,461 L 1738,462 L 1732,468 L 1732,469 L 1729,471 L 1710,471 L 1709,470 L 1710,469 L 1710,446 L 1709,445 L 1709,440 L 1710,439 L 1710,354 Z M 1711,328 L 1712,328 L 1713,329 L 1714,329 L 1715,330 L 1715,333 L 1716,334 L 1716,336 L 1715,337 L 1711,337 L 1710,336 L 1710,329 Z M 964,312 L 970,312 L 971,313 L 970,314 L 969,314 L 970,314 L 971,313 L 972,314 L 972,315 L 969,318 L 969,321 L 972,324 L 972,326 L 968,330 L 961,330 L 960,329 L 959,329 L 956,326 L 956,322 L 957,321 L 957,320 L 958,319 L 958,318 L 959,317 L 959,316 L 961,314 L 962,315 L 961,314 L 962,313 L 963,313 Z M 988,301 L 988,294 L 989,293 L 996,293 L 997,294 L 989,302 Z M 989,276 L 990,277 L 990,285 L 991,286 L 990,287 L 989,287 L 988,286 L 988,277 Z M 993,266 L 995,266 L 996,267 L 996,272 L 997,273 L 997,285 L 996,286 L 996,287 L 994,289 L 993,289 L 992,288 L 991,288 L 990,287 L 991,286 L 992,286 L 992,277 L 991,277 L 990,276 L 992,274 L 992,269 L 991,268 Z M 982,258 L 982,261 L 981,262 L 981,264 L 980,265 L 980,267 L 979,268 L 979,270 L 977,273 L 976,272 L 976,270 L 977,269 L 977,268 L 976,268 L 974,266 L 973,267 L 973,269 L 972,270 L 972,271 L 975,271 L 977,273 L 977,275 L 976,276 L 976,279 L 975,280 L 975,282 L 974,283 L 974,285 L 973,286 L 973,287 L 972,288 L 972,290 L 971,291 L 971,294 L 969,297 L 968,296 L 968,294 L 969,293 L 969,292 L 968,293 L 965,291 L 965,294 L 964,295 L 967,297 L 968,296 L 969,297 L 969,299 L 968,300 L 968,301 L 966,303 L 966,304 L 964,306 L 964,307 L 955,316 L 954,316 L 952,318 L 951,318 L 946,321 L 944,321 L 943,322 L 941,322 L 940,323 L 936,323 L 935,324 L 929,324 L 928,325 L 868,325 L 865,322 L 865,319 L 866,318 L 866,317 L 868,315 L 932,315 L 933,314 L 937,314 L 938,313 L 940,313 L 941,312 L 942,312 L 943,311 L 944,311 L 945,310 L 950,308 L 958,301 L 958,300 L 960,298 L 960,297 L 962,294 L 962,292 L 964,289 L 964,287 L 965,286 L 965,284 L 966,283 L 966,281 L 967,280 L 967,278 L 968,277 L 968,275 L 969,274 L 969,272 L 970,271 L 970,269 L 971,268 L 971,266 L 972,265 L 972,263 L 973,262 L 973,259 L 974,258 L 974,256 L 975,255 L 975,254 L 976,253 L 977,254 L 977,256 L 978,257 L 978,258 L 979,258 L 980,259 L 980,258 L 981,257 Z M 488,245 L 489,244 L 491,244 L 492,243 L 536,243 L 537,244 L 536,245 L 526,245 L 525,246 L 489,246 Z M 986,226 L 987,227 L 986,228 L 986,233 L 987,234 L 986,235 L 987,236 L 988,235 L 989,236 L 989,229 L 987,229 L 986,228 L 987,227 L 990,227 L 991,228 L 991,237 L 992,238 L 992,239 L 994,241 L 995,240 L 996,241 L 996,253 L 995,254 L 994,254 L 993,253 L 994,252 L 993,252 L 992,251 L 991,251 L 990,252 L 990,255 L 989,256 L 988,255 L 988,253 L 987,252 L 987,250 L 985,250 L 985,251 L 984,252 L 984,254 L 983,255 L 983,257 L 982,258 L 981,257 L 981,255 L 980,254 L 979,254 L 978,253 L 977,254 L 976,253 L 976,250 L 977,249 L 977,247 L 978,246 L 978,244 L 979,243 L 980,243 L 980,242 L 981,241 L 981,237 L 982,236 L 982,234 L 983,233 L 983,231 L 984,230 L 984,227 L 985,226 Z M 1001,176 L 1002,177 L 1002,184 L 1001,185 L 1001,188 L 1000,189 L 1000,192 L 999,193 L 999,207 L 997,209 L 997,211 L 996,212 L 996,216 L 995,217 L 993,215 L 993,214 L 994,213 L 993,214 L 991,212 L 991,211 L 990,210 L 990,208 L 991,207 L 991,204 L 992,203 L 992,201 L 993,200 L 993,198 L 994,197 L 994,195 L 995,194 L 995,191 L 996,190 L 996,188 L 997,187 L 997,185 L 998,184 L 998,182 L 999,181 L 999,179 L 1000,178 L 1000,177 Z M 1007,156 L 1008,156 L 1009,157 L 1008,158 L 1009,157 L 1010,157 L 1011,158 L 1011,161 L 1010,162 L 1010,165 L 1009,166 L 1009,168 L 1008,169 L 1007,168 L 1007,167 L 1004,164 L 1005,163 L 1005,160 L 1006,159 L 1006,157 Z M 1019,118 L 1020,119 L 1020,122 L 1022,122 L 1023,121 L 1024,122 L 1024,124 L 1023,125 L 1023,128 L 1022,129 L 1022,131 L 1021,132 L 1021,134 L 1020,135 L 1020,137 L 1019,138 L 1019,140 L 1018,141 L 1018,143 L 1017,144 L 1017,145 L 1016,146 L 1015,145 L 1012,145 L 1011,144 L 1011,141 L 1012,140 L 1012,138 L 1013,137 L 1013,135 L 1014,134 L 1015,135 L 1015,136 L 1016,135 L 1017,135 L 1018,136 L 1018,133 L 1017,134 L 1016,133 L 1016,132 L 1016,134 L 1015,135 L 1014,134 L 1014,131 L 1015,130 L 1015,128 L 1016,127 L 1016,125 L 1017,124 L 1017,122 L 1018,121 L 1018,119 Z M 1023,105 L 1024,106 L 1024,108 L 1025,108 L 1026,109 L 1026,108 L 1027,107 L 1028,108 L 1028,112 L 1027,113 L 1027,115 L 1026,116 L 1026,118 L 1025,119 L 1025,121 L 1024,122 L 1023,121 L 1023,119 L 1020,119 L 1019,118 L 1019,115 L 1020,114 L 1020,112 L 1021,111 L 1021,109 L 1022,108 L 1022,106 Z M 1044,49 L 1045,50 L 1045,54 L 1044,55 L 1044,57 L 1043,58 L 1043,60 L 1042,61 L 1042,63 L 1041,64 L 1041,67 L 1040,68 L 1040,70 L 1039,71 L 1039,73 L 1038,74 L 1038,76 L 1037,77 L 1037,79 L 1036,80 L 1036,83 L 1035,84 L 1035,86 L 1034,87 L 1034,89 L 1033,90 L 1033,92 L 1032,93 L 1032,95 L 1031,96 L 1031,98 L 1030,99 L 1028,99 L 1027,98 L 1026,98 L 1025,97 L 1026,96 L 1026,93 L 1027,92 L 1027,89 L 1028,88 L 1028,86 L 1029,85 L 1029,83 L 1030,82 L 1030,79 L 1031,78 L 1031,76 L 1032,75 L 1032,72 L 1033,71 L 1033,69 L 1034,68 L 1034,66 L 1035,65 L 1035,63 L 1036,62 L 1037,63 L 1037,65 L 1037,64 L 1038,63 L 1039,64 L 1039,65 L 1039,64 L 1038,63 L 1037,63 L 1036,62 L 1036,59 L 1037,58 L 1037,55 L 1038,54 L 1038,52 L 1039,51 L 1039,49 L 1040,48 L 1041,49 L 1041,51 L 1041,50 L 1042,49 L 1043,50 Z" fill="black" fill-rule="evenodd"/>
</svg>