<svg xmlns="http://www.w3.org/2000/svg" width="1448" height="1086" viewBox="0 0 1448 1086">
<rect width="100%" height="100%" fill="white"/>
<path d="M 39,535 L 58,651 L 68,655 L 120,636 L 119,650 L 126,653 L 134,645 L 131,633 L 139,626 L 255,579 L 323,566 L 337,549 L 408,523 L 412,550 L 423,562 L 437,566 L 459,563 L 476,552 L 479,538 L 478,558 L 492,566 L 568,541 L 578,533 L 580,524 L 592,526 L 596,518 L 630,511 L 1017,499 L 1014,517 L 1020,521 L 1029,518 L 1033,498 L 1249,496 L 1248,506 L 1268,507 L 1272,490 L 1317,490 L 1322,469 L 1407,469 L 1408,455 L 1378,453 L 1374,429 L 1368,425 L 1354,430 L 1350,452 L 1035,449 L 1028,440 L 1017,444 L 1001,439 L 855,438 L 837,431 L 806,434 L 799,429 L 781,429 L 772,439 L 596,438 L 593,446 L 515,445 L 510,433 L 496,433 L 492,445 L 491,441 L 441,444 L 444,423 L 429,417 L 422,426 L 429,438 L 423,448 L 381,445 L 380,470 L 391,472 L 320,500 L 49,515 L 40,521 Z M 128,639 L 129,640 L 129,645 L 127,647 L 126,647 L 125,648 L 124,647 L 124,641 L 126,639 Z M 416,534 L 417,533 L 417,532 L 419,530 L 421,530 L 423,528 L 423,527 L 424,526 L 424,525 L 425,524 L 426,524 L 427,523 L 431,523 L 432,522 L 433,522 L 434,523 L 433,524 L 434,525 L 433,524 L 434,523 L 437,523 L 438,524 L 434,528 L 434,529 L 432,531 L 432,532 L 431,533 L 431,534 L 430,535 L 430,536 L 429,537 L 429,548 L 430,549 L 430,550 L 431,551 L 431,552 L 436,557 L 438,555 L 438,554 L 435,551 L 435,550 L 434,549 L 434,547 L 433,546 L 433,542 L 434,541 L 434,539 L 435,538 L 435,537 L 437,535 L 437,534 L 438,533 L 439,533 L 442,530 L 443,530 L 444,529 L 445,529 L 445,528 L 446,527 L 446,524 L 447,523 L 464,523 L 465,524 L 464,525 L 460,525 L 464,525 L 465,524 L 466,524 L 470,528 L 470,529 L 471,530 L 471,531 L 472,532 L 472,535 L 473,536 L 473,541 L 472,542 L 472,545 L 471,546 L 471,548 L 469,550 L 469,551 L 465,555 L 464,555 L 463,556 L 462,556 L 461,557 L 460,557 L 459,558 L 458,558 L 457,559 L 454,559 L 453,560 L 449,560 L 448,561 L 436,561 L 435,560 L 432,560 L 431,559 L 429,559 L 428,558 L 429,557 L 428,558 L 426,558 L 424,556 L 423,556 L 418,551 L 418,550 L 417,549 L 417,547 L 416,546 L 416,543 L 415,542 L 415,538 L 416,537 Z M 1021,508 L 1025,508 L 1026,509 L 1026,512 L 1025,513 L 1025,514 L 1024,515 L 1021,515 L 1020,516 L 1019,515 L 1019,511 L 1020,510 L 1020,509 Z M 427,493 L 428,492 L 429,492 L 430,491 L 434,491 L 435,492 L 435,495 L 434,496 L 429,496 L 428,497 L 427,496 Z" fill="black" fill-rule="evenodd"/>
</svg>