<?xml version="1.0" encoding="UTF-8" standalone="no"?>
<svg
   width="1400"
   height="250"
   viewBox="0 0 1400 250"
   version="1.1"
   id="svg1"
   sodipodi:docname="kar98k_black.svg"
   inkscape:version="1.4.2 (f4327f4, 2025-05-13)"
   xmlns:inkscape="http://www.inkscape.org/namespaces/inkscape"
   xmlns:sodipodi="http://sodipodi.sourceforge.net/DTD/sodipodi-0.dtd"
   xmlns="http://www.w3.org/2000/svg"
   xmlns:svg="http://www.w3.org/2000/svg">
  <defs
     id="defs1" />
  <sodipodi:namedview
     id="namedview1"
     pagecolor="#ffffff"
     bordercolor="#000000"
     borderopacity="0.25"
     inkscape:showpageshadow="2"
     inkscape:pageopacity="0.0"
     inkscape:pagecheckerboard="0"
     inkscape:deskcolor="#d1d1d1"
     inkscape:zoom="1.0819521"
     inkscape:cx="723.69191"
     inkscape:cy="321.17872"
     inkscape:window-width="2560"
     inkscape:window-height="1377"
     inkscape:window-x="-8"
     inkscape:window-y="-8"
     inkscape:window-maximized="1"
     inkscape:current-layer="svg1" />
  <path
     d="m 50.091064,125.34267 17.86288,109.05758 9.401516,3.7606 48.88788,-17.86289 -0.94015,13.16213 6.58105,2.82046 7.52121,-7.52121 -2.82045,-11.28182 7.52122,-6.58107 109.05757,-44.18712 63.93032,-12.22197 13.16211,-15.98259 66.75076,-24.44393 3.76061,25.3841 10.34166,11.28181 13.16213,3.76061 20.68333,-2.82045 15.98258,-10.34167 2.82045,-13.16213 -0.94014,18.80304 13.16212,7.52121 71.45151,-23.50378 9.40151,-7.52123 1.88032,-8.46135 11.28181,1.88029 3.76061,-7.52121 31.96514,-6.58106 363.83866,-11.281807 -2.82046,16.922717 5.64091,3.76061 8.46138,-2.82046 3.76059,-18.803019 203.0727,-1.880293 -0.9401,9.401509 18.803,0.940152 3.7606,-15.982576 h 42.3069 l 4.7007,-19.743192 h 79.9128 l 0.9402,-13.162114 -28.2046,-1.880308 -3.7606,-22.563645 -5.6409,-3.760603 -13.1621,4.700757 -3.7606,20.683337 -296.14769,-2.820448 -6.58107,-8.461372 -10.34166,3.760616 -15.04242,-4.700761 -137.26213,-0.940154 -16.92274,-6.581064 -29.14468,2.820447 -6.58107,-4.700755 h -16.92272 l -8.46138,9.401526 -165.46666,-0.940154 -2.82046,7.521209 -73.33182,-0.94014 -4.70076,-11.281826 h -13.16213 l -3.76059,11.281826 -0.94017,-3.760615 -47.00756,2.820461 2.82045,-19.743198 -14.10228,-5.64091 -6.58106,8.461372 6.58106,11.281821 -5.64091,9.401517 -39.48635,-2.820448 -0.94016,23.50378 10.34167,1.880308 -66.75077,26.324242 -254.78106,14.102265 -8.461365,5.64091 z m 83.673486,97.77576 0.94015,0.94015 v 4.70076 l -1.8803,1.88029 h -0.94016 l -0.94015,0.94016 -0.94015,-0.94016 v -5.64091 l 1.8803,-1.88029 z m 270.76364,-98.71591 0.94015,-0.94017 v -0.94015 l 1.88032,-1.88029 h 1.8803 l 1.88029,-1.88031 v -0.94015 l 0.94016,-0.94016 v -0.94014 l 0.94016,-0.94015 h 0.94015 l 0.94015,-0.94016 h 3.7606 l 0.94016,-0.94015 h 0.94013 l 0.94016,0.94015 -0.94016,0.94016 0.94016,0.94015 -0.94016,-0.94015 0.94016,-0.94016 h 2.82046 l 0.94015,0.94016 -3.76061,3.7606 v 0.94016 l -1.88029,1.8803 v 0.94014 l -0.94016,0.94015 v 0.94017 l -0.94015,0.94015 v 0.94015 l -0.94016,0.94015 v 10.34167 l 0.94016,0.94013 v 0.94017 l 0.94015,0.94015 v 0.94015 l 4.70076,4.70076 1.8803,-1.88031 v -0.94015 l -2.82045,-2.82045 v -0.94015 l -0.94016,-0.94017 v -1.88029 l -0.94016,-0.94015 v -3.7606 l 0.94016,-0.94015 v -1.88031 l 0.94016,-0.94016 v -0.94014 l 1.8803,-1.8803 v -0.94015 l 0.94015,-0.94017 h 0.94014 l 2.82047,-2.82044 h 0.94015 l 0.94015,-0.94015 h 0.94015 v -0.94016 l 0.94015,-0.94015 V 115.001 l 0.94015,-0.94016 h 15.98258 l 0.94016,0.94016 -0.94016,0.94015 h -3.7606 3.7606 l 0.94016,-0.94015 h 0.94015 l 3.7606,3.7606 v 0.94016 l 0.94016,0.94015 v 0.94015 l 0.94015,0.94014 v 2.82047 l 0.94014,0.94015 v 4.70076 l -0.94014,0.94015 v 2.82045 l -0.94015,0.94015 v 1.88031 l -1.88032,1.8803 v 0.94015 l -3.76059,3.7606 h -0.94016 l -0.94015,0.94015 h -0.94016 l -0.94013,0.94016 h -0.94016 l -0.94016,0.94015 h -0.94015 l -0.94015,0.94015 h -2.82046 l -0.94015,0.94016 h -3.7606 l -0.94015,0.94014 h -11.28182 l -0.94015,-0.94014 h -2.82045 l -0.94016,-0.94016 h -1.88031 l -0.94015,-0.94015 0.94015,-0.94015 -0.94015,0.94015 h -1.88029 l -1.88031,-1.88031 h -0.94016 l -4.70075,-4.70075 v -0.94015 l -0.94016,-0.94017 v -1.88029 l -0.94015,-0.94015 v -2.82046 l -0.94014,-0.94014 v -3.76062 l 0.94014,-0.94014 z M 973.31988,99.958585 h 3.76061 l 0.94015,0.940135 v 2.82046 l -0.94015,0.94016 v 0.94015 l -0.94014,0.94014 h -2.82047 l -0.94015,0.94015 -0.94014,-0.94015 v -3.76061 l 0.94014,-0.94015 v -0.94015 z M 414.86987,85.8563 l 0.94014,-0.940154 h 0.94015 l 0.94016,-0.940139 h 3.7606 l 0.94016,0.940139 v 2.820459 l -0.94016,0.940163 h -4.70076 l -0.94015,0.94013 -0.94014,-0.94013 z"
     fill="#000000"
     fill-rule="evenodd"
     id="path1"
     style="stroke-width:0.940151" />
</svg>
