<?xml version="1.0" encoding="UTF-8" standalone="no"?>
<svg
   width="1300"
   height="250"
   viewBox="0 0 1300 250"
   version="1.1"
   id="svg1"
   sodipodi:docname="kar98k_x8_black.svg"
   inkscape:version="1.4.2 (f4327f4, 2025-05-13)"
   xmlns:inkscape="http://www.inkscape.org/namespaces/inkscape"
   xmlns:sodipodi="http://sodipodi.sourceforge.net/DTD/sodipodi-0.dtd"
   xmlns="http://www.w3.org/2000/svg"
   xmlns:svg="http://www.w3.org/2000/svg">
  <defs
     id="defs1" />
  <sodipodi:namedview
     id="namedview1"
     pagecolor="#ffffff"
     bordercolor="#000000"
     borderopacity="0.25"
     inkscape:showpageshadow="2"
     inkscape:pageopacity="0.0"
     inkscape:pagecheckerboard="0"
     inkscape:deskcolor="#d1d1d1"
     inkscape:zoom="0.78654235"
     inkscape:cx="436.08586"
     inkscape:cy="332.46779"
     inkscape:window-width="2560"
     inkscape:window-height="1377"
     inkscape:window-x="-8"
     inkscape:window-y="-8"
     inkscape:window-maximized="1"
     inkscape:current-layer="svg1" />
  <path
     d="m 478.17162,11.911481 -0.59879,0.598803 h -1.79643 l -2.39521,2.395219 v 3.592821 l 1.19762,1.197618 v 2.395203 l -2.39523,2.395219 h -17.36531 l -0.59881,-0.598801 v -0.5988 l -0.5988,-0.598802 h -1.19761 l -1.1976,-1.197617 h -10.17969 l -0.5988,0.598801 h -1.1976 l -0.59882,0.598816 h -0.5988 l -1.1976,1.197602 h -14.3713 l -0.5988,-0.5988 h -0.59882 l -1.1976,-1.197618 h -0.5988 l -0.5988,-0.598801 h -0.59881 l -0.5988,-0.598801 h -7.18564 l -0.5988,0.598801 h -1.19764 l -0.59878,0.598801 h -4.19165 l -0.59879,-0.598801 h -0.59882 l -0.59879,-0.598801 h -1.19761 l -0.59881,-0.598801 h -1.7964 l -0.59881,-0.5988 h -2.39521 l -0.59882,-0.598817 h -1.79639 l -0.59882,-0.598801 h -2.39521 l -0.5988,-0.598801 h -1.79642 l -0.59879,-0.598801 h -2.39522 l -0.59881,-0.598801 H 357.2132 l -0.59881,-0.598816 h -17.36533 l -0.59879,0.598816 v 0.598801 l -0.5988,0.598801 v 2.99402 l -0.5988,0.598801 v 27.545002 l 0.5988,0.598801 v 1.796403 l 1.19759,1.197617 h 46.70673 l 0.59881,-0.598801 h 2.3952 l 0.59882,-0.598816 h 2.39521 l 0.5988,-0.598801 h 2.39521 l 0.59882,-0.5988 h 1.7964 l 0.59881,-0.598802 h 2.99402 l 0.5988,-0.598801 h 1.1976 l 0.59882,-0.598816 h 5.98803 l 0.59883,0.598816 h 7.78444 l 0.5988,-0.598816 h 0.59881 l 1.1976,-1.197602 h 1.1976 l 0.59882,-0.5988 h 14.9701 l 0.59881,0.5988 v 1.197602 l 1.19759,1.197617 v 5.389239 l -0.5988,0.598801 v 1.197603 l -0.59879,0.598801 v 2.395219 l -0.59881,0.598802 h -0.5988 l -0.59882,0.598815 v 11.377265 l 0.59882,0.598815 -0.59882,0.598801 v 14.3713 l 0.59882,0.598801 v 10.179664 l -1.19762,1.197616 h -0.5988 v 1.197601 l -0.5988,0.5988 -0.59881,-0.5988 V 85.564388 l 0.59881,-0.5988 v -7.185657 l -0.59881,-0.598801 v -0.598801 l -1.19761,-1.197603 0.5988,-0.598816 h 1.79642 v -2.395218 h -0.5988 l -0.59881,-0.598802 h -6.58684 l -1.19761,-1.197602 v -0.598801 h -0.5988 l -1.19761,-1.197616 h -0.5988 l -0.59881,-0.598802 h -7.78445 l -0.5988,0.598802 h -3.59282 l -0.5988,-0.598802 h -11.37729 l -0.59881,-0.598801 V 65.80385 l -0.59881,-0.598801 h -3.59282 l -0.59879,0.598801 v 2.395219 l -0.59882,0.598802 v 1.197616 l -0.5988,0.598801 v 1.197602 l 1.19762,1.197617 v 1.796403 l -0.59882,0.598816 h -4.79043 l -0.59879,0.598802 v 0.598801 l -0.59881,0.598801 v 1.796417 l -0.59881,0.598802 v 5.389239 l 0.59881,0.5988 v 2.39522 l 1.1976,1.197601 h 3.59282 l 0.59881,0.598805 v 0.598812 l 0.5988,0.598802 -0.5988,0.598803 h -1.1976 l -0.59881,0.598802 h -5.98804 l -0.59879,0.598801 h -2.99402 l -0.59882,0.598813 h -2.99401 l -0.59882,0.598801 h -2.39522 l -0.59878,0.598802 h -2.39524 l -0.5988,0.598802 h -2.39522 l -0.5988,0.598802 h -2.39522 l -0.5988,0.598813 h -2.99402 l -0.59879,0.598801 h -1.79643 l -0.5988,0.598801 h -1.1976 l -0.59881,0.598802 h -0.59881 l -2.39521,2.395219 h -1.19761 l -0.5988,0.5988 h -1.19761 l -0.5988,0.5988 h -1.19761 l -0.5988,0.59882 h -0.59881 l -0.5988,0.5988 h -1.19761 l -0.59881,0.5988 h -1.1976 l -0.5988,0.59881 h -0.59881 l -0.59882,0.59881 h -1.19759 l -0.5988,0.5988 h -0.59881 l -0.59882,0.5988 h -1.19759 l -0.5988,0.5988 h -0.5988 l -0.59883,0.59882 h -1.19759 l -0.5988,0.59881 h -0.5988 l -0.59883,0.59879 h -1.19761 l -0.59879,0.5988 h -1.19761 l -0.59882,0.5988 h -0.59879 l -0.59881,0.59881 h -1.19761 l -0.59879,0.59882 h -1.19761 l -0.59881,0.5988 h -1.1976 l -0.59881,0.59879 h -1.79641 l -0.59881,0.5988 h -2.39522 l -0.59879,0.5988 h -10.17967 l -0.59881,-0.5988 h -1.7964 l -0.59881,-0.5988 h -1.19762 l -0.59879,-0.59879 h -1.1976 l -0.59883,-0.5988 h -0.59879 l -0.59881,-0.59882 h -0.59879 l -0.59881,-0.59881 h -0.59882 l -0.5988,-0.5988 h -0.5988 l -0.5988,-0.5988 h -0.59879 l -0.59883,-0.59879 h -0.5988 l -0.5988,-0.59881 h -1.1976 l -0.59882,-0.59882 h -0.5988 l -0.5988,-0.5988 h -1.19761 l -0.59881,-0.5988 h -1.7964 l -0.59881,-0.5988 h -1.79641 l -0.59879,-0.59881 h -3.59284 l -0.59881,-0.59881 h -20.95815 l -0.59879,0.59881 h -10.77847 l -0.5988,0.59881 h -9.58086 l -0.59882,0.5988 h -7.18565 l -0.5988,0.5988 h -7.18566 l -0.5988,0.5988 h -6.58684 l -0.5988,0.59882 h -7.18566 l -0.5988,0.59881 h -7.18564 l -0.5988,0.59879 h -7.18566 l -0.59879,0.5988 h -7.18568 l -0.59879,0.5988 h -6.58685 l -0.59879,0.59881 h -6.58684 l -0.59882,0.59882 h -5.98804 l -0.59879,0.5988 h -6.58685 l -0.5988,0.59879 h -6.58684 l -0.59881,0.5988 h -5.98804 l -0.5988,0.5988 h -6.58683 l -0.59882,0.59884 h -6.58685 l -0.59881,0.59879 h -6.58684 l -0.5988,0.59881 h -5.98803 l -0.59883,0.59878 h -5.38922 l -0.59882,0.5988 h -5.98803 l -0.5988,0.59882 h -5.389254 l -0.5988,0.59882 h -5.98804 l -0.5988,0.59879 h -6.586845 l -0.598803,0.59881 h -7.185651 l -0.598803,0.59878 h -4.790433 l -0.598804,0.59883 h -1.197608 l -0.598803,0.5988 h -1.19761 l -0.598804,0.59881 h -0.598804 l -1.19761,1.1976 h -0.598803 l -3.592824,3.59283 v 0.59879 l -0.598804,0.59882 v 0.59879 l -0.598804,0.5988 v 1.79642 l -0.598804,0.5988 v 3.59282 l 0.598804,0.59882 v 3.59282 l 0.598804,0.59879 v 3.59283 l 0.598804,0.59881 v 3.59282 l 0.598804,0.59881 v 4.19161 l 0.598804,0.59883 v 5.38923 l 0.598804,0.59881 v 5.38923 l 0.598805,0.59881 v 7.18564 l 0.598803,0.5988 v 6.58685 l 0.598804,0.59881 v 8.98206 l 0.598803,0.5988 v 10.77847 l 0.598806,0.59882 v 13.17367 l 0.598804,0.59882 v 14.9701 l 0.598804,0.5988 v 3.59282 l 0.598804,0.59881 v 1.19761 l 0.598806,0.5988 v 0.5988 l 0.598804,0.59881 v 0.59881 l 2.99402,2.99402 h 0.598804 l 0.598803,0.5988 h 0.598804 l 0.598804,0.5988 h 5.389236 l 0.598805,-0.5988 h 1.197608 l 0.598804,-0.5988 h 1.19761 l 0.598804,-0.59882 h 0.598803 l 0.598804,-0.5988 h 1.197608 l 0.598805,-0.5988 h 1.197608 l 0.598803,-0.5988 h 1.197608 l 0.598805,-0.5988 h 1.197604 l 0.59881,-0.59881 h 1.19761 l 0.5988,-0.59881 h 1.19761 l 0.59881,-0.5988 h 0.5988 l 0.59879,-0.5988 h 1.19761 l 0.59881,-0.5988 h 1.19761 l 0.5988,-0.59881 h 1.19761 l 0.59881,-0.59881 h 0.5988 l 0.598814,-0.5988 h 1.1976 l 0.59881,-0.5988 h 1.1976 l 0.59881,-0.5988 h 1.19762 l 0.59879,-0.59881 h 1.1976 l 0.59882,-0.5988 h 1.19761 l 0.59879,-0.59881 h 1.19762 l 0.59881,-0.5988 h 1.1976 l 0.59879,-0.5988 h 0.59883 l 0.59879,-0.59881 h 1.19761 l 0.59879,-0.59881 h 1.19762 l 0.59881,-0.5988 h 1.1976 l 0.59881,-0.59881 h 1.1976 l 0.59881,-0.59881 h 1.19762 l 0.59879,-0.59881 h 1.19761 l 0.5988,-0.59879 h 0.59881 l 0.59881,-0.5988 h 1.1976 l 0.5988,-0.5988 h 1.19761 l 0.5988,-0.59883 h 1.19761 l 0.59882,-0.59879 h 1.19759 l 0.59879,-0.5988 h 0.59883 l 0.59882,-0.5988 h 1.19759 l 0.59879,-0.5988 h 1.19763 l 0.5988,-0.59882 h 1.1976 l 0.59881,-0.5988 h 1.19761 l 0.5988,-0.5988 h 1.19761 l 0.59881,-0.5988 h 1.19761 l 0.59879,-0.5988 h 1.19761 l 0.59881,-0.59882 h 1.19761 l 0.5988,-0.59881 h 1.1976 l 0.59881,-0.59879 h 1.19762 l 0.59879,-0.59881 h 1.1976 l 0.59881,-0.59879 h 1.19761 l 0.5988,-0.59882 h 0.5988 l 0.5988,-0.5988 h 1.19763 l 0.59879,-0.59881 h 1.1976 l 0.59883,-0.59879 h 1.1976 l 0.59879,-0.59881 h 1.19761 l 0.59882,-0.5988 h 1.1976 l 0.5988,-0.59882 1.19761,1.19762 v 0.59881 l -1.79641,1.7964 v 1.19761 l -0.59881,0.59881 v 3.59282 l 0.59881,0.5988 v 1.19762 l 0.5988,0.5988 v 0.5988 l 0.59881,0.59879 h 0.5988 l 0.59881,0.59883 h 1.19761 l 0.5988,-0.59883 h 1.19761 l 0.59879,-0.59879 h 1.19761 l 0.59881,-0.5988 h 0.5988 l 0.59881,-0.5988 h 0.5988 l 0.59881,-0.5988 v -0.59882 l 0.59879,-0.5988 v -5.98804 l -0.59879,-0.59881 v -0.59879 l -1.19761,-1.19761 h -0.59881 l -0.5988,-0.59882 v -1.79639 l 0.5988,-0.59882 h 1.19761 l 0.59881,-0.59879 h 1.1976 l 0.5988,-0.59882 h 1.19761 l 0.59881,-0.59879 h 1.19761 l 0.5988,-0.59881 h 1.1976 l 0.59881,-0.59881 h 1.19763 l 0.59879,-0.5988 h 1.1976 l 0.5988,-0.59881 h 1.19763 l 0.59879,-0.59879 h 0.59879 l 0.59881,-0.59881 h 1.79642 l 0.5988,-0.5988 h 0.59879 l 0.59883,-0.59881 h 1.19761 l 0.59879,-0.59879 h 1.19762 l 0.5988,-0.59882 h 1.79642 l 0.5988,-0.59879 h 1.1976 l 0.59881,-0.59882 h 0.59881 l 0.5988,-0.59879 h 1.1976 l 0.59881,-0.59881 h 1.19761 l 0.5988,-0.5988 h 1.1976 l 0.59883,-0.59881 h 1.1976 l 0.59879,-0.5988 h 1.19762 l 0.5988,-0.59881 h 1.1976 l 0.5988,-0.59879 h 1.19762 l 0.5988,-0.59881 h 1.1976 l 0.59881,-0.59883 h 1.19761 l 0.5988,-0.59879 h 1.19761 l 0.5988,-0.59879 h 1.19761 l 0.5988,-0.59881 h 1.19761 l 0.59882,-0.59879 h 1.19762 l 0.59879,-0.59883 h 1.19759 l 0.59882,-0.59881 h 1.19762 l 0.59879,-0.59879 h 1.1976 l 0.59882,-0.5988 h 1.1976 l 0.5988,-0.5988 h 1.19763 l 0.59879,-0.59882 h 1.1976 l 0.59881,-0.59881 h 1.19762 l 0.59879,-0.5988 h 1.1976 l 0.59882,-0.59879 h 1.19761 l 0.59879,-0.5988 h 1.19761 l 0.59881,-0.59882 h 1.19761 l 0.59879,-0.5988 h 1.19762 l 0.59881,-0.5988 h 1.19759 l 0.59882,-0.59881 h 1.1976 l 0.5988,-0.59878 h 1.19761 l 0.59881,-0.59883 h 1.19761 l 0.59879,-0.59879 h 1.79642 l 0.59879,-0.59882 h 1.19762 l 0.59881,-0.59879 h 1.1976 l 0.59882,-0.59881 h 1.19761 l 0.59879,-0.59881 h 1.19762 l 0.59881,-0.5988 h 1.1976 l 0.59878,-0.5988 h 1.19762 l 0.59882,-0.59881 h 1.1976 l 0.5988,-0.5988 h 1.79642 l 0.5988,-0.59881 h 1.19761 l 0.5988,-0.5988 h 2.39522 l 0.5988,-0.5988 h 3.59282 l 0.59881,-0.59881 h 4.79044 l 0.59879,0.59881 h 2.99402 l 0.59881,0.5988 h 1.79641 l 0.5988,0.5988 h 0.59882 l 0.59879,0.59881 h 1.19761 l 0.5988,0.5988 h 0.59883 l 0.59879,0.59881 h 1.1976 l 0.5988,0.5988 h 1.19763 l 0.59879,0.5988 h 1.79643 l 0.59879,0.59881 h 1.1976 l 0.59882,0.59881 h 2.3952 l 0.59881,0.59879 h 10.77848 l 0.59879,-0.59879 h 1.79643 l 0.59879,-0.59881 h 0.59881 l 0.59881,-0.59881 h 1.1976 l 1.19761,-1.1976 h 0.5988 l 2.99403,-2.99402 v -0.59881 l 0.59879,-0.5988 v -0.59881 l 1.1976,-1.1976 v -0.5988 l 1.19763,-1.19762 v -0.5988 l 1.19759,-1.1976 v -0.59881 l 1.19761,-1.19762 v -0.59879 l 1.19763,-1.19761 v -0.59881 l 1.79639,-1.7964 v -0.59881 l 2.39523,-2.39521 v -0.59881 l 7.18565,-7.18566 h 0.5988 l 1.79642,-1.79641 h 0.5988 l 1.19761,-1.1976 h 0.5988 l 1.19761,-1.1976 h 0.5988 l 0.5988,-0.59883 h 0.59881 l 0.59881,-0.59879 h 0.5988 l 0.5988,-0.5988 h 0.5988 l 0.59881,-0.5988 h 1.19761 l 0.5988,-0.59881 h 1.1976 l 0.59882,-0.59881 h 1.1976 l 0.5988,-0.5988 h 1.79642 l 0.5988,-0.5988 h 1.79642 l 0.5988,-0.5988 h 2.39522 l 0.5988,-0.59881 h 2.99402 l 0.59882,-0.59881 h 3.59282 l 0.5988,-0.59881 h 2.39521 l 0.59882,0.59881 v 1.19762 h 2.99402 l 0.59879,0.5988 h 0.59881 l 1.1976,1.1976 v 0.59881 l 0.59881,0.59881 v 1.1976 l 0.59881,0.59879 v 2.39522 l 0.59879,0.59881 v 5.38925 l 0.59881,0.59879 v 2.39523 l 0.59879,0.5988 v 1.19761 l 0.59882,0.5988 v 0.5988 l 1.19761,1.19762 v 0.5988 l 4.19161,4.19162 h 0.59882 l 0.59879,0.59881 h 0.59882 l 0.59879,0.59881 h 0.59881 l 0.59881,0.5988 h 1.19761 l 0.59879,0.5988 h 1.79642 l 0.59879,0.5988 h 2.99403 l 0.5988,0.59881 h 13.7725 l 0.59881,-0.59881 h 4.79043 l 0.5988,-0.5988 h 2.39522 l 0.5988,-0.5988 h 1.19761 l 0.59881,-0.5988 h 1.1976 l 0.5988,-0.59881 h 0.59881 l 0.59881,-0.59881 h 0.5988 l 0.5988,-0.59881 h 0.5988 l 1.19762,-1.19759 h 0.59881 l 1.79641,-1.79642 v -0.5988 l 1.1976,-1.19761 v -0.59881 l 1.1976,-1.1976 v -1.19761 l 0.59882,-0.5988 v -1.79641 l 0.5988,-0.59882 v -2.99403 l 0.59881,-0.59879 v -3.59282 l 0.59879,-0.59881 v -2.39521 l 0.5988,-0.5988 v -1.79642 l 0.59883,-0.5988 v -0.5988 l 1.19761,-1.19762 h 1.7964 l 0.59881,-0.59881 h 1.19761 v -0.59879 l 0.59879,-0.59881 v -1.19762 l 0.59882,-0.59879 h 1.7964 l 0.59881,0.59879 h 6.58685 l 0.59879,0.59883 h 5.38925 l 0.59879,-0.59883 h 10.77849 l 0.59879,-0.59879 h 10.17967 l 0.5988,-0.59881 h 10.77848 l 0.5988,-0.59879 h 11.37728 l 0.59879,-0.59882 h 11.37729 l 0.59881,-0.59879 h 11.97608 l 0.59881,-0.59882 h 11.37728 l 0.59879,-0.59879 h 7.78445 l 0.59881,-0.59881 h 1.1976 v -0.5988 l 1.1976,-1.19761 h 10.17969 l 0.5988,-0.59881 h 13.17369 l 0.5988,-0.59879 h 16.76653 l 0.59879,-0.59882 h 16.76651 l 0.59881,-0.5988 h 17.36533 l 0.5988,-0.59879 h 16.76651 l 0.5988,-0.59882 h 15.56891 l 0.5988,-0.59879 h 16.76652 l 0.5988,-0.59882 h 16.16772 l 0.5988,-0.59879 h 16.1677 l 0.59881,-0.59881 h 13.17368 l 0.59881,-0.5988 h 14.9701 l 0.59882,-0.59881 h 16.76649 l 0.59881,-0.5988 h 17.36533 l 0.59881,-0.59881 h 16.16771 l 0.59879,-0.59879 h 16.76653 l 0.59879,-0.59881 h 17.96413 l 0.59882,-0.5988 h 17.96411 l 0.5988,-0.59883 h 19.16173 l 0.59881,-0.59878 h 19.16173 l 0.59879,-0.59881 h 20.95815 l 0.59882,-0.59879 h 10.77846 l 0.59881,-0.59882 h 0.5988 l 0.5988,-0.59882 v -0.5988 l 0.59881,-0.59878 v -2.39524 l 0.5988,-0.5988 0.59881,0.5988 v 4.19164 h 0.5988 l 0.5988,0.59882 h 5.98804 l 0.5988,0.59879 v 1.19759 l 0.59881,0.59883 -1.19761,1.19761 v 1.1976 l -0.5988,0.5988 v 3.59282 l 0.5988,0.59882 v 1.19759 l 1.79642,1.79642 h 4.19162 l 0.5988,-0.59881 h 0.5988 v -0.59879 l 1.19762,-1.19762 v -5.38923 l -0.5988,-0.59881 v -0.59879 l -1.19762,-1.19761 1.19762,-1.19761 v -0.59881 l 0.5988,-0.59879 h 4.19162 l 0.59881,-0.59882 h 2.39522 l 1.19762,-1.19762 v -1.79638 l 0.59879,-0.59884 0.59881,0.59884 v 1.1976 h 91.6169 l 0.5988,-0.59881 h 11.3774 l 0.5988,-0.59879 v -1.19764 l 0.5989,-0.5988 0.5988,0.5988 v 2.99402 h 13.7725 l 1.1975,-1.19759 h 14.9701 l 1.1977,1.19759 h 13.7725 l 0.5987,-0.59878 v -1.1976 l 0.5989,-0.59884 v -4.19162 l 1.1976,-1.19759 h 23.3532 l 0.5989,0.59879 h 0.5988 l 0.5988,0.5988 h 25.1497 l 0.5989,-0.5988 h 0.5988 l 0.5988,-0.59879 v -8.982087 l 0.5987,-0.598802 h 44.9104 l 0.5988,0.598802 h 17.9642 l 0.5987,0.598811 h 26.9462 l 1.1977,-1.197613 h 13.7724 l 1.1976,-1.197603 v -2.99402 l 0.5988,-0.598801 v -5.988041 l -0.5988,-0.598815 v -1.796403 l -1.7963,-1.796418 h -1.1977 l -0.5988,0.598801 h -8.9819 l -1.7965,-1.796404 h -0.5988 l -0.5989,-0.5988 V 77.18113 l 0.5989,-0.598801 v -2.39522 l -0.5989,-0.598801 v -2.99402 l -0.5988,-0.598801 v -1.197616 l -0.5987,-0.598802 V 62.80983 l -0.5988,-0.5988 h -2.3953 v 0.5988 l -0.5989,0.598802 h -0.5987 l -0.5989,-0.598802 h -14.9699 l -0.5989,-0.5988 h -2.3952 l -0.5988,0.5988 v 4.790438 l -0.5988,0.598801 h -0.5988 l -1.1976,1.197602 v 0.598816 l -0.5989,0.598801 v 11.377279 l -0.5987,0.598802 h -22.7546 l -0.5988,0.598801 h -0.5987 l -0.5989,-0.598801 h -72.4554 l -0.5987,0.598801 h -19.1618 l -0.5987,-0.598801 v -0.598802 l -0.5989,-0.5988 V 80.17515 l -1.1976,-1.197603 h -12.5749 l -1.7964,1.796405 h -0.5988 l -0.5988,0.598815 h -13.7725 l -1.1975,-1.197617 v -0.598801 l -0.5989,-0.598802 h -12.5749 l -0.5987,0.598802 v 3.592821 l -0.5988,0.598801 -0.5989,-0.598801 v -1.796403 h -0.5988 l -0.5988,-0.598815 h -8.9821 l -0.5988,-0.598802 h -71.85646 l -0.59881,0.598802 H 958.4125 v 6.586854 l -0.5988,0.598802 -0.59881,-0.598802 v -2.99402 l -0.59879,-0.598815 v -5.389224 l -1.19762,-1.197617 h -1.1976 l -0.59881,-0.598801 h -19.16173 l -0.59881,0.598801 h -0.5988 l -0.5988,0.598801 v 3.592836 l 0.5988,0.5988 v 5.389239 l -0.5988,0.598802 -0.59881,-0.598802 v -4.790437 l -0.5988,-0.598802 v -2.99402 l -0.59881,-0.5988 v -0.598816 l -0.5988,-0.598801 h -0.5988 l -0.59881,-0.598801 h -6.58684 l -0.59881,-0.598801 h -10.17968 l -0.59879,-0.598802 H 900.9273 l -0.59879,-0.598816 h -9.58088 l -0.59879,-0.598801 h -10.77849 l -0.59879,-0.598801 h -10.77847 l -0.59882,-0.598801 h -16.7665 l -0.59881,-0.598815 H 826.0768 l -0.59881,-0.598802 h -60.47922 l -0.5988,-0.598801 h -6.58684 l -0.59881,0.598801 h -0.59879 l -0.59882,0.598802 v 0.598815 l -1.19761,1.197602 -0.59879,-0.598801 h -0.59881 l -1.19761,-1.197616 v -2.395205 l -0.59879,-0.598816 v -0.5988 h -0.59882 l -1.19761,-1.197603 v -3.592821 h -6.58684 l -1.1976,1.197602 v 0.598801 l -0.59881,0.598801 h -20.35934 l -0.59881,-0.598801 h -32.93422 l -0.5988,-0.598801 v -0.598801 h -1.1976 l -0.59882,-0.598801 h -7.78444 l -0.59882,-0.598815 V 62.80983 h -0.59879 l -0.59881,-0.5988 h -0.5988 l -0.59881,-0.598802 h -7.18564 v 0.598802 l -1.79641,1.796417 h -4.79045 l -0.59878,0.598801 v 3.592821 l -1.19763,1.197602 h -0.59881 l -1.1976,1.197617 v 0.598801 l -1.79641,1.796418 v 0.598801 l -1.19761,1.197602 h -8.38325 l -0.59881,-0.598801 h -11.37728 l -0.59879,-0.598801 h -17.36532 l -0.59883,-0.598801 h -13.77248 l -0.59879,-0.598815 h -1.79642 l -0.5988,-0.598802 v -2.395219 l -0.59881,-0.5988 v -0.598802 l -0.59881,-0.598801 h -11.97609 l -1.1976,1.197603 h -13.17369 l -0.5988,-0.598802 h -0.5988 l -0.5988,-0.598801 h -10.77849 l -0.59879,0.598801 -0.59881,-0.598801 v -1.197617 l -0.59881,-0.598801 v -1.197602 l -1.1976,-1.197616 V 62.80983 l -1.1976,-1.197602 h -0.59883 l -0.59879,-0.598801 h -2.39522 l -1.1976,-1.197617 V 58.019407 L 548.8305,57.420591 V 56.82179 l -0.59879,-0.598802 h -0.59882 l -0.59881,-0.598801 v -4.790438 l 0.59881,-0.5988 h 0.59882 l 0.59879,-0.598802 V 48.43853 l 0.59881,-0.598801 h 16.16771 l 0.59881,0.598801 h 1.7964 l 0.59881,0.598816 h 1.19761 l 0.5988,0.598801 h 1.79642 l 0.5988,0.598802 h 1.1976 l 0.59881,0.5988 h 1.79641 l 0.5988,0.598801 h 1.79641 l 0.59881,0.598816 h 1.79641 l 0.5988,0.598801 h 1.19761 l 0.59881,0.598801 h 1.1976 l 0.5988,0.598802 h 1.79643 l 0.59879,0.5988 h 1.19761 l 0.59883,0.598816 h 1.79638 l 0.59883,0.598801 h 38.32346 V 54.42657 l 0.5988,-0.5988 V 19.695942 l -1.19762,-1.197618 h -38.32347 l -0.59878,0.598801 h -1.1976 l -0.59883,0.598817 h -1.7964 l -0.5988,0.5988 h -1.79643 l -0.5988,0.598801 h -1.79641 l -0.59881,0.598801 h -1.79641 l -0.5988,0.598801 h -1.79641 l -0.59881,0.598816 h -1.79641 l -0.5988,0.598802 h -1.79641 l -0.5988,0.5988 h -1.79642 l -0.5988,0.598801 h -1.79642 l -0.5988,0.598801 h -17.96412 l -0.59881,-0.598801 v -0.598801 h -1.19761 l -1.1976,-1.197602 H 535.058 l -0.5988,0.598802 h -0.59879 l -1.79643,1.796402 h -16.1677 l -0.59882,-0.598801 h -16.7665 l -2.39521,-2.395219 v -2.395203 l 0.59879,-0.598817 h 0.59881 l 0.59879,-0.598801 v -2.994021 l -0.59879,-0.5988 v -0.5988 l -0.59881,-0.598802 h -0.59879 l -0.59881,-0.598817 h -0.59881 l -0.5988,-0.5988 h -1.79641 l -0.59881,-0.598803 z m -305.98888,200.599379 0.59879,-0.59881 0.59881,0.59881 v 0.5988 l 0.5988,0.59882 v 4.19162 l -0.5988,0.5988 h -1.1976 l -0.59882,0.5988 h -0.59879 l -0.59882,0.59882 h -0.59879 l -0.5988,0.5988 -1.19761,-1.19762 v -1.7964 l -0.59881,-0.5988 v -1.19763 l 0.59881,-0.59879 v -0.59881 l 0.59879,-0.59879 h 0.59882 l 0.5988,-0.59882 h 1.19761 l 0.59879,-0.5988 z m 244.31207,-76.04813 0.5988,-0.59879 h 11.97607 l 0.59881,0.59879 h 1.19761 l 0.5988,0.59883 h 0.5988 l 0.5988,0.59879 h 0.59881 l 1.79641,1.79641 h 0.5988 l 0.59882,0.59881 v 0.59881 l 1.7964,1.7964 v 0.59881 l 0.5988,0.59881 v 1.1976 l 0.59882,0.59879 v 1.19762 l 0.5988,0.59881 v 5.98804 l -0.5988,0.59881 v 1.79641 l -0.59882,0.5988 v 0.59881 l -0.5988,0.5988 v 0.59881 l -0.59879,0.5988 v 0.5988 l -3.59283,3.59282 h -0.59881 l -0.59881,0.59881 h -0.5988 l -0.5988,0.59881 h -1.19761 l -0.5988,0.5988 h -1.19761 l -0.5988,0.59879 h -2.39522 l -0.5988,0.59881 h -4.79044 l -0.5988,0.59881 h -11.97607 l -0.59882,-0.59881 h -3.59282 l -0.59882,-0.59881 h -1.7964 l -0.59881,-0.59879 h -0.59879 l -0.59881,-0.5988 h -0.5988 l -0.59881,-0.59881 h -0.59881 l -4.19161,-4.19163 v -0.5988 l -0.59882,-0.5988 v -0.59881 l -0.5988,-0.5988 v -1.19761 l -0.59881,-0.5988 v -7.78446 l 0.59881,-0.59881 v -1.19762 l 0.5988,-0.59879 v -1.1976 l 1.79642,-1.79642 v -0.5988 l 0.59879,-0.5988 h 0.59882 l 1.7964,-1.79643 h 0.59881 l 1.19761,-1.1976 h 0.59881 l 0.59879,-0.59879 h 2.99403 l 0.59879,-0.59883 h 4.19165 l 0.59878,0.59883 v 0.59879 l -1.19758,1.1976 v 0.59881 l -0.59882,0.59881 v 0.59881 l -0.59881,0.5988 v 1.1976 l -0.5988,0.59881 v 8.38324 l 0.5988,0.59883 v 1.79641 l 0.59881,0.59879 v 0.59882 l 0.59882,0.5988 v 0.5988 l 0.5988,0.59881 v 0.5988 l 0.59878,0.59881 v 0.5988 l 1.19764,1.1976 v 0.59881 l 2.3952,2.39521 h 1.19762 v -2.39521 l -1.19762,-1.19761 v -0.5988 l -1.1976,-1.19761 v -0.5988 l -0.5988,-0.59881 v -1.1976 l -0.5988,-0.59882 v -1.1976 l -0.59883,-0.5988 v -5.38924 l 0.59883,-0.59881 v -1.19762 l 0.5988,-0.59879 v -0.5988 l 0.5988,-0.5988 v -0.59881 l 1.1976,-1.19761 v -0.5988 l 4.19164,-4.19162 z m 526.34878,-14.37128 h 2.39522 l 0.5988,0.5988 v 4.19164 l -0.5988,0.59879 h -0.5988 l -0.59882,0.5988 h -0.5988 l -1.7964,-1.79641 v -2.99401 z m 119.76091,-29.341416 0.5988,-0.598801 0.5987,0.598801 v 19.161736 l -0.5987,0.5988 -0.5988,-0.5988 z m -105.38961,0 0.59881,-0.598801 0.5988,0.598801 v 18.562946 l -0.5988,0.59879 -0.59881,-0.59879 z m -25.14977,-1.197603 0.59881,-0.598803 0.5988,0.598803 v 20.359339 l -0.5988,0.5988 -0.59881,-0.5988 z M 397.93187,89.756014 h 10.77846 l 0.59881,0.598812 h 0.59883 l 0.5988,0.598802 h 7.78444 l 0.59881,-0.598802 h 0.5988 l 0.5988,0.598802 v 0.598803 l -0.5988,0.598802 h -9.58085 l -0.59883,-0.598802 h -11.97608 l -0.59879,-0.598803 z m 75.44932,-2.994023 0.5988,-0.598801 h 71.85649 l 0.59881,0.598801 -0.59881,0.598815 h -71.85649 z m -49.10194,-1.796403 0.59881,-0.598802 0.5988,0.598802 v 20.359342 l -0.5988,0.5988 -0.59881,-0.5988 V 89.756014 h -2.39521 l -0.59882,-0.598805 0.59882,-0.5988 h 1.79641 l 0.5988,-0.598801 z m 107.18594,-9.580862 0.59879,-0.598816 h 8.98206 l 0.59881,0.598816 -0.59881,0.598802 h -8.98206 z m -133.53332,-0.598816 0.59881,-0.598801 h 10.17965 l 0.59881,0.598801 -1.19759,1.197618 -0.5988,-0.598802 h -8.98207 z m 157.48548,-2.99402 0.59879,-0.598801 0.59881,0.598801 v 14.3713 l -1.1976,1.197616 h -0.59881 l -0.59879,0.598802 h -5.38925 l -0.59879,-0.598802 0.59879,-0.598815 h 4.79042 l 0.59883,-0.598801 h 0.59879 l 0.59881,-0.598802 v -9.58086 h -7.18564 l -0.59882,-0.598802 0.59882,-0.598816 h 7.18564 z m -101.79669,-23.952161 0.5988,-0.598801 h 64.07202 l 0.59882,0.598801 h 13.17368 l 0.59882,0.598801 v 1.197617 l 1.19761,1.197602 v 4.790438 l -0.59881,0.598801 v 1.197603 l -0.5988,0.598816 v 1.796403 l -1.19761,1.197617 h -0.59881 v 2.395205 l -0.5988,0.598815 v 2.395204 l 0.5988,0.598815 v 2.395205 l -0.5988,0.598816 v 1.796403 l 1.19761,1.197617 v 1.796403 l -0.59881,0.598816 h -56.88639 l -0.5988,0.598802 v 8.98206 l -0.5988,0.5988 -0.59881,-0.5988 V 74.78591 l -0.5988,-0.598801 v -1.796417 l 0.5988,-0.598802 v -3.592821 l -0.5988,-0.598801 h -8.98207 l -0.59881,0.598801 h -1.1976 l -0.59879,-0.598801 1.1976,-1.197617 V 63.408632 L 460.8063,62.80983 v -0.5988 l -0.59879,-0.598802 h -0.59882 l -0.59881,-0.598801 h -1.79639 l -0.59882,-0.598815 h -0.5988 l -0.59881,-0.598802 v -1.197601 l -0.59879,-0.598802 V 56.82179 l -0.59881,-0.598802 h -0.5988 l -1.19761,-1.197602 v -5.389239 l 0.5988,-0.598801 h 0.59881 z"
     fill="#000000"
     fill-rule="evenodd"
     id="path1"
     style="stroke-width:0.598804" />
</svg>
