<svg xmlns="http://www.w3.org/2000/svg" width="2172" height="724" viewBox="0 0 2172 724">
  <rect width="100%" height="100%" fill="white"/>
  <path d="M 775 185 L 774 186 L 771 186 L 767 190 L 767 196 L 769 198 L 769 202 L 765 206 L 736 206 L 735 205 L 735 204 L 734 203 L 732 203 L 730 201 L 713 201 L 712 202 L 710 202 L 709 203 L 708 203 L 706 205 L 682 205 L 681 204 L 680 204 L 678 202 L 677 202 L 676 201 L 675 201 L 674 200 L 662 200 L 661 201 L 659 201 L 658 202 L 651 202 L 650 201 L 649 201 L 648 200 L 646 200 L 645 199 L 642 199 L 641 198 L 637 198 L 636 197 L 633 197 L 632 196 L 628 196 L 627 195 L 624 195 L 623 194 L 619 194 L 618 193 L 573 193 L 572 192 L 543 192 L 542 193 L 542 194 L 541 195 L 541 200 L 540 201 L 540 247 L 541 248 L 541 251 L 543 253 L 621 253 L 622 252 L 626 252 L 627 251 L 631 251 L 632 250 L 636 250 L 637 249 L 640 249 L 641 248 L 646 248 L 647 247 L 649 247 L 650 246 L 660 246 L 661 247 L 674 247 L 675 246 L 676 246 L 678 244 L 680 244 L 681 243 L 706 243 L 707 244 L 707 246 L 709 248 L 709 257 L 708 258 L 708 260 L 707 261 L 707 265 L 706 266 L 705 266 L 704 267 L 704 286 L 705 287 L 704 288 L 704 312 L 705 313 L 705 330 L 703 332 L 702 332 L 702 334 L 701 335 L 700 334 L 700 308 L 701 307 L 701 295 L 700 294 L 700 293 L 698 291 L 699 290 L 702 290 L 702 286 L 701 286 L 700 285 L 689 285 L 687 283 L 687 282 L 686 282 L 684 280 L 683 280 L 682 279 L 669 279 L 668 280 L 662 280 L 661 279 L 642 279 L 641 278 L 641 275 L 640 274 L 634 274 L 633 275 L 633 279 L 632 280 L 632 282 L 631 283 L 631 285 L 633 287 L 633 290 L 632 291 L 624 291 L 623 292 L 623 293 L 622 294 L 622 297 L 621 298 L 621 307 L 622 308 L 622 312 L 624 314 L 630 314 L 631 315 L 631 316 L 632 317 L 631 318 L 629 318 L 628 319 L 618 319 L 617 320 L 612 320 L 611 321 L 606 321 L 605 322 L 601 322 L 600 323 L 596 323 L 595 324 L 591 324 L 590 325 L 586 325 L 585 326 L 580 326 L 579 327 L 576 327 L 575 328 L 573 328 L 572 329 L 571 329 L 567 333 L 565 333 L 564 334 L 562 334 L 561 335 L 559 335 L 558 336 L 557 336 L 556 337 L 554 337 L 553 338 L 551 338 L 550 339 L 549 339 L 548 340 L 546 340 L 545 341 L 544 341 L 543 342 L 541 342 L 540 343 L 539 343 L 538 344 L 536 344 L 535 345 L 534 345 L 533 346 L 531 346 L 530 347 L 528 347 L 527 348 L 526 348 L 525 349 L 523 349 L 522 350 L 520 350 L 519 351 L 517 351 L 516 352 L 513 352 L 512 353 L 508 353 L 507 354 L 490 354 L 489 353 L 486 353 L 485 352 L 483 352 L 482 351 L 480 351 L 479 350 L 478 350 L 477 349 L 476 349 L 475 348 L 474 348 L 473 347 L 472 347 L 471 346 L 470 346 L 469 345 L 468 345 L 467 344 L 465 344 L 464 343 L 463 343 L 462 342 L 460 342 L 459 341 L 456 341 L 455 340 L 452 340 L 451 339 L 445 339 L 444 338 L 409 338 L 408 339 L 390 339 L 389 340 L 373 340 L 372 341 L 360 341 L 359 342 L 347 342 L 346 343 L 335 343 L 334 344 L 322 344 L 321 345 L 309 345 L 308 346 L 296 346 L 295 347 L 283 347 L 282 348 L 271 348 L 270 349 L 259 349 L 258 350 L 248 350 L 247 351 L 236 351 L 235 352 L 224 352 L 223 353 L 213 353 L 212 354 L 201 354 L 200 355 L 189 355 L 188 356 L 177 356 L 176 357 L 166 357 L 165 358 L 156 358 L 155 359 L 145 359 L 144 360 L 135 360 L 134 361 L 124 361 L 123 362 L 112 362 L 111 363 L 99 363 L 98 364 L 90 364 L 89 365 L 87 365 L 86 366 L 84 366 L 83 367 L 82 367 L 80 369 L 79 369 L 73 375 L 73 376 L 72 377 L 72 378 L 71 379 L 71 382 L 70 383 L 70 389 L 71 390 L 71 396 L 72 397 L 72 403 L 73 404 L 73 410 L 74 411 L 74 418 L 75 419 L 75 428 L 76 429 L 76 438 L 77 439 L 77 451 L 78 452 L 78 463 L 79 464 L 79 479 L 80 480 L 80 498 L 81 499 L 81 521 L 82 522 L 82 547 L 83 548 L 83 554 L 84 555 L 84 557 L 85 558 L 85 559 L 86 560 L 86 561 L 91 566 L 92 566 L 93 567 L 94 567 L 95 568 L 104 568 L 105 567 L 107 567 L 108 566 L 110 566 L 111 565 L 112 565 L 113 564 L 115 564 L 116 563 L 118 563 L 119 562 L 121 562 L 122 561 L 124 561 L 125 560 L 127 560 L 128 559 L 130 559 L 131 558 L 132 558 L 133 557 L 135 557 L 136 556 L 138 556 L 139 555 L 141 555 L 142 554 L 143 554 L 144 553 L 146 553 L 147 552 L 149 552 L 150 551 L 152 551 L 153 550 L 155 550 L 156 549 L 158 549 L 159 548 L 161 548 L 162 547 L 164 547 L 165 546 L 166 546 L 167 545 L 169 545 L 170 544 L 172 544 L 173 543 L 175 543 L 176 542 L 178 542 L 179 541 L 181 541 L 182 540 L 184 540 L 185 539 L 186 539 L 187 538 L 189 538 L 190 537 L 192 537 L 193 536 L 195 536 L 196 535 L 198 535 L 199 534 L 200 534 L 201 533 L 203 533 L 204 532 L 206 532 L 207 531 L 209 531 L 210 530 L 212 530 L 213 529 L 215 529 L 216 528 L 218 528 L 219 527 L 221 527 L 222 526 L 224 526 L 225 525 L 227 525 L 228 524 L 230 524 L 231 523 L 233 523 L 234 522 L 236 522 L 237 521 L 238 521 L 239 520 L 241 520 L 242 519 L 244 519 L 245 518 L 247 518 L 248 517 L 250 517 L 251 516 L 253 516 L 254 515 L 256 517 L 256 518 L 253 521 L 253 523 L 252 524 L 252 530 L 253 531 L 253 533 L 254 534 L 254 535 L 255 536 L 256 536 L 257 537 L 259 537 L 260 536 L 262 536 L 263 535 L 265 535 L 266 534 L 267 534 L 268 533 L 269 533 L 270 532 L 270 531 L 271 530 L 271 520 L 270 519 L 270 518 L 268 516 L 267 516 L 266 515 L 266 512 L 267 511 L 269 511 L 270 510 L 272 510 L 273 509 L 275 509 L 276 508 L 278 508 L 279 507 L 281 507 L 282 506 L 284 506 L 285 505 L 287 505 L 288 504 L 290 504 L 291 503 L 292 503 L 293 502 L 296 502 L 297 501 L 298 501 L 299 500 L 301 500 L 302 499 L 304 499 L 305 498 L 308 498 L 309 497 L 311 497 L 312 496 L 313 496 L 314 495 L 316 495 L 317 494 L 319 494 L 320 493 L 322 493 L 323 492 L 325 492 L 326 491 L 328 491 L 329 490 L 331 490 L 332 489 L 334 489 L 335 488 L 337 488 L 338 487 L 340 487 L 341 486 L 343 486 L 344 485 L 346 485 L 347 484 L 349 484 L 350 483 L 352 483 L 353 482 L 355 482 L 356 481 L 358 481 L 359 480 L 361 480 L 362 479 L 364 479 L 365 478 L 367 478 L 368 477 L 370 477 L 371 476 L 373 476 L 374 475 L 376 475 L 377 474 L 379 474 L 380 473 L 382 473 L 383 472 L 385 472 L 386 471 L 388 471 L 389 470 L 391 470 L 392 469 L 394 469 L 395 468 L 397 468 L 398 467 L 400 467 L 401 466 L 404 466 L 405 465 L 407 465 L 408 464 L 410 464 L 411 463 L 413 463 L 414 462 L 416 462 L 417 461 L 419 461 L 420 460 L 422 460 L 423 459 L 425 459 L 426 458 L 429 458 L 430 457 L 432 457 L 433 456 L 437 456 L 438 455 L 444 455 L 445 454 L 453 454 L 454 455 L 459 455 L 460 456 L 463 456 L 464 457 L 465 457 L 466 458 L 468 458 L 469 459 L 470 459 L 471 460 L 473 460 L 474 461 L 476 461 L 477 462 L 480 462 L 481 463 L 483 463 L 484 464 L 488 464 L 489 465 L 507 465 L 508 464 L 511 464 L 512 463 L 513 463 L 514 462 L 516 462 L 518 460 L 519 460 L 524 455 L 524 454 L 525 453 L 525 452 L 527 450 L 527 449 L 529 447 L 529 446 L 531 444 L 531 443 L 533 441 L 533 440 L 535 438 L 535 437 L 538 434 L 538 433 L 542 429 L 542 428 L 554 416 L 555 416 L 558 413 L 559 413 L 561 411 L 562 411 L 564 409 L 565 409 L 566 408 L 567 408 L 568 407 L 569 407 L 570 406 L 571 406 L 572 405 L 574 405 L 575 404 L 577 404 L 578 403 L 580 403 L 581 402 L 584 402 L 585 401 L 588 401 L 589 400 L 593 400 L 594 399 L 599 399 L 600 398 L 606 398 L 607 397 L 611 397 L 612 398 L 612 400 L 617 400 L 618 401 L 619 401 L 621 403 L 621 404 L 622 405 L 622 407 L 623 408 L 623 412 L 624 413 L 624 422 L 625 423 L 625 427 L 626 428 L 626 430 L 627 431 L 627 432 L 629 434 L 629 435 L 636 442 L 637 442 L 638 443 L 639 443 L 640 444 L 641 444 L 642 445 L 644 445 L 645 446 L 648 446 L 649 447 L 654 447 L 655 448 L 678 448 L 679 447 L 687 447 L 688 446 L 692 446 L 693 445 L 695 445 L 696 444 L 698 444 L 699 443 L 700 443 L 701 442 L 702 442 L 703 441 L 704 441 L 706 439 L 707 439 L 710 436 L 710 435 L 712 433 L 712 432 L 714 430 L 714 428 L 715 427 L 715 424 L 716 423 L 716 418 L 717 417 L 717 411 L 718 410 L 718 406 L 719 405 L 719 402 L 720 401 L 720 400 L 722 398 L 725 398 L 726 397 L 728 397 L 728 396 L 729 395 L 729 393 L 730 392 L 733 392 L 734 393 L 745 393 L 746 394 L 755 394 L 756 393 L 774 393 L 775 392 L 792 392 L 793 391 L 811 391 L 812 390 L 831 390 L 832 389 L 851 389 L 852 388 L 872 388 L 873 387 L 892 387 L 893 386 L 906 386 L 907 385 L 909 385 L 909 384 L 911 382 L 928 382 L 929 381 L 951 381 L 952 380 L 980 380 L 981 379 L 1009 379 L 1010 378 L 1039 378 L 1040 377 L 1068 377 L 1069 376 L 1095 376 L 1096 375 L 1124 375 L 1125 374 L 1152 374 L 1153 373 L 1180 373 L 1181 372 L 1203 372 L 1204 371 L 1229 371 L 1230 370 L 1258 370 L 1259 369 L 1288 369 L 1289 368 L 1316 368 L 1317 367 L 1345 367 L 1346 366 L 1376 366 L 1377 365 L 1407 365 L 1408 364 L 1440 364 L 1441 363 L 1473 363 L 1474 362 L 1509 362 L 1510 361 L 1528 361 L 1529 360 L 1530 360 L 1531 359 L 1531 358 L 1532 357 L 1532 353 L 1533 352 L 1534 353 L 1534 360 L 1535 360 L 1536 361 L 1546 361 L 1547 362 L 1547 364 L 1548 365 L 1546 367 L 1546 369 L 1545 370 L 1545 376 L 1546 377 L 1546 379 L 1549 382 L 1556 382 L 1557 381 L 1558 381 L 1558 380 L 1560 378 L 1560 369 L 1559 368 L 1559 367 L 1557 365 L 1559 363 L 1559 362 L 1560 361 L 1567 361 L 1568 360 L 1572 360 L 1574 358 L 1574 355 L 1575 354 L 1576 355 L 1576 357 L 1729 357 L 1730 356 L 1749 356 L 1750 355 L 1750 353 L 1751 352 L 1752 353 L 1752 358 L 1775 358 L 1777 356 L 1802 356 L 1804 358 L 1827 358 L 1828 357 L 1828 355 L 1829 354 L 1829 347 L 1831 345 L 1870 345 L 1871 346 L 1872 346 L 1873 347 L 1915 347 L 1916 346 L 1917 346 L 1918 345 L 1918 330 L 1919 329 L 1994 329 L 1995 330 L 2025 330 L 2026 331 L 2071 331 L 2073 329 L 2096 329 L 2098 327 L 2098 322 L 2099 321 L 2099 311 L 2098 310 L 2098 307 L 2095 304 L 2093 304 L 2092 305 L 2077 305 L 2074 302 L 2073 302 L 2072 301 L 2072 294 L 2073 293 L 2073 289 L 2072 288 L 2072 283 L 2071 282 L 2071 280 L 2070 279 L 2070 270 L 2069 269 L 2065 269 L 2065 270 L 2064 271 L 2063 271 L 2062 270 L 2037 270 L 2036 269 L 2032 269 L 2031 270 L 2031 278 L 2030 279 L 2029 279 L 2027 281 L 2027 282 L 2026 283 L 2026 302 L 2025 303 L 1987 303 L 1986 304 L 1985 304 L 1984 303 L 1863 303 L 1862 304 L 1830 304 L 1829 303 L 1829 302 L 1828 301 L 1828 299 L 1826 297 L 1805 297 L 1802 300 L 1801 300 L 1800 301 L 1777 301 L 1775 299 L 1775 298 L 1774 297 L 1753 297 L 1752 298 L 1752 304 L 1751 305 L 1750 304 L 1750 301 L 1749 301 L 1748 300 L 1733 300 L 1732 299 L 1612 299 L 1611 300 L 1577 300 L 1577 311 L 1576 312 L 1575 311 L 1575 306 L 1574 305 L 1574 296 L 1572 294 L 1570 294 L 1569 293 L 1537 293 L 1536 294 L 1535 294 L 1534 295 L 1534 301 L 1535 302 L 1535 311 L 1534 312 L 1533 311 L 1533 303 L 1532 302 L 1532 297 L 1531 296 L 1531 295 L 1530 294 L 1529 294 L 1528 293 L 1517 293 L 1516 292 L 1499 292 L 1498 291 L 1481 291 L 1480 290 L 1464 290 L 1463 289 L 1445 289 L 1444 288 L 1426 288 L 1425 287 L 1397 287 L 1396 286 L 1356 286 L 1355 285 L 1254 285 L 1253 284 L 1242 284 L 1241 285 L 1240 285 L 1239 286 L 1239 287 L 1237 289 L 1236 288 L 1235 288 L 1233 286 L 1233 282 L 1232 281 L 1232 280 L 1231 280 L 1229 278 L 1229 272 L 1218 272 L 1216 274 L 1216 275 L 1215 276 L 1181 276 L 1180 275 L 1125 275 L 1124 274 L 1124 273 L 1122 273 L 1121 272 L 1108 272 L 1107 271 L 1107 270 L 1106 270 L 1105 269 L 1104 269 L 1103 268 L 1091 268 L 1091 269 L 1088 272 L 1080 272 L 1079 273 L 1079 279 L 1077 281 L 1076 281 L 1074 283 L 1074 284 L 1071 287 L 1071 288 L 1069 290 L 1055 290 L 1054 289 L 1035 289 L 1034 288 L 1005 288 L 1004 287 L 981 287 L 980 286 L 977 286 L 976 285 L 976 281 L 975 280 L 975 279 L 974 278 L 954 278 L 952 280 L 930 280 L 929 279 L 928 279 L 927 278 L 909 278 L 908 279 L 907 278 L 907 276 L 906 275 L 906 273 L 904 271 L 904 270 L 902 268 L 901 268 L 900 267 L 896 267 L 894 265 L 894 262 L 893 261 L 893 260 L 892 259 L 891 259 L 890 258 L 890 250 L 891 249 L 892 249 L 893 248 L 893 246 L 894 245 L 921 245 L 922 246 L 925 246 L 926 247 L 928 247 L 929 248 L 932 248 L 933 249 L 935 249 L 936 250 L 939 250 L 940 251 L 943 251 L 944 252 L 947 252 L 948 253 L 950 253 L 951 254 L 953 254 L 954 255 L 957 255 L 958 256 L 960 256 L 961 257 L 964 257 L 965 258 L 1029 258 L 1029 256 L 1030 255 L 1030 198 L 1028 196 L 964 196 L 963 197 L 961 197 L 960 198 L 957 198 L 956 199 L 953 199 L 952 200 L 949 200 L 948 201 L 945 201 L 944 202 L 941 202 L 940 203 L 937 203 L 936 204 L 933 204 L 932 205 L 929 205 L 928 206 L 925 206 L 924 207 L 894 207 L 893 206 L 893 205 L 891 205 L 889 203 L 870 203 L 869 204 L 868 204 L 865 207 L 838 207 L 837 206 L 809 206 L 805 202 L 805 198 L 806 197 L 807 197 L 808 196 L 808 191 L 807 190 L 807 189 L 806 188 L 805 188 L 804 187 L 803 187 L 802 186 L 799 186 L 798 185 Z M 264 520 L 265 519 L 266 520 L 266 521 L 267 522 L 267 529 L 266 530 L 264 530 L 263 531 L 262 531 L 261 532 L 260 532 L 259 533 L 257 531 L 257 528 L 256 527 L 256 525 L 257 524 L 257 523 L 258 522 L 259 522 L 260 521 L 262 521 L 263 520 Z M 672 393 L 673 392 L 693 392 L 694 393 L 696 393 L 697 394 L 698 394 L 699 395 L 700 395 L 703 398 L 704 398 L 705 399 L 705 400 L 708 403 L 708 404 L 709 405 L 709 407 L 710 408 L 710 410 L 711 411 L 711 421 L 710 422 L 710 425 L 709 426 L 709 427 L 708 428 L 708 429 L 707 430 L 707 431 L 701 437 L 700 437 L 699 438 L 698 438 L 697 439 L 695 439 L 694 440 L 692 440 L 691 441 L 687 441 L 686 442 L 678 442 L 677 443 L 657 443 L 656 442 L 650 442 L 649 441 L 646 441 L 645 440 L 644 440 L 643 439 L 642 439 L 641 438 L 640 438 L 633 431 L 633 430 L 632 429 L 632 428 L 631 427 L 631 425 L 630 424 L 630 411 L 631 410 L 631 408 L 632 407 L 632 405 L 635 402 L 635 401 L 636 400 L 637 400 L 640 397 L 641 397 L 643 395 L 644 395 L 645 394 L 650 394 L 651 393 L 658 393 L 659 394 L 659 395 L 657 397 L 657 398 L 656 399 L 656 400 L 655 401 L 655 403 L 654 404 L 654 418 L 655 419 L 655 422 L 656 423 L 656 424 L 657 425 L 657 426 L 658 427 L 658 428 L 659 429 L 659 430 L 661 432 L 661 433 L 665 437 L 667 437 L 667 433 L 665 431 L 665 430 L 663 428 L 663 427 L 662 426 L 662 424 L 661 423 L 661 421 L 660 420 L 660 411 L 661 410 L 661 408 L 662 407 L 662 406 L 663 405 L 663 404 L 665 402 L 665 401 L 672 394 Z M 1551 369 L 1555 369 L 1556 370 L 1556 377 L 1555 378 L 1554 378 L 1553 379 L 1552 379 L 1549 376 L 1549 371 Z M 1751 320 L 1752 319 L 1753 320 L 1753 352 L 1752 353 L 1751 352 Z M 1575 320 L 1576 319 L 1577 320 L 1577 351 L 1576 352 L 1575 351 Z M 1533 318 L 1534 317 L 1535 318 L 1535 352 L 1534 353 L 1533 352 Z M 641 315 L 659 315 L 660 316 L 661 316 L 662 317 L 675 317 L 676 316 L 677 316 L 678 317 L 678 318 L 677 319 L 661 319 L 660 318 L 640 318 L 639 317 Z M 767 310 L 768 309 L 888 309 L 889 310 L 888 311 L 768 311 Z M 685 307 L 686 306 L 687 307 L 687 341 L 686 342 L 685 341 L 685 315 L 681 315 L 680 314 L 681 313 L 684 313 L 685 312 Z M 864 291 L 865 290 L 880 290 L 881 291 L 880 292 L 865 292 Z M 641 290 L 642 289 L 659 289 L 660 290 L 658 292 L 657 291 L 642 291 Z M 904 285 L 905 284 L 906 285 L 906 309 L 904 311 L 903 311 L 902 312 L 893 312 L 892 311 L 893 310 L 901 310 L 902 309 L 903 309 L 904 308 L 904 292 L 892 292 L 891 291 L 892 290 L 904 290 Z M 734 245 L 735 244 L 842 244 L 843 245 L 865 245 L 866 246 L 866 248 L 868 250 L 868 258 L 867 259 L 867 261 L 866 262 L 866 265 L 864 267 L 863 267 L 863 271 L 862 272 L 862 276 L 863 277 L 863 281 L 862 282 L 862 285 L 864 287 L 864 290 L 863 291 L 768 291 L 767 292 L 767 307 L 766 308 L 765 307 L 765 290 L 764 289 L 764 286 L 765 285 L 765 279 L 764 278 L 749 278 L 748 279 L 746 279 L 745 278 L 747 276 L 747 271 L 746 270 L 746 269 L 745 268 L 744 268 L 743 267 L 740 267 L 739 266 L 738 266 L 737 265 L 737 263 L 736 262 L 736 260 L 735 259 L 734 259 L 732 257 L 732 248 L 733 247 L 734 247 Z" fill="black" fill-rule="evenodd"/>
</svg>