<?xml version="1.0" encoding="UTF-8" standalone="no"?>
<svg
   width="600"
   height="250"
   viewBox="0 0 600 250"
   version="1.1"
   id="svg2"
   sodipodi:docname="kubelwagen_black.svg"
   inkscape:version="1.4.2 (f4327f4, 2025-05-13)"
   xmlns:inkscape="http://www.inkscape.org/namespaces/inkscape"
   xmlns:sodipodi="http://sodipodi.sourceforge.net/DTD/sodipodi-0.dtd"
   xmlns="http://www.w3.org/2000/svg"
   xmlns:svg="http://www.w3.org/2000/svg">
  <defs
     id="defs2" />
  <sodipodi:namedview
     id="namedview2"
     pagecolor="#ffffff"
     bordercolor="#000000"
     borderopacity="0.25"
     inkscape:showpageshadow="2"
     inkscape:pageopacity="0.0"
     inkscape:pagecheckerboard="0"
     inkscape:deskcolor="#d1d1d1"
     inkscape:zoom="0.55616943"
     inkscape:cx="712.01324"
     inkscape:cy="396.46192"
     inkscape:window-width="2560"
     inkscape:window-height="1377"
     inkscape:window-x="-8"
     inkscape:window-y="-8"
     inkscape:window-maximized="1"
     inkscape:current-layer="svg2" />
  <path
     d="m 551.29921,102.32432 -0.37457,0.37452 h -0.74904 l -0.37449,0.37452 h -0.37456 l -0.37449,0.37453 h -0.37456 l -0.74905,0.74905 h -0.37449 l -1.12361,1.12357 h -0.37448 v 1.12356 l 0.37448,0.37453 v 0.37452 l 0.37457,0.37453 v 0.37452 l 0.37448,0.37452 v 0.37453 l 0.37456,0.37452 v 0.37453 l 0.74905,0.74904 v 0.37453 l 0.37449,0.37452 v 0.37453 l 0.37456,0.37452 v 0.37452 l 0.37449,0.37453 v 0.37452 l 0.37456,0.37453 v 0.37452 l 0.74905,0.74905 v 0.37452 l 0.37448,0.37452 v 0.37452 l 0.37457,0.37453 v 0.37452 l 0.37448,0.37453 v 0.37452 l 0.37456,0.37452 v 0.37453 l 0.37449,0.37452 v 0.37453 l 0.74905,0.74904 v 0.37453 l 0.37449,0.37452 v 0.37453 l 0.37456,0.37452 v 0.37453 l 0.37448,0.37452 v 0.37452 l 0.37457,0.37453 v 0.37452 l 0.37448,0.37452 v 0.37452 l 0.37456,0.37453 v 0.37452 l 0.37449,0.37452 v 0.37453 l 0.37456,0.37452 h 0.74905 l 0.74905,-0.74905 h 0.74905 l 0.37448,-0.37452 h 0.37456 l 0.37449,-0.37452 v -0.37453 l 0.37456,-0.37452 v -17.97714 l -0.37456,-0.37452 v -0.74905 l -1.12353,-1.12357 h -0.37457 l -0.37448,-0.37452 z"
     fill="#000000"
     fill-rule="evenodd"
     id="path1"
     style="stroke-width:0.374524" />
  <path
     d="m 20.97351,142.77288 1.498096,10.86119 23.220473,0.37453 16.85357,18.72618 7.115951,-13.48285 h 2.996193 l -10.112144,20.97333 4.119758,25.84214 18.351666,19.84976 23.594997,7.11595 22.84595,-4.86881 19.84976,-17.97714 6.3669,-25.84214 -7.11595,-25.09309 6.74143,12.7338 1.87262,15.35548 21.34785,4.11976 h 230.33212 l 5.61786,-4.86881 8.98858,1.12358 3.37071,-17.60262 -1.4981,24.34404 6.74143,16.85357 19.10071,16.85357 22.84595,4.86881 24.34404,-7.49047 17.97715,-20.59882 3.37068,-11.61023 -0.74905,-18.72619 -11.61021,-20.5988 10.11212,13.10833 3.74524,20.59881 31.83451,-0.37453 -0.37448,-5.61786 -7.11593,-0.37452 -2.99619,-3.74524 0.37449,-5.24333 6.36695,-1.49809 -1.4981,-8.23953 14.6064,-2.24714 1.4981,-3.37072 10.86116,3.37072 4.86885,-2.24715 -2.24714,-11.61023 -4.11981,1.12357 1.4981,7.49048 -11.23572,-3.74524 0.37456,-7.11595 -32.58356,-58.800229 0.37448,-7.865 7.86505,-3.74524 -6.74144,-6.366907 3.74525,-4.119758 -2.9962,-5.992386 -109.36096,11.235716 -5.61786,12.733815 -7.865,3.37071 H 343.813 l 0.74904,-13.108332 -3.3707,-2.996193 -12.73382,1.498096 -5.61785,14.606429 -11.61024,1.87262 -74.90475,-1.87262 -2.99619,-4.49428 19.47524,-42.321192 -16.10452,-6.741426 -31.08548,52.058798 0.37452,5.61786 -2.62166,-5.24334 2.24714,-2.24713 -6.36691,-2.62167 -21.34785,4.49428 -2.62167,-7.49047 2.62167,-4.119762 -5.61786,-2.996193 -4.49429,1.498096 -0.37452,4.494279 4.11977,2.24715 1.87261,7.49047 -14.60643,10.11215 -41.57213,11.610239 0.37452,-2.62167 30.33642,-7.115949 3.37072,-8.98857 -4.49428,-11.98477 -8.98857,-1.87261 -72.283088,20.22428 -8.239523,4.49428 -1.123572,9.737619 5.24333,9.36309 10.112144,1.12358 -15.729998,4.49428 2.621661,4.86881 -2.247137,8.23952 -1.123573,-12.35928 -14.606425,-4.49429 -13.857385,10.48667 5.992386,2.62166 4.119758,14.23191 -10.861192,1.49809 1.872621,-6.74143 z m 451.67567,55.05499 0.37452,-0.37452 h 0.37453 l 0.74905,0.74905 h 0.37452 l 0.37452,-0.37453 h 0.37452 l 0.37452,-0.37452 0.74905,0.74905 v 0.37452 l 0.37453,0.37453 v 0.74904 l -0.37453,0.37453 v 0.37452 l -0.74905,0.74905 h -0.37452 l -0.37452,0.37452 h -0.37452 l -0.37452,-0.37452 h -0.74905 l -1.12357,-1.12357 v -1.4981 l 0.37452,-0.37452 z m -362.91354,-0.74904 h 1.4981 l 0.37452,0.37452 h 0.37453 l 0.37452,0.37452 v 0.37453 l 0.37452,0.37452 v 1.4981 l -1.12357,1.12357 h -2.24714 l -0.74905,-0.74905 v -0.37452 l -0.37452,-0.37453 v -1.12357 z m 373.02568,-2.62167 h 1.87262 l 0.37452,0.37453 -0.37452,0.37452 h -1.4981 0.37452 l 0.37453,0.37453 0.37452,-0.37453 h 0.37453 l 0.37452,-0.37452 0.74905,0.74905 v 1.87261 l -1.12357,1.12357 h -1.4981 l -0.37452,-0.37452 0.37452,-0.37453 h 1.12357 l -0.37452,-0.37452 h -0.37453 l -0.74904,0.74905 h -0.37452 l -0.74905,-0.74905 v -1.49809 l 0.37452,-0.37452 v -0.37453 z m -17.97714,0 h 1.4981 l 1.49809,1.4981 v 1.49809 l -1.12358,1.12357 h -0.74904 l -0.37452,0.37453 h -0.37453 l -0.37452,-0.37453 h -0.37452 l -1.12358,-1.12357 v -0.37452 l -0.37452,-0.37453 0.74905,-0.74904 v -0.37452 z m -345.68544,0 h 1.49809 l 0.37453,0.37453 h 0.37452 l 0.37453,0.37452 v 0.37453 l 0.37452,0.37452 v 1.12357 l -0.37452,0.37452 v 0.37452 l -0.37453,0.37453 h -0.37452 l -0.37453,0.37452 h -1.12357 l -0.37452,-0.37452 h -0.37453 l -0.74905,-0.74905 v -0.37452 l -0.37452,-0.37453 v -0.37452 l 0.37452,-0.37452 v -0.37452 l 0.74905,-0.74905 0.37453,0.37452 -0.37453,-0.37452 z m -18.72619,0 h 1.87262 l 0.37452,0.37453 -0.37452,0.37452 0.37452,-0.37452 1.12357,1.12357 v 1.12357 l -1.49809,1.49809 h -1.87262 l -1.498099,-1.49809 v -0.74905 l 0.374524,-0.37452 v -0.37452 z m 352.42687,-0.37452 0.37452,0.37452 v 0.37453 l 0.37452,0.37452 v 0.37453 l 0.37453,0.37452 v 0.37452 l 0.37452,0.37452 v 0.37453 l 0.37453,0.37452 v 0.37452 l -0.37453,0.37453 -0.74905,-0.74905 v -0.37452 l -0.37452,-0.37453 v -0.37452 l -0.37452,-0.37452 v -0.37452 l -0.37453,-0.37453 v -0.74905 z m -358.044727,-8.23952 1.123572,-1.12358 0.374524,0.37453 h 1.872621 l 0.374524,-0.37453 0.749041,0.74905 v 1.4981 l -0.749041,0.74905 H 98.12541 l -0.374524,-0.37453 h -1.123573 1.123573 l 0.374524,0.37453 -0.374524,0.37451 h -1.498097 l -1.498096,-1.49809 z m 364.786147,-0.37453 0.37453,-0.37452 v -0.37453 l 0.37452,-0.37452 0.37453,0.37452 v 0.37453 h 1.12357 l 0.37452,-0.37453 0.37453,0.37453 0.37452,-0.37453 0.74905,0.74905 v 1.4981 l -0.74905,0.74905 h -0.37452 l -0.37453,0.37451 h -1.49809 l -1.12358,-1.12356 z m 25.84214,0 0.74905,-0.74905 0.37453,0.37453 -0.37453,-0.37453 0.74905,-0.74904 h 1.4981 l 1.49809,1.49809 v 1.4981 l -0.74904,0.74905 h -0.74905 l -0.37453,0.37451 h -0.74905 l -0.37452,-0.37451 h -0.37452 l -1.12358,-1.12358 z M 473.0237,183.9705 h 0.37453 l 0.37452,-0.37453 h 1.49809 l 0.37452,0.37453 h 0.37453 l 1.12357,1.12357 v 2.62167 l -1.12357,1.12356 h -1.12357 l -0.37452,0.37453 -0.37452,-0.37453 h -0.74905 l -0.37453,-0.37452 h -0.37452 l -0.37452,-0.37453 v -0.37451 l -0.37453,-0.37453 v -1.87262 l 0.37453,-0.37452 v -0.37453 z m -349.43068,-0.37453 0.37452,0.37453 h 0.74905 l 0.74905,0.74904 v 0.37453 l 0.37452,0.37452 v 1.4981 l -0.74904,0.74905 h -0.37453 l -0.37452,0.37451 h -1.12358 l -0.37451,-0.37451 h -0.37453 l -0.74904,-0.74905 v -1.87262 l 0.74904,-0.74905 0.37453,0.37452 -0.37453,-0.37452 0.37453,-0.37452 h 0.37451 z m -14.60643,0.37453 h 0.37453 l 0.37452,-0.37453 h 1.4981 l 0.37452,0.37453 h 0.37453 l 1.12357,1.12357 v 0.37452 l 0.37452,0.37453 v 1.12357 l -0.37452,0.37452 v 0.37453 l -0.74905,0.74904 h -0.37452 l -0.37453,0.37452 h -2.24714 l -0.37453,-0.37452 h -0.37452 l -0.74905,-0.74904 v -2.24715 l 0.37453,-0.37452 v -0.37453 z m 342.31473,-2.24715 0.37452,0.37453 v 7.86499 l 0.37453,0.37453 v 1.12357 l 0.37452,0.37453 v 1.12357 l -0.37452,0.37452 -0.37453,-0.37452 v -0.74905 l -0.37452,-0.37452 v -1.12358 l -0.37452,-0.37452 v -2.24715 l -0.37453,-0.37451 v -2.9962 l 0.37453,-0.37452 v -2.24714 z m -317.59616,-0.37452 0.37453,0.37452 v 1.87262 l 0.37452,0.37453 v 4.49428 l -0.37452,0.37452 v 1.87262 l -0.37453,0.37453 -0.37452,-0.37453 v -2.24714 l 0.37452,-0.37453 v -3.74523 l -0.37452,-0.37452 v -2.24715 z m 318.71973,-3.37071 0.37453,0.37452 v 0.74905 l -0.37453,0.37452 v 0.74905 l -0.37452,0.37452 v 1.12357 l -0.37453,0.37453 -0.37452,-0.37453 v -1.49809 l 0.37452,-0.37452 v -0.74905 l 0.37453,-0.37452 v -0.37453 z m -364.411624,-0.37453 0.374524,-0.37452 0.374524,0.37452 v 0.74905 l -0.374524,0.37453 v 0.74904 l -0.374524,0.37453 v 0.74904 l -0.374524,0.37452 v 1.12358 l -0.374524,0.37452 v 3.37072 l -0.374524,0.37452 v 1.12357 l 0.374524,0.37453 v 2.24713 l 0.374524,0.37453 v 1.12357 l 0.374524,0.37453 v 1.12357 l 0.749048,1.12357 v 0.74905 l 0.374524,0.37452 0.749049,1.87262 0.74904,0.74904 v 0.37453 l 0.749049,0.74905 v 0.37452 l 1.123572,1.12357 v 0.37453 l 2.621669,2.62167 h 0.374524 l 1.123572,1.12356 h 0.374525 l 0.749048,0.74905 1.123565,0.37452 0.749048,0.74905 h 0.374524 l 0.374527,0.37452 h 0.74904 l 1.12358,0.74905 h 0.74905 l 1.12357,0.74905 h 1.49809 l 0.37453,0.37453 h 2.24714 l 0.37452,0.37452 h 3.74524 l 0.37452,-0.37452 h 2.24714 l 0.37453,-0.37453 h 0.74904 l 0.37453,-0.37452 h 0.74905 l 0.37452,-0.37453 h 0.74905 l 1.12357,-0.74905 h 0.74905 l 0.37452,-0.37452 1.12358,-0.37452 0.74904,-0.74905 h 0.37453 l 0.74904,-0.74905 h 0.37452 l 1.12358,-1.12356 h 0.37452 l 3.37072,-3.37072 0.37452,0.37452 v 0.37453 l -3.37072,3.37071 h -0.37452 l -1.4981,1.49809 -1.12356,0.37453 -0.74905,0.74904 h -0.37452 l -2.62167,1.4981 h -0.74905 l -0.37453,0.37453 h -0.74904 l -0.37453,0.37452 h -1.12357 l -0.37452,0.37452 h -1.87262 l -0.37452,0.37453 h -5.24334 l -0.37452,-0.37453 h -2.24714 l -0.37452,-0.37452 h -1.12358 l -0.37452,-0.37452 h -0.74905 l -0.37452,-0.37453 h -0.74905 l -0.37453,-0.37452 h -0.37452 l -0.37452,-0.37453 h -0.374527 l -0.374524,-0.37452 -1.872613,-0.74905 -0.749048,-0.74905 h -0.374525 l -1.123572,-1.12357 h -0.374524 l -3.745241,-3.74523 v -0.37453 l -1.123565,-1.12357 v -0.37452 l -0.749048,-0.74905 v -0.37453 l -0.374525,-0.37452 v -0.37452 l -1.498096,-2.62167 v -0.74904 l -0.374524,-0.37453 v -0.74905 l -0.374524,-0.37452 v -1.4981 L 86.51517,190.3374 v -1.4981 l -0.374525,-0.37452 v -4.49428 l 0.374525,-0.37453 v -1.87262 l 0.374524,-0.37452 v -1.12357 l 0.374524,-0.37452 v -0.74905 l 0.374524,-0.37452 z m 374.149244,-0.74904 0.37453,-0.37453 v -0.37452 l 0.37452,-0.37453 h 0.37452 l 0.37453,0.37453 h 1.12357 l 0.37452,0.37452 -0.37452,-0.37452 0.37452,-0.37453 h 0.37453 l 0.37452,0.37453 v 0.37452 l 0.37453,0.37453 v 1.49809 l -0.74905,0.74905 h -2.24715 l -1.12357,-1.12357 z m 21.34785,-1.87263 h 1.12358 l 1.49809,1.4981 v 1.4981 l -1.12357,1.12357 h -1.4981 l -0.37452,-0.37452 0.37452,-0.37453 h 0.37453 v -0.37452 h -0.74905 l -0.37452,-0.37453 0.74904,0.74905 -0.37452,0.37453 h -0.37452 l -0.74905,-0.74905 v -1.4981 l 0.74905,-0.74905 0.37452,0.37453 h 0.37452 l 0.37453,0.37452 0.37452,-0.37452 v -0.37453 h -0.74905 l -0.37452,-0.37452 z m -364.0371,0 h 1.12357 l 1.4981,1.4981 v 1.12357 l -1.4981,1.4981 h -0.74904 l -0.37453,-0.37452 h -0.37452 l -0.37453,-0.37453 0.37453,-0.37452 -0.37453,-0.37453 v -0.74904 0.74904 l -0.37452,0.37453 -0.37453,-0.37453 v -1.12357 l 0.37453,-0.37452 v -0.37453 l 0.37452,-0.37452 h 0.37453 z m -20.598809,0 h 1.872619 l 0.74905,0.74905 v 0.37453 l 0.37452,0.37452 v 1.4981 l -1.12357,1.12357 h -2.247136 l -0.749048,-0.74905 v -0.37452 l -0.374524,-0.37453 v -0.74904 l 0.374524,-0.37453 v -0.37452 z m 395.497109,-2.24714 v 0.37452 l 1.49809,1.87262 v 0.37453 l 1.12357,1.87262 v 0.74905 l 0.37453,0.37452 v 0.74905 l 0.37452,0.37452 v 0.74905 l 0.37453,0.37452 v 1.12357 l 0.37452,0.37453 v 2.24714 l 0.37452,0.37452 v 3.37071 l -0.37452,0.37453 v 2.24714 l -0.37452,0.37453 v 1.12357 l -0.37453,0.37452 -0.37452,1.87262 -0.37453,0.37453 -1.12357,2.62166 -0.74905,0.74905 -0.37452,1.12357 -1.12357,1.12357 v 0.37453 l -3.37071,3.37071 h -0.37453 l -1.49809,1.49809 -1.12358,0.37453 -0.74904,0.74904 h -0.37453 l -1.87262,1.12358 h -0.74905 l -1.12356,0.74905 h -1.12357 l -0.37453,0.37452 h -1.12357 l -0.37452,0.37452 h -1.87262 l -0.37453,0.37453 h -5.61785 l -0.37453,-0.37453 h -1.49809 l -0.37453,-0.37452 h -1.12357 l -0.37452,-0.37452 -1.87262,-0.37453 -0.37452,-0.37452 -3.37072,-1.4981 -2.24714,-1.87262 h -0.37453 l -3.37071,-3.37071 v -0.37452 l 0.37453,-0.37453 2.99618,2.9962 h 0.37453 l 1.12357,1.12356 h 0.37452 l 0.74905,0.74905 1.12357,0.37452 1.4981,1.12357 h 0.74905 l 1.12356,0.74905 h 0.74905 l 0.37453,0.37453 h 0.74904 l 0.37453,0.37452 h 1.49809 l 0.37453,0.37453 h 2.24714 l 0.37453,0.37452 h 3.37071 l 0.37452,-0.37452 h 1.87262 l 0.37453,-0.37453 h 0.74904 l 0.37453,-0.37452 h 0.74905 l 0.37452,-0.37453 1.87261,-0.37452 1.12358,-0.74905 h 0.74904 l 0.74905,-0.74905 1.12357,-0.37452 1.12358,-1.12357 h 0.37452 l 1.12357,-1.12357 h 0.37453 l 3.37071,-3.74524 v -0.37452 l 1.49809,-1.87262 v -0.37453 l 1.12358,-1.87261 v -0.74905 l 0.37452,-0.37452 v -0.74905 l 0.37452,-0.37453 v -0.74904 l 0.37453,-0.37453 v -1.12357 l 0.37452,-0.37453 v -7.11595 l -0.37452,-0.37452 v -1.4981 l -0.37453,-0.37452 v -0.74904 l -0.37452,-0.37453 v -0.74904 l -0.74905,-1.12358 v -0.74904 l -0.37452,-0.37453 v -0.37452 l -0.74905,-0.74905 -0.37452,-1.12357 -1.87263,-2.24715 v -0.37451 l 0.37453,-0.37453 z m -20.22428,-1.49809 h 0.74904 l 0.37452,0.37453 h 0.37452 l 0.74905,0.74904 v 0.37452 l 0.37453,0.37452 v 1.12358 l -1.4981,1.49809 h -1.49809 l -0.37452,-0.37452 0.37452,-0.37453 h 1.12357 l -0.37452,-0.37452 h -1.12357 l -0.37453,0.37452 -0.74904,-0.74904 v -1.4981 l 0.74904,-0.74905 0.37453,0.37453 h 1.12357 v -0.37453 h -0.37452 l -0.37453,-0.37451 z m -364.41164,0 h 1.12357 l 0.37453,0.37453 h 0.37452 l 1.12357,1.12356 v 1.4981 l -1.49809,1.49809 h -1.4981 l -0.37452,-0.37452 h -0.37453 l -0.74904,-0.74905 v -2.24714 l 0.74904,-0.74904 h 0.37453 z m -14.980947,-2.62167 0.374524,0.37453 -2.996193,2.99618 v 0.37453 l -1.123573,1.12357 v 0.37452 l -0.74904,0.74905 -0.374524,-0.37452 v -0.37453 l 0.374524,-0.37452 v -0.37453 l 1.123565,-1.12357 v -0.37451 l 2.996192,-2.9962 z m 365.160677,-0.74905 0.37452,0.37453 -4.11976,4.11976 -0.37452,-0.37453 v -0.37451 l 3.74523,-3.74525 z m 85.39145,0 v 0.37453 l -2.24714,2.24714 v 0.37453 l -0.37457,0.37452 v 0.37453 l -0.37448,0.37451 v 0.37453 l -0.37456,0.37452 v 0.37452 l -0.37449,0.37453 v 0.74905 l -0.37456,0.37452 v 3.37072 l 0.37456,0.37452 v 0.74905 l 0.37449,0.37452 v 0.37453 l 0.37456,0.37452 v 0.37452 l 0.74905,0.74905 -0.37457,0.37452 h -8.98858 l -0.37448,-0.37452 h -8.61409 l -0.37449,0.37452 h -0.37456 l -0.37449,-0.37452 v -0.37453 l 0.74905,-0.74904 v -0.37452 l 1.12353,-1.12357 0.37457,0.37452 0.37448,-0.37452 -0.37448,-0.37453 2.24714,-2.24714 h 0.37449 v -0.37453 l 0.37456,-0.37452 1.4981,1.4981 h 0.37448 l 0.37456,0.37452 h 0.37449 l 0.37456,0.37452 h 0.37449 l 0.37456,0.37453 h 1.12353 l 0.37457,0.37452 h 4.86877 l 0.37456,-0.37452 h 0.37449 v -2.62167 l -0.37449,-0.37453 v -1.87262 l -0.37456,-0.37452 v -0.74905 l 0.74905,-0.74904 v -0.37452 l 0.37456,-0.37453 0.37449,0.37453 v 0.37452 l 0.37456,0.37453 v 0.37451 h 0.37449 l 0.37456,-0.37451 v -0.37453 l -0.37456,-0.37452 h -0.74905 l -0.37449,-0.37453 0.74905,-0.74905 h 0.37449 l 0.37456,-0.37452 0.37449,0.37452 0.37456,-0.37452 -0.37456,-0.37452 0.37456,-0.37453 h 0.37448 l 1.12361,-1.12357 0.37449,0.37452 -0.37449,-0.37452 0.37449,-0.37452 h 0.37456 z m -384.63595,-1.12357 0.37453,0.37453 v 0.37452 l 0.37452,0.37452 v 0.74905 l 0.37453,0.37453 v 0.74904 l 0.37452,0.37453 v 0.74905 l 0.37452,0.37452 v 0.74904 l 0.37453,0.37453 v 1.12357 l 0.37452,0.37452 v 1.12357 l 0.37453,0.37453 v 1.87262 l 0.37451,0.37452 v 1.4981 l 0.37453,0.37452 v 2.62167 l 0.37452,0.37452 v 0.74905 l 0.37453,0.37452 v 0.37453 l 0.74904,0.74904 v 0.37453 l 0.37453,0.37452 -0.37453,0.37453 h -0.37452 l -1.4981,-1.4981 v -0.37452 l -0.37451,-0.37453 v -1.49809 l -0.37453,-0.37453 v -1.49809 l -0.37452,-0.37452 v -3.74524 l -0.37453,-0.37453 v -0.74905 l -0.37452,-0.37452 v -1.4981 l -0.37452,-0.37452 v -0.74905 l -0.37453,-0.37451 v -1.12358 l -0.37452,-0.37452 v -0.74905 l -0.37453,-0.37452 v -0.37453 l -0.37452,-0.37452 v -1.12357 z m -58.4257,-1.87262 -0.37453,0.37453 h -0.37452 l -0.37453,0.37452 h -0.37452 l -0.37452,0.37452 h -0.374527 l -0.374524,0.37453 h -0.374524 l -0.374524,0.37452 h -0.374517 l -0.374524,0.37453 h -0.374524 l -0.374524,-0.37453 0.749048,-0.74905 h 0.374524 l 0.374517,-0.37452 h 0.374524 l 0.374524,-0.37452 h 0.374524 l 0.374527,-0.37453 h 0.37452 l 0.37452,-0.37452 h 0.74905 z m 365.16067,-0.37452 -0.37452,0.37452 h -0.37453 l -0.37451,0.37453 h -0.74905 l -0.37453,0.37452 h -0.37452 l -0.37452,0.37452 h -0.37453 l -0.37452,0.37453 h -0.37453 l -0.37452,0.37452 h -0.37452 l -0.37453,-0.37452 0.74905,-0.74905 h 0.37452 l 0.37453,-0.37452 h 0.37452 l 0.37453,-0.37453 h 0.37452 l 0.37452,-0.37452 h 0.74905 l 0.37453,-0.37453 h 0.74904 z m -0.37452,-0.37453 0.37452,-0.37452 h 0.74905 l 0.37452,-0.37452 h 1.4981 l 0.37452,-0.37452 h 8.61405 l 0.37453,0.37452 h 1.12357 l 0.37452,0.37452 h 0.74905 l 0.37452,0.37452 -0.37452,0.37453 h -1.12357 l -0.37453,-0.37453 h -1.49809 l -0.37453,-0.37452 h -7.49047 l -0.37453,0.37452 h -1.49809 l -0.37453,0.37453 h -1.12357 z m -364.0371,0 0.37452,-0.37452 h 0.74905 l 0.37452,-0.37452 h 1.12357 l 0.37453,-0.37452 h 8.61405 l 0.37451,0.37452 h 1.12357 l 0.37453,0.37452 h 1.12357 l 0.37452,0.37452 h 0.74905 l 0.37453,0.37453 h 0.37452 l 0.37453,0.37452 -0.37453,0.37453 h -0.74905 l -0.37452,-0.37453 h -0.74905 l -0.37452,-0.37452 h -1.12358 l -0.37452,-0.37453 h -1.49809 l -0.37452,-0.37452 h -7.11595 l -0.37453,0.37452 h -1.49809 l -0.37453,0.37453 h -1.12357 z m 333.70067,-4.8688 0.37453,0.37452 -0.74905,0.74905 -0.37452,-0.37452 h -0.74905 l -0.37453,0.37452 v 0.37452 l -0.74904,0.74905 v 0.37453 l -0.37453,0.37452 v 0.74905 l 0.37453,0.37452 v 0.74904 l -0.37453,0.37453 h -0.74904 0.37452 l 0.37452,0.37452 -0.37452,0.37453 h -1.12357 l -0.37452,0.37452 v 0.37452 l -0.74905,0.74905 v 0.37453 l -0.37452,0.37452 v 0.74905 l 0.37452,0.37452 v 0.37453 l 0.37452,0.37452 v 0.37452 l -0.37452,0.37453 v 0.37452 l -0.37452,0.37453 h -0.74905 l -0.37453,-0.37453 h -0.37452 l -0.37452,-0.37452 0.74904,-0.74905 v -2.24714 l 0.37453,-0.37453 v -0.74905 l 0.37452,-0.37452 v -0.37452 l 1.12357,-1.12358 h 0.37453 l 0.74905,-0.74904 v -1.87262 l 0.74904,-0.74905 v -0.37452 l 1.49809,-1.4981 h 0.37453 l 0.37452,0.37453 z m -21.34785,-2.24715 0.74905,0.74905 v 0.37452 l -0.37452,0.37453 v 0.74905 l -0.37453,0.37452 v 0.74905 l -0.37452,0.37452 v 0.37453 l -0.37453,0.37452 v 0.74905 l -0.37452,0.37452 v 0.74905 l -0.37452,0.37452 v 0.37452 l -0.37453,0.37453 v 0.74905 l -0.37452,0.37452 v 0.74905 l -0.37453,0.37452 v 1.12357 l -0.37452,0.37453 v 1.49809 l -0.37452,0.37453 v 1.12357 l -0.37453,0.37453 v 1.12356 l -0.37452,0.37452 v 2.62167 l -0.37453,0.37453 v 5.99238 l -0.37452,0.37452 v 2.24714 l 0.37452,0.37453 v 1.87262 l -0.37452,0.37452 h -0.37453 l -0.37452,-0.37452 v -2.24715 l -0.37452,-0.37452 v -2.62167 l 0.37452,-0.37452 v -5.61786 l 0.37452,-0.37452 v -2.24715 l 0.37453,-0.37452 v -1.49809 l 0.37452,-0.37452 v -1.4981 l 0.37453,-0.37452 v -1.12358 l 0.37452,-0.37452 v -1.12357 l 0.37453,-0.37453 v -0.74904 l 0.37452,-0.37453 v -0.74905 l 0.37452,-0.37452 v -0.74904 l 0.37453,-0.37453 v -0.74904 l 0.37452,-0.37453 v -0.74905 l 0.37453,-0.37452 v -0.37452 l 0.37452,-0.37453 v -0.74905 l 0.37452,-0.37452 v -0.37453 l 0.37453,-0.37452 v -0.37452 z m -340.816634,-2.24713 0.374524,0.37452 -0.749048,0.74904 h -0.374517 v 0.37452 l -1.123572,1.12358 v 0.74904 l 0.374524,0.37453 v 0.37452 l -0.374524,0.37453 -0.374524,-0.37453 h -0.374524 l -0.374524,0.37453 h -0.374525 l -0.374524,-0.37453 0.749049,-0.74905 v -1.12357 l 0.374524,-0.37452 v -0.37453 l 1.498096,-1.49808 0.374524,0.37452 0.374517,-0.37452 z m 236.699024,-2.62167 h 0.37452 l 0.37453,0.37452 v 5.61785 l -0.37453,0.37453 h -0.37452 l -0.37452,-0.37453 v -5.61785 z m -115.72784,0 0.37452,-0.37453 h 4.86881 l 0.37452,0.37453 -0.37452,0.37452 h -4.86881 z m -18.35167,0 0.37452,-0.37453 h 14.23191 l 0.37452,0.37453 -0.37452,0.37452 h -14.23191 z m -10.48667,0 0.37453,-0.37453 h 9.73762 l 0.37452,0.37453 -0.37452,0.37452 h -9.73762 z m 153.55475,-1.12358 1.4981,-0.74904 h 1.12357 l 0.37452,0.37452 h 1.12358 l 0.37452,-0.37452 h 8.98857 l 0.37452,0.37452 h 15.73 l 0.37453,-0.37452 h 0.74904 l 0.37453,0.37452 h 57.30214 l 0.37452,0.37452 -0.37452,0.37453 h -88.0131 z m -106.36475,-0.37452 0.37452,-0.37452 h 4.49429 l 0.37453,0.37452 h 7.865 l 0.37452,-0.37452 h 4.11976 l 0.37452,0.37452 h 4.11977 l 0.37452,-0.37452 h 10.11214 l 0.37452,0.37452 h 17.97714 l 0.37453,-0.37452 h 0.74905 l 0.37452,0.37452 h 3.37072 l 0.37452,-0.37452 h 2.99619 l 0.37452,0.37452 h 28.08929 l 0.37452,0.37452 -0.37452,0.37453 h -87.26405 z m -131.832362,-0.74905 -1.123573,1.12357 -0.374524,-0.37452 h -0.374524 l -0.374524,-0.37452 0.374524,-0.37453 h 0.374524 -0.374524 l -1.123572,1.12357 h -0.374524 l -1.498096,1.4981 v 0.74905 l 0.374524,0.37452 v 0.37453 l -1.123573,1.12357 H 74.90493 l -0.374524,-0.37452 h -0.374524 l -0.374517,0.37452 -0.374524,-0.37452 v -0.37453 l 0.374524,-0.37452 h 0.749041 l 0.374524,-0.37453 h 0.374524 v -1.12357 l 1.872621,-1.87262 h 0.374524 l 1.123572,-1.12357 h 0.749048 l 0.374524,-0.37453 h 1.123572 l 0.374525,0.37453 h 0.374524 z m 425.833522,-1.49809 h 0.37456 l 0.74905,0.74904 h 0.37448 l 1.4981,1.4981 -0.37449,0.37452 v 0.37453 -0.37453 l 0.37449,-0.37452 0.37456,0.37452 h 0.37449 l 1.87258,1.87262 v 0.37453 l 0.74905,0.74905 v 0.37452 l 1.12361,1.12357 -0.37456,0.37452 1.87266,1.87262 0.37448,-0.37452 0.37457,0.37452 v 0.37452 l 0.37448,0.37453 v 0.37452 l 0.37456,0.37453 v 0.37452 l 0.37449,0.37453 v 0.37452 l -0.37449,0.37452 h -0.74904 l -0.37457,-0.37452 h -0.37448 l -0.37456,-0.37452 h -0.37449 l -1.4981,-1.4981 v -0.37453 l -0.37456,-0.37452 v -1.4981 l -0.74905,-0.74904 -0.37448,0.37452 -0.37457,-0.37452 v -0.37452 h -0.37448 l -2.62163,-2.62167 v -0.37452 l -0.37457,-0.37453 0.37457,-0.37452 -0.37457,0.37452 -0.74904,-0.74905 v -0.37452 l -1.12354,-1.12357 v -0.74905 z m 17.60259,-5.24333 1.12361,1.12357 v 0.37452 l 1.4981,1.4981 v 0.37452 l 0.74905,0.74904 v 0.37453 l 0.74905,0.74905 v 0.37452 l 0.74905,0.74905 v 0.37452 l 0.74904,0.74905 v 0.37452 l 0.74905,0.74905 v 0.37453 l 0.37449,0.37452 v 0.37452 l 0.74905,0.74905 v 0.37453 l 0.37456,0.37452 v 0.37453 l 0.37448,0.37452 v 0.37452 l 0.37457,0.37452 v 0.37452 l 0.37448,0.37453 v 0.37452 l 0.37456,0.37453 v 0.37452 l 0.37449,0.37452 v 0.37453 l 0.37456,0.37452 v 0.74905 l 1.12354,1.12357 -0.37449,0.37453 v 0.37452 l 0.37449,0.37453 v 0.74904 l 0.37456,0.37453 v 1.12356 l 0.37449,0.37453 v 0.74905 l -0.37449,0.37452 -0.37456,-0.37452 v -0.37453 l -0.37449,-0.37452 v -0.74905 l -0.37456,-0.37452 v -0.74905 l -0.37449,-0.37452 v -0.37452 l -0.37456,-0.37453 v -0.37452 l -0.37449,-0.37453 v -0.74904 l -0.37456,-0.37453 v -0.37452 l -0.37448,-0.37453 v -0.37452 l -0.37457,-0.37453 v -0.37452 l -0.37448,-0.37452 v -0.37453 l -0.37456,-0.37452 v -0.37453 l -0.37449,-0.37452 v -0.37452 l -0.37456,-0.37452 v -0.37452 l -0.37449,-0.37453 v -0.37452 l -0.74905,-0.74905 v -0.37453 l -0.37456,-0.37452 v -0.37452 l -0.74905,-0.74905 v -0.37453 l -0.74904,-0.74904 v -0.37453 l -0.74905,-0.74905 v -0.37452 l -0.74905,-0.74905 v -0.37452 l -0.74905,-0.74904 v -0.37453 l -1.4981,-1.49809 v -0.37453 l -0.74904,-0.74905 z m -483.510162,2.62166 0.374524,-0.37452 v -1.12357 l 0.374524,-0.37453 v -0.37452 l 0.374524,-0.37452 v -1.12358 l 0.749048,-0.74905 0.374525,0.37453 v 0.74905 l -0.374525,0.37452 v 0.74905 l -0.374524,0.37452 v 0.37453 l 0.374524,0.37452 v 0.74905 l 0.374525,0.37452 h 2.996192 l 0.374525,-0.37452 h 2.247137 l 0.374524,-0.37452 h 0.749048 l 0.749048,-0.74905 v -1.12357 l -0.374524,-0.37453 0.374524,-0.37452 h 0.374524 l 0.749049,0.74905 -0.374524,0.37452 v 0.37452 h 2.247144 l 0.374524,0.37453 -0.374524,0.37452 h -0.749048 l -0.374524,0.37453 H 52.80803 l -0.374524,0.37452 h -0.749049 l -0.374524,0.37452 h -0.749048 l -0.374524,0.37453 H 49.43732 l -0.374524,0.37452 h -5.243338 l -0.374524,-0.37452 h -1.123572 z m 467.405662,6.74143 -0.37448,0.37452 v 0.74905 l 0.37448,0.37453 -0.37448,0.37452 0.37448,0.37453 -0.74904,0.37452 -1.4981,-1.4981 0.74905,-1.12357 -0.74905,-0.74905 -1.12353,-0.37452 -1.12361,-1.12357 v -0.37453 h -0.74905 l 0.37456,0.37453 -0.37456,0.37452 h -0.74905 l -1.12357,-1.12357 v -1.12357 l -2.24714,-1.87262 -2.24714,0.37453 -1.49809,-1.12358 v -0.74904 l -1.87262,-1.4981 h -0.74905 l -1.12358,-0.74905 -0.74904,0.37453 0.74904,0.37452 -0.37452,0.37452 h -0.74905 l -1.49809,-1.12357 v -0.74905 l -1.49809,-0.74905 h -2.24715 l -1.12357,0.74905 -0.37452,-0.37452 h -0.74905 l -0.74905,-1.4981 -0.74904,-0.37452 h -2.99619 l -0.74905,1.12357 -0.37453,-0.37452 h -1.12357 l -1.12357,-1.12358 h -3.37071 l -0.74905,0.74905 -0.37452,-0.37452 h -0.74905 0.74905 l 0.37452,0.37452 -1.87262,0.74905 -0.74905,-1.12357 h -2.99618 l -1.4981,1.87262 h -1.12357 l -0.37453,0.37452 -1.49809,-1.12357 0.37452,-0.37452 h -0.74905 l 0.37453,0.37452 -0.37453,0.37452 -2.62167,0.74905 v 1.12358 l -0.37452,0.37452 h -0.74904 l -0.37452,0.37452 -2.62167,-0.37452 -1.4981,0.74905 -0.74905,0.74905 v 0.74904 l -1.49809,1.12358 -1.49809,-0.74905 -1.4981,1.12356 -0.37452,-0.37451 0.37452,0.37451 -1.4981,1.12358 0.37453,1.12357 -1.4981,1.12357 -1.4981,-0.37452 -2.62166,2.24714 0.37453,0.37452 v 1.12358 l -1.12357,1.12357 h -1.4981 l -1.87262,1.87261 v 0.74905 l 0.37452,0.37452 v 1.12358 l -0.37452,0.37452 -0.37453,-0.74905 -0.37452,0.37453 h -0.74905 l -0.37452,-0.37453 0.74905,-0.74905 v -1.49809 l 1.49809,-1.87261 2.24715,-1.12358 v -1.12357 l 0.74905,-1.12357 2.99618,-2.24715 h 1.12357 l 0.74905,-0.74904 v -0.74905 l 2.24715,-1.87262 1.49809,-0.74904 h 1.49809 l 1.4981,-1.4981 2.24714,-1.12357 h 0.74905 l 0.37452,-0.37453 0.37453,0.37453 h 1.12357 l 1.12357,-1.4981 1.49809,-0.74905 h 0.74905 l 0.37453,-0.37452 h 1.87262 l 0.37452,0.37452 h 0.74905 l 1.12357,-1.12356 1.87261,-0.74905 h 2.62167 l 0.37453,0.37452 h 1.49809 l 0.74905,-0.74904 h 4.86881 l 0.74905,0.74904 h 1.12357 l 0.37452,-0.37452 h 2.62167 l 0.37452,0.37452 h 1.12357 l 0.74905,0.37453 0.74905,1.12356 h 0.74904 l 0.37453,-0.37452 h 2.24714 l 2.62167,1.12357 1.12357,1.4981 1.12357,-0.74905 4.11976,1.87262 1.12358,1.4981 0.37452,-0.37453 h 0.74904 l 1.4981,0.74905 2.99622,2.24714 v 1.12357 l 0.37449,0.37452 h 1.49809 l 0.74905,0.37453 1.4981,1.49809 v 0.37453 h 0.37456 z m -428.455185,-4.49429 2.996186,-2.62166 0.749048,-0.37452 h 1.872621 v -0.37453 l 0.749048,-0.74905 3.745233,-1.87262 h 1.123573 l 0.749048,0.37453 1.498096,-1.87262 1.498097,-0.37453 0.374524,-0.37452 h 2.247145 l 0.749041,0.37452 1.872615,-1.49809 h 1.12358 l 0.37452,-0.37452 h 2.99619 l 0.74905,0.74905 h 0.37453 l 1.12356,-1.12357 h 2.99619 l 0.37453,0.37452 0.74905,-0.37452 0.37452,0.37452 0.37452,-0.37452 0.74905,0.74904 h 1.12358 l 0.37451,-0.37452 h 2.24715 l 0.37452,0.37452 -0.74905,0.37453 h 0.74905 l 0.37452,-0.37453 h 1.4981 l 1.4981,1.49809 0.74905,-0.37452 h 2.24713 l 0.37453,0.37452 -0.37453,0.37453 h -0.74905 l 2.24715,-0.37453 2.24714,1.87262 h 2.62167 l 2.24714,1.12358 1.87262,1.87262 h 1.4981 l 1.49809,0.74904 2.24714,1.87262 0.37453,1.49809 h 0.74904 l 0.37453,0.37453 1.49809,0.37452 2.62167,2.62167 v 1.12357 h 1.12357 l 0.37453,0.37453 v 0.37452 l 1.87261,1.87261 0.37452,0.74905 v 1.4981 l 1.4981,0.74905 -1.12357,0.74905 h -1.4981 l -0.74904,-1.12358 0.37452,-0.74905 v -1.12357 l -1.87262,-1.87261 h -0.74904 l -0.37453,0.37452 -0.74904,-0.74904 0.37452,-0.37453 h 1.49809 -1.49809 l -0.37452,0.37453 -0.74905,-0.74905 0.37452,-1.4981 -2.99619,-2.62167 h -1.12357 l -0.37452,0.37453 -1.12357,-1.12358 0.37452,-0.37452 -0.37452,-1.12357 h -0.37453 l -0.74904,-0.74904 -0.74905,-0.37453 h -1.12358 l -0.74904,0.37453 -1.12358,-0.74905 0.37453,-0.37453 h 2.24714 -1.49809 l -1.12358,-0.74904 v 0.74904 l -0.37452,0.37453 -0.37452,-0.37453 v -1.12357 l -2.62167,-1.49809 -1.49809,0.74904 -1.4981,-0.37452 -0.74905,-0.74905 v -0.74905 l -1.49809,-0.74905 h -2.24714 l -0.74905,0.74905 -0.37452,-0.37452 h -1.12357 l -0.37453,-0.37453 v -0.74904 l -1.12357,-0.74905 h -2.62167 l -0.74905,0.74905 h -1.87261 l -1.4981,-1.49809 h -2.24714 l -0.74905,0.37451 -0.74905,1.12358 -0.37452,-0.74905 h -1.49809 l -0.74905,0.37452 -1.87262,-1.12356 0.74905,0.37451 -0.37453,0.37453 h -1.49809 l -0.74905,0.37452 -0.74905,1.4981 h -1.123571 l -0.749048,0.37452 -1.123565,-1.12357 h -0.374524 l -0.374524,0.37452 h -1.123573 l -0.749048,0.37453 -0.749049,1.4981 -1.123572,0.74904 H 92.133024 L 91.7585,143.52193 h -1.498089 l -0.749048,0.37452 -0.749049,0.74905 H 88.38779 v 1.12357 l -1.87262,1.12358 -0.749049,-0.37453 h -1.123572 l -0.749048,0.74904 -1.498097,0.74905 v 1.12357 l 0.374524,0.37453 -0.374524,0.37452 -1.498089,-0.74905 z m -25.842141,-10.86118 -2.247144,2.24713 h -0.374524 l -0.749049,0.74905 h -0.374524 l -0.374524,0.37453 h -0.374524 l -0.374524,0.37452 v 0.37452 l 0.749048,0.74905 -0.374524,0.37453 h -0.749048 l -0.374517,-0.37453 v -0.37452 l -0.374524,-0.37453 H 47.5647 l -0.374525,-0.37452 0.374525,-0.37452 h 0.749048 l 0.374524,-0.37453 h 0.374524 l 0.374524,-0.37452 h 0.374517 l 0.374524,-0.37453 h 0.374524 l 0.749048,-0.74904 h 0.374524 l 0.749049,-0.74904 h 0.374524 l 1.498096,-1.4981 z m -15.355473,-3.37072 0.374524,0.37452 v 1.4981 l 0.374524,0.37452 v 1.87263 l -0.374524,0.37452 -0.374524,-0.37452 v -1.4981 l -0.374524,-0.37453 v -1.87262 z m 109.360929,-0.37452 h 0.74905 l 0.37453,0.37452 v 0.37452 l 0.37452,0.37453 h 0.37452 l 1.12358,1.12357 h 0.37452 l 1.87262,1.87262 h 0.37452 l 4.49429,4.49428 v 0.37453 l 1.87262,1.87262 v 0.37452 l 1.12357,1.12357 v 0.37453 l 1.4981,1.49809 v 0.37452 l 0.37451,0.37453 v 0.37452 l 0.74905,0.74905 v 0.37452 l 0.74905,0.74905 v 0.37452 l 0.74905,0.74905 v 0.37453 l 0.37452,0.37452 v 0.37452 l 0.74905,0.74905 v 0.37453 l 0.37452,0.37452 v 0.37453 l 0.37453,0.37452 v 0.37452 l 0.37452,0.37452 v 0.37452 l 0.37453,0.37453 v 0.37452 l 0.37452,0.37453 v 0.37452 l 0.37452,0.37452 v 0.74905 l 0.37453,0.37453 v 0.37452 l 0.37452,0.37453 v 0.74904 l 0.37453,0.37453 v 0.74905 l 0.37452,0.37452 v 0.74905 l 0.37453,0.37452 v 0.74904 l 0.37452,0.37453 v 0.74905 l 0.37452,0.37452 v 1.4981 l 0.37452,0.37452 v 1.4981 l -0.37452,0.37452 -0.37452,-0.37452 v -1.12358 l -0.37452,-0.37452 v -0.74905 l -0.37453,-0.37452 v -0.74905 l -0.37452,-0.37452 v -0.74905 l -0.37453,-0.37453 v -0.74904 l -0.37452,-0.37452 v -0.74905 l -0.37453,-0.37452 v -0.37453 l -0.37452,-0.37452 v -0.37453 l -0.37452,-0.37452 v -0.74905 l -0.37453,-0.37452 v -0.37453 l -0.37452,-0.37452 v -0.37453 l -0.37453,-0.37452 v -0.74905 l -0.74904,-0.74905 v -0.37452 l -0.37453,-0.37452 v -0.37452 l -0.37452,-0.37452 v -0.37453 l -0.37453,-0.37452 v -0.37453 l -0.37452,-0.37452 v -0.37453 l -0.37452,-0.37452 v -0.37452 l -0.74905,-0.74905 v -0.37453 l -0.74904,-0.74904 v -0.37453 l -0.74905,-0.74905 v -0.37452 l -0.74905,-0.74905 v -0.37452 l -1.12357,-1.12357 v -0.37452 l -1.12357,-1.12357 v -0.37453 l -2.24715,-2.24714 v -0.37453 l -3.37071,-3.37071 h -0.37452 l -2.62167,-2.62167 h -0.37453 l -2.24714,-2.24714 z m 1.87262,0 0.37453,-0.37453 h 50.56071 l 0.37453,0.37453 -0.37453,0.37452 h -50.56071 z m 333.70069,-0.37453 -0.37453,0.37453 h -2.62166 l -0.37452,-0.37453 h -4.11977 l -0.37452,-0.37452 h -4.86881 l -0.37452,0.37452 h -3.74524 l -0.37453,0.37453 h -2.24714 l -0.37452,0.37452 -3.37072,0.37452 -0.37452,0.37453 h -1.12357 l -0.37453,0.37452 -4.11976,1.12357 -2.99619,1.4981 h -0.74905 l -2.99618,1.4981 -2.62167,1.87261 -1.12357,0.37452 -3.37071,2.62167 h -0.37453 l -7.11595,6.74143 v 0.37452 l -1.87262,1.87262 -0.74905,1.4981 -2.62166,3.37071 -3.37071,6.74143 v 0.74905 l -1.12358,1.87262 -0.37452,1.87262 -0.74905,1.12357 v 1.12357 l -0.37452,0.37453 v 1.12356 l -0.37453,0.37452 v 1.4981 l -0.74905,1.4981 -0.37452,6.3669 -0.74905,1.12357 v 0.74905 l -2.24714,2.24714 -0.74905,0.37453 -0.74904,-0.37453 1.87261,-1.49809 1.12357,-1.87262 v -1.12357 l 0.37453,-0.37453 v -2.24714 l 0.37452,-0.37452 v -2.24714 l 0.37453,-0.37453 v -1.87262 l 0.37452,-0.37452 v -1.4981 l 1.12357,-2.62166 0.37453,-2.24715 1.49809,-2.99619 v -0.74905 l 2.62166,-5.24333 0.74905,-0.74905 0.37453,-1.12357 0.74905,-0.74905 1.49809,-2.62166 2.62167,-2.99619 v -0.37452 l 4.86881,-4.86881 h 0.37452 l 3.74523,-3.37072 h 0.37453 l 2.99619,-2.24714 1.87262,-0.74904 0.74905,-0.74905 3.74523,-1.87262 h 0.74905 l 1.12357,-0.74905 h 0.74905 l 1.12357,-0.74905 h 0.74905 l 2.62166,-1.12357 h 1.12358 l 0.37452,-0.37452 h 1.12357 l 0.37453,-0.37453 h 1.12357 l 0.37452,-0.37452 h 1.12358 l 0.37452,-0.37453 h 2.62166 l 0.37453,-0.37452 h 12.35928 l 0.37453,0.37452 h 1.87262 l 0.37452,0.37453 h 1.49809 z m -169.65927,0 v -0.74905 l 0.37452,-0.37452 H 406.733 l 0.37452,0.37452 -0.37452,0.37453 h -90.63476 l -0.74905,0.74905 z m -18.72619,-0.74905 0.37452,-0.37452 h 10.11215 l 0.37452,0.37452 v 0.37453 l -0.37452,0.37452 -0.37453,-0.37452 H 296.623 Z m -82.76975,0.37453 0.74904,-0.74905 h 75.27928 l 0.37453,0.37452 -0.37453,0.37453 h -74.90475 2.99619 l 0.37452,0.37452 -0.37452,0.37453 h -3.37072 z m -88.01309,1.49809 -0.37452,0.37453 h -1.12358 l -0.37452,-0.37453 h -1.12357 l -0.37452,-0.37452 h -1.87262 l -0.37452,-0.37452 h -1.87263 l -0.37452,-0.37453 h -4.49428 l -0.37453,-0.37452 h -5.24333 l -0.37453,0.37452 h -3.74523 l -0.37452,0.37453 h -2.24715 l -0.37452,0.37452 h -1.498099 l -0.374517,0.37452 h -0.749048 l -0.374524,0.37453 -2.621669,0.37452 -0.374525,0.37453 H 93.63112 l -1.123572,0.74904 H 91.7585 l -0.374524,0.37453 -1.872613,0.37452 -0.374525,0.37453 -4.868813,2.24713 -0.749048,0.74905 -1.123573,0.37453 -0.74904,0.74904 H 81.27184 l -1.498097,1.12358 h -0.374524 l -1.498097,1.49809 h -0.374523 l -1.498097,1.4981 h -0.374524 l -3.370709,3.37071 h -0.374524 l -0.374524,0.37452 v 0.37453 l -0.374525,0.37452 h -0.374524 l -1.123572,1.4981 h -0.374524 l -1.498097,1.49809 h -0.374524 l -1.123572,0.74905 0.374524,0.37453 h 1.123572 l 0.374525,0.37452 -0.374525,0.37453 h -2.621661 l -0.374524,-0.37453 h -0.749048 l -0.374524,0.37453 h -6.741427 l -0.374524,-0.37453 h -1.498097 l -0.374524,-0.37452 0.749048,-0.74905 h 0.374525 l 0.374524,0.37452 h 1.498096 l 0.374517,0.37453 h 4.868814 l 0.374524,-0.37453 h 1.123572 l 0.374524,-0.37452 1.872613,-0.74905 0.749048,-0.74905 h 0.374524 l 6.741427,-6.74142 h 0.374524 l 1.87262,-1.87262 h 0.374525 l 1.123572,-1.12358 h 0.374524 l 1.87262,-1.49809 1.123573,-0.37453 1.872613,-1.49809 h 0.374524 l 1.87262,-1.12357 h 0.749049 l 0.749048,-0.74905 h 0.749048 l 2.621661,-1.49809 h 0.749049 l 0.374524,-0.37453 h 0.749048 l 0.374524,-0.37452 1.872621,-0.37453 1.123572,-0.74904 h 1.123573 l 0.374524,-0.37453 h 1.498089 l 0.374524,-0.37452 h 1.498095 l 0.37452,-0.37453 h 1.87263 l 0.37452,-0.37452 h 13.48285 l 0.37453,0.37452 h 1.87262 l 0.37452,0.37453 h 1.4981 l 0.37452,0.37452 2.62166,0.37453 0.37453,0.37452 h 0.74905 z m 15.35547,-5.24333 0.37453,-0.37452 h 0.37452 l 0.37453,0.37452 h 0.37452 l 0.37452,0.37453 h 0.37453 l 0.37452,0.37452 h 0.37453 l 0.74904,0.74905 -0.37452,0.37452 h -0.37452 l -0.37453,-0.37452 h -0.37452 l -0.37453,-0.37452 h -0.37452 l -0.37452,-0.37453 h -0.37453 z m 361.41544,-1.87262 0.74905,-0.74904 h 0.37452 l 0.37456,0.37452 h 0.74905 l 0.37449,0.37452 1.12361,0.37453 0.74904,0.74905 h 0.37449 l 0.37456,0.37452 h 0.37449 l 0.37456,0.37452 1.12353,0.37453 0.74905,0.74905 h 0.37456 l 0.74905,0.74904 h 0.37449 l 0.74905,0.74905 h 0.37448 l 0.37457,0.37452 h 36.3288 l 0.37456,0.37452 -0.37456,0.37453 h -3.37068 l -0.37456,0.37452 h -5.99239 l -0.37449,-0.37452 h -4.86885 l -0.37448,0.37452 h -8.6141 l -0.37448,-0.37452 h -5.24334 l -0.37456,0.37452 h -2.62163 l -0.37456,-0.37452 h -1.87259 v 0.37452 l 0.37449,0.37453 h 0.37456 l 1.4981,1.49809 h 0.37448 l 2.24715,2.24715 h 0.37456 l 4.86878,4.8688 v 0.37453 l 0.74904,0.74905 -0.74904,0.74904 -7.11592,-7.11595 h -0.37457 l -1.49809,-1.49809 h -0.37449 l -1.12361,-1.12358 h -0.37449 l -1.12361,-1.12357 h -0.37448 l -1.87259,-1.49809 -1.12361,-0.37453 -0.74904,-0.74904 h -0.37449 l -0.37456,-0.37452 h -0.37449 l -0.37456,-0.37453 -1.12353,-0.37452 -0.74905,-0.74905 h -0.37456 l -0.37449,-0.37452 h -0.37456 z m -367.78234,-1.12357 0.37452,-0.37452 h 0.74905 l 0.37453,0.37452 h 0.37452 l 0.37453,0.37453 h 0.74904 l 0.37453,0.37452 h 0.37452 l 0.37453,0.37452 h 0.37452 l 0.37452,0.37453 h 0.37452 l 0.37453,0.37452 h 0.37452 l 0.74905,0.74905 -0.37453,0.37452 h -0.37452 l -0.37452,-0.37452 h -0.37453 l -0.37452,-0.37452 h -0.37452 l -0.37452,-0.37453 h -0.37453 l -0.37452,-0.37452 h -0.74905 l -0.37452,-0.37453 h -0.37453 l -0.37452,-0.37452 h -0.37453 l -0.37452,-0.37452 h -0.37453 z m -43.819283,-1.12357 -0.374516,0.37452 h -0.749048 l -0.374525,0.37453 h -0.374524 l -0.374524,0.37452 h -0.749048 l -0.374524,0.37453 H 86.51517 l -0.749049,0.74904 h -0.749048 l -0.374524,0.37453 h -0.374524 l -0.374524,0.37452 h -0.374524 l -0.374524,0.37453 h -0.749049 l -0.374516,0.37452 h -0.374524 l -0.374524,0.37452 h -0.374525 l -0.374524,0.37453 h -0.374524 l -0.374524,0.37452 h -0.374524 l -0.374524,0.37453 h -0.374524 l -0.374524,0.37452 h -0.374525 l -0.749047,0.74904 H 76.77755 l -0.374524,0.37453 h -0.374524 l -0.374524,0.37452 h -0.374524 l -0.749048,0.74905 h -0.374524 l -1.123565,1.12357 h -0.374524 l -0.374524,0.37452 h -0.374524 l -1.123573,1.12358 h -0.374524 l -2.247144,2.24714 h -0.374525 l -4.494281,4.49428 h -0.374524 l -0.749049,0.74905 -0.374524,-0.37452 v -0.37453 l 4.119765,-4.11975 h 0.374517 l 3.370717,-3.37072 h 0.374524 l 1.872621,-1.87262 h 0.374524 l 1.123572,-1.12357 h 0.374524 l 0.374517,-0.37453 h 0.374524 l 0.374524,-0.37452 h 0.374524 l 0.374524,-0.37452 h 0.374524 l 0.374524,-0.37452 h 0.374524 l 0.749049,-0.74905 h 0.374523 l 0.374525,-0.37453 h 0.374524 l 0.374524,-0.37452 h 0.374524 l 0.374524,-0.37452 h 0.374524 l 0.374524,-0.37453 h 0.374524 l 0.374525,-0.37452 h 0.374524 l 0.374524,-0.37453 h 0.374516 l 0.374524,-0.37452 h 0.749049 l 0.374524,-0.37452 h 0.374524 l 0.374524,-0.37453 h 0.749048 l 0.374524,-0.37452 h 0.749049 l 0.374524,-0.37453 h 0.749048 l 0.374524,-0.37452 h 0.749048 l 0.374524,-0.37453 h 1.123573 z m 33.707143,-1.4981 0.37452,-0.37452 h 2.24715 l 0.37452,0.37452 h 1.4981 l 0.37452,0.37453 h 0.74905 l 0.37452,0.37452 h 1.12357 l 0.37452,0.37452 h 0.74905 l 0.37452,0.37453 h 0.74905 l 0.37453,0.37452 h 0.37452 l 0.37452,0.37453 -0.37452,0.37452 h -0.74905 l -0.37452,-0.37452 h -0.74905 l -0.37452,-0.37453 h -0.74905 l -0.37452,-0.37452 h -1.12357 l -0.37453,-0.37453 h -0.74904 l -0.37453,-0.37452 h -1.49809 l -0.37453,-0.37452 h -1.87262 z m 334.0752,-0.37452 -0.37452,0.37452 -2.62167,0.37453 -0.37452,0.37452 h -0.37452 l -0.37453,0.37452 h -0.74905 l -0.37452,0.37453 h -1.12357 l -0.37453,0.37452 h -0.74904 l -4.11976,2.24715 h -0.74905 l -0.74905,0.74905 -3.37072,1.49809 -0.74904,0.74905 h -0.37452 l -1.4981,1.12357 -1.12357,0.37452 -1.12357,1.12357 h -0.37453 l -0.74904,0.74905 h -0.37453 l -1.49809,1.4981 h -0.37453 l -1.12356,1.12357 h -0.37453 l -6.74142,6.74143 v 0.37452 l -1.4981,1.4981 v 0.37452 l -1.12357,1.12357 v 0.37453 l -0.74905,0.74904 v 0.37452 l -1.87262,2.24715 v 0.37452 l -1.12357,1.4981 -1.12358,2.62167 -0.74904,0.74904 -0.74905,1.87262 -0.37452,0.37452 -0.74905,-0.74905 v -0.37452 l 0.37453,-0.37453 1.12357,-2.62166 0.74904,-0.74905 0.74905,-1.87262 0.74905,-0.74904 v -0.37453 l 0.74904,-0.74905 v -0.37452 l 0.74905,-0.74905 v -0.37452 l 0.74905,-0.74904 v -0.37453 l 2.62167,-2.99619 v -0.37452 l 5.24333,-5.61786 h 0.37452 l 2.9962,-2.99619 h 0.37452 l 1.12357,-1.12357 h 0.37452 l 0.37452,-0.37453 h -1.12357 l -0.37452,-0.37452 h -3.37071 l -0.37453,0.37452 h -12.35928 l -0.37452,-0.37452 -0.37453,0.37452 -0.37452,-0.37452 v -0.37453 l 0.37452,-0.37452 h 18.35166 l 0.37453,0.37452 h 0.37452 l 0.37453,-0.37452 1.12357,-0.37452 1.12357,-1.12357 1.12357,-0.37452 0.74905,-0.74905 1.87261,-0.74905 0.74905,-0.74905 h 0.37453 l 2.62167,-1.49809 h 0.74904 l 1.87262,-1.12358 h 0.74905 l 1.87262,-1.12357 h 0.74904 l 0.37453,-0.37452 h 0.74905 l 0.37452,-0.37453 h 0.74905 l 0.37452,-0.37452 h 0.74905 l 0.37452,-0.37452 h 1.12358 l 0.37452,-0.37452 h 0.74905 z m -0.74904,-0.74904 0.37452,-0.37453 h 1.12357 l 0.37452,-0.37452 h 1.4981 l 0.37452,-0.37452 h 1.4981 l 0.37452,-0.37453 h 2.24715 l 0.37452,-0.37452 h 2.24714 l 0.37452,-0.37453 h 12.35929 l 0.37453,0.37453 h 2.62166 l 0.37452,0.37452 h 1.87262 l 0.37453,0.37453 h 1.49809 l 0.37453,0.37452 h 1.12357 l 0.37452,0.37452 h 1.12357 l 0.37452,0.37453 h 1.12357 l 0.37453,0.37452 h 1.12357 l 0.37453,0.37452 h 0.74904 l 0.37453,0.37452 h 0.74905 l 0.37452,0.37453 h 0.74905 l 0.37452,0.37452 h 0.37453 l 0.37452,0.37452 h 0.74904 l 0.37453,0.37453 h 0.37452 l 0.37452,0.37452 h 0.37453 l 0.37452,0.37453 h 0.74905 l 0.37452,0.37452 h 0.37453 l 0.37452,0.37453 -0.74905,0.74904 h -0.37452 l -0.37452,-0.37452 h -0.37453 l -0.37452,-0.37452 h -0.37453 l -0.37452,-0.37453 h -0.74905 l -0.37452,-0.37452 h -0.74904 l -0.37453,-0.37453 h -0.74905 l -0.37452,-0.37452 h -0.74905 l -0.37452,-0.37453 h -0.74905 l -0.37452,-0.37452 h -0.74905 l -0.37453,-0.37452 h -1.12357 l -0.37452,-0.37453 h -0.74905 l -0.37452,-0.37452 h -1.12357 l -0.37452,-0.37452 h -1.12358 l -0.37452,-0.37452 h -1.4981 l -0.37452,-0.37453 h -2.62167 l -0.37452,-0.37452 h -2.62167 l -0.37452,-0.37452 h -10.48667 l -0.37452,0.37452 h -2.99619 l -0.37452,0.37452 h -1.87262 l -0.37453,0.37453 h -1.87262 l -0.37452,0.37452 h -1.12357 l -0.37453,0.37452 h -0.74905 l -0.37452,-0.37452 h -0.37452 z m -57.67666,-2.9962 h 0.37452 l 0.37453,-0.37452 h 3.37071 l 0.37452,0.37452 h 0.74905 l 1.12357,1.12358 v 0.37452 l 0.37453,0.37453 v 1.87261 l 0.37452,0.37452 v 0.74905 l -0.37452,0.37452 v 1.12358 l -0.37453,0.37452 v 0.37453 l -0.74905,0.74904 h -0.37452 l -0.37453,0.37453 h -0.74904 l -0.37453,0.37452 -0.37452,-0.37452 h -3.37071 l -0.74905,-0.74905 H 398.868 l -0.37453,-0.37452 v -0.74905 l 0.37453,-0.37453 1.12357,1.12358 h 0.37452 l 0.37453,0.37452 h 2.99618 l 0.37453,-0.37452 h 0.37452 l 0.37452,-0.37453 h 0.37453 v -0.37452 l 0.37452,-0.37453 v -0.37452 l 0.37453,-0.37453 v -2.24713 l -0.37453,-0.37453 v -0.37452 l -0.37452,-0.37452 v -0.37453 l -0.37453,-0.37452 h -0.37452 l -0.37452,-0.37453 h -0.37453 l -0.37452,-0.37452 h -2.24715 l -0.37451,0.37452 h -0.37453 l -1.49809,1.4981 h -0.37453 l -0.37452,-0.37452 z m -182.39308,0 h 1.12357 l 0.37453,-0.37452 h 2.62166 l 0.37452,0.37452 h 0.74905 l 1.4981,1.4981 v 0.37453 l -0.37453,0.37452 -1.12357,-1.12357 h -0.37452 l -0.37453,-0.37453 h -0.37452 l -0.37453,-0.37452 h -1.87261 l -0.37452,0.37452 h -0.37453 l -0.37452,0.37453 h -0.37453 l -1.12357,1.12357 v 0.74905 l -0.37452,0.37452 v 1.87261 l 0.37452,0.37453 v 0.37452 l 1.12357,1.12358 h 0.37453 l 0.37452,0.37452 h 2.99619 l 0.37452,-0.37452 h 0.37453 l 0.37452,-0.37453 h 0.37452 v -0.37452 l 0.37453,-0.37453 h 0.37452 l 0.37453,-0.37452 h 0.74905 l 0.37452,0.37452 -0.37452,0.37453 h -0.37453 l -1.4981,1.49809 h -0.37452 l -0.37452,0.37453 h -4.49429 l -0.37452,-0.37453 h -0.37452 l -0.74905,-0.74904 v -0.37453 l -0.37453,-0.37452 v -0.37453 l -0.37452,-0.37452 v -2.99619 l 0.37452,-0.37452 v -0.74905 z m -146.438794,-1.12357 0.374525,-0.37452 h 0.749048 l 0.374524,-0.37453 h 0.374524 l 0.374524,-0.37452 v -0.37452 l -0.374524,-0.37453 0.374524,-0.37452 h 1.123565 l 0.749048,0.74905 h 1.123572 l 0.374524,0.37452 -0.374524,0.37452 h -1.123572 l -0.374524,0.37453 h -0.374524 l -0.374524,0.37452 h -1.123565 l -0.374524,0.37453 h -1.123572 z m 49.437134,-3.37071 0.37453,-0.37452 h 80.89713 l 0.37453,0.37452 -0.37453,0.37452 h -80.89713 z m 194.37784,-0.74905 0.37452,-0.37452 h 93.25643 l 0.37452,0.37452 -0.37452,0.37453 h -93.25643 z m -101.49594,0 0.37452,-0.37452 h 92.8819 l 0.37452,0.37452 -0.37452,0.37453 h -92.8819 z m 202.99188,-0.74904 0.37453,-0.37453 h 122.46929 l 0.37449,0.74905 -0.37449,0.37452 -0.37456,-0.37452 h -9.73762 l -0.37449,0.37452 -0.37456,-0.37452 -0.37449,0.37452 h -5.24334 l -0.37456,-0.37452 h -1.4981 l -0.37448,0.37452 h -5.24334 l -0.37456,-0.37452 h -6.74136 l -0.37456,0.37452 -0.37449,-0.37452 h -13.10836 l -0.37453,0.37452 h -10.48667 l -0.37452,-0.37452 h -4.86881 l -0.37452,0.37452 -0.37452,-0.37452 h -5.61786 l -0.37452,0.37452 h -4.86882 l -0.37451,-0.37452 h -5.24334 l -0.37452,0.37452 -1.12358,-0.37452 -0.37452,0.37452 h -29.9619 l -0.37452,-0.37452 h -4.86881 l -0.37452,0.37452 h -4.11977 l -0.74905,-0.37452 -0.37452,0.37452 h -1.49809 z m -327.333772,0.37452 -0.374524,0.37452 h -1.123572 l -0.374524,0.37453 h -1.123573 l -0.374524,-0.37453 h -0.374524 0.374524 l 0.374524,0.37453 -0.374524,0.37452 h -0.749048 l -0.374524,0.37452 h -0.749048 l -0.374524,0.37452 h -1.123573 l -0.374516,0.37453 H 81.27184 l -0.374525,0.37452 h -1.123572 l -0.374524,0.37453 h -1.123572 l -0.374525,-0.37453 0.374525,-0.37452 h 0.374524 l 0.374524,-0.37453 v -0.74904 l 0.374524,-0.37452 h 0.749048 l 0.749048,0.74904 h 0.749049 l 0.374524,-0.37452 h 1.123565 l 0.374524,-0.37452 h 0.749048 l 0.374524,-0.37453 v -0.74904 l 0.374524,-0.37453 h 0.374524 l 0.374524,-0.37452 h 0.374524 l 0.749049,0.74905 h 1.87262 z m 8.239524,-2.24714 -0.374524,0.37452 h -1.123573 l -0.374524,0.37452 h -0.749048 l -0.374525,0.37453 h -1.123572 l -0.374524,0.37452 h -0.749048 l -0.374524,0.37453 h -1.123573 l -0.374516,0.37452 h -1.123573 l -0.374524,-0.37452 0.374524,-0.37453 h 0.749049 l 0.74904,-0.74905 -0.374516,-0.37452 0.374516,-0.37452 H 91.7585 l 0.374524,0.37452 h 1.87262 l 0.374524,-0.37452 h 0.749049 l 0.374524,-0.37453 h 0.374524 l 0.374524,-0.37452 0.374524,0.37452 h 0.374525 z m 6.741428,-1.87262 -0.37453,0.37452 h -1.12357 l -0.37452,0.37452 h -0.74905 l -0.37453,0.37453 h -1.123567 l -0.374524,-0.37453 0.374524,-0.37452 h 0.749047 l 0.37452,-0.37452 v -0.37453 l 0.74905,-0.74905 h 0.74905 l 0.74905,0.74905 h 0.37452 z m 6.3669,-2.24715 0.74905,-0.74905 v -0.37451 l 0.37452,-0.37453 0.74905,0.74904 0.37452,-0.37451 h 1.87263 l 0.37451,0.37451 -0.37451,0.37453 h -1.4981 l -0.37453,0.37452 h -0.37452 l -0.37452,0.37453 h -1.12358 z m 200.74474,-4.49428 h 0.37452 l 0.37453,0.37452 v 39.69952 l -0.37453,0.37453 h -0.37452 l -0.37452,-0.37453 v -39.69952 z m -152.8057,-5.617849 v -0.37453 l 0.37452,-0.37452 h 1.12358 l 0.37452,-0.37453 h 1.4981 l 0.37452,0.37453 -0.37452,0.37452 h -0.74905 l -0.37453,0.37453 h -1.49809 l -0.37453,0.37452 z m 9.73762,-1.4981 0.37452,-0.37453 h 33.33262 l 0.37453,0.37453 -0.37453,0.37452 h -27.71476 l -0.37453,0.37453 h -4.11976 l -0.37452,-0.37453 h -0.74905 z m 45.6919,-0.37453 0.37452,-0.37452 h 87.26405 l 0.37452,0.37452 -0.37452,0.37453 h -87.26405 z m 106.36475,0 0.74905,-0.74904 0.37452,0.37452 h 25.84214 l 0.37453,-0.37452 h 1.49809 l 0.37453,0.37452 h 34.08166 l 0.37453,-0.37452 0.37452,0.37452 h 7.11595 l 0.37453,-0.37452 h 2.24713 l 0.37453,0.37452 0.74905,-0.37452 0.37452,0.37452 0.37452,-0.37452 h 0.74905 l 0.37453,0.37452 0.37452,-0.37452 0.37452,0.37452 h 2.9962 l 0.37451,-0.37452 h 4.86882 l 0.37452,0.37452 h 1.4981 l 0.37452,-0.37452 0.74905,0.74904 -0.37452,0.37453 h -88.0131 z m 95.87809,-0.74904 0.37452,-0.37453 h 114.22973 l 0.37456,0.37453 -0.37456,0.37452 H 416.47061 Z m -3.37072,-7.11595 0.37453,0.37452 -0.37453,0.37452 v 70.035939 l -0.37452,0.37453 -0.37452,-0.37453 V 87.717891 l 0.37452,-0.37452 z m -101.49594,-0.74905 h 0.37452 l 0.37453,0.37452 v 6.3669 l -0.37453,0.37453 h -0.37452 l -0.37452,-0.37453 v -6.3669 z m -83.14427,-2.24715 0.37452,0.37453 -0.37452,0.37452 h -11.61024 v 1.87262 l -0.74905,1.4981 -1.87262,1.87261 h -0.74905 l -0.37452,0.37453 h -1.87262 l -0.37452,0.37452 v 66.665229 l 0.37452,0.37452 -0.37452,0.37453 h -0.74905 l -0.37452,-0.37453 0.37452,-0.37452 V 91.088601 l -0.37452,-0.37452 h -0.74905 l -1.4981,-0.74905 -0.74905,-0.74904 0.74905,-0.37453 1.87262,1.12357 h 3.37072 l 1.87261,-1.12357 v -0.37452 l 0.74905,-0.74905 v -0.74905 l 0.74905,-1.12357 v -1.12357 l 0.37452,-0.37453 z m -23.96952,0 -0.37453,0.37453 h -1.12357 l -0.37452,0.37452 h -1.12358 l -0.37452,0.37453 h -0.74905 l -0.37452,0.37452 h -0.74905 l -0.37452,0.37452 h -1.12358 l -0.37452,0.37453 h -0.74904 l -0.37453,0.37452 h -1.12357 l -0.37452,0.37453 h -0.74905 l -0.37452,0.37452 h -1.12358 l -0.37452,0.37452 h -0.74905 l -0.37452,0.37453 h -1.12358 l -0.37452,0.37452 h -0.74904 l -0.37452,0.37453 h -1.12358 l -0.37452,0.37452 h -0.74905 l -0.37453,0.37452 h -0.74905 l -0.37452,0.37452 h -1.12357 l -0.37453,0.37453 h -0.74904 l -0.37453,0.37452 h -1.12357 l -0.37452,0.37452 h -0.74905 l -0.37452,0.37453 h -0.74905 l -0.37452,0.37452 h -1.12357 l -0.37453,0.37453 h -0.74905 l -0.37452,0.37452 h -0.74905 l -0.37452,0.37452 h -1.12358 l -0.37452,0.37453 h -1.12356 l -0.37453,0.37452 h -0.74905 l -0.37452,0.37453 h -0.74905 l -0.37452,0.37452 h -1.12358 l -0.37452,0.37452 0.37452,0.37453 -0.37452,0.37452 h -3.37072 l -0.37451,0.37453 h -1.4981 l -0.37452,-0.37453 0.37452,-0.37452 h 0.74905 l 0.37452,-0.37453 h 0.74904 l 0.37453,-0.37452 h 0.74905 l 0.37452,-0.37452 h 0.74905 l 0.37452,-0.37453 h 1.12357 l 0.37453,-0.37452 h 0.74905 l 0.37452,-0.37453 h 1.12357 l 0.37453,-0.37452 h 1.12357 l 0.37452,-0.37452 h 0.74904 l 0.37453,-0.37453 h 1.12357 l 0.37452,-0.37452 h 0.74905 l 0.37453,-0.37453 h 0.74905 l 0.37452,-0.37452 h 1.12357 l 0.37453,-0.37452 h 0.74904 l 0.37453,-0.37453 h 0.74904 l 0.37452,-0.37452 h 1.12358 l 0.37452,-0.37452 h 0.74905 l 0.37452,-0.37452 h 1.12357 l 0.37453,-0.37453 h 1.12357 l 0.37453,-0.37452 h 0.74905 l 0.37452,-0.37453 h 0.74905 l 0.37452,-0.37452 h 1.12357 l 0.37452,-0.37452 h 0.74905 l 0.37453,-0.37453 h 0.74904 l 0.37453,-0.37452 h 0.74905 l 0.37452,-0.37453 h 0.74905 l 0.37452,-0.37452 h 1.12357 l 0.37453,-0.37452 h 0.74904 l 0.37452,-0.37453 h 1.12358 l 0.37452,-0.37452 h 0.74905 l 0.37452,-0.37453 h 1.12357 l 0.37453,-0.37452 h 0.37452 l 0.37453,-0.37453 h 1.12357 z m 217.97283,-2.99618 0.37452,-0.37453 h 108.23735 l 0.37456,0.37453 -0.37456,0.37452 H 422.46299 Z m 55.42952,-5.24334 0.37452,-0.37452 h 30.33646 l 0.37449,0.37452 h 9.36306 l 0.37456,0.37452 h 7.49049 l 0.37448,0.37453 h 4.86885 l 0.37449,0.37452 -0.37449,0.37453 h -6.74143 l -0.37456,-0.37453 h -14.98089 l -0.37456,-0.37452 h -9.3631 l -0.37452,-0.37453 h -20.97333 z m -22.47143,-0.37452 0.37452,-0.37453 h 19.10072 l 0.37452,0.37453 -0.37452,0.37452 h -19.10072 z m -26.96571,-1.87262 0.37452,-0.37452 0.74905,0.74904 h 2.24714 l 0.37453,-0.37452 h 3.74523 l 0.37453,0.37452 -0.37453,0.37452 h -1.87262 v 0.37453 h 2.99619 l 0.37453,0.37452 -0.37453,0.37453 h -7.86499 l -0.37453,-0.37453 v -0.74905 l -0.37452,-0.37452 z m -207.11164,-2.621666 0.37451,0.374524 v 0.374524 l 0.37453,0.374524 v 2.996184 l -0.37453,0.37453 h -1.87261 l -0.37452,-0.37453 v -0.37452 l 0.37452,-0.37453 v -0.37452 l 0.37453,-0.37452 v -0.74905 l 0.37452,-0.37452 v -0.374524 l 0.37452,-0.374524 v -0.374524 z m 265.53735,-1.498097 0.37452,-0.374524 h 4.86881 l 0.37452,0.374524 -0.37452,0.374524 h -4.86881 z m 31.45996,-1.498096 -0.37448,0.374524 h -7.11593 l -0.37456,0.374524 h -4.11972 l -0.37457,0.374524 h -6.3669 l -0.37452,0.374524 h -6.74143 l -0.37452,-0.374524 0.37452,-0.374524 h 3.37072 l 0.37452,-0.374524 h 4.86881 l 0.37452,-0.374524 h 5.24333 l 0.37456,-0.374524 h 0.37449 l 0.37456,0.374524 0.37449,-0.374524 h 3.74524 l 0.37449,-0.374524 h 4.1198 l 0.37449,0.374524 h 1.12361 z m 0.74905,-0.374524 0.37456,-0.374524 h 0.37449 l 0.37456,-0.374524 h 7.86497 l 0.37456,0.374524 -0.37456,0.374524 h -2.99619 l -0.37449,0.374524 h -5.24334 z m -271.5297,-28.463802 0.37452,0.374524 -0.37452,0.374524 v 0.749048 l -0.74905,0.749041 v 0.374524 l -0.37453,0.374524 v 0.374524 l -0.37451,0.374524 v 0.374524 l -0.74905,1.123573 -0.37453,-0.374525 v -0.374524 0.374524 l -0.37452,0.374525 0.37452,0.374523 v 0.374524 l -0.37452,0.374525 v 0.374524 l -0.37452,0.374524 V 46.8948 l -0.37453,0.374524 v 0.374524 l -0.74905,0.749048 v 0.374524 l -0.37452,0.374525 v 0.374516 l -0.37452,0.374524 v 0.374524 l -0.37453,0.374525 v 0.374524 l -0.37452,0.374524 v 0.374524 l -0.74905,0.749048 v 0.374524 l -0.37453,0.374524 v 0.374524 l -0.37452,0.374525 v 0.374524 l -0.37452,0.374524 v 0.374524 l -0.74905,0.749048 v 0.374524 l -0.37453,0.374524 v 0.374524 l -0.37452,0.374517 v 0.374524 l -0.37452,0.374524 v 0.374524 l -0.37452,0.374525 v 0.374524 l -0.74905,0.749048 v 0.374524 l -0.37452,0.374524 v 0.374524 l -0.37453,0.374524 v 0.374524 l -0.37452,0.374525 -0.37453,-0.374525 0.37453,0.374525 v 0.374524 l -0.37453,0.374524 v 0.374524 l -0.37452,0.374524 v 0.374524 l -0.37452,0.374524 v 0.374524 l -0.74905,0.749041 v 0.374524 l -0.37453,0.374524 v 0.374524 l -0.37452,0.374525 v 0.374524 l -0.37452,0.374524 v 0.374524 l -0.37453,0.374524 V 68.9917 l -0.37452,0.374524 v 0.374524 l -0.74905,0.749049 v 0.374524 l -0.37452,0.374524 v 0.374524 l -0.74905,1.123572 v 0.74905 l -0.74904,0.74904 v 0.37452 l -0.37453,0.37453 v 0.37452 l -0.37452,0.37453 h -3.37072 l -0.37452,-0.37453 0.37452,-0.37452 h 1.4981 -1.12357 l -0.37453,-0.37453 v -0.74904 l -0.37452,-0.37452 v -2.247146 l -0.37453,-0.374524 v -1.123573 l -0.37452,-0.374524 V 68.9917 l -0.37453,-0.374524 v -0.374524 h -0.37452 l -0.37452,-0.374524 v -0.374524 l 0.37452,-0.374524 v -0.374525 l 0.74905,-1.123572 v -0.749041 l 0.37452,-0.374524 v -0.374524 l 0.37453,-0.374524 v -0.374524 l 0.37452,-0.374524 v -0.374524 l 0.74905,-1.123573 v -0.749048 l 0.37452,-0.374524 v -0.374524 l 0.37453,-0.374524 v -0.374524 l 0.37452,-0.374524 v -0.374525 l 0.74905,-1.123572 v -1.123565 l 0.37452,-0.374524 v -0.374524 l 0.37453,-0.374524 v -0.374524 l 0.74905,-1.123573 v -0.749048 l 0.74904,-0.749048 v -0.749048 l 0.37452,-0.374524 v -0.374524 l 0.74905,-1.123573 V 48.76742 l 0.37452,-0.374524 v -0.374524 l 0.37453,-0.374524 v -0.374524 l 0.37452,-0.374524 v -0.374524 l 0.74905,-1.123573 v -0.749047 l 0.37452,-0.374525 v -0.374524 l 0.37453,-0.374524 v -0.374524 l 0.37452,-0.374524 v -0.374524 l 0.37453,-0.374524 v -0.374524 l 0.37452,-0.374524 v -0.374517 l 0.74905,-1.123572 v -0.749049 l 0.74905,-1.123572 v -0.749048 l 0.37452,-0.374524 0.37453,0.374524 h 1.12356 l 0.37452,0.374524 h 1.4981 l 0.37452,0.374524 h 1.12358 l 0.37452,0.374524 h 1.12357 l 0.37453,0.374524 h 1.12357 l 0.37452,0.374524 h 1.49809 l 0.37453,0.374525 z"
     fill="#000000"
     fill-rule="evenodd"
     id="path2"
     style="stroke-width:0.374524" />
</svg>
