<svg xmlns="http://www.w3.org/2000/svg" width="2172" height="724" viewBox="0 0 2172 724">
<rect width="100%" height="100%" fill="white"/>
<path d="M 1775,276 L 1774,277 L 1772,277 L 1771,278 L 1770,278 L 1769,279 L 1768,279 L 1766,281 L 1765,281 L 1762,284 L 1761,284 L 1761,287 L 1762,288 L 1762,289 L 1763,290 L 1763,291 L 1764,292 L 1764,293 L 1765,294 L 1765,295 L 1767,297 L 1767,298 L 1768,299 L 1768,300 L 1769,301 L 1769,302 L 1770,303 L 1770,304 L 1771,305 L 1771,306 L 1773,308 L 1773,309 L 1774,310 L 1774,311 L 1775,312 L 1775,313 L 1776,314 L 1776,315 L 1777,316 L 1777,317 L 1778,318 L 1778,319 L 1780,321 L 1780,322 L 1781,323 L 1781,324 L 1782,325 L 1782,326 L 1783,327 L 1783,328 L 1784,329 L 1784,330 L 1785,331 L 1785,332 L 1786,333 L 1786,334 L 1787,335 L 1787,336 L 1788,337 L 1790,337 L 1792,335 L 1794,335 L 1795,334 L 1796,334 L 1797,333 L 1797,332 L 1798,331 L 1798,283 L 1797,282 L 1797,280 L 1794,277 L 1793,277 L 1792,276 Z" fill="black" fill-rule="evenodd"/>
<path d="M 359,384 L 363,413 L 425,414 L 470,464 L 489,428 L 497,428 L 470,484 L 481,553 L 530,606 L 593,625 L 654,612 L 707,564 L 724,495 L 705,428 L 723,462 L 728,503 L 785,514 L 1400,514 L 1415,501 L 1439,504 L 1448,457 L 1444,522 L 1462,567 L 1513,612 L 1574,625 L 1639,605 L 1687,550 L 1696,519 L 1694,469 L 1663,414 L 1690,449 L 1700,504 L 1785,503 L 1784,488 L 1765,487 L 1757,477 L 1758,463 L 1775,459 L 1771,437 L 1810,431 L 1814,422 L 1843,431 L 1856,425 L 1850,394 L 1839,397 L 1843,417 L 1813,407 L 1814,388 L 1727,231 L 1728,210 L 1749,200 L 1731,183 L 1741,172 L 1733,156 L 1441,186 L 1426,220 L 1405,229 L 1221,229 L 1223,194 L 1214,186 L 1180,190 L 1165,229 L 1134,234 L 934,229 L 926,217 L 978,104 L 935,86 L 852,225 L 853,240 L 846,226 L 852,220 L 835,213 L 778,225 L 771,205 L 778,194 L 763,186 L 751,190 L 750,202 L 761,208 L 766,228 L 727,255 L 616,286 L 617,279 L 698,260 L 707,236 L 695,204 L 671,199 L 478,253 L 456,265 L 453,291 L 467,316 L 494,319 L 452,331 L 459,344 L 453,366 L 450,333 L 411,321 L 374,349 L 390,356 L 401,394 L 372,398 L 377,380 Z M 1565,531 L 1566,530 L 1567,530 L 1569,532 L 1570,532 L 1571,531 L 1572,531 L 1573,530 L 1575,532 L 1575,533 L 1576,534 L 1576,536 L 1575,537 L 1575,538 L 1573,540 L 1572,540 L 1571,541 L 1570,541 L 1569,540 L 1567,540 L 1564,537 L 1564,533 L 1565,532 Z M 596,529 L 600,529 L 601,530 L 602,530 L 603,531 L 603,532 L 604,533 L 604,537 L 601,540 L 595,540 L 593,538 L 593,537 L 592,536 L 592,533 Z M 1592,522 L 1597,522 L 1598,523 L 1597,524 L 1593,524 L 1594,524 L 1595,525 L 1596,524 L 1597,524 L 1598,523 L 1600,525 L 1600,530 L 1597,533 L 1593,533 L 1592,532 L 1593,531 L 1596,531 L 1595,530 L 1594,530 L 1592,532 L 1591,532 L 1589,530 L 1589,526 L 1590,525 L 1590,524 Z M 1544,522 L 1548,522 L 1552,526 L 1552,530 L 1549,533 L 1547,533 L 1546,534 L 1545,534 L 1544,533 L 1543,533 L 1540,530 L 1540,529 L 1539,528 L 1541,526 L 1541,525 Z M 621,522 L 625,522 L 626,523 L 627,523 L 628,524 L 628,525 L 629,526 L 629,529 L 628,530 L 628,531 L 627,532 L 626,532 L 625,533 L 622,533 L 621,532 L 620,532 L 618,530 L 618,529 L 617,528 L 617,527 L 618,526 L 618,525 L 620,523 L 621,524 L 620,523 Z M 571,522 L 576,522 L 577,523 L 576,524 L 577,523 L 580,526 L 580,529 L 576,533 L 571,533 L 567,529 L 567,527 L 568,526 L 568,525 Z M 1512,521 L 1513,522 L 1513,523 L 1514,524 L 1514,525 L 1515,526 L 1515,527 L 1516,528 L 1516,529 L 1517,530 L 1517,531 L 1516,532 L 1514,530 L 1514,529 L 1513,528 L 1513,527 L 1512,526 L 1512,525 L 1511,524 L 1511,522 Z M 556,499 L 559,496 L 560,497 L 565,497 L 566,496 L 568,498 L 568,502 L 566,504 L 565,504 L 564,503 L 561,503 L 564,503 L 565,504 L 564,505 L 560,505 L 556,501 Z M 1530,498 L 1531,497 L 1531,496 L 1532,495 L 1533,496 L 1533,497 L 1536,497 L 1537,496 L 1538,497 L 1539,496 L 1541,498 L 1541,502 L 1539,504 L 1538,504 L 1537,505 L 1533,505 L 1530,502 Z M 1599,498 L 1601,496 L 1602,497 L 1601,496 L 1603,494 L 1607,494 L 1611,498 L 1611,502 L 1609,504 L 1607,504 L 1606,505 L 1604,505 L 1603,504 L 1602,504 L 1599,501 Z M 1566,494 L 1567,494 L 1568,493 L 1572,493 L 1573,494 L 1574,494 L 1577,497 L 1577,504 L 1574,507 L 1571,507 L 1570,508 L 1569,507 L 1567,507 L 1566,506 L 1565,506 L 1564,505 L 1564,504 L 1563,503 L 1563,498 L 1564,497 L 1564,496 Z M 633,493 L 634,494 L 636,494 L 638,496 L 638,497 L 639,498 L 639,502 L 637,504 L 636,504 L 635,505 L 632,505 L 631,504 L 630,504 L 628,502 L 628,497 L 630,495 L 631,496 L 630,495 L 631,494 L 632,494 Z M 594,494 L 595,494 L 596,493 L 600,493 L 601,494 L 602,494 L 605,497 L 605,498 L 606,499 L 606,502 L 605,503 L 605,504 L 603,506 L 602,506 L 601,507 L 595,507 L 594,506 L 593,506 L 591,504 L 591,498 L 592,497 L 592,496 Z M 1508,488 L 1509,489 L 1509,510 L 1510,511 L 1510,514 L 1511,515 L 1511,518 L 1510,519 L 1509,518 L 1509,516 L 1508,515 L 1508,512 L 1507,511 L 1507,505 L 1506,504 L 1506,496 L 1507,495 L 1507,489 Z M 660,487 L 661,488 L 661,493 L 662,494 L 662,506 L 661,507 L 661,512 L 660,513 L 659,512 L 659,506 L 660,505 L 660,495 L 659,494 L 659,488 Z M 1511,478 L 1512,479 L 1512,481 L 1511,482 L 1511,484 L 1510,485 L 1510,488 L 1509,489 L 1508,488 L 1508,484 L 1509,483 L 1509,481 L 1510,480 L 1510,479 Z M 538,477 L 539,476 L 540,477 L 540,479 L 539,480 L 539,482 L 538,483 L 538,485 L 537,486 L 537,489 L 536,490 L 536,499 L 535,500 L 535,503 L 536,504 L 536,510 L 537,511 L 537,514 L 538,515 L 538,518 L 540,521 L 540,523 L 541,524 L 543,529 L 545,531 L 545,532 L 547,534 L 547,535 L 550,538 L 550,539 L 557,546 L 558,546 L 561,549 L 562,549 L 564,551 L 567,552 L 569,554 L 570,554 L 571,555 L 573,555 L 576,557 L 578,557 L 581,559 L 585,559 L 586,560 L 592,560 L 593,561 L 603,561 L 604,560 L 610,560 L 611,559 L 613,559 L 614,558 L 616,558 L 617,557 L 619,557 L 622,555 L 624,555 L 625,554 L 628,553 L 630,551 L 631,551 L 633,549 L 634,549 L 637,546 L 638,546 L 647,537 L 648,538 L 648,539 L 639,548 L 638,548 L 634,552 L 631,553 L 629,555 L 628,555 L 621,559 L 619,559 L 618,560 L 616,560 L 615,561 L 612,561 L 611,562 L 606,562 L 605,563 L 591,563 L 590,562 L 584,562 L 583,561 L 580,561 L 579,560 L 577,560 L 576,559 L 574,559 L 573,558 L 572,558 L 571,557 L 570,557 L 569,556 L 564,554 L 562,552 L 561,552 L 558,549 L 557,549 L 547,539 L 547,538 L 544,535 L 544,534 L 542,532 L 542,531 L 541,530 L 541,529 L 537,522 L 537,520 L 536,519 L 536,517 L 535,516 L 535,512 L 534,511 L 534,507 L 533,506 L 533,494 L 534,493 L 534,488 L 535,487 L 535,484 L 536,483 L 536,481 L 537,480 Z M 1537,475 L 1538,474 L 1538,473 L 1539,472 L 1540,472 L 1541,473 L 1544,473 L 1545,474 L 1544,473 L 1545,472 L 1546,472 L 1547,473 L 1547,474 L 1548,475 L 1548,479 L 1546,481 L 1540,481 L 1537,478 Z M 1594,470 L 1597,470 L 1601,474 L 1601,478 L 1598,481 L 1594,481 L 1593,480 L 1594,479 L 1595,479 L 1595,478 L 1593,478 L 1592,477 L 1594,479 L 1593,480 L 1592,480 L 1590,478 L 1590,474 L 1592,472 L 1593,473 L 1594,473 L 1595,474 L 1596,473 L 1596,472 L 1594,472 L 1593,471 Z M 622,470 L 625,470 L 629,474 L 629,477 L 625,481 L 623,481 L 622,480 L 621,480 L 620,479 L 621,478 L 620,477 L 620,475 L 620,477 L 619,478 L 618,477 L 618,474 L 619,473 L 619,472 L 620,471 L 621,471 Z M 567,470 L 572,470 L 574,472 L 574,473 L 575,474 L 575,478 L 572,481 L 566,481 L 564,479 L 564,478 L 563,477 L 563,475 L 564,474 L 564,473 Z M 1623,464 L 1623,465 L 1627,470 L 1627,471 L 1630,476 L 1630,478 L 1631,479 L 1631,481 L 1632,482 L 1632,484 L 1633,485 L 1633,488 L 1634,489 L 1634,495 L 1635,496 L 1635,505 L 1634,506 L 1634,512 L 1633,513 L 1633,516 L 1632,517 L 1631,522 L 1630,523 L 1627,530 L 1625,532 L 1624,535 L 1621,538 L 1621,539 L 1612,548 L 1611,548 L 1607,552 L 1604,553 L 1602,555 L 1601,555 L 1596,558 L 1594,558 L 1591,560 L 1588,560 L 1587,561 L 1584,561 L 1583,562 L 1578,562 L 1577,563 L 1562,563 L 1561,562 L 1557,562 L 1556,561 L 1553,561 L 1552,560 L 1547,559 L 1546,558 L 1537,554 L 1531,549 L 1530,549 L 1521,540 L 1521,539 L 1522,538 L 1530,546 L 1531,546 L 1534,549 L 1535,549 L 1537,551 L 1540,552 L 1544,555 L 1546,555 L 1549,557 L 1551,557 L 1552,558 L 1554,558 L 1555,559 L 1559,559 L 1560,560 L 1566,560 L 1567,561 L 1576,561 L 1577,560 L 1582,560 L 1583,559 L 1585,559 L 1586,558 L 1588,558 L 1589,557 L 1594,556 L 1597,554 L 1599,554 L 1601,552 L 1604,551 L 1607,548 L 1608,548 L 1611,545 L 1612,545 L 1621,535 L 1621,534 L 1625,529 L 1625,528 L 1628,523 L 1628,521 L 1629,520 L 1629,518 L 1630,517 L 1630,515 L 1631,514 L 1631,511 L 1632,510 L 1632,491 L 1631,490 L 1631,486 L 1630,485 L 1630,483 L 1629,482 L 1629,480 L 1627,477 L 1627,475 L 1626,474 L 1626,473 L 1624,471 L 1623,468 L 1618,462 L 1618,461 L 1619,460 Z M 1569,460 L 1571,460 L 1572,461 L 1573,461 L 1575,463 L 1575,464 L 1576,465 L 1576,468 L 1572,472 L 1568,472 L 1567,471 L 1568,470 L 1571,470 L 1570,469 L 1567,469 L 1566,470 L 1564,468 L 1564,464 L 1566,462 L 1567,463 L 1570,463 L 1570,462 L 1569,462 L 1568,461 Z M 596,460 L 599,460 L 600,461 L 601,461 L 604,464 L 604,468 L 600,472 L 596,472 L 595,471 L 594,471 L 592,469 L 592,463 L 594,461 L 595,461 Z M 556,453 L 557,454 L 549,462 L 549,463 L 546,466 L 546,467 L 544,469 L 543,468 L 543,467 L 544,466 L 544,465 L 547,462 L 547,461 L 555,453 Z M 1531,451 L 1532,452 L 1521,463 L 1520,462 L 1520,461 L 1530,451 Z M 1759,451 L 1759,452 L 1753,458 L 1753,459 L 1752,460 L 1752,461 L 1751,462 L 1751,463 L 1750,464 L 1750,465 L 1749,466 L 1749,468 L 1748,469 L 1748,478 L 1749,479 L 1749,481 L 1750,482 L 1750,483 L 1751,484 L 1751,485 L 1753,487 L 1752,488 L 1728,488 L 1727,487 L 1704,487 L 1703,488 L 1702,488 L 1701,487 L 1701,486 L 1703,484 L 1703,483 L 1706,480 L 1707,481 L 1708,480 L 1707,479 L 1713,473 L 1714,473 L 1714,472 L 1715,471 L 1719,475 L 1720,475 L 1721,476 L 1722,476 L 1723,477 L 1724,477 L 1725,478 L 1728,478 L 1729,479 L 1742,479 L 1743,478 L 1744,478 L 1744,471 L 1743,470 L 1743,465 L 1742,464 L 1742,462 L 1744,460 L 1744,459 L 1745,458 L 1746,459 L 1746,460 L 1747,461 L 1747,462 L 1748,462 L 1749,461 L 1749,460 L 1748,459 L 1746,459 L 1745,458 L 1747,456 L 1748,456 L 1749,455 L 1750,456 L 1751,455 L 1750,454 L 1751,453 L 1752,453 L 1755,450 L 1756,451 L 1755,450 L 1756,449 L 1757,449 Z M 732,448 L 733,449 L 733,450 L 734,451 L 734,453 L 735,454 L 735,456 L 736,457 L 736,459 L 737,460 L 737,462 L 738,463 L 738,466 L 739,467 L 739,470 L 740,471 L 740,476 L 741,477 L 741,481 L 742,482 L 742,489 L 743,490 L 743,492 L 744,493 L 744,494 L 746,496 L 746,497 L 747,498 L 746,499 L 745,499 L 741,495 L 741,494 L 740,493 L 740,489 L 739,488 L 739,484 L 738,483 L 738,473 L 737,472 L 737,470 L 736,469 L 736,465 L 735,464 L 735,462 L 734,461 L 734,458 L 733,457 L 733,455 L 732,454 L 732,453 L 731,452 L 731,449 Z M 576,443 L 575,444 L 574,444 L 573,445 L 572,445 L 571,446 L 570,446 L 569,447 L 568,447 L 567,448 L 566,448 L 565,449 L 564,449 L 563,448 L 565,446 L 566,446 L 567,445 L 568,445 L 569,444 L 570,444 L 571,443 L 572,443 L 573,442 L 575,442 Z M 1551,442 L 1550,443 L 1549,443 L 1548,444 L 1546,444 L 1545,445 L 1544,445 L 1543,446 L 1542,446 L 1541,447 L 1540,447 L 1539,448 L 1538,448 L 1537,447 L 1539,445 L 1540,445 L 1541,444 L 1542,444 L 1543,443 L 1544,443 L 1545,442 L 1547,442 L 1548,441 L 1550,441 Z M 1550,441 L 1551,440 L 1553,440 L 1554,439 L 1558,439 L 1559,438 L 1582,438 L 1583,439 L 1586,439 L 1587,440 L 1589,440 L 1590,441 L 1589,442 L 1586,442 L 1585,441 L 1581,441 L 1580,440 L 1560,440 L 1559,441 L 1555,441 L 1554,442 L 1551,442 Z M 578,441 L 579,440 L 581,440 L 582,439 L 585,439 L 586,438 L 609,438 L 610,439 L 613,439 L 614,440 L 617,440 L 618,441 L 620,441 L 621,442 L 622,442 L 623,443 L 622,444 L 620,444 L 619,443 L 617,443 L 616,442 L 613,442 L 612,441 L 608,441 L 607,440 L 588,440 L 587,441 L 583,441 L 582,442 L 579,442 Z M 1469,428 L 1470,429 L 1468,431 L 1467,430 L 1465,430 L 1464,431 L 1464,432 L 1462,434 L 1462,435 L 1461,436 L 1461,438 L 1462,439 L 1462,441 L 1461,442 L 1459,442 L 1460,442 L 1461,443 L 1460,444 L 1457,444 L 1456,445 L 1456,446 L 1454,448 L 1454,449 L 1453,450 L 1453,452 L 1454,453 L 1454,454 L 1455,455 L 1455,456 L 1454,457 L 1454,458 L 1453,459 L 1451,459 L 1450,458 L 1449,458 L 1448,457 L 1450,455 L 1450,449 L 1451,448 L 1451,446 L 1452,445 L 1452,444 L 1455,441 L 1456,441 L 1458,439 L 1458,434 L 1460,432 L 1460,431 L 1464,427 L 1465,427 L 1466,428 Z M 1412,422 L 1414,424 L 1414,425 L 1413,426 L 1413,428 L 1412,429 L 1412,431 L 1411,432 L 1411,433 L 1410,434 L 1410,436 L 1409,437 L 1409,439 L 1408,440 L 1408,441 L 1407,442 L 1407,444 L 1406,445 L 1406,447 L 1405,448 L 1405,451 L 1404,452 L 1404,456 L 1403,457 L 1403,460 L 1402,461 L 1402,464 L 1401,465 L 1401,472 L 1400,473 L 1400,489 L 1399,490 L 1399,496 L 1400,497 L 1400,502 L 1399,503 L 1398,503 L 1397,502 L 1397,496 L 1396,495 L 1396,488 L 1397,487 L 1397,472 L 1398,471 L 1398,465 L 1399,464 L 1399,460 L 1400,459 L 1400,455 L 1401,454 L 1401,451 L 1402,450 L 1402,447 L 1403,446 L 1403,444 L 1404,443 L 1404,441 L 1405,440 L 1405,438 L 1406,437 L 1406,435 L 1407,434 L 1407,432 L 1408,431 L 1408,430 L 1409,429 L 1409,427 L 1410,426 L 1410,425 L 1411,424 L 1411,423 Z M 502,416 L 503,417 L 501,419 L 500,419 L 500,420 L 497,423 L 497,425 L 498,426 L 498,427 L 497,428 L 496,427 L 495,427 L 494,428 L 493,428 L 492,427 L 494,425 L 494,422 L 495,421 L 495,420 L 499,416 L 500,417 L 501,416 Z M 1134,409 L 1135,409 L 1136,410 L 1136,425 L 1135,426 L 1134,426 L 1133,425 L 1133,410 Z M 825,409 L 826,408 L 839,408 L 840,409 L 839,410 L 826,410 Z M 776,409 L 777,408 L 815,408 L 816,409 L 815,410 L 777,410 Z M 748,409 L 749,408 L 775,408 L 776,409 L 775,410 L 749,410 Z M 1158,406 L 1162,404 L 1165,404 L 1166,405 L 1169,405 L 1170,404 L 1194,404 L 1195,405 L 1237,405 L 1238,404 L 1240,404 L 1241,405 L 1394,405 L 1395,406 L 1394,407 L 1159,407 Z M 874,405 L 875,404 L 887,404 L 888,405 L 909,405 L 910,404 L 921,404 L 922,405 L 933,405 L 934,404 L 961,404 L 962,405 L 1010,405 L 1011,404 L 1013,404 L 1014,405 L 1023,405 L 1024,404 L 1032,404 L 1033,405 L 1108,405 L 1109,406 L 1108,407 L 875,407 Z M 522,403 L 519,406 L 518,405 L 517,405 L 516,404 L 517,403 L 518,403 L 517,403 L 514,406 L 513,406 L 509,410 L 509,412 L 510,413 L 510,414 L 507,417 L 503,417 L 502,416 L 501,416 L 500,417 L 499,416 L 499,415 L 500,414 L 502,414 L 503,413 L 504,413 L 504,410 L 509,405 L 510,405 L 513,402 L 515,402 L 516,401 L 519,401 L 520,402 L 521,402 Z M 1659,399 L 1660,399 L 1662,401 L 1663,401 L 1667,405 L 1666,406 L 1666,407 L 1666,406 L 1667,405 L 1668,406 L 1669,406 L 1674,411 L 1674,412 L 1676,414 L 1676,415 L 1679,418 L 1678,419 L 1683,424 L 1684,423 L 1685,424 L 1685,425 L 1686,426 L 1686,427 L 1687,428 L 1687,429 L 1688,430 L 1688,431 L 1687,432 L 1685,432 L 1684,431 L 1683,431 L 1682,430 L 1681,430 L 1677,426 L 1677,425 L 1676,424 L 1676,420 L 1674,418 L 1673,419 L 1672,418 L 1672,417 L 1671,417 L 1664,410 L 1664,409 L 1663,408 L 1664,407 L 1663,408 L 1661,406 L 1661,405 L 1658,402 L 1658,400 Z M 1706,385 L 1709,388 L 1709,389 L 1713,393 L 1713,394 L 1715,396 L 1715,397 L 1717,399 L 1717,400 L 1719,402 L 1719,403 L 1721,405 L 1721,406 L 1723,408 L 1723,409 L 1724,410 L 1724,411 L 1726,413 L 1726,414 L 1727,415 L 1727,416 L 1728,417 L 1728,418 L 1729,419 L 1729,420 L 1730,421 L 1730,422 L 1731,423 L 1731,424 L 1732,425 L 1732,426 L 1733,427 L 1733,429 L 1736,432 L 1735,433 L 1735,434 L 1736,435 L 1736,437 L 1737,438 L 1737,441 L 1738,442 L 1738,444 L 1737,445 L 1736,444 L 1736,443 L 1735,442 L 1735,440 L 1734,439 L 1734,437 L 1733,436 L 1733,435 L 1732,434 L 1732,433 L 1731,432 L 1731,430 L 1730,429 L 1730,428 L 1729,427 L 1729,426 L 1728,425 L 1728,424 L 1727,423 L 1727,422 L 1726,421 L 1726,420 L 1725,419 L 1725,418 L 1724,417 L 1724,416 L 1723,415 L 1723,414 L 1721,412 L 1721,411 L 1720,410 L 1720,409 L 1718,407 L 1718,406 L 1716,404 L 1716,403 L 1714,401 L 1714,400 L 1712,398 L 1712,397 L 1710,395 L 1710,394 L 1706,390 L 1706,389 L 1704,387 Z M 415,392 L 416,391 L 416,388 L 417,387 L 417,386 L 418,385 L 418,382 L 420,380 L 421,381 L 421,383 L 420,384 L 420,386 L 419,387 L 419,388 L 420,389 L 420,391 L 421,392 L 429,392 L 430,391 L 436,391 L 437,390 L 439,390 L 441,388 L 441,385 L 440,384 L 441,383 L 442,383 L 444,385 L 443,386 L 443,387 L 449,387 L 450,388 L 449,389 L 447,389 L 446,390 L 444,390 L 443,391 L 441,391 L 440,392 L 438,392 L 437,393 L 435,393 L 434,394 L 420,394 L 419,393 L 416,393 Z M 1663,410 L 1662,411 L 1662,413 L 1663,414 L 1662,415 L 1663,416 L 1661,417 L 1657,413 L 1659,410 L 1657,408 L 1654,407 L 1651,404 L 1651,403 L 1649,403 L 1650,404 L 1649,405 L 1647,405 L 1644,402 L 1644,399 L 1638,394 L 1632,395 L 1628,392 L 1628,390 L 1623,386 L 1621,386 L 1618,384 L 1616,385 L 1618,386 L 1617,387 L 1615,387 L 1611,384 L 1611,382 L 1607,380 L 1601,380 L 1598,382 L 1597,381 L 1595,381 L 1593,377 L 1591,376 L 1583,376 L 1581,379 L 1580,378 L 1577,378 L 1574,375 L 1565,375 L 1563,377 L 1562,376 L 1560,376 L 1562,376 L 1563,377 L 1558,379 L 1556,376 L 1548,376 L 1544,381 L 1541,381 L 1540,382 L 1536,379 L 1537,378 L 1535,378 L 1536,379 L 1535,380 L 1528,382 L 1528,385 L 1527,386 L 1525,386 L 1524,387 L 1517,386 L 1513,388 L 1511,390 L 1511,392 L 1507,395 L 1503,393 L 1499,396 L 1498,395 L 1499,396 L 1495,399 L 1496,402 L 1492,405 L 1488,404 L 1481,410 L 1482,411 L 1482,414 L 1479,417 L 1475,417 L 1470,422 L 1470,424 L 1471,425 L 1471,428 L 1470,429 L 1469,427 L 1468,428 L 1466,428 L 1465,427 L 1467,425 L 1467,421 L 1471,416 L 1477,413 L 1477,410 L 1479,407 L 1487,401 L 1490,401 L 1492,399 L 1492,397 L 1498,392 L 1502,390 L 1506,390 L 1510,386 L 1516,383 L 1518,383 L 1519,382 L 1520,383 L 1523,383 L 1526,379 L 1530,377 L 1532,377 L 1533,376 L 1538,376 L 1539,377 L 1541,377 L 1544,374 L 1549,372 L 1556,372 L 1557,373 L 1561,373 L 1563,371 L 1576,371 L 1578,373 L 1581,373 L 1582,372 L 1589,372 L 1590,373 L 1593,373 L 1595,374 L 1597,377 L 1599,377 L 1600,376 L 1606,376 L 1613,379 L 1616,383 L 1619,381 L 1630,386 L 1633,390 L 1634,389 L 1636,389 L 1640,391 L 1648,397 L 1648,400 L 1649,401 L 1653,401 L 1655,402 L 1659,406 L 1659,407 L 1660,407 Z M 519,398 L 527,391 L 529,390 L 534,390 L 534,389 L 536,387 L 546,382 L 549,382 L 551,383 L 555,378 L 559,377 L 560,376 L 566,376 L 568,377 L 573,373 L 576,373 L 577,372 L 585,372 L 587,374 L 588,374 L 591,371 L 599,371 L 600,372 L 602,371 L 603,372 L 604,371 L 606,373 L 609,373 L 610,372 L 616,372 L 617,373 L 615,374 L 617,374 L 618,373 L 622,373 L 626,377 L 628,376 L 634,376 L 635,377 L 634,378 L 632,378 L 638,377 L 644,382 L 651,382 L 657,385 L 662,390 L 666,390 L 670,392 L 676,397 L 677,401 L 679,401 L 680,402 L 684,403 L 691,410 L 691,413 L 694,413 L 695,414 L 695,415 L 700,420 L 701,422 L 701,426 L 705,428 L 702,430 L 698,430 L 696,427 L 697,425 L 697,422 L 692,417 L 690,417 L 689,418 L 687,416 L 688,415 L 692,415 L 688,415 L 687,416 L 685,414 L 686,410 L 678,403 L 675,403 L 674,404 L 671,401 L 672,400 L 671,397 L 670,397 L 668,395 L 666,394 L 663,394 L 661,395 L 658,393 L 659,392 L 665,392 L 661,392 L 658,390 L 658,392 L 657,393 L 656,392 L 656,389 L 649,385 L 645,387 L 641,386 L 639,384 L 639,382 L 635,380 L 629,380 L 627,382 L 626,381 L 623,381 L 622,380 L 622,378 L 619,376 L 612,376 L 610,378 L 605,378 L 601,374 L 595,374 L 593,375 L 591,378 L 590,376 L 586,376 L 584,377 L 579,374 L 581,375 L 580,376 L 576,376 L 574,377 L 572,381 L 569,381 L 567,382 L 564,379 L 563,379 L 562,380 L 559,380 L 557,381 L 555,385 L 552,387 L 549,387 L 548,386 L 544,386 L 542,387 L 540,389 L 539,389 L 539,392 L 534,395 L 532,394 L 529,394 L 527,396 L 523,398 L 523,401 L 524,402 L 523,403 L 519,401 Z M 450,369 L 444,375 L 443,375 L 441,377 L 440,377 L 439,378 L 438,378 L 437,379 L 437,380 L 439,382 L 438,383 L 436,383 L 435,382 L 435,381 L 434,380 L 430,380 L 429,379 L 430,378 L 432,378 L 433,377 L 434,377 L 435,376 L 436,376 L 437,375 L 438,375 L 440,373 L 441,373 L 443,371 L 444,371 L 448,367 Z M 409,360 L 410,361 L 410,365 L 411,366 L 411,371 L 410,372 L 409,371 L 409,367 L 408,366 L 408,361 Z M 701,359 L 703,359 L 704,360 L 704,361 L 705,362 L 706,362 L 709,365 L 710,365 L 715,370 L 716,370 L 728,382 L 728,383 L 733,388 L 733,389 L 736,392 L 736,393 L 740,397 L 740,398 L 741,399 L 741,400 L 743,402 L 743,403 L 745,405 L 745,406 L 747,408 L 747,409 L 748,410 L 748,411 L 750,413 L 750,414 L 751,415 L 751,416 L 752,417 L 752,418 L 753,419 L 753,420 L 754,421 L 754,422 L 755,423 L 755,424 L 756,425 L 756,427 L 757,428 L 757,429 L 758,430 L 758,432 L 759,433 L 759,435 L 760,436 L 760,438 L 761,439 L 761,441 L 762,442 L 762,444 L 763,445 L 763,449 L 764,450 L 764,454 L 763,455 L 762,454 L 762,451 L 761,450 L 761,448 L 760,447 L 760,445 L 759,444 L 759,442 L 758,441 L 758,439 L 757,438 L 757,436 L 756,435 L 756,434 L 755,433 L 755,432 L 754,431 L 754,429 L 753,428 L 753,427 L 752,426 L 752,425 L 751,424 L 751,422 L 749,420 L 749,419 L 748,418 L 748,417 L 747,416 L 747,415 L 746,414 L 746,413 L 745,412 L 745,411 L 744,410 L 744,409 L 742,407 L 742,406 L 740,404 L 740,403 L 738,401 L 738,400 L 736,398 L 736,397 L 733,394 L 733,393 L 730,390 L 730,389 L 724,383 L 724,382 L 715,373 L 714,373 L 707,366 L 706,366 L 700,360 Z M 706,359 L 707,358 L 842,358 L 843,359 L 842,360 L 707,360 Z M 1597,358 L 1596,359 L 1589,359 L 1588,358 L 1577,358 L 1576,357 L 1563,357 L 1562,358 L 1552,358 L 1551,359 L 1545,359 L 1544,360 L 1535,361 L 1534,362 L 1531,362 L 1530,363 L 1519,366 L 1511,370 L 1509,370 L 1501,374 L 1494,379 L 1491,380 L 1482,387 L 1481,387 L 1462,405 L 1462,406 L 1457,411 L 1455,415 L 1448,424 L 1439,442 L 1439,444 L 1436,449 L 1435,454 L 1433,457 L 1433,460 L 1432,461 L 1432,464 L 1431,465 L 1431,469 L 1429,473 L 1428,490 L 1426,493 L 1426,495 L 1420,501 L 1418,502 L 1416,501 L 1421,497 L 1424,492 L 1424,489 L 1425,488 L 1425,482 L 1426,481 L 1426,475 L 1427,474 L 1427,469 L 1428,468 L 1428,464 L 1431,457 L 1432,451 L 1436,443 L 1436,441 L 1443,427 L 1445,425 L 1446,422 L 1448,420 L 1452,413 L 1459,405 L 1459,404 L 1472,391 L 1473,391 L 1483,382 L 1484,382 L 1492,376 L 1497,374 L 1499,372 L 1509,367 L 1511,367 L 1514,365 L 1516,365 L 1519,363 L 1521,363 L 1528,360 L 1531,360 L 1532,359 L 1535,359 L 1536,358 L 1539,358 L 1540,357 L 1543,357 L 1544,356 L 1551,356 L 1552,355 L 1585,355 L 1586,356 L 1591,356 L 1592,357 L 1596,357 Z M 1144,358 L 1144,356 L 1145,355 L 1389,355 L 1390,356 L 1389,357 L 1147,357 L 1145,359 Z M 1094,356 L 1095,355 L 1122,355 L 1123,356 L 1123,357 L 1122,358 L 1121,357 L 1095,357 Z M 873,357 L 875,355 L 1076,355 L 1077,356 L 1076,357 L 876,357 L 884,357 L 885,358 L 884,359 L 875,359 Z M 638,361 L 637,362 L 634,362 L 633,361 L 630,361 L 629,360 L 624,360 L 623,359 L 618,359 L 617,358 L 605,358 L 604,357 L 590,357 L 589,358 L 579,358 L 578,359 L 572,359 L 571,360 L 567,360 L 566,361 L 564,361 L 563,362 L 556,363 L 555,364 L 553,364 L 550,366 L 548,366 L 547,367 L 542,368 L 541,369 L 528,375 L 526,377 L 523,378 L 521,380 L 520,380 L 516,383 L 515,383 L 511,387 L 510,387 L 506,391 L 505,391 L 496,400 L 495,400 L 494,401 L 494,402 L 493,403 L 492,403 L 489,407 L 488,407 L 484,411 L 483,411 L 480,413 L 481,414 L 484,414 L 485,415 L 484,416 L 477,416 L 476,415 L 474,415 L 473,416 L 455,416 L 454,415 L 450,415 L 449,414 L 451,412 L 452,412 L 453,413 L 457,413 L 458,414 L 471,414 L 472,413 L 475,413 L 476,412 L 481,410 L 483,408 L 484,408 L 502,390 L 503,390 L 508,385 L 509,385 L 512,382 L 513,382 L 518,378 L 521,377 L 526,373 L 527,373 L 532,370 L 534,370 L 536,368 L 538,368 L 545,364 L 547,364 L 548,363 L 550,363 L 551,362 L 556,361 L 559,359 L 562,359 L 563,358 L 567,358 L 568,357 L 572,357 L 573,356 L 578,356 L 579,355 L 615,355 L 616,356 L 621,356 L 622,357 L 626,357 L 627,358 L 634,359 L 635,360 L 637,360 Z M 679,347 L 680,346 L 681,346 L 682,347 L 683,347 L 684,348 L 685,348 L 686,349 L 687,349 L 689,351 L 688,352 L 687,352 L 686,351 L 685,351 L 684,350 L 683,350 L 682,349 L 681,349 Z M 1644,342 L 1646,340 L 1647,340 L 1648,341 L 1650,341 L 1651,342 L 1654,343 L 1656,345 L 1657,345 L 1658,346 L 1659,346 L 1660,347 L 1663,348 L 1665,350 L 1666,350 L 1668,352 L 1669,352 L 1671,354 L 1672,354 L 1673,355 L 1770,355 L 1771,356 L 1770,357 L 1761,357 L 1760,358 L 1744,358 L 1743,357 L 1730,357 L 1729,358 L 1706,358 L 1705,357 L 1691,357 L 1690,358 L 1683,358 L 1682,357 L 1677,357 L 1677,358 L 1678,359 L 1679,359 L 1683,363 L 1684,363 L 1690,369 L 1691,369 L 1704,382 L 1704,383 L 1706,385 L 1704,387 L 1685,368 L 1684,368 L 1680,364 L 1679,364 L 1676,361 L 1675,361 L 1672,358 L 1671,358 L 1666,354 L 1663,353 L 1661,351 L 1660,351 L 1659,350 L 1658,350 L 1657,349 L 1654,348 L 1652,346 L 1651,346 L 1650,345 L 1649,345 Z M 662,339 L 663,338 L 665,338 L 666,339 L 667,339 L 668,340 L 670,340 L 671,341 L 672,341 L 673,342 L 674,342 L 675,343 L 676,343 L 677,344 L 678,344 L 680,346 L 679,347 L 678,347 L 677,346 L 676,346 L 675,345 L 674,345 L 673,344 L 672,344 L 671,343 L 669,343 L 668,342 L 667,342 L 666,341 L 665,341 L 664,340 L 663,340 Z M 545,336 L 544,337 L 542,337 L 541,338 L 540,338 L 539,339 L 537,339 L 536,340 L 534,340 L 532,342 L 530,342 L 529,343 L 528,343 L 527,344 L 526,344 L 525,345 L 523,345 L 522,346 L 521,346 L 520,347 L 519,347 L 518,348 L 517,348 L 516,349 L 515,349 L 514,350 L 513,350 L 512,351 L 511,351 L 509,353 L 508,353 L 507,354 L 506,354 L 505,355 L 504,355 L 502,357 L 501,357 L 498,360 L 497,360 L 496,361 L 495,361 L 492,364 L 491,364 L 485,370 L 484,370 L 472,382 L 471,382 L 469,384 L 468,383 L 468,382 L 479,371 L 480,371 L 489,362 L 490,362 L 495,357 L 496,357 L 499,354 L 500,354 L 501,353 L 502,353 L 503,352 L 504,352 L 505,351 L 506,351 L 507,350 L 508,350 L 510,348 L 511,348 L 512,347 L 513,347 L 514,346 L 515,346 L 516,345 L 517,345 L 518,344 L 519,344 L 520,343 L 521,343 L 522,342 L 523,342 L 524,341 L 526,341 L 527,340 L 528,340 L 529,339 L 531,339 L 532,338 L 534,338 L 535,337 L 537,337 L 538,336 L 540,336 L 541,335 L 544,335 Z M 635,332 L 636,331 L 642,331 L 643,332 L 647,332 L 648,333 L 650,333 L 651,334 L 654,334 L 655,335 L 657,335 L 658,336 L 660,336 L 661,337 L 662,337 L 663,338 L 662,339 L 660,339 L 659,338 L 657,338 L 656,337 L 654,337 L 653,336 L 650,336 L 649,335 L 647,335 L 646,334 L 642,334 L 641,333 L 636,333 Z M 1527,331 L 1526,332 L 1519,333 L 1518,334 L 1517,334 L 1516,335 L 1514,335 L 1513,336 L 1510,336 L 1509,337 L 1507,337 L 1496,343 L 1494,343 L 1492,345 L 1483,349 L 1481,351 L 1480,351 L 1476,354 L 1473,355 L 1470,358 L 1469,358 L 1467,360 L 1466,360 L 1462,364 L 1461,364 L 1458,367 L 1457,367 L 1439,385 L 1439,386 L 1435,390 L 1435,391 L 1432,394 L 1432,395 L 1430,397 L 1430,398 L 1425,404 L 1425,405 L 1422,409 L 1419,416 L 1417,418 L 1415,423 L 1414,424 L 1412,422 L 1412,421 L 1413,420 L 1416,413 L 1418,411 L 1420,406 L 1422,404 L 1422,403 L 1424,401 L 1424,400 L 1426,398 L 1426,397 L 1428,395 L 1428,394 L 1435,386 L 1435,385 L 1449,370 L 1450,370 L 1458,362 L 1459,362 L 1462,359 L 1463,359 L 1464,358 L 1461,358 L 1460,357 L 1451,357 L 1450,358 L 1417,358 L 1416,357 L 1415,358 L 1414,357 L 1414,356 L 1415,355 L 1464,355 L 1465,356 L 1466,356 L 1467,355 L 1470,354 L 1473,351 L 1476,350 L 1478,348 L 1483,346 L 1485,344 L 1486,344 L 1493,340 L 1495,340 L 1500,337 L 1502,337 L 1507,334 L 1509,334 L 1510,333 L 1512,333 L 1513,332 L 1515,332 L 1516,331 L 1518,331 L 1519,330 L 1522,330 L 1523,329 L 1525,329 Z M 1525,329 L 1526,328 L 1529,328 L 1530,327 L 1534,327 L 1535,326 L 1539,326 L 1540,325 L 1546,325 L 1547,324 L 1553,324 L 1554,323 L 1587,323 L 1588,324 L 1595,324 L 1596,325 L 1601,325 L 1602,326 L 1606,326 L 1607,327 L 1610,327 L 1611,328 L 1614,328 L 1615,329 L 1618,329 L 1619,330 L 1622,330 L 1623,331 L 1625,331 L 1626,332 L 1628,332 L 1629,333 L 1631,333 L 1632,334 L 1633,334 L 1634,335 L 1636,335 L 1637,336 L 1638,336 L 1639,337 L 1640,337 L 1641,338 L 1643,338 L 1644,339 L 1645,339 L 1646,340 L 1644,342 L 1643,342 L 1642,341 L 1641,341 L 1640,340 L 1639,340 L 1638,339 L 1636,339 L 1635,338 L 1633,338 L 1632,337 L 1630,337 L 1629,336 L 1627,336 L 1626,335 L 1624,335 L 1623,334 L 1621,334 L 1620,333 L 1617,333 L 1616,332 L 1614,332 L 1613,331 L 1610,331 L 1609,330 L 1606,330 L 1605,329 L 1601,329 L 1600,328 L 1593,328 L 1592,327 L 1585,327 L 1584,326 L 1556,326 L 1555,327 L 1547,327 L 1546,328 L 1541,328 L 1540,329 L 1535,329 L 1534,330 L 1531,330 L 1530,331 L 1528,331 L 1527,330 L 1526,330 Z M 1371,321 L 1372,321 L 1373,320 L 1382,320 L 1383,321 L 1385,321 L 1388,324 L 1388,325 L 1389,326 L 1389,331 L 1390,332 L 1390,334 L 1389,335 L 1389,338 L 1388,339 L 1388,340 L 1386,342 L 1385,342 L 1384,343 L 1382,343 L 1381,344 L 1380,343 L 1371,343 L 1369,341 L 1368,341 L 1367,340 L 1367,338 L 1368,337 L 1371,340 L 1372,340 L 1373,341 L 1381,341 L 1382,340 L 1383,340 L 1384,339 L 1385,339 L 1385,338 L 1386,337 L 1386,336 L 1387,335 L 1387,329 L 1386,328 L 1386,327 L 1385,326 L 1385,325 L 1384,324 L 1383,324 L 1382,323 L 1381,323 L 1380,322 L 1374,322 L 1373,323 L 1372,323 L 1368,327 L 1367,327 L 1366,326 Z M 884,321 L 887,321 L 888,320 L 895,320 L 896,321 L 898,321 L 902,325 L 902,326 L 901,327 L 898,324 L 897,324 L 896,323 L 895,323 L 894,322 L 889,322 L 888,323 L 887,323 L 886,324 L 885,324 L 882,327 L 882,329 L 881,330 L 881,335 L 882,336 L 882,337 L 885,340 L 886,340 L 887,341 L 895,341 L 896,340 L 897,340 L 898,339 L 899,339 L 899,338 L 900,337 L 901,337 L 902,336 L 904,336 L 905,337 L 904,338 L 903,338 L 899,342 L 898,342 L 897,343 L 885,343 L 884,342 L 883,342 L 881,340 L 881,339 L 880,338 L 880,337 L 879,336 L 879,328 L 880,327 L 880,325 Z M 493,318 L 494,317 L 496,317 L 497,316 L 498,316 L 499,315 L 499,314 L 498,313 L 499,312 L 502,312 L 504,314 L 507,314 L 508,315 L 507,316 L 504,316 L 503,317 L 502,317 L 501,318 L 498,318 L 497,319 L 494,319 Z M 625,309 L 626,308 L 842,308 L 843,309 L 842,310 L 626,310 Z M 1144,307 L 1145,306 L 1394,306 L 1395,307 L 1394,308 L 1145,308 Z M 873,307 L 874,306 L 1122,306 L 1123,307 L 1122,308 L 874,308 Z M 1415,305 L 1416,304 L 1743,304 L 1744,306 L 1743,307 L 1742,306 L 1716,306 L 1715,307 L 1714,306 L 1713,307 L 1699,307 L 1698,306 L 1694,306 L 1693,307 L 1679,307 L 1678,306 L 1660,306 L 1659,307 L 1658,306 L 1623,306 L 1622,307 L 1594,307 L 1593,306 L 1580,306 L 1579,307 L 1578,306 L 1563,306 L 1562,307 L 1549,307 L 1548,306 L 1534,306 L 1533,307 L 1530,306 L 1529,307 L 1449,307 L 1448,306 L 1435,306 L 1434,307 L 1423,307 L 1421,306 L 1420,307 L 1416,307 Z M 541,306 L 540,307 L 537,307 L 536,308 L 533,308 L 532,307 L 531,307 L 532,307 L 533,308 L 532,309 L 530,309 L 529,310 L 527,310 L 526,311 L 523,311 L 522,312 L 520,312 L 519,313 L 516,313 L 515,314 L 512,314 L 511,313 L 512,312 L 513,312 L 514,311 L 514,309 L 515,308 L 517,308 L 519,310 L 521,310 L 522,309 L 525,309 L 526,308 L 528,308 L 529,307 L 529,305 L 530,304 L 531,304 L 532,303 L 533,303 L 535,305 L 540,305 Z M 563,300 L 562,301 L 559,301 L 558,302 L 556,302 L 555,303 L 552,303 L 551,304 L 549,304 L 548,305 L 545,305 L 544,306 L 541,306 L 540,305 L 541,304 L 543,304 L 545,302 L 544,301 L 545,300 L 548,300 L 549,301 L 554,301 L 555,300 L 557,300 L 558,299 L 559,299 L 560,298 L 561,299 L 562,299 Z M 581,295 L 580,296 L 577,296 L 576,297 L 574,297 L 573,298 L 570,298 L 569,297 L 570,296 L 572,296 L 573,295 L 573,294 L 575,292 L 577,292 L 579,294 L 580,294 Z M 598,289 L 600,287 L 600,286 L 601,285 L 603,287 L 604,286 L 609,286 L 610,287 L 609,288 L 605,288 L 604,289 L 603,289 L 602,290 L 599,290 Z M 1134,277 L 1135,277 L 1136,278 L 1136,384 L 1135,385 L 1134,385 L 1133,384 L 1133,278 Z M 726,262 L 726,261 L 727,260 L 730,260 L 731,259 L 735,259 L 736,260 L 735,261 L 733,261 L 732,262 L 728,262 L 727,263 Z M 752,258 L 753,257 L 842,257 L 843,258 L 842,259 L 768,259 L 767,260 L 756,260 L 755,259 L 753,259 Z M 874,257 L 875,256 L 1108,256 L 1109,257 L 1108,258 L 875,258 Z M 1158,257 L 1160,255 L 1161,256 L 1230,256 L 1231,255 L 1235,255 L 1236,256 L 1327,256 L 1328,255 L 1329,256 L 1348,256 L 1349,255 L 1355,255 L 1356,256 L 1358,255 L 1359,256 L 1360,255 L 1362,255 L 1363,256 L 1364,255 L 1365,256 L 1373,256 L 1374,255 L 1387,255 L 1388,256 L 1392,256 L 1393,255 L 1395,257 L 1394,258 L 1159,258 Z M 1414,255 L 1415,254 L 1720,254 L 1721,255 L 1720,256 L 1415,256 Z M 1405,236 L 1406,237 L 1405,238 L 1405,425 L 1404,426 L 1403,425 L 1403,237 L 1404,236 Z M 1134,234 L 1135,234 L 1136,235 L 1136,252 L 1135,253 L 1134,253 L 1133,252 L 1133,235 Z M 912,228 L 913,229 L 912,230 L 881,230 L 881,235 L 879,239 L 874,244 L 872,244 L 871,245 L 866,245 L 865,246 L 865,424 L 866,425 L 865,426 L 863,426 L 862,425 L 863,424 L 863,246 L 862,245 L 860,245 L 856,243 L 854,241 L 856,240 L 861,243 L 870,243 L 875,240 L 875,239 L 877,237 L 877,235 L 879,232 L 879,229 L 880,228 Z M 848,228 L 847,229 L 844,229 L 843,230 L 840,230 L 839,231 L 837,231 L 836,232 L 834,232 L 833,233 L 830,233 L 829,234 L 827,234 L 826,235 L 823,235 L 822,236 L 820,236 L 819,237 L 816,237 L 815,238 L 813,238 L 812,239 L 809,239 L 808,240 L 806,240 L 805,241 L 802,241 L 801,242 L 799,242 L 798,243 L 796,243 L 795,244 L 792,244 L 791,245 L 789,245 L 788,246 L 785,246 L 784,247 L 782,247 L 781,248 L 779,248 L 778,249 L 775,249 L 774,250 L 772,250 L 771,251 L 769,251 L 768,252 L 765,252 L 764,253 L 761,253 L 760,254 L 758,254 L 757,255 L 755,255 L 754,256 L 751,256 L 750,257 L 751,258 L 750,259 L 741,259 L 740,260 L 736,260 L 735,259 L 736,258 L 738,258 L 739,257 L 741,257 L 742,256 L 744,256 L 745,255 L 747,255 L 748,254 L 751,254 L 752,253 L 754,253 L 755,252 L 758,252 L 759,251 L 762,251 L 763,250 L 765,250 L 766,249 L 769,249 L 770,248 L 772,248 L 773,247 L 775,247 L 776,246 L 779,246 L 780,245 L 782,245 L 783,244 L 785,244 L 786,243 L 789,243 L 790,242 L 792,242 L 793,241 L 796,241 L 797,240 L 800,240 L 801,239 L 803,239 L 804,238 L 806,238 L 807,237 L 810,237 L 811,236 L 813,236 L 814,235 L 816,235 L 817,234 L 819,234 L 820,233 L 822,233 L 823,232 L 826,232 L 827,231 L 829,231 L 830,230 L 833,230 L 834,229 L 836,229 L 837,228 L 840,228 L 841,227 L 842,227 L 843,226 L 846,226 Z M 1430,220 L 1431,219 L 1720,219 L 1721,220 L 1720,221 L 1431,221 Z M 1578,206 L 1579,205 L 1660,205 L 1661,206 L 1686,206 L 1687,207 L 1707,207 L 1708,208 L 1721,208 L 1722,209 L 1721,210 L 1703,210 L 1702,209 L 1662,209 L 1661,208 L 1636,208 L 1635,207 L 1579,207 Z M 1518,205 L 1519,204 L 1570,204 L 1571,205 L 1570,206 L 1519,206 Z M 1446,200 L 1447,199 L 1449,201 L 1455,201 L 1456,200 L 1466,200 L 1467,201 L 1466,202 L 1461,202 L 1461,203 L 1469,203 L 1470,204 L 1469,205 L 1448,205 L 1447,204 L 1447,202 L 1446,201 Z M 893,193 L 894,194 L 894,195 L 895,196 L 895,204 L 894,205 L 889,205 L 888,204 L 888,203 L 889,202 L 889,201 L 890,200 L 890,198 L 891,197 L 891,196 L 892,195 L 892,194 Z M 1602,189 L 1603,188 L 1616,188 L 1617,189 L 1616,190 L 1603,190 Z M 1686,185 L 1685,186 L 1666,186 L 1665,187 L 1654,187 L 1653,188 L 1636,188 L 1635,189 L 1617,189 L 1616,188 L 1617,187 L 1626,187 L 1627,186 L 1640,186 L 1641,185 L 1655,185 L 1656,184 L 1657,184 L 1658,185 L 1659,184 L 1669,184 L 1670,183 L 1681,183 L 1682,184 L 1685,184 Z M 1688,184 L 1689,183 L 1690,183 L 1691,182 L 1712,182 L 1713,183 L 1712,184 L 1704,184 L 1703,185 L 1689,185 Z M 963,108 L 964,109 L 963,110 L 963,112 L 961,114 L 961,115 L 960,116 L 960,117 L 959,118 L 959,119 L 957,122 L 956,121 L 956,120 L 956,121 L 955,122 L 956,123 L 956,124 L 955,125 L 955,126 L 954,127 L 954,128 L 953,129 L 953,130 L 951,132 L 951,133 L 950,134 L 950,135 L 949,136 L 949,137 L 948,138 L 948,139 L 947,140 L 947,141 L 945,143 L 945,144 L 944,145 L 944,146 L 943,147 L 943,148 L 942,149 L 942,150 L 940,152 L 940,153 L 939,154 L 939,155 L 938,156 L 938,157 L 937,158 L 937,159 L 936,160 L 936,161 L 934,163 L 934,164 L 933,165 L 933,166 L 932,167 L 932,168 L 931,169 L 930,168 L 931,169 L 931,170 L 930,171 L 930,172 L 929,173 L 929,174 L 928,175 L 928,176 L 926,178 L 926,179 L 925,180 L 925,181 L 924,182 L 924,183 L 923,184 L 923,185 L 922,186 L 922,187 L 921,188 L 921,189 L 919,191 L 919,192 L 918,193 L 918,194 L 916,197 L 916,199 L 914,201 L 914,202 L 913,203 L 913,204 L 912,205 L 903,205 L 902,204 L 903,203 L 907,203 L 904,203 L 903,202 L 903,200 L 902,199 L 902,193 L 901,192 L 901,189 L 900,188 L 900,187 L 899,186 L 899,185 L 898,185 L 897,184 L 897,183 L 898,182 L 898,181 L 900,178 L 900,176 L 901,175 L 901,174 L 902,173 L 902,172 L 903,171 L 903,170 L 905,167 L 905,165 L 906,164 L 906,163 L 907,162 L 907,161 L 908,160 L 908,159 L 910,156 L 910,153 L 911,152 L 911,151 L 912,150 L 912,149 L 914,146 L 914,144 L 916,142 L 916,140 L 917,139 L 917,138 L 919,135 L 919,133 L 920,132 L 920,131 L 921,130 L 921,129 L 922,128 L 922,127 L 924,124 L 924,122 L 925,121 L 925,120 L 926,119 L 926,118 L 927,117 L 927,116 L 928,115 L 928,114 L 929,113 L 929,112 L 931,109 L 931,107 L 933,104 L 933,102 L 934,101 L 935,102 L 938,102 L 939,103 L 943,103 L 944,104 L 947,104 L 948,105 L 951,105 L 952,106 L 955,106 L 956,107 L 960,107 L 961,108 Z" fill="black" fill-rule="evenodd"/>
</svg>