<svg xmlns="http://www.w3.org/2000/svg" width="1672" height="941" viewBox="0 0 1672 941">
<rect width="100%" height="100%" fill="white"/>
<path d="M 1548,674 L 1546,651 L 1534,649 L 1521,636 L 1523,620 L 1507,587 L 1479,564 L 1448,555 L 1443,559 L 1362,556 L 1359,560 L 1349,556 L 1330,560 L 1320,556 L 1153,556 L 1150,560 L 1140,556 L 1120,560 L 1110,556 L 1084,560 L 1081,556 L 803,556 L 800,560 L 791,556 L 747,556 L 744,560 L 733,556 L 649,560 L 646,556 L 515,556 L 505,560 L 502,556 L 216,556 L 188,566 L 162,592 L 155,607 L 157,621 L 152,624 L 152,641 L 160,653 L 157,660 L 182,692 L 220,711 L 235,725 L 244,725 L 258,739 L 267,739 L 275,749 L 290,753 L 300,764 L 309,764 L 326,777 L 332,774 L 354,783 L 360,779 L 372,783 L 389,779 L 400,783 L 418,779 L 429,783 L 447,779 L 458,783 L 476,779 L 487,783 L 505,779 L 516,783 L 534,779 L 545,783 L 563,779 L 574,783 L 591,779 L 602,783 L 620,779 L 631,783 L 648,779 L 660,783 L 678,779 L 689,783 L 707,779 L 717,783 L 736,779 L 747,783 L 766,779 L 776,783 L 794,779 L 805,783 L 822,779 L 833,783 L 851,779 L 862,783 L 881,779 L 891,783 L 909,779 L 920,783 L 938,779 L 949,783 L 966,779 L 978,783 L 995,779 L 1006,783 L 1025,779 L 1036,783 L 1053,779 L 1064,783 L 1083,779 L 1094,783 L 1111,779 L 1122,783 L 1140,779 L 1149,783 L 1163,779 L 1172,783 L 1190,779 L 1272,783 L 1284,779 L 1292,783 L 1324,776 L 1335,767 L 1352,765 L 1357,758 L 1370,759 L 1379,750 L 1386,752 L 1429,730 L 1446,728 L 1455,719 L 1476,715 L 1501,698 L 1501,691 L 1518,673 L 1516,667 L 1530,685 L 1540,685 Z M 573,765 L 572,766 L 572,767 L 571,768 L 565,768 L 564,767 L 565,766 L 567,766 L 568,765 L 570,765 L 571,764 L 572,764 Z M 701,763 L 702,762 L 703,763 L 704,763 L 705,764 L 704,765 L 704,766 L 705,766 L 704,765 L 705,764 L 707,764 L 708,765 L 709,765 L 710,766 L 712,766 L 713,767 L 716,767 L 717,768 L 716,769 L 712,769 L 711,768 L 703,768 L 702,767 L 702,766 L 701,765 Z M 1311,762 L 1311,764 L 1310,765 L 1309,764 L 1310,765 L 1309,766 L 1306,766 L 1305,767 L 1300,767 L 1299,766 L 1300,765 L 1303,765 L 1304,764 L 1305,764 L 1306,763 L 1307,763 L 1309,761 L 1310,761 Z M 317,749 L 323,755 L 322,756 L 321,756 L 321,757 L 320,758 L 319,758 L 318,757 L 317,757 L 316,756 L 315,756 L 313,754 L 316,751 L 316,750 Z M 314,745 L 316,747 L 316,748 L 315,749 L 315,750 L 314,751 L 314,753 L 313,754 L 312,754 L 311,753 L 312,752 L 312,750 L 313,749 L 313,746 Z M 1277,734 L 1282,734 L 1283,735 L 1284,735 L 1285,736 L 1285,737 L 1286,738 L 1286,743 L 1283,746 L 1277,746 L 1273,742 L 1273,739 L 1274,738 L 1274,737 Z M 1094,734 L 1100,734 L 1102,736 L 1102,737 L 1103,738 L 1103,743 L 1102,744 L 1101,743 L 1101,741 L 1101,743 L 1102,744 L 1101,745 L 1100,745 L 1099,744 L 1100,745 L 1099,746 L 1094,746 L 1091,743 L 1091,737 Z M 910,734 L 916,734 L 919,737 L 919,738 L 920,739 L 920,742 L 918,744 L 917,743 L 918,744 L 916,746 L 910,746 L 908,744 L 908,743 L 907,742 L 907,738 L 908,737 L 908,736 Z M 727,734 L 733,734 L 736,737 L 736,738 L 737,739 L 737,741 L 736,742 L 736,743 L 735,744 L 734,743 L 735,744 L 733,746 L 727,746 L 725,744 L 725,743 L 724,742 L 724,738 L 725,737 L 725,736 Z M 544,734 L 550,734 L 553,737 L 553,743 L 550,746 L 544,746 L 543,745 L 544,744 L 545,744 L 544,744 L 543,743 L 542,744 L 541,743 L 541,742 L 540,741 L 540,739 L 541,738 L 541,737 Z M 359,734 L 365,734 L 369,738 L 369,742 L 368,743 L 368,744 L 367,745 L 366,745 L 365,744 L 363,744 L 365,744 L 366,745 L 365,746 L 360,746 L 359,745 L 360,744 L 359,745 L 358,745 L 357,744 L 357,743 L 356,742 L 356,738 L 357,737 L 357,736 Z M 1302,720 L 1306,720 L 1308,722 L 1307,723 L 1308,722 L 1309,723 L 1309,724 L 1310,725 L 1310,728 L 1309,729 L 1309,730 L 1308,731 L 1307,730 L 1307,729 L 1307,730 L 1308,731 L 1307,732 L 1306,732 L 1305,733 L 1303,733 L 1302,732 L 1303,731 L 1304,731 L 1302,731 L 1301,732 L 1300,732 L 1298,730 L 1298,729 L 1297,728 L 1297,725 L 1298,724 L 1298,723 L 1300,721 L 1301,721 Z M 1254,720 L 1258,720 L 1262,724 L 1262,729 L 1259,732 L 1258,732 L 1257,731 L 1256,731 L 1257,731 L 1258,732 L 1257,733 L 1254,733 L 1250,729 L 1250,724 Z M 1119,720 L 1122,720 L 1123,721 L 1124,721 L 1125,722 L 1124,723 L 1125,722 L 1127,724 L 1127,728 L 1126,729 L 1126,730 L 1125,731 L 1124,730 L 1124,729 L 1124,730 L 1125,731 L 1124,732 L 1123,732 L 1122,733 L 1119,733 L 1118,732 L 1119,731 L 1121,731 L 1119,731 L 1118,732 L 1117,732 L 1115,730 L 1115,728 L 1114,727 L 1114,725 L 1115,724 L 1115,723 L 1117,721 L 1118,721 Z M 1071,720 L 1075,720 L 1076,721 L 1077,721 L 1079,723 L 1079,725 L 1080,726 L 1080,727 L 1079,728 L 1079,729 L 1077,731 L 1076,730 L 1075,731 L 1072,731 L 1075,731 L 1076,732 L 1075,733 L 1071,733 L 1070,732 L 1069,732 L 1067,730 L 1067,728 L 1066,727 L 1066,726 L 1067,725 L 1067,724 L 1068,723 L 1068,722 L 1069,721 L 1070,721 Z M 935,720 L 939,720 L 940,721 L 941,721 L 943,723 L 943,725 L 944,726 L 944,727 L 943,728 L 943,729 L 942,730 L 942,731 L 941,732 L 940,732 L 939,733 L 935,733 L 934,732 L 935,731 L 937,731 L 935,731 L 934,732 L 931,729 L 931,724 Z M 887,720 L 892,720 L 895,723 L 895,724 L 896,725 L 896,728 L 893,731 L 892,730 L 891,731 L 888,731 L 887,732 L 886,732 L 884,730 L 884,729 L 883,728 L 883,725 L 884,724 L 884,723 Z M 751,721 L 752,721 L 753,720 L 756,720 L 757,721 L 758,721 L 760,723 L 760,725 L 761,726 L 761,727 L 760,728 L 760,729 L 759,730 L 758,729 L 759,730 L 759,731 L 758,732 L 757,732 L 756,731 L 752,731 L 751,730 L 750,731 L 749,730 L 749,729 L 748,728 L 748,724 Z M 705,720 L 708,720 L 709,721 L 710,721 L 712,723 L 712,724 L 713,725 L 713,728 L 712,729 L 712,730 L 710,732 L 709,732 L 708,731 L 709,730 L 708,731 L 706,731 L 708,731 L 709,732 L 708,733 L 704,733 L 701,730 L 701,729 L 700,728 L 700,725 L 701,724 L 701,723 L 703,721 L 704,721 Z M 569,720 L 573,720 L 577,724 L 577,729 L 573,733 L 569,733 L 568,732 L 569,731 L 571,731 L 569,731 L 568,732 L 567,732 L 565,730 L 565,729 L 564,728 L 564,725 L 566,723 L 566,722 L 567,721 L 568,721 Z M 521,720 L 525,720 L 526,721 L 527,721 L 528,722 L 528,723 L 529,724 L 529,729 L 527,731 L 526,730 L 525,731 L 521,731 L 520,732 L 519,732 L 518,731 L 518,730 L 517,729 L 517,728 L 516,727 L 516,726 L 517,725 L 517,724 L 519,722 L 520,723 L 519,722 Z M 383,721 L 384,721 L 385,720 L 388,720 L 389,721 L 390,721 L 392,723 L 392,724 L 393,725 L 393,728 L 392,729 L 392,730 L 390,732 L 389,732 L 388,731 L 386,731 L 385,732 L 384,732 L 383,731 L 382,731 L 381,730 L 381,729 L 380,728 L 380,725 L 381,724 L 381,723 Z M 337,720 L 341,720 L 344,723 L 344,724 L 345,725 L 345,727 L 344,728 L 344,729 L 340,733 L 337,733 L 336,732 L 337,731 L 339,731 L 337,731 L 336,732 L 335,732 L 333,730 L 333,729 L 332,728 L 332,725 L 333,724 L 334,725 L 334,727 L 334,725 L 333,724 L 333,723 L 335,721 L 336,721 Z M 1442,711 L 1444,709 L 1444,708 L 1445,707 L 1450,707 L 1451,708 L 1450,709 L 1446,709 L 1450,709 L 1451,710 L 1450,711 L 1448,711 L 1447,712 L 1446,712 L 1445,713 L 1444,713 Z M 1278,702 L 1282,702 L 1283,703 L 1284,703 L 1285,704 L 1284,705 L 1283,705 L 1284,705 L 1285,704 L 1288,707 L 1288,708 L 1289,709 L 1289,714 L 1288,715 L 1288,716 L 1284,720 L 1283,720 L 1282,721 L 1278,721 L 1277,720 L 1276,720 L 1275,719 L 1274,719 L 1272,717 L 1272,716 L 1271,715 L 1271,713 L 1270,712 L 1270,711 L 1271,710 L 1271,708 L 1272,707 L 1272,706 L 1274,704 L 1275,704 L 1276,705 L 1277,705 L 1276,705 L 1275,704 L 1276,703 L 1277,703 Z M 1094,702 L 1099,702 L 1100,703 L 1101,703 L 1102,704 L 1101,705 L 1100,705 L 1101,705 L 1102,704 L 1103,704 L 1105,706 L 1105,707 L 1106,708 L 1106,715 L 1101,720 L 1100,720 L 1099,721 L 1095,721 L 1094,720 L 1093,720 L 1089,716 L 1089,715 L 1088,714 L 1088,708 L 1089,707 L 1089,706 L 1091,704 L 1092,704 L 1093,705 L 1092,704 Z M 911,702 L 916,702 L 917,703 L 918,703 L 919,704 L 918,705 L 917,705 L 918,705 L 919,704 L 922,707 L 922,709 L 923,710 L 923,713 L 922,714 L 922,716 L 918,720 L 916,720 L 915,721 L 912,721 L 911,720 L 909,720 L 906,717 L 906,716 L 905,715 L 905,713 L 904,712 L 904,710 L 905,709 L 905,708 L 906,707 L 906,706 L 908,704 L 909,705 L 910,705 L 909,705 L 908,704 L 909,703 L 910,703 Z M 728,702 L 733,702 L 734,703 L 735,703 L 736,704 L 735,705 L 734,705 L 735,705 L 736,704 L 739,707 L 739,709 L 740,710 L 740,713 L 739,714 L 739,716 L 735,720 L 734,720 L 733,721 L 728,721 L 727,720 L 726,720 L 722,716 L 722,714 L 721,713 L 721,710 L 722,709 L 722,708 L 723,707 L 723,706 L 725,704 L 726,705 L 727,705 L 726,705 L 725,704 L 726,703 L 727,703 Z M 544,702 L 550,702 L 551,703 L 552,703 L 555,706 L 555,707 L 556,708 L 556,714 L 555,715 L 555,716 L 551,720 L 550,720 L 549,721 L 545,721 L 544,720 L 543,720 L 542,719 L 541,719 L 539,717 L 539,716 L 538,715 L 538,712 L 537,711 L 538,710 L 538,708 L 539,707 L 539,706 L 541,704 L 542,705 L 543,705 L 542,705 L 541,704 L 542,703 L 543,703 Z M 360,702 L 365,702 L 366,703 L 367,703 L 371,707 L 371,708 L 372,709 L 372,713 L 371,714 L 371,716 L 367,720 L 366,720 L 365,721 L 361,721 L 360,720 L 358,720 L 355,717 L 355,716 L 354,715 L 354,713 L 353,712 L 353,710 L 354,709 L 354,708 L 355,707 L 356,708 L 357,707 L 357,706 L 356,705 L 358,703 L 359,703 Z M 1117,691 L 1118,691 L 1119,692 L 1123,692 L 1124,693 L 1125,692 L 1127,694 L 1127,699 L 1124,702 L 1122,702 L 1121,703 L 1120,703 L 1119,702 L 1118,702 L 1117,701 L 1116,701 L 1115,700 L 1115,699 L 1114,698 L 1114,695 L 1115,694 L 1115,693 Z M 1069,691 L 1070,691 L 1071,692 L 1075,692 L 1076,693 L 1077,692 L 1079,694 L 1079,699 L 1076,702 L 1074,702 L 1073,703 L 1071,703 L 1070,702 L 1069,702 L 1066,699 L 1066,694 Z M 885,691 L 886,691 L 887,692 L 886,693 L 887,692 L 891,692 L 892,693 L 893,692 L 895,694 L 895,699 L 891,703 L 887,703 L 886,702 L 885,702 L 883,700 L 883,698 L 882,697 L 882,696 L 883,695 L 883,693 Z M 710,691 L 712,693 L 712,694 L 713,695 L 713,698 L 712,699 L 712,700 L 710,702 L 708,702 L 707,703 L 705,703 L 704,702 L 703,702 L 700,699 L 700,694 L 702,692 L 703,693 L 704,692 L 708,692 L 709,691 Z M 526,691 L 528,693 L 528,694 L 529,695 L 529,698 L 528,699 L 528,700 L 526,702 L 525,702 L 524,703 L 521,703 L 520,702 L 519,702 L 516,699 L 516,694 L 518,692 L 519,693 L 520,692 L 524,692 L 525,693 L 524,692 L 525,691 Z M 1302,690 L 1306,690 L 1308,692 L 1307,693 L 1308,694 L 1309,693 L 1310,694 L 1310,699 L 1307,702 L 1306,702 L 1305,703 L 1303,703 L 1302,702 L 1301,702 L 1298,699 L 1298,698 L 1297,697 L 1297,696 L 1298,695 L 1298,693 L 1300,691 L 1301,691 L 1302,692 L 1305,692 L 1302,692 L 1301,691 Z M 1253,690 L 1257,690 L 1258,691 L 1257,692 L 1254,692 L 1257,692 L 1258,691 L 1259,691 L 1261,693 L 1261,694 L 1262,695 L 1262,698 L 1261,699 L 1261,700 L 1259,702 L 1258,702 L 1257,701 L 1255,701 L 1257,701 L 1258,702 L 1257,703 L 1254,703 L 1253,702 L 1252,702 L 1249,699 L 1249,694 Z M 931,694 L 934,691 L 935,692 L 939,692 L 935,692 L 934,691 L 935,690 L 940,690 L 943,693 L 943,694 L 944,695 L 944,698 L 943,699 L 943,700 L 942,701 L 941,701 L 940,702 L 939,702 L 938,703 L 937,703 L 936,702 L 934,702 L 932,700 L 932,699 L 931,698 Z M 748,694 L 750,692 L 751,693 L 752,692 L 756,692 L 752,692 L 751,691 L 752,690 L 757,690 L 760,693 L 760,694 L 761,695 L 761,698 L 760,699 L 760,700 L 759,701 L 758,701 L 757,702 L 756,702 L 755,703 L 754,702 L 751,702 L 749,700 L 749,699 L 748,698 Z M 567,691 L 568,691 L 569,692 L 572,692 L 569,692 L 568,691 L 569,690 L 573,690 L 574,691 L 575,691 L 576,692 L 576,693 L 577,694 L 577,699 L 574,702 L 572,702 L 571,703 L 570,702 L 567,702 L 565,700 L 565,699 L 564,698 L 564,695 L 565,694 L 565,693 Z M 385,690 L 389,690 L 390,691 L 391,691 L 392,692 L 392,693 L 393,694 L 393,699 L 390,702 L 389,702 L 388,703 L 385,703 L 384,702 L 383,702 L 381,700 L 381,699 L 380,698 L 380,695 L 381,694 L 381,693 L 382,692 L 383,693 L 383,694 L 383,693 L 382,692 L 383,691 L 384,691 Z M 334,691 L 335,691 L 336,692 L 334,694 L 336,692 L 339,692 L 336,692 L 335,691 L 336,690 L 340,690 L 341,691 L 342,691 L 343,692 L 343,693 L 344,694 L 344,699 L 343,700 L 343,701 L 342,702 L 341,702 L 340,703 L 337,703 L 336,702 L 337,701 L 339,701 L 337,701 L 336,702 L 335,702 L 334,701 L 333,701 L 332,700 L 332,699 L 331,698 L 331,695 L 332,694 L 332,693 Z M 1276,677 L 1277,677 L 1278,676 L 1281,676 L 1282,677 L 1283,677 L 1285,679 L 1285,680 L 1286,681 L 1286,684 L 1285,685 L 1285,686 L 1283,688 L 1281,688 L 1280,687 L 1279,687 L 1278,688 L 1276,688 L 1274,686 L 1274,685 L 1273,684 L 1273,681 L 1274,680 L 1274,679 Z M 1096,676 L 1098,676 L 1099,677 L 1100,677 L 1102,679 L 1102,680 L 1101,681 L 1101,684 L 1102,685 L 1102,686 L 1100,688 L 1099,688 L 1098,689 L 1095,689 L 1094,688 L 1093,688 L 1091,686 L 1091,679 L 1093,677 L 1095,677 Z M 912,676 L 914,676 L 915,677 L 917,677 L 919,679 L 919,681 L 920,682 L 919,683 L 919,685 L 916,688 L 915,688 L 914,689 L 912,689 L 911,688 L 910,688 L 908,686 L 908,685 L 907,684 L 907,680 L 910,677 L 911,677 Z M 727,677 L 728,677 L 729,676 L 732,676 L 733,677 L 734,677 L 736,679 L 736,680 L 737,681 L 737,684 L 736,685 L 736,686 L 734,688 L 732,688 L 731,689 L 729,689 L 728,688 L 727,688 L 725,686 L 725,685 L 724,684 L 724,681 L 725,680 L 725,679 Z M 545,676 L 548,676 L 549,677 L 550,677 L 552,679 L 552,680 L 553,681 L 553,684 L 552,685 L 552,686 L 550,688 L 549,688 L 548,689 L 546,689 L 545,688 L 543,688 L 541,686 L 541,685 L 540,684 L 540,681 L 541,680 L 542,681 L 542,683 L 542,681 L 544,679 L 543,679 L 542,678 L 543,677 L 544,677 Z M 359,677 L 360,677 L 361,676 L 364,676 L 365,677 L 366,677 L 368,679 L 368,681 L 369,682 L 369,683 L 368,684 L 368,686 L 366,688 L 364,688 L 363,687 L 364,686 L 365,686 L 359,686 L 358,687 L 357,686 L 357,685 L 356,684 L 356,680 L 358,678 L 359,679 L 358,678 Z M 1430,708 L 1428,710 L 1428,715 L 1429,716 L 1429,719 L 1426,721 L 1424,721 L 1423,722 L 1421,722 L 1420,723 L 1419,723 L 1412,716 L 1409,716 L 1408,717 L 1405,718 L 1405,719 L 1404,720 L 1404,729 L 1403,730 L 1401,730 L 1398,732 L 1396,732 L 1395,733 L 1394,733 L 1392,730 L 1393,729 L 1392,730 L 1389,726 L 1385,726 L 1384,727 L 1381,728 L 1379,730 L 1379,739 L 1378,740 L 1376,740 L 1373,742 L 1368,743 L 1362,737 L 1361,737 L 1360,736 L 1359,737 L 1354,739 L 1354,740 L 1353,741 L 1353,742 L 1354,743 L 1354,749 L 1353,750 L 1351,750 L 1350,751 L 1347,751 L 1346,752 L 1344,750 L 1343,747 L 1342,747 L 1340,745 L 1340,744 L 1337,744 L 1336,745 L 1334,745 L 1331,747 L 1331,753 L 1332,754 L 1332,757 L 1331,758 L 1330,758 L 1329,757 L 1330,756 L 1329,756 L 1328,757 L 1329,757 L 1330,758 L 1329,759 L 1326,759 L 1323,756 L 1323,755 L 1320,753 L 1325,748 L 1325,747 L 1330,741 L 1330,740 L 1334,733 L 1334,731 L 1335,730 L 1335,728 L 1336,727 L 1336,724 L 1337,723 L 1337,717 L 1338,716 L 1338,706 L 1337,705 L 1337,700 L 1336,699 L 1336,695 L 1335,694 L 1334,689 L 1333,688 L 1331,683 L 1332,682 L 1333,682 L 1334,681 L 1336,681 L 1341,678 L 1343,678 L 1348,675 L 1376,675 L 1377,674 L 1378,675 L 1378,676 L 1376,678 L 1376,679 L 1379,682 L 1380,682 L 1381,681 L 1387,681 L 1396,691 L 1395,692 L 1395,695 L 1394,696 L 1394,699 L 1395,700 L 1396,700 L 1397,701 L 1398,701 L 1401,699 L 1402,699 L 1403,700 L 1402,699 L 1404,697 L 1405,697 L 1406,698 L 1411,700 L 1413,702 L 1412,703 L 1413,702 L 1414,702 L 1415,703 L 1414,704 L 1415,705 L 1415,710 L 1416,710 L 1417,711 L 1419,711 L 1423,707 L 1424,708 L 1423,707 L 1424,706 L 1428,706 Z M 224,693 L 225,692 L 234,692 L 235,691 L 239,691 L 240,690 L 243,690 L 244,689 L 246,689 L 247,688 L 248,688 L 251,686 L 253,686 L 255,684 L 258,683 L 260,681 L 261,681 L 263,679 L 264,679 L 269,674 L 270,675 L 290,675 L 293,677 L 295,677 L 298,679 L 300,679 L 303,681 L 305,681 L 306,682 L 308,682 L 309,683 L 310,683 L 311,684 L 310,685 L 310,686 L 309,687 L 309,688 L 307,691 L 307,693 L 306,694 L 306,697 L 305,698 L 305,702 L 304,703 L 304,720 L 305,721 L 305,725 L 306,726 L 306,729 L 307,730 L 307,732 L 309,735 L 309,737 L 308,738 L 309,737 L 311,739 L 311,740 L 310,741 L 309,741 L 308,740 L 304,740 L 299,744 L 298,743 L 299,744 L 298,745 L 295,744 L 294,743 L 295,742 L 294,743 L 293,743 L 292,742 L 293,741 L 292,740 L 291,740 L 290,741 L 289,740 L 289,739 L 290,738 L 290,730 L 288,728 L 287,728 L 285,726 L 282,726 L 278,730 L 277,730 L 275,732 L 272,731 L 270,729 L 269,729 L 266,726 L 267,725 L 267,720 L 268,719 L 268,717 L 266,715 L 265,715 L 262,713 L 259,713 L 257,715 L 256,715 L 254,717 L 254,718 L 253,719 L 250,718 L 248,716 L 247,716 L 245,714 L 244,714 L 243,713 L 243,712 L 244,711 L 244,706 L 245,705 L 244,704 L 244,703 L 241,700 L 240,700 L 239,699 L 236,699 L 229,705 L 223,701 L 223,698 L 224,697 L 224,695 L 225,694 L 226,695 L 227,694 L 230,694 L 225,694 Z M 1174,658 L 1180,658 L 1181,659 L 1179,663 L 1179,667 L 1182,673 L 1187,677 L 1191,679 L 1193,679 L 1194,680 L 1202,680 L 1203,679 L 1205,679 L 1209,677 L 1212,679 L 1217,680 L 1220,682 L 1222,682 L 1226,684 L 1224,685 L 1226,684 L 1228,685 L 1223,695 L 1223,699 L 1222,700 L 1222,706 L 1221,707 L 1221,715 L 1222,716 L 1222,723 L 1223,724 L 1223,727 L 1225,730 L 1225,732 L 1227,735 L 1228,739 L 1230,741 L 1232,745 L 1235,748 L 1235,749 L 1246,759 L 1257,765 L 1255,766 L 1255,768 L 1254,769 L 1245,769 L 1243,768 L 1240,762 L 1240,760 L 1239,759 L 1234,759 L 1233,758 L 1229,760 L 1228,765 L 1226,768 L 1215,768 L 1212,763 L 1211,759 L 1209,758 L 1207,758 L 1206,759 L 1202,759 L 1197,768 L 1187,768 L 1185,766 L 1185,764 L 1184,763 L 1183,759 L 1181,758 L 1176,758 L 1174,759 L 1172,761 L 1171,766 L 1169,769 L 1168,768 L 1167,769 L 1162,769 L 1161,768 L 1159,768 L 1156,763 L 1155,759 L 1146,759 L 1144,762 L 1144,765 L 1142,769 L 1136,769 L 1134,767 L 1133,762 L 1130,759 L 1132,758 L 1143,747 L 1151,733 L 1151,731 L 1153,727 L 1153,724 L 1154,723 L 1154,718 L 1155,717 L 1155,705 L 1154,704 L 1154,700 L 1153,699 L 1152,692 L 1150,689 L 1150,687 L 1151,686 L 1150,687 L 1149,686 L 1150,684 L 1149,685 L 1148,683 L 1154,680 L 1162,678 L 1165,676 L 1167,676 L 1168,675 L 1172,675 L 1174,674 L 1176,672 L 1176,664 L 1173,659 Z M 992,658 L 996,658 L 997,659 L 996,661 L 996,669 L 997,671 L 994,673 L 995,673 L 997,671 L 1000,675 L 1001,675 L 1006,679 L 1008,679 L 1009,680 L 1018,680 L 1025,677 L 1026,678 L 1028,678 L 1029,679 L 1031,679 L 1032,680 L 1034,680 L 1041,683 L 1044,683 L 1045,684 L 1042,690 L 1042,692 L 1040,696 L 1040,699 L 1039,700 L 1039,706 L 1038,707 L 1038,716 L 1039,717 L 1039,723 L 1040,724 L 1041,730 L 1048,744 L 1059,756 L 1060,756 L 1066,761 L 1064,763 L 1064,765 L 1062,768 L 1058,768 L 1057,769 L 1053,769 L 1052,768 L 1050,768 L 1049,767 L 1049,765 L 1048,764 L 1047,760 L 1044,758 L 1039,758 L 1037,759 L 1036,763 L 1035,764 L 1035,766 L 1033,769 L 1031,768 L 1022,768 L 1020,766 L 1020,764 L 1019,763 L 1018,759 L 1016,758 L 1010,758 L 1007,761 L 1006,766 L 1004,768 L 992,768 L 991,767 L 991,765 L 990,764 L 989,760 L 986,758 L 982,758 L 980,759 L 978,761 L 977,766 L 975,768 L 973,768 L 972,769 L 967,769 L 966,768 L 964,768 L 963,767 L 964,766 L 963,767 L 962,766 L 962,764 L 961,763 L 960,759 L 958,759 L 957,758 L 953,758 L 951,759 L 946,769 L 945,768 L 935,768 L 934,767 L 935,765 L 939,764 L 943,761 L 947,762 L 945,762 L 944,761 L 946,759 L 950,757 L 959,748 L 959,747 L 962,744 L 964,739 L 966,737 L 966,735 L 968,732 L 968,730 L 970,726 L 970,722 L 971,721 L 971,701 L 970,700 L 970,697 L 967,690 L 967,688 L 968,687 L 967,688 L 964,683 L 965,682 L 973,680 L 976,678 L 981,677 L 984,675 L 989,675 L 991,674 L 993,671 L 993,664 L 991,660 Z M 781,683 L 782,682 L 785,682 L 788,680 L 799,677 L 802,675 L 806,675 L 808,674 L 810,671 L 809,663 L 807,660 L 808,658 L 813,658 L 814,659 L 813,660 L 813,663 L 812,664 L 813,670 L 814,672 L 821,678 L 823,678 L 827,680 L 835,680 L 841,677 L 843,677 L 844,678 L 852,680 L 855,682 L 861,683 L 862,685 L 858,692 L 858,694 L 857,695 L 856,693 L 857,695 L 857,699 L 856,700 L 856,705 L 855,706 L 855,717 L 856,718 L 856,724 L 857,725 L 857,728 L 859,731 L 860,736 L 862,738 L 866,746 L 869,749 L 869,750 L 878,758 L 877,759 L 877,761 L 878,760 L 879,761 L 878,760 L 880,759 L 882,761 L 889,764 L 890,765 L 890,767 L 889,768 L 877,768 L 876,767 L 876,765 L 875,764 L 874,760 L 873,759 L 868,759 L 867,758 L 863,761 L 862,766 L 860,768 L 856,768 L 855,769 L 853,768 L 848,768 L 846,765 L 846,763 L 844,759 L 838,758 L 837,759 L 835,759 L 834,763 L 833,764 L 833,766 L 831,768 L 820,768 L 819,767 L 820,766 L 819,767 L 818,766 L 818,764 L 815,759 L 813,758 L 809,758 L 808,759 L 806,759 L 804,763 L 804,766 L 802,768 L 799,768 L 797,769 L 796,768 L 791,768 L 788,763 L 787,759 L 782,759 L 780,758 L 777,760 L 775,764 L 775,766 L 773,768 L 763,768 L 761,764 L 761,761 L 767,756 L 768,756 L 778,745 L 785,732 L 786,726 L 787,725 L 787,722 L 788,721 L 788,701 L 787,700 L 787,696 L 788,694 L 787,696 L 786,695 L 785,690 Z M 623,658 L 630,658 L 631,659 L 629,662 L 629,667 L 630,668 L 630,670 L 634,675 L 635,675 L 640,679 L 643,679 L 644,680 L 652,680 L 653,679 L 655,679 L 659,677 L 665,680 L 667,680 L 668,681 L 670,681 L 671,682 L 673,682 L 677,684 L 676,685 L 674,685 L 675,685 L 677,687 L 677,688 L 676,689 L 676,691 L 674,695 L 674,698 L 673,699 L 673,703 L 672,704 L 672,718 L 673,719 L 673,724 L 674,725 L 674,728 L 677,734 L 677,736 L 676,737 L 677,736 L 678,737 L 678,738 L 680,740 L 683,746 L 694,757 L 690,760 L 686,768 L 683,768 L 682,769 L 680,768 L 675,768 L 673,766 L 672,761 L 670,759 L 667,759 L 666,758 L 665,759 L 664,758 L 661,760 L 660,762 L 660,764 L 658,767 L 657,766 L 658,767 L 657,768 L 649,768 L 647,769 L 644,766 L 643,761 L 640,758 L 635,758 L 633,759 L 631,762 L 631,764 L 630,766 L 628,768 L 617,768 L 615,766 L 615,764 L 614,763 L 614,761 L 613,759 L 611,758 L 606,758 L 603,760 L 602,762 L 602,764 L 601,765 L 601,767 L 600,768 L 590,768 L 589,769 L 588,768 L 589,766 L 588,767 L 587,766 L 585,762 L 585,760 L 581,758 L 583,757 L 593,747 L 593,746 L 597,741 L 601,733 L 601,731 L 603,727 L 603,724 L 604,723 L 604,717 L 605,716 L 605,706 L 604,705 L 604,700 L 603,699 L 603,695 L 600,689 L 600,687 L 598,684 L 602,681 L 607,680 L 610,678 L 615,677 L 618,675 L 621,675 L 626,672 L 626,667 L 625,666 L 625,663 L 622,659 Z M 441,658 L 446,658 L 447,659 L 445,663 L 445,667 L 446,668 L 446,670 L 448,672 L 448,673 L 454,678 L 456,678 L 459,680 L 468,680 L 474,677 L 476,677 L 477,678 L 479,678 L 480,679 L 482,679 L 483,680 L 485,680 L 486,681 L 488,681 L 495,684 L 494,686 L 493,685 L 491,685 L 493,685 L 494,687 L 491,692 L 490,691 L 491,692 L 491,695 L 490,696 L 490,699 L 489,700 L 489,705 L 488,706 L 488,716 L 489,717 L 489,723 L 490,724 L 490,727 L 491,728 L 492,733 L 494,736 L 493,738 L 494,737 L 495,738 L 497,743 L 500,746 L 500,747 L 510,757 L 511,757 L 513,759 L 512,760 L 513,759 L 516,761 L 515,765 L 514,766 L 514,768 L 513,769 L 512,768 L 511,769 L 503,769 L 500,766 L 500,764 L 499,763 L 498,759 L 496,759 L 495,758 L 491,758 L 489,759 L 486,765 L 486,767 L 484,769 L 483,768 L 473,768 L 469,759 L 466,759 L 465,758 L 464,759 L 462,758 L 460,759 L 457,764 L 457,766 L 455,768 L 444,768 L 442,766 L 442,764 L 441,763 L 440,759 L 438,759 L 437,758 L 432,758 L 430,759 L 429,763 L 428,764 L 428,766 L 426,768 L 415,768 L 414,767 L 416,766 L 414,766 L 413,765 L 413,763 L 411,759 L 409,758 L 404,758 L 402,759 L 399,765 L 399,767 L 397,769 L 387,769 L 385,766 L 386,764 L 393,761 L 395,759 L 397,760 L 396,761 L 397,760 L 396,759 L 398,757 L 400,758 L 399,757 L 412,743 L 414,738 L 416,736 L 416,734 L 419,728 L 420,720 L 421,719 L 421,703 L 420,702 L 419,694 L 417,691 L 417,689 L 414,683 L 415,682 L 423,680 L 426,678 L 431,677 L 434,675 L 438,675 L 439,674 L 441,674 L 443,671 L 443,669 L 442,668 L 442,663 L 440,660 Z M 1534,656 L 1536,656 L 1540,660 L 1540,673 L 1539,674 L 1539,675 L 1538,676 L 1537,676 L 1536,675 L 1537,674 L 1536,675 L 1534,675 L 1533,674 L 1534,675 L 1533,676 L 1532,676 L 1531,675 L 1531,674 L 1530,673 L 1530,666 L 1529,665 L 1529,661 Z M 220,656 L 230,656 L 231,657 L 231,659 L 232,660 L 232,661 L 233,662 L 233,663 L 234,664 L 234,665 L 235,666 L 235,668 L 236,669 L 236,671 L 237,672 L 237,673 L 238,674 L 238,676 L 236,678 L 234,678 L 233,679 L 217,679 L 216,678 L 213,678 L 212,677 L 213,676 L 215,676 L 214,675 L 213,675 L 213,676 L 212,677 L 211,677 L 210,676 L 210,675 L 211,674 L 211,672 L 212,671 L 212,670 L 213,669 L 213,668 L 214,667 L 214,666 L 215,665 L 215,664 L 216,663 L 216,662 L 218,660 L 218,658 Z M 1508,655 L 1509,656 L 1509,658 L 1508,659 L 1508,661 L 1507,662 L 1507,664 L 1506,665 L 1505,665 L 1504,664 L 1504,663 L 1505,662 L 1505,660 L 1506,659 L 1506,657 Z M 250,641 L 255,641 L 256,642 L 259,642 L 260,643 L 266,643 L 267,644 L 267,645 L 269,647 L 269,650 L 268,651 L 268,652 L 267,653 L 267,654 L 266,655 L 266,656 L 265,657 L 264,656 L 265,657 L 265,658 L 263,660 L 263,661 L 258,666 L 257,666 L 256,665 L 257,666 L 255,668 L 254,667 L 253,667 L 251,665 L 251,664 L 249,662 L 249,661 L 248,660 L 248,659 L 247,658 L 247,657 L 246,656 L 246,655 L 245,654 L 245,653 L 244,652 L 244,649 L 248,645 L 248,644 L 249,643 L 249,642 Z M 184,642 L 191,642 L 192,641 L 202,641 L 203,642 L 203,643 L 205,645 L 205,646 L 207,648 L 207,649 L 206,650 L 206,652 L 204,654 L 204,655 L 203,656 L 203,657 L 201,659 L 201,660 L 200,661 L 200,662 L 199,663 L 199,664 L 197,666 L 195,664 L 193,664 L 194,665 L 193,666 L 192,666 L 189,663 L 189,662 L 186,659 L 186,658 L 184,656 L 184,655 L 183,654 L 183,653 L 182,652 L 182,651 L 181,650 L 181,648 L 180,647 L 180,645 L 181,644 L 182,645 L 183,644 L 186,644 L 184,644 L 183,643 Z M 1259,631 L 1261,629 L 1269,629 L 1270,630 L 1270,632 L 1271,633 L 1277,633 L 1277,632 L 1278,631 L 1280,631 L 1281,632 L 1284,632 L 1284,631 L 1278,631 L 1277,630 L 1278,629 L 1285,629 L 1286,630 L 1286,633 L 1294,633 L 1294,630 L 1295,629 L 1304,629 L 1307,632 L 1306,633 L 1306,641 L 1307,642 L 1307,656 L 1306,657 L 1306,658 L 1305,659 L 1304,658 L 1302,658 L 1301,657 L 1300,657 L 1299,656 L 1297,656 L 1296,655 L 1294,655 L 1293,654 L 1289,654 L 1288,653 L 1270,653 L 1269,654 L 1266,654 L 1265,655 L 1263,655 L 1262,656 L 1260,656 L 1259,657 L 1258,656 L 1258,641 L 1259,640 Z M 1076,631 L 1078,629 L 1086,629 L 1087,630 L 1087,632 L 1088,633 L 1094,633 L 1094,632 L 1095,631 L 1095,630 L 1096,629 L 1102,629 L 1103,630 L 1103,633 L 1110,633 L 1111,632 L 1111,630 L 1112,629 L 1121,629 L 1122,630 L 1121,631 L 1118,631 L 1119,632 L 1120,632 L 1122,630 L 1124,632 L 1124,658 L 1123,659 L 1122,659 L 1121,658 L 1119,658 L 1118,657 L 1117,657 L 1116,656 L 1114,656 L 1113,655 L 1111,655 L 1110,654 L 1107,654 L 1106,653 L 1089,653 L 1088,654 L 1084,654 L 1083,655 L 1080,655 L 1079,656 L 1077,656 L 1076,655 L 1076,653 L 1075,652 L 1075,651 L 1076,650 Z M 893,631 L 895,629 L 903,629 L 904,630 L 904,633 L 911,633 L 912,632 L 912,630 L 913,629 L 919,629 L 920,630 L 919,631 L 915,631 L 916,632 L 917,632 L 918,631 L 919,631 L 920,632 L 920,633 L 927,633 L 928,632 L 928,630 L 929,629 L 930,630 L 931,630 L 932,629 L 938,629 L 940,631 L 940,658 L 939,659 L 938,658 L 936,658 L 935,657 L 934,657 L 933,656 L 931,656 L 930,655 L 927,655 L 926,654 L 923,654 L 922,653 L 904,653 L 903,654 L 900,654 L 899,655 L 896,655 L 895,656 L 893,656 L 892,655 L 892,647 L 893,646 Z M 710,631 L 711,630 L 712,630 L 713,631 L 713,632 L 718,632 L 718,631 L 713,631 L 712,630 L 713,629 L 720,629 L 721,630 L 721,633 L 728,633 L 728,631 L 730,629 L 736,629 L 737,630 L 737,633 L 745,633 L 745,631 L 746,630 L 748,630 L 749,629 L 755,629 L 757,631 L 757,658 L 756,659 L 755,658 L 754,658 L 753,657 L 751,657 L 750,656 L 748,656 L 747,655 L 745,655 L 744,654 L 740,654 L 739,653 L 721,653 L 720,654 L 717,654 L 716,655 L 713,655 L 712,654 L 713,655 L 712,656 L 710,656 L 709,655 L 710,654 Z M 526,631 L 527,630 L 528,630 L 529,631 L 528,632 L 529,631 L 532,631 L 533,632 L 535,632 L 535,631 L 529,631 L 528,630 L 529,629 L 536,629 L 537,630 L 537,632 L 538,633 L 544,633 L 545,632 L 545,630 L 546,629 L 552,629 L 553,630 L 553,633 L 560,633 L 560,631 L 562,629 L 570,629 L 571,630 L 570,631 L 569,631 L 569,632 L 571,632 L 570,631 L 571,630 L 572,630 L 573,631 L 573,658 L 572,659 L 571,658 L 570,658 L 569,657 L 570,656 L 571,656 L 571,655 L 570,655 L 570,656 L 569,657 L 567,657 L 566,656 L 564,656 L 563,655 L 561,655 L 560,654 L 555,654 L 554,653 L 539,653 L 538,654 L 533,654 L 532,655 L 530,655 L 529,656 L 527,656 L 526,657 L 525,656 L 525,653 L 526,652 Z M 340,631 L 341,630 L 342,630 L 343,629 L 350,629 L 351,630 L 351,632 L 352,633 L 358,633 L 359,632 L 359,630 L 360,629 L 366,629 L 367,630 L 367,631 L 368,632 L 368,633 L 375,633 L 375,631 L 377,629 L 386,629 L 389,632 L 389,658 L 388,659 L 387,658 L 386,658 L 385,657 L 383,657 L 382,656 L 380,656 L 379,655 L 376,655 L 375,654 L 373,654 L 372,653 L 353,653 L 352,654 L 349,654 L 348,655 L 345,655 L 344,656 L 342,656 L 341,657 L 340,656 Z M 262,603 L 264,603 L 265,604 L 265,605 L 264,606 L 263,605 L 262,606 L 264,606 L 265,605 L 267,607 L 267,608 L 268,609 L 268,610 L 269,611 L 269,613 L 268,614 L 269,613 L 270,614 L 270,615 L 271,616 L 271,618 L 272,619 L 272,623 L 273,624 L 273,625 L 271,627 L 260,627 L 259,626 L 254,626 L 253,625 L 252,625 L 251,624 L 251,623 L 250,622 L 250,621 L 249,620 L 249,616 Z M 189,602 L 190,603 L 191,603 L 199,611 L 199,612 L 203,616 L 203,617 L 204,618 L 203,619 L 203,620 L 202,621 L 202,622 L 201,623 L 201,624 L 200,625 L 197,625 L 196,626 L 191,626 L 190,627 L 180,627 L 179,626 L 180,625 L 180,624 L 180,625 L 179,626 L 178,625 L 178,620 L 179,619 L 179,617 L 180,616 L 180,614 L 181,613 L 181,612 L 182,611 L 183,612 L 182,611 L 182,610 L 183,609 L 183,608 L 184,607 L 184,606 L 188,602 Z M 242,585 L 244,587 L 243,588 L 244,587 L 246,587 L 247,588 L 248,588 L 249,589 L 250,589 L 254,593 L 254,594 L 253,595 L 252,594 L 253,595 L 248,600 L 247,600 L 247,601 L 245,603 L 244,603 L 243,602 L 244,603 L 242,605 L 242,606 L 240,608 L 239,607 L 239,591 L 240,590 L 240,587 Z M 223,582 L 225,584 L 225,591 L 224,592 L 224,598 L 223,599 L 223,604 L 222,605 L 220,605 L 219,606 L 217,606 L 216,607 L 215,607 L 214,606 L 214,605 L 209,600 L 209,599 L 205,595 L 205,594 L 202,591 L 202,589 L 204,587 L 205,587 L 206,586 L 208,586 L 209,585 L 210,585 L 211,584 L 213,584 L 214,583 L 217,583 L 218,582 Z M 1432,570 L 1433,569 L 1447,569 L 1448,570 L 1447,571 L 1433,571 Z M 1405,571 L 1405,570 L 1406,569 L 1417,569 L 1418,570 L 1417,571 L 1416,571 L 1416,572 L 1415,573 L 1413,571 L 1407,571 L 1406,572 Z" fill="black" fill-rule="evenodd"/>
<path d="M 561,211 L 553,213 L 540,220 L 521,239 L 520,238 L 518,240 L 438,240 L 436,241 L 432,256 L 223,256 L 221,254 L 209,254 L 207,257 L 206,265 L 207,312 L 209,314 L 221,314 L 223,312 L 428,312 L 433,336 L 441,360 L 443,362 L 534,362 L 548,373 L 561,377 Z" fill="black" fill-rule="evenodd"/>
<path d="M 151,567 L 164,576 L 194,549 L 1479,549 L 1511,577 L 1524,581 L 1534,572 L 1506,547 L 1520,539 L 1522,530 L 1501,487 L 1476,471 L 1419,470 L 1402,463 L 1354,469 L 1208,465 L 1202,439 L 1170,441 L 1158,450 L 1163,459 L 1123,456 L 1109,443 L 1013,443 L 998,456 L 911,459 L 911,447 L 936,446 L 937,411 L 1052,409 L 1052,395 L 1062,388 L 1060,275 L 1068,260 L 1083,256 L 1089,247 L 1087,235 L 1069,227 L 1064,212 L 1052,210 L 1052,178 L 916,177 L 913,162 L 883,153 L 810,157 L 806,177 L 713,172 L 695,178 L 687,150 L 677,145 L 662,152 L 654,180 L 592,178 L 563,189 L 564,446 L 591,447 L 591,459 L 442,459 L 435,447 L 396,447 L 388,459 L 369,459 L 348,478 L 321,515 L 315,513 L 320,503 L 316,482 L 291,474 L 288,506 L 300,515 L 289,528 L 200,530 L 176,540 Z M 1067,238 L 1068,237 L 1069,237 L 1070,236 L 1076,236 L 1077,237 L 1078,237 L 1081,240 L 1081,246 L 1080,247 L 1079,246 L 1078,247 L 1079,246 L 1080,247 L 1080,248 L 1079,249 L 1078,249 L 1077,250 L 1076,250 L 1075,251 L 1070,251 L 1069,250 L 1070,249 L 1074,249 L 1070,249 L 1069,248 L 1068,249 L 1067,248 Z" fill="black" fill-rule="evenodd"/>
</svg>