<?xml version="1.0" encoding="UTF-8" standalone="no"?>
<svg
   width="500"
   height="250"
   viewBox="0 0 500 250"
   version="1.1"
   id="svg3"
   sodipodi:docname="kv2_black.svg"
   inkscape:version="1.4.2 (f4327f4, 2025-05-13)"
   xmlns:inkscape="http://www.inkscape.org/namespaces/inkscape"
   xmlns:sodipodi="http://sodipodi.sourceforge.net/DTD/sodipodi-0.dtd"
   xmlns="http://www.w3.org/2000/svg"
   xmlns:svg="http://www.w3.org/2000/svg">
  <defs
     id="defs3" />
  <sodipodi:namedview
     id="namedview3"
     pagecolor="#ffffff"
     bordercolor="#000000"
     borderopacity="0.25"
     inkscape:showpageshadow="2"
     inkscape:pageopacity="0.0"
     inkscape:pagecheckerboard="0"
     inkscape:deskcolor="#d1d1d1"
     inkscape:zoom="1.7658883"
     inkscape:cx="86.641944"
     inkscape:cy="186.02535"
     inkscape:window-width="2560"
     inkscape:window-height="1377"
     inkscape:window-x="-8"
     inkscape:window-y="-8"
     inkscape:window-maximized="1"
     inkscape:current-layer="svg3" />
  <path
     d="m 484.39545,195.83531 -0.65323,-7.51212 -3.91937,-0.65322 -4.24599,-4.246 0.65325,-5.22582 -5.22583,-10.77824 -9.14519,-7.51213 -10.12504,-2.93954 -1.63308,1.30647 -26.45573,-0.97984 -0.97983,1.30644 -3.26614,-1.30644 -6.20568,1.30644 -3.26614,-1.30644 h -54.54454 l -0.97983,1.30644 -3.26615,-1.30644 -6.53229,1.30644 -3.26612,-1.30644 -8.49198,1.30644 -0.97983,-1.30644 h -90.79869 l -0.97985,1.30644 -2.93953,-1.30644 h -14.37101 l -0.97984,1.30644 -3.59276,-1.30644 -27.43557,1.30644 -0.97984,-1.30644 h -42.78645 l -3.26613,1.30644 -0.97985,-1.30644 H 49.345585 l -9.145192,3.26612 -8.491966,8.49198 -2.286294,4.89921 0.653225,4.57259 -1.633067,0.97984 v 5.55245 l 2.612911,3.91936 -0.979844,2.2863 8.165349,10.45164 12.41133,6.20567 4.899212,4.57261 h 2.939528 l 4.572596,4.57259 H 66.0029 l 2.612911,3.26613 4.899213,1.30646 3.266136,3.59276 h 2.939528 l 5.552439,4.24598 1.959685,-0.97985 7.185507,2.93953 1.959684,-1.30646 3.919357,1.30646 5.55244,-1.30646 3.59276,1.30646 5.87905,-1.30646 3.59276,1.30646 5.87906,-1.30646 3.59275,1.30646 5.87904,-1.30646 3.59276,1.30646 5.87906,-1.30646 3.59275,1.30646 5.87905,-1.30646 3.59275,1.30646 5.87905,-1.30646 3.59276,1.30646 5.55244,-1.30646 3.59275,1.30646 5.87906,-1.30646 3.59275,1.30646 5.55243,-1.30646 3.91938,1.30646 5.87905,-1.30646 3.59275,1.30646 5.87905,-1.30646 3.26615,1.30646 6.20567,-1.30646 3.59275,1.30646 6.20566,-1.30646 3.26615,1.30646 5.87905,-1.30646 3.59276,1.30646 5.55243,-1.30646 3.59275,1.30646 5.87906,-1.30646 3.59275,1.30646 6.20566,-1.30646 3.26615,1.30646 5.87904,-1.30646 3.59276,1.30646 5.87906,-1.30646 3.59275,1.30646 5.55244,-1.30646 3.91936,1.30646 5.55245,-1.30646 3.59274,1.30646 6.20567,-1.30646 3.59276,1.30646 5.55243,-1.30646 3.59277,1.30646 6.20566,-1.30646 3.59275,1.30646 5.55245,-1.30646 3.59274,1.30646 5.87905,-1.30646 2.93954,1.30646 4.57258,-1.30646 2.93954,1.30646 5.87905,-1.30646 26.78235,1.30646 3.91937,-1.30646 2.61291,1.30646 10.45164,-2.2863 3.59276,-2.93952 5.55242,-0.65324 1.63309,-2.2863 4.24598,0.32662 2.93952,-2.93953 2.2863,0.65323 14.0444,-7.18551 5.55243,-0.65322 2.93954,-2.93953 6.85889,-1.30646 8.16535,-5.55243 v -2.2863 l 5.55243,-5.87906 -0.65322,-1.95968 4.5726,5.87906 h 3.26614 z m -318.44866,29.72187 -0.32662,0.32662 v 0.32662 l -0.32661,0.32661 h -1.95968 l -0.32663,-0.32661 0.32663,-0.32662 h 0.65323 l 0.32661,-0.32662 h 0.65322 l 0.32662,-0.3266 h 0.32661 z m 41.80659,-0.65321 0.32662,-0.32663 0.32662,0.32663 h 0.3266 l 0.32662,0.32661 -0.32662,0.3266 v 0.32662 h 0.32662 l -0.32662,-0.32662 0.32662,-0.3266 h 0.65322 l 0.32662,0.3266 h 0.32662 l 0.32661,0.32662 h 0.65323 l 0.32662,0.32662 h 0.97983 l 0.32662,0.32661 -0.32662,0.32662 h -1.30645 l -0.32662,-0.32662 h -2.6129 L 208.08,226.21042 v -0.32662 l -0.32662,-0.32662 z m 199.23455,-0.32663 v 0.65324 l -0.32662,0.3266 -0.3266,-0.3266 0.3266,0.3266 -0.3266,0.32662 h -0.97985 l -0.32663,0.32662 h -1.63305 l -0.32663,-0.32662 0.32663,-0.32662 h 0.97985 l 0.3266,-0.3266 h 0.3266 l 0.32663,-0.32661 h 0.32662 l 0.65323,-0.65323 h 0.3266 z m -324.654332,-4.24598 1.959685,1.95969 -0.326616,0.32662 h -0.326616 v 0.32661 l -0.326609,0.3266 h -0.326617 l -0.326609,-0.3266 h -0.326618 l -0.326616,-0.32661 h -0.326608 l -0.653234,-0.65324 0.979842,-0.97984 v -0.32662 z m -0.979842,-1.30644 0.653226,0.65322 v 0.32661 l -0.326608,0.32661 v 0.32661 l -0.326618,0.32662 v 0.65323 l -0.326616,0.32661 h -0.326609 l -0.326617,-0.32661 0.326617,-0.32662 v -0.65323 l 0.326609,-0.32661 v -0.97984 z m 314.529284,-3.59277 h 1.63307 l 0.32662,0.32661 h 0.32663 l 0.3266,0.32662 v 0.32661 l 0.32662,0.32662 v 1.63306 l -0.97985,0.97985 h -1.95969 l -1.30645,-1.30646 v -0.97983 l 0.32661,-0.32662 v -0.32662 z m -59.77035,0 h 1.95968 l 0.65323,0.65323 v 0.32661 l 0.32662,0.32662 v 1.63306 l -0.32662,0.32663 -0.32662,-0.32663 v -0.65321 0.65321 l 0.32662,0.32663 -0.32662,0.32662 h -0.32661 l -0.3266,-0.32662 0.3266,0.32662 -0.3266,0.3266 h -1.63308 l -0.97985,-0.97985 v -1.95968 z m -60.09697,0 h 1.95967 l 0.97984,0.97984 v 0.32662 l 0.32662,0.32662 v 0.97983 l -0.65322,0.65324 -0.32662,-0.32663 0.32662,0.32663 -0.65324,0.65322 h -1.95967 l -0.65324,-0.65322 v -0.32663 l -0.3266,-0.32661 v -1.30645 l 0.3266,-0.32662 v -0.32661 z m -59.77038,0 h 1.95969 l 0.97985,0.97984 v 0.32662 l 0.32661,0.32662 v 0.65323 l -0.32661,0.3266 v 0.32661 l -0.32662,0.32663 -0.32661,-0.32663 0.32661,0.32663 -0.65323,0.65322 h -1.95969 l -0.65321,-0.65322 v -0.32663 l -0.32663,-0.32661 v -1.30645 l 0.32663,-0.32662 v -0.32661 z m -59.77035,0 h 1.95968 l 0.97983,0.97984 v 1.95968 l -0.97983,0.97985 h -1.95968 l -0.32662,-0.3266 0.32662,-0.32662 h 0.3266 -0.3266 l -0.32662,-0.32663 -0.32662,0.32663 -0.32662,-0.32663 v -0.32661 l -0.32661,-0.3266 v -0.65323 l 0.32661,-0.32662 v -0.32662 z m -60.423603,0 h 1.959685 l 1.306451,1.30646 v 1.30645 l -0.326608,0.32661 v 0.32663 l -0.326617,0.32662 h -0.326617 l -0.326609,-0.32662 h -0.653226 0.653226 l 0.326609,0.32662 -0.326609,0.3266 h -1.633069 l -0.326616,-0.3266 0.326616,-0.32662 -0.326616,0.32662 H 95.72477 l -0.326608,-0.32662 v -0.32663 l -0.326619,-0.32661 v -1.30645 l 0.326619,-0.32662 v -0.32661 z m 307.997013,-4.5726 h 1.30646 l 0.65323,0.65324 -0.32661,0.32661 0.32661,-0.32661 0.32662,0.32661 v 0.32661 l 0.3266,0.32663 v 0.97983 l -0.3266,0.32662 v 0.3266 l -0.32662,0.32662 -0.32661,-0.32662 v -0.3266 0.3266 l 0.32661,0.32662 -0.32661,0.32662 h -0.32662 l -0.32663,0.32662 h -0.6532 l -0.32663,-0.32662 0.32663,-0.32662 h 0.3266 -0.65323 l -0.32661,0.32662 h -0.32661 l -0.65323,-0.65324 v -0.3266 l -0.32662,-0.32662 v -0.97983 l 0.32662,-0.32663 v -0.32661 l 0.65323,-0.65323 h 0.32661 z m -15.67748,0 h 1.30646 l 1.30647,1.30646 v 1.63308 l -0.97985,0.97984 h -0.32662 l -0.3266,-0.32662 h -0.32661 0.32661 l 0.3266,0.32662 -0.3266,0.32662 h -0.97986 l -1.30645,-1.30646 v -1.63308 z m -44.09288,0 h 0.97984 l 0.32661,0.32662 h 0.32662 l 0.32661,0.32662 -0.32661,0.32661 0.32661,-0.32661 0.65324,0.65322 v 1.30646 l -0.32662,0.32662 v 0.3266 l -0.32662,0.32662 -0.32661,-0.32662 v -0.3266 0.3266 l 0.32661,0.32662 -0.32661,0.32662 h -0.32662 l -0.32661,0.32662 h -0.97984 l -0.32661,-0.32662 0.32661,-0.32662 h 0.65323 -0.65323 l -0.32661,0.32662 h -0.32662 l -0.65322,-0.65324 v -0.65322 l -0.32662,-0.32662 v -0.65321 l 0.32662,-0.32663 v -0.32661 l 0.65322,-0.65323 h 0.32662 z m -15.67746,0 h 1.30644 l 0.32661,0.32662 h 0.32662 l 0.65323,0.65323 v 0.65324 l 0.32662,0.3266 v 0.32661 l -0.32662,0.32662 v 0.32662 l -0.65323,0.65322 -0.32662,-0.32662 -0.32661,0.32662 h -0.97984 0.97984 l 0.32661,0.32662 -0.32661,0.32662 h -1.30644 l -0.32662,-0.32662 h -0.32663 l -0.65322,-0.65324 v -0.65322 l -0.32662,-0.32662 v -0.32661 l 0.32662,-0.3266 v -0.32663 l 0.32661,-0.32661 v -0.32661 l 0.32661,-0.32662 h 0.32663 z m -44.41951,0 h 1.30645 l 0.32661,0.32662 h 0.32662 l 0.65322,0.65323 v 0.65324 l 0.32661,0.3266 v 0.32661 l -0.32661,0.32662 v 0.32662 l -0.32661,0.3266 v 0.32662 l -0.32661,0.32662 h -0.32662 l -0.32661,0.32662 h -1.30645 l -0.32662,-0.32662 0.32662,-0.32662 h 0.65321 -0.65321 l -0.32662,0.32662 -0.97985,-0.97984 v -1.63308 z m -15.67748,0 h 1.63306 l 0.97986,0.97985 v 0.32661 l 0.32661,0.32663 v 0.97983 l -0.97985,0.97984 -0.32662,-0.32662 -0.3266,0.32662 h -0.97984 l -0.32662,0.32662 h -0.32662 l -0.65323,-0.65324 v -0.3266 l -0.32661,-0.32662 v -0.97983 l 0.32661,-0.32663 v -0.32661 z m -44.41951,0.32662 h 0.32662 l 0.32662,-0.32662 h 0.97984 l 0.32661,0.32662 h 0.32661 l 0.65323,0.65323 v 0.65324 l 0.32661,0.3266 v 0.32661 l -0.32661,0.32662 v 0.32662 l -0.3266,0.3266 -0.32663,-0.3266 0.32663,0.3266 v 0.32662 l -0.32663,0.32662 h -0.32661 l -0.32661,-0.32662 h -1.30646 l -0.32662,-0.32662 -0.32661,0.32662 -0.32662,-0.32662 v -0.3266 l -0.32661,-0.32662 v -1.30646 z m -15.02424,-0.32662 h 0.97984 l 0.32662,0.32662 h 0.32661 l 0.65323,0.65323 v 0.32661 l 0.32662,0.32663 v 0.97983 l -0.32662,0.32662 v 0.3266 l -0.65323,0.65324 h -0.32661 l -0.32662,-0.32662 0.32662,-0.32662 -0.32662,0.32662 h -0.65322 0.65322 l 0.32662,0.32662 -0.32662,0.32662 h -1.30646 l -0.97984,-0.97986 v -0.3266 l -0.32661,-0.32662 v -0.97983 l 0.32661,-0.32663 v -0.32661 l 0.65324,-0.65323 h 0.3266 z m -44.41952,0 h 1.30647 l 1.30646,1.30646 v 1.63308 l -1.30646,1.30646 h -1.30647 l -0.3266,-0.32662 0.3266,-0.32662 h 0.65324 -0.65324 l -0.3266,0.32662 h -0.32661 l -0.65323,-0.65324 v -0.3266 l -0.32663,-0.32662 v -0.97983 l 0.65324,-0.65324 v -0.32661 l 0.32662,-0.32662 h 0.32661 z m -15.67746,0 h 1.30645 l 0.32662,0.32662 h 0.32662 l 0.32661,0.32662 v 0.32661 l 0.3266,0.32661 v 1.63308 l -0.65321,0.65322 -0.32662,-0.32662 -0.32662,0.32662 h -1.30645 l -0.32661,0.32662 h -0.32662 l -0.32662,-0.32662 v -0.32662 l -0.32662,-0.3266 v -0.32662 l -0.3266,-0.32662 v -0.32661 l 0.3266,-0.3266 v -0.32663 l 0.65324,-0.65322 0.32662,0.32661 -0.32662,-0.32661 z m -45.07274,0.32662 h 0.32662 l 0.32662,-0.32662 h 0.97983 l 0.32661,0.32662 h 0.32662 l 0.65322,0.65323 v 0.32661 l 0.32662,0.32663 v 0.97983 l -0.32662,0.32662 v 0.3266 l -0.65322,0.65324 h -0.32662 l -0.32661,-0.32662 h -0.65322 l -0.32661,0.32662 h -0.32662 l -0.32662,-0.32662 h -0.32661 l -0.32662,-0.32662 v -0.3266 l -0.32661,-0.32662 v -0.97983 l 0.32661,-0.32663 v -0.32661 z m -15.02424,-0.32662 h 1.306452 l 0.979842,0.97985 v 0.32661 l 0.326617,0.32663 v 0.65321 l -0.326617,0.32662 v 0.32662 l -1.306452,1.30646 H 88.86588 l -0.326616,-0.32662 0.326616,-0.32662 h 0.653225 -0.653225 l -0.326616,0.32662 h -0.326609 l -0.653235,-0.65324 v -0.3266 l -0.326608,-0.32662 v -0.97983 l 0.326608,-0.32663 0.326617,0.32663 v 0.65321 -0.65321 l -0.326617,-0.32663 v -0.32661 l 0.653235,-0.65323 h 0.326609 z m 360.90848,-2.93952 0.65324,-0.65323 v -0.32661 l 0.32661,-0.32662 h 1.63306 l 0.32662,0.32662 -0.32662,0.32661 h -1.30646 1.30646 l 0.32662,0.32663 -0.32662,0.3266 h -0.65322 l -0.32661,0.32661 h -0.32663 l -0.3266,0.32662 h -0.32661 z m -53.56469,-2.93952 h 1.30644 l 0.32662,0.3266 h 0.32663 l 0.3266,0.32662 -0.3266,0.32662 h -0.32663 0.32663 l 0.3266,-0.32662 0.97985,0.97984 v 0.32662 l 0.3266,0.32661 v 1.63307 l -0.3266,0.32661 v 0.32663 l -1.30645,1.30644 h -0.32663 l -0.32662,0.32662 h -1.30644 l -0.32663,-0.32662 h -0.3266 l -0.32661,-0.32661 h -0.32663 l -0.65321,-0.65322 v -0.32661 l -0.32663,-0.32663 v -0.65322 l -0.3266,-0.32662 v -0.32661 l 0.3266,-0.3266 v -0.65324 l 0.32663,-0.32662 v -0.32661 l 0.65321,-0.65323 h 0.32663 l 0.32661,0.32662 h 0.3266 -0.3266 l -0.32661,-0.32662 0.32661,-0.32662 h 0.3266 z m -60.09698,0 h 1.63308 l 0.3266,0.3266 h 0.32661 l 0.32662,0.32662 -0.32662,0.32662 h -0.32661 0.32661 l 0.32662,-0.32662 h 0.32662 l 0.65322,0.65323 v 0.32661 l 0.32661,0.32662 v 2.28629 l -1.63307,1.63307 h -0.32661 l -0.3266,0.32662 h -1.30647 l -0.32661,-0.32662 h -0.32661 l -1.30647,-1.30644 v -0.32663 l -0.3266,-0.32661 v -1.95968 l 0.3266,-0.32662 v -0.32661 l 0.65323,-0.65323 h 0.32662 l 0.32662,0.32662 -0.32662,-0.32662 z m -59.77036,0 h 1.63306 l 0.32662,0.3266 h 0.32662 l 0.3266,0.32662 -0.3266,0.32662 h -0.32662 0.32662 l 0.3266,-0.32662 0.97985,0.97984 v 0.65323 l 0.32662,0.32663 v 0.97983 l -0.32662,0.32661 v 0.65324 l -1.30645,1.30644 h -0.65324 l -0.32661,0.32662 h -0.97984 l -0.32661,-0.32662 h -0.65324 l -0.97984,-0.97983 v -0.32661 l -0.3266,-0.32663 v -0.65322 l -0.32662,-0.32662 v -0.65321 l 0.32662,-0.32663 v -0.32661 l 0.3266,-0.32662 v -0.32661 l 0.65323,-0.65323 0.32661,0.32662 h 0.32663 -0.32663 l -0.32661,-0.32662 0.32661,-0.32662 h 0.32663 z m -59.77036,0 h 1.63306 l 0.32662,0.3266 h 0.32661 l 0.32662,0.32662 -0.32662,0.32662 h -0.32661 0.32661 l 0.32662,-0.32662 0.97983,0.97984 v 0.65323 l 0.32661,0.32663 v 0.97983 l -0.32661,0.32661 v 0.65324 l -1.30645,1.30644 h -0.32661 l -0.32662,0.32662 h -1.63306 l -0.32663,-0.32662 h -0.3266 l -1.30646,-1.30644 v -0.65324 l -0.32662,-0.32661 v -0.97983 l 0.32662,-0.32663 v -0.32661 l 0.3266,-0.32662 v -0.32661 l 0.65325,-0.65323 0.32661,0.32662 h 0.3266 -0.3266 l -0.32661,-0.32662 0.32661,-0.32662 h 0.3266 z m -60.09698,0 h 1.95968 l 0.32661,0.3266 h 0.32662 l 0.97984,0.97985 v 0.32661 l 0.32661,0.32662 v 1.95968 l -0.32661,0.32661 v 0.32663 l -1.30646,1.30644 h -0.32661 l -0.32662,0.32662 h -1.30646 l -0.3266,-0.32662 h -0.32662 l -0.32662,-0.32661 h -0.32662 l -0.65322,-0.65322 v -0.32661 l -0.32662,-0.32663 v -0.97984 l -0.3266,-0.32661 0.3266,-0.3266 v -0.65324 l 0.32662,-0.32662 v -0.32661 l 0.65322,-0.65323 0.32662,0.32662 h 0.32662 -0.32662 l -0.32662,-0.32662 0.32662,-0.32662 h 0.32662 z m -60.096987,0 h 1.633069 l 0.326609,0.3266 h 0.326617 l 1.306459,1.30646 v 0.32662 l 0.326603,0.32661 v 1.30646 l -0.326603,0.32661 v 0.65324 l -1.306459,1.30644 h -0.326617 l -0.326609,0.32662 h -1.306461 l -0.326608,-0.32662 H 95.72477 l -0.979843,-0.97983 v -0.32661 l -0.326608,-0.32663 v -0.65322 l -0.326617,-0.32662 v -0.65321 l 0.326617,-0.32663 v -0.32661 l 0.326608,-0.32662 0.326616,0.32662 0.326619,-0.32662 v -0.32661 l -0.326619,-0.32661 0.653227,-0.65324 h 0.326617 z m 247.246807,-3.59276 h 0.32662 l 0.32661,0.32661 h 1.30645 l 0.32662,0.32662 0.32661,-0.32662 0.65324,0.65325 v 1.63305 l -0.97985,0.97985 h -0.65323 l -0.32661,0.3266 h -0.32663 l -0.3266,-0.3266 h -0.32661 l -0.32662,-0.32662 h -0.32662 l -0.3266,-0.3266 v -0.32663 l -0.32662,-0.32661 v -0.97985 l 0.32662,-0.32659 v -0.32663 z m -15.67748,0 h 0.32663 l 0.32662,0.32661 h 1.30644 l 0.32661,0.32662 0.32662,-0.32662 0.65323,0.65325 v 1.63305 l -0.97985,0.97985 h -0.65323 l -0.32661,0.3266 h -0.65321 l -0.32662,-0.3266 h -0.32663 l -0.97984,-0.97985 v -1.63305 z m -60.09697,0 h 0.32661 l 0.32662,0.32661 -0.32662,0.32662 0.32662,-0.32662 h 1.30646 l 0.3266,0.32662 0.32662,-0.32662 0.65324,0.65325 v 1.63305 l -1.30646,1.30645 h -1.30646 l -0.32662,-0.3266 h -0.32661 l -0.65323,-0.65322 v -0.65324 l -0.3266,-0.32661 v -0.32663 l 0.3266,-0.32661 v -0.65322 z m -57.15745,0 0.65323,0.65323 v 0.32663 l 0.32662,0.32659 v 0.97985 l -0.32662,0.32661 v 0.32663 l -0.65323,0.65322 h -0.65323 l -0.32662,0.3266 h -0.65322 l -0.32662,-0.3266 h -0.3266 l -0.97985,-0.97985 v -1.63305 l 0.65323,-0.65325 0.32662,0.32662 0.3266,-0.32662 h 1.30646 l 0.32662,-0.32661 z m -60.09698,0 0.65323,0.65323 v 0.32663 l 0.3266,0.32659 v 0.97985 l -0.3266,0.32661 v 0.32663 l -0.65323,0.65322 h -0.32662 l -0.32661,0.3266 h -0.97984 l -0.32661,-0.3266 h -0.32662 l -0.97984,-0.97985 v -1.63305 l 0.65322,-0.65325 0.32662,0.32662 0.32662,-0.32662 h 1.30645 l 0.32661,0.32662 -0.32661,-0.32662 0.32661,-0.32661 z m 253.45247,-0.32662 h 1.30646 l 0.65323,0.65323 -0.32661,0.32662 0.32661,0.32663 0.32662,-0.32663 0.3266,0.32663 v 1.63305 l -0.97983,0.97985 h -0.32662 l -0.32663,0.3266 h -0.6532 l -0.32663,-0.3266 h -0.32661 l -0.97984,-0.97985 v -0.32661 l -0.32662,-0.32661 v -0.32663 l 0.32662,-0.32661 v -0.65322 l 0.65323,-0.65323 h 0.32661 l 0.32661,0.32661 h 0.97983 -0.97983 l -0.32661,-0.32661 z m -16.00408,0 h 1.30646 l 0.3266,0.32662 -0.3266,0.32661 h -0.97986 0.97986 l 0.3266,-0.32661 h 0.32662 l 0.65322,0.65323 v 0.32663 l 0.32663,0.32659 v 0.97985 l -0.32663,0.32661 v 0.32663 l -0.65322,0.65322 h -0.32662 l -0.3266,-0.32662 h -0.65324 0.65324 l 0.3266,0.32662 -0.3266,0.3266 h -0.97986 l -0.3266,-0.3266 h -0.32662 l -0.97983,-0.97985 v -1.63305 z m -105.16972,1.30648 0.97985,-0.97986 0.32662,0.32661 h 1.30645 -1.30645 l -0.32662,-0.32661 0.32662,-0.32662 h 1.63306 l 0.97984,0.97985 v 0.32663 l 0.32661,0.32659 v 0.97985 l -0.32661,0.32661 v 0.32663 l -0.32661,0.3266 h -0.32661 l -0.32662,0.32662 h -0.32661 l -0.32661,0.3266 h -0.32663 l -0.3266,-0.3266 h -0.65323 l -0.65323,-0.65322 v -0.32663 l -0.32662,-0.32661 z m -59.77036,0 0.65323,-0.65325 0.32661,0.32662 0.32662,-0.32662 h 1.30646 -1.30646 l -0.32662,-0.32661 0.32662,-0.32662 h 1.63307 l 0.97984,0.97985 v 0.32663 l 0.32661,0.32659 v 0.97985 l -0.32661,0.32661 v 0.32663 l -0.3266,0.3266 h -0.32663 l -0.32661,0.32662 h -0.32661 l -0.32663,0.3266 -0.3266,-0.3266 h -0.97985 l -0.65323,-0.65322 v -0.32663 l -0.32661,-0.32661 z m -59.11713,-0.97986 h 0.32661 l 0.3266,0.32661 h 0.97985 -0.97985 l -0.3266,-0.32661 0.3266,-0.32662 h 1.30647 l 0.32661,0.32662 h 0.32662 l 0.3266,0.32661 v 0.32662 l 0.32663,0.32663 v 1.63305 l -0.97985,0.97985 h -0.65323 l -0.32661,0.3266 -0.32662,-0.3266 h -0.97983 l -0.65323,-0.65322 v -0.32663 l -0.32663,-0.32661 v -0.97985 l 0.32663,-0.32659 v -0.32663 z m -59.44375,-0.32662 h 1.30644 l 0.32662,0.32662 h 0.32662 l 0.3266,0.32661 v 0.32662 l 0.32662,0.32663 v 1.63305 l -0.97984,0.97985 h -0.32662 l -0.32661,0.3266 h -0.97983 l -0.32662,-0.3266 h -0.32662 l -0.65323,-0.65322 v -0.32663 l -0.32661,-0.32661 v -0.97985 l 0.32661,-0.32659 v -0.32663 l 0.32662,-0.32662 0.32661,0.32662 v 0.32663 -0.32663 l -0.32661,-0.32662 0.32661,-0.32661 h 0.32662 z m -16.657323,0.32662 h 0.326618 l 0.326609,0.32661 -0.653227,0.65325 0.653227,-0.65325 h 0.979841 -0.979841 l -0.326609,-0.32661 0.326609,-0.32662 h 1.306458 l 0.32661,0.32662 h 0.326616 l 0.326617,0.32661 v 0.32662 l 0.326609,0.32663 v 1.63305 l -0.326609,0.32663 v 0.3266 l -0.326617,0.32662 h -0.326616 l -0.32661,0.3266 H 88.86588 l -0.326616,-0.3266 0.326616,-0.32662 h 0.653225 -0.653225 l -0.326616,0.32662 h -0.326609 l -0.326618,-0.32662 H 87.55942 l -0.326608,-0.3266 v -0.32663 l -0.326617,-0.32661 v -0.97985 l 0.326617,-0.32659 v -0.32663 z m 307.670403,-4.57259 h 0.3266 l 0.32663,-0.32662 h 0.97984 l 0.3266,0.32662 h 0.32662 l 0.65323,0.65322 v 0.32661 l 0.32662,0.32662 v 0.97983 l -0.32662,0.32663 v 0.32662 l -0.65323,0.65322 h -0.65322 l -0.32661,-0.32663 h -0.32662 l -0.32661,0.32663 h -0.65323 l -0.65324,-0.65322 v -0.32662 l -0.32661,-0.32663 v -0.97983 l 0.32661,-0.32662 v -0.32661 z m -58.79052,-0.32662 h 0.65322 l 0.32663,0.32662 h 0.3266 l 0.65323,0.65322 v 0.32661 l -0.32662,0.32662 v 0.97983 l 0.32662,0.32663 v 0.32662 l -0.65323,0.65322 h -0.3266 l -0.32663,0.32661 h -0.97984 l -0.32661,-0.32661 h -0.32661 l -0.65324,-0.65322 v -2.28631 l 0.65324,-0.65322 h 0.65322 z m -60.09698,0 h 0.65322 l 0.32662,0.32662 h 0.65323 l 0.65322,0.65322 v 0.65323 l 0.32662,0.32662 -0.32662,0.32661 v 0.65323 l -0.97984,0.97984 h -0.32661 l -0.32662,0.32661 h -0.65322 l -0.32661,-0.32661 h -0.32661 l -0.65324,-0.65322 v -0.32662 l -0.3266,-0.32663 v -1.30645 l 0.97984,-0.97983 h 0.32661 z m -60.4236,0.32662 h 0.32663 l 0.32661,-0.32662 h 0.97983 l 0.32662,0.32662 h 0.32662 l 0.65323,0.65322 v 0.32661 l 0.32661,0.32662 v 0.97983 l -0.32661,0.32663 v 0.32662 l -0.65323,0.65322 h -0.65324 l -0.3266,0.32661 h -0.65323 l -0.32661,-0.32661 h -0.32663 l -0.65321,-0.65322 v -0.32662 l -0.32663,-0.32663 v -0.97983 l 0.32663,-0.32662 v -0.32661 z m -59.44375,-0.32662 h 0.97984 l 0.32662,0.32662 h 0.32662 l 0.65323,0.65322 v 0.32661 l 0.3266,0.32662 v 0.97983 l -0.3266,0.32663 v 0.32662 l -0.65323,0.65322 h -0.32662 l -0.32662,0.32661 h -0.65323 l -0.32661,-0.32661 h -0.65322 l -0.65324,-0.65322 v -0.32662 l -0.32661,-0.32663 v -0.97983 l 0.32661,-0.32662 0.32662,0.32662 v 0.65323 -0.65323 l 0.65324,-0.65323 h -0.32662 l -0.32662,-0.3266 0.32662,-0.32662 h 0.32662 z m -60.750203,0.32662 h 0.326616 l 0.326608,-0.32662 h 0.979844 l 0.326617,0.32662 h 0.326609 l 0.653234,0.65322 v 0.65323 l 0.326608,0.32662 v 0.32661 l -0.326608,0.3266 v 0.65325 l -0.653234,0.65322 h -0.653226 l -0.326609,-0.32663 0.326609,-0.32659 h 0.326617 -1.959685 l -0.326617,0.32659 -0.326608,-0.32659 v -0.32662 l -0.326619,-0.32663 v -1.30645 l 0.653227,-0.65321 0.326617,0.3266 -0.326617,-0.3266 z m 349.803603,10.12503 -0.65323,0.65324 v 1.63305 l 0.32662,0.32663 v 0.97983 l -0.97983,0.65323 h -0.65324 l -0.32661,0.32662 h -0.65323 l -0.32662,0.32661 h -0.32661 l -2.28631,-2.28629 h -0.97983 l -0.32661,0.32661 -0.97984,0.32661 v 0.32661 l -0.32662,0.32661 v 2.93954 l -0.32663,0.3266 h -0.65321 l -0.97984,0.65324 h -0.65324 l -0.32662,0.32662 h -0.32658 l -0.65325,-0.97986 0.32662,-0.3266 -0.32662,0.3266 -0.97984,-1.30645 h -1.30645 l -0.32663,0.32661 -0.97984,0.32662 -0.65322,0.65322 v 2.93954 l -0.32661,0.32661 h -0.65323 l -0.97985,0.65322 -1.63307,0.32661 -1.95968,-1.95968 h -0.32662 l -0.3266,-0.32661 -0.32661,0.32661 -1.63307,0.65324 v 0.32661 l -0.32662,0.32662 v 0.3266 l 0.32662,0.32661 v 1.95969 l -0.32662,0.32661 h -0.65323 l -0.32662,0.32662 h -0.97983 l -0.32662,0.32661 -0.65324,-0.65323 -0.3266,-0.97983 h -0.32662 l -0.65323,-0.65322 v -0.32662 h -0.97984 l -0.32662,0.32662 h -0.65321 l -0.97984,0.65322 v 1.95968 l 0.32661,0.32661 v 0.97985 l -0.32661,0.3266 h -0.32663 l -0.32661,-0.3266 0.32661,-0.32661 h -0.32661 l -0.32662,0.32661 h 0.32662 l 0.32661,0.3266 -0.32661,0.32662 h -0.97983 l -0.97985,-0.97983 v -0.32662 l -0.97985,-0.65323 1.63308,-1.63307 v -0.32661 l 1.63306,-1.95968 v -0.32662 l 1.30647,-2.28629 v -0.65324 l 0.32661,-0.32662 v -0.65322 l 0.3266,-0.32662 v -0.97984 l 0.32662,-0.32661 v -1.95968 l 0.32662,-0.32661 v -3.26615 l -0.32662,-0.32661 v -1.63306 l -0.32662,-0.32663 v -1.30646 l -0.3266,-0.32659 -0.32661,-1.63309 -0.32663,-0.32661 -0.65321,-1.63307 0.32661,-0.32661 h 0.3266 l 0.32663,-0.32662 h 0.65321 l 1.63308,-0.97983 h 0.65323 l 1.63307,-0.97985 h 9.14519 l 0.32662,-0.32662 0.32661,0.32662 v 0.32661 l -0.65323,0.65324 v 0.3266 l 0.97984,0.97985 h 0.32662 l 0.3266,-0.32662 h 1.95969 l 2.93952,3.26614 -0.32662,0.32661 v 0.97984 l -0.32658,0.32661 v 0.97985 l 0.32658,0.32663 h 0.32662 l 0.32662,0.3266 h 0.32662 l 0.97984,-0.65323 h 0.32662 l 0.32659,0.32663 -0.32659,-0.32663 0.65322,-0.65322 h 0.32662 l 0.32661,0.32661 1.63306,0.65324 0.65324,0.65322 -0.32663,0.3266 0.32663,-0.3266 h 0.32661 l 0.32661,0.3266 -0.32661,0.32662 0.32661,0.32662 v 1.63308 h 0.32663 l 0.32661,0.3266 h 0.65322 l 1.30646,-1.30646 0.32661,0.32662 -0.32661,-0.32662 0.32661,-0.32661 h 1.30645 z m -393.896494,-4.89921 0.326617,-0.32662 h 2.939518 l 0.326618,-0.32661 h 1.30646 l 0.326609,-0.32662 h 0.979843 l 0.326616,-0.32661 h 0.653225 l 0.326619,-0.32661 h 0.326608 l 0.979841,-0.65322 h 0.653235 l 0.653225,-0.65325 0.979843,-0.3266 0.653225,-0.65323 h 0.326617 l 0.653226,-0.65323 h 0.326617 l 1.633069,-1.63307 0.326617,0.32662 h 6.53228 l 0.979834,0.65323 h 0.653234 l 0.979843,0.65322 h 0.653225 l 0.979843,0.65323 h 0.653226 l 0.326616,0.32662 h 0.653227 l 0.326616,0.32661 h 0.326608 l 0.326618,0.3266 -0.326618,0.32663 v 0.32662 l -0.326608,0.32659 v 0.32663 l -0.653234,0.97984 v 0.65323 l -0.326609,0.32663 v 0.97983 l -0.326616,0.32661 v 1.30646 l -0.326609,0.3266 v 5.55244 l 0.326609,0.32662 v 1.30647 l 0.326616,0.3266 v 0.97985 l 0.326609,0.3266 v 0.65324 l 0.653234,0.97983 v 0.65323 l -0.326616,0.32662 0.326616,-0.32662 0.653226,0.65324 v 0.32661 l -0.326618,0.32662 h -0.326608 l -0.326616,-0.32662 H 78.08762 l -1.633077,1.30646 -0.326608,-0.32663 0.326608,0.32663 -0.326608,0.32662 -0.979843,-0.32662 -0.326617,-0.32663 0.326617,-0.32661 -0.326617,0.32661 h -0.326617 l -0.326608,-0.32661 0.326608,-0.3266 -0.326608,-0.32662 h -0.326617 l -0.326609,0.32662 -0.326617,-0.32662 v -0.32661 l 0.326617,-0.32662 v -2.61292 l -0.653234,-0.65322 h -0.326608 l -0.653234,-0.65323 h -0.979843 l -1.306452,1.30645 h -0.326616 l -0.653226,0.65324 -0.979843,-0.32662 -0.653224,-0.65322 h -0.326617 l -0.979843,-0.97985 0.326616,-0.3266 v -1.63309 l 0.326608,-0.32661 v -0.65322 l -0.653224,-0.65324 h -0.326617 l -0.979843,-0.65322 h -0.979835 l -0.653234,0.65322 h -0.326608 l -0.653234,0.65324 v 0.32661 l -0.326608,0.32661 -0.979843,-0.32661 -0.653233,-0.65322 h -0.326608 l -0.653228,-0.65324 h -0.326616 l -0.326616,-0.32661 v -0.32662 l 0.326616,-0.32661 v -1.63307 l 0.326616,-0.32661 -0.326616,-0.32662 v -0.32662 l -0.979844,-0.97982 h -0.326615 l -0.326609,-0.32663 h -0.979843 l -2.286303,1.95969 -1.959684,-1.30646 v -0.97984 l 0.326617,-0.32661 v -0.65324 l 0.326617,-0.32659 0.326609,0.32659 0.326617,-0.32659 h 0.979842 -1.633068 z m 310.283314,-11.4315 h 1.95969 l 0.3266,0.32663 -0.65322,1.30645 v 1.30645 l 0.97984,1.95968 1.63307,1.30647 1.30645,0.65322 h 0.65324 l 0.32661,0.32661 h 2.61292 l 0.32661,-0.32661 h 0.65322 l 1.30646,-0.65322 0.97984,0.65322 1.63308,0.32661 0.97982,0.65324 h 0.65324 l 1.30645,0.65321 -0.65321,0.32663 0.65321,-0.32663 0.65324,0.32663 -1.63308,3.26613 v 1.30646 l -0.32661,0.32663 v 1.95967 l -0.32661,0.32661 v 2.61291 l 0.32661,0.32663 v 2.28629 l 0.32661,0.32661 v 0.97984 l 0.65324,0.97984 v 0.65324 l 0.65321,0.97983 0.32663,1.30647 0.65322,0.65323 0.65323,1.30646 0.97984,0.97983 v 0.32661 l 3.59276,3.26614 3.59276,1.95968 -0.65324,0.32662 v 0.65323 l -0.32662,0.32662 h -2.93952 l -0.65323,-0.32662 -0.97983,-1.95969 v -0.65322 l -0.32662,-0.32662 h -1.63307 l -0.32661,-0.32662 -1.30646,0.65324 -0.32661,1.63306 -0.65324,0.97985 h -3.59275 l -0.97984,-1.63306 -0.32661,-1.30647 -0.65323,-0.32662 h -0.65323 l -0.32661,0.32662 h -1.30645 l -1.63308,2.93953 h -3.26614 l -0.65322,-0.65323 v -0.65322 l -0.32662,-0.32661 -0.32662,-1.30647 -0.65323,-0.32662 h -1.63307 l -0.65322,0.32662 -0.65322,0.65324 -0.32662,1.63306 -0.65323,0.97985 -0.32661,-0.32662 -0.32663,0.32662 h -1.63305 l -0.32663,-0.32662 h -0.65323 l -0.97983,-1.63306 -0.32661,-1.30647 h -2.93953 l -0.65323,0.97984 v 0.97984 l -0.65323,1.30647 h -1.9597 l -0.6532,-0.65323 -0.32662,-1.63308 -0.97984,-0.97984 0.65322,-0.32662 3.59275,-3.59274 2.61291,-4.57259 v -0.65324 l 0.65323,-1.30646 v -0.97984 l 0.32662,-0.32661 v -1.63307 l 0.32662,-0.32661 v -3.91937 l -0.32662,-0.32662 v -1.30644 l -0.32662,-0.32663 -0.32661,-2.2863 -0.65322,-0.97984 v -0.65324 l 0.3266,-0.32659 -0.3266,0.32659 -0.32661,-0.32659 0.32661,-0.65325 -0.32661,0.32663 -0.32663,-0.65323 1.95969,-0.97985 2.61292,-0.65321 0.97984,-0.65324 h 0.65321 l 0.32663,-0.32661 h 1.30646 l 0.65322,-0.32662 0.65322,-0.65321 v -2.61294 l -0.97983,-1.63305 z m -59.44374,0 h 1.30645 l 0.32662,0.32663 -0.32662,0.65322 v 2.61292 l 0.32662,0.65322 -0.97986,0.65322 h 0.32663 l 0.65323,-0.65322 0.97983,1.30646 h 0.32662 l 1.63306,1.30645 h 0.65324 l 0.32661,0.32661 h 2.93952 l 2.2863,-0.97983 0.32663,0.32662 h 0.65322 l 0.3266,0.3266 h 0.65324 l 0.32661,0.32661 h 0.65323 l 2.28629,0.97985 h 0.97984 l 0.32662,0.3266 -0.97983,1.95969 v 0.65323 l -0.65323,1.30645 v 0.97985 l -0.32662,0.32663 v 1.95967 l -0.32663,0.32661 v 2.93954 l 0.32663,0.32661 v 1.95968 l 0.32662,0.32661 0.3266,1.95968 2.28632,4.57261 3.59274,3.91937 h 0.32661 l 1.95968,1.63307 -0.65321,0.65323 v 0.65321 l -0.65324,0.97985 h -1.30645 l -0.32663,0.32662 h -1.30645 l -0.32661,-0.32662 h -0.65323 l -0.32661,-0.32661 v -0.65324 l -0.3266,-0.3266 -0.32663,-1.30646 -0.97985,-0.65324 h -1.63306 l -0.65323,0.32662 -0.32661,1.30647 -0.32662,0.32661 v 0.65322 l -0.65323,0.97985 -0.65322,-0.32662 h -2.93954 l -0.6532,-0.65323 v -0.65322 l -0.32663,-0.32661 -0.32662,-1.30647 -0.65323,-0.32662 h -1.95969 l -0.97984,0.97986 -0.32661,1.63306 -0.65322,0.65323 h -3.91936 l -0.32663,-0.32661 v -0.65324 l -0.32661,-0.3266 -0.3266,-1.30646 -0.97985,-0.65324 h -1.30645 l -0.65323,0.32662 -0.65324,0.65324 -0.32661,1.63306 -0.65323,0.65323 h -0.65322 l -0.32662,0.32662 h -1.63307 l -0.32661,-0.32662 h -0.65322 l -0.32663,-0.32661 0.32663,-0.32662 -0.32663,0.32662 -0.32661,-0.32662 v -0.65322 l -0.32661,-0.32661 -0.32663,-1.30647 h -0.6532 l -0.32662,-0.32662 h -1.30647 l -0.65323,0.32662 -1.63306,3.26615 -0.32662,-0.32662 h -3.26613 l -0.32662,-0.32661 0.32662,-0.65324 1.30645,-0.3266 1.30645,-0.97984 1.30646,0.3266 h -0.65323 l -0.32662,-0.3266 0.65324,-0.65324 1.30646,-0.65322 2.9395,-2.93953 v -0.32661 l 0.97986,-0.97984 0.65324,-1.63307 0.65322,-0.65324 v -0.65323 l 0.65322,-0.97983 v -0.65324 l 0.65323,-1.30645 v -1.30645 l 0.32661,-0.32662 v -6.53228 l -0.32661,-0.3266 v -0.97985 l -0.97984,-2.28631 v -0.65322 l 0.32661,-0.32663 -0.32661,0.32663 -0.97983,-1.63307 0.3266,-0.32661 2.61292,-0.65324 0.97983,-0.65321 1.63309,-0.32662 0.97982,-0.65323 h 1.63309 l 0.65321,-0.32662 0.65323,-0.97984 v -2.28631 l -0.65323,-1.30644 z m -68.91555,8.16536 0.3266,-0.32661 h 0.97984 l 0.97985,-0.65324 3.59274,-0.97983 0.97984,-0.65323 h 1.30645 l 0.65324,-0.32662 0.65323,-0.97984 -0.32662,-2.61291 -0.65323,-0.97984 0.32662,-0.65324 h 1.63308 l 0.3266,0.32663 -0.3266,0.32661 v 0.97984 l -0.32662,0.3266 0.32662,1.9597 0.3266,0.65324 2.28631,1.95968 h 0.65322 l 1.30646,0.65321 h 2.61292 l 1.95967,-0.97983 h 0.65324 l 0.32662,0.32662 2.61289,0.65321 0.97985,0.65324 1.95968,0.32661 0.32662,0.65323 -1.30646,2.28629 v 0.65325 l -0.32661,0.32659 -0.32661,-0.65322 0.32661,0.65322 v 1.30646 l -0.32661,0.32663 v 1.63306 l -0.32662,0.32661 v 3.59276 l 0.32662,0.32661 v 1.95968 l 0.32661,0.32663 v 0.97983 l 0.65323,0.97984 0.32661,1.63307 0.65323,0.65323 1.30646,2.61291 0.97983,0.97984 v 0.32661 l 2.93953,2.61291 -0.32661,0.32662 v 0.65324 l 0.32661,-0.32662 0.32663,0.32662 -0.32663,-0.32662 0.65323,-0.32662 0.65324,0.65324 2.28629,0.97984 0.32662,0.3266 v 0.65324 l -0.32662,0.32661 h -3.91937 l -0.32662,-0.32661 v -0.65324 l -0.32662,-0.3266 -0.3266,-1.30646 -0.32661,-0.32662 h -1.63309 l -0.32659,-0.32662 -1.30646,0.97986 -0.32662,1.63306 -0.65323,0.65323 h -1.30645 l -0.32662,0.32662 -0.65324,-0.32662 h -1.63305 l -0.65324,-0.97985 v -0.65321 l -0.65321,-1.30647 -1.9597,-0.32662 -0.32662,0.32662 h -0.65321 l -0.32663,1.30647 -0.32661,0.32661 v 0.65322 l -0.65323,0.65323 h -3.59274 l -0.32662,-0.32661 0.32662,-0.32662 -0.32662,0.32662 -0.32662,-0.32662 v -0.65322 l -0.97984,-1.63308 -0.65322,-0.32662 h -1.30647 l -0.32661,0.32662 h -0.65324 l -0.6532,1.30647 v 0.97983 l -0.65325,0.65323 h -0.97984 l -0.65321,0.32662 -0.32663,-0.32662 h -1.63307 l -0.97983,-1.63306 -0.32662,-1.30647 h -1.63307 l -0.65323,-0.32662 -0.97984,0.65324 -0.65322,1.30646 v 0.65322 l -0.65323,0.65323 h -3.26615 l -0.65323,-1.30645 v -0.97984 l 1.95969,-1.63307 h 0.3266 l 3.26615,-3.59275 2.2863,-4.24599 0.32661,-1.95969 0.32662,-0.3266 v -0.97985 l 0.32662,-0.32662 v -6.53228 l -0.32662,-0.3266 v -1.30648 l 0.32662,-0.6532 -0.32662,0.6532 -0.32662,-0.32661 -0.32661,-1.63307 z m -51.60503,-8.16536 h 2.28628 l 0.32663,0.32663 -0.65322,0.97983 v 1.63307 l 0.32659,0.32661 v 0.65324 l 1.30648,1.63307 h 0.32662 l 1.63306,1.30645 h 0.97985 l 0.32661,0.32661 h 2.61291 l 0.3266,-0.32661 h 0.65324 l 1.30646,-0.65322 1.95968,0.97983 h 0.65323 l 0.32661,0.32662 h 0.65322 l 0.32663,0.32662 h 0.65322 l 1.30645,0.65321 -0.32662,0.32663 h -0.65321 0.32662 l 0.65321,0.65321 v 0.32663 l -0.32662,0.32661 v 0.65323 l -0.65321,1.30645 v 0.97985 l -0.32662,0.32661 v 1.30645 l -0.32661,0.32662 v 4.5726 l 0.32661,0.32661 v 1.63307 l 0.32662,0.32663 v 0.97983 l 0.97983,1.95968 v 0.65323 l -0.32662,0.32661 0.32662,-0.32661 0.32662,0.32661 v 0.32662 l 0.65323,0.65323 0.97984,1.95968 3.59276,3.59276 -1.30645,0.97984 -1.30646,2.61291 h -0.97985 l -0.32661,0.32662 -0.65323,-0.32662 h -1.63306 l -0.65324,-0.65323 -0.32661,-1.63306 -0.65324,-0.65324 h -0.97983 l -0.32661,-0.32662 -0.32662,0.32662 -0.32663,-0.32662 -0.97984,0.65324 -0.3266,0.65322 v 0.65324 l -0.65322,0.97984 -0.32662,-0.32662 0.32662,0.32662 -0.32662,0.32661 h -2.61291 l -0.65324,0.32662 -0.97983,-0.97985 -0.32661,-1.63306 -0.97985,-0.97986 h -1.63306 l -0.65325,0.32662 -0.65322,0.97984 v 0.65324 l -0.32663,0.65322 -0.6532,0.65323 h -3.59277 l -0.65322,-0.65323 v -0.65322 l -0.32662,-0.32661 v -0.65323 l -0.32661,-0.65324 -0.65323,-0.32662 h -1.63306 l -0.97985,0.65324 -0.32662,0.65322 v 0.65324 l -0.32661,0.3266 v 0.65324 l -0.32661,0.32661 h -3.26613 l -0.32662,0.32662 -0.32662,-0.32662 0.32662,-0.65323 -0.32662,0.32662 -0.32661,-0.32662 -0.65324,-1.30646 v -0.65322 l -1.30644,-0.65324 0.65323,-0.3266 3.26613,-3.26614 v -0.32662 l 1.30646,-1.63306 1.30645,-2.61291 v -0.65324 l 0.65323,-1.30646 v -0.97984 l 0.32662,-0.32661 v -1.95968 l 0.32662,-0.32661 v -3.26615 l -0.32662,-0.32661 v -1.63306 l -0.32662,-0.32663 v -1.30646 l -0.97984,-1.95968 v -0.65324 l -0.65323,-0.97984 1.30645,-0.97983 1.63309,-0.32662 0.97983,-0.65321 1.63307,-0.32662 0.97985,-0.65323 h 0.97984 l 1.63306,-0.97983 v -1.63309 l -0.32662,-0.3266 v -0.97985 l -0.97984,-1.30645 z m -59.44375,0 h 1.63307 l 0.32662,0.32663 -0.65324,1.30645 v 1.30645 l 0.32662,0.32661 v 0.65324 l 0.65323,0.65324 v 0.32659 l 1.95968,1.63309 h 0.65322 l 0.97985,0.65321 h 2.93952 l 1.95969,-0.97983 h 0.65322 l 0.32662,0.32662 h 0.65322 l 0.32663,0.3266 h 0.65322 l 0.32662,0.32661 h 0.65322 l 0.32662,0.32662 h 0.65323 l 2.28629,0.97983 -0.32662,0.65325 -0.3266,-0.32662 h -0.65323 0.65323 l 0.3266,0.65321 -0.97983,1.63308 -0.32662,-0.32661 0.32662,0.32661 v 0.97984 l -0.32662,0.32661 v 0.97985 l -0.32661,0.32663 v 1.63306 l -0.32661,0.32661 v 3.26615 l 0.32661,0.32661 v 1.95968 l 0.32661,0.32661 v 0.97984 l 0.32662,0.32662 0.32663,1.63308 0.6532,0.97983 -0.3266,0.65323 0.3266,-0.32662 0.32662,0.32662 0.65323,1.63306 0.97984,0.97985 v 0.32662 l 3.26614,3.26614 h 0.32662 l 0.65322,0.65322 -0.32661,0.32662 0.32661,-0.32662 0.97985,0.65324 -0.32662,1.30644 -0.3266,0.32662 v 0.65323 l -0.32663,0.32662 -0.32661,-0.32662 -0.32661,0.32662 h -2.61291 l -0.97985,-0.97985 v -0.65322 l -0.3266,-0.32661 -0.32663,-1.30647 h -0.65322 l -0.32662,-0.32662 h -1.30645 l -0.65323,0.32662 -0.97984,1.95968 v 0.65324 l -0.65324,0.65323 -0.3266,-0.32662 h -3.26616 l -1.30644,-2.93953 h -0.97985 l -0.32661,-0.32662 -0.3266,0.32662 -0.65324,-0.32662 -0.65324,0.32662 -0.97984,1.63308 v 0.65322 l -0.65322,0.65323 h -3.59275 l -0.65322,-0.65323 v -0.65322 l -0.32662,-0.32661 -0.32662,-1.30647 h -0.65323 l -0.32661,-0.32662 h -1.63307 l -0.65322,0.32662 -0.32662,1.30647 -0.32662,0.32661 v 0.65322 l -0.65323,0.65323 h -3.59275 l -0.32661,-0.32661 0.65323,-0.32662 h -0.65323 l -0.32661,-0.32662 v -0.65321 l -0.65324,-1.30647 -0.65323,-0.32662 h -1.63307 l -0.65322,0.32662 -0.97984,1.95968 v 0.65324 l -0.65323,0.65323 h -3.26614 l -0.65322,-0.97985 0.32661,-0.65322 2.28629,-0.97984 0.65323,-0.65324 0.65323,0.32662 -0.32661,0.32662 0.32661,-0.32662 -0.32661,-0.32662 0.65322,-0.65322 0.65323,0.3266 -0.32661,-0.3266 4.24598,-4.57261 0.65323,-1.63306 0.65323,-0.65323 v -0.65323 l 0.97984,-1.95968 0.32661,-2.61292 0.32661,-0.32661 v -5.22583 l -0.32661,-0.3266 -0.32661,-2.6129 -0.65323,-0.97986 v -0.65323 l -0.97984,-1.95968 0.32661,-0.32661 2.61291,-0.65324 0.97984,-0.65321 1.63308,-0.32662 0.97984,-0.65323 h 1.30645 l 0.32662,-0.32662 h 0.65323 l 0.65322,-0.97984 v -0.65322 l -0.3266,-0.32663 v -1.63306 l -0.65324,-0.97984 z m 356.98911,-0.65322 h 0.65323 l 1.30646,1.30646 v 4.24597 l -0.32661,0.32662 v 0.32662 l -0.32663,0.32661 h -0.32661 l -0.32661,-0.32661 0.32661,-0.32662 -0.32661,0.32662 h -0.65323 l -0.32662,-0.32662 0.32662,0.32662 -0.32662,0.32661 h -0.3266 l -0.32662,-0.32661 v -0.32662 l -0.32661,-0.32662 v -2.28628 l -0.32662,-0.32663 v -1.30645 z m -429.170813,0 h 3.266144 l 0.326618,0.32661 v 0.65324 l 0.326608,0.32661 v 0.32661 l 0.326616,0.32661 v 0.32662 l 0.326608,0.3266 v 0.32662 l 0.326618,0.32663 v 0.65321 l 0.326617,0.32663 v 0.65322 l 0.326608,0.32663 v 0.32659 l 0.326617,0.32662 v 0.65323 l -0.653225,0.65324 h -0.653235 l -0.326608,0.3266 h -5.225821 l -0.326617,-0.3266 h -0.979843 l -0.326617,-0.32662 0.326617,-0.32662 h 0.653226 l -0.326608,-0.32661 h -0.326618 v 0.32661 l -0.326617,0.32662 H 47.712517 L 47.3859,196.48854 v -0.32661 l 0.326617,-0.32662 v -0.65321 l 0.326608,-0.32663 v -0.32661 l 0.326617,-0.32661 v -0.32663 l 0.326618,-0.32661 v -0.3266 l 0.326608,-0.32663 v -0.32662 l 0.326617,-0.3266 v -0.32662 l 0.653225,-0.65322 v -0.65324 z m 420.678863,-0.32661 0.3266,0.32661 v 0.65322 l -0.3266,0.32663 v 0.65322 l -0.32662,0.32661 v 0.65322 l -0.32662,0.32662 h -0.32662 l -0.32661,-0.32662 v -0.3266 l 0.32661,-0.32662 v -0.65322 l 0.32662,-0.32661 v -0.65324 z M 60.450462,185.05706 h 1.633068 l 0.326617,0.3266 h 0.979842 l 0.326609,0.32662 h 1.959686 l 0.326616,0.32661 v 0.32661 l 0.653227,0.65324 v 0.97983 l -0.326619,0.32662 v 0.32661 l -0.326608,0.32662 v 0.32662 l -0.326616,0.32661 v 0.32661 l -0.326617,0.32661 -0.326609,-0.32661 0.326609,0.32661 v 0.32661 l -0.653226,0.65324 v 0.32661 l -1.633068,1.63308 h -0.326618 l -0.326608,-0.32663 0.326608,0.32663 -0.653225,0.65321 -0.326617,-0.32661 h -0.326608 l -0.653235,-0.65323 v -0.32662 l -0.653225,-0.65322 v -0.32661 l -0.326616,-0.32661 v -0.32661 l -0.326608,-0.32663 v -0.32661 l -0.326619,-0.32661 v -0.32661 l -0.326609,-0.32661 v -0.32662 l -0.326616,-0.32662 v -0.97983 l 1.306452,-1.30647 v -0.32661 l 0.326616,-0.32661 v -0.32662 z m -21.556528,0.3266 h 2.286301 l 0.326609,-0.3266 h 3.266144 l 0.326609,0.3266 v 0.32662 l 0.653235,0.65322 v 0.32662 l 0.653225,0.65323 v 0.32662 l -0.326617,0.3266 v 0.65323 l -0.653225,0.65324 v 0.32661 l -0.326618,0.32661 v 0.32661 l -0.653225,0.65324 v 0.32661 l -0.326609,0.32661 v 0.32661 l -0.326617,0.32662 v 0.3266 l -0.653226,0.65325 -0.653234,-0.65325 h -0.653225 l 0.326617,0.32662 -0.326617,0.32663 h -0.326617 l -0.979843,-0.97985 v -0.32662 l -0.979834,-0.97983 v -0.32663 l -0.653233,-0.65322 v -0.32661 l -0.326609,-0.32661 v -0.32662 l -0.326618,-0.32662 v -0.32661 l -0.326617,-0.32662 v -0.65322 l -0.326609,-0.32661 v -0.65324 l 0.326609,-0.32661 0.326617,0.32661 0.326618,-0.32661 h 0.979842 -0.653233 l -0.326609,-0.32661 z m 351.110066,-3.59274 0.65322,-0.65324 h 2.61292 l 0.32662,0.32661 v 0.65324 l 0.3266,0.3266 h 1.95968 v -0.3266 l 0.32663,-0.32661 h 0.65323 l 0.32661,0.32661 h 0.97985 v -0.32661 h -1.95969 l -0.32663,-0.32663 0.32663,-0.32661 h 2.28629 l 0.32662,0.32661 v 0.97984 h 2.61291 v -0.97984 l 0.32662,-0.32661 h 2.93952 l 0.97985,0.97985 -0.32662,0.3266 v 2.61293 l 0.32662,0.3266 v 4.5726 l -0.32662,0.32661 v 0.32661 l -0.32663,0.32663 -0.3266,-0.32663 h -0.65323 l -0.32661,-0.32661 h -0.32661 l -0.32663,-0.32661 h -0.65322 l -0.32662,-0.32661 h -0.65322 l -0.32663,-0.32661 h -1.30645 l -0.3266,-0.32662 h -5.87905 l -0.32662,0.32662 h -0.97985 l -0.3266,0.32661 h -0.65323 l -0.32661,0.32661 h -0.65324 l -0.32661,0.32661 -0.32662,-0.32661 v -4.8992 l 0.32662,-0.32663 z m -59.77037,0 0.65323,-0.65324 h 2.61292 l 0.32662,0.32661 v 0.65324 l 0.32661,0.3266 h 1.95968 v -0.3266 l 0.32661,-0.32661 v -0.32663 l 0.32662,-0.32661 h 1.95968 l 0.32662,0.32661 v 0.97984 h 2.2863 l 0.32662,-0.3266 v -0.65324 l 0.32659,-0.32661 h 2.93954 l 0.32661,0.32661 -0.32661,0.32663 h -0.97984 l 0.32661,0.32661 h 0.3266 l 0.65324,-0.65324 0.65323,0.65324 v 8.49195 l -0.32662,0.32663 h -0.32661 l -0.32661,-0.32663 h -0.65323 l -0.32661,-0.32661 h -0.32662 l -0.32662,-0.32661 h -0.65322 l -0.32662,-0.32661 h -0.65321 l -0.32662,-0.32661 h -0.97985 l -0.32662,-0.32662 h -5.55244 l -0.3266,0.32662 h -1.30647 l -0.3266,0.32661 h -0.97984 l -0.32662,0.32661 h -0.65323 l -0.32662,-0.32661 v -0.65323 l -0.32661,-0.32662 v -0.32661 l 0.32661,-0.32662 z m -59.77036,0 0.65324,-0.65324 h 2.6129 l 0.32662,0.32661 v 0.97984 h 2.2863 l 0.32661,-0.3266 v -0.65324 l 0.32663,-0.32661 h 1.95966 l 0.32662,0.32661 -0.32662,0.32663 h -1.30645 l 0.32661,0.32661 h 0.32662 l 0.32662,-0.32661 h 0.3266 l 0.32662,0.32661 v 0.3266 h 2.2863 l 0.3266,-0.3266 v -0.65324 l 0.32663,-0.32661 0.32662,0.32661 h 0.3266 l 0.32662,-0.32661 h 1.95969 l 0.65322,0.65324 v 8.81856 l -0.32661,0.32663 -0.32661,-0.32663 h -0.65323 l -0.32661,-0.32661 h -0.32662 l -0.32661,-0.32661 h -0.65324 l -0.3266,-0.32661 h -0.97985 l -0.32661,-0.32661 h -0.97984 l -0.32662,-0.32662 h -5.87905 l -0.32662,0.32662 h -0.97985 l -0.3266,0.32661 h -0.97984 l -0.32661,0.32661 h -0.65324 l -0.32662,-0.32661 v -2.61291 l 0.32662,-0.32662 z m -59.77036,0 0.32661,-0.32663 h 0.32662 l 0.32662,0.32663 v 0.32661 h 1.63306 v -0.32661 h -1.63306 l -0.32662,-0.32663 0.32662,-0.32661 h 2.28629 l 0.32661,0.32661 v 0.97984 h 2.28631 v -0.65321 l 0.65322,-0.65324 h 1.95969 l 0.32661,0.32661 v 0.97984 h 2.61291 v -0.65321 l 0.32661,-0.32663 h 0.65323 l 0.32661,-0.32661 h 1.95968 l 0.65324,0.65324 v 8.81856 l -0.32661,0.32663 -0.32663,-0.32663 h -0.3266 l -0.32661,-0.32661 h -0.65324 l -0.32661,-0.32661 h -0.65323 l -0.32661,-0.32661 h -0.65323 l -0.32661,-0.32661 h -1.30647 l -0.32661,-0.32662 h -5.87905 l -0.32661,0.32662 h -0.97984 l -0.32662,0.32661 h -0.97983 l -0.32662,-0.32661 0.32662,0.32661 -0.32662,0.32661 h -0.65323 l -0.32661,-0.32661 0.32661,-0.32661 z m -60.09698,0 0.32662,-0.32663 h 0.32661 l 0.3266,0.32663 -0.3266,0.32661 0.3266,-0.32661 h 0.97985 l 0.32662,0.32661 h 0.65322 v -0.32661 h -1.95969 l -0.3266,-0.32663 0.3266,-0.32661 h 2.28632 l 0.32661,0.32661 v 0.65324 l 0.3266,0.3266 h 1.9597 l 0.3266,-0.3266 v -0.65324 l 0.32661,-0.32661 h 1.9597 l 0.3266,0.32661 v 0.97984 h 2.28631 v -0.65321 l 0.65322,-0.65324 h 2.61291 l 0.32662,0.32661 -0.32662,0.32663 h -0.32662 v 0.32661 h 0.65324 l -0.32662,-0.32661 0.32662,-0.32663 h 0.32661 l 0.32662,0.32663 v 8.81856 l -0.32662,0.32663 -0.32661,-0.32663 h -0.32662 l -0.32662,-0.32661 0.32662,-0.32661 h 0.32662 v -0.32661 h -0.32662 v 0.32661 l -0.32662,0.32661 h -0.65321 l -0.32662,-0.32661 h -0.65324 l -0.32661,-0.32661 h -0.65323 l -0.3266,-0.32661 h -1.63307 l -0.32662,-0.32662 h -4.89921 l -0.32662,0.32662 h -1.63306 l -0.32662,0.32661 h -0.65323 l -0.32662,0.32661 h -0.65321 l -0.32662,0.32661 -0.32662,-0.32661 v -0.97984 l 0.32662,-0.32662 z m -60.750208,0 0.32661,-0.32663 h 0.326616 l 0.326617,-0.32661 h 2.286294 l 0.326618,0.32661 v 0.65324 l 0.326608,0.3266 h 1.959685 l 0.326617,-0.3266 v -0.65324 l 0.326616,-0.32661 h 1.959678 l 0.326617,0.32661 v 0.32663 l 0.326617,0.32661 v 0.3266 h 2.286285 v -0.65321 l 0.65324,-0.65324 h 2.93953 l 0.97983,0.97985 v 8.49195 l -0.32661,0.32663 -0.32661,-0.32663 h -0.32661 l -0.32661,-0.32661 h -0.65324 l -0.32661,-0.32661 h -0.65323 l -0.32661,-0.32661 h -0.97985 l -0.32662,-0.32661 h -0.65322 l -0.32662,-0.32662 h -6.205658 l -0.326617,0.32662 h -0.979834 l -0.326618,0.32661 h -0.979842 l -0.326617,0.32661 h -0.653226 l -0.326616,0.32661 -0.32661,-0.32661 z m -25.475898,-9.14519 h 0.653234 l 0.326609,0.3266 v 0.3266 l -0.326609,0.32663 -0.326617,-0.32663 -0.326617,0.32663 h 0.653234 l 0.326609,-0.32663 0.653233,0.65325 v 0.32661 l 0.326608,0.32662 v 0.32662 l 0.326619,0.32659 v 0.65324 l -0.326619,0.32661 0.326619,-0.32661 0.326617,0.32661 v 0.32663 l 0.326608,0.3266 v 0.65323 l 0.326616,0.32661 v 1.30646 l 0.326618,0.32661 v 0.32662 l -0.653234,0.65323 h -3.592754 l -0.326609,-0.32661 h -1.633076 l -0.326608,-0.32662 H 61.103687 L 60.77707,179.50461 V 179.178 l -0.326608,-0.32662 v -0.32661 l -0.326617,-0.32662 v -1.30645 z m -23.842823,-0.32663 0.326617,0.32663 h 0.326617 l 2.612911,2.61289 v 0.32662 l 1.306451,1.30646 v 0.32661 l 0.326618,0.32662 -0.326618,0.32661 v 0.32661 l -0.326609,0.32662 v 0.32661 l -0.326616,0.32662 v 0.32661 l -0.326609,0.32662 H 43.13992 l -0.326616,0.32662 h -1.633069 l -0.326617,0.32661 h -3.266137 l -0.326616,-0.32661 0.326616,-0.32662 v -0.32662 0.32662 l -0.326616,0.32662 -0.326618,-0.32662 v -1.63308 l 0.326618,-0.32661 v -0.65323 l 0.326616,-0.32661 v -0.65323 l 0.326609,-0.32661 v -0.32662 l 0.326617,-0.32662 0.326618,0.32662 -0.326618,-0.32662 v -0.32659 l 0.326618,-0.32662 v -0.32662 l 0.326609,-0.32661 v -0.32662 l 1.306459,-1.30646 z m 17.31055,-5.55243 0.653226,0.65324 -0.326616,0.32659 0.326616,-0.32659 h 0.653225 l 0.326619,0.32659 h 0.326608 l 0.326616,0.32661 h 0.326617 l 1.306451,1.30648 v 0.3266 l -0.326608,0.32662 -0.326618,-0.32662 0.326618,0.32662 -1.633076,1.63307 h -0.326608 v 0.32661 l -0.653228,0.65324 h -0.326616 l -0.326616,-0.32663 0.326616,0.32663 -0.653226,0.6532 v 0.32663 l -0.653233,0.65323 -0.326609,-0.32661 v -5.22583 l 0.326609,-0.32661 v -0.97983 z m -6.205672,-0.97985 0.653234,0.65324 v 2.28629 l -0.326617,0.32662 v 1.95968 l -0.326617,0.3266 v 1.63308 l -0.326609,0.3266 h -0.653233 l -0.32661,0.32663 h -0.653225 l -0.326617,0.32662 h -0.326617 l -0.326608,-0.32662 v -0.32663 l -1.633076,-1.63305 v -0.32663 l -1.306452,-1.30644 v -0.32662 l -0.979844,-0.97984 v -0.65324 l 0.653227,-0.6532 h 0.326617 l 0.326608,-0.32663 h 0.653234 l 0.32661,-0.32661 H 47.3859 l 0.326617,-0.32661 h 0.653225 l 0.326618,-0.32663 h 0.979842 l 0.326608,-0.32661 z m 394.876351,-3.91936 0.32662,-0.32661 h 4.57259 l 0.32661,0.32661 -0.32661,0.32661 h -4.57259 z m -8.81858,0.32661 v -0.32661 l 0.32661,-0.32661 h 3.59276 l 0.32661,0.32661 -0.32661,0.32661 h -0.32661 v 0.32662 l -0.32663,0.3266 -0.65322,-0.65322 h -1.95969 l -0.32661,0.32662 z"
     fill="#000000"
     fill-rule="evenodd"
     id="path1"
     style="stroke-width:0.326614" />
  <path
     d="m 162.02741,44.613046 -2.61291,0.653219 -4.24598,2.286301 -6.20566,6.205673 -0.32661,-0.326621 -0.65324,0.653219 h -26.12912 l -0.65322,0.326621 -1.30646,4.899212 H 51.631879 l -0.653227,-0.653231 h -3.919368 l -0.653227,0.97984 -0.326617,2.612911 0.326617,15.350866 0.653227,0.65322 h 3.919368 l 0.653227,-0.65322 h 66.955871 l 1.63308,7.838732 2.61291,7.838741 0.65322,0.653219 h 29.72188 l 4.57259,3.592751 4.24598,1.306457 z"
     fill="#000000"
     fill-rule="evenodd"
     id="path2"
     style="stroke-width:0.326614" />
  <path
     d="m 28.115674,160.88761 4.245978,2.93954 9.798426,-8.81858 H 461.85909 l 10.45164,9.14518 4.24599,1.30646 3.26613,-2.93952 -9.14519,-8.16535 4.57259,-2.61292 0.65323,-2.93953 -6.85889,-14.0444 -8.16535,-5.22582 -18.617,-0.32662 -5.55243,-2.2863 -15.67747,1.95969 -47.68566,-1.30645 -1.95967,-8.49196 -10.45166,0.65322 -3.91935,2.93954 1.63305,2.93951 -13.06456,-0.97984 -4.57259,-4.24598 h -31.35495 l -4.8992,4.24598 -28.41542,0.97984 v -3.91937 l 8.16535,-0.32661 0.3266,-11.43148 37.56062,-0.65324 v -4.57259 l 3.26614,-2.28629 -0.65323,-36.907388 2.61291,-4.899213 4.89922,-1.306449 1.95967,-2.939521 -0.65321,-3.919372 -5.87907,-2.61291 -1.63305,-4.899212 -3.91938,-0.653231 V 33.834772 l -44.41951,-0.326609 -0.97982,-4.899211 -9.79844,-2.939529 -23.84282,1.30646 -1.30647,6.53228 -30.37508,-1.633076 -5.87906,1.959685 -2.61291,-9.145192 -3.26615,-1.633068 -4.8992,2.286303 -2.61292,9.145191 -20.25007,-0.653234 -9.47181,3.592749 0.32661,83.939799 8.81859,0.32661 v 3.91937 h -48.66548 l -2.28631,-3.91937 h -12.73794 l -2.61292,3.91937 h -6.205667 l -6.85889,6.20568 -8.818582,12.0847 -1.959677,-0.65322 1.633068,-3.26614 -1.30646,-6.8589 -8.165349,-2.6129 -0.979843,10.45164 3.91937,2.93952 -3.592753,4.24599 -29.068644,0.65322 -7.83874,3.26616 z M 327.29411,53.431618 l 0.32661,-0.326621 h 0.32661 l 0.32663,-0.32661 h 1.95967 l 0.32662,0.32661 h 0.32661 l 0.97985,0.97984 v 1.959692 l -0.32661,0.32662 -0.32662,-0.32662 -0.32662,0.32662 0.32662,-0.32662 0.32662,0.32662 v 0.326599 l -0.32662,0.32662 h -0.32662 l -0.32661,0.326622 h -0.32662 l -0.32661,0.326609 h -1.63306 l -0.32663,-0.326609 0.32663,-0.326622 h 1.30644 -1.30644 l -0.32663,-0.32662 -0.32661,0.32662 -0.32661,-0.32662 z"
     fill="#000000"
     fill-rule="evenodd"
     id="path3"
     style="stroke-width:0.326614" />
</svg>
