<svg xmlns="http://www.w3.org/2000/svg" width="1448" height="1086" viewBox="0 0 1448 1086">
<rect width="100%" height="100%" fill="white"/>
<path d="M 55,524 L 70,657 L 75,664 L 86,665 L 135,645 L 137,656 L 150,660 L 165,650 L 157,636 L 325,569 L 387,554 L 411,560 L 417,583 L 428,596 L 471,600 L 489,590 L 498,559 L 512,549 L 535,557 L 538,549 L 552,543 L 687,543 L 692,557 L 703,558 L 711,543 L 725,543 L 730,620 L 746,624 L 752,581 L 762,573 L 762,554 L 769,549 L 1078,543 L 1088,532 L 1105,532 L 1112,538 L 1129,538 L 1136,532 L 1212,532 L 1213,537 L 1285,532 L 1286,509 L 1349,507 L 1354,512 L 1390,514 L 1392,486 L 1389,481 L 1352,483 L 1349,488 L 1294,485 L 1287,458 L 1273,463 L 1272,418 L 1255,419 L 1256,463 L 1251,470 L 1143,470 L 1135,466 L 846,467 L 848,427 L 844,423 L 782,413 L 707,413 L 687,403 L 672,413 L 590,414 L 534,423 L 534,468 L 512,470 L 511,455 L 503,448 L 439,448 L 423,440 L 410,444 L 407,427 L 412,417 L 400,410 L 394,416 L 399,427 L 396,471 L 374,473 L 359,497 L 306,511 L 292,511 L 262,498 L 65,508 Z M 142,652 L 142,650 L 143,649 L 143,648 L 144,647 L 144,646 L 143,645 L 143,644 L 144,643 L 147,646 L 149,646 L 150,645 L 151,645 L 152,644 L 153,644 L 154,643 L 157,643 L 159,645 L 159,649 L 157,651 L 156,651 L 155,652 L 153,652 L 152,653 L 150,653 L 149,654 L 147,654 L 146,653 L 146,652 L 144,652 L 143,653 Z M 485,563 L 485,565 L 486,566 L 486,579 L 485,580 L 485,581 L 484,582 L 484,583 L 482,585 L 482,586 L 479,589 L 478,589 L 477,590 L 476,590 L 475,591 L 473,591 L 472,592 L 439,592 L 438,591 L 435,591 L 434,590 L 433,590 L 431,588 L 430,588 L 427,585 L 427,584 L 426,583 L 426,582 L 425,581 L 425,580 L 424,579 L 424,575 L 423,574 L 423,569 L 424,568 L 424,565 L 425,564 L 425,562 L 431,556 L 433,556 L 434,555 L 440,555 L 441,556 L 441,559 L 440,560 L 440,572 L 441,573 L 441,576 L 442,577 L 442,578 L 443,579 L 443,580 L 449,586 L 450,586 L 451,587 L 453,587 L 455,585 L 455,584 L 450,579 L 450,578 L 449,577 L 449,566 L 450,565 L 450,564 L 451,563 L 451,562 L 454,559 L 455,559 L 457,557 L 458,557 L 459,556 L 460,556 L 462,554 L 463,555 L 464,554 L 473,554 L 474,555 L 476,555 L 477,556 L 478,556 L 479,557 L 480,557 L 482,559 L 482,560 Z M 1070,523 L 1071,522 L 1072,522 L 1073,523 L 1073,524 L 1074,524 L 1075,525 L 1075,527 L 1074,528 L 1070,528 L 1069,527 L 1069,526 L 1070,525 L 1071,525 L 1070,524 Z M 1080,511 L 1081,510 L 1096,510 L 1097,511 L 1097,512 L 1105,512 L 1106,513 L 1106,514 L 1105,515 L 1085,515 L 1084,514 L 1085,513 L 1094,513 L 1095,512 L 1085,512 L 1085,513 L 1084,514 L 1082,512 L 1081,512 Z M 1233,514 L 1233,513 L 1235,511 L 1236,511 L 1238,509 L 1263,509 L 1264,510 L 1262,512 L 1260,512 L 1260,513 L 1261,513 L 1262,512 L 1263,513 L 1263,514 L 1262,515 L 1234,515 Z M 1135,512 L 1136,511 L 1137,511 L 1137,510 L 1138,509 L 1140,509 L 1141,508 L 1142,508 L 1143,507 L 1202,507 L 1203,508 L 1208,508 L 1209,509 L 1208,510 L 1206,510 L 1207,511 L 1208,510 L 1209,510 L 1211,512 L 1211,513 L 1212,514 L 1211,515 L 1136,515 L 1135,514 Z M 1061,509 L 1060,510 L 812,510 L 811,509 L 812,508 L 988,508 L 989,507 L 1020,507 L 1021,508 L 1060,508 Z M 1170,484 L 1171,483 L 1192,483 L 1193,484 L 1192,485 L 1171,485 Z M 814,483 L 815,482 L 851,482 L 852,483 L 850,485 L 816,485 Z M 1211,479 L 1212,480 L 1212,495 L 1211,496 L 1210,495 L 1210,480 Z M 1137,478 L 1138,479 L 1138,494 L 1137,495 L 1136,494 L 1136,479 Z M 1041,483 L 1042,482 L 1042,481 L 1043,480 L 1044,480 L 1045,479 L 1053,479 L 1054,478 L 1063,478 L 1064,479 L 1070,479 L 1071,478 L 1075,478 L 1076,479 L 1078,479 L 1081,482 L 1081,485 L 1078,488 L 1076,488 L 1075,489 L 1048,489 L 1047,488 L 1045,488 L 1041,484 Z M 985,481 L 987,479 L 989,479 L 990,478 L 1008,478 L 1009,479 L 1021,479 L 1023,481 L 1023,482 L 1024,483 L 1024,484 L 1022,486 L 1021,485 L 1022,486 L 1020,488 L 1015,488 L 1014,489 L 1013,488 L 988,488 L 985,485 Z M 927,482 L 930,479 L 933,479 L 934,478 L 955,478 L 956,479 L 957,478 L 960,478 L 961,479 L 964,479 L 966,481 L 966,485 L 963,488 L 930,488 L 927,485 Z M 870,481 L 871,480 L 872,480 L 874,478 L 904,478 L 905,479 L 906,479 L 909,482 L 909,485 L 907,487 L 906,487 L 905,488 L 874,488 L 873,487 L 872,487 L 870,485 Z M 749,455 L 750,456 L 750,468 L 749,469 L 748,468 L 748,456 Z M 780,443 L 781,444 L 781,470 L 780,471 L 779,470 L 779,444 Z M 644,443 L 645,442 L 662,442 L 663,443 L 662,444 L 645,444 Z M 556,442 L 557,443 L 557,453 L 556,454 L 555,453 L 555,443 Z M 747,442 L 748,441 L 758,441 L 759,442 L 758,443 L 750,443 L 750,445 L 749,446 L 748,445 L 748,443 Z M 619,442 L 620,441 L 630,441 L 631,442 L 629,444 L 628,443 L 620,443 Z M 805,437 L 806,438 L 806,465 L 805,466 L 804,465 L 804,438 Z M 837,435 L 838,436 L 838,455 L 837,456 L 836,455 L 836,436 Z" fill="black" fill-rule="evenodd"/>
</svg>