<?xml version="1.0" encoding="UTF-8" standalone="no"?>
<svg
   width="1200"
   height="250"
   viewBox="0 0 1200 250"
   version="1.1"
   id="svg1"
   sodipodi:docname="lanchester_black.svg"
   inkscape:version="1.4.2 (f4327f4, 2025-05-13)"
   xmlns:inkscape="http://www.inkscape.org/namespaces/inkscape"
   xmlns:sodipodi="http://sodipodi.sourceforge.net/DTD/sodipodi-0.dtd"
   xmlns="http://www.w3.org/2000/svg"
   xmlns:svg="http://www.w3.org/2000/svg">
  <defs
     id="defs1" />
  <sodipodi:namedview
     id="namedview1"
     pagecolor="#ffffff"
     bordercolor="#000000"
     borderopacity="0.25"
     inkscape:showpageshadow="2"
     inkscape:pageopacity="0.0"
     inkscape:pagecheckerboard="0"
     inkscape:deskcolor="#d1d1d1"
     inkscape:zoom="1.0819521"
     inkscape:cx="723.69191"
     inkscape:cy="321.17872"
     inkscape:window-width="2560"
     inkscape:window-height="1377"
     inkscape:window-x="-8"
     inkscape:window-y="-8"
     inkscape:window-maximized="1"
     inkscape:current-layer="svg1" />
  <path
     d="m 44.833191,119.09586 12.550417,111.28037 4.183472,5.85685 9.203641,0.83671 40.998029,-16.73388 1.67338,9.20363 10.87704,3.34679 12.55042,-8.36695 -6.69356,-11.71372 140.56468,-56.05855 51.87505,-12.55041 20.08068,5.02018 5.02016,19.24397 9.20364,10.87701 35.97786,3.34678 15.0605,-8.36694 7.53026,-25.93753 11.71372,-8.36694 19.24397,6.69355 2.51009,-6.69355 11.71373,-5.02017 h 112.95375 l 4.18347,11.71372 9.20365,0.83671 6.69354,-12.55043 h 11.71373 l 4.18348,64.42548 13.38711,3.34677 5.02016,-35.97785 8.36695,-6.69355 V 144.1967 l 5.85686,-4.18347 258.5386,-5.02017 8.36695,-9.20365 h 14.22379 l 5.85687,5.02018 h 14.22381 l 5.85686,-5.02018 h 63.58875 l 0.8367,4.18348 60.2421,-4.18348 0.8367,-19.24398 52.7117,-1.67338 4.1835,4.1835 30.121,1.67336 1.6734,-23.427442 -2.5101,-4.183469 -30.9577,1.673382 -2.5101,4.183486 -46.0181,-2.510087 -5.857,-22.590756 -11.7136,4.183465 -0.8368,-37.651249 -14.2237,0.836699 0.8366,36.81455 -4.1835,5.856864 h -90.36298 l -6.69356,-3.346767 -241.80471,0.836685 1.6734,-33.467783 -3.34679,-3.346766 -51.87507,-8.366947 h -62.75207 c -9.76285,0.220776 -19.52194,0.126614 -29.28432,0 l -68.60895,0.836683 -46.8549,7.530264 v 37.651249 l -18.40727,1.673382 -0.83671,-12.550412 -6.69354,-5.856864 h -53.54845 l -13.3871,-6.693561 -10.87704,3.346781 -2.51008,-14.223809 4.18347,-8.366947 -10.04033,-5.856849 -5.02018,5.020164 4.18349,9.203632 -2.5101,36.814565 -18.40727,1.673382 -12.55043,20.080677 -44.34478,11.713718 H 243.12978 L 218.02895,97.341815 53.200137,105.70876 Z m 72.792429,107.0969 v -1.67338 l 0.83668,-0.83669 v -0.83671 l 0.83671,-0.83669 v -0.8367 l -0.83671,-0.83668 v -0.83671 l 0.83671,-0.83668 2.51008,2.51007 h 1.67339 l 0.83669,-0.83668 h 0.8367 l 0.83667,-0.83671 h 0.83671 l 0.83669,-0.83668 h 2.51009 l 1.67339,1.67339 v 3.34678 l -1.67339,1.67337 h -0.8367 l -0.83669,0.8367 h -1.67339 l -0.83671,0.8367 h -1.67337 l -0.83669,0.83668 h -1.67339 l -0.8367,-0.83668 v -0.8367 h -1.67338 l -0.83671,0.8367 z m 286.98621,-74.46581 v 1.67338 l 0.83671,0.8367 v 10.87703 l -0.83671,0.8367 v 0.8367 l -0.83669,0.83669 v 0.8367 l -1.67339,1.67337 v 0.8367 l -2.5101,2.51009 h -0.83669 l -0.83667,0.83669 h -0.83671 l -0.83669,0.83671 h -1.67339 l -0.83671,0.83667 h -27.61091 l -0.83669,-0.83667 h -2.5101 l -0.83667,-0.83671 h -0.83671 l -1.67338,-1.6734 h -0.83669 l -2.51009,-2.51008 v -0.83668 l -0.8367,-0.83669 v -0.8367 l -0.83671,-0.83669 v -0.8367 l -0.83666,-0.8367 v -3.34679 l -0.8367,-0.83667 v -4.18349 l 0.8367,-0.83669 v -2.51009 l 0.83666,-0.83667 v -1.6734 l 5.02019,-5.02017 h 1.67338 l 0.83671,-0.83671 h 5.02016 l 0.83669,0.83671 v 2.51008 l -0.83669,0.83671 v 10.04032 l 0.83669,0.83671 v 2.51006 l 0.83669,0.8367 v 0.83669 l 0.8367,0.8367 v 0.8367 l 5.02017,5.02016 h 0.83669 l 0.8367,0.8367 h 1.6734 l 1.67338,-1.6734 v -0.83668 l -4.18348,-4.18348 v -0.8367 l -0.83669,-0.83669 v -9.20364 l 0.83669,-0.8367 v -0.83667 l 0.8367,-0.83671 v -0.83669 l 2.51009,-2.51009 h 0.83669 l 1.67339,-1.67339 h 0.83668 l 0.8367,-0.83669 h 0.8367 l 1.67339,-1.67339 0.8367,0.83668 0.83669,-0.83668 h 7.53025 l 0.83668,0.83668 h 1.6734 l 0.83671,0.83671 h 0.83667 l 0.83669,0.83669 h 0.83671 l 1.67339,1.67339 v 0.83671 z m 489.46628,-33.46779 0.8367,-0.83668 h 0.83669 l 0.8367,0.83668 v 0.8367 h 0.8367 l 0.8367,0.8367 v 1.67339 l -0.8367,0.8367 h -3.34679 l -0.8367,-0.8367 v -0.8367 l 0.8367,-0.83669 h 0.8367 l -0.8367,-0.8367 z m 8.36695,-10.04033 0.8367,-0.8367 h 12.55041 l 0.83669,0.8367 v 0.83672 h 6.69355 l 0.8367,0.83667 v 0.83669 l -0.8367,0.83671 h -16.73389 l -0.83668,-0.83671 0.83668,-0.83669 h 7.53027 l 0.83667,-0.83667 h -8.36694 v 0.83667 l -0.83668,0.83669 -1.6734,-1.67336 h -0.83668 z m 128.01424,2.51008 v -0.83669 l 1.6735,-1.67339 h 0.8366 l 1.6734,-1.6734 h 20.9175 l 0.8366,0.8367 -1.6734,1.67342 h -1.6733 v 0.83667 h 0.8366 l 0.8367,-0.83667 0.8368,0.83667 v 0.83669 l -0.8368,0.83671 h -23.4275 z m -81.99604,-1.67336 0.83669,-0.83672 h 0.83671 v -0.8367 l 0.83667,-0.8367 h 1.67339 l 0.8367,-0.83667 h 0.83669 l 0.83671,-0.83671 h 49.36498 l 0.8367,0.83671 h 4.1835 l 0.8367,0.83667 -0.8367,0.8367 h -1.6734 l 0.8367,0.8367 0.8367,-0.8367 h 0.8367 l 1.6733,1.67342 v 0.83667 l 0.8367,0.83669 -0.8367,0.83671 h -62.75205 l -0.83669,-0.83671 z m -61.91538,-2.51012 -0.83671,0.8367 H 678.21094 l -0.8367,-0.8367 0.8367,-0.83667 h 147.25823 l 0.8367,-0.83671 h 25.93751 l 0.8367,0.83671 h 32.63109 z m 91.1997,-20.91735 0.83666,-0.836699 h 17.5706 l 0.83671,0.836699 -0.83671,0.8367 h -17.5706 z m -297.86326,-0.836699 0.8367,-0.836683 h 30.12101 l 0.83667,0.836683 -1.67336,1.673399 h -28.44763 z m 332.16768,-3.346767 0.8367,0.836685 v 12.550427 l -0.8367,0.836687 -0.8367,-0.836687 V 82.281299 Z m -61.91534,-0.836698 0.83667,0.836698 v 12.550413 l -0.83667,0.836699 -0.83671,-0.836699 V 81.444614 Z m -80.32268,4.183465 0.8367,-0.836683 v -0.836699 l 0.83667,-0.8367 h 0.83671 l 0.83669,-0.836685 h 6.69355 l 0.83669,-0.836698 h 7.53026 l 0.83669,0.836698 h 5.02017 l 0.8367,-0.836698 h 3.34679 l 0.83668,0.836698 h 1.67339 l 2.51009,2.510084 v 2.510082 l -2.51009,2.510087 h -1.67339 l -0.83668,0.836699 h -22.59076 l -0.83671,-0.836699 h -1.67338 l -3.34677,-3.346787 z m -46.8549,-1.673382 1.67339,-1.673385 h 1.6734 l 0.83668,-0.836698 h 15.0605 l 0.83671,0.836698 h 10.04032 l 1.67338,1.673385 v 0.836699 l 0.8367,0.836683 v 0.836699 l -1.67338,1.673388 -0.8367,-0.836688 0.8367,0.836688 -1.6734,1.673399 h -4.18346 l -0.8367,0.836699 -0.83669,-0.836699 h -20.91736 l -2.51009,-2.510087 z m -48.52828,0.836699 2.51008,-2.510084 h 2.5101 l 0.83667,-0.836698 h 17.5706 l 0.83669,0.836698 0.83669,-0.836698 h 2.51009 l 0.83669,0.836698 h 2.51008 l 1.67341,1.673385 v 3.346781 l -2.51009,2.510087 H 776.94088 L 774.4308,86.46478 Z m -47.69158,-0.836699 0.83669,-0.8367 h 0.83669 l 1.6734,-1.673383 h 25.10085 l 0.83667,0.836698 h 0.83669 l 2.51009,2.510084 v 2.510082 l -1.67339,1.673388 h -0.8367 l -0.83669,0.836699 H 730.086 l -0.83671,-0.836699 h -0.83669 l -1.67338,-1.673388 z m -101.24004,-21.754058 0.83669,0.8367 v 10.04033 l -0.83669,0.836698 -0.8367,-0.836698 v -10.04033 z m 25.93752,-10.040327 0.83671,0.836683 v 21.754056 l -0.83671,0.8367 -0.83668,-0.8367 V 52.160297 Z m -113.79044,0 0.83669,-0.8367 h 14.22381 l 0.83669,0.8367 -0.83669,0.836683 h -14.22381 z m -73.62911,-0.8367 0.83667,0.8367 v 8.366945 l -0.83667,0.836683 -0.8367,-0.836683 v -8.366945 z m 159.80863,0 0.8367,-0.836699 h 8.36695 l 0.8367,0.836699 -0.8367,0.8367 h -6.69356 v 1.673383 l -0.83669,0.836699 -0.8367,-0.836699 v -1.673383 z m -107.0969,0 0.8367,-0.836699 h 8.36695 l 0.83671,0.836699 -1.67341,1.673383 -0.83669,-0.836683 h -6.69356 z m 155.62519,-4.183481 0.83669,0.836699 v 22.590755 l -0.83669,0.836699 -0.83669,-0.836699 V 47.140132 Z m 26.77423,-1.673382 0.83669,0.836699 v 15.897191 l -0.83669,0.8367 -0.83671,-0.8367 V 45.46675 Z"
     fill="#000000"
     fill-rule="evenodd"
     id="path1"
     style="stroke-width:0.836695"
     sodipodi:nodetypes="cccccccccccccccccccccccccccccccccccccccccccccccccccccccccccccccccccccccccccccccccccccccccccccccccccccccccccccccccccccccccccccccccccccccccccccccccccccccccccccccccccccccccccccccccccccccccccccccccccccccccccccccccccccccccccccccccccccccccccccccccccccccccccccccccccccccccccccccccccccccccccccccccccccccccccccccccccccccccccccccccccccccccccccccccccccccccccccccccccccccccccccccccccccccccccccccccccccccccccccccccccccccccccccccccccccccccccccccccccccccccccccccccccccccccccc" />
</svg>
