<svg xmlns="http://www.w3.org/2000/svg" width="1448" height="1086" viewBox="0 0 1448 1086">
<rect width="100%" height="100%" fill="white"/>
<path d="M 72,518 L 89,657 L 99,670 L 168,643 L 176,662 L 183,665 L 192,659 L 185,642 L 190,634 L 309,587 L 391,583 L 400,564 L 415,552 L 480,527 L 498,528 L 504,559 L 514,571 L 545,578 L 571,569 L 581,553 L 583,531 L 592,528 L 594,521 L 602,521 L 597,571 L 603,579 L 616,581 L 712,551 L 722,517 L 793,510 L 1106,504 L 1108,524 L 1122,528 L 1126,522 L 1123,503 L 1170,501 L 1177,491 L 1194,485 L 1294,488 L 1298,483 L 1296,464 L 1376,464 L 1379,449 L 1376,443 L 1351,442 L 1348,412 L 1324,417 L 1321,444 L 1185,444 L 1142,436 L 834,427 L 821,418 L 804,418 L 792,426 L 743,424 L 737,434 L 626,440 L 622,422 L 609,422 L 606,427 L 530,429 L 527,415 L 535,400 L 529,392 L 518,391 L 510,400 L 517,414 L 511,439 L 462,442 L 464,462 L 491,460 L 490,464 L 468,466 L 407,491 L 85,501 L 75,506 Z M 183,649 L 184,650 L 184,651 L 183,652 L 182,652 L 181,653 L 182,654 L 183,654 L 183,652 L 184,651 L 185,652 L 185,653 L 186,654 L 186,656 L 185,657 L 184,657 L 183,658 L 182,658 L 180,656 L 180,655 L 179,654 L 179,651 L 180,650 L 182,650 Z M 574,536 L 574,538 L 575,539 L 575,542 L 576,543 L 576,550 L 575,551 L 575,554 L 574,555 L 574,557 L 572,559 L 572,560 L 569,563 L 568,562 L 569,563 L 567,565 L 566,565 L 564,567 L 563,567 L 560,569 L 558,569 L 557,570 L 554,570 L 553,571 L 548,571 L 547,572 L 534,572 L 533,571 L 528,571 L 527,570 L 525,570 L 524,569 L 523,569 L 522,568 L 521,568 L 520,567 L 519,567 L 518,566 L 517,566 L 512,561 L 512,560 L 510,558 L 510,557 L 509,556 L 509,553 L 508,552 L 508,542 L 509,541 L 509,539 L 510,538 L 510,537 L 512,535 L 512,534 L 517,529 L 518,529 L 519,528 L 520,528 L 522,530 L 522,529 L 521,529 L 520,528 L 523,526 L 525,526 L 526,527 L 525,528 L 525,535 L 524,536 L 524,537 L 522,539 L 522,540 L 521,541 L 521,544 L 520,545 L 520,553 L 521,554 L 521,556 L 522,557 L 522,558 L 523,559 L 523,560 L 525,562 L 525,563 L 528,566 L 531,566 L 531,565 L 532,564 L 532,563 L 528,559 L 528,558 L 526,555 L 526,545 L 530,539 L 531,539 L 534,536 L 535,536 L 536,535 L 537,535 L 539,533 L 539,530 L 541,527 L 542,527 L 543,526 L 551,526 L 552,525 L 561,525 L 563,527 L 565,527 L 567,529 L 568,529 L 569,530 L 568,531 L 569,532 L 570,531 L 572,533 L 572,534 Z M 1111,515 L 1112,514 L 1113,514 L 1114,515 L 1115,514 L 1117,514 L 1118,515 L 1117,516 L 1116,516 L 1115,517 L 1117,519 L 1117,516 L 1118,515 L 1119,516 L 1119,520 L 1120,521 L 1119,522 L 1117,522 L 1116,521 L 1114,521 L 1112,519 L 1112,516 Z M 1186,465 L 1187,464 L 1269,464 L 1270,465 L 1270,467 L 1268,469 L 1265,469 L 1264,470 L 1192,470 L 1191,469 L 1188,469 L 1187,468 L 1187,467 L 1186,466 Z M 531,436 L 533,434 L 538,434 L 539,435 L 541,435 L 542,436 L 541,437 L 540,437 L 540,438 L 541,437 L 542,438 L 542,439 L 541,440 L 532,440 L 531,439 Z" fill="black" fill-rule="evenodd"/>
</svg>