<?xml version="1.0" encoding="UTF-8" standalone="no"?>
<svg
   width="1300"
   height="250"
   viewBox="0 0 1300 250"
   version="1.1"
   id="svg1"
   sodipodi:docname="lee_enfield_n4_black.svg"
   inkscape:version="1.4.2 (f4327f4, 2025-05-13)"
   xmlns:inkscape="http://www.inkscape.org/namespaces/inkscape"
   xmlns:sodipodi="http://sodipodi.sourceforge.net/DTD/sodipodi-0.dtd"
   xmlns="http://www.w3.org/2000/svg"
   xmlns:svg="http://www.w3.org/2000/svg">
  <defs
     id="defs1" />
  <sodipodi:namedview
     id="namedview1"
     pagecolor="#ffffff"
     bordercolor="#000000"
     borderopacity="0.25"
     inkscape:showpageshadow="2"
     inkscape:pageopacity="0.0"
     inkscape:pagecheckerboard="0"
     inkscape:deskcolor="#d1d1d1"
     inkscape:zoom="0.93700159"
     inkscape:cx="626.46638"
     inkscape:cy="285.48511"
     inkscape:window-width="2560"
     inkscape:window-height="1377"
     inkscape:window-x="-8"
     inkscape:window-y="-8"
     inkscape:window-maximized="1"
     inkscape:current-layer="svg1" />
  <rect
     width="100%"
     height="100%"
     fill="#ffffff"
     id="rect1"
     x="0"
     y="0" />
  <path
     d="m 1218.7607,43.589626 -13.7908,-2.955173 -0.9851,-5.910368 -1.9701,4.925307 -5.9104,-26.596634 h -12.8057 l 13.7908,0.98506 -16.746,3.940246 V 30.78384 l -7.8804,7.880491 3.9402,1.970122 h -101.4614 l -3.9402,-5.910368 -34.477,5.910368 H 907.48165 l -14.7759,-6.895429 -147.75905,2.955184 -7.88049,-13.790848 -73.87953,-2.955184 -6.89541,19.701216 -92.59569,-5.910368 -9.85059,11.820726 h -70.92435 l -3.94025,-9.850603 -35.46217,3.940245 6.89543,-1.970123 -42.35759,-2.955184 -3.94026,11.820725 -9.85059,0.985062 0.98506,13.790848 7.88047,1.970112 -32.50699,5.910368 -50.23807,20.686267 -44.32772,-11.820725 -205.877615,23.641448 -10.835664,7.88048 6.895423,123.13255 16.746026,7.88048 190.11664,-81.76001 44.32773,2.95518 34.47711,-33.49206 27.58169,-10.83566 7.88048,1.97013 9.85061,28.56675 33.49205,3.94024 15.76096,-7.88049 4.92531,-24.6265 8.86554,-8.86555 419.63572,-25.61157 2.95518,5.910368 h 9.8506 l -10.83566,-0.985061 14.7759,-5.910368 278.77211,-4.925297 -3.9402,-0.98506 13.7908,-0.985062 v -6.895419 h -75.8497 l -0.9851,-9.850602 108.3567,0.985061 -14.7759,-0.985061 14.7759,-0.985062 z M 80.030949,184.45326 l 0.98506,0.98506 v 8.86554 l -0.98506,0.98506 h -2.955181 l -0.985062,-0.98506 v -4.92529 l 0.985062,-0.98507 0.985061,0.98507 v 3.94023 h 0.985059 v -7.88048 z m -1.97012,-22.65639 0.985059,0.98506 v 10.83566 l 0.985061,0.98507 v 7.88047 l -0.985061,0.98506 -0.985059,-0.98506 v -4.92529 5.91035 l -0.985061,0.98507 v 2.95518 l -0.985062,0.98506 -0.985059,-0.98506 v -8.86554 l -0.985061,-0.98506 v -9.8506 l 0.985061,-0.98507 0.985059,0.98507 v 3.94023 l 0.985062,0.98506 v -9.8506 z m -0.985061,-9.8506 0.985061,0.98506 v 6.89542 l -0.985061,0.98506 -0.985062,-0.98506 v -6.89542 z m -0.985062,-9.85061 0.985062,0.98506 v 8.86555 l -0.985062,0.98506 v 0.98506 l -0.985059,0.98506 v 9.8506 l -0.985061,0.98506 -0.98506,-0.98506 v -7.88048 l -0.98506,-0.98506 v -11.82073 l 0.98506,-0.98506 1.970121,1.97013 v -1.97013 z m -15.760964,-6.89541 0.985059,0.98506 v 8.86554 l -0.985059,0.98506 -0.985061,-0.98506 v -8.86554 z m 334.920528,-10.83567 0.98506,0.98506 v 9.85061 l -0.98506,0.98506 -0.98506,-0.98506 v -9.85061 z m 48.26795,-6.89543 v 0.98506 l 0.98506,0.98507 -0.98506,2.95518 v -0.98506 l 0.98506,-0.98506 0.98506,0.98506 v 1.97012 l 0.98506,0.98506 v 9.8506 l -1.97012,2.95519 -0.98506,-0.98506 v -0.98506 l -0.98505,0.98506 v 0.98506 l 0.98505,-0.98506 0.98506,0.98506 -0.98506,2.95517 -3.94024,3.94024 h -0.98506 l -0.98506,0.98507 h -1.97012 l -0.98507,0.98506 h -1.97012 l -0.98505,-0.98506 0.98505,-0.98507 h 0.98506 -1.97011 l -0.98506,0.98507 h -1.97012 1.97012 l 0.98506,0.98506 -0.98506,0.98506 h -6.89543 l -0.98506,0.98506 h -10.83566 l -0.98506,-0.98506 0.98506,-0.98506 -0.98506,0.98506 h -4.9253 l -0.98507,-0.98506 0.98507,-0.98506 h 0.98506 -0.98506 l -0.98507,-0.98507 h -0.98506 0.98506 l 0.98507,0.98507 -0.98507,0.98506 h -1.97012 l -0.98506,-0.98506 h -0.98506 l -1.97011,-1.97013 0.98505,-0.98506 -1.97011,-1.97012 -0.98506,0.98506 -1.97012,-2.95518 v -1.97011 l 0.98506,-0.98506 0.98506,0.98506 v 0.98506 -2.95519 l -0.98506,-0.98506 v -5.91037 l 0.98506,-0.98505 v -2.95518 0.98506 l -0.98506,0.98506 -0.98506,-0.98506 v -1.97012 l 1.97012,-1.97012 v -0.98506 l 0.98506,-0.98507 0.98506,0.98507 v 0.98506 -0.98506 l -0.98506,-0.98507 1.97011,-1.97012 h 0.98506 l 0.98506,-0.98505 h 0.98506 l 0.98506,0.98505 v 0.98506 h 0.98506 l 0.98507,0.98506 0.98506,-0.98506 v -0.98506 h -2.95519 l -0.98506,-0.98505 0.98506,-0.98507 h 5.91038 l 0.98505,0.98507 v 0.98505 l -1.97011,2.95519 v 2.95518 l -0.98506,0.98506 v 6.89542 l 0.98506,0.98506 v 1.97012 l 0.98506,0.98506 v 0.98507 l 0.98505,0.98506 0.98506,2.95517 1.97012,1.97012 v 0.98506 h 0.98506 l 0.98506,0.98506 0.98506,-0.98506 v -2.95518 l -1.97012,-2.95517 0.98506,-2.95519 v 0.98506 l -0.98506,0.98507 -1.97012,-2.95519 v -6.89542 l 0.98506,-0.98506 v -1.97012 l 0.98506,-0.98506 0.98506,0.98506 v 1.97012 -1.97012 l -0.98506,-0.98506 v -0.98506 l 0.98506,-0.98506 0.98506,0.98506 0.98506,-0.98506 h 0.98506 v -1.97013 l 0.98506,-0.98506 v -0.98505 l 1.97012,-1.97013 h 3.94025 l 0.98506,-0.98506 h 9.8506 l 0.98506,0.98506 -0.98506,0.98506 h -7.88048 7.88048 l 0.98506,-0.98506 h 0.98506 l 2.95519,1.97013 -0.98506,0.98505 h -0.98507 l 0.98507,0.98506 h 0.98506 l 0.98506,-0.98506 z m -0.98505,-18.716144 0.98505,-0.985061 h 5.91036 l 0.98507,0.985061 -0.98507,0.985058 h -5.91036 z m 664.91573,-21.671326 0.985,-0.985062 h 63.044 l 0.9851,0.985062 -0.9851,0.985062 h -63.044 z m -657.03525,-7.88048 0.98506,0.985061 v 8.865541 l -0.98506,0.985062 -0.98507,-0.985062 v -8.865541 z m 227.54894,-38.41736 0.98506,-0.985051 h 7.88049 l 0.98506,0.985051 -0.98506,0.985061 h -7.88049 z m 0,-6.895419 0.98506,-0.985061 h 46.29783 l 1.97012,1.970123 -0.98506,0.985061 h -0.98506 l -0.98506,-0.985061 h -30.53687 l -0.98506,0.985061 -0.98506,-0.985061 h -5.91035 l -0.98507,0.985061 h -1.97013 l -0.98506,-0.985061 h -2.95517 z"
     fill="#000000"
     fill-rule="evenodd"
     id="path1"
     style="stroke-width:0.985061" />
</svg>
