<?xml version="1.0" encoding="UTF-8" standalone="no"?>
<svg
   width="1200"
   height="250"
   viewBox="0 0 1200 250"
   version="1.1"
   id="svg1"
   sodipodi:docname="lee_enfield_jungle_carbine_black.svg"
   inkscape:version="1.4.2 (f4327f4, 2025-05-13)"
   xmlns:inkscape="http://www.inkscape.org/namespaces/inkscape"
   xmlns:sodipodi="http://sodipodi.sourceforge.net/DTD/sodipodi-0.dtd"
   xmlns="http://www.w3.org/2000/svg"
   xmlns:svg="http://www.w3.org/2000/svg">
  <defs
     id="defs1" />
  <sodipodi:namedview
     id="namedview1"
     pagecolor="#ffffff"
     bordercolor="#000000"
     borderopacity="0.25"
     inkscape:showpageshadow="2"
     inkscape:pageopacity="0.0"
     inkscape:pagecheckerboard="0"
     inkscape:deskcolor="#d1d1d1"
     inkscape:zoom="1.0819521"
     inkscape:cx="723.69191"
     inkscape:cy="321.17872"
     inkscape:window-width="2560"
     inkscape:window-height="1377"
     inkscape:window-x="-8"
     inkscape:window-y="-8"
     inkscape:window-maximized="1"
     inkscape:current-layer="svg1" />
  <path
     d="m 52.681702,131.09935 13.34327,92.56894 5.003727,8.33953 13.343272,1.66792 60.044709,-21.6828 2.50188,10.00743 6.67162,2.50186 11.67537,-7.50558 -4.16978,-11.67537 98.40662,-36.69398 55.041,2.50186 27.5205,-40.02981 31.69027,-14.17723 20.84884,-1.6679 10.00747,29.18839 19.18096,7.50559 23.35072,-3.33581 19.18095,-23.35072 21.68281,0.83395 2.50188,-7.50559 1.66789,10.8414 0.83396,-12.50931 0.83396,73.38798 12.5093,2.50188 56.70891,-11.67537 0.83396,-71.72008 52.53912,-6.67163 279.37475,-8.339545 -3.33585,12.509315 10.84144,4.16977 7.50557,-25.018632 63.38053,-1.667898 6.67166,-5.003732 1.66789,-10.841404 173.46262,0.833959 3.3358,-15.011198 -26.6866,-3.335815 -1.6679,-21.682807 -5.8376,-4.169774 -18.3471,5.003733 -4.1697,20.848848 -162.62119,-0.833939 -5.83767,-9.173505 h -28.35446 l -6.67163,-8.339547 -286.04638,-3.335816 -8.33954,8.339548 -1.66791,11.675362 -0.83395,-10.007465 -24.18468,-2.501856 -8.33954,9.173506 -94.23686,4.169773 -9.17349,-2.501876 -0.83396,-9.173486 -31.69027,-8.339547 -17.51303,-13.34328 -8.33956,21.682827 -26.68653,0.833939 -2.50186,18.347013 -32.52424,10.841403 -40.02981,20.848849 -14.17722,0.833959 -15.84514,-7.505589 H 246.99309 L 66.024972,100.24304 55.183567,109.41653 Z m 105.912218,80.05962 0.83394,0.83397 -0.83394,0.83393 v 0.83396 -0.83396 l 0.83394,-0.83393 0.83396,0.83393 v 0.83396 l 0.83395,0.83396 v 0.83396 l -1.66791,1.6679 h -0.83394 l -0.83396,0.83396 h -0.83395 l -0.83397,0.83395 h -1.66789 l -1.66792,1.6679 h -0.83396 l -1.6679,-1.6679 v -1.66791 l -0.83395,-0.83395 v -0.83395 l 1.66791,-1.66792 h 0.83394 l 0.83396,-0.83396 h 1.66792 l 0.83394,-0.83393 h 0.83395 l 0.83397,-0.83397 z m 245.18259,-84.22939 0.83396,-0.83396 v -2.50186 l 0.83395,-0.83395 v -0.83397 l 0.83395,-0.83395 v -0.83396 l 0.83396,-0.83394 0.83395,0.83394 -0.83395,-0.83394 1.66792,-1.66791 h 0.83395 l 0.83394,0.83395 v 0.83396 h 0.83396 v -1.66791 l -0.83396,-0.83396 0.83396,-0.83397 h 3.33581 l 0.83396,0.83397 -1.66791,1.66791 v 0.83396 l -0.83395,0.83394 v 5.00374 l -0.83395,0.83395 v 7.50559 l 0.83395,0.83396 v 2.50185 l 0.83395,0.83397 v 0.83395 l 5.00373,5.00372 h 0.83396 l 1.66792,-1.6679 v -0.83396 l -2.50188,-2.50186 v -0.83395 l -0.83396,-0.83397 v -0.83395 l -0.83394,-0.83396 v -6.67163 l 0.83394,-0.83396 v -0.83394 l 0.83396,-0.83396 v -0.83395 l 0.83396,-0.83397 v -0.83394 l 2.50185,-2.50187 h 0.83396 l 1.66792,-1.6679 h 0.83394 l 1.66792,-1.66791 h 0.83395 l 0.83397,-0.83396 h 0.83393 l 0.83396,-0.83397 h 12.50932 l 0.83396,0.83397 h 1.6679 l 0.83395,0.83396 h 0.83397 l 0.83395,0.83395 h 0.83394 l 2.50188,2.50186 v 0.83395 l 1.6679,1.66792 v 0.83394 l 0.83395,0.83397 v 2.50185 l 0.83397,0.83396 v 5.00373 l -0.83397,0.83396 v 2.50185 l -0.83395,0.83397 v 0.83395 l -5.00372,5.00372 h -0.83395 l -0.83397,0.83395 h -0.83395 l -0.83396,0.83397 h -1.6679 l -0.83395,0.83395 h -3.33582 l -0.83396,0.83394 h -5.00373 l -0.83394,0.83396 h -4.16978 l -0.83395,-0.83396 h -6.67164 l -0.83395,-0.83394 h -3.33581 l -0.83397,-0.83395 h -0.83396 l -0.83395,-0.83397 0.83395,-0.83395 h 1.66793 -1.66793 l -0.83395,0.83395 h -0.83395 l -0.83395,-0.83395 h -0.83396 l -5.00373,-5.00372 v -0.83395 l -0.83395,-0.83397 v -0.83395 l -0.83395,-0.83396 v -3.33582 l -0.83396,-0.83394 z m 493.70102,-25.8526 0.83396,-0.83394 h 5.00374 l 0.83393,0.83394 v 2.50187 l -0.83393,0.83395 v 0.83395 l -0.83397,0.83396 h -5.00373 l -0.83396,-0.83396 v -1.6679 l 0.83396,-0.83395 z m 19.18095,-54.207033 0.83396,-0.833939 h 7.50559 l 0.83395,0.833939 v 1.667917 l -0.83395,0.833959 -0.83396,-0.833959 h -1.6679 l -0.83395,0.833959 h -0.83397 l -0.83395,-0.833959 h -1.66791 z M 397.93885,46.036008 v 0.833939 l -0.83397,0.833958 h -8.33955 l -0.83395,-0.833958 v -0.833939 l 0.83395,-0.833959 0.83396,0.833959 h 5.83768 v -0.833959 l 0.83395,-0.833958 z"
     fill="#000000"
     fill-rule="evenodd"
     id="path1"
     style="stroke-width:0.833955" />
</svg>
