<?xml version="1.0" encoding="UTF-8" standalone="no"?>
<svg
   width="1200"
   height="250"
   viewBox="0 0 1200 250"
   version="1.1"
   id="svg1"
   sodipodi:docname="lee_enfield_pattern_1914_sniper_black.svg"
   inkscape:version="1.4.2 (f4327f4, 2025-05-13)"
   xmlns:inkscape="http://www.inkscape.org/namespaces/inkscape"
   xmlns:sodipodi="http://sodipodi.sourceforge.net/DTD/sodipodi-0.dtd"
   xmlns="http://www.w3.org/2000/svg"
   xmlns:svg="http://www.w3.org/2000/svg">
  <defs
     id="defs1" />
  <sodipodi:namedview
     id="namedview1"
     pagecolor="#ffffff"
     bordercolor="#000000"
     borderopacity="0.25"
     inkscape:showpageshadow="2"
     inkscape:pageopacity="0.0"
     inkscape:pagecheckerboard="0"
     inkscape:deskcolor="#d1d1d1"
     inkscape:zoom="1.0819521"
     inkscape:cx="723.69191"
     inkscape:cy="99.357447"
     inkscape:window-width="2560"
     inkscape:window-height="1377"
     inkscape:window-x="-8"
     inkscape:window-y="-8"
     inkscape:window-maximized="1"
     inkscape:current-layer="svg1" />
  <path
     d="m 40.187661,220.84246 7.722504,16.30307 50.625267,-12.87082 6.006388,12.01276 12.01276,-6.00638 -0.85804,-12.01278 105.54081,-41.18664 49.76721,-3.43223 12.87082,-19.73527 50.62527,-17.16112 5.14835,21.45139 9.43859,9.4386 h 30.89 l 12.01278,-8.58054 1.7161,-10.29666 3.43223,15.44498 14.58693,5.14835 64.35415,-21.4514 9.43859,-18.01915 12.87085,1.71611 8.58056,-5.14834 329.49324,-9.43859 -3.43221,15.44498 3.43221,3.43224 9.43862,-18.87722 13.72887,-7.7225 178.47559,1.7161 3.4322,8.58056 h 11.1547 l 3.4322,-8.58056 h 18.0192 l 1.7161,-14.586938 91.8119,-1.716115 1.7161,-11.154719 -1.7161,-5.14832 -37.7545,-1.716129 -5.1483,-23.167487 -18.0191,2.574166 -3.4323,19.73527 -261.70686,-1.716102 -0.85803,16.303052 -0.85807,-15.445001 -218.80411,-11.154718 -15.44498,-8.580552 -11.15472,12.870821 -71.21861,-0.858051 -0.85804,-23.167491 40.32861,7.722501 h 24.8836 l 0.85804,-4.29028 0.85806,5.148326 h 28.31582 L 618.51695,14.051152 479.512,21.773649 476.07978,7.1866992 453.77033,8.044757 l -2.57416,13.728892 -127.85024,-5.148335 0.85807,33.464157 84.94746,-6.006385 0.85805,7.722501 -23.16747,3.43222 -2.57417,11.154719 -48.90917,6.864435 0.85807,18.019154 -65.21221,21.451395 -54.91554,-2.57416 -176.759413,7.7225 -5.148331,17.16111 z m 63.496099,10.29669 v -3.43222 l 1.71611,-1.71612 h 4.29027 l 0.85806,0.85807 -0.85806,0.85805 h -0.85805 2.57417 l 0.85804,0.85804 -0.85804,0.85806 h -0.85806 l -0.85806,0.85806 h -1.71609 l -0.85806,0.85806 h -0.85806 l -0.85806,0.85803 h -0.85805 z m 293.45494,-90.95388 0.85804,0.85807 v 5.14833 l -0.85804,0.85806 v 3.43221 l -0.85806,0.85808 -0.85805,-0.85808 v -1.7161 l -0.85807,0.85805 -0.85805,-0.85805 v -2.57417 l 0.85805,-0.85805 v -2.57416 z m -9.43861,1.71613 v 1.71612 l 0.85806,0.85803 v 3.43222 l 0.85805,0.85807 v 0.85805 l -0.85805,0.85805 v 3.43223 l -0.85806,0.85806 v 0.85804 l -0.85805,0.85805 v 0.85807 l -5.14832,5.14833 h -0.85807 l -0.85806,0.85804 h -0.85805 l -0.85807,0.85806 h -1.7161 l -0.85806,0.85805 h -3.43222 l -0.85805,0.85807 h -14.58695 l -0.85807,-0.85807 h -1.7161 l -0.85806,-0.85805 h -1.71609 l -0.85807,-0.85806 h -0.85805 l -0.85806,-0.85804 h -0.85807 l -3.43222,-3.43222 v -0.85806 l -0.85803,-0.85805 v -0.85807 l -0.85807,-0.85805 v -10.29665 l 0.85807,-0.85807 v -0.85803 l 0.85803,-0.85806 v -0.85806 l 4.29029,-4.29028 h 0.85806 l 0.85805,-0.85807 h 0.85807 l 0.85803,-0.85803 h 0.85806 l 0.85806,-0.85806 h 1.7161 l 0.85807,0.85806 -0.85807,0.85803 v 5.14835 l -0.85802,0.85806 v 0.85806 l -0.85808,0.85803 v 0.85807 l -0.85806,0.85805 v 0.85806 l -0.85806,0.85804 v 1.71612 l -0.85803,0.85805 v 2.57418 l 0.85803,0.85805 v 2.57415 l 0.85806,0.85807 v 0.85805 l 1.71614,1.71613 v 0.85803 l 1.71609,1.71612 h 2.57418 l 0.85803,-0.85805 v -0.85807 l -2.57415,-2.57416 v -0.85805 l -0.85806,-0.85807 v -0.85805 l -0.85807,-0.85804 v -4.29029 l 0.85807,-0.85805 v -0.85805 l 0.85806,-0.85807 v -0.85804 l 3.43221,-3.43221 h 0.85806 l 3.43223,-3.43225 v -0.85804 l 0.85805,-0.85806 v -2.57415 l 0.85805,-0.85806 h 2.57417 l 0.85805,-0.85806 h 6.0064 l 0.85804,0.85806 v 2.57416 h 0.85806 l 0.85807,0.85805 h 5.14833 z m 36.89636,-69.50249 v -0.858051 l 0.85806,-0.858051 v -1.716116 l 0.85807,-0.858064 v -1.716102 l 2.57416,-2.574167 h 51.48332 l 1.71609,1.716102 v 2.574167 l 0.85807,0.858064 v 0.858051 l -0.85807,0.858065 -1.71609,-1.716116 v -2.574166 2.574166 l -0.85806,0.858051 h -1.7161 l -0.85807,0.858065 h -6.86443 l -2.57417,2.574153 h -42.04472 z m 689.01845,-12.012783 0.8581,-0.858037 h 3.4322 l 2.5741,2.574153 v 2.574167 l 0.858,0.858051 -0.858,0.858065 h -6.0063 l -0.8581,-0.858065 z m -689.01845,-15.444981 0.85806,-0.85806 h 25.74166 l 0.85806,0.85806 -0.85806,0.858045 h -2.57416 2.57416 l 0.85806,-0.858045 1.7161,1.716103 h 23.1675 l 0.85807,-0.858058 h 0.85806 v -0.858045 l 0.85804,-0.85806 h 27.45778 l 0.85807,0.85806 -0.85807,0.858045 v 1.716116 l 0.85807,0.858058 v 0.858048 l -0.85807,0.858058 0.85807,0.858055 -1.71613,1.716107 h -1.71612 l -1.7161,1.71611 h -11.15472 l -0.85806,0.858064 h -1.71609 l -0.85806,-0.858064 h -4.29029 l -1.71613,1.716115 h -49.7672 l -1.71609,-1.716115 h -0.85807 l -0.85805,-0.858051 h -0.85805 l -0.85806,-0.858059 h -0.85805 l -1.71613,-1.716107 z"
     fill="#000000"
     fill-rule="evenodd"
     id="path1"
     style="stroke-width:0.858056" />
</svg>
