<svg xmlns="http://www.w3.org/2000/svg" width="1254" height="1254" viewBox="0 0 1254 1254">
<rect width="100%" height="100%" fill="white"/>
<path d="M 1215,539 L 1201,536 L 1200,530 L 1198,535 L 1192,508 L 1179,508 L 1193,509 L 1176,513 L 1176,526 L 1168,534 L 1172,536 L 1069,536 L 1065,530 L 1030,536 L 899,536 L 884,529 L 734,532 L 726,518 L 651,515 L 644,535 L 550,529 L 540,541 L 468,541 L 464,531 L 428,535 L 435,533 L 392,530 L 388,542 L 378,543 L 379,557 L 387,559 L 354,565 L 303,586 L 258,574 L 49,598 L 38,606 L 45,731 L 62,739 L 255,656 L 300,659 L 335,625 L 363,614 L 371,616 L 381,645 L 415,649 L 431,641 L 436,616 L 445,607 L 871,581 L 874,587 L 884,587 L 873,586 L 888,580 L 1171,575 L 1167,574 L 1181,573 L 1181,566 L 1104,566 L 1103,556 L 1213,557 L 1198,556 L 1213,555 Z M 59,682 L 60,683 L 60,692 L 59,693 L 56,693 L 55,692 L 55,687 L 56,686 L 57,687 L 57,691 L 58,691 L 58,683 Z M 57,659 L 58,660 L 58,671 L 59,672 L 59,680 L 58,681 L 57,680 L 57,675 L 57,681 L 56,682 L 56,685 L 55,686 L 54,685 L 54,676 L 53,675 L 53,665 L 54,664 L 55,665 L 55,669 L 56,670 L 56,660 Z M 56,649 L 57,650 L 57,657 L 56,658 L 55,657 L 55,650 Z M 55,639 L 56,640 L 56,649 L 55,650 L 55,651 L 54,652 L 54,662 L 53,663 L 52,662 L 52,654 L 51,653 L 51,641 L 52,640 L 54,642 L 54,640 Z M 39,632 L 40,633 L 40,642 L 39,643 L 38,642 L 38,633 Z M 379,621 L 380,622 L 380,632 L 379,633 L 378,632 L 378,622 Z M 428,614 L 428,615 L 429,616 L 428,619 L 428,618 L 429,617 L 430,618 L 430,620 L 431,621 L 431,631 L 429,634 L 428,633 L 428,632 L 427,633 L 427,634 L 428,633 L 429,634 L 428,637 L 424,641 L 423,641 L 422,642 L 420,642 L 419,643 L 417,643 L 416,642 L 417,641 L 418,641 L 416,641 L 415,642 L 413,642 L 415,642 L 416,643 L 415,644 L 408,644 L 407,645 L 396,645 L 395,644 L 396,643 L 395,644 L 390,644 L 389,643 L 390,642 L 391,642 L 390,642 L 389,641 L 388,641 L 389,641 L 390,642 L 389,643 L 387,643 L 386,642 L 385,642 L 383,640 L 384,639 L 382,637 L 381,638 L 379,635 L 379,633 L 380,632 L 381,633 L 381,634 L 381,631 L 380,630 L 380,624 L 381,623 L 381,620 L 381,621 L 380,622 L 379,621 L 379,619 L 381,617 L 381,616 L 382,615 L 383,616 L 383,617 L 383,616 L 382,615 L 384,613 L 385,613 L 386,612 L 387,612 L 388,613 L 388,614 L 389,614 L 390,615 L 391,614 L 391,613 L 388,613 L 387,612 L 388,611 L 394,611 L 395,612 L 395,613 L 393,616 L 393,619 L 392,620 L 392,627 L 393,628 L 393,630 L 394,631 L 394,632 L 395,633 L 396,636 L 398,638 L 398,639 L 399,639 L 400,640 L 401,639 L 401,636 L 399,633 L 400,630 L 400,631 L 399,632 L 397,629 L 397,622 L 398,621 L 398,619 L 399,618 L 400,619 L 400,621 L 400,619 L 399,618 L 399,617 L 400,616 L 401,617 L 402,616 L 403,616 L 403,614 L 404,613 L 404,612 L 406,610 L 410,610 L 411,609 L 421,609 L 422,610 L 421,611 L 413,611 L 421,611 L 422,610 L 423,610 L 426,612 L 425,613 L 424,613 L 425,614 L 426,614 L 427,613 Z M 427,595 L 428,594 L 434,594 L 435,595 L 434,596 L 428,596 Z M 1102,573 L 1103,572 L 1167,572 L 1168,573 L 1167,574 L 1103,574 Z M 435,565 L 436,566 L 436,575 L 435,576 L 434,575 L 434,566 Z M 666,526 L 667,525 L 675,525 L 676,526 L 675,527 L 667,527 Z M 666,519 L 667,518 L 714,518 L 716,520 L 715,521 L 714,521 L 713,520 L 682,520 L 681,521 L 680,520 L 674,520 L 673,521 L 671,521 L 670,520 L 667,520 Z" fill="black" fill-rule="evenodd"/>
</svg>