<?xml version="1.0" encoding="UTF-8" standalone="no"?>
<svg
   width="1150"
   height="250"
   viewBox="0 0 1150 250"
   version="1.1"
   id="svg1"
   sodipodi:docname="lee_enfield_pattern_1914_black.svg"
   inkscape:version="1.4.2 (f4327f4, 2025-05-13)"
   xmlns:inkscape="http://www.inkscape.org/namespaces/inkscape"
   xmlns:sodipodi="http://sodipodi.sourceforge.net/DTD/sodipodi-0.dtd"
   xmlns="http://www.w3.org/2000/svg"
   xmlns:svg="http://www.w3.org/2000/svg">
  <defs
     id="defs1" />
  <sodipodi:namedview
     id="namedview1"
     pagecolor="#ffffff"
     bordercolor="#000000"
     borderopacity="0.25"
     inkscape:showpageshadow="2"
     inkscape:pageopacity="0.0"
     inkscape:pagecheckerboard="0"
     inkscape:deskcolor="#d1d1d1"
     inkscape:zoom="1.0819521"
     inkscape:cx="723.69191"
     inkscape:cy="321.17872"
     inkscape:window-width="2560"
     inkscape:window-height="1377"
     inkscape:window-x="-8"
     inkscape:window-y="-8"
     inkscape:window-maximized="1"
     inkscape:current-layer="svg1" />
  <path
     d="m 37.802549,115.41227 13.95891,114.13456 8.21111,10.67445 56.656721,-22.17002 6.5689,15.60112 5.74778,2.46334 7.39001,-4.92667 -5.74779,-13.9589 4.10557,-6.5689 97.71231,-38.59226 67.33117,-3.28445 7.39,-15.60112 12.31668,-9.85335 53.37228,-20.52779 14.78001,0.82111 4.92667,25.45447 8.21112,9.85335 25.45447,5.74778 21.34891,-7.39001 8.21112,-13.13779 1.64222,-18.06446 7.39,-2.46334 1.64223,-5.74779 h 6.56889 l -4.10555,41.05561 4.92666,6.56889 10.67446,1.64222 78.82674,-24.63335 8.21112,-27.9178 58.29895,-5.74779 257.00804,-4.92668 1.64223,16.42225 11.49556,3.28444 3.2844,-4.92667 -2.4633,-15.60112 38.5923,-1.64224 5.7477,-8.211108 13.9589,-4.926671 82.11115,2.463335 3.2844,-4.105559 -1.6422,-15.601126 h 65.689 l 2.4633,-12.316678 -2.4633,-4.926671 -20.5278,-0.821112 -2.4633,-24.633356 -19.7068,4.105559 -2.4633,22.17002 H 951.70005 L 916.39225,48.081099 663.4898,40.691092 652.81535,33.301085 h -13.9589 l -9.85335,6.568895 -40.23448,-1.642224 -4.92667,8.211118 -91.14343,4.926672 -3.28443,-14.780014 h -10.67447 l -2.46333,4.10556 -62.40451,1.642223 -2.46333,-11.495566 6.5689,-12.316677 -4.92667,-6.568896 -9.03223,-0.821112 -6.5689,7.390008 5.74778,11.495566 -4.92667,20.527796 -40.23448,2.463336 1.64223,16.422238 22.17002,-1.642224 -0.82112,3.284447 -18.06445,1.642224 -50.08783,20.527797 -264.398021,8.211108 -8.21112,4.10557 z m 91.143421,107.56566 0.82111,0.82111 v 0.82112 l -0.82111,0.8211 h -0.82111 l -0.82112,0.82112 0.82112,0.82111 h 0.82111 v -1.64223 l 0.82111,-0.8211 0.82111,0.8211 v 0.82112 l 0.82112,0.82111 v 1.64222 l -0.82112,0.82112 h -0.82111 l -0.82111,0.82111 h -0.82111 l -1.64222,-1.64223 v -0.82111 l -0.82112,-0.82111 v -2.46333 l 0.82112,-0.82112 h 1.64222 z m 321.05475,-92.78564 v 1.64222 l 0.8211,0.82111 v 2.46334 l 0.82112,0.82111 v 5.74779 l -0.82112,0.82111 v 2.46333 l -0.8211,0.82112 v 1.64222 l -1.64223,1.64222 v 0.82111 l -2.46334,2.46334 -0.82111,-0.82111 0.82111,0.82111 -1.64222,1.64223 h -0.82111 l -1.64222,1.64222 h -0.82112 l -2.46333,1.64222 h -1.64223 l -0.82111,0.82111 h -2.46334 l -0.8211,0.82112 h -4.10557 l -0.82111,0.82111 h -10.67446 l -0.8211,-0.82111 h -4.10556 l -0.82112,-0.82112 h -1.64222 l -0.82111,-0.82111 h -0.82111 l -0.82111,-0.82111 h -0.82112 l -0.82111,-0.82111 h -0.82111 l -0.82111,-0.82112 h -0.82112 l -4.10555,-4.10555 v -0.82112 l -1.64223,-1.64222 v -0.82111 l -0.82111,-0.82112 v -2.46333 l -0.82111,-0.82112 v -8.21111 l 0.82111,-0.82111 v -1.64223 l 0.82111,-0.82111 v -0.82111 l 1.64223,-1.64223 v -0.8211 l 4.10555,-4.10557 h 0.82112 l 0.82111,-0.82111 h 0.82111 l 1.64223,1.64223 v -0.82112 h -0.82112 l -0.82111,-0.82111 2.46334,-1.64222 h 1.64222 l 0.82112,0.82111 -0.82112,0.82111 v 5.74778 l -0.82111,0.82112 v 0.82111 l -1.64222,1.64222 v 0.82112 l -0.82112,0.82111 v 2.46334 l -0.82111,0.8211 v 6.5689 l 0.82111,0.82111 v 1.64222 l 0.82112,0.82112 v 0.82111 l 0.82111,0.82111 v 0.82111 l 1.64222,1.64223 v 0.82111 l 2.46334,2.46333 h 2.46333 v -0.8211 l 0.82111,-0.82112 v -0.82111 l -3.28444,-3.28445 v -0.82111 l -1.64222,-2.46333 v -8.21113 l 3.28443,-4.92667 h 0.82112 l 2.46333,-2.46333 h 0.82112 l 0.82111,-0.82112 h 0.82111 l 1.64223,-1.64222 v -2.46333 l 1.64222,-2.46334 h 0.82111 l 0.82112,-0.82111 h 6.56889 l 0.82111,-0.82112 h 7.39 l 1.64223,1.64223 h 1.64222 l 1.64223,1.64222 h 0.82111 l 0.82111,0.82112 -0.82111,0.82111 0.82111,0.82111 0.82112,-0.82111 1.64222,1.64222 v 0.82112 z m 440.9371,-17.24335 0.82112,-0.82111 h 0.8211 l 0.82112,0.82111 0.82111,-0.82111 h 1.64218 l 0.8212,0.82111 -0.8212,0.82111 h -0.82107 l -0.82111,0.82112 1.64218,1.64221 v -2.46333 l 0.8212,-0.82111 0.8211,0.82111 v 3.28445 l 0.8211,0.8211 -0.8211,0.82112 h -1.6423 l -0.82107,-0.82112 h -1.64222 l -1.64222,-1.64222 v -2.46333 z m 61.58333,-41.055597 0.8211,-0.821112 h 67.33125 l 0.821,0.821112 v 1.642224 l -1.6422,1.642223 h -2.4633 l -0.8212,0.821112 h -59.11995 l -0.8211,-0.821112 h -2.4634 l -0.8211,-0.821112 v -0.821111 l -0.8211,-0.821112 z M 414.6929,48.081099 l 1.64223,-1.642225 h 4.10555 l 0.82112,0.821113 h 1.64222 l 0.82111,0.821112 -0.82111,0.821112 h -0.82111 v 0.821112 l 0.82111,-0.821112 0.82111,0.821112 v 0.821111 l -0.82111,0.821112 h -7.39001 l -0.82111,-0.821112 z"
     fill="#000000"
     fill-rule="evenodd"
     id="path1"
     style="stroke-width:0.821112" />
</svg>
