<svg xmlns="http://www.w3.org/2000/svg" width="1448" height="1086" viewBox="0 0 1448 1086">
<rect width="100%" height="100%" fill="white"/>
<path d="M 80,647 L 89,666 L 148,651 L 155,665 L 169,658 L 168,644 L 291,596 L 349,592 L 364,569 L 423,549 L 429,574 L 440,585 L 476,585 L 490,575 L 492,563 L 496,581 L 513,587 L 588,562 L 599,541 L 614,543 L 624,537 L 1008,526 L 1004,544 L 1008,548 L 1019,526 L 1035,517 L 1243,519 L 1247,529 L 1260,529 L 1264,519 L 1285,519 L 1287,502 L 1394,500 L 1396,487 L 1394,481 L 1350,479 L 1344,452 L 1323,455 L 1319,478 L 1014,476 L 1013,495 L 1012,477 L 757,464 L 739,454 L 726,469 L 643,468 L 642,441 L 689,450 L 718,450 L 719,445 L 720,451 L 753,451 L 754,406 L 592,415 L 588,398 L 562,399 L 559,415 L 410,409 L 411,448 L 510,441 L 511,450 L 484,454 L 481,467 L 424,475 L 425,496 L 349,521 L 285,518 L 79,527 L 73,547 Z M 154,659 L 154,655 L 156,653 L 161,653 L 162,654 L 161,655 L 160,655 L 163,655 L 164,656 L 163,657 L 162,657 L 161,658 L 159,658 L 158,659 L 157,659 L 156,660 L 155,660 Z M 496,553 L 497,554 L 497,560 L 496,561 L 496,565 L 495,566 L 494,565 L 494,563 L 493,564 L 492,563 L 492,560 L 493,559 L 493,556 Z M 485,555 L 485,557 L 486,558 L 486,562 L 487,563 L 487,564 L 486,565 L 486,569 L 485,570 L 485,571 L 484,572 L 484,573 L 478,579 L 477,579 L 476,580 L 475,580 L 474,581 L 472,581 L 471,582 L 467,582 L 466,583 L 449,583 L 448,582 L 446,582 L 445,581 L 443,581 L 442,580 L 441,580 L 440,579 L 439,579 L 435,575 L 435,574 L 434,573 L 434,572 L 433,571 L 433,559 L 434,558 L 434,557 L 435,556 L 435,555 L 440,550 L 441,550 L 442,549 L 443,549 L 444,548 L 445,548 L 446,547 L 448,547 L 449,548 L 448,549 L 448,555 L 447,556 L 447,557 L 446,558 L 446,559 L 445,560 L 445,561 L 444,562 L 444,564 L 443,565 L 443,568 L 444,569 L 444,572 L 445,573 L 445,574 L 447,576 L 447,577 L 449,579 L 452,579 L 453,578 L 453,577 L 450,574 L 450,573 L 449,572 L 449,571 L 448,570 L 448,565 L 449,564 L 449,563 L 450,562 L 450,561 L 454,557 L 455,557 L 459,553 L 459,552 L 460,551 L 460,548 L 461,547 L 464,547 L 465,546 L 472,546 L 473,547 L 473,550 L 474,550 L 475,551 L 481,551 Z M 528,474 L 528,473 L 529,472 L 529,470 L 530,469 L 530,467 L 533,464 L 593,464 L 595,466 L 595,469 L 596,470 L 596,471 L 595,472 L 593,470 L 593,467 L 593,470 L 592,471 L 590,471 L 589,472 L 581,472 L 578,475 L 529,475 Z M 1331,460 L 1332,459 L 1336,459 L 1339,462 L 1339,465 L 1340,466 L 1339,467 L 1332,467 L 1331,466 Z M 528,442 L 529,441 L 559,441 L 560,442 L 559,443 L 556,443 L 559,443 L 560,442 L 562,444 L 589,444 L 590,443 L 591,443 L 591,442 L 592,441 L 624,441 L 625,442 L 624,443 L 624,445 L 625,446 L 625,447 L 624,448 L 625,449 L 623,451 L 621,451 L 619,453 L 606,453 L 605,454 L 603,454 L 602,453 L 597,453 L 595,455 L 537,455 L 535,453 L 534,453 L 533,452 L 532,452 L 531,451 L 530,451 L 528,449 Z" fill="black" fill-rule="evenodd"/>
</svg>