<?xml version="1.0" encoding="UTF-8" standalone="no"?>
<svg
   width="700"
   height="250"
   viewBox="0 0 700 250"
   version="1.1"
   id="svg3"
   sodipodi:docname="lewis_gun_black.svg"
   inkscape:version="1.4.2 (f4327f4, 2025-05-13)"
   xmlns:inkscape="http://www.inkscape.org/namespaces/inkscape"
   xmlns:sodipodi="http://sodipodi.sourceforge.net/DTD/sodipodi-0.dtd"
   xmlns="http://www.w3.org/2000/svg"
   xmlns:svg="http://www.w3.org/2000/svg">
  <defs
     id="defs3" />
  <sodipodi:namedview
     id="namedview3"
     pagecolor="#ffffff"
     bordercolor="#000000"
     borderopacity="0.25"
     inkscape:showpageshadow="2"
     inkscape:pageopacity="0.0"
     inkscape:pagecheckerboard="0"
     inkscape:deskcolor="#d1d1d1"
     inkscape:zoom="0.93700159"
     inkscape:cx="626.46638"
     inkscape:cy="200.10638"
     inkscape:window-width="2560"
     inkscape:window-height="1377"
     inkscape:window-x="-8"
     inkscape:window-y="-8"
     inkscape:window-maximized="1"
     inkscape:current-layer="svg3" />
  <path
     d="m 248.89698,39.113885 h 26.91219 -1.58308 l -0.52769,-0.527686 -0.52769,0.527686 h -2.63845 l -0.52768,-0.527686 h -7.91535 l -0.52769,0.527686 h -2.11076 l -0.5277,-0.527686 h -5.27689 l -0.52769,0.527686 z"
     fill="#000000"
     fill-rule="evenodd"
     id="path1"
     style="stroke-width:0.527689" />
  <path
     d="m 239.39857,39.113885 h 8.44303 v -0.527686 h -6.85997 l -0.52768,0.527686 z"
     fill="#000000"
     fill-rule="evenodd"
     id="path2"
     style="stroke-width:0.527689" />
  <path
     d="m 672.63191,61.27686 -3.69383,-5.804589 -34.82753,2.638447 -1.58307,-7.915341 -6.33228,-3.166142 -2.63845,-28.49525 -10.55379,2.638447 -3.16614,28.49525 -141.94857,-0.527686 -25.32911,1.055381 -1.58306,-18.996834 -14.24763,-7.91535 -89.17958,-4.749208 -34.82753,3.166142 -20.5799,11.609169 1.05538,20.052214 -23.74604,-1.055381 16.88607,-1.583066 1.05538,-8.970731 -39.04905,-1.055372 -8.44303,-14.77532 -7.38766,7.915351 -1.58307,18.469138 8.44304,1.055381 -24.27373,-0.527686 -11.08149,5.276894 -2.11076,10.553798 -0.52768,-6.332275 -2.11077,7.915341 -17.94145,7.915349 -14.77532,2.11076 -12.66455,-7.915348 -15.303,-1.05538 10.55379,-0.527686 -68.071982,3.693828 -40.104425,5.804586 -4.221519,13.19225 9.498417,61.739709 22.162967,4.74921 42.215182,-16.35839 1.05538,10.5538 10.02611,-2.11076 2.63845,-5.2769 -4.22152,-8.44303 35.8829,-20.57991 19.52453,5.80459 15.30301,-15.8307 21.10758,-9.498408 7.38767,2.110758 7.91534,16.88607 h 24.80142 l 12.13687,-21.107589 36.93829,0.52769 3.16613,-5.2769 55.93512,0.52769 2.11077,3.69383 12.13686,-7.38766 169.38843,-1.58307 4.22152,6.33228 7.38766,-0.52769 -27.43987,98.150309 -9.49841,11.08148 12.13686,3.69383 10.0261,-6.33228 -5.27689,-5.80458 26.91217,-82.84731 29.02295,110.28717 -6.85997,11.08149 14.24762,3.16614 8.44304,-5.80459 -8.44304,-11.60918 -25.8568,-111.34254 6.85997,-25.856809 0.52769,5.2769 -0.52769,-10.553801 -5.80459,-0.527685 63.85047,2.110756 5.27689,-5.804584 14.24763,-2.110761 21.63529,2.110761 z m -560.93428,84.95806 v 1.58307 l -0.52769,0.52769 v 0.52769 l -0.52769,0.52769 -0.52769,-0.52769 v -0.52769 l -0.52769,-0.52769 -0.52769,0.52769 v 0.52769 h 1.05538 l 0.52769,0.52769 -0.52769,0.52769 h -1.05538 l -0.52769,0.52769 h -1.05538 l -0.52768,-0.52769 h -1.05538 1.05538 l 0.52768,0.52769 -0.52768,0.52769 h -1.05538 l -0.5277,0.52769 h -1.05538 l -0.52769,0.52769 h -0.52769 l -1.58307,-1.58307 v -2.11076 l 0.52769,-0.52769 0.52769,0.52769 v 1.58307 h 0.52769 l 0.52769,-0.52769 v -1.05538 h -1.05538 l -0.52769,-0.52769 0.52769,-0.52769 h 0.52769 l 0.52769,-0.52769 h 1.05538 l 0.52769,-0.52769 h 2.11076 l 0.52769,-0.52769 h 0.52769 l 0.52769,-0.52769 h 1.58307 z m 101.84413,-43.79825 0.5277,-0.52769 v -1.58307 l 0.52768,-0.527698 0.5277,0.527698 1.05537,-1.055378 v -0.5277 l 1.58307,-1.055371 h -0.52769 l -0.52769,-0.52769 0.52769,-0.52769 h 0.52769 l 0.52769,-0.52769 h 3.69383 l 0.52769,0.52769 v 1.583071 l -0.52769,0.52768 v 4.749208 l 0.52769,0.5277 v 1.05538 l 0.52769,0.52768 v 0.5277 l 0.52769,0.52768 0.52769,1.58307 2.11076,2.11076 -0.52769,0.5277 0.52769,0.52768 -1.05538,1.05538 h -3.69383 16.88607 -8.44303 l -1.58307,-1.58306 v -0.5277 l 0.52769,-0.52768 0.52769,0.52768 0.52769,-0.52768 v -0.5277 0.5277 l -0.52769,0.52768 -0.52769,-0.52768 v -1.05538 l -0.52769,-0.5277 0.52769,-0.52769 v -0.52768 h -0.52769 l -0.52769,0.52768 -1.05538,-1.05538 v -1.05538 l 0.52769,-0.52768 v -1.58308 1.58308 l -0.52769,0.52768 -0.52769,-0.52768 v -4.22152 l 0.52769,-0.52769 0.52769,0.52769 v 1.58307 -1.05538 l 0.52769,-0.52769 -0.52769,-0.52769 0.52769,-0.527698 v -0.52768 l 1.05538,-1.05538 v -0.527691 l 0.52769,-0.52769 h 1.58307 -2.11076 l -0.52769,-0.52769 0.52769,-0.52769 h 12.66456 l 0.52768,0.52769 -0.52768,0.52769 0.52768,0.52769 h 0.5277 l 0.52768,0.527691 0.5277,-0.527691 h 0.52768 l 0.52769,0.527691 v 0.52768 l 1.05538,1.05538 v 1.055388 l -0.52769,0.52769 -0.52769,-0.52769 v -0.52769 l 0.52769,1.58307 v -0.52769 l 0.52769,-0.52769 0.52769,0.52769 v 5.80459 l -1.05538,1.58307 -0.52769,-0.5277 h -0.52769 v 1.05538 l -0.52768,0.5277 0.52768,0.52768 -2.11076,2.11076 h -0.52768 l -0.5277,0.52769 h -1.05538 l -0.52768,0.52769 h -18.46915 l -0.52769,-0.52769 h -1.05538 l -0.52768,-0.52769 -1.58308,-0.52769 -2.11075,-2.11075 0.52768,-1.58308 -0.52768,-0.52769 v -1.05538 1.05538 l -0.5277,0.52769 -0.52768,-0.52769 v -2.11076 l -0.5277,-0.52768 z M 538.071,92.410561 l 0.52769,-0.52769 h 6.33228 l 0.52769,0.52769 -0.52769,0.52769 h -6.33228 z m -194.18985,-0.52769 0.52769,-0.52769 h 4.22152 l 0.52768,0.52769 -1.05537,1.05538 h -2.63845 l -0.52769,-0.52769 h -0.52769 z m 208.43747,-2.11076 0.5277,-0.5277 0.52768,0.5277 h 0.5277 l 0.52768,-0.5277 h 1.05538 l 0.5277,0.5277 -0.5277,0.52769 h -0.52768 0.52768 l 0.5277,0.52769 -0.5277,0.52769 h -1.05538 l -0.52768,-0.52769 h -1.05538 l -0.5277,-0.52769 z m 0,-1.05538 0.5277,-0.52769 h 4.22151 l 0.5277,0.52769 -0.5277,0.52768 h -4.22151 z m -13.19224,0 0.52769,-0.52769 h 4.74921 l 0.52769,0.52769 -0.52769,0.52768 h -4.74921 z m -84.43037,-12.13687 0.52769,-0.52769 h 78.09809 l 0.52769,0.52769 -0.52769,0.52769 H 455.2237 Z m -0.52769,-1.055376 0.52769,-0.527695 h 11.08149 l 1.58307,-1.055371 h 77.5704 l 0.52769,0.527686 -1.05538,1.05538 h -9.49842 l -0.52769,-0.527695 h -0.52769 l -1.58306,1.055381 h -59.10126 l -0.5277,-0.527686 0.5277,-0.527695 h -1.58308 v 0.527695 l -0.52769,0.527686 h -16.35838 z m 178.88684,-5.276903 0.5277,-0.527686 h 7.91535 l 0.52769,0.527686 -0.52769,0.527695 h -7.91535 z m -162.52845,-8.970722 0.52768,-0.527695 h 24.80143 l 0.52768,0.527695 -0.52768,0.527686 h -24.80143 z m 176.24839,-2.638447 0.52769,-0.527695 h 10.5538 l 0.52769,0.527695 -0.52769,0.527686 h -10.5538 z m -92.8734,0 0.52768,-0.527695 h 23.74605 l 1.05538,1.055381 v 0.527695 l -0.52769,0.527685 h -1.05538 l -0.5277,0.527686 h -19.52451 21.10759 l 0.52769,0.527695 -0.52769,0.527686 h -24.27374 l -0.52768,-0.527686 0.52768,-0.527695 h 2.11077 -0.52769 l -0.5277,-0.527686 h -1.05538 l -0.52768,-0.527685 z m -83.37499,1.583066 0.52768,-0.527685 v -1.055381 l 0.52769,-0.527695 h 23.74604 l 0.5277,0.527695 0.52768,-0.527695 1.05538,1.055381 v 0.527695 l -0.52768,0.527685 v 0.527686 l -0.5277,0.527695 -0.52768,-0.527695 v -0.527686 h -1.05538 l -0.52769,0.527686 h -23.21836 z m 68.07198,-1.583066 v 2.110752 l -1.05538,1.055381 h -24.80142 l -0.52769,-0.527686 0.52769,-0.527695 h 24.27374 l 0.52768,-0.527686 -0.52768,0.527686 -0.5277,-0.527686 -0.52768,0.527686 h -23.21836 l -0.52769,0.527695 -1.05538,-1.055381 v -1.583066 l 0.52769,-0.527695 0.52769,0.527695 v 1.055381 -0.527695 l 1.05538,-1.055381 h 23.74605 l 0.52768,-0.527686 z m 15.30301,-1.055381 0.52768,-0.527694 h 23.74605 l 0.52769,0.527694 -0.52769,0.527686 h -23.74605 z m -41.6875,0 0.52769,-0.527694 h 24.27374 l 0.52768,0.527694 -0.52768,0.527686 h -24.27374 z m -42.74287,1.583067 v -0.527686 l 1.58306,-1.583075 h 24.27373 l 0.5277,0.527694 -0.5277,0.527686 h -23.74604 l -1.58307,1.583076 z m -2.11076,-9.498417 0.52768,-0.527686 h 141.42087 l 0.5277,0.527686 -0.5277,0.527695 H 467.88825 Z m -110.81486,-1.583066 0.52768,-0.527695 h 11.60918 l 0.52769,0.527695 -0.52769,0.527686 h -11.60918 z m -17.41377,-0.527695 0.52769,-0.527686 h 3.69383 l 0.52769,0.527686 -0.52769,0.527695 h -3.69383 z m 278.62023,-5.276894 0.52768,-0.527695 h 1.58307 l 0.5277,0.527695 v 1.05538 l -0.5277,0.527686 h -1.58307 l -0.52768,-0.527686 0.52768,-0.527694 h 1.05538 -1.05538 z m 7.91534,-4.221523 0.52769,0.527695 v 7.915341 l -0.52769,0.527695 -0.52769,-0.527695 v -7.915341 z m -8.44304,-16.358377 0.5277,-0.527695 h 2.63845 l 0.52768,0.527695 v 1.055371 l -0.52768,0.527695 -0.5277,-0.527695 v -0.527685 l -0.52769,0.527685 h -0.52769 l -0.52769,-0.527685 v 0.527685 l -0.52768,0.527695 -0.5277,-0.527695 z"
     fill="#000000"
     fill-rule="evenodd"
     id="path3"
     sodipodi:nodetypes="ccccccccccccccccccccccccccccccccccccccccccccccccccccccccccccccccccccccccccccccccccccccccccccccccccccccccccccccccccccccccccccccccccccccccccccccccccccccccccccccccccccccccccccccccccccccccccccccccccccccccccccccccccccccccccccccccccccccccccccccccccccccccccccccccccccccccccccccccccccccccccccccccccccccccccccccccccccccccccccccccccccccccccccccccccccccccccccccccccccccccccccccccccccccccccccccccccccccccccccccccccccccccccccccccccccccccccccccccccccccccccccccccccccccccccccccccccccccccccccc"
     style="stroke-width:0.527689" />
</svg>
