<svg xmlns="http://www.w3.org/2000/svg" width="1254" height="1254" viewBox="0 0 1254 1254">
<rect width="100%" height="100%" fill="white"/>
<path d="M 436,453 L 487,453 L 484,453 L 483,452 L 482,453 L 477,453 L 476,452 L 461,452 L 460,453 L 456,453 L 455,452 L 445,452 L 444,453 Z" fill="black" fill-rule="evenodd"/>
<path d="M 418,453 L 434,453 L 434,452 L 421,452 L 420,453 Z" fill="black" fill-rule="evenodd"/>
<path d="M 1239,495 L 1232,484 L 1166,489 L 1163,474 L 1151,468 L 1146,414 L 1126,419 L 1120,473 L 851,472 L 814,457 L 803,474 L 800,438 L 773,423 L 604,414 L 538,420 L 499,442 L 501,480 L 456,478 L 488,475 L 490,458 L 416,456 L 400,428 L 386,443 L 383,478 L 399,480 L 353,479 L 332,489 L 328,509 L 327,497 L 323,512 L 289,527 L 261,531 L 237,516 L 208,514 L 228,513 L 99,520 L 23,531 L 15,556 L 33,673 L 75,682 L 155,651 L 157,671 L 176,667 L 181,657 L 173,641 L 241,602 L 278,613 L 307,583 L 347,565 L 361,569 L 376,601 L 423,601 L 446,561 L 516,562 L 522,552 L 628,553 L 632,560 L 655,546 L 976,543 L 984,555 L 998,554 L 946,740 L 928,761 L 951,768 L 970,756 L 960,745 L 1011,588 L 1066,797 L 1053,818 L 1080,824 L 1096,813 L 1080,791 L 1031,580 L 1044,531 L 1045,541 L 1044,521 L 1033,520 L 1154,524 L 1164,513 L 1191,509 L 1232,513 Z M 176,656 L 176,659 L 175,660 L 175,661 L 174,662 L 173,661 L 173,660 L 172,659 L 171,660 L 171,661 L 173,661 L 174,662 L 173,663 L 171,663 L 170,664 L 168,664 L 167,663 L 165,663 L 167,663 L 168,664 L 167,665 L 165,665 L 164,666 L 162,666 L 161,667 L 160,667 L 157,664 L 157,660 L 158,659 L 159,660 L 159,663 L 160,663 L 161,662 L 161,660 L 159,660 L 158,659 L 159,658 L 160,658 L 161,657 L 163,657 L 164,656 L 168,656 L 169,655 L 170,655 L 171,654 L 174,654 Z M 369,573 L 370,572 L 370,569 L 371,568 L 372,569 L 374,567 L 374,566 L 377,564 L 376,564 L 375,563 L 376,562 L 377,562 L 378,561 L 385,561 L 386,562 L 386,565 L 385,566 L 385,575 L 386,576 L 386,578 L 387,579 L 387,580 L 388,581 L 389,584 L 393,588 L 392,589 L 393,590 L 391,592 L 384,592 L 416,592 L 400,592 L 397,589 L 397,588 L 398,587 L 399,588 L 400,587 L 400,586 L 400,587 L 399,588 L 398,587 L 398,585 L 397,584 L 398,583 L 398,582 L 397,582 L 396,583 L 394,581 L 394,579 L 395,578 L 395,575 L 395,578 L 394,579 L 393,578 L 393,570 L 394,569 L 395,570 L 395,573 L 395,571 L 396,570 L 395,569 L 396,568 L 396,567 L 398,565 L 398,564 L 399,563 L 402,563 L 398,563 L 397,562 L 398,561 L 422,561 L 423,562 L 422,563 L 423,564 L 424,564 L 425,565 L 426,564 L 427,564 L 428,565 L 428,566 L 430,568 L 430,570 L 429,571 L 428,570 L 428,569 L 429,572 L 429,571 L 430,570 L 431,571 L 431,582 L 429,585 L 428,584 L 427,584 L 427,586 L 426,587 L 427,588 L 423,592 L 422,592 L 421,593 L 419,593 L 418,594 L 383,594 L 382,593 L 380,593 L 379,592 L 376,591 L 372,587 L 373,584 L 372,583 L 372,581 L 372,583 L 371,584 L 370,583 L 370,579 L 369,578 Z M 984,554 L 985,553 L 997,553 L 998,554 L 997,555 L 985,555 Z M 616,553 L 617,552 L 625,552 L 626,553 L 624,555 L 619,555 L 618,554 L 617,554 Z M 1011,549 L 1012,548 L 1013,549 L 1014,549 L 1015,548 L 1017,548 L 1018,549 L 1017,550 L 1016,550 L 1017,550 L 1018,551 L 1017,552 L 1015,552 L 1014,551 L 1012,551 L 1011,550 Z M 1011,547 L 1012,546 L 1020,546 L 1021,547 L 1020,548 L 1012,548 Z M 986,547 L 987,546 L 996,546 L 997,547 L 996,548 L 987,548 Z M 826,524 L 827,523 L 975,523 L 976,524 L 975,525 L 827,525 Z M 825,522 L 826,521 L 847,521 L 850,519 L 997,519 L 998,520 L 996,522 L 978,522 L 977,521 L 976,521 L 973,523 L 861,523 L 860,522 L 861,521 L 858,521 L 858,522 L 857,523 L 826,523 Z M 1164,512 L 1165,511 L 1180,511 L 1181,512 L 1180,513 L 1165,513 Z M 856,495 L 857,494 L 904,494 L 905,495 L 904,496 L 857,496 Z M 1190,490 L 1191,489 L 1211,489 L 1212,490 L 1211,491 L 1191,491 Z M 1014,490 L 1015,489 L 1060,489 L 1062,491 L 1062,492 L 1061,493 L 1059,493 L 1058,494 L 1021,494 L 1061,494 L 1062,495 L 1061,496 L 1015,496 L 1014,495 L 1015,494 L 1019,494 L 1018,494 L 1017,493 L 1015,493 L 1014,492 Z M 856,493 L 857,492 L 857,490 L 858,489 L 903,489 L 904,490 L 905,489 L 907,491 L 907,492 L 906,493 L 906,494 L 905,495 L 904,494 L 904,493 L 902,493 L 901,494 L 857,494 Z M 985,490 L 985,494 L 983,496 L 936,496 L 935,495 L 936,494 L 982,494 L 983,493 L 982,494 L 981,493 L 980,494 L 936,494 L 935,495 L 933,493 L 933,490 L 934,489 L 935,490 L 935,492 L 935,491 L 937,489 L 982,489 L 983,488 Z M 1014,488 L 1015,487 L 1060,487 L 1061,488 L 1060,489 L 1015,489 Z M 935,488 L 936,487 L 982,487 L 983,488 L 982,489 L 936,489 Z M 854,491 L 854,490 L 857,487 L 903,487 L 904,488 L 903,489 L 858,489 L 855,492 Z M 850,473 L 851,472 L 1119,472 L 1120,473 L 1119,474 L 851,474 Z M 640,470 L 641,469 L 663,469 L 664,470 L 663,471 L 641,471 Z M 607,469 L 608,468 L 615,468 L 616,469 L 615,470 L 608,470 Z M 1135,459 L 1136,458 L 1139,458 L 1140,459 L 1140,461 L 1139,462 L 1136,462 L 1135,461 L 1136,460 L 1138,460 L 1136,460 Z M 1150,451 L 1151,452 L 1151,467 L 1150,468 L 1149,467 L 1149,452 Z M 1134,420 L 1135,419 L 1140,419 L 1141,420 L 1141,422 L 1140,423 L 1139,422 L 1139,421 L 1138,422 L 1137,422 L 1136,421 L 1136,422 L 1135,423 L 1134,422 Z" fill="black" fill-rule="evenodd"/>
</svg>