<?xml version="1.0" encoding="UTF-8" standalone="no"?>
<svg
   width="350"
   height="250"
   viewBox="0 0 350 250"
   version="1.1"
   id="svg2"
   sodipodi:docname="luger_p08_black.svg"
   inkscape:version="1.4.2 (f4327f4, 2025-05-13)"
   xmlns:inkscape="http://www.inkscape.org/namespaces/inkscape"
   xmlns:sodipodi="http://sodipodi.sourceforge.net/DTD/sodipodi-0.dtd"
   xmlns="http://www.w3.org/2000/svg"
   xmlns:svg="http://www.w3.org/2000/svg">
  <defs
     id="defs2" />
  <sodipodi:namedview
     id="namedview2"
     pagecolor="#ffffff"
     bordercolor="#000000"
     borderopacity="0.25"
     inkscape:showpageshadow="2"
     inkscape:pageopacity="0.0"
     inkscape:pagecheckerboard="0"
     inkscape:deskcolor="#d1d1d1"
     inkscape:zoom="0.93700159"
     inkscape:cx="381.00255"
     inkscape:cy="332.4434"
     inkscape:window-width="2560"
     inkscape:window-height="1377"
     inkscape:window-x="-8"
     inkscape:window-y="-8"
     inkscape:window-maximized="1"
     inkscape:current-layer="svg2" />
  <path
     d="m 18.108936,62.796801 h 0.543202 v 17.38245 l -0.543202,-1.9012 0.271601,1.6296 0.814802,0.2716 -0.271601,0.54321 0.271601,-0.2716 0.543202,0.5432 h 23.086068 l 1.901206,-1.08641 74.961825,1.62961 2.17281,1.358 -0.54321,0.2716 0.54321,-0.2716 2.1728,2.44441 4.88882,-0.2716 v 0.8148 h -4.88882 4.88882 l 0.2716,1.35801 v -29.60449 l -0.5432,-0.8148 -5.16042,0.2716 -1.9012,2.4444 -1.90121,1.08641 -74.690225,1.358 -2.444407,-1.358 h -1.629605 v -0.5432 l 1.086404,-0.27161 -1.086404,-0.2716 -0.2716,-1.0864 v 1.358 h -0.543202 v -2.4444 l -0.271601,0.2716 -0.543201,-0.5432 0.2716,-0.5432 -3.802411,-3.25921 0.271601,-0.54321 0.271601,0.2716 -1.901206,-1.358 0.271601,-0.5432 0.271601,0.2716 -1.086404,-1.0864 -0.2716,0.2716 -0.543202,-0.5432 0.271601,-0.54321 0.271601,0.27161 -2.444408,-1.90121 0.271601,-0.5432 -2.987609,-0.8148 -1.358004,0.2716 0.271601,0.2716 -1.086403,1.0864 -0.543202,-0.2716 -0.814802,0.8148 0.271601,0.5432 -1.358004,0.81481 0.271601,0.5432 -1.086404,0.5432 v 1.358 h -0.814802 l 0.543202,0.2716 -0.271601,1.08641 -1.358004,1.6296 0.271601,4.88882 -1.901206,0.5432 -0.543202,1.6296 h -0.543201 v -0.8148 z"
     fill="#000000"
     fill-rule="evenodd"
     id="path1"
     style="stroke-width:0.271601" />
  <path
     d="m 130.28007,56.278381 v 43.727729 l 3.80241,3.25921 10.86403,0.2716 -9.23442,0.2716 9.77763,-0.2716 2.1728,1.90121 0.5432,19.28366 5.97522,8.41962 8.41963,4.34561 7.06162,1.35801 12.22203,-0.8148 16.02445,-6.51842 8.41963,0.5432 6.79002,2.98761 7.33322,6.51842 7.60482,13.03683 27.43168,38.02412 6.51842,13.30844 4.61721,17.92568 4.61722,5.1604 4.34561,1.9012 1.6296,-2.9876 0.81481,2.4444 -0.5432,-3.8024 3.80241,-2.716 -2.71601,4.3456 0.5432,3.5308 12.49364,-1.0864 5.70361,3.8024 h 5.43202 l 7.06162,-5.1604 1.358,-7.8764 0.54321,2.4444 0.5432,-2.9876 4.88881,-2.4444 3.53081,-6.79007 -2.71601,-1.6296 1.62961,-0.2716 h -5.16042 l 6.51842,-1.90121 -0.2716,-21.72806 -33.9501,-46.98694 -5.16041,-13.85164 1.0864,-9.23443 6.24682,-8.14802 13.30844,-4.88882 5.70362,-6.246819 5.43201,3.802409 3.80241,-1.901199 0.2716,-2.44441 -6.51842,-5.97522 1.62961,-2.9876 -0.2716,-13.58004 2.44441,-2.44441 3.2592,0.5432 0.54321,-1.90121 -2.98761,-2.9876 -1.62961,-7.06163 -5.16041,-4.07401 -0.8148,-4.61721 -8.69123,-0.5432 -0.8148,3.53081 -4.34562,2.98761 h -8.14802 l -4.34561,1.9012 0.2716,8.41963 -1.0864,-8.14803 -5.97522,-5.97521 -8.69123,-0.54321 -0.2716,-2.4444 -25.25887,-18.74046 -0.54321,-7.06162 -4.88881,-6.51842 -9.77763,-1.9012 1.0864,0.2716 -7.60482,3.53081 -2.98761,5.70361 v 7.33323 l -16.02444,21.99966 -14.93805,-0.8148 -2.98761,3.53081 h -21.45646 l -2.71601,-2.44441 z m 156.17046,164.318529 -0.5432,0.5432 h -0.2716 l -0.8148,0.8148 h -0.2716 l -0.81481,0.8148 h -0.2716 l -0.2716,-0.2716 0.5432,-0.5432 v -0.5432 h -0.2716 l -0.2716,-0.2716 0.5432,-0.5432 h 0.2716 l 0.81481,-0.8148 h 0.2716 l 0.5432,0.5432 v 0.2716 l 0.2716,-0.2716 h 0.2716 z m 0.8148,-8.96287 0.27161,0.2716 v 0.2716 h 0.2716 l 0.2716,0.27161 v 0.2716 l 0.2716,0.2716 v 2.71596 l -0.5432,0.5432 v 1.0864 h 0.2716 v -1.358 l 0.2716,-0.2716 0.2716,0.2716 v 1.0864 l 0.2716,0.2716 v 0.8149 l -0.2716,0.2716 v 0.5432 l -0.5432,0.5432 h -0.2716 l -0.2716,-0.2716 0.5432,-0.5432 v -0.2716 l -0.2716,-0.2716 v 0.2716 l 0.2716,0.2716 -1.08641,1.0864 h -0.2716 l -0.2716,-0.2716 v -0.2716 l -0.2716,-0.2716 0.8148,-0.8148 v -2.4445 l -0.2716,-0.2716 v -2.71596 l 0.2716,-0.2716 v -0.54321 z m 23.90087,-0.2716 0.27161,-0.2716 h 0.8148 v -0.2716 l 0.2716,-0.2716 h 0.2716 l 0.2716,0.2716 h 0.5432 l 0.2716,-0.2716 h 1.35801 l 0.2716,0.2716 -0.2716,0.2716 h -1.08641 l -0.2716,0.2716 h -1.0864 l -0.2716,0.2716 h -1.0864 z m -7.06162,-0.2716 0.2716,-0.2716 0.27161,0.2716 v -0.2716 l 0.2716,-0.2716 0.2716,0.2716 0.2716,-0.2716 0.2716,0.2716 h 0.5432 l 0.2716,0.2716 h 1.0864 l 0.27161,0.2716 -0.27161,0.2716 h -1.0864 l 0.2716,0.2716 -0.2716,0.2716 h 0.8148 l 0.2716,0.27161 -0.2716,0.2716 h -1.9012 l -0.2716,-0.2716 h -0.2716 l -0.2716,-0.27161 0.2716,-0.2716 h 0.2716 l -0.2716,-0.2716 v 0.2716 l -0.2716,0.2716 -0.27161,-0.2716 v -0.2716 l -0.2716,-0.2716 z m 11.13564,-0.5432 0.2716,-0.2716 h 0.8148 l 0.2716,-0.2716 h 1.358 l 0.27161,0.2716 -0.27161,0.2716 h -1.0864 l -0.2716,0.2716 h -1.0864 z m -2.17281,-0.2716 -0.2716,0.2716 h -0.2716 l -0.2716,0.2716 h -1.35801 l -0.2716,0.2716 h -1.0864 0.5432 l 0.2716,0.2716 h 0.8148 l 0.27161,0.2716 -0.27161,0.2716 h -0.8148 l -0.2716,0.2716 h -1.0864 l -0.2716,-0.2716 0.2716,-0.2716 h 0.2716 -0.2716 l -0.2716,-0.2716 h -0.8148 l -0.27161,-0.2716 0.27161,-0.2716 h 1.0864 l 0.2716,-0.2716 h 0.8148 l 0.2716,-0.2716 h 1.08641 l 0.2716,-0.2716 h 1.0864 z m -8.69123,-1.62961 0.27161,0.2716 v 0.27161 l 0.2716,0.2716 v 0.2716 l -0.2716,0.2716 v 0.2716 l -0.54321,0.5432 -0.2716,-0.2716 v -0.2716 l -0.2716,-0.2716 0.2716,-0.2716 h 0.2716 v -0.81481 z m -2.9876,-1.0864 0.2716,-0.2716 h 0.2716 l 1.0864,1.0864 h 0.5432 l 0.2716,-0.2716 0.5432,0.5432 -0.2716,0.2716 h -0.2716 v 0.81481 l -0.2716,0.2716 -0.2716,-0.2716 v -0.2716 z m -10.04923,-0.8148 0.8148,-0.8148 h 0.5432 l 0.2716,0.2716 0.2716,-0.2716 h 0.8148 l 0.27161,0.2716 -0.27161,0.2716 h -0.5432 l -0.2716,0.2716 h -0.2716 l -0.2716,0.2716 h -0.2716 l -0.2716,-0.2716 0.2716,-0.2716 -0.2716,0.2716 0.2716,0.2716 -0.2716,0.2716 h -0.2716 z m 0,-0.8148 0.2716,0.2716 -0.81481,0.8148 h -0.2716 v 0.2716 h 0.2716 l 0.27161,0.2716 -0.54321,0.5432 -0.2716,-0.2716 h -0.2716 v 0.2716 l -0.2716,0.2716 h -0.2716 l -0.2716,0.2716 v 0.2716 l 0.5432,-0.5432 0.5432,0.5432 -0.5432,0.54321 v 0.2716 l -0.2716,0.2716 v 0.2716 l -0.2716,0.2716 v 0.2716 l -0.2716,0.2716 v 0.5432 l -0.2716,0.2716 v 0.81481 l -0.2716,0.2716 -0.2716,-0.2716 v -1.08641 l 0.2716,-0.2716 -0.8148,-0.8148 v -0.5432 l 0.2716,-0.2716 v -0.2716 l 0.5432,-0.54321 v -0.2716 l 0.5432,-0.5432 v -0.2716 l 1.358,-1.358 h 0.2716 l 0.54321,-0.5432 z m 7.60482,0.2716 0.2716,-0.2716 h 0.5432 l 0.2716,-0.2716 h 0.2716 l 0.5432,0.5432 -0.2716,0.2716 0.2716,0.2716 -0.2716,0.2716 h -0.2716 l -0.2716,-0.2716 h -0.2716 l -0.2716,-0.2716 h -0.2716 z m -3.80241,-0.5432 0.2716,-0.27161 h 2.1728 l 0.27161,0.27161 -0.27161,0.2716 h -2.1728 z m -2.71601,-0.27161 0.2716,-0.2716 h 0.2716 l 0.2716,-0.2716 h 0.8148 l 0.27161,0.2716 -0.27161,0.2716 h -0.5432 l -0.2716,0.27161 h -0.5432 z m 1.6296,-0.5432 0.27161,-0.2716 h 1.358 l 0.2716,-0.2716 h 1.0864 l 0.2716,0.2716 h 1.35801 l 0.2716,0.2716 h 0.8148 l 0.2716,0.2716 h 0.2716 l 0.2716,0.2716 -0.2716,0.27161 h -0.5432 l -0.2716,-0.27161 h -0.5432 l -0.2716,0.27161 h -0.2716 l -0.2716,-0.27161 0.2716,-0.2716 h -4.07401 z m -119.50435,-70.073 0.2716,-0.2716 h 2.98761 l 0.2716,0.2716 -0.2716,0.2716 h -2.98761 z m 7.06162,-0.54321 -0.2716,0.27161 h -1.358 l -0.2716,0.2716 h -1.35801 l -0.2716,-0.2716 h -2.71601 l -0.2716,-0.27161 0.2716,-0.2716 h 2.98761 l 0.2716,-0.2716 h 0.54321 l 0.2716,-0.2716 h 0.5432 l 0.2716,0.2716 -0.2716,0.2716 h 1.358 z m 1.62961,-16.56764 0.2716,0.2716 v 1.9012 l -0.2716,0.2716 -0.2716,-0.2716 v -1.9012 z m -23.62927,-15.75285 0.5432,0.2716 -0.2716,0.2716 0.8148,-0.5432 h 0.8148 l 0.81481,0.5432 -1.35801,0.8148 -0.5432,-0.2716 0.2716,-0.2716 -0.5432,0.2716 0.5432,0.2716 -3.80241,3.53081 -0.2716,0.5432 v 1.62961 l 0.8148,0.5432 1.90121,-0.2716 0.2716,0.2716 -0.2716,0.2716 2.1728,-1.9012 -0.2716,-0.54321 0.8148,-0.5432 0.27161,0.2716 -0.27161,-0.2716 0.54321,-0.5432 0.5432,0.2716 -0.2716,0.2716 1.358,-1.358 0.5432,0.2716 -0.2716,0.2716 0.8148,-0.2716 h -0.5432 l -0.2716,-0.2716 1.08641,-0.5432 2.1728,0.2716 h -1.0864 l -0.2716,-0.2716 1.358,-0.5432 h 4.34561 l 1.35801,0.5432 -0.2716,0.2716 h -1.08641 l -0.2716,-0.2716 h -3.53081 3.25921 l 2.17281,0.5432 -0.5432,-0.2716 0.8148,-0.2716 0.8148,0.5432 -0.5432,0.2716 0.5432,-0.2716 1.08641,0.2716 0.2716,0.2716 -0.2716,0.5432 0.5432,-0.5432 1.6296,1.358 -0.2716,0.27161 2.44441,2.716 0.2716,-0.2716 0.5432,0.5432 -0.2716,0.81481 0.2716,-0.5432 0.8148,1.0864 v 0.5432 l -0.2716,0.2716 -0.2716,-0.2716 0.2716,0.5432 0.2716,-0.5432 0.5432,0.8148 -0.2716,1.35801 0.54321,1.6296 v 4.88882 -1.08641 l 0.2716,-0.2716 0.2716,0.2716 -0.2716,2.98761 -0.54321,0.8148 -0.2716,-0.8148 0.2716,1.35801 -0.5432,0.8148 -0.2716,-0.2716 -0.2716,0.2716 0.2716,0.8148 -0.2716,0.2716 -0.2716,-0.2716 -1.0864,1.0864 0.5432,-0.2716 0.2716,0.5432 -1.0864,1.08641 -0.2716,-0.2716 -0.81481,1.358 -0.5432,-0.5432 0.2716,0.5432 -0.5432,0.5432 -3.25921,1.62961 -0.2716,1.358 1.0864,0.8148 -0.5432,0.54321 h -5.16041 2.1728 l 0.2716,0.2716 -0.2716,0.2716 h -2.98761 l -0.2716,-0.2716 h -1.358 l -0.2716,-0.2716 0.5432,-0.27161 -0.5432,-0.2716 -2.17281,0.2716 -4.07401,-1.6296 -0.2716,-0.2716 0.2716,-0.2716 -0.5432,0.2716 -1.0864,-0.8148 0.2716,-0.2716 -0.5432,-0.54321 -1.35801,-0.2716 -1.0864,-1.0864 0.2716,-0.2716 -0.2716,0.2716 -0.5432,-0.5432 0.2716,-0.2716 -0.2716,-0.2716 -0.2716,0.2716 -1.08641,-1.08641 -0.2716,-0.5432 0.2716,-0.2716 -0.2716,0.2716 -0.2716,-0.2716 0.2716,-0.5432 -1.0864,-2.17281 -0.2716,0.54321 -0.2716,-0.27161 0.2716,-1.0864 -0.5432,-1.6296 v 0.5432 l -0.2716,0.2716 -0.27161,-0.2716 0.27161,-1.90121 v 0.8148 l -0.27161,0.27161 -0.5432,-1.35801 v -5.70362 l 0.2716,-0.2716 v -1.0864 l 0.2716,-0.2716 0.27161,0.2716 v 1.358 l 0.2716,-2.1728 1.0864,-2.44441 -0.2716,-0.8148 0.2716,-0.2716 0.2716,0.2716 -0.2716,-0.5432 0.8148,-0.2716 -0.2716,0.2716 -0.2716,-0.5432 0.5432,-0.54321 0.2716,0.2716 1.08641,-1.358 -0.27161,-0.5432 1.08641,-1.0864 0.5432,0.2716 0.8148,-0.81481 -0.2716,-0.2716 0.5432,-0.5432 0.81481,0.2716 -0.27161,-0.5432 z m 32.32049,-0.2716 0.2716,0.2716 v 0.5432 l 0.2716,0.2716 v 0.8148 l -0.2716,0.2716 -0.2716,-0.2716 v -0.2716 l 0.2716,0.81481 0.2716,0.2716 0.27161,-0.2716 0.5432,0.5432 v 0.2716 l 0.5432,0.5432 v 0.2716 l -0.2716,0.2716 -0.2716,-0.2716 0.2716,0.2716 0.2716,-0.2716 0.8148,1.0864 v 0.2716 l -0.2716,0.2716 -0.2716,-0.2716 0.2716,0.2716 0.2716,-0.2716 0.5432,0.54321 v 0.2716 l -0.2716,0.2716 -0.2716,-0.2716 0.2716,0.2716 0.2716,-0.2716 0.2716,0.2716 v 0.2716 l -0.2716,0.2716 0.2716,0.2716 v 0.2716 l 0.2716,0.2716 0.2716,-0.2716 0.27161,0.2716 -0.27161,0.8148 0.27161,0.2716 -0.27161,-0.2716 v -0.2716 l 0.27161,-0.2716 0.5432,0.5432 v 0.2716 l 0.5432,0.81481 v 5.43201 l -0.2716,0.2716 v 1.62961 l -0.2716,0.2716 v 0.8148 l -0.2716,0.2716 -0.2716,-0.2716 v -0.5432 0.2716 l -0.27161,0.2716 v 0.8148 l 0.27161,0.2716 v 0.54321 l -0.27161,0.2716 -0.2716,-0.2716 v -0.2716 0.2716 l -0.2716,0.2716 v 0.2716 -0.2716 l 0.2716,-0.2716 0.2716,0.2716 v 0.5432 l -0.2716,0.2716 v 0.5432 l -0.2716,0.2716 -0.5432,1.35801 -0.5432,0.5432 -0.2716,-0.2716 0.2716,0.2716 v 0.2716 l -0.2716,0.2716 -0.2716,-0.2716 -0.2716,0.2716 v 0.2716 l -0.2716,0.2716 0.2716,0.2716 v 0.2716 l -0.5432,0.5432 -0.2716,-0.2716 -1.35801,1.35801 v 0.2716 l 0.2716,0.2716 -0.5432,0.5432 h -0.2716 l -0.2716,0.2716 -0.2716,-0.2716 -0.2716,0.2716 0.2716,0.2716 -1.62961,1.35801 -0.8148,-0.2716 v 0.5432 l -0.2716,0.2716 -0.2716,-0.2716 h -0.5432 l -0.2716,0.2716 0.2716,0.2716 -0.2716,0.2716 h -0.2716 l -0.2716,0.2716 -0.81481,-0.2716 h 0.2716 l 0.2716,0.2716 -0.2716,0.2716 h -0.5432 l -0.8148,0.5432 h -0.5432 l -0.2716,-0.2716 0.2716,-0.2716 h 0.2716 l -0.2716,-0.2716 v -0.2716 h -0.2716 l -0.2716,0.2716 -0.81481,0.2716 0.2716,0.2716 h 0.81481 l 0.2716,0.2716 -0.2716,0.2716 h -0.81481 l -0.2716,0.2716 h -0.5432 l -0.2716,-0.2716 v -0.2716 h -0.8148 l -0.2716,-0.2716 0.8148,-0.5432 h 0.5432 l 0.2716,-0.2716 1.90121,-0.8148 1.6296,-1.35801 h 0.2716 l 3.25921,-3.25921 v -0.2716 l 0.81481,-0.8148 0.2716,0.2716 -0.2716,-0.2716 v -0.2716 l 0.5432,-0.5432 v -0.2716 l 0.2716,-0.2716 0.2716,0.2716 0.2716,-0.2716 -0.2716,0.2716 -0.2716,-0.2716 v -0.2716 l 0.2716,-0.27161 v -0.2716 l 0.8148,-1.358 v -0.5432 l 0.5432,-0.8148 v -0.81481 l 0.2716,-0.2716 v -0.8148 l 0.27161,-0.2716 v -1.0864 l 0.2716,-0.2716 v -6.24682 l -0.2716,-0.2716 v -1.08641 l -0.27161,-0.2716 v -1.0864 l -0.2716,-0.2716 v -0.5432 l 0.2716,-0.2716 0.27161,0.2716 v 0.2716 -0.5432 l -0.27161,-0.27161 v 0.27161 l -0.2716,0.2716 -0.2716,-0.2716 v -0.54321 l -0.2716,-0.2716 v -0.5432 l 0.2716,-0.2716 v -0.2716 0.2716 l -0.2716,0.2716 -0.5432,-0.8148 v -0.5432 l 0.2716,-0.2716 v -0.2716 0.2716 l -0.2716,0.2716 -0.8148,-1.35801 v -0.5432 l -1.08641,-0.8148 0.27161,-0.2716 h 1.358 l 0.2716,0.2716 h 0.5432 v -0.2716 z m -31.50569,0 0.2716,-0.2716 h 30.96249 l 0.2716,0.2716 -0.2716,0.2716 h -2.1728 l -0.27161,0.2716 h -24.71567 l -0.2716,-0.2716 h -0.2716 l -0.2716,0.2716 h -0.5432 l -0.2716,-0.2716 h -2.17281 z m 108.36872,-19.283659 -0.5432,0.5432 h -0.2716 l -0.2716,0.2716 h -29.60449 l -0.2716,-0.2716 0.5432,-0.5432 h 13.30844 l 0.2716,0.2716 h 14.39484 l 0.2716,-0.2716 h 0.81481 l 0.8148,-0.8148 0.2716,0.2716 v 0.2716 z m 6.51842,-4.61721 -0.5432,0.5432 h -0.2716 l -0.54321,0.5432 h -0.2716 l -0.2716,-0.2716 0.5432,-0.5432 v -0.2716 h -0.2716 l -0.2716,0.2716 h -0.2716 v 0.8148 l -0.2716,0.2716 0.2716,0.2716 -0.2716,0.2716 h -0.2716 l -0.2716,-0.2716 0.2716,0.2716 -1.0864,1.08641 h -0.2716 l -0.2716,0.2716 -0.2716,-0.2716 v -0.2716 l -0.27161,0.2716 h 0.27161 l 0.2716,0.2716 -0.2716,0.2716 h -0.27161 l -0.2716,0.2716 h -0.2716 l -0.5432,-0.5432 v -0.81481 l -0.2716,-0.2716 v -1.6296 l 0.2716,-0.2716 h 1.90121 l 0.2716,-0.2716 h 0.5432 l 0.2716,-0.2716 h 0.5432 l 0.2716,-0.2716 h 0.5432 l 0.2716,-0.2716 h 0.54321 z m -60.56698,-2.44441 0.2716,-0.2716 h 9.50603 l 0.2716,0.2716 h 11.40723 l 0.2716,0.2716 -0.2716,0.2716 h -11.67883 l -0.2716,-0.2716 h -9.23443 z m 63.55459,-1.358 0.2716,0.2716 v 0.2716 l -0.8148,0.8148 v 0.2716 l 0.2716,0.2716 -0.5432,0.5432 h -0.27161 l -0.2716,-0.2716 0.2716,-0.2716 -0.2716,0.2716 0.2716,0.2716 -0.5432,0.54321 h -0.2716 l -0.2716,-0.27161 0.2716,-0.2716 -0.2716,-0.2716 v -0.2716 l 0.2716,-0.2716 h 0.2716 z m -75.77663,0 0.2716,-0.2716 0.27161,0.2716 v 0.2716 h 0.2716 l 0.2716,0.2716 h 1.9012 l 0.2716,0.2716 h 8.41963 l 0.2716,0.2716 -0.2716,0.2716 h -10.86403 l -0.2716,-0.2716 h -0.27161 l -0.2716,-0.2716 z m 79.57904,-6.51842 0.2716,0.2716 v 0.5432 l -0.2716,0.2716 v 0.8148 l -0.2716,0.2716 v 0.54321 l -0.2716,0.2716 v 0.5432 l -0.2716,0.2716 v 0.2716 l -0.2716,0.2716 v 0.2716 l -0.54321,0.5432 -0.2716,-0.2716 h -0.2716 l -0.2716,-0.2716 0.5432,-0.5432 v -0.2716 l 0.2716,-0.2716 v -0.5432 l 0.27161,-0.2716 v -0.27161 l 0.2716,-0.2716 0.2716,0.2716 -0.2716,-0.2716 v -0.5432 l 0.2716,-0.2716 v -0.8148 l 0.2716,-0.2716 h 0.2716 z m -25.53048,-5.70362 0.2716,0.2716 v 0.8148 l -0.2716,0.2716 v 0.27161 l -0.2716,0.2716 -0.8148,-0.81481 0.2716,-0.2716 h 0.5432 v -0.5432 z m 11.13564,-1.358 h 2.716 l 0.27161,0.2716 h 0.2716 l 0.2716,0.2716 h 0.2716 l 0.2716,0.2716 h 0.2716 l 1.0864,1.0864 v 0.2716 l 0.2716,0.2716 v 0.2716 l 0.2716,0.27161 v 0.5432 l 0.2716,0.2716 v 2.1728 l -0.2716,0.2716 -0.2716,-0.2716 v -0.5432 0.5432 l 0.2716,0.2716 v 0.54321 l -0.2716,0.2716 v 0.2716 l -0.2716,0.2716 v 0.2716 l -1.358,1.358 h -0.2716 l -0.2716,0.2716 h -0.2716 l -0.2716,0.27161 h -0.81481 l -0.2716,0.2716 h -1.358 l -0.2716,-0.2716 h -0.5432 l -0.27161,-0.27161 h -0.2716 l -0.2716,-0.2716 h -0.2716 l -0.5432,-0.5432 0.2716,-0.2716 v -0.2716 h -0.2716 l -0.5432,-0.5432 v -0.2716 0.2716 l -0.2716,0.2716 -0.5432,-0.5432 v -0.5432 l -0.2716,-0.2716 v -0.81481 l 0.2716,-0.2716 0.2716,0.2716 v 0.5432 -2.716 l -0.2716,-0.2716 v -0.54321 l 0.2716,-0.2716 v -0.2716 l 0.5432,-0.5432 0.2716,0.2716 0.5432,-0.5432 -0.2716,-0.2716 0.2716,-0.2716 h 0.2716 l 0.2716,-0.2716 h 0.2716 l 0.2716,0.2716 h 0.27161 l 0.2716,-0.2716 h 1.0864 -1.0864 l -0.2716,-0.2716 z m -5.70362,-6.24682 0.2716,0.2716 -0.8148,0.8148 h -0.2716 l -1.62961,1.62961 -0.2716,-0.2716 v -0.27161 l 1.62961,-1.6296 h 0.2716 l 0.5432,-0.5432 z m 2.44441,-0.8148 -0.2716,0.2716 h -0.2716 l -0.27161,0.2716 h -0.2716 l -0.2716,0.2716 h -0.2716 l -0.2716,0.2716 h -0.2716 l -0.2716,-0.2716 0.5432,-0.5432 h 0.2716 l 0.2716,-0.2716 h 0.2716 l 0.2716,-0.27161 h 0.54321 z m -0.2716,-0.27161 0.2716,-0.2716 h 0.2716 l 0.2716,-0.2716 h 0.8148 l 0.2716,0.2716 -0.2716,0.2716 h -0.5432 l -0.2716,0.27161 h -0.5432 z m -8.69123,9.23443 -0.5432,0.2716 -2.17281,-1.9012 h -0.8148 l -2.44441,1.9012 -2.98761,1.35801 -1.9012,1.6296 h -1.62961 l -0.2716,0.2716 h -26.07367 l -0.2716,0.2716 h -2.44441 l -0.2716,-0.2716 h -2.71601 l -0.2716,0.2716 -7.06162,-0.2716 -0.5432,0.5432 -0.27161,-0.5432 -0.2716,0.5432 -0.8148,-0.8148 h -2.1728 l -0.54321,-0.5432 v -10.04923 l 0.2716,-0.2716 0.54321,0.2716 -0.2716,0.5432 v 8.96283 l 0.5432,0.5432 h 4.07401 l 0.2716,0.2716 h 3.80241 l 0.5432,-0.2716 0.2716,0.2716 h 2.17281 l 0.8148,-0.5432 0.5432,0.5432 h 0.54321 l -1.08641,-0.5432 0.8148,-1.0864 0.54321,0.2716 v -0.2716 l -0.2716,0.2716 -0.27161,-0.5432 0.81481,-1.08641 0.2716,0.5432 0.8148,-1.0864 -0.2716,-0.8148 0.8148,-0.2716 -0.2716,-0.5432 1.0864,-1.35801 h 0.54321 l 0.5432,-1.0864 -0.2716,-0.5432 0.5432,-0.5432 0.2716,0.2716 0.8148,-1.08641 -0.2716,0.2716 -0.2716,-0.2716 0.8148,-1.358 0.5432,0.2716 -0.2716,-0.8148 0.5432,-0.5432 0.27161,0.2716 -0.27161,-0.2716 0.54321,-0.81481 0.2716,0.2716 0.8148,-1.0864 -0.2716,-0.5432 0.5432,-0.5432 0.2716,0.2716 0.8148,-1.35801 -0.2716,-0.2716 0.2716,-0.5432 0.81481,-0.2716 -0.2716,-0.2716 0.2716,-0.8148 1.6296,-1.62961 0.2716,0.2716 1.0864,-1.6296 -0.2716,-0.2716 0.2716,-0.5432 0.81481,-0.2716 -0.2716,0.2716 -0.2716,-0.2716 0.8148,-1.35801 2.98761,-0.2716 3.25921,-1.0864 0.2716,0.2716 -0.2716,0.2716 -2.17281,0.8148 0.5432,0.8148 -0.2716,0.2716 2.17281,1.90121 0.2716,-0.2716 1.358,1.0864 -0.2716,0.2716 2.71601,2.44441 -0.2716,-0.2716 0.5432,-0.2716 0.8148,0.8148 -0.2716,0.2716 0.2716,-0.2716 1.35801,1.08641 -0.2716,0.2716 0.2716,0.5432 2.1728,1.6296 0.5432,-0.2716 0.54321,0.5432 -0.2716,0.2716 2.4444,2.17281 0.5432,-0.2716 0.54321,0.5432 -0.27161,0.2716 2.71601,2.44441 -0.5432,-0.5432 0.2716,-0.2716 1.08641,0.8148 -0.27161,0.2716 0.27161,0.2716 0.2716,-0.2716 1.0864,0.8148 -0.2716,0.2716 0.5432,0.81481 0.8148,-0.27161 z m -15.75285,-27.97488 0.2716,0.2716 v 0.5432 l -0.2716,0.2716 v 0.2716 l -0.2716,0.2716 v 0.2716 l -0.5432,0.54321 v 0.2716 l -2.71601,2.71601 h -0.2716 l -0.5432,0.5432 h -0.2716 l -0.2716,0.2716 h -0.2716 l -0.2716,0.2716 h -0.2716 l -0.2716,-0.2716 0.5432,-0.5432 h 0.2716 l 0.2716,-0.2716 h 0.2716 l 0.8148,-0.81481 h 0.2716 l 1.90121,-1.9012 v -0.2716 l 0.8148,-0.81481 v -0.2716 l 0.2716,-0.2716 v -0.2716 l 0.2716,-0.2716 v -0.2716 z m -13.30844,-10.04923 h 1.08641 l 0.2716,-0.2716 h 0.5432 l 0.2716,0.2716 h 1.0864 l 0.27161,0.2716 h 0.2716 l 0.2716,0.2716 h 0.2716 l 0.5432,0.5432 -0.2716,0.2716 0.2716,0.2716 v 0.27161 h 0.2716 l 0.2716,-0.27161 0.5432,0.54321 v 0.2716 l -0.2716,0.2716 v 0.2716 -0.2716 l 0.2716,-0.2716 0.2716,0.2716 v 0.2716 l 0.2716,0.2716 v 0.8148 l 0.2716,0.2716 v 0.8148 l -0.2716,0.27161 v 1.0864 l -0.2716,0.2716 v 0.2716 l -0.2716,0.2716 -0.2716,-0.2716 v -0.2716 0.2716 l -0.2716,0.2716 v 0.2716 l -0.8148,0.8148 h -0.2716 l -0.5432,0.54321 h -0.81481 l -0.2716,0.2716 h 0.5432 l 0.27161,0.2716 -0.27161,0.2716 h -2.9876 l -0.27161,-0.2716 0.27161,-0.2716 h 0.2716 l -0.2716,-0.2716 h -0.54321 0.2716 l 0.27161,0.2716 -0.27161,0.2716 h -0.5432 l -0.5432,-0.5432 0.2716,-0.2716 v -0.27161 h -0.5432 l -0.2716,-0.2716 v -0.5432 l -0.2716,0.2716 -0.2716,-0.2716 -0.2716,0.2716 -0.2716,-0.2716 v -0.2716 l 0.2716,-0.2716 v -0.2716 0.2716 l -0.2716,0.2716 -0.2716,-0.2716 v -0.2716 l -0.2716,-0.2716 v -0.8148 l -0.27161,-0.2716 v -1.08641 l 0.27161,-0.2716 v -0.8148 l 0.2716,-0.2716 v -0.2716 l 0.2716,-0.2716 v -0.2716 l 1.358,-1.35801 h 0.2716 l 0.5432,-0.5432 h 0.2716 z"
     fill="#000000"
     fill-rule="evenodd"
     id="path2"
     style="stroke-width:0.271601" />
</svg>
