<svg xmlns="http://www.w3.org/2000/svg" width="1254" height="1254" viewBox="0 0 1254 1254">
<rect width="100%" height="100%" fill="white"/>
<path d="M 64,389 L 66,389 L 66,453 L 64,446 L 65,452 L 68,453 L 67,455 L 68,454 L 70,456 L 155,456 L 162,452 L 438,458 L 446,463 L 444,464 L 446,463 L 454,472 L 472,471 L 472,474 L 454,474 L 472,474 L 473,479 L 473,370 L 471,367 L 452,368 L 445,377 L 438,381 L 163,386 L 154,381 L 148,381 L 148,379 L 152,378 L 148,377 L 147,373 L 147,378 L 145,378 L 145,369 L 144,370 L 142,368 L 143,366 L 129,354 L 130,352 L 131,353 L 124,348 L 125,346 L 126,347 L 122,343 L 121,344 L 119,342 L 120,340 L 121,341 L 112,334 L 113,332 L 102,329 L 97,330 L 98,331 L 94,335 L 92,334 L 89,337 L 90,339 L 85,342 L 86,344 L 82,346 L 82,351 L 79,351 L 81,352 L 80,356 L 75,362 L 76,380 L 69,382 L 67,388 L 65,388 L 65,385 Z" fill="black" fill-rule="evenodd"/>
<path d="M 477,365 L 477,526 L 491,538 L 531,539 L 497,540 L 533,539 L 541,546 L 543,617 L 565,648 L 596,664 L 622,669 L 667,666 L 726,642 L 757,644 L 782,655 L 809,679 L 837,727 L 938,867 L 962,916 L 979,982 L 996,1001 L 1012,1008 L 1018,997 L 1021,1006 L 1019,992 L 1033,982 L 1023,998 L 1025,1011 L 1071,1007 L 1092,1021 L 1112,1021 L 1138,1002 L 1143,973 L 1145,982 L 1147,971 L 1165,962 L 1178,937 L 1168,931 L 1174,930 L 1155,930 L 1179,923 L 1178,843 L 1053,670 L 1034,619 L 1038,585 L 1061,555 L 1110,537 L 1131,514 L 1151,528 L 1165,521 L 1166,512 L 1142,490 L 1148,479 L 1147,429 L 1156,420 L 1168,422 L 1170,415 L 1159,404 L 1153,378 L 1134,363 L 1131,346 L 1099,344 L 1096,357 L 1080,368 L 1050,368 L 1034,375 L 1035,406 L 1031,376 L 1009,354 L 977,352 L 976,343 L 883,274 L 881,248 L 863,224 L 827,217 L 831,218 L 803,231 L 792,252 L 792,279 L 733,360 L 678,357 L 667,370 L 588,370 L 578,361 Z M 1052,970 L 1050,972 L 1049,972 L 1046,975 L 1045,975 L 1042,978 L 1041,978 L 1040,977 L 1042,975 L 1042,973 L 1041,973 L 1040,972 L 1042,970 L 1043,970 L 1046,967 L 1047,967 L 1049,969 L 1049,970 L 1050,969 L 1051,969 Z M 1055,937 L 1056,938 L 1056,939 L 1057,939 L 1058,940 L 1058,941 L 1059,942 L 1059,952 L 1057,954 L 1057,958 L 1058,958 L 1058,953 L 1059,952 L 1060,953 L 1060,957 L 1061,958 L 1061,961 L 1060,962 L 1060,964 L 1058,966 L 1057,966 L 1056,965 L 1058,963 L 1058,962 L 1057,961 L 1057,962 L 1058,963 L 1054,967 L 1053,967 L 1052,966 L 1052,965 L 1051,964 L 1054,961 L 1054,952 L 1053,951 L 1053,941 L 1054,940 L 1054,938 Z M 1143,936 L 1144,935 L 1147,935 L 1147,934 L 1148,933 L 1149,933 L 1150,934 L 1152,934 L 1153,933 L 1158,933 L 1159,934 L 1158,935 L 1154,935 L 1153,936 L 1149,936 L 1148,937 L 1144,937 Z M 1117,935 L 1118,934 L 1119,935 L 1119,934 L 1120,933 L 1121,934 L 1122,933 L 1123,934 L 1125,934 L 1126,935 L 1130,935 L 1131,936 L 1130,937 L 1126,937 L 1127,938 L 1126,939 L 1129,939 L 1130,940 L 1129,941 L 1122,941 L 1121,940 L 1120,940 L 1119,939 L 1120,938 L 1121,938 L 1120,937 L 1120,938 L 1119,939 L 1118,938 L 1118,937 L 1117,936 Z M 1158,933 L 1159,932 L 1162,932 L 1163,931 L 1168,931 L 1169,932 L 1168,933 L 1164,933 L 1163,934 L 1159,934 Z M 1150,932 L 1149,933 L 1148,933 L 1147,934 L 1142,934 L 1141,935 L 1137,935 L 1139,935 L 1140,936 L 1143,936 L 1144,937 L 1143,938 L 1140,938 L 1139,939 L 1135,939 L 1134,938 L 1135,937 L 1136,937 L 1135,937 L 1134,936 L 1131,936 L 1130,935 L 1131,934 L 1135,934 L 1136,933 L 1139,933 L 1140,932 L 1144,932 L 1145,931 L 1149,931 Z M 1118,926 L 1119,927 L 1119,928 L 1120,929 L 1120,930 L 1119,931 L 1119,932 L 1117,934 L 1116,933 L 1116,932 L 1115,931 L 1116,930 L 1117,930 L 1117,927 Z M 1107,922 L 1108,921 L 1109,921 L 1113,925 L 1115,925 L 1116,924 L 1118,926 L 1117,927 L 1116,927 L 1116,930 L 1115,931 L 1114,930 L 1114,929 Z M 1070,919 L 1073,916 L 1075,916 L 1076,917 L 1077,916 L 1080,916 L 1081,917 L 1080,918 L 1078,918 L 1077,919 L 1076,919 L 1075,920 L 1074,920 L 1073,919 L 1074,918 L 1073,919 L 1074,920 L 1073,921 L 1072,921 Z M 1070,916 L 1071,917 L 1068,920 L 1067,920 L 1067,921 L 1068,921 L 1069,922 L 1067,924 L 1066,923 L 1065,923 L 1065,924 L 1064,925 L 1063,925 L 1062,926 L 1062,927 L 1064,925 L 1066,927 L 1064,929 L 1064,930 L 1063,931 L 1063,932 L 1062,933 L 1062,934 L 1061,935 L 1061,937 L 1060,938 L 1060,941 L 1059,942 L 1058,941 L 1058,937 L 1059,936 L 1056,933 L 1056,931 L 1057,930 L 1057,929 L 1059,927 L 1059,926 L 1061,924 L 1061,923 L 1066,918 L 1067,918 L 1069,916 Z M 1098,917 L 1099,916 L 1101,916 L 1102,915 L 1103,915 L 1105,917 L 1104,918 L 1105,919 L 1104,920 L 1103,920 L 1102,919 L 1101,919 L 1100,918 L 1099,918 Z M 1084,915 L 1085,914 L 1093,914 L 1094,915 L 1093,916 L 1085,916 Z M 1074,914 L 1075,913 L 1076,913 L 1077,912 L 1080,912 L 1081,913 L 1080,914 L 1078,914 L 1077,915 L 1075,915 Z M 1080,912 L 1081,911 L 1086,911 L 1087,910 L 1091,910 L 1092,911 L 1097,911 L 1098,912 L 1101,912 L 1102,913 L 1103,913 L 1104,914 L 1103,915 L 1101,915 L 1100,914 L 1098,914 L 1097,915 L 1096,915 L 1095,914 L 1096,913 L 1081,913 Z M 640,654 L 641,653 L 652,653 L 653,654 L 652,655 L 641,655 Z M 666,652 L 665,653 L 660,653 L 659,654 L 654,654 L 653,653 L 643,653 L 642,652 L 643,651 L 654,651 L 655,650 L 657,650 L 658,649 L 660,649 L 661,650 L 660,651 L 665,651 Z M 672,591 L 673,592 L 673,599 L 672,600 L 671,599 L 671,592 Z M 585,533 L 587,534 L 586,535 L 589,533 L 592,533 L 595,535 L 590,538 L 588,537 L 589,536 L 587,537 L 589,538 L 575,551 L 574,553 L 574,559 L 577,561 L 584,560 L 585,561 L 584,562 L 592,555 L 591,553 L 594,551 L 595,552 L 594,551 L 596,549 L 598,550 L 597,551 L 602,546 L 604,547 L 603,548 L 606,547 L 604,547 L 603,546 L 607,544 L 615,545 L 611,545 L 610,544 L 615,542 L 631,542 L 636,544 L 635,545 L 631,545 L 630,544 L 617,544 L 629,544 L 637,546 L 635,545 L 638,544 L 641,546 L 639,547 L 641,546 L 645,547 L 646,548 L 645,550 L 647,548 L 653,553 L 652,554 L 661,564 L 662,563 L 664,565 L 663,568 L 664,566 L 667,570 L 667,572 L 666,573 L 665,572 L 666,574 L 667,572 L 669,575 L 668,580 L 670,586 L 670,604 L 670,600 L 671,599 L 672,600 L 671,611 L 669,614 L 668,611 L 669,616 L 667,619 L 666,618 L 665,619 L 666,622 L 665,623 L 664,622 L 660,626 L 662,625 L 663,627 L 659,631 L 658,630 L 655,635 L 653,633 L 654,635 L 652,637 L 640,643 L 639,648 L 643,651 L 641,653 L 622,653 L 630,653 L 631,654 L 630,655 L 619,655 L 618,654 L 613,654 L 612,653 L 614,652 L 612,651 L 604,652 L 589,646 L 588,645 L 589,644 L 587,645 L 583,642 L 584,641 L 582,639 L 577,638 L 573,634 L 574,633 L 573,634 L 571,632 L 572,631 L 571,630 L 570,631 L 566,627 L 565,625 L 566,624 L 565,625 L 564,624 L 565,622 L 561,614 L 560,616 L 559,615 L 560,611 L 558,605 L 558,607 L 557,608 L 556,607 L 557,600 L 557,603 L 556,604 L 554,599 L 554,578 L 555,577 L 555,573 L 556,572 L 557,573 L 557,578 L 558,570 L 562,561 L 561,558 L 562,557 L 563,558 L 562,556 L 565,555 L 564,556 L 563,554 L 565,552 L 566,553 L 570,548 L 569,546 L 573,542 L 575,543 L 578,540 L 577,539 L 579,537 L 582,538 L 581,536 Z M 704,532 L 705,533 L 705,535 L 706,536 L 706,539 L 705,540 L 704,539 L 704,538 L 705,541 L 706,542 L 707,541 L 709,543 L 709,544 L 711,546 L 711,547 L 710,548 L 709,547 L 710,548 L 711,547 L 714,551 L 714,552 L 713,553 L 712,552 L 713,553 L 714,552 L 716,554 L 716,555 L 715,556 L 714,555 L 715,556 L 716,555 L 717,556 L 717,557 L 716,558 L 717,559 L 717,560 L 718,561 L 719,560 L 720,561 L 719,564 L 720,565 L 719,564 L 719,563 L 720,562 L 722,564 L 722,565 L 724,568 L 724,588 L 723,589 L 723,595 L 722,596 L 722,599 L 721,600 L 720,599 L 720,597 L 720,598 L 719,599 L 719,602 L 720,603 L 720,605 L 719,606 L 718,605 L 718,604 L 718,605 L 717,606 L 717,607 L 717,606 L 718,605 L 719,606 L 719,608 L 718,609 L 718,611 L 717,612 L 715,617 L 713,619 L 712,618 L 713,619 L 713,620 L 712,621 L 711,620 L 710,621 L 710,622 L 709,623 L 710,624 L 710,625 L 708,627 L 707,626 L 702,631 L 702,632 L 703,633 L 701,635 L 700,635 L 699,636 L 698,635 L 697,636 L 698,637 L 692,642 L 689,641 L 689,643 L 688,644 L 687,643 L 685,643 L 684,644 L 685,645 L 684,646 L 683,646 L 682,647 L 679,646 L 680,646 L 681,647 L 680,648 L 678,648 L 675,650 L 673,650 L 672,649 L 673,648 L 674,648 L 673,647 L 673,646 L 672,646 L 671,647 L 668,648 L 669,649 L 672,649 L 673,650 L 672,651 L 669,651 L 668,652 L 666,652 L 665,651 L 665,650 L 662,650 L 661,649 L 664,647 L 666,647 L 667,646 L 674,643 L 680,638 L 681,638 L 693,626 L 693,625 L 696,622 L 697,623 L 696,622 L 696,621 L 698,619 L 698,618 L 699,617 L 700,618 L 701,617 L 700,618 L 699,617 L 699,616 L 700,615 L 700,614 L 703,609 L 703,607 L 705,604 L 705,601 L 706,600 L 706,597 L 707,596 L 707,592 L 708,591 L 708,568 L 707,567 L 707,563 L 706,562 L 706,558 L 705,557 L 705,555 L 706,554 L 707,555 L 707,556 L 707,554 L 706,553 L 706,554 L 705,555 L 704,554 L 704,552 L 703,551 L 703,549 L 704,548 L 704,547 L 704,548 L 703,549 L 701,546 L 701,544 L 702,543 L 702,542 L 702,543 L 701,544 L 698,539 L 698,537 L 694,534 L 695,533 L 700,533 L 701,534 L 703,534 L 703,533 Z M 588,532 L 589,531 L 703,531 L 704,532 L 703,533 L 695,533 L 694,534 L 603,534 L 602,533 L 601,533 L 600,534 L 598,534 L 597,533 L 589,533 Z M 987,461 L 985,463 L 984,463 L 983,464 L 874,464 L 873,463 L 875,461 L 924,461 L 925,462 L 978,462 L 979,461 L 982,461 L 985,458 L 986,459 L 986,460 Z M 1011,444 L 1009,446 L 1008,446 L 1006,448 L 1005,448 L 1004,447 L 1006,445 L 1006,444 L 1005,444 L 1004,445 L 1003,445 L 1003,448 L 1002,449 L 1003,450 L 1002,451 L 1001,451 L 1000,450 L 1001,451 L 997,455 L 996,455 L 995,456 L 994,455 L 994,454 L 993,455 L 994,455 L 995,456 L 994,457 L 993,457 L 992,458 L 991,458 L 989,456 L 989,453 L 988,452 L 988,446 L 989,445 L 996,445 L 997,444 L 999,444 L 1000,443 L 1002,443 L 1003,442 L 1005,442 L 1006,441 L 1008,441 Z M 788,435 L 789,434 L 824,434 L 825,435 L 867,435 L 868,436 L 867,437 L 824,437 L 823,436 L 789,436 Z M 1022,430 L 1023,431 L 1023,432 L 1020,435 L 1020,436 L 1021,437 L 1019,439 L 1018,439 L 1017,438 L 1018,437 L 1017,438 L 1018,439 L 1016,441 L 1015,441 L 1014,440 L 1015,439 L 1014,438 L 1014,437 L 1015,436 L 1016,436 Z M 743,430 L 744,429 L 745,430 L 745,431 L 746,431 L 747,432 L 754,432 L 755,433 L 786,433 L 787,434 L 786,435 L 746,435 L 745,434 L 744,434 L 743,433 Z M 1036,406 L 1037,407 L 1037,409 L 1036,410 L 1036,413 L 1035,414 L 1035,416 L 1034,417 L 1034,419 L 1033,420 L 1033,421 L 1032,422 L 1032,423 L 1030,425 L 1029,424 L 1028,424 L 1027,423 L 1029,421 L 1029,420 L 1030,419 L 1030,417 L 1031,416 L 1031,415 L 1032,414 L 1033,415 L 1032,414 L 1032,412 L 1033,411 L 1033,408 L 1034,407 L 1035,407 Z M 942,385 L 943,386 L 943,389 L 942,390 L 942,391 L 941,392 L 938,389 L 939,388 L 941,388 L 941,386 Z M 983,380 L 993,380 L 994,381 L 995,381 L 996,382 L 997,382 L 998,383 L 999,383 L 1003,387 L 1003,388 L 1004,389 L 1004,390 L 1005,391 L 1005,393 L 1006,394 L 1006,402 L 1005,403 L 1004,402 L 1004,400 L 1004,402 L 1005,403 L 1005,405 L 1004,406 L 1004,407 L 1003,408 L 1003,409 L 998,414 L 997,414 L 996,415 L 995,415 L 994,416 L 991,416 L 990,417 L 985,417 L 984,416 L 982,416 L 981,415 L 980,415 L 979,414 L 978,414 L 976,412 L 977,411 L 977,410 L 976,410 L 974,408 L 974,407 L 974,408 L 973,409 L 971,407 L 971,405 L 970,404 L 970,401 L 971,400 L 972,401 L 972,403 L 972,393 L 971,392 L 971,390 L 972,389 L 972,388 L 974,386 L 975,387 L 977,385 L 976,384 L 977,383 L 978,383 L 979,382 L 980,382 L 981,383 L 982,383 L 983,382 L 987,382 L 983,382 L 982,381 Z M 962,357 L 963,358 L 960,361 L 959,361 L 953,367 L 952,366 L 952,365 L 958,359 L 959,359 L 961,357 Z M 971,354 L 970,355 L 969,355 L 968,356 L 967,356 L 966,357 L 965,357 L 964,358 L 963,358 L 962,357 L 964,355 L 965,355 L 966,354 L 967,354 L 968,353 L 970,353 Z M 970,353 L 971,352 L 972,352 L 973,351 L 976,351 L 977,352 L 976,353 L 974,353 L 973,354 L 971,354 Z M 938,387 L 936,388 L 928,381 L 925,381 L 916,388 L 905,393 L 898,399 L 892,399 L 891,400 L 795,400 L 794,401 L 785,401 L 784,400 L 774,400 L 773,401 L 747,400 L 745,402 L 744,400 L 743,402 L 740,399 L 732,399 L 730,397 L 730,360 L 731,359 L 733,360 L 732,362 L 732,395 L 734,397 L 749,397 L 750,398 L 764,398 L 766,397 L 767,398 L 775,398 L 778,396 L 780,398 L 782,398 L 778,396 L 781,392 L 783,393 L 783,392 L 782,393 L 781,391 L 784,387 L 785,389 L 788,385 L 787,382 L 790,381 L 789,379 L 793,374 L 795,374 L 797,370 L 796,368 L 798,366 L 799,367 L 802,363 L 801,364 L 800,363 L 803,358 L 805,359 L 804,356 L 806,354 L 807,355 L 806,354 L 808,351 L 809,352 L 812,348 L 811,346 L 813,344 L 814,345 L 817,340 L 816,339 L 817,337 L 820,336 L 819,335 L 820,332 L 826,326 L 827,327 L 831,321 L 830,320 L 831,318 L 834,317 L 833,318 L 832,317 L 835,312 L 846,311 L 858,307 L 859,308 L 858,309 L 850,312 L 852,315 L 851,316 L 859,323 L 860,322 L 865,326 L 864,327 L 874,336 L 873,335 L 875,334 L 878,337 L 877,338 L 878,337 L 883,341 L 882,342 L 883,344 L 891,350 L 893,349 L 895,351 L 894,352 L 903,360 L 905,359 L 907,361 L 906,362 L 916,371 L 914,369 L 915,368 L 919,371 L 918,372 L 919,373 L 920,372 L 924,375 L 923,376 L 925,379 L 928,378 Z M 880,284 L 881,285 L 881,287 L 880,288 L 880,289 L 879,290 L 879,291 L 877,293 L 877,294 L 867,304 L 866,304 L 864,306 L 863,306 L 862,307 L 861,307 L 860,308 L 859,308 L 858,307 L 860,305 L 861,305 L 862,304 L 863,304 L 866,301 L 867,301 L 874,294 L 874,293 L 877,290 L 877,289 L 878,288 L 878,287 L 879,286 L 879,285 Z M 831,247 L 835,247 L 836,246 L 838,246 L 839,247 L 843,247 L 844,248 L 845,248 L 846,249 L 847,249 L 849,251 L 848,252 L 849,253 L 849,254 L 850,254 L 851,253 L 853,255 L 853,256 L 852,257 L 852,258 L 852,257 L 853,256 L 854,257 L 854,258 L 855,259 L 855,262 L 856,263 L 856,266 L 855,267 L 855,271 L 854,272 L 854,273 L 853,274 L 852,273 L 852,272 L 852,273 L 851,274 L 851,275 L 848,278 L 847,278 L 845,280 L 842,280 L 841,281 L 843,281 L 844,282 L 843,283 L 832,283 L 831,282 L 832,281 L 833,281 L 832,280 L 830,280 L 831,280 L 832,281 L 831,282 L 829,282 L 827,280 L 828,279 L 828,278 L 826,278 L 825,277 L 825,275 L 824,276 L 823,275 L 822,276 L 821,275 L 821,274 L 822,273 L 822,272 L 822,273 L 821,274 L 820,273 L 820,272 L 819,271 L 819,268 L 818,267 L 818,263 L 819,262 L 819,259 L 820,258 L 820,257 L 821,256 L 821,255 L 826,250 L 827,250 L 829,248 L 830,248 Z" fill="black" fill-rule="evenodd"/>
</svg>