<svg xmlns="http://www.w3.org/2000/svg" viewBox="0 0 108 83" width="108" height="83">
  <path d="M 11.00 19.00 L 11.00 24.00 L 16.00 24.00 L 17.00 23.00 L 23.00 23.00 L 24.00 24.00 L 26.00 24.00 L 27.00 25.00 L 27.00 31.00 L 31.00 33.00 L 33.00 35.00 L 33.00 37.00 L 34.00 38.00 L 33.00 44.00 L 22.00 65.00 L 22.00 69.00 L 23.00 71.00 L 25.00 71.00 L 27.00 73.00 L 27.00 75.00 L 28.00 76.00 L 36.00 76.00 L 37.00 75.00 L 39.00 75.00 L 41.00 73.00 L 41.00 70.00 L 45.00 64.00 L 46.00 60.00 L 54.00 48.00 L 67.00 48.00 L 70.00 45.00 L 70.00 41.00 L 74.00 37.00 L 80.00 37.00 L 82.00 38.00 L 84.00 36.00 L 86.00 32.00 L 86.00 29.00 L 88.00 27.00 L 96.00 27.00 L 97.00 28.00 L 101.00 28.00 L 102.00 27.00 L 102.00 21.00 L 101.00 20.00 L 101.00 18.00 L 98.00 18.00 L 95.00 22.00 L 89.00 22.00 L 88.00 21.00 L 86.00 21.00 L 83.00 18.00 L 79.00 18.00 L 74.00 20.00 L 60.00 20.00 L 59.00 19.00 L 43.00 20.00 L 42.00 19.00 L 35.00 19.00 L 34.00 18.00 L 30.00 18.00 L 29.00 19.00 L 17.00 19.00 L 15.00 17.00 L 13.00 17.00 Z M 64.00 37.00 L 66.00 37.00 L 69.00 40.00 L 69.00 43.00 L 67.00 46.00 L 65.00 46.00 L 62.00 43.00 L 62.00 39.00 Z" fill="#000000" stroke="#000000" stroke-width="0.5" fill-rule="evenodd" clip-rule="evenodd"/>
</svg>
