<svg xmlns="http://www.w3.org/2000/svg" viewBox="0 0 167 97" width="167" height="97">
  <path d="M 159.00 47.00 L 156.00 47.00 L 155.00 43.00 L 152.00 43.00 L 151.00 47.00 L 136.00 47.00 L 135.00 46.00 L 79.00 46.00 L 76.00 48.00 L 68.00 48.00 L 58.00 44.00 L 58.00 46.00 L 56.00 48.00 L 51.00 48.00 L 51.00 50.00 L 43.00 56.00 L 34.00 55.00 L 33.00 56.00 L 26.00 56.00 L 25.00 57.00 L 8.00 58.00 L 7.00 59.00 L 8.00 75.00 L 9.00 78.00 L 12.00 79.00 L 35.00 68.00 L 44.00 69.00 L 46.00 64.00 L 50.00 61.00 L 53.00 61.00 L 55.00 65.00 L 61.00 65.00 L 64.00 61.00 L 70.00 61.00 L 71.00 60.00 L 79.00 61.00 L 84.00 59.00 L 96.00 58.00 L 97.00 57.00 L 105.00 57.00 L 106.00 56.00 L 111.00 56.00 L 114.00 59.00 L 116.00 55.00 L 126.00 55.00 L 127.00 54.00 L 135.00 54.00 L 138.00 56.00 L 139.00 53.00 L 143.00 53.00 L 144.00 54.00 L 146.00 53.00 L 155.00 53.00 L 157.00 50.00 L 159.00 50.00 Z M 111.00 0.00 L 111.00 2.00 L 123.00 2.00 L 123.00 0.00 Z M 99.00 0.00 L 99.00 2.00 L 102.00 2.00 L 102.00 0.00 Z M 0.00 0.00 L 0.00 3.00 L 2.00 3.00 L 3.00 2.00 L 3.00 0.00 Z" fill="#000000" stroke="#000000" stroke-width="0.5" fill-rule="evenodd" clip-rule="evenodd"/>
</svg>
