<svg xmlns="http://www.w3.org/2000/svg" width="1254" height="1254" viewBox="0 0 1254 1254">
<rect width="100%" height="100%" fill="white"/>
<path d="M 62,616 L 71,643 L 79,716 L 94,722 L 143,698 L 146,715 L 153,718 L 160,712 L 158,693 L 250,657 L 310,648 L 320,635 L 316,636 L 329,628 L 378,615 L 384,618 L 386,639 L 396,652 L 424,657 L 445,645 L 465,652 L 532,630 L 543,622 L 542,612 L 551,608 L 547,606 L 572,602 L 914,590 L 913,611 L 922,614 L 929,609 L 931,589 L 1061,586 L 1056,588 L 1060,595 L 1077,597 L 1080,581 L 1082,585 L 1169,581 L 1176,575 L 1203,575 L 1204,562 L 1176,560 L 1172,530 L 1166,525 L 1143,531 L 1144,551 L 776,542 L 768,532 L 731,535 L 759,537 L 703,534 L 699,528 L 688,531 L 687,549 L 686,535 L 685,540 L 562,540 L 608,541 L 474,551 L 472,533 L 451,531 L 470,530 L 452,530 L 447,546 L 405,543 L 405,519 L 393,513 L 398,514 L 384,524 L 392,536 L 389,544 L 363,549 L 363,564 L 374,568 L 306,587 L 73,596 L 63,601 Z M 152,705 L 153,706 L 152,707 L 152,711 L 154,709 L 154,707 L 155,706 L 156,707 L 156,710 L 153,713 L 152,713 L 151,714 L 150,713 L 150,706 L 151,705 Z M 409,652 L 410,651 L 423,651 L 424,652 L 423,653 L 410,653 Z M 404,647 L 405,646 L 408,649 L 409,649 L 410,650 L 410,651 L 409,652 L 406,652 L 405,651 L 404,651 L 403,650 L 404,649 Z M 399,617 L 400,617 L 403,620 L 403,621 L 404,622 L 404,623 L 403,624 L 403,625 L 402,626 L 402,628 L 401,629 L 401,633 L 400,634 L 400,637 L 401,638 L 401,640 L 402,641 L 402,642 L 403,643 L 403,644 L 405,646 L 404,647 L 402,647 L 400,649 L 399,648 L 399,647 L 395,643 L 394,644 L 393,643 L 393,642 L 391,640 L 391,638 L 390,637 L 390,628 L 391,627 L 392,628 L 392,636 L 393,637 L 393,639 L 393,637 L 392,636 L 392,629 L 393,628 L 393,625 L 392,624 L 392,623 L 397,618 L 398,618 Z M 421,614 L 432,614 L 433,615 L 432,616 L 429,616 L 427,618 L 427,619 L 428,620 L 430,620 L 431,619 L 436,619 L 437,620 L 436,621 L 432,621 L 436,621 L 437,620 L 441,620 L 442,619 L 444,621 L 444,622 L 443,623 L 442,622 L 442,624 L 443,625 L 443,624 L 444,623 L 445,624 L 445,626 L 446,627 L 446,632 L 445,633 L 445,636 L 444,637 L 443,636 L 443,635 L 442,636 L 442,638 L 443,637 L 444,638 L 444,639 L 442,641 L 442,642 L 437,647 L 435,645 L 434,646 L 434,647 L 435,648 L 434,649 L 433,649 L 432,648 L 430,648 L 429,649 L 430,649 L 431,650 L 430,651 L 428,651 L 427,652 L 424,652 L 422,650 L 421,651 L 413,651 L 412,650 L 410,650 L 409,649 L 410,648 L 410,645 L 408,643 L 408,642 L 406,640 L 406,631 L 407,630 L 407,629 L 409,627 L 410,628 L 410,629 L 410,628 L 409,627 L 411,625 L 412,625 L 414,623 L 414,622 L 415,621 L 415,619 L 417,617 L 418,618 L 418,619 L 417,620 L 418,619 L 418,618 L 417,617 L 419,615 L 420,615 Z M 921,601 L 922,602 L 922,604 L 921,605 L 922,606 L 922,607 L 923,608 L 922,609 L 920,609 L 919,608 L 919,604 L 920,603 L 920,602 Z M 924,600 L 925,601 L 925,607 L 924,608 L 923,607 L 923,601 Z M 914,600 L 915,601 L 915,611 L 914,612 L 913,611 L 913,601 Z M 1154,534 L 1155,533 L 1156,534 L 1156,537 L 1156,534 L 1155,533 L 1156,532 L 1161,532 L 1162,533 L 1161,534 L 1160,534 L 1160,537 L 1161,537 L 1161,534 L 1162,533 L 1163,534 L 1163,538 L 1162,539 L 1155,539 L 1154,538 Z" fill="black" fill-rule="evenodd"/>
</svg>