<?xml version="1.0" encoding="UTF-8" standalone="no"?>
<svg
   width="1200"
   height="250"
   viewBox="0 0 1200 250"
   version="1.1"
   id="svg1"
   sodipodi:docname="m1903_springfield_sniper_black.svg"
   inkscape:version="1.4.2 (f4327f4, 2025-05-13)"
   xmlns:inkscape="http://www.inkscape.org/namespaces/inkscape"
   xmlns:sodipodi="http://sodipodi.sourceforge.net/DTD/sodipodi-0.dtd"
   xmlns="http://www.w3.org/2000/svg"
   xmlns:svg="http://www.w3.org/2000/svg">
  <defs
     id="defs1" />
  <sodipodi:namedview
     id="namedview1"
     pagecolor="#ffffff"
     bordercolor="#000000"
     borderopacity="0.25"
     inkscape:showpageshadow="2"
     inkscape:pageopacity="0.0"
     inkscape:pagecheckerboard="0"
     inkscape:deskcolor="#d1d1d1"
     inkscape:zoom="0.55616943"
     inkscape:cx="758.76159"
     inkscape:cy="371.28973"
     inkscape:window-width="2560"
     inkscape:window-height="1377"
     inkscape:window-x="-8"
     inkscape:window-y="-8"
     inkscape:window-maximized="1"
     inkscape:current-layer="svg1" />
  <path
     d="m 45.64808,216.8549 10.527949,22.10869 49.481351,-15.79193 1.0528,12.63355 11.05434,0.52639 3.15839,-9.47515 -4.21118,-7.36957 127.38818,-44.74378 51.58694,8.42237 24.2143,-31.58385 33.16302,-12.63355 6.31678,3.68479 7.36956,21.5823 26.31988,3.68477 14.21273,-5.26397 9.47516,-23.68789 114.22823,-5.26397 10.52795,-4.21118 318.99686,-14.21274 -0.52639,16.31833 4.73757,3.15839 6.84316,-21.5823 181.08074,-3.68479 1.0528,6.31678 h 13.6863 l 3.6847,-21.055907 h 85.2766 l 1.0527,-12.633536 -24.2143,-2.631985 -6.8433,-19.47672 -14.2126,2.631985 -4.7376,17.371129 -232.14125,-2.63199 -21.5823,-4.211183 -271.09468,-6.843168 -3.15838,4.211183 -13.15995,-2.105592 -0.52639,-7.895958 h -8.94876 l -2.63199,-9.475155 80.53881,6.843168 2.10559,-33.689446 -36.84782,-1.052791 -45.27018,6.843169 -8.42236,-5.790378 -7.89595,5.790378 h -37.90062 l -3.68479,-3.158381 1.5792,-12.107141 -21.5823,-1.579196 -3.68479,16.844718 h -30.00464 l -7.89596,-5.790378 -8.42236,5.790378 -84.74999,-6.843169 0.5264,34.215831 84.22359,-6.843168 0.52639,7.369574 -17.37111,2.631987 -4.73758,11.054339 -42.11181,3.684787 -3.15838,19.476709 -65.79967,19.476707 -28.42546,-8.42236 -218.454937,12.10715 -6.843167,10.52795 z m 63.16769,10.00155 1.05279,-1.05279 h 1.05279 l 0.52641,0.52639 h 2.10558 l 0.5264,-0.52639 h 2.10559 l 1.0528,1.05279 v 0.52639 l 0.52639,0.5264 v 3.68479 l -1.05279,1.05279 h -1.0528 l -0.5264,-0.5264 h -1.05279 1.05279 l 0.5264,0.5264 -0.5264,0.5264 h -3.68477 l -0.52641,0.5264 h -1.05279 l -0.52639,-0.5264 v -1.0528 l -0.5264,-0.52639 z m 255.82915,-84.74999 0.5264,-0.5264 0.5264,-1.57919 2.10558,-2.63198 h 3.68479 l 0.52639,-0.52641 h 3.1584 l 0.52639,0.52641 v 0.52639 l -1.0528,1.05279 v 0.52641 l -1.05279,1.57918 v 1.0528 l -0.5264,0.5264 v 1.57919 l -0.5264,0.5264 v 5.79037 l 0.5264,0.52639 v 1.5792 l 0.5264,0.52639 v 0.5264 l 0.5264,0.52641 V 154.74 l 0.52639,0.5264 0.52641,1.57919 3.15838,3.15838 h 0.52639 l 1.5792,-1.05279 v -1.0528 l -2.10559,-2.10559 v -0.52639 l -0.5264,-0.5264 v -0.52639 l -1.0528,-1.5792 v -1.5792 l -0.52639,-0.52639 v -3.15838 l 0.52639,-0.5264 v -1.0528 l 0.5264,-0.52639 v -1.0528 l 1.0528,-1.0528 v -0.52639 l 3.15838,-3.15838 h 0.5264 l 1.57919,-1.5792 1.5792,-0.52639 1.05279,-1.05281 h 15.26553 l 2.10558,2.1056 h 0.52641 l 1.05279,1.0528 v 0.52639 l 2.10559,2.63199 v 1.05279 l 0.5264,0.5264 v 1.0528 l 0.52639,0.52639 v 6.31677 l -0.52639,0.5264 V 154.74 l -0.5264,0.5264 v 0.52639 l -0.5264,0.52641 -0.5264,1.57918 -2.10558,2.63199 h -0.52641 l -1.05279,1.0528 h -0.52639 l -0.5264,0.52639 h -1.0528 l -1.57919,1.0528 h -2.63199 l -0.5264,0.5264 h -4.73757 l -0.5264,0.5264 h -7.89596 l -0.5264,-0.5264 h -4.73758 l -0.5264,-0.5264 h -2.10559 l -0.52639,-0.5264 h -1.5792 l -0.5264,-0.5264 h -0.52639 l -0.5264,-0.52639 -1.57919,-0.5264 -0.5264,-0.5264 0.5264,-0.5264 -0.5264,-0.52639 -0.52639,0.52639 -2.63199,-2.63198 v -0.5264 l -0.5264,-0.52639 v -1.0528 l -0.5264,-0.5264 v -1.0528 l -0.5264,-0.5264 v -2.10559 l -0.52639,-0.52639 v -4.73758 l 0.52639,-0.52639 v -1.5792 l 0.5264,-0.5264 z m 500.07758,-18.42391 0.5264,0.52639 v 1.5792 l 0.52639,0.52639 v 2.1056 l -0.52639,0.52639 v 0.5264 l -0.5264,0.5264 v 0.5264 l -0.5264,0.52639 -1.05279,-1.05279 v -4.73758 l 0.52639,-0.5264 v -0.5264 l 0.5264,-0.52639 z M 443.07815,91.045896 443.60454,90.5195 h 86.32919 l 0.52638,0.526396 -0.52638,0.526406 h -86.32919 z m 419.53876,-11.580734 0.5264,0.526394 v 30.004654 l -0.5264,0.5264 -0.5264,-0.5264 V 91.045896 l -0.5264,-0.526396 0.5264,-0.526394 v -10.00155 z m -469.54652,-0.526407 0.52639,0.526407 V 89.46671 l -0.52639,0.526396 -0.5264,-0.526396 V 79.465162 Z m 152.12885,-24.740681 0.52641,-0.526395 h 1.57918 l 0.52641,0.526395 h 0.52639 l 0.5264,0.526395 v 2.105592 l -1.05279,1.0528 h -2.10559 l -0.52641,-0.526406 v -0.526394 l 0.52641,-0.526396 0.52639,0.526396 0.5264,-0.526396 v -1.052801 h -1.05279 l -0.52641,-0.526395 z m -103.1739,23.161492 0.52642,-0.526407 v -6.843157 l 0.52639,-0.526406 h 3.15837 l 0.5264,-0.526395 v -7.895958 l -2.10557,-1.052801 1.05278,-0.526396 -1.05278,-0.526394 -0.52642,0.526394 -2.10559,-1.579185 v -6.843168 l 0.52642,-0.526406 h 30.53103 l 2.63199,3.158392 h 22.1087 l 2.10559,-1.579196 v -1.05279 l 0.5264,-0.526406 h 38.42701 l 0.52639,0.526406 -0.52639,0.526395 v 6.316773 l -1.5792,1.579185 -1.05278,-0.526394 1.05278,0.526394 -0.52639,0.526396 h -1.0528 l -1.0528,1.052801 v 7.369563 l -0.52638,0.526395 -1.05281,-0.526395 -2.63199,1.05279 v 4.211183 l -1.57917,1.0528 h -23.68789 l -2.63199,1.052791 -1.0528,1.052789 h 23.16149 l 0.5264,0.526407 -0.5264,0.526395 h -55.79813 l -0.5264,-0.526395 -0.5264,0.526395 -0.52639,-0.526395 h -18.95032 l -0.52639,0.526395 h -5.26396 z m 186.3447,-41.585406 0.5264,0.526406 v 5.790368 l -0.5264,0.526394 -0.5264,-0.526394 v -5.790368 z"
     fill="#000000"
     fill-rule="evenodd"
     id="path1"
     style="stroke-width:0.526397" />
</svg>
