<svg xmlns="http://www.w3.org/2000/svg" width="2172" height="724" viewBox="0 0 2172 724">
<rect width="100%" height="100%" fill="white"/>
<path d="M 36,526 L 56,568 L 150,538 L 152,562 L 173,563 L 179,545 L 171,531 L 413,446 L 511,462 L 557,402 L 620,378 L 632,385 L 646,426 L 696,433 L 723,423 L 741,378 L 958,368 L 978,360 L 1584,333 L 1583,364 L 1592,370 L 1605,329 L 1949,322 L 1951,334 L 1977,334 L 1984,294 L 2146,294 L 2148,270 L 2102,265 L 2089,228 L 2062,233 L 2053,266 L 1612,261 L 1571,253 L 1056,240 L 1050,248 L 1025,244 L 1024,229 L 1007,229 L 1002,211 L 1155,224 L 1159,160 L 1089,158 L 1003,171 L 987,160 L 972,171 L 900,171 L 893,165 L 896,142 L 855,139 L 848,171 L 791,171 L 776,160 L 760,171 L 599,158 L 600,223 L 760,210 L 761,224 L 728,229 L 719,250 L 639,257 L 633,294 L 508,331 L 454,315 L 39,338 L 26,358 Z M 156,545 L 158,543 L 160,543 L 161,544 L 165,544 L 166,543 L 170,543 L 172,545 L 172,546 L 173,547 L 173,554 L 171,556 L 169,556 L 168,555 L 166,555 L 168,555 L 169,556 L 168,557 L 161,557 L 160,558 L 158,558 L 157,557 L 157,555 L 156,554 Z M 642,384 L 643,383 L 644,380 L 648,375 L 655,375 L 656,374 L 662,374 L 663,375 L 663,376 L 661,378 L 661,379 L 659,382 L 659,384 L 658,385 L 658,388 L 657,389 L 657,400 L 658,401 L 658,404 L 659,405 L 659,406 L 660,407 L 660,408 L 661,409 L 662,412 L 668,418 L 669,418 L 672,416 L 672,414 L 668,410 L 668,409 L 667,408 L 667,407 L 665,404 L 665,401 L 664,400 L 664,394 L 665,393 L 665,391 L 666,390 L 666,388 L 668,386 L 668,385 L 674,379 L 675,379 L 678,376 L 681,375 L 683,373 L 712,373 L 716,377 L 717,377 L 719,379 L 719,380 L 723,385 L 723,387 L 724,388 L 724,390 L 725,391 L 725,403 L 724,404 L 724,408 L 723,409 L 723,410 L 722,411 L 721,414 L 717,419 L 716,419 L 714,421 L 713,421 L 712,422 L 710,422 L 707,424 L 702,424 L 701,425 L 692,425 L 691,426 L 676,426 L 675,425 L 666,425 L 665,424 L 661,424 L 660,423 L 657,423 L 656,422 L 655,422 L 654,421 L 651,420 L 650,419 L 651,418 L 650,417 L 649,418 L 644,413 L 644,412 L 643,411 L 643,409 L 642,408 L 642,406 L 641,405 L 641,401 L 640,400 L 640,391 L 641,390 L 641,387 L 642,386 Z M 1592,349 L 1593,350 L 1593,353 L 1594,354 L 1594,358 L 1593,359 L 1593,360 L 1592,361 L 1592,362 L 1591,363 L 1589,361 L 1589,352 L 1590,351 L 1590,350 L 1591,349 Z M 791,287 L 792,286 L 956,286 L 957,287 L 956,288 L 792,288 Z M 1588,265 L 1589,266 L 1589,323 L 1588,324 L 1587,323 L 1587,287 L 1586,286 L 1587,285 L 1587,266 Z M 696,264 L 697,265 L 697,284 L 696,285 L 695,284 L 695,265 Z M 985,217 L 986,216 L 989,216 L 990,217 L 991,217 L 992,218 L 992,222 L 990,224 L 986,224 L 985,223 L 985,222 L 986,221 L 987,222 L 988,221 L 988,219 L 986,219 L 985,218 Z M 789,261 L 790,260 L 790,247 L 791,246 L 797,246 L 798,245 L 798,230 L 794,228 L 796,227 L 794,226 L 793,227 L 789,224 L 789,211 L 790,210 L 848,210 L 853,216 L 895,216 L 899,213 L 899,211 L 900,210 L 973,210 L 974,211 L 973,212 L 973,224 L 970,227 L 968,226 L 970,227 L 969,228 L 967,228 L 965,230 L 965,244 L 964,245 L 962,244 L 957,246 L 957,254 L 954,256 L 909,256 L 904,258 L 902,260 L 946,260 L 947,261 L 946,262 L 840,262 L 839,261 L 838,262 L 837,261 L 801,261 L 800,262 L 790,262 Z M 1143,182 L 1144,183 L 1144,194 L 1143,195 L 1142,194 L 1142,183 Z" fill="black" fill-rule="evenodd"/>
</svg>