<svg xmlns="http://www.w3.org/2000/svg" width="2172" height="724" viewBox="0 0 2172 724">
<rect width="100%" height="100%" fill="white"/>
<path d="M 2126,244 L 2114,230 L 1932,236 L 1918,168 L 1896,174 L 1885,235 L 1744,235 L 1736,228 L 1038,229 L 980,209 L 802,214 L 779,226 L 644,226 L 736,223 L 744,210 L 732,199 L 654,199 L 640,185 L 623,197 L 614,185 L 611,221 L 628,226 L 602,228 L 578,257 L 500,292 L 435,277 L 83,303 L 66,312 L 61,332 L 86,500 L 106,521 L 229,478 L 240,508 L 251,511 L 266,503 L 253,474 L 261,466 L 423,401 L 509,416 L 551,359 L 612,337 L 632,346 L 637,370 L 657,386 L 720,383 L 746,344 L 770,342 L 793,358 L 792,388 L 801,392 L 811,382 L 807,359 L 807,389 L 805,358 L 813,357 L 819,496 L 955,469 L 954,334 L 982,323 L 1012,323 L 1027,343 L 1294,343 L 1354,319 L 1455,319 L 1469,330 L 1465,358 L 1478,369 L 1481,330 L 1494,319 L 1780,313 L 1781,277 L 1743,278 L 1744,266 L 1883,266 L 1885,273 L 1913,270 L 1917,277 L 1930,275 L 1932,265 L 2116,270 Z M 256,489 L 257,490 L 257,492 L 258,493 L 258,498 L 259,499 L 258,500 L 256,500 L 255,501 L 254,501 L 253,502 L 251,502 L 250,503 L 248,503 L 246,501 L 246,499 L 245,498 L 245,493 L 246,492 L 247,492 L 248,491 L 250,491 L 251,490 L 253,490 L 254,489 Z M 1474,347 L 1476,349 L 1476,356 L 1475,357 L 1474,356 L 1474,355 L 1473,354 L 1473,348 Z M 643,347 L 644,346 L 644,345 L 645,344 L 645,343 L 647,341 L 647,340 L 648,339 L 649,339 L 650,340 L 650,341 L 651,341 L 653,343 L 653,353 L 652,354 L 652,361 L 653,362 L 653,366 L 654,367 L 654,368 L 655,369 L 655,370 L 657,372 L 657,373 L 661,377 L 664,374 L 660,368 L 660,366 L 659,365 L 659,362 L 658,361 L 658,356 L 659,355 L 659,352 L 660,351 L 660,350 L 661,349 L 661,348 L 662,347 L 662,346 L 667,341 L 668,341 L 670,339 L 671,339 L 674,337 L 698,337 L 699,338 L 701,338 L 702,339 L 703,339 L 705,341 L 706,341 L 710,345 L 710,346 L 712,348 L 712,349 L 713,350 L 713,352 L 714,353 L 714,365 L 713,366 L 713,368 L 711,370 L 711,371 L 709,373 L 709,374 L 707,376 L 706,376 L 705,377 L 704,377 L 701,379 L 697,379 L 696,380 L 661,380 L 660,379 L 658,379 L 657,378 L 655,378 L 653,376 L 652,376 L 651,375 L 650,375 L 647,372 L 647,371 L 645,369 L 645,368 L 647,365 L 647,363 L 648,362 L 648,356 L 647,355 L 647,359 L 646,360 L 646,361 L 647,362 L 647,365 L 646,366 L 645,365 L 645,363 L 645,365 L 644,366 L 643,365 L 643,363 L 642,362 L 642,351 L 643,350 Z M 1601,255 L 1602,254 L 1602,253 L 1604,251 L 1605,251 L 1606,250 L 1646,250 L 1647,251 L 1648,251 L 1651,254 L 1651,258 L 1649,260 L 1648,259 L 1647,260 L 1648,261 L 1647,262 L 1646,262 L 1645,263 L 1608,263 L 1607,262 L 1606,262 L 1605,261 L 1606,260 L 1607,260 L 1606,260 L 1604,258 L 1603,259 L 1602,258 L 1602,257 L 1601,256 Z M 1521,254 L 1524,251 L 1525,251 L 1526,250 L 1566,250 L 1567,251 L 1568,251 L 1570,253 L 1570,254 L 1571,255 L 1571,258 L 1570,259 L 1570,260 L 1568,262 L 1567,262 L 1566,263 L 1528,263 L 1527,262 L 1525,262 L 1522,259 L 1522,258 L 1521,257 Z M 1441,254 L 1443,252 L 1444,253 L 1443,252 L 1445,250 L 1487,250 L 1488,251 L 1489,251 L 1491,253 L 1491,254 L 1492,255 L 1492,257 L 1491,258 L 1491,259 L 1488,262 L 1487,262 L 1486,263 L 1448,263 L 1447,262 L 1445,262 L 1441,258 Z M 1360,254 L 1363,251 L 1364,251 L 1365,250 L 1407,250 L 1408,251 L 1409,251 L 1411,253 L 1411,255 L 1412,256 L 1411,257 L 1411,259 L 1408,262 L 1407,262 L 1406,263 L 1369,263 L 1368,262 L 1364,262 L 1362,260 L 1363,259 L 1362,260 L 1361,259 L 1361,258 L 1360,257 Z M 2100,240 L 2102,240 L 2103,241 L 2103,242 L 2104,243 L 2104,257 L 2103,258 L 2103,260 L 2102,261 L 2100,261 L 2099,260 L 2100,259 L 2101,259 L 2100,259 L 2099,260 L 2098,259 L 2098,256 L 2099,255 L 2100,255 L 2102,253 L 2102,249 L 2101,249 L 2100,248 L 2100,246 L 2100,248 L 2099,249 L 2099,255 L 2098,256 L 2097,255 L 2097,247 L 2098,246 L 2098,242 Z M 2084,240 L 2086,240 L 2087,241 L 2087,242 L 2086,243 L 2085,242 L 2086,243 L 2086,245 L 2086,243 L 2087,242 L 2088,243 L 2088,246 L 2089,247 L 2089,253 L 2088,254 L 2088,258 L 2087,259 L 2086,258 L 2086,257 L 2085,258 L 2085,259 L 2086,258 L 2087,259 L 2087,260 L 2086,261 L 2084,261 L 2083,260 L 2083,241 Z M 2070,240 L 2073,240 L 2074,241 L 2074,244 L 2075,245 L 2075,256 L 2074,257 L 2074,260 L 2073,261 L 2069,261 L 2068,260 L 2068,259 L 2069,258 L 2069,243 L 2068,242 Z" fill="black" fill-rule="evenodd"/>
</svg>