<?xml version="1.0" encoding="UTF-8" standalone="no"?>
<svg
   width="1300"
   height="250"
   viewBox="0 0 1300 250"
   version="1.1"
   id="svg1"
   sodipodi:docname="m1918a2_bar_black.svg"
   inkscape:version="1.4.2 (f4327f4, 2025-05-13)"
   xmlns:inkscape="http://www.inkscape.org/namespaces/inkscape"
   xmlns:sodipodi="http://sodipodi.sourceforge.net/DTD/sodipodi-0.dtd"
   xmlns="http://www.w3.org/2000/svg"
   xmlns:svg="http://www.w3.org/2000/svg">
  <defs
     id="defs1" />
  <sodipodi:namedview
     id="namedview1"
     pagecolor="#ffffff"
     bordercolor="#000000"
     borderopacity="0.25"
     inkscape:showpageshadow="2"
     inkscape:pageopacity="0.0"
     inkscape:pagecheckerboard="0"
     inkscape:deskcolor="#d1d1d1"
     inkscape:zoom="0.55616943"
     inkscape:cx="956.54305"
     inkscape:cy="54.839404"
     inkscape:window-width="2560"
     inkscape:window-height="1377"
     inkscape:window-x="-8"
     inkscape:window-y="-8"
     inkscape:window-maximized="1"
     inkscape:current-layer="svg1" />
  <path
     d="m 1267.6498,67.247463 -7.1164,-8.302571 -107.9335,3.558239 -8.3027,-40.326797 -13.0468,3.558248 -6.5236,36.175513 h -83.6187 L 1036.3638,57.75881 622.42109,58.351846 588.0247,46.491027 482.46337,49.45623 468.82342,56.572727 h -80.06056 l 54.5598,-1.779129 4.74433,-7.709534 -7.1165,-6.523451 h -46.25722 l -8.30257,-8.30258 -10.0817,7.116497 -5.73723,-1.118584 -1.37926,15.351569 10.0817,2.965212 -15.41907,1.186083 -14.23299,17.198186 -46.25721,20.756446 -38.54767,-8.895616 -208.750497,15.419064 -10.0817,5.33738 -2.965206,11.86083 14.826029,99.6309 11.860824,12.45387 72.94407,-25.50077 6.52345,17.79124 6.52345,1.77912 8.89562,-4.74434 -7.70953,-17.19818 4.74432,-4.74434 96.07268,-38.54767 51.00154,8.89561 24.90771,-33.80335 36.17552,-13.0469 11.86083,5.33737 2.9652,14.233 11.86082,9.48865 37.3616,-1.77912 15.41907,-23.12861 14.23299,-1.18608 13.63995,9.48866 -0.59305,17.79124 5.33737,2.37216 3.55825,-1.77912 -1.18609,-18.38428 4.74433,-0.59304 3.55825,82.43271 80.65359,-16.0121 -0.59303,-80.06055 16.60515,-6.52347 h 17.79123 l 8.89562,11.86083 h 158.34199 l 35.58248,-14.23299 h 59.89715 l 8.30258,6.52346 -2.37216,16.60515 7.70953,6.52346 1.77913,-23.12861 7.70953,-6.52346 169.60974,-3.55824 0.593,-21.349484 -22.5355,0.593035 0.593,-7.116486 h 82.4326 l 1.1861,4.151284 16.6053,-1.779129 2.3721,4.151296 7.7095,-1.186083 1.1862,-5.930415 109.1194,2.965202 z M 158.6629,212.54256 l 0.59304,0.59303 v 1.18609 l 0.59304,0.59304 v 2.9652 l 0.59305,0.59305 -0.59305,0.59303 h -1.18608 l -0.59304,0.59305 h -0.59305 l -0.59303,0.59304 h -1.18609 l -0.59305,0.59303 h -1.18608 l -1.18607,-1.18607 v -1.18608 l -0.59304,-0.59305 v -2.9652 l 0.59304,-0.59304 h 0.59303 l 0.59304,-0.59304 h 1.18608 l 0.59305,-0.59305 h 1.18609 l 0.59303,-0.59303 z m 722.32413,-84.21185 1.18608,1.18609 v 4.15127 l -0.59303,0.59305 -0.59305,-0.59305 v -0.59303 l -0.59304,-0.59305 v -3.55824 z m -492.8172,0 0.59303,-0.59305 v -0.59303 l 0.59305,-0.59305 v -0.59304 l 1.18609,-1.18608 v -0.59304 l 0.59303,-0.59305 h 0.59305 l 0.59304,0.59305 v 0.59304 h 0.59304 l 1.18608,1.18608 v 5.93041 l -0.59304,0.59304 v 4.15129 l 0.59304,0.59305 v 2.37216 l 0.59303,0.59304 v 0.59305 l 0.59305,0.59304 v 0.59304 l 1.18608,1.18608 v 0.59303 l 2.37216,2.37217 1.77914,-1.77912 -2.37217,-3.55824 v -1.18609 l -0.59305,-0.59304 v -1.77912 l -0.59304,-0.59305 v -2.96521 l 0.59304,-0.59303 v -1.77912 l 0.59305,-0.59304 v -0.59305 l 0.59303,-0.59303 v -0.59305 l 0.59305,-0.59304 v -0.59305 l 2.96521,-2.9652 h 0.59304 l 1.18609,-1.18609 h 0.59302 l 1.77914,-1.18608 h 14.23298 l 0.59304,0.59305 h 1.18608 l 0.59305,0.59303 h 0.59304 l 1.18608,1.18609 h 0.59305 l 2.37216,2.37217 v 0.59303 l 1.18607,1.18609 v 0.59305 l 0.59305,0.59303 v 1.18609 l 0.59304,0.59303 v 7.1165 l -0.59304,0.59304 v 1.18609 l -1.18609,1.18608 v 0.59303 l -1.18608,1.18608 v 0.59305 l -1.18608,1.18608 h -0.59303 l -0.59305,0.59304 h -0.59303 l -1.77914,1.18609 -2.9652,0.59303 h -20.75645 l -1.89574,-0.22649 -1.9624,-0.59305 c 0,0 -2.07769,-1.85186 -2.6653,-2.14566 -3.20722,-1.77412 -4.8835,-4.48641 -4.74434,-7.70953 v -6.52345 l 0.59305,-0.59305 z m 568.13343,-54.559796 0.59305,-0.593037 v -0.593046 l 1.18608,-1.186083 h 0.59304 l 0.59305,-0.593037 h 23.72164 l 0.59303,0.593037 h 0.59305 l 1.77912,1.779129 v 2.372166 l -1.18608,1.186083 -0.59304,-0.593047 -0.59305,0.593047 0.59305,0.593036 -0.59305,0.593046 h -0.59303 l -0.59305,0.593037 h -21.94252 l -0.59304,-0.593037 h -0.59303 l -0.59305,-0.593046 0.59305,-0.593036 h 0.59303 -0.59303 l -1.18609,-1.186083 -0.59305,0.593036 -0.59303,-0.593036 v -0.593047 l -0.59305,-0.593036 z m -47.44329,-0.593037 1.77912,-1.779129 h 0.59304 l 0.59304,-0.593037 h 23.72165 l 0.59304,0.593037 h 0.59305 l 1.18608,1.186083 v 0.593046 l 0.59304,0.593037 v 1.779129 l -0.59304,0.593036 v 0.593047 l -1.18608,1.186082 h -0.59305 l -0.59304,0.593037 h -22.53556 l -0.59305,-0.593037 h -1.18608 l -1.77912,-1.779129 v -0.593036 l -0.59304,-0.593047 z m -47.44329,0 1.18608,-1.186083 0.59304,0.593037 -0.59304,-0.593037 1.18609,-1.186083 h 24.90772 l 0.59304,0.593037 h 0.59304 l 1.18608,1.186083 v 0.593046 l 0.59305,0.593037 v 1.186082 l -0.59305,0.593047 v 0.593036 l -1.77912,1.779129 h -0.59304 l -0.59305,0.593037 h -22.53555 l -0.59304,-0.593037 h -1.18608 l -2.37217,-2.372165 z m -48.03633,0 1.77911,-1.779129 h 0.59304 l 0.59305,-0.593037 h 24.90773 l 0.59304,0.593037 h 0.59304 l 1.18609,1.186083 v 1.186083 l 0.59304,0.593046 -0.59304,0.593036 v 1.186083 l -1.77913,1.779129 h -0.59304 l -0.59305,0.593037 h -21.94252 l -0.59304,-0.593037 h -2.37217 l -1.18608,-1.186082 0.59304,-0.593047 -0.59304,0.593047 -0.59304,-0.593047 v -0.593036 l -0.59303,-0.593047 z m 438.85035,-8.30258 h 1.1862 l 0.593,0.593046 v 0.593037 l 0.593,0.593046 v 8.30257 l -0.593,0.593047 v 1.186083 l -0.593,0.593036 h -1.1862 l -0.593,-0.593036 0.593,-0.593047 h 0.593 -0.593 l -0.593,0.593047 -0.593,-0.593047 V 74.36396 l 0.593,-0.593046 h 0.593 l 1.1862,-1.186083 v -2.372156 h -0.5932 l -0.593,-0.593047 v -1.186082 1.186082 l -0.593,0.593047 v 3.558239 l -0.593,0.593046 -0.5931,-0.593046 v -4.744322 l 0.5931,-0.593046 V 66.06138 Z m -9.4887,0 h 1.1862 l 0.593,0.593046 v 0.593037 l -0.593,0.593046 -0.5932,-0.593046 0.5932,0.593046 v 1.186083 -1.186083 l 0.593,-0.593046 0.593,0.593046 v 1.77912 l 0.593,0.593046 v 3.558239 l -0.593,0.593046 v 2.372166 l -0.593,0.593036 -0.593,-0.593036 v -0.593047 l -0.5932,0.593047 v 0.593036 l 0.5932,-0.593036 0.593,0.593036 v 0.593047 l -0.593,0.593036 h -1.1862 l -0.593,-0.593036 V 65.468343 Z m -8.3025,0 h 1.7791 l 0.5931,0.593046 v 1.77912 l 0.593,0.593046 v 6.523451 l -0.593,0.593036 v 1.77913 l -0.5931,0.593036 h -2.3722 l -0.593,-0.593036 v -0.593047 l 0.593,-0.593036 v -8.895617 l -0.593,-0.593046 z"
     fill="#000000"
     fill-rule="evenodd"
     id="path1"
     sodipodi:nodetypes="ccccccccccccccccccccccccccccccccccccccccccccccccccccccccccccccccccccccccccccccccccccccccccccccccccccccccccccccccccccccccccccccccccccccccccccccccccccccccccccccccccccccccccccccccccccccccccccccccccccccccccccccccccccccccccccccccccccccccccccccccccccccccccccccccccccccccccccccccccccccccccccccccccccccccccccccccccccccccccccccccccccccccccccccccccccccccccccccccccccccccccccccccccccc"
     style="stroke-width:0.593041" />
</svg>
