<svg xmlns="http://www.w3.org/2000/svg" width="2172" height="724" viewBox="0 0 2172 724">
<rect width="100%" height="100%" fill="white"/>
<path d="M 66,225 L 66,251 L 74,258 L 127,262 L 198,260 L 202,263 L 216,264 L 220,257 L 648,291 L 651,293 L 649,305 L 626,303 L 622,307 L 618,345 L 622,349 L 652,351 L 656,356 L 688,358 L 691,354 L 714,356 L 733,312 L 670,307 L 666,305 L 667,292 L 673,291 L 674,297 L 739,300 L 757,260 L 697,255 L 694,251 L 674,249 L 642,252 L 223,223 L 220,216 L 183,216 L 140,207 L 75,204 L 69,208 Z M 128,222 L 140,222 L 141,223 L 145,223 L 146,224 L 149,224 L 151,226 L 151,231 L 150,232 L 150,243 L 149,244 L 149,246 L 148,247 L 141,247 L 140,248 L 136,248 L 135,247 L 127,247 L 126,246 L 126,234 L 127,233 L 127,223 Z M 84,219 L 91,219 L 92,220 L 101,220 L 103,222 L 103,238 L 102,239 L 102,243 L 101,244 L 84,244 L 83,243 L 84,242 L 89,242 L 84,242 L 83,243 L 82,242 L 82,230 L 83,229 L 83,220 Z" fill="black" fill-rule="evenodd"/>
<path d="M 682,447 L 686,497 L 717,553 L 761,586 L 817,600 L 864,594 L 908,572 L 945,532 L 962,490 L 964,444 L 949,396 L 921,360 L 877,330 L 917,353 L 946,387 L 972,389 L 975,376 L 973,391 L 948,389 L 961,418 L 966,394 L 967,476 L 1169,487 L 1170,476 L 1195,496 L 1217,484 L 1787,516 L 1813,525 L 1848,520 L 1922,530 L 1919,560 L 1906,563 L 1904,571 L 1949,585 L 1977,583 L 1979,558 L 2017,538 L 2011,530 L 1973,530 L 1974,515 L 2090,530 L 2098,525 L 2094,515 L 2002,495 L 1978,481 L 1962,460 L 1940,468 L 1944,492 L 1856,481 L 1852,471 L 1822,465 L 1796,475 L 1573,453 L 1571,434 L 1563,428 L 1519,425 L 1512,445 L 1222,419 L 1197,394 L 1189,398 L 1191,417 L 1168,405 L 1040,396 L 1043,367 L 1123,381 L 1130,365 L 1164,365 L 1171,308 L 1138,300 L 1136,271 L 1101,257 L 1101,231 L 1113,223 L 1111,210 L 1101,205 L 1083,211 L 1082,226 L 1090,234 L 1082,267 L 1123,280 L 1121,291 L 1105,295 L 1090,282 L 1050,284 L 1048,258 L 906,245 L 944,145 L 936,132 L 869,141 L 861,149 L 821,147 L 806,155 L 693,406 Z M 813,546 L 814,545 L 818,545 L 819,544 L 828,544 L 829,545 L 830,545 L 831,546 L 830,547 L 814,547 Z M 848,543 L 847,544 L 844,544 L 843,545 L 839,545 L 838,546 L 832,546 L 830,544 L 831,543 L 837,543 L 838,542 L 842,542 L 843,541 L 846,541 Z M 1938,530 L 1939,529 L 1959,529 L 1960,530 L 1959,531 L 1939,531 Z M 1922,530 L 1922,529 L 1923,528 L 1936,528 L 1937,529 L 1936,530 L 1924,530 L 1923,531 Z M 832,500 L 833,501 L 835,501 L 836,502 L 837,502 L 838,503 L 839,503 L 843,507 L 843,508 L 845,510 L 845,511 L 846,512 L 846,515 L 847,516 L 847,520 L 846,521 L 846,524 L 845,525 L 845,526 L 841,530 L 840,530 L 839,531 L 837,531 L 836,532 L 831,532 L 830,533 L 824,533 L 823,532 L 822,532 L 821,531 L 820,531 L 817,528 L 817,527 L 816,526 L 816,525 L 815,524 L 815,522 L 814,521 L 814,513 L 815,512 L 815,510 L 816,509 L 816,508 L 818,506 L 819,507 L 821,505 L 820,504 L 822,502 L 823,502 L 824,501 L 828,501 L 829,500 Z M 1964,495 L 1966,493 L 1967,493 L 1970,490 L 1972,490 L 1974,492 L 1975,492 L 1977,494 L 1978,494 L 1980,496 L 1979,497 L 1976,497 L 1977,497 L 1978,498 L 1979,497 L 1980,498 L 1979,497 L 1980,496 L 1981,496 L 1983,498 L 1984,498 L 1985,499 L 1984,500 L 1977,500 L 1976,499 L 1975,499 L 1972,496 L 1965,496 Z M 775,480 L 780,480 L 781,481 L 784,481 L 785,482 L 786,482 L 792,488 L 792,489 L 793,490 L 793,491 L 794,492 L 794,500 L 793,501 L 793,503 L 791,505 L 791,506 L 787,510 L 786,510 L 785,511 L 784,511 L 783,512 L 781,512 L 780,513 L 774,513 L 773,512 L 771,512 L 770,511 L 769,511 L 764,506 L 764,505 L 762,503 L 762,502 L 761,501 L 761,500 L 760,499 L 760,492 L 761,491 L 761,490 L 762,489 L 762,488 L 767,483 L 768,483 L 769,482 L 770,482 L 771,481 L 774,481 Z M 1826,475 L 1827,474 L 1828,475 L 1835,475 L 1836,476 L 1845,476 L 1846,477 L 1846,478 L 1845,479 L 1835,479 L 1834,478 L 1827,478 L 1826,477 Z M 1951,471 L 1952,471 L 1953,470 L 1958,470 L 1959,471 L 1958,472 L 1954,472 L 1958,472 L 1959,471 L 1960,471 L 1964,475 L 1964,481 L 1963,482 L 1963,483 L 1961,485 L 1960,485 L 1959,486 L 1952,486 L 1948,482 L 1948,481 L 1947,480 L 1947,477 L 1948,476 L 1949,477 L 1949,478 L 1949,477 L 1948,476 L 1948,475 L 1949,474 L 1950,475 L 1949,474 L 1949,473 Z M 869,467 L 871,467 L 872,466 L 881,466 L 882,467 L 884,467 L 885,468 L 886,468 L 892,474 L 892,476 L 893,477 L 893,484 L 892,485 L 892,488 L 891,489 L 891,490 L 889,492 L 889,493 L 885,497 L 884,497 L 883,498 L 881,498 L 880,499 L 873,499 L 872,498 L 870,498 L 869,497 L 868,497 L 867,496 L 866,496 L 862,492 L 862,491 L 860,489 L 860,487 L 859,486 L 859,480 L 860,479 L 860,476 L 861,475 L 861,474 L 863,472 L 864,473 L 863,472 L 867,468 L 868,468 Z M 795,459 L 797,459 L 798,460 L 797,461 L 796,461 L 795,462 L 795,463 L 795,462 L 796,461 L 797,462 L 797,463 L 797,461 L 798,460 L 800,462 L 799,463 L 799,464 L 797,466 L 795,466 L 793,464 L 793,461 Z M 817,445 L 829,445 L 830,446 L 831,446 L 832,447 L 833,447 L 834,448 L 835,448 L 838,451 L 838,452 L 839,453 L 839,454 L 840,455 L 840,457 L 841,458 L 841,465 L 840,466 L 840,468 L 839,469 L 839,470 L 837,472 L 836,471 L 833,471 L 832,470 L 834,468 L 834,466 L 835,465 L 835,457 L 834,456 L 834,455 L 832,453 L 833,452 L 836,452 L 835,451 L 834,452 L 833,452 L 832,453 L 831,452 L 830,452 L 829,451 L 828,451 L 827,450 L 819,450 L 818,451 L 817,451 L 812,456 L 812,458 L 811,459 L 811,464 L 812,465 L 812,466 L 813,467 L 813,468 L 816,471 L 815,472 L 816,471 L 817,471 L 818,472 L 819,472 L 820,473 L 826,473 L 827,472 L 829,472 L 830,471 L 831,471 L 832,470 L 833,471 L 836,471 L 837,472 L 837,473 L 834,476 L 833,476 L 832,477 L 831,477 L 830,478 L 829,478 L 828,479 L 818,479 L 817,478 L 816,478 L 815,477 L 814,477 L 813,476 L 812,476 L 807,471 L 807,470 L 806,469 L 806,468 L 805,467 L 805,457 L 806,456 L 806,454 L 810,450 L 811,451 L 814,451 L 813,451 L 811,449 L 813,447 L 814,447 L 815,446 L 816,446 Z M 1522,439 L 1523,438 L 1523,436 L 1524,435 L 1527,435 L 1528,436 L 1537,436 L 1538,437 L 1547,437 L 1548,438 L 1558,438 L 1559,439 L 1560,439 L 1561,440 L 1561,442 L 1560,443 L 1560,450 L 1559,451 L 1552,451 L 1551,450 L 1541,450 L 1540,449 L 1531,449 L 1530,448 L 1523,448 L 1522,447 Z M 762,425 L 764,425 L 765,424 L 770,424 L 771,425 L 774,425 L 775,426 L 776,426 L 777,427 L 778,427 L 784,433 L 784,434 L 785,435 L 785,436 L 786,437 L 786,444 L 785,445 L 785,447 L 783,449 L 783,450 L 782,451 L 781,450 L 780,451 L 781,452 L 778,455 L 777,455 L 776,456 L 774,456 L 773,457 L 764,457 L 763,456 L 762,456 L 761,455 L 759,455 L 753,449 L 753,447 L 752,446 L 752,439 L 753,438 L 753,436 L 754,435 L 754,434 L 755,433 L 755,431 L 760,426 L 761,426 Z M 865,409 L 873,409 L 874,410 L 876,410 L 883,417 L 883,418 L 884,419 L 884,420 L 885,421 L 885,423 L 886,424 L 886,429 L 885,430 L 885,431 L 884,432 L 884,434 L 879,439 L 878,439 L 877,440 L 876,440 L 875,441 L 873,441 L 872,442 L 863,442 L 862,441 L 861,441 L 860,440 L 859,440 L 857,438 L 858,437 L 857,438 L 856,437 L 856,436 L 853,433 L 853,431 L 852,430 L 852,423 L 853,422 L 853,420 L 854,419 L 854,418 L 856,416 L 857,417 L 858,416 L 857,415 L 861,411 L 862,411 L 863,410 L 864,410 Z M 805,391 L 807,391 L 808,390 L 813,390 L 814,389 L 821,389 L 822,390 L 824,390 L 829,395 L 829,396 L 830,397 L 830,398 L 831,399 L 831,402 L 832,403 L 832,407 L 831,408 L 831,410 L 830,411 L 830,413 L 828,415 L 828,416 L 825,419 L 824,419 L 823,420 L 822,420 L 821,421 L 819,421 L 818,422 L 812,422 L 811,421 L 809,421 L 808,420 L 807,420 L 805,418 L 806,417 L 805,418 L 801,414 L 801,413 L 800,412 L 800,411 L 799,410 L 799,408 L 798,407 L 798,402 L 799,401 L 799,398 L 800,397 L 800,396 Z M 800,377 L 803,377 L 806,379 L 805,380 L 801,380 L 800,381 L 792,383 L 776,391 L 770,396 L 769,396 L 756,409 L 756,410 L 753,413 L 749,421 L 746,425 L 746,427 L 744,430 L 744,432 L 742,435 L 742,438 L 740,442 L 740,446 L 739,447 L 739,454 L 738,455 L 738,468 L 739,469 L 739,476 L 740,477 L 740,481 L 741,482 L 743,490 L 746,495 L 746,497 L 749,501 L 750,504 L 754,509 L 754,510 L 759,515 L 759,516 L 771,527 L 786,536 L 788,536 L 796,540 L 799,540 L 800,541 L 803,541 L 804,542 L 808,542 L 809,543 L 815,543 L 816,544 L 812,546 L 802,545 L 801,544 L 798,544 L 797,543 L 789,541 L 777,535 L 775,533 L 771,531 L 768,528 L 767,528 L 753,514 L 753,513 L 750,510 L 747,504 L 745,502 L 741,494 L 740,489 L 738,486 L 738,483 L 737,482 L 737,477 L 736,476 L 736,473 L 735,472 L 735,451 L 736,450 L 736,445 L 737,444 L 738,437 L 740,434 L 740,431 L 744,424 L 745,420 L 747,418 L 750,412 L 753,409 L 753,408 L 768,393 L 769,393 L 772,390 L 788,381 L 790,381 L 791,380 L 793,380 L 794,379 L 796,379 Z M 805,376 L 810,376 L 811,375 L 816,375 L 817,374 L 830,374 L 831,375 L 835,375 L 836,376 L 841,376 L 843,378 L 844,377 L 850,378 L 851,379 L 856,380 L 861,383 L 863,383 L 865,385 L 870,387 L 879,394 L 880,394 L 893,407 L 893,408 L 900,417 L 905,427 L 905,429 L 907,432 L 907,434 L 909,438 L 910,446 L 911,447 L 911,458 L 912,459 L 912,464 L 911,465 L 911,472 L 910,473 L 909,482 L 907,486 L 907,489 L 905,492 L 905,494 L 902,500 L 892,515 L 880,527 L 865,537 L 853,542 L 849,540 L 869,531 L 875,526 L 876,526 L 888,515 L 888,514 L 892,510 L 896,504 L 903,489 L 903,487 L 906,480 L 907,471 L 908,470 L 908,450 L 907,449 L 906,440 L 905,439 L 902,428 L 893,412 L 880,398 L 879,398 L 875,394 L 866,388 L 860,385 L 858,385 L 855,383 L 853,383 L 846,380 L 842,380 L 841,379 L 836,379 L 835,378 L 811,378 L 810,379 L 806,379 L 804,377 Z M 975,363 L 976,364 L 976,375 L 975,376 L 974,375 L 974,364 Z M 800,323 L 799,324 L 795,324 L 794,325 L 790,325 L 789,326 L 786,326 L 785,327 L 782,327 L 781,326 L 782,325 L 784,325 L 785,324 L 788,324 L 789,323 L 793,323 L 794,322 L 799,322 Z M 806,321 L 807,320 L 818,320 L 819,319 L 826,319 L 827,320 L 840,320 L 841,321 L 846,321 L 847,322 L 852,322 L 853,323 L 856,323 L 857,324 L 861,324 L 862,325 L 865,325 L 866,326 L 868,326 L 869,327 L 870,326 L 872,328 L 874,328 L 875,329 L 876,329 L 877,330 L 876,331 L 873,331 L 872,330 L 870,330 L 869,329 L 867,329 L 866,328 L 864,328 L 863,327 L 861,327 L 860,326 L 856,326 L 855,325 L 852,325 L 851,324 L 846,324 L 845,323 L 839,323 L 838,322 L 807,322 Z M 941,315 L 942,316 L 942,327 L 941,328 L 940,327 L 940,319 L 939,319 L 938,318 Z" fill="black" fill-rule="evenodd"/>
</svg>