<?xml version="1.0" encoding="UTF-8" standalone="no"?>
<svg
   width="1100"
   height="250"
   viewBox="0 0 1100 250"
   version="1.1"
   id="svg2"
   sodipodi:docname="m1_57mm_cannon_black.svg"
   inkscape:version="1.4.2 (f4327f4, 2025-05-13)"
   xmlns:inkscape="http://www.inkscape.org/namespaces/inkscape"
   xmlns:sodipodi="http://sodipodi.sourceforge.net/DTD/sodipodi-0.dtd"
   xmlns="http://www.w3.org/2000/svg"
   xmlns:svg="http://www.w3.org/2000/svg">
  <defs
     id="defs2" />
  <sodipodi:namedview
     id="namedview2"
     pagecolor="#ffffff"
     bordercolor="#000000"
     borderopacity="0.25"
     inkscape:showpageshadow="2"
     inkscape:pageopacity="0.0"
     inkscape:pagecheckerboard="0"
     inkscape:deskcolor="#d1d1d1"
     inkscape:zoom="0.55616943"
     inkscape:cx="595.14238"
     inkscape:cy="403.65397"
     inkscape:window-width="2560"
     inkscape:window-height="1377"
     inkscape:window-x="-8"
     inkscape:window-y="-8"
     inkscape:window-maximized="1"
     inkscape:current-layer="svg2" />
  <path
     d="m 69.596026,59.536679 v 12.415014 l 3.820004,3.3425 25.307523,1.910001 33.902517,-0.954996 1.91,1.432499 6.68501,0.477502 1.91,-3.342509 204.37018,16.235016 1.43251,0.955005 -0.955,5.730006 -10.98251,-0.95501 -1.91,1.91 -1.91,18.145013 1.91,1.91 14.32501,0.95501 1.91001,2.38749 15.28001,0.95501 1.43249,-1.91 10.98252,0.95499 9.0725,-21.01 -30.08252,-2.387513 -1.91001,-0.95499 0.47751,-6.207508 2.86499,-0.477503 0.47751,2.865011 31.03753,1.43249 8.595,-19.100009 -28.65002,-2.387504 -1.43251,-1.910001 -9.55,-0.955006 -15.28001,1.432499 -200.07269,-13.847512 -1.4325,-3.3425 H 125.46357 L 104.93105,50.941669 73.893529,49.50917 71.028527,51.419172 Z m 29.605027,-1.432498 h 5.729997 l 0.4775,0.477493 h 1.91 l 0.47751,0.477503 h 1.43249 l 0.95501,0.955005 v 2.387495 l -0.4775,0.477502 v 5.252511 l -0.47751,0.477493 v 0.955006 l -0.4775,0.477502 h -3.3425 l -0.4775,0.477494 h -1.91 l -0.4775,-0.477494 h -3.819997 l -0.4775,-0.477502 v -5.730004 l 0.4775,-0.477503 V 58.581674 Z M 78.191034,56.671673 h 3.342503 l 0.4775,0.477502 h 4.297504 l 0.955,0.955006 v 7.640005 l -0.477499,0.477503 v 1.910001 l -0.477501,0.477493 h -8.117507 l -0.477501,-0.477493 0.477501,-0.477503 h 2.387502 -2.387502 l -0.477501,0.477503 -0.4775,-0.477503 v -5.730004 l 0.4775,-0.477502 v -4.297506 z"
     fill="#000000"
     fill-rule="evenodd"
     id="path1"
     style="stroke-width:0.477501" />
  <path
     d="m 363.73628,165.54177 1.91,23.87502 14.80252,26.74002 21.01001,15.75751 26.74003,6.68501 22.44252,-2.86501 21.01002,-10.505 17.66751,-19.10002 8.11751,-20.05502 0.955,-21.96502 -7.16251,-22.92002 -13.37001,-17.19001 -21.01001,-14.32501 19.10001,10.9825 13.84751,16.23502 12.41502,0.955 1.4325,-6.2075 -0.955,7.1625 -11.93751,-0.955 6.2075,13.84752 2.3875,-11.46002 0.4775,39.15504 96.45509,5.2525 0.4775,-5.2525 11.93751,9.55001 10.50501,-5.73001 272.17524,15.28001 12.41501,4.29751 16.71252,-2.38751 35.33501,4.77501 -1.43247,14.32502 -6.2075,1.4325 -0.95504,3.82 21.48753,6.68501 13.37003,-0.95501 0.95505,-11.93751 18.14491,-9.55001 -2.86497,-3.82 h -18.14498 l 0.47752,-7.16251 55.39003,7.16251 3.82,-2.3875 -1.91,-4.77501 -43.93007,-9.55001 -11.45997,-6.685 -7.64006,-10.02751 -10.505,3.82001 1.90999,11.46001 -42.02001,-5.25251 -1.91,-4.775 -14.32501,-2.86501 -12.41502,4.77501 -106.48259,-10.50501 -0.955,-9.07251 -3.82,-2.86501 -21.01002,-1.43249 -3.34251,9.55 -138.47512,-12.41501 -11.93751,-11.93751 -3.82,1.91 0.955,9.07251 -10.98251,-5.73 -61.12006,-4.29751 1.43251,-13.84751 38.20003,6.68501 3.3425,-7.64001 h 16.23502 l 3.3425,-27.217513 -15.75751,-3.82001 -0.95501,-13.847508 -16.71251,-6.685009 V 62.401677 l 5.73001,-3.820003 -0.95501,-6.207506 -4.775,-2.387495 -8.59501,2.864997 -0.4775,7.162512 3.82001,3.820003 -3.82001,15.757513 19.57752,6.207507 -0.955,5.252501 -7.64001,1.910001 -7.1625,-6.207506 -19.10002,0.955005 -0.955,-12.415013 -67.80506,-6.207507 18.14502,-47.750042 -3.82001,-6.207507 -31.99253,4.297505 -3.82001,3.820003 -19.10001,-0.954996 -7.1625,3.820003 -53.95755,119.852598 z m 62.55256,47.27254 0.4775,-0.47751 h 1.91 l 0.4775,-0.4775 h 4.2975 l 0.4775,0.4775 h 0.47751 l 0.4775,0.47751 -0.4775,0.4775 h -7.64001 z m 16.71252,-1.4325 -0.47751,0.47749 h -1.4325 l -0.4775,0.4775 h -1.91 l -0.4775,0.47751 h -2.86501 l -0.95499,-0.95501 0.4775,-0.47749 h 2.865 l 0.4775,-0.4775 h 1.91 l 0.4775,-0.47751 h 1.4325 z m 520.47549,-6.20751 0.47743,-0.4775 h 9.55005 l 0.47752,0.4775 -0.47752,0.4775 h -9.55005 z m -7.64006,0 v -0.4775 l 0.47752,-0.4775 h 6.2075 l 0.47752,0.4775 -0.47752,0.4775 h -5.72998 l -0.47752,0.4775 z m -520.47545,-14.32501 0.47751,0.4775 h 0.955 l 0.47749,0.47749 h 0.47751 l 0.4775,0.47751 h 0.4775 l 1.91,1.91 v 0.4775 l 0.955,0.95501 v 0.47749 l 0.4775,0.4775 v 1.4325 l 0.4775,0.4775 v 1.91 l -0.4775,0.47751 v 1.4325 l -0.4775,0.4775 v 0.4775 l -1.91,1.91 h -0.4775 l -0.4775,0.4775 h -0.955 l -0.47751,0.4775 h -2.38749 l -0.4775,0.4775 h -2.86501 l -0.47749,-0.4775 h -0.47751 l -0.4775,-0.4775 h -0.4775 l -1.4325,-1.4325 v -0.4775 l -0.4775,-0.4775 v -0.4775 l -0.47751,-0.4775 v -0.955 l -0.47749,-0.4775 v -3.82001 l 0.47749,-0.4775 v -0.95499 l 0.47751,-0.47751 v -0.4775 l 0.955,-0.955 0.4775,0.4775 0.955,-0.955 -0.4775,-0.4775 0.955,-0.95501 h 0.47751 l 0.47749,-0.47749 h 1.91 l 0.4775,-0.4775 z m 540.53051,-2.38751 0.95495,-0.95499 h 0.47752 l 1.43256,-1.43251 h 0.95495 l 0.95504,0.95501 h 0.47743 l 0.95504,0.95499 h 0.47752 l 0.95495,0.95501 -0.47742,0.4775 h -1.43257 0.47752 l 0.47752,0.47749 0.47753,-0.47749 0.47742,0.47749 -0.47742,-0.47749 0.47742,-0.4775 h 0.47753 l 0.95504,0.95499 h 0.47743 l 0.47752,0.47751 -0.47752,0.4775 h -3.34247 l -0.47752,-0.4775 h -0.47752 l -1.43247,-1.4325 h -3.34246 z m -567.74803,-7.1625 h 2.38751 l 0.4775,0.4775 h 1.4325 l 0.4775,0.4775 h 0.47749 l 2.86501,2.865 v 0.47751 l 0.4775,0.47749 v 0.4775 l 0.4775,0.47751 v 3.82 l -0.4775,0.4775 v 0.955 l -0.955,0.955 v 0.4775 l -1.91,1.91001 h -0.47751 l -0.47749,0.47749 h -0.4775 l -0.47751,0.4775 h -0.95499 l -0.4775,0.4775 h -2.86501 l -0.47749,-0.4775 h -0.95501 l -0.4775,-0.4775 h -0.47751 l -2.38749,-2.3875 v -0.4775 l -0.95501,-0.955 v -0.47751 l -0.4775,-0.47749 v -0.4775 l -0.47749,-0.4775 v -3.3425 l 0.47749,-0.47751 v -0.4775 l 0.4775,-0.47749 v -0.47751 l 2.38751,-2.3875 h 0.4775 l 0.47749,-0.4775 h 0.47751 l 0.4775,-0.4775 h 1.4325 z m 501.85295,-2.3875 0.4775,-0.47751 0.4775,0.47751 h 3.3425 l 0.47751,0.4775 h 4.29749 l 0.4775,0.47749 v 0.47751 l -0.4775,0.4775 h -4.775 l -0.4775,-0.4775 h -3.3425 l -0.4775,-0.47751 z m 59.68758,-1.91 h 0.47752 l 0.47743,-0.47751 h 2.38751 l 0.47752,0.47751 -0.47752,0.4775 h -1.90999 1.90999 l 0.47752,-0.4775 h 0.47752 l 1.91,1.91 v 2.865 l -0.47753,0.4775 v 0.4775 l -0.95494,0.95501 h -0.47753 l -0.47752,0.47749 h -3.34246 l -1.91009,-1.91 v -0.4775 l -0.47742,-0.4775 v -1.43251 l 0.47742,-0.47749 0.47753,0.47749 v 0.47751 -0.47751 l -0.47753,-0.47749 v -0.4775 l 0.47753,-0.47751 0.47752,0.47751 -0.47752,-0.47751 v -0.4775 z m -516.65549,-1.91001 h 0.955 l 0.4775,-0.4775 h 4.29751 l 0.47749,0.4775 h 0.95501 l 0.4775,0.47751 h 0.47749 l 2.86501,2.86499 v 0.95501 l 0.4775,0.47749 v 3.34251 l -0.4775,0.47751 v 1.43249 l -0.4775,0.47751 v 0.47749 l -0.955,0.95501 v 0.4775 l -1.91,1.91 h -0.4775 l -0.4775,0.47749 h -0.955 l -0.4775,0.47751 h -3.3425 l -0.47751,-0.47751 h -0.955 l -0.4775,-0.47749 h -0.4775 l -0.4775,-0.4775 h -0.4775 l -1.91,-1.91 v -0.47751 l -0.955,-0.95499 v -0.95501 l -0.4775,-0.4775 v -2.865 l 0.4775,-0.4775 v -1.4325 l 0.47749,-0.4775 v -0.47751 l 0.95501,-0.95499 0.4775,0.47749 -0.4775,-0.47749 1.91,-1.91 h 0.4775 z m -35.33503,-3.82 h 0.955 l 0.47751,0.4775 -0.47751,0.4775 h -0.4775 l -0.4775,0.4775 v 0.4775 -0.4775 l 0.4775,-0.4775 0.4775,0.4775 v 0.4775 -0.955 l 0.47751,-0.4775 0.95499,0.955 -0.4775,0.4775 v 0.47751 l -0.955,0.95499 h -0.955 l -0.955,-0.95499 v -1.43251 z m 10.50501,-6.68501 h 5.73 l 0.47751,0.47751 h 0.4775 l 0.47749,0.4775 h 0.47751 l 0.4775,0.47749 h 0.4775 l 1.4325,1.43251 v 0.47749 l 0.4775,0.47751 v 0.4775 l 0.4775,0.4775 v 0.955 l 0.4775,0.4775 v 3.3425 l -0.4775,0.4775 v 0.95501 l -0.4775,0.47749 v 0.4775 l -0.955,0.95501 -0.47751,-0.4775 h -1.43249 l -0.47751,-0.47751 0.95501,-0.95499 v -0.95501 l 0.4775,-0.4775 v -3.82 l -0.4775,-0.4775 v -0.4775 l -0.95501,-0.955 0.47751,-0.47751 h 1.43249 l -0.47749,-0.47749 -0.4775,0.47749 h -0.4775 l -0.47751,0.47751 -0.47749,-0.47751 h -0.4775 l -0.47751,-0.47749 h -0.4775 l -0.47749,-0.4775 h -3.82001 l -0.4775,0.4775 h -0.4775 l -2.3875,2.3875 v 0.955 l -0.47751,0.4775 v 2.38751 l 0.47751,0.47749 v 0.4775 l 0.4775,0.4775 v 0.47751 l 1.4325,1.4325 -0.47751,0.4775 0.47751,-0.4775 h 0.4775 l 0.4775,0.4775 h 0.4775 l 0.4775,0.47749 h 2.86501 l 0.4775,-0.47749 h 0.95499 l 0.47751,-0.4775 h 0.4775 l 0.47749,-0.47751 0.47751,0.47751 h 1.43249 l 0.47751,0.4775 v 0.47749 l -1.4325,1.43251 h -0.4775 l -0.47751,0.47749 h -0.47749 l -0.4775,0.47751 h -0.47751 l -0.4775,0.4775 h -4.775 l -0.4775,-0.4775 h -0.4775 l -0.47751,-0.47751 h -0.47749 l -0.4775,-0.47749 h -0.4775 l -2.38751,-2.3875 v -0.47751 l -0.47749,-0.4775 v -0.47749 l -0.4775,-0.47751 v -4.775 l 0.4775,-0.4775 v -0.955 l 1.91,-1.91 0.47749,0.4775 h 1.43251 -0.4775 l -0.95501,-0.95501 0.95501,-0.95499 h 0.4775 l 0.47749,-0.4775 h 0.47751 z m 336.6378,-2.86499 0.4775,-0.47751 v -0.955 l 0.4775,-0.4775 h 1.4325 l 0.4775,0.4775 h 4.2975 l 0.4775,0.4775 h 4.29751 l 0.4775,0.4775 h 4.775 l 0.4775,0.47751 h 0.47751 l 0.4775,0.47749 v 0.955 l -0.4775,0.47751 v 3.3425 l -0.47751,0.4775 h -3.3425 l -0.4775,-0.4775 h -4.77501 l -0.47749,-0.47751 h -4.29751 l -0.4775,-0.4775 h -3.3425 l -0.4775,-0.47749 z m -362.90033,-6.68501 h 0.95501 l 0.47749,-0.47751 h 2.38751 l 0.4775,0.47751 h 1.4325 l 0.4775,0.4775 h 0.4775 l 0.47751,0.47749 h 0.47749 l 2.86501,2.86501 v 0.4775 l 0.4775,0.4775 v 0.4775 l 0.47749,0.4775 v 3.3425 l -0.47749,0.4775 v 0.95501 l -0.95501,0.95499 v 0.47751 l -0.4775,0.4775 -0.47749,-0.4775 -0.4775,0.4775 0.4775,0.47749 -1.43251,1.43251 h -0.47749 l -0.47751,0.4775 h -0.955 l -0.47749,0.4775 h -4.29751 l -0.4775,-0.4775 h -0.47751 l -0.4775,-0.4775 h -0.95499 l -2.86501,-2.86501 v -0.95499 l -0.47749,-0.4775 v -3.3425 l 0.47749,-0.47751 v -0.955 l 0.4775,-0.4775 v -0.4775 l 0.4775,-0.4775 v -0.955 l 2.38751,-2.3875 h 0.47749 z m 49.18255,-7.64001 h 3.82001 l 0.47749,0.4775 h 0.95501 l 3.3425,3.3425 v 0.47751 l 0.4775,0.47749 v 0.4775 l 0.4775,0.4775 v 0.955 l 0.47749,0.4775 v 2.38751 l -0.47749,0.4775 v 0.4775 l -0.4775,0.4775 v 0.955 l -2.38751,2.38751 h -0.4775 l -0.47749,0.47749 h -0.4775 l -0.47751,0.4775 h -0.95499 l -0.47751,0.4775 h -4.2975 l -0.4775,-0.4775 h -0.47751 l -0.47749,-0.4775 h -0.4775 l -0.95501,-0.955 0.47751,-0.4775 -0.47751,0.4775 -0.47749,-0.4775 v -0.4775 l -1.43251,-1.4325 v -0.955 l -0.47749,-0.4775 v -3.34251 l 0.47749,-0.47749 v -0.95501 l 0.4775,-0.4775 v -0.47749 l 0.95501,-0.95501 0.47749,0.4775 0.47751,-0.4775 -0.47751,-0.4775 1.91,-1.91 h 0.47751 l 0.4775,-0.4775 h 0.4775 z m -28.65002,-8.59501 h 0.95499 l 0.4775,-0.4775 h 2.38751 l 0.4775,-0.4775 h 3.3425 l 0.4775,0.4775 h 0.955 l 2.3875,2.3875 v 0.4775 l 0.47751,0.47751 v 0.47749 l 0.4775,0.4775 v 1.4325 l 0.47749,0.4775 v 1.91001 l -0.47749,0.4775 v 0.955 l -0.4775,0.4775 v 0.955 l -0.95501,0.955 v 0.4775 l -1.4325,1.4325 h -0.4775 l -0.47749,0.4775 h -0.47751 l -0.4775,0.4775 h -0.955 l -0.4775,0.47751 h -2.865 l -0.47751,-0.47751 h -0.95499 l -0.47751,-0.4775 h -0.4775 l -0.95499,-0.95499 0.4775,-0.47751 -0.4775,0.47751 -1.91001,-1.91001 v -0.4775 l -0.4775,-0.4775 v -0.4775 l -0.4775,-0.4775 v -0.955 l -0.47749,-0.4775 v -2.38751 l 0.47749,-0.47749 v -1.43251 l 0.4775,-0.47749 v -0.47751 z m -2.38751,-6.68501 h 1.4325 l 1.43251,0.95501 -0.4775,0.4775 h -1.91001 l -0.4775,0.4775 -3.82,0.955 -7.64001,3.82 -2.865,2.3875 h -0.47751 l -6.20749,6.20751 v 0.4775 l -1.43251,1.4325 -1.91,3.82 -1.4325,1.91001 v 0.95499 l -0.95501,1.43251 v 0.955 l -0.95499,1.4325 v 1.4325 l -0.95501,1.91 v 1.91001 l -0.47749,0.4775 v 3.3425 l -0.4775,0.4775 v 6.20751 l 0.4775,0.47749 v 3.34251 l 0.47749,0.47749 v 1.91001 l 0.47751,0.4775 0.955,3.82 1.4325,2.3875 v 0.95501 l 1.4325,1.91 0.4775,1.4325 1.91,2.3875 v 0.47751 l 2.38751,2.38749 v 0.4775 l 5.73,5.25251 7.1625,4.2975 h 0.95501 l 3.82,1.91 h 1.4325 l 0.4775,0.4775 h 1.4325 l 0.4775,0.47751 h 1.91 l 0.47751,0.4775 h 2.86499 l 0.47751,0.47749 -1.91,0.95501 -4.775,-0.47751 -0.47751,-0.4775 h -1.43249 l -0.47751,-0.47749 -3.82,-0.95501 -5.73,-2.86499 -0.95501,-0.95501 -1.91,-0.955 -1.4325,-1.4325 h -0.4775 l -6.68501,-6.685 v -0.47751 l -1.4325,-1.43249 -1.4325,-2.86501 -0.955,-0.95501 -1.91,-3.82 -0.47751,-2.38749 -0.95499,-1.43251 v -1.4325 l -0.47751,-0.4775 v -2.38751 l -0.4775,-0.47749 v -1.43251 l -0.47749,-0.47749 v -10.02751 l 0.47749,-0.4775 v -2.38751 l 0.4775,-0.4775 0.47751,-3.3425 0.95499,-1.4325 v -1.4325 l 1.91,-3.34251 0.47751,-1.91 0.955,-0.95499 1.4325,-2.86501 1.4325,-1.4325 v -0.4775 l 7.16251,-7.1625 h 0.47749 l 1.43251,-1.43251 7.64001,-4.2975 h 0.95499 l 0.47751,-0.4775 h 0.955 l 0.4775,-0.4775 h 0.955 z m 2.38751,-0.47749 h 2.3875 l 0.47749,-0.47751 h 2.38751 l 0.4775,-0.4775 h 6.20751 l 0.4775,0.4775 h 1.91 l 0.47749,0.47751 h 2.38751 l 0.955,0.95499 0.4775,-0.4775 2.865,0.4775 0.47751,0.47751 2.3875,0.4775 2.38749,1.4325 h 0.95501 l 0.955,0.955 2.3875,0.955 4.2975,3.3425 h 0.47751 l 6.2075,6.20751 v 0.4775 l 3.3425,4.2975 2.38751,4.775 v 0.95501 l 0.95499,1.4325 v 0.955 l 0.95501,1.91 0.4775,3.82001 0.4775,0.4775 v 5.2525 l 0.4775,0.4775 v 2.38751 l -0.4775,0.47749 v 3.34251 l -0.4775,0.47749 -0.4775,4.29751 -0.95501,1.91 v 1.43251 l -0.95499,1.4325 v 0.95499 l -1.4325,2.86501 -4.77501,7.1625 -5.73,5.73001 -7.16251,4.775 -5.73001,2.38751 -1.91,-0.95501 9.55001,-4.2975 2.865,-2.3875 h 0.47751 l 5.73,-5.25251 v -0.47749 l 1.91,-1.91 1.91,-2.86501 3.3425,-7.1625 v -0.95501 l 1.43251,-3.3425 0.47749,-4.2975 0.47751,-0.47751 v -9.55 l -0.47751,-0.47751 -0.47749,-4.2975 -0.4775,-0.47749 -1.4325,-5.25252 -4.29751,-7.64 -6.2075,-6.68501 h -0.47751 l -1.91,-1.91 -4.2975,-2.865 -2.865,-1.4325 h -0.955 l -1.4325,-0.955 h -0.95501 l -3.3425,-1.4325 h -1.91 l -0.4775,-0.4775 h -2.38751 l -0.47749,-0.47751 h -11.46002 l -0.47749,0.47751 h -1.91 l -0.95501,-0.95501 z m 81.17507,-6.20751 0.4775,0.4775 v 5.2525 l -0.4775,0.47751 -0.47751,-0.47751 v -5.2525 z m -83.56258,-19.10002 -0.4775,0.4775 h -1.91 l -0.4775,0.4775 h -1.91001 l -0.47749,0.47751 h -1.43251 l -0.47749,0.47749 h -1.43251 l -0.47749,-0.47749 0.47749,-0.47751 h 0.95501 l 0.4775,-0.4775 h 1.4325 l 0.4775,-0.4775 h 1.91 l 0.4775,-0.47749 h 2.3875 z m 2.86501,-0.955 0.47749,-0.4775 h 5.25251 l 0.4775,-0.4775 h 3.34251 l 0.4775,0.4775 h 6.2075 l 0.4775,0.4775 h 2.3875 l 0.4775,0.47751 h 2.38751 l 0.47749,0.47749 h 1.43251 l 0.47749,0.4775 h 1.91 l 0.47751,0.4775 h 1.4325 l 0.4775,0.47751 h 0.955 l 0.4775,0.47749 0.4775,-0.47749 0.955,0.95499 h 0.955 l 0.4775,0.47751 h 0.47751 l 0.4775,0.4775 -0.4775,0.47749 h -1.4325 l -0.47751,-0.47749 h -0.955 l -0.4775,-0.4775 h -0.955 l -0.4775,-0.47751 h -0.955 l -0.4775,-0.4775 h -0.95501 l -0.47749,-0.47749 h -1.91 l -0.4775,-0.47751 h -1.4325 l -0.4775,-0.4775 h -2.38751 l -0.4775,-0.4775 h -2.865 l -0.4775,-0.47749 h -14.80252 z m 64.46255,-2.865 0.4775,0.4775 v 5.2525 l -0.4775,0.4775 -0.4775,-0.4775 v -3.82 h -0.4775 l -0.4775,-0.4775 z"
     fill="#000000"
     fill-rule="evenodd"
     id="path2"
     style="stroke-width:0.477501" />
</svg>
