<svg xmlns="http://www.w3.org/2000/svg" viewBox="0 0 145 64" width="145" height="64">
  <path d="M 139.00 18.00 L 136.00 18.00 L 135.00 17.00 L 135.00 13.00 L 132.00 13.00 L 132.00 17.00 L 130.00 19.00 L 117.00 19.00 L 115.00 17.00 L 109.00 17.00 L 108.00 16.00 L 85.00 16.00 L 84.00 15.00 L 82.00 16.00 L 75.00 15.00 L 74.00 18.00 L 69.00 18.00 L 68.00 19.00 L 50.00 19.00 L 48.00 17.00 L 46.00 17.00 L 44.00 19.00 L 42.00 19.00 L 41.00 20.00 L 41.00 23.00 L 35.00 28.00 L 33.00 28.00 L 30.00 26.00 L 5.00 28.00 L 4.00 29.00 L 4.00 33.00 L 5.00 34.00 L 5.00 48.00 L 6.00 49.00 L 9.00 49.00 L 27.00 40.00 L 36.00 41.00 L 38.00 36.00 L 41.00 33.00 L 43.00 33.00 L 46.00 38.00 L 51.00 38.00 L 54.00 32.00 L 57.00 33.00 L 57.00 36.00 L 59.00 37.00 L 60.00 44.00 L 64.00 44.00 L 72.00 41.00 L 71.00 39.00 L 71.00 32.00 L 74.00 29.00 L 97.00 27.00 L 98.00 26.00 L 107.00 26.00 L 110.00 24.00 L 115.00 25.00 L 118.00 23.00 L 126.00 23.00 L 129.00 24.00 L 130.00 22.00 L 139.00 21.00 Z" fill="#000000" stroke="#000000" stroke-width="0.5" fill-rule="evenodd" clip-rule="evenodd"/>
</svg>
