<svg xmlns="http://www.w3.org/2000/svg" width="1448" height="1086" viewBox="0 0 1448 1086">
<rect width="100%" height="100%" fill="white"/>
<path d="M 49,631 L 55,659 L 66,665 L 324,581 L 398,588 L 412,556 L 438,528 L 465,516 L 495,512 L 506,519 L 510,543 L 525,552 L 560,550 L 579,527 L 611,528 L 612,605 L 626,608 L 615,609 L 680,607 L 683,505 L 962,501 L 1070,480 L 1074,491 L 1092,492 L 1098,477 L 1123,473 L 1127,459 L 1156,459 L 1161,472 L 1220,471 L 1221,460 L 1237,457 L 1371,461 L 1401,456 L 1402,437 L 1378,435 L 1379,413 L 1380,421 L 1371,406 L 1362,406 L 1345,416 L 1344,435 L 1120,435 L 1074,429 L 1064,421 L 741,419 L 740,427 L 737,421 L 706,421 L 695,436 L 671,431 L 667,440 L 589,440 L 559,433 L 564,431 L 561,418 L 551,416 L 558,414 L 532,416 L 523,404 L 516,404 L 510,431 L 481,433 L 476,442 L 430,456 L 376,487 L 340,477 L 292,478 L 49,506 Z M 517,516 L 518,516 L 519,517 L 519,518 L 521,520 L 521,523 L 520,524 L 520,532 L 521,533 L 521,536 L 522,537 L 522,538 L 524,540 L 524,541 L 525,542 L 524,543 L 523,543 L 523,544 L 522,545 L 520,545 L 519,544 L 520,543 L 521,543 L 521,542 L 518,542 L 517,543 L 514,540 L 514,539 L 515,538 L 516,538 L 515,538 L 514,539 L 513,538 L 513,537 L 512,536 L 512,531 L 511,530 L 511,529 L 512,528 L 512,524 L 513,523 L 514,524 L 514,523 L 516,521 L 517,521 L 518,520 L 517,519 L 517,518 L 516,517 Z M 529,520 L 531,518 L 532,519 L 534,519 L 534,518 L 533,517 L 535,515 L 536,515 L 537,516 L 536,517 L 537,516 L 536,515 L 537,514 L 539,514 L 540,513 L 556,513 L 557,514 L 558,514 L 559,515 L 558,516 L 557,516 L 562,516 L 563,517 L 562,518 L 560,518 L 560,519 L 564,519 L 565,520 L 565,521 L 564,522 L 566,524 L 566,533 L 566,524 L 567,523 L 568,524 L 568,534 L 567,535 L 567,537 L 566,538 L 565,537 L 565,535 L 564,535 L 565,536 L 565,537 L 566,538 L 566,539 L 564,541 L 563,540 L 562,540 L 563,540 L 564,541 L 561,544 L 560,544 L 559,545 L 556,545 L 555,546 L 551,546 L 550,545 L 551,544 L 552,544 L 551,544 L 550,545 L 550,546 L 549,547 L 539,547 L 538,548 L 534,548 L 533,547 L 526,547 L 525,546 L 525,545 L 527,543 L 528,544 L 530,544 L 530,543 L 531,542 L 529,540 L 530,539 L 529,538 L 528,539 L 527,538 L 527,537 L 526,536 L 526,534 L 525,533 L 525,528 L 526,527 L 526,525 L 527,524 L 527,523 L 528,522 L 529,523 L 529,522 L 530,521 Z M 1081,484 L 1082,483 L 1086,483 L 1087,484 L 1087,485 L 1086,486 L 1083,486 Z M 291,479 L 292,478 L 301,478 L 302,479 L 301,480 L 292,480 Z M 1361,407 L 1362,406 L 1371,406 L 1372,407 L 1371,408 L 1362,408 Z" fill="black" fill-rule="evenodd"/>
</svg>