<?xml version="1.0" encoding="UTF-8" standalone="no"?>
<svg
   width="1200"
   height="250"
   viewBox="0 0 1200 250"
   version="1.1"
   id="svg1"
   sodipodi:docname="m1_carbine_black.svg"
   inkscape:version="1.4.2 (f4327f4, 2025-05-13)"
   xmlns:inkscape="http://www.inkscape.org/namespaces/inkscape"
   xmlns:sodipodi="http://sodipodi.sourceforge.net/DTD/sodipodi-0.dtd"
   xmlns="http://www.w3.org/2000/svg"
   xmlns:svg="http://www.w3.org/2000/svg">
  <defs
     id="defs1" />
  <sodipodi:namedview
     id="namedview1"
     pagecolor="#ffffff"
     bordercolor="#000000"
     borderopacity="0.25"
     inkscape:showpageshadow="2"
     inkscape:pageopacity="0.0"
     inkscape:pagecheckerboard="0"
     inkscape:deskcolor="#d1d1d1"
     inkscape:zoom="1.0819521"
     inkscape:cx="723.69191"
     inkscape:cy="395.11915"
     inkscape:window-width="2560"
     inkscape:window-height="1377"
     inkscape:window-x="-8"
     inkscape:window-y="-8"
     inkscape:window-maximized="1"
     inkscape:current-layer="svg1" />
  <path
     d="m 33.287659,207.30274 4.926802,22.99175 9.03247,4.92679 211.852479,-68.97523 60.76389,5.74793 11.49588,-26.27626 21.34947,-22.99174 22.17061,-9.85362 24.63402,-3.28453 9.03247,5.74794 3.28453,19.7072 12.317,7.39022 28.73968,-1.64229 15.60154,-18.88607 26.27627,0.82115 0.82113,63.22728 11.49588,2.46339 -9.03247,0.82114 53.37368,-1.64226 2.46342,-83.75564 229.09628,-3.28454 88.68244,-17.243791 3.28452,9.032457 14.78041,0.821136 4.92682,-12.317005 20.52832,-3.284524 3.28454,-11.495871 h 23.81288 l 4.10567,10.674734 48.44688,-0.821138 0.82114,-9.032473 13.13809,-2.463399 110.032,3.284537 24.634,-4.105674 0.8211,-15.601537 -19.7071,-1.642261 0.8211,-18.064946 0.8211,6.569074 -7.3902,-12.31701 h -7.3902 l -13.9592,8.211335 -0.8212,15.601547 h -183.934 l -37.77215,-4.926812 -8.21133,-6.56906 -265.22617,-1.642275 -0.82114,6.569073 -2.46339,-4.926798 h -25.45515 l -9.03247,12.316996 -19.70721,-4.105661 -3.28453,7.390197 h -64.04842 l -24.63402,-5.747936 4.10567,-1.642261 -2.4634,-10.674748 -8.21134,-1.642262 5.74794,-1.642261 -21.34947,1.642261 -7.3902,-9.853596 h -5.74795 l -4.92679,22.170606 -23.81288,1.642261 -4.10567,7.390215 -37.77215,11.495859 -44.34121,25.455143 -29.56081,-8.211335 -39.41441,0.821137 L 33.287659,104.66103 Z M 417.57822,112.87236 h 0.82113 l 0.82113,0.82115 v 0.82113 l 1.64226,1.64226 v 2.4634 l -0.82112,0.82114 v 6.56906 l 0.82112,0.82114 v 2.46339 l 0.82114,0.82114 v 0.82114 l 1.64227,1.64226 v 0.82114 l 0.82113,0.82114 -0.82113,0.82112 h -0.82113 v 0.82114 l -0.82114,0.82114 h -1.64226 l -0.82114,-0.82114 0.82114,-0.82114 h 0.82112 v -0.82112 h -2.46339 l -0.82113,0.82112 -2.46342,-2.4634 v -0.82114 l 0.82114,-0.82112 h 0.82113 -0.82113 l -0.82114,0.82112 -0.82112,-0.82112 v -0.82114 l -0.82114,-0.82114 v -4.10565 l -0.82113,-0.82114 v -0.82115 l 0.82113,-0.82111 v -3.28454 l 0.82114,-0.82114 0.82112,0.82114 v -0.82114 l 1.64227,-1.64226 h 0.82115 l 0.82113,-0.82114 -0.82113,-0.82113 v -0.82113 l -0.82115,-0.82113 z m 9.8536,3.28454 1.64227,-1.64226 0.82113,0.82113 h 1.64227 v -0.82113 l -0.82114,-0.82113 1.64226,-1.64229 h 0.82114 l 0.82113,0.82114 -0.82113,0.82115 0.82113,-0.82115 -0.82113,-0.82114 0.82113,-0.82112 h 1.64227 l 0.82113,-0.82114 h 13.13814 l 0.82114,0.82114 h 0.82113 l 0.82113,0.82112 -0.82113,0.82114 h -0.82113 4.10567 l 0.82112,0.82115 -0.82112,0.82113 h -1.64227 v 0.82113 h 3.28453 l 0.82115,0.82113 v 0.82114 l -0.82115,0.82112 1.64227,1.64228 v 7.3902 -7.3902 l 0.82114,-0.82114 0.82113,0.82114 v 8.21133 l -0.82113,0.82114 v 1.64226 l -0.82114,0.82114 -0.82112,-0.82114 v -1.64226 h -0.82115 l 0.82115,0.82112 v 0.82114 l 0.82112,0.82114 v 0.82112 l -1.64227,1.64228 -0.82114,-0.82114 h -0.82112 0.82112 l 0.82114,0.82114 -2.4634,2.4634 h -0.82113 l -0.82114,0.82114 h -2.4634 l -0.82112,0.82112 h -3.28455 l -0.82113,-0.82112 0.82113,-0.82114 h 0.82113 -0.82113 l -0.82113,0.82114 v 0.82112 l -0.82114,0.82114 h -8.21133 l -0.82113,0.82113 h -3.28453 l -0.82114,-0.82113 h -5.74794 l -0.82113,-0.82114 v -0.82112 l 1.64227,-1.64228 0.82112,0.82114 h 1.64229 v -0.82114 l 0.82113,-0.82112 -1.64227,-1.64228 0.82114,-0.82114 -0.82114,-0.82112 -0.82115,0.82112 -0.82112,-0.82112 v -0.82114 l -0.82114,-0.82114 v -1.64226 l -0.82113,-0.82113 v -4.10566 l 0.82113,-0.82115 v -1.64226 l 0.82114,-0.82113 v -0.82114 l 0.82112,-0.82114 0.82115,0.82114 v -0.82114 l 0.82114,-0.82112 z m 453.26577,-29.560817 0.82113,-0.821124 h 3.28454 l 0.82114,0.821124 v 0.821137 l -0.82114,0.821138 h -2.4634 z M 232.002,82.490422 l 0.82115,-0.821138 h 7.39019 l 0.82113,0.821138 -0.82113,0.821137 h -7.39019 z m 878.613,-59.121625 0.8212,-0.821138 h 7.3902 l 0.8211,0.821138 -0.8211,0.821124 h -7.3902 z"
     fill="#000000"
     fill-rule="evenodd"
     id="path1"
     style="stroke-width:0.821134" />
</svg>
