<svg xmlns="http://www.w3.org/2000/svg" width="1448" height="1086" viewBox="0 0 1448 1086">
<rect width="100%" height="100%" fill="white"/>
<path d="M 69,553 L 85,647 L 92,661 L 110,663 L 176,637 L 192,644 L 195,630 L 319,584 L 340,582 L 374,593 L 388,591 L 420,550 L 459,532 L 470,533 L 468,544 L 469,538 L 488,563 L 507,567 L 520,563 L 528,553 L 541,554 L 544,539 L 554,535 L 659,537 L 723,521 L 966,502 L 972,519 L 979,492 L 980,500 L 983,494 L 1204,491 L 1202,501 L 1209,506 L 1218,492 L 1219,496 L 1219,486 L 1271,490 L 1278,485 L 1362,485 L 1365,472 L 1359,467 L 1379,464 L 1382,455 L 1379,449 L 1348,445 L 1349,428 L 1334,421 L 1321,429 L 1322,445 L 1317,449 L 1215,449 L 1198,443 L 978,444 L 972,439 L 690,435 L 663,445 L 588,445 L 576,434 L 545,430 L 537,417 L 522,422 L 521,442 L 513,447 L 468,451 L 458,472 L 384,504 L 358,493 L 74,504 L 69,515 Z M 497,560 L 498,559 L 511,559 L 512,560 L 511,561 L 498,561 Z M 490,546 L 491,547 L 491,551 L 492,552 L 492,553 L 491,554 L 489,552 L 489,547 Z M 484,543 L 485,544 L 485,546 L 485,545 L 486,544 L 488,546 L 488,548 L 487,549 L 487,552 L 486,553 L 485,552 L 485,551 L 484,550 L 484,548 L 483,547 L 483,544 Z M 530,542 L 531,541 L 532,542 L 532,545 L 534,545 L 535,546 L 534,547 L 531,547 L 530,546 Z M 527,533 L 527,534 L 526,535 L 526,536 L 525,537 L 525,542 L 524,543 L 524,551 L 523,552 L 523,553 L 520,556 L 519,555 L 519,554 L 519,555 L 517,557 L 515,557 L 516,557 L 517,558 L 516,559 L 515,559 L 514,560 L 512,560 L 511,559 L 498,559 L 497,560 L 494,560 L 493,559 L 492,559 L 491,558 L 492,557 L 492,556 L 493,555 L 495,557 L 496,557 L 498,555 L 498,554 L 499,553 L 498,554 L 497,553 L 497,552 L 498,551 L 499,551 L 499,550 L 498,549 L 498,548 L 498,551 L 497,552 L 496,551 L 496,542 L 497,541 L 498,542 L 498,544 L 498,543 L 499,542 L 499,541 L 498,542 L 497,541 L 497,540 L 500,537 L 501,538 L 503,538 L 503,535 L 504,534 L 505,534 L 506,535 L 505,534 L 506,533 L 507,533 L 508,534 L 507,533 L 508,532 L 526,532 Z M 483,531 L 495,531 L 496,532 L 494,534 L 493,533 L 484,533 L 484,534 L 489,534 L 490,535 L 491,535 L 493,533 L 494,534 L 494,535 L 492,537 L 492,539 L 491,540 L 491,545 L 489,547 L 488,546 L 488,542 L 487,542 L 486,543 L 485,543 L 484,542 L 484,541 L 483,540 L 483,538 L 483,540 L 482,541 L 481,540 L 481,534 L 482,533 L 482,532 Z M 1217,466 L 1219,464 L 1303,464 L 1304,465 L 1309,465 L 1310,464 L 1313,464 L 1314,465 L 1314,466 L 1315,466 L 1315,465 L 1316,464 L 1317,464 L 1318,465 L 1318,467 L 1317,468 L 1310,468 L 1309,467 L 1304,467 L 1303,468 L 1219,468 Z" fill="black" fill-rule="evenodd"/>
</svg>