<svg xmlns="http://www.w3.org/2000/svg" width="1254" height="1254" viewBox="0 0 1254 1254">
<rect width="100%" height="100%" fill="white"/>
<path d="M 84,561 L 87,761 L 76,768 L 70,782 L 71,802 L 78,819 L 121,860 L 179,893 L 258,923 L 354,948 L 472,967 L 583,975 L 726,972 L 866,955 L 979,929 L 1070,896 L 1114,873 L 1149,848 L 1171,825 L 1183,799 L 1181,774 L 1166,761 L 1169,561 L 1135,600 L 1109,619 L 1051,649 L 994,670 L 910,692 L 832,706 L 655,720 L 545,718 L 452,710 L 363,696 L 287,678 L 222,657 L 158,627 L 114,596 Z" fill="black" fill-rule="evenodd"/>
<path d="M 350,434 L 353,448 L 368,465 L 381,474 L 413,489 L 437,497 L 489,509 L 538,516 L 594,520 L 658,520 L 704,517 L 758,510 L 805,500 L 840,489 L 874,473 L 892,459 L 899,450 L 903,440 L 902,427 L 896,416 L 888,408 L 875,399 L 840,384 L 840,361 L 834,368 L 818,379 L 794,390 L 770,398 L 703,411 L 649,415 L 569,413 L 499,402 L 459,390 L 443,383 L 426,373 L 413,361 L 413,384 L 390,393 L 368,406 L 354,421 Z" fill="black" fill-rule="evenodd"/>
<path d="M 84,513 L 89,546 L 112,581 L 161,616 L 234,650 L 304,672 L 392,691 L 490,704 L 591,710 L 710,708 L 792,701 L 904,683 L 988,661 L 1067,630 L 1119,599 L 1156,564 L 1169,529 L 1165,489 L 1130,448 L 1088,420 L 1030,394 L 979,378 L 853,353 L 850,377 L 888,395 L 909,417 L 911,453 L 901,469 L 876,488 L 838,505 L 788,519 L 677,534 L 574,534 L 484,523 L 395,497 L 365,480 L 349,465 L 341,448 L 341,426 L 361,398 L 403,377 L 402,353 L 270,380 L 224,395 L 165,422 L 109,462 L 89,494 Z M 1117,498 L 1116,517 L 1110,533 L 1085,564 L 1052,588 L 994,616 L 941,634 L 849,655 L 778,665 L 680,672 L 571,672 L 484,666 L 388,652 L 300,630 L 234,605 L 186,578 L 150,544 L 139,523 L 136,507 L 140,485 L 149,470 L 152,473 L 146,501 L 151,521 L 179,556 L 198,572 L 254,601 L 312,620 L 376,636 L 451,649 L 546,658 L 641,660 L 734,656 L 823,646 L 892,633 L 970,611 L 1040,580 L 1085,546 L 1098,529 L 1106,510 L 1103,468 L 1104,474 L 1106,472 L 1113,483 Z" fill="black" fill-rule="evenodd"/>
<path d="M 413,330 L 413,341 L 419,353 L 431,364 L 450,375 L 449,376 L 451,375 L 479,386 L 516,395 L 555,401 L 591,404 L 663,404 L 706,400 L 747,393 L 789,381 L 813,370 L 825,362 L 835,352 L 840,342 L 840,329 L 833,316 L 817,303 L 799,294 L 777,286 L 745,278 L 707,272 L 661,268 L 593,268 L 565,270 L 525,275 L 491,282 L 462,291 L 435,304 L 419,318 Z" fill="black" fill-rule="evenodd"/>
</svg>