<?xml version="1.0" encoding="UTF-8" standalone="no"?>
<svg
   width="350"
   height="250"
   viewBox="0 0 350 250"
   version="1.1"
   id="svg4"
   sodipodi:docname="m1a1_at_mine_black.svg"
   inkscape:version="1.4.2 (f4327f4, 2025-05-13)"
   xmlns:inkscape="http://www.inkscape.org/namespaces/inkscape"
   xmlns:sodipodi="http://sodipodi.sourceforge.net/DTD/sodipodi-0.dtd"
   xmlns="http://www.w3.org/2000/svg"
   xmlns:svg="http://www.w3.org/2000/svg">
  <defs
     id="defs4" />
  <sodipodi:namedview
     id="namedview4"
     pagecolor="#ffffff"
     bordercolor="#000000"
     borderopacity="0.25"
     inkscape:showpageshadow="2"
     inkscape:pageopacity="0.0"
     inkscape:pagecheckerboard="0"
     inkscape:deskcolor="#d1d1d1"
     inkscape:zoom="0.93700159"
     inkscape:cx="626.46638"
     inkscape:cy="285.48511"
     inkscape:window-width="2560"
     inkscape:window-height="1377"
     inkscape:window-x="-8"
     inkscape:window-y="-8"
     inkscape:window-maximized="1"
     inkscape:current-layer="svg4" />
  <path
     d="m 27.909238,107.01795 0.814352,54.29002 -2.985953,1.90015 -1.628701,3.8003 0.271452,5.42901 1.90015,4.61465 11.672357,11.12947 15.744109,8.95785 21.44456,8.1435 26.059216,6.78626 32.03113,5.15755 30.13096,2.1716 38.81738,-0.81435 38.00302,-4.61465 30.67388,-7.05771 24.70196,-8.95786 11.94381,-6.24334 9.50076,-6.78625 5.9719,-6.24336 3.2574,-7.05772 -0.54289,-6.78624 -4.07176,-3.52886 0.81435,-54.29002 -9.22931,10.58655 -7.05771,5.15755 -15.74411,8.1435 -15.47265,5.70046 -22.80181,5.9719 -21.17313,3.80031 -48.04667,3.80031 -29.85952,-0.54291 -25.24487,-2.1716 -24.15907,-3.8003 -20.630207,-4.8861 -17.644261,-5.70046 -17.372814,-8.14352 -11.943805,-8.41494 z"
     fill="#000000"
     fill-rule="evenodd"
     id="path1"
     style="stroke-width:0.271451" />
  <path
     d="m 100.11499,72.543764 0.81435,3.800311 4.07175,4.614644 3.52885,2.44305 8.6864,4.071758 6.51481,2.171602 14.1154,3.257399 13.30106,1.90016 15.20122,1.08579 h 17.3728 l 12.48671,-0.81434 14.65832,-1.90015 12.75816,-2.714509 9.50074,-2.985952 9.22931,-4.343202 4.88612,-3.800311 1.90014,-2.44305 1.0858,-2.714508 -0.27145,-3.52884 -1.62871,-2.985953 -2.17159,-2.171605 -3.52885,-2.443054 -9.50077,-4.071743 V 52.7279 l -1.62869,1.90015 -4.3432,2.985951 -6.51481,2.985952 -6.5148,2.171606 -18.18716,3.528857 -14.65831,1.08579 -21.71601,-0.542901 -19.00152,-2.985943 -10.85801,-3.257409 -4.3432,-1.900149 -4.61465,-2.714495 -3.52886,-3.257409 v 6.243361 l -6.24335,2.44305 -5.9719,3.528844 -3.80031,4.071756 z"
     fill="#000000"
     fill-rule="evenodd"
     id="path2"
     style="stroke-width:0.271451" />
  <path
     d="m 27.909238,93.988338 1.357252,8.957852 6.243353,9.50076 13.30106,9.50074 19.815857,9.22932 19.00151,5.9719 23.88762,5.15756 26.60212,3.52885 27.41647,1.6287 32.30257,-0.5429 22.25891,-1.90016 30.40243,-4.8861 22.80181,-5.9719 21.44456,-8.41496 14.11542,-8.41495 10.04364,-9.50076 3.52886,-9.500762 -1.08581,-10.858001 -9.50074,-11.129452 -11.40093,-7.600621 -15.7441,-7.057697 -13.84395,-4.3432 -34.20274,-6.786263 -0.81435,6.514818 10.31512,4.886089 5.70045,5.971907 0.5429,9.772214 -2.71449,4.343199 -6.78627,5.157549 -10.3151,4.614658 -13.57251,3.80031 -30.13096,4.07175 h -27.95938 l -24.43051,-2.98595 -24.15907,-7.057709 -8.1435,-4.614655 -4.343214,-4.071755 -2.1716,-4.614644 v -5.971916 l 5.429014,-7.6006 11.40091,-5.700447 -0.27146,-6.514818 -35.831421,7.329164 -12.486706,4.071743 -16.015559,7.329154 -15.201212,10.858017 -5.429002,8.686408 z m 280.408042,-4.071762 -0.27146,5.157562 -1.62871,4.3432 -6.78624,8.414952 -8.95786,6.51481 -15.74411,7.60059 -14.38686,4.88611 -24.97341,5.70046 -19.27297,2.7145 -26.60212,1.90015 h -29.58807 l -23.61616,-1.6287 -26.05922,-3.8003 -23.887615,-5.97191 -17.915715,-6.78625 -13.029607,-7.32915 -9.772204,-9.22931 -2.985952,-5.700452 -0.81435,-4.34321 1.0858,-5.971897 2.443053,-4.071764 0.814349,0.814358 -1.628701,7.6006 1.357252,5.429013 7.600604,9.500762 5.157555,4.3432 15.201202,7.87205 15.744113,5.15755 17.372816,4.34319 20.35876,3.52886 25.78777,2.44305 25.78777,0.5429 25.24486,-1.08578 24.15906,-2.71451 18.73008,-3.52886 21.1731,-5.9719 19.00152,-8.41494 12.21526,-9.22932 3.52885,-4.614662 2.1716,-5.15754 -0.81436,-11.400922 0.27146,1.628703 0.5429,-0.542901 1.90015,2.985959 z"
     fill="#000000"
     fill-rule="evenodd"
     id="path3"
     style="stroke-width:0.271451" />
  <path
     d="m 117.21634,44.312945 v 2.985953 l 1.6287,3.257396 3.25741,2.985965 5.15754,2.985951 -0.27144,0.271446 0.5429,-0.271446 7.60061,2.985953 10.04366,2.443038 10.58655,1.628705 9.77221,0.814348 h 19.54441 l 11.67236,-1.085793 11.12946,-1.90015 11.4009,-3.257408 6.51481,-2.985952 3.2574,-2.171594 2.71449,-2.714507 1.35725,-2.714508 v -3.528853 l -1.90015,-3.528841 -4.34319,-3.528854 -4.88611,-2.443062 -5.9719,-2.171594 -8.68641,-2.171606 -10.31511,-1.628705 -12.4867,-1.085791 h -18.45862 l -7.6006,0.542902 -10.858,1.357247 -9.22932,1.900149 -7.87205,2.443051 -7.32914,3.528854 -4.34322,3.800298 z"
     fill="#000000"
     fill-rule="evenodd"
     id="path4"
     style="stroke-width:0.271451" />
</svg>
