<svg xmlns="http://www.w3.org/2000/svg" width="2172" height="724" viewBox="0 0 2172 724">
<rect width="100%" height="100%" fill="white"/>
<path d="M 1248,231 L 1243,233 L 1238,227 L 1233,227 L 1183,249 L 1170,252 L 1103,284 L 1026,329 L 777,445 L 727,466 L 646,493 L 573,530 L 554,535 L 544,551 L 544,566 L 552,595 L 574,636 L 588,647 L 599,652 L 609,651 L 622,641 L 704,607 L 771,565 L 832,534 L 931,490 L 941,488 L 1072,425 L 1166,392 L 1283,334 L 1286,326 L 1252,258 L 1256,251 L 1251,254 L 1248,248 L 1252,241 L 1248,246 L 1243,234 Z" fill="black" fill-rule="evenodd"/>
<path d="M 1562,51 L 1544,40 L 1532,42 L 1307,146 L 1296,140 L 1288,143 L 1285,151 L 1288,170 L 1317,242 L 1312,246 L 1312,250 L 1299,222 L 1302,216 L 1300,216 L 1299,220 L 1291,201 L 1286,198 L 1280,198 L 1254,210 L 1250,215 L 1249,224 L 1262,260 L 1295,326 L 1306,330 L 1336,316 L 1339,312 L 1339,307 L 1312,252 L 1318,244 L 1325,258 L 1325,263 L 1327,263 L 1334,278 L 1330,284 L 1332,284 L 1334,279 L 1343,296 L 1337,299 L 1339,302 L 1343,297 L 1347,304 L 1342,308 L 1349,308 L 1351,316 L 1355,319 L 1360,328 L 1359,330 L 1362,331 L 1367,341 L 1378,345 L 1385,341 L 1388,329 L 1590,239 L 1623,221 L 1627,212 L 1627,196 L 1617,156 L 1604,123 L 1572,63 L 1569,62 Z" fill="black" fill-rule="evenodd"/>
</svg>