<?xml version="1.0" encoding="UTF-8" standalone="no"?>
<svg
   width="400"
   height="250"
   viewBox="0 0 400 250"
   version="1.1"
   id="svg2"
   sodipodi:docname="m24_stielhandgranate_black.svg"
   inkscape:version="1.4.2 (f4327f4, 2025-05-13)"
   xmlns:inkscape="http://www.inkscape.org/namespaces/inkscape"
   xmlns:sodipodi="http://sodipodi.sourceforge.net/DTD/sodipodi-0.dtd"
   xmlns="http://www.w3.org/2000/svg"
   xmlns:svg="http://www.w3.org/2000/svg">
  <defs
     id="defs2" />
  <sodipodi:namedview
     id="namedview2"
     pagecolor="#ffffff"
     bordercolor="#000000"
     borderopacity="0.25"
     inkscape:showpageshadow="2"
     inkscape:pageopacity="0.0"
     inkscape:pagecheckerboard="0"
     inkscape:deskcolor="#d1d1d1"
     inkscape:zoom="1.1123389"
     inkscape:cx="395.56291"
     inkscape:cy="323.19288"
     inkscape:window-width="2560"
     inkscape:window-height="1377"
     inkscape:window-x="-8"
     inkscape:window-y="-8"
     inkscape:window-maximized="1"
     inkscape:current-layer="svg2" />
  <path
     d="m 258.0252,85.598332 -1.63392,0.653572 -1.6339,-1.960695 h -1.63392 l -16.33913,7.189219 -4.24818,0.980342 -21.89444,10.45704 -25.16226,14.70523 -81.36889,37.90678 -16.339132,6.86244 -26.469396,8.82313 -23.855139,12.09096 -6.208869,1.63392 -3.267825,5.22851 v 4.90175 l 2.614265,9.4767 7.189218,13.39809 4.574953,3.59461 3.594612,1.63391 3.267826,-0.32678 4.248173,-3.26783 26.796184,-11.11061 21.89444,-13.72487 19.93374,-10.13026 32.35148,-14.37844 3.26783,-0.65357 42.80852,-20.58731 30.71758,-10.78382 38.23357,-18.95339 0.98035,-2.61427 -11.11061,-22.221224 1.30712,-2.287476 -1.6339,0.980352 -0.98035,-1.960695 1.30713,-2.287476 -1.30713,1.633904 -1.63392,-3.92139 z"
     fill="#000000"
     fill-rule="evenodd"
     id="path1"
     style="stroke-width:0.326783" />
  <path
     d="m 360.63496,26.777454 -5.88209,-3.594604 -3.9214,0.653568 -73.52609,33.985393 -3.59461,-1.960696 -2.61426,0.980349 -0.98035,2.614264 0.98035,6.208872 9.4767,23.528352 -1.63393,1.307123 v 1.307134 l -4.24817,-9.149914 0.98035,-1.960696 h -0.65357 l -0.32678,1.307134 -2.61426,-6.208876 -1.63391,-0.980343 h -1.9607 l -8.49634,3.92139 -1.30714,1.633915 -0.32678,2.941037 4.24818,11.764181 10.78383,21.567653 3.5946,1.30713 9.80348,-4.57496 0.98035,-1.30713 v -1.63391 l -8.82314,-17.97305 1.96071,-2.614256 2.28747,4.574952 v 1.633924 h 0.65356 l 2.28748,4.90174 -1.30712,1.96068 h 0.65357 l 0.65355,-1.6339 2.94105,5.55529 -1.9607,0.98036 0.65357,0.98035 1.30713,-1.63392 1.30713,2.28748 -1.63391,1.30713 h 2.28747 l 0.65358,2.61426 1.30712,0.98035 1.63392,2.94105 -0.32679,0.65356 0.98034,0.32678 1.63393,3.26783 3.59461,1.30713 2.28747,-1.30713 0.98036,-3.92139 66.01009,-29.410441 10.78383,-5.882085 1.30713,-2.941048 V 74.160942 L 378.608,61.089637 374.35982,50.305813 363.90279,30.698848 l -0.98036,-0.32678 z"
     fill="#000000"
     fill-rule="evenodd"
     id="path2"
     style="stroke-width:0.326783" />
</svg>
