<svg xmlns="http://www.w3.org/2000/svg" width="1254" height="1254" viewBox="0 0 1254 1254">
<rect width="100%" height="100%" fill="white"/>
<path d="M 48,734 L 50,746 L 64,752 L 201,670 L 217,677 L 240,678 L 242,782 L 259,815 L 285,836 L 335,863 L 414,889 L 501,905 L 581,912 L 672,912 L 785,900 L 886,875 L 949,847 L 986,820 L 1007,789 L 1011,678 L 1032,677 L 1051,670 L 1183,748 L 1197,749 L 1206,739 L 1200,724 L 1071,651 L 1075,621 L 1068,604 L 1048,591 L 1011,591 L 1010,571 L 993,593 L 964,614 L 886,646 L 764,671 L 655,679 L 513,674 L 380,650 L 325,632 L 284,612 L 264,598 L 241,571 L 240,591 L 202,591 L 180,606 L 174,623 L 180,651 L 54,726 Z M 1046,615 L 1053,622 L 1053,623 L 1054,624 L 1054,626 L 1055,627 L 1055,630 L 1056,631 L 1056,633 L 1055,634 L 1055,638 L 1054,639 L 1054,640 L 1053,641 L 1051,639 L 1050,639 L 1049,638 L 1048,638 L 1047,637 L 1046,637 L 1045,636 L 1044,636 L 1043,635 L 1035,635 L 1034,636 L 1033,636 L 1031,638 L 1030,638 L 1029,639 L 1029,640 L 1027,642 L 1027,644 L 1026,645 L 1026,652 L 1025,653 L 1024,653 L 1018,647 L 1018,646 L 1017,645 L 1017,644 L 1016,643 L 1016,641 L 1015,640 L 1015,630 L 1016,629 L 1016,627 L 1017,626 L 1017,625 L 1018,624 L 1018,623 L 1025,616 L 1026,616 L 1027,615 L 1028,615 L 1029,614 L 1030,614 L 1031,613 L 1042,613 L 1043,614 L 1044,614 L 1045,615 Z M 203,615 L 204,615 L 205,614 L 207,614 L 208,613 L 217,613 L 218,614 L 220,614 L 221,615 L 222,615 L 224,617 L 225,617 L 230,622 L 230,623 L 232,625 L 232,627 L 233,628 L 233,631 L 234,632 L 234,639 L 233,640 L 233,642 L 232,643 L 232,645 L 230,647 L 230,648 L 228,650 L 227,649 L 228,650 L 226,652 L 225,651 L 225,647 L 224,646 L 224,643 L 221,640 L 221,639 L 220,638 L 219,638 L 217,636 L 216,636 L 215,635 L 207,635 L 206,636 L 205,636 L 204,637 L 203,637 L 201,639 L 200,639 L 199,640 L 198,640 L 197,639 L 197,638 L 197,639 L 198,640 L 197,641 L 196,641 L 195,640 L 195,637 L 194,636 L 194,628 L 195,627 L 195,625 L 196,624 L 196,623 L 197,622 L 197,621 Z" fill="black" fill-rule="evenodd"/>
<path d="M 242,547 L 246,572 L 250,575 L 248,577 L 250,575 L 251,579 L 283,604 L 342,631 L 396,647 L 473,662 L 595,672 L 662,672 L 737,667 L 809,657 L 875,642 L 928,624 L 968,604 L 995,583 L 1009,559 L 1009,543 L 1006,535 L 997,522 L 987,514 L 987,527 L 981,541 L 963,560 L 932,579 L 877,600 L 826,613 L 743,626 L 681,631 L 610,632 L 540,629 L 484,623 L 421,612 L 368,598 L 318,578 L 286,558 L 271,542 L 265,529 L 264,514 L 249,529 Z" fill="black" fill-rule="evenodd"/>
<path d="M 270,513 L 275,537 L 296,558 L 353,585 L 443,609 L 504,618 L 586,624 L 664,624 L 727,620 L 791,612 L 846,601 L 896,586 L 942,565 L 971,542 L 981,523 L 981,510 L 973,490 L 957,476 L 907,451 L 854,435 L 838,445 L 777,445 L 771,449 L 771,526 L 756,538 L 755,456 L 725,466 L 692,471 L 689,503 L 680,511 L 670,513 L 576,512 L 567,507 L 562,500 L 561,472 L 530,467 L 496,457 L 495,538 L 486,533 L 481,526 L 481,449 L 474,445 L 415,445 L 407,442 L 401,435 L 359,446 L 305,469 L 282,486 Z" fill="black" fill-rule="evenodd"/>
<path d="M 406,390 L 406,426 L 412,434 L 416,436 L 474,436 L 498,449 L 518,456 L 545,462 L 566,464 L 569,467 L 569,493 L 571,497 L 579,503 L 672,503 L 677,501 L 682,495 L 682,471 L 683,466 L 687,463 L 709,460 L 737,453 L 761,444 L 775,436 L 834,436 L 842,432 L 846,425 L 846,392 L 843,385 L 839,381 L 835,379 L 750,379 L 718,370 L 688,366 L 683,363 L 683,348 L 681,343 L 676,338 L 671,336 L 581,336 L 571,343 L 569,348 L 569,363 L 564,366 L 533,370 L 506,378 L 421,378 L 413,381 Z" fill="black" fill-rule="evenodd"/>
</svg>