<?xml version="1.0" encoding="UTF-8" standalone="no"?>
<svg
   width="370"
   height="250"
   viewBox="0 0 370 250"
   version="1.1"
   id="svg4"
   sodipodi:docname="m2_ap_mine_black.svg"
   inkscape:version="1.4.2 (f4327f4, 2025-05-13)"
   xmlns:inkscape="http://www.inkscape.org/namespaces/inkscape"
   xmlns:sodipodi="http://sodipodi.sourceforge.net/DTD/sodipodi-0.dtd"
   xmlns="http://www.w3.org/2000/svg"
   xmlns:svg="http://www.w3.org/2000/svg">
  <defs
     id="defs4" />
  <sodipodi:namedview
     id="namedview4"
     pagecolor="#ffffff"
     bordercolor="#000000"
     borderopacity="0.25"
     inkscape:showpageshadow="2"
     inkscape:pageopacity="0.0"
     inkscape:pagecheckerboard="0"
     inkscape:deskcolor="#d1d1d1"
     inkscape:zoom="0.93700159"
     inkscape:cx="626.46638"
     inkscape:cy="285.48511"
     inkscape:window-width="2560"
     inkscape:window-height="1377"
     inkscape:window-x="-8"
     inkscape:window-y="-8"
     inkscape:window-maximized="1"
     inkscape:current-layer="svg4" />
  <path
     d="m 11.714043,165.75811 0.600368,3.75784 4.202583,1.87893 41.125276,-25.67866 4.802948,2.19208 6.904239,0.31315 0.600373,32.56806 5.103134,10.3341 7.8048,6.57624 15.009216,8.45516 23.71457,8.14201 26.11606,5.01047 24.01475,2.19208 h 27.31679 l 33.92084,-3.75786 30.31863,-7.82884 18.91163,-8.76834 11.10683,-8.45516 6.30387,-9.70778 1.20073,-34.76014 6.30387,-0.31315 5.70352,-2.19208 39.62434,24.42604 4.20259,0.31315 2.70165,-3.13154 -1.8011,-4.69731 -38.7238,-22.86027 1.20074,-9.39462 -2.1013,-5.32363 -6.00368,-4.07101 h -11.10683 l -0.30018,-6.26308 -5.10313,6.8894 -8.70536,6.57623 -23.41439,10.02095 -36.6225,7.82884 -32.72011,2.50523 -42.62619,-1.56576 -39.92453,-7.5157 -16.510153,-5.63678 -12.30756,-6.26309 -6.003687,-4.38416 -6.904247,-8.45516 -0.300186,6.26308 H 57.942448 l -6.604056,4.69731 -1.801106,5.32363 1.801106,8.76832 -37.823242,23.48659 z m 299.584097,-37.26538 2.10128,2.19208 v 0.31316 l 0.30019,0.31316 v 0.6263 l 0.30019,0.31315 v 0.93947 l 0.30019,0.31316 v 0.6263 l -0.30019,0.31316 v 1.25261 l -0.30019,0.31316 v 0.31315 l -0.30019,0.31316 -0.60035,-0.62631 h -0.30019 l -0.30018,-0.31316 h -0.30019 l -0.30019,-0.31315 h -0.30018 l -0.30018,-0.31315 h -0.30019 l -0.30019,-0.31315 h -2.40146 l -0.30019,0.31315 h -0.30019 l -0.60037,0.6263 h -0.30018 l -0.30019,0.31316 v 0.31315 l -0.60037,0.62632 v 0.6263 l -0.30018,0.31316 v 2.19208 l -0.30018,0.31315 h -0.30018 l -1.80112,-1.87892 v -0.31315 l -0.30018,-0.31316 v -0.31316 l -0.30019,-0.31316 v -0.6263 l -0.30019,-0.31316 v -3.13154 l 0.30019,-0.31316 v -0.62631 l 0.30019,-0.31315 v -0.31315 l 0.30018,-0.31315 v -0.31316 l 2.1013,-2.19209 h 0.30018 l 0.30018,-0.31315 h 0.30019 l 0.30018,-0.31315 h 0.30019 l 0.30018,-0.31316 h 3.30203 l 0.30018,0.31316 h 0.30019 l 0.30019,0.31315 z m -253.055505,0 h 0.300186 L 58.843,128.17958 h 0.600374 l 0.300187,-0.31316 h 2.701657 l 0.300187,0.31316 h 0.600365 l 0.300186,0.31315 h 0.300187 l 0.600365,0.62631 h 0.300187 l 1.500918,1.56577 v 0.31316 l 0.600374,0.62631 v 0.6263 l 0.300178,0.31316 v 0.93947 l 0.300187,0.31315 v 2.19208 l -0.300187,0.31315 v 0.62632 l -0.300178,0.31314 v 0.62632 l -0.600374,0.62631 v 0.31315 l -0.600365,0.62631 -0.300188,-0.31315 0.300188,0.31315 -0.600375,0.62631 -0.300178,-0.31316 v -1.25261 l -0.300187,-0.31315 v -0.93948 l -0.900552,-0.93946 v -0.31315 l -0.300186,-0.31316 h -0.300187 l -0.600365,-0.6263 H 62.14503 l -0.300178,-0.31315 h -2.401478 l -0.300187,0.31315 H 58.843 l -0.300179,0.31315 h -0.300186 l -0.600365,0.62631 h -0.300187 l -0.300187,0.31315 h -0.300187 l -0.300178,-0.31315 v -0.31316 0.31316 l 0.300178,0.31315 -0.300178,0.31316 h -0.300187 l -0.300188,-0.31316 v -0.93946 l -0.300182,-0.31315 v -2.50524 l 0.300182,-0.31316 v -0.6263 l 0.300188,-0.31315 v -0.31316 l 0.300187,-0.31316 v -0.31314 z"
     fill="#000000"
     fill-rule="evenodd"
     id="path1"
     style="stroke-width:0.3066" />
  <path
     d="m 69.94983,107.19825 1.200739,7.82886 1.200739,0.93945 -0.600374,0.62631 0.600374,-0.62631 0.300179,1.25263 9.605904,7.82885 17.710881,8.45517 16.209968,5.01047 23.1142,4.69732 36.62251,3.13153 h 20.11236 l 22.51383,-1.56577 21.61328,-3.13154 19.81217,-4.69731 15.90978,-5.63678 12.00738,-6.26309 8.10498,-6.57624 4.20259,-7.51571 v -5.01047 l -0.90056,-2.50523 -2.70166,-4.071015 -3.00184,-2.505229 v 4.070994 l -1.80111,4.38417 -5.40333,5.94994 -9.30571,5.94994 -16.51015,6.57623 -15.3094,4.071 -24.91531,4.07101 -18.61144,1.56578 -21.3131,0.31315 -21.01291,-0.93947 -16.81033,-1.87892 -18.91162,-3.4447 -15.90978,-4.38416 -15.009224,-6.26308 -9.605904,-6.26308 -4.50276,-5.01048 -1.801113,-4.07101 -0.300179,-4.697314 -4.502769,4.697314 z"
     fill="#000000"
     fill-rule="evenodd"
     id="path2"
     style="stroke-width:0.3066" />
  <path
     d="m 78.354994,96.550986 1.500927,7.515714 6.303873,6.57625 17.110506,8.45516 27.01661,7.5157 18.31124,2.81839 24.61513,1.87893 h 23.41439 l 18.91162,-1.25262 19.21181,-2.50524 16.51015,-3.44471 15.00922,-4.6973 13.80848,-6.57624 8.70536,-7.20255 3.00184,-5.949935 v -4.071008 l -2.40148,-6.263082 -4.80294,-4.384161 -15.00923,-7.828859 -15.90978,-5.010457 -4.80295,3.131539 h -18.31125 l -1.80111,1.252613 V 100.622 l -4.50276,3.75784 -0.30019,-25.678635 -9.00553,3.131539 -9.90609,1.56577 -0.90055,10.020934 -2.70167,2.505239 -3.00185,0.626299 -28.21733,-0.31315 -2.70166,-1.565766 -1.50092,-2.192086 -0.30019,-8.768312 -9.30572,-1.56578 -10.20626,-3.13154 -0.30019,25.365488 -2.70166,-1.56576 -1.50093,-2.19208 V 76.50912 l -2.10128,-1.252613 h -17.71089 l -2.40148,-0.939463 -1.8011,-2.192076 -12.60774,3.444687 -16.209969,7.202553 -6.904239,5.323615 z"
     fill="#000000"
     fill-rule="evenodd"
     id="path3"
     style="stroke-width:0.3066" />
  <path
     d="m 119.18008,58.03301 v 11.273556 l 1.80112,2.505244 1.20072,0.626306 h 17.41071 l 7.20442,4.071004 6.00368,2.192085 8.10499,1.878928 6.30387,0.626295 0.90056,0.939464 v 8.142017 l 0.60036,1.252612 2.40148,1.878927 h 27.91716 l 1.50092,-0.626306 1.50092,-1.878927 v -7.515701 l 0.30019,-1.56577 1.20073,-0.939463 6.60406,-0.939464 8.40517,-2.192086 7.20442,-2.818382 4.20258,-2.505233 h 17.71089 l 2.40147,-1.252622 1.20075,-2.192086 V 58.659326 l -0.90056,-2.19208 -1.20074,-1.252619 -1.20073,-0.626314 h -25.51568 l -9.6059,-2.818385 -9.00554,-1.252618 -1.50092,-0.939461 v -4.697318 l -0.60037,-1.565766 -1.50092,-1.565776 -1.50093,-0.626305 h -27.0166 l -3.00185,2.192081 -0.60036,1.565766 v 4.697318 l -1.50092,0.939461 -9.30573,1.252618 -8.10497,2.505238 h -25.51568 l -2.40148,0.939461 z"
     fill="#000000"
     fill-rule="evenodd"
     id="path4"
     style="stroke-width:0.3066" />
</svg>
