<?xml version="1.0" encoding="UTF-8" standalone="no"?>
<svg
   width="550"
   height="250"
   viewBox="0 0 550 250"
   version="1.1"
   id="svg3"
   sodipodi:docname="m2_flamethrower_black.svg"
   inkscape:version="1.4.2 (f4327f4, 2025-05-13)"
   xmlns:inkscape="http://www.inkscape.org/namespaces/inkscape"
   xmlns:sodipodi="http://sodipodi.sourceforge.net/DTD/sodipodi-0.dtd"
   xmlns="http://www.w3.org/2000/svg"
   xmlns:svg="http://www.w3.org/2000/svg">
  <defs
     id="defs3" />
  <sodipodi:namedview
     id="namedview3"
     pagecolor="#ffffff"
     bordercolor="#000000"
     borderopacity="0.25"
     inkscape:showpageshadow="2"
     inkscape:pageopacity="0.0"
     inkscape:pagecheckerboard="0"
     inkscape:deskcolor="#d1d1d1"
     inkscape:zoom="1.0819521"
     inkscape:cx="295.7617"
     inkscape:cy="348.90638"
     inkscape:window-width="2560"
     inkscape:window-height="1377"
     inkscape:window-x="-8"
     inkscape:window-y="-8"
     inkscape:window-maximized="1"
     inkscape:current-layer="svg3" />
  <path
     d="m 58.325301,76.225887 -0.38476,0.38476 v 0.38476 l 0.38476,0.38476 v 0.38475 l -0.38476,0.38476 v 8.07992 h 0.38476 v -3.84758 l -0.38476,-0.38476 v -3.07806 l 0.38476,-0.38476 z"
     fill="#000000"
     fill-rule="evenodd"
     id="path1"
     style="stroke-width:0.384758" />
  <path
     d="m 109.11332,65.837427 v 8.46467 h 1.53903 v -0.38475 h -0.38475 l -0.38476,-0.38476 h -0.38476 l -0.38476,-0.38476 v -0.38476 l 0.38476,-0.38475 v -1.15428 l -0.38476,-0.38475 0.38476,-0.38476 v -3.07806 l 0.38476,-0.38476 v -0.38476 l -0.38476,-0.38476 0.38476,-0.38476 -0.38476,0.38476 z"
     fill="#000000"
     fill-rule="evenodd"
     id="path2"
     style="stroke-width:0.384758" />
  <path
     d="m 27.544681,199.73313 9.618944,6.54088 3.847577,-10.77321 0.384758,2.6933 1.154273,-3.84758 6.156128,0.76952 -2.69331,0.76952 3.07806,0.38475 5.00186,26.54829 19.23788,18.08361 17.3141,3.84758 34.243439,-1.92379 40.01481,-11.15797 20.77692,-13.85128 15.00555,-20.39216 20.0074,-41.16908 10.38846,-10.77322 11.92749,-5.38661 21.54644,4.23234 -16.15983,47.70996 21.54644,5.00185 4.61709,-1.92379 -2.30855,-3.46282 8.84943,-28.47207 18.08361,-1.53903 5.77137,-9.23419 0.38476,-8.07991 11.15797,-4.6171 h 18.46838 l 2.6933,-3.46282 h 91.18759 l 1.15427,2.30855 41.55384,-2.30855 -29.24159,0.76952 h 28.08732 l 12.697,5.38661 50.78802,2.30854 4.6171,-6.92564 v -17.69885 l -4.23234,-7.3104 -51.55754,2.30855 -11.15797,6.15612 -30.78062,-2.30855 -103.11508,2.30855 -1.92379,-3.84758 -16.54458,1.53903 -25.00926,-3.46282 -5.00185,4.23234 h -27.3178 l 26.16353,-18.85313 8.46467,-1.923793 v -6.15612 l -6.54088,-2.30855 -26.93304,18.468373 -11.54274,3.07806 -4.61709,8.07992 4.23234,4.23233 -1.53904,3.07806 -14.23603,3.84758 -17.3141,13.46652 -28.08732,52.32706 -13.85128,16.54458 -35.39771,16.54459 4.61709,-17.3141 11.92749,-8.84943 1.15428,-30.78062 5.00185,-1.53903 v -10.38846 l -5.00185,-1.15428 V 87.768627 l 5.00185,-1.15428 v -10.38846 l -5.00185,-1.53903 -0.38476,-16.54458 -11.92749,-13.46652 v -26.93305 l -9.23419,-10.7732098 -48.864229,0.38476 -11.15798,7.6951498 -1.15427,34.6282 -6.15612,5.00185 -16.92935,3.07806 -1.92378,8.46467 -13.081768,13.46652 -3.46282,10.0037 -2.693304,66.178343 -0.769516,-2.30855 3.078062,11.92749 -5.771366,5.00185 z m 107.347409,22.70071 -0.76951,0.38476 0.38476,0.38476 v 1.15427 l -1.15428,2.30855 -0.38476,0.38475 -0.38475,-0.38475 0.38475,0.76951 -0.76951,0.76952 v 0.38475 l -0.76952,0.38476 0.38476,0.38476 -1.15427,2.30855 -1.53903,1.15427 h -1.92379 l -0.38476,0.38476 h -1.15427 l -0.38476,0.38476 h -1.15427 l -0.38476,0.38475 h -1.53903 l -0.38476,0.38476 h -2.6933 l -0.38476,0.38476 h -2.30855 l -0.38476,0.38476 h -3.07806 l -0.38476,0.38475 h -3.84757 l -0.38476,-0.38475 h -3.46282 2.6933 l 0.38476,0.38475 -0.38476,0.38476 H 93.338261 l -0.38476,-0.38476 0.38476,-0.38475 h 1.53903 -4.23234 l -0.38476,0.38475 h -3.46282 l -0.38475,-0.38475 h -1.53903 l -0.38476,-0.38476 -2.69331,-0.38476 -0.38475,-0.38476 h -0.76952 l -0.38476,-0.38475 h -0.76951 l -0.38476,-0.38476 -1.92379,-0.38476 -1.15427,-0.76952 h -0.76952 l -0.76951,-0.76951 -1.92379,-0.76952 -3.84758,-3.07806 0.76952,-0.38476 0.76951,0.76952 -0.76951,-0.76952 -0.76952,0.38476 -3.07806,-3.07806 0.38476,-0.38476 h 1.15427 l 0.38476,0.38476 h 1.53903 l 0.38476,0.38476 -0.38476,0.38475 h -1.53903 l 0.38475,0.38476 1.53904,-0.76951 h 3.07806 l 0.38476,0.76951 1.53903,-0.76951 h 14.23603 l 0.38476,0.38475 h 0.76952 l 0.38475,-0.38475 h 34.628199 l 0.38476,0.38475 h 1.15427 -1.15427 l -0.38476,-0.38475 0.38476,-0.38476 h 1.15427 l 1.53903,-0.76952 h 0.76952 l 0.38476,0.38476 -0.38476,-0.38476 0.38476,-0.38475 0.76951,0.38475 -0.38476,-0.38475 0.38476,-0.38476 h 0.38476 l 0.76952,-0.76952 1.53903,-0.76951 h 0.76951 l 0.38476,0.38475 -0.38476,0.38476 0.38476,-0.38476 z m -73.873489,-27.3178 h 2.30855 l 0.76952,-0.76952 0.38475,0.38476 v 3.46282 l 0.38476,0.38476 v 1.15427 l 0.38476,0.38476 v 0.38476 l 0.38476,0.38476 v 0.38475 l 0.38476,0.38476 v 0.38476 l 0.38475,0.38476 v 0.38475 l 0.38476,0.38476 v 0.38476 l 0.76952,0.76952 v 0.38475 l 1.92379,1.92379 v 0.38476 h 0.38475 l 1.92379,1.92379 h 0.38476 l 0.76952,0.76951 h 0.38475 l 0.76952,0.76952 h 0.76951 l 0.38476,0.38476 h 0.38476 l 0.38476,0.38476 h 0.76951 l 0.38476,0.38475 h 1.15427 l 0.38476,0.38476 h 0.76952 l 0.38475,0.38476 v 5.00185 l -0.38475,0.38476 -0.38476,-0.38476 v -4.61709 h -0.76952 l 0.38476,0.38475 v 3.07807 l -0.76951,0.76951 h -0.38476 0.76951 l 0.38476,0.38476 -0.38476,0.38476 h -8.84942 l -0.38476,-0.38476 h -0.76952 l -0.38476,-0.38476 h -0.38475 l -0.38476,-0.38476 0.38476,-0.38475 h 0.38475 -0.38475 l -0.38476,0.38475 h -0.76952 l -0.38475,-0.38475 0.38475,-0.38476 -0.38475,-0.38476 h -0.38476 l -0.38476,-0.38476 0.38476,0.38476 -0.38476,0.38476 h -0.38476 l -0.38476,-0.38476 h -0.38475 l -0.38476,-0.38476 h -0.76952 l -0.38475,-0.38475 h -0.76952 l -0.38476,0.38475 -0.76951,-0.76951 v -0.76952 l 0.38475,-0.38476 v -1.53903 l -0.38475,-0.38475 v -0.38476 0.76951 l -0.38476,0.38476 -0.38476,-0.38476 v -1.92379 l -0.38476,-0.38475 v -2.69331 l 0.38476,-0.38476 0.38476,0.38476 v -1.92379 l 0.38476,-0.38475 v -0.38476 l -0.38476,-0.38476 0.38476,-0.38476 v -7.69515 z m -27.702554,-4.61709 h 0.769516 l 0.384758,0.38475 v 1.53904 l -0.384758,0.38475 h -0.769516 l -0.384757,-0.38475 v -1.53904 z m 0.769516,-15.00556 0.384758,0.38476 v 0.76952 l -0.384758,0.38476 -0.384758,-0.38476 v 0.38476 l -0.384758,0.38475 -0.384757,-0.38475 v -0.76952 l 0.384757,-0.38476 h 0.384758 z m 248.553507,-16.15982 0.38476,-0.38476 h 13.85128 l 0.38476,0.38476 -0.38476,0.38476 h -13.85128 z m 4.61709,-15.39031 h 2.69331 l 0.38476,0.38476 -0.38476,0.38475 v 0.76952 l 0.38476,0.38476 v 10.38846 -11.92749 l 0.38475,-0.38476 0.38476,0.38476 v 11.92749 l 1.15428,1.92379 h 1.15427 l 1.15427,-0.76952 v -9.23419 l 0.38476,-0.38475 v -3.46282 l 0.38476,-0.38476 0.38475,0.38476 0.38476,-0.38476 h 2.30855 l 0.38476,0.38476 v 13.46652 l -0.38476,0.38476 -0.38476,-0.38476 v -13.08177 l -0.38476,0.38476 v 0.38476 l 0.38476,0.38476 v 11.92749 l -1.15427,1.15427 H 284.1781 l -0.38476,-0.38476 -0.38475,0.38476 -0.38476,-0.38476 v -1.15427 l 0.38476,-0.38476 v -0.76951 l 0.38475,-0.38476 v -0.76952 l 0.38476,-0.38475 v -0.76952 l 0.38476,-0.38476 v -0.76951 l 0.38476,-0.38476 v -0.76952 l 0.38476,-0.38475 v -1.15428 l 0.76951,-1.15427 v -3.46282 l 0.38476,-0.38476 v -0.38476 z m -176.21905,-56.559393 0.38476,0.38476 V 196.65507 l 0.76952,5.00185 -0.38476,0.38476 -0.38476,-0.76952 0.38476,0.76952 0.38476,-0.38476 2.30854,4.23234 2.69331,2.6933 2.30854,1.53903 -0.38475,0.38476 0.76951,-0.38476 3.84758,1.53903 h 4.23233 l 0.76952,0.76952 v 1.15427 l -0.76952,1.15428 v 1.53903 l -1.53903,1.15427 -2.6933,-0.38476 h 1.15427 l 0.38476,0.38476 -0.38476,0.38476 H 94.492531 l -0.38476,-0.38476 0.76952,-0.38476 -1.15428,-1.15427 -0.38475,1.92379 -0.76952,-5.00185 0.76952,-0.76952 4.23233,-1.15427 5.001849,-3.46282 0.38476,0.38476 0.76952,-0.76952 -0.38476,-0.38476 0.38476,-0.76951 2.30854,-1.53903 -0.38476,0.38475 -0.38475,-0.76951 0.76951,-0.76952 0.38476,0.38476 0.38476,-0.38476 -0.38476,0.38476 -0.38476,-0.76952 1.15428,-1.92378 0.76951,-3.84758 0.38476,-0.38476 0.38476,1.15427 0.76951,-1.15427 v -62.71551 l 0.38476,-0.38476 -0.38476,-0.38476 V 89.692407 l -0.38476,-0.76951 1.53903,-0.38476 z m -2.30854,0 0.38475,0.38476 V 196.65507 l -0.38475,0.38476 -0.38476,-0.38476 V 87.768627 Z m -45.016659,-21.16168 0.38476,0.38476 v 8.07991 l -4.23234,0.38476 -0.76951,0.76952 v 10.77321 l 0.76951,0.76952 4.23234,0.38476 v 86.570493 l -0.38476,0.38476 -0.76952,-0.76952 0.38476,-3.07806 -1.15427,-1.53903 -2.69331,-0.38476 -1.53903,-1.92379 0.38476,-0.76951 -0.38476,0.76951 -0.38476,-0.38475 v -3.46282 l 0.76952,-0.76952 0.76952,0.76952 0.38475,-0.38476 -0.76951,-0.38476 2.6933,-1.53903 0.38476,-3.07806 0.38476,2.6933 h 0.38476 v -3.07806 l -1.15428,-0.38476 -0.38476,-0.76951 0.38476,-1.15428 -0.38476,0.38476 -1.15427,-0.38476 -0.38476,0.38476 h -8.84942 l -1.92379,1.15427 -0.38476,3.84758 1.53903,1.53903 -0.38476,0.38476 0.38476,-0.38476 1.15427,0.38476 -0.76951,0.38476 1.15427,0.76951 v 3.07807 l 0.38476,-0.38476 -0.38476,-3.07806 0.38476,-0.38476 0.76951,0.38476 v 3.46282 l -1.92378,1.92378 h -1.15428 l -2.6933,1.92379 0.38476,3.46282 -1.92379,0.76952 -1.154277,-1.53903 -3.078062,-1.53903 -0.769515,-9.61895 -2.308547,-11.54273 2.308547,-45.78617 0.769515,-4.23234 0.384758,4.23234 0.384758,-5.001853 -0.384758,1.154273 -0.384758,-0.38476 0.769516,-9.618943 0.384758,-0.38476 0.384757,0.38476 v 2.6933 l 0.384758,-1.92379 -0.769515,-1.15427 v -1.92379 l 1.154273,-2.6933 0.384758,1.15427 0.384757,-1.15427 -0.384757,-1.53903 1.154274,-0.38476 -0.384759,-1.15427 0.769519,-1.15428 0.38475,0.38476 -0.38475,-0.38476 1.15427,-1.53903 0.76952,0.38476 -0.76952,-0.38476 1.15427,-1.15427 0.38476,0.38476 2.69331,-2.30855 -0.38476,-0.76952 2.30854,-2.30854 0.76952,0.38475 1.53903,-1.15427 1.15427,-1.53903 -0.38475,-0.38476 1.53903,-1.53903 1.15427,0.38476 -0.38476,-0.76952 0.76952,-0.76951 0.76951,0.38476 z m 11.15797,-32.31965 0.38476,0.38476 v 3.46282 l -0.38476,0.38476 -0.38475,-0.38476 v -3.46282 z m 8.46467,-0.76951 0.38476,0.38475 v 4.23234 l -0.38476,0.38476 -0.38475,-0.38476 v -4.23234 z m 5.77137,-19.23789 43.862379,0.38476 0.38476,-0.38476 2.30855,0.38476 0.38476,0.38475 -1.15428,0.38476 1.15428,0.38476 1.15427,-0.38476 0.38476,0.38476 -0.38476,0.38476 1.15427,1.15427 0.38476,-0.38476 1.15427,2.30855 v 25.77877 l -0.38475,0.38476 -0.38476,-0.38476 v -3.46282 l -2.30855,-1.15428 h -1.15427 l -0.38476,-0.38475 0.76952,-0.38476 h -0.76952 l -1.15427,-1.15427 0.76951,-0.76952 -0.38475,-0.38476 -0.76952,0.38476 0.76952,0.38476 -0.38476,0.38476 -1.15428,-0.38476 v -4.23234 l 0.38476,-0.38475 0.76952,0.76951 0.76951,-0.76951 -0.76951,-0.38476 3.46282,-1.92379 0.38476,-3.46282 0.38475,3.84758 h 0.76952 v -10.00371 3.84758 l -0.76952,0.38476 -0.38475,1.15427 -1.92379,-1.53903 -3.84758,-0.76951 -6.15612,0.38475 -2.30855,0.76952 -0.76952,0.76952 v 4.61709 l 1.15428,1.15427 3.46282,1.15428 v 3.84757 l -0.38476,0.38476 -0.76952,-0.38476 -0.76951,0.76952 0.76951,0.38476 -2.30854,2.30854 h -1.53903 l -1.15428,0.76952 -0.38476,3.84758 1.53904,1.53903 -0.38476,2.30854 -0.38476,0.38476 -0.76952,-0.76951 0.76952,0.76951 -3.84758,2.30855 -3.46282,3.46282 -1.53903,2.6933 -1.15427,4.23234 -0.38476,12.31224 0.38476,0.38476 -0.38476,0.38476 -3.07806,-0.38476 v -8.46467 l -0.38476,-0.38476 0.38476,-2.6933 -0.38476,0.76952 -1.53903,-3.84758 0.76952,-0.76952 -2.69331,-3.46282 -0.38476,0.38476 -4.232329,-4.23233 -4.6171,-2.69331 -0.38475,-2.6933 0.38475,2.30854 -0.38475,0.38476 -0.76952,-0.38476 v -2.6933 l 1.15427,-0.76952 v -4.23233 l -2.30854,-0.76952 -0.38476,-1.15427 -1.53903,-0.76952 1.15427,-0.38475 -1.92379,-1.15428 0.76952,0.76952 -0.38476,0.38476 -1.15427,-0.38476 v -4.61709 l 1.15427,-0.38476 0.76952,0.76951 -0.76952,0.76952 1.53903,-0.38476 3.07806,0.76952 1.92379,-0.76952 1.53903,-2.30855 0.38476,0.76952 0.38476,-1.15427 -0.38476,0.76951 -0.38476,-0.38476 v -3.84757 l 0.38476,-0.38476 0.38476,0.76951 -0.38476,-1.15427 -0.38476,0.76952 -1.15427,-1.92379 -1.53903,-0.76952 h -3.07806 l -1.53903,0.76952 -0.76952,1.15427 h -0.76951 l -1.53903,-1.53903 h -3.84758 l -0.38476,-1.92379 -0.38476,1.53903 0.38476,0.38476 -0.76952,1.15427 -0.38475,-0.38475 0.38475,-8.07992 2.30855,-3.07806 0.76952,0.38476 -0.38476,0.38476 1.92379,-0.76952 -1.15428,-0.38476 z"
     fill="#000000"
     fill-rule="evenodd"
     id="path3"
     style="stroke-width:0.384758" />
</svg>
