<svg xmlns="http://www.w3.org/2000/svg" width="1448" height="1086" viewBox="0 0 1448 1086">
<rect width="100%" height="100%" fill="white"/>
<path d="M 163,365 L 162,366 L 162,367 L 163,368 L 163,369 L 162,370 L 162,391 L 163,391 L 163,381 L 162,380 L 162,372 L 163,371 Z" fill="black" fill-rule="evenodd"/>
<path d="M 295,338 L 295,360 L 299,360 L 299,359 L 298,359 L 297,358 L 296,358 L 295,357 L 295,356 L 296,355 L 296,352 L 295,351 L 296,350 L 296,342 L 297,341 L 297,340 L 296,339 L 297,338 L 296,339 Z" fill="black" fill-rule="evenodd"/>
<path d="M 83,686 L 108,703 L 118,675 L 119,682 L 122,672 L 138,674 L 131,676 L 139,677 L 152,746 L 202,793 L 247,803 L 336,798 L 440,769 L 494,733 L 533,680 L 585,573 L 612,545 L 643,531 L 699,542 L 657,666 L 713,679 L 725,674 L 719,665 L 742,591 L 789,587 L 804,563 L 805,542 L 834,530 L 882,530 L 889,521 L 1126,521 L 1129,527 L 1237,521 L 1161,523 L 1234,523 L 1267,537 L 1399,543 L 1411,525 L 1411,479 L 1400,460 L 1266,466 L 1237,482 L 1157,476 L 889,482 L 884,472 L 841,476 L 776,467 L 763,478 L 692,478 L 760,429 L 782,424 L 782,408 L 765,402 L 695,450 L 665,458 L 653,479 L 664,490 L 660,498 L 623,508 L 578,543 L 505,679 L 469,722 L 377,765 L 389,720 L 420,697 L 423,617 L 436,613 L 436,586 L 423,583 L 423,395 L 436,392 L 436,365 L 423,361 L 422,318 L 391,283 L 391,213 L 367,185 L 240,186 L 211,206 L 208,296 L 192,309 L 148,317 L 143,339 L 109,374 L 100,400 L 93,572 L 91,566 L 99,597 L 84,610 Z M 362,745 L 360,746 L 361,747 L 361,750 L 358,756 L 357,757 L 356,756 L 357,758 L 355,760 L 355,761 L 353,762 L 354,763 L 351,769 L 347,772 L 342,772 L 341,773 L 338,773 L 337,774 L 334,774 L 333,775 L 329,775 L 328,776 L 321,776 L 320,777 L 314,777 L 313,778 L 305,778 L 304,779 L 294,779 L 293,778 L 284,778 L 291,778 L 292,779 L 291,780 L 254,780 L 253,779 L 254,778 L 258,778 L 247,778 L 246,779 L 237,779 L 236,778 L 232,778 L 231,777 L 224,776 L 223,775 L 221,775 L 220,774 L 218,774 L 217,773 L 212,772 L 209,770 L 207,770 L 205,768 L 200,766 L 190,758 L 192,757 L 194,759 L 192,757 L 190,758 L 182,750 L 183,749 L 186,749 L 187,750 L 191,750 L 192,751 L 191,752 L 187,752 L 188,753 L 192,751 L 200,751 L 201,753 L 205,751 L 242,751 L 243,752 L 245,752 L 246,751 L 336,751 L 337,752 L 340,752 L 337,752 L 336,751 L 337,750 L 340,750 L 344,748 L 346,748 L 347,749 L 346,748 L 347,747 L 349,748 L 348,747 L 349,746 L 350,746 L 352,744 L 356,742 L 358,742 L 359,743 L 358,744 L 359,743 Z M 170,674 L 176,674 L 178,672 L 179,673 L 179,682 L 180,683 L 180,686 L 181,687 L 181,688 L 182,689 L 182,690 L 183,691 L 183,692 L 184,693 L 184,694 L 185,695 L 185,696 L 187,698 L 187,699 L 192,704 L 192,705 L 193,705 L 198,710 L 199,710 L 201,712 L 202,712 L 204,714 L 206,714 L 207,715 L 208,715 L 209,716 L 211,716 L 212,717 L 215,717 L 216,718 L 218,718 L 219,719 L 219,732 L 218,733 L 217,732 L 217,720 L 215,720 L 216,721 L 216,729 L 214,731 L 213,731 L 215,731 L 216,732 L 215,733 L 192,733 L 191,732 L 189,732 L 188,731 L 187,731 L 186,730 L 187,729 L 188,729 L 187,729 L 186,730 L 184,730 L 183,729 L 184,728 L 183,727 L 182,727 L 181,726 L 182,727 L 181,728 L 180,728 L 179,727 L 178,727 L 177,726 L 175,726 L 174,725 L 172,725 L 171,726 L 169,724 L 169,722 L 170,721 L 170,717 L 169,716 L 169,715 L 169,717 L 168,718 L 167,717 L 167,712 L 166,711 L 166,704 L 167,703 L 168,704 L 168,699 L 169,698 L 169,697 L 168,696 L 169,695 L 169,675 Z M 98,662 L 100,662 L 101,663 L 101,667 L 100,668 L 98,668 L 97,667 L 97,663 Z M 100,623 L 101,624 L 101,626 L 100,627 L 99,626 L 99,627 L 98,628 L 97,627 L 97,625 L 98,624 L 99,624 Z M 746,581 L 747,580 L 783,580 L 784,581 L 783,582 L 747,582 Z M 758,541 L 765,541 L 766,542 L 765,543 L 765,545 L 766,546 L 766,573 L 766,542 L 767,541 L 768,542 L 768,573 L 771,578 L 774,578 L 777,576 L 777,552 L 778,551 L 778,542 L 779,541 L 780,542 L 781,541 L 787,541 L 788,542 L 788,577 L 787,578 L 786,577 L 786,543 L 785,544 L 785,545 L 786,546 L 786,577 L 783,580 L 750,580 L 749,579 L 748,580 L 747,579 L 747,576 L 748,575 L 748,573 L 749,572 L 749,570 L 750,569 L 750,567 L 751,566 L 751,564 L 752,563 L 752,561 L 753,560 L 753,557 L 755,554 L 755,545 L 756,544 L 756,543 Z M 300,394 L 301,395 L 301,678 L 303,691 L 302,692 L 301,690 L 302,692 L 303,691 L 309,702 L 316,709 L 322,713 L 321,714 L 323,713 L 333,717 L 344,717 L 346,719 L 346,722 L 344,725 L 344,729 L 340,732 L 333,731 L 336,731 L 337,732 L 336,733 L 257,733 L 256,732 L 258,731 L 255,728 L 254,733 L 252,720 L 254,718 L 265,715 L 278,706 L 279,707 L 281,705 L 280,704 L 281,702 L 287,698 L 286,699 L 285,697 L 287,695 L 288,696 L 289,695 L 288,696 L 287,694 L 290,689 L 292,679 L 293,678 L 294,681 L 296,678 L 296,515 L 297,514 L 296,513 L 296,400 L 295,398 L 299,397 Z M 294,394 L 295,395 L 295,678 L 294,679 L 293,678 L 293,395 Z M 177,339 L 178,340 L 178,361 L 167,362 L 165,364 L 165,392 L 167,394 L 178,395 L 178,620 L 177,621 L 175,619 L 176,611 L 173,607 L 166,606 L 162,601 L 163,599 L 162,601 L 161,600 L 161,591 L 163,589 L 165,591 L 166,590 L 164,589 L 171,585 L 172,577 L 173,584 L 174,584 L 174,576 L 171,575 L 170,573 L 171,570 L 170,571 L 167,570 L 166,571 L 143,571 L 138,574 L 137,584 L 141,588 L 140,589 L 141,588 L 144,589 L 142,590 L 145,592 L 145,600 L 146,599 L 145,591 L 146,590 L 148,591 L 148,600 L 143,605 L 140,605 L 133,610 L 134,619 L 129,621 L 126,617 L 118,613 L 116,588 L 110,558 L 116,439 L 118,428 L 119,439 L 120,426 L 119,429 L 118,428 L 120,403 L 121,402 L 122,403 L 122,410 L 123,405 L 121,402 L 121,397 L 124,390 L 125,393 L 126,390 L 125,386 L 128,385 L 127,382 L 129,379 L 130,380 L 129,379 L 132,375 L 134,376 L 132,375 L 135,372 L 136,373 L 143,367 L 142,365 L 148,359 L 150,360 L 154,357 L 157,353 L 156,352 L 160,348 L 163,349 L 162,347 L 164,345 L 166,346 Z M 206,255 L 207,256 L 207,265 L 206,266 L 205,265 L 205,256 Z M 228,253 L 229,254 L 229,265 L 228,266 L 227,265 L 227,254 Z M 243,203 L 357,204 L 358,203 L 364,204 L 365,205 L 362,206 L 365,207 L 368,206 L 369,207 L 368,208 L 371,211 L 372,210 L 375,216 L 375,283 L 374,284 L 373,283 L 373,274 L 367,271 L 364,271 L 363,270 L 365,269 L 363,269 L 360,266 L 362,264 L 361,263 L 359,264 L 361,265 L 360,266 L 357,265 L 357,254 L 358,253 L 360,255 L 362,253 L 360,252 L 369,247 L 370,238 L 371,248 L 373,248 L 373,222 L 373,232 L 371,233 L 370,236 L 365,232 L 355,230 L 339,231 L 333,233 L 331,235 L 331,247 L 334,250 L 343,253 L 343,263 L 342,264 L 340,263 L 338,265 L 340,266 L 334,272 L 330,272 L 327,274 L 326,284 L 330,288 L 329,294 L 328,295 L 326,293 L 328,295 L 318,301 L 309,310 L 305,317 L 302,328 L 301,360 L 302,361 L 301,362 L 293,361 L 293,339 L 292,338 L 293,331 L 292,333 L 288,323 L 290,321 L 283,312 L 282,313 L 271,302 L 259,295 L 258,288 L 259,294 L 258,295 L 256,294 L 256,287 L 259,285 L 259,274 L 253,272 L 252,269 L 248,267 L 251,266 L 246,263 L 248,265 L 247,266 L 244,265 L 244,253 L 247,252 L 249,254 L 247,256 L 251,255 L 259,257 L 264,255 L 268,249 L 269,251 L 270,248 L 269,250 L 268,249 L 268,239 L 269,238 L 270,240 L 269,237 L 268,239 L 265,234 L 261,232 L 253,232 L 249,234 L 247,237 L 245,237 L 241,233 L 231,233 L 230,228 L 229,232 L 230,233 L 228,236 L 227,235 L 228,214 L 234,206 L 236,207 L 235,208 L 240,206 L 237,205 Z" fill="black" fill-rule="evenodd"/>
</svg>