<svg xmlns="http://www.w3.org/2000/svg" width="1448" height="1086" viewBox="0 0 1448 1086">
<rect width="100%" height="100%" fill="white"/>
<path d="M 1014,407 L 1014,424 L 1015,423 L 1015,410 L 1014,409 Z" fill="black" fill-rule="evenodd"/>
<path d="M 49,385 L 55,411 L 215,411 L 231,434 L 291,435 L 310,457 L 453,454 L 460,460 L 460,561 L 471,564 L 474,780 L 543,777 L 543,559 L 551,553 L 552,521 L 553,553 L 550,519 L 561,514 L 563,495 L 612,500 L 652,521 L 738,526 L 755,566 L 780,580 L 848,578 L 869,569 L 890,648 L 902,671 L 912,674 L 992,648 L 951,512 L 1000,478 L 1013,458 L 1014,464 L 1032,458 L 1035,445 L 1036,455 L 1040,445 L 1083,446 L 1337,487 L 1347,496 L 1346,517 L 1349,501 L 1343,578 L 1364,599 L 1383,597 L 1397,582 L 1411,427 L 1386,408 L 1357,423 L 1345,469 L 1080,428 L 1037,428 L 1030,420 L 1016,428 L 1012,443 L 1004,437 L 1012,407 L 1001,401 L 1007,400 L 1003,357 L 1002,399 L 999,353 L 992,345 L 963,343 L 952,316 L 937,317 L 920,339 L 895,346 L 629,345 L 619,331 L 603,337 L 316,333 L 296,351 L 286,317 L 265,309 L 253,317 L 248,351 L 221,363 L 215,378 L 57,378 Z M 1401,533 L 1402,534 L 1402,541 L 1401,542 L 1400,541 L 1400,534 Z M 695,524 L 696,523 L 717,523 L 718,524 L 717,525 L 696,525 Z M 755,515 L 758,511 L 759,513 L 760,513 L 761,512 L 759,512 L 758,511 L 761,509 L 765,509 L 766,510 L 768,510 L 766,510 L 765,509 L 766,508 L 769,508 L 770,507 L 776,506 L 777,505 L 819,505 L 820,506 L 820,509 L 821,510 L 821,511 L 819,512 L 820,513 L 821,511 L 824,517 L 824,519 L 823,520 L 822,518 L 823,522 L 823,520 L 824,519 L 825,520 L 825,523 L 826,524 L 826,533 L 825,534 L 825,539 L 824,540 L 823,539 L 823,537 L 822,538 L 822,541 L 823,539 L 824,540 L 824,543 L 822,546 L 822,548 L 820,552 L 818,554 L 817,553 L 816,554 L 817,553 L 818,554 L 817,558 L 820,562 L 822,562 L 823,563 L 833,563 L 834,562 L 838,561 L 843,556 L 844,557 L 845,556 L 845,555 L 847,553 L 846,549 L 847,548 L 848,542 L 849,541 L 850,542 L 850,546 L 850,542 L 851,541 L 851,540 L 850,542 L 849,541 L 849,510 L 850,509 L 851,510 L 851,513 L 852,514 L 853,520 L 854,521 L 854,524 L 853,525 L 852,524 L 851,520 L 851,528 L 853,531 L 854,531 L 854,529 L 855,528 L 856,529 L 856,531 L 858,535 L 858,539 L 857,540 L 856,538 L 856,540 L 857,541 L 858,539 L 859,540 L 859,543 L 860,544 L 860,554 L 859,555 L 859,557 L 855,562 L 853,561 L 853,562 L 851,564 L 845,566 L 847,567 L 846,568 L 842,568 L 841,569 L 838,569 L 837,568 L 789,568 L 788,569 L 785,569 L 784,568 L 780,568 L 779,567 L 774,566 L 773,565 L 774,563 L 773,563 L 774,564 L 773,565 L 768,562 L 770,561 L 769,561 L 766,557 L 764,558 L 759,551 L 758,545 L 757,544 L 757,537 L 756,536 L 756,531 L 755,530 L 755,523 L 754,522 Z M 1390,427 L 1394,432 L 1395,440 L 1394,441 L 1393,461 L 1392,462 L 1391,479 L 1390,480 L 1390,489 L 1389,490 L 1388,506 L 1387,507 L 1386,506 L 1386,497 L 1387,517 L 1386,518 L 1385,534 L 1384,535 L 1384,543 L 1383,544 L 1383,553 L 1382,554 L 1381,572 L 1379,576 L 1378,575 L 1378,573 L 1377,576 L 1378,575 L 1379,577 L 1377,579 L 1375,578 L 1376,580 L 1373,582 L 1368,582 L 1367,581 L 1365,581 L 1362,578 L 1361,574 L 1360,573 L 1360,566 L 1361,565 L 1362,566 L 1362,572 L 1363,573 L 1363,575 L 1363,559 L 1363,565 L 1362,566 L 1361,565 L 1361,547 L 1362,546 L 1362,532 L 1363,531 L 1363,518 L 1364,517 L 1365,518 L 1365,531 L 1365,525 L 1366,524 L 1366,514 L 1366,516 L 1365,517 L 1364,516 L 1364,499 L 1365,498 L 1365,487 L 1366,486 L 1368,488 L 1368,479 L 1369,478 L 1369,475 L 1368,475 L 1368,486 L 1367,487 L 1366,486 L 1366,474 L 1367,473 L 1367,466 L 1368,465 L 1368,457 L 1369,456 L 1370,457 L 1370,463 L 1370,458 L 1371,457 L 1371,450 L 1371,456 L 1370,457 L 1369,456 L 1370,441 L 1371,440 L 1371,435 L 1372,434 L 1373,435 L 1373,439 L 1374,433 L 1373,435 L 1372,434 L 1372,432 L 1376,427 L 1379,426 L 1380,427 L 1379,428 L 1385,427 L 1389,429 L 1388,428 Z M 1378,409 L 1379,408 L 1386,408 L 1387,409 L 1386,410 L 1379,410 Z M 269,323 L 270,324 L 270,325 L 269,326 L 269,328 L 270,329 L 269,330 L 268,330 L 267,329 L 267,325 Z" fill="black" fill-rule="evenodd"/>
</svg>