<?xml version="1.0" encoding="UTF-8" standalone="no"?>
<svg
   width="700"
   height="250"
   viewBox="0 0 700 250"
   version="1.1"
   id="svg2"
   sodipodi:docname="m3_grease_gun_black.svg"
   inkscape:version="1.4.2 (f4327f4, 2025-05-13)"
   xmlns:inkscape="http://www.inkscape.org/namespaces/inkscape"
   xmlns:sodipodi="http://sodipodi.sourceforge.net/DTD/sodipodi-0.dtd"
   xmlns="http://www.w3.org/2000/svg"
   xmlns:svg="http://www.w3.org/2000/svg">
  <defs
     id="defs2" />
  <sodipodi:namedview
     id="namedview2"
     pagecolor="#ffffff"
     bordercolor="#000000"
     borderopacity="0.25"
     inkscape:showpageshadow="2"
     inkscape:pageopacity="0.0"
     inkscape:pagecheckerboard="0"
     inkscape:deskcolor="#d1d1d1"
     inkscape:zoom="1.0819521"
     inkscape:cx="288.36766"
     inkscape:cy="296.22383"
     inkscape:window-width="2560"
     inkscape:window-height="1377"
     inkscape:window-x="-8"
     inkscape:window-y="-8"
     inkscape:window-maximized="1"
     inkscape:current-layer="svg2" />
  <path
     d="m 486.12462,60.431733 v 8.026282 l 0.47215,-0.472137 v -6.137744 l -0.47215,-0.472137 z"
     fill="#000000"
     fill-rule="evenodd"
     id="path1"
     style="stroke-width:0.472134" />
  <path
     d="M 30.514893,50.044774 33.3477,62.320262 h 75.54152 l 7.55414,10.859096 28.32808,0.472134 8.97055,10.386957 67.51523,-1.416412 3.30493,2.832814 v 47.685579 l 5.19348,1.41641 1.4164,101.98103 32.57728,-1.4164 V 132.19616 l 3.77707,-2.83281 0.47214,-15.10829 0.47213,15.10829 -1.4164,-16.05257 5.19348,-2.36067 0.94426,-8.97056 23.1346,2.36068 18.88537,9.91483 40.60356,2.36066 8.02629,18.88537 11.80336,6.6099 32.10514,-0.94428 9.91482,-4.2492 9.91483,37.29862 5.66561,10.85909 4.72134,1.4164 37.77076,-12.27549 -19.3575,-64.21029 23.13458,-16.05256 6.13774,-9.442697 0.47213,2.832814 8.49843,-2.832814 1.4164,-6.137751 0.47214,4.721349 1.88854,-4.721349 20.30178,0.472144 119.92215,19.357508 4.72134,4.249206 -0.47213,9.91482 1.4164,-7.55415 -2.8328,36.35435 9.91481,9.91482 8.97056,-0.94426 6.60988,-7.08202 6.60988,-73.180834 -11.80335,-8.970556 -13.69191,7.082018 -5.66562,21.718178 -125.11561,-19.357502 h -20.30178 l -3.30494,-3.777078 -6.60989,3.777078 -1.88853,7.08202 -3.77708,-2.832814 3.77708,-14.164027 -5.19349,-2.832813 2.83281,-0.472137 -1.88854,-20.30178 -0.47213,19.829652 -1.4164,-21.718182 -3.30495,-3.777078 -13.6919,-0.944274 -5.19348,-12.747625 -7.08201,0.472137 -8.02629,10.38695 -11.80336,3.30494 -125.58776,-0.472128 -4.72134,-6.609881 -7.55415,2.832804 -135.50258,-1.888539 -9.44269,8.49842 -4.72135,-16.052566 -9.91483,-3.777077 -5.66561,3.777077 -2.36066,16.052566 -12.74764,5.665616 -2.8328,7.082018 H 34.291969 Z m 638.325757,69.875886 0.47214,0.47214 v 3.30494 l -0.47214,0.47213 -0.47213,-0.47213 v -3.30494 z m -333.32691,-4.2492 0.47214,-0.47215 h 9.91483 l 0.47212,0.47215 -0.47212,0.47213 h -9.91483 z m 28.32807,-4.24921 1.4164,-1.88854 0.47214,0.94426 h 0.47214 l 0.47212,-0.47213 h -0.94426 l -0.47214,-0.47213 1.4164,-0.94427 h 1.88854 l 0.47214,0.47213 h 0.94426 -0.94426 l -0.47214,-0.47213 0.47214,-0.47215 h 1.41641 l 0.47213,-0.47212 2.8328,-0.47213 0.47214,-0.47215 h 19.82964 l 0.47214,0.47215 v 1.4164 l 0.47213,0.47213 v 0.47214 l -0.94427,0.47213 0.47214,0.47213 0.47213,-0.94426 1.4164,2.8328 v 0.94427 l -0.47213,0.47213 -0.47213,-0.94426 0.47213,1.88854 v -0.94428 l 0.47213,-0.47213 0.47215,0.47213 v 1.4164 l 0.47212,0.47215 v 4.2492 l -0.47212,0.47214 v 2.36067 l -0.47215,0.47214 -0.47213,-0.47214 v -0.94427 l -0.47213,0.47213 v 1.41641 l 0.47213,-0.94427 0.47213,0.47214 v 1.4164 l -0.94426,1.41641 v 0.94425 l -0.94427,1.88855 -0.94427,0.94427 -0.47213,-0.47214 -0.47214,0.47214 0.47214,-0.47214 0.47213,0.47214 -0.47213,1.88854 1.4164,1.88854 h 0.94427 l 0.47213,0.47212 h 4.72134 l 0.47214,-0.47212 1.88854,-0.47214 2.36068,-2.36068 0.47212,0.47214 0.47214,-0.47214 v -0.47213 l 0.94427,-0.94427 -0.47213,-1.88853 0.47213,-0.47215 0.47213,-2.8328 0.47214,-0.47213 0.47214,0.47213 v 1.88855 -1.88855 l 0.47212,-0.47213 v -0.47213 l -0.47212,0.94426 -0.47214,-0.47213 v -14.63617 l 0.47214,-0.47213 0.47212,0.47213 v 1.4164 l 0.47214,0.47214 0.47214,2.8328 0.47213,0.47215 v 1.4164 l -0.47213,0.47213 -0.47214,-0.47213 -0.47214,-1.88855 v 3.77708 l 0.94428,1.41641 h 0.47213 v -0.94427 l 0.47214,-0.47214 0.47213,0.47214 v 0.94427 l 0.94427,1.88853 v 1.88854 l -0.47214,0.47214 -0.47213,-0.94428 v 0.94428 l 0.47213,0.47213 0.47214,-0.94427 0.47213,0.47214 v 1.4164 l 0.47214,0.47214 v 4.72134 l -0.47214,0.47213 v 0.94427 l -1.88853,2.36068 -0.94427,-0.47214 v 0.47214 l -0.94428,0.94427 -2.8328,0.94425 0.94427,0.47215 -0.47213,0.47213 h -1.88855 l -0.47213,0.47214 h -1.4164 l -0.47213,-0.47214 h -22.66245 l -0.47214,0.47214 h -1.4164 l -0.47214,-0.47214 h -1.88854 l -0.47213,-0.47213 -2.36067,-0.47215 -0.47214,-0.47212 0.47214,-0.94428 h -0.47214 l 0.47214,0.47215 -0.47214,0.47213 -2.36068,-1.4164 0.94428,-0.47214 h -0.47213 l -1.41641,-1.88854 -0.94426,0.47214 -2.36068,-3.30495 -0.47214,-2.83281 -0.47213,-0.47212 v -3.30495 l -0.47214,-0.47213 v -2.36067 l -0.47213,-0.47214 v -3.30495 l -0.47213,-0.47212 z m 299.80537,-41.547834 1.88854,2.360674 0.47213,3.777072 -0.47213,0.472134 -0.47214,9.442699 -0.47213,0.472124 -0.47213,8.026295 -0.47214,0.472124 v 4.249216 l -0.47213,0.47213 -0.47215,7.554156 -0.47212,0.47213 -0.47213,-0.47213 v -4.24921 l 0.47213,9.44268 -0.47213,0.47214 -0.47215,7.55415 -0.47213,0.47213 v 3.77708 l -0.47213,0.47214 v 4.2492 l -0.47214,0.47214 -0.47213,8.49842 -0.94427,1.88853 -0.47214,-0.47213 v -0.94427 l -0.47213,1.4164 0.47213,-0.47213 0.47214,0.94427 -0.94427,0.94427 -0.94427,-0.47214 0.47214,0.94428 -1.41641,0.94426 h -2.36067 l -0.47214,-0.47214 h -0.94426 l -1.4164,-1.4164 -0.47214,-1.88853 -0.47214,-0.47214 v -3.30495 l 0.47214,-0.47212 0.47214,0.47212 v 2.83282 l 0.47212,0.47213 v 0.94427 -7.55415 2.83281 l -0.47212,0.47212 -0.47214,-0.47212 v -8.49842 l 0.47214,-0.47213 v -6.60989 l 0.47212,-0.47213 v -6.13775 l 0.47214,-0.47214 0.47214,0.47214 v 6.13775 -2.83281 l 0.47213,-0.47213 v -4.72135 0.94427 l -0.47213,0.47213 -0.47214,-0.47213 v -8.02629 l 0.47214,-0.47213 v -5.193476 l 0.47213,-0.47213 0.94427,0.94427 v -4.24921 l 0.47214,-0.472134 v -1.416399 h -0.47214 v 5.193473 l -0.47214,0.47213 -0.47213,-0.47213 v -5.665618 l 0.47213,-0.472134 v -3.304947 l 0.47214,-0.472134 v -3.777072 l 0.47214,-0.472134 0.47212,0.472134 v 2.832804 -2.36067 l 0.47215,-0.472134 v -3.304938 2.832804 l -0.47215,0.472134 -0.47212,-0.472134 0.47212,-7.082019 0.47215,-0.472134 v -2.36067 l 0.47213,-0.472134 0.47213,0.472134 v 1.888546 l 0.47214,-2.832814 -0.47214,0.944268 -0.47213,-0.472134 V 72.23509 l 1.88854,-2.360674 1.4164,-0.472137 0.47214,0.472137 -0.47214,0.472138 2.8328,-0.472138 1.88855,0.944265 -0.47215,-0.472127 z m -5.66562,-8.498419 0.47214,-0.472137 h 3.30495 l 0.47213,0.472137 -0.47213,0.472137 h -3.30495 z m -523.59709,-40.603561 0.47214,0.472137 v 0.472128 l -0.47214,0.472137 v 0.944265 l 0.47214,0.472137 -0.47214,0.472137 h -0.47213 L 133.4402,23.60524 v -1.888539 z"
     fill="#000000"
     fill-rule="evenodd"
     id="path2"
     style="stroke-width:0.472134" />
</svg>
