<svg xmlns="http://www.w3.org/2000/svg" width="2172" height="724" viewBox="0 0 2172 724">
<rect width="100%" height="100%" fill="white"/>
<path d="M 930,78 L 931,79 L 931,83 L 930,84 L 930,89 L 931,91 L 978,91 L 979,92 L 1006,92 L 1007,93 L 1039,93 L 1040,94 L 1068,94 L 1069,95 L 1085,95 L 1086,96 L 1106,96 L 1107,97 L 1122,97 L 1124,100 L 1127,100 L 1128,101 L 1128,105 L 1138,105 L 1138,101 L 1139,100 L 1141,100 L 1143,98 L 1149,98 L 1151,100 L 1155,100 L 1155,81 L 1143,82 L 1138,78 L 1138,74 L 1129,74 L 1128,76 L 1126,77 L 1128,77 L 1129,78 L 1128,79 L 1125,79 L 1125,80 L 1122,82 L 1090,82 L 1088,81 L 1084,83 L 1065,83 L 1064,82 L 1023,82 L 1022,81 L 974,81 L 973,80 L 953,80 L 952,79 L 942,79 L 936,74 L 932,74 L 932,78 L 931,79 Z" fill="black" fill-rule="evenodd"/>
<path d="M 1967,332 L 1928,292 L 1927,236 L 1951,231 L 1951,205 L 1917,189 L 1182,195 L 1183,135 L 1220,143 L 1223,121 L 1361,114 L 1362,78 L 1336,78 L 1320,58 L 1308,77 L 1157,67 L 1153,195 L 1127,194 L 1125,165 L 1002,165 L 960,214 L 939,171 L 846,171 L 849,155 L 835,151 L 790,250 L 657,266 L 660,242 L 639,241 L 643,268 L 408,305 L 394,347 L 489,359 L 391,349 L 344,360 L 348,316 L 334,304 L 314,314 L 306,294 L 304,363 L 327,370 L 315,399 L 429,384 L 510,426 L 423,386 L 375,388 L 351,414 L 254,414 L 231,383 L 203,452 L 224,485 L 270,466 L 301,486 L 312,455 L 344,455 L 394,426 L 469,433 L 376,435 L 332,471 L 313,511 L 312,562 L 332,606 L 368,637 L 417,651 L 474,641 L 528,588 L 539,532 L 516,469 L 531,503 L 552,501 L 511,427 L 581,536 L 951,522 L 970,446 L 1051,406 L 1791,438 L 1842,461 L 1791,441 L 1078,409 L 1020,416 L 972,448 L 961,497 L 983,496 L 1011,554 L 1144,647 L 1677,650 L 1825,578 L 1840,530 L 1815,478 L 1851,518 L 1869,489 L 1907,493 L 1909,478 L 1950,474 L 1937,450 L 1920,457 L 1939,471 L 1920,472 L 1905,439 L 1950,379 L 1967,376 Z M 1275,630 L 1276,629 L 1277,629 L 1278,628 L 1279,628 L 1280,629 L 1281,629 L 1280,629 L 1279,628 L 1281,626 L 1282,626 L 1283,627 L 1287,627 L 1288,628 L 1287,629 L 1287,630 L 1286,631 L 1276,631 Z M 1554,613 L 1558,609 L 1559,609 L 1560,610 L 1562,610 L 1563,611 L 1567,611 L 1568,610 L 1572,610 L 1575,613 L 1575,614 L 1576,615 L 1573,618 L 1570,618 L 1569,617 L 1567,617 L 1569,617 L 1570,618 L 1569,619 L 1561,619 L 1560,618 L 1561,617 L 1563,617 L 1561,617 L 1560,618 L 1557,618 L 1556,617 L 1555,617 L 1554,616 L 1555,615 L 1556,615 Z M 1249,614 L 1254,609 L 1257,609 L 1258,610 L 1266,610 L 1267,609 L 1268,609 L 1271,612 L 1271,613 L 1273,615 L 1272,616 L 1271,616 L 1270,615 L 1271,616 L 1270,617 L 1269,617 L 1268,618 L 1265,618 L 1264,619 L 1258,619 L 1257,618 L 1254,618 L 1253,617 L 1252,617 Z M 1651,613 L 1656,608 L 1659,608 L 1660,609 L 1670,609 L 1671,608 L 1672,608 L 1673,609 L 1673,610 L 1674,611 L 1673,612 L 1674,611 L 1676,613 L 1676,615 L 1675,616 L 1674,615 L 1674,614 L 1674,615 L 1675,616 L 1674,617 L 1672,617 L 1671,618 L 1659,618 L 1658,617 L 1656,617 L 1655,616 L 1654,616 L 1653,615 L 1652,615 L 1651,614 Z M 1452,614 L 1458,608 L 1459,608 L 1460,609 L 1470,609 L 1471,608 L 1473,608 L 1476,611 L 1476,612 L 1477,613 L 1476,614 L 1477,615 L 1476,616 L 1475,616 L 1474,617 L 1472,617 L 1471,618 L 1459,618 L 1458,617 L 1457,617 L 1456,616 L 1455,616 L 1454,615 L 1453,615 Z M 1348,613 L 1349,612 L 1351,614 L 1349,612 L 1350,611 L 1350,610 L 1353,607 L 1354,607 L 1355,608 L 1357,608 L 1358,609 L 1365,609 L 1366,608 L 1368,608 L 1369,609 L 1369,610 L 1372,613 L 1372,615 L 1371,616 L 1370,616 L 1369,617 L 1366,617 L 1365,618 L 1356,618 L 1355,617 L 1353,617 L 1352,616 L 1350,616 L 1348,614 Z M 1149,614 L 1150,613 L 1150,612 L 1155,607 L 1156,607 L 1157,608 L 1158,608 L 1159,609 L 1165,609 L 1166,608 L 1168,608 L 1169,607 L 1173,611 L 1173,612 L 1174,613 L 1174,614 L 1173,615 L 1172,614 L 1170,614 L 1172,614 L 1173,615 L 1172,616 L 1171,616 L 1170,617 L 1167,617 L 1166,618 L 1158,618 L 1157,617 L 1154,617 L 1153,616 L 1152,616 L 1151,615 L 1152,614 L 1153,614 L 1152,614 L 1151,615 L 1150,615 Z M 1337,600 L 1338,599 L 1339,599 L 1340,600 L 1343,600 L 1344,601 L 1346,601 L 1347,602 L 1346,603 L 1345,603 L 1343,605 L 1342,605 L 1341,606 L 1339,604 L 1339,603 L 1338,602 L 1338,601 Z M 1185,599 L 1186,600 L 1185,601 L 1185,603 L 1183,605 L 1183,606 L 1182,607 L 1181,607 L 1176,602 L 1177,601 L 1179,601 L 1180,600 L 1183,600 L 1184,599 Z M 1504,596 L 1505,595 L 1509,595 L 1510,596 L 1510,597 L 1512,599 L 1514,599 L 1515,600 L 1519,600 L 1520,601 L 1524,601 L 1525,602 L 1529,602 L 1530,603 L 1530,604 L 1531,605 L 1531,608 L 1532,609 L 1532,611 L 1533,612 L 1533,613 L 1534,614 L 1534,615 L 1535,616 L 1535,617 L 1537,619 L 1537,620 L 1542,625 L 1541,626 L 1542,627 L 1543,626 L 1544,626 L 1546,628 L 1545,629 L 1544,629 L 1545,629 L 1546,628 L 1547,628 L 1548,629 L 1549,629 L 1550,630 L 1549,631 L 1537,631 L 1536,630 L 1537,629 L 1542,629 L 1536,629 L 1535,628 L 1535,627 L 1534,626 L 1532,626 L 1531,625 L 1525,625 L 1524,626 L 1523,626 L 1521,628 L 1521,630 L 1520,631 L 1508,631 L 1507,630 L 1507,629 L 1504,626 L 1499,626 L 1498,625 L 1495,625 L 1494,624 L 1501,617 L 1501,616 L 1503,614 L 1503,612 L 1504,611 L 1504,610 L 1505,609 L 1505,608 L 1506,607 L 1506,604 L 1507,603 L 1507,597 L 1505,597 Z M 1580,591 L 1581,592 L 1581,594 L 1580,595 L 1580,601 L 1579,602 L 1578,601 L 1578,595 L 1577,594 L 1577,593 L 1579,591 Z M 1552,591 L 1553,592 L 1553,593 L 1552,594 L 1552,602 L 1553,603 L 1551,605 L 1550,605 L 1549,604 L 1550,603 L 1550,592 L 1551,591 Z M 1597,590 L 1598,589 L 1600,589 L 1601,590 L 1603,590 L 1604,591 L 1607,591 L 1608,592 L 1611,592 L 1612,593 L 1615,593 L 1616,594 L 1619,594 L 1620,595 L 1623,595 L 1624,596 L 1623,597 L 1623,601 L 1624,602 L 1624,606 L 1625,607 L 1625,609 L 1626,610 L 1626,611 L 1627,612 L 1627,613 L 1629,615 L 1629,616 L 1631,618 L 1631,619 L 1638,626 L 1639,626 L 1640,627 L 1638,629 L 1638,630 L 1637,631 L 1625,631 L 1624,630 L 1624,628 L 1623,627 L 1623,626 L 1611,626 L 1611,627 L 1609,629 L 1609,630 L 1608,631 L 1596,631 L 1595,630 L 1595,629 L 1592,626 L 1590,626 L 1588,624 L 1592,620 L 1592,619 L 1594,617 L 1594,616 L 1595,615 L 1596,616 L 1597,615 L 1597,614 L 1596,613 L 1596,612 L 1597,611 L 1597,609 L 1598,608 L 1598,605 L 1599,604 L 1599,593 L 1598,592 L 1598,591 Z M 1582,589 L 1584,589 L 1585,590 L 1585,592 L 1586,593 L 1586,604 L 1585,605 L 1585,607 L 1583,609 L 1582,609 L 1580,607 L 1582,605 L 1583,605 L 1583,604 L 1584,603 L 1584,595 L 1583,594 L 1583,592 L 1581,592 L 1580,591 Z M 1295,590 L 1296,589 L 1299,589 L 1300,590 L 1302,590 L 1303,591 L 1307,591 L 1308,592 L 1311,592 L 1312,593 L 1314,593 L 1315,594 L 1318,594 L 1319,595 L 1322,595 L 1323,596 L 1322,597 L 1320,597 L 1320,603 L 1321,604 L 1321,607 L 1322,608 L 1322,610 L 1323,611 L 1323,612 L 1324,613 L 1324,614 L 1326,616 L 1326,617 L 1334,625 L 1333,626 L 1330,626 L 1329,625 L 1325,625 L 1324,626 L 1322,626 L 1319,629 L 1319,630 L 1318,631 L 1304,631 L 1303,630 L 1303,628 L 1300,625 L 1291,625 L 1290,626 L 1289,626 L 1289,627 L 1288,628 L 1287,627 L 1283,627 L 1282,626 L 1290,618 L 1290,617 L 1291,616 L 1291,615 L 1293,613 L 1293,612 L 1294,611 L 1294,609 L 1295,608 L 1295,606 L 1296,605 L 1296,591 Z M 1280,589 L 1282,591 L 1282,592 L 1283,593 L 1283,603 L 1282,604 L 1282,606 L 1279,609 L 1273,603 L 1274,602 L 1274,593 L 1276,591 L 1277,591 L 1278,590 L 1279,590 Z M 1228,590 L 1227,591 L 1227,605 L 1228,606 L 1228,609 L 1229,610 L 1229,611 L 1230,612 L 1230,613 L 1231,614 L 1231,615 L 1233,617 L 1233,618 L 1239,624 L 1238,625 L 1231,625 L 1228,628 L 1228,630 L 1227,631 L 1214,631 L 1213,630 L 1213,627 L 1212,626 L 1211,626 L 1210,625 L 1201,625 L 1198,628 L 1198,630 L 1197,631 L 1184,631 L 1183,630 L 1184,629 L 1184,628 L 1185,627 L 1186,627 L 1188,625 L 1189,625 L 1197,617 L 1197,616 L 1198,615 L 1198,614 L 1200,612 L 1200,610 L 1201,609 L 1201,608 L 1202,607 L 1202,605 L 1203,604 L 1203,600 L 1204,599 L 1204,597 L 1200,597 L 1199,596 L 1200,595 L 1203,595 L 1204,594 L 1207,594 L 1208,593 L 1211,593 L 1212,592 L 1215,592 L 1216,591 L 1220,591 L 1221,590 L 1224,590 L 1225,589 L 1227,589 Z M 1681,588 L 1682,588 L 1683,589 L 1683,592 L 1682,593 L 1682,596 L 1683,597 L 1683,599 L 1684,600 L 1684,603 L 1683,604 L 1685,604 L 1686,603 L 1687,604 L 1687,605 L 1686,606 L 1686,607 L 1685,608 L 1684,608 L 1678,602 L 1678,601 L 1679,600 L 1679,598 L 1680,597 L 1680,593 L 1679,592 L 1679,590 Z M 1547,588 L 1548,589 L 1549,589 L 1551,591 L 1550,592 L 1548,592 L 1547,591 L 1546,592 L 1546,594 L 1547,595 L 1547,602 L 1546,603 L 1546,604 L 1545,605 L 1544,604 L 1544,602 L 1543,601 L 1543,595 L 1544,594 L 1544,591 L 1545,590 L 1545,589 L 1546,588 Z M 1645,587 L 1646,587 L 1648,589 L 1648,592 L 1646,594 L 1644,594 L 1643,593 L 1643,592 L 1642,591 L 1642,590 Z M 1341,587 L 1342,587 L 1344,589 L 1344,591 L 1342,593 L 1341,593 L 1340,592 L 1341,591 L 1340,592 L 1339,591 L 1339,589 Z M 1177,590 L 1178,589 L 1178,588 L 1179,587 L 1182,587 L 1183,588 L 1183,589 L 1184,590 L 1184,591 L 1181,594 L 1180,594 L 1178,592 L 1178,591 Z M 1686,585 L 1688,587 L 1688,589 L 1689,590 L 1689,600 L 1688,601 L 1688,603 L 1687,604 L 1686,603 L 1686,602 L 1685,603 L 1684,602 L 1684,600 L 1685,599 L 1685,590 L 1686,589 L 1683,589 L 1682,588 L 1683,587 L 1684,587 Z M 1444,585 L 1446,585 L 1449,588 L 1450,588 L 1452,590 L 1452,591 L 1451,592 L 1451,598 L 1452,599 L 1452,602 L 1449,605 L 1448,605 L 1447,604 L 1447,603 L 1447,604 L 1448,605 L 1446,607 L 1445,607 L 1444,606 L 1444,605 L 1443,604 L 1443,603 L 1442,602 L 1442,600 L 1441,599 L 1441,591 L 1442,590 L 1442,588 L 1443,587 L 1443,586 Z M 1382,585 L 1384,587 L 1384,589 L 1385,590 L 1385,599 L 1384,600 L 1384,603 L 1383,604 L 1383,605 L 1381,607 L 1380,607 L 1379,606 L 1378,606 L 1375,603 L 1376,602 L 1378,602 L 1377,602 L 1376,601 L 1377,600 L 1376,601 L 1375,600 L 1375,599 L 1376,598 L 1376,592 L 1375,591 L 1375,589 L 1376,588 L 1377,588 L 1378,587 L 1379,587 L 1380,586 L 1381,586 Z M 1241,585 L 1244,585 L 1248,589 L 1246,591 L 1246,592 L 1247,592 L 1249,590 L 1250,590 L 1251,591 L 1250,592 L 1250,593 L 1249,594 L 1249,601 L 1250,602 L 1250,603 L 1249,604 L 1248,604 L 1246,606 L 1245,606 L 1244,607 L 1243,607 L 1241,605 L 1241,603 L 1240,602 L 1240,593 L 1241,592 L 1241,590 L 1242,589 L 1242,588 L 1243,587 L 1241,587 L 1240,586 Z M 1141,584 L 1142,584 L 1144,586 L 1145,586 L 1147,588 L 1146,589 L 1144,589 L 1144,590 L 1145,590 L 1146,591 L 1146,593 L 1146,589 L 1147,588 L 1148,588 L 1149,589 L 1148,590 L 1148,598 L 1149,599 L 1149,601 L 1148,602 L 1147,601 L 1147,600 L 1146,601 L 1144,599 L 1144,602 L 1146,604 L 1144,606 L 1142,606 L 1140,604 L 1140,602 L 1139,601 L 1139,598 L 1138,597 L 1138,591 L 1139,590 L 1139,587 L 1140,586 L 1140,585 Z M 1647,580 L 1651,576 L 1652,576 L 1653,575 L 1654,575 L 1655,574 L 1656,574 L 1657,573 L 1659,573 L 1660,572 L 1671,572 L 1672,573 L 1674,573 L 1675,574 L 1676,574 L 1679,577 L 1679,578 L 1678,579 L 1677,578 L 1678,579 L 1676,581 L 1675,581 L 1674,582 L 1673,581 L 1672,581 L 1671,582 L 1669,582 L 1668,581 L 1662,581 L 1661,582 L 1659,582 L 1658,583 L 1657,583 L 1656,584 L 1654,584 L 1653,583 L 1654,582 L 1653,583 L 1652,583 L 1651,582 L 1650,582 L 1649,581 L 1648,581 Z M 1451,577 L 1453,575 L 1454,575 L 1455,574 L 1456,574 L 1457,573 L 1459,573 L 1460,572 L 1472,572 L 1473,573 L 1475,573 L 1477,575 L 1477,577 L 1476,578 L 1476,579 L 1475,580 L 1475,582 L 1474,583 L 1473,583 L 1472,582 L 1473,581 L 1472,582 L 1470,582 L 1469,581 L 1462,581 L 1461,582 L 1459,582 L 1458,583 L 1457,583 Z M 1344,580 L 1344,579 L 1348,575 L 1349,575 L 1350,574 L 1351,574 L 1352,573 L 1354,573 L 1355,572 L 1368,572 L 1369,573 L 1370,573 L 1371,574 L 1372,574 L 1373,575 L 1374,575 L 1376,577 L 1373,580 L 1372,579 L 1373,580 L 1370,583 L 1369,583 L 1368,582 L 1367,582 L 1366,581 L 1357,581 L 1356,582 L 1355,582 L 1354,583 L 1353,583 L 1352,584 L 1351,583 L 1349,583 L 1348,582 L 1347,582 L 1346,581 L 1345,581 Z M 1755,590 L 1754,591 L 1753,591 L 1752,592 L 1752,595 L 1753,596 L 1753,597 L 1751,599 L 1750,599 L 1749,600 L 1747,600 L 1746,601 L 1745,601 L 1744,600 L 1743,600 L 1744,600 L 1745,601 L 1744,602 L 1743,602 L 1742,603 L 1739,603 L 1736,600 L 1734,600 L 1733,601 L 1732,601 L 1731,602 L 1729,602 L 1728,603 L 1727,603 L 1726,604 L 1725,604 L 1725,605 L 1724,606 L 1725,607 L 1725,610 L 1724,611 L 1722,611 L 1721,612 L 1720,612 L 1719,613 L 1718,613 L 1717,614 L 1716,614 L 1715,615 L 1713,615 L 1712,616 L 1711,616 L 1710,617 L 1709,616 L 1709,614 L 1707,612 L 1704,612 L 1703,611 L 1704,610 L 1704,608 L 1705,607 L 1705,605 L 1706,604 L 1706,600 L 1707,599 L 1707,590 L 1706,589 L 1706,584 L 1705,583 L 1705,581 L 1704,580 L 1704,578 L 1703,577 L 1703,576 L 1704,575 L 1705,576 L 1706,575 L 1711,575 L 1712,576 L 1715,576 L 1716,577 L 1719,577 L 1720,576 L 1720,575 L 1722,573 L 1722,572 L 1723,571 L 1724,571 L 1731,578 L 1732,578 L 1736,582 L 1738,582 L 1739,583 L 1740,583 L 1742,585 L 1743,585 L 1744,586 L 1746,586 L 1747,587 L 1748,587 L 1749,588 L 1751,588 L 1752,589 L 1754,589 Z M 1150,576 L 1153,573 L 1155,573 L 1156,572 L 1158,572 L 1159,571 L 1166,571 L 1167,572 L 1170,572 L 1171,573 L 1172,573 L 1173,574 L 1174,574 L 1176,576 L 1177,576 L 1178,577 L 1178,578 L 1179,579 L 1179,580 L 1178,581 L 1177,581 L 1176,582 L 1175,582 L 1174,583 L 1173,583 L 1172,584 L 1171,583 L 1170,583 L 1169,582 L 1168,582 L 1167,581 L 1165,581 L 1164,580 L 1162,580 L 1161,581 L 1157,581 L 1156,582 L 1154,582 L 1150,578 Z M 435,564 L 439,564 L 442,567 L 442,568 L 443,569 L 443,571 L 442,572 L 442,573 L 440,575 L 439,575 L 438,576 L 435,576 L 434,575 L 433,575 L 431,573 L 431,567 L 433,565 L 434,565 Z M 405,561 L 409,561 L 410,562 L 411,562 L 413,564 L 413,566 L 414,567 L 414,568 L 413,569 L 413,571 L 411,573 L 409,573 L 408,574 L 407,574 L 406,573 L 404,573 L 401,570 L 401,565 Z M 475,556 L 476,557 L 476,558 L 475,559 L 475,561 L 474,562 L 474,563 L 473,564 L 473,565 L 471,567 L 471,568 L 468,571 L 467,570 L 467,569 L 466,568 L 467,567 L 467,566 L 469,564 L 469,563 L 470,562 L 470,561 L 471,560 L 471,558 L 473,556 L 474,557 Z M 375,555 L 376,555 L 378,557 L 378,559 L 379,560 L 379,561 L 380,562 L 380,563 L 381,564 L 381,565 L 382,566 L 382,567 L 384,569 L 384,572 L 383,573 L 379,569 L 379,568 L 378,567 L 378,566 L 377,565 L 377,564 L 375,562 L 375,560 L 374,559 L 374,558 L 373,557 Z M 1736,560 L 1740,556 L 1741,556 L 1742,555 L 1743,555 L 1745,553 L 1749,557 L 1750,557 L 1753,560 L 1754,560 L 1755,561 L 1757,561 L 1758,562 L 1760,562 L 1761,563 L 1767,563 L 1769,565 L 1769,569 L 1770,570 L 1770,576 L 1769,577 L 1760,577 L 1759,576 L 1756,576 L 1755,575 L 1753,575 L 1752,574 L 1750,574 L 1749,573 L 1748,573 L 1746,571 L 1745,571 L 1743,569 L 1742,569 L 1737,564 L 1737,563 L 1736,562 Z M 1804,558 L 1804,559 L 1794,569 L 1793,569 L 1791,571 L 1790,571 L 1789,572 L 1788,572 L 1787,573 L 1784,573 L 1783,572 L 1783,570 L 1782,569 L 1782,566 L 1781,565 L 1781,561 L 1782,560 L 1783,560 L 1784,559 L 1785,559 L 1787,557 L 1788,557 L 1793,552 L 1795,552 L 1796,553 L 1797,553 L 1798,554 L 1799,554 L 1801,556 L 1802,556 Z M 457,530 L 461,530 L 465,534 L 465,539 L 464,540 L 464,541 L 462,543 L 461,543 L 460,544 L 457,544 L 453,540 L 453,539 L 452,538 L 452,535 L 453,534 L 453,533 L 455,531 L 456,531 Z M 389,530 L 390,530 L 391,531 L 391,532 L 395,532 L 396,531 L 397,532 L 397,533 L 398,534 L 398,538 L 397,539 L 397,540 L 396,541 L 395,540 L 392,540 L 391,541 L 393,541 L 394,542 L 393,543 L 390,543 L 389,542 L 388,542 L 386,540 L 386,539 L 385,538 L 385,535 L 386,534 L 386,533 Z M 1812,527 L 1813,528 L 1813,532 L 1814,533 L 1814,536 L 1813,537 L 1813,542 L 1812,543 L 1812,545 L 1810,547 L 1809,546 L 1807,546 L 1806,545 L 1805,545 L 1804,544 L 1803,544 L 1799,540 L 1799,535 L 1800,534 L 1800,533 L 1799,532 L 1800,531 L 1801,531 L 1802,530 L 1804,530 L 1805,529 L 1807,529 L 1808,528 L 1809,528 L 1810,527 Z M 1043,526 L 1047,526 L 1048,527 L 1047,528 L 1044,528 L 1047,528 L 1048,527 L 1049,527 L 1050,528 L 1050,529 L 1049,530 L 1046,530 L 1045,531 L 1044,531 L 1044,532 L 1042,534 L 1042,535 L 1041,536 L 1043,538 L 1044,538 L 1045,539 L 1046,539 L 1047,540 L 1045,542 L 1043,542 L 1042,541 L 1040,541 L 1039,540 L 1038,540 L 1035,537 L 1038,534 L 1038,533 L 1040,531 L 1040,530 L 1042,528 L 1042,527 Z M 1027,521 L 1028,522 L 1028,527 L 1029,528 L 1029,532 L 1028,533 L 1023,528 L 1023,527 L 1021,525 L 1022,524 L 1023,524 L 1024,523 L 1025,523 Z M 1550,534 L 1550,536 L 1547,539 L 1546,539 L 1546,540 L 1545,541 L 1545,542 L 1542,545 L 1542,547 L 1543,548 L 1544,548 L 1545,549 L 1545,553 L 1544,554 L 1543,554 L 1542,555 L 1539,555 L 1538,556 L 1537,556 L 1536,557 L 1523,557 L 1522,558 L 1519,558 L 1518,559 L 1515,559 L 1514,560 L 1513,560 L 1511,562 L 1510,562 L 1509,563 L 1508,563 L 1507,564 L 1506,564 L 1505,565 L 1504,565 L 1503,566 L 1502,566 L 1499,569 L 1491,561 L 1490,561 L 1488,559 L 1487,559 L 1486,558 L 1485,558 L 1484,557 L 1483,557 L 1482,556 L 1480,556 L 1479,555 L 1480,554 L 1481,554 L 1482,553 L 1484,553 L 1485,552 L 1487,552 L 1488,551 L 1489,551 L 1490,550 L 1491,550 L 1493,548 L 1494,548 L 1497,545 L 1498,545 L 1501,542 L 1501,541 L 1503,539 L 1503,538 L 1504,537 L 1504,536 L 1505,535 L 1505,534 L 1506,533 L 1506,532 L 1507,531 L 1508,532 L 1508,533 L 1512,533 L 1513,532 L 1514,532 L 1515,531 L 1516,531 L 1517,530 L 1518,530 L 1520,528 L 1521,528 L 1522,527 L 1523,527 L 1525,525 L 1526,525 L 1528,523 L 1529,523 L 1531,521 L 1532,521 L 1532,520 L 1533,519 L 1534,520 L 1535,520 L 1536,521 L 1537,520 L 1540,520 L 1542,522 L 1542,523 L 1543,524 L 1543,525 L 1545,527 L 1545,528 L 1547,530 L 1547,531 L 1546,532 L 1547,531 Z M 1080,517 L 1081,518 L 1082,518 L 1083,519 L 1081,521 L 1084,521 L 1085,522 L 1084,523 L 1083,523 L 1086,523 L 1087,524 L 1088,524 L 1089,525 L 1089,526 L 1081,534 L 1080,534 L 1078,536 L 1077,536 L 1076,537 L 1075,537 L 1074,538 L 1073,538 L 1071,536 L 1071,534 L 1072,533 L 1070,531 L 1070,530 L 1069,529 L 1069,525 L 1072,522 L 1073,522 L 1075,520 L 1076,520 L 1077,519 L 1077,518 L 1078,517 Z M 473,514 L 474,515 L 474,516 L 475,517 L 475,519 L 476,520 L 476,522 L 477,523 L 477,526 L 478,527 L 478,529 L 477,530 L 476,530 L 475,529 L 475,526 L 474,525 L 474,523 L 473,522 L 473,521 L 472,520 L 472,519 L 471,518 L 471,516 Z M 1731,513 L 1734,516 L 1735,516 L 1741,522 L 1741,525 L 1740,526 L 1740,528 L 1739,529 L 1739,541 L 1736,544 L 1735,544 L 1734,545 L 1733,545 L 1732,546 L 1731,546 L 1730,547 L 1728,547 L 1726,545 L 1726,543 L 1725,542 L 1725,526 L 1726,525 L 1726,523 L 1727,522 L 1727,520 L 1728,519 L 1728,518 L 1729,517 L 1729,516 L 1730,515 L 1730,514 Z M 379,513 L 380,514 L 380,516 L 379,517 L 379,518 L 378,519 L 378,520 L 377,521 L 377,522 L 376,523 L 376,525 L 375,526 L 375,528 L 374,529 L 374,531 L 373,532 L 372,532 L 371,531 L 371,528 L 372,527 L 372,524 L 373,523 L 373,521 L 374,520 L 374,519 L 375,518 L 375,516 L 376,515 L 376,514 L 377,513 Z M 1445,630 L 1444,631 L 1430,631 L 1429,628 L 1425,625 L 1418,625 L 1416,626 L 1412,631 L 1399,631 L 1396,626 L 1390,625 L 1389,624 L 1397,615 L 1402,604 L 1402,600 L 1403,599 L 1403,589 L 1400,580 L 1401,577 L 1400,578 L 1398,574 L 1392,566 L 1393,565 L 1392,566 L 1383,559 L 1375,555 L 1368,554 L 1367,553 L 1355,553 L 1354,554 L 1350,554 L 1344,556 L 1332,564 L 1325,572 L 1322,570 L 1324,569 L 1321,570 L 1293,556 L 1286,554 L 1284,552 L 1284,520 L 1283,519 L 1284,513 L 1285,512 L 1342,512 L 1343,511 L 1440,511 L 1445,503 L 1446,505 L 1441,515 L 1441,528 L 1443,534 L 1447,541 L 1454,548 L 1462,553 L 1461,554 L 1457,554 L 1456,555 L 1450,556 L 1440,562 L 1431,571 L 1424,586 L 1424,603 L 1426,609 L 1432,619 L 1442,628 L 1440,629 L 1442,628 Z M 437,503 L 438,503 L 439,502 L 443,502 L 444,503 L 445,503 L 446,504 L 446,505 L 447,506 L 447,511 L 446,512 L 446,513 L 445,514 L 443,514 L 442,515 L 440,515 L 439,514 L 438,514 L 435,511 L 435,506 L 436,505 L 437,506 L 438,505 L 437,506 L 436,505 L 436,504 Z M 404,507 L 405,506 L 405,505 L 407,503 L 408,504 L 411,504 L 408,504 L 407,503 L 408,502 L 413,502 L 414,503 L 415,503 L 417,505 L 417,511 L 415,513 L 414,513 L 413,514 L 408,514 L 407,513 L 406,513 L 405,512 L 405,511 L 404,510 Z M 1259,501 L 1259,504 L 1258,505 L 1253,505 L 1252,506 L 1252,551 L 1250,553 L 1244,552 L 1243,553 L 1238,554 L 1235,556 L 1228,558 L 1221,562 L 1219,562 L 1212,566 L 1210,566 L 1203,570 L 1201,569 L 1198,569 L 1197,570 L 1184,558 L 1170,553 L 1156,553 L 1155,554 L 1152,554 L 1151,555 L 1146,556 L 1136,562 L 1127,572 L 1126,571 L 1125,572 L 1126,571 L 1127,573 L 1123,580 L 1123,582 L 1121,586 L 1121,602 L 1120,603 L 1116,601 L 1113,602 L 1112,604 L 1108,603 L 1099,596 L 1101,593 L 1101,591 L 1098,588 L 1091,584 L 1086,587 L 1073,577 L 1075,574 L 1075,572 L 1073,570 L 1065,565 L 1061,568 L 1053,562 L 1054,561 L 1053,562 L 1050,560 L 1051,559 L 1056,559 L 1057,558 L 1057,556 L 1060,554 L 1067,554 L 1068,556 L 1071,556 L 1072,555 L 1077,554 L 1076,552 L 1082,548 L 1085,550 L 1089,548 L 1091,546 L 1091,544 L 1090,543 L 1095,539 L 1096,540 L 1098,540 L 1103,535 L 1101,532 L 1106,525 L 1108,526 L 1110,524 L 1111,520 L 1109,517 L 1111,514 L 1111,512 L 1112,511 L 1115,511 L 1115,506 L 1117,502 L 1141,503 L 1142,504 L 1156,504 L 1157,505 L 1173,505 L 1174,506 L 1192,506 L 1193,507 L 1212,507 L 1213,508 L 1240,508 L 1241,509 L 1250,509 L 1250,505 L 1252,503 L 1256,503 L 1256,501 L 1257,500 Z M 1013,494 L 1014,495 L 1014,504 L 1015,505 L 1015,508 L 1016,509 L 1016,511 L 1018,511 L 1019,512 L 1018,513 L 1017,513 L 1016,514 L 1015,514 L 1014,513 L 1014,511 L 1013,510 L 1013,506 L 1012,505 L 1012,495 Z M 1098,492 L 1099,493 L 1099,505 L 1098,506 L 1098,510 L 1097,511 L 1095,511 L 1094,510 L 1093,510 L 1092,509 L 1093,508 L 1096,508 L 1092,508 L 1091,509 L 1090,509 L 1089,508 L 1088,508 L 1087,507 L 1088,506 L 1096,506 L 1096,504 L 1097,503 L 1097,493 Z M 1764,493 L 1764,504 L 1763,505 L 1762,505 L 1761,506 L 1759,506 L 1758,507 L 1757,507 L 1756,508 L 1755,508 L 1754,509 L 1753,509 L 1752,510 L 1751,510 L 1749,512 L 1748,512 L 1744,508 L 1743,508 L 1739,504 L 1739,503 L 1744,498 L 1745,498 L 1746,497 L 1747,497 L 1749,495 L 1751,495 L 1752,494 L 1753,494 L 1754,493 L 1756,493 L 1757,492 L 1760,492 L 1761,493 L 1760,492 L 1761,491 L 1762,491 Z M 1719,565 L 1716,570 L 1712,571 L 1711,572 L 1709,572 L 1708,573 L 1705,572 L 1707,573 L 1703,575 L 1695,566 L 1695,565 L 1694,565 L 1687,559 L 1681,556 L 1675,555 L 1674,554 L 1669,554 L 1668,553 L 1661,553 L 1660,554 L 1652,555 L 1651,556 L 1649,556 L 1643,559 L 1635,566 L 1634,566 L 1634,567 L 1629,572 L 1628,572 L 1617,566 L 1615,566 L 1595,556 L 1593,556 L 1590,554 L 1585,553 L 1584,552 L 1584,550 L 1582,548 L 1578,546 L 1570,538 L 1569,538 L 1567,536 L 1558,535 L 1554,531 L 1554,530 L 1550,525 L 1549,521 L 1547,518 L 1547,516 L 1549,514 L 1555,512 L 1556,510 L 1555,509 L 1555,505 L 1556,504 L 1558,505 L 1559,504 L 1571,504 L 1572,503 L 1582,503 L 1583,502 L 1590,502 L 1591,501 L 1598,501 L 1599,500 L 1606,500 L 1607,499 L 1614,499 L 1615,498 L 1622,498 L 1623,497 L 1631,497 L 1632,496 L 1646,495 L 1647,494 L 1653,494 L 1654,493 L 1660,493 L 1661,492 L 1669,492 L 1670,491 L 1672,491 L 1673,492 L 1678,492 L 1679,493 L 1695,493 L 1696,494 L 1705,494 L 1706,493 L 1718,493 L 1719,494 L 1718,496 L 1718,499 L 1719,501 L 1721,501 L 1722,502 L 1718,507 L 1714,515 L 1714,517 L 1712,521 L 1712,524 L 1711,525 L 1711,532 L 1710,533 L 1710,535 L 1711,536 L 1711,544 L 1712,545 L 1712,548 L 1713,549 L 1715,557 L 1717,560 L 1716,562 L 1717,561 Z M 1733,488 L 1734,489 L 1727,496 L 1726,495 L 1726,494 L 1732,488 Z M 1115,487 L 1116,488 L 1116,501 L 1115,502 L 1114,502 L 1112,500 L 1112,496 L 1113,495 L 1114,495 L 1114,488 Z M 1244,485 L 1245,486 L 1245,487 L 1246,488 L 1246,489 L 1247,490 L 1247,491 L 1253,497 L 1252,498 L 1251,498 L 1245,492 L 1245,491 L 1244,490 L 1244,489 L 1243,488 L 1243,486 Z M 417,487 L 416,488 L 414,488 L 413,489 L 410,489 L 409,490 L 407,490 L 406,491 L 404,491 L 403,492 L 402,492 L 401,493 L 400,493 L 399,494 L 398,494 L 397,495 L 396,494 L 396,493 L 398,491 L 399,491 L 400,490 L 401,490 L 402,489 L 403,489 L 404,488 L 406,488 L 407,487 L 409,487 L 410,486 L 414,486 L 415,485 Z M 1016,484 L 1018,486 L 1016,488 L 1016,490 L 1015,491 L 1015,494 L 1014,495 L 1013,494 L 1013,490 L 1014,489 L 1014,487 L 1015,486 L 1015,485 Z M 1087,478 L 1085,480 L 1084,480 L 1083,481 L 1082,481 L 1081,480 L 1080,480 L 1079,479 L 1080,478 L 1081,478 L 1083,476 L 1084,477 L 1086,477 Z M 1293,473 L 1294,474 L 1294,484 L 1293,485 L 1292,484 L 1292,474 Z M 1026,468 L 1027,468 L 1028,469 L 1028,471 L 1029,472 L 1029,473 L 1031,475 L 1029,477 L 1029,478 L 1030,478 L 1032,476 L 1034,476 L 1035,475 L 1035,473 L 1036,472 L 1037,473 L 1037,474 L 1038,475 L 1037,476 L 1037,478 L 1033,482 L 1032,482 L 1031,481 L 1030,481 L 1029,480 L 1026,480 L 1025,479 L 1024,479 L 1023,478 L 1022,478 L 1021,477 L 1022,476 L 1022,475 L 1022,476 L 1021,477 L 1020,476 L 1020,474 L 1022,472 L 1023,473 L 1024,473 L 1025,474 L 1026,474 L 1027,473 L 1026,473 L 1025,472 L 1024,473 L 1023,473 L 1022,472 L 1024,470 L 1025,470 L 1025,469 Z M 1246,466 L 1247,467 L 1247,468 L 1246,469 L 1246,470 L 1245,471 L 1245,474 L 1244,475 L 1244,485 L 1243,486 L 1242,485 L 1242,473 L 1243,472 L 1243,470 L 1244,469 L 1244,468 Z M 1843,466 L 1845,464 L 1848,467 L 1849,467 L 1866,484 L 1866,485 L 1868,487 L 1867,488 L 1866,488 L 1847,469 L 1846,469 Z M 1106,464 L 1110,468 L 1110,469 L 1111,470 L 1111,472 L 1112,473 L 1112,474 L 1113,475 L 1113,477 L 1112,478 L 1111,477 L 1111,476 L 1110,475 L 1110,474 L 1109,473 L 1109,472 L 1108,471 L 1108,470 L 1107,469 L 1107,468 L 1105,466 L 1105,465 Z M 1079,465 L 1080,464 L 1081,464 L 1091,474 L 1091,476 L 1090,477 L 1089,477 L 1088,478 L 1087,478 L 1086,477 L 1084,477 L 1083,476 L 1086,473 L 1084,471 L 1084,470 Z M 1666,464 L 1668,462 L 1669,463 L 1682,463 L 1683,464 L 1682,465 L 1667,465 Z M 1521,463 L 1521,462 L 1522,461 L 1540,461 L 1541,462 L 1540,463 L 1537,463 L 1538,463 L 1539,464 L 1538,465 L 1528,465 L 1527,464 L 1522,464 Z M 1062,461 L 1063,462 L 1063,470 L 1064,471 L 1063,472 L 1062,472 L 1061,471 L 1061,462 Z M 1283,461 L 1284,460 L 1288,460 L 1289,461 L 1290,461 L 1291,462 L 1290,463 L 1288,463 L 1288,464 L 1287,465 Z M 1727,461 L 1729,459 L 1745,459 L 1746,460 L 1746,461 L 1748,463 L 1748,467 L 1765,467 L 1766,466 L 1766,465 L 1770,461 L 1771,461 L 1772,462 L 1783,462 L 1784,463 L 1785,463 L 1787,465 L 1788,465 L 1789,466 L 1794,466 L 1795,467 L 1797,467 L 1798,468 L 1799,468 L 1800,469 L 1799,470 L 1798,470 L 1799,470 L 1800,469 L 1801,469 L 1802,470 L 1803,470 L 1804,471 L 1805,471 L 1806,472 L 1805,473 L 1802,473 L 1800,475 L 1799,475 L 1797,477 L 1796,477 L 1795,476 L 1794,476 L 1793,475 L 1791,475 L 1790,474 L 1788,474 L 1787,473 L 1785,473 L 1784,472 L 1782,472 L 1781,471 L 1782,470 L 1782,469 L 1780,467 L 1777,467 L 1776,466 L 1774,466 L 1773,465 L 1771,465 L 1770,464 L 1769,465 L 1769,466 L 1766,469 L 1741,469 L 1737,465 L 1736,465 L 1733,462 L 1729,462 L 1729,463 L 1728,464 L 1727,463 Z M 1242,459 L 1243,458 L 1252,458 L 1254,460 L 1252,462 L 1251,461 L 1251,460 L 1243,460 Z M 1004,458 L 1006,460 L 1006,461 L 1005,462 L 1005,463 L 1004,464 L 1004,465 L 1002,467 L 1002,468 L 1000,470 L 1000,471 L 998,473 L 998,474 L 997,475 L 996,474 L 993,474 L 992,473 L 991,474 L 991,475 L 990,476 L 990,477 L 989,478 L 989,480 L 988,481 L 988,484 L 987,485 L 987,486 L 988,487 L 989,487 L 990,488 L 991,488 L 992,489 L 992,491 L 991,492 L 991,499 L 990,500 L 989,499 L 989,496 L 988,495 L 988,491 L 985,488 L 985,483 L 986,482 L 986,479 L 987,478 L 987,475 L 988,474 L 988,473 L 989,472 L 989,471 L 990,470 L 991,470 L 992,471 L 994,471 L 995,472 L 996,471 L 996,470 L 997,469 L 997,468 L 999,466 L 999,463 L 996,460 L 996,459 L 997,458 L 999,460 L 1001,460 L 1002,459 L 1003,459 Z M 1682,465 L 1683,464 L 1686,464 L 1686,462 L 1687,461 L 1687,460 L 1688,459 L 1688,458 L 1689,457 L 1706,457 L 1708,459 L 1708,461 L 1709,462 L 1708,463 L 1708,464 L 1709,465 L 1726,465 L 1727,466 L 1726,467 L 1706,467 L 1705,466 L 1705,464 L 1704,463 L 1704,461 L 1703,460 L 1696,460 L 1695,459 L 1690,459 L 1690,460 L 1691,460 L 1692,461 L 1693,461 L 1692,461 L 1691,460 L 1692,459 L 1694,459 L 1695,460 L 1695,461 L 1696,462 L 1695,463 L 1691,463 L 1690,464 L 1689,464 L 1689,465 L 1688,466 L 1683,466 Z M 1641,462 L 1642,461 L 1645,461 L 1645,459 L 1646,458 L 1646,457 L 1648,455 L 1665,455 L 1666,456 L 1665,457 L 1661,457 L 1665,457 L 1666,456 L 1667,457 L 1667,458 L 1668,459 L 1668,462 L 1667,463 L 1666,462 L 1666,460 L 1665,460 L 1664,459 L 1661,459 L 1660,460 L 1660,461 L 1659,462 L 1653,462 L 1651,464 L 1645,464 L 1644,463 L 1642,463 Z M 1175,456 L 1176,455 L 1187,455 L 1188,456 L 1187,457 L 1176,457 Z M 215,455 L 217,455 L 218,456 L 218,458 L 219,459 L 219,460 L 220,461 L 220,463 L 219,464 L 218,463 L 218,462 L 217,461 L 217,460 L 216,459 L 216,458 L 214,456 Z M 1586,454 L 1588,452 L 1604,452 L 1605,453 L 1605,458 L 1613,458 L 1614,457 L 1615,457 L 1616,458 L 1616,459 L 1616,458 L 1615,457 L 1616,456 L 1616,455 L 1617,454 L 1627,454 L 1628,455 L 1627,456 L 1626,456 L 1624,458 L 1623,458 L 1623,461 L 1632,461 L 1633,462 L 1632,463 L 1615,463 L 1614,462 L 1615,461 L 1616,461 L 1615,461 L 1614,462 L 1599,462 L 1598,461 L 1597,461 L 1596,460 L 1596,459 L 1595,458 L 1595,457 L 1594,456 L 1593,456 L 1592,455 L 1587,455 Z M 1086,453 L 1087,452 L 1091,452 L 1092,453 L 1092,454 L 1100,462 L 1100,463 L 1099,464 L 1090,455 L 1089,455 L 1088,454 L 1087,454 Z M 1546,453 L 1549,450 L 1553,450 L 1554,451 L 1563,451 L 1564,452 L 1564,456 L 1565,457 L 1572,457 L 1573,458 L 1584,458 L 1584,457 L 1585,456 L 1585,455 L 1586,454 L 1587,455 L 1587,457 L 1586,458 L 1586,459 L 1585,460 L 1573,460 L 1573,463 L 1574,464 L 1574,465 L 1573,466 L 1572,466 L 1571,465 L 1560,465 L 1559,464 L 1559,463 L 1561,461 L 1562,461 L 1562,460 L 1560,460 L 1559,459 L 1559,455 L 1558,454 L 1558,453 L 1557,453 L 1556,454 L 1554,454 L 1553,453 L 1549,453 L 1547,455 L 1546,454 Z M 1509,454 L 1510,453 L 1510,452 L 1513,449 L 1526,449 L 1528,451 L 1528,455 L 1529,456 L 1542,456 L 1544,458 L 1543,459 L 1528,459 L 1527,458 L 1523,458 L 1521,456 L 1520,456 L 1519,455 L 1518,455 L 1516,453 L 1518,451 L 1524,451 L 1514,451 L 1512,453 L 1512,454 L 1510,456 L 1509,455 Z M 1477,453 L 1478,452 L 1478,450 L 1479,449 L 1479,448 L 1480,447 L 1487,447 L 1488,448 L 1493,448 L 1494,449 L 1494,451 L 1495,452 L 1495,455 L 1509,455 L 1510,456 L 1509,457 L 1490,457 L 1487,454 L 1487,452 L 1485,452 L 1484,451 L 1482,451 L 1479,454 L 1478,454 Z M 1429,453 L 1430,452 L 1442,452 L 1442,449 L 1443,448 L 1443,447 L 1444,446 L 1460,446 L 1462,448 L 1462,449 L 1463,450 L 1463,451 L 1465,453 L 1475,453 L 1477,455 L 1476,456 L 1474,456 L 1473,455 L 1463,455 L 1462,454 L 1461,454 L 1459,452 L 1460,451 L 1460,449 L 1458,449 L 1457,450 L 1454,450 L 1454,452 L 1453,453 L 1451,453 L 1449,455 L 1448,455 L 1447,454 L 1430,454 Z M 1398,451 L 1399,450 L 1408,450 L 1408,447 L 1409,446 L 1409,445 L 1410,444 L 1424,444 L 1426,446 L 1424,448 L 1422,448 L 1421,449 L 1419,449 L 1415,453 L 1407,453 L 1406,452 L 1399,452 Z M 1368,450 L 1368,449 L 1369,448 L 1370,449 L 1379,449 L 1380,448 L 1380,445 L 1382,443 L 1395,443 L 1397,445 L 1397,449 L 1396,450 L 1395,449 L 1395,447 L 1394,446 L 1393,447 L 1392,447 L 1393,448 L 1392,449 L 1388,449 L 1387,450 L 1386,450 L 1386,451 L 1385,452 L 1377,452 L 1376,451 L 1369,451 Z M 1290,443 L 1291,442 L 1299,442 L 1301,444 L 1301,445 L 1300,446 L 1298,444 L 1291,444 Z M 1342,448 L 1343,447 L 1347,447 L 1347,446 L 1348,445 L 1348,442 L 1349,441 L 1356,441 L 1357,442 L 1367,442 L 1368,443 L 1368,445 L 1369,446 L 1369,448 L 1368,449 L 1367,448 L 1367,447 L 1366,446 L 1365,446 L 1363,448 L 1362,448 L 1361,449 L 1354,449 L 1354,450 L 1353,451 L 1352,450 L 1344,450 Z M 1091,442 L 1092,441 L 1095,441 L 1096,442 L 1105,442 L 1106,443 L 1108,443 L 1109,444 L 1110,444 L 1113,447 L 1112,448 L 1096,448 L 1095,447 L 1093,447 L 1092,446 L 1092,443 Z M 1300,447 L 1300,446 L 1301,445 L 1302,446 L 1308,446 L 1309,445 L 1309,443 L 1310,442 L 1310,440 L 1311,439 L 1319,439 L 1320,440 L 1329,440 L 1330,441 L 1330,443 L 1329,444 L 1328,443 L 1324,443 L 1323,444 L 1323,446 L 1322,447 L 1317,447 L 1316,448 L 1314,448 L 1313,449 L 1308,449 L 1307,448 L 1301,448 Z M 1038,440 L 1037,441 L 1035,441 L 1034,442 L 1033,442 L 1032,443 L 1030,443 L 1029,444 L 1026,444 L 1024,446 L 1023,446 L 1022,447 L 1021,447 L 1020,448 L 1018,448 L 1017,447 L 1018,446 L 1018,445 L 1019,444 L 1019,442 L 1017,442 L 1013,446 L 1013,447 L 1012,448 L 1011,448 L 1010,449 L 1009,449 L 1008,450 L 1007,450 L 1004,453 L 1004,454 L 1003,455 L 1003,457 L 1004,458 L 1003,459 L 1000,459 L 998,457 L 998,456 L 1009,445 L 1010,445 L 1014,441 L 1015,441 L 1016,440 L 1017,440 L 1018,439 L 1021,439 L 1023,441 L 1024,441 L 1025,442 L 1028,442 L 1029,441 L 1031,441 L 1032,440 L 1033,440 L 1034,439 L 1037,439 Z M 1262,440 L 1264,438 L 1284,438 L 1285,439 L 1285,440 L 1286,441 L 1286,443 L 1287,444 L 1287,445 L 1288,446 L 1286,448 L 1278,448 L 1277,447 L 1276,447 L 1275,446 L 1275,442 L 1272,442 L 1271,441 L 1267,441 L 1266,440 L 1263,443 L 1262,442 Z M 1231,438 L 1232,437 L 1233,437 L 1234,436 L 1243,436 L 1244,437 L 1254,437 L 1255,438 L 1254,439 L 1254,440 L 1255,441 L 1254,442 L 1254,444 L 1261,444 L 1262,445 L 1261,446 L 1244,446 L 1242,444 L 1241,444 L 1240,443 L 1241,442 L 1240,441 L 1240,440 L 1239,439 L 1232,439 Z M 1195,437 L 1197,435 L 1211,435 L 1213,437 L 1213,441 L 1214,442 L 1227,442 L 1228,443 L 1229,442 L 1229,440 L 1231,438 L 1232,439 L 1232,442 L 1229,445 L 1224,445 L 1223,444 L 1209,444 L 1208,443 L 1205,443 L 1203,441 L 1202,441 L 1201,440 L 1201,438 L 1200,437 L 1198,437 L 1196,439 L 1195,438 Z M 1140,440 L 1141,439 L 1156,439 L 1157,438 L 1157,437 L 1159,435 L 1159,434 L 1160,433 L 1174,433 L 1175,434 L 1175,435 L 1176,436 L 1176,440 L 1182,440 L 1183,441 L 1194,441 L 1195,442 L 1194,443 L 1178,443 L 1177,442 L 1173,442 L 1171,440 L 1169,440 L 1168,439 L 1167,439 L 1166,438 L 1167,437 L 1172,437 L 1173,436 L 1172,435 L 1166,435 L 1165,436 L 1161,436 L 1161,438 L 1160,439 L 1160,441 L 1159,442 L 1156,442 L 1155,441 L 1152,441 L 1151,442 L 1150,442 L 1149,441 L 1148,442 L 1145,442 L 1144,441 L 1141,441 Z M 469,433 L 470,432 L 472,432 L 473,433 L 475,433 L 476,434 L 477,434 L 478,435 L 479,435 L 480,436 L 481,436 L 482,437 L 483,437 L 484,438 L 485,438 L 487,440 L 486,441 L 486,443 L 485,444 L 487,446 L 488,446 L 489,447 L 490,447 L 492,445 L 493,445 L 494,444 L 496,446 L 497,446 L 501,450 L 502,450 L 506,454 L 506,457 L 504,459 L 505,460 L 505,461 L 509,461 L 510,460 L 512,460 L 518,466 L 518,467 L 516,469 L 515,468 L 515,467 L 511,463 L 510,463 L 508,465 L 506,465 L 505,464 L 506,463 L 505,464 L 501,460 L 501,458 L 503,456 L 503,455 L 498,450 L 497,450 L 495,448 L 492,448 L 490,450 L 488,450 L 486,448 L 485,448 L 483,446 L 482,446 L 481,445 L 482,444 L 482,443 L 483,442 L 483,440 L 482,440 L 480,438 L 479,438 L 478,437 L 476,437 L 475,436 L 474,436 L 473,435 L 471,435 Z M 1112,432 L 1113,431 L 1125,431 L 1126,432 L 1137,432 L 1138,433 L 1138,435 L 1139,436 L 1138,437 L 1136,437 L 1136,440 L 1135,441 L 1127,441 L 1126,440 L 1126,439 L 1125,438 L 1125,435 L 1124,434 L 1120,434 L 1119,433 L 1113,433 Z M 1075,434 L 1076,433 L 1076,432 L 1078,430 L 1094,430 L 1095,431 L 1095,433 L 1096,434 L 1096,437 L 1109,437 L 1109,436 L 1111,434 L 1112,435 L 1112,437 L 1111,438 L 1111,439 L 1110,440 L 1094,440 L 1093,439 L 1091,439 L 1090,438 L 1090,433 L 1089,433 L 1088,432 L 1079,432 L 1078,433 L 1078,434 L 1076,436 L 1075,435 Z M 1027,435 L 1028,434 L 1031,434 L 1032,433 L 1033,433 L 1034,432 L 1037,432 L 1038,431 L 1041,431 L 1042,430 L 1049,430 L 1050,429 L 1065,429 L 1067,431 L 1067,432 L 1069,434 L 1070,434 L 1071,435 L 1073,435 L 1074,436 L 1075,436 L 1076,437 L 1075,438 L 1058,438 L 1057,437 L 1056,437 L 1055,436 L 1051,436 L 1049,434 L 1049,433 L 1050,432 L 1051,432 L 1052,431 L 1053,431 L 1051,431 L 1050,432 L 1046,432 L 1045,433 L 1044,433 L 1042,435 L 1042,437 L 1041,438 L 1041,439 L 1040,440 L 1038,440 L 1037,439 L 1038,438 L 1039,438 L 1037,438 L 1036,439 L 1035,438 L 1035,437 L 1031,437 L 1030,436 L 1028,436 Z M 490,359 L 492,357 L 494,357 L 495,358 L 497,358 L 501,360 L 504,360 L 505,361 L 507,361 L 508,362 L 510,362 L 511,363 L 519,365 L 526,369 L 528,369 L 548,379 L 550,381 L 554,383 L 557,386 L 564,390 L 572,397 L 573,397 L 582,406 L 583,406 L 600,424 L 600,425 L 605,430 L 605,431 L 610,436 L 610,437 L 613,440 L 613,441 L 617,445 L 617,446 L 620,449 L 620,450 L 635,469 L 637,473 L 641,477 L 641,478 L 645,482 L 645,483 L 649,487 L 649,488 L 658,497 L 658,498 L 669,508 L 668,509 L 666,509 L 659,503 L 659,502 L 650,493 L 650,492 L 645,487 L 645,486 L 633,472 L 631,468 L 628,465 L 628,464 L 625,461 L 625,460 L 621,456 L 619,452 L 615,448 L 615,447 L 612,444 L 612,443 L 609,440 L 609,439 L 599,428 L 599,427 L 583,410 L 582,410 L 567,396 L 566,396 L 563,393 L 562,393 L 559,390 L 558,390 L 553,386 L 550,385 L 543,380 L 532,375 L 530,373 L 528,373 L 523,370 L 521,370 L 518,368 L 513,367 L 510,365 L 508,365 L 507,364 L 505,364 L 501,362 L 498,362 L 494,360 L 491,360 Z M 316,354 L 317,353 L 318,354 L 318,355 L 319,354 L 322,354 L 322,353 L 320,353 L 319,352 L 320,351 L 323,351 L 324,352 L 324,354 L 325,355 L 327,355 L 328,356 L 328,361 L 327,362 L 326,361 L 325,361 L 324,360 L 323,360 L 322,359 L 323,358 L 325,358 L 326,357 L 325,358 L 323,358 L 322,359 L 320,359 L 319,358 L 318,358 L 317,357 L 316,357 L 315,356 L 316,355 Z M 1211,229 L 1223,229 L 1224,230 L 1224,233 L 1225,234 L 1225,249 L 1224,250 L 1211,250 L 1210,249 L 1210,243 L 1211,242 L 1221,242 L 1222,241 L 1222,237 L 1211,237 L 1210,236 L 1210,230 Z M 1403,228 L 1406,228 L 1407,227 L 1416,227 L 1417,228 L 1417,247 L 1418,248 L 1417,249 L 1403,249 L 1402,248 L 1402,241 L 1403,240 L 1404,241 L 1412,241 L 1413,240 L 1413,239 L 1414,238 L 1414,237 L 1413,236 L 1412,236 L 1411,235 L 1408,235 L 1407,236 L 1403,236 L 1402,235 L 1402,229 Z M 1614,226 L 1627,226 L 1628,227 L 1628,246 L 1627,247 L 1614,247 L 1613,246 L 1613,239 L 1614,238 L 1624,238 L 1625,237 L 1625,236 L 1623,234 L 1614,234 L 1613,233 L 1614,232 L 1618,232 L 1614,232 L 1613,231 L 1613,227 Z M 1825,224 L 1833,224 L 1834,225 L 1836,225 L 1837,224 L 1838,225 L 1838,245 L 1837,246 L 1824,246 L 1823,245 L 1824,244 L 1823,243 L 1823,238 L 1824,237 L 1834,237 L 1836,235 L 1836,234 L 1833,231 L 1824,231 L 1823,230 L 1823,226 Z M 826,215 L 827,216 L 827,248 L 826,249 L 812,249 L 811,248 L 812,247 L 812,246 L 813,245 L 813,243 L 814,242 L 814,241 L 815,240 L 815,239 L 816,238 L 816,237 L 817,236 L 817,235 L 818,234 L 819,235 L 819,236 L 820,235 L 822,235 L 822,234 L 821,233 L 821,232 L 820,233 L 819,232 L 819,230 L 820,229 L 820,228 L 821,227 L 821,225 L 822,224 L 822,223 L 823,222 L 823,221 L 824,220 L 824,219 L 825,218 L 825,216 Z M 1927,208 L 1928,208 L 1929,207 L 1944,207 L 1945,208 L 1945,228 L 1944,229 L 1929,229 L 1928,228 L 1928,227 L 1927,226 L 1927,218 L 1926,217 L 1927,216 L 1926,215 L 1926,209 Z M 832,201 L 836,194 L 836,192 L 837,191 L 838,188 L 839,187 L 840,188 L 839,187 L 839,186 L 840,185 L 841,186 L 840,185 L 840,184 L 841,183 L 932,183 L 933,184 L 933,185 L 934,186 L 934,187 L 935,188 L 935,189 L 936,190 L 936,191 L 937,192 L 937,193 L 938,194 L 938,195 L 939,196 L 939,197 L 940,198 L 940,199 L 941,200 L 941,201 L 942,202 L 942,203 L 943,204 L 943,205 L 947,212 L 947,213 L 946,214 L 941,214 L 941,222 L 942,223 L 946,223 L 947,224 L 952,224 L 953,225 L 953,227 L 956,232 L 956,234 L 957,235 L 957,236 L 956,237 L 956,238 L 954,240 L 954,241 L 952,243 L 951,246 L 949,248 L 948,247 L 949,248 L 948,249 L 833,249 L 832,248 Z M 1182,111 L 1185,111 L 1186,112 L 1186,119 L 1184,121 L 1182,121 L 1181,120 L 1181,118 L 1180,118 L 1179,117 L 1180,116 L 1181,116 L 1181,112 Z M 1347,99 L 1347,103 L 1348,104 L 1348,105 L 1349,106 L 1348,107 L 1335,107 L 1334,106 L 1334,105 L 1333,104 L 1333,101 L 1334,100 L 1342,100 L 1342,99 L 1343,98 L 1346,98 Z M 1333,85 L 1334,84 L 1335,84 L 1337,82 L 1348,82 L 1349,83 L 1347,85 L 1346,84 L 1341,84 L 1346,84 L 1347,85 L 1347,91 L 1346,92 L 1343,92 L 1342,91 L 1342,90 L 1341,89 L 1336,89 L 1335,88 L 1334,88 L 1333,87 Z" fill="black" fill-rule="evenodd"/>
</svg>