<svg xmlns="http://www.w3.org/2000/svg" width="2172" height="724" viewBox="0 0 2172 724">
<rect width="100%" height="100%" fill="white"/>
<path d="M 657,416 L 657,417 L 655,419 L 655,425 L 654,426 L 654,430 L 655,429 L 657,429 L 658,428 L 657,427 Z" fill="black" fill-rule="evenodd"/>
<path d="M 763,389 L 763,392 L 762,393 L 762,394 L 761,395 L 761,408 L 760,409 L 760,410 L 761,411 L 761,421 L 762,420 L 762,419 L 763,418 L 763,415 L 764,414 L 765,415 L 765,412 L 764,411 L 764,391 L 763,390 Z" fill="black" fill-rule="evenodd"/>
<path d="M 440,371 L 440,378 L 439,379 L 439,381 L 438,382 L 438,383 L 439,384 L 439,385 L 438,386 L 438,387 L 437,388 L 437,395 L 438,396 L 438,405 L 440,403 L 440,401 L 441,400 L 442,401 L 442,402 L 442,398 L 441,397 L 441,381 L 440,380 Z" fill="black" fill-rule="evenodd"/>
<path d="M 650,336 L 650,387 L 650,382 L 651,381 L 651,380 L 652,379 L 652,339 L 650,337 Z" fill="black" fill-rule="evenodd"/>
<path d="M 867,313 L 867,324 L 866,325 L 866,341 L 867,342 L 867,349 L 866,350 L 867,351 L 867,352 L 866,353 L 867,354 L 867,377 L 866,378 L 866,391 L 867,392 L 867,409 L 867,404 L 868,403 L 869,403 L 869,391 L 870,390 L 870,389 L 869,388 L 869,384 L 870,383 L 870,343 L 869,342 L 869,335 L 870,334 L 870,329 L 869,328 L 870,327 L 869,326 L 869,319 L 867,317 Z" fill="black" fill-rule="evenodd"/>
<path d="M 546,313 L 544,313 L 544,320 L 543,321 L 543,325 L 544,326 L 544,327 L 545,328 L 544,329 L 544,339 L 545,340 L 545,376 L 544,377 L 544,391 L 545,392 L 544,393 L 544,407 L 545,406 L 546,406 L 546,404 L 547,403 L 547,395 L 546,394 L 547,393 L 547,392 L 548,391 L 547,390 L 548,389 L 548,388 L 547,387 L 547,369 L 546,368 L 547,367 L 547,345 L 546,344 L 547,343 L 547,332 L 548,331 L 547,330 L 548,329 L 547,328 L 547,326 L 548,325 L 548,324 L 546,322 L 546,320 L 547,319 L 547,316 L 546,315 Z" fill="black" fill-rule="evenodd"/>
<path d="M 438,312 L 438,320 L 437,321 L 437,325 L 439,327 L 438,328 L 439,329 L 439,330 L 438,331 L 438,333 L 439,334 L 439,338 L 440,339 L 440,369 L 440,338 L 441,337 L 441,321 L 440,320 L 440,315 L 439,314 L 439,313 Z" fill="black" fill-rule="evenodd"/>
<path d="M 762,296 L 761,297 L 761,318 L 762,319 L 762,326 L 763,327 L 763,328 L 764,327 L 764,307 L 763,306 L 763,298 L 762,297 Z" fill="black" fill-rule="evenodd"/>
<path d="M 654,286 L 654,292 L 655,293 L 655,295 L 656,296 L 655,297 L 655,298 L 657,300 L 657,301 L 657,287 L 656,286 Z" fill="black" fill-rule="evenodd"/>
<path d="M 963,281 L 962,282 L 962,286 L 963,287 L 963,288 L 962,289 L 962,300 L 963,301 L 963,303 L 962,304 L 962,311 L 963,312 L 963,316 L 962,317 L 963,318 L 963,327 L 962,328 L 962,329 L 963,330 L 963,337 L 962,338 L 962,339 L 963,340 L 963,354 L 962,355 L 962,357 L 963,358 L 963,359 L 962,360 L 962,362 L 963,363 L 963,365 L 962,366 L 962,368 L 963,369 L 963,370 L 962,371 L 963,372 L 963,374 L 962,375 L 962,379 L 963,380 L 963,382 L 962,383 L 963,384 L 962,385 L 962,387 L 963,388 L 962,389 L 963,390 L 962,391 L 962,395 L 963,396 L 963,399 L 962,400 L 962,405 L 963,406 L 963,409 L 962,410 L 962,441 L 963,442 L 962,443 L 962,449 L 963,450 Z" fill="black" fill-rule="evenodd"/>
<path d="M 965,451 L 1045,451 L 1054,448 L 1606,448 L 1652,444 L 1722,430 L 1777,410 L 1847,369 L 1897,322 L 1798,319 L 1721,312 L 1541,280 L 1500,280 L 1493,294 L 1482,281 L 1475,281 L 1469,294 L 1462,290 L 1457,281 L 1450,281 L 1444,293 L 1442,288 L 1439,292 L 1432,281 L 1426,281 L 1419,294 L 1414,292 L 1417,288 L 1414,291 L 1408,281 L 1401,281 L 1394,294 L 1383,281 L 1377,281 L 1370,294 L 1359,281 L 1351,284 L 1347,294 L 1337,281 L 1330,283 L 1325,294 L 1314,281 L 1307,281 L 1301,294 L 1289,281 L 1283,281 L 1276,294 L 1271,292 L 1265,281 L 1258,281 L 1251,294 L 1246,292 L 1240,281 L 1233,281 L 1226,294 L 1214,281 L 1206,281 L 1200,294 L 1195,292 L 1189,281 L 1182,281 L 1175,294 L 1170,292 L 1164,281 L 1157,281 L 1147,294 L 1138,280 L 965,280 Z M 1165,339 L 1167,335 L 1171,331 L 1172,332 L 1171,331 L 1172,330 L 1174,331 L 1173,330 L 1177,328 L 1474,328 L 1477,330 L 1476,331 L 1478,330 L 1479,331 L 1478,332 L 1479,331 L 1481,332 L 1484,336 L 1485,345 L 1483,350 L 1478,355 L 1471,357 L 1178,357 L 1172,355 L 1167,350 L 1165,346 Z" fill="black" fill-rule="evenodd"/>
<path d="M 780,274 L 776,276 L 775,280 L 774,281 L 774,284 L 773,285 L 772,283 L 773,286 L 771,288 L 768,289 L 768,295 L 767,296 L 767,309 L 766,310 L 766,334 L 765,335 L 765,386 L 766,387 L 766,407 L 767,408 L 767,419 L 768,420 L 768,426 L 774,431 L 775,437 L 780,441 L 785,441 L 786,440 L 801,440 L 802,439 L 813,439 L 814,438 L 826,438 L 827,437 L 837,437 L 838,436 L 856,435 L 861,431 L 862,429 L 862,425 L 866,420 L 866,415 L 865,414 L 865,399 L 864,398 L 864,370 L 863,369 L 863,357 L 864,356 L 864,348 L 863,347 L 863,345 L 864,344 L 864,321 L 865,320 L 866,295 L 864,293 L 862,289 L 861,283 L 859,281 L 857,280 L 854,280 L 853,279 L 842,279 L 841,278 L 819,277 L 818,276 L 806,276 L 805,275 L 791,275 L 790,274 Z" fill="black" fill-rule="evenodd"/>
<path d="M 536,274 L 504,275 L 503,276 L 490,276 L 489,277 L 478,277 L 477,278 L 466,278 L 465,279 L 458,279 L 456,280 L 453,284 L 452,292 L 448,296 L 446,296 L 446,301 L 445,302 L 445,311 L 444,312 L 444,322 L 443,323 L 443,342 L 442,343 L 442,377 L 443,378 L 443,395 L 444,396 L 444,405 L 445,406 L 445,415 L 446,416 L 446,419 L 447,419 L 452,424 L 452,426 L 453,427 L 453,431 L 457,435 L 459,435 L 460,436 L 470,436 L 471,437 L 482,437 L 483,438 L 494,438 L 495,439 L 509,439 L 510,440 L 528,440 L 529,441 L 534,441 L 539,438 L 540,433 L 542,429 L 545,426 L 544,425 L 543,411 L 542,410 L 542,398 L 541,397 L 541,380 L 540,379 L 540,336 L 541,335 L 541,318 L 542,317 L 542,307 L 543,306 L 543,298 L 544,297 L 544,292 L 545,291 L 545,289 L 542,286 L 541,282 L 540,281 L 540,279 Z" fill="black" fill-rule="evenodd"/>
<path d="M 672,270 L 667,274 L 667,279 L 666,280 L 666,282 L 663,285 L 660,286 L 660,294 L 659,295 L 659,309 L 658,310 L 658,331 L 657,332 L 657,389 L 658,390 L 658,408 L 659,409 L 659,421 L 660,422 L 660,429 L 663,430 L 666,433 L 666,435 L 667,436 L 667,440 L 668,442 L 672,445 L 701,445 L 702,444 L 749,443 L 753,441 L 755,439 L 755,437 L 756,436 L 756,432 L 760,427 L 759,425 L 759,418 L 758,417 L 757,393 L 756,392 L 756,327 L 757,326 L 757,312 L 758,311 L 758,302 L 759,301 L 759,292 L 760,291 L 760,288 L 756,284 L 755,276 L 750,272 L 734,272 L 733,271 L 710,271 L 709,270 Z" fill="black" fill-rule="evenodd"/>
<path d="M 565,272 L 561,275 L 560,277 L 560,281 L 559,282 L 559,284 L 557,286 L 556,285 L 557,286 L 554,289 L 553,289 L 553,293 L 552,294 L 552,303 L 551,304 L 551,315 L 550,316 L 550,335 L 549,336 L 549,380 L 550,381 L 550,401 L 551,402 L 551,413 L 552,414 L 552,422 L 553,423 L 553,426 L 559,431 L 559,434 L 560,435 L 560,438 L 561,440 L 567,443 L 591,443 L 592,444 L 642,445 L 647,441 L 647,439 L 648,438 L 649,440 L 648,438 L 648,435 L 652,430 L 652,427 L 651,426 L 651,419 L 650,418 L 650,408 L 649,407 L 649,390 L 648,389 L 648,330 L 649,329 L 649,312 L 650,311 L 650,300 L 651,299 L 652,285 L 650,283 L 648,279 L 648,276 L 646,272 L 643,270 L 604,270 L 603,271 L 580,271 L 579,272 Z" fill="black" fill-rule="evenodd"/>
<path d="M 294,264 L 289,270 L 281,289 L 281,292 L 278,301 L 278,305 L 277,306 L 277,312 L 276,313 L 276,319 L 275,320 L 275,332 L 274,333 L 274,377 L 275,378 L 275,391 L 276,392 L 277,405 L 278,406 L 278,411 L 279,412 L 281,424 L 284,433 L 286,436 L 286,438 L 290,445 L 297,452 L 304,455 L 312,456 L 324,452 L 330,446 L 334,440 L 338,440 L 352,433 L 364,432 L 365,431 L 371,431 L 372,432 L 398,431 L 399,432 L 423,432 L 424,433 L 428,433 L 432,431 L 436,422 L 439,419 L 437,414 L 436,400 L 435,399 L 435,390 L 434,389 L 434,328 L 435,327 L 435,318 L 436,317 L 437,302 L 439,296 L 436,293 L 434,289 L 434,286 L 430,282 L 415,282 L 414,283 L 358,283 L 357,282 L 353,282 L 344,278 L 339,274 L 334,274 L 327,264 L 321,260 L 315,259 L 314,258 L 303,259 Z" fill="black" fill-rule="evenodd"/>
<path d="M 945,193 L 942,194 L 937,200 L 937,271 L 927,278 L 914,283 L 908,283 L 907,284 L 885,283 L 881,287 L 881,291 L 874,297 L 873,402 L 874,403 L 874,418 L 880,423 L 881,428 L 886,432 L 892,432 L 893,431 L 915,432 L 926,436 L 937,444 L 937,519 L 939,523 L 942,525 L 950,526 L 954,524 L 958,518 L 958,201 L 957,198 L 954,195 L 950,193 Z" fill="black" fill-rule="evenodd"/>
</svg>