<?xml version="1.0" encoding="UTF-8" standalone="no"?>
<svg
   width="800"
   height="250"
   viewBox="0 0 800 250"
   version="1.1"
   id="svg17"
   sodipodi:docname="m3_knife_black.svg"
   inkscape:version="1.4.2 (f4327f4, 2025-05-13)"
   xmlns:inkscape="http://www.inkscape.org/namespaces/inkscape"
   xmlns:sodipodi="http://sodipodi.sourceforge.net/DTD/sodipodi-0.dtd"
   xmlns="http://www.w3.org/2000/svg"
   xmlns:svg="http://www.w3.org/2000/svg">
  <defs
     id="defs17" />
  <sodipodi:namedview
     id="namedview17"
     pagecolor="#ffffff"
     bordercolor="#000000"
     borderopacity="0.25"
     inkscape:showpageshadow="2"
     inkscape:pageopacity="0.0"
     inkscape:pagecheckerboard="0"
     inkscape:deskcolor="#d1d1d1"
     inkscape:zoom="1.1123389"
     inkscape:cx="480.06954"
     inkscape:cy="226.99917"
     inkscape:window-width="2560"
     inkscape:window-height="1377"
     inkscape:window-x="-8"
     inkscape:window-y="-8"
     inkscape:window-maximized="1"
     inkscape:current-layer="svg17" />
  <path
     d="m 204.94254,148.23104 v 0.46754 l -0.93507,0.93508 v 2.80526 l -0.46755,0.46754 v 1.87016 l 0.46755,-0.46754 h 0.93507 l 0.46754,-0.46754 -0.46754,-0.46755 z"
     fill="#000000"
     fill-rule="evenodd"
     id="path1"
     style="stroke-width:0.467542" />
  <path
     d="m 254.50193,135.60742 v 1.40263 l -0.46753,0.46754 v 0.46753 l -0.46755,0.46755 v 6.07805 l -0.46754,0.46752 v 0.46755 l 0.46754,0.46755 v 4.6754 l 0.46755,-0.46753 v -0.46755 l 0.46753,-0.46753 v -1.40263 l 0.46755,-0.46753 0.46754,0.46753 v -1.40263 l -0.46754,-0.46753 v -9.35084 l -0.46755,-0.46754 z"
     fill="#000000"
     fill-rule="evenodd"
     id="path2"
     style="stroke-width:0.467542" />
  <path
     d="m 103.48605,127.19168 v 3.27279 l -0.46754,0.46753 v 0.93509 l -0.46754,0.46754 v 0.46755 l 0.46754,0.46752 v 0.46756 l -0.46754,0.46754 v 0.46753 l -0.46754,0.46755 v 3.27279 l 0.46754,0.46754 v 4.20788 l 0.93508,-0.93508 v -0.93509 l 0.46755,-0.46754 0.46753,0.46754 v 0.46754 -1.87016 l -0.46753,-0.46755 v -7.48066 l -0.46755,-0.46754 z"
     fill="#000000"
     fill-rule="evenodd"
     id="path3"
     style="stroke-width:0.467542" />
  <path
     d="m 201.66975,110.82772 v 23.84461 -2.3377 l 0.46754,-0.46754 v -0.46754 l 0.46755,-0.46755 v -18.70166 l -0.93509,-0.93507 z"
     fill="#000000"
     fill-rule="evenodd"
     id="path4"
     style="stroke-width:0.467542" />
  <path
     d="m 303.12624,100.07428 v 5.14294 l -0.46753,0.46755 v 7.48066 l 0.46753,0.46754 v 3.2728 l -0.46753,0.46754 0.46753,0.46753 v 0.46755 l -0.46753,0.46755 0.46753,0.46752 v 10.75347 l -0.46753,0.46754 v 6.07803 l 0.46753,0.46755 v 7.94819 -2.3377 l 0.46754,-0.46753 h 0.46756 v -5.61051 l 0.46752,-0.46754 v -0.46754 l -0.46752,-0.46754 v -1.87018 l 0.46752,-0.46752 v -18.70166 l -0.46752,-0.46755 v -3.27279 l 0.46752,-0.46753 v -2.33773 l -0.46752,-0.46752 0.46752,-0.46755 -0.46752,-0.46754 v -3.27278 l -0.9351,-0.9351 z"
     fill="#000000"
     fill-rule="evenodd"
     id="path5"
     style="stroke-width:0.467542" />
  <path
     d="m 153.04544,100.07428 h -0.93508 v 3.27278 l -0.46754,0.46754 v 1.87017 l 0.46754,0.46754 v 0.46754 l 0.46754,0.46755 -0.46754,0.46752 v 4.67542 l 0.46754,0.46755 v 16.83149 l -0.46754,0.46755 v 6.54557 l 0.46754,0.46755 -0.46754,0.46754 v 6.54558 l 0.46754,-0.46755 h 0.46754 v -0.93508 l 0.46754,-0.46753 v -3.74034 l -0.46754,-0.46755 0.46754,-0.46753 v -0.46754 l 0.46755,-0.46755 -0.46755,-0.46754 0.46755,-0.46754 v -0.46754 l -0.46755,-0.46755 v -8.41575 l -0.46754,-0.46752 0.46754,-0.46755 V 115.0356 l -0.46754,-0.46755 0.46754,-0.46753 v -5.14297 l 0.46755,-0.46753 -0.46755,-0.46754 0.46755,-0.46756 -0.46755,-0.46752 v -0.93509 l 0.46755,-0.46754 v -0.46755 l -0.93509,-0.93507 v -0.93509 l 0.46754,-0.46753 v -1.40263 l -0.46754,-0.46754 z"
     fill="#000000"
     fill-rule="evenodd"
     id="path6"
     style="stroke-width:0.467542" />
  <path
     d="m 102.55097,99.606734 v 3.740326 l -0.46754,0.46754 v 1.87017 l 0.93508,0.93508 -0.46754,0.46755 0.46754,0.46752 v 0.46756 l -0.46754,0.46754 v 0.93509 l 0.46754,0.46754 v 1.87016 l 0.46754,0.46753 v 14.02624 -14.49377 l 0.46755,-0.46754 v -7.48067 l -0.46755,-0.46754 v -2.3377 l -0.46754,-0.46756 v -0.46752 z"
     fill="#000000"
     fill-rule="evenodd"
     id="path7"
     style="stroke-width:0.467542" />
  <path
     d="m 254.0344,92.126062 -0.46755,0.467553 v 9.818365 l 0.46755,0.46755 v 3.27278 l 0.46753,0.46754 v 0.46755 l 0.46755,-0.46755 v -9.350826 l -0.46755,-0.46754 v -3.740335 l -0.46753,-0.467534 z"
     fill="#000000"
     fill-rule="evenodd"
     id="path8"
     style="stroke-width:0.467542" />
  <path
     d="m 203.53992,87.450652 v 2.805241 l 0.46755,0.467554 v 0.935073 l 0.46753,0.467542 -0.46753,0.467553 v 0.467534 l 0.93507,0.935092 v 0.467533 -6.54558 L 204.475,87.450652 Z"
     fill="#000000"
     fill-rule="evenodd"
     id="path9"
     style="stroke-width:0.467542" />
  <path
     d="m 348.01022,85.112942 -0.46754,0.467542 v 1.870168 l 0.46754,0.467542 v 0.467531 l -0.46754,0.467553 v 5.142963 l 0.46754,0.467533 v 0.935089 l -0.46754,0.467533 v 3.272798 l 0.46754,0.46754 v 1.870166 l -0.46754,0.46753 0.46754,0.46755 v 4.20787 l -0.46754,0.46755 v 0.46752 l 0.46754,0.46756 v 3.27279 l -0.46754,0.46754 v 0.46753 l 0.46754,0.46755 v 6.54557 l -0.46754,0.46756 v 0.93507 l 0.46754,0.46755 v 0.46755 l -0.46754,0.46753 v 0.93508 l 0.46754,0.46755 v 0.93508 l -0.46754,0.46754 v 0.93509 l 0.46754,0.46752 v 0.46756 l -0.46754,0.46754 0.46754,0.46753 v 0.9351 l -0.46754,0.46753 v 1.87016 l 0.46754,0.46755 v 0.93508 l -0.46754,0.46755 0.46754,0.46752 -0.46754,0.46756 v 0.93507 l 0.46754,0.46755 -0.46754,0.46754 0.46754,0.46754 -0.46754,0.46754 v 1.87017 l 0.46754,0.46754 v 1.40262 l -0.46754,0.46755 v 2.33771 l 0.46754,0.46753 v 1.40262 l -0.46754,0.46755 v 14.49379 l 0.46754,0.46753 -0.46754,0.46755 v 2.80524 l 0.46754,0.46755 z"
     fill="#000000"
     fill-rule="evenodd"
     id="path10"
     style="stroke-width:0.467542" />
  <path
     d="m 348.9453,164.59499 h 37.40332 l 4.20788,-1.40262 h 258.08287 l 21.50692,-1.87017 32.7279,-6.54558 25.71474,-9.35083 32.72792,-19.16921 23.37712,-21.97443 -46.28668,-1.40262 L 702.40663,99.606734 618.24917,84.6454 h -19.16919 l -3.27279,6.545577 -5.14296,-6.078035 h -3.27279 l -2.80524,6.078035 -3.27279,-1.870157 -2.3377,-4.207878 h -3.2728 l -2.80525,5.610505 -0.93508,-2.337722 -1.40263,1.870168 -3.27278,-5.142951 h -2.80525 l -3.2728,6.078035 -2.3377,-0.935084 1.40263,-1.870168 -1.40263,1.402626 -2.80525,-4.675409 h -3.27279 l -3.2728,6.078035 -5.14295,-6.078035 h -2.80524 l -3.2728,6.078035 -5.14295,-6.078035 -3.74033,1.402626 -1.87017,4.675409 -4.67541,-6.078035 -3.2728,0.935084 -2.3377,5.142951 -5.14296,-6.078035 h -3.27278 l -2.80525,6.078035 -5.61051,-6.078035 h -2.80525 l -3.27278,6.078035 -2.33771,-0.935084 -2.80526,-5.142951 h -3.27278 l -3.27278,6.078035 -2.33771,-0.935084 -2.80526,-5.142951 h -3.27278 l -3.27279,6.078035 -5.6105,-6.078035 h -3.74033 l -2.80525,6.078035 -2.33772,-0.935084 -2.80523,-5.142951 h -3.2728 l -3.27279,6.078035 -2.33771,-0.935084 -2.80524,-5.142951 h -3.27279 l -4.67542,6.078035 -4.20787,-6.545577 H 348.9453 Z m 93.50829,-52.36465 0.93509,-1.87016 1.87017,-1.87016 0.46754,0.46753 -0.46754,-0.46753 0.46754,-0.46754 0.93509,0.46754 -0.46756,-0.46754 1.87017,-0.93508 H 586.9239 l 1.40263,0.93508 -0.46755,0.46754 0.93509,-0.46754 0.46754,0.46754 -0.46754,0.46753 0.46754,-0.46753 0.93508,0.46753 1.40263,1.87017 0.46753,4.20788 -0.93507,2.33771 -2.33771,2.33771 -3.2728,0.93507 H 448.53164 l -2.80525,-0.93507 -2.33771,-2.33771 -0.93509,-1.87017 z"
     fill="#000000"
     fill-rule="evenodd"
     id="path11"
     style="stroke-width:0.467542" />
  <path
     d="m 262.45015,81.840159 -1.87018,0.935073 -0.46754,1.870168 -0.46753,0.467542 v 1.402626 l -0.46755,0.467531 -0.46755,-0.935073 0.46755,1.402626 -0.93508,0.935073 -1.40263,0.467553 v 2.805242 l -0.46754,0.467542 v 6.078042 l -0.46754,0.46755 v 11.220996 l -0.46754,0.46753 v 23.84462 l 0.46754,0.46753 v 9.35084 l 0.46754,0.46755 v 5.14294 l 0.46754,0.46755 v 2.80525 l 2.80526,2.3377 0.46753,2.80525 2.33772,1.87017 h 2.3377 l 0.46754,-0.46754 h 7.01312 l 0.46754,-0.46756 h 5.14295 l 0.46756,-0.46752 h 5.61049 l 0.46753,-0.46755 H 289.1 l 0.46754,-0.46754 8.41575,-0.46754 2.33771,-1.87017 0.46754,-0.93508 v -1.87016 l 1.87017,-2.33771 v -2.33771 l -0.46754,-0.46753 v -7.01314 l -0.46755,-0.46753 v -13.09116 l -0.46754,-0.46756 v -5.61049 l 0.46754,-0.46753 v -3.74033 l -0.46754,-0.46755 v -0.93508 l 0.46754,-0.46755 V 103.8146 l 0.46755,-0.46754 0.46754,-11.68854 -0.93509,-0.935073 -0.93508,-1.870169 -0.46754,-2.805252 -0.93508,-0.935084 -0.93509,-0.467542 h -1.40261 l -0.46756,-0.467542 h -5.14295 l -0.46754,-0.467531 -10.28591,-0.467553 -0.46755,-0.467542 h -5.61049 l -0.46754,-0.467531 h -6.54558 l -0.46754,-0.467542 z"
     fill="#000000"
     fill-rule="evenodd"
     id="path12"
     style="stroke-width:0.467542" />
  <path
     d="m 148.37002,81.840159 -14.96131,0.467542 -0.46755,0.467531 h -6.07804 l -0.46754,0.467542 h -5.14296 l -0.46754,0.467553 h -5.14296 l -0.46753,0.467531 h -3.27279 l -0.93508,0.467542 -1.40262,1.870168 -0.46756,3.740325 -1.87016,1.870169 h -0.93507 v 2.337712 l -0.46756,0.467544 v 4.207876 l -0.46753,0.46754 v 4.675416 l -0.46754,0.46754 v 8.88328 l -0.46755,0.46755 v 15.89641 l 0.46755,0.46754 v 7.9482 l 0.46754,0.46754 v 4.20788 l 0.46753,0.46753 v 4.20788 l 0.46756,0.46754 v 1.40262 h 0.46753 l 2.3377,2.3377 v 0.9351 l 0.46756,0.46753 v 1.87017 l 1.87015,1.87017 h 0.93509 l 0.46754,0.46754 h 4.67541 l 0.46756,0.46754 h 5.14294 l 0.46755,0.46755 h 5.14295 l 0.46754,0.46752 h 6.54558 l 0.46754,0.46756 h 8.41575 l 0.46754,0.46754 h 2.33771 l 2.3377,-1.40262 0.46754,-2.33771 0.93508,-1.87017 1.40263,-1.40262 -0.46754,-0.46754 -0.46754,-6.54558 -0.46755,-0.46755 v -5.61049 l -0.46752,-0.46755 v -7.9482 l -0.46756,-0.46755 v -20.10428 l 0.46756,-0.46754 v -7.9482 l 0.46752,-0.46755 v -4.675406 l 0.46755,-0.46754 v -3.740335 l 0.46754,-0.467534 v -2.337722 l 0.46754,-0.467542 v -0.935073 l -1.40263,-1.402626 -0.46752,-1.870168 -0.46756,-0.467542 v -0.935084 z"
     fill="#000000"
     fill-rule="evenodd"
     id="path13"
     style="stroke-width:0.467542" />
  <path
     d="m 211.95566,79.969979 -2.3377,1.87018 v 2.337699 l -0.46754,0.467542 v 0.935084 l -1.40263,1.402615 -1.40262,0.467553 v 3.740325 l -0.46754,0.467543 v 6.545584 l -0.46755,0.46755 v 9.818366 l -0.46754,0.46753 v 26.64987 l 0.46754,0.46754 v 8.41576 l 0.46755,0.46752 v 5.6105 l 0.46754,0.46755 v 3.27279 l 1.40262,0.46754 1.40263,1.40263 v 0.93508 l 0.46754,0.46754 v 1.87017 l 0.46753,0.93507 1.87017,1.40263 h 13.55871 l 0.46753,-0.46754 21.97446,-0.46754 1.87016,-0.93508 0.93509,-0.9351 v -0.93507 l 0.46754,-0.46754 v -1.87017 l 1.87016,-2.33771 -0.46753,-0.93507 v -3.27279 l -0.46755,-0.46755 -0.46755,-11.22099 -0.46753,-0.46754 v -30.3902 l 0.46753,-0.46754 v -6.545576 l 0.46755,-0.46754 v -4.207876 l 0.46755,-0.467544 v -4.207881 l 0.46753,-0.467542 v -1.402626 l -1.87016,-1.870157 -0.46754,-3.740336 -2.33771,-1.870157 h -7.48066 l -0.46755,-0.467542 h -10.75345 l -0.46754,-0.467554 z"
     fill="#000000"
     fill-rule="evenodd"
     id="path14"
     style="stroke-width:0.467542" />
  <path
     d="m 161.92873,80.905075 -1.87017,1.402626 -0.46753,0.935073 v 1.870168 l -0.46755,0.467542 v 0.935084 l -0.93508,0.935084 -0.46754,-0.467553 0.46754,0.467553 -1.40262,1.402626 h -0.46754 v 1.870169 l -0.46755,0.46753 v 4.207886 l -0.46754,0.467533 v 5.142964 l -0.46754,0.46754 v 8.88328 l -0.46754,0.46754 v 20.57183 l 0.46754,0.46754 v 9.35083 l 0.46754,0.46754 v 5.14296 l 0.46754,0.46755 v 3.74032 l 0.46755,0.46755 v 1.40262 l 2.80524,2.3377 v 1.40262 l 0.46755,0.46755 v 1.40263 l 0.46753,0.93508 2.80525,1.40262 h 11.22099 l 0.46754,0.46754 23.37708,0.46754 2.3377,-1.87016 v -0.9351 l 0.46756,-0.46752 0.46754,0.93508 -0.46754,-0.93508 v -1.40263 l 1.87016,-2.33771 v -1.40263 l -0.46755,-0.46753 v -3.2728 l -0.46754,-0.46753 v -4.67541 l -0.46753,-0.46755 v -7.94821 l -0.46754,-0.46754 v -27.58494 l 0.46754,-0.46756 v -7.948186 l 0.46753,-0.46754 v -5.142953 l 0.46754,-0.467555 0.46755,-6.545587 -0.93509,-0.935073 -0.93507,-1.870168 v -1.402626 l -0.93509,-1.870157 -1.40262,-0.935096 h -18.23412 l -0.46754,0.467554 h -10.75346 l -0.46754,0.467542 z"
     fill="#000000"
     fill-rule="evenodd"
     id="path15"
     style="stroke-width:0.467542" />
  <path
     d="m 35.224998,77.164738 -2.337704,2.805241 -3.74033,8.883299 v 1.402615 l -1.402626,4.207881 v 1.870166 l -0.467539,0.467544 v 2.80525 l -0.467539,0.467546 v 2.80525 l -0.467548,0.46753 v 5.61049 l -0.467539,0.46756 v 20.57182 l 0.467539,0.46754 v 6.07803 l 0.467548,0.46755 0.467539,6.07804 0.467539,0.46753 v 2.33772 l 0.467539,0.46753 0.935087,5.61049 1.402626,4.20789 0.935078,1.40262 v 0.93509 l 1.870165,3.27278 3.272791,3.27279 3.272791,1.40263 3.74033,0.46754 5.610504,-1.87017 2.805243,-2.80525 1.870165,-2.80524 h 1.870164 l 6.545582,-3.27279 5.610496,-0.46755 0.467548,-0.46754 h 2.805243 l 0.467548,0.46754 12.15607,-0.46754 0.467544,0.46754 h 11.220985 l 0.467555,0.46755 h 1.870166 l 1.870155,-0.93509 1.870177,-4.20787 1.40262,-1.40263 -0.93508,-2.33769 -0.46754,-6.54559 -0.46754,-0.46755 v -4.20787 l -0.46755,-0.46754 V 107.0874 l 0.46755,-0.46755 v -4.20787 l 0.46754,-0.46755 0.46754,-7.013112 0.93508,-2.805256 -1.40262,-1.402615 -0.93509,-1.870169 v -1.402626 l -1.870164,-1.870168 h -7.01312 l -0.467544,0.467542 H 65.147656 L 64.680117,85.580484 H 62.809943 L 58.602074,83.710327 56.26437,81.840159 h -2.337713 l -3.272792,-4.675421 -2.805242,-1.870162 -2.805252,-0.467549 -0.467539,-0.467539 -5.142956,0.467539 z"
     fill="#000000"
     fill-rule="evenodd"
     id="path16"
     style="stroke-width:0.467542" />
  <path
     d="m 339.59447,43.969291 -1.40261,0.467549 -2.33772,2.805242 v 33.195451 l -4.67541,3.272794 -6.07803,2.337699 h -2.80526 l -0.46754,0.467542 -10.28592,-0.467542 -1.87015,1.870168 v 1.870157 l -3.27279,2.805264 -0.46755,49.091845 0.46755,0.46755 v 7.01312 l 2.80525,2.33771 0.46754,2.3377 2.3377,1.87016 h 2.80525 l 0.46754,-0.46754 10.28591,0.46754 5.14296,1.87017 5.14295,3.74033 v 35.0656 l 0.9351,1.87018 1.40262,0.93508 3.74032,0.46754 1.87018,-0.93509 1.87016,-2.80523 V 47.709631 l -0.46754,-1.402626 -1.40262,-1.402626 -1.87018,-0.935088 z"
     fill="#000000"
     fill-rule="evenodd"
     id="path17"
     style="stroke-width:0.467542" />
</svg>
