<svg xmlns="http://www.w3.org/2000/svg" width="2172" height="724" viewBox="0 0 2172 724">
<rect width="100%" height="100%" fill="white"/>
<path d="M 867,374 L 867,380 L 901,391 L 910,390 L 918,380 L 941,383 L 1086,434 L 1169,451 L 1546,582 L 1561,597 L 1581,604 L 1602,602 L 1623,585 L 1638,558 L 1650,518 L 1649,489 L 1640,476 L 1625,467 L 1606,462 L 1585,465 L 1205,342 L 1131,307 L 964,251 L 964,242 L 960,236 L 924,223 L 920,224 L 906,258 Z" fill="black" fill-rule="evenodd"/>
<path d="M 638,95 L 619,113 L 611,124 L 595,153 L 594,152 L 595,155 L 587,171 L 574,207 L 565,241 L 561,267 L 561,297 L 563,307 L 569,317 L 568,318 L 823,402 L 823,409 L 828,415 L 841,419 L 847,417 L 851,413 L 855,401 L 857,401 L 856,398 L 863,381 L 861,380 L 866,357 L 893,276 L 914,223 L 921,217 L 929,191 L 928,181 L 923,176 L 910,172 L 905,174 L 900,180 L 651,93 L 643,93 Z" fill="black" fill-rule="evenodd"/>
</svg>