<svg xmlns="http://www.w3.org/2000/svg" width="2172" height="724" viewBox="0 0 2172 724">
<rect width="100%" height="100%" fill="white"/>
<path d="M 384,525 L 407,581 L 585,658 L 1559,658 L 1610,647 L 1715,583 L 1746,523 L 1745,495 L 1784,501 L 1784,459 L 1745,447 L 1745,429 L 1775,413 L 1750,334 L 1697,324 L 1690,305 L 1669,303 L 1663,317 L 1617,310 L 1613,288 L 1584,284 L 1560,301 L 1495,292 L 1490,276 L 1454,271 L 1442,282 L 1398,268 L 1389,279 L 1342,267 L 1284,275 L 1273,262 L 1334,235 L 1343,186 L 1368,182 L 1369,163 L 1343,160 L 1314,130 L 1262,120 L 1251,64 L 1232,114 L 1183,90 L 1080,90 L 1070,72 L 1112,56 L 994,57 L 1048,72 L 1028,100 L 961,96 L 952,72 L 950,96 L 870,126 L 863,94 L 840,90 L 841,133 L 781,182 L 775,164 L 710,187 L 537,175 L 538,237 L 710,224 L 776,247 L 781,228 L 797,262 L 786,274 L 656,281 L 554,358 L 540,331 L 523,329 L 512,343 L 516,389 L 399,439 L 416,460 L 454,445 L 1572,449 L 1708,476 L 1562,453 L 537,460 L 453,449 L 404,474 Z M 619,637 L 618,638 L 618,639 L 617,640 L 608,640 L 607,639 L 608,638 L 612,638 L 613,637 L 615,637 L 616,638 L 615,637 L 616,636 L 618,636 Z M 574,638 L 576,636 L 578,636 L 579,637 L 578,638 L 577,638 L 578,638 L 579,637 L 580,637 L 581,638 L 586,638 L 587,639 L 586,640 L 576,640 Z M 1289,636 L 1290,635 L 1291,636 L 1293,636 L 1294,637 L 1293,638 L 1292,638 L 1293,638 L 1294,637 L 1296,637 L 1297,638 L 1300,638 L 1301,639 L 1300,640 L 1291,640 L 1290,639 L 1290,638 L 1289,637 Z M 1185,636 L 1185,637 L 1184,638 L 1184,639 L 1183,640 L 1171,640 L 1170,639 L 1171,638 L 1176,638 L 1177,637 L 1179,637 L 1180,638 L 1182,638 L 1180,638 L 1179,637 L 1180,636 L 1182,636 L 1183,635 L 1184,635 Z M 1057,636 L 1056,637 L 1056,638 L 1054,640 L 1044,640 L 1043,639 L 1044,638 L 1048,638 L 1049,637 L 1051,637 L 1052,638 L 1053,638 L 1052,638 L 1051,637 L 1052,636 L 1054,636 L 1055,635 L 1056,635 Z M 1005,638 L 1006,637 L 1007,638 L 1009,638 L 1007,638 L 1006,637 L 1007,636 L 1009,636 L 1010,635 L 1012,635 L 1013,636 L 1014,636 L 1015,637 L 1017,637 L 1018,638 L 1023,638 L 1024,639 L 1023,640 L 1006,640 L 1005,639 Z M 773,636 L 772,637 L 772,638 L 770,640 L 760,640 L 759,639 L 760,638 L 764,638 L 765,637 L 767,637 L 768,636 L 770,636 L 771,635 L 772,635 Z M 1463,635 L 1463,638 L 1461,640 L 1457,640 L 1456,641 L 1451,641 L 1450,640 L 1449,640 L 1448,639 L 1449,638 L 1452,638 L 1453,637 L 1456,637 L 1457,638 L 1460,638 L 1461,637 L 1460,637 L 1459,636 L 1460,635 L 1461,635 L 1462,634 Z M 857,635 L 858,634 L 859,635 L 860,635 L 861,636 L 863,636 L 864,637 L 866,637 L 867,638 L 871,638 L 872,639 L 871,640 L 870,640 L 869,641 L 864,641 L 863,640 L 859,640 L 858,639 L 858,638 L 857,637 Z M 723,635 L 724,634 L 725,634 L 726,635 L 727,635 L 728,636 L 730,636 L 731,637 L 733,637 L 734,638 L 737,638 L 738,639 L 737,640 L 729,640 L 728,641 L 727,640 L 725,640 L 723,638 Z M 1340,633 L 1340,638 L 1338,640 L 1323,640 L 1322,639 L 1323,638 L 1326,638 L 1327,637 L 1329,637 L 1330,636 L 1332,636 L 1333,635 L 1334,635 L 1335,634 L 1337,634 L 1338,635 L 1338,636 L 1338,635 L 1337,634 L 1339,632 Z M 1133,633 L 1134,632 L 1135,633 L 1136,633 L 1137,634 L 1138,634 L 1139,635 L 1141,635 L 1142,636 L 1143,636 L 1144,637 L 1143,638 L 1141,638 L 1140,637 L 1140,638 L 1143,638 L 1144,637 L 1146,637 L 1147,638 L 1152,638 L 1153,639 L 1152,640 L 1135,640 L 1134,639 L 1134,635 L 1133,634 Z M 1545,631 L 1546,630 L 1548,632 L 1547,633 L 1548,632 L 1549,632 L 1550,633 L 1551,633 L 1552,634 L 1553,634 L 1554,635 L 1556,635 L 1557,636 L 1559,636 L 1560,637 L 1561,637 L 1563,639 L 1562,640 L 1560,640 L 1559,641 L 1558,640 L 1548,640 L 1547,641 L 1546,640 L 1546,637 L 1545,636 Z M 916,630 L 916,631 L 915,632 L 915,637 L 914,638 L 914,639 L 913,640 L 898,640 L 896,638 L 897,637 L 899,637 L 900,636 L 902,636 L 903,635 L 905,635 L 906,634 L 907,634 L 908,633 L 909,633 L 910,634 L 913,634 L 910,634 L 909,633 L 910,632 L 911,632 L 913,630 L 914,630 L 915,629 Z M 1403,628 L 1404,627 L 1405,628 L 1405,629 L 1406,629 L 1407,630 L 1408,630 L 1410,632 L 1409,633 L 1408,633 L 1407,632 L 1406,632 L 1406,634 L 1407,633 L 1409,633 L 1410,632 L 1411,632 L 1412,633 L 1413,633 L 1414,634 L 1415,634 L 1416,635 L 1417,635 L 1418,636 L 1419,636 L 1420,637 L 1419,638 L 1420,637 L 1422,637 L 1423,638 L 1427,638 L 1428,639 L 1427,640 L 1406,640 L 1404,638 L 1404,632 L 1403,631 Z M 555,623 L 556,622 L 560,626 L 559,627 L 558,627 L 558,628 L 560,626 L 562,628 L 563,628 L 565,630 L 566,630 L 567,631 L 566,632 L 566,633 L 565,634 L 563,634 L 562,635 L 560,635 L 559,634 L 557,634 L 556,633 L 555,633 L 554,632 L 553,632 L 552,631 L 552,630 L 553,629 L 553,626 L 555,624 Z M 1455,617 L 1455,618 L 1454,619 L 1453,619 L 1452,620 L 1449,620 L 1448,621 L 1445,621 L 1444,622 L 1442,622 L 1441,621 L 1441,620 L 1442,619 L 1446,619 L 1447,618 L 1449,618 L 1450,617 L 1452,617 L 1453,616 L 1454,616 Z M 1593,616 L 1593,617 L 1592,618 L 1591,618 L 1590,619 L 1589,619 L 1588,620 L 1585,620 L 1584,621 L 1580,621 L 1579,622 L 1573,622 L 1572,621 L 1567,621 L 1566,620 L 1564,620 L 1563,619 L 1561,619 L 1560,618 L 1562,616 L 1563,616 L 1564,617 L 1566,617 L 1567,618 L 1570,618 L 1571,619 L 1582,619 L 1583,618 L 1585,618 L 1586,617 L 1587,617 L 1588,616 L 1590,616 L 1591,615 L 1592,615 Z M 1291,616 L 1292,615 L 1294,615 L 1295,616 L 1296,616 L 1297,617 L 1298,617 L 1299,618 L 1301,618 L 1302,619 L 1306,619 L 1307,620 L 1315,620 L 1316,619 L 1320,619 L 1321,618 L 1323,618 L 1324,617 L 1326,617 L 1327,616 L 1328,616 L 1329,615 L 1330,616 L 1330,617 L 1329,618 L 1328,618 L 1327,619 L 1326,619 L 1325,620 L 1323,620 L 1322,621 L 1318,621 L 1317,622 L 1305,622 L 1304,621 L 1301,621 L 1300,620 L 1298,620 L 1297,619 L 1295,619 L 1294,618 L 1293,618 Z M 616,616 L 614,618 L 613,618 L 612,619 L 610,619 L 609,620 L 607,620 L 606,621 L 602,621 L 601,622 L 600,621 L 600,620 L 601,619 L 605,619 L 606,618 L 608,618 L 609,617 L 610,617 L 611,616 L 612,616 L 613,615 L 615,615 Z M 1623,614 L 1624,615 L 1624,616 L 1625,617 L 1625,618 L 1624,619 L 1623,619 L 1622,620 L 1621,620 L 1619,622 L 1618,622 L 1617,621 L 1620,618 L 1620,617 Z M 1418,615 L 1419,614 L 1422,614 L 1423,615 L 1424,615 L 1425,616 L 1426,616 L 1427,617 L 1429,617 L 1430,618 L 1432,618 L 1433,619 L 1436,619 L 1437,620 L 1435,622 L 1434,622 L 1433,621 L 1429,621 L 1428,620 L 1425,620 L 1424,619 L 1423,619 L 1422,618 L 1421,618 L 1420,617 L 1421,616 L 1420,617 L 1419,617 L 1418,616 Z M 1141,616 L 1143,614 L 1144,614 L 1145,615 L 1146,615 L 1147,616 L 1148,616 L 1149,617 L 1151,617 L 1152,618 L 1154,618 L 1155,619 L 1158,619 L 1159,620 L 1164,620 L 1165,619 L 1169,619 L 1170,618 L 1172,618 L 1173,617 L 1175,617 L 1176,616 L 1177,616 L 1178,615 L 1181,615 L 1182,616 L 1181,617 L 1180,617 L 1179,618 L 1178,618 L 1177,619 L 1175,619 L 1174,620 L 1172,620 L 1171,621 L 1167,621 L 1166,622 L 1156,622 L 1155,621 L 1152,621 L 1151,620 L 1149,620 L 1148,619 L 1146,619 L 1145,618 L 1144,618 L 1143,617 L 1142,617 Z M 1013,616 L 1015,614 L 1016,615 L 1017,615 L 1019,617 L 1021,617 L 1022,618 L 1024,618 L 1025,619 L 1029,619 L 1030,620 L 1037,620 L 1038,619 L 1042,619 L 1043,618 L 1045,618 L 1046,617 L 1048,617 L 1049,618 L 1048,619 L 1047,619 L 1046,620 L 1044,620 L 1043,621 L 1039,621 L 1038,622 L 1028,622 L 1027,621 L 1023,621 L 1022,620 L 1020,620 L 1019,619 L 1017,619 L 1016,618 L 1015,618 Z M 901,616 L 899,618 L 898,618 L 897,619 L 895,619 L 894,620 L 892,620 L 891,621 L 888,621 L 887,622 L 886,621 L 885,621 L 884,622 L 879,622 L 878,621 L 872,621 L 871,620 L 869,620 L 868,619 L 866,619 L 865,618 L 864,618 L 862,616 L 863,615 L 866,615 L 867,616 L 868,616 L 869,617 L 871,617 L 872,618 L 875,618 L 876,619 L 888,619 L 889,618 L 891,618 L 892,617 L 894,617 L 895,616 L 896,616 L 897,615 L 898,615 L 899,614 Z M 728,616 L 730,614 L 731,614 L 733,616 L 734,616 L 735,617 L 737,617 L 738,618 L 741,618 L 742,619 L 745,619 L 746,620 L 752,620 L 753,619 L 756,619 L 757,618 L 759,618 L 760,617 L 762,617 L 763,616 L 764,616 L 765,615 L 766,615 L 768,617 L 767,618 L 766,618 L 765,619 L 763,619 L 762,620 L 760,620 L 759,621 L 755,621 L 754,622 L 743,622 L 742,621 L 739,621 L 738,620 L 736,620 L 735,619 L 733,619 L 732,618 L 731,618 L 730,617 L 729,617 Z M 577,615 L 578,614 L 579,614 L 580,615 L 581,615 L 582,616 L 583,616 L 584,617 L 585,617 L 586,618 L 589,618 L 590,619 L 593,619 L 594,620 L 594,621 L 593,622 L 592,622 L 591,621 L 587,621 L 586,620 L 584,620 L 583,619 L 581,619 L 580,618 L 579,618 L 577,616 Z M 1471,630 L 1472,629 L 1473,629 L 1484,618 L 1484,617 L 1487,614 L 1487,613 L 1488,612 L 1488,611 L 1489,610 L 1489,609 L 1490,608 L 1490,607 L 1491,606 L 1491,605 L 1492,604 L 1492,602 L 1493,601 L 1493,599 L 1494,598 L 1494,594 L 1495,593 L 1495,591 L 1496,590 L 1521,590 L 1522,591 L 1522,594 L 1523,595 L 1523,598 L 1524,599 L 1524,602 L 1525,603 L 1525,604 L 1526,605 L 1526,607 L 1527,608 L 1527,609 L 1528,610 L 1528,611 L 1529,612 L 1529,613 L 1531,615 L 1531,616 L 1533,618 L 1533,619 L 1540,626 L 1539,627 L 1539,629 L 1538,630 L 1538,633 L 1537,634 L 1537,636 L 1536,637 L 1536,638 L 1535,639 L 1534,639 L 1533,640 L 1531,640 L 1530,639 L 1530,638 L 1529,637 L 1529,632 L 1528,631 L 1528,627 L 1527,627 L 1526,626 L 1525,626 L 1524,627 L 1521,627 L 1521,629 L 1520,630 L 1520,632 L 1519,633 L 1519,636 L 1518,637 L 1518,639 L 1517,640 L 1504,640 L 1503,639 L 1503,637 L 1502,636 L 1502,630 L 1501,629 L 1501,627 L 1500,626 L 1496,626 L 1495,627 L 1494,627 L 1494,630 L 1493,631 L 1493,636 L 1492,637 L 1492,638 L 1491,639 L 1490,638 L 1487,638 L 1490,638 L 1491,639 L 1490,640 L 1474,640 L 1473,639 L 1474,638 L 1477,638 L 1474,638 L 1473,639 L 1472,638 L 1472,633 L 1471,632 Z M 1193,631 L 1196,628 L 1197,628 L 1197,627 L 1198,626 L 1199,626 L 1205,620 L 1206,621 L 1205,620 L 1205,619 L 1208,616 L 1209,613 L 1211,611 L 1211,610 L 1213,607 L 1213,605 L 1214,604 L 1214,602 L 1215,601 L 1215,599 L 1216,598 L 1216,595 L 1217,594 L 1217,591 L 1218,590 L 1255,590 L 1257,592 L 1257,595 L 1258,596 L 1258,599 L 1259,600 L 1259,603 L 1260,604 L 1260,605 L 1262,608 L 1262,610 L 1263,611 L 1263,612 L 1265,614 L 1265,615 L 1267,617 L 1267,618 L 1270,621 L 1270,622 L 1274,626 L 1275,626 L 1279,630 L 1280,630 L 1281,631 L 1280,632 L 1280,637 L 1278,640 L 1264,640 L 1263,639 L 1263,636 L 1262,635 L 1262,627 L 1261,626 L 1256,626 L 1255,627 L 1255,629 L 1254,630 L 1254,633 L 1253,634 L 1253,637 L 1251,640 L 1238,640 L 1237,639 L 1237,631 L 1236,630 L 1236,627 L 1235,626 L 1230,626 L 1229,627 L 1229,629 L 1228,630 L 1228,633 L 1227,634 L 1227,637 L 1225,640 L 1216,640 L 1215,639 L 1215,634 L 1214,633 L 1214,627 L 1213,626 L 1209,626 L 1208,627 L 1208,633 L 1207,634 L 1207,637 L 1206,638 L 1207,639 L 1206,640 L 1195,640 L 1194,639 L 1194,635 L 1193,634 Z M 920,625 L 927,618 L 927,617 L 929,615 L 929,614 L 931,612 L 931,611 L 933,608 L 933,606 L 935,603 L 935,601 L 936,600 L 936,597 L 937,596 L 937,592 L 938,591 L 940,591 L 941,590 L 975,590 L 976,591 L 975,592 L 974,592 L 975,592 L 976,591 L 978,591 L 979,592 L 979,595 L 980,596 L 980,600 L 981,601 L 981,603 L 982,604 L 982,606 L 983,607 L 983,608 L 984,609 L 984,610 L 986,613 L 986,614 L 985,615 L 986,614 L 988,616 L 988,617 L 992,621 L 992,622 L 995,625 L 996,625 L 997,626 L 996,627 L 996,632 L 995,633 L 995,637 L 994,638 L 993,637 L 992,638 L 993,637 L 994,638 L 994,639 L 993,640 L 981,640 L 980,639 L 981,638 L 985,638 L 981,638 L 980,639 L 979,638 L 979,637 L 978,636 L 978,631 L 977,630 L 977,626 L 972,626 L 970,628 L 970,631 L 969,632 L 969,637 L 967,640 L 953,640 L 952,639 L 952,635 L 951,634 L 951,629 L 949,626 L 944,626 L 944,628 L 943,629 L 943,632 L 942,633 L 942,638 L 940,640 L 926,640 L 924,638 L 924,631 L 923,630 L 923,627 L 922,627 Z M 627,631 L 629,629 L 630,629 L 633,626 L 634,626 L 639,621 L 639,620 L 643,616 L 643,615 L 644,614 L 645,615 L 646,614 L 645,615 L 644,614 L 644,613 L 646,611 L 646,610 L 647,609 L 647,607 L 649,604 L 649,602 L 650,601 L 650,598 L 651,597 L 651,594 L 653,591 L 655,591 L 656,590 L 691,590 L 692,591 L 694,591 L 695,592 L 695,596 L 696,597 L 696,601 L 697,602 L 697,604 L 698,605 L 698,606 L 699,607 L 699,608 L 700,609 L 700,610 L 701,611 L 702,614 L 704,616 L 704,617 L 707,620 L 707,621 L 712,626 L 713,626 L 715,628 L 715,634 L 714,635 L 714,637 L 712,640 L 698,640 L 696,638 L 696,631 L 695,630 L 695,627 L 694,626 L 689,626 L 688,627 L 688,629 L 687,630 L 687,636 L 686,637 L 686,638 L 684,640 L 673,640 L 672,641 L 669,638 L 669,635 L 668,634 L 668,628 L 667,627 L 667,626 L 663,626 L 662,627 L 662,629 L 660,632 L 660,637 L 658,640 L 654,640 L 651,638 L 651,634 L 650,633 L 650,627 L 649,627 L 648,626 L 646,626 L 645,627 L 644,627 L 644,630 L 643,631 L 643,633 L 642,634 L 642,638 L 640,640 L 629,640 L 628,639 L 628,634 L 627,633 Z M 1684,582 L 1683,583 L 1682,583 L 1680,585 L 1679,585 L 1678,584 L 1675,584 L 1675,585 L 1676,585 L 1677,586 L 1676,587 L 1675,587 L 1674,588 L 1669,583 L 1670,582 L 1679,582 L 1680,581 L 1683,581 Z M 1435,580 L 1436,580 L 1437,581 L 1435,583 L 1435,587 L 1437,589 L 1440,589 L 1441,590 L 1440,591 L 1436,591 L 1432,587 L 1432,583 Z M 594,580 L 599,580 L 600,581 L 599,582 L 595,582 L 593,584 L 593,587 L 595,589 L 598,589 L 599,590 L 598,591 L 594,591 L 591,588 L 591,587 L 590,586 L 590,584 L 591,583 L 591,582 L 592,581 L 593,581 Z M 1613,579 L 1614,580 L 1614,590 L 1613,591 L 1612,590 L 1612,580 Z M 1581,581 L 1581,582 L 1580,583 L 1579,583 L 1578,582 L 1575,582 L 1573,584 L 1573,587 L 1572,588 L 1571,587 L 1571,583 L 1572,582 L 1572,581 L 1573,580 L 1575,580 L 1576,579 L 1578,579 L 1579,580 L 1580,580 Z M 1308,580 L 1309,580 L 1310,579 L 1314,579 L 1318,583 L 1318,587 L 1317,588 L 1317,589 L 1316,590 L 1315,590 L 1314,591 L 1309,591 L 1306,588 L 1306,583 L 1307,582 L 1307,581 Z M 1030,581 L 1031,580 L 1032,580 L 1033,579 L 1035,579 L 1036,580 L 1037,580 L 1039,582 L 1039,583 L 1038,584 L 1036,582 L 1034,582 L 1036,582 L 1037,583 L 1036,584 L 1033,584 L 1032,583 L 1032,582 L 1031,582 Z M 560,579 L 561,580 L 561,591 L 562,592 L 562,594 L 563,595 L 563,599 L 562,600 L 561,599 L 561,597 L 560,596 L 560,594 L 559,593 L 559,580 Z M 465,574 L 469,574 L 471,576 L 471,577 L 472,578 L 472,579 L 471,580 L 470,579 L 469,579 L 470,580 L 471,580 L 472,579 L 474,581 L 474,582 L 475,583 L 475,584 L 477,586 L 479,586 L 480,587 L 476,591 L 476,592 L 473,595 L 472,594 L 471,594 L 470,593 L 468,593 L 466,591 L 465,591 L 464,590 L 465,589 L 464,590 L 462,590 L 460,588 L 461,587 L 461,585 L 462,584 L 462,582 L 463,581 L 463,580 L 464,579 L 464,575 Z M 432,574 L 433,573 L 434,573 L 437,570 L 438,570 L 439,569 L 440,569 L 441,568 L 442,568 L 443,569 L 444,569 L 445,570 L 446,570 L 447,571 L 447,574 L 448,575 L 448,582 L 447,583 L 446,582 L 444,582 L 443,581 L 442,581 L 441,580 L 442,579 L 444,579 L 442,579 L 441,578 L 442,579 L 441,580 L 440,580 L 439,579 L 437,579 L 436,578 L 437,577 L 438,577 L 437,577 L 436,578 Z M 1628,563 L 1635,570 L 1634,571 L 1633,571 L 1632,572 L 1634,572 L 1634,571 L 1635,570 L 1636,571 L 1637,571 L 1639,573 L 1640,573 L 1642,575 L 1643,575 L 1644,576 L 1645,576 L 1646,577 L 1647,577 L 1648,578 L 1649,578 L 1650,579 L 1652,579 L 1653,580 L 1655,580 L 1656,581 L 1659,581 L 1660,582 L 1660,585 L 1661,586 L 1661,587 L 1662,588 L 1662,589 L 1661,590 L 1660,589 L 1661,590 L 1661,591 L 1661,590 L 1662,589 L 1663,590 L 1663,592 L 1662,593 L 1663,592 L 1664,593 L 1664,594 L 1663,595 L 1662,595 L 1661,596 L 1660,596 L 1658,598 L 1657,598 L 1656,599 L 1654,599 L 1652,597 L 1653,596 L 1652,597 L 1647,592 L 1647,591 L 1646,590 L 1644,590 L 1643,591 L 1642,591 L 1641,592 L 1640,592 L 1640,594 L 1641,595 L 1641,596 L 1642,597 L 1642,599 L 1643,600 L 1643,601 L 1644,602 L 1644,604 L 1645,605 L 1643,607 L 1642,607 L 1640,609 L 1639,609 L 1638,610 L 1637,610 L 1635,612 L 1634,612 L 1630,608 L 1630,607 L 1628,605 L 1628,601 L 1629,600 L 1629,597 L 1630,596 L 1630,590 L 1631,589 L 1631,579 L 1630,578 L 1630,573 L 1629,572 L 1629,570 L 1628,569 L 1628,566 L 1627,565 L 1627,564 Z M 415,555 L 416,555 L 417,554 L 424,554 L 428,558 L 428,564 L 427,565 L 427,567 L 426,568 L 426,569 L 425,570 L 419,564 L 418,564 L 416,562 L 416,561 L 413,558 L 413,557 Z M 1654,560 L 1656,558 L 1656,557 L 1658,555 L 1658,554 L 1660,552 L 1660,551 L 1662,549 L 1666,549 L 1667,550 L 1672,550 L 1673,549 L 1674,550 L 1674,551 L 1675,552 L 1675,553 L 1676,554 L 1676,555 L 1677,556 L 1677,558 L 1678,559 L 1678,560 L 1679,561 L 1679,562 L 1680,563 L 1679,564 L 1676,564 L 1675,565 L 1662,565 L 1661,564 L 1658,564 L 1657,563 L 1656,563 L 1654,561 Z M 1556,535 L 1555,536 L 1554,536 L 1553,537 L 1552,537 L 1551,538 L 1550,538 L 1548,540 L 1547,540 L 1545,542 L 1544,542 L 1543,541 L 1544,540 L 1544,537 L 1545,536 L 1548,536 L 1549,535 L 1552,535 L 1553,534 L 1555,534 Z M 1010,536 L 1009,537 L 1008,537 L 1007,538 L 1006,538 L 1004,540 L 1003,540 L 1002,541 L 1001,541 L 998,544 L 997,544 L 992,549 L 991,548 L 992,549 L 991,550 L 991,551 L 989,553 L 988,552 L 988,551 L 989,550 L 989,547 L 990,546 L 990,542 L 991,541 L 991,538 L 993,536 L 997,536 L 998,535 L 1001,535 L 1002,534 L 1007,534 L 1008,535 L 1009,535 Z M 1631,534 L 1632,533 L 1638,533 L 1639,534 L 1638,535 L 1636,535 L 1637,536 L 1638,536 L 1640,534 L 1642,534 L 1643,535 L 1643,540 L 1642,541 L 1641,541 L 1640,542 L 1638,540 L 1637,540 L 1636,541 L 1639,541 L 1640,542 L 1636,546 L 1635,545 L 1635,544 L 1634,543 L 1634,542 L 1633,541 L 1633,540 L 1632,539 L 1632,537 L 1631,536 Z M 1456,533 L 1457,532 L 1460,532 L 1461,533 L 1464,533 L 1465,534 L 1468,534 L 1469,535 L 1471,535 L 1472,536 L 1476,536 L 1477,537 L 1477,538 L 1478,539 L 1478,543 L 1477,544 L 1476,544 L 1473,541 L 1472,541 L 1470,539 L 1471,538 L 1472,538 L 1471,538 L 1470,539 L 1469,539 L 1468,538 L 1467,538 L 1466,537 L 1465,537 L 1464,536 L 1463,536 L 1462,535 L 1460,535 L 1459,534 L 1457,534 Z M 1007,534 L 1008,533 L 1012,533 L 1013,532 L 1017,532 L 1018,533 L 1017,534 L 1014,534 L 1013,535 L 1012,535 L 1011,536 L 1010,536 L 1009,535 L 1008,535 Z M 895,532 L 896,531 L 899,531 L 900,532 L 903,532 L 904,533 L 908,533 L 909,534 L 913,534 L 914,535 L 916,535 L 917,536 L 923,536 L 924,537 L 924,540 L 925,541 L 925,545 L 926,546 L 926,549 L 925,550 L 917,542 L 918,541 L 919,541 L 918,541 L 917,542 L 916,541 L 915,541 L 914,540 L 913,540 L 912,539 L 911,539 L 910,538 L 909,538 L 908,537 L 907,537 L 906,536 L 905,536 L 904,535 L 903,535 L 902,534 L 899,534 L 898,533 L 896,533 Z M 738,532 L 737,533 L 734,533 L 733,534 L 731,534 L 730,535 L 728,535 L 727,536 L 726,536 L 725,535 L 723,535 L 725,535 L 726,536 L 725,537 L 724,537 L 722,539 L 721,539 L 720,540 L 719,540 L 716,543 L 715,543 L 706,552 L 706,553 L 704,555 L 703,554 L 703,550 L 704,549 L 704,546 L 705,545 L 705,542 L 706,541 L 706,538 L 708,536 L 711,536 L 712,535 L 715,535 L 716,534 L 720,534 L 721,533 L 727,533 L 728,532 L 732,532 L 733,531 L 737,531 Z M 1441,530 L 1442,529 L 1449,529 L 1450,530 L 1453,530 L 1454,531 L 1456,531 L 1457,532 L 1456,533 L 1453,533 L 1452,532 L 1448,532 L 1447,531 L 1442,531 Z M 1168,530 L 1169,529 L 1171,529 L 1172,530 L 1176,530 L 1177,531 L 1179,531 L 1180,532 L 1183,532 L 1184,533 L 1188,533 L 1189,534 L 1192,534 L 1193,535 L 1197,535 L 1198,536 L 1202,536 L 1203,537 L 1203,540 L 1204,541 L 1204,545 L 1205,546 L 1205,548 L 1204,549 L 1203,548 L 1203,547 L 1202,546 L 1201,546 L 1196,541 L 1195,541 L 1194,540 L 1193,540 L 1191,538 L 1190,538 L 1189,537 L 1188,537 L 1187,536 L 1186,536 L 1185,535 L 1183,535 L 1182,534 L 1179,534 L 1178,533 L 1175,533 L 1174,532 L 1171,532 L 1170,531 L 1169,531 Z M 1029,530 L 1028,531 L 1026,531 L 1025,532 L 1022,532 L 1021,533 L 1018,533 L 1017,532 L 1018,531 L 1020,531 L 1021,530 L 1024,530 L 1025,529 L 1028,529 Z M 603,530 L 604,529 L 607,529 L 608,530 L 612,530 L 613,531 L 616,531 L 617,532 L 619,532 L 620,533 L 624,533 L 625,534 L 628,534 L 629,535 L 633,535 L 634,536 L 638,536 L 639,537 L 639,540 L 640,541 L 640,545 L 641,546 L 641,548 L 640,549 L 636,545 L 635,545 L 631,541 L 630,541 L 629,540 L 628,540 L 626,538 L 625,538 L 624,537 L 623,537 L 622,536 L 620,536 L 619,535 L 618,535 L 617,534 L 614,534 L 613,533 L 610,533 L 609,532 L 606,532 L 605,531 L 604,531 Z M 405,526 L 406,527 L 408,527 L 409,528 L 410,528 L 411,529 L 412,529 L 414,531 L 414,532 L 415,533 L 415,536 L 416,537 L 416,539 L 414,541 L 414,542 L 409,547 L 408,546 L 408,545 L 407,544 L 407,542 L 406,541 L 406,539 L 405,538 L 405,536 L 404,535 L 404,534 L 403,533 L 404,532 L 404,527 Z M 1734,511 L 1735,512 L 1735,514 L 1736,515 L 1736,516 L 1737,517 L 1737,519 L 1738,520 L 1738,521 L 1737,522 L 1736,521 L 1733,521 L 1732,520 L 1732,518 L 1731,517 L 1733,515 L 1733,512 Z M 1700,503 L 1702,505 L 1702,506 L 1704,508 L 1704,509 L 1705,510 L 1705,511 L 1706,512 L 1706,514 L 1707,515 L 1707,517 L 1708,518 L 1708,522 L 1707,523 L 1694,523 L 1693,522 L 1692,523 L 1691,522 L 1691,520 L 1690,519 L 1690,518 L 1689,517 L 1689,515 L 1690,514 L 1690,513 Z M 410,499 L 413,502 L 413,503 L 415,505 L 415,509 L 414,510 L 414,512 L 412,514 L 411,514 L 409,516 L 407,516 L 406,517 L 405,517 L 404,516 L 404,514 L 405,513 L 405,509 L 406,508 L 406,507 L 407,506 L 407,503 L 409,501 L 409,500 Z M 1664,489 L 1665,490 L 1665,493 L 1666,494 L 1666,501 L 1667,502 L 1667,504 L 1666,505 L 1666,506 L 1664,508 L 1662,508 L 1661,509 L 1660,509 L 1659,508 L 1658,508 L 1659,508 L 1660,509 L 1658,511 L 1656,509 L 1655,509 L 1651,505 L 1650,505 L 1644,499 L 1648,495 L 1649,495 L 1651,493 L 1652,493 L 1653,492 L 1655,492 L 1656,491 L 1658,491 L 1659,490 L 1661,490 L 1662,489 Z M 1716,483 L 1723,490 L 1723,491 L 1725,493 L 1725,494 L 1727,496 L 1727,497 L 1729,499 L 1729,500 L 1730,501 L 1730,502 L 1729,503 L 1727,503 L 1723,499 L 1723,495 L 1722,494 L 1721,494 L 1720,493 L 1719,493 L 1717,491 L 1718,490 L 1718,489 L 1717,488 L 1717,487 L 1716,487 L 1714,485 Z M 423,482 L 424,483 L 424,489 L 421,492 L 417,492 L 416,491 L 416,490 L 417,489 L 417,488 L 418,487 L 418,486 L 422,482 Z M 1705,479 L 1708,476 L 1709,476 L 1714,481 L 1715,481 L 1716,482 L 1716,483 L 1715,484 L 1714,483 L 1715,484 L 1714,485 L 1713,485 L 1709,481 L 1708,481 L 1707,480 L 1706,480 Z M 1602,476 L 1603,477 L 1609,477 L 1610,478 L 1611,478 L 1612,479 L 1612,480 L 1613,480 L 1614,481 L 1614,482 L 1613,483 L 1613,491 L 1617,491 L 1618,492 L 1619,491 L 1619,490 L 1621,487 L 1621,484 L 1622,483 L 1622,481 L 1623,480 L 1629,480 L 1630,481 L 1636,481 L 1637,482 L 1636,483 L 1632,483 L 1636,483 L 1637,484 L 1635,486 L 1634,486 L 1626,494 L 1626,495 L 1624,497 L 1624,498 L 1622,500 L 1622,501 L 1621,502 L 1621,503 L 1620,504 L 1620,505 L 1618,508 L 1618,510 L 1617,511 L 1617,514 L 1616,515 L 1616,518 L 1615,519 L 1615,538 L 1616,539 L 1616,541 L 1617,542 L 1617,544 L 1618,545 L 1618,547 L 1617,548 L 1612,543 L 1611,543 L 1610,542 L 1613,540 L 1610,540 L 1609,541 L 1608,541 L 1606,539 L 1605,539 L 1604,538 L 1603,538 L 1602,537 L 1601,537 L 1598,535 L 1596,535 L 1593,533 L 1590,533 L 1589,532 L 1585,532 L 1584,531 L 1572,531 L 1571,530 L 1572,529 L 1574,529 L 1577,527 L 1579,527 L 1579,522 L 1578,521 L 1578,518 L 1577,517 L 1577,516 L 1576,515 L 1576,514 L 1575,513 L 1575,512 L 1574,511 L 1573,511 L 1570,509 L 1572,507 L 1573,508 L 1572,507 L 1575,504 L 1576,505 L 1575,504 L 1577,502 L 1578,502 L 1580,500 L 1581,501 L 1580,500 L 1582,498 L 1583,498 L 1586,495 L 1587,495 L 1589,493 L 1590,493 L 1593,490 L 1594,491 L 1593,490 L 1598,485 L 1598,484 L 1600,481 L 1600,479 Z M 1556,473 L 1557,472 L 1566,472 L 1567,473 L 1567,479 L 1566,480 L 1561,480 L 1560,479 L 1558,479 L 1557,478 L 1557,474 Z M 1324,472 L 1328,473 L 1327,475 L 1330,485 L 1332,485 L 1334,482 L 1334,473 L 1335,472 L 1345,472 L 1347,475 L 1349,485 L 1351,486 L 1356,485 L 1356,480 L 1358,474 L 1359,475 L 1364,474 L 1359,474 L 1358,473 L 1359,472 L 1368,473 L 1370,477 L 1370,484 L 1372,486 L 1377,485 L 1378,475 L 1380,472 L 1394,472 L 1397,485 L 1399,486 L 1400,485 L 1402,486 L 1404,484 L 1405,475 L 1407,472 L 1420,472 L 1422,476 L 1422,483 L 1424,486 L 1429,485 L 1431,474 L 1433,472 L 1436,472 L 1437,473 L 1436,474 L 1437,491 L 1453,510 L 1444,519 L 1440,529 L 1438,531 L 1422,533 L 1411,538 L 1397,549 L 1388,563 L 1384,576 L 1384,594 L 1389,609 L 1393,616 L 1401,625 L 1397,626 L 1395,628 L 1395,635 L 1393,640 L 1379,640 L 1377,637 L 1377,631 L 1375,626 L 1369,627 L 1368,637 L 1366,640 L 1352,640 L 1350,638 L 1348,626 L 1357,617 L 1364,604 L 1367,592 L 1367,577 L 1364,565 L 1358,554 L 1345,541 L 1326,532 L 1304,531 L 1288,536 L 1277,543 L 1268,552 L 1267,551 L 1271,536 L 1298,531 L 1305,528 L 1308,529 L 1307,528 L 1310,526 L 1310,524 L 1307,518 L 1301,513 L 1294,512 L 1293,510 L 1319,492 L 1325,486 L 1326,477 L 1323,473 Z M 1276,473 L 1277,472 L 1291,472 L 1292,473 L 1292,474 L 1293,475 L 1293,479 L 1292,480 L 1276,480 L 1275,479 L 1276,478 L 1276,475 L 1277,474 Z M 1052,472 L 1067,472 L 1069,474 L 1068,475 L 1072,486 L 1077,486 L 1079,478 L 1078,477 L 1080,472 L 1090,472 L 1092,475 L 1092,485 L 1093,486 L 1098,486 L 1099,485 L 1099,479 L 1101,472 L 1115,472 L 1118,486 L 1123,486 L 1124,485 L 1125,476 L 1127,472 L 1140,472 L 1143,480 L 1143,485 L 1144,486 L 1149,486 L 1151,483 L 1153,473 L 1157,472 L 1158,473 L 1157,474 L 1157,482 L 1159,490 L 1180,511 L 1173,515 L 1171,515 L 1169,517 L 1162,530 L 1142,534 L 1126,543 L 1116,554 L 1110,565 L 1107,575 L 1107,595 L 1110,605 L 1118,619 L 1126,627 L 1125,636 L 1123,640 L 1111,640 L 1110,639 L 1111,637 L 1109,627 L 1106,628 L 1104,639 L 1103,640 L 1096,640 L 1094,634 L 1094,628 L 1092,626 L 1088,626 L 1086,628 L 1085,636 L 1083,638 L 1084,639 L 1083,640 L 1066,640 L 1065,639 L 1064,631 L 1080,615 L 1087,600 L 1089,592 L 1089,577 L 1086,565 L 1079,553 L 1068,542 L 1051,533 L 1043,531 L 1034,531 L 1029,519 L 1022,513 L 1016,512 L 1014,510 L 1042,491 L 1047,486 L 1049,486 L 1050,484 L 1050,476 Z M 997,473 L 998,472 L 1011,472 L 1012,473 L 1012,479 L 1011,480 L 998,480 L 997,479 Z M 762,472 L 774,472 L 776,474 L 779,485 L 784,485 L 787,474 L 792,473 L 794,486 L 799,485 L 803,472 L 816,472 L 821,486 L 827,485 L 827,474 L 832,472 L 837,474 L 836,475 L 833,475 L 837,475 L 838,473 L 839,474 L 838,485 L 844,486 L 845,481 L 848,476 L 849,477 L 848,475 L 850,472 L 861,472 L 864,476 L 865,486 L 871,486 L 873,475 L 876,472 L 879,472 L 880,473 L 878,475 L 878,486 L 881,492 L 901,511 L 898,514 L 891,516 L 881,531 L 874,531 L 860,535 L 848,542 L 837,553 L 832,561 L 827,576 L 827,594 L 830,605 L 838,619 L 849,629 L 848,637 L 846,640 L 833,640 L 831,637 L 831,631 L 829,626 L 823,627 L 822,637 L 819,640 L 806,640 L 804,627 L 798,627 L 797,635 L 795,639 L 789,638 L 794,638 L 795,639 L 794,640 L 783,640 L 782,639 L 781,630 L 795,617 L 803,601 L 805,592 L 805,577 L 801,563 L 795,553 L 784,542 L 769,534 L 763,532 L 751,531 L 745,528 L 747,527 L 747,521 L 742,516 L 728,511 L 730,508 L 755,492 L 763,483 L 761,473 Z M 710,473 L 711,472 L 722,472 L 723,473 L 723,474 L 724,475 L 724,478 L 725,479 L 724,480 L 711,480 L 710,479 L 710,477 L 711,476 L 711,474 Z M 619,473 L 620,472 L 629,472 L 630,473 L 630,475 L 631,476 L 631,479 L 630,480 L 622,480 L 621,481 L 619,481 L 618,480 L 618,477 L 619,476 Z M 503,470 L 519,471 L 521,474 L 523,485 L 529,485 L 530,476 L 533,471 L 535,472 L 545,472 L 547,475 L 548,484 L 550,486 L 555,485 L 556,475 L 558,472 L 571,472 L 573,476 L 575,486 L 579,486 L 581,484 L 582,477 L 585,472 L 590,472 L 591,473 L 590,474 L 586,474 L 587,478 L 588,478 L 589,475 L 590,476 L 591,474 L 592,475 L 591,485 L 594,487 L 595,491 L 608,504 L 607,505 L 608,506 L 609,505 L 611,507 L 610,508 L 611,507 L 616,512 L 613,514 L 607,515 L 603,519 L 597,531 L 584,532 L 569,538 L 563,542 L 550,556 L 543,573 L 542,592 L 546,607 L 551,616 L 544,626 L 542,625 L 544,626 L 543,627 L 533,624 L 529,621 L 534,611 L 534,609 L 529,606 L 526,608 L 522,615 L 519,617 L 508,611 L 509,610 L 508,611 L 507,610 L 511,598 L 505,596 L 496,606 L 493,604 L 496,603 L 492,604 L 491,603 L 492,602 L 490,603 L 484,599 L 487,587 L 483,584 L 484,579 L 484,583 L 483,584 L 482,583 L 482,573 L 483,571 L 487,568 L 491,568 L 499,574 L 503,575 L 505,573 L 504,569 L 505,566 L 504,567 L 503,566 L 502,558 L 508,552 L 511,553 L 522,553 L 523,552 L 522,547 L 515,538 L 516,533 L 518,530 L 530,525 L 530,519 L 523,517 L 516,512 L 516,506 L 525,496 L 525,494 L 523,492 L 509,492 L 507,489 L 513,478 L 514,481 L 513,477 L 517,475 L 518,473 L 514,473 L 515,474 L 513,477 L 509,472 L 507,472 L 503,477 L 502,476 L 502,471 Z M 900,471 L 901,470 L 902,470 L 902,469 L 903,468 L 906,468 L 907,469 L 907,471 L 906,472 L 905,472 L 904,473 L 903,472 L 901,472 Z M 1771,463 L 1773,463 L 1774,464 L 1774,466 L 1775,467 L 1775,470 L 1774,471 L 1774,482 L 1775,483 L 1775,497 L 1774,498 L 1770,498 L 1769,497 L 1769,479 L 1770,478 L 1770,476 L 1769,475 L 1769,469 L 1770,468 L 1770,464 Z M 1745,459 L 1746,458 L 1747,459 L 1748,459 L 1749,460 L 1750,460 L 1756,466 L 1755,467 L 1756,466 L 1758,466 L 1760,464 L 1760,463 L 1761,462 L 1764,465 L 1763,466 L 1762,466 L 1762,469 L 1761,470 L 1757,470 L 1756,469 L 1754,469 L 1753,468 L 1750,468 L 1749,467 L 1746,467 L 1745,466 Z M 521,370 L 522,369 L 525,369 L 526,370 L 526,371 L 528,373 L 531,373 L 532,374 L 532,375 L 528,379 L 527,379 L 525,381 L 524,380 L 524,379 L 523,378 L 523,377 L 522,376 L 522,375 L 521,374 Z M 533,337 L 537,341 L 537,343 L 538,344 L 538,352 L 537,353 L 535,353 L 534,354 L 534,357 L 533,358 L 527,358 L 527,359 L 526,360 L 522,360 L 521,359 L 521,343 L 522,342 L 522,341 L 525,338 L 526,338 L 527,339 L 529,339 L 527,339 L 526,338 L 527,337 Z M 1677,315 L 1678,314 L 1678,313 L 1679,312 L 1684,312 L 1686,314 L 1686,317 L 1684,319 L 1681,319 L 1680,318 L 1678,318 L 1677,317 Z M 848,95 L 851,95 L 852,96 L 853,96 L 857,100 L 857,106 L 856,107 L 856,108 L 853,111 L 852,111 L 851,112 L 849,112 L 848,111 L 847,111 L 846,110 L 845,110 L 843,108 L 843,106 L 844,105 L 844,104 L 844,105 L 843,106 L 842,105 L 842,101 L 843,100 L 843,99 L 846,96 L 847,96 Z" fill="black" fill-rule="evenodd"/>
</svg>