<svg xmlns="http://www.w3.org/2000/svg" width="2172" height="724" viewBox="0 0 2172 724">
<rect width="100%" height="100%" fill="white"/>
<path d="M 1552,567 L 1551,568 L 1550,568 L 1547,571 L 1547,575 L 1551,579 L 1555,579 L 1556,578 L 1557,578 L 1559,576 L 1559,570 L 1557,568 L 1556,568 L 1555,567 Z" fill="black" fill-rule="evenodd"/>
<path d="M 1225,567 L 1224,568 L 1223,568 L 1222,569 L 1222,570 L 1221,571 L 1221,575 L 1222,576 L 1222,577 L 1223,577 L 1225,579 L 1229,579 L 1231,577 L 1232,577 L 1232,576 L 1233,575 L 1233,570 L 1231,568 L 1230,568 L 1229,567 Z" fill="black" fill-rule="evenodd"/>
<path d="M 876,568 L 875,569 L 875,570 L 874,571 L 874,575 L 875,576 L 875,577 L 876,578 L 877,578 L 878,579 L 883,579 L 885,577 L 885,576 L 886,575 L 886,571 L 885,570 L 885,569 L 884,568 L 883,568 L 882,567 L 878,567 L 877,568 Z" fill="black" fill-rule="evenodd"/>
<path d="M 594,567 L 593,568 L 592,568 L 590,570 L 590,575 L 591,576 L 591,577 L 592,578 L 593,578 L 594,579 L 598,579 L 602,575 L 602,570 L 600,568 L 599,568 L 598,567 Z" fill="black" fill-rule="evenodd"/>
<path d="M 1575,558 L 1572,561 L 1572,565 L 1573,566 L 1573,567 L 1574,568 L 1575,568 L 1576,569 L 1579,569 L 1580,568 L 1581,568 L 1583,566 L 1583,561 L 1580,558 Z" fill="black" fill-rule="evenodd"/>
<path d="M 1527,558 L 1526,559 L 1525,559 L 1523,561 L 1523,563 L 1522,564 L 1522,565 L 1523,566 L 1523,567 L 1525,569 L 1526,569 L 1527,570 L 1531,570 L 1533,568 L 1534,568 L 1534,567 L 1535,566 L 1535,561 L 1533,559 L 1532,559 L 1531,558 Z" fill="black" fill-rule="evenodd"/>
<path d="M 1200,558 L 1199,559 L 1198,559 L 1197,560 L 1197,561 L 1196,562 L 1196,566 L 1199,569 L 1200,569 L 1201,570 L 1204,570 L 1205,569 L 1206,569 L 1208,567 L 1208,561 L 1205,558 Z" fill="black" fill-rule="evenodd"/>
<path d="M 854,558 L 853,559 L 852,559 L 851,560 L 851,561 L 850,562 L 850,567 L 852,569 L 853,569 L 854,570 L 857,570 L 858,569 L 859,569 L 860,568 L 860,567 L 861,566 L 861,561 L 859,559 L 858,559 L 857,558 Z" fill="black" fill-rule="evenodd"/>
<path d="M 570,558 L 566,562 L 566,566 L 567,567 L 567,568 L 568,569 L 569,569 L 570,570 L 574,570 L 578,566 L 578,562 L 574,558 Z" fill="black" fill-rule="evenodd"/>
<path d="M 904,557 L 901,560 L 901,565 L 904,568 L 907,568 L 910,565 L 910,564 L 911,563 L 911,560 L 908,557 Z" fill="black" fill-rule="evenodd"/>
<path d="M 1252,556 L 1251,557 L 1249,557 L 1248,558 L 1248,559 L 1247,560 L 1247,563 L 1248,564 L 1248,565 L 1249,566 L 1250,566 L 1251,567 L 1253,567 L 1254,566 L 1255,566 L 1257,564 L 1257,559 L 1255,557 L 1253,557 Z" fill="black" fill-rule="evenodd"/>
<path d="M 620,556 L 619,557 L 618,557 L 617,558 L 617,559 L 616,560 L 616,562 L 618,564 L 618,565 L 619,565 L 620,566 L 623,566 L 627,562 L 627,560 L 626,559 L 626,558 L 625,557 L 624,557 L 623,556 Z" fill="black" fill-rule="evenodd"/>
<path d="M 1582,536 L 1581,537 L 1580,537 L 1578,539 L 1578,544 L 1579,545 L 1579,546 L 1580,546 L 1582,548 L 1586,548 L 1587,547 L 1588,547 L 1590,545 L 1590,543 L 1591,542 L 1591,541 L 1590,540 L 1590,539 L 1587,536 Z" fill="black" fill-rule="evenodd"/>
<path d="M 1519,536 L 1515,540 L 1515,544 L 1519,548 L 1524,548 L 1525,547 L 1526,547 L 1527,546 L 1527,545 L 1528,544 L 1528,540 L 1527,539 L 1527,538 L 1526,538 L 1524,536 Z" fill="black" fill-rule="evenodd"/>
<path d="M 1256,536 L 1255,537 L 1254,537 L 1252,539 L 1252,545 L 1255,548 L 1260,548 L 1264,544 L 1264,540 L 1262,538 L 1262,537 L 1261,537 L 1260,536 Z" fill="black" fill-rule="evenodd"/>
<path d="M 1193,536 L 1192,537 L 1191,537 L 1190,538 L 1190,539 L 1189,540 L 1189,544 L 1190,545 L 1190,546 L 1191,547 L 1192,547 L 1193,548 L 1197,548 L 1201,544 L 1201,539 L 1199,537 L 1198,537 L 1197,536 Z" fill="black" fill-rule="evenodd"/>
<path d="M 909,536 L 905,540 L 905,544 L 909,548 L 914,548 L 917,545 L 917,544 L 918,543 L 918,541 L 917,540 L 917,539 L 914,536 Z" fill="black" fill-rule="evenodd"/>
<path d="M 844,537 L 844,538 L 842,540 L 842,544 L 846,548 L 851,548 L 854,545 L 854,544 L 855,543 L 855,540 L 851,536 L 846,536 L 845,537 Z" fill="black" fill-rule="evenodd"/>
<path d="M 623,537 L 622,538 L 622,539 L 621,540 L 621,545 L 624,548 L 630,548 L 633,545 L 633,540 L 632,539 L 632,538 L 631,537 L 630,537 L 629,536 L 625,536 L 624,537 Z" fill="black" fill-rule="evenodd"/>
<path d="M 563,536 L 562,537 L 561,537 L 560,538 L 560,539 L 559,540 L 559,545 L 562,548 L 567,548 L 568,547 L 569,547 L 571,545 L 571,539 L 569,537 L 568,537 L 567,536 Z" fill="black" fill-rule="evenodd"/>
<path d="M 1574,514 L 1573,515 L 1572,515 L 1569,518 L 1569,522 L 1572,525 L 1573,525 L 1574,526 L 1577,526 L 1578,525 L 1579,525 L 1581,523 L 1581,522 L 1582,521 L 1582,519 L 1581,518 L 1581,517 L 1578,514 Z" fill="black" fill-rule="evenodd"/>
<path d="M 1248,514 L 1247,515 L 1246,515 L 1245,516 L 1245,517 L 1244,518 L 1244,519 L 1243,520 L 1243,521 L 1244,522 L 1244,523 L 1246,525 L 1247,525 L 1248,526 L 1252,526 L 1256,522 L 1256,518 L 1255,517 L 1255,516 L 1254,516 L 1252,514 Z" fill="black" fill-rule="evenodd"/>
<path d="M 901,514 L 900,515 L 899,515 L 897,517 L 897,522 L 898,523 L 898,524 L 899,524 L 900,525 L 901,525 L 902,526 L 905,526 L 909,522 L 909,518 L 908,517 L 908,516 L 906,514 Z" fill="black" fill-rule="evenodd"/>
<path d="M 854,514 L 853,515 L 852,515 L 851,516 L 851,517 L 850,518 L 850,522 L 851,523 L 851,524 L 852,525 L 853,525 L 854,526 L 858,526 L 859,525 L 860,525 L 861,524 L 861,523 L 862,522 L 862,521 L 863,520 L 863,519 L 862,518 L 862,517 L 860,515 L 859,515 L 858,514 Z" fill="black" fill-rule="evenodd"/>
<path d="M 616,514 L 613,517 L 613,518 L 612,519 L 612,521 L 613,522 L 613,523 L 616,526 L 620,526 L 621,525 L 622,525 L 624,523 L 624,522 L 625,521 L 625,519 L 624,518 L 624,517 L 621,514 Z" fill="black" fill-rule="evenodd"/>
<path d="M 569,514 L 566,517 L 566,523 L 569,526 L 574,526 L 575,525 L 576,525 L 577,524 L 577,523 L 578,522 L 578,517 L 576,515 L 575,515 L 574,514 Z" fill="black" fill-rule="evenodd"/>
<path d="M 592,505 L 590,507 L 590,508 L 589,509 L 589,513 L 592,516 L 593,516 L 594,517 L 597,517 L 598,516 L 599,516 L 601,514 L 601,513 L 602,512 L 602,509 L 600,507 L 600,506 L 599,506 L 598,505 Z" fill="black" fill-rule="evenodd"/>
<path d="M 1553,504 L 1552,505 L 1550,505 L 1547,508 L 1547,513 L 1550,516 L 1552,516 L 1553,517 L 1554,517 L 1555,516 L 1556,516 L 1559,513 L 1559,508 L 1556,505 L 1554,505 Z" fill="black" fill-rule="evenodd"/>
<path d="M 1225,504 L 1224,505 L 1223,505 L 1221,507 L 1221,508 L 1220,509 L 1220,512 L 1221,513 L 1221,514 L 1223,516 L 1225,516 L 1226,517 L 1227,517 L 1228,516 L 1229,516 L 1230,515 L 1231,515 L 1231,514 L 1232,513 L 1232,512 L 1233,511 L 1233,510 L 1232,509 L 1232,508 L 1231,507 L 1231,506 L 1230,505 L 1228,505 L 1227,504 Z" fill="black" fill-rule="evenodd"/>
<path d="M 879,504 L 878,505 L 877,505 L 874,508 L 874,513 L 877,516 L 878,516 L 879,517 L 881,517 L 882,516 L 883,516 L 885,514 L 885,513 L 886,512 L 886,508 L 883,505 L 882,505 L 881,504 Z" fill="black" fill-rule="evenodd"/>
<path d="M 1547,431 L 1545,432 L 1544,435 L 1538,436 L 1535,433 L 1521,435 L 1519,436 L 1518,440 L 1511,443 L 1508,441 L 1505,441 L 1494,447 L 1495,451 L 1488,456 L 1484,454 L 1474,463 L 1475,467 L 1469,473 L 1469,476 L 1465,480 L 1462,479 L 1463,477 L 1458,482 L 1452,493 L 1452,496 L 1454,498 L 1452,504 L 1450,507 L 1446,508 L 1442,522 L 1446,525 L 1445,533 L 1440,536 L 1440,550 L 1445,552 L 1446,560 L 1442,563 L 1443,570 L 1446,578 L 1451,579 L 1453,584 L 1453,587 L 1451,590 L 1455,598 L 1461,607 L 1465,606 L 1470,612 L 1469,614 L 1470,618 L 1484,631 L 1486,631 L 1488,629 L 1495,634 L 1494,637 L 1496,639 L 1506,644 L 1508,644 L 1510,642 L 1518,644 L 1519,648 L 1522,650 L 1534,652 L 1537,649 L 1541,649 L 1549,654 L 1558,654 L 1561,652 L 1568,651 L 1565,651 L 1564,650 L 1565,649 L 1569,649 L 1571,652 L 1575,652 L 1586,649 L 1587,647 L 1586,646 L 1588,644 L 1596,642 L 1597,644 L 1602,643 L 1611,638 L 1610,635 L 1611,633 L 1616,630 L 1621,631 L 1637,616 L 1639,613 L 1638,609 L 1642,604 L 1644,605 L 1647,604 L 1655,590 L 1655,588 L 1652,586 L 1655,579 L 1659,578 L 1661,575 L 1664,563 L 1660,560 L 1661,552 L 1663,550 L 1665,550 L 1665,535 L 1661,533 L 1661,526 L 1660,525 L 1663,523 L 1663,517 L 1660,508 L 1656,507 L 1653,502 L 1652,498 L 1655,495 L 1651,487 L 1639,471 L 1635,472 L 1631,468 L 1631,463 L 1621,454 L 1618,455 L 1614,454 L 1610,451 L 1611,450 L 1610,446 L 1600,441 L 1597,441 L 1595,443 L 1587,440 L 1585,435 L 1571,433 L 1569,436 L 1562,435 L 1559,431 Z M 1545,496 L 1562,496 L 1563,497 L 1566,497 L 1567,498 L 1569,498 L 1570,499 L 1572,499 L 1573,500 L 1578,502 L 1580,504 L 1579,505 L 1580,504 L 1581,504 L 1585,508 L 1586,508 L 1587,509 L 1587,510 L 1592,515 L 1592,516 L 1594,518 L 1594,519 L 1595,520 L 1595,521 L 1599,528 L 1599,531 L 1600,532 L 1600,536 L 1601,537 L 1601,547 L 1600,548 L 1600,553 L 1599,554 L 1599,556 L 1598,557 L 1598,559 L 1597,560 L 1596,563 L 1594,565 L 1588,565 L 1587,566 L 1587,567 L 1586,568 L 1586,570 L 1587,571 L 1588,574 L 1584,578 L 1583,578 L 1580,581 L 1579,581 L 1577,583 L 1576,583 L 1573,585 L 1571,585 L 1568,587 L 1565,587 L 1564,588 L 1560,588 L 1559,589 L 1547,589 L 1546,588 L 1542,588 L 1541,587 L 1538,587 L 1537,586 L 1536,586 L 1535,585 L 1533,585 L 1532,584 L 1529,583 L 1527,581 L 1526,581 L 1524,579 L 1525,578 L 1524,579 L 1523,579 L 1514,570 L 1514,569 L 1512,567 L 1512,566 L 1508,559 L 1508,557 L 1507,556 L 1507,554 L 1506,553 L 1506,550 L 1505,549 L 1505,537 L 1506,536 L 1506,532 L 1507,531 L 1507,529 L 1508,528 L 1508,526 L 1509,525 L 1509,524 L 1510,523 L 1510,522 L 1511,521 L 1513,516 L 1518,511 L 1521,514 L 1522,514 L 1524,516 L 1524,523 L 1527,526 L 1532,526 L 1533,525 L 1534,525 L 1536,523 L 1536,521 L 1537,520 L 1536,519 L 1536,517 L 1534,515 L 1533,515 L 1532,514 L 1527,514 L 1526,515 L 1525,514 L 1525,512 L 1524,511 L 1524,508 L 1523,507 L 1528,502 L 1529,502 L 1534,499 L 1536,499 L 1537,498 L 1539,498 L 1540,497 L 1544,497 Z" fill="black" fill-rule="evenodd"/>
<path d="M 1220,431 L 1217,435 L 1212,436 L 1210,435 L 1211,434 L 1210,435 L 1208,433 L 1199,434 L 1193,436 L 1193,439 L 1190,441 L 1186,440 L 1188,441 L 1185,443 L 1182,441 L 1179,441 L 1169,446 L 1168,451 L 1162,456 L 1158,454 L 1148,462 L 1147,464 L 1148,468 L 1142,473 L 1142,476 L 1138,479 L 1135,478 L 1131,483 L 1130,482 L 1129,483 L 1126,480 L 1127,482 L 1129,483 L 1130,482 L 1131,484 L 1126,492 L 1127,497 L 1125,499 L 1126,501 L 1125,506 L 1120,507 L 1116,519 L 1116,522 L 1119,524 L 1118,533 L 1114,535 L 1114,550 L 1116,552 L 1117,551 L 1119,554 L 1119,560 L 1118,561 L 1117,560 L 1118,561 L 1116,563 L 1116,567 L 1119,577 L 1123,578 L 1125,580 L 1126,587 L 1124,590 L 1132,605 L 1134,607 L 1138,606 L 1144,613 L 1143,617 L 1148,622 L 1147,623 L 1148,622 L 1158,631 L 1162,629 L 1167,633 L 1166,634 L 1167,633 L 1168,634 L 1168,638 L 1177,643 L 1181,644 L 1186,642 L 1192,644 L 1193,649 L 1207,652 L 1209,650 L 1214,651 L 1210,651 L 1209,650 L 1210,649 L 1216,649 L 1221,654 L 1232,654 L 1235,650 L 1237,650 L 1238,651 L 1236,652 L 1238,652 L 1239,651 L 1237,650 L 1238,649 L 1243,649 L 1245,652 L 1249,652 L 1259,649 L 1260,646 L 1264,643 L 1269,642 L 1271,644 L 1273,644 L 1283,639 L 1285,637 L 1284,634 L 1291,629 L 1294,631 L 1298,629 L 1305,622 L 1306,619 L 1313,614 L 1312,609 L 1316,604 L 1320,604 L 1322,602 L 1329,589 L 1326,586 L 1328,580 L 1330,578 L 1334,577 L 1337,563 L 1334,560 L 1335,552 L 1339,549 L 1339,536 L 1335,533 L 1334,524 L 1337,522 L 1334,508 L 1329,506 L 1326,499 L 1328,496 L 1328,493 L 1317,475 L 1313,471 L 1309,472 L 1305,468 L 1306,463 L 1296,454 L 1290,455 L 1285,451 L 1286,447 L 1274,441 L 1271,441 L 1269,443 L 1261,440 L 1260,436 L 1250,433 L 1245,433 L 1243,436 L 1235,435 L 1233,431 Z M 1219,496 L 1235,496 L 1236,497 L 1240,497 L 1241,498 L 1243,498 L 1244,499 L 1245,499 L 1246,500 L 1247,500 L 1248,501 L 1253,503 L 1255,505 L 1256,505 L 1258,507 L 1257,508 L 1258,507 L 1261,510 L 1261,511 L 1262,512 L 1263,512 L 1267,516 L 1268,519 L 1270,521 L 1270,522 L 1271,523 L 1271,525 L 1272,526 L 1272,528 L 1273,529 L 1273,531 L 1274,532 L 1274,537 L 1275,538 L 1275,547 L 1274,548 L 1274,553 L 1273,554 L 1273,556 L 1272,557 L 1270,562 L 1268,564 L 1263,564 L 1262,567 L 1260,569 L 1260,570 L 1263,573 L 1259,577 L 1258,577 L 1252,582 L 1251,582 L 1244,586 L 1242,586 L 1241,587 L 1239,587 L 1238,588 L 1234,588 L 1233,589 L 1221,589 L 1220,588 L 1215,588 L 1214,587 L 1212,587 L 1211,586 L 1209,586 L 1206,584 L 1207,583 L 1208,583 L 1205,584 L 1202,582 L 1203,581 L 1202,582 L 1201,582 L 1199,580 L 1198,580 L 1195,577 L 1195,575 L 1193,575 L 1188,570 L 1189,569 L 1188,570 L 1186,568 L 1185,565 L 1183,563 L 1183,562 L 1182,561 L 1182,559 L 1181,558 L 1181,556 L 1180,555 L 1180,552 L 1179,551 L 1179,546 L 1178,545 L 1178,539 L 1179,538 L 1179,534 L 1180,533 L 1180,530 L 1181,529 L 1181,527 L 1182,526 L 1182,525 L 1183,524 L 1183,523 L 1184,522 L 1186,517 L 1189,514 L 1190,515 L 1192,513 L 1191,512 L 1193,510 L 1194,511 L 1194,512 L 1196,514 L 1197,514 L 1198,515 L 1196,518 L 1196,521 L 1197,522 L 1197,524 L 1200,526 L 1205,526 L 1208,523 L 1208,522 L 1209,521 L 1209,518 L 1208,517 L 1208,516 L 1205,514 L 1200,514 L 1199,515 L 1198,514 L 1198,509 L 1197,508 L 1197,506 L 1199,504 L 1200,504 L 1202,502 L 1203,502 L 1206,500 L 1208,500 L 1211,498 L 1214,498 L 1215,497 L 1218,497 Z" fill="black" fill-rule="evenodd"/>
<path d="M 874,431 L 871,435 L 864,436 L 862,433 L 857,433 L 847,436 L 844,441 L 838,443 L 836,441 L 830,442 L 823,446 L 822,451 L 815,456 L 812,454 L 803,461 L 802,460 L 803,461 L 801,463 L 802,468 L 798,471 L 797,470 L 798,471 L 796,473 L 793,472 L 795,474 L 795,476 L 792,480 L 789,479 L 786,481 L 779,494 L 779,496 L 781,498 L 780,502 L 777,507 L 773,508 L 770,518 L 769,515 L 768,520 L 769,517 L 770,522 L 773,524 L 772,533 L 768,535 L 768,550 L 772,552 L 773,560 L 770,562 L 770,568 L 772,575 L 774,578 L 778,579 L 781,586 L 778,590 L 785,604 L 787,606 L 789,605 L 792,606 L 796,611 L 795,613 L 796,612 L 798,614 L 797,616 L 796,615 L 798,619 L 811,631 L 814,629 L 820,632 L 822,634 L 821,637 L 823,639 L 833,644 L 836,644 L 838,642 L 843,644 L 842,645 L 845,644 L 847,649 L 858,652 L 862,652 L 864,649 L 868,649 L 869,650 L 866,651 L 870,652 L 869,651 L 871,650 L 875,654 L 885,654 L 889,650 L 896,649 L 899,652 L 911,650 L 914,648 L 914,646 L 916,644 L 921,642 L 927,644 L 938,638 L 937,634 L 943,630 L 946,631 L 950,630 L 959,622 L 959,618 L 966,614 L 965,609 L 969,605 L 972,606 L 976,601 L 982,590 L 980,587 L 981,581 L 983,578 L 986,578 L 988,575 L 990,562 L 987,559 L 988,552 L 992,550 L 992,535 L 988,533 L 987,525 L 990,522 L 990,518 L 987,508 L 982,506 L 979,499 L 980,497 L 981,498 L 980,497 L 981,493 L 970,475 L 966,471 L 962,472 L 959,468 L 960,464 L 949,454 L 943,455 L 938,451 L 939,448 L 937,446 L 927,441 L 925,441 L 923,443 L 918,441 L 920,440 L 916,441 L 914,439 L 914,437 L 911,435 L 898,433 L 895,436 L 889,435 L 886,431 Z M 873,496 L 888,496 L 889,497 L 893,497 L 894,498 L 896,498 L 897,499 L 899,499 L 900,500 L 901,500 L 902,501 L 905,502 L 907,504 L 908,504 L 910,506 L 909,507 L 910,506 L 912,508 L 913,508 L 921,517 L 921,518 L 922,519 L 922,520 L 923,521 L 923,522 L 924,523 L 924,524 L 926,527 L 926,530 L 927,531 L 927,534 L 928,535 L 928,551 L 927,552 L 927,555 L 926,556 L 926,558 L 925,559 L 924,562 L 922,564 L 921,563 L 918,563 L 917,562 L 916,563 L 915,563 L 913,569 L 914,570 L 914,571 L 916,573 L 910,579 L 909,579 L 906,582 L 905,582 L 904,583 L 903,583 L 902,584 L 901,584 L 898,586 L 896,586 L 895,587 L 892,587 L 891,588 L 887,588 L 886,589 L 875,589 L 874,588 L 869,588 L 868,587 L 866,587 L 865,586 L 863,586 L 862,585 L 860,585 L 859,584 L 856,583 L 851,579 L 850,579 L 848,577 L 849,576 L 848,577 L 844,573 L 845,572 L 844,573 L 841,570 L 841,569 L 839,567 L 839,566 L 840,565 L 839,566 L 837,564 L 837,563 L 836,562 L 836,560 L 834,557 L 834,554 L 833,553 L 833,550 L 832,549 L 832,537 L 833,536 L 833,532 L 834,531 L 834,528 L 836,525 L 836,523 L 837,522 L 838,519 L 840,517 L 841,518 L 840,517 L 840,516 L 844,512 L 845,513 L 848,514 L 850,512 L 850,506 L 852,504 L 855,503 L 857,501 L 858,501 L 861,499 L 863,499 L 864,498 L 867,498 L 868,497 L 872,497 Z" fill="black" fill-rule="evenodd"/>
<path d="M 589,431 L 587,435 L 580,436 L 577,433 L 572,433 L 562,436 L 561,440 L 554,443 L 551,441 L 548,441 L 537,447 L 538,450 L 531,456 L 527,454 L 516,464 L 517,468 L 511,473 L 510,477 L 507,480 L 506,478 L 503,479 L 500,483 L 495,493 L 496,500 L 494,505 L 492,507 L 488,508 L 488,511 L 485,518 L 485,522 L 488,524 L 487,534 L 483,536 L 483,550 L 487,552 L 488,560 L 484,563 L 488,577 L 492,578 L 496,585 L 496,587 L 493,590 L 501,604 L 504,607 L 507,605 L 514,614 L 513,618 L 527,631 L 531,629 L 537,634 L 537,638 L 549,644 L 552,642 L 561,644 L 562,649 L 568,651 L 577,652 L 579,649 L 584,649 L 585,650 L 582,651 L 584,652 L 585,651 L 586,652 L 585,651 L 587,650 L 588,653 L 591,654 L 601,654 L 607,649 L 612,649 L 614,652 L 617,652 L 628,649 L 631,644 L 636,642 L 639,644 L 642,644 L 652,639 L 654,637 L 653,634 L 659,630 L 664,631 L 670,626 L 671,627 L 670,626 L 674,622 L 674,618 L 681,615 L 682,607 L 684,605 L 687,606 L 690,603 L 697,591 L 695,584 L 698,578 L 703,577 L 706,562 L 703,560 L 703,554 L 708,548 L 707,547 L 707,535 L 704,533 L 703,530 L 703,524 L 706,521 L 702,507 L 698,507 L 696,504 L 694,498 L 696,496 L 696,493 L 691,485 L 692,483 L 691,484 L 682,471 L 678,472 L 674,468 L 675,463 L 665,454 L 659,455 L 654,451 L 654,447 L 643,441 L 640,441 L 637,443 L 634,441 L 635,440 L 634,441 L 630,440 L 629,436 L 623,434 L 614,433 L 612,436 L 605,435 L 602,431 Z M 588,496 L 603,496 L 604,497 L 608,497 L 609,498 L 612,498 L 615,500 L 614,501 L 613,501 L 614,501 L 615,500 L 617,500 L 618,501 L 619,501 L 621,503 L 622,503 L 624,505 L 625,505 L 627,507 L 626,508 L 627,509 L 628,508 L 635,515 L 635,516 L 637,518 L 637,519 L 638,520 L 638,521 L 639,522 L 639,523 L 641,526 L 641,528 L 642,529 L 642,531 L 643,532 L 643,538 L 644,539 L 644,546 L 643,547 L 643,552 L 642,553 L 642,555 L 641,556 L 641,558 L 640,559 L 639,562 L 637,564 L 633,564 L 631,566 L 631,567 L 630,568 L 630,571 L 631,572 L 631,574 L 630,575 L 629,575 L 625,579 L 624,578 L 625,579 L 624,580 L 623,580 L 621,582 L 620,582 L 619,583 L 618,583 L 617,584 L 616,584 L 613,586 L 611,586 L 610,587 L 607,587 L 606,588 L 602,588 L 601,589 L 590,589 L 589,588 L 585,588 L 584,587 L 582,587 L 581,586 L 579,586 L 578,585 L 576,585 L 575,584 L 574,584 L 572,582 L 571,582 L 570,581 L 569,581 L 567,579 L 566,579 L 564,577 L 564,574 L 563,575 L 562,575 L 556,569 L 555,566 L 553,564 L 553,563 L 551,560 L 551,558 L 550,557 L 550,555 L 549,554 L 549,550 L 548,549 L 548,535 L 549,534 L 549,531 L 550,530 L 550,527 L 552,524 L 552,522 L 553,521 L 553,520 L 555,518 L 555,517 L 557,515 L 557,514 L 562,509 L 563,509 L 564,510 L 564,512 L 565,513 L 566,513 L 566,506 L 568,504 L 569,504 L 571,502 L 572,502 L 573,501 L 574,501 L 577,499 L 579,499 L 580,498 L 582,498 L 583,497 L 587,497 Z" fill="black" fill-rule="evenodd"/>
<path d="M 371,200 L 375,223 L 446,216 L 835,227 L 831,246 L 864,267 L 849,288 L 811,290 L 788,269 L 648,274 L 605,325 L 573,330 L 501,370 L 466,356 L 477,335 L 436,327 L 425,340 L 424,373 L 443,400 L 381,434 L 408,467 L 392,469 L 379,498 L 401,511 L 411,500 L 408,484 L 421,483 L 462,535 L 473,535 L 481,500 L 497,485 L 491,472 L 527,438 L 587,421 L 660,435 L 700,472 L 717,535 L 757,535 L 778,469 L 815,435 L 873,421 L 944,435 L 984,472 L 1000,519 L 1106,519 L 1123,471 L 1157,439 L 1219,421 L 1291,435 L 1331,471 L 1349,535 L 1366,548 L 1413,548 L 1430,535 L 1453,467 L 1488,435 L 1545,421 L 1618,436 L 1657,471 L 1674,519 L 1721,519 L 1731,505 L 1749,504 L 1774,520 L 1792,503 L 1776,470 L 1761,465 L 1781,436 L 1746,336 L 1666,317 L 1647,293 L 1523,283 L 1516,248 L 1504,248 L 1497,285 L 1254,279 L 1233,226 L 1288,217 L 1279,181 L 1288,146 L 1032,128 L 1032,97 L 1067,106 L 1073,97 L 1105,94 L 1105,75 L 1086,69 L 1001,68 L 1000,76 L 970,77 L 963,67 L 955,78 L 858,78 L 856,85 L 945,87 L 947,96 L 1001,90 L 1019,107 L 1017,138 L 1097,142 L 1097,155 L 969,156 L 952,137 L 949,155 L 899,164 L 897,151 L 860,164 L 850,186 L 447,198 L 376,190 Z M 1771,488 L 1773,488 L 1774,489 L 1775,489 L 1776,490 L 1777,490 L 1781,494 L 1781,496 L 1782,497 L 1782,503 L 1781,504 L 1781,505 L 1777,509 L 1775,509 L 1774,510 L 1769,510 L 1768,509 L 1766,509 L 1762,505 L 1762,504 L 1761,503 L 1761,496 L 1762,495 L 1762,494 L 1766,490 L 1767,490 L 1768,489 L 1770,489 Z M 391,488 L 400,488 L 401,489 L 400,490 L 392,490 L 400,490 L 401,489 L 402,490 L 402,491 L 403,492 L 403,494 L 404,495 L 404,498 L 403,499 L 403,500 L 400,503 L 399,503 L 398,504 L 392,504 L 391,503 L 390,503 L 388,501 L 388,500 L 387,499 L 387,492 Z M 1748,483 L 1751,483 L 1752,484 L 1754,484 L 1755,485 L 1755,487 L 1754,488 L 1754,489 L 1753,490 L 1753,491 L 1752,492 L 1752,493 L 1751,494 L 1750,494 L 1749,493 L 1748,493 L 1747,492 L 1746,492 L 1745,491 L 1745,490 L 1746,489 L 1747,490 L 1746,489 L 1746,488 L 1745,487 L 1745,486 Z M 493,374 L 492,375 L 491,375 L 490,376 L 489,376 L 488,377 L 487,377 L 486,378 L 485,378 L 484,379 L 483,379 L 481,381 L 480,381 L 479,382 L 478,382 L 477,383 L 476,383 L 475,384 L 474,383 L 474,382 L 472,380 L 473,379 L 473,378 L 474,377 L 475,377 L 478,374 L 480,374 L 481,375 L 487,375 L 488,374 L 489,374 L 490,373 L 492,373 Z M 435,370 L 438,370 L 439,371 L 439,372 L 440,373 L 440,374 L 441,375 L 442,375 L 443,376 L 449,376 L 451,378 L 451,379 L 453,381 L 453,390 L 454,391 L 454,392 L 453,393 L 454,394 L 452,396 L 450,396 L 449,395 L 449,394 L 447,392 L 447,391 L 446,390 L 446,389 L 444,387 L 444,386 L 442,384 L 442,383 L 440,381 L 440,380 L 438,378 L 438,377 L 437,376 L 437,375 L 435,373 L 435,372 L 434,371 Z M 448,333 L 450,335 L 451,335 L 452,336 L 452,352 L 453,353 L 453,354 L 454,355 L 455,355 L 456,356 L 456,357 L 454,359 L 453,359 L 451,361 L 442,361 L 441,362 L 433,362 L 432,361 L 432,345 L 433,344 L 433,342 L 434,341 L 434,340 L 440,334 L 441,334 L 442,333 Z M 1330,297 L 1331,296 L 1379,296 L 1380,297 L 1380,313 L 1379,314 L 1331,314 L 1330,313 Z M 1122,294 L 1123,293 L 1148,293 L 1149,294 L 1148,295 L 1124,295 L 1124,324 L 1192,324 L 1192,295 L 1162,295 L 1161,294 L 1162,293 L 1193,293 L 1194,294 L 1194,325 L 1193,326 L 1123,326 L 1122,325 Z M 664,288 L 665,287 L 713,287 L 714,288 L 714,304 L 713,305 L 665,305 L 664,304 Z M 411,200 L 412,200 L 413,201 L 414,201 L 415,202 L 415,210 L 413,212 L 412,212 L 409,209 L 409,205 L 410,204 L 410,203 L 411,202 L 410,201 Z M 407,199 L 409,199 L 410,200 L 409,201 L 408,201 L 408,202 L 409,203 L 408,204 L 408,208 L 409,209 L 408,210 L 408,211 L 411,211 L 412,212 L 411,213 L 407,213 L 406,212 L 406,210 L 405,209 L 405,203 L 406,202 L 406,200 Z M 382,198 L 394,198 L 395,199 L 395,200 L 396,201 L 396,212 L 393,215 L 392,215 L 391,214 L 381,214 L 380,213 L 380,209 L 379,208 L 379,204 L 380,203 L 380,200 Z M 1255,190 L 1254,191 L 1252,191 L 1251,190 L 1249,190 L 1248,191 L 1236,191 L 1235,192 L 1234,192 L 1233,191 L 1228,191 L 1227,190 L 1219,190 L 1218,191 L 1192,191 L 1191,190 L 1189,190 L 1188,189 L 1183,189 L 1180,191 L 1131,191 L 1130,190 L 1130,188 L 1128,185 L 1128,183 L 1127,182 L 1127,180 L 1126,179 L 1126,177 L 1125,176 L 1125,174 L 1124,173 L 1124,171 L 1122,168 L 1122,166 L 1123,165 L 1239,165 L 1240,164 L 1254,164 L 1255,165 Z M 1265,163 L 1270,163 L 1271,164 L 1272,164 L 1271,164 L 1270,163 L 1271,162 L 1275,162 L 1276,163 L 1276,164 L 1275,165 L 1274,164 L 1275,165 L 1275,168 L 1273,170 L 1273,171 L 1272,172 L 1272,181 L 1273,182 L 1273,184 L 1274,185 L 1274,187 L 1275,188 L 1275,190 L 1276,191 L 1275,192 L 1267,192 L 1266,191 L 1267,190 L 1273,190 L 1267,190 L 1266,189 L 1266,190 L 1265,191 L 1264,190 L 1264,164 Z M 1264,152 L 1264,150 L 1265,149 L 1269,149 L 1270,150 L 1277,150 L 1278,151 L 1277,152 L 1273,152 L 1272,153 L 1265,153 Z M 1112,154 L 1112,149 L 1113,148 L 1241,148 L 1242,149 L 1254,149 L 1255,150 L 1254,151 L 1254,154 L 1253,155 L 1236,155 L 1235,156 L 1227,156 L 1226,155 L 1219,155 L 1218,156 L 1119,156 L 1118,155 L 1113,155 Z M 949,91 L 950,90 L 969,90 L 970,91 L 969,92 L 950,92 Z M 1095,80 L 1098,80 L 1099,81 L 1099,88 L 1098,89 L 1097,89 L 1096,88 L 1094,88 L 1093,87 L 1093,82 Z" fill="black" fill-rule="evenodd"/>
</svg>