<?xml version="1.0" encoding="UTF-8" standalone="no"?>
<svg
   width="620"
   height="250"
   viewBox="0 0 620 250"
   version="1.1"
   id="svg35"
   sodipodi:docname="m8_greyhound_black.svg"
   inkscape:version="1.4.2 (f4327f4, 2025-05-13)"
   xmlns:inkscape="http://www.inkscape.org/namespaces/inkscape"
   xmlns:sodipodi="http://sodipodi.sourceforge.net/DTD/sodipodi-0.dtd"
   xmlns="http://www.w3.org/2000/svg"
   xmlns:svg="http://www.w3.org/2000/svg">
  <defs
     id="defs35" />
  <sodipodi:namedview
     id="namedview35"
     pagecolor="#ffffff"
     bordercolor="#000000"
     borderopacity="0.25"
     inkscape:showpageshadow="2"
     inkscape:pageopacity="0.0"
     inkscape:pagecheckerboard="0"
     inkscape:deskcolor="#d1d1d1"
     inkscape:zoom="1.5730847"
     inkscape:cx="301.9545"
     inkscape:cy="139.53476"
     inkscape:window-width="2560"
     inkscape:window-height="1377"
     inkscape:window-x="-8"
     inkscape:window-y="-8"
     inkscape:window-maximized="1"
     inkscape:current-layer="svg35" />
  <path
     d="m 502.06571,208.96968 -0.38739,0.38738 h -0.38739 l -1.16217,1.16217 v 1.54956 l 1.54956,1.54955 h 1.54955 l 0.38739,-0.38739 h 0.38739 l 0.77478,-0.77477 v -2.32434 l -0.77478,-0.77478 h -0.38739 l -0.38739,-0.38738 z"
     fill="#000000"
     fill-rule="evenodd"
     id="path1"
     style="stroke-width:0.387389" />
  <path
     d="m 375.3895,208.96968 -0.38739,0.38738 h -0.38739 l -0.38739,0.38739 v 0.38739 l -0.38739,0.38739 v 1.54956 l 0.38739,0.38739 v 0.38739 h 0.38739 l 0.77478,0.77477 h 1.54955 l 0.77478,-0.77477 h 0.38739 v -0.38739 l 0.38739,-0.38739 v -1.93695 l -0.77478,-0.77478 h -0.38739 l -0.38739,-0.38738 z"
     fill="#000000"
     fill-rule="evenodd"
     id="path2"
     style="stroke-width:0.387389" />
  <path
     d="m 240.19073,209.35706 -0.38739,0.38739 v 0.38739 l -0.38739,0.38739 v 1.54956 l 0.38739,0.38739 v 0.38739 l 0.38739,0.38738 h 0.38739 l 0.38739,0.38739 h 1.93695 l 0.77477,-0.77477 v -0.38739 l 0.38739,-0.38739 v -1.54956 l -0.38739,-0.38739 v -0.38739 l -0.38739,-0.38739 h -0.38738 l -0.38739,-0.38738 h -1.54956 l -0.38739,0.38738 z"
     fill="#000000"
     fill-rule="evenodd"
     id="path3"
     style="stroke-width:0.387389" />
  <path
     d="m 130.94703,208.96968 -0.38739,0.38738 h -0.38739 l -0.77478,0.77478 v 1.93695 l 0.38739,0.38739 v 0.38739 l 0.38739,0.38738 h 0.38739 l 0.38739,0.38739 h 1.54956 l 1.54955,-1.54955 v -1.93695 l -0.77478,-0.77478 h -0.38738 l -0.38739,-0.38738 z"
     fill="#000000"
     fill-rule="evenodd"
     id="path4"
     style="stroke-width:0.387389" />
  <path
     d="m 510.97565,205.48317 -1.16216,1.16217 v 1.54956 l 0.38738,0.38739 v 0.38739 l 0.38739,0.38738 h 0.38739 l 0.38739,0.38739 h 1.16217 l 0.38739,-0.38739 h 0.38739 l 0.77477,-0.77477 v -1.93695 l -1.16216,-1.16217 z"
     fill="#000000"
     fill-rule="evenodd"
     id="path5"
     style="stroke-width:0.387389" />
  <path
     d="m 492.38098,205.48317 -0.38739,0.38739 h -0.38739 l -0.77478,0.77478 v 0.77478 l -0.38738,0.38739 v 0.38739 l 0.38738,0.38739 v 0.38739 l 0.77478,0.77477 h 0.38739 l 0.38739,0.38739 h 1.54956 l 0.77477,-0.77478 h 0.38739 v -0.38738 l 0.38739,-0.38739 v -1.93695 l -0.77478,-0.77478 h -0.38738 l -0.38739,-0.38739 z"
     fill="#000000"
     fill-rule="evenodd"
     id="path6"
     style="stroke-width:0.387389" />
  <path
     d="m 365.70477,205.48317 -0.38739,0.38739 h -0.38739 l -0.38738,0.38739 v 0.38739 l -0.38739,0.38739 v 1.54956 l 1.16216,1.16216 h 0.38739 l 0.38739,0.38739 h 1.16217 l 0.38739,-0.38739 h 0.38739 l 0.77477,-0.77477 v -2.32434 l -1.16216,-1.16217 z"
     fill="#000000"
     fill-rule="evenodd"
     id="path7"
     style="stroke-width:0.387389" />
  <path
     d="m 231.66817,205.48317 -0.38739,0.38739 h -0.38738 l -0.38739,0.38739 v 0.38739 l -0.38739,0.38739 v 1.93695 l 0.77478,0.77477 h 0.38738 l 0.38739,0.38739 h 1.16217 l 0.38739,-0.38739 h 0.38739 l 0.38739,-0.38739 v -0.38738 l 0.38739,-0.38739 v -1.93695 l -0.77478,-0.77478 h -0.38739 l -0.38739,-0.38739 z"
     fill="#000000"
     fill-rule="evenodd"
     id="path8"
     style="stroke-width:0.387389" />
  <path
     d="m 121.64969,205.48317 -1.54955,1.54956 v 1.54956 l 0.38739,0.38739 v 0.38738 l 0.38739,0.38739 h 0.38738 l 0.38739,0.38739 h 1.54956 l 1.54956,-1.54955 v -1.54956 l -1.54956,-1.54956 z"
     fill="#000000"
     fill-rule="evenodd"
     id="path9"
     style="stroke-width:0.387389" />
  <path
     d="m 251.03762,205.09579 -1.16216,1.16216 v 1.93695 l 1.16216,1.16216 h 1.16217 l 1.16217,-1.16216 v -0.38739 l 0.38739,-0.38739 v -1.16217 l -1.16217,-1.16216 z"
     fill="#000000"
     fill-rule="evenodd"
     id="path10"
     style="stroke-width:0.387389" />
  <path
     d="m 385.849,204.7084 -0.38739,0.38739 h -0.77478 l -0.38738,0.38738 v 0.38739 l -0.38739,0.38739 v 1.16217 l 0.38739,0.38739 v 0.38739 l 0.38738,0.38739 h 0.38739 l 0.38739,0.38739 h 0.77478 l 0.38739,-0.38739 h 0.38739 l 0.77478,-0.77478 v -1.93695 l -0.77478,-0.77477 h -0.77478 z"
     fill="#000000"
     fill-rule="evenodd"
     id="path11"
     style="stroke-width:0.387389" />
  <path
     d="m 141.01914,204.7084 -0.38738,0.38739 h -0.38739 l -0.38739,0.38738 v 0.38739 l -0.38739,0.38739 v 0.77478 l 0.77478,0.77478 v 0.38739 h 0.38739 l 0.38738,0.38739 h 1.16217 l 1.54956,-1.54956 v -0.77478 l -0.38739,-0.38739 v -0.38739 l -0.38739,-0.38738 h -0.38739 l -0.38739,-0.38739 z"
     fill="#000000"
     fill-rule="evenodd"
     id="path12"
     style="stroke-width:0.387389" />
  <path
     d="m 513.68738,196.96062 -0.38739,0.38739 h -0.38739 l -0.77478,0.77477 v 1.93695 l 0.38739,0.38739 v 0.38739 h 0.38739 l 0.77478,0.77477 h 1.54955 l 0.38739,-0.38738 h 0.38739 l 0.77478,-0.77478 v -0.77478 l 0.38739,-0.38739 v -0.38739 l -0.38739,-0.38739 v -0.38739 l -1.16217,-1.16216 z"
     fill="#000000"
     fill-rule="evenodd"
     id="path13"
     style="stroke-width:0.387389" />
  <path
     d="m 489.28187,196.96062 -1.54956,1.54955 v 1.54956 l 1.54956,1.54955 h 1.93694 l 0.38739,-0.38738 h 0.38739 l 0.38739,-0.38739 v -0.38739 l 0.38739,-0.38739 v -1.54956 l -0.38739,-0.38739 v -0.38739 h -0.38739 l -0.77478,-0.77477 z"
     fill="#000000"
     fill-rule="evenodd"
     id="path14"
     style="stroke-width:0.387389" />
  <path
     d="m 387.39856,196.96062 -0.38739,0.38739 h -0.38739 l -0.77478,0.77477 v 2.32434 l 1.16217,1.16216 h 1.93694 l 1.54956,-1.54955 v -1.54956 l -0.77478,-0.77478 v -0.38738 h -0.38739 l -0.38739,-0.38739 z"
     fill="#000000"
     fill-rule="evenodd"
     id="path15"
     style="stroke-width:0.387389" />
  <path
     d="m 362.99305,196.96062 -0.38739,0.38739 h -0.38739 l -0.38739,0.38738 v 0.38739 l -0.38739,0.38739 v 1.54956 l 0.38739,0.38739 v 0.38739 l 0.38739,0.38739 h 0.38739 l 0.38739,0.38738 h 1.54956 l 1.54955,-1.54955 v -1.93695 l -0.77478,-0.77477 h -0.38739 l -0.38738,-0.38739 z"
     fill="#000000"
     fill-rule="evenodd"
     id="path16"
     style="stroke-width:0.387389" />
  <path
     d="m 252.97457,196.96062 -1.54956,1.54955 v 1.54956 l 1.54956,1.54955 h 1.93694 l 1.16217,-1.16216 v -0.38739 l 0.38739,-0.38739 v -0.77478 l -0.38739,-0.38739 v -0.38739 l -1.16217,-1.16216 z"
     fill="#000000"
     fill-rule="evenodd"
     id="path17"
     style="stroke-width:0.387389" />
  <path
     d="m 227.79428,197.34801 v 0.38738 l -0.77477,0.77478 v 1.54956 l 1.54955,1.54955 h 1.93695 l 1.16216,-1.16216 v -0.38739 l 0.38739,-0.38739 v -1.16217 l -1.54955,-1.54955 h -1.93695 l -0.38739,0.38739 z"
     fill="#000000"
     fill-rule="evenodd"
     id="path18"
     style="stroke-width:0.387389" />
  <path
     d="m 142.18131,197.34801 -0.38739,0.38738 v 0.38739 l -0.38739,0.38739 v 1.93695 l 1.16217,1.16216 h 2.32433 l 1.16217,-1.16216 v -1.93695 l -0.38739,-0.38739 v -0.38739 l -0.38739,-0.38738 h -0.38739 l -0.38738,-0.38739 h -1.54956 l -0.38739,0.38739 z"
     fill="#000000"
     fill-rule="evenodd"
     id="path19"
     style="stroke-width:0.387389" />
  <path
     d="m 118.93797,196.96062 -0.38739,0.38739 h -0.38739 l -0.38739,0.38738 v 0.38739 l -0.38739,0.38739 v 1.93695 l 1.16217,1.16216 h 1.93695 l 0.38739,-0.38738 h 0.38738 l 0.77478,-0.77478 v -2.32434 l -0.77478,-0.77477 h -0.38738 l -0.38739,-0.38739 z"
     fill="#000000"
     fill-rule="evenodd"
     id="path20"
     style="stroke-width:0.387389" />
  <path
     d="m 510.58826,188.43806 -0.38739,0.38739 h -0.38738 l -1.16217,1.16216 v 1.54956 l 1.16217,1.16217 h 0.38738 l 0.38739,0.38739 h 1.16217 l 0.38739,-0.38739 h 0.38739 l 0.77478,-0.77478 v -0.38739 l 0.38739,-0.38739 V 190.375 l -0.38739,-0.38739 v -0.38738 l -1.16217,-1.16217 z"
     fill="#000000"
     fill-rule="evenodd"
     id="path21"
     style="stroke-width:0.387389" />
  <path
     d="m 384.29945,188.43806 -0.38739,0.38739 h -0.38739 l -0.38739,0.38739 v 0.38739 l -0.38739,0.38738 v 0.38739 l -0.38739,0.38739 v 0.38739 l 0.38739,0.38739 v 0.38739 l 0.77478,0.77478 h 0.38739 l 0.38739,0.38739 h 1.54955 l 1.54956,-1.54956 v -1.54956 l -0.38739,-0.38738 v -0.38739 h -0.38739 l -0.77478,-0.77478 z"
     fill="#000000"
     fill-rule="evenodd"
     id="path22"
     style="stroke-width:0.387389" />
  <path
     d="m 249.87546,188.43806 -0.38739,0.38739 h -0.38739 l -0.77478,0.77478 v 1.93694 l 0.38739,0.38739 v 0.38739 h 0.38739 l 0.38739,0.38739 h 0.38739 l 0.38739,0.38739 h 1.16216 l 1.54956,-1.54956 v -1.54956 l -0.38739,-0.38738 v -0.38739 l -0.77478,-0.77478 z"
     fill="#000000"
     fill-rule="evenodd"
     id="path23"
     style="stroke-width:0.387389" />
  <path
     d="m 231.66817,188.43806 -0.38739,0.38739 h -0.38738 l -0.38739,0.38739 v 0.38739 l -0.38739,0.38738 v 1.54956 l 0.38739,0.38739 v 0.38739 l 0.38739,0.38739 h 0.38738 l 0.38739,0.38739 h 1.54956 l 0.38739,-0.38739 h 0.38739 l 0.38739,-0.38739 v -0.38739 l 0.38739,-0.38739 v -0.38739 l 0.38738,-0.38739 V 190.375 l -0.38738,-0.38739 v -0.38738 l -0.77478,-0.77478 h -0.38739 l -0.38739,-0.38739 z"
     fill="#000000"
     fill-rule="evenodd"
     id="path24"
     style="stroke-width:0.387389" />
  <path
     d="m 139.46959,188.43806 -1.16217,1.16217 v 0.38738 l -0.38739,0.38739 v 0.77478 l 0.38739,0.38739 v 0.38739 l 1.16217,1.16217 h 1.54955 l 0.38739,-0.38739 h 0.38739 l 0.77478,-0.77478 v -0.38739 l 0.38739,-0.38739 V 190.375 l -0.38739,-0.38739 v -0.38738 l -1.16217,-1.16217 z"
     fill="#000000"
     fill-rule="evenodd"
     id="path25"
     style="stroke-width:0.387389" />
  <path
     d="m 121.2623,188.43806 -1.16216,1.16217 v 2.32433 l 1.16216,1.16217 h 1.93695 l 0.38739,-0.38739 h 0.38739 l 0.38739,-0.38739 v -0.38739 l 0.38739,-0.38739 v -1.93694 l -0.77478,-0.77478 h -0.38739 l -0.38739,-0.38739 z"
     fill="#000000"
     fill-rule="evenodd"
     id="path26"
     style="stroke-width:0.387389" />
  <path
     d="m 130.17225,184.95156 -0.77478,0.77477 v 0.38739 l -0.38738,0.38739 v 1.54956 l 1.16216,1.16217 h 0.38739 l 0.38739,0.38739 h 1.16217 l 0.38739,-0.38739 h 0.38739 l 0.77477,-0.77478 v -0.38739 l 0.38739,-0.38739 v -1.16217 l -0.77478,-0.77478 v -0.38738 h -0.38738 l -0.38739,-0.38739 z"
     fill="#000000"
     fill-rule="evenodd"
     id="path27"
     style="stroke-width:0.387389" />
  <path
     d="m 502.45309,184.56417 -0.38738,0.38739 h -0.77478 l -1.16217,1.16216 v 1.93695 l 1.16217,1.16217 h 0.77478 l 0.38738,0.38739 h 0.38739 l 0.38739,-0.38739 h 0.38739 l 1.16217,-1.16217 v -1.93695 l -1.16217,-1.16216 h -0.77478 z"
     fill="#000000"
     fill-rule="evenodd"
     id="path28"
     style="stroke-width:0.387389" />
  <path
     d="m 375.3895,184.56417 -0.38739,0.38739 h -0.38739 l -0.77478,0.77477 v 0.38739 l -0.38739,0.38739 v 1.16217 l 0.38739,0.38739 v 0.38739 l 0.77478,0.77478 h 0.77478 l 0.38739,0.38739 h 0.38739 l 0.38738,-0.38739 h 0.38739 l 0.38739,-0.38739 h 0.38739 v -0.38739 l 0.38739,-0.38739 v -0.38739 l 0.38739,-0.38739 v -0.38739 l -0.38739,-0.38739 v -0.38739 l -0.38739,-0.38739 v -0.38738 l -0.38739,-0.38739 h -0.77478 l -0.38738,-0.38739 z"
     fill="#000000"
     fill-rule="evenodd"
     id="path29"
     style="stroke-width:0.387389" />
  <path
     d="m 241.3529,184.56417 -0.38739,0.38739 h -0.38739 l -1.16217,1.16216 v 1.93695 l 1.16217,1.16217 h 0.38739 l 0.38739,0.38739 h 0.77478 l 0.38739,-0.38739 h 0.38739 l 0.77477,-0.77478 v -0.38739 l 0.38739,-0.38739 v -1.54956 l -1.16216,-1.16216 h -0.38739 l -0.38739,-0.38739 z"
     fill="#000000"
     fill-rule="evenodd"
     id="path30"
     style="stroke-width:0.387389" />
  <path
     d="m 500.12876,156.28477 -0.77478,0.38739 -0.38739,1.16217 -2.32433,0.38738 -1.16217,-1.16216 -5.42344,0.77478 -0.77478,0.38738 -0.38739,1.54956 -2.71172,1.16217 -1.16217,-0.77478 h -1.16217 l -4.26128,2.32433 0.38739,1.54956 -2.71172,1.93695 -1.54956,-0.77478 -3.87389,3.4865 0.38739,1.54955 -2.32433,2.32434 v 1.16217 l -1.54956,1.54955 -1.16217,-0.38739 0.38739,-0.77478 -1.93694,1.93695 -2.32434,4.26128 v 1.16217 l 0.77478,0.77477 -0.77478,2.32434 -0.77477,1.16216 -1.54956,0.38739 -1.54956,5.42345 1.54956,1.16217 -0.38739,3.09911 -1.93694,1.16217 v 5.42344 l 1.93694,0.77478 0.38739,3.09911 -1.54956,1.16217 0.38739,2.71172 1.16217,3.09911 1.93695,0.38739 0.77477,1.93695 v 1.16217 l -0.77477,1.16216 1.54955,3.09912 2.32434,3.4865 1.54955,-0.38739 1.93695,2.32433 -0.38739,0.77478 0.38739,1.54956 5.42344,5.03605 h 0.77478 l 0.77478,-0.77478 2.71172,1.93695 -0.38739,1.16217 0.77478,0.77477 3.87389,1.93695 h 0.77478 l 0.77478,-0.77478 3.09911,0.77478 0.38739,1.54956 1.16217,0.77477 4.64866,0.77478 1.16217,-1.16217 h 1.54956 l 3.09911,1.93695 h 3.4865 l 1.16217,-0.77478 2.71172,-0.38739 h -1.16217 l -0.38739,-0.38739 0.38739,-0.38739 h 1.54956 l 0.77478,1.16217 h 1.54955 l 4.26128,-1.16217 0.38739,-0.77477 -0.38739,-0.38739 0.77478,-0.77478 3.09911,-0.77478 0.38739,0.77478 1.93695,-0.38739 3.4865,-1.93694 -0.38739,-1.16217 0.38739,-0.77478 1.93694,-1.16217 1.93695,0.38739 6.19822,-5.81083 0.77478,-1.16217 -0.38739,-1.54956 1.54956,-1.93694 0.77477,0.38739 1.16217,-0.38739 3.09911,-5.42345 v -0.77477 l -1.16216,-0.77478 1.16216,-2.71173 1.54956,-0.38739 0.77478,-1.16216 1.16217,-4.64867 -1.54956,-1.16217 0.38739,-3.09911 0.77478,-0.77478 h 0.77477 v -5.81083 l -1.54955,-0.77478 v -2.71172 l -0.38739,-0.38739 1.16217,-0.77478 v -2.32433 l -1.16217,-3.48651 -1.54956,-0.38739 -1.16216,-1.93694 -0.38739,-1.54956 1.16216,-1.16216 -1.54955,-3.09912 -4.64867,-6.19822 -1.54956,0.38739 -1.54955,-1.54956 v -1.93694 l -3.87389,-3.4865 -1.16217,0.38739 -1.54956,-0.38739 -1.54955,-1.16217 0.38739,-0.38739 -0.38739,-1.54955 -3.87389,-1.93695 h -1.16217 l -0.77478,0.77478 -3.09911,-1.16217 -0.77478,-1.93694 -5.42344,-0.77478 -0.77478,1.16216 -2.71172,-0.38738 -1.16217,-1.54956 z m -0.77478,25.18029 h 6.58562 l 0.38738,0.38738 h 1.16217 l 0.38739,0.38739 h 0.77478 l 0.38739,0.38739 h 0.77478 l 0.38738,0.38739 1.93695,0.77478 0.77478,0.77478 -0.38739,0.38739 0.38739,-0.38739 h 0.38739 l 1.54955,1.54955 h 0.38739 l 0.38739,0.38739 v 0.38739 l 1.93695,1.93695 v 0.38739 l 0.77477,0.77477 v 0.38739 l 0.38739,0.38739 v 0.38739 l 1.54956,2.71172 v 1.16217 l 0.38739,0.38739 v 1.54956 l 0.38739,0.38739 v 3.87389 l -0.38739,0.38738 v 1.93695 l -0.38739,0.38739 v 0.77478 l -0.38739,0.38739 v 0.77477 l -0.38739,0.38739 -0.38739,1.16217 -0.77478,0.77478 h -2.32433 l -0.38739,0.38739 v 0.38739 l -0.38739,0.38738 v 0.77478 l 0.38739,0.38739 0.38739,1.16217 -1.54956,1.54955 h -0.38739 l -1.16216,1.16217 h -0.38739 l -0.77478,0.77478 h -0.38739 l -1.16217,0.77478 h -0.77477 l -1.16217,0.77478 h -1.16217 l -0.38739,0.38739 h -1.54955 l -0.38739,0.38738 h -4.64867 l -0.38739,-0.38738 h -1.54955 l -0.38739,-0.38739 h -1.16217 l -0.38739,-0.38739 h -0.38739 l -0.38739,-0.38739 h -0.77478 l -0.38738,-0.38739 -1.16217,-0.38739 -0.77478,-0.77478 h -0.38739 l -0.77478,-0.77478 0.38739,-0.38739 -0.38739,0.38739 h -0.38739 l -3.4865,-3.4865 v -0.38739 l -0.77478,-0.77477 v -0.38739 l -1.54955,-2.71173 v -0.77477 l -0.38739,-0.38739 v -0.77478 l -0.38739,-0.38739 v -1.16217 l -0.38739,-0.38739 v -4.64866 l 0.38739,-0.38739 v -1.54956 l 0.38739,-0.38739 v -0.77478 l 0.38739,-0.38739 v -0.77477 l 0.38739,-0.38739 v -0.38739 l 0.38739,-0.38739 v -0.38739 l 0.38739,-0.38739 0.77477,-1.93694 1.93695,-1.93695 1.16217,1.16217 h 0.38739 l 0.77477,0.77478 v 2.71172 l 1.16217,1.16217 h 1.93695 l 0.38738,-0.38739 h 0.38739 l 0.77478,-0.77478 v -0.77478 l 0.38739,-0.38739 -0.38739,-0.38739 v -0.77477 l -0.77478,-0.77478 h -0.38739 l -0.38738,-0.38739 h -1.93695 l -0.38739,0.38739 -0.38739,-0.38739 v -0.77478 l -0.38739,-0.38739 v -1.16217 l -0.38739,-0.38739 1.93695,-1.93694 h 0.38739 l 1.93694,-1.16217 h 0.77478 l 0.38739,-0.38739 h 0.77478 l 0.38739,-0.38739 h 1.54955 z"
     fill="#000000"
     fill-rule="evenodd"
     id="path31"
     style="stroke-width:0.387389" />
  <path
     d="m 373.45255,156.28477 -1.16216,1.54956 -1.93695,0.38738 -0.77478,-0.38738 0.38739,-0.38739 -0.38739,0.38739 -0.77478,-0.77478 -3.4865,0.38739 -2.32433,0.77477 v 1.16217 l -1.16217,0.77478 -1.54955,-0.38739 0.77477,0.38739 -1.16216,0.77478 -1.16217,-0.77478 h -1.16217 l -3.87389,1.93695 -0.38739,1.93694 -2.32433,1.93695 -1.54956,-0.77478 -3.87389,3.09911 -0.38739,0.77478 0.38739,1.54955 -2.32433,1.93695 v 1.16217 l -1.54956,1.16216 -1.16216,-0.38739 -1.54956,1.93695 -0.38739,-0.38739 -0.38739,0.38739 -1.16216,-1.16217 0.38738,0.77478 0.77478,0.38739 0.38739,-0.38739 0.38739,0.77478 -1.93694,3.09911 0.38738,1.93694 -0.77477,0.77478 0.38739,0.77478 -0.38739,1.93695 -1.93695,0.38738 -1.54955,4.64867 v 1.16217 l 1.16216,0.77478 -0.38739,3.4865 -1.54955,0.77478 v 5.81083 l 0.77478,0.77478 0.38738,-0.38739 0.77478,1.16217 v 2.32433 l -0.38739,0.38739 -0.38739,-0.38739 0.38739,0.38739 -0.77477,0.77478 v 1.54956 l 1.16216,3.87389 1.54956,0.38738 0.77478,0.77478 0.38739,2.71173 -0.77478,1.16216 3.09911,5.81084 0.77478,0.77478 1.54955,-0.38739 2.32434,2.71172 -0.38739,1.54956 1.93694,1.93694 -0.38739,0.38739 0.38739,-0.38739 3.87389,3.4865 1.54956,-0.77478 1.93695,1.54956 -0.38739,0.38739 0.38739,-0.38739 0.38738,0.38739 v 1.54956 l 3.48651,1.93694 1.54955,0.38739 1.93695,-0.77478 2.32433,0.77478 0.38739,1.93694 5.42345,1.16217 0.77477,-0.77478 1.93695,0.38739 h -1.54956 l -0.38739,-0.38739 0.38739,-0.38739 h 2.32434 l 1.93694,1.93695 h 4.26128 l 1.16217,-1.54956 h 0.77478 l 0.38739,0.38739 -0.77478,0.38739 h 0.77478 l 0.38738,-0.38739 -0.77477,-0.38739 0.38739,-0.38739 h 1.93694 l 0.77478,1.16217 h 1.54955 l 3.87389,-1.16217 0.38739,-1.16216 1.54956,-1.16217 1.93694,-0.38739 0.77478,0.77478 h 0.77478 l 3.87389,-1.93695 0.77478,-0.77477 -0.38739,-1.16217 2.71172,-1.93695 1.16217,0.77478 1.54956,-0.77478 2.71172,-2.71172 0.38739,-1.16217 2.71172,-1.93694 -0.38739,-1.93695 1.54956,-1.93694 h 1.54955 l 0.77478,-0.77478 2.71173,-5.03606 -1.16217,-1.16216 0.77478,-2.32434 0.77477,-0.77478 1.54956,-0.38738 1.16217,-5.42345 -1.16217,-1.16217 0.38739,-3.09911 1.54956,-1.16217 v -5.03605 l -1.54956,-1.16217 -0.38739,-3.4865 1.16217,-0.77478 -1.16217,-5.42345 -1.93694,-0.77477 -1.16217,-2.71173 0.77478,-1.16216 v -1.16217 l -4.26128,-6.973 -1.54956,-1.54956 -1.54955,0.38739 -1.54956,-1.54956 0.38739,-1.93694 -3.87389,-3.4865 -2.32434,0.38739 -1.93694,-1.54956 0.38739,-1.54956 -4.64867,-2.32433 h -1.16217 l -0.77478,0.77478 -3.09911,-1.16217 -0.38739,-1.54956 -3.87389,-1.16216 h -1.93694 l -0.77478,1.16216 -3.09911,-0.38738 -0.77478,-1.54956 z m -0.38739,25.18029 h 6.19823 l 0.38739,0.38738 h 1.54955 l 0.38739,0.38739 h 0.77478 l 0.38739,0.38739 h 0.38739 l 0.38739,0.38739 h 0.38739 l 0.38739,0.38739 1.93694,0.77478 0.77478,0.77478 h 0.38739 l 0.77478,0.77477 -0.38739,0.38739 0.38739,-0.38739 1.16216,1.16217 v 0.38739 l 0.38739,0.38739 h 0.38739 l 1.54956,1.54956 0.38739,1.16216 0.77477,0.77478 v 0.38739 l 0.38739,0.38739 v 0.77478 l 0.38739,0.38739 v 0.77477 l 0.38739,0.38739 v 0.77478 l 0.38739,0.38739 v 1.93695 l 0.38739,0.38738 v 3.48651 l -0.38739,0.38738 v 1.93695 l -0.38739,0.38739 v 0.77478 l -0.38739,0.38739 -0.77478,1.93694 -0.77477,0.77478 h -1.93695 l -0.38739,1.16217 -0.77478,0.77477 v 0.38739 l 1.16217,1.16217 -1.54956,1.54956 h -0.38738 l -2.32434,1.93694 h -0.38739 l -2.71172,1.54956 h -0.77478 l -0.38739,0.38739 h -0.77478 l -0.38738,0.38739 H 378.876 l -0.38739,0.38738 h -4.64867 l -0.38739,-0.38738 h -1.93694 l -0.38739,-0.38739 h -0.77478 l -0.38739,-0.38739 h -0.77478 l -1.16216,-0.77478 0.38739,-0.38739 h 0.38738 l -1.16216,0.38739 -1.16217,-0.77478 0.38739,-0.38739 -0.38739,0.38739 h -0.38739 l -0.77478,-0.77478 h -0.38739 l -1.16216,-1.16216 v -0.77478 h -0.77478 l -1.93695,-1.93695 0.38739,-0.38739 -0.38739,0.38739 -0.77477,-0.77478 -0.38739,-1.16216 -0.77478,-0.77478 v -0.38739 l -0.38739,-0.38739 v -0.77478 l -0.38739,-0.38739 v -0.77477 l -0.38739,-0.38739 v -1.16217 l -0.38739,-0.38739 v -1.93694 l -0.38739,-0.38739 v -2.32434 l 0.38739,-0.38739 v -1.54955 l 0.38739,-0.38739 v -1.16217 l 0.38739,-0.38739 v -0.77477 l 0.38739,-0.38739 v -0.38739 l 0.38739,-0.38739 v -0.38739 l 0.38739,-0.38739 0.77478,-1.93694 1.16216,-1.16217 0.38739,0.38739 0.77478,-0.77478 -0.38739,-0.38739 0.77478,-0.77478 0.38739,0.38739 v 0.38739 l 0.77478,0.77478 h 0.38739 l 0.38738,0.38739 -0.77477,1.16216 v 1.16217 l 0.38739,0.38739 v 0.77478 l 1.16216,0.77478 h 1.93695 l 1.16216,-1.16217 v -0.38739 l 0.38739,-0.38739 v -1.16217 l -0.38739,-0.38738 v -0.38739 l -1.16216,-0.77478 h -1.93695 l -0.38739,0.38739 -0.38739,-0.38739 v -1.93695 l -0.38738,-0.38739 v -0.77477 l 0.77477,-0.77478 h 0.38739 l 0.77478,-0.77478 h 0.38739 l 1.16217,-0.77478 h 0.77477 l 1.16217,-0.77478 h 1.16217 l 0.38739,-0.38739 h 1.16216 z"
     fill="#000000"
     fill-rule="evenodd"
     id="path32"
     style="stroke-width:0.387389" />
  <path
     d="m 239.41595,156.28477 -1.16216,1.54956 -2.71173,0.38738 -0.77477,-1.16216 h -1.93695 l -3.87389,1.16216 -1.16217,1.93695 -2.32433,0.77478 -0.77478,-0.77478 -2.32433,0.38739 -2.71173,1.54956 -0.38738,1.93694 -2.71173,1.93695 -1.16216,-0.77478 -3.48651,2.71172 -0.38738,-0.38739 0.38738,0.38739 -0.77477,0.77478 0.38739,1.93694 -1.54956,1.16217 -0.38739,-0.38739 0.38739,0.38739 -0.77478,0.77478 -1.16217,-0.38739 0.77478,0.77478 v 0.77478 l -1.16217,1.54955 -1.16216,-0.38739 -1.16217,0.77478 -2.71172,5.03606 v 0.77478 l 0.77478,0.77477 -0.38739,1.54956 -1.16217,1.93694 -1.54956,0.38739 -1.16216,3.87389 -0.38739,-1.16216 -0.38739,1.93694 0.38739,-1.16216 0.38739,1.93694 1.16216,0.77478 -0.38739,3.4865 -1.54955,0.77478 v 5.81083 l 1.54955,0.77478 0.38739,3.09911 -1.16216,0.77478 v 2.32433 l 0.77477,2.71173 0.77478,1.16216 1.54956,0.38739 1.16217,2.71173 -1.16217,1.54955 2.71172,5.42345 0.77478,0.77478 0.77478,-0.38739 1.16216,0.38739 1.54956,1.93694 -0.38739,0.77478 0.38739,-0.38739 0.77478,0.77478 -0.38739,0.77478 -0.38739,-0.38739 0.77478,1.54955 5.03606,4.64867 1.16216,-0.77478 2.32434,1.16217 0.77478,0.77478 -0.38739,1.16217 0.77477,0.77477 3.87389,1.93695 h 1.16217 l 0.77478,-0.77478 1.93694,0.77478 -0.38738,0.38739 1.16216,-0.38739 0.77478,1.93694 4.26128,1.16217 h 1.54956 l 0.77477,-1.16217 h 1.54956 l 0.38739,0.38739 -1.16217,0.38739 1.54956,0.38739 -0.38739,-0.38739 0.77478,-0.38739 1.54955,1.54956 h 3.87389 l 1.54956,-1.54956 2.71172,-0.38739 1.16217,1.16217 4.64867,-0.77478 1.16216,-0.77477 v -0.77478 l 0.77478,-0.77478 1.93695,-0.77478 2.32433,0.77478 4.26128,-2.32433 -0.38739,-1.54956 2.32434,-1.54956 1.16216,0.38739 1.54956,-0.38739 3.4865,-3.09911 v -1.54955 l 2.71172,-1.54956 -0.38739,-1.93695 1.54956,-1.54955 1.16217,0.38739 1.54955,-1.93695 2.32434,-4.26128 -0.77478,-1.16216 0.38739,-2.32434 0.77478,-1.16217 h 1.16216 l 0.77478,-1.16216 0.77478,-5.03606 -1.16217,-1.16217 0.38739,-2.71172 1.54956,-0.77478 v -5.81083 l -1.54956,-0.77478 -0.38739,-3.09911 1.16217,-1.16217 v -1.54956 l -1.16217,-3.87389 -1.93694,-0.77477 -1.16217,-2.71173 0.38739,-0.77478 0.38739,0.38739 -0.38739,-0.38739 0.38739,-1.54955 -4.26128,-6.973 -1.54956,-1.54956 -1.54955,0.38739 -1.16217,-1.54956 0.38739,-1.54955 -4.26128,-3.87389 -2.32433,0.38739 -1.93695,-1.54956 0.38739,-1.16217 -0.77478,-0.77477 -3.87389,-1.93695 h -0.77478 l -0.77477,0.77478 -1.93695,-0.77478 0.77478,-0.38739 -1.54956,0.38739 -0.77478,-0.77478 v -0.77478 l -1.16216,-0.77477 -5.03606,-0.77478 -1.16217,1.16216 -2.32433,-0.38738 -1.16217,-1.54956 z m -0.38739,25.18029 h 5.81084 l 0.38739,0.38738 h 1.54956 l 0.38738,0.38739 h 0.77478 l 0.38739,0.38739 h 0.77478 l 0.38739,0.38739 h 0.38739 l 0.38739,0.38739 1.16216,0.38739 0.77478,0.77478 h 0.38739 l 0.77478,0.77478 -0.38739,0.38738 0.38739,-0.38738 0.77478,0.77477 h 0.38739 l 3.09911,3.48651 v 0.38738 l 0.38739,0.38739 v 0.38739 l 0.38739,0.38739 v 0.38739 l 0.38738,0.38739 v 0.38739 l 0.77478,1.16217 v 1.16216 l 0.38739,0.38739 v 1.16217 l 0.38739,0.38739 v 6.19822 l -0.38739,0.38739 v 1.16217 l -0.38739,0.38739 v 0.77477 l -0.38739,0.38739 -0.38739,1.16217 -0.77477,0.77478 -0.38739,-0.38739 h -1.16217 l -0.38739,-0.38739 -0.38739,0.38739 h -0.38739 l -0.77477,2.32433 0.38738,0.38739 v 0.38739 l 0.77478,0.77478 -2.32433,2.32433 h -0.38739 l -1.16217,1.16217 h -0.38739 l -0.38739,0.38739 h -0.38738 l -0.38739,0.38739 h -0.38739 l -1.16217,0.77478 h -0.77478 l -0.38739,0.38739 h -1.16216 l -0.38739,0.38739 h -1.54956 l -0.38739,0.38738 h -4.26128 l -0.38739,-0.38738 h -1.93694 l -0.38739,-0.38739 h -0.77478 l -0.38739,-0.38739 h -0.77478 l -0.38738,-0.38739 h -0.77478 l -0.38739,-0.38739 -1.16217,-0.38739 -1.93694,-1.54956 h -0.38739 l -0.77478,-0.77477 0.38739,-0.38739 -0.38739,0.38739 -1.54956,-1.54956 0.38739,-0.38739 -0.38739,0.38739 -1.16216,-1.16217 v -0.38739 l -0.77478,-0.77477 v -0.38739 l 0.38739,-0.38739 -0.38739,0.38739 -0.77478,-0.77478 v -0.38739 l -0.38739,-0.38739 v -0.77478 l -0.77478,-1.16216 v -1.16217 l -0.38739,-0.38739 v -1.16217 l -0.38738,-0.38739 v -4.64866 l 0.38738,-0.38739 v -1.54956 l 0.38739,-0.38739 v -1.16217 l 0.77478,-1.16216 v -0.77478 l 0.38739,-0.38739 0.38739,-1.16217 0.77478,-0.77477 0.38739,0.38738 -0.38739,-0.38738 v -0.38739 l 1.54955,-1.54956 0.38739,0.38739 1.16217,0.38739 0.77478,-0.77478 v -2.32433 l 0.77478,-0.77478 1.16216,-0.38739 0.77478,-0.77478 h 0.38739 l 1.16217,-0.77478 h 0.77477 l 0.38739,-0.38739 h 1.16217 l 0.38739,-0.38739 h 1.54956 z"
     fill="#000000"
     fill-rule="evenodd"
     id="path33"
     style="stroke-width:0.387389" />
  <path
     d="m 129.01009,156.28477 -0.77478,1.54956 -2.71173,0.38738 -1.16216,-1.16216 h -1.93695 l -3.87389,1.16216 -0.38739,1.54956 -2.71172,1.16217 -1.16217,-0.77478 h -1.16216 l -4.26128,2.32433 0.38739,1.16217 -2.71173,2.32434 -1.54955,-0.77478 -4.26128,3.87389 0.38739,1.54955 -2.32434,1.93695 -0.38739,1.54955 -1.16216,1.16217 -0.38739,-0.77478 -1.16217,0.38739 -1.16217,1.54956 -1.93694,3.87389 0.38739,2.71172 -0.77478,1.93695 -0.77478,0.77477 -1.54956,0.38739 v 1.16217 l -1.16216,2.71172 v 1.54956 l 1.16216,0.77478 -0.38738,3.87389 -1.54956,0.77478 v 5.42344 l 1.54956,0.77478 0.38738,3.09911 -1.54955,1.16217 1.54955,5.42345 1.54956,0.38738 1.54956,2.71173 v 0.77478 l -1.16217,1.16216 3.09911,5.42345 1.16217,1.16217 1.16217,-0.77478 2.71172,3.4865 -0.38739,1.54956 5.42345,5.03605 1.54955,-0.77478 2.32434,1.93695 v 1.54956 l 4.64866,2.32433 1.16217,-0.77478 3.4865,0.77478 0.38739,1.93694 2.32434,0.77478 3.4865,0.38739 0.77477,-1.16217 h 1.93695 l 0.38739,0.38739 -1.16217,0.38739 0.77478,0.38739 0.38739,-0.38739 0.38739,0.38739 -0.38739,-0.38739 0.77478,-0.38739 0.38739,1.16217 1.16216,0.38739 h 3.87389 l 2.32434,-1.93695 h 1.93694 l 0.77478,1.16217 h 1.16217 l 4.26128,-1.16217 1.16216,-1.93694 1.93695,-0.77478 1.16217,0.77478 h 1.16216 l 3.87389,-1.93695 0.77478,-0.77477 -0.38739,-1.16217 2.32434,-1.54956 1.93694,0.38739 2.32434,-1.93694 0.38738,0.38739 -0.38738,-0.38739 1.54955,-1.54956 v -1.54955 l 2.71172,-1.16217 0.38739,-3.09911 0.77478,-0.77478 1.16217,0.38739 1.16217,-1.16217 2.71172,-4.64867 -0.77478,-2.71172 1.16217,-2.32434 1.93694,-0.38738 1.16217,-5.81084 -1.16217,-0.77478 v -2.32433 l 1.93695,-2.32434 -0.38739,-0.38738 v -4.64867 l -1.16217,-0.77478 -0.38739,-1.16217 v -2.32433 l 1.16217,-1.16217 -1.54956,-5.42345 h -1.54955 l -0.77478,-1.16216 -0.77478,-2.32434 0.77478,-0.77477 v -1.16217 l -1.93695,-3.09911 0.38739,-0.77478 -0.38739,0.38739 -3.4865,-5.03606 -1.54955,0.38739 -1.54956,-1.54956 0.38739,-1.93694 -3.87389,-3.4865 -2.32433,0.38739 -1.93695,-1.54956 v -1.54956 l -4.26128,-2.32433 h -1.16217 l -1.16216,0.77478 -1.16217,-0.77478 0.38739,-0.38739 -0.38739,0.38739 -1.54956,-0.38739 -0.38738,-1.54956 -2.32434,-0.77477 -3.4865,-0.38739 -0.77478,1.16216 -2.71172,-0.38738 -1.16217,-1.54956 z m -0.38739,25.18029 h 5.81083 l 0.38739,0.38738 h 1.54956 l 0.38739,0.38739 h 1.16216 l 1.16217,0.77478 -0.38739,0.38739 h -0.38739 0.38739 l 0.38739,-0.38739 h 0.77478 l 0.38739,0.38739 h 0.38739 l 0.77477,0.77478 h 0.38739 l 0.77478,0.77478 h 0.38739 l 0.77478,0.77477 -0.38739,0.38739 0.38739,0.38739 0.38739,-0.38739 2.71172,2.71173 v 0.38739 l 0.77478,0.77477 v 0.38739 l 0.38739,0.38739 v 0.38739 l 0.38739,0.38739 v 0.38739 l 0.77477,1.16217 v 0.77477 l 0.38739,0.38739 v 0.77478 l 0.38739,0.38739 v 2.32433 l 0.38739,0.38739 v 2.71173 l -0.38739,0.38739 v 1.93694 l -0.38739,0.38739 v 0.77478 l -0.38739,0.38739 v 0.77477 l -0.38739,0.38739 -0.38738,1.16217 -0.77478,0.77478 h -1.54956 l -0.77478,0.77478 v 0.38739 l -0.38739,0.38738 v 1.16217 l 0.38739,0.38739 v 0.77478 l -0.38739,0.38739 h -0.38738 l -1.54956,1.54955 -0.38739,-0.38739 0.38739,0.38739 -0.38739,0.38739 h -0.38739 l -0.77478,0.77478 h -0.38739 l -0.38738,0.38739 h -0.38739 l -0.38739,0.38739 h -0.38739 l -1.16217,0.77478 h -0.77478 l -0.38739,0.38739 h -1.16216 l -0.38739,0.38739 h -1.54956 l -0.38739,0.38738 h -4.26128 l -0.38738,-0.38738 h -1.54956 l -0.38739,-0.38739 h -0.77478 l -0.38739,-0.38739 h -0.77478 l -0.38738,-0.38739 h -0.77478 l -0.38739,-0.38739 h -0.38739 l -0.77478,-0.77478 h -0.38739 l -0.38739,-0.38739 h -0.38739 l -0.77477,-0.77478 h -0.38739 l -0.77478,-0.77477 v -1.16217 l -0.38739,0.38739 h -0.38739 l -2.32433,-2.32434 -0.38739,-1.16216 -0.77478,-0.77478 v -0.38739 l -0.77478,-1.16217 v -0.77478 l -0.38739,-0.38738 v -0.77478 l -0.38739,-0.38739 v -1.54956 l -0.38738,-0.38739 v -5.42344 l 0.38738,-0.38739 v -1.16217 l 0.38739,-0.38739 v -1.16216 l 0.77478,-1.16217 v -0.77478 l 0.38739,-0.38739 v -0.38739 l 0.77478,-0.77478 v -0.38738 l 0.77478,-0.77478 v -0.38739 l 1.93694,-1.93695 h 0.38739 l 0.38739,0.38739 v 0.77478 l 0.38739,0.38739 h 0.38739 v -2.71172 l 0.77478,-0.77478 h 0.38738 l 0.77478,-0.77478 h 0.38739 l 0.38739,-0.38739 h 0.38739 l 1.16217,-0.77478 h 0.77477 l 0.38739,-0.38739 h 0.77478 l 0.38739,-0.38739 h 1.54956 z"
     fill="#000000"
     fill-rule="evenodd"
     id="path34"
     style="stroke-width:0.387389" />
  <path
     d="m 44.559279,66.797915 1.54956,8.90994 27.504619,-2.71172 150.694322,4.26128 -1.54955,7.36039 12.78383,8.13517 -5.81083,8.135165 -14.72078,0.77478 -8.90995,-8.135165 -54.23446,1.93694 -16.65773,19.756835 -12.39645,1.93695 -50.360572,27.11723 -24.018119,13.17123 10.4595,12.78383 20.919009,26.34246 h 4.26128 l 3.09911,-13.55862 6.198232,-5.81083 -2.32434,-5.03606 13.94601,-13.17123 23.24334,-6.58561 28.2794,5.42345 15.49556,14.33339 6.58561,24.40551 h 15.49556 l 8.13517,-25.56768 14.33339,-13.17122 22.46856,-5.42345 27.50462,5.42345 15.49557,14.33339 6.19822,18.20728 h 41.06324 l 6.58561,-18.59467 13.17122,-12.39645 24.01812,-6.973 27.89201,5.42345 15.49556,13.946 6.97301,24.7929 6.58561,5.03605 h 18.20728 l 6.58562,-5.03605 8.90994,-26.34246 13.55862,-12.39644 22.08117,-5.42345 28.2794,5.81083 15.10817,13.55862 6.58562,18.59467 h 18.20728 l 3.87389,-5.42344 6.973,-0.38739 9.68473,6.19822 6.973,-6.58561 -6.19823,-12.78384 -5.81083,-1.93694 7.74778,-11.23429 -13.55862,-38.7389 -30.99112,-7.36039 -7.36039,-9.29733 -48.03624,-3.873889 -2.71172,-13.558616 h -4.64867 l -2.71172,14.333386 -94.13553,-2.32433 -8.13517,-20.531616 21.3064,-3.4865 -3.48651,-13.946 3.48651,-13.55862 -99.17159,-6.973 v -12.00906 l 13.55861,3.4865 2.32434,-3.4865 12.39645,-1.16217 v -7.36039 l -7.3604,-2.32433 -32.92806,-0.38739 -0.38739,3.09911 -11.62167,0.38739 -2.71172,-3.87389 -3.09912,4.26128 h -37.57673 l -0.77478,2.71172 34.47762,0.77478 0.77478,3.4865 20.91901,-2.32433 6.973,6.58561 -0.77478,12.00906 30.99112,1.54955 v 5.03606 l -49.58579,0.38739 -6.58561,-7.36039 -1.16217,6.973 -19.36945,3.4865 -0.77478,-5.03605 -14.33339,5.03605 -3.87389,8.52256 -156.117772,4.64867 -27.504619,-3.09911 z M 586.9039,178.36594 h 0.77478 l 0.38739,0.38739 h 0.38739 l 0.38738,0.38739 h 0.38739 l 1.54956,1.54956 v 0.77478 l 0.38739,0.38738 v 2.32434 l -0.38739,0.38739 v 0.38739 l -1.54956,1.54955 h -0.77477 l -0.38739,0.38739 h -1.93695 l -0.38739,-0.38739 h -0.77478 l -1.54955,-1.54955 v -0.38739 l -0.38739,-0.38739 v -2.71172 l 0.38739,-0.38739 v -0.38739 l 1.54955,-1.54956 h 0.38739 l 0.38739,-0.38739 h 0.77478 z m -8.90995,-1.93694 h 1.16217 l 0.38739,0.38739 h 0.77478 l 0.38739,0.38739 v 0.77477 l -0.38739,0.38739 v 0.38739 l -0.38739,0.38739 v 0.38739 l -0.38739,0.38739 v 0.38739 l -0.38739,0.38739 h -0.38739 l -0.38739,-0.38739 h -0.38739 l -0.38739,-0.38739 h -0.38739 l -0.38738,-0.38739 v -0.38739 l 0.38738,-0.38739 0.38739,0.38739 -0.38739,-0.38739 v -0.38739 l -0.38738,-0.38739 v -0.38738 z m -161.92861,-72.05436 0.38739,-0.38739 h 18.59468 l 0.38739,0.38739 v 6.19823 l -0.38739,0.38739 h -18.59468 l -0.38739,-0.38739 z m -80.57691,-1.16217 0.38739,-0.38738 h 9.68472 l 0.38739,0.38738 -0.38739,0.38739 h -9.29733 v 11.23429 h 26.34245 v -11.23429 h -11.62167 l -0.38739,-0.38739 0.38739,-0.38738 h 12.00906 l 0.38739,0.38738 v 12.00906 l -0.38739,0.38739 h -27.11723 l -0.38739,-0.38739 z m -177.42417,-2.32433 0.38739,-0.38739 h 18.59467 l 0.38739,0.38739 v 6.19823 l -0.38739,0.38738 h -18.59467 l -0.38739,-0.38738 z M 60.054839,66.797915 h 0.38739 l 0.38739,0.38739 h 0.38739 l 0.38739,0.38739 v 3.09911 l -0.77478,0.77478 h -0.38739 l -1.16217,-1.16217 v -1.54956 l 0.38739,-0.38739 v -0.38739 l 0.38739,-0.38738 -0.38739,-0.38739 z m -1.54956,-0.38739 h 0.77478 l 0.38739,0.38739 -0.38739,0.38739 h -0.38739 v 0.38739 l 0.38739,0.38738 -0.38739,0.38739 v 1.54956 l 0.38739,0.38739 -0.38739,0.38739 v 0.38739 h 1.16217 l 0.38739,0.38739 -0.38739,0.38738 h -1.54956 l -0.38738,-0.38738 v -0.77478 l -0.38739,-0.38739 v -2.32434 l 0.38739,-0.38738 v -0.77478 z m -9.68472,-0.38739 h 4.64867 l 0.38739,0.38739 v 0.38739 l 0.38739,0.38739 v 4.26128 l -1.16217,1.16216 h -0.38739 l -0.38739,-0.38739 h -3.87389 l -0.38739,-0.38739 v -1.54955 l -0.38739,-0.38739 v -1.54956 l 0.38739,-0.38739 v -1.16216 z m 338.190611,-3.09911 -0.38739,0.38739 H 385.849 l -0.38739,-0.38739 h -0.77478 l -0.38738,0.38739 h -4.64867 l -0.38739,0.38739 H 378.876 l -0.38739,-0.38739 h -1.93695 l -0.38738,-0.38739 h -3.09912 l -0.38739,0.38739 h -10.07211 l -0.38739,-0.38739 h -0.77478 l -0.38739,-0.38739 h -1.93694 l -1.16217,0.77478 h -18.98206 l -0.38739,-0.38739 v -0.77478 l -0.77478,-1.16217 v -0.77478 l -0.38739,-0.38738 v -0.77478 l -0.38738,-0.38739 v -0.77478 l -0.38739,-0.38739 v -0.77478 l -0.38739,-0.38739 v -0.77477 l -0.77478,-1.16217 v -0.77478 l 0.38739,-0.38739 h 44.93712 l 0.38739,-0.38739 h 5.42345 l 0.38739,0.38739 z m 3.87389,-10.45951 h 1.93694 l 0.38739,0.38739 h 0.38739 -0.38739 l -0.38739,-0.38739 0.38739,-0.38738 h 1.54956 l 0.38739,0.38738 v 0.38739 l -0.38739,0.38739 -0.38739,-0.38739 0.38739,0.38739 v 1.16217 l -0.77478,0.77478 v 0.38739 l -0.38739,0.38739 v 3.4865 l 0.38739,0.38739 v 0.77477 l 0.38739,0.38739 v 0.77478 l 0.38739,0.38739 v 0.77478 l 0.38739,0.38739 -0.38739,0.38739 h -3.09911 l -0.38739,-0.38739 0.38739,-0.38739 h 2.32433 -2.32433 l -0.38739,-0.38739 v 0.38739 l -0.38739,0.38739 -0.38739,-0.38739 v -10.07212 z m -0.38739,-4.26127 v -0.77478 l 0.38739,-0.38739 h 1.54955 l 0.38739,0.38739 h 2.71173 l 0.38739,0.38739 -0.38739,0.38739 h -1.54956 l -0.38739,0.38738 h -2.71172 z m -58.88313,0.77477 v -1.93694 l 0.38739,-0.38739 h 49.58579 l 0.38739,0.38739 h 4.64867 l 0.38739,0.38739 -0.38739,0.38739 v 1.16216 l -0.38739,0.38739 h -6.58561 l -0.38739,0.38739 h -3.09911 l -0.38739,-0.38739 h -2.71173 l -0.38739,0.38739 h -38.35151 l -0.38739,-0.38739 h -1.93694 z m -63.14441,-24.4055 0.38739,-0.38739 h 7.36039 l 0.38739,0.38739 -0.38739,0.38738 h -7.36039 z m 56.5588,-4.26128 h 1.16216 l 0.38739,0.38739 v 2.71172 l -0.38739,0.38739 h -0.38739 l -0.38738,-0.38739 h -0.77478 l -0.38739,-0.38739 v -1.93695 z"
     fill="#000000"
     fill-rule="evenodd"
     id="path35"
     sodipodi:nodetypes="ccccccccccccccccccccccccccccccccccccccccccccccccccccccccccccccccccccccccccccccccccccccccccccccccccccccccccccccccccccccccccccccccccccccccccccccccccccccccccccccccccccccccccccccccccccccccccccccccccccccccccccccccccccccccccccccccccccccccccccccccccccccccccccccccccccccccccccccccccccccccccccccccccccccccccccccccccccccccccccccccccccccccccccccccccccccccccccccccccccccccccccccccccccccc"
     style="stroke-width:0.387389" />
</svg>
