<svg xmlns="http://www.w3.org/2000/svg" width="1448" height="1086" viewBox="0 0 1448 1086">
<rect width="100%" height="100%" fill="white"/>
<path d="M 1397,446 L 1333,442 L 1326,431 L 1319,442 L 527,435 L 482,445 L 486,452 L 365,503 L 353,502 L 338,489 L 59,516 L 52,523 L 52,544 L 62,590 L 63,675 L 81,678 L 309,582 L 328,579 L 361,590 L 356,591 L 378,590 L 420,544 L 464,531 L 460,529 L 482,533 L 497,559 L 519,561 L 549,554 L 563,520 L 605,511 L 697,511 L 731,517 L 705,516 L 876,510 L 879,521 L 896,524 L 994,519 L 997,524 L 1021,519 L 1059,519 L 1063,524 L 1075,519 L 1122,521 L 1143,509 L 1232,508 L 1194,510 L 1232,510 L 1237,515 L 1248,515 L 1253,508 L 1324,510 L 1331,490 L 1323,474 L 1253,477 L 1252,472 L 1392,468 Z M 510,555 L 509,556 L 507,556 L 506,555 L 502,555 L 501,554 L 502,553 L 506,553 L 507,552 Z M 498,527 L 499,527 L 500,528 L 500,532 L 501,533 L 501,544 L 502,545 L 502,546 L 503,547 L 503,548 L 506,551 L 505,552 L 504,552 L 503,551 L 501,551 L 500,550 L 498,552 L 497,552 L 496,551 L 496,550 L 497,549 L 496,548 L 496,547 L 497,546 L 498,546 L 497,546 L 496,547 L 496,548 L 495,549 L 494,548 L 494,547 L 493,546 L 493,544 L 492,543 L 492,538 L 493,537 L 494,538 L 494,540 L 494,538 L 493,537 L 493,534 L 494,533 L 495,534 L 495,536 L 495,535 L 496,534 L 497,534 L 497,533 L 496,532 L 497,531 L 496,530 L 496,529 Z M 547,528 L 547,529 L 548,530 L 548,531 L 549,532 L 549,535 L 550,536 L 550,540 L 549,541 L 549,544 L 548,545 L 548,546 L 547,547 L 546,546 L 544,546 L 544,548 L 545,549 L 542,552 L 541,552 L 540,551 L 539,551 L 540,551 L 541,552 L 540,553 L 538,553 L 537,554 L 527,554 L 526,553 L 525,553 L 524,552 L 517,552 L 516,553 L 524,553 L 525,554 L 524,555 L 512,555 L 511,554 L 512,553 L 512,551 L 511,551 L 510,550 L 511,549 L 511,546 L 510,546 L 509,545 L 509,544 L 509,545 L 508,546 L 507,545 L 507,543 L 506,542 L 506,537 L 507,536 L 507,534 L 508,533 L 509,534 L 509,535 L 510,534 L 511,534 L 510,533 L 510,532 L 509,531 L 511,529 L 512,530 L 513,529 L 514,529 L 516,527 L 517,527 L 518,526 L 519,526 L 518,526 L 517,525 L 518,524 L 520,524 L 521,523 L 522,524 L 523,524 L 522,524 L 521,523 L 522,522 L 527,522 L 528,521 L 536,521 L 537,522 L 536,523 L 530,523 L 536,523 L 537,522 L 539,522 L 540,523 L 539,524 L 538,524 L 539,524 L 540,523 L 541,523 L 542,524 L 541,525 L 542,524 L 543,524 Z M 733,471 L 734,470 L 744,470 L 745,471 L 771,471 L 772,470 L 784,470 L 785,471 L 813,471 L 814,470 L 824,470 L 825,471 L 839,471 L 840,470 L 846,470 L 848,472 L 847,473 L 734,473 L 733,472 Z M 878,471 L 879,470 L 882,470 L 883,469 L 886,469 L 887,470 L 888,470 L 889,471 L 888,472 L 882,472 L 881,473 L 880,473 Z M 1110,471 L 1111,470 L 1119,470 L 1118,469 L 1119,468 L 1228,468 L 1229,469 L 1229,470 L 1230,471 L 1230,472 L 1229,473 L 1229,474 L 1228,475 L 1231,475 L 1232,476 L 1231,477 L 1137,477 L 1136,476 L 1137,475 L 1136,476 L 1135,476 L 1134,475 L 1135,474 L 1134,475 L 1131,475 L 1130,474 L 1126,474 L 1125,473 L 1118,473 L 1117,472 L 1111,472 Z M 1079,469 L 1080,468 L 1106,468 L 1107,469 L 1107,470 L 1106,471 L 1097,471 L 1096,472 L 1096,473 L 1095,474 L 1094,474 L 1092,472 L 1092,471 L 1091,471 L 1090,470 L 1089,470 L 1088,471 L 1087,471 L 1086,470 L 1085,470 L 1086,470 L 1087,471 L 1087,472 L 1085,474 L 1083,472 L 1083,471 L 1082,470 L 1080,470 Z M 1049,471 L 1049,469 L 1050,468 L 1077,468 L 1078,469 L 1077,470 L 1076,470 L 1075,471 L 1074,471 L 1073,470 L 1070,470 L 1068,472 L 1067,471 L 1064,471 L 1063,470 L 1062,470 L 1061,471 L 1060,471 L 1060,472 L 1058,474 L 1056,472 L 1056,471 L 1055,470 L 1053,470 L 1052,471 L 1051,471 L 1050,472 Z M 1024,470 L 1024,469 L 1025,468 L 1045,468 L 1046,469 L 1045,470 L 1044,470 L 1043,471 L 1042,471 L 1041,470 L 1039,470 L 1038,471 L 1037,470 L 1035,470 L 1032,473 L 1031,473 L 1028,470 L 1027,470 L 1026,471 L 1025,471 Z M 1001,470 L 1003,468 L 1021,468 L 1022,469 L 1022,470 L 1021,471 L 1020,471 L 1019,470 L 1018,470 L 1017,471 L 1016,471 L 1015,472 L 1014,471 L 1013,471 L 1012,472 L 1011,471 L 1010,471 L 1009,470 L 1008,471 L 1007,471 L 1004,474 L 1003,473 L 1003,472 Z M 966,469 L 967,468 L 991,468 L 992,469 L 991,470 L 989,470 L 988,471 L 987,471 L 987,472 L 986,473 L 985,472 L 985,471 L 985,472 L 984,473 L 983,472 L 983,471 L 982,471 L 981,470 L 979,470 L 977,472 L 977,473 L 976,474 L 975,474 L 974,473 L 974,472 L 973,471 L 972,471 L 971,470 L 970,471 L 968,471 Z M 961,469 L 962,468 L 965,468 L 966,469 L 966,470 L 967,470 L 968,471 L 968,472 L 966,474 L 965,473 L 965,472 L 964,471 L 963,471 Z M 956,468 L 958,468 L 959,469 L 960,469 L 961,470 L 960,471 L 959,471 L 959,472 L 957,474 L 956,473 L 956,472 L 957,471 L 956,472 L 954,470 Z M 945,470 L 947,468 L 950,468 L 952,470 L 951,471 L 948,471 L 947,472 Z M 903,470 L 904,469 L 908,469 L 909,468 L 941,468 L 943,470 L 941,472 L 941,473 L 940,474 L 939,474 L 938,473 L 938,472 L 937,471 L 936,471 L 935,470 L 934,470 L 933,471 L 932,471 L 932,472 L 931,473 L 930,472 L 930,470 L 930,472 L 929,473 L 927,471 L 923,471 L 922,472 L 922,473 L 921,474 L 920,474 L 918,472 L 918,471 L 914,471 L 913,472 L 913,473 L 912,474 L 911,474 L 909,472 L 909,471 L 904,471 Z M 904,469 L 903,470 L 902,470 L 901,471 L 892,471 L 891,470 L 892,469 L 900,469 L 901,468 L 903,468 Z M 608,454 L 609,455 L 609,457 L 610,458 L 610,460 L 609,461 L 608,460 L 608,459 L 607,458 L 607,455 Z M 608,452 L 610,450 L 611,451 L 613,451 L 614,450 L 623,450 L 613,450 L 612,449 L 613,448 L 690,448 L 691,449 L 692,449 L 694,451 L 694,452 L 695,453 L 695,460 L 691,464 L 690,464 L 689,465 L 614,465 L 613,464 L 612,464 L 611,463 L 612,462 L 610,460 L 610,455 L 609,455 L 608,454 Z" fill="black" fill-rule="evenodd"/>
</svg>