<svg xmlns="http://www.w3.org/2000/svg" viewBox="0 0 136 68" width="136" height="68">
  <path d="M 4.00 18.00 L 4.00 28.00 L 6.00 30.00 L 9.00 28.00 L 12.00 28.00 L 13.00 34.00 L 16.00 34.00 L 18.00 31.00 L 24.00 30.00 L 26.00 36.00 L 29.00 34.00 L 30.00 29.00 L 38.00 29.00 L 41.00 27.00 L 45.00 28.00 L 50.00 27.00 L 53.00 28.00 L 83.00 28.00 L 84.00 29.00 L 84.00 40.00 L 81.00 49.00 L 80.00 57.00 L 77.00 58.00 L 77.00 60.00 L 83.00 60.00 L 83.00 55.00 L 87.00 43.00 L 90.00 44.00 L 92.00 49.00 L 92.00 56.00 L 96.00 57.00 L 99.00 55.00 L 94.00 50.00 L 94.00 46.00 L 91.00 38.00 L 91.00 29.00 L 92.00 28.00 L 110.00 25.00 L 117.00 25.00 L 118.00 27.00 L 129.00 26.00 L 132.00 24.00 L 132.00 20.00 L 129.00 19.00 L 109.00 20.00 L 101.00 18.00 L 90.00 18.00 L 89.00 14.00 L 86.00 14.00 L 85.00 16.00 L 57.00 16.00 L 56.00 12.00 L 54.00 13.00 L 54.00 17.00 L 52.00 19.00 L 43.00 19.00 L 39.00 17.00 L 27.00 17.00 L 23.00 16.00 L 20.00 13.00 L 14.00 14.00 L 13.00 17.00 L 6.00 16.00 Z" fill="#000000" stroke="#000000" stroke-width="0.5" fill-rule="evenodd" clip-rule="evenodd"/>
</svg>
