<?xml version="1.0" encoding="UTF-8" standalone="no"?>
<svg
   width="800"
   height="250"
   viewBox="0 0 800 250"
   version="1.1"
   id="svg1"
   sodipodi:docname="mg34_black.svg"
   inkscape:version="1.4.2 (f4327f4, 2025-05-13)"
   xmlns:inkscape="http://www.inkscape.org/namespaces/inkscape"
   xmlns:sodipodi="http://sodipodi.sourceforge.net/DTD/sodipodi-0.dtd"
   xmlns="http://www.w3.org/2000/svg"
   xmlns:svg="http://www.w3.org/2000/svg">
  <defs
     id="defs1" />
  <sodipodi:namedview
     id="namedview1"
     pagecolor="#ffffff"
     bordercolor="#000000"
     borderopacity="0.25"
     inkscape:showpageshadow="2"
     inkscape:pageopacity="0.0"
     inkscape:pagecheckerboard="0"
     inkscape:deskcolor="#d1d1d1"
     inkscape:zoom="0.76505568"
     inkscape:cx="755.50057"
     inkscape:cy="322.19877"
     inkscape:window-width="2560"
     inkscape:window-height="1377"
     inkscape:window-x="-8"
     inkscape:window-y="-8"
     inkscape:window-maximized="1"
     inkscape:current-layer="svg1" />
  <path
     id="path1"
     d="m 499.58284,32.486717 -53.13278,0.526077 -3.1564,32.61616 -1.05214,-3.682479 -6.83887,6.838879 v 6.312801 l -31.56404,-0.526064 -6.31279,-23.673022 -5.78676,1.578206 v 11.573472 l -7.891,10.521344 -203.58799,-1.05213 -19.99055,-7.364943 -1.33913,-27.07253 -7.08198,-3.722316 -2.10024,30.794846 -52.686411,4.288229 -13.51836,-1.291214 -2.183966,8.050393 -43.247297,-0.285779 -1.427003,7.410438 1.942716,5.594127 41.153383,-0.09321 h 1.578201 l 1.052131,8.417068 c 14.325982,0.875031 32.094086,4.08241 45.830216,4.36758 l 14.88962,2.03215 9.51219,1.39811 0.47263,6.54983 3.99689,9.32535 -5.26067,18.49969 -0.91241,3.20881 -25.39096,89.29172 13.67775,-1.57821 23.14697,-79.43614 5.78673,1.5782 21.56875,66.28447 12.09955,-0.52607 -28.40763,-96.79636 3.68247,-13.15168 1.18576,-3.34901 1.88782,-2.59615 13.76058,-4.576184 77.33186,1.578204 14.72989,0.52607 94.16602,4.20854 4.20854,6.83887 51.02852,-2.63034 6.31279,5.78675 65.7584,-3.15641 13.67775,28.93369 31.03797,0.52606 12.62562,31.56403 17.36021,2.63035 5.26066,-3.15641 1.05215,-15.25595 -12.09955,-27.88155 5.78674,-4.73461 17.36022,1.57821 7.891,-1.05214 0.52606,-11.57348 97.8485,1.57821 7.36495,6.3128 13.67775,6.83888 33.14222,17.88627 6.31281,-53.658843 11.04741,-18.938418 -3.1564,-7.364943 -11.04741,-2.104271 -42.61145,16.30808 -73.64939,0.526078 0.52606,-6.312814 -11.57348,-1.05213 -2.10427,-5.786736 -5.78673,1.578194 -1.05214,7.364943 -117.83904,-6.312802 -27.88157,-7.364942 -6.31281,4.734607 -23.14695,-0.526078 -0.52607,-18.412337 48.39818,-1.578207 z m -348.64281,111.139913 0.91241,-3.20881 z m 2.17619,-31.03385 c -125.415639,-262.1253 -125.415639,-262.1253 0,0 z M 119.23628,71.41569 h 6.31279 l 0.52608,0.526064 -0.52608,0.526066 h 0.52608 l 0.52608,0.526077 -0.52608,0.526064 0.52608,0.526065 -0.52608,0.526065 -6.82852,-0.288907 -0.53642,-2.34143 z m 16.83414,0 h 3.1564 l 0.52608,0.526064 -0.52608,0.526066 h -2.10426 l -0.52607,0.526077 h -0.52607 l -0.52606,-0.526077 v -0.526066 z m 48.39818,10.521344 h 6.31281 l 1.14922,-0.01149 6.4306,0.04303 1.2885,0.858742 0.10738,0.998796 -0.0325,0.740968 v 1.052128 l -1.69599,2.007974 -0.93434,0.09627 h -12.62562 l -0.67648,-0.05338 -0.90171,-0.472745 -0.52608,-0.526064 -0.87066,-1.106253 0.3446,-2.050148 1.05214,-1.052141 0.79427,-0.343812 z m 43.13752,0.505137 1.01227,0.404511 0.70841,0.243107 0.38358,1.477581 v 1.578207 l -0.52607,0.526064 -1.05212,1.05213 h -0.52607 l -0.52608,0.526064 h -13.15168 l -0.52606,-0.526064 h -0.52607 l -1.05213,-1.05213 V 85.6195 l 0.44011,-1.29963 1.51743,-1.856989 z m 29.58131,0.526065 c 0.60187,0.167277 0.92269,0.123852 1.40491,0.406988 0.25202,0.147997 0.91258,0.495663 0.8989,0.772441 0.17805,0.721201 0.13961,0.666081 0.29188,1.106777 0.14459,0.418467 0.23078,0.86459 0.26458,1.309129 -0.32676,1.445915 -0.37118,1.472397 -1.54037,2.121482 l -1.44146,0.09091 h -13.67775 l -0.82995,0.02094 -0.9819,-0.425451 -0.29241,-1.173683 v -1.578207 l -0.20327,-0.647618 0.52608,-1.054147 1.39788,-0.871816 z m 30.26879,0.748245 1.17569,1.2554 0.58686,1.274322 -0.1614,0.890726 0.0607,0.404511 0.16139,1.276327 -1.35803,0.465287 -4.638,0.383584 -10.43561,-0.36466 -1.05214,-1.052143 -0.68949,-2.045499 1.43774,-2.4311 z m 15.35656,0 14.22475,0.423434 2.91531,2.856551 -0.42544,1.314146 c -0.13446,0.723385 -0.0585,1.590005 -1.78146,2.024585 l -13.33403,-0.507155 h -2.10426 c -1.89693,-0.191039 -2.19332,-1.915072 -2.20691,-3.361675 -0.15384,-1.77895 1.63408,-2.048781 2.71204,-2.749886 z m 45.08039,2.305524 0.0154,2.522406 -1.15337,2.067551 -1.83606,0.268207 -13.15168,-0.526063 c -0.62737,0.08006 -1.25474,0.03703 -1.88209,-0.788094 -0.32696,-0.737328 -0.6327,-1.62213 -0.50834,-2.472061 -0.406,-2.047274 1.76655,-2.82343 1.96498,-2.811556 l 8.05935,-0.108147 c 3.25833,0.235102 5.85397,-0.354178 8.70672,2.062558 z M 362.80538,85.6195 h 2.63034 l 1.64344,0.09627 7.52493,0.08593 1.35296,1.39594 v 2.630336 l -1.05214,1.052133 -0.70831,0.429771 -0.86989,0.09622 h -11.57347 l -0.8269,-0.225245 -0.75129,-0.300835 -1.05214,-1.052131 v -1.578207 l 0.0962,-0.912852 1.05213,-1.05213 0.8269,-0.440109 0.70833,-0.04303 z m 217.79181,31.03796 h 1.5782 l 1.05214,1.05214 v 1.05213 l -1.05214,1.05213 h -1.5782 l -0.52607,-0.52606 0.52607,-0.52607 h 1.05213 l -0.52606,-0.52606 0.52606,-0.52607 h -1.05213 l -0.52607,-0.52607 z m -55.76312,6.31281 h 7.89101 c 1.14619,1.06475 1.70368,2.63384 2.43854,3.99581 6.08054,2.42097 1.99621,7.59859 1.99621,7.59859 -0.92738,1.53763 -1.77315,2.76992 -2.88121,4.16295 0.0514,4.8e-4 0.10278,5.3e-4 0.15411,0.001 0.20454,0.001 0.40889,-0.003 0.61342,-0.004 0.11236,0.001 0.22487,0.003 0.33699,0 0.69253,-0.51643 1.43196,-1.08191 2.13731,-1.58078 l 0.99136,-1.02175 c 1.49505,-1.3761 2.22997,-2.87704 2.84306,-4.73459 l 0.31334,-1.57821 v -4.20853 l 1.05214,-1.05214 h 0.52608 l 1.05212,1.05214 1.05213,1.5782 c 0.37987,0.52156 0.48999,0.96406 0.52608,1.5782 v 5.26067 l -0.52608,0.52606 v 0.52607 l -0.52606,0.52606 v 0.52607 l -2.63034,2.63033 h -0.52607 l -0.52606,0.52609 h -3.1564 -2.10427 -2.10427 -7.36494 c -2.75058,-1.36131 -5.70414,-2.49572 -5.78674,-6.83889 l 0.52606,-5.26066 0.52606,-1.05213 z"
     sodipodi:nodetypes="cccccccccccccccccccccccccccccccccccccccccccccccccccccccccccccccccccccccccccccccccccccccccccccccccccccccccccccccccccccccccccccccccccccccccccccccccccscscccccccccccccccccccccccccccccccccccccccccccccccccccccccccccccccccccccccccccccccccccccccccccccccccccccccccccccccc"
     style="stroke-width:0.526067" />
</svg>
