<svg xmlns="http://www.w3.org/2000/svg" width="1448" height="1086" viewBox="0 0 1448 1086">
<rect width="100%" height="100%" fill="white"/>
<path d="M 1425,424 L 1419,410 L 1398,406 L 1317,437 L 1177,438 L 1178,426 L 1156,424 L 1152,413 L 1141,416 L 1139,430 L 915,418 L 862,404 L 850,413 L 806,412 L 805,377 L 897,374 L 897,346 L 796,347 L 790,409 L 788,402 L 775,415 L 775,427 L 715,426 L 703,381 L 692,384 L 692,406 L 677,426 L 290,424 L 252,410 L 255,359 L 242,351 L 232,410 L 130,420 L 108,412 L 102,431 L 26,420 L 21,455 L 26,464 L 99,455 L 101,467 L 102,455 L 104,471 L 184,464 L 221,480 L 246,477 L 236,505 L 237,495 L 246,516 L 186,727 L 162,741 L 180,744 L 193,764 L 202,744 L 224,739 L 212,724 L 256,573 L 267,576 L 308,702 L 299,715 L 318,717 L 327,735 L 337,717 L 354,715 L 331,701 L 277,517 L 284,492 L 274,484 L 282,474 L 294,481 L 316,472 L 463,475 L 481,488 L 491,476 L 670,484 L 678,497 L 775,492 L 787,503 L 912,497 L 938,552 L 997,553 L 1021,613 L 1054,618 L 1064,612 L 1066,583 L 1043,530 L 1054,521 L 1097,525 L 1087,524 L 1102,522 L 1103,500 L 1143,504 L 1150,519 L 1209,502 L 1289,503 L 1303,515 L 1299,536 L 1329,528 L 1392,562 L 1404,460 Z M 235,547 L 236,548 L 236,557 L 235,558 L 234,557 L 234,548 Z M 966,528 L 967,529 L 967,535 L 966,536 L 965,535 L 965,529 Z M 980,521 L 982,523 L 982,524 L 981,525 L 980,525 L 980,528 L 979,529 L 979,531 L 979,529 L 980,528 L 982,528 L 982,526 L 983,525 L 984,526 L 984,528 L 985,529 L 985,539 L 984,540 L 984,541 L 983,542 L 983,543 L 978,548 L 977,548 L 976,549 L 973,549 L 972,550 L 971,550 L 970,549 L 966,549 L 965,548 L 968,545 L 969,545 L 971,543 L 972,544 L 971,543 L 971,542 L 973,540 L 974,541 L 975,540 L 974,541 L 973,540 L 973,539 L 974,538 L 974,537 L 975,536 L 975,535 L 976,534 L 976,532 L 977,531 L 977,523 L 979,521 Z M 945,518 L 960,518 L 961,519 L 961,520 L 960,521 L 959,520 L 957,520 L 957,521 L 958,521 L 959,520 L 961,522 L 961,523 L 964,526 L 964,530 L 965,531 L 965,533 L 964,534 L 964,538 L 963,539 L 963,540 L 961,542 L 961,543 L 962,544 L 961,545 L 961,547 L 962,547 L 963,548 L 962,549 L 948,549 L 947,548 L 948,547 L 948,546 L 946,546 L 947,547 L 946,548 L 945,548 L 943,546 L 942,546 L 941,545 L 941,544 L 939,542 L 939,541 L 940,540 L 941,540 L 940,539 L 940,540 L 939,541 L 938,540 L 938,537 L 937,536 L 937,529 L 938,528 L 938,526 L 939,525 L 939,524 Z M 1150,508 L 1151,507 L 1165,507 L 1166,508 L 1166,513 L 1164,515 L 1153,515 L 1152,514 L 1154,512 L 1156,512 L 1154,510 L 1152,510 L 1152,512 L 1151,513 L 1150,512 Z M 1172,506 L 1173,507 L 1173,515 L 1172,516 L 1171,515 L 1171,507 Z M 1050,507 L 1051,506 L 1054,506 L 1056,508 L 1056,510 L 1054,512 L 1051,512 L 1050,511 L 1051,510 L 1053,510 L 1052,509 L 1053,508 L 1051,508 Z M 1170,506 L 1170,505 L 1171,504 L 1186,504 L 1187,505 L 1186,506 L 1172,506 L 1171,507 Z M 630,452 L 631,451 L 632,452 L 632,454 L 633,455 L 633,451 L 634,450 L 633,449 L 634,448 L 636,448 L 637,447 L 642,447 L 643,448 L 660,448 L 662,450 L 662,455 L 660,457 L 658,457 L 657,458 L 635,458 L 634,457 L 632,457 L 630,455 Z M 575,453 L 575,450 L 578,447 L 580,447 L 581,448 L 597,448 L 581,448 L 580,447 L 581,446 L 599,446 L 600,447 L 603,447 L 604,448 L 603,449 L 602,449 L 606,449 L 607,448 L 608,449 L 608,450 L 609,451 L 608,452 L 608,454 L 606,456 L 604,456 L 603,457 L 595,457 L 594,456 L 589,456 L 588,457 L 583,457 L 582,456 L 578,456 Z M 464,452 L 465,451 L 466,451 L 466,447 L 467,446 L 491,446 L 492,447 L 493,447 L 494,448 L 494,449 L 493,450 L 493,451 L 492,452 L 493,451 L 494,451 L 495,452 L 493,454 L 466,454 Z M 520,453 L 521,452 L 523,452 L 522,451 L 522,450 L 523,449 L 523,448 L 522,448 L 521,447 L 522,446 L 523,446 L 524,445 L 548,445 L 549,446 L 550,446 L 551,447 L 550,448 L 549,448 L 549,449 L 550,450 L 550,451 L 551,451 L 551,448 L 552,447 L 553,448 L 553,452 L 551,454 L 550,454 L 549,455 L 547,455 L 546,456 L 539,456 L 538,455 L 529,455 L 528,456 L 527,456 L 526,455 L 522,455 Z M 466,445 L 467,444 L 493,444 L 494,445 L 493,446 L 467,446 Z M 406,447 L 407,446 L 408,447 L 408,448 L 409,449 L 409,446 L 410,445 L 412,445 L 410,445 L 409,444 L 410,443 L 436,443 L 437,444 L 438,444 L 439,445 L 438,446 L 437,446 L 436,447 L 437,447 L 438,448 L 438,449 L 437,450 L 438,450 L 439,451 L 438,452 L 437,452 L 436,453 L 410,453 L 409,452 L 408,452 L 406,450 Z M 350,449 L 350,447 L 351,446 L 352,447 L 352,448 L 352,446 L 354,444 L 356,444 L 354,444 L 353,443 L 354,442 L 380,442 L 381,443 L 380,444 L 366,444 L 379,444 L 380,445 L 381,445 L 380,444 L 381,443 L 382,443 L 384,445 L 384,448 L 383,449 L 382,448 L 380,448 L 380,449 L 381,449 L 382,450 L 381,451 L 380,451 L 379,452 L 354,452 L 353,451 L 352,451 Z M 293,443 L 295,441 L 297,441 L 298,442 L 307,442 L 308,443 L 309,443 L 310,442 L 311,443 L 313,443 L 311,443 L 310,442 L 311,441 L 324,441 L 326,443 L 326,444 L 325,445 L 323,443 L 323,445 L 324,446 L 324,447 L 324,446 L 326,444 L 327,445 L 327,447 L 324,450 L 323,450 L 322,451 L 298,451 L 297,450 L 295,450 L 294,449 L 295,448 L 296,448 L 295,447 L 296,446 L 296,444 L 295,444 L 294,445 L 293,444 Z M 297,441 L 298,440 L 310,440 L 311,441 L 310,442 L 298,442 Z M 179,425 L 180,424 L 187,424 L 188,425 L 187,426 L 180,426 Z M 205,422 L 205,421 L 206,420 L 212,420 L 213,421 L 212,422 L 208,422 L 207,423 L 206,423 Z M 173,421 L 174,420 L 186,420 L 187,421 L 186,422 L 184,422 L 187,422 L 188,423 L 187,424 L 181,424 L 180,423 L 181,422 L 182,422 L 176,422 L 175,423 Z" fill="black" fill-rule="evenodd"/>
</svg>