<?xml version="1.0" encoding="UTF-8" standalone="no"?>
<svg
   width="850"
   height="250"
   viewBox="0 0 850 250"
   version="1.1"
   id="svg1"
   sodipodi:docname="mg42_black.svg"
   inkscape:version="1.4.2 (f4327f4, 2025-05-13)"
   xmlns:inkscape="http://www.inkscape.org/namespaces/inkscape"
   xmlns:sodipodi="http://sodipodi.sourceforge.net/DTD/sodipodi-0.dtd"
   xmlns="http://www.w3.org/2000/svg"
   xmlns:svg="http://www.w3.org/2000/svg">
  <defs
     id="defs1" />
  <sodipodi:namedview
     id="namedview1"
     pagecolor="#ffffff"
     bordercolor="#000000"
     borderopacity="0.25"
     inkscape:showpageshadow="2"
     inkscape:pageopacity="0.0"
     inkscape:pagecheckerboard="0"
     inkscape:deskcolor="#d1d1d1"
     inkscape:zoom="1.0819521"
     inkscape:cx="734.78298"
     inkscape:cy="418.22553"
     inkscape:window-width="2560"
     inkscape:window-height="1377"
     inkscape:window-x="-8"
     inkscape:window-y="-8"
     inkscape:window-maximized="1"
     inkscape:current-layer="svg1" />
  <path
     id="path1"
     d="m 127.55564,13.479995 -9.78189,2.30163 -1.72622,25.893243 -26.468651,6.904869 -10.932706,-5.754049 -19.563788,1.15081 -5.754056,6.904859 -32.798116,-2.30162 2.301622,20.139194 29.921088,-2.877025 6.904868,8.055679 29.921088,-2.301619 42.249601,7.480264 -5.42365,8.631084 4.02784,14.385146 -39.70298,130.61706 c 0,0 10.07798,7.02327 11.50811,7.48027 l 20.1392,-63.29462 5.17864,-14.96053 10.3573,-30.4965 8.05568,29.92109 11.09792,53.8892 2.71181,8.83 11.60589,-1.61046 -9.87967,-42.12036 -12.08352,-80.556783 4.60325,-12.658918 -0.56866,-5.952975 1.14406,-4.979729 44.88164,1.15081 15.53594,0.575405 66.74705,2.30162 20.13919,1.15082 154.78409,5.754049 8.63109,5.178655 37.1249,-4.304307 -0.29894,-0.298943 v -0.575405 h -1.72622 l -0.5754,-0.575405 h -2.30162 l -0.57542,-0.575405 0.57542,-0.575405 h 4.60324 l 0.5754,0.575405 h 8.63109 l 0.5754,0.575405 h 2.87703 l 0.5754,0.575405 -0.5754,0.575405 h -2.30162 l -1.15081,1.15081 h -3.45243 l -0.57541,0.575405 h -1.15082 l -0.5754,-0.575405 0.5754,-0.575405 h 0.57541 l -1.15081,-1.15081 -0.57541,0.575405 -1.09349,0.518093 -0.0573,0.0573 h -0.0641 l -9.71783,4.60325 18.41298,4.027834 -17.26217,5.754059 21.29,1.72622 -21.29,4.60324 17.26217,2.87704 -16.68677,6.90485 21.86542,3.45244 -21.29001,5.17865 21.86542,3.45244 -21.29002,5.75405 21.86542,3.45244 -21.29,5.17864 21.86541,3.45244 -21.29001,5.17865 22.44082,3.45243 -21.29001,5.75406 21.86541,2.87702 -21.29,5.17866 32.79811,2.87702 4.60325,-6.90487 -4.60325,-1.15081 4.02784,-5.17864 -8.63108,-66.747053 35.67514,1.150809 8.63108,27.619474 31.07191,0.5754 13.80973,23.01622 -1.15081,9.20649 19.56379,2.87704 5.17864,-17.83758 -14.96054,-30.49649 5.75405,-6.32946 27.04406,1.72621 4.02785,-11.508113 c 18.74682,1.898909 38.1213,1.645674 57.06406,2.20272 l 0.47649,-0.476506 h 9.20649 c 3.55911,1.740874 9.13974,0.964687 13.23433,1.15081 l 6.90487,6.329469 15.53594,11.50811 36.82596,17.83757 7.48027,-59.842177 10.93271,-14.385144 -0.57541,-8.631084 -10.9327,-6.904859 -54.08813,16.686753 -76.52894,-4.027834 1.04857,-10.830443 -1.04857,1.048548 h -1.15081 l -1.15081,-1.150809 v -1.15081 l 1.15081,-1.15082 h 1.15081 l 1.15081,1.15082 v 0.19217 l 0.57541,-5.94623 -16.11135,9.206489 -24.16704,1.15081 -2.87702,5.178655 -154.7841,-18.412979 -10.9327,12.083514 -37.97677,2.877025 -1.72621,-14.960539 -51.2111,1.726215 -2.30162,12.083514 5.21236,1.184525 -0.0337,-0.03373 c 0.40157,-0.34338 -250.87682,-2.877025 -250.87682,-2.877025 z m 551.81392,30.113269 -0.1022,1.0609 0.1022,-0.102302 z m 40.37731,52.646235 c 0,0 11.27046,0.332381 0,0 z m -215.94006,-7.95678 0.12138,-0.0573 0.44279,-0.442791 -1.92738,0.223651 0.27646,0.276452 z m 0.56417,-0.500103 0.6507,-0.07534 h -0.5754 z m 1.80151,-36.901259 h 6.90487 l 0.57541,0.575405 h 16.68676 l 0.5754,0.575405 -0.5754,0.575415 v 1.726215 l -0.57541,0.575405 h -0.5754 l -0.57541,-0.575405 v -0.575405 l 0.57541,-0.575405 v -0.575405 h -1.15081 l -0.57541,0.575405 h -3.45244 l -0.5754,-0.575405 h -12.65892 l -1.15081,1.15081 h -3.45244 l -0.5754,0.575405 -0.57541,-0.575405 v -1.726225 l 0.57541,-0.575405 z m 0,1.15081 v 0.575415 h 2.30163 l 0.57541,-0.575415 z m 23.59163,4.60325 1.15081,1.15081 h 1.15081 l 0.57541,0.575405 v 4.603249 l -0.57541,0.575405 h -1.72621 l -0.57541,-0.575405 v -4.027844 l -0.5754,-0.575405 v -1.15081 z m -408.53794,1.726215 1.79759,0.199346 7.4089,0.376059 0.5754,0.575404 0.57542,0.575405 v 2.30163 l -0.57542,0.575405 v 0.575405 l -0.5754,0.575405 -0.57541,0.575405 -0.5754,0.575405 h -1.72622 l -0.5754,0.575405 h -2.30162 l -0.57541,-0.575405 H 122.377 l -2.30163,-2.30162 v -3.45244 z m 21.86542,1.150809 h 2.30161 14.38514 l 0.57541,0.575405 v 0.575405 l 0.57541,0.575405 v 1.726225 l -0.57541,0.575405 v 1.15081 l -1.15082,1.15081 h -0.5754 l -0.57541,0.575405 h -4.02783 l -0.57541,-0.575405 h -9.20648 l -1.15081,-1.15081 -0.57541,-0.575405 v -0.575405 l -0.5754,-0.575405 v -2.30163 z m 28.77027,0.575405 h 11.50811 l 5.17865,0.01138 0.5754,0.564078 0.57542,0.575415 v 3.452429 l -1.15082,1.15081 -1.15081,1.15081 h -6.90486 -5.17866 -1.72621 l -1.15081,-1.15081 -1.15081,-1.15081 v -0.575405 l -0.57541,-0.575404 v -1.726215 l 0.57541,-0.575405 v -0.575415 z m 37.32657,0.492713 8.13046,0.658097 1.04548,0.246367 0.10534,1.479858 v 2.30162 l -0.59805,1.773225 -2.26765,0.64677 -8.06082,-0.01138 -7.10935,-0.340366 c -1.52146,-0.671843 -1.7467,-2.051891 -1.92728,-3.08942 0,0 0.003,-1.487669 0.65808,-2.9954 z m 19.63858,1.233502 h 12.65892 l 1.32751,0.05833 3.27573,0.517078 0.57541,0.575405 0.57541,0.575405 v 2.877025 l -2.30163,2.301619 h -5.75405 l -9.20649,-0.575407 -1.72621,-1.726215 v -0.575405 l -0.57541,-0.575405 v -1.726215 l 0.57541,-0.575405 v -0.575405 z m 28.77028,0.575415 h 5.17865 l 1.79759,0.105337 10.28592,0.470068 0.5754,0.575405 v 1.15081 l 0.57542,0.575405 v 1.15081 l -0.57542,0.575405 v 0.575405 l -1.72621,1.726215 h -0.57541 l -1.72621,0.575405 h -3.45243 l -9.20649,-0.575405 -1.15081,-1.15081 -1.15082,-1.15081 v -2.877025 l 0.57542,-0.575405 v -0.575405 z m 28.19487,1.15081 h 16.68676 l 0.5754,0.575405 h 0.57541 l 0.5754,0.575405 v 3.45243 l -1.15081,1.15081 -1.15081,1.15081 h -4.60324 -2.87703 -6.90486 l -2.19156,-1.017858 -0.64189,-0.841309 -0.0436,-1.593263 v -2.30162 l 0.57541,-0.575405 z m 28.77028,0.575405 h 9.20648 l 7.48027,0.575405 0.57541,0.575405 v 0.575405 l 0.5754,0.575405 v 2.30162 l -0.5754,0.575405 v 0.575405 l -0.57541,0.575405 h -0.5754 l -0.5754,0.575404 h -14.38514 c -0.58427,-0.05423 -1.14854,-0.230426 -1.72622,-1.150809 l -0.57541,-1.15081 -0.5754,-1.726215 v -0.575405 l 0.5754,-1.15081 0.57541,-0.575405 z m 28.77028,0.575405 h 2.30162 c 4.45647,0.0734 8.81544,0.575405 13.23432,0.575405 l 0.57541,0.575405 1.15081,1.15081 v 2.30162 l -0.57541,0.575405 v 0.575405 l -1.72621,1.726225 h -2.87703 l -11.50811,-0.575405 -1.72622,-1.726225 v -0.575405 l -0.57541,-0.575405 v -1.726215 l 0.57541,-0.575405 v -0.575405 z m 31.0719,2.30162 h 9.78189 l 1.85917,-0.02286 2.16867,0.598305 0.5754,0.575405 v 2.30162 c -2.29962,3.16384 -0.89019,2.428882 -3.38595,2.567534 L 374.98003,72.746816 372.103,72.171411 370.95219,71.02059 v -1.150809 l 0.5754,-0.575405 0.57541,-0.575405 c 0.64034,-0.729679 1.50185,-1.193033 2.30163,-1.726215 z m 131.76786,9.781894 h 0.57541 l 0.57541,0.575405 h 3.45243 l 0.57541,0.575405 0.5754,0.575405 h 1.15081 l 0.57541,-0.575405 h 0.5754 l 0.57541,0.575405 v 0.575405 l -0.57541,0.575405 h -2.87702 l -0.57541,0.575405 h -2.87702 l -0.57541,0.575405 h -5.75406 l -0.5754,-0.575405 0.5754,-0.575405 v -1.15081 l -0.5754,-0.575405 0.5754,-0.575405 h 4.02784 z m -10.3573,4.027835 h 2.30163 l 0.57541,0.575415 -0.57541,0.575405 h -1.72622 l -0.57541,0.575405 h -1.72621 l -0.57541,-0.575405 0.57541,-0.575405 h 1.15081 z m 79.40598,22.440825 h 8.05566 l 0.57541,0.57541 v 0.5754 l 2.86667,2.65471 0.64192,1.78234 0.2991,3.55215 -0.54214,1.51644 -2.03792,2.30382 -3.52925,2.00027 v 1.15081 h 0.5754 l 0.57541,0.57541 -0.0224,0.0225 c 0.15507,-0.004 0.31032,-0.0102 0.46527,-0.0145 0.53122,-0.0139 1.06227,-0.0152 1.59364,-0.0179 0.27977,-5.8e-4 0.55873,0.006 0.83837,0.0124 l 2.91247,-1.49585 0.54215,-0.23267 c 2.37148,-2.46926 3.35848,-9.7242 6.60572,-10.68969 l 0.87456,-0.24301 0.5754,0.5754 0.57541,1.15081 0.5754,1.72623 v 2.87702 l -0.5754,2.30162 -0.57541,1.15081 -2.30162,2.30162 -0.5754,0.57542 h -0.57542 l -0.5754,0.5754 -1.08435,0.36562 c 0,0 -7.05435,0.4062 -10.11425,0.3324 l -4.91275,-0.3324 -2.02536,-0.50892 c -0.71724,-0.35339 -1.18179,-0.72903 -1.65975,-1.31701 l -0.7416,-0.90779 -0.75194,-1.65974 -0.57541,-1.15081 -0.5754,-1.72622 v -4.60325 l 0.5754,-1.72621 0.57541,-1.15081 1.15081,-1.15081 z"
     sodipodi:nodetypes="cccccccccccccccccccccccccccccccccccccccccccccccccccccccccccccccccccccccccccccccccccccccccccccccccccccccccccccccccccccccccccccccccccccccccccccccccccccccccccccccccccccccccccccccccccccccccccccccccccccccccccccccccccccccccccccccccccccccccccccccccccccccccccccccccccccccccccccccccccccccccccccccccccccccccccccccccccccccccccccccccccccccccccccccccccccccccccccccccccccccccccccccccccccccccccccccccccccccccccccccccccccccccccccccccccccccccccccccccccccccccccccccccc"
     style="stroke-width:0.575406" />
</svg>
