<svg xmlns="http://www.w3.org/2000/svg" width="1448" height="1086" viewBox="0 0 1448 1086">
<rect width="100%" height="100%" fill="white"/>
<path d="M 27,422 L 31,457 L 83,452 L 95,466 L 147,462 L 225,475 L 211,490 L 218,515 L 149,742 L 116,765 L 148,789 L 159,771 L 183,767 L 169,755 L 204,645 L 216,646 L 213,619 L 231,566 L 230,617 L 245,618 L 262,711 L 249,724 L 269,727 L 260,729 L 276,744 L 287,727 L 307,726 L 281,701 L 284,653 L 272,651 L 251,511 L 259,489 L 242,478 L 260,470 L 338,472 L 350,484 L 365,473 L 481,477 L 502,492 L 516,479 L 785,489 L 800,498 L 869,490 L 850,499 L 882,506 L 852,516 L 889,519 L 852,527 L 882,532 L 853,544 L 891,550 L 854,559 L 892,565 L 855,575 L 893,581 L 856,590 L 894,596 L 857,605 L 896,611 L 859,621 L 897,626 L 860,635 L 917,640 L 925,628 L 917,626 L 924,617 L 909,501 L 971,503 L 986,551 L 1040,552 L 1064,592 L 1062,608 L 1096,613 L 1105,582 L 1079,529 L 1089,518 L 1136,521 L 1143,501 L 1144,513 L 1167,504 L 1146,502 L 1282,506 L 1294,517 L 1293,543 L 1321,537 L 1385,568 L 1398,464 L 1417,439 L 1416,424 L 1397,412 L 1303,441 L 1170,434 L 1173,403 L 1145,419 L 1155,421 L 1103,421 L 1098,430 L 829,398 L 810,419 L 744,424 L 749,376 L 738,378 L 741,398 L 652,401 L 648,422 L 670,427 L 221,419 L 213,361 L 196,365 L 193,410 L 147,422 L 128,412 L 94,414 L 84,426 Z M 1028,524 L 1029,525 L 1029,526 L 1030,527 L 1030,529 L 1031,530 L 1031,535 L 1030,536 L 1030,539 L 1029,540 L 1029,541 L 1025,545 L 1024,544 L 1023,544 L 1024,544 L 1025,545 L 1024,546 L 1023,546 L 1022,547 L 1020,547 L 1019,548 L 1012,548 L 1011,547 L 1010,548 L 1009,548 L 1008,547 L 1010,545 L 1012,545 L 1014,543 L 1015,543 L 1021,537 L 1022,538 L 1023,537 L 1023,536 L 1027,532 L 1026,531 L 1025,531 L 1024,530 L 1027,527 L 1027,525 Z M 991,517 L 1005,517 L 1006,518 L 1006,519 L 1008,521 L 1008,522 L 1007,523 L 1006,522 L 1006,523 L 1008,525 L 1009,524 L 1010,525 L 1010,526 L 1011,527 L 1011,533 L 1010,534 L 1010,535 L 1009,536 L 1009,537 L 1008,538 L 1007,537 L 1007,536 L 1007,537 L 1005,539 L 1004,539 L 1003,540 L 1004,540 L 1005,541 L 1004,542 L 1003,542 L 1002,543 L 1002,545 L 1003,545 L 1004,546 L 1003,547 L 994,547 L 993,546 L 991,546 L 990,545 L 991,544 L 993,544 L 991,544 L 990,545 L 989,544 L 988,544 L 987,543 L 987,542 L 988,541 L 989,542 L 990,542 L 989,542 L 988,541 L 987,542 L 985,540 L 985,539 L 984,538 L 984,536 L 985,535 L 986,536 L 986,537 L 986,534 L 985,533 L 985,528 L 987,526 L 987,525 L 986,525 L 986,527 L 985,528 L 985,535 L 984,536 L 983,535 L 983,527 L 984,526 L 984,524 L 985,523 L 985,522 L 987,520 L 988,521 L 990,521 L 990,520 L 991,519 L 1004,519 L 991,519 L 990,518 Z M 1242,505 L 1243,504 L 1259,504 L 1260,505 L 1259,506 L 1243,506 Z M 915,499 L 915,496 L 916,495 L 919,495 L 920,496 L 919,497 L 917,497 L 917,499 L 916,500 Z M 855,487 L 856,486 L 864,486 L 865,487 L 880,487 L 881,488 L 886,488 L 887,489 L 886,490 L 882,490 L 880,492 L 874,492 L 873,493 L 871,493 L 870,492 L 871,491 L 872,491 L 870,489 L 869,490 L 868,490 L 867,491 L 865,491 L 864,490 L 864,489 L 861,489 L 860,488 L 856,488 Z M 849,480 L 850,479 L 852,479 L 853,478 L 857,478 L 858,479 L 857,480 L 854,480 L 853,481 L 850,481 Z M 879,474 L 880,473 L 881,474 L 883,474 L 884,473 L 885,473 L 886,474 L 886,475 L 885,476 L 880,476 L 879,475 Z M 862,473 L 863,472 L 870,472 L 871,471 L 872,471 L 873,472 L 879,472 L 880,473 L 879,474 L 875,474 L 875,475 L 879,475 L 880,476 L 879,477 L 874,477 L 873,478 L 863,478 L 862,477 L 863,476 L 868,476 L 868,475 L 867,475 L 866,474 L 863,474 Z M 636,461 L 636,459 L 637,458 L 638,459 L 638,460 L 638,457 L 639,456 L 640,456 L 642,454 L 645,457 L 647,457 L 648,458 L 651,458 L 652,457 L 656,457 L 657,456 L 657,455 L 658,454 L 659,454 L 660,455 L 662,455 L 663,456 L 664,456 L 665,457 L 665,456 L 666,455 L 667,456 L 667,460 L 665,462 L 664,461 L 663,461 L 662,462 L 662,463 L 661,464 L 643,464 L 642,463 L 638,463 Z M 585,454 L 586,453 L 586,452 L 588,450 L 592,450 L 593,451 L 603,451 L 604,452 L 603,453 L 602,453 L 603,453 L 605,455 L 605,458 L 606,459 L 607,459 L 608,460 L 609,460 L 610,459 L 611,459 L 611,454 L 612,453 L 613,453 L 607,453 L 606,452 L 607,451 L 615,451 L 616,452 L 615,453 L 616,452 L 618,454 L 618,458 L 617,459 L 616,458 L 616,455 L 615,455 L 615,459 L 616,458 L 617,459 L 617,460 L 614,463 L 609,463 L 608,462 L 589,462 L 586,459 L 586,458 L 585,457 Z M 535,453 L 536,452 L 536,451 L 537,450 L 539,452 L 540,451 L 553,451 L 538,451 L 537,450 L 538,449 L 554,449 L 555,450 L 567,450 L 568,451 L 568,452 L 569,453 L 569,457 L 568,458 L 568,459 L 567,460 L 566,460 L 565,459 L 563,459 L 565,459 L 566,460 L 565,461 L 540,461 L 539,460 L 538,460 L 537,459 L 537,458 L 538,457 L 539,457 L 539,456 L 537,458 L 536,457 L 536,455 L 535,454 Z M 486,450 L 487,449 L 488,450 L 488,451 L 489,450 L 509,450 L 488,450 L 487,449 L 488,448 L 517,448 L 518,449 L 519,449 L 520,450 L 520,456 L 518,458 L 516,456 L 515,457 L 517,457 L 518,458 L 516,460 L 508,460 L 507,459 L 504,459 L 503,460 L 491,460 L 489,458 L 490,457 L 492,457 L 491,456 L 489,458 L 488,458 L 487,457 L 487,455 L 486,454 Z M 438,448 L 439,449 L 439,453 L 440,454 L 440,455 L 439,456 L 437,454 L 437,449 Z M 438,447 L 439,446 L 448,446 L 449,447 L 469,447 L 470,448 L 470,450 L 469,451 L 468,450 L 468,454 L 468,453 L 469,452 L 469,451 L 470,450 L 471,451 L 471,453 L 470,454 L 470,455 L 467,458 L 466,458 L 465,457 L 463,459 L 457,459 L 456,458 L 441,458 L 439,456 L 440,455 L 440,453 L 439,452 L 439,451 L 441,449 L 442,449 L 443,448 L 447,448 L 439,448 Z M 387,448 L 388,447 L 388,446 L 389,445 L 411,445 L 412,446 L 419,446 L 420,447 L 419,448 L 417,448 L 419,448 L 420,447 L 421,448 L 421,453 L 417,457 L 407,457 L 406,456 L 391,456 L 388,453 L 388,452 L 387,451 Z M 365,444 L 369,444 L 370,445 L 370,446 L 371,447 L 371,451 L 368,454 L 367,453 L 367,452 L 366,451 L 365,452 L 364,451 L 364,448 L 365,447 L 366,448 L 366,449 L 366,448 L 368,446 L 365,446 L 364,445 Z M 341,443 L 342,444 L 342,452 L 341,453 L 340,453 L 339,452 L 339,451 L 338,450 L 338,446 Z M 288,445 L 289,444 L 289,443 L 290,442 L 310,442 L 311,443 L 310,444 L 291,444 L 310,444 L 311,443 L 317,443 L 318,444 L 317,445 L 316,445 L 319,445 L 318,444 L 319,443 L 320,443 L 321,444 L 321,450 L 319,452 L 318,451 L 318,449 L 318,451 L 319,452 L 317,454 L 305,454 L 304,453 L 297,453 L 296,454 L 293,454 L 291,452 L 292,451 L 293,451 L 293,450 L 292,450 L 292,451 L 291,452 L 289,450 L 289,449 L 288,448 Z M 238,443 L 240,441 L 241,442 L 241,443 L 243,443 L 243,442 L 244,441 L 269,441 L 270,442 L 270,443 L 271,444 L 271,447 L 270,448 L 270,450 L 268,452 L 267,452 L 266,453 L 259,453 L 258,452 L 242,452 L 240,450 L 241,449 L 242,449 L 242,448 L 241,448 L 241,449 L 240,450 L 239,449 L 239,448 L 238,447 Z M 200,441 L 202,439 L 203,440 L 218,440 L 219,441 L 218,442 L 202,442 L 215,442 L 216,443 L 217,442 L 218,442 L 219,441 L 220,442 L 220,446 L 219,447 L 219,448 L 218,449 L 217,448 L 217,447 L 216,448 L 216,449 L 217,450 L 216,451 L 213,451 L 212,452 L 208,452 L 207,451 L 204,451 L 200,447 Z M 912,436 L 914,438 L 916,438 L 917,439 L 917,447 L 916,448 L 913,448 L 912,447 L 912,440 L 911,439 L 911,437 Z M 869,431 L 869,428 L 870,427 L 871,428 L 871,429 L 875,429 L 876,428 L 871,428 L 870,427 L 871,426 L 883,426 L 884,427 L 913,427 L 914,428 L 913,429 L 913,432 L 912,433 L 911,433 L 910,432 L 910,431 L 911,430 L 911,429 L 909,429 L 908,430 L 902,430 L 901,429 L 879,429 L 877,431 L 871,431 L 870,432 Z M 850,426 L 851,427 L 851,429 L 852,430 L 852,432 L 851,433 L 847,433 L 846,432 L 847,431 L 850,431 L 846,431 L 846,432 L 847,433 L 846,434 L 846,440 L 847,441 L 848,441 L 849,442 L 847,444 L 842,444 L 843,444 L 844,445 L 843,446 L 838,446 L 837,445 L 838,444 L 838,437 L 839,436 L 840,437 L 842,437 L 843,436 L 843,435 L 844,434 L 844,428 L 842,426 L 843,425 L 848,425 L 849,426 L 848,427 L 847,427 L 847,428 L 849,428 L 848,427 L 849,426 Z M 657,424 L 658,423 L 668,423 L 669,424 L 668,425 L 658,425 Z M 1168,411 L 1170,411 L 1172,413 L 1172,415 L 1170,417 L 1168,417 L 1166,415 L 1166,413 Z M 945,409 L 946,408 L 954,408 L 955,409 L 954,410 L 946,410 Z M 840,401 L 841,400 L 851,400 L 852,401 L 851,402 L 841,402 Z" fill="black" fill-rule="evenodd"/>
</svg>