<?xml version="1.0" encoding="UTF-8" standalone="no"?>
<svg
   width="200"
   height="250"
   viewBox="0 0 200 250"
   version="1.1"
   id="svg2"
   sodipodi:docname="mills_bomb_black.svg"
   inkscape:version="1.4.2 (f4327f4, 2025-05-13)"
   xmlns:inkscape="http://www.inkscape.org/namespaces/inkscape"
   xmlns:sodipodi="http://sodipodi.sourceforge.net/DTD/sodipodi-0.dtd"
   xmlns="http://www.w3.org/2000/svg"
   xmlns:svg="http://www.w3.org/2000/svg">
  <defs
     id="defs2" />
  <sodipodi:namedview
     id="namedview2"
     pagecolor="#ffffff"
     bordercolor="#000000"
     borderopacity="0.25"
     inkscape:showpageshadow="2"
     inkscape:pageopacity="0.0"
     inkscape:pagecheckerboard="0"
     inkscape:deskcolor="#d1d1d1"
     inkscape:zoom="1.0819521"
     inkscape:cx="119.22894"
     inkscape:cy="116.9183"
     inkscape:window-width="2560"
     inkscape:window-height="1377"
     inkscape:window-x="-8"
     inkscape:window-y="-8"
     inkscape:window-maximized="1"
     inkscape:current-layer="svg2" />
  <path
     d="m 76.826308,72.753419 -6.94689,5.343754 v 7.74844 l -1.335935,2.671883 -2.1375,1.603132 -5.343753,1.870317 -2.137499,2.137501 -4.80938,9.351564 -4.007817,11.22188 -1.603126,7.74845 2.137499,4.275 -4.542189,5.07656 -0.534374,46.75785 0.801564,14.42813 16.29845,37.13911 3.206253,2.40467 8.817188,2.13751 15.496886,1.33594 25.650015,-0.2672 9.88595,-1.06874 8.28281,-1.87031 3.47344,-2.40469 16.56564,-37.13909 0.80156,-14.69533 -0.26719,-46.22346 -4.54219,-5.34376 1.87032,-5.61094 -3.74062,-13.35938 -7.21407,-14.69533 -2.67188,-1.870316 -4.80938,-1.603132 -2.1375,-2.137502 -0.80157,-1.870317 V 75.158105 l -2.40469,-2.13749 z"
     fill="#000000"
     fill-rule="evenodd"
     id="path1"
     style="stroke-width:0.267188" />
  <path
     d="m 40.755965,34.545584 -4.809381,5.610935 -2.939063,6.679699 -0.801564,4.275 0.801564,8.817191 2.67188,6.14532 5.610936,6.412505 5.610943,3.473437 6.145317,1.870317 h 8.015633 l 8.015625,-2.404687 9.885952,-9.618757 2.137499,-4.542199 0.801564,-9.885943 -2.404691,-9.618756 -2.40469,-2.939063 1.335936,-1.335936 4.542199,4.80938 2.1375,9.618756 -1.870318,11.489063 -4.809381,8.282822 H 126.52321 V 41.759646 l 7.48125,2.671881 2.67187,2.671872 14.16096,29.657838 11.75626,28.589093 2.1375,19.23751 0.53438,45.6891 5.07656,5.61093 h 2.1375 l 1.33595,-4.27499 0.80155,-37.40628 -0.80155,-29.12346 -13.09221,-37.94066 -14.69532,-35.535968 -3.74063,-2.939062 -15.49689,-5.878126 2.67188,-5.343753 -2.40468,-2.137508 -55.842226,-0.267182 -3.206253,1.068746 -0.801564,1.335944 1.335936,4.007809 3.206253,1.603126 0.534372,8.015634 -1.335936,1.335936 -7.748442,-3.206254 -9.35157,-0.534372 -6.145316,1.603127 z m 14.16095,-0.801563 h 4.542189 l 0.267191,0.267182 h 1.335935 l 0.267182,0.267191 h 0.801563 l 0.267191,0.26719 2.137499,0.534374 2.137509,1.068754 0.267181,0.267181 -0.267181,0.267191 0.267181,0.267181 -0.267181,-0.267181 0.534373,-0.267191 0.26719,0.267191 v 0.801563 l 0.267182,0.267182 v 0.801564 l 0.267192,0.534381 2.671871,2.671872 0.534382,0.267191 h 1.870308 l 0.534382,0.534373 2.137499,4.275008 0.267191,1.603128 0.267181,0.267185 v 1.068751 l 0.267192,0.267185 v 1.870316 l 0.267191,0.267185 v 2.404687 l -0.267191,0.267185 v 1.603132 l -0.267192,0.267185 -0.267181,2.137501 -0.267191,0.267196 -0.267191,1.335936 -1.335936,2.671871 -0.534372,0.534381 -0.534382,1.068751 -0.801564,0.801566 v 0.267185 l -2.40469,2.404687 h -0.267181 l -0.534382,0.534381 -0.267182,-0.267196 0.267182,0.267196 -2.1375,1.60312 -2.137499,1.068751 h -0.534372 l -0.801564,0.53437 h -0.801562 l -0.267192,0.267196 h -0.801564 l -0.26719,0.267185 h -1.068745 l -0.267191,0.267185 H 58.39035 l -0.267182,0.267196 -4.275008,-0.267196 -0.26719,-0.267185 -2.137499,-0.267185 -4.809381,-2.137502 -1.335936,-1.06875 0.26719,-0.267185 -0.26719,-0.267196 -0.534373,0.267196 -0.534372,-0.534381 0.267181,-0.267185 -0.534372,-0.534381 -0.267191,0.267196 -2.1375,-2.137502 v -0.267196 l -1.335935,-1.603121 -0.267191,-0.534381 0.267191,-0.534381 -0.267191,0.267197 -0.534373,-0.801566 0.267182,-0.53437 -0.267182,0.267185 -0.801563,-1.335936 V 59.928409 L 38.084083,58.859658 V 58.058092 L 37.816902,57.790919 V 56.989353 L 37.549711,56.722157 V 55.119036 L 37.282519,54.85184 v -2.939057 l 0.267192,-0.267184 v -1.870317 l 0.267191,-0.267196 0.267181,-1.870306 0.267191,-0.267185 0.267191,-1.335941 0.534372,-0.801564 0.267191,0.534373 L 39.152837,44.9659 39.954401,43.362772 40.488773,42.8284 40.755965,42.026837 42.0919,40.690901 V 40.42371 l 0.801564,-0.801563 0.267191,0.26719 0.26719,-0.26719 -0.26719,-0.267191 1.068754,-1.068745 h 0.267181 l 0.801564,-0.801564 h 0.26719 l 1.335936,-1.068754 2.671882,-1.335935 h 0.534372 l 0.267191,-0.267192 h 0.534372 l 1.068755,-0.534372 2.671871,-0.267191 z"
     fill="#000000"
     fill-rule="evenodd"
     id="path2"
     style="stroke-width:0.267188" />
</svg>
