<svg xmlns="http://www.w3.org/2000/svg" width="1448" height="1086" viewBox="0 0 1448 1086">
<rect width="100%" height="100%" fill="white"/>
<path d="M 641,345 L 615,365 L 615,394 L 610,404 L 602,410 L 582,417 L 574,425 L 556,460 L 541,502 L 535,531 L 543,547 L 526,566 L 524,741 L 527,795 L 588,934 L 600,943 L 633,951 L 691,956 L 787,955 L 824,951 L 855,944 L 868,935 L 930,796 L 933,741 L 932,568 L 915,548 L 922,527 L 908,477 L 881,422 L 871,415 L 853,409 L 845,401 L 842,394 L 842,354 L 833,346 Z" fill="black" fill-rule="evenodd"/>
<path d="M 506,202 L 488,223 L 477,248 L 474,264 L 477,297 L 487,320 L 508,344 L 529,357 L 552,364 L 582,364 L 612,355 L 649,319 L 657,302 L 660,265 L 651,229 L 642,218 L 647,213 L 664,231 L 672,267 L 665,310 L 647,341 L 827,341 L 827,229 L 855,239 L 865,249 L 918,360 L 962,467 L 970,539 L 972,710 L 991,731 L 999,731 L 1004,715 L 1007,575 L 1004,466 L 955,324 L 900,191 L 886,180 L 828,158 L 838,138 L 829,130 L 620,129 L 608,133 L 605,138 L 610,153 L 622,159 L 624,189 L 619,194 L 590,182 L 555,180 L 532,186 Z M 559,199 L 576,199 L 577,200 L 582,200 L 583,201 L 586,201 L 587,202 L 595,204 L 603,208 L 604,209 L 603,210 L 604,211 L 603,210 L 605,209 L 606,210 L 606,213 L 607,214 L 607,217 L 608,219 L 618,229 L 620,230 L 627,230 L 629,232 L 637,248 L 638,254 L 639,255 L 639,259 L 640,260 L 640,267 L 641,268 L 641,277 L 640,278 L 640,284 L 639,285 L 638,293 L 637,294 L 636,299 L 631,309 L 629,311 L 627,315 L 624,318 L 624,319 L 615,328 L 614,328 L 612,330 L 611,329 L 612,330 L 604,336 L 596,340 L 594,340 L 591,342 L 588,342 L 587,343 L 584,343 L 583,344 L 579,344 L 578,345 L 572,345 L 571,346 L 555,345 L 554,344 L 546,343 L 528,335 L 523,331 L 524,330 L 523,329 L 521,330 L 519,328 L 520,327 L 518,325 L 517,326 L 509,318 L 509,317 L 504,311 L 503,309 L 504,307 L 503,308 L 501,305 L 502,303 L 501,304 L 498,299 L 498,297 L 496,293 L 496,290 L 495,289 L 495,286 L 494,285 L 494,279 L 493,278 L 493,267 L 494,266 L 494,259 L 495,258 L 496,251 L 497,250 L 498,245 L 500,242 L 501,244 L 500,241 L 503,235 L 505,233 L 506,230 L 511,225 L 511,224 L 514,221 L 515,222 L 516,221 L 515,220 L 519,216 L 520,216 L 523,213 L 524,213 L 529,209 L 539,204 L 541,204 L 542,203 L 544,203 L 548,201 L 558,200 Z" fill="black" fill-rule="evenodd"/>
</svg>