<?xml version="1.0" encoding="UTF-8" standalone="no"?>
<svg
   width="200"
   height="250"
   viewBox="0 0 200 250"
   version="1.1"
   id="svg26"
   sodipodi:docname="mk2_grenade_black.svg"
   inkscape:version="1.4.2 (f4327f4, 2025-05-13)"
   xmlns:inkscape="http://www.inkscape.org/namespaces/inkscape"
   xmlns:sodipodi="http://sodipodi.sourceforge.net/DTD/sodipodi-0.dtd"
   xmlns="http://www.w3.org/2000/svg"
   xmlns:svg="http://www.w3.org/2000/svg">
  <defs
     id="defs26" />
  <sodipodi:namedview
     id="namedview26"
     pagecolor="#ffffff"
     bordercolor="#000000"
     borderopacity="0.25"
     inkscape:showpageshadow="2"
     inkscape:pageopacity="0.0"
     inkscape:pagecheckerboard="0"
     inkscape:deskcolor="#d1d1d1"
     inkscape:zoom="0.93700159"
     inkscape:cx="141.94213"
     inkscape:cy="191.56851"
     inkscape:window-width="2560"
     inkscape:window-height="1377"
     inkscape:window-x="-8"
     inkscape:window-y="-8"
     inkscape:window-maximized="1"
     inkscape:current-layer="svg26" />
  <path
     d="m 95.089398,217.59399 -0.901403,0.90138 v 0.2254 l -0.450708,0.67596 v 2.92964 l 0.225355,0.2254 v 0.67596 l 0.225353,0.22541 v 0.90136 l 0.225359,0.22542 v 1.12677 l 0.225337,0.2254 v 0.90137 l 0.225359,0.2254 v 0.90137 l 0.225348,0.22541 v 0.90137 l 0.225359,0.22527 v 0.6761 l 0.225359,0.2254 v 0.67609 l 0.225348,0.22528 v 0.67609 l 0.225359,0.2254 v 1.12677 l 0.225348,0.22529 v 0.67608 l 0.225359,0.22541 v 0.67596 l 0.225359,0.22541 v 0.67608 l 0.225348,0.22529 v 0.45067 l 0.225359,0.22541 0.225348,0.67609 1.126762,1.12677 h 0.225359 l 0.225348,0.22529 h 0.676066 l 0.225359,0.2254 h 9.464852 l 0.22535,-0.2254 h 0.90143 l 0.4507,-0.45069 h 0.22536 l 0.90141,-0.90137 v -0.2254 l 0.67606,-1.12677 v -0.45069 l 0.22535,-0.22527 v -0.9015 l 0.22536,-0.22528 v -0.67609 l 0.22536,-0.2254 v -0.90137 l 0.22535,-0.22541 v -0.90137 l 0.22536,-0.2254 v -0.6761 l 0.22534,-0.22527 v -0.9015 l 0.22536,-0.22527 v -0.90137 l 0.22536,-0.22541 v -0.90137 l 0.22535,-0.2254 v -1.35218 l 0.22536,-0.22528 v -0.9015 l 0.22534,-0.22527 v -1.12677 l 0.22535,-0.2254 v -0.90138 l 0.22535,-0.22541 v -1.57745 l -0.22535,-0.22528 v -0.45081 l -0.22535,-0.22528 v -0.45068 l -1.12677,-1.12678 h -0.22534 l -0.67607,-0.45081 H 95.990823 l -0.225359,0.22541 z"
     fill="#000000"
     fill-rule="evenodd"
     id="path1"
     style="stroke-width:0.225353" />
  <path
     d="m 75.708979,216.91791 v 0.22527 l -0.45071,0.45081 v 0.45069 l -0.225355,0.22527 v 2.02828 l 0.225355,0.22527 v 0.45081 l 0.225355,0.22529 v 0.2254 l 0.45071,0.67596 v 0.45081 l 0.225354,0.22529 v 0.2254 l 0.225355,0.22527 v 0.22541 l 0.225354,0.2254 v 0.22529 l 0.225355,0.2254 v 0.22527 l 0.225354,0.22542 v 0.2254 l 0.225355,0.22528 v 0.2254 l 0.450696,0.67609 v 0.45069 l 0.225355,0.22527 v 0.22541 l 0.225355,0.2254 v 0.22529 l 0.225355,0.2254 v 0.22528 l 0.225355,0.2254 v 0.22541 l 0.225354,0.22528 v 0.2254 l 0.225355,0.22528 v 0.22541 l 0.225354,0.22527 0.225355,0.6761 0.450709,0.45067 v 0.22541 l 0.225354,0.22541 v 0.22528 l 0.225356,0.2254 v 0.22527 l 0.225355,0.22542 v 0.2254 l 0.225354,0.22528 0.225342,0.67609 0.901418,1.12677 0.225355,0.67609 0.450709,0.45069 v 0.22541 l 0.45071,0.45067 v 0.22529 l 1.126773,1.12677 h 0.225342 l 0.450709,0.45069 h 0.225354 l 0.225355,0.2254 h 0.901419 l 0.225355,0.2254 h 1.802824 l 0.225355,0.22528 h 2.028192 l 0.225355,0.2254 h 2.028178 l 0.225354,-0.2254 h 0.225356 l 0.901417,-0.90137 v -0.45068 l 0.225359,-0.22541 v -1.35204 l -0.225359,-0.22541 v -0.67609 l -0.225353,-0.22528 v -0.67609 l -0.225355,-0.2254 v -0.67609 l -0.225354,-0.22528 v -0.90151 l -0.225355,-0.22527 v -0.67609 l -0.225356,-0.22541 v -0.67596 l -0.225354,-0.2254 v -0.90137 l -0.225355,-0.2254 v -0.90137 l -0.225354,-0.2254 v -0.6761 l -0.225355,-0.22527 v -0.67609 l -0.225354,-0.22541 v -1.12678 l -0.225355,-0.22527 v -0.67609 l -0.225355,-0.22541 v -0.90136 l -0.225354,-0.22541 V 221.425 l -0.225342,-0.2254 v -0.90137 l -0.225354,-0.22541 v -0.67609 l -0.225355,-0.22528 v -0.2254 l -0.45071,-0.45068 v -0.22542 l -0.901418,-0.90136 h -0.225355 l -0.676064,-0.45068 h -0.676052 l -0.225354,-0.22542 h -4.05637 l -0.225355,-0.22527 h -2.478888 l -0.225355,-0.2254 h -3.605662 l -0.225355,0.2254 h -0.225354 l -0.450709,0.45069 z"
     fill="#000000"
     fill-rule="evenodd"
     id="path2"
     style="stroke-width:0.225353" />
  <path
     d="m 133.1742,216.46722 h -0.22536 l -0.67607,-0.45081 h -1.12675 l -0.22536,0.22541 h -2.47888 l -0.22536,0.2254 h -2.4789 l -0.22535,0.22527 h -3.60567 l -0.22534,0.22542 h -0.67606 l -0.22536,0.22527 -0.67607,0.22541 -1.35212,1.35218 v 0.22528 l -0.45069,0.67609 v 0.67609 l -0.22536,0.22527 v 1.12677 l -0.22535,0.22541 v 0.90138 l -0.22536,0.2254 v 0.90137 l -0.22536,0.2254 v 0.67609 l -0.22535,0.22528 v 0.90149 l -0.22536,0.22528 v 0.90149 l -0.22535,0.22529 v 0.67608 l -0.22535,0.22541 v 0.90137 l -0.22536,0.22527 v 0.9015 l -0.22535,0.22527 v 0.6761 l -0.22536,0.2254 v 0.67609 l -0.22536,0.22528 v 0.67609 l -0.22535,0.2254 v 0.67597 l -0.22535,0.2254 v 0.67609 l -0.22534,0.22528 v 2.02827 l 0.22534,0.22528 v 0.2254 l 0.4507,0.67609 h 0.22536 l 0.67607,0.45068 h 2.02817 l 0.22536,-0.2254 h 1.80284 l 0.22535,-0.22528 h 1.80283 l 0.22534,-0.2254 h 1.12679 l 0.22535,-0.2254 0.67606,-0.22529 0.4507,-0.45068 h 0.22536 l 0.90141,-0.90149 v -0.22529 l 0.90142,-1.12677 0.22535,-0.67609 0.45071,-0.45068 v -0.2254 l 0.22536,-0.22529 v -0.2254 l 0.22536,-0.2254 0.22534,-0.67597 0.4507,-0.45082 v -0.22527 l 0.22536,-0.2254 v -0.22528 l 0.22535,-0.22541 v -0.22541 l 0.22536,-0.22527 v -0.2254 l 0.22536,-0.22529 0.22535,-0.67608 0.4507,-0.45069 v -0.45068 l 0.22536,-0.22541 v -0.2254 l 0.22536,-0.22528 v -0.2254 l 0.22535,-0.22529 v -0.2254 l 0.22536,-0.22541 v -0.22527 l 0.22535,-0.22541 v -0.22528 l 0.22534,-0.2254 v -0.22541 l 0.22535,-0.22528 0.22536,-0.67608 0.22536,-0.22542 0.22535,0.22542 -0.22535,-0.22542 v -0.45067 l 0.22535,-0.22529 v -0.2254 l 0.22536,-0.22541 v -0.22527 l 0.4507,-0.67609 v -0.45069 l 0.22536,-0.22541 V 221.425 l 0.45071,-0.67609 v -0.45068 l 0.22536,-0.22541 v -1.35205 l -0.22536,-0.2254 v -0.67609 l -0.22536,-0.22529 v -0.2254 z"
     fill="#000000"
     fill-rule="evenodd"
     id="path3"
     style="stroke-width:0.225353" />
  <path
     d="m 141.963,215.34045 h -0.22535 l -0.22536,-0.2254 h -1.57748 l -0.22536,0.2254 h -0.4507 l -0.45071,0.45068 h -0.22535 l -0.45071,0.45069 v 0.2254 l -0.4507,0.45069 v 0.22527 l -0.45071,0.45081 v 0.45069 l -0.22536,0.22527 v 0.22542 l -0.22536,0.2254 v 0.45068 l -0.22535,0.22528 v 0.22541 l -0.22535,0.2254 v 0.45069 l -0.22535,0.22527 v 0.22541 l -0.22536,0.2254 v 0.22529 l -0.22536,0.2254 v 0.22527 l -0.22535,0.22541 v 0.22528 l -0.22535,0.22541 v 0.45069 l -0.22534,0.2254 v 0.22527 l -0.22536,0.22541 v 0.2254 l -0.22535,0.22529 v 0.2254 l -0.22536,0.22527 v 0.22542 l -0.22536,0.2254 v 0.22528 l -0.22535,0.2254 v 0.22528 l -0.22536,0.22541 v 0.2254 l -0.22534,0.22528 v 0.22541 l -0.22536,0.22527 v 0.22541 l -0.22536,0.2254 v 0.22529 l -0.22535,0.2254 v 0.22528 l -0.22536,0.2254 v 0.22541 l -0.22536,0.22528 v 0.2254 l -0.22535,0.22528 v 0.22541 l -0.22534,0.22527 v 0.22541 l -0.22535,0.2254 v 0.22529 l -0.22536,0.2254 v 0.22527 l -0.22535,0.22541 v 0.22541 l -0.22536,0.22528 v 0.2254 l -0.4507,0.45069 v 0.2254 l -0.22536,0.22528 v 0.22541 l -0.22535,0.22528 v 0.2254 l -0.22536,0.2254 v 0.22529 l -0.22536,0.2254 v 0.22528 l -0.22535,0.2254 v 1.57746 l 0.45071,0.45069 h 0.22536 l 0.22535,0.2254 h 0.22536 l 0.22534,-0.2254 h 0.45072 l 0.22535,-0.22529 h 0.22536 l 0.45069,-0.45067 h 0.22535 l 1.35213,-1.35219 v -0.2254 l 0.67607,-0.67597 v -0.2254 l 0.45071,-0.45068 v -0.22541 l 0.4507,-0.45068 v -0.22542 l 0.67606,-0.67595 v -0.22541 l 0.45071,-0.45068 v -0.2254 l 0.4507,-0.45069 v -0.22541 l 0.45072,-0.45068 v -0.22528 l 0.22535,-0.2254 v -0.22528 l 0.45071,-0.45081 v -0.22528 l 0.22535,-0.2254 v -0.22529 l 0.45071,-0.45081 v -0.22527 l 0.4507,-0.45069 v -0.2254 l 0.45072,-0.45069 v -0.2254 l 0.22534,-0.22528 v -0.2254 l 0.22536,-0.22542 v -0.22527 l 0.45071,-0.45069 v -0.2254 l 0.22536,-0.22541 v -0.22527 l 0.22535,-0.2254 v -0.22529 l 0.4507,-0.45081 v -0.22528 l 0.22536,-0.22541 V 221.425 l 0.22536,-0.2254 v -0.22529 l 0.22535,-0.2254 v -0.22541 l 0.4507,-0.45068 v -0.22528 l 0.22535,-0.2254 v -0.22541 l 0.22535,-0.22528 v -0.2254 l 0.22536,-0.22528 v -2.02828 l -0.22536,-0.22527 v -0.2254 z"
     fill="#000000"
     fill-rule="evenodd"
     id="path4"
     style="stroke-width:0.225353" />
  <path
     d="m 67.821591,215.34045 -0.901406,0.90137 v 0.2254 l -0.225354,0.22527 v 0.9015 l -0.225355,0.22529 0.225355,0.2254 v 0.90137 l 0.225354,0.2254 v 0.22528 l 0.225355,0.22541 v 0.2254 l -0.225355,0.22528 0.225355,-0.22528 0.450696,0.45069 v 0.22527 l 0.225355,0.22541 v 0.2254 l 0.225355,0.22529 v 0.2254 l 0.225355,0.22527 v 0.22541 l 0.450709,0.45069 v 0.2254 l 0.225355,0.22529 v 0.2254 l 0.225354,0.22527 v 0.22541 l 0.450709,0.45069 v 0.2254 l 0.225355,0.22527 v 0.22542 l 0.45071,0.45068 v 0.2254 l 0.225355,0.22528 v 0.22541 l 0.450696,0.45068 v 0.22541 l 0.225355,0.22527 v 0.22541 l 0.450709,0.45069 v 0.2254 l -0.225355,0.22528 0.225355,-0.22528 0.450709,0.45068 v 0.22541 l 0.225354,0.22528 v 0.2254 l 0.450709,0.45069 v 0.22527 l 0.450711,0.45081 v 0.22529 l 0.450709,0.45067 v 0.22541 l 0.450709,0.45069 v 0.2254 l 0.450696,0.45069 v 0.2254 l 0.450709,0.45069 v 0.22528 l 0.90142,0.90149 v 0.22528 l 1.802823,1.80286 h 0.225355 l 0.45071,0.45069 h 0.450709 l 0.225355,0.2254 h 0.225354 l 0.225355,-0.2254 h 0.225354 l 0.450709,-0.45069 v -1.57746 l -0.225354,-0.2254 v -0.22528 l -0.225355,-0.2254 v -0.22529 l -0.225354,-0.2254 v -0.2254 l -0.225355,-0.22528 v -0.22541 l -0.225354,-0.22528 v -0.2254 l -0.450709,-0.45069 v -0.2254 l -0.225355,-0.22528 v -0.22541 l -0.225355,-0.22541 v -0.22527 l -0.225355,-0.2254 v -0.22529 l -0.225355,-0.2254 v -0.22541 l -0.225341,-0.22527 v -0.22541 l -0.225355,-0.22528 v -0.2254 l -0.225355,-0.22528 v -0.22541 l -0.225354,-0.2254 v -0.22528 l -0.225355,-0.2254 v -0.22529 l -0.225354,-0.2254 v -0.22541 l -0.225355,-0.22527 v -0.22541 l -0.225354,-0.22528 v -0.2254 l -0.225355,-0.22541 V 225.256 l -0.225355,-0.2254 v -0.22528 l 0.225355,-0.2254 -0.225355,0.2254 -0.225355,-0.2254 v -0.22542 l -0.225355,-0.22527 v -0.2254 l -0.225354,-0.22529 v -0.2254 l -0.225355,-0.22541 v -0.22527 l -0.225354,-0.2254 v -0.22529 l -0.225342,-0.2254 v -0.22541 l -0.225355,-0.22528 v -0.22541 L 73.6808,221.425 v -0.2254 l -0.225355,-0.22529 v -0.45081 l -0.225354,-0.22527 v -0.22541 l -0.225355,-0.22528 v -0.2254 l -0.225356,-0.22541 v -0.45068 l -0.225354,-0.22528 v -0.45082 l -0.225355,-0.22527 v -0.45069 l -0.225354,-0.2254 v -0.22541 l -0.676064,-0.67596 v -0.2254 l -0.225354,-0.22541 h -0.225355 l -0.450696,-0.45069 h -0.225355 l -0.225355,-0.22527 h -0.225355 l -0.225355,-0.2254 h -1.352127 l -0.225355,0.2254 z"
     fill="#000000"
     fill-rule="evenodd"
     id="path5"
     style="stroke-width:0.225353" />
  <path
     d="m 90.131625,191.22752 v 0.22542 l -0.225355,0.22527 v 0.67609 l -0.225354,0.22541 v 2.70423 l 0.225354,0.22527 v 1.57759 l 0.225355,0.22527 v 1.35219 l 0.225354,0.22527 v 1.80286 l 0.225356,0.22541 v 1.35205 l 0.225355,0.22541 v 1.12678 l 0.225354,0.22527 v 1.57759 l 0.225342,0.22527 v 1.35218 l 0.225354,0.22528 v 0.9015 l 0.225355,0.22527 v 1.12677 l 0.225355,0.22542 0.225354,1.12677 1.577483,1.80286 h 0.225355 l 0.676049,0.45068 h 0.450707 l 0.225359,0.22528 h 3.831015 l 0.225359,0.22541 h 9.690209 l 0.22535,-0.22541 h 4.50709 l 0.22534,-0.22528 h 0.45072 l 0.22535,-0.2254 0.67605,-0.22528 1.35213,-1.35218 v -0.22541 l 0.67606,-1.12677 v -0.67596 l 0.22536,-0.2254 v -1.12678 l 0.22536,-0.22528 v -1.57759 l 0.22535,-0.22527 v -1.12677 l 0.22536,-0.22541 v -1.35205 l 0.22533,-0.2254 v -1.35206 l 0.22536,-0.2254 v -1.35219 l 0.22535,-0.22527 v -1.80286 l 0.22536,-0.22541 v -1.57746 l 0.22536,-0.22527 v -1.57746 l 0.22535,-0.2254 v -1.12678 l -0.22535,-0.22541 v -0.67596 l -0.22536,-0.2254 v -0.45068 l -1.12676,-1.35219 h -0.22535 l -0.45072,-0.45068 h -0.22535 l -0.22536,-0.22541 h -0.4507 l -0.22536,-0.22527 H 92.835868 l -0.676064,0.45068 h -0.450709 z"
     fill="#000000"
     fill-rule="evenodd"
     id="path6"
     style="stroke-width:0.225353" />
  <path
     d="m 142.8644,188.74871 h -0.22535 l -0.67605,-0.45082 h -4.28172 l -0.22536,0.2254 h -4.28172 l -0.22536,0.22542 h -5.18313 l -0.22536,0.22527 h -1.12677 l -0.22536,0.22541 -1.12675,0.45068 -1.35213,1.35218 v 0.22527 l -0.45071,0.6761 v 0.45068 l -0.22536,0.22541 v 0.67609 l -0.22536,0.22527 v 1.57746 l -0.22534,0.22541 v 1.12677 l -0.22536,0.22528 v 1.35218 l -0.22535,0.2254 v 1.35205 l -0.22536,0.22541 v 1.35205 l -0.22534,0.22541 v 1.12677 l -0.22536,0.22528 v 1.12677 l -0.22535,0.22541 v 1.12677 l -0.22535,0.22541 v 1.12677 l -0.22536,0.22528 v 1.35218 l -0.22535,0.22527 v 2.02827 l 0.22535,0.22528 v 0.45068 l 1.12676,1.35219 h 0.22536 l 0.67605,0.45068 h 0.67607 l 0.22536,0.2254 h 0.90141 l 0.22536,-0.2254 h 3.83101 l 0.22536,-0.22528 h 2.70425 l 0.22535,-0.2254 h 2.47889 l 0.22536,-0.22542 h 0.67605 l 0.22535,-0.22527 h 0.45071 l 0.67606,-0.45068 h 0.22535 l 0.22536,0.22528 -0.22536,-0.22528 0.67607,-0.67609 h 0.22536 l 0.22535,-0.22541 v -0.22528 l 0.67606,-0.67608 v -0.22542 l 0.4507,-0.45067 v -0.22541 l 0.45072,-0.67596 v -0.45069 l 0.4507,-0.67609 v -0.45068 l 0.45071,-0.67609 v -0.45068 l 0.22536,-0.22541 v -0.22541 l 0.22535,-0.22527 v -0.45069 l 0.4507,-0.67608 v -0.45069 l 0.22536,-0.2254 v -0.45069 l 0.45071,-0.67608 v -0.45069 l 0.22535,-0.22541 v -0.45069 l 0.22535,-0.22527 v -0.45082 l 0.22535,-0.22527 v -0.45068 l 0.22535,-0.22541 v -0.45068 l 0.22536,-0.22541 v -0.45068 l 0.22536,-0.22541 v -0.45069 l 0.22535,-0.22527 v -0.67609 l 0.22536,-0.22541 v -0.45068 l 0.22536,-0.22541 v -0.67596 l 0.22534,-0.22541 v -0.45067 l 0.22536,-0.22542 v -0.67595 l 0.22535,-0.22541 v -1.57745 l -0.22535,-0.22542 v -0.45068 l -0.22536,-0.2254 -0.22534,-0.67596 z"
     fill="#000000"
     fill-rule="evenodd"
     id="path7"
     style="stroke-width:0.225353" />
  <path
     d="m 66.018767,189.19939 -0.225354,0.22527 v 0.22541 l -0.450709,0.45068 v 0.22541 l -0.225356,0.22528 v 0.45081 l -0.225355,0.22527 v 1.80287 l 0.225355,0.22541 v 0.67595 l 0.225356,0.22542 v 0.45067 l 0.225354,0.22541 v 0.45069 l 0.225355,0.22527 v 0.67609 l 0.225354,0.22541 v 0.67609 l 0.225355,0.22527 v 0.45069 l -0.225355,0.22541 v 0.2254 -0.2254 l 0.225355,-0.22541 0.225354,0.22541 v 0.45068 l 0.225355,0.22541 v 0.45068 l 0.225354,0.22541 v 0.45068 l 0.225355,0.22527 v 0.45082 l 0.225355,0.22527 v 0.45069 l 0.225341,0.22541 v 0.45069 l 0.225355,0.2254 v 0.45068 l 0.225355,0.22528 v 0.45081 l 0.225355,0.22527 v 0.45069 l -0.225355,0.22541 v 0.2254 -0.2254 l 0.225355,-0.22541 0.450709,0.67609 v 0.45068 l 0.450709,0.67609 0.225355,1.12678 0.225354,0.2254 v 0.22528 l 0.225355,0.22541 v 0.45068 l 0.225355,0.22541 v 0.22527 l -0.225355,0.22541 0.225355,-0.22541 0.225355,0.22541 0.225355,0.67609 0.676051,0.67596 v 0.22541 l 1.126772,1.12677 h 0.225355 l 0.45071,0.45069 h 0.225355 l 0.225354,0.2254 h 0.450709 l 0.225355,0.22527 h 0.450696 l 0.225355,0.22542 h 2.028192 l 0.225354,0.2254 h 2.704243 l 0.225355,0.22528 h 3.831017 l 0.225354,0.2254 h 1.57747 l 0.225355,-0.2254 h 0.676064 l 0.225354,-0.22528 h 0.225355 l 1.12676,-1.12677 v -0.22541 l 0.45071,-0.67609 v -2.70423 l -0.225355,-0.22528 v -1.12677 l -0.225355,-0.2254 v -1.12678 l -0.225355,-0.22541 v -1.12677 l -0.225342,-0.22527 v -1.12678 l -0.225354,-0.22541 v -1.12677 l -0.225355,-0.22528 v -1.12677 l -0.225354,-0.22541 v -1.57745 l -0.225355,-0.22541 v -1.12677 l -0.225354,-0.22528 v -1.12677 l -0.225355,-0.22541 v -1.57746 l -0.225354,-0.22527 v -0.9015 L 85.8499,192.12902 v -0.45081 l 0.225355,-0.22527 -0.225355,0.22527 -0.225355,-0.22527 v -0.22542 l 0.225355,-0.22527 -0.225355,0.22527 -1.126773,-1.35204 H 84.27243 l -0.450709,-0.45082 h -0.225355 l -0.225354,-0.22527 h -0.450711 l -0.225354,-0.22541 h -2.478889 l -0.225354,-0.22527 h -4.732435 l -0.225355,-0.22542 h -4.05637 l -0.225342,-0.2254 h -2.929611 l -0.225355,0.2254 H 67.14554 l -0.225355,0.22542 h -0.225354 l -0.450709,0.45068 z"
     fill="#000000"
     fill-rule="evenodd"
     id="path8"
     style="stroke-width:0.225353" />
  <path
     d="m 57.229974,187.39652 -0.225355,0.22541 h -0.225354 l -0.45071,0.45069 h -0.225354 l -0.676064,0.67609 v 0.22527 l -0.45071,0.67609 v 0.67609 l -0.225355,0.22528 v 0.67608 l 0.225355,0.22542 v 0.67608 l 0.225356,0.22528 v 0.45068 l 0.225354,0.22541 v 0.45068 l 0.225355,0.22541 v 0.45069 l 0.450709,0.67608 v 0.45069 l 0.225354,0.22527 v 0.45082 l 0.225355,0.22527 v 0.45069 l 0.225355,0.22541 v 0.45067 l 0.225354,0.22542 v 0.45068 l 0.450696,0.67609 v 0.45068 l 0.225356,0.22541 v 0.45068 l 0.450709,0.67609 v 0.45068 l 0.450709,0.67609 v 0.45069 l 0.450709,0.67596 v 0.45081 l 0.225355,0.22527 v 0.22542 l 0.450709,0.67608 v 0.45069 l 0.225355,0.22527 v 0.22541 l 0.45071,0.67609 v 0.45069 l 0.450696,0.67608 v 0.45069 l 0.225355,0.2254 v 0.22528 l 0.225354,0.22541 v 0.22527 l 0.450709,0.45069 v 0.22541 l 0.90142,0.90136 h 0.225354 l 0.450709,0.45081 h 0.225355 l 0.225354,0.22528 h 0.225355 l 0.676051,0.45068 h 0.450709 l 0.225356,0.22541 h 0.676063 l 0.225355,0.22541 h 0.676063 l 0.225355,-0.22541 h 0.450696 l 0.676065,-0.67609 v -0.45068 l 0.225355,-0.22541 v -0.45069 l -0.225355,-0.22527 v -0.67609 l -0.225355,-0.22541 v -0.45068 l -0.225355,-0.22528 v -0.2254 l -0.450696,-0.67609 v -0.45068 l -0.45071,-0.6761 v -0.45068 l -0.225354,-0.22541 v -0.45068 l -0.450709,-0.67609 v -0.45069 l -0.450709,-0.67608 v -0.45069 l -0.225355,-0.22527 v -0.45069 l -0.225354,-0.2254 v -0.45069 l -0.225356,-0.22541 v -0.45067 l -0.225355,-0.22542 v -0.45068 l -0.225354,-0.22527 v -0.45082 l -0.225355,-0.22527 v -0.45069 l -0.225354,-0.2254 v -0.45068 l -0.225342,-0.22542 v -0.45067 l -0.225355,-0.22541 v -0.45069 l -0.225354,-0.22527 v -0.67609 l -0.225355,-0.22541 v -0.45069 l -0.225354,-0.22527 v -0.45082 l -0.225355,-0.22527 v -0.45068 l -0.225354,-0.22541 v -0.67609 l -0.225356,-0.22528 v -0.67608 l -0.225355,-0.22542 v -0.90136 l -0.225354,-0.22541 v -0.22527 l -0.225355,-0.22541 v -0.22541 l -0.225354,-0.22527 v -0.22541 l -0.901406,-0.90136 h -0.225354 l -0.676065,-0.45069 h -0.450709 l -0.225355,-0.22541 z"
     fill="#000000"
     fill-rule="evenodd"
     id="path9"
     style="stroke-width:0.225353" />
  <path
     d="m 152.77998,187.39652 h -0.67606 l -0.22536,-0.22527 h -0.67605 l -0.22536,0.22527 h -0.67607 l -0.22534,0.22541 h -0.45072 l -0.45071,0.45069 h -0.22534 l -0.67606,0.67609 v 0.22527 l -0.45071,0.45068 v 0.22541 l -0.22536,0.22541 v 0.45068 l -0.22536,0.22528 v 0.9015 l -0.22535,0.22527 v 0.67609 l -0.22535,0.22541 v 0.67609 l -0.22535,0.22527 v 0.45068 l -0.22536,0.22542 v 0.45067 l -0.22536,0.22541 v 0.67596 l -0.22535,0.22541 v 0.45068 l -0.22536,0.22541 v 0.45069 l -0.22533,0.2254 v 0.45069 l -0.22536,0.22527 v 0.45081 l -0.22535,0.22528 v 0.45068 l -0.22536,0.22541 v 0.45068 l -0.22536,0.22541 v 0.45069 l -0.22535,0.2254 v 0.45068 l -0.22536,0.22528 v 0.45081 l -0.4507,0.67596 v 0.45069 l -0.22536,0.22541 v 0.45067 l -0.22535,0.22542 v 0.45068 l -0.45072,0.67609 v 0.45068 l -0.4507,0.67609 v 0.45069 l -0.22535,0.2254 v 0.22528 l -0.4507,0.67609 v 0.45068 l -0.45072,0.67609 v 0.90136 l -0.22534,0.22542 0.22534,0.22527 v 0.67609 l 0.67607,0.67609 h 0.4507 l 0.22535,0.22541 h 0.45071 l 0.22536,-0.22541 h 0.90141 l 0.22536,-0.22541 h 0.45071 l 0.22536,-0.22527 h 0.45071 l 0.22533,-0.22541 h 0.22536 l 0.45071,-0.45068 h 0.22536 l 1.57748,-1.57746 v -0.22541 l 0.22536,-0.22527 v -0.22541 l 0.4507,-0.67609 v -0.45068 l 0.22534,-0.22528 v -0.2254 l 0.22536,-0.22542 v -0.22527 l 0.22535,-0.22541 v -0.22527 l 0.45072,-0.67609 v -0.45069 l 0.4507,-0.67608 v -0.45069 l 0.45071,-0.67609 v -0.45068 l 0.22536,-0.2254 v -0.22529 l 0.45071,-0.67609 v -0.45068 l 0.4507,-0.67609 v -0.45068 l 0.22536,-0.22541 v -0.45068 l 0.4507,-0.67609 v -0.45068 l 0.22535,-0.22542 v -0.45067 l 0.45071,-0.6761 v -0.45068 l 0.22535,-0.22541 v -0.45068 l 0.22536,-0.22528 v -0.45068 l 0.22535,-0.2254 v -0.45069 l 0.22536,-0.22541 v -0.45068 l 0.22536,-0.22541 v -0.45068 l 0.22534,-0.22528 v -0.45081 l 0.22536,-0.22527 v -1.12678 l -0.22536,-0.22541 v -0.45068 l -0.22534,-0.22541 v -0.45068 l -1.35214,-1.35205 h -0.22535 z"
     fill="#000000"
     fill-rule="evenodd"
     id="path10"
     style="stroke-width:0.225353" />
  <path
     d="m 120.77974,160.80478 -1.57748,-1.35205 -0.9014,-0.22541 -0.22536,-0.2254 h -0.67607 l -0.22535,-0.22529 h -11.7184 l -0.22536,0.22529 H 91.033044 l -1.802837,0.9015 -0.901419,0.90136 -0.901406,1.80286 v 6.08455 l 0.225354,0.22528 v 4.28182 l 0.225342,0.22527 v 2.70423 l 0.225355,0.2254 v 3.15492 l 0.225355,0.2254 v 1.12679 l 0.225355,0.2254 v 0.45068 l 0.901418,1.57746 1.802825,1.35205 1.352127,0.2254 0.225355,0.22541 h 23.436792 l 0.22536,-0.22541 h 0.4507 l 0.22536,-0.2254 h 0.45071 l 0.9014,-0.45069 1.35214,-1.35204 0.67606,-1.35219 v -0.45067 l 0.22535,-0.22542 v -1.57746 l 0.22536,-0.22527 0.22535,-5.85927 0.22535,-0.22528 v -4.50709 l 0.22536,-0.22541 v -5.40846 z"
     fill="#000000"
     fill-rule="evenodd"
     id="path11"
     style="stroke-width:0.225353" />
  <path
     d="m 148.27291,159.00192 h -0.22536 l -0.67607,-0.45069 h -0.4507 l -0.22535,-0.22527 h -5.4085 l -0.22534,0.22527 h -8.11275 l -0.22535,0.2254 h -3.38031 l -0.22536,0.22529 h -0.4507 l -0.90141,0.67608 h -0.22536 l -1.12677,1.12678 v 0.22541 l -0.45071,0.67596 v 0.45081 l -0.22535,0.22527 v 0.67609 l -0.22535,0.22541 v 4.28168 l -0.22536,0.22529 v 3.83113 l -0.22534,0.22527 v 2.47896 l -0.22536,0.22527 v 2.70423 l -0.22536,0.22541 v 2.25354 l -0.22534,0.22541 v 0.22528 l 0.22534,0.22541 v 0.90136 l 0.22536,0.22541 0.4507,1.12678 1.12677,1.12677 h 0.22536 l 0.67606,0.45068 h 0.45071 l 0.22535,0.22528 h 4.73243 l 0.22535,-0.22528 h 4.73244 l 0.22535,-0.22541 h 3.83102 l 0.22535,-0.22527 h 2.02819 l 0.22534,-0.22541 1.12678,-0.45068 0.9014,-0.9015 h 0.22536 l 0.45071,-0.45068 v -0.22528 l 0.4507,-0.45068 v -0.2254 l 0.67607,-1.12679 v -0.45067 l 0.22536,-0.22542 v -1.12677 l 0.22536,-0.22527 v -0.9015 l 0.22534,-0.22527 v -0.67609 l 0.22536,-0.22541 v -1.12678 l 0.22534,-0.22527 v -1.12677 l 0.22536,-0.22541 v -1.12678 l 0.22535,-0.22527 v -1.12677 l 0.22536,-0.22542 v -1.35217 l 0.22536,-0.22528 v -1.80286 l 0.22534,-0.22528 v -1.35218 l 0.22536,-0.2254 v -3.15492 l -0.22536,-0.2254 -0.4507,-1.12665 z"
     fill="#000000"
     fill-rule="evenodd"
     id="path12"
     style="stroke-width:0.225353" />
  <path
     d="m 61.060978,159.22732 -1.126761,1.12677 v 0.22541 l -0.45071,0.45069 v 0.45067 l -0.225354,0.22529 v 0.45081 l -0.225355,0.22527 v 2.02828 l 0.225355,0.22527 v 1.57746 l 0.225354,0.2254 v 2.02814 l 0.225355,0.22541 v 1.35205 l 0.225355,0.2254 v 1.35219 l 0.225355,0.22527 v 1.12678 l 0.225355,0.22541 v 1.12677 l 0.225354,0.22527 v 1.12678 l 0.225342,0.22541 v 0.90136 l 0.225355,0.22541 v 0.90136 l 0.225354,0.22541 v 0.90136 l 0.225355,0.22542 0.225354,1.12677 0.450709,0.45069 0.225355,0.67608 1.577483,1.57746 h 0.225342 l 1.126774,0.67609 h 0.676063 l 0.225355,0.22527 h 3.154952 l 0.225354,0.22541 h 4.957777 l 0.225355,0.22528 h 6.760614 l 0.225355,-0.22528 0.676063,-0.22541 1.352129,-1.35204 v -0.22542 l 0.450709,-0.67608 v -0.45069 l 0.225342,-0.22527 v -2.70436 l -0.225342,-0.22528 v -2.70423 l -0.225355,-0.22541 v -2.70423 l -0.225354,-0.2254 v -3.15492 l -0.225355,-0.2254 v -3.831 l -0.225354,-0.22528 v -2.25355 l -0.225355,-0.22541 v -0.45068 l -0.225356,-0.2254 -0.225354,-0.67596 -0.450709,-0.45069 v -0.22541 l -1.126773,-0.90136 h -0.225342 l -0.676065,-0.45081 h -0.450709 l -0.225354,-0.22529 h -7.211324 l -0.225354,-0.2254 h -7.662033 l -0.225354,-0.22527 h -0.901406 l -0.225354,0.22527 h -0.676065 l -0.225355,0.2254 h -0.450709 l -0.450709,0.45069 z"
     fill="#000000"
     fill-rule="evenodd"
     id="path13"
     style="stroke-width:0.225353" />
  <path
     d="m 52.49754,157.87514 -0.225356,0.2254 H 51.59612 l -0.225354,0.22542 h -0.225355 l -0.225354,0.22527 h -0.225355 l -1.352115,1.35219 v 0.22527 l -0.45071,0.67609 v 1.12677 l -0.225354,0.22541 v 0.22527 l 0.225354,0.22541 v 1.80287 l 0.225355,0.22527 v 2.02827 l 0.225355,0.22528 v 1.12677 l 0.225354,0.22541 v 1.35205 l 0.225355,0.2254 v 1.35205 l 0.225355,0.22541 v 1.12677 l 0.225355,0.22541 v 0.90136 l 0.225342,0.22542 v 1.12664 l 0.225354,0.2254 v 0.90137 l 0.225355,0.2254 v 0.6761 l 0.225354,0.22527 v 1.12678 l 0.225355,0.2254 v 0.6761 l 0.225354,0.22527 v 0.45081 l 0.676064,0.67596 v 0.22542 l 0.901419,0.90136 h 0.225355 l 0.450709,0.45068 h 0.225342 l 0.225354,0.2254 h 0.225355 l 0.676065,0.45069 h 0.676063 l 0.225355,0.22541 h 1.802825 l 0.225354,-0.22541 h 0.225355 l 0.676063,-0.67609 v -0.22527 l 0.225355,-0.22541 v -0.45069 l 0.225354,-0.22527 v -0.67609 l -0.225354,-0.22541 v -0.90136 l -0.225355,-0.22542 v -0.45068 l -0.225354,-0.2254 v -0.90137 l -0.225355,-0.22541 v -0.67595 l -0.225354,-0.22542 v -1.12677 l -0.225355,-0.2254 v -1.12664 l -0.225354,-0.22542 v -0.90136 l -0.225355,-0.22541 v -1.12677 l -0.225356,-0.22541 v -1.35205 l -0.225341,-0.2254 v -1.80286 l -0.225355,-0.22529 v -1.35217 l -0.225354,-0.22527 v -1.57746 l -0.225355,-0.22542 v -3.1549 l -0.225355,-0.22541 v -0.45069 l -0.225354,-0.2254 v -0.22527 L 55.877846,159.678 v -0.22527 l -1.126774,-1.12677 h -0.225354 l -0.225355,-0.22542 h -0.67605 l -0.225355,-0.2254 z"
     fill="#000000"
     fill-rule="evenodd"
     id="path14"
     style="stroke-width:0.225353" />
  <path
     d="m 157.0617,157.64986 h -0.67607 l -0.22535,0.22528 h -0.67605 l -0.22536,0.2254 h -0.22535 l -0.4507,0.45069 h -0.22536 l -0.22536,0.2254 v 0.22529 l -0.45071,0.45081 v 0.22527 l -0.45071,0.67609 v 0.45069 l -0.22535,0.22541 v 2.70422 l -0.22535,0.22528 v 2.02828 l -0.22536,0.22527 v 1.57746 l -0.22534,0.2254 v 1.57746 l -0.22536,0.2254 v 1.12678 l -0.22536,0.22527 v 1.12678 l -0.22534,0.2254 v 1.35219 l -0.22536,0.22527 v 0.90137 l -0.22535,0.2254 v 0.90137 l -0.22536,0.2254 v 1.12678 l -0.22536,0.22541 v 0.67596 l -0.22535,0.2254 v 0.6761 l -0.22536,0.22527 v 1.80286 l 0.22536,0.22541 v 0.45069 l 0.90142,0.90136 h 0.4507 l 0.22536,0.22541 h 0.67606 l 0.22535,-0.22541 h 1.12677 l 0.22536,-0.22527 h 0.4507 l 0.22536,-0.22542 h 0.22535 l 0.22536,-0.2254 h 0.22536 l 0.22534,-0.22527 h 0.22535 l 1.57748,-1.57746 v -0.22541 l 0.22535,-0.22528 v -0.22541 l 0.45072,-0.67609 v -0.67608 l 0.22535,-0.22528 v -0.9015 l 0.22536,-0.22527 v -0.9015 l 0.22536,-0.22527 v -0.9015 l 0.22533,-0.22528 v -1.12678 l 0.22536,-0.2254 v -0.90137 l 0.22535,-0.2254 v -0.90137 l 0.22536,-0.22541 v -1.57745 l 0.22535,-0.22528 v -1.12677 l 0.22536,-0.22541 v -1.12677 l 0.22536,-0.22528 v -1.80286 l 0.22534,-0.22541 v -1.57746 l 0.22536,-0.2254 v -1.57746 l -0.22536,-0.22527 v -0.45069 l -0.22534,-0.22541 v -0.2254 l -0.22536,-0.22527 V 159.678 l -1.12678,-1.12677 h -0.22533 l -0.45072,-0.45069 h -0.45071 l -0.22536,-0.2254 h -0.67605 z"
     fill="#000000"
     fill-rule="evenodd"
     id="path15"
     style="stroke-width:0.225353" />
  <path
     d="m 56.103201,128.57917 h -1.577483 l -0.225355,0.2254 h -0.67605 l -0.225355,0.22527 h -0.225355 l -0.225354,0.22542 h -0.225355 l -0.225354,0.2254 h -0.225356 l -0.225355,0.22528 h -0.225354 l -1.352127,1.35218 v 0.22528 l -0.450697,0.4508 v 0.22529 l -0.225355,0.2254 v 0.45068 l -0.225355,0.22541 v 1.80274 l -0.225354,0.2254 v 1.80286 l -0.225355,0.22528 v 1.57746 l -0.225355,0.2254 v 1.80286 l -0.225354,0.22529 v 2.47894 l -0.225355,0.22529 v 4.73249 l -0.225354,0.22529 v 1.12677 l 0.225354,0.2254 v 0.45069 l 0.225355,0.2254 v 0.45068 l 0.450709,0.45069 v 0.2254 l 1.126774,1.12677 h 0.225342 l 0.225354,0.22529 h 0.225355 l 0.225354,0.2254 h 0.450709 l 0.225355,0.22541 h 0.450709 l 0.225356,0.22527 h 1.352127 l 0.225342,-0.22527 h 0.225354 l 0.225355,-0.22541 h 0.225354 l 0.676065,-0.67609 v -0.22527 l 0.225355,-0.22541 v -0.22541 l 0.225354,-0.22528 v -0.2254 l 0.225355,-0.22527 v -4.95778 l 0.225354,-0.22541 v -2.92964 l 0.225355,-0.22528 v -2.92963 l 0.225355,-0.22541 v -2.02814 l 0.225354,-0.2254 v -1.57746 l 0.225355,-0.22528 v -1.80286 l 0.225341,-0.22541 v -0.90137 l 0.225356,-0.2254 v -0.90137 l 0.225355,-0.2254 v -0.45069 l -0.225355,-0.22528 v -0.67609 l -0.450697,-0.45068 v -0.2254 l -0.225355,-0.22542 h -0.225354 l -0.225355,-0.22527 h -0.225355 z"
     fill="#000000"
     fill-rule="evenodd"
     id="path16"
     style="stroke-width:0.225353" />
  <path
     d="m 153.68139,128.35388 -0.22535,0.22529 h -0.22536 l -0.22535,0.2254 h -0.22535 l -0.67606,0.67609 v 0.45068 l -0.22536,0.22528 v 2.47895 l 0.22536,0.22541 v 1.12664 l 0.22536,0.22541 v 1.57746 l 0.22534,0.2254 v 1.80286 l 0.22536,0.22529 v 2.02827 l 0.22535,0.22527 v 2.25355 l 0.22535,0.2254 v 3.38033 l 0.22536,0.22527 v 4.50709 l 0.22535,0.22542 v 0.45067 l 0.22536,0.22528 v 0.22541 l 1.12677,1.12677 h 0.22535 l 0.22536,0.22541 h 2.02818 l 0.22535,-0.22541 h 0.45071 l 0.22536,-0.2254 h 0.45071 l 0.45069,-0.45069 h 0.22536 l 1.35212,-1.35204 v -0.22542 l 0.22536,-0.2254 v -0.45068 l 0.22535,-0.22528 v -5.85927 l -0.22535,-0.22529 v -2.47895 l -0.22536,-0.2254 v -2.02814 l -0.22534,-0.22527 v -1.80287 l -0.22536,-0.22541 v -1.57745 l -0.22536,-0.22542 v -1.12677 l -0.22535,-0.22527 v -1.35218 l -0.22536,-0.22528 v -0.45069 l -0.22535,-0.2254 v -0.2254 l -1.80283,-1.80274 h -0.22535 l -0.22535,-0.2254 h -0.22536 l -0.22536,-0.22542 h -0.22535 l -0.22536,-0.22527 h -0.4507 l -0.22534,-0.2254 h -0.90143 l -0.22534,-0.22529 z"
     fill="#000000"
     fill-rule="evenodd"
     id="path17"
     style="stroke-width:0.225353" />
  <path
     d="m 126.63894,129.25526 -0.90142,0.90136 v 0.22541 l -0.67605,1.12677 v 4.50709 l 0.22534,0.22529 v 3.38031 l 0.22536,0.22541 v 4.50709 l 0.22535,0.22528 v 5.18318 l 0.22535,0.22541 v 0.67596 l 0.22535,0.2254 v 0.45069 l 0.22536,0.2254 v 0.22528 l 1.57748,1.57759 h 0.22536 l 1.12676,0.67596 h 11.94375 l 0.22536,-0.22528 h 5.18314 l 0.22535,-0.22541 h 0.67606 l 0.22536,-0.22527 0.67607,-0.22541 0.4507,-0.45069 h 0.22534 l 0.67607,-0.67608 v -0.22541 l 0.4507,-0.45068 v -0.22527 l 0.45071,-0.6761 v -0.67609 l 0.22536,-0.2254 v -3.15492 l -0.22536,-0.22527 v -4.5071 l -0.22535,-0.22541 v -2.25354 l -0.22536,-0.22527 v -1.35219 l -0.22534,-0.2254 v -1.57746 l -0.22536,-0.22528 v -1.80286 l -0.22536,-0.22541 v -0.67596 l -0.22535,-0.22541 v -0.45068 l -0.22536,-0.2254 -0.22534,-0.67609 -0.4507,-0.45069 v -0.22528 l -0.90143,-0.90149 h -0.22536 l -1.12677,-0.90137 H 145.794 l -0.22533,-0.2254 h -0.45071 l -0.22536,-0.22529 h -16.45082 l -0.22536,0.22529 h -0.45071 l -0.90142,0.67609 z"
     fill="#000000"
     fill-rule="evenodd"
     id="path18"
     style="stroke-width:0.225353" />
  <path
     d="m 61.962396,129.70594 -0.901418,0.90149 v 0.22528 l -0.450697,0.45069 v 0.2254 l -0.676064,1.12677 v 1.12678 l -0.225355,0.22527 v 1.35219 l -0.225355,0.2254 v 1.57746 l -0.225354,0.22528 v 1.80286 l -0.225355,0.2254 v 2.47883 l -0.225354,0.2254 v 3.6056 l -0.225355,0.22541 v 3.831 l 0.225355,0.22541 v 0.67596 l 0.225354,0.2254 0.225355,0.67609 0.676064,0.6761 v 0.22527 l 0.901406,0.67609 h 0.225355 l 1.126772,0.67609 h 1.577483 l 0.225355,0.22528 h 9.915566 l 0.225355,0.2254 h 4.957777 l 0.225354,-0.2254 h 0.676064 l 0.225354,-0.22528 0.676065,-0.22541 0.450696,-0.45068 h 0.225355 l 0.676064,-0.67609 v -0.22527 l 0.676063,-0.9015 v -0.45069 l 0.225356,-0.2254 v -1.57746 l 0.225355,-0.22528 v -5.40858 l 0.225354,-0.22529 v -4.73249 l 0.225355,-0.22528 v -3.15505 l 0.225354,-0.22527 v -2.92963 l -0.225354,-0.22529 v -0.4508 l -0.225355,-0.22528 -0.225354,-0.67609 -1.352129,-1.35219 h -0.225354 l -0.676064,-0.45067 h -0.676051 l -0.225356,-0.22529 h -5.633853 l -0.225354,0.22529 h -1.12676 l -0.225355,-0.22529 h -3.380308 l -0.225354,0.22529 h -4.95779 l -0.225354,0.2254 -1.12676,0.22527 -0.90142,0.6761 z"
     fill="#000000"
     fill-rule="evenodd"
     id="path19"
     style="stroke-width:0.225353" />
  <path
     d="m 120.10367,130.38203 -1.12677,-1.12677 -1.80282,-0.90138 h -12.39445 l -0.22535,-0.2254 -0.22536,0.2254 H 92.385159 l -0.225355,0.22529 -1.12676,0.2254 -0.901419,0.67609 H 89.90627 l -1.352127,1.57746 -0.225355,0.90137 -0.225355,0.2254 v 0.90137 l -0.225355,0.2254 v 2.70423 l -0.225342,0.22529 v 3.60572 l -0.225354,0.22541 v 5.40845 l -0.225355,0.22528 v 4.5071 l 0.225355,0.2254 v 0.45068 l 0.676051,1.35219 1.126774,1.12677 1.126772,0.67596 -0.225354,0.2254 0.225354,-0.2254 h 0.450711 l 0.225354,0.2254 h 6.084552 l 0.225348,0.22528 h 11.718396 l 0.22535,-0.22528 h 8.56346 l 0.22535,-0.2254 h 0.45069 l 1.35214,-0.67596 1.12677,-1.12677 0.67606,-1.35219 v -0.90136 l 0.22534,-0.22541 v -2.47882 l -0.22534,-0.22541 v -6.30995 l -0.22536,-0.22529 v -3.38031 l -0.22535,-0.22541 v -3.6056 l -0.22535,-0.2254 v -0.90137 l -0.22536,-0.2254 v -0.45069 l -0.67607,-0.90137 z"
     fill="#000000"
     fill-rule="evenodd"
     id="path20"
     style="stroke-width:0.225353" />
  <path
     d="m 65.342704,99.733868 h -2.02818 L 63.08917,99.95927 h -0.676065 l -0.676064,0.45069 h -0.450709 l -0.450709,0.45068 h -0.225342 l -1.577483,1.57746 v 0.2254 l -0.225354,0.22541 v 0.22528 l -0.225355,0.22541 v 0.22527 l -0.225354,0.2254 v 0.22542 l -0.450709,0.67595 v 0.45082 l -0.225355,0.22527 v 0.22541 l -0.450697,0.67609 v 0.45069 l -0.450709,0.67596 v 0.45081 l -0.225355,0.22527 v 0.22542 l -0.225355,0.22527 v 0.45081 l -0.450709,0.67596 v 0.45082 l -0.225354,0.22528 v 0.45067 l -0.450709,0.6761 v 0.45068 l -0.225356,0.22541 v 0.45069 l -0.225355,0.2254 v 0.45068 l -0.225354,0.22528 v 0.45081 l -0.225355,0.22527 v 0.45069 l -0.225354,0.22541 v 0.45069 l -0.225342,0.2254 v 0.45068 l -0.225354,0.22541 v 0.45068 l -0.225355,0.22527 v 0.6761 l -0.225355,0.2254 v 0.45069 l -0.225354,0.2254 v 0.67596 l -0.225355,0.22541 v 0.45069 l -0.225354,0.2254 v 1.57746 l 0.225354,0.22527 v 0.45082 l 0.225355,0.22528 v 0.2254 l 0.901418,0.90137 h 0.225342 l 0.450709,0.45068 h 0.450709 l 0.225356,0.22541 h 0.450709 l 0.225354,0.2254 h 1.126773 l 0.225355,-0.2254 h 0.450697 l 0.225355,-0.22541 h 0.225354 l 1.126773,-1.12678 v -0.22527 l 0.225354,-0.2254 v -0.22528 l 0.45071,-0.67609 v -1.57746 l 0.225355,-0.2254 v -0.90137 l 0.225355,-0.22541 v -0.45068 l 0.225354,-0.22541 v -0.67596 l 0.225342,-0.2254 v -0.67609 l 0.225355,-0.22528 v -0.67609 l 0.225354,-0.2254 v -0.45069 l 0.225355,-0.22541 v -0.67596 l 0.225354,-0.2254 v -0.45069 l 0.450709,-0.67608 v -0.6761 l 0.225355,-0.22528 v -0.45068 l 0.225356,-0.2254 v -0.45069 l 0.450709,-0.67609 v -0.45068 l 0.450709,-0.67609 v -0.45068 l 0.225354,-0.22542 v -0.45067 l 0.225355,-0.22541 v -0.22528 l 0.450696,-0.67608 v -0.45069 l 0.225355,-0.22541 v -0.22528 l 0.450709,-0.67609 v -0.45068 l 0.225356,-0.22541 v -0.22527 l 0.225354,-0.22542 v -0.2254 l 0.450709,-0.67596 v -0.45081 l 0.225355,-0.22528 v -1.57745 z"
     fill="#000000"
     fill-rule="evenodd"
     id="path21"
     style="stroke-width:0.225353" />
  <path
     d="m 144.44189,99.508595 -0.4507,0.450675 h -0.22536 v 0.22528 l -0.22536,0.22541 v 0.67608 l -0.22535,0.22529 v 0.2254 l 0.22535,0.22541 v 0.90136 l 0.22536,0.22541 v 0.22528 l 0.22536,0.22541 v 0.22527 l 0.22534,0.2254 v 0.22542 l 0.22536,0.22527 v 0.22541 l 0.22535,0.22527 v 0.22541 l 0.22536,0.22541 v 0.22527 l 0.45071,0.6761 v 0.45069 l 0.22536,0.2254 v 0.45068 l 0.22533,0.22528 v 0.22541 l 0.22536,0.2254 v 0.45069 l 0.45071,0.67608 v 0.45069 l 0.22536,0.22527 v 0.45082 l 0.22535,0.22528 v 0.45067 l 0.22535,0.22542 v 0.45068 l 0.22535,0.2254 v 0.45069 l 0.22536,0.2254 v 0.45069 l 0.22536,0.22527 v 0.45069 l 0.22535,0.22541 v 0.45067 l 0.22536,0.22542 v 0.67608 l 0.22536,0.22529 v 0.67608 l 0.22534,0.22541 v 0.67595 l 0.22536,0.22542 v 0.67608 l 0.22534,0.22528 v 0.45081 l 0.22536,0.22528 v 0.90149 l 0.22535,0.22529 v 1.12677 l 0.22536,0.2254 v 0.45069 l 0.22536,0.22527 v 0.22541 l 0.22534,0.22541 v 0.22528 l 0.22536,0.2254 v 0.22527 l 0.90142,0.9015 h 0.22536 l 0.22534,0.22528 h 0.67606 l 0.22536,0.22541 h 1.12677 l 0.22535,-0.22541 h 0.45072 l 0.22534,-0.22528 h 0.22536 l 0.22535,-0.2254 h 0.22536 l 0.4507,-0.45068 h 0.22535 l 0.22535,-0.22542 v -0.22527 l 0.22536,-0.2254 v -0.22528 l 0.45071,-0.67609 v -2.02815 l -0.22536,-0.2254 v -0.67609 l -0.22535,-0.22528 v -0.45081 l -0.22536,-0.22528 v -0.67608 l -0.22535,-0.22542 v -0.45067 l -0.22535,-0.22528 v -0.45082 l -0.22534,-0.22527 v -0.45069 l -0.22536,-0.2254 v -0.45068 l -0.22536,-0.22542 v -0.45067 l -0.22535,-0.22541 v -0.67596 l -0.4507,-0.67609 v -0.45069 l -0.22536,-0.2254 v -0.45068 l -0.22536,-0.22542 v -0.22527 l -0.22535,-0.2254 v -0.45069 l -0.45071,-0.67609 v -0.45068 l -0.22536,-0.22541 v -0.45069 l -0.22535,-0.22527 v -0.2254 l -0.45071,-0.6761 v -0.45067 l -0.4507,-0.6761 v -0.45069 l -0.22536,-0.22527 v -0.22541 l -0.22534,-0.22541 v -0.22527 l -0.45071,-0.6761 v -0.45067 l -0.22536,-0.22541 v -0.22528 l -0.22536,-0.22541 v -0.2254 l -0.45071,-0.45069 v -0.22527 l -0.67606,-0.6761 h -0.22535 l -0.4507,-0.45067 h -0.22536 l -0.22534,-0.22541 h -0.22536 l -0.67607,-0.45069 h -0.45071 l -0.22535,-0.225402 h -0.67607 l -0.22535,-0.225273 z"
     fill="#000000"
     fill-rule="evenodd"
     id="path22"
     style="stroke-width:0.225353" />
  <path
     d="M 86.751318,99.05791 H 86.525964 L 85.8499,98.607095 h -7.662033 l -0.225355,0.225402 h -3.605661 l -0.225342,0.225413 h -0.901418 l -0.225355,0.225272 h -0.45071 l -0.225355,0.225413 -1.126772,0.450675 -0.450697,0.45069 h -0.225354 l -1.126774,1.12677 -0.225355,-0.2254 -0.225354,0.2254 0.225354,0.22541 v 0.22527 l -0.676063,0.67609 v 0.22541 l -0.225355,0.22528 -0.901406,2.02827 -0.225355,0.22527 -0.225355,-0.22527 0.225355,0.22527 v 0.45069 l -0.225355,0.22541 v 0.2254 l -0.450709,0.67596 v 0.45069 l -0.676063,1.12677 -0.225355,1.12677 -0.45071,0.6761 -0.225355,-0.22528 0.225355,0.22528 v 0.45067 l -0.225355,0.22542 v 0.45068 l -0.225354,0.2254 v 0.45069 l -0.225355,0.2254 v 0.45069 l -0.225354,0.22527 v 0.45069 l -0.225342,0.22541 v 0.45067 l -0.225355,0.22542 v 0.67608 l -0.225354,0.22529 v 0.67608 l -0.225355,0.22541 v 0.67595 l -0.225354,0.22542 v 0.45068 l -0.225355,0.2254 v 0.90137 l -0.225354,0.22541 v 2.25354 l 0.225354,0.22529 v 0.45067 l 0.225355,0.22541 v 0.22541 l 0.676063,0.90137 h 0.225355 l 0.450696,0.45068 h 0.225355 l 0.676065,0.45068 h 0.450709 l 0.225354,0.22541 h 5.408486 l 0.225355,-0.22541 h 9.464857 l 0.225354,-0.22528 h 0.676064 l 0.225355,-0.2254 h 0.450709 l 0.225354,-0.22528 h 0.225356 l 1.577469,-1.57759 v -0.22527 l 0.676064,-1.12678 v -0.67608 l 0.225355,-0.22529 v -2.02826 l 0.225355,-0.22528 v -1.57759 l 0.225355,-0.22527 v -1.12677 l 0.225354,-0.22542 v -1.12677 l 0.225355,-0.22527 v -1.12678 l 0.225354,-0.2254 v -1.12677 l 0.225355,-0.22528 v -0.9015 l 0.225354,-0.22528 v -0.9015 l 0.225355,-0.22527 v -0.9015 l 0.225354,-0.22527 v -0.9015 l 0.225342,-0.22528 v -0.9015 l 0.225355,-0.22527 v -0.9015 l 0.225355,-0.22527 v -2.25356 l -0.225355,-0.2254 -0.225355,-0.67609 z"
     fill="#000000"
     fill-rule="evenodd"
     id="path23"
     style="stroke-width:0.225353" />
  <path
     d="m 122.35721,99.05791 -0.90141,0.90136 v 0.22528 l -0.22535,0.22541 v 0.45068 l -0.22535,0.2254 v 2.02815 l 0.22535,0.22541 v 0.90136 l 0.22535,0.22541 v 0.90136 l 0.22536,0.22541 v 1.12678 l 0.22534,0.22527 v 1.12677 l 0.22536,0.22542 v 0.90136 l 0.22535,0.22541 v 1.12677 l 0.22536,0.22527 v 1.35219 l 0.22534,0.2254 v 1.35206 l 0.22536,0.2254 v 1.35206 l 0.22536,0.2254 v 1.35204 l 0.22535,0.22542 v 1.57745 l 0.22536,0.22541 v 1.35204 l 0.22536,0.22541 0.45071,1.12678 0.4507,0.45068 v 0.22541 l 1.35211,1.12677 h 0.22536 l 0.22536,0.22528 h 0.45071 l 0.22535,0.2254 h 4.73242 l 0.22535,0.22528 h 11.2677 l 0.22536,-0.22528 1.12677,-0.2254 1.57747,-1.57746 v -0.22541 l 0.45071,-0.67596 v -0.67609 l 0.22535,-0.22541 v -0.90136 l -0.22535,-0.22541 v -0.67596 l -0.22535,-0.2254 v -0.67609 l -0.22536,-0.22528 v -0.67609 l -0.22536,-0.2254 v -0.45069 l -0.22535,-0.22541 v -0.67596 l -0.22536,-0.2254 v -0.45068 l -0.22533,-0.22542 v -0.67608 l -0.22536,-0.22528 v -0.45068 l -0.22535,-0.2254 v -0.45069 l -0.22536,-0.22541 v -0.45068 l -0.22536,-0.22528 -0.22535,-1.12677 -0.22536,-0.22541 v -0.22541 l -0.22534,-0.22527 v -0.45069 l -0.45072,-0.67608 -0.22535,-1.12678 -1.12677,-2.02814 v -0.45082 l -0.22535,-0.22527 -0.67607,-1.57746 -0.4507,-0.45081 v -0.22528 l -0.45071,-0.45068 v -0.22541 l -1.12677,-1.12677 h -0.22536 l -1.12676,-0.901365 h -0.22535 l -0.22536,-0.225413 h -0.45071 l -0.22536,-0.225272 h -0.4507 l -0.22535,-0.225413 h -2.02819 l -0.22535,-0.225402 h -5.40848 l -0.22536,-0.225273 h -4.05637 l -0.22535,0.225273 h -0.45072 l -0.22535,0.225402 h -0.45072 l -0.22534,0.225413 z"
     fill="#000000"
     fill-rule="evenodd"
     id="path24"
     style="stroke-width:0.225353" />
  <path
     d="m 92.835868,100.86064 -0.450709,0.9015 v 0.45068 l -0.225355,0.22528 v 0.67609 l -0.225354,0.22541 v 0.67609 l -0.225355,0.22527 v 0.9015 l -0.225355,0.22527 v 1.12679 l -0.225354,0.2254 v 0.90137 l -0.225342,0.2254 v 0.90137 l -0.225354,0.2254 v 1.12678 l -0.225355,0.22528 v 1.12677 l -0.225356,0.2254 v 1.35205 l -0.225354,0.22541 -0.225355,2.47882 -0.225354,0.22541 v 1.35218 l -0.225355,0.22528 v 2.92963 l 0.225355,0.22528 v 0.45081 l 0.450709,0.90137 0.901419,0.90136 1.802824,0.9015 h 23.436792 l 0.22536,-0.2254 h 0.4507 l 0.90143,-0.45068 1.35211,-1.35219 0.45071,-0.90136 v -0.6761 l 0.22536,-0.22527 v -1.35218 l -0.22536,-0.22528 v -1.57759 l -0.22535,-0.22527 v -1.35217 l -0.22536,-0.22529 v -1.35217 l -0.22536,-0.22541 v -1.35205 l -0.22535,-0.22541 v -1.35205 l -0.22536,-0.2254 v -1.12678 l -0.22533,-0.22528 v -0.9015 l -0.22536,-0.22527 v -1.12677 l -0.22535,-0.2254 v -0.90138 l -0.22536,-0.22541 v -1.12677 l -0.22536,-0.22527 v -0.9015 l -0.22535,-0.22528 v -0.67609 l -0.67606,-1.35218 -1.12678,-1.352045 h -0.22535 l -0.4507,-0.450685 -1.35212,-0.676088 h -1.12679 L 111.99094,98.15641 H 98.469706 l -0.225348,0.225412 H 96.44153 l -0.225359,0.225273 -1.126773,0.225402 -0.450707,0.450685 h -0.225337 z"
     fill="#000000"
     fill-rule="evenodd"
     id="path25"
     style="stroke-width:0.225353" />
  <path
     d="m 39.42702,40.916556 -7.211322,8.338097 -3.831017,13.295873 0.450709,8.788793 3.154952,8.563455 4.056372,5.633841 6.985968,5.633853 8.112729,3.154938 10.366276,0.450685 9.239515,-2.70422 9.915567,-6.309901 6.985967,-9.690216 2.704243,-10.140921 -0.901418,-12.619809 -6.084549,-10.59163 -6.760615,-5.183145 -0.450709,-1.802824 5.633841,3.380307 6.084549,7.662033 3.380308,8.338083 0.676064,10.140921 -4.957777,14.197296 -5.633854,6.760614 -7.436665,4.73243 -0.676063,4.732482 H 136.5545 l -1.12677,-7.436733 -4.50707,-3.605662 -3.60566,-21.183251 10.36628,-2.478902 2.9296,1.126774 13.52122,30.873479 8.56344,29.521324 4.28172,32.45102 -0.4507,18.02824 -2.70425,15.54941 1.57748,1.80287 2.25354,-0.67609 3.60567,-7.662 2.25352,-22.08465 -0.67606,-25.69039 -3.3803,-22.53534 -4.73243,-18.929753 -8.7888,-25.014279 -15.54941,-33.352361 -4.95779,-4.507067 -2.70424,-9.239516 -4.73243,-1.802823 -1.12677,-3.154954 -2.70424,-2.028191 H 85.8499 l -2.929599,2.028191 -1.126772,3.154954 -2.02818,0.676063 2.704243,2.929598 v 4.507067 l -1.802823,2.478902 -2.253547,0.450709 2.028192,-3.605661 -0.901419,-4.056372 -2.704243,-2.253547 -4.056372,-0.225341 -4.05637,4.281713 v 3.154952 l 2.028192,2.929597 -1.126774,4.056372 -5.183144,-1.126761 -11.267681,0.676051 -8.338097,3.380307 z m 27.493165,-1.802824 1.126761,0.45071 -0.45071,1.352114 v 1.126774 l 0.45071,1.126773 1.126773,1.126761 1.126774,0.450709 2.253533,-0.225355 1.126774,-0.901406 0.676051,-1.126773 2.92961,2.253534 3.605662,4.281726 2.478889,4.957775 0.676063,2.478902 -1.126774,1.126761 -0.676063,2.028192 v 2.478888 l 0.450709,1.352128 -1.577482,7.211323 -0.901407,6.08455 -1.802836,2.478892 -4.056371,4.056372 -3.831003,2.704243 -4.281726,2.028178 -5.859195,1.352128 h -5.4085 l -4.957776,-1.126773 -3.605662,-1.57747 -4.50708,-3.154952 -3.154953,-3.380307 -1.352127,-2.028192 0.225355,-0.45071 -0.225355,0.225355 -0.45071,-0.4507 -1.12676,-2.253546 -1.126774,-3.154952 -0.676064,-3.154954 v -6.760613 l 1.352129,-5.633841 2.028179,-4.281725 2.478901,-3.605662 4.281712,-4.281725 3.605663,-2.478889 4.957789,-2.253533 h 0.676064 l 1.802825,-0.676064 2.704243,-0.225356 0.225354,-0.225354 h 4.95779 l 0.225354,0.225354 z"
     fill="#000000"
     fill-rule="evenodd"
     id="path26"
     style="stroke-width:0.225353" />
</svg>
