<svg xmlns="http://www.w3.org/2000/svg" width="1254" height="1254" viewBox="0 0 1254 1254">
<rect width="100%" height="100%" fill="white"/>
<path d="M 604,1017 L 600,1021 L 600,1022 L 598,1025 L 598,1038 L 599,1039 L 599,1042 L 600,1043 L 600,1047 L 601,1048 L 601,1053 L 602,1054 L 602,1058 L 603,1059 L 603,1063 L 604,1064 L 604,1068 L 605,1069 L 605,1072 L 606,1073 L 606,1076 L 607,1077 L 607,1080 L 608,1081 L 608,1086 L 609,1087 L 609,1090 L 610,1091 L 610,1094 L 611,1095 L 611,1098 L 612,1099 L 612,1101 L 613,1102 L 614,1105 L 619,1110 L 620,1110 L 621,1111 L 624,1111 L 625,1112 L 667,1112 L 668,1111 L 672,1111 L 674,1109 L 675,1109 L 679,1105 L 679,1104 L 682,1099 L 682,1097 L 683,1096 L 683,1092 L 684,1091 L 684,1088 L 685,1087 L 685,1083 L 686,1082 L 686,1078 L 687,1077 L 687,1074 L 688,1073 L 688,1069 L 689,1068 L 689,1064 L 690,1063 L 690,1059 L 691,1058 L 691,1052 L 692,1051 L 692,1047 L 693,1046 L 693,1041 L 694,1040 L 694,1036 L 695,1035 L 695,1028 L 694,1027 L 694,1025 L 693,1024 L 693,1022 L 688,1017 L 687,1017 L 684,1015 L 608,1015 L 607,1016 Z" fill="black" fill-rule="evenodd"/>
<path d="M 518,1014 L 518,1015 L 516,1017 L 516,1019 L 515,1020 L 515,1029 L 516,1030 L 516,1032 L 517,1033 L 517,1034 L 519,1037 L 519,1039 L 520,1040 L 520,1041 L 521,1042 L 521,1043 L 522,1044 L 522,1045 L 523,1046 L 523,1047 L 524,1048 L 524,1049 L 525,1050 L 525,1051 L 527,1054 L 527,1056 L 528,1057 L 528,1058 L 529,1059 L 529,1060 L 530,1061 L 530,1062 L 531,1063 L 531,1064 L 532,1065 L 532,1066 L 533,1067 L 533,1068 L 534,1069 L 535,1072 L 537,1074 L 537,1075 L 538,1076 L 538,1077 L 539,1078 L 539,1079 L 540,1080 L 540,1081 L 541,1082 L 542,1085 L 546,1090 L 547,1093 L 549,1095 L 549,1096 L 551,1098 L 551,1099 L 556,1104 L 557,1104 L 559,1106 L 560,1106 L 561,1107 L 565,1107 L 566,1108 L 574,1108 L 575,1109 L 584,1109 L 585,1110 L 594,1110 L 595,1109 L 596,1109 L 600,1105 L 600,1103 L 601,1102 L 601,1096 L 600,1095 L 600,1092 L 599,1091 L 599,1088 L 598,1087 L 598,1084 L 597,1083 L 597,1079 L 596,1078 L 596,1075 L 595,1074 L 595,1071 L 594,1070 L 594,1066 L 593,1065 L 593,1061 L 592,1060 L 592,1057 L 591,1056 L 591,1053 L 590,1052 L 590,1047 L 589,1046 L 589,1043 L 588,1042 L 588,1038 L 587,1037 L 587,1034 L 586,1033 L 586,1029 L 585,1028 L 585,1025 L 584,1024 L 584,1023 L 582,1021 L 582,1020 L 578,1016 L 577,1016 L 574,1014 L 571,1014 L 570,1013 L 552,1013 L 551,1012 L 540,1012 L 539,1011 L 523,1011 L 522,1012 L 521,1012 L 519,1014 Z" fill="black" fill-rule="evenodd"/>
<path d="M 773,1012 L 772,1012 L 769,1010 L 764,1010 L 763,1011 L 752,1011 L 751,1012 L 740,1012 L 739,1013 L 723,1013 L 722,1014 L 719,1014 L 718,1015 L 715,1016 L 709,1022 L 709,1023 L 707,1026 L 707,1029 L 706,1030 L 706,1035 L 705,1036 L 705,1040 L 704,1041 L 704,1045 L 703,1046 L 703,1049 L 702,1050 L 702,1054 L 701,1055 L 701,1059 L 700,1060 L 700,1063 L 699,1064 L 699,1068 L 698,1069 L 698,1073 L 697,1074 L 697,1077 L 696,1078 L 696,1081 L 695,1082 L 695,1085 L 694,1086 L 694,1089 L 693,1090 L 693,1093 L 692,1094 L 692,1103 L 693,1104 L 693,1105 L 695,1108 L 696,1108 L 699,1110 L 708,1110 L 709,1109 L 717,1109 L 718,1108 L 726,1108 L 727,1107 L 732,1107 L 733,1106 L 736,1105 L 738,1103 L 739,1103 L 743,1099 L 743,1098 L 747,1093 L 748,1090 L 750,1088 L 750,1087 L 751,1086 L 751,1085 L 752,1084 L 753,1081 L 755,1079 L 755,1078 L 756,1077 L 756,1076 L 757,1075 L 757,1074 L 758,1073 L 758,1072 L 759,1071 L 760,1068 L 762,1066 L 762,1064 L 763,1063 L 763,1062 L 764,1061 L 764,1060 L 765,1059 L 765,1058 L 766,1057 L 766,1056 L 767,1055 L 767,1054 L 768,1053 L 768,1052 L 769,1051 L 770,1048 L 771,1047 L 772,1048 L 771,1047 L 771,1045 L 772,1044 L 772,1043 L 773,1042 L 773,1041 L 775,1038 L 775,1036 L 776,1035 L 776,1034 L 778,1031 L 778,1029 L 779,1028 L 779,1022 L 778,1021 L 778,1018 L 777,1017 L 777,1016 Z" fill="black" fill-rule="evenodd"/>
<path d="M 812,1007 L 811,1007 L 810,1006 L 803,1006 L 802,1007 L 800,1007 L 798,1009 L 797,1009 L 795,1011 L 795,1012 L 793,1014 L 793,1015 L 791,1017 L 791,1019 L 790,1020 L 790,1021 L 789,1022 L 789,1024 L 788,1025 L 788,1026 L 787,1027 L 787,1029 L 786,1030 L 786,1031 L 785,1032 L 785,1033 L 784,1034 L 784,1035 L 783,1036 L 783,1037 L 782,1038 L 782,1040 L 781,1041 L 781,1042 L 780,1043 L 780,1044 L 779,1045 L 779,1046 L 778,1047 L 778,1048 L 777,1049 L 777,1050 L 776,1051 L 776,1052 L 775,1053 L 775,1054 L 774,1055 L 774,1056 L 773,1057 L 773,1058 L 772,1059 L 772,1060 L 771,1061 L 771,1062 L 770,1063 L 770,1064 L 769,1065 L 769,1066 L 768,1067 L 768,1068 L 767,1069 L 767,1070 L 766,1071 L 766,1072 L 765,1073 L 765,1074 L 764,1075 L 764,1076 L 763,1077 L 763,1078 L 761,1080 L 761,1081 L 760,1082 L 760,1083 L 759,1084 L 759,1085 L 758,1086 L 758,1087 L 757,1088 L 757,1089 L 756,1090 L 756,1097 L 758,1099 L 759,1099 L 760,1100 L 761,1100 L 762,1099 L 764,1099 L 765,1098 L 766,1098 L 768,1096 L 769,1096 L 775,1090 L 775,1089 L 778,1086 L 778,1085 L 780,1083 L 780,1082 L 782,1080 L 782,1079 L 785,1076 L 785,1075 L 787,1073 L 787,1072 L 789,1070 L 789,1069 L 791,1067 L 791,1066 L 792,1065 L 792,1064 L 794,1062 L 794,1061 L 795,1060 L 795,1059 L 797,1057 L 797,1056 L 799,1054 L 799,1053 L 801,1051 L 801,1050 L 802,1049 L 802,1048 L 803,1047 L 803,1046 L 805,1044 L 805,1043 L 806,1042 L 806,1041 L 807,1040 L 807,1039 L 809,1037 L 809,1036 L 810,1035 L 810,1034 L 811,1033 L 811,1032 L 812,1031 L 812,1030 L 814,1028 L 814,1027 L 815,1026 L 815,1025 L 816,1024 L 816,1023 L 817,1022 L 817,1013 L 816,1012 L 816,1011 Z" fill="black" fill-rule="evenodd"/>
<path d="M 483,1007 L 479,1011 L 479,1012 L 478,1013 L 478,1017 L 477,1018 L 478,1019 L 478,1023 L 479,1024 L 479,1025 L 480,1026 L 480,1027 L 479,1028 L 480,1027 L 482,1029 L 482,1030 L 483,1031 L 483,1032 L 484,1033 L 484,1034 L 485,1035 L 485,1036 L 487,1038 L 487,1039 L 488,1040 L 488,1041 L 489,1042 L 489,1043 L 491,1045 L 491,1046 L 492,1047 L 492,1048 L 494,1050 L 494,1051 L 495,1052 L 495,1053 L 497,1055 L 497,1056 L 498,1057 L 498,1058 L 500,1060 L 500,1061 L 499,1062 L 500,1061 L 502,1063 L 502,1064 L 503,1065 L 503,1066 L 505,1068 L 505,1069 L 507,1071 L 507,1072 L 509,1074 L 509,1075 L 511,1077 L 511,1078 L 513,1080 L 513,1081 L 515,1083 L 515,1084 L 519,1088 L 519,1089 L 527,1097 L 528,1097 L 530,1099 L 532,1099 L 533,1100 L 534,1100 L 535,1099 L 536,1099 L 538,1097 L 538,1090 L 537,1089 L 537,1088 L 536,1087 L 536,1086 L 535,1085 L 535,1084 L 534,1083 L 534,1082 L 533,1081 L 533,1080 L 531,1078 L 531,1077 L 530,1076 L 530,1075 L 529,1074 L 529,1073 L 528,1072 L 528,1071 L 527,1070 L 527,1069 L 526,1068 L 526,1067 L 525,1066 L 525,1065 L 524,1064 L 524,1063 L 523,1062 L 523,1061 L 522,1060 L 522,1059 L 521,1058 L 521,1057 L 520,1056 L 520,1055 L 519,1054 L 519,1053 L 518,1052 L 518,1051 L 517,1050 L 517,1049 L 518,1048 L 517,1049 L 516,1048 L 516,1047 L 515,1046 L 515,1045 L 514,1044 L 514,1043 L 513,1042 L 513,1041 L 512,1040 L 512,1039 L 511,1038 L 511,1037 L 510,1036 L 510,1035 L 509,1034 L 509,1033 L 508,1032 L 508,1030 L 507,1029 L 507,1028 L 506,1027 L 506,1026 L 505,1025 L 505,1023 L 504,1022 L 504,1020 L 503,1019 L 503,1017 L 502,1016 L 502,1015 L 499,1012 L 499,1011 L 498,1010 L 497,1010 L 495,1008 L 494,1008 L 493,1007 L 492,1007 L 491,1006 L 485,1006 L 484,1007 Z" fill="black" fill-rule="evenodd"/>
<path d="M 582,900 L 582,901 L 581,902 L 581,905 L 580,906 L 580,918 L 581,919 L 581,926 L 582,927 L 582,933 L 583,934 L 583,942 L 584,943 L 584,949 L 585,950 L 585,955 L 586,956 L 586,963 L 587,964 L 587,970 L 588,971 L 588,975 L 589,976 L 589,981 L 590,982 L 591,987 L 598,995 L 599,995 L 602,997 L 604,997 L 605,998 L 622,998 L 623,999 L 666,999 L 667,998 L 687,998 L 688,997 L 690,997 L 691,996 L 694,995 L 700,989 L 700,988 L 703,983 L 703,980 L 704,979 L 704,974 L 705,973 L 705,966 L 706,965 L 706,960 L 707,959 L 707,953 L 708,952 L 708,946 L 709,945 L 709,939 L 710,938 L 710,930 L 711,929 L 711,922 L 712,921 L 712,914 L 713,913 L 713,908 L 712,907 L 712,904 L 711,903 L 711,901 L 706,895 L 705,895 L 703,893 L 702,893 L 701,892 L 699,892 L 698,891 L 594,891 L 591,893 L 589,893 Z" fill="black" fill-rule="evenodd"/>
<path d="M 816,889 L 815,889 L 812,887 L 793,887 L 792,888 L 773,888 L 772,889 L 749,889 L 748,890 L 743,890 L 742,891 L 737,893 L 731,899 L 731,900 L 729,903 L 729,905 L 728,906 L 728,909 L 727,910 L 727,917 L 726,918 L 726,923 L 725,924 L 725,930 L 724,931 L 724,937 L 723,938 L 723,944 L 722,945 L 722,950 L 721,951 L 721,956 L 720,957 L 720,962 L 719,963 L 719,968 L 718,969 L 718,975 L 717,976 L 717,985 L 718,986 L 718,988 L 723,994 L 724,994 L 727,996 L 730,996 L 731,997 L 735,997 L 736,996 L 753,996 L 754,995 L 766,995 L 767,994 L 778,994 L 779,993 L 782,993 L 783,992 L 785,992 L 788,990 L 789,990 L 790,991 L 789,990 L 792,987 L 793,987 L 794,986 L 794,985 L 797,982 L 797,981 L 799,979 L 799,978 L 801,975 L 801,973 L 803,970 L 803,968 L 805,965 L 805,963 L 806,962 L 806,961 L 807,960 L 807,958 L 809,955 L 809,953 L 810,952 L 810,950 L 812,947 L 812,945 L 813,944 L 813,942 L 814,941 L 814,939 L 815,938 L 815,936 L 816,935 L 816,933 L 817,932 L 817,930 L 818,929 L 818,927 L 819,926 L 819,923 L 820,922 L 820,920 L 821,919 L 821,916 L 822,915 L 822,913 L 823,912 L 823,909 L 824,908 L 824,901 L 823,900 L 823,898 L 822,897 L 821,894 Z" fill="black" fill-rule="evenodd"/>
<path d="M 475,891 L 474,892 L 474,893 L 472,895 L 472,896 L 471,897 L 471,899 L 470,900 L 470,908 L 471,909 L 471,912 L 472,913 L 472,915 L 473,916 L 473,918 L 474,919 L 474,922 L 475,923 L 475,926 L 476,927 L 476,929 L 475,930 L 475,931 L 475,930 L 476,929 L 477,930 L 477,932 L 478,933 L 478,935 L 479,936 L 479,938 L 480,939 L 480,941 L 481,942 L 481,944 L 482,945 L 482,947 L 483,948 L 483,950 L 484,951 L 484,953 L 485,954 L 485,956 L 484,957 L 484,958 L 484,957 L 485,956 L 487,959 L 487,961 L 489,964 L 490,969 L 491,970 L 491,971 L 492,972 L 492,974 L 493,975 L 493,976 L 492,977 L 493,976 L 494,977 L 495,980 L 498,983 L 498,984 L 503,989 L 504,989 L 506,991 L 507,991 L 508,992 L 510,992 L 511,993 L 513,993 L 514,994 L 523,994 L 524,995 L 536,995 L 537,996 L 554,996 L 555,997 L 562,997 L 563,996 L 566,996 L 567,995 L 568,995 L 573,990 L 573,989 L 575,986 L 575,974 L 574,973 L 574,968 L 573,967 L 573,962 L 572,961 L 572,956 L 571,955 L 571,950 L 570,949 L 570,944 L 569,943 L 569,938 L 568,937 L 568,930 L 567,929 L 567,924 L 566,923 L 566,918 L 565,917 L 565,910 L 564,909 L 564,905 L 563,904 L 563,902 L 564,901 L 563,902 L 562,901 L 562,900 L 563,899 L 562,900 L 557,894 L 556,894 L 554,892 L 553,892 L 552,891 L 550,891 L 549,890 L 538,890 L 537,889 L 516,889 L 515,888 L 497,888 L 496,887 L 483,887 L 482,888 L 480,888 L 479,889 L 478,889 L 476,891 Z" fill="black" fill-rule="evenodd"/>
<path d="M 436,883 L 435,884 L 434,884 L 432,886 L 431,886 L 428,889 L 428,890 L 426,893 L 426,896 L 425,897 L 425,900 L 426,901 L 426,904 L 427,905 L 427,907 L 428,908 L 428,910 L 429,911 L 429,913 L 431,916 L 431,918 L 432,919 L 432,921 L 433,922 L 433,924 L 434,925 L 434,927 L 435,928 L 435,930 L 437,933 L 437,935 L 438,936 L 438,938 L 440,941 L 440,943 L 442,946 L 442,948 L 444,951 L 444,953 L 445,954 L 445,955 L 447,958 L 447,960 L 448,961 L 448,962 L 450,965 L 450,967 L 452,970 L 452,972 L 453,973 L 453,974 L 454,975 L 454,976 L 456,978 L 456,979 L 460,983 L 461,983 L 463,985 L 464,985 L 465,986 L 466,986 L 469,988 L 471,988 L 472,989 L 475,989 L 476,990 L 479,990 L 480,989 L 482,989 L 485,986 L 485,984 L 486,983 L 486,981 L 485,980 L 485,977 L 484,976 L 484,974 L 483,973 L 483,972 L 481,969 L 481,967 L 479,964 L 479,962 L 478,961 L 478,959 L 476,956 L 476,954 L 474,951 L 474,949 L 473,948 L 473,946 L 472,945 L 472,943 L 471,942 L 471,940 L 470,939 L 470,937 L 469,936 L 469,934 L 468,933 L 468,931 L 467,930 L 467,928 L 466,927 L 466,925 L 465,924 L 465,922 L 464,921 L 464,918 L 463,917 L 463,915 L 462,914 L 462,912 L 461,911 L 461,909 L 460,908 L 460,905 L 459,904 L 459,901 L 458,900 L 458,896 L 457,895 L 457,894 L 456,893 L 456,892 L 455,891 L 455,890 L 451,886 L 450,886 L 447,884 L 445,884 L 444,883 Z" fill="black" fill-rule="evenodd"/>
<path d="M 860,883 L 857,883 L 856,882 L 853,882 L 852,883 L 849,883 L 848,884 L 846,884 L 844,886 L 843,886 L 840,889 L 840,890 L 838,892 L 838,893 L 837,894 L 837,896 L 836,897 L 836,901 L 835,902 L 835,905 L 834,906 L 834,909 L 833,910 L 833,912 L 832,913 L 832,915 L 831,916 L 831,919 L 830,920 L 830,922 L 829,923 L 829,925 L 828,926 L 828,928 L 827,929 L 827,931 L 826,932 L 826,934 L 825,935 L 825,937 L 824,938 L 824,940 L 823,941 L 823,943 L 822,944 L 822,946 L 820,949 L 820,951 L 819,952 L 819,954 L 818,955 L 818,957 L 816,960 L 816,962 L 814,965 L 814,967 L 813,968 L 813,969 L 811,972 L 811,974 L 809,977 L 809,981 L 808,982 L 809,983 L 809,986 L 812,989 L 814,989 L 815,990 L 817,990 L 818,989 L 822,989 L 823,988 L 825,988 L 826,987 L 828,987 L 829,986 L 830,986 L 832,984 L 833,984 L 840,977 L 840,976 L 841,975 L 841,974 L 843,971 L 843,969 L 844,968 L 844,967 L 845,966 L 845,965 L 846,964 L 846,963 L 848,960 L 848,958 L 850,955 L 850,953 L 852,950 L 852,948 L 853,947 L 853,946 L 855,943 L 855,941 L 857,938 L 857,936 L 858,935 L 858,933 L 860,930 L 860,928 L 861,927 L 861,925 L 863,922 L 863,920 L 864,919 L 864,917 L 865,916 L 865,914 L 866,913 L 866,911 L 867,910 L 867,908 L 868,907 L 868,905 L 869,904 L 869,902 L 870,901 L 870,896 L 869,895 L 869,893 L 868,892 L 868,890 L 862,884 L 861,884 Z" fill="black" fill-rule="evenodd"/>
<path d="M 718,765 L 711,759 L 707,758 L 706,757 L 703,757 L 702,756 L 650,756 L 649,757 L 586,757 L 578,761 L 574,765 L 570,773 L 570,800 L 571,801 L 571,820 L 572,821 L 572,833 L 573,834 L 573,848 L 574,849 L 574,854 L 575,855 L 575,857 L 579,864 L 587,870 L 593,871 L 594,872 L 698,872 L 699,871 L 701,871 L 702,870 L 704,870 L 708,868 L 714,862 L 717,856 L 717,854 L 718,853 L 718,846 L 719,845 L 720,819 L 721,818 L 721,798 L 722,797 L 722,773 Z" fill="black" fill-rule="evenodd"/>
<path d="M 840,757 L 839,757 L 836,755 L 834,755 L 833,754 L 809,754 L 808,755 L 772,755 L 771,756 L 756,756 L 755,757 L 753,757 L 749,760 L 748,760 L 743,765 L 743,766 L 741,769 L 741,771 L 740,772 L 740,775 L 739,776 L 739,795 L 738,796 L 738,813 L 737,814 L 737,825 L 736,826 L 736,838 L 735,839 L 735,849 L 734,850 L 734,851 L 735,852 L 735,856 L 736,857 L 738,862 L 743,867 L 744,867 L 747,869 L 749,869 L 750,870 L 771,870 L 772,869 L 793,869 L 794,868 L 811,868 L 812,867 L 821,867 L 822,866 L 827,864 L 831,860 L 832,860 L 834,858 L 834,857 L 836,855 L 836,854 L 839,849 L 839,847 L 840,846 L 840,841 L 841,840 L 841,836 L 842,835 L 842,832 L 843,831 L 843,826 L 844,825 L 844,820 L 845,819 L 845,814 L 846,813 L 846,808 L 847,807 L 847,801 L 848,800 L 848,792 L 849,791 L 849,785 L 850,784 L 850,770 L 849,769 L 847,764 Z" fill="black" fill-rule="evenodd"/>
<path d="M 453,758 L 448,763 L 448,764 L 446,766 L 446,768 L 445,769 L 445,771 L 444,772 L 444,781 L 445,782 L 445,789 L 446,790 L 446,799 L 447,800 L 447,806 L 448,807 L 448,813 L 449,814 L 449,819 L 450,820 L 450,825 L 451,826 L 451,831 L 452,832 L 452,836 L 453,837 L 453,841 L 454,842 L 454,846 L 455,847 L 456,852 L 458,854 L 459,857 L 466,864 L 467,864 L 472,867 L 475,867 L 476,868 L 490,868 L 491,869 L 513,869 L 514,870 L 544,870 L 545,869 L 548,868 L 554,862 L 554,861 L 556,858 L 556,856 L 557,855 L 557,843 L 556,842 L 556,830 L 555,829 L 555,817 L 554,816 L 554,802 L 553,801 L 553,784 L 552,783 L 552,773 L 551,772 L 551,770 L 550,769 L 549,766 L 547,764 L 547,763 L 542,759 L 541,759 L 538,757 L 536,757 L 535,756 L 503,756 L 502,755 L 468,755 L 467,754 L 463,754 L 462,755 L 459,755 L 458,756 L 456,756 L 454,758 Z" fill="black" fill-rule="evenodd"/>
<path d="M 415,752 L 414,753 L 411,753 L 410,754 L 409,754 L 408,755 L 407,755 L 401,761 L 401,762 L 399,765 L 399,770 L 398,771 L 398,772 L 399,773 L 399,781 L 400,782 L 400,791 L 401,792 L 401,797 L 402,798 L 402,804 L 403,805 L 403,811 L 404,812 L 404,817 L 405,818 L 405,822 L 406,823 L 406,828 L 407,829 L 407,833 L 408,834 L 408,837 L 409,838 L 409,843 L 410,844 L 410,847 L 411,848 L 411,850 L 414,853 L 414,854 L 418,858 L 419,858 L 421,860 L 422,860 L 423,861 L 424,861 L 427,863 L 430,863 L 431,864 L 439,864 L 440,863 L 441,863 L 444,860 L 444,859 L 445,858 L 445,856 L 446,855 L 446,852 L 445,851 L 445,847 L 444,846 L 444,844 L 443,843 L 443,839 L 442,838 L 442,835 L 441,834 L 441,829 L 440,828 L 440,823 L 439,822 L 439,818 L 438,817 L 438,812 L 437,811 L 437,805 L 436,804 L 436,796 L 435,795 L 435,789 L 434,788 L 434,781 L 433,780 L 433,766 L 432,765 L 432,763 L 431,762 L 431,761 L 430,760 L 430,759 L 425,754 L 424,754 L 423,753 L 420,753 L 419,752 Z" fill="black" fill-rule="evenodd"/>
<path d="M 879,751 L 876,751 L 875,752 L 872,752 L 871,753 L 870,753 L 868,755 L 867,755 L 866,756 L 866,757 L 864,759 L 864,760 L 862,763 L 862,765 L 861,766 L 861,778 L 860,779 L 860,788 L 859,789 L 859,796 L 858,797 L 858,804 L 857,805 L 857,810 L 856,811 L 856,816 L 855,817 L 855,823 L 854,824 L 854,828 L 853,829 L 853,833 L 852,834 L 852,839 L 851,840 L 851,843 L 850,844 L 850,847 L 849,848 L 849,856 L 850,857 L 850,859 L 854,863 L 856,863 L 857,864 L 860,864 L 861,863 L 866,863 L 867,862 L 869,862 L 870,861 L 871,861 L 872,860 L 873,860 L 874,859 L 875,859 L 882,852 L 882,851 L 883,850 L 883,849 L 885,846 L 885,843 L 886,842 L 886,838 L 887,837 L 887,833 L 888,832 L 888,828 L 889,827 L 889,822 L 890,821 L 890,817 L 891,816 L 891,812 L 892,811 L 892,804 L 893,803 L 893,798 L 894,797 L 894,792 L 895,791 L 895,783 L 896,782 L 896,775 L 897,774 L 897,767 L 896,766 L 896,764 L 895,763 L 895,762 L 894,761 L 894,760 L 889,755 L 888,755 L 886,753 L 884,753 L 883,752 L 880,752 Z" fill="black" fill-rule="evenodd"/>
<path d="M 431,622 L 424,622 L 423,623 L 420,623 L 419,624 L 418,624 L 417,625 L 416,625 L 415,626 L 414,626 L 413,627 L 412,627 L 406,633 L 406,634 L 404,636 L 404,637 L 403,638 L 403,640 L 402,641 L 402,649 L 401,650 L 401,658 L 400,659 L 400,666 L 399,667 L 399,675 L 398,676 L 398,687 L 397,688 L 397,709 L 396,710 L 396,715 L 397,716 L 397,718 L 398,719 L 398,721 L 400,723 L 400,724 L 405,729 L 406,729 L 407,730 L 408,730 L 409,731 L 411,731 L 412,732 L 414,732 L 415,733 L 421,733 L 422,732 L 423,732 L 424,731 L 425,731 L 428,728 L 428,727 L 429,726 L 429,725 L 430,724 L 430,723 L 431,722 L 431,700 L 432,699 L 432,686 L 433,685 L 433,672 L 434,671 L 434,662 L 435,661 L 435,654 L 436,653 L 436,645 L 437,644 L 437,640 L 438,639 L 438,635 L 439,634 L 439,632 L 438,631 L 438,628 L 436,626 L 436,625 L 435,624 L 434,624 L 433,623 L 432,623 Z" fill="black" fill-rule="evenodd"/>
<path d="M 864,621 L 863,622 L 862,622 L 861,623 L 860,623 L 857,626 L 857,628 L 856,629 L 856,640 L 857,641 L 857,646 L 858,647 L 858,654 L 859,655 L 859,663 L 860,664 L 860,673 L 861,674 L 861,684 L 862,685 L 862,700 L 863,701 L 863,721 L 864,722 L 864,724 L 865,725 L 865,726 L 870,731 L 871,731 L 872,732 L 881,732 L 882,731 L 884,731 L 885,730 L 887,730 L 889,728 L 890,728 L 896,722 L 896,721 L 897,720 L 897,718 L 898,717 L 898,691 L 897,690 L 897,679 L 896,678 L 896,669 L 895,668 L 895,660 L 894,659 L 894,652 L 893,651 L 893,646 L 892,645 L 892,639 L 891,638 L 891,636 L 890,635 L 890,634 L 882,626 L 881,626 L 880,625 L 879,625 L 878,624 L 877,624 L 876,623 L 874,623 L 873,622 L 869,622 L 868,621 Z" fill="black" fill-rule="evenodd"/>
<path d="M 744,625 L 740,629 L 740,630 L 737,635 L 737,655 L 738,656 L 738,671 L 739,672 L 739,692 L 740,693 L 740,716 L 741,717 L 741,720 L 742,721 L 742,723 L 743,724 L 743,725 L 750,732 L 751,732 L 756,735 L 809,735 L 810,734 L 833,734 L 834,733 L 837,733 L 838,732 L 841,731 L 843,729 L 844,729 L 847,726 L 847,725 L 849,723 L 849,722 L 851,719 L 851,716 L 852,715 L 852,701 L 851,700 L 851,680 L 850,679 L 850,669 L 849,668 L 849,662 L 848,661 L 848,654 L 847,653 L 847,645 L 846,644 L 846,641 L 845,640 L 845,638 L 844,637 L 843,634 L 841,632 L 841,631 L 837,627 L 836,627 L 831,623 L 829,623 L 828,622 L 826,622 L 825,621 L 752,621 L 751,622 L 749,622 L 745,625 Z" fill="black" fill-rule="evenodd"/>
<path d="M 457,627 L 453,631 L 453,632 L 451,634 L 451,635 L 448,640 L 448,645 L 447,646 L 447,652 L 446,653 L 446,660 L 445,661 L 445,669 L 444,670 L 444,681 L 443,682 L 443,698 L 442,699 L 442,716 L 443,717 L 443,720 L 444,721 L 445,724 L 448,727 L 448,728 L 452,731 L 453,731 L 458,734 L 465,734 L 466,735 L 510,735 L 511,736 L 533,736 L 534,735 L 537,735 L 538,734 L 541,733 L 543,731 L 544,731 L 547,728 L 547,727 L 550,723 L 550,721 L 551,720 L 551,713 L 552,712 L 552,688 L 553,687 L 553,666 L 554,665 L 554,651 L 555,650 L 555,637 L 554,636 L 554,634 L 553,633 L 552,630 L 546,624 L 545,624 L 542,622 L 539,622 L 538,621 L 513,621 L 512,622 L 507,622 L 506,621 L 491,621 L 490,622 L 468,622 L 467,623 L 462,624 L 458,627 Z" fill="black" fill-rule="evenodd"/>
<path d="M 715,630 L 710,625 L 702,621 L 647,621 L 646,620 L 645,621 L 592,621 L 591,622 L 586,623 L 582,626 L 581,626 L 575,633 L 574,637 L 573,638 L 573,642 L 572,643 L 572,655 L 571,656 L 571,672 L 570,673 L 570,697 L 569,698 L 569,718 L 570,719 L 570,721 L 573,727 L 578,732 L 583,735 L 582,736 L 583,735 L 585,735 L 586,736 L 613,736 L 614,737 L 666,737 L 667,736 L 705,736 L 706,735 L 708,735 L 714,732 L 719,727 L 722,721 L 722,717 L 723,716 L 723,705 L 722,704 L 722,676 L 721,675 L 721,660 L 720,659 L 720,643 L 719,642 L 719,638 L 718,637 L 718,635 L 715,631 Z" fill="black" fill-rule="evenodd"/>
<path d="M 472,494 L 463,494 L 462,495 L 459,495 L 456,497 L 454,497 L 452,499 L 451,499 L 444,506 L 444,507 L 443,508 L 443,509 L 442,510 L 442,511 L 441,512 L 441,513 L 439,516 L 439,518 L 438,519 L 438,520 L 436,523 L 436,525 L 434,528 L 434,530 L 433,531 L 433,532 L 432,533 L 432,535 L 430,538 L 430,540 L 429,541 L 429,543 L 427,546 L 427,548 L 426,549 L 426,551 L 425,552 L 425,554 L 424,555 L 424,557 L 423,558 L 423,560 L 422,561 L 422,563 L 421,564 L 421,566 L 420,567 L 420,569 L 419,570 L 419,573 L 418,574 L 418,576 L 417,577 L 417,580 L 416,581 L 416,583 L 415,584 L 415,591 L 416,592 L 416,594 L 417,595 L 417,596 L 421,600 L 422,600 L 424,602 L 426,602 L 427,603 L 429,603 L 430,604 L 435,604 L 436,603 L 438,603 L 439,602 L 440,602 L 445,597 L 445,596 L 446,595 L 446,594 L 448,591 L 448,584 L 449,583 L 449,579 L 450,578 L 450,576 L 451,575 L 451,572 L 452,571 L 452,568 L 453,567 L 453,564 L 454,563 L 454,561 L 455,560 L 455,557 L 456,556 L 456,554 L 458,551 L 458,548 L 459,547 L 459,545 L 460,544 L 460,542 L 462,539 L 462,537 L 464,534 L 464,532 L 465,531 L 465,529 L 466,528 L 466,527 L 468,524 L 468,522 L 469,521 L 469,520 L 471,517 L 471,515 L 472,514 L 472,513 L 473,512 L 473,511 L 475,508 L 475,506 L 476,505 L 476,498 Z" fill="black" fill-rule="evenodd"/>
<path d="M 823,493 L 821,495 L 820,495 L 820,496 L 819,497 L 819,500 L 818,501 L 818,502 L 819,503 L 819,507 L 820,508 L 820,509 L 821,510 L 821,511 L 822,512 L 822,513 L 823,514 L 823,515 L 824,516 L 824,517 L 825,518 L 825,519 L 827,522 L 827,524 L 828,525 L 828,527 L 829,528 L 829,529 L 830,530 L 830,532 L 832,535 L 832,537 L 833,538 L 833,540 L 834,541 L 834,543 L 835,544 L 835,546 L 836,547 L 836,549 L 837,550 L 837,552 L 838,553 L 838,555 L 839,556 L 839,558 L 840,559 L 840,562 L 841,563 L 841,566 L 842,567 L 842,570 L 843,571 L 843,574 L 844,575 L 844,577 L 845,578 L 845,582 L 846,583 L 846,588 L 847,589 L 847,591 L 848,592 L 848,593 L 849,594 L 849,595 L 850,596 L 850,597 L 854,601 L 855,601 L 856,602 L 859,602 L 860,603 L 865,603 L 866,602 L 868,602 L 869,601 L 870,601 L 871,600 L 872,600 L 874,598 L 875,598 L 876,597 L 876,596 L 877,595 L 877,594 L 879,591 L 879,582 L 878,581 L 878,578 L 877,577 L 877,575 L 876,574 L 876,571 L 875,570 L 875,568 L 874,567 L 874,565 L 873,564 L 873,562 L 872,561 L 872,559 L 871,558 L 871,556 L 870,555 L 870,552 L 868,549 L 868,547 L 867,546 L 867,544 L 866,543 L 866,542 L 865,541 L 865,539 L 863,536 L 863,534 L 862,533 L 862,531 L 861,530 L 861,529 L 859,526 L 859,524 L 857,521 L 857,519 L 856,518 L 856,517 L 855,516 L 855,515 L 853,512 L 853,510 L 852,509 L 852,508 L 851,507 L 851,506 L 849,504 L 849,503 L 846,500 L 845,500 L 843,498 L 842,498 L 841,497 L 840,497 L 837,495 L 835,495 L 834,494 L 831,494 L 830,493 Z" fill="black" fill-rule="evenodd"/>
<path d="M 567,491 L 566,491 L 563,489 L 529,489 L 528,490 L 512,490 L 511,491 L 507,491 L 506,492 L 504,492 L 503,493 L 498,495 L 496,497 L 495,497 L 490,502 L 489,501 L 488,502 L 489,503 L 489,504 L 486,507 L 486,508 L 485,509 L 481,518 L 480,519 L 479,518 L 480,519 L 480,521 L 479,522 L 479,523 L 477,526 L 477,528 L 474,533 L 473,538 L 471,541 L 470,540 L 471,541 L 471,543 L 470,544 L 470,546 L 469,547 L 469,549 L 468,550 L 468,552 L 467,553 L 467,555 L 466,556 L 466,558 L 465,559 L 465,562 L 464,563 L 464,566 L 463,567 L 463,570 L 462,571 L 462,573 L 461,574 L 461,578 L 460,579 L 460,589 L 461,590 L 461,592 L 462,593 L 462,594 L 465,598 L 466,598 L 468,600 L 469,600 L 472,602 L 474,602 L 475,603 L 499,603 L 500,602 L 542,602 L 543,601 L 546,601 L 547,600 L 549,600 L 550,599 L 551,599 L 558,592 L 558,591 L 561,586 L 561,583 L 562,582 L 562,573 L 563,572 L 563,565 L 564,564 L 564,559 L 565,558 L 565,553 L 566,552 L 566,547 L 567,546 L 567,541 L 568,540 L 568,536 L 569,535 L 569,531 L 570,530 L 570,526 L 571,525 L 571,521 L 572,520 L 572,516 L 573,515 L 573,511 L 574,510 L 574,500 L 573,499 L 572,496 Z" fill="black" fill-rule="evenodd"/>
<path d="M 725,491 L 721,495 L 721,496 L 720,497 L 720,499 L 719,500 L 719,509 L 720,510 L 720,514 L 721,515 L 721,519 L 722,520 L 722,525 L 723,526 L 723,531 L 724,532 L 724,536 L 725,537 L 725,542 L 726,543 L 726,549 L 727,550 L 727,556 L 728,557 L 728,563 L 729,564 L 729,570 L 730,571 L 730,578 L 731,579 L 731,585 L 732,586 L 734,591 L 736,593 L 736,594 L 742,599 L 743,599 L 744,600 L 746,600 L 747,601 L 768,601 L 769,602 L 819,602 L 820,601 L 825,600 L 832,593 L 832,592 L 834,589 L 834,586 L 835,585 L 835,581 L 834,580 L 834,577 L 833,576 L 833,573 L 832,572 L 832,569 L 831,568 L 831,566 L 830,565 L 830,562 L 829,561 L 829,559 L 828,558 L 828,555 L 827,554 L 827,552 L 826,551 L 826,549 L 825,548 L 825,546 L 824,545 L 823,540 L 822,539 L 822,538 L 821,537 L 821,535 L 819,532 L 818,527 L 813,518 L 813,516 L 812,515 L 809,508 L 807,506 L 807,505 L 805,503 L 805,502 L 800,497 L 799,497 L 794,493 L 793,493 L 792,492 L 790,492 L 789,491 L 787,491 L 786,490 L 777,490 L 776,489 L 752,489 L 751,488 L 733,488 L 732,489 L 730,489 L 729,490 L 727,490 L 726,491 Z" fill="black" fill-rule="evenodd"/>
<path d="M 594,499 L 592,503 L 592,505 L 591,506 L 591,509 L 590,510 L 590,513 L 589,514 L 589,518 L 588,519 L 588,524 L 587,525 L 587,529 L 586,530 L 586,534 L 585,535 L 585,540 L 584,541 L 584,546 L 583,547 L 583,553 L 582,554 L 581,565 L 580,566 L 580,572 L 579,573 L 579,586 L 580,587 L 580,589 L 582,593 L 586,597 L 594,601 L 698,601 L 699,600 L 701,600 L 705,598 L 711,592 L 713,588 L 713,585 L 714,584 L 714,578 L 713,577 L 713,570 L 712,569 L 712,563 L 711,562 L 711,556 L 710,555 L 710,549 L 709,548 L 709,542 L 708,541 L 708,536 L 707,535 L 707,531 L 706,530 L 706,525 L 705,524 L 705,520 L 704,519 L 704,514 L 703,513 L 703,509 L 702,508 L 702,505 L 699,499 L 694,493 L 693,493 L 691,491 L 685,488 L 680,488 L 679,487 L 619,487 L 618,488 L 610,488 L 609,489 L 604,490 L 602,492 L 601,492 Z" fill="black" fill-rule="evenodd"/>
<path d="M 357,233 L 325,270 L 308,329 L 310,368 L 324,406 L 342,431 L 373,456 L 409,470 L 455,472 L 496,460 L 540,432 L 571,389 L 583,344 L 579,288 L 552,241 L 522,218 L 520,210 L 545,225 L 572,259 L 587,296 L 590,341 L 568,404 L 543,434 L 510,455 L 507,476 L 788,476 L 783,443 L 763,427 L 747,333 L 793,322 L 806,327 L 866,464 L 904,595 L 923,739 L 921,819 L 909,888 L 916,896 L 926,893 L 942,859 L 952,761 L 949,647 L 934,547 L 913,463 L 874,352 L 805,204 L 783,184 L 771,143 L 750,135 L 745,121 L 733,112 L 563,112 L 550,121 L 545,135 L 536,138 L 548,151 L 548,171 L 540,182 L 530,184 L 539,168 L 535,150 L 523,140 L 505,139 L 487,158 L 487,172 L 496,185 L 491,203 L 468,198 L 418,201 L 381,216 Z M 479,225 L 484,227 L 482,233 L 482,238 L 484,243 L 489,248 L 494,250 L 504,249 L 509,245 L 512,240 L 525,250 L 541,269 L 552,291 L 555,302 L 550,307 L 547,316 L 547,327 L 549,333 L 542,365 L 538,392 L 530,403 L 512,421 L 495,433 L 476,442 L 450,448 L 426,448 L 404,443 L 388,436 L 368,422 L 354,407 L 348,398 L 349,396 L 348,397 L 346,395 L 341,385 L 336,371 L 333,357 L 333,327 L 339,302 L 348,283 L 359,267 L 378,248 L 394,237 L 416,227 L 419,227 L 427,224 L 439,223 L 440,222 L 462,222 L 463,223 Z" fill="black" fill-rule="evenodd"/>
</svg>