<svg xmlns="http://www.w3.org/2000/svg" width="1448" height="1086" viewBox="0 0 1448 1086">
<rect width="100%" height="100%" fill="white"/>
<path d="M 63,550 L 71,581 L 75,656 L 86,660 L 123,655 L 229,617 L 244,626 L 262,619 L 266,604 L 416,550 L 426,553 L 432,578 L 455,584 L 515,577 L 616,553 L 651,532 L 856,519 L 872,510 L 884,516 L 887,510 L 1357,509 L 1358,498 L 1301,500 L 1339,498 L 1306,498 L 1301,489 L 1381,488 L 1383,468 L 1358,465 L 1360,438 L 1351,432 L 1340,432 L 1335,442 L 1337,463 L 1324,467 L 1199,461 L 1195,456 L 1185,461 L 887,460 L 883,455 L 872,460 L 837,459 L 828,446 L 739,438 L 734,456 L 743,459 L 617,454 L 612,462 L 537,462 L 519,451 L 524,429 L 508,423 L 502,432 L 506,456 L 424,460 L 422,485 L 345,516 L 325,517 L 297,502 L 279,501 L 285,500 L 183,504 L 192,505 L 71,520 L 64,528 Z M 256,615 L 256,616 L 255,617 L 253,617 L 252,618 L 251,618 L 250,619 L 248,619 L 247,620 L 246,620 L 245,619 L 245,617 L 246,616 L 249,616 L 250,615 L 252,615 L 253,614 L 255,614 Z M 435,555 L 436,556 L 436,566 L 437,567 L 437,569 L 436,570 L 435,569 L 435,568 L 434,567 L 434,556 Z M 497,550 L 497,552 L 498,553 L 498,564 L 497,565 L 497,567 L 496,568 L 496,569 L 491,574 L 490,574 L 489,575 L 485,575 L 484,574 L 480,574 L 484,574 L 485,575 L 484,576 L 478,576 L 477,577 L 469,577 L 468,578 L 457,578 L 456,579 L 447,579 L 446,578 L 443,578 L 441,576 L 440,576 L 437,573 L 437,572 L 438,571 L 439,572 L 438,571 L 437,572 L 436,571 L 436,570 L 437,569 L 437,565 L 436,564 L 436,557 L 437,556 L 437,555 L 436,556 L 435,555 L 435,553 L 436,552 L 436,551 L 440,547 L 441,547 L 443,545 L 450,545 L 451,546 L 449,548 L 448,547 L 449,548 L 449,550 L 448,551 L 447,550 L 447,549 L 446,550 L 446,552 L 446,551 L 447,550 L 448,551 L 448,553 L 449,554 L 449,559 L 450,560 L 450,565 L 451,566 L 451,568 L 453,570 L 453,571 L 452,572 L 453,571 L 457,575 L 456,576 L 455,576 L 454,575 L 455,576 L 456,576 L 457,575 L 458,576 L 460,576 L 461,575 L 462,576 L 466,576 L 464,576 L 462,574 L 462,573 L 461,572 L 462,571 L 461,570 L 460,571 L 459,570 L 459,569 L 460,568 L 459,569 L 458,568 L 458,567 L 459,566 L 460,566 L 460,565 L 459,564 L 459,566 L 458,567 L 457,566 L 457,564 L 456,563 L 456,558 L 457,557 L 457,555 L 458,554 L 459,555 L 459,558 L 459,555 L 458,554 L 458,553 L 459,552 L 459,551 L 461,549 L 462,550 L 462,551 L 463,550 L 462,550 L 461,549 L 464,546 L 465,546 L 466,545 L 467,546 L 466,545 L 469,543 L 470,544 L 474,544 L 470,544 L 469,543 L 470,542 L 476,542 L 477,541 L 487,541 L 490,543 L 489,544 L 488,544 L 489,544 L 491,546 L 492,546 L 493,545 L 496,548 L 496,549 Z M 1359,439 L 1360,440 L 1360,447 L 1359,448 L 1359,464 L 1358,465 L 1357,464 L 1357,447 L 1358,446 L 1358,440 Z" fill="black" fill-rule="evenodd"/>
</svg>