<svg xmlns="http://www.w3.org/2000/svg" width="1448" height="1086" viewBox="0 0 1448 1086">
<rect width="100%" height="100%" fill="white"/>
<path d="M 63,633 L 79,646 L 240,601 L 241,611 L 250,614 L 255,596 L 418,545 L 427,550 L 427,567 L 437,575 L 454,576 L 598,551 L 640,531 L 659,531 L 650,529 L 797,521 L 866,508 L 1047,508 L 884,506 L 1177,505 L 1178,518 L 1192,523 L 1205,505 L 1366,505 L 1366,498 L 1299,498 L 1303,489 L 1394,489 L 1397,476 L 1377,470 L 1368,439 L 1351,440 L 1350,460 L 1342,471 L 1202,463 L 884,466 L 831,461 L 819,452 L 762,455 L 735,449 L 739,467 L 650,459 L 530,466 L 523,443 L 531,432 L 530,437 L 524,423 L 514,422 L 506,429 L 511,452 L 513,444 L 510,466 L 506,459 L 445,460 L 428,470 L 414,463 L 412,486 L 352,510 L 318,514 L 300,505 L 267,502 L 126,511 L 66,521 L 56,529 Z M 435,552 L 436,553 L 436,557 L 437,558 L 437,562 L 436,563 L 435,562 L 435,559 L 434,558 L 434,553 Z M 427,552 L 428,553 L 428,565 L 427,566 L 426,565 L 426,553 Z M 489,543 L 489,545 L 490,546 L 490,559 L 488,561 L 487,560 L 486,561 L 486,562 L 487,563 L 485,565 L 484,565 L 483,564 L 484,565 L 483,566 L 482,566 L 481,567 L 478,567 L 477,568 L 470,568 L 469,569 L 461,569 L 460,568 L 461,567 L 464,567 L 459,567 L 458,568 L 456,568 L 455,567 L 453,567 L 452,568 L 451,568 L 458,568 L 459,567 L 461,569 L 460,570 L 449,570 L 448,571 L 447,571 L 446,570 L 443,570 L 442,569 L 443,568 L 444,568 L 443,567 L 441,567 L 440,566 L 440,565 L 439,565 L 438,564 L 438,563 L 437,562 L 437,556 L 436,555 L 436,554 L 437,553 L 437,550 L 437,552 L 436,553 L 435,552 L 435,549 L 436,548 L 436,547 L 437,546 L 437,545 L 440,542 L 441,542 L 442,541 L 443,541 L 445,543 L 445,544 L 446,544 L 447,545 L 447,557 L 448,558 L 448,559 L 449,560 L 449,561 L 450,562 L 450,563 L 452,565 L 455,565 L 456,564 L 456,562 L 455,561 L 456,560 L 456,559 L 456,560 L 455,561 L 454,560 L 454,559 L 453,558 L 453,557 L 452,556 L 452,550 L 453,549 L 453,548 L 454,547 L 455,548 L 459,544 L 458,544 L 457,543 L 458,542 L 459,542 L 464,537 L 472,537 L 473,536 L 480,536 L 481,537 L 483,537 L 485,539 L 486,539 L 487,540 L 487,541 L 486,542 L 485,542 L 486,542 L 487,541 Z M 1191,511 L 1192,511 L 1193,512 L 1193,515 L 1192,516 L 1190,516 L 1189,515 L 1190,514 L 1191,514 L 1191,513 L 1190,512 Z M 1182,512 L 1183,511 L 1185,511 L 1186,512 L 1187,512 L 1189,514 L 1188,515 L 1187,515 L 1186,514 L 1185,514 L 1184,513 L 1183,513 Z" fill="black" fill-rule="evenodd"/>
</svg>