<svg xmlns="http://www.w3.org/2000/svg" width="1448" height="1086" viewBox="0 0 1448 1086">
<rect width="100%" height="100%" fill="white"/>
<path d="M 35,551 L 45,582 L 50,651 L 59,654 L 134,638 L 236,604 L 239,608 L 239,603 L 245,614 L 254,614 L 255,597 L 403,549 L 410,552 L 413,574 L 428,582 L 607,546 L 625,532 L 643,531 L 635,529 L 791,521 L 782,521 L 849,514 L 869,505 L 1180,505 L 1181,520 L 1189,521 L 1194,507 L 1196,515 L 1194,505 L 1381,505 L 1380,496 L 1366,495 L 1379,494 L 1302,496 L 1306,486 L 1408,486 L 1414,472 L 1379,467 L 1375,457 L 1380,444 L 1361,443 L 1360,467 L 1192,459 L 826,460 L 814,446 L 776,448 L 736,441 L 735,451 L 747,457 L 745,461 L 598,455 L 592,462 L 511,461 L 507,436 L 513,432 L 513,420 L 499,415 L 490,424 L 494,445 L 496,436 L 493,457 L 438,455 L 422,466 L 409,457 L 406,484 L 332,514 L 309,516 L 262,504 L 107,510 L 38,525 Z M 476,547 L 476,552 L 477,553 L 477,561 L 476,562 L 476,563 L 474,565 L 473,564 L 472,565 L 471,565 L 471,566 L 470,567 L 468,567 L 467,568 L 468,568 L 469,569 L 468,570 L 465,570 L 464,571 L 458,571 L 457,572 L 451,572 L 450,573 L 443,573 L 441,571 L 440,571 L 439,572 L 438,572 L 442,572 L 443,573 L 442,574 L 436,574 L 435,575 L 429,575 L 428,574 L 426,574 L 425,573 L 424,573 L 420,569 L 420,568 L 419,567 L 419,565 L 418,564 L 418,553 L 419,552 L 419,551 L 420,550 L 420,549 L 422,547 L 423,548 L 424,547 L 426,547 L 427,546 L 426,545 L 427,544 L 428,544 L 429,543 L 433,543 L 434,544 L 434,546 L 433,547 L 432,546 L 431,546 L 431,550 L 431,547 L 432,546 L 433,547 L 433,551 L 432,552 L 432,555 L 433,556 L 433,560 L 434,561 L 434,562 L 435,563 L 435,564 L 440,569 L 441,568 L 442,568 L 442,567 L 443,566 L 441,564 L 442,563 L 441,564 L 440,563 L 440,562 L 439,561 L 439,560 L 438,559 L 438,553 L 439,552 L 440,553 L 439,552 L 439,550 L 440,549 L 440,548 L 447,541 L 448,542 L 450,542 L 449,541 L 450,540 L 451,540 L 452,539 L 458,539 L 459,538 L 467,538 L 468,539 L 469,539 L 470,540 L 471,540 L 474,543 L 474,544 L 475,545 L 475,546 L 473,548 L 474,549 L 474,554 L 474,547 L 475,546 Z M 1188,510 L 1189,511 L 1189,513 L 1188,514 L 1188,515 L 1187,516 L 1185,516 L 1184,515 L 1184,512 L 1185,511 L 1186,511 L 1187,510 Z" fill="black" fill-rule="evenodd"/>
</svg>