<svg xmlns="http://www.w3.org/2000/svg" width="2172" height="724" viewBox="0 0 2172 724">
<rect width="100%" height="100%" fill="white"/>
<path d="M 125,463 L 124,464 L 124,465 L 125,466 L 124,467 L 124,476 L 125,477 L 125,475 L 126,474 L 126,465 L 125,464 Z" fill="black" fill-rule="evenodd"/>
<path d="M 126,385 L 126,387 L 124,389 L 124,396 L 125,397 L 125,395 L 126,394 L 127,394 L 127,393 L 126,392 Z" fill="black" fill-rule="evenodd"/>
<path d="M 203,369 L 203,374 L 202,375 L 201,374 L 201,373 L 201,387 L 200,388 L 200,390 L 199,391 L 199,392 L 200,393 L 200,394 L 198,396 L 201,399 L 201,402 L 201,399 L 202,398 L 202,393 L 203,392 L 204,393 L 204,398 L 204,386 L 204,387 L 203,388 L 202,387 L 202,378 L 203,377 L 204,378 L 204,380 L 204,377 L 203,377 L 202,376 L 203,375 Z" fill="black" fill-rule="evenodd"/>
<path d="M 636,340 L 634,342 L 634,357 L 635,357 L 636,358 L 636,359 L 636,356 L 637,355 L 637,345 L 636,344 Z" fill="black" fill-rule="evenodd"/>
<path d="M 872,336 L 872,347 L 873,348 L 873,350 L 872,351 L 873,352 L 873,354 L 872,355 L 872,357 L 873,358 L 874,358 L 874,357 L 873,356 L 873,353 L 874,352 L 874,349 L 873,348 L 873,336 Z" fill="black" fill-rule="evenodd"/>
<path d="M 90,269 L 126,367 L 129,486 L 145,497 L 185,487 L 494,328 L 593,306 L 632,326 L 639,356 L 574,454 L 566,500 L 631,532 L 660,525 L 663,498 L 735,387 L 863,391 L 890,369 L 890,333 L 911,312 L 1197,312 L 917,311 L 1198,310 L 1222,299 L 1225,284 L 1269,285 L 1279,314 L 1268,335 L 1289,339 L 1271,340 L 1289,341 L 1296,394 L 1290,659 L 1368,662 L 1371,339 L 1384,337 L 1375,316 L 1375,248 L 1384,237 L 1764,230 L 1765,244 L 1790,247 L 1834,224 L 1932,222 L 1936,186 L 1897,183 L 1901,124 L 1886,111 L 1856,112 L 1840,170 L 1800,182 L 1568,177 L 1526,148 L 1374,142 L 1370,150 L 1250,150 L 1248,196 L 1249,143 L 1040,146 L 995,111 L 983,131 L 945,146 L 666,139 L 613,169 L 578,220 L 545,238 L 184,270 L 116,241 L 96,251 Z M 1296,395 L 1297,396 L 1297,609 L 1296,610 L 1295,609 L 1295,396 Z M 783,383 L 784,382 L 848,382 L 849,383 L 848,384 L 784,384 Z M 189,343 L 190,343 L 192,345 L 194,345 L 196,343 L 197,343 L 200,346 L 200,347 L 199,348 L 198,347 L 199,348 L 199,349 L 199,348 L 200,347 L 201,348 L 201,350 L 202,351 L 202,355 L 203,356 L 203,361 L 204,362 L 204,367 L 205,368 L 205,375 L 206,376 L 206,401 L 205,402 L 205,403 L 204,404 L 203,403 L 203,402 L 203,403 L 201,405 L 200,405 L 199,406 L 198,405 L 197,405 L 196,406 L 195,406 L 194,407 L 193,406 L 192,406 L 191,405 L 191,404 L 190,403 L 190,401 L 191,400 L 191,399 L 190,398 L 190,376 L 189,375 L 189,370 L 188,369 L 188,364 L 187,363 L 187,359 L 186,358 L 186,355 L 185,354 L 185,349 L 186,348 L 186,346 Z M 1324,336 L 1325,335 L 1353,335 L 1354,336 L 1353,337 L 1325,337 Z M 1307,336 L 1308,335 L 1314,335 L 1315,336 L 1314,337 L 1308,337 Z M 875,331 L 875,334 L 877,339 L 877,354 L 876,355 L 875,363 L 871,369 L 869,367 L 871,370 L 866,375 L 864,373 L 866,375 L 864,377 L 863,376 L 861,377 L 860,380 L 857,379 L 859,380 L 853,383 L 849,383 L 848,382 L 783,382 L 782,383 L 779,383 L 778,382 L 781,381 L 775,382 L 774,381 L 776,380 L 774,379 L 775,380 L 773,381 L 767,377 L 769,376 L 767,377 L 764,374 L 767,372 L 764,372 L 763,373 L 759,368 L 755,358 L 755,336 L 757,330 L 759,327 L 760,329 L 762,329 L 763,328 L 762,327 L 760,328 L 759,327 L 760,324 L 764,320 L 767,322 L 766,321 L 767,319 L 766,318 L 768,316 L 770,317 L 769,318 L 771,317 L 769,316 L 772,314 L 775,315 L 773,314 L 776,312 L 782,313 L 786,317 L 786,327 L 789,330 L 788,331 L 789,332 L 788,331 L 789,330 L 791,331 L 791,345 L 790,346 L 789,345 L 789,337 L 789,344 L 786,346 L 787,347 L 789,346 L 790,348 L 790,346 L 791,345 L 792,346 L 792,348 L 795,354 L 794,355 L 793,354 L 791,355 L 792,356 L 793,355 L 796,358 L 797,357 L 799,359 L 798,361 L 797,360 L 795,361 L 797,360 L 798,361 L 799,360 L 806,366 L 814,370 L 819,370 L 820,369 L 820,365 L 819,364 L 820,363 L 819,364 L 813,358 L 814,356 L 812,352 L 814,351 L 811,350 L 810,352 L 808,349 L 808,345 L 807,344 L 807,335 L 808,334 L 809,327 L 813,320 L 814,321 L 816,319 L 818,320 L 818,319 L 815,317 L 818,311 L 819,313 L 824,313 L 820,313 L 819,312 L 820,311 L 852,311 L 853,312 L 852,313 L 849,313 L 855,312 L 858,314 L 856,315 L 862,318 L 864,317 L 871,324 Z M 778,312 L 779,311 L 787,311 L 788,312 L 787,313 L 787,316 L 786,317 L 785,316 L 785,313 L 779,313 Z M 1227,284 L 1228,283 L 1229,283 L 1230,282 L 1233,282 L 1234,283 L 1233,284 L 1231,284 L 1230,285 L 1228,285 Z M 1377,260 L 1378,261 L 1378,305 L 1377,306 L 1376,305 L 1376,261 Z M 1084,257 L 1086,259 L 1086,260 L 1085,261 L 1085,264 L 1084,265 L 1084,274 L 1085,275 L 1085,278 L 1086,279 L 1086,280 L 1087,281 L 1086,282 L 1084,282 L 1083,281 L 1083,279 L 1082,278 L 1082,273 L 1081,272 L 1081,263 L 1082,262 L 1082,260 L 1083,259 L 1083,258 Z M 1375,251 L 1376,252 L 1376,312 L 1375,313 L 1374,312 L 1374,252 Z M 1084,257 L 1088,253 L 1088,252 L 1093,247 L 1094,247 L 1095,246 L 1096,246 L 1097,245 L 1098,245 L 1099,244 L 1102,244 L 1103,243 L 1198,243 L 1199,244 L 1198,245 L 1195,245 L 1194,246 L 1101,246 L 1100,247 L 1098,247 L 1097,248 L 1096,248 L 1094,250 L 1093,250 L 1091,252 L 1091,253 L 1087,257 L 1087,258 L 1086,259 Z M 1256,228 L 1257,227 L 1285,227 L 1286,228 L 1295,228 L 1296,227 L 1367,227 L 1368,228 L 1367,229 L 1364,229 L 1363,230 L 1285,230 L 1284,229 L 1257,229 Z M 1691,219 L 1692,218 L 1766,218 L 1767,219 L 1766,220 L 1692,220 Z M 1554,217 L 1558,214 L 1559,216 L 1563,216 L 1564,215 L 1572,215 L 1573,214 L 1591,214 L 1592,215 L 1597,215 L 1598,214 L 1609,214 L 1610,215 L 1681,215 L 1682,214 L 1683,215 L 1766,215 L 1767,216 L 1765,218 L 1764,217 L 1763,218 L 1757,218 L 1756,217 L 1754,218 L 1705,218 L 1704,217 L 1683,217 L 1689,217 L 1690,218 L 1689,219 L 1585,219 L 1584,218 L 1555,218 Z M 1250,204 L 1250,203 L 1251,202 L 1258,202 L 1259,201 L 1263,201 L 1264,202 L 1285,202 L 1286,201 L 1289,201 L 1290,200 L 1302,200 L 1303,201 L 1313,201 L 1314,200 L 1332,200 L 1333,201 L 1332,202 L 1328,202 L 1346,202 L 1346,201 L 1347,200 L 1353,200 L 1354,201 L 1362,201 L 1363,202 L 1363,203 L 1362,204 L 1361,203 L 1356,203 L 1355,204 L 1252,204 L 1251,205 Z M 1916,193 L 1917,194 L 1917,210 L 1916,211 L 1915,210 L 1915,194 Z M 778,191 L 779,190 L 794,190 L 795,191 L 794,192 L 779,192 Z M 1166,191 L 1167,190 L 1172,190 L 1173,189 L 1181,189 L 1182,190 L 1181,191 L 1179,191 L 1178,192 L 1167,192 Z M 943,191 L 944,190 L 986,190 L 987,189 L 991,189 L 992,190 L 1159,190 L 1160,191 L 1159,192 L 944,192 Z M 899,190 L 900,189 L 911,189 L 912,190 L 928,190 L 929,189 L 936,189 L 937,190 L 940,190 L 941,191 L 940,192 L 906,192 L 905,191 L 900,191 Z M 869,190 L 870,189 L 876,189 L 877,190 L 876,191 L 870,191 Z M 1197,175 L 1198,176 L 1198,177 L 1199,178 L 1195,182 L 1194,182 L 1193,183 L 1191,183 L 1190,182 L 1191,181 L 1192,181 L 1193,180 L 1194,180 L 1195,179 L 1195,178 L 1196,177 L 1196,176 Z M 681,197 L 684,195 L 745,195 L 747,161 L 748,194 L 752,195 L 1212,195 L 1212,166 L 1215,166 L 1215,223 L 1212,225 L 1211,233 L 1205,241 L 1203,240 L 1210,229 L 1210,203 L 1212,198 Z M 1405,160 L 1406,161 L 1406,217 L 1405,218 L 1404,217 L 1404,161 Z M 1197,159 L 1199,161 L 1199,162 L 1200,163 L 1200,165 L 1201,166 L 1201,175 L 1200,176 L 1200,177 L 1199,178 L 1198,177 L 1198,176 L 1197,175 L 1197,174 L 1198,173 L 1199,174 L 1198,173 L 1198,164 L 1197,163 L 1197,162 L 1196,161 L 1196,160 Z M 1214,152 L 1215,153 L 1215,163 L 1214,164 L 1213,163 L 1213,153 Z M 1372,151 L 1372,195 L 1370,197 L 1249,197 L 1248,196 L 1249,195 L 1258,195 L 1259,194 L 1274,194 L 1275,195 L 1289,195 L 1290,194 L 1315,194 L 1316,195 L 1325,195 L 1326,194 L 1342,194 L 1343,195 L 1369,195 L 1370,194 L 1370,188 L 1369,187 L 1369,186 L 1370,185 L 1370,151 L 1371,150 Z M 970,147 L 971,146 L 1003,146 L 1004,147 L 1003,148 L 971,148 Z" fill="black" fill-rule="evenodd"/>
</svg>