<?xml version="1.0" encoding="UTF-8" standalone="no"?>
<svg
   width="800"
   height="250"
   viewBox="0 0 800 250"
   version="1.1"
   id="svg6"
   sodipodi:docname="mp40_black.svg"
   inkscape:version="1.4.2 (f4327f4, 2025-05-13)"
   xmlns:inkscape="http://www.inkscape.org/namespaces/inkscape"
   xmlns:sodipodi="http://sodipodi.sourceforge.net/DTD/sodipodi-0.dtd"
   xmlns="http://www.w3.org/2000/svg"
   xmlns:svg="http://www.w3.org/2000/svg">
  <defs
     id="defs6" />
  <sodipodi:namedview
     id="namedview6"
     pagecolor="#ffffff"
     bordercolor="#000000"
     borderopacity="0.25"
     inkscape:showpageshadow="2"
     inkscape:pageopacity="0.0"
     inkscape:pagecheckerboard="0"
     inkscape:deskcolor="#d1d1d1"
     inkscape:zoom="1.1123389"
     inkscape:cx="382.07781"
     inkscape:cy="174.85679"
     inkscape:window-width="2560"
     inkscape:window-height="1377"
     inkscape:window-x="-8"
     inkscape:window-y="-8"
     inkscape:window-maximized="1"
     inkscape:current-layer="svg6" />
  <path
     d="m 43.806169,159.64165 -0.40113,0.40113 v 0.40114 l 0.40113,0.40113 -0.40113,0.40113 v 3.61019 l 0.40113,0.40113 v -0.80227 l 0.40113,-0.40113 v -3.61018 l -0.40113,-0.40114 z"
     fill="#000000"
     fill-rule="evenodd"
     id="path1"
     style="stroke-width:0.401132" />
  <path
     d="m 44.207299,128.35336 v 0.80227 l -0.80226,0.80226 v 2.80792 l 0.40113,0.40113 v -0.80226 l 0.40113,-0.40113 h 0.401141 v -0.40113 l -0.401141,-0.40114 z"
     fill="#000000"
     fill-rule="evenodd"
     id="path2"
     style="stroke-width:0.401132" />
  <path
     d="m 75.094455,121.93525 v 2.00566 l -0.40113,0.40113 -0.40113,-0.40113 v -0.40113 5.61585 l -0.40113,0.40113 v 0.80226 l -0.40113,0.40113 v 0.40113 l 0.40113,0.40114 v 0.40113 l -0.80227,0.80226 1.2034,1.2034 v 1.20339 -1.20339 l 0.40113,-0.40113 v -2.00566 l 0.40113,-0.40114 0.40113,0.40114 v 2.00566 -4.81359 0.40114 l -0.40113,0.40113 -0.40113,-0.40113 v -3.61019 l 0.40113,-0.40113 0.40113,0.40113 v 0.80226 -1.20339 h -0.40113 l -0.40113,-0.40113 0.40113,-0.40114 z"
     fill="#000000"
     fill-rule="evenodd"
     id="path3"
     style="stroke-width:0.401132" />
  <path
     id="path6"
     d="m 392.7909,18.443229 -4.81359,8.022642 -15.24301,6.016971 -111.91579,-2.807921 -21.25999,12.033953 -14.03961,20.457734 -13.23736,7.220371 -144.808596,12.836218 -27.276965,-11.632828 -8.022641,4.011317 -2.406791,7.220371 14.440742,39.310933 1.203401,47.73469 6.418111,4.41245 16.045273,-4.01131 123.949746,-63.77997 39.71205,-8.82491 15.64414,8.02265 2.80793,12.03395 -26.07357,39.31093 -3.20905,18.45206 26.07356,12.83622 11.63282,-2.80793 1.2034,-10.83055 28.8815,-44.52564 51.34488,1.60452 10.83056,-8.8249 v -14.44074 l 8.42377,-8.42378 h 114.72371 l -112.31692,-0.40113 112.71805,-0.40113 9.62716,-4.412451 1.2034,-6.016981 0.82108,0.01878 -0.0188,-0.01878 0.40115,-0.40113 h 0.40113 l 0.40113,-0.40113 h 1.20339 l 0.40114,0.40113 -0.40114,0.40113 h -0.80226 l -0.0532,0.05324 15.29628,0.34786 4.01132,11.632822 2.6003,6.32019 1.41101,3.70812 v 0.80226 l 2.80793,21.25999 -2.40679,106.29994 31.28829,1.2034 1.20339,-129.56559 0.36981,-2.07696 1.23472,-7.14908 V 73.39827 l 3.61019,-4.412451 152.43011,-2.807931 0.40113,5.615851 10.0283,1.20339 17.64979,-9.226032 39.31093,-0.80226 1.60453,-14.440752 -15.64414,-1.20339 1.60452,-23.666785 -6.01698,-5.214711 -12.03396,0.40113 -6.4181,23.265655 -16.04528,4.813581 -93.06259,-2.005661 -16.84754,-11.632822 -60.97204,-2.40679 -1.60453,3.20905 h -48.13583 l -0.80226,18.452063 0.40113,-0.40113 h 3.61019 l 0.40113,-0.40113 h 6.01698 l 0.40113,0.40113 h 5.61584 l 0.40114,-0.40113 h 10.02829 l 0.40113,0.40113 h 3.61019 l 0.40113,-0.40113 h 6.41811 l 0.40113,0.40113 h 10.42944 l 0.40113,-0.40113 v -2.40679 l -0.40113,-0.40113 v -0.40114 l 0.40113,-0.40113 V 34.488471 l 0.40113,-0.40113 0.40113,0.40113 v 17.649803 l -0.80226,0.80226 h -48.53696 l -0.40113,-0.40113 0.40113,-21.259983 -83.83656,1.20339 z m 94.61384,69.449079 -1.53244,-0.03445 0.38232,0.382315 h 0.80226 z M 383.16372,32.482842 h 12.83623 l 0.40113,0.40113 -0.40113,0.40114 h -12.83623 l -0.40113,-0.40114 z m 97.47505,2.40679 0.40113,0.401141 v 4.01131 l -0.40113,0.40113 -0.40113,-0.40113 v -4.01131 z m -6.81924,2.807931 0.80226,0.80226 v 0.40113 l 0.40113,0.40113 v 0.80227 l 0.40114,0.40113 v 3.610181 l -0.40114,0.40114 v 0.40113 l -0.40113,0.40113 -1.60452,1.604531 h -0.40114 l -0.40113,0.40113 h -0.80226 l -0.40113,-0.40113 0.40113,-0.40113 h 0.40113 l 0.40113,-0.401141 h 0.40113 l 0.40114,-0.40113 v -0.40113 l 0.40113,-0.40113 v -0.40113 l 0.40113,-0.40114 v -0.40113 l 0.40113,-0.40113 v -3.610191 l -0.40113,-0.40113 v -0.40113 l -0.40113,-0.40113 v -0.40113 z m 83.43543,0.40113 0.40114,0.40113 v 22.463384 l -0.40114,0.40113 -0.40113,-0.40113 V 38.499823 Z m -263.54364,13.638483 1.60453,0.40113 H 479.83651 V 40.505483 h 1.20339 v 22.864515 l -1.20339,0.80226 -0.40114,3.20906 -2.40679,3.209051 -0.80226,-0.40113 2.80792,-4.412451 V 55.347366 l 0.80227,-2.00566 -213.00103,-0.40114 1.2034,-0.80226 h 24.46905 z m 48.93809,-2.005661 h 2.40679 l 0.40113,0.40113 -0.40113,0.40113 h -2.40679 l -0.40113,-0.40113 z m 12.03396,0 h 4.41245 l 0.40113,0.40113 h 6.41811 l 0.40113,-0.40113 h 2.80792 l 0.40113,0.40113 h 1.2034 l 0.40113,0.40113 -0.40113,0.401141 h -13.63848 l -0.40114,-0.401141 h -2.00565 l -0.40114,-0.40113 z m 34.89847,0 h 1.60453 l 0.40113,0.40113 h 66.98902 l 0.40113,0.40113 -0.40113,0.401141 h -86.24336 l -0.40113,-0.401141 0.40113,-0.40113 h 16.84755 z m 74.61053,0 h 3.20905 l 0.40113,0.40113 -0.40113,0.40113 h -0.80226 l -0.40113,0.401141 h -4.41245 l -0.40114,-0.401141 0.40114,-0.40113 h 2.00565 z m -158.04596,0.40113 h 6.01698 l 0.40113,0.40113 -0.40113,0.401141 h -6.01698 l -0.40113,-0.401141 z m 456.08693,1.203401 0.40113,0.40113 v 6.418111 l -0.40113,0.40113 -0.40113,-0.40113 v -6.418111 z m -251.10854,2.80792 h 4.81358 l 0.40113,0.40113 h 4.01132 l 0.40113,-0.40113 h 7.22037 l 0.40113,0.40113 -0.40113,0.40113 h 5.61585 v -0.40113 l 0.40113,-0.40113 h 2.40679 l 0.40113,0.40113 h 3.20906 l 0.40113,0.40113 v 0.40114 l -0.40113,0.40113 -0.40114,-0.40113 h -2.00565 l -0.40114,0.40113 h -41.31657 l -0.40113,0.40113 -0.40114,-0.40113 v -0.40113 l 0.40114,-0.40114 h 2.80792 l 0.40113,-0.40113 h 1.60453 l 0.40113,0.40113 h 8.42377 l 0.40113,-0.40113 h 1.20339 z m 107.77382,5.390462 c 4.43178,-0.179996 8.55217,0.225379 12.96687,0.225379 h 2.80792 4.41245 l 28.8815,0.40114 h 0.80226 11.5161 21.77784 l 0.40113,0.40113 c 0.26026,0.424834 0.16536,0.529381 0,1.20339 l -0.40113,0.401141 h -29.68375 l -0.40113,-0.401141 0.13553,-0.0021 c -0.0129,-0.03248 -25.69951,0.0021 -42.65551,0.0021 -5.10224,0.423578 -9.39829,0.386393 -11.57864,-0.396563 -0.67987,-0.829939 0.0337,-1.36125 1.01856,-1.834476 z m -121.01117,5.4401 h 11.23169 l 0.40113,0.40113 h 3.61019 l 0.40113,-0.40113 h 28.48036 l 0.40113,0.40113 -0.40113,0.40113 h -1.2034 l -0.40113,0.40113 h -31.28828 l -0.40113,-0.40113 h -10.83056 l -0.40113,-0.40113 z m -61.77432,6.418111 h 38.10753 l 0.40113,0.40113 -0.40113,0.40113 h -1.20339 l -0.40114,0.40113 h -37.30526 l -0.40113,0.40113 h -0.80227 l -0.40113,0.401141 h -0.40113 l -0.80227,0.80226 h -0.40113 l -0.80226,0.802256 v 0.40113 l -1.60453,1.60453 v 0.40113 l -0.40113,0.40114 v 0.40113 l -0.40113,0.40113 v 1.20339 l -0.40113,0.401141 v 3.61018 l 0.40113,0.40113 v 1.203401 l 0.40113,0.40113 v 0.40113 l 0.40113,0.40114 -0.40113,0.40113 h -0.80226 l -0.40114,-0.40113 v -0.80227 l -0.40113,-0.40113 v -2.005661 l -0.40113,-0.40113 v -3.610191 l 0.40113,-0.40113 v -0.80226 l 0.40113,-0.40113 v -0.40114 l 0.40114,-0.40113 1.60452,-1.60453 v -0.40113 l 2.00566,-2.005657 h 0.40113 l 0.40114,-0.40113 h 0.40113 l 0.40113,-0.40113 h 0.40113 l 0.40113,-0.40113 h 1.2034 z M 306.14641,98.6696 h 3.20905 v 0.80226 1.2034 l 1.60453,6.01699 v 5.61584 l 0.40113,0.40113 v 0.80227 l 1.2034,2.40679 0.80226,1.20339 0.80226,0.80227 c -0.21005,0.53059 2.80793,2.80792 2.80793,2.80792 l 3.20905,1.60453 h 2.00566 l 0.40113,-0.40114 v -1.60452 l -0.40113,-0.40114 -2.40679,-2.40679 -0.87385,-0.70664 -1.13181,-2.90354 v -1.60453 l -0.40113,-0.40113 v -3.61019 l 0.40113,-0.40113 0.40113,-2.80792 1.19016,-2.93543 0.83414,-1.26715 1.58589,-2.21554 h 0.80226 12.83623 c 0,0 1.72407,0.748253 2.40679,1.20339 l 2.40679,1.2034 2.80792,2.80793 1.60453,2.80793 0.44624,1.17152 0.35602,2.03753 v 6.01698 l -0.11425,1.35737 -0.68801,2.25281 -3.61019,4.81358 -0.80226,0.80227 -1.75606,1.98163 -2.34845,0.96703 -2.3136,-0.14074 h -25.67244 l -0.40113,-0.40113 h -0.40114 -1.20339 l -1.60453,-0.40113 -0.36926,-0.17801 -0.433,-0.22313 -2.40679,-1.60452 -1.2034,-1.2034 -0.40113,-0.40113 -1.60453,-2.00566 -1.60452,-4.01132 v -8.8249 l 0.80226,-2.40679 0.80226,-1.20339 0.40113,-1.2034 1.60453,-1.60453 0.80226,-0.80227 0.80227,-0.80226 3.20905,-1.60453 z m 212.19876,9.62717 h 2.40679 l 0.40113,0.40113 -0.40113,0.40114 h -2.40679 l -0.40113,-0.40114 z m 6.81924,0 h 11.23169 l 0.40113,0.40113 -0.40113,0.40114 h -11.23169 l -0.40113,-0.40114 z m -455.685796,3.20906 h 0.40113 l 0.80226,0.80226 h 0.802271 l 0.80226,-0.80226 h 0.40113 l 1.2034,1.20339 v 0.40113 l 0.40113,0.40114 v 0.80226 l 0.40113,0.40113 v 1.60453 l 0.40113,0.40113 v 2.00566 l 0.40113,0.40113 v 2.00566 l 0.401141,0.40113 v 2.80792 l 0.40113,0.40114 v 10.02829 l -0.40113,0.40113 v 0.40113 l -0.401141,0.40114 -0.40113,-0.40114 -0.80226,0.80227 h -0.40113 l -0.40113,0.40113 -0.40114,-0.40113 h -0.40113 l -0.40113,0.40113 h -0.40113 l -0.40113,0.40113 -0.40113,-0.40113 h -0.401141 l -0.40113,-0.40113 v -0.40113 l -0.40113,-0.40114 v -0.80226 l 0.40113,-0.40113 v -0.40113 l -0.40113,-0.40113 v -8.8249 l -0.40113,-0.40114 v -2.00565 l -0.40113,-0.40114 v -2.00566 l -0.40114,-0.40113 v -1.60452 l -0.40113,-0.40114 v -1.20339 l -0.40113,-0.40113 v -2.00566 l 0.40113,-0.40113 v -0.80227 z M 513.13046,218.2069 h 0.80226 l -0.40113,0.40114 z"
     sodipodi:nodetypes="cccccccccccccccccccccccccccccccccccccccccccccccccccccccccccccccccccccccccccccccccccccccccccccccccccccccccccccccccccccccccccccccccccccccccccccccccccccccccccccccccccccccccccccccccccccccccccccccccccccccccccccccccccccccccccccccccccccccccccccccccccccccccccccccccccccccccccccccccccccccccccccccccccccccccccccccccccccccccccccccccccccccccccccccccccccccccccccccccccccccccccccccccccccccccccccccccccccccccccccccccccccccccccccccccccccccccccccccccccccccccccccccccccccccccccccccccccccccccccccccccccccccccccc"
     style="stroke-width:0.401132" />
</svg>
