<svg xmlns="http://www.w3.org/2000/svg" width="2172" height="724" viewBox="0 0 2172 724">
<rect width="100%" height="100%" fill="white"/>
<path d="M 216,359 L 219,371 L 387,564 L 403,572 L 854,578 L 873,564 L 872,481 L 877,471 L 896,468 L 904,457 L 900,436 L 881,428 L 903,409 L 1218,417 L 1240,404 L 1639,410 L 1905,425 L 1942,404 L 1957,371 L 1954,336 L 1924,304 L 1898,297 L 1449,319 L 1242,321 L 1213,307 L 904,316 L 881,298 L 901,288 L 904,269 L 894,256 L 877,255 L 872,245 L 875,161 L 851,146 L 400,152 L 387,159 L 322,230 Z" fill="black" fill-rule="evenodd"/>
</svg>