<?xml version="1.0" encoding="UTF-8" standalone="no"?>
<svg
   width="450"
   height="250"
   viewBox="0 0 450 250"
   version="1.1"
   id="svg1"
   sodipodi:docname="nagant_m1895_black.svg"
   inkscape:version="1.4.2 (f4327f4, 2025-05-13)"
   xmlns:inkscape="http://www.inkscape.org/namespaces/inkscape"
   xmlns:sodipodi="http://sodipodi.sourceforge.net/DTD/sodipodi-0.dtd"
   xmlns="http://www.w3.org/2000/svg"
   xmlns:svg="http://www.w3.org/2000/svg">
  <defs
     id="defs1" />
  <sodipodi:namedview
     id="namedview1"
     pagecolor="#ffffff"
     bordercolor="#000000"
     borderopacity="0.25"
     inkscape:showpageshadow="2"
     inkscape:pageopacity="0.0"
     inkscape:pagecheckerboard="0"
     inkscape:deskcolor="#d1d1d1"
     inkscape:zoom="0.57373047"
     inkscape:cx="376.4834"
     inkscape:cy="569.08255"
     inkscape:window-width="2560"
     inkscape:window-height="1377"
     inkscape:window-x="-8"
     inkscape:window-y="-8"
     inkscape:window-maximized="1"
     inkscape:current-layer="svg1" />
  <path
     d="m 29.017876,45.061774 -0.592344,9.47751 2.665549,7.70047 137.127669,0.88852 -1.18468,8.88516 -22.80525,-0.29617 -2.66555,-3.25789 h -12.43923 l -2.36937,3.55406 0.29617,8.58899 14.21626,1.18469 2.96172,-3.55407 h 23.98993 l 1.18469,4.44259 h 33.76362 l 2.66555,-3.2579 0.29617,3.85024 h -2.66555 v 2.66555 l 11.55072,5.923442 3.55407,20.139704 7.10812,4.44259 5.3311,7.99664 1.48086,23.10142 13.62392,15.69713 23.69377,7.4043 h 20.73204 l 10.6622,-3.55407 6.81195,-5.33109 13.32775,-22.21291 6.81196,-2.96173 7.70047,0.29618 12.43923,6.81196 13.03157,18.36267 5.92345,17.47415 2.96172,33.76362 2.36937,3.25789 17.47416,1.77704 0.29617,12.14305 9.18133,4.14641 6.51579,-2.96172 2.0732,-5.3311 -3.25789,-9.77368 12.7354,-3.85024 6.81196,-4.73875 -1.18469,-22.50908 -4.14641,-19.54736 -15.69712,-31.39424 -19.25119,-24.28611 -4.73875,-21.028226 -5.62727,-3.25789 -28.72869,-0.29617 6.21961,-0.59235 0.29617,-2.0732 -12.7354,-9.18134 v -13.62391 l 26.35932,-11.55071 -1.77703,-5.92345 -17.17798,5.62728 h -7.70048 l -6.81196,-3.85025 -5.33109,-13.62391 -3.55407,-1.18469 -15.69712,7.40431 -1.18469,-3.2579 -91.51718,0.59235 -6.81195,1.77703 -4.73876,4.44258 -55.08801,1.48086 19.25119,0.59234 -102.475545,0.29617 -13.920087,-6.51578 -1.184687,-7.70047 h -8.588992 l -2.665549,2.0732 -2.073204,10.95837 z m 371.992144,176.518576 0.29617,0.29617 h 0.29618 l 0.59234,0.59234 v 0.29618 l -0.29617,0.29617 -0.29617,-0.29617 -0.29618,0.29617 h 0.59235 l 0.29617,-0.29617 0.59235,0.59234 v 0.59234 l 0.29617,0.29618 v 0.59234 l 0.29617,0.29617 v 0.88852 l -0.29617,0.29617 v 0.88852 l -0.59234,0.59234 v 0.29617 l -0.29618,0.29617 -0.29617,-0.29617 h -0.29617 v 0.29617 l 0.29617,0.29618 -0.59235,0.59235 h -0.29617 l -0.59234,0.59234 h -0.88852 l -0.29617,0.29617 h -1.77703 l -0.29617,-0.29617 h -0.29618 l -0.29617,-0.29617 h -0.29617 l -0.29617,-0.29617 0.29617,-0.29618 v -0.29617 h -0.59234 l -0.29618,-0.29618 -0.29617,0.29618 -0.29617,-0.29618 v -0.29617 l 0.59234,-0.59234 h -0.29617 v 0.29617 l -0.29617,0.29617 -0.59234,-0.59234 v -0.59235 l -0.29618,-0.29617 v -2.0732 l 0.29618,-0.29617 v -0.88852 l 0.88851,-0.88852 h 0.29617 l 0.29618,0.29618 h 3.55406 l 0.29617,-0.29618 h 0.29617 l 0.29617,-0.29617 h 0.29618 z m -162.89465,-90.03632 2.66555,-4.14641 0.29618,0.29618 -0.29618,-0.29618 3.2579,-3.25789 0.88851,0.29617 0.88852,-0.59235 -0.59235,-0.29617 1.18469,-0.88851 4.44258,-1.48086 4.44259,-0.29617 1.18468,-0.88852 1.18469,-2.36938 5.3311,0.29618 -1.48086,2.36937 -0.59235,-0.59234 0.59235,0.59234 0.29617,2.07321 1.77703,2.36937 3.2579,2.07321 -0.29618,0.29617 0.59235,-0.29617 4.14641,3.85024 -0.59235,0.29617 0.59235,-0.29617 0.59234,0.59234 -0.29617,0.88852 0.59234,-0.29618 1.77703,2.36938 1.18469,2.96172 -0.29617,1.48086 h 0.59235 l 0.29617,5.92344 -0.88852,2.36938 -0.29617,-0.88852 v 2.36938 l -2.07321,2.96172 -0.29617,-0.29617 v 0.88852 l -2.66555,2.36937 -0.59234,-0.29617 0.59234,0.29617 -1.48086,0.29617 0.59235,0.29618 -1.48086,0.29617 0.29617,0.29617 -0.59234,0.59234 -5.92345,1.77704 -0.59234,1.48086 0.88851,0.88852 6.21962,0.29617 -1.18469,-0.29617 2.96172,-0.59235 3.55407,-1.77703 0.59234,0.29617 -0.29617,-0.29617 1.48086,-1.18469 0.59234,0.29617 -0.29617,-0.29617 0.59235,-0.59235 0.29617,0.29618 -0.29617,-0.29618 2.96172,-2.96172 2.96172,-5.92344 h 0.88851 l -0.59234,-0.29617 0.59234,-2.66555 v -6.21961 l -1.48086,-4.73876 0.59235,-0.88851 h -0.88852 l -0.59234,-1.48086 0.59234,-0.59235 -0.59234,0.29618 -1.18469,-2.07321 v -2.36937 l 1.48086,-1.48087 h 3.55406 l 1.48086,0.59234 -0.59234,0.29618 2.07321,-0.29618 5.92344,1.77704 -0.59235,0.29617 1.48086,-0.29617 2.96172,1.18469 h 1.77704 l 3.85024,2.96172 v 0.59234 l 0.29617,-0.29617 0.59234,0.59235 -0.29617,0.59234 0.88852,-0.29617 1.48085,1.48086 -0.59234,0.59234 0.59234,-0.29617 0.88852,0.88851 -0.59234,0.59235 1.18468,0.29617 v 1.18469 l 0.88852,0.29618 1.18469,2.66554 0.29617,2.07321 -0.29617,0.29617 -0.29617,-0.88852 v 0.88852 l 0.88851,0.29617 -0.29617,7.10813 -0.88852,2.07321 -0.29617,-0.59235 -0.29617,0.59235 0.29617,-0.29617 0.29617,0.88851 -1.18468,2.36938 -2.96172,3.85023 h -1.18469 l 0.29617,0.59235 -2.96172,2.36938 -1.77703,0.88851 -0.88852,-0.29617 -0.29617,0.88852 -3.85024,1.48086 -6.21961,1.18468 -10.06985,0.29618 -6.21962,-0.59235 -10.06985,-2.0732 -2.0732,-0.88852 0.59234,-0.29617 -1.48086,0.29617 -0.29617,-0.29617 0.59234,-0.29617 -1.18469,0.29617 -5.62727,-2.36938 v -0.59234 l -0.59234,0.29617 -0.29617,-0.88852 h -1.48086 l -4.44258,-3.25789 0.59234,-0.29617 -0.59234,0.29617 -1.48086,-1.48086 0.29617,-0.59234 -0.29617,0.59234 -2.96173,-3.55406 0.59235,-0.59235 -0.59235,0.29618 v -0.88852 l -0.29617,0.29617 -0.59234,-0.88851 0.59234,-0.59235 -0.59234,0.29617 -1.48086,-3.55407 0.29617,-1.48086 h -0.59235 l 0.29618,-2.36937 -0.29618,1.18469 -0.59234,-2.07321 0.88852,-6.81196 1.18468,-0.59234 z m 47.38753,-19.25119 0.29618,0.29618 v 0.29617 l 0.29617,0.29617 v 0.59234 l -0.29617,0.29617 v 0.29618 l -0.29618,0.29618 -0.29617,-0.29618 v -0.29618 l -0.29617,-0.29617 v -0.59234 l 0.29617,-0.29617 v -0.29617 z m -2.96171,-1.18468 h 1.77703 l 0.59234,0.59234 -0.29617,0.29617 0.29617,0.29617 v 2.07321 h 0.29617 l 0.29617,0.29618 v 0.29617 l -0.59234,0.59234 h -0.29617 l -0.29617,0.29617 h -1.77703 l -0.59235,-0.59234 0.29617,-0.29617 v -0.29617 h -0.29617 l -0.29617,0.29617 -0.29617,-0.29617 v -0.29618 l -0.29617,-0.29618 v -1.18468 l 0.29617,-0.29617 v -0.29618 l 0.59234,-0.59234 0.29617,0.29617 v 0.29617 -0.29617 l -0.29617,-0.29617 z m -6.21962,-9.47751 0.29618,-0.29617 h 4.1464 l 0.29618,0.29617 -0.29618,0.29617 h -4.1464 z m 58.34591,-16.585646 0.29617,-0.29617 h 1.18469 -0.29618 l -0.29617,-0.29617 0.29617,-0.29617 h 0.88852 l 0.29617,0.29617 h 0.88852 l 0.29617,0.29617 -0.59234,0.59235 -0.29618,-0.29618 -0.29617,0.29618 h 2.07321 -0.88852 l -0.29617,-0.29618 0.29617,-0.29617 h 1.77703 l 0.29617,0.29617 h 4.14642 l 0.29617,0.29618 -0.29617,0.29617 h -1.1847 l -0.29617,0.29617 h -2.66555 l -0.29617,0.29617 h -2.0732 l -0.29617,-0.29617 h -0.88852 l -0.29617,-0.29617 h -0.59235 l -0.29617,-0.29617 h -0.59234 z m -4.73876,-2.36937 0.29617,-0.29617 h 0.59235 l 0.59234,0.59234 h 0.29617 l 0.59235,0.59234 h 0.59235 -0.29618 l -0.59235,-0.59234 h -0.29617 l -0.59234,-0.59234 h -0.29617 l -0.29618,-0.29618 v -0.29617 l 0.29618,-0.29617 h 0.29617 l 0.59234,0.59234 h 0.29617 l 0.29618,0.29618 h 0.29617 l 0.59235,0.59234 h 0.29617 l 0.29617,0.29617 h 0.29617 l 0.29617,0.29617 h 0.29618 l 0.29617,0.29618 h 0.59234 l 0.29617,0.29617 -0.29617,0.29617 h -0.59234 l -0.29617,0.29617 -0.29618,-0.29617 v -0.29617 h -0.29617 l -0.29617,-0.29617 v 0.29617 h 0.29617 l 0.59235,0.59234 -0.29618,0.29617 h -0.29617 l -0.29617,-0.29617 h -0.29617 l -0.29617,-0.29617 h -0.59235 l -0.29617,-0.29617 h -0.29618 l -0.29617,-0.29617 h -0.29617 l -0.59234,-0.59235 h -0.29618 z m 0,-2.07321 0.88852,0.88852 -0.29618,0.29617 h -0.29617 v 0.59235 l -0.29617,0.29617 -0.29617,-0.29617 h -0.29617 l -0.59235,-0.59235 0.29617,-0.29617 h 0.59235 v -0.59234 z m -2.66555,-2.96172 0.29617,0.29617 v 0.29617 l 0.88852,0.88852 -0.29617,0.29617 h -0.59235 v 0.29618 h 0.29618 l 0.59234,-0.59235 0.59234,0.59235 v 0.29617 l -0.29617,0.29617 h -0.59234 v 0.29617 l -0.29617,0.29618 -1.48086,-1.48087 v -0.29617 l 0.59234,-0.59235 v -0.59234 z m -0.59234,-0.88852 0.29617,0.29617 v 0.29618 l 0.29617,0.29617 -0.29617,0.29617 h -0.29617 l -0.29617,0.29617 v 0.29617 l -0.29618,0.29618 -0.29617,-0.29618 v -0.29617 l -0.29617,-0.29617 v -0.29617 l 0.29617,-0.29617 h 0.29617 z m -0.88852,-1.48086 0.29617,0.29618 v 0.29617 l 0.29618,0.29617 v 0.29617 l -0.29618,0.29617 h -0.59234 l -0.29617,-0.29617 -0.29617,0.29617 -0.29618,-0.29617 v -0.29617 l 0.29618,-0.29617 h 0.29617 z m -1.18469,-3.25789 0.29618,0.29617 v 0.59235 l 0.29617,0.29617 v 0.59234 l 0.29617,0.29618 v 0.59234 l -0.29617,0.29617 h -0.59235 v 0.29617 l -0.29617,0.29618 -0.29617,-0.29618 v -0.29617 l -0.29617,-0.29617 v -0.88852 l 0.59234,-0.59234 v -0.88852 z m -97.14445,10.6622 1.48086,-1.48086 h 3.55407 l 0.29618,-0.88852 v -8.58899 l 0.88851,-0.59234 0.29617,0.29617 v 14.8086 l 0.59235,1.48086 1.18469,1.18469 1.18468,0.59234 -0.29617,0.29617 1.48086,-0.29617 0.29617,0.29617 h 31.39425 l 0.29617,0.29618 -0.59235,0.59234 0.59235,0.59235 -0.29617,0.296172 h -32.28276 l -1.77703,0.88852 -1.48086,1.48086 -0.29618,0.88851 0.59235,3.55407 2.0732,1.48086 h 36.42917 l 1.77703,1.480864 -0.29617,0.59234 0.59234,0.29617 1.18469,-0.29617 h 5.62727 l 0.29617,0.29617 9.18134,-0.29617 0.29617,0.29617 -0.88851,0.59235 h -61.6038 l -0.88852,-0.59235 1.18469,-0.29617 -0.59235,-0.29617 -0.59234,0.59234 -0.88852,-1.18469 z m 96.25594,-16.28947 0.29617,0.29617 v 1.48086 l 0.29617,0.29618 v 2.0732 l 0.29617,0.29617 v 0.88852 l -0.29617,0.29617 h -0.59234 l -0.29617,0.29617 -0.29617,-0.29617 v -0.59234 l -0.29618,-0.29617 v -1.18469 l -0.29617,-0.29617 v -1.18469 l 0.29617,-0.29618 0.29618,0.29618 v 0.88852 l 0.29617,-0.29618 v -2.36938 z m -91.22101,4.14641 v -4.73875 l 0.29618,-0.29618 0.59234,0.59235 v 2.66555 -4.14641 l 0.59234,-0.59235 0.29618,0.29618 0.29617,-0.29618 1.18469,1.18469 h 0.29617 l 0.29617,0.29617 h 0.29617 l 0.88852,0.59235 h 31.98658 l 0.29618,0.29617 v 0.29617 l -0.29618,0.29617 h 0.59235 v -0.29617 l 0.29617,-0.29617 0.88852,0.59234 -0.59235,0.59235 h -0.29617 l -0.29617,0.29617 h -1.18469 l -0.29617,-0.29617 h -0.29617 l -0.29618,0.29617 h -29.61721 l -0.29617,-0.29617 h -0.59234 v 0.29617 l -0.29618,0.29617 h -0.29617 l -0.29617,-0.29617 0.29617,0.29617 -0.29617,0.29618 h -0.29617 l -0.29617,-0.29618 0.29617,0.29618 -0.88852,0.88852 h -0.29617 l -0.29617,0.29617 v 0.29617 l -0.59234,0.59234 v 0.29617 l -0.29618,0.29618 -0.29617,-0.29618 v -0.59234 l -0.29617,-0.29617 v -0.29617 l 0.29617,-0.29617 h -0.29617 v 0.59234 l -0.29617,0.29617 v 0.29617 l -0.29617,0.29617 z m 90.62867,-8.88516 0.29617,0.29617 v 1.48086 l 0.29617,0.29617 v 2.36938 l -0.29617,0.29617 -0.59235,-0.59234 v 1.48086 l -0.29617,0.29617 -0.29617,-0.29617 v -2.07321 l -0.29617,-0.29617 v -1.77703 l -0.29617,-0.29617 v -0.29618 l 0.29617,-0.29617 0.29617,0.29617 h 0.29617 l 0.29617,-0.29617 v -0.29617 z m -0.88852,-6.51579 0.29617,0.29617 v 2.07321 l 0.29617,0.29617 v 1.77704 l -0.29617,0.29617 -0.29617,-0.29617 -0.29617,0.29617 v 0.29617 l -0.29617,0.29617 -0.29618,-0.29617 v -1.77703 l -0.29617,-0.29617 v -1.77704 l 0.29617,-0.29617 h 0.29618 l 0.29617,0.29617 -0.29617,-0.29617 0.29617,-0.29618 v -0.29617 z m -1.18469,-6.21961 0.29617,0.29617 v 0.59235 l 0.29618,0.29617 v 1.48086 l 0.29617,0.29617 v 1.48086 l -0.29617,0.29617 h -0.29618 l -0.29617,-0.29617 v 0.88851 l -0.29618,0.29618 -0.29617,-0.29618 v -1.77703 l -0.29617,-0.29617 v -1.18469 l -0.29617,-0.29617 v -0.29617 l 0.29617,-0.29617 0.29617,0.29617 h 0.29617 v -1.18469 z m -0.88852,-5.03493 0.29617,0.29617 v 0.88852 l 0.29617,0.29618 v 1.18468 l 0.29618,0.29618 v 1.18468 l -0.29618,0.29618 h -0.29617 l -0.29617,-0.29618 v 0.59235 l -0.29617,0.29617 -0.29617,-0.29617 v -1.18469 l -0.29618,-0.29617 v -0.88852 l -0.29617,-0.29617 0.29617,-0.29617 h 0.59235 v -1.48087 z m -80.55881,-0.88852 0.29617,-0.29617 h 31.09807 l 0.29618,0.29617 -0.29618,0.29618 H 239.8924 Z m 78.78178,-2.36937 0.29617,0.29617 v 0.29617 l 0.29617,-0.29617 0.29617,0.29617 v 0.29617 -0.29617 l 0.29618,-0.29617 0.29617,0.29617 v 1.18469 l -0.29617,0.29617 0.29617,-0.29617 0.29617,0.29617 v 0.88852 l -0.29617,0.29617 -0.29617,-0.29617 v -0.29617 l -0.29618,0.29617 v 0.59234 l -0.29617,0.29617 -0.29617,-0.29617 v -1.18469 l 0.29617,-0.29617 -0.29617,0.29617 -0.29617,-0.29617 v -0.88851 l -0.29617,-0.29618 v -0.59234 z m -34.65214,-0.59234 h 12.43923 l 0.29617,0.29617 -0.59234,0.29617 0.29617,0.29617 1.18469,-0.29617 0.88852,1.18469 v 1.48086 l -0.59235,0.59234 -1.48086,3.2579 -0.29617,-0.59235 0.29617,1.18469 -0.88852,2.66555 -0.29617,-0.29617 0.29617,-1.77703 -0.88851,0.29617 -0.29617,-0.29617 v 1.18468 l 0.59234,0.88852 0.29617,-0.29617 0.29617,0.29617 -0.29617,6.51579 -0.29617,0.29617 0.29617,0.59234 v 3.85024 l -0.29617,0.29617 v 14.51243 l 0.29617,0.29617 v 1.18469 l -0.29617,0.29617 0.29617,0.29617 -0.29617,0.29618 0.29617,0.29617 0.29617,2.36938 -0.88851,0.88852 0.29617,0.59234 0.29617,-1.18469 0.29617,-0.29617 0.88852,1.77703 -0.29617,1.48086 h 0.59234 l 1.77704,2.36938 v 13.623916 l -0.29618,0.29617 -0.29617,-0.29617 V 88.895244 100.74213 l 0.29617,0.88852 -0.88851,0.88851 -0.88852,0.29618 h -2.66555 l -1.18468,-0.59235 0.29617,-0.29617 h -3.85024 l -0.29617,-0.29617 0.29617,-0.29617 h 3.55407 l 1.18468,-1.18469 V 42.988564 l -0.88851,-1.18468 -0.88852,-0.29618 h -7.70047 l -0.29618,-0.29617 0.29618,-0.29617 h 7.99664 l 0.29618,0.29617 v -0.29617 l -0.88852,-0.29617 -1.18469,0.29617 -6.51579,-0.29617 -0.29617,-0.29617 z m -54.49566,15.99329 v -13.62392 l 0.29617,-0.29617 v -0.59235 l 1.77704,-1.48085 h 51.23777 l 0.29617,0.29617 -0.29617,0.29617 h -7.10813 l -0.59235,0.29617 h 6.81196 l 0.29617,0.29617 -0.29617,0.29617 h -6.51579 l -1.77703,1.48086 h -0.88852 l -0.29617,-0.29617 h -34.94831 1.77704 l 0.29617,0.29617 -0.29617,0.29618 h -2.36938 l -1.18469,0.59234 -0.88851,0.88852 -0.59235,1.48086 -0.29617,-0.59234 h -0.29617 l 0.29617,0.29617 v 0.88852 l -0.29617,0.29617 0.29617,0.29617 0.29617,-0.59234 0.29618,0.29617 v 0.59234 l 1.48086,1.48086 h 0.59234 l 0.29617,0.29617 -0.88851,0.59235 -0.59235,-0.29617 0.29617,0.29617 -1.18468,1.18468 v 0.88852 l -0.29618,0.29617 -0.29617,-0.29617 v -0.59234 0.59234 l 0.29617,0.29617 v 9.77368 l -0.29617,0.29617 -0.29617,-0.29617 -0.29617,0.29617 -0.59235,-0.88851 v -0.88852 l 0.29618,-0.29617 v -2.96172 l -0.29618,-0.59234 h -2.66554 z m 88.25928,-20.1397 0.29617,0.29617 v 0.29617 l 1.48086,1.48086 v 1.18469 l -0.29617,0.29617 h -0.29617 l -0.29617,-0.29617 v 0.29617 l -0.29617,0.29617 -0.29618,-0.29617 v -0.88851 l -0.29617,-0.29618 v -0.88851 l -0.29617,-0.29617 v -0.88852 z"
     fill="#000000"
     fill-rule="evenodd"
     id="path1"
     style="stroke-width:0.296172" />
</svg>
