<svg xmlns="http://www.w3.org/2000/svg" width="1536" height="1024" viewBox="0 0 1536 1024">
<rect width="100%" height="100%" fill="white"/>
<path d="M 74,243 L 72,275 L 81,301 L 544,304 L 540,334 L 463,333 L 454,322 L 412,322 L 404,334 L 405,363 L 453,367 L 463,355 L 544,355 L 548,370 L 662,370 L 671,359 L 672,372 L 663,372 L 663,381 L 702,401 L 714,469 L 738,484 L 756,511 L 761,589 L 807,642 L 887,667 L 957,667 L 993,655 L 1016,637 L 1061,562 L 1084,552 L 1110,553 L 1152,576 L 1196,638 L 1216,697 L 1226,811 L 1234,822 L 1293,828 L 1294,869 L 1325,883 L 1347,873 L 1354,855 L 1343,822 L 1386,809 L 1409,793 L 1405,717 L 1391,651 L 1338,545 L 1273,463 L 1257,392 L 1238,381 L 1141,380 L 1162,378 L 1163,371 L 1120,340 L 1120,294 L 1209,255 L 1203,235 L 1145,254 L 1119,254 L 1096,241 L 1078,195 L 1066,191 L 1013,216 L 1009,205 L 700,207 L 677,213 L 661,228 L 475,233 L 540,235 L 194,236 L 147,214 L 143,188 L 114,188 L 105,195 L 98,232 Z M 1330,839 L 1331,840 L 1332,840 L 1334,842 L 1334,843 L 1333,844 L 1332,843 L 1331,844 L 1333,844 L 1334,843 L 1336,845 L 1336,847 L 1337,848 L 1337,850 L 1338,851 L 1338,854 L 1337,855 L 1337,858 L 1335,860 L 1335,861 L 1334,862 L 1333,861 L 1332,861 L 1332,862 L 1333,863 L 1331,865 L 1330,865 L 1328,867 L 1325,867 L 1324,868 L 1318,868 L 1317,867 L 1316,867 L 1315,866 L 1314,866 L 1313,865 L 1314,864 L 1314,863 L 1312,863 L 1311,862 L 1310,863 L 1309,862 L 1309,861 L 1311,859 L 1310,859 L 1310,860 L 1309,861 L 1307,859 L 1307,857 L 1306,856 L 1306,849 L 1307,848 L 1307,845 L 1310,842 L 1311,842 L 1312,843 L 1324,843 L 1325,842 L 1326,842 L 1327,841 L 1328,841 Z M 780,535 L 789,521 L 790,522 L 789,521 L 800,510 L 803,511 L 806,509 L 804,508 L 808,505 L 823,500 L 838,499 L 842,496 L 846,488 L 864,489 L 859,497 L 857,495 L 859,497 L 860,504 L 866,512 L 877,519 L 876,520 L 878,519 L 892,532 L 890,533 L 892,532 L 894,534 L 893,537 L 895,536 L 901,544 L 905,554 L 904,559 L 906,559 L 907,579 L 904,587 L 903,584 L 903,592 L 896,602 L 895,601 L 895,604 L 886,612 L 884,611 L 886,612 L 881,613 L 883,614 L 878,615 L 879,616 L 877,618 L 857,624 L 855,629 L 858,632 L 879,633 L 875,632 L 885,630 L 897,624 L 899,625 L 898,624 L 903,620 L 905,621 L 904,620 L 906,618 L 907,619 L 906,618 L 916,608 L 926,588 L 929,588 L 927,587 L 929,578 L 929,557 L 924,541 L 926,538 L 923,538 L 921,533 L 923,531 L 921,532 L 917,525 L 917,517 L 922,512 L 934,512 L 939,514 L 937,515 L 944,514 L 964,520 L 962,521 L 967,520 L 977,524 L 983,524 L 996,534 L 996,536 L 997,535 L 999,537 L 998,539 L 1001,538 L 1006,543 L 1004,545 L 1006,544 L 1009,547 L 1007,549 L 1011,550 L 1011,554 L 1014,555 L 1018,564 L 1019,571 L 1018,572 L 1017,569 L 1017,572 L 1020,573 L 1019,597 L 1016,604 L 1015,602 L 1014,604 L 1015,603 L 1016,606 L 1012,614 L 1002,627 L 998,627 L 999,629 L 989,637 L 983,640 L 980,639 L 979,642 L 966,647 L 945,651 L 911,652 L 890,650 L 856,643 L 849,640 L 851,639 L 846,640 L 845,639 L 847,638 L 843,639 L 824,631 L 824,629 L 822,630 L 821,627 L 816,627 L 801,616 L 803,615 L 801,616 L 796,611 L 797,609 L 796,611 L 786,599 L 788,597 L 786,598 L 786,595 L 785,596 L 783,593 L 785,591 L 783,592 L 778,580 L 779,575 L 777,575 L 778,567 L 777,571 L 775,564 L 778,541 L 782,539 Z M 940,470 L 941,471 L 941,472 L 942,473 L 942,475 L 941,476 L 941,477 L 940,478 L 939,477 L 939,476 L 938,475 L 938,473 L 939,472 L 939,471 Z M 930,466 L 936,466 L 938,468 L 937,469 L 938,470 L 938,477 L 939,477 L 940,478 L 940,479 L 938,481 L 937,481 L 936,482 L 930,482 L 928,480 L 929,479 L 929,478 L 928,478 L 927,479 L 926,478 L 926,477 L 925,476 L 925,472 L 926,471 L 926,470 L 928,468 L 929,469 L 929,470 L 929,469 L 928,468 Z M 909,434 L 910,433 L 924,433 L 925,434 L 924,435 L 910,435 Z M 1106,378 L 1107,377 L 1111,377 L 1110,377 L 1109,376 L 1110,375 L 1113,375 L 1114,376 L 1117,376 L 1118,377 L 1116,379 L 1115,378 L 1114,379 L 1121,379 L 1118,379 L 1117,378 L 1118,377 L 1124,377 L 1125,378 L 1139,378 L 1140,379 L 1139,380 L 1135,380 L 1134,381 L 1125,381 L 1124,382 L 1117,382 L 1116,381 L 1113,381 L 1112,380 L 1110,380 L 1109,379 L 1107,379 Z M 1090,370 L 1091,369 L 1093,369 L 1095,371 L 1096,371 L 1098,373 L 1100,373 L 1099,373 L 1097,371 L 1096,371 L 1094,369 L 1093,369 L 1092,368 L 1092,367 L 1093,366 L 1094,366 L 1096,368 L 1097,368 L 1098,369 L 1099,369 L 1101,371 L 1102,371 L 1103,372 L 1104,372 L 1105,373 L 1106,373 L 1107,374 L 1109,374 L 1110,375 L 1109,376 L 1107,376 L 1106,377 L 1105,376 L 1105,375 L 1104,375 L 1103,374 L 1103,375 L 1104,375 L 1106,377 L 1105,378 L 1104,378 L 1103,377 L 1102,377 L 1101,376 L 1099,376 L 1098,375 L 1097,375 L 1096,374 L 1095,374 L 1093,372 L 1092,372 Z M 1090,363 L 1093,366 L 1092,367 L 1091,367 L 1091,369 L 1090,370 L 1089,369 L 1088,369 L 1086,367 L 1087,366 L 1089,366 L 1089,364 Z M 1081,353 L 1082,354 L 1082,355 L 1085,358 L 1084,359 L 1082,359 L 1082,360 L 1083,360 L 1085,358 L 1087,360 L 1087,361 L 1086,362 L 1084,362 L 1084,363 L 1083,364 L 1078,359 L 1078,358 L 1080,356 L 1080,354 Z M 1079,350 L 1080,351 L 1080,352 L 1081,353 L 1080,354 L 1079,354 L 1078,355 L 1078,356 L 1077,357 L 1076,356 L 1076,355 L 1075,354 L 1075,353 L 1076,352 L 1077,352 Z M 1076,345 L 1077,346 L 1077,347 L 1078,348 L 1078,349 L 1077,350 L 1075,350 L 1074,349 L 1073,350 L 1072,349 L 1072,348 L 1073,347 L 1074,347 Z M 1072,334 L 1073,335 L 1073,337 L 1074,338 L 1074,340 L 1075,341 L 1075,343 L 1074,344 L 1072,344 L 1072,345 L 1071,346 L 1070,345 L 1070,344 L 1069,343 L 1069,340 L 1071,338 L 1071,335 Z M 744,370 L 749,365 L 761,365 L 762,362 L 762,333 L 765,331 L 766,332 L 766,382 L 768,387 L 772,391 L 776,393 L 775,394 L 780,393 L 781,394 L 887,394 L 888,395 L 886,397 L 888,399 L 887,400 L 778,400 L 772,403 L 767,408 L 766,411 L 768,423 L 775,428 L 898,428 L 904,433 L 903,435 L 905,436 L 909,435 L 928,435 L 929,436 L 960,435 L 961,436 L 958,438 L 750,438 L 747,436 L 751,435 L 749,434 L 747,436 L 744,432 Z M 1069,315 L 1070,316 L 1070,321 L 1071,322 L 1071,329 L 1072,330 L 1072,333 L 1071,334 L 1069,334 L 1068,335 L 1067,334 L 1067,332 L 1066,331 L 1066,327 L 1065,326 L 1065,322 L 1066,321 L 1067,322 L 1067,325 L 1068,324 L 1068,316 Z M 761,329 L 761,313 L 762,312 L 764,314 L 764,323 L 764,309 L 766,307 L 767,308 L 768,307 L 772,311 L 773,311 L 774,312 L 775,312 L 778,314 L 886,314 L 887,315 L 887,316 L 886,317 L 888,317 L 888,316 L 889,315 L 892,317 L 890,319 L 889,319 L 888,320 L 884,320 L 883,319 L 882,319 L 881,320 L 781,320 L 780,319 L 778,319 L 778,320 L 777,321 L 776,321 L 775,320 L 776,321 L 775,322 L 774,322 L 773,321 L 774,322 L 771,325 L 770,325 L 769,326 L 769,327 L 767,329 L 767,330 L 766,331 L 765,330 L 765,328 L 764,327 L 764,326 L 765,325 L 764,325 L 764,327 L 763,328 L 763,329 L 762,330 Z M 1067,299 L 1068,300 L 1068,305 L 1069,306 L 1069,314 L 1068,315 L 1066,313 L 1066,318 L 1065,319 L 1064,318 L 1064,311 L 1063,310 L 1063,304 L 1062,303 L 1062,302 L 1063,301 L 1064,302 L 1065,302 L 1066,301 L 1066,300 Z M 1064,277 L 1065,278 L 1065,285 L 1066,286 L 1066,292 L 1065,293 L 1064,292 L 1063,293 L 1063,294 L 1062,295 L 1061,294 L 1061,288 L 1060,287 L 1060,281 L 1061,280 L 1062,280 L 1063,281 L 1062,280 L 1063,279 L 1063,278 Z M 1060,256 L 1061,257 L 1061,259 L 1062,260 L 1062,265 L 1063,266 L 1063,271 L 1062,272 L 1061,272 L 1060,271 L 1060,274 L 1059,275 L 1058,274 L 1058,268 L 1057,267 L 1057,263 L 1056,262 L 1056,261 L 1057,260 L 1058,261 L 1059,261 L 1059,257 Z M 1057,239 L 1058,240 L 1058,243 L 1059,244 L 1059,248 L 1060,249 L 1060,253 L 1059,254 L 1058,254 L 1057,253 L 1057,255 L 1056,256 L 1055,255 L 1055,251 L 1054,250 L 1054,247 L 1053,246 L 1054,245 L 1056,245 L 1056,240 Z M 785,236 L 786,235 L 891,235 L 892,236 L 891,237 L 786,237 Z M 1051,228 L 1052,229 L 1052,230 L 1053,229 L 1054,230 L 1054,231 L 1054,230 L 1055,229 L 1056,230 L 1056,234 L 1055,235 L 1056,234 L 1057,235 L 1057,238 L 1056,239 L 1055,238 L 1055,237 L 1054,238 L 1054,240 L 1053,241 L 1052,240 L 1052,236 L 1053,235 L 1052,236 L 1051,235 L 1051,232 L 1050,231 L 1050,229 Z M 934,226 L 976,226 L 977,227 L 975,228 L 976,229 L 980,228 L 983,232 L 983,237 L 981,239 L 976,250 L 975,248 L 976,252 L 973,261 L 972,260 L 973,254 L 970,255 L 969,254 L 969,258 L 971,261 L 972,260 L 973,261 L 972,283 L 971,284 L 972,286 L 972,299 L 971,300 L 971,349 L 972,350 L 972,354 L 971,355 L 972,356 L 971,357 L 972,358 L 973,366 L 970,369 L 971,371 L 972,367 L 973,366 L 976,372 L 975,377 L 977,377 L 983,385 L 983,431 L 982,432 L 981,431 L 981,391 L 981,431 L 982,434 L 979,437 L 976,438 L 967,438 L 963,436 L 964,435 L 951,435 L 950,434 L 951,433 L 963,433 L 967,429 L 967,236 L 964,232 L 961,231 L 935,231 L 934,230 L 935,229 L 962,229 L 963,230 L 963,229 L 960,228 L 956,229 L 934,228 L 933,227 Z M 750,280 L 750,234 L 751,233 L 751,231 L 757,226 L 930,226 L 931,227 L 930,228 L 906,228 L 904,229 L 927,229 L 928,230 L 927,231 L 905,231 L 899,236 L 896,236 L 895,235 L 777,235 L 783,235 L 784,236 L 783,237 L 775,237 L 771,239 L 768,242 L 766,247 L 765,245 L 764,245 L 765,246 L 765,249 L 764,250 L 765,251 L 766,249 L 767,250 L 767,252 L 772,257 L 774,257 L 775,258 L 772,260 L 770,259 L 771,260 L 767,264 L 767,267 L 766,268 L 765,267 L 765,265 L 765,267 L 766,268 L 766,301 L 765,302 L 764,301 L 763,302 L 761,299 L 761,296 L 762,295 L 762,285 L 761,283 L 752,283 Z M 1048,212 L 1049,213 L 1049,214 L 1054,219 L 1054,223 L 1053,224 L 1052,224 L 1051,223 L 1051,224 L 1050,225 L 1049,224 L 1049,221 L 1048,220 L 1048,217 L 1047,216 L 1047,213 Z" fill="black" fill-rule="evenodd"/>
</svg>