<?xml version="1.0" encoding="UTF-8" standalone="no"?>
<svg
   width="200"
   height="250"
   viewBox="0 0 200 250"
   version="1.1"
   id="svg1"
   sodipodi:docname="no82_grenade_black.svg"
   inkscape:version="1.4.2 (f4327f4, 2025-05-13)"
   xmlns:inkscape="http://www.inkscape.org/namespaces/inkscape"
   xmlns:sodipodi="http://sodipodi.sourceforge.net/DTD/sodipodi-0.dtd"
   xmlns="http://www.w3.org/2000/svg"
   xmlns:svg="http://www.w3.org/2000/svg">
  <defs
     id="defs1" />
  <sodipodi:namedview
     id="namedview1"
     pagecolor="#ffffff"
     bordercolor="#000000"
     borderopacity="0.25"
     inkscape:showpageshadow="2"
     inkscape:pageopacity="0.0"
     inkscape:pagecheckerboard="0"
     inkscape:deskcolor="#d1d1d1"
     inkscape:zoom="0.93700159"
     inkscape:cx="133.40426"
     inkscape:cy="118.9966"
     inkscape:window-width="2560"
     inkscape:window-height="1377"
     inkscape:window-x="-8"
     inkscape:window-y="-8"
     inkscape:window-maximized="1"
     inkscape:current-layer="svg1" />
  <path
     d="m 83.519852,14.071501 -7.532971,4.472701 v 5.649745 l 6.355944,3.060269 0.470811,5.885133 -6.120539,-3.295674 -2.354054,3.060269 -8.239187,1.647838 -6.35596,3.295675 -6.591349,6.59135 -4.472702,9.416229 -0.470811,12.005669 3.295675,8.709997 6.59135,7.768407 8.239202,5.414358 -3.766486,8.003717 -8.003797,2.35405 -4.708107,15.066036 4.237296,5.17889 -6.826754,4.23733 -1.647838,15.53666 5.649729,5.17888 -5.649729,4.23734 1.647838,16.9493 5.885134,3.76639 -4.237297,3.76655 -0.235405,2.35405 4.001891,14.12433 6.355944,3.53108 -3.295675,4.00186 6.591365,15.30134 5.885134,2.11875 -1.412432,6.12044 8.709998,10.59324 5.414323,1.88328 0.706216,6.35591 12.005688,3.0603 22.598913,-0.47078 7.29758,-2.58952 0.70621,-6.12045 5.17892,-2.11874 8.71,-11.29949 -1.64784,-5.17888 5.64973,-2.11859 3.29567,-4.70811 3.53108,-9.41621 -3.29567,-5.41435 6.35596,-3.53108 3.76648,-13.88901 -0.2354,-2.58937 -4.2373,-3.76655 5.88513,-4.00185 1.17704,-16.94916 -5.41433,-3.53108 5.41433,-5.88513 -1.88325,-15.53682 -6.82675,-4.23732 4.00188,-4.23734 -0.47081,-4.94341 -3.7665,-10.593243 -8.9454,-3.531087 -6.35594,-16.243011 -7.06217,-4.943528 0.23541,-19.774045 h 11.77027 l 5.64973,3.766485 4.94353,10.357832 7.53296,26.36549 4.70811,25.894587 2.11865,24.24664 -0.23541,20.71569 -4.00188,29.42567 0.94162,1.64796 4.94351,-4.00201 4.4727,-26.60068 0.47081,-29.89661 -2.82486,-26.83614 -5.88514,-28.954894 -6.35594,-19.774076 -5.88513,-11.534862 -8.71002,-6.82677 2.11865,-1.883243 2.11865,-9.651619 -9.88703,-3.295676 -1.17702,-3.766485 -8.4746,-9.180824 z m -1.647837,25.188388 0.941621,0.47081 v 11.534878 l -0.470811,0.470811 h -0.47081 l -0.235406,0.235405 h -1.412432 l -0.47081,0.235405 -0.470812,0.470811 V 53.14882 L 79.04715,53.384225 V 73.15827 l -0.235405,0.235405 v 0.706217 l -0.235406,0.47081 -1.412432,1.177028 h -0.47081 l -0.235406,0.235405 -3.060269,0.235405 -1.883243,0.941621 -1.647837,1.883258 v 0.470811 l -0.706217,1.177072 -0.235405,-0.235466 0.235405,0.235466 v 0.470781 l -0.47081,0.47078 -0.941621,-0.235465 -0.235406,-0.235315 h -0.470811 l -3.766485,-2.118664 -1.883243,-1.647853 h -0.235406 l -1.883257,-1.883242 v -0.235406 l -2.354054,-2.824864 -1.883243,-3.766486 v -0.47081 l -0.470811,-0.706216 v -0.706216 l -0.470811,-0.941621 v -1.177028 l -0.235405,-0.235405 v -0.941621 l -0.235405,-0.235406 v -5.178913 l 0.235405,-0.235405 V 56.915306 L 54.094167,56.6799 v -0.706216 l 0.235406,-0.235405 v -0.706216 l 0.235405,-0.235405 v -0.706217 l 0.235406,-0.235405 0.235405,-1.177027 1.177027,-2.354054 0.470811,-0.47081 0.235405,-0.706216 1.647837,-2.118664 V 46.79286 l 2.82488,-2.824864 h 0.235405 l 2.354054,-1.883243 3.766486,-1.883242 h 0.47081 l 1.647838,-0.706217 h 0.706215 l 0.235406,-0.235405 2.118648,-0.235406 0.235405,-0.235405 h 1.177027 l 0.470811,0.941621 1.177027,1.177027 h 0.47081 l 0.235406,0.235405 h 1.177027 l 0.235405,-0.235405 h 0.706216 l 0.47081,-0.235405 1.177027,-1.647838 z"
     fill="#000000"
     fill-rule="evenodd"
     id="path1"
     style="stroke-width:0.235405" />
</svg>
