<svg xmlns="http://www.w3.org/2000/svg" width="1254" height="1254" viewBox="0 0 1254 1254">
<rect width="100%" height="100%" fill="white"/>
<path d="M 546,141 L 514,160 L 514,184 L 541,197 L 543,222 L 517,208 L 507,221 L 472,228 L 445,242 L 417,270 L 398,310 L 396,361 L 410,398 L 438,431 L 473,454 L 457,488 L 423,498 L 403,562 L 421,584 L 392,602 L 385,668 L 409,690 L 385,708 L 392,780 L 417,796 L 399,812 L 398,822 L 415,882 L 442,897 L 428,914 L 456,979 L 481,988 L 475,1014 L 512,1059 L 535,1067 L 538,1094 L 589,1107 L 685,1105 L 716,1094 L 719,1068 L 741,1059 L 778,1011 L 771,989 L 795,980 L 809,960 L 824,920 L 810,897 L 837,882 L 853,823 L 852,812 L 834,796 L 859,779 L 864,707 L 841,692 L 864,667 L 856,601 L 827,583 L 844,565 L 842,544 L 826,499 L 788,484 L 761,415 L 731,394 L 732,310 L 782,310 L 806,326 L 827,370 L 859,482 L 879,592 L 888,695 L 887,783 L 870,908 L 874,915 L 895,898 L 914,785 L 916,658 L 904,544 L 879,421 L 852,337 L 827,288 L 790,259 L 799,251 L 808,210 L 766,196 L 761,180 L 725,141 Z M 539,248 L 543,250 L 543,299 L 541,301 L 539,301 L 538,302 L 532,302 L 530,303 L 528,305 L 528,307 L 527,308 L 527,392 L 526,393 L 526,396 L 525,398 L 519,403 L 517,403 L 516,404 L 503,405 L 495,409 L 488,417 L 488,419 L 485,424 L 484,423 L 485,424 L 485,426 L 483,428 L 479,427 L 478,426 L 476,426 L 460,417 L 452,410 L 451,410 L 443,402 L 443,401 L 433,389 L 425,373 L 425,371 L 423,368 L 423,365 L 421,361 L 421,356 L 420,355 L 420,351 L 419,350 L 419,328 L 420,327 L 420,323 L 421,322 L 421,319 L 422,318 L 422,315 L 423,314 L 423,311 L 424,310 L 425,305 L 430,295 L 432,293 L 433,290 L 440,281 L 440,280 L 452,268 L 453,268 L 463,260 L 479,252 L 481,252 L 488,249 L 491,249 L 492,248 L 501,247 L 502,246 L 507,246 L 509,250 L 514,255 L 516,255 L 517,256 L 522,256 L 523,255 L 526,255 L 528,254 L 533,247 Z" fill="black" fill-rule="evenodd"/>
</svg>