<svg xmlns="http://www.w3.org/2000/svg" width="2172" height="724" viewBox="0 0 2172 724">
<rect width="100%" height="100%" fill="white"/>
<path d="M 1557,294 L 1557,333 L 1826,333 L 1826,294 Z" fill="black" fill-rule="evenodd"/>
<path d="M 1826,252 L 1824,252 L 1823,251 L 1821,251 L 1820,252 L 1557,252 L 1557,291 L 1825,291 L 1826,290 Z" fill="black" fill-rule="evenodd"/>
<path d="M 1542,251 L 1531,251 L 1530,252 L 1274,252 L 1274,291 L 1542,291 Z" fill="black" fill-rule="evenodd"/>
<path d="M 1557,209 L 1557,248 L 1826,248 L 1826,209 Z" fill="black" fill-rule="evenodd"/>
<path d="M 244,524 L 266,537 L 245,542 L 270,546 L 277,534 L 334,533 L 340,513 L 337,564 L 352,604 L 380,635 L 429,656 L 478,653 L 509,637 L 542,602 L 561,552 L 894,558 L 900,521 L 967,527 L 974,546 L 1114,546 L 1121,521 L 1399,546 L 1413,600 L 1445,636 L 1491,656 L 1526,656 L 1582,629 L 1612,587 L 1619,542 L 1658,535 L 1657,519 L 1676,516 L 1682,504 L 1858,504 L 1859,567 L 1872,567 L 1871,504 L 1897,500 L 1910,513 L 1916,506 L 1908,501 L 1927,494 L 1923,482 L 1909,480 L 1916,471 L 1907,461 L 1890,471 L 1897,481 L 1873,476 L 1872,449 L 1861,447 L 1881,420 L 1909,420 L 1927,404 L 1922,388 L 1910,390 L 1927,375 L 1927,210 L 1917,191 L 1898,183 L 1867,188 L 1854,209 L 1828,210 L 1827,347 L 1825,336 L 1557,336 L 1556,347 L 1555,210 L 1274,209 L 1273,238 L 1272,210 L 989,210 L 988,347 L 987,336 L 946,335 L 987,333 L 987,294 L 946,293 L 987,291 L 986,251 L 946,251 L 987,248 L 987,209 L 939,209 L 938,419 L 930,143 L 910,126 L 875,117 L 759,118 L 706,134 L 671,164 L 673,180 L 630,277 L 352,293 L 331,319 L 323,385 L 307,365 L 313,297 L 297,291 L 298,359 L 278,359 L 266,388 L 273,417 L 294,424 L 275,500 L 249,503 Z M 1502,610 L 1503,609 L 1517,609 L 1518,610 L 1517,611 L 1503,611 Z M 439,610 L 440,609 L 454,609 L 455,610 L 454,611 L 440,611 Z M 1522,590 L 1525,587 L 1530,587 L 1531,588 L 1532,588 L 1533,589 L 1533,590 L 1534,591 L 1534,592 L 1533,593 L 1532,593 L 1531,594 L 1530,594 L 1529,595 L 1526,595 L 1525,596 L 1524,596 L 1523,595 L 1523,594 L 1522,593 Z M 456,590 L 457,589 L 458,589 L 459,588 L 461,588 L 462,587 L 466,587 L 469,590 L 469,593 L 468,594 L 467,594 L 466,593 L 467,592 L 466,593 L 464,593 L 463,594 L 459,594 L 463,594 L 464,595 L 463,596 L 457,596 L 456,595 Z M 1484,588 L 1486,586 L 1487,586 L 1488,587 L 1487,588 L 1490,588 L 1489,587 L 1490,586 L 1492,586 L 1495,589 L 1495,592 L 1494,593 L 1494,594 L 1493,595 L 1491,595 L 1490,594 L 1488,594 L 1487,593 L 1488,592 L 1489,592 L 1488,592 L 1487,591 L 1488,592 L 1487,593 L 1486,593 L 1483,590 L 1484,589 Z M 416,588 L 420,584 L 423,584 L 424,585 L 423,586 L 421,586 L 423,586 L 424,585 L 425,585 L 426,586 L 427,586 L 429,588 L 429,592 L 427,594 L 425,594 L 424,593 L 423,593 L 422,592 L 421,592 L 420,591 L 421,590 L 420,591 L 419,591 Z M 1526,564 L 1528,562 L 1531,562 L 1532,563 L 1532,566 L 1531,567 L 1528,567 L 1526,565 Z M 1488,563 L 1489,562 L 1492,562 L 1494,564 L 1494,565 L 1491,568 L 1490,567 L 1489,567 L 1488,566 Z M 425,563 L 426,562 L 429,562 L 430,563 L 430,566 L 429,567 L 426,567 L 425,566 Z M 465,561 L 466,561 L 468,563 L 468,566 L 467,567 L 464,567 L 463,566 L 463,563 Z M 1461,556 L 1461,553 L 1462,552 L 1466,552 L 1468,554 L 1467,555 L 1467,556 L 1465,558 L 1463,558 Z M 398,552 L 399,551 L 402,551 L 404,553 L 404,556 L 403,557 L 402,557 L 401,558 L 400,558 L 398,556 Z M 1573,539 L 1574,540 L 1574,553 L 1573,554 L 1572,553 L 1572,540 Z M 1505,540 L 1506,540 L 1507,539 L 1513,539 L 1514,540 L 1515,540 L 1518,543 L 1518,545 L 1519,546 L 1519,548 L 1518,549 L 1518,551 L 1514,555 L 1512,555 L 1511,556 L 1508,556 L 1507,555 L 1505,555 L 1503,553 L 1503,552 L 1502,551 L 1502,549 L 1501,548 L 1501,546 L 1502,545 L 1502,543 Z M 443,539 L 450,539 L 455,544 L 455,550 L 454,551 L 454,552 L 451,555 L 449,555 L 448,556 L 444,556 L 443,555 L 442,555 L 440,553 L 440,552 L 439,551 L 439,550 L 438,549 L 438,545 L 439,544 L 439,543 Z M 1555,538 L 1558,538 L 1559,539 L 1559,541 L 1558,542 L 1557,541 L 1556,542 L 1556,550 L 1557,550 L 1558,549 L 1558,542 L 1559,541 L 1560,542 L 1560,552 L 1559,553 L 1558,553 L 1557,552 L 1556,553 L 1558,553 L 1559,554 L 1558,555 L 1554,555 L 1551,552 L 1551,543 L 1552,542 L 1552,540 L 1553,539 L 1554,539 Z M 494,537 L 495,538 L 496,538 L 497,539 L 497,541 L 498,542 L 498,551 L 497,552 L 497,554 L 495,556 L 492,556 L 488,552 L 488,547 L 489,546 L 489,541 L 492,538 L 493,538 Z M 1462,534 L 1465,534 L 1466,535 L 1467,535 L 1468,536 L 1468,541 L 1467,542 L 1467,543 L 1466,544 L 1465,543 L 1465,542 L 1464,541 L 1464,540 L 1463,539 L 1462,540 L 1462,542 L 1461,543 L 1460,542 L 1460,537 L 1461,536 L 1461,535 Z M 399,533 L 400,533 L 401,534 L 402,534 L 403,535 L 402,536 L 400,536 L 399,537 L 400,538 L 400,540 L 401,541 L 402,541 L 403,540 L 404,541 L 404,542 L 403,543 L 402,543 L 401,544 L 399,544 L 397,542 L 397,536 L 398,535 L 398,534 Z M 1529,527 L 1530,527 L 1533,530 L 1533,531 L 1532,532 L 1532,533 L 1531,534 L 1529,534 L 1527,532 L 1527,529 Z M 1490,527 L 1491,527 L 1492,528 L 1491,529 L 1492,528 L 1493,529 L 1493,532 L 1491,534 L 1490,534 L 1488,532 L 1488,529 Z M 465,527 L 466,527 L 469,530 L 469,531 L 467,533 L 464,533 L 463,532 L 463,529 Z M 427,527 L 428,528 L 429,528 L 430,529 L 430,532 L 428,534 L 426,534 L 424,532 L 424,530 Z M 553,514 L 554,515 L 554,519 L 560,519 L 561,520 L 561,521 L 562,522 L 562,525 L 563,526 L 563,529 L 564,530 L 564,531 L 565,532 L 565,533 L 563,535 L 556,535 L 555,534 L 555,527 L 554,526 L 554,522 L 555,521 L 559,521 L 553,521 L 552,522 L 551,522 L 549,520 L 549,519 L 548,518 L 549,517 L 550,517 L 551,516 L 552,516 L 552,515 Z M 1404,511 L 1405,512 L 1405,516 L 1406,516 L 1407,517 L 1407,521 L 1406,522 L 1403,522 L 1402,523 L 1402,526 L 1401,527 L 1401,531 L 1400,532 L 1399,531 L 1398,531 L 1397,530 L 1396,530 L 1395,529 L 1395,527 L 1396,526 L 1396,521 L 1397,520 L 1397,516 L 1398,515 L 1399,516 L 1403,516 L 1403,512 Z M 1614,510 L 1615,511 L 1615,512 L 1616,513 L 1616,517 L 1620,517 L 1621,516 L 1623,518 L 1623,524 L 1624,525 L 1624,528 L 1626,530 L 1625,531 L 1620,531 L 1620,533 L 1619,534 L 1618,533 L 1618,528 L 1617,527 L 1617,524 L 1616,523 L 1616,522 L 1613,522 L 1612,521 L 1612,519 L 1611,518 L 1612,517 L 1613,517 L 1614,516 L 1614,514 L 1613,513 L 1613,511 Z M 1523,505 L 1523,503 L 1524,502 L 1524,501 L 1525,500 L 1526,501 L 1528,501 L 1529,500 L 1531,500 L 1535,504 L 1534,505 L 1534,506 L 1532,508 L 1527,508 L 1526,507 L 1525,507 Z M 1486,503 L 1489,500 L 1491,500 L 1492,501 L 1494,501 L 1492,501 L 1491,500 L 1492,499 L 1497,499 L 1498,500 L 1498,501 L 1499,502 L 1499,505 L 1497,507 L 1495,507 L 1494,508 L 1493,508 L 1492,509 L 1490,509 L 1489,508 L 1488,508 L 1487,507 L 1487,506 L 1486,505 Z M 458,502 L 461,499 L 464,499 L 465,500 L 464,501 L 465,502 L 466,502 L 467,501 L 468,501 L 470,503 L 470,505 L 468,507 L 467,506 L 464,506 L 463,507 L 460,507 L 458,505 Z M 433,498 L 434,499 L 434,500 L 435,501 L 435,502 L 436,503 L 436,505 L 435,506 L 434,506 L 433,507 L 432,507 L 431,508 L 429,508 L 428,509 L 426,509 L 425,508 L 424,508 L 423,507 L 423,504 L 422,503 L 423,502 L 424,502 L 426,500 L 427,500 L 428,499 L 431,499 L 432,498 Z M 351,490 L 352,491 L 352,492 L 351,493 L 351,494 L 350,495 L 350,496 L 349,497 L 349,499 L 351,501 L 350,502 L 350,504 L 349,505 L 345,505 L 344,506 L 343,505 L 343,504 L 347,500 L 346,499 L 346,498 L 347,497 L 347,496 L 348,495 L 348,494 L 349,493 L 349,492 Z M 1423,484 L 1424,485 L 1423,486 L 1423,487 L 1421,489 L 1417,489 L 1416,490 L 1416,491 L 1415,492 L 1415,493 L 1413,495 L 1413,496 L 1412,497 L 1412,499 L 1414,501 L 1413,502 L 1413,504 L 1412,505 L 1410,505 L 1409,504 L 1407,506 L 1406,505 L 1406,504 L 1408,502 L 1409,502 L 1410,501 L 1410,496 L 1411,495 L 1411,494 L 1412,493 L 1412,492 L 1414,490 L 1414,489 L 1418,485 L 1419,486 L 1418,485 L 1419,484 Z M 362,484 L 360,486 L 360,487 L 358,489 L 354,489 L 352,491 L 351,490 L 351,489 L 353,487 L 354,487 L 355,486 L 355,485 L 357,483 L 361,483 Z M 535,481 L 537,483 L 537,484 L 538,485 L 538,487 L 540,487 L 543,490 L 543,491 L 544,492 L 544,493 L 545,494 L 545,495 L 547,497 L 547,499 L 548,500 L 548,502 L 550,504 L 550,505 L 551,506 L 551,507 L 552,508 L 552,510 L 553,511 L 553,514 L 552,515 L 551,514 L 551,512 L 550,511 L 550,510 L 549,509 L 549,507 L 548,506 L 545,506 L 543,504 L 543,503 L 542,502 L 544,500 L 545,500 L 545,498 L 543,496 L 543,495 L 541,493 L 541,491 L 539,489 L 537,489 L 536,490 L 533,487 L 533,486 L 532,485 L 534,483 L 534,482 Z M 1596,478 L 1599,481 L 1599,482 L 1600,483 L 1600,486 L 1601,487 L 1603,487 L 1606,490 L 1606,491 L 1607,492 L 1607,493 L 1608,494 L 1608,495 L 1609,496 L 1609,497 L 1610,498 L 1610,501 L 1612,503 L 1612,504 L 1613,505 L 1613,506 L 1614,507 L 1614,509 L 1613,510 L 1612,509 L 1612,508 L 1611,507 L 1611,506 L 1610,505 L 1609,506 L 1608,506 L 1606,504 L 1606,503 L 1605,502 L 1607,500 L 1607,497 L 1606,496 L 1606,495 L 1605,494 L 1605,493 L 1603,491 L 1603,490 L 1602,489 L 1598,489 L 1596,487 L 1596,486 L 1595,485 L 1597,483 L 1597,482 L 1595,480 L 1595,479 Z M 638,471 L 639,470 L 640,471 L 640,499 L 884,499 L 885,500 L 884,501 L 639,501 L 638,500 Z M 1581,466 L 1582,465 L 1583,465 L 1584,466 L 1586,466 L 1593,473 L 1591,475 L 1589,473 L 1589,472 L 1585,468 L 1583,468 Z M 516,463 L 517,462 L 518,463 L 519,463 L 521,465 L 522,465 L 532,475 L 531,476 L 532,477 L 531,478 L 530,478 L 529,477 L 529,476 L 525,472 L 525,471 L 523,469 L 522,469 L 521,468 L 520,468 L 518,466 L 517,466 L 516,465 Z M 1441,459 L 1442,460 L 1442,462 L 1443,463 L 1443,464 L 1438,469 L 1436,469 L 1435,468 L 1434,468 L 1429,473 L 1429,474 L 1426,477 L 1427,478 L 1427,479 L 1426,480 L 1424,478 L 1424,475 L 1433,466 L 1437,466 L 1439,464 L 1440,464 L 1440,460 Z M 1573,456 L 1574,456 L 1577,459 L 1577,460 L 1578,461 L 1577,462 L 1577,463 L 1576,464 L 1575,464 L 1573,462 L 1573,461 L 1574,460 L 1574,459 L 1572,457 Z M 1452,453 L 1449,456 L 1448,456 L 1446,458 L 1445,458 L 1443,460 L 1442,460 L 1441,459 L 1445,455 L 1446,455 L 1448,453 L 1449,453 L 1450,452 L 1451,452 Z M 1557,449 L 1558,448 L 1559,449 L 1561,449 L 1562,450 L 1562,451 L 1563,452 L 1568,452 L 1569,453 L 1570,453 L 1573,456 L 1572,457 L 1571,457 L 1569,455 L 1568,455 L 1567,454 L 1564,454 L 1563,455 L 1561,455 L 1559,453 L 1558,453 L 1557,452 L 1558,451 L 1557,450 Z M 492,447 L 493,446 L 494,446 L 498,450 L 499,450 L 501,452 L 505,452 L 507,454 L 508,454 L 510,456 L 511,456 L 514,459 L 514,460 L 516,462 L 515,463 L 515,464 L 517,466 L 516,467 L 515,467 L 510,462 L 510,461 L 511,460 L 511,459 L 510,458 L 509,458 L 507,456 L 506,456 L 504,454 L 501,454 L 500,455 L 498,455 L 497,454 L 496,454 L 493,451 L 493,448 Z M 408,445 L 407,446 L 405,446 L 404,447 L 402,447 L 401,448 L 400,448 L 399,449 L 398,449 L 397,450 L 396,450 L 396,453 L 394,455 L 393,455 L 392,456 L 390,456 L 389,455 L 387,455 L 385,457 L 384,457 L 382,459 L 381,459 L 379,461 L 379,464 L 380,465 L 378,467 L 377,467 L 374,470 L 372,468 L 371,468 L 365,474 L 365,475 L 364,476 L 364,478 L 365,479 L 363,481 L 363,482 L 362,483 L 361,482 L 361,475 L 370,466 L 374,466 L 375,465 L 376,465 L 376,464 L 377,463 L 377,462 L 376,461 L 381,456 L 382,456 L 385,453 L 390,453 L 391,452 L 392,452 L 394,450 L 394,449 L 395,448 L 396,448 L 397,447 L 398,447 L 399,446 L 400,446 L 401,445 L 403,445 L 404,444 L 407,444 Z M 1476,444 L 1476,446 L 1475,447 L 1474,447 L 1473,448 L 1471,448 L 1470,447 L 1470,446 L 1467,446 L 1466,447 L 1465,447 L 1464,448 L 1462,448 L 1461,449 L 1460,449 L 1459,450 L 1459,452 L 1460,453 L 1459,454 L 1458,454 L 1457,455 L 1456,455 L 1455,456 L 1453,456 L 1451,454 L 1452,453 L 1454,453 L 1455,452 L 1456,452 L 1457,451 L 1457,449 L 1459,447 L 1460,447 L 1461,446 L 1462,446 L 1463,445 L 1465,445 L 1466,444 L 1467,444 L 1468,443 L 1469,443 L 1470,444 L 1471,444 L 1472,445 L 1473,444 L 1474,444 L 1475,443 Z M 328,442 L 330,444 L 330,445 L 327,448 L 327,449 L 325,451 L 325,452 L 323,454 L 323,455 L 321,457 L 321,458 L 319,460 L 319,461 L 318,462 L 318,463 L 317,464 L 317,465 L 315,467 L 315,468 L 314,469 L 314,470 L 313,471 L 313,473 L 312,474 L 312,475 L 311,476 L 311,477 L 310,478 L 310,479 L 309,480 L 309,481 L 308,482 L 308,483 L 307,484 L 307,486 L 306,487 L 306,489 L 305,490 L 305,491 L 304,492 L 304,494 L 303,495 L 303,497 L 302,498 L 302,500 L 301,501 L 299,501 L 298,500 L 299,499 L 299,498 L 300,497 L 300,495 L 301,494 L 301,493 L 302,492 L 302,490 L 303,489 L 303,487 L 304,486 L 304,484 L 305,483 L 305,482 L 306,481 L 306,479 L 307,478 L 307,477 L 308,476 L 308,474 L 309,473 L 309,472 L 310,471 L 310,470 L 311,469 L 311,468 L 312,467 L 312,466 L 313,465 L 313,464 L 314,463 L 314,462 L 316,460 L 316,459 L 318,457 L 318,456 L 319,455 L 319,454 L 321,452 L 321,451 L 324,448 L 324,447 L 327,444 L 327,443 Z M 1539,442 L 1540,441 L 1544,441 L 1545,442 L 1547,442 L 1548,443 L 1550,443 L 1551,444 L 1552,444 L 1553,445 L 1552,446 L 1550,446 L 1549,445 L 1546,445 L 1546,446 L 1545,447 L 1543,447 L 1542,446 L 1542,443 L 1540,443 Z M 411,444 L 411,443 L 413,441 L 415,441 L 416,442 L 419,442 L 420,443 L 419,444 L 417,444 L 416,445 L 415,444 L 414,444 L 413,445 L 412,445 Z M 1482,441 L 1482,440 L 1483,439 L 1484,439 L 1485,438 L 1487,438 L 1488,437 L 1492,437 L 1493,436 L 1496,436 L 1497,437 L 1499,437 L 1501,439 L 1500,438 L 1501,437 L 1502,437 L 1503,436 L 1516,436 L 1517,437 L 1522,437 L 1523,436 L 1526,436 L 1527,437 L 1530,437 L 1531,438 L 1534,438 L 1536,440 L 1535,441 L 1534,441 L 1533,440 L 1528,440 L 1527,439 L 1523,439 L 1522,440 L 1522,441 L 1521,442 L 1519,442 L 1518,441 L 1519,440 L 1520,440 L 1519,439 L 1517,439 L 1517,440 L 1516,441 L 1515,440 L 1515,438 L 1504,438 L 1503,439 L 1503,440 L 1502,441 L 1497,441 L 1496,440 L 1496,439 L 1491,439 L 1490,440 L 1486,440 L 1485,441 L 1484,441 L 1483,442 Z M 415,441 L 416,440 L 419,440 L 420,439 L 421,439 L 422,438 L 424,438 L 425,437 L 430,437 L 431,436 L 433,436 L 434,437 L 439,437 L 440,436 L 454,436 L 455,437 L 459,437 L 460,436 L 463,436 L 464,437 L 468,437 L 469,438 L 471,438 L 474,441 L 480,441 L 481,442 L 480,443 L 477,443 L 476,444 L 472,444 L 471,443 L 472,442 L 470,440 L 465,440 L 464,439 L 460,439 L 459,440 L 459,441 L 458,442 L 457,441 L 457,439 L 454,439 L 455,439 L 456,440 L 455,441 L 453,441 L 452,440 L 452,438 L 441,438 L 441,440 L 440,441 L 436,441 L 435,442 L 434,441 L 434,440 L 433,439 L 428,439 L 427,440 L 423,440 L 422,441 L 422,443 L 421,444 L 420,443 L 420,442 L 416,442 Z M 1500,426 L 1501,425 L 1518,425 L 1519,426 L 1518,427 L 1501,427 Z M 437,426 L 438,425 L 454,425 L 455,426 L 454,427 L 438,427 Z M 1786,421 L 1787,420 L 1864,420 L 1865,421 L 1865,426 L 1864,427 L 1862,427 L 1859,424 L 1857,424 L 1856,423 L 1855,423 L 1854,422 L 1787,422 Z M 1647,447 L 1649,444 L 1649,432 L 1648,431 L 1648,423 L 1649,422 L 1651,422 L 1649,422 L 1648,423 L 1647,423 L 1646,422 L 1646,421 L 1647,420 L 1775,420 L 1776,421 L 1775,422 L 1720,422 L 1716,426 L 1716,427 L 1715,428 L 1715,444 L 1716,445 L 1715,446 L 1713,446 L 1715,446 L 1716,445 L 1718,447 L 1717,448 L 1648,448 Z M 1605,420 L 1622,420 L 1623,421 L 1623,422 L 1621,424 L 1621,435 L 1625,439 L 1625,440 L 1629,444 L 1629,445 L 1632,448 L 1632,449 L 1635,452 L 1635,453 L 1636,454 L 1636,455 L 1638,457 L 1638,458 L 1639,459 L 1639,460 L 1641,462 L 1641,463 L 1642,464 L 1642,465 L 1643,466 L 1643,467 L 1644,468 L 1644,469 L 1645,470 L 1645,471 L 1646,472 L 1646,473 L 1648,476 L 1648,478 L 1649,479 L 1649,481 L 1651,484 L 1651,486 L 1652,487 L 1652,489 L 1653,490 L 1653,493 L 1654,494 L 1654,496 L 1655,497 L 1655,501 L 1656,502 L 1656,503 L 1667,503 L 1668,504 L 1669,503 L 1670,504 L 1670,505 L 1669,506 L 1670,507 L 1669,508 L 1660,508 L 1659,509 L 1657,509 L 1657,510 L 1656,511 L 1655,510 L 1655,508 L 1654,507 L 1654,504 L 1653,503 L 1653,499 L 1652,498 L 1652,495 L 1651,494 L 1651,492 L 1650,491 L 1650,489 L 1648,486 L 1648,483 L 1647,482 L 1647,481 L 1646,480 L 1646,479 L 1645,478 L 1645,477 L 1644,476 L 1644,475 L 1643,474 L 1643,473 L 1642,472 L 1642,471 L 1641,470 L 1641,469 L 1640,468 L 1640,467 L 1639,466 L 1639,465 L 1638,464 L 1638,463 L 1637,462 L 1637,461 L 1635,459 L 1635,458 L 1633,456 L 1633,455 L 1631,453 L 1631,452 L 1629,450 L 1629,449 L 1626,446 L 1626,445 L 1622,441 L 1622,440 L 1613,431 L 1614,430 L 1618,430 L 1617,429 L 1616,429 L 1613,431 L 1609,427 L 1610,426 L 1609,427 L 1606,424 L 1605,424 L 1604,423 L 1605,422 L 1606,422 L 1605,422 L 1604,421 Z M 1276,421 L 1277,420 L 1329,420 L 1330,421 L 1330,422 L 1329,423 L 1328,423 L 1327,424 L 1327,425 L 1326,426 L 1326,445 L 1325,446 L 1322,446 L 1325,446 L 1326,445 L 1327,446 L 1327,447 L 1326,448 L 1282,448 L 1281,447 L 1282,446 L 1282,442 L 1281,441 L 1281,440 L 1282,439 L 1281,438 L 1281,429 L 1278,426 L 1278,425 L 1276,423 Z M 981,421 L 982,420 L 1256,420 L 1257,421 L 1257,423 L 1252,428 L 1252,432 L 1251,433 L 1252,435 L 1251,436 L 987,436 L 986,435 L 986,427 L 985,426 L 985,424 Z M 959,420 L 960,421 L 960,423 L 959,424 L 958,423 L 958,422 L 958,423 L 959,424 L 957,426 L 957,428 L 956,429 L 956,436 L 955,437 L 955,446 L 956,447 L 955,448 L 950,448 L 949,447 L 949,446 L 952,443 L 953,443 L 953,432 L 954,431 L 954,422 L 953,422 L 952,421 L 953,420 Z M 555,414 L 556,415 L 557,415 L 560,418 L 561,418 L 564,421 L 565,420 L 566,421 L 566,422 L 567,423 L 567,424 L 583,440 L 583,441 L 586,444 L 586,445 L 590,449 L 590,450 L 593,453 L 593,454 L 596,457 L 596,458 L 599,461 L 599,462 L 601,464 L 601,465 L 604,468 L 604,469 L 606,471 L 606,472 L 608,474 L 608,475 L 611,478 L 611,479 L 614,482 L 614,483 L 617,486 L 617,487 L 620,490 L 620,491 L 624,495 L 624,496 L 627,499 L 627,500 L 647,520 L 646,521 L 645,521 L 624,500 L 624,499 L 619,494 L 619,493 L 616,490 L 616,489 L 613,486 L 613,485 L 609,481 L 609,480 L 606,477 L 606,476 L 604,474 L 604,473 L 601,470 L 601,469 L 598,466 L 598,465 L 595,462 L 595,461 L 593,459 L 593,458 L 590,455 L 590,454 L 587,451 L 587,450 L 583,446 L 583,445 L 577,439 L 577,438 L 562,423 L 561,423 L 556,418 L 555,418 L 553,416 Z M 884,413 L 885,414 L 885,424 L 884,425 L 883,424 L 883,414 Z M 359,412 L 361,414 L 359,416 L 358,416 L 352,422 L 351,422 L 333,440 L 333,441 L 330,444 L 328,442 L 330,440 L 330,439 L 338,431 L 338,430 L 344,424 L 345,424 L 345,423 L 346,422 L 347,422 L 350,419 L 350,418 L 351,417 L 353,417 L 357,413 L 358,413 Z M 540,407 L 542,405 L 543,405 L 545,407 L 546,407 L 548,409 L 549,409 L 552,412 L 553,412 L 555,414 L 553,416 L 552,415 L 551,415 L 549,413 L 548,413 L 546,411 L 545,411 L 543,409 L 542,409 Z M 1578,405 L 1580,403 L 1581,403 L 1582,404 L 1583,404 L 1584,405 L 1585,405 L 1587,407 L 1588,407 L 1589,408 L 1590,408 L 1592,410 L 1593,410 L 1595,412 L 1596,412 L 1600,416 L 1601,416 L 1605,420 L 1603,422 L 1600,419 L 1599,419 L 1597,417 L 1596,417 L 1594,415 L 1593,415 L 1590,412 L 1589,412 L 1588,411 L 1587,411 L 1585,409 L 1584,409 L 1582,407 L 1581,407 L 1580,406 L 1579,406 Z M 321,403 L 322,404 L 322,410 L 321,411 L 321,416 L 320,417 L 321,418 L 319,420 L 318,420 L 317,421 L 315,421 L 314,420 L 311,420 L 310,419 L 310,418 L 309,417 L 311,415 L 312,415 L 313,414 L 314,415 L 317,415 L 316,414 L 315,414 L 314,413 L 318,409 L 318,408 L 319,407 L 319,406 L 320,405 L 320,404 Z M 1444,404 L 1423,417 L 1414,425 L 1413,425 L 1400,438 L 1400,439 L 1394,445 L 1389,453 L 1386,456 L 1385,459 L 1381,464 L 1374,478 L 1374,480 L 1372,483 L 1371,488 L 1369,491 L 1368,497 L 1367,498 L 1366,504 L 1365,505 L 1364,513 L 1363,514 L 1363,520 L 1362,521 L 1362,527 L 1361,528 L 1360,527 L 1360,524 L 1342,523 L 1341,522 L 1329,522 L 1328,521 L 1323,521 L 1322,520 L 1313,520 L 1312,519 L 1298,519 L 1297,518 L 1298,517 L 1359,517 L 1360,518 L 1361,517 L 1361,513 L 1362,512 L 1362,508 L 1363,507 L 1364,500 L 1366,496 L 1367,489 L 1370,483 L 1371,478 L 1378,464 L 1383,457 L 1384,454 L 1386,452 L 1386,451 L 1388,450 L 1388,448 L 1355,448 L 1354,447 L 1354,445 L 1355,444 L 1355,427 L 1354,426 L 1354,423 L 1352,422 L 1353,420 L 1415,420 L 1419,416 L 1420,416 L 1423,413 L 1424,413 L 1435,405 L 1441,402 L 1442,402 Z M 380,402 L 379,403 L 378,403 L 376,405 L 375,405 L 374,406 L 373,406 L 371,408 L 370,408 L 369,409 L 368,409 L 366,411 L 365,411 L 362,414 L 361,414 L 359,412 L 361,410 L 362,410 L 365,407 L 366,407 L 368,405 L 369,405 L 370,404 L 371,404 L 373,402 L 374,402 L 375,401 L 376,401 L 377,400 L 378,400 Z M 1568,400 L 1570,398 L 1571,398 L 1572,399 L 1573,399 L 1574,400 L 1575,400 L 1576,401 L 1577,401 L 1578,402 L 1576,404 L 1575,404 L 1574,403 L 1573,403 L 1572,402 L 1571,402 L 1570,401 L 1569,401 Z M 1453,400 L 1452,401 L 1451,401 L 1450,402 L 1448,402 L 1447,403 L 1446,403 L 1445,404 L 1444,404 L 1442,402 L 1443,401 L 1444,401 L 1445,400 L 1446,400 L 1447,399 L 1448,399 L 1449,400 L 1448,399 L 1449,398 L 1450,398 L 1451,399 L 1452,399 Z M 527,400 L 528,399 L 529,399 L 530,398 L 531,399 L 532,399 L 533,400 L 534,400 L 535,401 L 536,401 L 537,402 L 536,403 L 535,403 L 534,404 L 533,403 L 532,403 L 531,402 L 530,402 L 529,401 L 528,401 Z M 518,396 L 519,395 L 520,395 L 521,394 L 522,394 L 523,395 L 524,395 L 525,396 L 527,396 L 528,397 L 529,397 L 530,398 L 529,399 L 528,399 L 527,400 L 526,400 L 525,399 L 524,399 L 523,398 L 521,398 L 520,397 L 519,397 Z M 1541,391 L 1542,390 L 1555,390 L 1556,391 L 1556,392 L 1557,393 L 1559,393 L 1560,394 L 1562,394 L 1563,395 L 1564,395 L 1565,396 L 1567,396 L 1568,397 L 1569,397 L 1570,398 L 1568,400 L 1566,400 L 1565,399 L 1564,399 L 1563,398 L 1561,398 L 1560,397 L 1559,397 L 1558,396 L 1556,396 L 1555,395 L 1553,395 L 1552,394 L 1549,394 L 1548,393 L 1546,393 L 1545,392 L 1542,392 Z M 421,387 L 420,388 L 416,388 L 415,389 L 413,389 L 412,390 L 410,390 L 409,391 L 407,391 L 406,392 L 403,392 L 402,391 L 403,392 L 402,393 L 401,393 L 400,394 L 398,394 L 397,395 L 395,395 L 394,396 L 393,396 L 392,395 L 393,396 L 392,397 L 391,397 L 390,396 L 389,396 L 390,396 L 391,397 L 390,398 L 389,398 L 388,399 L 386,399 L 385,400 L 384,400 L 383,401 L 382,401 L 381,400 L 382,401 L 381,402 L 380,402 L 378,400 L 380,398 L 381,398 L 382,397 L 383,397 L 384,396 L 385,396 L 386,395 L 387,395 L 388,394 L 390,394 L 391,393 L 392,393 L 393,392 L 395,392 L 396,391 L 397,391 L 398,390 L 400,390 L 401,389 L 403,389 L 404,388 L 406,388 L 407,387 L 410,387 L 411,386 L 414,386 L 415,385 L 418,385 L 419,386 L 420,386 Z M 1533,387 L 1532,388 L 1531,388 L 1530,389 L 1524,389 L 1523,388 L 1512,388 L 1511,387 L 1509,387 L 1508,388 L 1495,388 L 1494,389 L 1489,389 L 1488,390 L 1484,390 L 1483,391 L 1479,391 L 1478,392 L 1475,392 L 1474,393 L 1471,393 L 1470,394 L 1468,394 L 1467,395 L 1465,395 L 1464,396 L 1463,396 L 1462,397 L 1460,397 L 1459,398 L 1457,398 L 1456,399 L 1455,399 L 1454,398 L 1455,399 L 1454,400 L 1453,400 L 1452,399 L 1451,399 L 1450,398 L 1451,397 L 1452,397 L 1453,396 L 1454,396 L 1455,395 L 1457,395 L 1458,394 L 1460,394 L 1461,393 L 1462,393 L 1463,392 L 1465,392 L 1466,391 L 1468,391 L 1469,390 L 1471,390 L 1472,389 L 1475,389 L 1476,388 L 1479,388 L 1480,387 L 1485,387 L 1486,386 L 1492,386 L 1493,385 L 1504,385 L 1505,384 L 1514,384 L 1515,385 L 1526,385 L 1527,386 L 1532,386 Z M 418,385 L 419,384 L 422,384 L 423,385 L 422,384 L 423,383 L 426,383 L 427,382 L 432,382 L 433,381 L 439,381 L 440,380 L 466,380 L 467,381 L 477,381 L 478,382 L 482,382 L 483,383 L 488,383 L 489,384 L 492,384 L 493,385 L 496,385 L 497,386 L 496,387 L 497,386 L 500,386 L 501,387 L 504,387 L 505,388 L 507,388 L 508,389 L 511,389 L 512,390 L 513,390 L 514,391 L 516,391 L 517,392 L 518,392 L 519,393 L 518,394 L 516,394 L 515,393 L 514,393 L 513,394 L 511,394 L 510,393 L 511,392 L 512,392 L 511,392 L 510,393 L 508,393 L 507,392 L 508,391 L 507,392 L 505,392 L 504,391 L 502,391 L 501,390 L 502,389 L 501,390 L 498,390 L 497,389 L 494,389 L 493,388 L 491,388 L 490,387 L 485,387 L 484,386 L 479,386 L 478,385 L 470,385 L 469,384 L 440,384 L 439,385 L 432,385 L 431,386 L 425,386 L 424,387 L 421,387 L 420,386 L 419,386 Z M 1556,365 L 1557,366 L 1557,382 L 1556,383 L 1555,382 L 1555,366 Z M 1001,365 L 1002,366 L 1002,382 L 1001,383 L 1000,382 L 1000,366 Z M 988,364 L 989,365 L 989,382 L 988,383 L 987,383 L 986,382 L 987,381 L 987,365 Z M 379,365 L 380,364 L 561,364 L 563,366 L 563,367 L 561,369 L 383,369 L 381,367 L 380,367 L 379,366 Z M 513,354 L 514,353 L 564,353 L 565,354 L 564,355 L 561,355 L 564,355 L 565,354 L 566,355 L 566,356 L 565,357 L 541,357 L 540,358 L 530,358 L 529,357 L 514,357 L 513,356 L 514,355 Z M 382,355 L 384,353 L 512,353 L 513,354 L 512,355 L 513,356 L 512,357 L 417,357 L 416,356 L 415,357 L 383,357 L 382,356 Z M 1279,347 L 1280,348 L 1280,364 L 1279,365 L 1278,364 L 1278,348 Z M 884,347 L 885,348 L 885,368 L 884,369 L 883,368 L 883,348 Z M 424,345 L 424,344 L 426,342 L 523,342 L 524,343 L 524,344 L 523,345 L 522,344 L 518,344 L 520,344 L 521,345 L 520,346 L 425,346 Z M 570,343 L 570,345 L 569,346 L 532,346 L 530,344 L 530,343 L 531,342 L 556,342 L 557,341 L 558,342 L 562,342 L 563,341 L 567,341 L 568,342 L 569,342 Z M 385,345 L 385,343 L 387,341 L 413,341 L 415,343 L 414,344 L 414,345 L 413,346 L 386,346 Z M 1910,336 L 1911,337 L 1911,377 L 1910,378 L 1908,376 L 1909,375 L 1909,337 Z M 388,332 L 389,331 L 390,331 L 391,332 L 394,332 L 391,332 L 390,331 L 392,329 L 569,329 L 570,330 L 571,330 L 574,333 L 573,334 L 389,334 L 388,333 Z M 639,324 L 640,325 L 640,447 L 639,448 L 638,447 L 638,325 Z M 554,317 L 555,316 L 572,316 L 573,317 L 572,318 L 555,318 Z M 476,317 L 477,316 L 493,316 L 494,317 L 493,318 L 477,318 Z M 368,317 L 369,316 L 408,316 L 409,317 L 408,318 L 389,318 L 388,319 L 385,319 L 384,320 L 382,320 L 381,319 L 382,318 L 383,318 L 369,318 Z M 1261,310 L 1262,311 L 1262,325 L 1261,326 L 1260,325 L 1260,311 Z M 1273,307 L 1274,308 L 1274,325 L 1273,326 L 1272,325 L 1272,308 Z M 828,309 L 829,308 L 830,308 L 831,307 L 866,307 L 867,308 L 870,308 L 871,307 L 872,307 L 873,308 L 873,311 L 871,313 L 830,313 L 828,311 Z M 1910,295 L 1911,296 L 1911,332 L 1910,333 L 1909,332 L 1909,296 Z M 1910,263 L 1911,264 L 1911,290 L 1910,291 L 1909,290 L 1909,264 Z M 1840,247 L 1841,248 L 1902,248 L 1903,249 L 1901,252 L 1900,251 L 1899,252 L 1841,252 L 1841,291 L 1899,291 L 1900,292 L 1898,294 L 1841,294 L 1841,333 L 1899,333 L 1900,334 L 1899,336 L 1841,336 L 1841,346 L 1840,347 L 1839,346 L 1839,248 Z M 1840,225 L 1841,226 L 1841,246 L 1840,247 L 1839,246 L 1839,226 Z M 1544,210 L 1543,347 L 1542,336 L 1275,336 L 1272,338 L 1273,326 L 1274,333 L 1542,333 L 1542,294 L 1274,294 L 1273,300 L 1272,240 L 1274,240 L 1274,248 L 1542,248 L 1542,210 Z M 1000,210 L 1002,210 L 1002,248 L 1260,247 L 1262,250 L 1261,254 L 1259,251 L 1002,252 L 1002,291 L 1262,290 L 1261,295 L 1002,294 L 1002,333 L 1259,333 L 1261,331 L 1261,344 L 1259,344 L 1259,336 L 1002,336 L 1001,347 Z M 1866,204 L 1868,202 L 1868,201 L 1872,197 L 1873,197 L 1874,196 L 1875,196 L 1876,195 L 1877,195 L 1878,194 L 1882,194 L 1883,193 L 1897,193 L 1898,194 L 1902,194 L 1903,195 L 1905,195 L 1907,197 L 1908,197 L 1913,202 L 1913,203 L 1914,204 L 1914,205 L 1915,206 L 1915,207 L 1916,208 L 1916,233 L 1915,234 L 1914,233 L 1911,233 L 1910,232 L 1910,209 L 1866,209 L 1865,208 L 1866,207 Z M 734,176 L 735,177 L 735,274 L 734,275 L 684,275 L 683,274 L 681,274 L 680,273 L 678,273 L 676,271 L 675,271 L 674,270 L 674,269 L 672,267 L 672,266 L 671,265 L 671,263 L 670,262 L 670,256 L 671,255 L 671,253 L 672,252 L 672,250 L 673,249 L 673,247 L 674,246 L 674,244 L 676,241 L 676,239 L 677,238 L 677,237 L 678,236 L 678,235 L 679,234 L 680,235 L 679,234 L 679,232 L 681,229 L 681,227 L 683,224 L 683,222 L 685,219 L 685,217 L 687,214 L 687,212 L 688,211 L 688,210 L 689,209 L 689,208 L 691,205 L 691,203 L 693,200 L 693,198 L 695,195 L 696,196 L 695,195 L 695,194 L 696,193 L 697,194 L 696,193 L 696,192 L 698,190 L 698,189 L 704,183 L 705,183 L 707,181 L 708,181 L 709,180 L 711,180 L 714,178 L 718,178 L 719,177 L 727,177 L 728,176 Z M 745,172 L 746,171 L 858,171 L 859,172 L 862,172 L 866,174 L 869,177 L 872,183 L 872,268 L 870,272 L 865,277 L 863,278 L 860,278 L 859,279 L 745,279 L 744,278 L 745,277 Z" fill="black" fill-rule="evenodd"/>
</svg>