<?xml version="1.0" encoding="UTF-8" standalone="no"?>
<svg
   width="700"
   height="250"
   viewBox="0 0 700 250"
   version="1.1"
   id="svg2"
   sodipodi:docname="opel_blitz_transport_black.svg"
   inkscape:version="1.4.2 (f4327f4, 2025-05-13)"
   xmlns:inkscape="http://www.inkscape.org/namespaces/inkscape"
   xmlns:sodipodi="http://sodipodi.sourceforge.net/DTD/sodipodi-0.dtd"
   xmlns="http://www.w3.org/2000/svg"
   xmlns:svg="http://www.w3.org/2000/svg">
  <defs
     id="defs2" />
  <sodipodi:namedview
     id="namedview2"
     pagecolor="#ffffff"
     bordercolor="#000000"
     borderopacity="0.25"
     inkscape:showpageshadow="2"
     inkscape:pageopacity="0.0"
     inkscape:pagecheckerboard="0"
     inkscape:deskcolor="#d1d1d1"
     inkscape:zoom="0.78654235"
     inkscape:cx="255.54886"
     inkscape:cy="-265.08426"
     inkscape:window-width="2560"
     inkscape:window-height="1377"
     inkscape:window-x="-8"
     inkscape:window-y="-8"
     inkscape:window-maximized="1"
     inkscape:current-layer="svg2" />
  <path
     d="m 298.31783,145.50553 v 0.38803 l -0.38803,0.38803 h -0.38803 v 1.55212 l 0.38803,0.38803 -0.38803,0.38803 v 1.94015 l 0.38803,0.38803 -0.38803,0.38803 h 1.55212 v -4.26833 l -0.38802,-0.38803 v -0.77606 z"
     fill="#000000"
     fill-rule="evenodd"
     id="path1"
     style="stroke-width:0.38803" />
  <path
     d="m 21.264377,173.44369 3.880303,4.65636 29.490281,-0.38803 9.700753,-5.04439 6.984543,-12.02893 7.37257,-4.65636 -14.357113,19.40151 -2.716211,27.93816 3.880303,10.86483 11.252865,13.96909 22.505746,10.08878 18.237403,-1.16409 17.46136,-8.92469 12.41696,-15.90923 2.71621,-24.83393 4.65636,-4.65635 11.6409,6.20847 117.57311,-0.77606 -1.94015,-10.47681 89.24691,3.8803 82.6504,12.02893 4.26833,19.01347 11.25287,14.74514 17.84939,9.70076 20.95362,0.77606 18.23741,-8.14863 9.31272,-9.31272 6.98454,-13.96908 1.55212,-13.58105 4.65636,-3.10424 -0.38803,-5.82046 1.94015,5.04439 13.96908,9.31272 -7.76059,-18.62543 10.08878,-3.49228 6.20848,-10.47681 62.86086,1.16409 1.16409,6.98455 4.26833,1.16408 -0.38802,-6.98453 6.5965,-7.37258 -5.82045,-6.59651 -5.43241,1.94015 -3.49228,-4.65636 v -11.25287 l 17.46135,-0.77606 1.55216,12.02893 h 3.88028 l 0.77604,-11.25287 10.86488,-3.10424 -2.71626,-6.98455 1.94014,2.71622 0.77612,-45.399512 3.10424,-5.43243 -3.10424,-1.94014 -0.38806,-9.700758 -366.30037,0.388028 -1.16409,10.08878 -0.77605,-9.700744 -1.55213,10.476814 -1.16408,-41.907251 -6.59652,-11.640901 -21.34165,-6.208478 -42.29528,1.940147 -22.50574,5.044387 -9.31272,6.208487 -17.46136,42.683299 -97.395536,6.20848 -6.208478,-4.26833 -8.148634,1.55212 2.716212,4.65637 -8.92469,9.31271 -2.328184,25.221962 10.476809,6.20848 1.164092,10.08878 -10.864837,7.37257 8.148626,-6.20848 0.776064,-8.53666 -6.984542,-6.20849 -12.028929,-1.55212 -5.044395,13.58106 5.432423,9.31272 6.208478,0.38803 0.388036,6.59651 -12.804993,12.80499 -4.656367,-0.38803 -0.776056,-45.39952 -3.104239,-1.16409 -0.776064,43.07134 -1.940147,3.8803 -6.984542,1.16409 z m 78.770093,43.45937 0.38804,-0.38803 h 0.38803 l 0.38802,-0.38803 h 1.55212 l 0.38804,0.38803 h 5.04439 l 0.38802,-0.38803 h 2.71622 l 0.77606,0.77606 -0.38804,0.38803 h -1.55212 l -0.38802,0.38803 h -7.7606 l -0.38804,-0.38803 h -1.16408 z m 11.25288,-0.77606 0.38802,-0.38804 h 0.77607 l 0.38803,-0.38802 h 0.77606 l 0.38803,0.38802 h 0.38803 l 0.38803,0.38804 -0.38803,0.38803 h -0.77606 l -0.38804,-0.38803 0.38804,0.38803 -0.38804,0.38803 h -1.16408 z m 6.59651,-1.55212 -0.77606,0.77606 h -0.38803 l -0.38803,0.38802 h -0.77606 l -0.38803,0.38804 h -0.38803 l -0.38803,-0.38804 h -0.38803 l -0.38803,-0.38802 0.38803,-0.38803 h 0.38803 l 0.38803,-0.38803 h 0.77606 l 0.38802,-0.38804 h 0.38804 l 0.38803,-0.38802 h 0.38803 z m -24.445894,-0.38804 0.776056,-0.77605 h 0.388036 l 0.388028,0.38803 h 0.388028 l 0.388028,0.38802 h 0.388036 l 0.388028,0.38804 h 0.388028 l 0.388036,0.38803 -0.388036,0.38803 0.388036,-0.38803 h 0.776055 l 0.388028,0.38803 h 0.776064 l 0.388028,0.38802 h 1.164095 l 0.38802,0.38804 -0.38802,0.38803 h -0.38803 l -0.38804,0.38803 h -1.164081 l -0.388036,-0.38803 0.388036,-0.38803 -0.388036,0.38803 H 97.706298 L 97.31827,216.127 h -0.776064 l -0.388028,-0.38804 h -0.388036 l -0.388028,-0.38802 h -0.388028 l -0.388028,-0.38803 0.388028,-0.38803 -0.388028,0.38803 -0.388036,-0.38803 h -0.388028 z m 419.460474,-0.77605 -1.16408,1.16409 h -0.38803 l -0.38803,0.38803 h -0.38803 l -0.38803,0.38803 h -0.38803 l -0.77606,-0.77606 0.38803,-0.38804 h 0.38803 l 0.38803,-0.38802 h 0.38803 l 0.38803,-0.38803 h 0.38803 l 0.38803,-0.38803 h 0.77606 z m -392.6864,-0.38803 -1.16409,1.16408 h -0.38803 l -0.38803,0.38804 h -0.38803 l -0.77606,-0.77606 0.38802,-0.38803 h 0.38804 l 0.38803,-0.38803 h 0.38803 l 0.38803,-0.38804 h 0.77606 z m -22.505742,-3.10425 0.388027,-0.38802 h 1.164092 l 0.388028,0.38802 h 1.164095 l 0.38802,0.38804 h 0.77607 l 0.38803,0.38803 h 0.38802 l 0.77607,0.77606 v 0.77606 l -0.38803,0.38802 h -2.71621 l -0.38804,-0.38802 h -0.776053 l -0.388028,-0.38803 h -0.388036 l -0.776055,-0.77607 z m 393.074432,-0.38802 0.38803,-0.38803 h 0.38804 l 0.38803,0.38803 h 0.77606 l 0.38803,0.38802 h 0.38803 l 0.38802,0.38804 h 0.38804 l 0.38803,0.38803 h 0.38803 l 0.38802,0.38802 v 0.77607 l -0.38802,0.38803 h -0.38803 l -0.38803,0.38802 h -0.38804 l -0.38802,-0.38802 h -0.77606 l -0.38804,-0.38803 0.38804,-0.38803 h 0.77606 -0.77606 l -0.38804,0.38803 h -0.38802 l -0.38803,-0.38803 h -0.38804 l -0.77605,-0.77606 0.38802,-0.38803 z m -379.88141,2.32818 v -0.38803 l 0.38803,-0.38804 0.38802,0.38804 h 0.38804 -0.38804 l -0.38802,-0.38804 v -0.38802 l 0.77606,-0.77607 h 0.38803 l 0.38803,-0.38802 h 0.38802 l 0.38804,-0.38803 h 1.16409 l 0.38803,0.38803 h 1.16409 l 0.38803,0.38802 -1.16409,1.16409 h -0.38803 l -0.38803,0.38804 h -0.77606 l -0.38803,-0.38804 h -0.38804 0.38804 l 0.38803,0.38804 -0.38803,0.38803 h -0.77606 l -0.38803,0.38803 h -1.16409 z m 399.67095,-2.32818 -1.16409,1.16409 h -0.38803 l -0.38803,0.38802 h -0.38803 l -0.38803,0.38804 h -0.38803 l -0.38804,0.38803 h -0.38802 l -0.38803,0.38803 h -0.77607 l -0.38802,-0.38803 h -1.16409 0.77606 l 0.38803,0.38803 -0.38803,0.38802 h -1.55212 l -0.38804,-0.38802 v -0.38803 l -0.38802,-0.38803 v -0.38804 l 0.38802,-0.38802 h 0.38804 l 0.38803,-0.38803 h 0.77606 l 0.38803,-0.38804 h 0.77605 l 0.38804,-0.38802 h 0.77606 l 0.38802,-0.38803 h 0.38804 l 0.38803,-0.38803 h 0.77606 l 0.38803,-0.38804 h 0.38803 z m -424.504873,-4.26834 0.388028,0.38803 v 0.38804 l 1.552119,1.55212 v 0.38803 l 3.880303,3.8803 h 0.388028 l 0.776064,0.77605 h 0.388027 l 0.776056,0.77607 -0.776056,0.77605 h -0.388027 l -0.776064,-0.77605 h -0.388028 l -1.164092,-1.16409 h -0.388028 l -3.492275,-3.49227 v -0.38804 l -1.164091,-1.16408 v -0.38804 l -0.388028,-0.38802 v -0.38803 z M 499.3174,203.32201 h 0.38802 l 1.1641,1.16409 -0.38803,0.38803 v 0.38802 l -0.38803,0.38803 h -1.16409 l -0.38803,-0.38803 v -1.16409 z m -394.23853,0.38802 0.38803,-0.38802 h 0.77606 l 0.77605,0.77605 v 1.16409 l -0.38802,0.38803 h -1.16409 l -0.77606,-0.77605 v -0.38803 l 0.38803,-0.38804 z m 22.89377,-1.16409 0.38803,0.38804 v 0.38803 l -0.38803,0.38802 v 0.77607 l -0.77606,0.77605 v 0.38803 l -0.38803,0.38804 v 0.38803 l -1.16409,1.16409 -0.38803,-0.38803 v -0.38804 l 0.38803,-0.38802 v -0.38803 l 0.38803,-0.38804 v -0.38803 l 0.38803,-0.38802 v -0.38803 l 0.38803,-0.38804 v -0.38803 l 0.38803,-0.38802 v -0.38803 l 0.38803,-0.38804 z m 378.71733,-2.32817 h 0.77606 l 0.77606,0.77605 v 1.16409 l -0.38803,0.38803 h -1.16409 l -0.77606,-0.77605 v -0.77607 z m -15.52121,0 h 1.16409 l 0.77607,0.77605 v 0.77607 l -1.16409,1.16409 h -0.38803 l -1.16409,-1.16409 v -0.77607 z m -377.94127,0 h 0.77607 l 0.77606,0.77605 v 0.77607 l -0.77606,0.77605 h -0.77607 l -0.77605,-0.77605 v -0.77607 z m -15.521192,0 h 1.164091 l 0.776056,0.77605 v 0.77607 l -1.164092,1.16409 h -0.388028 l -1.164091,-1.16409 v -0.77607 z m 412.475942,-8.14864 h 0.77606 l 0.77606,0.77607 v 1.16408 l -0.77606,0.77606 h -0.38803 l -0.38803,-0.38802 h -0.38803 l -0.38803,-0.38804 v -1.16408 z m -22.11772,0 h 0.77607 l 0.77605,0.77607 v 1.16408 l -0.77605,0.77606 h -0.77607 l -0.77605,-0.77606 v -1.16408 z m -370.95672,0 h 0.38802 l 0.77607,0.77607 v 1.16408 l -0.77607,0.77606 h -0.38802 l -0.38803,-0.38802 h -0.38803 l -0.38804,-0.38804 v -1.16408 l 0.38804,-0.38804 h 0.38803 z m -22.505742,0 h 0.776056 l 0.776064,0.77607 v 1.16408 l -0.776064,0.77606 h -0.776056 l -0.776064,-0.77606 v -1.16408 z m 424.116842,-2.32817 0.38803,0.38803 v 2.71621 l 0.38803,0.38803 v 0.38802 l -0.38803,0.38803 v 2.71621 l -0.38803,0.38804 v 0.77605 l -0.38803,0.38803 v 0.38804 l -0.38803,0.38803 h -0.38803 l -1.16409,-1.1641 v -1.16409 l 0.38803,-0.38803 v -5.43242 l 0.38803,-0.38803 h 0.38803 l 0.77606,-0.77605 z m -38.41497,0 0.38802,0.38803 h 0.38803 l 0.77606,0.77605 v 0.38804 l 0.38803,0.38803 v 1.16409 l -0.38803,0.38803 v 0.77605 l 0.38803,0.38804 v 3.49226 l -0.77605,0.77607 h -0.38804 l -0.38803,0.38803 -0.77605,-0.77607 v -1.16408 l -0.38804,-0.38804 v -2.71621 l -0.38803,-0.38803 v -0.38802 l 0.38803,-0.38803 v -2.32819 z m -355.0475,0 0.38803,0.38803 v 0.38802 l 0.38803,0.38803 v 5.43242 l -0.38803,0.38803 v 1.16409 l -0.38803,0.38803 v 0.38804 l -0.77606,0.77605 -0.77606,-0.77605 h -0.38804 l -0.38802,-0.38804 v -0.77605 l 0.38802,-0.38803 v -3.49228 l 0.38804,-0.38802 v -2.32819 l 0.38803,-0.38803 h 0.38803 z m -38.414978,0 1.164092,1.16408 v 0.77607 l 0.388027,0.38802 v 5.82045 l -0.776055,0.77607 -1.164091,-1.16409 v -1.1641 l -0.388028,-0.38802 v -4.65636 l 0.388028,-0.38804 v -0.77605 z m 411.699888,-3.49228 h 1.55212 l 0.38803,0.38803 -0.38803,0.38804 h -1.16409 1.55212 l 0.38803,-0.38804 h 0.77606 l 0.38803,0.38804 h 0.38803 l 0.38802,0.38802 h 0.38804 l 0.77606,0.77606 h 0.38803 l 0.77606,0.77606 v 0.38803 l 0.77606,0.77607 v 0.77605 l 0.38803,0.38804 v 0.77605 l 0.38803,0.38803 v 2.32818 l -0.38803,0.38803 v 0.77607 l -0.38803,0.38802 v 0.38803 l -0.38804,0.38804 -0.38802,-0.38804 0.38802,0.38804 v 0.38803 l -1.94014,1.94014 h -0.38803 l -0.38804,0.38803 h -0.38802 l -0.38803,0.38804 h -0.77607 l -0.38802,0.38803 h -3.10424 l -0.38803,-0.38803 h -0.77607 l -0.38802,-0.38804 h -0.38803 l -3.10424,-3.10424 v -0.77605 l -0.38804,-0.38803 v -4.26833 l 0.38804,-0.38804 v -0.38803 l 0.38803,-0.38802 v -0.38803 l 2.32817,-2.32819 h 0.38804 l 0.38803,-0.38802 h 0.38802 l 0.38803,-0.38804 h 1.16409 z m -393.46247,0 h 1.94014 l 0.38803,0.38803 h 0.77607 l 0.38802,0.38804 h 0.38804 l 0.38803,0.38802 -0.38803,0.38803 0.38803,-0.38803 h 0.38803 l 0.77606,0.77606 h 0.38803 l 0.77605,0.77606 v 0.38803 l 0.77607,0.77607 v 0.77605 l 0.38803,0.38804 v 0.77605 l 0.38802,0.38803 v 2.32818 l -0.38802,0.38803 v 0.77607 l -0.38803,0.38802 v 0.38803 l -0.38803,0.38804 v 0.38803 l -1.94016,1.94014 h -0.38802 l -0.77606,0.77607 h -0.77606 l -0.38803,0.38803 h -3.49228 l -0.38802,-0.38803 h -0.77606 l -0.38804,-0.38804 h -0.38802 l -2.716215,-2.7162 v -0.38804 l -0.388028,-0.38803 v -0.77605 l -0.388028,-0.38804 v -3.49226 l 0.388028,-0.38803 v -0.77607 l 0.388028,-0.38802 v -0.38803 l 2.328185,-2.32819 h 0.38803 l 0.38802,-0.38802 h 0.38804 l 0.38803,0.38802 h 0.77605 -0.77605 l -0.38803,-0.38802 0.38803,-0.38804 h 1.16409 l 0.38803,0.38804 h 1.55212 -1.55212 l -0.38803,-0.38804 z m 400.83504,-0.38802 v -0.77607 l 0.38803,-0.38803 0.38803,0.38803 -0.38803,-0.38803 0.38803,-0.38802 h 1.16409 l 0.38803,0.38802 v 0.38803 l 0.38803,0.38804 -1.16409,1.16408 h -0.77606 z m -393.46247,-1.1641 0.38803,-0.38802 h 1.16409 l 0.77606,0.77605 v 0.77607 l -0.77606,0.77605 h -0.77607 l -0.77605,-0.77605 z m -14.745142,-0.38802 h 1.164091 l 0.388028,0.38802 v 1.1641 l -0.776064,0.77605 h -0.776055 l -0.776064,-0.77605 v -0.77607 z M 491.5568,183.9205 h 0.38803 l 1.16409,1.16409 v 0.38804 l -1.16409,1.16408 h -0.38803 l -0.38804,-0.38803 h -0.38803 l -0.38802,-0.38802 v -1.1641 l 0.38802,-0.38802 h 0.38803 z m -407.431559,-1.16408 0.776064,0.77605 v 0.77607 l -0.388028,0.38802 v 0.38803 l -0.388036,0.38804 v 0.77605 l -0.388028,0.38803 v 0.77606 l -0.388028,0.38803 v 1.55212 l -0.388027,0.38804 v 7.37257 l 0.388027,0.38803 v 1.16409 l 0.388028,0.38803 v 1.16409 l 0.388028,0.38803 v 0.77606 l 0.388036,0.38803 v 0.38802 l 0.388028,0.38803 v 0.77607 l 0.388028,0.38802 v 0.38803 l 0.776064,0.77607 v 0.38802 l -0.776064,0.77607 -0.776056,-0.77607 v -0.38802 l -0.388036,-0.38803 v -0.38804 l -0.388028,-0.38803 v -0.38802 l -0.388028,-0.38803 v -0.77607 l -0.388027,-0.38802 v -0.77607 l -0.388037,-0.38802 v -0.38803 l -0.388027,-0.38804 v -1.16408 l -0.388028,-0.38804 v -1.94015 l -0.388028,-0.38802 v -5.43243 l 0.388028,-0.38802 v -1.55212 l 0.388028,-0.38804 v -1.16408 l 0.388027,-0.38804 v -0.77605 l 0.388037,-0.38803 v -0.77607 l 0.388027,-0.38802 v -0.38804 l 0.388028,-0.38803 0.388028,0.38803 -0.388028,-0.38803 v -0.38803 z m 436.533809,-1.1641 0.38803,0.38803 v 0.38803 l 0.38803,0.38804 v 0.38802 l 0.38803,0.38803 v 0.38803 l 0.38803,0.38804 v 0.77605 l 0.38803,0.38804 v 0.77605 l 0.38803,0.38803 v 0.77606 l 0.38803,0.38803 v 1.55212 l 0.38803,0.38804 v 6.5965 l -0.38803,0.38803 v 1.55212 l -0.38803,0.38804 v 1.16408 l -0.38803,0.38804 v 0.77605 l -0.38803,0.38804 v 0.77605 l -0.38803,0.38803 v 0.38804 l -0.38803,0.38803 v 0.38802 l -0.38803,0.38803 v 0.38804 l -0.38803,0.38803 v 0.38802 l -0.38803,0.38803 v 0.38804 l -0.77606,0.77605 -0.38803,-0.38802 v -0.38803 l 0.38803,-0.38804 v -0.38803 l 0.38803,-0.38802 v -0.77607 l 0.38803,-0.38803 v -0.38802 l 0.38803,-0.38803 v -0.38804 l 0.38803,-0.38803 v -0.77605 l 0.38803,-0.38804 v -0.77605 l 0.38803,-0.38804 v -1.16408 l 0.38803,-0.38804 v -1.94015 l 0.38803,-0.38802 v -4.65636 l -0.38803,-0.38804 v -2.32817 l -0.38803,-0.38804 v -1.16408 l -0.38803,-0.38804 v -0.77605 l -0.38803,-0.38803 v -0.77607 l -0.38803,-0.38802 v -0.38804 l -0.38803,-0.38803 v -0.38803 l -0.38803,-0.38802 v -0.38804 z m -22.11771,0 0.38803,-0.38802 h 1.16409 l 0.38803,0.38802 -0.38803,0.38803 h -0.77606 0.38802 l 0.38804,0.38803 v -0.38803 l 0.38803,-0.38803 0.38803,0.38803 v 0.77607 l -0.38803,0.38802 h -0.38803 l -0.38804,0.38803 h -0.38802 l -0.77606,-0.77605 z m -393.8505,0.77606 0.38803,-0.38803 v -0.38803 l 0.38803,-0.38802 h 1.16409 l 0.38802,0.38802 v 0.38803 l 0.38803,0.38803 -1.16408,1.16409 h -0.38804 z m 14.74514,-1.16408 0.38803,-0.38804 h 1.16409 v -0.38803 l 0.38803,-0.38803 0.77606,0.77606 v 0.38804 l 0.38803,0.38802 v 0.38803 l -0.38803,0.38803 h -1.55212 z m -1.16409,-1.94016 0.38803,-0.38803 v -0.38802 l 0.38803,-0.38804 0.77606,0.77606 h 0.38803 l 1.16409,1.16409 -0.38803,0.38803 h -0.77606 l -0.77606,0.77607 -1.16409,-1.1641 z m 427.22108,-2.32817 0.38803,0.38802 v 0.38803 l 0.38803,0.38803 v 0.38804 l 0.38803,0.38802 v 0.38803 l 0.38803,0.38804 v 0.38802 l 0.38803,0.38803 v 0.38803 l 0.38804,0.38804 v 0.38802 l -0.38804,0.38803 -0.38803,-0.38803 h -0.38803 l -0.38803,0.38803 H 545.881 l -0.38803,-0.38803 v -0.38802 l -0.38802,-0.38804 v -3.49227 z m -143.18309,0.38802 0.38803,-0.38802 h 3.10425 l 0.38803,-0.38804 h 3.88029 l 0.77607,0.77606 h 2.32818 l 0.38803,-0.38802 h 0.38803 l 0.38802,-0.38804 h 1.55212 -1.55212 l -0.38802,-0.38803 0.38802,-0.38803 h 3.10425 l 0.77606,0.77606 h 0.77606 l 0.38803,0.38804 h 0.77605 l 0.38804,0.38802 h 1.16408 l 0.38804,0.38803 h 1.55212 l 1.16409,1.16409 h 1.16408 l 0.38804,-0.38802 h 0.38803 l 0.38803,0.38802 h 0.77606 l 0.38803,0.38803 h 0.77606 l 0.38803,-0.38803 h 0.38803 l 0.38803,0.38803 h 0.77606 l 0.38803,0.38804 h 0.77606 l 0.38803,0.38802 -0.38803,0.38803 0.38803,-0.38803 h 0.77606 l 0.38803,0.38803 h 0.77606 l 0.38803,0.38803 h 0.77606 l 0.38803,0.38804 h 1.16409 l 0.38803,0.38802 h 0.38803 l 0.38803,0.38803 -0.38803,0.38803 0.38803,-0.38803 h 0.77606 l 0.38803,0.38803 h 0.77606 l 0.38803,0.38804 h 0.77606 l 0.38803,0.38802 -0.38803,0.38803 h -1.16409 l -0.38803,-0.38803 h -2.71621 l -0.38803,-0.38802 h -1.94015 l -0.38803,-0.38804 h -1.94015 l -0.38803,-0.38803 h -2.71621 l -0.38803,-0.38803 h -1.55212 l -0.38803,-0.38802 h -2.32818 l -0.38804,-0.38804 h -1.94014 l -0.38803,-0.38803 h -2.32818 l -0.38803,-0.38803 h -2.32819 l -0.38802,-0.38802 h -2.32819 l -0.38802,-0.38804 h -2.32818 l -0.38804,-0.38803 h -2.32817 l -0.38804,-0.38802 h -2.7162 l -0.38804,-0.38804 h -2.71621 l -0.38803,-0.38803 z m 112.14069,-3.10424 0.38803,0.38803 h 0.38803 l 2.71621,2.71621 v 0.38803 l 1.55212,1.55212 v 0.38804 l 0.77606,0.77605 v 0.38803 l 0.38803,0.38804 v 0.38802 l -0.77606,0.77606 -0.38803,-0.38803 v -0.38803 l -0.77606,-0.77606 v -0.38803 l -0.77606,-0.77605 v -0.38804 l -4.26833,-4.26833 z m -30.26634,0 h 0.38803 l 0.38802,-0.38802 0.77607,0.77605 -0.77607,0.77607 h -0.38802 l -2.32819,2.32817 v 0.38803 l -1.55212,1.55213 -0.38802,1.16408 -1.55212,1.94016 v 0.38802 l -0.77607,1.1641 v 0.77605 l -0.38803,0.38804 v 0.77605 l -0.38802,0.38803 v 0.77606 l -0.38803,0.38803 v 1.55212 l -0.38804,0.38804 v 1.94015 l -0.38803,0.38802 v 1.1641 l 0.38803,0.38802 v 3.49228 l 0.38804,0.38803 v 1.16409 l 0.38803,0.38803 v 1.16409 l 0.38802,0.38803 v 0.77606 l 0.38803,0.38803 v 0.38802 l 0.38804,0.38803 v 0.38804 l 0.38803,0.38803 0.77605,1.94014 0.77607,0.77607 v 0.38803 l 1.55211,1.55212 v 0.38802 l 3.49227,3.49228 h 0.38804 l 1.94015,1.55212 1.94014,0.77605 0.38804,0.38804 -0.38804,0.38803 0.38804,-0.38803 h 0.77605 l 1.1641,0.77606 h 0.77606 l 0.38803,0.38802 h 0.77605 l 0.38804,0.38804 h 1.94015 l 0.38802,0.38803 h 5.43243 l 0.38803,-0.38803 h 2.32818 l 0.38803,-0.38804 h 0.77606 l 0.38803,-0.38802 h 0.77605 l 1.1641,-0.77606 h 0.77606 l 0.77606,0.77606 -0.38803,0.38802 h -0.38803 l -1.16409,0.77607 h -0.77607 l -0.38802,0.38803 h -1.1641 l -0.38802,0.38803 h -1.94015 l -0.38804,0.38803 h -6.98453 l -0.38804,-0.38803 h -1.55212 l -0.38802,-0.38803 h -1.1641 l -0.38802,-0.38803 h -0.77607 l -1.16408,-0.77607 h -0.77607 l -0.38802,-0.38802 h -0.38803 l -0.77606,-0.77606 h -0.38803 l -0.38803,-0.38804 h -0.38804 l -0.77605,-0.77605 h -0.38804 l -1.55212,-1.55212 h -0.38803 l -3.10423,-3.10424 v -0.38804 l -1.1641,-1.16408 v -0.38804 l -1.55212,-1.94014 v -0.77607 l -1.16409,-1.94015 v -0.77605 l -0.38803,-0.38804 v -0.77605 l -0.38802,-0.38804 v -0.77605 l -0.38804,-0.38803 v -1.55212 l -0.38803,-0.38804 v -6.5965 l 0.38803,-0.38803 v -1.55213 l 0.38804,-0.38803 v -1.16409 l 0.38802,-0.38803 v -0.77605 l 0.77607,-1.16409 v -0.77607 l 0.77605,-0.77605 v -0.77607 l 0.77607,-0.77605 0.38803,-1.1641 1.16409,-1.16409 v -0.38802 l 0.38803,-0.38804 0.38802,0.38804 -0.38802,-0.38804 z m 10.86484,0.38803 0.38802,-0.38803 h 0.38804 l 0.38803,-0.38802 h 0.38802 l 0.38803,-0.38804 h 5.0444 l 0.38803,0.38804 h 0.77606 l 0.38803,0.38802 v 1.1641 l -0.77607,0.77605 h -6.20848 z m -393.46248,0 0.77607,-0.77605 h 0.77606 l 0.38803,-0.38804 h 4.65636 l 0.38802,0.38804 h 0.77607 l 0.38803,0.38802 v 0.38803 l -0.38803,0.38803 v 0.38804 l -0.38803,0.38802 h -1.16409 l -0.38804,0.38803 h -4.65636 l -0.77605,-0.77605 v -0.38804 z m 353.88341,-1.55212 1.1641,1.16409 h 0.38802 l 0.77606,0.77606 v 0.77606 l 0.77606,0.77606 v 0.38804 l -0.38803,0.38802 v 0.77606 l -0.38803,0.38804 v 0.38802 l -0.38803,0.38803 h -0.38803 l -0.38802,0.38804 h -0.38804 v 0.77605 l -0.38803,0.38803 v 0.77606 l -0.38803,0.38803 v 0.77607 l -0.38802,0.38802 h -1.1641 l -0.38803,-0.38802 h -1.55212 l -0.38803,-0.38804 h -0.77606 l -0.77606,-0.77606 1.94015,-1.94014 v -0.38804 l 0.77606,-0.77605 v -0.38804 l 0.38803,-0.38803 v -0.38803 l 0.38803,-0.38802 v -0.77607 l 0.38803,-0.38803 v -0.38802 l 0.38803,-0.38804 v -0.38803 l 0.38803,-0.38803 v -0.38802 z m -360.867942,-1.16409 0.776056,0.77606 -0.388028,0.38803 h -0.388028 l -0.388036,0.38803 h -0.388028 l -0.776055,0.77606 h -0.388037 l -1.164091,1.1641 h -0.388028 l -2.716212,2.7162 v 0.38804 l -1.164082,1.16409 v 0.38802 l -0.388037,0.38803 -0.388027,-0.38803 0.388027,0.38803 -0.388027,0.38803 v 0.38804 l -0.388028,0.38802 v 0.38803 l -0.776064,0.77607 v 0.38802 l -0.388028,0.38803 -0.776064,-0.77605 v -0.38804 l 0.388036,-0.38803 v -0.38803 l 0.388028,-0.38802 v -0.38804 l 0.776056,-0.77606 v -0.38802 l 0.776064,-0.77607 v -0.38802 l 4.656358,-4.65636 h 0.388028 l 0.776064,-0.77607 h 0.388027 l 0.776064,-0.77606 h 0.388028 l 0.388028,-0.38803 z m 351.943252,-0.38803 v 0.77606 l -0.38803,0.38803 v 0.77606 l -0.38803,0.38804 v 1.16408 l -0.38803,0.38804 v 1.16408 l -0.38803,0.38804 v 2.32817 l -0.38803,0.38804 v 0.77605 l -0.38803,0.38803 h -0.77606 l -0.38803,-0.38803 h -1.16409 l -0.38803,-0.38803 h -0.77606 l -0.38803,-0.38802 h -0.77606 l -0.38803,-0.38804 h -1.16409 l -0.38803,-0.38803 h -0.77606 l -0.38803,-0.38802 h -0.77606 l -0.38803,-0.38804 h -0.77606 l -0.38803,-0.38803 h -1.16409 l -0.38803,-0.38803 h -0.77606 l -0.77606,-0.77606 0.38803,-0.38803 h 0.38803 v -0.38803 l 0.38803,-0.38802 v -0.38804 l -0.38803,-0.38803 v -0.38803 l -0.38803,-0.38802 h -0.77606 l -0.38803,-0.38804 0.38803,-0.38803 h 2.32818 l 0.38803,-0.38803 h 2.32818 l 0.38803,-0.38803 h 2.71621 l 0.38803,-0.38803 h 1.94015 l 0.38803,-0.38803 h 2.32818 l 0.38803,-0.38803 h 1.94015 z m 94.2913,-1.16409 h 0.38803 l 0.38803,-0.38803 0.77606,0.77606 v 0.38803 l 0.38803,0.38803 v 0.38803 l 0.38803,0.38803 v 0.38803 l 0.77606,0.77606 v 0.38804 l 0.38803,0.38802 v 0.38803 l 0.38803,0.38803 v 0.38804 l 0.38804,0.38802 v 0.38803 l -0.38804,0.38803 h -1.16408 l -0.38804,0.38804 h -1.16408 l -0.38804,-0.38804 v -0.38803 l -0.77606,-0.77605 v -0.77607 l -0.38803,-0.38803 v -0.38802 l -0.77606,-0.77607 v -0.38803 l -0.38803,-0.38803 v -0.38803 l 0.38803,-0.38803 0.38803,0.38803 0.38803,-0.38803 0.38803,0.38803 h 0.38803 v -0.38803 l 0.38803,-0.38803 h -0.77606 l -0.38803,-0.38803 z m -53.54814,1.94015 0.38803,-0.38803 h 0.38802 l 0.38804,-0.38803 h 0.38803 l 0.38802,-0.38803 h 0.38803 l 0.38804,-0.38803 h 1.16408 l 0.38804,-0.38803 h 0.77605 l 0.38804,-0.38803 h 0.77606 l 0.38802,-0.38802 h 1.55212 l 0.38804,-0.38804 h 2.71621 l 0.38803,-0.38803 h 1.16409 l 0.38803,0.38803 h 3.10424 l 0.38803,0.38804 h 1.55211 l 0.38804,0.38802 h 0.77606 l 0.38802,0.38803 h 0.77607 l 0.38803,0.38803 h 0.38803 l 0.38803,0.38803 h 0.77606 l 0.38803,0.38803 h 0.38803 l 0.77606,0.77606 h 0.38803 l 0.38803,0.38803 h 0.38803 l 0.77606,0.77606 h 0.38803 l 0.38803,0.38804 -0.77606,0.77605 h -0.38804 l -0.77605,-0.77605 h -0.38803 l -0.38803,-0.38804 h -0.38803 l -0.77606,-0.77606 h -0.38803 l -0.38803,-0.38803 h -0.38803 l -0.38803,-0.38803 h -0.77606 l -0.38803,-0.38803 h -0.77606 l -0.38803,-0.38803 h -0.77607 l -0.38802,-0.38803 h -1.55212 l -0.38803,-0.38803 h -8.14863 l -0.38803,0.38803 h -1.16409 l -0.38803,0.38803 h -0.77607 l -0.38802,0.38803 h -0.38803 l -0.38804,0.38803 h -0.77605 l -0.38803,0.38803 h -0.38804 l -0.38803,0.38803 h -0.38802 l -0.38803,0.38803 h -0.38804 z m -391.910356,-0.77606 1.164092,-0.77606 h 0.776064 l 0.388028,-0.38803 h 0.776055 l 0.388036,-0.38803 h 1.164081 l 0.38804,-0.38802 h 1.55212 l 0.38803,-0.38804 h 2.32818 l 0.38803,-0.38803 h 2.32817 l 0.38804,0.38803 h 2.32817 l 0.38804,0.38804 h 1.16408 l 0.38804,0.38802 h 1.16408 l 0.38804,0.38803 h 0.77606 l 1.16409,0.77606 h 0.77606 l 0.38803,0.38803 h 0.38803 l 0.77606,0.77606 1.16409,0.38803 0.77606,0.77606 h 0.38803 l 0.77606,0.77606 h 0.38803 l 3.8803,3.8803 v 0.38804 l 1.16409,1.16409 v 0.38802 l 0.77606,0.77606 v 0.38804 l 0.38803,0.38802 v 0.38803 l 0.38803,0.38803 v 0.38804 l 0.38803,0.38802 v 0.38803 l 0.77606,1.16409 v 0.77607 l 0.38803,0.38803 v 0.77605 l 0.38803,0.38804 v 1.16408 l 0.38803,0.38804 v 2.71621 l 0.38803,0.38803 v 3.10423 l -0.38803,0.38803 v 2.32819 l -0.38803,0.38802 v 1.55212 l -0.38803,0.38803 v 0.77607 l -0.38803,0.38802 v 0.77607 l -0.38803,0.38802 v 0.38803 l -0.38803,0.38804 -0.77606,-0.77607 v -0.38802 l 0.38803,-0.38803 v -0.77606 l 0.38803,-0.38803 v -1.16409 l 0.38803,-0.38803 v -1.55212 l 0.38803,-0.38804 v -6.5965 l -0.38803,-0.38803 v -1.55213 l -0.38803,-0.38803 v -0.77605 l -0.38803,-0.38804 v -1.16408 l -0.77606,-1.16409 v -0.77607 l -0.38803,-0.38803 -0.38803,-1.16409 -0.77606,-0.77605 v -0.38804 l -0.77606,-0.77606 v -0.38802 l -5.04439,-5.0444 h -0.38803 l -1.16409,-1.16409 h -0.38803 l -0.38804,-0.38803 h -0.38802 l -0.38803,-0.38803 h -0.38803 l -1.16409,-0.77606 h -0.77606 l -0.38803,-0.38803 h -0.77607 l -0.38802,-0.38803 h -0.77606 l -0.38804,-0.38803 h -1.94014 l -0.38803,-0.38803 h -7.76061 l -0.38803,0.38803 h -1.16409 l -0.388025,0.38803 h -0.776056 l -0.388036,0.38803 h -0.776055 l -1.164092,0.77606 h -0.388028 z m 455.935306,-5.43242 0.38803,-0.38803 h 2.32818 l 0.38803,0.38803 v 0.38803 l -0.38803,0.38803 v 1.94015 l 0.38803,0.38803 h 1.94015 l 0.38804,-0.38803 0.38802,0.38803 v 0.77606 l 0.38803,0.38803 v 0.77606 l 0.77607,0.77606 h 0.38802 l 0.38803,0.38803 h 0.38804 l 0.38803,0.38803 v 0.38803 l -0.77607,0.77607 h -0.38803 l -0.38802,0.38802 h -1.1641 l -0.38802,0.38803 h -0.77607 l -0.38803,0.38803 h -0.38802 l -0.38804,-0.38803 v -0.38803 l -0.38803,-0.38802 v -0.77607 l -0.38803,-0.38803 v -0.77606 l -0.38802,-0.38803 v -0.77606 l -0.38804,-0.38803 v -0.38803 l -0.38803,-0.38802 v -0.77607 l -0.38802,-0.38803 v -0.38802 l -0.38803,-0.38804 v -0.38803 l -0.38804,-0.38803 v -0.38803 z m 86.91873,-6.20848 0.38803,-0.38803 0.38804,0.38803 -0.38804,-0.38803 0.38804,-0.38803 h 3.49226 l 0.38803,0.38803 h 0.38803 l 0.38804,0.38803 v 0.38803 l 0.38802,0.38803 v 0.77606 l -0.38802,0.38803 v 0.38803 l -0.77607,0.77606 h -4.26833 l -0.38803,-0.38803 z m -109.03644,-0.77606 0.38803,-0.38803 1.94015,1.94015 -0.38803,0.38803 v 0.38803 -0.38803 l 0.38803,-0.38803 h 0.38803 l 1.16409,1.16409 -0.38803,0.38803 h -0.38803 l -0.38803,-0.38803 -0.38803,0.38803 h -0.77606 l -0.77606,-0.77606 v -0.38803 h -0.38803 l -0.77606,-0.77606 0.38803,-0.38803 z m -395.40262,-2.71621 h 0.38803 l 1.16409,1.16409 h 0.38803 l 1.16409,1.16409 h 0.38803 l 0.77606,0.77606 h 0.38803 l 0.38803,0.38803 h 0.38803 l 4.26833,4.26833 v 0.38803 l 1.16409,1.16409 v 0.38803 l 1.16409,1.16409 v 0.38803 l 0.77607,0.77606 v 0.38803 l 0.38802,0.38803 v 0.38804 l 0.77606,0.77605 v 0.38803 l -0.38803,0.38803 0.38803,-0.38803 0.77606,0.77606 v 0.38803 l 0.38803,0.38803 v 0.38803 l 0.38803,0.38803 v 0.38803 l -0.38803,0.38804 h -1.16409 l 0.38803,0.38802 v 0.38803 l 0.38803,-0.38803 h 0.38803 v -0.38802 l 0.38803,-0.38804 0.77606,0.77606 v 0.38803 l 0.38803,0.38803 v 0.38804 l 0.38803,0.38802 v 0.38803 l 0.38803,0.38803 v 0.38804 l -0.38803,0.38802 0.38803,-0.38802 0.38803,0.38802 v 0.38803 l 0.38803,0.38803 v 0.38804 l 0.38804,0.38802 v 0.38803 l 0.38802,0.38804 v 0.38802 l 0.38803,0.38803 -0.38803,0.38803 h -3.49227 l -0.38803,-0.38803 v -0.77605 l -0.38803,-0.38804 h -0.38803 l -0.38803,-0.38803 v -0.38802 l -0.38803,-0.38804 v -0.77606 l -0.38803,-0.38802 v -0.38804 l 0.38803,-0.38803 v -1.55212 l -0.38803,-0.38803 v -0.38802 l -0.38802,-0.38804 v -0.38803 l -0.38804,-0.38803 v -0.38803 l -0.38803,-0.38803 v -0.38803 l -0.77606,-0.77606 h -0.77606 l -1.16409,-1.16408 v -0.38804 l -0.38803,-0.38803 v -0.77605 l 0.38803,-0.38804 v -0.77606 l -0.38803,-0.38803 v -0.38803 l -1.16409,-1.16409 V 164.519 l -2.71621,-2.71621 0.38803,-0.38803 -0.38803,-0.38803 v -0.38803 l -0.77606,0.77606 h -0.38803 l -0.38803,0.38803 -1.55212,-1.55212 0.38803,-0.38803 v -0.38803 l -2.71621,-2.71621 z m 388.41808,-2.32818 0.38803,-0.38803 h 0.38803 l 0.77606,0.77606 h 0.38803 l 0.77606,0.77606 -0.38803,0.38803 h -0.38803 l -0.38803,0.38803 h -0.38803 l -1.16409,-1.16409 0.38803,-0.38803 z m -437.309865,-1.16409 -0.776064,0.77606 h -0.388028 l -0.388028,0.38803 v 0.77606 l -0.388027,0.38803 -0.388037,-0.38803 0.388037,0.38803 -0.388037,0.38803 h -0.388027 l -0.388028,-0.38803 -0.388028,0.38803 h -0.776064 l -0.388028,0.38803 H 79.85691 l -0.388028,-0.38803 1.164092,-1.16409 h 0.388028 l 0.776064,-0.77606 h 0.388028 l 0.388027,-0.38803 h 0.388037 l 0.388027,-0.38803 h 0.388028 l 0.388028,-0.38803 h 0.388036 z m 34.922705,-3.10424 0.38803,-0.38803 h 1.55212 l 0.38803,0.38803 h 0.38803 l 0.38803,0.38803 h 0.77606 l 0.38803,0.38803 h 0.38803 l 0.38803,0.38803 h 0.38803 l 0.38803,0.38803 h 0.38803 l 0.38803,0.38803 h 0.77606 l 0.38803,0.38803 h 0.38803 l 0.77606,0.77606 h 0.38803 l 0.38803,0.38803 h 0.38803 l 0.77606,0.77606 h 0.38803 l 0.77606,0.77606 h 0.38803 l 1.55212,1.55212 -0.38803,0.38803 h -0.38803 l -0.38803,-0.38803 h -0.77606 l -0.38803,-0.38803 0.38803,0.38803 -0.38803,0.38803 h -0.38803 l -0.77606,-0.77606 h -0.38803 l -0.77606,-0.77606 0.38803,-0.38803 h 1.16409 -1.16409 l -0.38803,-0.38803 v -0.38803 l -0.38803,-0.38803 h -0.38803 l -0.38803,-0.38803 h -0.38803 l -0.38803,-0.38803 h -0.38803 l -0.38803,-0.38803 h -0.38803 l -0.38803,-0.38803 h -1.16409 l -0.38803,0.38803 h -0.38803 l -0.38804,-0.38803 h -0.77605 l -0.38803,-0.38803 h -0.38803 l -0.77606,-0.77606 v -0.38803 l -0.38803,-0.38803 h -0.38803 z m 42.29527,-1.55212 0.38804,-0.38803 0.38803,0.38803 v 1.16409 l 1.94014,1.94015 h 0.38803 l 8.53666,8.53666 v 0.38803 l 5.0444,5.04439 v -11.6409 l 0.38802,-0.38803 0.38803,0.38803 v 12.80499 h 0.38804 l 7.37257,7.37258 h 0.38803 l 1.16409,1.16408 h 0.38803 l 0.77606,0.77606 h 0.38803 l 0.38803,0.38803 h 0.38802 l 0.77607,0.77607 h 0.38803 l 0.38802,0.38802 -0.38802,0.38803 h -1.55212 l -0.77606,0.77607 h -1.16409 l -0.38804,-0.38804 h -0.38803 l -0.38802,-0.38803 h -0.38803 l -0.38804,-0.38803 h -0.38802 l -1.1641,-1.16409 h -0.38802 l -2.32819,-2.32817 h -0.38803 l -1.94014,-1.94016 v -0.38803 l -3.88031,-3.8803 v -0.38803 l -4.65636,-4.65636 v -0.38803 l -1.55211,-1.55212 0.38802,-0.38803 -0.38802,0.38803 -8.14864,-8.14863 0.38804,-0.38803 -0.38804,0.38803 -1.55212,-1.55212 0.38803,-0.38803 h 0.38804 l 0.38802,-0.38803 h 0.38803 -0.38803 l -0.38802,-0.38803 0.38802,-0.38803 h 0.38803 z m -101.663869,-1.16409 0.776064,0.77606 h 0.388028 l 0.388028,0.38803 -0.776056,0.77606 v 0.38803 l -0.776064,0.77606 v 0.38803 l -1.164092,1.16409 v 0.38803 l -0.388027,0.38803 v 0.38803 l -0.776064,0.77606 v 0.38803 l -0.776056,0.77606 v 0.38803 l -0.388028,0.38803 v 0.38803 l -0.388036,0.38803 v 0.38803 l -0.388028,0.38803 v 0.38803 l -0.388028,0.38803 v 0.38803 l -0.388027,0.38803 v 0.38803 l -0.388037,0.38803 v 0.38803 l -0.388027,0.38803 v 0.77606 l -0.388028,0.38803 v 0.38803 l -0.388028,0.38803 v 0.38803 l -0.388036,0.38803 v 0.77606 l -0.388028,0.38803 v 1.16409 l -0.388028,0.38803 v 1.16409 l -0.388036,0.38803 v 0.77607 l -0.388028,0.38802 h -0.388028 l -0.388027,-0.38802 v -1.55213 l -0.388037,-0.38803 v -0.38803 l -0.388027,-0.38803 v -0.38803 l -0.388028,-0.38803 0.388028,-0.38803 h 0.388027 l 0.388037,-0.38803 v -0.38803 l 0.388027,-0.38803 v -0.38803 l 0.388028,-0.38803 v -0.77606 l 0.388028,-0.38803 v -0.77606 l 0.388036,-0.38803 v -0.38803 l 0.388028,-0.38803 v -0.77606 l 0.388028,-0.38803 v -0.38803 l 0.776064,-0.77606 v -0.38803 l 0.388028,-0.38803 v -0.38803 l 0.388027,-0.38803 v -0.38803 l 0.388037,-0.38803 v -0.38803 l 0.388027,-0.38803 v -0.38803 l 0.776056,-0.77606 v -0.38803 l 0.776064,-0.77606 v -0.38803 l 1.164092,-1.16409 v -0.38803 l 0.776055,-0.77606 v -0.38803 z m 476.500899,-0.77606 h 0.38803 l 0.38803,-0.38803 h 0.38803 l 0.38803,-0.38803 0.77606,0.77606 h 0.38803 l 2.32819,2.32818 v 0.38803 l 2.32817,2.32818 -0.38803,0.38803 h -0.38802 v 0.77606 h 0.38802 l 0.38803,0.38803 v 0.38803 l 1.16409,1.16409 v 0.38803 l 0.77606,0.77606 v 0.38803 l -0.38803,0.38803 -1.55212,-1.55212 v -0.38803 l -1.94015,-1.94015 v -0.38803 l -0.77606,-0.77606 0.77606,-0.77606 -0.38802,0.38803 -0.77607,-0.77606 -0.38803,0.38803 -1.16409,-1.16409 0.38803,-0.38803 h 1.16409 -1.16409 l -0.38803,0.38803 -1.55212,-1.55212 0.38803,-0.38803 h 1.16409 l -0.38803,-0.38803 -0.38803,0.38803 h -0.38803 l -0.38803,-0.38803 -0.38803,0.38803 -0.38803,-0.38803 h -0.38803 l -0.38803,-0.38803 z m -25.22195,0.38803 -0.38803,0.38803 h -15.90924 l -0.38802,0.38803 h -2.32818 l -0.38804,0.38803 h -1.94014 l -0.38803,0.38803 h -1.55212 l -0.38804,0.38803 -1.94014,0.38803 -1.1641,0.77606 h -0.77605 l -1.16409,0.77606 v 0.38803 h 0.38802 l 0.38803,0.38803 -1.94015,1.16409 -0.77606,-0.77606 h -1.16408 l -0.38804,0.38803 -1.16408,0.38803 -1.16409,1.16409 h -0.38803 v 1.16409 l -1.55213,1.55212 h -0.38803 l -0.38803,0.38803 -0.77606,-0.77606 h -0.38803 l -0.38802,0.38803 h -0.38803 l -1.16409,1.16409 h -0.38803 l -1.55213,1.55212 v 1.55212 l -1.55212,1.55212 h -0.77606 l -0.38802,-0.38803 -2.32819,2.32818 -0.38802,-0.38803 v -0.38803 h -1.1641 v 0.38803 h 1.1641 l 0.38802,0.38803 -2.32818,3.49227 0.77606,0.77606 v 0.38803 l -0.38802,0.38803 v 0.38804 l -1.1641,1.16408 h -0.38802 l -1.1641,0.77606 v 0.38803 l -0.77606,0.77606 v 0.38803 l -1.16409,1.94015 -0.38803,-0.38803 v -0.77605 l -0.38803,-0.38804 h -0.38802 l -0.38804,0.38804 -0.77606,-0.77607 v -0.38803 l 1.1641,-1.55212 v -0.38803 l 0.38802,-0.38803 0.38803,0.38803 0.38803,-0.38803 -0.38803,-0.38803 0.38803,-0.38802 0.38803,-1.1641 1.55212,-1.94015 v -0.38803 l 0.38803,-0.38803 0.38803,0.38803 h 1.55212 l 0.38804,-0.38803 h -0.77607 l -0.38803,-0.38803 -0.38802,0.38803 -0.38804,-0.38803 v -0.38803 l 3.10424,-3.49227 0.38804,0.38803 0.38802,-0.38803 -0.38802,-0.38803 0.38802,-0.38803 v -0.38803 l 1.55212,-1.55212 h 0.38803 l 0.77606,-0.77606 0.38803,0.38803 -0.38803,-0.38803 3.88031,-3.49227 h 0.38803 l 3.10423,-2.32818 2.71622,-1.16409 0.77605,-0.77606 h 0.38804 l 2.7162,-1.55212 h 0.77606 l 1.1641,-0.77606 h 0.77605 l 0.38804,-0.38803 h 0.77605 l 0.38803,-0.38803 h 0.77607 l 0.38802,-0.38803 h 1.1641 l 0.38802,-0.38803 h 1.16409 l 0.38803,-0.38803 h 1.94016 l 0.38803,-0.38803 h 2.32818 l 0.38803,-0.38803 h 9.70075 l 0.38803,0.38803 h 2.32817 l 0.38804,0.38803 h 1.94015 l 0.38803,0.38803 h 1.55212 z m -239.80257,-4.26833 0.38803,35.31073 0.38803,0.38803 v 1.55213 h 2.71621 l 0.38803,0.38802 -0.38803,0.38803 h -82.65041 l -0.38802,-0.38803 v -2.32818 l 0.38802,-0.38803 0.77607,0.38803 h 77.60601 l 0.38803,-0.38803 v -9.70075 l -0.38803,-0.38803 v -1.94015 l 0.38803,-0.38803 -0.38803,-0.38803 v -22.11771 l 0.38803,-0.38803 z m 281.32178,0.38803 0.38804,-0.38803 v -0.38803 l 0.38802,-0.38803 v -1.94015 l 0.38803,-0.38803 h 28.3262 l 0.38803,0.38803 h 2.32818 l 0.38803,-0.38803 h 7.37257 l 0.38803,0.38803 0.38802,-0.38803 0.38804,0.38803 v 11.6409 l -0.38804,0.38803 H 574.2072 l -0.38803,-0.38803 h -0.38804 l -0.77605,-0.77606 v -2.32818 l -0.38804,-0.38803 v -1.55212 l -0.77605,-0.77606 v -0.38803 l -0.38803,-0.38803 h -0.38804 l -0.77605,-0.77606 h -0.77607 l -0.38803,-0.38803 h -15.13316 l -0.38804,-0.38803 z m -21.72968,-2.71621 0.38803,-0.38803 h 0.38803 l 0.38803,-0.38803 h 13.58105 l 0.38803,0.38803 h 1.55212 l 0.38803,-0.38803 0.77607,0.77606 -0.38804,0.38802 0.38804,0.38804 v 1.16409 l 0.77605,0.77606 v 0.38803 l -0.38803,0.38803 h -10.08878 l -0.38803,0.38803 h -1.94015 v 0.38803 l 1.16409,1.16409 -0.38803,0.38803 h -1.55212 l -0.38802,0.38803 -1.1641,-1.16409 0.38803,-0.38803 -0.38803,-0.38803 0.38803,-0.38803 h 0.38803 v -0.38803 l -0.38803,-0.38803 v -0.38803 l -0.38803,-0.38803 0.38803,-0.38803 -0.38803,-0.38803 -0.38803,0.38803 h -0.38803 l -1.16409,-1.16409 h -0.38803 l -0.38803,-0.38804 h -0.38803 z m -118.7372,3.10424 v -0.77606 l 0.77607,-0.77606 v -1.55212 l 0.38803,-0.38803 h 6.59651 l 0.38803,-0.38803 h 44.23543 l 0.38802,0.38803 h 2.32818 l 0.38804,0.38803 -0.38804,0.38802 h -0.38803 l -0.77605,0.77607 h -0.38804 l -2.71621,2.71621 v 0.38803 l -2.32818,2.32818 v 0.38803 l -0.77606,0.77606 v 0.38803 l -2.32818,2.32818 v 0.38803 l -0.77606,0.77606 v 0.38803 l -0.38803,0.38803 -0.38802,-0.38803 v -0.38803 h -23.66984 l -0.77606,-1.16409 v -3.10424 l -0.38803,-0.38803 v -1.16409 l -1.55212,-1.55212 h -0.38803 l -0.38803,-0.38803 h -0.77606 l -0.38803,-0.38803 h -15.13317 z m -90.41099,-0.77606 0.77605,-0.77606 v -1.94015 l 0.38804,-0.38803 0.38803,0.38803 v 1.16409 -0.77606 l 0.38802,-0.38803 h 5.82045 l 0.38804,-0.38803 h 10.08877 l 0.38804,0.38803 h 8.14863 l 0.38803,-0.38803 h 32.59452 l 0.38803,0.38803 h 5.04439 l 0.38803,-0.38803 h 2.71621 l 0.38803,0.38803 0.77607,-0.38803 0.77605,0.38803 h 2.32818 l 0.38803,-0.38803 h 13.19302 l 0.77607,0.77606 v 1.55212 l 0.77605,0.77606 v 0.77606 l -0.38803,0.38803 h -15.5212 l -1.55212,0.77606 -1.55212,1.55212 v 0.77606 l -0.38803,0.38803 v 4.65636 l -0.38802,0.38803 H 341.7772 l -0.38803,-0.38803 v -5.43242 l -1.94015,-2.32818 -2.32818,-0.38803 -0.38803,-0.38803 h -6.20848 l -0.38804,0.38803 H 326.256 l -0.38804,-0.38803 -0.38802,0.38803 h -1.94015 l -0.77607,-0.38803 z m -12.805,-2.71621 0.38803,-0.38803 0.38804,0.38803 0.38803,-0.38803 h 7.37257 l 0.38802,0.38803 v 1.94015 l 0.77607,0.77606 v 0.38803 l -0.38804,0.38803 h -6.5965 l -0.38803,-0.38803 h -0.38804 0.38804 l 0.38803,0.38803 -0.38803,0.38803 h -1.94016 l -0.38803,-0.38803 z m -237.08636,-3.10424 1.164092,1.16409 -0.776056,0.77606 H 72.48434 l -0.388028,0.38802 -0.388028,-0.38802 h -1.164091 1.164091 l 0.388028,0.38802 -0.388028,0.38804 h -0.388027 l -0.776064,0.77606 -0.388028,-0.38803 h -1.164092 1.164092 l 0.388028,0.38803 -0.776064,0.77606 h -0.388028 l -0.388028,0.38803 -0.776064,-0.77607 v -0.38802 l -0.388028,-0.38803 1.164092,-1.16409 h 0.388028 l 1.164092,-1.16409 h 0.388027 l 0.776064,-0.77606 z m 571.56826,-6.59652 h 0.38803 l 1.16409,1.1641 v 0.38802 l -1.16409,1.1641 h -0.38803 l -0.77606,-0.77606 v -1.16409 z m -112.14068,0 h 0.38803 l 1.16409,1.1641 -0.38803,0.38802 v 0.38804 l -0.77606,0.77606 h -0.38803 l -0.77606,-0.77606 v -1.16409 z m -60.53268,8.14864 1.94014,-1.55212 h 0.38803 l 0.38804,-0.38803 h 0.77605 l 0.38803,-0.38803 h 0.38804 l 1.16409,-0.77606 h 0.77605 l 1.1641,-0.77606 h 0.77605 l 0.38804,-0.38803 h 0.38803 l 1.16409,-0.77607 h 0.77605 l 0.38804,-0.38802 h 1.16408 l 0.38804,-0.38803 h 1.16408 l 0.38804,-0.38803 h 0.77605 l 0.38804,-0.38804 h 1.55212 l 0.38803,-0.38802 h 1.94014 l 0.38803,-0.38803 h 1.94016 l 0.38803,-0.38803 h 3.49226 l 0.38804,-0.38804 h 4.26833 l 0.38803,0.38804 h 3.8803 l 0.38803,0.38803 h 1.94015 l 0.38803,0.38803 h 1.94015 l 0.38803,0.38802 h 1.55212 l 0.38802,0.38804 h 1.1641 l 0.38803,0.38803 h 0.77606 l 0.38803,0.38803 h 0.77606 l 0.38803,0.38802 h 0.77606 l 0.38803,0.38804 h 0.77606 l 0.38803,0.38803 h 0.77606 l 0.38803,0.38803 h 0.77606 l 0.38803,0.38802 h 0.38803 l 0.38803,0.38804 h 0.38803 l 0.38803,0.38803 h 0.38803 l 0.38803,0.38803 h 0.38803 l 0.38803,0.38803 h 0.38803 l 0.38803,0.38803 1.16409,0.38803 1.94015,1.55212 -0.38803,0.38802 h -0.77606 l -0.77606,0.77607 h -0.38803 l -0.38803,-0.38803 h -0.38803 l -0.38803,-0.38804 h -0.38803 l -1.16409,-0.77605 h -0.77606 l -0.38803,-0.38803 h -0.38803 l -0.38803,-0.38803 h -0.77606 l -1.16409,-0.77606 h -0.77606 l -0.38803,-0.38803 h -1.16409 l -0.38803,-0.38803 h -0.77606 l -0.38803,-0.38803 h -0.77606 l -0.38803,-0.38803 h -1.16409 l -0.38804,-0.38804 h -1.55211 l -0.38803,-0.38802 h -1.55212 l -0.38803,-0.38803 h -2.32818 l -0.38803,-0.38803 h -2.32818 l -0.38803,-0.38804 h -7.37257 l -0.38803,0.38804 h -3.49228 l -0.38802,0.38803 h -2.32819 l -0.38803,0.38803 h -1.16409 l -0.38802,0.38802 h -1.55212 l -0.38803,0.38804 h -0.77607 l -0.38802,0.38803 h -1.1641 l -0.38802,0.38803 h -0.77607 l -0.38803,0.38803 h -0.77606 l -0.38803,0.38803 h -0.77605 l -1.16409,0.77606 h -0.77607 l -1.16408,0.77606 -0.38804,-0.38803 h -1.55212 l -0.38803,0.38803 h -1.55211 l -0.38803,0.38803 h -0.77607 z m -49.66786,-8.14864 h 0.77607 l 0.38803,0.38804 v 0.38803 l 0.38803,0.38803 v 0.38802 l -0.38803,0.38804 -0.38803,-0.38804 0.38803,0.38804 -0.77606,0.77606 -0.38804,-0.38803 h -0.38802 l -0.38803,-0.38803 v -1.16409 z m -106.70825,0 h 0.38802 l 1.1641,1.1641 v 0.38802 l -0.77607,0.77607 h -0.77605 l -0.77607,-0.77607 v -0.77605 z m -268.904831,-3.88029 0.388027,0.38803 v 0.38803 l 0.388037,0.38802 v 3.10425 l -0.388037,0.38803 v 0.77605 l 0.388037,0.38804 v 6.20848 l -0.776064,0.77605 -0.388028,-0.38802 v -0.38803 l -0.388028,-0.38803 v -1.16409 l -0.388036,-0.38803 v -1.55213 l -0.388028,-0.38802 v -2.71622 l 0.388028,-0.38802 v -2.71621 l 0.388036,-0.38803 v -0.77607 l 0.388028,-0.38802 v -0.38803 z m 29.490289,8.14863 0.776055,-0.77606 2.716211,-1.16409 1.55212,-1.16409 h 0.776064 l 1.55212,-0.77606 0.776055,-0.77606 1.940148,-0.38803 1.164091,-0.77606 h 0.776064 l 1.552119,-0.77606 h 1.164092 l 0.388028,-0.38804 h 1.164092 l 0.388028,-0.38802 h 1.164091 l 0.388028,-0.38803 h 1.55212 l 0.388028,-0.38803 h 1.940156 l 0.388027,-0.38804 h 1.940145 l 0.38804,-0.38802 h 3.49227 l 0.38802,-0.38803 h 6.20849 l 0.38803,0.38803 h 3.8803 l 0.38803,0.38802 h 1.94015 l 0.38802,0.38804 h 2.32819 l 0.38803,0.38803 h 1.55212 l 0.38803,0.38803 h 1.16408 l 0.38804,0.38802 2.71621,0.38804 0.38803,0.38803 h 0.77606 l 0.38803,0.38803 3.10424,0.77606 1.16409,0.77605 1.94015,0.38804 3.49227,1.94015 h 0.77606 l 1.55212,0.77605 0.77606,0.77607 4.26833,1.94015 0.77606,0.77606 1.16409,0.38803 0.77606,0.77606 3.8803,2.32818 4.65636,3.8803 h 0.38804 l 1.94014,1.94015 h 0.38803 l 2.32819,2.32818 -1.55212,1.16409 h -1.1641 l -1.16409,-1.16409 0.38803,-0.38803 -0.38803,0.38803 -1.94014,-1.55212 0.38802,-0.38803 -0.38802,0.38803 -0.77607,-0.38803 -1.55212,-1.55212 -1.55212,-0.77606 -1.16409,-1.16409 h -0.38803 l -1.16409,-1.16409 h -0.38803 l -3.10424,-2.32818 -11.25287,-5.82045 h -0.77606 l -1.16409,-0.77606 h -0.77606 l -2.32818,-1.1641 -2.32818,-0.38802 -1.55212,-0.77606 h -1.16409 l -0.38803,-0.38804 h -1.16409 l -0.38803,-0.38802 h -1.16409 l -0.38803,-0.38803 h -1.55212 l -0.38803,-0.38804 h -1.94015 l -0.38803,-0.38802 h -2.71621 l -0.38804,-0.38803 h -12.02893 l -0.38802,0.38803 h -3.104242 l -0.388028,0.38802 h -1.940156 l -0.388028,0.38804 h -1.164092 l -0.388028,0.38803 h -1.164091 l -0.388028,0.38802 h -1.164092 l -0.388028,0.38804 h -1.164092 l -0.388027,0.38803 -3.104247,0.77605 -1.164084,0.77607 h -0.776064 l -1.164092,0.77605 h -0.776055 l -3.492276,1.94016 h -0.388027 l -0.388028,-0.38804 0.388028,-0.38802 h -0.388028 l 0.388028,0.77606 -1.55212,1.16409 -0.776055,-0.38803 z m 88.082812,-9.70076 0.38804,0.38804 v 7.7606 l -0.38804,0.38802 -0.38803,-0.38802 v -7.7606 z m 485.03756,-0.38803 0.38803,-0.38802 h 15.13321 l 0.38798,0.38802 v 0.38803 l -0.38798,0.38804 -0.38806,-0.38804 h -14.74515 z m -328.66145,0 0.38804,-0.38802 H 416.667 l 0.38802,0.38802 -0.38802,0.38803 h -96.23145 z m 321.28888,10.86485 -0.38802,0.38803 -0.38803,-0.38803 V 124.5519 h -103.216 l -0.38803,-0.38803 0.38803,-0.38802 h 103.216 l 0.38803,-0.38803 0.38802,0.38803 z M 529.19571,123.77585 v 0.77605 l -0.38803,0.38804 -0.38803,-0.38804 H 426.75578 l -0.38803,-0.38803 0.38803,-0.38802 h 101.66387 l 0.38803,-0.38803 z m -350.39113,-3.49227 0.38802,0.38803 v 21.34165 l -0.38802,0.38803 -0.38803,-0.38803 v -21.34165 z m 239.80256,-1.16409 0.38804,0.38803 v 15.5212 l 0.38803,0.38803 -0.38803,0.38803 h -0.38804 l -0.38802,-0.38803 v -15.90923 z m -326.333265,0.77605 v -0.77605 l 0.776064,-0.77607 h 60.920721 l 0.38802,0.38803 -0.38802,0.38804 0.38802,-0.38804 0.38803,0.38804 v 0.38803 l -0.77605,0.77606 h -0.38804 l -0.38803,0.38803 h -45.01148 l -0.38803,0.38803 h -2.32818 l -0.38803,-0.38803 h -8.536664 l -0.388028,0.38803 h -1.164092 l -0.388028,-0.38803 h -1.552119 z m 436.533805,-5.43241 0.38803,0.38803 v 7.76059 l -0.38803,0.38803 -0.38803,-0.38803 v -7.76059 z m -436.921833,0.77605 v -0.38802 l 0.776055,-0.77607 0.388037,0.38804 h 2.328175 -2.328175 l -0.388037,-0.38804 0.388037,-0.38802 h 61.696771 l 1.16409,0.77606 v 0.38803 l -0.77606,0.77605 h -1.55212 l -0.38803,0.38804 H 92.661902 Z m 549.062523,-3.8803 0.38802,0.38804 v 11.25286 l -0.38802,0.38804 -0.38803,-0.38804 v -11.25286 z m -548.286468,-3.10424 0.776064,-0.77605 h 62.084814 l 0.38802,0.38802 v 0.38803 l -0.38802,0.38804 0.38802,-0.38804 0.38803,0.38804 v 0.38803 l -0.38803,0.38802 h -0.38802 l -1.1641,0.77607 H 93.437966 l -0.776064,-0.77607 z m 219.625018,-3.88029 0.38802,0.38803 v 30.65437 l -0.38802,0.38803 -0.38803,-0.38803 v -10.47681 l -0.38804,-0.38804 h -9.31272 l -0.38802,-0.38803 0.38802,-0.38802 h 9.70076 v -12.805 h -9.31273 l -0.38803,-0.38802 0.38803,-0.38803 h 9.31273 v -5.43242 z m 106.32022,-1.94016 0.38804,0.38803 v 10.86485 l -0.38804,0.38802 -0.38802,-0.38802 v -10.86485 z m -262.69634,1.55212 -1.16409,0.77607 h -20.95362 l -0.38803,-0.38803 H 94.214022 l -0.776056,-0.77607 0.776056,-0.77606 h 0.388036 l 0.388028,0.38804 h 0.776056 -0.776056 l -0.388028,-0.38804 0.388028,-0.38803 h 39.579064 l 0.38803,-0.38803 h 3.49227 l 0.38803,0.38803 h 8.92469 l 0.38803,-0.38803 h 5.43242 l 0.38804,0.38803 1.16408,0.38803 z m 110.9766,-5.432412 v 1.16408 l -0.38803,0.388042 h -0.77606 l -1.16409,1.16408 h -1.16409 l -0.38803,-0.38803 0.38803,-0.38803 h 0.77606 -0.77606 l -0.38803,0.38803 h -0.77606 l -0.77606,-0.77605 h -7.37257 l -0.77606,-0.776072 v -0.38803 l 0.38802,-0.38802 h 0.38804 l 0.38803,-0.38804 h 6.98454 l 1.16409,-1.16409 h 1.94015 l 0.77606,0.77606 h 0.38803 l 0.38803,0.38803 h 0.38803 z m 154.82398,-8.53666 h 0.77607 l 0.77606,0.77605 v 0.38803 l -0.38803,0.38804 v 0.38802 l -0.38803,0.38803 h -0.77607 l -0.77605,-0.77605 0.38803,-0.38804 -0.38803,-0.38803 z m -106.70825,0 h 0.77605 l 0.77607,0.77605 v 0.38803 l -0.38803,0.38804 v 0.38802 l -0.38804,0.38803 h -0.38803 l -0.77605,-0.77605 v -1.1641 z m 329.04947,-0.38804 h 0.38803 l 0.77607,0.77606 v 1.1641 l -0.77607,0.77605 h -0.38803 l -0.77606,-0.77605 v -1.1641 z m -112.14068,0 h 0.38803 l 0.77606,0.77606 v 1.1641 l -0.77606,0.77605 h -0.38803 l -0.77606,-0.77605 v -1.1641 z m 109.03645,-4.65636 0.38802,0.38803 v 10.08878 l -0.38802,0.38804 -0.38803,-0.38804 v -10.08878 z m -476.88893,0 0.38802,0.38803 v 5.43242 l -0.38802,0.38803 -0.38804,-0.38803 v -5.43242 z m 133.0943,-0.38803 0.77606,0.77606 -0.38803,0.38804 0.38803,0.77605 v 1.55212 l -0.38803,0.38804 0.38803,0.38803 -0.38803,1.16409 v 2.32817 l 0.38803,0.38804 -0.38803,3.10424 0.77606,1.16408 -0.77606,1.55213 v 1.16408 l 0.38803,0.388042 -0.38803,2.7162 0.38803,0.38804 v 1.94014 l 0.38803,0.38803 v 0.77607 l -0.77606,1.16409 v 3.88029 l 0.38803,0.38804 v 1.94015 l 0.38803,0.38802 v 1.16409 l -0.77606,1.55212 v 1.94015 l 0.38803,0.38804 -0.38803,1.16409 v 4.65636 l 0.38803,0.38803 -0.38803,3.10424 0.77606,0.38802 -0.77606,1.16409 v 3.88031 l 0.77606,1.16409 v 1.55212 l -0.38803,0.38803 0.38803,1.16409 -0.38803,0.38803 0.38803,0.38802 0.77606,-0.38802 V 124.5519 l -0.38802,-0.38803 0.38802,-0.38802 V 86.136928 h -1.16409 l -0.38803,-0.38802 0.38803,-0.38804 h 1.55212 l 0.38803,0.38804 v 38.026942 l 0.38804,0.38802 -0.38804,0.38803 v 13.96909 l 1.16409,1.16409 h 1.94016 l 0.77605,1.55212 v 1.94015 l -2.32818,1.16409 -1.55212,3.10424 v 4.26833 l -0.38803,0.38803 h -2.32818 l -0.38803,-0.38803 V 84.972838 Z m 351.94325,-0.77606 0.38804,-0.38803 h 9.31273 l 0.38798,0.38803 v 0.38804 h 5.43244 l 0.38806,0.38802 -0.38806,0.38803 h -5.82042 l -0.38806,-0.38803 v -0.38802 h -8.92467 z m -113.30477,0 0.38804,-0.38803 h 103.21599 l 0.38802,0.38803 -0.38802,0.38804 H 536.18026 Z m -215.35667,0 0.38803,-0.38803 H 416.667 l 0.38802,0.38803 -0.38802,0.38804 h -95.84342 z m 337.97415,-1.55212 v -0.77605 l 0.77604,-0.77607 h 6.20848 l 0.38806,0.38803 -0.38806,0.38804 h -5.82042 l -0.38806,0.38802 v 0.38803 l -0.38798,0.38804 z m -129.21399,-1.16409 v 3.10425 l -0.38803,0.38802 -0.38803,-0.38802 H 426.75578 l -0.38803,-0.38804 0.38803,-0.38803 h 101.66387 v -2.32818 l 0.38803,-0.38803 z m -227.3856,0 0.38802,-0.38803 h 5.04439 l 0.38804,0.38803 -0.38804,0.38804 h -5.04439 z m 116.79703,-1.94015 0.38804,0.38803 v 22.505742 l -0.38804,0.38803 -0.38802,-0.38803 V 79.540418 Z m -105.9322,-1.55212 v 8.14864 l -0.38802,0.38802 -0.38803,-0.38802 v -1.55212 h -3.49228 v 0.38802 l -0.38803,0.38803 h -3.8803 l -0.38803,-0.38803 0.38803,-0.38802 h 3.10424 l 0.38804,-0.38804 v -0.38803 l 0.38802,-0.38803 0.38803,0.38803 h 3.49228 v -5.82045 l 0.38803,-0.38803 z m 108.26039,-0.77605 0.38803,-0.38804 h 1.16409 l 0.77606,0.77606 v 0.38803 l -0.38803,0.38803 -0.38803,-0.38803 0.38803,0.38803 -0.38803,0.38804 h -0.77607 l -0.77605,-0.77607 z m -105.9322,-0.38804 h 0.77605 l 0.77607,0.77606 v 0.38803 l -0.77607,0.77607 h -0.77605 l -0.77607,-0.77607 v -0.38803 z m 329.04947,-0.38803 h 0.38803 l 1.16409,1.16409 -0.38802,0.38803 v 0.38803 l -0.38803,0.38804 h -0.77607 l -0.77606,-0.77607 v -0.77605 z m -111.75265,0 0.77606,0.77607 v 1.16408 l -0.38803,0.38804 h -0.77606 l -0.38803,-0.38804 0.38803,-0.38803 -0.38803,0.38803 -0.38803,-0.38803 v -0.77605 l 0.38803,-0.38804 h 0.38803 z m 115.24492,-2.71621 0.38804,0.38803 V 110.1948 h 16.29729 l 0.38798,0.38803 -0.38798,0.38802 h -16.29729 v 12.805 l 0.38803,0.38802 -0.38803,0.38803 v 10.47682 l -0.38804,0.38803 -0.38803,-0.38803 V 73.719968 Z m -6.5965,0 0.38802,0.38803 v 3.8803 l -0.38802,0.38803 -0.38803,-0.38803 v -3.8803 z m -105.93221,0.38803 0.38803,-0.38803 0.38803,0.38803 V 110.1948 H 640.56034 V 98.941918 l 0.38803,-0.38802 0.38802,0.38802 v 12.028932 l -0.38802,0.38803 -0.38803,-0.38803 H 535.79222 v 12.805 l 0.38804,0.38802 -0.38804,0.38803 v 10.86485 l -0.77606,0.38803 -0.38803,-0.38803 0.38803,-0.38803 z m -110.20053,0 0.38803,-0.38803 0.38803,0.38803 V 110.1948 h 102.82796 v -6.59652 l 0.38803,-0.38802 0.38803,0.38802 v 6.98455 l -0.38803,0.38802 H 425.59169 v 24.4459 l -0.77606,0.38803 -0.38804,-0.38803 0.38804,-0.38803 z m -6.20849,-0.38803 0.38804,0.38803 v 3.8803 l -0.38804,0.38803 -0.38802,-0.38803 v -3.8803 z m -100.49977,0.38803 0.38802,-0.38803 0.38803,0.38803 V 110.1948 h 98.55964 l 0.38803,0.38803 -0.38803,0.38802 h -98.55964 v 24.4459 l -0.77605,0.38803 -0.38803,-0.38803 0.38803,-0.38803 z m 211.08834,-0.77606 0.38803,0.38803 v 1.55212 l -0.38803,0.38803 v 3.10425 l -0.38803,0.38802 -0.38803,-0.38802 v -4.65637 z M 280.85648,45.781806 h 3.10424 l 0.38803,0.388028 h 2.32818 l 0.38804,0.388036 h 0.38802 l 1.55212,1.552119 v 0.776056 l 0.38803,0.388036 v 2.716203 l 0.38803,0.388036 v 4.268331 l -0.38803,0.388028 v 0.776056 l 0.38803,0.388036 -0.38803,0.388028 v 1.164091 l 0.38803,0.388028 v 12.02893 l -0.38803,0.38804 v 0.77605 l -1.16409,1.16409 -0.38803,-0.38803 0.38803,0.38803 -0.38803,0.38803 h -1.16409 l -0.38803,0.38803 h -5.82045 l -0.38803,-0.38803 h -0.38803 l -0.38803,-0.38803 h -0.38803 l -0.38803,-0.38803 v -0.38803 l -0.38803,-0.38803 v -0.38803 l -0.38803,-0.38802 V 70.2277 l -0.38803,-0.388028 v -0.776064 l 0.38803,-0.388028 V 48.498017 l 0.38803,-0.388028 v -0.388036 l 1.55212,-1.552119 h 0.77606 z m -72.94965,-2.328175 0.77606,0.776055 v 0.388028 l 0.38804,0.388036 v 31.430428 l -0.38804,0.38804 v 0.77605 l -0.38803,0.38803 h -0.38803 l -0.38802,0.38804 h -0.38804 l -1.94015,-1.94016 v -0.38803 l -1.55212,-1.55212 v -0.38803 l -1.55212,-1.55211 v -0.38804 l -1.55212,-1.55212 V 70.2277 l -3.10424,-3.104239 h -1.16409 l -0.77607,0.776055 v 0.776064 l 0.38804,0.388028 v 0.776064 l 0.38803,0.388028 v 0.388028 l 0.77605,1.164091 v 0.776069 l 0.38804,0.38802 v 0.38803 l 0.77606,1.16409 v 0.77606 l 0.77606,1.16409 v 0.77606 l -1.16409,1.1641 h -3.8803 l -0.38803,-0.38804 h -0.77607 l -0.77605,-0.77606 h -0.38803 l -1.16409,-1.16409 v -0.38803 l -0.38803,-0.38803 v -1.55212 l -0.38804,-0.38803 v -0.77605 l 0.38804,-0.38804 v -1.55212 l 0.38803,-0.388028 v -1.164092 l 0.38803,-0.388028 v -1.164092 l 0.38802,-0.388027 v -0.776064 l 0.38804,-0.388028 v -0.776056 l 0.38803,-0.388036 v -1.164092 l 0.38803,-0.388028 v -0.776055 l 0.38802,-0.388036 V 61.30301 l 0.38804,-0.388028 v -0.776064 l 0.38803,-0.388028 v -0.776064 l 0.38803,-0.388027 v -0.776064 l 0.38802,-0.388028 v -0.776056 l 0.38804,-0.388036 V 55.48256 l 0.38803,-0.388028 v -0.776064 l 0.38802,-0.388028 v -0.776064 l 0.38804,-0.388028 v -0.776064 l 0.38803,-0.388028 v -0.776055 l 0.38803,-0.388036 v -0.388028 l 0.38802,-0.388028 v -0.388028 l 0.38804,-0.388036 v -0.388028 l 1.16409,-1.164092 v -0.388027 l 0.77606,-0.776064 h 0.38803 l 0.77606,-0.776056 h 0.38803 l 1.16409,-0.776064 h 0.77606 l 0.38803,-0.388028 h 0.77606 l 0.38803,-0.388028 h 1.55213 l 0.38802,-0.388027 z m 4.65636,0.388027 1.55212,-1.552119 0.77607,-0.388036 h 3.10423 l 0.38803,-0.388028 h 4.26833 L 223.04,41.125447 h 5.0444 l 0.38802,-0.388028 h 8.53667 l 0.38802,-0.388036 h 11.25288 l 0.38802,0.388036 h 7.76061 l 0.38803,0.388028 h 1.94015 l 2.32818,1.164092 0.38803,0.388028 -0.38803,0.388027 0.38803,-0.388027 1.55212,1.552119 v 0.388028 l 0.77606,0.776064 v 1.164092 l 0.38803,0.388028 v 26.77407 l -0.38803,0.38803 v 1.16409 l -0.38803,0.77606 -1.55212,1.55212 -1.55212,0.77607 h -1.55212 l -0.38803,0.38802 h -44.23543 l -1.16408,-0.77606 0.77605,-0.38803 -1.16409,0.38803 -0.77606,-1.16408 V 44.617714 Z"
     fill="#000000"
     fill-rule="evenodd"
     id="path2"
     style="stroke-width:0.38803" />
</svg>
