<svg xmlns="http://www.w3.org/2000/svg" width="2172" height="724" viewBox="0 0 2172 724">
<rect width="100%" height="100%" fill="white"/>
<path d="M 970,403 L 970,404 L 969,405 L 968,405 L 968,409 L 969,410 L 968,411 L 968,416 L 969,417 L 968,418 L 972,418 L 972,407 L 971,406 L 971,404 Z" fill="black" fill-rule="evenodd"/>
<path d="M 256,475 L 266,487 L 342,486 L 367,473 L 385,442 L 404,430 L 367,480 L 360,552 L 370,580 L 399,616 L 457,642 L 504,639 L 549,616 L 581,575 L 588,511 L 600,499 L 630,515 L 933,513 L 928,486 L 1158,496 L 1371,527 L 1382,576 L 1411,614 L 1457,639 L 1511,641 L 1558,620 L 1582,596 L 1600,560 L 1604,525 L 1616,517 L 1615,502 L 1620,515 L 1656,539 L 1636,491 L 1662,482 L 1678,455 L 1840,458 L 1843,476 L 1854,479 L 1853,461 L 1870,442 L 1855,425 L 1841,430 L 1832,418 L 1832,389 L 1877,387 L 1881,418 L 1891,418 L 1893,389 L 1921,381 L 1914,363 L 1919,370 L 1921,253 L 1929,239 L 1921,234 L 1920,209 L 976,210 L 973,236 L 971,211 L 967,238 L 964,130 L 947,100 L 892,84 L 783,89 L 725,102 L 701,118 L 656,228 L 405,244 L 389,233 L 368,237 L 375,249 L 352,273 L 346,338 L 373,354 L 376,380 L 348,399 L 369,383 L 371,361 L 353,345 L 322,341 L 309,376 L 323,400 L 339,401 L 340,418 L 307,451 L 295,450 L 293,333 L 285,330 L 283,441 L 278,451 L 260,454 Z M 459,587 L 460,586 L 461,586 L 462,585 L 466,585 L 467,586 L 480,586 L 481,585 L 488,585 L 490,587 L 489,588 L 485,588 L 484,589 L 464,589 L 463,588 L 460,588 Z M 488,585 L 489,584 L 491,584 L 492,583 L 494,583 L 495,584 L 496,584 L 497,585 L 496,586 L 494,586 L 493,585 L 494,586 L 493,587 L 490,587 Z M 505,581 L 503,583 L 502,583 L 501,584 L 499,584 L 498,585 L 497,585 L 496,584 L 495,584 L 494,583 L 495,582 L 496,582 L 497,581 L 499,581 L 500,580 L 501,580 L 502,579 L 503,579 Z M 442,580 L 444,578 L 445,578 L 446,579 L 447,579 L 448,580 L 449,580 L 450,581 L 451,581 L 452,582 L 451,583 L 452,582 L 454,582 L 455,583 L 457,583 L 458,584 L 461,584 L 462,585 L 461,586 L 460,586 L 459,587 L 456,587 L 455,586 L 456,585 L 455,586 L 453,586 L 452,585 L 450,585 L 449,584 L 448,584 L 447,583 L 446,583 L 445,582 L 446,581 L 445,582 L 444,581 L 443,581 Z M 1523,578 L 1520,581 L 1519,581 L 1518,582 L 1517,582 L 1516,583 L 1515,583 L 1513,581 L 1514,580 L 1515,580 L 1516,579 L 1517,579 L 1518,578 L 1519,578 L 1520,577 L 1522,577 Z M 511,577 L 508,580 L 507,580 L 506,581 L 505,581 L 503,579 L 504,578 L 505,578 L 506,577 L 507,577 L 508,576 L 510,576 Z M 453,569 L 454,568 L 457,568 L 458,569 L 461,569 L 462,570 L 464,570 L 465,571 L 466,571 L 468,573 L 468,575 L 467,576 L 460,576 L 459,575 L 457,575 L 456,574 L 455,574 L 453,572 Z M 1466,568 L 1467,567 L 1468,567 L 1469,568 L 1471,568 L 1472,569 L 1473,569 L 1474,570 L 1475,570 L 1476,571 L 1477,571 L 1478,572 L 1478,574 L 1477,575 L 1476,575 L 1475,576 L 1474,576 L 1473,575 L 1471,575 L 1470,574 L 1471,573 L 1473,573 L 1471,573 L 1470,574 L 1469,574 L 1468,573 L 1467,573 L 1465,571 L 1466,570 Z M 487,574 L 487,573 L 488,572 L 489,573 L 490,573 L 489,573 L 488,572 L 488,571 L 490,569 L 491,569 L 492,568 L 493,568 L 494,567 L 497,567 L 498,568 L 501,568 L 502,569 L 499,572 L 498,572 L 497,573 L 495,573 L 494,572 L 493,572 L 494,572 L 495,573 L 494,574 L 492,574 L 491,575 L 488,575 Z M 1517,568 L 1514,571 L 1513,571 L 1512,572 L 1511,572 L 1510,573 L 1509,573 L 1508,574 L 1507,574 L 1506,575 L 1504,575 L 1503,574 L 1500,574 L 1502,574 L 1503,575 L 1502,576 L 1498,576 L 1497,575 L 1497,574 L 1496,573 L 1496,572 L 1497,571 L 1498,571 L 1499,570 L 1501,570 L 1502,569 L 1504,569 L 1505,568 L 1507,568 L 1508,567 L 1509,567 L 1510,566 L 1512,566 L 1513,565 L 1514,565 Z M 423,557 L 424,558 L 424,559 L 428,563 L 428,564 L 438,574 L 439,574 L 441,576 L 442,576 L 444,578 L 442,580 L 441,580 L 439,578 L 438,578 L 435,575 L 434,575 L 425,566 L 425,565 L 422,562 L 422,561 L 421,560 L 421,559 Z M 1488,552 L 1489,552 L 1492,555 L 1491,556 L 1491,557 L 1490,558 L 1487,558 L 1486,557 L 1486,554 Z M 472,553 L 473,552 L 475,552 L 477,554 L 477,557 L 476,558 L 473,558 L 471,556 L 471,555 L 472,554 Z M 531,550 L 532,551 L 532,552 L 531,553 L 531,555 L 529,557 L 529,558 L 528,559 L 528,560 L 525,563 L 524,562 L 524,561 L 525,560 L 525,559 L 526,558 L 526,557 L 527,556 L 527,555 L 528,554 L 528,553 L 529,552 L 529,551 L 530,550 Z M 1507,544 L 1509,544 L 1511,546 L 1511,549 L 1510,550 L 1507,550 L 1505,548 L 1505,546 Z M 1467,544 L 1470,544 L 1472,546 L 1472,548 L 1469,551 L 1468,551 L 1465,548 L 1465,546 Z M 493,544 L 495,544 L 497,546 L 497,548 L 495,550 L 493,550 L 491,548 L 491,546 Z M 453,544 L 456,544 L 458,546 L 458,548 L 455,551 L 454,551 L 451,548 L 451,546 Z M 1516,523 L 1518,523 L 1520,525 L 1520,528 L 1518,530 L 1517,530 L 1516,529 L 1515,529 L 1514,528 L 1514,525 Z M 1459,523 L 1461,523 L 1463,525 L 1463,528 L 1461,530 L 1459,530 L 1457,528 L 1457,525 Z M 503,523 L 504,523 L 506,525 L 506,528 L 504,530 L 503,530 L 502,529 L 501,529 L 500,528 L 500,525 L 501,524 L 502,524 Z M 445,523 L 447,523 L 449,525 L 449,528 L 447,530 L 445,530 L 443,528 L 443,525 Z M 1538,517 L 1539,518 L 1539,525 L 1540,526 L 1540,527 L 1539,528 L 1539,535 L 1538,536 L 1538,538 L 1537,539 L 1537,540 L 1536,541 L 1535,541 L 1532,538 L 1532,535 L 1533,534 L 1533,520 L 1534,519 L 1535,519 L 1537,517 Z M 1439,517 L 1440,518 L 1441,518 L 1443,520 L 1443,521 L 1444,522 L 1444,525 L 1443,526 L 1443,528 L 1444,529 L 1444,538 L 1442,540 L 1441,540 L 1440,541 L 1438,539 L 1438,536 L 1437,535 L 1437,528 L 1436,527 L 1436,526 L 1437,525 L 1437,519 Z M 524,517 L 525,518 L 525,519 L 526,520 L 526,534 L 525,535 L 525,538 L 524,539 L 524,540 L 522,542 L 520,540 L 519,540 L 518,539 L 518,537 L 519,536 L 519,527 L 520,526 L 520,520 L 521,519 L 522,519 Z M 425,517 L 428,520 L 428,522 L 429,523 L 429,538 L 427,540 L 424,537 L 424,534 L 423,533 L 423,521 L 424,520 L 424,518 Z M 1486,508 L 1490,508 L 1491,509 L 1490,510 L 1487,510 L 1491,510 L 1492,509 L 1494,509 L 1495,510 L 1496,510 L 1497,511 L 1498,511 L 1500,513 L 1501,513 L 1503,515 L 1503,516 L 1505,518 L 1505,520 L 1506,521 L 1506,523 L 1507,524 L 1507,530 L 1506,531 L 1506,533 L 1505,534 L 1505,535 L 1504,536 L 1503,535 L 1504,536 L 1504,537 L 1499,542 L 1498,542 L 1497,543 L 1496,543 L 1495,544 L 1493,544 L 1492,545 L 1484,545 L 1483,544 L 1481,544 L 1480,543 L 1479,543 L 1471,535 L 1471,533 L 1470,532 L 1470,521 L 1471,520 L 1471,519 L 1472,518 L 1472,517 L 1478,511 L 1479,511 L 1480,510 L 1481,510 L 1482,509 L 1485,509 Z M 472,508 L 477,508 L 478,509 L 480,509 L 481,510 L 482,510 L 483,511 L 482,512 L 483,511 L 484,511 L 486,513 L 487,513 L 489,515 L 489,516 L 491,518 L 491,520 L 492,521 L 492,523 L 493,524 L 493,530 L 492,531 L 492,533 L 491,534 L 491,535 L 490,536 L 490,537 L 485,542 L 484,542 L 482,544 L 480,544 L 479,545 L 470,545 L 469,544 L 467,544 L 466,543 L 465,543 L 458,536 L 458,535 L 457,534 L 457,532 L 456,531 L 456,522 L 457,521 L 457,519 L 458,518 L 458,517 L 464,511 L 465,511 L 466,510 L 467,510 L 468,511 L 470,511 L 468,511 L 467,510 L 468,509 L 471,509 L 472,510 L 476,510 L 472,510 L 471,509 Z M 1505,507 L 1505,505 L 1506,504 L 1507,505 L 1506,504 L 1507,503 L 1510,503 L 1511,504 L 1511,505 L 1512,506 L 1509,509 L 1507,509 Z M 491,504 L 492,503 L 495,503 L 497,505 L 497,507 L 495,509 L 493,509 L 491,507 Z M 453,503 L 456,503 L 457,504 L 457,507 L 455,509 L 453,509 L 451,507 L 451,505 Z M 1468,502 L 1469,502 L 1472,505 L 1472,506 L 1469,509 L 1468,509 L 1467,508 L 1466,508 L 1465,507 L 1465,504 L 1466,503 L 1467,503 Z M 418,499 L 420,501 L 420,503 L 419,504 L 419,505 L 418,506 L 418,508 L 417,509 L 417,511 L 416,512 L 416,516 L 415,517 L 415,536 L 416,537 L 416,540 L 417,541 L 417,544 L 418,545 L 418,547 L 419,548 L 419,549 L 420,550 L 420,552 L 421,553 L 421,554 L 423,556 L 423,557 L 421,559 L 419,557 L 419,556 L 418,555 L 418,554 L 417,553 L 417,552 L 416,551 L 416,549 L 415,548 L 415,546 L 414,545 L 414,544 L 413,543 L 413,540 L 412,539 L 412,534 L 411,533 L 411,519 L 412,518 L 412,514 L 413,513 L 413,510 L 414,509 L 414,507 L 415,506 L 415,504 L 416,503 L 416,502 L 417,501 L 418,502 L 417,501 L 417,500 Z M 1543,496 L 1544,497 L 1544,498 L 1545,499 L 1545,500 L 1546,501 L 1546,502 L 1547,503 L 1547,505 L 1548,506 L 1548,508 L 1549,509 L 1549,511 L 1550,512 L 1550,516 L 1551,517 L 1551,534 L 1550,535 L 1550,539 L 1549,540 L 1549,543 L 1548,544 L 1548,546 L 1547,547 L 1547,549 L 1546,550 L 1546,551 L 1545,552 L 1545,553 L 1544,554 L 1544,555 L 1543,556 L 1543,557 L 1542,558 L 1542,559 L 1540,561 L 1539,560 L 1539,559 L 1540,558 L 1540,557 L 1541,556 L 1541,554 L 1542,553 L 1542,552 L 1543,551 L 1543,550 L 1544,549 L 1544,547 L 1545,546 L 1545,544 L 1546,543 L 1546,540 L 1547,539 L 1547,534 L 1548,533 L 1548,521 L 1547,520 L 1547,514 L 1546,513 L 1546,510 L 1545,509 L 1545,507 L 1544,506 L 1544,504 L 1543,503 L 1543,502 L 1542,501 L 1542,500 L 1541,499 L 1541,498 Z M 1486,496 L 1487,495 L 1490,495 L 1491,496 L 1490,497 L 1488,497 L 1489,497 L 1490,498 L 1490,497 L 1491,496 L 1492,497 L 1492,499 L 1491,500 L 1490,500 L 1489,501 L 1488,501 L 1486,499 Z M 471,498 L 472,497 L 472,496 L 473,495 L 476,495 L 477,496 L 477,497 L 478,498 L 475,501 L 474,501 Z M 509,495 L 510,494 L 513,494 L 513,493 L 514,492 L 516,494 L 516,495 L 517,496 L 517,497 L 516,498 L 512,498 Z M 506,490 L 507,489 L 507,488 L 508,487 L 510,489 L 511,489 L 514,492 L 513,493 L 511,493 L 509,495 L 506,492 Z M 1607,484 L 1608,485 L 1608,486 L 1609,487 L 1609,488 L 1610,489 L 1610,490 L 1611,491 L 1611,492 L 1612,493 L 1612,494 L 1613,495 L 1613,496 L 1612,497 L 1611,496 L 1610,496 L 1609,497 L 1608,497 L 1607,496 L 1607,495 L 1606,494 L 1606,485 Z M 1238,485 L 1239,484 L 1247,484 L 1248,483 L 1258,483 L 1260,485 L 1266,485 L 1267,484 L 1268,484 L 1269,483 L 1273,483 L 1269,483 L 1268,482 L 1269,481 L 1277,481 L 1279,483 L 1281,483 L 1282,484 L 1284,484 L 1285,485 L 1288,485 L 1289,486 L 1293,486 L 1296,489 L 1299,489 L 1300,488 L 1301,488 L 1302,489 L 1304,489 L 1305,490 L 1307,490 L 1308,489 L 1309,489 L 1310,490 L 1312,490 L 1313,491 L 1315,491 L 1316,492 L 1315,493 L 1316,492 L 1318,492 L 1319,493 L 1321,493 L 1322,494 L 1324,494 L 1325,495 L 1328,495 L 1329,496 L 1330,496 L 1331,497 L 1330,498 L 1331,497 L 1333,497 L 1334,498 L 1336,498 L 1337,499 L 1339,499 L 1340,500 L 1339,501 L 1336,501 L 1335,500 L 1328,500 L 1327,499 L 1322,499 L 1321,498 L 1316,498 L 1315,497 L 1308,497 L 1307,496 L 1303,496 L 1302,495 L 1296,495 L 1295,494 L 1290,494 L 1289,493 L 1283,493 L 1282,492 L 1276,492 L 1275,491 L 1269,491 L 1268,490 L 1262,490 L 1261,489 L 1255,489 L 1254,488 L 1247,488 L 1246,487 L 1239,487 L 1238,486 Z M 1527,477 L 1528,478 L 1529,478 L 1536,485 L 1536,486 L 1540,490 L 1540,491 L 1542,493 L 1542,494 L 1543,495 L 1543,496 L 1541,498 L 1540,497 L 1540,496 L 1538,494 L 1538,493 L 1536,491 L 1536,490 L 1525,479 Z M 1449,477 L 1450,477 L 1451,476 L 1453,478 L 1451,480 L 1450,480 L 1444,486 L 1444,487 L 1440,491 L 1439,494 L 1435,499 L 1435,500 L 1433,503 L 1433,505 L 1432,506 L 1432,508 L 1431,509 L 1431,511 L 1430,512 L 1430,516 L 1429,517 L 1429,522 L 1428,523 L 1428,526 L 1429,527 L 1429,536 L 1430,537 L 1430,540 L 1431,541 L 1431,544 L 1432,545 L 1432,547 L 1433,548 L 1433,549 L 1434,550 L 1434,551 L 1435,552 L 1437,557 L 1439,559 L 1439,560 L 1443,564 L 1443,565 L 1452,574 L 1453,574 L 1458,578 L 1463,580 L 1464,581 L 1463,582 L 1464,581 L 1466,581 L 1469,583 L 1471,583 L 1472,584 L 1474,584 L 1475,585 L 1480,585 L 1481,586 L 1495,586 L 1496,585 L 1502,585 L 1503,584 L 1505,584 L 1506,583 L 1508,583 L 1511,581 L 1513,581 L 1515,583 L 1514,584 L 1513,584 L 1510,586 L 1508,586 L 1507,587 L 1504,587 L 1503,588 L 1498,588 L 1497,589 L 1479,589 L 1478,588 L 1474,588 L 1473,587 L 1470,587 L 1469,586 L 1467,586 L 1464,584 L 1462,584 L 1461,583 L 1460,583 L 1458,581 L 1457,581 L 1456,580 L 1455,580 L 1453,578 L 1452,578 L 1448,574 L 1447,574 L 1439,566 L 1439,565 L 1436,562 L 1436,561 L 1432,556 L 1432,554 L 1429,549 L 1429,547 L 1428,546 L 1428,544 L 1427,543 L 1427,541 L 1426,540 L 1426,536 L 1425,535 L 1425,518 L 1426,517 L 1426,513 L 1427,512 L 1427,509 L 1428,508 L 1428,506 L 1430,503 L 1430,501 L 1432,499 L 1432,497 L 1434,495 L 1435,492 L 1438,489 L 1438,488 L 1439,487 L 1440,488 L 1439,487 Z M 1477,478 L 1478,477 L 1479,477 L 1480,476 L 1481,476 L 1482,475 L 1495,475 L 1496,476 L 1498,476 L 1499,477 L 1499,480 L 1497,482 L 1481,482 Z M 463,478 L 465,476 L 467,476 L 468,475 L 480,475 L 481,476 L 483,476 L 484,477 L 484,478 L 483,479 L 483,480 L 482,481 L 479,481 L 478,482 L 466,482 L 464,480 L 464,479 Z M 1375,474 L 1378,477 L 1379,477 L 1381,479 L 1381,481 L 1383,483 L 1383,484 L 1382,485 L 1382,487 L 1381,488 L 1381,489 L 1380,490 L 1379,490 L 1378,491 L 1377,491 L 1377,493 L 1376,494 L 1376,496 L 1375,497 L 1375,499 L 1374,500 L 1371,500 L 1370,499 L 1366,499 L 1365,498 L 1363,498 L 1361,496 L 1366,491 L 1366,490 L 1368,488 L 1368,487 L 1369,486 L 1369,485 L 1370,484 L 1370,482 L 1371,481 L 1371,480 L 1372,479 L 1372,478 L 1373,477 L 1373,476 Z M 445,471 L 447,473 L 446,474 L 445,474 L 444,475 L 443,475 L 441,477 L 440,477 L 437,480 L 436,480 L 429,487 L 429,488 L 426,491 L 426,492 L 425,493 L 424,492 L 425,493 L 424,494 L 424,495 L 423,496 L 423,497 L 421,499 L 421,500 L 420,501 L 418,499 L 418,498 L 419,497 L 419,496 L 420,495 L 420,494 L 422,492 L 422,491 L 424,489 L 424,488 L 436,476 L 437,476 L 439,474 L 440,474 L 442,472 L 443,472 L 444,471 Z M 1352,470 L 1352,472 L 1351,473 L 1351,475 L 1350,476 L 1350,479 L 1349,480 L 1349,483 L 1348,484 L 1348,490 L 1347,491 L 1347,493 L 1346,494 L 1344,494 L 1343,493 L 1340,493 L 1339,492 L 1337,492 L 1336,491 L 1334,491 L 1333,490 L 1330,490 L 1329,489 L 1327,489 L 1326,488 L 1324,488 L 1323,487 L 1321,487 L 1320,486 L 1317,486 L 1316,485 L 1314,485 L 1312,483 L 1313,482 L 1314,482 L 1314,481 L 1315,480 L 1315,479 L 1314,478 L 1314,477 L 1313,476 L 1311,476 L 1310,475 L 1311,474 L 1317,474 L 1318,473 L 1324,473 L 1325,472 L 1332,472 L 1333,471 L 1338,471 L 1339,470 L 1345,470 L 1346,469 L 1351,469 Z M 1595,467 L 1596,467 L 1597,466 L 1599,468 L 1599,469 L 1600,470 L 1600,471 L 1601,472 L 1601,473 L 1603,475 L 1603,476 L 1604,477 L 1604,478 L 1605,479 L 1605,480 L 1606,481 L 1606,482 L 1605,483 L 1602,483 L 1601,484 L 1598,484 L 1597,483 L 1597,482 L 1595,480 L 1595,478 L 1594,477 L 1594,476 L 1592,474 L 1592,473 L 1591,472 L 1591,471 L 1592,470 L 1593,471 L 1594,470 L 1595,471 L 1596,471 L 1596,470 L 1597,469 L 1595,469 L 1594,468 Z M 1457,472 L 1458,471 L 1459,471 L 1460,470 L 1461,470 L 1462,469 L 1463,469 L 1464,468 L 1467,468 L 1468,467 L 1470,467 L 1471,466 L 1473,466 L 1474,465 L 1478,465 L 1479,464 L 1486,464 L 1487,463 L 1490,463 L 1491,464 L 1499,464 L 1500,465 L 1504,465 L 1505,466 L 1507,466 L 1508,467 L 1510,467 L 1511,468 L 1512,468 L 1513,469 L 1515,469 L 1516,470 L 1517,470 L 1519,472 L 1520,472 L 1521,473 L 1522,473 L 1524,475 L 1525,475 L 1526,476 L 1524,478 L 1523,478 L 1521,476 L 1520,476 L 1519,475 L 1518,475 L 1516,473 L 1515,473 L 1514,472 L 1513,472 L 1512,471 L 1510,471 L 1509,470 L 1507,470 L 1506,469 L 1504,469 L 1503,468 L 1499,468 L 1498,467 L 1477,467 L 1476,468 L 1473,468 L 1472,469 L 1470,469 L 1469,470 L 1468,470 L 1467,471 L 1465,471 L 1464,472 L 1463,472 L 1462,473 L 1461,473 L 1460,474 L 1459,474 Z M 447,470 L 450,468 L 452,468 L 453,467 L 455,467 L 456,466 L 459,466 L 460,465 L 464,465 L 465,464 L 471,464 L 472,463 L 478,463 L 479,464 L 485,464 L 486,465 L 489,465 L 490,466 L 493,466 L 494,467 L 496,467 L 499,469 L 501,469 L 502,470 L 503,470 L 505,472 L 508,473 L 510,475 L 511,475 L 513,477 L 514,477 L 524,487 L 524,488 L 527,491 L 527,492 L 529,494 L 529,495 L 530,496 L 530,497 L 531,498 L 531,499 L 532,500 L 532,501 L 534,504 L 534,506 L 535,507 L 535,509 L 536,510 L 536,513 L 537,514 L 537,521 L 538,522 L 538,530 L 537,531 L 537,537 L 536,538 L 536,542 L 535,543 L 535,545 L 534,546 L 534,548 L 533,549 L 533,550 L 532,551 L 530,549 L 530,548 L 531,547 L 531,545 L 532,544 L 532,541 L 533,540 L 533,536 L 534,535 L 534,518 L 533,517 L 533,513 L 532,512 L 532,510 L 531,509 L 531,506 L 529,503 L 529,501 L 528,500 L 527,497 L 525,495 L 525,494 L 523,492 L 523,491 L 510,478 L 509,478 L 506,475 L 505,475 L 504,474 L 503,474 L 502,473 L 501,473 L 498,471 L 496,471 L 495,470 L 493,470 L 492,469 L 490,469 L 489,468 L 484,468 L 483,467 L 463,467 L 462,468 L 459,468 L 458,469 L 456,469 L 455,470 L 453,470 L 450,472 L 449,472 Z M 1622,456 L 1623,455 L 1629,455 L 1630,456 L 1630,457 L 1629,458 L 1629,463 L 1630,464 L 1635,464 L 1636,463 L 1637,464 L 1637,466 L 1638,467 L 1638,469 L 1640,471 L 1641,471 L 1642,472 L 1643,472 L 1644,473 L 1644,474 L 1642,476 L 1641,476 L 1640,477 L 1637,477 L 1636,478 L 1634,478 L 1633,479 L 1632,479 L 1631,478 L 1631,477 L 1630,476 L 1630,474 L 1629,473 L 1629,471 L 1628,470 L 1628,468 L 1627,467 L 1627,466 L 1626,465 L 1626,463 L 1625,462 L 1625,461 L 1624,460 L 1624,459 L 1623,458 L 1623,457 Z M 1846,440 L 1847,439 L 1848,440 L 1847,439 L 1848,438 L 1857,438 L 1858,439 L 1859,439 L 1860,440 L 1860,441 L 1861,442 L 1861,444 L 1860,445 L 1860,446 L 1858,448 L 1847,448 L 1846,447 Z M 1565,438 L 1566,437 L 1571,442 L 1570,443 L 1570,444 L 1570,443 L 1571,442 L 1572,442 L 1575,445 L 1574,446 L 1573,446 L 1572,445 L 1571,446 L 1569,446 L 1567,444 L 1567,443 L 1566,443 L 1564,441 L 1565,440 Z M 546,431 L 547,431 L 550,434 L 551,434 L 554,437 L 555,437 L 557,439 L 558,439 L 559,440 L 560,440 L 571,451 L 571,452 L 574,455 L 574,456 L 577,459 L 577,460 L 579,462 L 579,463 L 580,464 L 580,465 L 582,467 L 582,468 L 581,469 L 582,468 L 584,470 L 584,471 L 585,472 L 585,473 L 586,474 L 586,475 L 585,476 L 582,476 L 583,477 L 583,478 L 584,477 L 585,477 L 585,476 L 586,475 L 588,477 L 588,478 L 589,479 L 589,480 L 590,481 L 590,482 L 591,483 L 591,484 L 590,485 L 591,484 L 592,485 L 592,486 L 593,487 L 593,488 L 594,489 L 594,490 L 595,491 L 595,492 L 596,493 L 595,494 L 586,494 L 585,493 L 585,491 L 584,490 L 583,490 L 582,489 L 582,488 L 581,487 L 581,485 L 580,484 L 580,483 L 581,482 L 581,478 L 580,477 L 580,476 L 579,475 L 579,474 L 578,473 L 578,472 L 577,471 L 577,470 L 575,468 L 573,468 L 570,465 L 570,464 L 569,463 L 569,461 L 570,460 L 570,458 L 569,457 L 569,456 L 566,453 L 566,452 L 559,445 L 560,444 L 559,443 L 559,442 L 557,444 L 556,444 L 555,445 L 551,441 L 552,440 L 552,439 L 545,432 Z M 1547,425 L 1548,424 L 1549,424 L 1551,426 L 1552,426 L 1554,428 L 1553,429 L 1552,429 L 1551,430 L 1550,430 L 1547,427 L 1548,426 Z M 420,422 L 418,424 L 417,424 L 416,425 L 416,427 L 415,428 L 414,427 L 415,428 L 414,429 L 413,429 L 412,428 L 411,429 L 409,429 L 408,430 L 407,430 L 406,429 L 409,426 L 410,426 L 412,424 L 413,424 L 414,423 L 415,423 L 416,422 L 417,422 L 418,421 L 419,421 Z M 510,414 L 511,413 L 515,413 L 516,414 L 517,414 L 518,415 L 520,415 L 521,416 L 522,416 L 523,417 L 524,417 L 525,418 L 526,418 L 527,419 L 529,419 L 530,420 L 531,420 L 533,422 L 534,422 L 535,423 L 536,423 L 538,425 L 539,425 L 541,427 L 542,427 L 546,431 L 545,432 L 544,432 L 543,431 L 541,431 L 540,430 L 541,431 L 540,432 L 539,432 L 537,430 L 536,430 L 534,428 L 535,427 L 538,427 L 535,427 L 534,426 L 534,425 L 533,424 L 532,424 L 531,423 L 530,423 L 529,422 L 528,422 L 527,421 L 526,421 L 525,420 L 522,420 L 521,421 L 520,421 L 519,420 L 517,420 L 516,419 L 515,419 L 513,417 L 513,416 L 512,415 L 511,415 Z M 619,410 L 620,409 L 621,410 L 621,413 L 626,418 L 627,418 L 649,440 L 649,441 L 662,454 L 662,424 L 663,423 L 664,424 L 664,457 L 665,457 L 684,476 L 685,476 L 688,479 L 689,479 L 691,481 L 692,481 L 693,482 L 694,482 L 696,484 L 697,484 L 698,485 L 697,486 L 693,486 L 691,488 L 688,488 L 687,487 L 686,487 L 685,486 L 684,486 L 683,485 L 682,485 L 679,482 L 678,482 L 672,476 L 671,476 L 666,471 L 666,470 L 656,460 L 656,459 L 644,447 L 644,446 L 640,442 L 641,441 L 640,442 L 619,421 L 620,420 L 619,421 L 615,417 L 616,416 L 617,416 L 618,415 L 619,415 L 618,415 L 617,414 L 618,413 L 619,413 Z M 357,407 L 359,409 L 360,409 L 361,410 L 359,412 L 359,413 L 357,415 L 357,416 L 354,419 L 354,420 L 353,421 L 353,422 L 351,424 L 351,425 L 349,427 L 349,428 L 348,429 L 348,430 L 347,431 L 347,432 L 346,433 L 346,434 L 345,435 L 345,436 L 344,437 L 344,438 L 343,439 L 343,440 L 342,441 L 342,443 L 341,444 L 341,445 L 340,446 L 340,447 L 339,448 L 339,450 L 338,451 L 338,454 L 337,455 L 337,458 L 336,459 L 336,461 L 335,462 L 334,462 L 333,461 L 333,457 L 332,456 L 332,455 L 331,454 L 331,453 L 330,452 L 331,451 L 332,451 L 333,450 L 333,449 L 334,448 L 334,447 L 335,446 L 335,444 L 336,443 L 336,441 L 337,440 L 337,439 L 338,438 L 338,436 L 339,435 L 339,434 L 341,432 L 341,431 L 342,430 L 342,429 L 343,428 L 343,427 L 344,426 L 344,425 L 345,424 L 345,423 L 347,421 L 347,420 L 349,418 L 349,417 L 352,414 L 352,413 L 354,411 L 354,410 Z M 1585,405 L 1586,405 L 1587,404 L 1588,404 L 1589,403 L 1591,405 L 1592,405 L 1598,411 L 1598,412 L 1604,418 L 1603,419 L 1602,419 L 1602,421 L 1603,421 L 1604,422 L 1604,423 L 1607,426 L 1607,427 L 1609,429 L 1609,430 L 1608,431 L 1604,427 L 1604,426 L 1599,421 L 1599,420 L 1597,418 L 1599,416 L 1598,417 L 1596,415 L 1595,416 L 1592,413 L 1593,412 L 1596,412 L 1593,412 L 1592,413 L 1588,409 L 1589,408 L 1592,408 L 1591,407 L 1590,408 L 1589,408 L 1588,407 L 1587,408 L 1586,407 L 1585,407 L 1584,406 Z M 1520,406 L 1519,407 L 1478,407 L 1477,408 L 1471,408 L 1470,409 L 1465,409 L 1464,410 L 1460,410 L 1459,411 L 1454,412 L 1451,414 L 1449,414 L 1446,416 L 1446,417 L 1447,417 L 1448,418 L 1443,421 L 1441,419 L 1438,419 L 1437,420 L 1434,421 L 1431,424 L 1430,424 L 1430,427 L 1426,431 L 1425,431 L 1424,432 L 1422,430 L 1421,430 L 1420,431 L 1419,431 L 1416,434 L 1415,434 L 1411,438 L 1411,442 L 1407,446 L 1405,446 L 1404,445 L 1398,451 L 1397,450 L 1397,449 L 1394,449 L 1394,450 L 1397,450 L 1398,451 L 1392,460 L 1394,462 L 1394,463 L 1393,464 L 1393,465 L 1390,468 L 1389,468 L 1386,470 L 1386,471 L 1384,473 L 1384,474 L 1381,479 L 1380,478 L 1380,476 L 1379,475 L 1378,475 L 1377,476 L 1375,474 L 1375,473 L 1378,469 L 1378,468 L 1379,467 L 1380,468 L 1381,467 L 1380,466 L 1381,465 L 1382,462 L 1386,457 L 1386,456 L 1387,455 L 1388,456 L 1392,456 L 1393,455 L 1391,455 L 1390,454 L 1389,455 L 1388,454 L 1388,453 L 1396,444 L 1397,445 L 1398,444 L 1397,443 L 1398,442 L 1398,441 L 1402,437 L 1403,437 L 1405,435 L 1406,436 L 1405,435 L 1415,426 L 1416,426 L 1424,420 L 1431,417 L 1433,415 L 1434,415 L 1441,411 L 1443,411 L 1446,409 L 1448,409 L 1449,408 L 1451,408 L 1452,407 L 1454,407 L 1455,406 L 1458,406 L 1459,405 L 1462,405 L 1463,404 L 1468,404 L 1469,403 L 1475,403 L 1476,402 L 1501,402 L 1502,403 L 1508,403 L 1509,404 L 1514,404 L 1515,405 L 1519,405 Z M 902,395 L 903,486 L 904,487 L 904,491 L 911,491 L 912,492 L 911,493 L 698,493 L 697,492 L 697,486 L 698,485 L 700,486 L 900,486 L 901,485 L 901,460 L 900,459 L 900,454 L 901,453 L 900,452 L 900,395 L 901,394 Z M 1627,396 L 1628,395 L 1628,394 L 1629,393 L 1629,388 L 1630,387 L 1703,387 L 1704,388 L 1710,388 L 1711,387 L 1730,387 L 1731,388 L 1732,387 L 1733,388 L 1733,418 L 1732,419 L 1681,419 L 1680,418 L 1679,418 L 1677,416 L 1677,410 L 1676,409 L 1676,405 L 1674,403 L 1674,402 L 1673,401 L 1672,401 L 1670,399 L 1668,399 L 1667,398 L 1628,398 L 1627,397 Z M 1571,389 L 1572,388 L 1573,388 L 1574,387 L 1609,387 L 1610,388 L 1614,388 L 1615,387 L 1617,389 L 1616,390 L 1617,391 L 1617,394 L 1619,396 L 1619,397 L 1618,398 L 1592,398 L 1591,399 L 1586,399 L 1586,400 L 1589,403 L 1588,404 L 1584,404 L 1583,405 L 1580,402 L 1581,401 L 1580,400 L 1581,399 L 1582,399 L 1582,398 L 1581,397 L 1581,396 L 1580,395 L 1581,394 L 1580,393 L 1579,394 L 1578,394 L 1575,391 L 1574,391 L 1573,390 L 1572,390 Z M 1265,397 L 1265,395 L 1267,393 L 1267,389 L 1268,388 L 1285,388 L 1286,387 L 1400,387 L 1401,388 L 1407,388 L 1408,389 L 1407,390 L 1406,390 L 1404,392 L 1403,392 L 1396,399 L 1396,400 L 1390,406 L 1390,407 L 1388,409 L 1388,410 L 1382,416 L 1382,417 L 1380,419 L 1380,420 L 1379,421 L 1378,420 L 1378,419 L 1317,419 L 1315,416 L 1315,408 L 1314,407 L 1314,404 L 1310,400 L 1309,400 L 1308,399 L 1306,399 L 1305,398 L 1266,398 Z M 1032,395 L 1034,393 L 1034,388 L 1035,387 L 1036,388 L 1036,391 L 1036,389 L 1037,388 L 1052,388 L 1053,387 L 1079,387 L 1080,388 L 1101,388 L 1102,387 L 1186,387 L 1187,388 L 1200,388 L 1201,387 L 1208,387 L 1209,388 L 1211,387 L 1213,388 L 1219,388 L 1220,387 L 1254,387 L 1256,389 L 1256,393 L 1258,395 L 1258,397 L 1257,398 L 1217,398 L 1213,400 L 1209,404 L 1209,406 L 1208,407 L 1208,419 L 1207,420 L 1082,420 L 1081,419 L 1081,405 L 1076,399 L 1070,398 L 1069,397 L 1053,397 L 1052,398 L 1042,398 L 1041,397 L 1040,398 L 1035,398 L 1033,397 Z M 999,388 L 1000,387 L 1001,388 L 1002,387 L 1021,387 L 1022,388 L 1022,393 L 1024,395 L 1024,396 L 1023,397 L 1006,397 L 1005,396 L 1004,396 L 1005,396 L 1006,397 L 1005,398 L 1000,398 L 999,397 Z M 388,380 L 391,383 L 389,385 L 388,385 L 387,386 L 386,385 L 383,385 L 386,385 L 387,386 L 386,387 L 385,387 L 383,389 L 382,388 L 379,388 L 382,388 L 383,389 L 381,391 L 380,391 L 379,392 L 377,390 L 377,389 L 376,388 L 379,385 L 380,385 L 383,382 L 384,382 L 386,380 Z M 1861,363 L 1862,363 L 1865,366 L 1865,367 L 1862,370 L 1861,370 L 1859,368 L 1859,365 Z M 1572,363 L 1573,363 L 1576,366 L 1575,367 L 1575,368 L 1573,370 L 1572,370 L 1570,368 L 1570,365 Z M 1416,384 L 1421,380 L 1422,380 L 1423,379 L 1425,379 L 1426,378 L 1427,378 L 1430,376 L 1432,376 L 1435,374 L 1437,374 L 1438,373 L 1439,373 L 1442,371 L 1444,371 L 1445,370 L 1448,370 L 1449,369 L 1452,369 L 1453,368 L 1455,368 L 1456,367 L 1460,367 L 1461,366 L 1466,366 L 1467,365 L 1472,365 L 1473,364 L 1482,364 L 1483,363 L 1494,363 L 1495,364 L 1505,364 L 1506,365 L 1511,365 L 1512,366 L 1517,366 L 1518,367 L 1522,367 L 1523,368 L 1526,368 L 1527,369 L 1529,369 L 1530,370 L 1532,370 L 1533,371 L 1535,371 L 1536,372 L 1538,372 L 1539,373 L 1541,373 L 1542,374 L 1544,374 L 1545,375 L 1546,375 L 1547,376 L 1548,376 L 1549,377 L 1550,377 L 1551,378 L 1552,378 L 1553,379 L 1554,379 L 1555,380 L 1558,381 L 1563,385 L 1562,386 L 1560,386 L 1558,388 L 1557,388 L 1556,387 L 1555,387 L 1554,386 L 1553,386 L 1550,384 L 1548,384 L 1547,383 L 1546,383 L 1545,382 L 1543,382 L 1540,380 L 1538,380 L 1537,379 L 1534,379 L 1533,378 L 1531,378 L 1530,377 L 1528,377 L 1527,376 L 1524,376 L 1523,375 L 1519,375 L 1518,374 L 1514,374 L 1513,373 L 1507,373 L 1506,372 L 1500,372 L 1499,371 L 1480,371 L 1479,372 L 1470,372 L 1469,373 L 1463,373 L 1462,374 L 1459,374 L 1458,375 L 1454,375 L 1453,376 L 1451,376 L 1450,377 L 1447,377 L 1446,378 L 1444,378 L 1443,379 L 1441,379 L 1440,380 L 1438,380 L 1435,382 L 1433,382 L 1430,384 L 1429,383 L 1425,383 L 1424,384 L 1420,384 L 1419,385 L 1417,385 Z M 1288,363 L 1290,363 L 1291,364 L 1291,365 L 1292,366 L 1292,367 L 1291,368 L 1290,367 L 1291,368 L 1289,370 L 1288,369 L 1287,369 L 1286,368 L 1286,365 Z M 1013,363 L 1014,363 L 1017,366 L 1017,367 L 1015,369 L 1013,369 L 1011,367 L 1011,365 Z M 320,353 L 321,354 L 321,355 L 322,356 L 322,364 L 321,365 L 321,367 L 322,368 L 322,384 L 320,386 L 319,385 L 319,384 L 318,383 L 318,380 L 317,379 L 317,375 L 316,374 L 316,367 L 317,366 L 317,359 L 318,358 L 318,356 L 319,355 L 319,354 Z M 396,374 L 398,372 L 405,369 L 409,366 L 411,366 L 415,364 L 417,362 L 422,361 L 425,359 L 427,359 L 431,357 L 434,357 L 435,356 L 438,356 L 439,355 L 442,355 L 443,354 L 447,354 L 448,353 L 453,353 L 454,352 L 459,352 L 460,351 L 469,351 L 470,350 L 486,350 L 487,351 L 497,351 L 498,352 L 503,352 L 504,353 L 510,353 L 511,354 L 515,354 L 516,355 L 519,355 L 520,356 L 527,357 L 528,358 L 530,358 L 531,359 L 539,361 L 542,363 L 547,364 L 556,369 L 558,369 L 562,371 L 564,373 L 575,378 L 577,380 L 580,381 L 582,383 L 592,389 L 604,399 L 605,399 L 610,404 L 611,404 L 617,410 L 613,413 L 610,413 L 607,410 L 608,409 L 607,410 L 602,406 L 603,405 L 602,406 L 600,405 L 596,401 L 592,399 L 589,396 L 588,396 L 585,393 L 584,393 L 576,387 L 547,372 L 545,372 L 542,370 L 540,370 L 534,367 L 528,366 L 524,364 L 521,364 L 520,363 L 517,363 L 516,362 L 513,362 L 512,361 L 508,361 L 507,360 L 502,360 L 501,359 L 494,359 L 493,358 L 462,358 L 461,359 L 453,359 L 452,360 L 447,360 L 446,361 L 443,361 L 442,362 L 439,362 L 438,363 L 435,363 L 434,364 L 431,364 L 430,365 L 422,367 L 419,369 L 417,369 L 414,371 L 412,371 L 403,376 L 402,376 L 401,375 L 402,374 L 401,374 L 402,376 L 398,379 L 396,378 Z M 623,349 L 624,350 L 624,370 L 623,371 L 622,370 L 622,350 Z M 1873,348 L 1874,347 L 1913,347 L 1914,348 L 1914,349 L 1913,350 L 1912,349 L 1874,349 Z M 1026,348 L 1027,347 L 1275,347 L 1276,348 L 1275,349 L 1027,349 Z M 1854,376 L 1853,377 L 1852,376 L 1852,349 L 1586,349 L 1585,348 L 1586,347 L 1852,347 L 1853,346 L 1854,347 Z M 1565,347 L 1565,349 L 1564,350 L 1563,349 L 1301,349 L 1300,348 L 1301,347 L 1563,347 L 1564,346 Z M 662,338 L 663,339 L 663,394 L 662,395 L 661,394 L 661,339 Z M 1280,335 L 1281,336 L 1281,376 L 1282,377 L 1281,378 L 1280,378 L 1279,377 L 1279,336 Z M 439,337 L 439,335 L 441,333 L 598,333 L 599,334 L 598,335 L 599,334 L 600,335 L 600,336 L 598,338 L 597,338 L 596,339 L 480,339 L 479,340 L 473,340 L 472,339 L 450,339 L 449,340 L 446,340 L 445,339 L 441,339 Z M 1564,323 L 1565,324 L 1565,344 L 1564,345 L 1563,344 L 1563,324 Z M 438,325 L 438,324 L 440,322 L 441,323 L 447,323 L 441,323 L 440,322 L 441,321 L 600,321 L 603,323 L 603,324 L 601,326 L 597,326 L 596,327 L 440,327 Z M 1853,315 L 1854,316 L 1854,345 L 1853,346 L 1852,345 L 1852,316 Z M 440,307 L 442,305 L 602,305 L 603,306 L 603,307 L 602,308 L 603,307 L 604,308 L 604,309 L 603,310 L 602,310 L 599,312 L 442,312 L 440,310 Z M 1006,297 L 1007,298 L 1007,377 L 1006,378 L 1005,377 L 1005,350 L 1004,349 L 980,349 L 979,348 L 980,347 L 1005,347 L 1005,314 L 981,314 L 980,313 L 981,312 L 1005,312 L 1005,298 Z M 1280,292 L 1281,293 L 1281,321 L 1280,322 L 1279,321 L 1279,293 Z M 603,296 L 600,298 L 546,298 L 545,297 L 444,297 L 442,295 L 444,293 L 445,293 L 446,294 L 448,294 L 446,294 L 445,293 L 446,292 L 548,292 L 549,291 L 558,291 L 559,292 L 582,292 L 583,291 L 597,291 L 598,292 L 601,293 Z M 889,282 L 889,285 L 888,286 L 886,286 L 883,289 L 880,289 L 879,288 L 880,287 L 882,287 L 880,287 L 879,288 L 877,288 L 875,286 L 856,286 L 854,284 L 854,283 L 855,282 L 856,282 L 857,281 L 875,281 L 878,278 L 883,278 L 885,280 L 886,280 L 887,281 L 888,281 Z M 1288,260 L 1290,260 L 1292,262 L 1292,263 L 1291,264 L 1291,265 L 1290,266 L 1288,266 L 1286,264 L 1287,263 L 1286,262 Z M 1013,260 L 1015,260 L 1017,262 L 1017,263 L 1016,264 L 1016,265 L 1015,266 L 1014,266 L 1012,264 L 1012,261 Z M 1861,259 L 1862,259 L 1864,261 L 1864,264 L 1862,266 L 1861,266 L 1859,264 L 1859,261 Z M 1572,259 L 1573,259 L 1575,261 L 1575,264 L 1573,266 L 1572,266 L 1570,264 L 1570,261 Z M 1853,247 L 1854,248 L 1854,274 L 1853,275 L 1852,274 L 1852,248 Z M 624,247 L 625,248 L 625,262 L 624,263 L 623,262 L 623,248 Z M 967,246 L 969,248 L 968,249 L 969,251 L 969,255 L 968,256 L 969,257 L 968,260 L 968,266 L 969,267 L 968,275 L 970,278 L 968,282 L 968,285 L 969,286 L 968,293 L 969,294 L 969,299 L 970,300 L 970,302 L 968,305 L 968,315 L 969,316 L 969,321 L 970,322 L 970,325 L 968,329 L 968,334 L 969,335 L 968,338 L 968,350 L 969,351 L 968,359 L 970,360 L 968,363 L 968,373 L 970,376 L 970,380 L 969,381 L 970,384 L 969,385 L 970,386 L 972,385 L 972,349 L 971,348 L 972,347 L 972,250 L 969,250 L 968,249 L 969,248 L 973,248 L 974,249 L 974,347 L 975,348 L 974,349 L 974,385 L 977,388 L 982,388 L 984,392 L 984,397 L 978,400 L 974,408 L 974,419 L 973,420 L 967,420 L 966,419 L 966,247 Z M 1874,244 L 1875,243 L 1899,243 L 1900,244 L 1900,245 L 1914,245 L 1915,246 L 1914,247 L 1899,247 L 1898,246 L 1898,245 L 1875,245 Z M 1582,244 L 1583,243 L 1849,243 L 1850,244 L 1849,245 L 1583,245 Z M 1027,244 L 1028,243 L 1275,243 L 1276,244 L 1275,245 L 1028,245 Z M 1898,240 L 1898,238 L 1900,236 L 1916,236 L 1917,237 L 1916,238 L 1901,238 L 1900,239 L 1900,240 L 1899,241 Z M 1565,237 L 1565,245 L 1564,246 L 1563,245 L 1301,245 L 1300,244 L 1301,243 L 1563,243 L 1563,237 L 1564,236 Z M 979,237 L 980,236 L 993,236 L 994,237 L 993,238 L 980,238 Z M 1280,232 L 1281,233 L 1281,291 L 1280,292 L 1279,291 L 1279,233 Z M 1007,228 L 1007,249 L 1006,250 L 1005,249 L 1005,245 L 996,245 L 996,246 L 995,247 L 985,247 L 984,246 L 985,245 L 993,245 L 994,244 L 994,243 L 995,242 L 996,243 L 1005,243 L 1005,228 L 1006,227 Z M 1286,226 L 1287,225 L 1290,225 L 1292,227 L 1292,228 L 1291,229 L 1290,228 L 1291,229 L 1290,230 L 1288,230 L 1286,228 Z M 1013,225 L 1015,225 L 1017,227 L 1017,228 L 1015,230 L 1013,230 L 1011,228 L 1011,227 Z M 1861,224 L 1862,224 L 1865,227 L 1864,228 L 1864,229 L 1863,230 L 1861,230 L 1859,228 L 1859,226 Z M 1573,224 L 1575,226 L 1575,229 L 1574,230 L 1572,230 L 1571,229 L 1572,228 L 1571,229 L 1570,228 L 1570,226 L 1571,225 L 1572,225 Z M 1870,217 L 1871,218 L 1871,312 L 1913,312 L 1914,313 L 1913,314 L 1871,314 L 1871,347 L 1872,348 L 1871,349 L 1871,376 L 1870,377 L 1869,376 L 1869,218 Z M 1853,217 L 1854,218 L 1854,228 L 1853,229 L 1852,228 L 1852,218 Z M 1580,218 L 1581,217 L 1582,218 L 1582,312 L 1852,312 L 1852,283 L 1853,282 L 1854,283 L 1854,314 L 1853,315 L 1852,314 L 1582,314 L 1582,347 L 1583,348 L 1582,349 L 1582,377 L 1580,378 L 1579,377 L 1580,376 Z M 1296,218 L 1297,217 L 1298,218 L 1298,312 L 1563,312 L 1563,295 L 1564,294 L 1565,295 L 1565,313 L 1564,314 L 1298,314 L 1298,377 L 1296,378 L 1295,377 L 1296,376 Z M 1280,217 L 1281,218 L 1281,228 L 1280,229 L 1279,228 L 1279,218 Z M 1021,218 L 1022,217 L 1023,218 L 1023,312 L 1277,312 L 1278,313 L 1277,314 L 1023,314 L 1023,377 L 1021,378 L 1020,377 L 1021,376 Z M 1565,216 L 1566,217 L 1566,221 L 1565,222 L 1565,230 L 1564,231 L 1563,230 L 1563,218 Z M 925,146 L 933,146 L 934,147 L 940,147 L 941,148 L 942,148 L 946,152 L 946,154 L 947,155 L 947,162 L 948,163 L 948,174 L 947,175 L 947,177 L 948,178 L 947,179 L 947,182 L 948,183 L 948,214 L 947,215 L 947,217 L 944,220 L 943,219 L 944,220 L 943,221 L 940,221 L 939,222 L 924,222 L 923,221 L 922,221 L 921,220 L 920,220 L 919,219 L 919,218 L 918,217 L 918,216 L 917,215 L 917,209 L 916,208 L 916,206 L 917,205 L 917,153 L 918,152 L 918,151 L 922,147 L 924,147 Z M 737,140 L 739,142 L 739,143 L 740,144 L 740,225 L 739,226 L 739,228 L 738,229 L 737,229 L 736,230 L 735,230 L 730,225 L 730,224 L 726,220 L 726,219 L 722,215 L 722,214 L 718,210 L 718,209 L 710,201 L 707,201 L 705,203 L 705,205 L 706,206 L 706,208 L 707,209 L 707,210 L 709,213 L 709,215 L 710,216 L 710,217 L 712,220 L 712,222 L 714,225 L 714,227 L 711,230 L 701,230 L 700,229 L 698,229 L 696,227 L 695,227 L 692,224 L 692,223 L 691,222 L 691,218 L 690,217 L 690,215 L 691,214 L 691,210 L 692,209 L 692,206 L 693,205 L 693,202 L 694,201 L 694,199 L 695,198 L 695,196 L 696,195 L 696,192 L 697,191 L 697,189 L 698,188 L 698,186 L 699,185 L 699,183 L 700,182 L 700,180 L 701,179 L 701,177 L 702,176 L 702,174 L 703,173 L 703,171 L 704,170 L 704,168 L 705,167 L 705,165 L 706,164 L 706,162 L 707,161 L 707,159 L 708,158 L 708,157 L 709,156 L 709,155 L 710,154 L 710,153 L 713,150 L 713,149 L 715,147 L 716,147 L 718,145 L 719,145 L 722,143 L 724,143 L 725,142 L 727,142 L 728,141 L 732,141 L 733,140 Z M 749,141 L 753,137 L 755,136 L 763,136 L 764,135 L 775,135 L 776,134 L 789,134 L 790,133 L 812,133 L 813,132 L 842,132 L 843,133 L 863,133 L 864,134 L 869,134 L 875,137 L 876,138 L 875,139 L 876,138 L 880,142 L 880,143 L 882,145 L 882,148 L 883,149 L 883,218 L 882,219 L 882,222 L 881,224 L 877,228 L 873,230 L 869,230 L 868,231 L 754,231 L 751,229 L 753,228 L 750,229 L 748,226 L 748,143 Z" fill="black" fill-rule="evenodd"/>
</svg>