<?xml version="1.0" encoding="UTF-8" standalone="no"?>
<svg
   width="800"
   height="250"
   viewBox="0 0 800 250"
   version="1.1"
   id="svg2"
   sodipodi:docname="pak_40_75mm_black.svg"
   inkscape:version="1.4.2 (f4327f4, 2025-05-13)"
   xmlns:inkscape="http://www.inkscape.org/namespaces/inkscape"
   xmlns:sodipodi="http://sodipodi.sourceforge.net/DTD/sodipodi-0.dtd"
   xmlns="http://www.w3.org/2000/svg"
   xmlns:svg="http://www.w3.org/2000/svg">
  <defs
     id="defs2" />
  <sodipodi:namedview
     id="namedview2"
     pagecolor="#ffffff"
     bordercolor="#000000"
     borderopacity="0.25"
     inkscape:showpageshadow="2"
     inkscape:pageopacity="0.0"
     inkscape:pagecheckerboard="0"
     inkscape:deskcolor="#d1d1d1"
     inkscape:zoom="1.1123389"
     inkscape:cx="304.76325"
     inkscape:cy="129.90646"
     inkscape:window-width="2560"
     inkscape:window-height="1377"
     inkscape:window-x="-8"
     inkscape:window-y="-8"
     inkscape:window-maximized="1"
     inkscape:current-layer="svg2" />
  <path
     d="m 366.38823,107.18643 -7.19669,1.19945 -0.39982,-0.39981 -7.19669,1.99907 -1.99908,1.19946 h -1.59927 l -3.59834,2.39888 -3.19853,1.19947 -5.99725,4.39798 -7.99634,8.39614 -4.79779,7.99632 v 1.19945 l -1.59927,2.3989 -1.19944,4.39798 -0.79963,1.19945 -1.9991,10.79504 v 9.59561 l 1.19947,5.59742 v 2.3989 l 1.19944,1.99908 0.79963,3.59834 2.79871,4.7978 0.39983,1.99909 5.59743,7.99633 6.39706,6.39706 h 0.79963 l 3.99816,3.59834 2.79872,1.19946 1.99908,1.59926 8.79596,3.59835 9.19578,1.59927 h 9.19578 l 9.59559,-1.59927 2.79872,-1.59926 3.59834,-0.79964 3.59836,-2.3989 h 1.19944 l 3.59835,-2.3989 2.3989,-2.39889 1.99908,-0.79964 7.1967,-7.59651 0.79963,-1.99908 3.59835,-4.7978 0.39981,-1.99908 1.99909,-3.19853 1.19944,-4.39798 1.19945,-1.99909 v -2.79871 l 1.19946,-4.39798 0.39981,-8.39614 -0.39981,-0.39982 -0.39981,-7.59651 -2.39891,-9.19579 -2.3989,-3.99816 0.39981,-0.39981 -1.59926,-3.19854 -2.3989,-3.19854 0.39982,-0.39981 -0.39982,0.39981 -0.39982,-0.39981 v -1.19944 l -6.39705,-7.1967 -8.39616,-6.39705 -2.39889,-0.79964 -5.59744,-3.19853 -2.39888,-0.39983 -0.79964,-0.79962 -2.3989,-0.79963 -4.39798,-0.39982 -1.19944,-0.79964 -2.3989,0.39983 -3.19854,-0.79964 z m 1.19947,77.56439 h 0.79963 l 0.39981,0.39981 h 0.39981 l 0.39982,0.39982 v 0.79963 l 0.39981,0.39982 -0.39981,0.39981 v 0.39982 l -0.79963,0.79964 h -1.59928 l -1.19944,-1.19946 v -0.79963 l 0.39981,-0.39981 v -0.39982 l 0.39982,-0.39982 h 0.39981 z m 23.98898,-0.79965 -1.59927,1.59928 -0.39982,-0.39982 h -0.79964 0.79964 l 0.39982,0.39982 -1.19946,1.19945 h -0.39981 l -1.19944,1.19944 h -0.39982 l -0.79964,0.79964 h -0.39981 l -0.79963,0.79963 h -0.39982 l -0.39981,0.39982 h -0.39983 l -0.39981,0.39981 h -0.39983 l -0.39981,0.39981 h -0.39982 l -0.39981,0.39983 h -0.39982 l -1.19944,0.79963 h -0.79963 l -0.39982,0.39982 h -0.79964 l -0.39982,0.39982 h -1.19944 l -0.39982,0.39981 h -0.79962 l -0.39983,0.39982 h -1.59926 l -0.39981,0.39981 h -10.39524 l -0.39981,-0.39981 h -1.19945 l -0.39982,-0.39982 h -1.19945 l -0.39982,-0.39981 h -1.19944 l -0.39982,-0.39982 h -0.79962 l -1.19947,-0.79964 h -0.79963 l -0.39981,-0.39981 h -0.39982 l -0.39981,-0.39983 h -0.39982 l -0.39981,-0.39981 h -0.39981 l -0.39983,-0.39981 h -0.39982 l -0.79964,-0.79963 h -0.39981 l -0.79963,-0.79963 h -0.39981 l -1.19946,-1.19946 h -0.39981 l -1.59926,-1.59926 0.39981,-0.39982 h 1.19945 l 0.39981,-0.39981 h 0.39982 l 1.19945,1.19945 -0.39981,0.39981 h -0.39982 v 0.39982 l 0.79963,-0.79963 0.39982,0.39981 h 0.39981 l 0.39981,0.39982 h 0.39983 l 0.79963,0.79963 h 0.39983 l 0.39981,0.39981 h 0.39981 l 0.39982,0.39983 h 0.39981 l 0.39982,0.39981 h 0.39981 l 1.19944,0.79963 h 0.79966 l 0.39981,0.39982 h 0.39981 l 0.39982,0.39981 h 0.79963 l 0.39981,0.39981 h 1.19946 l 0.39981,0.39983 h 1.19945 l 0.39982,0.39981 h 3.59834 l 0.39982,0.39982 h 3.59835 l 0.39981,-0.39982 h 3.59836 l 0.39981,-0.39981 h 1.19946 l 0.39981,-0.39983 h 0.79963 l 0.39981,-0.39981 h 0.79963 l 0.39982,-0.39981 h 0.79964 l 1.19945,-0.79963 h 0.79963 l 0.39981,-0.39982 h 0.39982 l 1.19944,-0.79964 h 0.39983 l 0.39981,0.39983 -0.39981,-0.39983 1.19945,-0.79963 0.39982,0.39982 h 0.79963 v -0.39982 l -0.39982,-0.39981 1.19944,-1.19945 h 0.39983 l 1.59926,-1.59928 h 0.39981 l 0.79964,-0.79962 0.39982,0.39981 h 1.19945 z m -35.18384,-1.59925 0.39981,0.39981 v 1.19944 l -0.79964,0.79965 h -1.59927 l -0.39981,-0.39982 0.39981,-0.39983 h 1.19944 v -1.19944 l 0.39983,-0.39981 z m 23.18935,-0.39982 0.39981,-0.39981 h 1.59926 l 0.79963,0.79963 v 1.59925 l -0.79963,0.79965 H 379.982 l -0.39981,-0.39982 0.39981,-0.39983 h 1.19944 l -0.39981,-0.39981 v -0.79963 l -0.39981,-0.39981 -0.39982,0.39981 -0.39981,-0.39981 z m -35.58368,-9.5956 0.39983,-0.39982 h 1.59926 l 0.79963,0.79965 v 1.59926 l -0.39981,0.39982 h -0.39982 l -0.39981,0.39981 h -0.79964 l -0.79964,-0.79963 0.39983,-0.39982 v -1.19944 z m 45.9789,-0.79963 h 0.79964 l 0.39981,0.39981 -0.79964,0.79965 h -0.39981 l 0.39981,0.39981 v 0.39981 l -0.39981,0.39982 0.79964,0.79964 -0.39983,0.39981 h -0.39981 l -1.19946,-1.19945 v -1.19944 z m -15.59285,-2.39889 0.39982,-0.39983 0.39983,0.39983 v 0.79963 l 1.19944,-1.19946 0.79963,0.79965 v 0.39981 l -1.19945,1.19945 h -0.79962 l -0.79965,-0.79963 z m 4.79781,-10.79504 h 1.19945 l 0.39981,0.39981 -0.39981,0.39982 0.39981,-0.39982 0.39981,0.39982 v 1.19944 l -0.79962,0.79964 h -1.19945 l -0.79964,-0.79964 v -1.19944 z m -24.38881,0 h 1.19945 l 0.79964,0.79963 v 1.19944 l -0.79964,0.79964 h -1.19945 l -0.79963,-0.79964 v -1.19944 z m -14.39338,-0.39982 h 1.19944 l 1.19945,1.19945 v 0.79962 l -0.39982,0.39982 v 0.39981 l -0.79963,0.79965 h -1.19944 l -0.79965,-0.79965 v -0.39981 l -0.39982,-0.39982 0.39982,-0.39981 v -0.79963 z m 53.57538,-0.39982 h 0.79964 l 1.19946,1.19945 v 1.59926 l -0.39982,0.39981 -0.39981,-0.39981 v -0.79963 h -0.39983 l -0.39982,-0.39981 v -0.39982 h -0.79963 l -0.39982,-0.39981 z m -26.7877,-5.19761 h 1.59928 l 0.39981,0.39981 h 0.79963 l 0.39982,0.39981 h 0.39981 l 0.39982,0.39983 -0.39982,0.39982 0.39982,-0.39982 h 0.39982 l 1.59927,1.59926 -0.39981,0.39981 0.39981,-0.39981 0.79963,0.79963 v 0.39981 l 0.39981,0.39982 v 0.39981 l 0.39982,0.39983 v 1.59927 l 0.39983,0.39981 v 1.19944 l -0.39983,0.39983 v 1.19944 l -0.39982,0.39982 v 0.39981 l -0.79962,0.79964 -0.39982,-0.39981 -0.39981,0.39981 0.39981,-0.39981 0.39982,0.39981 v 0.39982 l -1.19946,1.19945 h -0.39981 l -0.79964,0.79963 h -0.39982 l -0.39981,0.39981 h -1.19945 l -0.39981,0.39982 h -2.39891 l -0.39981,-0.39982 h -0.79963 l -0.39982,-0.39981 h -0.39981 l -0.39982,-0.39981 h -0.39981 l -1.99909,-1.99909 v -0.39981 l -0.39982,-0.39983 v -0.39981 l -0.39981,-0.39982 v -1.19944 l -0.39982,-0.39983 v -1.99907 l 0.39982,-0.39981 v -0.79964 l 0.39981,-0.39983 v -0.79963 l 2.79872,-2.7987 h 0.39982 l 0.39981,-0.39983 h 0.39982 l 0.39981,-0.39981 h 1.19945 z m 0,-6.39707 h 1.19947 l 0.79962,0.79964 v 1.19945 l -0.39981,0.39981 h -0.39981 l -0.39982,0.39981 h -0.39981 l -0.39984,-0.39981 h -0.39981 l -0.39982,-0.39981 v -1.19945 z m -21.98988,-2.3989 h 0.79962 l 0.79963,0.79963 v 1.59927 l -0.39981,0.39982 -0.39982,-0.39982 0.39982,0.39982 -0.39982,0.39982 h -1.19945 l -0.39981,-0.39982 0.39981,-0.39982 -0.39981,0.39982 -0.39983,-0.39982 v -1.59927 l 0.39983,-0.39981 h 0.39981 z m 43.57997,-0.39981 h 1.59927 l 0.79964,0.79963 v 1.19944 l -0.79964,0.79964 h -1.59927 l -0.79963,-0.79964 v -1.19944 z m -8.39613,-7.99633 h 0.79962 l 1.19945,1.19945 v 1.19944 l -0.39982,0.39983 H 379.982 l -0.39981,-0.39983 v -0.39981 l -0.39982,-0.39982 0.39982,-0.39981 v -0.39981 z m -34.78403,-1.19946 0.39981,0.39983 v 0.39981 h 0.79963 l 0.39982,0.39982 -3.19854,3.19853 -0.39982,-0.39981 h -0.79962 0.79962 l 0.39982,0.39981 -0.39982,0.39982 v 0.39981 l -1.19944,1.19945 v 0.39981 l -1.59926,1.59928 v 0.39982 l -0.39981,0.39981 v 0.39981 l -0.39983,0.39982 v 0.39981 l -0.39982,0.39982 v 0.39981 l -0.39982,0.39982 v 0.39982 l -0.39981,0.39982 v 0.39982 l -0.79963,1.19945 v 0.79962 l -0.39981,0.39982 v 0.79964 l -0.39982,0.39981 v 0.79963 l -0.39981,0.39982 v 1.19945 l -0.39982,0.39981 v 1.59928 l -0.39982,0.39981 v 3.19854 l -0.39982,0.39981 v 0.79963 l 0.39982,0.39981 v 4.39799 l 0.39982,0.39981 v 1.99908 l 0.39982,0.39982 v 0.79963 l 0.39981,0.39981 v 0.79965 l 0.39982,0.39982 v 1.19944 l 0.39981,0.39982 v 0.39981 l 0.39982,0.39981 v 0.39982 l 0.39981,0.39983 v 0.39981 l 0.39981,0.39981 v 0.39982 l 0.39982,0.39982 v 0.39982 l 0.39982,0.39981 v 0.39982 l 0.39983,0.39981 0.39981,1.19946 1.19945,1.19944 v 0.39981 l 0.79963,0.79963 v 0.39983 l 1.19944,1.19945 -0.39982,0.39982 h -0.39981 0.39981 l 0.39982,-0.39982 3.59835,3.59835 -0.39981,0.39981 h -1.19945 l -0.39981,0.39982 -0.39981,-0.39982 h -0.39983 l -1.99908,-1.99908 v -0.39982 l -1.99908,-1.99907 v -0.39983 l -0.79964,-0.79964 v -0.39981 l -1.59926,-1.99907 v -0.39982 l -0.39982,-0.39982 v -0.39982 l -0.39981,-0.39981 v -0.39982 l -0.39982,-0.39981 v -0.39982 l -0.79963,-1.19945 v -0.79964 l -0.79964,-1.19944 v -0.79963 l -0.39981,-0.39982 v -1.19946 l -0.39982,-0.39982 v -1.19944 l -0.39981,-0.39982 v -1.59925 l -0.39983,-0.39983 v -9.59559 l 0.39983,-0.39981 v -1.59928 l 0.39981,-0.39981 v -1.59927 l 0.39982,-0.39981 v -0.79963 l 0.39981,-0.39981 v -0.79965 l 0.39982,-0.39981 v -0.79963 l 0.39982,-0.39981 v -0.79964 l 0.39982,-0.39982 v -0.39982 l 0.39981,-0.39982 v -0.39981 l 0.39982,-0.39982 0.39981,-1.19944 0.79963,-0.79963 0.39981,-1.19945 0.79964,-0.79964 v -0.39982 l 1.19946,-1.19944 v -0.39982 l 2.7987,-2.79872 0.39983,0.39983 h 0.79964 -0.79964 l -0.39983,-0.39983 z m 0,0 0.79963,-0.79963 h 0.39981 l 0.39982,-0.39981 0.39981,0.39981 h 0.39982 l 0.79964,0.79963 -0.79964,0.79964 h -0.39982 l -0.39981,-0.39981 h -1.19945 z m 21.59007,-2.39889 h 1.19947 l 1.19944,1.19945 v 1.19944 l -0.79963,0.79964 h -0.39981 l -0.39982,0.39982 h -0.39981 l -0.39984,-0.39982 h -0.39981 l -0.79963,-0.79964 v -1.19944 z m -18.79136,0 5.59743,-2.79872 0.79963,-0.79963 h 0.79962 l 2.79873,-1.19944 3.19853,-0.39982 0.39982,-0.39982 h 2.3989 l 0.39981,-0.39982 h 5.99724 l 0.39982,0.39982 h 1.99909 l 0.39982,0.39982 3.59834,0.39982 0.39981,0.39981 1.9991,0.39982 5.59742,2.79872 3.59834,2.39889 5.19761,5.19762 v 0.39981 l 1.59928,1.59926 1.19945,2.39891 0.79963,0.79963 3.19853,7.99632 v 1.59927 l 0.39982,0.39981 v 1.59928 l 0.39981,0.39981 v 8.79596 l -0.39981,0.39982 v 1.99908 l -0.39982,0.39981 v 1.19945 l -0.39981,0.39981 v 1.19947 l -0.39983,0.39981 -0.39981,1.99907 -3.19853,6.39707 -1.99909,2.39891 v 0.39981 l -2.7987,2.7987 -1.59927,-1.19944 1.59927,-1.59926 0.39981,0.39982 h 0.79963 -0.79963 l -0.39981,-0.39982 1.59925,-1.99909 0.39982,0.39981 -0.39982,-0.39981 1.9991,-2.79871 2.39889,-4.7978 v -0.79963 l 0.79964,-1.59926 v -1.19946 l 0.39981,-0.39982 v -1.19944 l 0.39982,-0.39981 v -1.99909 l 0.39981,-0.39981 v -7.19671 l -0.39981,-0.39981 v -2.79872 l -0.39982,-0.39981 -0.39981,-2.3989 -0.39983,-0.39981 -0.39981,-1.99908 -0.79963,-1.19945 v -0.79964 l -1.19945,-1.59927 -0.79964,-1.99907 -2.79871,-3.59835 0.39982,-0.39982 -0.39982,-0.39981 -0.39981,0.39981 -4.7978,-4.39799 0.79963,-0.79963 -0.39981,-0.39981 -1.19946,0.79963 -1.59926,-1.19945 0.39982,-0.39981 h 1.19944 -1.19944 l -0.79963,0.39981 -0.79964,-0.79963 0.39981,-0.39981 -0.79964,0.39981 -3.99815,-1.99909 h -1.19946 l -0.39981,-0.39981 -2.3989,-0.39982 -0.39982,-0.39981 h -2.39889 l -0.39982,-0.39982 h -7.99632 l -0.39983,0.39982 -3.59835,0.39981 -1.59926,0.79963 -2.39891,0.39981 -2.7987,1.59928 -0.79962,-0.39981 0.39981,0.39981 -2.79872,1.99908 -0.79963,-0.39982 h -1.19946 l -0.39981,-0.39981 z"
     fill="#000000"
     fill-rule="evenodd"
     id="path1"
     style="stroke-width:0.399817" />
  <path
     d="m 16.948675,81.997988 2.398898,15.193027 h 23.988986 l 20.790451,-5.997251 223.89721,5.197622 -13.99358,9.595584 -0.39981,6.39707 11.19486,6.79689 h 25.98806 l 9.59559,17.1921 3.59836,-5.99724 -6.39706,-7.1967 2.39889,-3.99816 h 13.59376 l 21.59008,-14.79321 -0.39981,3.59835 21.19027,-1.19947 28.38697,10.79505 -3.19853,0.79963 9.99541,11.99451 7.1967,1.99907 1.19944,29.58642 7.59651,4.39798 39.18201,0.39981 257.08196,37.98257 37.98257,16.39247 -0.39982,-13.19393 -1.19944,-20.39065 -17.99175,-0.79963 -6.79688,7.59651 -121.94401,-19.591 -3.99816,-9.99542 -10.79505,-1.59927 -5.19761,8.39615 -129.54052,-23.98898 33.98439,-1.59927 257.48179,25.18844 16.79229,4.79779 5.99724,-13.99357 -6.79687,-5.59744 -5.99725,4.79781 -4.39798,-5.59744 -15.59284,-3.59835 -8.79597,5.99726 -116.74639,-13.59377 -3.17122,-9.95047 -12.82145,-0.44476 -4.39797,7.99635 -97.95502,-11.59468 -6.79688,-11.19486 13.99357,-28.786796 -6.39707,-3.198534 -12.3943,23.989 0.79963,7.19668 h -7.59652 l -3.59834,8.39616 -7.19668,-0.79964 v -5.99724 l -9.99542,-4.7978 4.39797,-2.79872 -1.19944,-12.79412 9.59559,-0.799642 1.99908,-6.796871 -12.79413,-3.998163 2.79872,-11.594681 -10.79504,-1.999088 V 60.407894 h -7.19669 L 446.75134,76.000748 428.7596,76.400563 438.35519,44.415239 395.57484,32.020933 397.1741,20.826072 383.18053,28.822399 365.5886,77.600009 64.12701,81.198357 19.347573,75.201105 Z M 739.01714,194.74622 v -0.39981 l 0.39983,-0.39982 v -0.39981 l 0.39982,-0.39982 v -0.79963 l 1.19944,-1.19945 h 0.39981 l 0.39982,-0.39983 h 5.99725 l 0.39982,0.39983 h 4.79779 l 0.39981,0.39981 -0.39981,0.39982 h -0.39982 l -0.39981,0.39982 v 0.39982 l -0.39981,0.39981 v 0.79963 l -0.39982,0.39982 v 0.39981 l -0.39981,0.39982 v 0.39981 l -0.39983,0.39981 v 0.39984 l -0.39982,0.39982 h -2.39889 l -0.39982,0.39981 h -0.39981 l -0.39983,-0.39981 h -1.59925 l -0.39982,-0.39982 h -1.99908 l -0.39983,-0.39984 h -1.99907 z m -141.13519,-27.98715 0.39981,-0.39981 h 0.39982 l 0.39982,-0.39981 h 0.39981 l 0.39983,0.39981 h 1.99907 l 0.39982,0.39981 h 1.99908 l 0.39983,0.39982 h 1.99907 l 0.39981,0.39981 h 1.99909 l 0.79963,0.79963 v 3.19854 l -0.39982,0.39981 v 0.79965 l -1.19944,1.19944 -0.39982,-0.39982 h -2.39889 l -0.39982,-0.39981 h -2.39891 l -0.39981,-0.39981 h -1.99907 l -0.39982,-0.39983 h -1.59928 l -1.19944,-1.19944 v -0.39982 l 0.39981,-0.39981 v -1.59928 l 0.39982,-0.39982 z m 142.73446,-8.79595 0.39982,-0.39982 v -0.79964 l 0.79963,-0.79963 h 0.39981 l 0.39983,-0.39982 h 1.19945 l 0.39982,0.39982 h 1.59925 l 0.39982,0.39981 h 1.19945 l 0.39982,0.39982 h 1.19945 l 0.39982,0.39981 h 1.19944 l 0.39983,0.39983 h 1.19944 l 0.39981,0.39982 h 1.19946 l 0.39981,0.39982 h 1.59927 l 0.39982,0.39981 h 1.59925 l 0.39982,0.39982 h 0.39983 l 0.39982,0.39981 v 0.39981 l -0.39982,0.39982 h -3.19853 l -0.39982,-0.39982 h -2.39891 l -0.39981,-0.39981 h -3.19853 l -0.39981,-0.39981 h -3.59835 l -0.39982,-0.39982 h -2.79872 l -0.39982,-0.39981 h -0.39981 z M 455.14748,155.1644 h 0.39981 l 0.79964,0.79963 v 1.59927 l -0.79964,0.79964 h -0.79963 l -0.79962,-0.79964 v -1.59927 l 0.39981,-0.39982 h 0.39981 z m -14.7932,-13.19393 0.39981,-0.39983 v -0.39981 l 0.39983,-0.39983 v -0.79963 l 0.39981,-0.39981 0.39982,0.39981 v 1.19946 h 0.79962 l 0.39982,0.39981 h 2.39891 l 0.39981,0.39983 h 2.79872 l 0.39981,0.39981 h 0.79963 l 0.39982,0.39982 v 0.39981 l 0.39982,0.39981 v 0.39982 l 0.39981,0.39981 -0.39981,0.39982 h -1.99908 l -1.19946,1.19945 -0.39981,-0.39982 h -0.79963 l -0.79963,-0.79963 h -0.39982 l -0.39982,-0.39982 h -1.19946 l -0.79963,0.79963 -0.39981,-0.39981 h -1.59927 l -0.39981,-0.39982 z m 163.92473,-4.79781 0.79964,-0.79963 h 1.59926 l 0.39981,0.39981 h 3.59835 l 0.39982,0.39982 h 2.79871 l 0.39982,0.39981 h 1.19945 l 0.39983,0.39983 v 0.39981 0.79963 3.19854 l -0.39983,0.39982 h -0.39982 v 0.39981 l -0.39982,0.39981 h -0.79963 l -0.39981,-0.39981 h -3.59835 l -0.39982,-0.39981 h -2.79871 l -0.39982,-0.39982 0.39982,-0.39981 h 0.79964 -1.19946 l -0.39981,0.39981 h -0.79963 l -0.79964,-0.79964 h -0.39981 l -0.39983,-0.39981 0.39983,-0.39983 v -2.39889 l 0.39981,-0.39981 z m -116.74639,-1.59927 h 0.39981 l 0.39982,0.39983 h 0.39982 l 0.39982,0.39981 v 1.19944 l -0.79964,0.79964 h -1.19946 l -0.39981,-0.39981 v -1.59927 z m -43.18019,-9.99541 0.39983,0.39982 v 4.39799 l -0.39983,0.39982 -0.39981,-0.39982 v -4.39799 z m 5.59744,-8.39614 0.39982,-0.39982 h 4.39797 l 0.39982,0.39982 -0.39982,0.39981 h -4.39797 z m -29.98623,-3.59836 0.39981,-0.39981 h 4.7978 l 0.39982,0.39981 -0.39982,0.39983 h -4.7978 z m 23.58916,-10.39521 0.39982,-0.39982 h 5.19762 l 0.39981,0.39982 -0.39981,0.39982 h -5.19762 z m -84.36126,-8.396157 v 0.799644 l -0.39982,0.399814 v 0.799631 l -0.39981,0.399813 v 0.799632 l -0.39982,0.39981 v 0.799652 l -0.79963,1.199441 v 0.79963 l -0.39981,0.39981 v 0.79963 l -0.39981,0.39983 v 0.79964 l -0.79966,1.19944 -0.39981,-0.39981 v -0.79963 l 0.39981,-0.39982 v -0.79965 l 0.39983,-0.39981 v -0.79963 l 0.39983,-0.39982 V 99.989741 H 305.21632 L 304.8165,99.58992 v -2.798718 l 0.39982,-0.399816 h 52.77577 v -0.799629 l 0.39982,-0.399828 v -0.399816 l 0.39981,-0.399815 z m 91.95778,-6.397055 0.39982,-0.399814 h 0.39981 l 0.39982,-0.399816 h 0.39982 l 0.79963,0.79963 v 0.799631 l -0.39981,0.399815 h -1.59927 l -0.39982,-0.399815 z m 4.7978,-4.797806 0.39981,0.399828 v 0.399814 l -0.39981,0.399816 v 2.39889 l -0.39983,0.399828 -0.39981,-0.399828 v -0.799629 l -0.39982,-0.399816 v -1.599261 l 0.79963,-0.799642 z M 35.34023,81.198357 h 5.59743 l 0.799634,0.799631 v 7.996331 l -1.199449,1.199445 H 35.34023 L 34.940414,90.79395 v -0.399816 l -0.399817,-0.399815 v -7.996331 z m -11.994491,0 h 5.597429 l 0.799632,0.799631 v 8.396146 l -0.799632,0.79963 h -5.597429 l -0.799635,-0.79963 v -8.396146 z"
     fill="#000000"
     fill-rule="evenodd"
     id="path2"
     sodipodi:nodetypes="ccccccccccccccccccccccccccccccccccccccccccccccccccccccccccccccccccccccccccccccccccccccccccccccccccccccccccccccccccccccccccccccccccccccccccccccccccccccccccccccccccccccccccccccccccccccccccccccccccccccccccccccccccccccccccccccccccccccccccccccccccccccccccccccccccccccccccccccccccccccccccccccccccccccccccccccccccccccccccccccccccccccccccccccccccccccccccccccccccccccccccccccccccccccccccccc"
     style="stroke-width:0.399817" />
</svg>
