<svg xmlns="http://www.w3.org/2000/svg" width="2172" height="724" viewBox="0 0 2172 724">
<rect width="100%" height="100%" fill="white"/>
<path d="M 935,329 L 917,332 L 916,331 L 898,336 L 893,339 L 889,339 L 880,345 L 872,348 L 857,359 L 837,380 L 825,400 L 825,403 L 821,409 L 818,420 L 816,423 L 811,450 L 811,474 L 814,488 L 814,494 L 817,499 L 819,508 L 826,520 L 827,525 L 841,545 L 857,561 L 859,561 L 869,570 L 876,573 L 881,577 L 903,586 L 926,590 L 949,590 L 973,586 L 980,582 L 989,580 L 998,574 L 1001,574 L 1010,568 L 1016,562 L 1021,560 L 1039,541 L 1041,536 L 1050,524 L 1051,519 L 1056,511 L 1059,500 L 1062,495 L 1062,488 L 1065,477 L 1066,456 L 1065,455 L 1064,436 L 1058,413 L 1052,403 L 1053,402 L 1049,394 L 1043,386 L 1044,385 L 1043,386 L 1042,385 L 1042,382 L 1026,364 L 1005,348 L 999,346 L 985,338 L 979,337 L 977,335 L 971,333 L 960,332 L 957,330 L 951,331 L 943,329 Z M 938,523 L 940,523 L 941,524 L 942,524 L 943,525 L 943,527 L 944,528 L 943,529 L 943,530 L 941,532 L 937,532 L 934,529 L 934,527 L 935,526 L 935,525 L 936,524 L 937,524 Z M 998,521 L 994,525 L 993,524 L 991,524 L 993,524 L 994,525 L 991,528 L 990,528 L 987,531 L 986,531 L 984,533 L 983,533 L 981,535 L 980,535 L 979,536 L 978,536 L 977,537 L 976,537 L 975,538 L 974,538 L 973,539 L 972,539 L 969,541 L 967,541 L 966,542 L 964,542 L 963,543 L 960,543 L 959,544 L 957,544 L 956,545 L 952,545 L 951,546 L 925,546 L 924,545 L 921,545 L 920,544 L 917,544 L 916,543 L 913,543 L 912,542 L 910,542 L 907,540 L 905,540 L 904,539 L 903,539 L 902,538 L 901,538 L 900,537 L 899,537 L 898,536 L 897,536 L 895,534 L 894,534 L 892,532 L 891,532 L 888,529 L 887,529 L 883,525 L 884,524 L 887,524 L 888,523 L 889,523 L 892,526 L 891,527 L 890,527 L 890,528 L 892,526 L 893,527 L 894,527 L 895,528 L 896,528 L 898,530 L 899,530 L 900,531 L 901,531 L 902,532 L 903,532 L 904,533 L 905,533 L 908,535 L 910,535 L 911,536 L 912,536 L 913,537 L 915,537 L 916,538 L 919,538 L 920,539 L 923,539 L 924,540 L 933,540 L 934,541 L 943,541 L 944,540 L 953,540 L 954,539 L 957,539 L 958,538 L 960,538 L 961,537 L 963,537 L 964,536 L 966,536 L 969,534 L 971,534 L 972,533 L 973,533 L 976,531 L 977,531 L 978,532 L 977,531 L 980,529 L 981,530 L 983,530 L 983,529 L 982,528 L 985,525 L 986,525 L 990,521 L 991,521 L 993,519 L 994,520 L 997,520 Z M 910,517 L 911,518 L 911,521 L 909,523 L 905,523 L 904,522 L 905,521 L 908,521 L 908,518 L 909,517 Z M 968,516 L 969,515 L 973,515 L 975,517 L 975,521 L 973,523 L 969,523 L 968,522 L 969,521 L 972,521 L 971,520 L 971,518 L 970,517 L 969,518 L 968,517 Z M 879,492 L 880,491 L 884,491 L 886,493 L 886,497 L 885,498 L 884,498 L 883,499 L 881,499 L 879,497 L 880,496 L 880,493 Z M 994,490 L 996,490 L 997,491 L 995,493 L 994,493 L 995,494 L 995,495 L 994,496 L 996,498 L 995,499 L 994,499 L 991,496 L 991,493 Z M 955,484 L 956,483 L 957,484 L 957,486 L 960,483 L 962,485 L 962,486 L 959,489 L 957,489 L 955,487 Z M 967,457 L 970,457 L 971,458 L 970,459 L 971,458 L 972,459 L 972,462 L 970,464 L 967,464 L 965,462 L 965,459 Z M 906,457 L 909,457 L 911,459 L 911,462 L 909,464 L 906,464 L 904,462 L 904,459 Z M 870,456 L 873,456 L 876,459 L 876,461 L 875,462 L 875,463 L 873,465 L 870,465 L 868,463 L 868,462 L 867,461 L 868,460 L 868,458 Z M 1004,455 L 1006,455 L 1009,458 L 1009,462 L 1008,463 L 1007,462 L 1007,460 L 1006,460 L 1005,459 L 1005,458 L 1003,458 L 1002,457 Z M 937,442 L 941,442 L 942,443 L 944,443 L 945,444 L 946,444 L 947,445 L 946,446 L 947,445 L 948,445 L 952,449 L 951,450 L 952,449 L 954,451 L 954,452 L 955,453 L 955,454 L 956,455 L 956,459 L 957,460 L 957,463 L 956,464 L 956,467 L 955,468 L 955,469 L 953,471 L 952,470 L 951,471 L 952,470 L 953,471 L 953,472 L 950,475 L 949,475 L 947,477 L 946,477 L 945,478 L 942,478 L 941,479 L 935,479 L 934,478 L 932,478 L 931,477 L 930,477 L 929,476 L 928,476 L 923,471 L 923,470 L 922,469 L 922,468 L 921,467 L 921,464 L 920,463 L 920,458 L 921,457 L 921,455 L 922,454 L 922,452 L 929,445 L 930,445 L 931,444 L 932,444 L 933,443 L 936,443 Z M 937,426 L 940,426 L 942,428 L 942,431 L 941,432 L 940,432 L 939,433 L 938,433 L 937,432 L 936,432 L 935,431 L 935,428 Z M 882,420 L 884,420 L 886,422 L 886,426 L 885,427 L 884,426 L 885,427 L 884,428 L 881,428 L 880,427 L 881,426 L 880,427 L 879,426 L 879,422 L 880,421 L 881,421 Z M 991,419 L 995,419 L 997,421 L 997,424 L 995,426 L 991,426 L 989,424 L 989,421 Z M 970,399 L 972,399 L 975,402 L 975,405 L 974,406 L 969,406 L 968,405 L 968,404 L 967,403 L 968,402 L 968,401 Z M 883,396 L 884,397 L 884,398 L 886,398 L 887,399 L 879,407 L 878,406 L 876,406 L 878,406 L 879,407 L 878,408 L 878,409 L 875,412 L 875,413 L 871,417 L 871,418 L 870,419 L 870,420 L 869,421 L 869,422 L 868,423 L 868,424 L 867,425 L 867,426 L 866,427 L 866,428 L 864,431 L 864,433 L 863,434 L 863,436 L 862,437 L 862,439 L 861,440 L 861,443 L 860,444 L 860,448 L 859,449 L 859,457 L 858,458 L 858,460 L 859,461 L 859,472 L 860,473 L 860,478 L 861,479 L 861,481 L 862,482 L 862,484 L 863,485 L 863,488 L 864,489 L 864,490 L 865,491 L 865,492 L 866,493 L 866,494 L 867,495 L 867,496 L 868,497 L 868,498 L 869,499 L 869,500 L 870,501 L 871,504 L 874,507 L 874,508 L 876,510 L 876,511 L 879,514 L 878,515 L 877,515 L 878,515 L 879,514 L 888,523 L 887,524 L 884,524 L 883,525 L 882,524 L 881,524 L 876,519 L 876,518 L 871,513 L 871,512 L 869,510 L 869,509 L 865,504 L 865,503 L 864,502 L 864,501 L 863,500 L 863,499 L 862,498 L 862,497 L 860,494 L 860,492 L 858,489 L 858,487 L 857,486 L 857,483 L 856,482 L 856,479 L 855,478 L 855,474 L 854,473 L 854,449 L 855,448 L 855,444 L 856,443 L 856,439 L 857,438 L 857,436 L 858,435 L 858,433 L 859,432 L 859,430 L 860,429 L 860,427 L 861,426 L 861,425 L 862,424 L 862,423 L 863,422 L 864,419 L 866,417 L 867,414 L 869,412 L 869,411 L 872,408 L 872,407 L 879,400 L 880,401 L 882,401 L 880,401 L 879,400 Z M 883,396 L 885,394 L 886,394 L 887,393 L 888,394 L 889,394 L 891,396 L 889,398 L 888,398 L 887,397 L 884,397 Z M 937,390 L 940,390 L 943,393 L 943,396 L 941,398 L 940,398 L 939,399 L 938,399 L 937,398 L 936,398 L 934,396 L 934,393 Z M 890,390 L 904,383 L 906,381 L 908,381 L 915,378 L 923,377 L 924,376 L 930,376 L 931,375 L 946,375 L 947,376 L 952,376 L 953,377 L 962,378 L 963,379 L 968,380 L 982,387 L 991,393 L 1004,406 L 1004,407 L 1008,411 L 1011,417 L 1013,419 L 1021,439 L 1021,443 L 1022,444 L 1022,448 L 1023,449 L 1023,471 L 1022,472 L 1022,477 L 1021,478 L 1021,481 L 1020,482 L 1020,485 L 1019,486 L 1018,491 L 1010,507 L 1005,513 L 1005,514 L 998,521 L 994,518 L 998,514 L 999,515 L 1001,515 L 999,515 L 998,514 L 1002,509 L 1003,510 L 1002,509 L 1007,502 L 1013,490 L 1013,488 L 1015,484 L 1015,481 L 1016,480 L 1016,477 L 1017,476 L 1017,471 L 1018,470 L 1018,452 L 1017,451 L 1017,444 L 1016,443 L 1015,437 L 1014,436 L 1013,431 L 1011,428 L 1011,426 L 1008,422 L 1006,417 L 999,408 L 1000,407 L 999,406 L 998,407 L 986,396 L 988,394 L 987,393 L 984,395 L 980,392 L 981,391 L 984,391 L 981,391 L 979,392 L 977,390 L 978,389 L 976,390 L 966,385 L 963,385 L 962,384 L 956,383 L 955,382 L 949,382 L 948,381 L 928,381 L 927,382 L 918,383 L 914,385 L 908,386 L 901,390 L 899,389 L 900,390 L 893,395 L 891,394 L 888,394 L 887,393 Z" fill="black" fill-rule="evenodd"/>
<path d="M 61,266 L 67,304 L 127,304 L 179,289 L 739,302 L 704,326 L 703,342 L 731,359 L 796,359 L 820,402 L 829,387 L 813,369 L 819,359 L 853,359 L 907,322 L 906,331 L 959,328 L 1030,355 L 1022,357 L 1047,387 L 1065,392 L 1068,466 L 1087,477 L 1185,478 L 1828,573 L 1923,614 L 1922,581 L 1974,557 L 1946,556 L 1919,530 L 1874,528 L 1857,547 L 1552,498 L 1542,473 L 1515,469 L 1502,490 L 1178,430 L 1263,426 L 1907,489 L 1949,501 L 1975,534 L 2027,558 L 2004,520 L 2004,496 L 2057,459 L 2026,461 L 2008,447 L 2014,434 L 2068,419 L 2086,427 L 2117,409 L 2077,397 L 2068,408 L 2020,414 L 1964,466 L 1947,452 L 1932,464 L 1921,450 L 1882,441 L 1860,456 L 1568,422 L 1554,397 L 1528,396 L 1517,416 L 1272,387 L 1255,359 L 1290,287 L 1274,279 L 1243,339 L 1245,357 L 1226,357 L 1217,378 L 1199,376 L 1199,361 L 1174,349 L 1185,342 L 1182,310 L 1206,308 L 1211,291 L 1179,281 L 1186,252 L 1159,247 L 1159,212 L 1141,212 L 1136,251 L 1091,252 L 1115,172 L 1008,141 L 1012,113 L 977,133 L 933,255 L 179,264 L 67,249 Z M 1867,548 L 1867,547 L 1868,546 L 1868,545 L 1869,544 L 1869,542 L 1872,539 L 1873,539 L 1874,538 L 1889,538 L 1890,539 L 1902,539 L 1903,540 L 1902,541 L 1901,541 L 1900,542 L 1900,543 L 1899,544 L 1899,546 L 1898,547 L 1898,548 L 1897,549 L 1897,550 L 1896,551 L 1896,552 L 1895,553 L 1889,553 L 1888,554 L 1887,554 L 1886,553 L 1882,553 L 1881,552 L 1876,552 L 1875,551 L 1870,551 Z M 1968,483 L 1969,484 L 1969,494 L 1968,495 L 1968,497 L 1966,499 L 1962,499 L 1961,498 L 1959,498 L 1958,497 L 1959,496 L 1964,496 L 1959,496 L 1958,497 L 1956,495 L 1957,494 L 1964,494 L 1965,493 L 1966,493 L 1967,492 L 1967,484 Z M 1514,478 L 1515,477 L 1516,477 L 1517,476 L 1518,476 L 1519,477 L 1524,477 L 1525,478 L 1530,478 L 1531,479 L 1536,479 L 1537,480 L 1542,480 L 1544,482 L 1544,490 L 1543,491 L 1543,493 L 1540,496 L 1539,495 L 1533,495 L 1532,494 L 1526,494 L 1525,493 L 1520,493 L 1519,492 L 1515,492 L 1512,489 L 1512,488 L 1513,487 L 1513,483 L 1514,482 Z M 1967,472 L 1968,472 L 1969,473 L 1969,476 L 1970,477 L 1970,481 L 1969,482 L 1968,481 L 1968,478 L 1967,477 L 1967,475 L 1966,474 L 1966,473 Z M 1871,456 L 1872,455 L 1872,453 L 1874,451 L 1875,451 L 1876,450 L 1879,450 L 1880,451 L 1884,451 L 1885,452 L 1888,452 L 1889,453 L 1892,453 L 1893,454 L 1896,454 L 1897,455 L 1900,455 L 1901,456 L 1904,456 L 1905,457 L 1909,457 L 1910,458 L 1914,458 L 1915,459 L 1916,459 L 1917,460 L 1917,461 L 1916,462 L 1908,462 L 1907,461 L 1901,461 L 1900,460 L 1892,460 L 1891,459 L 1882,459 L 1881,458 L 1874,458 L 1873,457 L 1872,457 Z M 1157,449 L 1158,449 L 1160,451 L 1160,455 L 1158,457 L 1156,457 L 1154,455 L 1154,451 L 1155,450 L 1156,450 Z M 1120,416 L 1121,415 L 1121,414 L 1122,413 L 1122,411 L 1123,410 L 1124,411 L 1124,414 L 1126,414 L 1127,415 L 1133,415 L 1134,416 L 1141,416 L 1142,417 L 1144,417 L 1145,418 L 1145,419 L 1146,420 L 1146,421 L 1147,422 L 1146,423 L 1141,423 L 1138,426 L 1137,425 L 1135,425 L 1133,423 L 1132,423 L 1131,422 L 1128,422 L 1126,424 L 1125,423 L 1121,423 L 1120,422 Z M 1530,404 L 1532,402 L 1536,402 L 1537,403 L 1546,403 L 1547,404 L 1554,404 L 1555,405 L 1558,405 L 1559,406 L 1559,407 L 1560,408 L 1559,409 L 1559,417 L 1558,418 L 1557,418 L 1557,419 L 1556,420 L 1554,420 L 1553,419 L 1544,419 L 1543,418 L 1536,418 L 1535,417 L 1536,416 L 1538,416 L 1535,416 L 1534,417 L 1532,417 L 1530,415 L 1529,415 L 1528,414 L 1529,413 L 1529,407 L 1530,406 Z M 1238,400 L 1239,400 L 1240,401 L 1241,401 L 1242,402 L 1242,405 L 1240,407 L 1237,407 L 1236,406 L 1236,402 Z M 1130,375 L 1131,376 L 1131,387 L 1130,388 L 1129,387 L 1129,376 Z M 1144,354 L 1145,353 L 1156,353 L 1157,354 L 1156,355 L 1145,355 Z M 1069,345 L 1070,344 L 1082,344 L 1083,345 L 1082,346 L 1070,346 Z M 1128,319 L 1129,318 L 1142,318 L 1143,319 L 1142,320 L 1129,320 Z M 917,298 L 917,300 L 916,301 L 916,303 L 915,304 L 915,306 L 914,307 L 914,309 L 912,312 L 912,314 L 911,315 L 911,317 L 910,318 L 910,320 L 908,323 L 907,322 L 907,320 L 908,319 L 908,317 L 909,316 L 909,314 L 910,313 L 910,311 L 782,311 L 781,310 L 781,303 L 782,302 L 914,302 L 914,300 L 915,299 L 915,298 L 916,297 Z M 1147,282 L 1148,281 L 1149,281 L 1150,280 L 1151,280 L 1153,282 L 1153,284 L 1152,285 L 1148,285 L 1147,284 Z M 1159,270 L 1160,271 L 1160,272 L 1159,273 L 1159,279 L 1158,280 L 1157,279 L 1157,277 L 1156,276 L 1156,272 L 1158,270 Z M 107,264 L 121,264 L 123,266 L 123,286 L 120,289 L 107,289 L 106,288 L 106,287 L 105,286 L 105,266 Z M 77,264 L 91,264 L 93,266 L 93,287 L 91,289 L 77,289 L 75,287 L 75,266 Z" fill="black" fill-rule="evenodd"/>
</svg>