<svg xmlns="http://www.w3.org/2000/svg" width="2172" height="724" viewBox="0 0 2172 724">
<rect width="100%" height="100%" fill="white"/>
<path d="M 1493,574 L 1492,575 L 1491,575 L 1490,576 L 1490,579 L 1492,581 L 1494,581 L 1495,580 L 1496,580 L 1496,579 L 1497,578 L 1497,577 L 1495,575 L 1494,575 Z" fill="black" fill-rule="evenodd"/>
<path d="M 1438,574 L 1437,575 L 1436,575 L 1435,576 L 1435,579 L 1437,581 L 1440,581 L 1442,579 L 1442,576 L 1441,575 L 1440,575 L 1439,574 Z" fill="black" fill-rule="evenodd"/>
<path d="M 1344,574 L 1343,575 L 1342,575 L 1342,576 L 1341,577 L 1341,578 L 1342,579 L 1342,580 L 1343,581 L 1346,581 L 1348,579 L 1348,576 L 1347,575 L 1346,575 L 1345,574 Z" fill="black" fill-rule="evenodd"/>
<path d="M 1289,574 L 1287,576 L 1287,579 L 1289,581 L 1291,581 L 1293,579 L 1293,576 L 1292,575 L 1291,575 L 1290,574 Z" fill="black" fill-rule="evenodd"/>
<path d="M 1196,574 L 1194,574 L 1193,575 L 1192,575 L 1191,576 L 1191,578 L 1192,579 L 1192,580 L 1193,580 L 1194,581 L 1195,581 L 1196,580 L 1197,580 L 1198,579 L 1198,575 L 1197,575 Z" fill="black" fill-rule="evenodd"/>
<path d="M 1139,574 L 1138,575 L 1137,575 L 1137,576 L 1136,577 L 1136,579 L 1138,581 L 1141,581 L 1143,579 L 1143,576 L 1141,574 Z" fill="black" fill-rule="evenodd"/>
<path d="M 1036,573 L 1034,575 L 1034,578 L 1035,579 L 1039,579 L 1040,578 L 1040,577 L 1041,576 L 1040,575 L 1040,574 L 1039,573 Z" fill="black" fill-rule="evenodd"/>
<path d="M 981,573 L 979,575 L 979,578 L 981,580 L 984,580 L 986,578 L 986,575 L 984,573 Z" fill="black" fill-rule="evenodd"/>
<path d="M 875,573 L 873,575 L 873,577 L 875,579 L 878,579 L 880,577 L 880,575 L 878,573 Z" fill="black" fill-rule="evenodd"/>
<path d="M 820,573 L 818,575 L 818,578 L 819,579 L 820,579 L 821,580 L 822,580 L 823,579 L 824,579 L 825,578 L 825,575 L 823,573 Z" fill="black" fill-rule="evenodd"/>
<path d="M 717,573 L 715,575 L 715,578 L 717,580 L 720,580 L 722,578 L 722,575 L 720,573 Z" fill="black" fill-rule="evenodd"/>
<path d="M 661,573 L 659,575 L 659,578 L 661,580 L 664,580 L 666,578 L 666,575 L 664,573 Z" fill="black" fill-rule="evenodd"/>
<path d="M 1465,523 L 1464,524 L 1459,524 L 1458,525 L 1456,525 L 1455,526 L 1454,526 L 1453,527 L 1452,527 L 1451,528 L 1450,528 L 1448,530 L 1447,530 L 1445,532 L 1445,533 L 1442,536 L 1442,537 L 1441,538 L 1441,539 L 1440,540 L 1440,541 L 1439,542 L 1439,545 L 1438,546 L 1438,557 L 1439,558 L 1439,560 L 1440,561 L 1440,562 L 1441,563 L 1441,564 L 1442,565 L 1442,566 L 1444,568 L 1444,569 L 1448,573 L 1449,573 L 1451,575 L 1452,575 L 1453,576 L 1454,576 L 1455,577 L 1457,577 L 1458,578 L 1462,578 L 1463,579 L 1469,579 L 1470,578 L 1474,578 L 1475,577 L 1476,577 L 1477,576 L 1478,576 L 1479,575 L 1480,575 L 1481,574 L 1482,574 L 1489,567 L 1489,566 L 1491,564 L 1491,563 L 1492,562 L 1492,561 L 1493,560 L 1493,557 L 1494,556 L 1494,546 L 1493,545 L 1493,543 L 1492,542 L 1492,541 L 1491,540 L 1491,539 L 1490,538 L 1490,537 L 1488,535 L 1488,534 L 1483,529 L 1482,529 L 1481,528 L 1480,528 L 1478,526 L 1477,526 L 1476,525 L 1473,525 L 1472,524 L 1468,524 L 1467,523 Z M 1463,542 L 1468,542 L 1469,543 L 1471,543 L 1474,546 L 1474,547 L 1475,548 L 1475,554 L 1474,555 L 1474,556 L 1470,560 L 1467,560 L 1466,561 L 1465,561 L 1464,560 L 1462,560 L 1461,559 L 1460,559 L 1458,557 L 1458,556 L 1457,555 L 1457,553 L 1456,552 L 1456,551 L 1457,550 L 1457,548 L 1458,547 L 1458,546 L 1461,543 L 1462,543 Z" fill="black" fill-rule="evenodd"/>
<path d="M 1314,523 L 1313,524 L 1310,524 L 1309,525 L 1307,525 L 1306,526 L 1305,526 L 1304,527 L 1303,527 L 1301,529 L 1300,529 L 1294,535 L 1294,536 L 1292,538 L 1292,539 L 1291,540 L 1291,542 L 1290,543 L 1290,546 L 1289,547 L 1289,556 L 1290,557 L 1290,559 L 1291,560 L 1291,562 L 1292,563 L 1292,564 L 1291,565 L 1292,564 L 1293,565 L 1293,566 L 1296,569 L 1296,570 L 1298,572 L 1299,572 L 1302,575 L 1303,575 L 1304,576 L 1305,576 L 1306,577 L 1307,577 L 1308,578 L 1311,578 L 1312,579 L 1321,579 L 1322,578 L 1325,578 L 1326,577 L 1328,577 L 1329,576 L 1330,576 L 1332,574 L 1333,574 L 1336,571 L 1337,571 L 1339,569 L 1339,568 L 1341,566 L 1341,565 L 1343,563 L 1343,561 L 1344,560 L 1344,559 L 1345,558 L 1345,545 L 1344,544 L 1344,542 L 1343,541 L 1343,540 L 1342,539 L 1342,538 L 1341,537 L 1341,536 L 1334,529 L 1333,529 L 1331,527 L 1330,527 L 1329,526 L 1328,526 L 1327,525 L 1325,525 L 1324,524 L 1320,524 L 1319,523 Z M 1314,542 L 1320,542 L 1321,543 L 1322,543 L 1325,546 L 1325,547 L 1326,548 L 1326,554 L 1325,555 L 1325,556 L 1322,559 L 1321,559 L 1320,560 L 1319,560 L 1318,561 L 1316,561 L 1315,560 L 1313,560 L 1312,559 L 1311,559 L 1310,558 L 1310,557 L 1309,556 L 1309,555 L 1308,554 L 1308,548 L 1309,547 L 1309,546 L 1312,543 L 1313,543 Z" fill="black" fill-rule="evenodd"/>
<path d="M 1164,523 L 1163,524 L 1160,524 L 1159,525 L 1157,525 L 1156,526 L 1155,526 L 1154,527 L 1153,527 L 1152,528 L 1151,528 L 1148,531 L 1147,531 L 1146,532 L 1146,533 L 1143,536 L 1143,537 L 1142,538 L 1142,539 L 1141,540 L 1141,541 L 1140,542 L 1140,545 L 1139,546 L 1139,556 L 1140,557 L 1140,559 L 1141,560 L 1141,562 L 1142,563 L 1142,564 L 1143,565 L 1143,566 L 1151,574 L 1152,574 L 1153,575 L 1154,575 L 1155,576 L 1156,576 L 1157,577 L 1159,577 L 1160,578 L 1174,578 L 1175,577 L 1177,577 L 1178,576 L 1179,576 L 1180,575 L 1181,575 L 1182,574 L 1183,574 L 1186,571 L 1187,571 L 1189,569 L 1189,568 L 1191,566 L 1191,565 L 1193,563 L 1193,561 L 1194,560 L 1194,558 L 1195,557 L 1195,545 L 1194,544 L 1194,542 L 1193,541 L 1193,540 L 1192,539 L 1192,538 L 1191,537 L 1191,536 L 1188,533 L 1188,532 L 1186,530 L 1185,530 L 1183,528 L 1182,528 L 1181,527 L 1180,527 L 1179,526 L 1178,526 L 1177,525 L 1175,525 L 1174,524 L 1171,524 L 1170,523 Z M 1163,542 L 1170,542 L 1171,543 L 1172,543 L 1175,546 L 1175,547 L 1176,548 L 1176,554 L 1175,555 L 1175,556 L 1173,558 L 1172,557 L 1173,558 L 1172,559 L 1171,559 L 1170,560 L 1164,560 L 1163,559 L 1162,559 L 1159,556 L 1159,555 L 1158,554 L 1158,548 L 1159,547 L 1159,546 Z" fill="black" fill-rule="evenodd"/>
<path d="M 1495,522 L 1491,522 L 1490,523 L 1490,527 L 1491,528 L 1492,528 L 1493,529 L 1494,528 L 1495,528 L 1497,526 L 1497,524 Z" fill="black" fill-rule="evenodd"/>
<path d="M 1341,524 L 1341,526 L 1343,528 L 1346,528 L 1347,527 L 1348,527 L 1348,523 L 1347,522 L 1343,522 Z" fill="black" fill-rule="evenodd"/>
<path d="M 1136,524 L 1136,526 L 1138,528 L 1141,528 L 1142,527 L 1143,527 L 1143,523 L 1142,522 L 1138,522 Z" fill="black" fill-rule="evenodd"/>
<path d="M 1438,521 L 1435,524 L 1435,526 L 1437,528 L 1440,528 L 1442,526 L 1442,524 L 1441,523 L 1441,522 L 1440,522 L 1439,521 Z" fill="black" fill-rule="evenodd"/>
<path d="M 1290,521 L 1289,522 L 1288,522 L 1286,524 L 1286,525 L 1287,526 L 1287,527 L 1288,528 L 1291,528 L 1292,527 L 1293,527 L 1293,523 L 1292,522 L 1291,522 Z" fill="black" fill-rule="evenodd"/>
<path d="M 1196,521 L 1194,521 L 1191,524 L 1191,526 L 1193,528 L 1194,528 L 1195,529 L 1196,528 L 1197,528 L 1198,527 L 1198,526 L 1199,525 L 1198,524 L 1198,523 Z" fill="black" fill-rule="evenodd"/>
<path d="M 1004,521 L 1003,522 L 1000,522 L 999,523 L 998,523 L 997,524 L 996,524 L 995,525 L 994,525 L 986,533 L 986,534 L 985,535 L 985,536 L 984,537 L 984,538 L 983,539 L 983,540 L 982,541 L 982,545 L 981,546 L 981,552 L 982,553 L 982,556 L 983,557 L 983,559 L 984,560 L 984,561 L 985,562 L 985,563 L 986,564 L 986,565 L 993,572 L 994,572 L 995,573 L 996,573 L 997,574 L 998,574 L 999,575 L 1000,575 L 1001,576 L 1005,576 L 1006,577 L 1014,577 L 1015,576 L 1018,576 L 1019,575 L 1021,575 L 1022,574 L 1023,574 L 1025,572 L 1026,572 L 1028,570 L 1029,570 L 1032,567 L 1032,566 L 1034,564 L 1034,563 L 1036,561 L 1036,559 L 1037,558 L 1037,556 L 1038,555 L 1038,543 L 1037,542 L 1037,540 L 1036,539 L 1036,537 L 1035,536 L 1035,535 L 1033,533 L 1033,532 L 1027,526 L 1026,526 L 1024,524 L 1023,524 L 1022,523 L 1020,523 L 1019,522 L 1017,522 L 1016,521 Z M 1008,539 L 1011,539 L 1012,540 L 1014,540 L 1018,544 L 1018,545 L 1019,546 L 1019,552 L 1018,553 L 1018,554 L 1015,557 L 1014,557 L 1013,558 L 1006,558 L 1001,553 L 1001,545 L 1002,544 L 1002,543 L 1004,541 L 1005,541 L 1006,540 L 1007,540 Z" fill="black" fill-rule="evenodd"/>
<path d="M 847,520 L 846,521 L 842,521 L 841,522 L 839,522 L 838,523 L 837,523 L 836,524 L 835,524 L 834,525 L 833,525 L 830,528 L 829,528 L 827,530 L 827,531 L 824,534 L 824,535 L 823,536 L 823,537 L 822,538 L 822,540 L 821,541 L 821,544 L 820,545 L 820,553 L 821,554 L 821,557 L 822,558 L 822,559 L 823,560 L 823,561 L 824,562 L 824,563 L 825,564 L 825,565 L 831,571 L 832,571 L 834,573 L 835,573 L 837,575 L 839,575 L 840,576 L 842,576 L 843,577 L 854,577 L 855,576 L 858,576 L 859,575 L 860,575 L 861,574 L 862,574 L 863,573 L 864,573 L 866,571 L 867,571 L 872,566 L 872,565 L 874,563 L 874,562 L 875,561 L 875,560 L 876,559 L 876,557 L 877,556 L 877,542 L 876,541 L 876,539 L 875,538 L 875,537 L 874,536 L 874,535 L 875,534 L 874,535 L 873,534 L 873,533 L 866,526 L 865,526 L 863,524 L 862,524 L 861,523 L 860,523 L 859,522 L 857,522 L 856,521 L 852,521 L 851,520 Z M 847,539 L 851,539 L 852,540 L 853,540 L 858,545 L 858,552 L 857,553 L 857,554 L 854,557 L 853,557 L 852,558 L 846,558 L 845,557 L 846,556 L 848,556 L 845,556 L 844,557 L 840,553 L 840,545 L 841,544 L 841,543 L 843,541 L 844,541 L 845,540 L 846,540 Z" fill="black" fill-rule="evenodd"/>
<path d="M 688,520 L 687,521 L 683,521 L 682,522 L 680,522 L 679,523 L 678,523 L 677,524 L 676,524 L 675,525 L 674,525 L 671,528 L 670,528 L 668,530 L 668,531 L 665,534 L 665,535 L 664,536 L 664,537 L 663,538 L 663,539 L 662,540 L 662,543 L 661,544 L 661,554 L 662,555 L 662,558 L 663,559 L 663,560 L 664,561 L 664,562 L 665,563 L 665,564 L 667,566 L 667,567 L 670,570 L 671,570 L 674,573 L 675,573 L 676,574 L 677,574 L 678,575 L 679,575 L 680,576 L 682,576 L 683,577 L 696,577 L 697,576 L 699,576 L 700,575 L 702,575 L 703,574 L 704,574 L 706,572 L 707,572 L 714,565 L 714,564 L 715,563 L 715,562 L 716,561 L 716,560 L 717,559 L 717,557 L 718,556 L 718,549 L 719,548 L 719,547 L 718,546 L 718,542 L 717,541 L 717,539 L 716,538 L 716,537 L 715,536 L 715,535 L 714,534 L 714,533 L 706,525 L 705,525 L 704,524 L 703,524 L 702,523 L 701,523 L 700,522 L 698,522 L 697,521 L 693,521 L 692,520 Z M 684,541 L 685,541 L 686,540 L 687,540 L 688,541 L 691,541 L 692,540 L 694,540 L 695,541 L 696,541 L 697,542 L 697,543 L 699,545 L 699,552 L 698,553 L 698,554 L 695,557 L 694,557 L 693,558 L 686,558 L 682,554 L 683,553 L 683,552 L 683,553 L 682,554 L 681,553 L 681,551 L 680,550 L 680,547 L 681,546 L 681,545 L 682,544 L 682,543 Z" fill="black" fill-rule="evenodd"/>
<path d="M 1037,519 L 1036,520 L 1035,520 L 1035,521 L 1034,522 L 1034,523 L 1035,524 L 1035,525 L 1036,525 L 1037,526 L 1039,526 L 1041,524 L 1041,520 L 1040,520 L 1039,519 Z" fill="black" fill-rule="evenodd"/>
<path d="M 875,519 L 873,521 L 873,523 L 875,525 L 878,525 L 880,523 L 880,521 L 878,519 Z" fill="black" fill-rule="evenodd"/>
<path d="M 717,519 L 715,521 L 715,524 L 716,525 L 720,525 L 721,524 L 721,520 L 720,519 Z" fill="black" fill-rule="evenodd"/>
<path d="M 982,518 L 981,519 L 980,519 L 979,520 L 979,523 L 981,525 L 984,525 L 986,523 L 986,520 L 985,519 L 984,519 L 983,518 Z" fill="black" fill-rule="evenodd"/>
<path d="M 821,518 L 820,519 L 819,519 L 819,520 L 818,521 L 818,523 L 820,525 L 823,525 L 825,523 L 825,520 L 824,519 L 823,519 L 822,518 Z" fill="black" fill-rule="evenodd"/>
<path d="M 662,518 L 661,519 L 660,519 L 660,520 L 659,521 L 659,523 L 661,525 L 664,525 L 666,523 L 666,520 L 664,518 Z" fill="black" fill-rule="evenodd"/>
<path d="M 1710,473 L 1708,475 L 1708,480 L 1709,481 L 1709,482 L 1709,481 L 1711,479 L 1712,479 L 1712,478 L 1711,477 L 1711,474 Z" fill="black" fill-rule="evenodd"/>
<path d="M 398,502 L 408,505 L 410,520 L 402,527 L 409,543 L 418,540 L 428,553 L 423,562 L 436,573 L 443,568 L 455,573 L 458,585 L 473,589 L 479,583 L 491,587 L 494,597 L 508,600 L 512,593 L 526,597 L 528,607 L 543,610 L 549,603 L 561,606 L 562,616 L 579,619 L 584,612 L 595,615 L 597,624 L 613,627 L 616,620 L 626,621 L 632,631 L 646,633 L 652,626 L 662,628 L 665,637 L 680,635 L 684,640 L 698,640 L 702,631 L 715,631 L 717,639 L 734,639 L 736,631 L 750,631 L 753,640 L 767,640 L 772,631 L 783,631 L 792,640 L 801,640 L 805,631 L 815,631 L 817,639 L 831,639 L 834,631 L 840,640 L 852,639 L 855,631 L 867,631 L 871,640 L 886,640 L 889,631 L 902,631 L 906,640 L 920,640 L 924,631 L 937,631 L 940,640 L 955,640 L 960,631 L 974,631 L 976,639 L 990,640 L 996,631 L 1010,631 L 1013,640 L 1030,639 L 1032,631 L 1046,631 L 1049,640 L 1064,640 L 1068,631 L 1082,631 L 1084,639 L 1096,640 L 1104,631 L 1116,631 L 1118,639 L 1135,639 L 1138,631 L 1148,631 L 1150,639 L 1167,639 L 1170,631 L 1180,631 L 1184,640 L 1199,639 L 1201,631 L 1213,631 L 1215,639 L 1241,633 L 1235,631 L 1247,631 L 1249,639 L 1266,639 L 1269,631 L 1281,631 L 1284,640 L 1299,640 L 1303,631 L 1312,631 L 1319,640 L 1326,640 L 1330,631 L 1357,640 L 1362,631 L 1374,631 L 1378,640 L 1391,640 L 1395,631 L 1406,631 L 1409,639 L 1427,639 L 1429,631 L 1440,631 L 1442,639 L 1459,639 L 1461,631 L 1474,631 L 1479,639 L 1494,637 L 1499,627 L 1509,625 L 1512,632 L 1528,628 L 1529,620 L 1542,614 L 1548,620 L 1564,616 L 1565,608 L 1578,602 L 1584,609 L 1600,604 L 1599,596 L 1613,590 L 1619,597 L 1637,589 L 1637,581 L 1650,577 L 1654,584 L 1671,577 L 1670,568 L 1683,562 L 1690,568 L 1704,558 L 1700,549 L 1710,537 L 1718,539 L 1726,524 L 1719,515 L 1722,502 L 1731,499 L 1731,481 L 1721,477 L 1720,445 L 1705,443 L 1696,420 L 1705,423 L 1703,432 L 1709,440 L 1718,438 L 1725,451 L 1733,449 L 1761,398 L 1745,381 L 1652,377 L 669,378 L 447,402 L 416,429 L 423,442 L 431,434 L 437,437 L 410,453 L 406,462 L 413,470 L 408,483 L 399,483 Z M 1002,620 L 1003,619 L 1015,619 L 1016,620 L 1015,621 L 1003,621 Z M 839,620 L 840,619 L 859,619 L 860,620 L 859,621 L 856,621 L 855,622 L 842,622 L 841,621 L 840,621 Z M 1345,616 L 1344,617 L 1344,618 L 1342,620 L 1332,620 L 1331,619 L 1332,618 L 1335,618 L 1336,617 L 1338,617 L 1339,618 L 1341,618 L 1339,618 L 1338,617 L 1339,616 L 1341,616 L 1342,615 L 1344,615 Z M 1137,615 L 1138,614 L 1139,614 L 1140,615 L 1141,615 L 1142,616 L 1144,616 L 1145,617 L 1144,618 L 1142,618 L 1145,618 L 1146,617 L 1148,617 L 1149,618 L 1153,618 L 1154,619 L 1153,620 L 1141,620 L 1140,619 L 1140,618 Z M 719,615 L 717,617 L 717,618 L 715,620 L 704,620 L 703,621 L 701,621 L 700,622 L 695,622 L 694,623 L 689,623 L 688,622 L 682,622 L 681,621 L 677,621 L 676,620 L 677,619 L 682,619 L 683,620 L 695,620 L 696,619 L 702,619 L 703,618 L 707,618 L 708,617 L 710,617 L 711,618 L 713,618 L 711,618 L 710,617 L 711,616 L 713,616 L 714,615 L 716,615 L 717,614 L 718,614 Z M 884,612 L 880,616 L 878,616 L 877,617 L 876,617 L 875,618 L 873,618 L 872,619 L 869,619 L 868,620 L 860,620 L 859,619 L 860,618 L 864,618 L 865,617 L 867,617 L 868,616 L 871,616 L 872,615 L 874,615 L 875,614 L 876,614 L 877,613 L 879,613 L 880,612 L 881,612 L 882,611 L 883,611 Z M 1428,611 L 1429,610 L 1430,610 L 1431,611 L 1432,611 L 1433,612 L 1434,612 L 1435,613 L 1436,613 L 1437,614 L 1438,614 L 1439,615 L 1441,615 L 1442,616 L 1444,616 L 1445,617 L 1446,617 L 1447,618 L 1451,618 L 1452,619 L 1451,620 L 1433,620 L 1432,619 L 1432,618 L 1431,617 L 1431,616 L 1430,615 L 1431,614 L 1433,614 L 1432,614 L 1431,613 L 1430,614 L 1429,613 L 1429,612 Z M 652,610 L 653,609 L 656,612 L 657,612 L 658,613 L 660,613 L 661,614 L 662,614 L 663,615 L 662,616 L 661,616 L 662,616 L 663,615 L 665,615 L 666,616 L 668,616 L 669,617 L 671,617 L 672,618 L 676,618 L 677,619 L 676,620 L 671,620 L 670,619 L 666,619 L 665,618 L 660,618 L 659,617 L 655,617 L 654,616 L 654,614 L 653,613 L 653,612 L 652,611 Z M 1509,607 L 1509,610 L 1508,611 L 1507,610 L 1506,610 L 1507,610 L 1508,611 L 1508,613 L 1505,616 L 1502,616 L 1501,617 L 1498,617 L 1497,618 L 1491,618 L 1490,619 L 1485,619 L 1484,618 L 1485,617 L 1487,617 L 1488,616 L 1490,616 L 1491,615 L 1493,615 L 1494,614 L 1495,614 L 1496,613 L 1497,613 L 1498,612 L 1499,612 L 1500,611 L 1501,611 L 1502,610 L 1503,610 L 1506,607 L 1507,607 L 1508,606 Z M 569,540 L 570,541 L 570,542 L 569,543 L 569,545 L 567,547 L 564,547 L 562,545 L 563,544 L 565,544 Z M 525,550 L 525,552 L 523,554 L 522,554 L 520,556 L 519,556 L 518,557 L 517,557 L 516,558 L 515,558 L 514,559 L 512,559 L 511,560 L 509,560 L 508,561 L 506,561 L 505,562 L 501,562 L 500,563 L 494,563 L 493,562 L 494,561 L 495,561 L 493,561 L 493,562 L 492,563 L 491,562 L 491,561 L 490,560 L 491,559 L 491,555 L 492,554 L 492,551 L 493,550 L 493,547 L 495,545 L 499,545 L 500,544 L 502,544 L 503,543 L 505,543 L 506,542 L 508,542 L 509,541 L 510,541 L 511,540 L 512,540 L 513,539 L 515,539 L 519,543 L 519,544 Z M 446,546 L 454,538 L 455,538 L 457,536 L 460,536 L 461,537 L 462,537 L 464,539 L 465,539 L 466,540 L 467,540 L 468,541 L 469,541 L 470,542 L 471,542 L 472,543 L 474,543 L 475,544 L 476,544 L 477,545 L 477,549 L 478,550 L 478,558 L 477,559 L 477,560 L 476,561 L 475,560 L 472,560 L 471,561 L 468,561 L 467,560 L 465,560 L 464,559 L 463,559 L 462,558 L 461,558 L 460,557 L 459,557 L 458,556 L 457,556 L 456,555 L 455,555 L 453,553 L 452,553 L 449,550 L 448,550 L 447,549 L 447,548 L 446,547 Z M 484,532 L 485,531 L 487,531 L 489,533 L 489,534 L 486,537 L 484,535 Z M 645,604 L 644,605 L 640,605 L 639,604 L 637,604 L 635,606 L 633,610 L 631,612 L 629,612 L 628,611 L 624,611 L 621,609 L 621,606 L 620,605 L 620,602 L 619,600 L 613,599 L 612,598 L 608,598 L 607,597 L 605,597 L 602,600 L 602,601 L 599,605 L 597,604 L 598,603 L 597,602 L 594,602 L 593,601 L 590,601 L 593,601 L 594,602 L 597,602 L 598,603 L 597,604 L 593,604 L 592,603 L 589,603 L 587,599 L 586,593 L 583,591 L 580,591 L 579,590 L 576,590 L 575,589 L 570,589 L 569,591 L 564,596 L 561,596 L 560,595 L 553,594 L 552,593 L 552,588 L 551,587 L 551,584 L 550,583 L 544,582 L 540,580 L 535,580 L 534,582 L 529,587 L 527,586 L 524,586 L 523,585 L 520,585 L 519,584 L 520,583 L 520,572 L 528,568 L 535,563 L 537,563 L 539,565 L 539,566 L 544,570 L 549,568 L 553,564 L 553,562 L 549,557 L 548,553 L 552,548 L 552,547 L 555,544 L 556,544 L 558,546 L 553,551 L 553,556 L 554,557 L 599,557 L 600,556 L 615,557 L 616,556 L 616,554 L 615,553 L 615,546 L 616,545 L 616,537 L 617,536 L 617,532 L 618,531 L 620,523 L 622,520 L 624,522 L 624,524 L 623,525 L 623,527 L 621,531 L 621,534 L 620,535 L 620,540 L 619,541 L 619,558 L 620,559 L 621,568 L 622,569 L 622,571 L 624,574 L 624,576 L 629,586 L 634,592 L 634,593 L 639,598 L 639,599 L 640,599 Z M 507,523 L 508,522 L 508,521 L 509,520 L 510,521 L 510,525 L 511,526 L 512,526 L 512,523 L 515,520 L 516,521 L 516,522 L 517,523 L 517,525 L 514,528 L 510,528 L 507,525 Z M 460,516 L 464,516 L 465,517 L 465,518 L 466,519 L 466,523 L 464,525 L 459,525 L 458,524 L 458,523 L 459,522 L 458,523 L 457,522 L 457,520 L 458,519 L 458,518 L 459,517 L 460,518 L 459,517 Z M 1378,514 L 1380,516 L 1380,517 L 1381,518 L 1381,519 L 1382,520 L 1382,521 L 1383,522 L 1383,523 L 1384,524 L 1384,526 L 1385,527 L 1385,529 L 1383,531 L 1382,530 L 1382,528 L 1381,527 L 1381,526 L 1380,525 L 1380,524 L 1379,523 L 1379,522 L 1378,521 L 1378,520 L 1377,519 L 1377,518 L 1376,517 L 1376,516 Z M 946,513 L 948,515 L 948,516 L 947,517 L 947,518 L 946,519 L 946,520 L 945,521 L 945,523 L 944,524 L 944,525 L 943,526 L 943,528 L 942,529 L 942,531 L 941,532 L 939,530 L 939,527 L 940,526 L 940,524 L 941,523 L 941,521 L 942,520 L 942,519 L 943,518 L 943,517 L 944,516 L 944,515 Z M 628,512 L 629,513 L 629,514 L 627,516 L 627,517 L 626,518 L 626,519 L 625,520 L 625,521 L 624,522 L 622,520 L 622,518 L 623,517 L 623,516 L 624,515 L 624,514 L 626,512 L 627,513 Z M 1525,511 L 1527,513 L 1527,514 L 1529,516 L 1529,517 L 1530,518 L 1530,519 L 1531,520 L 1531,521 L 1532,522 L 1532,524 L 1533,525 L 1533,526 L 1534,527 L 1534,530 L 1532,532 L 1531,531 L 1531,529 L 1530,528 L 1530,526 L 1529,525 L 1529,524 L 1528,523 L 1528,522 L 1527,521 L 1527,520 L 1526,519 L 1526,518 L 1525,517 L 1525,516 L 1523,514 L 1523,513 Z M 1408,511 L 1409,512 L 1409,513 L 1407,515 L 1406,518 L 1404,520 L 1404,521 L 1403,522 L 1403,524 L 1400,529 L 1400,531 L 1399,532 L 1399,536 L 1398,537 L 1398,541 L 1397,542 L 1397,561 L 1398,562 L 1398,567 L 1399,568 L 1399,570 L 1400,571 L 1401,576 L 1405,583 L 1405,585 L 1407,587 L 1407,588 L 1409,590 L 1409,591 L 1413,595 L 1413,596 L 1422,605 L 1423,605 L 1429,610 L 1428,611 L 1412,611 L 1407,620 L 1399,620 L 1397,618 L 1397,617 L 1395,614 L 1395,612 L 1393,610 L 1380,610 L 1379,611 L 1378,611 L 1378,612 L 1375,617 L 1375,619 L 1374,620 L 1367,620 L 1366,619 L 1367,618 L 1373,618 L 1368,618 L 1367,617 L 1366,618 L 1364,616 L 1362,611 L 1354,611 L 1353,610 L 1357,607 L 1358,607 L 1363,602 L 1364,602 L 1375,589 L 1376,590 L 1375,589 L 1375,588 L 1382,575 L 1382,573 L 1383,572 L 1384,573 L 1384,574 L 1384,573 L 1383,572 L 1383,569 L 1384,568 L 1384,563 L 1385,562 L 1385,555 L 1386,554 L 1386,547 L 1385,546 L 1385,540 L 1384,539 L 1384,535 L 1386,533 L 1387,534 L 1387,537 L 1388,538 L 1388,543 L 1389,544 L 1389,552 L 1390,553 L 1392,553 L 1393,552 L 1394,552 L 1394,539 L 1395,538 L 1395,535 L 1396,534 L 1396,532 L 1397,531 L 1397,529 L 1398,528 L 1399,523 L 1400,522 L 1403,515 L 1405,513 L 1405,512 L 1406,511 L 1407,512 Z M 552,508 L 554,510 L 554,513 L 553,514 L 553,516 L 552,517 L 552,519 L 551,520 L 551,522 L 550,523 L 550,524 L 549,525 L 549,526 L 548,527 L 548,528 L 547,529 L 547,530 L 546,531 L 546,532 L 543,535 L 543,536 L 540,539 L 538,537 L 536,537 L 536,538 L 539,538 L 540,539 L 538,541 L 536,541 L 534,539 L 534,538 L 530,534 L 530,533 L 527,530 L 527,529 L 526,528 L 527,527 L 527,526 L 530,523 L 530,522 L 531,521 L 531,520 L 532,519 L 532,518 L 533,517 L 533,516 L 534,515 L 534,513 L 535,512 L 535,511 L 537,509 L 539,509 L 540,508 Z M 426,500 L 430,500 L 431,501 L 435,501 L 436,502 L 440,502 L 441,503 L 441,505 L 442,506 L 442,510 L 443,511 L 443,513 L 444,514 L 444,515 L 445,516 L 445,518 L 446,519 L 446,520 L 447,521 L 447,522 L 448,523 L 437,534 L 436,534 L 435,535 L 433,533 L 433,532 L 431,530 L 431,529 L 430,528 L 430,527 L 429,526 L 429,525 L 428,524 L 428,523 L 427,522 L 427,520 L 426,519 L 426,516 L 425,515 L 425,512 L 424,511 L 424,506 L 423,505 L 423,503 Z M 1461,499 L 1470,499 L 1471,500 L 1476,500 L 1477,501 L 1480,501 L 1481,502 L 1483,502 L 1484,503 L 1485,503 L 1486,504 L 1487,504 L 1488,505 L 1489,505 L 1490,506 L 1493,507 L 1495,509 L 1496,509 L 1505,517 L 1505,518 L 1508,521 L 1508,522 L 1507,523 L 1508,524 L 1509,523 L 1510,524 L 1510,525 L 1511,526 L 1511,527 L 1514,532 L 1514,534 L 1515,535 L 1515,537 L 1516,538 L 1516,541 L 1517,542 L 1517,561 L 1516,562 L 1516,565 L 1515,566 L 1515,568 L 1513,571 L 1513,573 L 1512,574 L 1511,577 L 1509,579 L 1508,578 L 1509,579 L 1509,580 L 1507,582 L 1507,583 L 1504,586 L 1503,585 L 1504,586 L 1502,588 L 1501,587 L 1499,589 L 1500,590 L 1498,592 L 1497,592 L 1494,595 L 1493,595 L 1492,596 L 1491,596 L 1486,599 L 1484,599 L 1483,600 L 1481,600 L 1480,601 L 1478,601 L 1477,602 L 1473,602 L 1472,603 L 1460,603 L 1459,602 L 1454,602 L 1453,601 L 1451,601 L 1450,600 L 1448,600 L 1447,599 L 1445,599 L 1444,598 L 1443,598 L 1442,597 L 1439,596 L 1437,594 L 1436,594 L 1435,593 L 1436,592 L 1435,593 L 1434,592 L 1433,592 L 1426,585 L 1427,584 L 1426,583 L 1425,583 L 1422,580 L 1421,577 L 1419,575 L 1419,574 L 1418,573 L 1418,571 L 1416,568 L 1416,565 L 1415,564 L 1415,561 L 1414,560 L 1414,544 L 1415,543 L 1415,539 L 1416,538 L 1416,535 L 1417,534 L 1417,532 L 1418,531 L 1418,530 L 1419,529 L 1420,526 L 1424,521 L 1424,520 L 1425,519 L 1426,520 L 1427,519 L 1426,518 L 1435,509 L 1436,509 L 1438,507 L 1439,507 L 1440,506 L 1441,506 L 1442,505 L 1443,505 L 1448,502 L 1450,502 L 1451,501 L 1454,501 L 1455,500 L 1460,500 Z M 1366,499 L 1374,507 L 1374,508 L 1377,511 L 1377,512 L 1378,513 L 1378,514 L 1376,516 L 1374,514 L 1374,513 L 1372,511 L 1372,510 L 1366,504 L 1366,503 L 1364,501 Z M 1313,499 L 1321,499 L 1322,500 L 1327,500 L 1328,501 L 1331,501 L 1332,502 L 1334,502 L 1335,503 L 1337,503 L 1338,504 L 1341,505 L 1346,509 L 1347,509 L 1348,510 L 1347,511 L 1348,510 L 1351,513 L 1350,514 L 1351,513 L 1352,513 L 1357,518 L 1357,519 L 1360,522 L 1360,523 L 1362,525 L 1362,526 L 1365,531 L 1365,533 L 1366,534 L 1366,536 L 1367,537 L 1367,541 L 1368,542 L 1368,548 L 1369,549 L 1369,550 L 1368,551 L 1368,561 L 1367,562 L 1367,565 L 1366,566 L 1366,568 L 1365,569 L 1365,571 L 1364,572 L 1364,573 L 1363,574 L 1362,577 L 1358,582 L 1358,583 L 1355,586 L 1354,585 L 1351,588 L 1352,589 L 1348,593 L 1347,593 L 1345,595 L 1344,595 L 1339,598 L 1336,597 L 1337,597 L 1338,598 L 1335,600 L 1333,600 L 1332,601 L 1330,601 L 1329,602 L 1324,602 L 1323,603 L 1311,603 L 1310,602 L 1305,602 L 1304,601 L 1302,601 L 1301,600 L 1299,600 L 1298,599 L 1296,599 L 1295,598 L 1294,598 L 1293,597 L 1290,596 L 1288,594 L 1287,594 L 1284,591 L 1283,591 L 1276,584 L 1276,583 L 1272,578 L 1272,577 L 1269,572 L 1269,570 L 1268,569 L 1268,566 L 1267,565 L 1267,563 L 1266,562 L 1266,558 L 1265,557 L 1265,547 L 1266,546 L 1266,540 L 1267,539 L 1267,537 L 1268,536 L 1268,534 L 1269,533 L 1269,531 L 1270,530 L 1270,529 L 1271,528 L 1271,527 L 1272,526 L 1273,523 L 1276,520 L 1276,519 L 1285,510 L 1286,510 L 1289,507 L 1290,507 L 1291,506 L 1292,506 L 1297,503 L 1299,503 L 1300,502 L 1302,502 L 1303,501 L 1305,501 L 1306,500 L 1312,500 Z M 1161,499 L 1173,499 L 1174,500 L 1179,500 L 1180,501 L 1183,501 L 1186,503 L 1188,503 L 1189,504 L 1192,505 L 1194,507 L 1197,508 L 1202,513 L 1203,513 L 1206,516 L 1206,517 L 1209,520 L 1209,521 L 1211,523 L 1212,526 L 1214,528 L 1214,529 L 1215,530 L 1215,532 L 1216,533 L 1216,535 L 1217,536 L 1217,538 L 1218,539 L 1218,543 L 1219,544 L 1219,556 L 1218,557 L 1218,562 L 1217,563 L 1217,566 L 1216,567 L 1216,569 L 1215,570 L 1215,571 L 1214,572 L 1214,573 L 1213,574 L 1212,577 L 1210,579 L 1210,580 L 1208,582 L 1208,583 L 1198,593 L 1197,593 L 1196,592 L 1197,593 L 1195,595 L 1194,595 L 1193,594 L 1194,595 L 1193,596 L 1192,596 L 1187,599 L 1185,599 L 1182,601 L 1179,601 L 1178,602 L 1173,602 L 1172,603 L 1161,603 L 1160,602 L 1156,602 L 1155,601 L 1152,601 L 1151,600 L 1149,600 L 1148,599 L 1147,599 L 1146,598 L 1147,597 L 1146,598 L 1144,598 L 1142,596 L 1141,596 L 1140,595 L 1137,594 L 1133,590 L 1132,590 L 1128,586 L 1128,585 L 1125,582 L 1125,581 L 1123,579 L 1123,578 L 1121,576 L 1121,575 L 1120,574 L 1120,572 L 1119,571 L 1119,570 L 1118,569 L 1118,567 L 1117,566 L 1117,563 L 1116,562 L 1116,556 L 1115,555 L 1115,547 L 1116,546 L 1116,541 L 1117,540 L 1117,537 L 1118,536 L 1118,534 L 1119,533 L 1119,531 L 1120,530 L 1120,529 L 1121,528 L 1122,525 L 1126,520 L 1126,519 L 1136,509 L 1137,509 L 1142,505 L 1143,505 L 1146,503 L 1148,503 L 1149,502 L 1151,502 L 1152,501 L 1155,501 L 1156,500 L 1160,500 Z M 998,497 L 1003,497 L 1004,496 L 1016,496 L 1017,497 L 1021,497 L 1022,498 L 1025,498 L 1026,499 L 1028,499 L 1029,500 L 1031,500 L 1032,501 L 1035,502 L 1037,504 L 1038,504 L 1040,506 L 1041,506 L 1052,517 L 1052,518 L 1056,523 L 1056,524 L 1058,527 L 1058,529 L 1060,532 L 1060,534 L 1061,535 L 1061,540 L 1062,541 L 1062,558 L 1061,559 L 1061,563 L 1059,566 L 1059,568 L 1058,569 L 1058,571 L 1057,572 L 1057,573 L 1055,575 L 1054,578 L 1052,580 L 1052,581 L 1042,591 L 1041,591 L 1040,590 L 1041,591 L 1036,595 L 1035,595 L 1034,596 L 1032,596 L 1029,598 L 1027,598 L 1026,599 L 1024,599 L 1023,600 L 1020,600 L 1019,601 L 1000,601 L 999,600 L 996,600 L 995,599 L 993,599 L 992,598 L 990,598 L 989,597 L 986,596 L 985,595 L 986,594 L 985,595 L 984,595 L 981,593 L 982,592 L 983,592 L 982,592 L 981,593 L 980,592 L 979,592 L 976,589 L 975,589 L 970,584 L 970,583 L 967,580 L 967,579 L 965,577 L 965,576 L 964,575 L 964,574 L 963,573 L 963,572 L 960,567 L 960,565 L 959,564 L 959,561 L 958,560 L 958,555 L 957,554 L 957,544 L 958,543 L 958,538 L 959,537 L 959,535 L 960,534 L 960,532 L 961,531 L 961,529 L 962,528 L 962,527 L 963,526 L 963,525 L 964,524 L 965,521 L 967,519 L 967,518 L 971,514 L 971,513 L 980,505 L 981,505 L 983,503 L 984,503 L 989,500 L 991,500 L 992,501 L 991,500 L 992,499 L 994,499 L 995,498 L 997,498 Z M 837,497 L 842,497 L 843,496 L 855,496 L 856,497 L 861,497 L 862,498 L 864,498 L 865,499 L 867,499 L 868,500 L 870,500 L 871,501 L 874,502 L 876,504 L 879,505 L 883,509 L 884,509 L 890,515 L 890,516 L 893,519 L 894,522 L 896,524 L 896,525 L 897,526 L 897,528 L 899,531 L 899,533 L 900,534 L 900,537 L 901,538 L 901,543 L 902,544 L 902,552 L 901,553 L 901,560 L 900,561 L 900,563 L 899,564 L 899,566 L 898,567 L 898,569 L 897,570 L 897,571 L 896,572 L 896,573 L 895,574 L 894,577 L 892,579 L 892,580 L 880,592 L 879,592 L 877,594 L 876,594 L 875,595 L 874,595 L 869,598 L 867,598 L 866,599 L 864,599 L 863,600 L 860,600 L 859,601 L 839,601 L 838,600 L 835,600 L 834,599 L 832,599 L 831,598 L 829,598 L 828,597 L 827,597 L 826,596 L 825,596 L 824,595 L 821,594 L 820,593 L 821,592 L 820,591 L 819,592 L 818,592 L 815,589 L 814,589 L 809,584 L 809,583 L 806,580 L 806,579 L 804,577 L 804,576 L 803,575 L 803,574 L 802,573 L 802,572 L 799,567 L 799,565 L 798,564 L 798,561 L 797,560 L 797,556 L 796,555 L 796,544 L 797,543 L 797,538 L 798,537 L 798,534 L 799,533 L 799,531 L 800,530 L 800,529 L 801,528 L 801,527 L 802,526 L 802,525 L 803,524 L 804,521 L 806,519 L 806,518 L 810,514 L 810,513 L 815,508 L 816,508 L 819,505 L 820,505 L 822,503 L 823,503 L 828,500 L 830,500 L 831,499 L 833,499 L 834,498 L 836,498 Z M 686,496 L 695,496 L 696,497 L 702,497 L 703,498 L 706,498 L 707,499 L 709,499 L 710,500 L 711,500 L 712,501 L 717,503 L 719,505 L 720,505 L 722,507 L 723,507 L 733,517 L 733,518 L 737,523 L 737,524 L 739,527 L 739,529 L 740,530 L 740,532 L 741,533 L 741,535 L 742,536 L 742,540 L 743,541 L 743,557 L 742,558 L 742,562 L 741,563 L 741,565 L 740,566 L 740,568 L 739,569 L 739,570 L 738,571 L 736,576 L 734,578 L 734,579 L 731,582 L 731,583 L 727,587 L 726,586 L 727,587 L 724,590 L 723,590 L 720,593 L 717,594 L 715,596 L 714,596 L 711,598 L 709,598 L 708,597 L 707,597 L 708,597 L 709,598 L 708,599 L 706,599 L 705,600 L 703,600 L 702,601 L 697,601 L 696,602 L 684,602 L 683,601 L 678,601 L 677,600 L 675,600 L 674,599 L 672,599 L 671,598 L 669,598 L 662,594 L 663,593 L 664,593 L 661,594 L 659,592 L 660,591 L 659,590 L 658,591 L 657,591 L 655,589 L 656,588 L 654,586 L 653,587 L 647,581 L 647,580 L 645,578 L 645,577 L 646,576 L 645,577 L 643,575 L 643,574 L 641,571 L 641,569 L 640,568 L 640,566 L 641,565 L 641,564 L 641,565 L 640,566 L 639,565 L 639,563 L 638,562 L 638,559 L 637,558 L 637,541 L 638,540 L 638,536 L 639,535 L 639,533 L 641,530 L 641,528 L 642,527 L 644,522 L 648,517 L 648,516 L 653,511 L 654,512 L 656,510 L 655,509 L 657,507 L 658,507 L 659,508 L 658,507 L 663,503 L 664,503 L 669,500 L 671,500 L 672,499 L 674,499 L 675,498 L 678,498 L 679,497 L 685,497 Z M 1204,491 L 1206,492 L 1208,491 L 1210,493 L 1209,494 L 1211,493 L 1216,498 L 1215,499 L 1216,500 L 1217,499 L 1225,507 L 1229,513 L 1235,525 L 1236,531 L 1238,535 L 1238,538 L 1239,539 L 1239,552 L 1240,553 L 1244,553 L 1245,552 L 1245,540 L 1246,539 L 1246,535 L 1247,534 L 1250,523 L 1255,513 L 1260,506 L 1270,496 L 1277,491 L 1280,493 L 1273,498 L 1263,508 L 1261,512 L 1258,515 L 1252,527 L 1252,530 L 1251,531 L 1251,534 L 1249,539 L 1249,543 L 1248,544 L 1248,560 L 1249,561 L 1249,564 L 1250,565 L 1250,568 L 1251,569 L 1251,572 L 1252,573 L 1253,578 L 1257,586 L 1264,596 L 1273,605 L 1281,610 L 1283,612 L 1282,613 L 1283,612 L 1285,613 L 1280,620 L 1272,620 L 1270,618 L 1268,612 L 1264,610 L 1252,611 L 1247,620 L 1238,620 L 1235,615 L 1234,611 L 1232,610 L 1219,610 L 1217,612 L 1213,620 L 1205,620 L 1204,619 L 1205,618 L 1210,618 L 1205,618 L 1204,619 L 1200,613 L 1202,610 L 1205,609 L 1214,601 L 1215,601 L 1225,589 L 1231,578 L 1231,576 L 1234,570 L 1235,572 L 1234,567 L 1235,566 L 1235,562 L 1236,561 L 1236,542 L 1235,541 L 1234,532 L 1232,529 L 1230,522 L 1222,509 L 1210,497 L 1205,494 L 1203,492 Z M 1503,490 L 1504,490 L 1505,491 L 1504,492 L 1505,491 L 1506,492 L 1507,492 L 1508,493 L 1507,494 L 1508,493 L 1509,494 L 1510,494 L 1523,507 L 1523,508 L 1525,510 L 1525,511 L 1523,513 L 1521,511 L 1521,510 L 1508,497 L 1507,497 L 1504,494 L 1503,494 L 1501,492 Z M 1352,492 L 1354,490 L 1355,490 L 1356,491 L 1357,491 L 1359,493 L 1360,493 L 1364,497 L 1363,498 L 1364,499 L 1363,500 L 1362,500 L 1358,496 L 1357,496 L 1355,494 L 1354,494 Z M 1432,491 L 1430,493 L 1429,493 L 1427,495 L 1426,495 L 1424,497 L 1423,497 L 1411,509 L 1409,507 L 1410,506 L 1410,505 L 1420,495 L 1421,495 L 1424,492 L 1425,492 L 1427,490 L 1428,490 L 1429,491 L 1428,490 L 1429,489 L 1430,489 Z M 572,489 L 573,490 L 573,491 L 574,492 L 575,492 L 577,494 L 578,494 L 579,495 L 581,495 L 583,497 L 583,508 L 581,510 L 579,510 L 578,511 L 576,511 L 575,512 L 574,512 L 573,513 L 572,513 L 571,514 L 571,516 L 570,517 L 570,520 L 569,521 L 569,522 L 571,524 L 571,525 L 573,527 L 573,528 L 575,530 L 575,531 L 574,532 L 575,533 L 575,534 L 572,537 L 571,536 L 571,533 L 572,532 L 571,531 L 571,530 L 569,528 L 569,527 L 567,525 L 567,523 L 566,522 L 567,521 L 567,517 L 568,516 L 568,513 L 570,511 L 571,511 L 572,510 L 574,510 L 575,509 L 576,509 L 577,508 L 580,508 L 580,497 L 578,497 L 577,496 L 576,496 L 575,495 L 574,495 L 571,492 L 571,490 Z M 1438,488 L 1437,489 L 1436,489 L 1435,490 L 1434,490 L 1433,491 L 1432,491 L 1430,489 L 1431,488 L 1432,488 L 1434,486 L 1436,486 Z M 1195,488 L 1196,487 L 1197,487 L 1198,486 L 1199,486 L 1200,487 L 1199,488 L 1200,487 L 1201,487 L 1202,488 L 1201,489 L 1202,488 L 1203,488 L 1204,489 L 1205,489 L 1206,490 L 1205,491 L 1204,491 L 1203,492 L 1202,492 L 1201,491 L 1200,491 L 1199,490 L 1198,490 L 1197,489 L 1196,489 Z M 1049,486 L 1055,490 L 1068,503 L 1073,510 L 1079,522 L 1082,531 L 1083,543 L 1084,544 L 1083,545 L 1084,546 L 1084,551 L 1083,552 L 1084,553 L 1094,553 L 1095,552 L 1095,541 L 1096,540 L 1097,531 L 1102,520 L 1102,518 L 1109,507 L 1116,500 L 1117,501 L 1116,500 L 1126,491 L 1130,489 L 1133,491 L 1125,496 L 1112,509 L 1108,515 L 1101,530 L 1101,533 L 1099,538 L 1099,543 L 1098,544 L 1099,564 L 1105,582 L 1114,596 L 1121,603 L 1120,604 L 1121,603 L 1131,610 L 1130,611 L 1122,611 L 1117,620 L 1108,620 L 1105,615 L 1104,611 L 1102,610 L 1088,610 L 1084,618 L 1082,620 L 1072,620 L 1071,619 L 1072,618 L 1071,619 L 1070,618 L 1070,616 L 1066,610 L 1052,610 L 1049,613 L 1046,620 L 1036,620 L 1035,619 L 1036,618 L 1045,618 L 1036,618 L 1035,619 L 1034,617 L 1031,616 L 1037,614 L 1044,610 L 1047,611 L 1045,610 L 1055,603 L 1064,594 L 1075,576 L 1078,567 L 1079,558 L 1080,557 L 1080,542 L 1079,541 L 1079,535 L 1075,522 L 1065,505 L 1050,491 L 1051,490 L 1050,491 L 1045,488 Z M 813,487 L 814,488 L 813,489 L 812,489 L 810,491 L 809,491 L 807,493 L 806,493 L 793,506 L 793,507 L 790,510 L 790,511 L 788,513 L 788,514 L 787,515 L 787,516 L 786,517 L 786,518 L 785,519 L 785,520 L 784,521 L 784,523 L 783,524 L 783,525 L 782,526 L 781,525 L 781,524 L 780,523 L 780,522 L 781,521 L 782,522 L 781,521 L 781,519 L 782,518 L 782,517 L 783,516 L 783,515 L 784,514 L 784,513 L 786,511 L 786,510 L 788,508 L 788,507 L 790,505 L 790,504 L 798,496 L 799,497 L 802,494 L 801,493 L 803,491 L 804,491 L 807,488 L 808,488 L 810,486 L 811,486 L 812,487 Z M 652,486 L 654,488 L 652,490 L 651,490 L 649,492 L 648,492 L 645,495 L 644,495 L 637,502 L 637,503 L 633,507 L 633,508 L 630,511 L 630,512 L 629,513 L 628,512 L 627,513 L 626,512 L 626,511 L 627,510 L 627,509 L 629,507 L 629,506 L 634,501 L 634,500 L 641,493 L 642,493 L 645,490 L 646,490 L 647,489 L 648,490 L 649,489 L 648,488 L 649,487 L 650,487 L 651,488 L 650,487 L 651,486 Z M 980,485 L 979,486 L 978,486 L 977,487 L 976,487 L 974,489 L 973,489 L 971,491 L 970,491 L 968,493 L 967,493 L 962,498 L 961,498 L 958,501 L 958,502 L 954,506 L 954,507 L 951,510 L 951,511 L 949,513 L 947,511 L 947,510 L 949,508 L 949,507 L 951,505 L 951,504 L 955,500 L 956,501 L 955,500 L 957,498 L 957,497 L 958,496 L 959,496 L 965,490 L 966,490 L 968,488 L 969,488 L 971,486 L 972,486 L 973,485 L 974,485 L 975,484 L 976,484 L 977,483 L 978,483 Z M 882,483 L 890,487 L 900,496 L 901,496 L 909,505 L 909,506 L 913,511 L 918,521 L 918,523 L 921,530 L 922,540 L 923,541 L 923,553 L 924,554 L 926,554 L 927,553 L 936,553 L 936,541 L 937,540 L 937,535 L 938,534 L 938,531 L 939,530 L 941,532 L 940,545 L 939,546 L 939,549 L 940,550 L 940,560 L 941,561 L 943,572 L 948,582 L 947,584 L 948,583 L 953,591 L 960,599 L 959,600 L 960,599 L 971,608 L 974,609 L 978,612 L 976,614 L 973,620 L 963,620 L 961,618 L 959,614 L 959,612 L 956,610 L 943,610 L 941,611 L 938,618 L 937,619 L 936,618 L 937,619 L 936,620 L 927,620 L 926,619 L 926,617 L 921,610 L 916,610 L 915,611 L 908,610 L 906,612 L 902,620 L 895,620 L 891,616 L 889,611 L 886,611 L 885,610 L 891,605 L 892,605 L 904,593 L 904,592 L 907,589 L 908,586 L 910,584 L 915,574 L 916,568 L 918,564 L 918,558 L 919,557 L 919,552 L 920,551 L 920,548 L 919,547 L 919,538 L 918,537 L 917,530 L 916,529 L 916,527 L 915,526 L 915,524 L 913,521 L 912,517 L 910,515 L 907,509 L 900,501 L 900,500 L 892,493 L 887,490 L 885,488 L 886,487 L 884,488 L 883,487 L 884,486 L 883,487 L 881,486 L 882,485 L 881,484 Z M 723,483 L 725,484 L 724,485 L 726,484 L 727,485 L 726,486 L 728,485 L 733,488 L 736,491 L 737,491 L 740,494 L 739,495 L 740,494 L 749,503 L 749,504 L 753,509 L 754,512 L 756,514 L 759,520 L 759,522 L 762,529 L 763,536 L 764,537 L 765,554 L 766,555 L 768,554 L 771,554 L 772,555 L 773,554 L 774,555 L 775,554 L 775,541 L 776,540 L 776,535 L 777,534 L 777,531 L 778,530 L 779,525 L 780,524 L 782,526 L 782,528 L 780,532 L 779,545 L 778,546 L 778,551 L 779,552 L 779,560 L 780,561 L 780,565 L 781,566 L 782,572 L 784,575 L 784,577 L 788,585 L 790,587 L 792,591 L 797,596 L 797,597 L 807,606 L 821,614 L 821,615 L 817,620 L 809,620 L 807,618 L 804,611 L 789,611 L 786,616 L 786,618 L 784,620 L 775,620 L 772,614 L 772,612 L 769,610 L 756,610 L 754,612 L 750,620 L 741,620 L 739,618 L 736,611 L 727,611 L 726,610 L 735,603 L 736,603 L 744,595 L 744,594 L 748,590 L 749,587 L 751,585 L 757,573 L 757,571 L 759,567 L 759,564 L 760,563 L 760,558 L 761,557 L 761,540 L 760,539 L 760,534 L 759,533 L 758,527 L 756,524 L 756,522 L 752,514 L 750,512 L 748,508 L 744,504 L 744,503 L 736,495 L 735,495 L 732,492 L 731,492 L 726,488 L 723,487 L 721,485 Z M 1037,484 L 1038,483 L 1039,483 L 1040,482 L 1042,482 L 1043,483 L 1044,483 L 1045,484 L 1046,484 L 1048,486 L 1047,487 L 1046,487 L 1045,486 L 1044,487 L 1043,487 L 1042,486 L 1043,485 L 1042,486 L 1041,486 L 1040,485 L 1038,485 Z M 1436,486 L 1437,485 L 1438,485 L 1439,484 L 1441,484 L 1442,483 L 1444,483 L 1445,482 L 1447,482 L 1448,481 L 1452,481 L 1453,480 L 1458,480 L 1459,479 L 1472,479 L 1473,480 L 1478,480 L 1479,481 L 1483,481 L 1484,482 L 1487,482 L 1488,483 L 1490,483 L 1491,484 L 1492,484 L 1493,485 L 1495,485 L 1496,486 L 1497,486 L 1498,487 L 1497,488 L 1496,488 L 1495,489 L 1494,489 L 1493,488 L 1494,487 L 1493,488 L 1492,488 L 1491,487 L 1489,487 L 1488,486 L 1486,486 L 1485,485 L 1482,485 L 1481,484 L 1478,484 L 1477,483 L 1469,483 L 1468,482 L 1463,482 L 1462,483 L 1454,483 L 1453,484 L 1450,484 L 1449,483 L 1449,484 L 1448,485 L 1446,485 L 1445,486 L 1443,486 L 1442,487 L 1441,487 L 1440,488 L 1438,488 Z M 1287,486 L 1288,485 L 1290,485 L 1291,484 L 1292,484 L 1293,483 L 1295,483 L 1296,482 L 1299,482 L 1300,481 L 1304,481 L 1305,480 L 1310,480 L 1311,479 L 1324,479 L 1325,480 L 1330,480 L 1331,481 L 1334,481 L 1335,482 L 1338,482 L 1339,483 L 1341,483 L 1342,484 L 1344,484 L 1345,485 L 1346,485 L 1347,486 L 1346,487 L 1345,487 L 1344,488 L 1343,488 L 1342,487 L 1340,487 L 1339,486 L 1337,486 L 1336,485 L 1334,485 L 1333,484 L 1329,484 L 1328,483 L 1320,483 L 1319,482 L 1314,482 L 1313,483 L 1305,483 L 1304,484 L 1301,484 L 1300,485 L 1297,485 L 1296,486 L 1294,486 L 1293,487 L 1292,487 L 1291,488 L 1290,488 L 1289,487 L 1288,487 Z M 1134,487 L 1135,486 L 1136,486 L 1137,485 L 1138,485 L 1139,484 L 1141,484 L 1142,483 L 1144,483 L 1145,484 L 1144,483 L 1145,482 L 1148,482 L 1149,481 L 1152,481 L 1153,480 L 1157,480 L 1158,479 L 1177,479 L 1178,480 L 1182,480 L 1183,481 L 1186,481 L 1187,482 L 1190,482 L 1191,483 L 1192,483 L 1193,484 L 1195,484 L 1196,485 L 1197,485 L 1198,486 L 1197,487 L 1196,487 L 1195,488 L 1194,488 L 1193,487 L 1191,487 L 1190,486 L 1189,486 L 1188,485 L 1186,485 L 1185,484 L 1182,484 L 1181,483 L 1174,483 L 1173,482 L 1161,482 L 1160,483 L 1154,483 L 1153,484 L 1150,484 L 1149,485 L 1147,485 L 1146,486 L 1144,486 L 1143,487 L 1141,487 L 1140,486 L 1141,487 L 1140,488 L 1139,488 L 1138,489 L 1136,489 Z M 838,479 L 837,480 L 834,480 L 833,481 L 830,481 L 829,482 L 827,482 L 826,483 L 824,483 L 823,482 L 822,482 L 821,481 L 822,480 L 823,480 L 824,479 L 826,479 L 827,478 L 830,478 L 831,477 L 834,477 L 835,478 L 837,478 Z M 570,477 L 571,478 L 571,480 L 572,481 L 572,489 L 571,490 L 570,489 L 570,484 L 569,483 L 569,478 Z M 985,480 L 986,479 L 987,479 L 988,478 L 991,478 L 992,477 L 995,477 L 996,476 L 1001,476 L 1002,475 L 1017,475 L 1018,476 L 1023,476 L 1024,477 L 1028,477 L 1029,478 L 1032,478 L 1033,479 L 1035,479 L 1036,480 L 1037,480 L 1038,481 L 1037,482 L 1038,483 L 1037,484 L 1036,484 L 1035,483 L 1033,483 L 1032,482 L 1033,481 L 1034,481 L 1033,481 L 1032,482 L 1030,482 L 1029,481 L 1030,480 L 1031,480 L 1030,480 L 1029,481 L 1026,481 L 1025,480 L 1021,480 L 1020,479 L 1000,479 L 999,480 L 995,480 L 994,481 L 991,481 L 990,482 L 987,482 Z M 834,477 L 835,476 L 840,476 L 841,475 L 857,475 L 858,476 L 863,476 L 864,477 L 867,477 L 868,478 L 871,478 L 872,479 L 874,479 L 875,480 L 876,480 L 877,481 L 875,483 L 873,483 L 872,482 L 873,481 L 872,482 L 869,482 L 868,481 L 865,481 L 864,480 L 860,480 L 859,479 L 838,479 L 837,478 L 835,478 Z M 655,484 L 656,483 L 657,483 L 658,482 L 659,482 L 660,481 L 662,481 L 663,480 L 664,480 L 665,479 L 667,479 L 668,480 L 669,480 L 668,480 L 667,479 L 668,478 L 670,478 L 671,477 L 675,477 L 676,478 L 677,478 L 676,478 L 675,477 L 676,476 L 681,476 L 682,475 L 698,475 L 699,476 L 705,476 L 706,477 L 709,477 L 710,478 L 713,478 L 714,479 L 715,479 L 716,480 L 715,481 L 716,480 L 718,480 L 719,481 L 720,481 L 721,482 L 720,483 L 719,483 L 718,484 L 717,484 L 716,483 L 717,482 L 716,483 L 714,483 L 713,482 L 710,482 L 709,481 L 706,481 L 705,480 L 701,480 L 700,479 L 680,479 L 679,480 L 675,480 L 674,481 L 671,481 L 670,482 L 668,482 L 667,483 L 665,483 L 664,484 L 662,484 L 661,485 L 660,485 L 659,486 L 658,486 L 657,485 L 656,485 Z M 1634,470 L 1641,470 L 1642,471 L 1645,471 L 1646,472 L 1647,472 L 1649,474 L 1650,474 L 1655,479 L 1655,480 L 1657,482 L 1657,484 L 1658,485 L 1658,487 L 1659,488 L 1659,493 L 1658,494 L 1658,497 L 1657,498 L 1657,499 L 1656,500 L 1656,501 L 1655,502 L 1655,503 L 1651,507 L 1650,507 L 1648,509 L 1647,509 L 1646,510 L 1645,510 L 1644,511 L 1641,511 L 1640,512 L 1635,512 L 1634,511 L 1631,511 L 1630,510 L 1628,510 L 1627,509 L 1626,509 L 1619,502 L 1619,501 L 1618,500 L 1618,499 L 1617,498 L 1617,496 L 1616,495 L 1616,487 L 1617,486 L 1617,484 L 1618,483 L 1618,482 L 1619,481 L 1619,480 L 1626,473 L 1627,473 L 1628,472 L 1629,472 L 1630,471 L 1633,471 Z M 515,468 L 518,468 L 521,471 L 521,475 L 518,478 L 515,478 L 514,477 L 515,476 L 517,476 L 517,475 L 516,474 L 516,471 L 517,470 L 515,470 L 514,469 Z M 577,467 L 578,468 L 570,476 L 570,477 L 569,478 L 568,477 L 568,474 L 575,467 Z M 1565,465 L 1566,466 L 1566,467 L 1566,466 L 1567,465 L 1568,466 L 1569,466 L 1570,467 L 1571,466 L 1572,467 L 1572,469 L 1571,470 L 1571,473 L 1570,474 L 1570,476 L 1569,477 L 1569,482 L 1568,483 L 1568,500 L 1567,501 L 1566,500 L 1566,495 L 1566,497 L 1564,499 L 1563,499 L 1563,505 L 1564,506 L 1564,508 L 1565,507 L 1566,507 L 1567,506 L 1567,501 L 1568,500 L 1569,501 L 1569,505 L 1570,506 L 1570,509 L 1571,510 L 1571,512 L 1572,513 L 1572,515 L 1571,516 L 1570,515 L 1568,517 L 1567,517 L 1567,519 L 1566,520 L 1565,519 L 1565,517 L 1564,516 L 1564,514 L 1563,513 L 1563,511 L 1562,510 L 1562,507 L 1561,506 L 1561,501 L 1560,500 L 1560,482 L 1561,481 L 1561,477 L 1562,476 L 1563,477 L 1563,481 L 1565,483 L 1565,485 L 1566,486 L 1566,488 L 1566,482 L 1567,481 L 1567,477 L 1566,476 L 1565,476 L 1564,475 L 1564,474 L 1564,476 L 1563,477 L 1562,476 L 1562,472 L 1563,471 L 1563,469 L 1564,468 L 1564,466 Z M 465,465 L 469,465 L 472,468 L 472,471 L 469,474 L 468,474 L 467,475 L 465,475 L 462,472 L 462,468 Z M 1710,464 L 1715,484 L 1715,497 L 1712,513 L 1705,529 L 1696,541 L 1695,540 L 1694,541 L 1695,542 L 1683,553 L 1666,562 L 1650,566 L 1641,570 L 1636,569 L 1638,570 L 1637,571 L 1634,571 L 1630,567 L 1625,566 L 1617,568 L 1613,571 L 1613,579 L 1609,581 L 1606,580 L 1600,581 L 1595,576 L 1579,581 L 1578,591 L 1571,594 L 1568,593 L 1569,594 L 1568,595 L 1566,595 L 1565,594 L 1566,593 L 1565,594 L 1563,592 L 1564,591 L 1563,590 L 1562,591 L 1560,589 L 1555,589 L 1546,592 L 1543,594 L 1542,603 L 1531,607 L 1525,600 L 1521,600 L 1514,603 L 1512,602 L 1520,594 L 1526,585 L 1533,567 L 1535,549 L 1532,532 L 1534,530 L 1537,538 L 1538,552 L 1589,552 L 1575,537 L 1576,535 L 1577,536 L 1576,535 L 1578,534 L 1578,532 L 1575,536 L 1567,523 L 1570,520 L 1572,515 L 1576,522 L 1576,524 L 1573,525 L 1572,528 L 1574,528 L 1576,524 L 1582,533 L 1594,545 L 1603,551 L 1617,557 L 1626,559 L 1649,559 L 1663,555 L 1678,547 L 1696,529 L 1703,515 L 1704,519 L 1706,521 L 1708,516 L 1707,518 L 1703,515 L 1703,513 L 1705,509 L 1706,501 L 1707,500 L 1708,501 L 1708,506 L 1710,509 L 1712,500 L 1711,501 L 1709,499 L 1708,501 L 1707,500 L 1707,482 L 1703,466 L 1706,464 L 1708,465 L 1709,463 Z M 543,461 L 545,461 L 547,463 L 547,464 L 549,466 L 549,467 L 550,468 L 550,470 L 551,471 L 551,472 L 552,473 L 552,475 L 553,476 L 553,479 L 554,480 L 554,484 L 555,485 L 555,494 L 554,495 L 553,495 L 552,496 L 551,496 L 550,495 L 546,495 L 545,494 L 542,494 L 541,493 L 539,493 L 537,491 L 537,490 L 536,489 L 536,484 L 535,483 L 535,481 L 534,480 L 534,479 L 533,478 L 533,476 L 532,475 L 532,474 L 531,473 L 536,468 L 536,467 L 541,462 L 542,462 Z M 491,457 L 494,457 L 496,459 L 496,463 L 494,465 L 491,465 L 489,463 L 489,459 Z M 1570,454 L 1571,455 L 1571,456 L 1572,456 L 1573,457 L 1575,457 L 1576,458 L 1576,460 L 1575,461 L 1575,462 L 1574,463 L 1574,464 L 1573,465 L 1573,466 L 1572,467 L 1571,466 L 1571,465 L 1570,464 L 1570,463 L 1569,462 L 1568,462 L 1568,463 L 1567,464 L 1566,463 L 1566,461 L 1567,460 L 1567,459 L 1568,458 L 1568,457 L 1569,456 L 1569,455 Z M 572,454 L 574,454 L 575,455 L 575,456 L 576,457 L 576,459 L 577,460 L 577,461 L 578,462 L 578,465 L 579,466 L 579,467 L 578,468 L 576,466 L 576,465 L 575,464 L 575,463 L 574,462 L 574,460 L 573,459 L 573,457 L 571,455 Z M 442,454 L 447,459 L 447,460 L 449,462 L 449,463 L 451,465 L 451,468 L 449,470 L 449,471 L 448,472 L 448,473 L 447,474 L 447,475 L 446,476 L 446,477 L 445,478 L 445,479 L 444,480 L 444,482 L 443,483 L 443,485 L 441,487 L 427,487 L 425,485 L 425,481 L 426,480 L 426,477 L 427,476 L 427,474 L 428,473 L 428,472 L 429,471 L 429,470 L 430,469 L 430,468 L 431,467 L 431,466 L 432,465 L 432,464 L 434,462 L 434,461 L 436,459 L 436,458 L 440,454 Z M 501,435 L 502,434 L 502,433 L 503,432 L 504,433 L 507,433 L 508,434 L 511,434 L 512,435 L 513,435 L 514,436 L 516,436 L 517,437 L 518,437 L 519,438 L 520,438 L 521,439 L 522,439 L 524,441 L 525,441 L 527,443 L 528,443 L 534,449 L 529,454 L 528,454 L 525,457 L 524,457 L 522,459 L 520,459 L 519,458 L 520,457 L 521,457 L 520,457 L 519,458 L 518,458 L 516,456 L 515,456 L 514,455 L 513,455 L 512,454 L 511,454 L 510,453 L 509,453 L 508,452 L 507,452 L 506,451 L 504,451 L 503,450 L 502,450 L 501,449 Z M 488,433 L 488,436 L 487,437 L 487,441 L 486,442 L 486,446 L 485,447 L 485,448 L 484,449 L 480,449 L 479,450 L 476,450 L 475,451 L 473,451 L 472,452 L 471,452 L 470,453 L 468,453 L 467,454 L 466,454 L 465,453 L 466,454 L 465,455 L 464,455 L 455,446 L 455,445 L 454,444 L 454,443 L 458,439 L 459,439 L 460,438 L 461,438 L 462,437 L 463,437 L 464,436 L 466,436 L 467,435 L 469,435 L 470,434 L 472,434 L 473,433 L 476,433 L 477,432 L 483,432 L 484,431 L 486,431 Z M 1392,421 L 1394,421 L 1395,420 L 1403,420 L 1404,421 L 1405,421 L 1411,427 L 1411,429 L 1412,430 L 1412,437 L 1411,438 L 1411,440 L 1406,445 L 1405,445 L 1404,446 L 1402,446 L 1401,447 L 1396,447 L 1395,446 L 1394,446 L 1393,445 L 1394,444 L 1393,445 L 1392,445 L 1391,444 L 1390,444 L 1387,441 L 1387,440 L 1386,439 L 1386,438 L 1385,437 L 1385,430 L 1386,429 L 1386,428 L 1387,427 L 1387,426 Z M 743,420 L 752,420 L 753,421 L 754,421 L 760,427 L 760,428 L 761,429 L 761,438 L 760,439 L 760,440 L 758,442 L 757,441 L 755,443 L 756,444 L 755,445 L 754,445 L 753,446 L 752,446 L 751,447 L 744,447 L 743,446 L 741,446 L 739,444 L 738,444 L 736,442 L 736,441 L 735,440 L 735,439 L 734,438 L 734,429 L 735,428 L 735,427 L 741,421 L 742,421 Z M 1264,420 L 1266,420 L 1267,419 L 1274,419 L 1275,420 L 1277,420 L 1278,421 L 1279,421 L 1282,424 L 1282,425 L 1283,426 L 1283,427 L 1284,428 L 1284,430 L 1285,431 L 1285,435 L 1284,436 L 1284,438 L 1283,439 L 1283,440 L 1279,444 L 1278,444 L 1277,443 L 1278,444 L 1277,445 L 1276,445 L 1275,446 L 1267,446 L 1266,445 L 1264,445 L 1262,443 L 1261,443 L 1260,442 L 1260,441 L 1258,439 L 1258,438 L 1257,437 L 1257,428 L 1258,427 L 1258,426 Z M 1014,418 L 1017,418 L 1018,419 L 1021,419 L 1022,420 L 1023,420 L 1028,425 L 1028,426 L 1029,427 L 1029,430 L 1030,431 L 1030,434 L 1029,435 L 1029,438 L 1028,439 L 1028,440 L 1025,443 L 1024,443 L 1023,442 L 1024,443 L 1022,445 L 1021,445 L 1020,446 L 1012,446 L 1011,445 L 1009,445 L 1003,439 L 1003,437 L 1002,436 L 1002,428 L 1003,427 L 1003,426 L 1004,425 L 1004,424 L 1007,421 L 1008,421 L 1009,420 L 1010,420 L 1011,419 L 1013,419 Z M 523,410 L 523,412 L 522,413 L 521,413 L 521,414 L 519,416 L 518,416 L 516,418 L 515,417 L 516,418 L 514,421 L 511,421 L 510,420 L 511,419 L 513,419 L 511,419 L 510,418 L 509,418 L 510,418 L 511,419 L 510,420 L 507,420 L 504,418 L 504,417 L 502,415 L 502,408 L 483,408 L 483,411 L 485,413 L 486,413 L 487,414 L 487,415 L 486,416 L 482,416 L 482,417 L 481,418 L 479,418 L 478,419 L 474,419 L 473,420 L 470,420 L 469,419 L 468,419 L 469,419 L 470,420 L 469,421 L 465,421 L 463,419 L 463,417 L 462,416 L 462,415 L 461,414 L 458,414 L 457,415 L 456,415 L 455,416 L 453,416 L 452,417 L 451,417 L 450,418 L 449,418 L 448,419 L 447,419 L 445,421 L 444,421 L 444,423 L 445,424 L 445,425 L 447,427 L 446,428 L 446,430 L 445,431 L 444,430 L 445,431 L 443,433 L 442,433 L 441,432 L 439,432 L 441,434 L 438,436 L 437,435 L 434,435 L 433,434 L 434,433 L 435,433 L 440,428 L 441,428 L 441,426 L 439,423 L 439,421 L 442,418 L 443,418 L 446,416 L 448,416 L 449,415 L 450,415 L 451,414 L 452,414 L 453,413 L 454,413 L 457,411 L 459,411 L 460,412 L 462,412 L 461,412 L 460,411 L 461,410 L 463,410 L 465,412 L 465,413 L 466,414 L 466,415 L 467,416 L 468,416 L 469,415 L 473,415 L 474,414 L 478,414 L 479,413 L 479,408 L 481,406 L 504,406 L 505,407 L 505,411 L 506,412 L 515,412 L 516,411 L 518,411 L 518,406 L 519,405 L 520,405 L 521,406 L 521,408 Z M 540,404 L 544,404 L 545,405 L 545,409 L 555,409 L 556,408 L 556,405 L 557,404 L 558,404 L 559,403 L 560,404 L 560,409 L 561,410 L 562,410 L 563,411 L 562,412 L 560,412 L 557,415 L 555,415 L 553,417 L 552,416 L 548,416 L 551,416 L 552,417 L 551,418 L 546,418 L 545,419 L 545,420 L 546,421 L 546,422 L 547,422 L 552,427 L 552,428 L 553,429 L 553,435 L 554,435 L 555,436 L 555,437 L 552,440 L 552,443 L 556,447 L 556,448 L 558,450 L 558,451 L 561,454 L 562,454 L 563,455 L 570,455 L 571,456 L 570,457 L 562,457 L 561,456 L 560,456 L 559,455 L 558,455 L 557,454 L 557,453 L 555,451 L 555,450 L 552,447 L 552,446 L 549,443 L 549,441 L 550,440 L 550,436 L 549,435 L 549,434 L 550,433 L 550,431 L 551,430 L 550,429 L 550,428 L 549,428 L 546,425 L 546,424 L 544,424 L 543,425 L 542,425 L 541,426 L 540,426 L 538,428 L 538,429 L 537,430 L 536,430 L 535,431 L 534,430 L 533,430 L 530,427 L 530,425 L 529,424 L 529,420 L 528,419 L 528,418 L 529,417 L 532,417 L 535,414 L 541,414 L 541,410 L 540,409 L 540,406 L 539,405 Z M 1648,403 L 1649,402 L 1653,402 L 1654,403 L 1664,403 L 1665,404 L 1668,404 L 1670,406 L 1670,409 L 1669,410 L 1669,411 L 1670,412 L 1673,412 L 1674,413 L 1675,413 L 1676,414 L 1677,414 L 1678,415 L 1681,415 L 1685,411 L 1688,411 L 1689,412 L 1688,413 L 1687,413 L 1688,413 L 1689,414 L 1688,415 L 1685,415 L 1685,416 L 1683,418 L 1682,417 L 1679,420 L 1678,420 L 1677,419 L 1675,419 L 1674,418 L 1673,418 L 1672,417 L 1669,417 L 1668,416 L 1666,416 L 1664,414 L 1665,413 L 1665,407 L 1664,406 L 1660,406 L 1659,405 L 1652,405 L 1652,407 L 1651,408 L 1652,409 L 1651,410 L 1648,410 L 1647,409 L 1648,408 Z M 1570,453 L 1572,451 L 1572,450 L 1574,448 L 1574,447 L 1577,444 L 1577,443 L 1583,437 L 1584,438 L 1585,437 L 1584,436 L 1588,432 L 1589,432 L 1592,429 L 1593,429 L 1598,425 L 1599,425 L 1608,420 L 1610,420 L 1611,419 L 1613,419 L 1614,418 L 1615,418 L 1615,416 L 1613,416 L 1612,415 L 1609,415 L 1608,414 L 1609,413 L 1610,413 L 1610,403 L 1611,402 L 1613,402 L 1614,403 L 1614,407 L 1618,407 L 1619,406 L 1625,406 L 1624,405 L 1626,403 L 1627,403 L 1628,402 L 1630,402 L 1631,403 L 1631,410 L 1630,411 L 1627,411 L 1627,412 L 1626,413 L 1626,415 L 1648,415 L 1649,416 L 1654,416 L 1655,417 L 1658,417 L 1659,418 L 1661,418 L 1662,419 L 1667,420 L 1668,421 L 1677,425 L 1679,427 L 1680,427 L 1682,429 L 1683,429 L 1686,432 L 1687,432 L 1691,436 L 1690,437 L 1691,438 L 1692,437 L 1699,444 L 1699,445 L 1698,446 L 1699,447 L 1700,446 L 1704,451 L 1704,452 L 1709,461 L 1709,463 L 1708,464 L 1707,463 L 1707,462 L 1706,461 L 1705,461 L 1704,462 L 1703,462 L 1703,463 L 1702,464 L 1701,463 L 1699,458 L 1697,456 L 1696,453 L 1694,451 L 1694,450 L 1695,449 L 1697,449 L 1697,448 L 1696,448 L 1695,449 L 1694,448 L 1693,449 L 1682,438 L 1681,438 L 1675,433 L 1674,433 L 1663,427 L 1661,427 L 1660,426 L 1658,426 L 1657,425 L 1654,425 L 1653,424 L 1648,424 L 1647,423 L 1627,423 L 1626,424 L 1622,424 L 1621,425 L 1618,425 L 1617,426 L 1612,427 L 1609,429 L 1607,429 L 1605,431 L 1600,433 L 1598,435 L 1597,435 L 1595,437 L 1594,437 L 1583,448 L 1583,449 L 1580,452 L 1580,453 L 1576,458 L 1575,457 L 1575,455 L 1574,454 L 1572,454 L 1571,455 L 1570,454 Z M 1565,413 L 1566,412 L 1572,412 L 1573,411 L 1573,408 L 1572,407 L 1572,402 L 1573,401 L 1574,401 L 1576,403 L 1576,405 L 1577,406 L 1587,406 L 1588,405 L 1588,403 L 1589,402 L 1591,402 L 1592,403 L 1592,406 L 1593,407 L 1593,408 L 1594,409 L 1593,410 L 1591,410 L 1589,412 L 1589,413 L 1588,414 L 1585,414 L 1584,415 L 1584,416 L 1583,417 L 1578,417 L 1577,416 L 1576,416 L 1575,415 L 1576,414 L 1575,415 L 1574,414 L 1566,414 Z M 597,402 L 597,407 L 598,408 L 597,409 L 596,409 L 596,411 L 594,413 L 593,413 L 592,414 L 591,414 L 591,416 L 590,417 L 582,417 L 581,416 L 581,414 L 572,414 L 571,413 L 572,412 L 572,410 L 573,409 L 577,409 L 577,408 L 578,407 L 578,406 L 577,405 L 577,404 L 576,403 L 577,402 L 580,402 L 581,403 L 581,407 L 592,407 L 593,406 L 593,402 L 594,401 L 596,401 Z M 1526,412 L 1528,410 L 1533,410 L 1534,409 L 1534,402 L 1533,402 L 1532,401 L 1533,400 L 1537,400 L 1538,401 L 1538,405 L 1548,405 L 1549,406 L 1550,405 L 1550,403 L 1552,401 L 1554,401 L 1555,402 L 1554,403 L 1555,404 L 1555,408 L 1553,410 L 1553,411 L 1552,412 L 1551,412 L 1550,413 L 1549,412 L 1548,413 L 1547,413 L 1547,415 L 1546,416 L 1540,416 L 1539,415 L 1539,414 L 1538,413 L 1527,413 Z M 636,405 L 636,407 L 635,408 L 634,408 L 633,409 L 630,409 L 629,410 L 632,410 L 633,411 L 632,412 L 630,412 L 628,414 L 621,414 L 620,415 L 619,415 L 618,414 L 617,414 L 616,413 L 615,413 L 614,412 L 614,409 L 613,408 L 613,402 L 611,402 L 610,401 L 611,400 L 615,400 L 616,401 L 616,404 L 617,405 L 617,406 L 626,406 L 627,405 L 627,404 L 628,403 L 628,400 L 629,399 L 630,399 L 631,400 L 631,403 L 632,404 L 633,404 L 634,405 L 635,404 Z M 1488,411 L 1489,410 L 1495,410 L 1496,409 L 1497,409 L 1497,400 L 1496,400 L 1495,399 L 1496,398 L 1498,398 L 1499,399 L 1500,399 L 1502,401 L 1502,403 L 1513,403 L 1513,401 L 1515,399 L 1518,399 L 1519,400 L 1518,401 L 1517,401 L 1517,407 L 1516,408 L 1515,407 L 1516,408 L 1515,409 L 1513,409 L 1513,410 L 1512,411 L 1509,411 L 1506,414 L 1499,414 L 1498,413 L 1498,412 L 1489,412 Z M 1451,409 L 1452,408 L 1459,408 L 1459,403 L 1460,402 L 1460,400 L 1459,399 L 1460,398 L 1463,398 L 1464,399 L 1464,401 L 1465,402 L 1475,402 L 1475,401 L 1476,400 L 1476,399 L 1477,398 L 1478,398 L 1479,399 L 1478,400 L 1478,406 L 1479,407 L 1478,408 L 1475,408 L 1473,410 L 1471,410 L 1468,413 L 1462,413 L 1461,412 L 1460,412 L 1458,410 L 1452,410 Z M 645,399 L 646,398 L 649,398 L 651,400 L 651,403 L 656,403 L 657,402 L 658,402 L 659,403 L 660,402 L 661,402 L 661,399 L 662,398 L 664,398 L 665,399 L 665,405 L 666,406 L 665,407 L 664,407 L 663,408 L 661,408 L 660,409 L 660,410 L 659,411 L 659,412 L 658,413 L 657,412 L 657,411 L 655,411 L 654,412 L 655,413 L 654,414 L 653,414 L 652,413 L 652,412 L 651,412 L 650,411 L 646,411 L 645,410 L 645,408 L 646,407 L 648,407 L 648,401 L 647,400 L 646,400 Z M 1401,398 L 1401,403 L 1400,404 L 1397,404 L 1396,403 L 1393,403 L 1396,403 L 1397,404 L 1396,405 L 1391,405 L 1390,404 L 1390,401 L 1392,399 L 1393,400 L 1394,399 L 1395,400 L 1394,399 L 1395,398 L 1399,398 L 1400,397 Z M 1409,406 L 1410,405 L 1412,405 L 1412,404 L 1413,403 L 1413,402 L 1416,399 L 1416,397 L 1417,396 L 1418,396 L 1419,397 L 1422,397 L 1423,396 L 1426,396 L 1427,397 L 1427,402 L 1437,402 L 1438,401 L 1438,399 L 1440,397 L 1441,397 L 1442,398 L 1442,405 L 1441,406 L 1439,406 L 1438,407 L 1438,408 L 1437,409 L 1423,409 L 1422,410 L 1420,410 L 1419,411 L 1418,411 L 1417,410 L 1416,410 L 1415,409 L 1414,409 L 1413,408 L 1412,408 L 1411,407 L 1410,407 Z M 702,403 L 701,404 L 699,404 L 698,405 L 698,407 L 697,408 L 693,408 L 692,409 L 692,410 L 691,411 L 683,411 L 682,410 L 682,409 L 677,409 L 676,408 L 678,406 L 681,406 L 682,405 L 682,401 L 681,400 L 681,398 L 682,397 L 683,397 L 685,399 L 685,401 L 696,401 L 696,398 L 698,396 L 699,396 L 700,397 L 699,398 L 699,400 Z M 1353,395 L 1354,394 L 1357,394 L 1358,395 L 1358,399 L 1369,399 L 1369,396 L 1370,395 L 1373,395 L 1374,396 L 1373,397 L 1373,399 L 1375,401 L 1373,403 L 1372,403 L 1371,404 L 1371,405 L 1370,406 L 1367,406 L 1367,407 L 1365,409 L 1363,409 L 1362,408 L 1361,408 L 1360,407 L 1354,407 L 1353,406 L 1354,405 L 1354,396 Z M 739,401 L 738,402 L 736,402 L 736,403 L 735,404 L 736,405 L 734,407 L 733,407 L 732,408 L 731,408 L 730,409 L 729,409 L 728,408 L 727,408 L 728,408 L 729,409 L 727,411 L 725,409 L 725,408 L 724,408 L 723,407 L 713,407 L 712,406 L 713,405 L 718,405 L 718,403 L 717,402 L 717,397 L 716,396 L 717,395 L 720,395 L 721,396 L 721,399 L 732,399 L 733,398 L 733,395 L 734,394 L 736,394 L 737,395 L 737,399 Z M 1317,394 L 1318,393 L 1320,393 L 1322,395 L 1322,398 L 1323,399 L 1332,399 L 1334,397 L 1334,395 L 1335,394 L 1337,394 L 1338,395 L 1337,396 L 1337,397 L 1338,398 L 1338,399 L 1340,401 L 1339,402 L 1338,402 L 1337,403 L 1337,405 L 1336,406 L 1333,406 L 1333,407 L 1332,408 L 1325,408 L 1323,406 L 1319,406 L 1318,405 L 1319,404 L 1319,402 L 1318,401 L 1318,395 Z M 1279,393 L 1280,392 L 1281,393 L 1284,393 L 1285,394 L 1284,395 L 1284,398 L 1295,398 L 1295,397 L 1296,396 L 1296,394 L 1297,393 L 1300,393 L 1301,394 L 1300,395 L 1300,398 L 1301,399 L 1301,400 L 1298,403 L 1298,405 L 1297,406 L 1292,406 L 1291,407 L 1290,407 L 1290,408 L 1289,409 L 1287,407 L 1286,407 L 1285,406 L 1283,406 L 1282,405 L 1280,405 L 1279,404 L 1279,398 L 1280,397 L 1280,395 L 1279,394 Z M 1238,404 L 1240,402 L 1241,402 L 1242,403 L 1244,403 L 1242,403 L 1241,402 L 1241,393 L 1242,392 L 1245,392 L 1246,393 L 1246,397 L 1253,397 L 1254,398 L 1255,398 L 1256,397 L 1256,394 L 1258,392 L 1261,392 L 1262,393 L 1261,394 L 1261,396 L 1262,397 L 1262,399 L 1261,400 L 1261,401 L 1260,402 L 1258,402 L 1257,403 L 1257,404 L 1255,406 L 1254,406 L 1252,408 L 1251,408 L 1250,407 L 1251,408 L 1250,409 L 1249,409 L 1248,408 L 1248,406 L 1247,405 L 1239,405 Z M 1201,403 L 1202,402 L 1203,402 L 1203,393 L 1204,392 L 1206,392 L 1207,393 L 1207,397 L 1219,397 L 1219,395 L 1220,394 L 1220,393 L 1221,392 L 1222,392 L 1223,393 L 1223,395 L 1224,396 L 1224,397 L 1225,398 L 1223,400 L 1223,401 L 1221,403 L 1218,403 L 1218,405 L 1216,407 L 1210,407 L 1209,406 L 1208,406 L 1207,405 L 1205,405 L 1204,404 L 1202,404 Z M 781,399 L 780,400 L 778,400 L 776,402 L 774,402 L 772,404 L 772,405 L 771,406 L 768,406 L 767,407 L 766,407 L 766,408 L 765,409 L 764,408 L 763,408 L 762,407 L 761,407 L 760,406 L 758,406 L 757,405 L 755,405 L 754,404 L 755,403 L 756,403 L 756,396 L 755,395 L 754,395 L 753,394 L 754,393 L 758,393 L 760,395 L 760,397 L 761,398 L 771,398 L 772,397 L 772,394 L 774,392 L 775,392 L 776,393 L 776,394 L 777,395 L 776,396 L 775,396 L 776,396 L 777,395 Z M 1164,392 L 1165,391 L 1169,391 L 1170,392 L 1170,397 L 1181,397 L 1181,395 L 1182,394 L 1182,392 L 1183,391 L 1185,393 L 1185,394 L 1186,395 L 1186,397 L 1187,398 L 1187,399 L 1183,403 L 1180,403 L 1179,404 L 1179,405 L 1178,406 L 1171,406 L 1170,405 L 1170,404 L 1165,404 L 1164,403 L 1164,402 L 1165,401 L 1164,400 L 1164,398 L 1165,397 L 1165,393 Z M 1123,403 L 1124,402 L 1126,402 L 1126,393 L 1125,392 L 1126,391 L 1130,391 L 1131,392 L 1131,396 L 1132,397 L 1141,397 L 1142,396 L 1142,393 L 1144,391 L 1146,391 L 1147,392 L 1147,394 L 1150,397 L 1149,398 L 1150,397 L 1151,398 L 1151,399 L 1150,400 L 1148,400 L 1147,401 L 1146,401 L 1146,402 L 1145,403 L 1142,403 L 1141,404 L 1141,405 L 1140,406 L 1132,406 L 1131,405 L 1131,404 L 1124,404 Z M 1085,392 L 1086,391 L 1088,391 L 1089,392 L 1089,396 L 1102,396 L 1102,392 L 1103,391 L 1107,391 L 1108,392 L 1108,394 L 1109,395 L 1109,396 L 1110,397 L 1110,399 L 1109,400 L 1108,399 L 1108,398 L 1107,399 L 1108,400 L 1107,401 L 1106,401 L 1106,402 L 1105,403 L 1103,403 L 1102,402 L 1103,403 L 1102,404 L 1101,404 L 1101,405 L 1100,406 L 1093,406 L 1091,404 L 1086,404 L 1085,403 Z M 1042,395 L 1043,394 L 1043,393 L 1044,392 L 1045,393 L 1045,394 L 1046,395 L 1048,395 L 1048,392 L 1049,391 L 1050,392 L 1050,395 L 1051,396 L 1053,396 L 1054,397 L 1062,397 L 1063,396 L 1064,396 L 1064,392 L 1065,391 L 1067,391 L 1068,392 L 1068,394 L 1069,395 L 1069,396 L 1070,397 L 1070,399 L 1069,400 L 1067,400 L 1066,401 L 1066,402 L 1065,403 L 1062,403 L 1061,404 L 1061,405 L 1060,406 L 1057,406 L 1056,405 L 1056,404 L 1055,403 L 1047,403 L 1046,402 L 1046,400 L 1044,398 L 1044,397 Z M 1014,395 L 1014,397 L 1012,399 L 1011,399 L 1010,400 L 1009,400 L 1008,401 L 1007,401 L 1006,402 L 1006,403 L 1005,404 L 1003,404 L 1002,405 L 1001,405 L 1000,406 L 999,406 L 998,405 L 998,404 L 993,404 L 992,403 L 993,402 L 997,402 L 997,396 L 998,395 L 1000,395 L 1001,396 L 1004,396 L 1005,395 L 1006,395 L 1006,394 L 1007,393 L 1007,392 L 1008,391 L 1010,391 Z M 961,403 L 962,402 L 963,402 L 965,400 L 965,392 L 966,391 L 970,391 L 971,392 L 971,395 L 972,396 L 977,396 L 977,394 L 978,393 L 978,392 L 979,391 L 980,391 L 981,392 L 980,393 L 981,392 L 982,393 L 982,394 L 983,395 L 983,396 L 984,397 L 984,398 L 983,399 L 982,399 L 981,400 L 980,400 L 978,402 L 977,402 L 975,404 L 972,404 L 972,405 L 971,406 L 966,406 L 965,405 L 965,404 L 962,404 Z M 948,391 L 949,392 L 949,393 L 950,394 L 950,395 L 951,396 L 951,397 L 949,399 L 948,399 L 946,401 L 946,402 L 945,403 L 944,402 L 944,401 L 943,402 L 942,401 L 940,401 L 939,402 L 944,402 L 945,403 L 944,404 L 938,404 L 937,403 L 937,401 L 939,399 L 939,397 L 941,395 L 942,395 L 942,394 L 943,393 L 943,392 L 944,391 Z M 908,392 L 909,391 L 912,391 L 913,392 L 913,396 L 921,396 L 922,395 L 923,395 L 923,392 L 924,391 L 925,391 L 926,392 L 926,395 L 927,396 L 927,400 L 926,401 L 926,404 L 925,405 L 925,406 L 924,407 L 923,407 L 922,406 L 917,406 L 916,405 L 916,404 L 915,403 L 910,403 L 909,402 L 908,402 L 907,401 L 908,400 L 910,400 L 911,401 L 910,400 L 908,400 L 907,399 L 908,398 L 908,396 L 909,395 L 909,393 Z M 870,392 L 871,391 L 872,391 L 873,392 L 873,395 L 874,396 L 888,396 L 887,396 L 886,395 L 886,392 L 887,391 L 890,391 L 891,392 L 891,394 L 895,398 L 895,399 L 894,400 L 892,400 L 892,402 L 891,403 L 888,403 L 887,404 L 887,405 L 886,406 L 876,406 L 875,405 L 875,404 L 874,403 L 871,403 L 870,402 Z M 831,392 L 832,391 L 836,391 L 837,392 L 837,396 L 838,397 L 849,397 L 849,393 L 851,391 L 852,391 L 853,392 L 853,394 L 854,395 L 854,396 L 856,398 L 855,399 L 854,399 L 853,400 L 853,402 L 852,403 L 849,403 L 848,404 L 848,405 L 847,406 L 845,406 L 844,405 L 842,405 L 841,406 L 840,406 L 839,407 L 837,405 L 836,405 L 835,404 L 833,404 L 832,403 L 833,402 L 833,400 L 832,400 L 831,399 L 831,398 L 832,397 L 832,393 Z M 814,393 L 814,395 L 815,396 L 815,400 L 813,402 L 812,402 L 811,403 L 808,403 L 808,406 L 807,407 L 799,407 L 797,405 L 793,405 L 792,404 L 793,403 L 794,403 L 795,402 L 795,393 L 796,392 L 797,392 L 798,393 L 798,396 L 799,397 L 810,397 L 811,396 L 810,395 L 811,394 L 811,392 L 812,391 Z M 1108,391 L 1109,390 L 1124,390 L 1125,391 L 1124,392 L 1109,392 Z M 1012,391 L 1013,390 L 1033,390 L 1034,391 L 1033,392 L 1030,392 L 1030,394 L 1031,395 L 1031,399 L 1035,403 L 1035,406 L 1034,407 L 1033,407 L 1032,406 L 1031,406 L 1030,405 L 1029,405 L 1028,404 L 1026,404 L 1025,403 L 1024,403 L 1023,402 L 1024,401 L 1024,400 L 1025,399 L 1025,397 L 1026,396 L 1026,394 L 1027,393 L 1028,393 L 1028,392 L 1013,392 Z" fill="black" fill-rule="evenodd"/>
<path d="M 1633,303 L 1633,350 L 1665,350 L 1666,351 L 1720,351 L 1721,352 L 1736,352 L 1737,351 L 1740,351 L 1740,349 L 1741,348 L 1751,348 L 1755,344 L 1755,335 L 1752,332 L 1750,332 L 1749,331 L 1747,331 L 1746,330 L 1743,330 L 1742,329 L 1742,328 L 1742,342 L 1741,343 L 1740,342 L 1740,302 L 1634,302 Z" fill="black" fill-rule="evenodd"/>
<path d="M 1798,407 L 1762,361 L 1736,354 L 1631,353 L 1630,309 L 1593,303 L 1588,281 L 1593,279 L 1593,270 L 1575,267 L 1571,270 L 1575,281 L 1572,298 L 1294,286 L 1279,293 L 1278,348 L 1276,293 L 765,293 L 655,287 L 648,291 L 633,322 L 625,357 L 577,362 L 570,356 L 577,342 L 576,331 L 558,326 L 551,333 L 537,333 L 537,340 L 551,340 L 560,350 L 553,364 L 470,372 L 436,364 L 431,380 L 388,424 L 405,434 L 444,401 L 659,375 L 1323,370 L 1731,375 L 1748,380 L 1783,415 Z M 1325,324 L 1326,323 L 1384,323 L 1385,324 L 1435,324 L 1436,325 L 1436,329 L 1435,330 L 1435,334 L 1436,335 L 1436,338 L 1435,339 L 1435,347 L 1436,348 L 1434,350 L 1432,348 L 1433,347 L 1433,340 L 1432,339 L 1432,326 L 1328,326 L 1327,327 L 1328,328 L 1328,340 L 1327,341 L 1327,346 L 1328,347 L 1328,348 L 1327,349 L 1326,349 L 1325,348 Z M 840,318 L 843,315 L 885,315 L 887,317 L 887,318 L 888,319 L 888,338 L 886,340 L 848,340 L 847,341 L 846,341 L 846,342 L 845,343 L 845,345 L 844,346 L 844,348 L 845,349 L 845,350 L 844,351 L 842,351 L 841,350 L 841,349 L 842,348 L 842,343 L 843,342 L 843,340 L 840,337 Z M 705,316 L 708,313 L 749,313 L 752,316 L 752,334 L 749,337 L 732,337 L 731,336 L 724,336 L 723,337 L 715,337 L 714,336 L 707,336 L 705,334 Z" fill="black" fill-rule="evenodd"/>
<path d="M 1326,273 L 1326,283 L 1348,283 L 1349,284 L 1378,284 L 1379,285 L 1405,285 L 1406,286 L 1432,286 L 1433,287 L 1459,287 L 1460,288 L 1485,288 L 1486,289 L 1519,289 L 1519,279 L 1518,278 L 1517,275 L 1516,275 L 1514,273 L 1512,273 L 1511,272 L 1489,272 L 1488,271 L 1456,271 L 1455,270 L 1430,270 L 1429,269 L 1404,269 L 1403,268 L 1376,268 L 1375,267 L 1349,267 L 1348,266 L 1334,266 L 1333,267 L 1331,267 L 1330,268 L 1329,268 Z" fill="black" fill-rule="evenodd"/>
<path d="M 511,202 L 511,225 L 513,227 L 537,227 L 539,229 L 544,229 L 549,225 L 563,225 L 565,222 L 600,222 L 601,223 L 650,223 L 651,224 L 679,224 L 681,227 L 683,227 L 684,228 L 705,228 L 706,227 L 705,225 L 705,199 L 697,199 L 696,200 L 682,200 L 680,201 L 678,204 L 636,204 L 635,205 L 581,205 L 580,206 L 566,206 L 563,202 L 550,202 L 546,200 L 544,198 L 538,198 L 537,199 L 514,199 Z M 520,208 L 521,207 L 530,207 L 532,209 L 532,218 L 531,219 L 521,219 L 520,218 Z" fill="black" fill-rule="evenodd"/>
<path d="M 825,154 L 798,154 L 797,155 L 796,155 L 794,157 L 794,159 L 793,160 L 790,167 L 788,169 L 787,172 L 785,174 L 785,175 L 779,183 L 778,186 L 776,188 L 775,187 L 764,187 L 763,188 L 753,188 L 752,189 L 713,189 L 712,190 L 711,190 L 708,194 L 708,233 L 709,234 L 709,235 L 713,238 L 756,238 L 757,239 L 773,239 L 774,240 L 773,241 L 774,240 L 775,241 L 775,242 L 776,243 L 776,245 L 777,246 L 777,247 L 780,252 L 780,254 L 782,257 L 782,259 L 781,260 L 781,261 L 781,260 L 782,259 L 783,260 L 783,261 L 784,262 L 784,264 L 786,267 L 795,267 L 795,258 L 796,257 L 796,242 L 797,241 L 797,231 L 798,230 L 798,223 L 799,222 L 799,216 L 800,215 L 801,208 L 802,207 L 803,202 L 805,199 L 805,197 L 807,194 L 807,192 L 809,189 L 809,187 L 811,184 L 811,182 L 813,179 L 813,177 L 815,174 L 815,172 L 817,169 L 817,167 L 818,166 L 820,161 L 824,157 Z" fill="black" fill-rule="evenodd"/>
<path d="M 1009,135 L 1006,132 L 1005,132 L 1004,131 L 1001,131 L 1000,132 L 989,132 L 988,133 L 979,133 L 978,134 L 968,134 L 967,135 L 966,135 L 964,137 L 964,142 L 966,142 L 967,141 L 979,141 L 980,140 L 990,140 L 991,139 L 1003,139 L 1004,138 L 1009,138 Z" fill="black" fill-rule="evenodd"/>
<path d="M 1293,263 L 1266,162 L 1266,151 L 1262,146 L 1234,138 L 1225,138 L 1223,136 L 1225,132 L 1230,130 L 1232,125 L 1230,121 L 1231,98 L 1229,96 L 1212,92 L 1179,94 L 1072,92 L 1063,95 L 1059,100 L 1059,127 L 1062,131 L 1067,133 L 1068,136 L 1066,138 L 1043,138 L 997,143 L 983,142 L 985,143 L 839,155 L 828,159 L 821,167 L 820,166 L 821,169 L 818,176 L 816,176 L 816,182 L 808,200 L 807,198 L 808,202 L 806,206 L 804,206 L 805,210 L 802,222 L 797,273 L 799,276 L 798,278 L 809,288 L 1260,289 L 1263,278 L 1284,276 L 1293,268 Z M 1046,195 L 1048,193 L 1049,194 L 1048,193 L 1050,191 L 1052,191 L 1053,190 L 1117,190 L 1118,191 L 1120,191 L 1122,193 L 1122,194 L 1121,195 L 1122,194 L 1123,195 L 1123,196 L 1124,197 L 1124,216 L 1123,217 L 1123,218 L 1119,222 L 1116,222 L 1115,221 L 1114,221 L 1115,222 L 1114,223 L 1083,223 L 1082,222 L 1070,222 L 1069,223 L 1054,223 L 1053,222 L 1050,222 L 1048,220 L 1049,219 L 1048,220 L 1047,219 L 1047,218 L 1046,217 Z M 1080,135 L 1081,134 L 1110,134 L 1111,133 L 1186,133 L 1187,134 L 1210,134 L 1211,135 L 1210,136 L 1206,136 L 1205,137 L 1185,137 L 1184,138 L 1111,138 L 1110,137 L 1089,137 L 1088,136 L 1081,136 Z" fill="black" fill-rule="evenodd"/>
<path d="M 1070,90 L 1123,90 L 1124,89 L 1167,89 L 1168,90 L 1220,90 L 1220,86 L 1221,85 L 1221,83 L 1220,82 L 1220,81 L 1217,78 L 1215,78 L 1214,77 L 1206,77 L 1205,76 L 1196,76 L 1195,75 L 1184,75 L 1183,74 L 1166,74 L 1165,73 L 1127,73 L 1126,74 L 1110,74 L 1109,75 L 1097,75 L 1096,76 L 1087,76 L 1086,77 L 1078,77 L 1077,78 L 1074,78 L 1073,79 L 1072,79 L 1070,82 Z" fill="black" fill-rule="evenodd"/>
</svg>