<svg xmlns="http://www.w3.org/2000/svg" width="2172" height="724" viewBox="0 0 2172 724">
<rect width="100%" height="100%" fill="white"/>
<path d="M 106,241 L 108,469 L 146,521 L 194,543 L 210,538 L 206,506 L 226,492 L 228,423 L 261,409 L 272,388 L 501,388 L 509,404 L 524,404 L 529,392 L 533,399 L 531,388 L 934,388 L 931,401 L 965,424 L 935,543 L 949,552 L 1012,552 L 1020,545 L 1014,523 L 1024,509 L 1026,459 L 1040,444 L 1109,450 L 1127,442 L 1135,387 L 1359,388 L 1362,404 L 1364,388 L 1335,497 L 1338,518 L 1367,524 L 1396,512 L 1414,412 L 1434,407 L 1420,400 L 1422,388 L 1500,388 L 1508,404 L 1523,404 L 1528,391 L 1531,399 L 1531,388 L 1745,390 L 1836,408 L 1929,408 L 1922,410 L 1940,411 L 1949,434 L 1969,435 L 1975,414 L 1988,407 L 2075,402 L 2080,366 L 2074,278 L 1975,267 L 1973,245 L 1948,247 L 1940,269 L 1921,270 L 1929,272 L 1834,272 L 1736,291 L 1530,292 L 1507,283 L 1494,292 L 1178,292 L 1179,272 L 1034,214 L 1000,173 L 973,182 L 955,293 L 531,293 L 519,283 L 502,293 L 413,293 L 409,279 L 351,279 L 346,291 L 323,291 L 347,293 L 272,293 L 261,276 L 226,269 L 226,196 L 206,185 L 201,145 L 163,156 L 124,189 Z M 1023,401 L 1027,401 L 1028,400 L 1046,400 L 1047,401 L 1047,402 L 1048,402 L 1049,403 L 1049,408 L 1048,409 L 1048,414 L 1049,415 L 1049,418 L 1050,419 L 1050,421 L 1051,422 L 1051,424 L 1052,425 L 1052,426 L 1053,427 L 1053,428 L 1054,429 L 1054,430 L 1055,431 L 1055,432 L 1058,435 L 1058,436 L 1060,438 L 1060,440 L 1061,440 L 1062,441 L 1061,442 L 1043,442 L 1042,443 L 1042,444 L 1041,445 L 1040,444 L 1040,443 L 1038,443 L 1037,444 L 1037,446 L 1036,447 L 1035,446 L 1035,443 L 1034,444 L 1033,443 L 1033,442 L 1032,442 L 1031,441 L 1032,440 L 1034,440 L 1032,440 L 1031,441 L 1029,439 L 1029,438 L 1028,437 L 1029,436 L 1029,435 L 1031,433 L 1031,432 L 1028,432 L 1027,431 L 1027,432 L 1026,433 L 1025,432 L 1025,414 L 1024,413 L 1024,412 L 1023,411 L 1024,410 L 1021,407 L 1021,403 Z M 1064,405 L 1065,404 L 1066,405 L 1066,408 L 1067,407 L 1068,408 L 1069,407 L 1067,405 L 1066,405 L 1065,404 L 1066,403 L 1066,402 L 1073,395 L 1074,395 L 1076,393 L 1077,393 L 1078,392 L 1111,392 L 1112,393 L 1111,394 L 1109,394 L 1111,394 L 1112,393 L 1114,393 L 1117,395 L 1116,396 L 1114,396 L 1116,396 L 1117,397 L 1118,396 L 1121,399 L 1118,402 L 1119,402 L 1120,401 L 1121,402 L 1121,401 L 1122,400 L 1123,401 L 1123,402 L 1124,403 L 1124,405 L 1125,406 L 1125,412 L 1124,413 L 1123,412 L 1123,411 L 1123,413 L 1122,414 L 1122,416 L 1122,414 L 1123,413 L 1124,414 L 1124,424 L 1123,425 L 1122,424 L 1122,423 L 1121,424 L 1120,424 L 1119,423 L 1119,428 L 1119,427 L 1120,426 L 1121,427 L 1121,429 L 1121,425 L 1122,424 L 1123,425 L 1123,430 L 1122,431 L 1122,432 L 1120,434 L 1120,435 L 1118,437 L 1117,436 L 1114,436 L 1115,437 L 1114,438 L 1115,439 L 1114,440 L 1113,440 L 1112,439 L 1111,439 L 1112,439 L 1113,440 L 1110,442 L 1071,442 L 1070,441 L 1071,440 L 1071,437 L 1070,436 L 1070,435 L 1068,433 L 1068,432 L 1066,430 L 1066,429 L 1067,428 L 1067,426 L 1068,425 L 1069,425 L 1069,422 L 1068,421 L 1068,423 L 1067,424 L 1066,424 L 1066,425 L 1065,426 L 1063,423 L 1063,415 L 1062,414 L 1063,413 L 1063,409 L 1064,408 Z M 1417,388 L 1420,388 L 1421,389 L 1420,390 L 1418,390 L 1418,394 L 1418,393 L 1419,392 L 1421,394 L 1421,398 L 1420,399 L 1419,399 L 1418,398 L 1417,399 L 1416,398 L 1416,389 Z M 1039,231 L 1040,230 L 1041,231 L 1041,232 L 1042,231 L 1044,231 L 1044,230 L 1045,229 L 1046,229 L 1047,230 L 1048,230 L 1053,233 L 1052,234 L 1051,234 L 1054,233 L 1055,234 L 1057,234 L 1062,237 L 1064,237 L 1065,238 L 1066,238 L 1067,239 L 1068,239 L 1069,240 L 1070,240 L 1071,241 L 1074,242 L 1075,243 L 1074,244 L 1073,244 L 1074,244 L 1075,245 L 1076,245 L 1077,244 L 1079,244 L 1084,247 L 1086,247 L 1087,248 L 1088,248 L 1089,249 L 1090,249 L 1091,250 L 1092,250 L 1093,251 L 1096,252 L 1097,253 L 1096,254 L 1097,255 L 1098,255 L 1097,255 L 1096,254 L 1097,253 L 1099,253 L 1100,254 L 1101,254 L 1102,255 L 1103,255 L 1104,256 L 1107,257 L 1108,258 L 1107,259 L 1108,260 L 1109,260 L 1108,260 L 1107,259 L 1108,258 L 1110,258 L 1111,259 L 1114,260 L 1115,261 L 1114,262 L 1115,261 L 1116,261 L 1117,262 L 1119,262 L 1120,263 L 1123,264 L 1124,265 L 1123,266 L 1122,266 L 1123,266 L 1124,267 L 1125,267 L 1126,266 L 1128,266 L 1129,267 L 1130,267 L 1131,268 L 1132,268 L 1137,271 L 1136,272 L 1135,272 L 1138,271 L 1141,273 L 1138,275 L 1136,275 L 1135,276 L 1132,276 L 1135,276 L 1136,277 L 1135,278 L 1055,278 L 1054,277 L 1055,276 L 1058,276 L 1057,276 L 1056,275 L 1053,275 L 1052,274 L 1052,269 L 1053,268 L 1054,269 L 1054,270 L 1054,269 L 1056,267 L 1053,267 L 1052,268 L 1051,267 L 1051,266 L 1049,264 L 1049,263 L 1047,260 L 1047,258 L 1048,257 L 1048,256 L 1047,255 L 1047,253 L 1046,252 L 1046,251 L 1046,252 L 1045,253 L 1044,252 L 1044,250 L 1045,249 L 1045,248 L 1045,249 L 1044,250 L 1042,247 L 1042,239 L 1043,238 L 1044,239 L 1044,240 L 1044,238 L 1042,235 L 1041,236 L 1040,235 L 1040,234 L 1039,233 Z M 1001,227 L 1003,229 L 1002,230 L 1002,231 L 1001,232 L 1001,234 L 1002,233 L 1003,234 L 1004,234 L 1005,233 L 1006,233 L 1007,232 L 1008,232 L 1014,238 L 1014,239 L 1016,241 L 1015,242 L 1012,242 L 1014,242 L 1017,245 L 1018,244 L 1021,247 L 1021,248 L 1022,248 L 1023,249 L 1023,250 L 1026,253 L 1026,254 L 1028,256 L 1028,257 L 1027,258 L 1026,258 L 1025,259 L 1024,259 L 1025,259 L 1026,260 L 1027,260 L 1029,262 L 1030,261 L 1031,262 L 1031,263 L 1032,264 L 1032,266 L 1033,267 L 1033,268 L 1034,269 L 1034,271 L 1035,272 L 1035,273 L 1036,274 L 1036,275 L 1035,276 L 1034,275 L 1033,276 L 1031,276 L 1035,276 L 1036,275 L 1038,277 L 1037,278 L 1005,278 L 1004,277 L 1003,277 L 1002,276 L 1003,275 L 1004,275 L 1003,275 L 1002,274 L 1001,274 L 1000,273 L 1000,272 L 999,271 L 1000,270 L 1001,270 L 1001,269 L 1000,269 L 999,270 L 997,268 L 996,269 L 995,268 L 995,265 L 994,264 L 994,256 L 995,255 L 995,252 L 996,251 L 997,252 L 997,255 L 997,254 L 998,253 L 998,252 L 999,251 L 1000,251 L 1001,250 L 1001,248 L 1000,248 L 999,247 L 999,245 L 999,247 L 998,248 L 998,251 L 997,252 L 996,251 L 996,247 L 997,246 L 997,241 L 998,240 L 998,235 L 999,234 L 999,231 L 1000,230 L 1000,228 Z M 1037,227 L 1038,226 L 1039,226 L 1040,227 L 1041,227 L 1042,228 L 1039,231 L 1038,230 L 1038,229 L 1037,228 Z" fill="black" fill-rule="evenodd"/>
</svg>