<svg xmlns="http://www.w3.org/2000/svg" width="2172" height="724" viewBox="0 0 2172 724">
<rect width="100%" height="100%" fill="white"/>
<path d="M 1735,443 L 1735,444 L 1734,445 L 1734,450 L 1735,451 L 1735,453 L 1736,454 L 1736,459 L 1736,452 L 1737,451 L 1737,445 L 1736,445 L 1735,444 Z" fill="black" fill-rule="evenodd"/>
<path d="M 1106,432 L 1106,436 L 1104,438 L 1104,441 L 1106,443 L 1106,445 L 1107,445 L 1107,442 L 1106,441 L 1106,437 L 1107,436 L 1107,435 L 1106,434 Z" fill="black" fill-rule="evenodd"/>
<path d="M 1743,404 L 1743,405 L 1744,406 L 1743,407 L 1743,410 L 1744,410 L 1745,411 L 1745,407 L 1746,406 L 1746,404 L 1745,405 L 1744,404 Z" fill="black" fill-rule="evenodd"/>
<path d="M 935,238 L 934,239 L 933,239 L 932,238 L 932,245 L 931,246 L 931,248 L 932,249 L 932,253 L 931,254 L 930,254 L 933,254 L 932,253 L 932,247 L 933,246 L 935,246 Z" fill="black" fill-rule="evenodd"/>
<path d="M 226,256 L 230,405 L 248,438 L 270,430 L 271,418 L 333,396 L 529,365 L 567,369 L 572,381 L 609,381 L 625,365 L 1052,375 L 1058,395 L 1017,553 L 1069,567 L 1094,559 L 1087,541 L 1102,468 L 1191,461 L 1204,438 L 1205,399 L 1220,386 L 1286,390 L 1286,423 L 1307,418 L 1300,387 L 1314,370 L 1741,371 L 1749,401 L 1734,487 L 1717,502 L 1717,522 L 1784,534 L 1799,511 L 1787,498 L 1798,408 L 1817,372 L 1905,374 L 1905,414 L 1908,374 L 1910,417 L 1927,422 L 1934,349 L 1939,412 L 1944,350 L 1937,349 L 1957,343 L 1954,289 L 1936,282 L 1939,219 L 1934,282 L 1929,209 L 1910,215 L 1908,248 L 1905,218 L 1905,253 L 1863,260 L 1296,260 L 1263,253 L 1271,213 L 1226,215 L 1227,254 L 1141,254 L 1143,235 L 1121,231 L 1085,172 L 1052,155 L 992,159 L 979,141 L 976,191 L 957,213 L 965,229 L 941,232 L 964,233 L 940,234 L 936,255 L 625,260 L 603,243 L 568,245 L 557,257 L 464,252 L 328,226 L 270,204 L 258,185 L 241,189 L 234,224 L 231,216 L 230,272 Z M 1108,397 L 1113,392 L 1139,392 L 1140,393 L 1140,394 L 1139,395 L 1138,394 L 1134,394 L 1136,394 L 1137,395 L 1137,398 L 1138,399 L 1139,398 L 1140,399 L 1140,400 L 1141,400 L 1142,401 L 1142,405 L 1141,406 L 1141,414 L 1140,415 L 1139,414 L 1139,413 L 1138,413 L 1137,414 L 1136,413 L 1136,411 L 1135,411 L 1136,412 L 1136,417 L 1136,416 L 1137,415 L 1138,416 L 1139,415 L 1141,417 L 1141,421 L 1142,422 L 1142,426 L 1141,427 L 1140,426 L 1140,425 L 1140,426 L 1141,427 L 1141,429 L 1141,427 L 1142,426 L 1143,427 L 1143,430 L 1142,431 L 1142,432 L 1142,431 L 1143,430 L 1144,431 L 1144,433 L 1143,434 L 1143,435 L 1144,436 L 1145,439 L 1145,438 L 1146,437 L 1147,438 L 1147,439 L 1148,440 L 1149,443 L 1151,445 L 1151,446 L 1154,449 L 1157,449 L 1159,447 L 1159,445 L 1158,444 L 1158,443 L 1159,442 L 1160,443 L 1163,443 L 1160,443 L 1159,442 L 1158,443 L 1156,441 L 1156,440 L 1154,437 L 1155,436 L 1163,436 L 1164,437 L 1192,437 L 1193,438 L 1192,439 L 1192,441 L 1190,444 L 1189,443 L 1189,442 L 1189,443 L 1188,444 L 1187,443 L 1187,441 L 1186,442 L 1186,444 L 1187,443 L 1188,444 L 1189,443 L 1190,444 L 1189,447 L 1186,450 L 1185,449 L 1184,450 L 1182,450 L 1182,451 L 1181,452 L 1182,453 L 1181,454 L 1180,454 L 1179,453 L 1177,453 L 1179,453 L 1180,454 L 1179,455 L 1177,455 L 1176,456 L 1116,456 L 1115,455 L 1112,455 L 1111,454 L 1110,454 L 1108,452 L 1109,451 L 1110,451 L 1111,452 L 1107,449 L 1108,450 L 1107,451 L 1106,451 L 1103,447 L 1103,445 L 1102,444 L 1102,434 L 1103,433 L 1103,426 L 1104,425 L 1104,418 L 1105,417 L 1105,405 L 1106,404 L 1106,401 L 1107,400 Z M 229,271 L 230,272 L 230,349 L 229,350 L 228,349 L 228,272 Z M 520,258 L 521,257 L 557,257 L 558,258 L 557,259 L 521,259 Z M 1907,247 L 1908,248 L 1908,253 L 1909,254 L 1909,257 L 1907,259 L 1905,259 L 1904,258 L 1904,256 L 1903,255 L 1905,253 L 1906,253 L 1906,248 Z M 942,253 L 943,252 L 943,240 L 944,239 L 1085,239 L 1087,242 L 1086,243 L 1087,244 L 1088,243 L 1089,243 L 1099,253 L 1098,254 L 1087,254 L 1086,253 L 1087,252 L 1095,252 L 1087,252 L 1086,253 L 1085,252 L 1083,252 L 1082,251 L 1061,251 L 1060,252 L 1045,252 L 1044,251 L 1027,251 L 1026,252 L 979,252 L 978,251 L 964,251 L 963,252 L 950,252 L 949,253 L 947,253 L 946,254 L 943,254 Z M 1265,228 L 1267,230 L 1267,231 L 1266,232 L 1266,236 L 1267,237 L 1267,241 L 1266,242 L 1266,245 L 1265,246 L 1264,245 L 1264,229 Z M 1004,178 L 1006,178 L 1007,179 L 1011,179 L 1012,178 L 1013,178 L 1016,181 L 1016,182 L 1018,184 L 1018,186 L 1019,187 L 1019,201 L 1018,202 L 1018,204 L 1017,205 L 1017,206 L 1016,207 L 1015,206 L 1015,205 L 1014,206 L 1013,205 L 1012,205 L 1012,206 L 1013,205 L 1014,206 L 1014,207 L 1013,208 L 1014,209 L 1013,210 L 1012,210 L 1011,209 L 1006,209 L 1005,210 L 1004,210 L 1003,209 L 1004,208 L 1003,207 L 1003,206 L 1004,205 L 1005,205 L 1005,204 L 1004,204 L 1003,205 L 1002,204 L 1002,205 L 1001,206 L 1000,205 L 1000,204 L 999,203 L 999,200 L 998,199 L 998,191 L 999,190 L 999,186 L 1000,185 L 1000,183 L 1001,182 L 1001,181 Z" fill="black" fill-rule="evenodd"/>
</svg>