<?xml version="1.0" encoding="UTF-8" standalone="no"?>
<svg
   width="200"
   height="250"
   viewBox="0 0 200 250"
   version="1.1"
   id="svg1"
   sodipodi:docname="pomz_ap_mine_black.svg"
   inkscape:version="1.4.2 (f4327f4, 2025-05-13)"
   xmlns:inkscape="http://www.inkscape.org/namespaces/inkscape"
   xmlns:sodipodi="http://sodipodi.sourceforge.net/DTD/sodipodi-0.dtd"
   xmlns="http://www.w3.org/2000/svg"
   xmlns:svg="http://www.w3.org/2000/svg">
  <defs
     id="defs1" />
  <sodipodi:namedview
     id="namedview1"
     pagecolor="#ffffff"
     bordercolor="#000000"
     borderopacity="0.25"
     inkscape:showpageshadow="2"
     inkscape:pageopacity="0.0"
     inkscape:pagecheckerboard="0"
     inkscape:deskcolor="#d1d1d1"
     inkscape:zoom="1.5730847"
     inkscape:cx="89.632809"
     inkscape:cy="107.11438"
     inkscape:window-width="2560"
     inkscape:window-height="1377"
     inkscape:window-x="-8"
     inkscape:window-y="-8"
     inkscape:window-maximized="1"
     inkscape:current-layer="svg1" />
  <path
     d="m 101.44816,11.35487 -6.850296,0.72108 -2.88429,1.44215 v 4.32647 l 3.24489,2.16324 -0.3606,3.60539 -10.09507,0.36054 -3.24486,-5.40809 -8.65294,-0.36054 -2.52377,1.8027 -0.36054,5.76863 -6.85025,1.44215 -2.52377,2.16324 0.36054,3.60539 1.08162,1.08162 0.72108,51.55711 -1.44216,0.36054 -0.36054,7.210775 0.36054,1.44216 6.85024,3.24485 14.78211,2.884305 1.08162,5.40809 3.96593,1.08162 2.52378,2.16324 3.96593,0.36053 0.36051,8.29241 -4.68698,1.80269 v 4.68701 l 0.72107,2.52378 3.96591,1.08161 1.0816,91.21643 6.129196,21.63235 2.1632,0.72108 1.0817,-0.72108 6.12911,-21.63235 1.0816,-91.21643 4.3265,-1.44215 v -7.21079 l -4.3265,-1.44215 v -8.29241 l 4.3265,-0.36053 1.8027,-1.8027 4.3265,-1.08162 1.4421,-5.76863 15.5032,-3.244845 3.966,-1.8027 2.5237,-2.52377 -0.3605,-7.210775 -1.4422,-0.36054 0.7211,-51.91765 1.4422,-1.08162 v -3.24485 l -2.5238,-2.16324 -6.8502,-1.44215 -0.3606,-5.76863 -2.8843,-1.8027 -7.9319,0.36054 -2.1632,1.8027 v 2.16323 l -1.4422,1.8027 -10.0951,-0.72108 -0.3605,-3.60539 3.2449,-2.16324 V 13.5181 l -5.4081,-1.80269 z m -2.523796,109.24337 0.3605,-0.36054 h 7.210796 l 0.3606,0.36054 -0.3606,0.36054 h -7.210796 z m -1.0816,-25.237735 0.3605,-0.36054 h 10.095096 l 0.3606,0.36054 -0.3606,0.36053 H 98.203264 Z m 12.618906,-0.36054 0.3605,-0.36054 h 4.687 l 0.3605,0.36054 -0.3605,0.36054 h -4.687 z m -19.108636,0 0.36054,-0.36054 h 3.96589 l 0.3606,0.36054 -0.3606,0.36054 h -3.96589 z m -0.72108,-60.570585 0.36054,-0.36054 h 25.237776 l 0.3605,0.36054 -0.3605,0.36054 H 90.992494 Z m 27.040416,-0.36054 0.3606,-0.36054 h 5.0475 l 0.3606,0.36054 -0.3606,0.36054 h -5.0475 z m -34.611736,0 0.36054,-0.36054 h 5.04755 l 0.36054,0.36054 -0.36054,0.36054 h -5.04755 z"
     fill="#000000"
     fill-rule="evenodd"
     id="path1"
     style="stroke-width:0.360539" />
</svg>
