<svg xmlns="http://www.w3.org/2000/svg" width="2172" height="724" viewBox="0 0 2172 724">
<rect width="100%" height="100%" fill="white"/>
<path d="M 1080,42 L 1061,44 L 1053,48 L 1053,60 L 1062,66 L 1061,76 L 1033,77 L 1024,62 L 1000,61 L 993,66 L 992,82 L 973,86 L 966,92 L 967,102 L 970,105 L 972,248 L 968,249 L 967,269 L 968,273 L 987,282 L 1028,290 L 1031,305 L 1042,308 L 1049,314 L 1060,315 L 1061,338 L 1048,343 L 1048,356 L 1050,363 L 1061,366 L 1064,619 L 1081,679 L 1087,681 L 1090,679 L 1107,619 L 1110,366 L 1122,362 L 1122,342 L 1110,338 L 1110,315 L 1122,314 L 1127,309 L 1139,306 L 1143,290 L 1186,281 L 1197,276 L 1204,269 L 1203,249 L 1199,248 L 1201,104 L 1205,101 L 1205,92 L 1198,86 L 1179,82 L 1178,66 L 1170,61 L 1148,62 L 1142,67 L 1142,73 L 1138,78 L 1110,76 L 1109,66 L 1118,60 L 1118,48 L 1103,43 Z M 1073,345 L 1074,344 L 1094,344 L 1095,345 L 1094,346 L 1074,346 Z M 1070,275 L 1071,274 L 1099,274 L 1100,275 L 1099,276 L 1071,276 Z M 1105,274 L 1106,273 L 1119,273 L 1120,274 L 1119,275 L 1106,275 Z M 1052,274 L 1053,273 L 1064,273 L 1065,274 L 1064,275 L 1053,275 Z M 1050,106 L 1051,105 L 1121,105 L 1122,106 L 1121,107 L 1051,107 Z M 1125,105 L 1126,104 L 1140,104 L 1141,105 L 1140,106 L 1126,106 Z M 1029,105 L 1030,104 L 1044,104 L 1045,105 L 1044,106 L 1030,106 Z" fill="black" fill-rule="evenodd"/>
</svg>