<svg xmlns="http://www.w3.org/2000/svg" width="2172" height="724" viewBox="0 0 2172 724">
<rect width="100%" height="100%" fill="white"/>
<path d="M 1263,547 L 1263,549 L 1262,550 L 1262,552 L 1263,553 L 1263,559 L 1263,558 L 1264,557 L 1264,548 Z" fill="black" fill-rule="evenodd"/>
<path d="M 2135,215 L 2125,191 L 2074,191 L 2026,173 L 2024,126 L 1960,122 L 1953,170 L 1935,185 L 1904,184 L 1913,186 L 1085,189 L 1050,186 L 1044,167 L 1022,163 L 1000,133 L 989,133 L 984,149 L 944,167 L 934,186 L 898,186 L 881,170 L 765,179 L 741,200 L 744,224 L 722,226 L 658,279 L 594,304 L 547,307 L 470,281 L 58,326 L 39,340 L 35,366 L 59,459 L 61,579 L 89,602 L 139,596 L 317,545 L 468,471 L 567,480 L 653,381 L 721,347 L 755,346 L 758,395 L 761,362 L 762,406 L 776,421 L 799,430 L 923,425 L 941,403 L 946,357 L 998,350 L 981,340 L 1112,336 L 1110,487 L 1114,479 L 1127,589 L 1140,599 L 1249,597 L 1260,587 L 1267,476 L 1254,335 L 1284,333 L 1310,284 L 1494,288 L 1613,266 L 2063,266 L 2120,256 Z M 759,371 L 760,372 L 760,383 L 759,384 L 758,383 L 758,372 Z M 936,342 L 933,344 L 930,343 L 932,344 L 929,345 L 928,351 L 927,352 L 922,352 L 920,354 L 920,359 L 922,361 L 926,361 L 928,363 L 926,361 L 927,360 L 931,360 L 933,362 L 933,393 L 932,397 L 931,398 L 930,395 L 929,396 L 927,395 L 930,400 L 929,402 L 928,401 L 929,403 L 928,404 L 927,403 L 923,404 L 926,407 L 922,411 L 921,410 L 922,411 L 918,414 L 915,413 L 912,415 L 914,416 L 913,417 L 909,416 L 911,417 L 910,418 L 903,417 L 907,417 L 908,418 L 901,420 L 873,420 L 872,421 L 803,420 L 794,418 L 793,417 L 794,416 L 797,416 L 794,416 L 786,411 L 784,412 L 781,409 L 784,407 L 782,407 L 781,409 L 775,401 L 772,391 L 772,365 L 778,350 L 780,348 L 782,349 L 781,350 L 784,342 L 810,342 L 811,343 L 811,358 L 814,363 L 815,381 L 820,391 L 817,394 L 820,395 L 821,393 L 829,402 L 837,407 L 841,407 L 844,404 L 848,405 L 846,404 L 846,399 L 845,398 L 844,399 L 840,396 L 843,395 L 840,396 L 836,392 L 839,390 L 837,390 L 834,386 L 833,387 L 830,380 L 830,372 L 831,371 L 832,372 L 833,383 L 833,379 L 834,378 L 835,380 L 835,371 L 833,370 L 832,363 L 836,355 L 837,358 L 838,357 L 839,359 L 838,357 L 839,354 L 838,353 L 842,352 L 841,351 L 844,348 L 844,343 L 845,342 L 846,343 L 855,341 L 935,341 Z M 1858,226 L 1857,227 L 1855,227 L 1854,228 L 1767,228 L 1766,227 L 1767,226 L 1853,226 L 1854,225 L 1857,225 Z M 1712,215 L 1713,216 L 1713,218 L 1714,219 L 1713,220 L 1713,221 L 1712,222 L 1711,221 L 1711,216 Z M 1908,217 L 1909,216 L 1909,215 L 1910,214 L 1911,215 L 1911,216 L 1912,215 L 1914,215 L 1913,215 L 1911,213 L 1914,210 L 1915,210 L 1916,209 L 1917,209 L 1918,208 L 1922,208 L 1923,207 L 1931,207 L 1932,208 L 1938,208 L 1939,207 L 2000,207 L 2001,208 L 2003,208 L 2004,209 L 2006,209 L 2007,210 L 2008,210 L 2011,213 L 2010,214 L 2011,213 L 2012,214 L 2012,215 L 2014,217 L 2014,220 L 2013,221 L 2013,222 L 2012,223 L 2011,222 L 2009,224 L 2007,224 L 2009,224 L 2010,225 L 2009,226 L 2007,226 L 2006,227 L 2004,227 L 2003,228 L 1917,228 L 1916,227 L 1915,227 L 1914,226 L 1915,225 L 1916,225 L 1915,225 L 1914,224 L 1914,223 L 1913,224 L 1911,222 L 1911,223 L 1910,224 L 1909,223 L 1909,222 L 1908,221 Z M 1758,215 L 1763,210 L 1764,210 L 1765,209 L 1767,209 L 1768,208 L 1772,208 L 1773,207 L 1850,207 L 1851,208 L 1854,208 L 1855,209 L 1856,209 L 1857,210 L 1858,210 L 1861,213 L 1860,214 L 1859,214 L 1858,215 L 1859,215 L 1861,217 L 1861,216 L 1862,215 L 1863,216 L 1863,217 L 1864,218 L 1864,219 L 1863,220 L 1863,221 L 1862,222 L 1862,223 L 1861,224 L 1860,223 L 1860,222 L 1859,223 L 1858,222 L 1858,221 L 1857,222 L 1858,222 L 1859,223 L 1857,225 L 1854,225 L 1853,226 L 1767,226 L 1766,225 L 1764,225 L 1763,226 L 1762,226 L 1761,225 L 1762,224 L 1759,221 L 1759,218 L 1758,217 Z M 1607,216 L 1608,215 L 1608,214 L 1611,211 L 1612,211 L 1613,210 L 1616,211 L 1615,211 L 1614,210 L 1615,209 L 1616,209 L 1617,208 L 1619,208 L 1620,207 L 1700,207 L 1701,208 L 1704,208 L 1705,209 L 1708,210 L 1711,213 L 1710,214 L 1710,215 L 1711,216 L 1711,218 L 1710,219 L 1709,218 L 1709,217 L 1709,220 L 1710,219 L 1711,220 L 1712,223 L 1710,225 L 1707,224 L 1706,225 L 1704,225 L 1703,226 L 1617,226 L 1703,226 L 1704,227 L 1703,228 L 1616,228 L 1615,227 L 1613,227 L 1612,226 L 1611,226 L 1609,224 L 1612,222 L 1610,222 L 1609,221 L 1609,220 L 1608,219 L 1609,218 L 1608,219 L 1607,218 Z M 1455,218 L 1456,217 L 1456,215 L 1461,210 L 1462,210 L 1463,209 L 1465,209 L 1466,208 L 1474,208 L 1475,207 L 1549,207 L 1550,208 L 1553,208 L 1554,209 L 1557,210 L 1561,214 L 1561,215 L 1563,218 L 1563,220 L 1559,225 L 1558,225 L 1557,224 L 1558,223 L 1556,223 L 1556,224 L 1557,224 L 1558,225 L 1555,227 L 1553,227 L 1552,226 L 1483,226 L 1552,226 L 1553,227 L 1552,228 L 1465,228 L 1464,227 L 1465,226 L 1471,226 L 1465,226 L 1464,225 L 1462,225 L 1459,223 L 1458,224 L 1455,221 Z M 1982,134 L 1985,134 L 1986,135 L 1991,135 L 1992,134 L 1994,134 L 1995,135 L 1994,136 L 1993,136 L 1994,136 L 1995,135 L 1996,135 L 1997,136 L 1996,137 L 1997,136 L 1998,136 L 2001,139 L 1999,141 L 1998,141 L 1999,142 L 2000,141 L 2003,144 L 2004,144 L 2005,145 L 2005,146 L 2006,147 L 2006,156 L 2005,157 L 2005,158 L 2004,159 L 2004,160 L 2003,161 L 2003,162 L 2001,164 L 2000,163 L 2001,164 L 1997,168 L 1996,168 L 1995,169 L 1981,169 L 1979,167 L 1978,167 L 1974,163 L 1974,162 L 1975,161 L 1976,162 L 1977,161 L 1978,161 L 1975,161 L 1974,160 L 1973,161 L 1972,160 L 1972,159 L 1971,158 L 1971,155 L 1970,154 L 1970,149 L 1971,148 L 1971,145 L 1972,144 L 1972,143 L 1974,141 L 1975,142 L 1976,142 L 1977,143 L 1978,142 L 1977,142 L 1976,141 L 1976,140 L 1977,139 L 1976,138 L 1977,137 L 1978,137 L 1979,138 L 1980,137 L 1981,137 L 1980,137 L 1979,136 L 1980,135 L 1981,135 Z" fill="black" fill-rule="evenodd"/>
</svg>