<?xml version="1.0" encoding="UTF-8" standalone="no"?>
<svg
   width="1050"
   height="250"
   viewBox="0 0 1050 250"
   version="1.1"
   id="svg2"
   sodipodi:docname="ppsh_41w_drum_black.svg"
   inkscape:version="1.4.2 (f4327f4, 2025-05-13)"
   xmlns:inkscape="http://www.inkscape.org/namespaces/inkscape"
   xmlns:sodipodi="http://sodipodi.sourceforge.net/DTD/sodipodi-0.dtd"
   xmlns="http://www.w3.org/2000/svg"
   xmlns:svg="http://www.w3.org/2000/svg">
  <defs
     id="defs2" />
  <sodipodi:namedview
     id="namedview2"
     pagecolor="#ffffff"
     bordercolor="#000000"
     borderopacity="0.25"
     inkscape:showpageshadow="2"
     inkscape:pageopacity="0.0"
     inkscape:pagecheckerboard="0"
     inkscape:deskcolor="#d1d1d1"
     inkscape:zoom="0.78654235"
     inkscape:cx="560.68182"
     inkscape:cy="191.3438"
     inkscape:window-width="2560"
     inkscape:window-height="1377"
     inkscape:window-x="-8"
     inkscape:window-y="-8"
     inkscape:window-maximized="1"
     inkscape:current-layer="svg2" />
  <path
     d="m 614.34786,208.03299 v 0.91871 l -0.45936,0.45937 v 0.91871 l 0.45936,0.45935 v 2.75615 -0.45936 l 0.45935,-0.45936 v -4.13422 z"
     fill="#000000"
     fill-rule="evenodd"
     id="path1"
     style="stroke-width:0.459357" />
  <path
     id="path2"
     d="m 934.52015,12.805989 -3.2155,22.049165 -8.26844,6.890373 -10.10587,0.459352 -380.34815,1.378076 -16.07751,-1.378076 -2.75615,-8.727792 -10.10587,-1.837439 -10.10586,-13.780725 h -5.05294 l -2.29679,7.349725 -18.37431,8.268439 -4.59357,8.727792 h -16.53688 l -7.80908,-7.349725 -53.28549,4.134219 -11.02458,9.646516 1.37807,11.024583 -10.10587,0.918714 -29.39889,24.345956 -29.39889,11.483944 -21.5898,1.37807 -35.37055,-11.9433 -189.255356,20.671094 -8.727795,6.431 -1.837431,11.9433 11.024583,42.72027 0.918716,55.12291 12.862017,10.56523 22.967883,-2.75614 81.765663,-23.42724 69.36301,-33.99248 45.4764,4.13422 39.50477,-45.4764 31.23632,-15.61817 15.61815,-0.45935 2.75616,7.34973 0.45935,20.21173 6.43101,6.89036 10.56523,4.13422 56.96034,-2.29679 8.26844,-10.10586 2.29679,-21.13045 16.07752,-7.80909 60.17585,-1.83743 0.91872,65.68815 5.97164,50.52934 5.97165,4.59357 50.06999,-0.91871 5.05293,-4.59357 3.21551,-50.98871 -5.97165,-64.76942 13.78073,-0.91872 11.9433,-22.508517 84.52181,1.837428 54.66357,-10.105868 h 206.71091 l 26.18344,-4.593582 6.8904,-18.833659 -4.4476,-7.374449 -23.57322,-3.650133 -22.04922,-8.26844 -0.91872,-21.589812 z m 10.10587,5.512296 h 1.37807 3.2155 0.91872 l 0.45936,0.459352 h 0.45935 l 0.45936,0.459363 h 0.45936 l 1.37807,1.378066 1.24904,1.006276 0.58839,1.749877 0.45936,0.918715 v 4.134219 l -0.0207,1.021948 c -0.43662,1.468533 -0.32508,1.280971 -1.22846,2.018107 l -0.94449,0.918714 -1.9406,1.553517 -0.91871,0.459363 h -6.43101 l -0.91872,-0.918715 h -0.45936 l -1.83743,-1.837439 -0.45935,-0.918714 -0.45936,-0.459352 V 29.80222 l -0.45935,-0.459352 v -1.378077 l -0.45937,-0.459352 v -2.296791 l 0.45937,-0.459362 v -1.378067 l 0.45935,-0.459362 v -0.459352 l 0.91871,-0.918725 0.91872,-1.378066 0.45936,-0.459362 h 0.45935 l 0.45936,-0.459352 0.45937,-0.459363 h 0.45935 z m -232.89434,33.53311 h 33.99247 l 0.45936,0.459352 h 1.37807 l 0.45936,0.459362 1.37807,0.459352 1.83743,1.837429 v 0.459362 l 0.91872,1.378077 v 0.918714 l -1.83743,2.296781 h -0.45936 l -1.37807,0.918724 h -0.91872 L 747.10222,61.4979 H 707.1381 l -0.45935,-0.459352 0.45935,-0.459362 -0.45935,-0.459362 h -0.91871 l -1.37808,-0.918715 -0.45935,0.459363 -1.37808,-1.378077 v -1.378066 l 0.45936,-0.459363 v -0.918714 l 2.29678,-2.296791 h 0.45937 l 0.45935,-0.459352 h 0.91871 l 0.45936,-0.459362 h 3.67486 z m 66.60686,0 h 36.74862 l 0.45936,0.459352 h 1.37806 l 0.45937,0.459362 1.37807,0.459352 1.37807,1.378077 -0.45935,0.459352 v 0.459362 l 0.45935,0.459362 0.45936,-0.459362 0.45935,0.459362 v 0.918715 l 0.45937,0.459352 -0.45937,0.459362 v 0.459352 l -0.45935,0.459362 -0.22968,-0.229676 0.22968,0.689028 -0.91871,0.918715 -1.37808,-0.459352 -0.45936,0.459352 h -0.91872 l -0.45935,0.459362 0.45935,0.459362 -0.45935,0.459352 h -39.96412 l -0.45935,-0.459352 h -0.91871 l -0.45937,-0.459362 h -0.45936 l -0.91871,-0.918714 1.37807,-0.918715 h -0.91871 l -0.45936,-0.459362 v -0.459352 l -0.45936,-0.459362 -0.45936,-0.459352 v -0.918715 l 0.45936,-0.459362 V 55.06689 l 1.37807,-1.378067 h 0.45936 l 0.45937,-0.459362 0.68902,0.229686 -0.22967,-0.229686 0.45936,-0.459352 h 0.45935 l 0.45936,-0.459362 h 0.91872 z m -2.52647,1.607752 0.22969,0.229676 h 0.45935 z m 44.5577,5.052934 -0.22968,-0.689038 v 0.459352 z m -0.22968,-0.689038 v -0.918714 l -0.45935,0.459352 z m -0.45935,-0.459362 -0.45937,-0.459352 v 0.918714 z m 28.93952,-5.512286 h 35.37054 l 0.89736,-0.05166 1.35984,0.310262 c 0.88955,0.230607 1.48436,0.515592 1.61533,0.936963 l 1.18041,1.560586 c 0.88495,1.329396 1.01541,2.566371 1.1925,3.729614 l -0.67838,1.447983 c -0.76158,1.046999 -2.50373,1.600173 -2.50373,1.600173 l -1.22589,0.112593 h -39.96412 c -0.90314,0.01606 -1.59397,-0.279953 -2.29679,-0.918725 l -0.45935,-0.459362 c -0.74426,-1.08991 -1.37808,-3.674858 -1.37808,-3.674858 V 55.52625 l 2.29679,-2.296791 0.91872,-0.459362 1.37806,-0.459352 c 0.91303,-0.246473 1.43325,-0.307582 2.29679,-0.459342 z m 68.90365,0 h 3.67487 3.67486 28.02082 l 1.4602,0.139966 1.37807,0.395481 1.03733,0.431978 1.53324,1.222941 0.47759,0.660121 0.20988,0.568865 0.33469,1.174219 v 1.378077 l -0.45935,0.918714 -0.32248,0.504985 -0.96432,0.936963 -0.55064,0.395481 c -0.4396,0.478665 -0.66262,0.672344 -1.30508,0.678369 l -1.45106,0.240345 h -39.50476 l -1.10121,-0.02138 -0.82437,-0.368107 -1.28993,-1.447963 -0.45935,-0.459362 -0.45936,-0.918714 v -1.837428 l 0.45936,-0.459352 v -0.459362 l 0.45935,-0.459363 0.45937,-0.459352 1.37806,-1.378076 0.91873,-0.459352 0.91871,-0.459363 z m -168.58426,7.349714 v 0.459363 h 0.45936 l 0.45936,-0.459363 z m -322.00972,54.204201 34.45182,0.91871 -0.45935,0.91872 1.83743,7.80909 v 14.24007 l -0.45936,1.83744 -0.45935,0.45935 -0.45937,0.91872 -0.91871,1.83744 -0.91871,1.37806 -1.83743,1.83743 -1.83743,1.37808 c -0.83685,0.39075 -1.391,0.96504 -2.29679,1.37808 l -1.37808,0.45935 -0.91871,0.41988 -3.21551,0.49883 h -12.86201 l -0.45935,0.45936 -31.69568,-0.45936 -4.13422,-0.91871 -0.45937,-0.45935 0.45937,-0.45937 -3.67487,-2.29679 -0.91871,0.45937 -1.37807,-1.37808 -2.75615,-3.67486 -1.37807,-4.59358 v -11.9433 l 2.75614,-6.89036 0.91872,-0.91871 1.83743,-2.75615 h 11.9433 l 0.45935,0.45935 v 6.89037 l 1.37808,2.29679 0.45935,8.26844 2.29679,4.59357 4.13422,5.05293 3.67486,2.29679 h 1.83744 l 1.37807,-1.37806 v -2.29679 l -1.83743,-1.37808 -1.83743,-1.83743 -1.37808,-2.29679 -1.37806,-3.2155 v -3.67486 c -0.0242,-1.54074 0.22767,-2.67346 0.91871,-4.13422 l 1.83743,-3.67486 0.91871,-0.91871 2.75615,-4.59359 0.45936,-0.45935 z m -33.99246,31.23632 1.37807,-0.91872 h -0.91872 z"
     sodipodi:nodetypes="ccccccccccccccccccccccccccccccccccccccccccccccccccccccccccccccccccccccccccccccccccccccccccccccccccccccccccccccccccccccccccccccccccccccccccccccccccccccccccccccccccccccccccccccccccccccccccccccccccccccccccccccccccccccccccccccccccccccccccccccccccccccccccccccccccccccccccccccccccccccccccccccccccccccccccccccccccccccccccccccc"
     style="stroke-width:0.459357" />
</svg>
