<svg xmlns="http://www.w3.org/2000/svg" width="2172" height="724" viewBox="0 0 2172 724">
<rect width="100%" height="100%" fill="white"/>
<path d="M 1336,528 L 1335,528 L 1335,529 L 1334,530 L 1334,540 L 1335,541 L 1335,542 L 1335,541 L 1336,540 Z" fill="black" fill-rule="evenodd"/>
<path d="M 1332,478 L 1331,478 L 1331,481 L 1330,482 L 1330,493 L 1330,489 L 1332,487 Z" fill="black" fill-rule="evenodd"/>
<path d="M 139,474 L 138,474 L 138,495 L 138,487 L 139,486 Z" fill="black" fill-rule="evenodd"/>
<path d="M 1197,473 L 1196,473 L 1195,474 L 1195,481 L 1197,479 Z" fill="black" fill-rule="evenodd"/>
<path d="M 134,420 L 134,421 L 133,422 L 133,427 L 134,428 L 134,431 L 134,430 L 135,429 L 135,423 L 134,422 Z" fill="black" fill-rule="evenodd"/>
<path d="M 1333,398 L 1334,399 L 1334,406 L 1335,407 L 1336,407 L 1336,398 L 1335,398 L 1334,399 Z" fill="black" fill-rule="evenodd"/>
<path d="M 1188,382 L 1188,390 L 1187,391 L 1187,393 L 1186,394 L 1186,397 L 1187,398 L 1187,402 L 1187,398 L 1188,397 L 1189,398 L 1189,403 L 1189,394 L 1188,393 Z" fill="black" fill-rule="evenodd"/>
<path d="M 977,333 L 976,334 L 976,339 L 977,340 L 979,340 L 979,333 Z" fill="black" fill-rule="evenodd"/>
<path d="M 1057,309 L 1057,314 L 1057,313 L 1058,312 L 1059,313 L 1059,314 L 1060,315 L 1060,313 L 1061,312 L 1060,311 L 1060,310 L 1061,309 L 1062,309 Z" fill="black" fill-rule="evenodd"/>
<path d="M 1143,308 L 1143,312 L 1144,313 L 1144,315 L 1145,315 L 1145,309 L 1146,308 L 1147,309 L 1147,315 L 1147,308 Z" fill="black" fill-rule="evenodd"/>
<path d="M 2045,156 L 2036,143 L 1932,144 L 1911,120 L 1910,130 L 1901,93 L 1864,95 L 1857,123 L 1854,109 L 1857,130 L 1833,145 L 1088,153 L 1080,143 L 1045,135 L 1031,110 L 1018,115 L 1011,136 L 963,144 L 956,154 L 898,155 L 885,139 L 811,140 L 803,155 L 800,146 L 799,156 L 757,168 L 758,195 L 715,235 L 637,275 L 595,275 L 563,254 L 137,304 L 125,335 L 143,557 L 152,571 L 170,573 L 300,542 L 448,483 L 552,427 L 598,444 L 630,439 L 695,355 L 734,328 L 775,314 L 795,319 L 796,366 L 809,388 L 835,398 L 936,398 L 971,379 L 974,325 L 985,309 L 1052,318 L 1056,307 L 1148,306 L 1151,318 L 1162,318 L 1164,304 L 1188,304 L 1195,446 L 1217,571 L 1237,581 L 1330,570 L 1323,434 L 1333,412 L 1329,379 L 1316,364 L 1310,303 L 1315,313 L 1343,262 L 1410,257 L 1462,228 L 2017,228 L 2041,191 Z M 814,360 L 815,361 L 815,363 L 816,364 L 816,366 L 815,367 L 814,366 L 814,365 L 813,364 L 813,361 Z M 960,321 L 961,322 L 961,360 L 960,361 L 959,360 L 959,322 Z M 812,323 L 814,318 L 818,313 L 820,314 L 819,315 L 821,313 L 822,314 L 821,313 L 822,312 L 827,311 L 824,311 L 823,310 L 824,309 L 844,308 L 846,315 L 845,316 L 844,314 L 842,317 L 845,320 L 845,316 L 846,315 L 847,316 L 850,339 L 855,352 L 854,354 L 852,352 L 851,353 L 854,354 L 855,353 L 862,362 L 860,364 L 863,363 L 865,365 L 864,366 L 866,365 L 871,369 L 876,369 L 878,367 L 878,363 L 879,362 L 880,363 L 869,355 L 870,353 L 871,354 L 873,354 L 873,353 L 871,354 L 869,352 L 868,353 L 865,347 L 866,346 L 867,347 L 869,345 L 869,343 L 867,344 L 866,343 L 865,346 L 864,345 L 863,329 L 864,328 L 865,331 L 869,327 L 869,325 L 867,323 L 866,325 L 865,324 L 865,321 L 868,316 L 869,317 L 868,316 L 869,314 L 873,315 L 870,312 L 872,309 L 873,310 L 887,310 L 873,310 L 872,309 L 873,308 L 896,308 L 897,309 L 896,310 L 889,310 L 896,310 L 897,309 L 903,312 L 901,313 L 903,312 L 904,313 L 955,313 L 956,314 L 955,315 L 907,315 L 952,315 L 956,316 L 958,320 L 959,318 L 960,319 L 959,322 L 959,360 L 958,361 L 959,366 L 953,375 L 949,374 L 952,376 L 948,380 L 946,379 L 944,382 L 941,381 L 940,384 L 931,386 L 925,386 L 924,385 L 849,385 L 848,386 L 836,385 L 832,383 L 835,382 L 825,380 L 824,379 L 825,377 L 820,373 L 822,372 L 820,372 L 819,374 L 815,368 L 818,363 L 817,362 L 816,363 L 815,360 L 813,361 L 812,360 Z M 1396,226 L 1397,226 L 1398,227 L 1401,227 L 1399,227 L 1398,226 L 1399,225 L 1402,225 L 1403,226 L 1404,226 L 1407,229 L 1407,236 L 1404,239 L 1403,239 L 1402,238 L 1397,238 L 1396,237 L 1395,238 L 1392,235 L 1392,231 L 1393,230 L 1394,231 L 1394,233 L 1394,231 L 1393,230 L 1393,229 L 1394,228 L 1395,229 L 1396,228 L 1395,227 Z M 1984,208 L 1985,207 L 1993,207 L 1994,208 L 1993,209 L 1985,209 Z M 1104,190 L 1103,191 L 1101,191 L 1100,192 L 1097,192 L 1096,191 L 1097,190 L 1099,190 L 1095,190 L 1094,191 L 1088,191 L 1087,192 L 1073,192 L 1072,191 L 1054,191 L 1053,192 L 1014,192 L 1013,191 L 1014,190 L 1016,190 L 1018,188 L 1081,188 L 1082,187 L 1095,187 L 1096,188 L 1101,188 L 1102,189 L 1103,189 Z M 1454,187 L 1455,186 L 1455,184 L 1456,183 L 1456,182 L 1460,178 L 1461,179 L 1463,179 L 1461,177 L 1462,176 L 1463,176 L 1464,175 L 1466,175 L 1467,174 L 1526,174 L 1529,176 L 1528,177 L 1526,177 L 1529,177 L 1530,176 L 1533,178 L 1532,179 L 1532,180 L 1531,181 L 1530,181 L 1531,181 L 1532,180 L 1533,181 L 1534,180 L 1536,182 L 1536,183 L 1537,184 L 1537,187 L 1538,188 L 1538,189 L 1537,190 L 1537,194 L 1536,195 L 1535,198 L 1530,202 L 1529,201 L 1525,201 L 1524,202 L 1481,202 L 1525,202 L 1526,203 L 1525,204 L 1466,204 L 1465,203 L 1466,202 L 1472,202 L 1466,202 L 1465,203 L 1463,203 L 1462,202 L 1461,202 L 1459,200 L 1460,199 L 1463,200 L 1462,200 L 1461,199 L 1460,199 L 1459,200 L 1457,198 L 1457,197 L 1456,196 L 1456,195 L 1454,192 Z M 1838,184 L 1839,183 L 1839,182 L 1841,180 L 1841,179 L 1842,178 L 1843,179 L 1846,179 L 1843,179 L 1842,178 L 1845,175 L 1846,175 L 1847,174 L 1849,174 L 1850,173 L 1907,173 L 1908,174 L 1910,174 L 1911,175 L 1912,175 L 1913,176 L 1912,177 L 1913,176 L 1917,180 L 1917,181 L 1918,182 L 1918,184 L 1919,185 L 1919,192 L 1918,193 L 1918,194 L 1917,195 L 1917,196 L 1916,197 L 1915,196 L 1915,195 L 1914,195 L 1913,194 L 1913,195 L 1914,195 L 1916,197 L 1915,198 L 1915,199 L 1914,200 L 1913,200 L 1912,201 L 1911,200 L 1909,200 L 1911,200 L 1912,201 L 1911,202 L 1910,202 L 1909,203 L 1879,203 L 1878,204 L 1851,204 L 1850,203 L 1848,203 L 1847,202 L 1846,202 L 1845,201 L 1844,201 L 1843,200 L 1845,198 L 1846,198 L 1843,198 L 1842,199 L 1841,198 L 1841,197 L 1840,196 L 1840,195 L 1839,194 L 1839,193 L 1838,192 Z M 1709,187 L 1710,186 L 1711,187 L 1711,189 L 1712,189 L 1714,191 L 1714,193 L 1714,184 L 1712,184 L 1712,186 L 1711,187 L 1710,186 L 1710,183 L 1712,181 L 1712,180 L 1715,177 L 1716,178 L 1717,177 L 1717,176 L 1718,175 L 1719,175 L 1720,174 L 1722,174 L 1723,173 L 1780,173 L 1781,174 L 1782,174 L 1783,175 L 1784,175 L 1785,176 L 1784,177 L 1785,176 L 1786,176 L 1789,179 L 1789,180 L 1791,182 L 1791,185 L 1792,186 L 1792,192 L 1791,193 L 1791,194 L 1790,195 L 1790,196 L 1789,197 L 1789,198 L 1786,201 L 1785,201 L 1784,202 L 1783,202 L 1782,201 L 1781,201 L 1782,201 L 1783,202 L 1782,203 L 1779,203 L 1778,204 L 1722,204 L 1721,203 L 1719,203 L 1718,202 L 1717,202 L 1716,201 L 1717,200 L 1718,200 L 1718,199 L 1716,199 L 1714,197 L 1713,198 L 1711,196 L 1711,195 L 1710,194 L 1710,192 L 1709,191 Z M 1665,185 L 1665,192 L 1664,193 L 1664,195 L 1662,197 L 1661,196 L 1660,197 L 1659,196 L 1658,196 L 1658,197 L 1659,197 L 1660,198 L 1655,201 L 1653,201 L 1655,201 L 1656,202 L 1655,203 L 1653,203 L 1652,204 L 1594,204 L 1593,203 L 1594,202 L 1638,202 L 1594,202 L 1593,203 L 1591,203 L 1588,201 L 1589,200 L 1588,201 L 1587,201 L 1584,198 L 1585,195 L 1586,194 L 1587,195 L 1587,193 L 1585,195 L 1584,194 L 1584,195 L 1583,196 L 1582,195 L 1582,193 L 1583,192 L 1583,187 L 1583,192 L 1582,193 L 1581,192 L 1581,185 L 1582,184 L 1583,181 L 1585,179 L 1586,180 L 1588,178 L 1591,177 L 1590,177 L 1589,176 L 1590,175 L 1592,175 L 1593,174 L 1626,174 L 1627,173 L 1651,173 L 1652,174 L 1655,174 L 1656,175 L 1659,176 L 1663,180 L 1663,181 L 1664,182 L 1664,184 L 1663,185 L 1663,188 L 1663,185 L 1664,184 Z M 1999,159 L 2000,160 L 1999,161 L 1998,161 L 1999,161 L 2000,160 L 2001,160 L 2002,161 L 2003,161 L 2005,163 L 2005,164 L 2006,165 L 2006,173 L 2005,174 L 2005,178 L 2004,179 L 2004,182 L 2003,183 L 2003,187 L 2002,188 L 2002,192 L 2001,193 L 2001,199 L 2000,200 L 2000,203 L 1999,204 L 1998,203 L 1998,202 L 1998,203 L 1996,205 L 1995,205 L 1993,207 L 1985,207 L 1984,208 L 1981,208 L 1980,207 L 1979,207 L 1978,206 L 1977,206 L 1975,204 L 1976,203 L 1976,202 L 1976,203 L 1975,204 L 1974,204 L 1973,203 L 1974,202 L 1972,200 L 1972,199 L 1973,198 L 1974,198 L 1969,198 L 1967,196 L 1967,195 L 1966,194 L 1966,192 L 1965,191 L 1965,178 L 1966,177 L 1966,176 L 1967,175 L 1968,176 L 1967,175 L 1967,173 L 1969,171 L 1969,170 L 1971,168 L 1971,167 L 1973,165 L 1974,165 L 1977,162 L 1978,162 L 1979,161 L 1980,161 L 1981,160 L 1984,160 L 1985,159 Z M 1876,120 L 1877,119 L 1887,119 L 1888,120 L 1888,124 L 1889,125 L 1889,126 L 1888,127 L 1883,127 L 1882,126 L 1882,125 L 1883,124 L 1883,122 L 1884,121 L 1885,121 L 1886,122 L 1886,121 L 1878,121 L 1878,127 L 1888,127 L 1889,128 L 1888,129 L 1877,129 L 1876,128 Z" fill="black" fill-rule="evenodd"/>
</svg>