<?xml version="1.0" encoding="UTF-8" standalone="no"?>
<svg
   width="1000"
   height="250"
   viewBox="0 0 1000 250"
   version="1.1"
   id="svg11"
   sodipodi:docname="ppsh41_black.svg"
   inkscape:version="1.4.2 (f4327f4, 2025-05-13)"
   xmlns:inkscape="http://www.inkscape.org/namespaces/inkscape"
   xmlns:sodipodi="http://sodipodi.sourceforge.net/DTD/sodipodi-0.dtd"
   xmlns="http://www.w3.org/2000/svg"
   xmlns:svg="http://www.w3.org/2000/svg">
  <defs
     id="defs11" />
  <sodipodi:namedview
     id="namedview11"
     pagecolor="#ffffff"
     bordercolor="#000000"
     borderopacity="0.25"
     inkscape:showpageshadow="2"
     inkscape:pageopacity="0.0"
     inkscape:pagecheckerboard="0"
     inkscape:deskcolor="#d1d1d1"
     inkscape:zoom="0.78654235"
     inkscape:cx="546.69656"
     inkscape:cy="308.31143"
     inkscape:window-width="2560"
     inkscape:window-height="1377"
     inkscape:window-x="-8"
     inkscape:window-y="-8"
     inkscape:window-maximized="1"
     inkscape:current-layer="svg11" />
  <path
     d="m 55.166596,188.43024 h -0.460705 v 9.67475 -3.68563 l 0.460705,-0.46068 z"
     fill="#000000"
     fill-rule="evenodd"
     id="path3"
     style="stroke-width:0.460702" />
  <path
     d="m 52.863085,163.55231 v 0.46069 l -0.460706,0.46072 v 2.30351 l 0.460706,0.4607 v 1.3821 -0.46069 l 0.460697,-0.46071 v -2.76422 l -0.460697,-0.46069 z"
     fill="#000000"
     fill-rule="evenodd"
     id="path5"
     style="stroke-width:0.460702" />
  <path
     d="m 933.26554,41.926851 -4.14633,-5.989131 -47.91309,0.460705 -10.13543,-6.449836 -4.14631,-17.045992 -17.046,0.921402 -3.22492,12.899675 v 3.224915 l -11.05682,6.910534 -343.22338,3.68562 -3.68562,-4.607023 -16.12458,-3.68562 -6.44985,-11.517557 -5.98913,2.303511 -3.22491,9.674752 -22.11372,3.685619 -3.22492,4.607023 -26.72074,0.460706 -5.98914,-7.371239 -34.09198,0.460697 -3.68562,6.910542 -1.84282,0.460697 -19.3495,5.528434 0.46071,12.438968 -19.8102,18.428101 -35.93481,18.428095 h -19.3495 l -14.74248,-9.674747 -196.259256,23.035118 -5.528435,14.28177 8.292643,102.27596 4.146324,6.44984 8.292644,0.9214 59.89133,-14.28177 68.18396,-27.18145 47.91306,-25.79934 21.19233,7.83193 14.74246,-2.30351 29.94566,-38.69901 17.96741,-12.43896 18.8888,-6.44984 9.21405,2.30351 0.4607,21.65303 5.98913,10.13544 11.97827,4.60704 h 46.53095 l 16.12459,-8.75335 1.38211,-24.87794 5.06773,-7.37123 30.86705,4.14632 1.84282,-5.06773 42.38462,-0.46071 1.38211,5.52844 h 5.06774 l 0.9214,-6.44984 h 11.05686 l 3.22492,65.41976 10.13545,57.58781 9.21405,4.60702 42.84533,-5.06774 -3.22492,-62.65553 4.60702,-10.13546 -1.8428,-15.20317 -5.98914,-6.91054 -2.7642,-28.10285 L 609.8524,90.761321 640.71946,88.457802 664.676,75.09743 h 255.68984 l 11.05691,-17.045991 z m -568.04618,76.937309 0.92142,-2.3035 1.84281,-2.30352 0.92139,0.4607 -0.46069,0.46071 0.92141,-0.92141 0.4607,0.4607 -0.4607,-0.4607 0.4607,-0.4607 2.30351,-0.4607 h -1.3821 l -0.46072,-0.4607 0.46072,-0.4607 9.21403,-0.46073 0.92142,3.22494 v 0 l 0.4607,0.46069 1.3821,10.59617 2.04726,5.58644 0.25626,0.86339 3.22492,4.14633 0.4607,0.4607 3.68562,2.76421 h 2.3035 l 0.92142,-0.9214 v -1.84281 l -4.14633,-3.68563 -0.4607,-0.9214 -1.38211,-2.76421 v -0.46071 l -0.46069,-0.4607 -0.46071,-7.37125 0.46071,-0.46069 0.46069,-1.84281 v -1.38211 l 1.38211,-2.30352 0.4607,0.46071 -0.4607,-0.46071 0.4607,-0.9214 0.46071,-0.9214 0.9214,-1.3821 0.46071,0.4607 h 6.44983 -6.44983 l -0.46071,-0.4607 0.46071,-0.46073 h 10.59616 c 0,0 2.60819,0.38317 5.04012,0.43651 11.84801,0.16359 16.8648,-0.2155 24.44483,4.63123 -0.15709,0.47131 0.76872,15.49977 -0.46071,21.65303 l -2.7642,4.14632 -0.46071,0.4607 -1.84282,1.84281 -1.8428,0.9214 -1.84281,0.92141 -4.14632,0.92141 h -2.76423 -35.47407 l -5.52844,-0.46072 -1.84281,-0.92139 -3.22491,-1.38211 -0.4607,-0.4607 -2.30352,-2.30351 -1.8428,-2.76423 c -0.66072,-1.15174 -1.18425,-2.16756 -1.38213,-3.6856 z M 634.26963,74.176028 h 0.4607 0.46071 l 0.46069,-0.460707 h 1.38211 l 0.51249,0.175964 0.40891,0.284743 1.38211,1.382108 v 3.224915 l -1.38211,1.382108 h -0.46069 l -0.8231,-0.124185 -2.07053,-0.0518 -0.792,-0.284744 -1.3821,-1.382109 v -1.842813 l 0.46071,-0.921403 0.4607,-0.460706 0.46069,-0.460697 z m -134.83579,-16.585286 -0.15004,0.460697 -1.38211,0.460707 h -1.38211 -4.60703 -6.44982 -9.21406 l -17.88972,-0.103549 -0.69368,-0.745449 0.51245,-0.79721 1.94636,-0.196607 h 29.02427 6.91054 2.3035 l 0.92141,0.460706 z m 161.55654,-1.382108 0.46068,-0.460706 v -0.921403 l 0.46072,-0.460705 v -0.460697 l 1.84281,-1.842815 0.4607,-0.460706 0.46071,-0.460697 h 0.46069 l 0.46071,-0.460706 h 0.9214 l 0.46071,-0.460697 h 27.18145 l 3.22492,1.842806 0.46069,0.921403 0.92141,0.921412 v 0.460697 l 0.46071,0.460705 v 1.382109 l 0.46068,0.460697 v 0.460706 l -0.46068,0.460705 v 1.842806 l -0.46071,0.460705 -0.46071,1.382109 -2.3035,1.842806 -1.84281,0.460706 -0.46071,0.460697 H 666.5188 l -0.4607,-0.460697 v 0 h -0.92141 L 664.676,63.119168 h -0.46071 l -0.9214,-0.921403 v 0 l -0.92141,-0.921403 v -0.460706 l -0.4607,-0.460705 v -0.460698 l -0.9214,-1.382107 z m 176.90977,-1.382109 0.46067,-0.460705 v -0.460697 l 0.9214,-0.921412 v -0.460697 l 0.46073,-0.460706 v 0 l 1.38214,-1.382109 h 0.46065 l 0.46075,-0.460697 h 0.92138 l 0.46066,-0.460705 h 26.26004 l 0.46073,0.460705 h 0.92139 l 0.46074,0.460697 h 0.46065 l 0.46075,0.460706 v 0 l 1.84279,1.842806 v 0.460705 l 0.46073,0.460707 v 0.921402 l 0.46065,0.460697 v 3.224924 l -0.46065,0.460697 v 0.460705 l -0.46073,0.460705 v 0.460698 l -0.46074,0.460705 v 0 l -0.46066,0.460706 v 0.460698 l -0.46073,0.460705 h -0.46066 l -0.46075,0.460697 v 0 l -0.46065,0.460706 -1.025,0.823103 -14.17821,0.0983 h -12.43895 l -0.46074,-0.460697 h -0.92139 l -0.46065,-0.460706 h -0.46075 l -0.46065,-0.460706 h -0.46074 l -0.46074,-0.460697 v -0.921403 l -0.46066,0.460698 -0.46073,-0.460698 v -0.460705 l -0.46066,-0.460705 v -0.460698 l -0.46074,-0.460705 v -0.460705 l -0.46067,-0.460697 z m -59.43063,1.382109 0.46069,-0.460706 v 0 -1.382108 l 0.92141,-0.921404 v -0.460705 l 1.38211,-1.382109 0.92139,-0.460697 0.46072,-0.460706 h 0.46069 l 0.4607,-0.460697 h 0.92141 l 0.4607,-0.460705 h 26.26004 l 0.46075,0.460705 h 0.46066 l 0.46073,0.460697 h 0.46066 l 0.46074,0.460706 v 0 h 0.46065 l 1.38212,1.382109 v 0.460697 l 0.92141,0.921412 v 1.382099 l 0.46074,0.460706 v 2.764218 l -0.46074,0.460697 v 0.460705 l -0.46065,0.460705 v 0.460698 l -0.46076,0.460705 v 0.460706 l -1.38212,1.3821 h -0.46065 l -0.46074,0.460706 h -0.46066 v 0 l -0.46073,0.460706 -1.84279,0.460697 h -25.79936 l -1.38211,-0.460697 -0.46069,-0.460706 h -0.46072 l -0.46069,-0.460706 -1.38211,-1.3821 -0.92141,-0.921411 v -0.460698 l -0.4607,-0.460705 v -0.921402 l -0.46069,-0.460707 z m -20.27091,-0.921412 v 3.224924 l -0.46071,0.460697 v 0.92141 l -0.9214,0.921403 -0.50725,1.133741 c 0,0 -1.16801,1.223293 -1.79102,1.428629 l -0.92666,0.201848 -1.3821,0.460697 h -26.72075 l -0.46069,-0.460697 0.46069,-0.460706 c -0.15355,0.153565 -0.30716,0.307139 -0.46069,0.460706 h -0.92142 l -1.38211,-0.921412 0.4607,-0.460697 -0.4607,0.460697 h -0.4607 l -1.3821,-1.3821 -0.46071,-0.921411 -0.46069,-0.460698 v -0.92141 0 l -0.46071,-0.460697 v -3.224924 l 0.46071,-0.460697 0.46069,-1.382109 0.92141,-0.921402 1.3821,-0.460706 0.4607,-0.921403 0.46073,-0.460706 0.92139,-0.258857 c 4.64678,-1.520658 11.03986,-0.513001 16.12458,-0.662545 h 11.05686 l 1.84281,0.460705 0.46071,0.460697 1.38211,0.460706 1.8428,1.842806 v 0.460705 l 0.46071,0.460707 v 0.921402 0 z m 153.8746,-11.978262 0.46074,0.460706 -0.46074,0.460696 h -0.46066 0.46066 l 0.46074,-0.460696 h 0.46066 l 0.46073,0.460696 h 0.46066 l 0.92149,0.921413 v 0.460696 l 0.46064,0.460706 v 3.68562 l -0.46064,0.460705 v 1.842806 l -0.46075,0.460706 v 1.382109 L 913.916,54.36582 v 1.842814 l -0.46066,0.460697 v 1.842815 l -0.46073,0.460697 v 2.764217 l -0.46066,0.460705 v 1.382109 l -0.46074,0.460697 -1.25267,0.667794 c -2.25842,0.742235 -4.86676,1.433878 -7.03996,1.17502 l -0.46074,-0.460706 h -0.46066 l -0.46074,-0.460696 h -0.46065 l -0.92139,-0.921412 v 0 h -0.46074 l -0.46065,-0.460697 -0.65241,-0.434821 -1.18034,-0.766085 -0.0103,-1.102606 -0.92138,-0.921411 v -0.460698 l -0.46066,-0.460705 v -0.921402 l -0.46074,-0.460707 v -5.989131 l 0.46074,-0.460706 v -0.460697 l 0.46066,-0.460706 0.46072,0.460706 -0.46072,-0.460706 v -0.921402 l 0.92138,-0.921404 v -0.460705 l 0.9214,-0.921403 v -0.460706 l 0.92149,-0.921402 h 0.46065 l 1.38213,-1.382109 h 0.46064 l 0.46075,-0.460706 h 0.46065 l 0.46074,-0.460696 h 1.38214 l 0.46065,-0.460706 z m -56.66639,-17.967394 0.46075,-0.460707 h 4.60696 l 0.46073,0.460707 v 1.842805 l 0.46066,0.460706 v 0.460706 l -0.46066,0.460697 v 0 l 0.46066,0.460705 -0.46066,0.460697 h -5.06769 l -0.46075,-0.460697 z"
     fill="#000000"
     fill-rule="evenodd"
     id="path11"
     sodipodi:nodetypes="ccccccccccccccccccccccccccccccccccccccccccccccccccccccccccccccccccccccccccccccccccccccccccccccccccccccccccccccccccccccccccccccccccccccccccccccccccccccccccccccccccccccccccccccccccccccccccccccccccccccccccccccccccccccccccccccccccccccccccccccccccccccccccccccccccccccccccccccccccccccccccccccccccccccccccccccccccccccccccccccccccccccccccccccccccccccccccccccccccccccccccccccccccccccccccccccccccccccccccccccccccccccccccccccccccccccccccccccccccccccccccccccc"
     style="stroke-width:0.460702" />
</svg>
