<svg xmlns="http://www.w3.org/2000/svg" width="1254" height="1254" viewBox="0 0 1254 1254">
<rect width="100%" height="100%" fill="white"/>
<path d="M 850,999 L 850,1005 L 851,1006 L 851,1007 L 852,1008 L 852,1009 L 853,1010 L 854,1010 L 855,1011 L 856,1011 L 857,1012 L 858,1012 L 859,1013 L 861,1013 L 862,1014 L 861,1015 L 862,1014 L 864,1014 L 865,1013 L 865,1012 L 864,1011 L 864,1010 L 863,1009 L 863,1007 L 862,1006 L 862,1005 L 860,1003 L 859,1003 L 856,1000 L 855,1000 L 854,999 Z" fill="black" fill-rule="evenodd"/>
<path d="M 472,980 L 472,984 L 473,985 L 473,986 L 474,987 L 474,988 L 475,989 L 475,990 L 477,992 L 478,992 L 479,993 L 480,993 L 481,994 L 482,994 L 483,995 L 482,996 L 483,995 L 484,995 L 485,996 L 488,996 L 488,994 L 487,993 L 487,991 L 486,990 L 486,989 L 485,988 L 485,987 L 482,984 L 481,984 L 479,982 L 478,982 L 477,981 L 476,981 L 475,980 Z" fill="black" fill-rule="evenodd"/>
<path d="M 1078,979 L 1076,979 L 1075,980 L 1074,980 L 1072,982 L 1071,982 L 1069,984 L 1068,984 L 1065,987 L 1065,989 L 1064,990 L 1064,992 L 1063,993 L 1063,996 L 1066,996 L 1067,995 L 1068,995 L 1069,994 L 1070,994 L 1072,992 L 1073,992 L 1076,989 L 1076,988 L 1077,987 L 1077,986 L 1078,985 Z" fill="black" fill-rule="evenodd"/>
<path d="M 909,970 L 909,971 L 908,972 L 908,973 L 909,974 L 909,977 L 910,978 L 910,981 L 911,982 L 911,984 L 914,987 L 913,988 L 915,990 L 916,989 L 917,990 L 918,990 L 920,992 L 921,992 L 922,993 L 924,993 L 924,985 L 923,984 L 923,982 L 922,981 L 922,979 L 920,977 L 919,977 L 914,972 L 913,972 L 911,970 Z" fill="black" fill-rule="evenodd"/>
<path d="M 819,963 L 819,968 L 820,969 L 820,971 L 821,972 L 821,973 L 825,977 L 826,977 L 827,978 L 828,978 L 829,979 L 830,979 L 831,980 L 832,980 L 833,981 L 835,981 L 835,977 L 834,976 L 834,974 L 833,973 L 833,972 L 832,971 L 832,970 L 828,966 L 827,966 L 826,965 L 825,965 L 824,964 L 823,964 L 822,963 Z" fill="black" fill-rule="evenodd"/>
<path d="M 506,949 L 506,950 L 505,951 L 505,954 L 506,955 L 506,965 L 507,966 L 507,967 L 516,976 L 515,977 L 516,976 L 517,977 L 519,977 L 520,976 L 520,965 L 519,964 L 519,961 L 517,959 L 517,958 L 508,949 Z" fill="black" fill-rule="evenodd"/>
<path d="M 930,947 L 930,949 L 929,950 L 929,952 L 930,953 L 930,957 L 931,958 L 931,960 L 932,961 L 932,962 L 934,962 L 934,961 L 936,959 L 936,958 L 935,957 L 935,954 L 934,953 L 934,952 L 933,951 L 933,950 L 932,949 L 932,948 L 931,947 Z" fill="black" fill-rule="evenodd"/>
<path d="M 1157,942 L 1155,942 L 1152,945 L 1151,945 L 1147,949 L 1147,950 L 1146,951 L 1146,953 L 1145,954 L 1145,957 L 1147,957 L 1148,956 L 1149,956 L 1150,957 L 1149,956 L 1151,954 L 1152,954 L 1154,952 L 1155,952 L 1155,951 L 1156,950 L 1156,949 L 1157,948 L 1157,946 L 1158,945 L 1158,943 Z" fill="black" fill-rule="evenodd"/>
<path d="M 1108,928 L 1107,928 L 1106,927 L 1105,928 L 1104,928 L 1103,929 L 1102,929 L 1100,931 L 1099,931 L 1098,932 L 1097,932 L 1095,934 L 1094,934 L 1092,936 L 1091,936 L 1090,937 L 1090,938 L 1089,939 L 1089,941 L 1088,942 L 1088,943 L 1087,944 L 1087,946 L 1086,947 L 1086,949 L 1085,950 L 1085,952 L 1084,953 L 1084,955 L 1085,956 L 1086,956 L 1087,955 L 1089,955 L 1090,954 L 1091,954 L 1093,952 L 1094,952 L 1096,950 L 1097,950 L 1099,948 L 1100,948 L 1103,945 L 1103,944 L 1104,943 L 1104,941 L 1105,940 L 1105,938 L 1106,937 L 1106,935 L 1107,934 L 1107,932 L 1108,931 Z" fill="black" fill-rule="evenodd"/>
<path d="M 960,912 L 960,913 L 959,914 L 959,916 L 958,917 L 958,919 L 957,920 L 957,923 L 956,924 L 956,925 L 957,926 L 957,928 L 958,929 L 958,931 L 959,932 L 959,934 L 960,935 L 960,937 L 961,938 L 963,938 L 963,937 L 964,936 L 964,934 L 965,933 L 965,931 L 966,930 L 966,927 L 967,926 L 967,924 L 966,923 L 966,922 L 965,921 L 965,919 L 964,918 L 964,917 L 963,916 L 963,914 L 962,913 L 962,912 Z" fill="black" fill-rule="evenodd"/>
<path d="M 788,910 L 788,913 L 789,914 L 789,917 L 790,918 L 790,920 L 791,921 L 791,924 L 792,925 L 792,927 L 794,929 L 795,929 L 797,931 L 798,931 L 800,933 L 801,933 L 803,935 L 804,935 L 805,936 L 806,936 L 808,938 L 809,938 L 810,937 L 810,933 L 809,932 L 809,930 L 808,929 L 808,926 L 807,925 L 807,923 L 806,922 L 806,921 L 804,919 L 805,918 L 804,919 L 803,919 L 801,917 L 802,916 L 801,917 L 800,916 L 799,916 L 797,914 L 796,914 L 794,912 L 793,912 L 792,911 L 791,911 L 790,910 Z" fill="black" fill-rule="evenodd"/>
<path d="M 484,907 L 483,908 L 483,910 L 484,911 L 484,920 L 485,921 L 485,922 L 494,931 L 496,931 L 496,921 L 495,920 L 495,918 L 493,916 L 493,915 L 485,907 Z" fill="black" fill-rule="evenodd"/>
<path d="M 912,880 L 911,881 L 911,895 L 914,898 L 914,899 L 919,904 L 919,905 L 920,906 L 921,906 L 922,905 L 922,891 L 920,889 L 920,888 L 917,885 L 917,884 L 913,880 Z" fill="black" fill-rule="evenodd"/>
<path d="M 1121,873 L 1120,873 L 1118,875 L 1117,874 L 1118,875 L 1116,877 L 1115,877 L 1110,882 L 1109,882 L 1107,884 L 1107,887 L 1106,888 L 1105,887 L 1105,886 L 1105,887 L 1106,888 L 1106,892 L 1105,893 L 1105,897 L 1104,898 L 1104,899 L 1105,900 L 1106,900 L 1107,899 L 1108,899 L 1112,895 L 1113,895 L 1120,888 L 1120,885 L 1121,884 L 1121,880 L 1122,879 L 1122,874 Z" fill="black" fill-rule="evenodd"/>
<path d="M 1221,1061 L 1209,1046 L 1168,1036 L 1151,1011 L 1128,1016 L 1133,994 L 1128,981 L 1108,987 L 1092,1013 L 1081,1017 L 1072,1030 L 1062,1029 L 1051,1040 L 1037,1037 L 1054,1007 L 1029,1012 L 1067,930 L 1025,977 L 1021,974 L 1065,862 L 1014,946 L 1024,877 L 973,990 L 957,955 L 948,1017 L 931,1008 L 931,1028 L 839,939 L 893,1023 L 873,1019 L 882,1044 L 872,1044 L 859,1030 L 849,1032 L 837,1019 L 827,1020 L 806,994 L 792,989 L 780,993 L 791,1028 L 769,1027 L 758,1041 L 730,1041 L 711,1030 L 677,1036 L 650,1027 L 592,1042 L 586,1034 L 617,993 L 572,1024 L 597,937 L 556,1012 L 550,954 L 540,1001 L 527,992 L 529,1026 L 503,1012 L 517,1042 L 479,1035 L 460,1022 L 441,1022 L 405,1000 L 393,1000 L 363,1028 L 337,1037 L 310,1024 L 267,1039 L 226,1037 L 186,1054 L 118,1067 L 1220,1068 Z M 997,997 L 998,998 L 998,1001 L 997,1002 L 997,1005 L 996,1006 L 996,1010 L 995,1011 L 995,1015 L 994,1016 L 994,1020 L 993,1021 L 993,1024 L 992,1025 L 992,1029 L 991,1030 L 991,1033 L 990,1034 L 990,1040 L 994,1040 L 995,1039 L 997,1039 L 998,1040 L 998,1041 L 999,1040 L 1000,1041 L 1000,1042 L 993,1049 L 966,1049 L 960,1043 L 960,1042 L 957,1039 L 958,1038 L 960,1038 L 961,1039 L 963,1039 L 964,1040 L 966,1040 L 967,1039 L 967,1034 L 968,1033 L 968,1026 L 967,1025 L 968,1024 L 969,1024 L 970,1025 L 970,1027 L 971,1028 L 971,1030 L 972,1031 L 972,1033 L 973,1034 L 973,1035 L 974,1036 L 975,1036 L 976,1035 L 976,1034 L 977,1033 L 977,1032 L 978,1031 L 978,1030 L 980,1028 L 981,1029 L 980,1028 L 980,1027 L 981,1026 L 981,1025 L 982,1024 L 982,1023 L 984,1021 L 984,1020 L 985,1019 L 985,1018 L 986,1017 L 986,1016 L 988,1014 L 988,1013 L 989,1012 L 989,1011 L 990,1010 L 990,1009 L 992,1007 L 993,1008 L 993,1009 L 994,1009 L 994,1006 L 993,1005 L 993,1004 L 994,1003 L 994,1002 L 995,1001 L 995,1000 L 996,999 L 996,998 Z" fill="black" fill-rule="evenodd"/>
<path d="M 807,850 L 807,854 L 810,857 L 810,858 L 814,862 L 814,863 L 818,867 L 818,868 L 822,872 L 822,873 L 826,877 L 826,878 L 830,882 L 830,883 L 834,887 L 834,888 L 838,892 L 838,893 L 843,898 L 843,899 L 848,904 L 848,905 L 852,909 L 852,910 L 855,913 L 855,914 L 862,921 L 862,922 L 864,924 L 863,925 L 864,926 L 864,928 L 865,929 L 865,930 L 868,933 L 868,934 L 870,936 L 869,937 L 870,936 L 872,938 L 872,939 L 876,943 L 876,944 L 877,945 L 876,946 L 877,947 L 878,946 L 880,948 L 880,949 L 882,951 L 883,951 L 885,953 L 887,953 L 888,954 L 892,954 L 893,953 L 894,953 L 896,951 L 896,943 L 895,942 L 895,941 L 892,938 L 892,937 L 889,934 L 889,933 L 885,929 L 885,928 L 875,918 L 873,918 L 872,917 L 871,917 L 866,912 L 866,911 L 859,904 L 859,903 L 853,897 L 853,896 L 847,890 L 847,889 L 840,882 L 840,881 L 834,875 L 834,874 L 827,867 L 827,866 L 820,859 L 820,858 L 814,852 L 814,851 L 811,849 L 809,849 L 808,850 Z" fill="black" fill-rule="evenodd"/>
<path d="M 1145,838 L 1143,838 L 1137,844 L 1137,845 L 1135,847 L 1135,851 L 1134,852 L 1134,857 L 1135,857 L 1138,854 L 1139,854 L 1143,850 L 1143,848 L 1144,847 L 1144,843 L 1145,842 Z" fill="black" fill-rule="evenodd"/>
<path d="M 956,822 L 955,823 L 955,827 L 973,845 L 973,847 L 974,848 L 974,850 L 989,865 L 990,865 L 991,866 L 992,866 L 993,867 L 997,867 L 1000,864 L 1000,859 L 999,858 L 999,857 L 994,852 L 994,851 L 988,845 L 987,845 L 984,842 L 983,842 L 982,841 L 979,841 L 966,828 L 965,828 L 964,827 L 964,826 L 963,826 L 959,822 Z" fill="black" fill-rule="evenodd"/>
<path d="M 734,809 L 732,811 L 732,815 L 734,817 L 734,818 L 739,823 L 739,824 L 743,828 L 743,829 L 748,834 L 748,835 L 749,836 L 749,840 L 751,842 L 751,843 L 754,846 L 754,847 L 759,852 L 759,853 L 767,861 L 773,861 L 775,859 L 775,858 L 776,857 L 776,854 L 775,853 L 775,851 L 773,849 L 773,848 L 771,846 L 771,845 L 769,843 L 770,842 L 769,843 L 767,841 L 767,840 L 763,836 L 763,835 L 761,833 L 760,833 L 759,832 L 758,832 L 757,831 L 755,831 L 752,828 L 752,827 L 747,822 L 747,821 L 740,814 L 740,813 L 737,810 L 736,810 L 735,809 Z" fill="black" fill-rule="evenodd"/>
<path d="M 912,745 L 912,748 L 913,749 L 913,750 L 915,752 L 916,752 L 921,757 L 920,758 L 921,757 L 924,760 L 923,761 L 924,760 L 927,763 L 928,763 L 932,767 L 931,768 L 936,773 L 937,772 L 938,773 L 939,773 L 949,783 L 950,783 L 956,789 L 955,790 L 957,792 L 958,791 L 959,792 L 960,792 L 969,801 L 970,801 L 975,806 L 974,807 L 975,806 L 978,809 L 979,809 L 987,817 L 988,817 L 995,824 L 996,824 L 1001,829 L 1004,829 L 1004,828 L 1003,827 L 1003,826 L 973,796 L 972,796 L 955,779 L 954,779 L 941,766 L 940,766 L 930,756 L 929,756 L 919,746 L 918,746 L 916,744 L 913,744 Z" fill="black" fill-rule="evenodd"/>
<path d="M 698,721 L 698,722 L 697,723 L 697,724 L 698,725 L 698,727 L 701,730 L 700,731 L 701,730 L 703,732 L 702,733 L 703,732 L 708,737 L 708,738 L 711,741 L 710,742 L 711,741 L 716,746 L 716,747 L 726,757 L 726,758 L 728,760 L 727,761 L 728,760 L 737,769 L 737,770 L 748,781 L 748,782 L 753,787 L 752,788 L 753,787 L 759,793 L 759,794 L 774,809 L 774,810 L 785,821 L 787,821 L 787,819 L 786,818 L 786,817 L 784,815 L 784,814 L 779,809 L 779,808 L 773,802 L 773,801 L 769,797 L 769,796 L 764,791 L 764,790 L 757,783 L 757,782 L 752,777 L 752,776 L 744,768 L 744,767 L 737,760 L 737,759 L 728,750 L 728,749 L 721,742 L 721,741 L 709,729 L 709,728 L 702,721 Z" fill="black" fill-rule="evenodd"/>
<path d="M 794,663 L 794,664 L 797,667 L 797,668 L 813,684 L 813,685 L 847,719 L 846,720 L 847,721 L 848,720 L 850,722 L 849,723 L 850,722 L 853,725 L 852,726 L 853,725 L 863,735 L 862,736 L 863,735 L 865,737 L 864,738 L 865,737 L 874,746 L 875,746 L 877,748 L 877,749 L 878,749 L 891,762 L 890,763 L 892,765 L 893,764 L 903,774 L 904,774 L 909,779 L 908,780 L 909,779 L 912,782 L 911,783 L 912,782 L 914,784 L 913,785 L 918,790 L 919,789 L 920,789 L 928,797 L 929,797 L 932,800 L 933,800 L 932,799 L 932,798 L 928,794 L 928,793 L 920,785 L 920,784 L 902,766 L 902,765 L 831,694 L 832,693 L 831,694 L 827,690 L 826,690 L 810,674 L 811,673 L 810,674 L 806,670 L 805,670 L 799,664 L 798,664 L 796,662 L 795,662 Z" fill="black" fill-rule="evenodd"/>
<path d="M 815,659 L 815,660 L 828,673 L 829,673 L 843,687 L 844,687 L 850,693 L 851,693 L 860,702 L 861,702 L 868,709 L 869,709 L 870,710 L 870,713 L 871,714 L 871,715 L 881,725 L 882,725 L 885,728 L 884,729 L 885,728 L 886,728 L 888,730 L 894,730 L 896,728 L 896,727 L 897,726 L 897,724 L 896,723 L 896,722 L 895,721 L 895,720 L 890,715 L 889,715 L 882,708 L 881,708 L 879,706 L 873,706 L 868,701 L 867,701 L 860,694 L 859,694 L 854,689 L 853,689 L 846,682 L 845,682 L 840,677 L 839,677 L 833,671 L 832,671 L 827,666 L 826,666 L 822,662 L 821,662 L 819,660 L 818,660 L 816,658 Z" fill="black" fill-rule="evenodd"/>
<path d="M 610,631 L 609,632 L 609,634 L 610,635 L 610,636 L 617,643 L 617,644 L 625,652 L 625,653 L 635,663 L 635,664 L 643,672 L 643,673 L 654,684 L 654,688 L 655,689 L 655,690 L 658,693 L 658,694 L 670,706 L 672,706 L 673,707 L 676,707 L 677,706 L 678,706 L 679,705 L 679,698 L 677,696 L 677,695 L 673,691 L 673,690 L 666,683 L 665,683 L 663,681 L 661,681 L 660,680 L 659,680 L 658,681 L 651,674 L 651,673 L 641,663 L 641,662 L 624,645 L 624,644 L 612,632 L 611,632 Z" fill="black" fill-rule="evenodd"/>
<path d="M 582,631 L 582,633 L 589,641 L 589,642 L 593,646 L 593,647 L 597,651 L 597,652 L 600,655 L 600,656 L 610,667 L 610,668 L 613,671 L 613,672 L 618,677 L 618,678 L 623,683 L 623,684 L 627,688 L 627,689 L 638,701 L 638,702 L 642,706 L 642,707 L 648,713 L 648,714 L 658,725 L 658,726 L 659,727 L 658,728 L 659,727 L 661,729 L 660,730 L 661,731 L 662,730 L 664,732 L 664,733 L 671,740 L 671,741 L 673,743 L 672,744 L 673,745 L 674,744 L 677,747 L 677,748 L 679,750 L 678,751 L 679,750 L 684,755 L 684,756 L 687,759 L 686,760 L 687,759 L 690,762 L 690,763 L 691,764 L 690,765 L 691,764 L 693,766 L 692,767 L 693,768 L 694,767 L 699,772 L 699,773 L 710,784 L 710,785 L 711,785 L 711,783 L 709,781 L 709,780 L 707,778 L 707,777 L 705,775 L 705,774 L 698,766 L 698,765 L 695,762 L 695,761 L 692,758 L 692,757 L 688,753 L 688,752 L 684,748 L 684,747 L 680,743 L 680,742 L 676,738 L 676,737 L 671,732 L 671,731 L 667,727 L 667,726 L 657,715 L 657,714 L 653,710 L 653,709 L 648,704 L 648,703 L 644,699 L 644,698 L 640,694 L 640,693 L 634,687 L 634,686 L 623,674 L 623,673 L 618,668 L 618,667 L 606,654 L 606,653 L 604,651 L 605,650 L 603,648 L 602,649 L 586,631 L 585,631 L 584,630 L 583,631 Z" fill="black" fill-rule="evenodd"/>
<path d="M 909,617 L 908,618 L 901,618 L 900,619 L 900,620 L 898,622 L 898,623 L 896,625 L 896,626 L 895,627 L 895,628 L 893,630 L 893,632 L 892,633 L 892,634 L 891,635 L 891,636 L 890,637 L 890,639 L 889,640 L 889,641 L 888,642 L 888,644 L 887,645 L 887,646 L 886,647 L 886,650 L 885,651 L 885,654 L 884,655 L 884,657 L 883,658 L 883,660 L 882,661 L 882,664 L 881,665 L 881,670 L 880,671 L 880,677 L 882,677 L 890,669 L 890,668 L 892,666 L 892,665 L 894,663 L 894,662 L 896,660 L 896,659 L 898,657 L 898,656 L 899,655 L 899,654 L 900,653 L 900,652 L 901,651 L 901,650 L 902,649 L 902,648 L 903,647 L 903,646 L 904,645 L 904,643 L 905,642 L 905,640 L 906,639 L 906,636 L 907,635 L 907,632 L 908,631 L 908,627 L 909,626 L 909,621 L 910,620 L 910,618 Z" fill="black" fill-rule="evenodd"/>
<path d="M 53,455 L 53,456 L 54,457 L 57,457 L 58,458 L 60,458 L 61,459 L 64,459 L 65,460 L 68,460 L 69,461 L 71,461 L 72,462 L 74,462 L 75,463 L 77,463 L 78,464 L 80,464 L 81,465 L 84,465 L 85,466 L 87,466 L 88,467 L 91,467 L 92,468 L 94,468 L 95,469 L 98,469 L 99,470 L 102,470 L 103,471 L 105,471 L 106,472 L 109,472 L 110,473 L 114,473 L 115,474 L 119,474 L 120,475 L 123,475 L 124,476 L 128,476 L 129,477 L 133,477 L 134,478 L 138,478 L 139,479 L 143,479 L 144,480 L 148,480 L 149,481 L 153,481 L 154,482 L 158,482 L 158,481 L 156,481 L 155,480 L 153,480 L 152,479 L 150,479 L 149,478 L 150,477 L 151,477 L 150,477 L 149,478 L 146,478 L 145,477 L 143,477 L 142,476 L 140,476 L 139,475 L 136,475 L 135,474 L 133,474 L 132,473 L 133,472 L 134,472 L 133,472 L 132,473 L 129,473 L 128,472 L 126,472 L 125,471 L 122,471 L 121,470 L 118,470 L 117,469 L 114,469 L 113,468 L 110,468 L 109,467 L 106,467 L 105,466 L 102,466 L 101,465 L 97,465 L 96,464 L 93,464 L 92,463 L 88,463 L 87,462 L 84,462 L 83,461 L 79,461 L 78,460 L 74,460 L 73,459 L 70,459 L 69,458 L 65,458 L 64,457 L 60,457 L 59,456 L 56,456 L 55,455 Z" fill="black" fill-rule="evenodd"/>
<path d="M 972,460 L 968,456 L 968,455 L 965,452 L 964,452 L 961,449 L 960,449 L 959,448 L 958,448 L 957,447 L 955,447 L 954,446 L 951,446 L 950,445 L 939,445 L 938,446 L 935,446 L 934,447 L 932,447 L 931,448 L 930,448 L 929,449 L 927,449 L 925,451 L 924,451 L 923,452 L 922,452 L 920,454 L 919,454 L 918,455 L 917,454 L 918,455 L 916,457 L 915,457 L 914,458 L 913,457 L 914,458 L 909,463 L 908,462 L 909,463 L 907,465 L 906,464 L 903,467 L 904,468 L 904,469 L 901,472 L 901,473 L 898,476 L 898,477 L 897,478 L 896,477 L 897,478 L 896,479 L 896,480 L 895,481 L 895,482 L 893,484 L 893,485 L 892,486 L 892,487 L 899,480 L 899,479 L 902,476 L 903,476 L 911,468 L 912,468 L 915,465 L 916,465 L 918,463 L 919,463 L 921,461 L 922,461 L 923,460 L 924,460 L 925,459 L 926,459 L 927,458 L 928,458 L 929,457 L 931,457 L 932,456 L 933,456 L 934,455 L 937,455 L 938,454 L 941,454 L 942,453 L 953,453 L 954,454 L 958,454 L 959,455 L 961,455 L 962,456 L 964,456 L 965,457 L 966,457 L 968,459 L 969,459 L 971,461 L 972,461 Z" fill="black" fill-rule="evenodd"/>
<path d="M 95,427 L 96,427 L 97,428 L 99,428 L 100,429 L 102,429 L 103,430 L 106,430 L 107,431 L 109,431 L 110,432 L 112,432 L 113,433 L 116,433 L 117,434 L 120,434 L 121,435 L 123,435 L 124,436 L 126,436 L 127,437 L 129,437 L 130,438 L 133,438 L 134,439 L 136,439 L 137,440 L 139,440 L 140,441 L 143,441 L 144,442 L 146,442 L 147,443 L 149,443 L 150,444 L 152,444 L 153,445 L 156,445 L 157,446 L 160,446 L 161,447 L 163,447 L 164,448 L 167,448 L 168,449 L 171,449 L 172,450 L 175,450 L 176,451 L 179,451 L 180,452 L 183,452 L 184,453 L 187,453 L 188,454 L 191,454 L 192,455 L 195,455 L 196,456 L 199,456 L 200,457 L 204,457 L 205,458 L 208,458 L 209,459 L 212,459 L 213,460 L 217,460 L 218,461 L 222,461 L 223,462 L 226,462 L 227,463 L 230,463 L 231,464 L 235,464 L 236,465 L 240,465 L 241,466 L 245,466 L 246,467 L 250,467 L 251,468 L 255,468 L 256,469 L 259,469 L 260,470 L 261,470 L 262,469 L 261,468 L 258,468 L 257,467 L 255,467 L 254,466 L 251,466 L 250,465 L 248,465 L 247,464 L 245,464 L 244,463 L 242,463 L 241,462 L 238,462 L 237,461 L 235,461 L 234,460 L 231,460 L 230,459 L 227,459 L 226,458 L 224,458 L 223,457 L 220,457 L 219,456 L 217,456 L 216,455 L 213,455 L 212,454 L 209,454 L 208,453 L 205,453 L 204,452 L 202,452 L 201,451 L 198,451 L 197,450 L 194,450 L 193,449 L 190,449 L 189,448 L 187,448 L 186,447 L 183,447 L 182,446 L 179,446 L 178,445 L 175,445 L 174,444 L 171,444 L 170,443 L 167,443 L 166,442 L 163,442 L 162,441 L 158,441 L 157,440 L 154,440 L 153,439 L 150,439 L 149,438 L 145,438 L 144,437 L 141,437 L 140,436 L 137,436 L 136,435 L 133,435 L 132,434 L 128,434 L 127,433 L 123,433 L 122,432 L 119,432 L 118,431 L 114,431 L 113,430 L 110,430 L 109,429 L 105,429 L 104,428 L 101,428 L 100,427 Z" fill="black" fill-rule="evenodd"/>
<path d="M 37,376 L 38,377 L 41,377 L 45,379 L 48,379 L 55,382 L 58,382 L 59,383 L 61,383 L 62,384 L 64,384 L 71,387 L 74,387 L 75,388 L 77,388 L 78,389 L 80,389 L 81,390 L 83,390 L 90,393 L 93,393 L 94,394 L 96,394 L 97,395 L 99,395 L 106,398 L 109,398 L 116,401 L 119,401 L 123,403 L 126,403 L 133,406 L 140,407 L 144,409 L 147,409 L 151,411 L 154,411 L 155,412 L 161,413 L 165,415 L 168,415 L 172,417 L 175,417 L 176,418 L 179,418 L 180,419 L 183,419 L 184,420 L 191,421 L 192,422 L 198,423 L 199,424 L 203,424 L 207,426 L 210,426 L 211,427 L 214,427 L 215,428 L 218,428 L 219,429 L 222,429 L 223,430 L 226,430 L 227,431 L 230,431 L 231,432 L 234,432 L 235,433 L 238,433 L 239,434 L 243,434 L 244,435 L 253,436 L 257,438 L 260,438 L 261,439 L 264,439 L 265,440 L 269,440 L 270,441 L 272,441 L 272,440 L 270,439 L 267,439 L 266,438 L 264,438 L 263,437 L 261,437 L 260,436 L 258,436 L 257,435 L 255,435 L 248,432 L 245,432 L 244,431 L 242,431 L 241,430 L 239,430 L 232,427 L 229,427 L 228,426 L 226,426 L 219,423 L 212,422 L 211,421 L 209,421 L 202,418 L 199,418 L 195,416 L 192,416 L 185,413 L 178,412 L 177,411 L 171,410 L 167,408 L 164,408 L 160,406 L 153,405 L 149,403 L 146,403 L 145,402 L 142,402 L 138,400 L 135,400 L 134,399 L 127,398 L 123,396 L 115,395 L 114,394 L 111,394 L 110,393 L 104,392 L 100,390 L 96,390 L 95,389 L 92,389 L 88,387 L 84,387 L 83,386 L 80,386 L 79,385 L 76,385 L 75,384 L 72,384 L 71,383 L 68,383 L 67,382 L 64,382 L 63,381 L 60,381 L 59,380 L 56,380 L 55,379 L 52,379 L 51,378 L 48,378 L 47,377 L 44,377 L 43,376 L 39,376 L 38,375 Z" fill="black" fill-rule="evenodd"/>
<path d="M 344,323 L 344,324 L 345,325 L 345,326 L 348,329 L 349,329 L 352,332 L 351,333 L 352,334 L 351,333 L 352,332 L 353,332 L 355,334 L 356,334 L 357,335 L 358,335 L 359,336 L 360,336 L 361,337 L 362,337 L 363,338 L 365,338 L 366,339 L 368,339 L 369,340 L 371,340 L 372,341 L 374,341 L 375,342 L 374,343 L 372,343 L 372,344 L 377,344 L 375,344 L 374,343 L 375,342 L 378,342 L 379,343 L 383,343 L 384,344 L 388,344 L 389,345 L 393,345 L 394,346 L 398,346 L 399,347 L 402,347 L 403,346 L 412,346 L 413,345 L 421,345 L 422,344 L 429,344 L 430,343 L 439,343 L 440,342 L 445,342 L 446,341 L 449,341 L 450,340 L 452,340 L 453,339 L 454,339 L 455,338 L 455,337 L 456,336 L 455,335 L 455,334 L 453,332 L 452,332 L 451,331 L 450,331 L 449,330 L 447,330 L 446,329 L 444,329 L 443,328 L 440,328 L 439,327 L 435,327 L 434,326 L 429,326 L 428,325 L 420,325 L 419,324 L 396,324 L 395,323 L 358,323 L 357,322 L 354,322 L 353,323 Z" fill="black" fill-rule="evenodd"/>
<path d="M 118,329 L 135,341 L 222,351 L 244,371 L 489,515 L 506,519 L 220,495 L 191,499 L 201,512 L 240,528 L 486,578 L 521,601 L 561,616 L 565,613 L 559,606 L 561,598 L 567,612 L 568,608 L 580,615 L 597,615 L 572,584 L 559,581 L 573,579 L 585,593 L 651,609 L 670,606 L 679,591 L 669,586 L 683,585 L 686,596 L 759,618 L 743,618 L 742,624 L 785,645 L 802,638 L 803,633 L 794,628 L 858,634 L 877,626 L 888,613 L 917,613 L 941,600 L 937,583 L 922,566 L 932,564 L 949,532 L 959,493 L 958,466 L 949,471 L 932,505 L 919,564 L 898,542 L 697,451 L 684,421 L 668,408 L 620,392 L 539,376 L 540,339 L 528,374 L 359,342 L 347,335 L 332,315 L 304,211 L 284,189 L 270,188 L 253,199 L 234,242 L 217,321 L 239,327 L 127,323 Z M 883,568 L 884,569 L 884,570 L 885,571 L 885,572 L 884,573 L 884,574 L 883,575 L 883,576 L 882,577 L 882,579 L 881,580 L 881,582 L 880,583 L 879,582 L 879,581 L 879,582 L 880,583 L 880,586 L 879,587 L 879,593 L 878,594 L 878,598 L 877,599 L 876,598 L 876,596 L 875,595 L 875,589 L 876,588 L 876,583 L 877,582 L 877,579 L 878,578 L 878,576 L 880,574 L 881,575 L 880,574 L 880,572 L 882,570 L 882,569 Z M 481,566 L 482,565 L 484,565 L 485,566 L 493,566 L 494,567 L 500,567 L 501,568 L 500,569 L 498,569 L 500,569 L 501,568 L 507,568 L 508,569 L 514,569 L 515,570 L 514,571 L 510,571 L 512,571 L 513,572 L 519,572 L 516,572 L 515,571 L 516,570 L 521,570 L 522,571 L 528,571 L 529,572 L 533,572 L 534,573 L 533,574 L 527,574 L 528,575 L 533,575 L 533,574 L 534,573 L 540,573 L 541,574 L 547,574 L 548,575 L 553,575 L 554,576 L 559,576 L 560,577 L 565,577 L 566,578 L 565,579 L 558,579 L 559,579 L 560,580 L 559,581 L 552,581 L 551,580 L 548,580 L 547,581 L 547,583 L 549,585 L 549,586 L 548,587 L 549,586 L 551,588 L 550,589 L 550,590 L 551,590 L 552,591 L 552,592 L 553,593 L 552,594 L 551,594 L 545,588 L 544,588 L 543,587 L 543,583 L 544,582 L 545,583 L 545,585 L 545,582 L 544,582 L 543,583 L 542,582 L 542,581 L 540,579 L 539,579 L 538,578 L 533,578 L 532,577 L 527,577 L 526,576 L 521,576 L 520,575 L 517,575 L 516,574 L 512,574 L 511,573 L 506,573 L 505,572 L 501,572 L 500,571 L 497,571 L 496,570 L 492,570 L 491,569 L 488,569 L 487,568 L 483,568 Z M 890,561 L 891,562 L 891,563 L 888,566 L 888,567 L 886,569 L 884,567 L 884,566 L 888,562 L 889,562 Z M 793,555 L 795,553 L 798,553 L 799,554 L 802,554 L 803,555 L 805,555 L 806,556 L 808,556 L 809,557 L 811,557 L 812,558 L 814,558 L 815,559 L 817,559 L 818,560 L 820,560 L 821,561 L 823,561 L 824,562 L 826,562 L 827,563 L 829,563 L 830,564 L 832,564 L 833,565 L 835,565 L 836,566 L 837,566 L 838,567 L 840,567 L 841,568 L 843,568 L 844,569 L 846,569 L 847,570 L 846,571 L 845,571 L 846,571 L 847,570 L 849,570 L 850,571 L 852,571 L 853,572 L 854,572 L 855,573 L 854,574 L 853,574 L 854,574 L 855,573 L 856,574 L 856,575 L 855,576 L 845,576 L 844,575 L 842,575 L 841,574 L 839,574 L 838,573 L 836,573 L 835,572 L 834,572 L 833,571 L 830,571 L 829,570 L 828,570 L 827,569 L 825,569 L 824,568 L 822,568 L 821,567 L 820,567 L 819,566 L 817,566 L 816,565 L 814,565 L 813,564 L 812,564 L 811,563 L 809,563 L 808,562 L 807,562 L 806,561 L 804,561 L 803,560 L 802,560 L 801,559 L 802,558 L 803,558 L 804,557 L 801,557 L 802,558 L 801,559 L 799,559 L 798,558 L 797,558 L 796,557 L 795,557 Z M 401,456 L 402,455 L 404,455 L 403,454 L 404,453 L 406,453 L 407,454 L 410,454 L 411,455 L 411,456 L 410,457 L 409,457 L 423,457 L 424,458 L 423,459 L 419,459 L 418,460 L 414,460 L 413,459 L 408,459 L 407,458 L 405,458 L 404,457 L 402,457 Z M 379,436 L 380,435 L 381,435 L 381,434 L 382,433 L 384,435 L 384,436 L 386,438 L 386,439 L 395,448 L 396,448 L 397,449 L 398,449 L 399,450 L 400,450 L 401,451 L 402,451 L 404,453 L 403,454 L 402,454 L 402,455 L 401,456 L 400,456 L 399,455 L 398,455 L 397,454 L 398,453 L 398,452 L 398,453 L 397,454 L 396,454 L 394,452 L 393,452 L 392,451 L 393,450 L 393,449 L 392,449 L 391,448 L 391,447 L 386,442 L 385,442 L 384,443 L 382,441 L 382,440 L 380,438 L 380,437 Z M 653,427 L 654,428 L 654,429 L 653,430 L 653,431 L 653,430 L 654,429 L 655,430 L 655,431 L 656,432 L 656,434 L 657,435 L 657,436 L 658,437 L 658,439 L 659,440 L 659,441 L 660,442 L 660,444 L 661,445 L 661,447 L 660,448 L 659,448 L 658,449 L 651,449 L 650,450 L 642,450 L 641,449 L 641,447 L 642,446 L 642,445 L 643,444 L 643,443 L 644,442 L 644,441 L 645,440 L 645,439 L 646,438 L 646,437 L 647,436 L 647,435 L 649,433 L 649,432 L 651,430 L 651,429 Z M 377,419 L 378,420 L 378,423 L 379,424 L 379,426 L 380,427 L 380,429 L 379,430 L 378,429 L 378,430 L 377,431 L 376,430 L 376,429 L 375,428 L 375,426 L 374,425 L 374,423 L 375,422 L 376,423 L 376,420 Z M 659,421 L 660,420 L 661,420 L 662,419 L 663,419 L 664,418 L 670,418 L 671,419 L 672,419 L 673,420 L 674,420 L 676,422 L 676,423 L 677,424 L 676,425 L 677,424 L 678,425 L 678,426 L 677,427 L 678,426 L 679,427 L 679,428 L 680,429 L 680,430 L 681,431 L 681,433 L 682,434 L 682,435 L 683,436 L 683,438 L 684,439 L 684,440 L 685,441 L 685,443 L 684,444 L 683,443 L 683,442 L 683,444 L 684,444 L 685,443 L 686,444 L 686,445 L 685,446 L 676,446 L 675,447 L 670,447 L 669,446 L 669,445 L 668,444 L 668,443 L 667,442 L 667,440 L 666,439 L 666,438 L 665,437 L 665,436 L 664,435 L 664,433 L 663,432 L 663,431 L 662,430 L 662,429 L 661,428 L 661,426 L 660,425 L 660,423 L 659,422 Z M 628,404 L 630,404 L 631,405 L 633,405 L 634,406 L 636,406 L 637,407 L 639,407 L 640,408 L 643,408 L 644,409 L 646,409 L 647,410 L 649,410 L 650,411 L 652,411 L 653,412 L 648,417 L 647,417 L 647,418 L 643,422 L 643,423 L 642,424 L 642,425 L 641,426 L 641,427 L 640,428 L 640,429 L 638,431 L 638,432 L 637,433 L 637,434 L 636,435 L 636,436 L 635,437 L 635,438 L 634,439 L 634,440 L 633,441 L 633,442 L 632,443 L 632,444 L 631,445 L 631,446 L 629,448 L 628,448 L 627,447 L 625,447 L 624,446 L 623,446 L 622,445 L 620,445 L 619,444 L 618,444 L 617,443 L 615,443 L 614,442 L 613,442 L 612,441 L 610,441 L 609,440 L 608,440 L 607,439 L 608,438 L 608,437 L 609,436 L 609,434 L 610,433 L 610,432 L 611,431 L 611,430 L 612,429 L 612,427 L 613,426 L 613,425 L 614,424 L 614,423 L 615,422 L 615,421 L 616,420 L 616,419 L 618,417 L 618,416 L 619,415 L 619,414 L 621,412 L 621,411 Z M 594,395 L 595,395 L 596,396 L 600,396 L 601,397 L 604,397 L 605,398 L 607,398 L 608,399 L 612,399 L 613,400 L 615,400 L 617,402 L 615,404 L 614,403 L 614,402 L 613,403 L 614,403 L 615,404 L 615,405 L 611,409 L 611,410 L 610,411 L 610,412 L 609,413 L 609,414 L 608,415 L 608,416 L 607,417 L 607,418 L 606,419 L 606,420 L 605,421 L 605,422 L 604,423 L 604,424 L 603,425 L 603,426 L 602,427 L 602,428 L 601,429 L 601,430 L 600,431 L 600,432 L 599,433 L 599,434 L 598,435 L 595,435 L 594,434 L 593,434 L 592,433 L 590,433 L 589,432 L 588,432 L 587,431 L 585,431 L 584,430 L 583,430 L 582,429 L 581,429 L 580,428 L 578,428 L 577,427 L 577,424 L 578,423 L 578,422 L 579,421 L 579,419 L 580,418 L 580,417 L 581,416 L 581,415 L 582,414 L 582,413 L 583,412 L 583,411 L 584,410 L 584,409 L 585,408 L 585,407 L 586,406 L 586,405 L 587,404 L 587,403 L 590,400 L 590,399 Z M 550,386 L 551,387 L 557,387 L 558,388 L 562,388 L 563,389 L 568,389 L 569,390 L 573,390 L 574,391 L 577,391 L 578,392 L 581,392 L 583,394 L 580,397 L 580,398 L 579,399 L 579,400 L 577,402 L 577,403 L 576,404 L 576,405 L 575,406 L 575,407 L 574,408 L 574,409 L 573,410 L 573,411 L 572,412 L 572,413 L 571,414 L 571,416 L 570,417 L 570,418 L 569,419 L 569,420 L 567,422 L 565,422 L 564,421 L 562,421 L 561,420 L 560,420 L 559,419 L 557,419 L 556,418 L 555,418 L 554,417 L 553,417 L 552,416 L 551,416 L 550,415 L 549,415 L 548,414 L 547,414 L 546,413 L 544,413 L 543,412 L 542,412 L 540,410 L 540,407 L 539,406 L 540,405 L 540,402 L 541,401 L 541,399 L 542,398 L 542,397 L 543,396 L 543,395 L 544,394 L 544,393 L 546,391 L 546,390 Z M 422,381 L 423,382 L 423,389 L 424,390 L 424,405 L 426,405 L 427,406 L 428,406 L 429,407 L 430,407 L 431,408 L 433,408 L 434,409 L 436,409 L 437,410 L 438,410 L 439,411 L 440,411 L 441,412 L 443,412 L 445,414 L 444,415 L 442,415 L 441,416 L 440,416 L 439,417 L 437,417 L 436,418 L 435,418 L 434,419 L 432,419 L 431,420 L 430,420 L 429,421 L 427,421 L 426,422 L 425,422 L 424,423 L 424,440 L 423,441 L 423,445 L 422,446 L 420,444 L 420,443 L 418,441 L 418,440 L 416,438 L 416,437 L 413,434 L 413,433 L 411,431 L 411,430 L 409,428 L 407,428 L 406,429 L 404,429 L 403,430 L 401,430 L 400,431 L 398,431 L 397,432 L 395,432 L 394,431 L 394,430 L 393,429 L 392,430 L 391,429 L 391,428 L 392,427 L 392,426 L 394,424 L 394,423 L 395,422 L 395,421 L 396,420 L 396,419 L 398,417 L 398,416 L 399,415 L 399,414 L 400,413 L 399,412 L 399,411 L 398,410 L 398,409 L 396,407 L 396,406 L 397,405 L 396,406 L 395,405 L 395,404 L 393,402 L 393,401 L 392,400 L 392,399 L 391,398 L 391,397 L 390,396 L 390,395 L 389,394 L 390,393 L 392,393 L 393,394 L 392,395 L 393,394 L 395,394 L 396,395 L 398,395 L 399,396 L 401,396 L 402,397 L 404,397 L 405,398 L 407,398 L 408,399 L 409,399 L 410,398 L 410,397 L 412,395 L 412,394 L 415,391 L 415,390 L 418,387 L 418,386 L 421,383 L 421,382 Z M 396,372 L 399,375 L 397,377 L 396,377 L 395,378 L 394,378 L 390,382 L 389,382 L 387,384 L 387,385 L 384,388 L 384,389 L 382,391 L 382,392 L 381,393 L 381,394 L 380,395 L 380,397 L 379,398 L 379,399 L 378,400 L 378,404 L 377,405 L 377,419 L 376,420 L 375,419 L 375,421 L 374,422 L 373,421 L 373,416 L 372,415 L 372,408 L 373,407 L 373,402 L 374,401 L 375,402 L 375,404 L 376,403 L 376,400 L 375,401 L 374,400 L 374,398 L 375,397 L 375,395 L 376,394 L 376,393 L 377,392 L 378,393 L 378,395 L 378,394 L 379,393 L 378,393 L 377,392 L 377,390 L 379,388 L 380,389 L 381,389 L 381,387 L 382,386 L 383,386 L 384,385 L 383,384 L 384,383 L 383,382 L 390,375 L 391,375 L 392,374 L 393,375 L 393,376 L 393,375 L 392,374 L 393,373 L 394,373 L 395,372 Z M 405,368 L 410,368 L 411,367 L 417,367 L 418,368 L 422,368 L 423,369 L 422,370 L 419,370 L 420,370 L 421,371 L 425,371 L 424,371 L 423,370 L 424,369 L 426,369 L 427,370 L 429,370 L 430,371 L 435,373 L 439,377 L 438,378 L 439,377 L 440,377 L 444,381 L 444,382 L 443,383 L 442,383 L 443,383 L 445,385 L 445,386 L 446,387 L 447,386 L 449,388 L 449,389 L 448,390 L 447,389 L 447,391 L 448,391 L 448,390 L 449,389 L 450,390 L 450,391 L 452,394 L 453,399 L 454,400 L 454,403 L 455,404 L 455,423 L 454,424 L 454,427 L 453,428 L 453,430 L 452,431 L 452,432 L 451,433 L 450,432 L 450,431 L 449,432 L 449,434 L 450,433 L 451,434 L 450,437 L 449,438 L 448,437 L 448,436 L 447,437 L 447,438 L 448,437 L 449,438 L 448,441 L 446,443 L 445,442 L 446,443 L 446,444 L 444,446 L 443,445 L 438,450 L 437,450 L 438,450 L 439,451 L 438,452 L 437,452 L 436,453 L 435,452 L 436,453 L 434,455 L 433,455 L 430,457 L 428,457 L 427,458 L 424,458 L 421,456 L 420,457 L 412,457 L 411,456 L 412,455 L 419,455 L 420,454 L 423,454 L 424,453 L 426,453 L 427,452 L 432,450 L 434,448 L 435,448 L 441,442 L 441,441 L 445,436 L 445,435 L 448,430 L 448,428 L 449,427 L 449,423 L 450,422 L 450,418 L 451,417 L 451,409 L 450,408 L 450,404 L 449,403 L 449,400 L 448,399 L 448,397 L 449,396 L 450,396 L 450,395 L 449,395 L 449,396 L 448,397 L 447,396 L 445,391 L 440,385 L 440,384 L 437,381 L 436,381 L 433,378 L 430,377 L 428,375 L 426,375 L 423,373 L 420,373 L 419,372 L 408,372 L 407,373 L 405,373 L 404,374 L 399,375 L 398,374 L 398,373 L 397,373 L 396,372 L 397,371 L 398,371 L 399,370 L 401,370 L 402,369 L 404,369 L 405,370 L 404,371 L 403,371 L 406,371 L 406,370 L 405,370 L 404,369 Z M 277,338 L 278,337 L 280,337 L 281,338 L 282,338 L 283,339 L 284,339 L 285,340 L 286,340 L 287,341 L 286,342 L 287,341 L 288,341 L 290,343 L 291,343 L 295,347 L 294,348 L 293,348 L 292,347 L 291,347 L 290,346 L 289,346 L 288,345 L 287,345 L 286,344 L 285,344 L 284,343 L 283,343 L 282,342 L 280,342 L 279,341 L 278,341 L 277,340 L 278,339 L 279,339 L 278,339 Z M 256,333 L 257,332 L 259,332 L 258,332 L 257,331 L 258,330 L 260,330 L 261,331 L 263,331 L 264,332 L 266,332 L 267,333 L 266,334 L 264,334 L 266,334 L 267,333 L 269,333 L 270,334 L 272,334 L 273,335 L 272,336 L 271,336 L 272,336 L 273,337 L 274,337 L 275,336 L 277,336 L 278,337 L 277,338 L 276,338 L 277,338 L 278,339 L 277,340 L 275,340 L 274,339 L 272,339 L 271,338 L 269,338 L 268,337 L 267,337 L 266,336 L 263,336 L 262,335 L 260,335 L 259,334 L 257,334 Z M 236,328 L 237,327 L 239,327 L 240,326 L 244,326 L 245,327 L 249,327 L 250,328 L 249,329 L 247,329 L 249,329 L 250,328 L 253,328 L 254,329 L 256,329 L 257,330 L 256,331 L 255,331 L 256,331 L 257,332 L 256,333 L 253,333 L 252,332 L 249,332 L 248,331 L 246,331 L 245,330 L 241,330 L 240,329 L 237,329 Z" fill="black" fill-rule="evenodd"/>
</svg>