<svg xmlns="http://www.w3.org/2000/svg" width="2172" height="724" viewBox="0 0 2172 724">
<rect width="100%" height="100%" fill="white"/>
<path d="M 1222,446 L 1221,447 L 1221,448 L 1220,449 L 1220,452 L 1222,452 L 1223,453 L 1223,449 L 1222,448 Z" fill="black" fill-rule="evenodd"/>
<path d="M 1189,352 L 1188,353 L 1186,353 L 1186,359 L 1187,360 L 1187,362 L 1186,363 L 1187,364 L 1187,366 L 1187,365 L 1188,364 L 1189,365 L 1189,366 L 1190,367 L 1190,368 L 1190,367 L 1189,366 L 1189,364 L 1187,362 L 1187,361 L 1188,360 L 1188,358 L 1189,357 Z" fill="black" fill-rule="evenodd"/>
<path d="M 51,316 L 50,317 L 48,317 L 48,325 L 49,325 L 48,324 L 50,322 L 51,323 L 51,326 Z" fill="black" fill-rule="evenodd"/>
<path d="M 52,450 L 75,459 L 109,456 L 115,442 L 233,448 L 255,416 L 283,399 L 349,379 L 397,377 L 413,401 L 379,479 L 433,492 L 450,420 L 504,422 L 522,410 L 525,423 L 549,372 L 843,369 L 866,343 L 1186,343 L 1193,371 L 1182,378 L 1192,388 L 1164,526 L 1149,535 L 1166,543 L 1199,536 L 1187,525 L 1210,408 L 1241,534 L 1226,541 L 1262,550 L 1277,538 L 1262,533 L 1231,371 L 1252,366 L 1254,354 L 1234,353 L 1228,334 L 1266,333 L 1229,331 L 1914,324 L 1921,333 L 2001,336 L 2023,351 L 2097,351 L 2114,329 L 2114,284 L 2110,291 L 2099,263 L 2020,264 L 1998,282 L 1921,285 L 1914,294 L 1273,293 L 1266,285 L 688,293 L 648,278 L 623,300 L 554,301 L 541,285 L 485,277 L 491,237 L 470,232 L 460,250 L 474,280 L 470,271 L 472,281 L 455,294 L 397,297 L 400,334 L 319,334 L 302,318 L 123,318 L 115,328 L 117,312 L 99,304 L 54,310 L 60,400 Z M 115,416 L 116,417 L 116,421 L 116,417 L 117,416 L 118,416 L 119,417 L 119,422 L 118,423 L 115,423 L 114,422 L 114,417 Z M 114,393 L 115,394 L 115,415 L 114,416 L 113,415 L 113,394 Z M 1212,387 L 1213,388 L 1213,393 L 1214,394 L 1214,398 L 1215,399 L 1215,402 L 1214,403 L 1213,402 L 1213,401 L 1211,401 L 1211,402 L 1210,403 L 1210,406 L 1209,407 L 1209,411 L 1208,412 L 1207,411 L 1207,406 L 1208,405 L 1208,402 L 1209,401 L 1209,397 L 1210,396 L 1210,393 L 1211,392 L 1211,388 Z M 116,384 L 120,384 L 121,385 L 121,415 L 120,416 L 119,415 L 119,413 L 118,412 L 118,405 L 119,404 L 119,395 L 118,395 L 117,394 L 115,394 L 114,393 L 115,392 L 115,385 Z M 512,385 L 512,386 L 514,388 L 514,407 L 513,408 L 513,409 L 511,412 L 510,411 L 509,411 L 508,412 L 507,412 L 507,413 L 508,412 L 509,412 L 510,413 L 508,415 L 506,415 L 505,414 L 500,414 L 505,414 L 506,415 L 505,416 L 471,416 L 470,415 L 471,414 L 475,414 L 471,414 L 468,412 L 469,411 L 470,411 L 469,410 L 468,411 L 467,411 L 466,410 L 465,411 L 463,408 L 463,405 L 462,404 L 462,391 L 463,390 L 463,388 L 465,386 L 468,389 L 469,389 L 470,388 L 471,388 L 471,386 L 472,385 L 473,386 L 473,388 L 474,389 L 474,391 L 475,392 L 475,399 L 476,400 L 476,401 L 477,402 L 477,403 L 478,404 L 478,405 L 480,408 L 479,409 L 477,409 L 479,409 L 480,408 L 483,411 L 486,411 L 486,409 L 487,408 L 488,409 L 488,410 L 488,409 L 486,407 L 486,406 L 485,405 L 484,406 L 483,405 L 483,404 L 484,403 L 483,404 L 481,401 L 481,392 L 483,389 L 484,390 L 484,391 L 484,390 L 485,389 L 485,388 L 484,387 L 485,386 L 485,385 L 487,383 L 488,384 L 491,384 L 488,384 L 487,383 L 490,381 L 494,381 L 495,382 L 508,382 L 509,383 L 510,383 Z M 140,396 L 141,395 L 141,388 L 142,387 L 143,388 L 143,391 L 143,389 L 144,388 L 146,388 L 147,387 L 146,386 L 145,387 L 143,385 L 143,384 L 149,378 L 150,378 L 153,376 L 211,376 L 213,378 L 214,378 L 217,380 L 216,381 L 215,381 L 216,382 L 216,381 L 217,380 L 221,384 L 221,385 L 219,388 L 218,387 L 217,387 L 218,388 L 218,389 L 220,387 L 220,386 L 221,385 L 223,388 L 223,391 L 224,392 L 224,397 L 223,398 L 222,397 L 222,394 L 221,394 L 221,397 L 223,399 L 223,402 L 222,403 L 221,406 L 218,409 L 217,408 L 216,409 L 215,409 L 214,408 L 214,409 L 216,409 L 217,410 L 216,411 L 215,411 L 213,413 L 212,413 L 211,412 L 208,412 L 207,413 L 157,413 L 207,413 L 208,414 L 207,415 L 156,415 L 155,414 L 153,414 L 152,413 L 153,412 L 155,412 L 153,412 L 152,413 L 151,413 L 150,412 L 151,411 L 150,411 L 149,410 L 150,409 L 151,409 L 148,409 L 147,408 L 146,409 L 143,406 L 143,405 L 144,404 L 143,405 L 142,404 L 142,403 L 141,402 L 141,398 L 140,397 Z M 60,376 L 61,377 L 61,390 L 60,391 L 59,390 L 59,377 Z M 1125,346 L 1126,345 L 1133,345 L 1134,346 L 1133,347 L 1126,347 Z M 119,343 L 121,345 L 121,368 L 120,369 L 116,369 L 115,368 L 115,365 L 116,364 L 117,364 L 118,363 L 119,363 L 119,348 L 118,347 L 118,344 Z M 114,341 L 115,342 L 115,363 L 114,364 L 113,363 L 113,342 Z M 115,334 L 116,335 L 116,337 L 118,335 L 119,336 L 119,343 L 118,344 L 117,343 L 117,342 L 116,343 L 114,341 L 114,335 Z M 1063,306 L 1064,305 L 1065,306 L 1066,305 L 1067,305 L 1068,306 L 1068,310 L 1067,311 L 1066,311 L 1065,312 L 1063,310 Z M 1065,312 L 1066,311 L 1067,311 L 1068,312 L 1069,311 L 1069,310 L 1068,309 L 1068,307 L 1069,306 L 1068,306 L 1067,305 L 1068,304 L 1069,304 L 1070,303 L 1105,303 L 1106,304 L 1106,305 L 1107,304 L 1108,304 L 1109,303 L 1111,305 L 1111,311 L 1109,313 L 1108,313 L 1107,312 L 1108,311 L 1106,311 L 1105,312 L 1107,312 L 1108,313 L 1107,314 L 1086,314 L 1085,315 L 1084,315 L 1083,314 L 1067,314 Z M 913,305 L 916,302 L 917,302 L 918,303 L 917,304 L 918,303 L 955,303 L 956,302 L 957,302 L 958,303 L 957,304 L 958,303 L 960,305 L 960,307 L 961,308 L 960,309 L 960,311 L 959,312 L 958,311 L 958,310 L 958,311 L 959,312 L 958,313 L 957,313 L 956,314 L 921,314 L 920,313 L 921,312 L 918,312 L 919,312 L 920,313 L 919,314 L 917,314 L 916,313 L 915,313 L 914,312 L 914,311 L 913,310 Z M 1068,302 L 1069,301 L 1106,301 L 1107,302 L 1106,303 L 1069,303 Z M 988,305 L 989,304 L 990,305 L 990,310 L 991,311 L 990,310 L 990,306 L 991,305 L 991,304 L 990,303 L 991,302 L 992,302 L 993,301 L 1031,301 L 1032,302 L 1031,303 L 1026,303 L 1029,303 L 1030,304 L 1032,302 L 1033,302 L 1035,304 L 1035,305 L 1036,306 L 1036,309 L 1035,310 L 1035,311 L 1032,314 L 992,314 L 991,313 L 990,313 L 988,311 Z M 917,302 L 918,301 L 955,301 L 956,302 L 955,303 L 918,303 Z M 838,306 L 839,305 L 839,304 L 841,302 L 842,302 L 843,301 L 881,301 L 882,302 L 883,302 L 884,303 L 884,304 L 885,305 L 885,311 L 882,314 L 842,314 L 841,313 L 843,311 L 843,305 L 842,304 L 841,305 L 842,304 L 843,305 L 843,310 L 842,311 L 840,309 L 840,308 L 840,309 L 841,310 L 841,311 L 840,312 L 838,310 Z M 764,306 L 765,305 L 765,304 L 766,303 L 767,304 L 768,304 L 769,303 L 775,303 L 769,303 L 768,302 L 769,301 L 807,301 L 808,302 L 807,303 L 777,303 L 807,303 L 808,304 L 809,303 L 811,305 L 811,310 L 809,312 L 808,311 L 807,312 L 803,312 L 807,312 L 808,313 L 807,314 L 768,314 L 767,313 L 766,313 L 764,311 Z M 2111,290 L 2112,291 L 2112,324 L 2111,325 L 2110,324 L 2110,291 Z M 2065,281 L 2067,283 L 2068,283 L 2070,285 L 2070,286 L 2069,287 L 2067,285 L 2066,286 L 2066,287 L 2067,287 L 2068,286 L 2069,287 L 2070,286 L 2072,288 L 2072,290 L 2071,291 L 2071,293 L 2072,294 L 2072,319 L 2072,294 L 2073,293 L 2074,294 L 2074,321 L 2073,322 L 2073,325 L 2072,326 L 2072,327 L 2070,329 L 2069,328 L 2068,328 L 2067,329 L 2065,329 L 2064,330 L 2062,330 L 2064,330 L 2065,329 L 2066,329 L 2067,330 L 2066,331 L 2067,332 L 2066,333 L 2065,333 L 2064,332 L 2061,332 L 2061,333 L 2062,333 L 2063,334 L 2062,335 L 2055,335 L 2054,334 L 2053,334 L 2052,333 L 2050,333 L 2045,328 L 2045,327 L 2044,326 L 2044,324 L 2043,323 L 2043,293 L 2044,292 L 2044,290 L 2045,289 L 2045,288 L 2046,287 L 2046,286 L 2050,282 L 2051,282 L 2052,283 L 2055,283 L 2056,282 L 2063,282 L 2064,283 L 2063,282 L 2064,281 Z M 2051,282 L 2052,281 L 2053,281 L 2054,280 L 2062,280 L 2063,281 L 2062,282 L 2055,282 L 2054,283 L 2052,283 Z M 483,258 L 484,259 L 484,266 L 483,267 L 482,266 L 482,259 Z" fill="black" fill-rule="evenodd"/>
</svg>