<?xml version="1.0" encoding="UTF-8" standalone="no"?>
<svg
   width="1300"
   height="250"
   viewBox="0 0 1300 250"
   version="1.1"
   id="svg4"
   sodipodi:docname="ptrs41_black.svg"
   inkscape:version="1.4.2 (f4327f4, 2025-05-13)"
   xmlns:inkscape="http://www.inkscape.org/namespaces/inkscape"
   xmlns:sodipodi="http://sodipodi.sourceforge.net/DTD/sodipodi-0.dtd"
   xmlns="http://www.w3.org/2000/svg"
   xmlns:svg="http://www.w3.org/2000/svg">
  <defs
     id="defs4" />
  <sodipodi:namedview
     id="namedview4"
     pagecolor="#ffffff"
     bordercolor="#000000"
     borderopacity="0.25"
     inkscape:showpageshadow="2"
     inkscape:pageopacity="0.0"
     inkscape:pagecheckerboard="0"
     inkscape:deskcolor="#d1d1d1"
     inkscape:zoom="0.39327118"
     inkscape:cx="656.03588"
     inkscape:cy="19.07081"
     inkscape:window-width="2560"
     inkscape:window-height="1377"
     inkscape:window-x="-8"
     inkscape:window-y="-8"
     inkscape:window-maximized="1"
     inkscape:current-layer="svg4" />
  <path
     id="path4"
     d="m 291.11021,31.120801 -5.84201,10.515605 5.92986,12.706356 -0.0878,-0.438155 2.3368,5.257809 -2.24895,-4.819654 1.08055,5.403848 -9.93141,7.59461 -33.88362,1.752607 1.7526,21.615409 H 202.89601 L 192.9646,81.362031 H 88.392677 l -4.673604,5.842003 1.168402,-9.347205 -10.515607,-4.673606 -26.289016,3.505206 3.505202,52.578031 -4.673603,29.21003 13.436608,5.2578 19.862812,-1.7526 3.505202,-8.1788 68.935637,3.5052 12.85241,-18.69442 16.35761,-9.9314 38.55723,-11.68401 28.04162,-1.1684 9.3472,14.02081 -19.86281,45.56762 31.54682,7.59461 9.93141,-42.06243 31.54682,1.16841 10.5156,-7.01042 15.7734,-22.19961 171.75492,-1.75259 13.4366,-15.189214 h 186.94411 l 4.08941,16.357614 -0.5842,9.9314 -16.35761,80.61965 -8.763,5.2578 9.9314,4.6736 19.27861,-4.08939 -7.0104,-6.42621 13.43661,-68.35145 18.11021,73.60925 -8.763,4.0894 21.03121,5.25781 8.763,-7.0104 -8.763,-2.92101 -18.11022,-94.64045 1.75261,-10.51561 -3.5052,-11.099814 0.58419,-1.752595 400.17723,-4.089408 4.0895,5.257809 46.736,1.752595 12.8525,8.763013 h 43.2308 l 9.9314,-12.85241 0.2235,-22.921764 c 0,0 -1.4383,-2.049785 -8.9866,-15.635471 l -46.1517,0.584206 -12.8525,10.515605 -44.9834,1.752596 -4.0895,5.257808 -374.47241,-0.584206 -4.0894,-4.673602 -337.66782,4.673602 -23.36801,-8.762999 -14.605,12.852407 -40.30983,0.584206 -7.59461,-9.347216 -32.71522,-4.673603 3.50521,-23.368013 z m 7.59459,15.189208 0.58421,0.584194 v 4.089408 l -0.58421,0.584195 -0.58419,-0.584195 v -4.089408 z m 917.7788,12.852407 h 4.6736 l 0.5843,0.584194 h 0.5841 0.5842 l 1.1684,1.168401 h 0.5842 l 1.1684,1.168401 v 0.584206 l 1.1685,1.1684 0.7877,0.872979 0.6171,1.489997 -0.2365,1.142226 v 15.773418 l -0.5842,0.584194 v 1.752607 l -0.5841,0.584195 v 0.584206 l -1.1685,1.1684 -1.7526,1.752596 -0.5841,0.584206 h -0.5843 l -1.7526,1.1684 h -4.0894 l -1.1684,-0.584206 -1.7526,-0.584194 -2.921,-2.921008 -0.5842,-1.1684 -0.5841,-1.752596 V 66.757014 l 0.5841,-0.584194 v -1.168401 l 0.5842,-0.584206 v -0.584195 l 0.5843,-0.584206 v -0.584194 l 2.3367,-2.336802 h 0.5842 l 0.5843,-0.584206 h 0.5841 z M 465.78611,71.430628 h 22.19961 l 0.5842,0.584195 -0.5842,0.584206 0.5842,0.584194 0.5842,-0.584194 1.1684,1.1684 v 2.921 l -1.1684,1.1684 -0.5842,-0.584194 -0.5842,0.584194 0.5842,0.584206 -0.5842,0.584195 h -22.78381 l -0.5842,-0.584195 h -0.5842 l -1.1684,-1.1684 v -2.921011 l 0.58419,-0.584195 v -0.584206 l 0.58421,-0.584194 0.5842,0.584194 h 0.5842 l 0.5842,-0.584194 -0.5842,-0.584206 z m 43.23083,0 h 22.19961 l 0.5842,0.584195 h 0.5842 l 0.5842,0.584206 v 0.584194 l 0.5842,0.584206 v 3.505206 l -1.7526,1.752595 h -23.36802 l -0.58419,-0.584195 1.1684,-1.1684 v -0.584206 l -0.58421,0.584206 -0.58419,-0.584206 v 0.584206 l -0.58421,0.584194 -1.1684,-1.1684 v -2.336805 l 0.58421,-0.584195 v -0.584206 l 1.1684,-1.1684 h 0.58419 z m 43.81502,0 h 21.61542 l 0.5842,0.584195 h 0.5842 l 0.5842,0.584206 1.1684,1.1684 v 1.168404 l 0.5842,0.584195 -0.5842,0.584206 v 1.168401 l -0.5842,0.584194 -0.5842,0.584206 h -0.5842 l -0.5842,0.584195 h -20.44701 -1.16841 -1.1684 l -0.5842,-0.584195 h -0.5842 l -0.5842,-0.584206 v -0.584194 l -0.5842,-0.584206 v -2.921 l 1.7526,-1.752606 h 0.5842 z m 43.81503,0 h 22.19961 l 0.58421,0.584195 h 0.58419 l 1.1684,1.1684 v 0.584206 l 0.58421,0.584195 v 1.75261 l -0.58421,0.584195 v 0.584206 l -1.75259,1.752595 h -23.36802 l -0.5842,-0.584195 h -0.5842 l -1.1684,-1.1684 v -3.505206 l 0.5842,-0.584206 0.5842,-0.584194 0.5842,-0.584206 h 0.5842 z m 44.39922,0 h 21.61542 l 0.58421,0.584195 1.1684,0.584206 1.1684,1.1684 v 3.505206 l -1.1684,1.1684 h -0.58421 l -0.58419,0.584195 h -12.26822 -1.75259 -9.34722 l -1.1684,-1.168401 -1.1684,-1.1684 v -2.336805 l 1.23413,-2.000059 1.22267,-0.568855 z m -557.327137,19.278608 0.7155,0.25595 1.037102,0.328256 1.667425,0.617018 0.08517,5.224986 v 13.436604 l -0.584201,0.58421 h -2.336802 l -0.945277,-0.25595 -0.577545,-1.34541 -0.229779,-14.172064 0.157477,-4.155052 z m 22.199607,24.536414 h 33.88363 l 1.36535,0.5119 0.38725,0.6565 c 1.61835,0.87354 2.80555,2.22135 4.0894,3.50521 v 0.5842 l 1.1684,1.7526 0.59086,1.29305 -0.007,1.04375 0.32825,2.5271 c 0.48184,0.69659 0.0975,2.36499 -0.38725,3.51185 l -0.4529,1.24071 -1.04375,1.29305 -1.49,1.75259 -1.62795,0.77451 -0.32161,0.45955 -1.431,0.70885 c -0.21118,-0.007 -1.37957,1.01227 -3.5052,1.1684 h -29.79422 l -1.7526,-0.5842 -1.1684,-0.5842 -2.921,-2.3368 -1.7526,-1.75261 v -0.58419 l -0.5842,-0.58421 v -0.58419 l -0.584201,-0.58421 v -2.3368 -1.75259 -4.08941 c 0.113011,-0.087 1.168401,-0.93725 1.168401,-2.3368 l 3.5052,-3.50521 h 0.58419 z m 200.51879,2.88107 6.87235,0.62414 0.58419,0.5842 h 0.58421 l 1.1684,1.1684 v 0.5842 l 1.1684,1.1684 v 11.09981 l -0.58421,0.58419 v 0.58421 l -1.1684,1.75259 -1.75259,1.75261 -1.75261,0.5842 H 291.6944 l -0.58419,-0.5842 -1.62824,-1.12846 -1.29277,-1.20834 -1.1684,-1.75261 v -1.75259 l -0.5842,-0.58421 v -7.5946 l 0.5842,-0.5842 v -1.1684 l 1.1684,-1.1684 4.08941,-0.5842 0.58419,0.5842 v 1.1684 l 0.58421,0.5842 v 1.1684 l 0.58419,0.5842 v 4.08941 l 0.58421,0.58419 v 0.58421 l 0.58419,0.58419 v 0.58421 l 0.58421,0.58419 v 0.58421 l 1.1684,1.75259 1.75259,1.75261 h 1.75261 v -1.1684 l 0.5842,-0.58421 -1.7526,-1.1684 -0.58421,-0.58419 v -0.58421 l -1.1684,-1.75259 v -5.25781 l 1.1684,-1.7526 0.58421,-1.1684 0.58419,-0.5842 v -0.5842 l 1.16841,-1.1684 1.7526,-1.1684 h 2.3368 z m -222.134196,1.79254 h 2.336802 l 0.5842,0.5842 v 17.52601 c 0,0 0.03757,0.91008 0.0023,2.09034 -0.182966,3.00804 -1.650916,2.52281 -1.752601,2.58098 l -0.0011,10e-4 -0.0011,0.001 h -1.752602 l -0.5842,-0.58419 -0.5842,-4.08941 v -2.17136 c -0.112362,-0.22637 -0.09991,-0.44111 0,-0.58876 v -9.50809 l 0.100409,-2.18961 0.232763,-3.25418 z"
     sodipodi:nodetypes="cccccccccccccccccccccccccccccccccccccccccccccccccccccccccccccccccccccccccccccccccccccccccccccccccccccccccccccccccccccccccccccccccccccccccccccccccccccccccccccccccccccccccccccccccccccccccccccccccccccccccccccccccccccccccccccccccccccccccccccccccccccccccccccccccccccccccccccccccccccccccccccccccccccccccccccccccccccccccccccccccccccccccccccccccccccccccccccccccccccc"
     style="stroke-width:0.5842" />
  <path
     d="m 730.42888,156.13969 -0.58421,0.58419 v 0.58421 l -0.58419,0.58419 v 1.75261 h 1.1684 l 0.58419,0.58419 v -2.3368 l -0.58419,-0.58419 z"
     fill="#000000"
     fill-rule="evenodd"
     id="path1"
     style="stroke-width:0.5842" />
</svg>
