<svg xmlns="http://www.w3.org/2000/svg" width="1448" height="1086" viewBox="0 0 1448 1086">
<rect width="100%" height="100%" fill="white"/>
<path d="M 605,562 L 604,563 L 600,563 L 599,564 L 597,564 L 596,565 L 594,565 L 593,566 L 592,566 L 591,567 L 590,567 L 589,568 L 588,568 L 587,569 L 586,569 L 584,571 L 583,571 L 574,580 L 574,581 L 572,583 L 572,584 L 571,585 L 571,586 L 570,587 L 570,588 L 569,589 L 569,590 L 567,593 L 567,596 L 566,597 L 566,599 L 565,600 L 565,616 L 566,617 L 566,621 L 567,622 L 567,624 L 569,627 L 569,629 L 571,631 L 571,632 L 572,633 L 572,634 L 574,636 L 574,637 L 583,646 L 584,646 L 586,648 L 587,648 L 589,650 L 590,650 L 591,651 L 593,651 L 596,653 L 599,653 L 600,654 L 604,654 L 605,655 L 616,655 L 617,654 L 622,654 L 623,653 L 626,653 L 629,651 L 631,651 L 633,649 L 634,649 L 635,648 L 636,648 L 639,645 L 640,645 L 647,638 L 647,637 L 649,635 L 649,634 L 651,632 L 651,631 L 652,630 L 652,629 L 654,626 L 654,624 L 655,623 L 655,621 L 656,620 L 656,616 L 657,615 L 657,602 L 656,601 L 656,598 L 655,597 L 655,594 L 654,593 L 654,591 L 653,590 L 653,589 L 652,588 L 652,587 L 651,586 L 651,585 L 649,583 L 649,582 L 647,580 L 647,579 L 641,573 L 640,573 L 637,570 L 636,570 L 634,568 L 633,568 L 632,567 L 631,567 L 628,565 L 626,565 L 625,564 L 622,564 L 621,563 L 617,563 L 616,562 Z M 608,630 L 614,630 L 616,632 L 616,633 L 617,634 L 617,636 L 616,637 L 616,638 L 613,641 L 609,641 L 608,640 L 607,640 L 606,639 L 606,638 L 605,637 L 605,633 Z M 582,603 L 586,603 L 587,604 L 587,605 L 588,604 L 589,605 L 589,606 L 590,607 L 590,611 L 587,614 L 586,614 L 585,615 L 584,615 L 583,614 L 581,614 L 579,612 L 579,610 L 578,609 L 579,608 L 579,606 L 581,604 L 582,605 L 581,604 Z M 637,602 L 638,603 L 640,603 L 643,606 L 643,611 L 640,614 L 639,614 L 638,615 L 637,615 L 636,614 L 634,614 L 633,613 L 633,612 L 632,611 L 632,606 L 634,604 L 635,605 L 635,606 L 635,605 L 634,604 L 635,603 L 636,603 Z M 606,602 L 607,602 L 608,601 L 614,601 L 616,603 L 615,604 L 616,605 L 616,606 L 616,605 L 617,604 L 618,605 L 618,606 L 619,607 L 619,610 L 618,611 L 618,612 L 617,613 L 616,612 L 617,613 L 615,615 L 614,615 L 613,616 L 607,616 L 604,613 L 604,612 L 603,611 L 603,606 L 604,605 L 604,604 Z M 607,577 L 608,577 L 609,578 L 612,578 L 609,578 L 608,577 L 609,576 L 613,576 L 617,580 L 617,583 L 616,584 L 616,585 L 614,587 L 608,587 L 605,584 L 605,580 L 606,579 L 606,578 Z" fill="black" fill-rule="evenodd"/>
<path d="M 590,432 L 581,432 L 578,424 L 568,424 L 565,436 L 445,436 L 440,443 L 145,445 L 143,440 L 123,442 L 115,439 L 91,439 L 79,435 L 72,435 L 67,443 L 66,463 L 69,473 L 73,476 L 101,472 L 118,472 L 124,469 L 134,469 L 137,472 L 143,472 L 145,466 L 440,470 L 445,478 L 429,484 L 427,493 L 425,489 L 420,489 L 419,492 L 414,495 L 414,504 L 421,510 L 424,510 L 427,506 L 430,515 L 439,515 L 443,520 L 450,520 L 453,516 L 466,515 L 547,516 L 556,515 Z M 501,479 L 502,478 L 519,478 L 520,477 L 530,477 L 531,478 L 565,478 L 566,479 L 565,480 L 565,481 L 564,482 L 504,482 L 503,481 L 503,480 L 502,480 Z M 448,478 L 449,477 L 458,477 L 459,478 L 475,478 L 476,479 L 475,480 L 473,480 L 471,482 L 453,482 L 452,481 L 452,480 L 451,479 L 449,479 Z M 79,451 L 80,450 L 80,449 L 81,448 L 84,448 L 85,449 L 84,450 L 82,450 L 84,450 L 85,449 L 92,449 L 93,450 L 96,450 L 99,453 L 99,454 L 100,455 L 100,457 L 99,458 L 99,459 L 97,461 L 95,461 L 94,462 L 90,462 L 89,463 L 81,463 L 79,461 Z" fill="black" fill-rule="evenodd"/>
<path d="M 512,598 L 516,637 L 539,676 L 569,698 L 614,708 L 619,703 L 636,704 L 638,699 L 644,702 L 677,682 L 694,662 L 707,633 L 710,605 L 705,577 L 688,546 L 662,520 L 685,538 L 705,568 L 712,621 L 733,621 L 736,612 L 779,607 L 1193,639 L 1195,653 L 1244,661 L 1267,684 L 1296,699 L 1301,694 L 1287,680 L 1290,656 L 1327,649 L 1332,637 L 1369,644 L 1382,633 L 1381,621 L 1372,613 L 1332,620 L 1325,611 L 1307,611 L 1316,604 L 1316,592 L 1280,575 L 1272,580 L 1275,587 L 1305,594 L 1308,600 L 1281,596 L 1266,605 L 1216,605 L 1131,594 L 1135,572 L 1130,565 L 1120,569 L 1123,582 L 1118,592 L 765,545 L 768,541 L 799,546 L 809,539 L 817,512 L 802,510 L 804,521 L 796,535 L 771,531 L 770,516 L 781,506 L 793,505 L 801,486 L 817,490 L 824,484 L 818,464 L 832,459 L 833,446 L 776,446 L 767,437 L 760,442 L 757,437 L 770,431 L 769,424 L 748,420 L 740,432 L 718,432 L 704,460 L 681,461 L 667,474 L 665,470 L 680,457 L 706,455 L 741,369 L 735,358 L 632,370 L 617,379 L 557,522 L 604,505 L 655,515 L 665,470 L 661,521 L 657,524 L 650,516 L 618,508 L 568,518 L 528,554 Z M 1354,628 L 1355,627 L 1356,627 L 1358,625 L 1360,625 L 1361,624 L 1367,624 L 1368,625 L 1369,625 L 1371,627 L 1371,630 L 1369,632 L 1367,632 L 1366,633 L 1362,633 L 1361,632 L 1360,632 L 1359,631 L 1357,631 L 1356,630 L 1357,629 L 1356,630 Z M 601,560 L 620,560 L 621,561 L 624,561 L 625,562 L 627,562 L 628,563 L 630,563 L 631,564 L 632,564 L 633,565 L 636,566 L 638,568 L 639,568 L 643,572 L 644,572 L 646,574 L 646,575 L 650,579 L 650,580 L 653,583 L 653,584 L 654,585 L 654,586 L 655,587 L 655,588 L 657,591 L 657,594 L 658,595 L 658,598 L 659,599 L 659,605 L 660,606 L 660,613 L 659,614 L 659,619 L 658,620 L 658,623 L 657,624 L 657,626 L 656,627 L 656,628 L 655,629 L 655,630 L 654,631 L 653,634 L 651,636 L 651,637 L 648,640 L 648,641 L 642,647 L 641,647 L 638,650 L 637,650 L 636,651 L 635,651 L 634,652 L 633,652 L 632,653 L 631,653 L 628,655 L 626,655 L 625,656 L 623,656 L 622,657 L 617,657 L 616,658 L 605,658 L 604,657 L 600,657 L 599,656 L 596,656 L 595,655 L 593,655 L 592,654 L 591,654 L 590,653 L 587,652 L 582,648 L 581,648 L 572,639 L 572,638 L 568,633 L 568,632 L 567,631 L 567,630 L 565,627 L 565,624 L 564,623 L 564,621 L 563,620 L 563,617 L 562,616 L 562,604 L 563,603 L 563,597 L 564,596 L 564,594 L 565,593 L 565,590 L 566,589 L 567,586 L 569,584 L 569,583 L 573,578 L 573,577 L 579,571 L 580,571 L 583,568 L 584,568 L 586,566 L 587,566 L 588,565 L 589,565 L 592,563 L 594,563 L 595,562 L 597,562 L 598,561 L 600,561 Z M 796,461 L 797,460 L 799,460 L 800,461 L 801,461 L 802,462 L 804,462 L 805,461 L 806,461 L 807,462 L 808,462 L 809,463 L 810,463 L 811,464 L 811,467 L 810,468 L 810,470 L 811,471 L 811,473 L 810,474 L 809,474 L 807,476 L 804,476 L 803,475 L 802,476 L 801,475 L 801,473 L 800,472 L 800,470 L 798,470 L 797,469 L 797,463 L 796,462 Z" fill="black" fill-rule="evenodd"/>
</svg>