<?xml version="1.0" encoding="UTF-8" standalone="no"?>
<svg
   width="850"
   height="250"
   viewBox="0 0 850 250"
   version="1.1"
   id="svg3"
   sodipodi:docname="qf_6_pounder_black.svg"
   inkscape:version="1.4.2 (f4327f4, 2025-05-13)"
   xmlns:inkscape="http://www.inkscape.org/namespaces/inkscape"
   xmlns:sodipodi="http://sodipodi.sourceforge.net/DTD/sodipodi-0.dtd"
   xmlns="http://www.w3.org/2000/svg"
   xmlns:svg="http://www.w3.org/2000/svg">
  <defs
     id="defs3" />
  <sodipodi:namedview
     id="namedview3"
     pagecolor="#ffffff"
     bordercolor="#000000"
     borderopacity="0.25"
     inkscape:showpageshadow="2"
     inkscape:pageopacity="0.0"
     inkscape:pagecheckerboard="0"
     inkscape:deskcolor="#d1d1d1"
     inkscape:zoom="0.54097606"
     inkscape:cx="598.91745"
     inkscape:cy="535.14383"
     inkscape:window-width="2560"
     inkscape:window-height="1377"
     inkscape:window-x="-8"
     inkscape:window-y="-8"
     inkscape:window-maximized="1"
     inkscape:current-layer="svg3" />
  <path
     d="m 354.37893,144.45842 -0.59333,0.59332 h -2.37331 l -0.59333,0.59333 h -1.18665 l -0.59333,0.59333 h -1.18665 l -0.59334,0.59332 h -0.59332 l -0.59333,0.59333 h -0.59333 l -0.59333,0.59333 h -0.59332 l -0.59333,0.59333 h -0.59333 l -1.18665,1.18665 h -0.59333 l -5.33995,5.33995 v 0.59333 l -1.18666,1.18665 v 0.59333 l -0.59332,0.59333 v 0.59333 l -0.59333,0.59332 v 0.59333 l -0.59333,0.59333 v 0.59332 l -1.18665,1.77999 v 1.77999 l -0.59333,0.59332 v 1.18666 l -0.59333,0.59333 v 9.49324 l 0.59333,0.59333 v 2.3733 l 0.59333,0.59333 v 1.18666 l 1.18665,1.77998 v 1.18665 l 1.18666,1.18666 v 0.59333 l 0.59332,0.59333 v 0.59333 l 1.18666,1.18665 v 0.59333 l 5.33995,5.33994 h 0.59333 l 1.18665,1.18667 h 0.59333 l 1.18665,1.18665 h 0.59333 l 0.59333,0.59333 h 1.18665 l 1.77999,1.18665 h 1.77998 l 0.59333,0.59333 h 2.37331 l 0.59333,0.59332 h 6.5266 l 0.59333,-0.59332 h 2.96664 l 0.59332,-0.59333 h 1.77999 l 1.77999,-1.18665 h 1.18665 l 1.18666,-1.18666 h 0.59332 l 0.59333,-0.59332 h 0.59333 l 1.77998,-1.78 h 0.59332 l 4.1533,-4.15329 v -0.59332 l 1.18666,-1.18666 v -0.59332 l 1.18665,-1.18666 v -0.59333 l 0.59333,-0.59333 v -0.59333 l 1.18665,-1.77998 v -1.18665 l 0.59333,-0.59333 v -1.18666 l 0.59333,-0.59332 v -2.37331 l 0.59333,-0.59333 v -7.71326 l -0.59333,-0.59333 v -1.77998 l -0.59333,-0.59333 v -1.77999 l -0.59333,-0.59332 v -1.18666 l -0.59332,-0.59333 v -0.59332 l -0.59333,-0.59333 v -0.59333 l -0.59333,-0.59332 v -0.59333 l -1.18665,-1.18666 v -0.59332 l -1.18666,-1.18666 v -0.59332 l -3.55997,-3.55998 h -0.59333 l -1.77998,-1.77998 h -0.59332 l -1.18666,-1.18665 h -0.59332 l -0.59333,-0.59333 h -0.59333 l -1.77999,-1.18665 h -1.18665 l -0.59333,-0.59333 h -1.77998 l -0.59333,-0.59333 h -2.37331 l -0.59333,-0.59332 z m 1.77998,40.34627 h 3.55997 l 1.18665,1.18666 v 0.59333 l 0.59333,0.59333 v 1.18665 l -0.59333,0.59333 v 0.59332 l -1.77998,1.77999 h -2.37331 l -0.59333,-0.59333 h -0.59333 l -0.59333,-0.59333 v -0.59333 l -0.59332,-0.59332 v -2.37331 z m -15.42652,-16.01984 h 2.37331 l 0.59333,0.59332 v 0.59333 l 0.59333,-0.59333 0.59332,0.59333 v 0.59333 l 0.59333,0.59332 v 2.37331 l -1.77998,1.77999 h -0.59333 l -0.59332,0.59333 h -0.59333 l -0.59333,-0.59333 h -1.18665 l -1.18666,-1.18666 v -1.18665 l -0.59332,-0.59333 0.59332,-0.59333 v -1.18665 l 1.18666,-1.18666 0.59332,0.59333 -0.59332,-0.59333 z m 32.63302,-0.59333 0.59333,0.59333 h 1.18665 l 1.77999,1.77998 v 2.96663 l -1.77999,1.77999 h -0.59332 l -0.59333,0.59333 h -0.59333 l -0.59332,-0.59333 h -1.18666 l -0.59332,-0.59332 v -0.59334 l -0.59333,-0.59333 v -2.96663 l 1.18665,-1.18666 0.59333,0.59333 v 0.59333 -0.59333 l -0.59333,-0.59333 0.59333,-0.59332 h 0.59333 z m -18.39316,0 h 0.59333 l 0.59333,-0.59333 h 3.55997 l 1.18665,1.18666 -0.59332,0.59332 0.59332,0.59333 v 0.59333 -0.59333 l 0.59333,-0.59333 0.59333,0.59333 v 0.59333 l 0.59333,0.59332 v 1.77999 l -0.59333,0.59332 v 0.59333 l -0.59333,0.59334 -0.59333,-0.59334 0.59333,0.59334 -1.18665,1.18665 h -0.59333 l -0.59333,0.59333 h -3.55997 l -1.77998,-1.77998 v -0.59334 l -0.59333,-0.59333 v -2.96663 l 0.59333,-0.59333 v -0.59333 z m 0.59333,-14.8332 h 0.59333 l 0.59333,0.59333 h 1.77999 -1.77999 l -0.59333,-0.59333 0.59333,-0.59332 h 2.37331 l 2.37331,2.37331 v 1.77998 l -0.59333,0.59333 v 0.59333 l -1.18665,1.18665 h -3.55997 l -1.77998,-1.77998 v -2.37331 l 0.59332,-0.59332 v -0.59334 z"
     fill="#000000"
     fill-rule="evenodd"
     id="path1"
     style="stroke-width:0.593328" />
  <path
     d="m 345.47901,67.325821 h -5.33994 l -1.77998,-4.746616 h -5.93328 l -1.77999,7.119925 H 259.4465 l -2.96663,4.153299 -175.031662,1.186654 -1.186664,-2.966635 -11.866551,1.186654 -4.746619,-1.779991 H 49.40851 l -7.119931,-2.373308 h -4.153295 l -2.966637,4.746626 -0.593328,11.866552 1.779983,5.933271 2.373311,1.779991 16.613174,-2.373318 h 10.08657 l 3.559963,-1.779982 h 5.933281 l 1.779981,1.779982 h 3.559962 l 1.186664,-3.559963 175.031662,2.373309 2.96663,4.746626 -9.49324,3.559963 -1.18665,5.33995 -1.18666,-2.37332 h -2.96664 l -0.59333,1.78 -2.96664,1.77998 v 5.33994 l 4.1533,3.55997 h 1.77999 l 1.77998,-2.37332 1.77998,5.33995 h 5.33995 l 2.37331,2.96664 h 4.15329 l 1.77998,-2.37331 7.71326,-0.59333 48.05955,0.59333 5.33994,-0.59333 z m -52.80616,27.886403 0.59333,-0.593327 h 10.08657 l 0.59333,-0.593327 h 5.93328 l 0.59332,0.593327 h 20.17314 l 0.59333,0.593327 -0.59333,0.593327 v 0.593327 l -0.59332,0.593327 h -35.59967 l -0.59333,-0.593327 v -0.593327 h -0.59332 z m -31.44636,-0.593327 0.59332,-0.593327 h 5.33996 l 0.59332,0.593327 h 9.49325 l 0.59332,0.593327 -0.59332,0.593327 h -1.18666 l -1.18666,1.186654 h -10.6799 l -0.59333,-0.593327 v -0.593327 l -0.59332,-0.593327 h -1.18666 z M 42.288579,78.599046 42.881906,78.005719 v -0.593327 l 0.593328,-0.593327 h 1.779982 l 0.593329,0.593327 -0.593329,0.593327 h -1.186655 1.186655 l 0.593329,-0.593327 h 4.153293 l 0.593328,0.593327 h 1.779982 l 1.779984,1.779981 v 0.593327 l 0.593328,0.593327 v 1.186654 l -0.593328,0.593337 v 0.593328 l -1.186655,1.186654 h -1.186656 l -0.593328,0.593327 h -2.37331 l -0.593328,0.593327 h -4.746621 l -1.186655,-1.186654 z"
     fill="#000000"
     fill-rule="evenodd"
     id="path2"
     style="stroke-width:0.593328" />
  <path
     d="m 299.19946,165.81821 2.37331,23.13978 13.64653,23.13977 17.79983,13.05321 26.69975,5.93328 2.96664,-2.96664 10.08657,0.59333 1.18665,-2.96664 3.55996,1.77999 19.57982,-11.86656 10.08657,-11.86656 7.71326,-17.20649 1.77998,-16.61318 -2.96663,-16.61318 -10.08658,-18.39315 -15.42652,-15.42652 13.64654,10.6799 11.86656,17.79983 4.15328,31.44636 h 12.45989 l 1.77998,-5.33995 25.51309,-2.96664 245.63765,18.98649 1.18666,8.30659 29.07305,4.74662 13.64654,13.64654 17.2065,8.89991 2.96664,-2.96664 -8.30658,-8.30659 1.77998,-14.23986 21.95312,-4.15329 2.96664,-7.11993 21.95312,4.15329 7.71326,-6.5266 -0.59333,-7.11994 -5.33995,-4.74661 -23.7331,4.15329 -4.15329,-5.33996 h -10.6799 l 0.59333,-6.52659 -16.01986,-2.37331 -8.89991,5.33994 h -29.66639 l -50.43284,-6.52661 -7.71326,-1.18665 -209.44467,-27.88639 1.77999,-2.37332 18.39315,2.96664 5.93328,-4.1533 4.74662,-16.01984 -8.89991,-1.18665 1.18666,6.5266 -4.74663,8.30658 -14.83319,-2.3733 -0.59332,-8.89992 6.52659,-5.93328 7.11994,-0.59333 4.74662,-11.273216 9.49324,2.373306 4.1533,-3.55996 -3.55997,-11.866552 8.30658,-2.966635 0.59333,-7.713263 h -33.81967 l -5.33996,-5.339953 -4.15329,2.966645 -1.77998,-2.966645 7.71327,-3.559963 -0.59333,-4.153289 -12.45989,-2.373319 -4.74662,7.119935 h -13.0532 l -8.30659,16.613179 -13.64653,0.593327 -8.30659,7.713252 -1.18666,-2.373308 8.89991,-7.713263 15.42652,-1.186654 20.76647,-51.026179 -3.55996,-6.526598 -61.11275,7.119925 -8.89992,5.339954 -35.59966,84.845844 27.8864,-10.08657 30.25971,5.93328 5.93328,-26.699739 -2.37332,30.259709 -2.3733,1.77998 -4.15329,-4.74662 -18.98649,-4.74663 -29.66638,5.93328 -23.73311,21.3598 z m 499.58188,17.79982 0.59333,-0.59332 h 0.59334 l 1.18665,-1.18666 h 1.18665 l 0.59333,-0.59332 h 3.55996 l 0.59333,0.59332 h 0.59333 l 1.18665,1.18666 v 1.77998 l -1.18665,1.18666 h -1.18666 l -0.59332,0.59333 h -2.37331 l -0.59333,-0.59333 h -0.59333 l -0.59332,-0.59333 h -1.18666 l -0.59332,-0.59333 0.59332,-0.59333 -0.59332,0.59333 z M 352.00562,143.27175 h 11.27322 l 0.59333,0.59334 h 1.77998 l 0.59333,0.59333 h 1.18665 l 0.59333,0.59332 h 1.18666 l 0.59333,0.59333 h 0.59333 l 0.59333,0.59333 1.77998,0.59332 1.18665,1.18666 h 0.59333 l 2.37331,2.37331 h 0.59332 l 1.18667,1.18665 v 0.59333 l 2.37331,2.37332 v 0.59332 l 1.77998,1.77998 v 0.59333 l 0.59332,0.59333 v 0.59333 l 0.59333,0.59332 v 0.59333 l 1.18666,1.77998 v 1.77998 l 0.59332,0.59333 v 1.77999 l 0.59333,0.59333 v 3.55996 l 0.59333,0.59333 v 4.1533 l -0.59333,0.59332 v 2.96664 l -0.59333,0.59333 v 1.77998 l -0.59332,0.59333 v 1.18665 l -0.59333,0.59333 v 0.59332 l -0.59333,0.59333 v 0.59333 l -0.59333,0.59333 -0.59332,1.77999 -1.18666,1.18665 v 0.59333 l -1.77998,1.77998 v 0.59333 l -3.55997,3.55996 h -0.59333 l -1.77998,1.77999 h -0.59333 l -0.59332,0.59333 h -0.59333 l -0.59333,0.59332 h -0.59332 l -0.59333,0.59333 h -0.59333 l -1.77999,1.18665 h -1.18665 l -0.59333,0.59333 h -1.18666 l -0.59332,0.59333 h -2.96664 l -0.59333,0.59333 h -6.5266 l -0.59333,-0.59333 h -2.37331 l -0.59333,-0.59333 h -1.77998 l -0.59332,-0.59333 h -1.18667 l -0.59332,-0.59332 h -0.59333 l -0.59333,-0.59333 -1.77998,-0.59333 -2.96664,-2.3733 h -0.59332 l -5.33996,-5.33996 v -0.59333 l -2.3733,-2.96663 v -0.59333 l -0.59333,-0.59333 v -0.59333 l -1.18666,-1.77998 v -1.77998 l -0.59332,-0.59333 v -1.18666 l -0.59333,-0.59332 v -1.77998 l -0.59333,-0.59333 v -7.11994 l 0.59333,-0.59332 v -3.55997 l 0.59333,-0.59332 v -1.18667 l 0.59332,-0.59332 v -1.77999 l 0.59333,-0.59332 0.59333,-1.77998 1.18665,-1.18666 v -0.59333 l 2.37331,-2.96664 v -0.59333 l 3.55997,-3.55996 h 0.59333 l 1.77998,-1.77998 h 0.59333 l 1.18665,-1.18666 h 0.59333 l 0.59333,-0.59332 h 0.59332 l 1.77999,-1.18666 h 1.18666 l 0.59333,-0.59332 h 1.18665 l 0.59333,-0.59333 h 1.18665 z M 467.70451,84.532327 468.29784,83.939 h 1.18665 l 0.59333,0.593327 h 0.59333 l 0.59333,0.593327 h 1.18666 l 0.59332,-0.593327 h 0.59333 l 0.59333,0.593327 h 0.59332 l 0.59333,0.593327 h 0.59333 l 0.59333,0.593327 v 1.779981 l -0.59333,0.593327 v 1.186655 l 0.59333,0.593327 v 1.186654 l -0.59333,0.593327 h -0.59333 l -1.18665,1.186664 h -1.77998 l -0.59333,-0.593327 -0.59333,0.593327 -0.59333,-0.593327 v -1.186664 l -0.59333,-0.593327 v -1.186654 h -1.18666 l -0.59332,-0.593328 v -3.559962 l -0.59333,-0.593327 z"
     fill="#000000"
     fill-rule="evenodd"
     id="path3"
     sodipodi:nodetypes="ccccccccccccccccccccccccccccccccccccccccccccccccccccccccccccccccccccccccccccccccccccccccccccccccccccccccccccccccccccccccccccccccccccccccccccccccccccccccccccccccccccccccccccccccccccccccccccccccccccccccccccccccccccccccccccccccccccccccccccccccccccccccccccccccccccccccccccccc"
     style="stroke-width:0.593328" />
</svg>
