<?xml version="1.0" encoding="UTF-8" standalone="no"?>
<svg
   width="200"
   height="250"
   viewBox="0 0 200 250"
   version="1.1"
   id="svg6"
   sodipodi:docname="rg42_grenade_black.svg"
   inkscape:version="1.4.2 (f4327f4, 2025-05-13)"
   xmlns:inkscape="http://www.inkscape.org/namespaces/inkscape"
   xmlns:sodipodi="http://sodipodi.sourceforge.net/DTD/sodipodi-0.dtd"
   xmlns="http://www.w3.org/2000/svg"
   xmlns:svg="http://www.w3.org/2000/svg">
  <defs
     id="defs6" />
  <sodipodi:namedview
     id="namedview6"
     pagecolor="#ffffff"
     bordercolor="#000000"
     borderopacity="0.25"
     inkscape:showpageshadow="2"
     inkscape:pageopacity="0.0"
     inkscape:pagecheckerboard="0"
     inkscape:deskcolor="#d1d1d1"
     inkscape:zoom="1.1123389"
     inkscape:cx="295.77318"
     inkscape:cy="243.18129"
     inkscape:window-width="2560"
     inkscape:window-height="1377"
     inkscape:window-x="-8"
     inkscape:window-y="-8"
     inkscape:window-maximized="1"
     inkscape:current-layer="svg6" />
  <path
     d="m 90.479869,174.45734 -0.735078,1.10262 v 1.10261 l -0.367534,0.36754 v 1.83768 l -0.367535,0.36754 v 1.47015 l -0.367543,0.36753 v 1.47016 l -0.367534,0.36754 v 1.83767 l -0.367535,0.36755 v 1.47015 l -0.367534,0.36753 v 1.83769 l -0.367544,0.36753 v 1.47015 l -0.367535,0.36754 v 1.47015 l -0.367534,0.36753 v 1.83769 l -0.367544,0.36754 v 1.47014 l 0.367544,0.36754 v 0.36753 l 0.367534,0.36755 v 0.36753 l 1.102613,0.73507 h 1.470147 l 0.367534,0.36755 h 1.83769 l 0.367535,0.36753 h 1.837691 l 0.367534,0.36754 h 1.470147 l 0.367534,0.36754 h 2.572759 l 0.367544,0.36754 h 2.940295 l 0.36753,0.36752 h 2.57276 l 0.36754,0.36755 h 2.57277 l 0.36752,0.36753 h 3.30785 l 0.36753,0.36754 h 0.36753 l 0.36754,-0.36754 h 0.73507 l 0.36754,-0.36753 h 0.36755 l 1.47015,-1.47015 v -0.36754 l 0.36753,-0.36753 v -0.73508 l 0.36755,-0.36754 v -0.73508 l 0.36753,-0.36753 v -0.73507 l 0.36753,-0.36754 v -0.73507 l 0.73508,-1.10261 v -0.73508 l 0.36753,-0.36754 v -0.73508 l 0.36754,-0.36752 v -0.73508 l 0.36754,-0.36754 v -1.10261 l 0.36754,-0.36754 v -0.73508 l 0.36753,-0.36753 v -1.10261 l 0.36754,-0.36753 v -1.10262 l 0.36754,-0.36753 v -1.10262 l 0.36754,-0.36754 v -1.47014 l 0.36753,-0.36754 v -1.83768 l -0.36753,-0.36755 v -0.36753 l -0.36754,-0.36754 v -0.36753 l -1.10261,-1.10262 h -1.10262 l -0.36753,-0.36753 h -2.57276 l -0.36754,-0.36754 h -2.9403 l -0.36753,-0.36753 h -2.57277 l -0.36754,-0.36755 h -2.57276 l -0.36753,-0.36753 h -2.20523 l -0.36753,-0.36754 h -2.20523 l -0.36753,-0.36754 h -1.470145 l -0.367544,-0.36754 h -1.83768 l -0.367535,-0.36752 h -2.205225 l -0.367534,-0.36754 h -2.205226 l -0.735077,0.73506 z"
     fill="#000000"
     fill-rule="evenodd"
     id="path1"
     style="stroke-width:0.367537" />
  <path
     d="m 55.563842,167.47415 -0.367535,0.36753 v 0.36754 l -0.367544,0.36753 v 0.73508 l -0.367533,0.36754 v 2.9403 l -0.367535,0.36753 v 4.41044 l -0.367534,0.36755 v 11.76118 l 0.367534,0.36753 v 0.36755 l 1.837681,1.83767 h 1.102613 l 0.367543,0.36755 h 1.102603 l 0.367544,0.36753 h 1.102613 l 0.367533,0.36754 h 1.102613 l 0.367535,0.36753 h 1.470147 l 0.367543,0.36755 h 0.735069 l 0.367534,0.36753 h 1.102613 l 0.367543,0.36754 h 1.470147 l 0.367535,0.36754 h 1.470147 l 0.367543,0.36754 h 1.470147 l 0.367535,0.36753 h 1.470146 l 0.367535,0.36754 h 1.470156 l 0.367535,0.36753 h 1.470146 l 0.367535,0.36754 h 2.572759 l 0.367544,-0.36754 h 0.367534 l 1.470148,-1.47014 v -1.10261 l 0.367534,-0.36755 v -1.83767 l 0.367543,-0.36754 v -1.83769 l 0.367534,-0.36754 v -1.47015 l 0.367535,-0.36753 v -2.20522 l 0.367544,-0.36755 v -1.83767 l 0.367534,-0.36754 v -1.47016 l 0.367535,-0.36753 v -1.83769 l 0.367542,-0.36753 v -2.57277 l 0.367535,-0.36753 v -1.83768 l -0.367535,-0.36754 v -0.36754 l -0.735077,-0.73508 h -0.367534 l -0.367544,-0.36753 h -1.102612 l -0.367534,-0.36754 h -1.470148 l -0.367534,-0.36754 h -1.83769 l -0.367535,-0.36754 H 76.51346 l -0.367543,-0.36753 H 74.67577 l -0.367535,-0.36754 h -1.470147 l -0.367535,-0.36753 h -1.470155 l -0.367535,-0.36754 h -1.470146 l -0.367535,-0.36753 h -1.102613 l -0.367543,-0.36755 h -1.102604 l -0.367543,-0.36753 h -1.102613 l -0.367534,-0.36754 h -1.470146 l -0.367535,-0.36753 h -1.102613 l -0.367542,-0.36755 h -1.470148 l -0.367534,-0.36753 h -1.102613 l -0.367535,-0.36754 -0.367534,0.36754 h -0.735078 l -0.735078,0.73508 z"
     fill="#000000"
     fill-rule="evenodd"
     id="path2"
     style="stroke-width:0.367537" />
  <path
     d="m 97.830612,138.07118 -1.470146,1.47014 v 1.10261 l -0.367544,0.36754 v 1.47016 l -0.367534,0.36753 v 2.57276 l -0.367535,0.36753 v 1.47015 l -0.367544,0.36755 v 1.47014 l -0.367533,0.36753 v 1.47015 l -0.367535,0.36755 v 1.47014 l -0.367534,0.36753 v 1.8377 l -0.367544,0.36753 v 1.83768 l -0.367534,0.36754 v 1.83769 l -0.367535,0.36753 v 1.10262 l 0.367535,0.36753 v 0.36754 l 1.470147,1.47015 h 1.470146 l 0.367544,0.36753 h 1.837681 l 0.367534,0.36755 h 1.837689 l 0.36753,0.36753 h 1.83769 l 0.36754,0.36754 h 2.20522 l 0.36754,0.36753 h 2.20523 l 0.36752,0.36755 h 1.8377 l 0.36753,0.36752 h 2.20522 l 0.36754,0.36754 h 2.20523 l 0.36754,0.36754 h 2.94029 l 0.36754,0.36754 h 2.20522 l 0.36755,-0.36754 h 0.73506 l 0.73508,-0.73508 h 0.36753 l 0.36754,-0.36752 v -0.36755 l 0.73508,-0.73507 v -2.57276 l 0.36753,-0.36754 v -3.67537 l 0.36755,-0.36754 v -13.59888 l -0.36755,-0.36753 v -0.36753 l -1.10261,-1.10261 h -0.36754 l -1.10261,-0.73508 h -2.57276 l -0.36753,-0.36754 h -2.57276 l -0.36753,-0.36753 h -2.20523 l -0.36755,-0.36755 h -2.20521 l -0.36755,-0.36753 h -2.20522 l -0.36754,-0.36754 h -1.83768 l -0.36753,-0.36752 h -1.8377 l -0.36753,-0.36756 h -2.20522 l -0.36754,-0.36752 h -1.837687 l -0.36753,-0.36754 h -0.367538 l -0.367544,0.36754 z"
     fill="#000000"
     fill-rule="evenodd"
     id="path3"
     style="stroke-width:0.367537" />
  <path
     d="m 65.11981,131.82304 -1.470147,1.47015 v 0.36754 l -0.735077,1.1026 v 0.73508 l -0.367535,0.36754 v 0.73508 l -0.367544,0.36753 v 0.73508 l -0.735069,1.10262 v 0.73506 l -0.367542,0.36753 v 0.73508 l -0.367536,0.36754 v 1.10261 l -0.367535,0.36755 v 0.73506 l -0.367533,0.36753 v 0.73508 l -0.367544,0.36754 v 1.10261 l -0.367534,0.36754 v 0.73508 l -0.367535,0.36753 v 1.10261 l -0.367544,0.36754 v 1.10261 l -0.367534,0.36754 v 0.73507 l -0.367535,0.36755 v 1.83767 l 0.367535,0.36754 v 0.36754 l 0.735078,0.73507 v 0.36755 l 0.735069,0.73507 h 0.367544 l 0.367533,0.36753 h 1.470148 l 0.367534,0.36755 h 1.102613 l 0.367543,0.36752 h 1.470147 l 0.367535,0.36754 h 1.102613 l 0.367533,0.36754 h 1.102613 l 0.367534,0.36754 h 1.470156 l 0.367535,0.36753 h 1.470147 l 0.367534,0.36754 h 1.102612 l 0.367535,0.36754 h 1.470156 l 0.367535,0.36754 h 1.470146 l 0.367535,0.36753 h 1.102613 l 0.367542,0.36755 h 1.470148 l 0.367534,0.36753 h 2.205225 l 0.367534,0.36754 h 1.470148 l 0.367542,0.36753 h 1.470148 l 0.735069,-0.73507 h 0.367544 l 0.735069,-0.73508 v -0.36753 l 0.367534,-0.36754 v -1.47015 l 0.367543,-0.36754 v -1.83768 l 0.367535,-0.36753 v -1.8377 l 0.367534,-0.36753 v -1.47014 l 0.367544,-0.36755 v -1.83768 l 0.367534,-0.36754 v -1.83768 l 0.367535,-0.36754 v -1.83769 l 0.367543,-0.36754 v -1.83767 l 0.367534,-0.36755 v -1.83768 l 0.367535,-0.36755 v -1.83767 l 0.367534,-0.36754 -0.367534,0.36754 -0.367535,-0.36754 v -0.36754 l -0.735077,-0.73507 h -0.367535 l -0.367534,-0.36754 h -0.735078 l -0.367535,-0.36754 h -1.83769 l -0.367535,-0.36754 H 85.33435 l -0.367535,-0.36753 H 83.49666 l -0.367535,-0.36755 h -1.83768 l -0.367544,-0.36753 h -1.470148 l -0.367534,-0.36753 h -1.102612 l -0.367534,-0.36754 h -1.470156 l -0.367535,-0.36754 H 74.67577 l -0.367535,-0.36753 h -1.470147 l -0.367535,-0.36754 h -1.470155 l -0.367535,-0.36754 h -1.102612 l -0.367534,-0.36754 h -1.470148 l -0.367543,-0.36753 h -0.735068 l -0.367536,0.36753 z"
     fill="#000000"
     fill-rule="evenodd"
     id="path4"
     style="stroke-width:0.367537" />
  <path
     d="m 78.718684,107.56559 -1.470155,1.47015 v 0.36754 l -1.837681,1.83769 v 0.36754 l -1.102613,1.1026 v 0.36754 l -1.102613,1.10261 v 0.36754 l -0.735069,0.73508 v 0.36753 l -0.735077,0.73508 v 0.36753 l -0.735078,0.73508 v 0.36753 l -0.367535,0.36754 v 0.36753 l -0.735069,0.73508 v 0.36754 l -0.367543,0.36754 v 0.36754 l -0.367534,0.36752 v 0.36754 l -0.735079,0.73508 v 0.36753 l -0.367534,0.36755 v 0.36753 l -0.367535,0.36754 v 0.36754 l -0.367543,0.36754 v 2.20522 l 0.367543,0.36753 v 0.36754 l 0.367535,0.36753 v 0.36755 l 0.735078,0.73507 h 0.735069 l 0.367543,0.36754 h 1.470147 l 0.367535,0.36754 h 1.102612 l 0.367534,0.36752 h 1.470148 l 0.367543,0.36755 h 1.102604 l 0.367543,0.36753 h 1.837682 l 0.367542,0.36754 h 1.102604 l 0.367544,0.36753 h 1.102613 l 0.367534,0.36755 h 1.470146 l 0.367535,0.36753 h 1.83769 l 0.367535,0.36754 h 1.470147 l 0.367544,0.36754 h 1.837681 l 0.367534,0.36754 h 2.205225 l 1.837691,-1.8377 v -1.1026 l 0.367534,-0.36755 v -1.83767 l 0.367535,-0.36755 v -1.83768 l 0.367533,-0.36753 v -1.47015 l 0.367544,-0.36754 V 121.532 l 0.367535,-0.36754 v -1.47014 l 0.367534,-0.36754 v -1.83768 l 0.367544,-0.36755 v -1.47014 l 0.367535,-0.36753 v -2.20523 l 0.367534,-0.36754 v -1.1026 l -0.367534,-0.36754 v -0.36754 l -1.102613,-1.10262 h -1.102612 l -0.367535,-0.36753 h -1.470147 l -0.367544,-0.36754 h -1.837681 l -0.367534,-0.36753 h -1.83769 l -0.367535,-0.36755 h -1.470147 l -0.367544,-0.36753 h -1.470146 l -0.367535,-0.36754 h -1.83769 l -0.367534,-0.36753 h -2.572761 l -0.367534,0.36753 z"
     fill="#000000"
     fill-rule="evenodd"
     id="path5"
     style="stroke-width:0.367537" />
  <path
     d="m 111.06194,11.270865 h -5.14552 l -2.94029,2.205215 -8.820889,48.514903 -2.940294,2.57276 3.307829,2.940303 -2.205226,11.393651 h -6.248131 l -1.102604,7.350744 -4.410449,2.940293 -1.102613,7.718274 -8.085812,4.777992 -1.83769,3.30784 -6.248131,0.36753 -12.863797,15.06903 1.837681,3.30783 -1.102603,3.30783 -5.880597,2.20523 -6.248131,16.9067 1.470147,6.24812 -6.248131,1.10262 v 1.83769 l 5.145518,3.67537 -4.042905,6.61566 0.735069,18.7444 4.042915,2.9403 v 2.9403 l -2.57276,1.83767 0.367535,4.41045 6.615666,15.06903 4.410449,2.20523 5.145519,6.24812 v 5.8806 l 11.761184,4.41044 23.522378,4.04291 12.496263,-0.36754 3.30783,-5.8806 10.65858,-4.41044 12.86381,-14.33394 -1.8377,-4.04291 1.10262,-2.20523 5.14553,-1.83768 7.35069,-18.37685 -2.20522,-4.04292 0.73507,-2.20522 6.61572,-2.57275 -5.51311,-4.41045 3.67544,-6.98321 -0.36754,-16.90671 -4.77804,-3.30782 2.94037,-5.51307 -0.73508,-4.77798 -5.88064,-13.96641 -5.14551,-2.94029 -6.61567,-9.92351 1.47015,-9.555969 -3.30782,-3.307833 2.20521,-6.248127 -6.61567,-2.940304 1.47015,-6.248137 2.57276,1.470147 2.9403,-1.470147 -0.36754,-2.572753 -3.30783,-1.837683 1.10262,-0.735078 -1.8377,0.367534 1.10262,-3.675371 h 2.20522 v 3.675371 l 22.78731,35.28357 8.08584,23.15484 1.10261,17.27424 -11.02612,59.90856 4.4104,12.12872 1.83768,-1.10261 11.02612,-61.3787 1.10261,-17.64179 -4.41042,-23.15483 -10.65858,-19.847012 12.12872,0.367539 10.29106,-4.042911 8.45329,-8.820892 3.67543,-9.555969 -0.36753,-9.555955 -3.67543,-8.82089 -6.61563,-6.983209 -9.55598,-4.410441 -10.65859,-0.367544 -9.5559,3.675372 -9.55599,10.291046 -1.47015,-1.102612 1.10262,2.57276 -1.47017,2.940293 -0.73507,-7.350743 -4.77798,-2.205225 5.8806,-35.651096 -3.67538,-3.307838 z m -70.56712,149.955145 1.470148,-1.83768 8.82089,2.94029 30.505587,6.98321 29.402965,4.77799 25.36005,2.20522 0.73507,1.83768 h -10.29102 l -1.10261,0.73507 -2.9403,12.86381 -3.30783,9.18841 1.47015,1.8377 h 4.77798 l 1.47014,2.20522 -3.67537,0.73507 h -6.61566 l -1.10261,1.10261 v 2.57277 l -2.94031,5.51305 -5.88059,8.82089 -2.94029,-0.36754 -0.73508,-0.73506 5.51305,-7.71829 2.94031,-5.88059 -0.73508,-3.30784 -1.47015,-1.10261 -13.966407,-1.10261 -7.350743,-1.47015 -2.57276,0.73508 -0.735077,1.10261 -2.940294,18.37686 h -4.042906 l -0.735079,-0.73508 1.102613,-1.47015 2.572759,-16.53917 -0.367534,-1.83769 -1.83769,-1.47014 -9.188425,-1.47016 -12.496263,-3.30782 -1.102612,0.36753 -2.205225,2.57276 2.205225,11.02612 -0.367535,0.36752 -0.367544,-1.1026 -0.367533,0.73508 -0.367535,-0.36754 -0.735078,1.83768 2.205225,-1.47014 1.83769,5.51305 -1.470156,0.36754 -1.102613,-0.73508 h 1.470157 v -0.73506 l -1.83769,0.73506 -1.470148,-1.10261 -2.940293,-12.49627 v -4.41044 l 0.735069,-2.20522 -2.205225,-1.47015 -7.718278,-2.57275 1.470147,-2.20523 4.042915,1.47015 h 1.837682 l 1.83769,-1.47015 -0.367544,-11.39365 1.470156,-11.02612 -1.470156,-1.47014 -7.350743,-1.83769 z m 2.572759,-9.92349 7.350744,2.20521 h 2.205225 l 1.470147,-1.10262 v -3.30782 l 1.837681,-6.61566 4.410449,-11.39367 -1.83769,-1.83767 -6.615665,-1.8377 2.57276,-2.57275 1.470146,0.73507 -0.735069,0.36753 1.837682,-0.36753 3.307836,1.10261 h 2.205226 l 1.102612,-1.10261 v -2.94029 l 5.513054,-9.55597 4.777984,-5.88059 -1.470148,-1.83769 0.367535,-0.36753 5.513054,1.47015 h 3.307837 l 2.940294,-1.8377 30.873127,5.51307 3.30783,3.30782 -1.83769,0.36755 -12.49627,-2.57276 -2.94029,1.1026 -3.675368,19.11194 0.367535,1.83768 1.837683,1.47014 21.68469,3.30785 2.20523,-1.10262 1.47015,-2.20523 -0.36753,-3.30782 -3.30785,-13.59888 -1.83768,-3.30783 3.67537,-0.36754 3.67537,1.10262 -1.47015,0.36753 -0.73506,1.47014 1.47014,3.67537 2.57276,14.33396 -1.10261,2.57276 2.20523,1.47014 6.24811,0.36754 0.36753,1.47015 1.47013,1.47016 -7.71821,-0.36755 -1.83771,1.47014 0.36753,11.7612 -1.47015,10.29103 1.47015,1.8377 8.45333,0.36753 0.36754,1.83769 -9.55595,0.36753 -7.35074,-0.73507 -36.018635,-5.51305 -36.753716,-8.45336 -5.880597,-2.20523 z M 122.82314,58.683154 h 0.73507 l 0.73508,0.735069 v 1.470148 l -0.36754,0.367543 v 1.470147 l -0.36754,0.367534 v 0.735079 l -0.36754,0.367534 -0.36753,-0.367534 h -0.73508 l -0.36754,-0.367544 v -1.470147 l 0.36754,-0.367534 v -1.470147 l 0.36754,-0.367544 v -0.735069 z m 28.66785,-9.555967 h 6.98325 l 0.36754,0.367534 h 1.47014 l 0.36754,0.367535 h 1.10259 l 0.36754,0.367542 1.83768,0.367535 0.36753,0.367535 2.57282,1.102612 0.73507,0.735078 h 0.36754 l 1.47014,1.470147 h 0.36754 l 3.67534,4.042906 0.73506,1.837691 0.73507,0.735069 v 0.367543 l 0.73507,1.102604 v 0.735077 l 0.36754,0.367535 v 0.735078 l 0.36754,0.367535 v 1.102611 l 0.36753,0.367535 v 1.470157 l 0.36754,0.367534 v 5.880599 l -0.36754,0.367528 v 1.470147 l -0.36753,0.367539 V 77.06 l -0.36754,0.367551 -0.36754,1.837675 -0.36753,0.367539 -0.73507,1.837686 -0.73506,0.735068 -0.36754,1.102618 -1.10261,1.102607 v 0.367539 l -3.30781,3.307833 h -0.36753 l -1.10261,1.102618 h -0.36753 l -0.73506,0.735078 -1.1027,0.367529 -0.73507,0.735068 h -0.36753 l -0.36753,0.36755 h -0.73508 l -0.36753,0.367529 h -0.73507 l -0.36754,0.367539 h -0.73507 l -0.36752,0.367541 h -0.73508 l -0.36753,0.36754 h -1.47014 l -0.36754,0.367528 h -5.14557 l -0.36753,-0.367528 h -2.20521 l -0.36753,-0.36754 h -0.73507 l -0.36754,-0.367541 -1.83767,-0.367539 -0.36753,-0.367529 -1.83768,-0.735079 -0.36754,-0.367539 0.36754,-0.367529 v -0.36755 l -0.36754,-0.367528 v -1.102618 l -1.10259,-1.470147 -0.36754,-1.102607 -2.20529,-2.940293 v -0.36755 l -2.57274,-2.940293 H 137.5246 L 135.31939,77.06 h -0.36754 l -0.73506,-0.735067 h -0.36753 l -1.47015,-1.470158 v -4.042901 l 0.36754,-0.367535 h 1.47014 l 1.1026,-1.102613 v -0.367534 l 0.36753,-0.367543 v -2.57276 l -1.47013,-1.102604 0.36754,-0.367542 -0.36754,-0.367535 V 63.46113 l 0.36754,-0.367535 v -0.735077 l 0.36752,-0.367535 0.36754,-1.102612 0.73507,-0.735069 0.36754,-1.102613 1.1026,-1.102612 v -0.367535 l 4.04297,-4.042915 h 0.36753 l 1.10261,-1.102604 h 0.36753 l 4.04288,-2.205225 h 0.73506 l 0.36754,-0.367542 h 1.10261 l 0.36753,-0.367535 h 1.10261 z"
     fill="#000000"
     fill-rule="evenodd"
     id="path6"
     style="stroke-width:0.367537" />
</svg>
