<svg xmlns="http://www.w3.org/2000/svg" width="2172" height="724" viewBox="0 0 2172 724">
<rect width="100%" height="100%" fill="white"/>
<path d="M 1044,493 L 1042,496 L 1042,499 L 1041,500 L 1041,505 L 1040,506 L 1040,510 L 1039,511 L 1039,515 L 1038,516 L 1038,521 L 1037,522 L 1037,526 L 1036,527 L 1036,532 L 1035,533 L 1035,537 L 1034,538 L 1034,542 L 1033,543 L 1033,548 L 1032,549 L 1032,553 L 1033,554 L 1033,555 L 1034,556 L 1034,557 L 1037,559 L 1041,559 L 1042,560 L 1047,560 L 1048,561 L 1053,561 L 1054,562 L 1058,562 L 1059,563 L 1066,563 L 1067,564 L 1075,564 L 1076,565 L 1083,565 L 1084,566 L 1091,566 L 1092,567 L 1101,567 L 1102,568 L 1103,568 L 1104,567 L 1106,567 L 1107,566 L 1108,566 L 1112,562 L 1112,561 L 1113,560 L 1113,558 L 1114,557 L 1114,555 L 1115,554 L 1115,552 L 1116,551 L 1116,549 L 1118,546 L 1118,544 L 1119,543 L 1119,541 L 1120,540 L 1120,538 L 1121,537 L 1121,534 L 1122,533 L 1122,531 L 1123,530 L 1123,527 L 1124,526 L 1124,523 L 1125,522 L 1125,519 L 1126,518 L 1126,514 L 1127,513 L 1127,508 L 1126,507 L 1126,506 L 1125,505 L 1125,504 L 1122,501 L 1119,501 L 1118,500 L 1111,500 L 1110,499 L 1102,499 L 1101,498 L 1094,498 L 1093,497 L 1086,497 L 1085,496 L 1079,496 L 1078,495 L 1072,495 L 1071,494 L 1067,494 L 1066,493 L 1061,493 L 1060,492 L 1054,492 L 1053,491 L 1047,491 L 1045,493 Z" fill="black" fill-rule="evenodd"/>
<path d="M 949,474 L 948,475 L 948,476 L 947,477 L 947,479 L 946,480 L 946,488 L 945,489 L 945,501 L 944,502 L 944,534 L 945,535 L 945,536 L 950,541 L 953,541 L 954,542 L 957,542 L 958,543 L 961,543 L 962,544 L 965,544 L 966,545 L 970,545 L 971,546 L 973,546 L 974,547 L 977,547 L 978,548 L 982,548 L 983,549 L 987,549 L 988,550 L 992,550 L 993,551 L 997,551 L 998,552 L 1002,552 L 1003,553 L 1007,553 L 1008,554 L 1015,554 L 1016,553 L 1017,553 L 1021,549 L 1021,546 L 1022,545 L 1022,540 L 1023,539 L 1023,534 L 1024,533 L 1024,529 L 1025,528 L 1025,522 L 1026,521 L 1026,516 L 1027,515 L 1027,511 L 1028,510 L 1028,505 L 1029,504 L 1029,497 L 1030,496 L 1030,491 L 1029,490 L 1029,489 L 1027,487 L 1026,487 L 1025,486 L 1022,486 L 1021,485 L 1017,485 L 1016,484 L 1011,484 L 1010,483 L 1006,483 L 1005,482 L 1001,482 L 1000,481 L 996,481 L 995,480 L 991,480 L 990,479 L 986,479 L 985,478 L 982,478 L 981,477 L 978,477 L 977,476 L 974,476 L 973,475 L 969,475 L 968,474 L 965,474 L 964,473 L 960,473 L 959,472 L 956,472 L 955,471 L 954,472 L 952,472 L 950,474 Z" fill="black" fill-rule="evenodd"/>
<path d="M 1064,394 L 1060,398 L 1060,401 L 1059,402 L 1059,406 L 1058,407 L 1058,414 L 1057,415 L 1057,419 L 1056,420 L 1056,424 L 1055,425 L 1055,429 L 1054,430 L 1054,434 L 1053,435 L 1053,440 L 1052,441 L 1052,446 L 1051,447 L 1051,452 L 1050,453 L 1050,456 L 1051,457 L 1051,458 L 1055,462 L 1059,462 L 1060,463 L 1065,463 L 1066,464 L 1071,464 L 1072,465 L 1077,465 L 1078,466 L 1084,466 L 1085,467 L 1091,467 L 1092,468 L 1097,468 L 1098,469 L 1104,469 L 1105,470 L 1111,470 L 1112,471 L 1120,471 L 1121,472 L 1127,472 L 1128,471 L 1130,471 L 1132,469 L 1133,469 L 1134,468 L 1134,467 L 1136,465 L 1136,458 L 1137,457 L 1137,447 L 1138,446 L 1138,409 L 1137,408 L 1137,407 L 1134,404 L 1133,404 L 1130,402 L 1123,402 L 1122,401 L 1115,401 L 1114,400 L 1108,400 L 1107,399 L 1101,399 L 1100,398 L 1094,398 L 1093,397 L 1088,397 L 1087,396 L 1082,396 L 1081,395 L 1075,395 L 1074,394 L 1069,394 L 1068,393 L 1067,393 L 1066,394 Z" fill="black" fill-rule="evenodd"/>
<path d="M 975,377 L 971,381 L 971,382 L 969,385 L 969,387 L 968,388 L 968,390 L 967,391 L 967,393 L 965,396 L 965,398 L 964,399 L 964,401 L 963,402 L 963,405 L 962,406 L 962,408 L 961,409 L 961,411 L 960,412 L 960,415 L 959,416 L 959,418 L 958,419 L 958,422 L 957,423 L 957,426 L 956,427 L 956,429 L 955,430 L 955,435 L 956,436 L 956,437 L 958,439 L 958,440 L 960,442 L 961,442 L 962,443 L 966,443 L 967,444 L 970,444 L 971,445 L 975,445 L 976,446 L 979,446 L 980,447 L 983,447 L 984,448 L 988,448 L 989,449 L 993,449 L 994,450 L 997,450 L 998,451 L 1002,451 L 1003,452 L 1007,452 L 1008,453 L 1011,453 L 1012,454 L 1016,454 L 1017,455 L 1023,455 L 1024,456 L 1028,456 L 1029,457 L 1033,457 L 1035,455 L 1036,455 L 1038,453 L 1038,452 L 1039,451 L 1039,447 L 1040,446 L 1040,441 L 1041,440 L 1041,435 L 1042,434 L 1042,430 L 1043,429 L 1043,424 L 1044,423 L 1044,418 L 1045,417 L 1045,412 L 1046,411 L 1046,406 L 1047,405 L 1047,400 L 1048,399 L 1048,394 L 1049,393 L 1048,394 L 1047,393 L 1047,392 L 1045,390 L 1044,390 L 1043,389 L 1041,389 L 1040,388 L 1035,388 L 1034,387 L 1030,387 L 1029,386 L 1025,386 L 1024,385 L 1019,385 L 1018,384 L 1014,384 L 1013,383 L 1010,383 L 1009,382 L 1005,382 L 1004,381 L 1001,381 L 1000,380 L 996,380 L 995,379 L 991,379 L 990,378 L 987,378 L 986,377 L 982,377 L 981,376 L 979,376 L 978,377 Z" fill="black" fill-rule="evenodd"/>
<path d="M 1012,311 L 1008,315 L 1008,316 L 1003,321 L 1003,322 L 1000,325 L 1000,326 L 997,329 L 997,330 L 995,332 L 995,333 L 993,335 L 993,336 L 991,338 L 991,339 L 990,340 L 990,341 L 988,343 L 988,344 L 987,345 L 987,346 L 986,347 L 986,348 L 984,350 L 984,351 L 983,352 L 983,353 L 982,354 L 982,355 L 981,356 L 981,362 L 982,363 L 982,364 L 983,365 L 983,366 L 985,368 L 987,368 L 988,369 L 992,369 L 993,370 L 996,370 L 997,371 L 1001,371 L 1002,372 L 1005,372 L 1006,373 L 1011,373 L 1012,374 L 1015,374 L 1016,375 L 1019,375 L 1020,376 L 1024,376 L 1025,377 L 1030,377 L 1031,378 L 1035,378 L 1036,379 L 1041,379 L 1042,380 L 1048,380 L 1053,375 L 1053,372 L 1054,371 L 1054,366 L 1055,365 L 1055,360 L 1056,359 L 1056,355 L 1057,354 L 1057,349 L 1058,348 L 1058,344 L 1059,343 L 1059,338 L 1060,337 L 1060,333 L 1061,332 L 1061,326 L 1062,325 L 1062,322 L 1061,321 L 1061,320 L 1058,317 L 1055,317 L 1054,316 L 1050,316 L 1049,315 L 1044,315 L 1043,314 L 1038,314 L 1037,313 L 1033,313 L 1032,312 L 1028,312 L 1027,311 L 1022,311 L 1021,310 L 1014,310 L 1013,311 Z" fill="black" fill-rule="evenodd"/>
<path d="M 1100,49 L 1086,49 L 1078,55 L 1054,187 L 1046,194 L 1055,202 L 1049,233 L 1032,233 L 1029,253 L 1017,261 L 1014,282 L 992,295 L 987,304 L 970,305 L 935,346 L 940,355 L 937,364 L 921,370 L 904,416 L 908,433 L 891,436 L 891,441 L 905,451 L 894,469 L 896,520 L 907,528 L 907,536 L 900,541 L 901,553 L 919,594 L 931,600 L 945,617 L 945,633 L 977,645 L 1041,656 L 1075,655 L 1084,639 L 1113,627 L 1148,588 L 1143,577 L 1146,571 L 1160,566 L 1180,516 L 1174,505 L 1176,499 L 1194,492 L 1179,480 L 1189,461 L 1188,415 L 1175,406 L 1183,391 L 1181,378 L 1165,340 L 1151,332 L 1133,305 L 1137,279 L 1128,270 L 1134,253 L 1116,245 L 1120,228 L 1127,232 L 1135,228 L 1134,221 L 1125,216 L 1128,214 L 1123,215 L 1126,205 L 1132,205 L 1132,215 L 1194,311 L 1216,374 L 1219,421 L 1189,584 L 1201,617 L 1206,614 L 1236,447 L 1239,399 L 1227,336 L 1198,282 L 1231,283 L 1259,272 L 1282,248 L 1292,222 L 1291,196 L 1281,172 L 1263,153 L 1237,141 L 1208,140 L 1182,150 L 1156,178 L 1152,175 L 1155,182 L 1151,190 L 1149,170 L 1136,164 L 1152,67 L 1142,58 Z M 908,457 L 912,452 L 936,460 L 1019,479 L 1099,492 L 1168,498 L 1170,503 L 1142,503 L 1139,505 L 1131,540 L 1122,565 L 1126,570 L 1139,570 L 1143,576 L 1133,578 L 1115,578 L 1112,581 L 1112,588 L 1104,603 L 1088,627 L 1080,626 L 1078,624 L 1093,603 L 1101,587 L 1099,578 L 1095,575 L 1057,572 L 1037,568 L 1030,570 L 1028,573 L 1020,623 L 1009,623 L 1007,621 L 1010,617 L 1017,572 L 1016,567 L 1011,563 L 986,559 L 952,550 L 949,551 L 943,558 L 949,588 L 948,589 L 947,586 L 946,588 L 945,587 L 943,592 L 949,588 L 954,603 L 950,604 L 947,602 L 951,602 L 951,600 L 946,602 L 942,599 L 934,565 L 934,553 L 936,547 L 930,543 L 909,536 L 913,530 L 924,534 L 929,534 L 934,530 L 933,499 L 937,469 L 933,465 L 913,460 Z M 915,430 L 935,436 L 941,436 L 945,433 L 945,424 L 950,406 L 962,375 L 957,370 L 939,365 L 946,358 L 950,360 L 948,361 L 953,360 L 962,363 L 968,363 L 971,360 L 971,352 L 986,326 L 999,310 L 995,305 L 996,304 L 1011,308 L 1020,308 L 1028,303 L 1112,318 L 1121,327 L 1116,328 L 1082,321 L 1074,324 L 1064,376 L 1065,381 L 1070,385 L 1129,394 L 1135,391 L 1139,385 L 1138,376 L 1129,339 L 1124,330 L 1134,329 L 1144,332 L 1140,333 L 1138,337 L 1142,347 L 1149,386 L 1146,393 L 1152,397 L 1169,398 L 1170,402 L 1174,406 L 1153,405 L 1148,409 L 1149,441 L 1145,469 L 1149,474 L 1172,475 L 1173,480 L 1147,481 L 1127,479 L 1029,464 L 929,441 L 913,435 Z M 1132,178 L 1134,178 L 1136,180 L 1136,184 L 1135,185 L 1135,189 L 1134,190 L 1134,192 L 1133,193 L 1132,192 L 1130,192 L 1129,191 L 1129,187 L 1130,186 L 1130,182 L 1131,181 L 1131,179 Z M 1210,152 L 1229,152 L 1230,153 L 1234,153 L 1235,154 L 1238,154 L 1239,155 L 1244,156 L 1245,157 L 1252,160 L 1254,162 L 1255,162 L 1259,166 L 1260,166 L 1270,177 L 1272,182 L 1274,184 L 1274,185 L 1276,188 L 1276,190 L 1277,191 L 1277,193 L 1278,194 L 1278,197 L 1279,198 L 1279,202 L 1280,203 L 1280,219 L 1279,220 L 1279,224 L 1278,225 L 1278,228 L 1277,229 L 1276,234 L 1275,235 L 1273,240 L 1271,242 L 1270,245 L 1267,248 L 1267,249 L 1258,258 L 1257,258 L 1254,261 L 1253,261 L 1251,263 L 1248,264 L 1246,266 L 1245,266 L 1244,267 L 1242,267 L 1241,268 L 1239,268 L 1238,269 L 1236,269 L 1235,270 L 1233,270 L 1232,271 L 1228,271 L 1227,272 L 1213,272 L 1212,271 L 1206,271 L 1205,270 L 1203,270 L 1202,269 L 1197,268 L 1196,267 L 1191,265 L 1190,264 L 1191,263 L 1191,262 L 1190,261 L 1190,258 L 1187,254 L 1186,251 L 1180,243 L 1180,242 L 1173,234 L 1172,234 L 1166,228 L 1165,228 L 1163,226 L 1162,226 L 1158,222 L 1158,211 L 1159,210 L 1163,210 L 1166,207 L 1166,206 L 1167,205 L 1167,198 L 1163,195 L 1164,194 L 1163,193 L 1163,191 L 1164,190 L 1164,188 L 1165,187 L 1166,184 L 1168,182 L 1169,179 L 1172,176 L 1172,175 L 1183,164 L 1184,164 L 1187,161 L 1188,161 L 1199,155 L 1201,155 L 1202,154 L 1205,154 L 1206,153 L 1209,153 Z" fill="black" fill-rule="evenodd"/>
</svg>