<svg xmlns="http://www.w3.org/2000/svg" width="1448" height="1086" viewBox="0 0 1448 1086">
<rect width="100%" height="100%" fill="white"/>
<path d="M 61,546 L 77,657 L 83,667 L 99,669 L 171,643 L 174,655 L 182,658 L 196,649 L 191,635 L 309,591 L 375,594 L 408,546 L 446,529 L 471,527 L 483,562 L 506,571 L 534,567 L 557,539 L 583,540 L 586,531 L 588,544 L 589,529 L 590,617 L 605,620 L 673,606 L 674,520 L 737,512 L 1072,502 L 1068,517 L 1081,522 L 1090,492 L 1166,490 L 1174,484 L 1176,471 L 1384,472 L 1388,454 L 1356,450 L 1354,424 L 1347,419 L 1325,425 L 1320,450 L 1125,449 L 1118,438 L 1084,438 L 1076,428 L 733,424 L 723,434 L 721,448 L 720,436 L 691,433 L 681,444 L 568,449 L 557,446 L 556,435 L 518,425 L 497,409 L 487,435 L 455,436 L 452,458 L 413,471 L 365,496 L 348,497 L 329,488 L 294,488 L 77,509 L 64,520 Z M 188,642 L 189,643 L 188,644 L 188,645 L 188,644 L 189,643 L 190,644 L 190,645 L 191,646 L 191,647 L 189,649 L 188,649 L 187,650 L 186,650 L 185,651 L 183,651 L 181,653 L 180,653 L 178,651 L 178,649 L 177,648 L 177,647 L 179,645 L 180,645 L 181,644 L 183,644 L 184,643 L 185,643 L 186,642 Z M 482,541 L 483,540 L 483,537 L 484,536 L 484,535 L 485,534 L 485,533 L 486,532 L 487,533 L 486,532 L 488,530 L 489,530 L 490,531 L 490,532 L 491,532 L 491,530 L 490,529 L 491,528 L 495,528 L 496,529 L 494,531 L 494,532 L 493,533 L 493,539 L 492,540 L 492,549 L 493,550 L 493,553 L 494,554 L 494,555 L 500,561 L 501,561 L 503,559 L 503,558 L 500,555 L 500,554 L 499,553 L 499,552 L 498,551 L 498,543 L 499,542 L 499,541 L 500,540 L 500,539 L 501,538 L 501,537 L 504,534 L 505,534 L 507,532 L 508,532 L 510,530 L 511,530 L 512,529 L 513,529 L 514,528 L 529,528 L 530,529 L 532,529 L 533,530 L 534,530 L 535,531 L 536,531 L 539,534 L 539,535 L 541,537 L 541,538 L 542,539 L 542,542 L 543,543 L 543,549 L 542,550 L 542,553 L 541,554 L 541,555 L 535,561 L 534,561 L 533,562 L 532,562 L 531,563 L 529,563 L 528,564 L 524,564 L 523,565 L 517,565 L 516,566 L 511,566 L 510,565 L 502,565 L 501,564 L 497,564 L 496,563 L 495,563 L 494,562 L 495,561 L 497,561 L 495,561 L 494,562 L 493,562 L 492,561 L 491,561 L 485,555 L 485,554 L 484,553 L 484,552 L 483,551 L 483,547 L 482,546 Z M 1074,510 L 1075,509 L 1081,509 L 1082,510 L 1082,513 L 1081,514 L 1081,515 L 1080,516 L 1074,516 L 1073,515 L 1073,513 L 1074,512 Z M 1097,445 L 1098,444 L 1107,444 L 1108,445 L 1108,447 L 1107,448 L 1106,447 L 1104,447 L 1103,448 L 1102,448 L 1101,447 L 1099,447 Z M 475,444 L 475,445 L 474,446 L 464,446 L 463,445 L 463,444 L 464,443 L 465,444 L 472,444 L 472,443 L 473,442 Z" fill="black" fill-rule="evenodd"/>
</svg>