<?xml version="1.0" encoding="UTF-8" standalone="no"?>
<svg
   width="1200"
   height="250"
   viewBox="0 0 1200 250"
   version="1.1"
   id="svg1"
   sodipodi:docname="rifle_no5_mk_i_black.svg"
   inkscape:version="1.4.2 (f4327f4, 2025-05-13)"
   xmlns:inkscape="http://www.inkscape.org/namespaces/inkscape"
   xmlns:sodipodi="http://sodipodi.sourceforge.net/DTD/sodipodi-0.dtd"
   xmlns="http://www.w3.org/2000/svg"
   xmlns:svg="http://www.w3.org/2000/svg">
  <defs
     id="defs1" />
  <sodipodi:namedview
     id="namedview1"
     pagecolor="#ffffff"
     bordercolor="#000000"
     borderopacity="0.25"
     inkscape:showpageshadow="2"
     inkscape:pageopacity="0.0"
     inkscape:pagecheckerboard="0"
     inkscape:deskcolor="#d1d1d1"
     inkscape:zoom="0.76505568"
     inkscape:cx="792.09921"
     inkscape:cy="448.98693"
     inkscape:window-width="2560"
     inkscape:window-height="1377"
     inkscape:window-x="-8"
     inkscape:window-y="-8"
     inkscape:window-maximized="1"
     inkscape:current-layer="svg1" />
  <path
     d="m 71.456756,128.69779 13.153625,91.25327 4.932608,8.22102 13.153621,1.6442 59.19132,-21.37464 2.4663,9.86522 6.57681,2.46631 11.50942,-7.39892 -4.1105,-11.50942 97.00797,-36.17247 54.25871,2.46631 27.12935,-39.46088 31.23985,-13.97573 20.55254,-1.6442 9.86522,28.77356 18.90833,7.39891 23.01885,-3.28841 18.90834,-23.01884 21.37463,0.82211 2.4663,-7.39892 1.6442,10.68732 0.82211,-12.33153 0.82209,72.34494 12.33152,2.46631 55.90291,-11.50942 0.8221,-70.70074 51.7924,-6.57681 275.40401,-8.221006 -3.28841,12.331506 10.68732,4.11052 7.39892,-24.66305 62.4797,-1.6442 6.57682,-4.93261 1.6442,-10.687323 170.99696,0.822105 3.2885,-14.79783 -26.3073,-3.288399 -1.6442,-21.374638 -5.7547,-4.110517 -18.0863,4.93261 -4.1104,20.552545 -160.30973,-0.822105 -5.75472,-9.043115 h -27.95144 l -6.57682,-8.22102 -281.98082,-3.288398 -8.22102,8.221008 -1.6442,11.509419 -0.8221,-9.86522 -23.84095,-2.466293 -8.22101,9.043114 -92.89747,4.110505 -9.0431,-2.466305 -0.82212,-9.043115 -31.23985,-8.22102 -17.26413,-13.153618 -8.22101,21.374638 -26.30725,0.822094 -2.46631,18.08624 -32.06196,10.687315 -39.46087,20.552543 -13.97572,0.822095 -15.61994,-7.398904 H 263.00642 L 84.610381,98.280032 73.923061,107.32315 Z m 104.406894,78.92175 0.82211,0.8221 -0.82211,0.82211 v 0.82209 -0.82209 l 0.82211,-0.82211 0.82209,0.82211 v 0.82209 l 0.82211,0.82211 v 0.8221 l -1.6442,1.6442 h -0.82211 l -0.8221,0.82211 h -0.8221 l -0.8221,0.82209 h -1.6442 l -1.6442,1.64421 h -0.82211 l -1.6442,-1.64421 v -1.6442 l -0.8221,-0.8221 v -0.8221 l 1.6442,-1.64421 h 0.8221 l 0.82211,-0.82209 h 1.6442 l 0.8221,-0.82211 h 0.8221 l 0.8221,-0.8221 z m 241.69785,-83.03226 0.8221,-0.82209 v -2.46631 l 0.8221,-0.8221 v -0.82211 l 0.82211,-0.82209 v -0.82211 l 0.82209,-0.8221 0.82211,0.8221 -0.82211,-0.8221 1.64421,-1.6442 h 0.8221 l 0.8221,0.8221 v 0.8221 h 0.8221 v -1.6442 l -0.8221,-0.82211 0.8221,-0.82209 h 3.28841 l 0.8221,0.82209 -1.64421,1.64421 v 0.8221 l -0.82209,0.8221 v 4.93261 l -0.82211,0.82211 v 7.3989 l 0.82211,0.82211 v 2.4663 l 0.82209,0.82211 v 0.82209 l 4.93261,4.93261 h 0.82211 l 1.6442,-1.6442 v -0.8221 l -2.46631,-2.46631 v -0.82209 l -0.82209,-0.82211 v -0.8221 l -0.82211,-0.8221 v -6.57681 l 0.82211,-0.8221 v -0.82211 l 0.82209,-0.82209 v -0.82211 l 0.82211,-0.8221 v -0.8221 l 2.4663,-2.4663 h 0.82211 l 1.6442,-1.64421 h 0.8221 l 1.6442,-1.6442 h 0.82211 l 0.82209,-0.82211 h 0.82211 l 0.8221,-0.82209 h 12.33152 l 0.8221,0.82209 h 1.6442 l 0.82211,0.82211 h 0.8221 l 0.8221,0.8221 h 0.8221 l 2.46631,2.46631 v 0.82209 l 1.6442,1.64421 v 0.8221 l 0.8221,0.8221 v 2.46631 l 0.82211,0.8221 v 4.9326 l -0.82211,0.82211 v 2.4663 l -0.8221,0.82211 v 0.82209 l -4.93261,4.93261 h -0.8221 l -0.8221,0.82211 h -0.82211 l -0.82209,0.8221 h -1.64421 l -0.8221,0.8221 h -3.28841 l -0.8221,0.8221 h -4.9326 l -0.82211,0.82211 h -4.1105 l -0.82211,-0.82211 h -6.57681 l -0.8221,-0.8221 h -3.28841 l -0.8221,-0.8221 h -0.8221 l -0.82211,-0.8221 0.82211,-0.82211 h 1.6442 -1.6442 l -0.82211,0.82211 h -0.82209 l -0.82211,-0.82211 h -0.8221 l -4.9326,-4.93261 v -0.82209 l -0.82211,-0.82211 v -0.8221 l -0.8221,-0.8221 v -3.28841 l -0.8221,-0.8221 z m 486.68409,-25.485138 0.8221,-0.82211 h 4.93261 l 0.8221,0.82211 v 2.466298 l -0.8221,0.82211 v 0.82209 l -0.8221,0.82211 h -4.93261 l -0.82211,-0.82211 v -1.6442 l 0.82211,-0.8221 z m 18.90833,-53.436605 0.82211,-0.822094 h 7.39891 l 0.82209,0.822094 v 1.644211 l -0.82209,0.822094 -0.82211,-0.822094 h -1.64419 l -0.82211,0.822094 h -0.82211 l -0.82209,-0.822094 h -1.64421 z M 411.80679,44.843443 v 0.822094 l -0.82211,0.822106 h -8.22101 l -0.8221,-0.822106 v -0.822094 l 0.8221,-0.822105 0.8221,0.822105 h 5.75471 v -0.822105 l 0.82211,-0.822106 z"
     fill="#000000"
     fill-rule="evenodd"
     id="path1"
     style="stroke-width:0.822102" />
</svg>
