<svg xmlns="http://www.w3.org/2000/svg" width="1254" height="1254" viewBox="0 0 1254 1254">
<rect width="100%" height="100%" fill="white"/>
<path d="M 43,721 L 56,730 L 116,715 L 112,713 L 118,710 L 120,725 L 132,726 L 133,705 L 265,651 L 315,658 L 338,626 L 370,611 L 381,614 L 384,632 L 391,639 L 416,641 L 435,633 L 438,613 L 449,605 L 629,590 L 852,578 L 853,594 L 859,596 L 869,577 L 925,576 L 894,574 L 1085,570 L 1090,575 L 1087,585 L 1093,589 L 1105,582 L 1106,566 L 1205,564 L 1203,556 L 1144,557 L 1144,552 L 1187,555 L 1149,555 L 1180,552 L 1144,550 L 1225,552 L 1212,551 L 1226,550 L 1229,539 L 1226,533 L 1208,530 L 1205,513 L 1185,515 L 1183,532 L 871,528 L 849,521 L 664,518 L 629,512 L 583,512 L 580,526 L 552,526 L 548,532 L 476,532 L 469,509 L 437,508 L 431,527 L 378,529 L 377,550 L 395,551 L 305,584 L 270,573 L 40,591 L 33,617 L 34,608 Z M 124,717 L 125,716 L 127,716 L 128,715 L 130,717 L 130,720 L 129,721 L 128,720 L 128,719 L 127,718 L 126,718 L 125,719 L 124,718 Z M 399,632 L 398,633 L 397,633 L 397,634 L 396,635 L 395,635 L 394,634 L 393,634 L 392,633 L 393,632 L 394,632 L 395,631 L 396,631 L 397,630 Z M 397,608 L 398,609 L 397,610 L 397,611 L 396,612 L 396,614 L 395,615 L 395,626 L 396,627 L 396,628 L 397,629 L 397,630 L 396,631 L 395,630 L 392,630 L 391,629 L 391,628 L 390,628 L 389,629 L 388,628 L 388,627 L 387,626 L 387,615 L 388,614 L 388,613 L 389,612 L 390,613 L 390,614 L 391,614 L 393,616 L 393,617 L 393,616 L 392,615 L 392,614 L 394,612 L 394,611 L 395,610 L 395,609 L 396,608 Z M 433,614 L 433,619 L 434,620 L 434,622 L 433,623 L 433,626 L 432,627 L 432,628 L 427,633 L 426,633 L 425,634 L 423,634 L 422,635 L 417,635 L 416,636 L 398,636 L 397,635 L 399,633 L 400,633 L 401,634 L 402,634 L 403,633 L 404,633 L 404,631 L 402,629 L 402,628 L 401,627 L 401,625 L 402,624 L 402,621 L 403,620 L 403,618 L 403,619 L 402,620 L 401,619 L 401,617 L 402,616 L 402,615 L 410,607 L 419,607 L 420,606 L 424,606 L 425,607 L 424,608 L 421,608 L 422,608 L 423,609 L 424,608 L 425,609 L 426,609 L 427,608 L 428,608 L 429,609 L 428,610 L 430,612 L 430,614 L 431,615 L 431,614 L 432,613 Z M 860,585 L 861,586 L 861,587 L 862,588 L 861,589 L 860,589 L 858,591 L 857,590 L 857,589 L 858,588 L 858,586 L 859,585 Z M 1099,581 L 1098,582 L 1097,582 L 1096,583 L 1094,583 L 1093,584 L 1092,583 L 1092,580 L 1094,578 L 1095,578 L 1096,579 L 1095,580 L 1098,580 Z M 872,576 L 873,575 L 893,575 L 894,576 L 893,577 L 873,577 Z M 1142,566 L 1143,565 L 1186,565 L 1187,566 L 1186,567 L 1143,567 Z M 1105,531 L 1106,530 L 1107,531 L 1181,531 L 1182,532 L 1181,533 L 1106,533 L 1105,532 Z M 446,510 L 447,509 L 457,509 L 458,510 L 457,511 L 447,511 Z" fill="black" fill-rule="evenodd"/>
</svg>