<svg xmlns="http://www.w3.org/2000/svg" width="1448" height="1086" viewBox="0 0 1448 1086">
<rect width="100%" height="100%" fill="white"/>
<path d="M 59,550 L 76,667 L 97,671 L 151,649 L 150,670 L 157,674 L 165,668 L 161,653 L 165,644 L 288,597 L 347,595 L 378,564 L 428,548 L 443,581 L 471,586 L 499,575 L 503,567 L 505,572 L 508,557 L 507,573 L 515,577 L 592,561 L 603,539 L 673,526 L 982,519 L 981,541 L 991,547 L 995,519 L 1033,515 L 1039,521 L 1046,512 L 1255,510 L 1259,517 L 1270,517 L 1277,505 L 1301,505 L 1306,487 L 1397,486 L 1399,475 L 1346,468 L 1344,448 L 1338,443 L 1321,445 L 1315,470 L 813,460 L 806,452 L 746,449 L 733,440 L 724,446 L 727,460 L 655,459 L 654,451 L 645,453 L 639,443 L 640,427 L 756,438 L 757,389 L 719,389 L 665,400 L 630,396 L 597,400 L 590,396 L 591,384 L 573,380 L 562,385 L 564,396 L 555,400 L 428,392 L 428,434 L 510,427 L 511,441 L 496,453 L 472,451 L 470,460 L 449,457 L 434,467 L 416,465 L 416,485 L 439,486 L 418,488 L 347,520 L 290,515 L 63,536 Z M 161,658 L 162,659 L 162,666 L 160,668 L 159,668 L 158,669 L 157,669 L 156,668 L 157,667 L 156,666 L 156,668 L 155,669 L 154,668 L 154,662 L 156,660 L 158,660 L 159,661 L 160,661 L 159,661 L 158,660 L 160,658 Z M 501,546 L 502,547 L 501,548 L 500,548 L 499,549 L 499,551 L 498,552 L 498,556 L 497,557 L 496,556 L 496,553 L 495,552 L 495,551 L 496,550 L 497,550 L 497,547 L 498,546 Z M 491,552 L 491,553 L 492,554 L 492,556 L 493,557 L 493,566 L 492,567 L 492,569 L 491,570 L 491,571 L 490,572 L 490,573 L 486,577 L 485,577 L 484,578 L 483,578 L 482,579 L 481,579 L 480,580 L 476,580 L 475,581 L 466,581 L 465,582 L 459,582 L 458,581 L 453,581 L 452,580 L 451,580 L 450,579 L 449,579 L 448,578 L 447,578 L 442,573 L 442,572 L 441,571 L 441,569 L 440,568 L 440,558 L 441,557 L 441,555 L 442,554 L 442,553 L 448,547 L 452,547 L 453,548 L 453,549 L 454,550 L 454,551 L 453,552 L 453,554 L 452,555 L 452,567 L 453,568 L 453,569 L 454,570 L 454,571 L 456,573 L 456,574 L 459,577 L 461,577 L 462,576 L 462,575 L 461,574 L 461,573 L 459,571 L 459,570 L 458,569 L 458,568 L 457,567 L 457,560 L 458,559 L 458,557 L 460,555 L 460,554 L 466,548 L 467,548 L 470,545 L 482,545 L 484,547 L 486,547 Z M 986,531 L 987,532 L 988,532 L 989,533 L 990,533 L 991,534 L 991,542 L 990,543 L 988,541 L 989,540 L 989,539 L 989,540 L 988,541 L 987,541 L 984,538 L 984,534 L 985,533 L 985,532 Z M 523,465 L 524,464 L 605,464 L 606,465 L 605,466 L 524,466 Z M 1330,450 L 1334,450 L 1335,451 L 1335,452 L 1336,453 L 1336,457 L 1335,458 L 1335,459 L 1334,460 L 1333,459 L 1330,459 L 1329,458 L 1329,451 Z M 529,430 L 530,429 L 530,428 L 531,427 L 560,427 L 562,429 L 564,429 L 565,430 L 589,430 L 590,429 L 591,429 L 592,428 L 593,428 L 594,427 L 619,427 L 620,428 L 620,442 L 619,443 L 617,443 L 616,444 L 613,444 L 610,447 L 610,448 L 609,449 L 609,451 L 608,452 L 607,451 L 600,451 L 600,452 L 599,453 L 598,453 L 597,452 L 597,451 L 591,451 L 591,452 L 590,453 L 588,453 L 587,452 L 587,451 L 582,451 L 582,452 L 581,453 L 579,453 L 578,452 L 578,451 L 572,451 L 572,452 L 571,453 L 568,453 L 567,452 L 567,451 L 566,451 L 565,450 L 564,450 L 563,451 L 560,451 L 560,452 L 559,453 L 556,453 L 555,452 L 555,451 L 549,451 L 549,452 L 548,453 L 546,453 L 544,451 L 539,451 L 537,453 L 535,451 L 535,449 L 534,448 L 534,446 L 532,444 L 531,444 L 530,443 L 530,441 L 529,440 Z" fill="black" fill-rule="evenodd"/>
</svg>