<svg xmlns="http://www.w3.org/2000/svg" width="1254" height="1254" viewBox="0 0 1254 1254">
<rect width="100%" height="100%" fill="white"/>
<path d="M 165,622 L 164,971 L 181,995 L 227,1019 L 321,1044 L 441,1061 L 582,1069 L 732,1067 L 858,1056 L 967,1037 L 1045,1012 L 1073,996 L 1088,979 L 1090,623 L 1071,600 L 1030,581 L 1029,612 L 1016,629 L 965,652 L 856,673 L 733,683 L 502,682 L 405,674 L 329,662 L 279,649 L 241,631 L 226,611 L 225,581 L 184,600 Z" fill="black" fill-rule="evenodd"/>
<path d="M 238,484 L 238,606 L 241,612 L 252,622 L 275,633 L 303,642 L 366,655 L 463,666 L 558,671 L 697,671 L 790,666 L 873,657 L 951,642 L 998,625 L 1010,617 L 1018,605 L 1018,485 L 1014,476 L 1006,467 L 979,455 L 897,436 L 794,425 L 793,471 L 790,479 L 780,488 L 750,499 L 675,509 L 565,508 L 490,495 L 473,487 L 463,476 L 461,425 L 359,436 L 296,449 L 248,468 Z" fill="black" fill-rule="evenodd"/>
<path d="M 424,226 L 420,234 L 421,247 L 481,367 L 479,368 L 488,381 L 487,384 L 495,396 L 493,398 L 496,398 L 477,407 L 470,417 L 471,469 L 477,476 L 501,486 L 545,494 L 599,498 L 658,498 L 745,488 L 771,480 L 782,472 L 785,413 L 758,398 L 761,398 L 759,395 L 833,246 L 833,232 L 822,218 L 802,209 L 789,209 L 777,217 L 723,332 L 690,392 L 680,390 L 680,377 L 676,373 L 659,367 L 660,190 L 652,178 L 643,174 L 622,172 L 605,176 L 595,185 L 594,367 L 575,375 L 572,392 L 564,392 L 549,369 L 476,216 L 465,209 L 453,209 L 437,215 Z" fill="black" fill-rule="evenodd"/>
</svg>