<?xml version="1.0" encoding="UTF-8" standalone="no"?>
<svg
   width="300"
   height="250"
   viewBox="0 0 300 250"
   version="1.1"
   id="svg3"
   sodipodi:docname="s_mine_black.svg"
   inkscape:version="1.4.2 (f4327f4, 2025-05-13)"
   xmlns:inkscape="http://www.inkscape.org/namespaces/inkscape"
   xmlns:sodipodi="http://sodipodi.sourceforge.net/DTD/sodipodi-0.dtd"
   xmlns="http://www.w3.org/2000/svg"
   xmlns:svg="http://www.w3.org/2000/svg">
  <defs
     id="defs3" />
  <sodipodi:namedview
     id="namedview3"
     pagecolor="#ffffff"
     bordercolor="#000000"
     borderopacity="0.25"
     inkscape:showpageshadow="2"
     inkscape:pageopacity="0.0"
     inkscape:pagecheckerboard="0"
     inkscape:deskcolor="#d1d1d1"
     inkscape:zoom="0.93700159"
     inkscape:cx="249.73277"
     inkscape:cy="272.6783"
     inkscape:window-width="2560"
     inkscape:window-height="1377"
     inkscape:window-x="-8"
     inkscape:window-y="-8"
     inkscape:window-maximized="1"
     inkscape:current-layer="svg3" />
  <path
     d="m 40.447101,126.48299 -0.24625,85.94178 4.186278,5.91004 11.327568,5.91004 23.147646,6.15632 29.550187,4.18624 34.72147,1.97003 36.93774,-0.49252 31.02769,-2.70873 26.84141,-4.67882 19.20763,-6.15627 6.89504,-3.94 3.69377,-4.1863 0.49251,-87.66555 -4.67879,-5.66379 -10.0963,-4.67878 -0.24626,7.6338 -3.20127,4.18628 -12.55883,5.66378 -26.84141,5.17129 -30.28894,2.46251 -56.88411,-0.24625 -23.886404,-1.97001 -18.715119,-2.95502 -12.312578,-3.20127 -9.357559,-4.43253 -3.693773,-4.92503 -0.24625,-7.38755 -10.096314,4.67878 z"
     fill="#000000"
     fill-rule="evenodd"
     id="path1"
     style="stroke-width:0.246251" />
  <path
     d="m 58.423465,92.500287 v 30.042683 l 0.738755,1.47751 2.708768,2.46251 5.663787,2.70877 6.895041,2.21627 15.513846,3.20127 23.886398,2.70876 23.39391,1.23126 h 34.22896 l 22.90139,-1.23126 20.43888,-2.21626 19.20762,-3.69377 11.57383,-4.18628 2.95501,-1.97001 1.97002,-2.95502 V 92.746537 l -0.98501,-2.21626 -1.97002,-2.21626 -6.64879,-2.95502 -20.19262,-4.67878 -25.36391,-2.70877 -0.24625,11.32757 -0.73876,1.97001 -2.46251,2.21627 -7.38755,2.70877 -18.46887,2.46251 -27.08767,-0.24625 -18.46886,-3.20127 -4.18628,-1.97001 -2.46252,-2.70877 -0.4925,-12.55883 -25.117657,2.70877 -15.513846,3.20127 -11.820078,4.67878 z"
     fill="#000000"
     fill-rule="evenodd"
     id="path2"
     style="stroke-width:0.246251" />
  <path
     d="m 104.22625,28.967387 -0.985,1.97001 0.24625,3.20127 14.77509,29.55019 -0.4925,0.24625 2.21626,3.20127 -0.24625,0.73876 1.97001,2.95502 -0.4925,0.4925 h 0.73876 l -4.67878,2.21626 -1.72376,2.46252 0.24625,12.80508 1.47751,1.72376 5.91003,2.46251 10.83507,1.97002 13.29759,0.985 h 14.52884 l 21.42388,-2.46251 6.40255,-1.97002 2.70876,-1.97 0.73876,-14.52885 -6.6488,-3.69377 h 0.73876 l -0.4925,-0.73875 18.22261,-36.69149 v -3.44752 l -2.70877,-3.44752 -4.92503,-2.216267 h -3.20127 l -2.95502,1.970017 -13.29758,28.31893 -8.1263,14.77509 -2.46252,-0.4925 v -3.20128 l -0.985,-0.985 -4.18628,-1.47751 0.24625,-43.586524 -1.97001,-2.955018 -2.21627,-0.985004 -5.17128,-0.492505 -4.18628,0.985004 -2.46251,2.216264 -0.24625,44.817783 -4.67878,1.97001 -0.73876,4.18628 h -1.97001 l -3.69377,-5.66378 -17.97636,-37.67649 -2.70877,-1.723767 h -2.95502 l -3.94002,1.477507 z"
     fill="#000000"
     fill-rule="evenodd"
     id="path3"
     style="stroke-width:0.246251" />
</svg>
