<?xml version="1.0" encoding="UTF-8" standalone="no"?>
<svg
   width="1100"
   height="250"
   viewBox="0 0 1100 250"
   version="1.1"
   id="svg3"
   sodipodi:docname="scoped_svt40_black.svg"
   inkscape:version="1.4.2 (f4327f4, 2025-05-13)"
   xmlns:inkscape="http://www.inkscape.org/namespaces/inkscape"
   xmlns:sodipodi="http://sodipodi.sourceforge.net/DTD/sodipodi-0.dtd"
   xmlns="http://www.w3.org/2000/svg"
   xmlns:svg="http://www.w3.org/2000/svg">
  <defs
     id="defs3" />
  <sodipodi:namedview
     id="namedview3"
     pagecolor="#ffffff"
     bordercolor="#000000"
     borderopacity="0.25"
     inkscape:showpageshadow="2"
     inkscape:pageopacity="0.0"
     inkscape:pagecheckerboard="0"
     inkscape:deskcolor="#d1d1d1"
     inkscape:zoom="0.78654235"
     inkscape:cx="799.70265"
     inkscape:cy="-18.435117"
     inkscape:window-width="2560"
     inkscape:window-height="1377"
     inkscape:window-x="-8"
     inkscape:window-y="-8"
     inkscape:window-maximized="1"
     inkscape:current-layer="svg3" />
  <path
     d="m 511.84531,141.87579 h -0.99977 v 1.99953 l -0.49988,0.49987 v 3.99905 l 0.49988,-0.49988 h 0.49988 v -1.99952 l 0.49989,-0.49988 v -1.49964 l 0.49988,-0.49989 -0.99977,-0.99975 z"
     fill="#000000"
     fill-rule="evenodd"
     id="path1"
     style="stroke-width:0.499881" />
  <path
     id="path3"
     d="m 398.87224,23.404038 -22.99452,0.999757 -1.99951,14.496549 -104.4751,-4.998812 3.99905,33.492026 69.98331,-6.498455 v 12.996896 l -1.99952,0.99977 -8.99785,-0.499885 -2.49941,13.996664 -21.99476,2.499399 -4.49893,20.495113 -49.48818,15.99619 -44.98928,-8.49798 -156.462699,9.99763 -9.997616,3.49915 0.999762,10.99738 10.997377,86.97927 9.997616,3.99904 68.98356,-19.99523 -0.49989,1.99952 4.99882,7.99809 11.98054,-8.87386 -4.48233,-5.12279 65.48438,-24.99405 41.49011,3.49917 26.49368,-29.49297 24.99404,-10.49749 15.99619,3.49915 v 17.49584 l 11.99714,8.99785 32.99212,-2.4994 6.49846,-5.99857 0.49988,-17.49583 6.49845,-4.49893 h 39.99047 l 2.99928,19.99524 9.99761,-16.49607 1.99953,3.49916 -1.99953,-4.49893 5.99857,-0.49987 3.99905,34.99165 66.48414,-7.99809 1.99953,-36.4913 319.92371,-8.49798 7.49821,-7.49821 156.4627,-0.49988 1.49964,11.99715 10.49746,0.99975 4.499,-11.99713 75.482,-0.99977 -0.4999,-15.99618 -53.4873,-0.49989 -3.4991,-32.992121 -13.4968,2.999284 -2.4994,10.997379 -2.4994,17.995708 -94.97737,1.99952 -7.9981,-1.49964 -10.99738,-14.996431 -289.43098,-3.999041 -8.99785,-6.998339 -54.487,-0.499872 -5.99857,7.998095 -99.47629,-0.499884 0.22261,-1.222363 -0.22261,0.222605 -0.49987,-0.499885 v -2.999284 l 0.49987,-0.499885 v -0.999757 l -0.99976,-6.498453 -6.49845,-1.999527 0.99976,-13.996666 79.98093,6.498456 2.49941,-32.492257 -111.9733,4.998812 z m -37.49105,36.99118 h 12.99689 l 0.49989,0.499885 v 0.999757 l 0.99975,0.999757 h 23.4944 l 1.99953,-2.499399 h 10.99738 l 0.49987,0.499885 v 13.496781 l -0.49987,0.499885 c 0,0 -0.62352,-0.876135 -0.99977,-0.499885 h -46.98879 -2.99928 L 360.8813,73.891999 V 60.895103 Z m -18.99548,20.994991 h 0.99976 l 0.99977,0.99977 h 15.4963 l 1.49965,-0.99977 h 51.48771 l 1.49964,0.99977 h 8.99786 l 0.49988,0.499873 0.49989,0.499884 0.49987,1.499642 -0.49987,0.499885 -0.49989,0.499885 v 1.999515 l -0.49988,0.499885 h -78.98116 l -0.49989,-0.499885 v -0.999758 l -0.49988,-0.499884 -0.99976,-1.499643 -0.49988,-0.499884 v -2.4994 z m 87.97902,0.99977 h 1.99953 l 0.49987,0.499873 v 1.499642 l -0.49987,0.499884 h -1.99953 l -0.49988,-0.499884 v -1.499642 z m 25.99381,13.496779 h 60.48558 c 2.22095,-0.182107 3.06825,0.602151 4.27373,1.807648 0.5865,0.144878 1.54078,3.498804 1.22495,3.691034 l -0.14006,4.61128 -1.85947,1.88717 -3.49915,0.99977 h -45.98905 l -0.49987,-0.49988 -16.99595,0.49988 -0.49988,-0.49988 h -0.49988 l -0.49988,-0.49989 v -2.49939 l -0.99977,-0.49989 h -6.49844 l -0.49989,0.49989 h -8.49796 -0.99977 -2.99929 l -69.48343,-0.49989 -2.65829,0.26156 -1.34075,-0.26156 0.49988,-1.99953 h 93.47771 v -2.999281 l 0.99976,-1.499642 1.49964,-1.499642 c 0.73754,-0.468567 1.30609,-0.624098 1.99953,-0.999757 z m -3.49917,2.499399 0.49988,0.499885 z m 220.94732,1.999523 h 21.49487 l 0.49987,0.49989 0.99977,0.99976 v 0.99975 l 0.49988,0.49989 -0.49988,0.49988 v 0.49988 l -0.99977,0.99977 h -21.99474 l -0.49989,-0.49989 h -0.49988 l -0.49987,-0.49988 v -2.4994 l 0.99975,-0.99976 z m 47.98854,0 h 20.99501 l 0.49987,0.49989 h 0.49988 l 0.99976,0.99976 v 0.99975 1.49965 l -0.99976,0.99977 h -21.99476 l -0.49987,-0.49989 h -0.49988 l -0.49989,-0.49988 v -0.49988 l 0.49989,-0.49988 v -0.99976 l 0.49988,-0.49988 -0.49988,-0.49989 z m 47.98856,0 h 19.99524 l 1.49964,0.99976 0.49988,0.49989 v 0.49988 l 0.49989,0.49987 v 0.99977 l -0.99977,0.99976 -0.49989,0.49989 h -21.49487 l -0.49987,-0.49989 h -0.49989 l -0.49988,-0.49988 v -2.4994 l 0.99977,-0.99976 h 0.49987 z m 63.48487,5.99857 h 52.48748 l 0.99976,1.49964 -0.49988,0.49989 h -0.49988 v 0.49988 l -0.49988,0.49988 -2.99928,0.49988 h -42.98975 -1.49964 -0.99976 l -1.01626,0.13566 -1.63531,-0.14912 -1.05601,-0.46015 -0.586,-1.31081 0.29452,-1.21486 z m 214.44884,6.49846 h 8.498 l 0.4999,0.49988 v 6.49844 l -0.4578,0.0365 -8.5401,-0.0365 -0.4999,-0.49987 v -5.99857 z m 14.9964,0 h 3.4992 l 0.4999,0.49988 v 5.99857 l -0.4999,0.49987 h -2.4994 -0.9998 l -0.4998,-0.49987 v -5.99857 z m 10.9974,0 h 2.9993 l 0.4999,0.49988 v 0.99968 4.99881 l -0.4999,0.49989 h -1.4996 l -2.4994,6e-5 -0.4999,-0.49987 0.035,-6.39882 c 0,0 0.861,-0.0996 1.4645,-0.0996 z m -422.39926,2.99928 h 15.99619 l 1.49965,1.49964 v 2.4994 l -0.49989,0.49989 -0.99976,0.49988 -0.49988,0.49987 h -15.49631 l -0.49988,-0.49987 h -0.49987 l -0.99977,-0.99977 v -0.49987 l -0.49988,-0.49989 v -0.49988 l 0.49988,-0.49987 v -0.49989 l 0.49988,-0.49988 0.49989,-0.49988 h 0.49987 z m 44.48939,0.49988 h 20.49512 l 0.49989,0.49988 0.49987,0.49988 v 0.49989 l 0.49988,0.49987 v 0.49988 l -0.49988,0.49989 v 0.49987 l -0.99976,0.99977 h -20.99499 l -0.85739,-2.12846 0.85739,-1.87059 z m 47.48868,0 h 18.99547 l 0.96003,0.64226 0.49318,0.85739 -0.0395,1.07919 -0.41396,1.42021 -0.49987,0.49988 h -20.995 l -0.99976,-0.99977 v -1.49964 l 0.99976,-0.99976 0.49988,-0.49988 h 0.49989 z m 44.98927,0.49988 h 17.49584 1.49964 0.99976 l 0.99975,0.99977 v 1.99951 l -0.99975,0.99977 H 787.7795 l -0.49987,-0.49988 v -0.49989 l -0.49989,-0.49987 v -0.49989 l 0.49989,-0.49988 v -0.49987 l 0.49987,-0.49989 z m 130.96878,3.49917 h 13.99666 l 0.49988,0.49988 -0.49988,0.49987 h -13.99666 l -0.49989,-0.49987 z m 29.99284,0 h 16.49607 l 0.49988,0.49988 -0.49988,0.49987 H 949.241 l -0.49987,-0.49987 z m 28.99309,0 h 9.49773 l 0.49988,0.49988 -0.49988,0.49987 h -9.49773 l -0.49988,-0.49987 z m 22.99451,9.99762 h 0.9998 l 0.4999,0.49987 v 2.49941 l -0.4999,0.49988 h -1.9996 l -0.49983,-0.49988 v -1.49964 l 0.49983,-0.49988 0.4999,0.49988 0.4999,-0.49988 -0.4999,-0.49989 z m -671.83979,17.9957 h 0.99976 0.99976 1.49964 l 4.99882,0.49989 0.49988,0.49987 -0.99977,0.99977 -0.49987,1.49964 -0.40059,1.13542 -0.0994,2.36374 v 1.49964 6.49845 l 0.99976,2.99929 1.49964,3.49917 0.49988,0.99975 0.99976,0.49989 h 1.49964 l 0.49989,-0.49989 -0.53623,-1.7016 -0.46353,-1.79755 -0.49988,-1.49964 -0.49989,-1.99953 v -3.49917 l 0.49989,-1.99953 1.49964,-2.4994 0.99976,-1.49964 0.99977,-0.99976 1.99951,-1.99952 c 1.02169,-1.14841 2.20151,-1.93658 2.20151,-1.93658 l 1.79754,-1.06271 h 0.99976 l 0.99977,0.49989 h 6.49844 l 0.49989,-0.49989 h 4.99881 l 0.99975,0.49989 1.99953,1.99951 0.49987,0.99977 v 11.49725 l -0.49987,2.99929 c -0.2178,1.45282 -0.38744,2.58799 -1.30103,3.77721 -1.78223,3.45054 -3.33134,4.01638 -6.10124,4.91938 l -1.15865,0.43693 -0.93682,-0.13567 H 334.8874 l -0.49989,-0.49987 h -1.49964 l -2.99928,-1.49964 -2.99929,-2.99929 -1.99952,-2.99928 -0.49988,-1.99953 -0.71835,-1.97967 c -0.46858,-3.20728 -1.10977,-6.05695 0.47666,-9.68929 l 2.50277,-3.44663 0.73821,-0.38071 z m -184.45602,65.98427 0.99977,0.99976 0.49987,-0.49988 0.49989,0.49988 v 0.99976 l -0.99976,0.99976 h -0.99977 l -0.49987,0.49989 h -0.49989 l -0.49988,0.49987 h -0.99976 l -0.49988,0.49988 h -0.99976 l -0.49989,0.49989 h -0.49987 l -0.49988,0.49987 h -0.49989 l -0.49987,0.49989 h -0.49988 l -0.49989,0.49988 -0.49987,-0.49988 v -2.4994 l 0.99976,-0.99977 h 0.49988 l 0.49987,0.49988 v 0.49989 h 0.49989 l 0.49988,0.49987 0.49987,-0.49987 h 0.49989 l -0.49989,-0.49989 v -0.49988 l 0.49989,-0.49988 h 0.49988 l 0.49988,-0.49988 h 0.99977 l 0.49987,-0.49988 h 0.49988 z m -0.99976,1.99952 -0.49988,0.49988 h 0.99977 z"
     sodipodi:nodetypes="ccccccccccccccccccccccccccccccccccccccccccccccccccccccccccccccccccccccccccccccccccccccccccccccccccccccccccccccccccccccccccccccccccccccccccccccccccccccccccccccccccccccccccccccccccccccccccccccccccccccccccccccccccccccccccccccccccccccccccccccccccccccccccccccccscccccccccccccccccccccccccccccccccccccccccccccccccccccccccccccccccccccccccccccccccccccccccccccccccccccccccccccccccccccccccccccccccccccccccccccccccccccccccccccccccccccccccccccccccccccccccccccccccccccc"
     style="stroke-width:0.499881" />
</svg>
