<svg xmlns="http://www.w3.org/2000/svg" viewBox="0 0 150 67" width="150" height="67">
  <path d="M 5.00 49.00 L 10.00 50.00 L 17.00 46.00 L 28.00 42.00 L 30.00 40.00 L 38.00 40.00 L 40.00 37.00 L 47.00 35.00 L 50.00 40.00 L 56.00 40.00 L 60.00 35.00 L 64.00 35.00 L 68.00 38.00 L 68.00 42.00 L 71.00 51.00 L 74.00 51.00 L 81.00 48.00 L 81.00 45.00 L 78.00 38.00 L 78.00 35.00 L 80.00 33.00 L 126.00 30.00 L 127.00 27.00 L 132.00 27.00 L 138.00 29.00 L 139.00 27.00 L 144.00 28.00 L 149.00 27.00 L 149.00 24.00 L 146.00 23.00 L 145.00 18.00 L 143.00 19.00 L 142.00 24.00 L 138.00 24.00 L 136.00 22.00 L 96.00 22.00 L 95.00 21.00 L 87.00 21.00 L 86.00 20.00 L 86.00 13.00 L 70.00 13.00 L 69.00 11.00 L 66.00 11.00 L 65.00 13.00 L 48.00 13.00 L 48.00 19.00 L 50.00 20.00 L 50.00 22.00 L 47.00 23.00 L 46.00 27.00 L 43.00 29.00 L 36.00 30.00 L 33.00 28.00 L 29.00 28.00 L 28.00 29.00 L 5.00 30.00 L 4.00 31.00 Z M 51.00 19.00 L 52.00 18.00 L 59.00 18.00 L 60.00 19.00 L 60.00 21.00 L 59.00 22.00 L 52.00 22.00 L 51.00 21.00 Z" fill="#000000" stroke="#000000" stroke-width="0.5" fill-rule="evenodd" clip-rule="evenodd"/>
</svg>
