<svg xmlns="http://www.w3.org/2000/svg" width="2172" height="724" viewBox="0 0 2172 724">
<rect width="100%" height="100%" fill="white"/>
<path d="M 984,385 L 982,385 L 982,389 L 981,390 L 981,398 L 982,397 L 983,397 L 983,393 L 984,392 L 984,389 L 985,388 L 983,386 Z" fill="black" fill-rule="evenodd"/>
<path d="M 2022,254 L 2022,255 L 2023,256 L 2023,257 L 2024,258 L 2024,262 L 2023,263 L 2023,264 L 2022,265 L 2022,275 L 2023,276 L 2022,277 L 2025,277 L 2024,276 L 2024,254 Z" fill="black" fill-rule="evenodd"/>
<path d="M 44,396 L 47,388 L 69,562 L 89,570 L 227,530 L 222,544 L 226,534 L 236,550 L 263,530 L 265,538 L 251,522 L 382,472 L 465,479 L 518,420 L 568,399 L 600,406 L 600,441 L 624,459 L 690,454 L 703,442 L 704,407 L 717,398 L 797,398 L 803,438 L 823,405 L 827,412 L 823,403 L 835,402 L 843,472 L 976,456 L 980,383 L 1620,366 L 1635,351 L 1948,350 L 1951,374 L 1972,376 L 1981,352 L 2132,350 L 2131,318 L 2024,317 L 2017,251 L 1990,257 L 1985,279 L 1982,262 L 1980,315 L 1790,319 L 1774,316 L 1752,286 L 1173,278 L 1155,264 L 1046,263 L 1034,279 L 835,278 L 839,256 L 835,266 L 833,253 L 820,249 L 822,221 L 982,234 L 987,169 L 763,179 L 758,148 L 712,150 L 708,179 L 499,169 L 507,236 L 647,223 L 647,249 L 643,242 L 643,251 L 625,250 L 620,278 L 576,283 L 567,324 L 468,356 L 378,339 L 65,359 L 45,366 Z M 254,532 L 254,534 L 252,536 L 250,536 L 248,534 L 247,535 L 246,535 L 249,535 L 250,536 L 249,537 L 248,537 L 247,538 L 245,538 L 244,539 L 242,539 L 241,540 L 240,540 L 239,541 L 238,541 L 237,542 L 236,542 L 235,543 L 234,542 L 234,537 L 236,535 L 237,535 L 238,536 L 238,537 L 239,537 L 240,538 L 241,537 L 242,537 L 241,536 L 241,535 L 242,534 L 243,534 L 244,533 L 246,533 L 247,532 L 248,532 L 250,530 L 252,532 L 252,533 L 252,532 L 253,531 Z M 610,407 L 614,402 L 615,403 L 616,402 L 618,402 L 616,402 L 615,401 L 619,398 L 620,399 L 621,398 L 623,398 L 624,399 L 626,398 L 627,399 L 636,399 L 637,400 L 635,402 L 634,405 L 633,406 L 632,404 L 631,406 L 632,407 L 631,408 L 631,410 L 632,411 L 631,413 L 632,411 L 633,412 L 633,415 L 632,416 L 632,427 L 633,428 L 633,431 L 632,432 L 629,432 L 628,433 L 629,434 L 631,434 L 632,433 L 633,434 L 634,433 L 635,434 L 638,441 L 637,442 L 636,441 L 634,441 L 634,442 L 636,441 L 637,442 L 638,441 L 639,443 L 641,444 L 644,444 L 645,443 L 645,439 L 643,436 L 643,434 L 642,433 L 642,430 L 641,429 L 641,422 L 642,421 L 642,418 L 644,415 L 645,416 L 645,418 L 644,420 L 645,417 L 646,416 L 648,416 L 647,416 L 645,413 L 647,410 L 648,411 L 651,409 L 649,408 L 653,404 L 656,405 L 654,404 L 658,401 L 659,401 L 661,398 L 662,399 L 663,398 L 665,399 L 678,399 L 679,398 L 689,398 L 691,399 L 695,403 L 696,405 L 696,428 L 695,429 L 695,434 L 692,439 L 690,435 L 690,437 L 692,439 L 692,441 L 687,446 L 686,445 L 687,446 L 685,448 L 682,447 L 678,449 L 680,450 L 679,451 L 677,451 L 675,450 L 677,451 L 676,452 L 630,452 L 629,451 L 630,450 L 632,450 L 630,450 L 629,451 L 626,451 L 620,448 L 615,443 L 619,441 L 617,442 L 615,441 L 614,442 L 610,436 L 610,433 L 611,432 L 612,433 L 612,435 L 614,434 L 614,431 L 610,433 L 609,432 L 609,429 L 608,428 L 608,417 L 612,415 L 612,411 L 611,410 L 612,408 L 611,409 Z M 1963,362 L 1965,362 L 1966,363 L 1966,368 L 1965,369 L 1961,369 L 1960,368 L 1960,365 L 1961,364 L 1962,365 L 1962,367 L 1962,365 L 1963,364 L 1964,364 L 1963,364 L 1962,363 Z M 1916,343 L 1917,342 L 1936,342 L 1937,343 L 1936,344 L 1917,344 Z M 1858,343 L 1859,342 L 1892,342 L 1893,343 L 1892,344 L 1859,344 Z M 1798,343 L 1799,342 L 1827,342 L 1828,343 L 1827,344 L 1799,344 Z M 1534,339 L 1535,338 L 1535,337 L 1536,336 L 1537,337 L 1537,338 L 1538,337 L 1542,337 L 1537,337 L 1536,336 L 1537,335 L 1572,335 L 1573,336 L 1573,337 L 1575,337 L 1574,336 L 1575,335 L 1577,335 L 1579,337 L 1579,341 L 1577,343 L 1536,343 L 1535,342 L 1535,341 L 1534,340 Z M 1442,338 L 1444,336 L 1446,338 L 1446,340 L 1445,341 L 1444,340 L 1445,341 L 1447,341 L 1447,337 L 1445,337 L 1444,336 L 1445,335 L 1446,335 L 1447,334 L 1485,334 L 1487,336 L 1486,337 L 1486,339 L 1485,340 L 1484,339 L 1484,337 L 1484,338 L 1483,339 L 1484,340 L 1485,340 L 1487,342 L 1486,343 L 1444,343 L 1442,341 Z M 1350,342 L 1351,341 L 1354,341 L 1354,337 L 1355,336 L 1369,336 L 1354,336 L 1353,337 L 1351,335 L 1352,334 L 1393,334 L 1394,335 L 1393,336 L 1373,336 L 1389,336 L 1390,337 L 1391,337 L 1392,336 L 1393,337 L 1393,336 L 1394,335 L 1395,336 L 1395,337 L 1396,338 L 1396,339 L 1395,340 L 1395,341 L 1393,343 L 1351,343 Z M 1258,338 L 1259,337 L 1259,336 L 1260,335 L 1261,336 L 1261,337 L 1263,337 L 1264,336 L 1264,335 L 1263,336 L 1261,336 L 1260,335 L 1261,334 L 1262,334 L 1263,333 L 1295,333 L 1298,336 L 1298,341 L 1297,342 L 1296,341 L 1296,339 L 1296,340 L 1295,341 L 1293,341 L 1293,342 L 1294,342 L 1295,343 L 1294,344 L 1263,344 L 1262,343 L 1261,343 L 1259,341 L 1259,340 L 1258,339 Z M 2111,329 L 2112,329 L 2113,330 L 2114,329 L 2115,330 L 2115,340 L 2114,341 L 2111,341 L 2110,340 L 2110,330 Z M 2107,328 L 2108,327 L 2114,327 L 2115,328 L 2114,329 L 2108,329 Z M 2106,327 L 2107,328 L 2107,340 L 2106,341 L 2105,340 L 2105,328 Z M 2086,327 L 2093,327 L 2094,328 L 2094,340 L 2093,341 L 2088,341 L 2087,340 L 2087,339 L 2087,340 L 2086,341 L 2085,340 L 2085,328 Z M 2055,328 L 2056,327 L 2073,327 L 2074,328 L 2074,341 L 2073,342 L 2072,341 L 2072,329 L 2057,329 L 2071,329 L 2072,330 L 2072,338 L 2071,339 L 2068,339 L 2069,340 L 2068,341 L 2058,341 L 2057,340 L 2057,339 L 2057,340 L 2056,341 L 2055,340 Z M 1626,315 L 1627,314 L 1732,314 L 1734,317 L 1733,318 L 1732,318 L 1732,319 L 1731,320 L 1730,319 L 1726,319 L 1726,320 L 1725,321 L 1639,321 L 1638,320 L 1639,319 L 1635,319 L 1636,319 L 1637,320 L 1636,321 L 1634,321 L 1633,320 L 1633,318 L 1632,317 L 1633,316 L 1731,316 L 1632,316 L 1631,317 L 1630,316 L 1627,316 Z M 674,310 L 675,311 L 675,315 L 676,314 L 677,315 L 678,314 L 679,315 L 679,317 L 677,319 L 674,319 L 673,318 L 673,311 Z M 1496,305 L 1498,303 L 1499,303 L 1500,304 L 1499,305 L 1502,305 L 1503,304 L 1504,304 L 1500,304 L 1499,303 L 1500,302 L 1540,302 L 1541,303 L 1540,304 L 1538,304 L 1538,305 L 1542,305 L 1543,304 L 1544,305 L 1544,306 L 1545,307 L 1545,309 L 1543,311 L 1542,310 L 1542,309 L 1541,310 L 1539,310 L 1542,310 L 1543,311 L 1542,312 L 1499,312 L 1498,311 L 1497,311 L 1496,310 Z M 1401,309 L 1402,308 L 1403,309 L 1402,308 L 1402,306 L 1403,305 L 1402,304 L 1404,302 L 1446,302 L 1447,303 L 1448,303 L 1450,305 L 1449,306 L 1448,306 L 1447,305 L 1446,306 L 1446,310 L 1447,310 L 1448,309 L 1448,307 L 1449,306 L 1450,307 L 1450,310 L 1448,312 L 1404,312 L 1403,311 L 1402,311 L 1401,310 Z M 1305,305 L 1307,303 L 1308,304 L 1312,304 L 1308,304 L 1307,303 L 1308,302 L 1351,302 L 1352,303 L 1351,304 L 1346,304 L 1351,304 L 1352,303 L 1354,305 L 1354,307 L 1355,308 L 1354,309 L 1354,310 L 1352,312 L 1308,312 L 1307,311 L 1306,311 L 1305,310 Z M 1005,304 L 1000,313 L 1001,317 L 994,319 L 902,319 L 901,318 L 867,319 L 866,318 L 867,317 L 870,317 L 868,315 L 869,313 L 866,313 L 866,317 L 865,318 L 864,317 L 864,312 L 862,311 L 849,311 L 848,312 L 831,312 L 830,311 L 829,312 L 828,311 L 824,311 L 823,312 L 684,311 L 680,314 L 679,312 L 676,311 L 677,307 L 864,307 L 864,301 L 866,298 L 867,299 L 866,305 L 867,302 L 868,305 L 869,305 L 869,302 L 867,301 L 866,298 L 869,295 L 870,296 L 874,296 L 875,295 L 994,295 L 996,294 L 997,297 L 994,298 L 997,297 L 999,299 L 1000,298 L 1001,299 L 1000,301 L 1001,300 Z M 872,294 L 873,293 L 994,293 L 995,294 L 994,295 L 873,295 Z M 835,268 L 837,270 L 837,271 L 837,270 L 838,269 L 839,270 L 839,275 L 838,276 L 837,275 L 837,273 L 837,274 L 835,276 L 834,275 L 834,269 Z M 820,267 L 821,266 L 825,266 L 826,267 L 826,270 L 825,271 L 821,271 L 820,270 Z M 644,265 L 645,264 L 647,264 L 649,266 L 680,266 L 683,264 L 786,264 L 789,266 L 807,266 L 808,267 L 807,268 L 801,268 L 806,268 L 807,269 L 807,268 L 808,267 L 809,268 L 810,271 L 809,272 L 808,271 L 806,273 L 806,275 L 805,276 L 801,276 L 806,276 L 806,273 L 807,272 L 808,273 L 808,277 L 807,278 L 649,278 L 648,277 L 648,275 L 647,274 L 647,273 L 648,272 L 648,269 L 649,268 L 650,268 L 648,268 L 647,269 L 646,268 L 646,267 L 646,270 L 645,271 L 644,270 Z M 682,223 L 683,222 L 709,222 L 710,223 L 710,225 L 712,227 L 759,227 L 763,222 L 785,222 L 786,223 L 786,250 L 785,251 L 784,250 L 784,248 L 784,249 L 783,250 L 689,250 L 687,248 L 685,248 L 684,247 L 685,246 L 686,246 L 686,244 L 687,243 L 687,242 L 686,241 L 686,231 L 685,231 L 684,230 L 684,225 L 685,224 L 684,224 L 684,238 L 684,232 L 685,231 L 686,232 L 686,242 L 685,243 L 684,242 L 684,241 L 684,249 L 683,250 L 682,249 Z" fill="black" fill-rule="evenodd"/>
</svg>