<svg xmlns="http://www.w3.org/2000/svg" width="2172" height="724" viewBox="0 0 2172 724">
<rect width="100%" height="100%" fill="white"/>
<path d="M 88,479 L 88,483 L 87,484 L 87,485 L 86,486 L 86,493 L 87,493 L 87,490 L 88,489 L 89,490 L 89,495 L 89,488 L 88,487 Z" fill="black" fill-rule="evenodd"/>
<path d="M 83,451 L 83,452 L 82,453 L 82,460 L 83,459 L 83,458 L 84,457 L 84,452 Z" fill="black" fill-rule="evenodd"/>
<path d="M 2035,339 L 2035,343 L 2036,344 L 2036,347 L 2037,347 L 2037,339 Z" fill="black" fill-rule="evenodd"/>
<path d="M 2037,261 L 2036,261 L 2037,262 L 2037,263 L 2036,264 L 2035,263 L 2035,267 L 2036,268 L 2036,272 L 2035,273 L 2035,280 L 2036,281 L 2037,280 Z" fill="black" fill-rule="evenodd"/>
<path d="M 68,400 L 72,393 L 88,463 L 90,536 L 115,545 L 288,495 L 292,511 L 319,507 L 306,493 L 560,404 L 572,411 L 570,433 L 603,447 L 829,411 L 868,387 L 1171,367 L 1235,349 L 1698,347 L 1702,356 L 1688,369 L 1692,362 L 1696,374 L 1723,368 L 1719,348 L 2032,349 L 2031,337 L 1895,339 L 1895,323 L 2094,323 L 2101,299 L 2035,297 L 2031,259 L 2010,260 L 2006,293 L 1997,294 L 2006,295 L 1716,288 L 1162,291 L 1148,275 L 1025,271 L 1017,277 L 1032,291 L 873,281 L 702,291 L 696,273 L 816,273 L 815,237 L 942,248 L 945,190 L 751,200 L 744,179 L 718,177 L 705,200 L 510,190 L 509,247 L 656,238 L 657,257 L 626,260 L 629,283 L 615,291 L 569,288 L 566,321 L 439,365 L 385,348 L 243,352 L 102,374 L 74,385 Z M 297,503 L 298,502 L 302,502 L 303,501 L 304,501 L 306,503 L 308,503 L 309,504 L 308,505 L 306,505 L 305,506 L 303,506 L 302,507 L 300,507 L 298,505 L 299,504 L 298,505 L 297,504 Z M 658,406 L 658,411 L 659,412 L 659,423 L 656,429 L 654,431 L 652,429 L 651,429 L 651,430 L 652,429 L 654,431 L 654,432 L 651,435 L 649,434 L 647,434 L 645,436 L 641,436 L 645,436 L 646,437 L 645,438 L 639,438 L 638,439 L 629,439 L 628,440 L 595,440 L 591,438 L 593,437 L 592,436 L 591,436 L 592,437 L 591,438 L 588,437 L 585,434 L 586,433 L 588,433 L 587,433 L 585,431 L 586,432 L 585,434 L 583,432 L 581,428 L 581,425 L 583,424 L 585,422 L 585,421 L 584,420 L 584,413 L 583,414 L 584,416 L 584,418 L 582,420 L 582,424 L 581,425 L 580,424 L 580,412 L 582,409 L 582,407 L 585,404 L 586,405 L 588,405 L 587,404 L 586,405 L 585,403 L 587,401 L 588,401 L 592,398 L 597,398 L 598,397 L 601,397 L 603,399 L 601,403 L 600,408 L 599,409 L 598,408 L 598,405 L 599,404 L 598,405 L 596,404 L 596,406 L 598,407 L 597,409 L 597,413 L 597,410 L 598,409 L 599,410 L 599,420 L 598,421 L 598,423 L 596,424 L 596,425 L 597,426 L 598,424 L 598,421 L 599,420 L 600,421 L 600,424 L 601,425 L 601,427 L 603,430 L 601,432 L 600,432 L 602,432 L 606,436 L 607,435 L 610,436 L 613,433 L 613,432 L 611,430 L 613,428 L 614,428 L 613,427 L 613,428 L 611,430 L 609,428 L 607,424 L 607,420 L 606,419 L 607,412 L 609,409 L 610,410 L 614,408 L 612,407 L 611,405 L 614,402 L 618,400 L 622,396 L 623,394 L 625,394 L 626,396 L 627,396 L 628,395 L 627,394 L 628,393 L 644,393 L 647,395 L 649,395 L 651,397 L 649,398 L 648,397 L 649,398 L 651,397 L 653,398 L 654,400 L 653,401 L 652,400 L 653,401 L 651,402 L 653,402 L 654,400 L 656,402 Z M 1698,368 L 1698,366 L 1699,365 L 1699,364 L 1700,363 L 1701,364 L 1702,363 L 1702,362 L 1703,361 L 1704,361 L 1705,362 L 1712,362 L 1713,363 L 1713,366 L 1712,367 L 1711,366 L 1711,364 L 1706,364 L 1710,364 L 1711,365 L 1710,366 L 1710,367 L 1709,368 L 1704,368 L 1703,369 L 1699,369 Z M 685,244 L 686,245 L 686,252 L 685,253 L 684,252 L 684,245 Z M 789,239 L 789,257 L 788,258 L 768,258 L 767,259 L 751,259 L 751,260 L 750,261 L 745,261 L 744,260 L 744,259 L 743,259 L 742,258 L 737,258 L 736,259 L 729,259 L 728,258 L 723,258 L 722,259 L 716,259 L 715,258 L 709,258 L 707,261 L 703,261 L 702,260 L 702,259 L 701,259 L 700,258 L 697,258 L 696,259 L 695,259 L 695,260 L 694,261 L 692,261 L 691,260 L 690,260 L 688,258 L 683,258 L 682,257 L 682,239 L 683,238 L 684,239 L 684,256 L 687,256 L 685,254 L 686,253 L 686,245 L 685,244 L 685,241 L 686,240 L 688,240 L 685,240 L 684,239 L 685,238 L 704,238 L 706,240 L 707,240 L 708,241 L 748,241 L 751,238 L 755,238 L 756,237 L 771,237 L 772,238 L 786,238 L 787,239 L 786,240 L 783,240 L 786,240 L 787,241 L 787,243 L 787,239 L 788,238 Z M 709,214 L 710,215 L 710,221 L 709,222 L 708,221 L 708,215 Z" fill="black" fill-rule="evenodd"/>
</svg>