<svg xmlns="http://www.w3.org/2000/svg" width="2172" height="724" viewBox="0 0 2172 724">
<rect width="100%" height="100%" fill="white"/>
<path d="M 673,314 L 672,315 L 672,316 L 671,317 L 671,319 L 670,320 L 670,333 L 671,334 L 671,336 L 672,337 L 672,338 L 673,339 L 674,339 L 674,314 Z" fill="black" fill-rule="evenodd"/>
<path d="M 1940,315 L 1858,305 L 1857,289 L 1800,305 L 1778,278 L 1739,291 L 1740,303 L 1778,305 L 1716,305 L 1703,281 L 1580,281 L 1570,304 L 1395,304 L 1477,300 L 1401,144 L 1349,139 L 1388,138 L 1380,92 L 1324,78 L 1210,86 L 1226,103 L 1212,137 L 1334,139 L 1177,138 L 1159,115 L 1148,141 L 1048,145 L 1008,164 L 1002,153 L 990,186 L 991,156 L 900,193 L 216,195 L 110,183 L 100,201 L 106,229 L 148,233 L 216,219 L 902,232 L 968,274 L 981,191 L 977,300 L 1141,301 L 822,301 L 819,284 L 786,284 L 785,301 L 710,350 L 691,344 L 699,319 L 677,312 L 677,364 L 560,399 L 516,467 L 546,467 L 594,411 L 654,399 L 903,428 L 1794,443 L 1806,480 L 1748,452 L 922,441 L 637,406 L 584,421 L 547,488 L 569,555 L 779,646 L 1602,646 L 1738,610 L 1804,573 L 1817,547 L 1809,505 L 1832,507 L 1852,482 L 1833,445 L 1895,424 L 1935,347 L 1916,319 Z M 912,630 L 913,629 L 916,629 L 917,628 L 920,628 L 921,629 L 921,630 L 920,631 L 913,631 Z M 1258,628 L 1255,631 L 1247,631 L 1246,630 L 1247,629 L 1250,629 L 1251,628 L 1254,628 L 1255,627 L 1257,627 Z M 1033,628 L 1032,629 L 1031,629 L 1029,631 L 1026,631 L 1025,630 L 1024,630 L 1023,629 L 1024,628 L 1028,628 L 1029,627 L 1032,627 Z M 1614,621 L 1615,620 L 1616,620 L 1617,621 L 1622,621 L 1623,622 L 1628,622 L 1629,623 L 1628,624 L 1626,624 L 1626,625 L 1625,626 L 1623,626 L 1622,625 L 1623,624 L 1624,624 L 1622,624 L 1621,623 L 1619,623 L 1621,623 L 1622,624 L 1622,625 L 1621,626 L 1620,625 L 1616,625 L 1615,624 L 1615,623 L 1614,622 Z M 1166,620 L 1166,624 L 1165,625 L 1165,627 L 1164,628 L 1163,628 L 1162,627 L 1163,626 L 1162,627 L 1163,628 L 1161,630 L 1160,630 L 1159,629 L 1158,629 L 1157,628 L 1156,628 L 1155,627 L 1154,627 L 1153,626 L 1154,625 L 1155,625 L 1156,624 L 1157,624 L 1158,623 L 1159,623 L 1160,624 L 1159,625 L 1160,624 L 1163,624 L 1162,623 L 1161,624 L 1160,624 L 1159,623 L 1161,621 L 1162,621 L 1163,620 L 1164,620 L 1165,619 Z M 866,619 L 868,617 L 869,617 L 870,618 L 872,618 L 873,619 L 875,619 L 876,620 L 879,620 L 880,621 L 885,621 L 886,622 L 906,622 L 907,621 L 911,621 L 912,620 L 915,620 L 916,619 L 918,619 L 919,620 L 919,621 L 918,622 L 916,622 L 915,623 L 912,623 L 911,624 L 905,624 L 904,625 L 886,625 L 885,624 L 880,624 L 879,623 L 877,623 L 876,622 L 873,622 L 872,621 L 870,621 L 869,620 L 867,620 Z M 1543,617 L 1544,616 L 1545,617 L 1546,617 L 1547,618 L 1549,618 L 1550,619 L 1553,619 L 1554,620 L 1556,620 L 1557,621 L 1562,621 L 1563,622 L 1584,622 L 1585,621 L 1589,621 L 1590,620 L 1592,620 L 1593,619 L 1596,619 L 1597,618 L 1598,618 L 1599,617 L 1601,617 L 1603,619 L 1602,620 L 1601,620 L 1600,621 L 1598,621 L 1597,622 L 1594,622 L 1593,623 L 1590,623 L 1589,624 L 1584,624 L 1583,625 L 1562,625 L 1561,624 L 1557,624 L 1556,623 L 1554,623 L 1553,622 L 1550,622 L 1549,621 L 1547,621 L 1545,619 L 1544,619 L 1543,618 Z M 1377,617 L 1377,619 L 1376,620 L 1374,620 L 1373,621 L 1371,621 L 1370,622 L 1367,622 L 1366,623 L 1363,623 L 1362,624 L 1357,624 L 1356,625 L 1338,625 L 1337,624 L 1332,624 L 1331,623 L 1328,623 L 1327,622 L 1325,622 L 1324,621 L 1322,621 L 1321,620 L 1320,620 L 1319,619 L 1318,619 L 1317,618 L 1318,617 L 1320,617 L 1321,618 L 1323,618 L 1324,619 L 1327,619 L 1328,620 L 1331,620 L 1332,621 L 1336,621 L 1337,622 L 1358,622 L 1359,621 L 1363,621 L 1364,620 L 1366,620 L 1367,619 L 1369,619 L 1370,618 L 1372,618 L 1373,617 L 1375,617 L 1376,616 Z M 1091,617 L 1092,616 L 1093,616 L 1094,617 L 1095,617 L 1096,618 L 1098,618 L 1099,619 L 1101,619 L 1102,620 L 1105,620 L 1106,621 L 1110,621 L 1111,622 L 1131,622 L 1132,621 L 1137,621 L 1138,620 L 1140,620 L 1141,619 L 1143,619 L 1145,621 L 1144,622 L 1141,622 L 1140,623 L 1137,623 L 1136,624 L 1131,624 L 1130,625 L 1112,625 L 1111,624 L 1106,624 L 1105,623 L 1102,623 L 1101,622 L 1098,622 L 1097,621 L 1096,621 L 1095,620 L 1093,620 L 1091,618 Z M 925,617 L 925,619 L 924,620 L 923,620 L 922,621 L 920,621 L 918,619 L 919,618 L 920,618 L 921,617 L 923,617 L 924,616 Z M 1523,616 L 1524,615 L 1525,616 L 1526,616 L 1528,618 L 1529,618 L 1531,620 L 1532,620 L 1533,621 L 1534,621 L 1536,623 L 1537,623 L 1539,625 L 1538,626 L 1538,627 L 1537,628 L 1535,628 L 1533,630 L 1530,630 L 1529,629 L 1530,628 L 1532,628 L 1530,628 L 1529,629 L 1528,629 L 1527,628 L 1526,628 L 1524,626 L 1524,618 L 1523,617 Z M 740,616 L 742,614 L 743,615 L 744,615 L 746,617 L 745,618 L 746,617 L 747,618 L 748,618 L 749,619 L 750,619 L 751,620 L 750,621 L 748,621 L 747,622 L 746,622 L 745,621 L 744,621 L 742,619 L 742,618 Z M 957,615 L 959,613 L 960,613 L 964,617 L 965,617 L 967,619 L 966,620 L 967,619 L 968,619 L 969,620 L 970,620 L 971,621 L 972,621 L 973,622 L 973,627 L 972,628 L 971,628 L 969,630 L 965,630 L 962,627 L 961,627 L 960,626 L 960,618 L 959,617 L 959,616 L 958,616 Z M 1045,622 L 1047,620 L 1048,620 L 1049,619 L 1050,619 L 1052,617 L 1053,617 L 1055,615 L 1056,615 L 1059,612 L 1060,612 L 1062,610 L 1063,610 L 1064,611 L 1063,612 L 1064,613 L 1067,613 L 1068,612 L 1069,613 L 1070,613 L 1072,615 L 1073,615 L 1075,617 L 1076,617 L 1079,620 L 1078,621 L 1077,621 L 1078,621 L 1079,620 L 1080,620 L 1081,621 L 1082,621 L 1083,622 L 1084,622 L 1085,623 L 1085,625 L 1084,626 L 1085,627 L 1084,628 L 1083,628 L 1081,630 L 1076,630 L 1074,628 L 1073,628 L 1072,627 L 1072,625 L 1071,624 L 1071,619 L 1070,618 L 1070,616 L 1069,615 L 1064,615 L 1063,616 L 1062,616 L 1062,617 L 1061,618 L 1061,620 L 1060,621 L 1060,626 L 1058,628 L 1057,628 L 1055,630 L 1051,630 L 1049,628 L 1047,628 L 1046,627 L 1046,624 L 1045,623 Z M 856,622 L 855,623 L 855,627 L 854,628 L 853,628 L 851,630 L 849,630 L 848,629 L 847,629 L 846,628 L 845,628 L 843,626 L 843,621 L 842,620 L 842,617 L 841,616 L 836,616 L 834,618 L 834,619 L 833,620 L 833,624 L 832,625 L 832,627 L 831,628 L 829,628 L 828,629 L 827,628 L 825,628 L 824,629 L 822,629 L 820,627 L 820,623 L 821,622 L 822,622 L 823,621 L 824,621 L 826,619 L 827,619 L 828,618 L 829,618 L 830,619 L 829,620 L 831,620 L 829,618 L 831,616 L 832,616 L 835,613 L 836,613 L 837,614 L 841,614 L 837,614 L 836,613 L 838,611 L 838,610 L 839,609 L 840,610 L 841,610 L 846,615 L 847,615 L 849,617 L 848,618 L 847,618 L 847,619 L 849,619 L 848,618 L 849,617 L 850,617 L 852,619 L 853,619 Z M 1524,615 L 1523,616 L 1521,616 L 1519,614 L 1517,614 L 1519,614 L 1520,615 L 1519,616 L 1517,616 L 1516,617 L 1515,617 L 1515,619 L 1514,620 L 1514,626 L 1512,628 L 1511,628 L 1510,629 L 1509,629 L 1508,630 L 1504,630 L 1503,629 L 1501,629 L 1499,627 L 1499,621 L 1502,618 L 1503,618 L 1505,616 L 1506,616 L 1508,614 L 1509,614 L 1511,612 L 1512,612 L 1516,608 L 1521,613 L 1522,613 Z M 1271,622 L 1273,620 L 1274,620 L 1276,618 L 1277,618 L 1279,616 L 1280,616 L 1282,614 L 1283,614 L 1285,612 L 1286,612 L 1288,610 L 1289,610 L 1289,609 L 1290,608 L 1295,613 L 1294,614 L 1295,613 L 1296,613 L 1298,615 L 1299,615 L 1302,618 L 1303,618 L 1305,620 L 1306,620 L 1307,621 L 1308,621 L 1310,623 L 1310,627 L 1309,628 L 1307,628 L 1305,630 L 1301,630 L 1299,628 L 1298,628 L 1296,626 L 1296,620 L 1295,619 L 1295,616 L 1293,616 L 1292,615 L 1290,615 L 1289,616 L 1288,616 L 1286,618 L 1286,625 L 1285,626 L 1285,627 L 1284,628 L 1282,628 L 1281,627 L 1282,628 L 1280,630 L 1276,630 L 1274,628 L 1273,628 L 1272,627 L 1272,626 L 1271,625 Z M 955,609 L 959,613 L 957,615 L 954,615 L 953,616 L 952,616 L 951,617 L 950,616 L 951,617 L 951,622 L 950,623 L 950,626 L 949,627 L 948,627 L 945,630 L 941,630 L 940,629 L 939,629 L 937,627 L 937,624 L 936,623 L 936,621 L 937,620 L 938,620 L 940,618 L 941,618 L 944,615 L 945,615 L 948,612 L 949,612 L 953,608 L 954,609 Z M 1389,620 L 1390,619 L 1391,619 L 1393,617 L 1394,617 L 1395,618 L 1394,617 L 1397,614 L 1398,614 L 1405,607 L 1406,608 L 1406,609 L 1409,612 L 1410,612 L 1414,616 L 1415,616 L 1417,618 L 1418,618 L 1419,619 L 1420,619 L 1421,620 L 1422,620 L 1423,621 L 1424,621 L 1426,623 L 1426,627 L 1425,628 L 1424,628 L 1423,629 L 1422,628 L 1418,628 L 1417,629 L 1415,627 L 1414,627 L 1413,626 L 1413,620 L 1412,619 L 1412,617 L 1410,615 L 1407,615 L 1406,616 L 1405,616 L 1403,618 L 1403,626 L 1402,627 L 1401,627 L 1398,630 L 1394,630 L 1393,629 L 1394,628 L 1397,628 L 1394,628 L 1393,629 L 1392,629 L 1391,628 L 1390,628 L 1389,627 Z M 1171,615 L 1179,607 L 1180,608 L 1180,609 L 1182,611 L 1183,611 L 1185,613 L 1186,613 L 1189,616 L 1190,616 L 1193,619 L 1194,619 L 1195,620 L 1196,620 L 1197,621 L 1198,621 L 1199,622 L 1199,627 L 1198,628 L 1196,628 L 1194,630 L 1190,630 L 1189,629 L 1189,628 L 1186,628 L 1185,629 L 1180,629 L 1179,628 L 1178,628 L 1176,626 L 1176,617 L 1175,616 L 1172,616 Z M 1643,605 L 1644,606 L 1644,608 L 1645,609 L 1645,614 L 1644,615 L 1643,615 L 1642,614 L 1643,613 L 1642,613 L 1641,612 L 1641,610 L 1640,609 L 1640,607 L 1641,606 L 1642,606 Z M 727,599 L 730,602 L 730,603 L 733,606 L 733,607 L 732,608 L 732,610 L 730,612 L 727,612 L 726,613 L 724,613 L 722,611 L 721,611 L 720,610 L 721,609 L 720,608 L 720,607 L 719,606 L 719,604 L 720,603 L 720,601 L 721,600 L 722,601 L 722,602 L 723,601 L 724,602 L 725,601 L 726,601 L 726,600 Z M 1060,603 L 1060,604 L 1059,605 L 1055,601 L 1054,601 L 1053,602 L 1052,602 L 1049,605 L 1048,605 L 1045,608 L 1044,608 L 1043,609 L 1042,609 L 1041,610 L 1040,610 L 1039,611 L 1038,611 L 1037,612 L 1036,612 L 1035,613 L 1033,613 L 1032,612 L 1033,611 L 1034,611 L 1035,610 L 1036,610 L 1037,609 L 1038,609 L 1039,608 L 1040,608 L 1041,607 L 1042,607 L 1044,605 L 1045,605 L 1047,603 L 1048,603 L 1053,598 L 1053,597 L 1054,596 L 1057,599 L 1057,600 Z M 960,599 L 963,596 L 964,597 L 964,598 L 968,602 L 969,602 L 972,605 L 973,605 L 974,606 L 975,606 L 976,607 L 977,607 L 978,608 L 979,608 L 980,609 L 981,609 L 982,610 L 983,610 L 984,611 L 985,611 L 986,612 L 988,612 L 989,613 L 991,613 L 992,614 L 996,614 L 997,615 L 1003,615 L 1004,616 L 1014,616 L 1015,615 L 1021,615 L 1022,614 L 1025,614 L 1026,613 L 1029,613 L 1030,612 L 1032,612 L 1033,613 L 1032,614 L 1031,614 L 1030,615 L 1028,615 L 1027,616 L 1024,616 L 1023,617 L 1018,617 L 1017,618 L 1000,618 L 999,617 L 995,617 L 994,616 L 991,616 L 990,615 L 987,615 L 986,614 L 985,614 L 984,613 L 983,613 L 982,612 L 980,612 L 979,611 L 978,611 L 977,610 L 976,610 L 975,609 L 974,609 L 972,607 L 971,607 L 968,604 L 967,604 L 963,600 L 962,600 L 961,601 L 960,600 Z M 740,595 L 741,594 L 746,599 L 747,599 L 752,604 L 753,604 L 755,606 L 756,606 L 757,607 L 758,607 L 759,608 L 760,608 L 761,609 L 762,609 L 763,610 L 764,610 L 765,611 L 767,611 L 768,612 L 770,612 L 771,613 L 773,613 L 774,614 L 778,614 L 779,615 L 800,615 L 801,614 L 804,614 L 805,613 L 807,613 L 808,612 L 810,612 L 811,611 L 813,611 L 814,610 L 815,610 L 816,609 L 817,609 L 818,608 L 819,608 L 821,606 L 822,606 L 825,603 L 826,603 L 828,601 L 829,601 L 830,602 L 826,606 L 825,606 L 822,609 L 821,609 L 820,610 L 819,610 L 818,611 L 817,611 L 816,612 L 815,612 L 814,613 L 812,613 L 811,614 L 810,614 L 809,615 L 807,615 L 806,616 L 803,616 L 802,617 L 798,617 L 797,618 L 781,618 L 780,617 L 775,617 L 774,616 L 772,616 L 771,615 L 768,615 L 767,614 L 765,614 L 764,613 L 763,613 L 762,612 L 761,612 L 760,611 L 759,611 L 758,610 L 757,610 L 755,608 L 754,608 L 752,606 L 751,606 L 748,603 L 747,603 L 740,596 Z M 1722,587 L 1723,586 L 1724,587 L 1726,587 L 1727,588 L 1732,588 L 1733,589 L 1734,589 L 1735,590 L 1735,593 L 1734,594 L 1732,594 L 1731,593 L 1732,592 L 1733,592 L 1731,592 L 1730,593 L 1729,593 L 1728,594 L 1726,594 L 1725,593 L 1725,592 L 1724,591 L 1724,590 L 1725,589 L 1724,590 L 1722,588 Z M 622,571 L 623,570 L 629,570 L 632,573 L 632,574 L 631,575 L 630,574 L 629,574 L 628,573 L 627,573 L 626,572 L 623,572 Z M 671,575 L 670,576 L 669,576 L 668,577 L 667,577 L 667,578 L 663,582 L 663,583 L 661,585 L 660,584 L 659,584 L 657,586 L 656,585 L 655,585 L 654,584 L 654,581 L 653,580 L 655,578 L 655,577 L 656,576 L 656,575 L 657,574 L 655,572 L 653,572 L 652,571 L 651,572 L 650,572 L 648,574 L 648,575 L 644,579 L 641,579 L 640,578 L 640,577 L 641,576 L 641,574 L 642,573 L 642,572 L 644,570 L 650,570 L 651,569 L 655,569 L 656,568 L 657,568 L 658,567 L 661,567 L 663,569 L 663,570 L 664,571 L 664,572 L 666,574 L 670,574 Z M 1785,565 L 1786,566 L 1779,573 L 1778,573 L 1777,572 L 1784,565 Z M 1690,562 L 1692,564 L 1692,565 L 1695,568 L 1695,569 L 1694,570 L 1695,569 L 1699,573 L 1700,573 L 1704,577 L 1705,577 L 1707,579 L 1708,579 L 1710,581 L 1711,581 L 1712,582 L 1713,582 L 1714,583 L 1715,583 L 1716,584 L 1714,586 L 1713,586 L 1712,587 L 1712,592 L 1713,593 L 1713,598 L 1712,599 L 1711,599 L 1708,602 L 1707,602 L 1706,601 L 1704,601 L 1703,600 L 1704,599 L 1705,599 L 1704,598 L 1704,599 L 1703,600 L 1702,599 L 1702,598 L 1700,596 L 1700,595 L 1699,594 L 1699,593 L 1697,591 L 1696,591 L 1695,590 L 1694,590 L 1693,591 L 1692,591 L 1691,592 L 1690,592 L 1689,593 L 1689,598 L 1690,599 L 1690,603 L 1688,605 L 1688,607 L 1687,608 L 1684,608 L 1683,607 L 1684,606 L 1686,606 L 1684,606 L 1683,607 L 1679,607 L 1678,606 L 1677,606 L 1676,605 L 1676,604 L 1675,603 L 1675,601 L 1674,600 L 1674,598 L 1675,597 L 1675,596 L 1677,594 L 1677,593 L 1678,592 L 1678,590 L 1679,589 L 1679,588 L 1680,587 L 1680,586 L 1681,585 L 1681,584 L 1682,583 L 1682,581 L 1683,580 L 1683,579 L 1684,578 L 1684,577 L 1685,576 L 1685,575 L 1686,574 L 1686,572 L 1687,571 L 1687,569 L 1688,568 L 1688,566 L 1689,565 L 1689,563 Z M 636,557 L 639,557 L 642,560 L 642,561 L 639,564 L 635,564 L 634,563 L 634,562 L 633,561 L 633,560 Z M 1793,555 L 1794,556 L 1794,557 L 1793,558 L 1793,559 L 1792,560 L 1792,561 L 1790,563 L 1790,564 L 1787,567 L 1785,565 L 1788,562 L 1788,561 L 1791,558 L 1791,557 Z M 646,554 L 647,554 L 648,555 L 648,562 L 647,563 L 644,563 L 643,562 L 643,556 L 644,555 L 645,555 Z M 724,553 L 725,554 L 725,559 L 726,560 L 726,563 L 727,564 L 727,568 L 728,569 L 728,571 L 729,572 L 729,573 L 730,574 L 730,576 L 731,577 L 731,578 L 732,579 L 732,580 L 733,581 L 733,582 L 735,584 L 735,585 L 736,586 L 736,587 L 738,589 L 738,590 L 741,593 L 741,594 L 740,595 L 735,590 L 735,589 L 733,587 L 733,586 L 732,585 L 732,584 L 730,582 L 730,581 L 729,580 L 729,579 L 728,578 L 728,576 L 727,575 L 727,573 L 726,572 L 726,570 L 725,569 L 725,567 L 724,566 L 724,563 L 723,562 L 723,554 Z M 1738,552 L 1746,552 L 1750,556 L 1750,557 L 1751,558 L 1751,559 L 1752,560 L 1752,562 L 1753,563 L 1753,564 L 1754,565 L 1754,570 L 1751,573 L 1749,573 L 1748,572 L 1746,572 L 1748,572 L 1749,573 L 1748,574 L 1736,574 L 1735,573 L 1733,573 L 1731,571 L 1731,570 L 1730,569 L 1730,567 L 1731,566 L 1731,564 L 1732,563 L 1733,564 L 1733,565 L 1733,564 L 1732,563 L 1732,561 L 1733,560 L 1733,559 L 1734,558 L 1734,557 L 1735,556 L 1735,555 Z M 601,546 L 602,546 L 603,547 L 604,547 L 607,550 L 607,552 L 605,554 L 605,555 L 604,556 L 601,556 L 598,553 L 598,549 Z M 1734,545 L 1735,544 L 1739,544 L 1740,545 L 1743,545 L 1744,544 L 1747,544 L 1748,545 L 1747,546 L 1746,546 L 1745,547 L 1738,547 L 1737,546 L 1735,546 Z M 1763,540 L 1772,540 L 1773,541 L 1774,541 L 1775,542 L 1776,542 L 1777,543 L 1778,543 L 1779,544 L 1779,545 L 1780,546 L 1780,547 L 1781,548 L 1781,551 L 1780,552 L 1780,553 L 1779,554 L 1779,555 L 1775,559 L 1775,560 L 1774,561 L 1773,561 L 1771,563 L 1770,562 L 1770,561 L 1769,562 L 1768,562 L 1770,562 L 1771,563 L 1770,564 L 1767,564 L 1766,563 L 1765,563 L 1762,560 L 1762,559 L 1763,558 L 1762,559 L 1761,558 L 1761,557 L 1760,556 L 1760,555 L 1759,554 L 1759,553 L 1758,552 L 1758,546 L 1762,542 L 1762,541 Z M 1720,540 L 1721,541 L 1721,542 L 1720,543 L 1719,542 L 1717,542 L 1719,542 L 1720,543 L 1721,542 L 1725,546 L 1725,547 L 1726,548 L 1726,550 L 1725,551 L 1725,553 L 1724,554 L 1724,556 L 1723,557 L 1723,558 L 1722,559 L 1722,560 L 1721,561 L 1721,562 L 1719,564 L 1718,564 L 1717,565 L 1714,565 L 1713,564 L 1712,564 L 1709,561 L 1708,561 L 1706,559 L 1706,558 L 1703,555 L 1703,554 L 1702,553 L 1702,549 L 1703,548 L 1703,547 L 1708,542 L 1711,542 L 1712,541 L 1714,541 L 1715,540 Z M 640,544 L 640,541 L 642,539 L 643,539 L 645,537 L 646,537 L 647,536 L 649,536 L 650,535 L 661,535 L 662,536 L 662,537 L 663,538 L 663,541 L 661,543 L 661,544 L 659,546 L 658,546 L 657,547 L 656,547 L 655,548 L 653,548 L 652,549 L 649,549 L 648,548 L 646,548 L 645,549 L 644,549 L 641,546 L 641,545 Z M 598,530 L 599,529 L 600,529 L 601,528 L 604,528 L 605,527 L 607,527 L 608,528 L 609,528 L 610,529 L 611,529 L 613,531 L 614,531 L 616,533 L 615,534 L 616,533 L 617,533 L 619,535 L 620,535 L 621,536 L 623,536 L 624,537 L 624,540 L 623,541 L 623,542 L 622,543 L 622,544 L 620,546 L 619,546 L 618,545 L 619,546 L 618,547 L 616,547 L 615,546 L 613,546 L 612,545 L 611,545 L 610,544 L 609,544 L 608,543 L 607,543 L 602,538 L 601,538 L 600,537 L 600,536 L 598,534 Z M 712,526 L 713,527 L 713,528 L 712,529 L 712,532 L 711,533 L 707,533 L 705,535 L 704,535 L 702,538 L 702,540 L 706,546 L 706,550 L 709,550 L 710,551 L 710,559 L 711,560 L 711,563 L 712,564 L 712,568 L 713,569 L 713,571 L 714,572 L 714,575 L 715,576 L 715,578 L 716,579 L 716,580 L 718,583 L 718,585 L 719,586 L 719,587 L 721,589 L 722,592 L 724,594 L 724,595 L 727,598 L 727,599 L 726,600 L 725,599 L 724,600 L 722,600 L 721,599 L 721,597 L 719,595 L 718,595 L 717,594 L 713,594 L 712,595 L 712,596 L 711,597 L 711,598 L 710,599 L 710,600 L 708,603 L 704,603 L 703,604 L 700,604 L 699,603 L 699,601 L 696,598 L 696,597 L 697,596 L 697,592 L 698,591 L 698,587 L 697,586 L 696,586 L 693,584 L 692,584 L 689,587 L 689,588 L 687,591 L 687,593 L 686,594 L 683,594 L 682,593 L 679,593 L 682,593 L 683,594 L 681,596 L 680,595 L 678,595 L 676,593 L 676,592 L 674,590 L 674,586 L 675,585 L 675,582 L 676,581 L 676,579 L 674,577 L 675,576 L 674,577 L 673,577 L 671,575 L 672,574 L 671,574 L 670,573 L 670,565 L 672,562 L 673,563 L 674,563 L 673,562 L 675,560 L 677,562 L 677,563 L 678,563 L 682,567 L 683,567 L 687,563 L 686,562 L 686,561 L 687,560 L 686,561 L 685,560 L 685,559 L 684,558 L 683,555 L 690,548 L 691,548 L 692,549 L 694,549 L 695,550 L 698,550 L 699,551 L 700,551 L 701,550 L 701,549 L 703,547 L 703,546 L 702,546 L 700,544 L 700,542 L 699,541 L 699,538 L 700,537 L 701,534 L 703,532 L 703,531 L 707,527 L 711,527 Z M 581,519 L 582,520 L 582,521 L 581,522 L 582,521 L 583,522 L 583,523 L 585,525 L 585,529 L 584,530 L 583,530 L 582,531 L 581,531 L 580,530 L 580,532 L 579,533 L 577,533 L 573,529 L 573,528 L 572,527 L 572,525 L 571,524 L 571,523 L 572,522 L 573,522 L 574,521 L 577,521 L 579,519 L 580,520 Z M 686,516 L 687,517 L 686,518 L 686,519 L 685,520 L 685,521 L 684,522 L 684,523 L 680,527 L 678,525 L 678,519 L 679,518 L 680,519 L 680,521 L 682,521 L 683,520 L 683,519 L 680,519 L 679,518 L 680,517 L 683,517 L 684,516 Z M 697,515 L 701,519 L 700,520 L 700,522 L 699,523 L 699,525 L 698,526 L 698,527 L 697,528 L 697,529 L 695,531 L 695,532 L 690,537 L 687,537 L 684,534 L 684,531 L 685,530 L 685,529 L 686,528 L 687,529 L 688,528 L 687,527 L 687,526 L 688,525 L 689,526 L 691,524 L 691,523 L 692,522 L 691,523 L 690,522 L 690,520 L 691,519 L 691,518 L 692,517 L 693,518 L 692,517 L 693,516 L 694,516 L 695,515 L 696,516 Z M 1730,514 L 1731,515 L 1727,519 L 1727,520 L 1726,521 L 1726,522 L 1725,523 L 1725,526 L 1724,527 L 1724,529 L 1723,530 L 1722,529 L 1722,525 L 1723,524 L 1723,522 L 1724,521 L 1724,520 L 1725,519 L 1725,518 L 1729,514 Z M 1701,510 L 1707,510 L 1708,511 L 1707,512 L 1706,512 L 1707,512 L 1708,511 L 1709,511 L 1710,512 L 1711,512 L 1712,513 L 1713,513 L 1716,516 L 1716,517 L 1717,518 L 1717,519 L 1716,520 L 1717,519 L 1718,520 L 1718,522 L 1717,523 L 1717,527 L 1716,528 L 1716,529 L 1714,531 L 1712,531 L 1711,532 L 1710,532 L 1709,533 L 1706,533 L 1705,534 L 1702,534 L 1701,533 L 1699,533 L 1696,530 L 1696,529 L 1695,528 L 1695,522 L 1696,521 L 1696,517 L 1697,516 L 1697,515 L 1698,514 L 1698,513 Z M 570,512 L 572,510 L 575,510 L 577,512 L 577,514 L 576,515 L 571,515 L 570,514 Z M 1778,509 L 1780,509 L 1781,510 L 1782,510 L 1785,513 L 1785,515 L 1786,516 L 1786,517 L 1787,518 L 1787,523 L 1788,524 L 1788,527 L 1787,528 L 1787,529 L 1784,532 L 1783,532 L 1782,533 L 1778,533 L 1777,532 L 1773,532 L 1772,531 L 1771,531 L 1770,530 L 1769,530 L 1766,527 L 1766,524 L 1765,523 L 1765,519 L 1766,518 L 1766,517 L 1769,514 L 1770,514 L 1773,511 L 1774,511 L 1775,510 L 1776,510 L 1777,511 L 1779,511 L 1778,511 L 1777,510 Z M 718,504 L 719,505 L 718,506 L 717,506 L 718,506 L 719,507 L 718,508 L 716,508 L 715,507 L 716,508 L 715,509 L 715,510 L 714,511 L 714,514 L 715,515 L 715,516 L 716,516 L 717,517 L 716,518 L 716,519 L 715,520 L 715,521 L 714,522 L 710,518 L 710,510 L 711,509 L 711,507 L 712,506 L 713,506 L 714,505 L 715,505 L 716,504 Z M 1687,498 L 1688,499 L 1688,500 L 1687,501 L 1687,502 L 1686,503 L 1686,504 L 1685,505 L 1685,506 L 1684,507 L 1684,508 L 1683,509 L 1683,511 L 1682,512 L 1682,514 L 1681,515 L 1681,519 L 1680,520 L 1680,528 L 1679,529 L 1679,530 L 1680,531 L 1680,539 L 1681,540 L 1681,544 L 1680,545 L 1679,544 L 1679,541 L 1678,540 L 1678,536 L 1677,535 L 1677,524 L 1678,523 L 1678,518 L 1679,517 L 1679,514 L 1680,513 L 1680,511 L 1681,510 L 1681,508 L 1682,507 L 1682,506 L 1683,505 L 1683,504 L 1684,503 L 1684,502 L 1685,501 L 1685,500 Z M 1637,495 L 1641,499 L 1641,500 L 1644,503 L 1644,504 L 1645,505 L 1645,506 L 1647,508 L 1647,509 L 1648,510 L 1648,511 L 1649,512 L 1649,513 L 1650,514 L 1650,515 L 1651,516 L 1651,517 L 1652,518 L 1652,520 L 1653,521 L 1653,523 L 1654,524 L 1654,526 L 1655,527 L 1655,530 L 1656,531 L 1656,535 L 1657,536 L 1657,559 L 1656,560 L 1656,566 L 1655,567 L 1655,570 L 1654,571 L 1654,573 L 1653,574 L 1653,576 L 1652,577 L 1652,579 L 1651,580 L 1651,581 L 1650,582 L 1650,584 L 1649,585 L 1649,586 L 1647,588 L 1647,589 L 1646,590 L 1646,591 L 1645,592 L 1645,593 L 1643,595 L 1643,596 L 1641,598 L 1641,599 L 1637,603 L 1637,604 L 1629,612 L 1628,612 L 1627,611 L 1631,607 L 1631,606 L 1637,600 L 1637,599 L 1640,596 L 1640,595 L 1642,593 L 1642,592 L 1643,591 L 1643,590 L 1644,589 L 1644,588 L 1645,587 L 1645,586 L 1646,585 L 1646,584 L 1647,583 L 1647,582 L 1648,581 L 1648,580 L 1649,579 L 1649,577 L 1650,576 L 1650,573 L 1651,572 L 1651,571 L 1652,570 L 1652,567 L 1653,566 L 1653,563 L 1654,562 L 1654,552 L 1655,551 L 1655,542 L 1654,541 L 1654,535 L 1653,534 L 1653,530 L 1652,529 L 1652,527 L 1651,526 L 1651,523 L 1650,522 L 1650,521 L 1649,520 L 1649,518 L 1648,517 L 1648,516 L 1647,515 L 1647,514 L 1646,513 L 1646,512 L 1645,511 L 1645,510 L 1644,509 L 1644,508 L 1643,507 L 1643,506 L 1641,504 L 1641,503 L 1639,501 L 1639,500 L 1636,497 L 1636,496 Z M 1288,490 L 1289,491 L 1288,492 L 1288,493 L 1283,498 L 1282,497 L 1282,496 L 1284,494 L 1284,493 L 1287,490 Z M 1045,490 L 1046,490 L 1047,491 L 1048,491 L 1050,493 L 1051,493 L 1054,496 L 1055,496 L 1056,497 L 1057,496 L 1058,497 L 1058,498 L 1056,500 L 1056,501 L 1054,503 L 1054,504 L 1052,506 L 1052,507 L 1050,509 L 1050,510 L 1049,511 L 1049,512 L 1048,513 L 1048,514 L 1047,515 L 1047,516 L 1046,517 L 1046,519 L 1045,520 L 1045,521 L 1044,522 L 1044,524 L 1043,525 L 1043,528 L 1042,529 L 1042,531 L 1041,532 L 1041,537 L 1040,538 L 1040,559 L 1041,560 L 1041,566 L 1042,567 L 1042,570 L 1043,571 L 1043,573 L 1044,574 L 1044,576 L 1045,577 L 1045,579 L 1046,580 L 1046,581 L 1047,582 L 1047,584 L 1048,585 L 1048,586 L 1049,587 L 1049,588 L 1050,589 L 1050,590 L 1051,591 L 1051,592 L 1050,593 L 1048,591 L 1048,590 L 1047,589 L 1047,588 L 1046,587 L 1046,586 L 1045,585 L 1045,584 L 1044,583 L 1044,582 L 1043,581 L 1043,579 L 1042,578 L 1042,576 L 1041,575 L 1041,573 L 1040,572 L 1040,569 L 1039,568 L 1039,564 L 1038,563 L 1038,558 L 1037,557 L 1037,542 L 1038,541 L 1038,536 L 1039,535 L 1039,530 L 1040,529 L 1040,526 L 1041,525 L 1041,523 L 1042,522 L 1042,521 L 1043,520 L 1043,518 L 1044,517 L 1044,516 L 1045,515 L 1045,514 L 1046,513 L 1046,512 L 1047,511 L 1047,510 L 1048,509 L 1048,508 L 1049,507 L 1049,506 L 1050,505 L 1050,504 L 1052,502 L 1052,501 L 1054,499 L 1051,496 L 1050,496 L 1047,493 L 1046,493 L 1044,491 Z M 755,490 L 756,491 L 753,494 L 752,494 L 749,497 L 748,497 L 741,504 L 741,505 L 738,508 L 738,509 L 736,511 L 736,512 L 734,514 L 734,515 L 733,516 L 733,517 L 732,518 L 732,519 L 731,520 L 731,521 L 730,522 L 730,524 L 729,525 L 729,526 L 728,527 L 728,529 L 727,530 L 727,532 L 726,533 L 726,538 L 725,539 L 725,544 L 724,545 L 723,544 L 723,536 L 724,535 L 724,532 L 725,531 L 725,528 L 726,527 L 726,525 L 727,524 L 727,522 L 728,521 L 728,520 L 729,519 L 729,517 L 731,515 L 731,514 L 732,513 L 732,512 L 734,510 L 734,509 L 738,505 L 738,504 L 749,493 L 750,493 L 752,491 L 753,491 L 754,490 Z M 678,490 L 681,490 L 682,491 L 683,491 L 684,490 L 685,490 L 687,492 L 687,500 L 686,501 L 686,502 L 683,505 L 677,505 L 675,503 L 675,492 L 676,491 L 677,491 Z M 1064,488 L 1065,489 L 1064,490 L 1064,491 L 1058,497 L 1057,496 L 1057,495 L 1062,490 L 1062,489 L 1063,488 Z M 599,490 L 599,491 L 600,492 L 600,499 L 596,503 L 594,503 L 593,504 L 590,504 L 589,503 L 584,503 L 583,504 L 582,504 L 581,503 L 581,497 L 582,496 L 582,493 L 585,490 L 586,490 L 588,488 L 596,488 L 597,489 L 598,489 Z M 1750,486 L 1751,486 L 1752,485 L 1756,485 L 1757,486 L 1756,487 L 1754,487 L 1756,487 L 1757,486 L 1759,486 L 1760,487 L 1761,487 L 1762,488 L 1763,488 L 1764,489 L 1765,489 L 1769,493 L 1769,494 L 1770,495 L 1770,498 L 1769,499 L 1769,500 L 1768,501 L 1768,502 L 1764,506 L 1763,506 L 1762,507 L 1760,507 L 1759,508 L 1756,508 L 1755,507 L 1754,507 L 1753,506 L 1752,506 L 1751,505 L 1750,505 L 1748,503 L 1748,502 L 1747,501 L 1747,499 L 1746,498 L 1746,494 L 1747,493 L 1747,490 L 1748,489 L 1748,488 Z M 1732,485 L 1733,486 L 1732,487 L 1728,487 L 1732,487 L 1733,486 L 1735,488 L 1735,490 L 1736,491 L 1736,501 L 1735,502 L 1735,503 L 1732,506 L 1731,506 L 1730,507 L 1728,507 L 1727,508 L 1723,508 L 1722,507 L 1721,507 L 1715,501 L 1715,498 L 1714,497 L 1714,494 L 1715,493 L 1715,492 L 1717,490 L 1718,490 L 1720,488 L 1721,488 L 1722,489 L 1721,488 L 1722,487 L 1723,487 L 1724,486 L 1726,486 L 1727,485 Z M 1626,486 L 1627,485 L 1628,485 L 1636,493 L 1636,494 L 1635,495 Z M 1806,484 L 1807,485 L 1807,487 L 1808,488 L 1808,491 L 1809,492 L 1809,494 L 1808,495 L 1806,495 L 1805,496 L 1802,493 L 1802,492 L 1800,490 L 1800,489 L 1801,488 L 1802,489 L 1803,488 L 1804,488 L 1804,487 L 1805,486 L 1805,485 Z M 844,483 L 845,484 L 834,495 L 834,496 L 831,499 L 831,500 L 829,502 L 829,503 L 827,505 L 827,506 L 825,508 L 825,509 L 824,510 L 824,511 L 823,512 L 823,513 L 822,514 L 822,515 L 820,518 L 820,520 L 819,521 L 819,523 L 818,524 L 818,526 L 817,527 L 817,530 L 816,531 L 816,534 L 815,535 L 815,541 L 814,542 L 814,555 L 815,556 L 815,563 L 816,564 L 816,568 L 817,569 L 817,572 L 818,573 L 818,575 L 819,576 L 819,578 L 821,581 L 821,583 L 822,584 L 822,585 L 823,586 L 823,587 L 824,588 L 824,589 L 826,591 L 826,592 L 827,593 L 827,594 L 826,595 L 824,593 L 824,592 L 822,590 L 822,589 L 821,588 L 821,587 L 820,586 L 820,585 L 819,584 L 819,583 L 817,580 L 817,578 L 816,577 L 816,575 L 815,574 L 815,571 L 814,570 L 814,567 L 813,566 L 813,562 L 812,561 L 812,552 L 811,551 L 811,550 L 810,550 L 809,549 L 810,548 L 811,548 L 811,547 L 812,546 L 812,539 L 813,538 L 813,533 L 814,532 L 814,528 L 815,527 L 815,525 L 816,524 L 816,522 L 817,521 L 817,519 L 818,518 L 818,517 L 819,516 L 819,514 L 821,512 L 821,511 L 822,510 L 822,509 L 823,508 L 823,507 L 824,506 L 824,505 L 826,503 L 826,502 L 828,500 L 828,499 L 829,498 L 829,497 L 828,496 L 827,496 L 823,492 L 824,491 L 825,491 L 827,493 L 828,493 L 830,495 L 832,495 L 832,494 L 838,488 L 837,487 L 838,486 L 840,486 L 843,483 Z M 1701,482 L 1702,483 L 1694,491 L 1693,490 L 1693,489 L 1700,482 Z M 1173,483 L 1174,483 L 1179,488 L 1180,488 L 1187,497 L 1189,497 L 1193,493 L 1206,485 L 1208,485 L 1215,482 L 1218,482 L 1219,483 L 1218,484 L 1213,485 L 1210,487 L 1208,487 L 1200,491 L 1190,499 L 1190,501 L 1198,513 L 1198,515 L 1202,523 L 1203,529 L 1204,530 L 1204,535 L 1205,536 L 1205,543 L 1206,544 L 1206,554 L 1205,555 L 1204,568 L 1202,572 L 1202,575 L 1199,580 L 1199,582 L 1195,590 L 1191,595 L 1190,598 L 1194,602 L 1200,606 L 1203,607 L 1205,609 L 1207,609 L 1212,612 L 1214,612 L 1218,614 L 1221,614 L 1222,615 L 1228,615 L 1229,616 L 1240,616 L 1241,615 L 1247,615 L 1248,614 L 1251,614 L 1255,612 L 1258,612 L 1274,603 L 1280,596 L 1285,602 L 1284,604 L 1281,601 L 1280,601 L 1271,608 L 1259,614 L 1257,614 L 1253,616 L 1250,616 L 1249,617 L 1245,617 L 1244,618 L 1226,618 L 1225,617 L 1221,617 L 1220,616 L 1217,616 L 1216,615 L 1213,615 L 1210,613 L 1208,613 L 1200,609 L 1189,600 L 1187,600 L 1186,599 L 1191,592 L 1197,580 L 1197,578 L 1200,571 L 1201,563 L 1202,562 L 1202,557 L 1203,556 L 1203,541 L 1202,540 L 1201,529 L 1200,528 L 1198,520 L 1191,506 L 1186,500 L 1184,496 L 1172,484 Z M 946,482 L 947,482 L 951,486 L 952,486 L 953,487 L 953,488 L 954,488 L 955,489 L 955,490 L 962,497 L 963,497 L 966,494 L 967,494 L 969,492 L 970,492 L 972,490 L 973,490 L 974,491 L 971,494 L 970,494 L 966,498 L 965,498 L 964,499 L 964,500 L 965,501 L 965,502 L 967,504 L 967,505 L 969,507 L 969,508 L 970,509 L 970,510 L 971,511 L 971,512 L 972,513 L 972,514 L 974,517 L 974,519 L 975,520 L 975,521 L 976,522 L 976,524 L 977,525 L 977,528 L 978,529 L 978,532 L 979,533 L 979,538 L 980,539 L 980,557 L 979,558 L 979,564 L 978,565 L 978,569 L 977,570 L 977,572 L 976,573 L 976,575 L 975,576 L 975,578 L 974,579 L 974,580 L 972,583 L 972,585 L 971,586 L 971,587 L 969,589 L 969,590 L 968,591 L 968,592 L 966,594 L 966,595 L 964,597 L 963,596 L 963,595 L 964,594 L 964,593 L 965,592 L 965,591 L 966,590 L 966,589 L 968,587 L 968,586 L 969,585 L 969,583 L 970,582 L 970,581 L 972,578 L 972,576 L 973,575 L 973,573 L 974,572 L 974,569 L 975,568 L 975,565 L 976,564 L 976,560 L 977,559 L 977,538 L 976,537 L 976,532 L 975,531 L 975,528 L 974,527 L 974,525 L 973,524 L 973,522 L 972,521 L 972,519 L 971,518 L 971,517 L 970,516 L 970,515 L 969,514 L 969,513 L 968,512 L 968,511 L 967,510 L 967,509 L 966,508 L 966,507 L 964,505 L 964,504 L 962,502 L 962,501 L 959,498 L 959,497 L 945,483 Z M 775,483 L 774,484 L 772,484 L 771,485 L 769,485 L 768,486 L 766,486 L 765,487 L 764,487 L 763,488 L 762,488 L 761,489 L 760,489 L 759,490 L 758,490 L 757,491 L 756,491 L 755,490 L 757,488 L 758,488 L 759,487 L 760,487 L 761,486 L 762,486 L 763,485 L 764,485 L 765,484 L 767,484 L 768,483 L 770,483 L 771,482 L 774,482 Z M 1298,481 L 1299,482 L 1295,486 L 1294,486 L 1289,491 L 1288,490 L 1288,489 L 1293,484 L 1294,484 L 1297,481 Z M 661,481 L 663,483 L 663,484 L 664,485 L 664,487 L 665,488 L 665,490 L 666,491 L 666,501 L 665,502 L 665,504 L 664,505 L 664,506 L 663,507 L 662,506 L 662,504 L 663,503 L 663,500 L 664,499 L 664,493 L 663,492 L 663,489 L 662,488 L 662,486 L 661,485 L 661,484 L 660,483 L 660,482 Z M 1400,484 L 1406,488 L 1413,497 L 1415,497 L 1419,493 L 1432,485 L 1449,480 L 1468,479 L 1486,484 L 1496,489 L 1509,498 L 1507,499 L 1508,500 L 1504,505 L 1497,519 L 1492,538 L 1493,565 L 1497,579 L 1503,591 L 1502,593 L 1497,585 L 1491,569 L 1489,556 L 1489,543 L 1493,523 L 1505,499 L 1501,495 L 1487,487 L 1469,482 L 1450,482 L 1442,484 L 1428,490 L 1416,499 L 1416,501 L 1426,517 L 1431,534 L 1432,556 L 1429,572 L 1416,599 L 1435,611 L 1455,616 L 1467,616 L 1486,611 L 1500,603 L 1505,598 L 1506,599 L 1507,598 L 1510,601 L 1509,603 L 1506,601 L 1495,609 L 1479,616 L 1470,618 L 1450,618 L 1436,614 L 1424,608 L 1412,599 L 1417,592 L 1426,571 L 1428,562 L 1429,541 L 1425,523 L 1419,510 L 1412,499 L 1399,485 Z M 1219,481 L 1221,481 L 1222,480 L 1226,480 L 1227,479 L 1242,479 L 1243,480 L 1247,480 L 1248,481 L 1251,481 L 1252,482 L 1255,482 L 1256,483 L 1258,483 L 1261,485 L 1263,485 L 1264,486 L 1267,487 L 1269,489 L 1272,490 L 1274,492 L 1275,492 L 1278,495 L 1279,495 L 1281,497 L 1282,497 L 1283,498 L 1283,499 L 1281,501 L 1280,504 L 1278,506 L 1278,507 L 1277,508 L 1277,509 L 1276,510 L 1276,511 L 1275,512 L 1275,513 L 1274,514 L 1274,515 L 1271,520 L 1271,522 L 1270,523 L 1270,526 L 1269,527 L 1269,529 L 1268,530 L 1268,533 L 1267,534 L 1267,541 L 1266,542 L 1266,555 L 1267,556 L 1267,563 L 1268,564 L 1268,567 L 1269,568 L 1269,571 L 1270,572 L 1270,575 L 1271,576 L 1271,578 L 1272,579 L 1272,581 L 1273,582 L 1273,583 L 1274,584 L 1274,585 L 1275,586 L 1275,587 L 1276,588 L 1276,589 L 1277,590 L 1278,593 L 1280,595 L 1280,596 L 1279,597 L 1275,593 L 1275,592 L 1274,591 L 1274,590 L 1273,589 L 1273,588 L 1270,583 L 1270,581 L 1268,578 L 1268,576 L 1267,575 L 1267,573 L 1266,572 L 1266,569 L 1265,568 L 1265,564 L 1264,563 L 1264,557 L 1263,556 L 1263,542 L 1264,541 L 1264,535 L 1265,534 L 1265,530 L 1266,529 L 1266,526 L 1267,525 L 1267,523 L 1269,520 L 1269,518 L 1270,517 L 1270,516 L 1273,511 L 1273,509 L 1275,507 L 1276,504 L 1278,502 L 1278,501 L 1279,500 L 1279,498 L 1278,498 L 1274,494 L 1273,494 L 1271,492 L 1270,492 L 1269,491 L 1268,491 L 1267,490 L 1266,490 L 1265,489 L 1264,489 L 1259,486 L 1257,486 L 1254,484 L 1251,484 L 1250,483 L 1246,483 L 1245,482 L 1224,482 L 1223,483 L 1219,483 L 1218,482 Z M 973,490 L 975,488 L 976,488 L 977,487 L 978,487 L 979,486 L 980,486 L 981,485 L 983,485 L 984,484 L 985,484 L 986,483 L 988,483 L 989,482 L 992,482 L 993,481 L 996,481 L 997,480 L 1002,480 L 1003,479 L 1016,479 L 1017,480 L 1022,480 L 1023,481 L 1026,481 L 1027,482 L 1029,482 L 1030,483 L 1032,483 L 1033,484 L 1035,484 L 1036,485 L 1037,485 L 1038,486 L 1039,486 L 1040,487 L 1041,487 L 1042,488 L 1043,488 L 1045,490 L 1044,491 L 1043,491 L 1042,490 L 1041,490 L 1040,489 L 1039,489 L 1038,488 L 1036,488 L 1035,487 L 1034,487 L 1033,486 L 1031,486 L 1030,485 L 1029,485 L 1028,484 L 1026,484 L 1025,483 L 1021,483 L 1020,482 L 998,482 L 997,483 L 994,483 L 993,484 L 990,484 L 989,485 L 987,485 L 986,486 L 985,486 L 984,487 L 982,487 L 981,488 L 980,488 L 979,489 L 978,489 L 977,490 L 976,490 L 975,491 L 974,491 Z M 774,482 L 775,481 L 778,481 L 779,480 L 785,480 L 786,479 L 794,479 L 795,480 L 800,480 L 801,481 L 804,481 L 805,482 L 808,482 L 809,483 L 810,483 L 811,484 L 813,484 L 814,485 L 815,485 L 816,486 L 817,486 L 818,487 L 819,487 L 821,489 L 820,490 L 819,490 L 818,489 L 817,489 L 816,488 L 815,488 L 814,487 L 812,487 L 811,486 L 810,486 L 809,485 L 807,485 L 806,484 L 804,484 L 803,483 L 799,483 L 798,482 L 780,482 L 779,483 L 775,483 Z M 686,474 L 687,474 L 688,475 L 688,476 L 689,477 L 689,479 L 690,480 L 689,481 L 688,481 L 687,480 L 686,480 L 684,478 L 685,477 L 684,476 Z M 1727,478 L 1727,476 L 1728,475 L 1729,475 L 1730,474 L 1736,474 L 1737,473 L 1738,473 L 1739,474 L 1748,474 L 1749,475 L 1748,476 L 1745,476 L 1748,476 L 1749,477 L 1748,478 L 1737,478 L 1736,479 L 1728,479 Z M 1837,472 L 1843,472 L 1844,473 L 1843,474 L 1841,474 L 1843,474 L 1844,473 L 1846,475 L 1846,481 L 1845,482 L 1845,483 L 1843,485 L 1842,485 L 1841,486 L 1839,486 L 1838,485 L 1837,485 L 1834,482 L 1834,475 L 1835,474 L 1836,474 L 1836,473 Z M 1320,478 L 1321,477 L 1322,477 L 1323,476 L 1324,476 L 1325,475 L 1327,475 L 1328,474 L 1331,474 L 1332,473 L 1337,473 L 1338,472 L 1357,472 L 1358,473 L 1363,473 L 1364,474 L 1367,474 L 1368,475 L 1370,475 L 1371,476 L 1373,476 L 1374,477 L 1375,477 L 1376,478 L 1377,478 L 1378,479 L 1379,479 L 1381,481 L 1380,482 L 1379,482 L 1378,481 L 1376,481 L 1375,480 L 1374,480 L 1373,479 L 1372,479 L 1371,478 L 1369,478 L 1368,477 L 1365,477 L 1364,476 L 1360,476 L 1359,475 L 1349,475 L 1348,474 L 1346,474 L 1345,475 L 1336,475 L 1335,476 L 1332,476 L 1331,477 L 1328,477 L 1327,478 L 1324,478 L 1323,479 L 1321,479 Z M 1092,479 L 1093,478 L 1094,478 L 1095,477 L 1096,477 L 1097,476 L 1099,476 L 1100,475 L 1102,475 L 1103,474 L 1106,474 L 1107,473 L 1112,473 L 1113,472 L 1131,472 L 1132,473 L 1137,473 L 1138,474 L 1141,474 L 1142,475 L 1143,475 L 1144,476 L 1146,476 L 1147,477 L 1148,477 L 1149,478 L 1150,478 L 1151,479 L 1150,480 L 1148,480 L 1147,479 L 1145,479 L 1144,478 L 1142,478 L 1141,477 L 1138,477 L 1137,476 L 1134,476 L 1133,475 L 1123,475 L 1122,474 L 1120,474 L 1119,475 L 1110,475 L 1109,476 L 1106,476 L 1105,477 L 1102,477 L 1101,478 L 1099,478 L 1098,479 L 1096,479 L 1095,480 L 1093,480 Z M 866,479 L 867,478 L 868,478 L 869,477 L 871,477 L 872,476 L 873,476 L 874,475 L 876,475 L 877,474 L 879,474 L 880,473 L 884,473 L 885,472 L 906,472 L 907,473 L 912,473 L 913,474 L 915,474 L 916,475 L 918,475 L 919,476 L 921,476 L 923,478 L 922,479 L 920,479 L 919,478 L 917,478 L 916,477 L 913,477 L 912,476 L 909,476 L 908,475 L 901,475 L 900,474 L 892,474 L 891,475 L 884,475 L 883,476 L 879,476 L 878,477 L 876,477 L 875,478 L 873,478 L 872,479 L 870,479 L 869,480 L 867,480 Z M 1544,479 L 1545,478 L 1546,478 L 1547,477 L 1548,477 L 1549,476 L 1550,476 L 1551,475 L 1553,475 L 1554,474 L 1556,474 L 1557,473 L 1561,473 L 1562,472 L 1569,472 L 1570,471 L 1576,471 L 1577,472 L 1585,472 L 1586,473 L 1590,473 L 1591,474 L 1593,474 L 1594,475 L 1596,475 L 1597,476 L 1599,476 L 1600,477 L 1601,477 L 1603,479 L 1602,480 L 1600,480 L 1599,479 L 1597,479 L 1596,478 L 1594,478 L 1593,477 L 1591,477 L 1590,476 L 1586,476 L 1585,475 L 1562,475 L 1561,476 L 1558,476 L 1557,477 L 1554,477 L 1553,478 L 1551,478 L 1550,479 L 1548,479 L 1547,480 L 1545,480 Z M 1673,470 L 1674,471 L 1674,472 L 1675,473 L 1674,474 L 1674,480 L 1675,479 L 1676,479 L 1677,480 L 1677,479 L 1678,478 L 1679,479 L 1679,481 L 1678,482 L 1668,482 L 1667,481 L 1668,480 L 1671,480 L 1672,479 L 1672,471 Z M 1663,469 L 1664,469 L 1666,471 L 1666,478 L 1668,480 L 1667,481 L 1666,481 L 1664,479 L 1664,472 L 1662,470 Z M 1646,469 L 1645,470 L 1645,475 L 1644,476 L 1644,478 L 1640,482 L 1639,482 L 1638,481 L 1636,481 L 1635,482 L 1634,482 L 1633,481 L 1632,481 L 1630,479 L 1630,478 L 1629,477 L 1629,472 L 1630,471 L 1630,470 L 1631,469 L 1633,469 L 1635,471 L 1635,478 L 1636,479 L 1637,479 L 1638,478 L 1638,475 L 1639,474 L 1639,470 L 1640,469 L 1642,469 L 1643,468 L 1645,468 Z M 1683,467 L 1684,468 L 1683,469 L 1678,469 L 1680,469 L 1681,470 L 1680,471 L 1680,478 L 1679,479 L 1678,478 L 1678,471 L 1674,471 L 1673,470 L 1675,468 L 1676,468 L 1677,467 Z M 1534,466 L 1535,467 L 1535,475 L 1532,478 L 1531,478 L 1530,479 L 1529,478 L 1529,476 L 1528,475 L 1528,467 L 1529,466 L 1530,467 L 1530,472 L 1531,472 L 1531,471 L 1532,470 L 1533,471 L 1533,467 Z M 709,466 L 710,466 L 711,467 L 719,467 L 720,468 L 720,469 L 721,470 L 721,473 L 722,474 L 722,476 L 720,478 L 719,478 L 714,483 L 714,489 L 715,490 L 715,491 L 717,493 L 720,493 L 721,494 L 723,494 L 725,496 L 725,500 L 726,501 L 725,502 L 725,503 L 723,505 L 723,506 L 722,507 L 719,507 L 718,506 L 719,505 L 721,505 L 719,505 L 718,504 L 719,503 L 720,503 L 721,502 L 721,498 L 719,496 L 718,496 L 717,495 L 715,495 L 714,494 L 713,494 L 712,493 L 712,489 L 711,488 L 711,482 L 710,481 L 710,480 L 713,477 L 714,478 L 716,478 L 714,478 L 713,477 L 714,476 L 715,476 L 715,469 L 710,469 L 708,467 Z M 1549,468 L 1549,467 L 1550,466 L 1551,466 L 1551,465 L 1552,464 L 1558,464 L 1559,465 L 1558,466 L 1557,466 L 1556,467 L 1555,467 L 1554,468 L 1551,468 L 1550,469 Z M 1484,464 L 1486,464 L 1488,466 L 1496,466 L 1497,467 L 1496,468 L 1489,468 L 1491,468 L 1492,469 L 1492,471 L 1491,472 L 1491,474 L 1492,475 L 1492,476 L 1495,476 L 1495,473 L 1496,472 L 1496,468 L 1499,465 L 1501,465 L 1502,464 L 1503,465 L 1503,467 L 1502,468 L 1502,473 L 1501,474 L 1501,475 L 1500,476 L 1500,477 L 1499,478 L 1497,478 L 1497,479 L 1496,480 L 1496,481 L 1495,482 L 1494,481 L 1494,478 L 1492,478 L 1493,479 L 1492,480 L 1491,480 L 1492,481 L 1494,481 L 1495,482 L 1494,483 L 1491,483 L 1489,481 L 1489,478 L 1488,477 L 1488,473 L 1486,471 L 1486,469 L 1485,468 L 1485,467 L 1483,465 Z M 1417,463 L 1419,463 L 1420,464 L 1421,464 L 1422,465 L 1433,465 L 1435,463 L 1436,464 L 1436,465 L 1435,466 L 1435,469 L 1434,470 L 1434,472 L 1433,473 L 1433,474 L 1432,475 L 1431,474 L 1432,475 L 1432,476 L 1431,477 L 1431,479 L 1430,480 L 1430,481 L 1428,483 L 1427,483 L 1426,484 L 1425,484 L 1424,483 L 1424,481 L 1425,480 L 1425,478 L 1424,478 L 1423,477 L 1422,478 L 1421,478 L 1419,476 L 1419,475 L 1418,474 L 1418,473 L 1417,472 L 1417,466 L 1416,465 L 1416,464 Z M 1075,463 L 1076,462 L 1077,463 L 1077,465 L 1078,466 L 1080,466 L 1081,467 L 1079,469 L 1077,469 L 1075,467 Z M 1366,462 L 1367,461 L 1375,461 L 1376,462 L 1375,463 L 1375,469 L 1376,470 L 1375,471 L 1373,471 L 1372,470 L 1371,470 L 1370,469 L 1368,469 L 1367,468 L 1367,463 Z M 1318,462 L 1319,461 L 1320,461 L 1321,462 L 1330,462 L 1331,463 L 1331,467 L 1330,468 L 1329,468 L 1328,469 L 1326,469 L 1325,470 L 1322,470 L 1321,471 L 1320,471 L 1319,470 L 1320,469 L 1320,465 L 1319,464 L 1319,463 Z M 1258,461 L 1259,460 L 1260,460 L 1261,461 L 1262,461 L 1263,462 L 1263,468 L 1264,469 L 1264,470 L 1266,472 L 1269,472 L 1271,470 L 1271,463 L 1273,461 L 1274,461 L 1275,460 L 1276,461 L 1276,465 L 1275,466 L 1275,471 L 1274,472 L 1274,473 L 1273,474 L 1272,474 L 1270,476 L 1269,476 L 1267,478 L 1266,478 L 1265,477 L 1264,477 L 1262,475 L 1262,473 L 1260,471 L 1260,467 L 1261,466 L 1260,467 L 1259,466 L 1259,462 Z M 1193,460 L 1194,459 L 1195,460 L 1196,460 L 1197,461 L 1198,461 L 1199,462 L 1198,463 L 1198,468 L 1199,469 L 1200,469 L 1201,470 L 1202,470 L 1203,469 L 1204,469 L 1204,467 L 1205,466 L 1205,462 L 1207,460 L 1209,460 L 1210,461 L 1210,464 L 1209,465 L 1209,469 L 1208,470 L 1208,472 L 1207,473 L 1205,473 L 1204,474 L 1203,474 L 1202,475 L 1199,475 L 1197,473 L 1198,472 L 1197,471 L 1196,472 L 1194,470 L 1194,467 L 1193,466 Z M 574,458 L 575,458 L 576,459 L 575,460 L 576,461 L 575,460 L 576,459 L 577,459 L 578,460 L 579,460 L 580,461 L 579,462 L 578,462 L 579,462 L 580,461 L 581,462 L 581,463 L 582,464 L 582,465 L 580,467 L 580,468 L 579,469 L 579,470 L 577,472 L 575,472 L 573,470 L 573,467 L 574,466 L 574,464 L 573,464 L 571,462 L 572,461 L 572,460 Z M 1095,457 L 1097,459 L 1097,464 L 1096,465 L 1096,468 L 1097,468 L 1098,469 L 1097,470 L 1096,470 L 1095,471 L 1093,471 L 1092,472 L 1091,472 L 1090,473 L 1089,473 L 1088,472 L 1090,470 L 1091,470 L 1092,469 L 1094,469 L 1094,459 L 1093,458 L 1094,457 Z M 1143,456 L 1145,456 L 1147,458 L 1149,458 L 1150,459 L 1150,462 L 1149,463 L 1149,467 L 1148,468 L 1148,469 L 1149,470 L 1148,471 L 1147,471 L 1146,470 L 1145,470 L 1143,468 L 1144,467 L 1144,458 L 1143,458 L 1142,457 Z M 1106,456 L 1107,457 L 1107,458 L 1108,459 L 1108,466 L 1107,467 L 1106,467 L 1105,468 L 1104,468 L 1103,467 L 1104,466 L 1104,465 L 1105,464 L 1105,457 Z M 1032,456 L 1033,455 L 1034,455 L 1035,456 L 1036,456 L 1037,457 L 1037,466 L 1039,468 L 1043,468 L 1044,467 L 1044,458 L 1046,456 L 1049,456 L 1050,457 L 1049,458 L 1049,464 L 1048,465 L 1048,467 L 1045,470 L 1044,470 L 1043,471 L 1040,471 L 1039,470 L 1038,470 L 1037,469 L 1036,469 L 1034,467 L 1034,466 L 1033,465 L 1033,457 Z M 967,455 L 968,454 L 969,454 L 970,455 L 971,455 L 972,456 L 972,464 L 971,465 L 972,464 L 973,465 L 973,466 L 974,466 L 975,467 L 977,467 L 979,465 L 979,463 L 980,462 L 980,456 L 981,455 L 983,455 L 984,456 L 984,461 L 983,462 L 983,465 L 979,469 L 977,469 L 976,470 L 974,470 L 973,469 L 972,469 L 969,466 L 969,465 L 968,464 L 968,456 Z M 887,453 L 889,453 L 890,454 L 890,461 L 889,462 L 889,465 L 888,466 L 887,466 L 884,463 L 885,462 L 885,458 L 886,457 L 886,456 L 885,455 Z M 911,453 L 912,452 L 918,452 L 919,453 L 918,454 L 917,454 L 917,464 L 921,464 L 923,462 L 923,460 L 924,459 L 924,454 L 923,454 L 922,453 L 923,452 L 925,452 L 926,453 L 926,461 L 925,462 L 925,464 L 923,466 L 914,466 L 913,465 L 913,461 L 912,460 L 912,455 L 911,454 Z M 876,449 L 877,450 L 877,451 L 878,451 L 880,453 L 880,462 L 881,463 L 884,463 L 886,465 L 885,466 L 880,466 L 876,462 L 876,455 L 875,454 L 875,452 L 874,451 Z M 686,449 L 688,449 L 691,452 L 691,453 L 693,455 L 693,456 L 694,457 L 694,458 L 695,459 L 695,461 L 690,466 L 689,466 L 688,467 L 685,464 L 685,463 L 683,461 L 683,460 L 681,458 L 681,456 L 682,455 L 682,453 L 683,452 L 684,453 L 684,455 L 684,453 L 685,452 L 684,451 Z M 603,454 L 607,450 L 608,450 L 609,449 L 610,449 L 611,448 L 612,448 L 613,449 L 617,449 L 618,450 L 619,450 L 622,453 L 622,459 L 621,460 L 621,461 L 619,463 L 618,463 L 617,464 L 606,464 L 602,460 L 602,457 L 603,456 Z M 818,447 L 820,447 L 822,449 L 821,450 L 821,456 L 820,457 L 819,456 L 819,449 L 819,456 L 820,457 L 821,456 L 822,457 L 822,458 L 827,458 L 827,457 L 828,456 L 828,452 L 829,451 L 829,449 L 830,448 L 833,448 L 834,449 L 834,452 L 833,453 L 833,456 L 832,457 L 832,458 L 830,460 L 830,461 L 829,462 L 829,465 L 827,467 L 827,468 L 825,470 L 823,470 L 822,469 L 822,462 L 817,457 L 817,448 Z M 656,446 L 657,446 L 658,447 L 660,447 L 661,448 L 662,448 L 665,451 L 665,452 L 666,453 L 666,458 L 665,459 L 665,460 L 662,463 L 661,463 L 660,464 L 659,464 L 658,465 L 655,465 L 654,464 L 652,464 L 651,463 L 650,463 L 648,461 L 648,460 L 647,459 L 647,458 L 646,457 L 646,454 L 647,453 L 647,452 L 649,450 L 650,451 L 649,450 L 651,448 L 652,448 L 653,447 L 655,447 Z M 586,445 L 587,445 L 589,447 L 590,447 L 592,449 L 592,454 L 591,455 L 590,455 L 589,456 L 588,456 L 587,455 L 586,455 L 585,454 L 585,446 Z M 691,431 L 693,431 L 694,432 L 694,434 L 695,435 L 695,436 L 694,437 L 694,438 L 693,439 L 693,442 L 698,447 L 706,447 L 707,446 L 707,444 L 706,443 L 706,440 L 705,439 L 705,435 L 704,434 L 704,433 L 706,431 L 708,431 L 709,432 L 709,433 L 710,433 L 711,434 L 721,434 L 722,435 L 721,436 L 721,439 L 720,440 L 720,443 L 719,444 L 719,445 L 716,448 L 711,448 L 710,447 L 709,447 L 709,448 L 710,449 L 710,451 L 711,452 L 709,454 L 708,454 L 707,453 L 708,452 L 706,452 L 708,454 L 705,457 L 705,460 L 704,461 L 703,460 L 703,459 L 702,458 L 702,457 L 700,455 L 701,454 L 701,453 L 702,452 L 702,451 L 701,450 L 700,450 L 699,449 L 697,449 L 690,442 L 690,441 L 689,440 L 689,439 L 690,438 L 690,436 L 692,434 L 692,433 L 691,433 L 690,432 Z M 654,430 L 661,430 L 664,433 L 664,435 L 663,436 L 663,438 L 660,441 L 659,441 L 658,440 L 656,440 L 655,439 L 654,439 L 653,438 L 654,437 L 656,437 L 654,437 L 653,438 L 652,437 L 652,436 L 651,435 L 651,434 L 652,433 L 652,432 Z M 619,434 L 619,438 L 616,441 L 615,441 L 614,440 L 615,441 L 613,443 L 611,443 L 610,444 L 604,444 L 602,442 L 602,438 L 605,435 L 610,435 L 610,434 L 613,431 L 614,431 L 615,430 Z M 672,429 L 673,428 L 673,427 L 674,426 L 677,426 L 680,429 L 680,430 L 681,431 L 679,433 L 678,433 L 677,432 L 678,431 L 678,430 L 676,430 L 675,431 L 674,430 L 673,430 Z M 636,426 L 637,426 L 638,427 L 639,427 L 642,430 L 642,431 L 641,432 L 641,433 L 638,436 L 637,436 L 636,435 L 635,435 L 633,433 L 633,432 L 632,431 L 632,429 L 634,427 L 635,427 Z M 1702,304 L 1703,303 L 1713,303 L 1714,304 L 1713,305 L 1703,305 Z M 1681,304 L 1682,303 L 1692,303 L 1693,304 L 1692,305 L 1682,305 Z M 1531,303 L 1532,302 L 1542,302 L 1543,303 L 1542,304 L 1532,304 Z M 1186,302 L 1187,301 L 1337,301 L 1338,302 L 1337,303 L 1187,303 Z M 159,194 L 162,194 L 163,195 L 167,195 L 168,196 L 169,196 L 170,197 L 170,198 L 171,199 L 171,215 L 168,218 L 167,218 L 166,219 L 158,219 L 157,218 L 158,217 L 162,217 L 158,217 L 157,218 L 156,217 L 156,216 L 155,215 L 155,199 L 156,198 L 157,199 L 157,201 L 157,199 L 156,198 L 156,196 L 157,195 L 158,195 Z M 116,195 L 122,195 L 123,194 L 137,194 L 141,198 L 141,215 L 140,216 L 140,217 L 138,219 L 117,219 L 114,216 L 114,198 L 115,197 L 115,196 Z" fill="black" fill-rule="evenodd"/>
</svg>