<svg xmlns="http://www.w3.org/2000/svg" width="2172" height="724" viewBox="0 0 2172 724">
<rect width="100%" height="100%" fill="white"/>
<path d="M 339,199 L 342,236 L 410,225 L 753,231 L 763,243 L 848,241 L 867,262 L 883,254 L 874,292 L 714,285 L 704,304 L 640,354 L 620,348 L 628,328 L 610,317 L 601,326 L 610,343 L 604,354 L 538,357 L 496,385 L 522,406 L 504,431 L 508,439 L 497,454 L 503,466 L 496,469 L 517,526 L 556,553 L 573,553 L 587,567 L 602,566 L 612,578 L 619,574 L 635,588 L 647,586 L 656,597 L 669,595 L 732,626 L 736,620 L 747,627 L 760,621 L 768,627 L 781,621 L 791,627 L 1500,624 L 1550,604 L 1557,609 L 1593,593 L 1600,598 L 1613,588 L 1671,580 L 1704,562 L 1732,516 L 1725,459 L 1749,442 L 1742,434 L 1745,378 L 1785,399 L 1801,375 L 1669,292 L 1579,292 L 1583,259 L 1547,259 L 1550,292 L 1473,292 L 1465,263 L 1444,264 L 1435,292 L 1419,292 L 1410,279 L 1364,279 L 1355,292 L 1306,292 L 1344,265 L 1285,154 L 1267,150 L 1273,130 L 1234,127 L 1236,146 L 1065,140 L 1195,139 L 1192,108 L 1178,95 L 1080,96 L 1059,143 L 933,163 L 930,142 L 917,139 L 899,188 L 876,171 L 850,191 L 763,190 L 752,202 L 410,207 L 380,197 Z M 972,598 L 972,600 L 971,601 L 971,604 L 970,605 L 970,607 L 968,609 L 947,609 L 946,608 L 947,607 L 951,607 L 952,606 L 954,606 L 955,607 L 956,607 L 955,607 L 954,606 L 955,605 L 956,605 L 957,604 L 958,604 L 959,603 L 960,603 L 961,602 L 963,602 L 965,600 L 966,600 L 967,599 L 968,599 L 970,597 L 971,597 Z M 888,598 L 889,597 L 891,599 L 892,599 L 893,600 L 894,600 L 895,601 L 896,601 L 897,602 L 898,602 L 900,604 L 902,604 L 903,605 L 904,605 L 905,606 L 907,606 L 908,607 L 911,607 L 912,608 L 911,609 L 892,609 L 891,608 L 892,607 L 895,607 L 893,607 L 892,606 L 892,607 L 891,608 L 890,607 L 890,605 L 889,604 L 889,601 L 888,600 Z M 1414,597 L 1415,596 L 1416,596 L 1418,598 L 1419,598 L 1421,600 L 1422,600 L 1423,601 L 1424,601 L 1425,602 L 1426,602 L 1427,603 L 1428,603 L 1429,604 L 1430,604 L 1431,605 L 1432,605 L 1433,606 L 1432,607 L 1431,607 L 1432,607 L 1433,606 L 1435,606 L 1436,607 L 1440,607 L 1441,608 L 1440,609 L 1418,609 L 1417,608 L 1417,606 L 1416,605 L 1416,604 L 1415,603 L 1415,599 L 1414,598 Z M 1323,597 L 1323,598 L 1322,599 L 1322,601 L 1321,602 L 1320,601 L 1320,600 L 1319,600 L 1321,602 L 1321,604 L 1320,605 L 1320,607 L 1319,608 L 1314,608 L 1313,609 L 1296,609 L 1295,608 L 1296,607 L 1300,607 L 1301,606 L 1303,606 L 1304,607 L 1305,607 L 1304,607 L 1303,606 L 1304,605 L 1305,605 L 1306,604 L 1308,604 L 1309,603 L 1310,603 L 1311,602 L 1312,602 L 1314,600 L 1315,600 L 1316,599 L 1317,599 L 1318,598 L 1319,598 L 1321,596 L 1322,596 Z M 1236,597 L 1237,596 L 1239,598 L 1240,598 L 1241,599 L 1242,599 L 1244,601 L 1243,602 L 1242,602 L 1243,602 L 1244,601 L 1245,601 L 1246,602 L 1247,602 L 1248,603 L 1249,603 L 1250,604 L 1251,604 L 1252,605 L 1254,605 L 1255,606 L 1257,606 L 1258,607 L 1261,607 L 1262,608 L 1261,609 L 1242,609 L 1241,608 L 1240,608 L 1239,607 L 1239,606 L 1238,605 L 1238,604 L 1237,603 L 1237,600 L 1236,599 Z M 1148,597 L 1148,600 L 1147,601 L 1147,603 L 1146,604 L 1146,606 L 1145,607 L 1145,608 L 1144,609 L 1121,609 L 1120,608 L 1121,607 L 1124,607 L 1125,606 L 1128,606 L 1129,607 L 1130,607 L 1129,607 L 1128,606 L 1129,605 L 1130,605 L 1131,604 L 1133,604 L 1134,603 L 1135,603 L 1136,602 L 1137,602 L 1138,601 L 1139,601 L 1140,600 L 1141,600 L 1143,598 L 1144,598 L 1146,596 L 1147,596 Z M 1061,597 L 1062,596 L 1064,598 L 1065,598 L 1067,600 L 1068,600 L 1069,601 L 1070,601 L 1071,602 L 1072,602 L 1073,603 L 1074,603 L 1075,604 L 1076,604 L 1077,605 L 1079,605 L 1080,606 L 1082,606 L 1083,607 L 1086,607 L 1087,608 L 1086,609 L 1065,609 L 1064,608 L 1064,606 L 1063,605 L 1063,604 L 1062,603 L 1062,600 L 1061,599 Z M 798,597 L 798,598 L 797,599 L 797,601 L 796,602 L 796,604 L 795,605 L 795,606 L 794,607 L 794,608 L 793,609 L 772,609 L 771,608 L 772,607 L 776,607 L 777,606 L 778,606 L 779,605 L 781,605 L 782,604 L 784,604 L 785,603 L 786,603 L 787,602 L 788,602 L 789,601 L 790,601 L 791,602 L 793,602 L 794,603 L 794,601 L 795,600 L 794,601 L 793,601 L 792,602 L 791,602 L 790,601 L 792,599 L 793,599 L 794,598 L 795,598 L 797,596 Z M 708,598 L 709,597 L 711,597 L 712,596 L 713,597 L 714,597 L 716,599 L 717,599 L 718,600 L 719,600 L 720,601 L 719,602 L 717,602 L 716,601 L 714,601 L 713,600 L 712,600 L 711,599 L 709,599 Z M 1506,593 L 1506,595 L 1507,596 L 1507,602 L 1505,604 L 1502,604 L 1501,603 L 1499,603 L 1501,603 L 1502,604 L 1501,605 L 1498,605 L 1497,606 L 1493,606 L 1492,607 L 1488,607 L 1487,608 L 1479,608 L 1478,607 L 1479,606 L 1481,606 L 1482,605 L 1484,605 L 1485,604 L 1486,604 L 1487,603 L 1489,603 L 1491,601 L 1492,601 L 1493,600 L 1494,600 L 1495,599 L 1496,599 L 1498,597 L 1499,597 L 1502,594 L 1503,594 L 1505,592 Z M 704,589 L 708,593 L 706,595 L 705,595 L 704,594 L 705,595 L 706,595 L 707,596 L 706,597 L 704,597 L 702,595 L 702,593 L 703,592 L 703,590 Z M 1099,527 L 1101,527 L 1102,528 L 1106,528 L 1107,527 L 1110,527 L 1111,528 L 1112,528 L 1117,533 L 1117,534 L 1118,535 L 1118,536 L 1119,537 L 1119,545 L 1118,546 L 1118,548 L 1112,554 L 1111,554 L 1110,555 L 1107,555 L 1106,556 L 1102,556 L 1101,555 L 1099,555 L 1098,554 L 1096,554 L 1091,549 L 1091,548 L 1090,547 L 1090,545 L 1089,544 L 1089,538 L 1090,537 L 1090,535 L 1091,534 L 1091,533 L 1095,529 L 1096,529 L 1097,528 L 1098,528 Z M 922,528 L 923,528 L 924,527 L 927,527 L 928,528 L 931,528 L 932,527 L 935,527 L 936,528 L 937,528 L 938,529 L 939,529 L 942,532 L 942,533 L 943,534 L 943,535 L 944,536 L 944,538 L 945,539 L 945,543 L 944,544 L 944,547 L 942,549 L 942,550 L 939,553 L 938,553 L 937,554 L 936,554 L 935,555 L 932,555 L 931,556 L 928,556 L 927,555 L 924,555 L 923,554 L 922,554 L 920,552 L 919,552 L 918,551 L 918,550 L 916,548 L 916,547 L 915,546 L 915,536 L 916,535 L 916,534 Z M 750,527 L 752,527 L 753,528 L 757,528 L 758,527 L 761,527 L 762,528 L 763,528 L 768,533 L 768,534 L 769,535 L 769,536 L 770,537 L 770,545 L 769,546 L 769,547 L 768,548 L 768,549 L 763,554 L 762,554 L 761,555 L 758,555 L 757,556 L 753,556 L 752,555 L 750,555 L 749,554 L 748,554 L 747,553 L 746,553 L 742,549 L 742,548 L 741,547 L 741,544 L 740,543 L 740,538 L 741,537 L 741,535 L 742,534 L 742,533 L 745,530 L 746,530 L 748,528 L 749,528 Z M 1455,526 L 1459,526 L 1460,527 L 1459,528 L 1456,528 L 1459,528 L 1460,527 L 1462,527 L 1463,528 L 1465,528 L 1471,534 L 1471,535 L 1472,536 L 1472,539 L 1473,540 L 1473,543 L 1472,544 L 1472,547 L 1470,549 L 1470,550 L 1468,552 L 1467,552 L 1465,554 L 1464,554 L 1463,555 L 1460,555 L 1459,556 L 1455,556 L 1454,555 L 1452,555 L 1451,554 L 1450,554 L 1449,553 L 1448,553 L 1445,550 L 1445,549 L 1444,548 L 1444,547 L 1443,546 L 1443,545 L 1442,544 L 1442,538 L 1443,537 L 1443,535 L 1445,533 L 1445,532 L 1447,530 L 1448,530 L 1450,528 L 1451,528 L 1452,527 L 1454,527 Z M 1277,526 L 1281,526 L 1282,527 L 1281,528 L 1278,528 L 1281,528 L 1282,527 L 1284,527 L 1285,528 L 1286,528 L 1287,529 L 1288,529 L 1292,533 L 1292,534 L 1293,535 L 1293,536 L 1294,537 L 1294,545 L 1293,546 L 1293,548 L 1287,554 L 1286,554 L 1285,555 L 1282,555 L 1281,556 L 1277,556 L 1276,555 L 1273,555 L 1272,554 L 1271,554 L 1266,549 L 1266,548 L 1265,547 L 1265,546 L 1264,545 L 1264,537 L 1265,536 L 1265,535 L 1266,534 L 1266,533 L 1270,529 L 1271,529 L 1272,528 L 1273,528 L 1274,527 L 1276,527 Z M 1623,566 L 1623,571 L 1624,572 L 1621,574 L 1618,574 L 1617,575 L 1614,575 L 1613,576 L 1611,576 L 1610,575 L 1610,574 L 1607,570 L 1605,565 L 1603,565 L 1602,566 L 1599,566 L 1598,567 L 1597,567 L 1597,579 L 1596,580 L 1594,580 L 1593,581 L 1590,581 L 1589,582 L 1586,582 L 1585,583 L 1584,583 L 1581,579 L 1578,572 L 1576,572 L 1575,573 L 1571,573 L 1570,574 L 1569,574 L 1569,586 L 1568,587 L 1567,587 L 1566,586 L 1567,585 L 1566,586 L 1564,586 L 1566,586 L 1567,587 L 1566,588 L 1563,588 L 1562,589 L 1559,589 L 1558,590 L 1556,590 L 1554,588 L 1554,587 L 1550,580 L 1545,580 L 1544,581 L 1542,581 L 1541,582 L 1541,588 L 1540,589 L 1540,594 L 1539,595 L 1536,595 L 1535,596 L 1532,596 L 1531,597 L 1529,597 L 1528,598 L 1525,598 L 1524,599 L 1523,599 L 1521,597 L 1517,588 L 1512,585 L 1512,584 L 1518,576 L 1518,575 L 1523,566 L 1523,564 L 1524,563 L 1524,561 L 1525,560 L 1525,557 L 1526,556 L 1526,552 L 1527,551 L 1527,531 L 1526,530 L 1526,526 L 1525,525 L 1525,522 L 1524,521 L 1524,519 L 1523,518 L 1523,516 L 1524,515 L 1570,515 L 1570,513 L 1571,512 L 1572,513 L 1572,515 L 1573,516 L 1573,518 L 1574,519 L 1574,521 L 1576,524 L 1576,526 L 1577,527 L 1577,528 L 1579,530 L 1581,535 L 1583,537 L 1583,538 L 1587,542 L 1587,543 L 1594,550 L 1595,550 L 1599,554 L 1600,554 L 1605,558 L 1606,558 L 1615,563 L 1620,564 Z M 1598,524 L 1600,522 L 1601,523 L 1602,522 L 1602,521 L 1605,518 L 1606,518 L 1608,516 L 1609,516 L 1611,514 L 1613,514 L 1614,513 L 1616,513 L 1617,512 L 1619,512 L 1620,513 L 1622,513 L 1620,513 L 1619,512 L 1620,511 L 1623,511 L 1624,512 L 1624,513 L 1625,513 L 1628,516 L 1629,516 L 1630,517 L 1631,517 L 1632,518 L 1633,518 L 1634,519 L 1635,519 L 1636,520 L 1636,522 L 1637,523 L 1637,543 L 1636,544 L 1636,545 L 1633,548 L 1629,548 L 1628,547 L 1625,547 L 1624,546 L 1622,546 L 1621,545 L 1620,545 L 1619,544 L 1618,544 L 1617,543 L 1616,543 L 1615,542 L 1614,542 L 1612,540 L 1611,540 L 1609,538 L 1608,538 L 1602,532 L 1602,531 L 1599,528 L 1599,527 L 1598,526 Z M 1688,522 L 1688,523 L 1687,524 L 1687,525 L 1686,526 L 1686,527 L 1683,530 L 1683,531 L 1678,536 L 1677,536 L 1673,540 L 1672,540 L 1670,542 L 1669,542 L 1668,543 L 1667,543 L 1666,544 L 1665,544 L 1664,545 L 1663,545 L 1662,546 L 1660,546 L 1659,547 L 1656,547 L 1655,548 L 1654,548 L 1652,546 L 1652,545 L 1651,544 L 1651,543 L 1650,542 L 1650,540 L 1649,539 L 1649,523 L 1650,522 L 1650,520 L 1651,519 L 1652,519 L 1653,518 L 1654,518 L 1656,516 L 1657,516 L 1659,514 L 1660,514 L 1664,510 L 1668,510 L 1669,511 L 1671,511 L 1672,512 L 1673,512 L 1674,513 L 1676,513 L 1678,515 L 1679,515 L 1680,516 L 1681,516 L 1682,517 L 1681,518 L 1682,517 L 1683,518 L 1684,518 Z M 570,503 L 576,503 L 577,504 L 578,504 L 579,505 L 580,505 L 581,506 L 581,507 L 582,508 L 582,509 L 583,510 L 583,522 L 582,523 L 582,524 L 580,526 L 577,526 L 576,525 L 573,525 L 572,524 L 570,524 L 569,523 L 567,523 L 566,522 L 565,522 L 564,521 L 563,521 L 559,517 L 560,516 L 560,515 L 561,514 L 561,513 L 562,512 L 562,511 L 564,509 L 564,508 L 568,504 L 569,504 Z M 611,503 L 617,509 L 617,510 L 618,511 L 618,512 L 619,513 L 619,515 L 620,516 L 620,517 L 616,521 L 615,521 L 614,522 L 613,522 L 612,523 L 610,523 L 609,524 L 607,524 L 606,525 L 602,525 L 601,526 L 598,526 L 597,525 L 597,524 L 596,523 L 596,522 L 595,521 L 595,515 L 596,514 L 596,509 L 597,508 L 597,507 L 599,505 L 600,505 L 601,504 L 602,504 L 603,503 L 605,503 L 606,502 L 609,502 L 610,503 Z M 622,491 L 623,490 L 626,490 L 627,491 L 626,492 L 624,492 L 625,492 L 626,493 L 628,493 L 629,492 L 630,492 L 631,493 L 633,493 L 634,494 L 635,494 L 636,495 L 637,495 L 638,496 L 639,496 L 640,497 L 640,499 L 639,500 L 639,501 L 638,502 L 638,503 L 636,505 L 631,505 L 630,504 L 629,504 L 624,499 L 624,498 L 622,496 L 622,495 L 621,494 L 621,493 L 622,492 Z M 556,490 L 557,491 L 556,492 L 551,492 L 556,492 L 557,491 L 558,492 L 558,497 L 557,498 L 557,499 L 556,500 L 556,501 L 551,506 L 550,506 L 549,507 L 548,507 L 547,508 L 546,507 L 545,507 L 541,503 L 541,502 L 539,500 L 539,499 L 538,498 L 538,497 L 539,496 L 542,496 L 539,496 L 538,497 L 537,496 L 537,495 L 538,494 L 542,494 L 543,493 L 544,493 L 545,492 L 546,492 L 547,491 L 548,491 L 549,490 Z M 1519,503 L 1524,513 L 1523,516 L 1514,500 L 1506,491 L 1493,481 L 1480,475 L 1467,472 L 1447,472 L 1428,478 L 1415,486 L 1399,503 L 1393,514 L 1388,532 L 1388,550 L 1392,566 L 1401,582 L 1414,595 L 1413,596 L 1405,596 L 1403,606 L 1401,609 L 1400,608 L 1392,608 L 1391,609 L 1389,605 L 1388,597 L 1386,595 L 1380,595 L 1378,597 L 1375,609 L 1355,608 L 1353,605 L 1352,596 L 1349,595 L 1348,596 L 1342,596 L 1340,608 L 1336,609 L 1333,605 L 1331,596 L 1326,596 L 1324,594 L 1334,584 L 1339,577 L 1347,559 L 1348,550 L 1349,549 L 1349,532 L 1348,531 L 1347,523 L 1344,516 L 1345,513 L 1348,515 L 1353,515 L 1360,517 L 1376,517 L 1382,515 L 1391,515 L 1391,513 L 1400,497 L 1412,485 L 1428,475 L 1436,472 L 1444,471 L 1445,470 L 1451,470 L 1452,469 L 1464,469 L 1465,470 L 1475,471 L 1493,478 L 1502,484 L 1514,496 Z M 1342,505 L 1345,511 L 1344,514 L 1334,498 L 1323,487 L 1313,480 L 1302,475 L 1290,473 L 1289,472 L 1269,472 L 1252,477 L 1238,485 L 1225,497 L 1218,507 L 1213,517 L 1209,532 L 1209,549 L 1210,550 L 1211,559 L 1215,570 L 1224,584 L 1236,595 L 1235,596 L 1228,596 L 1227,597 L 1226,604 L 1223,609 L 1222,607 L 1215,607 L 1214,606 L 1213,608 L 1210,596 L 1201,596 L 1197,609 L 1196,608 L 1182,608 L 1180,604 L 1179,596 L 1177,595 L 1169,596 L 1167,607 L 1164,609 L 1161,609 L 1159,607 L 1156,596 L 1149,596 L 1148,595 L 1163,579 L 1172,560 L 1173,552 L 1174,551 L 1174,531 L 1169,514 L 1170,513 L 1172,515 L 1175,514 L 1187,517 L 1199,517 L 1205,515 L 1212,515 L 1217,504 L 1226,492 L 1235,484 L 1250,475 L 1266,470 L 1273,470 L 1274,469 L 1286,469 L 1287,470 L 1297,471 L 1316,479 L 1326,486 L 1334,494 Z M 1168,507 L 1167,510 L 1160,499 L 1148,487 L 1136,479 L 1134,479 L 1129,476 L 1114,472 L 1094,472 L 1079,476 L 1064,484 L 1049,498 L 1042,508 L 1035,526 L 1035,530 L 1034,531 L 1034,551 L 1037,563 L 1043,576 L 1048,583 L 1060,595 L 1059,596 L 1053,596 L 1050,608 L 1049,609 L 1043,609 L 1042,608 L 1043,607 L 1048,607 L 1042,607 L 1041,609 L 1039,609 L 1037,607 L 1035,596 L 1026,596 L 1024,605 L 1021,609 L 1019,608 L 1008,608 L 1005,596 L 998,595 L 996,596 L 993,608 L 992,609 L 985,609 L 984,608 L 985,607 L 989,607 L 988,606 L 986,606 L 984,608 L 983,607 L 981,597 L 979,595 L 978,596 L 974,596 L 973,595 L 986,582 L 990,576 L 997,560 L 998,552 L 999,551 L 999,531 L 994,513 L 995,512 L 997,515 L 1005,515 L 1011,517 L 1024,517 L 1030,515 L 1037,515 L 1041,505 L 1048,495 L 1062,482 L 1077,474 L 1091,470 L 1098,470 L 1099,469 L 1111,469 L 1131,474 L 1141,479 L 1151,486 L 1159,494 Z M 865,509 L 866,508 L 867,505 L 869,503 L 870,500 L 873,497 L 873,496 L 884,485 L 885,485 L 887,483 L 888,483 L 893,479 L 896,478 L 898,476 L 900,476 L 903,474 L 905,474 L 906,473 L 908,473 L 909,472 L 912,472 L 913,471 L 917,471 L 918,470 L 923,470 L 924,469 L 935,469 L 936,470 L 942,470 L 943,471 L 947,471 L 948,472 L 950,472 L 951,473 L 953,473 L 954,474 L 956,474 L 957,475 L 959,475 L 960,476 L 963,477 L 965,479 L 968,480 L 973,484 L 974,484 L 987,497 L 987,498 L 990,501 L 991,504 L 993,506 L 993,507 L 995,510 L 995,512 L 994,513 L 993,512 L 993,511 L 991,509 L 991,508 L 990,507 L 989,504 L 986,501 L 986,500 L 982,496 L 982,495 L 977,490 L 976,490 L 972,486 L 971,486 L 968,483 L 967,483 L 965,481 L 964,481 L 963,480 L 962,480 L 961,479 L 960,479 L 957,477 L 955,477 L 952,475 L 949,475 L 948,474 L 945,474 L 944,473 L 940,473 L 939,472 L 920,472 L 919,473 L 915,473 L 914,474 L 911,474 L 910,475 L 908,475 L 907,476 L 905,476 L 904,477 L 903,477 L 902,478 L 901,478 L 898,480 L 896,480 L 894,482 L 891,483 L 888,486 L 887,486 L 881,492 L 880,492 L 879,493 L 879,494 L 873,500 L 873,501 L 869,506 L 868,509 L 866,511 L 865,510 Z M 602,551 L 608,545 L 612,544 L 611,541 L 613,539 L 621,536 L 626,540 L 628,539 L 628,534 L 631,531 L 635,530 L 638,533 L 645,528 L 643,522 L 649,515 L 656,515 L 659,512 L 657,508 L 658,506 L 659,507 L 657,504 L 659,499 L 697,499 L 707,487 L 726,475 L 750,469 L 768,470 L 782,474 L 803,487 L 814,499 L 822,515 L 854,516 L 862,515 L 864,511 L 866,511 L 860,530 L 860,553 L 863,564 L 870,578 L 883,593 L 880,594 L 883,593 L 886,595 L 879,596 L 875,608 L 866,608 L 863,597 L 860,595 L 855,595 L 853,597 L 850,609 L 834,609 L 832,607 L 830,596 L 827,595 L 821,596 L 817,608 L 813,605 L 811,606 L 811,609 L 809,608 L 806,596 L 800,594 L 815,577 L 823,558 L 825,548 L 825,534 L 823,524 L 816,507 L 810,498 L 800,488 L 780,476 L 765,472 L 745,472 L 728,477 L 710,488 L 695,505 L 686,527 L 685,550 L 688,563 L 696,579 L 687,589 L 676,585 L 676,583 L 673,583 L 675,571 L 667,569 L 660,578 L 649,573 L 651,561 L 643,558 L 637,566 L 634,565 L 637,566 L 636,568 L 624,562 L 624,549 L 618,547 L 610,556 L 604,554 Z M 1575,466 L 1576,467 L 1576,469 L 1575,470 L 1575,471 L 1574,472 L 1574,474 L 1573,475 L 1573,477 L 1572,478 L 1572,481 L 1571,482 L 1571,486 L 1570,487 L 1570,507 L 1569,508 L 1568,507 L 1568,486 L 1569,485 L 1569,481 L 1570,480 L 1570,477 L 1571,476 L 1571,474 L 1572,473 L 1572,471 L 1573,470 L 1573,469 L 1574,468 L 1574,467 Z M 1677,464 L 1678,465 L 1680,465 L 1681,464 L 1682,464 L 1683,463 L 1684,463 L 1687,466 L 1687,467 L 1686,468 L 1687,467 L 1689,469 L 1689,470 L 1691,472 L 1691,473 L 1692,474 L 1692,475 L 1693,476 L 1693,478 L 1694,479 L 1694,480 L 1695,481 L 1695,484 L 1696,485 L 1696,489 L 1697,490 L 1697,500 L 1696,501 L 1696,502 L 1693,505 L 1687,505 L 1686,504 L 1684,504 L 1683,503 L 1681,503 L 1680,502 L 1678,502 L 1677,501 L 1676,501 L 1675,500 L 1674,500 L 1673,499 L 1672,499 L 1671,498 L 1670,498 L 1668,496 L 1668,491 L 1667,490 L 1667,489 L 1666,488 L 1666,486 L 1665,485 L 1665,484 L 1664,483 L 1664,482 L 1665,481 L 1665,479 L 1666,478 L 1666,477 L 1668,475 L 1668,474 L 1671,471 L 1671,470 Z M 1604,463 L 1605,464 L 1604,465 L 1603,465 L 1602,466 L 1604,466 L 1604,465 L 1605,464 L 1606,464 L 1607,465 L 1608,465 L 1616,473 L 1616,474 L 1618,476 L 1618,477 L 1619,478 L 1619,479 L 1621,481 L 1621,484 L 1620,485 L 1620,486 L 1619,487 L 1619,489 L 1618,490 L 1618,496 L 1615,499 L 1614,499 L 1613,500 L 1612,500 L 1611,501 L 1610,501 L 1609,502 L 1608,502 L 1607,503 L 1606,503 L 1605,504 L 1603,504 L 1602,505 L 1599,505 L 1598,506 L 1594,506 L 1593,505 L 1591,505 L 1589,503 L 1589,502 L 1588,501 L 1588,490 L 1589,489 L 1589,485 L 1590,484 L 1590,481 L 1591,480 L 1591,478 L 1592,477 L 1592,476 L 1593,475 L 1593,474 L 1594,473 L 1594,472 L 1595,471 L 1595,470 L 1596,469 L 1597,470 L 1596,469 L 1597,468 L 1597,467 L 1600,464 L 1601,464 L 1602,463 Z M 585,462 L 586,462 L 587,463 L 590,463 L 587,463 L 586,462 L 587,461 L 592,461 L 594,463 L 593,464 L 594,465 L 595,464 L 597,466 L 597,468 L 598,469 L 597,470 L 597,471 L 596,472 L 596,473 L 594,475 L 593,475 L 592,476 L 587,476 L 586,475 L 585,475 L 583,473 L 583,472 L 582,471 L 582,467 L 583,466 L 583,464 Z M 529,463 L 530,462 L 531,462 L 532,461 L 536,461 L 537,462 L 541,462 L 542,463 L 544,463 L 545,464 L 546,464 L 547,465 L 548,465 L 551,468 L 551,476 L 546,481 L 545,481 L 544,482 L 543,482 L 542,483 L 540,483 L 539,484 L 537,484 L 536,483 L 537,484 L 536,485 L 532,485 L 531,484 L 531,482 L 530,481 L 530,476 L 529,475 Z M 641,460 L 644,460 L 646,462 L 645,463 L 646,462 L 647,462 L 648,463 L 648,464 L 649,465 L 649,468 L 650,469 L 650,471 L 649,472 L 649,479 L 648,480 L 648,482 L 647,483 L 647,485 L 646,486 L 641,486 L 640,485 L 638,485 L 637,484 L 635,484 L 634,483 L 633,483 L 631,481 L 630,481 L 629,480 L 629,479 L 628,478 L 628,473 L 629,472 L 629,468 L 630,467 L 630,466 L 631,465 L 632,466 L 631,465 L 633,463 L 634,463 L 635,462 L 637,462 L 638,461 L 640,461 Z M 1714,451 L 1716,449 L 1717,449 L 1719,451 L 1719,452 L 1720,453 L 1720,454 L 1721,455 L 1722,454 L 1724,456 L 1723,457 L 1720,457 L 1719,458 L 1718,458 L 1717,457 L 1717,456 L 1716,455 L 1716,454 L 1715,453 L 1715,452 Z M 1588,447 L 1589,448 L 1589,449 L 1584,454 L 1584,455 L 1582,457 L 1582,458 L 1580,460 L 1580,461 L 1579,462 L 1579,463 L 1577,465 L 1576,464 L 1576,463 L 1577,462 L 1577,461 L 1578,460 L 1578,459 L 1580,457 L 1580,456 L 1582,454 L 1582,453 Z M 1621,449 L 1622,448 L 1623,448 L 1624,449 L 1623,448 L 1624,447 L 1625,447 L 1626,446 L 1628,446 L 1629,445 L 1632,445 L 1633,444 L 1652,444 L 1653,445 L 1657,445 L 1658,446 L 1659,446 L 1660,447 L 1662,447 L 1665,450 L 1665,455 L 1664,456 L 1664,457 L 1663,458 L 1663,460 L 1662,461 L 1662,462 L 1660,464 L 1660,465 L 1658,467 L 1657,466 L 1656,467 L 1657,468 L 1657,469 L 1653,473 L 1651,473 L 1650,472 L 1637,472 L 1636,473 L 1633,473 L 1624,464 L 1624,463 L 1623,462 L 1623,461 L 1622,460 L 1622,459 L 1621,458 L 1621,457 L 1620,456 L 1620,451 L 1621,450 Z M 541,433 L 543,433 L 544,434 L 545,434 L 551,440 L 551,441 L 553,443 L 553,444 L 554,445 L 554,446 L 555,447 L 555,450 L 553,452 L 552,451 L 548,451 L 552,451 L 553,452 L 552,453 L 546,453 L 545,452 L 539,452 L 538,451 L 536,451 L 533,448 L 533,446 L 534,445 L 534,443 L 535,442 L 535,441 L 536,440 L 536,439 L 538,437 L 538,436 Z M 1393,432 L 1394,432 L 1395,431 L 1399,431 L 1403,435 L 1403,440 L 1400,443 L 1394,443 L 1392,441 L 1393,440 L 1392,441 L 1391,440 L 1391,438 L 1390,437 L 1391,436 L 1391,434 Z M 635,430 L 639,434 L 639,435 L 641,437 L 641,438 L 642,439 L 642,440 L 643,441 L 643,442 L 644,443 L 644,445 L 645,446 L 644,447 L 644,448 L 642,450 L 641,450 L 640,451 L 634,451 L 633,452 L 626,452 L 624,450 L 624,449 L 623,448 L 623,447 L 622,446 L 622,445 L 621,444 L 622,443 L 622,442 L 623,441 L 623,440 L 625,438 L 625,437 L 631,431 L 632,431 L 633,430 Z M 1217,427 L 1222,427 L 1226,431 L 1226,435 L 1225,436 L 1225,437 L 1223,439 L 1221,439 L 1220,440 L 1219,440 L 1218,439 L 1216,439 L 1214,437 L 1214,436 L 1213,435 L 1213,431 Z M 1613,425 L 1614,424 L 1617,424 L 1618,425 L 1629,425 L 1630,426 L 1629,427 L 1625,427 L 1624,428 L 1622,428 L 1621,427 L 1620,427 L 1621,427 L 1622,428 L 1621,429 L 1619,429 L 1618,430 L 1616,430 L 1615,429 L 1615,428 L 1614,427 L 1614,426 Z M 1560,424 L 1561,423 L 1572,423 L 1573,424 L 1572,425 L 1572,432 L 1571,433 L 1561,433 L 1560,432 L 1561,431 L 1561,425 Z M 1043,423 L 1044,423 L 1045,424 L 1046,424 L 1049,427 L 1049,433 L 1047,435 L 1046,435 L 1045,436 L 1042,436 L 1041,435 L 1042,434 L 1044,434 L 1043,434 L 1042,433 L 1042,434 L 1041,435 L 1040,435 L 1039,434 L 1040,433 L 1039,434 L 1037,432 L 1037,427 L 1040,424 L 1041,424 L 1042,425 L 1041,426 L 1043,426 L 1043,425 L 1042,424 Z M 1520,423 L 1521,422 L 1532,422 L 1533,423 L 1533,425 L 1532,426 L 1532,429 L 1531,430 L 1531,431 L 1530,432 L 1521,432 L 1520,431 Z M 1489,422 L 1490,421 L 1498,421 L 1499,422 L 1503,422 L 1504,423 L 1504,424 L 1503,425 L 1503,428 L 1502,429 L 1502,431 L 1501,432 L 1500,431 L 1500,429 L 1495,429 L 1495,430 L 1494,431 L 1493,430 L 1493,429 L 1492,428 L 1492,427 L 1491,426 L 1491,424 Z M 1442,422 L 1443,421 L 1459,421 L 1460,422 L 1460,423 L 1459,424 L 1459,430 L 1458,431 L 1457,430 L 1446,430 L 1445,429 L 1445,428 L 1444,427 L 1444,426 L 1443,425 L 1443,423 Z M 1408,421 L 1409,420 L 1420,420 L 1421,421 L 1421,425 L 1422,426 L 1422,429 L 1421,430 L 1416,430 L 1415,429 L 1415,428 L 1414,427 L 1416,425 L 1417,425 L 1417,424 L 1416,424 L 1415,425 L 1415,426 L 1414,427 L 1413,426 L 1413,425 L 1410,422 L 1409,422 Z M 858,421 L 860,421 L 861,420 L 863,420 L 864,421 L 865,421 L 868,424 L 868,429 L 864,433 L 860,433 L 859,432 L 858,432 L 857,431 L 858,430 L 857,431 L 856,430 L 856,429 L 855,428 L 855,425 L 856,424 L 856,423 Z M 1690,419 L 1691,420 L 1691,425 L 1692,426 L 1691,427 L 1690,427 L 1689,426 L 1688,426 L 1687,425 L 1687,424 L 1688,423 L 1689,424 L 1688,423 L 1688,422 L 1689,421 L 1689,420 Z M 1375,426 L 1375,420 L 1376,419 L 1386,419 L 1387,420 L 1386,421 L 1385,421 L 1384,422 L 1383,421 L 1382,421 L 1383,421 L 1384,422 L 1378,428 L 1377,427 L 1376,427 Z M 1362,418 L 1363,419 L 1363,420 L 1362,421 L 1362,424 L 1361,425 L 1361,426 L 1360,427 L 1359,426 L 1359,420 L 1358,419 L 1359,418 Z M 1335,419 L 1336,418 L 1346,418 L 1347,419 L 1346,420 L 1346,426 L 1345,427 L 1341,427 L 1340,426 L 1341,425 L 1339,425 L 1338,424 L 1338,423 L 1338,425 L 1339,425 L 1340,426 L 1339,427 L 1337,427 L 1336,426 L 1336,421 L 1335,420 Z M 1304,418 L 1305,417 L 1316,417 L 1318,419 L 1318,422 L 1317,423 L 1317,426 L 1316,427 L 1306,427 L 1305,426 L 1305,420 L 1304,419 Z M 1265,417 L 1266,416 L 1282,416 L 1283,417 L 1285,417 L 1286,418 L 1285,419 L 1285,421 L 1284,422 L 1284,425 L 1283,426 L 1270,426 L 1269,425 L 1270,424 L 1274,424 L 1270,424 L 1269,425 L 1268,424 L 1268,423 L 1267,422 L 1267,420 L 1266,419 L 1266,418 Z M 1229,416 L 1230,415 L 1242,415 L 1243,416 L 1243,423 L 1244,424 L 1243,425 L 1240,425 L 1240,426 L 1239,427 L 1238,426 L 1238,425 L 1237,424 L 1237,423 L 1236,422 L 1239,419 L 1238,418 L 1236,420 L 1235,420 L 1234,419 L 1233,419 L 1231,417 L 1230,417 Z M 1195,423 L 1196,422 L 1196,419 L 1195,418 L 1195,415 L 1196,414 L 1204,414 L 1205,415 L 1208,415 L 1209,416 L 1208,417 L 1207,417 L 1202,422 L 1201,421 L 1201,420 L 1200,419 L 1198,419 L 1198,422 L 1199,421 L 1201,421 L 1202,422 L 1202,423 L 1201,424 L 1201,425 L 1200,426 L 1199,425 L 1199,424 L 1196,424 Z M 1169,423 L 1169,419 L 1168,418 L 1168,416 L 1167,415 L 1168,414 L 1180,414 L 1181,415 L 1180,416 L 1180,418 L 1179,419 L 1179,422 L 1177,424 L 1170,424 Z M 1132,414 L 1133,413 L 1141,413 L 1142,414 L 1146,414 L 1147,415 L 1147,416 L 1146,417 L 1146,419 L 1145,420 L 1145,423 L 1144,424 L 1137,424 L 1136,423 L 1136,422 L 1135,421 L 1135,419 L 1134,418 L 1134,416 Z M 1091,413 L 1092,412 L 1100,412 L 1101,413 L 1109,413 L 1110,414 L 1110,418 L 1109,419 L 1109,422 L 1108,423 L 1097,423 L 1095,421 L 1095,420 L 1094,419 L 1094,418 L 1093,417 L 1093,416 L 1092,415 L 1092,414 Z M 1054,413 L 1055,412 L 1068,412 L 1069,413 L 1069,415 L 1070,416 L 1070,417 L 1071,418 L 1071,420 L 1072,421 L 1071,422 L 1062,422 L 1061,421 L 1062,420 L 1069,420 L 1063,420 L 1061,418 L 1061,417 L 1061,418 L 1060,419 L 1059,418 L 1059,417 L 1057,415 L 1056,415 Z M 576,412 L 578,414 L 578,415 L 579,416 L 579,417 L 580,418 L 580,422 L 581,423 L 581,427 L 580,428 L 580,431 L 577,434 L 575,434 L 574,435 L 572,435 L 571,436 L 570,436 L 569,437 L 565,437 L 564,436 L 563,436 L 558,431 L 558,430 L 554,426 L 554,425 L 553,424 L 553,423 L 558,418 L 559,418 L 560,417 L 561,417 L 562,416 L 563,416 L 564,415 L 565,415 L 566,414 L 568,414 L 569,413 L 572,413 L 573,412 Z M 1016,412 L 1017,411 L 1032,411 L 1033,412 L 1031,414 L 1030,414 L 1025,419 L 1023,419 L 1022,418 L 1023,419 L 1022,420 L 1020,420 L 1019,419 L 1020,418 L 1020,417 L 1020,418 L 1019,419 L 1018,418 L 1018,416 L 1017,415 L 1017,413 Z M 987,412 L 989,410 L 991,410 L 992,411 L 997,411 L 998,412 L 998,414 L 999,415 L 999,419 L 1000,420 L 999,421 L 991,421 L 990,420 L 990,419 L 989,418 L 989,417 L 988,416 L 988,414 L 989,413 L 988,414 L 987,413 Z M 953,411 L 954,410 L 966,410 L 967,411 L 967,414 L 966,415 L 966,419 L 965,420 L 957,420 L 956,419 L 956,418 L 955,417 L 955,416 L 954,415 L 954,412 Z M 595,410 L 598,410 L 599,411 L 604,411 L 605,412 L 608,412 L 609,413 L 611,413 L 612,414 L 613,414 L 614,415 L 615,415 L 616,416 L 617,416 L 619,418 L 619,421 L 618,422 L 618,423 L 617,424 L 617,425 L 615,427 L 615,428 L 613,430 L 613,431 L 610,434 L 608,434 L 607,435 L 606,434 L 602,434 L 601,433 L 599,433 L 598,432 L 597,432 L 595,430 L 595,428 L 594,427 L 594,417 L 592,415 L 592,413 Z M 917,410 L 918,409 L 931,409 L 932,410 L 932,413 L 933,414 L 933,415 L 934,416 L 934,419 L 933,420 L 923,420 L 922,419 L 922,416 L 921,415 L 921,414 L 920,413 L 920,412 L 919,411 L 918,411 Z M 871,409 L 872,408 L 891,408 L 892,409 L 893,409 L 894,410 L 894,415 L 893,416 L 888,416 L 892,416 L 893,417 L 892,418 L 884,418 L 883,417 L 883,416 L 882,415 L 882,414 L 881,414 L 880,413 L 880,414 L 879,415 L 875,411 L 874,411 L 873,410 L 872,410 Z M 838,415 L 838,412 L 839,411 L 839,409 L 838,408 L 839,407 L 849,407 L 851,409 L 845,415 L 845,416 L 844,417 L 843,416 L 843,415 L 841,415 L 840,416 L 839,416 Z M 808,407 L 809,406 L 820,406 L 821,407 L 823,407 L 824,408 L 823,409 L 824,410 L 824,415 L 823,416 L 813,416 L 812,415 L 812,413 L 810,413 L 809,412 L 809,411 L 808,410 Z M 775,407 L 776,406 L 790,406 L 791,407 L 790,408 L 790,411 L 789,412 L 789,414 L 788,415 L 778,415 L 777,414 L 777,411 L 776,410 L 776,408 Z M 1611,406 L 1612,405 L 1624,405 L 1625,406 L 1624,407 L 1612,407 Z M 743,405 L 744,404 L 751,404 L 752,405 L 757,405 L 758,406 L 758,407 L 757,408 L 756,407 L 753,407 L 756,407 L 757,408 L 757,414 L 756,415 L 749,415 L 748,414 L 744,414 L 743,413 Z M 1533,404 L 1534,403 L 1544,403 L 1545,404 L 1544,405 L 1534,405 Z M 1514,404 L 1515,403 L 1523,403 L 1525,405 L 1525,407 L 1526,408 L 1527,408 L 1528,409 L 1527,410 L 1522,410 L 1521,409 L 1521,405 L 1515,405 Z M 1499,404 L 1500,403 L 1504,403 L 1507,406 L 1506,407 L 1504,407 L 1505,407 L 1506,408 L 1505,409 L 1502,409 L 1501,408 L 1501,406 Z M 698,404 L 699,403 L 714,403 L 715,404 L 715,405 L 714,406 L 714,408 L 713,409 L 713,412 L 711,414 L 710,413 L 702,413 L 701,412 L 701,411 L 700,410 L 700,408 L 699,407 L 699,405 Z M 1470,402 L 1471,401 L 1481,401 L 1482,402 L 1481,403 L 1471,403 Z M 1448,402 L 1449,401 L 1462,401 L 1463,402 L 1463,404 L 1465,406 L 1468,406 L 1469,405 L 1470,406 L 1470,407 L 1469,408 L 1462,408 L 1461,407 L 1461,403 L 1449,403 Z M 1435,402 L 1436,401 L 1437,401 L 1439,403 L 1439,405 L 1440,406 L 1445,406 L 1448,403 L 1449,404 L 1449,407 L 1448,408 L 1439,408 L 1438,407 L 1437,407 L 1436,406 L 1436,403 Z M 671,401 L 672,402 L 682,402 L 683,403 L 682,404 L 682,406 L 681,407 L 681,410 L 680,411 L 679,410 L 675,410 L 679,410 L 680,411 L 680,412 L 679,413 L 678,412 L 672,412 L 671,411 L 671,407 L 670,406 L 670,402 Z M 1406,401 L 1407,400 L 1409,400 L 1410,401 L 1410,404 L 1411,405 L 1419,405 L 1419,403 L 1420,402 L 1420,401 L 1421,400 L 1435,400 L 1436,401 L 1435,402 L 1422,402 L 1422,403 L 1421,404 L 1421,406 L 1420,407 L 1408,407 L 1407,406 L 1407,402 Z M 1359,400 L 1360,399 L 1362,399 L 1363,400 L 1363,402 L 1364,403 L 1364,404 L 1368,404 L 1369,403 L 1370,404 L 1370,405 L 1369,406 L 1362,406 L 1361,405 L 1361,403 L 1360,402 L 1360,401 Z M 625,401 L 626,400 L 627,400 L 628,399 L 629,400 L 641,400 L 643,402 L 643,404 L 644,405 L 644,406 L 645,407 L 645,409 L 647,409 L 648,410 L 647,411 L 644,411 L 643,410 L 643,409 L 640,406 L 639,406 L 638,405 L 636,405 L 634,407 L 633,406 L 632,406 L 630,404 L 629,404 L 627,402 L 626,402 Z M 1320,399 L 1321,398 L 1334,398 L 1335,399 L 1336,399 L 1338,401 L 1338,402 L 1339,403 L 1339,404 L 1338,405 L 1334,405 L 1333,404 L 1333,400 L 1321,400 Z M 1307,399 L 1308,398 L 1309,398 L 1310,399 L 1310,400 L 1311,401 L 1311,402 L 1312,403 L 1318,403 L 1319,402 L 1320,403 L 1320,404 L 1319,405 L 1309,405 L 1308,404 L 1308,400 Z M 1278,398 L 1279,397 L 1285,397 L 1286,398 L 1286,399 L 1287,400 L 1287,401 L 1288,402 L 1292,402 L 1293,401 L 1293,400 L 1294,399 L 1295,400 L 1295,403 L 1294,404 L 1285,404 L 1284,403 L 1284,399 L 1279,399 Z M 1258,398 L 1259,397 L 1261,397 L 1262,398 L 1262,400 L 1263,401 L 1263,402 L 1270,402 L 1270,400 L 1271,399 L 1272,400 L 1272,403 L 1271,404 L 1259,404 L 1258,403 Z M 1243,397 L 1244,396 L 1256,396 L 1257,397 L 1256,398 L 1244,398 Z M 1229,396 L 1231,396 L 1232,397 L 1232,401 L 1233,402 L 1232,403 L 1230,403 L 1229,402 L 1229,398 L 1228,397 Z M 1182,397 L 1183,396 L 1184,397 L 1184,400 L 1189,400 L 1189,399 L 1190,398 L 1190,397 L 1191,396 L 1192,397 L 1192,401 L 1191,402 L 1183,402 L 1182,401 Z M 1191,396 L 1192,395 L 1203,395 L 1204,396 L 1204,397 L 1203,398 L 1202,397 L 1192,397 Z M 1146,396 L 1146,400 L 1145,401 L 1138,401 L 1137,400 L 1138,399 L 1141,399 L 1142,398 L 1143,398 L 1144,397 L 1144,396 L 1145,395 Z M 1145,395 L 1146,394 L 1157,394 L 1158,395 L 1157,396 L 1146,396 Z M 1061,398 L 1060,399 L 1051,399 L 1050,398 L 1050,396 L 1051,395 L 1052,396 L 1052,397 L 1058,397 L 1058,395 L 1059,394 L 1060,395 L 1060,397 Z M 1121,394 L 1122,393 L 1132,393 L 1133,394 L 1132,395 L 1122,395 Z M 1082,394 L 1083,393 L 1084,393 L 1085,394 L 1085,398 L 1093,398 L 1094,397 L 1095,398 L 1095,399 L 1094,400 L 1084,400 L 1083,399 L 1083,397 L 1082,396 Z M 1068,398 L 1068,394 L 1070,392 L 1082,392 L 1083,393 L 1082,394 L 1071,394 L 1070,395 L 1070,398 L 1069,399 Z M 1000,392 L 999,393 L 999,394 L 998,395 L 998,396 L 997,397 L 992,397 L 991,396 L 995,392 L 997,392 L 998,391 L 999,391 Z M 1642,391 L 1643,390 L 1653,390 L 1654,391 L 1653,392 L 1643,392 Z M 971,391 L 972,390 L 982,390 L 983,391 L 982,392 L 972,392 Z M 965,395 L 965,396 L 964,397 L 947,397 L 946,396 L 947,395 L 954,395 L 954,394 L 955,393 L 955,392 L 957,390 L 962,390 L 964,392 L 964,394 Z M 1589,390 L 1590,389 L 1609,389 L 1610,390 L 1609,391 L 1590,391 Z M 932,390 L 933,389 L 943,389 L 944,390 L 943,391 L 933,391 Z M 894,390 L 895,389 L 896,389 L 897,390 L 897,393 L 898,394 L 903,394 L 904,395 L 903,396 L 896,396 L 895,395 L 895,391 Z M 1545,389 L 1546,388 L 1571,388 L 1572,389 L 1571,390 L 1546,390 Z M 858,389 L 859,388 L 869,388 L 870,389 L 869,390 L 859,390 Z M 1503,388 L 1504,387 L 1525,387 L 1526,388 L 1525,389 L 1504,389 Z M 825,392 L 826,391 L 826,388 L 827,387 L 845,387 L 848,390 L 848,391 L 850,393 L 849,394 L 846,394 L 845,395 L 844,394 L 844,389 L 833,389 L 832,390 L 829,390 L 828,389 L 829,390 L 828,391 L 828,392 L 827,393 L 826,393 Z M 545,388 L 546,387 L 548,387 L 551,390 L 552,390 L 553,391 L 552,392 L 551,392 L 550,393 L 549,393 L 548,392 L 548,391 L 547,390 L 547,389 L 546,389 Z M 787,387 L 788,386 L 795,386 L 796,387 L 797,386 L 798,387 L 798,390 L 799,391 L 802,391 L 803,392 L 802,393 L 795,393 L 794,392 L 795,391 L 795,389 L 794,388 L 788,388 Z M 757,386 L 758,385 L 770,385 L 771,386 L 770,387 L 758,387 Z M 1370,385 L 1371,384 L 1396,384 L 1397,385 L 1396,386 L 1371,386 Z M 720,385 L 721,384 L 723,384 L 725,386 L 725,387 L 726,388 L 729,388 L 730,389 L 730,390 L 729,391 L 723,391 L 722,390 L 722,389 L 721,388 L 721,386 Z M 1322,384 L 1323,383 L 1334,383 L 1335,384 L 1334,385 L 1323,385 Z M 1273,383 L 1274,382 L 1293,382 L 1294,383 L 1293,384 L 1274,384 Z M 1233,382 L 1234,381 L 1248,381 L 1249,382 L 1248,383 L 1234,383 Z M 1183,381 L 1184,380 L 1201,380 L 1202,381 L 1201,382 L 1184,382 Z M 632,383 L 632,381 L 633,380 L 646,380 L 647,381 L 646,382 L 634,382 L 634,383 L 633,384 Z M 1142,380 L 1143,379 L 1156,379 L 1157,380 L 1156,381 L 1143,381 Z M 613,380 L 614,379 L 621,379 L 623,381 L 623,385 L 622,386 L 621,385 L 621,382 L 620,381 L 614,381 Z M 567,380 L 568,379 L 572,379 L 573,380 L 573,382 L 574,383 L 574,385 L 573,386 L 572,386 L 571,385 L 571,382 L 570,381 L 568,381 Z M 1006,378 L 1007,377 L 1018,377 L 1019,378 L 1018,379 L 1007,379 Z M 948,377 L 949,376 L 977,376 L 978,377 L 977,378 L 949,378 Z M 874,376 L 875,375 L 915,375 L 916,376 L 915,377 L 875,377 Z M 811,375 L 812,374 L 844,374 L 845,375 L 844,376 L 812,376 Z M 710,374 L 711,373 L 773,373 L 774,374 L 773,375 L 711,375 Z M 590,373 L 591,372 L 659,372 L 660,373 L 659,374 L 591,374 Z M 994,291 L 995,290 L 1042,290 L 1043,291 L 1042,292 L 995,292 Z M 355,210 L 356,209 L 369,209 L 370,210 L 370,220 L 369,221 L 365,221 L 369,221 L 370,222 L 369,223 L 356,223 L 355,222 Z" fill="black" fill-rule="evenodd"/>
</svg>