<?xml version="1.0" encoding="UTF-8" standalone="no"?>
<svg
   width="750"
   height="250"
   viewBox="0 0 750 250"
   version="1.1"
   id="svg16"
   sodipodi:docname="sdkfz_251_half_track_black.svg"
   inkscape:version="1.4.2 (f4327f4, 2025-05-13)"
   xmlns:inkscape="http://www.inkscape.org/namespaces/inkscape"
   xmlns:sodipodi="http://sodipodi.sourceforge.net/DTD/sodipodi-0.dtd"
   xmlns="http://www.w3.org/2000/svg"
   xmlns:svg="http://www.w3.org/2000/svg">
  <defs
     id="defs16" />
  <sodipodi:namedview
     id="namedview16"
     pagecolor="#ffffff"
     bordercolor="#000000"
     borderopacity="0.25"
     inkscape:showpageshadow="2"
     inkscape:pageopacity="0.0"
     inkscape:pagecheckerboard="0"
     inkscape:deskcolor="#d1d1d1"
     inkscape:zoom="0.55616943"
     inkscape:cx="706.6192"
     inkscape:cy="304.76324"
     inkscape:window-width="2560"
     inkscape:window-height="1377"
     inkscape:window-x="-8"
     inkscape:window-y="-8"
     inkscape:window-maximized="1"
     inkscape:current-layer="svg16" />
  <path
     d="m 425.98977,185.77091 v 6.26475 l 0.7831,0.78309 v 0.78309 l 1.17464,1.17464 h 1.17464 l 0.39155,0.39155 h 1.56618 l 0.39155,-0.39155 h 0.78309 l 0.7831,-0.78309 0.39154,0.39155 h 1.17465 -0.39155 l -0.39155,-0.39155 -0.39155,0.39155 -0.39154,-0.39155 v -0.39155 l 0.39154,-0.39154 v -0.39155 l 0.7831,-0.78309 v -6.26475 h -0.39155 l -1.56619,-1.56619 h -0.39154 l -0.39155,-0.39155 h -2.74083 l -0.39154,0.39155 h -0.39155 l -1.56619,1.56619 z"
     fill="#000000"
     fill-rule="evenodd"
     id="path1"
     style="stroke-width:0.391547" />
  <path
     d="m 501.16677,183.42163 -0.39155,0.39154 h -0.39154 l -0.39155,0.39155 h -0.39155 l -1.95773,1.95773 v 1.56619 l -0.39155,0.39155 v 0.78309 l 0.39155,0.39155 v 2.74083 l 0.39154,0.39154 h 0.39155 l 0.39155,0.39155 -0.39155,0.39155 v 0.39154 l 0.39155,0.39155 v 0.39155 h 0.39155 l 0.39154,0.39154 h 0.39155 l 0.39155,0.39155 h 3.13237 l 0.39155,-0.39155 h 0.39154 l 0.39155,-0.39154 v -0.39155 l 0.39155,-0.39155 v -0.78309 l 0.78309,-0.78309 v -6.26475 h -0.39154 l -0.7831,-0.7831 v -0.39154 l 0.39155,-0.39155 h 1.17464 -1.17464 l -0.39155,0.39155 h -0.39155 l -0.78309,-0.7831 h -0.78309 l -0.39155,-0.39154 z"
     fill="#000000"
     fill-rule="evenodd"
     id="path2"
     style="stroke-width:0.391547" />
  <path
     d="m 358.25217,183.42163 -0.39155,0.39154 h -0.78309 l -0.39155,0.39155 h -0.39154 l -1.56619,1.56619 h -0.39155 v 6.26475 h 0.39155 l 0.78309,0.78309 v 1.17464 l 0.7831,0.78309 h 0.39154 l 0.39155,0.39155 h 3.13237 l 0.39155,-0.39155 h 0.39155 l 0.39154,-0.39154 v -0.39155 l 0.39155,-0.39155 v -0.39154 l 0.7831,-0.7831 v -6.65629 l -0.39155,-0.39155 h -0.39155 l -1.56619,-1.56619 h -0.78309 l -0.39155,-0.39154 z"
     fill="#000000"
     fill-rule="evenodd"
     id="path3"
     style="stroke-width:0.391547" />
  <path
     d="m 569.68747,186.554 v 5.09011 l 0.39155,0.39155 h 3.13237 l 1.17464,1.17464 v 0.39154 l 1.17464,1.17464 h 3.91547 l 0.39155,-0.39154 h 0.39154 l 1.56619,-1.56619 v -0.39155 l 0.39155,-0.39154 v -0.7831 l 0.78309,-0.78309 h 0.39155 l 0.39154,-0.39155 h 0.7831 l 0.39155,-0.39154 h 1.17464 l 0.39154,-0.39155 h 1.17464 v -1.95774 l -0.39154,-0.39154 v -1.95774 l -0.39155,-0.39154 v -1.17464 h -0.78309 l -0.39155,0.39154 h -0.78309 l -0.39155,0.39155 h -0.7831 l -0.39154,0.39155 h -1.17464 l -0.39155,0.39154 h -0.78309 l -1.17464,-1.17464 h -0.39155 l -0.39155,-0.39154 h -0.39154 l -0.39155,-0.39155 h -2.34928 l -0.39155,0.39155 h -0.78309 l -0.39155,0.39154 h -0.39155 l -1.17464,1.17464 v 0.7831 l -0.39154,0.39154 h -2.34928 z"
     fill="#000000"
     fill-rule="evenodd"
     id="path4"
     style="stroke-width:0.391547" />
  <path
     d="m 704.77113,144.65849 h -1.56619 l -0.39154,0.39154 h -1.95774 l -0.39154,0.39155 h -0.7831 l -1.56619,1.56619 v 0.39155 l -0.39154,0.39154 v 0.7831 l -0.39155,0.39154 v 0.39155 l -0.39155,0.39155 v 0.78309 l -0.39154,0.39155 v 0.78309 l -1.17464,1.17464 h -1.17464 l -0.39155,0.39155 -0.39155,-0.39155 h -1.56618 l -0.39155,-0.39155 h -0.7831 v 1.17464 l 0.39155,0.39155 v 1.17464 l 0.39155,0.39155 v 1.56619 l -0.39155,0.39154 h -0.39155 v 0.39155 h 1.56619 l 0.7831,0.78309 v 2.34929 l 0.39154,0.39154 v 0.7831 l 0.39155,0.39154 v 1.17464 l 0.39155,0.39155 v 0.39155 l 1.17464,1.17464 h 0.78309 l 0.39155,0.39154 h 1.17464 l 0.39154,0.39155 h 0.7831 l 0.39155,0.39155 h 0.78309 l 0.39155,0.39154 h 0.39154 l 0.39155,-0.39154 h 0.78309 l 0.39155,-0.39155 v -0.78309 l 0.39155,-0.39155 v -1.56619 l 0.39154,-0.39154 v -1.56619 l 0.39155,-0.39155 v -1.56619 l 0.39155,-0.39154 v -1.17464 l 0.39154,-0.39155 v -1.17464 l 0.39155,-0.39155 v -1.56618 l 0.39155,-0.39155 v -1.56619 l 0.39154,-0.39155 v -1.56618 l 0.39155,-0.39155 v -1.56619 l 0.39155,-0.39154 v -3.13238 l -0.39155,-0.39155 h -0.78309 z"
     fill="#000000"
     fill-rule="evenodd"
     id="path5"
     style="stroke-width:0.391547" />
  <path
     d="m 223.56005,176.76533 0.39155,6.6563 2.74083,-0.39155 7.83094,14.87878 -1.56619,1.95773 4.69856,4.30702 2.34928,-1.56619 9.39713,4.30702 -0.7831,2.34928 5.09011,1.95773 1.56619,-2.34928 8.61403,2.34928 0.78309,3.13238 4.69857,1.56618 1.56618,-2.74082 9.39713,2.74082 0.78309,3.13238 4.69856,0.78309 0.7831,-2.34928 9.39712,1.95774 -0.39155,2.34928 3.91547,1.17464 3.13238,-2.34928 7.43939,0.78309 1.95773,3.13237 h 5.09011 l 0.39155,-2.34928 h 8.61403 l 0.39155,2.34928 h 5.0901 l 0.7831,-2.34928 h 8.22248 l 0.7831,2.34928 h 5.0901 l 0.39155,-2.34928 h 8.61403 l 0.39155,2.34928 h 5.09011 l 0.39154,-2.34928 h 8.61404 l 0.39154,2.34928 h 5.09011 l 0.39155,-2.34928 h 8.61403 l 0.39155,2.34928 h 5.0901 l 0.39155,-2.34928 h 8.22249 l 0.39154,2.34928 h 4.69856 l 0.39155,-2.34928 h 8.22249 l 0.78309,2.34928 h 4.30701 l 0.7831,-2.34928 h 8.22248 l 1.17464,2.74083 5.09011,-0.39155 0.39155,-2.34928 h 8.22248 l 0.39155,2.34928 h 4.69856 l 0.78309,-2.34928 h 8.22249 l 0.39155,2.34928 h 4.69856 l 0.39154,-2.34928 h 8.61403 l 0.39155,2.34928 h 4.69856 l 0.39155,-2.34928 h 8.61403 l 0.39155,2.34928 h 5.09011 l 0.39154,-2.34928 h 9.00558 l 0.39155,2.34928 h 5.48165 l 0.39155,-2.34928 h 9.00558 l 0.39155,2.34928 h 4.69856 l 0.39154,-2.34928 h 8.22249 l 0.39155,2.34928 h 4.69856 l 0.78309,-2.34928 h 8.61403 l 0.39155,2.34928 h 4.69856 l 0.78309,-2.34928 h 8.22249 l 0.39155,2.34928 h 5.0901 l 1.17465,-2.74082 9.78867,2.74082 3.13237,-3.91546 8.61403,1.95773 3.13238,-3.52392 7.43939,-1.17464 2.74082,2.74083 4.69857,-0.7831 v -2.74083 l 10.18021,-1.95773 2.34929,2.34928 4.30701,-1.17464 1.56619,-3.13237 13.70414,-1.56619 1.95773,-1.56619 -1.56618,-1.95773 6.65629,-7.43939 2.74083,0.78309 3.91547,-6.26475 -3.13238,-1.95773 3.52392,-12.13796 1.95774,2.34929 -0.39155,-7.04785 h -3.13237 l -3.91547,-10.18022 3.13237,-0.78309 -1.95773,-3.52392 1.56619,-0.78309 -3.52392,-2.34929 -3.91547,1.56619 -9.00558,-7.43939 1.56619,-1.95773 -5.09011,-1.95774 -5.87321,2.34928 -6.26474,-0.39154 -0.39155,-2.34928 -6.26475,0.39154 0.39155,1.95774 -10.96332,0.78309 -0.39154,-2.74083 h -3.91547 l -2.34928,3.52392 h -8.22249 l -1.17464,-2.74082 h -4.69856 l -0.39155,3.13237 -10.57176,0.39155 -1.17464,-2.74083 h -4.30702 l -0.78309,3.13237 -10.18022,0.39155 -0.39155,-2.74083 h -5.0901 l -0.7831,2.74083 h -9.39712 l -1.17464,-2.74083 h -3.52392 l -1.95774,2.74083 -7.83094,0.39155 -2.74082,-3.13238 -5.09011,0.39155 -2.34928,2.74083 h -15.27033 l -1.56619,-3.13238 -4.69856,0.39155 v 2.74083 h -10.57177 l -1.17464,-3.13238 -4.69856,0.39155 -0.39155,2.34928 -9.00557,0.39155 -1.95774,-2.74083 h -5.8732 v 2.74083 h -10.96331 l -1.17464,-3.13238 -4.69856,0.39155 -0.7831,2.74083 h -13.31259 l 1.56619,-0.7831 -1.95774,-1.95773 h -6.26475 l -0.78309,2.74083 h -9.00558 l -1.17464,-3.13238 -3.91547,0.39155 -0.78309,2.74083 h -9.39713 l -1.17464,-3.13238 -4.69856,0.39155 -0.39154,2.74083 h -9.00558 l -1.56619,-3.13238 h -3.91547 l -1.56619,2.74083 h -16.44496 l 1.95773,-0.78309 -1.95773,-1.95774 h -5.09011 l -0.7831,2.74083 h -9.78867 l -0.39154,-2.74083 h -5.09011 l -0.7831,2.74083 h -9.00557 l -1.17465,-3.91547 h -3.91546 l -1.56619,2.74083 -8.22248,-0.78309 -2.74083,-3.52392 -3.91547,-0.39155 -1.56619,2.34928 -9.00558,-0.78309 -1.17464,-3.52393 -4.69856,-0.39154 -3.91547,2.34928 -6.65629,-1.17464 v -2.74083 l -5.09011,-1.17464 -1.95774,2.74083 -9.39712,-0.7831 1.17464,-2.34928 -1.56619,-0.78309 -7.43939,2.34928 0.39155,2.74083 -14.48723,7.04784 v 2.74083 l -4.30702,4.69856 -2.74083,15.27033 z m 187.94249,38.37159 v 0.39155 l -0.39155,0.39154 v 0.39155 l 0.39155,0.39155 v 0.39154 l -0.39155,0.39155 h -6.65629 l -0.39155,-0.39155 0.39155,-0.39154 h 1.17464 l 0.39155,-0.39155 h 0.39154 l 0.39155,0.39155 h 2.74083 -2.74083 l -0.39155,-0.39155 0.39155,-0.39155 h 0.39155 l 0.39154,-0.39154 h 0.39155 l 0.39155,-0.39155 h 0.39154 l 0.39155,-0.39155 h 0.39155 l 0.39154,-0.39154 h 0.39155 l 0.39155,0.39154 h 0.39154 z m -109.24157,-2.34928 0.39155,-0.39155 h 0.39154 l 0.39155,-0.39154 h 0.39155 l 0.78309,0.78309 h 0.39155 l 0.78309,0.78309 h 0.39155 l 0.78309,0.7831 h 0.39155 l 0.39155,0.39154 h 0.39154 l 0.39155,0.39155 h 0.39155 l 0.39154,0.39155 h 0.39155 l 0.39155,0.39154 h 0.39154 l 0.39155,0.39155 h 0.39155 l 0.39154,0.39155 -0.39154,0.39154 h -1.95774 l -0.39154,-0.39154 0.39154,-0.39155 -0.39154,0.39155 h -2.34928 l -0.39155,-0.39155 h -1.95774 l -0.39154,-0.39155 0.39154,-0.39154 -0.39154,0.39154 h -0.39155 l -0.39155,-0.39154 0.39155,-0.39155 v -1.56619 l -0.39155,-0.39154 h -0.39154 z m -43.4617,-7.83094 0.39155,-0.39154 h 0.39154 l 0.39155,-0.39155 h 1.56619 l 0.39155,-0.39155 h 1.56618 l 0.39155,0.39155 -0.39155,0.39155 v 1.17464 l 0.39155,0.39154 -0.39155,0.39155 h -0.39154 l -0.39155,-0.39155 h -1.17464 l -0.39155,-0.39154 h -0.78309 l -0.39155,-0.39155 h -0.78309 z m 276.43208,-3.13237 h 0.78309 l 0.39155,-0.39155 h 2.74082 l 0.39155,0.39155 h 0.39155 l 1.56619,1.56618 v 0.39155 l 0.39154,0.39155 v 0.39155 l 0.39155,0.39154 v 1.95774 l -0.39155,0.39154 -0.39154,-0.39154 v -1.17464 1.17464 l 0.39154,0.39154 v 0.7831 l -1.95773,1.95773 h -0.7831 l -0.39154,-0.39155 h -1.56619 1.56619 l 0.39154,0.39155 -0.39154,0.39155 h -1.95774 l -0.39154,-0.39155 h -0.7831 l -0.39154,-0.39155 h -0.39155 l -1.17464,-1.17464 v -0.39154 l -0.39155,-0.39155 v -0.39155 l -0.39155,-0.39154 v -2.34928 l 0.39155,-0.39155 v -0.39155 z m -72.43617,0.39154 h 0.39155 l 0.39154,-0.39154 h 0.39155 l 0.39155,-0.39155 h 3.13237 l 0.39155,0.39155 h 0.39154 l 1.56619,1.56618 v 0.39155 l 0.39155,0.39155 v 3.52392 l -0.39155,0.39155 v 0.39154 l -1.17464,1.17464 h -0.39155 l -0.39154,0.39155 h -1.17464 l -0.39155,0.39155 h -1.56619 l -0.39154,-0.39155 h -0.39155 l -0.39155,-0.39155 h -0.39154 l -1.56619,-1.56618 v -0.7831 l -0.39155,-0.39154 v -2.34928 l 0.39155,-0.39155 v -0.39155 l 0.39154,-0.39155 v -0.39154 z m -70.47843,-0.78309 h 3.91546 l 0.7831,0.78309 h 0.39154 l 0.39155,0.39155 v 0.39155 l 0.7831,0.78309 v 0.7831 l 0.39154,0.39154 v 1.95774 l -0.39154,0.39154 v 0.39155 l -0.39155,0.39155 v 0.39154 l -0.7831,0.7831 -0.39154,-0.39155 0.39154,0.39155 -0.78309,0.78309 h -0.39155 l -0.39154,0.39155 h -2.34928 l -0.39155,-0.39155 h -0.78309 l -0.7831,-0.78309 h -0.39154 l -0.7831,-0.7831 v -0.39154 l -0.39155,-0.39155 v -0.78309 l -0.39154,-0.39155 v -1.56619 l 0.39154,-0.39154 v -0.7831 z m -72.04462,0 h 3.52392 l 0.39154,0.39155 h 0.7831 l 0.78309,0.78309 v 0.39155 l 0.7831,0.78309 v 0.39155 l 0.39154,0.39155 v 2.74082 l -0.39154,0.39155 v 0.39155 l -0.7831,0.78309 -0.39155,-0.39155 -0.39154,0.39155 0.39154,0.39155 -0.78309,0.78309 h -0.78309 l -0.39155,0.39155 h -2.34928 l -0.39155,-0.39155 h -0.39154 l -0.39155,-0.39155 h -0.39155 l -1.56619,-1.56618 v -1.17464 l -0.39154,-0.39155 v -1.56619 l 0.39154,-0.39154 v -0.7831 z m 228.27181,-4.30701 h 3.13237 l 1.95774,1.95773 v 0.39155 l 0.39154,0.39154 v 2.34928 l -0.39154,0.39155 v 0.39155 l -0.39155,0.39154 -0.39155,-0.39154 0.39155,0.39154 v 0.39155 l -1.56619,1.56619 h -0.39154 l -0.39155,0.39155 h -0.39155 l -0.39154,0.39154 h -1.17464 l -0.39155,-0.39154 h -0.7831 l -0.39154,-0.39155 h -0.39155 l -0.78309,-0.78309 v -0.39155 l -0.7831,-0.7831 v -3.52392 l 2.34928,-2.34928 h 0.39155 z m -22.70972,0 h 1.56619 l 0.78309,0.78309 h 0.39155 l 1.56619,1.56619 v 0.39154 l -0.39155,0.39155 v 0.78309 -0.78309 l 0.39155,-0.39155 0.39154,0.39155 v 2.34928 l -0.39154,0.39155 v 0.78309 l -1.56619,1.56619 h -0.39155 l -0.39154,-0.39155 h -1.17465 1.17465 l 0.39154,0.39155 -0.39154,0.39155 h -1.95774 l -1.95773,-1.95774 v -1.17464 l -0.39155,-0.39155 v -0.39154 l 0.39155,-0.39155 v -3.13237 l 0.39154,-0.39155 h 0.39155 l 0.39155,-0.39155 h 0.39154 z m -48.94335,0 h 1.56618 l 0.39155,0.39154 h 0.78309 l 0.39155,0.39155 h 0.39155 l 0.78309,0.78309 v 0.39155 l 0.39155,0.39155 v 0.39154 l 0.39154,0.39155 v 1.95773 l -0.39154,0.39155 v 0.39155 l -0.39155,0.39154 v 0.39155 l -1.17464,1.17464 h -0.39155 l -0.78309,0.7831 h -0.39155 l -0.39154,0.39154 h -1.56619 l -0.39155,-0.39154 h -0.39155 l -0.39154,-0.39155 h -0.39155 l -0.78309,-0.78309 v -0.39155 l -0.39155,-0.39155 v -0.39155 l -0.39155,-0.39154 v -2.74083 l 2.74083,-2.74083 h 0.39155 l 0.39155,0.39155 h 1.17464 -1.17464 l -0.39155,-0.39155 z m -23.49282,0 h 1.56619 l 0.39155,0.39154 h 0.78309 l 0.7831,0.7831 h 0.39154 l 1.17464,1.17464 v 0.39154 l 0.39155,0.39155 v 2.34928 l -0.39155,0.39155 v 0.39154 l -0.39154,0.39155 v 0.39155 l -1.17464,1.17464 h -0.39155 l -0.39155,0.39155 h -1.95773 l -0.39155,-0.39155 h -0.78309 l -2.34928,-2.34928 v -0.39155 l -0.39155,-0.39155 v -1.95773 l 0.39155,-0.39155 v -0.39154 l 1.95773,-1.95774 h 0.39155 z m -48.16026,0 h 1.95774 l 0.39154,0.39154 h 0.39155 l 0.39155,0.39155 h 0.39154 l 1.17464,1.17464 v 0.39155 l 0.39155,0.39154 v 1.95774 l -0.39155,0.39154 v 0.7831 l -0.78309,0.78309 -0.39155,-0.39155 0.39155,0.39155 v 0.39155 l -1.17464,1.17464 h -0.39155 l -0.39154,0.39155 h -2.74083 l -0.39155,-0.39155 h -0.39155 l -0.78309,-0.78309 v -0.39155 l -0.78309,-0.7831 v -0.39154 l -0.39155,-0.39155 v -2.34928 l 0.78309,-0.78309 v -0.39155 l 0.7831,-0.78309 h 0.39154 l 0.7831,-0.7831 h 0.39154 z m -23.49281,0 h 1.56619 l 0.39155,0.39154 h 0.78309 l 2.74083,2.74083 v 2.74083 l -0.39155,0.39154 v 0.39155 l -1.95773,1.95774 h -0.7831 l -0.39154,0.39154 h -0.39155 l -0.39155,-0.39154 h -0.78309 l -1.95774,-1.95774 0.39155,-0.39155 -0.39155,0.39155 -0.39154,-0.39155 v -0.39154 l -0.39155,-0.39155 v -1.17464 l -0.39155,-0.39155 v -1.56618 l 1.95774,-1.95774 h 0.39154 z m -48.55181,0 h 2.34928 l 0.39155,0.39154 h 0.39155 l 1.95773,1.95774 v 0.78309 l 0.39155,0.39155 v 1.56618 l -0.39155,0.39155 v 0.39155 l -0.78309,0.78309 v 0.39155 l -1.17464,1.17464 H 335.934 l -0.39155,0.39155 h -0.78309 l -0.39155,0.39154 h -1.17464 l -0.39155,-0.39154 h -0.78309 l -1.56619,-1.56619 v -0.39155 l -0.39154,-0.39155 v -0.78309 l -0.39155,-0.39155 v -1.17464 l 0.39155,-0.39154 v -0.39155 l 0.39154,-0.39155 v -0.39154 l 1.95774,-1.95774 h 0.39154 z m -23.88436,0 h 1.17464 l 0.39155,0.39154 h 0.39155 l 0.39154,-0.39154 h 0.7831 l 0.39155,0.39154 h 0.39154 l 1.56619,1.56619 v 0.39155 l 0.39155,0.39154 v 0.39155 l 0.39154,0.39155 v 1.56618 l -0.39154,0.39155 v 0.78309 l -0.39155,0.39155 v 0.39155 l -1.17464,1.17464 h -0.39155 l -0.39154,0.39155 h -3.13238 l -0.39155,-0.39155 h -0.39154 l -1.56619,-1.56619 v -0.39155 l -0.39155,-0.39154 v -0.7831 l -0.39154,-0.39154 v -1.17464 l 0.39154,-0.39155 v -0.78309 z m 305.40655,-2.74083 h 0.39154 l 0.39155,-0.39155 h 0.78309 l 0.39155,-0.39155 h 1.95773 l 0.39155,0.39155 h 0.39155 l 0.39154,0.39155 h 0.39155 l 1.17464,1.17464 v 0.39154 l 0.39155,0.39155 v 3.13238 l -0.39155,0.39154 v 0.39155 l -0.78309,0.78309 -0.39155,-0.39154 0.39155,0.39154 -0.7831,0.7831 h -0.78309 l -0.39155,0.39154 h -2.34928 L 615.89,201.82433 h -0.7831 l -1.17464,-1.17464 v -0.39155 l -0.78309,-0.78309 v -2.74083 l 0.39155,-0.39155 v -0.39155 l 0.78309,-0.78309 v -0.39155 z m -10.57177,-3.52392 h 0.39155 l 0.39154,-0.39155 h 1.17465 l 0.39154,0.39155 h 1.17464 l 0.39155,-0.39155 h 0.39155 l 0.39154,0.39155 h 0.39155 l 0.39155,0.39154 -0.39155,0.39155 0.39155,0.39155 0.39154,-0.39155 0.7831,0.78309 v 0.7831 l 0.39154,0.39154 v 1.56619 l -0.39154,0.39155 v 0.39154 l -0.39155,0.39155 v 0.39155 l -1.17464,1.17464 h -0.39155 l -0.39154,0.39155 h -2.34928 l -0.39155,-0.39155 h -0.39155 l -2.34928,-2.34928 v -0.39155 l -0.39155,-0.39155 v -2.34928 z m 27.40828,-1.95774 0.39155,0.39155 h 0.39154 l 0.39155,0.39155 h 0.39155 l 1.17464,1.17464 v 1.17464 l 0.39155,0.39154 v 1.17464 l -0.39155,0.39155 v 0.78309 l -2.34928,2.34929 h -0.39155 l -0.39155,0.39154 h -0.78309 l -0.39155,0.39155 h -1.17464 l -0.39154,-0.39155 h -0.39155 l -0.39155,-0.39154 h -0.39154 l -1.56619,-1.56619 v -0.39155 l 0.39154,-0.39155 0.39155,0.39155 -0.39155,-0.39155 -0.39154,0.39155 -0.39155,-0.39155 v -2.34928 l 0.39155,-0.39154 v -0.39155 l 0.78309,-0.78309 v -0.39155 l 0.7831,-0.78309 h 0.39154 l 0.39155,-0.39155 h 0.39155 l 0.39154,-0.39155 z m -370.01177,-1.56619 0.39155,0.39155 v 0.39155 l 0.78309,0.78309 v 0.39155 l 0.39155,0.39155 v 0.39154 l 1.17464,1.17464 v 0.39155 l 0.39154,0.39155 v 0.39154 l 0.39155,0.39155 v 0.39155 l 0.78309,0.78309 v 0.39155 l 0.39155,0.39154 v 0.7831 l 0.39155,0.39154 v 0.39155 l -1.17464,1.17464 h -0.39155 l -0.39155,0.39155 h -0.39154 l -0.39155,0.39155 h -1.17464 l -0.39155,0.39154 h -0.39154 l -0.39155,0.39155 h -1.17464 l -0.39155,0.39155 h -2.34928 l -0.78309,-0.7831 v -5.09011 l 0.39154,-0.39154 v -3.91547 l 0.39155,-0.39155 v -0.39155 l 0.39155,-0.39154 h 0.39154 l 0.39155,0.39154 h 1.56619 -1.17464 l -0.39155,-0.39154 0.39155,-0.39155 h 1.56618 l 0.39155,-0.39155 z m 225.53098,-0.39154 0.39155,0.39154 v 0.39155 l 0.39155,0.39155 v 0.39154 l 0.39154,0.39155 v 2.34928 l -0.39154,0.39155 v 0.39155 l -0.39155,0.39154 v 0.39155 l -1.56619,1.56619 h -0.39154 l -0.39155,0.39154 h -1.17464 l -0.39155,0.39155 h -0.39155 l -0.39154,-0.39155 h -0.7831 l -0.39154,-0.39154 h -0.39155 l -0.39155,-0.39155 h -0.39154 l -0.7831,-0.78309 v -0.39155 l -0.39154,-0.39155 v -1.17464 l 0.39154,-0.39154 0.39155,0.39154 v 0.7831 -0.39155 l 0.39155,-0.39155 h -0.39155 l -0.39155,-0.39154 0.39155,-0.39155 h 1.17464 l 0.39155,-0.39155 h 0.39154 l 1.17464,-1.17464 v -0.39155 l 0.39155,-0.39154 v -0.39155 l 1.17464,-1.17464 0.7831,0.78309 h 1.17464 z m -236.49429,-0.39155 0.39154,0.39155 h 0.39155 l 0.39155,0.39154 h 0.78309 l 0.39155,0.39155 h 0.39154 l 0.39155,0.39155 -0.39155,0.39154 h -0.39154 0.78309 l 0.39155,-0.39154 0.39154,0.39154 v 10.18022 l -0.78309,0.7831 h -1.95773 l -0.39155,-0.39155 h -1.17464 l -0.39155,-0.39155 h -0.78309 l -0.39155,-0.39154 h -0.39154 l -0.39155,-0.39155 h -0.39155 l -0.39155,-0.39155 h -0.39154 l -0.39155,-0.39154 h -0.39155 l -0.39154,-0.39155 h -0.39155 l -0.39155,-0.39155 h -0.39154 l -0.7831,-0.78309 v -0.7831 l 0.39155,-0.39154 v -0.39155 l 1.56619,-1.56619 v -0.39154 l 2.74083,-2.74083 v -0.39155 z m 307.36427,-0.78309 1.95774,1.95773 v 0.78309 l 0.39154,0.39155 v 2.74083 l -0.39154,0.39155 v 0.39154 l -1.56619,1.56619 -0.39155,-0.39155 0.39155,0.39155 -0.39155,0.39155 h -0.39154 l -0.39155,0.39154 h -2.74083 l -0.39155,-0.39154 h -0.39154 l -0.39155,-0.39155 h -0.39155 l -1.17464,-1.17464 v -0.39155 l -0.39154,-0.39154 v -0.7831 l 0.39154,-0.39154 h 0.39155 l 0.39155,-0.39155 h 1.17464 l 0.39154,-0.39155 h 0.7831 l 0.39154,-0.39154 h 0.39155 v -0.7831 l 0.39155,-0.39155 v -1.56618 l 0.39155,-0.39155 v -0.39155 l 0.39154,-0.39154 z m -215.35076,0 0.78309,0.78309 -0.39155,0.39155 h -0.39154 v 0.39154 l 0.39154,-0.39154 0.39155,0.39154 0.39155,-0.39154 0.78309,0.78309 v 0.39155 l 0.39155,0.39154 v 3.13238 l -0.7831,0.78309 v 0.39155 l -1.56618,1.56619 h -0.39155 l -0.39155,0.39154 h -1.17464 l -0.39155,0.39155 h -0.39154 l -0.39155,-0.39155 h -0.78309 l -0.39155,-0.39154 h -0.39155 L 335.934,192.4272 v -0.78309 l 0.78309,-0.78309 0.39155,0.39154 -0.39155,-0.39154 0.39155,-0.39155 h 0.78309 l 0.39155,-0.39155 h 0.78309 l 0.7831,-0.78309 v -0.39155 l 0.39154,-0.39155 v -0.78309 l 0.39155,-0.39155 V 186.554 l 0.7831,-0.78309 z m 69.30379,-0.39155 h 1.95773 l 0.39155,0.39155 h 0.39155 l 0.39154,0.39154 -0.39154,0.39155 0.39154,-0.39155 1.17464,1.17464 v 0.39155 l 0.39155,0.39155 v 1.17464 l 0.39155,0.39155 v 0.78309 l -0.39155,0.39155 v 1.17464 l -0.39155,0.39154 v 0.39155 l -1.17464,1.17464 h -0.39154 l -0.39155,0.39155 h -0.78309 l -0.39155,0.39154 h -1.95774 l -0.39154,-0.39154 h -0.7831 l -1.95773,-1.95774 v -1.17464 l 0.78309,-0.78309 h 0.7831 l 0.39154,-0.39155 h 0.39155 l 0.78309,-0.78309 v -0.39155 l 0.39155,-0.39155 v -0.39154 l 0.39155,-0.39155 v -1.56619 l -0.39155,-0.39154 z m 105.71765,0 h 0.78309 l 0.39155,0.39155 h 0.78309 -0.78309 l -0.39155,-0.39155 0.39155,-0.39155 h 2.74083 l 0.39154,0.39155 h 0.39155 l 0.39155,0.39155 h 0.39154 l 0.7831,0.78309 v 0.39155 l 0.39154,0.39154 v 0.7831 l 0.39155,0.39154 v 3.13238 l -0.39155,0.39155 v 0.39154 l -1.56618,1.56619 h -0.39155 l -0.39155,0.39155 h -3.13237 l -0.39155,-0.39155 h -0.78309 l -1.56619,-1.56619 v -0.39154 l -0.39155,-0.39155 v -0.39155 l -0.39154,-0.39154 v -2.34929 l 0.39154,-0.39154 v -0.7831 z m -53.64192,-0.39155 h 0.78309 l 0.39155,0.39155 h 1.17464 l 0.39155,-0.39155 h 0.78309 l 0.39155,0.39155 h 0.39154 l 1.17464,1.17464 v 0.39155 l -0.39154,0.39154 0.39154,-0.39154 0.39155,0.39154 v 0.39155 l 0.39155,0.39155 v 1.56619 l -0.39155,0.39154 v 0.7831 l -1.56619,1.56618 h -0.39154 l -0.39155,0.39155 h -0.78309 l -0.39155,-0.39155 h -0.78309 0.78309 l 0.39155,0.39155 -0.39155,0.39155 h -1.17464 l -0.39155,-0.39155 h -0.78309 l -1.95774,-1.95773 v -0.7831 l -0.39154,-0.39154 v -1.56619 l 0.39154,-0.39155 v -0.78309 z m -16.83652,0 h 2.34929 l 0.39154,0.39155 h 0.39155 l 0.39155,0.39155 h 0.39154 l 1.17464,1.17464 v 0.39154 l 0.39155,0.39155 v 0.78309 l 0.39155,0.39155 v 1.56619 l -0.39155,0.39155 v 0.78309 l -0.39155,0.39155 v 0.39154 l -1.56618,1.56619 h -0.39155 l -0.39155,0.39155 h -3.13237 l -0.39155,-0.39155 h -0.39155 l -1.95773,-1.95773 v -0.39155 l -0.39155,-0.39155 v -2.74083 l 0.39155,-0.39154 v -0.39155 l 0.39155,-0.39155 v -0.39154 l 1.17464,-1.17464 h 0.39154 l 0.39155,-0.39155 h 0.39155 z m -71.65307,0 h 2.74083 l 0.39155,0.39155 h 0.39154 l 1.95774,1.95773 v 0.39155 l 0.39154,0.39155 v 2.74083 l -0.39154,0.39154 v 0.7831 l -1.95774,1.95773 h -0.39154 l -0.39155,0.39155 h -2.34928 l -0.39155,-0.39155 h -0.78309 l -0.39155,-0.39155 h -0.39155 l -1.17464,-1.17464 v -0.39154 l -0.39154,-0.39155 v -1.56619 l -0.39155,-0.39154 v -0.39155 l 0.39155,-0.39155 v -1.17464 l 0.39154,-0.39155 v -0.39154 l 1.17464,-1.17464 h 0.39155 l 0.39155,-0.39155 h 0.39154 z m -72.82771,0.39155 h 0.78309 l 0.39155,-0.39155 h 2.74083 l 0.39154,0.39155 -0.39154,0.39155 0.39154,-0.39155 h 0.39155 l 1.95773,1.95773 v 0.39155 l 0.39155,0.39155 v 3.13237 l -0.39155,0.39155 v 0.39155 l -0.39154,0.39154 v 0.39155 l -0.39155,0.39155 h -0.39155 l -0.78309,0.78309 h -0.78309 l -0.39155,0.39155 h -2.74083 l -0.39155,-0.39155 h -0.39154 l -1.95774,-1.95773 v -0.7831 l -0.39154,-0.39154 v -2.34929 l 0.39154,-0.39154 v -0.7831 z m 234.14501,-0.78309 h 2.34928 l 0.39155,0.39154 h 0.39155 l 0.39154,0.39155 h 0.39155 l 0.7831,0.78309 v 0.39155 l 0.39154,0.39155 v 0.39154 l 0.39155,0.39155 v 2.74083 l -0.39155,0.39155 v 0.39154 l -1.17464,1.17464 h -0.39155 l -0.39154,0.39155 h -0.39155 l -0.39155,0.39155 h -2.34928 l -0.39154,-0.39155 h -0.39155 l -0.39155,-0.39155 h -0.39154 l -0.7831,-0.78309 v -0.39155 l -0.78309,-0.78309 v -3.13238 l 0.78309,-0.78309 v -0.39155 l 0.7831,-0.78309 h 0.39154 l 0.39155,-0.39155 h 0.39155 z m -144.48078,0.39154 h 0.78309 l 0.39155,-0.39154 h 1.95773 l 0.39155,0.39154 h 0.78309 l 0.39155,0.39155 -0.39155,0.39155 h -0.39155 0.39155 l 0.39155,0.39154 0.39154,-0.39154 0.7831,0.78309 v 0.39155 l 0.39155,0.39154 v 3.13238 l -0.39155,0.39155 v 0.39154 l -1.56619,1.56619 h -0.39155 l -0.39154,0.39155 h -2.74083 l -0.39155,-0.39155 h -0.39154 l -1.56619,-1.56619 v -0.39154 l -0.39155,-0.39155 v -0.39155 l -0.39155,-0.39154 v -1.17465 l 0.39155,-0.39154 v -0.7831 l 0.39155,-0.39154 V 186.554 Z m -70.86998,-0.39154 h 2.34928 l 0.39154,0.39154 h 0.39155 l 0.39155,0.39155 -0.39155,0.39155 0.39155,0.39154 h 0.39154 l 0.39155,-0.39154 0.39155,0.39154 v 0.39155 l 0.78309,0.78309 v 2.74083 l -0.39154,0.39155 v 0.39155 l -0.7831,0.78309 -0.39155,-0.39155 -0.39154,0.39155 0.39154,0.39155 -0.78309,0.78309 h -0.78309 l -0.39155,0.39155 h -1.56619 l -0.39154,-0.39155 h -0.7831 l -1.95773,-1.95773 v -0.39155 l -0.39155,-0.39155 v -2.34928 l 0.39155,-0.39155 v -0.39154 l 1.95773,-1.95774 h 0.39155 z m -54.81656,-1.17464 0.39154,0.39154 h 1.17464 l 0.39155,-0.39154 h 0.7831 l 0.39154,0.39154 h 0.7831 l 0.39154,0.39155 h 0.7831 l 0.39154,0.39155 h 0.7831 l 0.39154,0.39154 h 0.39155 l 0.39155,0.39155 h 0.39154 l 0.39155,0.39155 h 0.39155 l 1.56619,1.56618 -0.39155,0.39155 v 0.39155 l -0.39155,0.39154 v 0.39155 l -0.78309,0.7831 v 0.39154 l -1.17464,1.17464 v 0.39155 l -2.34928,2.34928 h -0.39155 l -1.17464,1.17464 -1.17464,-1.17464 v -0.39155 l -0.39155,-0.39154 v -0.39155 l -0.39155,-0.39155 v -0.39154 l -1.17464,-1.17464 v -0.39155 l -0.39154,-0.39155 v -0.39154 l -0.39155,-0.39155 v -0.39155 l -0.39155,-0.39155 v -0.39154 l -0.39154,-0.39155 v -0.39155 l -0.39155,-0.39154 v -0.7831 l -0.39155,-0.39154 1.17464,-1.17464 v -0.39155 z m -20.36044,0 0.39155,0.39154 -0.39155,0.39155 h -0.78309 1.17464 l 0.39154,0.39155 0.39155,-0.39155 0.39155,0.39155 v 0.78309 l -0.39155,0.39155 v 0.39154 l -0.78309,0.7831 v 0.39154 l -0.39155,0.39155 v 0.39155 l -0.78309,0.78309 v 0.39155 l -2.34928,2.34928 v 0.39155 l -1.56619,1.56618 h -0.39155 l -2.34928,-2.34928 v -0.39154 l -1.56619,-1.56619 v -0.39155 l -0.39154,-0.39155 1.56618,-1.56618 h 0.39155 l 0.39155,-0.39155 h 0.39154 l 1.17465,-1.17464 h 0.39154 l 0.39155,-0.39155 h 0.39155 l 0.39154,-0.39154 h 0.39155 l 0.39155,-0.39155 h 0.78309 l 0.39155,-0.39155 h 0.39154 l 0.39155,-0.39154 z M 615.89,178.33152 h 0.39154 l 0.39155,0.39154 h 1.17464 l 0.39155,-0.39154 h 0.78309 l 0.39155,0.39154 -0.39155,0.39155 h -0.39155 0.39155 l 0.39155,-0.39155 h 0.39154 l 1.17465,1.17464 v 0.39155 l 0.39154,0.39155 v 3.13237 l -1.95773,1.95774 h -0.39155 l -0.39155,0.39154 h -1.95773 l -0.39155,-0.39154 h -0.78309 l -1.56619,-1.56619 v -0.39155 l -0.39154,-0.39154 v -0.7831 l -0.39155,-0.39155 v -0.39154 l 0.39155,-0.39155 v -0.78309 l 0.39154,-0.39155 v -0.39155 l 1.17464,-1.17464 h 0.39155 z m -16.44497,-0.39155 h 2.74083 l 0.39154,0.39155 -0.39154,0.39154 h -2.34928 2.34928 l 0.39154,-0.39154 h 0.7831 l 1.17464,1.17464 v 0.39154 l 0.39154,0.39155 v 0.39155 l 0.39155,0.39154 v 2.74083 l -0.39155,0.39155 -0.39154,-0.39155 0.39154,0.39155 v 0.39155 l -0.39154,0.39154 v 0.39155 l -1.17464,1.17464 h -0.39155 l -0.39155,0.39155 h -0.78309 l -0.39155,0.39154 h -1.95773 l -0.39155,-0.39154 h -0.39154 l -0.39155,-0.39155 h -0.39155 l -1.17464,-1.17464 v -0.39155 l -0.39155,-0.39154 v -1.17464 l -0.39154,-0.39155 v -0.39155 l 0.39154,-0.39155 v -1.56618 l 0.39155,-0.39155 v -0.39155 l 1.17464,-1.17464 h 0.39155 l 0.39155,-0.39154 h 0.39154 z m -222.39861,0.39155 0.39155,-0.39155 0.39154,0.39155 v 0.39154 h 0.39155 l 1.17464,1.17464 -0.39155,0.39155 0.39155,-0.39155 h 0.39155 l 0.78309,0.7831 v 0.39154 l 0.39155,0.39155 -0.39155,0.39155 h -0.39155 l -0.39154,-0.39155 h -0.39155 l -0.39155,-0.39155 h -0.39154 l -1.17464,-1.17464 v -0.39154 l -0.39155,-0.39155 z m 252.93926,1.95773 1.95774,-1.95773 h 0.39154 l 0.39155,-0.39155 h 0.39155 l 0.39154,-0.39155 h 0.7831 l 0.39155,0.39155 h 0.78309 l 0.39155,0.39155 h 0.39154 l 1.56619,1.56618 v 0.39155 l 0.39155,0.39155 v 2.34928 l -0.39155,0.39155 v 0.39154 l -1.17464,1.17464 h -0.78309 l -0.39155,0.39155 h -3.13238 l -0.78309,-0.78309 -0.39155,0.39154 h -0.39154 l -0.39155,-0.39154 v -0.39155 l -0.39155,-0.39155 v -0.39154 l -0.39154,-0.39155 v -1.95774 l 0.39154,-0.39154 z m -110.02466,-2.34928 0.39155,-0.39155 1.17464,1.17464 h 0.39154 l 0.7831,0.7831 -0.7831,0.78309 h 1.17464 l 0.39155,-0.39155 0.39155,0.39155 h 0.39154 l 0.39155,0.39155 -0.39155,0.39154 h -0.39154 0.39154 l 0.39155,-0.39154 0.39155,0.39154 h 0.39154 l 0.39155,0.39155 -0.39155,0.39155 h -2.74082 l -0.39155,-0.39155 h -0.39155 l -1.56618,-1.56619 v -0.39154 l -0.39155,-0.39155 z m -66.17142,-4.69856 0.39155,0.39154 v 0.7831 l -0.39155,0.39154 v 0.7831 l -0.39155,0.39155 v 2.34928 l 0.7831,0.78309 v 0.39155 l 0.39154,0.39154 v 0.7831 l 0.39155,0.39154 -0.78309,0.7831 h -2.74083 l -0.39155,-0.39155 h -0.39154 l -0.39155,-0.39155 h -0.39155 l -0.78309,-0.78309 v -0.39155 l -0.39155,-0.39154 v -0.7831 l -0.39154,-0.39154 v -0.7831 l 0.39154,-0.39154 v -1.17464 l 0.39155,-0.39155 v -0.39155 l 1.56619,-1.56619 h 0.39154 l 0.39155,0.39155 h 0.39155 l 0.39154,-0.39155 h 1.17464 z m 95.92898,-0.39155 h 2.74083 l 0.39154,0.39155 -0.39154,0.39154 h -2.34928 2.34928 l 0.39154,-0.39154 h 0.39155 l 1.95773,1.95773 v 0.39155 l 0.39155,0.39155 v 2.74082 l -0.39155,0.39155 v 0.39155 l -1.56618,1.56618 h -0.7831 l -0.39154,0.39155 h -2.34928 l -0.7831,-0.78309 0.39155,-0.39155 v -1.17464 l 0.39155,-0.39155 v -0.39154 l 0.39154,-0.39155 v -2.34928 l -0.39154,-0.39155 v -0.39155 l -1.17464,-1.17464 z m -143.69769,0 h 3.52392 l 0.39154,0.39155 -0.39154,0.39154 h -0.7831 0.7831 l 0.39154,0.39155 0.39155,-0.39155 1.56619,1.56619 v 0.39155 l 0.39155,0.39155 v 1.95773 l -0.39155,0.39155 v 0.78309 l -0.7831,0.78309 v 0.39155 l -0.39154,0.39155 h -0.39155 l -0.39155,0.39154 h -0.39154 l -0.39155,0.39155 h -2.74083 l -0.39154,-0.39155 v -1.56618 l 0.39154,-0.39155 v -1.56619 l 0.39155,-0.39154 v -1.17464 l -0.39155,-0.39155 v -0.39155 l -0.39154,-0.39155 v -0.39154 l -0.7831,-0.7831 z m -97.49517,0 h 1.17464 l 0.39155,0.39155 v 0.78309 l -0.39155,0.39155 v 0.39154 l -0.39155,0.39155 v 0.7831 l -0.39154,0.39154 v 2.74083 l 1.95773,1.95773 v 0.39155 l -0.39155,0.39155 h -2.34928 l -0.39154,-0.39155 h -0.39155 l -0.78309,-0.78309 h -0.39155 l -0.39155,-0.39155 v -0.39155 l -0.78309,-0.78309 v -3.13237 l 0.78309,-0.7831 v -0.39155 l 1.17464,-1.17464 h 0.39155 l 0.39155,-0.39154 h 0.39154 z m 24.66745,0 h 0.39155 l 0.39155,-0.39155 h 3.13237 l 0.39155,0.39155 h 0.39154 l 0.7831,0.78309 -0.39155,0.39155 0.39155,0.39155 0.39154,-0.39155 1.17464,1.17464 v 0.7831 l 0.39155,0.39154 v 1.56619 l -0.39155,0.39155 v 0.39154 l -0.39154,0.39155 v 0.39155 l -1.56619,1.56618 h -0.39155 l -0.39154,0.39155 h -3.13238 l -0.39154,-0.39155 h -0.39155 l -1.95774,-1.95773 v -0.39155 l -0.39154,-0.39154 v -3.13238 l 0.39154,-0.39155 v -0.39154 z m 144.48079,-0.78309 h 1.56619 l 0.39154,0.39154 h 0.7831 l 0.78309,0.7831 h 0.39155 l 0.78309,0.78309 v 0.39155 l 0.78309,0.78309 v 0.39155 l 0.39155,0.39155 v 1.56618 l -0.39155,0.39155 v 0.78309 l -0.39154,0.39155 v 0.39155 l -1.17464,1.17464 h -0.39155 l -0.39155,0.39154 h -0.39154 l -0.39155,-0.39154 v -1.17464 l -0.39155,-0.39155 h -0.39154 l -0.7831,-0.78309 h -2.34928 l -0.39155,0.39154 h -0.78309 l -0.39155,-0.39154 v -0.39155 l -0.39154,-0.39155 v -1.56618 l 0.39154,-0.39155 v -0.7831 l 0.39155,-0.39154 v -0.39155 l 1.17464,-1.17464 h 0.39155 l 0.39155,0.39155 h 0.39154 -0.39154 l -0.39155,-0.39155 0.39155,-0.39155 h 0.39154 z m -243.15059,0.39154 0.39154,-0.39154 0.39155,0.39154 v 0.39155 h 1.95773 -1.56618 l -0.39155,-0.39155 0.39155,-0.39154 h 3.13237 l 0.78309,0.78309 h 1.95774 l 0.39155,0.39155 h 0.39154 l 0.39155,0.39154 h 0.39155 l 0.39154,0.39155 h 0.39155 l 0.39155,0.39155 h 0.39154 l 0.39155,0.39154 v 1.56619 l -0.39155,0.39155 v 1.17464 l 0.39155,0.39155 v 0.78309 l -0.39155,0.39155 h -0.39154 l -0.39155,0.39154 h -0.39155 l -0.39154,0.39155 h -0.39155 l -0.78309,0.78309 h -0.39155 l -0.39155,0.39155 h -0.78309 l -0.39155,0.39155 h -0.39155 l -0.39154,0.39154 h -0.39155 l -0.39155,0.39155 h -0.39154 l -0.39155,0.39155 h -0.78309 l -0.39155,0.39155 h -0.78309 l -0.39155,0.39154 h -0.39155 l -0.39154,-0.39154 v -0.7831 l -0.39155,-0.39155 v -1.56618 l -0.39155,-0.39155 v -5.09011 l 0.39155,-0.39155 v -1.56618 l 0.39155,-0.39155 z m 35.23921,1.17464 h 0.7831 l 0.39154,-0.39154 h 0.39155 l 0.39155,-0.39155 h 0.78309 l 0.39155,-0.39155 h 0.78309 l 0.39155,-0.39154 h 0.39154 l 0.39155,-0.39155 h 1.17464 l 0.39155,-0.39155 h 1.95773 l 0.39155,0.39155 v 1.56619 l 0.39155,0.39154 v 6.6563 l -0.39155,0.39155 v 1.56618 l -0.39155,0.39155 v 0.7831 l -0.39154,0.39154 h -0.39155 l -0.39155,-0.39154 h -0.39154 l -0.39155,-0.39155 h -0.7831 l -0.39154,-0.39155 h -0.39155 l -0.39155,-0.39155 h -0.39154 l -0.39155,-0.39154 h -0.78309 l -0.39155,-0.39155 h -0.39155 l -0.39154,-0.39155 h -0.7831 l -0.39154,-0.39154 h -0.39155 l -0.39155,-0.39155 h -0.39154 l -0.7831,-0.78309 v -4.69857 z m 263.90258,-4.30701 0.39155,-0.39155 v -0.39154 l 0.78309,-0.7831 h 0.39155 l 0.39154,-0.39155 h 0.7831 l 0.39154,-0.39154 h 2.34928 l 0.39155,0.39154 h 0.39155 l 0.39154,0.39155 -0.39154,0.39155 0.39154,-0.39155 h 0.39155 l 0.7831,0.7831 v 0.39154 l -0.39155,0.39155 0.39155,-0.39155 0.39154,0.39155 v 0.39155 l 0.39155,0.39154 v 0.7831 l -0.39155,0.39154 h -6.65629 l -0.39155,-0.39154 h -0.39155 l -0.78309,-0.7831 z m -70.47843,-1.56619 h 0.39154 l 0.39155,-0.39155 h 0.78309 l 0.39155,-0.39154 h 1.56619 l 0.39154,0.39154 h 0.7831 l 0.39154,0.39155 -0.39154,0.39155 h -0.7831 0.7831 l 0.39154,-0.39155 0.39155,0.39155 h 0.39155 l 0.78309,0.78309 v 0.39155 l 0.39155,0.39155 v 0.39154 l 0.39155,0.39155 v 2.34928 l -0.39155,0.39155 v 0.78309 l -0.7831,0.78309 h -0.39154 l -0.7831,0.7831 h -1.95773 l -0.78309,-0.7831 h -0.39155 l -0.78309,-0.78309 v -0.78309 l -0.39155,-0.39155 v -0.39155 l -0.39155,-0.39154 h -0.39154 l -0.39155,-0.39155 h -0.7831 l -0.39154,-0.39155 v -1.56618 l 0.39154,-0.39155 v -0.39155 z m -73.21927,1.95774 0.39155,-0.39155 v -0.39155 l 1.17464,-1.17464 h 0.39155 l 0.39155,0.39155 h 0.39154 -0.39154 l -0.39155,-0.39155 0.39155,-0.39155 h 1.17464 l 0.39154,-0.39154 h 1.17464 l 0.39155,0.39154 h 1.17464 l 0.39155,0.39155 h 0.39154 l 0.7831,0.7831 v 0.39154 l 0.39155,0.39155 v 0.39155 l -0.39155,0.39154 0.39155,-0.39154 0.39154,0.39154 v 0.7831 l -0.39154,0.39154 h -7.43939 l -0.39155,-0.39154 h -0.39155 l -0.39155,-0.39155 z m -69.30379,-2.34929 h 0.7831 l 0.39154,0.39155 h 1.56619 -1.56619 l -0.39154,-0.39155 0.39154,-0.39154 h 1.95774 l 0.39154,0.39154 h 0.39155 l 0.39155,0.39155 -0.39155,0.39155 0.39155,-0.39155 h 0.39154 l 1.56619,1.56619 v 0.39155 l 0.39155,0.39154 v 3.13238 l -0.39155,0.39154 v 0.39155 l -1.17464,1.17464 h -0.39155 l -0.39154,0.39155 h -0.39155 l -3.91547,-3.91547 h -0.39154 l -0.39155,-0.39155 h -0.39155 l -0.39155,-0.39154 h -0.39154 l -0.39155,-0.39155 v -0.39155 l 0.39155,-0.39154 v -0.39155 l 0.39154,-0.39155 v -0.39154 l 0.39155,-0.39155 h 0.39155 l 0.39155,0.39155 -0.39155,-0.39155 z m 284.65456,-1.17464 h 0.7831 l 0.39154,0.39155 h 0.7831 l 0.39154,0.39155 h 0.39155 l 0.39155,0.39154 -0.39155,0.39155 0.39155,-0.39155 h 0.39154 l 0.39155,0.39155 v 0.39155 l 0.78309,0.78309 v 0.7831 l 0.39155,0.39154 v 0.39155 l -0.39155,0.39155 v 1.17464 l -0.78309,0.78309 -0.39155,-0.39155 0.39155,0.39155 v 0.39155 l -1.17464,1.17464 h -0.39155 l -0.39154,0.39154 h -1.17464 l -0.39155,0.39155 h -0.39155 l -0.39155,-0.39155 h -1.17464 l -0.39154,-0.39154 h -0.39155 l -1.17464,-1.17464 v -0.39155 l -0.39155,-0.39155 v -0.78309 l -0.39154,-0.39155 v -0.78309 l 0.39154,-0.39155 v -0.78309 l 0.39155,-0.39155 v -0.78309 l 0.78309,-0.7831 h 0.39155 l 0.78309,-0.78309 h 1.17464 l 0.39155,0.39155 h 0.39155 -0.39155 l -0.39155,-0.39155 z m 23.10127,-0.39154 h 2.74082 l 0.7831,0.78309 h 0.39154 l 1.56619,1.56619 v 0.39155 l 0.39155,0.39154 v 0.39155 l 0.39155,0.39155 v 1.56618 l -0.39155,0.39155 v 0.78309 l -1.95774,1.95774 h -0.39154 l -0.39155,0.39154 h -3.13237 l -0.39155,-0.39154 h -0.39155 l -1.95773,-1.95774 v -0.39154 l -0.39155,-0.39155 v -2.74083 l 0.39155,-0.39154 v -0.39155 l 0.78309,-0.7831 v -0.39154 l 0.39155,-0.39155 h 0.39155 l 0.39154,-0.39155 h 0.39155 z m -362.18084,-1.17464 1.17464,1.17464 -0.39155,0.39154 v 0.39155 l -0.78309,0.78309 v 0.7831 l -0.39155,0.39155 h -0.39154 l -0.7831,-0.7831 v -0.78309 l 0.39155,-0.39155 v -0.39155 l 0.39155,-0.39154 v -0.39155 z m 350.43443,-3.52392 h 2.34928 l 0.39155,0.39154 h 0.39154 l 0.39155,0.39155 h 0.39155 l 1.17464,1.17464 v 0.39155 l 0.39155,0.39154 v 1.17464 l 0.39154,0.39155 v 1.17464 l -0.39154,0.39155 v 0.39154 l -0.7831,0.7831 v 0.39155 l -0.39154,0.39154 h -0.39155 l -0.39155,0.39155 h -0.39155 l -0.39154,0.39155 h -0.39155 l -0.39155,0.39154 h -1.95773 l -0.39155,-0.39154 h -0.78309 l -0.78309,-0.7831 h -0.39155 l -0.39155,-0.39154 v -0.39155 l -0.39154,-0.39155 v -0.78309 l -0.39155,-0.39155 v -2.34928 l 0.39155,-0.39155 v -0.39154 l 1.56618,-1.56619 h 0.39155 L 615.89,161.495 h 0.39154 z m -375.49343,-0.7831 h 0.7831 l 0.78309,0.7831 v 0.39154 l 1.17464,1.17464 v 0.39155 l 1.17464,1.17464 v 0.39155 l 1.56619,1.56618 v 0.39155 l 1.17464,1.17464 v 0.7831 l -0.39155,0.39154 -0.39155,-0.39154 -0.39154,0.39154 0.39154,0.39155 v 0.39155 l -0.78309,0.78309 v 0.39155 l -0.39155,0.39154 h -1.17464 l -0.39154,-0.39154 h -1.17464 l -0.39155,-0.39155 h -1.17464 l -0.39155,-0.39155 h -0.78309 l -0.39155,-0.39154 h -0.78309 l -0.39155,-0.39155 h -0.39155 l -0.39154,-0.39155 h -1.17464 l -0.39155,-0.39154 h -0.39155 l -0.39154,-0.39155 v -0.39155 l 0.39154,-0.39155 v -0.39154 l 0.39155,-0.39155 v -0.39155 l 0.39155,-0.39154 v -0.39155 l 0.78309,-0.78309 v -0.39155 l 0.78309,-0.78309 v -0.39155 z m 32.49839,1.95774 -0.39155,0.39154 h -0.39154 l -0.39155,0.39155 h -0.78309 l -0.39155,0.39155 h -0.39155 l -0.39154,0.39154 h -0.39155 l -0.39155,0.39155 h -0.78309 l -0.39155,0.39155 h -1.56619 l -0.39154,0.39154 -0.39155,-0.39154 v -0.39155 l 0.39155,-0.39155 v -0.39154 l 0.39154,-0.39155 v -0.39155 l 0.39155,-0.39154 v -0.39155 l 0.78309,-0.78309 v -0.39155 l 1.56619,-1.56619 h 0.7831 l 0.39154,0.39155 h 0.39155 l 1.56619,1.56619 v 0.39154 z m 208.30292,0 2.74083,1.56618 1.95774,-0.39154 1.56618,-0.7831 0.7831,-2.34928 0.78309,-0.39155 0.39155,-1.17464 h 6.26475 l 1.17464,3.91547 1.95773,1.56619 h 4.69856 l 1.56619,-0.78309 1.56619,-1.95774 v -1.56619 l 1.56619,-0.39154 h -1.17464 l -0.39155,-0.39155 0.39155,-0.39155 h 13.31259 l 1.17464,1.95774 h 1.17464 l 0.78309,0.78309 -7.43939,5.09011 -5.09011,5.8732 -2.74082,5.48166 -1.56619,5.48166 v 1.56618 l -0.39155,0.39155 v 6.6563 l 0.39155,0.39154 0.39155,3.91547 1.17464,3.13238 3.91547,7.04784 5.48165,5.48166 4.69856,3.13237 2.74083,1.17464 -0.39155,0.39155 h -4.30701 4.30701 l 0.7831,-0.39155 1.56619,0.39155 0.39154,0.39154 -0.39154,0.39155 h -7.43939 l -0.39155,-0.39155 0.39155,-0.39154 v -1.56619 l -1.17465,-1.17464 -3.91546,0.39155 -1.17464,1.17464 v 1.56618 l -0.39155,0.39155 h -9.39713 l -0.39154,-0.39155 0.39154,-0.39154 -0.39154,-1.56619 -1.95774,-0.78309 -1.95773,0.39154 -1.17464,1.17464 0.39155,0.7831 -0.7831,0.78309 h -9.00558 l -0.39154,-0.39155 v -1.95773 l -1.56619,-1.17464 -3.13237,0.39155 -1.17465,1.17464 0.39155,1.56618 -0.39155,0.39155 h -7.43939 l -0.39154,-0.39155 3.52392,-1.17464 2.34928,-1.56618 1.56619,0.39154 -1.17464,-0.39154 3.52392,-2.34928 4.69856,-4.69857 2.74083,-3.91547 1.56619,-3.13237 0.39154,0.39155 -0.39154,-1.17464 1.56618,-3.91547 v -1.17464 l 0.39155,-0.39155 0.39155,0.78309 1.17464,-0.39154 v -1.17464 l -0.7831,-0.39155 v 1.17464 l -0.39154,0.39155 -0.39155,-0.39155 0.39155,-8.22248 -0.39155,-0.39155 -0.78309,-5.09011 -3.13238,-7.04784 -2.74083,-3.91547 -3.91546,-3.91547 -3.91547,-2.74083 z m 0,0 -0.39154,0.39154 h -0.39155 l -0.39155,-0.39154 h -0.39154 l -0.39155,-0.39155 h -0.39155 l -0.39154,-0.39155 h -0.39155 l -0.39155,-0.39154 h -0.78309 l -0.39155,-0.39155 h -0.39154 l -0.39155,-0.39155 h -0.7831 l -0.39154,-0.39155 h -0.7831 l -0.39154,-0.39154 0.39154,-0.39155 h 6.26475 l 0.39155,-0.39155 0.39155,0.39155 v 2.34928 l 0.39154,0.39155 z m -29.75756,-1.17464 v -1.95774 l 0.39155,-0.39155 h 3.13238 l 0.39154,0.39155 h 1.17464 l 0.39155,0.39155 -0.39155,0.39154 h -1.17464 l -0.39154,0.39155 h -0.7831 l -0.39155,-0.39155 h -0.78309 0.78309 l 0.39155,0.39155 -0.39155,0.39155 h -0.39154 l -0.39155,0.39155 h -0.39155 l -0.39154,0.39154 h -0.39155 z m -49.3349,-1.95774 h 1.56619 l 0.39154,-0.39155 h 1.56619 l 0.39155,0.39155 h 2.34928 l 0.39155,-0.39155 9.00557,0.39155 0.39155,-0.39155 h 1.17464 l 0.7831,1.17464 -0.39155,1.56619 1.56619,1.95774 0.78309,0.39154 h 2.34928 l 1.17464,0.7831 h 2.34928 l 2.34928,-0.7831 1.17464,-1.17464 v -3.13237 l 0.39155,-0.39155 h 5.8732 l 0.39155,-0.39155 h 5.09011 l 0.39155,0.39155 v 2.74083 l 0.78309,0.78309 2.34928,0.7831 0.39155,0.78309 -5.48166,5.09011 -3.52392,5.09011 -1.95773,4.30701 -1.56619,5.48166 v 7.83094 l 0.39155,0.39154 v 2.34928 l 0.78309,1.56619 0.39155,2.34928 2.74082,5.48166 1.95774,2.74083 5.09011,5.09011 5.48165,3.52392 1.95774,0.78309 -0.39155,0.39155 h -3.91547 4.30702 l 0.39154,-0.39155 0.39155,0.39155 h 1.17464 l 0.39155,0.39154 -0.39155,0.39155 h -7.43939 l -0.39154,-0.39155 v -1.95773 l -1.17465,-1.17464 0.39155,-0.39155 -0.39155,0.39155 h -3.13237 l -1.95773,1.56619 -0.39155,0.78309 0.39155,0.78309 -0.39155,0.39155 h -8.61403 l -0.39155,-0.39155 v -1.56618 l -1.95773,-1.17464 -2.74083,0.78309 -1.17464,1.95773 -0.39155,-0.39154 h -1.56619 1.17464 l 0.39155,0.39154 -0.39155,0.39155 h -8.22248 l -0.39155,-0.39155 0.39155,-0.78309 0.39155,0.39155 h 2.34928 -1.56619 l -0.39155,-0.39155 -0.39154,0.39155 -0.39155,-1.17464 -1.95773,-1.56619 h -2.74083 l -1.17464,0.78309 -0.39155,-0.39154 -0.39155,0.39154 -0.78309,-0.39154 3.91547,-2.74083 3.91547,-3.91547 2.74083,-3.91547 1.95773,-3.91547 0.39155,0.7831 -0.39155,-1.56619 0.78309,-1.56619 0.7831,-4.69856 0.39154,-0.39155 v -7.43939 l -1.95773,-7.43939 -2.34928,-4.69856 -2.34928,-3.13237 -5.8732,-5.48166 -6.26475,-3.52392 h -0.7831 l -1.17464,-0.7831 h -1.17464 l -0.39155,-0.39154 z m -70.86998,-0.39155 h 6.26475 l 0.39155,0.39155 v 2.74083 l 3.13237,1.95773 1.95774,-0.39154 1.95773,-1.56619 0.78309,-3.13238 h 7.83094 l 0.39155,0.39155 -0.39155,0.39155 v 1.95773 l 2.74083,2.74083 h 5.8732 l 1.95774,-1.56619 0.78309,-3.91547 h 16.44497 l 1.56619,0.7831 0.39154,0.78309 -5.09011,2.34928 -5.48165,3.91547 -5.09011,6.26475 -2.34928,4.30702 -1.56619,4.69856 -0.78309,4.30701 v 5.87321 l 1.17464,5.09011 1.56618,3.91546 4.30702,6.6563 3.91547,3.91547 7.83093,4.69856 -0.39154,0.39155 h -3.52392 3.91546 l 0.39155,-0.39155 1.95774,0.39155 0.39154,0.39154 -0.39154,0.39155 h -7.83094 l -0.39155,-0.39155 0.39155,-1.56618 -1.56619,-1.56619 0.39155,-0.39155 -4.30702,0.7831 -1.17464,1.17464 0.39155,1.56618 -0.39155,0.39155 h -9.00558 l -0.39154,-1.95773 -1.95774,-1.17464 -2.34928,0.39154 -0.78309,0.7831 -0.39155,1.95773 h -7.43939 l -0.78309,-1.17464 -0.39155,0.78309 -0.78309,-1.95773 -1.95774,-1.17464 -3.13237,0.39155 -1.17464,1.17464 0.39154,1.17464 -0.39154,0.78309 h -7.43939 l -0.39155,-0.39155 1.95774,-0.78309 3.91546,0.39155 h -3.13237 l -0.39155,-0.39155 7.04785,-3.91547 3.13237,-2.74083 3.52392,-4.30701 0.39155,0.39155 -0.39155,-0.7831 2.74083,-4.30701 1.95773,-5.87321 0.39155,-10.57176 -1.95773,-5.8732 0.39154,-1.17464 -0.39154,0.39154 -1.95774,-3.91547 -2.74083,-3.91546 -5.8732,-5.48166 -6.26475,-3.52392 -3.13237,-0.7831 -0.39155,-0.39154 z m 272.51661,-2.74082 0.39154,0.39154 -1.17464,0.7831 -1.17464,-0.39155 0.7831,0.39155 -3.13238,2.34928 -1.56618,-0.7831 -0.39155,0.39155 1.17464,0.78309 -2.74083,2.34929 -4.30701,5.8732 -2.34929,4.69856 -1.17464,3.91547 -0.39154,9.78867 0.78309,3.13238 2.74083,6.26474 6.26475,7.43939 3.91547,2.74083 4.69856,2.34928 5.8732,1.56619 -6.65629,1.56619 -4.30702,0.39155 -1.56619,-2.34929 -3.52392,0.39155 -1.17464,1.17464 0.39155,1.56619 -1.56619,0.78309 -9.00558,1.17464 -1.17464,-2.34928 h -3.13237 l -1.95774,1.56619 v 1.17464 l -0.78309,0.78309 -7.43939,0.7831 -3.52392,-0.39155 -0.39155,-1.17464 -1.56619,-0.39155 -1.17464,0.7831 -0.39154,1.56618 h -1.56619 l -0.39155,-1.95773 -0.78309,-0.78309 -4.30702,-0.39155 -1.95773,1.56619 -1.17464,-0.39155 1.17464,0.39155 0.39154,1.56618 -0.39154,0.39155 h -7.43939 l -0.39155,-0.39155 1.95774,-0.78309 5.0901,0.39155 h -3.91546 l -0.39155,-0.39155 7.43939,-4.30701 4.69856,-4.69857 2.34928,-3.13237 0.39155,0.39155 -0.39155,-0.7831 3.52392,-7.43939 0.7831,-3.91547 v -7.43939 l -1.17464,-5.48165 -2.74083,-5.87321 -2.34928,-3.52392 -4.30702,-4.30701 0.39155,-0.39155 -0.39155,-0.39155 -0.78309,0.39155 -3.52392,-2.74083 -3.91547,-1.95773 -3.13238,-0.7831 -0.78309,-0.78309 0.39155,-0.39155 h 5.09011 l 0.78309,2.34929 3.13237,1.56618 h 1.56619 l 1.95774,-1.95773 0.39154,-2.34928 7.04785,-0.39155 0.78309,3.52392 1.95773,1.56619 2.74083,0.39155 2.74083,-0.7831 1.56619,-1.95773 v -1.95774 l 1.95773,-0.39154 -1.95773,0.39154 -0.39155,-0.39154 0.39155,-0.7831 13.31259,-0.78309 0.39155,3.13237 1.17464,1.17465 4.69856,0.78309 -0.39155,-0.39155 1.95774,-1.95773 v -1.95774 l -0.7831,-0.78309 1.17464,-0.78309 z m -360.2231,1.95773 0.39154,-0.39155 h 0.39155 l 0.78309,-0.78309 h 0.39155 l 0.39155,-0.39155 h 0.39154 l 0.39155,-0.39154 h 0.39155 l 0.39155,-0.39155 h 0.78309 l 0.39155,-0.39155 h 0.78309 l 0.39155,-0.39154 h 1.17464 l 0.39154,-0.39155 h 1.95774 l 0.39154,0.39155 v 0.39154 l 0.39155,0.39155 v 5.09011 l -0.39155,0.39155 v 3.52392 l -0.39154,0.39154 h -0.7831 l -0.39154,-0.39154 v -0.39155 h -0.39155 l -0.39155,0.39155 h 0.7831 l 0.39154,0.39154 -0.39154,0.39155 h -1.56619 l -0.78309,-0.78309 v -0.39155 l -1.56619,-1.56619 v -0.39154 l -0.39155,-0.39155 V 161.495 l -0.39154,-0.39154 v -1.17465 l -0.39155,-0.39154 v -0.7831 l -0.39155,-0.39154 h -0.39155 l -0.39154,-0.39155 h -0.7831 l -0.39154,0.39155 h -0.7831 z m 13.31259,-3.91547 h 1.17464 l 0.39155,0.39155 h 2.34928 l 0.39155,0.39155 h 1.17464 l 0.39154,0.39154 h 0.7831 l 0.39154,0.39155 h 0.39155 l 0.39155,0.39155 h 0.78309 l 0.78309,0.78309 h 0.39155 l 0.39155,0.39155 -0.39155,0.39154 v 0.7831 l -1.17464,1.17464 v 0.39154 l -0.39155,0.39155 v 0.39155 l -0.78309,0.78309 v 0.39155 l -1.17464,1.17464 v 0.39155 l -0.78309,0.78309 v 0.39155 l -1.17464,1.17464 h -0.39155 l -0.39155,-0.39155 h -0.78309 l -0.39155,-0.39155 h -1.95773 l -0.39155,-0.39154 v -0.7831 l -0.39155,-0.39154 v -2.34928 l -0.39154,-0.39155 v -5.48166 l 0.39154,-0.39154 v -0.39155 z m 15.27033,-2.34928 0.78309,0.39155 h 1.95773 l 0.39155,0.39154 h 1.95774 l 0.39154,0.39155 h 1.95774 l 0.39154,0.39155 h 1.95774 l 2.34928,0.78309 h 3.13237 l 0.39155,0.39155 v 3.13237 l 0.39155,1.17464 1.56618,1.17464 h 1.17465 l 0.39154,0.39155 h 3.52392 l 1.56619,-1.56619 v -1.17464 l 0.7831,-1.95773 2.34928,0.78309 h 1.17464 l 0.39154,0.39155 0.39155,-0.39155 h 2.74083 l 0.39155,0.39155 h 2.74082 l 0.39155,0.39155 4.30702,0.39154 0.39154,0.39155 -0.39154,0.78309 1.56618,0.7831 -3.52392,1.17464 -4.30701,2.34928 -4.30702,3.13237 -2.34928,2.34929 -3.91547,5.48165 -1.95773,3.91547 -0.7831,2.34928 v 1.17464 l -0.78309,1.56619 v 2.74083 l -0.39155,0.39154 v 5.87321 l 0.39155,0.39154 0.39155,3.52392 1.56618,3.52393 v 0.78309 l 2.74083,5.09011 6.26475,6.6563 -1.17464,0.78309 -2.74083,-0.39155 -1.56618,1.17464 -0.39155,1.17464 h -1.56619 l -0.39155,-0.39154 0.7831,-0.39155 -0.7831,0.39155 h -1.56618 l -0.39155,-0.39155 h -1.56619 l -0.39154,-0.39155 -4.30702,-0.78309 -0.39155,-0.39155 0.7831,-0.39154 v -1.56619 l -1.17464,-0.7831 -3.13238,-0.39154 -1.17464,0.78309 -0.78309,1.17464 h -0.7831 l -4.30701,-1.56619 -4.30702,-0.78309 -0.78309,-0.78309 0.78309,-1.95774 -0.39154,-0.78309 -1.17464,-0.39155 -0.39155,-0.78309 1.56619,-1.56619 v -0.78309 l -0.7831,-0.39155 -0.39154,-0.78309 3.13237,-2.74083 1.56619,-0.78309 1.17464,1.17464 h 1.56619 l 1.95773,-1.95774 -0.39155,-1.56619 -1.17464,-1.17464 0.7831,-1.56618 0.78309,-0.7831 0.39155,0.39155 -0.39155,-0.39155 0.39155,-0.39154 h 1.17464 l 1.95773,-0.7831 2.34928,-5.8732 -0.39154,-1.17464 -1.95774,-1.56619 0.39155,-1.17464 v -5.8732 l -0.39155,-0.39155 v -2.74083 l -1.56619,-3.91547 1.17464,-1.17464 0.39155,0.39155 -0.39155,-0.39155 0.7831,-0.78309 v -1.17464 l -1.95774,-2.34928 0.39155,-0.39155 -1.17464,-2.74083 -1.17464,-1.17464 h -0.78309 l -1.56619,1.56619 -2.34928,-1.95773 -1.95774,-2.34928 0.39155,-0.39155 -0.39155,0.39155 -0.39154,-0.39155 v -1.95774 l -0.39155,-0.39154 z"
     fill="#000000"
     fill-rule="evenodd"
     id="path6"
     style="stroke-width:0.391547" />
  <path
     d="m 36.400662,180.6808 3.13237,3.13237 12.13796,-4.69856 5.48165,-15.66187 -3.91547,26.23364 7.83094,19.96888 17.22806,14.87878 22.709718,4.30702 23.49281,-7.83094 14.48723,-17.22806 4.30702,-22.31817 -7.04784,-23.10126 8.22248,21.14353 3.91547,0.39154 1.56619,5.48166 h 5.09011 l 1.95773,-5.8732 h 4.30701 l 4.69857,7.83093 15.66187,0.7831 5.09011,-2.74083 2.34928,-5.8732 26.62519,1.95773 4.30701,-2.34928 7.83094,-23.88436 23.10126,-15.27032 19.57735,1.17464 7.04784,5.0901 4.69856,-3.13237 12.92105,5.09011 7.43939,-2.34928 8.61403,5.09011 3.52392,-3.52392 11.74641,4.69856 7.04784,-3.91547 7.43939,4.30701 4.30701,-3.91546 7.83094,2.34928 6.6563,-1.95774 3.13237,2.74083 9.39713,-3.13237 5.09011,3.91546 5.48165,-3.52392 h 7.43939 l 1.95774,3.13238 12.92104,-3.13238 2.34928,3.52392 h 4.69857 l 2.34928,-3.52392 9.78867,2.74083 17.61961,-2.74083 2.34928,3.13238 14.09568,-3.13238 4.69857,3.52392 12.52949,-3.52392 1.56619,3.13238 5.8732,0.39154 3.13238,-3.52392 h 7.43939 l 1.17464,3.13238 7.43939,-3.13238 -0.78309,3.13238 14.48723,-3.52392 6.26475,3.52392 3.52392,-3.52392 9.39713,3.13237 12.92104,-3.13237 7.04784,3.52392 3.13238,-4.30702 5.48166,-0.39154 9.00557,4.30701 4.30702,-4.69856 48.16026,-1.17464 6.6563,2.74083 1.56618,6.65629 6.26475,-1.95773 5.87321,5.48165 7.83093,20.36044 h 8.22249 l 19.96889,-30.14911 -5.87321,12.13796 9.78868,-3.13238 -0.7831,-5.09011 1.17464,3.91547 3.91547,-1.56619 -9.78867,-25.059 h -353.5668 l -120.98798,-6.26475 -13.70414,39.54624 -43.85325,-1.17464 6.6563,-0.7831 -15.66188,-40.32932 -3.91546,-3.13238 H 70.465242 l -9.39713,13.70414 25.059,-6.26475 41.895508,0.39155 5.48166,5.48165 -5.8732,-3.91546 H 82.994742 l -23.10127,6.65629 -15.66187,23.49281 4.30701,13.70414 -10.57176,5.48166 z m 59.12357,28.97446 0.39155,-0.39154 h 5.090108 l 0.39155,0.39154 -0.39155,0.39155 h -5.090108 z m 15.270328,-3.13237 -0.78309,0.78309 h -0.39155 l -0.39155,0.39155 h -0.39154 l -0.39155,0.39155 h -0.39155 l -0.39154,0.39154 h -0.7831 l -0.39154,0.39155 h -0.7831 l -0.39154,0.39155 h -1.56619 l -0.39155,-0.39155 0.39155,-0.39155 h 1.17464 l 0.39155,-0.39154 h 0.78309 l 0.39155,-0.39155 h 0.78309 l 0.39155,-0.39155 h 0.39154 l 0.39155,-0.39154 h 0.39155 l 0.39154,-0.39155 h 0.39155 l 0.39155,-0.39155 h 0.39154 z m -25.058998,0 0.39155,-0.39155 h 0.39155 l 0.39154,0.39155 h 0.39155 l 0.39155,0.39155 h 0.39154 l 0.39155,0.39154 h 0.78309 l 0.39155,0.39155 h 0.7831 l 0.39154,0.39155 h 0.7831 l 0.39154,0.39154 h 0.7831 l 0.39154,0.39155 -0.39154,0.39155 h -1.17464 l -0.39155,-0.39155 h -0.78309 l -0.39155,-0.39155 h -0.7831 l -0.39154,-0.39154 h -0.7831 l -0.39154,-0.39155 h -0.39155 l -0.39155,-0.39155 h -0.39154 z m -3.52392,-2.34928 0.39155,-0.39155 h 0.39155 l 0.78309,0.7831 h 0.39155 l 0.78309,0.78309 h 0.39155 l 0.78309,0.78309 -0.39155,0.39155 h -0.39154 l -0.39155,-0.39155 h -0.39155 l -0.78309,-0.78309 h -0.39155 z m 17.22806,-2.74083 0.783098,0.78309 v 0.39155 l 0.39154,0.39155 v 0.39154 l -1.566178,1.56619 h -1.56619 l -0.39155,-0.39154 0.39155,-0.39155 h 1.17464 v -0.39155 h -1.17464 v 0.39155 l -0.39155,0.39155 -0.78309,-0.7831 v -1.56619 l 0.39154,-0.39154 h 0.39155 l 0.39155,0.39154 h 1.17464 v -0.39154 l 0.39155,-0.39155 z m -20.36043,-0.39155 0.39154,-0.39154 2.74083,2.74082 -0.39155,0.39155 h -0.39154 l -2.34928,-2.34928 z m 38.371588,-0.78309 0.39154,0.39155 v 0.39154 l -3.13237,3.13238 h -0.39155 l -0.39154,-0.39155 z m -32.106838,-3.91547 0.39154,0.39155 v 0.39155 l 0.39155,0.39154 h 0.39155 l 0.78309,-0.78309 h 0.39155 l 1.17464,1.17464 v 1.56619 l -1.17464,1.17464 h -1.95774 l -0.39154,-0.39155 0.39154,-0.39155 -0.39154,0.39155 -0.7831,-0.78309 v -0.39155 l -0.39154,-0.39155 v -1.17464 z m 25.842088,-0.39155 1.56619,1.56619 v 1.17464 l -1.56619,1.56619 h -1.17464 l -0.39155,0.39155 -1.17464,-1.17464 v -1.95774 l 0.78309,-0.78309 h 0.39155 l 0.78309,-0.7831 z m 11.7464,-9.00557 0.39155,0.39154 v 2.34929 l -0.39155,0.39154 v 1.17464 l -0.39154,0.39155 -0.39155,-0.39155 v -1.56618 l 0.39155,-0.39155 v -1.95774 z m -42.287058,-4.30702 0.7831,0.7831 v 1.95773 l -0.7831,0.78309 h -1.95773 l -0.39155,-0.39154 v -0.39155 l 0.39155,-0.39155 0.39155,0.39155 h 1.17464 l 0.39154,-0.39155 -0.39154,-0.39154 v -1.56619 z m 36.805408,-0.39155 1.17464,1.17465 v 0.39154 l 0.39155,0.39155 v 0.39155 l -0.39155,0.39154 v 0.39155 l -0.7831,0.78309 h -0.78309 l -0.39155,0.39155 -0.39154,-0.39155 h -0.39155 l -0.78309,-0.78309 v -1.95773 l 1.17464,-1.17465 z m 5.8732,-0.78309 0.39155,0.39155 v 5.09011 l -0.39155,0.39154 -0.39155,-0.39154 v -5.09011 z m -50.117998,-0.39155 0.39155,0.39155 v 5.8732 l 0.39155,0.39155 v 1.95774 l -0.39155,0.39154 -0.39155,-0.39154 v -1.56619 l -0.39154,-0.39155 v -6.26475 z m 21.14353,-2.34928 h 0.39155 l 0.39155,-0.39154 h 0.78309 l 0.39155,-0.39155 h 3.915468 l 0.39154,0.39155 h 0.7831 l 0.39154,0.39154 h 0.39155 l 1.95773,1.95774 v 0.39154 l 0.39155,0.39155 v 0.39155 l 0.39155,0.39154 v 0.39155 l 0.39155,0.39155 v 3.13237 l -0.39155,0.39155 v 0.78309 l -0.7831,0.7831 v 0.39154 l -1.56618,1.56619 h -0.39155 l -0.78309,0.7831 h -0.7831 l -0.39154,0.39154 h -1.174638 l -0.39155,0.39155 h -0.39155 l -0.39154,-0.39155 h -1.56619 l -0.39155,-0.39154 h -0.39155 l -0.39154,-0.39155 h -0.39155 l -0.39155,-0.39155 h -0.39154 l -1.56619,-1.56619 v -0.39154 l -0.78309,-0.7831 v -1.17464 l -0.39155,-0.39154 v -2.74083 l 0.39155,-0.39155 v -0.78309 l 0.39154,-0.39155 v -0.39155 l 1.56619,-1.56618 0.39155,0.39154 -0.39155,-0.39154 z m -17.6196,-7.43939 0.39154,0.39155 v 0.39155 l -0.39154,0.39154 v 0.39155 l -0.39155,0.39155 v 0.39154 l -0.39155,0.39155 v 0.39155 l -0.39155,0.39154 v 0.39155 l -0.39154,0.39155 v 0.78309 l -0.39155,0.39155 v 0.78309 l -0.39155,0.39155 v 1.17464 l -0.39154,0.39155 v 1.56618 l -0.39155,0.39155 -0.39155,-0.39155 v -1.95773 l 0.39155,-0.39155 v -1.17464 l 0.39155,-0.39154 v -0.7831 l 0.39154,-0.39154 v -0.7831 l 0.39155,-0.39155 v -0.39154 l 0.39155,-0.39155 v -0.39155 l 0.39154,-0.39154 v -0.39155 l 0.39155,-0.39155 v -0.39154 z m 120.596418,0.39155 v -0.39155 l 1.56619,-1.56618 h 0.39155 l 0.39155,-0.39155 h 6.26475 l 0.39154,0.39155 v 1.56618 l -0.78309,0.7831 h -7.83094 z m -113.157028,-1.56619 1.17464,-1.17464 0.39154,0.39155 h 0.39155 l 0.39155,0.39155 0.39154,-0.39155 h 0.39155 l 0.39155,-0.39155 h 0.39154 l 0.39155,0.39155 v 0.39155 l 0.39155,0.39154 v 0.7831 l -0.39155,0.39154 v 0.39155 l -0.78309,0.78309 h -0.39155 l -0.78309,-0.78309 h -0.39155 l -0.39155,0.39155 h 1.17464 l 0.39155,0.39154 -0.39155,0.39155 h -1.95773 l -0.39155,-0.39155 v -0.39154 l -0.39154,-0.39155 z m 25.450538,-1.56618 h 1.56619 l 1.17464,1.17464 -0.39155,0.39154 0.39155,-0.39154 0.78309,0.78309 v 1.17464 l -1.17464,1.17464 h -1.56619 l -0.39154,-0.39155 h -0.39155 l -1.17464,-1.17464 v -1.56618 z m -27.408278,-3.52393 0.39155,0.39155 -3.52392,3.52392 -0.39155,-0.39154 v -0.39155 l 3.13237,-3.13238 z m 14.09569,0.39155 0.78309,-0.78309 0.39155,0.39154 v 0.39155 h 0.78309 l 0.39155,-0.39155 h -1.17464 l -0.39155,-0.39154 0.39155,-0.39155 h 1.56619 l 0.39154,0.39155 h 0.39155 l 0.391548,0.39154 v 0.39155 l 0.39154,0.39155 v 0.78309 l -0.39154,0.39155 v 0.39154 l -0.391548,0.39155 h -2.74083 l -0.78309,-0.78309 z m -2.34928,-5.8732 0.39154,-0.39155 h 7.830938 l 0.39155,0.39155 -0.39155,0.39154 h -7.830938 z m -32.88994,-1.17464 0.39155,0.39154 v 0.39155 l -0.39155,0.39155 v 0.39154 l -0.39155,0.39155 v 0.39155 l -1.56618,1.56619 v 0.39154 l -0.7831,0.7831 v 0.39154 l -0.39154,0.39155 -0.7831,-0.78309 v -0.39155 l 0.39155,-0.39155 v -0.39154 l 0.39155,-0.39155 V 161.495 l 0.78309,-0.78309 v -0.39155 l 0.78309,-0.78309 v -0.39155 l 0.7831,-0.78309 0.39154,0.39154 z m 14.09569,-12.13796 -0.7831,0.7831 h -0.39154 l -0.39155,0.39155 -0.39155,-0.39155 h -0.39154 l -0.39155,0.39155 0.39155,0.39154 -0.39155,0.39155 h -0.39155 l -1.17464,1.17464 h -0.39154 l -1.95774,1.95773 v 0.39155 l -0.78309,0.78309 h -0.7831 l -1.17464,1.17464 v 0.39155 l -0.39154,0.39155 h -0.39155 l -0.39155,0.39155 v 0.39154 l -1.95773,1.95774 -0.39155,-0.39155 -0.39154,0.39155 -0.39155,-0.39155 v -0.39155 l 2.34928,-2.34928 v -0.39155 l 3.52392,-3.52392 h 0.39155 l 1.95773,-1.95773 h 0.39155 l 0.78309,-0.78309 h 0.39155 l 1.17464,-1.17465 h 0.39155 l 0.39154,-0.39154 h 0.39155 l 0.39155,0.39154 0.39154,-0.39154 h 0.39155 z m 46.202528,-0.78309 0.39154,-0.39155 h 0.39155 l 0.39155,0.39155 h 0.39154 l 0.7831,0.78309 h 0.39154 l 0.7831,0.7831 -0.39155,0.39155 h -0.39155 0.39155 l 0.39155,0.39154 -0.39155,-0.39154 0.39155,-0.39155 h 0.39154 l 0.7831,0.78309 h 0.39155 l 1.95773,1.95774 h 0.39155 l 5.09011,5.09011 v 0.39154 l 1.56618,1.56619 v 0.39155 l 0.7831,0.78309 v 0.39155 l -0.39155,0.39154 -0.78309,-0.78309 -0.39155,0.39155 -0.39155,-0.39155 v -0.39155 l -1.17464,-1.17464 v -0.39154 l -2.34928,-2.34929 0.39155,-0.39154 -0.39155,0.39154 -1.17464,-1.17464 h -0.39155 l -1.17464,-1.17464 v -0.39154 h -0.39154 l -1.17464,-1.17464 0.39154,-0.39155 -0.39154,-0.39155 -0.39155,0.39155 h -0.39155 l -0.78309,-0.78309 h -0.39155 l -0.39155,-0.39155 h -0.78309 l -0.39155,-0.39155 v -0.39154 l -0.39154,-0.39155 0.39154,-0.39155 -0.39154,-0.39155 -0.39155,0.39155 h -0.39155 l -0.39154,-0.39155 0.39154,-0.39154 z m -4.69857,-1.56619 0.39155,-0.39154 h 0.39155 l 0.39154,-0.39155 h 0.39155 l 0.39155,0.39155 -0.39155,0.39154 0.39155,-0.39154 h 0.78309 l 0.39155,0.39154 h 0.39155 l 0.39154,0.39155 h 0.39155 l 0.78309,0.78309 -0.39154,0.39155 h -0.39155 l -0.39155,0.39155 h -0.39154 l -0.39155,-0.39155 h -0.39155 l -0.78309,-0.78309 h -0.7831 l -0.39154,-0.39155 h -0.39155 z m -40.720868,0.39155 0.39155,-0.39155 h 0.39155 l 0.39154,-0.39154 h 0.39155 l 0.39155,-0.39155 h 0.39154 l 0.39155,-0.39155 h 0.39155 l 0.39154,-0.39154 h 0.39155 l 0.39155,-0.39155 h 0.78309 l 0.39155,-0.39155 h 0.39154 l 0.39155,-0.39154 h 0.7831 l 0.39154,-0.39155 h 1.17464 l 0.39155,-0.39155 h 1.17464 l 0.39155,-0.39154 h 1.17464 l 0.39154,-0.39155 h 1.17464 l 0.39155,-0.39155 h 1.56619 l 0.39155,-0.39155 h 2.74082 l 0.39155,-0.39154 h 7.439388 l 0.39155,0.39154 h 1.95773 l 0.39155,0.39155 h 1.95773 l 0.39155,0.39155 h 1.17464 l 0.39155,0.39155 h 1.56618 l 0.39155,0.39154 h 0.7831 l 0.39154,0.39155 h 0.7831 l 0.39154,0.39155 h 0.7831 l 0.39154,0.39154 h 0.7831 l 0.39154,0.39155 h 0.39155 l 0.39155,0.39155 h 0.39154 l 0.39155,0.39154 -0.39155,0.39155 h -0.39154 0.39154 l 0.39155,0.39155 -0.78309,0.78309 -1.17464,-1.17464 h -0.7831 l -0.39154,-0.39155 h -1.95774 l -0.78309,-0.78309 h -0.39155 l -0.39155,-0.39155 h -0.78309 l -0.39155,-0.39154 h -1.95773 l -0.39155,-0.39155 h -1.17464 l -0.39154,-0.39155 h -4.30702 l -0.39155,-0.39154 h -4.307008 l -0.39155,0.39154 h -4.69856 l -0.39155,0.39155 h -1.17464 l -0.39155,0.39155 h -1.95773 l -0.39155,0.39154 h -0.78309 l -0.39155,0.39155 h -0.39154 l -0.39155,0.39155 h -1.56619 l -0.39154,-0.39155 0.39154,0.39155 -0.39154,0.39154 h -0.7831 l -0.39155,0.39155 h -0.39154 l -0.39155,-0.39155 0.39155,0.39155 -0.39155,0.39155 h -0.39155 l -0.39154,-0.39155 h -0.39155 0.39155 l 0.39154,0.39155 -0.39154,0.39154 v 0.39155 l -0.39155,0.39155 -0.39155,-0.39155 h -0.39154 l -0.39155,0.39155 h -0.39155 l -0.39154,0.39154 h -0.39155 l -0.39155,0.39155 h -0.39154 l -0.39155,-0.39155 0.39155,-0.39154 h -0.39155 z m 60.298218,-7.43939 0.39154,0.39155 v 0.39154 l 0.7831,0.7831 v 0.39154 l 0.39154,0.39155 v 0.39155 l 0.39155,0.39155 v 0.39154 l 0.39155,0.39155 v 0.39155 l 0.39154,0.39154 v 0.39155 l 0.39155,0.39155 v 0.39154 l 0.39155,0.39155 v 0.39155 l 0.39154,0.39154 v 0.39155 l 0.39155,0.39155 v 0.39154 l 0.39155,0.39155 v 0.39155 l 0.39155,0.39154 v 0.39155 l 0.39154,0.39155 v 0.39155 l 0.39155,0.39154 v 0.39155 l 0.39155,0.39155 v 0.39154 l 0.39154,0.39155 v 0.39155 l 0.39155,0.39154 v 0.39155 l 0.39155,0.39155 v 0.39154 l 0.39154,0.39155 v 0.39155 l 0.39155,0.39154 v 0.39155 l 0.39155,0.39155 v 0.39154 l 0.39154,0.39155 v 0.39155 l 0.39155,0.39155 v 0.39154 l 0.39155,0.39155 v 0.39155 l 0.39154,0.39154 v 0.39155 l 0.39155,0.39155 v 0.39154 l 0.39155,0.39155 v 0.39155 l 0.39155,0.39154 v 0.7831 l 0.39154,0.39154 v 0.39155 l 0.39155,0.39155 v 0.39155 l 0.39155,0.39154 -0.7831,0.7831 -0.78309,-0.7831 v -0.39154 l -0.39155,-0.39155 v -0.39155 l -0.39155,-0.39155 v -0.78309 l -0.39154,-0.39155 v -0.39154 l -0.7831,-0.7831 v -0.78309 l -0.39154,-0.39155 v -0.39154 l -0.7831,-0.7831 v -0.39154 l -0.39154,-0.39155 v -0.39155 l -0.39155,-0.39155 v -0.39154 l -0.39155,-0.39155 v -0.39155 l -0.39154,-0.39154 v -0.39155 l -0.39155,-0.39155 v -0.39154 l -0.39155,-0.39155 v -0.39155 l -0.39154,-0.39154 v -0.39155 l 0.39154,-0.39155 -0.39154,0.39155 -0.39155,-0.39155 v -0.39154 l 0.39155,-0.39155 -0.39155,0.39155 -0.39155,-0.39155 v -0.39155 l -0.39155,-0.39154 v -0.39155 l -0.39154,-0.39155 v -0.39155 l -0.39155,-0.39154 v -0.39155 l -0.39155,-0.39155 v -0.39154 l -0.39154,-0.39155 v -0.39155 l -0.39155,-0.39154 v -0.39155 l 0.39155,-0.39155 -0.39155,0.39155 -0.78309,-0.78309 v -0.39155 l -0.39155,-0.39155 v -0.39154 l -0.39155,-0.39155 v -0.78309 l -0.78309,-0.7831 v -0.78309 l -0.39155,-0.39155 v -0.39155 z m -2.34928,-4.69856 0.39154,0.39155 v 0.39154 l 0.7831,0.7831 v 0.39154 l 0.39154,0.39155 v 0.39155 l 0.39155,0.39154 v 0.7831 l 0.39155,0.39154 v 0.39155 l -0.7831,0.78309 -0.78309,-0.78309 V 136.436 l -0.39155,-0.39154 v -0.39155 l -0.39154,-0.39155 v -0.39154 l -0.39155,-0.39155 v -0.78309 l -0.39155,-0.39155 v -0.39155 z"
     fill="#000000"
     fill-rule="evenodd"
     id="path7"
     style="stroke-width:0.391547" />
  <path
     d="m 55.978002,99.23905 -1.17464,1.17464 v 0.39155 l -0.39154,0.39155 v 0.78309 l -0.39155,0.39155 v 5.48165 l -0.39155,0.39155 v 2.74083 l 0.39155,0.39155 v 4.30701 l 0.39155,0.39155 v 1.17464 l 0.39154,0.39154 v 0.39155 l 0.39155,0.39155 v 0.39155 h 2.34928 l 0.39155,0.39154 v 1.56619 l 0.39154,0.39155 v 3.91547 l -1.56618,1.56618 -0.39155,-0.39154 h -0.78309 l -2.74083,2.74082 v 1.56619 l 0.39154,0.39155 v 0.39154 l 0.39155,0.39155 h 4.30702 l 0.39154,0.39155 1.17464,-1.17464 v -0.39155 l 0.7831,-0.78309 v -0.39155 l 0.78309,-0.78309 v -0.39155 l 1.17464,-1.17464 v -0.39155 l 0.7831,-0.78309 v -0.39155 l 0.78309,-0.78309 v -0.39155 l 0.39155,-0.39155 v -0.78309 h -1.95774 l -0.39154,-0.39155 0.39154,-0.39154 h 0.7831 -0.39155 l -0.39155,-0.39155 0.7831,-0.78309 v -1.56619 l -0.39155,-0.39155 v -1.17464 l 1.17464,-1.17464 h 0.39155 l 3.13237,-3.13237 0.39155,0.39154 -0.39155,-0.39154 0.39155,-0.39155 h 0.78309 v -0.78309 l -0.39155,-0.39155 v -1.17464 l 0.39155,-0.39155 v -2.74083 l -0.39155,-0.39154 v -1.17464 l -0.39154,-0.39155 v -0.39155 l -0.39155,-0.39154 v -0.39155 l -0.39155,-0.39155 v -0.39154 l -2.34928,-2.34929 h -0.39154 l -0.7831,-0.78309 h -0.39154 l -0.39155,-0.39155 h -0.39155 l -0.39154,-0.39154 h -0.39155 l -0.39155,-0.39155 h -1.56619 l -0.39154,-0.39155 z"
     fill="#000000"
     fill-rule="evenodd"
     id="path8"
     style="stroke-width:0.391547" />
  <path
     d="m 71.248332,115.68402 65.779868,0.39155 3.13237,3.13237 16.44497,42.67861 h 34.06458 l 13.70414,-40.32933 123.7288,6.6563 h 353.17526 l 5.48166,13.31259 38.37159,-57.94893 -26.23364,-41.11242 H 274.85269 l -8.22248,5.48166 1.95773,5.8732 -9.00558,16.44497 -2.34928,0.39154 1.56619,0.39155 -136.2583,23.10126 -1.17464,-17.6196 2.74082,4.69856 1.95774,-3.91547 -0.39155,-9.00558 -1.95773,-0.78309 -3.91547,7.04784 -2.34928,20.36044 -36.413858,5.8732 z m 554.038788,-55.20811 1.56619,-1.56618 h 0.39155 l 0.39154,-0.39155 h 11.74641 l 0.39154,0.39155 h 0.39155 l 0.39155,0.39154 h 0.39154 l 0.39155,0.39155 v 0.39155 l 0.39155,0.39154 v 0.39155 l 0.39155,0.39155 v 1.56619 l -0.39155,0.39154 v 0.7831 l -1.17464,1.17464 h -0.39155 l -0.39155,0.39154 H 627.6364 l -0.39154,-0.39154 h -0.39155 l -0.7831,-0.7831 0.39155,-0.39154 -0.39155,0.39154 -0.78309,-0.78309 z m -80.2671,1.95774 0.39154,-0.39155 v -1.56619 l 0.39155,-0.39154 v -0.39155 l 0.39155,-0.39155 h 0.39154 l 0.39155,-0.39154 h 0.39155 l 0.39154,-0.39155 h 11.74641 l 0.39155,0.39155 h 0.39154 l 1.56619,1.56618 v 3.13238 l -0.39155,0.39155 v 0.39154 l -0.78309,0.7831 h -0.39155 l -0.39154,0.39154 h -12.5295 l -0.39155,-0.39154 h -0.39155 l -0.78309,-0.7831 v -0.39154 l -0.39155,-0.39155 V 62.8252 Z m -91.23042,-1.95774 1.56619,-1.56618 h 0.39155 l 0.39154,-0.39155 h 11.74641 l 0.39154,0.39155 h 0.39155 l 0.39155,0.39154 h 0.39154 l 0.39155,0.39155 v 0.39155 l 0.39155,0.39154 v 0.7831 l 0.39155,0.39155 v 1.17464 l -0.39155,0.39154 v 0.7831 l -1.17464,1.17464 h -0.39155 l -0.39155,0.39154 h -12.52949 l -0.39155,-0.39154 h -0.39155 l -0.78309,-0.7831 v -0.39154 l -0.39155,-0.39155 z m -80.2671,1.17465 0.39154,-0.39155 v -0.39155 l 0.39155,-0.39155 v -0.39154 l 1.17464,-1.17464 h 0.39155 l 0.39154,-0.39155 h 11.74641 l 0.39155,0.39155 h 0.39154 l 0.39155,0.39154 h 0.39155 l 0.39154,0.39155 v 0.39155 l 0.39155,0.39154 v 0.39155 l 0.39155,0.39155 v 1.95773 l -0.39155,0.39155 v 0.39155 l -1.17464,1.17464 h -0.39155 l -0.39154,0.39154 h -12.13796 l -0.39154,-0.39154 h -0.39155 l -0.39155,-0.39155 h -0.39154 l -0.39155,-0.39155 v -0.39154 l -0.39155,-0.39155 V 63.21674 L 373.5225,62.8252 Z m -98.27826,3.52392 0.39154,-0.39155 v -0.39155 l 0.39155,-0.39154 v -0.39155 l 0.7831,-0.78309 v -0.39155 l 0.39154,-0.39155 v -0.39154 l 0.39155,-0.39155 v -0.39155 l 0.39155,-0.39155 v -0.39154 l 0.39154,-0.39155 v -0.39155 l 0.39155,-0.39154 v -0.39155 l 0.39155,-0.39155 v -0.39154 l 0.39154,-0.39155 v -0.39155 l 0.39155,-0.39154 V 56.1689 l 0.78309,-0.78309 h 23.10127 l 0.78309,0.78309 v 9.39712 l -0.39155,0.39155 h -0.39154 l -0.39155,-0.39155 h -1.56619 1.56619 l 0.39155,0.39155 -0.39155,0.39155 h -15.66187 l -0.39155,-0.39155 h -5.09011 l -0.39155,0.39155 h -5.8732 l -0.39155,-0.39155 v -0.39155 z"
     fill="#000000"
     fill-rule="evenodd"
     id="path9"
     style="stroke-width:0.391547" />
  <path
     d="m 288.16528,39.72393 v 1.17464 l 0.39155,0.39155 h 3.13238 l 0.39154,-0.39155 h 21.14353 l 0.39155,0.39155 h 3.13237 l 0.39155,-0.39155 v -0.39154 l -0.39155,-0.39155 v -1.17464 l -1.56618,-1.56619 h -2.74083 l -0.39155,0.39155 v 0.39154 l -0.39155,0.39155 h -18.01115 l -1.17464,-1.17464 h -2.34928 l -1.56619,1.56619 v 0.39155 z"
     fill="#000000"
     fill-rule="evenodd"
     id="path10"
     style="stroke-width:0.391547" />
  <path
     d="m 655.43623,37.37465 v 2.74083 l 0.78309,0.78309 v 0.7831 h 25.059 l 0.39155,-0.39155 v -0.39155 l 0.78309,-0.78309 v -2.74083 l -0.78309,-0.78309 v -0.39155 l -0.7831,-0.78309 h -0.39154 l -0.39155,-0.39155 h -0.39155 l -0.39154,-0.39155 H 658.5686 l -0.39154,0.39155 h -0.39155 l -0.39155,0.39155 h -0.39154 l -1.17464,1.17464 v 0.39154 z"
     fill="#000000"
     fill-rule="evenodd"
     id="path11"
     style="stroke-width:0.391547" />
  <path
     d="m 585.34934,38.15774 v 1.17465 l 0.39155,0.39154 v 0.7831 l 0.39155,0.39154 v 0.39155 l 0.39154,0.39155 h 25.45055 v -0.7831 l 0.39154,-0.39154 v -0.39155 l 0.39155,-0.39155 V 37.7662 l -0.39155,-0.39155 V 36.9831 l -0.39154,-0.39154 v -0.39155 l -0.39155,-0.39155 h -0.39155 l -0.78309,-0.78309 h -0.39155 l -0.39154,-0.39155 h -20.75199 l -0.39154,0.39155 h -0.7831 l -1.95773,1.95773 v 0.7831 z"
     fill="#000000"
     fill-rule="evenodd"
     id="path12"
     style="stroke-width:0.391547" />
  <path
     d="m 482.76407,37.7662 v 1.95773 l 0.39154,0.39155 v 0.39155 l 0.39155,0.39154 v 0.39155 l 0.39155,0.39155 h 25.059 l 0.39154,-0.39155 v -0.78309 l 0.39155,-0.39155 v -0.39155 l 0.39155,-0.39154 V 37.7662 L 509.7808,37.37465 V 36.9831 l -1.95773,-1.95773 h -0.7831 l -0.39154,-0.39155 h -20.36044 l -0.39155,0.39155 h -0.78309 l -1.95774,1.95773 v 0.39155 z"
     fill="#000000"
     fill-rule="evenodd"
     id="path13"
     style="stroke-width:0.391547" />
  <path
     d="m 373.91404,37.7662 v 1.95773 l 0.39155,0.39155 v 0.39155 l 0.39155,0.39154 v 0.39155 l 0.39154,0.39155 h 25.059 v -0.39155 l 0.39155,-0.39155 v -0.39154 l 0.39155,-0.39155 v -0.39155 l 0.39154,-0.39154 V 37.7662 l -0.39154,-0.39155 V 36.9831 l -1.56619,-1.56618 h -0.39155 l -0.39154,-0.39155 h -0.39155 l -0.39155,-0.39155 h -20.75198 l -0.39155,0.39155 h -0.39155 l -0.39154,0.39155 h -0.39155 l -0.78309,0.78309 v 0.39155 l -0.39155,0.39154 v 0.39155 z"
     fill="#000000"
     fill-rule="evenodd"
     id="path14"
     style="stroke-width:0.391547" />
  <path
     d="m 697.72329,33.85073 -0.7831,0.78309 h -0.39154 l -0.7831,0.7831 h -0.39154 l -0.39155,0.39154 v 1.17464 l 0.39155,0.39155 v 0.39155 l 0.39154,0.39154 h 0.39155 l 0.78309,-0.78309 h 0.39155 l 0.39155,-0.39155 h 0.39154 l 0.39155,0.39155 -0.39155,-0.39155 1.17465,-0.78309 h 0.39154 l 0.39155,0.39155 -0.39155,0.39154 0.39155,-0.39154 0.78309,0.78309 v 0.39155 l 0.39155,0.39154 v 0.39155 l 0.78309,0.7831 v 0.39154 l 0.39155,0.39155 v 0.39155 l 0.78309,0.78309 v 0.39155 l 0.7831,0.78309 v 0.39155 l 0.39154,0.39154 v 0.39155 l 0.7831,0.78309 v 0.39155 l 0.78309,0.78309 v 0.39155 l 0.39155,0.39155 v 0.39155 l 0.78309,0.78309 v 0.39155 l 0.39155,0.39154 v 0.39155 l 0.78309,0.78309 v 0.39155 l 0.7831,0.78309 v 0.39155 l 0.39154,0.39155 v 0.39154 l 0.7831,0.7831 v 0.39154 l 0.78309,0.7831 v 0.39155 l 0.78309,0.78309 v 0.39155 l 0.39155,0.39154 v 0.39155 l 0.7831,0.78309 v 0.39155 l 0.78309,0.78309 v 0.39155 l 0.78309,0.78309 v 0.39155 l 0.39155,0.39155 v 0.39154 l 0.78309,0.7831 v 0.39155 l 0.39155,0.39154 v 0.39155 l 0.78309,0.78309 v 0.39155 l 0.7831,0.78309 v 0.39155 l 0.78309,0.78309 v 0.39155 l 0.78309,0.78309 v 1.17465 l -1.17464,1.17464 h -0.78309 v 0.78309 l 0.78309,0.78309 v 0.39155 l 0.39155,0.39155 h 0.39155 l 0.39154,-0.39155 h 0.39155 l 0.7831,-0.78309 h 0.39154 l 0.7831,-0.7831 v -0.39154 l 0.39154,-0.39155 v -1.95774 l -0.39154,-0.39154 v -0.39155 l -0.7831,-0.78309 v -0.39155 l -0.39154,-0.39155 v -0.39154 l -0.7831,-0.7831 V 62.8252 l -0.78309,-0.7831 v -0.39154 l 0.39154,-0.39155 -0.39154,0.39155 -0.7831,-0.7831 v -0.39155 l -0.39154,-0.39154 v -0.39155 l -0.7831,-0.78309 v -0.39155 l -0.78309,-0.78309 v -0.39155 l -0.39155,-0.39155 v -0.39154 l -0.78309,-0.7831 v -0.39154 l -0.39155,-0.39155 v -0.39155 l -0.78309,-0.78309 v -0.39155 l -0.78309,-0.78309 v -0.39155 l -0.39155,-0.39155 v -0.39154 l -0.7831,-0.7831 V 50.2957 l -0.39154,-0.39155 V 49.5126 l -0.7831,-0.78309 v -0.39155 l -0.78309,-0.78309 v -0.39155 l -0.39155,-0.39154 v -0.39155 l -0.78309,-0.7831 v -0.39154 l -0.78309,-0.7831 v -0.39154 l -0.39155,-0.39155 v -0.39155 l -0.78309,-0.78309 v -0.39155 l -0.7831,-0.78309 v -0.39155 l -0.39155,-0.39154 v -0.39155 l 0.39155,-0.39155 -0.39155,0.39155 -0.78309,-0.78309 v -0.39155 l -0.78309,-0.7831 V 37.7662 l -0.39155,-0.39155 V 36.9831 l -0.78309,-0.78309 v -0.39155 l -0.39155,-0.39154 v -0.39155 l -1.17464,-1.17464 h -0.39155 l -0.39154,-0.39155 h -1.95774 l -0.39155,0.39155 z"
     fill="#000000"
     fill-rule="evenodd"
     id="path15"
     style="stroke-width:0.391547" />
  <path
     d="m 319.88058,33.45918 0.39155,0.39155 v 0.78309 l 2.74082,2.74083 v 1.56619 l 0.39155,0.39155 v 1.56618 h 6.6563 l 0.39154,0.39155 h 3.13238 l 0.39155,-0.39155 h 0.78309 v -2.34928 l 1.17464,-1.17464 v -4.30701 l -0.39155,-0.39155 v -0.7831 l -0.39154,-0.39154 v -0.7831 l -0.39155,-0.39154 v -1.56619 l 0.39155,-0.39155 v -0.78309 l 0.39154,-0.39155 h 27.79983 l 0.78309,-0.78309 v -1.56619 l -0.39154,-0.39155 v -0.39154 h -0.39155 l -0.39155,-0.39155 h -1.17464 l -0.39155,0.39155 h -26.23363 l -0.39155,-0.39155 h -1.17464 l -0.39155,-0.39155 h -8.61403 l -0.39155,-0.39154 h -0.39154 l -0.39155,0.39154 h -0.39155 l -0.78309,1.17464 v 1.95774 l 0.39155,0.39155 v 0.78309 l -0.39155,0.39155 h -0.39155 l -1.95773,1.95773 z"
     fill="#000000"
     fill-rule="evenodd"
     id="path16"
     style="stroke-width:0.391547" />
</svg>
