<svg xmlns="http://www.w3.org/2000/svg" width="2172" height="724" viewBox="0 0 2172 724">
<rect width="100%" height="100%" fill="white"/>
<path d="M 457,509 L 466,520 L 467,541 L 475,542 L 480,561 L 493,564 L 500,578 L 507,574 L 519,588 L 529,586 L 539,599 L 549,596 L 560,609 L 571,607 L 582,620 L 605,624 L 610,634 L 625,633 L 632,644 L 647,643 L 652,653 L 674,653 L 679,662 L 699,657 L 701,663 L 718,657 L 726,663 L 742,657 L 750,663 L 762,657 L 774,663 L 786,657 L 794,663 L 810,657 L 818,663 L 831,657 L 841,663 L 861,657 L 868,663 L 892,657 L 894,663 L 916,657 L 918,663 L 938,657 L 943,663 L 952,657 L 966,657 L 968,663 L 980,657 L 990,663 L 997,657 L 1004,663 L 1026,657 L 1027,663 L 1050,657 L 1052,663 L 1068,657 L 1077,663 L 1086,657 L 1099,657 L 1101,663 L 1118,657 L 1126,663 L 1136,662 L 1134,657 L 1142,663 L 1151,657 L 1164,663 L 1174,657 L 1188,663 L 1202,660 L 1197,657 L 1210,657 L 1212,663 L 1221,657 L 1236,663 L 1257,657 L 1259,663 L 1268,657 L 1282,663 L 1290,657 L 1302,657 L 1304,663 L 1322,657 L 1328,663 L 1345,657 L 1352,663 L 1361,657 L 1374,657 L 1376,663 L 1398,657 L 1400,663 L 1423,657 L 1425,663 L 1446,657 L 1450,663 L 1473,657 L 1475,663 L 1500,657 L 1509,663 L 1525,657 L 1534,663 L 1536,657 L 1549,657 L 1558,663 L 1564,657 L 1575,663 L 1590,657 L 1599,663 L 1615,657 L 1625,663 L 1626,657 L 1641,657 L 1650,663 L 1666,655 L 1674,661 L 1690,651 L 1697,657 L 1706,648 L 1722,651 L 1736,641 L 1747,645 L 1761,634 L 1768,639 L 1782,628 L 1790,633 L 1796,624 L 1809,620 L 1815,625 L 1821,616 L 1835,618 L 1848,607 L 1855,611 L 1861,602 L 1878,601 L 1913,569 L 1912,558 L 1924,546 L 1921,529 L 1928,523 L 1920,503 L 1924,489 L 1914,480 L 1912,464 L 1902,461 L 1897,446 L 1888,447 L 1881,434 L 1862,431 L 1859,423 L 1850,427 L 1827,419 L 1825,425 L 1813,424 L 1810,417 L 1789,423 L 1787,416 L 1774,422 L 1762,414 L 1741,420 L 1736,412 L 1717,418 L 1713,410 L 1701,417 L 1692,409 L 1655,413 L 1653,406 L 1631,412 L 1628,405 L 1607,411 L 1601,404 L 1595,412 L 1581,405 L 1561,412 L 1558,405 L 1537,411 L 1535,405 L 1514,411 L 1511,404 L 1493,411 L 1491,404 L 1451,411 L 1446,403 L 1436,410 L 1424,410 L 1422,404 L 1405,409 L 1403,403 L 1395,410 L 1384,410 L 1382,403 L 1362,410 L 1357,403 L 1347,410 L 1334,410 L 1332,403 L 1322,409 L 1298,403 L 1295,410 L 1283,410 L 1278,402 L 1269,409 L 1253,409 L 1250,402 L 1240,409 L 1228,409 L 1224,402 L 1215,409 L 1203,409 L 1200,402 L 1191,409 L 1179,409 L 1176,402 L 1166,409 L 1154,409 L 1151,402 L 1142,409 L 1129,409 L 1126,402 L 1118,409 L 1105,409 L 1102,402 L 1093,409 L 1080,409 L 1077,402 L 1068,409 L 1056,409 L 1053,402 L 1043,409 L 1031,409 L 1028,402 L 1018,409 L 1006,409 L 1002,402 L 993,409 L 977,403 L 956,409 L 948,402 L 944,409 L 929,410 L 926,403 L 900,410 L 895,402 L 876,410 L 871,403 L 861,410 L 849,410 L 847,403 L 837,410 L 825,410 L 822,403 L 812,410 L 800,410 L 797,403 L 788,410 L 777,410 L 774,403 L 765,410 L 753,410 L 752,404 L 730,410 L 721,404 L 708,411 L 703,404 L 694,411 L 681,411 L 679,405 L 669,411 L 654,405 L 645,411 L 630,405 L 594,410 L 602,412 L 589,406 L 572,412 L 566,406 L 540,407 L 503,420 L 501,429 L 483,436 L 478,452 L 467,457 L 466,478 L 458,483 L 464,505 Z M 1474,643 L 1475,642 L 1476,642 L 1477,643 L 1478,643 L 1479,644 L 1480,644 L 1482,646 L 1481,647 L 1476,647 L 1475,646 L 1475,645 L 1474,644 Z M 1410,641 L 1410,643 L 1409,644 L 1409,645 L 1407,647 L 1400,647 L 1399,646 L 1401,644 L 1402,644 L 1403,645 L 1405,645 L 1403,645 L 1402,644 L 1403,643 L 1404,643 L 1406,641 L 1407,641 L 1408,640 L 1409,640 Z M 1015,636 L 1016,637 L 1016,638 L 1015,639 L 1015,641 L 1014,642 L 1014,643 L 1013,644 L 1013,646 L 1012,647 L 1006,647 L 1005,646 L 1005,645 L 1004,644 L 1004,643 L 1006,641 L 1007,641 L 1008,640 L 1009,640 L 1011,638 L 1012,638 L 1014,636 Z M 882,637 L 881,638 L 881,640 L 880,641 L 880,642 L 879,643 L 879,644 L 878,645 L 878,646 L 877,647 L 870,647 L 869,646 L 870,645 L 875,645 L 874,645 L 873,644 L 871,644 L 870,643 L 871,642 L 872,642 L 873,641 L 874,641 L 875,640 L 876,641 L 877,641 L 876,641 L 875,640 L 876,639 L 877,639 L 880,636 L 881,636 Z M 654,629 L 655,628 L 660,633 L 661,633 L 663,635 L 662,636 L 661,636 L 660,635 L 658,637 L 656,637 L 655,636 L 655,633 L 654,632 Z M 1002,627 L 1001,628 L 1000,628 L 999,629 L 998,629 L 997,628 L 995,628 L 997,628 L 998,629 L 996,631 L 994,631 L 993,632 L 992,632 L 991,633 L 989,633 L 988,634 L 985,634 L 984,635 L 977,635 L 976,636 L 971,636 L 970,635 L 963,635 L 962,634 L 959,634 L 958,633 L 956,633 L 955,632 L 953,632 L 952,631 L 951,631 L 950,630 L 949,630 L 947,628 L 948,627 L 949,627 L 950,628 L 952,626 L 953,626 L 954,627 L 956,627 L 957,628 L 959,628 L 960,629 L 963,629 L 964,630 L 968,630 L 969,631 L 978,631 L 979,630 L 984,630 L 985,629 L 987,629 L 988,628 L 990,628 L 991,627 L 992,627 L 993,626 L 994,626 L 995,625 L 996,625 L 997,624 L 998,624 L 1000,626 L 1001,626 Z M 675,626 L 677,624 L 678,624 L 679,623 L 680,623 L 681,624 L 682,624 L 684,626 L 685,626 L 686,627 L 688,627 L 689,628 L 690,628 L 691,629 L 694,629 L 695,630 L 701,630 L 702,631 L 709,631 L 710,630 L 715,630 L 716,629 L 719,629 L 720,628 L 722,628 L 723,627 L 725,627 L 726,626 L 727,626 L 728,625 L 729,625 L 730,626 L 733,626 L 734,627 L 733,628 L 732,628 L 731,629 L 730,629 L 729,628 L 727,628 L 727,629 L 728,628 L 729,628 L 730,629 L 728,631 L 726,631 L 725,632 L 724,632 L 723,633 L 721,633 L 720,634 L 717,634 L 716,635 L 709,635 L 708,636 L 702,636 L 701,635 L 695,635 L 694,634 L 691,634 L 690,633 L 688,633 L 687,632 L 685,632 L 684,631 L 683,631 L 682,630 L 681,630 L 680,629 L 679,629 L 678,628 L 677,628 Z M 998,624 L 1000,622 L 1001,622 L 1002,623 L 1003,622 L 1004,623 L 1005,623 L 1006,624 L 1003,627 L 1002,627 L 1000,625 L 999,625 Z M 679,623 L 678,624 L 675,624 L 674,625 L 673,625 L 671,623 L 672,622 L 673,622 L 675,620 L 676,621 L 677,621 Z M 1410,620 L 1404,626 L 1403,626 L 1401,628 L 1400,628 L 1399,629 L 1398,629 L 1397,630 L 1396,630 L 1395,631 L 1394,631 L 1393,632 L 1391,632 L 1390,633 L 1388,633 L 1387,634 L 1384,634 L 1383,635 L 1376,635 L 1375,636 L 1371,636 L 1370,635 L 1362,635 L 1361,634 L 1358,634 L 1357,633 L 1355,633 L 1354,632 L 1353,632 L 1352,631 L 1351,631 L 1350,630 L 1349,630 L 1348,629 L 1351,626 L 1352,626 L 1353,627 L 1355,627 L 1356,628 L 1358,628 L 1359,629 L 1362,629 L 1363,630 L 1368,630 L 1369,631 L 1376,631 L 1377,630 L 1383,630 L 1384,629 L 1387,629 L 1388,628 L 1390,628 L 1391,627 L 1392,627 L 1393,626 L 1394,626 L 1395,625 L 1396,625 L 1398,623 L 1399,623 L 1400,622 L 1401,622 L 1402,621 L 1404,623 L 1402,621 L 1405,618 L 1406,618 L 1407,619 L 1409,619 Z M 1470,620 L 1472,618 L 1473,618 L 1474,617 L 1478,621 L 1477,622 L 1475,622 L 1477,622 L 1478,621 L 1479,621 L 1482,624 L 1481,625 L 1480,625 L 1481,625 L 1482,624 L 1483,624 L 1484,625 L 1485,625 L 1486,626 L 1487,626 L 1488,627 L 1490,627 L 1491,628 L 1492,628 L 1493,629 L 1496,629 L 1497,630 L 1503,630 L 1504,631 L 1511,631 L 1512,630 L 1518,630 L 1519,629 L 1521,629 L 1522,628 L 1524,628 L 1525,627 L 1527,627 L 1529,625 L 1530,625 L 1531,624 L 1532,624 L 1533,623 L 1534,623 L 1537,626 L 1535,628 L 1534,628 L 1533,629 L 1532,629 L 1531,630 L 1530,630 L 1529,631 L 1528,631 L 1527,632 L 1526,632 L 1525,633 L 1523,633 L 1522,634 L 1519,634 L 1518,635 L 1511,635 L 1510,636 L 1503,636 L 1502,635 L 1496,635 L 1495,634 L 1492,634 L 1491,633 L 1489,633 L 1488,632 L 1487,632 L 1486,631 L 1485,631 L 1484,630 L 1483,630 L 1482,629 L 1483,628 L 1484,628 L 1483,628 L 1482,629 L 1481,629 L 1480,628 L 1479,628 L 1477,626 L 1476,626 Z M 1070,620 L 1071,619 L 1073,619 L 1073,618 L 1074,617 L 1077,620 L 1078,620 L 1081,623 L 1082,623 L 1084,625 L 1083,626 L 1084,625 L 1085,625 L 1086,626 L 1087,626 L 1088,627 L 1090,627 L 1091,628 L 1092,628 L 1093,629 L 1096,629 L 1097,630 L 1103,630 L 1104,631 L 1111,631 L 1112,630 L 1118,630 L 1119,629 L 1121,629 L 1122,628 L 1124,628 L 1125,627 L 1127,627 L 1128,626 L 1129,626 L 1131,624 L 1132,624 L 1133,623 L 1134,623 L 1135,624 L 1138,624 L 1139,625 L 1137,627 L 1136,627 L 1135,628 L 1134,628 L 1133,629 L 1132,629 L 1131,630 L 1130,630 L 1129,631 L 1128,631 L 1127,632 L 1126,632 L 1125,633 L 1123,633 L 1122,634 L 1119,634 L 1118,635 L 1111,635 L 1110,636 L 1103,636 L 1102,635 L 1096,635 L 1095,634 L 1093,634 L 1092,633 L 1090,633 L 1089,632 L 1087,632 L 1086,631 L 1085,631 L 1084,630 L 1083,630 L 1082,629 L 1081,629 L 1080,628 L 1079,628 L 1077,626 L 1076,626 L 1074,624 L 1075,623 L 1077,623 L 1077,622 L 1076,623 L 1075,623 L 1074,624 Z M 743,620 L 739,624 L 737,622 L 736,622 L 737,623 L 738,623 L 739,624 L 738,625 L 737,625 L 735,627 L 734,627 L 732,625 L 731,626 L 730,626 L 729,625 L 731,623 L 732,623 L 735,620 L 736,620 L 739,617 L 740,618 L 741,618 Z M 1274,616 L 1275,617 L 1278,617 L 1279,618 L 1275,622 L 1274,621 L 1271,621 L 1270,620 Z M 1638,609 L 1640,607 L 1645,607 L 1647,609 L 1647,611 L 1644,614 L 1640,614 L 1638,612 Z M 1235,609 L 1237,607 L 1242,607 L 1244,609 L 1244,612 L 1242,614 L 1238,614 L 1235,611 Z M 701,609 L 703,607 L 708,607 L 710,609 L 710,611 L 709,612 L 709,613 L 708,614 L 703,614 L 701,612 Z M 1507,606 L 1508,607 L 1510,607 L 1511,608 L 1511,612 L 1509,614 L 1505,614 L 1503,612 L 1503,609 L 1505,607 L 1506,607 Z M 1368,609 L 1370,607 L 1371,607 L 1372,606 L 1373,606 L 1374,607 L 1375,607 L 1377,609 L 1377,611 L 1376,612 L 1376,613 L 1375,614 L 1371,614 L 1368,611 Z M 1107,606 L 1108,607 L 1110,607 L 1111,608 L 1111,612 L 1109,614 L 1105,614 L 1103,612 L 1103,609 L 1105,607 L 1106,607 Z M 973,606 L 975,606 L 978,609 L 978,611 L 976,613 L 975,612 L 975,611 L 976,610 L 975,609 L 975,612 L 976,613 L 975,614 L 972,614 L 969,611 L 969,609 L 971,607 L 972,607 Z M 836,608 L 837,607 L 838,607 L 839,606 L 840,606 L 841,607 L 842,607 L 843,608 L 843,612 L 842,613 L 841,612 L 841,611 L 840,610 L 840,609 L 837,609 Z M 1659,599 L 1661,599 L 1664,602 L 1664,605 L 1663,606 L 1662,606 L 1661,607 L 1658,607 L 1656,605 L 1656,602 Z M 1524,599 L 1526,599 L 1527,600 L 1528,600 L 1529,601 L 1529,604 L 1528,605 L 1527,604 L 1526,605 L 1527,606 L 1526,607 L 1523,607 L 1521,605 L 1521,602 Z M 1352,600 L 1353,600 L 1354,599 L 1355,599 L 1356,600 L 1357,600 L 1359,602 L 1359,604 L 1358,605 L 1358,606 L 1357,607 L 1353,607 L 1351,605 L 1351,601 Z M 1257,599 L 1259,599 L 1262,602 L 1262,604 L 1259,607 L 1256,607 L 1255,606 L 1254,606 L 1253,605 L 1253,602 L 1255,600 L 1256,600 Z M 1221,599 L 1223,599 L 1226,602 L 1226,604 L 1223,607 L 1221,607 L 1220,606 L 1221,605 L 1220,604 L 1220,603 L 1221,602 L 1220,602 L 1220,604 L 1219,605 L 1218,604 L 1218,601 L 1219,600 L 1220,600 Z M 1125,599 L 1126,599 L 1127,600 L 1128,600 L 1129,601 L 1129,605 L 1127,607 L 1123,607 L 1121,605 L 1121,602 L 1123,600 L 1124,600 Z M 954,599 L 956,599 L 957,600 L 958,600 L 959,601 L 959,605 L 958,606 L 957,606 L 956,607 L 954,607 L 951,604 L 951,602 Z M 856,599 L 858,599 L 861,602 L 861,604 L 858,607 L 855,607 L 854,606 L 855,605 L 855,602 L 854,601 Z M 820,599 L 822,599 L 823,600 L 822,601 L 821,601 L 820,602 L 820,604 L 821,605 L 823,605 L 824,606 L 823,607 L 820,607 L 818,605 L 818,601 Z M 686,599 L 689,599 L 692,602 L 692,604 L 689,607 L 686,607 L 684,605 L 684,604 L 683,603 L 684,602 L 684,601 Z M 1174,595 L 1175,596 L 1175,600 L 1176,601 L 1176,604 L 1177,605 L 1177,607 L 1176,608 L 1175,607 L 1175,606 L 1175,607 L 1174,608 L 1173,608 L 1172,607 L 1172,606 L 1172,607 L 1173,608 L 1173,609 L 1174,610 L 1175,609 L 1176,609 L 1176,608 L 1177,607 L 1178,608 L 1178,609 L 1179,610 L 1179,612 L 1180,613 L 1180,614 L 1181,615 L 1181,616 L 1182,617 L 1182,618 L 1183,619 L 1183,620 L 1185,622 L 1185,623 L 1188,626 L 1188,627 L 1196,635 L 1197,635 L 1200,638 L 1200,639 L 1199,640 L 1199,641 L 1198,642 L 1198,644 L 1197,645 L 1197,646 L 1196,647 L 1190,647 L 1188,645 L 1188,643 L 1189,642 L 1190,643 L 1190,644 L 1191,645 L 1190,644 L 1190,643 L 1189,642 L 1189,641 L 1189,642 L 1188,643 L 1187,642 L 1187,641 L 1186,640 L 1186,638 L 1185,637 L 1185,635 L 1177,635 L 1177,637 L 1176,638 L 1176,639 L 1175,640 L 1175,642 L 1174,643 L 1174,644 L 1173,645 L 1173,646 L 1172,647 L 1166,647 L 1164,645 L 1164,643 L 1163,642 L 1163,640 L 1162,639 L 1162,638 L 1161,637 L 1161,635 L 1153,635 L 1153,636 L 1152,637 L 1152,639 L 1151,640 L 1151,641 L 1150,642 L 1150,644 L 1149,645 L 1149,646 L 1148,647 L 1143,647 L 1142,646 L 1142,644 L 1141,643 L 1141,641 L 1142,640 L 1143,640 L 1144,639 L 1145,639 L 1148,636 L 1149,636 L 1150,637 L 1149,638 L 1150,638 L 1150,637 L 1149,636 L 1154,631 L 1155,631 L 1155,630 L 1161,624 L 1161,623 L 1163,621 L 1163,620 L 1165,618 L 1165,617 L 1166,616 L 1166,615 L 1167,614 L 1167,612 L 1168,611 L 1168,610 L 1169,609 L 1169,608 L 1170,607 L 1170,605 L 1171,604 L 1171,601 L 1172,600 L 1172,598 L 1173,597 L 1173,596 Z M 1306,594 L 1307,594 L 1308,595 L 1308,599 L 1309,600 L 1309,603 L 1310,604 L 1310,606 L 1311,607 L 1311,609 L 1312,610 L 1312,611 L 1313,612 L 1313,613 L 1314,614 L 1314,615 L 1315,616 L 1315,617 L 1316,618 L 1316,619 L 1317,620 L 1317,621 L 1316,622 L 1317,621 L 1319,623 L 1319,624 L 1324,629 L 1324,630 L 1327,633 L 1328,633 L 1330,635 L 1329,636 L 1330,635 L 1331,636 L 1332,636 L 1335,639 L 1336,639 L 1337,640 L 1337,643 L 1336,644 L 1336,645 L 1335,646 L 1334,645 L 1334,644 L 1333,644 L 1332,643 L 1331,643 L 1330,644 L 1330,645 L 1334,645 L 1335,646 L 1334,647 L 1329,647 L 1328,646 L 1328,645 L 1327,644 L 1327,643 L 1326,642 L 1326,640 L 1325,639 L 1325,637 L 1324,636 L 1324,635 L 1316,635 L 1316,637 L 1315,638 L 1315,639 L 1314,640 L 1314,642 L 1313,643 L 1313,644 L 1312,645 L 1312,646 L 1311,647 L 1306,647 L 1304,645 L 1304,644 L 1303,643 L 1303,641 L 1302,640 L 1302,638 L 1301,637 L 1301,636 L 1300,635 L 1293,635 L 1293,636 L 1292,637 L 1292,638 L 1291,639 L 1291,641 L 1290,642 L 1290,644 L 1289,645 L 1289,646 L 1288,647 L 1282,647 L 1281,646 L 1281,644 L 1280,643 L 1280,641 L 1279,640 L 1279,638 L 1283,634 L 1284,634 L 1291,627 L 1291,626 L 1294,623 L 1294,622 L 1296,620 L 1296,619 L 1297,618 L 1297,617 L 1299,615 L 1299,614 L 1300,613 L 1300,612 L 1301,611 L 1301,609 L 1302,608 L 1302,607 L 1303,606 L 1303,604 L 1304,603 L 1304,600 L 1305,599 L 1305,595 Z M 773,591 L 774,592 L 774,597 L 775,598 L 775,601 L 776,602 L 776,605 L 777,606 L 777,608 L 778,609 L 778,610 L 779,611 L 779,612 L 780,613 L 780,615 L 781,616 L 781,617 L 783,619 L 783,620 L 785,622 L 785,623 L 787,625 L 787,626 L 790,629 L 789,630 L 790,631 L 791,630 L 796,635 L 797,635 L 800,638 L 801,638 L 802,639 L 802,642 L 801,643 L 801,646 L 800,647 L 794,647 L 793,646 L 793,645 L 792,644 L 792,643 L 790,641 L 790,639 L 789,638 L 789,637 L 788,636 L 788,635 L 781,635 L 781,636 L 780,637 L 780,638 L 779,639 L 779,642 L 778,643 L 778,644 L 777,645 L 777,646 L 776,647 L 771,647 L 769,645 L 769,644 L 768,643 L 768,641 L 767,640 L 767,639 L 766,638 L 766,637 L 765,636 L 765,635 L 758,635 L 758,637 L 757,638 L 757,640 L 756,641 L 756,643 L 755,644 L 755,646 L 754,647 L 748,647 L 747,646 L 747,644 L 746,643 L 746,642 L 745,641 L 745,640 L 744,639 L 744,638 L 745,637 L 746,637 L 751,632 L 752,632 L 754,630 L 754,629 L 759,624 L 759,623 L 761,621 L 761,620 L 763,618 L 763,617 L 764,616 L 764,615 L 765,614 L 765,613 L 766,612 L 766,611 L 767,610 L 767,609 L 768,608 L 768,606 L 769,605 L 769,603 L 770,602 L 770,599 L 771,598 L 771,594 L 772,593 L 772,592 Z M 1667,581 L 1671,581 L 1673,583 L 1673,587 L 1671,589 L 1668,589 L 1667,588 L 1666,588 L 1665,587 L 1665,583 Z M 1613,582 L 1614,581 L 1618,581 L 1620,583 L 1620,586 L 1618,588 L 1617,587 L 1617,583 L 1614,583 Z M 1532,581 L 1536,581 L 1538,583 L 1538,584 L 1539,585 L 1538,586 L 1538,587 L 1537,588 L 1536,587 L 1536,584 L 1535,585 L 1536,586 L 1535,587 L 1536,587 L 1537,588 L 1536,589 L 1533,589 L 1532,588 L 1533,587 L 1532,586 L 1531,587 L 1530,586 L 1530,583 Z M 1397,582 L 1398,581 L 1402,581 L 1404,583 L 1404,586 L 1402,588 L 1401,587 L 1401,586 L 1400,585 L 1401,584 L 1401,583 L 1398,583 Z M 1265,581 L 1269,581 L 1271,583 L 1271,586 L 1270,587 L 1269,586 L 1270,587 L 1268,589 L 1265,589 L 1262,586 L 1262,584 Z M 1210,582 L 1211,581 L 1215,581 L 1217,583 L 1217,587 L 1215,589 L 1211,589 L 1210,588 L 1211,587 L 1214,587 L 1214,586 L 1213,585 L 1214,584 L 1214,583 L 1211,583 Z M 1132,581 L 1136,581 L 1138,583 L 1138,587 L 1137,588 L 1136,587 L 1137,588 L 1136,589 L 1132,589 L 1130,587 L 1130,583 Z M 1076,583 L 1078,581 L 1083,581 L 1085,583 L 1085,586 L 1084,587 L 1082,585 L 1082,583 L 1079,583 L 1079,584 L 1078,585 L 1078,586 L 1077,587 L 1076,586 Z M 945,581 L 949,581 L 951,583 L 951,586 L 950,587 L 949,586 L 948,587 L 949,588 L 948,589 L 945,589 L 943,587 L 943,583 Z M 864,581 L 868,581 L 869,582 L 869,583 L 870,584 L 870,586 L 868,588 L 867,587 L 868,588 L 867,589 L 865,589 L 864,588 L 863,588 L 862,587 L 862,583 Z M 808,584 L 809,583 L 809,582 L 810,581 L 815,581 L 817,583 L 817,586 L 816,587 L 815,586 L 815,584 L 814,583 L 811,583 L 811,587 L 810,588 L 809,587 L 809,586 L 808,585 Z M 730,582 L 731,581 L 735,581 L 737,583 L 737,587 L 735,589 L 731,589 L 730,588 L 731,587 L 734,587 L 733,586 L 734,585 L 734,583 L 731,583 Z M 1346,580 L 1347,580 L 1348,581 L 1349,581 L 1350,582 L 1350,587 L 1348,589 L 1345,589 L 1344,588 L 1345,587 L 1344,588 L 1342,586 L 1342,583 L 1344,581 L 1345,581 Z M 999,580 L 1001,580 L 1004,583 L 1004,586 L 1003,587 L 1002,586 L 1002,584 L 1001,583 L 998,583 L 997,582 Z M 679,580 L 680,580 L 683,583 L 683,587 L 682,588 L 681,588 L 680,589 L 677,589 L 675,587 L 675,586 L 674,585 L 675,584 L 675,583 L 677,581 L 678,581 Z M 546,583 L 547,582 L 547,581 L 548,580 L 548,579 L 549,578 L 553,578 L 554,579 L 556,579 L 558,581 L 553,586 L 552,585 L 551,586 L 550,585 L 549,585 L 548,584 L 549,583 L 548,584 L 547,584 Z M 1688,632 L 1694,626 L 1694,625 L 1699,619 L 1703,611 L 1703,609 L 1705,606 L 1705,604 L 1706,603 L 1706,600 L 1707,599 L 1707,595 L 1708,594 L 1708,575 L 1707,574 L 1708,573 L 1766,573 L 1774,581 L 1775,581 L 1778,584 L 1779,584 L 1784,588 L 1787,589 L 1789,591 L 1795,594 L 1797,594 L 1798,595 L 1800,595 L 1804,597 L 1811,598 L 1812,599 L 1816,599 L 1819,601 L 1818,602 L 1818,606 L 1816,608 L 1814,608 L 1813,609 L 1810,609 L 1809,608 L 1810,607 L 1812,607 L 1810,607 L 1809,608 L 1803,600 L 1800,600 L 1799,601 L 1797,601 L 1795,604 L 1795,611 L 1794,612 L 1794,614 L 1793,615 L 1791,615 L 1790,614 L 1792,613 L 1787,614 L 1789,614 L 1790,615 L 1789,616 L 1786,616 L 1782,610 L 1783,609 L 1782,610 L 1780,608 L 1780,607 L 1778,607 L 1777,608 L 1774,608 L 1772,611 L 1772,616 L 1771,617 L 1771,620 L 1769,622 L 1767,622 L 1766,623 L 1763,623 L 1762,622 L 1763,621 L 1765,621 L 1763,620 L 1762,621 L 1758,616 L 1757,613 L 1755,614 L 1753,614 L 1752,615 L 1750,615 L 1750,618 L 1749,619 L 1749,622 L 1748,623 L 1748,627 L 1747,628 L 1745,628 L 1744,627 L 1746,626 L 1744,626 L 1743,625 L 1742,626 L 1742,627 L 1744,627 L 1745,628 L 1744,629 L 1741,629 L 1739,627 L 1738,624 L 1734,619 L 1733,620 L 1729,620 L 1727,622 L 1727,626 L 1726,627 L 1726,631 L 1725,633 L 1721,635 L 1718,635 L 1716,633 L 1715,630 L 1711,625 L 1709,626 L 1706,626 L 1704,627 L 1704,629 L 1703,630 L 1703,633 L 1702,634 L 1702,638 L 1700,640 L 1696,640 L 1695,641 L 1693,641 L 1691,638 L 1691,636 L 1690,634 Z M 1574,573 L 1576,573 L 1577,574 L 1577,579 L 1576,580 L 1576,591 L 1577,592 L 1577,598 L 1578,599 L 1578,602 L 1579,603 L 1579,605 L 1580,606 L 1580,608 L 1581,609 L 1581,610 L 1582,611 L 1582,612 L 1583,613 L 1583,615 L 1584,616 L 1584,617 L 1586,619 L 1586,620 L 1588,622 L 1588,623 L 1591,626 L 1591,627 L 1601,637 L 1601,639 L 1600,640 L 1600,644 L 1599,645 L 1600,646 L 1599,647 L 1590,647 L 1588,645 L 1586,645 L 1583,642 L 1583,641 L 1584,640 L 1585,641 L 1584,640 L 1584,639 L 1584,640 L 1583,641 L 1582,640 L 1582,638 L 1581,637 L 1581,635 L 1574,635 L 1573,636 L 1573,637 L 1572,638 L 1572,639 L 1571,640 L 1571,646 L 1570,647 L 1566,647 L 1564,645 L 1563,645 L 1562,644 L 1560,644 L 1559,643 L 1560,644 L 1560,645 L 1559,646 L 1558,646 L 1556,644 L 1556,636 L 1553,633 L 1558,628 L 1558,627 L 1561,624 L 1561,623 L 1562,622 L 1563,623 L 1562,622 L 1563,621 L 1563,620 L 1564,619 L 1564,618 L 1566,616 L 1567,617 L 1566,616 L 1566,615 L 1567,614 L 1567,612 L 1568,611 L 1568,610 L 1569,609 L 1569,607 L 1570,606 L 1570,604 L 1571,603 L 1571,601 L 1572,600 L 1572,596 L 1573,595 L 1573,585 L 1574,584 L 1574,582 L 1573,581 L 1573,574 Z M 1438,573 L 1442,573 L 1443,574 L 1443,575 L 1442,576 L 1442,584 L 1441,585 L 1441,586 L 1442,587 L 1442,596 L 1443,597 L 1443,601 L 1444,602 L 1444,604 L 1445,605 L 1445,607 L 1446,608 L 1446,610 L 1447,611 L 1447,612 L 1448,613 L 1448,614 L 1449,615 L 1449,617 L 1451,619 L 1451,620 L 1453,622 L 1453,623 L 1457,627 L 1457,628 L 1463,634 L 1463,637 L 1462,638 L 1462,639 L 1461,640 L 1461,642 L 1460,643 L 1460,644 L 1459,645 L 1459,646 L 1458,647 L 1451,647 L 1450,646 L 1450,645 L 1449,644 L 1449,642 L 1448,641 L 1448,639 L 1447,638 L 1447,637 L 1446,636 L 1446,635 L 1439,635 L 1438,636 L 1438,637 L 1437,638 L 1437,639 L 1436,640 L 1436,642 L 1435,643 L 1435,644 L 1434,645 L 1434,646 L 1433,647 L 1426,647 L 1425,646 L 1426,645 L 1432,645 L 1431,645 L 1430,644 L 1429,644 L 1428,645 L 1425,645 L 1424,644 L 1424,643 L 1423,642 L 1423,640 L 1422,639 L 1422,637 L 1421,636 L 1421,635 L 1420,635 L 1418,633 L 1423,628 L 1423,627 L 1426,624 L 1427,625 L 1426,624 L 1427,623 L 1427,622 L 1429,620 L 1429,619 L 1430,618 L 1430,617 L 1431,616 L 1431,615 L 1432,614 L 1432,613 L 1433,612 L 1433,611 L 1434,610 L 1434,609 L 1435,608 L 1435,605 L 1436,604 L 1436,602 L 1437,601 L 1437,598 L 1438,597 L 1438,591 L 1439,590 L 1439,581 L 1438,580 L 1438,575 L 1437,574 Z M 1039,573 L 1042,573 L 1043,574 L 1043,575 L 1042,576 L 1042,595 L 1043,596 L 1043,600 L 1044,601 L 1044,603 L 1045,604 L 1045,607 L 1046,608 L 1046,609 L 1047,610 L 1047,611 L 1048,612 L 1048,613 L 1049,614 L 1049,615 L 1050,616 L 1050,617 L 1051,618 L 1051,619 L 1052,620 L 1052,621 L 1054,623 L 1054,624 L 1059,629 L 1059,630 L 1065,636 L 1065,638 L 1064,639 L 1064,640 L 1063,641 L 1063,642 L 1062,643 L 1062,644 L 1061,645 L 1061,646 L 1060,647 L 1054,647 L 1053,646 L 1053,645 L 1052,644 L 1052,642 L 1051,641 L 1051,640 L 1050,639 L 1050,636 L 1049,635 L 1041,635 L 1041,637 L 1040,638 L 1040,640 L 1039,641 L 1039,642 L 1038,643 L 1038,644 L 1037,645 L 1037,646 L 1036,647 L 1030,647 L 1028,645 L 1028,644 L 1027,643 L 1027,640 L 1028,639 L 1027,640 L 1026,639 L 1026,638 L 1025,637 L 1025,635 L 1018,635 L 1017,634 L 1026,625 L 1026,624 L 1028,622 L 1028,621 L 1030,619 L 1030,618 L 1031,617 L 1032,618 L 1031,617 L 1031,616 L 1032,615 L 1032,614 L 1033,613 L 1033,612 L 1034,611 L 1034,610 L 1035,609 L 1036,610 L 1035,609 L 1035,607 L 1036,606 L 1036,604 L 1037,603 L 1037,600 L 1038,599 L 1038,595 L 1039,594 L 1039,577 L 1038,576 L 1038,574 Z M 905,573 L 908,573 L 909,574 L 909,575 L 908,576 L 908,594 L 909,595 L 909,599 L 910,600 L 910,603 L 911,604 L 911,606 L 912,607 L 912,608 L 913,609 L 913,611 L 914,612 L 914,613 L 915,614 L 915,615 L 916,616 L 916,617 L 917,618 L 917,619 L 918,620 L 918,621 L 920,623 L 920,624 L 931,635 L 930,636 L 931,637 L 931,639 L 930,640 L 930,641 L 929,642 L 929,643 L 928,644 L 928,646 L 927,647 L 920,647 L 919,646 L 919,644 L 918,643 L 918,642 L 917,641 L 917,639 L 916,638 L 916,636 L 915,635 L 908,635 L 907,636 L 907,638 L 906,639 L 906,640 L 905,641 L 905,643 L 904,644 L 904,645 L 902,647 L 895,647 L 894,646 L 894,644 L 893,643 L 893,642 L 892,641 L 892,639 L 891,638 L 891,636 L 890,635 L 884,635 L 883,634 L 891,626 L 891,625 L 893,623 L 893,622 L 895,620 L 895,619 L 897,617 L 897,616 L 898,615 L 898,614 L 899,613 L 899,611 L 900,610 L 900,609 L 901,608 L 901,606 L 902,605 L 902,604 L 903,603 L 907,607 L 907,606 L 908,605 L 908,601 L 907,602 L 905,602 L 905,603 L 904,604 L 903,603 L 903,600 L 904,599 L 904,594 L 905,593 L 905,578 L 904,577 L 904,574 Z M 569,576 L 571,574 L 573,574 L 574,573 L 576,573 L 577,572 L 580,572 L 581,573 L 583,573 L 586,576 L 586,577 L 589,577 L 590,576 L 591,576 L 593,574 L 593,572 L 592,571 L 592,570 L 593,569 L 640,569 L 641,570 L 641,575 L 640,576 L 640,594 L 641,595 L 641,599 L 642,600 L 642,603 L 643,604 L 643,607 L 644,608 L 644,609 L 646,612 L 646,614 L 647,615 L 648,618 L 650,620 L 649,621 L 647,621 L 642,626 L 641,625 L 638,628 L 636,628 L 635,627 L 634,627 L 632,625 L 632,613 L 631,612 L 630,612 L 627,610 L 625,610 L 625,611 L 623,613 L 622,613 L 621,614 L 621,615 L 617,619 L 614,617 L 612,617 L 610,615 L 610,602 L 607,600 L 605,600 L 604,599 L 603,599 L 601,601 L 600,600 L 598,602 L 599,603 L 595,608 L 594,607 L 592,607 L 590,605 L 591,604 L 592,604 L 591,604 L 590,603 L 591,604 L 590,605 L 589,605 L 588,604 L 588,598 L 589,597 L 589,594 L 590,593 L 590,592 L 589,592 L 588,591 L 586,591 L 585,590 L 583,590 L 579,594 L 578,594 L 576,596 L 576,597 L 575,598 L 574,598 L 573,597 L 570,596 L 567,593 L 567,591 L 568,590 L 568,587 L 570,584 L 568,581 L 568,579 L 569,578 Z M 1523,563 L 1527,563 L 1529,565 L 1529,568 L 1527,570 L 1524,570 L 1521,567 L 1521,565 Z M 1253,565 L 1255,563 L 1259,563 L 1262,566 L 1262,567 L 1261,568 L 1261,569 L 1260,570 L 1258,570 L 1257,571 L 1256,570 L 1255,570 L 1253,568 Z M 1123,563 L 1127,563 L 1129,565 L 1129,568 L 1127,570 L 1123,570 L 1121,568 L 1121,565 Z M 1659,562 L 1661,562 L 1664,565 L 1664,568 L 1662,570 L 1658,570 L 1656,568 L 1656,565 Z M 1620,565 L 1622,563 L 1623,563 L 1624,562 L 1626,562 L 1629,565 L 1629,567 L 1628,568 L 1627,568 L 1626,567 L 1626,565 L 1623,565 L 1622,566 L 1622,568 L 1621,569 L 1620,568 Z M 1488,562 L 1490,562 L 1493,565 L 1493,568 L 1492,569 L 1489,566 L 1489,565 L 1488,565 L 1488,568 L 1489,568 L 1490,569 L 1490,570 L 1489,571 L 1488,570 L 1487,570 L 1486,569 L 1486,568 L 1485,567 L 1485,565 Z M 1390,562 L 1392,562 L 1393,563 L 1394,563 L 1395,564 L 1395,568 L 1393,570 L 1389,570 L 1388,569 L 1389,568 L 1392,568 L 1393,567 L 1392,566 L 1393,565 L 1389,565 L 1388,564 Z M 1354,562 L 1356,562 L 1359,565 L 1359,568 L 1357,570 L 1356,570 L 1355,571 L 1354,570 L 1353,570 L 1352,569 L 1353,568 L 1352,569 L 1351,568 L 1351,564 L 1352,563 L 1353,563 Z M 1221,562 L 1223,562 L 1226,565 L 1226,567 L 1224,569 L 1223,568 L 1224,569 L 1223,570 L 1219,570 L 1218,569 L 1218,568 L 1219,567 L 1220,568 L 1221,568 L 1221,566 L 1219,564 Z M 955,562 L 956,562 L 957,563 L 958,563 L 960,565 L 960,567 L 957,570 L 953,570 L 952,569 L 952,564 L 953,563 L 954,563 Z M 854,563 L 856,563 L 857,562 L 858,562 L 859,563 L 860,563 L 861,564 L 861,568 L 859,570 L 855,570 L 853,568 L 853,564 Z M 818,564 L 819,563 L 820,563 L 821,562 L 822,562 L 823,563 L 824,563 L 825,564 L 825,565 L 826,566 L 825,567 L 825,568 L 824,569 L 823,568 L 823,565 L 820,565 L 820,569 L 819,570 L 818,569 L 818,568 L 817,567 L 817,566 L 818,565 Z M 719,565 L 721,563 L 722,563 L 723,562 L 725,562 L 728,565 L 728,568 L 726,570 L 722,570 L 721,569 L 722,568 L 725,568 L 725,565 L 722,565 L 723,566 L 722,567 L 722,568 L 721,569 L 719,567 Z M 687,562 L 689,562 L 692,565 L 692,567 L 689,570 L 685,570 L 684,569 L 684,568 L 683,567 L 683,566 Z M 1642,554 L 1644,554 L 1647,557 L 1647,560 L 1644,563 L 1642,563 L 1641,562 L 1640,562 L 1638,560 L 1638,557 L 1640,555 L 1641,555 Z M 1506,554 L 1509,554 L 1512,557 L 1512,559 L 1511,560 L 1511,561 L 1510,562 L 1509,562 L 1508,563 L 1506,563 L 1503,560 L 1503,557 Z M 1372,554 L 1374,554 L 1377,557 L 1377,560 L 1374,563 L 1371,563 L 1368,560 L 1368,557 L 1370,555 L 1371,555 Z M 1239,554 L 1241,554 L 1244,557 L 1244,560 L 1241,563 L 1239,563 L 1236,560 L 1236,559 L 1235,558 L 1236,557 L 1236,556 L 1237,555 L 1238,555 Z M 1106,554 L 1107,554 L 1108,555 L 1110,555 L 1111,556 L 1111,560 L 1108,563 L 1107,563 L 1106,562 L 1105,562 L 1103,560 L 1103,557 Z M 972,554 L 975,554 L 976,555 L 974,557 L 974,560 L 976,560 L 977,561 L 975,563 L 973,563 L 972,562 L 971,562 L 970,561 L 970,560 L 969,559 L 969,558 L 970,557 L 970,556 Z M 838,554 L 840,554 L 841,555 L 842,555 L 843,556 L 843,557 L 844,558 L 843,559 L 843,561 L 841,563 L 838,563 L 837,562 L 838,561 L 840,561 L 841,560 L 840,561 L 839,560 L 839,559 L 840,558 L 837,555 Z M 704,554 L 707,554 L 710,557 L 710,560 L 708,562 L 707,562 L 706,563 L 705,563 L 704,562 L 703,562 L 702,561 L 702,560 L 701,559 L 701,557 Z M 1877,567 L 1873,571 L 1872,571 L 1869,574 L 1868,574 L 1866,576 L 1865,576 L 1863,578 L 1862,578 L 1861,579 L 1860,579 L 1859,580 L 1857,580 L 1856,581 L 1855,581 L 1854,582 L 1852,582 L 1851,583 L 1849,583 L 1848,584 L 1846,584 L 1845,585 L 1841,585 L 1840,586 L 1835,586 L 1834,585 L 1834,563 L 1835,562 L 1835,560 L 1837,558 L 1839,558 L 1840,557 L 1844,561 L 1845,561 L 1846,560 L 1848,560 L 1849,559 L 1850,559 L 1851,558 L 1852,558 L 1853,557 L 1853,555 L 1852,554 L 1852,553 L 1854,551 L 1855,551 L 1856,550 L 1857,550 L 1858,551 L 1859,551 L 1862,554 L 1863,554 L 1869,560 L 1870,560 Z M 1778,565 L 1781,562 L 1782,562 L 1786,558 L 1787,558 L 1791,554 L 1792,554 L 1796,550 L 1797,550 L 1798,549 L 1802,553 L 1801,554 L 1801,556 L 1804,559 L 1805,559 L 1806,560 L 1809,560 L 1812,557 L 1813,557 L 1814,558 L 1815,558 L 1816,559 L 1816,560 L 1819,563 L 1819,585 L 1818,586 L 1817,586 L 1816,585 L 1812,585 L 1811,584 L 1812,583 L 1814,583 L 1812,583 L 1811,584 L 1808,584 L 1807,583 L 1808,582 L 1807,583 L 1805,583 L 1804,582 L 1802,582 L 1801,581 L 1800,581 L 1799,580 L 1797,580 L 1796,579 L 1795,579 L 1794,578 L 1793,578 L 1791,576 L 1790,576 L 1788,574 L 1787,574 L 1785,572 L 1784,572 L 1779,567 L 1780,566 L 1779,567 L 1778,566 Z M 1275,547 L 1282,554 L 1282,555 L 1284,557 L 1284,558 L 1286,560 L 1286,561 L 1287,562 L 1287,563 L 1288,564 L 1288,565 L 1289,566 L 1289,568 L 1290,569 L 1290,571 L 1291,572 L 1291,575 L 1292,576 L 1292,593 L 1291,594 L 1291,597 L 1290,598 L 1290,600 L 1289,601 L 1289,603 L 1288,604 L 1288,605 L 1287,606 L 1287,607 L 1286,608 L 1286,609 L 1284,611 L 1284,612 L 1282,614 L 1282,615 L 1280,617 L 1279,616 L 1278,617 L 1275,617 L 1274,616 L 1278,612 L 1278,611 L 1280,609 L 1280,608 L 1281,607 L 1281,606 L 1283,604 L 1283,602 L 1284,601 L 1284,600 L 1285,599 L 1285,596 L 1286,595 L 1286,593 L 1287,592 L 1287,578 L 1286,577 L 1286,573 L 1285,572 L 1285,570 L 1284,569 L 1284,568 L 1283,567 L 1283,566 L 1282,565 L 1282,564 L 1281,563 L 1281,562 L 1280,561 L 1280,560 L 1278,558 L 1278,557 L 1270,549 L 1271,548 L 1274,548 Z M 1406,545 L 1414,553 L 1414,554 L 1417,557 L 1417,558 L 1419,560 L 1419,561 L 1420,562 L 1420,563 L 1421,564 L 1421,565 L 1422,566 L 1422,568 L 1423,569 L 1423,572 L 1424,573 L 1424,577 L 1425,578 L 1425,589 L 1424,590 L 1424,596 L 1423,597 L 1423,599 L 1422,600 L 1422,602 L 1421,603 L 1421,604 L 1420,605 L 1420,607 L 1419,608 L 1419,609 L 1417,611 L 1417,612 L 1415,614 L 1415,615 L 1410,620 L 1408,618 L 1407,619 L 1406,618 L 1406,617 L 1410,613 L 1411,614 L 1410,613 L 1411,612 L 1411,611 L 1413,609 L 1413,608 L 1415,606 L 1415,605 L 1416,604 L 1416,602 L 1417,601 L 1417,599 L 1418,598 L 1418,596 L 1419,595 L 1419,591 L 1420,590 L 1420,580 L 1419,579 L 1419,574 L 1418,573 L 1418,571 L 1417,570 L 1417,568 L 1416,567 L 1416,566 L 1415,565 L 1415,564 L 1414,563 L 1414,562 L 1413,561 L 1413,560 L 1411,558 L 1411,557 L 1410,556 L 1411,555 L 1410,556 L 1401,547 L 1402,546 L 1405,546 Z M 807,545 L 809,547 L 810,547 L 811,548 L 810,549 L 809,549 L 807,551 L 806,550 L 807,551 L 802,556 L 801,555 L 802,556 L 802,557 L 800,559 L 800,560 L 798,562 L 798,563 L 797,564 L 797,565 L 796,566 L 796,568 L 795,569 L 795,570 L 794,571 L 794,574 L 793,575 L 793,581 L 792,582 L 792,588 L 793,589 L 793,594 L 794,595 L 794,598 L 795,599 L 795,601 L 796,602 L 796,603 L 797,604 L 797,605 L 798,606 L 798,607 L 799,608 L 799,609 L 801,611 L 801,612 L 802,613 L 801,614 L 802,613 L 810,621 L 808,623 L 807,623 L 806,624 L 803,621 L 805,619 L 804,620 L 803,619 L 802,620 L 798,616 L 798,615 L 799,614 L 798,615 L 796,613 L 796,612 L 794,610 L 794,609 L 793,608 L 793,607 L 792,606 L 792,605 L 791,604 L 791,602 L 790,601 L 790,600 L 789,599 L 789,596 L 788,595 L 788,590 L 787,589 L 787,582 L 788,581 L 788,574 L 789,573 L 789,570 L 790,569 L 790,567 L 791,566 L 791,565 L 792,564 L 792,563 L 793,562 L 793,561 L 795,559 L 795,558 L 796,557 L 796,556 L 800,552 L 800,551 L 806,545 Z M 1674,544 L 1675,545 L 1676,545 L 1683,552 L 1683,553 L 1686,556 L 1686,557 L 1687,558 L 1687,559 L 1689,561 L 1689,563 L 1690,564 L 1690,565 L 1691,566 L 1691,567 L 1692,568 L 1692,570 L 1693,571 L 1693,574 L 1694,575 L 1694,593 L 1693,594 L 1693,597 L 1692,598 L 1692,600 L 1691,601 L 1691,603 L 1690,604 L 1690,605 L 1689,606 L 1689,607 L 1688,608 L 1688,609 L 1687,610 L 1686,609 L 1685,610 L 1686,609 L 1687,610 L 1687,611 L 1685,613 L 1685,614 L 1683,616 L 1682,615 L 1681,616 L 1682,617 L 1681,618 L 1681,619 L 1677,623 L 1676,623 L 1673,626 L 1672,626 L 1670,628 L 1669,628 L 1667,626 L 1666,627 L 1665,627 L 1664,626 L 1666,624 L 1667,624 L 1669,622 L 1670,622 L 1672,620 L 1673,620 L 1674,619 L 1676,621 L 1677,620 L 1675,620 L 1674,619 L 1678,615 L 1679,616 L 1678,615 L 1678,614 L 1682,610 L 1682,609 L 1683,608 L 1683,607 L 1685,605 L 1685,604 L 1686,603 L 1686,601 L 1687,600 L 1687,598 L 1688,597 L 1688,595 L 1689,594 L 1689,588 L 1690,587 L 1690,583 L 1689,582 L 1689,575 L 1688,574 L 1688,571 L 1687,570 L 1687,568 L 1686,567 L 1686,566 L 1685,565 L 1685,564 L 1684,563 L 1684,562 L 1682,560 L 1682,559 L 1680,557 L 1680,556 L 1673,549 L 1674,548 L 1673,549 L 1672,548 L 1671,548 L 1669,546 L 1670,545 L 1673,545 Z M 1341,544 L 1342,544 L 1343,545 L 1346,545 L 1347,546 L 1346,547 L 1345,547 L 1342,550 L 1341,550 L 1336,555 L 1336,556 L 1334,558 L 1334,559 L 1332,561 L 1332,562 L 1331,563 L 1331,564 L 1330,565 L 1330,566 L 1329,567 L 1329,568 L 1328,569 L 1328,572 L 1327,573 L 1327,576 L 1326,577 L 1326,593 L 1327,594 L 1327,597 L 1328,598 L 1328,600 L 1329,601 L 1329,602 L 1330,603 L 1330,604 L 1331,605 L 1331,606 L 1332,607 L 1332,608 L 1333,609 L 1333,610 L 1336,613 L 1336,614 L 1338,616 L 1337,617 L 1338,616 L 1342,620 L 1341,621 L 1339,621 L 1341,621 L 1342,620 L 1343,620 L 1346,623 L 1345,624 L 1343,624 L 1345,624 L 1346,623 L 1347,623 L 1348,624 L 1349,624 L 1351,626 L 1350,627 L 1347,627 L 1346,628 L 1345,628 L 1344,627 L 1343,627 L 1339,623 L 1338,623 L 1334,619 L 1334,618 L 1335,617 L 1334,618 L 1330,614 L 1330,613 L 1328,611 L 1328,610 L 1327,609 L 1327,608 L 1326,607 L 1326,606 L 1325,605 L 1325,604 L 1324,603 L 1324,601 L 1323,600 L 1323,598 L 1322,597 L 1322,593 L 1321,592 L 1321,577 L 1322,576 L 1322,572 L 1323,571 L 1323,569 L 1324,568 L 1324,566 L 1325,565 L 1325,564 L 1326,563 L 1326,562 L 1327,561 L 1327,560 L 1328,559 L 1328,558 L 1330,556 L 1330,555 L 1338,547 L 1339,548 L 1338,547 Z M 1139,544 L 1140,545 L 1141,545 L 1148,552 L 1148,553 L 1151,556 L 1151,557 L 1153,559 L 1153,560 L 1154,561 L 1154,562 L 1155,563 L 1155,564 L 1156,565 L 1156,566 L 1157,567 L 1157,570 L 1158,571 L 1158,573 L 1159,574 L 1159,581 L 1160,582 L 1160,587 L 1159,588 L 1159,595 L 1158,596 L 1158,599 L 1157,600 L 1157,602 L 1156,603 L 1156,604 L 1155,605 L 1155,606 L 1154,607 L 1154,608 L 1153,609 L 1153,610 L 1151,612 L 1151,613 L 1148,616 L 1148,617 L 1141,624 L 1140,624 L 1139,625 L 1138,624 L 1135,624 L 1134,623 L 1137,620 L 1138,620 L 1140,622 L 1141,621 L 1139,621 L 1138,620 L 1144,614 L 1144,613 L 1147,610 L 1147,609 L 1149,607 L 1149,606 L 1150,605 L 1150,604 L 1151,603 L 1151,601 L 1152,600 L 1152,598 L 1153,597 L 1153,595 L 1154,594 L 1154,590 L 1155,589 L 1155,582 L 1154,581 L 1154,575 L 1153,574 L 1153,571 L 1152,570 L 1152,568 L 1151,567 L 1151,566 L 1150,565 L 1150,564 L 1149,563 L 1149,562 L 1148,561 L 1148,560 L 1145,557 L 1145,556 L 1138,549 L 1139,548 L 1138,549 L 1137,548 L 1136,548 L 1134,546 L 1135,545 L 1138,545 Z M 1002,542 L 1003,542 L 1006,545 L 1005,546 L 1004,546 L 1005,546 L 1006,545 L 1007,545 L 1013,551 L 1013,552 L 1017,556 L 1017,557 L 1019,559 L 1019,560 L 1020,561 L 1020,563 L 1021,564 L 1021,565 L 1022,566 L 1022,567 L 1023,568 L 1023,571 L 1024,572 L 1024,575 L 1025,576 L 1025,593 L 1024,594 L 1024,597 L 1023,598 L 1023,600 L 1022,601 L 1022,603 L 1021,604 L 1021,605 L 1020,606 L 1020,608 L 1018,610 L 1018,611 L 1015,614 L 1015,615 L 1013,617 L 1013,618 L 1007,624 L 1006,624 L 1005,623 L 1006,622 L 1005,623 L 1004,622 L 1003,622 L 1002,621 L 1004,619 L 1005,619 L 1007,617 L 1009,619 L 1007,617 L 1010,614 L 1010,613 L 1013,610 L 1013,609 L 1014,608 L 1014,607 L 1015,606 L 1015,605 L 1016,604 L 1016,603 L 1017,602 L 1017,601 L 1018,600 L 1018,598 L 1019,597 L 1019,594 L 1020,593 L 1020,576 L 1019,575 L 1019,572 L 1018,571 L 1018,569 L 1017,568 L 1017,567 L 1016,566 L 1016,564 L 1014,562 L 1014,561 L 1013,560 L 1013,559 L 1010,556 L 1010,555 L 1007,552 L 1009,550 L 1007,552 L 1004,549 L 1003,549 L 1001,547 L 1000,547 L 998,545 L 1000,543 L 1001,543 Z M 1636,533 L 1649,533 L 1650,534 L 1654,534 L 1655,535 L 1658,535 L 1661,537 L 1663,537 L 1669,540 L 1674,544 L 1673,545 L 1670,545 L 1668,546 L 1659,541 L 1657,541 L 1653,539 L 1645,539 L 1644,538 L 1641,538 L 1640,539 L 1633,539 L 1632,540 L 1629,540 L 1628,541 L 1626,541 L 1616,546 L 1605,556 L 1605,557 L 1603,559 L 1603,560 L 1601,562 L 1599,566 L 1599,568 L 1597,571 L 1596,578 L 1595,579 L 1595,590 L 1596,591 L 1596,595 L 1597,596 L 1598,601 L 1602,609 L 1605,612 L 1605,613 L 1613,621 L 1614,621 L 1617,624 L 1615,626 L 1618,626 L 1620,625 L 1628,629 L 1631,629 L 1632,630 L 1638,630 L 1639,631 L 1647,631 L 1648,630 L 1652,630 L 1653,629 L 1656,629 L 1657,628 L 1659,628 L 1663,626 L 1665,627 L 1668,627 L 1669,628 L 1666,630 L 1664,629 L 1665,630 L 1662,632 L 1660,632 L 1659,633 L 1657,633 L 1656,634 L 1653,634 L 1652,635 L 1645,635 L 1644,636 L 1640,636 L 1639,635 L 1632,635 L 1631,634 L 1628,634 L 1627,633 L 1622,632 L 1611,626 L 1609,624 L 1610,623 L 1613,623 L 1610,623 L 1609,624 L 1606,621 L 1608,619 L 1607,620 L 1606,619 L 1605,620 L 1601,616 L 1602,615 L 1601,616 L 1600,615 L 1597,609 L 1595,607 L 1595,605 L 1592,599 L 1592,596 L 1591,595 L 1591,591 L 1590,590 L 1590,579 L 1591,578 L 1591,573 L 1592,572 L 1593,567 L 1597,559 L 1599,557 L 1601,553 L 1610,544 L 1611,544 L 1616,540 L 1622,537 L 1624,537 L 1625,536 L 1627,536 L 1631,534 L 1635,534 Z M 1474,545 L 1475,545 L 1481,540 L 1487,537 L 1489,537 L 1492,535 L 1495,535 L 1496,534 L 1501,534 L 1502,533 L 1514,533 L 1515,534 L 1519,534 L 1520,535 L 1526,536 L 1534,540 L 1541,546 L 1542,546 L 1548,552 L 1548,553 L 1551,556 L 1552,559 L 1554,561 L 1556,565 L 1557,570 L 1558,571 L 1558,574 L 1559,575 L 1559,593 L 1558,594 L 1558,598 L 1557,599 L 1557,601 L 1555,604 L 1555,606 L 1553,610 L 1548,616 L 1548,617 L 1541,624 L 1539,625 L 1538,624 L 1535,624 L 1534,623 L 1537,620 L 1539,621 L 1538,622 L 1539,621 L 1540,622 L 1541,621 L 1539,621 L 1538,620 L 1542,616 L 1543,617 L 1542,616 L 1547,610 L 1551,603 L 1551,601 L 1554,594 L 1554,588 L 1555,587 L 1555,581 L 1554,580 L 1554,575 L 1553,574 L 1553,571 L 1546,557 L 1538,549 L 1539,548 L 1541,548 L 1539,548 L 1538,549 L 1534,546 L 1536,545 L 1533,546 L 1524,541 L 1522,541 L 1518,539 L 1498,539 L 1497,540 L 1491,541 L 1481,546 L 1479,548 L 1477,547 L 1478,548 L 1468,559 L 1464,566 L 1464,568 L 1462,572 L 1462,575 L 1461,576 L 1461,594 L 1463,598 L 1463,601 L 1467,609 L 1474,617 L 1473,618 L 1470,618 L 1469,619 L 1465,615 L 1459,605 L 1459,603 L 1456,596 L 1456,591 L 1455,590 L 1456,573 L 1462,559 L 1467,553 L 1467,552 Z M 1342,544 L 1345,541 L 1346,541 L 1347,542 L 1348,542 L 1347,542 L 1346,541 L 1348,539 L 1349,539 L 1350,538 L 1351,538 L 1352,537 L 1354,537 L 1355,536 L 1357,536 L 1358,535 L 1360,535 L 1361,534 L 1366,534 L 1367,533 L 1380,533 L 1381,534 L 1384,534 L 1385,535 L 1388,535 L 1389,536 L 1391,536 L 1392,537 L 1393,537 L 1394,538 L 1395,538 L 1396,539 L 1397,539 L 1398,540 L 1399,540 L 1400,541 L 1401,541 L 1403,543 L 1404,543 L 1406,545 L 1405,546 L 1402,546 L 1401,547 L 1400,547 L 1398,545 L 1399,544 L 1400,544 L 1399,544 L 1398,545 L 1397,545 L 1396,544 L 1395,544 L 1394,543 L 1393,543 L 1392,542 L 1390,542 L 1389,541 L 1388,541 L 1387,540 L 1384,540 L 1383,539 L 1375,539 L 1374,538 L 1373,538 L 1372,539 L 1364,539 L 1363,540 L 1360,540 L 1359,541 L 1357,541 L 1356,542 L 1354,542 L 1353,543 L 1352,543 L 1351,544 L 1350,544 L 1349,545 L 1348,545 L 1347,546 L 1346,545 L 1343,545 Z M 1228,534 L 1233,534 L 1234,533 L 1246,533 L 1247,534 L 1255,535 L 1268,541 L 1275,547 L 1274,548 L 1271,548 L 1270,549 L 1266,546 L 1268,545 L 1265,546 L 1261,543 L 1259,543 L 1256,541 L 1254,541 L 1250,539 L 1242,539 L 1241,538 L 1238,538 L 1237,539 L 1230,539 L 1229,540 L 1223,541 L 1215,545 L 1206,552 L 1204,551 L 1206,552 L 1200,559 L 1199,562 L 1197,564 L 1197,566 L 1194,572 L 1194,575 L 1193,576 L 1193,584 L 1192,585 L 1193,587 L 1193,593 L 1194,594 L 1194,597 L 1195,598 L 1195,600 L 1198,607 L 1200,609 L 1202,613 L 1210,621 L 1208,622 L 1208,623 L 1210,621 L 1211,621 L 1216,625 L 1222,628 L 1228,629 L 1229,630 L 1235,630 L 1236,631 L 1244,631 L 1245,630 L 1253,629 L 1260,626 L 1264,627 L 1262,627 L 1261,626 L 1265,623 L 1266,623 L 1268,625 L 1268,624 L 1266,623 L 1270,620 L 1271,621 L 1274,621 L 1275,622 L 1272,625 L 1264,629 L 1262,631 L 1260,631 L 1257,633 L 1251,634 L 1250,635 L 1243,635 L 1242,636 L 1229,635 L 1228,634 L 1225,634 L 1219,631 L 1217,631 L 1215,629 L 1216,628 L 1215,629 L 1212,628 L 1211,627 L 1212,626 L 1214,626 L 1213,625 L 1211,627 L 1208,626 L 1202,620 L 1204,618 L 1203,619 L 1202,618 L 1201,619 L 1198,616 L 1199,614 L 1198,615 L 1194,610 L 1191,604 L 1190,598 L 1188,594 L 1188,576 L 1189,575 L 1190,568 L 1196,556 L 1199,553 L 1199,552 L 1210,542 L 1219,537 L 1221,537 L 1224,535 L 1227,535 Z M 1137,542 L 1139,544 L 1138,545 L 1135,545 L 1134,546 L 1133,546 L 1132,545 L 1131,545 L 1130,544 L 1129,544 L 1128,543 L 1127,543 L 1124,541 L 1122,541 L 1121,540 L 1118,540 L 1117,539 L 1109,539 L 1108,538 L 1107,538 L 1106,539 L 1098,539 L 1097,540 L 1094,540 L 1093,541 L 1091,541 L 1090,542 L 1089,542 L 1088,543 L 1087,543 L 1086,544 L 1085,544 L 1084,545 L 1081,546 L 1078,549 L 1077,549 L 1071,555 L 1071,556 L 1068,559 L 1067,562 L 1065,564 L 1065,565 L 1063,568 L 1063,571 L 1062,572 L 1062,574 L 1061,575 L 1061,581 L 1060,582 L 1060,587 L 1061,588 L 1061,593 L 1062,594 L 1062,597 L 1063,598 L 1063,601 L 1064,602 L 1065,605 L 1067,607 L 1068,610 L 1070,612 L 1070,613 L 1074,617 L 1071,619 L 1070,618 L 1069,619 L 1066,616 L 1066,615 L 1062,610 L 1062,609 L 1060,606 L 1060,604 L 1058,601 L 1058,598 L 1057,597 L 1057,594 L 1056,593 L 1056,575 L 1057,574 L 1057,571 L 1058,570 L 1058,568 L 1059,567 L 1059,565 L 1060,564 L 1060,563 L 1061,562 L 1062,559 L 1066,554 L 1066,553 L 1074,545 L 1075,545 L 1076,546 L 1078,546 L 1076,546 L 1075,545 L 1079,541 L 1080,541 L 1081,540 L 1082,540 L 1083,539 L 1084,539 L 1087,537 L 1089,537 L 1092,535 L 1095,535 L 1096,534 L 1100,534 L 1101,533 L 1114,533 L 1115,534 L 1119,534 L 1120,535 L 1123,535 L 1124,536 L 1126,536 L 1127,537 L 1128,537 L 1129,538 L 1130,538 L 1131,539 L 1134,540 L 1136,542 Z M 1000,540 L 1002,542 L 1001,543 L 999,543 L 999,544 L 998,545 L 997,545 L 995,543 L 994,543 L 993,542 L 991,542 L 990,541 L 988,541 L 987,540 L 984,540 L 983,539 L 977,539 L 976,538 L 971,538 L 970,539 L 964,539 L 963,540 L 960,540 L 959,541 L 957,541 L 956,542 L 955,542 L 954,543 L 953,543 L 948,546 L 947,546 L 946,545 L 944,545 L 946,545 L 947,546 L 943,550 L 942,550 L 934,559 L 934,560 L 933,561 L 933,562 L 930,567 L 930,569 L 929,570 L 929,572 L 928,573 L 928,576 L 927,577 L 927,591 L 928,592 L 928,596 L 929,597 L 929,599 L 930,600 L 930,602 L 931,603 L 931,604 L 932,605 L 932,606 L 933,607 L 934,610 L 937,613 L 937,614 L 938,615 L 937,616 L 938,615 L 942,619 L 940,621 L 942,621 L 943,620 L 944,620 L 947,623 L 946,624 L 944,624 L 945,625 L 947,623 L 948,623 L 950,625 L 951,625 L 952,626 L 951,627 L 948,627 L 947,628 L 946,628 L 945,627 L 944,627 L 942,625 L 941,625 L 933,617 L 933,616 L 931,614 L 931,613 L 927,608 L 927,607 L 925,604 L 925,601 L 924,600 L 924,598 L 923,597 L 923,595 L 922,594 L 922,575 L 923,574 L 923,571 L 925,568 L 925,566 L 926,565 L 926,563 L 930,558 L 931,555 L 935,551 L 935,550 L 938,547 L 939,547 L 944,542 L 947,541 L 949,539 L 950,539 L 953,537 L 955,537 L 956,536 L 958,536 L 959,535 L 961,535 L 962,534 L 967,534 L 968,533 L 980,533 L 981,534 L 985,534 L 986,535 L 988,535 L 989,536 L 991,536 L 992,537 L 994,537 L 995,538 L 996,538 L 997,539 Z M 833,533 L 846,533 L 847,534 L 850,534 L 851,535 L 854,535 L 855,536 L 860,537 L 869,542 L 871,544 L 870,545 L 867,545 L 870,545 L 871,544 L 875,548 L 876,548 L 882,555 L 888,565 L 889,571 L 891,575 L 891,593 L 890,594 L 890,598 L 882,614 L 874,623 L 873,623 L 867,628 L 866,628 L 864,626 L 864,627 L 866,628 L 865,629 L 857,633 L 851,634 L 850,635 L 843,635 L 842,636 L 828,635 L 827,634 L 821,633 L 811,628 L 806,624 L 807,623 L 810,623 L 812,622 L 814,624 L 812,626 L 814,626 L 813,625 L 815,624 L 825,629 L 828,629 L 829,630 L 835,630 L 836,631 L 844,631 L 845,630 L 853,629 L 864,624 L 866,622 L 868,623 L 867,624 L 869,624 L 867,622 L 870,619 L 871,620 L 874,620 L 871,620 L 870,619 L 872,617 L 873,617 L 878,611 L 883,602 L 883,600 L 885,596 L 885,593 L 886,592 L 886,578 L 885,577 L 885,573 L 884,572 L 883,567 L 880,561 L 870,550 L 871,549 L 873,549 L 871,549 L 870,550 L 864,545 L 856,541 L 854,541 L 850,539 L 843,539 L 842,538 L 837,538 L 836,539 L 830,539 L 829,540 L 823,541 L 813,546 L 811,548 L 810,546 L 808,546 L 807,545 L 813,540 L 821,536 L 827,535 L 828,534 L 832,534 Z M 666,551 L 672,545 L 673,545 L 676,542 L 679,541 L 681,539 L 685,537 L 693,535 L 694,534 L 699,534 L 700,533 L 712,533 L 713,534 L 721,535 L 724,537 L 726,537 L 734,541 L 737,544 L 738,544 L 748,554 L 748,555 L 751,558 L 755,566 L 756,572 L 757,573 L 757,577 L 758,578 L 758,590 L 757,591 L 757,596 L 756,597 L 754,605 L 752,609 L 748,614 L 748,615 L 745,618 L 744,617 L 743,618 L 740,618 L 739,617 L 743,613 L 743,612 L 747,607 L 750,601 L 750,599 L 752,595 L 752,592 L 753,591 L 753,578 L 752,577 L 752,573 L 751,572 L 751,570 L 750,569 L 750,567 L 748,563 L 746,561 L 745,558 L 739,552 L 739,551 L 738,551 L 734,547 L 731,546 L 729,544 L 725,543 L 719,540 L 716,540 L 715,539 L 708,539 L 707,538 L 705,538 L 704,539 L 697,539 L 696,540 L 689,541 L 681,545 L 670,554 L 670,555 L 667,558 L 667,559 L 663,564 L 663,566 L 661,569 L 660,575 L 659,576 L 659,594 L 660,595 L 660,597 L 661,598 L 661,600 L 663,603 L 664,607 L 669,613 L 669,614 L 675,620 L 674,621 L 671,621 L 670,622 L 666,618 L 667,617 L 666,618 L 662,613 L 663,611 L 662,612 L 660,610 L 658,606 L 658,604 L 656,601 L 656,598 L 655,597 L 655,594 L 654,593 L 654,577 L 655,576 L 655,572 L 656,571 L 657,566 L 661,558 L 666,552 Z M 560,532 L 566,538 L 566,539 L 568,541 L 568,542 L 569,543 L 569,544 L 570,545 L 570,546 L 572,548 L 572,549 L 573,550 L 572,551 L 572,554 L 571,555 L 570,555 L 569,556 L 567,556 L 566,557 L 563,557 L 562,558 L 559,558 L 558,559 L 546,559 L 544,557 L 544,556 L 540,552 L 539,552 L 536,549 L 535,549 L 534,548 L 534,546 L 535,545 L 535,542 L 536,541 L 536,540 L 537,539 L 537,538 L 539,536 L 539,535 L 541,533 L 547,533 L 548,534 L 551,534 L 552,533 L 557,533 L 558,532 Z M 1872,523 L 1876,523 L 1877,522 L 1898,522 L 1899,523 L 1899,526 L 1898,527 L 1898,531 L 1897,532 L 1897,535 L 1896,536 L 1896,538 L 1895,539 L 1895,541 L 1894,542 L 1894,543 L 1893,544 L 1893,545 L 1892,546 L 1892,547 L 1891,548 L 1890,547 L 1891,548 L 1891,549 L 1890,550 L 1890,551 L 1888,553 L 1888,554 L 1887,555 L 1884,552 L 1883,552 L 1878,547 L 1877,547 L 1867,537 L 1870,534 L 1870,533 L 1871,532 L 1871,531 L 1872,530 L 1872,526 L 1871,525 L 1871,524 Z M 1757,522 L 1758,521 L 1761,521 L 1762,522 L 1762,524 L 1763,525 L 1763,527 L 1764,528 L 1764,530 L 1765,531 L 1765,532 L 1766,533 L 1766,534 L 1767,535 L 1767,537 L 1768,538 L 1768,542 L 1769,543 L 1769,544 L 1770,543 L 1771,543 L 1773,541 L 1774,541 L 1775,540 L 1775,539 L 1776,538 L 1776,537 L 1777,536 L 1777,533 L 1776,532 L 1776,530 L 1775,529 L 1775,523 L 1776,522 L 1782,522 L 1783,523 L 1783,528 L 1784,529 L 1784,532 L 1785,533 L 1785,534 L 1786,535 L 1786,536 L 1787,537 L 1787,538 L 1786,539 L 1785,539 L 1777,547 L 1776,547 L 1773,550 L 1772,550 L 1771,549 L 1767,549 L 1771,549 L 1772,550 L 1768,554 L 1766,552 L 1766,551 L 1765,550 L 1765,549 L 1764,548 L 1764,547 L 1763,546 L 1763,545 L 1762,544 L 1762,543 L 1764,541 L 1765,541 L 1765,538 L 1764,539 L 1763,539 L 1762,538 L 1762,539 L 1761,540 L 1760,539 L 1760,537 L 1759,536 L 1759,533 L 1758,532 L 1758,527 L 1757,526 Z M 497,507 L 507,507 L 508,508 L 507,509 L 507,511 L 506,512 L 506,514 L 505,515 L 505,520 L 508,523 L 515,523 L 516,522 L 517,522 L 517,521 L 519,519 L 525,525 L 525,526 L 526,527 L 525,528 L 525,530 L 524,531 L 524,532 L 523,533 L 523,534 L 522,535 L 522,536 L 521,537 L 521,538 L 520,539 L 520,540 L 519,541 L 519,542 L 516,545 L 515,545 L 513,547 L 512,546 L 511,546 L 500,535 L 500,534 L 498,532 L 498,531 L 497,530 L 497,529 L 495,527 L 495,526 L 494,525 L 494,524 L 493,523 L 493,521 L 492,520 L 492,519 L 491,518 L 491,515 L 490,514 L 490,511 L 491,510 L 492,511 L 492,512 L 493,511 L 494,511 L 493,511 L 492,510 L 493,509 L 494,509 L 495,508 L 496,508 Z M 609,501 L 610,502 L 610,509 L 609,510 L 609,514 L 608,515 L 608,517 L 607,518 L 607,520 L 606,521 L 606,522 L 605,523 L 605,524 L 604,525 L 604,526 L 603,527 L 603,528 L 602,529 L 602,530 L 598,534 L 598,535 L 597,536 L 596,535 L 596,529 L 595,528 L 595,527 L 592,524 L 592,523 L 591,522 L 590,522 L 587,519 L 586,519 L 585,518 L 582,518 L 581,517 L 582,516 L 582,513 L 583,512 L 583,511 L 584,510 L 584,508 L 585,507 L 585,505 L 586,504 L 588,504 L 589,503 L 590,503 L 591,504 L 593,504 L 591,504 L 590,503 L 591,502 L 595,502 L 596,501 L 600,501 L 601,500 L 605,500 L 606,501 Z M 1782,485 L 1785,488 L 1786,488 L 1789,491 L 1789,496 L 1785,500 L 1785,501 L 1784,502 L 1784,505 L 1782,507 L 1777,507 L 1776,506 L 1777,505 L 1777,500 L 1778,499 L 1778,490 L 1779,489 L 1780,490 L 1780,494 L 1780,490 L 1781,489 L 1780,490 L 1779,489 L 1779,488 L 1780,487 L 1780,486 L 1781,485 Z M 1867,493 L 1870,490 L 1870,489 L 1873,486 L 1874,486 L 1878,482 L 1879,482 L 1882,479 L 1883,479 L 1885,477 L 1886,478 L 1887,477 L 1889,479 L 1889,480 L 1890,481 L 1890,482 L 1891,483 L 1891,484 L 1892,485 L 1892,486 L 1893,487 L 1893,488 L 1894,489 L 1894,490 L 1895,491 L 1895,493 L 1896,494 L 1896,496 L 1897,497 L 1897,499 L 1898,500 L 1898,504 L 1899,505 L 1899,507 L 1898,508 L 1897,507 L 1896,508 L 1877,508 L 1875,506 L 1872,506 L 1871,505 L 1871,501 L 1870,500 L 1870,499 L 1869,498 L 1869,497 L 1867,495 Z M 1611,478 L 1612,477 L 1614,477 L 1615,478 L 1619,478 L 1620,479 L 1624,479 L 1625,478 L 1629,478 L 1630,479 L 1631,479 L 1632,480 L 1631,481 L 1629,481 L 1628,480 L 1627,480 L 1628,480 L 1629,481 L 1628,482 L 1615,482 L 1614,481 L 1612,481 L 1611,480 L 1612,479 L 1613,479 L 1612,479 Z M 1404,478 L 1405,477 L 1407,477 L 1408,478 L 1413,478 L 1414,479 L 1415,479 L 1416,478 L 1422,478 L 1423,479 L 1424,479 L 1425,480 L 1424,481 L 1422,481 L 1421,482 L 1408,482 L 1407,481 L 1405,481 L 1404,480 L 1405,479 L 1406,479 L 1405,479 Z M 750,478 L 751,477 L 753,477 L 754,478 L 766,478 L 767,477 L 769,477 L 770,478 L 769,479 L 768,479 L 769,479 L 770,480 L 769,481 L 767,481 L 766,482 L 755,482 L 754,481 L 755,480 L 756,480 L 755,480 L 754,481 L 751,481 L 750,480 L 751,479 L 752,479 L 751,479 Z M 1771,476 L 1772,477 L 1772,479 L 1771,480 L 1771,481 L 1770,482 L 1770,483 L 1769,484 L 1769,485 L 1768,486 L 1768,489 L 1767,490 L 1767,493 L 1766,494 L 1766,496 L 1765,497 L 1765,499 L 1764,500 L 1764,504 L 1763,505 L 1763,506 L 1762,507 L 1758,507 L 1757,506 L 1757,505 L 1758,504 L 1758,501 L 1759,500 L 1759,497 L 1760,496 L 1760,494 L 1761,493 L 1761,491 L 1762,490 L 1762,489 L 1763,488 L 1763,487 L 1764,486 L 1764,485 L 1765,484 L 1765,483 L 1766,482 L 1766,481 L 1768,479 L 1768,478 L 1769,477 L 1770,478 L 1769,477 L 1770,476 Z M 1182,477 L 1183,476 L 1184,476 L 1185,475 L 1186,475 L 1187,476 L 1188,476 L 1189,477 L 1191,477 L 1192,478 L 1205,478 L 1206,479 L 1207,479 L 1208,480 L 1207,481 L 1205,481 L 1204,482 L 1193,482 L 1192,481 L 1189,481 L 1188,480 L 1187,480 L 1186,479 L 1187,478 L 1186,479 L 1184,479 Z M 1175,470 L 1176,469 L 1177,470 L 1178,469 L 1183,474 L 1184,474 L 1185,475 L 1184,476 L 1183,476 L 1182,477 L 1181,477 L 1175,471 Z M 783,470 L 783,471 L 777,477 L 776,477 L 775,476 L 774,476 L 773,475 L 774,474 L 775,474 L 780,469 L 781,470 L 782,469 Z M 1392,468 L 1393,467 L 1395,469 L 1395,470 L 1396,470 L 1401,475 L 1400,476 L 1399,476 L 1398,477 L 1397,476 L 1396,476 L 1392,472 L 1392,471 L 1393,470 L 1392,469 Z M 516,456 L 519,459 L 519,460 L 520,461 L 520,462 L 521,463 L 521,464 L 522,465 L 522,466 L 524,468 L 524,469 L 525,470 L 525,472 L 526,473 L 521,478 L 520,478 L 518,476 L 520,474 L 522,474 L 521,474 L 520,473 L 519,474 L 517,472 L 516,473 L 514,471 L 514,470 L 509,465 L 508,465 L 507,464 L 504,464 L 504,466 L 503,467 L 503,471 L 502,472 L 502,477 L 503,478 L 503,481 L 504,482 L 504,484 L 505,485 L 505,488 L 506,489 L 506,490 L 505,491 L 494,491 L 492,489 L 491,489 L 490,488 L 490,486 L 491,485 L 491,482 L 492,481 L 492,479 L 493,478 L 493,476 L 494,475 L 494,474 L 495,473 L 496,474 L 496,475 L 497,474 L 498,475 L 498,477 L 499,477 L 500,476 L 500,472 L 499,472 L 498,471 L 497,472 L 496,471 L 496,470 L 497,469 L 497,468 L 500,465 L 500,464 L 502,462 L 502,461 L 507,456 L 508,457 L 509,456 L 513,456 L 514,455 L 515,456 Z M 1859,453 L 1860,454 L 1862,454 L 1864,456 L 1863,457 L 1862,457 L 1863,457 L 1864,458 L 1865,458 L 1866,457 L 1867,457 L 1869,459 L 1868,460 L 1869,459 L 1870,459 L 1872,461 L 1871,462 L 1872,463 L 1873,462 L 1874,463 L 1875,463 L 1876,464 L 1876,465 L 1871,470 L 1870,470 L 1866,474 L 1865,474 L 1859,480 L 1858,480 L 1857,481 L 1855,481 L 1852,478 L 1853,477 L 1853,476 L 1854,475 L 1854,473 L 1855,472 L 1856,472 L 1856,471 L 1857,470 L 1857,469 L 1858,468 L 1858,467 L 1859,466 L 1859,461 L 1857,459 L 1857,454 L 1858,453 Z M 1798,453 L 1799,453 L 1800,454 L 1798,456 L 1798,457 L 1797,458 L 1797,460 L 1796,461 L 1797,462 L 1797,464 L 1798,465 L 1798,466 L 1799,467 L 1799,468 L 1800,469 L 1800,470 L 1801,471 L 1801,472 L 1802,473 L 1802,475 L 1803,476 L 1803,477 L 1804,478 L 1801,481 L 1800,481 L 1799,480 L 1798,480 L 1796,478 L 1797,477 L 1800,477 L 1799,476 L 1798,477 L 1797,477 L 1796,478 L 1795,477 L 1794,477 L 1791,474 L 1790,474 L 1787,471 L 1788,470 L 1785,467 L 1785,466 L 1784,466 L 1783,467 L 1781,465 L 1781,464 L 1784,461 L 1785,461 L 1788,458 L 1789,458 L 1790,457 L 1791,457 L 1792,456 L 1793,456 L 1794,457 L 1795,457 L 1794,457 L 1793,456 L 1794,455 L 1795,455 L 1796,454 L 1797,454 Z M 590,452 L 595,457 L 594,458 L 595,457 L 599,461 L 599,462 L 601,464 L 601,465 L 603,467 L 603,468 L 604,469 L 604,470 L 605,471 L 605,473 L 606,474 L 606,475 L 607,476 L 607,478 L 608,479 L 608,482 L 607,483 L 606,483 L 605,484 L 604,484 L 603,485 L 601,485 L 600,486 L 593,486 L 592,487 L 585,487 L 583,485 L 583,482 L 581,480 L 581,479 L 575,473 L 575,472 L 576,471 L 576,470 L 577,469 L 577,467 L 578,466 L 578,465 L 579,464 L 579,462 L 580,461 L 580,460 L 584,456 L 585,456 L 586,455 L 587,455 Z M 1618,450 L 1619,450 L 1620,449 L 1624,449 L 1625,450 L 1626,450 L 1629,453 L 1629,454 L 1630,455 L 1630,456 L 1629,457 L 1629,459 L 1626,462 L 1624,462 L 1623,463 L 1621,463 L 1620,462 L 1619,462 L 1615,458 L 1615,454 L 1616,453 L 1616,452 Z M 1412,449 L 1418,449 L 1422,453 L 1422,458 L 1419,461 L 1418,461 L 1417,460 L 1415,460 L 1417,460 L 1418,461 L 1417,462 L 1412,462 L 1411,461 L 1410,461 L 1409,460 L 1409,459 L 1408,458 L 1408,457 L 1407,456 L 1407,455 L 1408,454 L 1408,453 L 1409,452 L 1410,453 L 1411,452 L 1410,451 Z M 1195,449 L 1201,449 L 1202,450 L 1201,451 L 1199,451 L 1201,451 L 1202,450 L 1203,450 L 1205,452 L 1205,454 L 1206,455 L 1206,456 L 1205,457 L 1205,458 L 1204,459 L 1204,460 L 1203,461 L 1202,461 L 1201,460 L 1198,460 L 1201,460 L 1202,461 L 1201,462 L 1196,462 L 1195,461 L 1194,461 L 1192,459 L 1192,458 L 1191,457 L 1191,454 L 1192,453 L 1192,452 L 1193,451 L 1194,452 L 1193,451 Z M 973,448 L 974,448 L 975,449 L 974,450 L 974,451 L 976,451 L 975,450 L 976,449 L 977,449 L 980,452 L 980,453 L 981,454 L 981,456 L 980,457 L 980,458 L 979,459 L 979,460 L 978,461 L 977,461 L 976,460 L 977,459 L 976,460 L 973,460 L 976,460 L 977,461 L 976,462 L 971,462 L 967,458 L 967,452 L 969,450 L 970,450 L 971,449 L 972,449 Z M 757,449 L 759,449 L 760,448 L 761,448 L 762,449 L 764,449 L 766,451 L 765,452 L 766,451 L 767,452 L 767,453 L 768,454 L 768,457 L 767,458 L 767,459 L 765,461 L 764,461 L 763,460 L 761,460 L 763,460 L 764,461 L 763,462 L 757,462 L 753,458 L 753,453 Z M 1836,447 L 1840,447 L 1841,448 L 1844,448 L 1845,449 L 1848,449 L 1849,450 L 1851,450 L 1852,451 L 1853,451 L 1854,452 L 1853,453 L 1852,453 L 1851,454 L 1850,454 L 1849,455 L 1848,455 L 1847,456 L 1845,456 L 1845,471 L 1844,472 L 1843,472 L 1842,471 L 1843,470 L 1843,462 L 1843,470 L 1842,471 L 1839,471 L 1842,471 L 1843,472 L 1841,474 L 1840,474 L 1839,473 L 1838,473 L 1836,471 L 1836,470 L 1835,469 L 1835,454 L 1836,453 L 1836,449 L 1835,448 Z M 1820,447 L 1821,448 L 1821,469 L 1820,470 L 1819,470 L 1818,471 L 1817,471 L 1816,470 L 1817,469 L 1816,468 L 1816,461 L 1815,462 L 1815,469 L 1817,471 L 1817,472 L 1816,473 L 1813,473 L 1812,472 L 1812,471 L 1811,470 L 1811,461 L 1810,460 L 1810,457 L 1809,456 L 1809,455 L 1808,454 L 1805,454 L 1803,452 L 1804,451 L 1806,451 L 1807,450 L 1809,450 L 1810,449 L 1812,449 L 1813,448 L 1817,448 L 1818,447 Z M 534,454 L 536,452 L 538,452 L 539,451 L 543,451 L 544,452 L 545,452 L 547,450 L 547,448 L 549,446 L 551,446 L 552,447 L 552,448 L 553,449 L 553,450 L 555,452 L 555,453 L 556,454 L 556,456 L 557,457 L 558,457 L 559,458 L 562,458 L 563,459 L 562,460 L 562,461 L 561,462 L 560,461 L 560,460 L 560,461 L 561,462 L 560,463 L 560,464 L 559,465 L 558,465 L 557,464 L 554,464 L 553,463 L 548,463 L 547,464 L 546,464 L 545,465 L 543,465 L 542,466 L 537,461 L 537,460 L 536,459 L 536,458 L 535,457 L 535,455 Z M 535,442 L 536,443 L 536,446 L 535,447 L 535,448 L 532,451 L 531,450 L 531,449 L 530,448 L 530,446 L 532,444 L 534,444 L 534,443 Z M 778,435 L 779,436 L 780,436 L 781,437 L 781,438 L 784,441 L 784,442 L 785,443 L 785,444 L 786,445 L 786,446 L 787,447 L 787,449 L 788,450 L 788,460 L 787,461 L 787,463 L 786,464 L 786,466 L 785,467 L 785,468 L 783,470 L 781,468 L 781,467 L 782,466 L 782,465 L 783,464 L 783,462 L 784,461 L 784,459 L 785,458 L 785,454 L 784,453 L 784,449 L 783,448 L 783,446 L 782,445 L 782,444 L 780,442 L 780,441 L 776,437 Z M 1798,437 L 1799,436 L 1799,435 L 1800,434 L 1807,434 L 1808,435 L 1807,436 L 1805,436 L 1804,437 L 1801,437 L 1800,438 L 1799,438 Z M 1634,432 L 1635,432 L 1636,433 L 1637,433 L 1639,435 L 1640,435 L 1645,440 L 1645,441 L 1647,443 L 1647,444 L 1648,445 L 1648,446 L 1649,447 L 1649,449 L 1650,450 L 1650,461 L 1649,462 L 1649,464 L 1648,465 L 1648,467 L 1646,469 L 1646,470 L 1638,478 L 1637,478 L 1636,479 L 1635,479 L 1634,478 L 1633,478 L 1632,477 L 1633,476 L 1634,476 L 1635,475 L 1636,475 L 1637,476 L 1636,475 L 1643,468 L 1643,467 L 1644,466 L 1644,465 L 1645,464 L 1645,463 L 1646,462 L 1646,459 L 1647,458 L 1647,456 L 1646,455 L 1646,450 L 1645,449 L 1645,447 L 1644,446 L 1644,445 L 1642,443 L 1642,442 L 1636,436 L 1635,436 L 1634,435 L 1633,435 L 1632,434 Z M 1609,432 L 1610,432 L 1611,433 L 1612,433 L 1613,434 L 1612,435 L 1611,435 L 1610,436 L 1609,436 L 1606,439 L 1605,439 L 1604,440 L 1604,441 L 1601,444 L 1601,445 L 1600,446 L 1600,447 L 1599,448 L 1599,450 L 1598,451 L 1598,461 L 1599,462 L 1599,464 L 1600,465 L 1600,466 L 1602,468 L 1602,469 L 1608,475 L 1609,475 L 1610,476 L 1611,476 L 1612,477 L 1611,478 L 1612,479 L 1611,480 L 1609,480 L 1607,478 L 1606,478 L 1598,470 L 1598,469 L 1597,468 L 1597,467 L 1596,466 L 1596,465 L 1595,464 L 1595,461 L 1594,460 L 1594,451 L 1595,450 L 1595,448 L 1596,447 L 1596,445 L 1597,444 L 1597,443 L 1600,440 L 1600,439 L 1603,436 L 1604,436 L 1607,433 L 1608,433 Z M 1402,432 L 1404,434 L 1403,435 L 1402,435 L 1398,439 L 1397,439 L 1396,440 L 1396,441 L 1393,444 L 1393,445 L 1392,446 L 1392,447 L 1391,448 L 1391,451 L 1390,452 L 1390,459 L 1391,460 L 1391,463 L 1392,464 L 1392,465 L 1393,466 L 1393,467 L 1392,468 L 1392,469 L 1391,470 L 1390,469 L 1390,468 L 1389,467 L 1389,466 L 1388,465 L 1388,463 L 1387,462 L 1387,458 L 1388,457 L 1388,455 L 1388,457 L 1387,458 L 1386,457 L 1386,453 L 1387,452 L 1387,448 L 1388,447 L 1388,446 L 1389,445 L 1389,444 L 1390,443 L 1391,444 L 1390,443 L 1390,442 L 1392,440 L 1392,439 L 1396,435 L 1397,435 L 1398,436 L 1397,435 L 1399,433 L 1400,433 L 1401,432 Z M 1211,431 L 1212,432 L 1213,432 L 1215,434 L 1216,434 L 1222,440 L 1222,441 L 1223,442 L 1223,443 L 1224,444 L 1224,445 L 1225,446 L 1225,448 L 1226,449 L 1226,460 L 1225,461 L 1225,464 L 1224,465 L 1224,466 L 1223,467 L 1223,468 L 1222,469 L 1222,470 L 1215,477 L 1214,477 L 1212,479 L 1211,479 L 1210,480 L 1208,480 L 1207,479 L 1208,478 L 1209,478 L 1208,477 L 1209,476 L 1210,476 L 1211,477 L 1210,476 L 1212,474 L 1213,474 L 1219,468 L 1219,467 L 1221,465 L 1221,463 L 1222,462 L 1222,460 L 1223,459 L 1223,452 L 1222,451 L 1222,448 L 1221,447 L 1221,446 L 1220,445 L 1220,444 L 1219,443 L 1219,442 L 1213,436 L 1212,436 L 1210,434 L 1209,434 L 1208,433 L 1210,431 Z M 985,431 L 986,431 L 987,432 L 988,432 L 989,433 L 990,433 L 994,437 L 993,438 L 994,439 L 995,438 L 997,440 L 997,441 L 999,443 L 999,444 L 1000,445 L 1000,446 L 1001,447 L 1001,451 L 1002,452 L 1002,459 L 1001,460 L 1001,463 L 1000,464 L 1000,465 L 999,466 L 999,467 L 998,468 L 998,469 L 996,471 L 996,472 L 992,476 L 991,476 L 989,478 L 988,478 L 987,477 L 988,476 L 987,475 L 990,472 L 991,472 L 993,470 L 993,469 L 995,467 L 996,468 L 995,467 L 995,466 L 996,465 L 997,466 L 996,465 L 996,464 L 997,463 L 997,461 L 998,460 L 998,451 L 997,450 L 997,447 L 996,446 L 996,445 L 995,444 L 995,443 L 988,436 L 987,436 L 985,434 L 983,434 L 982,433 L 983,432 L 984,432 Z M 1610,432 L 1611,431 L 1612,431 L 1613,430 L 1616,430 L 1617,429 L 1627,429 L 1628,430 L 1631,430 L 1632,431 L 1633,431 L 1634,432 L 1632,434 L 1630,434 L 1629,433 L 1626,433 L 1625,432 L 1619,432 L 1618,433 L 1615,433 L 1614,434 L 1613,434 L 1612,433 L 1611,433 Z M 1405,430 L 1407,430 L 1408,429 L 1412,429 L 1413,430 L 1416,430 L 1417,429 L 1422,429 L 1423,430 L 1425,430 L 1426,431 L 1427,431 L 1428,432 L 1429,432 L 1431,434 L 1432,434 L 1439,441 L 1439,442 L 1440,443 L 1440,444 L 1441,445 L 1441,446 L 1442,447 L 1442,449 L 1443,450 L 1443,460 L 1442,461 L 1442,464 L 1441,465 L 1441,466 L 1440,467 L 1440,468 L 1439,469 L 1439,470 L 1432,477 L 1431,477 L 1429,479 L 1428,479 L 1427,480 L 1425,480 L 1424,479 L 1425,478 L 1426,478 L 1425,477 L 1426,476 L 1427,476 L 1429,474 L 1430,474 L 1435,469 L 1435,468 L 1437,466 L 1437,464 L 1438,463 L 1438,461 L 1439,460 L 1439,451 L 1438,450 L 1438,448 L 1437,447 L 1437,445 L 1435,443 L 1435,442 L 1429,436 L 1428,436 L 1426,434 L 1424,434 L 1423,433 L 1421,433 L 1420,432 L 1410,432 L 1409,433 L 1406,433 L 1405,434 L 1404,434 L 1402,432 L 1403,431 L 1404,431 Z M 1208,430 L 1209,431 L 1207,433 L 1206,433 L 1205,432 L 1193,432 L 1192,433 L 1190,433 L 1189,434 L 1187,434 L 1185,436 L 1184,436 L 1177,443 L 1176,442 L 1177,443 L 1177,444 L 1176,445 L 1176,446 L 1175,447 L 1175,449 L 1174,450 L 1174,461 L 1175,462 L 1175,463 L 1176,464 L 1176,466 L 1178,468 L 1178,469 L 1177,470 L 1176,469 L 1175,470 L 1173,468 L 1173,467 L 1172,466 L 1172,464 L 1171,463 L 1171,461 L 1170,460 L 1170,451 L 1171,450 L 1171,447 L 1172,446 L 1172,445 L 1173,444 L 1173,443 L 1174,442 L 1174,441 L 1181,434 L 1182,434 L 1184,432 L 1185,432 L 1186,431 L 1187,431 L 1188,430 L 1190,430 L 1191,429 L 1196,429 L 1197,430 L 1198,429 L 1206,429 L 1207,430 Z M 966,429 L 971,429 L 972,428 L 975,428 L 976,429 L 981,429 L 982,430 L 984,430 L 985,431 L 984,432 L 983,432 L 982,433 L 981,433 L 980,432 L 967,432 L 966,433 L 964,433 L 963,434 L 962,434 L 960,436 L 959,436 L 953,442 L 953,443 L 952,444 L 952,445 L 951,446 L 951,447 L 950,448 L 950,451 L 949,452 L 949,458 L 950,459 L 950,462 L 951,463 L 951,464 L 952,465 L 952,466 L 953,467 L 953,468 L 952,469 L 953,468 L 960,475 L 961,475 L 962,476 L 961,477 L 962,476 L 963,476 L 964,477 L 966,477 L 967,478 L 980,478 L 981,479 L 982,479 L 981,479 L 980,478 L 981,477 L 983,477 L 984,478 L 985,478 L 986,479 L 985,480 L 984,480 L 983,481 L 980,481 L 979,482 L 968,482 L 967,481 L 964,481 L 963,480 L 962,480 L 961,479 L 960,479 L 959,478 L 958,478 L 956,476 L 955,476 L 951,472 L 951,471 L 949,469 L 949,468 L 948,467 L 948,465 L 947,464 L 947,462 L 946,461 L 946,449 L 947,448 L 947,446 L 948,445 L 948,444 L 949,443 L 949,442 L 950,441 L 950,440 L 956,434 L 957,434 L 959,432 L 960,432 L 961,431 L 962,431 L 963,430 L 965,430 Z M 775,432 L 777,434 L 776,435 L 775,435 L 774,434 L 773,435 L 772,435 L 771,434 L 769,434 L 768,433 L 766,433 L 765,432 L 755,432 L 754,433 L 752,433 L 751,434 L 749,434 L 748,435 L 747,435 L 746,436 L 745,435 L 746,436 L 739,443 L 739,444 L 738,445 L 738,446 L 737,447 L 737,450 L 736,451 L 736,460 L 737,461 L 737,463 L 738,464 L 738,466 L 740,468 L 740,469 L 745,474 L 746,474 L 748,476 L 750,476 L 751,477 L 750,478 L 749,478 L 748,479 L 747,479 L 746,478 L 745,478 L 744,477 L 745,476 L 744,477 L 743,477 L 737,471 L 737,470 L 735,468 L 735,467 L 734,466 L 734,465 L 733,464 L 733,462 L 732,461 L 732,450 L 733,449 L 733,447 L 734,446 L 734,445 L 735,444 L 735,443 L 736,442 L 736,441 L 744,433 L 745,433 L 746,432 L 747,432 L 748,431 L 749,431 L 750,430 L 752,430 L 753,429 L 759,429 L 760,430 L 759,429 L 760,428 L 761,428 L 762,429 L 767,429 L 768,430 L 770,430 L 771,431 L 770,432 L 771,431 L 773,431 L 774,432 Z" fill="black" fill-rule="evenodd"/>
<path d="M 1550,269 L 1550,284 L 1677,284 L 1677,267 L 1676,266 L 1676,265 L 1675,264 L 1674,264 L 1672,262 L 1557,262 L 1556,263 L 1555,263 L 1554,264 L 1553,264 L 1551,266 L 1551,268 Z" fill="black" fill-rule="evenodd"/>
<path d="M 1969,427 L 1838,376 L 1846,367 L 1838,342 L 1819,350 L 1822,375 L 1799,375 L 1805,338 L 1787,292 L 1701,294 L 1685,286 L 1479,287 L 1470,272 L 1401,272 L 1364,286 L 1359,261 L 1511,261 L 1514,144 L 1363,125 L 1329,132 L 1349,117 L 1348,98 L 1319,97 L 1344,96 L 1332,59 L 1172,60 L 1176,74 L 1162,80 L 1162,95 L 1185,93 L 1158,99 L 1168,129 L 1108,122 L 1011,138 L 990,122 L 967,143 L 906,148 L 881,253 L 878,203 L 899,157 L 878,170 L 815,170 L 812,179 L 721,179 L 704,188 L 615,188 L 606,195 L 323,196 L 255,177 L 212,183 L 202,201 L 208,234 L 257,242 L 323,222 L 606,223 L 615,231 L 812,239 L 815,247 L 881,253 L 874,286 L 838,280 L 807,289 L 802,281 L 716,287 L 702,297 L 670,292 L 641,337 L 576,341 L 565,325 L 549,322 L 536,343 L 553,358 L 552,368 L 472,384 L 429,442 L 426,459 L 462,458 L 493,419 L 546,398 L 1644,398 L 1850,418 L 1901,447 L 1964,435 Z M 1824,374 L 1825,373 L 1835,373 L 1836,374 L 1835,375 L 1825,375 Z M 567,369 L 569,367 L 571,367 L 573,369 L 572,370 L 573,369 L 575,369 L 580,374 L 579,375 L 570,375 L 569,374 L 569,371 Z M 1736,360 L 1737,359 L 1762,359 L 1763,360 L 1762,361 L 1737,361 Z M 624,355 L 625,355 L 626,354 L 638,354 L 639,355 L 640,354 L 641,355 L 641,361 L 642,361 L 644,363 L 644,364 L 643,365 L 643,369 L 642,370 L 642,373 L 643,374 L 642,375 L 629,375 L 628,374 L 628,368 L 627,367 L 626,367 L 625,366 L 625,362 L 624,361 L 624,357 L 623,356 Z M 561,358 L 564,355 L 565,355 L 571,349 L 581,349 L 583,351 L 593,351 L 595,353 L 598,353 L 599,354 L 597,356 L 596,356 L 596,357 L 595,358 L 595,359 L 596,360 L 596,369 L 593,372 L 590,372 L 589,373 L 588,373 L 586,371 L 586,370 L 584,368 L 583,368 L 582,367 L 581,367 L 578,364 L 575,364 L 574,363 L 573,363 L 572,362 L 568,362 L 567,361 L 564,361 Z M 946,336 L 947,335 L 968,335 L 969,336 L 968,337 L 947,337 Z M 1067,308 L 1068,309 L 1068,323 L 1067,324 L 1066,323 L 1066,309 Z M 1703,296 L 1704,297 L 1704,310 L 1703,311 L 1702,310 L 1702,297 Z M 1520,294 L 1521,293 L 1540,293 L 1541,294 L 1540,295 L 1521,295 Z M 1445,293 L 1446,292 L 1484,292 L 1485,293 L 1484,294 L 1446,294 Z M 1403,286 L 1404,285 L 1432,285 L 1433,286 L 1432,287 L 1404,287 Z M 875,286 L 876,285 L 1363,285 L 1364,286 L 1363,287 L 876,287 Z M 1146,236 L 1147,235 L 1184,235 L 1185,236 L 1184,237 L 1147,237 Z M 1186,212 L 1187,213 L 1187,223 L 1186,224 L 1185,223 L 1185,213 Z M 1154,211 L 1155,210 L 1179,210 L 1180,211 L 1179,212 L 1155,212 Z M 1141,207 L 1142,208 L 1142,219 L 1141,220 L 1140,219 L 1140,208 Z M 1185,198 L 1186,199 L 1186,209 L 1185,210 L 1184,209 L 1184,199 Z M 214,199 L 217,196 L 241,196 L 243,198 L 243,220 L 242,221 L 241,220 L 242,221 L 241,222 L 216,222 L 215,221 L 215,211 L 214,210 L 214,207 L 215,206 L 215,204 L 214,203 Z M 267,195 L 269,195 L 270,196 L 273,196 L 274,197 L 275,197 L 276,198 L 277,198 L 278,199 L 279,199 L 280,200 L 280,202 L 281,203 L 281,215 L 280,216 L 280,217 L 278,219 L 277,218 L 278,219 L 276,221 L 274,221 L 273,222 L 269,222 L 268,223 L 266,223 L 265,222 L 266,221 L 267,221 L 266,220 L 265,220 L 265,221 L 264,222 L 262,222 L 261,221 L 261,197 L 262,196 L 263,197 L 266,197 L 266,196 Z M 1140,192 L 1141,193 L 1141,203 L 1140,204 L 1139,203 L 1139,193 Z M 1147,188 L 1148,189 L 1148,205 L 1147,206 L 1146,205 L 1146,189 Z M 1156,182 L 1158,180 L 1169,180 L 1170,181 L 1178,181 L 1179,182 L 1178,183 L 1157,183 Z M 1139,175 L 1140,176 L 1140,188 L 1139,189 L 1138,188 L 1138,176 Z M 1183,159 L 1184,160 L 1184,175 L 1183,176 L 1182,175 L 1182,160 Z M 1138,158 L 1139,159 L 1139,173 L 1138,174 L 1137,173 L 1137,159 Z M 1141,156 L 1142,155 L 1179,155 L 1180,156 L 1181,156 L 1183,158 L 1182,159 L 1181,159 L 1180,158 L 1176,158 L 1175,157 L 1142,157 Z M 978,140 L 979,139 L 979,136 L 980,135 L 980,134 L 982,132 L 984,132 L 985,131 L 989,131 L 990,130 L 993,130 L 994,131 L 996,131 L 997,132 L 998,132 L 999,133 L 999,134 L 1000,135 L 1000,136 L 1002,138 L 1001,139 L 997,139 L 996,140 L 986,140 L 985,141 L 979,141 Z M 1221,129 L 1222,128 L 1275,128 L 1276,129 L 1275,130 L 1222,130 Z M 1190,128 L 1191,127 L 1218,127 L 1219,128 L 1218,129 L 1191,129 Z M 1208,93 L 1209,92 L 1217,92 L 1218,93 L 1218,95 L 1219,96 L 1290,96 L 1290,93 L 1291,92 L 1292,92 L 1293,93 L 1292,94 L 1292,97 L 1291,98 L 1211,98 L 1210,97 L 1210,95 L 1211,94 L 1216,94 L 1209,94 Z M 1220,73 L 1220,71 L 1221,70 L 1222,71 L 1223,70 L 1266,70 L 1267,71 L 1268,70 L 1269,71 L 1278,71 L 1279,70 L 1285,70 L 1286,71 L 1285,72 L 1283,72 L 1285,72 L 1286,71 L 1289,71 L 1290,72 L 1288,74 L 1221,74 Z" fill="black" fill-rule="evenodd"/>
</svg>