<svg xmlns="http://www.w3.org/2000/svg" width="2172" height="724" viewBox="0 0 2172 724">
<rect width="100%" height="100%" fill="white"/>
<path d="M 898,506 L 897,507 L 895,507 L 894,508 L 893,508 L 892,509 L 891,509 L 890,510 L 889,510 L 887,512 L 886,512 L 884,514 L 884,515 L 882,517 L 882,518 L 880,520 L 880,521 L 879,522 L 879,525 L 878,526 L 878,535 L 879,536 L 879,538 L 880,539 L 880,540 L 881,541 L 881,542 L 882,543 L 882,544 L 887,549 L 888,549 L 890,551 L 891,551 L 892,552 L 894,552 L 895,553 L 898,553 L 899,554 L 906,554 L 907,553 L 910,553 L 911,552 L 912,552 L 913,551 L 914,551 L 916,549 L 917,549 L 923,543 L 923,542 L 924,541 L 924,540 L 925,539 L 925,537 L 926,536 L 926,525 L 925,524 L 925,521 L 923,519 L 923,518 L 922,517 L 922,516 L 916,510 L 915,510 L 914,509 L 913,509 L 912,508 L 911,508 L 910,507 L 907,507 L 906,506 Z" fill="black" fill-rule="evenodd"/>
<path d="M 1214,484 L 1212,486 L 1211,486 L 1208,488 L 1208,492 L 1209,493 L 1210,493 L 1211,492 L 1212,492 L 1213,493 L 1208,497 L 1208,498 L 1204,502 L 1204,503 L 1200,508 L 1200,509 L 1197,514 L 1197,516 L 1196,517 L 1196,520 L 1195,521 L 1195,527 L 1194,528 L 1194,529 L 1195,530 L 1195,539 L 1196,540 L 1196,543 L 1197,544 L 1197,546 L 1198,547 L 1198,548 L 1199,549 L 1199,550 L 1200,551 L 1201,554 L 1203,556 L 1203,557 L 1205,559 L 1205,560 L 1213,568 L 1214,568 L 1216,570 L 1217,570 L 1222,573 L 1224,573 L 1225,574 L 1227,574 L 1228,575 L 1230,575 L 1231,576 L 1236,576 L 1237,577 L 1246,577 L 1247,576 L 1253,576 L 1254,575 L 1256,575 L 1257,576 L 1264,576 L 1264,572 L 1267,569 L 1268,569 L 1271,566 L 1272,566 L 1278,560 L 1278,559 L 1282,554 L 1282,553 L 1285,548 L 1285,546 L 1286,545 L 1286,542 L 1287,541 L 1287,539 L 1288,538 L 1288,522 L 1287,521 L 1287,518 L 1286,517 L 1286,514 L 1285,513 L 1285,512 L 1284,511 L 1284,510 L 1283,509 L 1282,506 L 1280,504 L 1280,503 L 1277,500 L 1277,499 L 1273,495 L 1272,495 L 1269,492 L 1266,491 L 1264,489 L 1263,489 L 1262,488 L 1260,488 L 1259,487 L 1257,487 L 1256,486 L 1254,486 L 1253,485 L 1247,485 L 1245,483 L 1246,482 L 1250,482 L 1251,483 L 1255,483 L 1256,482 L 1256,481 L 1254,479 L 1253,479 L 1252,478 L 1247,478 L 1246,477 L 1240,477 L 1239,478 L 1230,478 L 1229,479 L 1226,479 L 1225,480 L 1224,480 L 1221,482 L 1219,482 L 1216,484 Z M 1239,561 L 1244,561 L 1247,564 L 1247,569 L 1245,571 L 1244,570 L 1240,570 L 1239,571 L 1238,571 L 1236,569 L 1236,564 Z M 1264,552 L 1265,552 L 1266,553 L 1266,554 L 1270,554 L 1269,553 L 1270,552 L 1271,552 L 1273,554 L 1273,559 L 1271,561 L 1270,560 L 1269,560 L 1268,559 L 1267,560 L 1266,560 L 1270,560 L 1271,561 L 1270,562 L 1265,562 L 1262,559 L 1262,554 Z M 1213,551 L 1218,551 L 1221,554 L 1221,559 L 1219,561 L 1218,560 L 1216,560 L 1218,560 L 1219,561 L 1218,562 L 1213,562 L 1210,559 L 1210,554 Z M 1278,524 L 1279,524 L 1280,525 L 1281,525 L 1284,528 L 1284,532 L 1281,535 L 1280,535 L 1279,536 L 1277,536 L 1276,535 L 1275,535 L 1273,533 L 1273,532 L 1272,531 L 1272,529 L 1273,528 L 1273,527 L 1275,525 L 1277,525 Z M 1203,524 L 1206,524 L 1207,525 L 1208,525 L 1209,526 L 1209,527 L 1210,528 L 1210,532 L 1207,535 L 1206,535 L 1205,534 L 1205,533 L 1202,533 L 1201,534 L 1199,532 L 1199,528 L 1201,526 L 1202,527 L 1205,527 L 1204,526 L 1203,526 L 1202,525 Z M 1216,519 L 1217,518 L 1219,520 L 1219,522 L 1218,523 L 1218,527 L 1217,528 L 1217,533 L 1218,534 L 1218,537 L 1219,538 L 1219,540 L 1220,541 L 1220,542 L 1222,544 L 1222,545 L 1225,548 L 1226,548 L 1228,550 L 1229,550 L 1230,551 L 1231,551 L 1232,552 L 1234,552 L 1235,553 L 1237,553 L 1238,554 L 1246,554 L 1247,553 L 1249,553 L 1250,552 L 1252,552 L 1253,551 L 1254,551 L 1255,552 L 1256,552 L 1257,553 L 1256,554 L 1255,554 L 1254,555 L 1253,555 L 1252,556 L 1250,556 L 1249,557 L 1235,557 L 1234,556 L 1232,556 L 1231,555 L 1229,555 L 1228,554 L 1227,554 L 1224,551 L 1223,551 L 1219,547 L 1219,546 L 1217,544 L 1217,543 L 1216,542 L 1216,541 L 1215,540 L 1215,538 L 1214,537 L 1214,524 L 1215,523 L 1215,521 L 1216,520 Z M 1225,508 L 1226,508 L 1227,507 L 1228,507 L 1230,505 L 1232,505 L 1233,504 L 1235,504 L 1236,503 L 1247,503 L 1248,504 L 1250,504 L 1251,505 L 1253,505 L 1254,506 L 1255,506 L 1257,508 L 1258,508 L 1265,515 L 1265,516 L 1267,518 L 1267,520 L 1268,521 L 1268,523 L 1269,524 L 1269,530 L 1270,531 L 1270,533 L 1269,534 L 1269,538 L 1268,539 L 1268,540 L 1267,541 L 1267,543 L 1265,545 L 1265,546 L 1259,552 L 1258,552 L 1257,553 L 1256,552 L 1255,552 L 1254,551 L 1257,548 L 1258,548 L 1261,545 L 1261,544 L 1263,542 L 1263,541 L 1264,540 L 1264,538 L 1265,537 L 1265,524 L 1264,523 L 1264,521 L 1263,520 L 1263,519 L 1262,518 L 1262,517 L 1254,509 L 1253,509 L 1252,508 L 1251,508 L 1250,507 L 1247,507 L 1246,506 L 1238,506 L 1237,507 L 1234,507 L 1233,508 L 1232,508 L 1231,509 L 1230,509 L 1228,511 L 1227,511 L 1221,517 L 1221,518 L 1219,520 L 1217,518 L 1217,517 L 1218,516 L 1218,515 Z M 1262,502 L 1264,500 L 1265,501 L 1266,501 L 1267,502 L 1269,502 L 1271,500 L 1273,502 L 1273,507 L 1272,508 L 1271,508 L 1270,509 L 1269,509 L 1268,508 L 1269,507 L 1266,507 L 1267,508 L 1266,509 L 1265,509 L 1262,506 Z M 1212,499 L 1213,499 L 1214,498 L 1217,498 L 1218,499 L 1217,500 L 1215,500 L 1218,500 L 1219,499 L 1222,502 L 1222,505 L 1221,506 L 1221,507 L 1219,509 L 1213,509 L 1210,506 L 1210,502 L 1211,501 L 1211,500 Z M 1245,490 L 1247,492 L 1247,496 L 1244,499 L 1239,499 L 1236,496 L 1236,492 L 1237,491 L 1238,492 L 1239,491 L 1241,491 L 1242,492 L 1243,491 L 1244,491 Z M 1224,484 L 1225,483 L 1229,483 L 1230,482 L 1239,482 L 1240,483 L 1239,484 L 1236,484 L 1235,485 L 1231,485 L 1230,486 L 1227,486 L 1226,485 L 1225,485 Z" fill="black" fill-rule="evenodd"/>
<path d="M 1901,387 L 1858,308 L 1746,301 L 1742,290 L 1611,294 L 1605,283 L 1513,278 L 1497,288 L 1440,286 L 1420,242 L 1362,247 L 1350,223 L 1347,35 L 1338,35 L 1329,230 L 1279,135 L 1213,127 L 1201,89 L 1105,89 L 1093,127 L 1039,122 L 925,140 L 887,169 L 341,181 L 297,169 L 268,182 L 274,208 L 341,198 L 886,207 L 897,223 L 908,161 L 900,227 L 917,247 L 730,247 L 711,260 L 701,294 L 497,346 L 482,276 L 471,351 L 428,336 L 424,371 L 369,439 L 398,459 L 416,431 L 401,469 L 437,472 L 476,435 L 442,473 L 416,476 L 463,503 L 458,550 L 482,605 L 515,635 L 564,653 L 624,646 L 671,615 L 701,566 L 706,501 L 708,540 L 775,540 L 784,483 L 780,554 L 810,613 L 875,651 L 939,648 L 986,620 L 1018,574 L 1027,522 L 1018,484 L 1029,540 L 1115,540 L 1125,482 L 1125,572 L 1151,616 L 1200,647 L 1246,654 L 1301,638 L 1350,588 L 1361,538 L 1432,540 L 1436,500 L 1440,567 L 1475,622 L 1520,648 L 1581,652 L 1633,628 L 1660,599 L 1680,552 L 1680,503 L 1685,540 L 1719,540 L 1763,515 L 1785,486 L 1714,485 L 1701,470 L 1713,482 L 1793,482 L 1828,451 L 1836,458 L 1807,474 L 1840,497 L 1846,482 L 1828,469 Z M 1556,561 L 1561,561 L 1564,564 L 1564,569 L 1562,571 L 1561,571 L 1560,572 L 1557,572 L 1556,571 L 1555,571 L 1554,570 L 1555,569 L 1555,568 L 1555,569 L 1554,570 L 1553,569 L 1553,564 Z M 896,565 L 897,564 L 897,563 L 898,562 L 899,562 L 900,561 L 905,561 L 908,564 L 908,569 L 906,571 L 905,571 L 904,570 L 900,570 L 899,571 L 896,568 Z M 579,561 L 584,561 L 587,564 L 587,569 L 585,571 L 584,571 L 583,572 L 579,572 L 576,569 L 576,564 Z M 574,556 L 575,555 L 576,555 L 577,554 L 586,554 L 587,555 L 588,555 L 589,556 L 588,557 L 584,557 L 583,558 L 581,558 L 580,557 L 575,557 Z M 1582,551 L 1587,551 L 1590,554 L 1590,558 L 1589,559 L 1589,560 L 1587,562 L 1582,562 L 1579,559 L 1579,554 Z M 1530,551 L 1535,551 L 1538,554 L 1538,558 L 1537,559 L 1537,560 L 1536,561 L 1535,561 L 1534,560 L 1535,561 L 1534,562 L 1530,562 L 1529,561 L 1530,560 L 1531,560 L 1530,560 L 1529,559 L 1529,558 L 1529,559 L 1528,560 L 1527,559 L 1527,554 Z M 926,551 L 930,551 L 931,552 L 930,553 L 927,553 L 927,554 L 929,554 L 931,552 L 932,552 L 933,553 L 933,554 L 934,555 L 934,558 L 933,559 L 933,560 L 932,561 L 931,561 L 930,560 L 926,560 L 925,561 L 924,561 L 923,560 L 923,558 L 922,557 L 922,556 L 923,555 L 923,554 Z M 874,551 L 878,551 L 879,552 L 878,553 L 875,553 L 876,554 L 877,554 L 879,552 L 880,552 L 881,553 L 881,554 L 882,555 L 882,558 L 879,561 L 878,560 L 874,560 L 873,561 L 870,558 L 870,555 Z M 605,551 L 610,551 L 612,553 L 611,554 L 612,553 L 613,554 L 613,559 L 610,562 L 605,562 L 603,560 L 603,559 L 602,558 L 602,555 L 603,554 L 603,553 Z M 553,551 L 558,551 L 561,554 L 561,559 L 558,562 L 553,562 L 550,559 L 550,558 L 549,557 L 549,556 L 550,555 L 550,554 Z M 605,544 L 605,545 L 604,546 L 603,545 L 604,546 L 603,547 L 603,548 L 600,551 L 599,551 L 596,554 L 595,554 L 594,553 L 593,553 L 592,554 L 591,554 L 592,554 L 593,555 L 592,556 L 590,556 L 589,555 L 587,555 L 586,554 L 587,553 L 589,553 L 590,552 L 591,552 L 592,551 L 593,551 L 594,550 L 595,550 L 597,548 L 598,548 L 601,545 L 601,544 L 603,542 Z M 1598,525 L 1600,527 L 1600,528 L 1601,529 L 1601,531 L 1600,532 L 1600,533 L 1598,535 L 1597,535 L 1596,536 L 1593,536 L 1589,532 L 1589,529 L 1590,528 L 1590,527 L 1591,526 L 1592,527 L 1596,527 L 1596,526 L 1597,525 Z M 1517,527 L 1519,525 L 1520,525 L 1521,526 L 1521,527 L 1525,527 L 1526,526 L 1527,527 L 1527,528 L 1528,529 L 1528,531 L 1527,532 L 1527,533 L 1526,534 L 1525,533 L 1522,533 L 1522,534 L 1523,535 L 1522,536 L 1521,536 L 1520,535 L 1519,535 L 1517,533 L 1517,532 L 1516,531 L 1516,529 L 1517,528 Z M 936,525 L 941,525 L 944,528 L 944,529 L 945,530 L 944,531 L 944,532 L 943,533 L 943,534 L 942,535 L 940,535 L 939,536 L 938,536 L 937,535 L 936,535 L 933,532 L 933,529 L 934,528 L 934,527 Z M 615,525 L 616,525 L 617,526 L 616,527 L 621,527 L 622,526 L 623,527 L 623,528 L 624,529 L 624,531 L 623,532 L 623,533 L 621,535 L 619,533 L 616,533 L 616,534 L 615,535 L 613,533 L 613,532 L 612,531 L 612,529 L 613,528 L 613,527 Z M 864,524 L 867,524 L 871,528 L 871,532 L 868,535 L 867,535 L 866,536 L 864,536 L 863,535 L 862,535 L 860,533 L 860,532 L 859,531 L 859,529 L 860,528 L 860,527 L 861,526 L 862,527 L 862,528 L 864,526 L 865,526 L 864,526 L 863,525 Z M 543,524 L 546,524 L 548,526 L 547,527 L 545,527 L 547,527 L 548,526 L 550,528 L 550,532 L 546,536 L 543,536 L 542,535 L 541,535 L 540,534 L 540,533 L 539,532 L 539,531 L 538,530 L 539,529 L 539,527 L 541,525 L 542,525 Z M 1545,506 L 1546,506 L 1548,508 L 1546,510 L 1545,510 L 1539,516 L 1539,517 L 1537,519 L 1537,520 L 1536,521 L 1536,523 L 1535,524 L 1535,528 L 1534,529 L 1534,533 L 1535,534 L 1535,537 L 1536,538 L 1536,540 L 1537,541 L 1537,542 L 1539,544 L 1539,545 L 1542,548 L 1543,548 L 1546,551 L 1547,551 L 1548,552 L 1549,552 L 1550,553 L 1553,553 L 1554,554 L 1563,554 L 1564,555 L 1565,555 L 1566,556 L 1565,557 L 1552,557 L 1551,556 L 1549,556 L 1548,555 L 1546,555 L 1545,554 L 1544,554 L 1542,552 L 1541,552 L 1537,548 L 1537,547 L 1535,545 L 1535,544 L 1534,543 L 1534,542 L 1533,541 L 1533,540 L 1532,539 L 1532,536 L 1531,535 L 1531,526 L 1532,525 L 1532,522 L 1533,521 L 1534,522 L 1533,521 L 1533,519 L 1534,518 L 1534,517 L 1535,516 L 1535,515 L 1540,510 L 1541,511 L 1542,510 L 1541,509 L 1542,508 L 1543,508 Z M 1547,505 L 1549,505 L 1550,504 L 1552,504 L 1553,503 L 1563,503 L 1564,504 L 1566,504 L 1567,505 L 1569,505 L 1570,506 L 1571,506 L 1572,507 L 1573,507 L 1574,508 L 1575,508 L 1580,513 L 1580,514 L 1582,516 L 1582,517 L 1583,518 L 1583,519 L 1584,520 L 1584,521 L 1585,522 L 1585,526 L 1586,527 L 1586,535 L 1585,536 L 1585,539 L 1584,540 L 1584,541 L 1583,542 L 1583,543 L 1582,544 L 1582,545 L 1574,553 L 1573,553 L 1572,554 L 1571,554 L 1569,552 L 1571,550 L 1572,550 L 1574,548 L 1575,548 L 1578,545 L 1578,544 L 1579,543 L 1579,542 L 1580,541 L 1580,540 L 1581,539 L 1581,538 L 1582,537 L 1582,531 L 1583,530 L 1583,529 L 1582,528 L 1582,524 L 1581,523 L 1581,521 L 1580,520 L 1580,519 L 1578,517 L 1578,516 L 1572,510 L 1571,510 L 1570,509 L 1569,509 L 1568,508 L 1566,508 L 1565,507 L 1563,507 L 1562,506 L 1554,506 L 1553,507 L 1551,507 L 1550,508 L 1549,508 L 1548,507 L 1547,507 L 1546,506 Z M 897,503 L 907,503 L 908,504 L 911,504 L 912,505 L 913,505 L 914,506 L 915,506 L 916,507 L 917,507 L 919,509 L 920,509 L 925,514 L 925,515 L 926,516 L 926,517 L 927,518 L 927,519 L 928,520 L 928,521 L 929,522 L 929,525 L 930,526 L 930,535 L 929,536 L 929,538 L 928,539 L 928,541 L 927,542 L 927,543 L 926,544 L 926,545 L 917,554 L 916,554 L 915,555 L 913,555 L 912,556 L 910,556 L 909,557 L 905,557 L 904,558 L 901,558 L 900,557 L 895,557 L 894,556 L 892,556 L 891,555 L 890,555 L 889,554 L 888,554 L 886,552 L 885,552 L 878,545 L 878,544 L 877,543 L 877,542 L 876,541 L 876,539 L 875,538 L 875,535 L 874,534 L 874,526 L 875,525 L 875,522 L 876,521 L 876,520 L 877,519 L 877,518 L 878,517 L 878,516 L 882,512 L 882,511 L 883,510 L 884,510 L 887,507 L 888,507 L 889,508 L 888,507 L 889,506 L 890,506 L 891,505 L 892,505 L 893,504 L 896,504 Z M 595,506 L 597,508 L 598,508 L 599,509 L 598,510 L 599,511 L 600,510 L 604,514 L 604,515 L 606,517 L 606,518 L 607,519 L 607,521 L 608,522 L 608,525 L 609,526 L 609,536 L 608,537 L 608,539 L 607,540 L 607,541 L 606,542 L 606,543 L 605,544 L 603,542 L 603,541 L 604,540 L 604,538 L 605,537 L 605,532 L 606,531 L 606,530 L 605,529 L 605,524 L 604,523 L 604,521 L 603,520 L 603,519 L 602,518 L 602,517 L 595,510 L 594,510 L 591,508 L 589,508 L 588,507 L 586,507 L 585,506 L 578,506 L 577,507 L 574,507 L 573,508 L 572,508 L 571,509 L 570,509 L 569,510 L 568,510 L 565,513 L 564,513 L 563,514 L 563,515 L 561,517 L 561,518 L 559,521 L 559,523 L 558,524 L 558,527 L 557,528 L 557,533 L 558,534 L 558,537 L 559,538 L 559,540 L 560,541 L 560,542 L 562,544 L 562,545 L 566,549 L 567,549 L 568,550 L 569,550 L 571,552 L 570,553 L 571,554 L 570,555 L 569,555 L 568,554 L 567,554 L 565,552 L 564,552 L 558,546 L 558,545 L 557,544 L 557,543 L 555,541 L 555,539 L 554,538 L 554,535 L 553,534 L 553,527 L 554,526 L 554,522 L 555,521 L 555,520 L 556,519 L 556,518 L 557,517 L 557,516 L 560,513 L 560,512 L 562,510 L 563,510 L 566,507 L 567,507 L 568,506 L 569,506 L 570,507 L 569,506 L 572,504 L 574,504 L 575,505 L 576,505 L 575,505 L 574,504 L 575,503 L 587,503 L 588,504 L 590,504 L 591,505 L 593,505 L 594,506 L 593,507 L 594,506 Z M 925,499 L 931,499 L 934,502 L 934,506 L 931,509 L 929,509 L 928,508 L 929,507 L 926,507 L 927,508 L 926,509 L 925,509 L 923,507 L 923,506 L 922,505 L 922,502 Z M 870,502 L 871,501 L 872,502 L 873,501 L 872,500 L 873,499 L 874,499 L 876,501 L 879,501 L 880,500 L 882,502 L 882,506 L 879,509 L 873,509 L 871,507 L 871,506 L 870,505 Z M 605,499 L 610,499 L 611,500 L 610,501 L 611,502 L 611,506 L 610,507 L 611,508 L 610,509 L 605,509 L 602,506 L 602,503 L 603,502 L 603,501 Z M 1583,498 L 1585,498 L 1586,499 L 1587,499 L 1590,502 L 1590,506 L 1587,509 L 1586,509 L 1585,510 L 1584,510 L 1583,509 L 1581,509 L 1579,507 L 1579,505 L 1578,504 L 1579,503 L 1579,501 L 1581,499 L 1582,499 Z M 1528,500 L 1529,499 L 1530,499 L 1531,498 L 1534,498 L 1535,499 L 1536,499 L 1538,501 L 1538,507 L 1537,508 L 1536,508 L 1535,509 L 1530,509 L 1527,506 L 1527,502 L 1528,501 L 1529,502 L 1530,501 L 1529,502 L 1528,501 Z M 554,498 L 557,498 L 558,499 L 559,499 L 561,501 L 561,502 L 562,503 L 562,505 L 558,509 L 553,509 L 550,506 L 550,505 L 549,504 L 549,503 L 550,502 L 550,501 L 552,499 L 553,499 Z M 896,493 L 897,492 L 897,491 L 898,490 L 899,491 L 905,491 L 906,490 L 908,492 L 908,496 L 905,499 L 899,499 L 896,496 Z M 1557,488 L 1560,488 L 1562,490 L 1561,491 L 1562,490 L 1564,492 L 1564,496 L 1561,499 L 1556,499 L 1553,496 L 1553,492 L 1554,491 L 1555,492 L 1556,491 L 1555,492 L 1554,491 L 1554,490 L 1555,489 L 1556,489 Z M 582,488 L 583,489 L 584,489 L 585,490 L 584,491 L 585,492 L 586,491 L 587,492 L 587,496 L 584,499 L 582,499 L 581,500 L 580,499 L 579,499 L 576,496 L 576,492 L 578,490 L 579,491 L 578,490 L 579,489 L 580,489 L 581,488 Z M 465,484 L 466,485 L 466,486 L 465,487 L 465,489 L 464,490 L 464,491 L 463,492 L 463,494 L 462,495 L 462,497 L 463,497 L 464,498 L 464,502 L 463,503 L 462,502 L 462,499 L 462,500 L 461,501 L 459,501 L 458,500 L 458,499 L 457,498 L 457,494 L 458,493 L 458,491 L 459,490 L 459,489 L 460,488 L 460,487 L 461,486 L 461,485 L 462,484 L 463,485 L 464,484 Z M 1563,484 L 1564,483 L 1571,483 L 1572,484 L 1575,484 L 1577,486 L 1576,487 L 1575,487 L 1574,486 L 1570,486 L 1569,485 L 1564,485 Z M 1358,483 L 1359,484 L 1360,484 L 1361,485 L 1360,486 L 1361,485 L 1362,486 L 1362,487 L 1363,488 L 1363,489 L 1364,490 L 1364,493 L 1365,494 L 1365,497 L 1364,498 L 1364,499 L 1361,502 L 1360,501 L 1360,502 L 1362,502 L 1362,501 L 1363,500 L 1364,500 L 1365,501 L 1364,502 L 1365,501 L 1366,502 L 1366,503 L 1367,504 L 1367,507 L 1368,508 L 1368,514 L 1369,515 L 1369,516 L 1367,518 L 1367,520 L 1368,521 L 1367,522 L 1364,522 L 1366,522 L 1367,523 L 1367,522 L 1368,521 L 1369,522 L 1369,537 L 1368,538 L 1367,537 L 1365,537 L 1364,536 L 1365,535 L 1365,525 L 1364,524 L 1363,524 L 1361,522 L 1361,517 L 1362,516 L 1363,516 L 1364,515 L 1364,511 L 1363,510 L 1363,506 L 1362,505 L 1362,504 L 1359,504 L 1358,503 L 1358,499 L 1360,497 L 1360,495 L 1359,494 L 1359,491 L 1358,490 L 1358,488 L 1357,487 L 1357,486 L 1356,485 Z M 890,484 L 890,483 L 891,482 L 899,482 L 900,483 L 899,484 L 896,484 L 895,485 L 891,485 Z M 1833,481 L 1836,481 L 1838,483 L 1838,484 L 1839,485 L 1839,486 L 1837,488 L 1836,487 L 1834,487 L 1831,484 L 1831,483 Z M 1669,479 L 1670,479 L 1671,480 L 1670,481 L 1670,482 L 1671,483 L 1673,483 L 1673,481 L 1675,479 L 1676,480 L 1676,481 L 1675,482 L 1675,483 L 1676,484 L 1677,484 L 1678,485 L 1678,487 L 1679,488 L 1679,489 L 1680,490 L 1680,492 L 1681,493 L 1681,497 L 1680,498 L 1680,500 L 1682,500 L 1683,501 L 1683,502 L 1682,503 L 1681,502 L 1679,502 L 1678,503 L 1677,503 L 1676,504 L 1675,503 L 1675,501 L 1674,500 L 1674,498 L 1675,497 L 1676,497 L 1676,494 L 1675,493 L 1675,491 L 1674,490 L 1674,488 L 1673,487 L 1673,486 L 1672,485 L 1670,485 L 1668,483 L 1668,480 Z M 1549,473 L 1567,473 L 1568,474 L 1572,474 L 1579,477 L 1577,478 L 1579,477 L 1583,478 L 1584,479 L 1582,480 L 1586,483 L 1584,484 L 1572,478 L 1568,478 L 1567,477 L 1552,477 L 1540,480 L 1537,483 L 1538,484 L 1550,483 L 1551,482 L 1553,484 L 1540,487 L 1531,492 L 1520,503 L 1515,512 L 1512,522 L 1513,542 L 1517,551 L 1516,554 L 1517,555 L 1518,554 L 1522,560 L 1533,570 L 1548,576 L 1564,577 L 1578,573 L 1586,568 L 1596,558 L 1602,547 L 1603,543 L 1604,542 L 1605,543 L 1604,542 L 1605,524 L 1602,513 L 1597,503 L 1586,492 L 1590,485 L 1592,486 L 1594,485 L 1605,496 L 1613,511 L 1616,522 L 1616,537 L 1614,546 L 1611,554 L 1605,564 L 1594,575 L 1587,580 L 1579,584 L 1569,587 L 1548,587 L 1533,582 L 1525,577 L 1517,570 L 1510,561 L 1504,549 L 1501,537 L 1502,517 L 1504,511 L 1513,495 L 1524,484 L 1526,485 L 1525,484 L 1527,482 L 1529,483 L 1528,484 L 1530,483 L 1528,482 L 1532,479 L 1536,480 L 1533,479 Z M 1233,473 L 1250,473 L 1251,474 L 1255,474 L 1256,475 L 1261,476 L 1264,478 L 1266,478 L 1268,480 L 1273,482 L 1275,484 L 1274,485 L 1275,484 L 1276,485 L 1277,485 L 1279,487 L 1278,488 L 1279,487 L 1286,494 L 1286,495 L 1287,496 L 1286,497 L 1287,498 L 1288,497 L 1291,501 L 1291,502 L 1296,511 L 1296,514 L 1297,515 L 1297,517 L 1298,518 L 1298,523 L 1299,524 L 1299,537 L 1298,538 L 1298,543 L 1297,544 L 1297,546 L 1296,547 L 1295,552 L 1294,553 L 1293,556 L 1291,558 L 1290,561 L 1287,564 L 1287,565 L 1283,569 L 1283,570 L 1282,571 L 1281,571 L 1276,576 L 1275,576 L 1270,580 L 1269,580 L 1264,583 L 1262,583 L 1259,585 L 1256,585 L 1255,586 L 1252,586 L 1251,587 L 1232,587 L 1231,586 L 1228,586 L 1227,585 L 1225,585 L 1224,584 L 1225,583 L 1224,584 L 1222,584 L 1221,583 L 1219,583 L 1218,582 L 1213,580 L 1211,578 L 1212,577 L 1212,576 L 1213,575 L 1214,575 L 1214,573 L 1215,572 L 1216,572 L 1215,572 L 1214,573 L 1210,573 L 1209,574 L 1208,574 L 1205,572 L 1204,573 L 1202,571 L 1203,570 L 1202,569 L 1201,570 L 1195,564 L 1195,563 L 1193,561 L 1193,560 L 1194,559 L 1193,560 L 1192,559 L 1192,558 L 1193,557 L 1192,558 L 1190,556 L 1190,554 L 1188,551 L 1188,549 L 1187,548 L 1187,546 L 1186,545 L 1186,542 L 1185,541 L 1185,537 L 1184,536 L 1184,524 L 1185,523 L 1185,519 L 1186,518 L 1186,515 L 1187,514 L 1187,512 L 1188,511 L 1189,506 L 1190,505 L 1191,502 L 1195,497 L 1195,496 L 1197,494 L 1198,495 L 1199,494 L 1198,493 L 1201,490 L 1202,491 L 1203,490 L 1204,491 L 1205,491 L 1205,490 L 1203,490 L 1202,489 L 1206,485 L 1207,485 L 1208,484 L 1209,485 L 1208,484 L 1210,482 L 1213,481 L 1215,479 L 1216,479 L 1219,477 L 1221,477 L 1222,476 L 1224,476 L 1225,475 L 1227,475 L 1228,474 L 1232,474 Z M 893,473 L 915,474 L 922,476 L 932,481 L 934,483 L 933,484 L 935,483 L 946,493 L 948,496 L 947,497 L 948,496 L 952,501 L 959,519 L 959,524 L 960,525 L 959,541 L 956,551 L 950,562 L 948,564 L 947,563 L 948,564 L 947,566 L 935,577 L 934,576 L 931,580 L 922,584 L 919,583 L 920,584 L 919,585 L 912,587 L 888,586 L 877,582 L 870,577 L 871,576 L 869,577 L 868,576 L 869,575 L 868,576 L 866,575 L 857,566 L 858,564 L 857,563 L 856,564 L 853,560 L 848,550 L 845,540 L 844,528 L 845,527 L 846,516 L 848,512 L 849,514 L 850,511 L 849,513 L 848,510 L 855,497 L 858,496 L 857,494 L 865,486 L 867,487 L 868,486 L 870,488 L 870,491 L 885,484 L 887,486 L 886,487 L 884,487 L 875,492 L 865,501 L 857,516 L 855,524 L 856,540 L 859,549 L 865,559 L 873,567 L 885,574 L 897,577 L 907,577 L 924,572 L 934,565 L 941,557 L 946,547 L 949,536 L 949,524 L 947,515 L 942,505 L 932,494 L 917,486 L 906,484 L 905,483 L 907,482 L 907,480 L 905,478 L 888,479 L 875,484 L 870,488 L 867,485 L 874,480 L 878,481 L 875,480 L 882,476 Z M 573,473 L 595,474 L 607,479 L 604,480 L 602,479 L 604,480 L 608,479 L 612,482 L 610,483 L 612,482 L 615,484 L 614,485 L 615,486 L 616,485 L 618,486 L 626,494 L 631,501 L 635,509 L 639,525 L 639,535 L 637,545 L 631,559 L 629,561 L 628,560 L 629,562 L 617,575 L 615,576 L 614,575 L 615,576 L 610,580 L 599,585 L 591,587 L 571,587 L 556,582 L 549,578 L 535,565 L 527,551 L 523,536 L 524,519 L 527,509 L 532,499 L 538,492 L 539,493 L 538,492 L 545,485 L 552,481 L 553,482 L 552,483 L 554,484 L 552,486 L 549,485 L 551,486 L 546,492 L 546,496 L 547,495 L 548,497 L 542,504 L 538,511 L 535,520 L 535,527 L 534,528 L 535,540 L 540,553 L 544,559 L 556,570 L 564,574 L 575,577 L 587,577 L 599,574 L 608,569 L 617,561 L 624,550 L 628,536 L 628,523 L 625,512 L 620,503 L 610,493 L 599,487 L 593,485 L 587,485 L 584,483 L 589,482 L 590,483 L 603,484 L 602,481 L 596,478 L 597,477 L 596,478 L 575,477 L 566,479 L 555,484 L 552,481 L 555,479 L 559,480 L 556,479 L 561,476 Z M 1666,469 L 1669,469 L 1670,468 L 1671,469 L 1671,470 L 1672,471 L 1672,472 L 1673,473 L 1673,474 L 1674,475 L 1674,476 L 1675,477 L 1675,479 L 1673,481 L 1672,480 L 1671,480 L 1670,479 L 1670,477 L 1668,475 L 1668,474 L 1667,473 L 1667,472 L 1665,470 Z M 1447,468 L 1448,469 L 1450,469 L 1451,470 L 1450,471 L 1450,472 L 1449,473 L 1449,474 L 1448,475 L 1448,476 L 1447,477 L 1447,478 L 1449,480 L 1449,481 L 1448,482 L 1448,484 L 1447,485 L 1444,485 L 1444,486 L 1443,487 L 1443,489 L 1442,490 L 1442,491 L 1441,492 L 1441,494 L 1440,495 L 1440,496 L 1442,498 L 1442,502 L 1441,503 L 1439,501 L 1437,501 L 1436,500 L 1436,499 L 1435,498 L 1435,493 L 1436,492 L 1436,490 L 1437,489 L 1437,487 L 1438,486 L 1438,485 L 1440,483 L 1441,483 L 1441,481 L 1440,480 L 1441,479 L 1441,478 L 1442,477 L 1442,476 L 1443,475 L 1443,474 L 1444,473 L 1444,472 L 1445,471 L 1445,470 Z M 693,468 L 695,470 L 695,471 L 696,472 L 696,473 L 697,474 L 697,476 L 699,478 L 699,483 L 700,483 L 702,485 L 702,487 L 703,488 L 703,489 L 704,490 L 704,492 L 705,493 L 705,497 L 704,498 L 704,500 L 703,501 L 702,501 L 701,502 L 700,502 L 702,502 L 703,503 L 702,504 L 699,504 L 698,503 L 698,500 L 697,499 L 699,497 L 700,497 L 700,495 L 699,494 L 699,492 L 698,491 L 698,489 L 697,488 L 697,487 L 696,486 L 696,485 L 693,485 L 692,484 L 692,483 L 691,482 L 691,480 L 692,479 L 693,479 L 693,477 L 692,476 L 692,475 L 691,474 L 691,473 L 690,472 L 690,471 L 689,470 L 690,469 L 692,469 Z M 470,467 L 471,468 L 473,468 L 474,469 L 472,471 L 472,472 L 471,473 L 471,474 L 470,475 L 470,476 L 469,477 L 469,479 L 470,479 L 471,480 L 471,481 L 470,482 L 470,484 L 469,485 L 466,485 L 465,484 L 464,484 L 463,483 L 464,482 L 463,481 L 463,479 L 464,478 L 464,477 L 465,476 L 466,477 L 465,476 L 465,474 L 466,473 L 466,472 L 468,470 L 468,469 Z M 794,462 L 795,463 L 795,467 L 796,467 L 797,468 L 793,472 L 793,473 L 792,474 L 792,475 L 791,476 L 791,479 L 792,479 L 793,480 L 792,481 L 792,483 L 790,485 L 788,485 L 787,484 L 788,483 L 789,483 L 787,483 L 785,481 L 785,478 L 786,477 L 786,476 L 787,475 L 787,474 L 788,473 L 788,472 L 789,471 L 789,470 L 790,469 L 790,468 L 791,467 L 792,467 L 793,466 L 793,463 Z M 1681,452 L 1682,451 L 1683,452 L 1684,451 L 1688,455 L 1688,456 L 1697,465 L 1697,466 L 1700,469 L 1698,471 L 1690,463 L 1690,462 L 1681,453 Z M 1657,449 L 1660,452 L 1660,453 L 1662,455 L 1662,456 L 1663,457 L 1662,458 L 1663,457 L 1665,459 L 1665,460 L 1667,462 L 1667,466 L 1668,467 L 1669,467 L 1670,468 L 1669,469 L 1666,469 L 1665,470 L 1662,470 L 1661,469 L 1661,468 L 1659,466 L 1660,465 L 1661,465 L 1661,462 L 1659,460 L 1659,459 L 1656,456 L 1656,455 L 1655,454 L 1654,454 L 1653,453 L 1654,452 L 1655,452 L 1655,451 Z M 680,448 L 684,452 L 684,453 L 686,455 L 686,456 L 689,459 L 689,460 L 691,462 L 691,464 L 690,465 L 690,467 L 689,468 L 690,469 L 689,470 L 688,470 L 687,471 L 686,471 L 685,470 L 685,469 L 683,467 L 685,465 L 685,463 L 684,462 L 684,461 L 682,459 L 682,458 L 680,456 L 680,455 L 679,454 L 677,454 L 676,453 L 677,452 L 678,452 L 678,451 L 679,450 L 679,449 Z M 1162,433 L 1163,434 L 1163,436 L 1164,437 L 1164,438 L 1161,441 L 1160,441 L 1159,440 L 1158,440 L 1157,441 L 1156,441 L 1155,440 L 1156,439 L 1154,441 L 1155,442 L 1152,445 L 1152,446 L 1150,448 L 1150,450 L 1151,451 L 1148,454 L 1146,454 L 1144,452 L 1145,453 L 1144,454 L 1144,455 L 1141,458 L 1141,459 L 1139,461 L 1139,464 L 1138,465 L 1137,464 L 1136,464 L 1135,465 L 1135,466 L 1136,466 L 1137,467 L 1138,466 L 1139,467 L 1139,468 L 1137,470 L 1134,470 L 1133,471 L 1133,472 L 1132,473 L 1132,474 L 1131,475 L 1131,476 L 1130,477 L 1130,478 L 1131,479 L 1132,479 L 1133,480 L 1132,481 L 1132,482 L 1131,483 L 1131,484 L 1130,485 L 1129,484 L 1129,483 L 1128,483 L 1127,482 L 1127,481 L 1128,480 L 1128,479 L 1127,479 L 1125,481 L 1124,480 L 1124,478 L 1125,477 L 1125,476 L 1126,475 L 1126,474 L 1127,473 L 1127,472 L 1128,471 L 1128,470 L 1129,469 L 1129,468 L 1130,467 L 1131,467 L 1131,465 L 1132,464 L 1132,463 L 1134,461 L 1134,460 L 1136,458 L 1136,457 L 1138,455 L 1138,454 L 1143,449 L 1143,448 L 1147,444 L 1147,443 L 1155,435 L 1156,435 L 1157,434 L 1158,434 L 1158,433 L 1159,432 L 1160,433 Z M 1666,431 L 1672,437 L 1672,438 L 1680,446 L 1680,447 L 1682,449 L 1680,451 L 1672,443 L 1672,442 L 1664,434 L 1664,433 Z M 1857,434 L 1854,437 L 1853,437 L 1852,436 L 1850,436 L 1852,438 L 1849,441 L 1848,440 L 1846,440 L 1845,439 L 1844,439 L 1845,440 L 1846,440 L 1848,442 L 1845,445 L 1844,445 L 1843,444 L 1841,444 L 1843,444 L 1844,445 L 1838,451 L 1836,451 L 1832,447 L 1835,444 L 1836,444 L 1843,437 L 1844,437 L 1850,431 L 1851,431 L 1852,430 L 1853,431 L 1853,433 L 1856,433 Z M 483,423 L 485,425 L 484,426 L 484,427 L 477,434 L 475,432 L 476,431 L 476,430 Z M 514,421 L 517,424 L 516,425 L 516,427 L 517,428 L 515,430 L 514,430 L 513,431 L 512,431 L 511,430 L 511,429 L 510,429 L 509,430 L 508,430 L 505,433 L 504,433 L 503,432 L 504,433 L 503,434 L 503,436 L 504,437 L 504,438 L 501,441 L 500,440 L 500,439 L 499,439 L 498,440 L 497,440 L 494,443 L 493,443 L 493,444 L 489,448 L 489,450 L 490,451 L 487,454 L 483,454 L 483,455 L 480,458 L 480,459 L 478,461 L 478,464 L 479,465 L 479,466 L 478,467 L 478,468 L 476,470 L 475,470 L 474,469 L 476,467 L 475,468 L 474,467 L 473,467 L 472,466 L 472,465 L 471,464 L 471,463 L 473,461 L 473,460 L 475,458 L 475,457 L 478,454 L 478,453 L 483,448 L 484,449 L 485,449 L 486,450 L 485,451 L 486,451 L 487,450 L 487,449 L 486,449 L 484,447 L 485,446 L 485,445 L 488,442 L 489,443 L 488,442 L 496,434 L 497,434 L 498,435 L 497,436 L 498,437 L 500,437 L 500,435 L 498,433 L 503,428 L 504,428 L 507,425 L 509,425 L 510,426 L 510,427 L 511,427 L 512,426 L 510,424 L 513,421 Z M 1179,420 L 1178,421 L 1178,422 L 1179,423 L 1177,425 L 1177,427 L 1178,428 L 1177,429 L 1176,429 L 1175,428 L 1176,429 L 1175,430 L 1173,430 L 1172,429 L 1170,429 L 1168,431 L 1167,431 L 1164,434 L 1163,434 L 1162,433 L 1160,433 L 1159,432 L 1164,427 L 1165,427 L 1167,425 L 1168,425 L 1170,423 L 1171,423 L 1172,422 L 1173,422 L 1174,423 L 1175,423 L 1174,423 L 1173,422 L 1175,420 L 1176,420 L 1177,419 L 1178,419 Z M 1157,418 L 1156,419 L 1156,420 L 1149,427 L 1149,428 L 1140,437 L 1140,438 L 1126,452 L 1126,453 L 1123,456 L 1122,455 L 1120,457 L 1121,458 L 1118,461 L 1118,462 L 1109,471 L 1109,472 L 1102,479 L 1102,480 L 1099,483 L 1098,483 L 1097,484 L 1094,484 L 1093,485 L 1050,485 L 1049,484 L 1047,484 L 1038,475 L 1038,474 L 1029,465 L 1029,464 L 1025,460 L 1027,458 L 1035,466 L 1035,467 L 1042,474 L 1042,475 L 1048,481 L 1049,481 L 1050,482 L 1093,482 L 1094,481 L 1096,481 L 1101,476 L 1101,475 L 1110,466 L 1110,465 L 1118,457 L 1118,456 L 1128,446 L 1128,445 L 1138,435 L 1138,434 L 1148,424 L 1148,423 L 1155,416 Z M 987,414 L 993,420 L 993,421 L 1004,432 L 1004,433 L 1014,443 L 1014,444 L 1025,455 L 1025,456 L 1024,457 L 1023,456 L 1022,457 L 1019,454 L 1019,453 L 1009,443 L 1009,442 L 999,432 L 999,431 L 990,422 L 990,421 L 985,416 Z M 811,412 L 813,414 L 807,420 L 807,421 L 803,425 L 802,424 L 803,425 L 791,437 L 791,438 L 787,442 L 785,440 L 786,439 L 786,438 L 800,424 L 800,423 Z M 662,408 L 664,406 L 670,412 L 670,413 L 680,423 L 680,424 L 687,431 L 687,432 L 700,445 L 700,446 L 712,458 L 712,459 L 723,470 L 723,471 L 730,471 L 731,472 L 754,472 L 755,471 L 756,471 L 763,464 L 763,463 L 774,452 L 774,451 L 784,441 L 786,443 L 781,448 L 781,449 L 769,461 L 769,462 L 757,474 L 723,474 L 722,473 L 721,473 L 715,467 L 715,466 L 703,454 L 703,453 L 690,440 L 690,439 L 684,433 L 685,432 L 684,433 L 680,429 L 680,428 L 675,423 L 676,422 L 675,421 L 674,422 L 673,421 L 673,420 L 666,413 L 666,412 Z M 1447,468 L 1449,466 L 1450,461 L 1458,450 L 1471,436 L 1473,435 L 1475,437 L 1478,436 L 1476,435 L 1474,436 L 1473,435 L 1483,426 L 1486,425 L 1489,422 L 1499,417 L 1501,415 L 1506,416 L 1506,414 L 1512,410 L 1514,410 L 1520,407 L 1525,408 L 1528,405 L 1534,404 L 1535,403 L 1540,403 L 1541,402 L 1545,402 L 1546,403 L 1549,402 L 1567,402 L 1569,404 L 1572,402 L 1574,402 L 1575,403 L 1581,403 L 1582,404 L 1589,405 L 1591,408 L 1592,407 L 1596,407 L 1602,410 L 1607,411 L 1610,413 L 1610,415 L 1613,414 L 1624,420 L 1626,422 L 1624,423 L 1626,422 L 1636,428 L 1642,435 L 1644,435 L 1652,443 L 1651,444 L 1652,443 L 1656,447 L 1653,453 L 1654,454 L 1652,455 L 1649,452 L 1651,449 L 1644,441 L 1640,442 L 1635,437 L 1636,434 L 1629,429 L 1624,430 L 1622,428 L 1623,425 L 1620,424 L 1618,422 L 1621,421 L 1617,422 L 1614,420 L 1611,421 L 1606,420 L 1604,418 L 1605,416 L 1599,413 L 1593,412 L 1591,415 L 1585,412 L 1585,409 L 1576,408 L 1575,407 L 1573,407 L 1571,410 L 1565,410 L 1563,406 L 1553,406 L 1550,410 L 1545,410 L 1544,408 L 1542,407 L 1541,408 L 1531,409 L 1531,412 L 1530,413 L 1527,412 L 1529,411 L 1525,412 L 1527,412 L 1528,413 L 1527,414 L 1524,414 L 1523,412 L 1517,413 L 1511,416 L 1511,419 L 1510,420 L 1507,419 L 1508,420 L 1505,422 L 1502,420 L 1496,424 L 1492,423 L 1495,424 L 1493,426 L 1494,428 L 1492,430 L 1490,429 L 1491,430 L 1490,431 L 1486,430 L 1482,433 L 1480,432 L 1482,433 L 1480,435 L 1481,438 L 1479,441 L 1474,440 L 1467,447 L 1467,450 L 1466,451 L 1465,448 L 1462,449 L 1462,451 L 1464,451 L 1466,453 L 1465,454 L 1461,454 L 1459,458 L 1456,461 L 1455,464 L 1456,464 L 1457,466 L 1454,470 L 1451,470 L 1450,469 L 1452,468 L 1449,469 Z M 1178,419 L 1186,414 L 1189,416 L 1190,415 L 1190,413 L 1195,410 L 1200,409 L 1203,407 L 1207,407 L 1209,408 L 1211,405 L 1217,404 L 1218,403 L 1222,403 L 1223,402 L 1229,402 L 1231,404 L 1233,402 L 1235,402 L 1236,401 L 1247,401 L 1248,402 L 1250,402 L 1252,404 L 1255,402 L 1257,402 L 1258,403 L 1263,403 L 1264,404 L 1272,405 L 1274,408 L 1276,407 L 1283,408 L 1286,410 L 1290,411 L 1294,415 L 1296,414 L 1308,420 L 1320,428 L 1325,433 L 1325,435 L 1328,435 L 1338,445 L 1337,446 L 1335,446 L 1337,446 L 1338,445 L 1347,456 L 1351,462 L 1351,464 L 1350,465 L 1351,467 L 1350,468 L 1347,468 L 1350,468 L 1351,467 L 1353,467 L 1359,478 L 1359,481 L 1356,485 L 1354,486 L 1353,485 L 1351,480 L 1353,479 L 1353,477 L 1351,474 L 1351,472 L 1349,470 L 1347,471 L 1344,467 L 1346,465 L 1346,463 L 1339,454 L 1340,452 L 1339,452 L 1340,453 L 1339,454 L 1336,455 L 1333,452 L 1335,449 L 1326,440 L 1323,442 L 1319,438 L 1320,435 L 1317,432 L 1319,430 L 1317,430 L 1318,431 L 1317,432 L 1311,428 L 1308,430 L 1305,428 L 1306,426 L 1305,424 L 1297,420 L 1295,420 L 1294,421 L 1292,421 L 1291,420 L 1292,419 L 1291,420 L 1289,420 L 1288,419 L 1289,417 L 1285,414 L 1286,413 L 1289,413 L 1283,414 L 1282,413 L 1277,412 L 1275,414 L 1271,414 L 1270,413 L 1271,412 L 1274,412 L 1269,413 L 1268,412 L 1269,411 L 1268,409 L 1258,408 L 1257,407 L 1255,408 L 1254,410 L 1249,410 L 1248,409 L 1249,408 L 1252,408 L 1248,408 L 1247,406 L 1236,406 L 1234,410 L 1228,410 L 1226,407 L 1214,409 L 1214,412 L 1211,414 L 1208,414 L 1206,412 L 1204,412 L 1200,414 L 1195,413 L 1197,413 L 1198,414 L 1194,417 L 1194,419 L 1189,422 L 1187,420 L 1185,420 L 1181,422 L 1180,421 L 1181,420 L 1180,421 Z M 794,461 L 806,445 L 811,440 L 812,441 L 811,440 L 815,436 L 816,437 L 815,436 L 820,432 L 821,433 L 820,432 L 824,428 L 832,423 L 834,424 L 832,423 L 834,421 L 837,420 L 839,422 L 837,420 L 845,415 L 850,416 L 851,412 L 864,407 L 869,408 L 871,405 L 879,403 L 884,403 L 885,402 L 892,403 L 893,402 L 906,401 L 907,402 L 911,402 L 913,404 L 917,402 L 918,403 L 929,404 L 932,405 L 935,408 L 936,407 L 940,407 L 952,412 L 954,415 L 957,414 L 979,427 L 985,433 L 985,435 L 988,435 L 992,438 L 998,445 L 997,446 L 998,445 L 1004,451 L 1005,454 L 1012,463 L 1011,467 L 1013,467 L 1015,469 L 1020,479 L 1020,482 L 1018,484 L 1017,483 L 1016,485 L 1014,485 L 1012,483 L 1012,480 L 1014,479 L 1014,477 L 1011,471 L 1007,471 L 1006,470 L 1009,467 L 1008,468 L 1007,467 L 1006,469 L 1005,468 L 1006,463 L 1000,454 L 996,455 L 994,453 L 995,448 L 990,443 L 992,441 L 989,442 L 987,440 L 984,442 L 979,438 L 980,434 L 977,432 L 979,430 L 975,431 L 972,428 L 968,430 L 965,428 L 967,425 L 960,422 L 958,420 L 955,420 L 954,422 L 948,419 L 949,417 L 948,415 L 939,412 L 936,412 L 935,414 L 932,414 L 931,413 L 934,412 L 930,413 L 928,409 L 920,408 L 919,407 L 917,407 L 915,410 L 909,410 L 908,409 L 909,408 L 912,408 L 909,408 L 907,406 L 896,406 L 894,410 L 889,410 L 887,407 L 885,407 L 884,408 L 875,409 L 872,414 L 868,414 L 866,412 L 863,413 L 860,412 L 861,413 L 860,414 L 855,413 L 859,414 L 852,418 L 851,421 L 849,420 L 850,421 L 848,422 L 847,420 L 845,420 L 837,425 L 837,429 L 834,431 L 829,430 L 823,435 L 824,439 L 822,441 L 818,440 L 815,443 L 814,442 L 815,443 L 811,447 L 808,446 L 811,447 L 812,451 L 809,454 L 807,454 L 805,452 L 806,453 L 800,461 L 801,466 L 799,468 L 797,466 L 797,463 L 795,463 Z M 514,421 L 518,418 L 524,415 L 526,415 L 528,416 L 531,412 L 535,410 L 537,410 L 543,407 L 546,407 L 547,408 L 549,408 L 549,407 L 551,405 L 553,405 L 554,404 L 557,404 L 558,403 L 562,403 L 563,402 L 568,402 L 570,404 L 572,402 L 575,402 L 576,401 L 581,401 L 582,402 L 590,402 L 592,404 L 593,404 L 595,402 L 598,402 L 599,403 L 604,403 L 605,404 L 612,405 L 613,407 L 620,407 L 621,408 L 623,408 L 626,410 L 628,410 L 630,411 L 633,414 L 633,415 L 636,414 L 644,418 L 646,420 L 649,421 L 651,423 L 654,424 L 660,429 L 661,429 L 664,432 L 664,435 L 663,436 L 664,436 L 666,434 L 668,435 L 678,445 L 678,446 L 680,448 L 679,449 L 676,449 L 677,452 L 676,453 L 675,452 L 674,453 L 672,451 L 674,450 L 674,448 L 672,446 L 674,444 L 673,445 L 671,443 L 670,444 L 666,440 L 663,442 L 661,440 L 662,439 L 661,440 L 658,437 L 659,436 L 659,434 L 658,433 L 659,432 L 661,432 L 659,432 L 657,433 L 654,430 L 655,429 L 653,430 L 651,428 L 650,428 L 648,430 L 645,428 L 645,424 L 641,422 L 643,420 L 641,422 L 637,420 L 632,421 L 628,419 L 628,416 L 627,415 L 625,415 L 619,412 L 616,412 L 614,414 L 611,414 L 608,412 L 608,409 L 605,409 L 604,408 L 599,408 L 598,407 L 596,407 L 594,410 L 588,410 L 586,406 L 577,406 L 575,407 L 573,410 L 568,410 L 566,407 L 564,407 L 563,408 L 558,408 L 557,409 L 554,409 L 552,413 L 550,412 L 551,411 L 549,412 L 551,413 L 550,414 L 547,414 L 545,412 L 543,412 L 537,415 L 535,415 L 533,417 L 534,419 L 533,420 L 531,420 L 530,419 L 531,420 L 530,421 L 528,420 L 527,421 L 526,420 L 524,420 L 522,421 L 521,420 L 522,421 L 518,424 L 516,423 L 517,422 L 515,422 Z M 1172,397 L 1174,399 L 1171,402 L 1171,403 L 1165,409 L 1165,410 L 1161,414 L 1160,413 L 1159,414 L 1158,413 L 1158,412 L 1164,406 L 1164,405 Z M 1172,396 L 1178,393 L 1315,394 L 1376,462 L 1387,472 L 1417,471 L 1474,409 L 1491,393 L 1630,393 L 1635,396 L 1666,431 L 1664,433 L 1630,396 L 1492,396 L 1479,409 L 1478,408 L 1479,409 L 1418,474 L 1384,474 L 1315,397 L 1177,396 L 1174,399 Z M 813,410 L 815,408 L 815,407 L 828,394 L 829,394 L 830,393 L 967,393 L 969,395 L 970,395 L 975,400 L 975,401 L 983,409 L 983,410 L 986,413 L 984,415 L 981,412 L 981,411 L 973,403 L 973,402 L 967,396 L 831,396 L 830,397 L 829,397 L 821,405 L 821,406 L 815,412 Z M 483,423 L 484,422 L 484,421 L 494,411 L 494,410 L 501,403 L 501,402 L 509,394 L 510,394 L 511,393 L 651,393 L 652,394 L 653,394 L 661,402 L 661,403 L 663,405 L 661,407 L 659,405 L 659,404 L 652,397 L 651,397 L 650,396 L 511,396 L 506,401 L 506,402 L 498,410 L 498,411 L 492,417 L 492,418 L 485,425 Z M 439,392 L 440,393 L 440,402 L 439,403 L 438,403 L 436,405 L 436,406 L 434,408 L 434,409 L 433,410 L 433,411 L 432,412 L 432,413 L 431,414 L 431,415 L 428,418 L 428,419 L 424,423 L 424,424 L 420,428 L 420,429 L 417,432 L 416,431 L 416,430 L 417,429 L 417,428 L 419,426 L 419,425 L 423,421 L 423,420 L 426,417 L 426,416 L 429,413 L 429,412 L 430,411 L 430,410 L 431,409 L 431,408 L 434,405 L 434,404 L 437,401 L 437,395 L 438,394 L 438,393 Z M 465,369 L 466,370 L 466,372 L 465,373 L 465,374 L 462,377 L 462,378 L 455,385 L 454,385 L 454,386 L 453,387 L 452,386 L 452,385 L 451,384 L 453,382 L 454,382 L 458,378 L 459,378 L 460,377 L 460,376 L 463,373 L 463,372 L 464,371 L 464,370 Z M 476,346 L 477,345 L 477,343 L 478,342 L 478,341 L 479,340 L 479,339 L 480,338 L 487,338 L 489,340 L 489,342 L 490,343 L 490,345 L 489,346 L 481,346 L 480,347 L 477,347 Z M 1302,245 L 1303,244 L 1319,244 L 1320,245 L 1320,246 L 1319,247 L 1303,247 L 1302,246 Z M 303,179 L 306,179 L 307,180 L 309,180 L 310,181 L 311,181 L 312,182 L 313,182 L 314,183 L 314,195 L 312,197 L 311,197 L 310,198 L 309,198 L 308,197 L 307,197 L 308,197 L 309,198 L 308,199 L 306,199 L 305,200 L 304,200 L 301,197 L 301,182 L 302,181 L 302,180 Z M 277,179 L 291,179 L 292,180 L 292,181 L 293,182 L 293,195 L 292,196 L 292,198 L 291,199 L 290,198 L 282,198 L 290,198 L 291,199 L 290,200 L 278,200 L 277,199 L 276,199 L 275,198 L 275,182 L 276,181 L 276,180 Z M 1037,129 L 1036,130 L 1029,130 L 1028,131 L 1019,131 L 1018,132 L 1013,132 L 1012,131 L 1013,130 L 1016,130 L 1017,129 L 1026,129 L 1027,128 L 1036,128 Z M 1109,104 L 1110,103 L 1121,103 L 1122,104 L 1122,110 L 1121,111 L 1110,111 L 1109,110 Z M 1142,103 L 1143,102 L 1163,102 L 1164,103 L 1164,110 L 1163,111 L 1144,111 L 1143,112 L 1142,111 Z" fill="black" fill-rule="evenodd"/>
</svg>