<svg xmlns="http://www.w3.org/2000/svg" width="2172" height="724" viewBox="0 0 2172 724">
<rect width="100%" height="100%" fill="white"/>
<path d="M 1188,478 L 1186,480 L 1186,481 L 1185,482 L 1185,486 L 1186,487 L 1188,487 L 1187,486 L 1189,484 L 1189,482 L 1188,481 L 1189,480 L 1189,479 Z" fill="black" fill-rule="evenodd"/>
<path d="M 1999,502 L 1977,480 L 1987,478 L 1993,434 L 1972,423 L 1997,380 L 1978,387 L 1974,377 L 1949,374 L 1956,317 L 1943,302 L 1900,310 L 1899,287 L 1765,287 L 1766,311 L 1754,313 L 1750,293 L 1686,281 L 1646,301 L 1502,305 L 1490,317 L 1489,297 L 1575,297 L 1575,157 L 1427,143 L 1413,98 L 1295,87 L 1291,97 L 1247,100 L 1236,143 L 1119,136 L 1106,152 L 988,169 L 964,181 L 961,200 L 956,193 L 954,225 L 951,184 L 927,184 L 900,203 L 631,219 L 215,217 L 149,199 L 92,201 L 82,217 L 91,257 L 148,260 L 215,244 L 631,254 L 900,274 L 929,294 L 952,292 L 956,252 L 959,297 L 978,299 L 977,317 L 838,322 L 819,305 L 769,305 L 739,330 L 700,331 L 694,345 L 679,331 L 655,334 L 653,364 L 672,378 L 653,397 L 503,425 L 530,443 L 518,507 L 528,514 L 535,501 L 541,506 L 534,547 L 564,597 L 622,627 L 743,658 L 1773,658 L 1871,643 L 1916,624 L 1945,577 L 1938,524 L 1919,500 L 1972,491 L 1993,510 Z M 741,638 L 742,637 L 744,637 L 745,638 L 746,638 L 747,639 L 749,639 L 750,640 L 749,641 L 746,641 L 745,640 L 742,640 L 741,639 Z M 1693,633 L 1694,632 L 1695,632 L 1696,633 L 1697,633 L 1698,634 L 1697,635 L 1696,635 L 1697,635 L 1698,636 L 1697,635 L 1698,634 L 1700,634 L 1701,635 L 1702,635 L 1703,636 L 1705,636 L 1706,637 L 1708,637 L 1709,638 L 1711,638 L 1712,639 L 1717,639 L 1718,640 L 1737,640 L 1738,641 L 1740,641 L 1738,641 L 1737,640 L 1738,639 L 1742,639 L 1743,638 L 1746,638 L 1747,637 L 1748,637 L 1749,638 L 1747,640 L 1745,640 L 1742,643 L 1721,643 L 1720,642 L 1719,643 L 1711,643 L 1709,641 L 1709,640 L 1705,640 L 1705,642 L 1704,643 L 1697,643 L 1694,640 L 1694,637 L 1693,636 Z M 1239,633 L 1238,634 L 1238,637 L 1237,638 L 1237,639 L 1234,642 L 1230,642 L 1229,643 L 1222,643 L 1221,642 L 1221,641 L 1218,641 L 1217,642 L 1215,642 L 1214,643 L 1192,643 L 1191,642 L 1192,641 L 1193,641 L 1194,640 L 1212,640 L 1213,639 L 1218,639 L 1219,638 L 1222,638 L 1223,637 L 1226,637 L 1227,636 L 1228,636 L 1229,635 L 1231,635 L 1232,636 L 1234,636 L 1232,636 L 1231,635 L 1232,634 L 1233,634 L 1234,633 L 1235,633 L 1236,632 L 1238,632 Z M 819,631 L 819,634 L 818,635 L 818,639 L 816,641 L 816,642 L 815,643 L 805,643 L 803,641 L 803,640 L 802,639 L 803,638 L 805,638 L 806,637 L 807,637 L 809,635 L 810,635 L 811,634 L 812,634 L 813,635 L 812,636 L 813,636 L 814,635 L 813,635 L 812,634 L 813,633 L 814,633 L 816,631 L 817,631 L 818,630 Z M 1851,625 L 1851,629 L 1850,630 L 1848,630 L 1847,631 L 1838,631 L 1836,629 L 1836,627 L 1835,626 L 1835,625 L 1836,624 L 1837,625 L 1838,625 L 1839,626 L 1842,626 L 1843,625 L 1843,624 L 1845,622 L 1846,622 L 1847,623 L 1849,623 Z M 1194,640 L 1191,642 L 1188,642 L 1187,641 L 1185,641 L 1184,640 L 1181,640 L 1179,643 L 1168,643 L 1164,639 L 1164,634 L 1163,633 L 1163,632 L 1161,630 L 1159,630 L 1158,631 L 1158,636 L 1157,637 L 1157,639 L 1153,643 L 1143,643 L 1140,640 L 1140,639 L 1139,638 L 1139,636 L 1138,635 L 1138,633 L 1137,632 L 1135,632 L 1132,634 L 1132,637 L 1131,638 L 1131,640 L 1129,642 L 1128,642 L 1127,643 L 1124,643 L 1122,641 L 1122,639 L 1119,639 L 1118,640 L 1117,640 L 1114,643 L 1086,643 L 1084,641 L 1082,641 L 1080,643 L 1068,643 L 1066,641 L 1065,641 L 1064,640 L 1064,639 L 1063,638 L 1063,633 L 1064,632 L 1065,632 L 1066,633 L 1065,634 L 1068,636 L 1069,636 L 1068,636 L 1067,635 L 1068,634 L 1070,634 L 1073,636 L 1076,636 L 1079,638 L 1082,638 L 1083,639 L 1088,639 L 1089,640 L 1088,641 L 1087,641 L 1088,641 L 1089,640 L 1106,640 L 1107,639 L 1111,639 L 1112,638 L 1115,638 L 1116,637 L 1119,637 L 1120,636 L 1122,636 L 1125,634 L 1127,634 L 1128,635 L 1127,636 L 1126,636 L 1130,636 L 1130,635 L 1128,635 L 1127,634 L 1128,633 L 1129,633 L 1130,632 L 1131,632 L 1132,631 L 1135,630 L 1137,628 L 1138,628 L 1140,626 L 1141,626 L 1146,621 L 1147,621 L 1147,619 L 1146,618 L 1148,616 L 1153,621 L 1154,621 L 1159,626 L 1160,626 L 1163,629 L 1164,629 L 1165,630 L 1166,630 L 1167,631 L 1168,631 L 1169,632 L 1170,632 L 1175,635 L 1177,635 L 1178,636 L 1180,636 L 1181,637 L 1183,637 L 1184,638 L 1188,638 L 1189,639 L 1193,639 Z M 1689,629 L 1687,631 L 1686,638 L 1682,643 L 1670,643 L 1667,640 L 1666,631 L 1664,631 L 1661,633 L 1661,636 L 1657,642 L 1655,641 L 1650,641 L 1655,641 L 1656,642 L 1655,643 L 1647,643 L 1645,640 L 1639,641 L 1637,643 L 1617,643 L 1616,642 L 1610,642 L 1609,641 L 1605,641 L 1604,643 L 1591,643 L 1588,640 L 1587,633 L 1582,630 L 1580,635 L 1580,639 L 1576,643 L 1565,643 L 1562,639 L 1561,631 L 1560,630 L 1555,634 L 1554,640 L 1551,643 L 1544,643 L 1543,642 L 1543,640 L 1539,640 L 1536,643 L 1503,643 L 1502,642 L 1502,640 L 1500,640 L 1499,639 L 1497,639 L 1495,643 L 1489,643 L 1485,640 L 1484,634 L 1481,631 L 1483,630 L 1490,634 L 1489,635 L 1490,634 L 1492,634 L 1498,637 L 1501,637 L 1505,639 L 1510,639 L 1511,640 L 1528,640 L 1529,639 L 1534,639 L 1535,638 L 1541,637 L 1549,633 L 1551,633 L 1560,628 L 1569,620 L 1569,619 L 1567,618 L 1569,616 L 1580,626 L 1596,635 L 1598,635 L 1608,639 L 1613,639 L 1614,640 L 1633,640 L 1634,639 L 1639,639 L 1640,638 L 1647,637 L 1664,629 L 1671,624 L 1685,609 L 1687,611 L 1679,620 L 1679,621 Z M 1352,607 L 1354,609 L 1354,610 L 1357,613 L 1357,614 L 1363,620 L 1362,621 L 1361,621 L 1360,620 L 1360,621 L 1359,622 L 1358,621 L 1358,619 L 1353,614 L 1353,613 L 1351,611 L 1351,610 L 1350,609 Z M 639,611 L 640,610 L 642,610 L 643,609 L 644,609 L 644,608 L 645,607 L 646,608 L 649,608 L 650,609 L 650,610 L 649,611 L 649,612 L 646,615 L 642,615 L 641,614 L 642,613 L 644,613 L 644,612 L 642,612 L 642,613 L 641,614 L 640,613 L 640,612 Z M 1479,608 L 1478,609 L 1478,610 L 1476,612 L 1476,613 L 1472,617 L 1472,618 L 1471,619 L 1470,619 L 1470,621 L 1469,622 L 1468,621 L 1467,622 L 1469,622 L 1470,621 L 1471,622 L 1472,622 L 1476,626 L 1477,626 L 1479,628 L 1480,628 L 1482,630 L 1481,631 L 1480,631 L 1479,630 L 1478,631 L 1478,633 L 1477,634 L 1477,637 L 1476,638 L 1476,639 L 1474,641 L 1474,642 L 1473,643 L 1463,643 L 1459,639 L 1459,637 L 1458,636 L 1458,632 L 1457,631 L 1455,631 L 1454,632 L 1453,632 L 1453,633 L 1452,634 L 1452,638 L 1451,639 L 1451,640 L 1449,642 L 1448,642 L 1447,643 L 1437,643 L 1436,642 L 1436,641 L 1435,640 L 1433,640 L 1432,641 L 1429,641 L 1428,642 L 1427,641 L 1424,641 L 1423,640 L 1424,639 L 1429,639 L 1430,638 L 1433,638 L 1434,637 L 1436,637 L 1437,636 L 1439,636 L 1440,635 L 1442,635 L 1443,634 L 1444,634 L 1445,633 L 1446,633 L 1447,632 L 1448,632 L 1449,631 L 1450,631 L 1451,630 L 1452,630 L 1453,629 L 1454,629 L 1456,627 L 1457,627 L 1460,624 L 1461,624 L 1472,613 L 1472,612 L 1475,609 L 1475,608 L 1477,606 Z M 840,604 L 842,606 L 842,607 L 841,608 L 841,609 L 839,611 L 839,612 L 837,614 L 837,615 L 834,618 L 834,619 L 838,623 L 839,623 L 842,626 L 843,626 L 846,629 L 847,629 L 848,630 L 847,631 L 846,631 L 845,632 L 845,635 L 844,636 L 844,639 L 840,643 L 830,643 L 826,639 L 826,637 L 825,636 L 825,634 L 824,633 L 824,630 L 821,630 L 820,629 L 832,617 L 832,616 L 835,613 L 835,612 L 836,611 L 836,610 L 838,608 L 838,607 L 839,606 L 839,605 Z M 619,607 L 620,606 L 621,606 L 623,604 L 623,603 L 624,602 L 635,602 L 636,603 L 636,604 L 637,605 L 637,607 L 638,608 L 637,609 L 636,609 L 635,610 L 634,610 L 633,609 L 634,610 L 633,611 L 632,611 L 631,610 L 630,610 L 629,611 L 627,611 L 626,610 L 625,610 L 624,609 L 622,609 L 621,608 L 620,608 Z M 1872,602 L 1873,602 L 1874,601 L 1876,601 L 1877,600 L 1880,600 L 1881,601 L 1880,602 L 1878,602 L 1881,602 L 1881,601 L 1880,600 L 1881,599 L 1882,599 L 1883,600 L 1883,602 L 1885,604 L 1885,605 L 1886,606 L 1886,608 L 1887,609 L 1887,610 L 1888,611 L 1888,612 L 1887,613 L 1886,612 L 1884,612 L 1883,613 L 1882,613 L 1883,613 L 1884,614 L 1883,615 L 1880,615 L 1878,613 L 1878,612 L 1873,612 L 1871,610 L 1871,603 Z M 1847,598 L 1848,598 L 1849,599 L 1852,599 L 1853,600 L 1855,600 L 1856,601 L 1860,601 L 1861,602 L 1861,606 L 1860,607 L 1860,608 L 1859,609 L 1858,608 L 1857,608 L 1854,611 L 1854,612 L 1853,613 L 1853,614 L 1852,615 L 1851,614 L 1850,614 L 1851,614 L 1852,615 L 1851,616 L 1849,616 L 1848,615 L 1846,615 L 1845,614 L 1843,614 L 1842,613 L 1841,613 L 1838,610 L 1841,607 L 1841,606 L 1843,604 L 1843,603 L 1845,601 L 1845,600 Z M 1901,587 L 1906,592 L 1907,592 L 1908,593 L 1909,593 L 1911,595 L 1911,596 L 1910,597 L 1910,598 L 1905,603 L 1904,602 L 1905,603 L 1903,605 L 1902,605 L 1900,607 L 1899,607 L 1898,608 L 1897,608 L 1896,609 L 1895,608 L 1895,607 L 1894,606 L 1894,605 L 1895,604 L 1894,605 L 1893,604 L 1893,603 L 1892,602 L 1892,601 L 1891,600 L 1891,598 L 1890,597 L 1890,596 L 1899,587 Z M 635,593 L 635,590 L 636,589 L 637,589 L 638,588 L 640,588 L 641,587 L 644,587 L 647,590 L 645,592 L 642,592 L 641,591 L 642,590 L 644,590 L 641,590 L 640,591 L 637,591 L 637,592 L 638,592 L 639,593 L 638,594 L 636,594 Z M 1832,586 L 1840,594 L 1839,595 L 1839,596 L 1838,597 L 1838,598 L 1836,600 L 1836,601 L 1834,603 L 1834,604 L 1833,605 L 1832,604 L 1833,605 L 1832,606 L 1830,606 L 1828,604 L 1827,604 L 1822,599 L 1822,598 L 1819,595 L 1819,594 L 1821,592 L 1822,592 L 1823,591 L 1824,591 L 1826,589 L 1827,589 L 1828,588 L 1829,588 L 1830,587 L 1831,587 Z M 593,586 L 594,585 L 594,584 L 595,583 L 597,583 L 598,584 L 600,584 L 601,585 L 602,585 L 603,586 L 605,586 L 606,587 L 608,587 L 610,589 L 610,590 L 611,591 L 609,593 L 604,593 L 603,592 L 601,592 L 600,591 L 599,591 L 598,590 L 596,590 L 593,587 Z M 1835,619 L 1835,622 L 1834,623 L 1832,621 L 1832,620 L 1831,619 L 1830,619 L 1828,621 L 1829,622 L 1829,623 L 1828,624 L 1828,630 L 1827,631 L 1826,630 L 1826,629 L 1826,630 L 1827,631 L 1824,634 L 1820,634 L 1819,635 L 1815,635 L 1812,632 L 1812,630 L 1811,629 L 1811,626 L 1810,625 L 1810,622 L 1807,622 L 1806,623 L 1805,623 L 1805,631 L 1804,632 L 1804,634 L 1803,635 L 1802,635 L 1800,637 L 1797,637 L 1796,638 L 1791,638 L 1789,636 L 1790,635 L 1789,636 L 1788,635 L 1788,634 L 1787,633 L 1787,631 L 1786,630 L 1786,628 L 1784,625 L 1783,625 L 1781,628 L 1781,633 L 1780,634 L 1780,637 L 1777,640 L 1772,640 L 1771,641 L 1768,641 L 1765,638 L 1765,635 L 1764,634 L 1763,635 L 1763,640 L 1761,642 L 1754,642 L 1753,641 L 1753,639 L 1752,638 L 1750,638 L 1749,637 L 1750,636 L 1752,636 L 1753,635 L 1755,635 L 1756,634 L 1757,634 L 1758,633 L 1759,633 L 1760,632 L 1763,631 L 1768,627 L 1771,626 L 1783,614 L 1784,615 L 1783,614 L 1784,613 L 1784,612 L 1787,609 L 1788,606 L 1790,604 L 1790,603 L 1792,600 L 1792,598 L 1795,593 L 1795,591 L 1796,590 L 1796,587 L 1797,586 L 1797,583 L 1798,582 L 1798,579 L 1799,578 L 1799,575 L 1800,574 L 1801,575 L 1801,578 L 1802,579 L 1802,580 L 1803,581 L 1803,583 L 1804,584 L 1804,586 L 1802,588 L 1802,589 L 1801,590 L 1801,594 L 1802,595 L 1804,595 L 1805,596 L 1809,596 L 1810,597 L 1809,598 L 1807,598 L 1809,598 L 1810,597 L 1814,601 L 1814,602 L 1818,606 L 1818,608 L 1817,609 L 1817,612 L 1821,616 L 1824,616 L 1825,615 L 1828,614 L 1831,616 L 1830,617 L 1831,616 L 1832,616 Z M 571,573 L 573,571 L 576,571 L 577,572 L 577,573 L 578,574 L 577,575 L 576,575 L 575,576 L 574,575 L 573,575 Z M 614,569 L 617,569 L 619,571 L 619,577 L 618,578 L 618,583 L 617,584 L 612,584 L 611,583 L 611,582 L 612,581 L 613,582 L 616,582 L 613,582 L 612,581 L 612,579 L 613,578 L 613,575 L 614,574 L 614,573 L 613,572 L 613,570 Z M 645,566 L 646,567 L 646,568 L 648,570 L 648,571 L 649,572 L 649,573 L 650,573 L 651,574 L 651,575 L 652,576 L 652,577 L 651,578 L 650,577 L 651,578 L 649,580 L 647,580 L 646,581 L 644,581 L 643,582 L 642,582 L 641,583 L 638,583 L 637,584 L 632,584 L 631,583 L 631,582 L 630,581 L 630,578 L 629,577 L 629,572 L 631,570 L 632,570 L 633,569 L 635,569 L 636,568 L 638,568 L 639,567 L 642,567 L 643,566 Z M 1910,565 L 1920,565 L 1921,566 L 1920,567 L 1917,567 L 1913,571 L 1913,575 L 1914,576 L 1915,576 L 1916,577 L 1918,577 L 1919,578 L 1919,579 L 1920,580 L 1920,582 L 1919,583 L 1919,584 L 1918,585 L 1918,586 L 1917,587 L 1915,587 L 1913,585 L 1912,585 L 1911,584 L 1912,583 L 1914,583 L 1912,583 L 1911,584 L 1910,584 L 1908,582 L 1907,582 L 1905,580 L 1905,578 L 1906,577 L 1906,576 L 1907,575 L 1907,572 L 1908,571 L 1908,569 L 1909,568 L 1909,566 Z M 1808,565 L 1822,565 L 1823,566 L 1822,567 L 1820,567 L 1815,572 L 1815,575 L 1814,576 L 1814,577 L 1815,578 L 1815,579 L 1817,581 L 1816,582 L 1814,582 L 1815,583 L 1818,583 L 1819,584 L 1817,586 L 1815,586 L 1812,583 L 1812,582 L 1811,581 L 1811,580 L 1810,579 L 1810,578 L 1809,577 L 1809,575 L 1808,574 L 1808,568 L 1807,567 L 1807,566 Z M 602,563 L 604,565 L 606,565 L 607,566 L 604,569 L 603,568 L 600,568 L 601,569 L 602,569 L 603,570 L 600,573 L 600,578 L 599,579 L 598,578 L 597,578 L 594,575 L 594,571 L 596,569 L 596,568 L 600,564 L 601,564 Z M 1623,561 L 1625,561 L 1626,562 L 1625,563 L 1624,563 L 1624,564 L 1626,564 L 1626,563 L 1627,562 L 1628,562 L 1631,565 L 1631,567 L 1632,568 L 1632,569 L 1631,570 L 1631,572 L 1629,574 L 1628,574 L 1627,573 L 1622,573 L 1627,573 L 1628,574 L 1627,575 L 1621,575 L 1617,571 L 1617,566 L 1618,565 L 1618,564 L 1619,563 L 1620,563 L 1621,562 L 1622,562 Z M 1515,562 L 1516,562 L 1517,561 L 1522,561 L 1523,562 L 1524,562 L 1526,564 L 1526,565 L 1527,566 L 1527,570 L 1526,571 L 1526,572 L 1524,574 L 1523,574 L 1522,575 L 1517,575 L 1516,574 L 1517,573 L 1520,573 L 1517,573 L 1516,574 L 1515,574 L 1513,572 L 1513,571 L 1512,570 L 1512,566 L 1513,565 L 1513,564 Z M 1410,562 L 1412,562 L 1413,561 L 1416,561 L 1417,562 L 1418,562 L 1421,565 L 1421,571 L 1419,573 L 1418,572 L 1419,573 L 1417,575 L 1411,575 L 1410,574 L 1411,573 L 1410,572 L 1409,573 L 1407,571 L 1407,566 L 1408,565 L 1408,564 Z M 1306,561 L 1311,561 L 1312,562 L 1314,562 L 1316,564 L 1316,566 L 1317,567 L 1317,569 L 1316,570 L 1316,571 L 1313,574 L 1312,573 L 1309,573 L 1312,573 L 1313,574 L 1312,575 L 1306,575 L 1302,571 L 1302,565 Z M 1200,561 L 1206,561 L 1210,565 L 1210,571 L 1207,574 L 1206,573 L 1202,573 L 1206,573 L 1207,574 L 1206,575 L 1201,575 L 1200,574 L 1199,574 L 1197,572 L 1197,571 L 1196,570 L 1196,565 Z M 579,562 L 580,561 L 582,561 L 583,562 L 582,563 L 585,563 L 586,564 L 584,566 L 584,567 L 583,568 L 580,565 L 580,564 L 579,563 Z M 989,560 L 994,560 L 998,564 L 998,565 L 999,566 L 999,569 L 998,570 L 998,571 L 995,574 L 994,574 L 993,573 L 990,573 L 989,574 L 988,574 L 985,571 L 985,570 L 984,569 L 984,565 Z M 880,560 L 882,560 L 883,559 L 886,559 L 888,561 L 889,561 L 890,562 L 890,563 L 891,564 L 891,568 L 890,569 L 890,570 L 887,573 L 881,573 L 877,569 L 877,568 L 876,567 L 876,565 L 877,564 L 877,563 Z M 1865,557 L 1867,557 L 1869,559 L 1868,560 L 1866,560 L 1866,561 L 1865,562 L 1868,562 L 1869,563 L 1868,564 L 1864,564 L 1863,563 L 1863,562 L 1862,561 L 1862,560 Z M 564,557 L 565,556 L 567,556 L 569,558 L 569,559 L 568,560 L 569,559 L 570,560 L 570,561 L 569,562 L 566,562 L 564,560 Z M 667,546 L 669,548 L 668,549 L 672,549 L 673,550 L 672,551 L 668,551 L 667,552 L 666,552 L 665,553 L 664,553 L 663,554 L 663,555 L 662,556 L 662,557 L 661,558 L 661,560 L 663,562 L 663,565 L 664,565 L 666,567 L 665,568 L 664,568 L 663,567 L 662,567 L 661,568 L 658,565 L 658,564 L 656,562 L 656,560 L 655,559 L 661,553 L 661,552 L 664,549 L 664,548 L 666,546 Z M 1809,545 L 1810,544 L 1811,545 L 1811,549 L 1815,553 L 1816,553 L 1817,554 L 1819,554 L 1820,553 L 1820,552 L 1821,551 L 1821,550 L 1822,549 L 1823,550 L 1823,551 L 1824,552 L 1824,554 L 1822,556 L 1808,556 L 1807,555 L 1808,554 L 1808,549 L 1809,548 Z M 572,551 L 575,548 L 576,548 L 577,547 L 578,547 L 579,546 L 580,546 L 582,544 L 583,544 L 586,547 L 586,548 L 588,550 L 588,551 L 592,555 L 592,558 L 591,559 L 590,558 L 590,557 L 589,556 L 586,556 L 586,559 L 588,559 L 590,561 L 588,563 L 587,563 L 586,562 L 585,563 L 584,562 L 583,562 L 582,561 L 584,559 L 584,557 L 582,555 L 574,555 L 573,554 L 573,553 L 572,552 Z M 558,538 L 560,538 L 562,540 L 562,543 L 563,544 L 563,547 L 562,548 L 561,548 L 560,547 L 558,547 L 557,546 L 557,544 L 556,543 L 556,542 L 555,541 Z M 1916,532 L 1919,535 L 1919,536 L 1920,537 L 1920,541 L 1919,542 L 1919,544 L 1918,545 L 1917,545 L 1916,546 L 1915,546 L 1913,548 L 1913,550 L 1916,553 L 1922,553 L 1923,554 L 1922,555 L 1921,555 L 1920,556 L 1911,556 L 1909,554 L 1909,551 L 1908,550 L 1908,547 L 1907,546 L 1907,545 L 1906,544 L 1906,541 L 1905,540 L 1905,539 L 1906,538 L 1907,538 L 1909,536 L 1910,536 L 1911,535 L 1912,535 L 1913,534 L 1914,534 Z M 1815,532 L 1818,532 L 1820,534 L 1821,534 L 1822,535 L 1823,535 L 1825,537 L 1826,537 L 1828,539 L 1828,540 L 1827,541 L 1827,543 L 1826,544 L 1826,545 L 1824,547 L 1824,549 L 1823,550 L 1822,549 L 1822,546 L 1821,545 L 1820,545 L 1819,544 L 1818,544 L 1816,542 L 1814,542 L 1811,545 L 1810,544 L 1810,542 L 1811,541 L 1811,539 L 1812,538 L 1812,537 L 1813,536 L 1813,535 L 1814,534 L 1814,533 Z M 564,524 L 565,523 L 578,523 L 579,524 L 579,529 L 578,530 L 578,531 L 579,532 L 577,534 L 576,534 L 575,535 L 572,535 L 571,536 L 570,536 L 569,537 L 567,537 L 564,534 Z M 673,523 L 676,523 L 677,522 L 686,522 L 687,523 L 687,531 L 686,532 L 686,536 L 685,537 L 684,537 L 683,538 L 682,538 L 681,537 L 679,537 L 678,536 L 676,536 L 675,535 L 674,535 L 672,533 L 672,524 Z M 1925,521 L 1927,523 L 1927,524 L 1929,526 L 1927,528 L 1924,528 L 1923,527 L 1924,528 L 1924,529 L 1923,530 L 1921,528 L 1921,527 L 1920,526 L 1920,525 L 1919,524 L 1919,523 L 1920,522 L 1921,523 L 1922,522 L 1924,522 Z M 1358,518 L 1360,520 L 1358,522 L 1358,523 L 1354,527 L 1354,528 L 1352,530 L 1352,531 L 1351,532 L 1351,533 L 1350,534 L 1350,535 L 1349,536 L 1349,537 L 1348,538 L 1348,539 L 1347,540 L 1347,541 L 1346,542 L 1346,544 L 1345,545 L 1345,547 L 1344,548 L 1344,550 L 1343,551 L 1343,555 L 1342,556 L 1342,561 L 1341,562 L 1341,575 L 1342,576 L 1342,582 L 1343,583 L 1343,586 L 1344,587 L 1344,589 L 1345,590 L 1345,593 L 1346,594 L 1346,595 L 1347,596 L 1347,598 L 1348,599 L 1348,600 L 1349,601 L 1349,602 L 1350,603 L 1350,604 L 1352,606 L 1352,607 L 1350,609 L 1349,608 L 1349,607 L 1347,605 L 1347,604 L 1346,603 L 1346,602 L 1345,601 L 1345,600 L 1344,599 L 1344,598 L 1343,597 L 1343,595 L 1342,594 L 1342,592 L 1341,591 L 1341,589 L 1340,588 L 1340,585 L 1339,584 L 1339,578 L 1338,577 L 1338,561 L 1339,560 L 1339,555 L 1340,554 L 1340,550 L 1341,549 L 1341,547 L 1342,546 L 1342,544 L 1343,543 L 1343,541 L 1344,540 L 1344,539 L 1345,538 L 1345,536 L 1346,535 L 1346,534 L 1348,532 L 1348,531 L 1349,530 L 1349,529 L 1351,527 L 1351,526 L 1354,523 L 1354,522 Z M 1916,515 L 1917,514 L 1919,514 L 1920,515 L 1919,516 L 1920,515 L 1924,519 L 1924,520 L 1923,521 L 1922,520 L 1922,521 L 1921,522 L 1918,519 L 1918,518 L 1917,517 L 1917,516 Z M 1831,511 L 1832,511 L 1835,514 L 1835,515 L 1837,517 L 1837,518 L 1838,519 L 1838,520 L 1839,521 L 1839,522 L 1840,523 L 1840,524 L 1835,529 L 1834,528 L 1834,527 L 1831,527 L 1832,528 L 1834,528 L 1835,529 L 1833,531 L 1832,531 L 1826,525 L 1826,524 L 1825,523 L 1825,522 L 1823,520 L 1823,518 L 1829,512 L 1830,512 Z M 1897,509 L 1898,509 L 1900,511 L 1901,511 L 1902,512 L 1901,513 L 1901,514 L 1902,514 L 1903,513 L 1904,513 L 1911,520 L 1911,521 L 1912,522 L 1906,528 L 1905,528 L 1903,530 L 1902,530 L 1901,531 L 1899,531 L 1890,522 L 1890,521 L 1892,519 L 1892,518 L 1894,516 L 1894,515 L 1895,514 L 1895,513 L 1896,512 L 1896,510 Z M 557,504 L 560,504 L 562,506 L 561,507 L 561,511 L 560,512 L 560,517 L 559,518 L 559,533 L 560,534 L 560,536 L 559,537 L 558,536 L 555,536 L 553,534 L 553,521 L 552,520 L 552,518 L 553,517 L 553,513 L 554,512 L 554,511 L 555,510 L 557,510 L 559,508 L 559,506 L 558,506 L 557,507 L 556,506 L 556,505 Z M 681,503 L 683,505 L 683,506 L 684,507 L 684,510 L 683,511 L 682,511 L 681,512 L 680,512 L 679,513 L 677,513 L 676,514 L 672,514 L 671,513 L 671,510 L 670,509 L 672,507 L 673,507 L 674,506 L 675,507 L 676,507 L 675,507 L 674,506 L 675,505 L 676,505 L 677,504 L 678,504 L 679,503 Z M 568,504 L 570,502 L 571,502 L 572,503 L 571,504 L 572,503 L 574,503 L 575,504 L 577,504 L 582,509 L 582,510 L 581,511 L 581,513 L 580,514 L 579,513 L 579,512 L 579,513 L 578,514 L 576,514 L 575,513 L 570,513 L 569,512 L 569,510 L 568,509 L 568,508 L 567,507 L 567,506 L 568,505 Z M 1860,500 L 1861,501 L 1861,515 L 1860,516 L 1858,516 L 1857,517 L 1855,517 L 1854,518 L 1851,518 L 1850,519 L 1848,519 L 1847,518 L 1847,516 L 1845,514 L 1845,513 L 1843,511 L 1843,510 L 1841,508 L 1841,506 L 1842,505 L 1843,505 L 1844,506 L 1843,505 L 1844,504 L 1845,504 L 1846,503 L 1847,503 L 1848,502 L 1851,502 L 1852,501 L 1853,501 L 1854,500 L 1855,500 L 1856,501 L 1857,500 Z M 1872,499 L 1873,500 L 1873,501 L 1874,502 L 1877,502 L 1878,501 L 1880,501 L 1881,502 L 1884,502 L 1885,503 L 1886,503 L 1887,504 L 1888,504 L 1889,505 L 1889,506 L 1888,507 L 1888,508 L 1887,509 L 1887,511 L 1886,512 L 1886,513 L 1885,514 L 1885,515 L 1884,516 L 1884,517 L 1883,518 L 1882,517 L 1882,516 L 1880,516 L 1879,517 L 1875,517 L 1874,516 L 1872,516 L 1871,515 L 1871,511 L 1872,510 L 1873,510 L 1873,504 L 1871,502 L 1871,500 Z M 692,498 L 693,499 L 693,500 L 694,501 L 694,503 L 695,504 L 695,506 L 696,507 L 696,510 L 697,511 L 697,516 L 698,517 L 698,534 L 697,535 L 697,540 L 696,541 L 696,544 L 695,545 L 695,547 L 694,548 L 693,548 L 691,546 L 691,545 L 692,544 L 692,542 L 693,541 L 693,539 L 692,539 L 691,538 L 691,536 L 692,535 L 692,524 L 693,523 L 693,519 L 694,518 L 695,519 L 696,519 L 696,518 L 695,517 L 694,518 L 693,518 L 692,517 L 692,515 L 693,514 L 693,513 L 692,512 L 692,508 L 691,507 L 691,504 L 690,503 L 690,502 L 691,501 L 692,502 L 690,500 Z M 531,496 L 532,497 L 532,503 L 531,504 L 531,505 L 529,507 L 527,507 L 525,505 L 525,500 L 526,499 L 527,499 L 528,498 L 529,498 Z M 1890,495 L 1891,494 L 1895,494 L 1896,495 L 1897,495 L 1898,496 L 1900,496 L 1901,497 L 1902,497 L 1903,498 L 1904,498 L 1905,499 L 1906,499 L 1908,501 L 1908,502 L 1909,503 L 1909,504 L 1910,505 L 1910,506 L 1911,507 L 1911,509 L 1910,510 L 1909,509 L 1908,509 L 1903,504 L 1904,503 L 1905,503 L 1906,502 L 1905,503 L 1904,503 L 1903,504 L 1902,504 L 1899,501 L 1898,501 L 1897,500 L 1896,501 L 1894,501 L 1893,500 L 1892,500 L 1890,498 L 1891,497 L 1891,496 Z M 1842,496 L 1843,495 L 1843,494 L 1844,493 L 1849,493 L 1850,494 L 1850,495 L 1849,496 L 1845,496 L 1844,497 L 1843,497 Z M 1838,495 L 1838,497 L 1837,498 L 1836,498 L 1835,497 L 1835,496 L 1830,496 L 1829,497 L 1826,498 L 1826,499 L 1824,501 L 1824,504 L 1825,505 L 1825,506 L 1821,510 L 1814,510 L 1811,513 L 1811,514 L 1810,515 L 1811,516 L 1811,517 L 1813,519 L 1813,520 L 1811,522 L 1810,525 L 1806,530 L 1801,530 L 1799,533 L 1799,537 L 1802,540 L 1802,543 L 1801,544 L 1801,547 L 1800,548 L 1800,552 L 1799,553 L 1799,555 L 1798,556 L 1797,555 L 1797,552 L 1796,551 L 1796,548 L 1795,547 L 1795,545 L 1794,544 L 1794,543 L 1793,542 L 1793,540 L 1792,539 L 1792,538 L 1794,536 L 1795,537 L 1796,536 L 1795,533 L 1794,533 L 1794,534 L 1793,535 L 1793,537 L 1792,538 L 1791,537 L 1791,536 L 1789,534 L 1789,533 L 1788,532 L 1788,531 L 1786,529 L 1786,528 L 1783,525 L 1783,524 L 1772,513 L 1771,513 L 1769,511 L 1768,511 L 1763,507 L 1762,507 L 1761,506 L 1760,506 L 1757,504 L 1758,503 L 1760,503 L 1761,502 L 1761,499 L 1763,496 L 1767,496 L 1768,495 L 1770,495 L 1774,500 L 1774,507 L 1775,508 L 1780,508 L 1780,505 L 1781,504 L 1781,500 L 1782,499 L 1782,497 L 1785,495 L 1793,495 L 1796,498 L 1796,499 L 1797,500 L 1797,503 L 1798,504 L 1798,507 L 1799,508 L 1803,508 L 1804,507 L 1804,504 L 1805,503 L 1805,498 L 1806,497 L 1805,496 L 1806,495 L 1815,495 L 1816,496 L 1816,497 L 1818,499 L 1818,501 L 1819,502 L 1819,503 L 1821,506 L 1820,505 L 1820,501 L 1821,500 L 1821,497 L 1823,494 L 1825,494 L 1826,493 L 1836,493 Z M 1553,596 L 1549,582 L 1548,572 L 1549,557 L 1552,545 L 1558,532 L 1570,517 L 1564,510 L 1552,502 L 1553,494 L 1557,497 L 1561,496 L 1564,493 L 1573,493 L 1579,495 L 1581,506 L 1590,500 L 1591,495 L 1596,496 L 1593,496 L 1592,495 L 1593,494 L 1600,494 L 1601,497 L 1603,497 L 1605,494 L 1610,495 L 1618,493 L 1629,493 L 1640,495 L 1644,494 L 1646,497 L 1648,497 L 1649,494 L 1665,494 L 1672,501 L 1677,495 L 1683,495 L 1685,508 L 1687,508 L 1691,504 L 1695,495 L 1708,496 L 1709,494 L 1711,494 L 1712,497 L 1720,495 L 1737,496 L 1752,495 L 1753,496 L 1752,497 L 1748,497 L 1753,496 L 1755,497 L 1756,502 L 1755,503 L 1738,498 L 1713,499 L 1689,509 L 1680,517 L 1687,525 L 1693,535 L 1700,557 L 1699,586 L 1696,595 L 1687,611 L 1685,608 L 1693,594 L 1697,579 L 1697,558 L 1691,538 L 1679,520 L 1665,508 L 1647,499 L 1634,496 L 1617,496 L 1600,500 L 1584,509 L 1582,508 L 1583,509 L 1567,524 L 1556,543 L 1552,558 L 1553,586 L 1561,605 L 1569,615 L 1567,618 L 1558,606 Z M 1396,494 L 1404,494 L 1405,493 L 1429,493 L 1430,494 L 1432,494 L 1433,493 L 1438,493 L 1440,495 L 1440,497 L 1445,499 L 1445,497 L 1446,496 L 1446,494 L 1447,493 L 1456,493 L 1459,496 L 1459,498 L 1460,499 L 1460,501 L 1461,502 L 1461,505 L 1463,505 L 1463,503 L 1466,498 L 1466,496 L 1469,493 L 1478,493 L 1479,494 L 1481,494 L 1483,496 L 1483,503 L 1484,504 L 1481,507 L 1480,507 L 1477,510 L 1476,510 L 1470,516 L 1470,517 L 1478,526 L 1478,527 L 1480,529 L 1481,532 L 1483,534 L 1483,535 L 1485,538 L 1485,540 L 1486,541 L 1486,542 L 1487,543 L 1487,545 L 1488,546 L 1488,549 L 1489,550 L 1489,554 L 1490,555 L 1490,560 L 1491,561 L 1491,576 L 1490,577 L 1490,582 L 1489,583 L 1489,587 L 1488,588 L 1487,593 L 1485,596 L 1485,598 L 1484,599 L 1482,604 L 1479,608 L 1477,606 L 1477,605 L 1480,601 L 1480,599 L 1483,594 L 1483,592 L 1484,591 L 1484,589 L 1485,588 L 1485,586 L 1486,585 L 1486,581 L 1487,580 L 1487,572 L 1488,571 L 1488,566 L 1487,565 L 1487,556 L 1486,555 L 1486,551 L 1485,550 L 1485,548 L 1484,547 L 1483,542 L 1480,537 L 1480,535 L 1477,531 L 1477,530 L 1475,528 L 1475,527 L 1472,524 L 1472,523 L 1462,513 L 1461,513 L 1454,507 L 1449,505 L 1445,502 L 1443,502 L 1442,501 L 1441,501 L 1440,500 L 1438,500 L 1437,499 L 1434,499 L 1433,498 L 1430,498 L 1429,497 L 1426,497 L 1425,496 L 1420,496 L 1419,495 L 1411,495 L 1410,496 L 1402,496 L 1401,497 L 1398,497 L 1395,495 Z M 1325,494 L 1326,493 L 1332,493 L 1333,494 L 1333,495 L 1334,496 L 1333,497 L 1332,497 L 1331,496 L 1329,496 L 1328,495 L 1326,495 Z M 1342,502 L 1343,501 L 1343,499 L 1344,498 L 1344,495 L 1347,492 L 1355,492 L 1356,493 L 1359,493 L 1360,494 L 1359,495 L 1357,495 L 1359,495 L 1360,494 L 1362,496 L 1362,498 L 1363,499 L 1363,502 L 1364,503 L 1364,505 L 1369,505 L 1369,502 L 1370,501 L 1370,498 L 1371,497 L 1371,495 L 1372,494 L 1373,494 L 1374,493 L 1385,493 L 1386,494 L 1386,498 L 1387,498 L 1388,497 L 1391,497 L 1392,496 L 1394,496 L 1395,495 L 1396,496 L 1397,496 L 1398,497 L 1397,498 L 1394,498 L 1393,499 L 1391,499 L 1390,500 L 1388,500 L 1387,501 L 1386,501 L 1385,502 L 1384,502 L 1383,503 L 1382,503 L 1381,504 L 1380,504 L 1379,505 L 1378,505 L 1376,507 L 1375,507 L 1373,509 L 1372,509 L 1369,512 L 1368,512 L 1360,520 L 1358,518 L 1360,516 L 1355,511 L 1354,511 L 1350,507 L 1349,507 L 1347,505 L 1346,505 L 1345,504 L 1344,504 Z M 1849,493 L 1849,492 L 1850,491 L 1853,491 L 1854,490 L 1865,490 L 1866,491 L 1865,492 L 1862,492 L 1861,493 L 1854,493 L 1853,494 L 1852,493 L 1851,493 L 1850,494 Z M 1114,493 L 1118,490 L 1127,491 L 1130,494 L 1131,500 L 1137,503 L 1141,493 L 1144,491 L 1154,491 L 1158,495 L 1160,505 L 1166,502 L 1170,492 L 1182,492 L 1184,494 L 1207,492 L 1223,495 L 1224,492 L 1247,493 L 1251,505 L 1255,504 L 1261,492 L 1273,493 L 1276,496 L 1277,502 L 1266,509 L 1259,517 L 1266,524 L 1275,540 L 1279,554 L 1280,575 L 1275,596 L 1259,621 L 1278,633 L 1274,634 L 1278,635 L 1279,633 L 1301,640 L 1316,640 L 1336,634 L 1340,635 L 1338,634 L 1348,629 L 1357,621 L 1364,621 L 1371,627 L 1370,628 L 1372,627 L 1395,638 L 1428,642 L 1401,643 L 1394,640 L 1392,643 L 1379,643 L 1376,640 L 1375,632 L 1370,630 L 1368,639 L 1364,643 L 1354,643 L 1351,640 L 1350,631 L 1345,633 L 1344,639 L 1340,643 L 1331,643 L 1330,640 L 1323,643 L 1294,643 L 1288,639 L 1285,643 L 1277,643 L 1273,640 L 1272,633 L 1267,630 L 1264,639 L 1260,643 L 1248,643 L 1245,640 L 1244,631 L 1241,630 L 1260,614 L 1267,604 L 1274,588 L 1277,569 L 1274,548 L 1266,530 L 1250,512 L 1232,501 L 1208,495 L 1186,497 L 1174,502 L 1169,501 L 1172,502 L 1157,512 L 1141,530 L 1132,552 L 1131,579 L 1137,599 L 1148,615 L 1146,618 L 1132,596 L 1128,582 L 1127,563 L 1132,541 L 1143,522 L 1149,516 L 1133,503 Z M 1871,491 L 1873,489 L 1877,489 L 1878,490 L 1882,490 L 1883,491 L 1884,491 L 1885,492 L 1884,493 L 1885,492 L 1886,493 L 1886,494 L 1885,495 L 1886,494 L 1887,495 L 1887,496 L 1886,497 L 1884,497 L 1883,496 L 1882,496 L 1881,495 L 1877,495 L 1876,494 L 1873,494 L 1872,493 L 1872,492 Z M 1830,488 L 1831,487 L 1835,487 L 1837,489 L 1843,489 L 1844,490 L 1843,491 L 1843,492 L 1844,493 L 1843,494 L 1839,494 L 1837,492 L 1836,492 L 1835,493 L 1834,492 L 1831,492 L 1830,491 Z M 1695,490 L 1699,486 L 1707,486 L 1708,487 L 1708,492 L 1707,493 L 1696,493 L 1695,492 Z M 1657,488 L 1659,486 L 1661,486 L 1662,487 L 1663,487 L 1664,488 L 1663,489 L 1664,488 L 1665,488 L 1666,487 L 1668,489 L 1668,490 L 1670,492 L 1669,493 L 1658,493 L 1657,492 Z M 1609,486 L 1610,485 L 1615,485 L 1616,486 L 1618,486 L 1620,488 L 1620,490 L 1618,492 L 1611,492 L 1609,490 Z M 1468,490 L 1469,489 L 1469,487 L 1470,486 L 1470,485 L 1471,484 L 1474,484 L 1475,485 L 1478,485 L 1480,487 L 1480,489 L 1479,490 L 1473,490 L 1472,491 L 1469,491 Z M 1145,488 L 1144,489 L 1143,489 L 1142,488 L 1136,488 L 1135,487 L 1133,487 L 1132,486 L 1133,485 L 1141,485 L 1142,484 L 1144,486 L 1144,487 Z M 1397,484 L 1398,483 L 1403,483 L 1404,484 L 1403,485 L 1401,485 L 1402,486 L 1402,487 L 1403,488 L 1403,489 L 1402,490 L 1399,490 L 1398,489 L 1398,487 L 1397,486 Z M 1145,485 L 1147,483 L 1150,483 L 1153,486 L 1153,487 L 1152,488 L 1148,488 Z M 1894,484 L 1895,483 L 1898,483 L 1899,482 L 1901,484 L 1900,485 L 1900,486 L 1902,486 L 1903,485 L 1905,485 L 1906,486 L 1906,492 L 1908,494 L 1911,494 L 1912,493 L 1913,493 L 1914,492 L 1916,492 L 1918,494 L 1918,495 L 1920,497 L 1920,499 L 1919,500 L 1915,496 L 1911,496 L 1910,497 L 1904,497 L 1903,496 L 1902,496 L 1900,494 L 1897,494 L 1895,492 L 1895,488 L 1896,487 L 1896,486 Z M 1354,482 L 1355,483 L 1357,483 L 1358,484 L 1358,485 L 1357,486 L 1357,488 L 1356,489 L 1355,488 L 1354,489 L 1352,487 L 1352,484 Z M 543,481 L 544,482 L 544,483 L 543,484 L 543,485 L 542,486 L 542,487 L 543,488 L 543,489 L 545,491 L 545,493 L 544,494 L 544,496 L 543,497 L 543,498 L 539,502 L 536,502 L 535,501 L 536,500 L 537,500 L 538,499 L 538,498 L 539,497 L 539,495 L 540,494 L 540,489 L 539,488 L 539,486 L 540,485 L 540,484 Z M 645,605 L 649,598 L 657,595 L 669,601 L 673,596 L 672,587 L 684,577 L 691,582 L 701,573 L 703,554 L 711,536 L 731,514 L 763,500 L 801,504 L 802,489 L 810,491 L 815,481 L 820,482 L 817,480 L 828,482 L 829,494 L 836,494 L 840,483 L 848,483 L 851,497 L 859,484 L 902,492 L 905,486 L 916,486 L 922,499 L 930,486 L 942,487 L 947,500 L 953,498 L 957,487 L 967,487 L 969,494 L 1009,489 L 1016,496 L 1018,489 L 1030,489 L 1036,502 L 1045,489 L 1058,490 L 1063,501 L 1076,490 L 1087,494 L 1062,504 L 1048,515 L 1063,538 L 1069,565 L 1064,595 L 1048,619 L 1060,630 L 1051,643 L 1038,643 L 1034,630 L 1028,633 L 1024,643 L 1011,640 L 978,643 L 969,639 L 967,643 L 956,643 L 947,629 L 941,643 L 929,643 L 924,630 L 915,643 L 905,640 L 856,643 L 852,639 L 853,632 L 854,636 L 895,641 L 890,640 L 917,634 L 934,619 L 939,619 L 957,634 L 1000,640 L 1031,629 L 1051,611 L 1065,577 L 1065,557 L 1059,537 L 1035,508 L 1014,497 L 995,493 L 976,495 L 951,506 L 933,523 L 923,541 L 918,575 L 924,597 L 938,620 L 924,605 L 915,577 L 919,541 L 936,515 L 921,502 L 889,491 L 856,497 L 827,521 L 840,537 L 850,565 L 849,588 L 842,606 L 847,566 L 834,533 L 813,513 L 779,502 L 759,504 L 738,513 L 720,529 L 709,547 L 704,566 L 705,587 L 715,612 L 732,631 L 730,636 L 718,636 L 711,619 L 707,619 L 702,630 L 685,628 L 683,612 L 679,611 L 672,622 L 661,622 L 656,617 L 657,606 L 653,604 L 650,609 Z M 1583,478 L 1582,479 L 1581,479 L 1580,480 L 1580,482 L 1577,485 L 1576,485 L 1575,486 L 1572,486 L 1572,487 L 1574,489 L 1574,490 L 1573,491 L 1570,491 L 1568,489 L 1568,488 L 1567,487 L 1566,487 L 1565,486 L 1566,485 L 1568,485 L 1569,484 L 1569,480 L 1568,479 L 1569,478 L 1579,478 L 1580,477 L 1582,477 Z M 1549,479 L 1550,478 L 1551,478 L 1552,477 L 1554,477 L 1555,478 L 1558,478 L 1559,477 L 1564,477 L 1565,478 L 1564,479 L 1564,484 L 1562,486 L 1559,486 L 1558,485 L 1554,485 L 1551,482 L 1551,481 Z M 656,478 L 657,479 L 659,477 L 662,477 L 663,478 L 663,484 L 664,485 L 664,488 L 665,489 L 665,490 L 669,494 L 668,495 L 667,495 L 666,496 L 665,496 L 664,497 L 662,495 L 663,494 L 665,494 L 665,493 L 664,494 L 663,494 L 662,495 L 658,491 L 659,490 L 660,490 L 661,489 L 662,489 L 658,489 L 657,490 L 656,490 L 653,487 L 652,487 L 651,486 L 652,485 L 652,484 L 653,483 L 653,482 L 655,480 L 655,479 Z M 1854,477 L 1855,476 L 1882,476 L 1884,478 L 1886,478 L 1888,480 L 1888,481 L 1898,481 L 1899,482 L 1898,483 L 1895,483 L 1894,484 L 1892,484 L 1891,483 L 1884,483 L 1883,484 L 1882,484 L 1882,485 L 1881,486 L 1878,486 L 1877,485 L 1875,485 L 1874,484 L 1874,483 L 1873,482 L 1873,481 L 1872,481 L 1869,478 L 1867,478 L 1865,480 L 1864,480 L 1863,481 L 1863,482 L 1862,483 L 1858,483 L 1857,482 L 1857,481 L 1856,480 L 1856,479 Z M 1585,478 L 1586,477 L 1590,477 L 1591,478 L 1596,478 L 1597,477 L 1598,477 L 1599,476 L 1600,477 L 1606,477 L 1607,478 L 1607,481 L 1608,482 L 1608,483 L 1609,484 L 1608,485 L 1607,485 L 1606,486 L 1603,486 L 1601,484 L 1601,479 L 1599,479 L 1597,481 L 1596,481 L 1595,482 L 1595,483 L 1592,486 L 1589,486 L 1587,484 L 1587,479 L 1586,479 Z M 1835,476 L 1836,475 L 1839,475 L 1840,476 L 1849,476 L 1850,477 L 1849,478 L 1848,478 L 1847,479 L 1846,478 L 1847,479 L 1847,483 L 1846,484 L 1844,484 L 1843,485 L 1841,485 L 1840,484 L 1840,482 L 1838,480 L 1838,479 Z M 595,472 L 596,473 L 597,473 L 599,475 L 599,476 L 600,477 L 600,478 L 601,479 L 601,480 L 602,481 L 602,485 L 599,488 L 598,488 L 589,497 L 587,495 L 588,494 L 588,493 L 587,493 L 588,494 L 587,495 L 586,495 L 581,490 L 580,490 L 578,488 L 578,487 L 579,486 L 579,485 L 582,482 L 583,482 L 584,481 L 586,483 L 586,484 L 587,485 L 589,485 L 591,483 L 592,483 L 594,481 L 594,479 L 595,478 L 595,476 L 593,474 Z M 1609,477 L 1610,476 L 1616,476 L 1618,472 L 1635,471 L 1636,473 L 1638,474 L 1642,470 L 1646,470 L 1649,476 L 1652,476 L 1656,473 L 1661,473 L 1662,472 L 1666,472 L 1667,473 L 1666,474 L 1667,473 L 1669,475 L 1671,475 L 1675,473 L 1678,473 L 1681,471 L 1684,473 L 1690,473 L 1691,474 L 1695,471 L 1699,471 L 1700,472 L 1706,472 L 1708,476 L 1710,476 L 1712,478 L 1713,478 L 1715,475 L 1718,474 L 1719,472 L 1767,474 L 1768,476 L 1769,476 L 1770,474 L 1784,474 L 1785,475 L 1789,475 L 1790,474 L 1803,474 L 1804,475 L 1831,475 L 1832,476 L 1829,480 L 1829,484 L 1828,485 L 1824,485 L 1823,484 L 1815,485 L 1813,483 L 1811,478 L 1805,479 L 1803,485 L 1792,485 L 1790,482 L 1790,479 L 1789,478 L 1786,478 L 1783,481 L 1783,484 L 1781,486 L 1773,486 L 1770,484 L 1770,481 L 1771,480 L 1770,481 L 1768,478 L 1763,478 L 1761,479 L 1759,482 L 1758,480 L 1756,480 L 1756,481 L 1754,482 L 1759,482 L 1760,483 L 1759,484 L 1753,484 L 1750,478 L 1747,478 L 1745,479 L 1745,481 L 1749,485 L 1749,487 L 1747,488 L 1747,491 L 1749,491 L 1749,488 L 1750,487 L 1751,488 L 1751,492 L 1750,493 L 1744,493 L 1742,491 L 1743,487 L 1742,486 L 1737,486 L 1732,482 L 1732,479 L 1731,478 L 1725,479 L 1725,481 L 1723,484 L 1717,486 L 1713,485 L 1712,484 L 1712,480 L 1709,479 L 1704,479 L 1703,480 L 1699,479 L 1697,483 L 1694,486 L 1689,486 L 1688,485 L 1685,485 L 1683,483 L 1683,480 L 1682,479 L 1678,479 L 1674,485 L 1666,485 L 1665,484 L 1665,481 L 1663,479 L 1660,479 L 1659,478 L 1655,483 L 1650,483 L 1647,478 L 1642,478 L 1641,481 L 1644,485 L 1645,483 L 1646,484 L 1647,488 L 1644,491 L 1639,490 L 1637,492 L 1632,491 L 1630,489 L 1631,481 L 1629,478 L 1626,478 L 1625,477 L 1622,479 L 1622,481 L 1620,484 L 1616,484 L 1615,485 L 1611,483 L 1611,479 Z M 634,465 L 639,465 L 640,466 L 642,466 L 643,467 L 643,468 L 644,468 L 645,469 L 644,468 L 645,467 L 646,467 L 647,468 L 647,470 L 646,471 L 646,473 L 645,474 L 645,476 L 643,478 L 643,479 L 642,480 L 641,479 L 641,478 L 640,478 L 641,479 L 640,480 L 639,480 L 638,479 L 633,479 L 632,478 L 631,478 L 630,477 L 630,474 L 631,473 L 631,469 L 632,468 L 633,469 L 633,470 L 633,469 L 632,468 L 633,467 L 634,467 L 633,466 Z M 619,465 L 620,466 L 620,467 L 621,468 L 621,475 L 622,476 L 622,477 L 621,478 L 620,478 L 619,477 L 619,476 L 618,477 L 617,477 L 619,477 L 620,478 L 619,479 L 616,479 L 615,480 L 613,480 L 612,479 L 612,478 L 611,477 L 611,476 L 610,475 L 610,467 L 611,466 L 614,466 L 615,467 L 616,467 L 615,467 L 614,466 L 615,465 Z M 593,463 L 594,462 L 595,462 L 596,463 L 595,462 L 597,460 L 599,460 L 601,462 L 602,462 L 603,463 L 601,465 L 598,465 L 597,466 L 596,465 L 595,465 Z M 574,450 L 575,451 L 573,453 L 573,454 L 572,455 L 572,456 L 573,457 L 569,461 L 568,461 L 567,462 L 565,462 L 564,461 L 563,461 L 562,462 L 561,462 L 559,464 L 559,467 L 561,469 L 560,470 L 560,471 L 558,473 L 558,474 L 554,478 L 552,478 L 551,479 L 551,480 L 550,481 L 547,481 L 546,480 L 545,481 L 544,480 L 544,479 L 546,477 L 547,477 L 548,476 L 549,476 L 551,474 L 551,473 L 553,471 L 553,470 L 556,467 L 556,466 L 557,465 L 557,463 L 562,458 L 562,457 L 563,456 L 564,456 L 568,452 L 569,452 L 570,451 L 571,451 L 572,450 Z M 588,446 L 587,447 L 587,448 L 584,451 L 583,451 L 581,449 L 579,449 L 578,450 L 577,450 L 576,449 L 576,447 L 577,446 L 582,446 L 583,445 L 587,445 Z M 636,438 L 633,441 L 624,441 L 623,440 L 624,439 L 628,439 L 629,438 L 632,438 L 633,437 L 635,437 Z M 646,436 L 671,435 L 683,441 L 693,436 L 697,442 L 705,436 L 714,445 L 721,439 L 732,439 L 738,446 L 747,440 L 759,451 L 766,443 L 775,452 L 784,445 L 796,452 L 806,447 L 803,449 L 808,449 L 811,456 L 818,450 L 828,455 L 838,450 L 846,456 L 860,451 L 864,457 L 877,451 L 881,456 L 888,452 L 897,457 L 907,453 L 912,459 L 921,453 L 930,458 L 942,454 L 939,456 L 948,460 L 963,455 L 968,461 L 977,458 L 973,456 L 981,460 L 992,456 L 996,461 L 1007,456 L 1012,461 L 1021,457 L 1025,463 L 1042,458 L 1046,464 L 1055,459 L 1059,465 L 1072,460 L 1076,466 L 1082,466 L 1085,460 L 1092,461 L 1094,466 L 1111,461 L 1116,467 L 1124,461 L 1131,465 L 1128,466 L 1137,467 L 1142,462 L 1152,468 L 1170,462 L 1176,469 L 1183,462 L 1197,469 L 1202,465 L 1209,468 L 1214,465 L 1211,463 L 1220,469 L 1237,463 L 1243,469 L 1259,464 L 1261,470 L 1278,465 L 1289,471 L 1293,465 L 1299,465 L 1302,471 L 1310,468 L 1317,471 L 1319,466 L 1336,471 L 1340,466 L 1349,466 L 1354,472 L 1361,472 L 1365,466 L 1371,469 L 1382,466 L 1388,473 L 1398,467 L 1407,471 L 1434,467 L 1437,472 L 1466,467 L 1472,472 L 1506,469 L 1509,475 L 1548,477 L 1535,486 L 1528,485 L 1524,477 L 1514,480 L 1515,483 L 1509,483 L 1507,477 L 1497,477 L 1494,480 L 1499,487 L 1492,489 L 1482,486 L 1478,477 L 1471,477 L 1468,486 L 1458,486 L 1455,477 L 1441,483 L 1438,476 L 1432,476 L 1427,486 L 1422,487 L 1414,476 L 1405,483 L 1399,478 L 1396,485 L 1389,482 L 1390,477 L 1383,476 L 1381,483 L 1389,483 L 1390,488 L 1382,490 L 1375,482 L 1364,483 L 1361,476 L 1354,476 L 1350,485 L 1339,483 L 1334,476 L 1328,477 L 1324,485 L 1316,483 L 1312,476 L 1305,476 L 1299,486 L 1293,485 L 1291,477 L 1283,476 L 1275,488 L 1265,489 L 1268,484 L 1264,476 L 1257,476 L 1251,488 L 1238,483 L 1227,490 L 1226,484 L 1232,484 L 1231,476 L 1220,477 L 1219,481 L 1224,482 L 1221,489 L 1211,489 L 1207,477 L 1199,476 L 1198,486 L 1189,490 L 1170,485 L 1172,479 L 1178,480 L 1177,476 L 1159,483 L 1154,475 L 1148,475 L 1143,485 L 1133,484 L 1129,475 L 1122,475 L 1121,488 L 1106,481 L 1103,475 L 1095,475 L 1086,482 L 1082,475 L 1075,475 L 1076,484 L 1061,481 L 1058,474 L 1042,482 L 1035,473 L 1030,473 L 1026,480 L 1012,483 L 1009,479 L 1001,481 L 994,473 L 984,473 L 981,481 L 971,482 L 959,471 L 941,477 L 938,470 L 932,470 L 928,478 L 936,476 L 939,482 L 931,483 L 916,476 L 914,470 L 906,470 L 900,479 L 894,479 L 887,469 L 877,469 L 868,476 L 873,480 L 869,482 L 860,480 L 859,474 L 852,475 L 849,467 L 843,466 L 835,474 L 825,475 L 814,464 L 806,463 L 803,469 L 795,470 L 783,459 L 771,464 L 771,459 L 766,458 L 761,465 L 741,454 L 737,462 L 727,462 L 722,451 L 717,450 L 705,458 L 696,458 L 695,452 L 691,457 L 679,453 L 684,444 L 677,442 L 669,448 L 667,440 L 660,440 L 657,445 L 666,452 L 652,455 Z M 1946,415 L 1947,416 L 1947,417 L 1948,417 L 1949,418 L 1949,420 L 1948,421 L 1946,421 L 1945,420 L 1946,421 L 1944,423 L 1944,425 L 1943,426 L 1942,425 L 1942,422 L 1943,421 L 1943,416 L 1944,415 Z M 688,366 L 689,367 L 689,375 L 691,377 L 691,381 L 690,382 L 690,383 L 689,384 L 687,384 L 686,383 L 684,383 L 683,382 L 684,381 L 686,381 L 686,378 L 685,378 L 686,379 L 685,380 L 684,380 L 684,381 L 683,382 L 682,381 L 682,380 L 681,379 L 681,377 L 682,376 L 684,376 L 684,370 L 686,368 L 687,368 L 687,367 Z M 776,311 L 777,310 L 806,310 L 807,311 L 806,312 L 806,313 L 805,314 L 805,315 L 804,316 L 782,316 L 781,315 L 780,316 L 779,315 L 779,314 L 778,313 L 778,312 L 777,312 Z M 1802,304 L 1803,303 L 1804,304 L 1810,304 L 1811,303 L 1812,304 L 1812,310 L 1811,311 L 1803,311 L 1802,310 Z M 149,214 L 150,214 L 151,215 L 154,215 L 155,216 L 157,216 L 158,217 L 160,217 L 161,218 L 162,218 L 163,219 L 164,219 L 165,220 L 165,221 L 166,222 L 166,229 L 165,230 L 165,238 L 163,240 L 162,240 L 160,242 L 158,242 L 157,243 L 155,243 L 154,244 L 149,244 L 148,243 L 149,242 L 153,242 L 149,242 L 148,241 L 148,242 L 147,243 L 146,242 L 146,241 L 145,240 L 145,238 L 144,237 L 144,221 L 145,220 L 145,218 Z M 102,214 L 125,214 L 128,217 L 128,219 L 129,220 L 129,238 L 128,239 L 128,241 L 125,244 L 102,244 L 101,243 L 102,242 L 106,242 L 102,242 L 101,243 L 99,241 L 99,240 L 98,239 L 98,219 L 99,218 L 99,217 Z M 1128,140 L 1129,139 L 1145,139 L 1146,140 L 1147,139 L 1148,140 L 1148,141 L 1147,142 L 1129,142 L 1128,141 Z" fill="black" fill-rule="evenodd"/>
</svg>