<?xml version="1.0" encoding="UTF-8" standalone="no"?>
<svg
   width="700"
   height="250"
   viewBox="0 0 700 250"
   version="1.1"
   id="svg1"
   sodipodi:docname="sdkfz_121_luchs_black.svg"
   inkscape:version="1.4.2 (f4327f4, 2025-05-13)"
   xmlns:inkscape="http://www.inkscape.org/namespaces/inkscape"
   xmlns:sodipodi="http://sodipodi.sourceforge.net/DTD/sodipodi-0.dtd"
   xmlns="http://www.w3.org/2000/svg"
   xmlns:svg="http://www.w3.org/2000/svg">
  <defs
     id="defs1" />
  <sodipodi:namedview
     id="namedview1"
     pagecolor="#ffffff"
     bordercolor="#000000"
     borderopacity="0.25"
     inkscape:showpageshadow="2"
     inkscape:pageopacity="0.0"
     inkscape:pagecheckerboard="0"
     inkscape:deskcolor="#d1d1d1"
     inkscape:zoom="0.78654235"
     inkscape:cx="869.62895"
     inkscape:cy="383.32329"
     inkscape:window-width="2560"
     inkscape:window-height="1377"
     inkscape:window-x="-8"
     inkscape:window-y="-8"
     inkscape:window-maximized="1"
     inkscape:current-layer="svg1" />
  <path
     d="m 45.30952,60.55261 1.243478,15.33623 28.1855,-4.55942 142.170982,2.48696 4.14493,4.97391 35.23188,-0.82899 7.87536,8.70435 6.63188,-3.31595 -3.73044,15.75073 -66.31883,-2.90146 -4.14492,7.87537 -26.52753,20.72463 -8.28985,-2.48695 3.31594,-8.28985 -7.46087,-4.55942 -3.73044,3.73043 3.73044,7.04637 -2.48696,4.55942 -27.35651,1.24348 -17.40869,11.60579 10.77681,8.70435 -7.46087,10.36232 1.65797,3.31594 -4.55942,6.21739 2.48695,4.97392 -2.90144,1.24347 8.70434,23.62608 16.16522,11.1913 h 7.04637 l 5.8029,5.8029 6.21739,-0.41449 4.14493,4.97391 2.90144,-1.65797 6.63189,5.80289 4.97391,-0.82898 3.73043,4.55942 5.38841,-0.82898 26.11303,12.84927 1.65797,-2.48696 4.55942,2.90145 5.38841,-2.48696 3.31594,2.48696 5.38841,-2.48696 4.14492,2.48696 293.87531,-1.24348 20.72463,-8.28985 2.90145,2.07246 14.92169,-6.63188 2.90153,2.07247 5.38835,-4.14494 24.04057,-3.31593 13.67831,-7.46087 11.60579,-19.06666 -2.90145,-23.62609 9.9478,-7.04637 -2.90145,-3.31594 1.24346,-23.21159 16.57976,8.70435 6.63181,-9.94783 -54.71303,-34.40289 h -37.30434 l 1.65799,-13.67826 h -14.92172 l 1.24348,13.67826 H 515.3442 l -3.31594,-12.02029 -8.70435,0.4145 -3.73043,11.60579 h -6.63188 l -3.73044,-5.3884 H 470.1645 l -3.73044,5.3884 h -20.31014 l 15.75073,-11.1913 -24.45507,-46.008688 -7.46087,-1.657976 2.48696,-8.28985 -16.16521,-1.243478 0.82898,7.875359 -70.87824,-2.486956 53.88404,-0.41449 -1.24348,-12.849272 -5.80289,-5.388403 -40.62028,0.41449 -8.70435,19.481153 -52.22608,8.289857 -1.24347,-8.704347 -5.38841,-1.243478 -7.46087,20.31014 -9.53333,-7.046378 -10.77681,8.289857 -36.06086,-0.41449 -4.55942,4.9739 -141.756492,2.07247 -12.434782,-4.14492 z m 262.37385,165.38258 v 0.82898 l -0.41449,0.41449 v 1.24348 l -0.41449,0.41449 v 0.82898 l -0.82899,0.82899 h -8.70434 l -0.41449,-0.41449 0.41449,-0.4145 h 1.65797 l 0.41449,-0.41449 h 0.82899 l 0.41449,0.41449 h 0.41449 -0.41449 l -0.41449,-0.41449 0.41449,-0.41449 h 0.41449 l 0.4145,-0.41449 h 0.41449 l 0.41449,-0.4145 h 0.41449 l 0.4145,-0.41449 h 0.82898 l 0.82899,-0.82898 h 0.41449 l 0.41449,-0.41449 h 0.41449 l 0.82899,-0.82899 h 0.41449 z m -34.81738,0 0.41449,-0.4145 0.82899,0.82899 h 0.41449 l 0.4145,0.41449 h 0.41449 l 0.41449,0.41449 h 0.4145 l 0.41449,0.41449 h 0.41449 l 0.82899,0.82899 h 0.82898 l 0.41449,0.41449 h 0.41449 l 0.4145,0.41449 h 0.82898 l 0.4145,0.41449 h 1.24348 l 0.41449,0.4145 -0.41449,0.41449 h -7.87537 l -0.41449,-0.41449 0.41449,-0.4145 h 1.24348 -0.82898 l -0.4145,-0.41449 v 0.41449 l -0.41449,0.4145 -0.41449,-0.4145 v -0.82898 l -0.4145,-0.41449 v -1.24348 l -0.41449,-0.41449 z m 218.02315,-0.4145 0.41449,-0.41449 h 0.41449 l 0.82899,0.82899 h 0.41449 l 0.82898,0.82898 h 0.41449 l 0.41449,0.41449 h 0.4145 l 0.41449,0.41449 h 0.41449 l 0.4145,0.41449 h 0.41449 l 0.41449,0.4145 h 0.4145 l 0.41449,0.41449 H 498.35 l 0.4145,0.41449 -0.4145,0.41449 h -0.41449 0.41449 l 0.4145,-0.41449 h 0.82898 l 0.41449,0.41449 h 1.65797 l 0.41449,0.4145 -0.41449,0.41449 h -9.11883 l -0.4145,-0.41449 v -0.82899 l -0.41449,-0.41449 v -0.41449 l -0.41449,-0.4145 v -1.65796 l -0.41449,-0.41449 z m -37.71884,0 v 0.4145 l -0.41449,0.41449 v 0.82898 l -0.4145,0.41449 -0.41449,-0.41449 v -0.41449 h -0.41449 l 0.82898,0.82898 v 0.82899 l -0.41449,0.41449 v 0.82898 l -0.41449,0.4145 h -2.07246 l -0.41449,0.41449 H 441.979 l -0.41449,-0.41449 0.41449,-0.4145 h 1.65797 l 0.41449,-0.41449 h 0.82899 l 0.41449,0.41449 h 0.41449 -0.41449 l -0.41449,-0.41449 0.41449,-0.41449 h 0.41449 l 0.41449,-0.41449 h 0.82899 l 0.41449,-0.4145 h 0.4145 l 0.41449,-0.41449 h 0.41449 l 0.82899,-0.82898 h 0.41449 l 0.4145,-0.41449 h 0.41449 l 0.41449,-0.41449 h 0.41449 l 0.82898,-0.82899 h 0.4145 z m -36.06086,0 0.41449,-0.41449 0.82898,0.82899 h 0.4145 l 0.41449,0.41449 h 0.41449 l 0.82899,0.82898 -0.41449,0.41449 h -0.4145 0.4145 l 0.41449,-0.41449 h 0.41449 l 0.4145,0.41449 h 0.41449 l 0.41449,0.41449 h 0.4145 l 0.41449,0.4145 h 0.41449 l 0.41449,0.41449 h 0.82898 l 0.4145,0.41449 h 0.82898 l 0.4145,0.41449 h 1.24348 l 0.41449,0.4145 -0.41449,0.41449 h -7.87537 l -0.41449,-0.41449 h -0.41449 l -0.4145,-0.4145 v -0.41449 l -0.41449,-0.41449 v -0.41449 l -0.41449,-0.4145 v -1.24347 l -0.41449,-0.41449 z m -36.47535,0 v 1.24348 l -0.4145,0.41449 v 0.82898 l -0.41449,0.4145 v 0.82898 l -0.41449,0.41449 v 0.4145 l -0.4145,0.41449 h -9.53333 l -0.41449,-0.41449 0.41449,-0.4145 h 1.24348 l 0.41449,-0.41449 h 1.24348 l 0.4145,0.41449 h 0.41449 -0.41449 l -0.4145,-0.41449 0.4145,-0.41449 h 0.41449 l 0.41449,-0.41449 h 0.82899 l 0.41449,-0.4145 h 0.41449 l 0.41449,-0.41449 h 0.41449 l 0.4145,-0.41449 h 0.41449 l 0.41449,-0.41449 h 0.4145 l 0.82898,-0.82898 h 0.41449 l 0.82899,-0.82899 h 0.41449 z m -36.06087,0 0.4145,-0.41449 0.82898,0.82899 h 0.4145 l 0.82898,0.82898 h 0.41449 l 0.41449,0.41449 h 0.41449 l 0.4145,0.41449 h 0.41449 l 0.41449,0.41449 h 0.4145 l 0.41449,0.4145 h 0.41449 l 0.4145,0.41449 h 0.82898 l 0.4145,0.41449 h 0.82898 l 0.41449,0.41449 h 1.24348 l 0.41449,0.4145 -0.41449,0.41449 h -8.70434 l -0.4145,-0.41449 v -0.82899 l -0.41449,-0.41449 v -0.41449 l -0.41449,-0.4145 v -1.24347 l -0.4145,-0.41449 z m -109.01156,0 v 0.4145 l -0.4145,0.41449 v 0.82898 l -0.41449,0.41449 v 0.82899 l -0.41449,0.41449 v 0.41449 l -0.4145,0.41449 v 0.4145 l -0.41449,0.41449 h -8.70435 l -0.41449,-0.41449 0.41449,-0.4145 h 1.65797 l 0.4145,-0.41449 h 0.41449 l 0.41449,-0.41449 h 0.82899 l 0.41449,-0.41449 h 0.82898 l 0.4145,-0.4145 h 0.41449 l 0.41449,-0.41449 h 0.41449 l 0.4145,-0.41449 h 0.41449 l 0.41449,0.41449 h 0.82899 l 0.41449,0.41449 v -0.82898 l 0.4145,-0.41449 -0.4145,0.41449 h -0.41449 l -0.41449,0.41449 h -0.4145 l -0.41449,-0.41449 0.82899,-0.82898 h 0.41449 l 0.41449,-0.41449 h 0.4145 l 0.82898,-0.82899 z m -37.30435,0.4145 0.4145,-0.4145 h 0.82898 l 0.41449,-0.41449 0.41449,0.41449 h 0.41449 l 0.82899,0.82899 h 0.41449 l 0.4145,0.41449 h 0.41449 l 0.41449,0.41449 -0.41449,0.41449 h -0.82899 l -0.41449,-0.41449 h -0.82899 l -0.41449,-0.41449 h -0.41449 l -0.41449,-0.41449 h -0.82898 z m 330.76515,-2.07247 v 0.82899 l 0.41449,0.41449 v 2.48695 l -0.82899,0.82899 h -1.24347 l -0.41449,-0.4145 h -0.82899 0.82899 l 0.41449,0.4145 -0.41449,0.41449 h -1.24348 l -0.41449,0.41449 h -1.65798 l -0.41449,0.41449 h -1.65797 l -0.4145,0.4145 h -3.31593 l -0.4145,-0.4145 0.4145,-0.41449 h 0.82898 l 0.4145,-0.41449 h 0.82898 l 0.41449,-0.41449 h 0.41449 l 0.41449,-0.4145 h 0.82899 l 0.82899,-0.82898 h 0.41449 l 0.41449,-0.41449 h 0.4145 l 0.41449,-0.41449 h 0.41449 l 0.82899,-0.82899 h 0.41449 l 1.24348,-1.24348 h 0.41449 l 0.82898,-0.82898 z m -332.42312,-1.65797 1.65797,1.65797 -0.82898,0.82899 h -0.4145 l -0.41449,-0.4145 0.41449,0.4145 h 0.4145 l 0.41449,0.41449 -0.41449,0.41449 h -0.82899 l -0.82899,-0.82898 v -0.82899 l 0.4145,-0.41449 v -0.82899 z M 360.32395,196.5062 h 0.82898 l 0.41449,0.4145 h 1.65797 l 0.41449,-0.4145 h 1.24348 l 0.4145,0.4145 h 0.41449 l 2.07246,2.07246 v 0.41449 l 0.41449,0.4145 v 0.41449 l 0.4145,0.41449 v 3.31594 l -0.4145,0.4145 v 0.82898 l -2.48695,2.48695 h -0.41449 l -0.4145,0.4145 h -1.24348 l -0.41449,0.41449 h -1.65797 l -0.41449,-0.41449 h -0.82898 l -0.4145,-0.4145 h -0.82898 l -2.07247,-2.07245 v -0.4145 l -0.41449,-0.41449 v -0.82899 l -0.41449,-0.41449 v -2.48696 l 0.41449,-0.41449 v -0.82898 l 0.41449,-0.4145 v -0.41449 l 1.65798,-1.65797 h 0.41449 l 0.41449,-0.41449 h 0.41449 z m -73.36521,0.4145 h 0.41449 l 0.4145,-0.4145 h 1.24348 l 0.41449,0.4145 h 1.24348 l 0.41449,-0.4145 h 1.24348 l 0.41449,0.4145 h 0.41449 l 0.41449,0.41449 h 0.4145 l 1.24348,1.24348 v 0.41449 l 0.41449,0.41449 v 0.4145 l 0.41449,0.41449 v 0.82898 l 0.4145,0.41449 v 1.65798 l -0.4145,0.41449 v 1.24348 l -0.82898,0.82899 v 0.41449 l -1.24348,1.24347 h -0.4145 l -0.41449,0.41449 h -0.41449 l -0.41449,0.4145 h -1.24348 l -0.41449,0.41449 h -1.24348 l -0.41449,-0.41449 h -1.24348 l -0.4145,-0.4145 h -0.41449 l -0.82899,-0.82898 h -0.41449 l -0.41449,-0.41449 v -0.41449 l -0.82898,-0.82899 v -0.41449 l -0.41449,-0.41449 v -4.14493 l 0.41449,-0.41449 v -0.4145 z M 215.666,196.5062 h 0.82899 l 0.41449,0.4145 h 1.65797 l 0.4145,-0.4145 h 1.24348 l 0.41449,0.4145 h 0.41449 l 2.07246,2.07246 v 0.41449 l 0.41449,0.4145 v 0.41449 l 0.4145,0.41449 v 3.31594 l -0.4145,0.4145 v 0.41449 l -0.41449,0.41449 v 0.4145 l -2.07246,2.07245 h -0.41449 l -0.41449,0.4145 h -1.24348 l -0.4145,0.41449 h -1.65797 L 216.49499,208.112 H 215.666 l -0.41449,-0.4145 h -0.4145 l -0.41449,-0.41449 h -0.41449 l -1.65797,-1.65796 v -0.4145 l -0.41449,-0.41449 v -1.24348 l -0.41449,-0.41449 v -2.07247 l 0.41449,-0.41449 v -0.82898 l 0.41449,-0.4145 v -0.41449 l 1.24348,-1.24348 h 0.41449 l 0.82898,-0.82898 h 0.4145 z m 292.21733,-0.41449 h 1.65797 l 0.4145,0.41449 -0.4145,0.4145 h -1.24348 1.24348 l 0.4145,-0.4145 h 0.82898 l 0.41449,0.4145 h 0.82899 l 2.48695,2.48695 v 0.4145 l 0.41449,0.41449 v 1.24347 l 0.4145,0.4145 v 1.24348 l -0.4145,0.41449 v 1.24348 l -0.82898,0.82899 v 0.41449 l -0.82898,0.82898 h -0.41449 l -0.82899,0.82898 h -0.41449 l -0.4145,0.4145 h -1.24347 l -0.4145,0.41449 h -1.65797 l -0.41449,-0.41449 h -0.82899 l -0.41449,-0.4145 h -0.41449 l -0.41449,-0.41449 h -0.41449 l -1.24348,-1.24347 v -0.41449 l -0.4145,-0.4145 v -0.41449 l -0.41449,-0.41449 v -0.4145 l -0.41449,-0.41449 v -2.48696 l 0.41449,-0.41449 v -0.82898 l 0.82899,-0.82899 v -0.41449 l 0.82898,-0.82899 h 0.4145 l 0.82898,-0.82898 h 0.41449 l 0.41449,-0.4145 h 0.82899 z m -73.77969,0 h 1.65797 l 0.41449,0.41449 -0.41449,0.4145 h -1.24348 1.24348 l 0.41449,-0.4145 h 0.82899 l 0.41449,0.4145 h 0.41449 l 0.41449,0.41449 h 0.41449 l 1.65798,1.65797 v 0.41449 l 0.41449,0.4145 v 0.41449 l 0.41449,0.41449 v 3.31594 l -0.41449,0.4145 v 0.82898 l -2.48696,2.48695 h -0.41449 l -0.41449,0.4145 h -1.24348 l -0.41449,0.41449 h -1.65797 l -0.41449,-0.41449 h -1.24348 l -0.4145,-0.4145 h -0.41449 l -2.07246,-2.07245 v -0.4145 l -0.41449,-0.41449 v -0.41449 l -0.41449,-0.4145 v -3.31594 l 0.41449,-0.41449 v -0.41449 l 0.41449,-0.4145 v -0.41449 l 1.65797,-1.65797 h 0.41449 l 0.41449,-0.41449 h 0.4145 l 0.41449,-0.4145 h 0.82899 z m 143.41442,16.57971 v 2.07246 l 0.41454,0.41449 -1.24346,0.82899 h -1.24353 l -0.41446,0.41449 h -1.24345 l -0.41454,0.41449 h -0.82899 l -0.41446,-0.41449 v -0.41449 l -1.24346,-1.65797 -0.82899,-2.07246 h -0.829 l -0.41454,0.41449 h -1.24345 l -0.41446,0.41449 h -0.41454 v 4.97391 l -0.41446,0.4145 h -0.82899 l -0.41454,0.41449 h -1.24345 l -0.41446,0.41449 h -1.24353 l -0.41446,0.4145 h -0.41446 l -1.24353,-1.65798 -1.24346,-2.90145 h -0.829 l -0.41446,0.41449 h -1.65799 l -0.41446,0.4145 h -0.41453 v 4.97391 l -0.41446,0.41449 h -0.41454 l -0.41446,-0.41449 0.41446,-0.41449 -0.41446,0.41449 h -0.82899 0.82899 l 0.41446,0.41449 -0.41446,0.41449 h -1.24345 l -0.41454,0.4145 h -1.24345 l -0.41454,0.41449 h -0.829 l -0.82895,-0.82899 v -0.41449 l -1.65796,-2.90144 h -2.07247 l -0.41449,0.41449 h -0.82899 l -0.41449,0.41449 v 2.48695 l -0.41449,0.4145 v 2.07246 l -0.4145,0.4145 h -1.24347 l -0.41449,0.41449 h -1.24348 l -0.41449,0.41449 h -0.82899 l -0.41449,0.4145 h -1.24348 l -0.4145,0.41449 h -0.41449 l -0.82899,-0.82899 -1.65796,-3.73044 -2.07247,-1.24347 v -0.41449 l 2.48696,-3.31595 v -0.41449 l 2.07246,-3.73043 v -0.82899 l 0.41449,-0.41449 v -0.82899 l 0.4145,-0.41449 v -1.24348 l 0.41449,-0.41449 v -1.65797 l 0.41449,-0.41449 v -8.28985 l -0.41449,-0.4145 v -1.65797 l -0.41449,-0.41449 v -1.24348 l -0.4145,-0.4145 v -0.82898 l -0.41449,-0.41449 v -0.82898 l 0.41449,-0.4145 h 19.0667 v -0.82898 l 0.41446,-0.41449 0.41446,0.41449 v 0.82898 l 0.41454,0.4145 v 0.82898 l 0.41446,0.41449 v 0.82898 l 0.82899,1.24348 v 0.82899 l 0.41454,0.41449 v 0.4145 l 0.82892,0.82898 0.829,2.07247 0.82899,0.82898 v 0.41449 l 1.65799,1.65797 v 0.4145 l 2.90145,2.90145 h 0.41446 l 1.65799,1.65796 h 0.41454 l 2.07245,1.65798 h 0.41446 l 3.73044,2.07246 2.07245,0.41449 z m -10.36225,-17.4087 0.829,-0.82898 0.41445,0.41449 0.41446,-0.41449 v -0.4145 l 1.24354,-1.24347 h 0.41446 l 0.82899,-0.82898 h 0.41446 l 0.829,-0.82899 h 0.82899 l 0.41454,-0.41449 h 0.82892 l 0.41453,-0.41449 h 0.829 l 0.41446,0.41449 h 0.82899 -0.82899 l -0.41446,-0.41449 0.41446,-0.4145 h 1.24345 l 0.41454,0.4145 v 0.41449 h 0.41446 l 1.24353,1.24348 h 0.41446 l 0.41446,0.41449 h 0.41454 l 0.41446,0.41449 h 0.41453 l 0.41446,0.41449 h 0.41454 l 0.41446,0.41449 v 0.82899 l 0.41453,0.41449 v 8.28986 l -0.41453,0.41449 v 0.41449 l -1.24346,1.24348 h -1.65799 l -0.41446,-0.41449 h -1.24353 l -0.41446,-0.41449 h -0.829 l -0.41446,-0.4145 h -0.41453 l -0.41446,-0.41449 h -0.41454 l -0.41446,-0.41449 h -0.41453 l -0.41446,-0.4145 h -0.41446 l -0.829,-0.82898 h -0.41453 l -0.829,-0.82899 h -0.41446 l -2.48699,-2.48695 v -0.41449 l -1.24345,-1.24348 v -0.4145 l -0.41446,-0.41449 z m 37.30434,-0.82898 v 0.41449 l -0.41453,0.41449 v 0.4145 l -0.41446,0.41449 v 0.41449 l -1.24353,1.24348 v 0.4145 l -2.07245,2.07246 h -0.41446 l -1.65799,1.65797 h -0.41446 l -0.829,0.82898 h -0.41454 l -0.41446,0.4145 h -0.41446 l -0.41453,0.41449 h -0.41446 l -0.41454,0.41449 h -0.41446 l -0.41453,0.4145 h -0.829 l -0.41446,0.41449 h -1.24345 l -0.41454,0.41449 h -0.41446 l -0.82899,-0.82898 v -0.4145 l -0.41446,-0.41449 v -0.41449 l -0.41454,-0.4145 v -0.82898 l -0.41446,-0.4145 v -6.63188 l 0.41446,-0.41449 v -0.82899 l 0.41454,-0.41449 h 0.41446 l 0.41446,-0.41449 h 0.41453 l 0.829,-0.82898 h 0.41446 l 0.82899,-0.82899 h 0.41446 l 1.65799,-1.65797 h 1.65799 l 0.41446,0.41449 h 0.829 l 0.41454,0.4145 h 0.41446 l 0.41453,0.41449 h 0.82892 l 0.829,0.82898 h 0.41453 l 0.41446,0.4145 h 0.41454 l 0.41446,0.41449 -0.41446,0.41449 0.41446,-0.41449 0.41446,0.41449 h 0.41453 z m -463.40283,-7.87536 h 2.48696 l 0.4145,0.41449 h 0.41449 l 0.41449,0.41449 h 0.41449 l 0.41449,0.4145 v 0.41449 l 0.41449,0.41449 v 0.4145 l 0.4145,0.41449 v 4.97391 l -0.4145,0.41449 v 0.41449 l -0.82898,0.82899 h -1.24347 l -0.4145,-0.41449 h -1.24348 l -0.41449,-0.4145 h -0.82899 l -0.41449,-0.41449 h -0.82899 l -0.41449,-0.41449 h -0.41449 l -0.41449,-0.4145 h -0.41449 l -1.65797,-1.65796 0.41449,-0.41449 v -0.4145 l 0.41449,-0.41449 v -0.41449 l 0.4145,-0.41449 v -0.4145 l 0.82898,-0.82898 v -0.4145 l 1.65797,-1.65797 h 0.41449 z m 16.99421,0 2.48695,2.48696 v 0.41449 l 0.41449,0.41449 v 0.4145 l 0.41449,0.41449 v 0.82898 l 0.4145,0.4145 v 0.41449 l -1.65798,1.65796 h -0.41449 l -0.41449,0.4145 h -0.41449 l -0.41449,0.41449 h -0.82899 l -0.41449,0.41449 h -0.82899 l -0.41449,0.4145 h -1.65797 l -0.4145,0.41449 h -1.24347 l -0.41449,-0.41449 v -0.4145 l -0.41449,-0.41449 v -0.41449 l -0.4145,-0.4145 v -2.48695 l 0.4145,-0.41449 v -2.07246 l 0.41449,-0.4145 v -0.41449 l 0.82898,-0.82899 h 0.41449 l 0.41449,-0.41449 h 0.4145 l 0.41449,-0.41449 h 0.82899 l 0.41449,-0.41449 h 1.24348 l 0.41449,0.41449 z m 4.55941,-4.97391 0.4145,-0.4145 h 1.24348 l 0.41449,0.4145 -0.41449,0.41449 h -0.82899 0.41449 l 0.4145,0.41449 h 0.82898 l 0.4145,-0.41449 h 0.41449 l 0.41449,0.41449 h 0.82898 l 0.41449,0.4145 h 0.4145 l 0.41449,0.41449 h 0.41449 l 0.41449,0.41449 h 0.4145 l 0.41449,0.4145 v 0.82898 l -0.41449,0.41449 v 0.4145 l -0.4145,0.41449 v 0.41449 l -0.82898,0.82898 h -2.07246 l -0.41449,-0.41449 h -0.41449 l -2.07247,-2.07246 v -0.41449 l -0.82899,-0.82899 v -0.41449 l -0.41449,-0.41449 v -0.4145 l 0.41449,-0.41449 z m -27.35651,-0.4145 0.41449,0.4145 -0.41449,0.41449 h -2.07247 2.07247 l 0.41449,-0.41449 0.41449,0.41449 v 2.07247 l -0.41449,0.41449 v 0.41449 l -0.41449,0.41449 v 0.4145 l -2.07247,2.07246 h -0.41449 l -0.41449,0.41449 h -0.4145 l -0.41449,0.41449 -0.41449,-0.41449 h -0.41449 l -1.65797,-1.65797 v -0.41449 l -0.82899,-0.82899 v -0.41449 l -0.41449,-0.41449 v -0.41449 l 0.41449,-0.4145 h 1.24348 -1.24348 l -0.41449,0.4145 -0.41449,-0.4145 v -0.41449 l 0.41449,-0.41449 h 1.65797 l 0.4145,-0.4145 h 0.41449 l 0.41449,-0.41449 h 0.41449 l 0.41449,-0.41449 h 0.41449 l 0.4145,-0.4145 z m 399.15643,5.38841 2.07246,4.14493 -0.41449,1.24348 -3.73043,-6.63189 -3.31594,-3.73043 -5.38841,-4.14493 -5.3884,-2.48696 -5.3884,-1.24348 h -8.28986 l -7.87536,2.48696 -5.3884,3.31594 -6.63188,7.04638 -2.48696,4.55942 -2.07247,7.46087 v 7.46087 l 1.65797,6.63188 3.73044,6.63188 5.38841,5.38841 -0.4145,0.41449 h -3.31594 l -0.82899,4.14492 -0.82898,1.24348 -0.41449,-0.41449 h -3.31595 l -0.41449,0.41449 -0.82899,-1.65797 -0.41449,-3.31594 -0.82898,-0.82898 h -2.48696 l -0.82898,0.82898 -1.24348,4.97391 -8.28986,-0.41449 -0.82898,-1.24348 -0.41449,-3.73043 -1.24348,-0.41449 -0.41449,0.41449 h -2.48696 l -0.82899,4.97391 -1.65797,0.41449 -1.24347,-1.65797 -0.82899,-3.73043 h -2.07246 l -0.82899,-0.82899 4.14493,-4.14492 2.07246,-2.90145 3.31595,-7.46087 0.41449,-3.73043 0.41449,-0.41449 v -7.04638 l -0.41449,-0.41449 -0.41449,-3.31595 -1.24348,-2.90144 0.41449,-1.24348 1.24348,0.82898 h 2.07246 l 2.90145,0.82899 h 6.63188 l 2.48696,-0.82899 h 3.73043 v -0.82898 l 3.73044,-6.63188 4.97391,-4.97392 6.63188,-4.14493 3.31594,-1.24348 3.31594,-0.41449 0.4145,-0.41449 h 2.48695 l 0.41449,-0.41449 h 4.97392 l 0.41449,0.41449 4.14492,0.41449 7.46087,2.90145 3.73044,2.48696 4.97391,4.97391 z m -73.3652,0.82898 1.24348,2.48696 -0.41449,1.24348 -4.14493,-6.63188 -4.55942,-4.55943 -4.14492,-2.90144 -4.55943,-2.07247 -4.97391,-0.82898 -0.41449,-0.4145 h -8.28985 l -7.04638,2.07247 -5.8029,3.31594 -5.3884,4.97392 -2.90145,4.14492 -2.07246,4.14493 -1.65797,6.21739 v 7.04638 l 0.41449,0.41449 0.41449,3.73043 1.65798,4.55942 3.73043,5.8029 4.97391,4.55942 -0.41449,0.41449 h -2.90145 l -0.41449,0.41449 -0.4145,2.90145 -1.24348,2.07246 -0.41449,-0.82899 h -2.90144 l -0.4145,-0.41449 -0.41449,0.82899 -1.24348,-4.97391 h -3.73043 l -1.65797,5.3884 -0.4145,-0.41449 h -5.80289 l -0.82899,-1.65797 -0.41449,-3.31594 -0.82899,-0.41449 -3.31594,0.41449 -0.82898,4.55941 -1.24348,0.82899 h -1.24348 l -0.82899,-0.82899 -1.24348,-4.55941 h -2.90144 l -0.41449,-0.41449 6.21739,-6.63189 3.73043,-7.87536 0.41449,-3.31594 0.41449,-0.41449 v -8.28985 l -2.07246,-7.04638 0.41449,-0.41449 0.82899,0.82898 1.24348,-0.41449 4.9739,1.24348 h 4.97392 l 2.48695,-0.82899 h 2.90146 l 2.07246,-4.55942 3.73043,-4.97391 3.73044,-3.31594 6.21739,-3.73044 6.63188,-2.07246 h 2.90145 l 0.41449,-0.41449 h 4.97391 l 0.41449,0.41449 4.14493,0.41449 7.87537,3.31595 4.14492,2.90144 3.31594,3.31595 z m -72.12172,0.82899 -0.41449,1.24348 -2.90145,-4.55942 -4.97391,-4.97392 -4.97392,-3.31593 h -0.82898 l -2.07246,-1.24348 -6.21739,-1.65798 h -8.28986 l -6.21739,1.65798 -6.21739,3.31594 -6.21739,5.8029 -2.90145,4.14492 -2.90145,7.46087 v 1.65797 l -0.41449,0.4145 v 8.28985 l 1.24348,4.97391 2.48696,5.3884 2.07246,2.90146 4.97391,4.97391 -0.41449,0.41449 h -2.48696 l -1.24347,4.97391 -0.4145,0.41449 h -2.48695 l -0.4145,-0.41449 0.4145,-0.4145 h 2.07246 -2.48696 l -0.41449,0.82899 h -0.82899 l -0.82898,-0.82899 -0.82899,-4.55941 h -3.73043 l -0.82899,3.73043 -1.24348,1.65797 -0.82898,-0.41449 h -4.55942 l -1.24348,-4.97391 -2.90144,-0.41449 -0.82899,0.41449 -1.24348,4.97391 -0.41449,0.41449 h -2.90145 l -0.41449,-0.41449 0.41449,-0.4145 h 1.65797 l -0.41449,-0.41449 h -0.82899 l -0.82898,0.82899 -0.41449,-0.4145 -0.82899,-4.14492 -0.82898,-0.82898 -0.4145,0.41449 h -1.65797 l -0.41449,-0.41449 5.3884,-5.38841 1.65797,-2.48696 2.90146,-6.63188 0.41449,-3.31594 0.41449,-0.41449 v -8.28985 l -2.07246,-7.46087 0.41449,-0.41449 0.82899,1.24347 h 3.31593 l 2.48696,0.82899 h 5.3884 l 2.48696,-0.82899 h 2.90145 l 1.65797,-4.14493 2.90145,-4.14492 5.8029,-5.3884 6.21739,-3.31595 5.80289,-1.65797 h 2.90145 l 0.4145,-0.41449 h 4.97391 l 8.28985,2.07246 4.14493,2.07247 4.14492,2.90144 3.31594,3.31595 z m -125.59127,0.82899 0.41449,-0.4145 0.41449,-1.24348 0.82898,-0.82898 0.41449,-1.24348 1.24348,-1.24347 v -0.4145 l 4.55942,-4.55942 h 0.41449 l 0.82899,-0.82898 h 0.41449 l 2.07247,-1.65797 1.24348,-0.4145 0.82898,-0.82898 h 0.82899 l 1.24347,-0.82899 h 0.82899 l 0.41449,-0.41449 h 0.82899 l 0.41449,-0.4145 h 1.24348 l 0.41449,-0.41449 h 1.65797 l 0.41449,-0.41449 h 2.07246 l 0.4145,-0.41449 h 4.55942 l 0.41449,0.41449 h 2.48696 l 0.41449,0.41449 h 1.65797 l 0.4145,0.41449 h 0.82898 l 0.41449,0.4145 h 0.82898 l 0.4145,0.41449 h 0.82898 l 0.4145,0.41449 h 0.82898 l 0.41449,0.4145 1.24348,0.41449 0.82899,0.82899 1.24347,0.41449 2.07247,1.65797 h 0.41449 l 5.3884,5.38841 v 0.41449 l 1.24348,1.24348 0.4145,1.24347 0.82898,0.82899 v 0.41449 l 0.82899,1.24348 v 0.82899 l -0.41449,0.41449 -0.4145,-0.41449 v -0.4145 l -0.82898,-0.82898 v -0.4145 l -0.4145,-0.41449 -0.41449,-1.24348 -1.24348,-1.24347 v -0.4145 l -1.65796,-1.65797 v -0.41449 l -2.07247,-2.07247 h -0.41449 l -1.65798,-1.65797 h -0.41449 l -1.24348,-1.24347 h -0.41449 l -0.82898,-0.82899 h -0.41449 l -0.4145,-0.41449 h -0.41449 l -0.41449,-0.41449 h -0.4145 l -1.24347,-0.82899 H 300.637 l -1.24348,-0.82899 h -1.24347 l -0.41449,-0.41449 h -1.24348 l -0.4145,-0.41449 h -1.65797 l -0.41449,-0.4145 h -7.87537 l -0.41449,0.4145 h -1.65796 l -0.4145,0.41449 h -1.24347 l -0.4145,0.41449 h -0.82898 l -0.4145,0.4145 h -0.82898 l -0.4145,0.41449 h -0.41449 l -0.41449,0.41449 h -0.41449 l -1.24348,0.82899 h -0.82898 l -0.82899,0.82899 -1.24348,0.41449 -1.24348,1.24347 h -0.41449 l -2.48695,2.48696 h -0.4145 l -0.41449,0.41449 v 0.4145 l -2.48696,2.48695 v 0.4145 l -1.65797,2.07246 -0.41449,1.24348 -0.82898,0.82898 -0.41449,-0.41449 z m -109.01158,17.40869 2.48696,-2.48696 1.65797,-0.41449 -0.41449,-1.24348 0.82898,-0.82899 3.31594,-1.24347 2.07247,1.65797 0.82898,-0.4145 v -2.07246 l 1.24348,-1.24347 1.65797,-0.4145 1.24347,1.24348 2.90146,-2.07246 -0.82899,-2.48696 2.48695,-2.90145 h 2.90145 l 1.24348,-1.24347 -0.82898,-1.65798 0.41449,-0.82898 0.41449,0.41449 -0.82898,-1.24348 0.82898,-2.07246 h 15.75072 l 4.14493,-4.97392 7.87536,-4.97391 9.94782,-2.48695 7.46087,0.41449 5.8029,1.65797 8.70434,5.3884 4.55943,4.97392 3.31593,6.63188 13.26377,0.4145 3.31595,-0.4145 0.82898,-1.65797 h 0.82899 l -2.48696,7.87536 v 9.53333 l 1.24348,4.55942 2.90144,5.8029 5.38841,6.21739 -1.24348,0.41449 1.24348,-0.41449 1.24347,0.82899 -2.90144,0.41449 -1.65797,4.97391 h -3.73043 l -1.24348,-4.55942 -1.24348,-0.82898 h -2.07247 l -0.82898,0.82898 -1.24348,4.97391 h -6.63188 l -0.82898,-0.82899 -0.82899,-4.55941 -1.24348,-0.41449 -2.48696,0.41449 -1.65797,4.97391 -1.65796,-1.24348 -0.82899,0.41449 v 1.24348 l -0.82899,-0.41449 -1.24348,-4.97391 -2.48695,-0.82899 6.21739,-7.04637 3.31594,-7.87536 0.82898,-4.14493 v -5.8029 l -0.82898,-4.14493 -2.90145,-7.04637 -2.48695,-3.73043 -4.14493,-4.14493 -8.28985,-4.97391 -6.21739,-1.65798 h -8.28986 l -7.04638,2.07247 -7.46086,4.55942 -6.2174,7.04637 -3.73043,9.11884 -0.41449,9.53334 1.24348,5.3884 3.31593,6.63188 -3.73043,4.14493 -4.55941,-1.65797 v -0.82898 h -1.24348 l 0.82899,-4.97392 -3.31595,-0.82899 -2.90145,3.73044 -4.55942,-2.07247 0.82899,-4.97391 -3.31594,-1.24347 -2.48696,3.31594 -1.24348,-0.41449 1.24348,0.41449 -0.41449,0.82898 -4.97391,-2.48695 v -5.3884 l -2.48696,-0.82899 -3.31594,3.73043 -2.48696,-0.82899 z m 403.30138,-35.23187 0.41446,0.41449 v 0.82898 l -0.41446,0.41449 v 0.41449 l -0.41453,0.41449 v 0.82899 l -0.41446,0.41449 v 0.82899 l -0.41454,0.41449 v 1.24348 l -0.41446,0.4145 v 1.65796 l -0.41446,0.41449 v 8.28986 l -0.41453,0.41449 -0.41446,-0.41449 V 179.512 l 0.41446,-0.41449 v -1.65797 l 0.41453,-0.41449 v -1.24348 l 0.41446,-0.41449 v -0.82899 l 0.41446,-0.41449 v -0.82899 l 0.41454,-0.41449 v -0.41449 l 0.41446,-0.41449 v -0.41449 z m 42.27825,-0.82899 0.41446,0.41449 h 0.82899 l 0.41454,-0.41449 h 0.41446 l 0.41446,-0.41449 h 0.41453 l 1.24346,1.24348 v 0.41449 l -0.41446,0.41449 0.41446,-0.41449 0.82899,0.82898 v 0.41449 l 0.829,0.82898 v 0.4145 l 0.41446,0.41449 v 0.41449 l 0.41454,0.4145 v 0.82898 l 0.41445,0.4145 v 0.41449 l 0.41454,0.41449 v 1.24348 l 0.41446,0.41449 v 1.65797 l 0.41446,0.41449 v 4.14493 l -0.41446,0.4145 v 0.41449 l -1.24345,1.24347 h -2.48699 l -0.41446,-0.41449 h -0.829 l -0.41453,-0.41449 h -0.82892 l -0.41454,-0.41449 h -0.82899 l -0.41446,-0.41449 h -0.41454 l -0.41446,-0.4145 h -0.41446 l -0.41453,-0.41449 h -0.41446 l -0.41454,-0.41449 h -0.41446 l -0.829,-0.82899 v -2.07246 l -0.41446,-0.4145 v -0.41449 l -0.41453,-0.41449 V 179.512 l -0.41446,-0.41449 v -0.41449 l -0.41454,-0.41449 v -0.41449 l 0.41454,-0.4145 v -0.82898 l 0.41446,-0.4145 v -0.41449 l 0.82899,-0.82899 v -0.41449 l 1.24346,-1.24348 v -0.41449 z m -30.258,-0.41449 0.41454,0.41449 -0.41454,0.41449 h -0.41446 l -0.41454,0.4145 h 0.829 v -0.4145 l 0.41454,-0.41449 h 0.41446 l 0.41453,0.41449 h 0.41446 l 3.31591,3.31594 v 0.41449 l 0.82899,0.82899 v 0.41449 l 0.41454,0.41449 v 0.4145 l 0.82899,0.82898 v 1.24348 l -0.41453,0.41449 v 0.41449 l -0.41446,0.41449 v 0.82899 l -0.41454,0.41449 v 2.48696 l -1.24345,1.24348 h -0.41446 l -0.41454,0.41449 h -0.41446 l -0.41453,0.4145 h -0.41446 l -0.41454,0.41449 h -0.41446 l -0.41446,0.41449 h -0.41453 l -0.41446,0.41449 h -0.829 l -0.41454,0.41449 h -1.24345 l -0.41446,0.4145 h -1.65799 l -0.41454,-0.4145 h -0.82892 l -0.82899,-0.82898 v -0.41449 l -0.41454,-0.41449 v -4.55943 l 0.41454,-0.41449 v -1.65797 l 0.41446,-0.41449 v -1.24348 l 0.41453,-0.41449 v -0.82899 l 0.41446,-0.41449 v -0.41449 l 0.41446,-0.4145 v -0.41449 l 0.41454,-0.41449 v -0.4145 l 0.41446,-0.41449 v -0.41449 l 0.41453,-0.41449 0.41446,0.41449 -0.41446,-0.41449 0.41446,-0.41449 v -0.41449 l 1.24354,-1.24348 h 0.41445 l 0.41446,-0.41449 z m -422.36801,-0.4145 h 0.4145 l 0.41449,0.4145 h 1.24348 -1.24348 l -0.41449,-0.4145 0.41449,-0.41449 h 2.07246 l 0.82899,0.82899 -0.41449,0.41449 0.41449,0.41449 0.41449,-0.41449 0.82899,0.82899 v 0.82898 l 0.41449,0.41449 -0.41449,0.41449 v 0.41449 l -0.41449,0.41449 v 0.4145 l -0.82899,0.82898 h -0.41449 l -0.4145,0.4145 h -2.07246 l -0.41449,-0.4145 h -0.4145 l -0.82898,-0.82898 v -0.4145 l -0.4145,-0.41449 v -1.65796 l 0.4145,-0.41449 v -0.82899 z m -23.21158,0.4145 0.41449,-0.4145 h 0.41449 l 0.41449,-0.41449 h 1.65797 l 0.4145,0.41449 h 1.65797 l 0.41449,0.4145 h 0.82899 l 0.41449,0.41449 h 0.41449 l 0.41449,0.41449 h 0.41449 l 1.24348,1.24348 v 3.31594 l -2.07246,2.07246 h -0.41449 l -0.41449,0.4145 h -0.41449 l -0.4145,0.41449 h -0.82898 l -0.4145,0.41449 h -0.82898 l -0.4145,-0.41449 0.4145,0.41449 -0.4145,0.41449 h -1.65797 l -0.41449,-0.41449 v -0.82898 l -0.41449,-0.4145 v -2.07246 l -0.41449,-0.4145 z m 46.42317,-1.24348 h 1.24348 l 0.82899,0.82898 -0.41449,0.4145 0.41449,-0.4145 h 0.41449 l 0.41449,0.4145 v 0.41449 l 0.41449,0.41449 v 1.24348 l 0.41449,0.41449 v 0.82898 l -0.41449,0.41449 v 2.90146 l -0.41449,0.41449 v 0.82899 l -0.41449,0.41449 v 0.82898 l -0.41449,0.41449 h -2.07247 l -0.41449,-0.41449 h -0.82899 l -0.41449,-0.41449 h -0.82898 l -0.4145,-0.41449 h -0.41449 l -0.82898,-0.82899 h -0.41449 l -0.41449,-0.41449 v -0.41449 l -0.4145,-0.4145 v -2.07246 l 0.4145,-0.4145 v -1.65796 l 0.41449,-0.41449 v -0.41449 l 0.41449,-0.4145 0.41449,0.4145 -0.41449,-0.4145 0.82898,-0.82898 h 0.41449 l 0.4145,-0.4145 h 0.82898 l 0.41449,-0.41449 h 0.82899 z m 444.75064,-3.73044 0.829,-0.82898 h 0.41446 l 0.829,0.82898 v 0.41449 l 0.41446,0.41449 v 0.4145 l 0.41453,0.41449 0.41446,-0.41449 0.829,0.82898 -0.41446,0.4145 h -1.24353 l -0.41446,0.41449 h -0.41446 l -0.41454,-0.41449 v -0.4145 l -0.41446,-0.41449 v -0.41449 l -0.41454,-0.4145 v -0.41449 z m -52.22611,-1.65797 0.41454,0.4145 v 0.41449 l -2.07245,2.07246 v 0.41449 l -0.829,0.82899 v 0.41449 l -0.82899,0.82899 v 0.41449 l -0.41454,0.41449 v 0.4145 l -0.82892,0.82898 -0.41454,-0.41449 v -0.41449 l 0.41454,-0.4145 v -0.41449 l 0.41446,-0.41449 v -0.4145 l 0.829,-0.82898 v -0.4145 l 0.82899,-0.82898 v -0.4145 z m 13.67831,0.82899 0.41446,-0.41449 h 0.41446 l 0.41454,0.41449 -0.41454,-0.41449 0.41454,-0.4145 h 0.41446 l 0.41454,-0.41449 h 0.82899 l 0.41446,-0.41449 h 1.24346 l 0.41453,-0.4145 h 7.87535 l 0.41446,0.4145 h 1.65799 l 0.41453,0.41449 h 0.41446 l 0.41446,0.41449 h 0.829 l 1.24353,1.24348 v 2.07246 l -0.41454,0.41449 v 0.4145 l -0.41446,0.41449 v 0.82899 l -0.41453,0.41449 v 0.41449 l -0.829,0.82899 v 0.41449 l -0.82892,0.82899 -0.41453,-0.41449 -0.41446,0.41449 0.41446,0.41449 v 0.41449 l -1.65799,1.65797 h -0.82892 l -0.41454,-0.4145 h -5.38836 l -0.41453,0.4145 h -1.24346 l -3.73044,-3.73043 v -0.41449 l -0.41454,-0.4145 v -0.41449 l -0.41446,-0.41449 v -0.4145 l -0.41446,-0.41449 v -0.41449 l -0.41453,-0.4145 v -2.07246 l 0.41453,-0.41449 z m -447.6521,-6.63188 h 0.82899 l 0.41449,0.41449 h 0.41449 l 2.48695,2.48695 v 0.41449 l 0.82899,0.82899 v 0.41449 l 0.41449,0.4145 v 0.41449 l 0.41449,0.41449 v 1.24348 l -0.82898,0.82898 -0.4145,-0.41449 h -1.65797 1.65797 l 0.4145,0.41449 -0.4145,0.41449 h -2.48695 l -0.41449,-0.41449 h -2.48696 l -0.41449,-0.41449 h -0.82899 l -1.24348,-1.24347 v -0.82899 l 0.4145,-0.41449 v -0.82899 l 0.41449,-0.41449 v -0.4145 l 0.41449,-0.41449 v -0.41449 l 0.82899,-0.82899 v -0.41449 z m 353.14775,-0.4145 h 0.41449 l 0.41449,-0.41449 h 1.65798 l 1.65796,1.65797 v 2.07246 l -1.24347,1.24348 h -2.48696 l -0.82899,-0.82899 0.4145,-0.41449 -0.4145,0.41449 -0.41449,-0.41449 v -0.82899 l -0.41449,-0.41449 0.41449,-0.41449 v -0.82898 z m -314.18544,-0.82898 1.65797,1.65797 v 0.41449 l 0.82898,0.82898 v 0.41449 l 0.4145,0.4145 v 0.41449 l 0.41449,0.41449 v 0.4145 l 0.41449,0.41449 v 0.82899 l 0.4145,0.41449 -0.4145,0.41449 v 0.4145 l -0.82898,0.82898 h -0.4145 l -0.41449,0.41449 h -2.48696 l -0.41449,0.41449 h -2.90144 l -0.82899,-0.82898 v -0.41449 l -0.41449,-0.41449 v -0.4145 l -0.4145,-0.41449 v -0.41449 l -0.41449,-0.4145 0.41449,-0.41449 v -0.41449 l 0.4145,-0.4145 v -0.41449 l 0.82898,-0.82899 v -0.41449 l 2.48696,-2.48695 h 0.41449 l 0.41449,-0.41449 z m 241.23473,-1.24348 h 2.07246 l 1.65797,1.65797 v 1.65797 l -0.41449,0.41449 v 0.41449 l -0.82899,0.82899 h -0.82898 l -0.4145,0.41449 h -0.41449 l -0.41449,-0.41449 h -0.82898 l -0.82899,-0.82899 v -0.41449 l -0.41449,-0.41449 v -1.65797 z m 164.13908,-0.82899 0.41454,-0.41449 h 1.24345 l 0.41446,0.41449 h 4.55944 l 0.41446,0.41449 -0.41446,0.4145 h -1.65799 l -0.41446,0.41449 h -0.829 l -0.41446,-0.41449 h -0.41453 0.41453 l 0.41446,0.41449 -0.41446,0.41449 h -0.82899 l -0.41454,0.4145 h -0.82899 l -0.41446,-0.4145 v -0.41449 l -0.41446,-0.41449 v -0.4145 z m -21.96811,-0.41449 0.41453,-0.4145 h 4.55936 l 0.41454,0.4145 -0.41454,0.41449 v 2.90145 l -0.41446,0.4145 h -4.1449 l -0.41453,-0.4145 0.41453,-0.41449 v -2.48696 z m -214.29269,-0.4145 h 0.41449 l 0.41449,0.4145 h 0.4145 l 1.24347,1.24348 v 2.48696 l -0.82898,0.82898 h -0.41449 l -0.4145,0.41449 h -1.24348 l -0.41449,-0.41449 0.41449,-0.41449 h 0.82899 -0.41449 l -0.4145,-0.41449 v 0.41449 l -0.41449,0.41449 h -0.41449 l -0.4145,-0.41449 0.4145,-0.41449 -0.4145,0.41449 -0.82898,-0.82899 v -2.07246 l 1.24348,-1.24348 h 0.41449 l 0.41449,0.41449 -0.41449,0.41449 h 0.82899 v -0.41449 l -0.4145,-0.41449 z m 197.71299,0 0.41449,-0.41449 h 4.55943 l 0.41449,0.41449 v 0.82899 l -0.41449,0.41449 v 1.24348 l -0.41449,0.4145 v 0.41449 l -0.4145,0.41449 h -3.73044 l -0.41449,-0.41449 z m -12.84927,-0.41449 0.41449,-0.41449 h 3.31595 l 0.41449,0.41449 h 1.65797 l 0.41449,0.41449 v 0.4145 l -0.41449,0.41449 v 1.24348 l -0.41449,0.41449 v 0.82899 l -0.41449,0.41449 -0.41449,-0.41449 v -0.82899 h -2.07247 v 0.4145 l -0.41449,0.41449 -0.4145,-0.41449 v -0.4145 l -0.41449,-0.41449 v -0.41449 l -0.41449,-0.4145 v -0.82898 z m -19.48115,0 0.41449,-0.41449 h 6.63188 l 0.4145,0.41449 v 0.41449 l -0.4145,0.4145 v 2.48696 l -0.41449,0.41449 -0.41449,-0.41449 h -4.55942 l -0.41449,-0.4145 v -0.41449 l -0.4145,-0.41449 v -0.4145 l -0.41449,-0.41449 v -0.82899 z m -14.09275,-0.41449 0.41449,-0.41449 h 4.55942 l 0.41449,0.41449 v 1.65797 l 0.41449,0.41449 v 1.24348 l -0.41449,0.4145 h -2.07246 l -0.41449,-0.4145 v -0.41449 l -0.41449,-0.41449 0.82898,-0.82899 h 0.41449 v -0.41449 h -0.41449 l -0.41449,0.41449 v 0.41449 l -0.41449,0.4145 -0.4145,-0.4145 v -0.41449 l -1.24348,-1.24348 h -0.41449 z m -227.97097,0 h 0.82899 l 0.41449,-0.41449 h 0.82899 l 0.41449,0.41449 h 0.4145 l 1.24347,1.24348 v 2.07246 l -1.65797,1.65798 h -1.65797 l -0.41449,-0.4145 h -0.4145 l -0.41449,-0.41449 0.41449,-0.41449 -0.41449,0.41449 -0.41449,-0.41449 v -0.4145 l -0.4145,-0.41449 v -1.24348 l 0.4145,-0.41449 v -0.4145 z m 344.85786,-0.82899 0.41454,0.4145 v 2.07246 l 0.41446,0.41449 -0.41446,0.4145 h -0.41454 l -0.41446,-0.4145 h -0.41446 l -0.41453,-0.41449 v -0.41449 l 0.41453,-0.4145 0.41446,0.4145 -0.41446,-0.4145 v -0.41449 l 0.41446,-0.41449 v -0.41449 z m -130.56515,2.90145 v -2.48695 l 0.41449,-0.4145 h 4.14493 l 0.41449,0.4145 -0.41449,0.41449 h -0.41449 l -0.41449,0.41449 -0.4145,-0.41449 h -0.41449 0.41449 l 0.4145,0.41449 -2.48696,2.48696 -0.4145,-0.41449 h -0.41449 z m -5.3884,-3.31594 0.41449,0.41449 v 0.4145 l -0.41449,0.41449 v 1.24348 l -0.4145,0.41449 v 0.41449 l -0.41449,0.4145 -0.41449,-0.4145 v -2.48695 l -0.4145,-0.4145 0.4145,-0.41449 z m -11.19131,0.41449 0.41449,-0.41449 h 4.14493 l 0.4145,0.41449 -0.4145,0.4145 v 2.48695 l -0.41449,0.4145 h -1.65797 l -0.4145,-0.4145 0.4145,-0.41449 h -0.82899 l -0.41449,-0.41449 v -0.4145 0.82899 h 0.41449 l 0.41449,0.41449 -0.41449,0.4145 h -0.82899 l -0.41449,-0.4145 v -2.07246 l -0.41449,-0.41449 z m -12.84927,-0.41449 0.41449,-0.41449 h 4.55943 l 0.82898,0.82898 v 1.24348 l -0.41449,0.41449 v 1.24348 l -0.41449,0.4145 h -4.14494 l -0.41449,-0.4145 v -2.48695 l -0.41449,-0.4145 z m -16.16521,-0.41449 0.41449,-0.41449 h 6.63188 l 0.4145,0.41449 h 0.82898 l 0.41449,0.41449 -0.41449,0.41449 v 0.82899 l -0.41449,0.41449 v 1.24348 l -0.41449,0.41449 h -5.38841 l -0.41449,-0.41449 0.41449,-0.41449 h 1.65797 -1.65797 l -0.41449,0.41449 -0.4145,-0.41449 v -0.4145 l -0.41449,-0.41449 v -0.82898 l -0.41449,-0.4145 v -0.41449 z m -14.92174,-0.41449 0.4145,-0.41449 h 4.9739 l 0.4145,0.41449 v 2.90144 l 0.41449,0.4145 -0.41449,0.41449 h -1.24348 v 0.41449 l -0.4145,0.4145 -0.41449,-0.4145 v -0.41449 l -0.41449,-0.41449 v -0.4145 l -0.41449,-0.41449 1.24347,-1.24348 -0.41449,-0.41449 -0.82898,0.82899 h -0.41449 l -0.41449,-0.4145 h -0.4145 l -0.82898,-0.82898 h -0.41449 z m -14.09275,2.90144 0.41449,-0.41449 v -1.24348 l -0.41449,-0.41449 v -1.24347 l 0.41449,-0.41449 h 3.31594 l 0.41449,0.41449 h 1.24348 l 0.4145,0.41449 -0.4145,0.41449 h -0.41449 l -2.07246,2.07246 -0.41449,-0.41449 v -0.41449 l -0.41449,-0.4145 h -0.82899 v 1.24348 l 0.41449,-0.41449 h 0.82899 l 0.41449,0.41449 v 0.41449 l -0.41449,0.4145 v 0.41449 l -0.41449,0.41449 -0.4145,-0.41449 v -0.41449 h -1.24348 z m -10.77681,0 v -1.65797 l -0.41449,-0.41449 v -0.82898 l -0.41449,-0.41449 0.41449,-0.41449 h 4.97391 l 0.4145,0.41449 -0.4145,0.41449 v 0.82898 l -0.41449,0.41449 v 1.24348 l -0.82899,0.82899 h -2.90145 z m -15.33622,-3.73042 0.41449,-0.4145 h 3.31594 l 0.41449,0.4145 h 1.65797 l 0.41449,0.41449 v 0.41449 l -0.41449,0.41449 v 0.82898 l -0.41449,0.4145 v 1.24347 l -0.4145,0.4145 h -2.90145 l -0.41449,-0.4145 v -0.41449 l -0.41449,-0.41449 v -0.82899 l -0.41449,-0.41449 v -0.82898 z m -16.99421,-0.4145 0.4145,-0.41449 h 3.31594 l 0.41449,0.41449 h 3.31594 l 0.41449,0.4145 v 1.65796 l -0.41449,0.41449 v 1.24348 l -0.41449,0.41449 h -4.55942 l -0.82898,-0.82898 v -0.41449 l -0.4145,-0.4145 v -0.41449 l -0.41449,-0.41449 v -0.41449 l -0.41449,-0.41449 v -0.41449 z m -15.33623,0 0.41449,-0.41449 h 5.38841 l 0.41449,0.41449 v 0.82899 l 0.41449,0.41449 v 0.41449 l 0.4145,0.41449 v 0.82899 l 0.41449,0.41449 -0.41449,0.41449 h -3.73043 l -0.4145,-0.41449 0.4145,-0.41449 h 2.90144 -2.48695 l -0.82899,-0.82899 v -0.41449 0.41449 l -0.41449,0.41449 -0.41449,-0.41449 v -0.41449 l -0.82899,-0.82898 h -0.41449 z m -198.12749,-0.41449 0.82899,0.82899 v 0.41449 l 0.41449,0.41449 v 0.41449 l 0.41449,0.41449 v 1.65797 l 0.41449,0.41449 v 1.65798 l -0.41449,0.41449 v 1.24348 l -1.24347,1.24348 h -0.82899 l -0.41449,0.41449 h -0.82899 l -0.41449,0.41449 h -0.4145 l -0.41449,0.41449 h -1.65797 l -0.41449,-0.41449 h -0.41449 l -2.07247,-2.07246 v -0.41449 l -1.65797,-1.65798 v -0.41449 l -0.41449,-0.41449 v -0.4145 l 2.07246,-2.07246 h 0.4145 l 0.41449,-0.41449 h 0.41449 l 0.4145,-0.41449 h 0.41449 l 0.41449,-0.41449 h 0.41449 l 0.41449,-0.41449 h 0.82899 l 0.41449,-0.4145 h 1.24348 l 0.41449,-0.41449 z m 182.37678,0 0.41449,-0.41449 h 6.21739 l 0.41449,0.41449 -0.82898,0.82899 h -0.4145 l -2.07246,2.07245 h -0.82899 l -0.41449,-0.41449 0.41449,0.41449 -0.41449,0.4145 h -0.82899 l -0.41449,-0.4145 0.41449,-0.41449 v -0.41449 0.41449 l -0.41449,0.41449 -0.41449,-0.41449 v -0.82898 l -0.41449,-0.41449 v -0.82899 z m -12.0203,0 0.82899,-0.82899 h 0.82899 l 0.41449,0.4145 h 2.07247 l 0.41449,0.41449 v 0.82899 l 0.41449,0.41449 v 1.65796 l 0.41449,0.4145 -0.41449,0.41449 h -3.31594 l -0.4145,-0.41449 v -0.4145 l -0.41449,-0.41449 v -0.41449 l -0.41449,-0.41449 v -0.82898 l 0.41449,-0.4145 -0.41449,0.4145 -0.4145,-0.4145 z m -14.09275,-0.41449 0.4145,-0.4145 h 4.97391 l 0.41449,0.4145 v 1.24348 l -0.41449,0.41449 v 1.65796 l -0.41449,0.4145 h -3.31594 l -0.4145,-0.4145 v -0.41449 l -0.41449,-0.41449 v -0.41449 l -0.41449,-0.41449 v -1.24348 z m -148.38837,-0.4145 h 1.24348 l 0.41449,0.4145 h 2.07246 l 0.4145,0.41449 h 1.24348 l 0.41449,0.41449 h 0.82899 l 0.41449,0.4145 h 0.41449 l 0.41449,0.41449 h 0.41449 l 0.41449,0.41449 h 0.4145 l 0.82898,0.82898 v 1.24348 l -0.41449,0.41449 v 0.41449 l -0.41449,0.4145 v 0.41449 l -0.82899,0.82899 v 0.41449 l -0.82898,0.82899 v 0.41449 l -1.24348,1.24348 h -0.82898 l -0.4145,0.41449 -0.41449,-0.41449 h -1.65797 l -0.4145,-0.41449 h -0.82898 l -0.41449,-0.4145 h -0.41449 l -0.82899,-0.82898 v -0.82899 l -0.41449,-0.41449 v -4.14493 l -0.82899,-0.82898 v -0.82899 z m 133.46664,0 0.41449,-0.41449 h 5.38841 l 0.41449,0.41449 v 1.24348 l 0.41449,0.4145 v 0.41449 l 0.41449,0.41449 v 1.24347 l -0.41449,0.4145 h -4.14493 l -0.41449,-0.4145 v -1.24347 l -0.41449,-0.41449 v -0.41449 l -0.4145,-0.4145 v -0.41449 l -0.41449,-0.41449 h -0.41449 z m -19.06667,-0.41449 0.4145,-0.41449 h 7.87536 l 0.41449,0.41449 h 0.4145 l 0.41449,0.41449 v 2.07247 l -0.41449,0.41449 h -2.07247 1.65797 l 0.4145,0.41449 -0.4145,0.41449 h -3.31594 l -0.41449,-0.41449 v -0.41449 l -0.41449,-0.41449 v -0.41449 h -0.41449 l -0.4145,-0.4145 v 0.4145 l -0.41449,0.41449 -1.65797,-1.65797 h -0.4145 l -0.41449,-0.4145 h -0.41449 z m -13.67825,2.48696 v -1.24348 l 0.41449,-0.41449 v -0.82899 l -0.41449,-0.41449 0.41449,-0.4145 h 4.14493 l 0.82898,0.82899 -2.48695,2.48696 v 0.41449 l -0.41449,0.41449 -0.4145,-0.41449 v -0.41449 h -0.82898 l -0.4145,0.41449 h -0.41449 z m -12.43478,-3.31595 0.41449,-0.41449 h 4.55942 l 0.41449,0.41449 h 0.82899 l 0.41449,0.4145 -0.41449,0.41449 0.41449,0.41449 v 2.07247 l -0.41449,0.41449 h -4.14492 l -0.4145,-0.41449 v -0.82899 h -0.82898 l -0.4145,-0.41449 v -0.41449 l -0.41449,-0.4145 z m -13.67826,0 0.41449,-0.41449 h 5.8029 l 0.41449,0.41449 -0.41449,0.4145 v 1.24348 l -0.41449,0.41449 v 0.82899 l -0.4145,0.41449 h -4.14492 l -0.41449,-0.41449 v -1.24348 l -0.4145,-0.4145 v -0.82898 z m 346.51585,-0.41449 0.41453,-0.41449 h 4.9739 l 0.41446,0.41449 -0.41446,0.41449 h -4.9739 z m -359.77962,-0.41449 0.4145,-0.4145 h 2.90144 l 0.4145,0.4145 h 2.07246 l 0.4145,0.41449 v 0.41449 l -0.4145,0.4145 -0.41449,-0.4145 h -1.24348 1.24348 l 0.41449,0.4145 v 2.48696 l -0.41449,0.41449 h -2.90145 l -0.4145,-0.41449 h -1.65796 l -0.4145,-0.4145 z m 327.44921,-0.4145 0.4145,-0.41449 h 4.14492 l 0.41449,0.41449 -0.41449,0.4145 h -4.14492 z m -7.87536,0 0.41449,-0.41449 h 3.31594 l 0.82899,0.82899 v 0.82898 l 0.41449,0.4145 h 0.41449 l 0.4145,0.41449 -0.4145,0.41449 h -2.07246 l -0.4145,-0.41449 v -1.65797 h -2.48695 z m -6.21739,0 0.4145,-0.41449 h 1.65796 l 1.24348,1.24348 -0.41449,0.41449 h -0.82899 0.41449 l 0.4145,0.4145 -0.4145,0.41449 h -1.24347 L 526.95,147.18158 v -0.82899 z m -332.00863,0 0.41449,-0.41449 h 6.21739 l 0.4145,0.41449 v 0.4145 l -0.4145,0.41449 v 0.82899 l -0.41449,0.41449 v 1.24348 l -0.82898,0.82899 -0.41449,-0.4145 h -3.31595 l -0.41449,-0.41449 v -0.41449 l -0.41449,-0.4145 v -0.82898 l -0.4145,-0.4145 v -0.82898 z m 319.98834,-0.82898 0.41449,-0.41449 h 4.14493 l 0.4145,0.41449 -0.4145,0.41449 h -4.14493 z m -9.11883,0 0.41449,-0.41449 h 5.3884 l 0.41449,0.41449 v 0.82898 l 0.82899,0.82899 h 1.24348 l 0.41449,-0.41449 0.41449,0.41449 v 0.41449 l -0.41449,0.4145 h -2.90145 l -0.41449,-0.4145 v -1.65797 h -4.97391 z m -5.38841,0 0.41449,-0.41449 h 0.41449 l 0.82899,0.82898 v 0.82899 l 0.41449,0.41449 h 2.07247 l 1.24348,-1.24348 0.41449,0.41449 v 1.24348 l -0.41449,0.4145 h -3.73044 l -0.4145,-0.4145 h -0.41449 l -0.41449,-0.41449 v -1.24348 z m -316.6724,-0.41449 0.4145,0.41449 h 4.14492 l 0.41449,0.41449 -0.41449,0.41449 v 0.82899 l -0.41449,0.41449 v 1.24348 l -0.4145,0.4145 -0.41449,-0.4145 h -1.65796 1.65796 l 0.41449,0.4145 v 0.41449 l -0.41449,0.41449 -0.41449,-0.41449 h -2.48695 l -0.4145,-0.41449 v -1.65798 l -0.41449,-0.41449 v -1.65797 z m 304.65211,0 0.41449,-0.41449 h 0.82899 l 0.41449,0.41449 v 1.24347 l 0.4145,0.4145 h 3.31594 v -0.82899 l 0.41449,-0.41449 v -0.41449 l 0.41449,-0.41449 h 5.8029 l 0.41449,0.41449 -0.41449,0.41449 h -5.38841 v 0.41449 l -0.41449,0.41449 v 0.82899 l -0.41449,0.41449 h -4.97391 l -0.4145,-0.41449 v -1.65797 z m -19.48115,-0.41449 0.41449,-0.41449 h 0.82899 l 0.41449,0.41449 v 0.82898 l 0.41449,0.41449 v 0.41449 h 1.65797 l 0.41449,-0.41449 0.41449,0.41449 v 0.4145 l -0.41449,0.41449 h -2.90144 l -0.4145,-0.41449 v -0.82899 l -0.41449,-0.41449 v -0.41449 z m -304.23762,0.41449 0.4145,-0.41449 h 0.41449 l 0.41449,-0.41449 0.4145,0.41449 h 4.9739 l 0.82899,0.82898 v 0.82898 l 0.41449,0.4145 v 0.41449 l 0.4145,0.41449 v 0.82899 h 0.82898 l 0.41449,0.41449 -0.41449,0.4145 h -1.24348 l -0.41449,-0.4145 v -0.41449 l -1.24348,-1.24348 h -0.41449 l -0.4145,-0.41449 h -0.82898 l -0.82899,0.82898 -0.41449,-0.41449 h -0.41449 l -0.82898,-0.82899 h -0.41449 l -0.82899,-0.82898 h -0.41449 z m 288.0724,-0.82898 0.41449,-0.4145 h 5.38841 l 0.41449,0.4145 h 0.41449 l 0.82899,0.82898 v 0.41449 l 0.41449,0.41449 v 0.41449 l -0.41449,0.4145 h -1.65797 l -0.41449,-0.4145 v -1.65796 h -4.97392 z m -5.3884,0 0.41449,-0.4145 h 0.41449 l 0.4145,0.4145 v 0.41449 l 0.41449,0.41449 v 0.41449 l 0.41449,0.41449 h 2.48696 l 0.41449,-0.41449 0.41449,0.41449 v 0.41449 l -0.41449,0.4145 h -4.14493 l -0.41449,-0.4145 v -1.65796 z m -12.02029,-0.4145 0.41449,-0.41449 h 2.48696 l 0.41449,0.41449 v 0.4145 l 0.41449,0.41449 v 0.41449 l 0.41449,0.41449 h 1.65798 l 0.41449,-0.41449 v -0.41449 l 0.41449,-0.41449 0.4145,0.41449 v 1.24347 l -0.4145,0.41449 h -3.73043 l -0.41449,-0.41449 v -1.65796 h -2.07247 z m -8.28985,0 0.41449,-0.41449 h 0.82899 l 0.41449,0.41449 v 0.82899 l 0.41449,0.41449 v 0.41449 h 2.90145 v -0.82898 l 0.41449,-0.41449 0.41449,0.41449 v 1.24347 l -0.41449,0.41449 h -4.97391 l -0.41449,-0.41449 z m -6.21739,-0.41449 0.41449,-0.41449 h 4.97391 l 0.41449,0.41449 -0.41449,0.41449 h -4.97391 z m -5.8029,-0.41449 h 0.82899 l 0.41449,0.41449 v 1.65797 l 0.41449,0.41449 -0.41449,0.41449 h -0.82898 l -0.4145,-0.41449 v -1.65797 l -0.41449,-0.41449 z m -19.48115,0.41449 0.41449,-0.41449 0.41449,0.41449 v 1.24348 h 2.07246 v -0.41449 l 0.41449,-0.4145 v -0.41449 l 0.4145,-0.41449 0.41449,0.41449 v 1.65797 l -0.41449,0.41449 h -3.31594 l -0.41449,-0.41449 z m 3.73043,-0.41449 0.41449,-0.4145 h 4.55942 l 0.41449,0.4145 v 0.41449 l -0.41449,0.41449 -0.41449,-0.41449 h -4.14493 z m -18.65217,0 v 1.65797 l -0.41449,0.41449 h -2.90145 l -0.4145,-0.41449 0.4145,-0.41449 h 1.24348 l 0.41449,-0.4145 h 0.41449 l 0.41449,-0.41449 v -0.41449 l 0.4145,-0.4145 z m -0.41449,-0.4145 0.41449,-0.41449 h 4.55942 l 0.41449,0.41449 -0.41449,0.4145 h -4.55942 z m -34.81739,1.24348 -0.41449,0.4145 h -3.73043 l -0.41449,-0.4145 v -0.82898 l 0.41449,-0.4145 0.41449,0.4145 v 0.41449 h 2.48695 v -0.82899 l 0.4145,-0.41449 0.41449,0.41449 v 0.82899 z m 24.86956,-1.65797 0.41449,-0.41449 h 4.14494 l 0.41449,0.41449 -0.41449,0.41449 h -4.14494 z m -16.16521,0 0.41449,-0.41449 h 0.4145 l 0.41449,0.41449 v 1.65797 h 3.31594 l 0.41449,-0.41449 0.4145,0.41449 v 0.4145 l -0.4145,0.41449 h -4.14492 l -0.4145,-0.41449 v -0.82899 l -0.41449,-0.41449 z m -5.8029,1.65797 v -1.65797 l 0.82898,-0.82899 h 4.97392 l 0.41449,0.4145 -0.41449,0.41449 h -4.55942 l -0.4145,0.41449 v 1.24348 l -0.41449,0.4145 z m -28.1855,-2.48696 -0.41449,0.4145 v 0.41449 l -0.41449,0.41449 v 0.4145 l -0.41449,0.41449 h -2.07247 l -0.41449,-0.41449 1.65797,-1.65798 h 0.82899 l 0.41449,-0.41449 h 0.41449 z m 266.10431,-0.41449 0.41446,-0.41449 h 4.14491 l 0.41453,0.41449 -0.41453,0.41449 h -4.14491 z m -278.1246,0 0.41449,-0.41449 h 4.14494 l 0.41449,0.41449 -0.41449,0.41449 h -4.14494 z m -2.48695,1.65797 v 0.4145 l -0.41449,0.41449 h -7.04638 l -0.41449,-0.41449 0.41449,-0.4145 h 2.90145 v -0.41449 l 0.41449,-0.41449 v -0.4145 l 0.82899,-0.82898 h 2.07246 l 0.82899,0.82898 v 0.82899 z m 258.64344,-2.07246 0.41446,-0.4145 h 7.87534 l 0.41454,0.4145 -0.41454,0.41449 h -7.87534 z m -272.3217,0 0.41449,-0.4145 h 4.14493 l 0.41449,0.4145 -0.41449,0.41449 h -4.14493 z m -15.75072,0 0.41449,-0.4145 h 0.4145 l 0.41449,0.4145 v 1.24348 l 0.41449,0.41449 h 2.07246 l 0.41449,0.41449 -0.41449,0.4145 h -2.90144 l -0.4145,-0.4145 v -1.65797 z m 269.83472,-0.4145 0.4145,-0.41449 h 10.36231 l 0.41446,0.41449 -0.41446,0.4145 h -10.36231 z m -284.75646,0 0.4145,-0.41449 h 4.14492 l 0.41449,0.41449 -0.41449,0.4145 h -4.14492 z m 267.34777,-0.41449 0.41449,-0.41449 h 8.70435 l 0.41449,0.41449 -0.41449,0.41449 h -8.70435 z m -281.02603,1.65797 0.4145,-0.41449 v -1.24348 l 0.41449,-0.41449 h 7.46087 l 1.24348,1.24348 v 0.41449 l 0.82898,0.82899 -0.41449,0.41449 h -1.24348 l -0.41449,0.41449 -0.41449,-0.41449 v -2.07247 h -4.55942 l -0.41449,0.4145 h -1.24348 l -0.4145,-0.4145 0.4145,0.4145 -0.4145,0.41449 v 0.41449 l -0.41449,0.4145 h -0.41449 z m -116.05794,-1.65797 0.41449,-0.41449 h 0.82898 l 1.24348,1.24348 h 0.41449 l 0.4145,0.41449 -0.4145,0.41449 h -0.41449 l -0.41449,0.4145 h -0.41449 l -0.4145,-0.4145 v -0.41449 l -0.41449,-0.41449 v -0.4145 h -0.41449 z m 100.30722,-0.41449 0.41449,-0.41449 h 2.90146 l 0.41449,0.41449 0.41449,-0.41449 0.4145,0.41449 v 1.24348 l 0.41449,0.41449 h 1.24347 l 0.41449,0.41449 -0.41449,0.4145 h -2.90144 l -0.4145,-0.4145 0.4145,-0.41449 v -0.82899 l -0.4145,-0.41449 h -2.48696 z m -12.43478,-0.41449 0.4145,-0.4145 h 4.97391 l 0.41449,0.4145 -0.41449,0.41449 h -4.97391 z m 254.084,-0.4145 0.41449,-0.41449 h 10.36233 l 0.41449,0.41449 -0.41449,0.4145 h -10.36233 z m -269.42023,0 0.4145,-0.41449 h 0.82898 l 0.82899,0.82899 v 0.41449 l 0.41449,0.41449 h 1.24347 l 0.41449,0.41449 v 0.4145 l -0.41449,0.41449 h -2.48695 l -0.41449,-0.41449 v -0.4145 l -0.41449,-0.41449 v -0.82898 z m 249.52459,-0.41449 0.41449,-0.41449 h 4.55942 l 0.41449,0.41449 -0.41449,0.41449 h -4.55942 z m -20.31014,-0.41449 0.41449,-0.41449 h 7.87536 l 0.41449,0.41449 -0.41449,0.41449 h -7.87536 z m -16.57971,-0.41449 0.4145,-0.41449 h 5.80289 l 0.4145,0.41449 -0.4145,0.41449 h -5.80289 z m -20.72463,-0.41449 0.41449,-0.4145 h 7.04638 l 0.41449,0.4145 -0.41449,0.41449 h -7.04638 z m -228.38546,0.82898 v -0.82898 l 0.41449,-0.4145 h 5.38841 l 0.41449,0.4145 -0.41449,0.41449 h -4.97392 v 0.41449 l -0.41449,0.41449 z m 211.39126,-1.24348 0.41449,-0.41449 h 5.3884 l 0.4145,0.41449 -0.4145,0.4145 h -5.3884 z m -219.26662,0 0.41449,-0.41449 h 2.90145 l 0.82899,0.82899 v 1.65796 l -0.4145,0.4145 -0.41449,-0.4145 v -1.24347 l -0.41449,-0.41449 H 159.295 Z m -19.06667,0 0.4145,-0.41449 h 1.65797 l 0.41449,0.41449 v 0.82899 l 0.4145,0.41449 v 0.82898 l -0.4145,0.4145 h -0.41449 l -0.41449,-0.4145 v -1.24347 l -0.4145,-0.41449 h -0.82898 z m 181.96228,-0.82898 0.4145,-0.4145 h 4.55942 l 0.41449,0.4145 -0.41449,0.41449 h -4.55942 z m -24.04056,-0.4145 0.41449,-0.41449 h 11.60579 l 0.41449,0.41449 -0.41449,0.4145 h -11.60579 z m -30.67247,-0.41449 0.4145,-0.41449 h 16.57971 l 0.41449,0.41449 -0.41449,0.41449 h -16.57971 z m -26.11303,-0.41449 0.41449,-0.41449 h 13.26377 l 0.41449,0.41449 -0.41449,0.41449 h -13.26377 z m -41.86376,-0.41449 0.41449,-0.4145 h 25.69855 l 0.41449,0.4145 -0.41449,0.41449 h -25.69855 z m -49.73912,-0.4145 0.41449,-0.41449 h 28.1855 l 0.41449,0.41449 -0.41449,0.4145 h -28.1855 z m 167.45504,-33.9884 0.41449,-0.41449 h 19.48115 l 0.4145,0.41449 -0.4145,0.4145 H 317.21671 Z M 51.941401,65.11203 52.355899,64.69754 h 5.388403 l 0.41449,0.41449 v 4.14492 l -0.41449,0.4145 h -1.657976 1.657976 l 0.41449,0.41449 -0.41449,0.41449 h -5.388403 l -0.414498,-0.41449 z"
     fill="#000000"
     fill-rule="evenodd"
     id="path1"
     style="stroke-width:0.414492" />
</svg>
