<?xml version="1.0" encoding="UTF-8" standalone="no"?>
<svg
   width="800"
   height="250"
   viewBox="0 0 800 250"
   version="1.1"
   id="svg2"
   sodipodi:docname="sdkfz_171_panther_black.svg"
   inkscape:version="1.4.2 (f4327f4, 2025-05-13)"
   xmlns:inkscape="http://www.inkscape.org/namespaces/inkscape"
   xmlns:sodipodi="http://sodipodi.sourceforge.net/DTD/sodipodi-0.dtd"
   xmlns="http://www.w3.org/2000/svg"
   xmlns:svg="http://www.w3.org/2000/svg">
  <defs
     id="defs2" />
  <sodipodi:namedview
     id="namedview2"
     pagecolor="#ffffff"
     bordercolor="#000000"
     borderopacity="0.25"
     inkscape:showpageshadow="2"
     inkscape:pageopacity="0.0"
     inkscape:pagecheckerboard="0"
     inkscape:deskcolor="#d1d1d1"
     inkscape:zoom="0.55616943"
     inkscape:cx="884.62252"
     inkscape:cy="317.34934"
     inkscape:window-width="2560"
     inkscape:window-height="1377"
     inkscape:window-x="-8"
     inkscape:window-y="-8"
     inkscape:window-maximized="1"
     inkscape:current-layer="svg2" />
  <path
     d="m 270.7072,110.34335 -0.37323,0.37323 v 0.37322 l -0.37323,0.37323 v 0.74646 l -0.37322,0.37322 v 4.85197 l 0.37322,0.37323 v 0.74645 l 0.37323,0.37323 v 0.37322 l 0.37323,0.37323 h 0.37323 v -9.33069 z"
     fill="#000000"
     fill-rule="evenodd"
     id="path1"
     style="stroke-width:0.373228" />
  <path
     d="m 712.98212,106.9843 -0.37323,-5.97165 -21.27398,5.97165 -8.21101,-10.077149 -14.55589,4.851949 0.37323,4.47874 14.18266,0.74646 h -23.14013 l -4.85196,-8.957469 h -45.90702 l -3.73227,8.584239 h -65.31486 l 30.60467,-1.49291 -28.36531,-58.223535 -19.40785,-1.866137 14.55589,-0.373236 -2.98582,-17.168474 -20.90076,-5.225192 -42.54796,2.985828 5.97164,6.344873 -5.22519,12.689738 45.53379,0.746463 -58.59676,-0.373236 -6.7181,-8.584237 -4.10551,9.703928 -37.32278,1.492909 -14.92911,7.091328 -2.23936,-4.105509 -4.47874,12.316519 0.37323,-11.196837 -33.96372,13.809428 -255.28781,0.746455 -39.562136,-4.478728 -3.732282,6.718101 2.239364,10.450373 15.675574,1.49291 25.37948,-5.225183 256.03426,4.851955 24.63303,15.675577 4.85196,-30.977914 -1.49291,40.681833 61.20935,0.37322 H 326.31814 l -1.11968,-6.344869 h -12.31652 l -0.37323,6.344869 -27.99208,18.28817 -7.09133,-2.23937 2.98582,-9.33069 -8.21101,-2.61259 v 19.40783 l -43.66765,13.06298 -16.42202,25.37949 h 11.19683 l 17.91493,-20.90076 22.39367,-4.47873 92.93372,10.82361 332.54594,5.59841 4.47874,13.80943 -21.64721,-10.45038 -308.28614,-4.10551 -106.36992,-13.06297 -19.78108,5.59842 -13.80943,25.00626 8.21101,25.00626 78.37784,33.96373 H 617.4358 l 50.75898,-13.4362 24.63304,-13.80943 4.85196,-9.70392 -2.98583,-15.67556 8.58424,0.74645 7.46455,-9.3307 -7.09132,-13.80942 23.14013,-7.83779 14.92911,-28.73854 -7.09133,-10.45037 z m -353.07349,121.29902 0.37323,-0.37322 h 1.11969 l 0.37323,-0.37323 h 1.11968 l 0.37323,0.37323 v 0.37322 l -0.37323,0.37323 h -2.6126 z m 129.13681,-0.74645 -1.11968,1.11968 h -2.98582 l -0.37322,-0.37323 0.37322,-0.37322 h 1.11969 l 0.37322,-0.37323 h 1.11968 l 0.37323,-0.37323 h 0.74646 z m -83.97624,0 -0.37323,0.37323 h -0.37322 l -0.74647,0.74645 h -1.11968 l -0.37323,-0.37323 h -0.37322 l -0.37323,-0.37322 0.37323,-0.37323 h 1.4929 l 0.37323,-0.37323 h 1.11969 z m 216.84534,-2.61259 0.37322,-0.37323 h 0.37323 l 0.37323,0.37323 h 1.86614 l 0.37322,0.37323 h 1.86615 l 0.37323,0.37322 -0.37323,0.37323 h -0.74646 v 0.37323 l -0.37322,0.37322 h -0.74647 l -0.37322,-0.37322 0.37322,-0.37323 h 0.37324 -0.74646 l -0.37323,-0.37323 h -0.74646 0.74646 l 0.37323,0.37323 v 0.37323 l -0.37323,0.37322 -0.37323,-0.37322 h -1.49291 l -0.37323,-0.37323 v -0.37323 l -0.37322,-0.37322 z M 454.7085,224.55105 v 1.49291 l -0.37323,0.37323 v 0.74645 l -0.37323,0.37323 h -0.37324 l -0.37322,-0.37323 0.37322,-0.37323 -0.37322,0.37323 0.37322,0.37323 -0.74645,0.74645 h -0.37323 l -0.37322,-0.37322 h -0.37323 l -0.37323,-0.37323 h -0.37323 l -0.37322,-0.37323 h -0.37323 l -0.37323,-0.37323 0.37323,-0.37322 h 0.37323 l 0.37322,-0.37323 h 0.37323 l 0.37323,-0.37323 h 0.37323 l 0.37322,0.37323 -0.37322,0.37323 0.37322,-0.37323 h 1.11968 l -0.37322,-0.37323 -0.37323,0.37323 h -0.37323 l -0.37322,-0.37323 0.74645,-0.74645 h 0.37323 l 0.37322,-0.37323 h 0.37324 l 0.37323,-0.37323 z m -111.96834,-0.37323 0.74645,-0.74646 h 0.37323 l 0.37323,0.37324 h 0.74645 l 0.37323,0.37322 h 0.74645 l 0.37323,0.37323 h 1.11969 l 0.37323,0.37323 h 1.86614 l 0.37322,0.37323 h 7.46456 l 0.37323,-0.37323 h 1.49291 l 0.37322,-0.37323 h 1.11969 l 0.37323,-0.37323 h 0.74646 l 0.37322,0.37323 v 0.37323 l -0.37322,0.37323 h -0.74646 l -0.37323,0.37322 h -1.11969 l -0.37322,0.37323 h -2.23937 l -0.37323,0.37323 h -6.7181 l -0.37322,-0.37323 h -1.86614 l -0.37323,-0.37323 h -0.74645 l -0.37324,-0.37322 h -1.11968 l -0.37323,-0.37323 h -0.74645 l -0.37323,-0.37323 h -0.74645 z m 252.6752,-0.74646 0.37323,-0.37323 0.37323,0.37323 h 0.37322 l 0.37323,0.37324 h 0.74647 l 0.37322,0.37322 h 1.11968 l 0.37323,0.37323 h 0.74646 l 0.37322,0.37323 h 1.86614 l 0.37323,0.37323 h 7.83778 l 0.37323,-0.37323 h 1.49292 l 0.37322,-0.37323 h 0.74646 l 0.37322,-0.37323 h 1.11969 l 0.37322,-0.37322 h 0.37323 l 0.37323,-0.37324 h 0.74645 l 0.74646,0.74646 -0.37323,0.37323 h -0.37323 l -0.37322,0.37323 h -0.74646 l -0.37323,0.37323 h -1.11968 l -0.37323,0.37322 h -1.11968 l -0.37322,0.37323 h -1.86615 l -0.37323,0.37323 h -7.83778 l -0.37323,-0.37323 h -1.49291 l -0.37322,-0.37323 h -0.74646 l -0.37323,-0.37322 h -1.11968 l -0.37322,-0.37323 h -0.74647 l -0.74645,-0.74646 h -0.37323 l -0.37323,-0.37322 z m -61.9558,0 v 0.74646 l -0.37323,0.37323 h -0.74646 l -0.37323,0.37323 h -0.74646 l -0.37322,0.37323 h -1.11969 l -0.37322,0.37322 h -1.11968 l -0.37323,0.37323 H 525.995 l -0.37323,0.37323 h -6.7181 l -0.37322,-0.37323 h -1.86615 l -0.37323,-0.37323 h -1.11968 l -0.37323,-0.37322 h -0.74645 l -0.37323,-0.37323 h -0.74645 l -0.37323,-0.37323 h -0.37323 l -0.37322,-0.37323 h -0.37323 l -0.37324,-0.37322 0.37324,-0.37324 h 0.74645 l 0.37323,0.37324 h 0.74646 l 0.37322,0.37322 h 1.11968 l 0.37323,0.37323 h 1.11968 l 0.37323,0.37323 h 1.49291 l 0.37324,0.37323 h 7.83778 l 0.37323,-0.37323 h 1.49291 l 0.37322,-0.37323 h 0.74646 l 0.37322,-0.37323 h 0.74646 l 0.37323,-0.37322 h 0.74645 l 0.37323,-0.37324 h 0.74646 l 0.37323,-0.37323 z m -106.74315,0 0.37323,-0.37323 h 0.37323 l 0.37322,0.37323 h 0.37323 l 0.37323,0.37324 h 0.74645 l 0.37323,0.37322 h 0.74645 l 0.37323,0.37323 h 1.11968 l 0.37323,0.37323 h 1.49292 l 0.37323,0.37323 h 7.46455 l 0.37323,-0.37323 h 1.86614 l 0.37322,-0.37323 h 0.74646 l 0.37322,-0.37323 h 0.74646 l 0.74646,0.74646 -0.37323,0.37323 h -1.11969 l -0.37322,0.37322 h -1.11968 l -0.37323,0.37323 h -1.86614 l -0.37323,0.37323 h -6.7181 l -0.37322,-0.37323 h -1.86615 l -0.37323,-0.37323 h -1.11968 l -0.37323,-0.37322 H 429.329 l -0.37322,-0.37323 h -0.37323 l -0.37323,-0.37323 h -0.74645 l -0.74646,-0.74645 z m -61.95581,0 v 0.74646 l -0.37323,0.37323 h -0.37323 l -0.37322,0.37323 h -0.74646 l -0.74645,-0.74646 0.37322,-0.37322 h 0.37323 l 0.37323,-0.37324 h 0.74645 l 0.37323,-0.37323 z m 223.19021,-0.37323 0.37322,-0.37322 0.37323,0.37322 h 0.37323 l 0.74646,0.74647 h 0.37323 l 0.74645,0.74645 h 0.37323 l 0.37323,0.37323 h 0.37323 l 0.74645,0.74645 h 0.37323 l 0.74645,0.74646 -0.37322,0.37322 v 0.37323 l -0.37323,0.37323 h -0.74646 l -0.74645,0.74645 h -1.11968 l -0.37323,-0.37322 0.37323,-0.37323 h 0.74645 -0.74645 l -0.37323,0.37323 h -0.37323 l -0.37323,-0.37323 h -0.37323 l -0.74646,-0.74646 v -2.98581 l -0.37322,-0.37324 z m -292.23736,0 0.74646,-0.74645 0.37324,0.37323 h 0.37322 l 0.74646,0.74645 -0.37323,0.37324 0.37323,-0.37324 0.37322,0.37324 h 0.37323 l 0.37323,0.37322 h 0.37323 l 0.37322,0.37323 -0.37322,0.37323 h -0.74646 l -0.37323,0.37323 h -0.37322 l -0.37323,-0.37323 h -0.37323 l -0.74646,-0.74646 v -0.37322 z m 80.99044,-0.37322 0.74645,-0.74646 h 0.37323 l 1.49291,1.49291 h 0.37323 l 0.74645,0.74646 -0.37323,0.37323 0.37323,-0.37323 h 0.37323 l 0.37323,0.37323 h 0.37322 l 0.37323,0.37323 h 0.37323 l 0.37323,0.37323 v 1.86613 l -0.37323,0.37323 h -0.37323 l -0.74645,0.74645 h -1.49291 l -1.11968,-1.11968 h -0.37323 l -0.37323,-0.37323 v -2.98581 l -0.37323,-0.37324 v -0.37323 h -0.37322 z m 32.84404,2.6126 0.74645,-0.74646 h 0.37323 l 0.37324,-0.37323 h 0.37322 l 0.74646,-0.74646 h 0.37323 l 0.74645,-0.74645 h 0.37323 l 1.11968,-1.11969 h 0.37323 l 0.74645,-0.74645 h 0.37323 l 0.37323,0.37323 -0.37323,0.37322 0.37323,0.37323 h 1.11968 l 0.37323,-0.37323 0.37323,0.37323 h 0.37323 l 0.74645,0.74646 h 0.37323 l 0.74646,0.74645 h 0.37322 l 1.11968,1.11969 -0.37322,0.37323 h -0.37323 0.37323 l 0.37322,-0.37323 h 0.37323 l 0.37323,0.37323 h 0.37323 l 0.37322,0.37323 h 0.37323 l 0.37323,0.37322 v 0.74646 l -0.37323,0.37322 0.37323,0.37323 -0.37323,0.37323 h -0.37323 l -0.74645,0.74645 h -1.86614 l -0.74645,-0.74645 h -0.37323 l -0.37323,-0.37323 v -0.74645 l -0.37322,-0.37323 v -1.86614 l -0.37323,-0.37322 v -0.74647 l -0.37323,-0.37322 h -1.86614 l -0.37323,0.37322 h -0.37323 v 0.37323 l -0.37323,0.37324 v 0.74645 l -0.37322,0.37323 v 1.86613 l -0.74646,0.74646 h -0.37323 l -0.74645,0.74645 h -1.49291 l -0.74645,-0.74645 h -0.74647 l -0.37322,-0.37323 v -1.11968 l -0.37323,-0.37323 z m -70.54005,0 -0.37323,0.37322 v 1.49291 l -0.37323,0.37323 h -0.37323 l -0.74645,0.74645 h -0.74645 l -0.37323,-0.37322 h -0.37323 l -0.37323,-0.37323 h -0.37322 l -0.74646,-0.74646 v -1.86613 l -0.37323,-0.37323 v -1.11969 l -0.37322,-0.37323 h -1.86615 l -0.74645,0.74647 v 0.37322 l -0.37323,0.37323 v 1.49291 l -0.37323,0.37323 v 0.74645 l -0.37323,0.37323 h -0.74645 l -0.37323,0.37323 -0.37322,-0.37323 h -0.74646 l -0.37323,0.37323 h -0.74645 l -0.74646,-0.74646 v -1.49291 l 0.37323,-0.37322 h 0.37323 l 0.37323,-0.37323 h 0.37322 l 0.74646,-0.74646 h 0.37323 l 0.37322,-0.37322 h 0.37323 l 0.37323,0.37322 -0.37323,0.37323 h 0.74645 l -0.74645,-0.74645 0.74645,-0.74647 h 0.37323 l 1.11968,-1.11968 h 0.37323 l 0.37323,0.37323 h 1.49292 -1.49292 l -0.37323,-0.37323 0.74646,-0.74645 v -0.37323 l 0.37323,-0.37323 0.37323,0.37323 h 0.37323 l 1.86613,1.86614 h 0.37323 l 0.74646,0.74645 -0.37323,0.37324 h -0.37323 v 0.37322 h 0.74646 l -0.37323,-0.37322 0.37323,-0.37324 h 0.37322 l 0.74646,0.74646 h 0.37322 z m 249.31615,-2.6126 -0.37322,0.37322 h -0.74646 l -0.74645,-0.74645 h -0.74646 0.74646 l 0.37323,0.37323 -0.37323,0.37322 h -0.74646 l -0.37322,0.37323 h -0.37323 v 0.74646 l -0.37323,0.37323 v 2.23936 l -0.74645,0.74646 h -0.37323 l -0.37323,0.37323 h -0.37323 l -0.37323,0.37322 h -1.49291 l -0.37323,-0.37322 h -0.74645 l -0.74646,-0.74646 v -2.23936 l 1.11968,-1.11968 h 0.37323 l 0.74646,-0.74647 h 0.37322 l 0.74646,-0.74645 h 0.37323 l 0.74646,-0.74646 h 0.37323 l 1.49291,-1.49291 1.86613,1.86614 h 0.37323 z m -94.42662,2.6126 0.74645,-0.74646 h 0.37323 l 0.74645,-0.74645 h 0.37323 l 0.74647,-0.74647 h 0.37322 l 0.74646,-0.74645 h 0.37322 l 0.74646,-0.74646 h 0.37323 l 0.74645,-0.74645 h 0.37323 v -0.37323 l 0.37323,-0.37323 1.86613,1.86614 -0.37322,0.37323 0.37322,-0.37323 h 0.37323 l 0.74646,0.74646 h 0.37323 l 1.11968,1.11969 h 0.37323 l 0.74645,0.74645 h 0.37323 l 0.37323,0.37323 h 0.37323 l 0.74645,0.74645 v 1.49291 l -0.37323,0.37323 h -0.74645 l -0.74646,0.74645 h -1.4929 l -0.74646,-0.74645 h -0.37323 l -0.74646,-0.74646 v -2.23936 l -0.37323,-0.37323 v -1.11969 h -0.74645 l -0.37323,-0.37322 h -0.74645 l -0.37323,0.37322 h -0.37323 l -0.74645,0.74647 v 2.61259 l -0.37323,0.37322 v 0.37323 l -0.37323,0.37323 h -0.74645 l -0.37323,-0.37323 0.37323,0.37323 -0.74646,0.74645 h -1.49292 l -0.74645,-0.74645 h -0.37323 l -0.37322,-0.37323 v -0.37323 l -0.37323,-0.37322 z m -117.93998,-4.85197 1.49291,1.49291 -0.74645,0.74646 h -1.11968 l -0.37323,0.37322 h -0.37324 l -0.37322,0.37323 -0.37323,-0.37323 0.37323,0.37323 v 1.86615 l -0.37323,0.37322 v 1.11968 l -0.37323,0.37323 h -0.37323 l -1.11968,1.11968 h -1.49291 l -0.37322,-0.37322 h -0.37323 l -0.74646,-0.74646 v -1.11968 l -0.37322,-0.37323 v -0.74645 l 0.37322,-0.37323 h 0.37323 l 0.74646,-0.74645 h 0.37322 l 1.11968,-1.11969 h 0.37323 l 1.11968,-1.11969 h 0.37323 l 1.49292,-1.49291 0.37323,0.37323 z m 161.98085,4.10551 0.37323,-0.37323 h 0.37323 l 0.74645,-0.74646 h 0.37324 l 0.37323,0.37324 -0.37323,-0.37324 1.11968,-1.11968 h 0.37323 l 2.61259,-2.61259 0.37323,0.37322 v 0.37323 l 1.11968,1.11968 h 0.37323 l 1.49292,1.49291 h 0.37322 l 0.74646,0.74647 h 0.37322 l 0.37323,0.37322 h 0.37323 l 0.37323,0.37323 h 0.37322 l 0.37323,0.37323 h 0.37323 l 0.74645,0.74645 v 1.49291 l -0.37322,0.37323 h -0.37323 l -0.37323,0.37323 -0.37323,-0.37323 h -1.49291 l -0.37322,0.37323 -0.74646,-0.74646 h -0.37322 l -0.37323,-0.37323 v -2.23936 l -0.37324,-0.37323 v -0.74646 l -0.74645,-0.74645 h -1.11968 l -0.37323,0.37322 h -0.37323 l -0.74645,0.74647 v 2.98581 l -0.37323,0.37323 h -0.37323 l -1.11968,1.11968 h -1.49291 l -0.37324,-0.37322 0.37324,-0.37323 h 1.11968 -1.11968 l -0.37324,0.37323 h -0.37322 l -0.37323,-0.37323 h -0.37323 l -0.37323,-0.37323 z m -81.36365,-1.86614 2.98582,-2.98582 0.37323,0.37322 v 0.37323 l 0.74645,0.74646 h 0.37324 l 0.74645,0.74645 h 0.37323 l 1.11968,1.11968 h 0.37323 l 1.11968,1.11969 h 0.37323 l 0.37323,0.37323 h 0.37322 l 0.37323,0.37323 h 0.37323 l 0.37323,0.37323 v 1.86613 l -0.37323,0.37323 h -0.74646 l -0.74645,0.74645 h -1.49291 l -0.37323,-0.37322 v -0.37323 h -1.11968 l -0.37323,0.37323 h -1.86614 l -0.37323,-0.37323 h -0.37323 l -0.74645,-0.74646 v -3.35905 l -0.37323,-0.37323 h -1.11968 z m 176.16352,-3.73228 0.37322,0.37323 v 0.74645 l 0.37323,0.37323 v 1.86614 l -0.37323,0.37323 h -0.37322 l -0.37324,-0.37323 0.37324,-0.37323 h -0.37324 l -0.37323,-0.37323 v -0.74645 l -0.37322,-0.37323 v -0.74645 l 0.37322,-0.37323 h 0.37323 z m -341.87665,-2.23936 1.11968,1.11968 v 0.37323 l 1.11968,1.11968 v 0.37323 l -0.37322,0.37322 v 0.74646 l -0.74646,0.74645 h -1.11968 l -0.37323,0.37323 h -0.74645 l -0.74647,-0.74645 h -0.37322 l -0.37323,-0.37323 0.37323,-0.37323 -0.37323,-0.37323 v -0.37322 l -0.37323,-0.37323 v -0.74646 l 0.37323,-0.37322 v -0.74646 l 0.37323,-0.37322 0.37322,0.37322 v 0.37323 l 0.37324,-0.37323 0.37323,0.37323 0.37323,-0.37323 h 0.37322 v -0.37322 z m 124.28485,1.49291 v 0.37322 l -0.37323,0.37323 -1.49291,-1.49291 h -0.37323 l -0.37322,0.37323 h -0.37323 l -1.11968,1.11968 h -0.37324 l -1.11968,1.11968 h -0.37323 l -0.37323,0.37323 h -0.37322 l -0.37323,0.37323 h -0.37323 l -0.37323,0.37323 h -0.37322 l -0.37323,0.37322 h -0.37323 l -0.37323,0.37323 h -0.74645 l -0.37323,-0.37323 0.37323,-0.37322 h 0.37323 l 0.37322,-0.37323 h 0.37323 l 0.37323,-0.37323 h 0.37323 l 0.37322,-0.37323 h 0.37323 l 0.37323,-0.37322 h 0.37323 l 0.74645,-0.74646 h 0.37323 l 0.74645,-0.74645 h 0.37323 l 1.86615,-1.86615 v -0.37323 l 0.37322,-0.37322 1.11968,1.11969 v 0.37323 z m -37.32278,-1.49291 1.11968,-1.11969 0.37323,0.37322 v 0.37323 l 1.49291,1.49292 h 0.37323 l 1.11968,1.11968 h 0.37323 l 0.37323,0.37323 h 0.37323 l 0.37323,0.37323 h 0.37322 l 0.37323,0.37322 h 0.37323 l 0.37323,0.37323 h 0.37322 l 0.37323,0.37323 h 0.37323 l 0.37323,0.37323 h 0.37322 l 0.37323,0.37322 h 0.74645 l 0.37323,0.37323 h 0.74646 l 0.37323,0.37323 h 1.49291 l 0.37323,0.37323 h 2.23936 l 0.37323,0.37322 h 3.73228 l 0.37323,-0.37322 h 2.23936 l 0.37323,-0.37323 h 1.11968 l 0.37323,-0.37323 h 1.11968 l 0.37324,-0.37323 h 0.74645 l 0.37323,0.37323 -0.37323,0.37323 h -0.37322 l -0.37323,0.37323 h -0.74647 l -0.37322,0.37322 h -1.11968 l -0.37323,0.37323 h -1.86614 l -0.37323,0.37324 h -6.34487 l -0.37323,-0.37324 h -1.49291 l -0.37322,-0.37323 h -1.11969 l -0.37323,-0.37322 h -1.11968 l -0.37323,-0.37323 h -0.37323 l -0.37322,-0.37323 h -0.37323 l -0.37323,-0.37323 h -0.74645 L 384.9149,221.192 h -0.37323 l -0.37323,-0.37323 h -0.37322 l -0.37323,-0.37323 h -0.37323 l -0.74646,-0.74645 h -0.37323 l -1.11968,-1.11969 h -0.37323 l -1.49291,-1.4929 h -0.37322 l -0.37323,0.37322 -0.37323,-0.37322 z m -82.11012,-1.49292 0.37323,-0.37323 1.86615,1.86615 h 0.37322 l 1.86614,1.86613 h 0.37323 l 0.74645,0.74646 h 0.37323 l 0.37323,0.37323 h 0.37323 l 0.37322,0.37322 h 0.37323 l 0.37323,0.37323 h 0.37323 l 0.37323,0.37323 h 0.37323 l 0.37323,0.37323 h 0.74645 l 0.37323,0.37322 h 0.74645 l 0.37323,0.37323 h 0.74645 l 0.37323,0.37323 h 1.49291 l 0.37323,0.37323 h 7.83779 l 0.37323,-0.37323 h 1.11968 l 0.37323,-0.37323 h 0.74645 l 0.37323,-0.37323 h 0.74645 l 0.37323,-0.37322 h 0.74645 l 0.37323,-0.37323 h 0.37323 l 0.37323,-0.37323 h 0.37322 l 0.37323,-0.37323 h 0.37324 l 0.74645,-0.74645 h 0.37323 l 1.11968,-1.11968 h 0.37323 l 0.74645,-0.74646 h 0.37323 l 0.37323,0.37323 -1.49291,1.49291 h -0.37323 l -1.11968,1.11968 h -0.37323 l -0.37323,0.37323 h -0.37322 l -0.37324,0.37323 h -0.37323 l -0.37322,0.37322 h -0.37323 l -0.37323,0.37323 h -0.74645 l -0.37323,0.37323 h -0.37323 l -0.37322,0.37323 h -0.74646 l -0.37323,0.37322 h -1.11968 l -0.37323,0.37323 h -1.49291 l -0.37323,0.37324 h -5.97164 l -0.37323,-0.37324 h -1.86614 l -0.37323,-0.37323 h -0.74645 l -0.37323,-0.37322 h -1.11968 l -0.37323,-0.37323 h -0.74645 l -0.37323,-0.37323 h -0.37323 l -0.37323,-0.37323 h -0.37323 l -0.37323,-0.37322 h -0.37323 l -0.37322,-0.37323 h -0.37323 l -0.74646,-0.74646 h -0.37322 l -0.74646,-0.74645 h -0.37323 l -1.11968,-1.11968 h -0.37323 l -2.6126,-2.6126 z m 366.50969,-2.98582 0.37323,-0.37323 0.37323,0.37323 h 0.74645 l 0.37323,0.37323 h 1.86613 l 0.37323,0.37323 h 0.37323 l 0.37323,0.37322 v 1.11969 l -0.37323,0.37322 h -0.74646 l -0.37322,-0.37322 0.37322,-0.37323 h 0.37323 -0.74645 l -0.37323,0.37323 h -0.37323 l -0.37323,0.37322 h -0.74645 l -0.37323,-0.37322 v -0.37323 l -0.37322,-0.37323 v -0.37323 l 0.37322,-0.37322 -0.37322,0.37322 -0.74646,-0.74645 z m -410.55056,-5.97164 0.37323,-0.37323 h 2.23937 l 1.11968,1.11968 v 0.37323 l -0.37323,0.37323 -0.37322,-0.37323 h -0.37323 l -0.37323,-0.37323 h -0.37324 l -0.37322,-0.37323 h -1.11968 z m 18.28816,1.49291 -0.37322,0.37322 h -0.37323 l -0.37323,0.37323 h -0.37323 v 0.37323 l -1.49291,1.49292 v 0.37322 l -0.74646,0.74646 -0.37323,-0.37323 h -0.37322 l -0.74646,0.74645 -0.37323,-0.37322 h -0.37322 l -0.37323,-0.37323 v -1.11968 l -0.37323,-0.37323 0.74646,-0.74646 v -0.37323 l 0.37322,-0.37323 v -0.37322 l 0.37323,-0.37323 -0.74645,-0.74646 h -0.74646 l -0.37322,-0.37322 -0.37323,0.37322 h -0.37323 l -0.74645,0.74646 v 0.37323 l -1.49292,1.49291 h -1.11968 l -0.37323,-0.37323 v -0.37323 l 0.37323,-0.37323 v -0.74645 l 0.37322,-0.37323 v -0.37323 l 0.74646,-0.74645 h 2.23937 l 0.37323,-0.37323 h 1.49291 l 0.37322,-0.37323 h 0.37323 l 0.37323,-0.37322 h 1.11968 l 0.74646,0.74645 v 0.37323 l 0.37322,0.37323 v 0.37322 l 0.74647,0.74646 h 1.49291 z m 415.77575,-3.73228 0.37323,0.37323 -2.6126,2.61259 h -0.37322 l -0.37324,-0.37323 2.6126,-2.61259 z m -35.45664,-1.11968 0.74645,0.74645 v 0.37323 l 1.11969,1.11968 v 0.37323 l -0.37323,0.37323 0.37323,-0.37323 1.4929,1.49291 h 0.37323 l 1.49292,1.49291 h 0.37323 l 0.74645,0.74646 h 0.37323 l 0.74645,0.74646 h 0.37323 l 0.37323,0.37323 h 0.37323 l 0.37322,0.37322 h 0.37323 l 0.37323,0.37323 -0.74646,0.74645 h -0.37322 l -0.37323,0.37323 v 1.86614 l 0.37323,0.37323 v 1.86613 l -0.37323,0.37324 h -0.37323 l -1.11968,1.11968 h -0.37323 l -0.37323,-0.37323 h -0.74645 l -0.37323,-0.37322 0.37323,-0.37323 h 0.37323 l -0.37323,-0.37324 v 0.37324 l -0.37323,0.37323 -0.37322,-0.37323 v -0.37324 l -0.74647,-0.74645 v -0.37323 l -0.37323,-0.37323 v -0.37322 l -0.74645,-0.74646 h -0.37323 l -0.37322,-0.37323 h -0.37323 l -0.37323,0.37323 h -0.37323 l -0.37322,0.37323 h -0.37323 l -0.37323,0.37323 v 1.86613 l 0.37323,0.37324 v 1.49291 l -0.74646,0.74645 v 0.74646 l -0.37322,0.37322 h -1.11969 l -0.37322,-0.37322 0.37322,-0.37323 h 0.74646 -0.74646 l -0.37322,0.37323 h -1.49292 l -0.37323,-0.37323 h -0.37323 l -0.37322,-0.37323 v -0.37323 l -0.37323,-0.37322 v -0.74646 l -0.37323,-0.37322 v -0.74647 l 0.37323,-0.37323 v -0.37322 l 0.74645,-0.74646 v -0.37322 l 0.37323,-0.37323 v -0.74646 l 0.37323,-0.37322 v -0.37323 l 0.37323,-0.37323 v -0.37323 l 0.37322,-0.37322 v -0.37323 l 0.37324,-0.37323 v -0.74645 l 0.37323,-0.37323 v -0.37323 l 0.37322,-0.37323 v -0.37323 l 0.37323,-0.37323 v -0.37322 l 0.37323,-0.37323 v -0.74646 l 0.37323,-0.37322 v -0.74646 l 0.37322,-0.37323 v -0.74645 l 0.37323,-0.37323 v -0.74645 z m -393.38208,-1.86615 h 1.11968 l 1.11968,1.1197 v 0.37322 l -1.11968,1.11968 h -1.49291 l -0.37323,-0.37322 v -0.37323 l -0.37322,-0.37323 v -0.37322 z m 431.82454,-0.74645 0.37322,0.37323 v 0.37322 l -0.37322,0.37323 v 0.37323 l -0.37323,0.37324 v 0.37322 l -0.74646,0.74646 v 0.37322 l -1.11968,1.11969 -0.74645,-0.74646 1.11968,-1.11968 v -0.37323 l 1.11968,-1.11969 v -0.37323 z m -428.09227,-0.37323 h 0.37324 l 0.37323,0.37323 v 2.6126 l -0.37323,0.37323 h -1.11969 l -0.37323,-0.37323 v -2.23937 l 0.37323,-0.37323 h 0.37323 z m 29.11178,-0.37322 0.37323,0.37322 v 1.86614 l 0.37322,0.37324 v 1.11968 l 0.37323,0.37322 v 1.49291 l 0.37323,0.37323 v 0.74646 l 0.37322,0.37322 v 0.37323 l 0.37323,0.37323 v 0.74645 l 0.37323,0.37323 v 0.37323 l 0.37323,0.37323 v 0.37323 l 0.37322,0.37323 v 0.37323 l 0.74646,0.74645 v 0.37323 l 0.37323,0.37322 v 0.37323 l 0.74645,0.74646 v 0.37322 l 1.11968,1.11969 v 0.37322 l -0.37323,0.37323 -1.86613,-1.86614 v -0.37322 l -0.74646,-0.74646 v -0.37323 l -0.37322,-0.37322 v -0.37323 l -0.74646,-0.74645 v -0.37323 l -0.37323,-0.37323 v -0.37323 l -0.37322,-0.37323 v -0.74646 l -0.37323,-0.37322 v -0.74646 l -0.37323,-0.37323 v -0.74645 l -0.37322,-0.37323 v -0.74645 l -0.37323,-0.37323 v -1.11968 l -0.37323,-0.37323 v -2.98583 z m 378.45296,-0.37323 h 2.98583 l 1.4929,1.49291 v 0.37322 l 0.37323,0.37323 v 0.37323 l 0.37323,0.37324 v 0.74645 l 0.37323,0.37323 v 0.37322 l 0.37322,0.37323 v 1.86614 l -1.11968,1.11968 h -0.74645 l -0.37323,-0.37323 h -0.74645 0.74645 l 0.37323,0.37323 -0.37323,0.37323 h -4.47874 l -0.37322,-0.37323 h -0.74646 l -0.74645,-0.74645 v -0.37323 l -0.37323,-0.37323 v -0.74645 l 0.37323,-0.37323 v -0.74646 l 0.37322,-0.37322 0.37323,0.37322 v 0.37323 -0.37323 l -0.37323,-0.37322 v -0.74646 l 0.37323,-0.37322 v -0.37324 l 0.37323,-0.37323 v -0.37323 l 0.37323,-0.37322 v -0.37323 z M 243.8348,196.93219 h 0.37322 l 0.37323,0.37323 h 0.37323 l 1.11968,1.11968 v 0.74646 l -0.74646,0.74645 v 0.37323 l -0.37322,0.37323 h -1.11968 l -1.11969,-1.11968 v -1.49291 z m 422.86707,-0.37322 0.37323,-0.37323 h 1.49291 l 0.37323,0.37323 h 1.11968 l 0.37323,-0.37323 h 1.11968 l 0.37323,0.37323 -0.37323,0.37322 h -0.37322 l -0.37323,0.37323 h -2.6126 l -0.37323,-0.37323 h -0.74645 z m 10.82361,-1.86615 h 3.35904 l 0.37323,0.37324 h 0.37323 l 0.37323,0.37322 h 0.37322 l 0.37323,0.37323 h 0.37324 l 0.37322,0.37323 v 0.37323 l 0.37323,0.37322 v 0.37323 l 0.37323,0.37323 v 1.11968 l -0.37323,0.37323 v 0.37323 l -0.37323,0.37322 v 0.37323 l -1.49291,1.49291 v 0.37324 l -0.37323,0.37322 h -0.37323 l -0.74645,0.74646 -0.37323,-0.37323 v -0.37323 l -0.37323,0.37323 h -0.37323 0.74646 l 0.37323,0.37323 -0.37323,0.37322 h -1.11968 l -0.37323,-0.37322 h -0.37323 l -1.11968,-1.11968 v -0.37324 l 0.37323,-0.37323 -0.37323,0.37323 -0.37323,-0.37323 v -0.37323 l -0.37322,-0.37322 v -0.37323 l -0.37323,-0.37323 v -0.37322 l -0.37324,-0.37323 v -2.23937 l 1.49292,-1.49291 v -0.37322 z m -16.04879,0 0.37322,0.37324 v 0.37322 l -0.37322,0.37323 -0.37324,-0.37323 h -0.74645 0.74645 l 0.37324,0.37323 0.37322,-0.37323 1.49291,1.49291 v 0.37323 l 0.37323,0.37323 v 0.74645 l -0.37323,0.37323 v 0.74646 l -0.37322,0.37322 v 0.74646 l -0.37323,0.37322 v 0.37323 l -0.37323,0.37323 v 0.37324 l -0.37323,0.37322 v 0.37323 l -0.74646,0.74645 h -0.37323 l -0.37322,0.37323 h -1.11969 l -0.37322,-0.37323 h -0.37323 l -1.11968,-1.11968 h -0.37323 l -0.74646,-0.74646 v -0.37323 l -1.11968,-1.11968 v -0.37323 l -0.37322,-0.37322 v -1.49291 l 0.37322,-0.37323 v -0.37323 l 1.86614,-1.86614 h 1.11968 l 0.37323,-0.37322 h 0.74645 l 0.37323,-0.37324 z m -403.08601,1.49292 v -1.11968 l 0.74645,-0.74647 h 0.37323 l 0.74646,-0.74645 h 0.37322 l 0.37324,-0.37323 h 0.74645 l 0.37323,-0.37323 h 4.1055 l 0.37323,0.37323 v 0.37323 l 0.37323,0.37323 v 1.11969 l -0.74646,0.74645 v 0.37323 l -0.74645,0.74645 h -0.37323 l -0.37323,0.37323 h -0.37323 l -0.37322,0.37323 h -0.74646 l -0.37322,0.37323 h -1.11969 l -0.37322,-0.37323 h -0.74647 l -0.37322,0.37323 h -0.37323 l -1.11968,-1.11969 v -0.37322 z m -15.67557,-5.22519 0.37323,-0.37323 h 0.37323 l 0.37323,-0.37323 h 1.11968 l 0.37322,-0.37322 h 0.74646 l 0.37324,0.37322 h 0.37322 l 0.37323,0.37323 h 0.37323 l 0.74645,0.74646 h 0.37323 l 0.74645,0.74645 -0.37322,0.37323 0.37322,-0.37323 h 0.37323 l 0.74646,0.74645 h 0.37322 l 0.37323,0.37323 h 0.74646 l 0.37322,0.37323 v 1.11968 l -0.37322,0.37324 v 0.37322 l -0.37323,0.37323 v 0.37323 l -0.74646,0.74645 h -0.37322 l -0.37323,-0.37322 0.37323,0.37322 -0.37323,0.37323 h -0.74646 l -0.37322,-0.37323 h -0.74646 l -0.37322,-0.37322 h -0.37323 l -0.37323,-0.37323 h -0.37323 l -0.37322,-0.37323 h -0.37324 l -1.86614,-1.86614 h -0.37322 l -0.37323,-0.37323 v -0.37323 l -0.74646,-0.74645 z m 42.54797,-1.49291 0.37323,0.37323 v 0.37322 l -0.37323,0.37323 v 1.11968 l -0.37323,0.37323 h -1.49291 l -0.74645,0.74645 h -0.37323 l -0.74646,1.11969 v 0.74645 l 1.49292,2.23937 v 1.49291 h 1.11968 l 0.37323,0.37323 v 2.98582 l 0.37322,0.37324 v 1.11968 l 0.37323,0.37322 v 1.49291 l 0.37323,0.37323 v 0.74646 l 0.37323,0.37322 v 1.11969 l 0.37322,0.37322 v 0.74646 l 0.37323,0.37323 v 0.37323 l 0.74645,1.11968 v 0.74646 l 0.37323,0.37322 v 0.37323 l 0.74646,0.74646 0.37322,1.11968 0.74647,0.74645 v 0.37323 l 1.11968,1.11968 v 0.37324 l -0.37323,0.37323 -0.37322,-0.37323 -0.37323,0.37323 h -0.74647 l -0.37322,-0.37323 v -0.74647 l -0.74646,-0.74645 h -0.37323 l -0.37322,-0.37323 h -1.49291 l -0.37323,0.37323 v 0.37323 l -0.37323,0.37322 v 0.37323 l -0.37322,0.37324 v 0.37323 l -0.74646,1.11968 h -1.49291 l -0.37323,0.37322 h -1.11969 l -0.37322,-0.37322 v -0.74646 l -1.11968,-1.11969 v -0.37323 l 0.37322,-0.37322 v -1.49291 l 0.37323,-0.37323 v -1.49291 l -0.37323,-0.37323 h -0.37322 l -1.11969,-0.74645 h -0.37322 l -1.11969,1.11968 v 0.37323 l -0.74645,1.11968 v 0.74646 l -0.37323,0.37322 h -1.11969 l -0.37323,-0.37322 h -1.11968 1.11968 l 0.37323,0.37322 -0.74645,0.74646 -0.37323,-0.37323 h -0.74646 l -0.74645,-0.74645 v -0.37323 l -0.74645,-0.74646 v -1.49291 l 0.37322,-0.37322 v -1.11968 l 0.37323,-0.37323 v -0.74646 l -0.74645,-0.74646 0.37322,-0.37323 -0.37322,0.37323 h -0.37323 l -0.74646,-0.74645 0.37323,-0.37323 h -0.37323 l -0.37322,-0.37323 v -2.98582 l 0.74645,-1.11968 0.37323,0.37323 h 0.37323 l -0.37323,-0.37323 0.74645,-0.74645 0.74646,0.74645 v 0.37323 h 0.37322 l 1.49291,1.49291 h 0.37323 l 1.49292,-1.49291 -0.37323,-0.37323 v -0.37323 l 0.37323,-0.37322 -0.37323,0.37322 -0.37323,-0.37322 v -0.37324 l -0.37323,-0.37323 -0.37323,-1.11968 2.6126,-2.61259 h 0.37323 l 0.37323,0.37323 h 0.74645 l 0.37323,0.37322 h 1.11968 l 0.37323,0.37323 h 0.37322 l 0.37323,-0.37323 v -0.37322 l 0.74646,-0.74646 v -0.37323 h -0.37323 l -0.74646,-0.74645 v -0.74646 l -0.37322,-0.37322 v -1.11969 l 0.37322,-0.37323 0.37323,-1.11968 0.74646,-0.74646 v -0.37322 l 1.49291,-1.49291 h 1.49291 z m -48.89284,-2.6126 0.37323,0.37323 v 0.37322 l -0.37323,0.37324 0.37323,-0.37324 0.37323,0.37324 v 0.37323 l 0.74645,0.74645 v 1.49291 l -0.37323,0.37323 h -0.37322 l -0.37323,0.37323 h -0.37323 l -0.37323,-0.37323 v 0.74645 l -0.37322,0.37323 h -0.74646 l -1.49291,-1.49291 v -0.37323 l -0.37323,-0.37322 v -0.74646 l -0.37322,-0.37323 v -0.37322 l 0.37322,-0.37323 h 0.37323 l 0.37323,-0.37324 h 1.11968 l 0.74646,-0.74645 0.37322,0.37323 z m 39.18892,-1.11968 0.37323,0.37322 -0.37323,0.37323 v 0.37323 l -0.37323,0.37323 v 0.37322 l -0.37323,0.37324 v 0.37323 l -1.49291,1.49291 -0.74646,-0.74646 v -2.23937 l 0.37323,-0.37323 0.37323,0.37323 v 0.74645 h 0.74645 l 0.37323,-0.37322 v -0.37323 h -1.11968 l -0.37323,-0.37323 0.37323,-0.37323 h 1.11968 l 0.37323,-0.37322 z m 4.1055,-0.37323 1.49291,1.49291 -0.37323,0.37323 v 0.74646 l -0.37322,0.37323 v 0.74645 l -0.37323,0.37323 v 0.37323 l -0.37323,0.37322 v 0.37323 l -0.74645,0.74646 v 0.37322 l -1.86614,1.86614 h -1.11968 l -1.11969,-1.11968 v -1.11968 l 0.37323,-0.37323 v -0.37323 l 0.37323,-0.37323 0.37323,0.37323 0.37323,-0.37323 -0.37323,-0.37322 v -0.37323 l 0.37323,-0.37323 0.37322,0.37323 0.74646,-0.74646 v -0.37322 l 0.37323,-0.37323 -0.37323,0.37323 -0.37323,-0.37323 v -0.74646 l 0.37323,-0.37323 v -0.37323 l 0.37323,-0.37323 0.37322,0.37323 -0.37322,-0.37323 0.37322,-0.37322 h 0.37323 l 0.37323,-0.37323 0.37323,0.37323 z m 385.5443,-0.37323 0.37323,0.37323 -1.49291,1.49291 v 0.37323 l -0.37323,0.37322 v 0.37324 l -0.37323,0.37323 v 1.11968 l -0.37322,0.37323 v 0.74645 l -0.37323,0.37323 -0.37323,-0.37323 v -1.49291 l 0.37323,-0.37323 v -0.74645 l 0.37323,-0.37324 v -0.37322 l 0.37322,-0.37323 v -0.37323 l 1.49291,-1.49291 z m -10.8236,-1.49291 h 2.23936 l 0.37323,0.37323 -0.37323,0.37323 h -0.37323 0.37323 l 0.37323,-0.37323 h 0.37323 l 0.37322,0.37323 h 0.37323 l 0.37323,0.37322 h 0.37323 l 1.11968,1.11969 v 0.37322 l 0.37323,0.37323 v 0.37323 l -0.37323,0.37323 0.37323,-0.37323 0.37322,0.37323 v 0.74646 l -0.37322,0.37323 v 1.49291 l -0.37323,0.37322 v 0.37323 l -0.74646,0.74646 h -0.74645 l -0.37323,0.37322 h -0.37323 l -0.37322,0.37323 h -1.11969 l -0.37322,0.37323 h -1.11968 l -0.37323,-0.37323 h -0.74647 l -1.11968,-1.11968 v -0.37323 l -0.37322,-0.37323 v -2.23936 l 0.37322,-0.37324 v -1.49291 l 0.37323,-0.37322 v -0.37323 l 0.37323,-0.37323 v -0.37323 z m -422.12062,0.74646 0.74645,-0.74646 h 1.11969 l 0.74645,0.74646 v 0.74645 l -0.37323,0.37323 h -1.86613 l -0.37323,-0.37323 z m 450.85916,-1.11968 h 0.74645 l 0.37323,0.37322 h 0.37323 l 1.11968,1.11968 v 0.74646 l 0.37323,0.37323 v 0.37322 l 0.37322,0.37323 v 1.86615 l 0.37323,0.37322 v 1.11969 l -0.37323,0.37322 v 0.37323 l -1.11968,1.11968 h -0.37323 l -0.37322,0.37323 h -1.49291 l -0.37324,-0.37323 h -1.49291 l -0.37323,-0.37322 h -0.37322 l -0.37323,-0.37323 h -0.37323 l -1.11968,-1.11968 v -1.11969 l -0.37323,-0.37322 v -1.49292 l 0.37323,-0.37323 v -0.37323 l 1.11968,-1.11968 h 0.37323 l 1.11968,-1.11968 h 0.37323 l 0.37323,-0.37323 h 0.37322 l 0.37323,0.37323 h 0.74646 -0.37322 l -0.37324,-0.37323 z m -395.62146,-1.86614 0.37323,0.37323 -0.37323,0.37322 h -0.37322 0.37322 l 0.37323,0.37323 -0.37323,0.37323 h -0.74645 l -0.37323,-0.37323 0.37323,0.37323 -0.37323,0.37323 v 0.37322 l -0.37322,0.37323 v 1.11968 l 0.37322,0.37323 v 0.37323 h 0.37323 l 0.37323,0.37322 -0.37323,0.37323 v 0.37323 l -0.37323,0.37323 v 0.37322 l -0.37322,0.37324 -1.49291,-1.49292 v -2.98582 l 0.37322,-0.37322 v -0.74646 l 0.37323,-0.37323 h 0.37323 l 0.37323,-0.37322 h 0.37322 l 0.37323,-0.37323 z m 361.65773,-2.23937 0.37322,0.37322 v 0.37323 l -0.37322,0.37323 v 0.37323 l -0.37323,0.37323 v 0.37323 l -0.37323,0.37323 v 0.37322 l -0.37323,0.37323 v 0.37323 l -0.37322,0.37323 v 0.74645 l -0.37323,0.37323 v 0.74645 l -0.37324,0.37323 v 1.49291 l -0.37322,0.37323 v 2.98582 l -0.37323,0.37323 v 0.37323 l 0.37323,0.37323 v 2.98581 l 0.37322,0.37323 v 1.49292 l -0.37322,0.37323 -0.37323,-0.37323 v -1.11968 l -0.37323,-0.37324 v -1.49291 l -0.37323,-0.37323 v -4.1055 l 0.37323,-0.37322 v -1.86615 l 0.37323,-0.37323 v -1.11968 l 0.37323,-0.37323 v -0.74645 l 0.37322,-0.37323 v -0.74645 l 0.37324,-0.37323 v -0.37323 l 0.37323,-0.37322 v -0.37323 l 0.37322,-0.37323 v -0.37323 l 0.37323,-0.37323 v -0.37323 z m -18.6614,-1.11969 1.49291,1.49291 v 0.37323 l 1.11969,1.11969 v 0.37323 l 0.37323,0.37323 v 0.37322 l 0.74646,0.74646 v 0.37323 l 0.37322,0.37322 v 0.37323 l 0.37323,0.37323 v 0.37322 l 0.37323,0.37323 v 0.37323 l 0.37323,0.37323 v 0.37322 l 0.37322,0.37323 v 0.74646 l 0.37323,0.37322 v 0.74647 l 0.37323,0.37322 v 0.74646 l 0.37322,0.37323 v 1.11968 l 0.37323,0.37323 v 1.4929 l 0.37323,0.37323 v 8.58424 l -0.37323,0.37324 v 2.23936 l -0.37323,0.37323 v 1.11968 l -0.37322,0.37323 v 0.74645 l -0.37323,0.37323 v 0.74645 l -0.37323,0.37323 v 0.74646 l -0.37322,0.37323 v 0.37323 l -0.37323,0.37323 v 0.74645 l -0.37323,0.37323 v 0.37322 l -0.74645,0.74646 v 0.37323 l -0.37323,0.37322 v 0.37323 l -0.37323,0.37323 v 0.37323 l -0.74645,0.74645 v 0.37323 l -0.74647,0.74645 v 0.37324 l -1.49291,1.49291 v 0.37322 l -2.98581,2.98582 h -0.37323 l -0.37323,-0.37322 1.49291,-1.49291 v -0.37323 l 2.23936,-2.23936 v -0.37323 l 1.11969,-1.11969 v -0.37323 l 0.74645,-0.74645 v -0.37323 l 0.37324,-0.37323 v -0.37323 l 0.37322,-0.37322 v -0.37323 l 0.37323,-0.37323 v -0.37323 l 0.37323,-0.37322 v -0.37323 l 0.37323,-0.37323 v -0.37322 l 0.37322,-0.37323 v -0.37323 l 0.37323,-0.37323 v -0.74646 l 0.37323,-0.37323 v -1.11968 l 0.37323,-0.37323 v -0.37322 l 0.37322,-0.37323 v -1.11968 l 0.37323,-0.37323 v -1.11968 l 0.37323,-0.37323 v -3.73228 l 0.37322,-0.37323 v -3.35905 l -0.37322,-0.37322 v -2.23938 l -0.37323,-0.37322 v -1.49291 l -0.37323,-0.37323 v -0.74645 l -0.37322,-0.37323 v -1.11968 l -0.37323,-0.37323 v -0.37324 l -0.37323,-0.37322 v -0.74646 l -0.37323,-0.37323 v -0.37322 l -0.37322,-0.37323 v -0.37323 l -0.37323,-0.37323 v -0.37322 l -0.37323,-0.37323 v -0.37323 l -0.37323,-0.37322 v -0.37323 l -0.37322,-0.37323 v -0.37323 l -0.74647,-0.74645 v -0.37323 l -0.74645,-0.74646 v -0.37323 l -1.11968,-1.11968 v -0.37323 z m -130.25649,-1.86613 0.37323,0.37323 -0.37323,0.37322 v 0.37323 l -1.86614,1.86614 -0.37322,-0.37323 v -0.37323 l 0.74645,-0.74645 v -0.37323 l 1.11968,-1.11968 z m -90.69435,0 h 0.37323 l 0.37322,0.37323 h 0.37323 l 0.74646,0.74645 h 0.37323 l 1.11968,1.11968 h 0.37323 l 0.37323,0.37323 0.37322,-0.37323 0.37323,0.37323 v 0.37323 l -0.74645,0.74645 v 0.37323 l -0.74646,0.74646 v 0.37323 l -0.74645,0.74645 v 0.37323 l -0.74646,0.74646 v 0.37322 l -0.37322,0.37323 v 0.37323 l -0.37324,0.37322 v 0.37323 l -0.37323,0.37323 v 0.37323 l -0.37322,0.37322 v 0.74646 l -0.37323,0.37323 v 0.37322 l -0.37323,0.37324 v 0.74645 l -0.37323,0.37323 v 1.11968 l -0.37322,0.37323 v 0.74646 l -0.37323,0.37322 v 1.86614 l -0.37323,0.37323 v 7.83778 l 0.37323,0.37324 v 2.23936 l 0.37323,0.37323 v 1.11968 l 0.37322,0.37323 v 0.74645 l 0.37323,0.37323 v 0.74645 l 0.37323,0.37323 v 0.74646 l 0.37323,0.37323 v 0.37323 l 0.37322,0.37323 v 0.74645 l 0.37323,0.37323 v 0.37322 l 0.37324,0.37323 v 0.37323 l 0.37322,0.37323 v 0.37322 l 0.37323,0.37323 v 0.37323 l -0.37323,0.37323 -0.74646,-0.74646 v -0.37323 l -0.37323,-0.37322 v -0.37323 l -0.37322,-0.37323 v -0.37323 l -0.37323,-0.37322 v -0.37323 l -0.37323,-0.37323 v -0.37322 l -0.37323,-0.37323 v -0.74646 l -0.37322,-0.37323 v -0.74646 l -0.37323,-0.37322 v -0.74646 l -0.37323,-0.37323 v -1.11968 l -0.37323,-0.37323 v -1.49291 l -0.37322,-0.37322 v -1.86615 l -0.37323,-0.37323 v -5.59841 l 0.37323,-0.37322 v -1.86615 l 0.37322,-0.37323 v -1.86613 l 0.37323,-0.37323 v -1.11968 l 0.37323,-0.37323 v -0.74645 l 0.37323,-0.37323 v -0.37324 l 0.37322,-0.37322 v -0.74646 l 0.37323,-0.37323 v -0.37322 l 0.37323,-0.37323 v -0.37323 l 0.37323,-0.37323 v -0.37322 l 0.37322,-0.37323 v -0.37323 l 0.37323,-0.37322 v -0.37323 l 0.37324,-0.37323 v -0.37323 l 0.37322,-0.37322 v -0.37323 l 0.74646,-0.74646 v -0.37323 l 0.74645,-0.74646 -1.11968,-1.11968 h -0.37323 l -1.11969,-1.11968 h -0.37322 l -0.74646,-0.74645 z m -108.23606,0 0.37323,0.37323 -1.11968,1.11968 h -0.37323 l -1.11968,1.11968 h -0.37323 l -2.6126,2.6126 v 0.37323 l -1.11968,1.11968 v 0.37323 l -0.74645,0.74645 v 0.37323 l -0.74646,0.74645 v 0.37323 l -0.37323,0.37323 v 0.37322 l -0.37322,0.37323 v 0.37323 l -0.37323,0.37323 v 0.37322 l -0.37323,0.37324 v 0.74645 l -0.37323,0.37323 v 0.37323 l -0.37322,0.37323 v 0.74645 l -0.37323,0.37323 v 0.74645 l -0.37323,0.37323 v 1.86614 l -0.37322,0.37322 v 1.86615 l -0.37323,0.37323 -0.37323,-0.37323 v -2.98583 l 0.37323,-0.37323 V 191.707 l 0.37323,-0.37322 v -1.11969 l 0.37322,-0.37322 v -0.74646 l 0.37323,-0.37323 v -0.74645 l 0.37323,-0.37324 v -0.37322 l 0.37322,-0.37323 v -0.74646 l 0.74646,-0.74645 v -0.37323 l 0.37323,-0.37323 v -0.37322 l 0.74645,-0.74646 v -0.37322 l 1.49291,-1.49291 v -0.37323 l 4.10551,-4.10551 h 0.37323 l 0.74645,-0.74645 h 0.37323 l 0.37323,-0.37323 z m -28.73854,0 h 1.11969 l 0.37322,0.37323 h 0.37323 l 0.37323,-0.37323 h 0.37323 l 0.74646,0.74645 v 2.98582 l -0.37323,0.37323 v 0.37323 l -1.11969,1.11969 h -2.23936 l -0.74646,-0.74646 v -4.10551 l 0.37323,-0.37322 h 0.37323 z m 144.06593,-0.74646 0.37322,0.37323 -0.37322,0.37323 v 0.37323 l -2.23937,2.23936 -0.37323,-0.37323 v -0.37323 l 1.86614,-1.86613 v -0.37323 l 0.37323,-0.37323 z m -173.55092,0.74646 v 0.37323 l 0.37323,0.37322 v 2.61259 l -1.49291,1.49292 h -0.74646 l -0.37322,0.37323 h -1.11968 l -0.37323,-0.37323 h -1.86615 l -0.37322,0.37323 h -0.37323 l -0.37323,-0.37323 v -2.23937 l 0.37323,-0.37323 v -1.11968 l 1.11968,-1.11968 h 0.37323 l 0.74645,-0.74646 h 2.98583 l 0.37323,0.37323 h 0.37322 z m 429.58517,-1.49291 h 0.37323 l 0.37323,-0.37323 h 1.49291 l 0.37323,0.37323 -0.37323,0.37323 h -0.74646 0.74646 l 0.37323,-0.37323 h 0.74646 l 0.37323,0.37323 h 0.37322 l 0.37323,0.37322 h 0.37323 l 0.37323,0.37323 h 0.37322 l 1.49291,1.49291 v 0.37323 l 0.37323,0.37322 v 1.11969 l -0.37323,0.37322 v 0.37323 l -0.37323,0.37323 v 0.37323 l -1.4929,1.49291 h -0.37323 l -0.37323,0.37323 h -0.74645 l -0.37323,0.37323 h -1.11969 l -0.37323,-0.37323 h -0.37323 l -0.37322,-0.37323 h -0.37323 l -0.37323,-0.37322 h -0.37323 l -0.74645,-0.74646 v -0.37323 l -0.37323,-0.37323 v -0.74646 l -0.37322,-0.37322 v -1.49291 l 0.37322,-0.37323 v -1.11968 l 0.37323,-0.37323 v -0.37323 z m -6.7181,-0.37323 0.37323,0.37323 -0.37323,0.37323 h -1.49291 1.49291 l 0.37323,-0.37323 0.74646,0.74645 v 0.74646 l 0.37322,0.37323 v 3.73227 l -0.37322,0.37323 v 0.37323 l -1.11969,1.11968 h -0.37322 l -0.37323,0.37323 h -0.74646 l -0.37322,0.37323 h -1.49291 l -0.37323,-0.37323 h -0.37323 l -2.23937,-2.23937 v -1.11968 l -0.37323,-0.37323 v -1.11968 l 0.37323,-0.37323 v -0.37323 l 0.74646,-0.74645 h 0.37322 l 0.74647,-0.74646 h 0.37322 l 0.37323,0.37323 -0.37323,-0.37323 0.37323,-0.37322 h 0.37323 l 0.37323,-0.37323 h 0.74645 l 0.37323,-0.37323 z m -39.56214,0.37323 0.37323,-0.37323 h 0.37323 l 2.98582,2.98582 v 0.37323 l -0.37323,0.37322 z m 67.181,-0.74646 0.37323,0.37323 v 0.74646 l 0.37323,0.37322 v 1.11969 l 0.37322,0.37322 v 0.74646 l -0.37322,0.37322 h -0.74646 l -0.37323,0.37323 -1.11968,-1.11968 v -0.37323 l -0.74645,-0.74645 v -0.37323 l 0.37322,-0.37323 0.37323,0.37323 0.37323,-0.37323 h 0.37323 v -0.37322 l 0.37322,-0.37323 v -0.37323 z m -359.04512,-0.37323 0.37323,0.37323 -4.10551,4.1055 v 0.37323 l -1.11969,1.11968 v 0.37323 l -0.74645,0.74646 v 0.37323 l -0.74645,0.74646 v 0.37322 l -0.74646,0.74646 v 0.37323 l -0.37323,0.37322 v 0.37323 l -0.37322,0.37323 v 0.37322 l -0.37323,0.37323 v 0.37323 l -0.74646,1.11968 v 0.74646 l -0.37322,0.37322 v 0.74647 l -0.37324,0.37322 v 0.74646 l -0.37323,0.37323 v 1.11968 l -0.37322,0.37323 v 1.11968 l -0.37323,0.37322 v 2.23938 l -0.37323,0.37322 v 4.85196 l 0.37323,0.37323 v 2.6126 l 0.37323,0.37322 v 1.49291 l 0.37322,0.37323 v 1.11968 l 0.37323,0.37323 v 0.74646 l 0.37324,0.37322 v 0.74646 l 0.74645,1.11969 v 0.74645 l 0.37323,0.37323 v 0.37323 l 0.37323,0.37322 v 0.37323 l 0.37322,0.37323 v 0.37323 l 0.74646,0.74645 v 0.37323 l 0.37323,0.37323 v 0.37322 l -0.37323,0.37323 -0.74646,-0.74645 v -0.37323 l -0.74645,-0.74646 v -0.37322 l -0.37323,-0.37323 v -0.37323 l -0.37323,-0.37323 v -0.37322 l -0.37322,-0.37323 v -0.37323 l -0.74647,-1.11968 v -0.74646 l -0.37322,-0.37323 v -0.74645 l -0.37323,-0.37323 v -1.11968 l -0.37323,-0.37323 v -1.11968 l -0.37323,-0.37323 v -1.49291 l -0.37322,-0.37323 v -3.35905 l -0.37323,-0.37323 v -0.37323 h -0.37323 l -0.37322,-0.37322 0.37322,-0.37323 h 0.37323 v -0.37323 l 0.37323,-0.37323 v -2.6126 l 0.37322,-0.37322 v -1.86614 l 0.37323,-0.37323 v -1.49291 l 0.37323,-0.37322 v -0.74646 l 0.37323,-0.37323 v -0.74645 l 0.37322,-0.37324 v -0.74645 l 0.37323,-0.37323 v -0.37323 l 0.37324,-0.37322 v -0.74646 l 0.74645,-0.74645 v -0.37323 l 0.37323,-0.37323 v -0.37322 l 0.37323,-0.37323 v -0.37323 l 0.37322,-0.37323 v -0.37322 l 0.74646,-0.74646 v -0.37323 l 0.74645,-0.74646 v -0.37323 l 0.37323,-0.37322 v -0.37323 l -0.37323,-0.37323 h -0.37322 l -1.49291,-1.49291 0.37322,-0.37322 h 0.37323 l 0.74646,0.74645 h 0.37322 l 0.74646,0.74645 h 0.74645 v -0.37322 l 2.23937,-2.23937 -0.37323,-0.37322 0.37323,-0.37323 h 0.74646 l 1.11968,-1.11969 z m 319.85621,-0.37323 0.37323,0.37323 -2.98583,2.98583 -0.37323,-0.37323 v -0.37323 l 2.61259,-2.6126 z m -197.06427,0.37323 h 0.37322 l 1.86614,1.86614 h 0.37323 l 2.6126,3.35905 h 0.74645 l 1.49291,-1.49291 4.85197,-2.98582 h 0.74645 l 2.61259,-1.11969 h 1.11968 l 0.37323,0.37323 -0.37323,0.37323 -1.86613,0.37323 -1.11968,0.74646 h -0.74646 l -2.98583,1.49291 -3.73227,2.98581 v 0.74646 l 2.98582,4.47873 v 0.74646 l 1.49291,2.98583 0.37323,2.23936 0.37323,0.37323 v 1.86613 l 0.37323,0.37323 v 2.6126 l 0.37323,0.37323 v 3.73227 l -0.37323,0.37323 -0.37323,4.85196 -0.74646,1.49291 v 1.11969 l -1.11968,1.86614 v 0.74646 l -1.49291,2.98581 -1.49291,1.86614 -0.37323,1.11968 1.49291,1.49292 2.23936,1.49291 1.11969,0.37323 0.74646,0.74645 h 0.74645 l 1.86614,1.11968 h 0.74645 l 1.49291,0.74646 h 1.11969 l 0.37323,0.37323 h 2.23937 l 0.37322,0.37322 h 4.1055 l 0.37324,-0.37322 h 2.23936 l 0.37323,-0.37323 h 1.11968 l 1.49291,-0.74646 h 1.11968 l 5.97165,-3.35904 2.23937,-2.6126 1.86614,2.23937 -0.37323,0.74645 -1.11968,-1.11968 h -0.37323 l -3.35905,2.61259 -4.47874,2.23937 h -0.74645 l -1.49291,0.74645 h -1.11968 l -0.37323,0.37323 h -1.49291 l -0.37323,0.37324 h -6.7181 l -0.37323,-0.37324 h -1.49291 l -0.37323,-0.37323 h -1.11968 l -0.37323,-0.37322 h -1.11968 l -1.11968,-0.74646 h -0.74646 l -2.98583,-1.49291 -4.1055,-3.35904 h -0.74645 l -0.37323,-0.37323 1.86614,-2.6126 2.23936,-4.47873 v -0.74646 l 1.11968,-2.61259 0.37323,-2.98582 0.37323,-0.37323 v -1.86615 l 0.37323,-0.37322 v -5.59841 l -0.37323,-0.37324 -0.37323,-4.1055 -0.37323,-0.37323 -0.74645,-2.98582 -2.61259,-5.22519 -1.86614,-2.23937 -0.74645,-1.49291 -4.47874,-4.47873 z m -84.72271,-0.37323 h 0.37323 l 1.49291,1.49292 h 0.37322 l 0.37324,0.37323 v 0.37322 h 0.37323 l 0.37322,0.37323 v 0.37323 l 2.6126,2.61259 h 0.37322 l 1.11968,-1.11968 h 0.37323 l 0.74646,-0.74646 h 0.37322 l 0.74646,-0.74645 h 0.37323 l 0.37323,0.37323 -1.11969,1.11968 h -0.37323 l -1.49291,1.49291 h -0.37322 l -0.37323,0.37322 v 0.37323 l 0.37323,0.37323 v 0.37323 l 0.74645,0.74646 v 0.37323 l 0.74646,0.74645 v 0.37323 l 0.37322,0.37323 v 0.37322 l 0.37323,0.37323 v 0.37323 l 0.37323,0.37322 v 0.37323 l 0.74646,1.11968 v 0.74646 l 0.37323,0.37323 v 0.37322 l 0.37323,0.37324 v 0.74645 l 0.37322,0.37323 v 1.11968 l 0.37323,0.37323 v 1.11968 l 0.37323,0.37323 v 1.86614 l 0.37323,0.37322 v 6.7181 l -0.37323,0.37323 v 2.23937 l -0.37323,0.37323 v 1.49291 l -0.37323,0.37323 v 0.74645 l -0.37322,0.37323 v 0.74646 l -0.37323,0.37322 v 0.74646 l -0.37323,0.37323 v 0.37323 l -0.74646,1.11968 v 0.74646 l -0.37323,0.37322 v 0.37323 l -0.74645,0.74646 v 0.37322 l -0.37323,0.37323 v 0.37323 l -0.74646,0.74645 v 0.37323 l -0.74645,0.74645 -0.37323,-0.37322 v -0.37323 l 0.37323,-0.37323 v -0.37322 l 0.37323,-0.37323 v -0.37323 l 0.37322,-0.37323 v -0.37322 l 0.74646,-0.74646 v -0.37323 l 0.37323,-0.37322 v -0.74646 l 0.37322,-0.37322 v -0.37323 l 0.74646,-1.11969 v -0.74646 l 0.37323,-0.37322 v -0.74646 l 0.37323,-0.37323 v -1.11968 l 0.37323,-0.37323 v -1.11968 l 0.37323,-0.37323 v -1.4929 l 0.37322,-0.37324 v -7.83778 l -0.37322,-0.37323 V 191.707 l -0.37323,-0.37322 v -1.11969 l -0.37323,-0.37322 v -0.74646 l -0.37323,-0.37323 v -0.74645 l -0.37323,-0.37324 v -0.74645 l -0.37323,-0.37323 v -0.37323 l -0.37323,-0.37322 v -0.37323 l -0.37322,-0.37323 v -0.37323 l -0.37323,-0.37322 v -0.37323 l -0.37323,-0.37323 v -0.37322 l -0.37323,-0.37323 v -0.37323 l -0.74645,-0.74645 v -0.37323 l -0.74645,-0.74646 v -0.37323 l -1.11969,-1.11968 v -0.37323 l -5.22519,-5.22519 z m -63.82195,0.37323 -0.37323,0.37323 h -0.74645 l -0.37323,0.37323 h -0.74646 l -0.37322,0.37323 h -0.74646 l -0.37322,0.37323 h -0.37323 l -0.37323,0.37322 h -0.37323 l -0.37323,0.37323 h -0.37323 l -0.37323,0.37323 h -0.37322 l -0.37323,0.37323 h -0.37323 l -0.37323,-0.37323 0.74646,-0.74646 h 0.37323 l 0.37322,-0.37322 h 0.37323 l 0.37323,-0.37323 h 0.37323 l 0.37323,-0.37323 h 0.37323 l 0.37323,-0.37323 h 0.74645 l 0.37323,-0.37323 h 0.74645 l 0.37323,-0.37323 h 1.11968 z m 195.19813,-0.74646 0.37323,0.37323 -1.49292,1.49292 h -0.37322 l -1.86614,1.86614 -0.37323,-0.37323 v -0.37323 l 1.86614,-1.86614 h 0.37323 l 1.11968,-1.11969 z m -237.7461,0 0.74646,0.74646 v 0.37323 l 0.37322,0.37323 v 0.74646 l 0.37323,0.37322 v 0.74646 l 0.37324,0.37323 v 3.73227 l -0.37324,0.37323 v 0.74646 l -0.37323,0.37323 v 0.37322 l -0.37322,0.37323 -0.37323,-0.37323 v -0.74645 l 0.37323,-0.37323 v -1.11969 l 0.37322,-0.37323 v -2.23936 l -0.37322,-0.37323 v -1.11968 l -0.37323,-0.37323 v -0.74645 l -0.37323,-0.37323 v -0.37323 l -0.37323,-0.37323 v -0.37323 z m 275.81533,1.11969 2.23937,1.49291 2.6126,3.35905 h 0.74645 l 1.49291,-1.49291 4.85196,-2.98582 6.34487,-1.86614 7.09133,-0.37323 6.7181,1.86614 3.73228,1.86614 4.85196,3.35905 -0.74646,0.37322 0.37323,0.37323 -1.49291,1.86615 -2.61259,5.22518 -1.86614,7.09133 0.37323,10.07715 1.49291,5.22519 2.23936,4.47873 -0.37323,0.74646 -1.86613,-2.98582 -2.23937,-5.97165 -0.74646,-4.85196 v -4.85196 l 1.49292,-7.46455 4.47873,-8.95748 -1.49291,-1.49291 -5.22519,-2.98581 -6.7181,-1.86615 h -7.09133 l -2.98582,0.74646 -5.22519,2.23937 -4.47873,3.35904 v 0.74646 l 3.73227,5.97164 1.86614,6.34488 0.37323,8.21101 -1.11969,5.97164 -4.85195,10.07716 7.09133,4.47873 7.46455,1.86613 h 4.47873 l 7.09133,-1.86613 5.22519,-2.98582 1.86614,-1.86615 0.37322,0.37324 0.37323,-0.37324 1.11969,1.11969 -0.37323,0.74646 -1.11969,-0.74646 -4.1055,2.98582 -5.97164,2.61259 -3.35906,0.74647 h -7.46455 l -5.22518,-1.49292 -4.47874,-2.23937 -4.47874,-3.35904 1.86615,-2.6126 3.35904,-7.83778 0.74646,-3.35905 0.37322,-7.83778 -1.4929,-6.7181 -2.23937,-4.85197 -2.6126,-4.10551 -4.85195,-5.22518 z m -67.55423,-1.11969 h 0.74646 l 0.37323,-0.37322 h 1.49291 l 0.37323,-0.37323 h 5.59842 l 0.37322,0.37323 h 1.49291 l 0.37323,0.37322 h 1.11968 l 0.37323,0.37323 h 1.11968 l 0.37323,0.37323 h 0.74645 l 1.11969,0.74646 h 0.74646 l 0.37323,0.37323 1.11968,0.37323 0.74645,0.74645 1.11969,0.37323 0.74645,0.74645 h 0.37323 l 1.11968,1.11968 h 0.37324 l 0.74645,0.74646 h 0.37323 l 0.37322,0.37323 v 0.37322 l -0.74645,0.74646 -0.37323,1.11969 -0.74646,0.74645 v 0.37323 l -0.37323,0.37323 v 0.37323 l -0.37323,0.37322 v 0.37323 l -0.37322,0.37323 v 0.37322 l -0.37323,0.37323 v 0.37323 l -1.11968,1.86614 v 0.74646 l -0.37323,0.37323 v 1.11968 l -0.37323,0.37323 v 0.74645 l -0.37322,0.37323 v 1.11968 l -0.37323,0.37323 v 2.6126 l -0.37323,0.37322 v 4.85196 l 0.37323,0.37323 v 2.6126 l 0.37323,0.37322 v 1.11969 l 0.37322,0.37322 v 1.11969 l 0.37323,0.37322 v 1.11969 l 0.37323,0.37322 v 0.74646 l 0.37323,0.37323 v 0.74646 l 0.37322,0.37323 v 0.37322 l 0.37323,0.37323 v 0.37323 l 0.37323,0.37322 v 0.37323 l 0.37322,0.37323 v 0.37323 l 0.37323,0.37322 0.37323,1.11969 0.74646,0.74645 v 0.37323 l -0.37322,0.37322 -1.49292,-1.4929 v -0.37323 l -0.37323,-0.37323 v -0.37323 l -0.37323,-0.37322 v -0.37323 l -1.11968,-1.86614 v -0.74645 l -0.74645,-1.11969 v -0.74646 l -0.37323,-0.37322 v -0.74646 l -0.37323,-0.37323 v -1.11968 l -0.37323,-0.37323 v -1.49291 l -0.37322,-0.37322 v -2.23938 l -0.37323,-0.37322 v -5.22519 l 0.37323,-0.37322 v -2.23938 l 0.37322,-0.37322 v -1.49291 l 0.37323,-0.37323 v -1.11968 l 0.37323,-0.37323 v -0.74645 l 0.74645,-1.11969 v -0.74646 l 0.37323,-0.37323 v -0.37322 l 1.11968,-1.86614 v -0.74645 l 0.74646,-0.74646 0.37322,-1.11968 0.74646,-0.74646 v -0.37323 l 0.37324,-0.37323 v -0.74645 H 496.51 l -1.49291,-1.49291 h -0.37323 l -0.74645,-0.74646 h -0.37323 l -0.37323,-0.37322 h -0.37322 l -0.37323,-0.37323 h -0.37323 l -0.37323,-0.37323 h -0.37322 l -1.86615,-1.11968 h -0.74645 l -1.11969,-0.74646 h -1.11968 l -0.37322,-0.37323 h -1.49291 l -0.37323,-0.37323 h -7.83778 l -0.37323,0.37323 h -1.49292 l -0.37323,-0.37323 z m -91.81403,3.35906 0.74646,-0.74646 h 0.37323 l 0.37322,-0.37322 h 0.37323 l 0.37323,-0.37323 h 0.37323 l 0.37322,-0.37323 h 0.74646 l 0.37323,-0.37323 h 0.37322 l 0.37323,-0.37323 h 0.74645 l 0.37323,-0.37323 h 1.11969 l 0.37323,-0.37323 h 1.11968 l 0.37323,-0.37322 h 1.86614 l 0.37322,-0.37323 h 4.85197 l 0.37322,0.37323 h 1.86614 l 0.37323,0.37322 h 1.11968 l 0.37323,0.37323 h 0.74645 l 0.37324,0.37323 h 0.74645 l 0.37323,0.37323 h 0.74645 l 0.37323,0.37323 h 0.37323 l 0.37323,0.37323 h 0.37322 l 0.37323,0.37323 h 0.37323 l 0.37323,0.37322 h 0.37322 l 0.74646,0.74646 -0.37323,0.37323 h -0.37323 l -0.37322,-0.37323 h -0.37323 l -0.37323,-0.37323 h -0.37323 l -0.37322,-0.37323 h -0.74646 l -0.37323,-0.37322 h -0.37322 l -0.37323,-0.37323 h -0.74645 l -0.37323,-0.37323 h -0.37324 l -0.37323,-0.37323 h -0.74645 l -0.37323,-0.37323 h -1.49291 l -0.37322,-0.37323 h -8.21101 l -0.37323,0.37323 h -1.11968 l -0.37323,0.37323 h -1.11969 l -0.37323,0.37323 h -0.74645 l -0.37323,0.37323 h -0.37323 l -0.37322,0.37323 h -0.74646 l -0.37323,0.37322 h -0.37322 l -0.37323,0.37323 h -0.37323 l -0.37323,0.37323 h -0.37322 l -0.37323,0.37323 h -0.37323 z m -74.27233,-2.98583 0.37323,-0.37323 h 1.11968 l 0.37323,-0.37322 h 2.23937 l 0.37323,-0.37323 h 2.98582 l 0.37322,0.37323 h 1.86615 l 0.37323,0.37322 h 1.11968 l 0.37323,0.37323 h 1.11968 l 0.37323,0.37323 h 0.37322 l 0.37323,0.37323 h 0.74645 l 0.37323,0.37323 h 0.37323 l 0.37323,0.37323 h 0.37322 l 0.37323,0.37323 h 0.37324 l 0.74645,0.74645 -0.37323,0.37323 h -0.37322 l -0.37324,-0.37323 h -0.37323 l -0.37322,-0.37323 h -0.37323 l -0.37323,-0.37322 h -0.74645 l -0.37323,-0.37323 h -0.37323 l -0.37322,-0.37323 h -0.74646 l -0.37323,-0.37323 h -0.74645 l -0.37323,-0.37323 h -1.49292 l -0.37322,-0.37323 h -6.7181 l -0.37323,0.37323 h -1.49291 z m -32.84404,-2.98582 h 0.37323 l 0.37323,0.37323 v 0.37323 l 0.37322,0.37322 v 0.74646 l 0.37323,0.37323 -0.37323,0.37322 h -0.37322 l -0.37323,-0.37322 h -0.37323 l -0.74646,-0.74646 0.37323,-0.37323 -0.37323,-0.37322 z m 388.53012,1.49291 v -0.74645 l 0.37322,-0.37323 h 0.37323 l 0.37323,-0.37323 h 2.23936 l 0.37323,-0.37323 h 0.37323 l 0.37323,0.37323 h 3.35905 l 0.37323,0.37323 -0.37323,0.37323 h -1.11968 1.11968 l 0.37323,0.37322 -0.37323,0.37323 h -4.10551 l -0.37323,0.37323 h -2.98582 z m 41.05506,-2.23936 h 2.23936 l 0.37323,0.37322 -0.37323,0.37323 h -0.74646 0.74646 l 0.37323,-0.37323 0.74645,0.74646 v 2.23936 l -0.37323,0.37323 v 0.37323 l -0.74645,0.74646 h -0.37323 l -0.37323,0.37323 h -0.74645 l -0.37323,-0.37323 h -0.37322 l -1.1197,-1.11969 v -2.61259 l 0.37324,-0.37323 h 0.37323 v -0.37323 z m -192.95877,2.23936 0.37323,-0.37323 h 0.37323 l 0.37323,-0.37322 h 0.37322 l 0.37323,-0.37323 h 0.74645 l 0.37323,-0.37323 h 1.11968 l 0.37323,-0.37323 h 1.86615 l 0.37322,-0.37322 h 7.09133 l 0.37323,0.37322 h 1.86614 l 0.37322,0.37323 h 1.11968 l 0.37323,0.37323 h 0.74646 l 0.37322,0.37323 h 0.74646 l 0.37323,0.37322 h 0.37323 l 0.37323,0.37323 h 0.37323 l 0.37322,0.37323 h 0.37323 l 0.74646,0.74645 -0.37323,0.37323 h -0.37323 l -0.37323,-0.37323 h -0.74645 l -0.37323,-0.37322 h -0.37323 l -0.37323,-0.37323 h -0.37323 l -0.37323,-0.37323 h -0.74645 l -0.37323,-0.37323 h -1.11968 l -0.37323,-0.37322 h -1.49291 l -0.37322,-0.37323 h -3.73229 l -0.37322,-0.37323 h -0.74646 l -0.37323,0.37323 h -3.35905 l -0.37323,0.37323 h -1.11968 l -0.37323,0.37322 h -1.11968 l -0.37323,0.37323 h -1.11968 l -0.37322,0.37323 h -0.74646 z m -85.09593,0.37323 0.37323,-0.37323 h 0.37322 l 0.37323,-0.37323 h 0.37323 l 0.37323,-0.37322 h 0.74645 l 0.37323,-0.37323 h 0.74645 l 0.37323,-0.37323 h 1.11968 l 0.37324,-0.37323 h 1.86613 l 0.37323,-0.37322 h 6.7181 l 0.37323,0.37322 h 1.86614 l 0.37322,0.37323 h 1.11968 l 0.37323,0.37323 h 0.37323 l 0.37323,0.37323 h 0.74646 l 0.37323,0.37322 h 0.37322 l 0.37323,0.37323 h 0.37323 l 0.37323,0.37323 -0.37323,0.37323 h -0.74646 l -0.37322,-0.37323 h -0.74646 l -0.37323,-0.37323 h -0.74646 l -0.37323,-0.37323 h -1.11968 l -0.37322,-0.37322 h -1.11969 l -0.37322,-0.37323 h -3.73229 l -0.37322,-0.37323 h -0.74646 l -0.37322,0.37323 h -3.35905 l -0.37323,0.37323 h -1.11969 l -0.37323,0.37322 h -1.11968 l -0.37323,0.37323 h -0.74645 l -0.37323,0.37323 h -0.74645 l -0.37323,0.37323 h -0.74645 z m -84.34948,0 0.37323,-0.37323 h 0.37322 l 0.37323,-0.37323 h 0.74646 l 0.37322,-0.37322 h 0.37323 l 0.37323,-0.37323 h 0.74645 l 0.37324,-0.37323 h 0.74645 l 0.37323,-0.37323 h 1.49291 l 0.37323,-0.37322 h 7.83778 l 0.37323,0.37322 h 1.86613 l 0.37323,0.37323 h 0.74646 l 0.37323,0.37323 h 0.74646 l 0.37322,0.37323 h 0.74646 l 0.74645,0.74645 -0.37322,0.37323 h -0.74646 l -0.37323,-0.37323 h -0.74645 l -0.37323,-0.37323 h -1.11969 l -0.37323,-0.37322 h -1.11968 l -0.37323,-0.37323 h -2.61259 l -0.37322,-0.37323 h -2.98583 l -0.37323,0.37323 h -2.61259 l -0.37323,0.37323 h -1.49291 l -0.37322,0.37322 h -0.74647 l -0.37323,0.37323 h -0.74645 l -0.37323,0.37323 h -0.74645 l -0.37323,0.37323 h -0.74645 z m 253.04843,0 0.37323,-0.37323 h 0.37322 l 0.37323,-0.37323 h 0.37324 l 0.37323,-0.37322 h 0.37322 l 0.37323,-0.37323 h 0.74645 l 0.37323,-0.37323 h 0.74646 l 0.37322,-0.37323 h 1.49291 l 0.37323,-0.37322 h 2.6126 l 0.37323,-0.37323 h 2.23936 l 0.37323,0.37323 h 2.98582 l 0.37323,0.37322 h 1.49291 l 0.37323,0.37323 h 0.74645 l 0.37323,0.37323 h 0.74646 l 0.37322,0.37323 h 0.74646 l 0.37323,0.37322 h 0.37322 l 0.74646,0.74646 -0.37323,0.37323 h -0.74645 l -0.37323,-0.37323 h -0.74646 l -0.37322,-0.37323 h -0.74646 l -0.37323,-0.37323 h -0.74645 l -0.37323,-0.37322 h -1.49291 l -0.37323,-0.37323 h -8.58424 l -0.37323,0.37323 h -1.11968 l -0.37323,0.37322 h -1.11968 l -0.37323,0.37323 h -0.74645 l -0.37323,0.37323 h -0.74645 l -0.37324,0.37323 h -0.74645 z m 48.14639,-3.35905 0.37322,0.37323 v 0.37323 l 0.37323,0.37322 -0.37323,0.37323 v 2.23937 l 0.37323,-0.37323 h 0.37323 l 0.37322,0.37323 v -0.37323 l 0.37323,-0.37323 0.37323,0.37323 v 0.74645 l -0.37323,0.37323 h -3.73227 l -0.37323,-0.37323 0.37323,-0.37322 h 1.11968 l 0.37323,-0.37323 v -2.98582 z m -3.73228,-0.37322 h 0.37323 l 0.74645,0.74645 v 2.61259 l 0.74646,0.74646 -0.37323,0.37322 h -0.37323 l -0.74645,-0.74645 v -2.61259 l -0.74646,-0.74646 z m -6.34487,0 -0.37323,0.37322 v 1.86614 l -0.37323,0.37323 v 0.74645 l -1.49291,1.49291 h -0.37323 l -0.37323,-0.37323 h -0.74645 l -0.37323,0.37323 h -0.37323 l -0.37322,-0.37323 h -0.37323 l -0.74646,-0.74645 v -0.37323 l -0.37322,-0.37323 v -1.86613 l 0.37322,-0.37323 v -0.37323 l 0.37323,-0.37322 h 0.74646 l 0.74645,0.74645 v 2.61259 l 0.37323,0.37323 h 0.37322 l 0.37323,-0.37323 v -1.11968 l 0.37323,-0.37323 v -1.49291 l 0.37323,-0.37322 h 0.74645 l 0.37324,-0.37323 h 0.74645 z m 13.80943,-0.74646 0.37322,0.37323 -0.37322,0.37323 h -1.86615 0.74646 l 0.37322,0.37322 -0.37322,0.37323 v 2.61259 l -0.37323,0.37323 -0.37323,-0.37323 v -2.61259 h -1.49291 l -0.37322,-0.37323 0.74645,-0.74645 h 0.37323 l 0.37322,-0.37323 z m -55.61094,-0.37323 0.37322,0.37323 v 2.98582 l -1.11968,1.11968 h -0.37323 l -0.37322,0.37323 -0.37323,-0.37323 v -0.74645 l -0.37323,-0.37323 v -2.98582 l 0.37323,-0.37323 0.37323,0.37323 v 1.86614 h 0.37322 v -0.37323 l 0.37323,-0.37323 0.37323,0.37323 v -1.49291 z m -307.91292,0 h 0.37323 l 0.37322,0.37323 h 2.98582 l 0.37323,0.37323 v 0.37323 l 0.37323,0.37322 v 1.11968 l 0.37322,0.37323 v 0.74646 l -0.74645,0.74645 h -0.37323 l -1.86613,1.86614 v 2.23937 l 0.37322,0.37323 v 0.37323 l 0.74646,0.74645 h 1.11968 l 0.37323,0.37323 h 0.74646 l 0.74646,0.74645 v 1.49291 l 0.37322,0.37323 -0.37322,0.37323 v 0.37323 l -0.74646,0.74646 v 0.37322 l -0.37324,0.37323 h -1.11968 l -0.37323,-0.37323 0.37323,-0.37322 h 0.74646 -0.74646 l -0.37323,-0.37323 0.37323,-0.37323 h 0.37323 l 0.37323,-0.37323 v -1.49291 l -0.74646,-0.74646 h -0.37323 l -0.37322,-0.37323 h -0.74646 l -0.37322,-0.37322 h -0.37323 l -0.37323,-0.37323 v -1.49291 l -0.37323,-0.37323 v -2.23937 l -0.37322,-0.37323 v -0.37322 l 1.11968,-1.11969 0.37323,0.37323 h 0.74645 -0.74645 l -0.37323,-0.37323 0.37323,-0.37322 h 0.37322 v -2.61259 h -1.86613 l -0.74646,-0.74646 z m 313.51134,0.74646 v -0.37323 l 0.37322,-0.37323 h 0.37323 v -0.37322 l 0.37323,-0.37323 h 2.23936 l 0.37323,0.37323 -0.37323,0.37322 h -0.37323 l -0.37322,0.37323 h -0.37323 l -0.37323,0.37323 h -1.11968 l -0.37323,0.37323 z m -24.25982,-1.49291 h 0.74646 l 0.74645,0.74645 h 2.98583 l 0.37323,0.37323 -0.37323,0.37323 h -2.6126 0.74646 l 0.37323,0.37323 v 0.74645 l -0.37323,0.37323 v 0.74645 l 0.37323,0.37323 v 0.37323 h 1.11968 v -1.11969 l 0.37323,-0.37322 v -1.49291 l 1.11968,-1.11968 h 0.74646 l 0.37322,-0.37323 0.37323,0.37323 v 0.74645 l -0.37323,0.37323 v 1.86613 l -0.37322,0.37323 v 0.37323 l -0.37323,0.37323 v 0.37322 l -0.37323,0.37323 h -0.74645 v 0.37323 l -0.37323,0.37323 v 0.37322 l -0.37323,0.37323 -0.37322,-0.37323 v -1.11968 h -0.74646 l 0.37323,0.37323 -0.37323,0.37323 h -0.37323 l 0.37323,0.37322 h 0.74646 l 0.37322,0.37323 -0.37322,0.37323 h -1.11969 l -0.74646,-0.74646 v -1.11968 l -0.37323,-0.37323 v -1.49291 l -0.74645,-0.74645 v -0.74645 l -0.37323,-0.37323 v -0.37323 l -0.74645,-0.74645 z m -25.00625,-0.37324 h 0.74645 l 0.37323,0.37324 h 0.37323 l 0.37322,0.37323 h 4.10551 l 0.74646,-0.74647 0.37323,0.37324 v 0.37323 l -0.37323,0.37322 v 1.11969 l -0.37323,0.37322 v 0.74646 l -0.37323,0.37322 v 0.37323 l -0.37323,0.37323 -0.37323,-0.37323 0.37323,0.37323 v 0.37323 l -0.37323,0.37322 v 0.74646 l -0.37323,0.37323 v 0.37322 l -0.74645,0.74646 h -0.37323 l -0.37323,0.37323 h -0.37322 l -0.37323,-0.37323 v -0.74646 l 0.37323,-0.37322 v -0.74646 h -0.37323 l -0.37323,-0.37323 -0.37323,0.37323 h -0.37322 l -0.74646,-0.74645 v -0.37323 l -0.37323,-0.37323 v -0.37323 l -0.37322,-0.37322 v -2.23937 l -0.37323,-0.37322 v -0.37323 z m -127.6439,0 0.37322,-0.37322 0.37323,0.37322 v 0.74647 l 0.37323,0.37322 h 0.74645 l 0.37323,0.37323 -0.74646,0.74646 h -0.74645 l -0.74645,-0.74646 z m 108.60928,-0.37322 0.37322,-0.37323 h 2.98583 l 0.37323,0.37323 -0.37323,0.37322 v 2.23938 l 0.37323,0.37322 -0.37323,0.37323 h -0.74646 l -0.37323,-0.37323 h -0.37323 l -0.37322,-0.37322 h -0.74646 l -0.37323,-0.37323 v -1.86615 z m -17.91493,0 0.37323,-0.37323 h 0.37322 l 0.37323,0.37323 h 3.35905 l 0.37322,0.37322 v 1.49292 l -0.37322,0.37323 h -0.37323 l -0.37323,0.37323 h -0.74645 l -0.37323,0.37322 h -1.11968 l -0.37323,0.37323 h -0.37323 l -0.37322,-0.37323 0.37322,-0.37322 v -1.49291 l -0.37322,-0.37323 v -0.37324 z m -22.39368,-0.37323 0.37323,-0.37323 h 0.37324 l 0.37322,0.37323 h 0.37323 l 0.37323,0.37323 v 2.23937 l 0.37323,0.37323 v 0.37322 l 0.74645,0.74646 h 1.11968 l 0.74646,-0.74646 v -2.6126 l 0.74645,-0.74645 h 0.37323 l 0.37323,-0.37323 0.37322,0.37323 v 1.49292 l -0.37322,0.37322 v 1.86614 l -0.37323,0.37323 v 0.37322 l -0.37323,0.37323 h -0.37322 l -0.74646,0.74646 h -0.37323 l -0.74645,0.74645 h -0.37323 l -0.37323,-0.37323 h -0.37322 l -0.74646,-0.74645 v -0.74646 l -0.74645,-0.74645 v -1.49291 l 0.37322,-0.37323 -0.37322,0.37323 -0.37324,-0.37323 v -1.49291 z m -24.2598,-0.37323 0.37323,-0.37323 0.37323,0.37323 h 0.37322 l 0.37323,0.37323 h 0.37323 l 0.37323,0.37323 -0.37323,0.37322 v 1.86615 l 0.37323,0.37323 h 0.37322 l 0.37323,0.37322 h 0.37323 l 0.37323,-0.37322 h 0.37323 v -0.74646 l 0.37323,-0.37323 v -1.49291 l 0.74645,-0.74646 h 0.74646 l 0.37323,0.37323 v 1.11969 l -0.37323,0.37323 v 1.49291 l -0.37323,0.37322 v 0.74646 l -0.37323,0.37322 h -0.74645 l -0.37323,0.37323 h -0.37323 l -0.37323,0.37323 h -1.11968 l -0.74646,-0.74646 0.37323,-0.37322 -0.37323,-0.37323 -0.37323,0.37323 -0.74645,-0.74646 v -1.11968 l -0.37323,-0.37323 z m -231.02799,-0.74645 h 0.37323 l 0.37322,0.37322 -0.37322,0.37323 0.37322,0.37323 -0.37322,-0.37323 0.37322,-0.37323 h 0.37323 l 0.37323,0.37323 h 0.37323 l 0.37322,0.37323 -0.37322,0.37323 h -0.37323 0.37323 l 0.37322,-0.37323 0.37323,0.37323 v 0.37322 l 0.37323,0.37324 v 0.37323 l -0.74646,0.74645 v 0.37323 l -0.37322,0.37323 v 0.37322 l -0.74646,0.74646 h -0.74645 l -0.74646,-0.74646 v -1.11968 l 0.37323,-0.37323 v -0.74645 h -0.37323 l -0.74645,-0.74646 0.37322,-0.37323 v -0.37323 z m 194.45167,-0.37323 0.74646,0.74645 v 1.86615 l -0.37323,0.37323 v 1.11968 h 0.37323 l 0.37322,0.37323 -0.37322,0.37322 h -0.37323 l -0.37323,0.37323 h -0.74645 l -0.37323,0.37323 h -0.37323 l -0.37323,0.37322 h -0.37322 l -0.37323,-0.37322 0.74645,-0.74646 h 0.37323 l 0.37323,-0.37322 h 0.74645 v -3.73229 l -0.37322,-0.37322 0.37322,-0.37323 z m 17.91493,-0.37323 h 0.74646 l 0.74646,0.74646 h 0.74645 l 0.37323,0.37322 v 1.11969 l -0.37323,0.37322 v 1.49292 l -0.37323,0.37323 v 0.37323 l 0.37323,0.37322 -0.37323,0.37323 h -0.37322 l -0.37323,-0.37323 h -0.37323 l -0.74646,-0.74645 0.37323,-0.37323 v -3.35905 h -0.37323 l -0.37323,-0.37323 z m -13.80943,0 0.37324,0.37323 v 0.37323 l 0.37322,0.37322 v 2.6126 l -0.37322,0.37323 h -0.37324 l -0.37323,0.37323 h -0.37322 l -0.37323,-0.37323 0.37323,-0.37323 v -0.37322 l 0.37322,-0.37323 v -2.6126 z m -27.61885,0 0.37323,-0.37323 h 0.37323 l 0.37322,0.37323 h 0.37323 l 0.37323,0.37323 v 3.35905 l 0.74645,0.74646 h 1.49291 l 0.37323,-0.37323 v -3.35905 l 0.74646,-0.74646 h 1.11969 l 0.37322,0.37323 -0.37322,0.37323 v 2.23937 l -0.37324,0.37323 v 0.74645 l -1.11968,1.11968 h -0.37323 l -0.37323,0.37323 h -1.11968 l -0.37323,-0.37323 h -0.37322 l -0.37323,-0.37322 h -0.37323 l -0.74645,-0.74646 v -0.37323 l -0.37323,-0.37322 v -2.98583 z m -24.25981,-0.37323 0.37323,-0.37322 h 0.37323 l 0.37322,0.37322 h 0.37323 l 0.37323,0.37323 v 2.98583 l -0.37323,0.37323 0.37323,-0.37323 0.37323,0.37323 v 0.37322 h 0.37323 l 0.37323,0.37323 h 0.74645 l 0.74646,-0.74645 v -0.74647 l 0.37323,-0.37322 v -2.23937 l 0.37322,-0.37323 h 0.74646 l 0.37323,0.37323 v 1.86614 l -0.37323,0.37323 v 1.11969 l -1.49291,1.49291 h -0.74646 l -0.37322,0.37322 h -0.74646 l -0.37323,-0.37322 h -0.37323 l -1.11968,-1.11969 v -0.37322 l -0.37323,-0.37323 v -2.98583 z m -29.85822,-0.74645 h 0.74646 l 0.37322,0.37323 v 2.61259 l -0.37322,0.37323 v 1.11969 l -0.37323,0.37322 h -0.37323 l -1.11968,-1.11969 0.37323,-0.37322 v -1.49291 l 0.37322,-0.37323 v -0.37323 l -0.37322,-0.37323 z m 8.95747,0 0.37322,-0.37323 h 2.23938 l 0.37322,0.37323 -0.37322,0.37323 h -0.37323 v 3.73228 h 1.49291 l 0.74645,-0.74646 v -0.74646 l 0.37323,-0.37323 v -1.86613 h -0.37323 l -0.37322,-0.37323 0.37322,-0.37323 h 0.74646 l 0.37322,0.37323 v 2.98582 l -0.37322,0.37323 v 0.74646 l -0.74646,0.74645 h -3.35905 l -0.37323,-0.37322 v -1.49292 l -0.37323,-0.37323 v -1.86614 l -0.37322,-0.37322 z m -13.06298,-1.49291 0.37324,0.37323 v 0.37322 h 0.37323 l 0.74645,0.74646 v 3.35905 l 0.37323,0.37322 h 1.11968 l 0.74645,0.74647 -0.37322,0.37322 h -1.86614 l -1.49292,-1.49291 v -2.6126 l -0.37323,-0.37322 v -0.74646 l -0.37322,-0.37323 z m -70.91327,0 h 0.74646 l 1.11968,1.11968 v 0.37323 l 0.74645,0.74645 v 0.37323 l 0.37323,0.37323 v 0.37323 l 0.37323,0.37322 v 0.74646 l -1.86614,1.86614 h -0.37323 l -0.37322,0.37323 -1.11969,-1.11968 v -0.37324 l -0.74646,-0.74645 v -0.37323 l -0.74645,-0.74645 v -0.74646 l 0.37322,-0.37323 v -0.74645 l 0.37323,-0.37323 0.37323,0.37323 v 0.74645 -0.74645 l 0.37323,-0.37323 -0.37323,-0.37323 z m -30.97791,1.86614 1.49291,-1.49291 h 0.37324 l 0.37322,-0.37323 h 0.37323 l 0.37323,-0.37323 h 0.37323 l 0.37322,0.37323 h 1.49291 l 0.37323,0.37323 h 0.37323 l 1.11968,1.11968 v 2.23936 l -0.37323,0.37323 v 0.37323 l -0.74645,0.74645 h -0.37323 l -0.37323,0.37324 h -4.10551 l -1.49291,-1.49292 v -1.11968 l 0.37323,-0.37323 z m 80.24397,-2.61259 h 0.74646 l 0.74646,0.74645 -0.37323,0.37323 v 2.23936 l -0.37323,0.37323 -0.37322,-0.37323 v -2.61259 2.61259 l 0.37322,0.37323 0.37323,-0.37323 0.37323,0.37323 v 0.37323 h 1.86614 v -0.37323 l 0.37322,-0.37323 v -1.49291 l 0.37323,-0.37323 v -0.74645 l 0.37323,-0.37323 h 1.11968 l 0.37323,0.37323 v 1.11968 l -0.37323,0.37323 v 1.11968 l -0.37323,0.37323 v 0.37323 l -0.74645,0.74645 v 0.37323 l -0.37323,0.37323 v 1.11969 l -0.74645,0.74645 v 0.37323 l -0.74646,0.74645 h -0.74645 l -0.37323,-0.37322 v -2.6126 l -1.86615,-1.86614 v -3.35905 z m -60.4629,-0.37323 h 0.37323 l 0.37323,0.37323 h 0.74645 l 0.37323,0.37322 h 0.37323 l 1.11968,1.11968 v 0.37323 l 0.37324,0.37323 v 1.86614 l -0.37324,0.37322 v 0.37323 l -1.11968,1.11968 h -0.37323 l -0.37323,0.37324 h -0.37322 l -0.37323,0.37323 h -1.11968 l -0.37323,-0.37323 h -0.74645 l -0.37323,-0.37324 h -0.37323 l -0.74645,-0.74645 v -0.37323 l -0.37323,-0.37323 v -0.37322 l -0.37324,-0.37323 v -1.11968 l 0.37324,-0.37323 v -0.37323 l 0.74645,-0.74645 0.37323,0.37322 -0.37323,-0.37322 0.74646,-0.74646 h 0.37323 l 0.37322,-0.37322 h 0.74646 z m -26.12594,-0.37323 h 0.37322 l 0.74647,0.74646 h 0.37323 l 0.74645,0.74645 v 1.86614 l -0.37323,0.37322 h -0.37322 l -0.37323,0.37323 h -0.37324 l -0.37323,-0.37323 h -0.37322 l -0.37323,-0.37322 v -2.98582 z M 277.4253,154.011 h 0.74645 l 0.37323,0.37323 v 0.74645 l 0.37323,0.37323 v 0.37323 l -0.37323,0.37322 v 0.37323 l -0.37323,0.37323 v 1.11968 l 1.86614,1.86615 h 2.98583 l 0.37322,-0.37323 v -0.74647 l -0.37322,-0.37322 v -1.11968 l -0.37323,-0.37323 v -1.49291 l -0.37323,-0.37323 v -0.37323 l 0.74646,-0.74645 h 0.74645 l 0.37323,0.37323 v 0.37322 h 0.37323 l 0.37322,0.37323 h 3.73228 l 0.37322,0.37323 -0.37322,0.37323 v 1.11968 l -0.37323,0.37323 v 1.11968 l -0.37323,0.37322 v 0.37324 l -1.11968,1.11968 h -1.86614 l -0.37322,-0.37322 h -0.37323 v 0.37322 l 0.37323,0.37323 v 0.74645 l 0.37322,0.37323 -0.74645,0.74646 h -0.37323 l -0.37323,-0.37323 0.37323,-0.37323 h -0.74645 l 0.74645,0.74646 -1.11968,1.11968 v 1.11968 l -0.37323,0.37323 -0.37323,-0.37323 v -0.37323 l -0.37323,-0.37322 v -0.37323 l -0.74646,-0.74646 0.37323,-0.37322 v -0.37323 l 0.37323,-0.37323 v -0.37323 l -0.37323,-0.37322 h -0.37323 l -0.37322,-0.37323 h -0.74646 l -2.61259,-2.6126 v -0.37323 l -0.37323,-0.37322 v -0.37323 l 0.37323,-0.37323 v -0.74645 l 0.74646,-0.74646 v -0.37323 h -0.37323 l -0.37323,-0.37322 z m -13.80943,-0.37323 h 2.61259 l 1.11968,1.11968 v 0.74646 l -0.37322,0.37323 v 0.74645 l -1.11969,1.11968 h -0.37322 l -0.37323,-0.37322 h -0.74646 l -0.37322,-0.37323 h -0.37323 l -0.37323,-0.37323 0.37323,-0.37323 h 0.74645 -0.74645 l -0.37323,0.37323 -0.37322,-0.37323 v -0.37322 l -0.37323,-0.37323 v -0.37323 l 0.37323,-0.37323 v -0.37322 z m -13.06297,1.49291 v 1.49291 l -1.11969,1.11968 h -0.37322 l -0.37323,-0.37322 0.37323,0.37322 -0.74646,0.74646 h -0.74645 l -0.37323,0.37322 h -2.23937 l -0.74646,-0.74645 v -1.49291 l 1.11968,-1.11968 h 1.86615 v -0.37323 l 1.11968,-1.11968 h 0.37323 l 0.37323,-0.37323 z m 19.78107,-1.86614 0.37323,-0.37322 v -0.37323 l 0.37323,-0.37323 h 1.11968 l 1.11968,1.11968 v 0.37323 l 0.37323,0.37323 -0.74646,0.74645 h -0.37323 l -0.37322,-0.37322 0.37322,-0.37323 v -0.37323 h -0.74645 l -0.37323,0.37323 -0.37322,-0.37323 h -0.37323 z m -13.4362,-1.11968 h 0.37323 l 0.37322,0.37323 h 0.37323 l 1.11968,1.11968 v 0.37323 l -0.37322,0.37323 v 0.37322 l -1.11969,1.11969 H 257.271 l -0.37323,-0.37323 h -0.37323 l -0.74645,-0.74646 v -0.37322 l -0.37323,-0.37323 v -0.74646 l 0.74645,-0.74645 h 0.37323 z m 397.86082,-45.53379 0.37322,-0.37323 h 3.73228 l 0.37322,0.37323 -0.37322,0.37323 h -3.73228 z m -7.8378,0 0.37324,-0.37323 h 3.73227 l 0.37323,0.37323 -0.37323,0.37323 h -3.73227 z m -55.98416,-0.37323 0.37323,-0.37323 h 3.73227 l 0.37323,0.37323 -0.37323,0.37323 h -3.73227 z m -128.76358,-0.37323 0.37323,-0.37323 h 55.98417 l 0.37322,0.37323 -0.37322,0.37323 H 462.54628 Z M 78.86812,65.556009 h 1.119682 l 0.373228,0.373227 h 1.492909 l 0.373236,0.373236 h 0.373227 l 0.373228,0.373227 v 0.373228 l 0.373227,0.373227 V 73.3938 l -1.119682,1.119682 h -0.373236 l -0.373228,0.373227 h -2.985818 l -0.373227,-0.373227 0.373227,-0.373227 h 1.492909 -1.492909 l -0.373227,0.373227 -0.373228,-0.373227 V 73.767027 L 77.375211,73.3938 v -5.971646 l 0.373227,-0.373227 0.373228,0.373227 v 0.746455 -0.746455 l -0.373228,-0.373227 v -0.746455 l 0.373228,-0.373236 h 0.373227 z m -16.048792,0.373227 h 2.239364 l 0.373227,-0.373227 h 5.225191 l 1.49291,1.492918 V 73.3938 l -0.373228,0.373227 v 0.373228 l -0.746454,0.746454 h -7.837783 l -1.119682,-1.119682 v -6.7181 l 0.373228,-0.373228 v -0.373227 z"
     fill="#000000"
     fill-rule="evenodd"
     id="path2"
     sodipodi:nodetypes="cccccccccccccccccccccccccccccccccccccccccccccccccccccccccccccccccccccccccccccccccccccccccccccccccccccccccccccccccccccccccccccccccccccccccccccccccccccccccccccccccccccccccccccccccccccccccccccccccccccccccccccccccccccccccccccccccccccccccccccccccccccccccccccccccccccccccccccccccccccccccccccccccccccccccccccccccccccccccccccccccccccccccccccccccccccccccccccccccccccccccccccccccccccccccccccccccccccccccccccccccccccccccccccccccccccccccccccccccccccccccccccccccccccccccccccccccccccccccccccccccccccccccccccccccccccccccccccccccccccccccccccccccccccccccccccccccccccccccccccccccccccccccccccccccccccccccccccccccccccccccccccccccccccccccccccccccccccccccccccccccccccccccccccccccccccccccccccccccccccccccccccccccccccccccccccccccccccccccccccccccccccccccccccccccccccccccccccccccccccccccccccccccccccccccccccccccccccccccccccccccccccccccccccccccccccccccccccccccccccccccccccccccccccccccccccccccccccccccccccccccccccccccccccccccccccccccccccccccccccccccccccccccccccccccccccccccccccccccccccccccccccccccccccccccccccccccccccccccccccccccccccccccccccccccccccccccccccccccccccccccccccccccccccccccccccccccccccccccccccccccccccccccccccccccccccccccccccccccccccccccccccccccccccccccccccccccccccccccccccccccccccccccccccccccccccccccccccccccccccccccccccccccccccccccccccccccccccccccccccccccccccccccccccccccccccccccccccccccccccccccccccccccccccccccccccccccccccccccccccccccccccccccccccccccccccccccccccccccccccccccccccccccccccccccccccccccccccccccccccccccccccccccccccccccccccccccccccccccccccccccccccccccccccccccccccccccccccccccccccccccccccccccccccccccccccccccccccccccccccccccccccccccccccccccccccccccccccccccccccccccccccccccccccccccccccccccccccccccccccccccccccccccccccccccccccccccccccccccccccccccccccccccccccccccccccccccccccccccccccccccccccccccccccccccccccccccccccccccccccccccccccccccccccccccccccccccccccccccccccccccccccccccccccccccccccccccccccccccccccccccccccccccccccccccccccccccccccccccccccccccccccccccccccccccccccccccccccccccccccccccccccccccccccccccccccccccccccccccccccccccccccccccccccccccccccccccccccccccccccccccccccccccccccccccccccccccccccccccccccccccccccccccccccccccccccccccccccccccccccccccccccccccccccccccccccccccccccccccccccccccccccccccccccccccccccccccccccccccccccccccccccccccccccccccccccccccccccccccccccccccccccccccccccccccccccccccccccccccccccccccccccccccccccccccccccccccccccccccccccccccccccccccccccccccccccccccccccccccccccccccccccccccccccccccccccccccccccccccccccccccccccccccccccccccccccccccccccccccccccccccccccccccccccccccccccccccccccccccccccccccccccccccccccccccccccccccccccccccccccccccccccccccccccccccccccccccccccccccccccccccccccccccccccccccccccccccccccccccccccccccccccccccccccccccccccccccccccccccccccccccccccccccccccccccccccccccccccccccccccccccccccccccccccccccccccccccccccccccccccccccccccccccccccccccccccccccccccccccccccccccccccccccccccccccccccccccccccccccccccccccccccccccccccccccccccccccccccccccccccccccccccccccccccccccccccccccccccccccccccccccccccccccccccccccccccccccccccccccccccccccccccccccccccccccccccccccccccccccccccccccccccccccccccccccccccccccccccccccccccccccccccccccccccccccccccccccccccccccccccccccccccccccccccccccccccccccccccccccccccccccccccccccccccccccccccccccccccccccccccccccccccccccccccccccccccccccccccccccccccccccccccccccccccccccccccccccccccccccccccccccccccccccccccccccccccccccccccccccccccccccccccccccccccccccccccccccccccccccccccccccccccccccccccccccccccccccccccccccccccccccccccccccccccccccccccccccccccccccccccccccccccccccccccccccccccccccccccccccccccccccccccccccccccccccccccccccccccccccccccccccccccccccccccccccccccccccccccccccccccccccccccccccccccccccccccccccccccccccccccccccccccccccccccccccccccccccccccccccccccccccccccccccccccccccccccccccccccccccccccccccccccccccccccccccccccccccccccccccccccccccccccccccccccccccccccccccccccccccccccccccccccccccccccccccccccccccccccccccccccccccccccccccccccccccccccccccccccccccccccccccccccccccccccccccccccccccccccccccccccccccccccccccccccccccccccccccccccccccccccccccccccccccccccccccccccccccccccccccccccccccccccccccccccccccccccccccccccccccccccccccccccccccccccccccccccccccccccccccccccccccccccccccccccccccccccccccccccccccccccccccccccccccccccccccccccccccccccccccccccccccccccccccccccccccccccccccccccccccccccccccccccccccccccccccccccccccccccccccccccccccccccccccccccccccccccccccccccccccccccccccccccccccccccccccccccccccccccccccccccccccccccccccccccccccccccccccccccccccccccccccccccccccccccccccccccccccccccccccccccccccccccccccccccccccccccccccccccccccccccccccccccccccccccccccccccccccccccccccccccccccccccccccccccccccccccccccccccccccccccccccccccccccccccccccccccccccccccccccccccccccccccccccccccccccccccccccccccccccccccccccccccccccccccccccccccccccccccccccccccccccccccccccccccccccccccccccccccccccccccccccccccccccccccccccccccccccccccccccccccccccccccccccccccccccccccccccccccccccccccccccccccc"
     style="stroke-width:0.373228" />
</svg>
