<svg xmlns="http://www.w3.org/2000/svg" width="2172" height="724" viewBox="0 0 2172 724">
<rect width="100%" height="100%" fill="white"/>
<path d="M 1213,518 L 1213,534 L 1215,536 L 1215,538 L 1218,541 L 1221,541 L 1222,542 L 1226,542 L 1227,541 L 1229,541 L 1231,539 L 1232,540 L 1235,540 L 1234,540 L 1233,539 L 1232,540 L 1231,539 L 1231,538 L 1232,537 L 1232,536 L 1234,534 L 1234,518 L 1233,518 L 1229,514 L 1228,514 L 1227,513 L 1220,513 L 1219,514 L 1218,514 L 1214,518 Z" fill="black" fill-rule="evenodd"/>
<path d="M 1405,512 L 1404,513 L 1403,513 L 1402,514 L 1401,514 L 1396,519 L 1396,523 L 1395,524 L 1395,526 L 1396,527 L 1396,534 L 1397,535 L 1398,535 L 1399,536 L 1398,537 L 1398,538 L 1399,539 L 1399,540 L 1400,540 L 1401,541 L 1402,541 L 1403,542 L 1411,542 L 1412,541 L 1413,541 L 1414,540 L 1414,539 L 1415,538 L 1415,536 L 1417,534 L 1417,518 L 1416,518 L 1414,516 L 1414,515 L 1415,514 L 1418,514 L 1415,514 L 1414,515 L 1413,515 L 1411,513 L 1409,513 L 1408,512 Z" fill="black" fill-rule="evenodd"/>
<path d="M 1040,512 L 1039,513 L 1037,513 L 1036,514 L 1035,514 L 1031,518 L 1030,518 L 1030,534 L 1031,534 L 1033,536 L 1033,539 L 1035,541 L 1036,541 L 1037,542 L 1045,542 L 1046,541 L 1047,541 L 1048,540 L 1048,539 L 1049,538 L 1049,537 L 1051,535 L 1051,518 L 1050,517 L 1049,517 L 1045,513 L 1043,513 L 1042,512 Z" fill="black" fill-rule="evenodd"/>
<path d="M 1580,520 L 1580,533 L 1581,534 L 1589,534 L 1592,537 L 1592,538 L 1595,541 L 1605,541 L 1606,540 L 1607,540 L 1611,536 L 1611,535 L 1612,534 L 1612,532 L 1614,530 L 1615,530 L 1616,529 L 1618,529 L 1619,528 L 1622,528 L 1623,527 L 1626,527 L 1626,522 L 1625,521 L 1625,516 L 1624,515 L 1624,512 L 1622,512 L 1621,513 L 1619,513 L 1618,514 L 1616,514 L 1615,515 L 1612,515 L 1611,516 L 1609,516 L 1606,513 L 1605,513 L 1604,512 L 1603,512 L 1602,511 L 1596,511 L 1595,512 L 1593,512 L 1592,513 L 1591,513 L 1588,516 L 1588,518 L 1587,519 L 1581,519 Z" fill="black" fill-rule="evenodd"/>
<path d="M 1925,413 L 1921,413 L 1920,414 L 1915,414 L 1914,415 L 1912,415 L 1908,419 L 1908,420 L 1907,421 L 1907,423 L 1906,424 L 1906,425 L 1905,426 L 1905,428 L 1904,429 L 1904,431 L 1901,434 L 1898,434 L 1897,435 L 1896,434 L 1892,434 L 1891,433 L 1889,433 L 1889,436 L 1890,437 L 1890,440 L 1891,441 L 1891,445 L 1890,446 L 1889,446 L 1889,447 L 1893,447 L 1895,449 L 1895,455 L 1896,456 L 1896,458 L 1897,459 L 1897,462 L 1898,463 L 1898,464 L 1901,467 L 1903,467 L 1904,468 L 1907,468 L 1908,469 L 1910,469 L 1911,470 L 1913,470 L 1914,471 L 1915,471 L 1916,470 L 1918,470 L 1919,469 L 1919,467 L 1920,466 L 1920,462 L 1921,461 L 1921,457 L 1922,456 L 1922,452 L 1923,451 L 1923,448 L 1924,447 L 1924,444 L 1925,443 L 1925,439 L 1926,438 L 1926,434 L 1927,433 L 1927,429 L 1928,428 L 1928,424 L 1929,423 L 1929,415 L 1928,414 L 1926,414 Z" fill="black" fill-rule="evenodd"/>
<path d="M 696,495 L 697,512 L 704,511 L 724,549 L 720,554 L 732,565 L 738,561 L 762,572 L 760,578 L 773,583 L 777,577 L 799,583 L 801,591 L 813,595 L 817,588 L 841,595 L 843,603 L 855,605 L 857,599 L 881,604 L 880,610 L 890,613 L 898,607 L 917,609 L 922,617 L 935,617 L 936,611 L 958,611 L 959,617 L 972,617 L 974,611 L 995,611 L 997,617 L 1010,617 L 1011,611 L 1033,611 L 1034,617 L 1047,617 L 1048,611 L 1070,611 L 1071,617 L 1084,617 L 1085,611 L 1107,611 L 1108,617 L 1121,617 L 1122,611 L 1143,611 L 1144,617 L 1156,617 L 1157,611 L 1178,611 L 1180,617 L 1191,617 L 1193,611 L 1214,611 L 1217,618 L 1230,617 L 1231,611 L 1252,611 L 1253,617 L 1265,617 L 1267,611 L 1288,611 L 1289,617 L 1301,617 L 1302,611 L 1324,611 L 1325,617 L 1337,617 L 1338,611 L 1360,611 L 1361,617 L 1374,617 L 1375,611 L 1398,611 L 1399,617 L 1413,617 L 1414,611 L 1437,611 L 1438,617 L 1450,617 L 1451,611 L 1472,611 L 1473,617 L 1485,617 L 1487,611 L 1509,611 L 1510,617 L 1522,617 L 1524,611 L 1545,611 L 1546,617 L 1559,617 L 1562,610 L 1587,617 L 1595,607 L 1617,612 L 1625,603 L 1644,600 L 1651,607 L 1663,605 L 1663,598 L 1689,593 L 1695,599 L 1706,596 L 1710,588 L 1745,584 L 1750,580 L 1746,575 L 1763,556 L 1770,558 L 1780,542 L 1772,537 L 1781,506 L 1786,512 L 1785,494 L 1777,494 L 1767,468 L 1775,466 L 1770,457 L 1774,455 L 1765,449 L 1755,453 L 1732,434 L 1736,429 L 1723,424 L 1708,430 L 1692,429 L 1691,423 L 1675,424 L 1676,429 L 1648,431 L 1647,424 L 1637,424 L 1631,433 L 1610,433 L 1607,426 L 1595,426 L 1594,434 L 1567,435 L 1564,428 L 1553,428 L 1551,436 L 1525,437 L 1524,430 L 1511,430 L 1509,437 L 1485,437 L 1482,430 L 1473,430 L 1468,437 L 1448,438 L 1441,430 L 1428,431 L 1422,438 L 1383,438 L 1379,430 L 1367,431 L 1367,438 L 1340,438 L 1337,430 L 1325,431 L 1324,437 L 1301,438 L 1296,431 L 1281,431 L 1281,438 L 1253,438 L 1250,430 L 1238,431 L 1236,438 L 1202,438 L 1206,436 L 1201,431 L 1185,431 L 1183,438 L 1160,438 L 1157,430 L 1147,431 L 1145,438 L 1121,438 L 1118,430 L 1106,431 L 1105,438 L 1082,438 L 1078,430 L 1068,430 L 1064,437 L 1022,437 L 1027,435 L 1022,430 L 1009,430 L 1007,437 L 982,437 L 981,430 L 968,430 L 966,437 L 943,437 L 940,427 L 930,427 L 926,434 L 905,432 L 898,423 L 888,422 L 884,428 L 861,426 L 858,417 L 846,416 L 836,422 L 819,419 L 819,412 L 806,409 L 801,416 L 777,414 L 780,408 L 776,406 L 757,412 L 758,419 L 721,437 L 721,444 L 710,456 L 703,495 Z M 1176,593 L 1176,594 L 1175,595 L 1175,596 L 1176,597 L 1176,598 L 1175,599 L 1158,599 L 1157,598 L 1158,597 L 1161,597 L 1162,596 L 1163,596 L 1164,597 L 1171,597 L 1164,597 L 1163,596 L 1164,595 L 1165,595 L 1166,594 L 1167,594 L 1168,593 L 1169,593 L 1170,592 L 1171,592 L 1172,591 L 1173,591 L 1174,592 L 1175,592 Z M 897,587 L 898,586 L 899,586 L 900,585 L 901,585 L 903,587 L 904,587 L 906,589 L 907,589 L 909,591 L 910,591 L 911,592 L 912,592 L 913,593 L 914,593 L 915,594 L 916,594 L 917,595 L 918,595 L 919,596 L 920,596 L 921,597 L 920,598 L 915,598 L 914,597 L 915,596 L 914,597 L 908,597 L 907,596 L 902,596 L 901,595 L 902,594 L 901,595 L 900,595 L 899,594 L 900,593 L 900,589 L 899,588 L 898,588 Z M 786,567 L 787,566 L 788,566 L 789,565 L 793,565 L 794,564 L 798,564 L 799,565 L 798,566 L 798,569 L 799,570 L 798,571 L 797,571 L 796,570 L 793,570 L 792,569 L 790,569 L 789,568 L 787,568 Z M 1492,559 L 1494,559 L 1495,558 L 1502,558 L 1503,559 L 1504,559 L 1508,563 L 1508,564 L 1509,565 L 1509,566 L 1510,567 L 1510,572 L 1509,573 L 1508,572 L 1508,569 L 1508,572 L 1509,573 L 1509,575 L 1504,580 L 1502,580 L 1501,579 L 1497,579 L 1501,579 L 1502,580 L 1501,581 L 1496,581 L 1495,580 L 1493,580 L 1492,579 L 1491,579 L 1488,576 L 1488,575 L 1487,574 L 1487,573 L 1486,572 L 1486,566 L 1487,565 L 1487,564 Z M 1307,560 L 1308,560 L 1309,559 L 1310,559 L 1311,558 L 1319,558 L 1320,559 L 1321,559 L 1325,563 L 1325,564 L 1326,565 L 1326,574 L 1325,575 L 1325,576 L 1322,579 L 1321,579 L 1320,580 L 1317,580 L 1316,581 L 1312,581 L 1311,580 L 1310,580 L 1309,579 L 1308,579 L 1304,575 L 1304,573 L 1303,572 L 1303,566 L 1304,565 L 1304,564 L 1305,563 L 1305,562 Z M 1127,558 L 1137,558 L 1139,560 L 1140,560 L 1141,561 L 1141,562 L 1143,564 L 1143,566 L 1144,567 L 1144,572 L 1143,573 L 1143,574 L 1142,575 L 1142,576 L 1140,578 L 1139,577 L 1140,578 L 1138,580 L 1137,580 L 1136,581 L 1130,581 L 1129,580 L 1127,580 L 1125,578 L 1124,578 L 1122,576 L 1122,575 L 1121,574 L 1121,572 L 1120,571 L 1120,567 L 1121,566 L 1121,564 Z M 943,558 L 952,558 L 953,559 L 955,559 L 957,561 L 957,562 L 959,564 L 959,565 L 960,566 L 960,573 L 959,574 L 959,575 L 957,577 L 956,576 L 955,577 L 956,578 L 954,580 L 952,580 L 951,581 L 945,581 L 944,580 L 943,580 L 942,579 L 941,579 L 937,575 L 937,572 L 936,571 L 936,567 L 937,566 L 937,564 Z M 1526,547 L 1534,547 L 1539,552 L 1539,553 L 1540,554 L 1540,560 L 1539,561 L 1539,562 L 1538,563 L 1537,562 L 1538,563 L 1538,564 L 1534,568 L 1533,568 L 1532,569 L 1531,569 L 1530,570 L 1527,570 L 1526,569 L 1524,569 L 1523,568 L 1522,568 L 1520,566 L 1520,565 L 1518,563 L 1518,554 L 1524,548 L 1525,548 Z M 1468,547 L 1472,547 L 1474,549 L 1475,549 L 1479,553 L 1479,554 L 1478,555 L 1478,557 L 1478,555 L 1479,554 L 1480,555 L 1480,561 L 1479,562 L 1479,564 L 1475,568 L 1474,568 L 1473,567 L 1470,567 L 1473,567 L 1474,568 L 1473,569 L 1468,569 L 1463,564 L 1463,561 L 1462,560 L 1462,559 L 1463,558 L 1463,550 L 1464,549 L 1465,549 L 1466,548 L 1467,548 Z M 1343,547 L 1347,547 L 1348,548 L 1350,548 L 1351,549 L 1352,549 L 1354,551 L 1354,552 L 1355,553 L 1355,554 L 1356,555 L 1356,560 L 1355,561 L 1355,562 L 1354,563 L 1354,564 L 1351,567 L 1350,567 L 1348,569 L 1347,569 L 1346,570 L 1342,570 L 1341,569 L 1340,569 L 1339,568 L 1338,568 L 1336,566 L 1336,565 L 1335,564 L 1335,563 L 1334,562 L 1334,555 L 1341,548 L 1342,548 L 1343,549 L 1346,549 L 1343,549 L 1342,548 Z M 1283,547 L 1287,547 L 1288,548 L 1290,548 L 1292,550 L 1293,550 L 1296,553 L 1296,554 L 1297,555 L 1297,561 L 1296,562 L 1296,563 L 1295,564 L 1295,565 L 1292,568 L 1291,568 L 1290,569 L 1285,569 L 1284,568 L 1282,568 L 1276,562 L 1276,561 L 1275,560 L 1275,555 L 1276,554 L 1276,553 L 1281,548 L 1282,548 Z M 1160,547 L 1165,547 L 1166,548 L 1167,548 L 1168,549 L 1169,549 L 1172,552 L 1172,553 L 1173,554 L 1173,559 L 1172,560 L 1172,562 L 1170,564 L 1169,563 L 1170,564 L 1170,565 L 1167,568 L 1166,568 L 1165,569 L 1158,569 L 1157,568 L 1156,568 L 1154,566 L 1154,565 L 1152,563 L 1152,562 L 1151,561 L 1151,555 L 1153,553 L 1153,552 L 1155,550 L 1156,550 L 1158,548 L 1159,548 Z M 1100,547 L 1104,547 L 1105,548 L 1107,548 L 1114,555 L 1114,562 L 1113,563 L 1113,564 L 1108,569 L 1106,569 L 1105,570 L 1104,570 L 1103,569 L 1101,569 L 1096,564 L 1097,563 L 1096,564 L 1095,563 L 1095,562 L 1094,561 L 1094,558 L 1093,557 L 1093,553 L 1098,548 L 1099,548 Z M 976,547 L 982,547 L 983,548 L 984,548 L 989,553 L 989,555 L 990,556 L 990,560 L 989,561 L 989,562 L 987,564 L 987,565 L 984,568 L 983,568 L 982,569 L 980,569 L 979,570 L 976,570 L 975,569 L 973,569 L 969,565 L 969,564 L 968,563 L 968,561 L 967,560 L 967,557 L 968,556 L 968,555 L 969,554 L 969,553 L 974,548 L 975,548 Z M 915,547 L 918,547 L 919,548 L 920,548 L 921,547 L 923,547 L 924,548 L 925,548 L 929,552 L 929,553 L 930,554 L 930,555 L 931,556 L 931,560 L 930,561 L 930,563 L 929,564 L 929,565 L 926,568 L 925,568 L 924,569 L 916,569 L 915,568 L 914,568 L 910,564 L 910,563 L 909,562 L 909,560 L 908,559 L 908,556 L 909,555 L 909,553 Z M 1695,540 L 1696,540 L 1697,539 L 1699,539 L 1700,538 L 1705,538 L 1706,539 L 1707,539 L 1708,540 L 1709,540 L 1712,543 L 1712,544 L 1713,545 L 1713,553 L 1712,554 L 1712,555 L 1710,557 L 1709,556 L 1710,557 L 1708,559 L 1706,559 L 1705,560 L 1699,560 L 1698,559 L 1696,559 L 1693,556 L 1693,555 L 1691,553 L 1691,546 L 1692,545 L 1692,544 L 1694,542 L 1694,541 Z M 1668,531 L 1669,531 L 1670,530 L 1673,530 L 1674,531 L 1677,531 L 1678,530 L 1679,530 L 1680,531 L 1681,531 L 1682,532 L 1681,533 L 1682,534 L 1683,533 L 1685,535 L 1685,537 L 1686,538 L 1686,542 L 1685,543 L 1685,544 L 1684,545 L 1684,546 L 1681,549 L 1680,549 L 1679,550 L 1673,550 L 1672,549 L 1671,549 L 1665,543 L 1665,542 L 1664,541 L 1664,535 Z M 1738,526 L 1739,527 L 1740,527 L 1741,528 L 1742,528 L 1745,531 L 1745,534 L 1746,535 L 1746,538 L 1745,539 L 1745,541 L 1739,547 L 1738,547 L 1737,548 L 1735,548 L 1734,549 L 1731,549 L 1730,548 L 1729,548 L 1728,547 L 1727,547 L 1723,543 L 1723,542 L 1724,541 L 1725,542 L 1724,541 L 1723,542 L 1722,541 L 1722,535 L 1723,534 L 1723,533 L 1725,531 L 1725,530 L 1727,528 L 1728,528 L 1729,527 L 1730,527 L 1731,526 Z M 793,522 L 794,523 L 794,524 L 796,526 L 796,527 L 797,528 L 797,529 L 800,532 L 800,533 L 801,534 L 801,535 L 802,536 L 802,537 L 804,539 L 804,540 L 805,541 L 805,543 L 806,544 L 806,545 L 803,548 L 802,548 L 801,549 L 800,549 L 799,550 L 796,550 L 795,551 L 794,551 L 793,552 L 790,552 L 789,553 L 783,553 L 781,551 L 781,538 L 782,537 L 782,527 L 783,526 L 783,525 L 784,524 L 785,524 L 786,525 L 790,525 L 787,525 L 786,524 L 787,523 L 791,523 L 792,522 Z M 1369,521 L 1370,522 L 1370,523 L 1371,524 L 1371,525 L 1372,526 L 1372,532 L 1371,533 L 1371,534 L 1370,535 L 1370,536 L 1366,540 L 1365,540 L 1364,541 L 1361,541 L 1360,542 L 1359,542 L 1358,541 L 1356,541 L 1355,540 L 1354,540 L 1353,539 L 1352,539 L 1350,537 L 1350,536 L 1349,535 L 1349,532 L 1350,531 L 1351,532 L 1351,534 L 1351,533 L 1352,532 L 1351,532 L 1350,531 L 1351,530 L 1354,530 L 1355,529 L 1356,529 L 1359,526 L 1359,525 L 1360,524 L 1360,523 L 1363,520 L 1365,522 L 1368,522 Z M 765,520 L 766,521 L 767,521 L 768,522 L 770,522 L 771,523 L 772,523 L 773,524 L 772,525 L 771,525 L 773,525 L 774,524 L 775,525 L 775,551 L 773,553 L 768,553 L 767,552 L 764,552 L 763,551 L 761,551 L 760,550 L 759,550 L 758,549 L 757,549 L 756,548 L 755,548 L 754,547 L 753,547 L 752,546 L 751,546 L 750,545 L 749,545 L 747,543 L 747,541 L 748,540 L 748,539 L 752,535 L 752,534 L 759,527 L 759,526 Z M 1550,518 L 1555,523 L 1555,525 L 1556,526 L 1556,533 L 1555,534 L 1555,535 L 1551,539 L 1550,538 L 1551,539 L 1550,540 L 1549,540 L 1548,541 L 1541,541 L 1540,540 L 1539,540 L 1538,539 L 1537,539 L 1534,536 L 1534,535 L 1533,534 L 1533,532 L 1534,531 L 1535,531 L 1536,530 L 1539,530 L 1540,529 L 1542,529 L 1543,528 L 1544,528 L 1544,526 L 1545,525 L 1545,521 L 1546,520 L 1546,519 L 1547,518 Z M 1000,518 L 1002,520 L 1001,521 L 1000,521 L 1000,522 L 1001,521 L 1002,522 L 1003,521 L 1005,523 L 1005,524 L 1006,525 L 1006,533 L 1004,535 L 1004,536 L 1000,540 L 999,540 L 998,541 L 995,541 L 994,542 L 993,542 L 992,541 L 990,541 L 989,540 L 988,540 L 983,535 L 983,533 L 985,531 L 986,532 L 985,531 L 986,530 L 988,530 L 989,529 L 991,529 L 993,527 L 993,526 L 994,525 L 994,523 L 995,522 L 995,520 L 997,518 Z M 1177,517 L 1182,517 L 1183,518 L 1184,518 L 1185,519 L 1184,520 L 1185,519 L 1188,522 L 1188,523 L 1189,524 L 1189,527 L 1190,528 L 1190,530 L 1189,531 L 1189,534 L 1188,535 L 1188,536 L 1185,539 L 1184,539 L 1183,540 L 1181,540 L 1180,541 L 1175,541 L 1174,540 L 1172,540 L 1167,535 L 1167,532 L 1169,530 L 1171,530 L 1172,529 L 1173,529 L 1175,527 L 1175,526 L 1176,525 L 1176,524 L 1177,523 L 1177,519 L 1176,518 Z M 1447,517 L 1449,517 L 1450,518 L 1452,518 L 1450,518 L 1449,517 L 1450,516 L 1457,516 L 1458,517 L 1459,517 L 1460,518 L 1461,518 L 1463,520 L 1463,521 L 1464,522 L 1464,524 L 1465,525 L 1465,533 L 1464,534 L 1464,535 L 1460,539 L 1459,539 L 1458,540 L 1450,540 L 1449,539 L 1447,539 L 1443,535 L 1443,534 L 1442,533 L 1442,532 L 1441,531 L 1441,525 L 1442,524 L 1442,522 Z M 1310,516 L 1312,516 L 1313,517 L 1316,517 L 1317,516 L 1319,516 L 1320,517 L 1321,517 L 1324,520 L 1324,521 L 1323,522 L 1324,521 L 1325,522 L 1325,523 L 1326,524 L 1326,528 L 1325,529 L 1325,531 L 1321,535 L 1320,535 L 1319,536 L 1317,536 L 1316,535 L 1314,535 L 1316,535 L 1317,536 L 1316,537 L 1313,537 L 1312,536 L 1310,536 L 1305,531 L 1305,529 L 1304,528 L 1304,524 L 1305,523 L 1305,521 Z M 1267,516 L 1273,516 L 1274,517 L 1275,517 L 1276,518 L 1277,518 L 1280,521 L 1280,522 L 1281,523 L 1281,525 L 1282,526 L 1282,530 L 1281,531 L 1281,533 L 1280,534 L 1280,535 L 1276,539 L 1275,539 L 1274,540 L 1266,540 L 1265,539 L 1264,539 L 1259,534 L 1259,533 L 1258,532 L 1258,525 L 1259,524 L 1259,523 L 1260,522 L 1260,521 L 1263,518 L 1264,518 L 1265,517 L 1266,517 Z M 1084,516 L 1091,516 L 1092,517 L 1093,517 L 1098,522 L 1098,523 L 1099,524 L 1099,531 L 1098,532 L 1098,534 L 1093,539 L 1092,539 L 1091,540 L 1085,540 L 1084,539 L 1082,539 L 1081,538 L 1080,538 L 1077,535 L 1077,534 L 1076,533 L 1076,529 L 1075,528 L 1075,527 L 1076,526 L 1076,523 L 1077,522 L 1077,521 L 1080,518 L 1081,518 L 1082,517 L 1083,517 Z M 898,517 L 900,517 L 901,516 L 908,516 L 909,517 L 908,518 L 909,517 L 910,517 L 915,522 L 915,523 L 916,524 L 916,532 L 915,533 L 915,534 L 914,535 L 914,536 L 913,537 L 912,537 L 910,539 L 908,539 L 907,540 L 900,540 L 899,539 L 898,539 L 893,534 L 893,532 L 892,531 L 892,525 L 893,524 L 893,522 Z M 1496,515 L 1502,515 L 1503,516 L 1504,516 L 1505,517 L 1506,517 L 1508,519 L 1508,520 L 1509,521 L 1509,522 L 1510,523 L 1510,530 L 1509,531 L 1509,532 L 1506,535 L 1505,535 L 1504,536 L 1503,536 L 1502,537 L 1496,537 L 1495,536 L 1494,536 L 1493,535 L 1492,535 L 1490,533 L 1490,532 L 1488,530 L 1488,522 L 1490,520 L 1490,519 L 1492,517 L 1493,517 L 1494,516 L 1495,516 Z M 1127,516 L 1129,516 L 1130,515 L 1135,515 L 1136,516 L 1138,516 L 1139,517 L 1138,518 L 1137,518 L 1138,518 L 1139,519 L 1140,518 L 1142,520 L 1142,521 L 1143,522 L 1143,530 L 1142,531 L 1142,532 L 1138,536 L 1137,536 L 1136,537 L 1129,537 L 1128,536 L 1127,536 L 1123,532 L 1123,531 L 1122,530 L 1122,529 L 1121,528 L 1121,525 L 1122,524 L 1122,522 L 1123,521 L 1123,520 Z M 946,515 L 952,515 L 953,516 L 954,516 L 955,517 L 954,518 L 955,519 L 956,519 L 957,518 L 958,519 L 958,520 L 960,522 L 960,529 L 959,530 L 959,531 L 957,533 L 956,532 L 955,533 L 956,534 L 954,536 L 952,536 L 951,537 L 947,537 L 946,536 L 944,536 L 939,531 L 939,530 L 938,529 L 938,523 L 939,522 L 939,521 L 944,516 L 945,516 Z M 806,512 L 807,513 L 810,513 L 811,512 L 813,512 L 814,513 L 816,513 L 817,514 L 819,514 L 820,515 L 822,515 L 823,516 L 824,516 L 825,517 L 826,517 L 827,518 L 828,518 L 832,522 L 831,523 L 831,524 L 830,525 L 830,526 L 828,528 L 828,529 L 825,532 L 825,533 L 819,539 L 818,539 L 815,542 L 812,539 L 812,538 L 811,537 L 811,536 L 810,535 L 810,534 L 807,531 L 807,530 L 806,529 L 806,528 L 805,527 L 805,526 L 804,525 L 804,524 L 803,523 L 803,522 L 802,521 L 802,519 L 801,518 L 804,515 L 804,514 Z M 754,512 L 755,513 L 754,514 L 752,514 L 755,514 L 756,515 L 757,514 L 758,515 L 758,517 L 757,518 L 757,519 L 755,521 L 755,522 L 754,523 L 754,524 L 752,526 L 752,527 L 746,533 L 746,534 L 742,538 L 741,538 L 735,532 L 735,531 L 731,527 L 731,526 L 730,525 L 734,521 L 735,521 L 736,520 L 737,520 L 740,517 L 741,517 L 742,516 L 743,516 L 744,515 L 745,515 L 746,514 L 748,514 L 749,513 L 750,513 L 751,512 Z M 1698,499 L 1699,499 L 1700,500 L 1703,500 L 1704,499 L 1706,499 L 1707,500 L 1706,501 L 1705,501 L 1706,501 L 1707,500 L 1708,500 L 1711,503 L 1711,504 L 1712,505 L 1712,513 L 1707,518 L 1706,518 L 1705,519 L 1700,519 L 1699,518 L 1697,518 L 1693,514 L 1693,513 L 1692,512 L 1692,510 L 1691,509 L 1691,508 L 1692,507 L 1692,505 L 1693,504 L 1693,503 L 1696,500 L 1697,500 Z M 1656,498 L 1663,498 L 1664,499 L 1663,500 L 1657,500 L 1663,500 L 1664,499 L 1666,499 L 1669,502 L 1669,503 L 1670,504 L 1670,505 L 1671,506 L 1671,513 L 1670,514 L 1669,513 L 1670,514 L 1670,515 L 1669,516 L 1669,517 L 1666,520 L 1665,520 L 1664,521 L 1662,521 L 1661,522 L 1656,522 L 1655,521 L 1654,521 L 1653,520 L 1652,520 L 1649,517 L 1649,516 L 1648,515 L 1648,512 L 1647,511 L 1647,510 L 1648,509 L 1648,505 L 1649,504 L 1649,503 L 1652,500 L 1653,500 L 1654,499 L 1655,499 Z M 1088,499 L 1089,498 L 1090,499 L 1090,500 L 1091,500 L 1094,503 L 1093,504 L 1094,503 L 1095,503 L 1097,505 L 1097,506 L 1098,507 L 1097,508 L 1096,508 L 1095,507 L 1094,507 L 1093,506 L 1092,506 L 1089,503 L 1089,502 L 1088,501 Z M 1734,504 L 1739,499 L 1740,499 L 1741,498 L 1742,498 L 1743,497 L 1745,497 L 1746,498 L 1748,498 L 1749,499 L 1750,499 L 1754,503 L 1754,504 L 1755,505 L 1755,511 L 1754,512 L 1754,513 L 1751,516 L 1749,516 L 1748,517 L 1740,517 L 1738,515 L 1737,516 L 1736,516 L 1735,515 L 1735,514 L 1734,513 L 1734,512 L 1733,511 L 1733,506 L 1734,505 Z M 1453,498 L 1454,497 L 1457,500 L 1458,500 L 1460,502 L 1458,504 L 1461,504 L 1462,503 L 1463,504 L 1464,504 L 1465,505 L 1464,506 L 1463,506 L 1464,506 L 1465,505 L 1466,506 L 1467,506 L 1468,507 L 1467,508 L 1460,508 L 1459,507 L 1458,507 L 1454,503 L 1454,502 L 1453,501 Z M 1284,486 L 1285,487 L 1285,489 L 1284,490 L 1284,492 L 1283,493 L 1283,499 L 1285,501 L 1285,502 L 1286,503 L 1286,505 L 1287,506 L 1285,508 L 1278,508 L 1277,507 L 1276,507 L 1275,506 L 1274,506 L 1272,504 L 1272,503 L 1271,502 L 1271,500 L 1270,499 L 1270,497 L 1271,496 L 1271,493 L 1272,492 L 1272,491 L 1276,487 L 1277,487 L 1278,488 L 1279,488 L 1280,487 L 1283,487 Z M 1529,485 L 1536,485 L 1537,486 L 1536,487 L 1530,487 L 1536,487 L 1537,486 L 1538,486 L 1543,491 L 1543,492 L 1544,493 L 1544,500 L 1543,501 L 1543,502 L 1539,506 L 1537,506 L 1536,507 L 1530,507 L 1528,505 L 1529,504 L 1529,501 L 1530,500 L 1530,499 L 1531,498 L 1531,492 L 1530,491 L 1530,490 L 1527,487 Z M 1162,485 L 1171,485 L 1172,486 L 1171,487 L 1169,487 L 1171,487 L 1172,488 L 1173,487 L 1177,491 L 1177,492 L 1178,493 L 1178,498 L 1177,499 L 1177,501 L 1175,503 L 1175,504 L 1174,505 L 1173,505 L 1172,506 L 1171,506 L 1170,507 L 1163,507 L 1162,506 L 1162,502 L 1163,501 L 1163,497 L 1164,496 L 1164,493 L 1163,492 L 1163,491 L 1162,490 L 1162,489 L 1160,487 Z M 913,485 L 916,485 L 917,486 L 917,488 L 916,489 L 916,490 L 915,491 L 915,493 L 914,494 L 914,501 L 919,506 L 919,507 L 918,508 L 912,508 L 911,507 L 910,507 L 908,505 L 907,505 L 906,504 L 906,503 L 904,501 L 904,493 L 906,491 L 906,490 L 909,487 L 910,487 L 911,486 L 912,486 Z M 976,485 L 977,485 L 978,484 L 986,484 L 987,485 L 988,485 L 990,487 L 989,488 L 990,489 L 991,488 L 994,491 L 994,493 L 995,494 L 995,498 L 994,499 L 994,500 L 993,501 L 993,502 L 989,506 L 988,506 L 987,507 L 979,507 L 978,506 L 977,506 L 972,501 L 972,500 L 971,499 L 971,491 L 972,490 L 972,489 Z M 1345,483 L 1349,483 L 1350,484 L 1352,484 L 1354,486 L 1355,486 L 1357,488 L 1357,489 L 1359,491 L 1359,492 L 1360,493 L 1360,497 L 1359,498 L 1359,500 L 1358,501 L 1358,502 L 1355,505 L 1354,505 L 1353,506 L 1352,506 L 1351,505 L 1351,502 L 1350,501 L 1349,501 L 1347,499 L 1341,499 L 1340,500 L 1338,500 L 1337,499 L 1337,498 L 1336,497 L 1336,493 L 1337,492 L 1337,490 L 1338,489 L 1338,488 L 1341,485 L 1342,485 L 1343,486 L 1344,486 L 1343,486 L 1342,485 L 1343,484 L 1344,484 Z M 724,484 L 725,483 L 726,484 L 726,485 L 731,485 L 727,485 L 726,484 L 727,483 L 735,483 L 737,485 L 742,485 L 743,486 L 744,486 L 745,487 L 746,487 L 747,488 L 748,488 L 749,489 L 750,489 L 751,490 L 751,494 L 750,495 L 750,498 L 751,499 L 751,501 L 750,502 L 749,502 L 748,503 L 747,503 L 746,504 L 745,504 L 743,506 L 742,506 L 741,507 L 739,507 L 738,508 L 737,508 L 736,509 L 735,509 L 734,510 L 733,510 L 732,511 L 730,511 L 729,512 L 727,512 L 726,513 L 725,513 L 724,512 L 724,510 L 723,509 L 723,505 L 722,504 L 722,491 L 723,490 L 723,486 L 724,485 Z M 814,487 L 816,487 L 817,486 L 818,486 L 819,485 L 821,485 L 822,484 L 824,484 L 825,483 L 826,483 L 827,482 L 830,482 L 831,481 L 836,481 L 837,482 L 837,486 L 838,487 L 838,504 L 837,505 L 837,509 L 836,510 L 836,512 L 835,513 L 834,513 L 833,512 L 832,512 L 831,511 L 829,511 L 828,510 L 827,510 L 826,509 L 825,509 L 824,508 L 822,508 L 821,507 L 820,507 L 819,506 L 817,506 L 816,505 L 815,505 L 814,504 L 813,504 L 811,502 L 811,490 Z M 1488,476 L 1489,475 L 1489,474 L 1491,472 L 1492,472 L 1493,471 L 1495,471 L 1496,470 L 1502,470 L 1503,471 L 1504,471 L 1505,472 L 1504,473 L 1505,472 L 1506,472 L 1508,474 L 1508,475 L 1507,476 L 1508,475 L 1509,476 L 1509,477 L 1510,478 L 1510,480 L 1509,481 L 1492,481 L 1491,480 L 1490,480 L 1488,478 Z M 1308,472 L 1309,472 L 1310,471 L 1312,471 L 1313,470 L 1317,470 L 1318,471 L 1320,471 L 1321,472 L 1320,473 L 1318,473 L 1320,473 L 1321,472 L 1322,473 L 1323,473 L 1325,475 L 1325,476 L 1326,477 L 1326,478 L 1327,479 L 1327,485 L 1326,486 L 1326,488 L 1324,490 L 1323,490 L 1321,492 L 1316,492 L 1314,490 L 1313,490 L 1311,488 L 1311,486 L 1310,485 L 1310,484 L 1309,483 L 1308,483 L 1307,482 L 1305,482 L 1304,481 L 1304,477 L 1305,476 L 1305,475 Z M 1121,477 L 1122,476 L 1122,475 L 1125,472 L 1126,472 L 1127,473 L 1128,473 L 1127,473 L 1126,472 L 1127,471 L 1130,471 L 1131,470 L 1134,470 L 1135,471 L 1138,471 L 1139,472 L 1140,472 L 1142,474 L 1142,475 L 1143,476 L 1143,477 L 1142,478 L 1143,477 L 1144,478 L 1144,480 L 1143,481 L 1124,481 L 1123,480 L 1122,480 L 1121,479 Z M 944,471 L 946,471 L 947,472 L 951,472 L 947,472 L 946,471 L 947,470 L 952,470 L 953,471 L 954,471 L 955,472 L 954,473 L 955,472 L 956,472 L 960,476 L 960,477 L 961,478 L 961,486 L 960,487 L 960,488 L 957,491 L 956,491 L 955,492 L 954,492 L 944,482 L 943,482 L 942,481 L 941,481 L 940,480 L 939,480 L 938,479 L 938,478 L 939,477 L 939,476 L 940,475 L 940,474 L 941,473 L 942,473 L 943,474 L 942,473 Z M 1671,468 L 1673,468 L 1674,469 L 1676,469 L 1677,470 L 1678,470 L 1679,471 L 1678,472 L 1679,471 L 1680,471 L 1681,472 L 1681,473 L 1683,475 L 1683,477 L 1684,478 L 1684,479 L 1683,480 L 1683,483 L 1681,485 L 1680,484 L 1681,485 L 1681,486 L 1678,489 L 1677,489 L 1676,490 L 1673,490 L 1672,491 L 1671,491 L 1670,490 L 1667,490 L 1666,489 L 1665,489 L 1662,486 L 1662,485 L 1661,484 L 1661,482 L 1660,481 L 1660,479 L 1661,478 L 1661,476 L 1662,475 L 1662,473 L 1664,471 L 1665,471 L 1667,469 L 1670,469 L 1671,470 L 1672,470 L 1671,470 L 1670,469 Z M 1730,467 L 1737,467 L 1739,469 L 1740,469 L 1744,473 L 1744,474 L 1745,475 L 1745,476 L 1746,477 L 1746,481 L 1745,482 L 1745,484 L 1740,489 L 1739,489 L 1738,490 L 1730,490 L 1729,489 L 1728,489 L 1723,484 L 1723,483 L 1722,482 L 1722,475 L 1723,474 L 1723,473 L 1725,471 L 1725,470 L 1726,469 L 1727,469 L 1728,468 L 1729,468 Z M 805,464 L 808,467 L 807,468 L 807,469 L 805,471 L 805,473 L 804,474 L 803,474 L 801,472 L 801,470 L 802,469 L 802,468 L 803,467 L 803,466 Z M 1700,455 L 1706,455 L 1707,456 L 1708,456 L 1709,457 L 1710,457 L 1713,460 L 1713,461 L 1714,462 L 1714,465 L 1715,466 L 1715,469 L 1714,470 L 1714,471 L 1712,473 L 1712,474 L 1711,475 L 1710,475 L 1709,476 L 1708,476 L 1707,477 L 1706,477 L 1705,478 L 1700,478 L 1699,477 L 1697,477 L 1695,475 L 1694,475 L 1693,474 L 1693,473 L 1692,472 L 1692,470 L 1691,469 L 1691,463 L 1692,462 L 1692,461 L 1696,457 L 1697,457 L 1698,456 L 1699,456 Z M 741,453 L 743,453 L 745,455 L 745,456 L 748,459 L 748,460 L 751,463 L 751,464 L 755,468 L 755,469 L 758,472 L 758,474 L 757,475 L 756,474 L 755,475 L 756,476 L 756,477 L 754,479 L 754,480 L 753,481 L 750,481 L 749,480 L 746,480 L 745,479 L 742,479 L 741,478 L 739,478 L 738,477 L 736,477 L 735,476 L 734,476 L 733,475 L 730,475 L 729,474 L 728,474 L 727,473 L 727,472 L 728,471 L 728,470 L 729,469 L 729,468 L 730,467 L 730,466 L 732,464 L 732,463 L 734,461 L 734,460 Z M 824,458 L 823,459 L 822,459 L 821,460 L 819,460 L 818,461 L 817,461 L 816,462 L 815,462 L 814,463 L 812,463 L 811,464 L 807,464 L 806,465 L 805,464 L 805,463 L 806,462 L 806,461 L 807,460 L 807,459 L 808,458 L 808,457 L 810,455 L 810,454 L 814,450 L 816,450 L 817,451 L 818,451 L 822,455 L 822,456 Z M 1356,458 L 1363,462 L 1368,461 L 1372,459 L 1374,453 L 1376,452 L 1377,449 L 1393,449 L 1396,459 L 1401,463 L 1413,463 L 1417,461 L 1421,456 L 1421,452 L 1425,451 L 1422,451 L 1421,450 L 1422,449 L 1456,449 L 1459,454 L 1462,454 L 1464,456 L 1445,469 L 1432,484 L 1425,498 L 1421,512 L 1421,516 L 1420,517 L 1420,534 L 1421,535 L 1422,545 L 1425,553 L 1435,571 L 1449,585 L 1461,593 L 1468,596 L 1467,597 L 1456,597 L 1467,597 L 1469,596 L 1473,597 L 1474,598 L 1473,599 L 1454,599 L 1453,598 L 1454,597 L 1454,593 L 1451,590 L 1441,591 L 1438,594 L 1438,598 L 1437,599 L 1413,599 L 1412,598 L 1413,597 L 1412,593 L 1407,591 L 1402,592 L 1399,595 L 1400,597 L 1398,599 L 1375,599 L 1374,598 L 1374,593 L 1370,590 L 1362,591 L 1359,594 L 1360,598 L 1359,599 L 1340,599 L 1339,598 L 1348,595 L 1354,591 L 1358,592 L 1355,591 L 1364,585 L 1376,573 L 1383,563 L 1387,555 L 1388,556 L 1387,553 L 1391,543 L 1391,540 L 1392,539 L 1393,541 L 1396,540 L 1396,537 L 1394,536 L 1394,539 L 1393,540 L 1392,539 L 1393,518 L 1392,517 L 1390,504 L 1382,486 L 1375,476 L 1365,466 L 1355,459 Z M 1356,458 L 1355,459 L 1354,459 L 1353,458 L 1352,458 L 1351,457 L 1350,457 L 1349,456 L 1348,456 L 1347,455 L 1345,455 L 1344,454 L 1343,454 L 1342,453 L 1340,453 L 1339,452 L 1337,452 L 1336,451 L 1337,450 L 1353,450 L 1354,449 L 1355,450 L 1355,456 L 1356,457 Z M 1280,455 L 1280,450 L 1281,449 L 1289,449 L 1290,450 L 1293,450 L 1294,451 L 1293,452 L 1290,452 L 1289,453 L 1287,453 L 1286,452 L 1284,452 L 1286,452 L 1287,453 L 1286,454 L 1285,454 L 1284,455 L 1283,455 L 1282,456 L 1281,456 Z M 1154,450 L 1158,450 L 1159,449 L 1163,449 L 1164,450 L 1170,450 L 1171,449 L 1194,450 L 1195,449 L 1198,449 L 1200,452 L 1199,456 L 1203,461 L 1205,462 L 1211,462 L 1214,464 L 1220,464 L 1226,462 L 1229,459 L 1229,451 L 1230,450 L 1245,450 L 1246,449 L 1259,449 L 1260,450 L 1260,457 L 1262,459 L 1268,461 L 1269,463 L 1255,476 L 1246,489 L 1241,500 L 1237,514 L 1237,534 L 1238,535 L 1238,541 L 1240,545 L 1241,551 L 1248,565 L 1253,572 L 1266,585 L 1280,594 L 1285,596 L 1284,597 L 1274,597 L 1285,597 L 1286,596 L 1287,597 L 1290,597 L 1291,598 L 1290,599 L 1271,599 L 1270,598 L 1270,593 L 1267,590 L 1268,589 L 1267,590 L 1259,590 L 1254,594 L 1253,596 L 1254,598 L 1253,599 L 1231,599 L 1230,598 L 1230,594 L 1225,591 L 1218,593 L 1215,598 L 1214,597 L 1210,597 L 1213,597 L 1214,598 L 1213,599 L 1192,599 L 1191,598 L 1192,596 L 1193,597 L 1199,597 L 1195,597 L 1194,596 L 1193,597 L 1192,594 L 1187,590 L 1180,590 L 1177,592 L 1176,591 L 1175,592 L 1173,591 L 1183,584 L 1193,574 L 1200,564 L 1205,554 L 1206,556 L 1205,552 L 1207,548 L 1209,536 L 1210,535 L 1210,516 L 1205,497 L 1199,485 L 1193,477 L 1178,463 L 1162,454 L 1160,454 L 1157,452 L 1154,452 L 1153,451 Z M 973,449 L 989,449 L 990,450 L 990,457 L 998,462 L 1003,461 L 1008,457 L 1010,449 L 1030,449 L 1031,450 L 1030,451 L 1030,456 L 1037,463 L 1052,463 L 1057,459 L 1059,449 L 1101,449 L 1105,451 L 1106,453 L 1093,459 L 1079,469 L 1066,485 L 1060,496 L 1056,508 L 1054,519 L 1054,534 L 1057,547 L 1061,557 L 1072,574 L 1082,584 L 1102,596 L 1101,597 L 1092,597 L 1102,597 L 1103,596 L 1108,597 L 1109,598 L 1108,599 L 1088,599 L 1087,598 L 1088,594 L 1084,590 L 1085,589 L 1074,591 L 1071,594 L 1072,598 L 1071,599 L 1048,599 L 1047,594 L 1042,591 L 1036,592 L 1034,594 L 1033,599 L 1014,599 L 1012,596 L 1011,598 L 1009,593 L 1004,590 L 996,591 L 993,594 L 994,597 L 993,599 L 974,599 L 973,598 L 978,596 L 988,597 L 980,597 L 979,596 L 997,586 L 1005,579 L 1014,568 L 1015,569 L 1014,567 L 1021,556 L 1026,541 L 1027,514 L 1022,499 L 1023,496 L 1022,497 L 1017,487 L 1010,477 L 995,463 L 979,454 L 971,452 L 970,451 Z M 1669,442 L 1670,443 L 1667,445 L 1664,444 L 1666,445 L 1658,451 L 1654,449 L 1653,450 L 1656,452 L 1649,458 L 1638,473 L 1632,485 L 1629,495 L 1628,520 L 1630,528 L 1637,544 L 1653,563 L 1663,570 L 1675,576 L 1690,580 L 1673,584 L 1662,585 L 1658,579 L 1649,580 L 1646,583 L 1647,587 L 1643,589 L 1620,592 L 1617,586 L 1609,586 L 1604,590 L 1604,593 L 1602,595 L 1583,597 L 1574,596 L 1573,593 L 1569,592 L 1566,594 L 1565,598 L 1561,598 L 1560,593 L 1558,591 L 1547,590 L 1542,594 L 1539,593 L 1542,594 L 1543,598 L 1542,599 L 1523,599 L 1522,598 L 1527,596 L 1540,597 L 1530,597 L 1529,596 L 1548,585 L 1560,573 L 1566,565 L 1567,566 L 1566,564 L 1575,545 L 1577,535 L 1577,516 L 1574,502 L 1567,487 L 1561,478 L 1550,467 L 1551,466 L 1550,465 L 1548,466 L 1539,459 L 1529,454 L 1521,452 L 1519,450 L 1520,449 L 1533,449 L 1535,455 L 1543,459 L 1547,459 L 1552,454 L 1553,448 L 1571,447 L 1573,456 L 1578,460 L 1585,461 L 1592,459 L 1596,454 L 1596,449 L 1601,448 L 1596,449 L 1595,448 L 1596,446 L 1630,444 L 1631,452 L 1634,455 L 1646,457 L 1645,456 L 1650,451 L 1650,446 L 1648,444 L 1651,442 Z M 749,447 L 750,446 L 751,446 L 753,444 L 754,444 L 755,443 L 756,443 L 757,442 L 758,442 L 759,441 L 761,441 L 762,440 L 764,440 L 765,439 L 768,439 L 769,438 L 774,438 L 775,439 L 775,440 L 776,441 L 776,454 L 775,455 L 775,464 L 774,465 L 772,465 L 771,464 L 771,463 L 770,463 L 769,464 L 771,464 L 772,465 L 771,466 L 767,466 L 765,464 L 765,463 L 761,459 L 761,458 L 760,457 L 760,456 L 759,455 L 759,452 L 758,451 L 758,449 L 757,448 L 756,448 L 755,447 L 753,447 L 752,448 L 750,448 Z M 783,437 L 786,437 L 787,438 L 793,438 L 794,439 L 797,439 L 798,440 L 800,440 L 801,441 L 802,441 L 803,442 L 805,442 L 807,444 L 808,444 L 809,445 L 808,446 L 808,448 L 805,451 L 805,452 L 804,453 L 804,454 L 802,456 L 802,457 L 799,460 L 799,461 L 797,463 L 797,464 L 794,467 L 793,467 L 792,466 L 790,466 L 789,465 L 784,465 L 783,464 L 783,462 L 782,461 L 782,455 L 781,454 L 781,440 L 782,439 L 782,438 Z M 822,431 L 824,432 L 829,432 L 830,433 L 835,433 L 836,434 L 841,434 L 842,435 L 847,435 L 853,437 L 861,437 L 862,438 L 862,446 L 863,449 L 867,452 L 870,452 L 871,453 L 880,453 L 884,449 L 884,446 L 886,441 L 892,443 L 895,443 L 896,444 L 897,443 L 904,443 L 905,444 L 912,444 L 913,445 L 924,446 L 925,447 L 924,449 L 928,451 L 919,454 L 908,460 L 897,468 L 891,474 L 881,488 L 876,498 L 874,504 L 874,507 L 872,511 L 872,518 L 871,519 L 871,534 L 872,535 L 873,544 L 877,553 L 877,555 L 884,568 L 900,585 L 897,587 L 890,586 L 886,589 L 885,592 L 881,592 L 880,591 L 882,590 L 880,591 L 876,591 L 875,590 L 871,590 L 870,589 L 859,587 L 858,586 L 860,585 L 860,581 L 857,579 L 849,578 L 846,580 L 844,583 L 842,583 L 831,579 L 820,577 L 818,575 L 820,570 L 819,568 L 816,567 L 815,565 L 819,561 L 819,559 L 817,558 L 816,556 L 824,549 L 828,547 L 831,550 L 835,550 L 840,545 L 839,541 L 836,538 L 838,534 L 840,532 L 841,533 L 840,532 L 841,531 L 844,531 L 849,529 L 855,514 L 854,511 L 849,507 L 850,504 L 850,489 L 849,488 L 849,481 L 845,471 L 848,468 L 849,469 L 848,468 L 850,466 L 850,463 L 845,457 L 846,456 L 843,449 L 840,446 L 838,446 L 834,450 L 828,445 L 823,439 L 824,438 L 823,439 L 822,438 L 822,433 L 821,432 Z" fill="black" fill-rule="evenodd"/>
<path d="M 218,505 L 226,513 L 257,501 L 271,461 L 261,528 L 281,579 L 325,617 L 383,628 L 443,608 L 480,564 L 491,507 L 473,448 L 494,502 L 504,503 L 508,517 L 521,517 L 526,502 L 537,502 L 549,522 L 589,524 L 602,517 L 608,502 L 676,507 L 687,501 L 707,440 L 766,401 L 816,404 L 834,417 L 846,409 L 879,422 L 898,416 L 920,429 L 929,420 L 959,432 L 977,422 L 996,433 L 1007,423 L 1027,429 L 1044,424 L 1052,431 L 1076,423 L 1089,433 L 1103,424 L 1122,424 L 1127,432 L 1160,424 L 1166,433 L 1178,433 L 1184,424 L 1209,431 L 1254,424 L 1260,432 L 1296,424 L 1308,433 L 1340,424 L 1344,432 L 1359,433 L 1367,424 L 1386,424 L 1389,432 L 1408,424 L 1406,432 L 1443,423 L 1459,432 L 1468,423 L 1492,431 L 1525,423 L 1543,432 L 1551,421 L 1565,420 L 1588,431 L 1599,419 L 1722,416 L 1739,423 L 1743,440 L 1759,435 L 1774,449 L 1794,501 L 1815,501 L 1866,424 L 1851,455 L 1876,447 L 1874,434 L 1877,444 L 1887,440 L 1862,376 L 959,376 L 650,360 L 615,461 L 503,458 L 520,456 L 480,353 L 470,345 L 305,345 L 281,380 L 345,364 L 452,365 L 466,379 L 451,369 L 337,369 L 278,386 L 238,446 L 249,481 L 222,495 Z M 369,579 L 370,578 L 383,578 L 384,579 L 383,580 L 370,580 Z M 408,571 L 406,573 L 405,573 L 404,574 L 403,574 L 402,575 L 401,575 L 400,576 L 398,576 L 397,577 L 395,577 L 394,578 L 390,578 L 389,577 L 390,576 L 393,576 L 394,575 L 396,575 L 397,574 L 399,574 L 400,573 L 401,573 L 402,572 L 403,572 L 404,571 L 405,571 L 406,570 L 407,570 Z M 344,571 L 345,570 L 346,570 L 347,571 L 348,571 L 349,572 L 350,572 L 351,573 L 353,573 L 354,574 L 356,574 L 357,575 L 359,575 L 360,576 L 362,576 L 363,577 L 362,578 L 359,578 L 358,577 L 356,577 L 355,576 L 353,576 L 352,575 L 350,575 L 349,574 L 348,574 L 347,573 L 346,573 Z M 335,565 L 336,564 L 337,564 L 339,566 L 340,566 L 342,568 L 343,568 L 345,570 L 344,571 L 343,571 L 342,570 L 341,570 L 339,568 L 338,568 Z M 379,558 L 381,560 L 381,561 L 382,562 L 382,563 L 378,567 L 374,567 L 373,566 L 374,565 L 377,565 L 377,564 L 374,564 L 374,565 L 373,566 L 371,564 L 371,560 L 372,559 L 373,559 L 374,560 L 377,560 L 377,559 L 378,558 Z M 327,557 L 328,556 L 335,563 L 334,564 L 333,564 L 327,558 Z M 425,555 L 426,556 L 426,557 L 418,565 L 417,565 L 416,564 Z M 343,545 L 344,546 L 344,547 L 345,548 L 346,548 L 348,546 L 349,546 L 352,549 L 352,553 L 349,556 L 344,556 L 343,555 L 344,554 L 343,555 L 341,553 L 341,552 L 340,551 L 340,548 Z M 409,544 L 413,548 L 413,551 L 409,555 L 406,555 L 405,556 L 402,553 L 402,548 L 404,546 L 405,546 L 407,544 Z M 439,521 L 440,522 L 440,528 L 439,529 L 439,532 L 438,533 L 437,532 L 437,528 L 438,527 L 438,522 Z M 331,510 L 333,512 L 333,517 L 331,519 L 326,519 L 325,518 L 325,517 L 326,516 L 327,517 L 330,517 L 331,516 L 330,515 L 330,511 Z M 425,509 L 428,512 L 428,513 L 429,514 L 429,515 L 428,516 L 428,517 L 426,519 L 424,519 L 423,520 L 422,519 L 421,519 L 419,517 L 419,512 L 422,509 Z M 440,507 L 441,508 L 441,521 L 440,522 L 439,521 L 439,508 Z M 312,506 L 313,507 L 313,522 L 314,523 L 314,528 L 313,529 L 312,528 L 312,524 L 311,523 L 311,507 Z M 366,500 L 367,500 L 368,499 L 370,499 L 371,498 L 381,498 L 382,499 L 384,499 L 385,500 L 386,500 L 391,505 L 391,506 L 392,507 L 392,508 L 393,509 L 393,510 L 394,511 L 394,519 L 393,520 L 393,522 L 391,524 L 391,525 L 387,529 L 386,529 L 384,531 L 382,531 L 381,532 L 378,532 L 377,533 L 376,533 L 375,532 L 371,532 L 370,531 L 369,531 L 368,530 L 367,530 L 366,529 L 365,529 L 361,525 L 361,524 L 359,522 L 359,519 L 358,518 L 358,511 L 359,510 L 359,508 L 360,507 L 360,506 L 364,502 L 365,503 L 364,502 Z M 321,481 L 322,482 L 322,483 L 321,484 L 321,485 L 320,486 L 320,487 L 319,488 L 319,489 L 318,490 L 318,491 L 317,492 L 317,494 L 316,495 L 316,497 L 315,498 L 315,501 L 314,502 L 314,506 L 313,507 L 312,506 L 312,501 L 313,500 L 313,497 L 314,496 L 314,494 L 315,493 L 315,491 L 316,490 L 316,489 L 317,488 L 317,487 L 318,486 L 318,485 L 319,484 L 319,483 Z M 629,482 L 629,481 L 633,477 L 634,477 L 635,476 L 651,476 L 652,477 L 652,481 L 650,483 L 630,483 Z M 340,478 L 343,475 L 344,476 L 345,476 L 346,477 L 347,476 L 348,476 L 349,475 L 350,475 L 351,476 L 351,477 L 352,478 L 352,480 L 351,481 L 351,482 L 349,484 L 348,484 L 346,482 L 345,482 L 344,483 L 347,483 L 348,484 L 347,485 L 342,485 L 341,484 L 341,483 L 340,482 Z M 405,474 L 409,474 L 412,477 L 411,478 L 412,477 L 414,479 L 414,482 L 411,485 L 407,485 L 406,484 L 405,484 L 402,481 L 402,477 Z M 335,465 L 336,466 L 327,475 L 326,474 L 326,473 L 334,465 Z M 371,466 L 373,464 L 374,465 L 374,466 L 376,466 L 377,465 L 374,465 L 373,464 L 374,463 L 378,463 L 379,464 L 380,464 L 381,465 L 381,466 L 382,467 L 382,469 L 381,470 L 381,471 L 380,472 L 373,472 L 371,470 Z M 365,451 L 366,450 L 386,450 L 387,451 L 386,452 L 366,452 Z M 281,448 L 282,449 L 282,450 L 281,451 L 281,452 L 280,453 L 280,454 L 276,458 L 276,459 L 274,461 L 274,462 L 273,463 L 271,461 L 271,460 L 272,459 L 272,458 L 273,457 L 273,456 L 275,454 L 275,453 L 277,451 L 277,450 L 279,448 L 280,449 Z M 317,417 L 315,419 L 314,419 L 313,420 L 312,419 L 311,419 L 310,420 L 311,421 L 310,422 L 309,422 L 306,425 L 305,425 L 300,430 L 300,431 L 298,433 L 296,433 L 293,436 L 293,437 L 292,438 L 291,438 L 290,439 L 290,440 L 285,445 L 284,444 L 283,445 L 282,444 L 282,443 L 288,437 L 288,436 L 297,427 L 298,427 L 303,422 L 304,422 L 306,420 L 307,420 L 310,417 L 311,417 L 312,416 L 313,416 L 314,417 L 315,416 L 316,416 Z M 435,415 L 436,414 L 437,414 L 438,415 L 439,415 L 441,417 L 442,417 L 444,419 L 443,420 L 442,420 L 443,420 L 444,421 L 443,420 L 444,419 L 445,419 L 447,421 L 448,421 L 453,426 L 454,426 L 467,439 L 467,440 L 471,444 L 471,445 L 473,447 L 473,448 L 472,449 L 470,447 L 469,448 L 468,447 L 468,446 L 465,443 L 465,442 L 459,436 L 460,435 L 459,436 L 456,433 L 455,433 L 452,430 L 452,429 L 451,429 L 448,426 L 449,425 L 448,424 L 447,425 L 446,425 L 444,423 L 443,423 L 442,422 L 440,422 L 439,421 L 439,420 L 438,419 L 439,418 L 438,417 L 437,418 L 436,418 L 435,417 L 436,416 Z M 423,411 L 424,410 L 425,410 L 426,409 L 427,409 L 428,410 L 427,411 L 428,410 L 430,410 L 431,411 L 432,411 L 433,412 L 434,412 L 436,414 L 435,415 L 434,415 L 433,416 L 432,416 L 431,415 L 430,415 L 428,413 L 426,413 L 425,412 L 424,412 Z M 319,412 L 320,411 L 321,411 L 322,410 L 323,410 L 324,409 L 325,409 L 326,408 L 327,408 L 328,407 L 329,407 L 330,406 L 332,406 L 333,405 L 334,405 L 335,404 L 337,404 L 338,403 L 341,403 L 342,402 L 345,402 L 346,401 L 349,401 L 350,400 L 353,400 L 354,399 L 358,399 L 359,398 L 366,398 L 367,397 L 386,397 L 387,398 L 392,398 L 393,399 L 398,399 L 399,400 L 402,400 L 403,401 L 407,401 L 408,402 L 410,402 L 411,403 L 413,403 L 414,404 L 416,404 L 417,405 L 419,405 L 420,406 L 421,406 L 422,407 L 423,407 L 424,408 L 423,409 L 422,409 L 423,409 L 424,410 L 422,412 L 419,409 L 417,409 L 416,408 L 411,408 L 409,406 L 408,406 L 407,405 L 405,405 L 404,404 L 399,404 L 398,403 L 395,403 L 394,402 L 383,402 L 382,401 L 371,401 L 370,402 L 358,402 L 357,403 L 354,403 L 353,404 L 348,404 L 347,405 L 345,405 L 344,406 L 343,406 L 342,407 L 338,407 L 337,406 L 338,407 L 337,408 L 335,408 L 334,409 L 333,409 L 332,408 L 333,409 L 332,410 L 331,410 L 330,409 L 329,409 L 330,409 L 331,410 L 330,411 L 330,412 L 329,413 L 328,412 L 327,412 L 326,413 L 325,413 L 324,414 L 323,414 L 322,415 L 321,415 L 320,414 L 321,413 L 320,413 Z M 473,393 L 474,394 L 474,395 L 476,397 L 476,398 L 477,399 L 477,400 L 478,401 L 478,402 L 479,403 L 479,404 L 480,405 L 480,406 L 481,407 L 481,408 L 482,409 L 482,410 L 483,411 L 483,412 L 484,413 L 484,414 L 485,415 L 485,416 L 486,417 L 486,418 L 487,419 L 487,420 L 488,421 L 488,422 L 489,423 L 489,424 L 490,425 L 490,426 L 491,427 L 491,428 L 492,429 L 492,430 L 493,431 L 493,432 L 494,433 L 494,434 L 495,435 L 495,436 L 496,437 L 496,438 L 497,439 L 497,440 L 498,441 L 498,442 L 499,443 L 499,444 L 500,445 L 500,446 L 501,447 L 501,448 L 502,449 L 502,451 L 503,452 L 503,453 L 504,454 L 504,455 L 505,456 L 503,458 L 501,456 L 501,455 L 500,454 L 500,453 L 499,452 L 499,450 L 498,449 L 498,448 L 496,446 L 496,444 L 495,443 L 495,442 L 493,440 L 493,439 L 492,438 L 492,437 L 491,436 L 491,435 L 490,434 L 490,433 L 489,432 L 489,431 L 488,430 L 488,429 L 487,428 L 487,427 L 486,426 L 486,425 L 487,424 L 486,425 L 485,424 L 485,423 L 486,422 L 485,423 L 484,422 L 484,421 L 483,420 L 483,419 L 482,418 L 482,417 L 481,416 L 481,415 L 480,414 L 480,413 L 479,412 L 479,411 L 478,410 L 478,409 L 479,408 L 478,409 L 476,407 L 476,406 L 475,405 L 475,404 L 474,403 L 474,401 L 472,399 L 472,397 L 471,396 L 471,395 Z M 467,381 L 468,382 L 468,383 L 470,385 L 470,386 L 471,387 L 471,388 L 472,389 L 472,391 L 473,392 L 473,393 L 471,395 L 469,393 L 469,392 L 468,391 L 468,390 L 467,389 L 467,388 L 466,387 L 466,385 L 465,384 L 465,383 Z" fill="black" fill-rule="evenodd"/>
<path d="M 268,297 L 265,300 L 265,301 L 264,302 L 264,304 L 263,305 L 263,319 L 262,320 L 262,327 L 263,328 L 263,339 L 264,340 L 264,343 L 265,344 L 265,345 L 266,346 L 266,347 L 272,347 L 273,348 L 273,352 L 274,353 L 274,363 L 270,367 L 269,366 L 267,366 L 260,373 L 260,377 L 261,378 L 261,379 L 262,380 L 273,380 L 274,381 L 277,378 L 277,377 L 279,375 L 279,374 L 281,372 L 281,371 L 284,368 L 284,367 L 286,365 L 286,364 L 288,362 L 288,361 L 289,360 L 289,358 L 284,358 L 283,357 L 284,356 L 286,356 L 285,356 L 284,355 L 286,353 L 286,349 L 285,348 L 285,345 L 288,342 L 289,342 L 297,334 L 298,335 L 297,334 L 298,333 L 300,333 L 300,331 L 299,330 L 299,327 L 300,326 L 300,319 L 299,318 L 299,315 L 298,314 L 298,313 L 297,312 L 297,311 L 296,310 L 296,309 L 290,303 L 289,303 L 287,301 L 286,301 L 285,300 L 284,300 L 283,299 L 282,299 L 281,298 L 277,298 L 276,297 Z" fill="black" fill-rule="evenodd"/>
<path d="M 307,339 L 475,340 L 483,348 L 525,457 L 612,457 L 647,354 L 963,371 L 1865,371 L 1879,405 L 1977,257 L 1910,152 L 827,152 L 806,166 L 811,181 L 788,223 L 782,224 L 786,225 L 438,284 L 435,239 L 442,251 L 447,241 L 446,218 L 441,216 L 431,234 L 425,286 L 332,301 Z M 1722,198 L 1726,194 L 1727,194 L 1728,193 L 1758,193 L 1759,194 L 1760,194 L 1761,195 L 1762,195 L 1763,196 L 1763,197 L 1764,198 L 1764,199 L 1765,200 L 1765,204 L 1764,205 L 1764,207 L 1761,210 L 1760,210 L 1759,211 L 1728,211 L 1727,210 L 1726,210 L 1724,208 L 1725,207 L 1724,208 L 1722,206 Z M 1517,203 L 1518,202 L 1518,198 L 1519,197 L 1519,196 L 1520,195 L 1521,195 L 1522,194 L 1523,194 L 1524,193 L 1554,193 L 1555,194 L 1556,194 L 1560,198 L 1560,206 L 1559,207 L 1559,208 L 1557,210 L 1556,210 L 1555,211 L 1523,211 L 1522,210 L 1521,210 L 1519,208 L 1519,207 L 1518,206 L 1518,204 Z M 1284,198 L 1288,194 L 1289,194 L 1290,193 L 1320,193 L 1321,194 L 1322,194 L 1323,195 L 1324,195 L 1325,196 L 1325,197 L 1326,198 L 1326,200 L 1327,201 L 1327,204 L 1326,205 L 1326,207 L 1323,210 L 1322,210 L 1321,211 L 1289,211 L 1288,210 L 1287,210 L 1285,208 L 1285,207 L 1284,206 Z M 1079,201 L 1080,200 L 1080,199 L 1081,198 L 1081,197 L 1084,194 L 1085,194 L 1086,193 L 1116,193 L 1117,194 L 1118,194 L 1119,195 L 1120,195 L 1121,196 L 1121,197 L 1122,198 L 1122,199 L 1123,200 L 1123,205 L 1122,206 L 1122,207 L 1119,210 L 1118,210 L 1117,211 L 1086,211 L 1085,210 L 1084,210 L 1083,209 L 1082,209 L 1081,208 L 1081,207 L 1080,206 L 1080,205 L 1079,204 Z M 828,210 L 829,209 L 829,208 L 830,207 L 830,206 L 832,204 L 832,203 L 833,202 L 833,201 L 834,200 L 834,199 L 835,198 L 835,197 L 836,196 L 836,195 L 837,194 L 837,193 L 838,192 L 838,191 L 839,190 L 839,189 L 840,188 L 840,187 L 842,185 L 901,185 L 903,187 L 903,211 L 902,212 L 901,212 L 900,211 L 896,211 L 900,211 L 901,212 L 900,213 L 860,213 L 859,212 L 846,212 L 845,213 L 830,213 L 829,212 L 829,211 Z" fill="black" fill-rule="evenodd"/>
<path d="M 861,145 L 861,148 L 862,149 L 870,149 L 871,148 L 925,148 L 926,149 L 934,149 L 935,148 L 935,147 L 934,146 L 934,143 L 930,139 L 923,139 L 922,140 L 922,141 L 921,142 L 875,142 L 872,139 L 866,139 L 862,143 L 862,144 Z" fill="black" fill-rule="evenodd"/>
<path d="M 1799,139 L 1799,146 L 1801,148 L 1801,150 L 1865,150 L 1866,149 L 1866,148 L 1868,146 L 1868,139 L 1866,137 L 1866,136 L 1864,134 L 1863,134 L 1862,133 L 1861,133 L 1860,132 L 1807,132 L 1806,133 L 1805,133 L 1804,134 L 1803,134 L 1800,137 L 1800,138 Z" fill="black" fill-rule="evenodd"/>
<path d="M 1620,141 L 1620,144 L 1621,145 L 1621,147 L 1622,148 L 1622,149 L 1623,150 L 1688,150 L 1688,148 L 1689,147 L 1689,146 L 1690,145 L 1690,140 L 1689,139 L 1689,138 L 1688,137 L 1688,136 L 1687,135 L 1686,135 L 1684,133 L 1683,133 L 1682,132 L 1629,132 L 1628,133 L 1626,133 L 1621,138 L 1621,140 Z" fill="black" fill-rule="evenodd"/>
<path d="M 1358,140 L 1358,145 L 1359,146 L 1359,147 L 1360,148 L 1360,149 L 1361,150 L 1425,150 L 1426,149 L 1426,147 L 1427,146 L 1427,145 L 1428,144 L 1428,140 L 1427,139 L 1427,138 L 1422,133 L 1420,133 L 1419,132 L 1367,132 L 1366,133 L 1364,133 L 1359,138 L 1359,139 Z" fill="black" fill-rule="evenodd"/>
<path d="M 1080,140 L 1080,145 L 1081,146 L 1081,147 L 1082,148 L 1082,149 L 1083,150 L 1147,150 L 1147,149 L 1148,148 L 1148,147 L 1149,146 L 1149,145 L 1150,144 L 1150,140 L 1149,139 L 1149,138 L 1145,134 L 1144,134 L 1143,133 L 1142,133 L 1141,132 L 1088,132 L 1087,133 L 1086,133 L 1085,134 L 1084,134 L 1082,136 L 1082,137 L 1081,138 L 1081,139 Z" fill="black" fill-rule="evenodd"/>
<path d="M 1907,130 L 1905,132 L 1904,132 L 1902,134 L 1901,134 L 1900,135 L 1900,138 L 1901,139 L 1901,140 L 1902,141 L 1903,141 L 1905,139 L 1906,139 L 1907,138 L 1908,138 L 1909,139 L 1908,138 L 1911,136 L 1912,136 L 1913,137 L 1912,138 L 1913,137 L 1915,139 L 1915,140 L 1916,141 L 1916,142 L 1918,144 L 1918,145 L 1919,146 L 1919,147 L 1921,149 L 1921,150 L 1923,152 L 1923,153 L 1924,154 L 1924,155 L 1926,157 L 1926,158 L 1928,160 L 1928,161 L 1929,162 L 1929,163 L 1931,165 L 1931,166 L 1932,167 L 1932,168 L 1934,170 L 1934,171 L 1936,173 L 1936,174 L 1937,175 L 1937,176 L 1939,178 L 1939,179 L 1941,181 L 1941,182 L 1943,184 L 1943,185 L 1944,186 L 1944,187 L 1946,189 L 1946,190 L 1948,192 L 1948,193 L 1950,195 L 1950,196 L 1951,197 L 1951,198 L 1953,200 L 1953,201 L 1954,202 L 1954,203 L 1956,205 L 1956,206 L 1958,208 L 1958,209 L 1960,211 L 1960,212 L 1962,214 L 1962,217 L 1959,220 L 1957,220 L 1957,222 L 1959,224 L 1959,225 L 1960,226 L 1961,226 L 1962,225 L 1963,225 L 1965,223 L 1966,223 L 1968,221 L 1968,220 L 1969,219 L 1969,214 L 1968,213 L 1968,212 L 1966,210 L 1966,209 L 1965,208 L 1965,207 L 1963,205 L 1963,204 L 1961,202 L 1961,201 L 1962,200 L 1961,201 L 1959,199 L 1959,198 L 1958,197 L 1958,196 L 1956,194 L 1956,193 L 1954,191 L 1954,190 L 1953,189 L 1953,188 L 1951,186 L 1951,185 L 1950,184 L 1950,183 L 1948,181 L 1948,180 L 1946,178 L 1946,177 L 1945,176 L 1945,175 L 1943,173 L 1943,172 L 1942,171 L 1942,170 L 1940,168 L 1940,167 L 1938,165 L 1938,164 L 1937,163 L 1937,162 L 1935,160 L 1935,159 L 1933,157 L 1933,156 L 1932,155 L 1932,154 L 1930,152 L 1930,151 L 1928,149 L 1928,148 L 1927,147 L 1927,146 L 1928,145 L 1927,146 L 1925,144 L 1925,143 L 1923,141 L 1923,140 L 1922,139 L 1922,138 L 1920,136 L 1920,135 L 1919,134 L 1919,133 L 1916,130 L 1915,130 L 1914,129 L 1909,129 L 1908,130 Z" fill="black" fill-rule="evenodd"/>
<path d="M 942,129 L 943,130 L 943,132 L 950,139 L 950,143 L 951,144 L 951,148 L 968,148 L 969,149 L 977,149 L 978,148 L 980,148 L 980,142 L 983,139 L 983,128 L 982,127 L 982,125 L 981,124 L 981,122 L 980,121 L 980,117 L 981,116 L 981,114 L 982,113 L 1053,113 L 1055,111 L 1055,107 L 1054,106 L 1054,105 L 1053,105 L 1052,104 L 1049,104 L 1048,105 L 981,105 L 980,104 L 977,104 L 976,103 L 954,103 L 953,102 L 952,102 L 951,103 L 950,103 L 948,106 L 948,111 L 949,112 L 949,114 L 948,115 L 947,115 L 942,120 Z" fill="black" fill-rule="evenodd"/>
</svg>