<?xml version="1.0" encoding="UTF-8" standalone="no"?>
<svg
   width="750"
   height="250"
   viewBox="0 0 750 250"
   version="1.1"
   id="svg2"
   sodipodi:docname="sherman_m4a3e2_76_black.svg"
   inkscape:version="1.4.2 (f4327f4, 2025-05-13)"
   xmlns:inkscape="http://www.inkscape.org/namespaces/inkscape"
   xmlns:sodipodi="http://sodipodi.sourceforge.net/DTD/sodipodi-0.dtd"
   xmlns="http://www.w3.org/2000/svg"
   xmlns:svg="http://www.w3.org/2000/svg">
  <defs
     id="defs2" />
  <sodipodi:namedview
     id="namedview2"
     pagecolor="#ffffff"
     bordercolor="#000000"
     borderopacity="0.25"
     inkscape:showpageshadow="2"
     inkscape:pageopacity="0.0"
     inkscape:pagecheckerboard="0"
     inkscape:deskcolor="#d1d1d1"
     inkscape:zoom="0.55616943"
     inkscape:cx="999.69536"
     inkscape:cy="222.05464"
     inkscape:window-width="2560"
     inkscape:window-height="1377"
     inkscape:window-x="-8"
     inkscape:window-y="-8"
     inkscape:window-maximized="1"
     inkscape:current-layer="svg2" />
  <path
     d="m 495.51289,211.1663 v 0.72976 h 0.36488 l 0.36489,0.36488 -0.36489,0.36488 v 2.55416 l -0.36488,0.36489 v 1.09464 -0.36488 l 0.36488,-0.36488 0.36489,0.36488 0.36488,-0.36488 v -4.37857 h -0.36488 l -0.36489,0.36488 -0.36488,-0.36488 z"
     fill="#000000"
     fill-rule="evenodd"
     id="path1"
     style="stroke-width:0.364881" />
  <path
     d="m 703.85989,150.96095 -12.77084,-30.65 -13.13571,-1.8244 -5.83809,-10.58155 -7.6625,8.75714 -24.08214,-5.10833 -4.37857,-5.10833 -36.12321,-4.37857 -9.12203,4.01369 -36.1232,-4.37857 -2.91905,-5.473206 -33.93392,0.36488 -0.72976,-3.64881 -5.47321,-0.72976 10.58154,-2.189287 20.79821,-13.500592 4.01369,-8.392257 h 5.83809 l -1.09464,-10.946429 -5.10833,-0.729766 -1.09465,-7.662499 8.02739,0.364883 -0.36489,-8.757139 -9.4869,2.554163 -6.20297,-4.743453 -21.89286,-3.283929 -6.56786,-2.554164 -5.47321,0.729766 -6.56786,-5.473219 2.91905,-5.838092 -16.78452,-4.743453 -26.27142,6.202976 3.6488,4.378569 -8.02737,0.729767 -1.45952,-4.743453 h -15.68988 l -1.82441,4.743453 -6.93273,0.364883 -6.20298,-6.202976 -8.75714,-0.364883 -6.20298,7.297616 -18.97381,2.554163 -6.20297,1.459523 -17.87916,7.297626 -6.93274,-5.108336 -4.74345,13.865475 -13.13571,-4.743453 -8.75715,5.47321 -2.55416,7.297616 -10.58155,3.28393 L 87.576064,63.75442 57.29095,57.916327 41.601068,58.28121 l -4.743452,8.757139 4.743452,12.405952 45.610113,-5.838093 228.415429,0.729757 12.40596,3.648813 6.56785,7.662499 11.31131,-0.364883 5.10833,4.37857 -9.85179,4.0137 -32.70635,-2.29101 -13.9984,2.29101 -10.94643,4.74345 -16.78452,5.473206 -13.50059,8.02738 -9.12202,6.56785 -17.1494,20.79821 -3.28393,4.01369 -30.65,2.55416 -18.60892,11.6762 4.74345,10.94642 -5.47321,4.74345 3.6488,1.82441 -4.37857,0.72976 -1.09464,10.94642 3.64881,0.36489 -2.91905,3.64881 6.56786,6.93273 -1.09464,4.37857 16.78452,13.13571 4.01369,-1.09464 5.83809,6.56786 35.39345,16.41964 h 380.93565 l 37.21785,-16.41964 1.09464,-3.64881 h 6.20298 l 2.91905,-5.10833 4.01368,1.45952 12.77084,-11.31131 4.37857,-9.12202 -3.28393,-3.28393 4.37857,-3.28393 -6.20298,-16.05475 10.58156,-2.18928 -4.0137,-16.05477 z m -94.86904,78.44939 0.36488,-0.36488 h 0.72977 l 0.36487,0.36488 h 0.36488 l 0.36489,0.36488 h 0.72975 l 0.36489,0.36489 -0.36489,0.36487 h -2.18928 l -0.72976,-0.72976 z m -28.09583,0 v 0.72977 l -0.36488,0.36487 h -2.55416 l -0.36489,-0.36487 0.36489,-0.36489 h 0.72975 l 0.36489,-0.36488 h 1.09464 l 0.36488,-0.36488 z m -57.2863,0 -0.36488,0.36488 v 0.36489 l -0.36488,0.36487 h -2.55416 l -0.36489,-0.36487 0.36489,-0.36489 h 1.09464 l 0.36488,-0.36488 h 0.72976 l 0.36488,-0.36488 h 0.36488 z m -87.57141,0 v 0.72977 l -0.36488,0.36487 h -2.55417 l -0.36488,-0.36487 0.36488,-0.36489 h 1.09465 l 0.36487,-0.36488 h 0.36488 l 0.36489,0.36488 -0.36489,-0.36488 0.36489,-0.36488 h 0.36488 z m -180.98093,-0.72976 v 0.72976 l -0.36488,0.36488 v 0.36489 l -0.36488,0.36487 h -3.28392 l -0.36488,-0.36487 0.36488,-0.36489 h 0.72976 l 0.36488,-0.36488 h 0.36488 l 0.36488,0.36488 h 0.72976 -0.72976 l -0.36488,-0.36488 0.36488,-0.36488 h 0.36488 l 0.36488,-0.36488 h 0.36488 l 0.36488,-0.36488 h 0.36488 z m 307.5946,-0.36488 0.36488,-0.36488 0.36488,0.36488 h 0.36488 l 0.36488,0.36488 h 0.36488 l 0.36488,0.36488 -0.36488,0.36488 h -0.36488 l -0.36488,0.36488 h 1.45952 l 0.36488,-0.36488 h 0.36489 l 0.36488,0.36488 h 0.72976 l 0.36488,0.36489 -0.36488,0.36487 h -3.64881 l -0.36488,-0.36487 v -0.36489 l -0.36488,-0.36488 z m -145.58748,-0.36488 0.36488,-0.36489 0.36489,0.36489 h 0.36487 l 0.36488,0.36488 h 0.36489 l 0.36488,0.36488 h 0.36487 l 0.36489,0.36488 h 0.36488 l 0.36488,0.36488 -0.36488,0.36488 h -0.72977 l -0.36487,-0.36488 h -0.72977 v 0.36488 h 1.82441 l 0.36488,-0.36488 h 0.36488 l 0.36488,0.36488 h 0.72977 l 0.36487,0.36489 -0.36487,0.36487 h -4.0137 l -0.36487,-0.36487 v -0.36489 l -0.72977,-0.72976 z m -106.18034,0 v 1.09464 l -0.36488,0.36488 v 0.72977 l -0.36488,0.36487 h -4.37858 l -0.36487,-0.36487 0.36487,-0.36489 h 0.72977 l 0.36488,-0.36488 h 0.36489 l 0.36487,0.36488 h 1.45952 v -0.36488 H 308.329 l -0.36489,-0.36488 0.36489,-0.36488 h 0.36488 l 0.36487,-0.36488 h 0.36489 l 0.72976,-0.72977 h 0.36488 z m 67.13809,-0.36489 0.36488,-0.36487 h 0.36487 l 0.72977,0.72976 h 0.36488 l 0.36488,0.36488 h 0.36488 l 0.36488,0.36488 h 0.36489 l 0.36487,0.36488 h 0.36488 l 0.36489,0.36488 h 0.36488 l 0.36487,0.36488 h 0.72977 l 0.36488,0.36489 -0.36488,0.36487 H 378.751 l -0.36487,-0.36487 v -0.72977 l -0.36488,-0.36488 z m -51.08333,-0.36487 0.36488,-0.36488 h 0.36488 l 1.09464,1.09464 h 0.36489 l 0.36488,0.36488 -0.72977,0.72976 h 0.72977 l -0.36488,-0.36488 0.36488,-0.36488 h 0.36488 l 0.72976,0.72976 h 0.36488 l 0.36488,0.36488 -0.36488,0.36488 h -1.8244 1.8244 l 0.36488,-0.36488 h 0.36488 l 0.36488,0.36488 h 1.09464 l 0.36488,0.36489 -0.36488,0.36487 h -5.10832 l -0.36489,-0.36487 v -0.72977 l -0.36488,-0.36488 v -0.36488 l -0.36488,-0.36488 z m 74.4357,-0.36488 v 0.72975 l -0.36487,0.36489 v 1.09464 l -0.36489,0.36488 v 0.72977 l -0.36488,0.36487 h -5.10834 l -0.36487,-0.36487 0.36487,-0.36489 h 0.72977 l 0.36488,-0.36488 h 0.36489 l 0.36487,0.36488 h 2.18929 -0.72977 l -0.36487,-0.36488 -0.36488,0.36488 h -0.72977 l -0.36487,-0.36488 0.36487,-0.36488 h 0.36488 l 0.36489,-0.36488 h 0.36488 l 0.36487,-0.36488 h 0.36489 l 0.72976,-0.72977 h 0.36488 l 1.09465,-1.09464 z m -50.35356,0 v 1.09464 l -0.36488,0.36488 v 0.36488 l -0.36488,0.36488 -0.36489,-0.36488 0.36489,0.36488 v 0.72976 l -0.72976,0.72976 h -2.91905 l -0.72976,-0.72976 0.72976,-0.72976 h 0.36488 l 0.36488,-0.36488 h 0.36488 l 0.36489,-0.36488 h 0.36487 l 0.36488,0.36488 h 0.36489 -0.36489 l -0.36488,-0.36488 1.09465,-1.09464 h 0.36487 l 0.72977,-0.72977 z m 281.68805,-5.10834 0.36488,0.36488 v 1.45953 l 0.36488,0.36488 v 0.36487 l -0.36488,0.36489 h -0.36488 l -0.36488,0.36488 h -0.36488 l -0.36489,0.36488 h -0.36487 l -0.72977,-0.72976 0.36489,-0.36489 v -0.36487 l 1.09464,-1.09465 v -0.36487 z m -403.19339,-0.72976 0.36489,0.36488 v 0.36488 l 0.36487,0.36488 v 0.36489 l 0.72977,0.72975 v 0.36489 l 0.72975,0.72975 v 0.36489 l -0.36487,0.36488 0.36487,0.36488 -0.36487,0.36488 h -0.72977 l -0.36488,-0.36488 0.36488,-0.36488 -0.36488,0.36488 h -0.36487 l -1.09465,-1.09465 0.36488,-0.36487 v -2.55417 z m 380.93565,-0.36488 0.36488,-0.36488 h 1.45953 l 0.36488,0.36488 v 1.09464 l -0.36488,0.36488 h -1.09464 l -0.72977,-0.72976 z m -44.88035,0.36488 0.36489,-0.36488 h 0.36488 l 0.36488,-0.36488 h 0.72976 l 0.36488,0.36488 v 0.36488 l 0.36488,0.36488 v 0.36488 l -0.72976,0.72977 h -0.36488 l -0.36488,-0.36489 h -0.36488 l -0.72977,-0.72976 z m -95.23391,0 0.72976,-0.72976 h 0.72977 l 0.72975,0.72976 v 0.72976 l -0.36487,0.36488 h -1.09465 l -0.72976,-0.72976 z m -48.52916,-0.72976 h 0.72976 l 0.72977,0.72976 v 0.72976 l -0.36489,0.36488 h -0.36488 l -0.36487,0.36489 -1.09465,-1.09465 v -0.36488 z m -89.7607,0.36488 0.36488,-0.36488 h 1.09464 l 0.72977,0.72976 v 0.72976 l -0.36488,0.36488 h -1.09464 l -0.72977,-0.72976 0.36488,-0.36488 h 0.36489 -0.36489 z m -35.39344,1.82441 0.36487,-0.36489 v -0.36488 l 0.36489,-0.36488 v -0.36488 l 0.72976,-0.72976 0.36488,0.36488 h 2.18929 l 0.36488,-0.36488 h 0.36487 l 0.36489,0.36488 v 0.36488 l 0.36488,0.36488 v 0.36488 l 0.36488,0.36488 v 1.09464 l -1.09465,1.09464 h -3.28392 l -0.36488,-0.36487 h -0.36488 l -0.36489,-0.36488 0.36489,-0.36489 -0.36489,0.36489 -0.36487,-0.36489 z m 325.47376,-2.55417 h 1.09464 l 0.72975,0.72976 v 0.36488 l 0.36489,0.36488 -0.72976,0.72976 h -0.36488 l -0.36489,0.36489 h -0.72975 l -0.72977,-0.72977 v -1.09464 z m -8.02739,2.55417 0.36489,-0.36489 v -0.72976 l 0.36487,-0.36488 v -0.36488 l 0.72977,-0.72976 h 2.91904 l 0.72977,0.72976 v 0.36488 l -0.36488,0.36488 0.36488,-0.36488 0.36487,0.36488 v 0.72976 l 0.36489,0.36489 v 0.72975 l -0.72976,0.72977 h -0.72977 l -0.36488,0.36487 h -1.8244 l -0.36488,-0.36487 h -1.09465 l -0.72976,-0.72977 z m -44.15059,-0.72977 0.36489,-0.36488 v -0.36488 l 0.72975,-0.72976 0.36489,0.36488 h 1.45952 -1.45952 l -0.36489,-0.36488 0.36489,-0.36488 h 2.55416 l 0.36488,0.36488 v 0.36488 l 0.72977,0.72976 v 2.18929 l -0.36488,0.36488 h -0.72977 l -0.36487,0.36487 h -2.18929 l -0.36489,-0.36487 h -0.72975 l -0.36489,-0.36488 z m -48.89404,-1.8244 h 0.36489 l 1.09464,1.09464 v 0.36488 l -1.09464,1.09465 h -1.09464 l -0.36489,-0.36489 0.36489,-0.36488 h 0.72975 l 0.36489,-0.36488 v -0.36488 h -1.09464 l -0.36489,-0.36488 0.36489,-0.36488 h 0.36488 z m -8.75714,2.18928 0.36489,-0.36488 v -0.36488 l 0.36488,-0.36488 v -0.36488 l 0.36487,-0.36488 0.36489,0.36488 h 1.8244 -1.8244 l -0.36489,-0.36488 0.36489,-0.36488 h 2.55417 l 1.09464,1.09464 v 0.36488 l 0.36488,0.36488 v 1.82441 l -0.36488,0.36488 h -0.36488 l -0.36489,0.36487 h -2.91904 l -0.36489,-0.36487 h -0.72975 l -0.36489,-0.36488 z m -37.58273,-1.09464 1.09464,-1.09464 h 2.55418 l 0.36487,0.36488 -0.36487,0.36488 h -1.45953 1.45953 l 0.36487,0.36488 0.36488,-0.36488 0.72977,0.72976 v 2.18929 l -0.72977,0.72975 h -3.28393 l -0.36488,-0.36487 h -0.72976 l -0.72976,-0.72977 0.36488,-0.36488 v -1.09464 l 0.36488,-0.36488 z m -41.59642,-1.09464 h 0.72976 l 0.36489,0.36488 h 0.36487 l 0.36488,0.36488 v 1.09464 l -0.36488,0.36488 h -0.36487 l -0.36489,0.36489 h -0.72976 l -0.72976,-0.72977 v -1.09464 z m -8.39226,2.91904 0.36488,-0.36487 v -0.72977 l 0.36488,-0.36488 v -0.36488 l 1.09465,-1.09464 h 2.55416 l 0.72977,0.72976 v 0.36488 l 0.36487,0.36488 v 0.36488 l 0.36488,0.36488 v 1.45953 l -0.36488,0.36488 h -0.72976 l -0.36488,0.36487 h -2.91905 l -0.36488,-0.36487 h -0.36488 l -0.72976,-0.72977 z m -30.28511,-2.91904 h 1.09464 l 0.72976,0.72976 v 0.72976 l -1.09465,1.09465 h -0.72975 l -0.72977,-0.72977 v -1.09464 z m -8.39226,2.18928 0.36487,-0.36488 v -0.36488 l 0.36489,-0.36488 0.36488,0.36488 -0.36488,-0.36488 1.09464,-1.09464 h 2.55417 l 1.09464,1.09464 v 0.36488 l 0.36488,0.36488 v 1.82441 l -0.36488,0.36488 h -0.36488 l -0.36489,0.36487 h -2.91904 l -0.36488,-0.36487 0.36488,-0.36488 h 1.8244 -1.8244 l -0.36488,0.36488 h -1.09465 l -0.36487,-0.36488 z m -2.91906,-2.18928 h 0.36489 l 0.72976,0.72976 v 1.09464 l -0.72976,0.72977 -0.36489,-0.36489 h -0.36487 l -0.72977,-0.72976 v -0.36488 l 0.36489,-0.36488 0.36488,0.36488 -0.36488,-0.36488 z m -38.67737,0 h 0.36489 l 0.36487,0.36488 h 0.36488 l 0.36489,0.36488 -0.36489,0.36488 h -0.36488 l -0.36487,0.36488 -0.36489,-0.36488 -0.36488,0.36488 0.36488,0.36488 h 0.36489 l 0.36487,-0.36488 h 0.36488 l 0.36489,0.36488 -0.72977,0.72977 h -1.09464 l -0.72976,-0.72977 v -0.72976 z m -8.39225,1.45952 1.45952,-1.45952 h 2.55416 l 1.09464,1.09464 v 0.36488 l 0.36489,0.36488 v 1.82441 l -0.36489,0.36488 h -0.36488 l -0.36487,-0.36488 0.36487,-0.36489 -0.36487,0.36489 h -2.18929 2.18929 l 0.36487,0.36488 -0.36487,0.36487 h -3.28393 l -0.36489,-0.36487 h -0.36488 l -0.36487,-0.36488 z m -31.01488,-1.45952 h 0.72975 l 1.09465,1.09464 v 0.72976 l -0.72976,0.72977 h -0.36489 l -0.36487,0.36487 h -0.36488 l -1.09464,-1.09464 v -0.72976 z m -11.67619,0 h 0.72976 l 1.09464,1.09464 v 0.36488 l -0.72976,0.72976 h -1.09464 l -0.72976,-0.72976 v -0.72976 z m -41.59642,0 0.72976,0.72976 v 1.09464 l -0.72976,0.72977 h -0.36489 l -0.36487,0.36487 h -0.36488 l -1.09465,-1.09464 v -0.72976 l 0.72976,-0.72976 h 0.36489 l 0.36488,0.36488 v 0.36488 l 0.36487,0.36488 v 0.36488 l 0.36489,-0.36488 v -0.36488 l -0.36489,-0.36488 h -0.36487 l -0.36488,-0.36488 0.36488,-0.36488 z m -7.6625,0 h 2.55417 l 0.36487,0.36488 v 0.36488 l 0.72977,0.72976 v 2.18929 L 247.029,224.302 h -3.28393 l -0.36487,-0.36487 h -0.72977 l -0.36488,-0.36488 v -1.09464 l 0.36488,-0.36489 v -0.36488 l 0.36489,-0.36488 v -0.36488 z m -5.10833,0 h 0.72976 l 1.09464,1.09464 v 0.36488 l -0.36488,0.36488 v 0.36488 l -0.36488,0.36489 h -0.36488 l -0.36489,-0.36489 h -0.36487 l -0.72977,-0.72976 v -0.72976 z m 244.10531,-0.36488 h 0.36488 l 1.45953,1.45952 -0.36489,0.36488 v 0.36488 l -0.36487,0.36488 h -0.36488 l -0.36489,0.36489 h -1.09464 l -0.36488,-0.36489 v -1.8244 l 0.36488,-0.36488 h 0.36488 z m -16.41964,-5.10833 0.36488,-0.36489 h 0.36489 l 0.36488,0.36489 h 1.09464 l 0.36488,0.36488 h 1.45953 l 0.36487,0.36487 h 0.36488 l 0.36489,0.36489 v 0.72976 l -0.36489,0.36488 -0.36488,-0.36488 -0.36487,0.36488 0.36487,0.36488 -0.36487,0.36488 h -0.36489 l -0.36488,0.36488 h -0.36488 l -0.36488,-0.36488 h -0.36488 0.36488 l 0.36488,0.36488 -0.36488,0.36489 h -0.36488 l -0.36488,0.36487 h -0.36489 l -0.36487,-0.36487 0.36487,-0.36489 v -0.36488 0.36488 l -0.36487,0.36489 -0.36488,-0.36489 v -0.36488 l -0.36489,-0.36488 v -0.72976 l -0.36488,-0.36488 z m -27.73094,0 v 0.36488 l -0.36488,0.36487 v 1.09465 l -0.36489,0.36488 v 0.72976 l -0.72975,0.72977 h -0.36489 l -0.36488,-0.36489 h -0.36488 l -0.36488,-0.36488 h -0.36488 l -0.72977,-0.72976 0.36489,-0.36488 -0.36489,-0.36488 -0.36488,0.36488 -0.72976,-0.72976 0.36489,-0.36489 h 0.72975 l 0.36489,-0.36487 h 1.45952 l 0.36488,0.36487 h 0.72976 -0.72976 l -0.36488,-0.36487 0.36488,-0.36488 h 0.72976 l 0.36488,-0.36489 h 0.36489 z m -89.03095,0 v 1.45952 l -0.36487,0.36488 v 0.72976 l -0.36488,0.36488 -0.36489,-0.36488 v -0.36488 l -0.36488,0.36488 h -1.45952 l -0.36488,-0.36488 -0.36488,0.36488 h -0.36488 l -1.09464,-1.09464 0.72975,-0.72977 h 0.36489 l 0.36488,-0.36487 h 1.09464 l 0.36488,-0.36488 h 0.72976 l 0.36488,-0.36489 h 0.72977 z m -93.4095,0 v 1.8244 l -0.36489,0.36488 v 0.36488 l -0.36488,0.36488 -0.36487,-0.36488 h -0.72977 l -0.36488,-0.36488 -0.36488,0.36488 -0.36488,-0.36488 h -0.36488 l -0.72976,-0.72976 -0.36488,0.36488 -0.36488,-0.36488 v -0.36488 l 0.36488,-0.36489 h 0.72976 l 0.36488,-0.36487 h 1.09464 l 0.36488,-0.36488 h 1.09464 l 0.36488,-0.36489 z m 305.4053,-0.36489 0.36489,-0.36488 h 0.36488 l 0.36488,0.36488 h 0.72976 l 0.36488,0.36489 h 0.72976 l 0.36488,0.36488 h 1.09465 l 0.72976,0.72976 v 0.72976 l -1.09464,1.09464 h -0.36489 l -0.36488,-0.36488 h -0.72976 0.72976 l 0.36488,0.36488 -0.36488,0.36488 h -0.36488 l -0.36488,0.36489 h -0.72976 l -0.36488,0.36487 -0.72976,-0.72976 v -0.72976 l -0.36488,-0.36488 v -1.09464 l -0.36489,-0.36489 z m -35.75832,0 v 2.18929 l -0.36488,0.36488 v 0.72976 l -0.72976,0.72977 -0.36488,-0.36489 h -1.09465 l -0.36488,-0.36488 0.36488,-0.36488 h 1.45953 -0.36488 l -0.36489,-0.36488 h -0.36488 l -0.72976,0.72976 -0.36488,-0.36488 h -0.36488 l -0.72976,-0.72976 0.36488,-0.36488 v -0.36488 l -0.36488,-0.36489 0.36488,-0.36487 h 0.72976 l 0.36488,-0.36488 h 1.09464 l 0.36489,-0.36489 h 0.72976 l 0.36488,-0.36488 z m -147.77676,0 0.36487,-0.36488 0.36489,0.36488 h 0.72976 l 0.36488,0.36489 h 1.09465 l 0.36487,0.36488 h 1.09465 l 0.72976,0.72976 v 0.72976 l -1.09464,1.09464 h -0.36489 l -0.36488,0.36488 h -0.36487 l -0.36489,0.36489 h -0.36488 l -0.36488,0.36487 h -0.36488 l -0.36488,-0.36487 0.36488,-0.36489 v -0.36488 l -0.36488,-0.36488 v -0.36488 0.36488 l -0.36488,0.36488 -0.36489,-0.36488 v -0.72976 l -0.36487,-0.36488 z m -89.39582,0 0.36488,-0.36488 0.36488,0.36488 h 0.72976 l 0.36488,0.36489 h 1.09465 l 0.36487,0.36488 h 1.09465 l 0.72976,0.72976 v 0.72976 l -0.72976,0.72976 H 293.004 l -0.36488,0.36488 -0.36489,-0.36488 h -0.72976 0.72976 l 0.36489,0.36488 -0.36489,0.36488 h -0.36487 l -0.36489,0.36489 h -0.72976 l -0.36488,0.36487 -0.36488,-0.36487 v -0.36489 l -0.36488,-0.36488 v -0.36488 l -0.36488,-0.36488 v -1.45953 l -0.36488,-0.36487 z m 156.16902,-1.8244 0.36488,-0.36488 h 1.09465 l 0.72976,0.72976 h 11.31131 l 0.72975,-0.72976 h 0.36489 l 0.72975,0.72976 v 3.28393 l 0.36489,0.36488 v 1.09464 l 0.36488,0.36488 v 1.09464 l 0.36488,0.36489 v 1.09464 l 0.36488,0.36488 v 0.36488 l 0.36488,0.36488 v 0.36488 l 0.36488,0.36488 v 0.36489 l 0.72976,0.72975 v 0.36489 l 1.09465,1.09464 v 0.36488 l 1.82441,1.82441 h 0.36487 l 1.09465,1.09464 h 0.36487 l 0.36489,0.36488 h 0.36488 l 0.72976,0.72976 h 0.36488 l 0.72977,0.72976 v 0.36489 l -0.36489,0.36487 h -5.10833 l -0.36489,-0.36487 v -1.09465 l -0.36487,-0.36488 v -1.09465 l -0.36488,-0.36487 v -0.72977 l -0.36489,-0.36488 v -0.72976 l -0.36488,-0.36488 v -0.36488 L 463.0385,224.302 h -1.82441 l -0.36488,0.36489 h -0.36489 v 0.36488 l -0.36487,0.36488 v 0.72976 l -0.36488,0.36488 v 1.09464 l -0.36489,0.36489 v 1.09464 l -0.72975,0.72976 v 0.36489 l -0.36489,0.36487 h -4.01369 l -0.36488,-0.36487 -0.36488,0.36487 -0.72977,-1.09464 v -1.09464 l -0.36487,-0.36488 v -1.45953 l -0.36488,-0.36488 v -0.72976 l -0.36489,-0.36488 v -0.36488 h -0.36488 l -0.36487,-0.36489 h -1.45953 l -0.36488,0.36489 h -0.36488 v 0.72976 l -0.72976,1.09464 v 1.09464 l -0.36488,0.36489 v 1.09464 l -0.36488,0.36488 v 0.72977 l -0.36489,0.36487 h -4.74345 l -0.36487,-0.36487 v -0.72977 l -0.36489,-0.36488 v -1.45953 l -0.36488,-0.36487 v -1.45953 l -0.36488,-0.36488 0.36488,-0.36488 v -0.36488 l 1.09464,-1.09464 v -0.36489 l 0.36488,-0.36488 0.36489,0.36488 0.36488,-0.36488 -0.36488,-0.36487 v -0.36489 l 0.36488,-0.36488 v -0.36488 l 0.36487,-0.36488 0.36489,0.36488 0.36488,-0.36488 v -0.36488 l -0.36488,-0.36488 v -0.72976 l 0.36488,-0.36488 v -0.72977 l 0.36488,-0.36487 v -1.45953 l 0.36488,-0.36488 z m 180.25117,-0.72976 h 0.72975 l 0.36489,0.36488 v 0.36488 l 0.36488,-0.36488 0.36487,0.36488 v -0.36488 l 0.36489,-0.36488 0.36488,0.36488 v 1.09464 l 0.36488,0.36488 v 1.09465 l -0.36488,0.36488 v 1.45952 l -0.36488,0.36488 v 0.36488 l -0.36489,0.36488 -0.36487,-0.36488 0.36487,0.36488 -0.36487,0.36488 h -1.09465 l -0.36487,-0.36488 h -0.36489 l -0.36488,-0.36488 h -0.36488 l -0.72976,-0.72976 v -3.28393 l 1.09464,-1.09464 h 0.36488 z m -18.24405,0 h 0.72976 l 0.36488,0.36488 -0.36488,0.36488 h -0.36489 v 0.36488 h 0.72977 l -0.36488,-0.36488 0.36488,-0.36488 h 0.36488 l 0.36488,0.36488 h 0.72976 l 0.72976,0.72976 h 0.36488 l 0.36489,0.36488 v 2.55417 l 0.36488,0.36488 -1.09465,1.09464 h -0.36487 l -0.72977,0.72977 h -0.36488 l -0.36488,0.36487 h -0.36488 l -0.36488,0.36488 -0.72976,-0.72975 v -0.72977 l -0.36488,-0.36488 v -0.36488 l -0.36489,-0.36488 v -3.64881 l 0.36489,-0.36488 v -0.36488 z m -101.80177,0 h 1.09464 l 0.36488,0.36488 h 0.72976 l 0.72977,0.72976 h 0.36488 l 0.72976,0.72976 v 3.28393 l -1.09464,1.09464 h -0.36489 l -0.36488,-0.36488 0.36488,-0.36488 h -0.36488 l -0.36487,0.36488 h -0.36489 l -0.36488,0.36488 h 0.36488 l 0.36489,0.36489 -0.36489,0.36487 h -0.72976 l -0.36488,-0.36487 v -0.36489 l -0.36488,-0.36488 v -0.36488 l -0.36488,-0.36488 v -1.09464 l -0.36489,-0.36489 v -2.18928 l 0.36489,-0.36488 v -0.72976 z m -148.50652,0.36488 h 0.72975 l 0.36489,-0.36488 0.36488,0.36488 v 0.36488 l 0.36488,0.36488 h 10.58155 l 0.36487,-0.36488 h 0.36489 l 0.36488,-0.36488 h 1.09464 l 0.72976,0.72976 v 4.37857 l 0.36488,0.36488 v 1.45952 l 0.36488,0.36489 v 0.72976 l 0.36488,0.36488 v 0.36488 l 0.36489,0.36488 v 0.36488 l 0.36487,0.36488 v 0.36488 l 0.36488,0.36489 v 0.36487 l 0.72977,0.72977 v 0.36488 l 0.36488,0.36487 -0.36488,0.36489 h -0.72977 l -0.36488,0.36488 v 0.36488 l -0.36487,0.36488 v 0.72976 l -0.36489,0.36489 v 0.72975 l -0.36488,0.36489 v 1.09464 l -0.36488,0.36488 v 0.72977 l -0.36488,0.36487 h -4.37857 l -0.72976,-0.72976 v -0.72976 l -0.36488,-0.36488 v -1.45952 l -0.36488,-0.36488 v -1.09465 l -0.36488,-0.36488 v -0.72976 h -0.36488 l -0.36489,-0.36489 h -1.8244 l -0.36488,0.36489 h -0.36488 v 0.72976 l -0.36488,0.36488 v 0.72976 l -0.36489,0.36489 v 1.09464 l -0.36487,0.36488 v 0.72976 l -0.36488,0.36488 v 0.72977 l -0.36489,0.36487 h -4.37857 l -0.36488,-0.36487 v -0.36489 l -0.36488,-0.36488 v -1.45952 l -0.36488,-0.36489 v -1.09464 l -0.36488,-0.36488 v -0.36488 l -0.36488,-0.36488 v -0.36488 l -0.36489,-0.36488 h -0.36487 l -0.72977,-0.72976 v -0.36488 l 0.72977,-0.72977 v -0.36487 l 0.72976,-0.72977 v -0.36488 l 0.36488,-0.36488 v -0.36488 l 0.36488,-0.36488 v -0.72976 l 0.36488,-0.36488 v -1.09464 l 0.36488,-0.36489 v -1.45952 l 0.36488,-0.36488 v -3.64881 z m 225.86127,-0.72976 0.36487,0.36488 v 0.36488 l 0.36489,0.36488 v 3.64881 l -0.36489,0.36488 v 0.72976 l -0.36487,0.36488 -0.36488,-0.36488 v -0.36488 h -0.72977 l -0.72976,0.72976 h -0.36488 l -1.45952,-1.45952 v -2.55417 l 1.45952,-1.45952 h 0.36488 l 0.36489,-0.36488 h 0.72975 l 0.36489,-0.36488 z m -94.86904,0 0.36488,0.36488 v 0.72976 l 0.36489,0.36488 v 2.55416 l -0.36489,0.36489 v 1.09464 l -0.36488,0.36488 v 0.36488 l -0.36487,0.36488 -0.36489,-0.36488 0.36489,0.36488 -0.36489,0.36489 h -0.72976 l -0.36488,-0.36489 h -0.36488 l -1.8244,-1.8244 0.36488,-0.36488 v -2.55417 l 0.72976,-0.72976 h 0.36488 l 0.36488,-0.36488 h 0.36488 l 0.36488,-0.36488 h 0.36488 l 0.36488,-0.36488 z m -70.05712,0 h 0.36487 l 0.36488,0.36488 h 0.72977 l 0.36487,0.36488 h 0.36489 l 0.72976,0.72976 h 0.36488 l 0.72976,0.72976 v 3.28393 l -1.45952,1.45953 h -0.36488 l -0.36489,0.36487 h -0.72975 l -0.36489,0.36488 -0.72975,-0.72975 v -0.72977 l -0.36489,-0.36488 v -1.09464 l -0.36488,-0.36488 v -2.91905 l 0.36488,-0.36488 v -0.72976 z m -18.24405,0 0.36488,0.36488 v 0.36488 l 0.36488,0.36488 v 4.01369 l -0.36488,0.36488 v 0.36488 l -0.36488,0.36488 v 0.36488 l -0.36488,0.36489 h -1.09464 l -0.36488,-0.36489 h -0.36489 l -1.8244,-1.8244 v -0.36488 l 0.36488,-0.36489 v -1.8244 l 0.36488,-0.36488 0.36489,0.36488 -0.36489,-0.36488 0.72976,-0.72976 h 0.36488 l 0.36489,-0.36488 h 0.36488 l 0.36487,-0.36488 h 0.72977 z m -70.7869,0 h 0.36489 l 0.36488,0.36488 h 0.72976 l 0.36488,0.36488 h 0.36488 l 0.72976,0.72976 h 0.36488 l 0.72977,0.72976 v 2.18929 l 0.36487,0.36488 v 0.36488 l -1.45952,1.45952 h -0.36488 l -0.36488,-0.36488 h -0.72976 0.72976 l 0.36488,0.36488 -0.36488,0.36489 h -0.36488 l -0.36488,0.36487 h -1.09464 l -0.36489,-0.36487 v -0.36489 l -0.36487,-0.36488 v -1.09464 l -0.36488,-0.36488 v -3.64881 l 0.36488,-0.36488 v -0.36488 z m -18.60892,0 0.72976,0.72976 v 4.37857 l -0.36488,0.36488 v 0.36488 l -0.36488,0.36488 v 0.36488 l -0.36488,0.36489 h -0.72977 l -0.36487,-0.36489 H 308.329 l -0.36489,-0.36488 0.36489,-0.36488 h 0.72975 l 0.36489,0.36488 v -0.36488 l -0.36489,-0.36488 h -0.36487 l -0.72977,0.72976 h -0.36488 l -1.45952,-1.45952 v -0.36488 l 0.36488,-0.36489 v -1.8244 l 1.09464,-1.09464 h 0.36488 l 0.36489,0.36488 h 0.36488 -0.36488 l -0.36489,-0.36488 0.36489,-0.36488 h 0.36488 l 0.36487,-0.36488 h 0.72977 z m -74.80058,0 h 0.36488 l 0.36487,0.36488 h 0.36489 l 0.36488,0.36488 h 0.72977 l 0.72975,0.72976 h 0.36489 l 0.72975,0.72976 v 2.91905 l -1.09464,1.09464 -0.36488,-0.36488 h -0.36487 0.36487 l 0.36488,0.36488 -0.36488,0.36488 h -0.36487 l -0.36489,0.36489 h -0.36488 l -0.36488,0.36487 h -0.72976 l -0.36488,-0.36487 v -0.72977 l -0.36489,-0.36488 v -0.72976 l -0.36488,-0.36488 v -3.28393 l 0.36488,-0.36488 v -0.72976 z m 27.73095,1.45952 0.72975,-0.72976 h 1.09464 l 0.36489,-0.36488 h 1.09465 l 0.36487,-0.36488 h 1.09465 l 0.36487,-0.36489 0.72977,0.72977 v 0.36488 h 10.94643 l 0.72976,-0.72976 h 0.36488 l 0.36488,0.36488 h 0.72976 l 0.72977,0.72976 v 4.74345 l 0.36487,0.36488 v 1.09464 l 0.36488,0.36488 v 0.72977 l 0.36489,0.36488 v 0.72976 l -0.36489,0.36488 0.36489,-0.36488 0.36488,0.36488 v 0.36488 l 0.36487,0.36488 v 0.36488 l 0.36489,0.36489 v 0.36487 l 1.09464,1.09465 v 0.36487 l 0.72976,0.72977 v 0.36488 l 1.82441,1.82441 h 0.36488 l 0.72976,0.72976 -0.36488,0.36488 0.36488,0.36488 -0.36488,0.36488 v 0.36488 l -0.36488,0.36488 v 0.36489 l -0.36488,0.36487 h -4.0137 l -0.36487,-0.36487 v -0.72977 l -0.36488,-0.36488 v -0.72976 l -0.36489,-0.36488 v -0.72976 l -0.36488,-0.36488 v -0.72977 l -0.36487,-0.36488 v -0.72976 l -0.36489,-0.36488 h -2.55416 v 0.36488 l -0.72977,1.09464 v 1.09465 l -0.36488,0.36487 v 1.09465 l -0.36487,0.36488 v 0.36488 l -0.72977,1.09464 h -4.37857 l -0.72977,-0.72976 v -0.72976 l -0.36487,-0.36488 v -1.09465 l -0.36488,-0.36487 v -1.09465 l -0.36489,-0.36488 v -0.72976 l -0.72975,-0.72977 h -1.82441 l -0.36488,0.36489 h -0.36489 v 0.36488 l -0.36487,0.36488 v 0.72976 l -0.36488,0.36488 v 0.72977 l -0.36489,0.36487 v 1.09465 l -0.72975,0.72976 v 0.72977 l -0.36489,0.36487 h -5.10833 l -0.36489,-0.36487 v -0.72977 l -0.36487,-0.36488 v -1.8244 l -0.36488,-0.36488 v -0.72977 l -0.36489,-0.36488 v -0.72976 l -0.36488,-0.36488 V 224.302 l 1.45952,-1.45952 v -0.36487 l 0.36489,-0.36489 v -0.36488 l 0.36488,-0.36488 v -0.36488 l 0.72976,-1.09464 v -0.72976 l 0.36488,-0.36489 v -0.72975 l 0.36488,-0.36489 v -1.8244 l 0.36489,-0.36488 z m 292.63448,-0.36488 v 4.01369 l 0.36487,0.36488 v 1.45953 l 0.36488,0.36487 v 1.09465 l 0.36489,0.36488 v 0.36488 l 0.36488,0.36488 v 0.36488 l 0.36487,0.36488 0.36489,1.09465 1.45952,1.82439 -1.09464,0.72977 v 0.72976 l -0.36488,0.36488 v 0.72977 l -0.36489,0.36488 v 1.45952 l -0.36487,0.36488 v 0.72976 l -0.72977,0.72976 h -4.37857 l -0.72976,-1.09464 v -1.45952 l -0.36488,-0.36489 v -1.09464 l -0.36488,-0.36488 v -0.72976 l -0.36488,-0.36488 v -0.36488 h -0.36489 l -0.36487,-0.36489 h -1.82441 l -0.72976,0.72977 v 1.09464 l -0.36488,0.36488 v 0.72977 l -0.36488,0.36487 v 1.09465 l -0.36488,0.36488 -0.36489,-0.36488 v -0.36488 0.36488 l 0.36489,0.36488 v 0.72976 l -0.72977,0.72976 h -4.37857 l -0.72976,-1.09464 v -1.09464 l -0.36488,-0.36488 v -1.45953 l -0.72976,-1.09464 v -0.72976 h -0.36488 l -0.36488,-0.36489 h -1.82441 l -0.72976,0.72977 v 0.72976 l -0.36488,0.36488 v 1.09465 l -0.36488,0.36487 v 1.09465 l -0.36489,0.36488 v 0.72976 l -0.72975,0.72976 h -4.01369 l -0.72977,-0.72976 v -0.36488 l -0.36488,-0.36488 v -1.45953 l -0.36487,-0.36487 v -2.55417 l 1.09464,-1.09464 v -0.36489 l 1.09464,-1.09464 v -0.36488 l 0.36488,-0.36488 v -0.36488 l 0.72976,-1.09464 v -0.72976 l 0.36488,-0.36489 v -1.09464 l 0.36488,-0.36488 v -5.47321 l 0.36489,-0.36488 h 0.36487 l 0.36488,-0.36488 1.09464,-0.36489 0.72977,1.09465 h 10.21666 l 1.45953,-1.8244 h 0.72976 l 0.36489,0.36488 h 3.28392 l 0.36488,0.36487 h 1.09464 l 0.36488,0.36489 h 0.72977 l 0.36487,0.36488 h 0.72977 z m 112.01843,-5.10833 -0.72977,0.72976 h -0.36488 l -0.36487,0.36488 h -0.36489 l -0.36488,0.36488 h -0.36488 l -0.36489,0.36489 h -1.09464 l -0.72975,0.72975 h -0.36489 l -0.36488,0.36489 -2.55416,-2.55417 0.36488,-0.36488 h 2.91905 l 0.36487,-0.36488 h 1.45952 l 0.36489,-0.36489 h 1.45952 l 0.36488,-0.36488 0.36489,0.36488 v 0.36489 z m -154.34463,-3.28393 0.36489,0.36488 v 1.09464 l 0.36488,0.36489 v 1.45952 l -0.72977,0.72976 -0.36487,-0.36488 0.36487,0.36488 -0.36487,0.36488 h -0.36488 l -0.36489,0.36488 h -0.36488 l -0.36487,0.36489 h -0.72977 l -0.36488,-0.36489 h -0.72976 l -0.36488,-0.36488 0.36488,-0.36488 h 0.36488 -0.36488 l -0.36488,-0.36488 -0.36489,0.36488 -0.36487,-0.36488 v -0.36488 l -0.36488,-0.36488 v -0.36489 l 1.09464,-1.09464 h 0.36488 l 0.72976,-0.72976 h 0.72976 l 0.36489,-0.36488 h 0.36487 l 0.36488,-0.36488 z m -87.57141,0 0.36488,0.36488 v 3.28393 l -0.36488,0.36488 -0.36488,-0.36488 0.36488,0.36488 -0.36488,0.36488 h -0.36488 l -0.36488,0.36488 h -0.36488 l -0.36489,-0.36488 h -0.72975 l -0.36489,0.36488 h -0.72975 l -1.09465,-1.09464 v -0.36488 l -0.36488,-0.36488 v -0.36489 l 1.45953,-1.45952 h 0.36487 l 0.36488,-0.36488 h 0.36489 l 0.36488,-0.36488 h 0.36487 l 0.36489,-0.36488 z m -88.66605,0 0.36488,0.36488 v 3.28393 l -0.72977,0.72976 h -0.72975 l -0.36489,0.36488 h -0.36488 l -0.36488,0.36489 h -0.72976 l -0.36488,-0.36489 h -0.36489 l -0.36488,-0.36488 h -0.36487 l -0.72977,-0.72976 v -0.36488 l -0.36488,-0.36488 v -0.36489 l 1.09465,-1.09464 h 0.36487 l 0.72977,-0.72976 h 0.36488 l 0.36488,-0.36488 h 0.72976 l 0.36488,-0.36488 z m -93.40952,0 0.36489,0.36488 v 3.28393 l -0.72976,0.72976 h -0.36488 l -0.36489,0.36488 h -0.72975 l -0.36489,0.36489 h -0.72976 l -0.36488,-0.36489 h -0.36488 l -0.36488,-0.36488 0.36488,-0.36488 -0.36488,0.36488 h -0.36489 l -0.72975,-0.72976 v -0.36488 l -0.36489,-0.36488 v -0.36489 l 1.45953,-1.45952 h 0.36488 l 0.36488,-0.36488 h 0.36488 l 0.36488,-0.36488 h 0.36488 l 0.36489,-0.36488 z m 375.09757,0 0.36488,-0.36488 h 0.36487 l 0.36489,0.36488 -0.36489,0.36488 0.36489,-0.36488 h 1.09464 l 0.36488,0.36488 h 0.72977 l 0.36487,0.36488 h 0.36488 l 1.45953,1.45952 v 0.72977 l -0.72976,0.72976 -0.36488,-0.36488 -0.36489,0.36488 0.36489,0.36488 -0.36489,0.36488 h -0.36488 l -0.36487,-0.36488 h -0.36489 0.36489 l 0.36487,0.36488 -0.36487,0.36488 h -0.36489 l -0.36488,0.36489 -0.36488,-0.36489 h -0.36488 l -0.36488,-0.36488 0.36488,-0.36488 h 0.36488 -0.36488 l -0.36488,0.36488 h -0.72977 l -1.09464,-1.09464 v -1.45952 l 0.36489,-0.36489 z m -44.15059,0 0.36488,-0.36488 0.36488,0.36488 h 1.09464 l 0.36489,0.36488 h 0.72975 l 0.72977,0.72976 h 0.36487 l 1.09465,1.09464 v 0.36488 l -0.36488,0.36489 v 0.36488 l -1.09464,1.09464 h -0.36488 l -0.36489,-0.36488 h -1.09464 l 0.36489,0.36488 -0.36489,0.36488 h -0.36488 l -0.36488,-0.36488 h -0.36488 l -1.09465,-1.09464 v -1.82441 l 0.36489,-0.36488 z m -95.23391,0 0.36488,-0.36488 0.36487,0.36488 h 1.09465 l 0.36488,0.36488 -0.36488,0.36488 h -0.72976 l 0.36488,0.36488 0.72976,-0.72976 h 0.36488 l 0.36488,0.36488 h 0.36488 l 0.72976,0.72976 h 0.36489 l 1.09464,1.09464 v 0.36489 l -1.82441,1.8244 h -0.36488 l -0.36488,0.36489 h -0.72976 l -0.36488,-0.36489 h -0.72976 l -1.09464,-1.09464 z m -88.30118,0 0.36488,-0.36488 0.36488,0.36488 h 1.09464 l 0.36489,0.36488 h 0.72975 l 0.36489,0.36488 h 0.36488 l 1.82441,1.8244 v 0.72977 l -1.09465,1.09464 h -0.36489 l -0.36487,0.36488 h -0.36488 l -0.36489,-0.36488 0.36489,0.36488 -0.36489,0.36489 h -0.72975 l -0.36489,-0.36489 h -0.36488 l -0.36488,-0.36488 h -0.36488 l -0.36488,-0.36488 0.36488,-0.36488 -0.36488,0.36488 -0.36488,-0.36488 z m -89.76071,0.36488 0.72977,-0.72976 0.36488,0.36488 h 1.09464 l 0.36489,0.36488 h 0.72975 l 0.36489,0.36488 h 0.36488 l 1.45952,1.45952 -0.36488,0.36488 0.36488,0.36489 v 0.36488 l -1.09465,1.09464 h -0.36487 l -0.36488,0.36488 h -0.36489 l -0.36488,-0.36488 h -0.36487 l -0.36489,-0.36488 0.36489,0.36488 -0.36489,0.36488 h -0.36488 l -0.36488,-0.36488 h -0.36488 l -0.36488,-0.36488 0.36488,-0.36488 -0.36488,-0.36488 0.36488,0.36488 -0.36488,0.36488 h -0.36488 l -0.36489,-0.36488 z m -110.55891,-1.45952 0.36489,-0.36488 h 0.36488 l 0.72976,-0.72977 h 1.09465 l 0.36487,0.36488 h 0.72977 l 0.36488,0.36489 v 0.36488 l 0.36487,0.36487 v 1.09465 l -0.36487,0.36488 -0.36488,-0.36488 h -1.09464 l 0.36487,0.36488 -0.36487,0.36488 h -0.36489 z m 337.14995,-0.36488 1.09464,-1.09464 h 0.36489 l 0.36488,-0.36489 h 0.36487 l 0.36489,-0.36488 h 1.09464 l 0.72976,0.72977 -0.36488,-0.36489 0.36488,-0.36488 h 0.72976 l 0.36488,0.36488 v 2.18928 l -0.36488,0.36489 h -0.36487 l -0.36489,0.36488 h -0.72976 l -0.36488,0.36488 h -0.72976 l -0.36489,0.36488 h -0.36487 l -0.72977,-0.72976 v -0.36488 z m -67.13808,-1.45953 0.36488,-0.36488 h 0.36488 l 0.36488,0.36488 h 1.09465 l 0.36487,-0.36488 0.36488,0.36488 h 0.36489 l 1.45952,1.45953 -2.18929,2.18928 h -0.72976 l -0.36488,-0.36488 0.36488,-0.36488 -0.36488,-0.36488 h -0.36488 l -0.36488,0.36488 h -0.36488 l -0.36488,-0.36488 z m -15.68988,-0.36488 0.36488,0.36488 v 2.55417 l -0.36488,0.36488 h -0.36488 l -0.36488,0.36488 h -0.36488 l -0.36489,0.36488 h -0.72975 l -0.36489,0.36488 -0.36488,-0.36488 v -0.36488 l -1.8244,-1.8244 0.36488,-0.36489 h 0.36488 l 1.09464,-1.09464 h 1.09465 l 0.36487,-0.36488 z m -73.34106,0.36488 0.36488,-0.36488 h 1.8244 l 0.36488,0.36488 0.36489,-0.36488 h 0.36488 l 1.82441,1.82441 -1.45953,1.45952 v 0.36488 l -0.72976,0.72976 -0.36489,-0.36488 h -0.36488 l -0.36487,-0.36488 h -0.72977 l -1.09464,-1.09465 z m -20.06845,1.45953 1.09464,-1.09464 h 0.36488 l 0.72977,-0.72977 h 0.72976 l 0.36488,0.36488 v 0.36489 h 0.36488 l 0.72976,-0.72977 h 0.72977 l 0.36488,0.36488 v 2.18928 l -0.36488,0.36489 h -0.36489 l -0.36488,-0.36489 0.36488,0.36489 -0.36488,0.36488 h -0.36488 l -0.36488,0.36488 h -0.36488 l -0.36488,0.36488 h -1.09464 l -1.45953,-1.45953 v -0.36487 z m -93.40951,0 1.45953,-1.45953 h 0.36488 l 0.36487,-0.36488 h 2.18929 l 0.36489,0.36488 h 0.72975 l 0.72977,0.72976 v 0.36488 l -0.36488,0.36489 v 0.36488 l -1.09464,1.09464 h -0.36489 l -0.36488,0.36488 h -0.72976 l -0.36488,-0.36488 h -0.36488 0.36488 l 0.36488,0.36488 -0.36488,0.36488 h -0.36488 l -0.36489,0.36488 -0.72975,-0.72976 0.36488,-0.36488 -0.36488,-0.36488 -0.36489,0.36488 -0.36488,-0.36488 v -0.36489 z m 296.64817,-1.82441 0.36488,-0.36488 h 4.01369 l 1.45952,1.45952 v 0.72977 l -1.09464,1.09464 -0.36488,-0.36489 -0.36488,0.36489 h -1.45953 l -0.36487,0.36488 -0.36488,-0.36488 H 556.448 l -0.72975,-0.72976 h -0.36489 l -0.36488,-0.36488 z m -272.93091,2.55416 v -2.18928 l 0.72977,-0.72976 h 1.09464 l 0.36488,0.36488 h 1.8244 l 0.36488,0.36488 h 0.36488 l 1.09464,1.09464 -0.72975,0.72977 -0.36489,-0.36488 0.36489,0.36488 -1.09465,1.09464 v 0.36488 l -0.36488,0.36488 h -0.36488 l -0.36488,-0.36488 h -0.72976 l -0.36488,-0.36488 h -0.72977 l -0.36487,-0.36488 h -0.36489 z m 370.71898,-1.45952 0.36489,-0.36487 v -0.72977 l 0.36488,-0.36488 v -0.36488 l 0.36488,-0.36488 v -0.36488 l 0.36488,-0.36489 v -0.36487 l 0.36488,-0.36488 v -0.36489 l 0.72977,-0.72976 v -0.36488 l 0.72975,-0.72976 v -0.36489 l 1.82441,-1.82439 h 0.36488 l 0.36489,0.36487 h 2.55416 l 0.36488,-0.36487 h 0.36488 l 0.72976,0.72975 v 0.36489 l 0.36489,0.36488 v 0.36487 l 0.36487,0.36489 v 0.36488 l 0.72977,0.72976 v 0.36488 l 0.72975,0.72977 v 0.36488 l 0.36489,0.36487 v 0.36489 l 0.72976,0.72976 v 0.36488 l 0.36489,0.36488 v 1.45952 l -0.36489,0.36489 h -0.72976 l -0.36489,0.36488 h -1.09464 l -0.36488,0.36487 h -6.93273 l -0.36489,-0.36487 h -1.09464 l -0.36488,-0.36488 h -0.72976 l -0.36488,-0.36489 h -0.36488 z m -453.54694,-6.93273 1.09464,-1.09464 h 2.18929 l 1.09464,1.09464 v 1.45952 l -0.72977,0.72976 -0.36487,-0.36488 h -1.09465 v 0.36488 l -0.36487,0.36488 h -0.72977 l -1.09464,-1.09464 z m -6.20298,-3.64882 h 1.09464 l 1.09464,1.09465 v 0.36488 l -0.36487,0.36488 v 0.36488 l -0.72977,0.72976 h -1.09464 l -1.09464,-1.09464 v -0.72976 z m 16.78453,-0.72975 h 0.36488 l 0.36487,0.36488 h 0.36489 l 0.72976,0.72976 v 1.09464 l -1.09465,1.09465 h -1.09464 l -0.72976,-0.72977 0.36488,-0.36488 h 0.72977 l -0.36489,-0.36488 0.36489,-0.36488 h -0.72977 l -0.36488,-0.36488 z m -19.33869,-3.64882 0.36487,0.36489 v 0.36488 l 0.36489,0.36488 v 0.72976 l -0.72976,0.72977 h -0.36488 l -0.36489,0.36487 h -0.72975 l -0.72977,-0.72976 0.36488,-0.36488 h 1.09464 v -0.72976 l 0.36489,-0.36488 v -0.36488 z m 487.84575,0 0.36488,0.36489 v 1.09464 l -0.36488,0.36488 v 1.09464 l -0.36488,0.36488 v 0.72977 l -0.36488,0.36487 v 0.72977 l -0.36488,0.36488 v 0.36488 l -0.36488,0.36488 v 0.36488 l -0.36488,0.36489 v 0.36487 l -0.72977,0.72977 v 0.36488 l -1.09464,1.09464 v 0.36488 l -1.45952,1.45953 h -0.36488 l -0.72976,0.72975 -1.82441,-1.8244 v -0.36488 l -0.72976,-0.72976 v -0.36489 l -0.36488,-0.36487 v -0.36488 l -0.36488,-0.36489 v -0.36488 l -0.72977,-0.72976 v -0.36488 l -0.36487,-0.36488 v -0.36488 l -0.36488,-0.36488 v -1.45952 l 0.72975,-0.72977 0.72977,0.72977 h 0.36488 l 0.36488,0.36488 h 0.36488 l 0.36488,0.36487 h 0.36489 l 0.72975,0.72977 h 0.36489 l 0.36488,0.36488 h 0.72976 l 0.36488,0.36488 h 0.36488 l 0.36488,-0.36488 h 1.45953 l 0.36487,-0.36488 h 0.36489 l 0.36488,-0.36488 v -0.36489 l 0.36488,-0.36487 v -0.72977 l -2.18929,-2.18928 h -0.36488 l -0.36488,-0.36488 h -0.36488 l -0.36488,-0.36488 h -0.72977 l -0.36487,-0.36489 0.36487,-0.36488 h 4.74346 l 0.36488,0.36488 z m -36.48809,0 h 1.45953 l 0.36487,0.36489 h 0.36489 -0.36489 l -0.36487,-0.36489 0.36487,-0.36488 h 4.37858 l 0.36487,0.36488 h 2.18929 l 0.36489,0.36489 v 0.72976 l 0.36487,0.36488 v 0.36488 l 0.36488,0.36488 v 0.36489 l 0.36489,0.36487 v 0.36488 l 0.36488,0.36489 v 0.72975 l -0.36488,0.36489 v 0.36488 l -0.36489,0.36488 v 0.36488 l -0.72975,0.72976 v 0.36489 l -0.72977,0.72975 v 0.36489 l -0.36488,0.36488 v 0.36487 l -0.36488,0.36489 v 0.36488 l -0.36488,0.36488 v 0.36488 l -1.45952,1.45953 h -0.36489 l -0.36488,-0.36488 h -0.36487 l -0.72977,-0.72977 0.36488,-0.36488 -0.36488,0.36488 -1.09464,-1.09464 v -0.36488 l -0.72976,-0.72976 v -0.36488 l 0.36488,-0.36489 -0.36488,0.36489 -0.36489,-0.36489 v -0.36488 l -0.36487,-0.36487 v -0.36489 l -0.36489,-0.36488 v -0.36488 l -0.36488,-0.36488 v -0.72976 l -0.36488,-0.36489 v -0.36487 l -0.36488,-0.36488 v -1.09464 l -0.36488,-0.36489 v -1.8244 z m -428.73505,-0.72975 h 1.09464 l 0.72976,0.72975 v 1.09465 l -0.72976,0.72976 h -1.45952 l -0.72976,-0.72976 v -0.36488 l 0.36488,-0.36488 v -0.36489 z m 0.36488,-7.6625 h 1.09465 l 0.36487,0.36488 -0.36487,0.36488 h -0.36489 l -0.36488,0.36488 v 1.45952 h 1.09464 l 0.36489,0.36488 -0.36489,0.36489 h -0.36487 l -0.36489,0.36487 h -0.72976 l -0.72976,-0.72976 v -0.36488 l -0.36488,-0.36488 v -1.09464 z m -24.08214,-0.72977 h 1.45952 l 0.36489,0.36489 v 0.36488 l 0.36488,0.36488 v 1.09464 l -0.36488,0.36488 v 0.36488 l -0.72976,0.72976 h -1.09465 l -0.72976,-0.72976 0.36489,-0.36488 v -0.36488 0.36488 l -0.36489,0.36488 -0.36488,-0.36488 v -1.45952 l 0.36488,-0.36488 0.36489,0.36488 -0.36489,-0.36488 z m 487.48088,-0.36488 0.36488,0.36488 v 0.36489 l 0.36488,0.36488 v 0.36488 l 0.36488,0.36488 v 0.72976 l 0.36488,0.36488 v 0.72976 l -0.36488,0.36488 h -0.72976 l -0.36488,0.36489 h -3.28393 l -0.36488,-0.36489 0.36488,-0.36488 h 0.36488 l 0.36488,-0.36488 h 0.36488 l 1.09464,-1.09464 v -0.36488 l 0.72977,-0.72976 v -0.72977 z m -468.87195,-3.6488 0.72976,-0.72977 h 0.36488 l 0.36488,0.36488 -0.36488,0.36489 0.36488,0.36488 v 0.36487 l 0.72977,-0.72975 v -0.36489 l 0.36487,-0.36488 h 0.36489 l 0.72976,0.72977 v 1.8244 l -0.36488,0.36488 h -0.36488 l -0.36489,0.36488 h -0.36487 l -0.36488,-0.36488 h -0.36489 l -1.45952,-1.45953 z m -15.68988,-0.36489 0.36488,-0.36488 h 0.36488 l 0.36489,-0.36487 h 0.72975 l 0.36489,0.36487 -0.36489,0.36488 0.36489,0.36489 -0.36489,-0.36489 0.36489,-0.36488 h 0.36488 l 0.36487,0.36488 v 1.82441 l -0.36487,0.36488 h -0.36488 l -0.36489,0.36488 h -1.09464 l -1.09464,-1.09464 v -0.72976 l 0.36488,-0.36488 z m 408.30172,-0.36488 1.09464,-1.09464 h 0.36488 l 0.36489,-0.36488 h 1.09464 l 0.36488,0.36488 -0.36488,0.36488 h -0.72977 1.09465 l 0.36488,-0.36488 1.45953,1.45952 v 1.09464 l -0.36489,0.36489 v 0.36488 l -0.72976,0.72976 h -0.36488 l -0.36488,-0.36488 h -0.72976 0.72976 l 0.36488,0.36488 -0.36488,0.36488 h -1.82441 l -0.36488,-0.36488 h -0.36488 l -0.72976,-0.72976 z m -62.39463,-0.36487 0.72976,-0.72977 h 0.36488 l 0.36488,-0.36488 h 1.45952 l 0.36489,0.36488 h 0.36488 l 0.36487,0.36488 -0.36487,0.36489 0.36487,0.36487 0.36489,-0.36487 0.36488,0.36487 v 0.72977 l 0.36488,0.36488 -0.36488,0.36487 v 0.72977 l -0.72977,0.72976 h -0.36487 l -0.36488,0.36488 h -2.18929 l -1.45953,-1.45952 v -1.45953 l 0.36489,-0.36488 z m -86.84166,0 0.72977,-0.72977 h 0.36488 l 0.36487,0.36488 h 0.72977 -0.72977 l -0.36487,-0.36488 0.36487,-0.36488 h 1.45953 l 0.36488,0.36488 h 0.36488 l 0.72977,0.72977 v 0.36487 l 0.36487,0.36488 v 1.45953 l -0.36487,0.36488 v 0.36488 l -0.36488,0.36488 h -0.36489 l -0.36488,0.36488 h -1.82441 l -0.36487,-0.36488 h -0.36488 l -1.09464,-1.09464 v -1.45953 l 0.36487,-0.36488 z m -89.03093,0 0.72976,-0.72977 h 0.36488 l 0.36488,0.36488 h 1.45952 -1.45952 l -0.36488,-0.36488 0.36488,-0.36488 h 1.82441 l 0.36488,0.36488 h 0.36488 l 0.72976,0.72977 v 0.36487 l 0.36488,0.36488 v 1.09464 l -0.36488,0.36489 v 0.36488 l -0.72976,0.72976 h -0.36488 l -0.36488,0.36488 h -1.45953 l -0.36488,-0.36488 h -0.36488 l -0.36488,-0.36488 h -0.36488 l -0.36488,-0.36488 v -0.36488 l -0.36489,-0.36489 v -1.09464 l 0.36489,-0.36488 z m -89.76071,0.36487 1.09465,-1.09464 0.36488,0.36488 h 1.45952 -1.45952 l -0.36488,-0.36488 0.36488,-0.36488 h 2.18929 l 0.72976,0.72976 -0.36488,0.36489 0.36488,-0.36489 0.72976,0.72976 v 1.45952 l -0.36488,0.36489 -0.36488,-0.36489 0.36488,0.36489 v 0.36488 l -0.36488,0.36488 h -0.36488 l -0.36488,0.36488 h -0.36489 l -0.36488,0.36488 h -0.72976 l -0.36488,-0.36488 h -0.36488 l -0.36488,-0.36488 h -0.36488 l -0.72977,-0.72976 z m 376.19221,-2.55416 1.45952,1.45952 v 0.36488 l 0.36488,0.36489 v 0.36487 l 0.36489,0.36488 v 0.36489 l 0.72975,0.72975 v 0.36489 l 0.36489,0.36488 v 0.36488 l 0.36488,0.36488 v 0.36488 l 0.36487,0.36488 v 0.36488 l 0.36489,0.36488 v 0.36488 l 0.36488,0.36489 v 0.36488 l -0.72977,0.72976 v 0.36488 l -1.09464,1.09464 v 0.36488 l -0.72975,0.72977 -0.36489,-0.36489 h -2.18929 l -0.36487,0.36489 h -2.55417 l -0.36488,-0.36489 h -1.45953 l -0.36487,-0.36488 h -0.36489 l -0.72976,-0.72976 v -1.09464 l 0.36488,-0.36488 v -0.72976 l 0.36488,-0.36489 v -0.36488 l 0.36489,-0.36488 v -0.36488 l 0.36487,-0.36488 v -0.36488 l 0.36489,-0.36488 v -0.36488 l 0.72976,-0.72977 v -0.36487 l 0.36488,-0.36488 0.36488,0.36488 0.72976,-0.72977 -0.36488,-0.36488 1.45952,-1.45952 0.36489,0.36488 h 1.09464 l -0.72976,-0.72976 z m -446.9791,1.8244 0.36489,-0.36488 v -0.36488 l -0.36489,-0.36488 v -0.36488 l 0.36489,-0.36488 h 1.09464 l 0.36488,0.36488 v 0.72976 l -1.09464,1.09465 h -0.36488 z m 468.87196,-2.18929 0.72975,0.72977 h 0.36489 l 1.09464,1.09464 -0.36489,0.36488 0.36489,-0.36488 0.72976,0.72977 v 0.72975 l -0.72976,0.72977 v 0.36487 l -1.09464,1.09465 v 0.36488 l -1.09464,1.09464 v 0.36488 l -1.09465,1.09465 h -0.36488 l -1.09465,1.09464 h -0.72975 l -1.09464,-1.09464 v -0.72977 l 0.36487,-0.36488 v -0.72976 l 0.36488,-0.36488 v -0.36488 l 0.36489,-0.36488 v -0.36488 l 0.36488,-0.36488 v -0.36489 l 0.36487,-0.36487 v -0.36488 l 0.36489,-0.36489 v -0.72975 l 0.36488,-0.36489 v -0.36488 l 0.36488,-0.36488 v -0.36488 l 0.36488,-0.36488 v -0.36488 l 0.36488,-0.36489 z M 200.68913,169.205 h 1.82441 l 0.36487,0.36488 -0.36487,0.36487 h -1.45952 l 0.72975,0.72977 v 0.72976 l -0.36488,0.36488 0.72977,0.72977 -0.36489,0.36487 h -0.36488 l -0.36487,-0.36487 h -0.36489 l -1.09464,-1.09465 v -0.72976 l 0.36488,-0.36488 v -0.36489 z m 455.00648,-2.18929 h 1.8244 l 0.36488,0.36488 -0.36488,0.36488 v 0.36489 l 0.36488,0.36487 v 1.82441 l -0.36488,0.36488 v 4.01369 l -0.36488,0.36488 -0.72976,-0.72977 v -0.36487 l -0.36489,-0.36488 v -0.72977 l -0.36487,-0.36487 v -0.36489 l -0.36488,-0.36488 v -0.36488 l -0.36489,-0.36488 v -0.36488 l 0.36489,-0.36488 0.36488,0.36488 h 0.72976 v -1.09464 l -0.36489,-0.36488 0.36489,-0.36489 v -0.72975 l 0.36488,-0.36489 h -0.72977 l -0.36487,0.36489 0.36487,0.36487 v 0.36488 l -0.36487,0.36489 v 0.36488 l -0.36488,0.36487 -0.36489,-0.36487 -0.36488,0.36487 -0.36488,-0.36487 V 169.205 l -0.36488,-0.36489 v -0.72975 l 0.72976,-0.72977 h 0.72977 z m 6.56785,-0.36489 0.36488,0.36489 h 1.82441 l 0.36487,0.36488 -0.36487,0.36488 h -1.82441 0.72976 l 0.36488,0.36489 v 1.82439 h 0.36489 v -1.45952 l 0.36488,-0.36487 v -0.36489 l 0.36487,-0.36488 0.36489,0.36488 v 0.72976 l 0.36488,0.36488 v 0.36489 l -0.36488,0.36488 v 0.72976 l -0.36489,0.36488 v 0.36488 l -0.36487,0.36488 v 0.36488 l -0.36488,0.36488 v 0.36489 l -0.36489,0.36487 v 0.36488 l -0.36488,0.36489 v 0.36488 l -0.36487,0.36487 v 0.36489 l -0.36489,0.36488 -0.36488,-0.36488 v -2.91905 l -0.36488,-0.36488 v -4.37857 z m 20.79821,-1.45952 0.72976,0.72977 v 0.36488 l 0.36489,0.36487 v 0.36489 l 0.36487,0.36488 -0.36487,0.36488 h -0.72977 l -0.36488,0.36489 v 0.36487 l -0.72976,0.72977 -0.36488,-0.36489 v -0.36488 l 0.36488,-0.36487 -0.36488,0.36487 h -0.36488 l -0.36488,-0.36487 0.72976,-0.72977 h 0.36488 l 0.36488,-0.36488 v -0.72976 l -0.36488,-0.36488 v -0.36489 l 0.36488,-0.36488 z m -63.12439,-1.8244 h 4.37857 l 0.36488,0.36488 v 1.45952 l -0.36488,0.72977 0.36488,-0.72977 0.72977,1.45952 0.36487,2.18929 1.09465,0.72977 h 1.45952 l 0.72976,-0.36488 0.72977,-3.28393 1.09464,-2.18929 4.37857,-0.36488 0.72976,0.72976 0.36488,2.91905 0.72976,2.18929 0.72976,0.36488 h 1.82441 l 0.72976,-0.72977 1.09464,-4.01368 0.72976,-1.09465 h 4.74345 l 0.36488,0.36488 v 2.18929 l 0.36489,0.36487 -2.18929,1.45954 -2.91905,2.91904 -1.8244,2.55417 -2.18928,4.37857 v 1.09464 l -0.72977,1.8244 v 1.82441 l -0.36488,0.36488 0.36488,6.20298 0.36488,0.36487 0.36489,2.55417 1.09464,1.8244 0.72976,2.18929 1.8244,2.55416 4.01369,4.0137 5.10833,2.91905 4.0137,1.09464 1.09464,0.72976 -0.36489,0.36488 v 1.8244 l 1.09465,1.82441 v 1.09464 l -1.09465,1.09464 -3.6488,1.09465 -1.09465,-1.09465 -0.36487,-1.09464 -1.45953,-1.82441 h -1.09465 l -1.09464,0.72977 0.72977,4.01369 -0.36488,0.36488 -2.91905,-2.55417 h -1.45952 l -1.09465,0.72976 v 1.09464 l 1.45952,4.0137 -2.18928,1.8244 h -1.45952 l -0.72977,-0.36488 0.72977,0.36488 -1.45952,0.72976 -0.36489,-0.36488 0.36489,-0.36488 -0.36489,0.36488 -1.8244,-2.55417 -1.82441,-1.45952 v -6.56786 l -1.09464,-2.91904 0.36488,-1.09464 -0.36488,0.36488 -0.72976,-1.45952 -2.55417,-3.28393 0.36488,-0.36489 -0.36488,0.36489 -1.8244,-1.82441 -4.37858,-2.55416 -2.18928,-0.72977 h -1.8244 l -0.36489,-0.36488 h -4.37857 l -0.36488,-0.36488 -0.36487,-2.18929 -0.72977,-1.45952 -1.09464,-1.09464 -1.09464,-0.36488 -1.09465,-1.45953 -1.09464,-5.47321 1.45952,-1.09464 3.28393,-3.64881 1.45953,-4.37857 v -2.91904 l -1.09464,-2.91905 0.36487,-0.36488 h 2.91906 l 0.36487,-0.36489 0.72977,-3.28393 z m -10.58155,0.36488 0.36488,-0.36488 h 3.64881 l 0.36488,0.36488 v 0.72976 l -0.36488,0.36489 h -1.09464 l 0.36488,0.36487 0.36488,-0.36487 h 0.36488 l 0.36488,-0.36489 0.36488,0.36489 v 1.45952 l 0.36489,0.36487 v 1.09465 l 0.36487,0.36489 v 0.72975 l -0.36487,0.36489 -0.36489,-0.36489 v -0.36488 l -0.36488,-0.36487 v -0.36489 l -1.09464,-1.09465 v -0.36487 l -1.45952,-1.45952 h -0.36489 l -0.72975,-0.72977 h -0.36489 z m -55.82677,-0.72976 h 3.64881 l 0.72976,0.36488 1.8244,5.47321 h 2.91905 l 0.36488,-0.36488 1.45952,-5.10833 h 4.74346 l 1.09464,4.01369 1.09464,1.45952 h 1.09464 l 1.8244,-5.47321 h 4.37857 l 1.09465,2.55417 0.36488,2.18929 0.72976,1.09464 h 2.55417 l 0.36488,-0.36489 1.09464,-4.37857 0.36488,-0.36488 h 1.45953 -1.45953 l -0.36488,-0.36488 0.36488,-0.36488 h 5.10834 l 0.36487,0.36488 0.36489,2.91904 0.72976,1.45954 v 1.09464 l -1.09465,2.91904 0.36489,5.47321 2.18929,4.0137 3.28393,2.91904 1.45952,5.10833 4.01368,9.12202 v 1.45953 l 1.82441,2.91904 -3.28393,5.47322 -0.72976,2.91905 v 5.10833 l 0.72976,2.55417 2.18928,4.37857 2.55417,2.91904 -0.72976,2.18929 -1.09464,1.45953 -1.09464,0.36487 -2.91905,-0.36487 -1.09465,-1.82441 -0.36487,-3.28393 -0.72977,-0.72977 h -2.18929 l -1.09464,2.18929 v 1.45953 l -1.09464,2.55416 h -4.37857 l -1.09464,-0.72976 -0.36488,-3.64881 -0.72977,-1.82441 1.82441,-2.55416 v -0.72976 l 1.09464,-1.8244 0.72977,-2.91905 v -4.37857 l -1.09464,-4.01369 -1.45953,-2.91905 -2.18929,-2.55416 0.36489,-0.36489 -0.36489,0.36489 -1.45952,-1.45953 0.36488,-0.36488 -0.36488,0.36488 -1.82441,-1.45952 -5.47321,-2.18929 -4.74345,-0.36488 -0.36488,0.36488 -3.64881,0.36488 -1.8244,-3.64881 -1.82441,-1.09464 h -1.09464 l -2.91905,-1.09464 H 548.7855 l -0.36488,-0.36488 v -8.02738 l 2.55417,-2.55417 2.18928,-5.10833 v -4.01369 l -1.45952,-3.28393 z m -85.38214,-0.36488 h 4.74346 l 2.18929,5.83809 2.91904,-0.36487 1.82441,-5.10834 3.28392,-0.36488 1.45952,0.72976 1.45953,5.10833 2.18928,0.36488 1.45953,-0.72975 1.45952,-4.74346 1.09464,-0.72976 10.58155,0.36488 1.09465,4.37857 1.09464,1.45952 h 1.8244 l 1.09464,-1.09464 0.36489,0.36489 -0.36489,-1.09465 1.45953,-4.01369 h 4.01368 l 0.72977,0.72976 1.09464,4.74345 1.09465,0.36488 1.45952,-0.36488 1.09464,-3.28393 1.09464,-1.45952 1.09464,0.72976 1.09465,-0.72976 h -2.18929 l -0.36488,-0.36488 0.36488,-0.36488 2.91905,0.36488 1.09464,4.74346 1.09465,0.72975 1.8244,-0.36488 2.18928,-5.47321 5.47321,0.36488 -4.01368,3.64881 -2.18928,4.74345 0.36487,5.83809 1.09465,2.55417 2.91905,3.28393 v 8.02738 l -1.45953,0.72976 -5.10833,0.72976 -2.55417,1.09464 -2.55417,4.0137 -2.55416,-0.72977 h -6.20298 l -3.6488,1.09465 -5.10834,3.28392 -2.18929,2.55417 -1.82439,3.28393 -1.09465,3.64881 0.36488,7.29761 1.82441,4.37857 1.45952,1.82441 -1.45952,0.72976 0.36488,0.36488 1.09464,-1.09464 2.91905,2.91904 -0.36489,0.36489 0.36489,0.36488 0.72976,-0.36488 0.36488,0.36488 -0.72976,1.82441 -4.74345,0.36487 -1.09464,-4.74345 -0.72977,-1.09464 -2.91905,0.36488 -2.18929,5.47321 h -4.01368 l -0.72976,-0.72976 -0.36488,-2.91904 4.01368,-4.37857 2.18929,-5.47322 -0.36488,-7.6625 -2.18929,-4.74345 -2.18928,-2.55417 -3.28393,-2.55416 -5.47321,-2.18929 h -6.93274 l -1.82441,0.72977 -2.91904,-4.37857 -8.39226,-1.82441 v -8.39226 l 2.18928,-1.8244 2.18929,-3.64881 0.72977,-3.64882 -0.36489,-3.28392 -1.09465,-2.18929 1.45954,-0.36488 z m -9.12202,0 0.36488,-0.36489 h 0.36489 l 0.36488,0.36489 h 1.8244 l 0.36488,0.36488 -0.36488,0.36488 0.36488,0.36488 v 0.72976 l -0.36488,0.36489 h -0.36488 l -1.09465,-1.09465 0.36489,-0.36488 h 0.36488 -0.72977 l -0.36487,0.36488 -0.36488,-0.36488 h -0.36489 l -0.36488,-0.36488 z m -78.08451,-0.36489 h 4.74346 l 1.8244,5.83811 3.28392,-0.36489 1.45953,-5.47322 h 4.01369 l 1.09464,0.72977 1.09464,4.01369 1.09465,1.45952 2.55417,-0.36487 1.45952,-5.10834 1.8244,-0.72977 h 2.18929 l 1.45952,0.72977 0.72976,3.6488 1.09464,1.82441 h 2.18929 l 0.72976,-0.72976 1.45952,-5.10833 h 4.74346 l 1.45952,3.64881 -0.36488,1.45952 0.36488,-0.36488 0.72977,1.09464 2.91904,-0.36487 1.45953,-5.47322 h 5.10832 l 1.09465,4.74345 0.72976,1.09464 2.91905,-0.36487 1.8244,-5.47322 h 3.28393 l 1.45953,2.91904 v 1.82441 l -1.82441,4.37857 v 4.37857 l 1.82441,4.37857 2.18928,2.55417 v 8.75714 l -4.74345,0.72976 -3.28393,1.09465 -1.45952,1.45952 -1.82441,3.28393 -1.45952,-0.72977 0.72976,-0.36488 -0.72976,0.36488 -8.02738,-0.36488 -3.28393,1.09465 -2.91905,1.45952 -4.37857,4.37857 -0.36488,-0.36488 0.36488,0.36488 -1.8244,2.91905 -1.45953,5.10833 v 3.64881 l 0.72977,3.28393 1.09464,2.18928 -0.36488,0.72976 0.36488,-0.36488 1.45952,2.18929 -1.09464,1.45952 -1.45952,5.10833 h -4.74345 l -1.09465,-2.55416 -0.36488,-2.91905 -1.45952,-1.09464 2.91905,-6.20298 0.36488,-6.20297 -2.18929,-5.83809 -3.6488,-4.37857 -2.55418,-1.82441 -5.47321,-2.18929 h -6.93273 l -2.18929,0.72977 -2.55416,-4.0137 -2.91905,-1.09464 -4.37858,-0.36488 -1.8244,-0.72976 0.36488,-8.39226 2.91905,-2.91905 1.8244,-4.01369 0.36488,0.72976 -0.36488,-0.72976 0.36488,-3.64881 -1.45952,-4.37857 3.28393,-0.72976 0.72976,-2.18929 0.36488,0.72977 -0.36488,-2.18929 z m -11.31131,0.36489 0.36489,-0.36489 h 4.37856 l 0.36489,0.36489 v 1.09464 l 0.36488,0.36488 v 1.09464 l 0.36488,0.36488 v 0.72977 l -0.36488,0.36487 -2.55417,-2.55416 h -0.36488 l -0.36488,-0.36488 h -0.36488 l -0.72976,-0.72976 h -0.72976 z m -13.50059,1.45952 0.36488,-0.36488 v -1.09464 l 0.36489,-0.36489 h 2.55416 l 0.36488,0.36489 -0.36488,0.36488 h -0.72976 l -0.36488,0.36488 -0.36488,-0.36488 h -0.72976 v 0.36488 l 0.36487,0.36488 -0.72975,0.72976 h -0.36489 z m -146.31723,-0.36488 v -1.45953 l 0.36488,-0.36487 h 1.45952 l 0.36488,0.36487 v 0.36489 l -0.72976,0.72976 h -0.36488 l -0.72976,0.72976 z m 75.16546,-1.8244 1.09464,-0.36488 3.64881,0.36488 2.18929,5.83809 2.91904,-0.36488 1.82441,-5.47321 h 4.74344 l 1.82441,5.83809 3.28393,-0.36488 1.45952,-5.47321 h 4.74346 l 2.18928,5.83809 2.91905,-0.36488 1.45953,-5.47321 h 4.74344 l 2.18929,6.20298 2.55416,-0.36489 1.09465,-2.55417 0.36488,-2.55416 1.09464,-0.72976 h 4.74346 l 0.72975,0.72976 1.45953,5.47322 2.55416,-0.36489 1.09465,-1.45952 0.36487,-2.55417 2.18929,-0.36488 0.36489,-0.36488 -0.72977,-0.36488 0.36488,-0.36489 h 5.8381 l 0.36488,0.36489 1.09464,4.74345 1.82441,1.09464 -1.09464,0.36488 0.72975,0.36489 -0.72975,2.18928 v 4.74345 l 1.82439,4.37857 2.18929,2.55417 v 8.75714 l -5.10833,0.72976 -4.01369,1.45952 -2.55416,4.0137 -2.91905,-0.72977 h -6.20298 l -2.91904,0.72977 -3.64881,1.8244 -3.28393,2.91905 -1.82441,2.18928 -1.8244,3.64881 -0.72976,2.91905 v 4.74345 l 0.72976,2.91905 2.55417,4.74345 -1.45953,0.72976 -1.8244,5.83809 h -4.74346 l -1.8244,-5.83809 -1.09464,-0.36489 0.72976,-0.72975 0.36488,0.36488 -0.36488,-0.36488 0.36488,-1.09464 1.09465,-0.36489 -0.36489,0.36489 -0.36488,-0.72977 1.82441,-4.01369 0.36488,-2.18928 -0.36488,-5.8381 0.36488,-0.72975 -0.36488,0.72975 -2.18929,-4.74345 -2.55417,-2.91905 0.36489,-0.36488 -0.36489,-0.36487 -0.36488,0.36487 -4.74344,-3.28392 -3.64882,-1.09465 h -6.93273 l -2.18929,0.72977 -2.18929,-4.0137 -2.55416,-1.09464 -6.93273,-1.09464 v -8.39226 l 2.55416,-2.18929 2.55416,-5.10833 -0.36487,-6.20298 -1.45953,-2.91904 -2.18928,-2.55417 z m -17.1494,-0.36488 0.72976,1.45952 -3.64882,3.28393 -1.45952,2.18928 -1.09464,5.83809 0.36488,2.55417 1.45953,3.28393 2.91904,3.28393 v 8.02738 l -0.36488,0.36488 h -5.83809 l -4.37857,1.09464 -2.55417,1.82441 -2.18928,3.64881 -2.55417,-1.09465 -3.64881,-0.36488 -3.28393,0.36488 -3.6488,1.09465 -4.37857,2.55416 -3.28393,3.64881 -0.36489,-0.36488 -0.36488,0.36488 0.36488,-0.36488 0.36489,0.72976 -1.82441,2.91905 -1.09464,4.01369 0.36488,5.47321 -1.45952,0.36488 -1.82441,2.55417 -1.8244,1.45952 -4.37857,-2.55416 1.8244,-4.74345 -1.09465,-1.45953 -1.45952,-0.36488 -2.91904,2.55416 -0.36489,-0.36487 -0.36487,0.36487 0.36487,0.36489 -1.09464,1.09464 -2.55416,-1.09464 -0.72977,-0.72976 0.36489,-0.36488 -0.36489,0.36488 -0.72975,-0.36488 1.8244,-5.47321 -1.45952,-1.45953 -1.09465,-0.36488 -4.74345,4.01369 -4.74345,-2.55417 1.09464,-1.09464 0.72976,-2.91905 -1.45952,-0.72976 0.36488,-0.36488 h 1.82441 l 2.91904,4.01369 1.45953,-0.36488 1.09464,-4.0137 2.55417,-1.45952 4.37857,2.91905 1.09464,-1.09464 -0.36488,-1.45953 0.36488,-3.6488 1.8244,-1.45953 h 1.45953 l 2.91904,1.09465 1.09464,-1.09465 v -0.72976 l -2.18928,-3.28393 0.72976,-2.18928 1.09464,-1.45952 3.64881,-0.72977 0.72977,-0.72976 v -1.09465 l -4.0137,-2.91904 v -2.55417 l 4.0137,-3.28392 -0.36488,-1.45953 -4.0137,-0.72976 -1.09464,-0.72976 -1.09464,-2.18929 2.55416,-3.6488 -1.09464,-2.18929 -1.8244,0.72976 h -3.64881 l -1.09464,-1.09465 0.72976,-4.74344 0.72976,-0.72977 5.10833,0.36489 1.82441,5.83809 3.28393,-0.36488 1.45952,-5.47321 h 5.10833 l 1.82441,5.83809 3.28393,-0.36488 1.45952,-5.47321 h 5.10833 l 1.8244,5.83809 h 2.91905 l 1.09465,-4.74345 0.72976,-1.09464 h 4.74345 l 1.45952,5.10832 1.09464,1.09465 h 1.82441 l 0.72976,-0.72976 1.09464,-4.74346 0.72976,-0.72975 z m -84.65238,-1.09464 0.36489,0.36487 v 0.36488 l 0.36488,0.36489 h 0.72976 l 0.36488,0.36488 -0.36488,0.36487 h -0.36488 l -1.09465,1.09465 -1.45952,-1.45952 z m 493.31898,-0.36489 0.36488,0.36489 h 0.36488 l 0.36488,0.36487 -0.36488,0.36488 0.36488,-0.36488 h 0.36488 l 0.72976,0.72977 -0.36488,0.36488 0.36488,-0.36488 0.72976,0.72975 h 0.36489 l 0.36487,0.36489 -1.09464,1.09464 h -0.36488 v 0.72976 l 0.72976,0.72976 -0.36488,0.36488 h -0.36488 l -1.09464,-1.09464 h -0.36488 l -2.55417,-2.55416 0.36489,-0.36488 h 0.36488 l 0.36487,-0.36489 v -0.36488 z m -489.30528,-2.18929 1.09464,-1.09464 h 0.36488 l 0.36489,0.36489 v 0.36488 h 0.72975 l 0.72977,-0.72977 1.09464,1.09464 v 0.36489 l -0.36488,0.36488 h -0.36489 l -0.36487,0.36488 h -0.36488 l -0.72977,0.72976 h -0.36487 l -0.36489,-0.36488 v -1.09464 h -1.09464 z m 477.26421,-1.8244 0.36487,-0.36488 h 1.45954 l 0.36487,0.36488 h 1.09465 l 0.36487,0.36488 h 1.09465 l 0.36488,0.36488 h 0.72976 l 0.36489,0.36489 h 0.72975 l 0.36489,0.36488 h 0.36488 l 0.36487,0.36487 -0.36487,0.36489 h -0.72977 l 0.72977,0.72976 -0.36488,0.36488 v 0.36488 l -0.36489,0.36488 h -0.72975 l -0.36489,-0.36488 h -0.36488 l -0.36488,-0.36488 0.36488,-0.36488 -0.36488,-0.36488 v -0.36488 l -0.36488,-0.36489 h -0.36488 l -0.36488,-0.36487 h -1.09464 l -0.36489,0.36487 h -2.18929 l -0.36487,-0.36487 0.36487,-0.36488 v -0.72977 z m -88.30118,-1.09464 0.36488,-0.36489 h 28.46071 l 0.36488,0.36489 h 54.00237 l 0.36489,0.36488 v 1.82441 l -0.72977,0.72975 h -0.72976 l -0.36488,-0.36487 v -1.09465 l -0.36488,-0.36488 h -2.55417 l -0.72976,0.36488 0.36488,0.36488 -0.36488,0.36489 h -0.72976 l -0.36488,-0.36489 0.36488,-0.36488 -0.36488,0.36488 h -0.72976 l -1.09465,-0.72976 h -4.74344 l -0.36489,-0.36488 0.36489,0.36488 -1.82441,1.45953 -0.72976,-1.45953 0.36488,-0.36488 -0.36488,0.36488 h -2.18929 l -0.72976,-0.36488 0.72976,0.36488 -0.72976,1.09465 h -4.37857 l -0.36488,-0.36489 v -0.72976 h -0.72976 l -0.36488,-0.36488 h -0.72977 l -1.45952,1.09464 h -0.36488 l -0.36488,-0.72976 h -2.55416 v 0.72976 l -0.36489,0.36489 h -4.01368 l -0.36489,-0.36489 v -0.72976 h -2.55417 l -0.36487,-0.36488 0.36487,0.36488 -0.72976,0.72976 -0.36488,-0.72976 h -2.91905 l -0.36488,0.72976 h -4.01369 l -0.36488,-0.72976 -0.72976,-0.36488 h -1.8244 l -0.72977,0.72976 -1.45952,-0.72976 h -1.09464 l -0.72976,0.36488 -0.36488,0.72976 h -4.74346 l -0.36488,-0.36488 v -0.72976 h -1.45952 l -0.36488,-0.36488 -1.09464,0.72976 h -0.72976 l -0.36488,-0.36488 -1.82441,0.36488 0.36488,0.36488 -0.36488,0.36488 h -5.10834 l -0.72975,-1.09464 h -1.82441 l -1.09464,0.72976 v 0.72977 l -0.36488,0.36488 -0.36489,-0.36488 v -1.09465 l -0.72975,-0.72976 h -1.82441 l -0.72977,1.09464 h -1.45952 l -0.36487,0.36488 h -2.91905 l -0.72977,-1.45952 h -1.09464 z M 202.51354,153.51511 V 153.88 l -0.36488,0.36488 h -1.45953 l -0.72976,0.72976 v 0.36488 l -0.72976,0.72976 h -1.82441 l -0.36488,0.36488 h -1.82441 l -0.36487,-0.36488 v -1.09464 l -0.36488,-0.36489 0.36488,-0.36487 h 0.36487 L 195.5808,153.88 h 1.45952 l 0.36488,-0.36489 h 4.01369 l 0.36488,-0.36488 h 0.36489 z m 0.72976,-0.36488 372.90827,1.82441 -1.45952,1.8244 h -3.64882 l -0.72975,-1.45952 -2.91905,1.09464 -1.45952,-1.09464 -2.18929,1.09464 -7.6625,-1.09464 -0.36487,1.82441 -1.09465,-1.82441 -2.55417,1.09464 h -4.37857 l -0.72976,-1.09464 -11.31131,1.09464 -2.91904,-1.09464 -1.09465,1.82441 -1.09464,-1.82441 -6.93274,1.09464 -1.45952,-1.45952 -2.18929,2.18929 -1.09464,-1.82441 -2.91904,1.09464 -4.37857,-1.09464 -1.09465,1.45952 -0.72976,-1.45952 h -9.12202 l -0.72977,1.45952 -2.18928,-1.8244 h -3.64881 l -1.45953,2.18929 -1.45952,-1.09465 h -5.83809 l -0.36488,-1.09464 -2.91905,1.09464 -0.72976,-1.09464 h -2.18929 l -0.36488,1.09464 h -5.10833 l -0.36488,-1.09464 -10.94643,1.09464 -2.55416,-1.09464 -1.09464,1.45952 -0.72977,-1.82441 -2.91905,1.82441 h -4.01368 l -1.09465,-1.82441 -2.91905,1.82441 -5.47321,-1.45952 -8.02738,0.36488 3.28393,0.72976 h -4.01369 l -0.36488,-1.09464 -3.28393,1.09464 -1.09464,-1.09464 -2.18929,1.09464 h -4.37857 l -0.72976,-1.09464 -11.31131,1.09464 -1.09464,-1.45953 -2.91905,1.09465 h -10.94642 l -1.82441,-1.09465 -1.45952,1.45953 h -4.37857 l 2.91904,-0.72976 -5.47321,-0.72977 -1.45952,1.09465 -1.82441,-1.09465 -1.45952,1.09465 h -8.02738 l -2.55417,-1.09465 -0.72976,1.09465 h -5.10833 l -0.36488,-1.09465 h -2.55416 l -1.09465,1.82441 -0.36488,-1.45952 -2.55417,-0.72976 -0.36488,1.45952 -7.29762,-1.45952 -1.45952,2.18928 -1.45953,-1.82441 -2.55416,1.09465 -20.43333,-1.09465 -0.72976,1.82441 -1.45952,-2.18928 -6.56786,1.45952 -1.09464,-1.45952 -2.55417,1.45952 -1.45952,-1.45952 -2.55417,1.09464 h -4.01369 l -0.36488,-1.09464 -10.58155,1.09464 -1.09464,-1.09464 -10.94643,0.72976 -0.72975,-1.09464 -2.55418,1.09464 -9.85178,-0.72976 -1.09465,1.09464 -1.09464,-1.09464 -6.56785,0.72976 -0.72976,-1.09464 -2.55417,1.09464 h -8.02738 l -0.36488,-1.09464 -11.67619,1.09464 -0.36488,-1.45953 h -2.55416 l -0.72977,1.09464 -3.28392,-0.72975 -1.45953,1.09464 z m 28.4607,-20.06844 -0.36487,-0.36488 h -0.72977 z m 437.4922,-18.24405 0.72976,-0.72976 h 0.36488 l 0.36489,-0.36489 h 1.45952 l 0.36487,0.36489 -0.36487,0.36488 h -0.72977 0.36489 l 0.36488,0.36488 v -0.36488 l 0.36487,-0.36488 0.36489,0.36488 v 0.72976 l 0.36488,0.36488 v 1.82441 l -0.36488,0.36488 -0.36489,-0.36488 h -2.18928 l -0.36488,-0.36489 h -1.09464 l -0.36488,-0.36488 v -0.36487 l 0.36488,-0.36489 v -0.36488 l 0.36488,-0.36488 z m -27.36607,-1.45952 0.72976,-0.72977 0.36488,0.36489 h 1.82441 l 0.36488,-0.36489 h 0.72976 l 1.09464,1.09464 -0.36487,0.36489 h -2.18929 l -0.36488,-0.36489 h -1.82441 z m 27.00119,-1.45952 1.09464,-1.09465 h 0.36488 l 0.36489,-0.36488 h 1.45952 l 0.36487,0.36488 -0.36487,0.36488 h -1.09465 1.09465 l 0.36487,-0.36488 h 0.36489 l 1.09464,1.09465 v 0.36487 l -0.36488,0.36488 -0.36488,-0.36488 h -0.36488 l -0.36489,-0.36487 h -2.55416 l -0.36488,0.36487 H 669.1962 Z M 60.574871,63.389545 h 0.729766 l 0.364883,0.364875 h 1.09464 l 0.364883,0.364883 h 1.459524 l 0.364874,0.364883 h 1.094649 l 0.729757,0.729757 v 0.364883 l 0.364883,0.364883 v 5.47321 l -0.364883,0.364883 v 0.364883 l -0.364883,0.364883 H 66.04809 l -0.364883,0.364874 h -1.09464 l -0.364883,0.364883 h -1.094641 l -0.364883,0.364883 h -2.554163 l -0.364883,-0.364883 0.364883,-0.364883 -0.364883,0.364883 -0.364883,-0.364883 v -0.364874 l -0.364883,-0.364883 v -0.729766 l -0.364874,-0.364874 v -4.743453 l 0.364874,-0.364883 v -0.729766 l 0.364883,-0.364874 0.364883,0.364874 -0.364883,-0.364874 v -0.364883 l 0.364883,-0.364883 0.364883,0.364883 -0.364883,-0.364883 z m -15.689875,0 h 6.567852 l 1.09465,1.094641 v 8.392256 l -0.729767,0.729766 h -0.364883 l -0.364874,0.364883 h -6.56786 l -0.729761,-0.729766 v -0.364883 l -0.364881,-0.364874 v -0.364883 l -0.364881,-0.364883 v -6.202976 l 0.364881,-0.364883 v -0.364874 z m 502.076104,-6.567859 0.36488,0.364883 v 1.094641 l 0.36488,0.364883 v 1.459523 l -0.36488,0.364883 h -0.36488 l -0.36488,-0.364883 v -2.919047 z m -189.0083,-18.608928 0.36488,0.364883 -0.36488,0.364883 h -2.18929 2.18929 l 0.36488,0.364883 0.36488,-0.364883 0.36488,0.364883 v 0.364874 l 0.36488,0.364884 v 1.459523 l 0.36488,0.364883 -0.72976,0.729757 h -0.36488 l -0.36488,0.364883 h -0.36488 l -0.72976,0.729766 h -0.36488 l -1.45953,1.459523 h -0.36488 l -0.36488,0.364874 -0.36489,-0.364874 v -5.473219 l 0.36489,-0.364874 v -0.364883 l 0.72976,-0.729766 h 0.72976 l 0.36488,-0.364874 h 0.36489 l 0.36488,0.364874 z m 77.71963,-12.405952 0.36488,-0.364874 h 13.86547 l 0.36488,0.364874 v 2.189289 l -0.36488,0.364884 h -13.86547 l -0.36488,-0.364884 z"
     fill="#000000"
     fill-rule="evenodd"
     id="path2"
     sodipodi:nodetypes="ccccccccccccccccccccccccccccccccccccccccccccccccccccccccccccccccccccccccccccccccccccccccccccccccccccccccccccccccccccccccccccccccccccccccccccccccccccccccccccccccccccccccccccccccccccccccccccccccccccccccccccccccccccccccccccccccccccccccccccccccccccccccccccccccccccccccccccccccccccccccccccccccccccccccccccccccccccccccccccccccccccccccccccccccccccccccccccccccccccccccccccccccccccccccccccccccccccccccccccccccccccccccccccccccccccccccccccccccccccccccccccccccccccccccccccccccccccccccccccccccccccccccccccccccccccccccccccccccccccccccccccccccccccccccccccccccccccccccccccccccccccccccccccccccccccccccccccccccccccccccccccccccccccccccccccccccccccccccccccccccccccccccccccccccccccccccccccccccccccccccccccccccccccccccccccccccccccccccccccccccccccccccccccccccccccccccccccccccccccccccccccccccccccccccccccccccccccccccccccccccccccccccccccccccccccccccccccccccccccccccccccccccccccccccccccccccccccccccccccccccccccccccccccccccccccccccccccccccccccccccccccccccccccccccccccccccccccccccccccccccccccccccccccccccccccccccccccccccccccccccccccccccccccccccccccccccccccccccccccccccccccccccccccccccccccccccccccccccccccccccccccccccccccccccccccccccccccccccccccccccccccccccccccccccccccccccccccccccccccccccccccccccccccccccccccccccccccccccccccccccccccccccccccccccccccccccccccccccccccccccccccccccccccccccccccccccccccccccccccccccccccccccccccccccccccccccccccccccccccccccccccccccccccccccccccccccccccccccccccccccccccccccccccccccccccccccccccccccccccccccccccccccccccccccccccccccccccccccccccccccccccccccccccccccccccccccccccccccccccccccccccccccccccccccccccccccccccccccccccccccccccccccccccccccccccccccccccccccccccccccccccccccccccccccccccccccccccccccccccccccccccccccccccccccccccccccccccccccccccccccccccccccccccccccccccccccccccccccccccccccccccccccccccccccccccccccccccccccccccccccccccccccccccccccccccccccccccccccccccccccccccccccccccccccccccccccccccccccccccccccccccccccccccccccccccccccccccccccccccccccccccccccccccccccccccccccccccccccccccccccccccccccccccccccccccccccccccccccccccccccccccccccccccccccccccccccccccccccccccccccccccccccccccccccccccccccccccccccccccccccccccccccccccccccccccccccccccccccccccccccccccccccccccccccccccccccccccccccccccccccccccccccccccccccccccccccccccccccccccccccccccccccccccccccccccccccccccccccccccccccccccccccccccccccccccccccccccccccccccccccccccccccccccccccccccccccccccccccccccccccccccccccccccccccccccccccccccccccccccccccccccccccccccccccccccccccccccccccccccccccccccccccccccccccccccccccccccccccccccccccccccccccccccccccccccccccccccccccccccccccccccccccccccccccccccccccccccccccccccccccccccccccccccccccccccccccccccccccccccccccccccccccccccccccccccccccccccccccccccccccccccccccccccccccccccccccccccccccccccccccccccccccccccccccccccccccccccccccccccccccccccccccccccccccccccccccccccccccccccccccccccccccccccccccccccccccccccccccccccccccccccccccccccccccccccccccccccccccccccccccccccccccccccccccccccccccccccccccccccccccccccccccccccccccccccccccccccccccccccccccccccccccccccccccccccccccccccccccccccccccccccccccccccccccccccccccccccccccccccccccccccccccccccccccccccccccccccccccccccccccccccccccccccccccccccccccccccccccccccccccccccccccccccccccccccccccccccccccccccccccccccccccccccccccccccccccccccccccccccccccccccccccccccccccccccccccccccccccccccccccccccccccccccccccccccccccccccccccccccccccccccccccccccccccccccccccccccccccccccccccccccccccccccccccccccccccccccccccccccccccccccccccccccccccccccccccccccccccccccccccccccccccccccccccccccccccccccccccccccccccccccccccccccccccccccccccccccccccccccccccccccccccccccccccccccccccccccccccccccccccccccccccccccccccccccccccccccccccccccccccccccccccccccccccccccccccccccccccccccccccccccccccccccccccccccccccccccccccccccccccccccccccccccccccccccccccccccccccccccccccccccccccccccccccccccccccccccccccccccccccccccccccccccccccccccccccccccccccccccccccccccccccccccccccccccccccccccccccccccccccccccccccccccccccccccccccccccccccccccccccccccccccccccccccccccccccccccccccccccccccccccccccccccccccccccccccccccccccccccccccccccccccccccccccccccccccccccccccccccccccccccccccccccccccccccccccccccccccccccccccccccccccccccccccccccccccccccccccccccccccccccccccccccccccccccccccccccccccccccccccccccccccccccccccccccccccccccccccccccccccccccccccccccccccccccccccccccccccccccccccccccccccccccccccccccccccccccccccccccccccccccccccccccccccccccccccccccccccccccccccccccccc"
     style="stroke-width:0.364881" />
</svg>
