<svg xmlns="http://www.w3.org/2000/svg" width="2172" height="724" viewBox="0 0 2172 724">
<rect width="100%" height="100%" fill="white"/>
<path d="M 1899,472 L 1883,422 L 1900,411 L 1892,365 L 1832,360 L 1830,333 L 1806,330 L 1780,349 L 1746,343 L 1736,332 L 1689,333 L 1676,311 L 1644,292 L 1631,295 L 1621,315 L 1479,285 L 1464,294 L 1460,284 L 1346,274 L 1412,237 L 1427,214 L 1423,152 L 1431,129 L 1372,109 L 1362,80 L 1350,106 L 1297,102 L 1290,93 L 1303,80 L 1278,76 L 1269,86 L 1282,97 L 1268,100 L 1234,60 L 1153,57 L 1112,60 L 1084,99 L 1042,100 L 1027,62 L 1024,94 L 1014,102 L 929,109 L 911,93 L 900,119 L 846,160 L 827,144 L 794,179 L 767,181 L 760,192 L 262,195 L 183,185 L 175,198 L 183,232 L 262,222 L 760,224 L 767,236 L 794,237 L 834,273 L 748,270 L 736,281 L 698,285 L 667,270 L 649,273 L 645,292 L 576,339 L 554,320 L 536,323 L 533,370 L 522,379 L 486,371 L 469,378 L 476,354 L 467,351 L 462,379 L 482,407 L 423,416 L 380,465 L 425,466 L 404,479 L 387,525 L 391,558 L 412,590 L 522,643 L 526,653 L 570,665 L 1620,665 L 1809,592 L 1836,541 L 1834,516 L 1818,494 L 1824,475 Z M 614,644 L 613,645 L 613,646 L 612,647 L 606,647 L 605,646 L 606,645 L 608,645 L 609,644 L 610,644 L 611,643 L 613,643 Z M 1004,643 L 1005,642 L 1006,643 L 1007,643 L 1008,644 L 1007,645 L 1006,645 L 1008,645 L 1009,644 L 1010,645 L 1013,645 L 1014,646 L 1013,647 L 1005,647 L 1004,646 Z M 844,643 L 845,642 L 846,642 L 847,643 L 848,643 L 849,644 L 850,644 L 851,645 L 854,645 L 855,646 L 854,647 L 846,647 L 845,646 L 845,644 Z M 1413,641 L 1414,640 L 1415,641 L 1416,641 L 1417,642 L 1418,642 L 1419,643 L 1420,643 L 1421,644 L 1420,645 L 1418,645 L 1417,644 L 1416,645 L 1417,644 L 1418,645 L 1420,645 L 1421,644 L 1422,644 L 1423,645 L 1425,645 L 1426,646 L 1425,647 L 1415,647 L 1414,646 L 1414,645 L 1413,644 Z M 1287,640 L 1288,639 L 1289,640 L 1290,640 L 1291,641 L 1292,641 L 1293,642 L 1294,642 L 1295,643 L 1294,644 L 1293,644 L 1292,645 L 1296,645 L 1297,644 L 1298,644 L 1299,645 L 1300,645 L 1301,646 L 1300,647 L 1289,647 L 1288,646 L 1288,645 L 1287,644 Z M 1630,639 L 1630,643 L 1629,644 L 1626,644 L 1625,645 L 1622,645 L 1621,646 L 1618,646 L 1617,645 L 1618,644 L 1620,644 L 1621,643 L 1622,643 L 1624,641 L 1625,641 L 1627,639 L 1628,639 L 1629,638 Z M 780,639 L 780,642 L 779,643 L 779,645 L 777,647 L 766,647 L 765,646 L 766,645 L 768,645 L 769,644 L 770,644 L 771,643 L 772,643 L 773,642 L 774,642 L 775,641 L 776,641 L 779,638 Z M 1351,637 L 1351,639 L 1350,640 L 1350,642 L 1349,643 L 1349,646 L 1348,647 L 1339,647 L 1338,646 L 1338,645 L 1339,644 L 1340,645 L 1347,645 L 1344,645 L 1343,644 L 1344,643 L 1343,644 L 1342,644 L 1341,643 L 1343,641 L 1344,641 L 1346,639 L 1347,639 L 1350,636 Z M 1194,636 L 1194,638 L 1193,639 L 1193,642 L 1192,643 L 1192,646 L 1191,647 L 1178,647 L 1177,646 L 1179,644 L 1180,644 L 1181,645 L 1188,645 L 1181,645 L 1180,644 L 1181,643 L 1182,643 L 1184,641 L 1185,641 L 1186,640 L 1187,640 L 1190,637 L 1191,637 L 1193,635 Z M 1146,633 L 1147,632 L 1149,632 L 1150,631 L 1153,631 L 1155,633 L 1155,634 L 1154,635 L 1150,635 L 1149,634 L 1147,634 Z M 1031,634 L 1031,633 L 1032,632 L 1034,632 L 1035,633 L 1034,632 L 1035,631 L 1037,631 L 1038,632 L 1039,632 L 1040,633 L 1039,634 L 1037,634 L 1036,635 L 1032,635 Z M 595,634 L 595,633 L 596,632 L 597,632 L 598,631 L 600,631 L 601,632 L 602,632 L 603,633 L 602,634 L 600,634 L 599,633 L 600,634 L 599,635 L 596,635 Z M 1426,632 L 1427,631 L 1428,631 L 1429,630 L 1431,630 L 1432,631 L 1431,632 L 1430,632 L 1431,632 L 1432,631 L 1434,631 L 1435,632 L 1434,633 L 1433,633 L 1432,634 L 1429,634 L 1428,633 L 1427,633 Z M 1168,631 L 1169,630 L 1171,630 L 1172,629 L 1173,629 L 1174,630 L 1173,631 L 1174,630 L 1176,630 L 1177,631 L 1176,632 L 1175,632 L 1174,633 L 1171,633 L 1170,632 L 1169,632 Z M 885,630 L 884,631 L 885,632 L 884,633 L 882,633 L 881,634 L 879,634 L 878,633 L 877,633 L 876,632 L 877,631 L 879,631 L 880,630 L 882,630 L 883,629 L 884,629 Z M 1138,629 L 1139,628 L 1140,628 L 1141,629 L 1140,628 L 1141,627 L 1142,627 L 1143,628 L 1144,628 L 1145,629 L 1146,629 L 1147,630 L 1149,630 L 1150,631 L 1149,632 L 1147,632 L 1146,633 L 1144,633 L 1143,632 L 1144,631 L 1145,631 L 1144,631 L 1143,632 L 1142,632 L 1141,631 L 1140,631 Z M 770,628 L 770,629 L 768,631 L 767,631 L 766,630 L 767,631 L 766,632 L 765,632 L 764,631 L 763,631 L 762,630 L 763,629 L 764,629 L 765,628 L 766,628 L 767,627 L 769,627 Z M 1618,626 L 1620,628 L 1620,629 L 1619,630 L 1618,630 L 1616,632 L 1614,632 L 1612,630 L 1613,629 L 1614,629 L 1615,630 L 1614,629 L 1616,627 L 1617,627 Z M 1294,628 L 1296,626 L 1298,626 L 1300,628 L 1301,628 L 1302,629 L 1303,629 L 1304,630 L 1306,630 L 1307,631 L 1310,631 L 1311,632 L 1312,632 L 1313,633 L 1313,634 L 1312,635 L 1310,635 L 1309,634 L 1305,634 L 1304,633 L 1305,632 L 1304,633 L 1302,633 L 1301,632 L 1300,632 L 1299,631 L 1298,631 L 1296,629 L 1295,629 Z M 1173,629 L 1175,627 L 1176,627 L 1177,626 L 1178,626 L 1179,627 L 1180,627 L 1181,628 L 1178,631 L 1177,631 L 1176,630 L 1174,630 Z M 1049,628 L 1049,629 L 1048,630 L 1047,630 L 1046,631 L 1045,631 L 1044,630 L 1043,630 L 1044,630 L 1045,631 L 1044,632 L 1043,632 L 1042,633 L 1040,633 L 1039,632 L 1038,632 L 1037,631 L 1038,630 L 1039,630 L 1040,629 L 1041,629 L 1042,628 L 1043,628 L 1044,627 L 1045,627 L 1046,626 L 1047,627 L 1048,627 Z M 1005,628 L 1007,626 L 1009,626 L 1010,627 L 1011,627 L 1013,629 L 1012,630 L 1013,629 L 1015,629 L 1016,630 L 1017,630 L 1018,631 L 1017,632 L 1018,631 L 1021,631 L 1023,633 L 1023,634 L 1022,635 L 1019,635 L 1018,634 L 1016,634 L 1015,633 L 1013,633 L 1012,632 L 1011,632 L 1010,631 L 1009,631 L 1007,629 L 1008,628 L 1007,629 L 1006,629 Z M 847,627 L 848,626 L 851,626 L 853,628 L 854,628 L 855,629 L 857,629 L 858,630 L 860,630 L 861,631 L 863,631 L 864,632 L 865,632 L 866,633 L 866,634 L 865,635 L 861,635 L 860,634 L 861,633 L 862,633 L 861,633 L 860,634 L 857,634 L 856,633 L 855,633 L 854,632 L 855,631 L 856,631 L 855,631 L 854,632 L 853,632 L 852,631 L 851,631 L 849,629 L 850,628 L 849,629 Z M 727,627 L 728,626 L 730,628 L 729,627 L 730,626 L 731,626 L 732,627 L 733,627 L 734,628 L 735,628 L 736,629 L 737,629 L 738,630 L 739,630 L 740,631 L 739,632 L 738,632 L 739,632 L 740,631 L 742,631 L 743,632 L 742,633 L 741,633 L 742,633 L 743,632 L 745,632 L 746,633 L 744,635 L 740,635 L 739,634 L 737,634 L 736,633 L 735,633 L 734,632 L 735,631 L 736,631 L 735,631 L 734,632 L 733,632 L 732,631 L 731,631 L 730,630 L 729,630 L 727,628 Z M 568,628 L 570,626 L 572,626 L 573,627 L 574,627 L 576,629 L 575,630 L 576,629 L 577,629 L 578,630 L 580,630 L 581,631 L 583,631 L 584,632 L 583,633 L 582,633 L 583,633 L 584,632 L 586,632 L 587,633 L 587,634 L 586,635 L 581,635 L 580,634 L 579,634 L 578,633 L 576,633 L 575,632 L 574,632 L 573,631 L 572,631 L 570,629 L 569,629 Z M 1577,627 L 1579,625 L 1580,626 L 1581,626 L 1583,628 L 1584,628 L 1585,629 L 1587,629 L 1588,630 L 1589,630 L 1590,631 L 1589,632 L 1588,632 L 1589,632 L 1590,633 L 1589,634 L 1586,634 L 1585,633 L 1584,633 L 1583,632 L 1582,632 L 1581,631 L 1580,631 L 1577,628 Z M 1419,628 L 1420,627 L 1420,626 L 1421,625 L 1422,626 L 1423,626 L 1424,627 L 1425,627 L 1427,629 L 1426,630 L 1425,630 L 1424,631 L 1423,631 L 1422,630 L 1421,630 Z M 1468,641 L 1472,637 L 1473,637 L 1479,631 L 1479,630 L 1482,627 L 1482,626 L 1484,624 L 1484,623 L 1486,620 L 1486,618 L 1487,617 L 1487,615 L 1488,614 L 1488,611 L 1489,610 L 1489,605 L 1490,604 L 1494,604 L 1495,603 L 1498,603 L 1500,606 L 1506,606 L 1508,604 L 1509,605 L 1534,605 L 1535,606 L 1540,606 L 1543,603 L 1546,603 L 1547,604 L 1551,604 L 1552,605 L 1552,611 L 1553,612 L 1553,615 L 1554,616 L 1554,618 L 1555,619 L 1555,620 L 1556,621 L 1556,622 L 1557,623 L 1557,624 L 1558,625 L 1559,628 L 1562,631 L 1562,632 L 1567,637 L 1567,640 L 1566,641 L 1566,644 L 1564,647 L 1552,647 L 1551,646 L 1551,643 L 1550,642 L 1550,638 L 1549,637 L 1549,635 L 1548,635 L 1547,634 L 1542,634 L 1541,635 L 1540,635 L 1540,637 L 1539,638 L 1539,642 L 1538,643 L 1538,646 L 1537,647 L 1524,647 L 1523,646 L 1523,642 L 1522,641 L 1522,638 L 1521,637 L 1521,635 L 1520,634 L 1513,634 L 1513,635 L 1512,636 L 1512,639 L 1511,640 L 1511,642 L 1510,643 L 1510,646 L 1509,647 L 1497,647 L 1496,646 L 1496,644 L 1495,643 L 1495,640 L 1494,639 L 1494,636 L 1492,634 L 1486,634 L 1485,635 L 1485,637 L 1484,638 L 1484,641 L 1483,642 L 1483,645 L 1481,647 L 1469,647 L 1468,646 L 1469,645 L 1468,644 Z M 1281,633 L 1280,634 L 1278,634 L 1277,635 L 1277,637 L 1276,638 L 1276,640 L 1275,641 L 1275,645 L 1273,647 L 1262,647 L 1260,645 L 1260,641 L 1259,640 L 1259,637 L 1257,634 L 1251,634 L 1250,635 L 1250,637 L 1249,638 L 1249,641 L 1248,642 L 1248,644 L 1246,647 L 1234,647 L 1233,646 L 1233,643 L 1232,642 L 1232,639 L 1231,638 L 1231,635 L 1230,634 L 1224,634 L 1223,635 L 1222,635 L 1222,637 L 1221,638 L 1221,640 L 1220,641 L 1220,644 L 1218,647 L 1206,647 L 1205,646 L 1205,643 L 1204,642 L 1204,639 L 1203,638 L 1203,635 L 1202,634 L 1196,634 L 1195,633 L 1197,631 L 1198,632 L 1200,632 L 1198,632 L 1197,631 L 1197,630 L 1200,627 L 1200,626 L 1202,624 L 1202,623 L 1203,622 L 1203,620 L 1205,617 L 1205,614 L 1206,613 L 1206,610 L 1207,609 L 1207,605 L 1208,604 L 1210,604 L 1211,605 L 1214,605 L 1215,604 L 1217,606 L 1223,606 L 1224,605 L 1249,605 L 1250,604 L 1252,606 L 1258,606 L 1260,603 L 1263,603 L 1264,604 L 1263,605 L 1264,604 L 1269,604 L 1270,605 L 1270,613 L 1271,614 L 1271,616 L 1272,617 L 1272,619 L 1273,620 L 1273,621 L 1274,622 L 1274,623 L 1275,624 L 1275,625 L 1277,627 L 1277,628 L 1279,630 L 1279,631 Z M 896,641 L 897,640 L 898,640 L 902,636 L 903,636 L 904,635 L 904,634 L 909,629 L 909,628 L 913,623 L 913,621 L 915,618 L 915,616 L 916,615 L 916,612 L 917,611 L 917,607 L 918,606 L 917,605 L 918,604 L 921,604 L 922,603 L 925,603 L 927,605 L 927,606 L 934,606 L 936,604 L 937,604 L 938,605 L 961,605 L 962,606 L 968,606 L 971,603 L 974,603 L 975,604 L 979,604 L 980,605 L 980,609 L 981,610 L 981,614 L 982,615 L 982,617 L 983,618 L 983,620 L 984,621 L 985,624 L 989,629 L 989,630 L 994,635 L 994,638 L 993,639 L 993,642 L 992,643 L 992,645 L 991,646 L 990,645 L 990,644 L 989,645 L 981,645 L 990,645 L 991,646 L 990,647 L 979,647 L 978,646 L 978,644 L 977,643 L 977,639 L 976,638 L 976,635 L 975,635 L 974,634 L 968,634 L 967,635 L 967,638 L 966,639 L 966,642 L 965,643 L 965,646 L 964,647 L 953,647 L 951,644 L 951,640 L 950,639 L 950,637 L 948,634 L 942,634 L 941,635 L 941,638 L 940,639 L 940,642 L 939,643 L 939,646 L 938,647 L 926,647 L 924,644 L 924,640 L 923,639 L 923,637 L 921,634 L 919,634 L 918,635 L 914,635 L 914,637 L 913,638 L 913,641 L 912,642 L 912,644 L 910,647 L 898,647 L 897,646 L 897,642 Z M 624,636 L 625,635 L 625,634 L 629,630 L 629,629 L 632,626 L 632,625 L 633,624 L 633,623 L 635,620 L 635,618 L 636,617 L 636,615 L 637,614 L 637,612 L 638,611 L 638,605 L 639,604 L 643,604 L 644,603 L 647,603 L 649,606 L 656,606 L 658,604 L 659,604 L 660,605 L 684,605 L 685,606 L 691,606 L 693,603 L 696,603 L 697,604 L 701,604 L 702,605 L 702,611 L 703,612 L 703,615 L 704,616 L 704,618 L 705,619 L 705,620 L 706,621 L 706,622 L 707,623 L 708,626 L 710,628 L 710,629 L 713,632 L 713,633 L 715,635 L 716,635 L 721,640 L 720,641 L 720,644 L 718,647 L 706,647 L 705,646 L 705,642 L 704,641 L 704,638 L 703,637 L 703,635 L 701,635 L 700,634 L 696,634 L 694,637 L 694,639 L 693,640 L 693,643 L 692,644 L 692,646 L 691,647 L 679,647 L 678,646 L 678,644 L 677,643 L 677,640 L 676,639 L 676,636 L 674,634 L 668,634 L 666,637 L 666,641 L 665,642 L 665,644 L 663,647 L 651,647 L 650,646 L 650,644 L 649,643 L 649,639 L 648,638 L 648,635 L 647,635 L 646,634 L 642,634 L 641,635 L 640,635 L 640,638 L 639,639 L 639,642 L 638,643 L 638,644 L 636,647 L 627,647 L 626,646 L 626,643 L 625,642 L 625,638 L 624,637 Z M 462,589 L 456,595 L 455,594 L 454,594 L 453,593 L 454,592 L 455,592 L 459,588 L 461,588 Z M 1547,589 L 1549,587 L 1550,587 L 1551,588 L 1552,587 L 1553,588 L 1553,591 L 1552,592 L 1549,592 L 1547,590 Z M 697,590 L 697,588 L 698,587 L 703,587 L 704,588 L 704,589 L 703,590 L 703,591 L 702,592 L 699,592 Z M 437,576 L 439,578 L 440,578 L 441,579 L 442,579 L 443,580 L 443,585 L 442,586 L 441,585 L 441,583 L 438,580 L 436,580 L 435,579 L 436,578 L 436,577 Z M 1550,574 L 1551,573 L 1551,565 L 1552,564 L 1560,564 L 1561,565 L 1565,565 L 1567,567 L 1560,574 L 1560,575 L 1558,577 L 1557,576 L 1553,576 L 1552,575 L 1551,575 Z M 624,567 L 625,566 L 627,566 L 628,565 L 632,565 L 633,564 L 637,564 L 638,565 L 638,566 L 639,567 L 639,568 L 638,569 L 638,573 L 639,574 L 638,575 L 636,575 L 635,576 L 631,576 L 628,573 L 628,572 L 624,568 Z M 1489,566 L 1489,568 L 1488,569 L 1488,572 L 1487,573 L 1486,572 L 1486,570 L 1486,572 L 1485,573 L 1484,572 L 1483,573 L 1483,574 L 1484,574 L 1485,575 L 1484,576 L 1482,576 L 1479,573 L 1479,572 L 1475,568 L 1474,568 L 1473,567 L 1475,565 L 1480,565 L 1481,564 L 1486,564 L 1487,563 L 1488,564 L 1488,565 Z M 1269,574 L 1269,573 L 1270,572 L 1270,569 L 1269,568 L 1269,564 L 1270,563 L 1271,563 L 1272,564 L 1279,564 L 1280,565 L 1284,565 L 1285,566 L 1285,567 L 1280,572 L 1280,573 L 1278,575 L 1278,576 L 1277,577 L 1276,577 L 1275,576 L 1273,576 L 1272,575 L 1270,575 Z M 1205,563 L 1206,564 L 1206,574 L 1205,575 L 1203,575 L 1202,576 L 1199,576 L 1198,575 L 1198,574 L 1194,570 L 1194,569 L 1192,567 L 1193,566 L 1194,566 L 1195,565 L 1199,565 L 1200,564 L 1204,564 Z M 980,574 L 980,564 L 981,563 L 982,564 L 992,564 L 993,565 L 995,565 L 996,566 L 996,567 L 991,572 L 991,573 L 989,575 L 989,576 L 988,577 L 987,577 L 986,576 L 983,576 L 982,575 L 981,575 Z M 917,574 L 916,575 L 914,575 L 913,576 L 910,576 L 908,574 L 908,573 L 902,567 L 903,566 L 904,566 L 905,565 L 909,565 L 910,564 L 915,564 L 916,563 L 917,564 Z M 701,574 L 701,572 L 702,571 L 702,569 L 701,568 L 701,564 L 702,563 L 703,564 L 711,564 L 712,565 L 716,565 L 718,567 L 717,568 L 716,568 L 714,570 L 714,571 L 710,575 L 710,576 L 709,577 L 708,576 L 704,576 L 703,575 L 702,575 Z M 1713,564 L 1715,562 L 1716,562 L 1718,560 L 1719,560 L 1721,558 L 1722,558 L 1723,557 L 1724,557 L 1727,554 L 1729,554 L 1732,557 L 1733,557 L 1734,558 L 1735,558 L 1736,559 L 1737,559 L 1738,560 L 1741,560 L 1743,562 L 1743,563 L 1744,564 L 1744,578 L 1742,580 L 1741,579 L 1737,579 L 1736,580 L 1733,580 L 1732,579 L 1730,579 L 1729,578 L 1728,578 L 1727,577 L 1726,577 L 1725,576 L 1726,575 L 1725,576 L 1724,576 L 1723,575 L 1722,575 L 1720,573 L 1721,572 L 1720,573 L 1719,572 L 1718,572 L 1715,569 L 1716,568 L 1715,569 L 1712,566 L 1713,565 Z M 1788,565 L 1779,574 L 1778,574 L 1777,575 L 1776,575 L 1775,576 L 1774,576 L 1773,577 L 1772,577 L 1771,578 L 1770,578 L 1769,579 L 1767,579 L 1765,577 L 1762,577 L 1761,578 L 1760,578 L 1759,579 L 1759,580 L 1757,582 L 1756,581 L 1756,580 L 1754,578 L 1754,564 L 1755,563 L 1755,562 L 1756,561 L 1757,561 L 1758,560 L 1759,560 L 1760,559 L 1762,559 L 1763,558 L 1764,558 L 1766,556 L 1767,556 L 1770,553 L 1771,553 L 1772,554 L 1773,554 L 1774,555 L 1775,555 L 1777,557 L 1778,557 L 1780,559 L 1781,559 L 1783,561 L 1784,561 Z M 1702,519 L 1703,520 L 1707,520 L 1708,519 L 1709,519 L 1710,520 L 1711,520 L 1712,521 L 1713,521 L 1715,523 L 1716,523 L 1717,524 L 1718,524 L 1720,526 L 1720,541 L 1721,542 L 1721,543 L 1715,549 L 1714,549 L 1712,551 L 1711,551 L 1710,552 L 1709,552 L 1708,553 L 1707,553 L 1706,554 L 1704,554 L 1703,553 L 1703,551 L 1702,550 L 1702,548 L 1701,547 L 1701,546 L 1700,545 L 1700,540 L 1699,539 L 1699,528 L 1700,527 L 1700,523 L 1701,522 L 1701,520 Z M 1794,517 L 1796,517 L 1797,518 L 1797,519 L 1798,520 L 1798,522 L 1799,523 L 1799,530 L 1800,531 L 1800,539 L 1799,540 L 1799,543 L 1798,544 L 1798,547 L 1797,548 L 1797,550 L 1796,551 L 1796,552 L 1795,553 L 1792,553 L 1791,552 L 1790,552 L 1789,551 L 1788,551 L 1787,550 L 1786,550 L 1784,548 L 1783,548 L 1781,546 L 1780,546 L 1778,544 L 1778,540 L 1779,539 L 1779,530 L 1778,529 L 1778,526 L 1780,524 L 1781,524 L 1782,523 L 1783,523 L 1785,521 L 1786,521 L 1787,520 L 1788,520 L 1789,519 L 1790,519 L 1791,518 L 1793,518 Z M 1013,514 L 1013,512 L 1014,511 L 1014,510 L 1015,509 L 1016,510 L 1018,510 L 1019,511 L 1019,512 L 1018,513 L 1017,513 L 1015,515 L 1014,515 Z M 736,514 L 736,510 L 737,509 L 742,509 L 743,510 L 743,511 L 741,513 L 740,513 L 738,515 L 737,515 Z M 1590,508 L 1592,510 L 1592,511 L 1591,512 L 1590,512 L 1586,516 L 1585,515 L 1585,514 L 1584,513 L 1585,512 L 1585,511 L 1587,509 L 1588,509 L 1589,508 Z M 1309,508 L 1310,509 L 1310,511 L 1306,515 L 1305,515 L 1304,516 L 1303,515 L 1303,511 L 1304,510 L 1304,509 L 1305,508 Z M 1755,489 L 1757,487 L 1763,487 L 1764,488 L 1765,488 L 1767,490 L 1767,493 L 1768,494 L 1770,494 L 1771,495 L 1773,495 L 1775,493 L 1776,493 L 1777,494 L 1778,494 L 1779,495 L 1780,495 L 1789,504 L 1789,505 L 1786,508 L 1785,508 L 1783,510 L 1782,510 L 1781,511 L 1780,511 L 1779,512 L 1778,512 L 1777,513 L 1776,513 L 1775,514 L 1774,514 L 1773,515 L 1771,515 L 1766,510 L 1765,510 L 1764,509 L 1763,509 L 1762,508 L 1760,508 L 1759,507 L 1757,507 L 1755,505 L 1755,504 L 1754,503 L 1754,494 L 1755,493 Z M 1743,488 L 1743,492 L 1744,493 L 1744,502 L 1743,503 L 1743,506 L 1742,507 L 1740,507 L 1739,508 L 1737,508 L 1736,509 L 1735,509 L 1734,510 L 1733,510 L 1732,511 L 1731,511 L 1727,515 L 1726,515 L 1725,514 L 1723,514 L 1722,513 L 1721,513 L 1719,511 L 1718,511 L 1715,508 L 1714,508 L 1711,505 L 1711,503 L 1715,499 L 1716,500 L 1715,499 L 1718,496 L 1719,496 L 1721,494 L 1722,494 L 1724,492 L 1725,492 L 1726,491 L 1727,491 L 1728,490 L 1729,490 L 1730,489 L 1732,489 L 1733,488 L 1736,488 L 1737,489 L 1741,489 L 1737,489 L 1736,488 L 1737,487 L 1742,487 Z M 690,486 L 691,485 L 692,486 L 700,486 L 701,487 L 700,488 L 701,489 L 701,494 L 700,495 L 691,495 L 690,494 Z M 1275,483 L 1279,483 L 1280,484 L 1280,494 L 1279,495 L 1275,495 L 1274,494 L 1274,484 Z M 1472,482 L 1473,482 L 1475,484 L 1476,484 L 1477,483 L 1479,485 L 1480,485 L 1481,486 L 1481,493 L 1479,495 L 1477,495 L 1476,494 L 1477,493 L 1477,492 L 1476,491 L 1477,490 L 1477,489 L 1476,488 L 1475,489 L 1475,492 L 1474,493 L 1475,494 L 1476,494 L 1477,495 L 1476,496 L 1472,496 L 1471,495 L 1471,488 L 1470,487 L 1470,484 Z M 1189,481 L 1196,481 L 1197,482 L 1196,483 L 1190,483 L 1196,483 L 1197,482 L 1198,482 L 1199,483 L 1199,488 L 1198,489 L 1198,494 L 1197,495 L 1190,495 L 1189,494 L 1189,493 L 1188,492 L 1188,482 Z M 981,481 L 983,481 L 984,482 L 987,482 L 988,481 L 989,482 L 989,487 L 990,488 L 990,492 L 989,493 L 989,494 L 988,495 L 981,495 L 980,494 L 980,482 Z M 900,482 L 901,482 L 902,481 L 905,481 L 906,482 L 909,482 L 910,483 L 910,493 L 908,495 L 902,495 L 901,494 L 901,493 L 900,492 L 900,488 L 899,487 L 899,483 Z M 705,481 L 709,481 L 711,483 L 711,494 L 710,495 L 705,495 L 704,494 L 704,488 L 703,487 L 703,483 L 704,482 L 707,485 L 707,486 L 707,485 L 708,484 L 708,483 L 705,483 L 704,482 Z M 622,481 L 629,481 L 630,482 L 629,483 L 624,483 L 629,483 L 630,482 L 632,484 L 631,485 L 631,493 L 629,495 L 627,495 L 626,494 L 627,493 L 627,490 L 629,488 L 629,487 L 629,488 L 628,489 L 627,488 L 627,487 L 626,486 L 626,487 L 625,488 L 625,490 L 626,491 L 626,492 L 625,493 L 626,494 L 625,495 L 622,495 L 621,494 L 621,485 L 620,484 L 621,483 L 621,482 Z M 1552,480 L 1555,480 L 1557,482 L 1559,482 L 1560,483 L 1559,484 L 1560,485 L 1560,494 L 1559,495 L 1552,495 L 1551,494 L 1551,492 L 1550,491 L 1550,485 L 1551,484 L 1551,481 Z M 1284,485 L 1285,484 L 1286,485 L 1286,486 L 1287,487 L 1292,487 L 1293,486 L 1294,486 L 1295,485 L 1295,481 L 1296,480 L 1297,481 L 1297,490 L 1299,492 L 1300,492 L 1301,493 L 1302,493 L 1303,494 L 1303,495 L 1304,496 L 1303,497 L 1292,497 L 1290,495 L 1286,495 L 1285,494 L 1285,488 L 1284,487 Z M 1322,484 L 1323,483 L 1323,481 L 1324,480 L 1325,481 L 1328,481 L 1327,481 L 1326,480 L 1327,479 L 1331,479 L 1332,480 L 1333,480 L 1335,482 L 1335,485 L 1334,486 L 1333,485 L 1323,485 Z M 740,483 L 741,482 L 742,482 L 743,481 L 742,480 L 743,479 L 744,479 L 746,481 L 746,483 L 747,484 L 746,485 L 743,485 L 742,484 L 741,484 Z M 1601,479 L 1602,478 L 1606,478 L 1607,479 L 1607,482 L 1608,483 L 1607,484 L 1603,484 L 1602,483 L 1602,482 L 1601,481 L 1602,480 L 1604,480 L 1602,480 Z M 1593,483 L 1593,479 L 1594,478 L 1597,478 L 1598,479 L 1601,479 L 1602,480 L 1601,481 L 1598,481 L 1598,482 L 1596,484 L 1594,484 Z M 1314,484 L 1313,485 L 1303,485 L 1302,484 L 1302,483 L 1303,482 L 1303,481 L 1304,480 L 1305,480 L 1306,479 L 1310,479 L 1311,478 L 1312,479 L 1312,480 L 1313,481 L 1313,483 Z M 754,478 L 755,479 L 755,480 L 756,481 L 756,482 L 757,483 L 757,484 L 756,485 L 753,485 L 752,484 L 753,483 L 753,479 Z M 432,482 L 433,481 L 433,480 L 435,478 L 436,478 L 437,479 L 439,479 L 440,480 L 441,479 L 442,479 L 443,480 L 439,484 L 438,484 L 437,485 L 436,485 L 434,483 L 433,483 Z M 974,476 L 975,477 L 975,481 L 976,482 L 976,483 L 977,484 L 977,494 L 976,495 L 971,495 L 970,494 L 970,487 L 971,486 L 971,484 L 972,483 L 972,481 L 973,480 L 973,477 Z M 1554,545 L 1564,540 L 1569,536 L 1573,535 L 1583,527 L 1584,528 L 1583,527 L 1592,519 L 1595,514 L 1600,513 L 1610,504 L 1620,488 L 1623,486 L 1623,481 L 1622,478 L 1619,475 L 1620,474 L 1632,474 L 1636,486 L 1644,486 L 1648,474 L 1661,474 L 1663,478 L 1664,486 L 1673,486 L 1676,474 L 1688,474 L 1690,477 L 1690,481 L 1692,486 L 1700,486 L 1704,474 L 1715,474 L 1717,477 L 1717,480 L 1708,486 L 1705,485 L 1708,486 L 1695,500 L 1688,513 L 1685,524 L 1685,542 L 1691,560 L 1690,562 L 1691,561 L 1699,573 L 1706,580 L 1714,586 L 1730,593 L 1732,595 L 1734,603 L 1732,604 L 1731,603 L 1732,602 L 1731,605 L 1721,609 L 1720,607 L 1723,606 L 1720,607 L 1713,598 L 1707,600 L 1707,612 L 1708,613 L 1700,617 L 1697,616 L 1699,615 L 1695,615 L 1698,617 L 1695,618 L 1688,608 L 1684,609 L 1681,611 L 1680,614 L 1682,623 L 1680,625 L 1669,629 L 1666,627 L 1662,619 L 1658,619 L 1654,621 L 1655,633 L 1653,635 L 1643,639 L 1637,629 L 1640,626 L 1644,618 L 1647,607 L 1647,598 L 1645,587 L 1639,575 L 1628,564 L 1617,558 L 1605,555 L 1594,555 L 1593,556 L 1588,556 L 1578,560 L 1576,558 L 1572,548 L 1570,548 L 1567,545 L 1565,545 L 1563,548 L 1562,547 L 1555,547 Z M 1571,474 L 1579,474 L 1580,475 L 1580,478 L 1581,478 L 1582,479 L 1579,482 L 1579,487 L 1578,488 L 1578,490 L 1580,492 L 1584,492 L 1585,493 L 1585,495 L 1586,496 L 1585,497 L 1575,497 L 1573,495 L 1567,495 L 1566,494 L 1566,493 L 1565,492 L 1565,490 L 1566,489 L 1565,488 L 1567,486 L 1568,486 L 1568,482 L 1569,481 L 1569,477 L 1570,476 L 1570,475 Z M 1547,474 L 1548,475 L 1547,476 L 1547,477 L 1546,478 L 1546,494 L 1545,495 L 1539,495 L 1538,494 L 1538,487 L 1540,485 L 1540,482 L 1541,481 L 1541,479 L 1542,478 L 1542,477 L 1543,476 L 1543,475 L 1544,474 Z M 1515,474 L 1527,474 L 1528,475 L 1528,478 L 1529,479 L 1529,481 L 1530,482 L 1530,486 L 1532,486 L 1533,487 L 1533,494 L 1532,495 L 1510,495 L 1509,494 L 1509,487 L 1510,486 L 1512,486 L 1512,484 L 1513,483 L 1513,480 L 1514,479 L 1514,477 L 1515,476 L 1524,476 L 1515,476 L 1514,475 Z M 1489,474 L 1500,474 L 1501,475 L 1501,477 L 1502,478 L 1502,480 L 1503,481 L 1503,484 L 1504,485 L 1504,486 L 1505,487 L 1505,490 L 1504,491 L 1504,494 L 1503,495 L 1499,495 L 1498,496 L 1487,496 L 1486,495 L 1486,486 L 1487,485 L 1487,480 L 1488,479 L 1488,475 Z M 1466,474 L 1467,475 L 1465,477 L 1466,483 L 1465,534 L 1486,546 L 1485,547 L 1480,546 L 1481,547 L 1480,548 L 1476,548 L 1472,546 L 1469,549 L 1467,555 L 1463,560 L 1447,555 L 1429,556 L 1417,561 L 1411,565 L 1402,574 L 1396,585 L 1393,597 L 1394,612 L 1399,625 L 1405,633 L 1403,636 L 1400,647 L 1389,647 L 1387,644 L 1386,636 L 1384,634 L 1378,634 L 1376,636 L 1375,644 L 1373,647 L 1363,647 L 1359,634 L 1353,633 L 1359,625 L 1363,616 L 1365,608 L 1365,595 L 1362,586 L 1363,583 L 1362,584 L 1357,575 L 1350,567 L 1335,558 L 1323,555 L 1312,555 L 1302,557 L 1299,559 L 1297,557 L 1296,560 L 1289,548 L 1287,548 L 1283,544 L 1281,547 L 1278,547 L 1277,546 L 1278,545 L 1274,544 L 1295,532 L 1314,513 L 1317,513 L 1324,508 L 1329,503 L 1341,484 L 1342,486 L 1350,486 L 1352,477 L 1354,474 L 1366,474 L 1370,486 L 1378,486 L 1379,480 L 1382,474 L 1393,474 L 1395,477 L 1395,481 L 1397,486 L 1405,486 L 1409,474 L 1421,474 L 1424,486 L 1432,486 L 1432,483 L 1436,474 L 1447,474 L 1449,477 L 1451,486 L 1458,486 L 1461,475 Z M 1296,480 L 1296,478 L 1297,477 L 1297,475 L 1298,474 L 1304,474 L 1305,475 L 1304,476 L 1302,476 L 1297,481 Z M 1270,474 L 1271,475 L 1271,482 L 1270,483 L 1270,489 L 1269,490 L 1269,494 L 1268,495 L 1267,495 L 1266,496 L 1261,496 L 1260,495 L 1257,495 L 1256,496 L 1255,495 L 1255,486 L 1256,485 L 1257,486 L 1263,486 L 1264,485 L 1264,483 L 1266,481 L 1266,478 L 1267,477 L 1267,475 L 1268,474 Z M 1247,474 L 1248,475 L 1247,476 L 1247,479 L 1248,480 L 1248,483 L 1249,484 L 1249,486 L 1250,487 L 1250,494 L 1249,495 L 1234,495 L 1233,496 L 1230,496 L 1229,495 L 1228,496 L 1227,495 L 1227,487 L 1228,486 L 1237,486 L 1237,482 L 1238,481 L 1238,478 L 1239,477 L 1239,475 L 1240,474 Z M 1211,474 L 1223,474 L 1224,475 L 1223,476 L 1222,476 L 1222,477 L 1221,478 L 1221,484 L 1222,485 L 1222,495 L 1221,496 L 1211,496 L 1210,495 L 1205,495 L 1204,496 L 1203,495 L 1203,487 L 1204,486 L 1207,486 L 1208,485 L 1208,483 L 1209,482 L 1209,479 L 1210,478 L 1210,475 Z M 1047,474 L 1060,474 L 1063,486 L 1071,486 L 1075,474 L 1087,474 L 1091,486 L 1099,486 L 1102,474 L 1115,474 L 1117,478 L 1118,486 L 1127,486 L 1127,482 L 1130,474 L 1142,474 L 1146,486 L 1154,486 L 1157,474 L 1168,474 L 1170,477 L 1172,486 L 1178,487 L 1180,486 L 1181,482 L 1183,484 L 1184,487 L 1183,534 L 1203,546 L 1196,548 L 1189,547 L 1181,560 L 1179,559 L 1180,558 L 1178,559 L 1165,555 L 1153,555 L 1141,558 L 1129,565 L 1128,564 L 1129,565 L 1120,574 L 1112,590 L 1111,607 L 1114,618 L 1118,626 L 1128,638 L 1127,639 L 1128,642 L 1125,647 L 1113,647 L 1111,637 L 1109,634 L 1102,635 L 1098,647 L 1086,647 L 1081,634 L 1074,635 L 1073,641 L 1070,647 L 1058,647 L 1056,640 L 1057,639 L 1058,640 L 1057,639 L 1068,628 L 1074,616 L 1076,607 L 1075,590 L 1067,574 L 1057,564 L 1046,558 L 1034,555 L 1023,555 L 1010,559 L 1008,558 L 1009,559 L 1007,560 L 1001,548 L 997,547 L 994,544 L 992,547 L 983,546 L 984,544 L 989,545 L 985,544 L 1003,534 L 1014,524 L 1015,525 L 1016,524 L 1015,523 L 1022,515 L 1023,516 L 1026,515 L 1024,514 L 1028,513 L 1039,502 L 1040,503 L 1041,502 L 1040,500 L 1050,486 L 1050,480 L 1046,475 Z M 1025,475 L 1026,474 L 1032,474 L 1033,475 L 1033,478 L 1035,480 L 1035,484 L 1034,485 L 1031,485 L 1030,484 L 1030,483 L 1028,481 L 1027,481 L 1026,482 L 1025,482 L 1025,484 L 1024,485 L 1023,484 L 1023,481 L 1024,480 L 1024,479 L 1027,476 L 1028,477 L 1028,479 L 1030,479 L 1031,478 L 1031,476 L 1026,476 Z M 1001,474 L 1011,474 L 1012,475 L 1010,477 L 1009,476 L 1002,476 L 1009,476 L 1010,477 L 1009,478 L 1009,479 L 1008,480 L 1008,481 L 1007,482 L 1007,484 L 1006,485 L 1006,490 L 1008,492 L 1012,492 L 1013,493 L 1012,494 L 1008,494 L 1007,495 L 1009,495 L 1010,494 L 1012,494 L 1013,495 L 1013,496 L 1012,497 L 1002,497 L 1000,495 L 996,495 L 995,494 L 995,488 L 996,487 L 997,487 L 998,486 L 998,482 L 999,481 L 999,477 L 1000,476 L 1000,475 Z M 939,487 L 940,486 L 946,486 L 946,484 L 947,483 L 947,480 L 948,479 L 948,477 L 949,476 L 949,475 L 950,474 L 960,474 L 961,475 L 961,478 L 962,479 L 962,482 L 963,483 L 963,486 L 964,486 L 965,487 L 964,488 L 964,489 L 964,488 L 965,487 L 966,488 L 966,494 L 965,495 L 957,495 L 956,496 L 951,496 L 950,495 L 941,495 L 940,494 L 940,488 Z M 922,474 L 933,474 L 934,475 L 934,481 L 935,482 L 935,494 L 934,495 L 923,495 L 922,496 L 921,495 L 918,495 L 917,496 L 916,495 L 915,495 L 914,494 L 914,490 L 915,489 L 915,488 L 914,487 L 915,486 L 918,486 L 919,485 L 919,482 L 920,481 L 920,479 L 921,478 L 921,477 L 922,476 L 921,475 Z M 770,474 L 778,474 L 780,477 L 782,486 L 790,486 L 793,476 L 804,476 L 793,476 L 792,475 L 793,474 L 805,474 L 808,486 L 816,486 L 820,474 L 829,474 L 832,482 L 832,486 L 840,486 L 841,479 L 844,474 L 853,474 L 856,486 L 864,486 L 868,474 L 880,474 L 883,486 L 890,486 L 893,478 L 894,479 L 895,485 L 894,534 L 914,546 L 909,548 L 905,548 L 904,546 L 902,546 L 899,548 L 893,560 L 876,555 L 863,555 L 854,557 L 839,565 L 831,573 L 826,581 L 823,589 L 822,608 L 828,625 L 836,635 L 832,647 L 820,647 L 817,636 L 814,634 L 808,635 L 807,643 L 805,647 L 793,647 L 792,646 L 789,635 L 785,633 L 791,625 L 796,614 L 797,592 L 792,579 L 782,567 L 767,558 L 755,555 L 744,555 L 728,560 L 724,553 L 724,550 L 722,548 L 718,548 L 717,545 L 715,545 L 713,547 L 704,546 L 705,544 L 730,530 L 743,518 L 746,513 L 752,512 L 762,502 L 774,484 L 772,477 L 777,476 L 772,477 L 769,475 Z M 716,479 L 717,478 L 718,479 L 718,485 L 719,486 L 726,486 L 727,485 L 727,482 L 728,481 L 728,478 L 729,477 L 729,475 L 730,474 L 733,474 L 734,475 L 733,476 L 732,476 L 732,477 L 731,478 L 731,480 L 730,481 L 730,490 L 731,491 L 733,491 L 734,492 L 735,492 L 736,493 L 735,494 L 735,495 L 735,494 L 736,493 L 737,494 L 737,496 L 736,497 L 725,497 L 723,495 L 718,495 L 717,494 L 717,493 L 716,492 Z M 680,474 L 681,475 L 681,481 L 682,482 L 682,484 L 683,485 L 683,486 L 684,487 L 684,491 L 683,492 L 683,494 L 682,495 L 672,495 L 671,496 L 663,496 L 662,495 L 661,496 L 660,495 L 660,484 L 662,482 L 663,483 L 663,486 L 672,486 L 672,483 L 673,482 L 673,480 L 674,479 L 675,480 L 675,482 L 677,484 L 678,484 L 678,483 L 679,482 L 679,480 L 678,479 L 677,479 L 675,477 L 675,475 L 676,474 Z M 655,474 L 656,475 L 655,476 L 655,494 L 654,495 L 643,495 L 642,496 L 641,495 L 640,496 L 639,496 L 638,495 L 637,496 L 636,495 L 636,494 L 635,493 L 635,491 L 636,490 L 636,487 L 637,486 L 638,487 L 639,486 L 644,486 L 644,483 L 645,482 L 645,479 L 646,478 L 646,476 L 647,475 L 648,476 L 651,476 L 652,477 L 653,477 L 653,476 L 648,476 L 647,475 L 648,474 Z M 534,469 L 547,470 L 550,483 L 557,483 L 562,471 L 563,472 L 574,472 L 577,486 L 585,486 L 589,474 L 602,474 L 604,484 L 606,487 L 613,486 L 615,480 L 617,495 L 615,497 L 615,534 L 635,546 L 628,548 L 625,546 L 620,548 L 617,554 L 616,553 L 617,556 L 614,561 L 613,559 L 611,560 L 601,556 L 585,555 L 573,558 L 565,562 L 555,570 L 547,582 L 544,591 L 543,606 L 547,621 L 552,629 L 548,632 L 549,633 L 551,632 L 552,629 L 560,638 L 558,642 L 548,640 L 544,637 L 544,634 L 547,628 L 546,625 L 539,622 L 531,631 L 523,629 L 517,625 L 517,621 L 520,615 L 519,612 L 511,609 L 503,619 L 488,611 L 491,604 L 491,599 L 489,597 L 485,596 L 481,599 L 480,598 L 482,591 L 490,588 L 497,596 L 493,600 L 496,599 L 497,597 L 500,601 L 505,600 L 506,599 L 505,584 L 508,579 L 515,576 L 528,584 L 531,580 L 531,577 L 524,566 L 526,564 L 539,568 L 542,566 L 542,564 L 532,554 L 531,549 L 533,545 L 542,542 L 548,542 L 550,539 L 550,536 L 548,534 L 546,534 L 534,527 L 534,520 L 547,510 L 547,506 L 544,503 L 540,504 L 528,503 L 524,497 L 533,483 L 531,476 Z M 507,467 L 508,466 L 518,466 L 520,468 L 520,472 L 521,473 L 521,476 L 522,477 L 521,478 L 521,479 L 522,480 L 520,482 L 518,482 L 517,483 L 514,483 L 513,484 L 512,484 L 510,482 L 509,482 L 508,481 L 507,481 L 506,480 L 506,478 L 505,477 L 505,476 L 506,475 L 506,472 L 507,471 Z M 480,465 L 484,465 L 485,466 L 484,467 L 484,472 L 483,473 L 481,471 L 481,469 L 480,468 L 480,467 L 479,466 Z M 477,387 L 478,386 L 486,386 L 488,388 L 489,388 L 490,389 L 491,388 L 493,390 L 493,391 L 494,391 L 499,396 L 494,401 L 492,401 L 486,395 L 485,395 L 484,394 L 483,394 L 477,388 Z M 500,388 L 500,387 L 502,385 L 503,385 L 503,383 L 504,382 L 505,383 L 507,383 L 508,384 L 509,383 L 514,383 L 515,384 L 512,387 L 511,387 L 509,389 L 508,389 L 506,391 L 504,391 L 503,390 L 502,390 L 501,389 L 502,388 L 501,389 Z M 539,353 L 540,354 L 541,354 L 542,355 L 544,355 L 545,356 L 546,356 L 547,357 L 546,358 L 547,357 L 548,357 L 549,358 L 549,359 L 547,361 L 546,361 L 543,364 L 542,364 L 540,366 L 539,365 L 539,364 L 538,363 L 538,354 Z M 1827,353 L 1827,357 L 1826,358 L 1822,358 L 1821,357 L 1820,357 L 1819,356 L 1819,355 L 1820,354 L 1822,354 L 1823,353 L 1825,353 L 1826,352 Z M 1788,349 L 1789,348 L 1790,348 L 1794,344 L 1795,344 L 1798,347 L 1799,347 L 1801,349 L 1801,350 L 1802,351 L 1802,352 L 1801,353 L 1800,352 L 1795,352 L 1794,351 L 1790,351 Z M 562,340 L 563,339 L 564,340 L 565,340 L 566,341 L 565,342 L 566,343 L 568,343 L 569,344 L 567,346 L 566,346 L 565,347 L 564,347 L 563,348 L 562,347 Z M 1816,335 L 1818,335 L 1819,336 L 1822,336 L 1823,337 L 1825,337 L 1827,339 L 1827,345 L 1823,349 L 1822,349 L 1820,347 L 1821,346 L 1819,346 L 1819,347 L 1818,348 L 1816,346 L 1816,344 L 1814,342 L 1815,341 L 1815,336 Z M 1810,336 L 1810,340 L 1808,342 L 1804,342 L 1803,341 L 1802,341 L 1801,340 L 1803,338 L 1804,338 L 1805,337 L 1806,337 L 1808,335 L 1809,335 Z M 546,326 L 549,326 L 550,327 L 551,327 L 552,328 L 553,328 L 555,330 L 555,331 L 556,332 L 556,342 L 551,347 L 549,347 L 548,348 L 544,348 L 543,347 L 542,347 L 541,346 L 540,346 L 538,344 L 538,332 L 539,331 L 539,330 L 540,329 L 541,329 L 543,327 L 545,327 Z M 1637,300 L 1643,300 L 1644,301 L 1643,302 L 1640,302 L 1643,302 L 1644,301 L 1646,303 L 1646,307 L 1645,308 L 1645,311 L 1644,312 L 1643,312 L 1641,314 L 1636,314 L 1633,311 L 1633,304 Z M 671,278 L 672,277 L 673,277 L 674,278 L 673,279 L 674,280 L 673,279 L 674,278 L 675,278 L 677,280 L 677,281 L 676,282 L 675,282 L 674,283 L 673,282 L 672,282 L 671,281 Z M 666,276 L 667,277 L 667,281 L 666,282 L 665,282 L 664,283 L 663,283 L 661,285 L 661,286 L 662,287 L 661,288 L 656,288 L 654,290 L 653,290 L 652,291 L 651,290 L 651,279 L 653,277 L 659,277 L 660,276 Z M 773,274 L 772,275 L 766,275 L 765,276 L 755,276 L 754,277 L 748,277 L 747,276 L 749,274 L 761,274 L 762,273 L 772,273 Z M 833,272 L 834,271 L 835,271 L 835,270 L 836,269 L 836,267 L 835,266 L 836,265 L 838,265 L 839,264 L 840,264 L 841,263 L 842,263 L 845,260 L 845,258 L 846,257 L 847,258 L 847,260 L 848,261 L 849,261 L 851,263 L 852,263 L 854,265 L 855,265 L 857,267 L 858,267 L 859,268 L 861,268 L 862,269 L 863,269 L 864,270 L 866,270 L 867,271 L 868,271 L 869,272 L 871,272 L 872,273 L 871,274 L 836,274 L 835,273 L 834,273 Z M 188,197 L 190,195 L 196,195 L 197,194 L 203,194 L 204,195 L 213,195 L 214,196 L 214,197 L 215,198 L 215,219 L 214,220 L 213,219 L 210,222 L 191,222 L 188,219 L 188,211 L 187,210 L 187,199 L 188,198 Z M 846,170 L 847,171 L 847,245 L 846,246 L 844,244 L 844,173 L 845,172 L 845,171 Z M 909,101 L 910,101 L 911,100 L 917,100 L 921,104 L 921,109 L 917,113 L 915,113 L 914,114 L 911,114 L 907,110 L 907,109 L 906,108 L 906,106 L 907,105 L 907,103 Z" fill="black" fill-rule="evenodd"/>
</svg>