<svg xmlns="http://www.w3.org/2000/svg" width="2172" height="724" viewBox="0 0 2172 724">
<rect width="100%" height="100%" fill="white"/>
<path d="M 1949,433 L 1928,354 L 1910,329 L 1883,335 L 1880,317 L 1815,312 L 1807,326 L 1782,314 L 1714,315 L 1703,299 L 1682,311 L 1522,292 L 1513,274 L 1430,265 L 1426,281 L 1406,266 L 1382,266 L 1370,277 L 1377,255 L 1414,248 L 1449,209 L 1450,169 L 1487,167 L 1494,146 L 1449,138 L 1445,121 L 1428,112 L 1416,72 L 1404,79 L 1399,108 L 1303,93 L 1290,79 L 1288,55 L 1260,41 L 1149,49 L 1147,79 L 1124,90 L 1105,66 L 1143,62 L 1143,41 L 1115,43 L 1108,34 L 1077,48 L 1066,41 L 1064,54 L 1093,67 L 1075,90 L 995,81 L 987,100 L 965,109 L 942,95 L 931,134 L 910,141 L 901,123 L 857,165 L 825,165 L 814,179 L 136,181 L 141,221 L 237,211 L 814,217 L 819,229 L 855,231 L 882,255 L 887,277 L 787,277 L 754,258 L 724,258 L 715,271 L 697,273 L 697,287 L 600,342 L 569,334 L 574,318 L 555,302 L 537,346 L 561,381 L 478,390 L 424,433 L 412,467 L 431,479 L 454,458 L 437,478 L 427,519 L 447,571 L 634,680 L 1624,679 L 1717,644 L 1724,633 L 1739,635 L 1746,624 L 1766,624 L 1774,612 L 1788,615 L 1796,603 L 1824,601 L 1838,585 L 1849,588 L 1880,543 L 1877,494 L 1862,485 L 1868,477 L 1877,486 L 1871,463 L 1882,472 L 1896,466 L 1898,435 Z M 1255,661 L 1255,662 L 1252,665 L 1245,665 L 1244,664 L 1245,663 L 1247,663 L 1248,662 L 1250,662 L 1251,661 L 1253,661 L 1254,660 Z M 978,659 L 979,658 L 980,659 L 981,659 L 982,660 L 983,660 L 984,661 L 983,662 L 981,662 L 983,662 L 984,661 L 985,661 L 986,662 L 988,662 L 989,663 L 988,664 L 980,664 L 979,663 L 979,662 L 978,661 Z M 1337,658 L 1338,657 L 1339,657 L 1340,658 L 1341,658 L 1342,659 L 1343,659 L 1344,660 L 1345,660 L 1346,661 L 1345,662 L 1344,662 L 1344,663 L 1346,663 L 1345,662 L 1346,661 L 1347,661 L 1348,662 L 1349,662 L 1350,663 L 1348,665 L 1341,665 L 1338,662 L 1338,659 Z M 1172,650 L 1173,651 L 1174,650 L 1175,650 L 1176,649 L 1177,650 L 1178,649 L 1179,650 L 1180,650 L 1185,655 L 1185,661 L 1184,662 L 1184,663 L 1183,664 L 1177,664 L 1176,665 L 1173,662 L 1173,661 L 1172,660 L 1172,654 L 1171,653 L 1171,651 Z M 1638,644 L 1639,645 L 1639,648 L 1640,649 L 1640,653 L 1639,654 L 1639,655 L 1637,657 L 1634,657 L 1633,658 L 1631,658 L 1630,659 L 1629,659 L 1627,657 L 1627,656 L 1626,655 L 1629,652 L 1630,652 Z M 1015,630 L 1018,633 L 1018,635 L 1019,636 L 1019,637 L 1018,638 L 1018,640 L 1017,641 L 1016,641 L 1015,640 L 1012,640 L 1011,641 L 1013,641 L 1014,642 L 1013,643 L 1010,643 L 1006,639 L 1006,634 L 1009,631 L 1010,632 L 1014,632 L 1013,631 L 1014,630 Z M 1585,629 L 1590,629 L 1593,632 L 1593,633 L 1594,634 L 1594,638 L 1593,639 L 1593,640 L 1591,642 L 1590,642 L 1589,643 L 1585,643 L 1584,642 L 1585,641 L 1588,641 L 1585,641 L 1583,639 L 1582,640 L 1581,639 L 1581,637 L 1580,636 L 1580,635 L 1581,634 L 1581,633 L 1583,631 L 1584,632 L 1585,631 L 1589,631 L 1585,631 L 1584,630 Z M 1371,629 L 1375,629 L 1376,630 L 1375,631 L 1372,631 L 1375,631 L 1376,632 L 1375,631 L 1376,630 L 1377,630 L 1379,632 L 1379,634 L 1380,635 L 1380,638 L 1379,639 L 1379,640 L 1377,642 L 1375,642 L 1374,641 L 1375,640 L 1376,640 L 1374,640 L 1373,641 L 1372,641 L 1371,642 L 1370,642 L 1369,641 L 1370,640 L 1369,641 L 1367,639 L 1367,637 L 1366,636 L 1366,635 L 1367,634 L 1367,633 Z M 1223,629 L 1226,629 L 1227,630 L 1226,631 L 1224,631 L 1225,632 L 1227,632 L 1226,631 L 1227,630 L 1228,630 L 1229,631 L 1229,632 L 1230,633 L 1230,634 L 1231,635 L 1231,637 L 1230,638 L 1230,640 L 1228,642 L 1226,642 L 1225,641 L 1226,640 L 1227,640 L 1224,640 L 1224,641 L 1223,642 L 1221,642 L 1219,640 L 1219,639 L 1218,638 L 1218,634 L 1219,633 L 1219,632 L 1221,630 L 1222,630 Z M 863,629 L 866,629 L 867,630 L 868,630 L 871,633 L 871,639 L 868,642 L 867,642 L 866,643 L 864,643 L 863,642 L 864,641 L 865,641 L 864,640 L 862,640 L 861,641 L 860,641 L 859,640 L 859,638 L 858,637 L 858,635 L 859,634 L 859,633 L 861,631 L 862,632 L 865,632 L 865,631 L 864,631 L 863,632 L 862,632 L 861,631 Z M 652,629 L 656,629 L 660,633 L 660,635 L 661,636 L 661,637 L 660,638 L 660,639 L 658,641 L 657,640 L 658,641 L 657,642 L 656,642 L 655,643 L 652,643 L 651,642 L 650,642 L 648,640 L 648,637 L 647,636 L 648,635 L 648,633 Z M 592,625 L 593,626 L 593,627 L 594,628 L 594,630 L 592,632 L 592,634 L 593,633 L 594,634 L 594,633 L 595,632 L 596,633 L 596,634 L 597,635 L 597,636 L 599,638 L 599,639 L 598,640 L 597,640 L 596,641 L 593,641 L 592,640 L 591,640 L 590,639 L 591,638 L 592,638 L 591,638 L 590,639 L 589,639 L 587,637 L 587,633 L 588,632 L 588,630 L 591,627 L 591,626 Z M 627,621 L 628,621 L 629,622 L 632,622 L 633,621 L 634,621 L 636,623 L 636,624 L 637,625 L 637,629 L 634,632 L 633,631 L 629,631 L 633,631 L 634,632 L 633,633 L 632,633 L 631,634 L 630,634 L 629,633 L 628,633 L 627,632 L 626,632 L 624,630 L 624,624 Z M 1608,621 L 1609,621 L 1610,622 L 1613,622 L 1610,622 L 1609,621 L 1610,620 L 1614,620 L 1618,624 L 1618,626 L 1619,627 L 1618,628 L 1618,629 L 1615,632 L 1614,632 L 1613,631 L 1610,631 L 1609,632 L 1608,632 L 1605,629 L 1605,624 Z M 1561,620 L 1565,620 L 1566,621 L 1567,621 L 1569,623 L 1569,624 L 1570,625 L 1570,629 L 1568,631 L 1567,630 L 1566,631 L 1565,631 L 1566,631 L 1567,632 L 1566,633 L 1561,633 L 1560,632 L 1559,632 L 1557,630 L 1557,629 L 1556,628 L 1556,626 L 1557,625 L 1557,623 L 1559,621 L 1560,621 Z M 1396,620 L 1401,620 L 1402,621 L 1401,622 L 1398,622 L 1401,622 L 1402,621 L 1403,621 L 1405,623 L 1405,629 L 1403,631 L 1402,631 L 1401,630 L 1402,631 L 1400,633 L 1396,633 L 1395,632 L 1394,632 L 1392,630 L 1392,629 L 1391,628 L 1391,625 L 1392,624 L 1393,625 L 1394,624 L 1393,625 L 1392,624 L 1392,623 L 1394,621 L 1395,621 Z M 1348,620 L 1352,620 L 1356,624 L 1356,629 L 1353,632 L 1352,632 L 1351,631 L 1347,631 L 1346,632 L 1343,629 L 1343,624 L 1345,622 L 1346,623 L 1347,623 L 1348,622 L 1350,622 L 1348,622 L 1347,621 Z M 1246,620 L 1251,620 L 1255,624 L 1255,629 L 1251,633 L 1245,633 L 1243,631 L 1243,630 L 1242,629 L 1242,624 L 1243,623 L 1244,624 L 1243,623 Z M 1199,620 L 1202,620 L 1203,621 L 1204,621 L 1206,623 L 1206,625 L 1207,626 L 1207,628 L 1206,629 L 1206,630 L 1203,633 L 1198,633 L 1197,632 L 1198,631 L 1202,631 L 1198,631 L 1197,632 L 1196,632 L 1195,631 L 1195,630 L 1194,629 L 1194,628 L 1193,627 L 1193,626 L 1194,625 L 1194,624 L 1197,621 L 1198,621 L 1199,622 L 1201,622 L 1199,622 L 1198,621 Z M 1035,620 L 1039,620 L 1040,621 L 1041,621 L 1043,623 L 1043,629 L 1040,632 L 1039,632 L 1038,633 L 1034,633 L 1030,629 L 1030,624 L 1031,623 L 1032,624 L 1032,625 L 1032,624 L 1031,623 L 1033,621 L 1034,621 Z M 987,620 L 990,620 L 991,621 L 992,621 L 994,623 L 994,624 L 995,625 L 995,629 L 994,630 L 994,631 L 993,632 L 992,632 L 991,633 L 990,633 L 989,634 L 987,634 L 986,633 L 985,633 L 982,630 L 982,629 L 981,628 L 981,626 L 982,625 L 982,624 L 984,622 L 985,623 L 984,622 L 985,621 L 986,621 L 987,622 L 989,622 L 987,622 L 986,621 Z M 887,620 L 891,620 L 892,621 L 891,622 L 888,622 L 891,622 L 892,621 L 893,621 L 895,623 L 895,624 L 896,625 L 896,628 L 895,629 L 895,630 L 894,631 L 893,631 L 892,632 L 891,631 L 888,631 L 891,631 L 892,632 L 891,633 L 886,633 L 882,629 L 882,625 Z M 836,621 L 837,621 L 838,620 L 842,620 L 843,621 L 844,621 L 847,624 L 847,629 L 846,630 L 846,631 L 844,633 L 842,633 L 841,634 L 840,634 L 839,633 L 838,633 L 837,632 L 838,631 L 836,629 L 835,630 L 834,629 L 834,628 L 833,627 L 833,626 L 834,625 L 834,623 Z M 676,620 L 681,620 L 682,621 L 683,621 L 685,623 L 685,629 L 682,632 L 681,632 L 680,633 L 677,633 L 676,632 L 677,631 L 679,631 L 677,631 L 676,630 L 675,630 L 674,631 L 672,629 L 672,625 L 673,624 L 673,623 L 674,622 L 675,623 L 674,622 Z M 1051,660 L 1051,655 L 1052,654 L 1053,655 L 1052,654 L 1054,652 L 1056,651 L 1057,652 L 1058,651 L 1060,652 L 1060,651 L 1058,651 L 1057,650 L 1065,642 L 1065,641 L 1069,636 L 1074,626 L 1074,624 L 1076,620 L 1076,617 L 1077,616 L 1077,610 L 1078,609 L 1078,600 L 1082,598 L 1086,598 L 1090,594 L 1095,594 L 1096,593 L 1126,593 L 1127,594 L 1134,594 L 1135,593 L 1137,593 L 1141,598 L 1146,598 L 1147,599 L 1153,599 L 1154,600 L 1157,600 L 1158,601 L 1158,609 L 1159,610 L 1159,615 L 1160,616 L 1160,619 L 1161,620 L 1161,623 L 1160,624 L 1161,623 L 1162,624 L 1163,628 L 1166,634 L 1168,636 L 1170,640 L 1173,643 L 1173,644 L 1176,647 L 1174,649 L 1172,649 L 1171,651 L 1170,650 L 1170,648 L 1163,648 L 1162,649 L 1162,652 L 1161,653 L 1161,660 L 1157,665 L 1151,665 L 1148,662 L 1145,648 L 1139,648 L 1138,649 L 1138,651 L 1137,652 L 1137,656 L 1136,657 L 1136,661 L 1135,662 L 1134,661 L 1133,662 L 1134,661 L 1135,662 L 1134,664 L 1126,664 L 1124,662 L 1123,660 L 1123,654 L 1122,653 L 1121,648 L 1119,647 L 1115,647 L 1113,650 L 1113,653 L 1112,654 L 1112,661 L 1109,664 L 1107,664 L 1106,665 L 1105,664 L 1101,664 L 1099,662 L 1099,659 L 1098,658 L 1098,654 L 1097,653 L 1097,651 L 1095,647 L 1089,648 L 1088,654 L 1087,655 L 1087,661 L 1084,664 L 1078,664 L 1077,663 L 1078,662 L 1082,662 L 1078,662 L 1077,663 L 1075,661 L 1075,658 L 1074,657 L 1074,653 L 1073,652 L 1072,648 L 1066,648 L 1065,652 L 1064,653 L 1064,661 L 1061,664 L 1054,664 Z M 689,658 L 692,655 L 693,655 L 696,652 L 697,652 L 704,645 L 705,646 L 704,645 L 711,636 L 717,624 L 717,622 L 719,618 L 719,615 L 720,614 L 720,607 L 721,606 L 721,600 L 722,599 L 726,599 L 730,597 L 733,594 L 736,594 L 737,593 L 768,593 L 769,594 L 778,594 L 779,595 L 780,594 L 784,598 L 788,598 L 789,599 L 795,599 L 796,600 L 798,600 L 799,601 L 799,607 L 800,608 L 800,614 L 801,615 L 801,619 L 802,620 L 804,628 L 807,634 L 809,636 L 812,642 L 823,653 L 824,653 L 826,655 L 825,656 L 825,661 L 822,664 L 815,664 L 812,661 L 812,657 L 811,656 L 810,648 L 804,648 L 801,654 L 801,661 L 799,663 L 798,662 L 795,662 L 798,662 L 799,663 L 798,664 L 791,664 L 788,660 L 788,656 L 787,655 L 786,648 L 779,648 L 778,650 L 778,653 L 777,654 L 777,659 L 776,660 L 776,662 L 774,664 L 765,664 L 763,661 L 763,657 L 762,656 L 761,648 L 754,648 L 752,652 L 752,657 L 751,658 L 751,661 L 748,664 L 741,664 L 738,660 L 738,653 L 737,652 L 736,648 L 730,648 L 729,649 L 729,651 L 727,655 L 727,660 L 726,662 L 724,664 L 716,664 L 714,662 L 714,660 L 713,659 L 713,654 L 712,653 L 712,650 L 711,648 L 705,648 L 703,651 L 703,654 L 702,655 L 701,662 L 698,665 L 697,664 L 695,665 L 691,664 L 689,662 Z M 1619,593 L 1620,593 L 1621,592 L 1626,592 L 1627,593 L 1628,593 L 1630,595 L 1630,596 L 1631,597 L 1631,602 L 1627,606 L 1625,606 L 1624,607 L 1623,607 L 1622,606 L 1620,606 L 1617,603 L 1617,602 L 1616,601 L 1616,597 L 1617,596 L 1617,595 Z M 1545,652 L 1544,653 L 1544,661 L 1541,665 L 1535,665 L 1532,662 L 1531,660 L 1531,654 L 1530,653 L 1529,648 L 1527,648 L 1526,647 L 1524,647 L 1522,649 L 1522,651 L 1521,652 L 1521,656 L 1520,657 L 1520,661 L 1518,664 L 1510,664 L 1507,661 L 1507,656 L 1506,655 L 1506,652 L 1504,648 L 1498,648 L 1498,650 L 1496,653 L 1496,659 L 1495,660 L 1495,662 L 1492,665 L 1491,664 L 1485,664 L 1483,662 L 1482,660 L 1482,653 L 1481,652 L 1481,649 L 1479,647 L 1477,648 L 1476,647 L 1473,648 L 1472,656 L 1471,657 L 1471,661 L 1469,664 L 1461,664 L 1458,661 L 1458,657 L 1457,656 L 1456,648 L 1449,648 L 1448,652 L 1447,653 L 1446,662 L 1443,665 L 1441,664 L 1435,664 L 1433,662 L 1433,660 L 1432,659 L 1432,653 L 1431,652 L 1430,648 L 1425,648 L 1423,650 L 1422,652 L 1422,656 L 1421,657 L 1421,661 L 1418,664 L 1410,664 L 1409,663 L 1410,662 L 1416,662 L 1411,662 L 1410,661 L 1409,663 L 1407,659 L 1408,657 L 1409,657 L 1414,653 L 1416,654 L 1415,653 L 1425,643 L 1425,642 L 1428,639 L 1429,636 L 1431,634 L 1434,628 L 1434,626 L 1436,623 L 1436,620 L 1437,619 L 1437,616 L 1438,615 L 1438,611 L 1439,610 L 1439,600 L 1440,599 L 1444,599 L 1445,598 L 1447,598 L 1451,594 L 1455,594 L 1456,593 L 1486,593 L 1487,594 L 1494,594 L 1497,592 L 1502,598 L 1507,598 L 1508,599 L 1520,600 L 1521,601 L 1521,612 L 1522,613 L 1522,617 L 1523,618 L 1524,624 L 1527,629 L 1527,631 L 1532,639 L 1536,643 L 1536,644 L 1537,644 Z M 1335,592 L 1341,592 L 1344,595 L 1344,596 L 1345,597 L 1345,602 L 1344,603 L 1343,602 L 1343,601 L 1343,602 L 1341,604 L 1342,605 L 1341,606 L 1340,606 L 1339,607 L 1336,607 L 1335,606 L 1336,605 L 1337,605 L 1336,605 L 1335,604 L 1334,604 L 1333,605 L 1331,603 L 1331,602 L 1330,601 L 1330,599 L 1331,598 L 1331,596 Z M 1257,592 L 1263,592 L 1267,596 L 1267,603 L 1264,606 L 1262,606 L 1261,607 L 1258,607 L 1257,606 L 1256,606 L 1253,603 L 1253,602 L 1252,601 L 1252,599 L 1253,598 L 1253,596 Z M 974,592 L 979,592 L 983,596 L 983,598 L 984,599 L 984,601 L 983,602 L 983,603 L 982,604 L 981,603 L 981,602 L 981,603 L 982,604 L 980,606 L 979,606 L 978,607 L 975,607 L 974,606 L 973,606 L 972,605 L 973,604 L 974,604 L 973,604 L 972,605 L 970,603 L 970,602 L 969,601 L 969,597 L 971,595 L 971,594 L 972,593 L 973,593 Z M 899,592 L 904,592 L 907,595 L 907,597 L 908,598 L 908,603 L 906,605 L 905,605 L 904,604 L 901,604 L 903,606 L 902,607 L 901,607 L 900,606 L 898,606 L 894,602 L 894,597 L 895,596 L 895,595 L 897,593 L 898,593 Z M 616,592 L 621,592 L 625,596 L 625,597 L 626,598 L 626,601 L 625,602 L 624,601 L 624,600 L 624,601 L 625,602 L 625,603 L 622,606 L 621,606 L 620,607 L 617,607 L 616,606 L 617,605 L 618,605 L 617,605 L 616,606 L 615,606 L 612,603 L 612,602 L 611,601 L 611,597 L 612,596 L 612,595 L 614,593 L 615,593 Z M 1778,585 L 1780,587 L 1780,589 L 1781,590 L 1781,594 L 1782,595 L 1782,596 L 1780,598 L 1779,597 L 1777,597 L 1778,597 L 1779,598 L 1778,599 L 1776,599 L 1775,600 L 1774,600 L 1773,599 L 1772,599 L 1770,597 L 1770,596 L 1769,595 L 1769,594 L 1768,593 L 1769,592 L 1770,592 L 1772,590 L 1772,589 L 1775,586 L 1776,586 L 1777,585 Z M 1198,571 L 1202,575 L 1202,576 L 1203,577 L 1203,578 L 1202,579 L 1200,579 L 1196,575 L 1196,573 Z M 837,572 L 838,571 L 840,571 L 843,574 L 843,575 L 844,576 L 844,577 L 846,579 L 845,580 L 844,580 L 843,579 L 841,579 L 837,575 Z M 1561,571 L 1562,570 L 1563,571 L 1564,571 L 1566,573 L 1566,574 L 1568,576 L 1568,577 L 1567,578 L 1566,577 L 1563,577 L 1562,578 L 1560,576 L 1560,573 L 1561,572 Z M 1399,569 L 1402,572 L 1401,573 L 1401,574 L 1398,577 L 1397,577 L 1396,578 L 1395,578 L 1394,579 L 1393,579 L 1392,578 L 1394,576 L 1394,575 L 1396,573 L 1396,572 Z M 681,569 L 683,571 L 683,573 L 678,578 L 677,578 L 676,577 L 677,578 L 676,579 L 675,579 L 674,580 L 673,579 L 673,577 Z M 1038,568 L 1040,570 L 1040,574 L 1039,575 L 1039,576 L 1037,578 L 1036,578 L 1035,577 L 1036,576 L 1035,575 L 1033,575 L 1032,576 L 1033,577 L 1035,577 L 1036,578 L 1035,579 L 1033,579 L 1032,580 L 1031,580 L 1029,578 L 1030,577 L 1030,575 L 1034,571 L 1035,571 L 1036,570 L 1037,570 L 1037,569 Z M 1210,566 L 1212,568 L 1212,569 L 1213,570 L 1213,577 L 1212,578 L 1210,576 L 1210,575 L 1208,573 L 1208,570 L 1209,569 L 1209,567 Z M 879,567 L 880,567 L 881,566 L 885,566 L 886,567 L 887,567 L 891,571 L 891,576 L 888,579 L 887,579 L 886,578 L 885,578 L 886,578 L 887,579 L 886,580 L 881,580 L 879,578 L 878,578 L 877,577 L 877,576 L 876,575 L 876,571 L 877,570 L 877,569 Z M 852,566 L 853,567 L 853,568 L 854,569 L 854,571 L 855,572 L 855,574 L 853,576 L 852,575 L 852,574 L 850,572 L 850,570 L 851,569 L 851,567 Z M 1604,565 L 1606,565 L 1607,566 L 1608,566 L 1609,567 L 1610,567 L 1613,570 L 1613,576 L 1610,579 L 1609,579 L 1608,580 L 1604,580 L 1603,579 L 1602,579 L 1601,578 L 1602,577 L 1601,578 L 1598,575 L 1598,571 L 1599,570 L 1599,569 L 1602,566 L 1603,566 Z M 1355,565 L 1356,565 L 1357,566 L 1358,566 L 1361,569 L 1361,570 L 1362,571 L 1362,574 L 1361,575 L 1361,576 L 1358,579 L 1357,579 L 1356,580 L 1353,580 L 1352,579 L 1351,579 L 1350,578 L 1351,577 L 1350,578 L 1348,576 L 1348,575 L 1347,574 L 1347,571 L 1352,566 L 1354,566 Z M 1241,565 L 1244,565 L 1245,566 L 1246,566 L 1250,570 L 1250,576 L 1247,579 L 1246,579 L 1245,580 L 1241,580 L 1240,579 L 1241,578 L 1243,578 L 1241,578 L 1240,579 L 1239,579 L 1235,575 L 1235,571 L 1236,570 L 1236,569 L 1239,566 L 1240,566 Z M 993,565 L 994,566 L 996,566 L 997,567 L 998,567 L 1000,569 L 1000,571 L 1001,572 L 1001,573 L 1000,574 L 1000,576 L 997,579 L 996,579 L 995,580 L 991,580 L 990,579 L 989,579 L 987,577 L 987,576 L 986,575 L 986,571 L 987,570 L 987,569 L 989,567 L 990,567 L 991,566 L 992,566 Z M 635,565 L 637,565 L 638,566 L 639,566 L 642,569 L 642,570 L 643,571 L 643,574 L 642,575 L 642,576 L 639,579 L 638,579 L 637,578 L 633,578 L 632,579 L 628,575 L 628,571 L 629,570 L 629,569 L 630,568 L 631,568 L 633,566 L 634,566 Z M 1518,558 L 1519,557 L 1524,557 L 1525,558 L 1530,558 L 1531,559 L 1534,559 L 1536,561 L 1534,563 L 1533,562 L 1534,563 L 1533,564 L 1533,565 L 1531,567 L 1531,568 L 1530,569 L 1529,568 L 1528,568 L 1526,566 L 1526,567 L 1525,568 L 1524,567 L 1524,562 L 1523,562 L 1520,559 L 1519,559 Z M 1423,558 L 1426,558 L 1427,557 L 1431,557 L 1432,558 L 1431,559 L 1431,566 L 1432,567 L 1431,568 L 1429,568 L 1427,566 L 1427,565 L 1425,563 L 1425,562 L 1422,559 Z M 1157,558 L 1158,557 L 1163,557 L 1164,558 L 1169,558 L 1170,559 L 1172,559 L 1173,560 L 1173,561 L 1170,564 L 1170,565 L 1169,566 L 1168,565 L 1168,564 L 1167,564 L 1166,563 L 1164,563 L 1164,566 L 1167,566 L 1168,567 L 1168,568 L 1167,569 L 1167,570 L 1166,571 L 1165,571 L 1164,570 L 1163,570 L 1161,568 L 1162,567 L 1162,563 L 1161,562 L 1161,561 L 1159,559 L 1158,559 Z M 1061,559 L 1062,558 L 1064,558 L 1065,557 L 1071,557 L 1072,558 L 1071,559 L 1071,561 L 1070,562 L 1070,564 L 1071,565 L 1071,566 L 1072,567 L 1071,568 L 1070,568 L 1069,569 L 1068,568 L 1068,567 L 1066,565 L 1066,564 Z M 799,558 L 800,557 L 805,557 L 806,558 L 811,558 L 812,559 L 814,559 L 815,560 L 811,564 L 809,562 L 808,562 L 809,563 L 810,563 L 811,564 L 811,565 L 809,567 L 809,568 L 808,569 L 808,570 L 807,571 L 806,570 L 804,570 L 802,568 L 803,567 L 803,566 L 804,565 L 804,562 L 802,560 L 803,559 L 804,559 L 803,559 L 802,560 L 801,559 L 800,559 Z M 712,557 L 713,558 L 712,559 L 712,561 L 711,562 L 711,566 L 710,567 L 709,566 L 709,565 L 707,563 L 707,562 L 705,560 L 707,558 L 710,558 L 711,557 Z M 524,549 L 525,549 L 526,550 L 527,550 L 528,551 L 528,552 L 529,553 L 529,555 L 527,557 L 525,557 L 524,558 L 523,557 L 523,550 Z M 533,538 L 536,538 L 541,543 L 541,544 L 542,545 L 542,548 L 540,550 L 539,550 L 538,549 L 538,548 L 536,548 L 536,549 L 538,549 L 539,550 L 538,551 L 535,551 L 530,546 L 530,545 L 529,544 L 529,542 Z M 486,538 L 487,539 L 488,539 L 489,540 L 490,540 L 492,542 L 492,543 L 493,544 L 492,545 L 492,548 L 491,549 L 491,550 L 490,551 L 490,552 L 487,555 L 486,554 L 485,554 L 484,553 L 485,552 L 487,552 L 488,551 L 485,551 L 483,553 L 479,549 L 480,548 L 479,547 L 479,546 L 480,545 L 480,544 L 484,540 L 485,541 L 486,541 L 485,541 L 484,540 Z M 540,532 L 541,531 L 543,531 L 544,532 L 549,532 L 550,531 L 552,531 L 553,532 L 553,534 L 552,535 L 552,536 L 551,537 L 551,538 L 550,539 L 549,538 L 548,538 L 545,535 L 544,535 L 542,533 L 541,533 Z M 467,533 L 469,531 L 478,531 L 479,532 L 479,533 L 477,535 L 476,535 L 474,537 L 473,537 L 472,538 L 471,538 L 468,535 L 468,534 Z M 1794,506 L 1804,506 L 1805,507 L 1806,507 L 1807,508 L 1808,508 L 1812,512 L 1812,513 L 1813,514 L 1813,515 L 1814,516 L 1814,518 L 1815,519 L 1815,526 L 1814,527 L 1814,528 L 1813,529 L 1813,530 L 1807,536 L 1805,536 L 1804,537 L 1803,537 L 1802,538 L 1795,538 L 1794,537 L 1792,537 L 1791,536 L 1790,536 L 1785,531 L 1785,530 L 1784,529 L 1784,528 L 1783,527 L 1783,525 L 1782,524 L 1782,520 L 1783,519 L 1783,517 L 1784,516 L 1784,514 L 1790,508 L 1791,508 L 1792,507 L 1793,507 L 1794,508 L 1795,508 L 1794,508 L 1793,507 Z M 466,506 L 466,504 L 467,503 L 467,501 L 468,500 L 468,498 L 469,497 L 470,498 L 470,499 L 471,500 L 473,500 L 475,502 L 476,502 L 479,505 L 478,506 L 468,506 L 467,507 Z M 1524,515 L 1534,510 L 1536,501 L 1541,496 L 1544,497 L 1551,496 L 1555,500 L 1559,501 L 1571,495 L 1726,495 L 1727,498 L 1734,505 L 1733,512 L 1721,518 L 1721,524 L 1733,531 L 1734,538 L 1726,547 L 1727,552 L 1733,554 L 1740,554 L 1743,557 L 1744,562 L 1740,570 L 1740,573 L 1743,576 L 1756,573 L 1763,578 L 1763,585 L 1758,587 L 1757,589 L 1757,595 L 1760,604 L 1757,608 L 1751,610 L 1750,609 L 1754,607 L 1749,606 L 1750,607 L 1748,608 L 1741,596 L 1736,597 L 1733,599 L 1736,615 L 1734,617 L 1733,616 L 1734,617 L 1733,618 L 1729,617 L 1731,618 L 1728,620 L 1725,619 L 1727,618 L 1724,619 L 1723,618 L 1724,617 L 1723,618 L 1715,606 L 1709,608 L 1708,612 L 1711,620 L 1711,626 L 1708,628 L 1704,627 L 1706,628 L 1703,630 L 1698,627 L 1693,617 L 1689,616 L 1685,618 L 1687,634 L 1683,638 L 1679,637 L 1681,638 L 1680,639 L 1677,639 L 1674,636 L 1672,630 L 1668,625 L 1662,627 L 1664,643 L 1662,646 L 1659,645 L 1662,646 L 1655,649 L 1651,646 L 1645,634 L 1649,627 L 1653,615 L 1654,593 L 1648,574 L 1638,559 L 1628,550 L 1617,543 L 1598,537 L 1577,537 L 1560,542 L 1550,548 L 1546,547 L 1533,538 L 1521,537 L 1518,535 L 1524,520 Z M 1158,534 L 1164,520 L 1164,514 L 1174,510 L 1177,506 L 1179,500 L 1180,501 L 1181,500 L 1180,499 L 1183,496 L 1185,497 L 1190,496 L 1194,500 L 1200,501 L 1210,496 L 1215,497 L 1211,497 L 1210,496 L 1211,495 L 1416,495 L 1417,521 L 1420,526 L 1429,533 L 1427,537 L 1420,538 L 1410,545 L 1407,544 L 1409,545 L 1408,546 L 1383,537 L 1358,538 L 1338,546 L 1326,556 L 1325,555 L 1326,556 L 1322,560 L 1321,559 L 1322,560 L 1316,568 L 1311,578 L 1307,592 L 1307,611 L 1310,623 L 1316,636 L 1325,647 L 1324,648 L 1328,650 L 1326,663 L 1320,665 L 1315,663 L 1311,648 L 1305,648 L 1303,661 L 1301,663 L 1300,662 L 1301,663 L 1294,665 L 1291,663 L 1288,648 L 1281,649 L 1279,655 L 1279,661 L 1277,664 L 1271,665 L 1266,660 L 1265,654 L 1274,645 L 1281,635 L 1286,625 L 1290,610 L 1290,594 L 1286,578 L 1279,565 L 1266,551 L 1249,541 L 1235,537 L 1209,538 L 1197,542 L 1187,548 L 1172,538 L 1159,536 Z M 800,534 L 806,522 L 807,514 L 816,510 L 819,501 L 827,495 L 832,495 L 833,496 L 832,497 L 828,497 L 833,496 L 837,501 L 843,501 L 853,496 L 860,497 L 855,497 L 854,496 L 855,495 L 1055,495 L 1056,521 L 1061,528 L 1069,534 L 1069,536 L 1061,538 L 1048,546 L 1022,537 L 1002,537 L 990,540 L 974,548 L 962,559 L 952,574 L 951,573 L 952,575 L 948,584 L 946,594 L 946,610 L 950,626 L 960,643 L 959,644 L 960,645 L 961,644 L 967,650 L 964,663 L 962,665 L 954,664 L 951,658 L 950,648 L 943,648 L 939,662 L 938,661 L 939,662 L 937,664 L 929,664 L 926,659 L 924,648 L 918,648 L 916,652 L 915,661 L 911,665 L 905,665 L 901,661 L 900,657 L 908,651 L 911,652 L 909,650 L 921,636 L 928,621 L 931,606 L 929,585 L 923,571 L 917,562 L 901,547 L 880,538 L 854,537 L 838,542 L 830,547 L 827,547 L 815,538 L 801,536 Z M 520,595 L 520,592 L 523,586 L 527,581 L 536,579 L 552,570 L 562,561 L 570,550 L 574,542 L 576,533 L 577,532 L 577,529 L 578,528 L 578,506 L 575,497 L 576,495 L 699,495 L 700,496 L 699,497 L 700,498 L 699,499 L 700,522 L 705,529 L 711,532 L 712,535 L 710,537 L 701,539 L 691,546 L 688,546 L 679,541 L 670,539 L 669,538 L 665,538 L 664,537 L 645,537 L 644,538 L 639,538 L 630,541 L 615,549 L 608,555 L 601,563 L 592,579 L 590,588 L 589,589 L 589,595 L 588,596 L 588,608 L 589,609 L 589,615 L 590,617 L 588,618 L 585,616 L 574,628 L 572,628 L 569,626 L 571,625 L 568,626 L 565,623 L 565,618 L 570,607 L 566,604 L 563,603 L 554,613 L 553,612 L 552,613 L 550,612 L 547,613 L 546,612 L 547,611 L 545,612 L 543,610 L 542,606 L 548,593 L 544,590 L 541,589 L 528,601 L 525,599 L 526,598 L 524,599 L 522,598 Z M 834,455 L 835,456 L 834,457 L 832,457 L 826,463 L 826,464 L 825,465 L 825,466 L 824,467 L 823,466 L 823,463 L 824,462 L 824,458 L 823,457 L 824,456 L 829,456 L 830,455 Z M 454,452 L 457,455 L 454,458 L 453,457 L 450,457 L 449,456 L 452,453 L 453,453 Z M 1883,450 L 1886,450 L 1887,451 L 1887,453 L 1888,454 L 1889,454 L 1890,455 L 1889,456 L 1890,455 L 1892,457 L 1892,461 L 1891,462 L 1891,463 L 1889,465 L 1888,465 L 1887,466 L 1886,466 L 1885,467 L 1884,466 L 1882,466 L 1878,462 L 1878,459 L 1877,458 L 1877,456 L 1879,454 L 1879,453 L 1881,451 L 1882,451 L 1883,452 L 1882,453 L 1885,453 L 1885,452 L 1883,452 L 1882,451 Z M 463,445 L 493,434 L 1816,434 L 1850,449 L 1864,463 L 1864,473 L 1857,474 L 1858,464 L 1851,458 L 1835,457 L 1833,447 L 1821,444 L 1821,450 L 1813,450 L 1805,440 L 1797,440 L 1793,448 L 1785,447 L 1783,440 L 1774,440 L 1771,447 L 1762,447 L 1760,440 L 1751,440 L 1748,447 L 1740,447 L 1737,440 L 1728,440 L 1725,447 L 1716,447 L 1713,440 L 1702,440 L 1700,447 L 1692,447 L 1689,440 L 1680,440 L 1677,447 L 1669,447 L 1667,440 L 1658,440 L 1655,446 L 1641,440 L 1638,449 L 1621,446 L 1626,444 L 1610,440 L 1607,447 L 1599,447 L 1597,440 L 1586,442 L 1586,447 L 1581,440 L 1572,440 L 1569,447 L 1562,447 L 1559,440 L 1548,440 L 1545,447 L 1536,447 L 1534,440 L 1523,440 L 1520,446 L 1510,446 L 1507,440 L 1496,440 L 1493,446 L 1485,446 L 1482,440 L 1473,440 L 1470,446 L 1462,446 L 1459,440 L 1444,446 L 1439,440 L 1430,446 L 1411,440 L 1401,446 L 1406,444 L 1389,440 L 1386,446 L 1380,445 L 1385,447 L 1377,447 L 1375,440 L 1367,440 L 1362,447 L 1354,446 L 1352,440 L 1337,440 L 1332,447 L 1325,447 L 1322,440 L 1304,444 L 1310,447 L 1303,447 L 1301,440 L 1289,446 L 1273,440 L 1271,447 L 1266,446 L 1269,442 L 1264,446 L 1262,440 L 1254,440 L 1248,448 L 1244,441 L 1231,446 L 1229,440 L 1219,440 L 1215,447 L 1206,447 L 1203,440 L 1192,440 L 1188,447 L 1180,446 L 1178,440 L 1168,440 L 1165,446 L 1155,446 L 1152,440 L 1143,440 L 1140,446 L 1133,446 L 1131,440 L 1119,445 L 1097,440 L 1094,446 L 1086,446 L 1085,440 L 1075,440 L 1062,447 L 1057,440 L 1048,440 L 1044,447 L 1035,447 L 1032,440 L 1023,440 L 1020,446 L 1000,440 L 996,447 L 988,446 L 987,440 L 975,440 L 971,447 L 961,440 L 952,440 L 949,446 L 942,440 L 932,446 L 915,440 L 911,447 L 903,447 L 900,440 L 891,440 L 888,447 L 879,447 L 877,440 L 868,440 L 864,447 L 856,447 L 854,440 L 842,440 L 838,447 L 833,440 L 824,440 L 821,446 L 814,446 L 812,440 L 794,444 L 799,446 L 789,440 L 778,440 L 776,445 L 764,445 L 761,440 L 740,445 L 738,440 L 728,440 L 726,445 L 692,440 L 689,447 L 681,447 L 678,440 L 670,440 L 666,447 L 659,447 L 657,440 L 648,440 L 644,447 L 636,447 L 634,440 L 619,440 L 617,447 L 608,447 L 607,440 L 587,444 L 591,447 L 581,440 L 572,440 L 569,447 L 560,446 L 559,440 L 550,440 L 547,446 L 540,446 L 539,440 L 526,442 L 531,445 L 523,440 L 513,444 L 495,440 L 491,447 L 470,447 L 467,455 Z M 546,349 L 549,349 L 550,350 L 551,350 L 552,351 L 552,353 L 556,353 L 558,355 L 558,356 L 559,357 L 559,358 L 560,358 L 561,359 L 561,362 L 559,364 L 559,365 L 558,366 L 558,367 L 557,368 L 551,362 L 551,361 L 549,359 L 549,358 L 547,356 L 547,355 L 546,354 L 546,353 L 545,352 L 545,350 Z M 602,349 L 602,352 L 597,357 L 596,357 L 594,359 L 593,359 L 591,361 L 590,361 L 588,363 L 587,363 L 584,366 L 583,366 L 582,367 L 579,364 L 578,364 L 577,363 L 576,363 L 574,361 L 573,361 L 571,359 L 571,355 L 572,354 L 574,354 L 576,352 L 586,352 L 587,351 L 588,351 L 589,350 L 589,349 L 590,348 L 601,348 Z M 1901,337 L 1904,334 L 1909,334 L 1912,337 L 1912,338 L 1911,339 L 1910,338 L 1902,338 Z M 1774,321 L 1776,319 L 1782,319 L 1783,320 L 1786,320 L 1787,321 L 1788,321 L 1789,322 L 1788,323 L 1782,323 L 1781,322 L 1775,322 Z M 558,306 L 559,307 L 559,308 L 561,310 L 560,311 L 560,314 L 559,315 L 559,316 L 558,317 L 558,318 L 557,319 L 557,331 L 558,332 L 560,332 L 561,333 L 560,334 L 558,334 L 555,337 L 554,337 L 553,338 L 552,338 L 552,339 L 551,340 L 545,340 L 544,339 L 544,325 L 545,324 L 545,322 L 546,321 L 546,320 L 547,319 L 547,318 L 548,317 L 548,316 L 551,313 L 551,312 L 554,309 L 554,308 L 555,307 L 556,307 L 557,306 Z M 1690,310 L 1691,309 L 1691,307 L 1694,304 L 1702,304 L 1703,305 L 1702,306 L 1697,306 L 1702,306 L 1703,305 L 1704,305 L 1706,307 L 1706,312 L 1705,313 L 1699,313 L 1698,312 L 1691,312 L 1690,311 Z M 721,266 L 723,264 L 724,264 L 725,263 L 753,263 L 756,266 L 756,270 L 755,271 L 722,271 L 721,270 Z M 186,186 L 190,186 L 191,187 L 194,187 L 195,188 L 197,188 L 198,189 L 198,190 L 199,191 L 199,194 L 200,195 L 200,201 L 199,202 L 199,205 L 196,208 L 194,208 L 193,207 L 192,207 L 193,207 L 194,208 L 193,209 L 191,209 L 190,210 L 187,210 L 186,209 L 186,208 L 185,207 L 185,206 L 184,205 L 184,190 L 185,189 L 185,187 Z M 148,187 L 149,187 L 150,186 L 166,186 L 167,187 L 167,208 L 165,210 L 151,210 L 148,207 L 149,206 L 148,207 L 146,205 L 147,204 L 146,203 L 146,200 L 147,199 L 147,188 Z M 1467,149 L 1468,148 L 1469,148 L 1471,146 L 1481,146 L 1483,148 L 1482,149 L 1483,148 L 1484,149 L 1484,150 L 1485,151 L 1485,155 L 1484,156 L 1484,157 L 1481,160 L 1470,160 L 1466,156 L 1466,151 L 1467,150 Z M 926,138 L 927,139 L 927,140 L 926,141 L 926,142 L 925,143 L 925,145 L 924,146 L 924,148 L 923,149 L 923,151 L 922,152 L 922,154 L 921,155 L 920,154 L 919,155 L 911,155 L 910,154 L 912,152 L 912,146 L 913,145 L 915,145 L 917,143 L 918,143 L 921,140 L 922,140 L 923,139 L 924,139 L 925,138 Z M 945,103 L 951,103 L 952,104 L 951,105 L 946,105 L 951,105 L 953,107 L 954,106 L 955,107 L 955,108 L 956,109 L 955,110 L 955,113 L 952,116 L 951,116 L 949,118 L 948,117 L 945,117 L 944,116 L 943,116 L 941,114 L 941,106 L 943,104 L 944,104 Z" fill="black" fill-rule="evenodd"/>
</svg>