<svg xmlns="http://www.w3.org/2000/svg" width="2172" height="724" viewBox="0 0 2172 724">
<rect width="100%" height="100%" fill="white"/>
<path d="M 1346,594 L 1346,596 L 1347,596 L 1348,597 L 1347,598 L 1347,605 L 1346,606 L 1346,609 L 1346,608 L 1347,607 L 1348,608 L 1349,607 L 1349,595 L 1348,595 L 1347,596 L 1346,595 Z" fill="black" fill-rule="evenodd"/>
<path d="M 1917,429 L 1882,345 L 1846,340 L 1830,311 L 1809,335 L 1743,321 L 1731,307 L 1632,295 L 1607,306 L 1508,294 L 1500,279 L 1407,280 L 1405,270 L 1390,268 L 1419,262 L 1476,225 L 1487,202 L 1503,202 L 1500,172 L 1486,170 L 1483,149 L 1505,150 L 1504,126 L 1478,133 L 1461,120 L 1401,111 L 1393,85 L 1383,104 L 1368,106 L 1350,91 L 1358,75 L 1312,62 L 1240,79 L 1250,91 L 1228,93 L 1224,80 L 1181,80 L 1176,93 L 1157,94 L 1147,23 L 1140,77 L 1116,76 L 1107,65 L 1099,96 L 1047,103 L 1038,80 L 1030,107 L 981,127 L 962,113 L 949,151 L 913,138 L 889,153 L 882,173 L 853,182 L 228,190 L 145,174 L 102,175 L 89,199 L 102,233 L 227,217 L 853,219 L 887,229 L 905,250 L 936,249 L 950,261 L 923,272 L 834,260 L 795,272 L 781,266 L 765,285 L 719,300 L 699,286 L 682,322 L 644,357 L 638,344 L 657,340 L 635,338 L 626,362 L 608,362 L 609,341 L 586,327 L 577,355 L 610,397 L 601,408 L 517,415 L 466,447 L 479,477 L 464,490 L 474,495 L 462,497 L 459,527 L 469,528 L 461,538 L 479,557 L 476,569 L 522,605 L 533,602 L 549,620 L 646,665 L 1690,665 L 1792,620 L 1795,610 L 1812,610 L 1820,596 L 1831,600 L 1866,569 L 1878,544 L 1869,535 L 1881,526 L 1864,482 L 1893,476 L 1882,432 Z M 1657,644 L 1658,643 L 1660,643 L 1661,644 L 1662,644 L 1663,645 L 1665,645 L 1666,646 L 1665,647 L 1659,647 L 1657,645 Z M 1580,644 L 1580,646 L 1579,647 L 1572,647 L 1571,646 L 1572,645 L 1574,645 L 1575,644 L 1578,644 L 1579,643 Z M 1423,644 L 1422,645 L 1422,646 L 1421,647 L 1414,647 L 1413,646 L 1414,645 L 1417,645 L 1418,644 L 1420,644 L 1421,643 L 1422,643 Z M 1183,644 L 1183,646 L 1182,647 L 1175,647 L 1174,646 L 1175,645 L 1178,645 L 1179,644 L 1180,644 L 1181,645 L 1180,644 L 1181,643 L 1182,643 Z M 687,642 L 687,644 L 686,645 L 686,646 L 685,647 L 676,647 L 675,646 L 676,645 L 678,645 L 679,644 L 680,644 L 681,645 L 683,645 L 681,645 L 680,644 L 681,643 L 682,643 L 683,642 L 684,642 L 685,641 L 686,641 Z M 1530,641 L 1531,640 L 1532,641 L 1533,641 L 1534,642 L 1535,642 L 1536,643 L 1535,644 L 1534,644 L 1533,645 L 1537,645 L 1538,644 L 1539,644 L 1540,645 L 1542,645 L 1543,646 L 1542,647 L 1532,647 L 1531,646 L 1531,645 L 1530,644 Z M 1131,640 L 1132,639 L 1133,640 L 1134,640 L 1135,641 L 1136,641 L 1137,642 L 1138,642 L 1139,643 L 1140,643 L 1141,644 L 1140,645 L 1138,645 L 1137,644 L 1135,644 L 1135,645 L 1140,645 L 1141,644 L 1142,644 L 1143,645 L 1145,645 L 1146,646 L 1145,647 L 1134,647 L 1133,646 L 1133,645 L 1131,643 Z M 840,640 L 840,643 L 839,644 L 839,646 L 838,647 L 826,647 L 825,646 L 826,645 L 828,645 L 829,644 L 830,644 L 831,645 L 835,645 L 835,644 L 833,644 L 832,643 L 833,642 L 834,642 L 835,641 L 836,641 L 838,639 L 839,639 Z M 1024,639 L 1025,638 L 1026,638 L 1028,640 L 1029,640 L 1030,641 L 1031,641 L 1032,642 L 1033,642 L 1034,643 L 1035,643 L 1036,644 L 1037,644 L 1038,645 L 1040,645 L 1041,646 L 1040,647 L 1026,647 L 1025,646 L 1025,644 L 1024,643 Z M 884,638 L 885,637 L 886,637 L 889,640 L 890,640 L 891,641 L 889,643 L 891,643 L 890,642 L 891,641 L 892,641 L 894,643 L 895,643 L 896,644 L 895,645 L 890,645 L 895,645 L 896,644 L 897,644 L 898,645 L 901,645 L 902,646 L 901,647 L 887,647 L 886,646 L 886,644 L 885,643 L 885,642 L 884,641 Z M 1088,637 L 1088,639 L 1087,640 L 1087,643 L 1086,644 L 1086,646 L 1085,647 L 1071,647 L 1070,646 L 1071,645 L 1073,645 L 1074,644 L 1075,644 L 1076,645 L 1082,645 L 1080,645 L 1079,644 L 1078,645 L 1076,645 L 1075,644 L 1076,643 L 1077,643 L 1078,642 L 1079,642 L 1080,641 L 1081,641 L 1083,639 L 1084,639 L 1087,636 Z M 950,637 L 950,640 L 949,641 L 949,642 L 948,643 L 947,642 L 948,643 L 948,645 L 946,647 L 938,647 L 936,645 L 938,643 L 939,643 L 940,642 L 941,642 L 942,641 L 943,641 L 944,642 L 945,642 L 944,642 L 943,641 L 946,638 L 947,638 L 949,636 Z M 1722,623 L 1723,624 L 1723,628 L 1724,629 L 1724,630 L 1723,631 L 1722,631 L 1721,632 L 1720,632 L 1719,633 L 1718,633 L 1716,631 L 1717,630 L 1717,629 L 1720,626 L 1720,625 Z M 617,621 L 618,622 L 618,623 L 619,624 L 619,625 L 621,627 L 621,628 L 623,630 L 623,631 L 622,632 L 623,633 L 622,634 L 620,634 L 619,633 L 620,632 L 619,633 L 618,633 L 615,630 L 616,629 L 616,622 Z M 1661,620 L 1662,619 L 1666,619 L 1667,620 L 1667,623 L 1666,624 L 1663,624 L 1661,622 Z M 1538,621 L 1539,620 L 1540,620 L 1541,619 L 1543,619 L 1544,620 L 1544,621 L 1545,622 L 1545,623 L 1543,625 L 1542,625 L 1541,624 L 1540,624 L 1538,622 Z M 1277,621 L 1279,619 L 1281,619 L 1283,621 L 1283,623 L 1282,624 L 1279,624 L 1277,622 Z M 1144,619 L 1146,619 L 1148,621 L 1148,623 L 1147,624 L 1146,624 L 1145,625 L 1142,622 L 1142,621 Z M 898,620 L 899,619 L 902,619 L 904,621 L 904,623 L 903,624 L 900,624 L 898,622 L 899,621 L 900,621 L 899,621 Z M 801,625 L 802,624 L 802,623 L 803,622 L 803,621 L 805,619 L 806,620 L 812,620 L 813,619 L 814,619 L 815,620 L 815,621 L 816,622 L 816,623 L 817,624 L 817,627 L 814,630 L 805,630 L 804,629 L 803,629 L 802,628 L 803,627 L 802,628 L 801,627 Z M 1693,618 L 1696,618 L 1698,620 L 1698,621 L 1699,622 L 1697,624 L 1696,624 L 1695,625 L 1693,625 L 1691,623 L 1691,620 Z M 1671,625 L 1672,624 L 1672,622 L 1673,621 L 1673,620 L 1675,618 L 1683,618 L 1685,620 L 1685,621 L 1684,622 L 1685,621 L 1686,622 L 1686,624 L 1687,625 L 1687,627 L 1685,629 L 1683,629 L 1682,630 L 1677,630 L 1676,629 L 1673,629 L 1671,627 Z M 1550,623 L 1551,622 L 1551,621 L 1553,619 L 1554,620 L 1558,620 L 1554,620 L 1553,619 L 1554,618 L 1561,618 L 1562,619 L 1562,620 L 1564,622 L 1564,628 L 1563,629 L 1561,629 L 1560,630 L 1554,630 L 1553,629 L 1551,629 L 1550,628 Z M 1416,618 L 1417,618 L 1420,621 L 1420,622 L 1417,625 L 1414,625 L 1413,624 L 1414,623 L 1416,623 L 1417,622 L 1417,621 L 1414,621 L 1413,620 L 1414,619 L 1415,619 Z M 1392,624 L 1393,623 L 1393,622 L 1394,621 L 1394,620 L 1395,619 L 1396,620 L 1401,620 L 1396,620 L 1395,619 L 1396,618 L 1403,618 L 1406,621 L 1406,622 L 1407,623 L 1407,628 L 1406,629 L 1405,629 L 1404,630 L 1396,630 L 1395,629 L 1393,629 L 1392,628 Z M 1289,621 L 1292,618 L 1299,618 L 1300,619 L 1299,620 L 1295,620 L 1299,620 L 1300,621 L 1301,620 L 1303,622 L 1303,628 L 1301,630 L 1292,630 L 1291,629 L 1289,629 L 1287,627 L 1288,626 L 1288,623 L 1289,622 Z M 1175,618 L 1177,618 L 1178,619 L 1179,619 L 1180,620 L 1180,623 L 1179,624 L 1178,624 L 1177,625 L 1175,625 L 1173,623 L 1173,620 Z M 1152,626 L 1153,625 L 1153,623 L 1154,622 L 1154,621 L 1157,618 L 1164,618 L 1166,620 L 1166,621 L 1167,622 L 1167,623 L 1168,624 L 1168,628 L 1167,629 L 1165,629 L 1164,630 L 1156,630 L 1155,629 L 1154,629 L 1152,627 Z M 1069,618 L 1072,618 L 1074,620 L 1074,622 L 1071,625 L 1069,625 L 1067,623 L 1067,620 Z M 1046,624 L 1047,623 L 1047,622 L 1048,621 L 1049,622 L 1048,621 L 1051,618 L 1058,618 L 1061,621 L 1061,622 L 1062,623 L 1062,628 L 1061,629 L 1060,629 L 1059,630 L 1051,630 L 1050,629 L 1051,628 L 1056,628 L 1051,628 L 1050,629 L 1047,629 L 1046,628 Z M 1038,618 L 1039,618 L 1041,620 L 1041,623 L 1039,625 L 1038,624 L 1037,624 L 1035,622 L 1035,621 L 1036,620 L 1037,621 L 1036,620 Z M 932,618 L 933,618 L 934,619 L 935,619 L 936,620 L 935,621 L 934,621 L 933,622 L 932,621 L 931,622 L 932,623 L 933,623 L 934,622 L 935,622 L 936,623 L 934,625 L 931,625 L 929,623 L 929,621 Z M 909,622 L 913,618 L 920,618 L 923,621 L 923,622 L 924,623 L 924,628 L 923,629 L 922,629 L 921,628 L 922,627 L 921,628 L 915,628 L 921,628 L 922,629 L 921,630 L 912,630 L 911,629 L 910,629 L 909,628 Z M 824,618 L 826,618 L 829,621 L 829,623 L 827,625 L 826,625 L 825,626 L 824,626 L 821,623 L 821,621 Z M 792,618 L 794,618 L 797,621 L 797,622 L 795,624 L 792,624 L 790,622 L 790,620 Z M 678,618 L 680,620 L 680,623 L 678,625 L 677,625 L 676,626 L 675,626 L 672,623 L 672,621 L 674,619 L 675,619 L 676,620 L 676,621 L 677,622 L 677,623 L 678,622 L 678,621 L 677,620 L 676,620 L 675,619 L 676,618 Z M 657,618 L 664,618 L 665,619 L 665,620 L 667,622 L 667,628 L 665,630 L 656,630 L 655,629 L 653,629 L 652,628 L 652,625 L 653,624 L 653,623 L 654,622 L 654,621 Z M 643,618 L 645,618 L 648,621 L 648,622 L 647,623 L 647,624 L 646,625 L 645,625 L 644,624 L 643,624 L 641,622 L 641,620 Z M 1312,617 L 1313,617 L 1317,621 L 1316,622 L 1316,623 L 1315,624 L 1314,624 L 1313,625 L 1310,625 L 1309,624 L 1309,619 L 1310,618 L 1311,618 Z M 1267,603 L 1268,602 L 1269,602 L 1270,603 L 1273,603 L 1274,604 L 1278,604 L 1279,605 L 1280,605 L 1281,606 L 1281,608 L 1280,609 L 1279,608 L 1278,609 L 1279,610 L 1278,611 L 1277,611 L 1276,612 L 1275,612 L 1274,611 L 1273,611 L 1274,611 L 1275,612 L 1274,613 L 1273,613 L 1272,614 L 1271,614 L 1270,613 L 1271,612 L 1271,611 L 1271,612 L 1270,613 L 1269,612 L 1269,611 L 1268,610 L 1268,608 L 1267,607 Z M 1191,603 L 1191,604 L 1190,605 L 1190,608 L 1189,609 L 1189,611 L 1187,613 L 1186,613 L 1185,612 L 1184,612 L 1183,611 L 1182,611 L 1180,609 L 1181,608 L 1180,607 L 1179,608 L 1177,606 L 1178,605 L 1180,605 L 1181,604 L 1185,604 L 1186,605 L 1188,605 L 1186,605 L 1185,604 L 1186,603 L 1188,603 L 1189,602 L 1190,602 Z M 947,603 L 947,607 L 946,608 L 946,610 L 945,611 L 944,610 L 944,609 L 943,610 L 939,610 L 938,609 L 937,610 L 936,610 L 933,607 L 935,605 L 936,605 L 937,604 L 940,604 L 941,603 L 943,603 L 944,602 L 946,602 Z M 691,603 L 691,608 L 690,609 L 690,610 L 689,611 L 688,610 L 686,610 L 685,609 L 684,610 L 683,609 L 682,609 L 680,607 L 679,608 L 678,607 L 678,606 L 679,605 L 681,605 L 682,604 L 685,604 L 686,603 L 689,603 L 690,602 Z M 1528,602 L 1529,601 L 1530,601 L 1531,602 L 1533,602 L 1534,603 L 1536,603 L 1537,604 L 1540,604 L 1542,606 L 1542,608 L 1539,611 L 1538,611 L 1537,610 L 1535,610 L 1537,610 L 1538,611 L 1537,612 L 1536,612 L 1535,613 L 1533,613 L 1532,614 L 1530,612 L 1530,610 L 1529,609 L 1529,606 L 1528,605 Z M 1430,602 L 1430,608 L 1429,609 L 1429,611 L 1427,613 L 1426,612 L 1423,612 L 1422,611 L 1423,610 L 1427,610 L 1426,610 L 1425,609 L 1424,609 L 1422,611 L 1421,610 L 1420,610 L 1418,608 L 1419,607 L 1419,606 L 1418,605 L 1419,604 L 1421,604 L 1422,603 L 1425,603 L 1426,602 L 1428,602 L 1429,601 Z M 1025,602 L 1026,601 L 1027,602 L 1029,602 L 1030,603 L 1033,603 L 1034,604 L 1037,604 L 1039,606 L 1039,608 L 1036,611 L 1035,611 L 1034,612 L 1033,612 L 1032,613 L 1031,613 L 1030,614 L 1029,614 L 1028,613 L 1029,612 L 1029,611 L 1028,610 L 1028,609 L 1028,610 L 1027,611 L 1026,610 L 1026,608 L 1025,607 Z M 780,602 L 781,601 L 782,602 L 784,602 L 785,603 L 788,603 L 789,604 L 792,604 L 794,606 L 794,608 L 792,610 L 791,610 L 790,611 L 789,610 L 787,610 L 789,610 L 790,611 L 789,612 L 788,612 L 787,613 L 785,613 L 784,614 L 783,613 L 783,612 L 782,611 L 782,610 L 781,609 L 781,605 L 780,604 Z M 1208,597 L 1209,596 L 1212,596 L 1214,598 L 1245,598 L 1247,596 L 1248,596 L 1250,598 L 1250,607 L 1251,608 L 1251,611 L 1252,612 L 1252,615 L 1253,616 L 1253,619 L 1254,620 L 1254,621 L 1255,622 L 1255,623 L 1256,624 L 1256,625 L 1258,627 L 1258,628 L 1261,631 L 1261,632 L 1266,637 L 1267,637 L 1270,640 L 1271,640 L 1272,641 L 1273,641 L 1275,643 L 1276,643 L 1278,645 L 1278,646 L 1277,647 L 1263,647 L 1262,646 L 1262,643 L 1261,642 L 1261,639 L 1260,638 L 1260,636 L 1259,635 L 1259,633 L 1258,632 L 1258,631 L 1257,630 L 1252,630 L 1251,631 L 1250,631 L 1250,632 L 1249,633 L 1249,635 L 1248,636 L 1248,639 L 1247,640 L 1247,643 L 1245,645 L 1245,646 L 1244,647 L 1233,647 L 1232,646 L 1231,647 L 1229,644 L 1229,641 L 1228,640 L 1228,636 L 1227,635 L 1227,633 L 1226,632 L 1226,631 L 1225,631 L 1224,630 L 1220,630 L 1219,631 L 1218,631 L 1218,633 L 1216,636 L 1216,639 L 1215,640 L 1215,643 L 1214,644 L 1214,646 L 1213,647 L 1200,647 L 1199,646 L 1199,644 L 1198,643 L 1198,639 L 1197,638 L 1197,634 L 1196,633 L 1197,632 L 1197,631 L 1200,628 L 1200,627 L 1201,626 L 1202,627 L 1203,626 L 1202,625 L 1202,624 L 1203,623 L 1203,622 L 1204,621 L 1205,622 L 1206,621 L 1206,620 L 1205,619 L 1205,617 L 1206,616 L 1206,614 L 1207,613 L 1207,609 L 1208,608 Z M 1702,595 L 1704,595 L 1705,596 L 1705,597 L 1706,596 L 1707,597 L 1707,596 L 1708,595 L 1709,596 L 1709,599 L 1710,600 L 1710,603 L 1709,604 L 1709,608 L 1708,609 L 1708,610 L 1707,611 L 1706,610 L 1707,611 L 1706,612 L 1703,612 L 1702,611 L 1701,611 L 1700,610 L 1699,610 L 1697,608 L 1697,599 L 1700,596 L 1701,596 Z M 1652,595 L 1654,595 L 1655,596 L 1654,597 L 1653,597 L 1653,598 L 1655,598 L 1654,597 L 1655,596 L 1656,596 L 1657,597 L 1659,597 L 1661,599 L 1662,599 L 1663,600 L 1663,607 L 1664,608 L 1661,611 L 1660,611 L 1658,613 L 1657,613 L 1656,614 L 1655,614 L 1654,615 L 1652,613 L 1652,611 L 1651,610 L 1651,609 L 1650,608 L 1650,598 L 1651,597 L 1651,596 Z M 1373,595 L 1376,595 L 1377,596 L 1379,596 L 1381,598 L 1382,598 L 1384,600 L 1384,609 L 1381,612 L 1380,612 L 1379,611 L 1380,610 L 1379,610 L 1378,611 L 1377,611 L 1376,612 L 1377,612 L 1378,613 L 1377,614 L 1375,614 L 1374,613 L 1374,612 L 1373,611 L 1373,610 L 1372,609 L 1372,606 L 1371,605 L 1371,599 L 1372,598 L 1372,596 Z M 966,596 L 968,596 L 969,595 L 970,596 L 970,597 L 971,598 L 1000,598 L 1001,597 L 1002,597 L 1003,596 L 1006,596 L 1008,598 L 1008,610 L 1009,611 L 1009,615 L 1010,616 L 1010,618 L 1011,619 L 1011,620 L 1012,621 L 1012,622 L 1013,623 L 1013,624 L 1014,625 L 1014,626 L 1016,628 L 1016,629 L 1017,630 L 1016,631 L 1014,631 L 1013,632 L 1013,633 L 1012,634 L 1012,636 L 1011,637 L 1011,639 L 1010,640 L 1010,643 L 1009,644 L 1009,646 L 1008,647 L 996,647 L 994,645 L 994,643 L 993,642 L 993,638 L 992,637 L 992,634 L 991,633 L 991,631 L 990,631 L 989,630 L 984,630 L 983,631 L 982,631 L 982,633 L 981,634 L 981,636 L 980,637 L 980,640 L 979,641 L 979,643 L 978,644 L 978,646 L 977,647 L 965,647 L 964,646 L 964,645 L 963,644 L 963,640 L 962,639 L 962,636 L 961,635 L 961,634 L 960,633 L 960,632 L 959,631 L 958,631 L 956,629 L 956,628 L 958,626 L 958,625 L 960,623 L 960,622 L 961,621 L 961,620 L 962,619 L 962,617 L 963,616 L 963,613 L 964,612 L 964,608 L 965,607 L 965,597 Z M 1585,594 L 1586,595 L 1586,596 L 1587,597 L 1587,607 L 1586,608 L 1586,610 L 1585,611 L 1584,610 L 1584,609 L 1582,609 L 1580,611 L 1579,611 L 1575,607 L 1575,600 L 1579,596 L 1580,596 L 1581,595 L 1583,595 L 1584,594 Z M 1325,594 L 1326,595 L 1326,597 L 1327,598 L 1327,605 L 1326,606 L 1326,609 L 1325,610 L 1325,611 L 1324,612 L 1323,611 L 1324,612 L 1323,613 L 1321,613 L 1320,612 L 1319,612 L 1314,607 L 1315,606 L 1315,599 L 1317,597 L 1318,597 L 1319,596 L 1320,596 L 1321,595 L 1322,595 L 1323,594 Z M 1133,594 L 1134,594 L 1135,595 L 1137,595 L 1138,596 L 1139,596 L 1141,598 L 1142,598 L 1144,600 L 1144,609 L 1140,613 L 1139,613 L 1138,614 L 1136,614 L 1135,615 L 1133,613 L 1133,611 L 1132,610 L 1132,607 L 1131,606 L 1131,598 L 1132,597 L 1132,595 Z M 1083,594 L 1084,595 L 1084,596 L 1085,597 L 1085,608 L 1084,609 L 1084,610 L 1083,611 L 1083,612 L 1082,613 L 1079,613 L 1078,612 L 1077,612 L 1072,607 L 1072,606 L 1073,605 L 1073,600 L 1074,599 L 1075,600 L 1074,599 L 1076,597 L 1077,597 L 1078,596 L 1079,596 L 1080,595 L 1082,595 Z M 889,594 L 890,594 L 891,595 L 893,595 L 894,596 L 895,596 L 897,598 L 898,598 L 900,600 L 900,606 L 901,607 L 901,608 L 897,612 L 896,612 L 895,611 L 893,611 L 895,611 L 896,612 L 895,613 L 894,613 L 893,614 L 890,614 L 889,613 L 889,612 L 888,611 L 888,608 L 887,607 L 887,597 L 888,596 L 888,595 Z M 838,594 L 840,596 L 840,608 L 839,609 L 839,610 L 838,611 L 838,612 L 837,613 L 835,613 L 834,612 L 833,612 L 832,611 L 833,610 L 835,610 L 836,611 L 836,610 L 835,609 L 834,609 L 832,611 L 831,611 L 827,607 L 827,606 L 828,605 L 828,600 L 831,597 L 832,597 L 833,598 L 834,598 L 833,598 L 832,597 L 833,596 L 834,596 L 835,595 L 837,595 Z M 633,594 L 634,594 L 635,595 L 636,595 L 637,596 L 639,596 L 641,598 L 642,598 L 644,600 L 644,608 L 641,611 L 640,610 L 639,610 L 640,610 L 641,611 L 640,612 L 639,612 L 638,613 L 637,613 L 636,614 L 634,614 L 633,613 L 633,611 L 632,610 L 632,608 L 631,607 L 631,598 L 632,597 L 632,595 Z M 709,598 L 711,596 L 714,596 L 715,595 L 718,595 L 719,594 L 722,594 L 723,593 L 725,595 L 725,596 L 755,596 L 757,594 L 758,594 L 759,595 L 761,595 L 763,597 L 763,610 L 764,611 L 764,614 L 765,615 L 765,617 L 766,618 L 766,620 L 765,621 L 766,620 L 767,621 L 767,622 L 768,623 L 768,624 L 769,625 L 769,626 L 772,629 L 772,630 L 774,632 L 774,633 L 779,638 L 780,638 L 782,640 L 781,641 L 782,642 L 781,643 L 781,644 L 780,645 L 780,646 L 779,647 L 768,647 L 767,646 L 767,644 L 766,643 L 766,641 L 765,640 L 765,638 L 764,637 L 764,635 L 763,634 L 763,632 L 762,631 L 755,631 L 755,632 L 753,635 L 753,638 L 752,639 L 752,642 L 751,643 L 751,644 L 749,647 L 737,647 L 735,645 L 735,643 L 734,642 L 734,639 L 733,638 L 733,635 L 732,634 L 732,632 L 730,630 L 725,630 L 724,631 L 723,631 L 723,632 L 722,633 L 722,635 L 721,636 L 721,638 L 720,639 L 720,642 L 718,644 L 718,646 L 717,647 L 703,647 L 702,646 L 702,644 L 701,643 L 701,638 L 700,637 L 700,635 L 699,634 L 699,632 L 698,631 L 698,630 L 702,626 L 702,625 L 703,624 L 703,623 L 704,622 L 704,621 L 706,618 L 706,616 L 707,615 L 707,613 L 708,612 L 708,607 L 709,606 Z M 1511,597 L 1511,608 L 1512,609 L 1512,613 L 1513,614 L 1513,617 L 1514,618 L 1514,619 L 1515,620 L 1515,621 L 1516,622 L 1517,625 L 1521,630 L 1518,632 L 1518,634 L 1517,635 L 1517,637 L 1516,638 L 1516,642 L 1515,643 L 1515,645 L 1513,647 L 1501,647 L 1499,644 L 1499,640 L 1498,639 L 1498,636 L 1497,635 L 1497,633 L 1496,632 L 1496,631 L 1495,631 L 1494,630 L 1489,630 L 1487,632 L 1487,635 L 1486,636 L 1486,638 L 1485,639 L 1485,642 L 1484,643 L 1483,642 L 1483,641 L 1483,642 L 1484,643 L 1484,645 L 1482,647 L 1470,647 L 1468,644 L 1468,641 L 1467,640 L 1467,636 L 1465,633 L 1465,631 L 1464,631 L 1463,630 L 1458,630 L 1456,632 L 1456,634 L 1455,635 L 1455,638 L 1454,639 L 1454,642 L 1453,643 L 1453,645 L 1451,647 L 1440,647 L 1438,645 L 1438,644 L 1437,643 L 1437,639 L 1436,638 L 1436,631 L 1439,628 L 1439,627 L 1442,624 L 1442,623 L 1443,622 L 1443,621 L 1445,618 L 1445,616 L 1446,615 L 1446,612 L 1447,611 L 1447,596 L 1448,595 L 1449,595 L 1450,594 L 1453,593 L 1455,596 L 1483,596 L 1487,591 L 1489,591 L 1490,592 L 1499,592 L 1500,593 L 1503,593 L 1504,594 L 1506,594 L 1507,595 L 1509,595 Z M 1818,583 L 1816,585 L 1815,585 L 1814,586 L 1813,586 L 1812,587 L 1811,587 L 1810,588 L 1807,588 L 1805,590 L 1804,590 L 1803,591 L 1796,584 L 1797,583 L 1805,583 L 1806,582 L 1810,582 L 1811,581 L 1815,581 L 1816,580 L 1817,581 L 1817,582 Z M 1395,574 L 1396,575 L 1396,578 L 1397,579 L 1397,583 L 1395,585 L 1394,584 L 1395,585 L 1394,586 L 1393,586 L 1392,587 L 1391,587 L 1390,588 L 1388,588 L 1387,587 L 1385,587 L 1384,586 L 1385,585 L 1386,585 L 1385,585 L 1384,584 L 1383,585 L 1382,584 L 1382,583 L 1381,582 L 1381,581 L 1384,578 L 1385,578 L 1387,576 L 1389,576 L 1390,575 L 1391,575 L 1392,574 Z M 1155,574 L 1156,575 L 1156,584 L 1155,585 L 1154,584 L 1155,585 L 1154,586 L 1153,586 L 1152,587 L 1151,587 L 1150,586 L 1148,586 L 1147,587 L 1145,587 L 1142,584 L 1142,583 L 1141,582 L 1141,581 L 1145,577 L 1146,577 L 1147,576 L 1148,576 L 1149,575 L 1150,575 L 1151,574 Z M 912,574 L 913,575 L 913,584 L 911,586 L 909,586 L 908,587 L 907,587 L 906,588 L 904,588 L 903,587 L 902,587 L 901,586 L 900,586 L 898,584 L 898,583 L 897,582 L 897,581 L 900,578 L 901,578 L 903,576 L 904,576 L 905,575 L 907,575 L 908,574 Z M 656,574 L 657,575 L 657,584 L 655,586 L 654,586 L 653,587 L 651,587 L 650,588 L 648,588 L 647,587 L 646,587 L 645,586 L 646,585 L 645,586 L 644,586 L 642,584 L 642,583 L 641,582 L 641,581 L 645,577 L 646,577 L 647,576 L 648,576 L 649,575 L 650,575 L 651,574 Z M 1684,574 L 1685,573 L 1686,573 L 1687,574 L 1686,575 L 1687,574 L 1690,574 L 1691,575 L 1693,575 L 1694,576 L 1695,576 L 1699,580 L 1699,582 L 1697,584 L 1696,583 L 1695,584 L 1696,585 L 1695,586 L 1694,586 L 1693,585 L 1692,585 L 1693,585 L 1694,586 L 1693,587 L 1692,587 L 1691,588 L 1690,587 L 1689,587 L 1688,586 L 1689,585 L 1690,585 L 1689,585 L 1688,586 L 1686,586 L 1683,583 L 1683,579 L 1684,578 Z M 1563,574 L 1564,573 L 1565,574 L 1568,574 L 1569,575 L 1571,575 L 1573,577 L 1574,577 L 1577,580 L 1577,581 L 1576,582 L 1576,583 L 1573,586 L 1572,586 L 1571,585 L 1568,585 L 1569,586 L 1568,587 L 1567,587 L 1566,586 L 1565,586 L 1562,583 L 1562,578 L 1563,577 Z M 1302,574 L 1303,573 L 1304,574 L 1307,574 L 1308,575 L 1307,576 L 1305,576 L 1306,577 L 1308,575 L 1309,575 L 1310,576 L 1311,576 L 1313,578 L 1314,578 L 1317,581 L 1317,582 L 1312,587 L 1311,587 L 1310,588 L 1308,588 L 1307,587 L 1305,587 L 1302,584 Z M 1060,574 L 1061,573 L 1062,574 L 1065,574 L 1066,575 L 1068,575 L 1069,576 L 1070,576 L 1075,581 L 1075,583 L 1072,586 L 1071,586 L 1070,587 L 1069,587 L 1068,586 L 1069,587 L 1068,588 L 1066,588 L 1065,587 L 1064,587 L 1063,586 L 1062,586 L 1061,585 L 1062,584 L 1061,585 L 1060,584 Z M 814,575 L 816,573 L 817,574 L 820,574 L 821,575 L 823,575 L 824,576 L 825,576 L 829,580 L 828,581 L 829,582 L 829,583 L 826,586 L 825,586 L 824,587 L 823,587 L 822,586 L 821,586 L 820,585 L 821,586 L 820,587 L 819,587 L 818,586 L 817,586 L 816,585 L 817,584 L 816,583 L 817,584 L 816,585 L 815,585 L 814,584 Z M 511,571 L 512,570 L 513,570 L 515,568 L 518,568 L 519,569 L 521,569 L 522,570 L 522,571 L 523,572 L 523,575 L 522,576 L 521,575 L 518,575 L 519,576 L 518,577 L 517,577 Z M 1435,570 L 1438,567 L 1439,567 L 1440,566 L 1441,566 L 1442,565 L 1445,565 L 1447,567 L 1446,566 L 1447,565 L 1449,565 L 1450,566 L 1450,572 L 1449,573 L 1448,573 L 1447,574 L 1445,574 L 1444,575 L 1442,575 L 1441,576 L 1440,576 L 1438,574 L 1438,573 Z M 1251,566 L 1252,565 L 1253,565 L 1254,566 L 1257,566 L 1258,565 L 1259,566 L 1260,566 L 1264,570 L 1258,576 L 1256,576 L 1255,575 L 1256,574 L 1255,573 L 1254,573 L 1253,574 L 1252,574 L 1251,573 Z M 1208,565 L 1209,566 L 1209,573 L 1208,574 L 1207,574 L 1206,575 L 1205,575 L 1204,576 L 1202,576 L 1201,577 L 1200,576 L 1200,575 L 1195,570 L 1196,569 L 1197,569 L 1200,566 L 1203,566 L 1204,565 Z M 1007,566 L 1008,565 L 1013,565 L 1014,566 L 1015,565 L 1016,565 L 1021,570 L 1017,574 L 1017,575 L 1015,577 L 1014,576 L 1013,576 L 1012,575 L 1010,575 L 1007,572 Z M 952,570 L 955,567 L 956,567 L 958,565 L 960,565 L 961,566 L 961,567 L 962,567 L 964,565 L 966,565 L 967,566 L 967,572 L 966,573 L 965,573 L 964,572 L 965,573 L 964,574 L 963,574 L 962,575 L 961,575 L 960,576 L 957,576 L 953,572 L 953,571 Z M 696,570 L 700,566 L 701,566 L 702,565 L 708,565 L 709,566 L 711,566 L 713,568 L 713,569 L 712,570 L 712,571 L 709,574 L 708,574 L 707,575 L 705,575 L 704,574 L 703,574 L 704,574 L 705,575 L 704,576 L 703,576 L 702,577 L 700,575 L 701,574 L 700,573 L 699,574 L 698,573 L 698,572 Z M 1509,565 L 1510,564 L 1521,564 L 1525,568 L 1525,570 L 1522,573 L 1521,572 L 1520,573 L 1516,573 L 1515,574 L 1514,573 L 1513,573 L 1511,571 L 1510,571 L 1509,570 Z M 761,572 L 761,566 L 763,564 L 766,564 L 767,565 L 772,565 L 773,566 L 774,566 L 777,569 L 775,571 L 774,570 L 775,571 L 772,574 L 772,575 L 771,576 L 770,576 L 769,575 L 767,575 L 766,574 L 764,574 L 763,573 L 762,573 Z M 1777,568 L 1778,567 L 1778,565 L 1779,564 L 1779,563 L 1780,562 L 1780,561 L 1781,560 L 1781,559 L 1782,558 L 1782,557 L 1784,555 L 1784,554 L 1786,552 L 1786,551 L 1791,546 L 1792,546 L 1793,547 L 1800,547 L 1801,546 L 1802,546 L 1804,548 L 1804,549 L 1805,550 L 1805,551 L 1806,552 L 1806,553 L 1808,555 L 1808,556 L 1810,558 L 1810,559 L 1811,560 L 1811,561 L 1813,563 L 1813,564 L 1814,565 L 1814,569 L 1813,570 L 1811,570 L 1810,571 L 1807,571 L 1806,572 L 1787,572 L 1786,571 L 1783,571 L 1782,570 L 1780,570 L 1779,569 L 1778,569 Z M 534,549 L 537,546 L 543,546 L 546,549 L 546,553 L 544,555 L 543,554 L 540,554 L 540,555 L 539,556 L 537,556 L 534,553 Z M 517,539 L 520,539 L 523,542 L 523,543 L 522,544 L 522,545 L 520,547 L 517,547 L 514,544 L 514,542 Z M 563,537 L 564,537 L 565,538 L 566,538 L 568,540 L 568,543 L 565,546 L 562,546 L 560,544 L 561,543 L 563,543 L 562,542 L 563,541 L 561,541 L 560,540 Z M 510,527 L 511,528 L 511,529 L 512,530 L 512,532 L 510,534 L 509,534 L 508,535 L 506,535 L 504,533 L 505,532 L 508,532 L 508,530 L 509,529 L 509,528 Z M 1847,527 L 1848,528 L 1848,531 L 1847,532 L 1847,535 L 1846,536 L 1846,538 L 1845,539 L 1845,541 L 1844,542 L 1844,543 L 1843,544 L 1843,545 L 1842,546 L 1842,547 L 1840,549 L 1840,550 L 1837,553 L 1837,554 L 1833,558 L 1832,558 L 1830,560 L 1825,555 L 1825,554 L 1823,552 L 1823,551 L 1822,550 L 1822,549 L 1821,548 L 1821,547 L 1819,545 L 1819,544 L 1818,543 L 1818,542 L 1817,541 L 1817,537 L 1819,535 L 1821,537 L 1822,537 L 1823,538 L 1824,538 L 1825,539 L 1826,539 L 1828,541 L 1829,541 L 1830,542 L 1832,542 L 1833,543 L 1834,543 L 1835,542 L 1839,542 L 1840,541 L 1841,541 L 1842,540 L 1842,539 L 1843,538 L 1843,536 L 1837,530 L 1836,530 L 1835,529 L 1834,529 L 1833,528 L 1831,528 L 1830,527 L 1831,526 L 1844,526 L 1845,527 Z M 1747,527 L 1751,527 L 1752,528 L 1753,528 L 1752,528 L 1751,527 L 1752,526 L 1764,526 L 1765,527 L 1771,527 L 1772,528 L 1772,530 L 1773,531 L 1773,532 L 1774,533 L 1774,534 L 1775,535 L 1775,536 L 1776,537 L 1776,539 L 1775,540 L 1775,541 L 1774,542 L 1774,543 L 1772,545 L 1772,546 L 1770,548 L 1770,549 L 1769,550 L 1769,551 L 1768,552 L 1768,553 L 1767,554 L 1767,555 L 1763,559 L 1762,559 L 1761,558 L 1760,558 L 1758,556 L 1759,555 L 1758,556 L 1755,553 L 1755,552 L 1753,550 L 1753,549 L 1754,548 L 1753,549 L 1752,548 L 1752,547 L 1751,546 L 1751,545 L 1750,544 L 1750,543 L 1749,542 L 1749,540 L 1748,539 L 1748,538 L 1747,537 L 1747,534 L 1746,533 L 1746,528 Z M 572,525 L 575,525 L 577,527 L 577,530 L 575,532 L 571,532 L 569,530 L 569,529 L 570,528 L 570,527 Z M 573,504 L 576,504 L 577,505 L 576,506 L 575,506 L 574,507 L 574,511 L 577,511 L 578,512 L 577,513 L 576,513 L 575,514 L 573,514 L 571,512 L 571,511 L 570,510 L 570,507 Z M 507,502 L 511,502 L 512,503 L 512,504 L 513,505 L 513,508 L 512,509 L 512,510 L 510,512 L 507,512 L 505,510 L 506,509 L 506,508 L 506,509 L 505,510 L 504,509 L 504,505 L 505,504 L 506,505 L 505,504 Z M 1843,501 L 1844,502 L 1844,503 L 1845,504 L 1845,505 L 1846,506 L 1846,508 L 1847,509 L 1847,511 L 1846,512 L 1844,512 L 1843,513 L 1834,513 L 1833,512 L 1834,511 L 1835,511 L 1836,510 L 1837,510 L 1840,507 L 1840,506 L 1842,504 L 1842,502 Z M 558,491 L 560,489 L 561,489 L 562,490 L 561,491 L 562,492 L 562,493 L 564,491 L 564,490 L 565,489 L 566,489 L 568,491 L 568,496 L 567,497 L 566,497 L 565,498 L 564,498 L 563,497 L 562,497 L 558,493 Z M 515,490 L 516,489 L 517,489 L 518,488 L 520,488 L 521,489 L 520,490 L 521,491 L 520,490 L 521,489 L 522,489 L 523,490 L 523,495 L 522,496 L 521,496 L 520,497 L 517,497 L 514,494 L 514,492 L 515,491 Z M 1634,489 L 1637,486 L 1638,486 L 1639,485 L 1642,485 L 1643,486 L 1642,487 L 1640,487 L 1643,487 L 1644,486 L 1648,490 L 1648,493 L 1647,494 L 1647,495 L 1645,497 L 1644,497 L 1643,496 L 1641,496 L 1643,496 L 1644,497 L 1643,498 L 1638,498 L 1637,497 L 1636,497 L 1634,495 Z M 1463,488 L 1465,486 L 1466,486 L 1467,485 L 1471,485 L 1472,486 L 1473,486 L 1474,487 L 1473,488 L 1474,489 L 1475,488 L 1476,489 L 1476,491 L 1477,492 L 1476,493 L 1476,495 L 1474,497 L 1473,497 L 1472,498 L 1466,498 L 1462,494 L 1462,490 L 1463,489 Z M 1225,488 L 1227,486 L 1228,486 L 1229,487 L 1231,487 L 1229,487 L 1228,486 L 1229,485 L 1233,485 L 1234,486 L 1235,486 L 1237,488 L 1237,489 L 1238,490 L 1238,494 L 1237,495 L 1237,496 L 1236,497 L 1235,497 L 1234,498 L 1229,498 L 1228,497 L 1227,497 L 1224,494 L 1224,490 L 1225,489 Z M 981,488 L 983,486 L 984,486 L 985,487 L 989,487 L 985,487 L 984,486 L 985,485 L 990,485 L 991,486 L 992,486 L 994,488 L 994,489 L 995,490 L 995,493 L 994,494 L 994,495 L 992,497 L 991,497 L 990,498 L 986,498 L 985,497 L 984,497 L 983,496 L 982,496 L 981,495 L 981,494 L 980,493 L 980,490 L 981,489 Z M 735,489 L 738,486 L 739,487 L 743,487 L 739,487 L 738,486 L 739,485 L 745,485 L 747,487 L 746,488 L 747,487 L 749,489 L 749,493 L 748,494 L 747,493 L 748,494 L 748,495 L 747,496 L 746,496 L 745,497 L 744,497 L 743,498 L 741,498 L 740,497 L 739,497 L 738,496 L 737,496 L 735,494 Z M 1766,482 L 1770,486 L 1770,487 L 1771,488 L 1771,489 L 1772,490 L 1772,491 L 1774,493 L 1774,494 L 1775,495 L 1775,496 L 1776,497 L 1776,498 L 1777,499 L 1777,500 L 1778,501 L 1778,502 L 1779,503 L 1779,504 L 1777,506 L 1777,507 L 1774,510 L 1774,511 L 1772,513 L 1771,512 L 1765,512 L 1764,513 L 1757,513 L 1756,512 L 1752,512 L 1751,511 L 1750,511 L 1748,509 L 1748,506 L 1749,505 L 1749,503 L 1750,502 L 1750,501 L 1751,500 L 1751,499 L 1752,498 L 1752,497 L 1753,496 L 1753,495 L 1755,493 L 1755,492 L 1756,491 L 1757,492 L 1759,490 L 1758,489 L 1762,485 L 1763,486 L 1766,486 L 1764,484 Z M 541,487 L 542,486 L 542,485 L 541,484 L 541,483 L 542,482 L 545,482 L 546,483 L 546,485 L 543,488 L 542,488 Z M 1826,481 L 1828,483 L 1829,483 L 1832,486 L 1831,487 L 1832,486 L 1834,488 L 1834,490 L 1832,492 L 1832,493 L 1829,496 L 1829,497 L 1826,500 L 1826,501 L 1823,504 L 1822,504 L 1819,507 L 1817,507 L 1814,504 L 1814,502 L 1815,501 L 1815,499 L 1816,498 L 1816,497 L 1817,496 L 1817,495 L 1818,494 L 1818,493 L 1819,492 L 1819,491 L 1820,490 L 1820,488 L 1821,487 L 1821,486 L 1822,485 L 1822,484 L 1823,483 L 1823,482 L 1824,481 Z M 538,479 L 543,479 L 544,480 L 543,481 L 539,481 L 541,483 L 541,485 L 540,486 L 542,488 L 541,489 L 540,489 L 539,488 L 538,488 L 535,485 L 535,483 L 536,482 L 536,481 Z M 1785,473 L 1790,473 L 1791,474 L 1790,475 L 1790,476 L 1791,477 L 1791,482 L 1790,483 L 1790,494 L 1789,495 L 1787,493 L 1787,492 L 1786,491 L 1786,489 L 1785,488 L 1785,487 L 1784,486 L 1784,485 L 1783,484 L 1783,483 L 1784,482 L 1785,483 L 1787,483 L 1787,480 L 1786,479 L 1787,478 L 1787,476 L 1788,475 L 1786,475 L 1785,476 L 1786,477 L 1786,478 L 1785,479 L 1785,480 L 1784,481 L 1783,480 L 1782,481 L 1781,480 L 1781,479 L 1780,478 L 1780,476 L 1782,474 L 1784,474 Z M 1803,472 L 1804,473 L 1809,473 L 1810,474 L 1809,475 L 1804,475 L 1806,475 L 1807,476 L 1807,481 L 1808,481 L 1808,477 L 1809,476 L 1809,475 L 1810,474 L 1811,475 L 1811,477 L 1812,478 L 1812,479 L 1811,480 L 1811,482 L 1810,483 L 1810,484 L 1809,485 L 1809,486 L 1808,487 L 1808,488 L 1807,489 L 1807,490 L 1806,491 L 1806,492 L 1805,493 L 1805,494 L 1804,495 L 1803,494 L 1803,486 L 1802,485 L 1802,473 Z M 1860,468 L 1862,470 L 1862,471 L 1863,472 L 1863,473 L 1864,474 L 1863,475 L 1861,475 L 1860,476 L 1860,477 L 1858,479 L 1857,478 L 1857,477 L 1858,476 L 1857,477 L 1856,477 L 1855,476 L 1857,474 L 1858,474 L 1859,473 L 1859,471 L 1858,470 L 1858,469 L 1859,468 Z M 1687,463 L 1699,463 L 1700,464 L 1700,468 L 1699,470 L 1700,468 L 1702,472 L 1703,478 L 1706,480 L 1710,480 L 1712,479 L 1714,470 L 1717,464 L 1729,463 L 1731,465 L 1732,473 L 1734,479 L 1736,480 L 1741,480 L 1743,478 L 1746,467 L 1748,464 L 1761,464 L 1762,465 L 1762,471 L 1763,472 L 1757,476 L 1749,484 L 1744,491 L 1738,503 L 1738,506 L 1736,511 L 1736,516 L 1735,517 L 1736,534 L 1737,535 L 1738,542 L 1741,547 L 1743,553 L 1748,560 L 1759,571 L 1773,579 L 1784,582 L 1787,584 L 1786,585 L 1786,590 L 1789,595 L 1789,598 L 1786,601 L 1776,604 L 1773,601 L 1772,598 L 1768,593 L 1765,593 L 1762,595 L 1764,606 L 1763,607 L 1755,600 L 1751,600 L 1748,602 L 1748,605 L 1752,616 L 1746,621 L 1742,621 L 1740,620 L 1742,621 L 1738,623 L 1737,622 L 1738,621 L 1737,622 L 1732,615 L 1727,611 L 1727,593 L 1724,585 L 1725,582 L 1724,583 L 1722,579 L 1715,570 L 1716,569 L 1715,570 L 1710,565 L 1698,558 L 1692,556 L 1687,556 L 1686,555 L 1674,555 L 1673,554 L 1672,548 L 1670,544 L 1667,541 L 1664,540 L 1661,536 L 1658,521 L 1662,518 L 1671,508 L 1675,496 L 1675,488 L 1672,480 L 1673,479 L 1681,479 L 1682,478 L 1684,469 Z M 1658,464 L 1659,463 L 1669,463 L 1670,464 L 1670,466 L 1669,467 L 1666,467 L 1667,468 L 1668,467 L 1669,467 L 1670,466 L 1671,467 L 1671,471 L 1672,472 L 1672,475 L 1673,476 L 1673,478 L 1672,479 L 1671,478 L 1671,477 L 1670,476 L 1670,475 L 1667,472 L 1667,471 L 1663,467 L 1662,467 L 1660,465 L 1659,465 Z M 1505,462 L 1515,462 L 1517,463 L 1522,478 L 1530,478 L 1531,477 L 1535,463 L 1548,463 L 1551,474 L 1554,478 L 1557,478 L 1562,463 L 1574,463 L 1577,470 L 1578,476 L 1580,479 L 1587,479 L 1588,478 L 1591,466 L 1592,465 L 1596,465 L 1592,465 L 1591,464 L 1592,463 L 1606,463 L 1607,464 L 1608,472 L 1610,476 L 1610,479 L 1607,487 L 1608,502 L 1614,513 L 1623,521 L 1627,535 L 1638,560 L 1638,564 L 1643,572 L 1634,587 L 1632,595 L 1632,609 L 1634,616 L 1640,628 L 1647,636 L 1645,642 L 1642,646 L 1639,647 L 1631,646 L 1628,641 L 1627,632 L 1625,630 L 1619,630 L 1616,636 L 1616,640 L 1613,647 L 1601,647 L 1598,645 L 1597,635 L 1595,630 L 1600,623 L 1600,621 L 1603,616 L 1605,608 L 1605,596 L 1602,585 L 1598,577 L 1592,570 L 1593,569 L 1592,570 L 1588,566 L 1589,565 L 1588,566 L 1583,562 L 1568,556 L 1555,555 L 1554,556 L 1544,557 L 1539,547 L 1534,544 L 1531,544 L 1523,541 L 1492,541 L 1491,540 L 1491,518 L 1498,511 L 1504,497 L 1504,486 L 1500,477 Z M 1271,461 L 1284,461 L 1290,477 L 1298,476 L 1303,462 L 1312,461 L 1316,463 L 1320,477 L 1326,478 L 1330,476 L 1334,463 L 1337,461 L 1366,462 L 1369,474 L 1372,478 L 1377,478 L 1380,475 L 1381,476 L 1380,473 L 1384,462 L 1395,462 L 1397,464 L 1400,477 L 1403,478 L 1407,477 L 1410,468 L 1413,464 L 1416,466 L 1419,464 L 1413,464 L 1412,463 L 1413,462 L 1421,463 L 1424,476 L 1427,478 L 1432,477 L 1438,462 L 1453,463 L 1442,473 L 1436,486 L 1437,502 L 1440,509 L 1448,518 L 1448,540 L 1444,542 L 1430,544 L 1423,547 L 1416,558 L 1409,556 L 1392,556 L 1382,559 L 1368,568 L 1362,575 L 1357,584 L 1354,594 L 1355,614 L 1360,626 L 1364,631 L 1360,633 L 1361,634 L 1364,631 L 1372,639 L 1371,640 L 1372,641 L 1374,640 L 1375,641 L 1373,646 L 1360,647 L 1357,634 L 1355,631 L 1347,632 L 1341,647 L 1330,647 L 1328,645 L 1327,637 L 1338,625 L 1344,610 L 1343,589 L 1337,576 L 1331,569 L 1322,562 L 1307,556 L 1288,556 L 1283,558 L 1275,546 L 1252,541 L 1252,518 L 1258,513 L 1264,503 L 1266,493 L 1265,484 L 1262,478 L 1266,477 Z M 1246,461 L 1247,460 L 1248,460 L 1249,461 L 1254,461 L 1255,462 L 1254,463 L 1255,464 L 1255,466 L 1254,467 L 1253,467 L 1250,464 L 1251,463 L 1252,463 L 1250,463 L 1249,464 L 1248,463 L 1247,463 L 1246,462 Z M 1032,460 L 1045,460 L 1050,476 L 1059,475 L 1063,460 L 1074,460 L 1077,462 L 1080,473 L 1083,477 L 1090,476 L 1094,462 L 1099,460 L 1105,460 L 1109,462 L 1111,472 L 1114,477 L 1120,477 L 1122,475 L 1126,461 L 1139,461 L 1143,471 L 1142,475 L 1143,474 L 1145,477 L 1153,476 L 1157,461 L 1171,461 L 1174,474 L 1176,477 L 1184,476 L 1189,461 L 1198,461 L 1202,469 L 1202,474 L 1197,486 L 1197,498 L 1202,510 L 1208,517 L 1208,541 L 1195,543 L 1186,546 L 1182,550 L 1177,559 L 1173,557 L 1175,556 L 1173,557 L 1151,556 L 1142,559 L 1134,563 L 1122,575 L 1121,574 L 1122,575 L 1117,583 L 1113,597 L 1113,607 L 1115,616 L 1118,622 L 1117,624 L 1118,623 L 1122,629 L 1119,633 L 1115,647 L 1102,647 L 1099,640 L 1098,632 L 1094,629 L 1102,612 L 1103,595 L 1097,579 L 1087,567 L 1080,562 L 1065,556 L 1046,556 L 1040,558 L 1033,547 L 1025,544 L 1013,543 L 1008,541 L 1009,518 L 1017,510 L 1022,499 L 1023,501 L 1022,499 L 1023,489 L 1019,477 L 1028,475 L 1030,469 L 1031,471 L 1030,465 Z M 1001,461 L 1002,460 L 1014,460 L 1015,461 L 1015,464 L 1016,465 L 1016,468 L 1017,469 L 1017,471 L 1016,472 L 1009,465 L 1008,465 L 1007,464 L 1006,464 L 1004,462 L 1002,462 Z M 964,465 L 965,464 L 965,461 L 966,460 L 973,460 L 974,461 L 973,462 L 971,462 L 970,463 L 969,462 L 967,462 L 967,463 L 968,464 L 966,466 L 965,466 Z M 563,464 L 563,460 L 564,459 L 568,459 L 569,460 L 569,461 L 567,463 L 566,463 L 564,465 Z M 769,459 L 772,458 L 782,459 L 788,475 L 796,474 L 801,459 L 814,459 L 819,475 L 828,474 L 832,459 L 845,459 L 851,475 L 859,474 L 863,459 L 876,459 L 882,476 L 889,475 L 892,468 L 893,461 L 896,459 L 909,459 L 911,461 L 915,476 L 922,475 L 925,471 L 926,464 L 932,463 L 933,462 L 931,461 L 932,460 L 948,460 L 949,461 L 952,474 L 957,477 L 954,478 L 956,479 L 954,485 L 954,498 L 959,510 L 965,517 L 965,541 L 951,543 L 940,547 L 933,558 L 925,556 L 908,556 L 900,558 L 890,563 L 881,571 L 876,577 L 871,587 L 869,595 L 869,608 L 871,616 L 878,629 L 874,631 L 869,647 L 856,647 L 851,631 L 848,630 L 850,628 L 851,629 L 850,628 L 851,625 L 854,624 L 853,625 L 852,623 L 857,612 L 858,606 L 857,590 L 858,588 L 857,590 L 851,577 L 844,569 L 845,568 L 844,567 L 843,568 L 830,559 L 820,556 L 801,556 L 795,558 L 789,547 L 782,544 L 763,541 L 763,518 L 770,512 L 777,498 L 776,481 L 772,473 L 766,466 Z M 722,458 L 724,462 L 714,471 L 710,477 L 707,493 L 708,500 L 712,509 L 720,518 L 720,540 L 719,541 L 703,541 L 691,544 L 684,549 L 678,559 L 671,556 L 661,555 L 652,556 L 642,559 L 630,566 L 621,576 L 620,575 L 619,576 L 620,575 L 621,577 L 616,585 L 613,596 L 614,611 L 610,612 L 605,619 L 600,623 L 588,616 L 593,603 L 590,599 L 586,598 L 578,605 L 577,604 L 576,605 L 577,606 L 574,609 L 567,606 L 565,604 L 566,603 L 565,604 L 563,603 L 568,588 L 564,584 L 561,583 L 548,594 L 535,587 L 538,584 L 540,576 L 536,574 L 537,573 L 542,573 L 550,584 L 554,583 L 557,572 L 564,568 L 576,576 L 579,573 L 578,569 L 579,559 L 584,555 L 588,555 L 596,558 L 599,555 L 599,553 L 593,544 L 595,538 L 598,534 L 608,532 L 610,530 L 610,527 L 599,519 L 599,512 L 610,503 L 609,499 L 598,497 L 595,495 L 592,489 L 599,479 L 596,473 L 591,475 L 581,475 L 578,472 L 580,459 L 582,457 L 596,458 L 601,474 L 610,473 L 614,458 L 628,458 L 633,474 L 642,473 L 646,458 L 660,458 L 665,474 L 673,474 L 676,461 L 678,458 L 691,458 L 695,472 L 698,475 L 703,475 L 705,473 L 708,460 L 710,458 Z M 490,455 L 491,456 L 491,457 L 492,458 L 494,458 L 495,459 L 494,460 L 493,460 L 490,463 L 486,459 Z M 1842,454 L 1843,455 L 1844,455 L 1845,456 L 1844,457 L 1845,456 L 1846,456 L 1848,458 L 1847,459 L 1848,458 L 1850,460 L 1851,460 L 1852,461 L 1849,464 L 1848,464 L 1848,466 L 1850,468 L 1849,469 L 1848,469 L 1845,466 L 1844,466 L 1837,459 L 1838,458 L 1839,458 L 1840,457 L 1840,456 Z M 501,448 L 504,445 L 505,445 L 506,446 L 506,447 L 508,447 L 510,445 L 513,448 L 513,449 L 512,450 L 511,450 L 510,451 L 509,451 L 507,453 L 506,453 L 505,452 L 505,449 L 502,449 Z M 1809,443 L 1810,442 L 1814,442 L 1815,443 L 1818,443 L 1819,444 L 1822,444 L 1823,445 L 1825,445 L 1826,446 L 1828,446 L 1829,447 L 1830,447 L 1831,448 L 1830,449 L 1828,449 L 1830,451 L 1829,452 L 1829,453 L 1828,454 L 1826,454 L 1825,453 L 1824,453 L 1823,452 L 1824,451 L 1823,450 L 1823,449 L 1822,448 L 1821,448 L 1820,447 L 1817,447 L 1816,448 L 1810,448 L 1809,447 L 1810,446 L 1810,444 Z M 1567,440 L 1568,439 L 1646,439 L 1647,440 L 1795,440 L 1796,441 L 1796,446 L 1794,448 L 1792,448 L 1791,447 L 1791,444 L 1790,443 L 1783,443 L 1781,444 L 1782,445 L 1781,446 L 1779,446 L 1778,445 L 1779,444 L 1778,445 L 1776,445 L 1773,443 L 1760,443 L 1759,442 L 1760,443 L 1755,447 L 1753,443 L 1754,442 L 1753,443 L 1747,443 L 1745,442 L 1747,443 L 1745,446 L 1733,446 L 1732,445 L 1732,443 L 1730,443 L 1729,442 L 1727,442 L 1723,445 L 1722,445 L 1721,443 L 1714,443 L 1714,445 L 1713,446 L 1702,446 L 1701,445 L 1701,443 L 1694,443 L 1693,442 L 1694,443 L 1692,445 L 1691,443 L 1683,443 L 1682,445 L 1671,445 L 1670,443 L 1668,442 L 1663,442 L 1661,444 L 1657,442 L 1654,442 L 1652,443 L 1651,445 L 1638,445 L 1637,444 L 1637,442 L 1633,442 L 1632,441 L 1629,443 L 1627,443 L 1626,442 L 1621,443 L 1622,444 L 1621,445 L 1607,445 L 1605,442 L 1600,442 L 1597,444 L 1597,446 L 1596,447 L 1595,446 L 1595,443 L 1593,441 L 1588,441 L 1586,444 L 1582,444 L 1581,445 L 1573,445 L 1571,441 L 1568,441 Z M 543,436 L 543,437 L 542,438 L 538,438 L 536,440 L 536,441 L 534,443 L 529,443 L 528,444 L 523,444 L 522,443 L 522,440 L 521,439 L 522,438 L 523,438 L 524,437 L 528,437 L 529,436 L 540,436 L 541,435 L 542,435 Z M 545,435 L 1567,440 L 1563,445 L 1553,445 L 1551,441 L 1543,444 L 1539,441 L 1533,444 L 1512,441 L 1511,446 L 1508,441 L 1501,444 L 1489,444 L 1487,441 L 1456,444 L 1448,441 L 1445,446 L 1442,441 L 1423,444 L 1419,440 L 1413,446 L 1410,441 L 1402,444 L 1390,441 L 1387,445 L 1385,441 L 1360,441 L 1358,445 L 1352,440 L 1342,440 L 1338,446 L 1334,443 L 1318,443 L 1317,440 L 1309,443 L 1307,440 L 1301,440 L 1300,443 L 1286,443 L 1285,440 L 1255,443 L 1248,440 L 1245,444 L 1243,439 L 1235,444 L 1224,444 L 1221,439 L 1213,444 L 1198,440 L 1176,441 L 1185,443 L 1174,443 L 1173,440 L 1164,443 L 1161,440 L 1155,443 L 1143,443 L 1141,440 L 1110,443 L 1107,439 L 1099,442 L 1069,442 L 1064,439 L 1060,443 L 1048,443 L 1056,441 L 1041,439 L 1037,442 L 1032,439 L 1028,442 L 1006,442 L 999,439 L 997,442 L 983,442 L 982,439 L 975,439 L 972,444 L 971,440 L 964,438 L 963,442 L 943,438 L 939,444 L 935,439 L 928,442 L 872,439 L 870,444 L 866,438 L 848,442 L 845,438 L 838,442 L 834,438 L 827,441 L 816,441 L 815,438 L 786,441 L 783,438 L 753,440 L 751,437 L 744,440 L 717,438 L 714,441 L 711,438 L 693,440 L 691,437 L 684,440 L 662,440 L 661,437 L 629,440 L 628,436 L 621,436 L 619,439 L 610,437 L 606,440 Z M 613,374 L 614,373 L 615,373 L 616,372 L 617,373 L 618,373 L 619,372 L 621,372 L 622,373 L 627,373 L 628,372 L 629,373 L 629,374 L 625,378 L 624,377 L 625,378 L 623,380 L 622,379 L 620,379 L 619,378 L 618,378 L 616,376 L 615,376 Z M 598,358 L 598,361 L 597,362 L 589,362 L 588,361 L 589,360 L 591,360 L 591,359 L 592,358 L 594,358 L 595,357 L 597,357 Z M 583,346 L 584,347 L 584,350 L 585,351 L 585,356 L 584,357 L 583,356 L 583,352 L 582,351 L 582,347 Z M 1822,330 L 1824,328 L 1825,328 L 1826,327 L 1830,327 L 1831,328 L 1830,329 L 1828,329 L 1829,329 L 1830,330 L 1830,329 L 1831,328 L 1832,329 L 1832,331 L 1833,332 L 1833,337 L 1832,338 L 1831,337 L 1825,337 L 1824,336 L 1821,336 L 1820,335 L 1820,334 L 1821,333 L 1821,332 L 1822,331 Z M 1747,326 L 1749,324 L 1750,325 L 1755,325 L 1756,324 L 1758,324 L 1761,327 L 1760,328 L 1754,328 L 1753,327 L 1748,327 Z M 1821,322 L 1824,319 L 1825,319 L 1826,318 L 1830,318 L 1831,319 L 1830,320 L 1827,320 L 1830,320 L 1831,319 L 1832,319 L 1835,322 L 1835,323 L 1834,324 L 1833,323 L 1832,323 L 1831,322 L 1824,322 L 1823,323 L 1822,323 Z M 707,293 L 709,295 L 709,296 L 710,297 L 710,302 L 711,303 L 709,305 L 708,305 L 707,306 L 706,306 L 705,307 L 704,307 L 702,309 L 701,309 L 700,310 L 699,310 L 697,312 L 696,312 L 695,311 L 695,304 L 696,303 L 696,297 L 697,296 L 697,295 L 698,294 L 699,294 L 700,293 L 701,293 L 702,294 L 704,294 L 702,294 L 701,293 L 702,292 L 705,292 L 706,293 Z M 154,189 L 156,189 L 157,190 L 160,190 L 161,191 L 165,191 L 166,192 L 169,192 L 171,194 L 171,195 L 172,196 L 172,211 L 171,212 L 171,213 L 170,214 L 169,214 L 168,215 L 165,215 L 164,216 L 161,216 L 160,217 L 153,217 L 152,216 L 153,215 L 152,216 L 151,215 L 151,214 L 150,213 L 150,211 L 149,210 L 149,197 L 150,196 L 150,194 L 151,193 L 152,194 L 151,193 L 151,192 L 152,191 L 153,192 L 152,191 Z M 111,189 L 129,189 L 132,192 L 132,215 L 130,217 L 129,217 L 128,218 L 110,218 L 108,216 L 108,215 L 107,214 L 107,213 L 106,212 L 106,195 L 107,194 L 107,193 Z M 1487,171 L 1488,172 L 1488,175 L 1489,176 L 1489,180 L 1488,181 L 1487,181 L 1486,180 L 1486,172 Z M 969,120 L 970,121 L 969,122 L 963,122 L 969,122 L 970,123 L 971,122 L 972,123 L 972,124 L 973,125 L 973,129 L 974,130 L 972,132 L 971,132 L 970,133 L 969,133 L 967,135 L 966,135 L 962,139 L 961,139 L 960,140 L 959,139 L 959,124 L 960,123 L 960,122 L 962,120 L 964,120 L 965,119 L 966,119 L 967,120 Z M 1182,86 L 1183,85 L 1221,85 L 1222,86 L 1222,92 L 1221,93 L 1183,93 L 1182,92 Z" fill="black" fill-rule="evenodd"/>
</svg>