<svg xmlns="http://www.w3.org/2000/svg" width="1448" height="1086" viewBox="0 0 1448 1086">
<rect width="100%" height="100%" fill="white"/>
<path d="M 63,529 L 75,630 L 81,646 L 94,650 L 144,630 L 140,644 L 150,651 L 158,646 L 154,630 L 158,623 L 259,586 L 334,569 L 364,546 L 422,528 L 429,532 L 430,550 L 437,561 L 467,567 L 485,561 L 496,550 L 502,559 L 511,561 L 584,538 L 594,522 L 608,525 L 612,518 L 625,514 L 990,504 L 994,512 L 991,528 L 1000,532 L 1004,503 L 1253,501 L 1257,506 L 1273,506 L 1277,484 L 1385,482 L 1389,472 L 1385,466 L 1331,466 L 1325,436 L 1305,439 L 1300,458 L 1266,458 L 1262,454 L 810,450 L 802,442 L 751,443 L 747,438 L 732,438 L 729,449 L 637,447 L 632,453 L 599,449 L 596,454 L 565,450 L 525,454 L 521,444 L 466,443 L 463,455 L 454,456 L 446,443 L 452,436 L 452,425 L 439,418 L 429,426 L 436,442 L 433,455 L 406,457 L 406,472 L 425,476 L 411,477 L 335,505 L 230,505 L 86,514 L 67,518 Z M 152,635 L 154,637 L 154,643 L 152,645 L 149,645 L 148,644 L 148,643 L 147,643 L 146,644 L 145,643 L 145,639 L 146,638 L 146,637 L 147,636 L 151,636 Z M 491,532 L 491,534 L 492,535 L 492,543 L 491,544 L 491,547 L 490,548 L 490,549 L 488,551 L 488,552 L 485,555 L 484,555 L 482,557 L 481,557 L 480,558 L 479,558 L 478,559 L 476,559 L 475,560 L 473,560 L 472,561 L 468,561 L 467,562 L 452,562 L 451,561 L 449,561 L 448,560 L 449,559 L 448,560 L 446,560 L 445,559 L 444,559 L 443,558 L 442,558 L 438,554 L 438,553 L 437,552 L 437,551 L 436,550 L 436,547 L 435,546 L 435,542 L 436,541 L 436,538 L 437,537 L 437,536 L 443,530 L 444,530 L 445,531 L 446,531 L 445,531 L 444,530 L 445,529 L 447,529 L 448,528 L 451,528 L 452,529 L 451,530 L 451,531 L 449,533 L 449,534 L 448,535 L 448,536 L 447,537 L 447,539 L 446,540 L 446,544 L 445,545 L 445,547 L 446,548 L 446,550 L 447,551 L 447,553 L 449,555 L 449,556 L 452,559 L 454,559 L 455,558 L 455,556 L 453,554 L 453,553 L 452,552 L 452,550 L 451,549 L 451,544 L 452,543 L 452,542 L 456,538 L 457,538 L 458,537 L 458,535 L 459,534 L 459,533 L 463,529 L 464,530 L 465,529 L 466,529 L 465,529 L 464,528 L 465,527 L 466,527 L 467,526 L 472,526 L 473,525 L 485,525 L 487,527 L 488,527 L 489,528 L 489,529 L 490,530 L 490,531 Z M 595,460 L 594,461 L 593,461 L 592,462 L 540,462 L 539,461 L 540,460 L 586,460 L 587,459 L 590,459 L 591,458 L 593,458 Z M 523,459 L 524,458 L 525,458 L 526,459 L 532,459 L 533,460 L 532,461 L 524,461 L 523,460 Z M 450,460 L 452,458 L 453,459 L 453,460 L 452,461 L 452,467 L 492,467 L 493,468 L 491,470 L 490,469 L 489,469 L 488,470 L 480,470 L 479,469 L 451,469 L 450,468 Z" fill="black" fill-rule="evenodd"/>
</svg>