<svg xmlns="http://www.w3.org/2000/svg" width="1448" height="1086" viewBox="0 0 1448 1086">
<rect width="100%" height="100%" fill="white"/>
<path d="M 1405,613 L 1402,453 L 1386,436 L 1359,429 L 1055,413 L 1026,399 L 996,403 L 999,380 L 988,371 L 986,358 L 965,354 L 971,343 L 946,343 L 938,350 L 921,344 L 917,318 L 908,321 L 908,343 L 900,354 L 462,354 L 406,369 L 166,369 L 147,358 L 146,333 L 131,332 L 128,357 L 107,385 L 48,385 L 44,394 L 48,426 L 107,426 L 121,442 L 431,445 L 436,453 L 508,447 L 518,479 L 544,481 L 549,487 L 557,481 L 558,767 L 636,764 L 636,482 L 654,480 L 662,497 L 668,491 L 774,492 L 782,501 L 786,544 L 810,560 L 863,560 L 891,544 L 929,639 L 944,646 L 1000,626 L 1008,617 L 1008,606 L 955,504 L 962,476 L 984,474 L 988,455 L 1026,452 L 1055,438 L 1365,456 L 1376,463 L 1380,477 L 1381,618 L 1396,628 Z M 791,501 L 792,500 L 793,497 L 797,493 L 798,493 L 799,492 L 801,492 L 802,491 L 836,491 L 837,492 L 837,493 L 842,498 L 842,499 L 844,501 L 844,502 L 847,507 L 847,510 L 848,511 L 848,516 L 849,517 L 849,522 L 848,523 L 848,527 L 847,528 L 847,530 L 846,531 L 844,536 L 837,543 L 837,547 L 838,548 L 841,549 L 843,547 L 844,547 L 852,539 L 852,538 L 854,536 L 856,531 L 857,530 L 858,531 L 857,530 L 857,528 L 858,527 L 858,523 L 859,522 L 859,498 L 862,495 L 862,494 L 864,491 L 868,491 L 869,492 L 872,493 L 874,495 L 874,499 L 875,500 L 875,504 L 876,505 L 876,509 L 877,510 L 877,512 L 878,513 L 878,518 L 879,519 L 879,523 L 880,524 L 880,530 L 879,531 L 879,533 L 878,534 L 878,537 L 877,538 L 876,541 L 867,550 L 866,550 L 865,551 L 863,551 L 862,552 L 858,552 L 857,553 L 815,553 L 814,552 L 810,552 L 809,551 L 808,551 L 807,550 L 802,548 L 796,542 L 796,541 L 794,539 L 794,538 L 792,535 L 792,533 L 791,532 L 791,529 L 790,528 L 790,504 L 791,503 Z M 377,420 L 379,418 L 380,418 L 381,417 L 386,417 L 387,418 L 389,418 L 390,419 L 390,420 L 389,421 L 390,420 L 391,421 L 391,422 L 388,425 L 387,425 L 386,426 L 381,426 L 380,425 L 379,425 L 377,423 Z M 339,420 L 341,418 L 342,418 L 343,417 L 348,417 L 349,418 L 350,418 L 353,421 L 353,422 L 351,424 L 350,423 L 349,423 L 350,423 L 351,424 L 349,426 L 343,426 L 342,425 L 341,425 L 339,423 Z M 300,421 L 301,420 L 301,419 L 302,418 L 304,418 L 305,417 L 309,417 L 310,418 L 311,418 L 312,419 L 313,419 L 314,420 L 314,423 L 312,425 L 311,425 L 310,426 L 305,426 L 304,425 L 303,425 L 302,424 L 303,423 L 304,423 L 303,423 L 302,424 L 300,422 Z M 262,420 L 264,418 L 265,418 L 266,417 L 271,417 L 272,418 L 273,418 L 274,419 L 273,420 L 272,420 L 273,420 L 274,419 L 276,421 L 276,422 L 275,423 L 274,422 L 273,422 L 272,423 L 273,423 L 274,424 L 273,425 L 272,425 L 271,426 L 266,426 L 265,425 L 264,425 L 262,423 Z M 224,420 L 227,417 L 233,417 L 234,418 L 235,418 L 237,420 L 237,421 L 238,422 L 234,426 L 228,426 L 227,425 L 226,425 L 225,424 L 226,423 L 227,423 L 226,423 L 225,424 L 224,423 Z M 185,420 L 187,418 L 188,418 L 189,417 L 194,417 L 195,418 L 196,418 L 198,420 L 197,421 L 197,422 L 196,423 L 197,423 L 198,424 L 197,425 L 196,425 L 195,426 L 190,426 L 189,425 L 188,425 L 185,422 Z M 147,420 L 148,419 L 149,420 L 148,419 L 150,417 L 156,417 L 158,419 L 159,419 L 160,420 L 160,424 L 159,425 L 158,425 L 157,426 L 151,426 L 150,425 L 149,425 L 148,424 L 148,423 L 147,422 Z M 160,390 L 160,391 L 157,394 L 156,394 L 155,395 L 151,395 L 149,393 L 151,391 L 152,391 L 153,390 L 158,390 L 159,389 Z M 377,389 L 380,386 L 387,386 L 388,387 L 389,387 L 391,389 L 391,391 L 388,394 L 387,394 L 386,395 L 382,395 L 381,394 L 380,394 L 377,391 Z M 339,389 L 342,386 L 345,386 L 346,385 L 347,386 L 349,386 L 350,387 L 351,387 L 352,388 L 352,389 L 353,390 L 353,391 L 350,394 L 349,394 L 348,395 L 343,395 L 342,394 L 341,394 L 339,392 Z M 300,390 L 304,386 L 306,386 L 307,385 L 309,385 L 310,386 L 311,386 L 314,389 L 314,391 L 311,394 L 310,394 L 309,395 L 305,395 L 304,394 L 303,394 L 302,393 L 303,392 L 302,393 L 300,391 Z M 262,389 L 265,386 L 267,386 L 268,385 L 269,385 L 270,386 L 272,386 L 273,387 L 274,387 L 276,389 L 276,391 L 273,394 L 272,394 L 271,395 L 266,395 L 265,394 L 264,394 L 262,392 Z M 227,386 L 230,386 L 231,385 L 232,386 L 234,386 L 235,387 L 236,387 L 237,388 L 237,389 L 238,390 L 234,394 L 233,394 L 232,395 L 228,395 L 227,394 L 226,394 L 224,392 L 224,389 Z M 199,388 L 199,391 L 196,394 L 195,394 L 194,395 L 189,395 L 188,394 L 187,394 L 185,392 L 185,391 L 186,390 L 186,389 L 189,386 L 192,386 L 193,385 L 194,386 L 197,386 Z" fill="black" fill-rule="evenodd"/>
</svg>