<?xml version="1.0" encoding="UTF-8" standalone="no"?>
<svg
   width="900"
   height="250"
   viewBox="0 0 900 250"
   version="1.1"
   id="svg1"
   sodipodi:docname="sten_gun_mk_ii_black.svg"
   inkscape:version="1.4.2 (f4327f4, 2025-05-13)"
   xmlns:inkscape="http://www.inkscape.org/namespaces/inkscape"
   xmlns:sodipodi="http://sodipodi.sourceforge.net/DTD/sodipodi-0.dtd"
   xmlns="http://www.w3.org/2000/svg"
   xmlns:svg="http://www.w3.org/2000/svg">
  <defs
     id="defs1" />
  <sodipodi:namedview
     id="namedview1"
     pagecolor="#ffffff"
     bordercolor="#000000"
     borderopacity="0.25"
     inkscape:showpageshadow="2"
     inkscape:pageopacity="0.0"
     inkscape:pagecheckerboard="0"
     inkscape:deskcolor="#d1d1d1"
     inkscape:zoom="1.0819521"
     inkscape:cx="324.41362"
     inkscape:cy="321.17872"
     inkscape:window-width="2560"
     inkscape:window-height="1377"
     inkscape:window-x="-8"
     inkscape:window-y="-8"
     inkscape:window-maximized="1"
     inkscape:current-layer="svg1" />
  <path
     d="m 18.332766,121.27649 10.865543,68.38901 8.308944,14.70044 14.70044,5.75235 21.731087,-3.19575 151.47846,-63.91496 24.92682,-3.8349 8.9481,6.39149 8.94809,-11.50468 46.01877,-10.86555 7.03064,1.27831 4.47405,5.11319 -32.59663,73.5022 26.20514,12.14384 20.45279,4.47405 5.11319,-4.47405 18.53534,-58.16261 14.70044,8.9481 38.34898,-1.91745 10.22638,-10.86555 1.91745,-21.09193 0.63916,2.55659 27.48342,-1.91745 43.46218,-24.92682 16.61788,-14.061295 90.75925,1.91745 35.15322,13.422135 h 46.01877 l 1.91745,-15.339585 115.04692,0.639157 15.33959,-16.617894 h 51.13197 l 2.55659,-10.226395 -2.55659,-5.75235 -56.24516,-2.556596 -4.47405,-13.422138 -4.47404,-3.8349 -10.86555,-0.639146 -3.8349,-12.143846 -6.39149,1.278304 -3.19576,10.865542 H 605.71123 l -3.8349,-3.8349 v -9.587239 l 5.75235,-5.752349 -15.3396,-1.91745 -3.19574,3.8349 5.75235,3.195742 v 10.226396 l -3.8349,3.8349 -226.25896,-0.639147 -1.27829,-11.504699 h -7.03064 l -0.63916,11.504699 H 337.26841 L 330.23776,36.26961 V 22.208315 l -11.50469,-1.91745 -1.91745,14.061295 -8.30895,3.834889 -1.91745,7.030653 0.63916,38.988125 L 197.29465,107.85436 37.507253,91.875615 22.167664,100.82371 Z m 348.336514,8.30895 1.27831,-1.2783 0.63914,0.63915 v 0.63915 -0.63915 l 0.63916,-0.63915 h 0.63915 l 0.63914,0.63915 h 1.27831 l 0.63914,0.63915 h 0.63915 l 3.19575,1.91745 h 1.27829 l 0.63916,0.63915 v 2.55659 l -0.63916,0.63916 v 2.5566 l 0.63916,0.63914 v 3.19576 l 0.63915,0.63914 v 1.91745 l 0.63914,0.63915 v 1.2783 l 0.63916,0.63915 v 0.63914 l 0.63915,0.63916 v 0.63915 l 0.63914,0.63914 0.63915,1.91745 2.55661,2.5566 v 0.63916 l 1.27829,1.27829 h 0.63916 l 0.63914,0.63916 h 1.91745 l 1.2783,-1.91745 v -1.27831 l -0.63915,-0.63914 -0.63915,-1.91745 -1.2783,-1.27831 v -0.63914 l -1.91745,-3.19576 v -1.91743 l -0.63915,-0.63916 v -8.30895 l 0.63915,-0.63914 v -1.27831 l 0.63916,-0.63914 v -1.2783 l 0.63914,-0.63915 v -0.63915 l 3.8349,-3.8349 h 0.63915 l 0.63915,-0.63915 h 25.56598 l 0.63915,0.63915 h 1.2783 l 0.63915,0.63916 h 0.63915 l 1.2783,1.27829 v 0.63915 l 0.63915,0.63915 v 1.2783 l -0.63915,0.63915 v 17.89619 l -0.63915,0.63914 v 1.27831 l -0.63915,0.63914 v 0.63915 l -1.2783,1.2783 v 0.63915 l -2.5566,2.55661 h -0.63914 l -1.27831,1.27829 h -0.63914 l -1.91745,1.2783 h -1.27831 l -0.63914,0.63915 h -32.59663 l -0.63916,-0.63915 h -1.91743 l -0.63916,-0.63915 -1.91745,-0.63915 -4.47405,-4.47405 v -0.63914 l -1.27829,-1.91745 v -1.27831 l -0.63916,-0.63914 z M 263.12706,109.13265 h 2.55659 l 0.63916,0.63916 h 0.63914 l 1.2783,1.27829 v 0.63916 l 0.63915,0.63914 v 3.19574 l -0.63915,0.63916 v 0.63915 l -1.2783,1.2783 h -0.63914 l -0.63916,0.63915 h -2.55659 l -0.63915,-0.63915 h -0.63916 l -1.91744,-1.91745 v -3.8349 l 0.63915,-0.63914 v -0.63916 l 0.63915,-0.63915 0.63914,0.63915 v 0.63916 -0.63916 l -0.63914,-0.63915 0.63914,-0.63914 h 0.63916 l 0.63915,0.63914 h 1.91745 -1.91745 l -0.63915,-0.63914 z m -231.372153,3.8349 1.917448,-4.47405 1.917449,-1.91745 1.917449,0.63916 -1.278299,-0.63916 1.917448,-1.27829 h 10.226394 l 5.752346,1.27829 34.514079,3.19576 5.752339,1.27829 16.6179,1.2783 67.74986,8.30895 h 22.37023 l 28.76173,-6.3915 3.19575,0.63915 9.58724,-2.5566 h 3.83489 l 1.91745,1.27831 -1.27829,0.63914 1.27829,-0.63914 1.27831,1.27829 0.63914,5.1132 -3.19574,3.83489 -12.14384,2.55661 -0.63915,1.27829 -19.81365,5.11319 -146.36525,61.99751 -6.391493,1.91745 h -8.948094 l -4.474047,-1.91745 -1.278299,-1.27829 0.639149,-0.63916 -0.639149,0.63916 -2.556599,-2.5566 -1.917449,-3.8349 -10.865542,-67.74986 z M 295.08453,104.6586 v 0.63916 l 0.63915,0.63915 v 1.2783 l 0.63916,0.63915 v 1.27829 l -0.63916,0.63916 v 1.27829 l -0.63915,0.63916 v 0.63914 l -1.2783,1.27831 h -1.27829 l -0.63916,0.63914 h -1.91744 l -0.63915,0.63915 h -2.5566 l -0.63915,0.63914 h -4.47404 l -1.27831,-1.27829 h -0.63914 l -0.63915,-0.63914 v -0.63916 l -0.63916,-0.63915 v -1.2783 l -0.63914,-0.63915 v -1.2783 l 0.63914,-0.63915 v -1.27829 l 0.63916,-0.63916 v -0.63914 l 1.91744,-1.91745 h 0.63916 l 0.63914,-0.63915 h 2.5566 l 0.63916,-0.63916 h 2.55659 l 0.63915,-0.63914 h 3.19574 l 0.63916,0.63914 h 0.63914 z m 347.05822,-22.370226 0.63915,0.639147 v 14.700443 l -0.63915,0.63915 -0.63915,-0.63915 V 82.927521 Z m 34.51408,-7.030642 0.63915,-0.639157 h 6.39149 l 0.63915,0.639157 -0.63915,0.639147 h -6.39149 z m -188.54912,-3.8349 0.63914,-0.639146 h 7.03066 l 0.63914,-0.639157 h 17.25704 l 0.63915,0.639157 -1.2783,1.278293 h -24.28769 z m -2.5566,-0.639146 1.27829,-1.278303 h 8.30895 l 0.63916,0.639146 -0.63916,0.639157 h -7.66979 l 0.63915,0.639146 -0.63915,0.639147 h -0.63916 z m 1.27829,-7.030653 0.63916,-0.639146 h 73.5022 l 0.63914,0.639146 -0.63914,0.639157 h -73.5022 z M 317.45477,36.26961 l 0.63915,-0.639157 h 8.94809 l 0.63915,0.639157 -0.63915,0.639147 h -8.94809 z"
     fill="#000000"
     fill-rule="evenodd"
     id="path1"
     style="stroke-width:0.63915" />
</svg>
