<svg xmlns="http://www.w3.org/2000/svg" width="1448" height="1086" viewBox="0 0 1448 1086">
<rect width="100%" height="100%" fill="white"/>
<path d="M 59,538 L 76,645 L 89,668 L 112,677 L 146,672 L 383,572 L 422,566 L 436,576 L 450,558 L 522,541 L 533,543 L 540,551 L 489,666 L 530,685 L 562,692 L 570,685 L 599,594 L 622,608 L 682,605 L 698,588 L 701,555 L 702,559 L 745,556 L 813,517 L 839,495 L 981,498 L 1036,519 L 1108,519 L 1111,495 L 1291,496 L 1315,470 L 1395,470 L 1399,454 L 1395,445 L 1307,441 L 1300,420 L 1293,414 L 1276,413 L 1270,394 L 1260,396 L 1255,413 L 978,413 L 972,407 L 972,392 L 981,383 L 957,380 L 952,386 L 961,391 L 961,407 L 955,413 L 601,412 L 599,394 L 588,394 L 587,412 L 558,412 L 547,405 L 547,383 L 529,380 L 526,402 L 513,408 L 510,419 L 511,480 L 339,517 L 89,492 L 65,506 Z M 604,551 L 606,549 L 607,550 L 607,551 L 607,550 L 608,549 L 609,549 L 610,550 L 612,550 L 613,551 L 614,551 L 619,554 L 621,554 L 622,555 L 622,559 L 621,560 L 621,564 L 622,565 L 622,570 L 623,571 L 623,574 L 624,575 L 624,577 L 625,578 L 625,579 L 626,580 L 626,581 L 627,582 L 628,585 L 632,589 L 632,590 L 634,592 L 635,592 L 636,593 L 639,593 L 641,590 L 641,588 L 640,587 L 639,584 L 637,582 L 637,581 L 634,576 L 634,573 L 633,572 L 633,559 L 634,558 L 634,556 L 635,555 L 635,553 L 636,552 L 636,551 L 642,545 L 643,545 L 644,544 L 684,544 L 685,545 L 687,545 L 688,546 L 689,546 L 691,548 L 691,549 L 692,550 L 692,552 L 691,553 L 691,581 L 690,582 L 690,584 L 689,585 L 689,586 L 687,588 L 687,589 L 683,593 L 682,593 L 680,595 L 679,595 L 676,597 L 674,597 L 673,598 L 622,598 L 621,597 L 618,597 L 617,596 L 614,595 L 607,588 L 607,587 L 605,584 L 605,582 L 604,581 Z M 442,519 L 446,519 L 447,520 L 448,520 L 450,522 L 450,523 L 451,524 L 451,529 L 450,530 L 450,531 L 448,533 L 447,533 L 446,534 L 442,534 L 441,533 L 440,533 L 437,530 L 437,524 L 438,523 L 438,522 L 439,521 L 440,522 L 440,523 L 440,522 L 439,521 L 440,520 L 441,520 L 442,521 L 445,521 L 442,521 L 441,520 Z M 80,525 L 83,518 L 86,515 L 89,516 L 87,515 L 90,513 L 106,513 L 115,515 L 169,520 L 178,522 L 204,524 L 310,537 L 345,537 L 390,527 L 395,528 L 410,524 L 416,524 L 419,526 L 417,527 L 419,526 L 421,528 L 422,536 L 417,542 L 398,546 L 397,548 L 366,556 L 137,653 L 127,656 L 113,656 L 106,653 L 104,651 L 105,650 L 104,651 L 100,647 L 97,641 L 80,535 Z M 492,512 L 492,513 L 493,514 L 493,516 L 494,517 L 494,519 L 493,520 L 493,522 L 492,523 L 492,524 L 490,526 L 488,526 L 487,527 L 484,527 L 483,528 L 479,528 L 478,529 L 471,529 L 469,527 L 468,527 L 467,526 L 467,525 L 466,524 L 466,522 L 465,521 L 465,519 L 466,518 L 466,516 L 467,515 L 467,514 L 470,511 L 471,511 L 472,510 L 476,510 L 477,509 L 481,509 L 482,508 L 487,508 L 488,509 L 489,509 Z M 1035,477 L 1036,478 L 1036,501 L 1035,502 L 1034,501 L 1034,478 Z M 1089,466 L 1090,465 L 1100,465 L 1101,466 L 1100,467 L 1090,467 Z M 794,460 L 795,459 L 806,459 L 807,458 L 834,458 L 835,459 L 833,461 L 795,461 Z M 790,459 L 792,457 L 805,457 L 806,458 L 805,459 L 793,459 L 794,460 L 793,461 L 792,461 Z M 792,448 L 793,447 L 908,447 L 909,448 L 908,449 L 793,449 Z M 527,405 L 528,404 L 542,404 L 543,405 L 542,406 L 528,406 Z" fill="black" fill-rule="evenodd"/>
</svg>