<?xml version="1.0" encoding="UTF-8" standalone="no"?>
<svg
   width="700"
   height="250"
   viewBox="0 0 700 250"
   version="1.1"
   id="svg1"
   sodipodi:docname="sten_gun_black.svg"
   inkscape:version="1.4.2 (f4327f4, 2025-05-13)"
   xmlns:inkscape="http://www.inkscape.org/namespaces/inkscape"
   xmlns:sodipodi="http://sodipodi.sourceforge.net/DTD/sodipodi-0.dtd"
   xmlns="http://www.w3.org/2000/svg"
   xmlns:svg="http://www.w3.org/2000/svg">
  <defs
     id="defs1" />
  <sodipodi:namedview
     id="namedview1"
     pagecolor="#ffffff"
     bordercolor="#000000"
     borderopacity="0.25"
     inkscape:showpageshadow="2"
     inkscape:pageopacity="0.0"
     inkscape:pagecheckerboard="0"
     inkscape:deskcolor="#d1d1d1"
     inkscape:zoom="1.0819521"
     inkscape:cx="218.12426"
     inkscape:cy="374.78553"
     inkscape:window-width="2560"
     inkscape:window-height="1377"
     inkscape:window-x="-8"
     inkscape:window-y="-8"
     inkscape:window-maximized="1"
     inkscape:current-layer="svg1" />
  <path
     d="m 664.20009,158.57574 -1.39154,-74.214977 -7.42149,-7.885346 -12.52377,-3.246898 -141.00846,-7.421496 -13.45147,-6.493809 -13.91531,1.855374 1.39153,-10.668407 -5.10227,-4.174598 -0.92769,-6.029959 -9.74072,-1.855374 2.78306,-5.102285 h -11.59609 l -3.71075,3.246911 -7.88534,-2.783061 -1.85537,-12.059931 -4.1746,1.391524 v 10.204557 l -3.71075,5.102285 h -203.1635 l -25.97525,6.957659 H 89.497858 L 80.684829,40.295624 80.220984,28.69953 73.26333,28.235681 71.8718,39.831774 62.131084,52.819392 H 34.76431 l -1.855374,4.174598 1.855374,14.842992 h 27.366774 l 6.49381,7.421496 143.791516,1.391537 2.31922,3.710748 33.39673,-2.783061 4.63844,14.843004 12.05994,0.927675 2.31921,2.783059 3.71075,-2.783059 0.46384,132.659279 36.17982,-1.39154 V 97.81223 l 8.34917,-0.927687 3.71076,7.885337 2.78306,-2.78306 49.16742,0.46385 3.71075,4.17458 1.85537,19.94529 11.13225,7.4215 h 24.58371 l 12.98762,-7.4215 17.62606,44.06514 6.95765,3.2469 25.97525,-9.27687 3.71075,-4.1746 v -5.10227 l -24.58372,-47.31205 3.24691,-12.987621 10.20456,-0.927687 1.85538,-8.813032 17.62605,-1.391537 13.45147,-6.493797 143.79152,8.349183 5.10227,3.246899 1.85539,6.493809 0.46383,65.401953 6.95766,4.63843 z m -284.79997,-51.95049 0.46383,-0.46384 0.46384,-1.39153 1.85539,-1.85538 h 0.46384 l 0.46383,-0.46383 h 0.9277 l 0.46384,-0.46385 h 15.77069 l 0.46384,0.46385 v 0.46383 l 2.31922,2.31923 v 0.46385 l 0.92768,0.92767 v 0.46385 l 1.39153,2.31921 v 1.39154 l 0.46384,0.46385 v 2.31921 l 0.46385,0.46384 v 2.31922 l -0.46385,0.46385 v 1.85538 l -0.46384,0.46383 v 0.92769 l -0.46383,0.46385 -0.9277,2.31921 -3.2469,3.24691 v 1.85538 l 0.46384,0.46383 1.39153,0.46385 0.92769,-0.92768 h 0.46384 l 3.71076,-3.71075 v -0.46385 l 0.92767,-0.92769 0.9277,-2.31921 0.46384,-0.46385 0.46385,0.46385 -0.46385,-0.46385 v -0.92769 l 0.46385,-0.46383 v -1.85538 l 0.46383,-0.46385 v -11.13224 l 1.39154,-1.39153 v -0.46385 l 0.92768,-1.39153 h 1.85538 l 0.46384,0.46385 1.39154,0.46383 0.92768,0.9277 v 1.85538 l 0.46384,0.46383 v 1.85538 l 0.46385,0.46385 v 1.85537 l 0.46384,0.46384 v 0.92769 l 0.46385,0.46385 v 2.31921 l 0.46383,0.46385 v 1.85537 l 0.46384,0.46385 v 2.78305 l -0.46384,0.46385 v 0.92769 l -0.46383,0.46385 v 1.39152 l -0.46385,0.46384 -0.46384,1.39153 -4.1746,4.1746 h -0.46383 l -0.46385,0.46384 h -0.92769 l -0.46384,0.46384 h -1.85537 l -0.46385,0.46385 h -19.48144 l -0.46384,-0.46385 h -1.85537 l -0.46385,-0.46384 h -0.46384 l -0.46384,-0.46384 -2.31922,-0.9277 -2.78306,-2.78306 V 125.179 l -0.92769,-0.92768 v -0.46385 l -0.92769,-1.39153 v -0.92768 l -0.46383,-0.46385 v -1.39153 l -0.46385,-0.46385 v -11.13224 l 0.46385,-0.46385 z m -192.03127,-37.571329 0.9277,-0.927687 h 0.46383 l 0.46385,-0.46385 h 2.31921 l 0.46384,0.46385 h 0.9277 l 0.46384,0.46385 v 0.463837 l -0.46384,0.46385 0.46384,-0.46385 0.46385,0.46385 v 0.463837 l -1.39154,1.391537 h -0.46385 l -0.46384,0.463837 h -2.31921 l -0.46385,-0.463837 h -0.46383 l -0.9277,-0.927687 z m -17.62604,0 0.92767,-0.927687 h 0.46384 l 0.46385,-0.46385 h 2.31922 l 0.46385,0.46385 h 0.46384 l 1.39152,1.391537 v 0.463837 l -0.92769,0.927699 -0.46383,-0.463849 h -0.46384 0.46384 l 0.46383,0.463849 -0.92767,0.927675 h -2.78307 l -0.46385,-0.463837 h -0.46384 l -0.92767,-0.927687 z m -18.08992,0.46385 0.46385,-0.46385 v -0.463837 l 0.46384,-0.46385 h 0.9277 l 0.46383,-0.46385 h 1.85538 l 0.46385,0.46385 h 0.46383 l 0.46384,0.46385 h 0.46385 l 0.46385,0.463837 v 1.391537 l -0.9277,0.927687 h -0.46384 l -0.46383,0.463837 h -2.31923 l -0.46383,-0.463837 h -0.46385 l -0.46385,-0.463838 0.46385,-0.463849 h 0.46385 -0.46385 l -0.46385,0.463849 -0.92769,-0.927699 z m -17.62605,-0.46385 0.92768,-0.927687 h 0.46385 l 0.46384,-0.46385 h 2.31921 l 0.46385,0.46385 h 0.46385 l 0.46384,0.46385 -0.46384,0.463837 h -0.46385 0.46385 l 0.46384,-0.463837 0.92769,0.927687 v 0.463837 l -0.46384,0.46385 -0.46385,-0.46385 h -0.46384 l -0.46385,0.46385 h 0.46385 l 0.46384,0.463849 -0.46384,0.463838 h -0.46385 l -0.46385,0.463837 h -2.31921 l -0.46384,-0.463837 h -0.46385 l -0.92768,-0.927687 z m -17.62606,0 1.39153,-1.391537 h 2.78307 l 0.46384,0.46385 h 0.46384 l 0.92768,0.927687 v 0.46385 l 0.46385,0.463837 -1.85537,1.855374 h -2.78306 l -0.46385,-0.463837 h -0.46385 l -0.46384,-0.463838 0.46384,-0.463849 h 0.46385 -0.46385 l -0.46384,0.463849 -0.46384,-0.463849 z m -18.089887,0 0.92768,-0.927687 h 0.46385 l 0.463837,-0.46385 h 2.31922 l 0.46384,0.46385 h 0.46384 l 0.9277,0.927687 -0.46385,0.46385 v 0.463837 l -0.46385,0.46385 h 0.46385 l 0.46385,0.463849 -0.46385,0.463838 h -0.46385 l -0.46384,0.463837 h -2.31922 l -0.46384,-0.463837 h -0.463837 l -1.39153,-1.391537 z m -17.626064,0 0.463843,-0.463837 0.463848,0.463837 -0.463848,-0.463837 0.927689,-0.9277 h 2.783062 l 0.927682,0.9277 h 0.46385 l 0.463841,0.463837 v 1.855386 l -0.463841,0.463838 h -0.46385 l -0.463841,0.463837 H 82.540202 L 82.076361,71.373145 H 81.61252 l -0.463848,-0.463838 v -0.463849 l -0.463843,-0.46385 z m 6.029967,-13.915305 v 0.463837 l -1.391532,1.391537 h -0.463841 l -0.46385,0.46385 h -1.855371 l -0.927682,-0.927687 0.927682,-0.9277 h 0.463848 l 0.463841,-0.463837 h 2.319214 l 0.46385,-0.463837 z m 100.654054,-0.463837 1.39153,-1.391537 h 3.2469 l 0.46385,0.463837 h 0.46385 l 0.92769,0.9277 v 0.927674 l -1.39154,1.391537 h -0.46385 l -0.46384,0.46385 h -1.85537 l -0.46384,-0.46385 h -0.46385 l -1.39153,-1.391537 z m -17.62604,0 1.39151,-1.391537 h 1.39153 l 0.46385,-0.46385 0.46384,0.46385 h 0.9277 l 0.46384,0.463837 h 0.46383 l 0.46385,0.46385 v 0.46385 l 0.46384,0.463837 v 0.463837 l -1.39152,1.391537 h -0.46384 l -0.46385,0.46385 h -2.31922 l -0.46385,-0.46385 h -0.46384 l -0.92767,-0.927687 z m -18.08992,0.463837 1.85539,-1.855374 h 0.92767 l 0.46385,-0.46385 h 0.92769 l 0.46385,0.46385 h 0.46383 l 1.39154,1.391537 v 0.927674 l -1.39154,1.391537 h -0.46383 l -0.46385,0.46385 h -1.85538 l -0.46383,-0.46385 h -0.46385 l -0.46385,-0.463837 0.46385,-0.46385 -0.46385,0.46385 -0.92769,-0.9277 z m -17.62605,-0.463837 1.39153,-1.391537 h 0.92768 l 0.46385,-0.46385 h 0.46385 l 0.46384,0.46385 h 0.92768 l 0.46385,0.463837 h 0.46384 l 0.92769,0.9277 v 0.927674 l -1.39153,1.391537 h -0.46385 l -0.46385,0.46385 h -2.31921 l -0.46384,-0.46385 h -0.46385 l -0.92768,-0.927687 z m -16.23453,-1.391537 h 1.39154 l 0.46383,-0.46385 0.46385,0.46385 h 0.92769 l 0.46384,0.463837 h 0.46385 l 0.46383,0.46385 v 0.46385 l 0.46385,0.463837 -1.85537,1.855374 h -0.46384 l -0.46385,0.46385 h -1.85537 l -0.46385,-0.46385 h -0.46385 l -0.92768,-0.927687 v -1.391524 z m -12.98762,0.927687 v 1.391524 l -1.39153,1.391537 h -0.46384 l -0.46384,0.46385 h -2.31922 l -0.463837,-0.46385 h -0.46385 l -0.92768,-0.927687 v -0.46385 l 0.46384,-0.463837 v -0.463837 l 1.391527,-1.391537 h 1.39153 l 0.46384,-0.46385 0.46385,0.46385 h 1.39153 z"
     fill="#000000"
     fill-rule="evenodd"
     id="path1"
     style="stroke-width:0.463843" />
</svg>
