<svg xmlns="http://www.w3.org/2000/svg" width="1254" height="1254" viewBox="0 0 1254 1254">
<rect width="100%" height="100%" fill="white"/>
<path d="M 925,499 L 996,499 L 992,499 L 991,498 L 932,498 L 931,499 Z" fill="black" fill-rule="evenodd"/>
<path d="M 62,532 L 78,607 L 72,677 L 85,686 L 116,680 L 307,583 L 402,582 L 312,584 L 403,583 L 414,595 L 413,609 L 356,683 L 363,707 L 396,724 L 410,719 L 414,701 L 449,650 L 475,663 L 517,663 L 538,648 L 543,631 L 574,626 L 586,616 L 587,634 L 598,636 L 626,749 L 654,813 L 722,783 L 672,641 L 670,587 L 678,579 L 735,580 L 765,563 L 901,564 L 827,563 L 928,561 L 935,553 L 1189,553 L 1187,531 L 1151,534 L 1144,527 L 1146,454 L 1119,450 L 1117,485 L 1103,528 L 1093,533 L 994,534 L 993,525 L 1048,518 L 1046,510 L 1008,512 L 999,500 L 738,502 L 746,500 L 695,495 L 690,486 L 595,486 L 585,497 L 486,496 L 583,498 L 485,498 L 474,479 L 472,490 L 477,464 L 469,450 L 431,457 L 457,459 L 415,458 L 413,473 L 397,476 L 395,496 L 321,496 L 257,521 L 73,521 L 63,538 Z M 521,619 L 522,620 L 521,621 L 520,621 L 521,621 L 522,622 L 522,623 L 524,625 L 525,624 L 527,626 L 527,628 L 526,629 L 525,628 L 525,627 L 525,629 L 526,630 L 526,638 L 525,639 L 525,641 L 525,640 L 526,639 L 526,629 L 527,628 L 528,629 L 528,640 L 527,641 L 527,642 L 526,643 L 526,644 L 524,646 L 523,645 L 519,649 L 520,650 L 519,651 L 518,651 L 517,652 L 515,652 L 513,650 L 512,650 L 511,651 L 498,651 L 497,650 L 496,650 L 495,649 L 495,648 L 496,647 L 496,645 L 495,644 L 495,643 L 493,641 L 493,640 L 492,639 L 492,636 L 491,635 L 491,629 L 492,628 L 493,629 L 493,634 L 494,635 L 494,636 L 494,632 L 493,631 L 494,630 L 494,628 L 493,629 L 492,628 L 492,625 L 493,624 L 493,623 L 494,622 L 494,621 L 496,619 L 497,620 L 498,619 L 500,619 L 501,618 L 514,618 L 515,617 L 517,617 L 518,618 L 519,618 L 520,619 Z M 497,617 L 498,616 L 514,616 L 515,617 L 514,618 L 498,618 Z M 466,623 L 469,620 L 470,621 L 471,621 L 470,621 L 469,620 L 471,618 L 472,618 L 473,617 L 475,617 L 479,621 L 479,634 L 480,635 L 480,636 L 480,635 L 479,634 L 479,618 L 476,618 L 475,617 L 476,616 L 480,616 L 481,617 L 481,633 L 482,634 L 482,637 L 481,638 L 481,639 L 482,640 L 482,641 L 483,642 L 484,641 L 485,642 L 485,643 L 484,644 L 485,643 L 491,649 L 495,649 L 496,650 L 495,651 L 494,651 L 514,651 L 515,652 L 514,653 L 477,653 L 476,652 L 477,651 L 492,651 L 490,651 L 489,650 L 487,650 L 486,651 L 477,651 L 476,652 L 474,652 L 472,650 L 473,649 L 472,648 L 471,648 L 470,649 L 468,647 L 469,646 L 469,645 L 469,646 L 468,647 L 466,645 L 466,644 L 465,643 L 465,642 L 464,641 L 464,638 L 463,637 L 463,630 L 464,629 L 464,627 L 465,626 L 465,625 L 466,624 L 467,625 L 467,626 L 467,625 L 466,624 Z M 150,590 L 151,590 L 153,592 L 152,593 L 153,592 L 154,593 L 154,597 L 155,598 L 155,608 L 156,609 L 156,621 L 155,622 L 154,622 L 153,623 L 151,623 L 149,621 L 149,620 L 150,619 L 151,620 L 151,618 L 150,617 L 150,608 L 150,619 L 149,620 L 148,619 L 148,610 L 147,609 L 147,598 L 146,597 L 146,594 L 147,593 L 147,592 L 148,591 L 149,591 Z M 1100,532 L 1100,534 L 1099,535 L 997,535 L 996,534 L 997,533 L 1098,533 L 1098,532 L 1099,531 Z M 392,526 L 394,524 L 561,524 L 562,525 L 562,528 L 561,529 L 394,529 L 393,528 L 394,527 L 393,528 L 392,527 Z M 580,530 L 581,529 L 582,529 L 582,528 L 580,526 L 580,525 L 581,524 L 582,524 L 584,522 L 655,522 L 582,522 L 581,521 L 582,520 L 660,520 L 661,521 L 660,522 L 658,522 L 660,524 L 661,524 L 661,523 L 662,522 L 664,525 L 664,527 L 662,530 L 661,529 L 661,527 L 660,527 L 660,528 L 659,529 L 661,529 L 662,530 L 661,531 L 581,531 Z M 885,520 L 886,519 L 887,519 L 888,520 L 887,521 L 888,522 L 889,522 L 889,521 L 890,520 L 928,520 L 929,521 L 929,522 L 931,522 L 931,521 L 930,520 L 888,520 L 887,519 L 888,518 L 931,518 L 933,520 L 933,524 L 930,527 L 888,527 L 885,524 Z M 819,520 L 820,519 L 821,520 L 821,522 L 822,522 L 824,520 L 821,520 L 820,519 L 821,518 L 865,518 L 866,519 L 865,520 L 829,520 L 862,520 L 863,521 L 863,522 L 864,522 L 865,521 L 865,520 L 866,519 L 867,520 L 867,524 L 866,525 L 865,524 L 866,525 L 864,527 L 822,527 L 820,525 L 821,524 L 820,525 L 819,524 Z M 752,522 L 753,521 L 753,520 L 754,519 L 755,520 L 755,521 L 756,522 L 758,520 L 755,520 L 754,519 L 755,518 L 799,518 L 801,520 L 801,524 L 798,527 L 756,527 L 755,526 L 754,526 L 753,525 L 753,524 L 752,523 Z M 1122,502 L 1123,503 L 1123,504 L 1127,504 L 1128,505 L 1129,505 L 1129,503 L 1130,502 L 1132,504 L 1132,520 L 1131,521 L 1130,520 L 1130,519 L 1128,519 L 1127,520 L 1121,520 L 1119,518 L 1119,517 L 1119,521 L 1129,521 L 1130,522 L 1129,523 L 1118,523 L 1117,522 L 1117,520 L 1116,519 L 1117,518 L 1117,515 L 1118,514 L 1118,512 L 1119,511 L 1119,509 L 1120,508 L 1121,509 L 1121,511 L 1121,509 L 1120,508 L 1120,505 L 1121,504 L 1121,503 Z M 1122,502 L 1123,501 L 1129,501 L 1130,502 L 1129,503 L 1123,503 Z M 321,497 L 322,496 L 395,496 L 396,497 L 395,498 L 322,498 Z M 696,495 L 697,494 L 727,494 L 728,495 L 727,496 L 697,496 Z" fill="black" fill-rule="evenodd"/>
</svg>