<?xml version="1.0" encoding="UTF-8" standalone="no"?>
<svg
   width="300"
   height="250"
   viewBox="0 0 300 250"
   version="1.1"
   id="svg14"
   sodipodi:docname="strafing_run_black.svg"
   inkscape:version="1.4.2 (f4327f4, 2025-05-13)"
   xmlns:inkscape="http://www.inkscape.org/namespaces/inkscape"
   xmlns:sodipodi="http://sodipodi.sourceforge.net/DTD/sodipodi-0.dtd"
   xmlns="http://www.w3.org/2000/svg"
   xmlns:svg="http://www.w3.org/2000/svg">
  <defs
     id="defs14" />
  <sodipodi:namedview
     id="namedview14"
     pagecolor="#ffffff"
     bordercolor="#000000"
     borderopacity="0.25"
     inkscape:showpageshadow="2"
     inkscape:pageopacity="0.0"
     inkscape:pagecheckerboard="0"
     inkscape:deskcolor="#d1d1d1"
     inkscape:zoom="0.93700159"
     inkscape:cx="214.51404"
     inkscape:cy="234.25787"
     inkscape:window-width="2560"
     inkscape:window-height="1377"
     inkscape:window-x="-8"
     inkscape:window-y="-8"
     inkscape:window-maximized="1"
     inkscape:current-layer="svg14" />
  <path
     d="m 71.499493,207.39023 0.33972,0.33972 v 0.33971 l 1.35887,1.35887 v 0.33972 l 1.01915,1.01915 h 0.67945 l 0.33971,0.33973 h 1.35888 l 0.33971,0.33972 h 1.01916 l 0.33971,0.33971 h 1.6986 v -0.33971 l -1.01915,-1.01916 h -0.33973 l -3.05746,-3.05746 h -0.33972 l -0.33971,-0.33972 -0.33972,0.33972 z"
     fill="#000000"
     fill-rule="evenodd"
     id="path1"
     style="stroke-width:0.339718" />
  <path
     d="m 169.33837,199.91642 h -1.69858 l -0.33972,0.33971 h -2.03832 l -0.33971,0.33972 h -1.35887 l -1.69859,1.6986 v 0.33971 l -2.03831,2.03832 v 0.33972 l -2.03831,2.03831 v 0.67944 l 0.33972,-0.33972 h 0.67943 l 0.33972,-0.33972 h 0.67944 l 0.33971,-0.33972 h 0.67944 l 0.33972,-0.33972 h 0.67944 l 0.33972,-0.33972 h 0.67943 l 0.33972,-0.33972 h 0.33972 l 0.33971,-0.33972 h 1.01916 l 1.01916,-1.01915 v -0.33972 l 1.01915,-1.01916 v -0.33972 l 1.69859,-1.69859 v -0.33972 z"
     fill="#000000"
     fill-rule="evenodd"
     id="path2"
     style="stroke-width:0.339718" />
  <path
     d="m 245.775,192.1029 v 0.67943 l 0.33972,0.33972 v 0.33972 l 0.33972,0.33972 v 0.33972 l -0.33972,0.33972 0.33972,-0.33972 0.67944,0.67943 v 0.33972 l 0.67944,0.67944 v 0.33971 l 1.35887,1.35888 v 0.33971 l 0.33972,0.33973 -0.33972,0.33972 0.33972,-0.33972 1.35887,1.35887 v 0.33972 l 1.6986,1.69858 v 0.33972 l 2.0383,2.03832 v 0.33972 l 1.35887,1.35887 h 0.33972 l 0.33972,0.33972 h 1.01916 l 0.33972,-0.33972 v -1.35887 l -0.33972,-0.33972 v -0.33972 l -2.37803,-2.37803 v -0.33972 l -2.03831,-2.03831 v -0.33971 l -0.33971,-0.33972 0.33971,-0.33973 -0.33971,0.33973 -5.4355,-5.4355 h -0.33972 l -0.67944,-0.67943 z"
     fill="#000000"
     fill-rule="evenodd"
     id="path3"
     style="stroke-width:0.339718" />
  <path
     d="m 66.743439,183.94965 v 0.33972 l 0.33972,0.33972 v 0.33972 l 1.019151,1.01916 v 0.33972 l 0.33972,0.33972 v 0.33972 l 0.679433,0.67943 v 0.33972 l 0.67944,0.67943 v 0.33972 l 0.33972,0.33973 v 0.33971 l 0.33972,0.33972 h 0.33972 l 0.33972,0.33972 h 0.33971 l 0.33972,0.33972 h 0.33972 l 0.33972,0.33971 h 0.33971 l 0.33972,0.33972 h 0.33972 l 0.33972,0.33972 h 0.33971 l 0.67945,0.67943 h 0.33971 l 0.33972,0.33972 h 0.33972 l 0.33972,0.33972 h 0.33972 l 0.33971,0.33972 h 0.33972 l 0.33972,0.33972 h 0.33972 l 0.33971,0.33972 v -0.33972 l -0.33971,-0.33972 v -0.33972 l -0.67944,-0.67944 v -0.33971 l -0.67943,-0.67944 v -0.33972 l -1.35888,-1.35887 v -0.33971 l -0.67943,-0.67945 V 188.366 l -0.67944,-0.67944 v -0.33972 l -1.01916,-1.01915 v -0.33972 h -0.33971 l -0.33972,-0.33972 h -0.67944 l -0.33971,-0.33972 h -0.67944 l -0.33972,-0.33972 h -0.67944 l -0.33972,-0.33972 H 68.44203 l -0.33972,-0.33972 h -0.679431 l -0.33972,-0.33972 z"
     fill="#000000"
     fill-rule="evenodd"
     id="path4"
     style="stroke-width:0.339718" />
  <path
     d="m 170.01782,176.13613 v 0.67944 l 0.33971,0.33972 v 0.33972 l 0.33972,0.33972 v 0.33971 l 0.33972,0.33972 v 0.33972 l 0.33972,0.33972 v 0.33971 l 0.33971,0.33972 v 0.33972 l -0.33971,0.33972 0.33971,0.33972 0.33972,-0.33972 0.33972,0.33972 v 0.33972 l -0.33972,0.33972 0.33972,-0.33972 0.67943,0.67943 v 0.33972 l 0.67944,0.67944 v 0.33971 l 1.01916,1.01916 v 0.33972 l 1.01916,1.01916 v 0.33972 l 0.67944,0.67944 v 0.33972 l 0.33971,0.33971 -0.33971,0.33972 0.33971,-0.33972 0.67944,0.67944 v 0.33972 l -0.33972,0.33971 0.33972,-0.33971 1.01915,1.01916 v 0.33971 l 0.67945,0.67944 v 0.33972 l 1.35887,1.35887 v 0.33971 l 0.67943,0.67944 v 0.33972 l 1.35887,1.35887 v 0.33972 l 1.01916,1.01915 v 0.33972 l 1.01915,1.01916 v 0.33971 l 1.01916,1.01916 h 0.33971 l 0.33972,0.33972 h 0.67944 l 0.67944,-0.67943 v -1.6986 l -0.67944,-0.67944 v -0.33971 l -1.01916,-1.01916 v -0.33971 l -1.01915,-1.01916 v -0.33972 l -1.01915,-1.01915 v -0.33972 l -1.35888,-1.35887 v -0.33972 l -1.01915,-1.01916 v -0.33972 l -1.01915,-1.01915 v -0.33972 l -1.01916,-1.01915 v -0.33972 l -1.01916,-1.01916 v -0.33972 l -1.35887,-1.35888 v -0.33971 l -1.35887,-1.35887 v -0.33972 l -4.07663,-4.07662 h -0.33971 l -1.01916,-1.01916 z"
     fill="#000000"
     fill-rule="evenodd"
     id="path5"
     style="stroke-width:0.339718" />
  <path
     d="m 223.01388,164.92543 v 0.33971 l 0.33971,0.33972 v 0.33972 l 0.33972,0.33972 v 0.33972 l 0.33972,0.33972 v 0.33972 l 0.67944,0.67944 v 0.33972 l 1.69858,1.69859 v 0.33971 l 1.01916,1.01916 v 0.33971 l 1.01916,1.01916 -0.33972,0.33972 0.33972,-0.33972 0.33971,0.33972 v 0.33972 l 0.33972,0.33972 -0.33972,0.33972 0.33972,0.33971 0.33972,-0.33971 1.01916,1.01915 v 0.33972 l 1.6986,1.69859 v 0.33972 l 0.33971,0.33972 -0.33971,0.33971 0.33971,-0.33971 0.67944,0.67943 -0.33972,0.33972 0.33972,-0.33972 0.67943,0.67944 v 0.33971 l 0.33972,0.33972 -0.33972,0.33972 0.67944,0.67944 0.33972,-0.33972 1.01916,1.01916 v 0.33971 l 2.0383,2.03831 v 0.33972 l 2.37803,2.37804 h 1.69859 v -2.03832 l -2.37802,-2.37803 v -0.33972 l -2.71775,-2.71774 v -0.33972 l -3.39718,-3.39718 v -0.33972 l -3.39719,-3.39719 v -0.33971 l -5.43549,-5.4355 h -0.33972 l -1.01916,-1.01915 z"
     fill="#000000"
     fill-rule="evenodd"
     id="path6"
     style="stroke-width:0.339718" />
  <path
     d="m 148.27584,144.88204 v 0.33972 l 0.33972,0.33972 v 0.67944 l 0.33972,0.33972 v 0.33971 l 0.33972,0.33972 v 0.33972 l 0.33971,0.33972 v 0.33972 l 0.67944,0.67944 v 0.33972 l 0.67943,0.67943 v 0.33973 l 1.01916,1.01915 v 0.33972 l 0.67944,0.67943 v 0.33972 l 1.01915,1.01915 v 0.33972 l 0.67944,0.67944 v 0.33972 l 1.01915,1.01915 v 0.33972 l 1.01916,1.01915 v 0.33972 l 1.01916,1.01915 v 0.33973 l 1.01916,1.01915 v 0.33972 l 1.01915,1.01915 v 0.33972 l 0.33972,0.33972 -0.33972,0.33971 0.33972,-0.33971 0.67943,0.67943 v 0.33973 l 0.33972,0.33972 -0.33972,0.33971 0.33972,-0.33971 1.01916,1.01915 v 0.33972 l 1.01915,1.01915 v 0.33972 l 0.67944,0.67944 -0.33972,0.33972 0.33972,-0.33972 0.33971,0.33972 v 0.33972 l -0.33971,0.33972 0.33971,-0.33972 1.35887,1.35887 h 0.33972 l 0.33973,0.33972 h 0.67943 l 0.33972,-0.33972 h 0.33972 v -0.33971 l 0.33972,-0.33972 v -1.01916 l -0.33972,-0.33972 v -0.33972 l -1.6986,-1.69859 v -0.33972 l -1.35887,-1.35887 v -0.33973 l -1.69859,-1.69859 v -0.33971 l -1.35887,-1.35887 v -0.33972 l -1.35887,-1.35888 v -0.33972 l -1.35887,-1.35887 v -0.33971 l -1.35888,-1.35888 v -0.33972 l -2.03832,-2.0383 v -0.33972 l -2.0383,-2.03832 v -0.33971 l -2.71775,-2.71775 0.33972,-0.33972 -0.33972,0.33972 -1.69859,-1.6986 z"
     fill="#000000"
     fill-rule="evenodd"
     id="path7"
     style="stroke-width:0.339718" />
  <path
     d="m 64.365408,230.49107 70.321692,-5.77521 40.76621,0.67944 46.54141,4.75605 -24.12,-7.13408 51.63719,1.01916 -12.9093,-2.71776 4.41634,-5.09577 -9.17239,2.37802 7.81352,-14.9476 -11.89015,8.15324 -1.01915,-12.22986 -4.07662,9.85183 -13.24902,-24.79944 4.75607,27.17747 -10.871,-6.79436 7.13408,11.89013 -1.69859,0.67944 2.03831,0.67943 -69.64225,-0.33971 10.19154,-12.90929 -13.92845,4.41633 10.19155,-29.21578 -18.00507,19.02423 -4.75605,-23.78028 -4.07662,18.68451 -29.5555,-50.27832 15.62704,55.37409 -19.363947,-14.94761 14.268177,25.13916 -1.6986,1.01916 -15.627037,-4.07662 17.325637,14.26817 -24.120007,4.75606 z m 49.938602,-28.87607 0.67943,0.67945 v 0.33971 l 1.01915,1.01916 v 0.33972 l 1.35887,1.35887 v 0.33972 l 1.01916,1.01916 v 0.33972 l 1.01916,1.01915 v 0.33972 l 1.01916,1.01915 v 0.33972 l 1.01915,1.01915 v 0.33973 l 1.01916,1.01915 v 0.33972 l 1.01916,1.01915 h 0.33971 l 2.37803,-2.37802 v -0.33973 l 4.07661,-4.07661 0.33972,0.33972 v 0.33972 l -0.33972,0.33972 v 1.69858 l -0.33971,0.33972 v 2.03831 l -0.33972,0.33972 v 1.69859 l -0.33972,0.33972 v 2.03831 l -0.33972,0.33972 v 1.69858 l -0.33971,0.33972 h -2.03832 l -0.33971,0.33972 h -3.39718 l -0.33972,0.33972 h -3.73691 l -0.33972,0.33972 h -3.7369 l -0.33971,0.33972 h -1.01916 l -0.33972,-0.33972 0.33972,-0.33972 h 0.33972 -0.33972 l -0.33972,0.33972 -1.01915,-1.01916 v -0.33972 l -0.33972,-0.33971 0.33972,-0.33972 -0.33972,0.33972 -0.67944,-0.67944 v -0.33972 l -1.01915,-1.01915 v -0.33972 l -1.35888,-1.35887 v -0.33972 l 0.33972,-0.33972 0.33972,0.33972 h 0.67944 l 0.33972,0.33972 h 0.67943 l 0.33972,0.33971 h 0.67944 l 0.33971,0.33972 h 0.67944 l 0.33972,0.33972 h 0.67944 l 0.33972,0.33972 h 0.67943 l 0.33972,0.33972 h 0.67943 v -0.33972 l -0.33971,-0.33972 v -2.37802 l -0.33972,-0.33972 v -1.6986 l -0.33972,-0.33971 v -2.37803 l -0.33972,-0.33971 v -2.03832 l -0.33971,-0.33972 v -2.03831 l -0.33972,-0.33972 v -1.01916 z"
     fill="#000000"
     fill-rule="evenodd"
     id="path8"
     style="stroke-width:0.339718" />
  <path
     d="m 205.00881,147.26007 2.0383,2.03832 h 0.33972 l 2.71775,2.03831 h 2.37803 l 2.37803,2.37802 -0.33972,0.33972 0.33972,0.67944 3.05747,3.05746 h 0.33971 l 0.67944,0.67944 h 1.69859 l 1.35887,-0.67944 0.67944,-0.67943 v -0.67944 l -0.67944,-0.33972 h -1.01916 l -0.33971,-0.33971 0.33971,-1.35888 0.67944,-0.67944 1.35888,-0.33971 1.35887,1.35887 h 0.33972 l 0.67943,-1.35887 v -1.01916 l -1.35887,-1.69859 h -0.33972 l -1.01915,-1.01916 -2.37803,-1.35887 -0.67944,-0.67944 0.33972,-0.33972 -0.33972,0.33972 -1.69858,-1.35887 v -1.01916 l 0.67943,-1.35887 h 2.37802 l 0.33972,0.33972 h 2.03831 l 0.33972,0.33971 h 2.03831 l 0.33972,0.33972 h 2.03831 l 0.33972,0.33972 h 2.37803 l 0.33972,0.33972 h 2.03831 l 0.33972,0.33972 h 2.71775 l 0.33971,0.33972 h 2.37803 l 0.33971,0.33972 h 2.03832 l 0.33971,0.33971 h 2.71775 l 0.33972,0.33972 h 2.37803 l 0.33972,0.33972 h 2.71775 l 0.33972,0.33972 h 2.71774 l 0.33972,0.33972 h 2.71774 l 0.33972,0.33972 h 5.77521 l 1.35887,-0.67944 0.67944,-1.35887 -0.33972,-0.67944 -2.0383,-2.03831 h -0.33972 l -2.71775,-2.03831 -3.39718,-1.69859 h -0.67944 l -1.01915,-0.67944 h -0.67944 l -0.33971,-0.33972 h -0.67945 l -0.33971,-0.33971 h -0.67944 l -0.33972,-0.33972 h -0.67943 l -0.33972,-0.33972 h -0.67944 l -0.33972,-0.33972 h -0.67944 l -1.35887,-0.67944 H 245.775 l -0.33972,-0.33972 h -0.67943 l -1.35888,-0.67943 h -1.01915 l -0.33972,-0.33972 h -0.67943 l -1.35887,-0.67943 h -1.01916 l -0.33972,-0.33972 -2.03831,-0.33972 -0.33971,-0.33972 h -0.67944 l -1.35888,-0.67943 h -1.01915 l -0.33972,-0.33972 h -0.67943 l -0.33972,-0.33972 h -0.67944 l -1.35888,-0.67944 -2.37803,-0.33972 -1.35887,-0.67943 h -1.01916 l -1.35887,-0.67944 -2.37803,-0.33972 -1.35887,-0.67944 h -1.35887 v 3.73691 l -0.33972,0.33972 v 0.67943 l -0.67944,1.35887 -0.67943,0.67944 -0.33972,1.01915 -1.01915,1.01916 v 0.33972 l -1.69859,2.03831 v 0.33971 l -3.3972,3.39719 h -0.33971 l -1.6986,1.35887 z m 12.56957,2.71775 0.33973,-0.33972 h 1.69858 l 0.67944,0.67945 h 0.33972 l 0.67943,0.67943 h 0.33972 l 0.33972,0.33972 -0.33972,0.33972 h -0.67944 l -0.67943,0.67943 -1.01915,-1.01915 0.33971,-0.33972 v -0.33972 l -0.33971,-0.33971 h -0.33972 l -0.33972,0.33971 -0.33972,-0.33971 h -0.33971 z"
     fill="#000000"
     fill-rule="evenodd"
     id="path9"
     style="stroke-width:0.339718" />
  <path
     d="m 211.46345,96.302317 v 0.67943 l 0.33972,-0.33972 h 2.03832 l 0.33972,-0.33971 h 4.07661 l 0.33972,0.33971 h 1.35887 l 0.33972,0.33972 h 1.01915 l 0.33972,0.33972 h 0.67944 l 0.33972,0.33972 h 0.67943 l 0.33972,0.33972 h 0.33972 l 0.33972,0.33972 h 0.33972 l 0.33971,0.33972 h 0.33972 l 0.33972,0.339719 h 0.33972 l 0.33971,0.33972 -0.33971,0.33972 0.33971,-0.33972 h 0.33973 l 0.67943,0.679444 h 0.33972 l 1.35887,1.35887 -0.33972,0.33971 0.33972,-0.33971 0.67944,0.67943 -0.33972,0.33973 0.33972,-0.33973 2.71775,2.71775 v 0.33972 l 0.67944,0.67943 v 0.33972 l -0.33972,0.33972 0.33972,-0.33972 0.67943,0.67944 v 0.33972 l 0.33972,0.33972 v 0.33972 l 0.33972,0.33971 v 0.33972 l 0.33972,0.33972 v 0.67943 l -0.33972,0.33972 0.33972,-0.33972 0.33972,0.33972 v 0.33972 l 0.33972,0.33972 v 0.67944 l 0.33972,0.33972 v 0.67944 h 0.33972 v -3.39719 l -0.33972,-0.33972 v -1.35887 l -0.33972,-0.33972 v -1.01916 l -0.33972,-0.33972 v -0.67943 l -0.33972,-0.33972 v -0.67943 l -0.33972,-0.33972 v -0.33972 l -0.33972,-0.33972 v -0.33971 l -0.33972,-0.33973 v -0.33972 l -0.33971,-0.33971 v -0.33972 l -0.67944,-0.67944 v -0.33971 l -0.67943,-0.679444 v -0.33972 l -2.37804,-2.378039 h -0.33972 l -0.67944,-0.67943 h -0.33971 l -0.67944,-0.67944 h -0.33972 l -0.33971,-0.33971 h -0.33972 l -0.33973,-0.33972 h -0.67943 l -0.33972,-0.33972 h -0.67943 l -0.33972,-0.33972 h -1.69859 l -0.33972,-0.33972 h -3.7369 l -0.33972,0.33972 h -1.35887 l -0.33972,0.33972 h -0.67944 l -0.33971,0.33972 h -0.67944 l -0.33972,0.33972 h -0.33971 l -0.33972,0.33971 h -0.67944 l -0.67944,0.67944 h -0.33972 l -0.33972,0.33972 z"
     fill="#000000"
     fill-rule="evenodd"
     id="path10"
     style="stroke-width:0.339718" />
  <path
     d="m 60.628506,92.905127 v 0.33972 l 0.679435,0.67944 h 0.339725 l 2.038306,1.69859 h 0.339719 l 0.679435,0.67944 h 0.339717 l 2.717747,2.37803 h 0.33972 l 1.019153,1.019159 h 0.33972 l 2.03831,1.698594 h 0.33972 l 1.35887,1.35887 h 0.33972 l 0.67943,0.67944 h 0.33973 l 0.67943,0.67943 h 0.33972 l 1.01916,1.01916 h 0.33971 l 1.01916,1.01915 h 0.33971 l 0.67945,0.67944 -0.33973,0.33972 0.33973,-0.33972 h 0.33971 l 1.01916,1.01916 h 0.33971 l 0.67944,0.67943 h 0.33972 l 0.67944,0.67944 -0.33972,0.33971 0.33972,-0.33971 h 0.33972 l 1.01915,1.01915 h 0.33972 l 2.03831,1.6986 h 0.33972 l 0.67943,0.67944 h 0.33972 l 0.33973,0.33972 -0.33973,0.33971 0.33973,-0.33971 0.33972,0.33971 1.01915,0.33972 0.679437,0.67944 -0.33972,0.33971 0.33972,-0.33971 H 90.184 l 2.71775,2.03831 1.01916,0.33972 0.67943,0.67943 h 0.33972 l 0.67943,0.67944 1.01916,0.33972 1.69859,1.35887 h 0.33972 l 1.35887,1.01916 1.01916,0.33971 0.67944,0.67944 h 0.33972 l 0.67944,0.67943 1.01915,0.33972 1.69859,1.35888 1.69859,0.67943 0.67944,0.67944 1.01915,0.33972 0.67944,0.67943 1.01916,0.33972 0.67943,0.67943 1.69859,0.67944 0.67944,0.67944 1.01915,0.33972 1.69859,1.35888 h 0.67944 v -0.33972 h -0.33972 l -1.69859,-1.35888 0.33972,-0.33971 -0.33972,0.33971 -0.33972,-0.33971 h -0.33971 l -1.01916,-1.01917 h -0.33972 l -1.01915,-1.01915 h -0.33972 l -1.01915,-1.01915 h -0.33972 l -1.01916,-1.01915 h -0.33972 l -1.01915,-1.01916 h -0.33972 l -1.01915,-1.01916 h -0.33972 l -3.7369,-3.05746 h -0.33972 l -2.03832,-1.69859 h -0.33972 l -1.01915,-1.01915 h -0.33972 l -0.67943,-0.67944 h -0.33972 l -0.67944,-0.67944 h -0.33971 l -0.67945,-0.67944 h -0.33971 l -1.01916,-1.01915 h -0.33971 l -0.67944,-0.67943 h -0.33972 l -0.67943,-0.67944 H 91.8826 l -0.67944,-0.67944 h -0.33972 l -2.717737,-2.03832 -1.01917,-0.33971 -2.71774,-2.03831 -1.01916,-0.33972 -1.69859,-1.35888 -1.01916,-0.33971 -1.69858,-1.35887 -1.01916,-0.33972 -1.69859,-1.35888 h -0.33972 l -1.35887,-1.01915 -1.6986,-0.67944 -2.71774,-2.038313 -2.378033,-1.01916 -2.717747,-2.03831 -1.698588,-0.67943 -0.679435,-0.67944 h -0.339719 l -1.358878,-1.01916 z"
     fill="#000000"
     fill-rule="evenodd"
     id="path11"
     style="stroke-width:0.339718" />
  <path
     d="m 37.52766,67.426254 3.057467,5.435503 8.832677,6.114924 65.905356,32.612969 1.35887,5.43549 9.1724,10.19155 5.77521,3.05747 0.67944,3.7369 6.11493,6.45465 4.41634,-2.03831 2.71775,-3.39718 v -2.37803 l -10.19156,-8.49296 1.01916,-3.05747 27.8569,10.53127 13.24902,7.13409 0.33972,1.01915 -2.03831,0.67944 -11.21071,-6.45465 3.05747,6.45465 8.83268,5.77521 7.81352,-1.35888 -4.75606,-2.71774 2.37803,-1.01916 12.22986,4.75606 9.51211,-0.33972 8.49296,-6.45465 -9.1724,0.33972 -1.01915,-0.67943 1.01915,-1.35887 8.49296,0.33971 4.75606,-3.7369 -1.35887,-5.77522 -3.73691,-4.07661 5.4355,4.07661 v -5.43549 l -2.37802,-4.41633 9.85182,-16.98592 -12.56958,12.56958 -32.27323,-17.325653 -3.73691,-11.210693 -8.15324,-6.114933 -14.60789,-0.67944 -12.22986,5.095773 -13.24901,-3.397182 2.0383,-0.67944 -3.7369,0.33972 -0.33972,-1.358871 9.51211,0.67944 1.01916,-1.358871 -11.55042,-4.416342 -1.01915,-20.043384 -3.39719,-5.77521 -4.07662,0.679436 -3.39719,3.736903 -7.4738,19.70366 -21.741967,-3.397179 -0.67944,1.69859 6.11494,3.397184 22.421397,6.454644 h -7.4738 l 2.37803,5.435502 6.11493,6.794363 28.87606,14.947613 1.35887,-0.33972 3.7369,3.05746 h 2.03831 l -0.33972,1.35888 -97.159443,-42.464797 -9.512112,-2.378032 z m 103.27438,68.283396 0.33972,0.33972 -1.01915,1.01915 v 0.33973 l -0.67945,0.67943 -0.67943,-0.67943 0.33972,-0.33973 v -0.33972 l 0.33971,-0.33971 v -0.33972 l 0.33973,-0.33972 0.33972,0.33972 0.33971,-0.33972 z m -0.33972,-0.67943 0.67944,-0.67944 h 2.0383 l 0.33972,0.33972 -0.33972,0.33972 h -0.33971 l -0.33972,0.33971 h -0.67944 l -0.67943,0.67944 -0.33972,-0.33972 v -0.33972 z m 68.28338,-4.41634 1.35888,-1.35888 h 0.67943 l 0.33972,-0.33972 h 1.01916 l 1.35888,1.35888 v 0.33972 l 0.33972,0.33972 v 0.33972 l 0.33972,0.33971 v 1.6986 l -0.33972,0.33972 -0.33972,-0.33972 -0.33972,0.33972 h -0.67944 l -0.33972,-0.33972 h -0.33972 l -0.33972,-0.33972 h -0.33972 l -0.33972,-0.33972 h -0.33972 l -0.33971,-0.33972 h -0.33972 l -1.01916,-1.01915 z m -73.03944,-1.35888 0.33972,-0.33972 h 1.01915 l 0.33972,-0.33971 h 1.01916 l 3.39718,3.39718 -0.33971,0.33972 h -0.67944 l -0.33972,0.33972 h -0.67943 l -0.33973,0.33972 h -0.33971 l -1.35888,-1.35888 v -0.33971 l -1.01916,-1.01916 0.33972,-0.33972 -0.33972,0.33972 z m -3.05747,-5.09577 0.33972,0.33972 h 0.33972 l 0.33972,0.33971 v 0.33972 l 2.37803,2.37802 -1.01916,1.01917 h -0.33972 l -0.67943,-0.67945 0.33971,-0.33972 v -0.33971 0.33971 l -0.33971,0.33972 -1.35888,-1.35887 v -0.33972 l -1.01915,-1.01915 z m 74.39832,-5.09578 0.33972,0.33972 -0.33972,0.33972 h -0.67943 l 0.33971,0.33972 0.67944,-0.67944 0.33972,0.33972 v 0.33972 l -0.33972,0.33972 v 0.33972 l -0.67944,0.67943 h -2.37803 l -0.33971,0.33972 h -0.67944 l -0.33972,0.33972 h -0.33971 l -0.67944,0.67943 h -0.33972 l -2.03831,2.03831 v 0.33972 l -0.67944,0.67944 v 0.67943 l -0.33971,0.33972 v 0.33972 l -0.33972,0.33971 v 0.33972 l -0.33972,0.33972 v 1.35888 l -0.33972,0.33972 v 2.37803 l -0.67943,0.67944 h -0.33972 l -0.33972,-0.33972 0.33972,-0.33972 -0.33972,-0.33972 v 1.01916 l -0.33972,0.33972 -0.33972,-0.33972 v -4.07663 l 0.33972,-0.33971 v -1.01917 l 0.33972,-0.33971 v -0.67944 l 0.33972,-0.33972 v -0.67943 l 0.33972,-0.33972 v -0.33972 l 0.33972,-0.33971 v -0.33972 l 0.67943,-0.67944 v -0.33972 l 2.03831,-2.03831 h 0.33971 l 0.67945,-0.67943 h 0.33972 l 0.33971,-0.33972 h 0.33972 l 0.33972,-0.33972 h 0.33972 l 0.33971,-0.33972 h 1.01916 l 0.33971,-0.33972 z m -56.39324,-6.45464 0.67943,-0.67944 h 0.33972 l 0.33972,0.33972 h 0.33971 l 0.33973,0.33972 h 0.33972 l 0.67943,0.67943 h 0.33972 l 0.67943,0.67944 -0.33971,0.33972 h -0.33972 l -0.33972,-0.33972 h -0.67943 l -0.33972,-0.33972 h -0.33973 l -0.33971,-0.33972 h -0.33972 l -0.33972,-0.33971 h -0.33972 z m 19.70366,-28.876076 1.01916,1.01916 v 0.33972 l 0.33971,0.33972 v 0.33972 l -0.33971,0.339711 h -0.67944 l -0.33972,0.339722 h -0.33971 l -0.67945,0.67944 v 0.33971 l -0.33971,0.33972 v 2.37803 l -0.33972,0.33972 h -0.33972 l -0.33972,0.33972 h -0.33971 l -0.33972,0.33971 h -0.33972 l -1.6986,1.69859 v 0.33972 l -0.33971,0.33972 v 0.33972 l -0.33972,0.33972 v 0.33972 l -0.33972,0.33972 v 0.33971 l -0.33972,0.33972 -0.33971,-0.33972 h -0.33972 l -0.33972,-0.33971 h -0.33972 l -0.33971,-0.33972 h -0.33972 l -0.33972,-0.33972 h -0.67944 l -0.67944,-0.67944 0.33972,-0.33972 -0.33972,0.33972 h -0.33971 l -0.33972,-0.33972 0.33972,-0.33972 v -1.01915 l 0.33971,-0.33972 v -0.33972 l 0.33972,-0.33971 v -0.33972 l 0.33972,-0.33972 v -0.33972 l 0.33972,-0.33971 v -0.33973 l 0.33972,-0.33972 v -0.33971 l 0.33972,-0.33972 v -0.33972 l 0.67943,-0.67943 v -0.33972 l 1.01916,-1.019153 v -0.33972 l 1.35887,-1.35888 h 0.33971 l 0.33972,-0.33972 h 0.33973 l 0.33971,-0.339719 h 0.67944 l 0.33972,-0.339712 h 1.35887 l 0.33972,0.339712 h 0.67943 l 0.33973,0.339719 z m -19.70366,-1.698591 -0.33972,0.33972 v 0.33972 l -0.67944,0.679432 v 0.339719 l -0.67943,0.67944 v 0.33972 l -0.33972,0.33972 v 0.33972 l -0.33972,0.33972 v 0.679433 l -0.33972,0.33972 v 0.67943 l -0.33972,0.33972 -0.33972,-0.33972 h -0.67943 l -0.33972,-0.33971 h -0.33972 l -0.33971,-0.33972 h -0.33972 l -0.33972,-0.33972 h -0.33972 l -0.33971,-0.339722 h -0.33973 l -0.67944,-0.679431 1.35888,-1.35888 h 0.33972 l 0.67944,-0.679439 h 0.33971 l 0.33972,-0.339712 h 0.33972 l 0.33972,-0.33972 h 0.33971 l 0.33972,-0.33972 h 0.67944 l 0.33972,-0.33972 h 0.67944 l 0.33971,-0.339711 h 0.67944 z m 13.24901,0 -0.33971,0.33972 h -0.33972 l -2.37803,2.378031 v 0.33972 l -0.67944,0.67944 v 0.339711 l -0.33971,0.339722 v 0.33972 l -0.67944,0.67943 v 0.33972 l -0.33972,0.33972 v 0.33972 l -0.33971,0.33971 v 0.67945 l -0.33972,0.33971 v 0.33972 l -0.33972,0.33972 v 0.33972 l -0.33972,0.33971 v 0.33972 l -0.67944,0.67944 -0.33972,-0.33972 h -0.33972 l -0.33972,-0.33972 h -0.33972 l -0.33972,-0.33972 h -0.33972 l -0.33971,-0.33971 h -0.67944 l -0.33972,-0.33972 h -0.33971 l -0.33972,-0.33972 h -0.33973 l -0.33971,-0.33972 h -0.33972 l -0.33972,-0.33971 h -0.33972 l -0.33971,-0.33973 h -0.67944 l -0.33972,-0.33972 0.33972,-0.33971 v -0.67944 l 0.33972,-0.33972 v -0.33971 l 0.33972,-0.33972 v -0.33972 l 0.33971,-0.339722 v -0.339711 l 0.33972,-0.33972 v -0.67944 l 0.33972,-0.33972 v -0.33972 l 1.01916,-1.019151 v -0.33972 l 1.35887,-1.358871 h 0.33972 l 0.33971,-0.33972 h 3.05748 l 0.33972,-0.33972 h 0.67943 l 0.33972,0.33972 h 2.37803 l 0.33972,0.33972 h 1.01915 l 0.33972,0.33972 h 0.33972 z"
     fill="#000000"
     fill-rule="evenodd"
     id="path12"
     style="stroke-width:0.339718" />
  <path
     d="m 51.795829,44.325409 0.679436,0.679435 h 0.339724 l 0.679435,0.679437 h 0.339719 l 1.019153,1.019159 h 0.339718 l 0.679435,0.679436 h 0.339718 l 1.01916,1.019154 h 0.339719 l 0.679435,0.679435 h 0.339717 l 1.019154,1.019154 h 0.339717 l 0.679437,0.679442 h 0.339717 l 0.679443,0.679436 h 0.339718 l 0.679436,0.679436 h 0.339717 l 0.339718,0.339717 h 0.339717 l 0.679436,0.679435 h 0.339718 l 0.679433,0.679436 h 0.33972 l 0.67944,0.679436 h 0.33972 l 0.33972,0.339725 h 0.33972 l 0.339711,0.339717 h 0.33972 l 0.67944,0.679436 h 0.339713 l 0.33972,0.339718 h 0.33972 l 0.33972,0.339718 h 0.33972 l 0.33972,0.339717 h 0.33972 l 0.67943,0.679436 h 0.33972 l 0.33972,0.339718 h 0.33971 l 0.33972,0.339717 h 0.33972 l 0.67943,0.679436 h 0.33973 l 0.33972,0.339725 h 0.33971 l 0.33972,0.339718 h 0.33972 l 0.33972,0.339718 h 0.33972 l 0.33971,0.339717 h 0.33972 l 0.33972,0.339718 h 0.33972 l 0.67943,0.679436 h 0.33973 l 0.67943,0.679435 h 0.33972 l 0.33972,0.339719 h 0.33971 l 0.33972,0.339717 v -0.679436 h -0.33972 l -0.67943,-0.679435 h -0.33972 l -0.33972,-0.339718 h -0.33971 l -1.01916,-1.019153 h -0.33972 l -1.01915,-1.019161 h -0.33972 l -0.67944,-0.679436 h -0.33972 l -1.01916,-1.019152 h -0.33971 l -0.67944,-0.679436 h -0.33972 l -1.01915,-1.019154 h -0.33972 l -0.67943,-0.679435 h -0.33972 l -0.67944,-0.679443 h -0.33972 l -0.33972,-0.339718 H 68.78175 L 68.10231,53.158085 H 67.76259 L 67.083159,52.47865 h -0.33972 l -0.679431,-0.679436 h -0.339729 l -0.33972,-0.339717 H 65.044843 L 64.365408,50.780061 H 64.025691 L 63.685972,50.440343 H 63.346255 L 63.006537,50.100619 H 62.66682 L 62.327101,49.760901 H 61.987384 L 61.307941,49.081465 H 60.968223 L 60.628506,48.741747 H 60.288788 L 59.949069,48.40203 H 59.609352 L 59.269634,48.062311 H 58.929917 L 58.590198,47.722594 H 58.250481 L 57.571046,47.043159 H 57.231327 L 56.891603,46.70344 H 56.551885 L 56.212167,46.363722 H 55.872449 L 55.532731,46.024005 H 55.193014 L 54.513578,45.344562 H 54.17386 l -0.339717,-0.339718 h -0.339719 l -0.339717,-0.339717 h -0.339718 l -0.339724,-0.339718 z"
     fill="#000000"
     fill-rule="evenodd"
     id="path13"
     style="stroke-width:0.339718" />
  <path
     d="m 47.039772,20.545128 v 0.339717 l 0.339719,0.339718 1.01916,0.339718 2.038306,1.698589 h 0.339718 l 0.679436,0.679436 -0.339718,0.339725 0.339718,-0.339725 h 0.339718 l 0.679436,0.679442 h 0.339724 l 0.679435,0.679436 h 0.339719 l 1.019153,1.019154 h 0.339718 l 0.679435,0.679435 -0.339718,0.339718 0.339718,-0.339718 h 0.339718 l 0.679436,0.679436 h 0.339724 l 0.679436,0.679435 -0.339717,0.339725 0.339717,0.339718 -0.339717,-0.339718 0.339717,-0.339725 h 0.339718 l 0.679436,0.679443 h 0.339717 l 0.679435,0.679435 h 0.339719 l 0.679435,0.679436 h 0.339718 l 2.71775,2.038306 1.019152,0.339719 0.679436,0.679442 -0.33972,0.339717 0.33972,-0.339717 h 0.339729 l 0.679431,0.679436 1.019151,0.339718 2.717753,2.038306 1.01915,0.339718 0.67944,0.679442 -0.33972,0.339719 0.33972,-0.339719 1.01915,0.339719 0.67944,0.679435 -0.33972,0.339718 0.33972,-0.339718 1.01916,0.339718 0.67943,0.679436 1.01916,0.339717 0.67943,0.679436 1.01915,0.339718 0.67945,0.679442 1.69858,0.679436 0.67944,0.679436 1.6986,0.679435 0.67943,0.679436 1.6986,0.679435 0.67943,0.679437 h 0.33972 l 0.33972,0.339724 1.01916,0.339717 0.67944,0.679437 2.378017,1.019152 0.67943,0.679436 2.37804,1.019154 0.67943,0.679442 1.6986,0.679436 0.67943,0.679435 1.69859,0.679436 0.67943,0.679435 h 0.33972 l 0.67944,0.679436 h 0.33972 v -0.339717 l -0.67944,-0.679436 H 99.69611 L 99.01668,52.138933 H 98.67696 L 97.99752,51.459497 H 97.65781 L 96.97837,50.780061 H 96.63865 L 95.95921,50.100619 H 95.61949 L 94.94006,49.421183 H 94.60034 L 93.92091,48.741747 H 93.58119 L 92.90175,48.062311 H 92.56204 L 91.8826,47.382876 H 91.54287 L 90.52372,46.363722 H 90.184 l -0.67943,-0.679441 h -0.339717 l -0.67943,-0.679437 h -0.33972 l -1.01917,-1.019153 -1.01915,-0.339718 -0.67943,-0.679435 h -0.33972 l -0.67944,-0.679436 h -0.33972 l -0.67944,-0.679436 h -0.33971 l -0.67944,-0.679442 h -0.33972 l -2.71775,-2.038307 -1.01916,-0.339718 -2.71774,-2.038314 -1.01915,-0.339718 -2.71775,-2.038306 h -0.33972 L 70.140623,33.114707 68.44203,32.435264 66.743439,31.076393 64.365408,30.05724 63.685972,29.377805 61.987384,28.698369 61.307941,28.018927 60.288788,27.679209 59.609352,26.999773 55.872449,25.301184 55.193014,24.621748 52.135546,23.26287 51.456111,22.583434 h -0.339718 l -0.339718,-0.339718 z"
     fill="#000000"
     fill-rule="evenodd"
     id="path14"
     style="stroke-width:0.339718" />
</svg>
