<svg xmlns="http://www.w3.org/2000/svg" width="1254" height="1254" viewBox="0 0 1254 1254">
<rect width="100%" height="100%" fill="white"/>
<path d="M 399,869 L 400,870 L 400,871 L 404,875 L 404,876 L 407,879 L 409,879 L 410,880 L 414,880 L 415,881 L 418,881 L 419,882 L 424,882 L 424,881 L 421,878 L 420,878 L 411,869 L 410,869 L 409,868 L 408,869 Z" fill="black" fill-rule="evenodd"/>
<path d="M 687,847 L 682,847 L 681,848 L 675,848 L 674,849 L 670,849 L 665,854 L 665,855 L 659,861 L 659,862 L 653,868 L 653,870 L 654,869 L 656,869 L 657,868 L 659,868 L 660,867 L 662,867 L 663,866 L 665,866 L 666,865 L 668,865 L 669,864 L 670,864 L 671,863 L 674,863 L 677,860 L 677,859 L 680,856 L 680,855 L 685,850 L 685,849 Z" fill="black" fill-rule="evenodd"/>
<path d="M 912,824 L 912,826 L 913,827 L 913,828 L 914,829 L 914,830 L 913,831 L 914,830 L 916,832 L 916,833 L 918,835 L 918,836 L 922,840 L 922,841 L 923,842 L 922,843 L 923,842 L 927,846 L 927,847 L 932,852 L 932,853 L 938,859 L 938,860 L 942,864 L 943,864 L 944,865 L 947,865 L 948,864 L 948,860 L 947,859 L 947,858 L 940,851 L 940,850 L 934,844 L 934,843 L 933,842 L 934,841 L 933,842 L 917,826 L 916,826 L 914,824 Z" fill="black" fill-rule="evenodd"/>
<path d="M 385,800 L 385,801 L 386,802 L 386,803 L 389,806 L 389,807 L 390,808 L 390,809 L 392,811 L 392,812 L 394,814 L 394,815 L 395,816 L 395,817 L 396,818 L 397,818 L 398,819 L 399,819 L 400,820 L 401,820 L 402,821 L 403,821 L 404,822 L 405,822 L 406,823 L 407,823 L 409,825 L 410,825 L 411,826 L 412,826 L 413,827 L 414,827 L 415,828 L 416,828 L 417,829 L 418,829 L 419,830 L 419,829 L 418,828 L 418,827 L 416,825 L 416,824 L 414,822 L 414,821 L 410,817 L 410,816 L 408,814 L 408,813 L 406,811 L 406,810 L 403,807 L 403,806 L 402,806 L 401,805 L 399,805 L 398,804 L 396,804 L 395,803 L 393,803 L 392,802 L 390,802 L 389,801 L 387,801 L 386,800 Z" fill="black" fill-rule="evenodd"/>
<path d="M 689,777 L 689,779 L 690,780 L 690,781 L 691,782 L 691,783 L 692,784 L 692,785 L 693,786 L 693,787 L 694,788 L 694,789 L 693,790 L 694,791 L 695,790 L 696,791 L 696,792 L 695,793 L 696,792 L 698,794 L 698,795 L 700,797 L 700,798 L 703,801 L 703,802 L 706,805 L 706,806 L 708,808 L 708,809 L 709,810 L 708,811 L 709,810 L 711,812 L 711,813 L 710,814 L 711,813 L 714,816 L 714,817 L 716,819 L 716,820 L 720,824 L 720,825 L 722,827 L 722,828 L 726,832 L 726,833 L 729,836 L 729,837 L 732,840 L 732,841 L 735,844 L 736,844 L 737,845 L 739,845 L 741,843 L 741,838 L 739,836 L 739,835 L 736,832 L 736,831 L 733,828 L 733,827 L 730,824 L 730,823 L 726,819 L 726,818 L 723,815 L 723,814 L 720,811 L 720,810 L 717,807 L 717,806 L 714,803 L 714,802 L 710,798 L 710,797 L 706,793 L 706,792 L 694,780 L 693,780 L 690,777 Z" fill="black" fill-rule="evenodd"/>
<path d="M 845,744 L 845,745 L 846,746 L 846,747 L 847,748 L 847,749 L 848,750 L 848,751 L 850,753 L 850,754 L 855,759 L 855,760 L 858,763 L 858,764 L 861,767 L 860,768 L 861,767 L 862,768 L 862,769 L 863,770 L 862,771 L 863,772 L 864,771 L 867,774 L 867,775 L 872,780 L 872,781 L 873,782 L 872,783 L 873,782 L 875,784 L 874,785 L 875,784 L 877,786 L 877,787 L 878,788 L 877,789 L 879,791 L 880,790 L 883,793 L 883,794 L 889,800 L 889,801 L 896,808 L 901,808 L 901,802 L 894,795 L 894,794 L 886,786 L 886,785 L 876,775 L 876,774 L 866,764 L 866,763 L 850,747 L 849,747 L 846,744 Z" fill="black" fill-rule="evenodd"/>
<path d="M 625,685 L 625,686 L 626,687 L 626,689 L 627,690 L 627,691 L 628,692 L 628,693 L 629,694 L 629,695 L 631,697 L 631,698 L 633,700 L 633,701 L 636,704 L 636,705 L 638,707 L 638,708 L 641,711 L 641,712 L 643,714 L 643,715 L 646,718 L 646,719 L 649,722 L 649,723 L 652,726 L 652,727 L 655,730 L 655,731 L 658,734 L 658,735 L 659,736 L 658,737 L 659,736 L 661,738 L 661,739 L 662,740 L 661,741 L 662,740 L 665,743 L 665,744 L 668,747 L 668,748 L 670,750 L 669,751 L 670,750 L 671,751 L 671,752 L 670,753 L 671,752 L 675,756 L 676,756 L 677,757 L 679,757 L 680,756 L 681,756 L 681,755 L 682,754 L 682,751 L 681,750 L 681,749 L 676,744 L 676,743 L 672,739 L 672,738 L 667,733 L 667,732 L 663,728 L 663,727 L 659,723 L 659,722 L 655,718 L 655,717 L 651,713 L 651,712 L 645,706 L 645,705 L 639,699 L 639,698 L 631,690 L 632,689 L 631,690 L 626,685 Z" fill="black" fill-rule="evenodd"/>
<path d="M 378,937 L 585,920 L 705,922 L 842,936 L 771,915 L 923,918 L 885,910 L 898,895 L 871,902 L 894,858 L 859,882 L 856,846 L 844,875 L 805,802 L 819,882 L 787,862 L 808,897 L 803,899 L 809,901 L 604,900 L 634,862 L 593,875 L 623,789 L 570,845 L 556,775 L 544,830 L 457,682 L 503,845 L 446,801 L 488,875 L 483,878 L 437,866 L 488,908 L 417,922 Z M 525,852 L 527,854 L 527,855 L 530,858 L 530,859 L 534,863 L 534,864 L 537,867 L 537,868 L 540,871 L 540,872 L 543,875 L 543,876 L 546,879 L 546,880 L 549,883 L 549,884 L 552,887 L 553,887 L 560,880 L 560,879 L 572,867 L 573,868 L 573,869 L 572,870 L 572,875 L 571,876 L 571,882 L 570,883 L 570,888 L 569,889 L 569,895 L 568,896 L 568,901 L 567,902 L 561,902 L 560,903 L 550,903 L 549,904 L 538,904 L 537,905 L 526,905 L 525,906 L 522,906 L 521,905 L 522,904 L 523,904 L 522,904 L 521,905 L 518,902 L 518,901 L 517,900 L 518,899 L 517,900 L 515,898 L 515,897 L 512,894 L 512,893 L 508,889 L 508,888 L 509,887 L 510,888 L 512,888 L 513,889 L 515,889 L 516,890 L 518,890 L 519,891 L 521,891 L 522,892 L 524,892 L 525,893 L 527,893 L 528,894 L 530,894 L 530,893 L 529,892 L 529,885 L 528,884 L 528,879 L 527,878 L 527,871 L 526,870 L 526,864 L 525,863 L 525,857 L 524,856 L 524,853 Z" fill="black" fill-rule="evenodd"/>
<path d="M 792,692 L 798,698 L 799,698 L 807,704 L 814,704 L 821,711 L 820,712 L 821,714 L 830,723 L 831,723 L 833,725 L 838,725 L 842,723 L 844,721 L 844,719 L 842,718 L 839,718 L 838,717 L 839,713 L 841,711 L 845,710 L 849,714 L 850,714 L 852,710 L 852,707 L 848,702 L 847,702 L 844,699 L 837,695 L 835,693 L 836,692 L 835,693 L 830,689 L 830,686 L 832,682 L 839,682 L 840,683 L 846,683 L 847,684 L 853,684 L 854,685 L 860,685 L 861,686 L 868,686 L 869,687 L 875,687 L 876,688 L 884,688 L 885,689 L 892,689 L 893,690 L 899,690 L 900,691 L 908,691 L 909,692 L 916,692 L 917,693 L 925,693 L 926,694 L 934,694 L 935,695 L 943,695 L 944,696 L 961,696 L 965,694 L 967,690 L 966,688 L 960,682 L 959,682 L 951,676 L 941,671 L 939,671 L 936,669 L 934,669 L 933,668 L 931,668 L 930,667 L 928,667 L 927,666 L 925,666 L 924,665 L 922,665 L 921,664 L 919,664 L 915,662 L 912,662 L 911,661 L 909,661 L 905,659 L 902,659 L 901,658 L 899,658 L 895,656 L 892,656 L 891,655 L 885,654 L 884,653 L 882,653 L 878,651 L 875,651 L 874,650 L 872,650 L 871,649 L 869,649 L 865,647 L 858,646 L 854,644 L 851,644 L 847,642 L 840,641 L 836,639 L 832,639 L 832,650 L 831,651 L 831,653 L 829,657 L 827,659 L 826,662 L 823,665 L 823,666 L 818,672 L 818,673 L 808,683 L 807,683 L 802,687 Z M 829,700 L 830,699 L 835,699 L 837,701 L 838,701 L 840,703 L 841,703 L 842,704 L 841,705 L 839,705 L 837,707 L 834,704 L 835,703 L 835,702 L 834,701 L 833,701 L 832,702 L 831,701 L 830,701 Z" fill="black" fill-rule="evenodd"/>
<path d="M 811,542 L 811,544 L 812,543 L 818,543 L 819,542 L 831,542 L 832,543 L 836,543 L 837,544 L 840,544 L 841,545 L 843,545 L 844,546 L 846,546 L 847,547 L 848,547 L 849,548 L 850,548 L 851,549 L 852,549 L 853,550 L 854,550 L 855,551 L 854,552 L 855,551 L 856,551 L 858,553 L 859,553 L 863,557 L 862,558 L 863,557 L 865,559 L 864,560 L 865,559 L 873,567 L 873,568 L 875,570 L 875,571 L 874,572 L 875,571 L 877,573 L 877,574 L 878,575 L 878,576 L 879,577 L 879,578 L 880,579 L 880,581 L 879,582 L 880,581 L 881,582 L 881,583 L 882,584 L 882,586 L 883,587 L 883,589 L 884,589 L 884,579 L 883,578 L 883,574 L 882,573 L 882,570 L 881,569 L 881,567 L 880,566 L 880,564 L 879,563 L 879,562 L 878,561 L 878,560 L 877,559 L 877,558 L 876,557 L 876,556 L 874,554 L 874,553 L 872,551 L 872,550 L 865,543 L 864,543 L 862,541 L 861,541 L 859,539 L 858,539 L 857,538 L 856,538 L 855,537 L 853,537 L 852,536 L 850,536 L 849,535 L 844,535 L 843,534 L 832,534 L 831,535 L 827,535 L 826,536 L 824,536 L 823,537 L 821,537 L 820,538 L 819,538 L 818,539 L 816,539 L 814,541 L 813,541 L 812,542 Z" fill="black" fill-rule="evenodd"/>
<path d="M 367,532 L 367,533 L 369,535 L 370,535 L 376,540 L 377,540 L 379,542 L 380,542 L 388,549 L 389,549 L 392,552 L 393,552 L 399,557 L 400,557 L 404,561 L 405,561 L 407,563 L 408,563 L 410,565 L 411,565 L 414,568 L 415,568 L 418,571 L 419,571 L 421,573 L 420,574 L 421,573 L 422,573 L 425,576 L 426,576 L 428,578 L 429,578 L 431,580 L 430,581 L 431,580 L 432,580 L 435,583 L 436,583 L 442,588 L 443,588 L 445,590 L 446,590 L 447,591 L 446,592 L 447,591 L 448,592 L 451,593 L 453,595 L 452,596 L 453,595 L 454,595 L 462,601 L 465,602 L 467,604 L 468,604 L 470,606 L 473,607 L 478,611 L 479,611 L 483,614 L 486,615 L 488,617 L 489,617 L 491,619 L 494,620 L 499,624 L 504,626 L 506,628 L 509,629 L 511,631 L 514,632 L 516,634 L 521,636 L 523,638 L 526,639 L 531,643 L 533,643 L 533,642 L 532,642 L 527,638 L 528,637 L 527,638 L 526,637 L 525,637 L 522,634 L 521,634 L 518,631 L 517,631 L 514,628 L 513,628 L 510,625 L 509,625 L 506,622 L 505,622 L 502,619 L 501,619 L 490,610 L 489,610 L 483,605 L 482,605 L 479,602 L 478,602 L 476,600 L 475,600 L 473,598 L 472,598 L 470,596 L 469,596 L 466,593 L 465,593 L 463,591 L 462,591 L 460,589 L 459,589 L 457,587 L 456,587 L 448,581 L 445,580 L 437,574 L 434,573 L 429,569 L 426,568 L 421,564 L 418,563 L 413,559 L 412,559 L 408,556 L 403,554 L 395,548 L 388,545 L 380,539 L 375,537 L 373,535 L 372,535 L 368,532 Z" fill="black" fill-rule="evenodd"/>
<path d="M 299,457 L 308,473 L 334,491 L 528,587 L 532,603 L 559,633 L 576,642 L 578,653 L 596,672 L 609,666 L 617,656 L 617,649 L 587,624 L 590,615 L 672,646 L 711,667 L 712,670 L 706,672 L 673,653 L 682,672 L 708,689 L 731,685 L 717,677 L 724,674 L 760,688 L 788,687 L 813,668 L 786,669 L 783,667 L 786,663 L 811,664 L 825,653 L 821,636 L 810,624 L 826,636 L 826,620 L 819,607 L 848,557 L 811,594 L 716,543 L 705,510 L 681,492 L 638,490 L 602,505 L 563,495 L 569,493 L 558,494 L 557,490 L 585,492 L 588,488 L 554,475 L 551,416 L 541,399 L 529,401 L 519,412 L 497,470 L 433,460 L 431,465 L 449,475 L 515,494 L 493,494 L 500,510 L 518,530 L 603,574 L 607,573 L 618,582 L 624,582 L 623,586 L 337,461 L 309,454 Z M 603,658 L 604,659 L 601,662 L 601,663 L 599,665 L 597,663 L 598,662 L 598,661 L 599,660 L 599,659 L 600,658 L 601,659 L 602,658 Z M 602,656 L 604,654 L 610,654 L 611,655 L 610,656 L 609,656 L 608,657 L 606,657 L 604,659 L 603,658 L 603,657 Z M 803,643 L 807,639 L 809,639 L 810,638 L 813,638 L 817,642 L 817,643 L 818,644 L 818,645 L 819,646 L 819,651 L 818,652 L 817,651 L 816,652 L 814,652 L 813,651 L 812,651 L 811,650 L 810,650 L 809,649 L 808,649 L 807,648 L 806,648 L 803,645 Z M 588,639 L 589,638 L 592,638 L 593,637 L 596,637 L 606,647 L 605,648 L 603,648 L 602,649 L 600,649 L 599,650 L 598,650 L 594,646 L 594,645 L 591,642 L 592,641 L 591,642 Z M 579,624 L 580,625 L 581,625 L 582,626 L 582,627 L 589,634 L 586,637 L 585,637 L 583,635 L 584,634 L 584,633 L 584,634 L 583,635 L 579,631 L 579,630 L 576,627 Z M 798,609 L 799,610 L 798,611 L 796,611 L 797,612 L 799,610 L 800,611 L 800,612 L 799,613 L 799,614 L 797,616 L 790,616 L 789,617 L 787,617 L 786,618 L 785,618 L 783,620 L 782,620 L 776,626 L 776,627 L 774,629 L 774,631 L 773,632 L 773,633 L 772,634 L 772,635 L 771,636 L 771,640 L 770,641 L 770,648 L 768,650 L 767,650 L 766,649 L 767,648 L 766,647 L 766,650 L 765,651 L 764,650 L 764,638 L 765,637 L 765,634 L 766,633 L 766,631 L 767,630 L 767,628 L 768,627 L 768,626 L 769,625 L 769,624 L 771,622 L 771,621 L 777,615 L 778,615 L 780,613 L 781,613 L 782,612 L 783,612 L 784,611 L 785,611 L 786,610 L 789,610 L 790,609 Z M 632,590 L 634,588 L 635,588 L 636,589 L 637,589 L 638,590 L 639,590 L 641,592 L 642,592 L 644,594 L 643,595 L 642,595 L 641,594 L 639,594 L 638,593 L 637,593 L 636,592 L 635,592 L 634,591 L 633,591 Z M 690,505 L 693,508 L 693,509 L 694,510 L 694,511 L 693,512 L 691,512 L 690,513 L 689,513 L 687,515 L 687,516 L 686,517 L 686,524 L 685,525 L 684,525 L 683,526 L 682,526 L 681,527 L 680,527 L 675,532 L 675,533 L 674,534 L 674,535 L 673,536 L 673,537 L 672,538 L 672,539 L 671,540 L 670,539 L 669,539 L 668,538 L 667,538 L 666,537 L 665,537 L 664,536 L 662,536 L 660,534 L 661,533 L 660,534 L 659,534 L 658,533 L 659,532 L 659,529 L 660,528 L 660,527 L 661,526 L 661,525 L 662,524 L 662,523 L 663,522 L 663,521 L 664,520 L 664,519 L 665,518 L 665,517 L 667,515 L 667,514 L 670,511 L 670,510 L 674,506 L 675,506 L 676,505 L 677,505 L 678,504 L 680,504 L 681,503 L 685,503 L 686,504 L 688,504 L 689,505 Z M 632,500 L 631,501 L 631,502 L 629,504 L 629,505 L 627,507 L 627,508 L 626,509 L 626,510 L 625,511 L 625,513 L 624,514 L 624,516 L 623,517 L 622,516 L 620,516 L 619,515 L 618,515 L 617,514 L 616,514 L 615,513 L 614,513 L 613,512 L 612,512 L 610,510 L 614,506 L 615,506 L 617,504 L 618,504 L 619,503 L 620,503 L 621,502 L 622,502 L 623,501 L 625,501 L 626,500 L 628,500 L 629,499 L 631,499 Z M 671,500 L 670,501 L 669,501 L 662,508 L 662,509 L 660,511 L 660,512 L 659,513 L 659,514 L 657,516 L 657,517 L 656,518 L 656,519 L 655,520 L 655,522 L 654,523 L 654,524 L 653,525 L 653,526 L 652,527 L 652,528 L 650,530 L 649,529 L 648,529 L 647,528 L 646,528 L 645,527 L 644,527 L 643,526 L 641,526 L 640,525 L 639,525 L 638,524 L 637,524 L 636,523 L 635,523 L 634,522 L 633,522 L 632,521 L 630,521 L 629,520 L 630,519 L 630,517 L 631,516 L 631,515 L 632,514 L 632,513 L 633,512 L 633,511 L 634,510 L 634,508 L 635,507 L 635,506 L 638,503 L 638,502 L 642,498 L 643,498 L 644,497 L 653,497 L 654,496 L 656,496 L 657,497 L 664,497 L 665,498 L 668,498 L 669,499 L 670,499 Z" fill="black" fill-rule="evenodd"/>
<path d="M 341,389 L 343,391 L 344,391 L 346,393 L 347,393 L 350,396 L 351,396 L 353,398 L 354,398 L 357,401 L 358,401 L 360,403 L 361,403 L 364,406 L 365,406 L 367,408 L 368,408 L 370,410 L 371,410 L 373,412 L 374,412 L 375,413 L 376,413 L 378,415 L 379,415 L 381,417 L 382,417 L 384,419 L 385,419 L 386,420 L 387,420 L 388,421 L 389,421 L 391,423 L 392,423 L 393,424 L 394,424 L 395,425 L 396,425 L 397,426 L 398,426 L 400,428 L 401,428 L 402,429 L 403,429 L 404,430 L 405,430 L 407,432 L 408,432 L 409,433 L 410,433 L 411,434 L 412,434 L 413,435 L 414,435 L 415,436 L 416,436 L 417,437 L 418,437 L 420,439 L 421,439 L 423,441 L 424,441 L 425,442 L 426,442 L 427,443 L 427,441 L 426,441 L 424,439 L 423,439 L 422,438 L 421,438 L 418,435 L 417,435 L 414,432 L 413,432 L 411,430 L 410,430 L 407,427 L 406,427 L 404,425 L 403,425 L 400,422 L 399,422 L 397,420 L 396,420 L 394,418 L 393,418 L 392,417 L 391,417 L 389,415 L 388,415 L 386,413 L 385,413 L 383,411 L 382,411 L 381,410 L 380,410 L 378,408 L 377,408 L 376,407 L 375,407 L 374,406 L 373,406 L 372,405 L 371,405 L 369,403 L 368,403 L 367,402 L 366,402 L 365,401 L 364,401 L 363,400 L 362,400 L 361,399 L 360,399 L 358,397 L 357,397 L 356,396 L 355,396 L 354,395 L 353,395 L 352,394 L 351,394 L 349,392 L 348,392 L 347,391 L 346,391 L 345,390 L 344,390 L 343,389 Z" fill="black" fill-rule="evenodd"/>
<path d="M 327,319 L 327,320 L 328,321 L 331,322 L 337,327 L 338,327 L 340,329 L 339,330 L 340,329 L 341,329 L 343,331 L 344,331 L 346,333 L 347,333 L 350,336 L 351,336 L 353,338 L 352,339 L 353,338 L 354,338 L 356,340 L 357,340 L 359,342 L 358,343 L 359,344 L 358,343 L 359,342 L 360,342 L 362,344 L 363,344 L 365,346 L 366,346 L 368,348 L 369,348 L 377,354 L 380,355 L 382,357 L 381,358 L 382,357 L 383,357 L 385,359 L 388,360 L 396,366 L 399,367 L 401,369 L 400,370 L 401,369 L 404,370 L 406,372 L 405,373 L 406,372 L 409,373 L 411,375 L 414,376 L 416,378 L 419,379 L 421,381 L 426,383 L 428,385 L 433,387 L 435,389 L 440,391 L 442,393 L 443,393 L 444,394 L 447,395 L 449,397 L 456,400 L 458,402 L 465,405 L 467,407 L 472,409 L 474,411 L 479,413 L 481,415 L 482,415 L 484,417 L 485,417 L 485,416 L 483,414 L 482,414 L 480,412 L 479,412 L 477,410 L 476,410 L 474,408 L 473,408 L 471,406 L 470,406 L 468,404 L 467,404 L 465,402 L 464,402 L 462,400 L 461,400 L 459,398 L 458,398 L 455,395 L 454,395 L 452,393 L 451,393 L 449,391 L 448,391 L 445,388 L 442,387 L 440,385 L 439,385 L 437,383 L 436,383 L 434,381 L 433,381 L 431,379 L 430,379 L 422,373 L 419,372 L 411,366 L 408,365 L 400,359 L 399,359 L 395,356 L 390,354 L 385,350 L 378,347 L 376,345 L 371,343 L 369,341 L 366,340 L 364,338 L 353,333 L 351,331 L 342,327 L 340,325 L 339,325 L 338,324 Z" fill="black" fill-rule="evenodd"/>
</svg>