<?xml version="1.0" encoding="UTF-8" standalone="no"?>
<svg
   width="550"
   height="250"
   viewBox="0 0 550 250"
   version="1.1"
   id="svg1"
   sodipodi:docname="stuart_m5a1_black.svg"
   inkscape:version="1.4.2 (f4327f4, 2025-05-13)"
   xmlns:inkscape="http://www.inkscape.org/namespaces/inkscape"
   xmlns:sodipodi="http://sodipodi.sourceforge.net/DTD/sodipodi-0.dtd"
   xmlns="http://www.w3.org/2000/svg"
   xmlns:svg="http://www.w3.org/2000/svg">
  <defs
     id="defs1" />
  <sodipodi:namedview
     id="namedview1"
     pagecolor="#ffffff"
     bordercolor="#000000"
     borderopacity="0.25"
     inkscape:showpageshadow="2"
     inkscape:pageopacity="0.0"
     inkscape:pagecheckerboard="0"
     inkscape:deskcolor="#d1d1d1"
     inkscape:zoom="0.78654235"
     inkscape:cx="921.75583"
     inkscape:cy="368.06664"
     inkscape:window-width="2560"
     inkscape:window-height="1377"
     inkscape:window-x="-8"
     inkscape:window-y="-8"
     inkscape:window-maximized="1"
     inkscape:current-layer="svg1" />
  <path
     d="m 520.46531,143.27778 -7.06913,-12.56743 3.14181,-3.14186 -2.35638,-5.10551 -7.85464,0.78546 -7.06914,-12.56743 -10.60377,-4.32007 -1.9637,-10.211035 h -6.2837 l -3.14188,7.854645 h -10.21103 l 3.53464,-3.14186 -2.35645,-12.174696 -69.51358,-12.174702 -3.53458,3.141857 0.39272,7.461916 -8.24737,4.320044 0.39273,-3.927317 -5.49825,-4.320048 h -11.38923 l -5.49825,4.320048 v 3.927317 l -42.41508,-0.785464 -1.1782,-8.640103 23.56394,-0.785465 1.1782,-14.923821 7.06918,-3.141857 -10.21104,-2.74912 -2.35639,-18.851146 -3.92732,-5.49825 -18.85116,-3.53459 -1.1782,-7.069178 -22.77846,-1.963661 -1.96366,5.105518 -3.92732,-0.392732 -0.39274,-10.211044 -3.53458,-1.96366 -1.57093,11.781972 -32.9895,0.392732 -1.1782,-4.320054 h -10.99651 l -1.96366,6.676447 -33.38224,9.425571 -3.14185,12.174698 -3.53459,-1.178197 -0.78546,-7.069179 -10.21104,1.570928 -7.06918,12.174695 -5.49825,3.534594 -124.103375,2.74912 1.178196,6.676452 120.176049,2.356393 -0.78546,8.640107 2.74913,3.534584 20.8148,1.570928 -0.78547,6.28371 3.5346,1.178202 -18.45842,1.963666 -5.89097,-7.069189 H 158.759 l -5.49826,4.712786 1.57093,7.069188 -8.24738,1.57093 -1.96366,3.92732 -24.74213,14.53111 -8.6401,0.78546 c -6.41302,0.79025 -7.10219,-1.00878 -10.9965,3.53459 l -20.029342,3.92732 c -10.109293,-1.94328 -9.753605,-0.83223 -18.851151,3.53459 l -19.636608,5.89098 -10.9965,14.53109 6.283714,-1.96365 4.712786,3.53458 -3.534589,10.9965 -3.141857,1.1782 1.570928,5.49825 -2.749125,4.32005 3.927322,12.96017 3.927321,0.78546 -1.178196,2.74913 20.02934,15.70929 20.029347,10.21103 0.785464,3.14186 1.178197,-1.96366 9.032843,7.46191 17.672946,6.28372 315.36398,0.78546 38.48771,-9.42557 37.70228,-15.31656 9.03289,-12.17469 1.96363,-12.1747 -4.71276,-14.5311 -10.21109,-9.8183 1.9637,-4.32006 h 10.60378 l -2.35639,-4.32004 5.10552,5.89097 3.92732,-0.78546 z m -96.21935,83.25922 0.39276,-0.39273 h 1.17819 l 0.39268,0.39273 h 1.57095 l 0.39275,0.39274 -0.39275,0.39272 h -3.14182 l -0.39276,-0.39272 z m -191.65332,-0.39273 0.39273,-0.39273 h 6.67645 l 0.39273,0.39273 v 0.39273 l -0.78546,0.78546 h -5.89098 l -0.78547,-0.78546 z m -117.03419,0.78547 V 226.537 l 0.39273,-0.39273 h 2.74913 l 0.39273,-0.39273 h 2.74913 l 0.39273,0.39273 -0.39273,0.39273 v 0.39274 l -0.39274,0.39272 h -5.49825 z m 259.20325,-1.1782 -0.39273,0.39273 v 0.39273 l -0.78547,0.78546 h -6.28371 l -1.17819,-1.17819 0.39272,-0.39273 h 0.78547 l 0.78546,0.78546 h 0.39274 l 0.39273,-0.39273 h 1.1782 l 0.39272,-0.39273 h 2.74913 l 0.39273,-0.39273 h 0.78547 z m -191.65331,-1.1782 v 0.39273 l -0.39273,0.39274 v 0.39273 l -0.39273,0.39273 v 0.39273 l -0.78546,0.78546 h -7.06918 l -0.78547,-0.78546 0.39273,-0.39273 h 1.1782 l 0.39273,-0.39273 h 2.35639 l 0.39274,-0.39273 h 1.17819 l 0.39274,-0.39274 h 0.78546 l 0.39273,-0.39273 h 0.78546 l 0.39274,-0.39273 h 0.39273 z m 134.70714,-0.78546 v 0.78546 l -0.39273,0.39273 v 0.39274 l -0.39274,0.39273 v 0.39273 l -0.39272,0.39273 v 0.39274 l -0.39274,0.39272 h -5.89098 l -0.78546,-0.78546 v -0.39273 l 0.39272,-0.39273 h 0.78547 l 0.39273,-0.39273 h 1.1782 l 0.39273,-0.39274 h 0.78547 l 0.39272,-0.39273 h 0.78547 l 0.39274,-0.39273 h 0.78546 l 0.39273,-0.39273 h 0.39274 l 0.39272,-0.39274 h 0.39274 z m 121.35421,-1.57093 v 1.96366 l -0.39267,0.39273 -0.39276,-0.39273 v -0.39273 0.39273 l 0.39276,0.39273 -0.39276,0.39273 h -0.78543 l -0.39276,0.39274 h -0.78543 l -0.39276,0.39273 h -1.57094 l -1.17819,-1.1782 0.39276,-0.39273 h 0.78543 l 0.39275,-0.39273 h 0.39268 l 0.39276,-0.39274 h 0.39275 l 0.39276,-0.39272 h 0.39268 l 0.78551,-0.78547 h 0.39268 l 0.39275,-0.39274 h 0.39276 z m -335.39325,0 0.39273,-0.39274 0.78546,0.78547 -0.39273,0.39274 0.39273,-0.39274 h 0.39274 l 0.39273,0.39274 h 0.39273 l 0.39273,0.39272 h 0.39274 l 0.39272,0.39274 h 0.39274 l 0.39273,0.39273 h 0.39274 l 0.39272,0.39273 h 0.39274 l 0.39273,0.39273 -0.78547,0.78547 -0.78546,-0.78547 h -0.78547 0.78547 l 0.78546,0.78547 -0.39272,0.39273 h -0.39274 l -0.39273,-0.39273 h -1.1782 l -0.39273,-0.39273 h -0.78546 l -0.39274,-0.39274 h -0.78546 l -0.39273,-0.39273 z m 366.41915,-8.64011 0.39275,-0.39273 h 1.17819 l 0.39268,0.39273 h 1.1782 l 0.39274,0.39273 -0.39274,0.39274 h -0.78545 l -0.39275,0.39273 h -0.39268 l -0.39276,-0.39273 h -0.39275 z m -299.65467,-1.96366 0.39272,-0.39273 h 1.57093 l 0.39274,0.39273 h 1.17819 l 0.39274,-0.39273 h 1.96365 l 0.39274,0.39273 -0.39274,0.39274 h -0.39272 0.78546 l 0.39273,0.39272 -0.39273,0.39274 h -0.78546 l -0.39274,0.39273 h -3.53459 l -0.39273,-0.39273 0.39273,-0.39274 h 3.14186 -3.14186 l -0.39273,-0.39272 h -0.78547 z m 194.0097,0 0.78546,-0.78547 h 0.78547 l 0.39272,0.39274 h 0.78547 l 0.39273,0.39273 h 2.74912 l 0.39274,-0.39273 h 1.17819 l 0.39274,0.39273 -0.39274,0.39274 h -0.78546 0.78546 l 0.39274,0.39272 -0.39274,0.39274 h -0.78546 l -0.39273,0.39273 h -3.53459 l -0.39273,-0.39273 0.39273,-0.39274 -0.39273,0.39274 h -1.1782 l -0.39273,-0.39274 h -0.39274 l -0.39272,-0.39272 z m -131.5653,-0.39273 0.39274,-0.39274 h 1.17819 l 0.39274,0.39274 h 1.17819 l 0.39274,0.39273 h 1.17819 l 0.39274,-0.39273 h 1.57092 l 0.39273,0.39273 -0.39273,0.39274 h 0.39273 l 0.39274,0.39272 -0.39274,0.39274 h -0.78546 l -0.39273,0.39273 h -3.5346 l -0.39272,-0.39273 h -0.78547 l -0.39273,-0.39274 h -0.39273 l -0.39274,-0.39272 z m 196.75887,-0.39274 v 1.17821 l -0.39276,0.39272 h -0.78543 l -0.39276,0.39274 h -0.78551 l -0.39268,0.39273 h -3.92733 l -0.39274,-0.39273 h -0.78544 l -0.7855,-0.78546 v -0.78547 l 0.39274,-0.39274 h 0.78544 l 0.39276,0.39274 h 0.78543 l 0.39276,0.39273 h 2.35637 l 0.39276,-0.39273 h 1.57094 l 0.39276,0.39273 h 0.39268 -0.39268 l -0.39276,-0.39273 0.39276,-0.39274 h 0.39268 l 0.39275,-0.39272 z m -118.99789,0 v 0.39274 l -0.39273,0.39273 0.39273,0.39274 -0.39273,0.39272 h -0.39274 l -0.39272,0.39274 h -0.78547 l -0.39274,0.39273 h -3.53458 l -0.39274,-0.39273 h -0.78546 l -0.39273,-0.39274 h -0.39274 l -0.78546,-0.78546 0.78546,-0.78547 h 0.78547 l 0.39274,0.39274 h 1.17819 l 0.39273,0.39273 h 1.96366 l 0.39274,-0.39273 h 1.17819 l 0.39274,-0.39274 h 0.39272 l 0.39274,-0.39272 z m -188.90418,0.39274 v 0.39273 l -0.78547,0.78546 h -0.39273 l -0.39273,-0.39272 h -0.78546 0.78546 l 0.39273,0.39272 -0.39273,0.39274 h -1.1782 l -0.39273,-0.39274 h -3.14186 l -0.39273,-0.39272 h -0.78547 l -0.39272,0.39272 h -0.39274 l -0.78547,-0.78546 v -0.39273 l 0.39274,-0.39274 h 1.17819 l 0.39274,0.39274 h 0.78546 l 0.39273,0.39273 h 2.35639 l 0.39274,-0.39273 h 1.17819 l 0.39274,-0.39274 h 0.39273 l 0.39273,-0.39272 z m 294.54915,-5.89099 h 0.78544 l 0.78551,0.78547 v 0.39274 l 0.39267,0.39272 v 0.39274 l 0.39276,0.39273 v 0.78546 l -0.78543,0.78547 h -0.39276 l -0.78546,-0.78547 v -0.39273 l -0.39273,-0.39273 v -0.39273 l -0.39274,-0.39274 v -1.17819 z m -56.55344,0 h 1.17819 l 0.78547,0.78547 v 0.39274 l 0.39273,0.39272 v 0.39274 l 0.39273,0.39273 v 0.39273 l -1.17819,1.1782 -0.78546,-0.78547 v -0.39273 l -0.39274,-0.39273 v -0.39273 l -0.39273,-0.39274 v -0.78546 l -0.39274,-0.39273 z m -62.44443,0 h 1.17821 l 0.78546,0.78547 v 0.78546 l 0.39273,0.39274 v 0.39273 l -1.17819,1.1782 -0.39274,-0.39274 v -0.39273 l -0.39273,-0.39273 v -0.39273 l -0.39274,-0.39274 v -0.78546 l -0.39272,-0.39273 z m -69.12086,0 h 0.78546 l 0.78546,0.78547 v 0.39274 l 0.39274,0.39272 v 0.39274 l 0.39273,0.39273 v 0.78546 l -0.39273,0.39274 h -0.39274 l -0.39272,0.39273 -0.39274,-0.39273 v -0.39274 l -0.39273,-0.39273 v -0.39273 l -0.39273,-0.39273 v -0.78546 l -0.39273,-0.39274 v -0.39273 z m -64.01534,0.39274 0.39273,-0.39274 h 1.1782 l 0.39273,0.39274 v 0.39273 l 0.39273,0.39274 v 0.39272 l 0.39273,0.39274 v 0.39273 l 0.39274,0.39273 -0.78547,0.78547 -0.39273,-0.39274 -0.39273,0.39274 -0.39274,-0.39274 v -0.39273 l -0.78546,-0.78546 v -1.1782 z m -56.16071,-0.39274 h 1.1782 l 0.39273,0.39274 v 0.39273 l 0.39273,0.39274 v 0.78546 l 0.39273,0.39273 v 0.78546 l -0.39273,0.39274 -0.39273,-0.39274 -0.39273,0.39274 -0.39274,-0.39274 v -0.39273 l -0.39272,-0.39273 v -0.39273 l -0.39274,-0.39274 v -0.78546 l -0.39273,-0.39273 z m 326.36045,-0.39272 0.39275,0.39272 v 0.39274 l -0.39275,0.39273 v 0.78546 l -0.39276,0.39274 v 0.39273 l -0.39267,0.39273 v 0.39273 l -0.39276,0.39274 -0.39275,-0.39274 -0.39268,0.39274 -0.39276,-0.39274 v -1.17819 l 0.39276,-0.39274 v -0.78546 l 0.39268,-0.39273 v -0.39274 l 0.39275,-0.39272 h 0.39276 l 0.39267,0.39272 z m -56.55343,0 0.39273,0.39272 v 1.17821 l -0.39273,0.39272 v 0.78547 l -0.39274,0.39273 v 0.39273 l -0.78546,0.78547 h -0.39273 l -0.78546,-0.78547 v -0.39273 l 0.39272,-0.39273 v -0.78547 l 0.39274,-0.39272 v -0.39274 l 1.17819,-1.17819 z m -62.44443,0 0.39274,0.39272 v 0.78547 l -0.39274,0.39274 v 1.17819 l -0.39272,0.39273 v 0.39273 l -0.78547,0.78547 -1.1782,-1.1782 v -0.39273 l 0.39274,-0.39273 v -0.39274 l 0.39272,-0.39272 v -0.39274 l 0.39274,-0.39273 v -0.39274 l 0.39273,-0.39272 0.39274,0.39272 z m -69.12085,0 0.39273,0.39272 -0.39273,0.39274 v 1.17819 l -0.39273,0.39274 v 0.78546 l -1.1782,1.1782 -1.17819,-1.1782 0.39272,-0.39273 v -0.39273 l 0.39274,-0.39274 v -0.39272 l 0.39273,-0.39274 v -0.39273 l 0.78546,-0.78546 z m -63.62262,0 0.39273,0.39272 v 0.78547 l -0.39273,0.39274 v 0.78546 l -0.39273,0.39273 v 0.39273 l -0.39274,0.39273 v 0.39274 l -0.39272,0.39273 -1.17821,-1.1782 v -0.39273 l 0.39274,-0.39273 v -0.39274 l 0.39273,-0.39272 v -0.78547 l 0.78546,-0.78546 z m -56.55344,0 0.39273,0.39272 v 1.17821 l -0.39273,0.39272 v 0.78547 l -0.39273,0.39273 v 0.39273 l -0.78546,0.78547 -1.17821,-1.1782 v -0.39273 l 0.39274,-0.39273 v -0.39274 l 0.39273,-0.39272 v -0.78547 l 0.78546,-0.78546 z m 253.31227,18.4584 0.39273,-0.39272 h 0.39273 l 0.39273,-0.39274 1.1782,-0.39273 1.57093,-1.57093 h 0.39273 l 3.14185,-3.14185 v -0.39274 l 1.57093,-1.96366 v -0.39273 l 0.39274,-0.39273 v -0.39274 l 0.39273,-0.39273 v -0.39273 l 0.39273,-0.39273 v -0.39274 l 0.78547,-1.17819 0.39273,0.39273 v 0.39274 -0.39274 l -0.39273,-0.39273 v -0.78546 l 0.39273,-0.39274 v -1.17819 l 0.39273,-0.39274 v -1.96365 l 0.39273,-0.39274 v -4.71279 l 0.39274,-0.39272 h 1.96365 l 0.39274,0.39272 h 3.92732 l 0.39273,-0.39272 h 3.53459 l 0.39273,0.39272 v 5.10553 l 0.39274,0.39272 v 1.96367 l 0.39272,0.39273 v 0.78546 l 0.39274,0.39274 v 0.78546 l 0.78547,1.17819 v 0.78547 l 0.39272,0.39273 0.39274,1.1782 0.78547,0.78546 v 0.39274 l 0.78546,0.78546 v 0.39273 l 4.32005,4.32006 h 0.39274 l 1.96366,1.57093 h 0.39274 l 0.39273,0.39272 h 0.39273 l 1.17819,0.78547 h 0.78547 l 0.39271,0.39273 h 0.39275 l 0.78543,0.78547 -0.39267,0.39273 v 0.39273 l -0.78551,1.17819 h -6.2837 l -0.39274,-0.39272 0.39274,-0.39274 h 1.96367 -1.96367 l -0.39274,0.39274 -0.39272,-0.39274 v -0.39273 l -0.39274,-0.39273 v -0.39273 l -0.39273,-0.39274 v -0.39273 l -0.78546,-1.1782 h -3.5346 l -0.39272,0.39274 v 0.39273 l -0.78547,1.1782 v 0.78546 l -0.78546,1.17819 h -6.67645 l -0.39273,-0.39272 0.39273,-0.39274 -0.39273,0.39274 -0.39274,-0.39274 v -0.39273 l 0.39274,-0.39273 -0.39274,0.39273 -0.39272,-0.39273 v -0.39273 l -0.39274,-0.39274 v -0.39273 l -0.78547,-1.1782 h -3.53458 l -0.39274,0.39274 v 0.39273 l -0.39273,0.39273 v 0.39273 l -0.39273,0.39274 -0.39273,1.17819 -0.78546,0.78546 h -6.28372 l -0.78546,-0.78546 v -0.39273 l -0.39274,-0.39273 v -0.78547 l -0.39273,-0.39273 v -0.39273 z m -252.13407,0.39274 0.78546,-0.78546 1.17819,-0.39274 0.78547,-0.78547 h 0.39274 l 1.17819,-1.17819 h 0.39273 l 3.14186,-3.14185 v -0.39274 l 1.57093,-1.96366 v -0.39273 l 0.39273,-0.39273 v -0.39274 l 0.39273,-0.39273 v -0.39273 l 0.39273,-0.39273 v -0.39274 l 0.78547,-1.17819 v -0.78546 l 0.39273,-0.39274 v -0.78546 l 0.39273,-0.39273 v -1.57093 l 0.39274,-0.39274 v -5.49825 l 0.39272,-0.39272 h 10.60378 l 0.39272,0.39272 v 5.89099 l 0.39274,0.39273 v 1.57093 l 0.39273,0.39273 v 1.17819 l 0.39274,0.39274 v 0.39273 l 0.39272,0.39274 v 0.39272 l 0.39274,0.39274 v 0.39273 l 0.39274,0.39273 v 0.39273 l 0.39272,0.39274 0.39274,1.17819 0.78547,0.78546 v 0.39274 l 1.17819,1.17819 v 0.39274 l 1.96366,1.96366 h 0.39274 l 2.74912,2.35639 h 0.39274 l 0.39273,0.39274 h 0.39273 l 0.39273,0.39272 h 0.39274 l 0.39272,0.39274 h 0.39274 l 1.17819,0.78546 h 0.78547 l 0.39273,0.39273 h 0.78547 l 0.39273,0.39274 v 0.39273 l -0.39273,0.39273 v 0.39273 l -0.78547,0.78546 h -7.46191 L 158.759,226.92974 V 226.537 l -0.78547,-1.17819 v -0.78547 l -0.78547,-1.1782 h -3.92732 l -0.39274,0.39274 v 0.39273 l -0.78546,1.1782 v 0.78546 l -0.78547,0.78547 -0.39272,-0.39274 h -1.57093 1.57093 l 0.39272,0.39274 -0.39272,0.39272 h -6.67645 l -0.78547,-0.78546 v -0.39273 l -0.39273,-0.39273 v -0.39273 l -0.39273,-0.39274 v -0.39273 l -0.78547,-1.1782 h -3.53458 l -0.39274,0.39274 v 0.39273 l -0.39273,0.39273 v 0.39273 l -0.39273,0.39274 -0.39273,1.17819 -0.78546,0.78546 h -6.28372 l -1.1782,-1.17819 v -0.39273 l -0.39273,-0.39273 v -0.39274 z m 190.47511,-0.78546 0.39273,-0.39274 h 0.39273 l 0.78546,-0.78547 h 0.39274 l 0.78547,-0.78546 h 0.39272 l 3.5346,-3.53458 v -0.39274 l 1.57093,-1.96366 v -0.39273 l 0.39272,-0.39273 v -0.39274 l 0.39274,-0.39273 v -0.39273 l 1.1782,-1.96366 v -0.78546 l 0.39274,-0.39274 v -1.17819 l 0.39273,-0.39274 0.39273,0.39274 v 0.78546 -0.78546 l -0.39273,-0.39274 v -1.96365 l 0.39273,-0.39274 v -5.10551 l 0.39273,-0.39274 h 1.1782 l 0.39273,0.39274 h 2.35639 l 0.39274,0.39272 h 7.06918 l 0.39273,-0.39272 h 4.71278 l 0.39274,0.39272 v 5.49825 l 0.39273,0.39274 v 1.57093 l 0.39273,0.39273 v 1.1782 l 0.39273,0.39272 v 0.78547 l 0.39274,0.39274 v 0.39272 l 0.39272,0.39274 v 0.39273 l 0.39274,0.39273 v 0.39273 l 0.39273,0.39274 0.39274,1.17819 1.17819,1.1782 v 0.39273 l 1.57093,1.57093 v 0.39273 l 0.78546,0.78547 h 0.39274 l 1.57093,1.57093 h 0.39272 l 1.96367,1.57093 h 0.39273 l 1.96366,1.17819 h 0.78547 l 0.39272,0.39273 -0.39272,0.39273 v 0.39274 l -1.17821,1.96365 h -6.28371 l -1.17819,-1.17819 v -0.78546 l -0.39274,-0.39274 v -0.78546 l -0.78546,-0.78547 h -3.53459 l -1.1782,1.96367 v 0.78546 l -1.17819,1.17819 h -6.28371 l -0.78547,-0.78546 v -0.39273 l -0.39274,-0.39273 v -0.39273 l -1.17819,-1.96367 h -3.53459 l -0.39273,0.39274 v 0.39273 l -0.39274,0.39273 v 0.78547 l -1.17819,1.96365 h -6.67646 l -0.39273,-0.39272 0.39273,-0.39274 h 1.57093 -1.57093 l -0.39273,0.39274 -0.78546,-0.78547 v -0.78546 l -0.39274,-0.39274 v -0.78546 l -0.39272,-0.39273 v -0.39274 h -3.92733 z m -72.26272,1.57092 0.39274,-0.39273 2.74912,-1.17819 0.78546,-0.78547 h 0.39274 l 0.78546,-0.78546 h 0.39273 l 4.32006,-4.32006 v -0.39273 l 1.57093,-1.96366 v -0.39273 l 1.57093,-2.74913 v -0.78547 l 0.39272,-0.39272 0.39274,0.39272 v 0.39274 -0.39274 l -0.39274,-0.39272 v -1.1782 l 0.39274,-0.39273 v -1.57093 l 0.39273,-0.39274 v -5.89097 l 0.39274,-0.39274 h 0.78546 l 0.39273,0.39274 h 3.53459 l 0.39273,0.39272 h 9.81831 l 0.39272,-0.39272 h 8.24738 l 0.39273,0.39272 v 4.71279 l 0.39274,0.39274 v 1.96365 l 0.39273,0.39274 v 1.17819 l 0.39273,0.39274 0.39273,1.96365 0.78546,0.78547 1.17821,2.74913 0.78546,0.78546 v 0.39273 l 4.32005,4.32006 h 0.39274 l 0.78546,0.78546 1.17819,0.39273 0.78547,0.78546 h 0.39273 l 1.17819,0.78547 -0.78546,0.78546 v 0.39274 l -1.17819,1.96365 h -6.28372 l -0.78546,-0.78546 v -0.39273 l -0.39274,-0.39273 v -0.78547 l -0.39272,-0.39273 -0.39274,-1.1782 h -3.92732 l -1.96366,3.5346 -0.39274,-0.39274 h -1.57092 1.57092 l 0.39274,0.39274 -0.39274,0.39272 h -6.28371 l -0.78546,-0.78546 v -0.39273 l -0.78547,-1.1782 v -0.78546 l -0.39273,-0.39273 v -0.39274 h -3.92732 v 0.39274 l -0.39273,0.39273 v 0.78546 l -1.57093,2.35639 h -6.28372 l -0.39272,-0.39272 V 226.537 l 0.39272,-0.39273 0.39274,0.39273 h 1.17819 -1.17819 l -0.39274,-0.39273 -0.39272,0.39273 -0.39274,-0.39273 v -0.78546 l -1.17819,-1.96367 h -3.5346 l -0.39272,0.39274 -1.17821,2.74912 -0.78546,0.78546 h -5.89098 l -1.1782,-1.96365 z m -18.06569,-0.39273 -0.78546,0.78546 -0.39273,1.1782 -0.39274,0.39273 -0.39272,-0.39273 -0.39274,0.39273 0.39274,-0.39273 0.39272,0.39273 v 0.39274 l -0.39272,0.39272 h -6.28372 l -1.1782,-1.17819 v -0.39273 l -0.39273,-0.39273 v -0.78547 l -0.78546,-1.1782 h -3.5346 l -0.39272,0.39274 v 0.39273 l -0.39274,0.39273 v 0.39273 l -0.39273,0.39274 -0.39273,1.17819 -0.78547,0.78546 h -6.28371 l -1.17819,-1.17819 v -0.39273 l -0.78547,-1.1782 v -0.78546 l -0.39274,-0.39274 h -3.53458 l -0.39274,0.39274 v 0.39273 l -0.39272,0.39273 v 0.39273 l -0.39274,0.39274 -0.39273,1.17819 -0.78546,0.78546 h -6.67645 l -0.78547,-0.78546 v -0.39273 l -0.39273,-0.39273 0.39273,-1.1782 v 0.39273 l -0.39273,0.39274 -0.39273,-0.39274 v -0.78546 l -0.39273,-0.39273 v -0.39274 h -2.35639 l -0.39274,-0.39272 1.1782,-0.78547 h 0.39273 l 0.39274,0.39273 -0.39274,-0.39273 1.57093,-1.57093 h 0.39273 l 3.14186,-3.14185 v -0.39274 l 0.78547,-0.78547 v -0.39272 l 0.78546,-0.78547 v -0.39273 l 0.39273,-0.39273 0.39273,0.39273 -0.39273,-0.39273 v -0.39274 l 0.39273,-0.39273 v -0.39273 l 1.1782,-1.96366 v -0.78546 l 0.39273,-0.39274 v -1.17819 l 0.39273,-0.39274 v -2.35639 l 0.39274,-0.39273 v -4.32006 l 0.39272,-0.39272 h 1.17821 l 0.39272,0.39272 0.39274,-0.39272 h 3.14186 l 0.39272,0.39272 h 3.92733 l 0.39273,-0.39272 h 1.57093 l 0.39273,0.39272 h 0.39274 l 0.39272,-0.39272 h 0.78547 l 0.39273,-0.39274 h 1.1782 l 0.39273,0.39274 h 0.39273 l 1.96367,1.17819 v 3.14185 l 0.39272,0.39274 v 2.35639 l 0.39274,0.39273 v 1.1782 l 0.39273,0.39273 v 0.78546 l 0.39273,0.39274 v 0.78547 l 0.39273,0.39272 v 0.39274 l 0.39274,0.39273 0.39273,1.1782 0.78546,0.78546 0.39274,1.17819 1.17819,1.17821 v 0.39272 l 2.35639,2.3564 h 0.39274 l 1.57093,1.57092 h 0.39272 l 0.78547,0.78547 h 0.39274 l 0.39272,0.39274 1.1782,0.39272 0.39273,0.39274 z m 196.75884,-23.95666 h 2.35639 l 0.39275,0.39273 h 0.39268 l 1.57095,1.57093 v 0.78546 l 0.39275,0.39274 v 1.17819 l -0.39275,0.39274 v 0.78546 l -1.57095,1.57093 h -0.39268 l -0.39275,0.39273 h -2.35639 l -0.39274,-0.39273 h -0.39276 l -0.39269,-0.39274 h -0.39274 l -0.78544,-0.78546 v -0.39273 l -0.39276,-0.39274 v -2.74912 l 1.96363,-1.96366 h 0.39276 z m -57.3389,0.39273 h 0.39273 l 0.39273,-0.39273 h 2.74912 l 0.39274,0.39273 h 0.39273 l 1.57093,1.57093 v 1.1782 l 0.39273,0.39273 v 0.39273 l -0.39273,0.39273 v 0.78546 l -0.39273,0.39274 v 0.39273 l -1.1782,1.1782 h -0.39273 l -0.39274,0.39273 h -2.74912 l -0.39273,-0.39273 h -0.39273 l -1.1782,-1.1782 v -0.39273 l -0.39273,-0.39274 v -2.74912 l 0.39273,-0.39273 v -0.39273 z m -62.44443,0 h 0.39274 l 0.39273,-0.39273 h 2.74913 l 0.39272,0.39273 h 0.39274 l 1.17819,1.1782 v 0.39273 l 0.39274,0.39273 v 2.74912 l -0.78546,0.78547 -0.39274,-0.39273 0.39274,0.39273 v 0.39274 l -0.39274,0.39272 h -0.39273 l -0.39274,0.39274 h -0.39272 l -0.39274,-0.39274 h -1.96366 1.96366 l 0.39274,0.39274 -0.39274,0.39273 h -2.35639 l -0.78547,-0.78547 h -0.39272 l -0.78547,-0.78546 v -0.39273 l -0.39274,-0.39274 v -2.74912 l 0.39274,-0.39273 v -0.39273 z m -68.72813,-0.39273 h 3.14186 l 1.96365,1.96366 v 0.78546 l 0.39274,0.39274 v 1.17819 l -0.39274,0.39274 v 0.39272 l -0.39272,0.39274 v 0.39273 l -0.78547,0.78546 -0.39273,-0.39272 0.39273,0.39272 -0.39273,0.39274 h -0.39273 l -0.39274,0.39273 h -2.35639 l -0.39273,-0.39273 0.39273,-0.39274 h 0.78546 -1.17819 l -0.39274,0.39274 -1.57092,-1.57093 v -0.39274 l -0.39273,-0.39272 v -1.96367 l 0.39273,-0.39273 v -0.39273 l 0.39273,-0.39273 v -0.39274 l 0.39273,-0.39272 h 0.39274 z m -63.22988,0 h 2.74913 l 0.39273,0.39273 h 0.39274 l 1.17819,1.1782 v 0.39273 l 0.39273,0.39273 v 2.3564 l -0.39273,0.39272 v 0.39274 l -1.96366,1.96366 h -2.74913 l -0.39273,-0.39273 h -0.39273 l -1.57093,-1.57093 v -0.78546 L 169.7555,204.544 v -1.57093 l 0.39273,-0.39273 v -0.39273 l 1.57093,-1.57093 h 0.39273 z m -56.94617,0 h 1.1782 l 0.39273,-0.39274 h 0.39273 l 0.39274,0.39274 h 0.78546 l 0.39273,0.39273 h 0.39274 l 1.17819,1.1782 v 0.39273 l 0.39273,0.39273 v 2.3564 l -0.39273,0.39272 v 0.39274 l -0.39273,0.39273 v 0.39274 l -0.78546,0.78546 h -0.39274 l -0.39273,0.39273 h -2.74913 l -0.39273,-0.39273 h -0.39273 l -1.57093,-1.57093 v -0.78546 l -0.39273,-0.39274 v -1.17819 l 0.39273,-0.39274 v -0.78546 z m -49.876989,-0.39274 -0.785464,0.78547 h -0.392732 l -0.785465,0.78546 h -0.785464 l -0.392732,-0.39272 1.570928,-1.57093 h 1.178197 z m 388.804899,-1.17819 0.39267,0.39273 v 0.39274 l 0.78551,0.78546 v 0.39273 l 0.39276,0.39274 v 0.39272 l 0.39268,0.39274 v 0.39273 l 0.78551,0.78546 v 0.39274 l 1.57094,1.57093 v 0.39272 l 2.74906,2.74913 h 0.39275 l 1.57094,1.57093 h 0.39276 l 0.78543,0.78547 h 0.39276 l 0.78543,0.78546 v 0.39273 l -0.78543,0.78546 v 0.39274 l -0.39276,0.39273 v 3.14185 l -0.78543,0.78547 h -0.78551 l -0.39268,0.39274 h -0.78551 l -0.39275,0.39272 h -0.78544 l -0.39275,0.39274 h -1.17819 l -0.39268,0.39273 -2.35645,-2.3564 v -0.39272 l -0.39268,-0.39274 h -1.57094 l -0.39276,0.39274 h -0.78543 l -0.39276,0.39272 h -0.39275 l -0.39269,0.39274 v 1.96366 l -0.39276,0.39273 v 1.57093 l -0.39274,0.39273 h -0.78544 l -0.39275,0.39274 h -0.78544 l -0.39276,0.39272 h -0.78543 l -0.39276,0.39274 h -0.7855 l -0.39268,0.39273 h -0.39276 l -0.39274,-0.39273 h -0.39269 l -0.78551,-0.78546 v -0.39274 l -0.78544,-0.78546 v -0.39273 l -0.39275,-0.39274 h -0.39276 l -0.39267,-0.39273 0.39267,-0.39273 -0.78543,0.78546 h -0.39275 l -0.39268,-0.39273 1.96362,-1.96366 v -0.39273 l 0.78551,-0.78546 v -0.39274 l 0.78543,-0.78546 v -0.39273 l 0.39276,-0.39274 v -0.39273 l 0.39269,-0.39273 v -0.39273 l 0.39274,-0.39274 v -0.78546 l 0.39276,-0.39273 v -0.39274 l 0.39268,-0.39272 v -1.1782 l 0.39276,-0.39273 v -1.1782 l 0.39274,-0.39273 v -6.28371 l 0.39276,-0.39274 h 0.39269 l 0.39274,-0.39273 h 1.1782 l 0.39275,-0.39274 h 0.78544 l 0.39274,-0.39272 h 0.78545 l 0.39275,-0.39274 h 0.78544 l 0.39275,-0.39273 z m -37.3096,0 h 0.78551 l 0.78543,0.78547 v 0.39272 l -0.39276,0.39274 v 0.39273 l -0.39267,0.39274 v 0.78546 l -0.39276,0.39273 h -1.17819 l -0.39274,-0.39273 v -0.78546 l 0.39274,-0.39274 v -0.78547 l 0.39273,-0.39272 v -0.39274 z m -40.84413,0 h 0.39273 l 0.78546,0.78547 v 0.39272 l 0.39274,0.39274 v 0.78547 l 0.39273,0.39272 v 0.39274 l -0.39273,0.39273 h -0.78546 l -0.78547,-0.78547 v -0.39272 l -0.39274,-0.39274 v -0.39273 l -0.39272,-0.39274 v -0.39272 z m -14.92382,0 0.78546,0.78547 v 0.78546 l -0.39273,0.39273 v 0.78546 l -0.78547,0.78547 h -1.17819 l -0.39274,-0.39273 0.39274,-0.39274 v -0.78546 l 0.39273,-0.39273 v -0.39274 l 0.39274,-0.39272 v -0.39274 l 0.39272,-0.39273 z m -62.44443,0 0.39274,0.39273 h 0.39273 l 0.39273,0.39274 v 0.39272 l -0.39273,0.39274 v 0.39273 l -0.39273,0.39274 v 0.39272 l -0.78546,0.78547 h -0.78547 l -0.39274,-0.39273 v -1.1782 l 0.39274,-0.39273 v -0.39274 l 0.39273,-0.39272 v -0.39274 l 0.39274,-0.39273 z m -69.51359,0 1.17819,1.17819 -0.39273,0.39274 v 0.39273 l -0.39274,0.39274 v 0.78546 l -0.39272,0.39273 h -1.1782 l -0.39273,-0.39273 v -0.39274 l 0.39273,-0.39272 v -0.78547 l 0.39273,-0.39274 v -0.39272 z m -48.30606,0 h 0.39274 l 0.78546,0.78547 v 0.39272 l 0.39273,0.39274 v 0.78547 l 0.39273,0.39272 v 0.39274 l -0.39273,0.39273 h -0.78547 l -0.78546,-0.78547 v -0.39272 l -0.39273,-0.39274 v -0.39273 l -0.39274,-0.39274 v -0.39272 l 0.39274,-0.39274 0.39273,0.39274 -0.39273,-0.39274 z m -14.92382,0 0.78546,0.78547 v 0.78546 l -0.39273,0.39273 v 0.39274 l -0.39273,0.39272 v 0.39274 l -0.39273,0.39273 h -1.1782 l -0.39273,-0.39273 0.39273,-0.39274 v -0.78546 l 0.39274,-0.39273 v -0.39274 l 0.39272,-0.39272 v -0.39274 l 0.39274,-0.39273 z m -41.62962,0 h 0.39274 l 1.17819,1.17819 v 1.17821 l 0.39273,0.39272 v 0.39274 l -0.39273,0.39273 h -0.78547 l -0.78546,-0.78547 v -0.39272 l -0.39273,-0.39274 v -0.39273 l -0.39274,-0.39274 v -0.39272 z m -14.92382,0 0.78546,0.78547 v 0.78546 l -0.39273,0.39273 v 0.39274 l -0.39273,0.39272 v 0.39274 l -0.39273,0.39273 h -1.1782 l -0.39273,-0.39273 0.39273,-0.39274 v -0.78546 l 0.39274,-0.39273 v -0.39274 l 0.39272,-0.39272 v -0.39274 l 0.39274,-0.39273 z m 323.21858,-0.39273 0.78551,0.78546 v 0.39274 l 0.39267,0.39272 v 0.39274 l 0.39276,0.39273 v 1.1782 l -0.39276,0.39273 h -0.78543 l -0.78543,-0.78547 v -0.39272 l -0.39276,-0.39274 v -0.39273 l -0.39275,-0.39274 v -0.39272 z m -118.60511,0 0.39273,0.39273 v 0.39273 l 0.39274,0.39274 v 0.39272 l 0.39272,0.39274 v 0.78547 l 0.39274,0.39272 v 0.39274 l -0.39274,0.39273 h -0.78546 l -0.39273,-0.39273 0.39273,-0.39274 -0.39273,0.39274 -0.39274,-0.39274 v -0.39272 l -0.39272,-0.39274 v -0.39273 l -0.39274,-0.39274 v -0.39272 z m -69.51359,0 0.78546,0.78546 v 0.39274 l 0.39274,0.39272 v 0.39274 l 0.39273,0.39273 v 0.78546 l 0.39273,0.39274 -0.39273,0.39273 h -1.1782 l -0.39273,-0.39273 v -0.39274 l -0.39273,-0.39272 v -0.39274 l -0.39274,-0.39273 v -1.1782 z m 220.71546,3.14185 1.17826,-1.17819 v -0.39274 l 1.17819,-1.17819 h 0.39268 l 1.9637,-1.96366 h 0.39275 l 0.78543,-0.78547 h 0.39276 l 0.39268,-0.39272 h 0.39275 l 0.39276,-0.39274 h 0.39269 l 0.39274,0.39274 h 0.39276 l 0.78544,0.78546 h 0.39274 l 0.39276,0.39273 h 0.39269 l 0.39274,0.39273 h 0.78545 l 0.39275,0.39273 v 0.39274 l 0.39275,0.39273 v 4.32005 l 0.39275,0.39273 v 3.14186 l -0.39275,0.39274 v 0.39272 l -0.7855,0.78547 h -1.57088 l -0.39276,-0.39273 h -1.17818 l -0.39276,-0.39274 h -0.78543 l -0.39276,-0.39272 h -0.78543 l -0.39276,-0.39274 h -0.39275 l -0.39268,-0.39273 h -0.78551 l -0.78543,-0.78546 h -0.39276 l -0.78543,-0.78547 h -0.39276 l -1.96369,-1.96366 z m -44.77141,-5.49825 0.78543,-0.78546 h 0.78544 l 0.39276,-0.39273 h 1.17819 l 0.39274,-0.39274 h 2.35639 l 0.39275,0.39274 h 1.17819 l 0.39276,0.39273 h 0.39268 l 1.17818,1.1782 -0.78543,0.78546 h -0.78543 l -0.39276,-0.39273 h -1.17819 l -0.39275,-0.39273 h -2.74913 l -0.39276,0.39273 h -1.17819 l -0.39268,0.39273 h -0.39276 l -0.78543,-0.78546 z m -56.55347,0 0.39274,-0.39272 h 0.39272 l 0.39274,-0.39274 h 0.39273 l 0.39274,-0.39273 h 1.57092 l 0.39273,-0.39274 h 2.35639 l 0.39274,0.39274 h 0.78547 l 0.39272,0.39273 h 0.39274 l 0.39273,0.39274 h 0.39273 l 0.39273,0.39272 v 0.39274 l -0.78546,0.78546 h -0.39273 l -0.39274,-0.39273 h -0.78546 l -0.39273,-0.39273 h -3.53459 l -0.39273,0.39273 h -1.1782 l -0.39273,0.39273 h -0.39274 l -0.78546,-0.78546 z m -62.44442,0 0.39273,-0.39272 h 0.39274 l 0.39272,0.39272 h 0.78547 -0.78547 l -0.39272,-0.39272 0.39272,-0.39274 h 0.39274 l 0.39273,-0.39273 h 1.1782 l 0.39273,-0.39274 h 2.74913 l 0.39272,0.39274 h 1.17821 l 0.39272,0.39273 h 0.39274 l 0.78546,0.78546 v 0.78547 l -0.39273,0.39273 h -0.78547 l -0.39272,-0.39273 h -0.78547 l -0.39274,-0.39273 h -3.53458 l -0.39274,0.39273 h -0.78546 l -0.39273,0.39273 h -0.39274 l -0.39272,-0.39273 h -0.39274 l -0.39273,-0.39273 z m -69.12087,0 0.78547,-0.78546 h 0.39273 l 0.39273,-0.39273 h 1.17819 l 0.39274,-0.39274 h 3.14186 l 0.39273,0.39274 h 0.78546 l 0.39274,0.39273 h 0.39272 l 0.39274,0.39274 h 0.39273 l 0.39274,0.39272 v 0.39274 l -0.78547,0.78546 h -0.78546 l -0.39274,-0.39273 h -0.78546 l -0.39273,-0.39273 h -3.14186 l -0.39274,0.39273 h -0.78546 l -0.39273,0.39273 h -0.78546 l -0.78547,-0.78546 z m -63.6226,0 0.39272,-0.39272 h 0.39274 l 0.39273,-0.39274 h 0.78546 l 0.39274,-0.39273 h 1.17819 l 0.39274,-0.39274 h 1.96365 l 0.39274,0.39274 h 1.17819 l 0.39274,0.39273 h 0.78546 l 1.1782,1.1782 -0.78547,0.78546 h -0.78546 l -0.39273,-0.39273 h -0.78546 l -0.39274,-0.39273 h -3.53459 l -0.39273,0.39273 h -1.17819 l -0.39274,0.39273 z m -56.55344,0 0.39272,-0.39272 h 0.39274 l 0.39273,-0.39274 h 0.39274 l 0.39272,-0.39273 h 1.1782 l 0.39273,-0.39274 h 2.74913 l 0.39273,0.39274 h 1.1782 l 0.39273,0.39273 h 0.39273 l 0.39273,0.39274 h 0.39274 l 0.39273,0.39272 -1.1782,1.1782 h -0.39273 l -0.39273,-0.39273 h -0.78546 l -0.39274,-0.39273 h -3.53459 l -0.39273,0.39273 h -0.78547 l -0.39272,0.39273 h -0.78547 l -0.39274,-0.39273 v -0.39273 z m 383.69934,-0.39272 1.57095,1.57092 v 0.39273 l -0.39276,0.39274 v 0.39273 l -0.39275,0.39273 v 0.39273 l -1.17819,1.1782 v 0.39273 l -2.74913,2.74913 h -0.39268 l -0.78551,0.78546 h -0.39268 l -0.78551,0.78547 H 490.225 l -0.39275,0.39272 h -0.39276 l -0.39275,0.39274 h -0.78544 l -0.39275,0.39273 -0.39268,-0.39273 h -0.39275 l -0.78544,-0.78546 V 204.544 l -0.39275,-0.39273 v -0.78546 l -0.39276,-0.39274 v -1.17819 l -0.39275,-0.39274 v -1.17819 l -0.39268,-0.39274 v -1.57092 l -0.39276,-0.39273 v -1.1782 l 0.78544,-0.78547 h 0.39275 l 2.74913,-2.74912 h 1.17819 l 0.39276,0.39273 h 1.17819 l 0.39275,0.39274 h 0.78543 l 0.39276,0.39272 h 0.78543 l 0.39276,0.39274 h 0.78543 l 0.39276,0.39273 h 0.39275 l 0.39268,0.39274 z m -237.60296,-3.14186 0.39272,0.39272 v 0.78547 l 0.39274,0.39274 v 0.39272 l 0.39273,0.39274 v 1.17819 l -0.39273,0.39274 h -0.39274 l -0.78546,-0.78546 v -0.39274 l -0.39273,-0.39273 v -0.39274 l -0.39273,-0.39272 v -0.39274 l 0.39273,-0.39273 h 0.39273 v -0.39274 z m -106.0377,0 1.1782,1.17819 v 0.39274 l -0.39274,0.39272 v 0.78547 l -0.39274,0.39274 v 0.39272 l -0.78546,0.78547 -1.17819,-1.17819 0.39272,-0.39274 v -0.78547 l 0.39274,-0.39272 v -0.39274 l 0.39273,-0.39273 v -0.39274 z m 131.17255,-0.39274 1.1782,1.1782 h 0.39273 l 0.39273,0.39273 h 0.39274 l 0.39272,0.39274 v 0.39272 l -0.39272,0.39274 v 0.39273 l -0.39274,0.39274 v 0.39272 l -0.39273,0.39274 v 0.78546 l -0.39273,0.39273 -0.39273,-0.39273 v -0.39273 h -0.39274 l -0.39273,-0.39273 h -1.1782 l -0.78546,-0.78546 0.39274,-0.39274 v -0.39273 l 0.39272,-0.39274 v -0.39272 l 0.39274,-0.39274 v -0.39273 l 0.39273,-0.39274 v -0.39272 z m -211.289922,6.28372 0.785465,-0.78547 h 0.392739 l 0.392732,-0.39273 h 1.570928 l 1.178197,0.78547 h 0.785464 l 0.392732,0.39273 h 0.392732 l 0.392732,0.39273 1.178197,0.39273 0.785464,-0.78546 v -1.57093 l -0.392732,-0.39273 v -2.74913 l 1.963661,-1.96367 v -0.39272 l 0.392732,-0.39274 h 0.785465 l 0.392732,0.39274 h 1.178197 l 0.392732,0.39272 h 0.392732 l 0.392732,0.39274 h 0.392732 l 1.178197,0.78546 h 0.785464 l 0.392732,0.39274 h 0.392732 l 1.178197,0.78547 h 0.785466 l 0.392733,0.39272 h 0.785464 v -0.39272 l 0.392732,-0.39274 0.392732,-1.17819 0.785464,-0.78548 h 0.392733 l 0.785464,0.78548 h 0.392732 l 0.785464,0.78546 h 0.392732 l 0.392733,0.39273 -0.392733,0.39274 v 0.78546 l -0.785464,1.17819 v 0.78547 l -0.392732,0.39273 v 0.78547 l -0.392732,0.39273 v 1.57092 l -0.392732,0.39274 v 7.06918 l 0.392732,0.39273 v 1.57093 l 0.392732,0.39273 v 0.78547 l 0.392732,0.39272 v 0.78547 l 0.392732,0.39274 v 0.39272 l 0.392732,0.39274 v 0.39273 l 0.392733,0.39273 v 0.39273 l 0.392732,0.39274 0.392732,1.17819 0.785464,0.78546 v 0.39274 l 1.570928,1.57093 v 0.39273 l 1.1782,0.78546 -0.39274,0.39274 h -0.78546 l -0.392727,0.39273 h -0.39274 l -0.785461,0.78546 -0.392732,-0.39273 0.392732,0.39273 -0.785464,0.78546 -0.392732,-0.39272 -0.392732,0.39272 h -0.392733 l -0.392732,-0.39272 -1.178196,-0.39274 -0.785464,-0.78546 0.392732,-0.39273 -0.392732,0.39273 h -0.392733 l -0.392732,-0.39273 0.392732,-0.39274 -0.392732,0.39274 -0.392732,-0.39274 v -2.35639 l 0.392732,-0.39273 v -1.1782 l -1.178196,-0.39273 -0.785464,-0.78546 h -0.392733 l -0.392732,-0.39274 h -0.785466 l -0.392732,0.39274 h -0.392733 l -1.178196,0.78546 -0.392732,-0.39273 -0.392732,0.39273 h -0.785465 l -0.392732,-0.39273 -1.178196,0.39273 -0.392732,-0.39273 h -0.392732 l -0.785465,-0.78547 -1.178197,-0.39273 -0.392732,-0.39273 v -2.3564 l 0.392732,-0.39272 v -1.96367 h -0.392732 l -0.392733,-0.39273 h -0.392732 l -0.785464,-0.78546 -1.178196,-0.39274 -0.392733,0.39274 -1.178196,0.39273 -1.963661,1.57093 -0.785464,-0.78547 -1.178196,-0.39273 -0.785472,-0.78546 h -0.392732 l -0.785465,-0.78546 h -0.392732 l -1.178196,-1.17821 v -1.17819 l 0.392732,-0.39273 v -0.39273 l 1.178196,-0.78547 v -1.57092 l 0.392732,-0.39274 v -1.57093 l 0.392733,-0.39273 z m 371.524662,-9.81831 0.39276,0.39273 v 0.39273 l 0.39268,0.39274 v 0.39272 l 0.39275,0.39274 v 0.39273 l 0.39276,0.39274 v 0.78546 l 0.39269,0.39274 v 0.39272 l 0.39274,0.39274 v 1.17819 l -0.39274,0.39274 -0.39269,-0.39274 v -0.78546 l -0.78551,-0.78547 v -0.39272 l -0.78544,-0.78548 v -0.39272 l -0.78551,-0.78547 v -0.39274 l 0.39276,-0.39272 v -0.78547 z m -376.237448,0 h 0.785464 l 0.392732,-0.39273 h 0.392732 l 0.392733,0.39273 h 0.392732 l 1.178196,1.1782 v 0.39272 l 0.392732,0.39274 v 1.57093 l -0.392732,0.39274 v 0.39272 l -0.392732,0.39274 h -0.785464 l -0.392732,0.39273 h -1.963661 l -1.178197,-1.17819 v -0.39274 l -0.392732,-0.39274 v -1.17819 l 0.392732,-0.39274 v -0.39272 z m -9.425572,-0.39273 h 0.785465 l 0.392732,0.39273 h 0.785464 l 1.178196,1.1782 v 0.78546 l 0.392733,0.39273 v 0.39274 l -0.392733,0.39272 v 0.78548 l -1.178196,1.17819 H 58.21955 l -0.392732,-0.39273 h -0.392732 l -0.392732,-0.39274 h -0.392732 l -0.392732,-0.39272 v -0.39274 l -0.392733,-0.39274 v -1.17819 l 0.392733,-0.39274 v -0.39272 l 1.178196,-1.1782 h 0.392732 z m 353.8517,-8.64011 0.39274,0.39273 -1.1782,1.1782 h -0.39273 l -1.1782,1.17819 -0.39273,-0.39273 v -0.39273 l 0.39273,-0.39273 v -0.78546 l 0.39274,-0.39274 v -0.39273 l 0.39272,-0.39274 0.39274,0.39274 0.39273,-0.39274 0.39274,0.39274 z m -47.91332,-3.92732 0.39274,0.39273 v 0.39273 l -0.39274,0.39273 h -1.17819 v 0.39274 l -0.39274,0.39273 h -1.17819 l -0.39274,0.39273 v 0.78547 l -1.17819,1.17819 h -0.39274 l -0.39272,0.39274 h -0.39274 v 3.14185 l 0.39274,0.39273 -0.39274,0.39274 h -0.39273 l -0.39273,0.39272 h -0.39273 l -0.39274,0.39274 h -0.39273 l -1.1782,1.17819 h -0.39272 l -3.92733,3.92732 v 0.39274 l -1.1782,1.17819 v 0.39274 l -0.39272,0.39274 v 0.39272 l -0.78547,0.78547 v 0.39274 l -0.39274,0.39272 v 0.78547 l -0.39272,0.39274 v 0.39272 l -0.39274,0.39274 v 0.78546 l -0.39273,0.39273 -0.39273,-0.39273 v -0.39273 h -0.78547 l -0.39273,-0.39273 h -0.39273 l -0.78547,-0.78546 v -1.17821 l 0.39274,-0.39272 v -1.17821 l 0.39273,-0.39272 v -0.78548 l 0.39273,-0.39272 v -0.78547 l 0.39273,-0.39274 v -0.78546 l 0.39274,-0.39273 v -0.78546 l 0.39273,-0.39274 v -0.78546 l 0.39273,-0.39273 v -1.1782 l 0.39273,-0.39273 v -0.78546 l 0.39274,-0.39274 v -0.78546 l 0.39272,-0.39273 v -0.78547 l 0.39274,-0.39273 v -0.78547 l 0.39273,-0.39272 v -0.78547 l 0.39274,-0.39274 v -1.17819 l 0.39272,-0.39273 v -0.39273 l 1.1782,-1.1782 h 0.39273 l 0.39274,-0.39273 z m -186.54779,0 h 11.38923 l 0.39274,0.39273 -0.39274,0.39273 h -1.17819 1.17819 l 0.39274,-0.39273 h 0.39273 l 0.78546,0.78546 v 1.1782 l 0.39274,0.39273 v 0.78546 l 0.39272,0.39274 v 0.39273 l 0.39274,0.39274 v 0.78546 l 0.39273,0.39273 v 0.78546 l 0.39274,0.39274 v 1.17819 l 0.39272,0.39274 v 0.78546 l 0.39274,0.39273 v 0.78546 l 0.39273,0.39274 v 0.39273 l 0.39273,0.39273 v 0.78547 l 0.39273,0.39273 v 0.78546 l 0.39274,0.39274 v 0.78546 l 0.39273,0.39273 v 0.78546 l 0.39273,0.39274 v 1.1782 l 0.39273,0.39273 v 0.39274 l 0.39274,0.39272 v 1.57093 l -0.39274,0.39274 h -0.78546 l -0.39273,-0.39274 v -0.39272 l -0.39274,-0.39274 v -0.39273 l -0.39273,-0.39274 v -0.39272 l -0.39273,-0.39274 v -0.39273 l -0.39273,-0.39274 v -0.39272 l -1.1782,-1.1782 v -0.39274 l 0.39274,-0.39273 h 0.78546 l 0.39273,-0.39274 v -0.39272 h -0.78547 l -0.39272,0.39272 v 0.39274 l -0.39274,0.39273 -1.17819,-1.17819 v -0.39274 l -2.3564,-2.35639 h -0.39273 l -1.17819,-1.17819 h -0.39274 l -0.78547,-0.78547 h -0.39272 l -0.78547,-0.78546 h -0.39273 l -0.39273,-0.39274 h -0.39274 l -0.39273,-0.39273 h -0.78546 l -0.39274,-0.39273 h -0.39272 l -0.39274,-0.39273 h -1.17819 l -0.39274,-0.39274 0.39274,-0.39273 v -4.71278 h -0.39274 l -0.39273,-0.39274 h -1.57093 l -0.39273,-0.39273 v -0.39273 z m 254.09772,1.17819 0.39275,-0.39273 h 1.17819 v -0.39273 l 0.39276,-0.39273 h 0.39267 l 0.39276,-0.39274 h 0.39275 l 0.39268,0.39274 v 0.39273 l 0.39276,0.39273 v 0.78547 h 0.39275 l 0.39276,0.39273 h 2.74905 l 0.39276,0.39273 -0.39276,0.39273 h -2.35637 2.35637 l 0.78551,0.78546 0.39276,-0.39272 0.39268,0.39272 v 0.78547 l 0.39275,0.39274 v 0.78546 l 0.39276,0.39273 v 0.78546 l -0.39276,0.39274 -1.57094,-1.57093 h -0.39276 l -1.17818,-1.1782 0.39275,-0.39273 h 0.39276 -0.39276 l -0.39275,0.39273 h -0.39268 l -0.78551,-0.78547 h -0.39268 l -0.39276,-0.39272 h -0.39275 l -0.39276,-0.39274 h -0.39268 l -0.78551,-0.78546 h -0.39267 l -0.39276,-0.39273 h -1.17819 z m -199.11522,-1.17819 0.39273,0.39273 -0.78546,0.78546 h -1.57093 l -0.39273,0.39274 h -0.39274 v 0.39273 l -0.39272,0.39273 v 1.17819 l -0.39274,0.39274 h -0.39273 l -0.78546,0.78547 h -0.39274 l -0.39273,0.39272 v 2.3564 l 0.39273,0.39273 -0.78546,0.78547 h -0.39273 l -0.78546,0.78546 h -0.39274 l -0.78547,0.78547 h -0.39272 l -1.96367,1.96365 h -0.39273 l -1.1782,1.1782 v 0.39273 l -1.57093,1.57093 v 0.39274 l -0.78546,0.78546 v 0.39274 l -0.39273,0.39272 v 0.39274 l -0.78546,0.78547 v 0.39272 l -0.39274,0.39274 v 0.78547 l -0.39273,0.39272 -0.39273,-0.39272 v -0.39274 l -0.39273,0.39274 v 0.39272 l 0.39273,-0.39272 0.39273,0.39272 v 0.39274 l -0.39273,0.39273 h -0.78547 l -0.39272,-0.39273 h -0.78547 l -0.39274,-0.39274 h -0.39272 l -0.39274,-0.39272 v -0.39274 l -0.39273,-0.39273 0.39273,-0.39274 v -0.78546 l 0.39274,-0.39273 v -0.78546 l 0.39272,-0.39274 v -0.78546 l 0.39274,-0.39274 v -1.17819 l 0.39273,-0.39274 v -0.78546 l 0.39274,-0.39273 v -0.78547 l 0.39272,-0.39273 v -0.78547 l 0.39274,-0.39272 v -0.78547 l 0.39273,-0.39274 v -0.78546 l 0.39273,-0.39273 V 182.551 l 0.39273,-0.39274 v -0.78546 l 0.39274,-0.39273 v -0.78546 l 0.39273,-0.39274 v -0.78547 l 0.39273,-0.39272 v -1.1782 l 0.39273,-0.39273 v -0.39274 l 0.39274,-0.39273 h 0.39272 l 0.39274,-0.39273 h 0.39273 l 0.39274,0.39273 h 0.39272 -0.39272 l -0.39274,-0.39273 0.39274,-0.39273 h 6.67644 l 0.39273,-0.39274 0.39273,0.39274 z m -64.40807,0.39273 -0.39273,0.39273 h -1.1782 l -0.39273,-0.39273 h -0.39273 l 0.39273,0.39273 -1.17819,1.1782 h -0.39274 l -0.39273,0.39273 h -0.39274 l -0.39272,0.39273 h -0.39274 l -0.39273,0.39274 h -0.39273 l -0.39273,0.39272 h -0.39274 l -0.78546,0.78547 h -0.39273 l -0.78546,0.78546 h -0.39274 l -0.78547,0.78547 h -0.39273 l -0.39273,0.39273 -0.39274,-0.39273 v -0.78547 l 0.39274,-0.39272 v -0.39274 l 0.39273,-0.39273 v -0.78546 l 0.39273,-0.39274 v -0.39273 l 0.39274,-0.39273 v -0.39273 l 1.17819,-1.1782 h 0.78547 l 0.39273,-0.39273 h 0.39273 l 0.39274,-0.39274 h 4.71278 l 0.39273,0.39274 h 0.78547 z m -61.26622,-0.39273 v 0.78546 l -0.39274,0.39273 h -1.96366 v 0.39274 l -0.78546,0.78546 h -0.39274 l -0.39272,0.39273 h -0.39274 l -1.17819,1.1782 h -0.39274 l -4.320049,4.32005 -0.392732,-0.39273 v -0.39273 l 0.392732,-0.39273 v -0.39274 l 0.392733,-0.39273 v -0.78546 l 0.392732,-0.39274 v -0.78546 l 0.392732,-0.39273 v -0.39274 l 0.392732,-0.39272 0.392732,0.39272 h 0.785461 l 0.39274,0.39274 0.392727,-0.39274 h -0.785467 l -0.39272,-0.39272 -0.392741,0.39272 -0.392732,-0.39272 v -0.78547 l 0.392732,-0.39273 v -0.39273 l 0.392741,-0.39274 v -0.39273 l 0.78546,-0.78546 h 1.178187 l 0.39274,-0.39274 h 5.10551 z m 387.23397,-0.78546 h 0.78544 l 0.39275,0.39272 -0.39275,0.39274 1.17818,1.17819 0.39276,-0.39273 0.39268,0.39273 v 0.39274 l 0.78551,0.78546 v 0.39273 l 0.39275,0.39274 v 0.39272 l 0.39268,0.39274 v 0.39273 l 0.39276,0.39274 v 0.39272 l 0.39275,0.39274 v 0.78546 l 0.39269,0.39273 v 1.1782 l 0.39274,0.39273 v 1.96367 l 0.39276,0.39272 v 0.39274 l -1.17819,1.17819 H 494.545 l -0.39268,-0.39273 h -2.35645 l -0.39268,-0.39273 h -1.57094 l -0.39276,-0.39273 v -1.1782 l -0.39275,-0.39273 v -0.78546 l -0.39268,-0.39274 v -0.39273 l -0.39276,-0.39273 V 182.551 l -0.39275,-0.39274 0.39275,-0.39273 v -0.39273 l 0.39276,-0.39273 v -0.39274 l 0.78543,-0.78546 v -0.39273 l 1.17819,-1.1782 v -0.39273 l 2.74913,-2.74913 h 0.39276 z m -193.61701,1.17819 -0.78546,0.78546 -0.39273,-0.39273 -0.39274,0.39273 h -0.39272 l -0.78547,0.78547 h -0.39274 l -0.39272,0.39273 h -0.39274 l -0.39273,0.39273 h -0.39273 l -0.39273,0.39274 h -0.39274 l -0.39273,0.39272 h -0.39273 l -0.39273,0.39274 h -0.39274 l -0.39272,0.39273 h -0.39274 l -0.78547,0.78546 h -0.39272 l -0.78547,0.78547 -0.39273,-0.39273 0.39273,0.39273 -1.1782,1.1782 h -0.39273 l -0.39273,0.39273 -0.39273,-0.39273 v -0.78547 l 0.39273,-0.39273 v -0.39273 l 0.39273,-0.39274 v -0.78546 l 0.39273,-0.39273 v -0.39274 l 0.39274,-0.39272 v -0.39274 l 0.39273,-0.39273 v -0.78546 l 0.78546,-0.78547 h 0.39274 l 0.78546,-0.78546 h 5.49825 v -0.39274 l 0.39273,-0.39272 0.39274,0.39272 h 0.78546 l 0.39273,0.39274 h 0.39273 z M 78.248897,173.12543 h 0.392732 l 0.392733,0.39272 h 0.392732 l 0.392732,-0.39272 h 0.785464 l 0.392732,0.39272 v 0.39274 l -0.392732,0.39273 v 0.78546 l -0.392732,0.39274 v 0.39273 l 0.392732,0.39273 v 0.78547 l 0.392732,0.39273 -0.392732,0.39273 h -1.178196 1.178196 l 0.392732,-0.39273 h 0.392732 l 0.392733,0.39273 h 0.392732 l 0.392732,0.39273 -0.392732,0.39274 h -0.785465 l -0.392732,0.39272 H 80.60529 l -0.392732,-0.39272 h -1.178196 l -1.178197,-1.1782 v -3.92733 z m 342.855193,3.14185 -0.39269,0.39273 h -0.78551 l -0.39275,0.39274 h -1.1782 l -0.39267,0.39273 h -0.39276 l -0.39275,0.39273 h -0.39271 l -0.39273,0.39273 h -0.39274 l -0.39272,0.39274 h -0.78547 l -0.39273,0.39272 h -0.39273 l -0.39274,0.39274 h -0.39273 l -0.39273,0.39273 h -0.39274 l -0.39274,-0.39273 h -0.39272 l -0.39274,-0.39274 -0.39273,0.39274 -0.39274,-0.39274 v -0.78546 l 0.39274,-0.39273 v -0.39273 l 1.57093,-1.57093 h 0.78547 l 0.39273,-0.39273 h 2.35639 l 0.39274,-0.39274 v -2.35639 l 0.39273,-0.39273 h 0.39271 l 0.39275,0.39273 h 1.17819 l 0.39275,0.39274 v 1.57093 l 0.78544,0.78546 h 0.39275 z m -43.59327,-4.71278 h 0.39274 l 0.39273,0.39273 v 1.96366 l -0.39273,0.39273 v 0.78546 l 0.78546,0.78547 h 1.1782 l 0.78546,0.78546 v 0.39274 l 0.39274,0.39273 v 0.78546 l 0.39272,0.39274 v 0.78546 l -0.39272,0.39273 -0.39274,-0.39273 h -0.39273 l -0.39273,-0.39274 h -0.39273 l -0.39274,-0.39272 h -0.39273 l -0.39273,-0.39274 h -0.39273 l -0.39274,-0.39273 h -1.17819 l -0.39274,-0.39273 v -0.39273 l -0.39272,-0.39274 h -1.96367 l -0.39273,-0.39273 v -0.39273 l 0.39273,-0.39273 0.39274,0.39273 h 0.39273 l 0.39273,-0.39273 h 0.78547 v -0.39274 l 0.78546,-0.78546 v -1.96366 l 0.39273,-0.39273 h 0.39274 z m -64.40808,0 h 1.57093 l 0.39274,0.39273 -0.39274,0.39273 v 2.3564 l 0.39274,0.39272 v 0.39274 h 5.89097 l 0.39274,0.39273 h 0.39273 l 1.1782,1.1782 v 0.78546 l 0.39273,0.39273 v 0.78546 l 0.39273,0.39274 v 0.78547 l 0.39273,0.39272 v 0.78547 l 0.39274,0.39273 v 0.78547 l 0.39272,0.39273 v 0.78546 l 0.39274,0.39274 v 0.78546 l 0.39273,0.39273 v 0.78546 l 0.39274,0.39274 v 0.78546 l 0.39272,0.39273 v 0.78547 l 0.39274,0.39273 v 1.17819 l 0.39273,0.39274 v 0.78547 l 0.39274,0.39272 v 0.39274 l 0.39273,0.39274 v 0.78546 l 0.39274,0.39273 v 0.78546 l 0.39273,0.39274 v 1.17819 l -0.39273,0.39274 h -0.39274 l -0.39273,-0.39274 v -0.39272 l -0.39274,-0.39274 v -0.39273 l -0.39273,-0.39274 v -0.39272 l -0.39274,-0.39274 v -0.39273 l -0.39272,-0.39274 v -0.39272 l -0.78547,-0.78548 v -0.39272 l -1.1782,-1.17821 v -0.39272 l 0.39274,-0.39274 h 0.78546 l 0.39273,-0.39273 -0.39273,-0.39273 h -0.39274 l -0.39272,0.39273 v 0.39273 l -0.39274,0.39274 -3.14186,-3.14186 h -0.39272 l -1.17821,-1.1782 h -0.39272 l -0.39274,-0.39273 h -0.39273 l -0.78546,-0.78546 h -0.39274 l -0.39272,-0.39274 h -0.39274 l -0.39273,-0.39273 h -0.39274 l -0.39272,-0.39273 h -0.78547 L 313.8882,182.551 h -0.78546 l -0.78546,-0.78547 v -4.71278 l -0.39273,-0.39274 h -1.96367 l -0.78546,-0.78546 0.39274,-0.39273 h 1.96365 l 0.39274,-0.39274 h 0.39273 v -0.39272 l 0.39273,-0.39274 v -2.35639 z m -71.86999,4.71278 0.39273,-0.39273 h 0.78546 l 0.39274,-0.39273 h 0.39274 v -0.39274 l 0.39274,-0.39272 h 0.78546 l 0.78546,-0.78547 v -1.96366 l 0.39273,-0.39273 h 1.1782 l 0.39273,0.39273 v 3.53459 h 3.92732 l 0.39274,0.39273 h 0.78546 l 0.78547,0.78546 v 0.39274 l 0.39272,0.39273 v 0.78546 l 0.39274,0.39274 v 0.78546 l 0.39273,0.39273 v 0.78546 l 0.39274,0.39274 v 0.78546 l 0.39272,0.39273 v 0.78547 l 0.39274,0.39273 v 0.39273 l -0.39274,0.39274 -1.17819,-1.1782 h -0.39274 l -2.35639,-2.3564 h -0.39273 l -0.78546,-0.78546 h -0.39274 l -0.39272,-0.39273 h -0.39274 l -0.39273,-0.39274 h -0.39274 l -0.39272,-0.39272 h -0.39274 l -0.39273,-0.39274 h -0.39273 l -0.39273,-0.39273 h -0.78547 l -0.39273,-0.39273 v -0.39273 l -0.39273,-0.39274 h -2.74914 z m -124.88883,-0.78546 0.39273,-0.39274 h 1.96366 l 0.39273,0.39274 h 0.39274 -0.39274 l -0.39273,-0.39274 0.39273,-0.39272 h 0.39274 l 0.39272,-0.39274 v -1.96366 l -0.39272,-0.39273 0.39272,-0.39273 h 1.1782 l 0.39273,0.39273 v 3.14185 l 0.39274,0.39274 h 4.32005 l 0.39273,0.39273 h 0.39273 l 1.1782,1.1782 v 0.78546 l 0.39273,0.39273 v 0.39274 l -0.39273,0.39272 h -0.39273 l -0.39273,-0.39272 h -0.78547 l -0.39273,-0.39274 h -0.39273 l -0.39274,-0.39273 h -0.39272 l -0.39274,-0.39273 h -0.78547 l -0.39272,-0.39273 h -0.78547 l -0.39273,-0.39274 h -3.14186 l -0.39273,-0.39273 h -0.39274 l -0.39272,-0.39273 h -1.1782 z m 369.16825,-6.28371 0.39276,0.39272 v 1.57093 l -0.39276,0.39274 v 0.78546 l -0.39275,0.39273 v 0.78546 l -0.39268,0.39274 -0.39276,-0.39274 v -1.57092 l 0.39276,-0.39273 v -0.78547 l 0.39268,-0.39273 v -0.78547 z m -9.03284,-0.78547 0.39276,-0.39274 h 4.71276 l 0.39276,0.39274 -0.39276,0.39273 h -4.71276 z m -17.6729,-1.96366 v -0.78547 l 0.39268,-0.39273 0.39275,0.39273 v 0.39274 h 0.78544 -0.39268 l -0.78551,-0.78547 v -1.1782 l 0.39275,-0.39272 v -0.39274 l 0.39276,-0.39273 h 5.89094 l 0.39276,0.39273 -0.39276,0.39274 h -1.17819 1.17819 l 0.39276,-0.39274 0.39275,0.39274 v 0.39272 l 0.39268,0.39274 v 0.39273 l -0.39268,0.39273 h -0.39275 l -0.78551,0.78547 h -0.39268 l -0.78551,0.78546 h -0.39268 l -0.78551,0.78547 h -0.39268 l -0.39275,-0.39274 h -0.39276 l -0.39275,-0.39273 h -2.35638 z m -214.43181,-6.67645 0.39273,-0.39273 h 0.78546 l 0.78547,0.78546 v 0.78547 l 0.39273,0.39273 -0.39273,0.39273 h -1.1782 l -0.39273,-0.39273 v -1.1782 z m 132.74348,-1.1782 h 0.78546 l 0.39273,0.39274 v 2.74912 l -0.39273,0.39274 h -0.39274 l -0.39272,-0.39274 h -0.78547 l -0.39274,-0.39273 v -1.1782 l 0.39274,-0.39273 h 1.17819 v -0.39273 h -0.39272 l -0.39274,-0.39273 z m -18.45842,3.14186 v -2.74912 l 0.39274,-0.39274 0.39272,0.39274 h 4.32006 l 0.39273,0.39273 -0.39273,0.39273 h -1.1782 l -1.17819,1.1782 v 0.78546 l -0.39274,0.39274 h -1.96365 z m -64.40808,0 v -2.74912 l 0.39273,-0.39274 h 0.39273 l 0.39274,-0.39272 h 0.39273 l 0.39273,0.39272 h 0.39273 l 0.39274,-0.39272 h 3.14185 l 0.39273,0.39272 v 0.39274 l -0.78546,0.78546 h -0.78547 l -0.39272,0.39273 h -0.39274 l -0.78547,0.78547 v 0.78546 l -0.39272,0.39274 h -2.3564 z m 122.13972,-3.53458 0.39273,-0.39274 h 0.78546 l 0.39276,0.39274 h 3.14182 l 0.39274,0.39272 h 0.39276 l 0.39268,0.39274 v 0.78546 l 0.39276,0.39273 v 0.39274 l -0.39276,0.39273 h -1.96363 l -0.7855,0.78546 h -0.39269 v 0.78546 l -0.39275,0.39274 h -1.96365 l -0.39273,-0.39274 z m -107.2159,0.78546 0.39274,-0.39274 h 0.39272 l 0.39274,-0.39272 h 0.39273 l 0.39273,-0.39274 h 3.14186 l 0.39273,0.39274 v 3.53458 l -0.39273,0.39274 h -1.1782 l -0.39273,-0.39274 v -1.57093 h -0.39273 l -0.39273,-0.39273 h -1.1782 l -0.39273,-0.39273 h -0.78546 z m -76.19005,0 -0.39273,0.39273 h -0.78546 l -0.39274,0.39273 h -0.39272 l -0.39274,0.39273 h -0.78547 l -0.39272,0.39274 v 1.17819 l -0.39274,0.39274 h -2.35639 l -0.39273,-0.39274 0.39273,-0.39273 -0.39273,-0.39273 V 160.558 l 0.39273,-0.39274 v -1.96365 l 0.39273,-0.39274 h 1.1782 l 0.39273,0.39274 h 1.17819 -1.17819 l -0.39273,-0.39274 0.39273,-0.39273 h 1.57093 l 0.39273,-0.39274 h 0.78546 l 0.39274,0.39274 v 0.78547 l 0.39273,0.39272 h 0.39273 z m 184.58414,-1.96367 0.39276,-0.39272 h 8.24732 l 0.39276,0.39272 -0.39276,0.39274 h -8.24732 z m -302.01106,1.57093 1.1782,-1.17819 h 1.1782 l 0.78546,-0.78546 h 0.39273 l 0.39274,0.39272 v 0.39274 h 0.78546 v -0.39274 h -0.39274 l -0.39272,-0.39272 0.39272,-0.39274 h 1.1782 l 0.39273,0.39274 v 4.71278 l -0.39273,0.39273 -0.39273,-0.39273 h -0.78547 l -0.39272,-0.39273 v -0.78547 l -0.78547,-0.78546 h -1.1782 l -0.39273,-0.39273 h -1.1782 z m 322.82586,-2.74912 v 0.39273 l -0.39275,0.39274 h -0.78544 l -0.39275,0.39272 h -8.64008 l -0.39275,-0.39272 0.39275,-0.39274 h 5.49827 l 0.39267,-0.39273 h 0.39276 l 0.39275,-0.39273 h 2.35638 l 0.39276,0.39273 0.39268,-0.39273 z m -63.22988,-1.1782 0.39274,-0.39273 h 6.67644 l 0.39274,0.39273 h 10.21103 l 0.39273,0.39274 h 8.64011 l 0.39273,0.39273 h 12.96017 l 0.39274,0.39273 h 1.17819 l 0.78546,0.78547 -0.39275,0.39272 h -14.53108 l -0.39273,-0.39272 h -10.60377 l -0.39273,-0.39274 h -15.70928 l -0.39274,-0.39273 z m -63.22988,1.1782 0.39273,-0.39273 v -0.78547 l 0.39273,-0.39273 h 22.38574 l 0.39274,0.39273 h 7.85464 l 0.39273,-0.39273 h 0.39274 l 0.39272,0.39273 h 2.3564 l 0.39273,-0.39273 h 2.74912 l 0.39274,0.39273 h 8.64011 l 0.39272,-0.39273 h 3.14186 l 0.39274,0.39273 v 0.78547 h 3.14186 l 0.39272,0.39273 -0.39272,0.39273 h -7.06918 v 1.1782 l -0.39274,0.39273 -0.39273,-0.39273 v -1.1782 h -45.94967 z m -194.0097,-0.39273 0.78546,-1.1782 h 103.28856 l 1.96367,0.78547 5.10551,-0.39274 1.1782,0.78547 h 12.56743 l 0.78548,-1.1782 h 54.19703 l 0.39273,1.1782 4.32006,-0.39273 4.71278,0.78546 H 164.25725 l 0.39273,1.57093 3.53459,0.39273 0.78547,1.1782 -2.3564,0.78546 -1.96366,2.74912 -2.35639,-0.78546 v -5.89098 z m -21.600271,0 0.392732,-0.39273 v -0.39274 l 0.392733,-0.39273 h 2.356389 l 0.39274,0.39273 h 3.141857 l 0.78546,0.78547 v 0.39273 h 0.39273 l 0.39273,0.39273 h 0.39273 l 1.1782,1.1782 v 0.39273 l 0.39273,0.39274 h 0.78546 l 0.39274,0.39272 -0.39274,0.39274 h -0.78546 l -0.39273,0.39273 h -0.39273 l -0.78547,0.78546 h -0.39273 l -0.78546,0.78547 v 0.78546 l -0.39274,0.39274 h -1.57092 l -0.39273,-0.39274 v -5.49825 l -0.39274,-0.39273 h -4.320049 z m -14.923825,1.96366 v -1.96366 l 0.392733,-0.39273 v -1.1782 l 1.178197,-1.17819 h 0.392732 l 0.392732,0.39272 h 2.356393 l 0.392732,0.39274 h 2.356393 l 0.392732,0.39273 v 0.39273 l 0.392733,0.39273 v 0.78547 l 0.392732,0.39273 -0.392732,0.39273 h -2.749125 l -0.392733,0.39274 v 2.74912 l -0.392732,0.39273 h -0.785464 l -0.392732,0.39273 h -0.392732 l -0.392732,-0.39273 h -0.392733 z m 419.830696,-12.1747 1.57095,1.57093 v 0.39274 l 1.17818,1.17819 v 0.39273 l -0.39274,0.39273 -1.96363,-1.96365 v -0.39274 l -0.7855,-0.78547 v -0.39272 z m -162.98384,-0.78546 0.39274,-0.39273 h 161.80567 l 0.78543,1.17819 -0.39274,0.39274 -0.78545,-0.78547 H 338.63035 Z m -74.22638,-0.39273 0.39272,-0.39274 h 8.24738 l 0.39273,0.39274 -0.39273,0.39273 h -8.24738 z m -20.81481,0 0.39274,-0.39274 h 14.53108 l 0.39274,0.39274 -0.39274,0.39273 h -14.53108 z m -158.271075,0 0.392732,-0.39274 H 231.02172 l 0.39272,0.39274 -0.39272,0.39273 H 85.318077 Z M 483.15579,98.113572 h 0.78544 l 0.39275,0.392726 h 0.78544 l 1.17826,1.178202 v 0.39273 l 0.39268,0.39273 v 0.78547 l -0.39268,0.39273 v 0.78546 l -1.17826,1.1782 h -0.39268 l -0.39276,0.39273 h -1.96363 l -1.57093,-1.57093 v -0.39273 l -0.39276,-0.39273 v -0.78547 l 0.39276,-0.39273 V 99.6845 l 0.78543,-0.785464 h 0.39276 l 0.39274,-0.392738 h 0.39269 z m -187.33326,-71.869993 0.39273,-0.392732 h 5.49825 l 0.39273,0.392732 h 5.49825 l 0.39274,0.392732 h 5.49825 l 0.78546,0.785465 v 2.356392 l -0.39274,0.392733 v 1.178196 l -0.39272,0.392732 -0.39274,-0.392732 h -1.96366 l -0.39273,-0.392732 h -2.3564 l -0.39272,-0.392732 h -2.3564 l -0.39273,-0.392732 h -2.3564 l -0.39272,-0.392733 h -2.3564 l -0.39273,-0.392732 h -2.74912 l -0.39274,-0.392732 h -0.39273 l -0.39273,-0.392732 v -1.570929 l 0.39273,-0.392732 z"
     fill="#000000"
     fill-rule="evenodd"
     id="path1"
     sodipodi:nodetypes="cccccccccccccccccccccccccccccccccccccccccccccccccccccccccccccccccccccccccccccccccccccccccccccccccccccccccccccccccccccccccccccccccccccccccccccccccccccccccccccccccccccccccccccccccccccccccccccccccccccccccccccccccccccccccccccccccccccccccccccccccccccccccccccccccccccccccccccccccccccccccccccccccccccccccccccccccccccccccccccccccccccccccccccccccccccccccccccccccccccccccccccccccccccccccccccccccccccccccccccccccccccccccccccccccccccccccccccccccccccccccccccccccccccccccccccccccccccccccccccccccccccccccccccccccccccccccccccccccccccccccccccccccccccccccccccccccccccccccccccccccccccccccccccccccccccccccccccccccccccccccccccccccccccccccccccccccccccccccccccccccccccccccccccccccccccccccccccccccccccccccccccccccccccccccccccccccccccccccccccccccccccccccccccccccccccccccccccccccccccccccccccccccccccccccccccccccccccccccccccccccccccccccccccccccccccccccccccccccccccccccccccccccccccccccccccccccccccccccccccccccccccccccccccccccccccccccccccccccccccccccccccccccccccccccccccccccccccccccccccccccccccccccccccccccccccccccccccccccccccccccccccccccccccccccccccccccccccccccccccccccccccccccccccccccccccccccccccccccccccccccccccccccccccccccccccccccccccccccccccccccccccccccccccccccccccccccccccccccccccccccccccccccccccccccccccccccccccccccccccccccccccccccccccccccccccccccccccccccccccccccccccccccccccccccccccccccccccccccccccccccccccccccccccccccccccccccccccccccccccccccccccccccccccccccccccccccccccccccccccccccccccccccccccccccccccccccccccccccccccccccccccccccccccccccccccccccccccccccccccccccccccccccccccccccccccccccccccccccccccccccccccccccccccccccccccccccccccccccccccccccccccccccccccccccccccccccccccccccccccccccccccccccccccccccccccccccccccccccccccccccccccccccccccccccccccccccccccccccccccccccccccccccccccccccccccccccccccccccccccccccccccccccccccccccccccccccccccccccccccccccccccccccccccccccccccccccccccccccccccccccccccccccccccccccccccccccccccccccccccccccccccccccccccccccccccccccccccccccccccccccccccccccccccccccccccccccccccccccccccccccccccccccccccccccccccccccccccccccccccccccccccccccccccccccccccccccccccccccccccccccccccccccccccccccccccccccccccccccccccccccccccccccccccccccccccccccccccccccccccccccccccccccccccccccccccccccccccccccccccccccccccccccccccccccccccccccccccccccccccccccccccccccccccccccccccccccccccccccccccccccccccccccccccccccccccccccccccccccccccccccccccccccccccccccccccccccccccccccccccccccccccccccccccccccccccccccccccccccccccccccccccccccccccccccccccccccccccccccccccccccccccccccccccccccccccccccccccccccccccccccccccccccccccccccccccccccccccccccccccccccccccccccccccccccccccccccccccccccccccccccccccccccccccccccccccccccccccccccccccccccccccccccccccccccccccccccccccccccccccccccccccccccccccccccccccccccccccccccccccccccccccccccccccccccccccccccccccccccccccccccccccccccccccccccccccccccccccccccccccccccccccccccccccccccccccccccccccccccccccccccccccccccccccccccccccccccccccccccccccccccccccccccccccccccccccccccccccccccccccccccccccccccccccccccccccccccccccccccccccccccccccccccccccccccccccccccccccccccccccccccccccccccccccccccccccccccccccccccccccccccccccccccccccccccccccccccccccccccccccccccccccccccccccccccccccccccccccccccccccccccccccccccccccccccccccccccccccccccccccccccccccccccccccccccccccccccccccccccccccccccccccccccccccccccccccccccccccccccccccccccccccccccccccccccccccccccccccccccccccccccccccccccccccccccccccccccccccccccccccccccccccccccccccccccccccccccccccccccccccccccccccccccccccccccccccccccccccccccccccccccccccccccccccccccccccccccccccccccccccccccccccccccccccccccccccccccccccccccccccccccccccccccccccccccccccccccccccccccccccccccccccccccccccccccccccccccccccccccccccccccccccccccccccccccccccccccccccccccccccccccccccccccccccccccccccccccccccccccccccccccccccc"
     style="stroke-width:0.392732" />
</svg>
