<svg xmlns="http://www.w3.org/2000/svg" width="2172" height="724" viewBox="0 0 2172 724">
<rect width="100%" height="100%" fill="white"/>
<path d="M 1710,401 L 1692,369 L 1700,361 L 1694,348 L 1674,350 L 1656,318 L 1629,307 L 1624,281 L 1608,281 L 1600,301 L 1574,301 L 1583,293 L 1577,262 L 1400,231 L 1391,239 L 1392,258 L 1371,269 L 1372,259 L 1358,248 L 1329,248 L 1315,259 L 1315,269 L 1207,267 L 1204,245 L 1264,243 L 1267,205 L 1285,197 L 1259,190 L 1253,142 L 1243,128 L 1195,119 L 1192,101 L 1134,96 L 1129,109 L 1119,108 L 1118,82 L 1109,77 L 1105,107 L 1021,108 L 1018,97 L 990,97 L 985,114 L 900,138 L 892,169 L 883,166 L 881,148 L 855,152 L 837,183 L 823,192 L 507,199 L 510,216 L 816,222 L 814,244 L 821,253 L 874,257 L 872,273 L 881,276 L 834,281 L 819,263 L 789,263 L 775,275 L 779,293 L 758,297 L 753,307 L 690,344 L 668,346 L 669,333 L 650,327 L 641,334 L 646,348 L 640,355 L 589,365 L 566,362 L 566,344 L 545,329 L 541,374 L 491,389 L 463,426 L 479,421 L 491,430 L 482,458 L 474,461 L 478,475 L 471,486 L 481,519 L 491,521 L 488,528 L 539,568 L 590,594 L 592,602 L 595,597 L 618,616 L 663,632 L 1466,634 L 1564,610 L 1660,571 L 1683,540 L 1688,509 L 1676,472 L 1650,447 L 1655,436 L 1682,436 L 1676,425 L 1689,440 L 1699,438 Z M 1465,613 L 1466,612 L 1469,612 L 1470,613 L 1474,613 L 1475,614 L 1474,615 L 1466,615 L 1465,614 Z M 977,612 L 978,611 L 995,611 L 996,612 L 996,613 L 994,615 L 979,615 L 977,613 Z M 679,614 L 679,613 L 680,612 L 687,612 L 688,611 L 695,611 L 696,612 L 695,613 L 695,614 L 694,615 L 680,615 Z M 1339,611 L 1338,612 L 1338,613 L 1336,615 L 1320,615 L 1317,612 L 1318,611 L 1320,611 L 1322,613 L 1323,613 L 1324,612 L 1327,612 L 1328,611 L 1335,611 L 1336,610 L 1338,610 Z M 851,608 L 851,609 L 850,610 L 850,611 L 849,612 L 849,613 L 847,615 L 829,615 L 827,613 L 828,612 L 831,612 L 832,611 L 838,611 L 839,610 L 842,610 L 843,609 L 845,609 L 846,608 L 848,608 L 849,607 L 850,607 Z M 1194,606 L 1194,608 L 1193,609 L 1193,610 L 1192,611 L 1192,612 L 1191,613 L 1191,614 L 1190,615 L 1175,615 L 1173,613 L 1173,612 L 1174,611 L 1176,611 L 1177,610 L 1180,610 L 1181,609 L 1183,609 L 1184,608 L 1186,608 L 1187,607 L 1189,607 L 1190,606 L 1191,606 L 1192,605 L 1193,605 Z M 1503,602 L 1503,607 L 1502,608 L 1501,607 L 1501,606 L 1501,607 L 1502,608 L 1501,609 L 1499,609 L 1498,610 L 1496,610 L 1495,611 L 1491,611 L 1488,608 L 1489,607 L 1491,607 L 1492,606 L 1493,606 L 1494,605 L 1495,605 L 1496,604 L 1497,604 L 1499,602 L 1500,602 L 1501,601 L 1502,601 Z M 649,602 L 650,601 L 652,603 L 651,604 L 652,603 L 653,603 L 654,604 L 655,604 L 656,605 L 657,605 L 658,606 L 659,606 L 660,607 L 661,607 L 662,608 L 663,608 L 664,609 L 662,611 L 660,609 L 658,609 L 660,609 L 662,611 L 661,612 L 660,612 L 659,611 L 656,611 L 655,610 L 653,610 L 652,609 L 650,609 L 649,608 Z M 1582,580 L 1583,579 L 1586,579 L 1587,580 L 1590,580 L 1591,581 L 1590,582 L 1588,582 L 1587,583 L 1586,583 L 1585,582 L 1584,582 Z M 819,575 L 820,574 L 824,574 L 825,575 L 828,575 L 829,574 L 834,574 L 835,575 L 834,576 L 833,576 L 835,576 L 836,577 L 835,578 L 833,578 L 832,579 L 823,579 L 822,578 L 823,577 L 831,577 L 823,577 L 822,576 L 820,576 Z M 1313,575 L 1315,573 L 1317,573 L 1318,574 L 1320,574 L 1321,575 L 1328,575 L 1329,574 L 1332,574 L 1333,575 L 1332,576 L 1330,576 L 1332,576 L 1333,577 L 1332,578 L 1330,578 L 1329,579 L 1320,579 L 1319,578 L 1320,577 L 1319,578 L 1316,578 L 1315,577 L 1314,577 L 1313,576 Z M 978,574 L 979,573 L 982,573 L 983,574 L 986,574 L 987,575 L 990,575 L 991,574 L 995,574 L 996,575 L 995,576 L 996,576 L 997,577 L 996,578 L 994,578 L 993,579 L 984,579 L 983,578 L 981,578 L 980,577 L 979,577 L 978,576 Z M 1479,573 L 1479,576 L 1478,577 L 1476,577 L 1475,578 L 1473,578 L 1472,579 L 1462,579 L 1461,578 L 1459,578 L 1457,576 L 1457,574 L 1458,573 L 1460,573 L 1461,574 L 1463,574 L 1464,575 L 1470,575 L 1471,574 L 1475,574 L 1476,575 L 1477,575 L 1476,575 L 1475,574 L 1476,573 L 1477,573 L 1478,572 Z M 1176,573 L 1176,574 L 1175,575 L 1176,576 L 1175,577 L 1174,577 L 1173,578 L 1171,578 L 1170,579 L 1161,579 L 1160,578 L 1158,578 L 1157,577 L 1156,577 L 1154,575 L 1156,573 L 1158,573 L 1159,574 L 1162,574 L 1163,575 L 1168,575 L 1169,574 L 1172,574 L 1173,573 L 1174,573 L 1175,572 Z M 695,574 L 695,575 L 693,577 L 692,577 L 691,576 L 689,576 L 691,576 L 692,577 L 691,578 L 688,578 L 687,577 L 679,577 L 678,576 L 676,576 L 675,577 L 674,577 L 672,575 L 672,574 L 673,573 L 676,573 L 677,574 L 679,574 L 680,575 L 686,575 L 687,574 L 690,574 L 691,573 L 692,573 L 693,572 Z M 1445,559 L 1447,559 L 1449,561 L 1449,562 L 1450,563 L 1450,564 L 1451,565 L 1451,567 L 1449,569 L 1448,569 L 1446,567 L 1446,566 L 1445,565 L 1445,564 L 1444,563 L 1444,560 Z M 1301,559 L 1304,559 L 1306,561 L 1306,562 L 1307,563 L 1307,564 L 1308,565 L 1308,566 L 1305,569 L 1303,567 L 1303,566 L 1302,565 L 1302,564 L 1301,563 L 1301,561 L 1300,560 Z M 1142,559 L 1145,559 L 1147,561 L 1147,563 L 1148,564 L 1148,565 L 1145,568 L 1144,567 L 1144,566 L 1143,565 L 1143,564 L 1142,563 L 1142,561 L 1141,560 Z M 966,559 L 968,559 L 970,561 L 970,562 L 971,563 L 971,564 L 972,565 L 972,567 L 971,568 L 970,568 L 969,569 L 968,568 L 968,567 L 967,566 L 967,565 L 966,564 L 966,562 L 965,561 L 965,560 Z M 803,560 L 804,559 L 807,559 L 808,560 L 808,561 L 809,562 L 809,563 L 810,564 L 810,565 L 811,566 L 809,568 L 808,567 L 807,568 L 806,567 L 806,566 L 804,564 L 804,561 Z M 660,559 L 663,559 L 664,560 L 664,561 L 665,562 L 665,564 L 666,565 L 666,567 L 665,568 L 664,567 L 663,568 L 662,567 L 662,566 L 661,565 L 661,564 L 660,563 L 660,561 L 659,560 Z M 1491,558 L 1492,559 L 1492,560 L 1491,561 L 1491,563 L 1490,564 L 1490,565 L 1489,566 L 1489,567 L 1488,568 L 1487,567 L 1486,568 L 1485,567 L 1485,564 L 1486,563 L 1486,561 L 1487,560 L 1487,559 L 1488,558 L 1489,558 L 1490,559 Z M 1347,558 L 1348,559 L 1348,562 L 1347,563 L 1347,565 L 1346,566 L 1346,567 L 1344,569 L 1343,569 L 1341,567 L 1341,566 L 1342,565 L 1342,563 L 1343,562 L 1343,561 L 1346,558 Z M 1188,558 L 1189,559 L 1189,561 L 1188,562 L 1188,565 L 1187,566 L 1187,567 L 1185,569 L 1182,566 L 1182,565 L 1183,564 L 1183,563 L 1184,562 L 1184,561 L 1185,560 L 1185,559 L 1186,558 L 1187,559 Z M 1012,558 L 1013,559 L 1012,560 L 1012,563 L 1011,564 L 1011,566 L 1008,569 L 1005,566 L 1006,565 L 1006,564 L 1007,563 L 1007,562 L 1008,561 L 1008,560 L 1010,558 Z M 850,558 L 851,559 L 851,561 L 850,562 L 850,564 L 849,565 L 849,566 L 848,567 L 848,568 L 847,569 L 844,566 L 844,565 L 845,564 L 845,563 L 846,562 L 846,560 L 848,558 Z M 706,558 L 707,559 L 707,562 L 706,563 L 706,565 L 705,566 L 705,567 L 703,569 L 700,566 L 700,565 L 701,564 L 701,563 L 702,562 L 702,560 L 704,558 Z M 1351,605 L 1352,604 L 1353,604 L 1354,603 L 1357,602 L 1361,598 L 1362,598 L 1370,590 L 1370,589 L 1374,584 L 1374,583 L 1375,582 L 1375,581 L 1376,580 L 1376,579 L 1377,578 L 1377,577 L 1379,574 L 1380,575 L 1380,576 L 1380,575 L 1379,574 L 1379,572 L 1380,571 L 1380,568 L 1381,567 L 1381,562 L 1382,561 L 1382,549 L 1383,548 L 1388,548 L 1389,549 L 1399,549 L 1400,548 L 1409,548 L 1410,549 L 1410,562 L 1411,563 L 1411,568 L 1412,569 L 1412,571 L 1413,572 L 1413,574 L 1415,577 L 1415,579 L 1416,580 L 1417,583 L 1419,585 L 1419,586 L 1421,588 L 1421,589 L 1432,600 L 1433,600 L 1438,604 L 1439,604 L 1440,605 L 1441,605 L 1444,607 L 1446,607 L 1447,608 L 1448,608 L 1450,610 L 1449,611 L 1449,612 L 1447,615 L 1431,615 L 1430,614 L 1431,613 L 1436,613 L 1431,613 L 1430,614 L 1429,613 L 1429,612 L 1428,611 L 1428,610 L 1427,609 L 1427,608 L 1425,605 L 1416,605 L 1415,606 L 1415,607 L 1413,610 L 1413,612 L 1411,615 L 1394,615 L 1393,614 L 1394,613 L 1393,614 L 1392,613 L 1392,612 L 1393,611 L 1392,612 L 1391,611 L 1391,610 L 1390,609 L 1390,608 L 1388,605 L 1379,605 L 1378,606 L 1378,607 L 1377,608 L 1377,609 L 1376,610 L 1375,613 L 1373,615 L 1357,615 L 1355,613 L 1355,612 L 1354,611 L 1354,609 L 1353,608 L 1353,607 Z M 709,606 L 711,604 L 714,603 L 716,601 L 717,601 L 720,598 L 721,598 L 729,590 L 729,589 L 733,584 L 733,583 L 734,582 L 734,581 L 735,580 L 735,579 L 736,578 L 736,577 L 738,574 L 738,572 L 739,571 L 739,569 L 740,568 L 740,564 L 741,563 L 741,549 L 742,548 L 769,548 L 770,549 L 770,564 L 771,565 L 771,569 L 772,570 L 772,573 L 773,574 L 773,575 L 774,576 L 774,577 L 775,578 L 775,579 L 776,580 L 776,581 L 777,582 L 778,585 L 780,587 L 780,588 L 783,591 L 783,592 L 788,597 L 789,597 L 796,603 L 797,603 L 798,604 L 799,604 L 800,605 L 801,605 L 802,606 L 803,606 L 806,608 L 808,608 L 809,609 L 811,609 L 812,610 L 812,611 L 811,612 L 811,613 L 809,615 L 790,615 L 789,614 L 789,613 L 787,610 L 787,608 L 785,605 L 775,605 L 774,606 L 774,607 L 772,610 L 772,612 L 770,614 L 769,613 L 765,613 L 769,613 L 770,614 L 769,615 L 752,615 L 750,613 L 750,612 L 749,611 L 749,610 L 748,609 L 748,608 L 746,605 L 737,605 L 736,606 L 736,607 L 735,608 L 735,609 L 734,610 L 733,613 L 731,615 L 715,615 L 712,612 L 712,611 L 711,610 L 711,609 Z M 1194,604 L 1195,603 L 1196,603 L 1198,601 L 1199,601 L 1201,599 L 1202,599 L 1211,590 L 1211,589 L 1215,584 L 1215,583 L 1216,582 L 1216,581 L 1217,580 L 1217,579 L 1220,574 L 1220,572 L 1221,571 L 1221,568 L 1222,567 L 1223,568 L 1223,570 L 1223,568 L 1222,567 L 1222,562 L 1223,561 L 1223,548 L 1224,547 L 1227,547 L 1228,548 L 1234,548 L 1235,549 L 1253,549 L 1254,548 L 1266,548 L 1267,549 L 1267,563 L 1268,564 L 1268,568 L 1269,569 L 1269,572 L 1270,573 L 1270,575 L 1271,576 L 1271,577 L 1272,578 L 1272,579 L 1273,580 L 1273,581 L 1274,582 L 1275,585 L 1278,588 L 1278,589 L 1282,593 L 1282,594 L 1284,596 L 1285,596 L 1289,600 L 1290,600 L 1295,604 L 1296,604 L 1301,607 L 1303,607 L 1304,608 L 1303,609 L 1303,610 L 1300,615 L 1284,615 L 1281,612 L 1281,610 L 1280,609 L 1280,607 L 1278,605 L 1269,605 L 1266,610 L 1266,612 L 1263,615 L 1247,615 L 1245,613 L 1245,612 L 1244,611 L 1244,610 L 1241,605 L 1232,605 L 1231,606 L 1231,607 L 1230,608 L 1230,610 L 1227,615 L 1210,615 L 1209,614 L 1210,613 L 1214,613 L 1210,613 L 1209,614 L 1207,612 L 1207,610 L 1206,609 L 1206,607 L 1205,606 L 1205,605 L 1195,605 Z M 1010,608 L 1011,607 L 1018,604 L 1020,602 L 1021,602 L 1023,600 L 1024,600 L 1035,589 L 1035,588 L 1039,583 L 1039,582 L 1043,575 L 1043,573 L 1044,572 L 1045,573 L 1045,574 L 1045,573 L 1044,572 L 1044,569 L 1045,568 L 1045,564 L 1046,563 L 1046,548 L 1047,547 L 1049,547 L 1050,548 L 1059,548 L 1060,549 L 1085,549 L 1086,548 L 1107,548 L 1108,549 L 1108,561 L 1109,562 L 1109,567 L 1110,568 L 1110,571 L 1111,572 L 1112,577 L 1114,579 L 1117,586 L 1119,588 L 1119,589 L 1130,600 L 1131,600 L 1133,602 L 1136,603 L 1138,605 L 1139,605 L 1142,607 L 1140,609 L 1140,610 L 1137,615 L 1121,615 L 1119,613 L 1119,612 L 1118,611 L 1118,609 L 1117,608 L 1116,605 L 1106,605 L 1101,614 L 1100,613 L 1096,613 L 1100,613 L 1101,614 L 1100,615 L 1084,615 L 1082,613 L 1082,612 L 1080,609 L 1080,607 L 1079,606 L 1079,605 L 1069,605 L 1069,606 L 1068,607 L 1068,609 L 1064,615 L 1048,615 L 1047,614 L 1047,613 L 1048,612 L 1049,613 L 1052,613 L 1049,613 L 1048,612 L 1047,613 L 1046,612 L 1046,610 L 1043,605 L 1034,605 L 1033,606 L 1030,613 L 1028,615 L 1013,615 L 1010,610 Z M 964,607 L 962,609 L 961,612 L 960,613 L 959,612 L 958,613 L 959,612 L 960,613 L 960,614 L 959,615 L 943,615 L 940,612 L 940,611 L 939,610 L 939,608 L 937,605 L 928,605 L 927,606 L 927,607 L 926,608 L 926,609 L 925,610 L 924,613 L 922,615 L 906,615 L 903,612 L 903,611 L 901,608 L 901,606 L 900,605 L 891,605 L 890,606 L 890,607 L 889,608 L 889,609 L 888,610 L 887,613 L 885,615 L 868,615 L 866,613 L 866,612 L 865,611 L 866,608 L 866,609 L 865,610 L 864,609 L 864,607 L 863,606 L 863,605 L 857,605 L 856,604 L 859,602 L 860,602 L 861,603 L 860,602 L 864,598 L 865,598 L 873,590 L 873,589 L 875,587 L 875,586 L 877,584 L 877,583 L 878,582 L 879,583 L 878,582 L 878,581 L 879,580 L 879,579 L 882,574 L 882,572 L 883,571 L 883,568 L 884,567 L 884,561 L 885,560 L 885,549 L 886,548 L 889,548 L 890,549 L 891,548 L 899,548 L 900,549 L 910,549 L 911,548 L 915,548 L 916,549 L 917,549 L 918,548 L 920,548 L 921,547 L 924,547 L 925,548 L 926,548 L 931,551 L 931,559 L 932,560 L 932,566 L 933,567 L 933,570 L 934,571 L 934,573 L 935,574 L 935,576 L 936,577 L 936,578 L 937,579 L 938,582 L 940,584 L 941,587 L 944,590 L 944,591 L 950,597 L 951,597 L 955,601 L 956,601 L 958,603 L 959,603 L 960,604 L 963,605 L 964,606 Z M 1465,546 L 1471,546 L 1472,547 L 1473,547 L 1477,551 L 1477,553 L 1478,554 L 1478,557 L 1477,558 L 1477,560 L 1473,564 L 1472,564 L 1471,565 L 1465,565 L 1464,564 L 1463,564 L 1462,563 L 1461,563 L 1459,561 L 1459,560 L 1458,559 L 1458,552 L 1463,547 L 1464,547 Z M 1319,547 L 1320,547 L 1321,546 L 1328,546 L 1329,547 L 1330,547 L 1334,551 L 1334,554 L 1335,555 L 1335,556 L 1334,557 L 1334,559 L 1333,560 L 1333,561 L 1330,564 L 1329,564 L 1328,565 L 1321,565 L 1320,564 L 1319,564 L 1316,561 L 1316,560 L 1315,559 L 1315,552 L 1316,551 L 1316,550 Z M 1160,547 L 1161,547 L 1162,546 L 1169,546 L 1170,547 L 1171,547 L 1174,550 L 1174,551 L 1175,552 L 1175,559 L 1173,561 L 1172,560 L 1173,561 L 1173,562 L 1172,563 L 1171,563 L 1170,564 L 1169,564 L 1168,563 L 1163,563 L 1168,563 L 1169,564 L 1168,565 L 1162,565 L 1160,563 L 1159,563 L 1157,561 L 1157,560 L 1156,559 L 1156,552 L 1157,551 L 1157,550 Z M 985,546 L 993,546 L 998,551 L 998,553 L 999,554 L 999,557 L 998,558 L 998,559 L 997,560 L 997,561 L 995,563 L 994,562 L 995,563 L 994,564 L 993,564 L 992,565 L 986,565 L 985,564 L 986,563 L 988,563 L 985,563 L 984,564 L 980,560 L 980,559 L 979,558 L 979,553 L 980,552 L 980,551 L 981,550 L 981,549 L 982,548 L 983,548 Z M 824,546 L 831,546 L 832,547 L 833,547 L 836,550 L 836,551 L 837,552 L 837,558 L 836,559 L 836,560 L 831,565 L 824,565 L 823,564 L 822,564 L 818,560 L 818,558 L 817,557 L 817,553 L 818,552 L 818,551 L 822,547 L 823,547 Z M 679,546 L 682,546 L 683,545 L 684,545 L 685,546 L 687,546 L 688,547 L 689,547 L 692,550 L 692,551 L 693,552 L 693,558 L 692,559 L 692,560 L 691,561 L 691,562 L 689,564 L 688,564 L 687,565 L 680,565 L 679,564 L 678,564 L 674,560 L 674,558 L 673,557 L 673,554 L 674,553 L 674,551 Z M 552,545 L 550,547 L 549,547 L 547,549 L 545,549 L 544,548 L 548,544 L 551,544 Z M 1542,542 L 1543,543 L 1543,544 L 1545,546 L 1545,547 L 1546,548 L 1546,549 L 1547,550 L 1547,551 L 1549,553 L 1549,554 L 1553,558 L 1553,559 L 1560,566 L 1561,566 L 1565,570 L 1566,570 L 1568,572 L 1569,572 L 1571,574 L 1571,575 L 1569,577 L 1569,578 L 1568,579 L 1568,587 L 1566,589 L 1564,589 L 1563,590 L 1561,590 L 1560,591 L 1558,591 L 1557,592 L 1554,592 L 1553,593 L 1547,587 L 1547,586 L 1546,585 L 1542,585 L 1541,586 L 1539,586 L 1538,587 L 1537,587 L 1536,588 L 1536,593 L 1535,594 L 1535,598 L 1534,599 L 1532,599 L 1531,600 L 1529,600 L 1528,601 L 1526,601 L 1525,602 L 1523,602 L 1522,603 L 1521,603 L 1520,602 L 1519,602 L 1517,600 L 1517,599 L 1515,597 L 1515,596 L 1514,595 L 1513,595 L 1512,594 L 1513,593 L 1511,595 L 1510,595 L 1509,594 L 1514,589 L 1514,588 L 1516,586 L 1516,585 L 1518,583 L 1518,582 L 1519,581 L 1519,580 L 1520,579 L 1520,578 L 1521,577 L 1521,575 L 1522,574 L 1522,573 L 1523,572 L 1523,569 L 1524,568 L 1524,565 L 1525,564 L 1525,548 L 1526,547 L 1527,547 L 1528,546 L 1531,546 L 1532,545 L 1534,545 L 1535,544 L 1537,544 L 1538,543 L 1540,543 L 1541,542 Z M 1447,542 L 1449,542 L 1451,544 L 1451,545 L 1450,546 L 1450,547 L 1449,548 L 1449,550 L 1448,551 L 1445,551 L 1444,550 L 1444,548 L 1445,547 L 1445,545 L 1446,544 L 1446,543 Z M 1343,542 L 1344,542 L 1346,544 L 1346,545 L 1347,546 L 1347,548 L 1348,549 L 1348,550 L 1347,551 L 1345,551 L 1343,549 L 1343,548 L 1342,547 L 1342,546 L 1341,545 L 1341,544 Z M 1305,542 L 1307,544 L 1307,546 L 1306,547 L 1306,549 L 1304,551 L 1301,551 L 1300,550 L 1301,549 L 1301,547 L 1302,546 L 1302,545 L 1303,544 L 1303,543 L 1304,542 Z M 1146,542 L 1147,543 L 1148,543 L 1149,544 L 1149,545 L 1148,546 L 1148,547 L 1147,548 L 1147,549 L 1145,551 L 1143,551 L 1142,550 L 1142,547 L 1143,546 L 1143,545 L 1144,544 L 1144,543 L 1145,542 Z M 969,542 L 972,545 L 971,546 L 971,547 L 970,548 L 970,550 L 969,551 L 966,551 L 965,550 L 965,549 L 966,548 L 966,546 L 967,545 L 967,544 Z M 846,542 L 847,542 L 849,544 L 849,545 L 850,546 L 850,548 L 851,549 L 851,550 L 850,551 L 848,551 L 846,549 L 846,548 L 845,547 L 845,546 L 844,545 L 844,544 L 845,543 L 846,544 L 845,543 Z M 808,542 L 810,544 L 810,546 L 809,547 L 809,548 L 808,549 L 808,550 L 807,551 L 804,551 L 803,550 L 804,549 L 804,547 L 805,546 L 805,545 L 806,544 L 806,543 L 807,542 Z M 702,542 L 703,542 L 706,545 L 706,548 L 707,549 L 707,550 L 706,551 L 704,551 L 702,549 L 702,548 L 701,547 L 701,546 L 700,545 L 700,544 Z M 664,542 L 666,544 L 666,546 L 665,547 L 665,548 L 664,549 L 664,550 L 663,551 L 660,551 L 659,550 L 660,549 L 660,547 L 661,546 L 661,545 L 662,544 L 662,543 L 663,542 Z M 1487,541 L 1489,543 L 1489,544 L 1490,545 L 1490,546 L 1491,547 L 1491,550 L 1490,551 L 1488,551 L 1486,549 L 1486,548 L 1485,547 L 1485,546 L 1484,545 L 1484,544 Z M 1185,541 L 1186,542 L 1186,543 L 1187,544 L 1187,545 L 1188,546 L 1188,548 L 1189,549 L 1189,550 L 1188,551 L 1186,551 L 1185,550 L 1186,549 L 1185,550 L 1184,549 L 1184,548 L 1183,547 L 1183,546 L 1182,545 L 1182,544 Z M 1008,541 L 1010,543 L 1010,544 L 1011,545 L 1011,546 L 1012,547 L 1012,549 L 1013,550 L 1012,551 L 1009,551 L 1008,550 L 1008,549 L 1007,548 L 1007,547 L 1006,546 L 1006,543 Z M 1570,549 L 1573,546 L 1573,545 L 1576,542 L 1577,542 L 1582,537 L 1583,537 L 1585,535 L 1586,535 L 1587,534 L 1588,534 L 1589,533 L 1590,533 L 1591,534 L 1592,534 L 1594,536 L 1595,536 L 1596,537 L 1597,537 L 1598,538 L 1600,538 L 1601,539 L 1601,540 L 1602,541 L 1602,552 L 1603,553 L 1603,561 L 1602,562 L 1602,563 L 1600,565 L 1596,565 L 1595,564 L 1592,564 L 1591,563 L 1589,563 L 1588,562 L 1586,562 L 1585,561 L 1584,561 L 1583,560 L 1581,560 L 1579,558 L 1578,558 L 1576,556 L 1575,556 L 1570,551 Z M 1456,535 L 1458,533 L 1460,533 L 1461,532 L 1464,532 L 1465,531 L 1471,531 L 1472,532 L 1475,532 L 1476,533 L 1477,533 L 1480,536 L 1478,538 L 1476,538 L 1475,537 L 1472,537 L 1471,536 L 1464,536 L 1463,537 L 1460,537 L 1459,538 L 1458,538 L 1456,536 Z M 1312,535 L 1313,534 L 1314,534 L 1315,533 L 1316,533 L 1317,532 L 1321,532 L 1322,531 L 1328,531 L 1329,532 L 1331,532 L 1332,533 L 1333,533 L 1334,534 L 1335,534 L 1336,535 L 1336,536 L 1334,538 L 1333,538 L 1332,537 L 1330,537 L 1329,536 L 1320,536 L 1319,537 L 1316,537 L 1315,538 L 1314,538 L 1312,536 Z M 1153,535 L 1154,534 L 1155,534 L 1156,535 L 1158,535 L 1156,535 L 1155,534 L 1156,533 L 1157,533 L 1158,532 L 1161,532 L 1162,531 L 1169,531 L 1170,532 L 1173,532 L 1174,533 L 1175,533 L 1177,535 L 1177,537 L 1176,538 L 1174,538 L 1173,537 L 1171,537 L 1170,536 L 1161,536 L 1160,537 L 1158,537 L 1157,538 L 1156,538 L 1155,537 L 1154,537 L 1153,536 Z M 977,535 L 979,533 L 980,533 L 981,532 L 984,532 L 985,531 L 993,531 L 994,532 L 996,532 L 997,533 L 998,533 L 999,534 L 1000,534 L 1001,535 L 1001,536 L 999,538 L 997,538 L 996,537 L 994,537 L 993,536 L 985,536 L 984,537 L 982,537 L 981,538 L 979,538 L 977,536 Z M 815,535 L 816,534 L 817,534 L 818,533 L 820,533 L 821,532 L 824,532 L 825,531 L 830,531 L 831,532 L 834,532 L 835,533 L 837,533 L 840,536 L 838,538 L 836,538 L 835,537 L 833,537 L 832,536 L 823,536 L 822,537 L 819,537 L 818,538 Z M 671,535 L 672,534 L 673,534 L 674,533 L 675,533 L 676,532 L 679,532 L 680,531 L 687,531 L 688,532 L 691,532 L 692,533 L 693,533 L 694,534 L 695,534 L 696,535 L 693,538 L 692,538 L 691,537 L 689,537 L 688,536 L 679,536 L 678,537 L 676,537 L 675,538 L 673,538 L 672,537 L 672,536 Z M 1648,534 L 1652,538 L 1652,539 L 1651,540 L 1651,541 L 1650,542 L 1650,543 L 1647,546 L 1647,547 L 1640,554 L 1639,554 L 1637,556 L 1636,556 L 1634,558 L 1633,558 L 1632,559 L 1631,559 L 1630,560 L 1628,560 L 1627,561 L 1626,560 L 1625,560 L 1623,558 L 1623,557 L 1622,556 L 1622,554 L 1621,553 L 1621,550 L 1620,549 L 1620,546 L 1619,545 L 1619,541 L 1618,540 L 1618,537 L 1620,535 L 1621,535 L 1628,528 L 1631,528 L 1632,529 L 1635,529 L 1636,530 L 1638,530 L 1639,531 L 1641,531 L 1642,532 L 1644,532 L 1645,533 L 1646,533 L 1647,534 Z M 1043,526 L 1044,527 L 1044,529 L 1045,530 L 1045,531 L 1046,532 L 1046,535 L 1045,536 L 1044,536 L 1042,534 L 1042,533 L 1041,532 L 1041,531 L 1040,530 L 1040,529 L 1041,528 L 1042,528 L 1042,527 Z M 773,526 L 776,529 L 776,530 L 775,531 L 775,533 L 774,534 L 774,535 L 772,537 L 769,534 L 770,533 L 770,531 L 771,530 L 771,529 L 772,528 L 772,527 Z M 1107,525 L 1110,528 L 1111,528 L 1112,529 L 1113,529 L 1114,530 L 1114,531 L 1113,532 L 1113,533 L 1112,534 L 1112,535 L 1111,536 L 1111,538 L 1110,539 L 1109,538 L 1109,537 L 1108,537 L 1107,536 L 1104,536 L 1102,534 L 1103,533 L 1103,532 L 1104,531 L 1104,530 L 1105,529 L 1105,528 L 1106,527 L 1106,526 Z M 569,541 L 571,539 L 572,539 L 573,538 L 577,538 L 580,540 L 582,540 L 583,541 L 584,541 L 585,542 L 588,543 L 590,541 L 590,537 L 589,536 L 589,529 L 594,524 L 594,523 L 595,522 L 597,522 L 598,523 L 601,523 L 602,524 L 603,524 L 604,525 L 605,525 L 608,527 L 610,527 L 611,528 L 612,528 L 615,530 L 617,530 L 618,531 L 620,531 L 620,530 L 621,529 L 622,526 L 624,524 L 625,524 L 627,526 L 628,526 L 630,528 L 631,528 L 632,529 L 631,530 L 631,532 L 629,535 L 629,537 L 628,538 L 628,540 L 627,541 L 627,545 L 626,546 L 626,564 L 627,565 L 627,569 L 628,570 L 628,572 L 629,573 L 629,575 L 630,576 L 630,577 L 631,578 L 631,579 L 632,580 L 632,581 L 633,582 L 634,585 L 636,587 L 636,588 L 640,592 L 640,593 L 643,595 L 642,596 L 640,596 L 639,597 L 638,597 L 636,599 L 635,598 L 636,599 L 634,601 L 633,600 L 632,601 L 631,601 L 630,600 L 627,599 L 625,597 L 626,596 L 625,597 L 624,597 L 623,596 L 624,595 L 623,596 L 622,595 L 622,589 L 623,588 L 623,585 L 620,584 L 618,582 L 617,582 L 616,581 L 614,581 L 613,582 L 612,582 L 609,584 L 608,583 L 607,584 L 605,584 L 604,583 L 601,584 L 600,583 L 599,583 L 597,581 L 594,580 L 593,579 L 593,573 L 594,572 L 594,567 L 593,567 L 592,566 L 591,566 L 589,564 L 586,563 L 585,564 L 582,565 L 577,569 L 575,567 L 572,566 L 570,564 L 569,564 L 567,562 L 566,562 L 563,559 L 563,556 L 564,555 L 564,554 L 567,552 L 567,548 L 568,547 L 568,543 L 569,542 Z M 1515,516 L 1516,517 L 1516,518 L 1517,519 L 1517,520 L 1518,521 L 1518,522 L 1519,523 L 1519,525 L 1520,526 L 1520,527 L 1521,528 L 1521,531 L 1520,532 L 1519,531 L 1519,529 L 1517,527 L 1517,526 L 1515,524 L 1515,523 L 1513,521 L 1513,520 L 1514,519 L 1514,517 Z M 557,516 L 559,516 L 560,515 L 561,515 L 562,516 L 563,516 L 566,519 L 566,520 L 567,521 L 567,525 L 566,526 L 566,527 L 565,528 L 563,528 L 562,529 L 557,529 L 554,526 L 554,525 L 553,524 L 553,521 L 554,520 L 554,519 Z M 533,515 L 535,515 L 536,516 L 538,516 L 541,519 L 541,521 L 542,522 L 542,523 L 541,524 L 541,526 L 538,529 L 533,529 L 532,528 L 531,528 L 530,527 L 529,527 L 528,526 L 528,525 L 527,524 L 527,521 L 528,520 L 528,519 L 531,516 L 532,516 Z M 1434,493 L 1435,494 L 1432,497 L 1431,497 L 1428,500 L 1427,499 L 1427,498 L 1428,497 L 1428,495 L 1429,494 L 1429,493 L 1430,492 L 1431,493 L 1432,492 L 1433,493 Z M 1312,483 L 1313,484 L 1313,485 L 1312,486 L 1309,486 L 1309,487 L 1308,488 L 1305,488 L 1304,489 L 1304,491 L 1301,494 L 1300,494 L 1299,495 L 1298,495 L 1298,503 L 1299,504 L 1298,505 L 1297,505 L 1296,506 L 1295,506 L 1294,507 L 1293,507 L 1290,510 L 1289,510 L 1279,520 L 1279,521 L 1276,524 L 1276,525 L 1275,526 L 1275,527 L 1273,529 L 1273,530 L 1272,531 L 1272,533 L 1271,534 L 1271,535 L 1270,536 L 1270,538 L 1269,539 L 1268,538 L 1268,537 L 1266,537 L 1265,536 L 1264,536 L 1262,534 L 1262,531 L 1263,530 L 1263,527 L 1264,526 L 1264,524 L 1265,523 L 1265,521 L 1266,520 L 1266,518 L 1267,517 L 1267,515 L 1268,514 L 1268,512 L 1269,511 L 1269,508 L 1270,507 L 1270,505 L 1271,504 L 1271,502 L 1272,501 L 1272,499 L 1273,498 L 1273,496 L 1274,495 L 1274,493 L 1275,492 L 1275,489 L 1276,488 L 1276,487 L 1279,484 L 1280,484 L 1281,483 Z M 837,483 L 866,483 L 867,484 L 866,485 L 863,485 L 866,485 L 867,484 L 868,484 L 870,486 L 870,489 L 871,490 L 871,492 L 872,493 L 872,494 L 873,495 L 873,497 L 874,498 L 874,500 L 875,501 L 875,504 L 876,505 L 876,507 L 877,508 L 877,510 L 878,511 L 878,512 L 879,513 L 879,515 L 880,516 L 880,518 L 881,519 L 881,521 L 882,522 L 882,524 L 883,525 L 883,528 L 884,529 L 884,530 L 885,531 L 885,535 L 884,536 L 882,536 L 881,535 L 881,534 L 880,533 L 880,532 L 879,531 L 879,530 L 878,529 L 878,528 L 877,527 L 877,526 L 874,523 L 874,522 L 875,521 L 877,521 L 878,520 L 878,519 L 876,519 L 875,520 L 875,521 L 874,522 L 871,519 L 871,518 L 865,512 L 864,512 L 861,509 L 860,509 L 858,507 L 857,507 L 855,505 L 854,505 L 853,504 L 852,504 L 851,503 L 849,503 L 848,502 L 847,502 L 846,501 L 843,501 L 842,500 L 843,499 L 843,487 L 842,487 L 841,486 L 837,486 L 836,485 L 836,484 Z M 1484,486 L 1485,485 L 1488,485 L 1488,484 L 1489,483 L 1490,483 L 1491,482 L 1492,482 L 1493,483 L 1493,484 L 1494,485 L 1494,487 L 1495,487 L 1496,488 L 1503,488 L 1504,489 L 1503,490 L 1497,490 L 1503,490 L 1505,492 L 1506,491 L 1507,492 L 1507,494 L 1508,495 L 1508,497 L 1509,498 L 1509,500 L 1508,501 L 1504,497 L 1503,497 L 1500,494 L 1501,493 L 1502,493 L 1501,493 L 1500,494 L 1499,494 L 1497,492 L 1496,492 L 1495,491 L 1494,491 L 1493,490 L 1492,490 L 1490,488 L 1489,488 L 1488,487 L 1485,487 Z M 977,483 L 978,484 L 976,486 L 972,486 L 971,487 L 970,487 L 970,488 L 969,489 L 969,492 L 968,493 L 967,493 L 965,495 L 964,495 L 963,496 L 963,502 L 964,503 L 962,505 L 961,505 L 959,507 L 958,507 L 956,509 L 955,509 L 950,514 L 949,514 L 946,517 L 946,518 L 942,522 L 942,523 L 940,525 L 940,526 L 939,527 L 939,528 L 937,530 L 937,531 L 936,532 L 936,534 L 935,535 L 934,534 L 934,533 L 933,534 L 933,535 L 934,534 L 935,535 L 935,536 L 934,537 L 932,537 L 931,536 L 929,536 L 928,535 L 927,535 L 926,534 L 926,533 L 925,532 L 926,531 L 926,529 L 927,528 L 927,526 L 928,525 L 928,523 L 929,522 L 929,519 L 930,518 L 930,516 L 931,515 L 931,513 L 932,512 L 932,510 L 933,509 L 933,507 L 934,506 L 934,504 L 935,503 L 935,501 L 936,500 L 936,498 L 937,497 L 937,495 L 938,494 L 938,492 L 939,491 L 939,488 L 940,487 L 940,486 L 941,485 L 942,485 L 943,484 L 944,484 L 945,485 L 946,485 L 945,485 L 944,484 L 945,483 L 962,483 L 963,482 L 964,483 Z M 813,484 L 812,485 L 809,485 L 808,484 L 807,484 L 808,485 L 805,488 L 804,488 L 803,489 L 802,489 L 801,490 L 800,490 L 799,491 L 798,491 L 797,492 L 796,492 L 794,494 L 793,494 L 791,496 L 790,496 L 788,498 L 787,498 L 786,499 L 785,498 L 785,496 L 786,495 L 786,494 L 787,493 L 787,491 L 788,490 L 788,489 L 789,488 L 789,487 L 792,484 L 794,484 L 795,483 L 796,483 L 797,482 L 809,482 L 810,483 L 812,483 Z M 657,483 L 657,485 L 656,486 L 651,486 L 651,487 L 649,489 L 648,489 L 647,490 L 646,490 L 643,493 L 642,493 L 631,504 L 630,503 L 630,502 L 631,501 L 631,500 L 632,499 L 632,497 L 633,496 L 633,494 L 634,493 L 634,492 L 635,491 L 636,492 L 638,492 L 639,493 L 640,492 L 638,492 L 637,491 L 636,492 L 635,491 L 635,489 L 636,488 L 636,487 L 637,486 L 637,485 L 639,483 L 642,483 L 643,482 L 656,482 Z M 1643,481 L 1645,481 L 1646,482 L 1645,483 L 1648,486 L 1649,485 L 1650,486 L 1650,487 L 1652,489 L 1652,490 L 1653,491 L 1653,492 L 1654,493 L 1654,494 L 1655,495 L 1655,496 L 1656,497 L 1656,499 L 1657,500 L 1657,503 L 1658,504 L 1658,509 L 1659,510 L 1659,511 L 1656,514 L 1644,514 L 1643,513 L 1637,513 L 1636,512 L 1632,512 L 1631,511 L 1631,508 L 1630,507 L 1630,505 L 1629,504 L 1629,503 L 1628,502 L 1628,501 L 1627,500 L 1628,499 L 1628,498 L 1629,497 L 1629,496 L 1631,494 L 1631,493 L 1634,490 L 1634,489 L 1641,482 L 1642,482 Z M 1150,484 L 1148,486 L 1147,485 L 1146,486 L 1145,486 L 1143,488 L 1142,488 L 1141,489 L 1140,489 L 1139,490 L 1138,490 L 1137,491 L 1136,491 L 1135,492 L 1134,492 L 1133,493 L 1132,493 L 1131,494 L 1130,494 L 1128,496 L 1127,496 L 1125,498 L 1124,497 L 1125,498 L 1122,501 L 1121,501 L 1120,502 L 1119,501 L 1119,499 L 1120,498 L 1120,497 L 1121,496 L 1121,494 L 1122,493 L 1122,492 L 1123,491 L 1123,490 L 1124,489 L 1124,487 L 1126,485 L 1127,485 L 1129,483 L 1143,483 L 1143,482 L 1144,481 L 1145,482 L 1147,482 L 1148,483 L 1149,483 Z M 584,477 L 585,477 L 586,478 L 587,478 L 588,477 L 590,477 L 591,478 L 591,479 L 590,480 L 590,482 L 589,483 L 589,484 L 590,485 L 590,487 L 591,488 L 590,489 L 587,489 L 590,489 L 591,488 L 592,488 L 593,489 L 594,489 L 595,490 L 594,491 L 592,491 L 591,492 L 590,492 L 589,491 L 586,491 L 583,488 L 583,478 Z M 1457,485 L 1456,486 L 1454,486 L 1453,487 L 1450,487 L 1449,488 L 1448,488 L 1447,489 L 1446,489 L 1445,490 L 1444,490 L 1443,491 L 1441,491 L 1440,492 L 1439,492 L 1438,493 L 1437,493 L 1436,494 L 1435,494 L 1434,493 L 1433,493 L 1432,492 L 1431,493 L 1430,492 L 1430,490 L 1431,489 L 1431,488 L 1435,484 L 1437,484 L 1438,483 L 1444,483 L 1445,482 L 1445,476 L 1446,475 L 1447,475 L 1448,476 L 1451,476 L 1452,477 L 1452,481 L 1454,483 L 1455,483 Z M 1346,473 L 1347,473 L 1348,474 L 1348,479 L 1347,480 L 1347,482 L 1349,484 L 1352,484 L 1354,486 L 1354,487 L 1355,488 L 1355,490 L 1356,491 L 1356,493 L 1355,494 L 1354,493 L 1353,493 L 1352,492 L 1351,492 L 1350,491 L 1349,491 L 1348,490 L 1347,490 L 1346,489 L 1343,489 L 1342,488 L 1342,487 L 1341,486 L 1336,486 L 1335,485 L 1335,484 L 1336,483 L 1337,484 L 1338,484 L 1339,483 L 1341,483 L 1341,482 L 1343,480 L 1343,475 L 1344,474 L 1345,474 Z M 1182,473 L 1186,473 L 1187,474 L 1186,475 L 1186,481 L 1187,482 L 1187,483 L 1202,483 L 1203,484 L 1204,484 L 1207,487 L 1207,489 L 1208,490 L 1208,492 L 1209,493 L 1209,495 L 1210,496 L 1210,498 L 1211,499 L 1211,501 L 1212,502 L 1212,504 L 1213,505 L 1213,507 L 1214,508 L 1214,510 L 1215,511 L 1215,513 L 1216,514 L 1216,516 L 1217,517 L 1217,520 L 1218,521 L 1218,523 L 1219,524 L 1219,525 L 1220,526 L 1220,528 L 1221,529 L 1221,531 L 1222,532 L 1222,535 L 1221,536 L 1220,536 L 1219,535 L 1219,534 L 1218,533 L 1218,532 L 1217,531 L 1217,530 L 1216,529 L 1216,528 L 1215,527 L 1215,526 L 1213,524 L 1213,523 L 1210,520 L 1210,519 L 1211,518 L 1213,518 L 1214,517 L 1213,516 L 1212,516 L 1211,517 L 1211,518 L 1210,519 L 1202,511 L 1201,511 L 1198,508 L 1197,508 L 1196,507 L 1195,507 L 1193,505 L 1192,505 L 1191,504 L 1190,504 L 1189,503 L 1188,503 L 1187,502 L 1185,502 L 1184,501 L 1182,501 L 1180,499 L 1180,487 L 1179,486 L 1174,486 L 1172,484 L 1173,483 L 1178,483 L 1179,482 L 1180,482 L 1180,481 L 1181,480 L 1181,474 Z M 999,485 L 1000,484 L 1002,484 L 1003,483 L 1004,483 L 1004,482 L 1005,481 L 1007,481 L 1009,479 L 1009,474 L 1010,473 L 1013,473 L 1014,474 L 1014,483 L 1024,483 L 1025,484 L 1027,484 L 1029,486 L 1029,487 L 1030,488 L 1030,490 L 1031,491 L 1031,493 L 1032,494 L 1032,496 L 1033,497 L 1033,499 L 1034,500 L 1034,502 L 1035,503 L 1035,504 L 1034,505 L 1031,502 L 1030,502 L 1024,496 L 1023,496 L 1021,494 L 1020,494 L 1019,493 L 1018,493 L 1017,492 L 1016,492 L 1015,491 L 1014,491 L 1013,490 L 1012,490 L 1011,489 L 1009,489 L 1008,488 L 1008,487 L 1007,486 L 1000,486 Z M 681,483 L 682,482 L 687,482 L 688,483 L 689,483 L 688,483 L 687,482 L 688,481 L 689,481 L 690,480 L 690,475 L 689,474 L 690,473 L 693,473 L 694,474 L 694,482 L 695,483 L 706,483 L 707,484 L 708,484 L 711,487 L 711,489 L 712,490 L 712,491 L 711,492 L 710,492 L 709,491 L 707,491 L 706,490 L 705,490 L 704,489 L 703,489 L 702,488 L 700,488 L 699,487 L 697,487 L 696,486 L 688,486 L 687,485 L 686,485 L 685,484 L 682,484 Z M 1621,467 L 1622,468 L 1622,472 L 1621,473 L 1621,475 L 1620,476 L 1620,478 L 1619,479 L 1618,478 L 1618,474 L 1619,473 L 1619,471 L 1620,470 L 1620,468 Z M 1598,465 L 1599,464 L 1611,464 L 1612,465 L 1611,466 L 1599,466 Z M 1553,460 L 1553,458 L 1554,457 L 1555,458 L 1555,459 L 1557,459 L 1556,459 L 1554,457 L 1554,454 L 1555,453 L 1555,452 L 1556,451 L 1571,451 L 1572,452 L 1571,453 L 1568,453 L 1571,453 L 1572,452 L 1573,453 L 1573,454 L 1574,455 L 1574,456 L 1573,457 L 1572,457 L 1570,459 L 1569,459 L 1567,461 L 1566,461 L 1564,463 L 1563,463 L 1562,462 L 1561,462 L 1560,461 L 1554,461 Z M 1007,443 L 1008,442 L 1010,442 L 1012,444 L 1012,446 L 1013,447 L 1012,448 L 1009,448 L 1008,447 L 1008,444 Z M 1345,440 L 1347,440 L 1348,441 L 1348,448 L 1347,449 L 1346,449 L 1345,448 L 1343,448 L 1342,447 L 1342,444 L 1343,443 L 1346,443 L 1346,442 L 1345,442 L 1344,441 Z M 1298,448 L 1298,441 L 1299,440 L 1300,441 L 1311,441 L 1312,442 L 1311,443 L 1308,443 L 1305,446 L 1305,448 L 1304,449 L 1299,449 Z M 1134,448 L 1134,441 L 1135,440 L 1136,440 L 1137,439 L 1138,439 L 1139,440 L 1140,440 L 1141,439 L 1149,439 L 1150,440 L 1150,441 L 1148,443 L 1146,443 L 1145,444 L 1144,444 L 1142,446 L 1142,448 L 1141,449 L 1135,449 Z M 1445,439 L 1446,438 L 1448,438 L 1449,439 L 1457,439 L 1458,440 L 1459,440 L 1460,441 L 1460,443 L 1461,444 L 1461,445 L 1460,446 L 1455,446 L 1453,448 L 1452,448 L 1452,450 L 1451,451 L 1446,451 L 1445,450 Z M 1172,441 L 1173,440 L 1174,440 L 1175,439 L 1176,439 L 1177,438 L 1185,438 L 1186,439 L 1186,448 L 1185,449 L 1182,449 L 1181,448 L 1181,444 L 1180,444 L 1179,443 L 1176,443 L 1175,442 L 1173,442 Z M 978,441 L 977,442 L 975,442 L 974,443 L 973,443 L 972,444 L 970,444 L 969,445 L 969,448 L 968,449 L 962,449 L 961,448 L 962,447 L 961,446 L 961,445 L 962,444 L 962,439 L 963,438 L 966,438 L 967,439 L 970,439 L 967,439 L 966,438 L 967,437 L 971,437 L 972,436 L 974,436 L 975,437 L 975,439 L 976,440 L 977,440 Z M 1448,436 L 1449,435 L 1470,435 L 1471,436 L 1470,437 L 1449,437 Z M 679,440 L 682,437 L 685,437 L 687,435 L 688,435 L 689,436 L 689,437 L 691,437 L 691,436 L 690,436 L 689,435 L 690,434 L 693,434 L 694,435 L 694,447 L 693,448 L 692,447 L 690,447 L 689,446 L 689,444 L 687,442 L 684,442 L 683,441 L 680,441 Z M 1501,433 L 1501,434 L 1500,435 L 1498,435 L 1497,436 L 1475,436 L 1474,435 L 1475,434 L 1489,434 L 1490,433 L 1491,433 L 1492,432 L 1498,432 L 1499,433 L 1500,432 Z M 1340,430 L 1341,429 L 1358,429 L 1359,430 L 1385,430 L 1386,431 L 1408,431 L 1409,432 L 1442,432 L 1443,433 L 1446,433 L 1448,435 L 1447,436 L 1410,436 L 1409,435 L 1382,435 L 1381,434 L 1341,434 L 1340,433 Z M 1179,433 L 1180,432 L 1180,430 L 1181,429 L 1238,429 L 1239,430 L 1259,430 L 1260,429 L 1261,429 L 1262,430 L 1268,430 L 1269,429 L 1276,429 L 1277,430 L 1299,430 L 1300,429 L 1308,429 L 1309,430 L 1309,432 L 1317,432 L 1318,433 L 1317,434 L 1299,434 L 1299,437 L 1298,438 L 1297,437 L 1297,434 L 1180,434 Z M 685,432 L 687,429 L 950,429 L 955,431 L 968,430 L 971,432 L 1003,432 L 1005,429 L 1143,429 L 1144,432 L 1155,431 L 1167,433 L 803,433 L 804,437 L 813,438 L 815,441 L 809,443 L 804,450 L 798,448 L 798,433 Z M 630,432 L 631,431 L 631,430 L 632,429 L 638,429 L 639,430 L 647,430 L 649,432 L 649,433 L 650,433 L 651,434 L 652,434 L 655,437 L 655,438 L 656,439 L 658,439 L 659,440 L 658,441 L 656,441 L 655,442 L 654,442 L 652,444 L 651,444 L 649,446 L 649,448 L 648,449 L 644,449 L 643,448 L 643,434 L 642,433 L 631,433 Z M 592,437 L 592,432 L 593,431 L 593,428 L 596,425 L 597,425 L 598,426 L 604,426 L 605,427 L 611,427 L 612,428 L 612,429 L 613,430 L 613,432 L 614,433 L 613,434 L 606,434 L 605,435 L 605,442 L 604,443 L 602,443 L 601,444 L 600,444 L 599,443 L 598,443 Z M 1661,406 L 1665,410 L 1665,411 L 1668,414 L 1668,415 L 1667,416 L 1662,411 L 1662,410 L 1660,408 L 1660,407 Z M 1246,404 L 1247,403 L 1659,403 L 1661,406 L 1660,407 L 1658,405 L 1247,405 Z M 1057,403 L 1058,402 L 1079,402 L 1080,403 L 1079,404 L 1058,404 Z M 1004,403 L 1005,402 L 1042,402 L 1043,403 L 1042,404 L 1005,404 Z M 601,403 L 602,402 L 973,402 L 974,403 L 973,404 L 602,404 Z M 1615,286 L 1617,286 L 1618,287 L 1620,287 L 1623,290 L 1623,291 L 1624,292 L 1624,294 L 1623,295 L 1623,297 L 1620,300 L 1619,300 L 1618,301 L 1613,301 L 1609,297 L 1609,296 L 1608,295 L 1608,293 L 1609,292 L 1609,290 L 1611,288 L 1612,288 L 1613,287 L 1614,287 Z M 1138,103 L 1139,102 L 1153,102 L 1154,103 L 1168,103 L 1169,104 L 1183,104 L 1185,106 L 1185,112 L 1184,113 L 1184,116 L 1183,117 L 1182,116 L 1177,116 L 1176,115 L 1170,115 L 1169,114 L 1163,114 L 1162,113 L 1156,113 L 1155,112 L 1149,112 L 1148,111 L 1141,111 L 1140,110 L 1139,110 L 1138,109 L 1138,105 L 1139,104 Z" fill="black" fill-rule="evenodd"/>
</svg>