<svg xmlns="http://www.w3.org/2000/svg" width="2172" height="724" viewBox="0 0 2172 724">
<rect width="100%" height="100%" fill="white"/>
<path d="M 650,528 L 651,529 L 651,531 L 650,532 L 649,532 L 649,535 L 650,536 L 650,548 L 651,549 L 651,552 L 652,552 L 652,550 L 653,549 L 653,536 L 654,535 L 654,531 L 653,531 L 652,530 L 652,529 L 653,528 Z" fill="black" fill-rule="evenodd"/>
<path d="M 1876,375 L 1859,370 L 1860,342 L 1845,339 L 1830,349 L 1798,325 L 1798,307 L 1770,306 L 1781,291 L 1783,236 L 1760,232 L 1745,239 L 1749,278 L 1732,222 L 1443,201 L 1433,142 L 1414,135 L 1412,117 L 1367,116 L 1364,99 L 1292,100 L 1291,116 L 1194,116 L 1189,133 L 962,131 L 957,116 L 918,116 L 914,131 L 684,135 L 651,188 L 419,204 L 419,255 L 620,273 L 627,284 L 643,284 L 644,293 L 499,320 L 491,306 L 489,321 L 466,331 L 459,322 L 462,299 L 441,289 L 442,329 L 464,330 L 364,342 L 349,359 L 335,357 L 327,366 L 332,385 L 300,434 L 332,432 L 338,445 L 343,435 L 336,463 L 346,485 L 340,488 L 374,539 L 390,540 L 399,553 L 411,549 L 425,563 L 439,559 L 448,572 L 466,569 L 474,582 L 489,578 L 497,590 L 515,587 L 520,598 L 532,593 L 551,609 L 571,607 L 577,617 L 592,609 L 606,617 L 615,609 L 621,617 L 627,609 L 641,617 L 652,609 L 666,617 L 677,609 L 693,617 L 703,609 L 718,617 L 728,609 L 744,617 L 754,609 L 768,617 L 778,609 L 794,617 L 804,609 L 819,617 L 830,609 L 844,617 L 854,609 L 871,617 L 881,609 L 896,617 L 905,609 L 922,617 L 932,609 L 947,617 L 958,609 L 972,617 L 983,609 L 997,617 L 1006,609 L 1021,617 L 1031,609 L 1047,617 L 1057,609 L 1073,617 L 1082,609 L 1097,617 L 1108,609 L 1121,617 L 1130,609 L 1145,617 L 1155,609 L 1170,617 L 1180,609 L 1195,617 L 1205,609 L 1220,617 L 1231,609 L 1246,617 L 1255,609 L 1271,617 L 1281,609 L 1296,617 L 1305,609 L 1320,617 L 1331,609 L 1345,617 L 1355,609 L 1370,617 L 1380,609 L 1396,617 L 1405,609 L 1421,617 L 1431,609 L 1446,617 L 1456,609 L 1471,617 L 1482,609 L 1498,617 L 1508,609 L 1523,617 L 1533,609 L 1549,617 L 1569,609 L 1579,617 L 1589,609 L 1604,617 L 1611,607 L 1628,610 L 1644,596 L 1656,600 L 1660,590 L 1676,593 L 1688,580 L 1706,582 L 1711,571 L 1728,574 L 1735,563 L 1758,563 L 1761,554 L 1778,556 L 1795,542 L 1802,547 L 1815,529 L 1824,531 L 1834,508 L 1844,506 L 1855,473 L 1848,455 L 1853,437 L 1841,411 L 1848,400 L 1876,401 Z M 1485,597 L 1486,596 L 1489,596 L 1490,595 L 1491,595 L 1492,596 L 1495,596 L 1496,597 L 1495,598 L 1486,598 Z M 1567,595 L 1568,594 L 1570,594 L 1571,595 L 1572,595 L 1573,596 L 1575,596 L 1576,597 L 1575,598 L 1570,598 Z M 1066,594 L 1067,593 L 1068,593 L 1069,594 L 1070,594 L 1071,595 L 1072,595 L 1073,596 L 1076,596 L 1077,597 L 1076,598 L 1069,598 L 1068,597 L 1068,596 Z M 813,594 L 814,593 L 815,593 L 816,594 L 818,594 L 819,595 L 820,595 L 821,596 L 824,596 L 825,597 L 824,598 L 817,598 L 816,597 L 817,596 L 816,597 Z M 686,594 L 687,593 L 688,593 L 689,594 L 691,594 L 692,595 L 693,595 L 694,596 L 696,596 L 697,597 L 696,598 L 689,598 L 688,597 L 688,596 Z M 1439,593 L 1440,592 L 1441,592 L 1443,594 L 1445,594 L 1446,595 L 1447,595 L 1448,596 L 1451,596 L 1452,597 L 1451,598 L 1443,598 L 1439,594 Z M 1374,593 L 1374,597 L 1373,598 L 1362,598 L 1361,597 L 1362,596 L 1365,596 L 1366,595 L 1367,595 L 1368,596 L 1371,596 L 1368,596 L 1367,595 L 1368,594 L 1369,594 L 1370,593 L 1371,593 L 1372,592 L 1373,592 Z M 1314,593 L 1315,592 L 1316,593 L 1317,593 L 1318,594 L 1319,594 L 1320,595 L 1319,596 L 1320,595 L 1322,595 L 1323,596 L 1325,596 L 1326,597 L 1325,598 L 1318,598 L 1314,594 Z M 745,593 L 744,594 L 744,597 L 743,598 L 732,598 L 731,597 L 732,596 L 735,596 L 736,595 L 737,595 L 738,594 L 740,594 L 741,593 L 742,593 L 743,592 L 744,592 Z M 1250,592 L 1250,593 L 1249,594 L 1249,595 L 1248,596 L 1248,597 L 1247,598 L 1237,598 L 1236,597 L 1237,596 L 1240,596 L 1241,595 L 1242,595 L 1243,594 L 1244,594 L 1245,593 L 1246,593 L 1247,592 L 1248,592 L 1249,591 Z M 1188,592 L 1189,591 L 1190,591 L 1191,592 L 1192,592 L 1193,593 L 1194,593 L 1195,594 L 1196,594 L 1197,595 L 1196,596 L 1194,596 L 1196,596 L 1197,595 L 1198,595 L 1199,596 L 1202,596 L 1203,597 L 1202,598 L 1193,598 L 1192,597 L 1191,597 L 1189,595 L 1190,594 L 1189,595 L 1188,594 Z M 1126,592 L 1125,593 L 1125,595 L 1124,596 L 1124,597 L 1123,598 L 1113,598 L 1112,597 L 1113,596 L 1115,596 L 1116,595 L 1117,595 L 1118,596 L 1121,596 L 1118,596 L 1117,595 L 1118,594 L 1119,594 L 1120,593 L 1122,593 L 1124,591 L 1125,591 Z M 874,592 L 872,594 L 872,595 L 871,596 L 871,597 L 870,598 L 860,598 L 859,597 L 860,596 L 862,596 L 863,595 L 865,595 L 866,594 L 867,594 L 868,593 L 869,593 L 870,592 L 871,592 L 872,591 L 873,591 Z M 1004,589 L 1001,592 L 1001,594 L 1000,595 L 1000,597 L 999,598 L 986,598 L 985,597 L 986,596 L 988,596 L 989,595 L 990,595 L 991,594 L 992,594 L 993,593 L 994,593 L 995,592 L 996,592 L 997,591 L 998,591 L 999,590 L 1000,590 L 1002,588 L 1003,588 Z M 754,585 L 755,586 L 754,587 L 754,588 L 752,590 L 752,591 L 751,592 L 750,591 L 750,590 L 749,590 L 748,589 L 749,588 L 750,588 L 753,585 Z M 1637,580 L 1638,581 L 1638,582 L 1637,583 L 1637,586 L 1635,588 L 1634,588 L 1633,589 L 1631,589 L 1630,590 L 1628,590 L 1627,589 L 1629,587 L 1630,587 Z M 607,580 L 606,581 L 605,581 L 604,582 L 602,582 L 601,583 L 599,583 L 598,584 L 593,584 L 592,585 L 585,585 L 584,584 L 579,584 L 578,583 L 576,583 L 575,582 L 576,581 L 575,582 L 573,582 L 572,581 L 573,580 L 574,580 L 575,579 L 577,579 L 578,580 L 581,580 L 582,581 L 594,581 L 595,580 L 599,580 L 600,579 L 602,579 L 603,578 L 604,578 L 605,579 L 606,579 Z M 1116,579 L 1115,580 L 1114,580 L 1113,581 L 1112,581 L 1111,582 L 1109,582 L 1108,583 L 1106,583 L 1105,584 L 1101,584 L 1100,585 L 1089,585 L 1088,584 L 1084,584 L 1083,583 L 1080,583 L 1079,582 L 1078,582 L 1077,581 L 1076,581 L 1075,580 L 1076,579 L 1077,579 L 1078,578 L 1080,578 L 1081,579 L 1083,579 L 1084,580 L 1088,580 L 1089,581 L 1100,581 L 1101,580 L 1105,580 L 1106,579 L 1108,579 L 1109,578 L 1110,578 L 1111,577 L 1113,577 L 1114,578 L 1115,578 Z M 1445,578 L 1448,575 L 1449,576 L 1450,576 L 1451,577 L 1452,577 L 1453,578 L 1455,578 L 1456,579 L 1458,579 L 1459,580 L 1464,580 L 1465,581 L 1473,581 L 1474,580 L 1479,580 L 1480,579 L 1482,579 L 1483,578 L 1485,578 L 1486,577 L 1487,577 L 1488,576 L 1489,576 L 1490,577 L 1489,578 L 1490,579 L 1489,580 L 1488,580 L 1487,581 L 1486,581 L 1485,582 L 1483,582 L 1482,583 L 1479,583 L 1478,584 L 1474,584 L 1473,585 L 1464,585 L 1463,584 L 1458,584 L 1457,583 L 1455,583 L 1454,582 L 1452,582 L 1451,581 L 1450,581 L 1449,580 L 1450,579 L 1451,579 L 1450,579 L 1449,580 L 1448,580 L 1447,579 L 1446,579 Z M 1244,577 L 1242,579 L 1241,579 L 1240,580 L 1239,580 L 1238,579 L 1237,579 L 1238,579 L 1239,580 L 1238,581 L 1237,581 L 1236,582 L 1234,582 L 1233,583 L 1231,583 L 1230,584 L 1225,584 L 1224,585 L 1215,585 L 1214,584 L 1209,584 L 1208,583 L 1206,583 L 1205,582 L 1203,582 L 1202,581 L 1201,581 L 1200,580 L 1199,580 L 1198,579 L 1199,578 L 1200,578 L 1199,577 L 1200,576 L 1201,576 L 1202,577 L 1203,577 L 1204,578 L 1206,578 L 1207,579 L 1209,579 L 1210,580 L 1213,580 L 1214,581 L 1224,581 L 1225,580 L 1229,580 L 1230,579 L 1233,579 L 1234,580 L 1235,580 L 1234,580 L 1233,579 L 1234,578 L 1235,578 L 1236,577 L 1237,577 L 1238,576 L 1240,576 L 1241,575 L 1242,576 L 1243,576 Z M 943,577 L 944,576 L 946,576 L 947,575 L 948,575 L 950,577 L 952,577 L 953,578 L 954,578 L 955,579 L 958,579 L 959,580 L 963,580 L 964,581 L 972,581 L 973,580 L 977,580 L 978,579 L 980,579 L 981,578 L 983,578 L 984,577 L 986,577 L 987,578 L 988,578 L 989,579 L 988,580 L 987,580 L 986,581 L 985,581 L 984,582 L 982,582 L 981,583 L 979,583 L 978,584 L 974,584 L 973,585 L 962,585 L 961,584 L 957,584 L 956,583 L 954,583 L 953,582 L 951,582 L 950,581 L 949,581 L 948,580 L 947,580 L 946,579 L 945,579 Z M 816,576 L 817,575 L 818,575 L 819,574 L 820,574 L 821,575 L 822,575 L 823,576 L 824,576 L 825,577 L 826,577 L 827,578 L 828,578 L 829,579 L 831,579 L 832,580 L 837,580 L 838,581 L 847,581 L 848,580 L 852,580 L 853,579 L 855,579 L 856,580 L 857,580 L 856,580 L 855,579 L 856,578 L 858,578 L 859,579 L 860,579 L 861,580 L 860,581 L 859,581 L 858,582 L 856,582 L 855,583 L 853,583 L 852,584 L 848,584 L 847,583 L 839,583 L 847,583 L 848,584 L 847,585 L 837,585 L 836,584 L 831,584 L 830,583 L 828,583 L 827,582 L 825,582 L 824,581 L 823,581 L 822,580 L 821,580 L 820,579 L 821,578 L 822,578 L 821,577 L 820,577 L 821,578 L 820,579 L 819,579 Z M 536,568 L 537,569 L 537,570 L 539,572 L 539,573 L 542,576 L 542,577 L 553,588 L 552,589 L 551,589 L 550,588 L 548,588 L 547,587 L 545,587 L 544,586 L 545,585 L 547,585 L 545,585 L 544,586 L 542,586 L 541,585 L 540,585 L 539,584 L 542,581 L 542,580 L 540,580 L 539,581 L 539,582 L 538,583 L 537,582 L 537,581 L 536,580 L 536,573 L 535,572 L 535,569 Z M 1383,561 L 1383,562 L 1382,563 L 1382,564 L 1381,565 L 1381,566 L 1377,570 L 1377,571 L 1376,572 L 1375,572 L 1371,576 L 1370,575 L 1369,575 L 1370,575 L 1371,576 L 1370,577 L 1369,577 L 1368,578 L 1367,578 L 1366,577 L 1367,578 L 1365,580 L 1364,580 L 1363,579 L 1364,578 L 1363,579 L 1361,579 L 1360,578 L 1361,577 L 1362,577 L 1363,576 L 1364,576 L 1366,574 L 1367,574 L 1370,571 L 1371,571 L 1375,567 L 1375,566 L 1378,563 L 1378,562 L 1380,560 L 1381,561 L 1382,560 Z M 1179,557 L 1180,556 L 1181,557 L 1181,558 L 1181,557 L 1182,556 L 1183,557 L 1183,558 L 1184,559 L 1184,560 L 1186,562 L 1186,563 L 1190,567 L 1190,568 L 1193,571 L 1194,571 L 1197,574 L 1198,574 L 1200,576 L 1199,577 L 1197,577 L 1196,578 L 1195,577 L 1194,577 L 1193,576 L 1194,575 L 1195,575 L 1194,575 L 1193,574 L 1192,575 L 1190,573 L 1191,572 L 1190,573 L 1183,566 L 1183,565 L 1182,564 L 1182,563 L 1180,561 L 1180,560 L 1179,559 Z M 422,542 L 423,541 L 426,541 L 427,542 L 431,542 L 432,543 L 436,543 L 437,542 L 451,542 L 452,541 L 456,541 L 459,544 L 459,545 L 462,548 L 461,549 L 462,549 L 463,550 L 458,555 L 457,555 L 456,554 L 455,554 L 454,553 L 454,545 L 453,544 L 450,544 L 449,545 L 448,545 L 448,546 L 447,547 L 447,548 L 448,549 L 448,550 L 447,551 L 446,551 L 445,550 L 444,550 L 443,549 L 444,548 L 445,548 L 445,547 L 442,547 L 443,548 L 442,549 L 441,549 L 440,548 L 438,548 L 437,547 L 435,547 L 434,546 L 432,546 L 431,545 L 429,545 L 428,544 L 426,544 L 425,543 L 423,543 Z M 1734,540 L 1735,539 L 1737,539 L 1738,540 L 1742,540 L 1743,541 L 1750,541 L 1751,542 L 1751,544 L 1753,544 L 1754,545 L 1753,546 L 1751,546 L 1750,547 L 1748,547 L 1747,548 L 1742,548 L 1741,547 L 1740,547 L 1735,542 L 1735,541 Z M 1533,534 L 1534,535 L 1534,547 L 1535,548 L 1535,553 L 1536,554 L 1536,557 L 1537,558 L 1537,560 L 1538,561 L 1538,562 L 1539,563 L 1539,565 L 1540,566 L 1540,567 L 1542,569 L 1542,570 L 1543,571 L 1543,572 L 1544,573 L 1544,574 L 1552,582 L 1552,583 L 1553,583 L 1557,587 L 1556,588 L 1556,589 L 1555,590 L 1555,591 L 1554,592 L 1554,593 L 1553,594 L 1553,595 L 1550,598 L 1548,596 L 1547,596 L 1546,595 L 1546,594 L 1545,593 L 1545,592 L 1544,591 L 1544,589 L 1543,588 L 1543,587 L 1542,586 L 1542,584 L 1541,583 L 1537,583 L 1536,584 L 1536,585 L 1535,586 L 1535,587 L 1534,588 L 1534,589 L 1533,590 L 1533,592 L 1532,593 L 1532,594 L 1531,595 L 1531,596 L 1530,597 L 1529,596 L 1529,595 L 1525,595 L 1526,596 L 1525,597 L 1522,597 L 1521,596 L 1521,595 L 1520,594 L 1520,593 L 1519,592 L 1519,590 L 1518,589 L 1518,588 L 1517,587 L 1517,586 L 1516,585 L 1516,584 L 1514,584 L 1510,588 L 1510,590 L 1509,591 L 1509,592 L 1506,595 L 1505,595 L 1502,598 L 1501,598 L 1500,597 L 1500,596 L 1503,593 L 1503,589 L 1509,583 L 1510,583 L 1513,580 L 1513,579 L 1517,575 L 1517,574 L 1519,572 L 1519,571 L 1520,570 L 1520,569 L 1522,567 L 1522,566 L 1523,565 L 1523,563 L 1524,562 L 1524,561 L 1525,560 L 1525,558 L 1526,557 L 1526,555 L 1527,554 L 1528,555 L 1530,555 L 1531,556 L 1533,554 L 1533,549 L 1532,548 L 1532,535 Z M 1591,529 L 1596,529 L 1597,530 L 1596,531 L 1593,531 L 1596,531 L 1597,530 L 1599,530 L 1605,536 L 1605,538 L 1606,539 L 1606,543 L 1605,544 L 1605,546 L 1602,549 L 1602,550 L 1601,551 L 1600,551 L 1599,552 L 1598,552 L 1597,553 L 1589,553 L 1588,552 L 1587,552 L 1582,547 L 1582,545 L 1581,544 L 1581,539 L 1582,538 L 1582,536 L 1583,535 L 1584,536 L 1584,537 L 1584,536 L 1583,535 L 1583,534 L 1586,531 L 1587,531 L 1588,530 L 1590,530 Z M 1466,529 L 1472,529 L 1473,530 L 1474,530 L 1475,531 L 1476,531 L 1479,534 L 1478,535 L 1479,534 L 1480,535 L 1480,536 L 1481,537 L 1481,539 L 1482,540 L 1482,543 L 1481,544 L 1481,546 L 1480,547 L 1480,548 L 1476,552 L 1475,552 L 1474,553 L 1472,553 L 1471,554 L 1466,554 L 1465,553 L 1463,553 L 1457,547 L 1457,545 L 1456,544 L 1456,538 L 1457,537 L 1457,536 L 1458,535 L 1458,534 L 1460,532 L 1461,532 L 1463,530 L 1465,530 Z M 1341,529 L 1348,529 L 1349,530 L 1350,530 L 1352,532 L 1353,532 L 1354,533 L 1354,534 L 1356,536 L 1356,538 L 1357,539 L 1357,544 L 1356,545 L 1356,546 L 1355,547 L 1355,548 L 1351,552 L 1350,552 L 1349,553 L 1348,553 L 1347,554 L 1342,554 L 1341,553 L 1339,553 L 1338,552 L 1337,552 L 1334,549 L 1334,548 L 1333,547 L 1333,546 L 1332,545 L 1332,538 L 1333,537 L 1333,536 L 1334,535 L 1334,534 L 1337,531 L 1338,531 L 1339,530 L 1340,530 Z M 1214,530 L 1216,530 L 1217,529 L 1223,529 L 1224,530 L 1226,530 L 1231,535 L 1231,537 L 1232,538 L 1232,540 L 1233,541 L 1233,542 L 1232,543 L 1232,545 L 1231,546 L 1231,547 L 1230,548 L 1230,549 L 1228,551 L 1227,551 L 1225,553 L 1223,553 L 1222,552 L 1220,552 L 1221,552 L 1222,553 L 1221,554 L 1218,554 L 1217,553 L 1215,553 L 1214,552 L 1213,552 L 1210,549 L 1210,548 L 1209,547 L 1209,546 L 1208,545 L 1208,544 L 1207,543 L 1207,540 L 1208,539 L 1208,537 L 1209,536 L 1209,535 L 1210,534 L 1210,533 L 1211,532 L 1212,532 Z M 1091,529 L 1098,529 L 1099,530 L 1100,530 L 1101,531 L 1102,531 L 1105,534 L 1105,535 L 1106,536 L 1106,537 L 1107,538 L 1107,545 L 1106,546 L 1106,547 L 1101,552 L 1100,552 L 1099,553 L 1096,553 L 1095,554 L 1094,554 L 1093,553 L 1094,552 L 1093,552 L 1092,553 L 1090,553 L 1089,552 L 1088,552 L 1083,547 L 1083,546 L 1082,545 L 1082,538 L 1083,537 L 1083,536 L 1084,535 L 1084,534 L 1087,531 L 1088,531 L 1089,530 L 1090,530 Z M 962,530 L 965,530 L 966,529 L 971,529 L 972,530 L 973,530 L 974,531 L 975,531 L 978,534 L 978,535 L 977,536 L 978,535 L 979,536 L 979,537 L 980,538 L 980,545 L 979,546 L 979,547 L 974,552 L 973,552 L 972,553 L 963,553 L 962,552 L 961,552 L 957,548 L 957,547 L 956,546 L 956,544 L 955,543 L 955,539 L 956,538 L 956,536 Z M 839,529 L 845,529 L 846,530 L 848,530 L 853,535 L 853,536 L 854,537 L 854,540 L 855,541 L 855,542 L 854,543 L 854,545 L 853,546 L 853,547 L 852,548 L 852,549 L 849,552 L 848,552 L 847,553 L 845,553 L 844,554 L 839,554 L 838,553 L 837,553 L 836,552 L 835,552 L 831,548 L 831,547 L 832,546 L 832,545 L 832,546 L 831,547 L 830,546 L 830,544 L 829,543 L 829,539 L 830,538 L 830,536 L 832,534 L 832,533 L 834,531 L 835,531 L 836,530 L 838,530 Z M 712,529 L 718,529 L 719,530 L 721,530 L 726,535 L 726,536 L 727,537 L 727,545 L 726,546 L 726,547 L 725,548 L 725,549 L 722,552 L 721,552 L 720,553 L 718,553 L 717,554 L 712,554 L 711,553 L 710,553 L 709,552 L 708,552 L 703,547 L 703,545 L 702,544 L 702,538 L 703,537 L 703,536 L 704,535 L 704,534 L 706,532 L 707,532 L 709,530 L 711,530 Z M 583,530 L 585,530 L 586,529 L 592,529 L 593,530 L 594,530 L 595,531 L 596,531 L 599,534 L 599,535 L 600,536 L 600,537 L 601,538 L 601,545 L 600,546 L 600,547 L 595,552 L 594,552 L 593,553 L 591,553 L 590,552 L 586,552 L 585,553 L 583,553 L 577,547 L 577,545 L 576,544 L 576,540 L 577,539 L 577,537 L 578,536 L 578,535 Z M 1528,528 L 1529,529 L 1529,532 L 1530,533 L 1530,538 L 1530,536 L 1531,535 L 1532,536 L 1532,547 L 1531,548 L 1530,547 L 1530,544 L 1530,550 L 1529,551 L 1529,554 L 1528,555 L 1527,554 L 1527,549 L 1528,548 L 1528,535 L 1527,534 L 1527,529 Z M 1386,528 L 1387,529 L 1387,531 L 1388,532 L 1388,537 L 1389,538 L 1389,544 L 1388,545 L 1388,550 L 1387,551 L 1387,554 L 1386,555 L 1386,556 L 1385,557 L 1385,558 L 1384,559 L 1384,560 L 1383,561 L 1382,560 L 1381,561 L 1380,560 L 1380,559 L 1381,558 L 1381,557 L 1382,556 L 1382,554 L 1383,553 L 1383,551 L 1384,550 L 1384,533 L 1383,532 L 1383,529 L 1384,528 L 1385,529 L 1385,531 L 1385,529 Z M 1153,526 L 1161,526 L 1162,527 L 1162,530 L 1161,531 L 1161,536 L 1160,537 L 1159,536 L 1159,529 L 1160,528 L 1155,528 L 1156,529 L 1156,530 L 1155,531 L 1156,532 L 1156,538 L 1156,537 L 1157,536 L 1158,537 L 1158,544 L 1157,545 L 1156,544 L 1156,549 L 1155,550 L 1155,552 L 1157,554 L 1157,555 L 1159,552 L 1159,546 L 1160,545 L 1161,546 L 1161,552 L 1162,553 L 1162,555 L 1163,556 L 1163,558 L 1164,559 L 1164,561 L 1165,562 L 1165,564 L 1166,565 L 1166,566 L 1167,567 L 1167,568 L 1169,570 L 1169,571 L 1170,572 L 1170,573 L 1172,575 L 1172,576 L 1180,584 L 1180,585 L 1178,588 L 1178,590 L 1177,591 L 1177,592 L 1176,593 L 1176,594 L 1174,596 L 1173,595 L 1171,595 L 1170,594 L 1169,595 L 1168,594 L 1167,595 L 1165,593 L 1165,591 L 1163,588 L 1163,586 L 1162,585 L 1162,584 L 1161,583 L 1158,583 L 1156,585 L 1156,586 L 1155,587 L 1155,588 L 1154,589 L 1154,590 L 1153,591 L 1153,592 L 1152,593 L 1152,594 L 1150,596 L 1149,596 L 1147,598 L 1146,598 L 1145,597 L 1144,597 L 1141,594 L 1141,593 L 1140,592 L 1140,591 L 1138,588 L 1138,586 L 1137,585 L 1135,585 L 1134,584 L 1135,583 L 1136,583 L 1139,580 L 1139,579 L 1142,576 L 1142,575 L 1145,572 L 1145,571 L 1147,569 L 1147,568 L 1148,567 L 1148,566 L 1150,563 L 1150,561 L 1151,560 L 1151,558 L 1152,557 L 1152,554 L 1153,553 L 1153,549 L 1154,548 L 1154,534 L 1153,533 L 1153,530 L 1152,529 L 1152,527 Z M 647,526 L 656,526 L 657,527 L 657,530 L 656,531 L 656,537 L 655,538 L 655,545 L 656,546 L 656,551 L 657,552 L 657,556 L 658,557 L 658,559 L 659,560 L 659,562 L 660,563 L 660,564 L 661,565 L 661,566 L 662,567 L 662,568 L 663,569 L 663,570 L 665,572 L 665,573 L 667,575 L 667,576 L 676,585 L 676,588 L 675,589 L 675,591 L 674,592 L 674,593 L 672,595 L 672,596 L 670,598 L 669,597 L 668,597 L 666,595 L 667,594 L 668,594 L 669,595 L 670,594 L 670,593 L 669,592 L 668,592 L 668,593 L 666,595 L 664,593 L 664,591 L 663,590 L 663,588 L 662,587 L 662,586 L 660,583 L 657,583 L 654,586 L 654,587 L 653,588 L 653,589 L 652,590 L 652,591 L 651,592 L 651,593 L 650,594 L 650,595 L 647,598 L 646,597 L 644,597 L 643,596 L 643,595 L 641,592 L 641,589 L 640,588 L 640,587 L 639,586 L 639,585 L 637,583 L 636,584 L 635,584 L 633,586 L 633,587 L 632,588 L 632,589 L 631,590 L 631,591 L 630,592 L 630,593 L 628,595 L 627,594 L 628,595 L 627,596 L 626,596 L 624,594 L 624,592 L 623,591 L 623,588 L 626,585 L 627,585 L 628,584 L 629,585 L 631,585 L 629,585 L 628,584 L 635,577 L 635,576 L 637,574 L 637,573 L 639,571 L 639,570 L 641,568 L 641,567 L 642,566 L 642,564 L 644,561 L 644,559 L 645,558 L 645,556 L 646,555 L 646,553 L 647,552 L 647,546 L 648,545 L 648,537 L 647,536 L 647,531 L 646,530 L 646,527 Z M 1526,526 L 1527,525 L 1528,526 L 1535,526 L 1536,527 L 1536,528 L 1535,529 L 1534,528 L 1528,528 L 1527,529 L 1526,528 Z M 1402,525 L 1403,526 L 1410,526 L 1411,527 L 1411,530 L 1410,531 L 1410,536 L 1409,537 L 1409,544 L 1410,545 L 1410,552 L 1411,553 L 1411,555 L 1412,556 L 1412,559 L 1413,560 L 1413,561 L 1414,562 L 1414,564 L 1415,565 L 1415,566 L 1416,567 L 1416,568 L 1417,569 L 1417,570 L 1419,572 L 1419,573 L 1422,576 L 1422,577 L 1430,585 L 1430,587 L 1429,588 L 1429,589 L 1428,590 L 1428,591 L 1427,592 L 1427,593 L 1426,594 L 1426,595 L 1424,597 L 1422,597 L 1421,596 L 1420,596 L 1419,595 L 1420,594 L 1419,593 L 1418,594 L 1417,593 L 1417,592 L 1416,591 L 1416,589 L 1415,588 L 1415,586 L 1414,585 L 1414,584 L 1413,583 L 1409,583 L 1407,585 L 1407,586 L 1406,587 L 1406,588 L 1405,589 L 1405,591 L 1404,592 L 1404,593 L 1403,594 L 1403,595 L 1402,596 L 1402,597 L 1401,598 L 1397,598 L 1396,597 L 1394,597 L 1393,596 L 1394,595 L 1393,596 L 1392,595 L 1392,594 L 1393,593 L 1392,594 L 1390,592 L 1390,591 L 1389,590 L 1389,589 L 1388,588 L 1388,587 L 1387,586 L 1387,585 L 1385,583 L 1391,577 L 1391,576 L 1393,574 L 1393,573 L 1395,571 L 1395,570 L 1396,569 L 1397,570 L 1396,569 L 1396,568 L 1397,567 L 1397,566 L 1398,565 L 1398,564 L 1399,563 L 1399,561 L 1400,560 L 1400,559 L 1401,558 L 1401,555 L 1402,554 L 1402,551 L 1403,550 L 1403,533 L 1402,532 L 1402,528 L 1401,527 L 1401,526 Z M 1286,525 L 1287,526 L 1287,527 L 1286,528 L 1286,532 L 1285,533 L 1285,548 L 1286,549 L 1286,554 L 1287,555 L 1287,558 L 1288,559 L 1288,560 L 1289,561 L 1289,563 L 1290,564 L 1290,565 L 1291,566 L 1291,567 L 1292,568 L 1292,569 L 1293,570 L 1293,571 L 1295,573 L 1295,574 L 1297,576 L 1297,577 L 1305,585 L 1305,588 L 1304,589 L 1304,590 L 1303,591 L 1303,593 L 1302,594 L 1302,595 L 1299,598 L 1298,598 L 1296,596 L 1298,594 L 1299,594 L 1298,593 L 1297,593 L 1296,594 L 1297,595 L 1296,596 L 1295,596 L 1293,594 L 1293,593 L 1292,592 L 1292,589 L 1291,588 L 1291,586 L 1290,585 L 1290,584 L 1289,583 L 1285,583 L 1284,584 L 1284,585 L 1282,587 L 1282,588 L 1281,589 L 1281,590 L 1280,591 L 1280,593 L 1278,595 L 1278,596 L 1276,598 L 1270,598 L 1269,597 L 1270,596 L 1274,596 L 1273,596 L 1272,595 L 1271,596 L 1270,596 L 1269,597 L 1268,596 L 1267,596 L 1266,595 L 1266,594 L 1264,592 L 1264,591 L 1263,590 L 1263,589 L 1262,588 L 1262,586 L 1261,585 L 1261,584 L 1260,583 L 1267,576 L 1267,575 L 1269,573 L 1269,572 L 1270,571 L 1270,570 L 1271,569 L 1271,568 L 1272,567 L 1272,566 L 1273,565 L 1273,564 L 1274,563 L 1274,562 L 1275,561 L 1275,559 L 1276,558 L 1276,557 L 1277,556 L 1277,554 L 1278,553 L 1278,546 L 1279,545 L 1279,538 L 1278,537 L 1278,531 L 1277,530 L 1277,527 L 1278,526 L 1285,526 Z M 900,525 L 901,526 L 909,526 L 909,525 L 910,524 L 911,525 L 911,527 L 910,528 L 910,532 L 909,533 L 909,549 L 910,550 L 910,554 L 911,555 L 911,558 L 912,559 L 912,561 L 913,562 L 913,563 L 914,564 L 914,565 L 915,566 L 915,567 L 916,568 L 916,569 L 917,570 L 917,571 L 918,572 L 918,573 L 921,576 L 921,577 L 930,586 L 930,588 L 929,589 L 929,590 L 928,591 L 928,592 L 927,593 L 927,595 L 926,596 L 925,595 L 925,593 L 923,593 L 923,594 L 922,595 L 923,594 L 924,595 L 925,595 L 926,596 L 924,598 L 923,597 L 921,597 L 919,595 L 919,594 L 917,592 L 917,590 L 916,589 L 916,587 L 915,586 L 915,585 L 913,583 L 910,583 L 908,585 L 908,586 L 907,587 L 907,589 L 906,590 L 906,591 L 905,592 L 905,594 L 903,596 L 903,597 L 902,598 L 897,598 L 896,597 L 897,596 L 900,596 L 897,596 L 896,597 L 894,597 L 892,595 L 892,594 L 890,592 L 890,591 L 889,590 L 889,589 L 888,588 L 888,587 L 887,586 L 887,585 L 886,585 L 885,584 L 884,584 L 883,583 L 886,580 L 886,579 L 890,575 L 890,574 L 892,572 L 892,571 L 893,570 L 893,569 L 895,567 L 895,565 L 896,564 L 896,563 L 897,562 L 897,560 L 898,559 L 898,557 L 899,556 L 899,553 L 900,552 L 900,546 L 901,545 L 901,538 L 900,537 L 900,530 L 899,529 L 899,526 Z M 784,524 L 785,525 L 785,527 L 784,528 L 784,531 L 783,532 L 783,537 L 782,538 L 781,537 L 781,534 L 781,535 L 780,536 L 779,535 L 779,534 L 779,537 L 780,538 L 780,543 L 779,544 L 778,544 L 778,546 L 779,547 L 779,549 L 779,546 L 780,545 L 781,546 L 781,549 L 781,545 L 780,544 L 780,539 L 781,538 L 782,539 L 782,543 L 783,544 L 783,551 L 784,552 L 784,555 L 785,556 L 785,558 L 786,559 L 786,561 L 787,562 L 787,564 L 788,565 L 788,566 L 789,567 L 789,568 L 790,569 L 790,570 L 792,572 L 792,573 L 795,576 L 795,577 L 803,585 L 803,588 L 802,589 L 802,590 L 801,591 L 801,592 L 799,595 L 798,594 L 798,593 L 796,593 L 795,594 L 794,594 L 794,595 L 793,596 L 791,594 L 791,593 L 789,590 L 789,588 L 788,587 L 788,586 L 787,585 L 787,584 L 786,583 L 781,583 L 781,584 L 780,585 L 780,586 L 779,587 L 779,588 L 778,589 L 777,588 L 778,589 L 778,591 L 777,592 L 777,593 L 776,594 L 776,595 L 775,596 L 775,597 L 774,598 L 771,598 L 768,596 L 769,595 L 771,595 L 771,594 L 768,594 L 767,595 L 765,593 L 765,592 L 761,588 L 761,587 L 758,584 L 757,584 L 756,583 L 758,581 L 758,580 L 762,576 L 762,575 L 765,572 L 765,571 L 766,570 L 766,569 L 768,567 L 768,566 L 769,565 L 769,563 L 770,562 L 770,560 L 771,559 L 771,557 L 772,556 L 772,554 L 773,553 L 773,549 L 774,548 L 774,536 L 773,535 L 773,529 L 772,528 L 772,526 L 773,525 L 774,526 L 783,526 L 783,525 Z M 1036,523 L 1037,524 L 1037,527 L 1036,528 L 1036,531 L 1035,532 L 1035,550 L 1036,551 L 1036,555 L 1037,556 L 1037,558 L 1038,559 L 1038,561 L 1039,562 L 1039,564 L 1040,565 L 1040,566 L 1041,567 L 1041,568 L 1043,570 L 1043,571 L 1044,572 L 1044,573 L 1046,575 L 1046,576 L 1056,586 L 1055,587 L 1055,588 L 1054,589 L 1054,591 L 1053,592 L 1053,593 L 1052,594 L 1052,595 L 1049,598 L 1048,597 L 1047,597 L 1046,596 L 1045,596 L 1044,595 L 1045,594 L 1047,594 L 1046,594 L 1045,593 L 1045,594 L 1044,595 L 1043,594 L 1043,592 L 1044,591 L 1044,590 L 1044,591 L 1043,592 L 1042,591 L 1042,589 L 1041,588 L 1041,587 L 1040,586 L 1040,585 L 1039,584 L 1039,583 L 1035,583 L 1033,585 L 1033,586 L 1032,587 L 1032,588 L 1031,589 L 1031,591 L 1030,592 L 1030,593 L 1027,596 L 1027,597 L 1026,598 L 1022,598 L 1021,597 L 1020,597 L 1019,596 L 1020,595 L 1021,595 L 1020,595 L 1018,593 L 1017,594 L 1016,593 L 1016,592 L 1015,591 L 1015,590 L 1014,589 L 1014,588 L 1013,587 L 1013,585 L 1012,584 L 1010,584 L 1009,583 L 1012,580 L 1012,579 L 1016,575 L 1016,574 L 1018,572 L 1018,571 L 1020,569 L 1020,568 L 1021,567 L 1021,566 L 1022,565 L 1022,563 L 1023,562 L 1023,561 L 1024,560 L 1024,558 L 1025,557 L 1025,554 L 1026,553 L 1026,549 L 1027,548 L 1027,534 L 1026,533 L 1026,529 L 1027,528 L 1028,529 L 1028,531 L 1028,529 L 1029,528 L 1030,529 L 1031,528 L 1027,528 L 1026,529 L 1025,528 L 1025,527 L 1026,526 L 1035,526 L 1035,524 Z M 1272,512 L 1274,514 L 1274,515 L 1275,516 L 1275,517 L 1276,518 L 1276,520 L 1277,521 L 1277,523 L 1276,524 L 1275,523 L 1275,522 L 1274,521 L 1274,519 L 1273,518 L 1273,517 L 1272,516 L 1272,515 L 1271,514 L 1271,513 Z M 893,510 L 895,512 L 895,513 L 897,515 L 897,516 L 898,517 L 898,519 L 899,520 L 899,522 L 898,523 L 897,522 L 897,521 L 896,520 L 896,519 L 895,518 L 895,517 L 894,516 L 894,515 L 893,514 L 893,513 L 892,512 L 892,511 Z M 561,507 L 562,508 L 563,508 L 564,509 L 557,516 L 557,517 L 554,520 L 554,521 L 553,522 L 553,523 L 552,524 L 552,525 L 551,526 L 551,528 L 550,529 L 550,531 L 549,532 L 549,536 L 548,537 L 548,545 L 549,546 L 549,549 L 550,550 L 550,553 L 551,554 L 551,555 L 552,556 L 552,558 L 553,559 L 553,560 L 555,562 L 555,563 L 557,565 L 557,566 L 564,573 L 565,573 L 566,574 L 567,574 L 569,576 L 570,576 L 571,577 L 572,577 L 573,578 L 572,579 L 570,579 L 569,580 L 568,580 L 567,579 L 566,579 L 565,578 L 564,578 L 560,574 L 559,574 L 553,568 L 553,567 L 551,565 L 551,564 L 549,562 L 549,561 L 548,560 L 548,559 L 547,558 L 547,556 L 546,555 L 546,553 L 545,552 L 545,547 L 544,546 L 544,535 L 545,534 L 545,531 L 546,530 L 546,527 L 547,526 L 547,525 L 548,524 L 548,522 L 549,521 L 549,520 L 551,518 L 551,517 L 554,514 L 554,513 L 559,508 L 560,508 Z M 1365,505 L 1366,505 L 1367,506 L 1368,506 L 1370,508 L 1371,508 L 1372,507 L 1374,509 L 1373,510 L 1374,509 L 1380,515 L 1380,516 L 1382,518 L 1382,519 L 1384,521 L 1384,522 L 1385,523 L 1385,525 L 1386,526 L 1386,528 L 1385,529 L 1384,528 L 1384,527 L 1384,528 L 1383,529 L 1382,528 L 1382,527 L 1381,526 L 1381,524 L 1379,522 L 1379,521 L 1377,519 L 1377,518 L 1375,516 L 1375,515 L 1372,512 L 1371,512 L 1367,508 L 1366,508 L 1364,506 Z M 1320,504 L 1321,504 L 1324,506 L 1322,508 L 1321,508 L 1318,511 L 1317,511 L 1315,513 L 1315,514 L 1311,518 L 1311,519 L 1309,521 L 1309,522 L 1308,523 L 1308,524 L 1306,527 L 1306,529 L 1305,530 L 1305,533 L 1304,534 L 1304,547 L 1305,548 L 1305,551 L 1306,552 L 1306,554 L 1307,555 L 1307,557 L 1308,558 L 1308,559 L 1309,560 L 1309,561 L 1311,563 L 1311,564 L 1320,573 L 1321,573 L 1323,575 L 1324,575 L 1326,577 L 1327,577 L 1328,578 L 1327,579 L 1326,579 L 1327,579 L 1328,578 L 1330,578 L 1331,579 L 1333,579 L 1334,580 L 1338,580 L 1339,581 L 1350,581 L 1351,580 L 1355,580 L 1356,579 L 1358,579 L 1359,578 L 1360,578 L 1361,579 L 1363,579 L 1364,580 L 1363,581 L 1361,581 L 1358,583 L 1355,583 L 1354,584 L 1350,584 L 1349,585 L 1339,585 L 1338,584 L 1334,584 L 1333,583 L 1330,583 L 1327,581 L 1325,581 L 1324,580 L 1323,580 L 1321,578 L 1322,577 L 1323,577 L 1324,578 L 1323,577 L 1322,577 L 1321,578 L 1320,578 L 1319,577 L 1318,577 L 1309,568 L 1309,567 L 1306,564 L 1306,563 L 1305,562 L 1305,561 L 1303,558 L 1303,556 L 1302,555 L 1302,553 L 1301,552 L 1301,549 L 1300,548 L 1300,534 L 1301,533 L 1301,529 L 1302,528 L 1302,526 L 1303,525 L 1303,524 L 1304,523 L 1304,522 L 1305,521 L 1305,520 L 1306,519 L 1306,518 L 1308,516 L 1308,515 L 1317,506 L 1318,506 Z M 691,504 L 692,504 L 695,506 L 693,508 L 692,508 L 687,513 L 686,513 L 685,514 L 685,515 L 681,519 L 681,520 L 680,521 L 680,522 L 679,523 L 679,524 L 678,525 L 678,526 L 676,529 L 676,532 L 675,533 L 675,537 L 674,538 L 674,543 L 675,544 L 675,550 L 676,551 L 676,553 L 677,554 L 677,556 L 678,557 L 678,558 L 679,559 L 679,560 L 681,562 L 681,563 L 684,566 L 684,567 L 688,571 L 689,571 L 692,574 L 693,574 L 694,575 L 695,575 L 697,577 L 698,577 L 699,578 L 701,578 L 702,579 L 704,579 L 705,580 L 709,580 L 710,581 L 720,581 L 721,580 L 725,580 L 726,579 L 728,579 L 729,580 L 728,581 L 727,581 L 728,581 L 729,582 L 728,583 L 725,583 L 724,584 L 721,584 L 720,585 L 710,585 L 709,584 L 704,584 L 703,583 L 701,583 L 700,582 L 698,582 L 697,581 L 696,581 L 693,579 L 694,578 L 695,578 L 694,577 L 692,577 L 691,578 L 688,576 L 689,575 L 690,575 L 689,575 L 688,576 L 686,574 L 685,574 L 681,570 L 681,569 L 678,566 L 678,565 L 676,563 L 676,562 L 675,561 L 675,560 L 673,557 L 673,555 L 672,554 L 672,551 L 671,550 L 671,546 L 670,545 L 670,538 L 671,537 L 671,532 L 672,531 L 672,528 L 674,525 L 674,523 L 675,522 L 675,521 L 677,519 L 677,518 L 679,516 L 679,515 L 688,506 L 689,506 Z M 612,504 L 613,505 L 614,505 L 617,508 L 618,508 L 622,512 L 622,513 L 626,517 L 626,518 L 627,519 L 627,520 L 628,521 L 628,522 L 629,523 L 629,524 L 628,525 L 628,526 L 628,525 L 629,524 L 630,525 L 630,526 L 631,527 L 631,529 L 632,530 L 632,534 L 633,535 L 633,547 L 632,548 L 632,551 L 631,552 L 631,555 L 630,556 L 630,557 L 629,558 L 629,559 L 628,560 L 628,561 L 627,562 L 627,563 L 625,565 L 625,566 L 622,569 L 622,570 L 620,572 L 619,572 L 616,575 L 615,574 L 614,575 L 613,575 L 614,575 L 615,576 L 614,577 L 613,577 L 612,578 L 611,578 L 610,577 L 611,578 L 610,579 L 609,579 L 608,578 L 609,579 L 608,580 L 607,580 L 606,579 L 605,579 L 604,578 L 605,577 L 606,577 L 607,576 L 608,576 L 609,575 L 610,575 L 613,572 L 614,572 L 621,565 L 621,564 L 623,562 L 623,561 L 624,560 L 624,559 L 625,558 L 625,557 L 626,556 L 626,555 L 627,554 L 627,552 L 628,551 L 628,547 L 629,546 L 629,536 L 628,535 L 628,531 L 627,530 L 627,528 L 626,527 L 626,525 L 624,523 L 624,522 L 623,521 L 623,520 L 620,517 L 620,516 L 614,510 L 613,510 L 611,508 L 610,508 L 608,506 L 609,505 L 611,505 Z M 541,504 L 542,505 L 542,506 L 540,508 L 540,509 L 538,511 L 538,512 L 536,514 L 535,513 L 535,512 L 536,511 L 536,510 L 538,508 L 538,507 Z M 1241,503 L 1242,503 L 1244,505 L 1245,505 L 1247,507 L 1248,507 L 1253,512 L 1253,513 L 1256,516 L 1256,517 L 1258,519 L 1258,520 L 1259,521 L 1259,522 L 1260,523 L 1260,524 L 1261,525 L 1261,526 L 1262,527 L 1262,530 L 1263,531 L 1263,535 L 1264,536 L 1264,545 L 1263,546 L 1263,551 L 1262,552 L 1262,555 L 1261,556 L 1261,557 L 1260,558 L 1260,560 L 1258,562 L 1258,563 L 1256,565 L 1256,566 L 1254,568 L 1254,569 L 1248,575 L 1247,575 L 1246,574 L 1247,575 L 1245,577 L 1244,576 L 1242,576 L 1241,575 L 1243,573 L 1244,573 L 1251,566 L 1251,565 L 1254,562 L 1254,561 L 1255,560 L 1255,559 L 1256,558 L 1256,557 L 1257,556 L 1257,554 L 1258,553 L 1258,551 L 1259,550 L 1259,546 L 1260,545 L 1260,538 L 1259,537 L 1259,532 L 1258,531 L 1258,529 L 1257,528 L 1257,527 L 1256,526 L 1256,524 L 1255,523 L 1255,522 L 1253,520 L 1253,519 L 1251,517 L 1251,516 L 1245,510 L 1244,510 L 1241,507 L 1240,507 L 1239,506 L 1238,506 L 1237,505 L 1238,504 L 1240,504 Z M 1591,497 L 1597,497 L 1598,498 L 1607,499 L 1610,501 L 1614,502 L 1620,506 L 1632,519 L 1635,525 L 1635,527 L 1637,531 L 1637,536 L 1638,537 L 1637,551 L 1636,552 L 1635,557 L 1629,567 L 1620,576 L 1618,577 L 1616,576 L 1618,577 L 1611,581 L 1608,580 L 1610,581 L 1607,583 L 1604,583 L 1599,585 L 1588,585 L 1587,584 L 1583,584 L 1582,583 L 1580,583 L 1579,582 L 1580,581 L 1579,582 L 1577,582 L 1572,579 L 1574,578 L 1571,579 L 1567,576 L 1568,575 L 1567,576 L 1564,574 L 1559,569 L 1553,560 L 1553,558 L 1551,555 L 1550,548 L 1549,547 L 1549,535 L 1550,534 L 1550,530 L 1553,524 L 1553,522 L 1559,513 L 1562,510 L 1563,511 L 1562,510 L 1567,506 L 1571,508 L 1568,511 L 1567,511 L 1559,520 L 1556,526 L 1556,528 L 1554,532 L 1554,536 L 1553,537 L 1553,545 L 1554,546 L 1555,554 L 1562,566 L 1568,572 L 1574,576 L 1584,580 L 1589,580 L 1590,581 L 1597,581 L 1598,580 L 1603,580 L 1604,579 L 1609,578 L 1616,574 L 1624,567 L 1631,555 L 1631,553 L 1633,549 L 1633,544 L 1634,543 L 1634,538 L 1633,537 L 1632,530 L 1626,518 L 1617,509 L 1606,503 L 1603,503 L 1602,502 L 1597,502 L 1596,501 L 1585,502 L 1584,503 L 1576,505 L 1572,508 L 1567,506 L 1571,503 L 1573,504 L 1576,503 L 1574,502 L 1577,500 L 1583,499 L 1584,498 L 1590,498 Z M 1443,505 L 1455,499 L 1458,499 L 1459,498 L 1465,498 L 1466,497 L 1473,497 L 1474,498 L 1479,498 L 1480,499 L 1483,499 L 1486,501 L 1484,502 L 1488,504 L 1490,504 L 1491,503 L 1494,505 L 1493,507 L 1496,506 L 1498,508 L 1497,509 L 1498,510 L 1499,509 L 1505,515 L 1505,516 L 1507,518 L 1509,522 L 1508,525 L 1509,523 L 1512,529 L 1512,533 L 1513,534 L 1513,549 L 1512,550 L 1512,553 L 1511,554 L 1511,556 L 1507,564 L 1503,569 L 1502,568 L 1501,569 L 1502,570 L 1496,576 L 1495,576 L 1493,578 L 1489,576 L 1499,568 L 1499,567 L 1503,563 L 1507,555 L 1507,553 L 1508,552 L 1508,549 L 1509,548 L 1509,534 L 1508,533 L 1508,530 L 1502,518 L 1493,509 L 1484,504 L 1482,504 L 1478,502 L 1473,502 L 1472,501 L 1465,501 L 1464,502 L 1460,502 L 1459,503 L 1456,503 L 1452,505 L 1449,504 L 1451,505 L 1449,507 L 1446,508 L 1443,511 L 1442,511 L 1434,521 L 1430,529 L 1430,531 L 1429,532 L 1429,549 L 1430,550 L 1430,553 L 1431,554 L 1432,558 L 1434,560 L 1436,564 L 1440,568 L 1440,569 L 1441,569 L 1448,575 L 1447,576 L 1443,577 L 1439,573 L 1438,573 L 1432,566 L 1427,557 L 1427,555 L 1425,551 L 1425,547 L 1424,546 L 1424,537 L 1425,536 L 1425,532 L 1426,531 L 1426,528 L 1427,527 L 1427,525 L 1430,519 L 1432,517 L 1432,516 Z M 1321,504 L 1323,502 L 1324,502 L 1325,501 L 1327,501 L 1328,500 L 1329,500 L 1330,499 L 1333,499 L 1334,498 L 1340,498 L 1341,497 L 1348,497 L 1349,498 L 1354,498 L 1355,499 L 1358,499 L 1359,500 L 1361,500 L 1362,501 L 1363,501 L 1364,502 L 1365,502 L 1367,504 L 1366,505 L 1365,505 L 1364,506 L 1362,506 L 1361,505 L 1360,505 L 1359,504 L 1357,504 L 1356,503 L 1354,503 L 1353,502 L 1350,502 L 1349,501 L 1340,501 L 1339,502 L 1335,502 L 1334,503 L 1332,503 L 1331,504 L 1329,504 L 1328,505 L 1327,505 L 1326,506 L 1324,506 L 1323,505 L 1322,505 Z M 1239,502 L 1238,503 L 1237,503 L 1238,504 L 1237,505 L 1236,505 L 1235,504 L 1233,504 L 1232,503 L 1230,503 L 1229,502 L 1224,502 L 1223,501 L 1216,501 L 1215,502 L 1210,502 L 1209,503 L 1207,503 L 1206,504 L 1205,504 L 1204,505 L 1202,505 L 1201,506 L 1200,506 L 1198,508 L 1197,508 L 1194,511 L 1193,511 L 1188,516 L 1188,517 L 1186,519 L 1186,520 L 1184,522 L 1184,523 L 1183,524 L 1183,525 L 1182,526 L 1182,528 L 1181,529 L 1181,531 L 1180,532 L 1180,537 L 1179,538 L 1179,543 L 1180,544 L 1180,550 L 1181,551 L 1181,553 L 1182,554 L 1182,556 L 1181,557 L 1180,556 L 1180,555 L 1180,556 L 1179,557 L 1178,556 L 1178,555 L 1177,554 L 1177,552 L 1176,551 L 1176,546 L 1175,545 L 1175,536 L 1176,535 L 1176,531 L 1177,530 L 1177,527 L 1178,526 L 1178,525 L 1179,524 L 1179,523 L 1180,522 L 1180,521 L 1181,520 L 1181,519 L 1182,518 L 1182,517 L 1186,513 L 1186,512 L 1189,509 L 1190,509 L 1193,506 L 1194,507 L 1195,507 L 1196,506 L 1195,505 L 1197,503 L 1198,503 L 1199,504 L 1200,504 L 1199,504 L 1198,503 L 1199,502 L 1200,502 L 1201,501 L 1202,501 L 1203,500 L 1205,500 L 1206,499 L 1209,499 L 1210,498 L 1216,498 L 1217,497 L 1223,497 L 1224,498 L 1230,498 L 1231,499 L 1233,499 L 1234,500 L 1236,500 L 1237,501 L 1238,501 Z M 1073,502 L 1075,502 L 1081,499 L 1084,499 L 1085,498 L 1091,498 L 1092,497 L 1105,498 L 1106,499 L 1111,500 L 1121,506 L 1120,507 L 1121,508 L 1122,507 L 1132,517 L 1132,518 L 1134,520 L 1136,524 L 1137,529 L 1138,530 L 1138,533 L 1139,534 L 1139,548 L 1138,549 L 1138,553 L 1136,556 L 1135,554 L 1136,558 L 1132,565 L 1129,568 L 1129,569 L 1127,571 L 1126,570 L 1124,572 L 1125,573 L 1123,575 L 1121,576 L 1120,575 L 1121,576 L 1119,578 L 1116,579 L 1115,578 L 1116,577 L 1115,578 L 1113,577 L 1115,575 L 1118,574 L 1122,570 L 1123,570 L 1130,561 L 1134,552 L 1134,547 L 1135,546 L 1135,536 L 1134,535 L 1134,531 L 1133,530 L 1133,528 L 1126,516 L 1116,507 L 1110,504 L 1105,503 L 1104,502 L 1100,502 L 1099,501 L 1090,501 L 1089,502 L 1085,502 L 1084,503 L 1079,504 L 1073,507 L 1071,509 L 1070,509 L 1062,517 L 1056,528 L 1055,534 L 1054,535 L 1054,547 L 1055,548 L 1055,552 L 1056,553 L 1056,555 L 1059,561 L 1065,568 L 1065,569 L 1078,578 L 1074,580 L 1067,576 L 1065,574 L 1066,573 L 1065,574 L 1058,567 L 1058,566 L 1054,561 L 1054,559 L 1052,556 L 1052,554 L 1050,550 L 1050,533 L 1051,532 L 1051,529 L 1058,515 L 1065,508 L 1066,509 L 1065,508 L 1066,507 L 1068,508 L 1067,507 L 1070,504 L 1073,505 L 1071,504 Z M 947,502 L 951,501 L 952,500 L 954,500 L 955,499 L 957,499 L 958,498 L 964,498 L 965,497 L 971,497 L 972,498 L 978,498 L 979,499 L 982,499 L 985,501 L 983,502 L 987,504 L 989,504 L 990,503 L 993,505 L 991,506 L 992,507 L 994,506 L 996,507 L 1006,518 L 1009,524 L 1010,529 L 1011,530 L 1011,534 L 1012,535 L 1012,548 L 1011,549 L 1011,552 L 1010,553 L 1010,555 L 1009,556 L 1009,558 L 1007,562 L 1002,568 L 1002,569 L 996,575 L 994,576 L 993,575 L 994,576 L 991,578 L 987,576 L 992,572 L 993,572 L 1000,565 L 1000,564 L 1005,557 L 1005,555 L 1007,551 L 1007,548 L 1008,547 L 1008,536 L 1007,535 L 1007,531 L 1006,530 L 1005,525 L 1002,521 L 1001,518 L 992,509 L 981,503 L 978,503 L 977,502 L 973,502 L 972,501 L 964,501 L 963,502 L 959,502 L 958,503 L 955,503 L 947,507 L 945,509 L 944,509 L 935,518 L 935,519 L 933,521 L 931,525 L 929,533 L 928,534 L 928,547 L 929,548 L 929,552 L 935,564 L 944,573 L 945,573 L 947,575 L 946,576 L 942,577 L 931,566 L 925,554 L 925,550 L 924,549 L 924,545 L 923,544 L 923,540 L 924,539 L 924,532 L 925,531 L 925,528 L 927,525 L 927,523 L 932,516 L 932,515 L 941,506 L 943,505 L 944,507 L 945,506 L 943,505 Z M 815,506 L 817,507 L 816,506 L 818,504 L 820,505 L 819,504 L 823,501 L 827,502 L 825,501 L 828,499 L 831,499 L 832,498 L 839,498 L 840,497 L 845,497 L 846,498 L 852,498 L 853,499 L 855,499 L 856,500 L 854,501 L 858,500 L 859,501 L 863,502 L 865,504 L 864,505 L 865,506 L 864,505 L 865,504 L 869,506 L 878,515 L 884,526 L 884,529 L 885,530 L 885,533 L 886,534 L 886,548 L 885,549 L 885,552 L 884,553 L 883,558 L 880,564 L 870,575 L 869,575 L 867,577 L 863,575 L 865,574 L 875,564 L 875,563 L 877,561 L 879,557 L 879,555 L 881,551 L 881,547 L 882,546 L 882,535 L 881,534 L 881,531 L 875,518 L 865,508 L 857,504 L 855,504 L 851,502 L 847,502 L 846,501 L 838,501 L 837,502 L 832,502 L 831,503 L 829,503 L 821,507 L 819,509 L 818,509 L 809,518 L 809,519 L 807,521 L 804,527 L 804,529 L 803,530 L 803,533 L 802,534 L 802,547 L 803,548 L 803,552 L 809,564 L 813,568 L 813,569 L 814,569 L 819,574 L 818,575 L 816,575 L 815,574 L 814,575 L 812,573 L 813,572 L 812,573 L 806,567 L 803,561 L 801,559 L 802,554 L 802,556 L 801,557 L 799,554 L 799,551 L 798,550 L 798,545 L 797,544 L 797,539 L 798,538 L 798,533 L 799,532 L 799,529 L 800,528 L 800,526 L 804,518 L 810,511 L 811,512 L 812,511 L 811,510 Z M 694,502 L 695,502 L 696,501 L 698,501 L 701,499 L 704,499 L 705,498 L 710,498 L 711,497 L 718,497 L 719,498 L 724,498 L 725,499 L 728,499 L 729,500 L 728,501 L 727,501 L 728,501 L 729,500 L 731,500 L 732,501 L 733,501 L 734,502 L 735,502 L 738,504 L 737,505 L 736,505 L 737,505 L 738,504 L 739,504 L 742,507 L 741,508 L 742,507 L 743,508 L 744,508 L 747,511 L 746,512 L 747,511 L 751,515 L 751,516 L 753,518 L 753,519 L 754,520 L 754,521 L 755,522 L 755,523 L 757,526 L 757,529 L 758,530 L 758,533 L 759,534 L 759,548 L 758,549 L 758,552 L 757,553 L 757,555 L 756,556 L 756,558 L 755,559 L 755,560 L 754,561 L 754,562 L 752,564 L 752,565 L 750,567 L 750,568 L 743,575 L 742,575 L 740,577 L 739,577 L 737,579 L 736,579 L 735,580 L 734,580 L 733,579 L 734,578 L 733,577 L 734,576 L 735,576 L 738,573 L 739,573 L 748,564 L 748,563 L 750,561 L 750,560 L 751,559 L 751,558 L 753,555 L 753,553 L 754,552 L 754,550 L 755,549 L 755,533 L 754,532 L 754,530 L 753,529 L 753,527 L 752,526 L 752,525 L 751,524 L 751,523 L 749,521 L 749,520 L 748,519 L 748,518 L 739,509 L 738,509 L 736,507 L 735,507 L 734,506 L 733,506 L 730,504 L 728,504 L 727,503 L 725,503 L 724,502 L 720,502 L 719,501 L 712,501 L 711,502 L 706,502 L 705,503 L 703,503 L 702,504 L 700,504 L 697,506 L 695,506 L 692,504 Z M 565,504 L 566,503 L 567,503 L 568,502 L 569,502 L 570,501 L 571,501 L 572,500 L 574,500 L 575,501 L 576,501 L 575,501 L 574,500 L 575,499 L 578,499 L 579,498 L 586,498 L 587,497 L 592,497 L 593,498 L 598,498 L 599,499 L 602,499 L 603,500 L 605,500 L 606,501 L 607,501 L 608,502 L 607,503 L 606,503 L 607,503 L 608,502 L 609,502 L 610,503 L 611,503 L 612,504 L 611,505 L 609,505 L 608,506 L 607,506 L 606,505 L 604,505 L 603,504 L 602,504 L 601,503 L 598,503 L 597,502 L 593,502 L 592,501 L 584,501 L 583,502 L 579,502 L 578,503 L 576,503 L 575,504 L 573,504 L 572,505 L 571,505 L 570,506 L 569,506 L 568,507 L 567,507 L 566,506 L 567,505 L 566,505 Z M 1506,496 L 1507,495 L 1508,495 L 1516,503 L 1516,504 L 1515,505 Z M 1005,496 L 1006,495 L 1007,495 L 1014,502 L 1014,503 L 1013,504 Z M 879,496 L 880,495 L 881,495 L 888,502 L 888,503 L 887,504 Z M 550,495 L 551,496 L 542,505 L 541,504 L 541,503 L 549,495 Z M 1556,494 L 1557,495 L 1547,505 L 1546,504 L 1546,503 L 1555,494 Z M 516,487 L 517,488 L 517,490 L 518,490 L 519,491 L 519,492 L 522,495 L 522,497 L 521,498 L 521,499 L 520,500 L 520,501 L 519,502 L 518,505 L 515,508 L 515,509 L 513,511 L 513,512 L 515,512 L 516,513 L 520,513 L 521,514 L 525,514 L 526,515 L 528,515 L 529,516 L 532,516 L 533,517 L 534,514 L 535,513 L 536,514 L 536,516 L 533,521 L 533,523 L 532,524 L 532,526 L 531,527 L 531,531 L 530,532 L 530,552 L 531,553 L 531,555 L 532,556 L 532,558 L 533,559 L 533,561 L 534,562 L 534,564 L 535,565 L 536,568 L 535,569 L 534,568 L 531,568 L 530,569 L 529,569 L 520,578 L 518,576 L 520,574 L 521,574 L 521,573 L 518,573 L 518,574 L 517,575 L 516,574 L 516,568 L 515,567 L 515,562 L 514,561 L 511,561 L 510,562 L 509,562 L 505,566 L 505,567 L 502,570 L 501,570 L 500,571 L 496,567 L 496,566 L 495,565 L 495,554 L 494,553 L 490,553 L 487,556 L 486,556 L 481,561 L 480,561 L 479,562 L 477,562 L 476,561 L 475,561 L 474,560 L 474,546 L 473,546 L 471,544 L 472,543 L 473,543 L 475,541 L 476,541 L 476,533 L 477,532 L 478,532 L 479,531 L 482,530 L 484,528 L 485,528 L 488,525 L 489,525 L 495,519 L 496,519 L 496,518 L 498,516 L 509,516 L 511,514 L 511,508 L 510,507 L 510,505 L 509,504 L 509,501 L 512,496 L 513,497 L 513,498 L 514,497 L 516,499 L 516,500 L 516,497 L 515,497 L 513,494 L 513,493 L 515,490 L 515,488 Z M 1486,485 L 1487,484 L 1489,484 L 1490,485 L 1492,485 L 1493,486 L 1494,486 L 1495,487 L 1496,487 L 1497,488 L 1498,488 L 1500,490 L 1499,491 L 1498,491 L 1497,490 L 1496,490 L 1495,489 L 1494,489 L 1493,488 L 1492,488 L 1491,487 L 1489,487 L 1488,486 L 1487,486 Z M 1772,481 L 1782,491 L 1783,491 L 1785,493 L 1785,494 L 1786,494 L 1800,508 L 1796,512 L 1795,512 L 1793,514 L 1792,514 L 1791,515 L 1790,515 L 1788,517 L 1787,517 L 1786,518 L 1785,518 L 1784,519 L 1783,519 L 1782,520 L 1781,520 L 1780,521 L 1778,521 L 1777,522 L 1775,522 L 1774,523 L 1771,523 L 1770,524 L 1767,524 L 1766,525 L 1763,525 L 1762,524 L 1762,522 L 1761,521 L 1761,486 L 1762,485 L 1763,485 L 1764,484 L 1766,484 L 1767,483 L 1768,483 L 1769,482 L 1770,482 L 1771,481 Z M 1741,481 L 1742,482 L 1743,482 L 1744,483 L 1745,483 L 1746,484 L 1748,484 L 1749,485 L 1750,485 L 1751,486 L 1751,524 L 1750,525 L 1746,525 L 1745,524 L 1740,524 L 1739,523 L 1737,523 L 1736,522 L 1734,522 L 1733,521 L 1731,521 L 1730,520 L 1729,520 L 1728,519 L 1727,519 L 1726,518 L 1725,518 L 1724,517 L 1723,517 L 1722,516 L 1721,516 L 1719,514 L 1718,514 L 1713,509 L 1724,498 L 1724,497 L 1732,489 L 1733,489 L 1736,486 L 1737,487 L 1738,486 L 1737,485 Z M 1585,482 L 1586,481 L 1601,481 L 1602,482 L 1601,483 L 1586,483 Z M 1461,482 L 1462,481 L 1476,481 L 1477,482 L 1476,483 L 1462,483 Z M 1336,482 L 1337,481 L 1352,481 L 1353,482 L 1352,483 L 1337,483 Z M 1212,482 L 1213,481 L 1227,481 L 1228,482 L 1227,483 L 1213,483 Z M 1086,482 L 1087,481 L 1102,481 L 1103,482 L 1102,483 L 1087,483 Z M 960,482 L 961,481 L 976,481 L 977,482 L 976,483 L 961,483 Z M 834,482 L 835,481 L 850,481 L 851,482 L 850,483 L 835,483 Z M 707,482 L 708,481 L 722,481 L 723,482 L 722,483 L 708,483 Z M 581,482 L 582,481 L 596,481 L 597,482 L 596,483 L 582,483 Z M 520,473 L 521,474 L 521,477 L 524,480 L 524,482 L 518,488 L 517,488 L 516,487 L 516,485 L 517,484 L 517,481 L 518,480 L 518,478 L 519,477 L 519,474 Z M 1674,472 L 1675,473 L 1675,477 L 1676,478 L 1676,481 L 1677,482 L 1677,484 L 1678,485 L 1679,490 L 1685,502 L 1687,504 L 1689,508 L 1692,511 L 1692,512 L 1700,520 L 1699,521 L 1700,520 L 1702,521 L 1706,525 L 1707,525 L 1715,531 L 1725,536 L 1727,536 L 1731,538 L 1730,539 L 1728,539 L 1726,541 L 1726,552 L 1724,555 L 1723,553 L 1722,553 L 1723,554 L 1722,556 L 1719,555 L 1715,551 L 1715,550 L 1709,546 L 1706,548 L 1706,559 L 1704,563 L 1702,562 L 1703,560 L 1702,561 L 1698,561 L 1697,562 L 1690,554 L 1687,554 L 1685,556 L 1685,567 L 1683,569 L 1681,565 L 1680,565 L 1677,569 L 1674,565 L 1674,564 L 1672,562 L 1669,561 L 1670,563 L 1670,569 L 1669,570 L 1668,569 L 1666,570 L 1668,570 L 1670,572 L 1668,574 L 1667,574 L 1661,568 L 1661,567 L 1659,565 L 1656,565 L 1654,568 L 1654,573 L 1653,574 L 1653,580 L 1651,582 L 1649,581 L 1646,578 L 1646,577 L 1643,573 L 1645,568 L 1647,566 L 1650,570 L 1651,569 L 1651,567 L 1650,566 L 1648,567 L 1647,566 L 1647,564 L 1649,561 L 1649,559 L 1650,558 L 1650,555 L 1651,554 L 1651,550 L 1652,549 L 1652,532 L 1651,531 L 1651,528 L 1650,527 L 1650,525 L 1649,524 L 1649,522 L 1648,521 L 1648,519 L 1647,517 L 1648,516 L 1650,517 L 1649,516 L 1650,515 L 1653,515 L 1654,514 L 1657,514 L 1658,513 L 1665,512 L 1666,511 L 1668,511 L 1669,510 L 1672,510 L 1673,509 L 1676,509 L 1680,507 L 1683,507 L 1684,508 L 1683,507 L 1685,506 L 1685,505 L 1683,503 L 1677,491 L 1677,489 L 1676,488 L 1676,486 L 1674,482 L 1674,479 L 1673,478 L 1673,473 Z M 526,466 L 527,467 L 522,472 L 522,473 L 521,474 L 520,473 L 520,468 L 522,466 Z M 1691,465 L 1692,464 L 1729,464 L 1730,465 L 1730,467 L 1731,468 L 1731,470 L 1732,471 L 1732,473 L 1733,474 L 1728,479 L 1728,480 L 1725,483 L 1724,483 L 1723,484 L 1723,485 L 1711,497 L 1710,497 L 1706,501 L 1705,501 L 1704,500 L 1704,499 L 1701,496 L 1701,495 L 1700,494 L 1700,493 L 1698,491 L 1698,490 L 1697,489 L 1697,488 L 1696,487 L 1696,485 L 1695,484 L 1695,479 L 1693,477 L 1693,476 L 1692,475 L 1692,473 L 1691,472 Z M 1784,464 L 1798,464 L 1799,463 L 1815,463 L 1816,464 L 1821,464 L 1822,465 L 1822,468 L 1821,469 L 1821,473 L 1820,474 L 1820,476 L 1819,477 L 1819,479 L 1818,480 L 1818,482 L 1817,483 L 1817,484 L 1816,485 L 1816,487 L 1815,488 L 1815,489 L 1814,490 L 1814,491 L 1812,493 L 1812,494 L 1811,495 L 1811,496 L 1808,499 L 1808,500 L 1807,501 L 1790,484 L 1789,484 L 1786,481 L 1786,480 L 1779,473 L 1781,471 L 1781,470 L 1782,469 L 1782,467 L 1783,466 L 1784,467 L 1784,468 L 1784,467 L 1785,466 L 1784,466 L 1783,465 Z M 1839,454 L 1840,455 L 1840,456 L 1843,459 L 1843,461 L 1844,462 L 1844,465 L 1843,466 L 1842,465 L 1842,464 L 1842,465 L 1843,466 L 1842,467 L 1840,467 L 1839,468 L 1838,467 L 1838,455 Z M 432,443 L 441,443 L 442,444 L 443,444 L 444,445 L 445,445 L 446,446 L 445,447 L 446,448 L 447,447 L 450,450 L 450,451 L 451,452 L 451,453 L 452,454 L 452,462 L 451,463 L 451,465 L 450,466 L 450,467 L 446,471 L 445,471 L 444,472 L 443,472 L 442,473 L 441,473 L 440,474 L 432,474 L 431,473 L 429,473 L 428,472 L 427,472 L 422,467 L 422,466 L 421,465 L 421,464 L 420,463 L 420,454 L 421,453 L 421,452 L 422,451 L 422,450 L 426,446 L 427,446 L 429,444 L 431,444 Z M 1675,438 L 1676,439 L 1676,443 L 1675,444 L 1675,448 L 1674,449 L 1673,448 L 1673,443 L 1674,442 L 1674,439 Z M 519,434 L 520,434 L 521,435 L 522,435 L 523,436 L 525,436 L 526,437 L 525,438 L 523,438 L 523,441 L 522,442 L 524,444 L 524,446 L 525,446 L 524,445 L 524,444 L 525,443 L 525,440 L 526,439 L 525,438 L 526,437 L 527,437 L 529,439 L 529,441 L 530,442 L 530,446 L 529,447 L 527,447 L 526,448 L 525,448 L 524,449 L 524,452 L 525,453 L 526,453 L 527,454 L 528,454 L 529,455 L 528,456 L 526,456 L 525,455 L 524,455 L 523,454 L 522,454 L 521,453 L 521,449 L 520,448 L 520,443 L 519,442 L 519,438 L 518,437 L 518,435 Z M 446,426 L 447,425 L 449,425 L 450,426 L 452,426 L 453,427 L 454,427 L 456,429 L 457,429 L 459,431 L 460,431 L 464,435 L 464,436 L 463,437 L 461,435 L 460,435 L 457,432 L 456,432 L 454,430 L 453,430 L 452,429 L 451,429 L 450,428 L 449,428 L 448,427 L 447,427 Z M 429,423 L 443,423 L 444,424 L 446,424 L 447,425 L 446,426 L 443,426 L 442,425 L 431,425 L 430,426 L 427,426 L 426,427 L 424,427 L 423,428 L 416,431 L 408,439 L 408,440 L 405,444 L 405,446 L 404,447 L 404,448 L 403,449 L 403,451 L 402,452 L 402,466 L 403,467 L 404,472 L 405,473 L 406,476 L 408,478 L 408,479 L 414,485 L 415,485 L 417,487 L 418,487 L 423,490 L 425,490 L 426,491 L 429,491 L 430,492 L 441,492 L 442,491 L 445,491 L 446,490 L 448,490 L 449,489 L 454,487 L 456,485 L 457,485 L 461,481 L 462,481 L 462,480 L 465,477 L 465,476 L 469,469 L 469,467 L 470,466 L 470,452 L 469,451 L 469,448 L 467,445 L 467,443 L 468,442 L 469,443 L 469,444 L 471,447 L 471,449 L 472,450 L 472,457 L 473,458 L 473,461 L 472,462 L 472,467 L 471,468 L 470,473 L 467,477 L 467,478 L 464,481 L 464,482 L 460,486 L 459,486 L 454,490 L 453,490 L 452,491 L 450,491 L 447,493 L 443,493 L 442,494 L 429,494 L 428,493 L 425,493 L 424,492 L 419,491 L 415,488 L 414,488 L 405,479 L 405,478 L 401,471 L 401,468 L 400,467 L 400,463 L 399,462 L 399,457 L 400,456 L 400,451 L 401,450 L 402,445 L 403,444 L 405,439 L 415,429 L 416,429 L 420,426 L 422,426 L 423,425 L 425,425 L 426,424 L 428,424 Z M 1807,418 L 1808,419 L 1808,420 L 1811,423 L 1811,424 L 1812,425 L 1812,426 L 1814,428 L 1814,429 L 1815,430 L 1815,431 L 1816,432 L 1816,433 L 1817,434 L 1817,437 L 1818,438 L 1818,439 L 1819,440 L 1819,441 L 1820,442 L 1820,444 L 1821,445 L 1821,449 L 1822,450 L 1822,452 L 1821,453 L 1818,453 L 1817,454 L 1784,454 L 1783,453 L 1784,452 L 1787,452 L 1783,452 L 1782,451 L 1782,449 L 1781,448 L 1781,447 L 1779,445 L 1784,440 L 1784,439 L 1798,425 L 1799,425 L 1806,418 Z M 1706,418 L 1707,418 L 1723,434 L 1724,434 L 1726,436 L 1726,437 L 1734,445 L 1732,447 L 1732,448 L 1731,449 L 1731,450 L 1730,451 L 1730,453 L 1729,454 L 1693,454 L 1691,452 L 1691,448 L 1692,447 L 1692,444 L 1693,443 L 1693,441 L 1694,440 L 1694,438 L 1695,437 L 1695,436 L 1696,435 L 1696,433 L 1697,432 L 1697,431 L 1698,430 L 1698,429 L 1700,427 L 1700,426 L 1702,424 L 1702,423 L 1703,422 L 1703,421 Z M 512,407 L 514,407 L 517,410 L 517,411 L 519,413 L 519,416 L 518,417 L 516,417 L 515,418 L 516,419 L 519,419 L 520,420 L 521,420 L 522,421 L 522,422 L 523,423 L 523,425 L 524,426 L 524,429 L 523,430 L 521,430 L 520,429 L 521,428 L 522,428 L 521,427 L 521,426 L 520,426 L 519,427 L 519,429 L 520,429 L 521,430 L 519,432 L 519,433 L 518,434 L 517,433 L 517,432 L 516,431 L 516,430 L 515,429 L 515,427 L 514,426 L 514,425 L 513,424 L 513,423 L 512,422 L 512,421 L 511,420 L 511,419 L 510,418 L 510,417 L 509,416 L 509,415 L 508,414 L 508,413 L 506,411 L 507,410 L 508,410 L 509,409 L 510,409 Z M 356,402 L 357,403 L 357,406 L 359,408 L 359,409 L 358,410 L 358,411 L 357,412 L 357,413 L 353,417 L 352,417 L 351,418 L 350,418 L 349,419 L 349,421 L 350,422 L 350,423 L 351,424 L 350,425 L 350,426 L 347,429 L 345,429 L 344,430 L 343,430 L 342,429 L 343,428 L 343,427 L 344,426 L 345,427 L 344,426 L 344,425 L 345,424 L 345,423 L 346,422 L 346,420 L 347,419 L 347,418 L 348,417 L 348,416 L 350,414 L 350,413 L 351,412 L 351,411 L 352,410 L 352,409 L 354,407 L 354,406 L 355,405 L 355,403 Z M 1698,400 L 1699,401 L 1694,406 L 1694,407 L 1690,411 L 1689,410 L 1689,409 L 1691,407 L 1691,406 L 1697,400 Z M 666,399 L 667,400 L 667,412 L 666,413 L 665,412 L 665,400 Z M 733,398 L 734,399 L 734,403 L 735,404 L 735,408 L 734,409 L 733,408 L 733,405 L 732,404 L 732,399 Z M 1831,397 L 1832,398 L 1832,399 L 1834,401 L 1834,402 L 1835,403 L 1835,404 L 1836,405 L 1836,406 L 1837,407 L 1837,408 L 1839,410 L 1838,411 L 1835,411 L 1831,407 L 1831,406 L 1830,405 L 1830,403 L 1829,402 L 1829,401 L 1830,400 L 1830,398 Z M 1763,395 L 1766,395 L 1767,396 L 1772,396 L 1773,397 L 1775,397 L 1776,398 L 1777,398 L 1778,399 L 1781,399 L 1782,400 L 1783,400 L 1784,401 L 1785,401 L 1786,402 L 1787,402 L 1788,403 L 1789,403 L 1790,404 L 1791,404 L 1793,406 L 1794,406 L 1797,409 L 1798,409 L 1799,410 L 1799,411 L 1775,435 L 1774,435 L 1772,437 L 1771,436 L 1769,436 L 1768,435 L 1766,435 L 1765,434 L 1763,434 L 1762,433 L 1762,430 L 1761,429 L 1761,399 L 1762,398 L 1762,396 Z M 1750,395 L 1751,396 L 1751,433 L 1750,434 L 1748,434 L 1747,435 L 1745,435 L 1744,436 L 1743,436 L 1742,437 L 1741,437 L 1733,429 L 1732,429 L 1714,411 L 1714,410 L 1718,406 L 1719,406 L 1721,404 L 1722,404 L 1724,402 L 1725,402 L 1726,401 L 1727,401 L 1728,400 L 1730,400 L 1731,399 L 1733,399 L 1734,398 L 1736,398 L 1737,397 L 1740,397 L 1741,396 L 1745,396 L 1746,395 Z M 490,393 L 493,390 L 495,390 L 496,389 L 500,389 L 501,390 L 502,390 L 504,392 L 504,393 L 507,396 L 507,397 L 508,398 L 508,399 L 505,402 L 499,402 Z M 1440,389 L 1442,389 L 1443,388 L 1451,388 L 1452,389 L 1454,389 L 1455,390 L 1456,390 L 1458,392 L 1459,392 L 1463,396 L 1463,397 L 1464,398 L 1464,399 L 1465,400 L 1465,403 L 1466,404 L 1466,408 L 1465,409 L 1465,412 L 1464,413 L 1464,415 L 1462,417 L 1461,416 L 1462,417 L 1458,421 L 1457,421 L 1455,423 L 1453,423 L 1452,424 L 1442,424 L 1441,423 L 1440,423 L 1439,422 L 1437,422 L 1435,420 L 1436,419 L 1435,420 L 1430,415 L 1430,413 L 1429,412 L 1429,409 L 1428,408 L 1428,404 L 1429,403 L 1429,400 L 1430,399 L 1430,398 L 1431,397 L 1431,396 L 1435,392 L 1436,392 L 1438,390 L 1439,390 Z M 1197,388 L 1206,388 L 1207,389 L 1209,389 L 1210,390 L 1211,390 L 1212,391 L 1213,391 L 1217,395 L 1217,396 L 1219,398 L 1219,400 L 1220,401 L 1220,404 L 1221,405 L 1221,407 L 1220,408 L 1220,411 L 1219,412 L 1219,414 L 1218,415 L 1218,416 L 1213,421 L 1212,421 L 1211,422 L 1210,422 L 1209,423 L 1208,423 L 1207,424 L 1197,424 L 1196,423 L 1194,423 L 1192,421 L 1191,421 L 1189,419 L 1190,418 L 1189,417 L 1188,418 L 1187,417 L 1187,416 L 1185,414 L 1185,413 L 1184,412 L 1184,409 L 1185,408 L 1185,407 L 1185,408 L 1184,409 L 1183,408 L 1183,403 L 1184,402 L 1184,400 L 1185,399 L 1185,398 L 1186,397 L 1186,396 L 1191,391 L 1192,391 L 1194,389 L 1196,389 Z M 952,388 L 961,388 L 962,389 L 963,389 L 964,390 L 965,390 L 966,391 L 967,391 L 972,396 L 972,397 L 973,398 L 973,399 L 974,400 L 974,402 L 975,403 L 975,409 L 974,410 L 974,412 L 973,413 L 973,414 L 972,415 L 972,416 L 970,418 L 969,417 L 968,418 L 969,419 L 967,421 L 966,421 L 965,422 L 964,422 L 963,423 L 962,423 L 961,424 L 951,424 L 950,423 L 948,423 L 947,422 L 946,422 L 939,415 L 939,413 L 938,412 L 938,409 L 937,408 L 937,403 L 938,402 L 938,400 L 939,399 L 939,398 L 940,397 L 940,396 L 945,391 L 946,391 L 947,390 L 948,390 L 949,389 L 951,389 Z M 696,388 L 704,388 L 705,389 L 707,389 L 708,390 L 709,390 L 710,391 L 711,391 L 716,396 L 716,397 L 717,398 L 717,399 L 718,400 L 718,404 L 719,405 L 719,408 L 718,409 L 718,412 L 717,413 L 717,414 L 716,415 L 716,416 L 711,421 L 710,421 L 709,422 L 708,422 L 707,423 L 705,423 L 704,424 L 695,424 L 694,423 L 692,423 L 691,422 L 690,422 L 687,419 L 686,419 L 685,418 L 685,417 L 683,415 L 683,414 L 682,413 L 682,411 L 681,410 L 681,402 L 682,401 L 682,399 L 683,398 L 683,397 L 689,391 L 690,391 L 691,390 L 692,390 L 693,389 L 695,389 Z M 376,382 L 378,384 L 378,388 L 376,390 L 376,391 L 372,395 L 370,395 L 369,394 L 366,394 L 366,395 L 368,395 L 369,396 L 366,399 L 361,399 L 360,398 L 361,397 L 361,396 L 371,386 L 372,386 Z M 1814,382 L 1815,381 L 1820,386 L 1821,386 L 1828,393 L 1828,394 L 1827,395 L 1824,395 L 1823,394 L 1822,394 L 1821,393 L 1820,393 L 1818,391 L 1820,389 L 1821,389 L 1818,389 L 1817,390 L 1813,386 L 1814,385 Z M 469,381 L 470,380 L 471,380 L 471,379 L 472,378 L 473,379 L 473,381 L 474,381 L 475,382 L 479,382 L 480,383 L 480,385 L 479,386 L 478,385 L 477,385 L 476,384 L 474,384 L 473,383 L 472,383 L 471,382 L 470,382 Z M 1731,382 L 1730,383 L 1729,383 L 1728,384 L 1726,384 L 1725,385 L 1724,385 L 1723,384 L 1723,383 L 1722,384 L 1721,384 L 1722,384 L 1723,385 L 1722,386 L 1721,386 L 1720,387 L 1719,387 L 1718,388 L 1717,388 L 1716,389 L 1715,389 L 1713,391 L 1712,391 L 1711,392 L 1710,392 L 1709,391 L 1712,388 L 1713,388 L 1714,387 L 1715,387 L 1716,386 L 1716,385 L 1717,384 L 1717,383 L 1719,381 L 1719,380 L 1722,377 L 1725,377 L 1729,381 L 1730,381 Z M 1517,375 L 1518,376 L 1518,379 L 1515,382 L 1513,380 L 1513,379 L 1512,378 L 1514,376 L 1515,377 L 1516,377 L 1516,376 Z M 518,377 L 520,375 L 522,375 L 523,376 L 523,377 L 524,378 L 524,379 L 523,380 L 522,379 L 521,379 L 520,380 L 519,380 L 518,379 Z M 485,375 L 492,382 L 492,383 L 495,386 L 493,388 L 492,388 L 491,387 L 491,386 L 489,384 L 489,383 L 485,379 L 484,379 L 483,378 L 484,377 L 484,376 Z M 1216,376 L 1217,375 L 1219,375 L 1220,374 L 1221,374 L 1223,376 L 1223,377 L 1222,378 L 1222,379 L 1221,380 L 1220,379 L 1219,379 L 1218,378 L 1217,378 L 1216,377 Z M 722,375 L 722,376 L 721,377 L 721,380 L 720,381 L 719,381 L 716,378 L 715,378 L 714,377 L 715,376 L 716,376 L 717,375 L 720,375 L 721,374 Z M 544,380 L 543,381 L 538,381 L 536,383 L 532,383 L 531,382 L 533,380 L 533,379 L 534,378 L 534,377 L 536,375 L 537,375 L 538,374 L 539,374 L 540,375 L 541,375 L 542,376 L 542,378 Z M 463,375 L 464,374 L 470,374 L 472,376 L 472,378 L 471,379 L 470,378 L 470,377 L 470,378 L 469,379 L 468,379 L 467,380 L 465,380 L 463,378 L 464,377 L 463,376 Z M 831,374 L 832,373 L 838,373 L 840,375 L 840,376 L 841,377 L 841,378 L 840,379 L 837,376 L 835,376 L 834,375 L 832,375 Z M 1679,375 L 1680,374 L 1681,374 L 1681,373 L 1682,372 L 1684,372 L 1686,374 L 1686,375 L 1687,376 L 1686,377 L 1685,377 L 1684,376 L 1680,376 Z M 1624,372 L 1625,372 L 1627,374 L 1627,375 L 1628,376 L 1628,378 L 1629,379 L 1629,382 L 1628,383 L 1627,382 L 1627,381 L 1626,380 L 1626,379 L 1624,377 L 1622,377 L 1621,376 L 1621,375 Z M 1379,375 L 1380,374 L 1380,373 L 1381,372 L 1382,373 L 1383,372 L 1387,376 L 1387,377 L 1386,378 L 1384,376 L 1381,376 L 1380,377 L 1379,376 Z M 802,372 L 806,376 L 806,378 L 805,379 L 804,379 L 803,378 L 802,378 L 801,377 L 801,373 Z M 601,377 L 602,376 L 602,375 L 603,374 L 603,373 L 604,372 L 606,372 L 608,374 L 608,375 L 607,376 L 604,376 L 604,377 L 603,378 L 602,378 Z M 576,377 L 577,376 L 577,375 L 580,372 L 584,372 L 585,373 L 584,374 L 583,374 L 585,374 L 585,373 L 586,372 L 587,373 L 587,375 L 586,376 L 586,377 L 585,378 L 577,378 Z M 559,372 L 560,372 L 563,375 L 564,375 L 565,376 L 565,377 L 566,378 L 566,379 L 567,380 L 567,382 L 568,383 L 568,384 L 567,385 L 566,385 L 565,384 L 565,383 L 564,382 L 564,381 L 560,377 L 558,377 L 556,375 Z M 1655,371 L 1659,375 L 1660,375 L 1661,376 L 1661,377 L 1662,378 L 1662,379 L 1663,379 L 1664,380 L 1664,381 L 1663,382 L 1663,383 L 1662,384 L 1661,384 L 1659,382 L 1659,381 L 1657,379 L 1657,378 L 1656,377 L 1655,377 L 1654,376 L 1655,375 L 1656,375 L 1653,375 L 1652,374 Z M 1604,371 L 1605,371 L 1606,372 L 1606,373 L 1607,374 L 1607,375 L 1608,376 L 1608,378 L 1609,379 L 1609,380 L 1612,383 L 1611,384 L 1610,384 L 1607,381 L 1607,380 L 1605,378 L 1604,378 L 1603,377 L 1600,377 L 1599,376 L 1601,374 L 1602,375 L 1605,375 L 1602,375 L 1601,374 Z M 1149,371 L 1151,373 L 1151,374 L 1150,375 L 1149,375 L 1147,377 L 1146,377 L 1145,378 L 1144,377 L 1144,376 L 1146,374 L 1146,373 L 1148,371 Z M 877,374 L 880,371 L 882,371 L 883,372 L 885,372 L 886,371 L 887,371 L 888,372 L 888,373 L 890,375 L 889,376 L 888,376 L 886,378 L 885,377 L 884,377 L 883,376 L 879,376 Z M 788,372 L 789,371 L 790,372 L 793,372 L 794,371 L 796,371 L 797,372 L 797,373 L 796,374 L 789,374 L 788,373 Z M 774,371 L 776,373 L 776,374 L 777,375 L 777,376 L 776,377 L 774,377 L 773,378 L 772,378 L 771,377 L 772,376 L 772,374 L 773,373 L 773,372 Z M 741,371 L 742,371 L 743,372 L 743,376 L 744,377 L 744,378 L 743,379 L 742,378 L 741,378 L 740,377 L 739,377 L 738,376 L 737,376 L 736,375 L 739,372 L 740,372 Z M 676,375 L 677,374 L 677,373 L 679,371 L 683,375 L 686,375 L 687,376 L 685,378 L 684,378 L 683,379 L 682,379 L 681,380 L 680,379 L 680,378 L 678,376 L 677,376 Z M 665,375 L 664,376 L 657,376 L 656,377 L 655,377 L 654,376 L 656,374 L 656,373 L 657,372 L 658,373 L 658,374 L 662,374 L 662,372 L 663,371 L 664,372 L 664,374 Z M 645,376 L 644,377 L 638,377 L 636,379 L 635,378 L 635,377 L 636,376 L 636,375 L 637,374 L 638,375 L 639,375 L 638,375 L 637,374 L 640,371 L 641,372 L 642,372 L 643,373 L 643,374 Z M 622,371 L 623,371 L 625,373 L 625,374 L 624,375 L 621,375 L 623,375 L 624,376 L 624,375 L 625,374 L 626,375 L 626,376 L 627,377 L 627,378 L 626,379 L 625,378 L 623,378 L 622,377 L 619,377 L 618,376 L 619,375 L 619,374 Z M 1532,370 L 1533,370 L 1536,373 L 1536,374 L 1537,375 L 1537,376 L 1538,377 L 1538,379 L 1539,380 L 1539,383 L 1538,384 L 1537,383 L 1537,381 L 1536,380 L 1536,379 L 1535,378 L 1535,377 L 1534,377 L 1533,376 L 1532,376 L 1529,373 Z M 1482,374 L 1484,372 L 1484,371 L 1485,370 L 1487,372 L 1491,372 L 1491,371 L 1492,370 L 1493,371 L 1493,372 L 1494,373 L 1494,376 L 1495,377 L 1495,378 L 1493,380 L 1492,380 L 1491,381 L 1490,381 L 1489,382 L 1487,380 L 1487,379 L 1486,378 L 1486,377 L 1484,375 L 1483,375 Z M 1235,372 L 1237,370 L 1241,370 L 1242,371 L 1242,373 L 1244,375 L 1244,376 L 1243,377 L 1242,377 L 1240,375 L 1240,373 L 1236,373 Z M 1178,373 L 1179,372 L 1179,371 L 1180,370 L 1181,371 L 1181,372 L 1182,373 L 1183,373 L 1184,374 L 1187,374 L 1189,376 L 1188,377 L 1187,377 L 1186,378 L 1185,378 L 1182,381 L 1181,380 L 1181,379 L 1180,378 L 1180,377 L 1179,376 L 1179,375 L 1178,374 Z M 991,375 L 992,374 L 993,374 L 994,373 L 995,374 L 996,374 L 995,374 L 994,373 L 994,372 L 996,370 L 999,370 L 1000,371 L 1000,375 L 1001,376 L 1001,378 L 1000,379 L 997,376 L 992,376 Z M 932,375 L 934,373 L 934,371 L 935,370 L 940,370 L 941,371 L 941,374 L 942,375 L 943,375 L 944,376 L 943,377 L 941,377 L 940,378 L 939,378 L 937,380 L 936,379 L 936,378 L 934,376 L 933,376 Z M 920,374 L 919,375 L 915,375 L 915,376 L 914,377 L 913,376 L 910,376 L 911,376 L 913,378 L 910,381 L 907,378 L 907,377 L 908,376 L 907,377 L 904,374 L 904,373 L 905,372 L 906,373 L 907,373 L 908,374 L 913,374 L 914,373 L 915,373 L 915,372 L 916,371 L 917,371 L 918,370 L 919,371 L 919,372 L 918,373 L 917,373 L 919,373 Z M 859,372 L 859,373 L 860,374 L 859,375 L 855,375 L 854,376 L 854,378 L 853,379 L 850,379 L 849,378 L 853,374 L 853,372 L 855,370 L 856,371 L 858,371 Z M 1582,369 L 1583,370 L 1583,371 L 1584,372 L 1584,373 L 1585,374 L 1584,375 L 1578,375 L 1576,377 L 1575,377 L 1574,376 L 1574,375 L 1576,373 L 1576,372 L 1579,369 Z M 1507,374 L 1508,373 L 1508,371 L 1510,369 L 1511,369 L 1512,370 L 1516,370 L 1517,371 L 1517,375 L 1516,376 L 1515,375 L 1514,376 L 1513,376 L 1513,377 L 1512,378 L 1509,375 L 1508,375 Z M 1423,375 L 1424,374 L 1424,372 L 1425,371 L 1425,370 L 1426,369 L 1427,370 L 1427,371 L 1428,371 L 1431,374 L 1432,374 L 1433,375 L 1435,375 L 1436,376 L 1435,377 L 1433,377 L 1432,378 L 1431,378 L 1430,379 L 1429,379 L 1427,377 L 1427,376 L 1424,376 Z M 1368,369 L 1369,370 L 1369,371 L 1370,372 L 1370,373 L 1371,374 L 1370,375 L 1368,375 L 1367,376 L 1366,376 L 1363,379 L 1362,378 L 1362,377 L 1363,376 L 1363,375 L 1366,372 L 1366,370 L 1367,369 Z M 1127,371 L 1129,369 L 1131,369 L 1134,372 L 1134,373 L 1135,374 L 1135,375 L 1134,376 L 1133,375 L 1127,375 L 1126,374 L 1126,373 L 1127,372 Z M 1108,370 L 1109,369 L 1114,369 L 1115,370 L 1115,371 L 1116,372 L 1116,373 L 1117,374 L 1117,375 L 1116,376 L 1114,376 L 1113,375 L 1110,375 L 1109,374 L 1108,374 L 1107,373 L 1108,372 Z M 1086,369 L 1089,369 L 1090,370 L 1090,374 L 1091,375 L 1091,378 L 1090,379 L 1087,376 L 1085,376 L 1083,374 L 1085,372 L 1085,370 Z M 1054,371 L 1056,369 L 1058,369 L 1060,371 L 1060,372 L 1061,373 L 1060,374 L 1055,374 L 1054,373 Z M 1016,369 L 1017,370 L 1018,370 L 1022,374 L 1022,375 L 1023,376 L 1023,378 L 1022,379 L 1018,375 L 1017,375 L 1016,374 L 1015,374 L 1014,373 L 1014,372 L 1015,371 L 1015,370 Z M 1791,369 L 1792,368 L 1793,369 L 1795,369 L 1796,370 L 1797,370 L 1798,371 L 1799,371 L 1800,372 L 1801,372 L 1802,373 L 1803,373 L 1805,375 L 1806,375 L 1807,376 L 1808,376 L 1809,377 L 1810,377 L 1811,378 L 1810,379 L 1804,379 L 1803,378 L 1804,379 L 1803,380 L 1802,380 L 1801,379 L 1800,379 L 1799,378 L 1797,378 L 1796,377 L 1795,377 L 1792,374 L 1792,371 L 1791,370 Z M 1554,372 L 1556,370 L 1557,370 L 1559,368 L 1561,368 L 1562,369 L 1562,370 L 1563,371 L 1563,372 L 1564,373 L 1564,374 L 1563,375 L 1557,375 L 1556,374 L 1555,374 L 1554,373 Z M 1400,371 L 1401,370 L 1404,370 L 1405,369 L 1406,369 L 1407,370 L 1409,370 L 1408,370 L 1407,369 L 1408,368 L 1410,368 L 1412,370 L 1412,372 L 1413,373 L 1413,375 L 1414,376 L 1414,379 L 1413,380 L 1412,379 L 1412,378 L 1409,375 L 1408,375 L 1407,374 L 1404,374 L 1403,373 L 1403,372 L 1402,372 L 1401,373 L 1400,372 Z M 1325,373 L 1326,372 L 1326,371 L 1327,370 L 1327,369 L 1328,368 L 1331,371 L 1332,371 L 1333,372 L 1335,372 L 1336,371 L 1336,370 L 1337,369 L 1338,369 L 1339,370 L 1339,374 L 1340,375 L 1340,376 L 1339,377 L 1338,376 L 1336,376 L 1335,375 L 1335,374 L 1327,374 L 1326,375 L 1325,374 Z M 1295,375 L 1296,374 L 1296,373 L 1297,372 L 1297,371 L 1298,370 L 1298,369 L 1299,368 L 1302,371 L 1305,371 L 1307,369 L 1308,369 L 1309,368 L 1310,368 L 1312,370 L 1312,371 L 1313,372 L 1313,373 L 1312,374 L 1306,374 L 1305,375 L 1298,375 L 1297,376 L 1296,376 Z M 1280,368 L 1282,368 L 1284,370 L 1284,371 L 1285,372 L 1285,375 L 1286,376 L 1286,378 L 1285,379 L 1281,375 L 1279,375 L 1278,374 L 1278,372 L 1279,371 L 1279,369 Z M 1255,374 L 1256,373 L 1256,372 L 1257,371 L 1257,369 L 1258,368 L 1261,368 L 1264,371 L 1264,373 L 1262,375 L 1256,375 Z M 1040,368 L 1041,369 L 1041,370 L 1042,371 L 1042,373 L 1043,374 L 1042,375 L 1041,375 L 1040,374 L 1040,373 L 1039,373 L 1038,372 L 1037,373 L 1039,373 L 1040,374 L 1039,375 L 1038,375 L 1038,376 L 1039,377 L 1038,378 L 1037,378 L 1036,377 L 1035,377 L 1033,375 L 1034,374 L 1034,373 L 1039,368 Z M 401,369 L 400,370 L 400,371 L 399,372 L 398,371 L 399,372 L 399,375 L 397,377 L 396,377 L 395,378 L 394,378 L 393,379 L 392,379 L 391,380 L 390,380 L 388,382 L 387,382 L 384,379 L 382,379 L 381,378 L 382,377 L 383,377 L 384,376 L 385,376 L 387,374 L 388,374 L 390,372 L 391,372 L 392,371 L 393,371 L 394,370 L 395,370 L 396,369 L 398,369 L 399,368 L 400,368 Z M 405,366 L 406,365 L 409,365 L 410,364 L 414,364 L 415,363 L 420,363 L 421,364 L 423,364 L 425,366 L 425,368 L 424,369 L 419,369 L 418,370 L 414,370 L 413,371 L 412,371 L 408,367 L 406,367 Z M 1762,363 L 1763,362 L 1771,362 L 1772,363 L 1776,363 L 1777,364 L 1780,364 L 1781,365 L 1785,365 L 1786,366 L 1785,367 L 1784,367 L 1783,368 L 1782,368 L 1779,371 L 1778,370 L 1773,370 L 1772,369 L 1766,369 L 1765,368 L 1765,365 L 1764,364 L 1763,364 Z M 1638,363 L 1639,362 L 1655,362 L 1656,363 L 1653,366 L 1652,365 L 1648,365 L 1647,366 L 1642,366 L 1641,365 L 1640,365 Z M 1534,363 L 1535,362 L 1554,362 L 1555,363 L 1553,365 L 1544,365 L 1543,364 L 1542,364 L 1541,365 L 1538,365 L 1537,364 L 1535,364 Z M 1480,363 L 1481,362 L 1497,362 L 1498,363 L 1497,364 L 1495,364 L 1494,365 L 1490,365 L 1489,364 L 1481,364 Z M 1427,363 L 1428,362 L 1441,362 L 1442,363 L 1440,365 L 1429,365 Z M 1396,363 L 1397,362 L 1418,362 L 1419,363 L 1418,364 L 1397,364 Z M 1233,363 L 1234,362 L 1253,362 L 1254,363 L 1253,364 L 1245,364 L 1244,365 L 1235,365 Z M 1208,363 L 1209,362 L 1223,362 L 1224,363 L 1221,366 L 1211,366 Z M 1148,363 L 1149,362 L 1167,362 L 1168,363 L 1167,364 L 1149,364 Z M 1100,363 L 1101,362 L 1119,362 L 1120,363 L 1119,364 L 1101,364 Z M 1059,363 L 1060,362 L 1075,362 L 1076,363 L 1075,364 L 1060,364 Z M 1013,363 L 1014,362 L 1026,362 L 1027,363 L 1025,365 L 1015,365 Z M 963,363 L 964,362 L 977,362 L 978,363 L 975,366 L 967,366 L 965,364 L 964,364 Z M 931,363 L 932,362 L 947,362 L 948,363 L 946,365 L 934,365 L 933,364 L 932,364 Z M 877,363 L 878,362 L 896,362 L 897,363 L 896,364 L 887,364 L 886,365 L 881,365 L 880,364 L 878,364 Z M 853,363 L 854,362 L 868,362 L 869,363 L 868,364 L 867,364 L 866,365 L 857,365 L 856,364 L 855,365 Z M 829,363 L 830,362 L 844,362 L 845,363 L 844,364 L 843,364 L 843,365 L 842,366 L 836,366 L 835,365 L 836,364 L 838,364 L 834,364 L 833,365 L 831,365 Z M 731,363 L 732,362 L 748,362 L 749,363 L 748,364 L 747,364 L 747,365 L 746,366 L 733,366 L 732,365 L 732,364 Z M 675,363 L 676,362 L 693,362 L 694,363 L 693,364 L 692,364 L 690,366 L 683,366 L 682,365 L 683,364 L 682,364 L 681,365 L 677,365 Z M 651,363 L 652,362 L 666,362 L 667,363 L 666,364 L 665,364 L 664,365 L 663,365 L 662,366 L 656,366 L 655,365 L 654,365 L 653,364 L 652,364 Z M 621,363 L 622,362 L 641,362 L 642,363 L 641,364 L 622,364 Z M 512,363 L 513,362 L 527,362 L 528,363 L 527,364 L 513,364 Z M 486,364 L 486,363 L 487,362 L 504,362 L 505,363 L 504,364 L 503,364 L 503,365 L 501,367 L 490,367 L 489,366 L 488,367 L 487,366 L 487,365 Z M 436,363 L 437,362 L 451,362 L 452,363 L 450,365 L 450,367 L 449,368 L 439,368 L 438,367 L 438,366 L 437,365 L 437,364 Z M 1735,363 L 1736,362 L 1740,362 L 1741,361 L 1744,361 L 1745,362 L 1754,362 L 1755,363 L 1754,364 L 1753,364 L 1753,365 L 1752,366 L 1752,367 L 1751,368 L 1740,368 L 1738,366 L 1738,365 L 1737,364 L 1736,364 Z M 1702,363 L 1703,362 L 1707,362 L 1708,361 L 1711,361 L 1712,362 L 1726,362 L 1727,363 L 1726,364 L 1725,364 L 1725,365 L 1724,366 L 1725,367 L 1724,368 L 1710,368 L 1709,367 L 1707,367 L 1704,364 L 1703,364 Z M 1671,362 L 1672,361 L 1673,361 L 1674,362 L 1689,362 L 1690,361 L 1692,361 L 1693,362 L 1695,362 L 1696,363 L 1694,365 L 1694,366 L 1693,367 L 1692,366 L 1680,366 L 1679,365 L 1675,365 L 1674,364 L 1673,364 Z M 1610,363 L 1611,362 L 1612,362 L 1613,361 L 1628,361 L 1629,362 L 1630,361 L 1632,361 L 1633,362 L 1631,364 L 1630,364 L 1629,365 L 1613,365 L 1612,364 L 1611,364 Z M 1583,363 L 1584,362 L 1590,362 L 1591,361 L 1594,361 L 1595,362 L 1596,361 L 1598,361 L 1599,362 L 1598,363 L 1597,363 L 1595,365 L 1586,365 L 1585,364 L 1584,364 Z M 1505,362 L 1506,361 L 1507,361 L 1508,362 L 1524,362 L 1525,363 L 1523,365 L 1517,365 L 1516,364 L 1507,364 Z M 1453,363 L 1455,361 L 1462,361 L 1463,362 L 1470,362 L 1471,363 L 1470,364 L 1469,364 L 1467,366 L 1455,366 L 1454,365 L 1454,364 Z M 1390,362 L 1388,364 L 1310,364 L 1309,363 L 1310,362 L 1387,362 L 1388,361 L 1389,361 Z M 1276,362 L 1277,361 L 1291,361 L 1292,362 L 1291,363 L 1277,363 Z M 1180,363 L 1181,362 L 1187,362 L 1188,361 L 1190,361 L 1191,362 L 1194,362 L 1195,363 L 1194,364 L 1193,364 L 1192,365 L 1183,365 L 1182,364 L 1181,364 Z M 986,362 L 987,361 L 988,362 L 989,361 L 996,361 L 997,362 L 1002,362 L 1003,363 L 1001,365 L 994,365 L 993,364 L 992,364 L 991,365 L 989,365 L 988,364 L 987,364 L 986,363 Z M 904,363 L 905,362 L 908,362 L 909,361 L 922,361 L 923,362 L 922,363 L 921,363 L 919,365 L 907,365 L 906,364 L 905,364 Z M 822,362 L 820,364 L 819,364 L 817,366 L 816,366 L 815,365 L 811,365 L 810,364 L 807,364 L 806,363 L 807,362 L 819,362 L 820,361 L 821,361 Z M 758,362 L 759,361 L 760,362 L 763,362 L 764,361 L 773,361 L 774,362 L 796,362 L 797,363 L 795,365 L 787,365 L 786,364 L 772,364 L 771,365 L 762,365 L 761,364 L 759,364 L 758,363 Z M 706,363 L 707,362 L 709,362 L 710,361 L 711,361 L 712,362 L 721,362 L 722,363 L 721,364 L 721,365 L 720,366 L 710,366 L 709,365 L 708,365 Z M 535,363 L 536,362 L 538,362 L 539,361 L 548,361 L 549,362 L 548,363 L 540,363 L 539,364 L 536,364 Z M 460,363 L 461,362 L 466,362 L 467,361 L 470,361 L 471,362 L 476,362 L 477,363 L 475,365 L 475,367 L 474,368 L 462,368 L 461,367 L 462,366 L 461,365 L 461,364 Z M 1760,322 L 1759,327 L 496,329 L 625,325 L 1758,325 Z M 1754,296 L 1757,299 L 1758,299 L 1759,300 L 1760,300 L 1761,301 L 1761,306 L 1759,308 L 1757,308 L 1757,309 L 1756,310 L 1755,309 L 1755,305 L 1754,304 L 1754,300 L 1753,299 L 1753,297 Z M 620,243 L 621,244 L 621,265 L 620,266 L 619,265 L 619,244 Z M 1037,187 L 1038,186 L 1039,186 L 1040,185 L 1041,185 L 1042,184 L 1044,184 L 1045,183 L 1049,183 L 1050,182 L 1051,182 L 1052,183 L 1056,183 L 1057,184 L 1059,184 L 1060,185 L 1061,185 L 1062,186 L 1063,186 L 1065,188 L 1065,189 L 1061,193 L 1060,193 L 1059,194 L 1057,194 L 1056,195 L 1045,195 L 1044,194 L 1042,194 L 1041,193 L 1040,193 L 1037,190 Z M 1180,148 L 1181,147 L 1202,147 L 1203,148 L 1202,149 L 1181,149 Z M 1316,135 L 1317,134 L 1401,134 L 1402,135 L 1401,136 L 1317,136 Z M 1218,134 L 1219,133 L 1285,133 L 1286,134 L 1285,135 L 1219,135 Z" fill="black" fill-rule="evenodd"/>
</svg>