<svg xmlns="http://www.w3.org/2000/svg" width="1254" height="1254" viewBox="0 0 1254 1254">
<rect width="100%" height="100%" fill="white"/>
<path d="M 1216,544 L 1187,541 L 1185,502 L 1167,502 L 1165,521 L 1163,506 L 1163,543 L 1031,541 L 1029,524 L 660,520 L 638,515 L 655,514 L 608,510 L 602,519 L 613,526 L 587,526 L 583,521 L 438,518 L 477,516 L 442,516 L 428,508 L 418,516 L 356,516 L 419,517 L 356,518 L 351,545 L 291,566 L 225,557 L 54,569 L 40,575 L 52,689 L 65,695 L 146,677 L 242,644 L 280,645 L 312,616 L 350,603 L 358,606 L 361,630 L 373,636 L 413,633 L 421,606 L 428,602 L 481,603 L 482,621 L 483,606 L 484,621 L 490,607 L 499,608 L 507,666 L 513,668 L 597,645 L 588,599 L 613,591 L 918,577 L 909,576 L 929,570 L 1063,570 L 1068,579 L 1081,579 L 1082,567 L 1135,569 L 1137,558 L 1214,559 Z M 46,624 L 47,625 L 47,633 L 46,634 L 45,633 L 45,625 Z M 382,611 L 383,612 L 383,621 L 382,622 L 381,621 L 381,617 L 380,616 L 381,615 L 381,612 Z M 364,611 L 365,612 L 365,619 L 364,620 L 363,619 L 363,612 Z M 370,604 L 376,604 L 377,605 L 377,606 L 376,607 L 376,610 L 375,611 L 375,617 L 376,618 L 376,621 L 377,622 L 377,623 L 378,624 L 378,625 L 380,627 L 379,628 L 377,628 L 377,629 L 378,630 L 377,631 L 373,631 L 372,630 L 373,629 L 374,629 L 374,628 L 372,630 L 371,630 L 370,629 L 369,629 L 367,627 L 368,626 L 367,627 L 366,626 L 366,625 L 367,624 L 366,623 L 366,620 L 365,619 L 365,612 L 366,611 L 366,608 L 367,607 L 368,607 L 369,606 L 369,605 Z M 387,605 L 388,605 L 389,604 L 391,604 L 393,602 L 410,602 L 412,604 L 411,605 L 412,604 L 415,607 L 415,609 L 416,610 L 416,621 L 415,622 L 415,623 L 414,624 L 413,623 L 413,622 L 413,623 L 410,626 L 410,627 L 411,628 L 409,630 L 408,630 L 407,631 L 404,631 L 403,632 L 383,632 L 382,631 L 381,631 L 380,630 L 380,629 L 381,628 L 382,629 L 383,629 L 385,627 L 385,626 L 384,625 L 385,624 L 384,623 L 383,624 L 382,623 L 382,622 L 383,621 L 383,612 L 384,611 L 384,610 L 385,609 L 386,609 L 386,608 L 385,607 Z M 369,603 L 370,602 L 377,602 L 378,603 L 377,604 L 370,604 Z M 764,583 L 765,582 L 783,582 L 784,583 L 783,584 L 765,584 Z M 1024,568 L 1025,567 L 1067,567 L 1068,568 L 1068,569 L 1067,570 L 1066,569 L 1028,569 L 1027,570 L 1025,570 L 1024,569 Z M 931,568 L 932,567 L 1004,567 L 1005,568 L 1004,569 L 932,569 Z M 1082,561 L 1083,560 L 1083,559 L 1084,558 L 1121,558 L 1122,559 L 1122,561 L 1121,562 L 1083,562 Z M 884,552 L 883,553 L 851,553 L 850,552 L 851,551 L 874,551 L 875,550 L 877,550 L 878,551 L 883,551 Z M 792,552 L 793,551 L 797,551 L 798,550 L 803,550 L 804,551 L 825,551 L 826,552 L 825,553 L 793,553 Z M 732,550 L 733,549 L 734,550 L 735,550 L 736,551 L 738,551 L 739,550 L 741,550 L 742,551 L 754,551 L 755,550 L 761,550 L 762,551 L 768,551 L 769,552 L 768,553 L 734,553 L 732,551 Z M 674,550 L 675,549 L 677,551 L 679,551 L 680,550 L 681,550 L 682,551 L 704,551 L 705,550 L 706,551 L 709,551 L 710,552 L 709,553 L 676,553 L 674,551 Z M 876,549 L 877,548 L 883,548 L 884,549 L 883,550 L 877,550 Z M 856,549 L 857,548 L 870,548 L 871,549 L 870,550 L 857,550 Z M 792,549 L 793,548 L 825,548 L 826,549 L 825,550 L 793,550 Z M 753,549 L 754,548 L 763,548 L 764,549 L 763,550 L 754,550 Z M 733,549 L 734,548 L 744,548 L 745,549 L 744,550 L 734,550 Z M 702,549 L 703,548 L 710,548 L 711,549 L 710,550 L 703,550 Z M 832,553 L 832,548 L 833,547 L 844,547 L 845,548 L 844,549 L 844,552 L 842,554 L 833,554 Z M 677,548 L 678,547 L 689,547 L 690,548 L 689,549 L 686,549 L 685,550 L 684,549 L 683,550 L 680,550 L 679,549 L 678,549 Z M 990,539 L 991,538 L 1003,538 L 1004,539 L 1003,540 L 991,540 Z M 970,539 L 971,538 L 984,538 L 985,539 L 984,540 L 971,540 Z M 937,539 L 938,538 L 949,538 L 950,539 L 949,540 L 938,540 Z M 929,539 L 930,538 L 931,538 L 932,539 L 931,540 L 931,541 L 1001,541 L 1002,542 L 1001,543 L 930,543 L 929,542 Z M 734,535 L 735,534 L 768,534 L 769,535 L 768,536 L 735,536 Z M 848,533 L 849,532 L 851,534 L 883,534 L 884,535 L 883,536 L 850,536 L 848,534 Z M 1171,532 L 1172,531 L 1173,532 L 1173,536 L 1178,536 L 1179,537 L 1178,538 L 1172,538 L 1171,537 Z M 849,532 L 850,531 L 883,531 L 884,532 L 883,533 L 850,533 Z M 791,532 L 792,531 L 826,531 L 828,533 L 828,534 L 826,536 L 793,536 L 792,535 L 793,534 L 820,534 L 821,533 L 822,534 L 825,534 L 825,533 L 792,533 Z M 733,532 L 734,531 L 768,531 L 769,532 L 768,533 L 734,533 Z" fill="black" fill-rule="evenodd"/>
</svg>