<svg xmlns="http://www.w3.org/2000/svg" viewBox="0 0 145 79" width="145" height="79">
  <path d="M 142.00 25.00 L 139.00 25.00 L 137.00 23.00 L 137.00 20.00 L 135.00 20.00 L 135.00 23.00 L 133.00 25.00 L 121.00 25.00 L 118.00 23.00 L 87.00 23.00 L 86.00 22.00 L 75.00 22.00 L 74.00 24.00 L 48.00 24.00 L 45.00 23.00 L 41.00 25.00 L 41.00 29.00 L 37.00 33.00 L 31.00 33.00 L 30.00 32.00 L 5.00 33.00 L 4.00 36.00 L 6.00 42.00 L 6.00 54.00 L 9.00 55.00 L 11.00 53.00 L 22.00 49.00 L 26.00 46.00 L 36.00 47.00 L 38.00 42.00 L 42.00 38.00 L 45.00 39.00 L 45.00 43.00 L 46.00 44.00 L 52.00 44.00 L 54.00 39.00 L 57.00 38.00 L 58.00 41.00 L 62.00 42.00 L 63.00 55.00 L 67.00 55.00 L 74.00 52.00 L 73.00 37.00 L 75.00 35.00 L 93.00 34.00 L 94.00 33.00 L 106.00 33.00 L 111.00 31.00 L 121.00 31.00 L 122.00 30.00 L 132.00 30.00 L 133.00 29.00 L 142.00 28.00 Z" fill="#000000" stroke="#000000" stroke-width="0.5" fill-rule="evenodd" clip-rule="evenodd"/>
</svg>
