<svg xmlns="http://www.w3.org/2000/svg" width="2172" height="724" viewBox="0 0 2172 724">
<rect width="100%" height="100%" fill="white"/>
<path d="M 222,214 L 751,219 L 758,258 L 816,258 L 835,280 L 864,288 L 866,295 L 779,296 L 706,333 L 681,357 L 673,334 L 651,331 L 643,365 L 654,373 L 638,384 L 514,391 L 486,403 L 461,429 L 450,461 L 491,460 L 480,489 L 490,521 L 506,538 L 630,603 L 679,618 L 1658,617 L 1839,555 L 1864,518 L 1866,483 L 1837,440 L 1852,419 L 1881,423 L 1860,408 L 1858,383 L 1820,377 L 1746,331 L 1731,334 L 1737,293 L 1717,266 L 1487,260 L 1482,271 L 1408,261 L 1380,272 L 1257,272 L 1326,260 L 1330,247 L 1310,208 L 1313,199 L 1273,141 L 1206,137 L 1179,112 L 1086,106 L 1068,125 L 996,129 L 987,91 L 975,88 L 960,93 L 951,134 L 917,140 L 915,130 L 900,129 L 884,151 L 843,157 L 825,174 L 781,174 L 770,187 L 221,188 Z M 871,597 L 872,596 L 873,596 L 874,597 L 875,597 L 876,598 L 879,598 L 880,599 L 879,600 L 873,600 L 872,599 L 872,598 Z M 555,522 L 555,511 L 556,510 L 556,508 L 557,507 L 559,507 L 564,512 L 565,512 L 568,515 L 569,515 L 570,516 L 568,518 L 567,518 L 566,519 L 565,519 L 563,521 L 560,521 L 559,522 L 558,522 L 557,523 L 556,523 Z M 538,506 L 539,507 L 540,507 L 541,508 L 541,522 L 540,523 L 539,522 L 537,522 L 536,521 L 537,520 L 536,521 L 533,521 L 532,520 L 531,520 L 530,519 L 529,519 L 526,516 L 527,515 L 528,515 L 533,510 L 534,510 L 535,511 L 538,511 L 537,510 L 536,510 L 535,509 Z M 572,492 L 585,492 L 586,493 L 586,495 L 585,496 L 585,498 L 584,499 L 584,500 L 583,501 L 582,500 L 582,499 L 581,500 L 579,500 L 578,501 L 579,502 L 580,501 L 582,503 L 582,504 L 580,506 L 570,496 L 571,495 L 571,493 Z M 510,493 L 511,492 L 524,492 L 525,493 L 525,494 L 526,495 L 516,505 L 515,505 L 513,503 L 513,502 L 512,501 L 512,499 L 511,498 L 511,496 L 510,495 Z M 1781,487 L 1782,487 L 1783,486 L 1784,486 L 1785,487 L 1790,487 L 1791,486 L 1793,486 L 1794,487 L 1795,487 L 1798,490 L 1798,491 L 1799,492 L 1799,493 L 1800,494 L 1800,499 L 1799,500 L 1799,502 L 1795,506 L 1794,506 L 1793,507 L 1792,507 L 1791,508 L 1785,508 L 1784,507 L 1782,507 L 1778,503 L 1779,502 L 1778,503 L 1777,502 L 1777,501 L 1776,500 L 1776,494 L 1777,493 L 1777,491 L 1778,490 L 1779,491 L 1780,490 L 1779,489 Z M 570,475 L 578,467 L 579,467 L 580,466 L 581,466 L 582,467 L 582,468 L 583,469 L 583,470 L 584,471 L 584,472 L 585,473 L 585,475 L 586,476 L 586,477 L 585,478 L 576,478 L 575,477 L 572,477 Z M 515,465 L 516,465 L 525,474 L 525,476 L 524,477 L 515,477 L 514,478 L 511,478 L 510,477 L 510,474 L 511,473 L 511,472 L 512,471 L 512,469 L 513,468 L 514,469 L 514,471 L 515,470 L 516,470 L 515,469 L 515,468 L 514,469 L 513,468 L 513,467 Z M 526,454 L 527,453 L 528,453 L 529,452 L 531,452 L 532,453 L 532,454 L 533,454 L 534,455 L 534,457 L 535,456 L 538,459 L 537,460 L 535,460 L 534,461 L 533,461 Z M 1670,448 L 1682,448 L 1683,449 L 1688,449 L 1689,448 L 1691,448 L 1692,449 L 1694,449 L 1695,450 L 1694,451 L 1695,450 L 1701,456 L 1705,455 L 1708,452 L 1712,459 L 1726,459 L 1728,456 L 1729,457 L 1730,456 L 1729,457 L 1728,456 L 1730,452 L 1731,452 L 1733,455 L 1740,457 L 1741,458 L 1734,468 L 1729,480 L 1729,483 L 1727,488 L 1727,506 L 1728,507 L 1728,511 L 1729,512 L 1730,518 L 1735,528 L 1738,532 L 1738,534 L 1737,535 L 1737,540 L 1739,541 L 1742,541 L 1743,542 L 1744,542 L 1742,541 L 1743,540 L 1745,540 L 1750,545 L 1756,549 L 1767,554 L 1765,556 L 1763,556 L 1760,559 L 1760,561 L 1755,570 L 1751,569 L 1753,569 L 1754,570 L 1750,572 L 1747,572 L 1744,574 L 1741,574 L 1740,575 L 1735,576 L 1732,574 L 1728,570 L 1728,569 L 1725,569 L 1724,570 L 1713,573 L 1711,581 L 1708,585 L 1707,584 L 1705,584 L 1707,584 L 1708,585 L 1705,587 L 1703,587 L 1702,588 L 1699,588 L 1697,587 L 1699,588 L 1695,590 L 1694,588 L 1690,587 L 1687,592 L 1685,591 L 1686,590 L 1684,591 L 1686,592 L 1685,593 L 1679,594 L 1678,595 L 1674,595 L 1673,596 L 1671,596 L 1666,591 L 1680,581 L 1689,572 L 1691,568 L 1696,562 L 1703,546 L 1703,543 L 1705,538 L 1705,531 L 1706,530 L 1706,518 L 1705,517 L 1705,510 L 1704,509 L 1704,506 L 1703,505 L 1703,502 L 1702,501 L 1701,496 L 1695,484 L 1690,477 L 1677,464 L 1662,455 Z M 1649,450 L 1650,449 L 1651,449 L 1652,448 L 1654,448 L 1655,449 L 1654,450 L 1655,449 L 1658,452 L 1657,453 L 1656,453 L 1655,452 L 1653,452 L 1652,451 L 1650,451 Z M 1500,448 L 1501,449 L 1527,449 L 1529,452 L 1528,453 L 1529,452 L 1531,454 L 1533,459 L 1548,459 L 1549,456 L 1554,449 L 1578,448 L 1581,451 L 1583,456 L 1586,459 L 1580,463 L 1575,468 L 1574,468 L 1568,474 L 1560,485 L 1554,498 L 1552,508 L 1551,509 L 1551,513 L 1550,514 L 1550,534 L 1551,535 L 1551,540 L 1552,541 L 1552,544 L 1553,545 L 1555,553 L 1561,565 L 1566,572 L 1578,584 L 1587,590 L 1585,591 L 1577,600 L 1555,600 L 1551,596 L 1549,593 L 1549,591 L 1547,591 L 1546,590 L 1545,591 L 1544,590 L 1542,591 L 1533,591 L 1532,594 L 1527,600 L 1512,600 L 1511,598 L 1508,596 L 1506,597 L 1504,600 L 1487,600 L 1486,598 L 1482,595 L 1481,593 L 1482,592 L 1487,590 L 1494,585 L 1499,580 L 1500,580 L 1506,574 L 1506,573 L 1512,566 L 1520,550 L 1520,548 L 1522,544 L 1522,541 L 1523,540 L 1523,536 L 1524,535 L 1524,513 L 1523,512 L 1523,508 L 1522,507 L 1522,504 L 1521,503 L 1519,495 L 1514,485 L 1507,475 L 1498,466 L 1497,466 L 1490,460 L 1493,458 L 1496,452 Z M 1306,448 L 1324,448 L 1325,450 L 1328,452 L 1331,457 L 1340,456 L 1344,451 L 1348,449 L 1360,449 L 1363,454 L 1363,456 L 1366,459 L 1373,459 L 1376,456 L 1378,452 L 1381,450 L 1382,451 L 1381,450 L 1383,448 L 1396,448 L 1405,459 L 1395,466 L 1386,475 L 1379,485 L 1372,500 L 1372,503 L 1370,507 L 1370,512 L 1369,513 L 1369,522 L 1368,523 L 1369,536 L 1370,537 L 1371,545 L 1378,562 L 1384,571 L 1397,584 L 1406,590 L 1404,591 L 1396,600 L 1374,600 L 1371,597 L 1368,591 L 1364,591 L 1363,590 L 1361,590 L 1360,591 L 1352,591 L 1351,594 L 1346,600 L 1331,600 L 1330,598 L 1327,596 L 1326,596 L 1323,600 L 1306,600 L 1299,594 L 1313,585 L 1318,580 L 1319,580 L 1328,570 L 1338,552 L 1338,550 L 1340,546 L 1340,543 L 1341,542 L 1341,539 L 1342,538 L 1342,532 L 1343,531 L 1343,517 L 1342,516 L 1342,509 L 1341,508 L 1341,505 L 1340,504 L 1338,496 L 1336,493 L 1336,491 L 1328,478 L 1313,463 L 1300,455 L 1300,454 L 1302,453 Z M 1240,449 L 1239,450 L 1236,450 L 1239,450 L 1240,451 L 1239,452 L 1237,452 L 1236,453 L 1235,453 L 1234,454 L 1232,454 L 1231,453 L 1231,452 L 1232,451 L 1233,452 L 1234,451 L 1233,450 L 1235,448 L 1239,448 Z M 1134,449 L 1157,449 L 1158,448 L 1161,448 L 1162,449 L 1164,449 L 1166,451 L 1170,459 L 1184,459 L 1187,452 L 1190,449 L 1193,449 L 1194,448 L 1196,448 L 1197,449 L 1211,448 L 1215,452 L 1217,456 L 1222,460 L 1216,464 L 1204,476 L 1196,488 L 1191,499 L 1191,502 L 1190,503 L 1190,506 L 1188,511 L 1188,518 L 1187,519 L 1187,530 L 1188,531 L 1189,542 L 1190,543 L 1190,546 L 1191,547 L 1192,552 L 1198,564 L 1205,574 L 1218,586 L 1224,590 L 1218,598 L 1216,599 L 1215,598 L 1211,598 L 1215,598 L 1216,599 L 1215,600 L 1192,600 L 1188,595 L 1189,593 L 1188,594 L 1187,592 L 1184,590 L 1183,591 L 1171,591 L 1165,599 L 1164,598 L 1159,598 L 1164,598 L 1165,599 L 1164,600 L 1150,600 L 1148,597 L 1145,597 L 1143,599 L 1142,598 L 1139,598 L 1142,598 L 1143,599 L 1142,600 L 1125,600 L 1124,599 L 1125,598 L 1129,598 L 1125,598 L 1124,599 L 1119,594 L 1120,592 L 1129,587 L 1139,578 L 1140,578 L 1149,567 L 1150,564 L 1154,559 L 1155,555 L 1157,552 L 1157,550 L 1159,546 L 1159,543 L 1160,542 L 1161,532 L 1162,531 L 1162,518 L 1161,517 L 1161,511 L 1160,510 L 1160,506 L 1159,505 L 1159,502 L 1158,501 L 1157,496 L 1147,478 L 1134,465 L 1127,460 Z M 1102,449 L 1103,448 L 1109,448 L 1111,450 L 1112,450 L 1113,451 L 1113,452 L 1112,453 L 1111,452 L 1110,452 L 1109,451 L 1107,451 L 1106,450 L 1103,450 Z M 954,448 L 980,449 L 982,451 L 981,452 L 982,451 L 984,453 L 986,457 L 986,459 L 1002,459 L 1004,454 L 1006,452 L 1007,453 L 1006,452 L 1011,448 L 1027,448 L 1028,449 L 1033,449 L 1034,450 L 1034,452 L 1039,458 L 1041,458 L 1042,459 L 1035,464 L 1022,477 L 1016,486 L 1012,494 L 1012,496 L 1008,506 L 1007,517 L 1006,518 L 1006,531 L 1007,532 L 1007,539 L 1008,540 L 1008,543 L 1009,544 L 1012,555 L 1016,563 L 1023,573 L 1033,583 L 1043,590 L 1040,592 L 1033,600 L 1009,600 L 1006,597 L 1007,595 L 1006,597 L 1003,591 L 997,591 L 996,590 L 987,591 L 986,594 L 981,600 L 968,600 L 964,596 L 960,597 L 957,600 L 939,600 L 938,598 L 933,594 L 939,591 L 950,583 L 964,568 L 967,562 L 969,560 L 971,556 L 971,554 L 973,551 L 973,549 L 976,542 L 976,537 L 977,536 L 977,531 L 978,530 L 977,511 L 976,510 L 976,507 L 975,506 L 975,503 L 974,502 L 973,497 L 967,485 L 960,475 L 951,466 L 942,460 L 943,459 L 945,459 L 949,454 L 950,451 Z M 917,449 L 918,448 L 925,448 L 926,449 L 928,449 L 929,450 L 927,452 L 925,452 L 924,451 L 922,451 L 921,450 L 918,450 Z M 728,448 L 748,448 L 749,449 L 762,448 L 765,451 L 764,453 L 765,452 L 770,459 L 782,459 L 785,453 L 788,450 L 792,448 L 793,449 L 794,448 L 800,448 L 801,449 L 819,448 L 824,452 L 827,457 L 827,459 L 840,459 L 844,452 L 850,448 L 859,448 L 864,452 L 868,452 L 869,453 L 866,455 L 864,454 L 865,455 L 852,463 L 840,474 L 832,485 L 826,497 L 822,511 L 821,531 L 822,532 L 823,543 L 828,557 L 836,570 L 841,576 L 851,585 L 859,590 L 858,591 L 855,591 L 848,600 L 825,600 L 823,597 L 824,596 L 823,597 L 820,592 L 817,590 L 805,590 L 803,591 L 800,596 L 799,595 L 798,596 L 799,597 L 797,599 L 796,598 L 797,599 L 796,600 L 781,600 L 779,597 L 777,597 L 774,600 L 757,600 L 752,595 L 750,591 L 763,582 L 771,574 L 779,563 L 784,553 L 788,539 L 788,532 L 789,531 L 788,511 L 787,510 L 787,506 L 784,496 L 779,486 L 772,476 L 757,462 L 738,452 L 732,450 L 728,450 L 727,449 Z M 682,452 L 682,451 L 684,449 L 685,450 L 684,449 L 685,448 L 688,448 L 690,450 L 689,451 L 687,451 L 686,452 L 684,452 L 683,453 Z M 624,449 L 638,449 L 643,456 L 643,458 L 645,459 L 654,459 L 656,457 L 656,455 L 658,453 L 658,452 L 662,448 L 674,448 L 677,451 L 681,452 L 682,453 L 670,459 L 660,467 L 659,467 L 648,479 L 648,480 L 645,483 L 638,497 L 638,499 L 635,506 L 634,515 L 633,516 L 633,532 L 634,533 L 634,539 L 635,540 L 635,543 L 636,544 L 636,547 L 637,548 L 638,553 L 643,563 L 650,572 L 650,573 L 662,585 L 667,588 L 659,594 L 656,594 L 655,593 L 650,592 L 647,590 L 645,590 L 644,589 L 644,587 L 642,585 L 640,585 L 639,586 L 635,586 L 628,582 L 624,581 L 623,580 L 623,577 L 621,574 L 621,569 L 619,567 L 617,567 L 610,563 L 607,563 L 599,568 L 587,562 L 586,561 L 586,558 L 584,556 L 581,556 L 579,558 L 570,554 L 568,552 L 563,550 L 561,548 L 562,547 L 559,542 L 559,538 L 558,537 L 559,536 L 563,535 L 564,534 L 566,534 L 567,533 L 569,533 L 575,530 L 577,528 L 581,526 L 590,517 L 591,515 L 598,516 L 600,514 L 601,512 L 601,506 L 598,503 L 598,501 L 600,497 L 600,492 L 601,491 L 601,478 L 600,477 L 600,472 L 609,468 L 614,463 L 615,460 L 617,459 L 619,455 L 619,453 Z M 1596,452 L 1596,451 L 1599,448 L 1600,448 L 1601,447 L 1614,447 L 1615,448 L 1614,449 L 1609,449 L 1608,450 L 1605,450 L 1604,449 L 1603,449 L 1604,449 L 1605,450 L 1604,451 L 1602,451 L 1601,452 L 1600,452 L 1599,453 L 1597,453 Z M 1413,453 L 1413,452 L 1414,451 L 1414,450 L 1416,448 L 1419,448 L 1420,447 L 1432,447 L 1433,448 L 1432,449 L 1427,449 L 1426,450 L 1424,450 L 1423,449 L 1421,449 L 1420,450 L 1421,451 L 1420,452 L 1418,452 L 1417,453 L 1416,453 L 1415,454 L 1414,454 Z M 1278,448 L 1279,447 L 1287,447 L 1288,448 L 1289,448 L 1291,450 L 1290,451 L 1288,451 L 1287,450 L 1284,450 L 1283,449 L 1279,449 Z M 1239,450 L 1241,448 L 1242,448 L 1243,447 L 1251,447 L 1252,448 L 1251,449 L 1246,449 L 1245,450 L 1243,450 L 1242,451 L 1240,451 Z M 1048,454 L 1051,451 L 1052,452 L 1054,450 L 1057,450 L 1054,450 L 1053,449 L 1054,448 L 1056,448 L 1057,447 L 1070,447 L 1071,448 L 1070,449 L 1065,449 L 1064,450 L 1062,450 L 1061,451 L 1059,451 L 1058,452 L 1056,452 L 1055,453 L 1054,453 L 1053,454 L 1051,454 L 1050,455 L 1049,455 Z M 870,449 L 872,447 L 876,447 L 877,448 L 879,448 L 880,447 L 886,447 L 887,448 L 886,449 L 881,449 L 880,450 L 878,450 L 877,451 L 875,451 L 874,450 L 871,450 Z M 688,448 L 689,447 L 700,447 L 701,448 L 700,449 L 695,449 L 694,450 L 690,450 Z M 507,435 L 509,437 L 504,442 L 502,442 L 501,441 L 504,438 L 505,438 L 506,437 L 506,436 Z M 1824,434 L 1825,433 L 1826,433 L 1827,434 L 1829,434 L 1830,435 L 1831,435 L 1832,434 L 1833,434 L 1835,436 L 1834,437 L 1833,437 L 1833,438 L 1835,436 L 1838,439 L 1837,440 L 1838,441 L 1837,442 L 1835,442 L 1833,440 L 1832,440 L 1830,438 L 1829,438 L 1827,436 L 1826,436 Z M 582,430 L 583,429 L 583,427 L 584,426 L 587,426 L 589,428 L 590,428 L 592,430 L 591,431 L 590,431 L 589,430 L 586,430 L 589,430 L 590,431 L 591,431 L 592,430 L 594,430 L 595,431 L 594,432 L 595,431 L 596,431 L 597,432 L 598,432 L 599,433 L 603,433 L 606,430 L 611,430 L 612,429 L 613,429 L 615,427 L 616,427 L 617,426 L 618,426 L 619,427 L 619,428 L 618,429 L 618,430 L 616,432 L 617,432 L 618,433 L 619,433 L 621,431 L 624,431 L 625,432 L 625,436 L 626,437 L 626,438 L 627,439 L 627,440 L 628,441 L 628,442 L 627,443 L 624,443 L 623,442 L 619,442 L 618,441 L 615,441 L 614,440 L 612,440 L 611,439 L 610,439 L 609,438 L 606,438 L 605,437 L 600,437 L 599,436 L 600,435 L 604,435 L 600,435 L 599,436 L 597,436 L 596,435 L 595,435 L 594,434 L 593,434 L 592,433 L 589,433 L 588,432 L 585,432 L 584,431 L 583,431 Z M 1796,423 L 1797,422 L 1798,423 L 1800,423 L 1801,424 L 1809,424 L 1810,425 L 1810,426 L 1809,427 L 1806,427 L 1805,426 L 1800,426 L 1799,425 L 1797,425 L 1796,424 Z M 1753,422 L 1754,421 L 1766,421 L 1767,422 L 1766,423 L 1757,423 L 1756,424 L 1755,423 L 1754,423 Z M 1718,415 L 1719,414 L 1727,414 L 1728,415 L 1733,415 L 1734,416 L 1733,417 L 1723,417 L 1722,416 L 1719,416 Z" fill="black" fill-rule="evenodd"/>
</svg>