<svg xmlns="http://www.w3.org/2000/svg" width="2172" height="724" viewBox="0 0 2172 724">
<rect width="100%" height="100%" fill="white"/>
<path d="M 1800,428 L 1778,388 L 1763,381 L 1776,343 L 1708,284 L 1706,271 L 1693,279 L 1681,251 L 1548,251 L 1545,237 L 1491,238 L 1489,249 L 1449,247 L 1421,263 L 1418,257 L 1381,263 L 1309,128 L 1193,126 L 1191,119 L 1199,118 L 1195,110 L 1139,103 L 1103,111 L 1107,126 L 1024,128 L 1015,122 L 996,139 L 955,148 L 949,136 L 926,138 L 906,149 L 888,172 L 827,183 L 441,183 L 423,175 L 371,177 L 373,210 L 422,210 L 441,202 L 826,202 L 857,213 L 884,213 L 903,244 L 934,259 L 769,263 L 665,343 L 526,345 L 501,358 L 451,406 L 467,419 L 479,414 L 495,434 L 492,474 L 517,519 L 648,584 L 739,616 L 1495,616 L 1684,572 L 1722,556 L 1754,513 L 1752,457 L 1773,436 L 1786,439 Z M 763,596 L 764,595 L 765,595 L 766,594 L 773,594 L 774,595 L 774,596 L 773,597 L 772,596 L 773,597 L 771,599 L 765,599 L 764,598 L 764,597 Z M 1499,594 L 1499,596 L 1498,597 L 1497,596 L 1496,596 L 1497,596 L 1498,597 L 1497,598 L 1492,598 L 1490,596 L 1490,595 L 1491,594 L 1496,594 L 1497,593 L 1498,593 Z M 1467,594 L 1468,593 L 1469,594 L 1474,594 L 1475,595 L 1476,595 L 1477,596 L 1476,597 L 1476,598 L 1475,599 L 1470,599 L 1469,598 L 1469,597 L 1470,596 L 1471,597 L 1474,597 L 1473,597 L 1472,596 L 1470,596 L 1469,597 L 1467,595 Z M 1320,594 L 1319,595 L 1319,596 L 1318,597 L 1317,596 L 1313,596 L 1313,597 L 1316,597 L 1317,596 L 1318,597 L 1318,598 L 1317,599 L 1312,599 L 1311,598 L 1311,597 L 1310,596 L 1312,594 L 1316,594 L 1317,593 L 1319,593 Z M 1286,594 L 1287,593 L 1289,593 L 1290,594 L 1294,594 L 1295,595 L 1294,596 L 1292,596 L 1292,597 L 1294,597 L 1295,598 L 1294,599 L 1290,599 L 1287,596 L 1287,595 Z M 1140,594 L 1139,595 L 1139,596 L 1137,598 L 1136,597 L 1137,598 L 1136,599 L 1132,599 L 1129,596 L 1129,595 L 1130,594 L 1136,594 L 1137,595 L 1136,594 L 1137,593 L 1139,593 Z M 1105,594 L 1106,593 L 1108,593 L 1109,594 L 1114,594 L 1116,596 L 1115,597 L 1115,598 L 1114,599 L 1108,599 L 1107,598 L 1107,597 L 1106,596 L 1106,595 Z M 959,594 L 959,595 L 957,597 L 956,596 L 952,596 L 952,597 L 956,597 L 957,598 L 956,599 L 951,599 L 950,598 L 950,597 L 949,596 L 949,595 L 950,594 L 954,594 L 955,593 L 958,593 Z M 739,595 L 739,593 L 740,592 L 741,592 L 742,593 L 745,593 L 746,594 L 745,595 L 744,595 L 744,596 L 743,597 L 742,597 L 741,598 L 740,597 L 740,596 Z M 1522,582 L 1523,583 L 1523,587 L 1522,588 L 1522,590 L 1521,591 L 1520,590 L 1519,591 L 1518,591 L 1520,591 L 1521,592 L 1520,593 L 1518,593 L 1517,594 L 1515,594 L 1513,592 L 1513,591 L 1511,589 L 1512,588 L 1513,588 L 1514,587 L 1515,587 L 1517,585 L 1518,585 L 1519,584 L 1520,584 Z M 982,582 L 984,584 L 983,585 L 982,585 L 982,586 L 981,587 L 980,586 L 979,586 L 980,586 L 981,587 L 981,589 L 980,590 L 980,591 L 979,592 L 979,593 L 978,594 L 978,595 L 977,596 L 976,595 L 976,593 L 975,592 L 975,591 L 974,591 L 973,592 L 973,595 L 972,596 L 971,595 L 971,593 L 970,592 L 970,589 L 972,587 L 973,587 L 974,586 L 975,586 L 976,585 L 977,585 L 978,584 L 979,584 L 981,582 Z M 716,582 L 717,581 L 718,581 L 720,583 L 721,583 L 723,585 L 724,585 L 726,587 L 727,587 L 729,589 L 724,594 L 720,594 L 717,591 L 717,588 L 716,587 Z M 1648,549 L 1649,548 L 1650,548 L 1651,549 L 1653,549 L 1654,550 L 1657,550 L 1658,551 L 1663,551 L 1664,552 L 1664,555 L 1663,556 L 1663,557 L 1662,558 L 1662,559 L 1661,560 L 1660,560 L 1659,559 L 1660,558 L 1659,557 L 1658,557 L 1658,559 L 1656,561 L 1653,558 L 1653,557 L 1651,555 L 1651,554 L 1650,553 L 1650,552 L 1648,550 Z M 1703,543 L 1705,545 L 1705,546 L 1704,547 L 1702,547 L 1700,549 L 1697,546 L 1698,545 L 1699,545 L 1700,544 L 1701,544 L 1702,543 Z M 1719,530 L 1721,532 L 1721,534 L 1718,537 L 1716,537 L 1714,535 Z M 565,528 L 565,524 L 566,523 L 575,523 L 576,524 L 575,525 L 569,525 L 572,525 L 573,526 L 571,528 L 570,528 L 569,529 L 566,529 Z M 1480,511 L 1484,511 L 1485,512 L 1486,512 L 1487,513 L 1488,513 L 1489,514 L 1490,514 L 1492,516 L 1492,517 L 1493,518 L 1493,519 L 1494,520 L 1494,527 L 1493,528 L 1493,529 L 1492,530 L 1492,531 L 1490,533 L 1489,533 L 1488,534 L 1487,534 L 1486,535 L 1484,535 L 1483,536 L 1480,536 L 1479,535 L 1477,535 L 1476,534 L 1475,534 L 1472,531 L 1472,530 L 1471,529 L 1471,528 L 1470,527 L 1470,519 L 1471,518 L 1471,517 L 1475,513 L 1477,513 L 1478,512 L 1479,512 Z M 1301,511 L 1304,511 L 1305,512 L 1307,512 L 1308,513 L 1307,514 L 1306,514 L 1307,514 L 1308,513 L 1309,513 L 1314,518 L 1314,520 L 1315,521 L 1315,526 L 1314,527 L 1314,529 L 1309,534 L 1308,534 L 1307,535 L 1305,535 L 1304,536 L 1301,536 L 1300,535 L 1298,535 L 1297,534 L 1296,534 L 1292,530 L 1292,529 L 1291,528 L 1291,526 L 1290,525 L 1290,522 L 1291,521 L 1291,519 L 1292,518 L 1292,517 L 1296,513 L 1297,513 L 1298,512 L 1300,512 Z M 1122,511 L 1124,511 L 1125,512 L 1128,512 L 1129,513 L 1130,513 L 1134,517 L 1134,518 L 1135,519 L 1135,521 L 1136,522 L 1136,525 L 1135,526 L 1135,528 L 1134,529 L 1134,530 L 1130,534 L 1129,534 L 1128,535 L 1125,535 L 1124,536 L 1122,536 L 1121,535 L 1119,535 L 1118,534 L 1117,534 L 1112,529 L 1112,527 L 1111,526 L 1111,521 L 1112,520 L 1112,518 L 1117,513 L 1118,513 L 1119,512 L 1121,512 Z M 940,511 L 943,511 L 944,512 L 945,512 L 946,513 L 947,513 L 948,514 L 949,514 L 952,517 L 952,518 L 953,519 L 953,528 L 951,530 L 951,531 L 948,534 L 947,534 L 946,535 L 944,535 L 943,536 L 939,536 L 938,535 L 936,535 L 935,534 L 934,534 L 931,531 L 931,530 L 930,529 L 930,528 L 929,527 L 929,520 L 930,519 L 930,518 L 931,517 L 931,516 L 933,514 L 934,514 L 936,512 L 939,512 Z M 758,511 L 762,511 L 763,512 L 765,512 L 767,514 L 768,514 L 770,516 L 770,517 L 769,518 L 770,517 L 771,518 L 771,519 L 772,520 L 772,527 L 771,528 L 771,529 L 770,530 L 770,531 L 768,533 L 767,533 L 766,534 L 765,534 L 764,535 L 762,535 L 761,536 L 758,536 L 757,535 L 755,535 L 754,534 L 753,534 L 750,531 L 750,530 L 748,528 L 748,519 L 749,518 L 749,517 L 752,514 L 753,514 L 755,512 L 757,512 Z M 711,577 L 702,586 L 700,587 L 699,586 L 697,586 L 696,585 L 698,584 L 696,585 L 695,584 L 695,580 L 694,579 L 694,569 L 690,567 L 679,578 L 678,578 L 677,577 L 678,576 L 678,574 L 676,575 L 675,574 L 674,576 L 673,575 L 673,567 L 672,566 L 672,559 L 670,559 L 669,558 L 668,558 L 660,566 L 658,565 L 655,565 L 654,566 L 653,565 L 654,566 L 652,567 L 651,566 L 651,563 L 650,562 L 650,550 L 649,549 L 645,549 L 638,556 L 637,555 L 635,555 L 637,555 L 638,556 L 634,559 L 633,558 L 631,558 L 630,557 L 631,556 L 630,557 L 629,556 L 629,544 L 628,543 L 628,540 L 626,540 L 624,539 L 613,549 L 611,549 L 607,546 L 607,544 L 606,543 L 606,538 L 607,537 L 607,531 L 606,530 L 601,529 L 601,530 L 599,532 L 598,532 L 592,538 L 590,539 L 588,539 L 585,537 L 584,535 L 584,526 L 585,525 L 585,522 L 586,521 L 591,520 L 594,518 L 596,518 L 601,515 L 603,516 L 687,516 L 687,512 L 688,511 L 689,512 L 689,517 L 688,518 L 688,529 L 689,530 L 689,535 L 690,536 L 690,541 L 691,542 L 691,545 L 693,548 L 693,550 L 695,553 L 695,555 L 696,557 L 698,559 L 698,560 L 700,562 L 702,566 L 711,576 Z M 1372,500 L 1373,502 L 1373,501 L 1375,500 L 1376,498 L 1378,501 L 1378,504 L 1379,505 L 1379,508 L 1380,509 L 1380,515 L 1381,516 L 1409,516 L 1409,512 L 1410,511 L 1411,512 L 1411,518 L 1410,519 L 1411,536 L 1412,537 L 1413,544 L 1416,550 L 1416,552 L 1419,558 L 1426,568 L 1437,579 L 1447,586 L 1453,589 L 1455,589 L 1458,591 L 1456,593 L 1456,595 L 1453,599 L 1449,599 L 1448,598 L 1449,597 L 1452,597 L 1450,594 L 1448,598 L 1446,596 L 1444,589 L 1441,584 L 1437,585 L 1435,589 L 1435,591 L 1433,594 L 1433,596 L 1431,598 L 1430,597 L 1430,595 L 1427,597 L 1430,597 L 1431,598 L 1430,599 L 1426,599 L 1424,597 L 1424,595 L 1421,590 L 1421,588 L 1419,584 L 1415,584 L 1412,589 L 1412,591 L 1409,597 L 1407,599 L 1403,599 L 1402,598 L 1403,597 L 1406,597 L 1403,597 L 1402,596 L 1401,597 L 1400,596 L 1398,589 L 1395,584 L 1391,584 L 1390,585 L 1389,589 L 1387,592 L 1387,594 L 1385,597 L 1384,595 L 1382,595 L 1382,596 L 1379,598 L 1377,596 L 1375,589 L 1372,584 L 1369,584 L 1367,586 L 1364,592 L 1364,594 L 1361,599 L 1357,599 L 1355,597 L 1350,584 L 1346,584 L 1343,589 L 1343,591 L 1341,594 L 1341,596 L 1339,598 L 1335,594 L 1334,594 L 1334,596 L 1333,597 L 1332,596 L 1330,590 L 1332,588 L 1338,585 L 1340,586 L 1339,587 L 1341,586 L 1342,587 L 1339,585 L 1349,578 L 1358,569 L 1365,559 L 1369,551 L 1369,549 L 1372,543 L 1373,536 L 1374,535 L 1374,527 L 1375,526 L 1374,511 L 1373,510 L 1373,507 L 1371,503 L 1371,501 Z M 592,504 L 592,507 L 591,508 L 591,509 L 590,510 L 590,511 L 588,513 L 587,513 L 586,514 L 584,514 L 583,515 L 580,515 L 579,516 L 565,516 L 564,515 L 559,515 L 558,514 L 556,514 L 553,511 L 553,510 L 552,509 L 552,505 L 553,504 L 553,503 L 554,502 L 554,501 L 557,498 L 562,498 L 563,499 L 568,499 L 569,500 L 573,500 L 574,499 L 579,499 L 580,498 L 582,498 L 583,497 L 586,497 L 588,499 L 589,499 L 590,500 L 590,501 L 591,502 L 591,503 Z M 1190,493 L 1192,492 L 1193,493 L 1194,491 L 1196,494 L 1196,496 L 1199,503 L 1199,506 L 1200,507 L 1201,516 L 1229,516 L 1230,515 L 1231,516 L 1231,530 L 1232,531 L 1232,537 L 1233,538 L 1233,541 L 1234,542 L 1236,550 L 1245,566 L 1259,580 L 1270,587 L 1268,588 L 1271,587 L 1276,590 L 1276,593 L 1272,599 L 1268,599 L 1266,597 L 1265,593 L 1261,585 L 1257,585 L 1253,592 L 1253,594 L 1250,599 L 1245,599 L 1244,598 L 1245,597 L 1248,597 L 1247,595 L 1244,597 L 1242,595 L 1242,593 L 1240,590 L 1240,588 L 1238,584 L 1234,584 L 1232,586 L 1230,593 L 1227,598 L 1226,597 L 1222,597 L 1221,598 L 1217,591 L 1217,589 L 1214,584 L 1211,584 L 1209,586 L 1209,588 L 1206,593 L 1206,595 L 1203,599 L 1199,599 L 1197,597 L 1198,595 L 1199,596 L 1198,595 L 1197,596 L 1196,595 L 1192,584 L 1188,584 L 1186,586 L 1181,598 L 1179,593 L 1177,594 L 1177,597 L 1176,598 L 1173,593 L 1171,586 L 1169,584 L 1167,584 L 1166,583 L 1167,584 L 1165,585 L 1164,587 L 1163,586 L 1161,586 L 1163,586 L 1164,587 L 1164,589 L 1162,592 L 1161,596 L 1160,597 L 1159,596 L 1159,594 L 1160,593 L 1159,594 L 1157,594 L 1154,598 L 1153,597 L 1150,590 L 1152,588 L 1159,585 L 1168,579 L 1180,567 L 1185,560 L 1190,550 L 1190,548 L 1193,541 L 1193,538 L 1194,537 L 1194,532 L 1195,531 L 1195,514 L 1194,513 L 1193,505 L 1194,504 L 1195,505 L 1196,503 L 1197,504 L 1196,502 L 1195,503 L 1194,502 L 1194,504 L 1193,505 L 1192,504 L 1192,502 L 1189,495 Z M 1007,492 L 1008,493 L 1010,492 L 1011,490 L 1012,491 L 1015,497 L 1016,502 L 1017,503 L 1018,511 L 1019,512 L 1019,516 L 1050,516 L 1050,514 L 1051,513 L 1052,514 L 1052,522 L 1051,523 L 1051,526 L 1052,527 L 1052,534 L 1053,535 L 1053,539 L 1054,540 L 1054,543 L 1057,549 L 1057,551 L 1062,561 L 1065,564 L 1067,568 L 1079,580 L 1080,580 L 1085,584 L 1094,588 L 1096,590 L 1091,599 L 1086,599 L 1083,596 L 1083,594 L 1079,587 L 1079,585 L 1077,584 L 1075,584 L 1073,586 L 1071,590 L 1070,595 L 1067,599 L 1062,599 L 1061,598 L 1062,597 L 1066,597 L 1065,597 L 1064,595 L 1062,596 L 1061,598 L 1058,593 L 1058,591 L 1054,584 L 1051,584 L 1049,586 L 1048,590 L 1046,593 L 1046,595 L 1043,599 L 1038,599 L 1037,598 L 1039,597 L 1037,598 L 1036,597 L 1037,595 L 1036,596 L 1035,595 L 1032,589 L 1032,587 L 1030,584 L 1026,584 L 1022,591 L 1021,595 L 1020,596 L 1017,594 L 1014,598 L 1012,596 L 1011,592 L 1007,584 L 1004,584 L 1002,585 L 1001,589 L 997,597 L 995,599 L 992,598 L 990,596 L 986,585 L 985,585 L 982,582 L 985,579 L 986,579 L 997,568 L 997,567 L 1000,564 L 1005,556 L 1006,557 L 1005,555 L 1009,547 L 1009,545 L 1011,541 L 1011,537 L 1012,536 L 1012,529 L 1013,528 L 1013,517 L 1012,516 L 1012,510 L 1011,509 L 1010,502 L 1006,494 Z M 1545,489 L 1546,488 L 1547,489 L 1550,489 L 1551,487 L 1552,488 L 1554,492 L 1554,494 L 1556,497 L 1557,502 L 1558,503 L 1558,506 L 1559,507 L 1559,513 L 1560,514 L 1560,516 L 1609,516 L 1610,514 L 1612,518 L 1614,520 L 1615,523 L 1618,526 L 1618,527 L 1627,536 L 1628,536 L 1634,541 L 1637,542 L 1639,544 L 1645,547 L 1643,549 L 1642,549 L 1642,551 L 1641,552 L 1641,557 L 1640,558 L 1640,562 L 1638,565 L 1633,566 L 1627,560 L 1627,559 L 1623,554 L 1620,554 L 1618,555 L 1618,558 L 1617,559 L 1617,563 L 1616,564 L 1616,567 L 1614,570 L 1613,568 L 1611,568 L 1608,570 L 1605,567 L 1605,566 L 1603,564 L 1601,560 L 1600,559 L 1598,559 L 1597,560 L 1595,560 L 1595,562 L 1594,563 L 1594,566 L 1593,567 L 1593,571 L 1592,572 L 1592,575 L 1591,576 L 1589,576 L 1588,577 L 1585,577 L 1580,571 L 1577,565 L 1572,565 L 1571,566 L 1571,569 L 1570,570 L 1570,574 L 1569,575 L 1569,578 L 1567,582 L 1564,582 L 1563,583 L 1558,578 L 1559,576 L 1558,577 L 1553,570 L 1550,570 L 1548,571 L 1548,574 L 1547,575 L 1547,578 L 1546,579 L 1546,583 L 1545,584 L 1545,586 L 1544,587 L 1542,587 L 1541,585 L 1538,585 L 1537,586 L 1535,584 L 1532,578 L 1530,576 L 1538,568 L 1538,567 L 1541,564 L 1543,560 L 1545,558 L 1546,559 L 1545,557 L 1550,547 L 1550,545 L 1552,541 L 1552,538 L 1553,537 L 1553,531 L 1554,530 L 1554,515 L 1553,514 L 1553,510 L 1552,509 L 1552,506 L 1551,505 L 1551,502 L 1550,501 L 1550,499 L 1551,498 L 1554,498 L 1553,496 L 1551,497 L 1550,495 L 1549,497 Z M 1368,482 L 1371,485 L 1371,486 L 1372,487 L 1372,488 L 1373,489 L 1373,490 L 1374,491 L 1374,492 L 1375,493 L 1375,495 L 1376,496 L 1376,498 L 1375,499 L 1374,499 L 1373,500 L 1372,499 L 1372,498 L 1372,500 L 1371,501 L 1370,500 L 1370,498 L 1369,497 L 1369,496 L 1368,495 L 1368,494 L 1367,493 L 1367,491 L 1368,490 L 1369,491 L 1369,492 L 1371,490 L 1370,489 L 1369,490 L 1368,490 L 1367,491 L 1365,489 L 1365,488 L 1364,487 L 1364,486 L 1363,485 L 1364,484 L 1365,484 L 1366,483 L 1367,483 Z M 1542,484 L 1544,482 L 1546,482 L 1547,481 L 1549,483 L 1549,484 L 1551,486 L 1551,487 L 1550,488 L 1549,487 L 1548,487 L 1547,488 L 1546,488 L 1545,489 L 1543,487 L 1543,486 L 1542,485 Z M 1244,481 L 1245,482 L 1245,483 L 1243,485 L 1243,486 L 1241,488 L 1241,489 L 1239,491 L 1238,490 L 1238,489 L 1239,488 L 1239,487 L 1241,485 L 1241,484 Z M 820,482 L 821,483 L 825,481 L 829,486 L 836,503 L 838,516 L 868,516 L 869,514 L 870,515 L 870,521 L 869,522 L 870,524 L 870,534 L 871,535 L 871,540 L 875,549 L 875,551 L 885,568 L 895,578 L 908,587 L 906,588 L 909,587 L 917,591 L 914,597 L 913,596 L 910,596 L 909,597 L 912,597 L 913,598 L 912,599 L 907,599 L 906,598 L 903,589 L 900,584 L 897,584 L 895,586 L 892,595 L 889,599 L 884,599 L 879,589 L 879,587 L 877,584 L 873,584 L 872,585 L 869,594 L 866,599 L 861,599 L 860,598 L 861,597 L 865,597 L 865,596 L 860,598 L 858,596 L 857,593 L 858,590 L 857,592 L 853,584 L 849,584 L 842,598 L 841,596 L 839,595 L 835,597 L 834,596 L 829,584 L 825,584 L 820,593 L 820,595 L 817,599 L 812,599 L 811,598 L 805,584 L 802,584 L 800,586 L 798,593 L 795,598 L 794,596 L 791,595 L 788,597 L 785,592 L 786,589 L 792,586 L 798,587 L 795,587 L 794,586 L 806,578 L 815,569 L 822,559 L 830,541 L 831,531 L 832,530 L 832,515 L 831,514 L 831,510 L 830,509 L 830,506 L 827,497 L 828,496 L 829,498 L 832,498 L 831,496 L 828,496 L 827,497 L 823,489 L 824,488 L 827,489 L 827,487 L 825,487 L 823,489 L 819,484 Z M 883,480 L 884,481 L 884,482 L 882,484 L 882,485 L 880,487 L 880,488 L 878,490 L 877,489 L 877,488 L 878,487 L 878,486 L 880,484 L 880,483 Z M 1183,479 L 1185,479 L 1186,478 L 1188,480 L 1188,481 L 1190,483 L 1190,484 L 1189,485 L 1188,484 L 1185,484 L 1186,485 L 1189,485 L 1190,484 L 1192,486 L 1192,487 L 1193,488 L 1193,489 L 1194,490 L 1194,491 L 1193,492 L 1192,491 L 1191,492 L 1190,492 L 1189,491 L 1188,492 L 1187,491 L 1187,490 L 1185,488 L 1185,487 L 1183,485 L 1183,484 L 1181,482 L 1181,481 Z M 1003,477 L 1005,479 L 1005,480 L 1008,483 L 1008,484 L 1009,485 L 1009,486 L 1011,488 L 1011,490 L 1010,491 L 1009,490 L 1007,490 L 1007,492 L 1006,493 L 1005,492 L 1005,491 L 1004,490 L 1004,489 L 1003,488 L 1003,487 L 1001,485 L 1001,484 L 1002,483 L 1003,484 L 1006,484 L 1005,483 L 1002,483 L 1001,484 L 998,481 L 998,480 L 999,479 L 1000,479 L 1001,478 L 1002,478 Z M 1667,474 L 1672,474 L 1673,475 L 1672,476 L 1669,476 L 1672,476 L 1673,475 L 1675,475 L 1676,476 L 1677,476 L 1678,477 L 1677,478 L 1678,479 L 1679,478 L 1681,480 L 1681,481 L 1682,482 L 1682,490 L 1681,491 L 1681,492 L 1677,496 L 1676,496 L 1675,497 L 1673,497 L 1672,498 L 1666,498 L 1665,497 L 1664,497 L 1659,492 L 1659,491 L 1658,490 L 1658,482 L 1660,480 L 1660,479 L 1663,476 L 1664,476 L 1665,475 L 1666,475 Z M 1537,478 L 1538,477 L 1540,477 L 1541,476 L 1541,475 L 1542,474 L 1544,476 L 1544,477 L 1547,480 L 1547,481 L 1546,482 L 1545,481 L 1542,481 L 1542,482 L 1541,483 L 1539,481 L 1539,480 Z M 1355,475 L 1357,473 L 1359,473 L 1360,472 L 1364,476 L 1363,477 L 1360,477 L 1360,478 L 1363,478 L 1363,477 L 1364,476 L 1366,478 L 1366,479 L 1368,481 L 1368,482 L 1367,483 L 1366,482 L 1365,483 L 1364,483 L 1363,482 L 1362,483 L 1358,479 L 1358,478 Z M 1351,471 L 1353,469 L 1355,469 L 1356,470 L 1357,469 L 1359,471 L 1357,473 L 1355,473 L 1354,474 Z M 989,471 L 990,470 L 992,470 L 994,468 L 995,468 L 1002,475 L 1002,476 L 1001,477 L 1000,477 L 999,478 L 998,478 L 997,479 Z M 807,470 L 810,467 L 811,468 L 810,467 L 811,466 L 812,466 L 816,470 L 814,472 L 812,472 L 814,472 L 816,470 L 821,475 L 821,476 L 825,480 L 825,481 L 824,482 L 822,480 L 821,481 L 819,481 L 818,482 L 816,480 L 816,479 L 815,478 L 816,477 L 818,477 L 819,476 L 816,476 L 816,477 L 815,478 Z M 1272,460 L 1271,461 L 1270,461 L 1269,462 L 1268,462 L 1266,464 L 1265,464 L 1264,465 L 1263,465 L 1261,467 L 1260,467 L 1254,473 L 1253,473 L 1249,477 L 1248,476 L 1248,475 L 1255,468 L 1256,468 L 1260,464 L 1261,464 L 1263,462 L 1264,462 L 1266,460 L 1267,460 L 1268,459 L 1269,459 L 1270,458 Z M 1093,460 L 1092,461 L 1091,461 L 1090,462 L 1089,462 L 1088,463 L 1087,463 L 1085,465 L 1084,465 L 1082,467 L 1081,467 L 1077,471 L 1076,471 L 1067,480 L 1066,479 L 1066,478 L 1078,466 L 1079,466 L 1082,463 L 1083,463 L 1085,461 L 1086,461 L 1088,459 L 1089,459 L 1090,458 L 1091,458 Z M 1456,458 L 1455,459 L 1454,459 L 1453,460 L 1451,460 L 1450,461 L 1449,461 L 1447,463 L 1446,463 L 1445,464 L 1444,464 L 1442,466 L 1441,466 L 1438,469 L 1437,469 L 1433,473 L 1432,473 L 1431,472 L 1438,465 L 1439,465 L 1442,462 L 1443,462 L 1444,461 L 1445,461 L 1447,459 L 1448,459 L 1449,458 L 1450,458 L 1452,456 L 1453,456 L 1454,457 L 1455,457 Z M 737,457 L 736,458 L 734,458 L 733,457 L 734,458 L 733,459 L 732,459 L 731,460 L 729,460 L 728,461 L 727,461 L 726,462 L 725,462 L 723,464 L 722,464 L 721,465 L 720,465 L 717,468 L 716,468 L 712,472 L 711,472 L 707,476 L 707,477 L 701,483 L 700,482 L 700,481 L 705,476 L 705,475 L 712,468 L 713,468 L 717,464 L 718,464 L 720,462 L 721,462 L 723,460 L 724,460 L 725,459 L 726,459 L 727,458 L 728,458 L 729,457 L 730,457 L 732,455 L 734,455 L 735,456 L 736,456 Z M 1453,456 L 1454,455 L 1456,455 L 1457,456 L 1456,455 L 1457,454 L 1458,454 L 1459,453 L 1461,453 L 1462,452 L 1465,452 L 1466,451 L 1469,451 L 1470,450 L 1475,450 L 1476,449 L 1494,449 L 1495,450 L 1501,450 L 1502,451 L 1505,451 L 1506,452 L 1508,452 L 1509,453 L 1511,453 L 1512,454 L 1514,454 L 1515,455 L 1516,455 L 1517,456 L 1518,456 L 1519,457 L 1520,457 L 1521,458 L 1522,458 L 1523,459 L 1524,459 L 1526,461 L 1525,462 L 1526,461 L 1527,461 L 1528,462 L 1527,463 L 1528,464 L 1527,463 L 1528,462 L 1529,462 L 1532,465 L 1533,465 L 1538,470 L 1536,472 L 1534,472 L 1535,473 L 1536,472 L 1538,472 L 1539,471 L 1542,474 L 1540,476 L 1538,476 L 1538,477 L 1537,478 L 1528,469 L 1527,469 L 1524,466 L 1525,465 L 1526,465 L 1525,465 L 1524,466 L 1523,466 L 1522,465 L 1521,465 L 1519,463 L 1518,463 L 1517,462 L 1516,462 L 1515,461 L 1514,461 L 1513,460 L 1511,460 L 1510,459 L 1509,459 L 1508,458 L 1506,458 L 1505,457 L 1503,457 L 1502,456 L 1500,456 L 1499,455 L 1495,455 L 1494,454 L 1487,454 L 1486,453 L 1477,453 L 1476,454 L 1469,454 L 1468,453 L 1467,453 L 1468,453 L 1469,454 L 1468,455 L 1465,455 L 1464,454 L 1463,454 L 1464,454 L 1465,455 L 1464,456 L 1462,456 L 1461,457 L 1459,457 L 1458,458 L 1456,458 L 1455,457 L 1454,457 Z M 1270,458 L 1271,457 L 1272,457 L 1273,456 L 1274,456 L 1275,457 L 1274,456 L 1275,455 L 1276,455 L 1277,454 L 1279,454 L 1280,453 L 1282,453 L 1283,452 L 1285,452 L 1286,451 L 1290,451 L 1291,450 L 1296,450 L 1297,449 L 1315,449 L 1316,450 L 1321,450 L 1322,451 L 1325,451 L 1326,452 L 1329,452 L 1330,453 L 1332,453 L 1333,454 L 1334,454 L 1335,455 L 1337,455 L 1338,456 L 1339,456 L 1341,458 L 1342,458 L 1343,459 L 1344,459 L 1345,460 L 1346,460 L 1348,462 L 1349,462 L 1351,464 L 1350,465 L 1351,464 L 1352,465 L 1353,465 L 1355,467 L 1353,469 L 1351,469 L 1352,470 L 1351,471 L 1350,471 L 1346,467 L 1345,467 L 1343,465 L 1342,465 L 1341,464 L 1340,464 L 1339,463 L 1338,463 L 1337,462 L 1336,462 L 1335,461 L 1334,461 L 1333,460 L 1332,460 L 1331,459 L 1330,459 L 1329,458 L 1327,458 L 1326,457 L 1324,457 L 1323,456 L 1320,456 L 1319,455 L 1315,455 L 1314,454 L 1307,454 L 1306,453 L 1298,453 L 1297,454 L 1290,454 L 1289,455 L 1286,455 L 1285,454 L 1284,454 L 1285,454 L 1286,455 L 1285,456 L 1282,456 L 1281,457 L 1280,457 L 1279,458 L 1277,458 L 1276,459 L 1274,459 L 1273,460 L 1272,460 Z M 1093,457 L 1094,456 L 1095,456 L 1096,455 L 1097,455 L 1098,454 L 1100,454 L 1101,453 L 1103,453 L 1104,454 L 1105,454 L 1104,454 L 1103,453 L 1104,452 L 1106,452 L 1107,451 L 1110,451 L 1111,450 L 1116,450 L 1117,449 L 1136,449 L 1137,450 L 1142,450 L 1143,451 L 1146,451 L 1147,452 L 1150,452 L 1151,453 L 1153,453 L 1154,454 L 1155,454 L 1156,455 L 1157,455 L 1158,456 L 1159,456 L 1160,457 L 1161,457 L 1162,458 L 1163,458 L 1164,459 L 1165,459 L 1166,460 L 1167,460 L 1169,462 L 1168,463 L 1169,462 L 1170,462 L 1173,465 L 1172,466 L 1171,466 L 1172,466 L 1173,465 L 1174,466 L 1175,466 L 1181,472 L 1180,473 L 1178,473 L 1177,474 L 1181,474 L 1182,473 L 1185,476 L 1185,477 L 1184,478 L 1181,478 L 1181,479 L 1180,480 L 1169,469 L 1168,469 L 1165,466 L 1164,466 L 1163,465 L 1162,465 L 1160,463 L 1159,463 L 1158,462 L 1157,462 L 1156,461 L 1155,461 L 1154,460 L 1153,460 L 1152,459 L 1150,459 L 1149,458 L 1148,458 L 1147,457 L 1145,457 L 1144,456 L 1141,456 L 1140,455 L 1136,455 L 1135,454 L 1128,454 L 1127,453 L 1118,453 L 1117,454 L 1111,454 L 1110,455 L 1107,455 L 1106,456 L 1103,456 L 1102,455 L 1103,456 L 1102,457 L 1100,457 L 1099,458 L 1097,458 L 1096,459 L 1095,459 Z M 883,480 L 883,479 L 896,466 L 897,466 L 900,463 L 901,463 L 903,461 L 904,461 L 905,460 L 906,460 L 908,458 L 909,458 L 910,457 L 911,457 L 912,456 L 913,456 L 916,454 L 918,454 L 921,452 L 924,452 L 925,451 L 928,451 L 929,450 L 933,450 L 934,449 L 955,449 L 956,450 L 960,450 L 961,451 L 964,451 L 965,452 L 967,452 L 968,453 L 970,453 L 971,454 L 973,454 L 974,455 L 975,455 L 976,456 L 977,456 L 978,457 L 979,457 L 980,458 L 981,458 L 982,459 L 983,459 L 985,461 L 984,462 L 985,461 L 986,461 L 988,463 L 989,463 L 991,465 L 990,466 L 989,466 L 988,465 L 987,466 L 986,466 L 987,467 L 988,466 L 990,466 L 992,468 L 991,469 L 989,469 L 988,470 L 987,469 L 986,469 L 983,466 L 982,466 L 980,464 L 979,464 L 978,463 L 977,463 L 976,462 L 975,462 L 974,461 L 973,461 L 972,460 L 971,460 L 968,458 L 966,458 L 965,457 L 963,457 L 962,456 L 959,456 L 958,455 L 955,455 L 954,454 L 947,454 L 946,453 L 938,453 L 937,454 L 929,454 L 928,455 L 924,455 L 923,454 L 922,454 L 923,454 L 924,455 L 923,456 L 921,456 L 920,457 L 918,457 L 917,458 L 915,458 L 914,459 L 913,459 L 912,460 L 911,460 L 910,461 L 909,461 L 908,462 L 907,462 L 906,463 L 905,463 L 903,465 L 902,465 L 900,467 L 899,467 L 896,470 L 895,470 L 884,481 Z M 734,455 L 735,454 L 736,454 L 737,453 L 739,453 L 740,452 L 743,452 L 744,451 L 747,451 L 748,450 L 752,450 L 753,449 L 774,449 L 775,450 L 779,450 L 780,451 L 783,451 L 784,452 L 786,452 L 787,453 L 789,453 L 790,454 L 792,454 L 793,455 L 794,455 L 795,456 L 796,456 L 797,457 L 798,457 L 799,458 L 800,458 L 801,459 L 802,459 L 804,461 L 805,461 L 807,463 L 806,464 L 807,463 L 808,463 L 810,465 L 809,466 L 810,467 L 809,468 L 807,468 L 808,469 L 807,470 L 806,470 L 803,467 L 804,466 L 803,465 L 804,466 L 803,467 L 802,467 L 800,465 L 799,465 L 797,463 L 796,463 L 795,462 L 794,462 L 793,461 L 792,461 L 791,460 L 790,460 L 789,459 L 787,459 L 786,458 L 785,458 L 784,457 L 782,457 L 781,456 L 778,456 L 777,455 L 773,455 L 772,454 L 765,454 L 764,453 L 755,453 L 754,454 L 747,454 L 746,455 L 743,455 L 742,454 L 741,454 L 742,454 L 743,455 L 742,456 L 740,456 L 739,457 L 737,457 L 736,456 L 735,456 Z M 616,440 L 622,440 L 623,441 L 624,441 L 625,442 L 625,443 L 626,444 L 626,445 L 627,446 L 627,449 L 628,450 L 628,468 L 627,469 L 627,472 L 626,473 L 626,474 L 622,478 L 617,478 L 616,477 L 615,477 L 611,473 L 611,469 L 612,468 L 612,465 L 613,464 L 613,453 L 612,452 L 612,448 L 611,447 L 611,445 L 612,444 L 612,443 L 614,441 L 615,441 Z M 524,439 L 525,439 L 526,440 L 528,440 L 532,444 L 532,445 L 533,446 L 532,447 L 532,450 L 531,451 L 531,455 L 530,456 L 530,461 L 531,462 L 531,467 L 532,468 L 532,471 L 533,472 L 533,473 L 532,474 L 532,475 L 529,478 L 528,478 L 527,479 L 522,479 L 521,478 L 520,478 L 517,475 L 517,474 L 516,473 L 516,471 L 515,470 L 515,465 L 514,464 L 514,453 L 515,452 L 515,447 L 516,446 L 516,444 L 519,441 L 520,441 L 521,440 L 523,440 Z M 1650,422 L 1649,423 L 1648,423 L 1650,423 L 1651,424 L 1650,425 L 1648,425 L 1647,426 L 1646,426 L 1645,427 L 1643,427 L 1642,428 L 1641,427 L 1641,426 L 1645,422 L 1646,422 L 1647,421 L 1649,421 Z M 1717,416 L 1718,416 L 1719,415 L 1720,415 L 1721,416 L 1722,416 L 1732,426 L 1732,427 L 1731,428 L 1729,428 L 1731,428 L 1732,427 L 1733,427 L 1734,428 L 1736,428 L 1738,430 L 1738,431 L 1740,433 L 1740,439 L 1741,440 L 1741,441 L 1742,442 L 1742,443 L 1743,444 L 1743,445 L 1744,446 L 1744,447 L 1745,448 L 1745,449 L 1746,450 L 1745,451 L 1744,451 L 1742,449 L 1742,448 L 1741,447 L 1741,446 L 1739,444 L 1739,443 L 1738,442 L 1738,441 L 1737,440 L 1737,437 L 1738,436 L 1736,434 L 1736,433 L 1735,432 L 1735,431 L 1734,431 L 1733,430 L 1728,430 L 1724,426 L 1725,425 L 1728,425 L 1727,424 L 1726,425 L 1725,425 L 1724,426 L 1722,424 L 1722,421 L 1720,419 L 1719,419 L 1718,418 L 1717,418 L 1716,417 Z M 1705,414 L 1706,413 L 1706,412 L 1707,411 L 1708,412 L 1709,412 L 1710,413 L 1711,413 L 1713,415 L 1711,417 L 1710,417 L 1709,416 L 1710,415 L 1709,416 L 1708,416 L 1707,415 L 1708,414 L 1707,415 L 1706,415 Z M 1695,407 L 1696,406 L 1700,406 L 1701,407 L 1703,407 L 1704,408 L 1705,408 L 1706,409 L 1706,410 L 1707,411 L 1706,412 L 1704,412 L 1703,413 L 1702,412 L 1702,410 L 1701,410 L 1700,409 L 1698,409 L 1697,408 L 1696,408 Z M 552,409 L 553,408 L 553,407 L 557,403 L 558,403 L 559,402 L 562,402 L 563,401 L 581,401 L 582,402 L 584,402 L 585,403 L 586,403 L 587,404 L 588,404 L 590,406 L 590,407 L 591,408 L 591,414 L 587,418 L 586,418 L 585,417 L 583,417 L 585,417 L 586,418 L 585,419 L 582,419 L 581,418 L 576,418 L 575,417 L 568,417 L 567,418 L 562,418 L 561,419 L 558,419 L 557,418 L 556,418 L 554,416 L 554,415 L 553,414 L 553,411 L 552,410 Z M 1608,402 L 1610,400 L 1620,400 L 1622,402 L 1627,402 L 1628,401 L 1631,401 L 1632,400 L 1639,400 L 1640,401 L 1642,401 L 1643,402 L 1650,402 L 1651,401 L 1661,401 L 1662,402 L 1663,402 L 1664,403 L 1665,402 L 1684,402 L 1685,403 L 1686,403 L 1687,404 L 1688,404 L 1690,406 L 1692,406 L 1693,407 L 1694,407 L 1695,408 L 1693,410 L 1689,410 L 1688,409 L 1684,409 L 1683,408 L 1683,406 L 1682,405 L 1675,405 L 1673,407 L 1661,407 L 1660,406 L 1660,404 L 1652,404 L 1652,405 L 1650,407 L 1644,407 L 1643,406 L 1639,406 L 1638,405 L 1639,404 L 1638,403 L 1630,403 L 1630,405 L 1629,406 L 1617,406 L 1616,405 L 1616,403 L 1609,403 Z M 588,397 L 589,396 L 589,395 L 591,393 L 592,393 L 593,394 L 594,394 L 595,395 L 596,395 L 597,396 L 599,396 L 601,398 L 601,399 L 602,400 L 602,402 L 601,403 L 600,402 L 599,402 L 598,401 L 597,401 L 596,400 L 597,399 L 597,398 L 595,398 L 596,398 L 597,399 L 596,400 L 594,400 L 593,399 L 591,399 L 590,398 L 589,398 Z M 525,391 L 526,392 L 526,393 L 527,394 L 524,397 L 523,397 L 520,400 L 519,400 L 518,401 L 517,401 L 516,400 L 518,398 L 519,398 L 519,397 Z M 1227,391 L 1231,389 L 1239,389 L 1243,392 L 1241,393 L 1247,393 L 1244,392 L 1253,389 L 1261,389 L 1264,391 L 1280,390 L 1281,392 L 1287,392 L 1291,390 L 1311,391 L 1313,393 L 1320,391 L 1322,392 L 1331,391 L 1333,393 L 1356,392 L 1357,394 L 1365,394 L 1368,392 L 1378,392 L 1383,394 L 1384,393 L 1395,394 L 1413,393 L 1416,395 L 1445,394 L 1448,396 L 1462,395 L 1466,397 L 1469,397 L 1471,395 L 1475,396 L 1480,395 L 1483,397 L 1484,396 L 1494,397 L 1508,396 L 1510,398 L 1527,397 L 1530,399 L 1534,397 L 1542,397 L 1543,400 L 1550,400 L 1551,398 L 1556,399 L 1570,398 L 1572,400 L 1592,399 L 1595,401 L 1604,400 L 1607,401 L 1608,404 L 1606,406 L 1593,405 L 1592,404 L 1593,402 L 1594,403 L 1582,402 L 1580,405 L 1569,404 L 1566,401 L 1559,401 L 1557,404 L 1545,404 L 1541,402 L 1540,400 L 1541,399 L 1538,399 L 1537,401 L 1534,401 L 1533,403 L 1526,403 L 1525,400 L 1519,400 L 1517,403 L 1507,402 L 1506,399 L 1499,399 L 1496,401 L 1495,400 L 1496,401 L 1495,402 L 1487,399 L 1480,402 L 1479,398 L 1471,398 L 1469,401 L 1460,401 L 1459,400 L 1460,399 L 1468,399 L 1461,399 L 1459,397 L 1450,398 L 1449,401 L 1435,400 L 1434,399 L 1435,397 L 1427,397 L 1426,400 L 1412,400 L 1410,396 L 1403,396 L 1401,399 L 1390,399 L 1389,398 L 1390,396 L 1383,396 L 1381,399 L 1380,397 L 1379,399 L 1378,395 L 1371,395 L 1368,396 L 1367,398 L 1354,398 L 1352,395 L 1344,395 L 1343,398 L 1329,397 L 1328,394 L 1321,394 L 1319,397 L 1303,397 L 1302,394 L 1291,393 L 1289,396 L 1278,396 L 1277,395 L 1278,393 L 1270,392 L 1269,396 L 1262,396 L 1257,392 L 1252,392 L 1249,395 L 1238,395 L 1237,392 Z M 1085,387 L 1086,386 L 1089,386 L 1090,385 L 1094,385 L 1097,387 L 1101,387 L 1102,386 L 1112,386 L 1115,389 L 1116,389 L 1118,387 L 1119,387 L 1120,386 L 1125,386 L 1126,387 L 1128,387 L 1129,386 L 1133,386 L 1134,387 L 1135,387 L 1136,386 L 1137,387 L 1140,387 L 1141,388 L 1142,388 L 1144,390 L 1147,390 L 1148,391 L 1149,391 L 1148,391 L 1147,390 L 1148,389 L 1149,389 L 1150,388 L 1155,388 L 1156,387 L 1165,387 L 1166,388 L 1166,389 L 1175,389 L 1177,387 L 1185,387 L 1186,388 L 1187,387 L 1190,390 L 1194,390 L 1197,388 L 1206,388 L 1207,389 L 1209,389 L 1210,388 L 1216,388 L 1217,389 L 1219,389 L 1221,391 L 1227,391 L 1228,392 L 1226,395 L 1225,394 L 1212,394 L 1211,393 L 1211,391 L 1204,391 L 1203,392 L 1202,392 L 1202,393 L 1201,394 L 1186,394 L 1185,393 L 1185,391 L 1179,391 L 1178,390 L 1176,393 L 1163,393 L 1162,392 L 1162,390 L 1154,390 L 1154,392 L 1153,393 L 1139,393 L 1138,392 L 1137,393 L 1136,392 L 1136,389 L 1128,389 L 1126,392 L 1111,392 L 1110,391 L 1110,389 L 1102,389 L 1101,390 L 1101,391 L 1100,392 L 1099,392 L 1098,391 L 1093,391 L 1092,390 L 1092,389 L 1088,389 Z M 1068,386 L 1069,385 L 1080,385 L 1082,387 L 1085,387 L 1086,388 L 1085,389 L 1085,390 L 1084,391 L 1078,391 L 1077,390 L 1078,389 L 1083,389 L 1078,389 L 1077,388 L 1071,388 L 1070,387 L 1069,387 Z M 1026,385 L 1027,384 L 1031,384 L 1032,385 L 1033,385 L 1034,386 L 1037,386 L 1038,385 L 1041,385 L 1042,384 L 1053,384 L 1054,385 L 1054,387 L 1057,387 L 1058,386 L 1059,386 L 1060,385 L 1067,385 L 1068,386 L 1068,389 L 1067,390 L 1051,390 L 1050,389 L 1050,387 L 1041,387 L 1041,389 L 1040,390 L 1028,390 L 1027,389 L 1027,387 L 1026,386 Z M 533,386 L 534,385 L 535,385 L 537,383 L 539,383 L 540,384 L 542,384 L 543,385 L 542,386 L 541,386 L 540,387 L 539,387 L 538,388 L 536,388 L 535,387 L 534,387 Z M 938,383 L 940,381 L 946,381 L 947,382 L 949,382 L 950,383 L 951,383 L 952,384 L 955,384 L 956,383 L 957,383 L 958,382 L 975,382 L 976,383 L 976,385 L 979,385 L 980,384 L 982,384 L 982,383 L 983,382 L 990,382 L 991,383 L 1002,383 L 1003,384 L 1003,385 L 1008,385 L 1009,384 L 1011,384 L 1012,383 L 1016,383 L 1018,385 L 1018,386 L 1017,387 L 1017,388 L 1016,389 L 1015,388 L 1015,387 L 1015,388 L 1014,389 L 998,389 L 997,388 L 998,387 L 998,386 L 987,386 L 987,388 L 986,389 L 982,389 L 981,388 L 970,388 L 969,387 L 969,385 L 960,385 L 960,386 L 961,387 L 960,388 L 945,388 L 944,387 L 944,385 L 943,384 L 939,384 Z M 1552,381 L 1553,380 L 1564,380 L 1565,381 L 1564,382 L 1553,382 Z M 905,382 L 906,381 L 907,381 L 908,380 L 914,380 L 917,383 L 920,383 L 921,382 L 923,382 L 924,381 L 926,381 L 927,382 L 928,381 L 932,381 L 934,383 L 937,383 L 938,384 L 937,385 L 936,385 L 936,386 L 935,387 L 929,387 L 928,386 L 928,385 L 927,384 L 922,384 L 919,387 L 913,387 L 912,386 L 912,384 L 909,384 L 908,383 L 907,384 Z M 1333,377 L 1334,376 L 1347,376 L 1348,377 L 1347,378 L 1334,378 Z M 1286,376 L 1287,375 L 1297,375 L 1298,376 L 1297,377 L 1287,377 Z M 573,376 L 572,377 L 572,378 L 571,379 L 564,379 L 563,380 L 558,380 L 557,381 L 556,381 L 555,380 L 555,379 L 552,379 L 551,378 L 552,377 L 554,377 L 555,376 L 557,376 L 559,378 L 560,378 L 561,377 L 565,377 L 566,376 L 569,376 L 570,375 L 572,375 Z M 646,377 L 647,376 L 653,376 L 657,374 L 658,375 L 660,374 L 663,375 L 668,374 L 669,375 L 685,375 L 686,376 L 689,376 L 690,375 L 700,375 L 701,377 L 703,378 L 701,379 L 705,379 L 706,377 L 708,377 L 711,375 L 716,375 L 717,376 L 725,376 L 728,375 L 730,377 L 738,377 L 741,375 L 742,376 L 750,376 L 753,378 L 755,377 L 762,377 L 763,376 L 767,376 L 768,377 L 769,376 L 771,378 L 773,378 L 775,376 L 787,376 L 789,378 L 808,377 L 812,380 L 816,378 L 817,379 L 820,378 L 829,378 L 830,379 L 833,379 L 834,378 L 843,378 L 847,381 L 850,381 L 856,378 L 867,379 L 869,381 L 872,381 L 873,380 L 881,380 L 882,381 L 886,381 L 887,380 L 899,380 L 901,382 L 904,382 L 905,383 L 903,384 L 902,386 L 892,386 L 890,383 L 883,383 L 881,386 L 871,386 L 870,385 L 866,385 L 865,384 L 867,383 L 865,382 L 856,382 L 854,385 L 841,385 L 840,384 L 841,382 L 840,381 L 838,382 L 833,382 L 832,384 L 824,384 L 823,383 L 824,381 L 814,381 L 813,384 L 807,384 L 806,383 L 807,382 L 812,382 L 806,382 L 805,384 L 803,380 L 797,380 L 795,383 L 782,383 L 781,382 L 781,378 L 773,380 L 772,383 L 767,383 L 766,382 L 768,381 L 764,382 L 763,379 L 759,379 L 757,382 L 749,382 L 748,379 L 739,379 L 738,381 L 729,381 L 726,382 L 725,381 L 725,378 L 718,378 L 717,381 L 713,381 L 712,380 L 710,381 L 698,381 L 697,378 L 687,378 L 688,379 L 687,380 L 678,380 L 677,379 L 678,378 L 675,378 L 674,379 L 667,380 L 666,377 L 659,377 L 657,380 L 652,380 L 650,378 L 647,378 Z M 1149,374 L 1150,373 L 1166,373 L 1167,374 L 1166,375 L 1150,375 Z M 617,375 L 619,373 L 625,373 L 626,374 L 627,374 L 628,375 L 633,375 L 634,374 L 636,374 L 637,373 L 644,373 L 646,375 L 646,376 L 645,377 L 637,377 L 637,378 L 636,379 L 625,379 L 624,378 L 624,376 L 623,375 L 620,375 L 619,376 L 618,376 Z M 594,374 L 595,373 L 606,373 L 607,374 L 609,374 L 610,375 L 615,375 L 616,376 L 615,377 L 615,378 L 614,379 L 604,379 L 603,378 L 603,376 L 596,376 Z M 572,375 L 573,374 L 574,374 L 575,373 L 577,373 L 578,374 L 580,374 L 581,373 L 583,373 L 584,374 L 584,375 L 585,376 L 586,376 L 587,377 L 588,376 L 589,376 L 590,375 L 592,375 L 593,376 L 593,378 L 592,379 L 591,378 L 589,378 L 588,379 L 586,379 L 585,378 L 581,378 L 580,377 L 580,376 L 573,376 Z" fill="black" fill-rule="evenodd"/>
</svg>