<?xml version="1.0" encoding="UTF-8" standalone="no"?>
<svg
   width="700"
   height="250"
   viewBox="0 0 700 250"
   version="1.1"
   id="svg1"
   sodipodi:docname="t70_black.svg"
   inkscape:version="1.4.2 (f4327f4, 2025-05-13)"
   xmlns:inkscape="http://www.inkscape.org/namespaces/inkscape"
   xmlns:sodipodi="http://sodipodi.sourceforge.net/DTD/sodipodi-0.dtd"
   xmlns="http://www.w3.org/2000/svg"
   xmlns:svg="http://www.w3.org/2000/svg">
  <defs
     id="defs1" />
  <sodipodi:namedview
     id="namedview1"
     pagecolor="#ffffff"
     bordercolor="#000000"
     borderopacity="0.25"
     inkscape:showpageshadow="2"
     inkscape:pageopacity="0.0"
     inkscape:pagecheckerboard="0"
     inkscape:deskcolor="#d1d1d1"
     inkscape:zoom="0.55616943"
     inkscape:cx="751.56954"
     inkscape:cy="155.52815"
     inkscape:window-width="2560"
     inkscape:window-height="1377"
     inkscape:window-x="-8"
     inkscape:window-y="-8"
     inkscape:window-maximized="1"
     inkscape:current-layer="svg1" />
  <path
     d="m 659.97201,157.82135 -9.43145,-17.14806 -6.43053,-3.00091 5.57309,-16.29066 -29.15167,-25.293382 -0.8574,-5.573118 -5.57312,3.429615 -5.14442,-12.003647 h -57.01729 l -1.2861,-6.001818 -23.14988,0.4287 -0.8574,4.715717 -17.14806,-0.857401 -12.00364,6.85922 -1.28611,-2.572204 -15.86195,2.572204 -30.8665,-57.874692 -49.72937,-0.857402 -0.8574,-3.000914 3.42961,-0.4287 -1.71481,-3.429605 -24.00728,-3.000915 -15.43326,3.429615 1.71482,6.430519 -35.58222,0.857402 -3.85832,-2.572204 -8.14533,7.28792 -17.57676,3.858316 -2.5722,-5.144418 -9.86013,0.857402 -8.57404,4.715716 -7.71663,9.860134 -26.15078,4.715717 H 77.366718 l -7.71663,-3.429615 -22.292472,0.857401 0.857401,14.14715 h 21.00637 l 8.145331,-3.429614 H 242.41678 l 13.28974,4.715716 h 11.57494 l 8.14533,13.289749 13.28974,6.430519 -70.73574,1.714803 -44.58494,34.296114 -59.58951,0.85741 -10.71753,5.57311 -21.435076,20.57767 6.85922,5.57312 5.144417,-2.1435 6.859219,8.57403 -1.286101,17.14805 10.717541,19.29157 56.15989,27.86559 39.01183,13.71845 h 324.09829 l 81.02458,-18.86287 16.29065,-6.85922 13.71845,-18.43416 -0.8574,-24.00728 9.00269,-9.00273 5.57312,1.2861 z m -444.56342,72.02184 0.4287,-0.4287 h 0.4287 l 0.4287,-0.4287 h 3.00091 l 0.4287,0.4287 v 0.4287 l -0.4287,0.4287 -0.4287,-0.4287 0.4287,0.4287 -0.8574,0.85741 h -2.57221 l -0.4287,-0.42871 v -0.4287 z m 315.52426,-0.8574 v 0.8574 l -0.4287,0.4287 -0.4287,-0.4287 h -0.42871 0.42871 l 0.4287,0.4287 -0.4287,0.4287 h -2.14351 l -0.8574,-0.8574 v -0.4287 l 0.4287,-0.4287 h 2.1435 l 0.42871,-0.4287 h 0.4287 z m -13.71845,0 0.4287,-0.4287 0.42871,0.4287 h 2.14351 l 0.4287,0.4287 h 0.4287 l 0.4287,0.4287 -0.4287,0.4287 v 0.4287 l -0.4287,0.42871 h -2.14351 l -0.4287,-0.42871 v -0.4287 l 0.4287,-0.4287 0.4287,0.4287 h 1.28611 -0.4287 l -0.42871,-0.4287 h -0.8574 l -0.4287,0.4287 -0.85741,-0.8574 z m -63.01911,0 -0.4287,0.4287 v 0.4287 l -0.4287,0.4287 -0.42871,-0.4287 h -1.7148 v 0.4287 h 1.2861 l 0.4287,-0.4287 0.42871,0.4287 v 0.4287 l -0.42871,0.42871 h -2.1435 l -0.4287,-0.42871 v -0.4287 l -0.4287,-0.4287 0.8574,-0.8574 h 1.7148 l 0.4287,-0.4287 h 0.85741 z m -14.57585,0 0.4287,-0.4287 h 0.85741 l 0.4287,0.4287 h 1.7148 l 0.42871,0.4287 -0.42871,0.4287 h -0.8574 v 0.4287 h 0.8574 l 0.42871,0.4287 -0.42871,0.42871 h -1.7148 l -1.28611,-1.28611 v -0.4287 z m -62.5904,0 -0.42871,0.4287 v 0.4287 l -0.85741,0.8574 -0.4287,-0.4287 0.4287,0.4287 -0.4287,0.42871 h -1.7148 l -1.2861,-1.28611 v -0.4287 l 0.4287,-0.4287 h 2.5722 l 0.4287,0.4287 -0.4287,-0.4287 0.4287,-0.4287 h 0.85741 z m -15.00456,0 0.4287,-0.4287 h 0.85741 l 0.4287,0.4287 h 2.1435 l 0.85741,0.8574 -0.42871,0.4287 v 0.4287 l -0.4287,0.42871 h -2.5722 l -0.4287,-0.42871 v -0.4287 l -0.42871,-0.4287 v -0.4287 z m -62.59041,0 v 0.4287 l -0.85741,0.8574 -0.4287,-0.4287 h -1.7148 v 0.4287 h 1.7148 l 0.4287,0.4287 -0.4287,0.42871 h -2.1435 l -0.4287,-0.42871 v -0.4287 l -0.4287,-0.4287 v -0.4287 l 0.4287,-0.4287 h 1.7148 l 0.4287,-0.4287 h 1.28611 z m -94.31432,0.4287 v -0.8574 l 0.4287,-0.4287 h 0.4287 l 0.4287,0.4287 h 1.28611 l 0.4287,0.4287 -0.4287,0.4287 h -0.4287 v 0.4287 l -0.4287,0.4287 h -0.42871 l -0.4287,0.4287 -0.4287,-0.4287 v -0.4287 z m 335.67324,-5.57312 0.4287,0.4287 v 1.71481 l -0.4287,0.4287 v 0.8574 l -0.4287,0.4287 -0.42871,-0.4287 -0.4287,0.4287 h -0.42871 0.85741 l 0.42871,0.42871 -0.42871,0.4287 h -0.85741 l -0.4287,0.4287 h -0.8574 l -0.8574,-0.8574 v -0.42871 l -0.8574,-0.8574 0.4287,-0.4287 h 0.4287 l 0.4287,-0.4287 h 0.4287 l 0.8574,-0.85741 h 0.4287 l 0.42871,-0.4287 h 0.4287 z m -231.49879,0 0.8574,0.8574 -0.4287,0.4287 h -0.4287 v 0.4287 l -0.4287,0.42871 -0.4287,-0.42871 h -0.4287 0.4287 l 0.4287,0.42871 v 0.8574 l -0.4287,0.4287 v 0.4287 l -0.4287,0.42871 v 0.4287 l -0.4287,0.4287 v 0.4287 l -0.4287,0.4287 -0.4287,-0.4287 v -0.8574 l -0.4287,-0.4287 v -0.42871 h -0.42871 l -0.4287,0.42871 v 1.2861 l -0.42871,0.4287 -0.4287,-0.4287 v -0.8574 l -0.4287,-0.4287 v -1.28611 l 0.8574,-0.8574 h 0.42871 l 0.4287,-0.42871 h 0.42871 l 0.4287,-0.4287 h 0.4287 l 0.4287,-0.4287 h 0.4287 l 0.8574,-0.8574 z m -114.03458,0 0.4287,-0.4287 h 0.4287 l 0.8574,0.8574 h 0.4287 l 0.85741,0.8574 h 0.4287 l 0.8574,0.85741 h 0.42871 l 0.8574,0.8574 -2.14351,2.14351 h -1.71481 l -1.2861,-1.28611 v -1.2861 l -0.4287,-0.4287 z m 399.54974,-14.14715 0.4287,-0.4287 h 0.4287 l 0.42871,0.4287 h 0.85741 l 0.4287,0.4287 h 1.2861 l 0.4287,0.42871 h 2.1435 l 0.42871,0.4287 v 1.2861 l -0.42871,0.4287 v 0.4287 l -0.4287,0.4287 v 0.42871 l -0.4287,0.4287 h -0.4287 l -0.4287,-0.4287 0.4287,-0.42871 -0.4287,-0.4287 h -0.4287 v 0.85741 l -0.8574,0.8574 -1.2861,-1.28611 v -0.4287 l -0.85741,-0.8574 v -0.4287 l -0.42871,-0.4287 v -0.4287 l -0.8574,-0.85741 z m 23.57859,-2.5722 0.8574,0.8574 v 0.4287 l -0.4287,0.4287 h -0.8574 l -0.85741,0.8574 -1.28611,-1.2861 0.4287,-0.4287 h 0.4287 l 0.42871,-0.4287 h 0.42871 l 0.4287,-0.4287 z m 6.85922,-5.57312 0.8574,0.8574 v 0.8574 l -1.2861,1.2861 h -0.85741 l -0.8574,-0.8574 z M 130.5257,200.6915 v -1.71482 l 0.4287,-0.4287 h 3.85831 l 0.4287,0.4287 -0.4287,0.42871 h -2.5722 1.2861 l 0.4287,0.4287 -0.8574,0.85741 h -0.4287 l -0.4287,0.4287 h -1.28611 z m 392.26182,-7.28793 h 1.7148 l 0.42871,0.4287 h 0.42871 l 0.4287,0.4287 h 0.4287 l 0.4287,0.4287 h 0.4287 l 0.8574,0.85741 v 0.4287 l 0.4287,0.4287 v 0.4287 l 0.4287,0.4287 v 3.00092 l -0.4287,0.4287 v 0.4287 l -0.4287,0.4287 v 0.4287 l -0.8574,0.8574 h -0.4287 l -0.4287,0.4287 h -0.4287 l -0.4287,0.4287 h -0.85742 l -0.4287,0.4287 h -1.2861 l -0.4287,-0.4287 h -0.8574 l -0.4287,-0.4287 h -0.4287 l -1.28611,-1.2861 v -0.4287 l -0.4287,-0.4287 v -0.4287 l -0.4287,-0.4287 v -3.42962 l 0.4287,-0.4287 v -0.4287 l 1.71481,-1.71481 h 0.8574 l 0.4287,-0.4287 h 0.4287 z m -76.73756,0 h 1.28611 l 0.4287,0.4287 h 0.85741 l 0.4287,0.4287 -0.4287,0.4287 h -0.42871 0.42871 l 0.4287,-0.4287 h 0.4287 l 2.1435,2.14351 v 0.8574 l 0.4287,0.4287 v 2.14351 l -0.4287,0.42871 v 0.8574 l -2.1435,2.1435 h -0.4287 l -0.4287,0.4287 h -0.85741 l -0.4287,0.4287 h -1.28611 l -0.4287,-0.4287 h -0.8574 l -0.4287,-0.4287 h -0.4287 l -1.71481,-1.7148 v -0.4287 l -0.4287,-0.4287 v -0.85741 l -0.4287,-0.4287 v -1.28611 l 0.4287,-0.4287 v -0.8574 l 0.4287,-0.4287 v -0.4287 l 1.71481,-1.71481 h 0.4287 l 0.4287,-0.4287 h 0.8574 z m -76.73756,0 h 0.85741 l 0.4287,0.4287 h 1.28611 l 0.4287,0.4287 h 0.4287 l 1.7148,1.71481 v 0.4287 l 0.4287,0.4287 v 0.8574 l 0.4287,0.4287 v 1.28611 l -0.4287,0.4287 v 0.85741 l -0.4287,0.4287 v 0.4287 l -1.7148,1.7148 h -0.4287 l -0.4287,0.4287 h -1.28611 l -0.4287,0.4287 h -0.85741 l -0.4287,-0.4287 h -0.8574 l -0.4287,-0.4287 h -0.4287 l -2.14351,-2.1435 v -0.8574 l -0.4287,-0.42871 v -2.14351 l 0.4287,-0.4287 v -0.8574 l 2.14351,-2.14351 h 0.4287 l 0.4287,-0.4287 h 0.8574 z m -78.02366,0 h 1.28611 l 0.4287,0.4287 h 0.4287 l 0.4287,0.4287 h 0.4287 l 0.4287,0.4287 h 0.42871 l 1.2861,1.28611 v 0.4287 l 0.4287,0.4287 v 3.85832 l -0.8574,0.8574 v 0.4287 l -1.28611,1.2861 h -0.4287 l -0.4287,0.4287 h -0.8574 l -0.4287,0.4287 h -1.71481 l -0.4287,-0.4287 h -0.85741 l -0.4287,-0.4287 h -0.4287 l -1.2861,-1.2861 v -0.4287 l -0.4287,-0.4287 v -0.4287 l -0.4287,-0.4287 v -3.00092 l 0.4287,-0.4287 v -0.4287 l 0.4287,-0.4287 v -0.4287 l 0.8574,-0.85741 h 0.4287 l 0.8574,-0.8574 h 1.28611 z m -78.02367,0 h 1.71482 l 0.4287,0.4287 h 0.8574 l 0.8574,0.8574 h 0.4287 l 0.8574,0.85741 v 0.4287 l -0.4287,0.4287 0.4287,-0.4287 0.42871,0.4287 v 0.4287 l 0.4287,0.4287 v 3.00092 l -0.4287,0.4287 v 0.4287 l -0.42871,0.4287 v 0.4287 l -0.8574,0.8574 h -0.4287 l -0.4287,0.4287 h -0.4287 l -0.4287,0.4287 h -0.8574 l -0.4287,0.4287 h -1.28612 l -0.4287,-0.4287 h -0.8574 l -0.4287,-0.4287 h -0.4287 l -1.2861,-1.2861 v -0.4287 l -0.8574,-0.8574 v -3.85832 l 0.4287,-0.4287 v -0.4287 l 1.2861,-1.28611 h 0.4287 l 0.8574,-0.8574 h 0.8574 z m -20.14895,28.2943 -3.85832,3.8583 -0.8574,0.42871 -0.4287,-0.42871 h -0.85741 l -0.4287,-0.4287 0.8574,-0.4287 -0.8574,0.4287 -0.4287,-0.4287 v -1.7148 l -0.4287,-0.4287 v -4.28702 l -1.71481,-0.8574 -4.71571,4.71572 h -0.4287 l -0.4287,-0.4287 0.4287,-0.4287 v -0.85742 l -0.85741,0.42871 -0.4287,-0.42871 -0.42871,0.85742 -0.4287,-0.42871 v -3.42961 l -0.4287,-0.4287 v -3.00091 h -0.8574 l -0.4287,-0.42871 h -0.4287 l -3.42961,3.42962 -0.85741,-0.4287 h -1.2861 l -0.4287,0.4287 -0.4287,-0.4287 0.4287,0.4287 -0.8574,0.4287 -0.4287,-0.4287 v -1.2861 l -0.42871,-0.42871 v -5.14442 l -0.4287,-0.4287 h -1.7148 l -3.00092,3.00091 -0.4287,-0.4287 h -0.8574 0.8574 l 0.4287,0.4287 -1.7148,1.28611 -0.4287,-0.42871 H 158.82 l -0.4287,-0.4287 0.4287,-0.4287 -0.4287,0.4287 -0.4287,-0.4287 v -5.14441 l -0.4287,-0.4287 v -1.28611 h -0.85742 l -0.8574,-0.4287 -4.71571,4.28701 h -0.8574 l -1.71481,-1.2861 v -0.8574 l -0.4287,-0.4287 v -2.14352 l 0.4287,-0.4287 v -2.5722 l -0.4287,-0.4287 -2.14351,-0.4287 v 0.4287 l -0.8574,0.8574 h -0.4287 l -2.57221,2.5722 -0.85741,0.42871 h -0.8574 l -1.2861,-0.85741 -0.4287,-0.8574 v -3.85831 l 0.4287,-0.4287 v -1.28611 l 0.4287,-0.4287 2.1435,-0.4287 1.28611,-0.8574 h 0.85741 l 2.1435,-1.2861 0.8574,0.4287 h 36.01093 v -1.71481 l 0.4287,-0.4287 0.4287,0.4287 v 2.14351 l -0.4287,0.4287 v 4.71572 l 0.4287,0.4287 v 2.1435 l 0.4287,0.4287 v 2.14351 l 0.4287,0.42871 v 1.2861 l 0.8574,1.2861 v 0.8574 l 0.85741,1.28611 v 0.8574 l 0.4287,0.8574 0.8574,0.85741 v 0.4287 l 0.85741,0.8574 0.8574,1.71481 3.85832,4.28702 z m 283.37165,-33.01002 0.4287,0.8574 v -0.4287 l 0.8574,-0.4287 0.4287,-0.8574 0.85741,1.2861 v 1.28611 l 0.4287,0.4287 v 1.2861 l 0.4287,0.42871 v 2.57221 l 0.4287,0.4287 h 12.00364 v -1.71481 l 0.4287,-0.4287 0.4287,0.4287 v 2.57221 l -0.4287,0.4287 0.4287,7.28792 0.4287,0.4287 0.4287,3.00092 1.28611,2.5722 v 0.85741 l 1.2861,2.5722 3.00092,4.28702 4.71571,4.71572 4.28701,3.0009 2.57222,1.28611 h 0.8574 l 1.2861,0.8574 -0.8574,0.85741 v 0.8574 l -1.2861,1.71481 h -1.71481 l -0.42871,-0.42871 0.42871,-0.4287 h 1.2861 l -0.8574,-1.2861 -0.85741,1.7148 -0.8574,-0.8574 -0.8574,-3.00091 -1.2861,-2.14351 -1.71481,0.4287 -0.85741,1.71481 v 0.8574 l -0.8574,1.28611 v 0.8574 l -0.8574,0.8574 -0.4287,-0.4287 v -0.8574 l -1.2861,0.8574 h 1.2861 l 0.4287,0.4287 -0.4287,0.42871 h -1.7148 l -0.85741,-0.85741 v -0.8574 l -1.2861,-2.14351 v -0.8574 l -0.85741,-1.71481 h -1.7148 l -1.28611,2.14351 v 0.8574 l -1.2861,2.57221 -0.8574,0.85741 h -1.71481 l -0.4287,-0.42871 0.4287,-0.4287 h 1.28611 -1.28611 l -0.4287,-0.4287 -0.42871,0.4287 -0.4287,-0.4287 -0.8574,-3.00091 -1.2861,-2.14351 h -1.7148 l -0.4287,0.4287 -0.42871,1.71481 -0.8574,1.28611 v 0.8574 l -0.85741,1.2861 -0.4287,-0.8574 h -0.8574 v 0.4287 l -1.2861,0.8574 -0.85741,-0.8574 -0.8574,-3.00091 -1.2861,-2.14351 h -1.28611 l -0.8574,0.8574 -1.28611,2.57222 v 0.8574 l -1.2861,2.14351 h -1.7148 l -0.8574,-0.85741 -2.14352,-5.57312 h -1.7148 l -1.2861,2.14351 v 0.8574 l -0.85741,1.28611 v 0.8574 l -0.8574,0.8574 -1.71481,-1.7148 h -0.4287 v 0.8574 l -0.4287,0.4287 -0.4287,-0.4287 -0.8574,-2.57221 0.8574,-0.8574 2.57221,-1.28611 0.8574,0.4287 -0.4287,0.42871 0.8574,-0.42871 0.42871,0.42871 -1.28611,-0.85741 4.28701,-3.0009 3.85832,-3.85832 3.0009,-4.28701 1.71481,-3.42961 v -0.85741 l 1.28611,-2.5722 0.4287,-3.00092 0.4287,-0.4287 v -3.4296 l 0.4287,-0.42871 -0.4287,-6.43052 -0.4287,-0.4287 v -1.28611 l -0.8574,-1.7148 v -0.85741 z m -334.38713,1.71481 v 1.2861 l -0.42871,0.4287 v 0.42871 l -0.4287,0.4287 v 0.4287 l -0.8574,0.8574 h -0.4287 l -0.4287,0.4287 h -0.8574 l -0.4287,0.42871 h -1.2861 l -0.42871,0.4287 h -6.00182 l -0.4287,-0.4287 h -2.14351 l -0.4287,-0.42871 h -0.8574 l -1.28611,-1.2861 v -0.4287 l -0.4287,-0.4287 v -1.71481 l 0.4287,-0.4287 v -0.4287 l 0.4287,-0.42871 v -0.4287 l 1.28611,-1.2861 h 2.14351 l 0.4287,0.4287 h 2.14351 l 0.4287,0.4287 h 1.7148 l 0.4287,-0.4287 h 2.14351 l 0.42871,-0.4287 h 0.8574 l 0.4287,-0.4287 h 1.2861 l 0.8574,0.8574 h 0.4287 l 0.4287,0.4287 v 0.4287 l 0.4287,0.4287 v 0.42871 z m 256.36347,-4.71571 0.8574,-0.42871 0.4287,0.42871 0.4287,-0.85741 0.8574,1.28611 v 0.8574 l 1.28611,3.00091 v 1.2861 l 0.4287,0.4287 0.4287,3.85832 h 12.00364 l 0.4287,-0.4287 0.4287,0.4287 v 6.00182 l 0.4287,0.4287 v 2.5722 l 0.4287,0.4287 v 1.28611 l 0.4287,0.42871 0.85741,3.4296 3.85831,6.85923 6.00183,6.00182 4.7157,3.00091 -0.8574,0.4287 1.28611,-0.4287 2.14351,1.2861 v 1.28611 l -1.7148,2.57221 h -1.71482 l -0.8574,-0.85741 -0.4287,-1.7148 -1.7148,-3.42962 h -1.71481 l -1.71481,3.00092 v 0.8574 l -1.2861,2.14351 h -2.14351 l -0.4287,-0.42871 0.4287,-0.4287 h 1.28611 l -0.4287,-0.8574 -1.28611,0.8574 -0.8574,-0.8574 v -0.8574 l -0.8574,-1.28611 v -0.8574 l -0.85741,-1.71481 h -1.71481 l -0.8574,0.8574 -0.8574,3.00092 -1.2861,2.1435 -0.4287,-0.4287 h -1.71481 l -0.42871,0.4287 -1.7148,-3.00091 v -0.8574 l -1.2861,-2.14351 h -1.2861 l -0.85741,0.8574 v 0.85741 l -1.2861,2.14351 v 0.8574 l -1.28611,1.71481 h -1.7148 l -0.85741,-0.85741 0.4287,-0.8574 0.42871,0.4287 -0.42871,-0.4287 -0.4287,0.4287 -0.4287,-0.4287 -1.7148,-4.71572 h -1.71481 l -0.85741,0.8574 -2.1435,5.14442 -0.8574,-2.1435 -0.8574,0.4287 v 1.2861 l -0.4287,0.4287 -1.28611,-2.1435 -0.85741,-3.00092 -0.8574,-0.8574 h -0.8574 l -0.4287,-0.4287 0.4287,0.4287 -0.8574,0.4287 -0.4287,0.85741 -0.42871,-0.42871 h -0.8574 0.8574 l 0.42871,0.42871 v 0.8574 l -0.85741,1.28611 -0.4287,1.7148 -0.4287,0.4287 -0.4287,-0.4287 v -0.8574 l 0.4287,-0.4287 -0.4287,0.4287 h -0.8574 l -1.28611,1.7148 -0.4287,-0.4287 -1.28611,-3.00091 0.85741,-0.8574 3.00091,-1.28611 3.85831,-2.5722 5.14442,-5.14442 2.1435,-3.00091 2.14352,-4.28702 v -0.8574 l 1.2861,-3.00091 v -1.28611 l 0.4287,-0.4287 v -2.1435 l 0.4287,-0.4287 v -7.28793 l -0.4287,-0.4287 -0.4287,-3.42961 0.4287,-0.4287 0.4287,0.4287 0.4287,-0.8574 0.4287,0.4287 -0.4287,-0.85741 -0.4287,0.42871 -0.4287,-0.42871 v 0.85741 l -0.4287,0.4287 -0.4287,-0.4287 v -0.85741 l -1.2861,-3.0009 z m -78.45237,-0.42871 0.4287,0.42871 0.85741,-0.42871 0.4287,-0.85741 0.4287,0.42871 1.2861,2.57221 0.4287,2.1435 0.4287,0.42871 0.4287,3.42961 0.4287,0.4287 v 1.71481 h 13.28975 v -0.85741 l 0.4287,-0.4287 0.4287,0.4287 v 3.42961 l -0.4287,0.4287 v 1.28611 l 0.4287,0.42871 v 3.0009 l 0.4287,0.4287 v 1.71481 l 0.4287,0.4287 v 1.28611 l 1.28612,2.5722 v 0.85741 l 2.1435,4.28701 1.2861,1.28611 0.8574,1.7148 5.14442,5.14442 h 0.42871 l 2.1435,1.7148 3.85832,1.71481 0.8574,0.8574 -2.14351,3.85832 h -2.14351 l -1.2861,-1.28611 v -0.8574 l -1.71481,-3.00091 v -0.85741 l -0.8574,-0.4287 h -0.8574 l -0.8574,0.8574 -0.85741,1.71481 -0.4287,2.14351 -1.28611,1.71481 h -2.1435 l -0.4287,-0.42871 0.4287,-0.4287 h 1.7148 -0.4287 l -0.4287,-0.8574 -0.8574,0.4287 -0.4287,0.8574 -1.2861,-2.1435 v -0.85741 l -1.71482,-3.00091 h -1.2861 l -0.8574,0.8574 -0.4287,1.71481 -0.8574,1.28611 v 0.8574 l -1.28611,1.71481 h -2.14351 l -0.4287,-0.42871 0.8574,-0.4287 -0.8574,0.4287 -0.4287,-0.4287 0.4287,-0.8574 -0.4287,0.4287 -0.4287,-0.4287 -1.28611,-2.57221 v -0.8574 l -0.8574,-1.28611 h -1.7148 l -1.71481,3.00091 -0.4287,1.71481 -0.42871,0.4287 -1.2861,-0.8574 -1.2861,1.7148 -0.8574,-0.8574 -0.4287,-1.7148 -1.71481,-3.42962 h -1.28611 l -0.8574,0.4287 -0.4287,1.71481 -1.7148,3.42961 -0.85741,0.85741 -1.2861,-0.42871 -0.85741,-0.8574 -1.7148,-4.71572 h -0.4287 l -1.28611,-1.2861 1.28611,-1.2861 h 0.4287 l 4.71572,-4.71572 v -0.4287 l 1.2861,-1.2861 2.1435,-3.42962 0.4287,0.4287 -0.4287,-0.8574 1.71482,-3.42961 v -0.8574 l 0.8574,-1.71481 v -1.71481 l 0.4287,-0.4287 v -3.0009 l 0.4287,-0.4287 v -4.71572 l -0.4287,-0.4287 v -2.57221 l -0.4287,-0.4287 -0.4287,-3.00092 -1.71482,-3.4296 z m 230.64138,-1.28611 0.4287,-0.4287 0.4287,0.4287 h 1.2861 l 0.4287,-0.8574 0.42871,0.4287 0.8574,1.71481 v 0.85741 l 0.8574,1.2861 0.42871,2.1435 0.4287,0.42871 v 1.2861 l 0.4287,0.4287 v 2.57221 l 0.4287,0.4287 v 0.85741 h 21.00637 l 0.4287,-0.85741 0.8574,1.71481 0.8574,0.8574 0.4287,1.2861 1.28612,1.28611 v 0.42871 l 3.8583,3.8583 h 0.42871 l 2.5722,2.14351 1.28611,0.42871 0.8574,0.8574 2.57221,1.2861 -0.8574,0.8574 h -0.4287 v 0.85741 l -0.4287,0.4287 v 2.1435 l -0.4287,0.4287 v 1.71481 l -0.85741,1.28611 -2.14351,0.4287 -2.57221,-2.57221 v -0.4287 l -1.7148,-2.14351 h -1.2861 l -0.8574,0.4287 v 1.2861 l -0.42871,0.42871 v 1.71481 l -0.4287,0.4287 v 1.2861 l -0.85741,1.2861 -0.4287,-0.8574 h -0.8574 l -1.2861,0.8574 -1.2861,-1.2861 v -0.4287 l -0.85741,-0.8574 -0.8574,-1.71481 -0.42871,-0.4287 h -0.8574 l -0.4287,0.4287 h -0.8574 v 0.8574 l -0.4287,0.42871 v 1.2861 l -0.4287,0.4287 v 1.7148 l -0.4287,0.4287 v 1.28611 l -0.42871,0.42871 h -0.8574 l -0.4287,0.4287 h -1.2861 l -2.14352,-2.57222 -1.2861,-2.5722 h -2.1435 l -0.4287,0.4287 v 1.2861 l -0.4287,0.4287 v 1.7148 l -0.4287,0.42871 v 1.28611 l -0.85742,1.7148 h -1.2861 l -0.4287,0.4287 -2.1435,-2.1435 0.4287,-0.8574 -0.4287,0.4287 -2.14351,-3.00092 h -1.28611 l -0.8574,0.4287 v 1.2861 l -0.4287,0.42871 v 1.28611 l -0.4287,0.4287 v 1.7148 l -0.4287,0.4287 v 0.8574 l -0.42871,0.42871 h -0.8574 l -0.4287,-0.85741 h -1.2861 l -0.4287,0.4287 -0.85741,-0.8574 -1.28611,-2.5722 -0.8574,-0.8574 3.42962,-3.42962 v -0.4287 l 1.2861,-1.2861 0.8574,-1.71481 0.85741,-0.85741 0.4287,0.42871 -0.4287,-0.85741 2.1435,-4.28701 v -0.8574 l 0.85741,-1.71481 v -1.28611 l 0.4287,-0.4287 v -2.5722 l 0.4287,-0.4287 v -6.43052 l -0.4287,-0.42871 v -1.7148 l -0.4287,-0.4287 v -1.28611 l -0.42871,-0.4287 v -1.28611 l -0.4287,-0.4287 v -0.8574 l 0.4287,-0.4287 h 1.28611 l -0.4287,-0.8574 -0.85741,0.4287 -0.4287,-0.8574 -0.4287,0.8574 z m -75.88016,-3.0009 1.28611,1.2861 v 0.4287 l 0.4287,0.4287 v 0.4287 l 0.4287,0.4287 v 0.4287 l 0.4287,0.42871 v 0.4287 l 0.4287,0.42871 v 0.8574 l 0.4287,0.4287 v 0.8574 l -0.4287,0.4287 h -0.4287 l -0.4287,0.4287 -0.4287,-0.4287 v -0.4287 0.8574 l -0.4287,0.4287 -0.42871,-0.4287 v -0.8574 l -0.4287,-0.4287 v -0.4287 l -0.4287,-0.4287 v -0.4287 l -0.4287,-0.4287 v -0.85741 l 0.4287,-0.42871 0.4287,0.42871 v 0.4287 l 0.85741,-0.85741 -0.42871,-0.4287 -0.4287,0.4287 h -0.4287 l -0.4287,0.42871 -0.85741,-0.85741 v -0.4287 l -0.4287,-0.4287 v -0.4287 l -0.4287,-0.4287 0.4287,-0.4287 h 0.4287 l 0.42871,-0.4287 h 0.4287 z m 74.59405,0.8574 0.8574,-0.8574 h 0.85741 l 0.4287,-0.4287 0.8574,0.8574 v 0.4287 l 0.8574,0.8574 v 0.4287 l -0.4287,0.4287 -0.4287,-0.4287 h -0.4287 l -0.4287,0.4287 h -0.4287 l -0.4287,0.4287 -0.85741,-0.8574 v -0.4287 l -0.4287,-0.4287 z m -127.75303,-1.2861 0.4287,0.4287 v 0.4287 l -0.8574,0.8574 v 0.4287 l -0.8574,0.8574 v 0.4287 l -0.8574,0.85741 -0.42871,-0.42871 v -0.4287 l 0.42871,-0.4287 v -0.4287 l 0.8574,-0.8574 v -0.4287 z m -181.76941,0.4287 0.4287,0.4287 1.7148,-0.8574 1.71481,2.1435 3.00091,7.28793 0.8574,5.57312 h 12.86105 l 0.4287,-0.85741 0.4287,0.42871 v 2.5722 l -0.4287,0.4287 0.4287,0.8574 v 4.28702 l 0.4287,0.4287 v 2.14351 l 1.71481,3.85831 v 0.85741 l 4.28701,7.28792 4.28702,4.28702 5.57312,3.85831 -0.85741,0.4287 1.28611,-0.4287 3.42961,1.7148 -1.2861,2.57221 -0.4287,-0.4287 h -1.28611 l -0.4287,0.4287 h 1.2861 l 0.42871,0.4287 -0.42871,0.42871 h -2.14351 l -0.4287,-0.42871 -1.2861,-3.85831 -1.28611,-2.14351 h -1.2861 l -0.8574,0.8574 -1.2861,3.85832 -1.28612,1.71481 h -2.1435 l -2.1435,-4.28702 v -0.8574 l -0.85741,-1.28611 h -1.71481 l -0.4287,0.4287 -1.2861,3.85832 -1.2861,2.14351 h -2.14351 l -0.4287,-0.42871 0.4287,-0.4287 h 1.7148 v -0.4287 l -2.1435,0.8574 -0.85741,-0.8574 -0.4287,-1.2861 0.4287,-1.28611 -0.4287,0.85741 -1.71481,-3.42962 h -1.7148 l -3.00091,6.00182 -0.42871,-0.8574 -0.8574,-0.4287 -1.7148,0.8574 -0.4287,-0.4287 -2.14351,-5.14442 h -1.71481 l -2.1435,3.85832 v 0.8574 l -1.28611,1.71481 h -2.1435 l -0.4287,-0.42871 -2.57222,-6.00182 h -1.2861 l -0.8574,0.8574 -0.8574,3.00092 -1.2861,2.1435 -0.4287,-0.8574 -1.28612,-0.4287 -1.2861,0.8574 -1.2861,-2.1435 0.4287,-1.28611 2.57221,-1.28611 2.57221,0.42871 h -1.2861 l -0.4287,-0.42871 5.14441,-3.4296 3.85831,-3.85832 3.00091,-4.28701 3.42962,-7.71663 0.4287,-4.28701 0.4287,-0.4287 v -6.43052 l -0.4287,-0.42871 v -1.7148 l -0.4287,-0.4287 v -1.28611 l -1.28611,-3.85831 0.4287,-0.4287 0.4287,0.8574 h 1.28611 l -0.4287,-0.8574 h -1.28611 l -0.4287,0.4287 -1.71481,-3.42962 0.4287,-0.4287 1.28611,0.4287 v -0.8574 h -0.85741 l -0.8574,0.8574 -1.7148,-2.1435 z m 27.00819,-0.8574 0.4287,0.4287 v 0.4287 l -0.8574,0.8574 v 0.4287 l -0.8574,0.8574 v 0.4287 l -0.8574,0.8574 -0.42871,-0.4287 v -0.4287 l 0.42871,-0.4287 v -0.4287 l 0.8574,-0.8574 v -0.4287 z m 128.61043,-0.42871 h 0.8574 l 0.4287,-0.4287 0.85741,0.85741 v 0.4287 l 0.85741,0.8574 v 0.4287 l -0.4287,0.4287 -0.42871,-0.4287 h -1.28611 l 0.4287,0.4287 h 1.28612 l 0.4287,-0.4287 0.8574,0.8574 v 0.4287 l 0.4287,0.4287 v 0.4287 l 0.4287,0.4287 v 0.42871 l -0.4287,0.4287 -0.4287,-0.4287 -0.4287,0.4287 h -0.4287 l -0.4287,-0.4287 -0.42871,0.4287 -0.4287,-0.4287 v -0.42871 l -0.85741,-0.8574 v -0.4287 l -0.8574,-0.8574 v -0.4287 l -0.8574,-0.8574 v -0.4287 z m -77.16626,-0.8574 0.8574,0.8574 v 0.42871 l 1.28611,1.2861 v 0.4287 l 0.42871,0.4287 v 0.4287 l 0.8574,0.8574 v 0.8574 l -0.4287,0.42871 -0.4287,-0.42871 h -0.85741 v 0.85741 l -0.42871,0.42871 -0.4287,-0.42871 v -0.4287 l -0.4287,-0.42871 v -0.4287 l -0.4287,-0.4287 v -0.4287 l -0.8574,-0.8574 v -0.4287 l 0.4287,-0.4287 0.4287,0.4287 h 1.2861 l -0.4287,-0.4287 h -1.2861 l -0.4287,0.4287 -1.2861,-1.2861 v -0.4287 l 0.4287,-0.42871 h 0.4287 l 0.4287,-0.4287 h 0.4287 z m 284.65776,-1.28611 h 2.14351 l 0.4287,0.4287 -0.4287,0.42871 h -1.2861 1.2861 l 0.4287,-0.42871 h 0.8574 l 0.42871,0.42871 h 0.4287 l 0.4287,0.4287 -0.4287,0.4287 0.4287,0.4287 0.4287,-0.4287 0.8574,0.85741 v 0.4287 l 0.4287,0.4287 v 3.4296 l -0.4287,0.42871 v 0.4287 l -1.7148,1.71481 h -0.4287 l -0.42871,0.4287 h -0.8574 l -0.4287,0.4287 h -2.57221 l -0.4287,-0.4287 h -0.4287 l -2.14351,-2.14351 v -0.4287 l -0.4287,-0.42871 v -3.4296 l 0.8574,-0.8574 v -0.42871 l 1.2861,-1.2861 h 0.42871 l 0.4287,-0.42871 h 0.4287 z m -55.73118,1.71481 0.4287,-0.4287 h 0.8574 l 0.4287,-0.4287 v -0.42871 l 0.4287,-0.4287 0.8574,0.85741 v 0.4287 l 1.28611,1.28611 v 0.4287 l -0.4287,0.4287 -0.4287,-0.4287 h -1.28611 v 0.4287 l -0.4287,0.4287 -0.8574,-0.8574 v -0.4287 z m -78.02366,-1.28611 0.8574,-0.8574 h 0.8574 l 0.4287,-0.4287 1.7148,1.71481 -0.4287,0.4287 h -1.2861 v 0.4287 h 1.2861 v -0.4287 l 0.4287,-0.4287 0.85741,0.8574 v 0.4287 l 0.8574,0.85741 v 0.4287 l -0.4287,0.4287 -0.4287,-0.4287 -0.42871,0.4287 h -0.4287 l -0.4287,-0.4287 -0.4287,0.4287 -1.7148,-1.71481 v -0.4287 z m -1.71482,-1.7148 0.8574,-0.8574 h 0.85742 l 0.4287,0.4287 0.4287,-0.4287 0.8574,0.8574 -0.8574,0.8574 h -0.8574 l -0.4287,0.4287 z m -155.18992,0 0.4287,-0.4287 h 0.85741 l 0.8574,-0.8574 h 0.4287 l 3.00091,3.0009 v 0.42871 l -0.4287,0.4287 h -0.4287 l -0.4287,0.4287 h -0.4287 l -0.4287,0.4287 z m -78.02366,-0.4287 1.28611,-1.28611 0.4287,0.42871 -0.4287,-0.42871 0.4287,-0.4287 h 0.4287 l 1.7148,1.71481 -0.8574,0.8574 h -0.8574 0.8574 l 0.8574,-0.8574 2.14351,2.1435 v 0.42871 l 1.7148,1.71481 v 0.4287 l -0.4287,0.4287 -0.8574,-0.8574 -0.4287,0.4287 h -0.8574 l -0.4287,0.4287 -0.85741,-0.8574 v -0.42871 l -0.4287,-0.4287 0.4287,-0.4287 h 0.85741 l 0.4287,-0.4287 h -1.28611 v 0.4287 l -0.4287,0.4287 z m 199.34618,-4.28701 -0.42871,0.4287 h -0.42871 l -0.4287,0.4287 h -0.4287 l -0.8574,0.8574 h -0.4287 l -0.4287,0.4287 h -0.4287 l -0.8574,0.8574 h -0.4287 l -2.57222,2.57221 h -0.4287 l -1.7148,1.71481 -0.4287,-0.4287 v -0.42871 l 3.00091,-3.0009 h 0.4287 l 1.71481,-1.71481 h 0.4287 l 0.8574,-0.8574 h 0.4287 l 0.8574,-0.8574 h 0.4287 l 0.4287,-0.42871 h 0.4287 l 0.4287,-0.4287 z m -76.73756,0 -0.4287,0.4287 h -0.42871 l -0.4287,0.4287 h -0.42871 l -0.4287,0.4287 h -0.4287 l -0.8574,0.8574 h -0.4287 l -0.8574,0.8574 h -0.4287 l -1.71481,1.71481 h -0.4287 l -3.85832,3.85832 -0.4287,-0.42871 v -0.4287 l 5.14442,-5.14442 h 0.4287 l 1.28611,-1.2861 h 0.4287 l 0.8574,-0.8574 h 0.4287 l 0.8574,-0.85741 h 0.4287 l 0.42871,-0.4287 h 0.4287 z m 155.61862,-0.85741 -0.4287,0.4287 h -0.4287 l -0.4287,0.42871 h -0.85741 l -0.4287,0.4287 h -0.4287 l -0.85741,0.8574 h -0.4287 l -0.4287,0.4287 h -0.4287 l -0.8574,0.8574 h -0.4287 l -1.2861,1.28611 h -0.42871 l -1.71481,1.7148 h -0.4287 l -0.4287,-0.4287 3.00092,-3.00091 h 0.4287 l 1.2861,-1.2861 h 0.4287 l 0.4287,-0.4287 h 0.4287 l 0.8574,-0.85741 h 0.4287 l 0.42871,-0.4287 h 0.4287 l 0.8574,-0.8574 h 0.42871 l 0.4287,0.4287 h 0.4287 z m -308.23634,-0.4287 -0.4287,0.4287 h -0.85741 l -0.4287,-0.4287 0.4287,0.4287 -0.4287,0.4287 h -0.4287 l -0.4287,0.42871 h -0.8574 l -0.4287,0.4287 h -0.4287 l -0.42871,0.4287 h -0.4287 l -0.8574,0.8574 h -0.42871 l -0.4287,0.4287 h -0.4287 l -1.2861,1.28611 h -0.4287 l -1.7148,1.7148 h -0.4287 l -1.71482,1.71481 v 0.4287 l -2.5722,2.57221 -0.4287,-0.4287 v -0.4287 l 2.1435,-2.14351 v -0.42871 l 3.00092,-3.0009 h 0.4287 l 1.7148,-1.71481 h 0.4287 l 0.8574,-0.8574 h 0.4287 l 0.85741,-0.8574 h 0.4287 l 0.4287,-0.42871 h 0.4287 l 0.42871,-0.4287 h 0.4287 l 0.4287,-0.4287 h 0.4287 l 0.8574,-0.85741 h 0.8574 l 0.42871,0.42871 h 0.4287 z m 306.95024,-0.4287 0.4287,-0.42871 h 0.8574 l 0.4287,0.42871 -0.4287,-0.42871 0.4287,-0.4287 h 0.4287 l 0.4287,-0.4287 h 0.85741 l 0.4287,-0.4287 h 1.2861 l 0.4287,-0.4287 h 1.28611 l 0.4287,-0.4287 h 2.14351 l 0.4287,-0.4287 h 7.71662 l 0.4287,0.4287 h 2.57221 l 0.4287,0.4287 h 1.28611 l 0.4287,0.4287 h 0.8574 l 0.42871,0.4287 h 0.8574 l 0.4287,0.4287 h 0.8574 l 0.4287,0.4287 h 0.4287 l 0.4287,0.42871 h 0.4287 l 0.42871,0.4287 h 0.4287 l 0.42871,0.4287 h 0.4287 l 0.4287,0.4287 h 0.4287 l 0.8574,0.85741 -0.4287,0.4287 0.4287,-0.4287 h 0.4287 l 0.4287,0.4287 -0.4287,0.4287 0.4287,0.4287 -0.4287,-0.4287 0.4287,-0.4287 h 0.4287 l 1.2861,1.2861 h 0.42871 l 2.14351,2.14351 -0.8574,0.8574 h -0.85741 l 0.4287,0.4287 0.42871,-0.4287 h 0.8574 l 0.4287,-0.4287 1.2861,1.2861 -0.8574,0.85741 h -0.8574 v 0.4287 l -0.4287,0.4287 -3.85832,-3.85831 h -0.4287 l -1.2861,-1.28611 0.4287,-0.4287 h 0.4287 -0.4287 l -0.4287,0.4287 h -0.4287 l -0.4287,-0.4287 h -0.4287 l -0.85741,-0.8574 h -0.42871 l -0.4287,-0.4287 h -0.4287 l -0.4287,-0.4287 h -0.4287 l -0.4287,-0.4287 h -0.8574 l -0.4287,-0.42871 h -0.4287 l -0.42871,-0.4287 h -0.8574 l -0.4287,-0.4287 h -0.8574 l -0.42871,-0.4287 h -0.8574 l -0.4287,-0.42871 h -1.71481 l -0.4287,-0.4287 h -3.0009 l -0.4287,-0.4287 h -3.85832 l -0.4287,0.4287 h -3.00091 l -0.42871,-0.4287 h -0.4287 0.4287 l 0.42871,0.4287 -0.42871,0.4287 h -1.2861 l -0.4287,-0.4287 h -0.4287 0.4287 l 0.4287,0.4287 -0.4287,0.42871 h -0.8574 l -0.4287,0.4287 h -0.85741 l -0.4287,0.4287 h -0.8574 l -0.4287,-0.4287 h -0.4287 z m -78.45238,0.8574 0.42871,-0.4287 h 0.42871 l 0.4287,-0.4287 h 0.4287 l 0.4287,0.4287 -0.4287,-0.4287 0.4287,-0.42871 h 0.4287 l 0.4287,-0.4287 h 0.8574 l 0.4287,-0.4287 h 0.8574 l 0.42871,-0.4287 h 0.8574 l 0.4287,-0.4287 h 1.71481 l 0.4287,-0.4287 h 2.14351 l 0.4287,-0.4287 h 7.71662 l 0.4287,0.4287 h 2.14352 l 0.4287,0.4287 h 1.2861 l 0.4287,0.4287 h 1.2861 l 0.42871,0.4287 h 0.8574 l 0.4287,0.4287 h 0.4287 l 0.4287,0.4287 h 0.85741 l 0.4287,0.42871 h 0.4287 l 0.8574,0.8574 h 0.42871 l 0.4287,0.4287 h 0.4287 l 0.4287,0.42871 h 0.4287 l 0.8574,0.8574 h 0.4287 l 0.8574,0.8574 -0.4287,0.4287 0.4287,-0.4287 0.4287,0.4287 h 0.4287 l 0.85742,0.8574 -0.85742,0.85741 h -0.8574 l 0.4287,0.4287 -0.4287,0.4287 h -0.4287 l -1.7148,-1.71481 h -0.4287 l -0.8574,-0.8574 h -0.4287 l -0.42871,-0.4287 h -0.4287 l -0.4287,-0.4287 h -0.4287 l -0.4287,-0.4287 h -0.42871 l -0.4287,-0.4287 h -0.4287 l -0.4287,-0.4287 h -0.4287 l -0.4287,-0.42871 h -0.4287 l -0.42871,-0.4287 h -0.8574 l -0.4287,-0.4287 h -0.8574 l -0.4287,-0.4287 h -1.28611 l -0.4287,-0.42871 h -1.71481 l -0.4287,-0.4287 h -3.0009 l -0.42871,-0.4287 h -3.42961 l -0.4287,0.4287 h -3.00091 l -0.4287,0.4287 h -1.28611 l -0.4287,-0.4287 h -0.4287 0.4287 l 0.4287,0.4287 -0.4287,0.42871 h -1.28611 l -0.4287,0.4287 h -0.4287 l -0.4287,0.4287 h -0.8574 l -0.4287,0.4287 h -0.8574 l -0.4287,0.42871 h -0.4287 z m -75.88014,-0.4287 0.4287,-0.4287 h 0.4287 l 0.4287,-0.42871 h 0.4287 l 0.4287,-0.4287 h 0.8574 l 0.4287,-0.4287 h 0.8574 l 0.42871,0.4287 h 0.4287 -0.4287 l -0.42871,-0.4287 0.42871,-0.4287 h 0.8574 l 0.42871,-0.4287 h 1.2861 l 0.4287,-0.4287 h 2.14351 l 0.4287,-0.4287 h 8.14532 l 0.4287,0.4287 h 2.14352 l 0.4287,0.4287 h 1.2861 l 0.4287,0.4287 h 1.2861 l 0.4287,0.4287 h 0.85741 l 0.4287,0.4287 h 0.4287 l 0.42871,0.4287 h 0.4287 l 0.4287,0.42871 h 0.4287 l 0.4287,0.4287 h 0.4287 l 0.4287,0.4287 h 0.4287 l 0.42871,0.4287 h 0.4287 l 0.4287,0.42871 h 0.4287 l 0.8574,0.8574 -0.4287,0.4287 0.4287,-0.4287 h 0.4287 l 1.28611,1.2861 -0.4287,0.4287 h -0.42871 0.42871 l 0.4287,-0.4287 0.4287,0.4287 h 0.4287 l 2.57221,2.57221 -0.4287,0.4287 h -0.8574 l -0.4287,0.4287 h 1.7148 l 0.4287,-0.4287 1.2861,1.28611 v 0.4287 l -0.4287,0.4287 h -1.2861 v 0.4287 l -0.4287,0.42871 -4.71572,-4.71572 h -0.4287 l -1.2861,-1.28611 h -0.4287 l -0.42871,-0.4287 h -0.4287 l -0.8574,-0.8574 h -0.4287 l -0.4287,-0.4287 h -0.4287 l -0.4287,-0.4287 h -0.42871 l -0.4287,-0.4287 h -0.4287 l -0.4287,-0.42871 h -0.85741 l -0.4287,-0.4287 h -0.4287 l -0.4287,-0.4287 h -0.8574 l -0.4287,-0.4287 h -1.2861 l -0.4287,-0.42871 h -1.71482 l -0.4287,-0.4287 h -3.0009 l -0.42871,-0.4287 h -3.85831 l -0.4287,0.4287 h -2.57221 l -0.4287,0.4287 h -1.2861 l -0.42871,0.42871 h -1.28611 l -0.4287,-0.42871 0.4287,0.42871 -0.4287,0.4287 h -0.8574 l -0.4287,0.4287 h -0.8574 l -0.4287,0.4287 h -0.4287 z m -90.02731,9.86014 v -0.42871 l 5.57312,-5.57312 h 0.4287 l 1.2861,-1.2861 h 0.4287 l 0.85741,-0.8574 h 0.4287 l 0.4287,-0.4287 h 0.4287 l 0.85741,-0.85741 h 0.4287 l 0.4287,-0.4287 h 0.4287 l 0.4287,-0.4287 h 0.42871 l 1.2861,-0.85741 h 0.8574 l 1.2861,-0.8574 h 1.28611 l 0.42871,-0.4287 h 1.2861 l 0.4287,-0.4287 h 1.7148 l 0.4287,-0.4287 h 9.00273 l 0.4287,0.4287 h 1.71481 l 0.42871,0.4287 h 1.2861 l 0.4287,0.4287 h 0.8574 l 0.4287,0.4287 h 0.8574 l 0.4287,0.4287 h 0.85741 l 0.4287,0.4287 h 0.42871 l 0.4287,0.42871 h 0.4287 l 0.4287,0.4287 h 0.4287 l 0.4287,0.4287 h 0.4287 l 0.4287,0.4287 h 0.4287 l 0.85741,0.85741 -0.42871,0.4287 0.42871,-0.4287 h 0.4287 l 0.8574,0.8574 h 0.4287 l 0.85741,0.8574 -0.42871,0.4287 h -0.4287 l -0.4287,-0.4287 -0.4287,0.4287 h -0.4287 l 0.4287,0.4287 0.4287,-0.4287 h 0.8574 l 0.85741,0.85741 -0.4287,0.4287 h -0.85741 l -0.4287,0.4287 -0.4287,-0.4287 h -0.4287 L 309.7229,174.112 h -0.4287 l -0.8574,-0.8574 h -0.4287 l -0.4287,-0.4287 h -0.4287 l -0.4287,-0.4287 h -0.4287 l -0.42871,-0.4287 h -0.4287 l -0.42871,-0.4287 h -0.4287 l -1.2861,-0.85741 h -0.8574 l -0.4287,-0.4287 h -0.8574 l -0.4287,-0.4287 h -1.28611 l -0.4287,-0.42871 h -1.28611 l -0.4287,-0.4287 h -3.00091 l -0.4287,-0.4287 h -3.42961 l -0.4287,0.4287 h -3.42961 l -0.4287,0.4287 h -1.71481 l -0.42871,-0.4287 h -0.4287 0.4287 l 0.42871,0.4287 -0.42871,0.42871 h -0.8574 l -0.4287,0.4287 h -0.8574 l -0.4287,0.4287 h -0.8574 l -0.4287,0.4287 h -0.4287 l -0.42871,0.42871 h -0.4287 l -0.4287,0.4287 h -0.4287 l -0.4287,0.4287 h -0.42871 l -0.4287,0.4287 h -0.4287 l -0.8574,0.8574 h -0.4287 l -0.85741,0.8574 h -0.4287 l -1.2861,1.28611 h -0.4287 l -4.71572,4.71572 z m -63.87652,-10.71755 0.42871,-0.4287 h 0.4287 l 0.4287,-0.4287 h 0.8574 l 0.4287,-0.4287 h 1.28611 l 0.4287,-0.4287 h 1.28611 l 0.4287,-0.4287 h 1.7148 l 0.4287,-0.4287 h 9.00273 l 0.4287,0.4287 h 1.71481 l 0.4287,0.4287 h 1.28611 l 0.4287,0.4287 h 0.8574 l 0.4287,0.4287 h 0.8574 l 0.4287,0.4287 h 0.85741 l 0.4287,0.4287 h 0.42871 l 0.4287,0.42871 h 0.4287 l 0.4287,0.4287 h 0.4287 l 0.4287,0.4287 h 0.4287 l 0.4287,0.4287 h 0.4287 l 0.8574,0.85741 h 0.4287 l 0.85741,0.8574 -0.4287,0.4287 0.4287,-0.4287 h 0.4287 l 0.85741,0.8574 -0.4287,0.4287 0.4287,0.4287 -0.4287,0.42871 h -0.85741 l 0.4287,0.4287 -0.4287,0.4287 h -0.4287 l -1.28611,-1.28611 0.4287,-0.4287 -0.4287,-0.4287 0.4287,0.4287 -0.4287,0.4287 h -0.4287 l -0.8574,-0.8574 h -0.4287 l -0.8574,-0.8574 h -0.4287 l -0.4287,-0.4287 h -0.4287 l -0.42871,-0.4287 h -0.4287 l -0.42871,-0.4287 h -0.4287 l -0.4287,-0.42871 h -0.8574 l -0.4287,-0.4287 h -0.4287 l -0.4287,-0.4287 h -0.8574 l -0.42871,-0.4287 h -1.2861 l -0.4287,-0.42871 h -1.71481 l -0.4287,-0.4287 h -3.00091 l -0.4287,-0.4287 h -3.85832 l -0.4287,0.4287 h -3.0009 l -0.42871,0.4287 h -1.2861 l -0.42871,-0.4287 h -0.4287 0.4287 l 0.42871,0.4287 -0.42871,0.42871 h -0.8574 l -0.4287,0.4287 h -0.8574 l -0.4287,-0.4287 h -0.4287 z m -50.58676,-6.43052 h 2.5722 l 0.4287,0.4287 h 0.4287 l 0.4287,0.4287 v 0.42871 l 0.4287,0.42871 v 0.4287 l 0.42871,0.4287 v 1.2861 l 0.42871,0.4287 v 7.71663 l -0.42871,0.4287 v 1.2861 l -0.42871,0.4287 v 0.4287 l -1.7148,1.71481 h -2.1435 l -0.4287,-0.4287 h -0.42871 l -1.7148,-1.71481 v -1.7148 l 0.4287,-0.4287 v -1.28611 l 0.4287,-0.4287 v -4.71572 l -0.4287,-0.4287 v -1.7148 l -0.4287,-0.4287 v -0.8574 l 0.4287,-0.4287 v -0.42871 l 0.8574,-0.85741 h 0.4287 z m -39.44054,-0.4287 h 0.4287 l 0.4287,0.4287 h 0.8574 l 1.71482,1.71482 v 0.4287 l 0.4287,0.4287 -0.4287,0.4287 v 1.2861 l -0.42871,0.4287 v 1.7148 l -0.4287,0.42871 v 2.14351 l 0.4287,0.4287 v 2.1435 l 0.42871,0.42871 v 1.2861 l 0.4287,0.4287 v 0.4287 l -0.4287,0.4287 v 0.4287 l -1.28611,1.28611 h -0.42871 l -0.4287,0.4287 h -2.1435 l -0.4287,-0.4287 h -0.4287 l -1.28611,-1.28611 v -0.4287 l -0.42871,-0.4287 v -0.8574 l -0.4287,-0.4287 v -2.14351 l -0.4287,-0.4287 v -4.71572 l 0.4287,-0.4287 v -2.1435 l 0.4287,-0.4287 v -0.8574 l 1.28611,-1.28612 h 0.42871 l 0.4287,-0.4287 h 0.8574 z m 482.71782,-7.28792 -0.4287,0.4287 h -0.4287 0.8574 l 0.42871,0.4287 -0.42871,0.4287 h -0.8574 l -0.4287,0.4287 h -0.4287 l -0.4287,0.42871 h -0.8574 l -0.4287,0.4287 -0.4287,-0.4287 v -0.42871 l 1.7148,-1.7148 h 0.4287 l 0.4287,-0.4287 h 0.8574 z m 28.72301,-2.57221 h 0.4287 l 0.4287,-0.4287 h 0.4287 l 0.4287,0.4287 h 0.4287 l 4.28701,4.28701 v 0.42871 l -0.4287,0.4287 h -0.8574 0.8574 l 0.4287,-0.4287 h 0.42871 l 0.4287,0.4287 h 0.85741 l 0.8574,0.8574 v 0.4287 l 0.8574,0.85741 v 2.5722 l 0.4287,0.4287 v 0.4287 l 0.4287,0.4287 v 0.42871 l 0.4287,0.42871 v 0.4287 l 0.4287,0.4287 v 0.4287 l 0.4287,0.4287 v 0.4287 l 0.4287,0.4287 -0.4287,0.4287 h -0.4287 l -0.8574,-0.8574 v -0.4287 l -0.4287,-0.4287 v -0.4287 l -0.8574,-0.8574 v -0.42871 l -0.4287,-0.42871 v -0.4287 l -0.4287,-0.4287 v -1.2861 l 0.4287,-0.4287 -0.8574,-0.8574 v -0.4287 l -0.4287,-0.4287 v -0.42871 h -0.42871 l -0.4287,-0.4287 h -2.14351 l -1.7148,-1.71481 0.4287,-0.4287 h 1.2861 l -0.4287,-0.4287 -0.4287,0.4287 h -0.4287 l -0.4287,0.4287 -0.85741,-0.8574 v -1.2861 l -0.8574,-0.85741 h -0.4287 l -0.4287,-0.4287 h -0.4287 l -0.42871,-0.4287 z m -5.14442,-0.8574 0.4287,-0.4287 v -0.4287 l 0.4287,-0.4287 0.4287,0.4287 h 0.4287 l 0.4287,0.4287 h 0.4287 l 0.85741,0.8574 -0.85741,0.8574 h -0.4287 l -0.4287,-0.4287 0.4287,-0.4287 -0.4287,0.4287 h -0.4287 l -0.4287,-0.4287 0.4287,-0.4287 -0.4287,0.4287 h -0.4287 z m -4.28702,-3.00092 0.4287,-0.4287 h 1.71481 l 0.42871,0.4287 h 0.8574 l 0.4287,0.42871 h 0.4287 l 0.4287,0.4287 v 0.42871 l 0.4287,0.4287 -0.4287,0.4287 h -0.8574 l -0.4287,0.4287 -0.4287,-0.4287 v -0.8574 h -0.4287 l -0.42871,-0.42871 h -0.85741 l -0.4287,-0.4287 h -0.4287 z m -490.00575,0.85741 0.4287,-0.4287 v -0.42871 l 1.71481,-1.7148 h 0.4287 l 0.4287,-0.4287 h 1.28611 l 0.4287,-0.4287 h 7.71663 l 0.4287,0.4287 h 0.8574 l 0.4287,0.4287 h 0.4287 l 0.4287,0.4287 h 0.4287 l 0.8574,0.8574 v 0.4287 l 0.4287,0.42871 v 2.57221 l -1.7148,1.7148 h -0.4287 l -0.4287,-0.4287 h -0.8574 0.8574 l 0.4287,0.4287 -0.4287,0.4287 h -1.2861 l -0.4287,-0.4287 h -2.14352 l -0.4287,-0.4287 h -3.0009 l -0.42871,0.4287 h -2.1435 l -0.42871,0.4287 h -1.2861 l -0.4287,-0.4287 h -0.4287 l -0.85741,-0.8574 v -0.4287 l -0.4287,-0.4287 v -1.2861 l -0.4287,-0.4287 z m 452.70873,-3.00091 0.8574,-0.8574 h 4.28702 l 0.8574,0.8574 h 2.1435 l 0.42871,-0.4287 h 1.2861 l 0.4287,-0.4287 h 3.00091 l 0.42871,0.4287 h 0.8574 l 0.4287,0.4287 h 3.0009 l 0.42871,-0.4287 h 4.28701 l 0.4287,0.4287 h 0.4287 l 0.42871,0.4287 0.4287,-0.4287 h 8.14533 l 0.4287,0.4287 h 0.4287 l 0.4287,0.4287 h 0.42871 l 0.8574,0.8574 h 0.8574 l 0.4287,0.4287 h 0.4287 l 0.4287,0.42871 -0.8574,0.85741 h -1.7148 l -0.4287,-0.42871 h -1.71481 l -0.42871,-0.4287 v -0.85741 l -0.4287,-0.4287 h -3.00091 l -0.8574,0.8574 h -5.14442 l -0.4287,-0.4287 v -0.8574 h -3.4296 v 0.4287 l -0.85742,0.8574 h -2.5722 l -0.4287,-0.4287 h -1.71481 l -0.4287,-0.4287 0.4287,-0.4287 -0.4287,-0.4287 h -3.42961 v 0.8574 l -0.4287,0.4287 h -5.14442 l -0.4287,-0.4287 v -0.8574 h -3.00091 z m -437.27548,-2.1435 0.4287,-0.4287 v -0.42871 l 0.8574,-0.8574 h 0.42871 l 0.4287,0.4287 h 0.4287 l 0.42871,0.4287 h 0.4287 l 0.4287,0.42871 h 0.8574 l 0.8574,0.8574 v 0.4287 l 0.4287,0.4287 v 0.8574 l -0.4287,0.4287 -0.4287,-0.4287 h -0.4287 l -0.4287,-0.4287 h -0.4287 l -0.4287,-0.4287 0.4287,-0.4287 v -0.4287 h -0.8574 0.4287 l 0.4287,0.4287 -0.4287,0.4287 h -0.85741 l -0.4287,-0.4287 h -0.85741 l -0.4287,-0.4287 h -0.4287 z m -27.00819,-2.57222 0.4287,0.4287 v 0.42871 l 0.4287,0.4287 -1.2861,1.28611 h -0.4287 l -1.2861,1.2861 h -0.42871 l -0.4287,0.4287 h -0.4287 l -0.42871,-0.4287 0.85741,-0.8574 h 0.4287 v -0.4287 z m 300.94842,0 1.7148,-0.8574 h 3.42962 l 1.7148,1.2861 -0.8574,0.42871 h 2.57221 l -1.28611,-0.42871 3.85831,-1.2861 h 3.42962 l 1.2861,0.8574 6.85922,-0.4287 0.4287,0.8574 h 2.57221 l 1.71481,-0.8574 8.57403,0.4287 0.8574,0.85741 3.00091,-0.85741 0.85741,0.4287 3.85831,-0.4287 0.8574,0.85741 9.86014,-0.42871 0.4287,0.85741 h 3.4296 l 1.28611,-0.85741 h 4.28702 l 2.1435,0.85741 0.4287,-0.4287 4.71572,0.4287 7.71662,-0.4287 1.28611,0.8574 12.43234,-0.4287 1.2861,0.85741 6.00183,-0.42871 1.7148,0.85741 h 1.28611 l 0.8574,-0.85741 1.71481,0.42871 2.1435,-0.42871 1.2861,0.85741 0.4287,-0.4287 4.28702,0.4287 6.00182,-0.4287 0.85741,0.8574 7.28792,-0.4287 1.2861,0.8574 1.71481,-0.8574 h 3.42961 l 0.4287,1.2861 h 3.00091 l 0.4287,-0.8574 2.14351,0.4287 6.00183,-0.4287 0.8574,0.8574 8.57403,-0.4287 1.2861,0.8574 3.85832,-0.4287 1.2861,0.4287 0.4287,1.2861 -0.8574,0.8574 -5.57312,-0.4287 -0.4287,-0.4287 0.4287,-0.8574 0.4287,0.4287 -5.14442,-0.4287 -0.85741,1.2861 -4.7157,-0.4287 -1.28612,-1.2861 h -3.0009 l -0.8574,1.2861 h -5.14442 l -1.71481,-0.8574 -0.4287,-0.8574 0.4287,-0.4287 h -1.2861 l -0.4287,0.8574 h -1.28611 l -0.4287,0.8574 h -3.00091 l -0.4287,-1.2861 h -2.57221 l -0.85741,1.2861 -4.28701,-0.4287 -0.4287,-1.2861 h -3.00091 l -1.28611,0.8574 -0.4287,-0.4287 0.4287,0.4287 -0.4287,0.4287 -3.4296,-1.2861 -3.00092,1.2861 -0.4287,-1.7148 h -3.42961 l -0.8574,1.2861 h -3.85832 l -0.4287,-0.4287 0.4287,-0.4287 h 3.42961 -3.0009 l -0.85741,-0.8574 -3.85831,0.4287 -0.4287,1.2861 -6.00183,-0.4287 -0.4287,-0.4287 0.4287,-0.8574 h -3.4296 l -0.4287,1.2861 h -6.00183 l -0.8574,-1.7148 h -3.00091 l -0.85741,1.2861 h -4.7157 l -0.42871,-0.4287 0.42871,-0.8574 h -3.00092 l -0.8574,1.2861 -0.4287,-0.8574 -0.4287,0.8574 -0.4287,-1.71481 h -3.00091 l -1.28611,0.42871 -0.4287,0.8574 h -5.57311 l -0.85742,-1.28611 h -3.4296 l -0.4287,1.28611 -6.00183,-0.4287 -0.4287,-1.28611 h -3.0009 l -0.85741,1.28611 h -6.85923 l -0.4287,-1.28611 -4.71571,-0.4287 -0.8574,1.28611 h -4.71572 l -0.4287,-0.42871 0.4287,-0.8574 -3.42962,-0.42871 -0.4287,1.71482 h -3.0009 l -2.14351,-1.71482 h -2.14351 l -1.2861,1.28611 h -4.71572 l -0.4287,-1.28611 z m -60.87561,-1.7148 0.4287,-0.4287 h 1.2861 l 0.42871,-0.4287 h 1.71481 l 1.2861,0.8574 h 1.7148 l 0.4287,-0.4287 h 4.28702 l 1.2861,1.2861 h 0.42871 l 0.8574,-0.8574 h 0.4287 l 0.4287,-0.4287 h 2.14351 l 0.4287,0.4287 h 0.85741 l 0.4287,-0.4287 h 1.7148 l 0.4287,0.4287 h 0.4287 l 0.4287,-0.4287 0.4287,0.4287 h 1.28612 l 0.4287,0.4287 h 0.4287 l 0.8574,0.8574 h 1.2861 l 0.4287,0.4287 h 0.4287 -0.4287 l -0.4287,-0.4287 0.4287,-0.4287 h 0.4287 l 0.4287,-0.4287 h 2.14351 l 0.42871,-0.4287 h 3.85831 l 0.4287,0.4287 v 0.4287 h 3.85831 l 0.85741,-0.8574 h 3.4296 l 0.4287,0.4287 0.42871,-0.4287 1.28611,1.2861 h 1.7148 l 1.2861,-0.8574 h 3.85832 l 0.4287,0.4287 h 0.8574 l 0.4287,-0.4287 h 2.57221 l 0.4287,0.4287 h 0.8574 l 0.8574,0.8574 h 2.57222 l 0.4287,0.4287 -0.8574,1.28611 -0.4287,-0.4287 h -5.57312 l -0.4287,-0.4287 v -0.85741 h -3.00092 l -0.4287,0.4287 h -0.4287 v 0.42871 l -0.4287,0.4287 h -6.43053 l -0.4287,-0.4287 v -0.85741 h -2.5722 l -0.4287,-0.4287 -0.8574,1.28611 h -5.57313 l -0.4287,-0.42871 v -0.8574 h -3.42961 v 0.8574 l -0.4287,0.42871 h -6.00182 l -0.42871,-0.42871 -0.4287,0.42871 -0.4287,-0.42871 v -1.2861 h -3.4296 l -0.85741,1.2861 h -6.43052 l -0.4287,-0.4287 v -0.8574 h -3.42962 l -0.4287,0.4287 v 0.4287 l -0.4287,0.4287 h -0.4287 l -0.4287,-0.4287 h -2.1435 l -0.4287,-0.4287 v -0.4287 h -1.71482 z m -7.28792,-0.4287 0.4287,-0.4287 h 4.71572 l 0.8574,0.8574 h 1.2861 l 0.4287,0.4287 -0.4287,0.4287 v 0.4287 l -0.4287,0.4287 h -2.57221 l -0.4287,-0.4287 0.4287,-0.4287 h 2.14351 -2.14351 l -0.4287,-0.4287 h -2.57221 l -0.4287,-0.4287 h -0.4287 z m -18.00546,-0.4287 0.4287,-0.4287 h 1.7148 l 0.4287,0.4287 h 0.42871 l 0.4287,0.4287 h 1.2861 l 0.4287,-0.4287 h 1.28611 l 0.4287,-0.4287 h 4.71571 l 0.4287,0.4287 v 0.8574 h 1.28612 l 0.4287,-0.4287 h 0.4287 l 0.4287,-0.4287 h 3.0009 l 0.42871,0.4287 v 1.2861 l -0.42871,0.4287 h -6.85922 l -0.4287,-0.4287 v -0.8574 h -3.85831 v 0.8574 l -0.4287,0.4287 h -5.14442 l -0.4287,-0.4287 v -0.8574 l -0.4287,-0.4287 z m -211.34981,0.4287 0.4287,-0.4287 h 0.4287 l 0.8574,-0.85741 h 0.8574 l 0.4287,0.42871 h 0.8574 l 0.4287,0.4287 -0.4287,0.4287 h -0.4287 l -0.4287,0.4287 h -0.4287 l -0.4287,0.4287 h -0.8574 l -0.4287,-0.4287 h -0.4287 z m 173.62408,-1.28611 0.8574,-0.8574 h 2.57221 l 0.4287,0.4287 h 0.85741 l 0.4287,0.4287 h 0.4287 l 0.4287,0.42871 h 1.2861 l 0.4287,-0.42871 h 0.4287 l 0.42871,-0.4287 h 7.28793 l 0.4287,0.4287 v 0.85741 h 1.2861 l 0.4287,-0.4287 h 0.8574 v -0.42871 l 0.4287,-0.4287 h 3.00091 l 0.42871,0.4287 h 4.71571 l 0.4287,0.42871 v 0.4287 h 2.14351 l 0.42871,-0.4287 h 0.8574 l 0.4287,-0.42871 h 1.7148 l 0.8574,0.85741 v 0.4287 l -0.4287,0.4287 v 0.4287 l -0.4287,0.4287 -0.4287,-0.4287 v -0.4287 0.4287 l -0.4287,0.4287 h -6.85922 l -0.4287,-0.4287 0.4287,-0.4287 v -0.4287 h -4.71572 v 0.8574 l -0.4287,0.4287 h -1.71481 l -0.4287,-0.4287 h -4.71572 l -0.4287,-0.4287 v -0.8574 h -3.85831 v 0.4287 l 0.42871,0.4287 -0.42871,0.4287 h -6.43052 l -0.4287,-0.4287 v -0.8574 l -0.4287,-0.4287 h -1.71481 z m 263.22269,-0.8574 0.4287,-0.4287 h 4.71571 l 0.4287,0.4287 -0.4287,0.4287 h -4.71571 z m -277.36984,0.4287 0.4287,-0.4287 h 0.4287 l 0.42871,-0.4287 h 2.57221 l 1.2861,1.2861 h 1.2861 l 0.4287,-0.4287 h 0.8574 l 0.42871,-0.4287 h 0.85741 l 0.4287,0.4287 0.4287,-0.4287 h 1.7148 l 0.8574,0.8574 h 1.28611 l 0.4287,0.42871 -0.4287,0.4287 h -0.42871 v 0.4287 l -0.4287,0.4287 h -2.5722 l -0.4287,-0.4287 v -0.4287 l -0.4287,-0.4287 h -2.14352 l -1.2861,1.2861 h -2.5722 l -0.42871,-0.4287 v -0.8574 h -1.2861 l -0.4287,-0.42871 -0.42871,0.42871 z m 183.48422,-2.1435 0.4287,-0.42871 h 5.57312 l 0.4287,0.42871 -0.4287,0.4287 h -5.57312 z m -20.14897,-0.42871 0.4287,-0.4287 h 4.28702 l 0.4287,0.4287 -0.4287,0.42871 h -4.28702 z m -305.66413,0 -0.4287,0.42871 v 0.4287 l -0.4287,0.4287 H 130.097 l -0.4287,0.4287 h -2.14351 l -0.4287,0.4287 h -0.4287 l -0.42871,-0.4287 v -0.4287 h -1.2861 l -0.4287,-0.4287 0.4287,-0.4287 h 0.8574 l 0.4287,-0.42871 h 0.85741 l 0.8574,0.85741 h 0.4287 l 0.4287,-0.4287 h 1.71481 l 0.4287,-0.42871 h 1.28611 l 0.4287,-0.4287 h 0.8574 z m 31.29521,0.42871 0.4287,-0.42871 h 2.57221 l 1.7148,-0.8574 0.4287,0.4287 0.85741,-0.4287 1.28611,0.4287 2.1435,-0.4287 0.4287,0.4287 h 6.85922 l 0.4287,0.4287 h 1.28611 l 0.4287,-0.4287 h 4.28702 l 0.4287,0.85741 0.8574,0.4287 -0.8574,0.4287 h 1.7148 l 0.4287,-0.8574 h 0.8574 l 1.28612,-0.85741 h 2.1435 l 0.4287,0.4287 h 3.42961 l 1.28611,-0.4287 0.8574,0.85741 h 3.42961 l 1.2861,-0.85741 0.4287,0.4287 h 3.42962 l 1.2861,0.85741 0.8574,-0.4287 h 3.00092 l 0.4287,-0.42871 h 1.7148 l 0.4287,0.42871 0.4287,-0.42871 0.85741,0.85741 h 0.8574 l 0.8574,-0.85741 h 5.14442 l 0.8574,0.85741 8.14533,-0.4287 1.71481,1.2861 1.7148,-0.8574 0.4287,0.4287 1.28611,-0.4287 h 3.85831 l 0.42871,0.4287 h 1.2861 l 0.4287,-0.4287 h 3.85832 l 1.7148,1.2861 h 1.2861 l 2.57221,-1.2861 4.71572,0.4287 0.8574,0.8574 h 1.2861 l 0.4287,-0.4287 h 3.42962 l 0.4287,0.4287 h 1.7148 l 0.4287,-0.4287 h 5.14442 l 0.8574,0.8574 h 1.28611 l 0.4287,0.4287 -0.8574,0.42871 -0.4287,0.8574 h -4.28701 l -0.85741,-1.28611 h -3.00091 l -0.8574,1.28611 h -4.28702 l -0.4287,-0.4287 h -1.7148 l -0.42871,-0.4287 0.85741,-0.42871 -0.85741,-0.4287 h -3.85831 l -0.8574,1.28611 h -5.57313 l -0.4287,-0.4287 0.4287,-0.85741 -0.4287,-0.4287 -0.8574,0.4287 h -2.1435 l -0.4287,0.85741 h -3.42962 l -0.4287,-0.42871 0.4287,-0.8574 h -4.28701 l -0.4287,1.28611 h -2.57221 l -0.4287,-0.42871 0.4287,-0.4287 h 2.14351 -2.57221 l -0.42871,0.85741 -0.8574,-1.71481 h -2.5722 l -0.8574,1.2861 h -5.57312 l -0.42871,-0.4287 v -1.7148 l -3.42961,0.8574 -0.4287,1.2861 h -2.14351 l -0.4287,-0.4287 0.8574,-0.4287 -1.7148,0.4287 -0.4287,-1.2861 h -1.71481 l -0.85741,1.2861 h -3.4296 l -0.4287,-1.2861 h -3.85832 l -0.4287,0.8574 h -3.85831 l -1.28611,0.4287 -0.4287,-0.4287 v -1.2861 h -3.00091 l -0.4287,1.2861 h -1.7148 l -0.4287,-0.4287 -0.85741,0.4287 h -5.14442 l -0.4287,-1.2861 h -4.28701 l 0.4287,0.4287 -0.4287,0.4287 h -3.85831 l -0.4287,-0.4287 0.4287,-0.4287 h -1.28611 l -0.42871,0.4287 -3.0009,0.4287 -0.4287,-1.2861 h -3.00092 l -0.8574,1.2861 h -2.1435 l -0.85741,-0.8574 h -1.2861 z m 215.63682,-1.28611 0.4287,-0.4287 h 6.85923 l 0.4287,0.4287 -0.4287,0.4287 h -6.85923 z m -228.06916,0.4287 0.8574,-0.8574 h 2.5722 l 0.4287,0.4287 h 0.42871 l 0.42871,0.4287 h 2.1435 l 0.4287,-0.4287 h 0.8574 l 0.4287,-0.4287 h 3.00092 l 0.8574,0.8574 v 0.4287 l -0.4287,0.42871 h -3.42962 v 0.4287 l -0.4287,0.4287 h -4.71572 l -0.4287,-0.4287 v -0.85741 l -0.4287,-0.4287 h -1.2861 l -0.4287,0.4287 h -0.4287 z m -9.86014,-0.4287 0.42871,-0.4287 h 4.71571 l 0.4287,0.4287 h 0.8574 l 0.4287,0.4287 h 2.14351 l 0.42871,0.4287 -0.42871,0.42871 v 0.4287 l -0.4287,0.4287 h -4.28701 l -0.42871,-0.4287 v -0.85741 h -3.0009 z m -9.43143,0.4287 0.4287,-0.4287 h 0.4287 l 0.4287,-0.4287 h 0.8574 l 0.42871,0.4287 h 0.85741 l 0.4287,-0.4287 h 0.8574 l 0.4287,0.4287 v 0.4287 l 0.4287,0.4287 h 0.4287 l 0.4287,0.42871 0.4287,-0.42871 h 0.4287 l 0.4287,-0.4287 h 0.85741 l 0.4287,0.4287 v 0.85741 l -0.4287,0.4287 -0.42871,-0.4287 h -0.8574 l -0.4287,0.4287 h -0.8574 l -0.4287,-0.4287 h -1.7148 l -0.4287,-0.4287 v -0.42871 h -3.00092 z"
     fill="#000000"
     fill-rule="evenodd"
     id="path1"
     style="stroke-width:0.428702" />
</svg>
