<?xml version="1.0" encoding="UTF-8" standalone="no"?>
<svg
   width="300"
   height="250"
   viewBox="0 0 300 250"
   version="1.1"
   id="svg6"
   sodipodi:docname="tellermine_43_black.svg"
   inkscape:version="1.4.2 (f4327f4, 2025-05-13)"
   xmlns:inkscape="http://www.inkscape.org/namespaces/inkscape"
   xmlns:sodipodi="http://sodipodi.sourceforge.net/DTD/sodipodi-0.dtd"
   xmlns="http://www.w3.org/2000/svg"
   xmlns:svg="http://www.w3.org/2000/svg">
  <defs
     id="defs6" />
  <sodipodi:namedview
     id="namedview6"
     pagecolor="#ffffff"
     bordercolor="#000000"
     borderopacity="0.25"
     inkscape:showpageshadow="2"
     inkscape:pageopacity="0.0"
     inkscape:pagecheckerboard="0"
     inkscape:deskcolor="#d1d1d1"
     inkscape:zoom="0.93700159"
     inkscape:cx="162.21957"
     inkscape:cy="328.17447"
     inkscape:window-width="2560"
     inkscape:window-height="1377"
     inkscape:window-x="-8"
     inkscape:window-y="-8"
     inkscape:window-maximized="1"
     inkscape:current-layer="svg6" />
  <path
     d="m 12.336453,127.39908 1.767372,29.28789 3.787226,12.87657 8.836861,14.39144 15.401384,15.14889 14.643938,10.0993 23.480817,11.10914 31.560209,8.58444 33.83256,3.53474 29.0354,-1.26245 31.30774,-6.05954 21.71342,-7.32199 16.6638,-8.58434 10.35176,-7.06948 16.66379,-14.64397 10.09927,-15.40136 4.79716,-14.89643 1.76737,-30.04534 -8.07942,15.40139 -13.63402,15.14891 -12.62408,9.59431 -18.93613,10.35175 -20.45102,7.82698 -24.23825,6.05954 -23.48081,3.02973 -22.97584,0.50501 -23.73328,-2.01988 L 100.2001,189.25709 81.516451,183.70247 61.570393,175.37062 43.391715,164.5139 30.26266,153.65718 20.163387,141.79054 Z"
     fill="#000000"
     fill-rule="evenodd"
     id="path1"
     style="stroke-width:0.252482" />
  <path
     d="m 87.8285,104.17076 0.25248,6.817 1.76737,5.30212 1.51489,2.7773 4.797149,6.05956 3.787237,3.28227 6.564524,4.54467 8.83686,4.29219 9.84679,3.28226 9.59431,2.01985 14.39145,1.26242 11.61416,-0.50497 11.36168,-1.76737 12.62409,-3.78723 9.59431,-4.54467 6.56452,-4.54467 6.56453,-6.81701 3.28227,-5.5546 2.01985,-7.82693 -0.25248,-3.78723 -4.54468,6.56453 -6.05956,5.55459 -6.56452,4.29219 -12.62409,5.55461 -7.82694,2.27233 -9.34183,1.76737 -11.36167,1.00993 h -6.81701 l -9.84678,-0.75744 -10.35176,-1.76738 -8.07941,-2.27234 -8.3319,-3.28226 -9.08934,-5.04964 -6.312051,-4.79715 -5.049639,-5.5546 z"
     fill="#000000"
     fill-rule="evenodd"
     id="path2"
     style="stroke-width:0.252482" />
  <path
     d="m 88.33346,92.304117 0.25248,3.787225 1.00993,3.53475 3.28226,6.059558 6.312046,6.817 7.574454,5.04964 v 0.50496 l 0.50496,-0.25248 11.36168,5.30212 7.82694,2.27233 9.08934,1.76737 11.10919,1.00994 14.64394,-0.50497 12.11913,-2.01985 8.83686,-2.52482 10.09927,-4.29219 7.82694,-5.04964 6.05956,-5.80708 3.78723,-6.05955 1.76737,-5.049638 0.50496,-3.53475 -0.75744,-5.302115 -2.52481,-6.059559 -3.53475,-4.79716 -4.29219,-3.787219 -3.28226,3.029779 -1.00993,2.01986 0.50496,5.55459 2.7773,2.777299 0.75744,1.76737 -0.25248,2.52482 -1.26241,2.272335 -3.78722,3.28226 -6.31204,0.75746 -6.05957,2.52482 -4.54467,3.029768 -1.26241,3.02978 -1.51489,1.51489 -5.80709,2.01985 -5.80707,0.50496 -5.80708,-2.27233 -8.83687,-0.75744 -6.31204,0.50496 -3.02978,0.75744 -2.01985,1.26241 -4.29219,0.50496 -5.5546,-1.00992 -3.28226,-1.26241 -2.01985,-1.76737 -0.75745,-2.27233 -3.53474,-3.02978 -6.56453,-3.029778 -7.32197,-1.00994 -4.03971,-3.53474 -1.262414,-2.524815 v -2.27234 l 3.534744,-4.544669 0.50497,-4.79716 -0.75745,-2.27233 -3.282264,-3.282259 -5.302117,4.797149 -2.27233,3.02978 -2.524819,5.049639 z"
     fill="#000000"
     fill-rule="evenodd"
     id="path3"
     style="stroke-width:0.252482" />
  <path
     d="m 102.9774,71.348129 0.25248,1.51489 2.77731,2.52482 1.2624,4.292189 -0.75744,5.049639 -3.53475,4.03971 v 1.00992 l 0.75745,1.514899 3.02978,2.524806 5.80708,0.50496 3.78723,1.26242 5.55459,3.02978 0.75745,0.75745 -0.25248,0.25248 0.50496,-0.25248 2.27234,2.272338 1.26241,3.02977 1.51489,0.75745 5.30212,1.2624 h 3.02978 l 4.0397,-2.01985 6.81701,-1.00992 h 6.31204 l 4.54467,0.50496 4.03971,1.26241 0.50497,0.50496 -0.25249,0.25248 0.50497,-0.25248 1.2624,0.75744 5.80708,-0.50496 4.2922,-1.51489 1.00992,-2.77729 2.52482,-2.524818 2.27234,-1.51489 h 1.00992 l -0.25248,-0.25248 1.00993,-0.75745 5.5546,-2.27234 6.56452,-0.75745 2.7773,-2.272326 1.00993,-2.019859 -0.25248,-1.26241 -2.7773,-2.52482 -1.26241,-3.282259 v -4.0397 l 1.26241,-3.282269 3.02978,-2.7773 v -1.00993 l -2.52482,-3.28226 -1.26241,-0.75744 -8.07941,-1.262419 -5.80708,-2.77729 -3.02979,-2.01986 -1.76737,-1.76737 -1.00992,-2.777299 -4.54467,-1.51489 -4.54468,-0.50496 -1.26241,0.25247 -3.28226,2.01986 -5.04964,0.757449 -12.87657,-0.252489 -3.78721,-1.00992 -1.26241,-1.00993 -2.27234,-0.75744 -6.56453,1.00992 -2.01985,0.75745 -1.00992,1.00992 -0.25249,1.514899 -0.75744,1.2624 -3.28226,2.52482 -8.58438,3.78723 -5.80709,0.757449 -1.26241,0.75744 z"
     fill="#000000"
     fill-rule="evenodd"
     id="path4"
     style="stroke-width:0.252482" />
  <path
     d="m 46.926455,97.353762 v 13.381518 l 4.039709,11.61417 9.089339,12.87657 10.856719,9.5943 17.926208,10.60423 16.41131,6.31205 19.18861,4.54467 18.93613,2.01985 22.21839,-0.50495 19.44111,-3.02979 20.19853,-6.05956 15.90636,-7.57446 13.63401,-9.5943 10.35175,-11.1092 6.31204,-11.36168 2.01985,-6.81701 0.75745,-6.31204 -0.25248,-6.059548 -1.76737,-8.836875 -5.04964,-9.594309 -10.09927,-11.866639 -10.09927,-7.826939 -15.90634,-8.584379 -17.67373,-6.059559 -15.65387,-3.28226 -20.70351,-2.019859 -17.92619,0.25248 -21.71343,2.777309 -15.14891,3.78722 -17.42124,6.817009 -15.401388,9.341829 -11.109199,10.099269 -6.817009,9.846788 z m 39.134665,-11.866655 3.78723,-7.069479 5.807079,-6.312049 8.836861,-6.817009 4.54467,-1.00993 10.35176,-4.03971 2.7773,-2.272329 1.00993,-2.7773 3.28226,-2.01986 9.08934,-1.51489 2.52482,0.50497 1.00993,1.00992 3.28225,1.00993 9.84679,0.50497 7.06949,-0.75745 4.03971,-2.01985 h 4.79715 l 4.29219,0.75744 3.02979,1.26241 v 0.50497 h 1.00992 l 1.00993,1.00992 1.00993,2.7773 3.28226,2.272339 9.08934,3.53474 3.02978,0.25248 2.52482,1.00993 9.84679,7.826929 3.53475,3.787229 3.53475,5.807089 2.27233,6.817 0.50496,13.381533 -0.50496,9.34182 -4.2922,10.09928 -6.56452,7.57445 -7.57445,5.55459 -11.36168,5.55461 -13.8865,4.0397 -15.14891,2.01986 -15.1489,-0.25249 -14.64394,-2.27233 -13.88649,-4.54468 -9.8468,-5.04963 -7.069491,-5.30212 -6.312039,-6.81701 -3.78723,-7.06948 -1.767369,-7.57446 0.75744,-11.361668 -0.252471,-5.807085 z"
     fill="#000000"
     fill-rule="evenodd"
     id="path5"
     style="stroke-width:0.252482" />
  <path
     d="m 12.588935,99.626092 -0.757446,6.312038 0.757446,10.85671 6.564524,17.42125 10.856719,14.39146 15.653867,13.38153 10.604239,7.06949 11.109198,5.30212 22.723348,8.58438 23.22832,5.55459 28.02548,3.02981 29.28788,-0.75743 29.28789,-4.79718 24.99569,-7.82694 18.43117,-8.58438 10.60423,-6.05956 8.58438,-6.81701 13.38154,-13.8865 8.33189,-14.13898 2.7773,-7.82694 1.51489,-9.08934 -1.2624,-14.896418 -7.32198,-17.673724 -8.58438,-11.361679 -17.42124,-14.896428 -19.94606,-11.109198 -24.74321,-9.089339 -23.98577,-5.30212 -26.00562,-2.524819 -31.81269,1.009929 -23.48081,3.78723 -23.985769,6.817009 -20.451018,8.836859 -18.683648,11.866639 -14.138983,13.381538 -9.341824,14.391458 z m 30.04533,-2.7773 4.03971,-11.361685 8.331889,-12.119118 10.604239,-9.846789 13.129048,-8.331899 14.643948,-6.564529 21.460951,-6.05956 21.20847,-3.029779 20.95597,-0.50496 20.95599,2.01985 17.67373,3.787229 18.17868,6.312039 13.88649,7.32197 12.11913,9.089348 5.80708,5.80708 5.5546,7.321969 5.80708,12.371604 1.76738,13.381528 -1.00994,7.57445 -2.01985,6.56453 -6.05956,11.1092 -11.1092,12.11913 -13.63401,9.84678 -17.16876,8.3319 -22.72335,6.81701 -19.44111,3.02978 -22.97584,0.50497 -21.9659,-2.52482 -16.6638,-4.03971 -16.91628,-6.31205 -10.856718,-5.55459 -10.604229,-7.0695 -11.614159,-11.1092 -8.584379,-13.63401 -3.534749,-13.63401 z"
     fill="#000000"
     fill-rule="evenodd"
     id="path6"
     style="stroke-width:0.252482" />
</svg>
