<svg xmlns="http://www.w3.org/2000/svg" width="1254" height="1254" viewBox="0 0 1254 1254">
<rect width="100%" height="100%" fill="white"/>
<path d="M 80,635 L 87,751 L 102,802 L 137,859 L 198,919 L 256,959 L 349,1003 L 474,1037 L 608,1051 L 723,1046 L 847,1022 L 933,993 L 999,959 L 1040,931 L 1106,873 L 1146,812 L 1165,753 L 1172,634 L 1140,695 L 1086,755 L 1036,793 L 961,834 L 880,865 L 784,889 L 691,901 L 600,903 L 506,895 L 428,880 L 354,858 L 275,825 L 203,782 L 151,739 L 111,692 Z" fill="black" fill-rule="evenodd"/>
<path d="M 379,543 L 380,570 L 387,591 L 393,602 L 412,626 L 427,639 L 453,657 L 488,674 L 527,687 L 565,695 L 622,700 L 668,698 L 713,691 L 763,676 L 801,658 L 827,640 L 853,613 L 866,591 L 874,560 L 873,545 L 855,571 L 831,593 L 805,610 L 755,632 L 724,641 L 687,648 L 642,652 L 615,652 L 576,649 L 535,642 L 503,633 L 470,620 L 434,600 L 409,581 L 389,559 Z" fill="black" fill-rule="evenodd"/>
<path d="M 381,496 L 382,511 L 386,525 L 399,549 L 424,576 L 454,596 L 454,598 L 456,597 L 501,618 L 532,627 L 568,634 L 612,638 L 670,636 L 718,628 L 753,618 L 793,601 L 824,581 L 848,558 L 863,534 L 870,514 L 872,500 L 869,479 L 859,455 L 845,436 L 828,421 L 815,433 L 811,441 L 813,463 L 824,474 L 827,481 L 826,491 L 821,500 L 806,513 L 781,516 L 757,526 L 739,538 L 734,550 L 728,556 L 705,564 L 682,566 L 659,557 L 624,554 L 599,556 L 587,559 L 579,564 L 562,566 L 540,562 L 527,557 L 519,550 L 516,541 L 502,529 L 476,517 L 447,513 L 431,499 L 426,489 L 426,480 L 440,462 L 442,443 L 439,434 L 426,421 L 405,440 L 396,452 L 386,472 Z" fill="black" fill-rule="evenodd"/>
<path d="M 439,413 L 440,419 L 451,429 L 456,446 L 453,466 L 439,482 L 439,486 L 442,492 L 454,502 L 477,504 L 492,509 L 514,521 L 517,524 L 516,525 L 518,524 L 527,533 L 532,545 L 538,548 L 559,553 L 571,553 L 587,545 L 614,541 L 639,541 L 657,543 L 673,548 L 675,550 L 674,551 L 676,550 L 681,553 L 704,551 L 721,545 L 725,534 L 735,524 L 744,518 L 748,518 L 747,517 L 751,514 L 773,505 L 799,502 L 810,493 L 814,485 L 813,480 L 802,470 L 797,457 L 797,441 L 802,428 L 814,417 L 814,413 L 804,400 L 799,397 L 767,392 L 744,381 L 732,373 L 725,366 L 721,355 L 703,349 L 685,347 L 680,348 L 667,356 L 647,359 L 596,358 L 581,354 L 576,350 L 567,347 L 541,351 L 533,354 L 529,358 L 528,364 L 525,369 L 512,379 L 478,394 L 455,397 L 450,400 Z" fill="black" fill-rule="evenodd"/>
<path d="M 217,516 L 217,569 L 233,615 L 269,666 L 312,704 L 383,746 L 448,771 L 524,789 L 599,797 L 687,795 L 764,783 L 844,759 L 907,729 L 961,691 L 1002,647 L 1027,602 L 1035,575 L 1038,550 L 1037,526 L 1030,491 L 1010,453 L 970,406 L 930,375 L 867,341 L 797,317 L 735,304 L 653,296 L 582,297 L 496,308 L 436,323 L 367,350 L 306,387 L 262,427 L 235,466 Z M 372,469 L 387,441 L 410,416 L 445,389 L 463,385 L 504,369 L 515,360 L 519,349 L 532,341 L 568,335 L 578,337 L 582,341 L 595,345 L 634,347 L 662,344 L 678,336 L 697,336 L 714,339 L 726,344 L 726,346 L 730,346 L 734,350 L 738,361 L 751,370 L 787,384 L 799,385 L 809,389 L 848,420 L 862,435 L 876,458 L 885,485 L 887,538 L 885,575 L 868,615 L 842,645 L 812,667 L 767,689 L 712,705 L 652,713 L 592,712 L 534,703 L 479,685 L 440,665 L 412,644 L 387,617 L 372,589 L 365,559 L 368,514 L 367,491 Z" fill="black" fill-rule="evenodd"/>
<path d="M 81,525 L 78,550 L 81,593 L 107,662 L 150,719 L 212,772 L 254,800 L 298,821 L 388,855 L 480,877 L 591,889 L 707,886 L 823,867 L 922,836 L 995,802 L 1037,778 L 1071,751 L 1124,696 L 1157,640 L 1168,609 L 1174,573 L 1169,514 L 1140,444 L 1106,399 L 1037,340 L 958,296 L 860,260 L 765,239 L 662,229 L 536,233 L 443,248 L 348,275 L 267,310 L 193,357 L 137,410 L 100,467 Z M 200,514 L 216,469 L 249,421 L 291,382 L 343,349 L 401,323 L 486,299 L 570,287 L 653,285 L 736,293 L 806,308 L 878,333 L 933,362 L 981,398 L 1004,421 L 1026,450 L 1049,499 L 1056,552 L 1052,582 L 1044,608 L 1020,652 L 976,700 L 922,739 L 854,772 L 764,799 L 687,811 L 596,813 L 509,803 L 443,787 L 376,762 L 333,740 L 291,712 L 245,668 L 211,614 L 197,560 Z" fill="black" fill-rule="evenodd"/>
</svg>