<svg xmlns="http://www.w3.org/2000/svg" width="1448" height="1086" viewBox="0 0 1448 1086">
<rect width="100%" height="100%" fill="white"/>
<path d="M 185,628 L 189,633 L 185,647 L 190,649 L 187,660 L 192,673 L 198,674 L 198,683 L 210,696 L 230,709 L 314,744 L 334,748 L 345,756 L 440,775 L 979,774 L 981,770 L 1021,766 L 1035,759 L 1042,761 L 1059,753 L 1065,755 L 1201,718 L 1205,711 L 1213,711 L 1224,701 L 1226,691 L 1231,693 L 1237,682 L 1235,668 L 1241,663 L 1240,644 L 1234,641 L 1238,635 L 1231,621 L 1223,618 L 1224,611 L 1212,600 L 1205,600 L 1202,593 L 1190,588 L 1179,590 L 1176,585 L 1162,585 L 1160,589 L 1137,585 L 1130,589 L 1126,584 L 1114,584 L 1111,592 L 1105,593 L 1102,584 L 1088,584 L 1086,592 L 1080,593 L 1078,584 L 1063,584 L 1061,592 L 1054,593 L 1051,583 L 1039,583 L 1036,592 L 1030,593 L 1027,583 L 1013,583 L 1010,592 L 1004,591 L 1002,583 L 988,583 L 985,592 L 979,591 L 977,583 L 963,583 L 962,591 L 955,592 L 952,582 L 938,582 L 936,588 L 930,589 L 927,582 L 913,582 L 904,588 L 903,582 L 893,581 L 880,590 L 877,581 L 854,586 L 851,581 L 837,581 L 835,589 L 828,590 L 827,582 L 812,581 L 811,589 L 804,590 L 800,580 L 788,580 L 786,589 L 779,590 L 777,580 L 763,580 L 754,589 L 751,580 L 738,580 L 736,588 L 729,589 L 726,579 L 713,579 L 711,588 L 704,589 L 701,579 L 688,579 L 686,588 L 679,589 L 677,579 L 663,579 L 661,587 L 654,588 L 652,579 L 639,578 L 636,587 L 629,588 L 627,578 L 613,578 L 612,585 L 606,587 L 602,578 L 588,578 L 587,586 L 579,587 L 576,577 L 564,577 L 562,586 L 554,587 L 552,577 L 538,577 L 535,587 L 528,585 L 527,577 L 513,577 L 511,585 L 504,586 L 501,576 L 487,577 L 485,586 L 478,585 L 477,576 L 463,576 L 460,585 L 454,584 L 452,576 L 438,576 L 437,584 L 430,585 L 427,575 L 414,575 L 412,583 L 405,585 L 402,575 L 388,575 L 387,582 L 382,582 L 385,584 L 378,583 L 378,575 L 363,575 L 361,583 L 354,583 L 352,574 L 329,578 L 326,573 L 304,575 L 297,570 L 278,572 L 277,568 L 260,567 L 258,571 L 240,569 L 211,583 L 211,588 L 204,590 L 194,603 L 196,609 L 189,614 Z M 777,759 L 778,758 L 780,758 L 781,757 L 783,757 L 784,758 L 784,759 L 783,760 L 783,762 L 782,763 L 781,762 L 780,762 L 779,761 L 780,760 L 781,760 L 778,760 Z M 740,756 L 741,755 L 742,755 L 743,756 L 744,756 L 745,757 L 747,757 L 748,758 L 749,758 L 750,759 L 750,761 L 749,762 L 742,762 L 741,761 L 741,760 L 740,759 Z M 585,755 L 586,754 L 587,754 L 588,755 L 589,755 L 590,756 L 592,756 L 593,757 L 595,757 L 596,758 L 596,761 L 595,762 L 594,761 L 594,759 L 593,759 L 592,760 L 591,760 L 593,760 L 594,761 L 593,762 L 587,762 L 586,761 L 586,756 Z M 432,755 L 433,754 L 434,755 L 435,755 L 436,756 L 437,756 L 438,757 L 441,757 L 442,758 L 441,759 L 441,761 L 440,762 L 433,762 L 432,761 Z M 962,753 L 963,754 L 963,756 L 962,757 L 962,760 L 960,762 L 954,762 L 953,761 L 953,759 L 952,758 L 953,757 L 954,757 L 955,758 L 955,760 L 958,760 L 957,760 L 956,759 L 956,758 L 955,758 L 954,757 L 955,756 L 956,756 L 957,755 L 959,755 L 960,754 L 961,754 Z M 1202,697 L 1203,698 L 1203,700 L 1204,701 L 1203,702 L 1202,702 L 1201,703 L 1200,703 L 1199,702 L 1199,701 L 1198,700 L 1201,697 Z M 933,690 L 937,690 L 938,691 L 939,691 L 940,692 L 941,692 L 943,694 L 942,695 L 943,694 L 944,695 L 944,696 L 945,697 L 945,704 L 943,706 L 942,705 L 943,706 L 943,707 L 941,709 L 940,709 L 939,710 L 937,710 L 936,711 L 934,711 L 933,710 L 931,710 L 930,709 L 929,709 L 927,707 L 927,706 L 926,705 L 926,704 L 925,703 L 925,698 L 926,697 L 926,696 L 927,695 L 927,694 L 930,691 L 932,691 Z M 762,690 L 767,690 L 768,691 L 769,691 L 774,696 L 774,698 L 775,699 L 775,701 L 774,702 L 774,704 L 773,705 L 773,706 L 771,708 L 770,707 L 769,708 L 768,708 L 769,709 L 768,710 L 766,710 L 765,711 L 763,711 L 762,710 L 760,710 L 755,705 L 755,703 L 754,702 L 754,699 L 755,698 L 755,696 L 757,694 L 757,693 L 758,692 L 759,692 L 760,691 L 761,691 Z M 609,690 L 614,690 L 615,691 L 616,691 L 617,692 L 618,692 L 620,694 L 620,695 L 621,696 L 621,697 L 622,698 L 622,702 L 621,703 L 621,705 L 617,709 L 616,708 L 614,708 L 616,708 L 617,709 L 616,710 L 608,710 L 607,709 L 606,709 L 603,706 L 603,705 L 602,704 L 602,697 L 603,696 L 603,695 L 607,691 L 608,691 Z M 455,690 L 460,690 L 461,691 L 462,691 L 467,696 L 467,699 L 468,700 L 467,701 L 467,704 L 466,705 L 466,706 L 462,710 L 459,710 L 458,711 L 457,711 L 456,710 L 453,710 L 452,709 L 453,708 L 454,708 L 453,708 L 452,709 L 449,706 L 449,705 L 448,704 L 448,702 L 447,701 L 447,699 L 448,698 L 448,697 L 449,696 L 449,695 L 453,691 L 454,691 Z M 1217,680 L 1218,681 L 1218,682 L 1219,683 L 1219,684 L 1220,685 L 1219,686 L 1219,687 L 1215,691 L 1212,688 L 1212,687 L 1214,685 L 1215,686 L 1216,686 L 1215,686 L 1214,685 L 1214,684 L 1216,682 L 1216,681 Z M 1226,661 L 1229,664 L 1228,665 L 1228,669 L 1226,671 L 1224,669 L 1224,671 L 1225,670 L 1226,671 L 1226,672 L 1225,673 L 1222,673 L 1221,672 L 1221,671 L 1222,670 L 1222,668 L 1223,667 L 1223,663 L 1225,661 Z M 1109,645 L 1110,646 L 1110,657 L 1111,658 L 1111,663 L 1110,664 L 1109,663 L 1108,664 L 1104,664 L 1103,665 L 1102,664 L 1102,662 L 1101,661 L 1101,648 L 1102,647 L 1106,647 L 1107,646 L 1108,646 Z M 199,638 L 201,638 L 202,639 L 204,639 L 205,638 L 206,639 L 206,645 L 207,646 L 207,649 L 208,650 L 208,653 L 209,654 L 209,655 L 210,656 L 210,658 L 211,659 L 211,660 L 212,661 L 212,662 L 214,664 L 214,665 L 215,666 L 215,667 L 213,669 L 212,669 L 214,669 L 214,668 L 215,667 L 217,669 L 217,670 L 216,671 L 212,671 L 211,672 L 210,672 L 209,673 L 207,673 L 206,672 L 206,671 L 205,670 L 205,667 L 204,666 L 204,665 L 203,664 L 203,663 L 202,662 L 202,659 L 204,657 L 204,656 L 205,655 L 205,652 L 204,652 L 203,651 L 204,650 L 205,650 L 204,650 L 203,651 L 200,651 L 199,650 L 199,643 L 198,642 L 198,639 Z M 1163,637 L 1171,637 L 1172,638 L 1174,638 L 1180,644 L 1180,646 L 1181,647 L 1181,654 L 1180,655 L 1180,656 L 1178,658 L 1178,659 L 1176,661 L 1175,661 L 1173,663 L 1171,663 L 1170,664 L 1165,664 L 1164,663 L 1162,663 L 1161,662 L 1160,662 L 1155,657 L 1155,655 L 1154,654 L 1154,646 L 1155,645 L 1155,644 L 1156,643 L 1156,642 L 1158,640 L 1159,640 L 1161,638 L 1162,638 Z M 322,632 L 323,632 L 325,634 L 328,634 L 330,636 L 330,640 L 329,641 L 329,646 L 328,647 L 328,651 L 327,652 L 327,654 L 326,655 L 325,654 L 324,654 L 323,653 L 322,653 L 321,652 L 319,652 L 318,651 L 318,650 L 319,649 L 320,650 L 322,650 L 320,650 L 319,649 L 319,646 L 320,645 L 320,638 L 321,637 L 320,636 L 320,635 L 321,634 L 321,633 Z M 450,632 L 450,641 L 449,642 L 445,642 L 435,645 L 427,649 L 419,655 L 418,654 L 415,657 L 416,658 L 407,669 L 401,682 L 399,690 L 399,710 L 403,724 L 410,736 L 416,743 L 415,744 L 416,745 L 417,744 L 425,750 L 419,751 L 415,760 L 408,758 L 408,750 L 404,747 L 396,746 L 391,755 L 386,754 L 383,752 L 383,743 L 375,740 L 372,740 L 366,748 L 360,747 L 358,745 L 359,737 L 353,733 L 348,732 L 342,740 L 337,739 L 335,737 L 335,728 L 326,724 L 324,724 L 318,732 L 310,729 L 311,719 L 302,715 L 300,715 L 295,721 L 294,720 L 292,720 L 293,721 L 292,722 L 287,720 L 288,710 L 279,706 L 277,706 L 274,709 L 273,708 L 274,709 L 271,713 L 265,712 L 262,710 L 263,700 L 256,696 L 252,696 L 248,702 L 245,703 L 240,700 L 240,697 L 237,697 L 231,693 L 231,686 L 225,691 L 214,681 L 214,679 L 219,672 L 221,674 L 220,676 L 221,675 L 226,679 L 225,680 L 226,679 L 231,683 L 230,684 L 232,683 L 243,689 L 254,692 L 276,691 L 295,682 L 296,683 L 295,682 L 306,673 L 313,663 L 320,666 L 361,677 L 391,677 L 402,657 L 414,645 L 431,635 L 445,631 Z M 942,631 L 943,630 L 959,634 L 976,643 L 991,658 L 995,664 L 1000,676 L 1002,677 L 1106,677 L 1108,678 L 1114,674 L 1121,684 L 1120,686 L 1121,687 L 1122,686 L 1133,697 L 1147,705 L 1156,707 L 1157,711 L 1158,708 L 1159,709 L 1159,717 L 1155,719 L 1151,719 L 1146,711 L 1138,712 L 1134,715 L 1135,723 L 1132,725 L 1126,726 L 1123,719 L 1120,717 L 1112,719 L 1110,721 L 1110,730 L 1109,731 L 1102,732 L 1097,724 L 1093,724 L 1085,727 L 1084,729 L 1085,730 L 1085,734 L 1083,735 L 1085,736 L 1082,738 L 1077,739 L 1075,737 L 1073,731 L 1070,730 L 1061,733 L 1060,735 L 1060,743 L 1059,744 L 1052,745 L 1049,738 L 1047,736 L 1041,737 L 1036,739 L 1035,741 L 1035,749 L 1034,750 L 1028,751 L 1022,742 L 1014,744 L 1011,746 L 1011,755 L 1010,756 L 1003,757 L 999,748 L 993,748 L 987,750 L 986,752 L 986,759 L 985,760 L 979,761 L 977,759 L 976,753 L 974,751 L 969,751 L 968,750 L 982,737 L 991,720 L 994,708 L 994,692 L 992,683 L 983,665 L 977,658 L 965,649 L 966,648 L 964,649 L 957,645 L 942,641 Z M 771,631 L 772,630 L 788,634 L 805,643 L 819,656 L 828,671 L 867,671 L 888,630 L 927,630 L 928,631 L 928,641 L 927,642 L 918,643 L 905,649 L 898,654 L 888,664 L 879,680 L 876,692 L 876,708 L 877,709 L 878,718 L 883,729 L 889,738 L 901,749 L 897,750 L 901,749 L 913,756 L 910,762 L 903,762 L 901,758 L 901,754 L 899,752 L 889,752 L 887,754 L 885,762 L 877,762 L 875,754 L 873,752 L 864,752 L 861,755 L 860,761 L 859,762 L 854,762 L 852,757 L 852,759 L 851,760 L 850,759 L 850,756 L 848,752 L 838,752 L 836,754 L 835,760 L 833,762 L 828,762 L 827,761 L 829,760 L 827,760 L 826,762 L 824,758 L 824,754 L 822,752 L 812,752 L 810,754 L 808,762 L 800,762 L 798,754 L 796,751 L 810,739 L 815,732 L 820,722 L 821,723 L 820,720 L 824,704 L 823,689 L 820,678 L 812,664 L 802,654 L 803,653 L 801,654 L 793,648 L 784,644 L 772,642 L 771,641 Z M 619,630 L 756,630 L 757,631 L 757,641 L 756,642 L 752,642 L 751,643 L 742,645 L 728,653 L 718,663 L 710,676 L 710,678 L 708,681 L 707,689 L 706,690 L 706,695 L 705,696 L 705,705 L 706,706 L 706,710 L 707,711 L 707,715 L 708,716 L 709,722 L 713,730 L 720,740 L 729,748 L 728,750 L 731,749 L 733,751 L 732,752 L 727,752 L 725,756 L 725,760 L 723,762 L 716,762 L 714,759 L 714,755 L 712,752 L 702,752 L 700,754 L 700,757 L 698,762 L 692,762 L 691,761 L 693,760 L 691,759 L 690,762 L 688,758 L 688,754 L 686,752 L 676,752 L 674,755 L 674,758 L 672,763 L 666,761 L 668,760 L 665,760 L 664,761 L 661,752 L 650,752 L 648,755 L 648,758 L 646,762 L 639,762 L 637,760 L 637,756 L 636,755 L 644,750 L 646,751 L 647,750 L 646,749 L 649,747 L 659,736 L 660,737 L 659,736 L 662,732 L 663,733 L 662,731 L 667,722 L 668,716 L 670,712 L 670,707 L 671,706 L 671,694 L 670,693 L 670,688 L 669,687 L 667,678 L 663,670 L 659,665 L 660,663 L 659,664 L 648,653 L 642,649 L 628,643 L 619,642 L 618,641 L 618,631 Z M 465,630 L 604,630 L 605,631 L 605,641 L 604,642 L 599,642 L 590,645 L 587,647 L 585,647 L 573,655 L 567,661 L 562,668 L 560,673 L 558,675 L 558,677 L 555,683 L 554,692 L 553,693 L 553,708 L 554,709 L 554,713 L 555,714 L 557,723 L 565,737 L 575,747 L 574,748 L 575,750 L 578,749 L 581,751 L 580,752 L 573,752 L 571,754 L 571,758 L 569,762 L 561,762 L 560,761 L 559,754 L 557,752 L 547,752 L 545,756 L 545,759 L 543,762 L 535,762 L 534,761 L 534,756 L 532,752 L 521,752 L 519,755 L 519,759 L 517,762 L 510,762 L 509,761 L 511,760 L 510,759 L 509,761 L 508,760 L 508,757 L 506,752 L 495,752 L 493,755 L 493,759 L 491,762 L 484,762 L 483,761 L 482,755 L 489,751 L 490,752 L 489,751 L 491,749 L 493,750 L 492,749 L 496,746 L 506,735 L 512,724 L 514,715 L 515,714 L 515,711 L 516,710 L 516,690 L 515,689 L 515,685 L 512,676 L 506,666 L 507,665 L 506,666 L 495,654 L 488,649 L 474,643 L 466,642 L 465,641 L 468,640 L 465,641 L 464,640 L 464,631 Z M 261,620 L 265,620 L 266,621 L 268,621 L 269,622 L 270,622 L 275,627 L 275,628 L 276,629 L 276,638 L 275,639 L 275,640 L 274,641 L 274,642 L 270,646 L 268,646 L 267,647 L 264,647 L 263,648 L 262,647 L 258,647 L 257,646 L 256,646 L 251,641 L 251,640 L 250,639 L 250,636 L 249,635 L 249,632 L 250,631 L 250,629 L 251,628 L 251,627 L 256,622 L 257,622 L 258,621 L 260,621 Z M 1112,615 L 1114,617 L 1115,617 L 1117,619 L 1118,619 L 1119,620 L 1118,621 L 1118,622 L 1116,624 L 1116,626 L 1115,627 L 1115,628 L 1114,629 L 1114,630 L 1113,631 L 1113,632 L 1112,633 L 1111,632 L 1111,631 L 1111,632 L 1110,633 L 1109,633 L 1107,631 L 1106,631 L 1105,630 L 1105,628 L 1106,627 L 1106,625 L 1107,624 L 1107,623 L 1108,622 L 1108,621 L 1109,620 L 1109,619 L 1110,618 L 1110,617 Z M 207,608 L 208,609 L 209,609 L 210,610 L 210,612 L 209,613 L 209,614 L 208,615 L 208,618 L 207,619 L 207,622 L 206,623 L 206,627 L 205,628 L 205,629 L 204,630 L 202,630 L 201,631 L 199,631 L 198,630 L 198,626 L 199,625 L 199,622 L 200,621 L 200,618 L 201,617 L 202,617 L 203,616 L 203,615 L 204,614 L 204,612 L 205,611 L 205,610 Z M 322,602 L 323,603 L 323,605 L 324,606 L 324,607 L 325,608 L 325,610 L 326,611 L 326,612 L 327,613 L 327,615 L 328,616 L 328,618 L 326,620 L 324,620 L 322,622 L 321,622 L 320,623 L 319,622 L 319,620 L 318,619 L 318,617 L 317,616 L 317,614 L 316,613 L 316,611 L 315,610 L 315,609 L 314,608 L 314,607 L 315,606 L 317,606 L 319,604 L 320,604 L 321,605 L 320,606 L 321,606 L 321,605 L 320,604 Z M 1128,598 L 1129,597 L 1137,597 L 1138,598 L 1138,601 L 1137,602 L 1136,602 L 1135,603 L 1134,603 L 1131,606 L 1130,606 L 1129,605 L 1129,603 L 1128,602 L 1128,600 L 1129,599 L 1130,599 L 1131,600 L 1132,600 L 1133,599 L 1129,599 Z M 306,584 L 307,585 L 307,587 L 304,590 L 304,591 L 303,592 L 302,592 L 299,589 L 300,588 L 300,585 L 301,584 Z" fill="black" fill-rule="evenodd"/>
<path d="M 565,351 L 562,352 L 559,350 L 554,349 L 548,344 L 548,342 L 546,340 L 540,340 L 534,343 L 530,352 L 529,360 L 523,364 L 489,364 L 482,368 L 480,371 L 466,371 L 465,372 L 310,375 L 307,372 L 302,371 L 299,369 L 272,369 L 269,372 L 269,393 L 272,396 L 299,396 L 302,394 L 308,393 L 311,390 L 479,393 L 484,398 L 488,400 L 524,400 L 529,404 L 530,409 L 534,413 L 547,413 L 555,407 L 557,407 L 559,403 L 559,394 L 560,393 L 560,387 L 561,386 L 561,380 L 562,379 L 563,358 Z" fill="black" fill-rule="evenodd"/>
<path d="M 187,559 L 192,569 L 200,566 L 207,576 L 232,562 L 258,558 L 333,567 L 1156,578 L 1161,572 L 1183,573 L 1184,580 L 1194,580 L 1218,593 L 1236,613 L 1244,633 L 1257,641 L 1280,638 L 1286,618 L 1285,587 L 1279,582 L 1286,569 L 1286,533 L 1278,522 L 1265,522 L 1256,531 L 1239,518 L 1225,515 L 1223,502 L 1213,494 L 1138,488 L 1135,500 L 1130,501 L 1107,441 L 1047,440 L 1043,422 L 1000,423 L 998,440 L 874,439 L 871,416 L 875,415 L 871,413 L 920,410 L 909,317 L 900,308 L 812,306 L 811,288 L 819,281 L 794,275 L 721,278 L 718,284 L 727,288 L 726,306 L 635,306 L 632,293 L 618,292 L 613,306 L 582,316 L 569,333 L 558,430 L 572,433 L 572,439 L 571,435 L 569,440 L 455,441 L 421,499 L 399,499 L 405,491 L 403,483 L 361,473 L 357,490 L 364,500 L 265,503 Z M 1260,584 L 1262,586 L 1263,586 L 1264,587 L 1271,587 L 1272,588 L 1272,626 L 1271,627 L 1270,626 L 1271,627 L 1270,628 L 1260,628 L 1259,627 L 1259,585 Z" fill="black" fill-rule="evenodd"/>
</svg>