<?xml version="1.0" encoding="UTF-8" standalone="no"?>
<svg
   width="550"
   height="250"
   viewBox="0 0 550 250"
   version="1.1"
   id="svg3"
   sodipodi:docname="tetrarch_black.svg"
   inkscape:version="1.4.2 (f4327f4, 2025-05-13)"
   xmlns:inkscape="http://www.inkscape.org/namespaces/inkscape"
   xmlns:sodipodi="http://sodipodi.sourceforge.net/DTD/sodipodi-0.dtd"
   xmlns="http://www.w3.org/2000/svg"
   xmlns:svg="http://www.w3.org/2000/svg">
  <defs
     id="defs3" />
  <sodipodi:namedview
     id="namedview3"
     pagecolor="#ffffff"
     bordercolor="#000000"
     borderopacity="0.25"
     inkscape:showpageshadow="2"
     inkscape:pageopacity="0.0"
     inkscape:pagecheckerboard="0"
     inkscape:deskcolor="#d1d1d1"
     inkscape:zoom="1.0819521"
     inkscape:cx="253.24596"
     inkscape:cy="272.19319"
     inkscape:window-width="2560"
     inkscape:window-height="1377"
     inkscape:window-x="-8"
     inkscape:window-y="-8"
     inkscape:window-maximized="1"
     inkscape:current-layer="svg3" />
  <path
     d="m 36.194894,168.93975 1.803952,2.25494 -1.803952,6.31383 2.254938,0.90197 -1.352968,4.96086 2.254938,5.86283 2.705923,0.451 v 4.05888 l 5.411857,5.86284 9.019738,5.86283 37.882931,15.78455 9.019749,1.80395 4.96086,3.60791 42.84379,8.56875 243.08216,-0.45099 0.90197,-1.80395 18.03949,-1.80395 6.31383,-3.15691 3.15691,0.90197 7.66678,-3.60789 2.70592,0.90197 61.33428,-16.68652 1.80395,-3.15692 h 3.60789 l 4.96086,-4.50986 0.90199,-4.50988 2.25493,0.90197 2.70593,-4.96086 -0.90198,-6.31382 2.70592,-2.25493 -0.45099,-8.56877 -2.70592,-1.35295 1.80395,-2.70594 -3.15691,-6.31381 -3.6079,-1.35297 0.45098,-3.15691 -5.41184,-4.96086 h -3.15691 l -1.35297,-3.15691 -5.41184,-2.25494 -4.96086,0.90198 -1.35296,-2.25494 h -6.31382 l -0.90198,1.80395 -10.37271,-1.80395 -3.15691,1.80395 -1.80395,-2.25494 h -5.41185 l -1.35295,3.60791 -2.70593,0.45098 -1.35296,-4.05889 h -6.31383 l -0.90197,3.60791 -2.70592,0.45098 -0.90197,-4.05889 h -6.76482 l -0.90197,3.60791 -3.15692,0.45098 -1.35295,-4.50987 h -5.41185 l -1.35297,4.05889 -2.70592,0.45098 -1.35297,-4.50987 h -6.31381 l -1.35297,4.05889 -2.70592,-0.451 -0.90197,-3.60789 h -6.31383 l -1.35295,4.05889 -2.70593,-0.451 -0.90198,-3.60789 h -6.31382 l -0.45098,3.60789 -3.15692,0.451 -1.35296,-4.50988 h -6.31382 l -0.90197,2.70592 -2.70593,0.45099 -1.35296,-3.15691 h -6.31382 l -4.05889,2.70592 -0.45098,-2.70592 -4.50988,-0.45098 -5.86283,4.05888 -1.35297,-4.05888 -10.3727,2.25493 -1.35297,-2.25493 h -6.31382 l -0.90198,3.60789 -3.15691,0.45099 -0.45098,-3.6079 -6.76481,-0.45098 -0.45099,3.60789 -3.15691,0.45099 -1.80395,-4.50988 h -5.41184 l -0.90199,4.05889 -3.1569,0.45099 -0.90197,-4.50988 h -6.31383 l -4.05888,4.05889 -1.35297,-4.05889 h -5.86283 l -0.90198,3.6079 -3.15691,0.45099 -1.35295,-4.50987 h -5.86285 l -0.90197,4.05888 -3.1569,0.45099 -1.35297,-4.50987 h -5.86283 l -0.90198,4.05888 -3.15691,0.45099 -0.90197,-4.50987 h -6.31383 l -0.90197,3.6079 -3.15692,0.45098 -0.90197,-4.05888 -5.86283,-0.45099 -1.35297,4.05889 -3.15691,0.45098 -0.90197,-4.50987 h -6.31382 l -0.45099,3.15691 -2.70592,0.90198 -1.80395,-4.05889 h -6.31383 l -0.45099,3.6079 -3.60789,0.45099 -1.35297,-4.50988 h -5.41184 l -0.90197,4.05889 -3.60791,0.45099 -0.90197,-4.50988 h -6.31383 l -1.35295,4.50988 -3.15692,-0.90198 -0.45099,-3.6079 h -6.31381 l -0.90198,3.6079 -3.15691,0.45099 -1.35296,-4.50987 -6.31382,0.45098 -0.90198,4.05889 -3.15691,-0.45099 -0.45099,-4.05888 h -6.31382 l -1.35296,4.05888 -2.70593,-0.45099 -0.90197,-3.60789 h -6.31382 l -0.45099,3.60789 -3.15691,0.45099 -1.35296,-4.50987 h -5.86283 l -0.90199,3.6079 -3.1569,0.90197 -1.35296,-4.50987 h -6.31383 l -0.45098,3.15691 h -2.25494 l 1.35296,0.90197 -3.15691,-0.45098 v -3.6079 h -6.76482 l -0.90197,3.6079 h -3.1569 l -0.90199,-4.05889 -10.3727,1.80395 -1.352959,-2.25494 -9.92171,0.90198 -3.156924,-2.25493 -8.568753,0.90197 -0.450985,-1.80396 -7.666783,-0.45098 -0.901982,1.80395 -8.117769,-0.90198 -13.078628,6.31383 v 2.25493 l -3.156919,0.90198 -4.509864,5.86284 0.90197,2.70592 -3.156908,2.25494 z m 266.984486,59.07934 0.45098,-0.45098 h 0.90197 l 0.451,-0.45099 h 0.90197 l 0.45098,0.45099 v 0.45098 l -0.45098,0.45099 v 0.90198 l -0.45099,0.45098 -0.45098,-0.45098 h -0.451 l -0.45098,-0.451 0.45098,-0.45098 h 0.451 -1.35297 z m -16.68654,-1.35295 0.45099,-0.451 h 0.45098 l 0.451,0.451 h 0.45098 l 0.45099,0.45098 h 0.90197 l 0.451,0.45099 h 0.45098 l 0.45099,0.45098 v 0.90197 l -0.45099,0.451 h -3.15692 l -0.45098,-0.451 v -0.45098 l -0.45099,-0.45099 z m -69.90303,-0.451 0.45099,-0.45099 h 0.45098 l 0.45099,0.45099 h 0.45099 l 0.45099,0.451 h 0.90197 l 0.45099,0.45098 h 0.90198 l 0.45098,0.45099 v 1.35295 l -0.45098,0.451 -0.45099,-0.451 v -0.90197 h -0.45099 l -0.45099,0.45099 h -0.45098 0.90197 l 0.45099,0.45098 -0.45099,0.451 h -2.70593 l -0.45098,-0.451 v -2.25492 z m -69.00106,0 0.45099,-0.45099 0.45098,0.45099 h 0.451 l 0.45099,0.451 h 0.45098 l 0.45099,0.45098 h 1.35296 l 0.45099,0.45099 -0.45099,0.45098 v 0.90197 l -0.45099,0.451 h -3.15691 l -0.45099,-0.451 z m 239.02328,-0.90197 0.45098,0.45098 v 0.90199 l -0.45098,0.45098 v 1.35296 l -0.90198,0.90198 h -2.70592 l -0.45099,-0.451 v -0.90197 l -0.45099,-0.45098 0.45099,-0.45099 h 0.45099 l 0.45098,0.45099 v 0.90197 h 1.35297 -0.45099 l -0.45099,-0.45099 v -0.45098 h -0.45099 l -0.45098,-0.45099 0.45098,-0.45098 h 0.45099 l 0.45099,-0.451 h 0.90197 l 0.45099,-0.45099 h 0.45098 z m 108.23694,-25.25529 0.45099,0.45099 v 0.90197 l 0.451,0.451 -0.451,0.45098 h -0.45099 l -0.45098,0.45099 H 493.947 l -0.45098,-0.45099 v -0.45098 l -0.45099,-0.451 1.35296,-1.35296 z m -121.31558,-3.15691 h 1.80395 l 0.45099,0.45099 h 0.45098 l 0.451,0.45099 h 0.45098 l 0.90197,0.90197 -0.45098,0.45098 0.45098,-0.45098 0.45099,0.45098 v 0.451 l 0.45099,0.45098 v 3.15691 l -0.90198,0.90197 -0.45098,-0.45098 0.45098,0.45098 v 0.451 l -0.90197,0.90197 h -0.45098 l -0.451,0.45098 h -0.90197 l -0.45098,0.45099 h -0.90199 l -0.45098,-0.45099 h -0.90197 l -0.45099,-0.45098 h -0.45098 l -0.90198,-0.90197 v -0.451 l -0.45099,-0.45098 v -0.45099 l -0.45098,-0.45098 v -2.25494 l 0.45098,-0.45099 v -0.45098 l 0.45099,-0.451 v -0.45098 l 1.35296,-1.35296 h 0.90197 z m -77.11883,0 h 2.25494 l 0.45099,0.45099 h 0.45098 l 2.25494,2.25494 v 0.90197 l 0.45098,0.45098 v 0.90199 l -0.45098,0.45098 v 0.90197 l -0.45099,0.45099 v 0.45098 l -0.90197,0.90198 -0.45098,-0.45098 -0.451,0.45098 h -0.45098 l 0.45098,0.45099 -0.45098,0.45098 h -0.90198 l -0.45098,0.45099 h -0.90198 l -0.45099,-0.45099 h -0.90197 l -2.25494,-2.25493 v -0.90197 l -0.45098,-0.45099 v -1.35297 l 0.45098,-0.45098 v -0.90197 l 0.90197,-0.90198 v -0.45099 l 0.45099,-0.45098 h 0.451 l 0.45098,-0.45099 h 0.45099 z m -69.00106,0 h 2.25494 l 0.45099,0.45099 h 0.45099 l 0.45099,0.45099 h 0.45098 l 0.90197,0.90197 v 0.45098 l 0.45099,0.451 v 0.45098 l 0.451,0.45099 v 1.80395 l -0.451,0.45099 v 0.90197 l -1.80394,1.80395 -0.45099,-0.45099 h -0.90198 0.90198 l 0.45099,0.45099 -0.45099,0.45098 h -3.6079 l -0.45099,-0.45098 h -0.45098 l -1.35297,-1.35297 v -0.45098 l -0.45098,-0.45099 v -3.15691 l 0.45098,-0.45098 v -0.451 l 1.80395,-1.80394 h 0.45099 z m -69.45204,0 h 2.25494 l 0.45098,0.45099 h 0.45099 l 2.25493,2.25494 v 1.35295 l 0.451,0.45099 -0.451,0.451 v 1.35295 l -0.45098,0.45099 v 0.45098 l -1.80395,1.80395 h -1.35296 l -0.45098,0.45099 h -0.45099 l -0.451,-0.45099 h -1.35295 l -0.45099,-0.45098 0.45099,-0.45099 h 0.45098 -0.45098 l -0.45099,0.45099 -1.35296,-1.35297 v -0.45098 l -0.45099,-0.45099 v -0.90197 l -0.45098,-0.45098 v -0.90199 l 0.45098,-0.45098 v -0.45099 l 0.45099,-0.45098 v -0.451 l 1.80395,-1.80394 h 0.45098 z m 343.65233,-4.50987 0.45098,0.45098 v 0.45099 l 0.45099,0.45099 v 0.45098 l 0.45099,0.451 -0.45099,0.45098 v 0.45099 l -1.80394,1.80395 -1.35297,-1.35297 v -0.45098 l 0.90197,-0.90197 0.451,0.45098 h 0.45098 -0.45098 l -0.451,-0.45098 v -0.451 l 0.90198,-0.90197 v -0.45099 z m 4.05889,-8.56877 1.35295,1.35297 -0.45098,0.45099 v 1.80395 l -0.90197,0.90197 -0.90199,-0.90197 v 0.90197 l 0.45099,-0.45099 0.451,0.45099 v 0.45099 l -0.451,0.45098 h -1.35296 l -0.45098,-0.45098 v -0.45099 l 0.45098,-0.45099 v -0.90197 l 0.45099,-0.45099 v -1.80394 l 0.90197,-0.90199 z m -52.76553,-7.21579 0.45099,0.45099 v 4.96086 l 0.451,0.45099 v 2.25494 l -0.451,0.45098 -0.45099,-0.45098 -0.45098,0.45098 h -1.80395 l -0.45099,0.45099 -0.45098,-0.45099 v -0.90198 l -0.45099,-0.45099 v -5.86283 l 0.45099,-0.45098 h 1.80395 l 0.45098,-0.45099 h 0.45099 z M 42.508721,173.44963 h 0.901971 l 0.450985,0.45098 h 0.901971 l 0.450996,-0.45098 0.450985,0.45098 v 2.70593 l 0.450986,0.45099 v 1.35296 l 0.450985,0.45098 v 1.35297 l 0.450985,0.45099 v 0.45098 l 0.450997,0.45099 v 0.90198 l 0.450985,0.45098 v 0.45099 l 0.450985,0.45098 v 0.45099 l 0.901971,0.90198 v 0.45099 l 0.450985,0.45098 v 0.45099 l -0.901971,0.90198 h -0.450985 0.901971 v -0.45099 l 0.450985,-0.45099 0.901982,0.90198 v 0.45098 l -0.450986,0.45099 h -1.803952 l -0.450985,0.45099 h -0.450985 l -0.450997,0.45098 h -0.90197 l -0.450986,-0.45098 v -0.45099 l -0.450985,-0.45099 v -1.35296 l -0.450996,-0.45099 v -0.45098 l -0.450986,-0.45099 v -0.45098 l -0.450985,-0.451 v -1.35296 l 0.901971,-0.90197 v -0.45099 l 0.450996,-0.45099 v -1.35295 h -0.450996 l -0.450986,-0.451 0.450986,-0.45099 h 0.450996 -0.450996 l -0.450986,0.45099 h -1.352955 l -0.450986,-0.45099 v -3.1569 l -0.450996,-0.45099 v -1.35297 z m 434.751749,-0.45099 h 3.60791 l 0.45098,0.45099 h 0.90197 l 2.70592,2.70592 v 0.90198 l 0.45099,0.45099 v 3.15691 l -0.45099,0.45098 v 0.45099 l -0.90197,0.90198 v 0.45098 l -0.90197,0.90197 h -0.45099 l -0.90197,0.90199 h -0.90197 l -0.451,0.45098 h -2.25493 l -0.45099,-0.45098 h -0.90197 l -0.45099,-0.451 h -0.45099 l -2.25493,-2.25493 v -0.90198 l -0.45099,-0.45098 v -3.6079 l 0.45099,-0.45099 v -0.45099 l 0.45098,-0.45098 v -0.45099 l 0.90197,-0.90198 h 0.45099 l 0.90198,-0.90197 h 0.45099 z M 97.980151,170.74371 h 0.45099 l 0.90198,0.90197 h 1.352949 l 0.90197,0.90198 v 1.80394 l -0.45098,0.451 v 2.25493 l -0.45099,0.45099 v 1.80394 l -0.45098,0.451 v 0.90197 l -0.450989,0.45098 -0.45098,-0.45098 h -0.451 l -0.45098,-0.45099 h -0.45099 l -0.45098,-0.45098 h -0.90199 l -0.45098,-0.451 v -0.45099 l 0.45098,-0.45098 0.451,0.45098 h 0.90197 -0.90197 l -0.451,-0.45098 v -1.35296 l 0.451,-0.45099 v -3.15691 l 0.45099,-0.45099 -0.45099,-0.45098 v -0.451 l 0.45099,-0.45098 v -0.45099 z m 57.726369,0 v 4.05889 l -0.45098,0.45098 h -1.80396 l -4.50986,1.35296 -3.6079,1.80395 -3.6079,2.70592 -0.45099,-0.45098 -1.35296,1.35296 0.45099,0.45099 -4.05889,4.96086 -2.70593,5.86283 -0.90197,3.6079 v 9.01974 l 1.80396,6.31383 3.1569,5.41185 2.70593,3.1569 -0.45099,0.45099 0.45099,0.451 0.45098,-0.451 3.60791,2.70592 -2.70593,0.451 -1.80395,4.05888 -3.15691,-0.90197 v -3.60791 l -1.80395,-1.35295 -3.6079,-0.45099 -2.25493,4.05888 -2.25494,-0.45099 -1.35297,-0.90197 v -4.05889 l -3.60789,-1.35295 h -1.35297 l -2.70592,3.60789 -2.70592,-0.45098 -0.90197,-0.90197 0.45098,-3.60791 -2.70592,-1.80395 -2.25494,-0.45099 -2.70592,3.60791 -2.25494,-0.451 -0.90198,-0.90197 v -4.05889 l -4.058879,-1.80394 h -0.90198 l -2.70592,3.60789 -3.60789,-1.35295 0.45098,-4.50988 -4.05889,-1.80395 h -0.90197 l -2.254934,2.70592 -0.450985,-0.45098 H 84.45053 l 0.450996,0.45098 -0.450996,0.45099 -2.254926,-0.90197 0.450985,-4.50988 -4.05889,-1.80395 h -0.90197 l -1.352967,1.35297 -0.450986,-0.45099 0.450986,0.45099 -1.352956,1.80395 -2.705923,-0.45098 -1.352967,-0.90199 0.450985,-4.50987 -3.156908,-1.80394 h -1.803952 l -1.803952,2.70592 -1.352956,0.45099 -2.254938,-1.35297 v -1.35296 h -1.352967 l -2.705922,-1.80395 v -3.15691 l -2.705923,2.25494 -4.96086,-4.50988 v -0.90197 l 2.254937,-3.15691 0.901982,0.90198 -0.450997,0.90197 0.450997,-0.45099 2.254926,1.80395 -0.450985,0.45099 0.450985,-0.45099 2.254938,1.80395 -0.450986,0.45098 0.901982,-0.45098 4.960861,2.70592 4.96086,1.35297 9.92172,-0.45099 8.568754,-4.05889 0.450985,0.45099 -0.450985,-0.45099 4.960864,-4.05889 3.1569,-4.50986 3.15692,1.35295 18.490469,4.96086 h 13.52963 l 4.96086,-9.01974 5.41185,-5.41185 7.66678,-4.50988 6.31381,-1.80394 z m 221.88576,-0.45099 0.45098,-0.45098 7.2158,1.80394 7.66679,4.05889 6.76481,6.76481 1.80395,2.70592 2.25493,5.41185 0.90198,0.45098 h 46.90268 l 0.90197,0.45099 2.70592,-1.80394 3.15691,4.50986 -0.45099,0.90198 0.45099,0.45099 0.451,-0.45099 4.96086,4.96086 6.31381,3.6079 4.05889,0.90198 0.45099,1.80394 0.45098,-1.35296 0.45099,0.45099 v 3.60789 l -1.80394,0.90198 h -1.80395 l -2.25494,-3.6079 -3.6079,0.451 -1.80395,1.35295 0.45099,3.60791 -1.35296,0.90197 -2.70593,0.45098 -1.35296,-3.15691 -1.35297,-0.90198 -3.60789,0.90198 -0.90198,0.90197 v 4.05889 l -0.45099,0.45099 -3.1569,0.45098 -2.25494,-3.60789 h -1.80395 l -3.6079,1.35296 -0.45098,0.90198 0.45098,0.45098 v 1.80396 l -0.90197,0.45098 0.90197,0.45099 -1.35296,0.90197 -2.25494,0.45098 -0.90197,-0.90197 -0.90197,-2.70592 -1.35297,-0.45099 -4.05888,1.35296 -0.45099,0.90198 v 3.60789 l -0.45099,0.45099 -3.15691,0.451 -1.35296,-3.15692 -0.90198,-0.90197 -2.70592,0.45098 -2.25494,0.90197 -0.45098,0.90198 v 3.6079 l -0.45099,0.45098 -2.70592,0.451 -2.70593,-4.05889 -3.6079,0.90197 -1.35296,0.90198 v 4.05888 l -0.45099,0.451 -3.15691,0.45098 -1.80395,-4.05889 h -2.70592 l -2.70592,0.90197 -0.45099,0.90198 v 3.15691 l -0.45098,0.45099 -2.70593,0.45098 -0.90198,-0.90197 -0.45098,-2.70592 -0.90197,-0.90197 h -2.25494 l -0.45099,-0.451 6.31382,-5.86283 4.05889,-7.66678 1.35295,-5.41185 v -7.21579 l -0.90197,-4.05889 -4.05889,-8.11777 -2.70592,-3.15691 -5.41184,-4.05889 0.45098,-0.45099 -0.90197,0.45099 -3.15691,-1.80395 -6.76481,-1.80394 z m -77.11883,0 0.45099,-0.45098 7.2158,1.80394 7.66678,4.05889 6.31381,5.86283 4.05889,6.76481 h 17.58851 l 9.47073,-18.49047 h 17.58851 l 0.45098,0.45098 v 4.50988 l -0.45098,0.45098 -4.05888,0.45099 -5.86284,2.70592 -3.15691,2.25494 -4.50988,4.50987 -4.05889,7.2158 -1.35295,5.41185 v 7.21579 l 0.45098,0.45099 0.45099,4.05889 2.25494,4.96086 2.70592,4.05888 5.41184,4.96086 -1.80394,0.45098 1.80394,-0.45098 5.41186,3.15692 -1.35297,2.70592 h -3.1569 l -0.90199,-1.80395 v -1.80396 l -0.90197,-0.90197 h -4.50987 l -0.90197,0.90197 -0.90197,3.60791 h -3.60791 l -0.90197,-3.60791 -0.90198,-0.90197 h -4.05888 l -1.35296,1.35296 -0.45099,2.70592 -0.45099,0.451 h -2.25493 l -0.90198,-2.25494 v 0.90197 l -0.45099,0.45099 -0.45099,-0.45099 v -1.35295 l -0.90197,-1.80396 h -4.50987 l -0.90197,0.90197 -0.451,2.70593 -0.90197,0.90198 h -2.25494 l -0.45098,-0.451 0.90197,-0.45098 h -0.90197 l -0.45099,0.90198 -0.90198,-1.80395 v -1.80396 l -0.90197,-0.90197 h -4.50987 l -0.90197,0.90197 -0.90199,3.60791 h -3.60789 l -0.90197,-3.60791 -0.90198,-1.35295 6.31383,-5.41186 2.25493,-3.15691 2.25494,-4.50987 0.45099,0.451 -0.45099,-1.35297 1.80394,-7.2158 -0.45098,-6.76481 -1.35296,-4.96086 -3.6079,-6.31382 -4.50988,-4.50987 0.451,-0.45099 -0.90198,0.45099 -3.6079,-2.70593 -4.05889,-1.80395 -5.41184,-0.90197 -0.45099,-0.45098 z m -68.55007,-0.45098 h 61.78526 l 0.45098,0.45098 v 4.50988 l -0.45098,0.45098 h -1.80395 l -0.45099,0.45099 -4.05889,0.90197 -6.31381,3.6079 -4.50988,4.50988 -3.60789,5.86283 v 0.90197 l -0.90198,1.35296 -0.45099,3.6079 -0.45098,0.45099 v 2.25493 l -0.45099,0.451 v 4.05888 l 0.45099,0.45098 v 1.80395 l 0.45098,0.45099 v 1.80395 l 0.45099,0.45099 0.45098,2.70592 1.80395,3.6079 3.15691,4.50988 4.05889,3.60789 -0.45098,0.90197 1.35295,-0.45098 0.90198,0.90198 -0.45098,0.45098 h -2.25494 l -0.90198,1.80396 v 1.80394 l -0.90197,0.90198 h -3.15691 l -0.90198,-1.35297 v -1.80395 l -0.90197,-1.35296 h -4.50988 l -0.90197,0.90197 v 1.35297 l -0.90198,2.25494 h -2.70592 l -0.45099,-0.451 0.90199,-0.45098 -0.90199,-0.45099 -0.45098,1.35297 -0.90197,-1.80395 v -1.80396 l -0.90198,-0.90197 h -4.50988 l -0.90197,1.35296 v 1.35297 l -0.90197,2.25493 -2.70592,-0.90198 0.90197,-0.45098 h -1.35297 l -0.45098,0.45098 -1.35296,-4.05888 h -4.96086 l -0.90198,1.35296 v 1.35297 l -0.90197,1.80395 h -3.15691 l -0.90198,-0.90198 v -1.80394 l -0.45099,-0.451 3.60791,-2.25494 0.90197,0.451 0.45098,-0.451 -0.45098,-0.45098 1.35296,-0.90197 4.50987,-4.96086 0.45099,0.45098 -0.45099,-0.45098 1.35296,-1.80396 0.45099,0.45099 -0.45099,-0.90197 2.25494,-4.05889 0.45099,-2.70592 0.90197,-1.80394 v -2.25494 l 0.45099,-0.451 v -5.41184 l -0.45099,-0.45099 v -2.25494 l -0.45099,-0.45098 -0.90197,-4.05889 -1.80395,-3.6079 -1.80395,-2.25493 0.45099,-0.90197 -0.45099,0.45098 -4.96086,-4.96086 -2.70593,-1.80395 -6.31381,-2.70592 -4.05889,-0.45099 -0.45099,-0.45098 v -4.50988 z m -69.45205,0 h 62.68724 l 0.45099,0.45098 v 4.50988 l -0.45099,0.45098 h -2.25494 l -4.05888,1.35296 -1.35297,0.90198 h -0.90197 l -5.41184,3.60789 -2.70593,2.70592 -2.25493,3.15692 -0.90199,2.25493 -0.90197,0.90198 v 0.90197 l -1.35296,2.70593 -0.45099,4.05889 -0.45098,0.45098 v 6.76481 l 0.45098,0.45099 v 1.80395 l 0.45099,0.45099 0.90198,4.05889 3.60789,6.31381 4.50988,4.50988 -0.45099,0.45098 0.45099,0.90197 1.35296,-0.45098 1.35296,0.90198 -0.45099,0.45098 h -3.1569 l -0.90198,0.90197 v 1.80396 l -0.90198,1.80395 h -3.6079 l -0.45099,-0.451 -0.45098,-3.15691 -0.90197,-0.90197 h -4.50988 l -0.90197,1.80396 v 1.35295 l -0.90198,1.35297 h -3.60789 l -0.45099,-0.451 v -2.25492 l -0.90198,-1.80396 h -4.96086 l -0.90197,1.35296 v 1.80395 l -0.90198,1.35297 h -3.15691 l -0.45098,-0.451 0.90197,-0.45098 -0.45099,-0.45099 -0.45098,0.90197 -0.45099,-0.45098 v -1.35296 l -0.90198,-2.25494 h -4.96086 l -0.90197,1.35296 v 1.80395 l -0.90197,1.35297 h -3.15692 l -0.45099,-0.451 -0.45098,-2.70592 3.15691,-1.80394 0.45099,0.45098 -0.45099,-0.45098 0.90198,-0.90198 0.90197,0.45098 -0.45099,-0.45098 1.80395,-1.35296 4.50987,-4.96086 2.70593,-4.96086 0.90197,-4.05889 0.45099,-0.45098 v -1.35297 l 0.45098,-0.45099 v -9.01974 l -0.45098,-0.45099 v -1.80394 l -1.35296,-4.05889 -2.70593,-4.50988 0.451,-0.45098 -0.451,0.45098 -4.96086,-5.41184 -3.15691,-2.25494 -6.31382,-2.70592 -3.6079,-0.45099 -0.45099,-0.45098 1.35297,-0.451 -1.35297,0.451 -0.45098,-0.451 v -4.05888 z m -92.001399,-4.50988 h 1.803952 l 0.450985,0.45099 h 0.901971 l 0.450985,0.45098 h 0.450985 l 2.254938,2.25494 v 0.45098 l 0.450996,0.45099 v 4.05889 l -0.450996,0.45098 v 0.45099 l -0.450985,0.451 v 0.45098 l -1.803953,1.80395 h -0.90197 l -0.450985,0.45099 h -1.352967 l -0.450986,0.45098 -0.450985,-0.45098 h -1.803952 l -0.450985,-0.45099 h -0.450986 l -2.254937,-2.25493 v -0.451 l -0.450985,-0.45099 v -1.35295 l -0.450986,-0.451 v -1.35295 l 0.450986,-0.45099 v -0.90198 l 0.450985,-0.45099 v -0.45098 l 2.254937,-2.25494 h 0.450986 l 0.450985,-0.45098 h 0.901982 z m 383.790189,-2.25494 0.90197,0.90197 h 0.45099 l 0.90198,0.90199 h 0.45098 l 0.45099,0.45098 -0.45099,0.45099 v 0.45098 l -0.90197,0.90197 v 0.90198 l -0.45099,0.45099 v 0.45098 l -0.45099,0.45099 v 0.451 l -0.45098,0.45098 v 0.45099 l -0.45099,0.45098 -0.45098,-0.45098 v -0.45099 0.45099 l -0.451,0.45098 h -0.45099 l -0.90197,-0.90197 h -0.45098 l -0.45099,-0.45098 v -0.90199 l 0.45099,-0.45098 v -0.90197 l 0.45098,-0.451 v -0.45098 l 0.45099,-0.45099 v -0.45098 l 0.45098,-0.45099 v -0.45098 l 0.45099,-0.451 v -0.45099 z M 46.116615,159.92002 46.5676,160.371 h 0.450985 l 0.450997,0.45099 v 0.90197 l -0.450997,0.45098 v 0.451 l -0.450985,0.45098 v 1.35296 l -0.450985,0.451 v 1.35295 l -0.450986,0.45099 v 1.80395 l -0.450985,0.45098 v 0.45099 l -0.450996,0.451 h -0.901971 l -0.450985,0.45098 h -0.901971 l -0.450996,-0.45098 v -1.80396 l 0.450996,-0.45098 v -1.35297 l 0.450986,-0.45098 v -1.35297 l 0.450985,-0.45099 h 0.450985 l 0.450985,-0.45098 v -0.45099 l 0.450986,-0.45098 v -0.90198 l 0.450996,-0.45099 v -0.45098 z m 51.863536,-2.70594 0.45099,0.451 v 0.90197 l 0.45098,0.45098 v 0.45099 l 0.451,0.451 v 0.90197 l 0.45098,0.45098 v 0.45099 l 0.450989,0.45098 v 0.90198 l 0.45098,0.45099 v 0.90197 l -0.901969,0.90198 h -0.90198 l -0.90197,0.90197 h -0.45098 l -0.45099,0.45099 -0.451,-0.45099 v -0.90197 l -0.45098,-0.45098 v -0.90199 l -0.45099,-0.45098 v -0.90197 l -0.45098,-0.451 v -0.90197 l -0.45098,-0.45098 V 160.371 l -0.451,-0.45098 v -0.451 l 0.451,-0.45099 h 0.90196 l 0.90197,-0.90197 h 0.451 l 0.45099,0.45099 -0.45099,0.45098 h 0.45099 v -0.45098 l -0.45099,-0.45099 z m 363.495769,-1.80394 0.45098,-0.45099 h 3.6079 l 0.45099,0.45099 v 1.35296 l -0.45099,0.45098 h -0.45099 l -0.45098,0.451 h -0.45099 l -1.35296,1.35295 h -0.45099 l -0.45099,-0.45098 v -0.90197 l -0.45098,-0.451 v -0.90197 l 0.45098,-0.45098 h 0.45099 l 0.45099,0.45098 h 0.45099 l 0.45099,-0.45098 h -1.80396 z m -370.711559,-6.31383 0.45098,0.45099 v 0.90198 l -1.35295,1.35296 v 0.45098 l -0.451,0.451 h -0.45099 l -1.352952,-1.35297 0.450982,-0.45099 v -1.35296 l 0.45099,-0.45099 z"
     fill="#000000"
     fill-rule="evenodd"
     id="path1"
     style="stroke-width:0.450988" />
  <path
     d="m 207.57006,44.01628 -1.35295,0.450985 -1.35297,-0.90197 -2.25494,-0.450997 -2.70592,-2.254937 V 39.95739 l -0.90197,-0.90197 h -2.70592 l -2.70593,1.352955 -1.80395,4.05889 -0.45098,3.607893 -2.70593,1.803953 h -15.33357 l -3.15691,1.803952 -0.90197,1.352956 h -6.31383 l -0.45099,0.450996 -69.903019,1.352956 -1.35297,-1.352956 -2.25494,-0.450996 -1.352952,-0.901971 H 75.430791 l -1.352967,1.352967 v 9.470724 l 1.352967,1.352967 h 12.176658 l 1.352952,-0.90197 2.70593,-0.450997 1.35296,-1.352955 75.765869,1.352955 2.25493,2.254938 1.80395,0.901982 h 16.23555 l 2.25494,1.803941 0.45098,2.254937 1.80395,1.803952 h 5.86283 l 3.6079,-2.705922 h 0.90198 l 0.90197,-1.803953 v -4.058878 l 0.45098,-0.450997 v -2.705922 l 0.45099,-0.450986 v -2.705922 l 0.451,-0.450986 0.45098,-9.470735 z"
     fill="#000000"
     fill-rule="evenodd"
     id="path2"
     style="stroke-width:0.450988" />
  <path
     d="m 37.096864,137.82164 2.254938,4.50986 3.607905,-1.35296 3.156908,4.50988 11.274687,-6.31383 11.725662,-1.80395 33.824046,4.05889 371.16255,4.96086 2.25494,-2.70592 9.92172,0.45098 0.45099,3.15691 h 4.50987 l 10.82369,5.86284 8.11777,9.01974 3.60791,9.01975 5.86283,3.60791 10.3727,-1.35297 2.70594,-9.01975 -0.451,-13.9806 -2.70592,-2.25494 3.15692,-5.86284 v -16.23554 l -3.60791,-4.96086 h -5.86283 l -4.05889,4.05889 -7.66678,-5.86284 -6.31383,-1.35295 -0.90197,-5.86285 -4.50988,-3.60789 -33.82404,-2.70592 -1.35296,5.41184 -2.25494,0.45099 -10.37271,-27.059237 -27.05924,-0.450985 -1.80395,-8.117769 -19.39245,0.450986 -0.90197,7.666783 -55.92242,-0.450986 -1.35297,-10.372705 1.80395,-0.450997 -1.80395,-0.901971 22.09838,-1.352955 -4.96086,-41.94182 -4.05889,-4.05889 -39.68688,-0.90197 -0.45099,-8.11778 3.60789,-3.156908 -11.27467,-2.705923 -32.92207,1.352956 -1.35297,2.705934 4.05889,1.803941 -0.45098,8.11778 h -41.03985 l -1.35297,-5.862843 -6.31382,-0.450985 -2.25493,6.313828 -13.98061,4.509863 -5.86284,7.666783 -4.96086,43.745773 6.31382,1.352967 v 2.705922 l -0.45098,-1.803952 -0.90198,2.254938 -51.41255,0.450985 -15.33357,26.157267 h -9.92172 l 2.70593,-3.60791 -0.90197,-3.60789 -18.94148,-4.509876 -1.80395,7.666786 3.15692,4.50987 -44.647737,1.35296 z m 483.909376,11.27467 0.90197,0.90198 h 0.45099 l 0.451,0.45099 h 3.1569 l 0.45099,0.45098 v 17.13752 l -0.45099,0.45099 -0.45098,-0.45099 0.45098,0.45099 -0.45098,0.45098 h -4.50988 l -0.45098,-0.45098 V 149.5473 Z"
     fill="#000000"
     fill-rule="evenodd"
     id="path3"
     style="stroke-width:0.450988" />
</svg>
