<svg xmlns="http://www.w3.org/2000/svg" width="1254" height="1254" viewBox="0 0 1254 1254">
<rect width="100%" height="100%" fill="white"/>
<path d="M 37,718 L 54,747 L 115,726 L 132,746 L 126,745 L 139,739 L 140,713 L 277,622 L 349,586 L 452,555 L 472,528 L 484,528 L 473,531 L 493,532 L 504,555 L 459,620 L 457,655 L 490,687 L 522,691 L 527,663 L 545,650 L 547,627 L 573,595 L 654,591 L 645,593 L 653,596 L 653,785 L 714,789 L 720,507 L 744,507 L 749,521 L 800,521 L 746,519 L 835,511 L 814,513 L 835,513 L 839,543 L 851,550 L 891,529 L 919,533 L 923,554 L 886,607 L 888,638 L 906,660 L 940,669 L 954,662 L 949,639 L 966,627 L 966,606 L 984,597 L 991,572 L 1007,569 L 1005,546 L 1027,506 L 1028,517 L 1030,506 L 1097,503 L 1101,491 L 1216,496 L 1222,466 L 1183,462 L 1218,460 L 1181,460 L 1176,437 L 1161,438 L 1154,466 L 794,452 L 558,453 L 560,430 L 534,429 L 533,453 L 463,453 L 445,430 L 395,411 L 376,429 L 370,452 L 353,453 L 350,502 L 299,518 L 243,513 L 33,575 Z M 126,725 L 127,725 L 128,726 L 128,727 L 129,728 L 129,729 L 130,730 L 130,732 L 129,733 L 128,732 L 128,731 L 127,731 L 127,732 L 126,733 L 125,732 L 125,731 L 124,730 L 124,728 L 125,727 L 126,728 L 126,729 L 126,727 L 125,726 Z M 965,609 L 966,610 L 966,617 L 965,618 L 964,617 L 964,610 Z M 654,594 L 655,595 L 655,784 L 654,785 L 653,784 L 653,595 Z M 587,556 L 588,557 L 588,558 L 588,557 L 589,556 L 589,555 L 590,554 L 591,555 L 592,555 L 591,554 L 592,553 L 593,553 L 594,554 L 595,554 L 596,555 L 597,555 L 598,556 L 597,557 L 595,557 L 594,556 L 596,558 L 596,559 L 597,558 L 598,559 L 598,566 L 599,567 L 599,569 L 600,570 L 600,572 L 601,573 L 601,574 L 603,576 L 603,577 L 606,580 L 605,581 L 603,581 L 602,582 L 601,582 L 606,582 L 607,581 L 608,582 L 609,582 L 610,583 L 609,584 L 599,584 L 598,583 L 597,583 L 596,582 L 595,582 L 594,581 L 593,581 L 592,580 L 593,579 L 595,579 L 593,579 L 592,578 L 592,577 L 590,575 L 590,574 L 589,574 L 588,573 L 587,574 L 586,573 L 586,572 L 587,571 L 587,570 L 587,571 L 586,572 L 585,571 L 585,568 L 586,567 L 587,568 L 587,561 L 587,563 L 586,564 L 585,563 L 585,560 L 586,559 L 586,557 Z M 621,544 L 633,544 L 634,545 L 636,545 L 637,546 L 636,547 L 634,547 L 635,547 L 636,548 L 637,548 L 638,549 L 639,549 L 641,551 L 640,552 L 640,553 L 641,553 L 641,552 L 642,551 L 643,552 L 643,553 L 644,554 L 644,556 L 645,557 L 645,572 L 644,573 L 644,575 L 643,576 L 642,575 L 641,576 L 641,577 L 639,579 L 638,579 L 638,580 L 639,581 L 638,582 L 637,582 L 636,583 L 635,583 L 634,584 L 613,584 L 612,583 L 614,581 L 615,582 L 633,582 L 619,582 L 618,581 L 616,581 L 615,580 L 614,580 L 613,579 L 614,578 L 614,577 L 613,577 L 612,578 L 611,577 L 611,576 L 609,574 L 609,573 L 608,572 L 608,570 L 607,569 L 607,562 L 608,561 L 608,558 L 609,557 L 610,558 L 610,559 L 611,558 L 611,557 L 610,558 L 609,557 L 609,556 L 610,555 L 610,554 L 612,552 L 613,553 L 614,553 L 614,552 L 616,550 L 617,550 L 617,549 L 618,548 L 617,547 L 618,546 L 619,546 L 620,547 L 621,546 L 624,546 L 621,546 L 620,545 Z M 1026,505 L 1027,504 L 1044,504 L 1045,505 L 1044,506 L 1027,506 Z M 1044,483 L 1045,482 L 1076,482 L 1077,483 L 1076,484 L 1045,484 Z M 987,483 L 988,482 L 1018,482 L 1019,483 L 1018,484 L 988,484 Z M 928,483 L 929,482 L 962,482 L 963,483 L 962,484 L 929,484 Z M 870,483 L 871,482 L 902,482 L 903,483 L 902,484 L 871,484 Z M 1039,479 L 1039,477 L 1040,476 L 1040,475 L 1043,472 L 1079,472 L 1080,473 L 1079,474 L 1045,474 L 1065,474 L 1066,475 L 1067,474 L 1079,474 L 1080,473 L 1081,473 L 1083,475 L 1083,476 L 1084,477 L 1084,478 L 1083,479 L 1083,480 L 1081,482 L 1080,481 L 1044,481 L 1045,482 L 1044,483 L 1042,483 L 1040,481 L 1040,480 Z M 984,476 L 986,474 L 1003,474 L 1004,475 L 1005,475 L 1006,474 L 1007,475 L 1008,475 L 1009,474 L 1012,474 L 1013,475 L 1014,474 L 1021,474 L 986,474 L 985,473 L 986,472 L 1022,472 L 1023,473 L 1024,473 L 1025,474 L 1025,475 L 1026,476 L 1026,480 L 1025,481 L 1024,480 L 1024,477 L 1023,476 L 1023,480 L 1022,481 L 985,481 L 984,480 Z M 924,475 L 926,473 L 927,473 L 928,474 L 927,475 L 928,474 L 952,474 L 953,475 L 954,475 L 955,474 L 963,474 L 928,474 L 927,473 L 928,472 L 964,472 L 965,473 L 966,473 L 967,474 L 967,475 L 968,476 L 968,479 L 967,480 L 967,481 L 965,483 L 963,483 L 962,482 L 963,481 L 964,481 L 956,481 L 955,480 L 954,480 L 953,481 L 927,481 L 926,480 L 925,481 L 924,480 Z M 866,475 L 868,473 L 869,473 L 870,472 L 906,472 L 907,473 L 906,474 L 871,474 L 890,474 L 891,475 L 892,475 L 893,474 L 906,474 L 908,476 L 908,479 L 906,481 L 869,481 L 868,482 L 867,481 L 867,480 L 869,478 L 869,477 L 868,477 L 868,479 L 867,480 L 866,479 Z" fill="black" fill-rule="evenodd"/>
</svg>