<svg xmlns="http://www.w3.org/2000/svg" width="2172" height="724" viewBox="0 0 2172 724">
<rect width="100%" height="100%" fill="white"/>
<path d="M 133,467 L 220,539 L 260,545 L 405,503 L 421,491 L 417,462 L 425,489 L 553,581 L 555,605 L 584,622 L 636,617 L 640,601 L 1750,503 L 1767,516 L 1818,512 L 1825,427 L 1927,434 L 2000,420 L 2015,400 L 1864,355 L 1860,339 L 1825,331 L 1825,296 L 619,387 L 569,382 L 451,314 L 571,378 L 617,382 L 1832,289 L 1821,256 L 1553,144 L 1209,167 L 1221,215 L 1215,193 L 1199,191 L 1204,153 L 1190,141 L 1038,124 L 939,144 L 936,191 L 848,217 L 861,228 L 852,255 L 842,250 L 843,213 L 926,185 L 366,228 L 353,240 L 353,265 L 371,276 L 358,272 L 357,298 L 327,304 L 330,347 L 298,356 L 299,405 L 166,437 Z M 398,455 L 399,454 L 402,454 L 403,453 L 404,453 L 406,455 L 407,455 L 409,457 L 410,457 L 412,459 L 411,460 L 408,460 L 411,460 L 412,459 L 413,460 L 414,460 L 415,461 L 413,463 L 412,463 L 411,464 L 410,464 L 408,462 L 407,462 L 405,460 L 404,460 L 401,457 L 400,457 Z M 403,453 L 402,454 L 399,454 L 398,455 L 397,455 L 395,453 L 396,452 L 397,452 L 399,450 L 400,450 Z M 399,450 L 398,451 L 397,451 L 396,452 L 395,451 L 394,452 L 393,452 L 391,450 L 392,449 L 393,449 L 395,447 L 396,448 L 397,448 Z M 390,444 L 391,444 L 393,446 L 394,446 L 395,447 L 394,448 L 393,448 L 391,450 L 390,450 L 389,449 L 388,449 L 386,447 L 387,446 L 388,446 Z M 387,441 L 390,444 L 389,445 L 388,445 L 386,447 L 385,446 L 384,446 L 382,444 L 383,443 L 384,443 L 386,441 Z M 366,433 L 368,431 L 369,431 L 373,435 L 374,435 L 375,436 L 373,438 L 372,438 L 370,436 L 369,436 Z M 391,484 L 387,487 L 373,493 L 370,493 L 369,494 L 363,495 L 359,497 L 356,497 L 349,500 L 346,500 L 342,502 L 339,502 L 335,504 L 325,506 L 312,511 L 309,511 L 302,514 L 299,514 L 291,517 L 288,517 L 281,520 L 278,520 L 273,522 L 266,522 L 265,523 L 247,523 L 246,522 L 244,522 L 240,518 L 231,512 L 223,505 L 219,503 L 215,499 L 211,497 L 192,482 L 188,480 L 173,468 L 169,466 L 168,464 L 174,457 L 188,452 L 207,448 L 217,444 L 224,443 L 228,441 L 231,441 L 238,438 L 245,437 L 249,435 L 252,435 L 253,434 L 259,433 L 267,430 L 271,430 L 272,429 L 276,429 L 277,428 L 284,428 L 285,427 L 299,427 L 319,442 L 322,442 L 323,443 L 333,443 L 334,442 L 337,442 L 349,450 L 352,453 L 362,459 L 365,462 L 364,463 L 366,462 L 368,464 L 366,465 L 367,466 L 365,467 L 357,461 L 357,471 L 366,478 L 373,482 L 384,481 L 382,478 L 370,470 L 371,468 L 373,467 L 377,470 L 375,471 L 377,470 L 381,473 L 379,474 L 381,475 L 383,474 L 385,476 L 384,477 L 385,476 L 389,479 L 388,480 Z M 1863,379 L 1864,378 L 1865,379 L 1866,378 L 1868,378 L 1869,377 L 1872,377 L 1873,376 L 1884,376 L 1885,377 L 1888,377 L 1889,378 L 1891,378 L 1892,379 L 1895,379 L 1896,380 L 1898,380 L 1899,381 L 1901,381 L 1902,382 L 1905,382 L 1906,383 L 1908,383 L 1909,384 L 1912,384 L 1913,385 L 1916,385 L 1917,386 L 1920,386 L 1921,387 L 1923,387 L 1924,388 L 1926,388 L 1927,389 L 1930,389 L 1931,390 L 1933,390 L 1934,391 L 1936,391 L 1937,392 L 1939,392 L 1940,393 L 1943,393 L 1944,394 L 1946,394 L 1947,395 L 1949,395 L 1950,396 L 1952,396 L 1953,397 L 1956,397 L 1957,398 L 1959,398 L 1960,399 L 1961,399 L 1967,405 L 1966,406 L 1964,406 L 1963,407 L 1959,407 L 1958,408 L 1953,408 L 1952,409 L 1948,409 L 1947,410 L 1942,410 L 1941,411 L 1937,411 L 1936,412 L 1931,412 L 1930,413 L 1926,413 L 1925,414 L 1917,414 L 1916,415 L 1899,415 L 1898,414 L 1888,414 L 1887,413 L 1881,413 L 1880,412 L 1877,412 L 1876,411 L 1873,411 L 1872,410 L 1870,410 L 1869,409 L 1866,409 L 1865,408 L 1864,408 L 1863,407 Z M 377,345 L 379,345 L 380,346 L 380,373 L 381,374 L 381,376 L 380,377 L 380,378 L 381,379 L 381,437 L 382,438 L 380,440 L 379,440 L 380,441 L 379,442 L 378,442 L 376,440 L 377,439 L 376,438 L 375,438 L 374,437 L 376,435 L 376,434 L 377,433 L 377,396 L 376,395 L 376,394 L 377,393 L 377,380 L 376,379 L 376,369 L 377,368 L 377,359 L 376,358 L 376,346 Z M 360,347 L 362,345 L 363,346 L 374,346 L 375,347 L 375,349 L 374,350 L 371,350 L 369,352 L 368,352 L 367,351 L 366,351 L 364,349 L 362,349 Z M 1301,296 L 1300,297 L 1294,297 L 1293,298 L 1281,298 L 1280,299 L 1270,299 L 1269,300 L 1260,300 L 1259,301 L 1247,301 L 1246,302 L 1236,302 L 1235,303 L 1224,303 L 1223,304 L 1213,304 L 1212,305 L 1178,307 L 1177,308 L 1169,308 L 1168,309 L 1158,309 L 1157,310 L 1136,311 L 1135,312 L 1124,312 L 1123,313 L 1113,313 L 1112,314 L 1081,316 L 1080,317 L 1069,317 L 1068,318 L 1059,318 L 1058,319 L 1022,321 L 1021,322 L 1012,322 L 1011,323 L 995,322 L 993,320 L 991,320 L 983,316 L 985,314 L 987,314 L 993,317 L 992,318 L 995,317 L 996,318 L 1001,318 L 1002,319 L 1011,319 L 1012,318 L 1031,317 L 1032,316 L 1040,316 L 1041,315 L 1051,315 L 1052,314 L 1062,314 L 1063,313 L 1073,313 L 1074,312 L 1085,312 L 1086,311 L 1116,309 L 1117,308 L 1128,308 L 1129,307 L 1139,307 L 1140,306 L 1151,306 L 1152,305 L 1163,305 L 1164,304 L 1174,304 L 1175,303 L 1185,303 L 1186,302 L 1218,300 L 1219,299 L 1250,297 L 1251,296 L 1275,295 L 1276,294 L 1286,294 L 1287,293 L 1296,293 L 1298,292 Z M 412,292 L 414,290 L 415,291 L 416,291 L 417,292 L 417,293 L 420,293 L 421,294 L 422,293 L 423,293 L 424,294 L 423,295 L 424,294 L 425,294 L 426,295 L 427,295 L 428,296 L 427,297 L 426,297 L 426,298 L 427,298 L 427,297 L 428,296 L 429,296 L 430,297 L 431,297 L 433,299 L 432,300 L 431,300 L 432,300 L 433,299 L 434,299 L 435,300 L 436,300 L 437,301 L 435,303 L 437,303 L 438,302 L 439,302 L 440,303 L 439,304 L 439,305 L 439,304 L 440,303 L 441,303 L 442,304 L 443,304 L 444,305 L 445,305 L 447,307 L 448,307 L 449,308 L 450,308 L 451,309 L 450,310 L 447,310 L 450,310 L 451,309 L 452,309 L 454,311 L 451,314 L 450,314 L 449,313 L 448,313 L 447,312 L 446,312 L 445,311 L 444,311 L 442,309 L 441,309 L 440,308 L 439,308 L 437,306 L 436,306 L 435,305 L 434,305 L 433,304 L 432,304 L 431,303 L 430,303 L 428,301 L 427,301 L 426,300 L 425,300 L 424,299 L 423,299 L 421,297 L 420,297 L 418,295 L 416,295 L 415,294 L 414,294 Z M 403,287 L 404,286 L 407,286 L 408,285 L 409,285 L 410,286 L 411,286 L 412,287 L 413,287 L 415,289 L 412,292 L 411,292 L 410,291 L 409,291 L 408,290 L 407,290 L 406,289 L 405,289 Z M 982,284 L 983,285 L 983,295 L 982,296 L 982,306 L 981,307 L 981,312 L 982,313 L 984,313 L 985,314 L 983,316 L 982,316 L 981,315 L 979,315 L 978,314 L 976,314 L 975,313 L 974,313 L 973,312 L 972,312 L 971,311 L 969,311 L 968,310 L 967,310 L 966,309 L 967,308 L 970,308 L 971,307 L 975,307 L 976,306 L 979,306 L 979,286 L 980,285 L 981,286 L 981,285 Z M 369,278 L 371,276 L 372,276 L 373,277 L 372,278 L 373,277 L 374,277 L 375,278 L 397,278 L 399,280 L 400,280 L 401,281 L 402,281 L 403,282 L 402,283 L 401,283 L 402,283 L 403,282 L 404,282 L 405,283 L 406,283 L 408,285 L 407,286 L 404,286 L 403,287 L 402,287 L 401,286 L 400,286 L 399,285 L 398,285 L 396,283 L 395,283 L 394,282 L 375,282 L 374,281 L 373,281 L 372,280 L 371,280 Z M 983,267 L 984,268 L 982,270 L 981,270 L 979,272 L 979,273 L 976,276 L 976,279 L 975,280 L 976,281 L 975,282 L 974,282 L 973,281 L 972,281 L 971,280 L 971,277 L 970,276 L 970,275 L 971,274 L 972,274 L 974,272 L 975,272 L 977,270 L 978,270 L 980,268 L 981,268 L 982,267 Z M 1295,245 L 1297,245 L 1299,247 L 1298,248 L 1297,248 L 1296,247 L 1297,248 L 1298,248 L 1299,247 L 1300,247 L 1301,248 L 1302,248 L 1303,249 L 1304,249 L 1305,250 L 1306,250 L 1307,251 L 1306,252 L 1305,252 L 1306,252 L 1307,251 L 1308,251 L 1309,252 L 1308,253 L 1309,252 L 1310,253 L 1310,288 L 1309,289 L 1307,289 L 1306,288 L 1304,288 L 1303,287 L 1301,287 L 1297,283 L 1296,283 L 1295,282 L 1296,281 L 1296,280 L 1295,279 L 1295,264 L 1294,263 L 1295,262 L 1296,262 L 1297,261 L 1302,261 L 1304,259 L 1304,254 L 1303,253 L 1302,253 L 1301,252 L 1300,252 L 1299,251 L 1298,251 L 1297,250 L 1296,250 L 1295,249 L 1294,249 L 1293,248 L 1294,247 L 1294,246 Z M 1209,220 L 1208,221 L 1209,222 L 1209,232 L 1208,233 L 1208,234 L 1207,235 L 1206,234 L 1205,234 L 1204,233 L 1204,232 L 1203,232 L 1204,233 L 1203,234 L 1202,234 L 1200,236 L 1199,236 L 1198,237 L 1197,237 L 1196,238 L 1194,238 L 1193,239 L 1192,239 L 1191,240 L 1189,240 L 1188,241 L 1186,241 L 1185,242 L 1182,242 L 1181,243 L 1178,243 L 1177,244 L 1174,244 L 1173,245 L 1169,245 L 1168,246 L 1164,246 L 1163,247 L 1157,247 L 1156,248 L 1150,248 L 1149,249 L 1142,249 L 1141,248 L 1140,248 L 1139,247 L 1140,246 L 1142,246 L 1143,245 L 1148,245 L 1149,244 L 1154,244 L 1155,243 L 1160,243 L 1161,242 L 1165,242 L 1166,241 L 1169,241 L 1170,240 L 1173,240 L 1174,239 L 1176,239 L 1177,238 L 1179,238 L 1180,237 L 1182,237 L 1183,236 L 1184,236 L 1185,235 L 1187,235 L 1188,234 L 1189,234 L 1190,233 L 1191,233 L 1192,232 L 1193,232 L 1195,230 L 1196,230 L 1200,226 L 1200,225 L 1201,224 L 1202,225 L 1203,225 L 1204,226 L 1205,226 L 1205,225 L 1204,225 L 1203,224 L 1203,223 L 1203,224 L 1202,225 L 1201,224 L 1201,221 L 1202,220 L 1201,219 L 1202,218 L 1203,218 L 1204,219 L 1208,219 Z M 925,220 L 930,216 L 933,215 L 934,216 L 934,220 L 935,221 L 935,223 L 939,228 L 940,228 L 945,232 L 947,232 L 952,235 L 954,235 L 955,236 L 957,236 L 958,237 L 960,237 L 961,238 L 963,238 L 964,239 L 967,239 L 968,240 L 972,240 L 973,241 L 977,241 L 978,242 L 982,242 L 983,243 L 987,243 L 988,244 L 994,244 L 995,245 L 1001,245 L 1002,246 L 1010,246 L 1011,247 L 1019,247 L 1020,248 L 1031,248 L 1032,249 L 1046,249 L 1047,250 L 1076,250 L 1078,253 L 1077,254 L 1014,254 L 1013,253 L 1012,253 L 1010,250 L 1006,250 L 1005,249 L 1004,249 L 1003,250 L 1001,250 L 1001,251 L 997,255 L 996,255 L 995,256 L 994,255 L 994,253 L 995,252 L 996,253 L 994,250 L 991,250 L 990,249 L 985,249 L 984,248 L 979,248 L 978,247 L 974,247 L 973,246 L 969,246 L 968,245 L 965,245 L 964,244 L 961,244 L 960,243 L 957,243 L 956,242 L 954,242 L 953,241 L 951,241 L 950,240 L 948,240 L 947,239 L 945,239 L 942,237 L 940,237 L 939,236 L 936,235 L 934,233 L 933,233 L 928,229 L 928,228 L 926,226 L 926,221 Z M 1232,217 L 1235,214 L 1236,214 L 1237,215 L 1238,215 L 1239,216 L 1240,216 L 1241,217 L 1242,217 L 1244,219 L 1246,219 L 1247,220 L 1248,220 L 1249,221 L 1250,221 L 1252,223 L 1254,223 L 1255,224 L 1256,224 L 1257,225 L 1258,225 L 1259,226 L 1260,226 L 1262,228 L 1263,228 L 1264,229 L 1265,229 L 1266,230 L 1267,230 L 1268,231 L 1269,231 L 1270,232 L 1271,232 L 1272,233 L 1273,233 L 1274,234 L 1275,234 L 1276,235 L 1277,235 L 1278,236 L 1279,236 L 1280,237 L 1281,237 L 1282,238 L 1283,238 L 1284,239 L 1285,239 L 1286,240 L 1287,240 L 1288,241 L 1289,241 L 1291,243 L 1290,244 L 1289,244 L 1288,243 L 1287,243 L 1286,242 L 1284,242 L 1283,243 L 1282,243 L 1281,242 L 1279,242 L 1278,241 L 1277,241 L 1276,240 L 1275,240 L 1274,239 L 1273,239 L 1272,238 L 1271,238 L 1269,236 L 1270,235 L 1272,235 L 1270,235 L 1269,236 L 1268,236 L 1267,235 L 1268,234 L 1268,233 L 1268,234 L 1267,235 L 1266,235 L 1265,234 L 1264,234 L 1263,233 L 1262,233 L 1261,232 L 1262,231 L 1264,231 L 1262,231 L 1261,232 L 1260,232 L 1259,231 L 1258,231 L 1257,230 L 1258,229 L 1259,229 L 1258,229 L 1257,230 L 1256,230 L 1255,229 L 1254,229 L 1253,228 L 1254,227 L 1255,227 L 1254,227 L 1253,228 L 1252,227 L 1251,227 L 1250,226 L 1249,226 L 1248,225 L 1247,225 L 1246,224 L 1245,224 L 1244,223 L 1245,222 L 1247,222 L 1245,222 L 1244,223 L 1243,223 L 1242,222 L 1241,222 L 1240,221 L 1241,220 L 1242,220 L 1241,220 L 1240,219 L 1241,220 L 1240,221 L 1239,221 L 1238,220 L 1237,220 L 1236,219 L 1237,218 L 1238,218 L 1237,218 L 1236,219 L 1235,219 L 1234,218 L 1233,218 Z M 1226,214 L 1228,212 L 1232,212 L 1233,213 L 1234,213 L 1235,214 L 1234,215 L 1231,215 L 1230,216 L 1229,216 L 1228,215 L 1229,214 L 1228,215 L 1227,215 Z" fill="black" fill-rule="evenodd"/>
</svg>