<?xml version="1.0" encoding="UTF-8" standalone="no"?>
<svg
   width="770"
   height="250"
   viewBox="0 0 770 250"
   version="1.1"
   id="svg1"
   sodipodi:docname="tm35_at_mine_black.svg"
   inkscape:version="1.4.2 (f4327f4, 2025-05-13)"
   xmlns:inkscape="http://www.inkscape.org/namespaces/inkscape"
   xmlns:sodipodi="http://sodipodi.sourceforge.net/DTD/sodipodi-0.dtd"
   xmlns="http://www.w3.org/2000/svg"
   xmlns:svg="http://www.w3.org/2000/svg">
  <defs
     id="defs1" />
  <sodipodi:namedview
     id="namedview1"
     pagecolor="#ffffff"
     bordercolor="#000000"
     borderopacity="0.25"
     inkscape:showpageshadow="2"
     inkscape:pageopacity="0.0"
     inkscape:pagecheckerboard="0"
     inkscape:deskcolor="#d1d1d1"
     inkscape:zoom="0.55616943"
     inkscape:cx="881.02649"
     inkscape:cy="164.51821"
     inkscape:window-width="2560"
     inkscape:window-height="1377"
     inkscape:window-x="-8"
     inkscape:window-y="-8"
     inkscape:window-maximized="1"
     inkscape:current-layer="svg1" />
  <path
     d="m 28.715232,167.45131 33.108144,27.39984 15.222126,2.28332 55.180238,-15.98323 6.08885,-4.56664 -1.52221,-11.03605 3.04442,10.27494 48.71084,35.01091 0.7611,9.13328 11.03605,6.46941 19.78878,-1.90277 1.52221,-6.08885 422.41424,-37.29423 6.4694,4.9472 19.40822,-1.52221 2.66388,-32.34705 38.81644,2.66389 27.7804,-5.32777 5.7083,-7.61106 -57.46356,-17.1249 -1.52221,-6.08886 -13.31937,-3.04442 v -13.31937 l -458.94736,34.63035 -19.02767,-1.90275 -44.90529,-25.87764 45.6664,24.35542 17.50546,1.52222 462.37234,-35.391483 -4.18609,-12.558242 -101.9883,-42.621993 -130.91037,8.752736 4.56666,18.266563 -2.28334,-8.372175 -6.08885,-0.761106 1.90277,-14.461036 -5.32774,-4.566633 -57.84411,-6.469405 -37.67479,7.611056 -1.14166,17.886018 -33.4887,9.894387 4.94719,4.186087 -3.42496,10.274938 -3.80555,-1.902778 0.38056,-14.080458 31.58593,-10.655508 -213.10988,16.363806 -4.94719,4.566634 v 9.513843 l 6.84995,4.186076 -4.9472,-1.52221 -0.38054,9.894393 -11.4166,2.28332 1.14165,16.3638 -12.177702,3.42498 0.380545,18.64711 -50.613587,12.1777 z m 100.846638,-4.56664 0.38055,-0.38055 h 1.14167 l 0.38055,-0.38055 h 0.38055 l 0.76111,0.7611 h 0.38055 l 0.76111,0.76111 h 0.38055 l 0.7611,0.76111 -0.38055,0.38056 h -1.14166 1.14166 l 0.38055,-0.38056 0.38056,0.38056 h 0.38055 l 0.38055,0.38054 -0.7611,0.76111 h -0.38056 l -0.38055,0.38056 h -0.38055 l -0.76111,-0.76111 h -0.38055 l -0.76111,-0.7611 h -0.38055 l -1.14167,-1.14167 h -0.38054 z m 1.90277,-0.7611 -0.38055,0.38055 h -1.14167 l -0.38055,0.38055 h -0.38056 l -0.7611,-0.7611 0.38056,-0.38055 h 0.38054 l 0.76111,-0.76111 h 0.38056 z m -1.52222,-1.14166 -0.38055,0.38055 h -0.38056 l -0.38054,0.38056 -0.38056,-0.38056 -0.38055,0.38056 h -0.38056 l -0.76111,-0.76111 0.38057,-0.38055 h 0.38054 l 0.76111,-0.76111 0.38056,0.38055 h 0.38054 z m -3.42497,-2.28332 h 0.38054 l 0.76111,0.76111 h 0.38056 l 0.38055,0.38055 -0.38055,0.38055 h -0.38056 l -0.76111,0.76111 h -0.38054 l -0.38056,-0.38055 h -0.38056 l -0.76111,-0.76111 0.38056,-0.38055 h 0.38055 z m -1.14167,-1.14167 1.14167,1.14167 -0.38056,0.38056 h -0.38056 l -0.76111,0.7611 -0.38054,-0.38055 h -0.38057 l -0.7611,-0.76111 0.38056,-0.38055 h 0.38054 l 0.76111,-0.76112 z m -7.99161,-3.04442 0.76111,-0.7611 h 0.38054 l 1.52221,1.52221 h 0.38057 l 0.38054,0.38056 -0.76111,0.76111 h -0.38054 l -0.7611,-0.76111 h -0.38057 z m 9.51382,19.40823 -1.52221,1.14166 -5.32775,2.28331 h -1.14164 l -0.38057,0.38056 -2.28332,0.38056 -1.52221,0.7611 h -1.14167 l -2.66387,1.14165 h -1.14165 l -1.52221,0.76111 h -1.14166 l -1.52221,0.7611 -3.80553,0.76111 -4.947213,1.90277 h -1.141652 l -2.663876,1.14167 h -1.141666 l -3.044422,1.14165 H 87.70101 l -2.663877,1.14167 h -1.141666 l -1.902771,0.76111 h -2.663862 l -0.38056,0.38055 h -6.849965 l -0.380546,-0.38055 h -0.761106 l -1.522211,-1.52222 -3.424982,-2.28331 -3.044422,-2.66388 -1.522225,-0.76111 -1.522212,-1.52221 -1.522211,-0.76111 -7.230511,-5.7083 -1.522211,-0.76111 -5.7083,-4.56664 -1.522225,-0.7611 -0.380545,-0.76111 2.283317,-2.66388 5.327753,-1.90276 7.230511,-1.52222 3.805528,-1.52221 2.663876,-0.38055 1.522211,-0.76112 h 1.141666 l 2.663876,-1.14164 2.663864,-0.38057 1.522225,-0.7611 h 1.141651 l 0.38056,-0.38054 2.283317,-0.38057 3.044422,-1.14167 h 1.522212 l 0.38056,-0.38054 h 1.52221 l 0.38056,-0.38056 h 2.663863 l 0.38056,-0.38055 h 5.327739 l 7.611066,5.70831 h 1.141671 l 0.38054,0.38055 h 3.80555 l 0.38054,-0.38055 h 1.14167 l 4.56663,3.04442 1.14166,1.14166 3.80553,2.28332 1.14167,1.14166 -0.38054,0.38055 0.7611,-0.38055 0.76111,0.76111 -0.76111,0.38054 0.38055,0.38057 -0.76111,0.38054 -3.04442,-2.28332 v 3.80555 l 3.42498,2.66386 2.66386,1.52222 4.18608,-0.38055 -0.7611,-1.14167 -4.56662,-3.04442 0.38054,-0.76111 0.7611,-0.38056 1.52222,1.14167 -0.76111,0.38056 0.76111,-0.38056 1.52222,1.14167 -0.76111,0.38054 0.76111,0.38056 0.7611,-0.38056 0.76111,0.7611 -0.38057,0.38057 0.38057,-0.38057 1.52221,1.14167 -0.38056,0.38055 z m 560.17457,-39.95811 0.38054,-0.38055 0.38056,0.38055 0.38054,-0.38055 h 0.76111 l 0.38056,-0.38056 h 1.14165 l 0.38056,-0.38055 h 4.18609 l 0.38055,0.38055 h 1.14166 l 0.38056,0.38056 h 0.76111 l 0.38054,0.38055 h 1.14167 l 0.38054,0.38056 h 0.76113 l 0.38054,0.38054 h 0.7611 l 0.38057,0.38057 h 1.14164 l 0.38057,0.38054 h 0.7611 l 0.38055,0.38056 h 1.14167 l 0.38055,0.38054 h 1.14166 l 0.38055,0.38057 h 1.14166 l 0.38055,0.38054 h 0.76111 l 0.38056,0.38056 h 0.76111 l 0.38054,0.38055 h 1.14167 l 0.38054,0.38056 h 0.7611 l 0.38057,0.38054 h 0.7611 l 0.38057,0.38057 h 0.7611 l 0.38054,0.38056 h 1.14167 l 0.38055,0.38054 h 0.7611 l 0.38056,0.38056 h 0.76111 l 0.38055,0.38055 h 0.76111 l 0.38055,0.38056 h 1.14166 l 0.38055,0.38054 h 0.76111 l 0.38055,0.38057 h 0.38055 l 2.28333,2.28331 -0.38056,0.38056 h -0.76111 l -0.38054,0.38055 h -1.52222 l -0.38055,0.38055 h -1.90277 l -0.38055,0.38055 h -1.52222 l -0.38055,0.38056 h -1.90277 l -0.38054,0.38055 h -1.52221 l -0.38057,0.38055 h -1.90277 l -0.38054,0.38055 h -1.52221 l -0.38057,0.38056 h -3.04442 l -0.38055,0.38055 h -6.46941 l -0.38054,-0.38055 h -3.80555 l -0.38055,-0.38056 h -2.28332 l -0.38056,-0.38055 h -1.14165 l -0.38056,-0.38055 h -1.14166 l -0.38056,-0.38055 h -0.7611 l -0.38055,-0.38056 h -1.14167 l -0.38054,-0.38055 h -0.38056 l -0.38054,-0.38055 z M 121.57025,121.02381 h 0.76111 l 0.38054,0.38054 v 10.27495 l 0.38057,0.38055 v 0.76111 l -0.38057,0.38055 v 0.38056 l 0.38057,0.38055 v 22.07209 l 0.38054,0.38057 -0.76111,0.7611 h -0.38054 l 0.38054,0.38054 -0.38054,0.38057 h -0.38056 l -0.7611,-0.76111 0.38055,-0.38056 -0.38055,-0.38054 h -0.38056 l -0.38054,-0.38057 0.7611,-0.7611 v -0.38054 l 0.38055,-0.38057 v -14.08047 l -0.38055,-0.38055 v -0.38056 l 0.38055,-0.38054 v -4.9472 l -0.38055,-0.38056 v -3.80553 l 0.38055,-0.38055 v -3.42499 l -0.38055,-0.38054 v -4.56666 z m -6.46941,0.76111 0.7611,-0.76111 0.38056,0.38054 h 4.1861 l 0.38054,0.38057 v 0.7611 l -0.38054,0.38055 h -1.14167 l -0.76111,0.7611 h -0.38054 l -0.38056,-0.38054 h -0.38055 l -0.7611,-0.76111 h -0.76113 z m 358.10073,-19.40823 -0.38057,0.38057 h -2.28331 l -0.38057,0.38054 h -4.56663 l -0.38055,0.38056 h -3.80553 l -0.38057,0.38054 h -3.42496 l -0.38056,0.38057 h -4.56664 l -0.38056,0.38054 h -3.80553 l -0.38055,0.38056 h -4.18609 l -0.38055,0.38055 h -3.80555 l -0.38054,0.38056 -12.93883,0.7611 -0.38054,0.38056 h -3.04442 l -0.38056,0.38055 h -3.80553 l -0.38055,0.38055 -7.99162,0.38055 -0.38057,0.38056 h -4.18608 l -0.38055,0.38055 h -3.80554 l -0.38054,0.38055 -11.79716,0.76111 -0.38055,0.38056 h -4.18608 l -0.38057,0.38054 h -3.42498 l -0.38055,0.38057 -13.69993,0.7611 -0.38054,0.38055 h -3.42499 l -0.38055,0.38056 -6.08885,-0.38056 -0.7611,-0.76111 h -0.76111 l -3.04444,-1.52221 0.76111,-0.76111 h 0.7611 l 2.28334,1.14167 -0.38056,0.38054 1.14166,-0.38054 0.38055,0.38054 h 1.90277 l 0.38054,0.38057 h 3.42499 l 0.38055,-0.38057 7.23052,-0.38054 0.38056,-0.38056 h 3.04442 l 0.38054,-0.38055 h 3.80554 l 0.38056,-0.38056 h 3.80553 l 0.38055,-0.38055 h 3.80555 l 0.38054,-0.38055 h 4.18609 l 0.38055,-0.38056 11.41661,-0.7611 0.38054,-0.38055 h 4.18609 l 0.38056,-0.38056 h 3.80552 l 0.38057,-0.38055 h 4.18609 l 0.38054,-0.38055 h 4.18609 l 0.38056,-0.38056 h 3.80552 l 0.38057,-0.38055 h 3.80552 l 0.38057,-0.38056 12.1777,-0.76111 0.38054,-0.38054 11.79716,-0.7611 0.38056,-0.38057 9.13328,-0.38054 0.38055,-0.38056 h 3.80554 l 0.38055,-0.38055 h 3.42498 l 0.76111,-0.38056 z m -338.31196,-1.52221 0.76111,-0.76111 0.38055,0.38057 h 0.38057 l 0.38054,0.38054 v 0.38056 h 1.14167 l 0.38054,0.38055 0.38056,-0.38055 h 0.38055 l 0.38056,0.38055 -0.38056,0.38056 0.38056,-0.38056 h 0.38054 l 0.38056,0.38056 h 0.38055 l 0.38056,0.38054 -0.38056,0.38057 h -0.38055 v 0.38054 h 0.38055 v -0.38054 l 0.38056,-0.38057 h 0.38056 l 0.38055,0.38057 h 0.38056 l 0.7611,0.7611 -0.38056,0.38054 h -0.38054 0.38054 l 0.38056,-0.38054 h 0.38055 l 0.38056,0.38054 h 0.38054 l 0.38057,0.38057 -0.76111,0.7611 h 0.76111 l 0.38054,-0.38056 h 0.38056 l 0.38055,0.38056 -0.38055,0.38055 v 0.38056 -0.38056 l 0.38055,-0.38055 h 0.38056 l 0.38055,0.38055 h 0.38055 l 0.38056,0.38056 h 0.38055 l 0.7611,0.7611 h 0.38056 l 0.38055,0.38056 h 0.38055 l 0.38056,0.38055 -0.38056,0.38055 h -1.14166 1.14166 l 0.38056,-0.38055 h 0.38055 l 0.7611,0.7611 -1.14165,1.14166 h -0.38056 l -0.38055,-0.38055 h -0.38055 l -0.38056,-0.38055 h -0.38055 l -0.38055,-0.38056 h -0.38055 l -0.76111,-0.7611 h -0.38055 l -0.38056,-0.38055 h -0.38055 l -0.7611,-0.76111 h -0.38057 l -0.38054,-0.38055 h -0.38056 l -0.38055,-0.38056 h -0.38056 l -0.38054,-0.38055 h -0.38056 l -0.76111,-0.7611 h -0.38056 l -0.38055,-0.38057 h -0.38056 l -0.38054,-0.38054 h -0.38056 l -0.76111,-0.7611 h -0.38054 l -0.76111,-0.76111 h -0.7611 l -0.38057,-0.38056 h -0.38055 z m -3.42497,-1.902773 0.38055,-0.38055 h 1.14166 l 0.38055,-0.38056 h 0.38056 l 0.38055,0.38056 h 0.38055 l 0.38055,0.38055 h 0.38056 l 0.7611,0.7611 -1.14166,1.141673 h -0.38055 l -0.38055,-0.38054 h -0.38055 l -0.38056,-0.38057 h -0.38055 l -0.38055,-0.380563 h -0.38056 z m 220.3404,-1.14165 0.38054,0.38054 v 3.805553 l -0.38054,0.38054 v 3.80554 l -0.38057,0.38055 v 1.90277 l 0.38057,0.38055 h 0.7611 l 0.38055,0.38055 -0.76111,0.76111 h -0.38054 l -0.38057,-0.38055 h -0.7611 l -0.38054,-0.38056 h -0.76112 l -0.38055,-0.38055 h -0.38056 l -0.38055,-0.38055 h -0.38055 l -0.38055,-0.38056 h -0.76111 l -0.38055,-0.38055 h -0.38056 l -0.38055,-0.38055 0.38055,-0.38055 h 1.14166 l 0.38056,-0.38056 h 1.52221 l 0.38055,-0.38055 h 1.14166 v -7.611073 l 0.38056,-0.38056 0.38054,0.38056 v -0.38056 z m -233.27922,-2.28332 0.76111,-0.76112 h 0.38056 l 0.38054,0.38056 -0.38054,0.38056 0.38054,-0.38056 h 0.38057 l 0.38054,0.38056 h 8.37217 l 0.76111,0.76111 h 0.38056 l 0.38054,0.38054 h 0.38057 l 0.38055,0.38056 -0.38055,0.38054 h -0.38057 0.38057 l 0.38055,-0.38054 h 0.38055 l 0.38055,0.38054 h 0.38056 l 0.7611,0.76111 -0.38055,0.38056 h -1.14166 l -0.38055,0.38055 h -0.38055 l -0.38057,-0.38055 h -0.38054 l -0.38056,-0.38056 h -0.38055 l -0.7611,-0.76111 h -0.38056 l -0.38055,-0.38054 h -7.23052 l -0.38054,-0.38056 h -0.38057 l -0.38054,-0.38054 h -0.38056 z m 233.65976,-4.186091 0.38056,0.380553 -0.7611,0.761106 h -0.38057 l -0.7611,0.761102 v 0.38056 l -1.14166,1.14165 v 1.14166 l -0.38055,0.38057 0.38055,0.38054 -0.38055,0.38056 h -0.38056 l -0.38055,-0.38056 h -0.38055 l -0.38055,-0.38054 v -1.14167 l -0.38056,-0.38056 v -0.38055 l 0.38056,-0.38055 h 0.38055 l 0.7611,-0.76111 h 0.38056 l 0.7611,-0.761102 h 0.38057 l 0.7611,-0.761106 h 0.38054 l 0.38057,-0.380553 z M 470.91823,82.96847 h 0.76112 l 0.76111,0.761106 -0.38056,0.380543 h -0.38055 l -0.38056,-0.380543 0.38056,0.380543 h 0.38055 l 0.38056,-0.380543 h 0.38054 l 0.38057,0.380543 h 0.38054 l 0.38056,0.380563 h 0.38054 l 0.38057,0.380542 h 0.38054 l 0.38056,0.380564 -0.38056,0.380566 h -0.38054 0.38054 l 0.38056,-0.380566 h 0.38054 l 0.38057,0.380566 -0.38057,0.380542 0.38057,-0.380542 0.38055,0.380542 v 13.319371 l -0.38055,0.38054 h -0.76111 l -0.38056,-0.38054 h -0.76111 l -0.38054,-0.38056 h -0.7611 l -1.52222,-1.52222 h -0.38056 l -0.38056,-0.38054 0.38056,-0.38056 v -0.38054 l -0.38056,-0.38057 v -5.708289 l -0.38054,-0.380563 0.38054,-0.380543 h 0.38056 l 0.38056,-0.380563 h 1.90276 l 0.7611,-0.761106 V 86.39346 l -0.38054,-0.380564 h -0.38056 l -0.38054,-0.380542 H 472.821 l -0.38054,-0.380566 h -0.38056 l -0.38055,-0.380564 h -0.38056 l -0.38056,-0.380542 h -0.38054 l -0.38057,-0.380563 0.38057,-0.380543 v -0.380561 z m -32.72759,-9.513842 -0.38054,0.38056 0.38054,0.380546 v 3.805542 l -0.38054,0.380546 v 0.380559 l -0.38056,0.380547 -0.38056,-0.380547 h -0.38055 l -0.38055,-0.380559 v -0.380546 h -0.38055 l 0.38055,0.380546 -0.38055,0.380559 h -0.38056 l -0.7611,0.761106 h -0.38056 l -0.38055,0.380546 h -0.38055 l -0.38055,0.38056 h -0.76111 l -0.38056,0.38056 h -0.38054 l -0.38057,0.380545 h -0.7611 l -0.38055,0.38056 h -0.7611 l -0.38057,0.380546 h -1.14164 l -0.38057,0.38056 h -1.14167 l -0.38054,0.380545 h -1.14167 l -0.38054,0.380561 h -1.52221 l -0.38056,0.380545 h -1.52221 l -0.38056,0.380561 h -2.28331 l -0.38057,0.380543 H 415.738 l -0.38055,0.380563 h -2.66388 l -0.38056,-0.380563 h -0.38054 l -0.38057,-0.380543 0.38057,-0.380561 h 0.7611 l 0.38054,-0.380545 h 1.90278 l 0.38056,-0.380561 h 1.90276 l 0.38056,-0.380545 h 1.90276 l 0.38056,-0.38056 h 1.52221 l 0.38055,-0.380546 h 1.14167 l 0.38054,-0.38056 h 1.14167 l 0.38054,-0.380545 h 0.76111 l 0.38056,-0.38056 h 0.76111 l 0.38054,-0.38056 h 0.76113 l 0.38054,-0.380546 h 0.38056 l 0.38054,-0.380559 h 0.76111 l 0.38056,-0.380547 h 0.38055 l 0.38056,-0.380559 h 0.38054 l 0.38057,-0.380546 h 0.38054 l 0.76111,-0.761106 h 0.38056 l 1.52221,-1.522211 V 75.3574 l 0.38055,-0.380561 0.38055,0.380561 h 0.38056 l 0.38055,0.380559 h 0.38055 V 75.3574 h -0.38055 l -0.38055,-0.380561 v -0.380545 0.380545 l -0.38056,0.380561 -0.38055,-0.380561 v -1.141651 l 0.38055,-0.38056 -0.38055,-0.380545 0.38055,-0.380561 h 0.38056 l 0.38055,0.380561 h 1.52222 z m -108.07715,0 1.90277,-1.522211 1.14166,-0.380546 0.38055,0.380546 v 1.522211 l 0.38055,0.38056 v 0.761106 l 1.52222,1.90277 h 0.38055 l 1.90277,1.522212 h 0.76111 l 1.90277,1.141652 h 0.76111 l 0.38054,0.380559 h 0.76111 l 0.38056,0.380546 h 0.7611 l 0.38055,0.38056 h 0.7611 l 0.38057,0.38056 h 1.14165 l 0.38056,0.380545 h 1.52221 l 0.38055,0.38056 h 1.52221 l 0.38057,0.380546 h 1.52221 l 0.38054,0.38056 h 1.52221 l 0.38056,0.380545 h 2.28332 l 0.38056,0.380561 h 2.28332 l 0.38054,0.380545 h 3.04444 l 0.38055,0.380561 h 3.04443 l 0.38054,0.380543 h 4.1861 l 0.38056,0.380563 h 5.32774 l 0.38055,0.380542 h 11.03604 l 0.76111,1.141672 -0.38054,0.380564 h -23.97487 l -0.38055,-0.380564 h -0.38056 l -0.7611,-1.141672 h -1.52221 l -0.38056,-0.380542 h -0.38055 l -0.38055,0.380542 h -0.76111 v 0.380564 l -1.52221,1.522214 h -0.38056 l -0.38055,0.380563 -0.38056,-0.380563 v -0.761106 l 0.38056,-0.380542 0.38055,0.380542 -0.76111,-1.141672 h -1.14165 l -0.38056,-0.380542 h -1.90277 l -0.38055,-0.380563 h -1.90277 l -0.38054,-0.380543 h -1.52223 l -0.38055,-0.380561 h -1.52221 l -0.38055,-0.380545 h -1.14166 l -0.38055,-0.380561 h -1.14167 l -0.38055,-0.380545 h -1.14166 l -0.38055,-0.38056 h -0.7611 l -0.38057,-0.380546 h -0.7611 l -0.38056,-0.38056 h -0.76111 l -0.38054,-0.380545 h -0.76111 l -1.14167,-0.76112 h -0.7611 l -0.38055,-0.380546 -1.14166,-0.380559 -0.76111,-0.761106 h -0.38055 l -1.90277,-1.522211 v -0.380547 l -0.7611,-0.761105 v -1.902771 z m 116.82988,-1.141651 1.14167,-1.141666 h 0.38055 l 0.38055,0.38056 h 0.38056 l 0.38055,0.380546 h 0.38055 l 0.38055,0.38056 h 0.38056 l 0.7611,0.761106 h 0.76111 l 0.38056,0.380545 h 0.38054 l 0.38057,0.38056 h 0.38054 l 0.76111,0.761106 h 0.7611 l 0.38056,0.380545 h 0.38055 l 0.38056,0.380561 h 0.38054 l 0.38057,0.380559 h 0.38056 l 0.7611,0.761105 h 0.38055 l 0.38056,0.380547 h 0.38054 l 0.38057,0.380559 h 0.38054 l 0.38056,0.380546 h 0.38054 l 0.38057,0.38056 h 0.38054 l 0.38056,0.380546 h 0.38056 l 0.38055,0.380559 h 0.38055 l 0.38055,0.380547 h 0.38056 l 0.38055,0.380559 h 0.38055 l 0.38056,0.380546 h 0.38055 l 0.38055,0.38056 h 0.38055 l 0.38056,0.38056 h 0.38055 l 0.38056,0.380545 h 0.38055 l 0.38056,0.38056 h 0.38054 l 0.76111,0.761106 -0.38055,0.380545 h -0.38056 l -0.38054,-0.380545 h -0.38056 l -0.38055,-0.38056 h -0.76111 l -0.38056,0.38056 h -0.38055 l -0.38055,-0.38056 h -0.76111 l -0.38055,-0.380546 h -0.38055 l -0.38056,-0.38056 h -0.38055 l -0.38055,-0.380545 h -0.38055 l -0.38056,-0.38056 h -0.38056 l -0.76111,-0.761106 0.38057,-0.380559 h 0.7611 -0.7611 l -0.38057,0.380559 h -0.38054 l -0.38056,-0.380559 0.38056,-0.380547 v -0.380559 0.380559 l -0.38056,0.380547 h -0.38054 l -0.38057,-0.380547 h -0.38054 l -0.38056,-0.380559 h -0.38055 l -0.38056,-0.380546 0.38056,-0.38056 h 0.76111 -0.76111 l -0.38056,0.38056 h -0.38054 l -0.38056,-0.38056 h -0.38057 l -0.38054,-0.380546 0.38054,-0.380559 h 0.38057 -0.38057 l -0.38054,0.380559 h -0.38056 l -0.38055,-0.380559 h -0.38056 l -0.38054,-0.380547 0.38054,-0.380559 h 0.38056 -0.38056 l -0.38054,0.380559 -0.38056,-0.380559 h -0.38055 l -0.38056,-0.380546 h -0.38054 L 453.03222,75.3574 h -0.38054 l -0.38056,-0.380561 h -0.38055 l -0.38056,-0.380545 0.38056,-0.38056 h 0.76111 -0.76111 l -0.38056,0.38056 h -0.38055 l -0.38055,-0.38056 h -0.38056 l -0.38055,-0.380546 0.38055,-0.38056 h 0.38056 -0.38056 l -0.38055,-0.380545 0.38055,0.380545 -0.38055,0.38056 h -0.38055 l -0.38055,-0.38056 h -0.38056 l -0.38055,-0.380545 0.38055,-0.380561 h 0.38056 -0.38056 l -0.38055,0.380561 h -0.38055 l -0.38056,-0.380561 h -0.38055 z m -2.28332,-1.141666 0.76111,-0.761105 h 1.52221 l 0.38056,0.38056 h 0.38055 l 0.38056,0.380545 -0.38056,0.38056 h -1.14165 l -0.38057,0.380546 h -0.38054 l -0.38056,-0.380546 0.38056,-0.38056 -0.38056,0.38056 h -0.38055 z"
     fill="#000000"
     fill-rule="evenodd"
     id="path1"
     style="stroke-width:0.380553" />
</svg>
