<?xml version="1.0" encoding="UTF-8" standalone="no"?>
<svg
   width="400"
   height="250"
   viewBox="0 0 400 250"
   version="1.1"
   id="svg1"
   sodipodi:docname="tokarev_tt33_black.svg"
   inkscape:version="1.4.2 (f4327f4, 2025-05-13)"
   xmlns:inkscape="http://www.inkscape.org/namespaces/inkscape"
   xmlns:sodipodi="http://sodipodi.sourceforge.net/DTD/sodipodi-0.dtd"
   xmlns="http://www.w3.org/2000/svg"
   xmlns:svg="http://www.w3.org/2000/svg">
  <defs
     id="defs1" />
  <sodipodi:namedview
     id="namedview1"
     pagecolor="#ffffff"
     bordercolor="#000000"
     borderopacity="0.25"
     inkscape:showpageshadow="2"
     inkscape:pageopacity="0.0"
     inkscape:pagecheckerboard="0"
     inkscape:deskcolor="#d1d1d1"
     inkscape:zoom="0.76505568"
     inkscape:cx="620.86984"
     inkscape:cy="493.42814"
     inkscape:window-width="2560"
     inkscape:window-height="1377"
     inkscape:window-x="-8"
     inkscape:window-y="-8"
     inkscape:window-maximized="1"
     inkscape:current-layer="svg1" />
  <path
     d="m 363.508,218.78792 0.61033,-8.54468 -31.12705,-90.02431 2.13617,-12.81703 7.62917,-9.765353 17.39454,-7.32401 4.5775,-3.967167 6.71369,-1.22067 3.96717,-3.662 0.30516,-3.967178 -2.13617,-2.746507 -10.98602,-0.915506 -3.66201,-3.35684 -3.96716,-18.004854 1.22066,-8.23952 4.27234,-7.01884 -1.83101,-3.356841 -5.49301,-1.220666 -5.49299,2.13616 -7.62919,-9.155013 -14.0377,-0.305161 -2.44133,-8.544679 -2.13617,-1.831001 -5.18784,0.915494 -3.05167,9.460186 H 58.951151 l -0.610334,-4.272346 -2.441333,-2.441333 -14.037694,-1.220668 -2.746506,2.136174 -0.305161,5.798173 -8.849852,1.220667 -2.441334,11.291187 0.305174,15.25836 1.831,7.934347 4.577506,2.13616 0.915494,21.666884 56.761094,-0.915507 1.831013,3.661999 50.047422,1.220683 6.71368,3.661994 5.18784,6.103349 4.5775,20.446203 3.66201,6.10334 7.62918,6.40851 12.51185,3.66201 h 43.33374 l 7.32401,1.831 7.93434,4.88267 7.62919,11.29119 19.83586,63.47478 v 7.32401 l -6.4085,1.52582 0.91548,6.10335 61.64377,0.30518 2.13619,-3.96718 h 9.155 l 2.13618,8.23951 3.662,2.7465 5.18784,0.61034 6.40852,-5.49301 v -7.93435 z m -17.39453,8.84985 h 1.52584 l 0.30515,0.30517 h 0.61034 l 1.52584,1.52583 v 0.61033 l 0.30516,0.30517 v 1.52585 l -0.30516,0.30516 v 0.30517 l -0.30517,0.30515 v 0.30518 l -0.9155,0.9155 h -0.30517 l -0.30516,0.30517 h -0.61033 l -0.30517,0.30516 h -1.22067 l -0.30518,-0.30516 h -0.61033 l -0.61033,-0.61034 h -0.30516 l -0.30518,-0.30517 v -0.30516 l -0.30516,-0.30518 v -0.30515 l -0.30517,-0.30517 v -2.13618 l 0.30517,-0.30515 v -0.30518 l 0.61034,-0.61033 v -0.30517 l 0.30516,-0.30517 h 0.30517 l 0.30516,-0.30516 h 0.61033 z m -104.97751,-108.63951 0.30517,0.30516 h 0.61034 l 0.30515,0.30517 -0.30515,0.30516 0.30515,-0.30516 h 0.30517 l 1.22068,1.22067 v 0.30518 l 0.30516,0.30516 v 0.9155 l 0.30517,0.30516 v 0.30517 l -0.30517,0.30516 v 0.91551 l -1.52584,1.52584 h -0.30517 l -0.30515,0.30516 h -0.61034 l -0.30517,0.30517 h -0.30516 l -0.30518,-0.30517 h -0.91551 l -0.30515,-0.30516 h -0.30517 l -0.9155,-0.91551 v -0.30516 l -0.30517,-0.30517 v -0.30517 l -0.30517,-0.30516 v -1.831 l 0.30517,-0.30517 v -0.30516 l 0.30517,-0.30518 v -0.30517 l 0.61034,-0.61034 h 0.30516 l 0.30517,0.30518 h 0.30515 -0.30515 l -0.30517,-0.30518 0.30517,-0.30516 h 0.30515 l 0.30518,-0.30517 h 0.91551 z M 169.72683,93.364217 h 0.30518 l 2.13618,-1.831008 0.91549,-0.305162 0.61033,-0.610336 1.22068,-0.610336 h 0.61033 l 0.9155,-0.610325 h 0.61033 l 2.13617,-0.91551 h 1.22067 l 0.30517,-0.305162 h 2.13616 l 0.30517,-0.305174 h 23.49788 l 0.61032,1.220672 0.91551,0.915499 1.52585,0.915498 -1.22067,0.610336 h -1.22069 l -0.61032,0.610325 v 1.220683 l 0.61032,1.220673 0.61035,0.610324 0.61034,1.220672 v 0.610336 l 0.61033,0.915499 v 0.610336 l 0.61034,1.220672 v 0.915501 l 0.30515,0.30516 v 0.91551 l 0.30517,0.30516 v 0.91551 l 0.30517,0.30515 v 3.35685 l 0.30517,0.30517 v 1.52585 l -0.30517,0.30515 -0.30517,3.96718 -0.30517,0.30517 -0.61033,2.44133 -0.61033,0.91549 v 0.61035 l -0.9155,1.831 -0.61035,0.61033 -0.30515,0.9155 -3.35684,3.96718 h -0.30517 l -1.52583,1.52583 -1.22067,0.61034 -1.22068,1.22066 v 0.61033 l 0.91551,0.91551 2.44133,0.61034 0.30517,0.30517 -0.30517,0.30515 h -20.75136 l -0.30517,-0.30515 h -1.52583 l -0.30517,-0.30517 h -0.91551 l -0.30516,-0.30516 h -0.61034 l -0.30517,-0.30518 h -0.61033 l -0.30516,-0.30516 h -0.61033 l -0.91551,-0.61035 -1.22066,-0.30516 -0.61034,-0.61033 -0.91551,-0.30517 -2.13617,-1.831 h -0.30516 l -2.44134,-2.44134 v -0.30517 l -2.13617,-2.74651 -1.52583,-3.05167 v -0.61032 l -0.61034,-1.22067 v -0.91551 l -0.30516,-0.30515 v -0.91551 l -0.30517,-0.30518 v -6.40851 l 0.30517,-0.30515 v -1.52585 l 0.30516,-0.30517 v -0.91549 l 0.61034,-0.91551 v -0.61033 l 0.61032,-0.9155 0.30518,-1.220675 0.61033,-0.610336 1.22068,-2.136159 0.91549,-0.91551 v -0.305173 z m 131.22189,-35.399402 0.30518,0.305173 v 3.051667 l -0.30518,0.305174 -0.30516,-0.305174 v -3.051667 z m 12.81703,-0.915493 0.30517,0.30516 v 3.356839 l -0.30517,0.305174 -0.30518,-0.305174 v -3.356839 z m -8.54469,-3.05168 0.30517,0.305173 v 4.272334 l -0.30517,0.305173 -0.30517,-0.305173 v -4.272334 z m 4.27234,-3.356841 0.30518,0.305174 v 10.37568 l -0.30518,0.305174 -0.30516,-0.305174 v -10.37568 z m -8.54468,-3.661999 0.30518,0.305173 v 6.713667 l -0.30518,0.305173 -0.30516,-0.305173 v -6.713667 z m 4.27234,-1.220668 0.30517,0.305161 v 4.88268 l -0.30517,0.30516 -0.30517,-0.30516 v -4.88268 z m 8.54469,-0.305172 0.30517,0.305172 v 9.765348 l -0.30517,0.305172 -0.30518,-0.305172 v -9.765348 z m 3.96717,-1.831 0.30515,0.305172 v 3.356841 l -0.30515,0.30516 -0.30517,-0.30516 v -3.356841 z m -12.51186,-1.831001 0.30517,0.305161 v 3.05168 l -0.30517,0.30516 -0.30517,-0.30516 v -3.05168 z m -4.27234,-7.629187 0.30518,0.305174 v 4.272333 l -0.30518,0.305174 -0.30516,-0.305174 v -4.272333 z m 16.7842,-0.610332 0.30515,0.305172 v 3.967174 l -0.30515,0.305161 -0.30517,-0.305161 v -3.967174 z m -3.96717,0 0.30517,0.305172 v 9.765348 l -0.30517,0.305172 -0.30518,-0.305172 v -9.765348 z m -37.2304,-1.831001 0.30517,0.305173 v 29.296041 l -0.30517,0.305174 -0.30516,-0.305174 V 32.025614 Z m 32.95805,-1.220666 0.30518,0.30516 v 15.868693 l -0.30518,0.305174 -0.30516,-0.305174 V 30.804935 Z m -12.81702,0 0.30516,0.30516 v 30.51672 l -0.30516,0.305174 -0.30517,-0.305174 v -30.51672 z m -8.23952,0 0.30517,0.30516 v 30.51672 l -0.30517,0.305174 -0.30515,-0.305174 v -30.51672 z"
     fill="#000000"
     fill-rule="evenodd"
     id="path1"
     style="stroke-width:0.305167" />
</svg>
