<svg xmlns="http://www.w3.org/2000/svg" width="1448" height="1086" viewBox="0 0 1448 1086">
<rect width="100%" height="100%" fill="white"/>
<path d="M 1254,846 L 1256,818 L 1154,523 L 1161,481 L 1186,449 L 1243,425 L 1258,412 L 1280,408 L 1293,396 L 1294,383 L 1287,374 L 1251,371 L 1239,360 L 1226,301 L 1230,274 L 1244,251 L 1238,240 L 1220,236 L 1202,243 L 1177,213 L 1131,212 L 1123,184 L 1116,178 L 1099,181 L 1089,212 L 256,212 L 254,198 L 246,190 L 200,186 L 191,193 L 190,212 L 161,216 L 153,253 L 154,303 L 160,329 L 175,336 L 178,407 L 364,404 L 370,416 L 534,420 L 556,432 L 573,452 L 588,519 L 600,539 L 625,560 L 666,572 L 808,572 L 832,578 L 858,594 L 883,631 L 948,839 L 948,863 L 927,868 L 930,888 L 1132,889 L 1139,876 L 1169,876 L 1176,903 L 1188,912 L 1205,914 L 1226,896 L 1226,870 Z M 1197,875 L 1202,875 L 1203,876 L 1205,876 L 1210,881 L 1210,883 L 1211,884 L 1211,889 L 1210,890 L 1210,891 L 1209,892 L 1209,893 L 1206,896 L 1205,896 L 1204,897 L 1202,897 L 1201,898 L 1197,898 L 1196,897 L 1194,897 L 1192,895 L 1191,895 L 1190,894 L 1190,893 L 1189,892 L 1189,891 L 1188,890 L 1188,883 L 1189,882 L 1189,881 L 1191,879 L 1191,878 L 1192,877 L 1193,877 L 1194,876 L 1196,876 Z M 853,519 L 854,520 L 856,520 L 857,521 L 856,522 L 857,521 L 858,521 L 862,525 L 862,526 L 863,527 L 863,530 L 864,531 L 864,532 L 863,533 L 863,536 L 858,541 L 857,541 L 856,542 L 854,542 L 853,543 L 852,543 L 851,542 L 848,542 L 847,541 L 846,541 L 843,538 L 843,537 L 842,536 L 842,535 L 841,534 L 841,528 L 842,527 L 842,526 L 843,525 L 843,524 L 845,522 L 846,522 L 847,523 L 848,523 L 847,523 L 846,522 L 847,521 L 848,521 L 849,520 L 852,520 Z M 619,435 L 620,435 L 627,429 L 630,428 L 632,426 L 636,424 L 638,424 L 641,422 L 643,422 L 650,419 L 654,419 L 655,418 L 662,418 L 663,417 L 740,417 L 742,421 L 745,424 L 750,427 L 746,429 L 742,429 L 740,431 L 740,435 L 742,439 L 744,441 L 746,445 L 746,447 L 748,450 L 748,452 L 750,456 L 750,459 L 751,460 L 751,463 L 752,464 L 752,467 L 753,468 L 753,479 L 754,480 L 754,485 L 753,486 L 752,499 L 751,500 L 749,508 L 747,511 L 747,513 L 744,519 L 742,521 L 741,524 L 730,537 L 729,537 L 724,542 L 720,544 L 716,548 L 716,550 L 719,553 L 727,555 L 728,556 L 727,557 L 659,557 L 658,556 L 653,556 L 652,555 L 649,555 L 648,554 L 646,554 L 645,553 L 643,553 L 642,552 L 640,552 L 637,550 L 633,549 L 631,547 L 628,546 L 621,540 L 620,540 L 612,532 L 612,531 L 605,522 L 600,512 L 600,510 L 598,506 L 598,503 L 597,502 L 597,499 L 596,498 L 596,477 L 597,476 L 597,471 L 598,470 L 598,467 L 600,464 L 600,462 L 602,459 L 603,455 L 605,453 L 609,446 L 612,443 L 612,442 Z M 1049,319 L 1050,320 L 1050,330 L 1049,331 L 1048,330 L 1048,320 Z M 1091,316 L 1092,317 L 1092,328 L 1091,329 L 1090,328 L 1090,317 Z M 1063,306 L 1064,307 L 1064,321 L 1063,322 L 1062,321 L 1062,307 Z M 1077,295 L 1078,296 L 1078,330 L 1077,331 L 1076,330 L 1076,296 Z M 1049,283 L 1050,284 L 1050,306 L 1049,307 L 1048,306 L 1048,284 Z M 1063,279 L 1064,280 L 1064,296 L 1063,297 L 1062,296 L 1062,280 Z M 1091,278 L 1092,279 L 1092,311 L 1091,312 L 1090,311 L 1090,279 Z M 1104,272 L 1105,273 L 1105,284 L 1104,285 L 1103,284 L 1103,273 Z M 1063,266 L 1064,267 L 1064,277 L 1063,278 L 1062,277 L 1062,267 Z M 1049,241 L 1050,242 L 1050,256 L 1049,257 L 1048,256 L 1048,242 Z M 1104,239 L 1105,240 L 1105,253 L 1104,254 L 1103,253 L 1103,240 Z M 1091,239 L 1092,240 L 1092,272 L 1091,273 L 1090,272 L 1090,240 Z M 969,233 L 970,234 L 970,330 L 969,331 L 968,330 L 968,234 Z M 1077,229 L 1078,230 L 1078,282 L 1077,283 L 1076,282 L 1076,230 Z M 1035,229 L 1036,230 L 1036,330 L 1035,331 L 1034,330 L 1034,230 Z M 1008,229 L 1009,230 L 1009,330 L 1008,331 L 1007,330 L 1007,230 Z" fill="black" fill-rule="evenodd"/>
</svg>