<svg xmlns="http://www.w3.org/2000/svg" viewBox="0 0 116 72" width="116" height="72">
  <path d="M 24.00 61.00 L 26.00 65.00 L 42.00 65.00 L 43.00 64.00 L 43.00 59.00 L 44.00 58.00 L 44.00 54.00 L 46.00 50.00 L 46.00 47.00 L 49.00 43.00 L 59.00 43.00 L 61.00 42.00 L 63.00 40.00 L 63.00 36.00 L 64.00 34.00 L 67.00 32.00 L 95.00 32.00 L 96.00 31.00 L 96.00 26.00 L 97.00 25.00 L 97.00 21.00 L 96.00 19.00 L 95.00 19.00 L 94.00 17.00 L 91.00 17.00 L 87.00 19.00 L 50.00 19.00 L 49.00 18.00 L 39.00 18.00 L 38.00 17.00 L 33.00 17.00 L 32.00 19.00 L 27.00 19.00 L 26.00 20.00 L 25.00 31.00 L 30.00 34.00 L 31.00 36.00 L 31.00 40.00 L 28.00 46.00 L 28.00 48.00 L 26.00 52.00 L 26.00 55.00 L 25.00 56.00 L 25.00 59.00 Z M 55.00 34.00 L 56.00 33.00 L 60.00 33.00 L 62.00 35.00 L 62.00 39.00 L 60.00 41.00 L 57.00 41.00 L 54.00 38.00 L 54.00 36.00 L 55.00 35.00 Z" fill="#000000" stroke="#000000" stroke-width="0.5" fill-rule="evenodd" clip-rule="evenodd"/>
</svg>
