<svg xmlns="http://www.w3.org/2000/svg" width="1254" height="1254" viewBox="0 0 1254 1254">
<rect width="100%" height="100%" fill="white"/>
<path d="M 614,619 L 626,619 L 627,618 L 630,618 L 614,618 Z" fill="black" fill-rule="evenodd"/>
<path d="M 365,397 L 378,397 L 379,398 L 379,399 L 381,401 L 381,407 L 380,408 L 380,414 L 381,415 L 381,440 L 381,397 Z" fill="black" fill-rule="evenodd"/>
<path d="M 1099,927 L 1100,892 L 1093,886 L 1100,819 L 1089,747 L 1018,587 L 1013,549 L 1011,562 L 1012,543 L 1025,519 L 1099,488 L 1111,475 L 1110,459 L 1068,427 L 1056,380 L 1076,348 L 1104,337 L 1097,325 L 1075,321 L 1047,338 L 1034,338 L 1013,312 L 991,312 L 989,292 L 965,291 L 988,290 L 966,290 L 950,307 L 674,307 L 952,308 L 954,303 L 953,310 L 672,310 L 654,333 L 661,335 L 451,335 L 443,314 L 395,314 L 388,331 L 180,334 L 152,292 L 116,307 L 113,332 L 102,339 L 101,392 L 159,397 L 107,397 L 382,395 L 388,456 L 389,447 L 393,460 L 415,465 L 429,485 L 475,495 L 497,508 L 522,543 L 542,605 L 562,623 L 615,640 L 680,640 L 734,627 L 773,636 L 792,664 L 843,847 L 840,881 L 820,906 L 827,916 L 1012,918 L 1026,943 L 1041,952 L 1078,950 Z M 1040,926 L 1041,925 L 1042,926 L 1041,925 L 1043,923 L 1071,923 L 1072,924 L 1073,924 L 1075,926 L 1075,930 L 1074,931 L 1073,930 L 1073,927 L 1072,928 L 1072,930 L 1071,931 L 1072,931 L 1073,932 L 1072,933 L 1071,933 L 1070,934 L 1044,934 L 1043,933 L 1042,933 L 1040,931 Z M 760,546 L 761,564 L 759,573 L 757,576 L 756,574 L 757,578 L 749,593 L 743,599 L 741,599 L 742,598 L 743,600 L 730,611 L 717,618 L 714,617 L 714,619 L 700,624 L 672,629 L 636,630 L 626,628 L 628,627 L 622,626 L 624,627 L 623,628 L 601,625 L 596,621 L 597,622 L 594,623 L 577,616 L 577,614 L 575,615 L 565,609 L 561,605 L 562,604 L 561,605 L 559,603 L 560,601 L 558,602 L 556,600 L 557,599 L 551,590 L 547,588 L 543,578 L 544,574 L 545,577 L 544,571 L 544,574 L 542,574 L 543,560 L 543,569 L 541,569 L 542,548 L 544,544 L 545,548 L 544,542 L 545,541 L 546,543 L 550,534 L 549,531 L 551,529 L 552,531 L 551,528 L 553,526 L 554,527 L 561,520 L 560,519 L 562,517 L 563,518 L 562,517 L 566,514 L 567,516 L 568,515 L 566,514 L 579,507 L 584,508 L 581,507 L 595,503 L 635,503 L 638,505 L 621,505 L 634,505 L 638,507 L 637,506 L 639,505 L 648,518 L 650,517 L 653,521 L 653,526 L 656,527 L 655,530 L 657,534 L 658,532 L 659,533 L 659,543 L 660,539 L 662,546 L 661,565 L 659,569 L 658,565 L 659,564 L 659,571 L 658,572 L 657,570 L 653,579 L 653,583 L 641,595 L 638,594 L 640,595 L 631,601 L 616,605 L 603,605 L 599,608 L 600,615 L 602,616 L 632,616 L 651,609 L 653,610 L 652,611 L 655,609 L 655,607 L 657,608 L 656,607 L 658,605 L 660,606 L 659,607 L 662,602 L 676,589 L 678,589 L 679,583 L 681,581 L 682,582 L 681,580 L 686,569 L 687,571 L 686,566 L 688,560 L 688,540 L 683,522 L 684,521 L 685,523 L 688,520 L 687,519 L 700,508 L 698,510 L 697,509 L 702,502 L 704,503 L 702,505 L 707,503 L 715,504 L 715,502 L 719,502 L 728,505 L 730,507 L 728,508 L 733,508 L 733,510 L 737,513 L 736,512 L 738,511 L 748,521 L 747,522 L 749,522 L 748,525 L 753,528 Z M 704,502 L 705,501 L 714,501 L 715,502 L 714,503 L 705,503 Z M 162,397 L 163,396 L 176,396 L 177,397 L 176,398 L 163,398 Z M 1035,338 L 1036,337 L 1044,337 L 1045,338 L 1044,339 L 1036,339 Z" fill="black" fill-rule="evenodd"/>
</svg>