<?xml version="1.0" encoding="UTF-8" standalone="no"?>
<svg
   width="400"
   height="250"
   viewBox="0 0 400 250"
   version="1.1"
   id="svg3"
   sodipodi:docname="walther_p38_black.svg"
   inkscape:version="1.4.2 (f4327f4, 2025-05-13)"
   xmlns:inkscape="http://www.inkscape.org/namespaces/inkscape"
   xmlns:sodipodi="http://sodipodi.sourceforge.net/DTD/sodipodi-0.dtd"
   xmlns="http://www.w3.org/2000/svg"
   xmlns:svg="http://www.w3.org/2000/svg">
  <defs
     id="defs3" />
  <sodipodi:namedview
     id="namedview3"
     pagecolor="#ffffff"
     bordercolor="#000000"
     borderopacity="0.25"
     inkscape:showpageshadow="2"
     inkscape:pageopacity="0.0"
     inkscape:pagecheckerboard="0"
     inkscape:deskcolor="#d1d1d1"
     inkscape:zoom="0.93700159"
     inkscape:cx="626.46638"
     inkscape:cy="627"
     inkscape:window-width="2560"
     inkscape:window-height="1377"
     inkscape:window-x="-8"
     inkscape:window-y="-8"
     inkscape:window-maximized="1"
     inkscape:current-layer="svg3" />
  <path
     d="m 196.97744,125.578 h 4.16735 l 0.34729,-0.34727 h 1.04184 -5.55648 z"
     fill="#000000"
     fill-rule="evenodd"
     id="path1"
     style="stroke-width:0.34728" />
  <path
     d="m 110.5048,48.481922 h 4.51464 l 0.34728,0.347276 v 0.347289 l 0.69456,0.694552 v 2.083682 l -0.34728,0.347276 v 2.083681 l 0.34728,0.347276 v 8.68199 -14.933022 z"
     fill="#000000"
     fill-rule="evenodd"
     id="path2"
     style="stroke-width:0.34728" />
  <path
     d="m 365.40806,232.54014 0.34728,-12.15479 -2.43096,-2.08368 2.43096,-23.26773 -3.82007,-25.00413 -24.65685,-55.56476 -1.7364,-13.19663 -0.69456,4.51465 0.34728,-6.598315 4.51463,-8.334708 25.69869,-10.765672 4.16736,-4.514643 -0.34728,-5.556468 -14.58575,-11.112946 -4.16734,-16.322152 6.94558,-11.112947 9.72383,-3.820074 -2.43096,-4.167351 -7.64015,-1.38913 -9.72382,5.903757 h -4.51464 l -7.29287,-9.029267 h -7.64016 l -0.69455,-6.945596 -8.33472,-0.347276 7.98743,-0.347276 h -7.64015 l -5.55646,5.903743 h -95.84919 l 96.54374,0.347288 0.69457,-1.736406 -0.3473,2.430959 h -97.58556 l -6.25105,7.987437 2.43096,0.694552 h -72.92872 l -2.77825,-7.292873 h -16.66942 l -2.43095,5.903757 -72.234175,1.04184 -9.723817,-14.585745 -12.502078,5.209191 -1.041841,8.682002 -3.820074,2.430958 -0.347276,18.405821 20.142226,1.736392 H 20.906661 l 95.501899,-0.694565 2.08368,21.184067 0.34728,-3.125523 1.38911,4.514639 7.64016,1.736394 4.86191,6.945601 15.97486,3.472798 7.64017,4.514639 8.68198,12.154783 6.9456,21.531335 6.94559,6.25103 18.40581,5.90376 h 22.57318 l 18.75311,-4.51463 13.5439,3.12551 6.59832,9.72383 17.71126,63.55218 -1.04184,11.80751 -6.94559,8.68198 2.43096,3.4728 64.24673,0.69456 4.86191,8.68199 5.2092,3.12552 12.84935,-0.69456 z m -20.48949,-0.34727 0.34728,-0.34729 0.34728,0.34729 -0.34728,-0.34729 0.69456,-0.69456 h 9.72383 l 0.34727,0.34728 h 0.34729 l 0.69455,0.69457 v 1.38911 l -0.34727,0.34728 -0.34728,-0.34728 v -1.04184 l -0.34729,0.34728 v 0.69456 l -0.34727,0.34728 h 0.34727 l 0.34729,0.34727 -0.34729,0.3473 h -0.34727 l -0.34728,0.34727 h -9.02928 l -0.34727,-0.34727 h -0.34728 l -0.69456,-0.69457 z m -97.2383,-131.96628 0.34728,6.25104 -0.69457,3.1255 -0.69455,1.04184 -0.34729,-0.69456 0.34729,1.38914 -2.77825,5.20919 -2.08366,2.08368 h -0.69456 l 0.34726,-0.34729 0.3473,0.69457 -4.51464,3.82007 -4.51464,2.43096 -1.04185,-0.34727 v 0.69454 l -4.8619,1.73641 -9.72382,1.73639 -12.50208,0.34728 -3.4728,-0.69456 0.69457,-0.34727 -2.08369,-0.34729 0.69457,0.34729 -0.34728,0.34727 -7.64016,-1.04184 -1.73639,-1.38911 0.34728,0.34727 -1.04185,0.34728 -5.90376,-2.43095 v -0.69456 l -0.69455,0.34728 -3.47279,-2.08368 -1.38912,-1.38912 0.34728,-0.34728 -0.34728,0.34728 -0.69456,-0.69455 0.34728,-0.69457 -0.69456,0.34728 -0.69457,-0.69455 0.34729,-0.34728 -2.08368,-3.12553 -1.38912,-0.69456 -1.38912,-3.47278 0.34728,-1.38914 0.34728,1.04184 -0.34728,-2.08366 v 1.04182 h -0.69455 l 0.34727,-4.86191 v 3.12553 h -0.69456 l 0.34729,-7.29288 0.69455,-1.389118 0.34728,1.389118 -0.34728,-2.083683 0.34728,-0.347276 0.34728,0.694564 1.38912,-3.125514 -0.34727,-1.041844 0.69455,-0.694552 0.34728,0.694552 -0.34728,-1.041841 0.69456,-0.694551 0.34728,0.347275 2.43096,-2.430957 -0.34728,-0.347276 0.69456,-0.694566 0.34727,0.347276 -0.34727,-0.347276 1.38912,-1.04184 0.34728,0.694565 0.34728,-0.347276 -0.69456,-0.347289 4.51463,-2.430957 1.73639,0.347288 -1.04183,-0.347288 4.86192,-1.389118 h 13.89119 l 1.04184,0.694566 h -5.90376 4.51464 l 1.38912,0.694552 -0.34728,-0.347276 0.69455,-0.347276 3.12552,4.514625 0.69455,-0.347276 1.04184,1.389118 v 1.736406 l 1.04184,0.347275 -0.34727,1.041841 0.69455,1.38912 0.34729,-0.694568 0.34728,0.347291 v 3.472791 l 0.34727,-1.389129 0.69457,2.430964 -0.34729,6.59832 -0.69455,1.38912 -0.34728,-1.38912 0.34728,-0.34728 v 2.43096 l -0.34728,0.34728 -0.34729,-0.69457 -1.38912,3.12553 v 1.38911 l -4.16734,4.16735 -1.04184,-0.34728 0.69454,0.34728 -3.1255,2.08368 -5.2092,1.38912 h -4.51463 l -1.38912,1.04184 0.34728,2.43096 0.69456,0.34728 h 10.41838 l 6.59832,-2.43096 0.69455,0.34729 -0.34727,0.34727 1.04184,-0.69456 v -0.69456 l 0.69455,0.34728 -0.34728,-0.34728 0.69457,-0.69456 0.69455,0.34729 -0.34727,0.34727 1.04184,-1.7364 4.86192,-4.51463 h 0.69454 l 0.34728,-2.08368 0.69456,-0.69456 0.34728,0.34729 -0.34728,-0.69457 1.7364,-3.82007 0.34728,0.69456 -0.34728,-1.73641 0.69456,-2.08368 v -6.945576 l -1.73639,-6.251037 0.34727,-0.347288 0.34728,0.694564 1.04184,-1.04184 -0.34728,-0.347276 4.51464,-3.820075 -0.69456,0.694552 -0.34728,-0.347276 1.7364,-2.430958 0.69456,0.347276 -0.69456,0.694566 1.73638,-0.694566 2.77825,0.347276 V 84.94629 h 1.38912 l 3.12551,1.041842 0.69457,0.694552 -0.69457,0.347288 h 1.73641 v 0.694552 l 1.38912,1.041841 -0.34728,-0.347276 0.69456,-0.347289 3.47279,3.472799 -0.34727,0.347288 h 0.69454 l -0.34727,1.041828 1.7364,1.041841 z m -19.44766,-15.2803 0.34728,-0.347276 h 3.1255 l 0.34729,0.347276 -0.34729,0.347276 h -3.1255 z M 40.007033,48.481922 40.354322,48.134646 h 4.514626 l 0.347289,0.347276 -0.347289,0.347276 h -4.514626 z m 303.175137,-20.489501 0.34728,-0.347276 h 2.77823 l 0.34729,0.347276 -0.34729,0.347288 h -2.77823 z"
     fill="#000000"
     fill-rule="evenodd"
     id="path3"
     style="stroke-width:0.34728" />
</svg>
