<?xml version="1.0" encoding="UTF-8" standalone="no"?>
<svg
   width="450"
   height="250"
   viewBox="0 0 449.99998 250"
   version="1.1"
   id="svg1"
   sodipodi:docname="webley_revolver_black.svg"
   inkscape:version="1.4.2 (f4327f4, 2025-05-13)"
   xmlns:inkscape="http://www.inkscape.org/namespaces/inkscape"
   xmlns:sodipodi="http://sodipodi.sourceforge.net/DTD/sodipodi-0.dtd"
   xmlns="http://www.w3.org/2000/svg"
   xmlns:svg="http://www.w3.org/2000/svg">
  <defs
     id="defs1" />
  <sodipodi:namedview
     id="namedview1"
     pagecolor="#ffffff"
     bordercolor="#000000"
     borderopacity="0.25"
     inkscape:showpageshadow="2"
     inkscape:pageopacity="0.0"
     inkscape:pagecheckerboard="0"
     inkscape:deskcolor="#d1d1d1"
     inkscape:zoom="1.0819521"
     inkscape:cx="258.79149"
     inkscape:cy="318.40596"
     inkscape:window-width="2560"
     inkscape:window-height="1377"
     inkscape:window-x="-8"
     inkscape:window-y="-8"
     inkscape:window-maximized="1"
     inkscape:current-layer="svg1" />
  <rect
     width="100%"
     height="100%"
     fill="#ffffff"
     id="rect1"
     x="0"
     y="0" />
  <path
     d="m 24.238501,36.083837 -0.679352,15.285522 2.038066,5.434854 H 161.46851 v 6.793566 h -24.45683 l -2.03808,-2.717427 h -10.86969 l -2.03808,2.717427 0.33968,8.152269 9.85067,1.6984 4.7555,-3.39679 h 24.45683 l 1.35871,2.37775 h 10.53003 l 7.47291,2.71743 1.01904,5.43485 8.49196,2.71742 7.13324,7.13324 3.39679,8.49196 -1.35872,8.831642 2.03807,4.41582 5.77453,3.39678 h 8.15228 l 6.79357,5.43485 2.37774,21.73941 5.43485,11.54905 9.51099,8.15228 12.90778,5.43486 24.45683,2.71742 14.60616,-3.39678 12.90777,-10.53003 5.43485,-17.32358 4.41582,-5.77453 12.22842,-2.37775 7.47292,2.71742 11.54906,10.86971 9.51099,20.04101 4.07614,20.72037 1.01903,28.53297 4.41581,3.05711 23.09813,3.05711 -7.8126,11.54906 1.35871,5.77452 5.43485,5.09517 10.19035,1.01904 8.49195,-6.45389 0.33968,-8.49195 -6.79356,-6.79356 0.33968,-2.03808 18.6823,-2.03806 9.85067,-5.09518 -3.0571,-24.45683 -7.13325,-23.09812 -16.30456,-32.26943 -19.70133,-28.53297 -4.41582,-23.437802 -7.13324,-3.73646 -20.04102,0.33967 -24.7965,-11.20938 0.33967,-9.510985 16.64424,-12.907772 9.51098,-2.377751 -2.37774,-5.095168 -7.47293,0.679352 -9.85066,5.774529 -7.13324,1.019038 -5.09518,-3.396788 -2.71742,-6.453882 -6.11421,2.038066 -2.71743,5.095177 2.03807,19.701338 -3.73646,-12.568095 -0.67936,-23.098118 -1.69839,-1.698398 h -8.15228 l -2.03806,3.396788 h -92.39248 l -8.49196,3.736455 -21.7394,3.736464 H 53.790509 L 53.450833,30.988669 50.39373,29.629955 51.073082,18.760249 38.844671,18.420573 33.409818,21.817352 v 7.812603 l -2.37775,0.679353 -0.339676,3.736463 z m 360.398609,194.635633 0.33967,-0.33968 v -0.33968 l 0.33968,-0.33968 v -0.33968 l 0.33968,-0.33967 v -0.33968 l 1.69839,-1.6984 h 0.33968 l 0.33968,-0.33967 h 0.33967 l 0.33968,-0.33968 h 0.33968 l 0.67936,0.67935 h 0.33967 l 0.67936,0.67937 h 0.67935 l 0.33969,0.33967 h 3.0571 l 0.33968,-0.33967 h 0.67935 l 0.67936,-0.67937 h 0.33968 l 0.67936,-0.67935 h 0.33968 l 0.33967,0.33968 h 0.33968 l 1.01903,1.01904 h 0.33968 l 0.33969,0.33967 v 0.33968 l 1.01902,1.01903 v 0.67936 l 0.33968,0.33968 v 0.67935 l 0.33969,0.33968 v 2.03807 l -0.33969,0.33968 v 0.67936 l -0.33968,0.33968 v 0.33967 l -0.33967,0.33968 v 0.33968 l -0.67935,0.67936 v 0.33967 l -0.33969,0.33968 h -0.33968 l -1.01903,1.01904 h -0.33968 l -0.33967,0.33967 h -0.33968 l -0.33969,0.33969 h -0.67935 l -0.33967,0.33967 h -1.35872 l -0.33968,0.33968 h -2.71742 l -0.33969,-0.33968 h -1.35871 l -0.33967,-0.33967 h -0.33968 l -0.33968,-0.33969 0.33968,-0.33967 -0.33968,0.33967 h -0.33968 l -0.33968,-0.33967 h -0.33967 l -0.33968,-0.33968 0.33968,-0.33968 -0.33968,0.33968 h -0.33968 l -1.69839,-1.69839 v -0.33968 l -0.67936,-0.67936 v -0.67935 l -0.33967,-0.33968 z m -154.89328,-99.8654 2.03807,-4.41582 2.37775,-3.0571 5.09517,-4.07614 4.7555,-2.03807 5.77453,-1.01903 h 6.45388 l 0.33969,0.33968 v 2.71742 l 0.67935,1.69839 3.39678,2.37775 3.73646,3.73646 3.39678,5.43485 1.35871,4.41582 v 6.1142 l -1.69839,5.09518 -1.69839,2.71743 -3.73646,3.73646 -2.03807,1.3587 -5.43485,2.03808 -1.01904,1.69839 1.01904,1.35871 h 4.41582 l 6.11421,-2.03806 3.0571,-2.03808 3.73646,-3.73645 2.03807,-3.05712 2.03807,-4.75549 0.33968,0.67936 -0.33968,-2.03807 0.67936,-2.03807 v -7.13324 l -1.6984,-5.09518 0.33969,-0.67935 h 0.67935 l -1.01904,-0.33968 0.33969,-0.33968 h 5.77453 l 2.37774,-0.67935 3.05711,-1.6984 3.73645,-4.07613 3.39679,1.35871 3.73646,2.71742 4.07614,5.09518 2.37775,6.45389 0.33967,2.71742 -0.33967,5.43485 -1.35872,3.73646 -0.33967,-0.67936 0.33967,1.35871 -3.39678,5.77453 -1.01903,1.01904 -0.33969,-0.33968 -1.69839,1.69839 0.33969,0.33968 -2.03808,1.6984 -5.77452,3.0571 -4.41582,1.35871 -6.79357,1.01903 h -9.51099 l -10.8697,-1.69839 -7.8126,-2.37774 -6.45388,-3.05711 -4.07614,-2.71743 -4.07614,-3.73645 -3.73647,-5.77453 -1.69839,-5.77453 -0.33967,-4.7555 z m -6.45389,-64.538872 v -3.39678 l 0.33968,-0.339676 0.67936,0.679352 h 2.03807 l 0.33968,0.339685 h 15.6252 l 0.33968,-0.339685 H 244.35 l 0.33967,0.339685 h 6.79357 l 0.33967,-0.339685 h 2.37776 l 0.33967,0.339685 h 1.35871 l 0.33968,0.339676 h 0.33969 l 0.33967,0.339676 h 0.67935 l 0.33969,0.339677 -0.33969,0.33968 h -0.33967 l -0.33968,0.33968 h -0.33967 l -0.33969,0.33968 h -0.67935 l -0.33968,0.33967 h -30.23137 l -0.33967,0.33968 h -0.33968 l -0.33967,0.33968 h -0.33969 z m -5.77453,-30.231361 1.35872,-1.019029 h 65.5579 l 0.67936,1.019029 0.67935,-0.339676 1.01904,1.698389 v 59.104018 l -0.67937,1.35871 -2.71742,1.69839 h -62.84047 l -1.69839,-0.67936 -1.69839,-2.03806 0.33967,-24.45684 5.43486,0.33968 v 11.20938 l 1.69839,2.37775 h 30.91072 l 1.01904,0.67935 -1.01904,0.33968 h 2.03806 l -2.03806,1.01904 h -30.23136 l -2.03808,1.69839 v 5.09518 l 1.35872,1.35871 55.36755,-0.33968 0.67936,-8.15228 1.35871,1.01903 -0.67936,-0.33968 h 2.03807 l 2.03807,-1.35871 V 46.274182 l -2.03807,-1.698389 -1.35871,0.679361 -0.67936,-0.679361 0.33968,0.679361 -1.01903,0.339676 v -7.133243 l -1.35871,-1.358713 h -54.6882 l -1.35872,1.358713 -0.33967,22.418765 -5.43486,0.339677 -0.33967,-4.415816 4.07614,-2.717427 0.33967,-12.568096 -4.41581,-4.07614 z"
     fill="#000000"
     fill-rule="evenodd"
     id="path1"
     style="stroke-width:0.339678" />
</svg>
