<svg xmlns="http://www.w3.org/2000/svg" width="1448" height="1086" viewBox="0 0 1448 1086">
<rect width="100%" height="100%" fill="white"/>
<path d="M 130,287 L 128,332 L 134,348 L 534,348 L 534,368 L 462,368 L 456,360 L 424,360 L 418,368 L 419,392 L 448,397 L 462,387 L 534,387 L 538,394 L 569,394 L 591,402 L 594,418 L 619,426 L 640,447 L 650,472 L 646,498 L 652,511 L 669,521 L 693,521 L 713,537 L 720,601 L 736,635 L 764,659 L 802,675 L 874,683 L 917,673 L 955,642 L 971,591 L 984,574 L 1020,567 L 1042,575 L 1076,607 L 1104,666 L 1116,727 L 1119,811 L 1132,820 L 1200,829 L 1177,863 L 1181,880 L 1197,895 L 1227,898 L 1252,879 L 1253,854 L 1233,834 L 1234,828 L 1289,822 L 1318,807 L 1309,735 L 1288,667 L 1240,572 L 1182,488 L 1169,419 L 1148,408 L 1089,409 L 1016,376 L 1017,348 L 1066,310 L 1094,303 L 1087,288 L 1065,290 L 1036,307 L 1015,310 L 1000,300 L 992,281 L 974,287 L 966,302 L 972,360 L 961,323 L 959,255 L 954,250 L 930,250 L 924,260 L 652,260 L 627,271 L 563,282 L 217,282 L 216,272 L 207,268 L 209,236 L 173,235 L 157,245 L 157,268 L 150,270 L 149,281 Z M 1191,860 L 1192,859 L 1192,858 L 1193,857 L 1193,856 L 1194,855 L 1194,854 L 1199,849 L 1200,849 L 1201,848 L 1202,848 L 1203,847 L 1204,847 L 1206,849 L 1207,849 L 1209,851 L 1211,851 L 1212,852 L 1221,852 L 1222,851 L 1224,851 L 1226,849 L 1227,849 L 1229,847 L 1230,847 L 1231,848 L 1232,848 L 1235,851 L 1236,851 L 1237,852 L 1237,853 L 1240,856 L 1240,858 L 1241,859 L 1241,861 L 1242,862 L 1242,868 L 1241,869 L 1241,871 L 1240,872 L 1240,873 L 1239,874 L 1239,875 L 1237,877 L 1237,878 L 1236,879 L 1235,879 L 1232,882 L 1231,882 L 1230,883 L 1229,883 L 1228,884 L 1226,884 L 1225,885 L 1221,885 L 1220,886 L 1212,886 L 1211,885 L 1207,885 L 1206,884 L 1205,884 L 1204,883 L 1205,882 L 1204,883 L 1203,883 L 1202,882 L 1201,882 L 1200,881 L 1201,880 L 1200,881 L 1199,881 L 1194,876 L 1194,875 L 1192,873 L 1192,871 L 1191,870 Z M 735,566 L 741,553 L 748,544 L 763,532 L 777,526 L 794,523 L 813,523 L 814,524 L 814,532 L 816,537 L 826,544 L 837,555 L 847,571 L 851,584 L 851,602 L 846,617 L 841,625 L 830,636 L 824,640 L 808,646 L 805,651 L 808,655 L 821,655 L 839,649 L 848,643 L 859,632 L 865,623 L 871,609 L 872,611 L 871,605 L 873,599 L 873,578 L 868,563 L 869,561 L 871,561 L 868,560 L 869,559 L 886,559 L 893,557 L 902,552 L 913,540 L 923,544 L 934,552 L 946,567 L 953,586 L 954,594 L 953,610 L 949,621 L 948,619 L 949,623 L 939,640 L 936,643 L 935,642 L 930,647 L 931,648 L 925,653 L 908,662 L 895,666 L 875,669 L 847,669 L 815,664 L 792,657 L 773,648 L 761,640 L 749,629 L 738,612 L 733,595 L 732,581 Z M 716,376 L 716,366 L 717,365 L 719,367 L 725,367 L 726,368 L 772,368 L 773,367 L 778,367 L 779,368 L 799,368 L 800,367 L 807,367 L 808,368 L 812,368 L 813,369 L 814,369 L 815,370 L 817,370 L 818,371 L 817,372 L 816,372 L 815,373 L 814,373 L 813,374 L 811,374 L 810,375 L 721,375 L 720,376 L 719,376 L 718,377 L 717,377 Z M 699,287 L 703,284 L 896,284 L 898,287 L 900,286 L 903,291 L 903,465 L 901,469 L 893,474 L 708,474 L 703,472 L 698,466 L 699,394 L 715,395 L 715,428 L 720,435 L 811,435 L 814,437 L 811,438 L 817,438 L 811,441 L 722,441 L 716,446 L 716,461 L 720,465 L 883,464 L 885,440 L 889,443 L 887,442 L 893,442 L 899,438 L 899,317 L 893,312 L 889,314 L 887,312 L 888,314 L 885,315 L 885,294 L 881,290 L 720,290 L 716,294 L 715,360 L 699,361 L 698,348 L 710,340 L 711,303 L 698,291 Z" fill="black" fill-rule="evenodd"/>
</svg>