<svg xmlns="http://www.w3.org/2000/svg" width="2172" height="724" viewBox="0 0 2172 724">
<rect width="100%" height="100%" fill="white"/>
<path d="M 76,523 L 87,531 L 107,521 L 157,524 L 157,532 L 197,543 L 199,560 L 188,573 L 200,574 L 268,524 L 943,443 L 982,452 L 986,424 L 989,484 L 1016,533 L 1069,568 L 1126,573 L 1180,552 L 1221,503 L 1232,437 L 1211,380 L 1222,383 L 1225,360 L 1407,358 L 1430,349 L 1434,328 L 1410,320 L 1406,304 L 1950,274 L 2083,279 L 2090,248 L 2085,233 L 1941,248 L 1405,275 L 1404,235 L 1381,244 L 1304,234 L 1149,247 L 1124,189 L 972,159 L 965,173 L 990,257 L 977,264 L 987,289 L 924,299 L 911,287 L 887,284 L 823,299 L 827,316 L 859,314 L 870,326 L 871,343 L 858,354 L 825,358 L 831,381 L 961,377 L 958,396 L 862,400 L 798,416 L 785,393 L 759,414 L 713,415 L 708,429 L 324,479 L 313,470 L 293,474 L 292,483 L 216,493 L 199,465 L 160,476 L 156,498 L 146,504 L 129,495 L 112,508 L 86,501 Z M 1097,527 L 1098,526 L 1119,526 L 1120,527 L 1119,528 L 1098,528 Z M 90,508 L 94,508 L 95,509 L 96,509 L 98,511 L 96,513 L 96,516 L 97,517 L 97,519 L 98,520 L 98,521 L 97,522 L 96,522 L 95,523 L 88,523 L 86,521 L 86,520 L 85,519 L 85,518 L 84,517 L 84,515 L 85,514 L 85,512 L 87,510 L 88,511 L 89,510 L 93,510 L 90,510 L 89,509 Z M 1089,499 L 1094,494 L 1096,494 L 1097,493 L 1100,493 L 1101,494 L 1103,494 L 1104,495 L 1105,495 L 1108,498 L 1108,499 L 1109,500 L 1109,503 L 1110,504 L 1110,506 L 1111,507 L 1111,509 L 1109,511 L 1108,511 L 1107,510 L 1095,510 L 1094,509 L 1093,509 L 1089,505 Z M 197,477 L 197,486 L 198,487 L 198,488 L 197,489 L 196,489 L 195,490 L 194,490 L 193,491 L 193,492 L 192,493 L 192,495 L 191,496 L 183,496 L 182,497 L 174,497 L 173,498 L 172,497 L 172,495 L 171,494 L 171,493 L 170,492 L 168,492 L 167,491 L 167,485 L 166,484 L 168,482 L 171,482 L 172,481 L 177,481 L 178,480 L 181,480 L 182,479 L 185,479 L 186,478 L 190,478 L 191,479 L 195,479 L 191,479 L 190,478 L 191,477 L 194,477 L 195,476 L 196,476 Z M 1148,475 L 1154,475 L 1155,476 L 1156,476 L 1159,479 L 1159,481 L 1160,482 L 1160,483 L 1159,484 L 1159,485 L 1158,486 L 1158,487 L 1156,489 L 1156,490 L 1154,492 L 1153,492 L 1151,494 L 1145,494 L 1141,490 L 1141,482 L 1142,481 L 1142,480 L 1146,476 L 1147,476 L 1148,477 L 1147,476 Z M 1065,459 L 1066,460 L 1066,461 L 1067,462 L 1067,464 L 1068,465 L 1068,470 L 1067,471 L 1067,472 L 1059,480 L 1057,480 L 1056,479 L 1056,478 L 1055,477 L 1055,476 L 1054,475 L 1054,474 L 1053,473 L 1053,472 L 1052,471 L 1052,469 L 1053,468 L 1054,468 L 1053,468 L 1052,467 L 1053,466 L 1054,466 L 1055,465 L 1056,465 L 1059,462 L 1060,462 L 1063,459 Z M 1030,443 L 1031,444 L 1031,455 L 1030,456 L 1029,455 L 1029,444 Z M 1187,439 L 1188,440 L 1188,459 L 1187,460 L 1186,459 L 1186,440 Z M 1100,438 L 1101,438 L 1102,437 L 1104,437 L 1105,436 L 1111,436 L 1112,437 L 1114,437 L 1115,438 L 1116,438 L 1122,444 L 1122,446 L 1121,447 L 1121,449 L 1121,447 L 1122,446 L 1123,447 L 1123,453 L 1122,454 L 1122,456 L 1120,458 L 1120,459 L 1118,461 L 1117,461 L 1116,460 L 1117,461 L 1115,463 L 1113,463 L 1112,464 L 1105,464 L 1104,463 L 1102,463 L 1100,461 L 1099,461 L 1096,458 L 1096,457 L 1095,456 L 1095,455 L 1094,454 L 1094,446 L 1095,445 L 1095,444 L 1096,443 L 1096,442 Z M 1055,422 L 1059,426 L 1059,427 L 1060,428 L 1061,428 L 1063,430 L 1064,430 L 1067,433 L 1067,434 L 1066,435 L 1066,436 L 1065,437 L 1065,438 L 1064,439 L 1063,439 L 1062,438 L 1060,438 L 1059,437 L 1054,437 L 1053,436 L 1051,436 L 1050,435 L 1050,432 L 1051,431 L 1051,428 L 1052,427 L 1053,428 L 1053,429 L 1054,428 L 1056,428 L 1055,427 L 1054,427 L 1053,428 L 1052,427 L 1052,426 L 1053,425 L 1053,424 Z M 1160,420 L 1161,420 L 1164,423 L 1164,424 L 1165,425 L 1165,427 L 1166,428 L 1166,430 L 1167,431 L 1167,432 L 1166,433 L 1165,432 L 1165,433 L 1164,434 L 1161,434 L 1160,433 L 1156,433 L 1155,432 L 1154,432 L 1153,431 L 1153,429 L 1153,430 L 1152,431 L 1151,430 L 1151,428 L 1154,425 L 1155,426 L 1157,426 L 1158,427 L 1159,426 L 1158,426 L 1156,424 Z M 988,416 L 989,417 L 989,421 L 988,422 L 988,423 L 988,422 L 989,421 L 990,422 L 990,424 L 989,425 L 987,425 L 986,424 L 986,421 L 987,420 L 987,417 Z M 992,407 L 993,408 L 992,409 L 992,410 L 991,411 L 991,413 L 990,414 L 990,416 L 989,417 L 988,416 L 988,413 L 989,412 L 989,410 L 990,409 L 990,408 L 991,407 Z M 1143,400 L 1144,400 L 1145,401 L 1143,403 L 1146,403 L 1147,402 L 1148,402 L 1156,410 L 1156,411 L 1157,412 L 1157,414 L 1156,415 L 1155,414 L 1155,413 L 1155,414 L 1156,415 L 1156,417 L 1153,420 L 1152,420 L 1151,421 L 1145,421 L 1144,420 L 1143,420 L 1138,415 L 1138,413 L 1137,412 L 1137,409 L 1138,408 L 1138,406 L 1140,404 L 1140,403 Z M 1094,390 L 1097,390 L 1098,391 L 1099,391 L 1100,392 L 1101,392 L 1103,394 L 1103,395 L 1104,396 L 1104,401 L 1103,402 L 1103,403 L 1102,404 L 1101,403 L 1100,404 L 1101,405 L 1099,407 L 1097,407 L 1096,408 L 1091,408 L 1090,407 L 1089,407 L 1085,403 L 1085,402 L 1084,401 L 1084,398 L 1085,397 L 1085,396 L 1086,395 L 1086,394 L 1087,393 L 1088,393 L 1089,392 L 1090,392 L 1091,391 L 1093,391 Z M 1002,384 L 1003,385 L 1003,386 L 1002,387 L 1002,388 L 1003,389 L 1003,391 L 1002,392 L 1000,392 L 999,393 L 999,394 L 998,395 L 998,396 L 997,397 L 997,398 L 996,399 L 996,400 L 995,401 L 995,402 L 994,403 L 993,402 L 993,400 L 994,399 L 994,398 L 995,397 L 995,396 L 996,395 L 996,394 L 997,393 L 997,392 L 1000,389 L 1000,386 Z M 1099,373 L 1100,372 L 1119,372 L 1120,373 L 1119,374 L 1100,374 Z M 1205,369 L 1208,372 L 1208,375 L 1209,376 L 1207,378 L 1205,376 L 1205,375 L 1206,374 L 1205,373 L 1205,372 L 1204,371 L 1204,370 Z M 1018,363 L 1019,364 L 1015,368 L 1015,369 L 1012,372 L 1012,373 L 1013,374 L 1013,375 L 1011,377 L 1009,377 L 1007,379 L 1006,378 L 1006,377 L 1008,375 L 1009,375 L 1010,374 L 1010,371 L 1012,369 L 1012,368 L 1017,363 Z M 1189,355 L 1190,354 L 1191,354 L 1195,358 L 1195,360 L 1197,362 L 1199,362 L 1204,367 L 1204,368 L 1203,369 L 1198,364 L 1195,364 L 1192,361 L 1193,360 L 1193,359 Z M 925,350 L 926,349 L 926,347 L 927,346 L 937,346 L 938,347 L 938,349 L 936,351 L 926,351 Z M 1047,342 L 1045,344 L 1044,344 L 1042,346 L 1041,346 L 1039,348 L 1039,349 L 1040,350 L 1039,351 L 1038,351 L 1036,353 L 1035,353 L 1034,352 L 1033,352 L 1031,354 L 1030,354 L 1026,358 L 1025,358 L 1024,359 L 1024,361 L 1025,362 L 1022,365 L 1021,364 L 1019,364 L 1018,363 L 1019,362 L 1020,362 L 1022,360 L 1022,358 L 1026,354 L 1027,354 L 1029,352 L 1030,352 L 1032,350 L 1033,350 L 1034,349 L 1036,349 L 1036,348 L 1037,347 L 1037,346 L 1038,345 L 1039,345 L 1041,343 L 1042,343 L 1043,342 L 1044,342 L 1045,341 L 1046,341 Z M 1165,339 L 1166,338 L 1167,338 L 1168,339 L 1168,340 L 1169,341 L 1173,341 L 1174,342 L 1175,342 L 1177,344 L 1178,344 L 1182,348 L 1182,349 L 1183,350 L 1183,351 L 1184,352 L 1184,353 L 1183,354 L 1179,350 L 1180,349 L 1178,347 L 1177,347 L 1175,345 L 1174,345 L 1172,343 L 1170,343 L 1169,344 L 1168,344 L 1167,343 L 1166,343 L 1165,342 Z M 1057,337 L 1056,338 L 1055,338 L 1054,339 L 1053,339 L 1052,340 L 1053,341 L 1051,343 L 1049,343 L 1048,342 L 1047,342 L 1046,341 L 1047,340 L 1048,340 L 1049,339 L 1050,339 L 1050,338 L 1051,337 L 1053,337 L 1054,336 L 1056,336 Z M 947,338 L 946,339 L 944,339 L 943,340 L 942,340 L 940,342 L 928,342 L 927,341 L 929,339 L 929,338 L 930,337 L 938,337 L 939,336 L 944,336 L 945,337 L 946,337 Z M 1136,328 L 1137,327 L 1140,327 L 1141,328 L 1143,328 L 1144,329 L 1146,329 L 1147,330 L 1149,330 L 1150,331 L 1151,331 L 1152,332 L 1152,334 L 1153,334 L 1154,335 L 1153,336 L 1150,336 L 1149,335 L 1149,333 L 1148,332 L 1146,332 L 1145,331 L 1142,331 L 1141,330 L 1139,330 L 1138,329 L 1137,329 Z M 928,328 L 927,329 L 925,329 L 924,330 L 923,329 L 922,329 L 923,330 L 922,331 L 908,331 L 907,332 L 900,332 L 899,333 L 896,333 L 895,332 L 879,332 L 879,334 L 880,335 L 879,336 L 878,336 L 877,335 L 877,330 L 878,329 L 890,329 L 891,328 L 913,328 L 914,327 L 927,327 Z M 1061,334 L 1062,333 L 1064,333 L 1065,334 L 1064,333 L 1066,331 L 1067,331 L 1068,330 L 1070,330 L 1071,329 L 1073,329 L 1074,328 L 1076,328 L 1077,327 L 1080,327 L 1081,328 L 1082,328 L 1084,326 L 1086,326 L 1087,325 L 1092,325 L 1093,324 L 1097,324 L 1098,325 L 1101,325 L 1102,324 L 1116,324 L 1117,325 L 1118,324 L 1123,324 L 1124,325 L 1130,325 L 1131,326 L 1132,326 L 1133,327 L 1132,328 L 1130,328 L 1129,327 L 1123,327 L 1122,326 L 1119,326 L 1119,327 L 1118,328 L 1115,328 L 1113,326 L 1103,326 L 1103,327 L 1102,328 L 1098,328 L 1096,326 L 1095,326 L 1094,327 L 1088,327 L 1087,328 L 1085,328 L 1085,330 L 1084,331 L 1081,331 L 1079,329 L 1078,330 L 1075,330 L 1074,331 L 1072,331 L 1071,332 L 1069,332 L 1068,333 L 1067,333 L 1067,335 L 1066,336 L 1065,336 L 1064,337 L 1063,336 L 1063,335 L 1062,335 Z M 1284,313 L 1284,322 L 1285,323 L 1284,324 L 1278,324 L 1277,325 L 1275,325 L 1275,326 L 1274,327 L 1264,327 L 1263,328 L 1242,328 L 1241,329 L 1222,329 L 1221,330 L 1220,329 L 1220,322 L 1219,321 L 1219,317 L 1220,316 L 1226,316 L 1227,315 L 1244,315 L 1245,314 L 1263,314 L 1264,313 L 1281,313 L 1282,312 L 1283,312 Z M 1376,308 L 1377,307 L 1378,308 L 1388,308 L 1389,309 L 1389,313 L 1386,316 L 1384,316 L 1383,315 L 1381,315 L 1379,313 L 1377,313 L 1376,312 Z M 1356,308 L 1355,309 L 1355,310 L 1354,311 L 1354,312 L 1352,314 L 1352,315 L 1351,316 L 1350,316 L 1348,318 L 1347,318 L 1345,320 L 1345,321 L 1344,322 L 1341,322 L 1340,321 L 1341,320 L 1339,320 L 1339,321 L 1337,323 L 1336,323 L 1335,322 L 1335,311 L 1336,310 L 1338,310 L 1340,308 L 1344,308 L 1345,307 L 1355,307 Z M 962,304 L 960,306 L 960,310 L 959,311 L 952,311 L 951,312 L 946,312 L 945,313 L 926,313 L 925,312 L 925,306 L 926,305 L 929,305 L 930,304 L 950,304 L 951,303 L 961,303 Z M 1298,271 L 1298,277 L 1297,278 L 1296,278 L 1295,277 L 1290,277 L 1295,277 L 1296,278 L 1295,279 L 1283,279 L 1282,280 L 1264,280 L 1263,281 L 1245,281 L 1244,282 L 1224,282 L 1223,283 L 1203,283 L 1202,284 L 1201,283 L 1195,283 L 1194,284 L 1183,284 L 1182,285 L 1168,285 L 1167,286 L 1160,286 L 1159,285 L 1159,283 L 1158,282 L 1158,279 L 1159,278 L 1164,278 L 1159,278 L 1158,279 L 1157,278 L 1157,277 L 1158,276 L 1172,276 L 1173,275 L 1189,275 L 1190,274 L 1205,274 L 1206,273 L 1226,273 L 1227,272 L 1243,272 L 1244,271 L 1261,271 L 1262,270 L 1280,270 L 1281,269 L 1288,269 L 1289,270 L 1292,270 L 1293,269 L 1296,269 Z M 1391,263 L 1392,264 L 1392,268 L 1391,269 L 1387,269 L 1386,268 L 1387,267 L 1387,266 L 1389,264 L 1390,264 Z M 1093,257 L 1094,258 L 1094,260 L 1095,261 L 1095,263 L 1096,264 L 1096,267 L 1097,268 L 1097,270 L 1098,271 L 1098,273 L 1099,274 L 1099,278 L 1100,279 L 1101,279 L 1102,280 L 1102,284 L 1103,285 L 1103,287 L 1104,288 L 1103,289 L 1087,289 L 1086,288 L 1087,287 L 1091,287 L 1087,287 L 1086,288 L 1085,287 L 1085,285 L 1084,284 L 1084,281 L 1085,280 L 1090,280 L 1091,279 L 1097,279 L 1097,275 L 1096,274 L 1096,272 L 1095,271 L 1095,269 L 1094,268 L 1094,265 L 1093,264 L 1093,262 L 1092,261 L 1092,258 Z M 1382,254 L 1382,256 L 1381,257 L 1380,256 L 1380,255 L 1376,255 L 1376,256 L 1380,256 L 1381,257 L 1381,258 L 1380,259 L 1380,260 L 1379,261 L 1379,262 L 1377,264 L 1377,265 L 1376,266 L 1374,266 L 1373,267 L 1372,267 L 1370,269 L 1370,270 L 1368,272 L 1368,273 L 1367,274 L 1367,276 L 1365,278 L 1349,278 L 1348,279 L 1338,279 L 1336,277 L 1334,277 L 1333,276 L 1325,276 L 1324,277 L 1318,277 L 1317,276 L 1317,269 L 1318,268 L 1326,268 L 1327,267 L 1331,267 L 1332,266 L 1335,266 L 1336,265 L 1337,265 L 1338,264 L 1355,264 L 1356,265 L 1356,266 L 1357,267 L 1357,270 L 1358,271 L 1358,273 L 1365,273 L 1366,272 L 1366,269 L 1364,267 L 1364,266 L 1363,265 L 1364,264 L 1363,265 L 1361,263 L 1362,262 L 1364,262 L 1365,261 L 1366,261 L 1367,260 L 1367,259 L 1369,257 L 1374,257 L 1374,254 L 1375,253 L 1381,253 Z M 2022,247 L 2023,248 L 2023,254 L 2024,255 L 2024,267 L 2023,268 L 2014,268 L 2013,269 L 2003,269 L 2002,268 L 2002,267 L 2001,266 L 2001,249 L 2002,248 L 2016,248 L 2017,247 Z M 2065,244 L 2066,245 L 2066,246 L 2067,247 L 2067,266 L 2066,267 L 2052,267 L 2051,268 L 2045,268 L 2043,266 L 2043,256 L 2042,255 L 2042,247 L 2044,245 L 2058,245 L 2059,244 Z M 1070,238 L 1072,236 L 1073,236 L 1074,237 L 1080,237 L 1081,238 L 1087,238 L 1088,239 L 1088,240 L 1090,242 L 1090,243 L 1091,244 L 1091,246 L 1092,247 L 1092,249 L 1093,250 L 1092,251 L 1092,253 L 1093,254 L 1093,257 L 1092,258 L 1091,257 L 1091,255 L 1090,254 L 1090,252 L 1088,252 L 1087,253 L 1085,253 L 1084,254 L 1078,254 L 1076,256 L 1075,255 L 1075,253 L 1074,252 L 1074,250 L 1073,249 L 1073,246 L 1072,245 L 1072,243 L 1071,242 L 1071,239 Z" fill="black" fill-rule="evenodd"/>
</svg>