<?xml version="1.0" encoding="UTF-8" standalone="no"?>
<svg
   width="900"
   height="250"
   viewBox="0 0 900 250"
   version="1.1"
   id="svg1"
   sodipodi:docname="zis2_57mm_cannon_black.svg"
   inkscape:version="1.4.2 (f4327f4, 2025-05-13)"
   xmlns:inkscape="http://www.inkscape.org/namespaces/inkscape"
   xmlns:sodipodi="http://sodipodi.sourceforge.net/DTD/sodipodi-0.dtd"
   xmlns="http://www.w3.org/2000/svg"
   xmlns:svg="http://www.w3.org/2000/svg">
  <defs
     id="defs1" />
  <sodipodi:namedview
     id="namedview1"
     pagecolor="#ffffff"
     bordercolor="#000000"
     borderopacity="0.25"
     inkscape:showpageshadow="2"
     inkscape:pageopacity="0.0"
     inkscape:pagecheckerboard="0"
     inkscape:deskcolor="#d1d1d1"
     inkscape:zoom="0.39327118"
     inkscape:cx="401.7584"
     inkscape:cy="212.32169"
     inkscape:window-width="2560"
     inkscape:window-height="1377"
     inkscape:window-x="-8"
     inkscape:window-y="-8"
     inkscape:window-maximized="1"
     inkscape:current-layer="svg1" />
  <path
     d="m 32.77283,194.03946 4.622008,3.36146 8.403649,-4.20182 21.009124,1.26055 v 3.36146 l 16.807295,4.62201 0.840371,7.1431 -4.622005,5.46237 5.042183,0.42018 28.572415,-21.00912 283.62318,-34.03478 16.38712,3.78163 1.68073,-11.76511 1.26056,25.21095 11.34493,20.58895 22.26967,14.70638 23.95039,2.10092 22.68987,-8.82383 17.22747,-20.58895 4.62201,-27.73204 -8.82384,-23.95041 4.62202,1.26056 1.26054,-9.6642 76.47322,-0.84038 9.6642,-3.78163 1.68073,-8.82384 -10.08438,-3.36145 -1.68073,-6.72293 228.57928,-12.605464 55.88428,2.100909 2.94127,-13.025662 -2.10092,-6.302735 -60.50628,6.302735 -225.21781,11.344935 -0.42019,-16.807312 -9.66419,3.781649 -32.35405,-4.201828 -65.12829,5.462376 -10.50456,-24.370597 -63.86775,-12.605468 -2.94128,5.882555 10.50456,35.295339 -5.46236,2.941277 4.20182,10.504564 -26.47149,4.201828 -5.46238,-5.042203 -10.08438,-1.260545 -26.89168,6.302748 1.68073,7.143089 13.44584,-0.84036 4.62201,5.04219 0.42019,7.1431 -5.46238,4.62201 -13.86604,1.68072 2.52111,9.66421 54.62373,-1.68073 -1.26056,7.98346 -40.33751,1.68073 -26.89168,6.72293 -5.46238,-9.66421 -10.92473,8.82383 -19.32839,0.4202 -2.10093,5.88255 -161.35008,21.00912 -4.622,-3.78165 -8.40365,1.68074 -0.42018,3.78164 -31.933878,4.20183 -7.143105,-11.76511 -16.387116,4.62201 -1.680728,9.244 -4.201828,2.52111 -7.143103,-3.78165 -7.143102,5.46237 -10.924745,-2.94128 z m 429.00634,1.68074 0.42017,-0.4202 h 8.82384 l 0.42018,0.4202 -0.42018,0.42018 h -8.82384 z M 38.655385,187.73672 h 1.68073 l 0.420183,0.42018 h 0.420182 l 0.840365,0.84037 -0.840365,0.84037 v 1.26054 l 0.420182,0.42019 v 0.84036 l 0.420183,0.42019 v 0.42018 l -0.420183,0.42018 H 41.17648 l -0.420182,0.42018 h -2.941279 l -0.840364,-0.84036 v -0.42018 l -0.420182,-0.42019 v -0.42018 l -0.420183,-0.42018 v -0.84036 l 0.420183,-0.42019 v -0.84037 l 0.840365,-0.84035 0.420181,0.42017 0.420183,-0.42017 h 1.68073 -1.260547 l -0.420183,-0.4202 z m 419.762325,-3.78163 2.1009,-2.10092 h 0.84038 l 0.42018,-0.42018 h 1.26055 l 0.42018,0.42018 h 0.84036 l 0.42018,0.42018 h 0.42018 l 1.26055,1.26054 v 0.4202 l 0.42018,0.42018 v 1.26054 l 0.42019,0.42019 v 0.84037 l 0.42019,0.42017 v 0.84036 l -0.84038,0.84037 h -0.42018 L 465.981,188.5771 h -5.0422 l -0.42019,-0.4202 h -0.42017 l -1.68073,-1.68072 z M 83.614906,174.71107 v 3.78164 l 0.420193,0.42017 v 0.42019 l -0.420193,0.42019 h -0.420178 l -0.420179,0.42018 h -0.420178 l -0.420193,0.42018 v 0.42019 L 81.514,181.43399 v 0.84036 l -0.420179,0.42019 h -3.36147 l -0.420178,0.42017 h -3.361456 l -0.42018,0.42018 -0.420191,-0.42018 v -0.84036 l -0.420179,-0.42018 v -0.42018 l -0.420179,-0.42018 h -0.84037 l -0.42018,-0.42019 v -2.52109 l -0.420178,-0.42019 0.840358,-0.84035 h 1.260549 l 0.420179,-0.4202 h 2.10092 l 0.420179,-0.42018 h 1.260549 l 0.420179,-0.42018 h 1.260549 l 0.420179,-0.42017 h 1.680727 l 0.420193,0.42017 h 1.680728 -1.680728 l -0.420193,-0.42017 0.420193,-0.42019 h 1.26055 l 0.420178,-0.42018 h 0.420179 z M 483.20847,173.8707 h 2.5211 l 0.42017,0.42019 h 0.4202 l 1.26055,1.26054 v 0.84036 l 0.42017,0.4202 v 0.42017 l -0.42017,0.42018 v 0.42019 l -0.42019,0.42018 v 0.42017 l -0.84036,0.84038 v 0.42018 l -0.84037,0.84037 h -0.42018 l -0.84037,0.84036 h -2.52108 l -1.68075,-1.68073 v -3.36145 l 0.42019,-0.4202 v -0.42018 l 1.68073,-1.68072 h 0.42018 l 0.42018,0.42018 -0.42018,-0.42018 z m -34.87514,-6.72293 0.42017,0.4202 v 0.42018 l 0.42019,0.42018 v 0.84036 l 0.42019,0.42019 v 2.1009 l -0.42019,0.4202 v 0.42018 l -3.36146,3.36145 h -0.84036 l -0.42019,-0.42018 v -0.42017 l -0.42017,-0.42019 v -0.42018 l -0.42019,-0.42019 v -0.42018 l -0.42019,-0.42019 v -0.42017 l -0.42018,-0.42018 v -0.84038 l 0.42018,-0.42017 h 0.42019 -0.42019 l -0.42018,-0.42018 0.42018,-0.42019 h 0.42019 l 0.42019,-0.42018 h 0.42017 l 1.26055,-1.26055 h 0.42017 l 1.26056,-1.26056 z m -14.70639,-6.7229 0.42018,0.42018 v 4.622 l -0.42018,0.42018 -0.42018,-0.42018 v -4.622 z m 65.96866,-1.68073 0.42017,0.42018 v 7.98345 l -0.42017,0.4202 -0.42019,-0.4202 v -7.98345 z m -36.55588,-0.42019 h 0.42018 l 0.42018,-0.42018 h 0.84036 l 0.42018,-0.42019 h 2.52111 l 0.42017,0.42019 h 0.84037 l 0.42018,0.42018 h 0.42018 l 2.52109,2.5211 v 0.84036 l -0.42017,0.42018 v 0.84037 -0.84037 l 0.42017,-0.42018 0.42019,0.42018 v 2.52111 l -0.42019,0.42018 v 0.84035 l -0.84036,0.84037 v 0.42017 l -0.84036,0.84038 h -0.42017 l -0.4202,-0.42018 0.4202,0.42018 -0.84038,0.84036 h -0.84037 l -0.42018,0.42018 h -2.94128 l -0.42018,-0.42018 h -0.84036 l -0.84036,-0.84036 h -0.42019 l -1.26054,-1.26055 v -0.42018 l -0.42019,-0.42019 v -0.42018 l -0.42019,-0.42017 v -3.36147 l 0.42019,-0.42019 v -0.42017 l 0.42019,-0.42018 v -0.4202 z m -18.90821,-6.72292 1.68072,1.68074 v 0.42017 l 0.42017,0.42018 h 0.4202 l 0.84036,0.84037 h 0.42019 l 1.26054,1.26055 v 0.42018 l -0.42019,0.42017 v 0.42019 l -0.42017,0.42019 v 0.42018 l -0.42018,0.42019 h -0.42019 l -0.42018,-0.42019 h -0.84038 l -0.42017,-0.42018 h -2.10091 l -0.42019,-0.42019 h -0.84035 l -0.42018,-0.42019 v -1.26053 l 0.42018,-0.4202 v -1.26054 l 0.42017,-0.42018 0.42018,0.42018 v 0.42019 l 0.42019,-0.42019 h 0.84036 l -0.42017,-0.42018 h -0.42019 l -0.42019,0.42018 -0.42018,-0.42018 v -0.42017 l 0.42018,-0.42018 v -0.4202 z m 44.11915,-0.84036 h 0.42018 l 1.26055,1.26054 v 0.42018 l 0.42018,0.4202 v 0.84035 l 0.42019,0.42018 v 0.84037 l 0.42019,0.42017 v 0.4202 l -0.42019,0.42018 -0.42019,-0.42018 v 0.42018 l -0.42018,0.42018 h -1.26055 l -0.42018,-0.42018 h -1.68072 l -0.4202,-0.42018 h -0.42017 l -0.42018,-0.4202 v -0.84035 0.42018 l -0.42018,0.42017 -0.42019,-0.42017 v -0.84037 l 1.26055,-1.26053 0.42017,0.42018 h 0.84038 l 0.42018,0.42017 0.42019,-0.42017 h -0.42019 l -0.84036,-0.84038 z m -72.27138,-1.68073 0.42018,0.42017 v 1.68073 l -0.42018,0.42019 v 0.42018 -0.42018 l 0.42018,-0.42019 0.42017,0.42019 v 0.84036 l -0.42017,0.4202 h -0.84037 l -0.42019,-0.4202 v -1.26055 l 0.42019,-0.42017 v -1.26056 z m 1.68072,-3.78166 0.42018,0.42019 -0.42018,0.42019 v 0.42018 l -0.42018,0.42019 v 0.84035 l -0.42019,0.42018 v 0.84038 l -0.42017,0.42017 -0.42018,-0.42017 v -1.26056 l 0.42018,-0.42017 v -0.84037 l 0.42017,-0.42018 v -0.42019 l 0.42019,-0.42019 z m 63.44756,-2.94127 h 0.42018 l 0.4202,0.42019 -0.84038,0.84035 h 1.26055 l 0.42018,-0.42017 h 0.42018 l 3.36147,3.36146 v 0.42019 l 0.42018,0.42018 v 0.84035 l -0.42018,0.4202 -0.4202,-0.4202 v -0.42018 0.42018 l 0.4202,0.4202 v 0.84035 l -1.26055,1.26056 h -0.42018 l -0.42019,0.42017 h -2.52108 l -0.4202,-0.42017 h -0.42018 l -2.10091,-2.10091 v -0.84038 l -0.42019,-0.42017 v -1.26055 l 0.42019,-0.42019 v -0.84036 l 0.84036,-0.84036 v -0.4202 z m -20.58895,-4.20182 h 1.26056 l 0.42017,0.42018 h 0.42019 l 0.42019,0.42019 h 0.42018 l 0.84036,0.84036 v 0.42018 l 0.42018,0.42018 v 2.10092 l -0.42018,0.42018 v 0.42017 l -0.42018,0.4202 -0.42018,-0.4202 -0.42018,0.4202 0.42018,0.42018 -0.84037,0.84035 h -0.84036 l -0.42018,0.42019 h -2.10092 l -0.42018,-0.42019 h -0.42018 l -1.68073,-1.68073 v -0.42017 l -0.42019,-0.42018 v -1.26054 l 0.42019,-0.42018 v -0.4202 l 0.42018,-0.42018 v -0.42018 l 0.42018,-0.42019 h 0.42018 l 0.42019,-0.42017 h 0.42018 l 0.42018,-0.42019 h 0.84037 z m -38.65678,-2.5211 0.42018,0.42018 v 0.42018 l -0.42018,0.4202 v 0.42018 l 0.42018,0.42017 v 0.84037 l -0.42018,0.42019 h -0.84037 l -0.42017,0.42017 v 0.42019 l -0.42019,0.42018 v 0.42018 l -0.42019,0.4202 v 0.42018 l -0.42018,0.42017 v 0.42018 l -0.42018,0.42019 v 0.42018 l -0.42017,0.42017 -0.4202,-0.42017 v -0.84037 l 0.4202,-0.42018 v -0.42017 l 0.42017,-0.42018 v -0.4202 l 0.42018,-0.42018 v -0.42018 l 0.42018,-0.42019 v -0.42017 l 1.26055,-1.26056 v -1.26055 z m 40.7577,-4.622 0.42019,-0.42019 h 7.98346 l 0.42018,0.42019 -0.42018,0.42018 h -7.98346 z m 44.53935,-1.68072 1.26055,1.26053 v 1.26054 l 0.42018,0.4202 -0.84037,0.84036 -0.84036,-0.84036 v -0.4202 l 0.42017,-0.42017 -0.42017,-0.42018 v -0.42019 l -0.42019,-0.42018 v -0.42018 z m -78.57414,-2.52111 0.42019,0.42019 -1.68073,1.68072 v 0.4202 l -1.26054,1.26053 v 0.42019 l 0.42018,0.42018 v 0.42017 l -0.84037,0.84038 h -0.84037 l -0.84036,0.84035 -0.42018,-0.42017 v -0.42018 l 0.84037,-0.84038 h 0.42017 l 0.42018,-0.42017 v -1.26055 l 0.84038,-0.84035 v -0.4202 l 2.10091,-2.10091 z m 71.85121,-3.36145 0.42019,-0.42019 h 0.42019 l 1.68073,1.68072 v 0.84038 l 0.84035,0.84036 h 0.84037 l 2.10091,2.10091 v 0.42018 l -0.42018,0.4202 -2.10091,-2.10092 h -1.26054 l -1.26056,-1.26056 0.42018,-0.42017 v -0.42018 z m -110.92818,-2.10092 0.42018,-0.42018 v -0.84038 l 0.42019,-0.42017 h 4.20182 l 0.4202,0.42017 v 0.84038 l -0.84038,0.84035 h -4.20183 z m 51.26227,-3.36146 -0.84036,0.84036 h -0.42018 l -0.84038,0.84037 h -0.42017 l -0.84037,0.84037 v 0.42018 l 0.42019,0.42018 -0.42019,0.42017 h -0.42019 l -0.84035,0.84038 h -0.42019 l -0.42018,-0.42019 h -0.42018 l -0.84037,0.84037 h -0.42018 l -1.68073,1.68072 h -0.42019 l -0.42018,0.4202 v 0.84035 l 0.42018,0.42019 -1.26053,1.26054 -0.4202,-0.42017 h -0.84036 l -0.42019,-0.42019 0.42019,-0.42018 h 0.42018 l 0.84038,-0.84036 v -0.84038 l 1.68072,-1.68072 h 0.42019 l 0.84036,-0.84037 h 0.42018 l 0.84035,-0.84036 h 0.4202 l 0.42018,-0.42018 h 0.84037 v -0.42018 l 0.42018,-0.4202 v -0.42017 l 0.42017,-0.42018 h 0.42019 l 0.84037,-0.84037 h 0.42017 l 0.42019,-0.42018 h 0.42019 l 0.42018,-0.42017 h 0.42017 z m 49.58153,-1.26055 0.42019,-0.42018 h 0.42019 l 0.42018,0.42018 v 0.42018 l 0.42017,0.4202 h 1.68075 l 0.42017,0.42017 h 0.42018 l 0.84037,0.84036 h 0.42017 l 1.68074,1.68074 v 0.42018 l 0.42017,0.42018 v 0.42017 l 0.4202,0.42019 v 0.42019 l -0.4202,0.42018 -1.68072,-1.68073 0.42019,-0.42018 -0.84038,-0.84038 h -0.42017 l -0.84037,-0.84035 h -0.42018 l -0.84037,-0.84037 h -0.84036 l -0.42019,0.42018 h -0.42017 l -0.42018,-0.42018 h -0.42019 l -0.42019,-0.42018 z m -45.3797,-0.84037 -0.42019,0.42019 h -0.42017 l -0.42019,0.42018 h -0.42019 l -0.42018,0.42018 0.42018,0.4202 -0.84035,0.84035 h -0.84038 l -0.42018,-0.42018 h -0.42018 l -0.42019,-0.42017 0.42019,-0.4202 h 0.42018 l 0.42018,-0.42018 h 0.4202 v -0.42018 l 0.42018,-0.42019 h 0.84035 l 0.42019,-0.42017 h 0.84036 z m -46.22008,0.42019 -0.42018,0.42018 h -0.84037 l -0.42019,0.42018 h -0.42017 l -0.84037,0.84037 h -5.04218 l -0.42019,-0.42017 0.84036,-0.84038 v -0.42018 l 0.42018,-0.42019 h 3.36148 l 0.42017,-0.42017 h 2.10091 l 0.42019,0.42017 h 0.42018 z m 79.41449,-4.20183 0.42018,-0.42017 h 1.26055 l 0.42018,0.42017 h 0.84037 l 0.42018,0.42018 h 0.84037 l 0.42018,0.42018 h 0.84037 l 0.42017,0.4202 h 0.42019 l 0.42019,0.42018 v 0.84036 h 0.42018 l 0.42018,0.42018 -0.42018,0.42019 h -1.26056 l -0.42017,-0.42019 v -0.84037 l -0.42019,-0.42017 h -0.84036 l -0.42017,-0.42018 h -1.26056 l -0.42019,-0.4202 h -0.84035 l -0.42019,-0.42018 h -0.42019 z m -87.39795,0 -0.42019,0.42018 h -0.84037 l -0.42017,0.42018 -0.42019,-0.42018 h -0.42018 l 0.42018,0.42018 -0.42018,0.4202 h -5.88256 l -0.42018,0.42018 h -2.94127 l -0.42018,0.42017 h -1.26055 l -0.42019,-0.42017 h -6.72292 v 0.84036 l 0.42018,0.42018 -0.42018,0.42019 h -0.42018 l -0.42019,-0.42019 v -2.10092 l 0.42019,-0.42018 h 5.04219 l 0.42017,-0.42018 h 9.24403 l 0.42018,-0.42017 h 5.46237 z m 55.88427,2.5211 0.42018,-0.42019 h 0.84037 l 0.42018,0.42019 -0.42018,-0.42019 0.84035,-0.84035 h 0.42019 l 0.42019,-0.4202 h 0.84035 l 0.42019,-0.42018 h 0.84037 l 0.42017,-0.42018 h 0.84037 l 0.42018,-0.42017 h 1.26055 l 0.42018,0.42017 h 0.42019 l 0.84036,-0.84036 h 0.84037 l 0.42018,-0.42018 h 2.10092 l 0.42018,-0.42019 h 1.68073 l 0.42017,0.42019 h 1.26056 l 0.42018,-0.42019 h 5.88255 l 0.4202,0.42019 0.42017,-0.42019 h 2.10091 l 0.42019,0.42019 h 2.52109 l 0.42019,0.42018 h 0.42017 l 0.42018,0.42019 -0.42018,0.42017 h -0.84036 l -0.42018,-0.42017 h -2.5211 l -0.42019,-0.42019 h -1.26054 v 0.42019 l -0.42018,0.42017 h -1.26055 l -0.84037,-0.84036 h -4.20182 v 0.42019 l -0.42018,0.42017 h -1.68074 l -0.84035,-0.84036 h -0.42019 l -0.42019,0.42019 h -2.52109 l -0.42018,0.42017 h -0.84036 v 0.84036 l -0.42019,0.4202 h -1.26055 l -0.84035,-0.84038 -0.42018,0.42018 h -1.26056 l -0.42019,0.4202 h -0.84035 l -0.42019,0.42018 h -0.84036 l -0.42018,0.42017 h -0.42019 v 0.84037 l -0.42019,0.42019 h -0.42017 l -0.42018,0.42017 -0.42019,-0.42017 v -0.42019 h -0.42018 z m 93.70069,-8.82382 v 3.78163 l 0.4202,0.42017 -0.4202,0.42019 h -2.52109 l -0.42019,0.42019 h -0.84035 v 0.42018 l -0.42019,0.42019 h -4.20182 l -0.42019,0.42017 h -8.82383 l -0.42018,0.42018 h -7.98347 l -0.42019,0.42018 -0.42017,-0.42018 v -2.94127 l -0.42018,-0.42018 v -1.68073 l 0.42018,-0.42019 h 2.52109 l 0.42018,-0.42018 h 7.1431 l 0.42018,-0.42018 h 7.56329 l 0.42019,-0.42017 h 7.14309 l 0.42019,-0.4202 h 0.42018 z m 38.65679,-2.10092 0.42019,-0.42019 0.42018,0.42019 h 4.20183 l 0.42018,0.42017 v 1.68075 l -1.26056,1.26053 h -0.84035 l -0.42019,-0.42018 H 581.111 l -0.84037,-0.84035 h -0.84036 l -0.42019,-0.4202 z m -8.40364,0 -0.42019,0.42017 v 0.42019 l -0.42018,0.42018 v 0.42018 l -0.84035,0.84037 v 0.42018 l -0.4202,0.42018 h -0.42018 l -0.84037,0.84036 h -0.42019 l -0.84035,0.84038 v 0.42018 l -0.42019,0.42018 h -1.26055 l -0.42018,-0.42018 0.42018,-0.42018 h -0.84036 v 0.42018 l -0.84036,0.84035 h -0.42018 l -0.42019,-0.42017 v -4.62201 l 0.42019,-0.42018 h 0.84036 l 0.84036,-0.84036 h 1.68073 l 0.42019,-0.42019 h 4.20182 z m -165.55192,-1.68074 -0.84035,0.84037 v 1.68073 l -0.42019,0.42018 h -2.94127 l -0.42019,0.42018 h -2.10091 l -0.42018,0.4202 h -7.98348 l -0.42018,-0.4202 v -2.52109 l 0.42018,-0.42019 h 1.26055 l 0.42018,-0.42018 h 8.40366 l 0.42018,-0.42017 h 4.20183 z M 546.23585,88.153481 v 2.521079 l -0.42018,0.420193 h -0.42019 l -0.42019,-0.420193 h -2.1009 2.1009 l 0.42019,0.420193 -0.42019,0.420182 h -5.04218 l -0.42018,0.420181 h -7.56328 l -0.42019,0.420182 h -7.56329 l -0.42018,0.420182 h -8.40364 l -0.42019,0.420181 h -8.40365 l -0.42018,0.420182 -0.42017,-0.420182 h -2.5211 l -0.42019,0.420182 h -4.62202 l -0.42017,0.420193 h -5.88255 l -0.42018,0.42017 h -2.94129 l -0.42017,-0.42017 V 93.195661 L 487.4103,92.77548 v -1.260545 l 0.42019,-0.420182 h 2.1009 -2.1009 l -0.42019,0.420182 -0.42018,-0.420182 V 90.67456 l 0.42018,-0.420182 h 5.88255 l 0.4202,-0.42017 h 6.7229 l 0.42019,-0.420182 h 6.30274 l 0.42017,-0.420193 h 8.40366 l 0.42018,-0.420182 h 6.72293 l 0.42017,-0.42017 h 7.14311 l 0.42018,-0.420193 h 7.56329 l 0.42017,-0.420182 h 2.94128 l 0.42019,0.420182 h 1.26055 l 0.42018,-0.420182 h 1.26054 z m 39.07697,-3.361475 0.42019,0.420193 v 1.680726 l -0.42019,0.420181 h -1.68072 l -0.4202,-0.420181 0.4202,-0.420182 v -0.420182 l 0.84036,-0.840362 h 0.42017 z m -125.21438,-2.521084 0.42017,0.420178 v 0.840371 l 0.42019,0.420178 v 0.840357 l 0.42019,0.420193 v 1.260544 l 0.42018,0.420182 v 0.840363 l 0.42017,0.420193 v 0.840352 l 0.42019,0.420193 v 1.680727 l 0.42019,0.420182 h 0.42018 l 0.42018,0.420181 v 1.680727 l 0.42018,0.420193 v 0.840352 l 0.42018,0.420193 -0.42018,0.420182 h -6.72292 l -0.42018,-0.420182 0.42018,-0.420193 h 1.68073 -1.68073 l -0.42018,0.420193 -0.42018,-0.420193 v -0.840352 l -0.42019,-0.420193 v -1.260545 l 0.42019,-0.420182 h 2.10091 l 0.42018,-0.420181 h 2.5211 v -1.680727 l -0.42018,-0.420182 v -0.840375 l -0.42019,-0.42017 v -0.840375 l -0.42019,-0.420181 v -1.260548 l -0.42017,-0.420178 v -0.840371 l -0.42018,-0.420179 V 82.6911 Z m 121.43274,-1.26055 v 0.840357 l -0.42018,0.420193 -0.42017,-0.420193 V 81.43055 h -1.68075 v 0.420179 h 1.68075 l 0.42017,0.420193 V 82.6911 l -0.42017,0.420178 v 0.420193 l -0.4202,0.420178 v 0.420179 l -0.84036,0.840371 v 0.420178 l -0.42019,0.420184 h -0.84036 l -0.42018,0.420182 h -0.42019 l -0.84035,0.840363 v 0.420182 l -0.84038,0.840363 v 0.420182 l -0.42018,0.420193 v 0.840352 l -0.84036,0.840375 h -6.72292 l -0.42019,0.420182 h -4.20182 l -0.84036,-0.840375 h -0.84038 l -0.42018,-0.420182 h -3.36145 l -0.42019,0.420182 h -2.52109 l -0.42018,-0.420182 v -2.941272 l 0.42018,-0.420181 h 3.36146 l 0.42018,-0.420182 h 1.68074 l 0.42018,-0.420182 h 1.26054 l 0.42019,-0.420184 h 0.42018 l 0.42018,-0.420178 h 7.1431 l 0.42019,0.420178 v 0.420184 l 0.42017,0.420182 v 1.260545 l 0.42018,0.420193 v 0.840352 h 2.94129 l 0.42019,-0.420182 v -1.260545 l -0.84037,-0.840363 v -0.420182 l -0.42019,-0.420184 0.42019,-0.420178 -0.42019,0.420178 -0.84037,-0.840371 0.42018,-0.420178 h 0.84038 l 0.42018,-0.420179 h 0.42019 l 0.42017,-0.420178 v -0.420193 l 0.84036,-0.840356 h 2.10092 v -1.26055 l 0.42017,-0.42018 h 2.52111 z m 268.91681,-2.941279 0.42018,0.42018 v 2.521099 l 0.42017,0.420178 v 5.042193 l -0.42017,0.420182 h -3.78166 l -0.42017,0.420181 h -4.20183 l -0.42018,-0.420181 v -0.420182 l -0.42018,-0.420182 v -7.14311 l 0.42018,-0.420178 h 5.88256 l 0.42018,-0.42018 z m 18.06785,-1.260548 0.42017,0.420178 v 0.420192 l 0.42018,0.420178 v 7.983468 l -0.42018,0.420182 h -5.88256 l -0.42017,0.420182 h -2.5211 l -0.84036,-0.840364 v -4.201832 l -0.4202,-0.420179 v -3.361457 l 0.84038,-0.84037 h 5.88255 l 0.42018,-0.420178 z m -418.08161,-2.521099 0.84038,-0.840358 h 0.42018 l 0.42017,0.420178 h 2.5211 l 0.42018,0.42018 h 2.5211 l 0.42018,0.420192 v 0.420178 l 0.84037,0.840358 v 0.420191 l 0.42018,0.42018 v 0.84037 l 0.42019,0.420178 v 0.840358 l 0.42018,0.420192 -0.42018,0.420179 v 0.84037 l 0.42018,0.42018 v 1.26055 l -0.42018,0.420178 -0.42019,-0.420178 V 81.43055 l -0.42018,-0.420178 v -0.840371 h -0.84037 l -0.42018,0.420191 h -0.84036 l -0.42019,0.42018 h -2.52108 l -0.84038,0.840357 -0.42018,-0.420179 v -0.840358 l -0.42019,-0.420191 v -0.840358 l -0.42017,-0.420192 v -1.260536 l -0.42018,-0.420192 v -0.840358 l -0.42019,-0.420191 v -1.260536 z"
     fill="#000000"
     fill-rule="evenodd"
     id="path1"
     style="stroke-width:0.420183" />
</svg>
