<svg xmlns="http://www.w3.org/2000/svg" width="1672" height="941" viewBox="0 0 1672 941">
<rect width="100%" height="100%" fill="white"/>
<path d="M 1575,205 L 1566,188 L 1547,178 L 1388,169 L 1288,175 L 1204,168 L 1109,176 L 1010,168 L 836,177 L 815,199 L 826,337 L 821,427 L 830,431 L 819,449 L 826,448 L 834,594 L 807,590 L 818,295 L 801,268 L 769,263 L 558,285 L 535,299 L 558,302 L 554,442 L 241,440 L 243,428 L 223,429 L 228,440 L 204,448 L 204,528 L 186,535 L 191,505 L 159,489 L 157,540 L 163,545 L 123,580 L 168,566 L 175,586 L 137,632 L 105,633 L 97,621 L 94,655 L 103,658 L 105,646 L 131,650 L 130,700 L 144,734 L 190,778 L 219,786 L 265,784 L 306,763 L 337,723 L 347,678 L 473,692 L 780,682 L 781,669 L 766,667 L 775,660 L 811,666 L 843,660 L 1099,687 L 1108,726 L 1143,767 L 1187,786 L 1234,784 L 1268,768 L 1293,744 L 1312,707 L 1316,672 L 1380,654 L 1387,632 L 1509,632 L 1536,622 L 1565,630 L 1574,622 L 1574,607 L 1558,597 L 1574,547 L 1575,448 L 1582,449 L 1582,440 L 1571,430 L 1589,424 Z M 514,684 L 514,683 L 515,682 L 560,682 L 561,683 L 560,684 L 546,684 L 545,685 L 531,685 L 530,686 L 516,686 L 515,685 L 516,684 L 525,684 L 516,684 L 515,685 Z M 405,680 L 406,679 L 429,679 L 430,678 L 431,678 L 432,679 L 434,679 L 435,680 L 438,680 L 439,681 L 442,681 L 443,682 L 472,682 L 473,683 L 473,684 L 472,685 L 472,686 L 471,687 L 435,687 L 434,686 L 427,686 L 426,685 L 422,685 L 421,684 L 417,684 L 416,683 L 413,683 L 412,682 L 410,682 L 409,681 L 406,681 Z M 1199,664 L 1201,664 L 1202,663 L 1211,663 L 1212,664 L 1213,664 L 1214,665 L 1215,665 L 1219,669 L 1219,670 L 1220,671 L 1220,673 L 1221,674 L 1221,682 L 1220,683 L 1220,684 L 1219,685 L 1219,686 L 1215,690 L 1214,690 L 1213,691 L 1212,691 L 1211,692 L 1208,692 L 1207,693 L 1205,693 L 1204,692 L 1201,692 L 1200,691 L 1199,691 L 1198,690 L 1197,690 L 1194,687 L 1194,686 L 1195,685 L 1194,686 L 1193,685 L 1193,684 L 1194,683 L 1193,684 L 1192,683 L 1192,682 L 1191,681 L 1191,674 L 1192,673 L 1192,671 L 1195,668 L 1195,667 L 1196,666 L 1197,666 Z M 230,664 L 232,664 L 233,663 L 242,663 L 243,664 L 244,664 L 245,665 L 246,665 L 251,670 L 251,671 L 252,672 L 252,675 L 251,676 L 252,675 L 253,676 L 253,679 L 252,680 L 252,683 L 251,684 L 251,685 L 249,687 L 248,686 L 247,687 L 248,688 L 245,691 L 244,691 L 243,692 L 240,692 L 239,693 L 236,693 L 235,692 L 232,692 L 231,691 L 230,691 L 228,689 L 229,688 L 228,689 L 224,685 L 224,684 L 223,683 L 223,672 L 224,671 L 224,670 Z M 740,663 L 740,667 L 739,668 L 573,668 L 572,667 L 572,664 L 573,663 L 581,663 L 582,664 L 687,664 L 688,665 L 687,666 L 584,666 L 687,666 L 688,665 L 694,666 L 692,666 L 691,665 L 692,664 L 695,664 L 696,665 L 700,665 L 701,664 L 730,664 L 732,662 L 739,662 Z M 920,656 L 921,655 L 922,655 L 923,656 L 929,656 L 930,655 L 931,656 L 933,656 L 934,657 L 933,658 L 921,658 L 920,657 Z M 1048,669 L 1047,670 L 1046,670 L 1045,669 L 1035,669 L 1034,668 L 1024,668 L 1023,667 L 1014,667 L 1013,666 L 1003,666 L 1002,665 L 993,665 L 992,664 L 982,664 L 981,663 L 973,663 L 972,662 L 962,662 L 961,661 L 953,661 L 952,660 L 944,660 L 943,659 L 934,659 L 933,658 L 934,657 L 941,657 L 942,656 L 951,656 L 952,655 L 981,655 L 982,654 L 1018,654 L 1019,653 L 1042,653 L 1043,654 L 1043,656 L 1045,658 L 1045,659 L 1043,661 L 1043,666 L 1044,667 L 1046,667 Z M 1062,659 L 1066,655 L 1066,654 L 1067,653 L 1075,653 L 1076,652 L 1098,652 L 1099,653 L 1099,658 L 1098,659 L 1098,661 L 1100,663 L 1100,667 L 1099,668 L 1098,668 L 1096,670 L 1094,670 L 1093,669 L 1094,668 L 1095,668 L 1094,668 L 1093,669 L 1091,669 L 1090,668 L 1090,667 L 1089,667 L 1088,666 L 1086,666 L 1085,667 L 1079,667 L 1078,666 L 1074,666 L 1073,665 L 1070,665 L 1069,664 L 1065,664 L 1064,663 L 1063,663 L 1062,662 Z M 1235,633 L 1238,636 L 1239,636 L 1247,644 L 1247,645 L 1253,653 L 1253,655 L 1255,658 L 1255,660 L 1257,664 L 1257,668 L 1258,669 L 1258,676 L 1259,677 L 1259,679 L 1258,680 L 1258,686 L 1257,687 L 1257,691 L 1256,692 L 1255,697 L 1251,705 L 1249,707 L 1249,708 L 1237,720 L 1221,728 L 1218,728 L 1217,729 L 1211,729 L 1210,730 L 1202,730 L 1201,729 L 1195,729 L 1194,728 L 1191,728 L 1188,726 L 1186,726 L 1180,723 L 1174,718 L 1173,718 L 1167,712 L 1167,711 L 1161,704 L 1158,698 L 1158,696 L 1157,695 L 1157,693 L 1155,689 L 1155,685 L 1154,684 L 1154,671 L 1155,670 L 1155,666 L 1156,665 L 1156,662 L 1158,659 L 1159,660 L 1159,662 L 1158,663 L 1158,666 L 1157,667 L 1157,673 L 1156,674 L 1156,681 L 1157,682 L 1157,687 L 1158,688 L 1158,691 L 1159,692 L 1159,694 L 1160,695 L 1160,697 L 1162,701 L 1171,713 L 1172,713 L 1176,717 L 1177,717 L 1179,719 L 1180,719 L 1182,721 L 1186,723 L 1188,723 L 1191,725 L 1194,725 L 1195,726 L 1199,726 L 1200,727 L 1213,727 L 1214,726 L 1218,726 L 1219,725 L 1227,723 L 1234,718 L 1235,718 L 1238,715 L 1239,715 L 1248,705 L 1253,695 L 1253,693 L 1254,692 L 1254,689 L 1255,688 L 1255,683 L 1256,682 L 1256,671 L 1255,670 L 1255,666 L 1254,665 L 1252,657 L 1249,653 L 1246,647 L 1243,644 L 1243,643 L 1233,634 Z M 1305,632 L 1306,631 L 1307,632 L 1361,632 L 1362,633 L 1362,637 L 1363,638 L 1363,639 L 1364,640 L 1365,640 L 1366,641 L 1366,645 L 1367,646 L 1365,648 L 1362,648 L 1361,649 L 1358,649 L 1357,650 L 1354,650 L 1353,651 L 1349,651 L 1348,652 L 1345,652 L 1344,653 L 1343,652 L 1343,651 L 1337,651 L 1336,652 L 1336,653 L 1334,655 L 1330,655 L 1329,656 L 1324,656 L 1323,657 L 1317,657 L 1316,658 L 1315,658 L 1314,657 L 1314,656 L 1313,655 L 1313,651 L 1312,650 L 1312,647 L 1311,646 L 1311,645 L 1310,644 L 1308,644 L 1307,643 L 1307,641 L 1306,640 L 1307,639 L 1307,636 L 1306,635 L 1306,634 L 1305,633 Z M 1234,633 L 1233,634 L 1232,634 L 1231,633 L 1230,633 L 1229,632 L 1228,632 L 1227,631 L 1226,631 L 1225,630 L 1223,630 L 1222,629 L 1220,629 L 1219,628 L 1216,628 L 1215,627 L 1198,627 L 1197,628 L 1194,628 L 1193,629 L 1191,629 L 1190,630 L 1188,630 L 1187,631 L 1186,631 L 1185,632 L 1184,632 L 1183,633 L 1182,633 L 1181,634 L 1180,634 L 1177,637 L 1176,637 L 1167,646 L 1167,647 L 1164,650 L 1164,651 L 1163,652 L 1163,653 L 1162,654 L 1162,655 L 1161,656 L 1161,657 L 1160,658 L 1160,659 L 1159,660 L 1158,659 L 1158,657 L 1159,656 L 1159,655 L 1160,654 L 1160,653 L 1161,652 L 1161,651 L 1162,650 L 1162,649 L 1164,647 L 1164,646 L 1175,635 L 1176,635 L 1179,632 L 1180,632 L 1181,631 L 1182,631 L 1183,630 L 1184,630 L 1185,629 L 1186,629 L 1187,628 L 1189,628 L 1190,627 L 1192,627 L 1193,626 L 1196,626 L 1197,625 L 1203,625 L 1204,624 L 1210,624 L 1211,625 L 1216,625 L 1217,626 L 1220,626 L 1221,627 L 1223,627 L 1224,628 L 1226,628 L 1227,629 L 1228,629 L 1229,630 L 1230,630 L 1231,631 L 1232,631 Z M 234,624 L 241,624 L 242,625 L 247,625 L 248,626 L 255,627 L 263,631 L 265,633 L 263,634 L 256,630 L 246,627 L 229,627 L 213,633 L 206,638 L 197,648 L 192,656 L 189,665 L 189,670 L 188,671 L 188,684 L 189,685 L 189,689 L 192,698 L 199,709 L 205,715 L 213,721 L 226,726 L 229,726 L 230,727 L 243,727 L 244,726 L 253,725 L 262,721 L 269,716 L 278,707 L 284,696 L 287,686 L 287,668 L 281,652 L 276,645 L 264,634 L 265,633 L 269,635 L 279,645 L 283,651 L 288,663 L 289,674 L 290,675 L 290,681 L 289,682 L 289,687 L 288,688 L 287,695 L 281,707 L 271,718 L 264,723 L 253,728 L 243,729 L 242,730 L 233,730 L 232,729 L 223,728 L 217,726 L 207,720 L 193,705 L 189,697 L 186,688 L 186,682 L 185,681 L 185,673 L 186,672 L 187,663 L 190,657 L 190,655 L 196,645 L 206,635 L 212,631 L 224,626 L 233,625 Z M 583,612 L 584,611 L 730,611 L 732,613 L 732,622 L 731,623 L 586,623 L 584,621 L 585,620 L 586,620 L 585,620 L 584,619 L 584,617 L 583,616 Z M 1559,604 L 1562,604 L 1563,605 L 1562,606 L 1560,606 L 1562,606 L 1563,605 L 1565,605 L 1567,607 L 1567,608 L 1568,609 L 1568,610 L 1569,611 L 1569,617 L 1568,618 L 1568,619 L 1567,620 L 1567,621 L 1565,623 L 1564,623 L 1563,624 L 1558,624 L 1557,623 L 1558,622 L 1558,605 Z M 1482,548 L 1483,547 L 1532,547 L 1533,548 L 1533,549 L 1535,551 L 1539,551 L 1540,552 L 1540,571 L 1541,571 L 1542,572 L 1543,572 L 1544,573 L 1544,576 L 1543,577 L 1540,577 L 1539,578 L 1537,578 L 1536,579 L 1501,579 L 1499,577 L 1500,576 L 1500,564 L 1499,563 L 1499,562 L 1500,561 L 1500,560 L 1499,559 L 1499,558 L 1498,557 L 1498,556 L 1497,555 L 1496,555 L 1495,554 L 1492,554 L 1491,553 L 1485,553 L 1484,554 L 1483,554 L 1481,552 L 1482,551 L 1483,551 L 1483,549 Z M 1432,552 L 1433,551 L 1433,548 L 1434,547 L 1473,547 L 1474,548 L 1473,549 L 1473,551 L 1474,552 L 1473,553 L 1458,553 L 1457,554 L 1447,554 L 1446,553 L 1433,553 Z M 1345,577 L 1345,573 L 1346,572 L 1349,572 L 1350,571 L 1351,571 L 1351,548 L 1352,547 L 1423,547 L 1424,548 L 1423,549 L 1353,549 L 1421,549 L 1424,552 L 1423,553 L 1415,553 L 1414,554 L 1410,554 L 1407,557 L 1407,558 L 1406,559 L 1406,578 L 1405,579 L 1398,579 L 1397,578 L 1395,578 L 1394,579 L 1350,579 L 1349,578 L 1346,578 Z M 1114,573 L 1119,571 L 1119,548 L 1120,547 L 1302,547 L 1305,549 L 1313,549 L 1315,547 L 1319,547 L 1320,548 L 1320,571 L 1325,573 L 1325,578 L 1324,579 L 1323,578 L 1310,578 L 1309,577 L 1309,573 L 1311,569 L 1311,566 L 1309,564 L 1307,564 L 1303,567 L 1303,569 L 1304,570 L 1304,572 L 1303,573 L 1301,573 L 1300,574 L 1299,573 L 1298,574 L 1291,574 L 1289,579 L 1260,579 L 1266,583 L 1262,585 L 1258,582 L 1258,580 L 1256,578 L 1252,577 L 1247,574 L 1245,574 L 1244,573 L 1241,575 L 1239,573 L 1241,572 L 1239,572 L 1238,574 L 1236,570 L 1233,570 L 1229,568 L 1221,568 L 1220,570 L 1216,570 L 1215,568 L 1212,566 L 1200,566 L 1198,567 L 1196,570 L 1192,570 L 1191,568 L 1184,568 L 1180,570 L 1177,570 L 1174,574 L 1172,574 L 1171,575 L 1170,573 L 1168,573 L 1165,575 L 1163,575 L 1157,578 L 1155,580 L 1155,582 L 1154,583 L 1153,581 L 1151,580 L 1152,579 L 1120,579 L 1119,578 L 1116,578 L 1115,579 L 1114,578 Z M 1023,548 L 1024,547 L 1077,547 L 1078,548 L 1078,549 L 1079,550 L 1087,550 L 1088,551 L 1088,571 L 1089,571 L 1090,572 L 1092,572 L 1093,573 L 1093,577 L 1092,578 L 1090,578 L 1089,579 L 1047,579 L 1045,577 L 1045,557 L 1042,554 L 1023,554 L 1022,553 L 1024,551 L 1024,549 Z M 959,553 L 960,552 L 961,552 L 961,549 L 960,548 L 961,547 L 1014,547 L 1015,548 L 1013,550 L 1014,551 L 1014,552 L 1015,553 L 1014,554 L 960,554 Z M 856,575 L 856,573 L 857,572 L 858,572 L 859,571 L 859,552 L 860,551 L 862,551 L 863,550 L 865,550 L 866,549 L 866,548 L 867,547 L 951,547 L 952,548 L 951,549 L 951,552 L 949,554 L 933,554 L 929,558 L 929,578 L 928,579 L 862,579 L 861,578 L 858,578 L 857,577 L 857,576 Z M 267,522 L 268,521 L 278,521 L 279,522 L 278,523 L 268,523 Z M 239,522 L 240,521 L 251,521 L 252,522 L 251,523 L 240,523 Z M 694,455 L 695,454 L 728,454 L 730,456 L 730,458 L 729,459 L 728,458 L 727,458 L 727,459 L 728,460 L 727,461 L 696,461 L 694,459 Z M 844,436 L 845,435 L 850,435 L 851,436 L 859,436 L 860,437 L 868,437 L 869,438 L 905,438 L 906,439 L 941,439 L 942,438 L 1012,438 L 1013,437 L 1014,438 L 1015,437 L 1086,437 L 1087,438 L 1086,439 L 1028,439 L 1027,440 L 949,440 L 948,441 L 891,441 L 890,440 L 868,440 L 867,439 L 850,438 L 849,437 L 845,437 Z M 1563,433 L 1549,436 L 1409,435 L 1408,436 L 1309,436 L 1308,437 L 1303,436 L 1302,437 L 1197,437 L 1196,438 L 1192,437 L 1191,438 L 1097,438 L 1096,439 L 1090,439 L 1088,437 L 1089,436 L 1264,435 L 1265,434 L 1278,435 L 1279,434 L 1364,434 L 1365,433 L 1515,433 L 1516,434 L 1546,434 L 1556,432 Z M 591,315 L 594,312 L 727,312 L 730,316 L 730,421 L 727,424 L 726,423 L 725,424 L 723,423 L 717,423 L 716,424 L 673,424 L 672,423 L 667,423 L 666,424 L 665,423 L 664,424 L 661,424 L 659,423 L 658,424 L 646,414 L 645,410 L 642,410 L 640,409 L 634,403 L 633,403 L 610,383 L 605,383 L 603,386 L 603,389 L 612,398 L 613,401 L 624,416 L 623,422 L 622,423 L 614,423 L 613,424 L 599,424 L 598,423 L 593,423 L 591,421 Z" fill="black" fill-rule="evenodd"/>
</svg>