<?xml version="1.0" encoding="UTF-8" standalone="no"?>
<svg
   width="650"
   height="250"
   viewBox="0 0 650 250"
   version="1.1"
   id="svg10"
   sodipodi:docname="zis5_transport_black.svg"
   inkscape:version="1.4.2 (f4327f4, 2025-05-13)"
   xmlns:inkscape="http://www.inkscape.org/namespaces/inkscape"
   xmlns:sodipodi="http://sodipodi.sourceforge.net/DTD/sodipodi-0.dtd"
   xmlns="http://www.w3.org/2000/svg"
   xmlns:svg="http://www.w3.org/2000/svg">
  <defs
     id="defs10" />
  <sodipodi:namedview
     id="namedview10"
     pagecolor="#ffffff"
     bordercolor="#000000"
     borderopacity="0.25"
     inkscape:showpageshadow="2"
     inkscape:pageopacity="0.0"
     inkscape:pagecheckerboard="0"
     inkscape:deskcolor="#d1d1d1"
     inkscape:zoom="0.88294417"
     inkscape:cx="323.91629"
     inkscape:cy="99.100263"
     inkscape:window-width="2560"
     inkscape:window-height="1377"
     inkscape:window-x="-8"
     inkscape:window-y="-8"
     inkscape:window-maximized="1"
     inkscape:current-layer="svg10" />
  <path
     d="m 467.99485,140.37321 -10.2254,2.04509 -6.95329,2.45409 -12.27049,7.77133 -8.99836,9.81639 -4.9082,8.58934 -2.04509,6.13525 9.40739,1.63607 1.63607,-4.9082 h -2.45411 l 3.27213,-3.27213 0.40902,0.40901 -0.81803,1.22706 1.22705,1.63606 -2.4541,6.13525 -1.22705,6.13524 v 8.58935 l 1.22705,4.9082 -0.40902,2.45409 0.40902,-0.81803 2.86311,6.95329 -0.40901,0.81802 h 0.81803 l 4.9082,7.77131 5.72623,5.72624 5.72623,3.68114 v 0.81804 l 0.81804,-0.40902 4.90819,2.4541 7.3623,2.04509 11.04344,0.40901 10.63443,-2.4541 7.36229,-3.68115 4.49919,-3.27213 8.58934,-9.8164 3.68115,-7.36229 2.4541,-9.81639 v -8.99837 l -2.4541,-9.8164 -2.86312,-6.13524 -7.3623,-9.40738 -9.81639,-6.95328 -8.58934,-3.27213 -7.77132,-1.22705 -10.63442,0.81803 -7.77131,2.45411 -8.18034,4.90819 -0.81803,-0.81804 4.49918,-3.27213 6.13525,-2.86311 8.18033,-2.04508 8.99836,-0.40902 8.99836,1.63607 10.22541,4.49918 6.95329,5.31721 5.72623,6.54427 2.04508,3.68114 2.04508,0.81804 -0.81803,0.40901 0.81803,-0.40901 3.27213,4.49918 6.13524,2.04508 h 2.04509 v -1.22705 l -3.27213,-7.77131 -6.95328,-9.8164 -4.49918,-4.49918 -8.99836,-6.54426 -12.67951,-5.31721 -9.40739,-1.63608 z m 1.22705,73.21395 0.40903,-0.40901 h 6.54426 l 0.40901,0.40901 -0.40901,0.40902 h -6.54426 z m 3.68116,-8.99836 0.40901,0.40902 h 0.40901 l 0.40903,0.40902 -0.40903,0.40901 h -0.40901 0.40901 l 0.40903,-0.40901 0.40901,0.40901 v 0.40902 l 0.40901,0.40901 v 0.40902 l -1.63606,1.63607 h -1.22705 l -0.81803,-0.81804 0.40901,-0.40901 h 1.63607 -1.63607 l -0.40901,0.40901 -0.81804,-0.81803 v -0.40902 l 0.40902,-0.40901 v -0.40902 l 0.40902,-0.40901 0.40901,0.40901 h 0.40902 -0.40902 l -0.40901,-0.40901 0.40901,-0.40902 h 0.81803 z m 6.13524,-8.18032 h 0.81803 l 0.81804,0.81802 v 1.22706 l -0.81804,0.81803 h -1.22704 l -0.40903,-0.40902 0.40903,-0.40901 h 0.40901 -0.40901 l -0.40903,0.40901 -0.40901,-0.40901 v -0.81804 z m -20.85984,-0.81804 h 0.40901 l 0.40902,0.40901 v 0.40903 l 0.40902,0.40901 v 0.40901 l 0.81803,0.81804 v 0.40902 l 0.40902,0.40901 v 0.40902 l 0.40902,0.40902 v 0.40901 l -1.22705,1.22705 h -0.81804 l -0.40902,-0.40901 h -0.40901 l -1.22705,-1.22705 v -0.40902 l -0.40901,-0.40902 v -1.22705 l 0.81802,-0.81803 -0.40901,-0.40901 0.40901,-0.40903 h 0.40903 l 0.40901,0.40903 -0.40901,-0.40903 z m 31.08526,-4.49918 0.81802,0.81804 v 1.22704 l -0.40901,0.40902 v 0.81803 l -0.40901,0.40902 0.40901,0.40902 v 1.63606 l -1.63607,1.63607 h -1.22705 l -0.81803,-0.81804 v -1.22704 l 0.40902,-0.40903 v -0.40901 l 1.22704,-1.22705 h 0.40902 l 0.40902,0.40902 v -0.40902 l -0.40902,-0.40902 -0.40902,0.40902 -0.40901,-0.40902 v -2.04507 l 0.81803,-0.81804 0.40902,0.40901 h 0.40901 z m -17.99673,-3.68115 h 2.86312 l 0.40901,0.40902 h 0.40901 l 0.40902,0.40901 v 0.40903 l 0.40902,0.40901 v 0.40901 l 0.40902,0.40902 v 1.22705 l -0.40902,0.40901 v 0.81804 l -1.22705,1.22705 h -0.40901 l -0.40903,0.40901 h -1.63606 l -0.40902,-0.40901 0.40902,-0.40902 h 1.22705 -1.22705 l -0.40902,0.40902 h -0.81803 l -1.22704,-1.22705 v -0.81804 l 0.40901,-0.40901 v -1.22705 1.22705 l -0.40901,0.40901 -0.40903,-0.40901 v -1.63607 l 0.81804,-0.81802 0.40901,0.40901 -0.40901,-0.40901 z m -21.67788,-0.81803 0.40903,0.40901 v 6.95328 l -0.40903,0.40902 -0.40901,-0.40902 v -6.95328 z m 45.80985,-1.63607 0.40902,0.40902 v 1.22705 l 0.40901,0.40901 v 6.54427 l -0.40901,0.40901 -0.40902,-0.40901 v -6.13525 l -0.40902,-0.40902 v -1.63606 z m -16.36066,-3.27213 h 0.81803 l 1.22705,1.22705 v 1.22704 l -0.40901,0.40903 -0.40902,-0.40903 v -0.81802 l -0.40902,0.40901 v 0.40901 h 0.40902 l 0.40902,0.40903 -0.40902,0.40901 h -0.81803 l -1.22706,-1.22705 v -1.22705 z m -13.49754,0 h 0.40901 l 1.22705,1.22705 v 0.81803 l -0.81803,0.81804 -0.81803,-0.81804 v -1.22705 l -0.40902,-0.40901 z m -5.31722,-3.27213 0.81804,0.81803 v 1.63606 l -0.40902,0.40903 v 0.40901 l -0.81803,0.81803 -0.40902,-0.40901 v -0.40902 h -1.22705 v 0.40902 l -0.40901,0.40901 -0.40903,-0.40901 v -1.63607 l 0.81804,-0.81804 v -0.40901 l 0.40901,-0.40901 h 0.40902 l 0.40902,-0.40902 z m 10.63443,-4.9082 0.40902,-0.40902 0.40901,0.40902 v 0.40902 l 0.40902,-0.40902 h 1.22705 -1.22705 l -0.40902,-0.40902 0.40902,-0.40901 h 1.63606 l 0.81804,0.81803 v 1.63607 l -0.81804,0.81803 H 471.676 l -0.40901,-0.40901 0.40901,-0.40902 h 1.63607 -1.22705 L 471.676,174.7306 v 0.40902 l -0.40901,0.40902 -0.40902,-0.40902 z m -1.22704,-6.13525 0.40901,-0.40901 h 4.90819 l 0.40902,0.40901 -0.40902,0.40902 h -4.90819 z m -22.0869,-10.63443 0.81803,0.81804 -0.40901,0.40901 h -0.40902 l -2.04509,2.04508 h -0.40901 l -3.27213,3.27214 v 0.40902 l -1.63606,1.63606 v 0.40902 l -1.22706,1.22705 v 0.40901 l -0.81802,0.81804 v 0.40901 l -0.81804,0.81804 v 0.40901 l -0.40901,0.40902 v 0.40902 l -0.40902,0.40901 v 0.40902 l -0.40902,0.40901 v 0.40903 l -0.40902,0.40901 -0.40901,-0.40901 v -0.40903 l -0.40902,-0.40901 v -0.81803 l 0.40902,-0.40902 h 0.40901 l 0.40902,-0.40902 v -0.40901 l 0.40902,-0.40902 v -0.40902 l 0.81803,-0.81803 v -0.40902 l 0.81804,-0.81803 v -0.40901 l 0.81802,-0.81804 v -0.40901 l 2.86312,-2.86312 v -0.40901 l 2.04508,-2.04509 h 0.40902 l 2.4541,-2.45409 h 0.40902 z"
     fill="#000000"
     fill-rule="evenodd"
     id="path1"
     style="stroke-width:0.409017" />
  <path
     d="m 75.339046,137.10108 -13.088527,3.68116 -12.270492,7.36229 -4.908203,4.49919 -1.227048,9.81639 -11.043443,10.22541 h -2.863119 l -0.409013,-3.68115 -0.818035,-0.40902 -4.090157,0.40902 -1.636071,3.68115 v 4.90819 l 0.818036,2.86312 1.63606,1.63607 h 3.681155 l 0.818025,-2.86312 h 2.863119 l 8.180335,6.54427 0.409012,-4.09017 h -1.227048 l -0.409023,-1.22705 -2.454096,-1.22705 5.317215,-0.40901 2.045084,-6.13525 -6.953276,-0.40901 6.544264,-6.13525 1.63606,4.49918 4.090167,-6.13526 0.818036,0.81804 -5.726239,9.40738 -2.454096,7.77131 -0.818035,6.13526 0.818035,10.2254 4.090168,11.04345 5.726227,8.18033 5.317216,4.90819 6.135251,4.09017 12.270491,4.09017 11.452451,0.40901 12.27051,-3.27213 10.225408,-6.54427 8.18032,-9.81639 4.49919,-10.22541 1.22705,-6.13525 v -10.63443 l -2.04508,-8.18032 -5.31722,-10.22542 -10.22541,-9.8164 0.81803,-0.81802 8.58935,7.77131 3.27213,4.49918 3.68115,7.3623 2.04508,9.40737 h 4.09016 l 1.63607,2.04508 -5.31721,0.81804 v 4.90819 h 13.08853 l 3.27213,-2.45409 2.04508,-4.9082 9.40737,-0.40902 -9.81639,-6.95328 -25.76803,-27.81312 -8.99837,-6.54426 -7.36229,-3.68115 -8.589348,-2.45409 -6.95329,-0.81804 z m 4.090167,76.48608 0.409012,-0.40901 h 6.544267 l 0.40902,0.40901 -0.40902,0.40902 h -6.544267 z m -11.043443,-4.90819 0.409012,-0.40901 h 0.409012 l 0.818036,0.81802 h 0.409023 l 0.818025,0.81804 h 0.409023 l 0.409013,0.40901 h 0.409012 l 0.818036,0.81803 -0.409013,0.40903 h -0.409023 l -0.409012,-0.40903 h -0.409013 l -0.409023,-0.40901 h -0.409012 l -0.818036,-0.81803 h -0.409012 z m 32.3123,-3.68115 0.40902,0.40902 v 0.40901 l -2.454108,2.45411 h -0.40901 l -0.40901,-0.40903 z m -18.814761,0 h 0.818036 l 0.409012,-0.40902 0.409023,0.40902 h 0.818025 l 0.818036,0.81803 v 1.63607 l -0.818036,0.81804 h -2.045084 l -0.409012,-0.40903 0.409012,-0.40901 h 0.818036 -0.818036 l -0.409012,0.40901 -0.818036,-0.81803 v -0.81803 l 0.409024,-0.40902 v -0.40901 z m 4.499183,-5.72623 0.40902,-0.40902 v -0.40901 l 0.81802,-0.81804 h 0.40903 l 0.40901,0.40902 -0.81804,0.81803 v 0.40902 h 0.81804 l 0.40901,-0.40902 v -0.40901 l -0.40901,-0.40902 0.40901,-0.40902 h 0.40903 l 0.81803,0.81804 v 0.40901 l -1.22706,1.22705 h -1.63606 z m -11.043446,-3.27214 h 1.227048 l 0.409023,0.40903 -0.409023,0.40901 h -0.818036 v 0.81803 l 0.409023,0.40902 h 0.409013 l 0.409023,0.40902 -0.409023,0.40901 h -1.227048 l -0.818036,-0.81803 v -0.40902 l -0.409012,-0.40902 z m -8.99836,0 0.409012,-0.40901 h 0.818036 l 0.409012,0.40901 -0.818024,0.81804 0.409012,-0.40901 0.409012,0.40901 0.409024,-0.40901 h 0.409012 l 0.409012,-0.40903 0.409024,0.40903 v 0.40901 l 0.409012,0.40901 v 0.40902 l 0.818036,0.81804 v 1.22705 l -0.409013,0.40901 H 70.02183 l -0.409012,-0.40901 h -0.409024 0.409024 l 0.409012,0.40901 -0.409012,0.40901 H 68.38577 l -0.818036,-0.81802 v -0.40902 l -0.818036,-0.81803 v -0.81804 l -0.409012,-0.40902 z m 32.312296,-0.81802 0.81804,0.81802 v 2.04509 l -0.40901,0.40902 v 0.40901 l -0.40903,0.40902 v 0.40902 l -1.22705,1.22705 h -0.40901 l -0.40901,0.40901 h -0.40902 l -0.81804,-0.81804 v -2.04507 l 0.40902,-0.40902 v -0.40902 l 0.81804,-0.81803 v -0.40901 l 0.40901,-0.40903 v -0.40901 l 0.40901,-0.40901 z m -6.54426,-4.9082 0.40902,-0.40902 h 1.63606 l 0.40903,0.40902 v 1.63607 l -0.40903,0.40901 -0.40901,-0.40901 v -1.22706 h -0.81804 v 0.81803 l 0.40903,0.40903 h 0.40901 l 0.40901,0.40901 -0.40901,0.40901 h -0.81804 l -0.81803,-0.81802 z m -10.634425,-2.86312 h 2.863108 l 0.409023,0.40902 h 0.409013 l 1.227051,1.22705 v 2.86312 l -1.636064,1.63606 h -0.409023 l -0.409012,0.40901 h -1.636072 l -0.409012,-0.40901 0.409012,-0.40902 h 1.227059 -1.227059 l -0.409012,0.40902 h -0.409012 l -0.409024,-0.40902 0.409024,-0.40902 -0.409024,-0.40901 0.409024,0.40901 -0.409024,0.40902 h -0.409012 l -0.409012,-0.40902 v -0.40901 l -0.409024,-0.40901 v -2.45411 l 0.409024,-0.40901 v -0.40901 z m -21.268862,-1.63606 0.409023,0.40901 v 2.45411 l -0.409023,0.40901 v 2.86312 l -0.409012,0.40901 -0.409024,-0.40901 v -3.27213 l 0.409024,-0.40903 v -2.04508 z m 15.133611,-3.68115 h 0.409012 l 0.409023,0.40901 -0.409023,0.40902 0.409023,0.40902 v 0.40901 l -0.409023,0.40901 0.409023,0.40903 -0.409023,0.40901 h -0.409012 l -0.818036,-0.81804 v -1.22704 z m 13.088526,0.40901 0.40901,-0.40901 0.40903,0.40901 v 0.81804 l 0.40901,-0.40902 v -0.40902 h -0.40901 l -0.40903,-0.40901 0.40903,-0.40902 h 1.22704 l 1.22706,1.22705 v 0.81803 l -1.22706,1.22705 h -0.81803 l -1.22705,-1.22705 z m -17.587706,-3.27213 0.818035,0.81804 v 1.22705 l -1.636071,1.63606 h -1.227048 l -0.818036,-0.81803 v -0.81803 l 0.409024,-0.40903 v -0.40901 l 1.227048,-1.22705 z m 26.177056,-0.40901 1.22705,1.22705 v 0.40901 l 0.40901,0.40901 v 0.40903 l -0.40901,0.40901 -0.40901,-0.40901 v 0.40901 l -1.22705,1.22705 -0.81804,-0.81803 v -0.81803 l -0.40902,-0.40903 v -0.40901 z m -15.951649,-4.9082 0.818036,-0.81804 0.409012,0.40902 v 0.40902 l 0.409024,-0.40902 h 0.818035 -1.227059 l -0.409012,-0.40902 0.409012,-0.40901 h 1.636072 l 1.227048,1.22705 v 1.22705 l -0.818036,0.81803 h -0.409012 l -0.409013,0.40901 h -1.227059 l -1.227048,-1.22704 z m -0.818024,-6.54427 0.409012,-0.40901 h 4.908191 l 0.40902,0.40901 -0.40902,0.40902 h -4.908191 z m 21.268851,-13.49754 0.81804,-0.81803 h 0.40901 l 0.40902,0.40901 h 0.40902 l 0.40901,0.40902 h 0.40902 l 0.81803,0.81803 h 0.40902 l 0.81803,0.81803 h 0.40902 l 0.40901,0.40903 -0.81803,0.81802 -0.40902,-0.40901 h -0.40901 l -0.81804,-0.81804 h -0.40901 l -0.40902,-0.40901 h -0.40901 l -0.40902,-0.40902 h -0.40902 l -0.40901,-0.40901 h -0.40903 z m -33.13033,-1.63607 -0.409024,0.40903 h -0.409012 l -0.409012,0.40901 h -0.818036 l -0.409023,0.40901 H 65.52265 l -0.409012,0.40902 h -0.409023 l -0.409013,0.40902 H 63.88659 l -0.818036,0.81803 h -0.409023 l -0.409012,0.40901 h -0.409013 l -0.818035,0.81804 h -0.409013 l -0.818035,0.81804 h -0.409024 l -0.818024,0.81802 h -0.409024 l -1.63606,1.63607 h -0.409023 l -4.090157,4.09017 v 0.40901 l -1.227048,1.22705 -0.818036,-0.81804 0.818036,-0.81802 v -0.40902 l 4.49918,-4.49918 h 0.409012 l 2.045084,-2.04509 h 0.409012 l 0.818036,-0.81802 h 0.409012 l 0.818036,-0.81804 h 0.409023 l 0.409013,-0.40902 h 0.409012 l 0.818036,-0.81803 h 0.409012 l 0.818036,-0.81803 h 0.409023 l 0.409012,-0.40901 h 0.409013 l 0.409023,-0.40903 h 0.409012 l 0.409013,-0.40901 h 0.818035 l 0.409024,-0.40902 h 0.409012 z m 27.404102,-0.81803 0.40902,-0.40901 h 0.40902 l 0.40901,-0.40902 h 0.81804 l 0.40901,0.40902 h 0.40901 l 0.40903,0.40901 h 0.40901 l 0.40902,0.40902 h 0.409008 l 0.40902,0.40901 -0.818028,0.81804 h -0.40902 l -0.40901,-0.40901 h -0.81804 l -0.40901,-0.40903 h -0.81804 l -0.40901,-0.40901 h -0.40902 z m -28.222138,0 0.409012,-0.40901 h 0.409024 l 0.409012,-0.40902 h 0.818036 l 0.409012,-0.40902 h 0.818036 l 0.409012,-0.40901 h 1.227048 l 0.409023,-0.40902 h 1.227049 l 0.409012,-0.40902 h 1.636071 l 0.409013,-0.40901 h 2.863119 l 0.409012,-0.40902 h 7.362297 l 0.40901,0.40902 h 2.04509 l 0.40902,0.40901 h 2.04508 l 0.40902,0.40902 h 1.22705 l 0.40901,0.40902 h 1.22705 l 0.40902,0.40901 h 0.81804 l 0.40901,0.40902 -0.40901,0.40902 h -0.40902 l -0.40902,0.40901 h -1.22704 l -0.40903,-0.40901 h -0.81802 l -0.40903,-0.40902 h -1.22704 l -0.40902,-0.40902 h -2.04508 l -0.40903,-0.40901 h -3.681141 l -0.409013,-0.40902 h -4.090167 l -0.409012,0.40902 h -2.454107 l -0.409013,0.40901 h -2.045083 l -0.409013,0.40902 h -1.227048 l -0.409023,0.40902 h -1.227048 l -0.409013,0.40901 h -0.818035 l -0.409013,0.40902 h -0.818035 l -0.409024,0.40901 H 68.38577 Z"
     fill="#000000"
     fill-rule="evenodd"
     id="path2"
     style="stroke-width:0.409017" />
  <path
     d="m 51.207075,114.19616 h -2.863119 l -0.818025,0.81804 v 0.40901 l -0.409023,0.40902 v 0.81804 l -0.409012,0.40901 v 0.81804 l -0.409024,0.40901 v 1.63607 l -0.409012,0.40901 v 8.99836 l 0.409012,0.40902 v 2.4541 l 0.409024,0.40901 v 1.22705 l 0.409012,0.40902 v 0.40902 l 0.818036,0.81803 h 0.409012 l 0.409023,0.40901 1.636061,-1.63606 h 0.409023 l 0.818025,-0.81803 h 0.409023 l 0.818025,-0.81804 h 0.409023 l 0.818036,-0.81803 h 0.409012 l 0.409013,-0.40902 h 0.409023 l 0.409012,-0.40901 h 0.409013 l 0.409023,-0.40902 h 0.409012 l 0.409024,-0.40901 h 0.409012 l 0.409012,-0.40902 h 0.818036 l 0.409012,-0.40902 h 0.409024 l 0.409012,-0.40901 v -0.40902 l 0.409023,-0.40902 v -0.40901 l 0.409013,-0.40902 v -1.22705 l 0.409012,-0.40901 v -2.04509 l -0.409012,-0.40901 v -1.22706 l -0.409013,-0.40901 v -0.40901 l 0.409013,-0.40903 h 0.409012 v -0.40901 h -0.409012 v 0.40901 l -0.409013,0.40903 -0.409023,-0.40903 v -0.40901 l -0.818036,-0.81803 v -0.40902 l -1.63606,-1.63607 h -0.409012 l -1.227059,-1.22705 h -0.409013 l -0.818035,-0.81803 h -0.409013 l -0.409012,-0.40901 h -0.818036 l -0.409023,-0.40902 h -1.227048 z m -3.681144,4.09017 0.409013,0.40901 v 12.67951 l -0.409013,0.40902 -0.409023,-0.40902 v -3.27213 l -0.409012,-0.40901 v -5.31721 l 0.409012,-0.40903 v -3.27213 z"
     fill="#000000"
     fill-rule="evenodd"
     id="path3"
     style="stroke-width:0.409017" />
  <path
     d="m 528.5293,109.28797 v 4.09017 l 0.40901,0.40901 v 5.72623 l -0.40901,0.40902 0.40901,0.81802 -0.40901,0.40903 0.40901,0.40901 0.81803,-0.40901 h 86.71149 v -13.90657 l -0.40901,-0.40901 h -87.12051 v 2.04508 z"
     fill="#000000"
     fill-rule="evenodd"
     id="path4"
     style="stroke-width:0.409017" />
  <path
     d="m 428.32026,106.83387 v 14.31558 h 89.16558 v -13.90657 l -0.40901,-0.40901 z"
     fill="#000000"
     fill-rule="evenodd"
     id="path5"
     style="stroke-width:0.409017" />
  <path
     d="m 317.06778,106.83387 v 7.77131 l -0.40902,0.40902 v 3.68114 l 0.40902,0.40902 v 2.04509 h 99.80001 v -13.90657 l -0.40901,-0.40901 z"
     fill="#000000"
     fill-rule="evenodd"
     id="path6"
     style="stroke-width:0.409017" />
  <path
     d="m 428.32026,75.748611 v 14.315575 l 5.72623,0.409024 -5.31722,0.409012 79.75821,0.409012 -80.16722,0.409024 v 14.315582 l 89.16558,-0.40903 V 91.700258 l -6.95327,-0.409024 7.3623,-0.409012 -6.95329,-0.409012 6.54426,-0.409024 -0.40901,-14.315575 z m 8.58935,14.724599 0.40901,-0.409024 h 65.03362 l 0.40902,0.409024 -0.40902,0.409012 h -65.03362 z"
     fill="#000000"
     fill-rule="evenodd"
     id="path7"
     style="stroke-width:0.409017" />
  <path
     d="m 316.65876,76.157624 v 13.49755 l 0.81804,1.227048 95.70985,0.409012 -96.11887,0.409024 v 14.315582 l 99.80001,-0.40903 V 91.700258 l -0.81803,-0.818036 0.81803,-0.818036 -0.40901,-14.315575 z m 62.1705,14.315586 0.40903,-0.409024 h 24.13197 l 0.40901,0.409024 -0.40901,0.409012 h -24.13197 z m -13.49754,0 0.40902,-0.409024 h 5.31721 l 0.40902,0.409024 -0.40902,0.409012 h -5.31721 z m -26.58606,0 0.40901,-0.409024 h 16.76967 l 0.40902,0.409024 -0.40902,0.409012 h -16.76967 z m -5.72624,0 0.40902,-0.409024 h 4.90819 l 0.40903,0.409024 -0.40903,0.409012 h -4.90819 z m -13.49754,0 0.40901,-0.409024 h 5.31722 l 0.40902,0.409024 -0.40902,0.409012 h -5.31722 z"
     fill="#000000"
     fill-rule="evenodd"
     id="path8"
     style="stroke-width:0.409017" />
  <path
     d="m 146.91693,164.91421 16.36066,14.31557 16.36066,5.31722 h 108.79837 l 0.81804,-3.68116 0.40902,2.86312 38.85656,-2.86312 0.40902,-3.27213 0.81803,7.77132 h 59.7164 l 0.40902,-4.49919 40.49264,11.04346 0.81802,-8.18034 -35.99345,-8.18032 11.45247,-3.27213 3.27213,4.90819 5.31721,-4.49918 6.54427,2.86312 17.17868,-24.95001 h -40.0836 l -0.40903,-8.18033 h -9.81639 l -0.81803,8.18033 h -41.31066 l -1.22705,-8.18033 h -9.40738 l -0.40901,8.18033 h -18.40575 l -0.40902,-8.58934 200.41807,-2.4541 4.9082,2.4541 v 8.18032 l -15.95164,0.81804 16.76967,22.08688 13.08852,-2.86311 5.31722,5.72623 -26.99509,6.95328 0.81804,7.77131 32.72131,-12.27049 5.72623,-8.58935 40.49264,0.40902 1.22705,9.40737 h 17.17868 l -2.86311,-21.26885 8.18033,-0.40902 -0.40901,5.72624 3.68114,0.40901 v -5.72623 l 4.09017,-0.81803 2.04508,-81.394286 -2.4541,-5.726228 h -6.13525 l -0.81803,5.317215 -89.16558,0.818036 v 13.497539 l 3.27213,1.227048 -2.86312,0.409024 v 14.315582 h 87.12051 l 0.81803,-24.541001 0.40902,50.718051 -0.81804,-9.81639 h -87.12051 l -1.22705,14.72458 -0.81803,-64.215588 -7.36229,-0.818025 -1.63607,65.033613 -1.22705,-14.72458 h -87.93854 l -1.63606,14.72458 -1.22705,-64.6246 -6.95329,-0.409013 -2.04507,65.033613 -0.81804,-14.72458 h -99.391 l -0.81803,9.81639 -0.81804,-61.761494 -6.95327,-0.818036 -2.4541,71.57789 3.27213,23.31393 z m 182.01233,-0.40903 0.40901,0.40903 v 9.81639 l -0.40901,0.40902 -0.40902,-0.40902 v -9.81639 z m 76.07706,0 0.40902,-0.40901 h 4.49918 l 0.40901,0.40901 -0.40901,0.40903 h -4.49918 z m -26.58607,0 0.40901,-0.40901 h 10.22542 l 0.40901,0.40901 -0.40901,0.40903 h -10.22542 z m -37.2205,0 0.40902,-0.40901 h 34.35738 l 0.40902,0.40901 -0.40902,0.40903 h -34.35738 z m -12.27049,0 0.40901,-0.40901 h 9.8164 l 0.40901,0.40901 -0.40901,0.40903 h -9.8164 z m 202.87217,-22.49589 0.40901,-0.40903 h 80.16722 l 0.40903,0.40903 v 8.18032 l -0.40903,0.40902 h -17.5877 l -0.81803,-1.63607 v -3.68114 l 0.40901,-0.40903 v -1.63606 l -0.40901,-0.81803 h -8.99837 l -0.40901,0.40902 h -0.81804 v 7.36229 l -0.40901,0.40902 h -50.71805 l -0.40901,-0.40902 v -7.77131 z m 0.81802,-50.718056 0.40903,-0.409012 h 78.94017 l 0.40901,0.409012 -0.40901,0.409024 h -78.94017 z m 24.13197,-0.818024 0.40903,-0.409024 h 41.71967 l 0.40902,0.409024 -0.40902,0.409012 h -41.71967 z m -13.90655,0 0.40901,-0.409024 h 10.63443 l 0.40902,0.409024 -0.40902,0.409012 h -10.63443 z m -6.13525,0 0.40901,-0.409024 h 4.09017 l 0.40902,0.409024 -0.40902,0.409012 h -4.09017 z"
     fill="#000000"
     fill-rule="evenodd"
     id="path9"
     style="stroke-width:0.409017" />
  <path
     d="m 303.16122,30.756803 -4.09017,-2.454096 -18.40574,-0.409023 -61.35247,2.863119 -27.4041,3.272132 -1.22705,4.090167 4.09017,1.63606 -6.95329,1.636072 -3.27213,4.49918 10.22542,1.227048 -0.40902,47.445904 H 73.702985 l 1.636061,-0.818025 -1.227048,-2.454107 -6.135252,-0.409012 -1.63606,2.863119 1.63606,0.409013 -3.681144,0.409012 -2.045083,4.090167 0.409012,29.040177 14.724598,-3.68115 h 10.225403 l 16.769688,4.49918 -16.769688,-3.27214 -26.177049,3.27214 -15.133611,10.22541 -7.362288,8.18033 -2.454107,6.54426 6.544264,-1.22705 11.452466,-8.58934 12.270491,-5.72623 13.906563,-2.4541 11.452461,0.81804 12.679508,4.09015 10.63443,6.54427 27.81312,29.44918 20.45082,12.27051 10.63444,2.04507 h 114.93362 l -0.40901,-5.31721 -113.29757,-0.40902 -15.13361,-6.13524 -15.54262,-14.7246 157.88036,-0.40901 -2.04509,-0.40902 2.4541,-2.86311 z m -103.07215,123.113957 0.40902,-0.40902 0.40901,0.40902 v 3.68115 h 36.81149 l 0.40901,0.40901 -0.40901,0.40902 h -37.2205 l -0.40902,-0.40902 z m -46.21886,-1.22704 h 0.81803 l 0.40902,0.40901 h 0.40902 l 1.22705,1.22705 v 2.45409 l -0.81804,0.81804 -0.40901,-0.40901 0.40901,0.40901 -0.81803,0.81803 h -2.04509 l -1.63606,-1.63607 v -2.04508 l 1.63606,-1.63606 h 0.40903 z m 15.13361,-6.13525 0.81804,0.81803 v 6.54426 l -0.40903,0.40902 h -0.81802 l -0.40903,-0.40902 v -6.54426 z m 31.49427,-0.40902 0.40901,0.40902 v 6.54426 l -0.40901,0.40901 -0.40902,-0.40901 v -6.54426 z m -30.26722,-4.49919 0.40901,0.40903 v 4.09016 l -0.40901,0.40902 -0.40901,-0.40902 v -4.09016 z m -54.80821,-8.18032 h 0.40902 l 0.81803,0.81803 h 0.40901 l 0.81804,0.81803 h 0.40901 l 0.81804,0.81803 h 0.40902 l 0.81803,0.81804 h 0.40902 l 1.22705,1.22705 h 0.40901 l 1.63607,1.63607 h 0.40901 l 3.27214,3.27213 h 0.40901 l 3.68115,3.68115 v 0.40901 h 0.40902 l 0.81803,0.81803 v 0.40902 l 2.4541,2.4541 v 0.40902 l 2.86312,2.86311 v 0.40902 l 1.63606,1.63607 v 0.40901 l 2.04508,2.04508 v 0.40902 l 1.63607,1.63607 v 0.40901 l 1.22705,1.22705 v 0.40902 l 0.81804,0.81803 -0.81804,0.81803 -0.40902,-0.40901 v -0.40902 l -2.04508,-2.04509 v -0.40901 l -1.22706,-1.22705 v -0.40901 l -2.04507,-2.04508 v -0.40903 l -2.04508,-2.04508 v -0.40901 l -2.45411,-2.4541 v -0.40902 l -4.09016,-4.09016 v -0.40902 l -2.4541,-2.4541 h -0.40901 l -4.09017,-4.09017 h -0.40901 l -1.63608,-1.63606 h -0.40901 l -1.22705,-1.22704 h -0.40901 l -0.81803,-0.81804 h -0.40903 l -0.81802,-0.81804 h -0.40903 L 116.2407,135.056 h -0.40902 l -0.40902,-0.40901 h -0.40902 l -0.40901,-0.40902 z m -11.45246,-4.49918 0.81803,-0.81804 h 0.40902 l 0.40902,0.40902 h 0.40901 l 0.40902,0.40902 h 0.81803 l 0.40902,0.40901 h 0.40902 l 0.40901,0.40902 h 0.40902 l 0.40901,0.40902 v 0.40901 l -0.40901,0.40902 h -0.81803 l -0.40902,-0.40902 h -0.40902 l -0.40901,-0.40901 h -0.40902 l -0.40902,-0.40902 h -0.40901 l -0.40902,-0.40902 h -0.81803 z m 51.94509,-7.77131 h 0.40902 l 0.40902,0.40901 v 24.95001 l -0.40902,0.40901 -0.81803,-0.81803 v -24.54099 z m -11.04344,0 h 0.40901 l 0.40903,0.40901 v 24.54099 l -0.40903,0.40902 h -0.40901 l -0.40902,-0.40902 v -24.54099 z m -5.31722,0 0.40902,0.40901 v 2.86312 l 0.40902,0.40901 V 135.056 l -0.40902,0.40902 v 4.09017 l 0.40902,0.40901 v 2.4541 l -0.40902,0.40902 v 2.86311 l 0.40902,0.40902 -0.40902,0.40902 h -0.40902 l -0.40901,-0.40902 v -24.54099 z m -5.72622,0 h 0.40901 l 0.40901,0.40901 v 20.85984 l -0.40901,0.40902 -0.81804,-0.81803 v -20.45083 z m -10.63443,0 h 0.40901 l 0.40902,0.40901 v 11.86148 l -0.40902,0.40901 -0.81803,-0.81802 v -11.45247 z m -11.45247,0 0.40902,0.40901 v 4.49918 l -0.40902,0.40902 -0.81803,-0.81803 v -3.68116 z m 38.85657,-0.40903 0.81803,0.81804 v 24.54099 l -0.81803,0.81803 -0.40901,-0.40901 v -12.67952 l -0.40903,-0.40901 v -1.63607 l 0.40903,-0.40902 v -4.49918 l -0.40903,-0.40901 v -4.9082 z m -22.08689,0 0.81804,0.81804 v 15.95165 l -0.40903,0.40901 -0.81803,-0.81804 v -15.95163 z m -10.63443,0 0.40901,0.40903 v 8.58934 l -0.40901,0.40902 h -0.40901 l -0.40903,-0.40902 v -8.18033 z m 82.62133,-5.72622 0.40901,0.40901 v 20.04181 l -0.40901,0.40901 -0.40902,-0.40901 v -20.04181 z m 0,-6.13525 0.40901,0.40902 v 4.09017 l -0.40901,0.40901 -0.40902,-0.40901 v -4.09017 z m 65.85165,-5.31721 v 1.63606 l -1.22705,1.22705 h -0.81804 l -0.40901,0.40902 -0.40901,-0.40902 h -0.40903 l -0.81803,-0.81804 h -7.36229 l -0.81804,-0.81802 v -0.81804 l 0.81804,-0.81803 h 6.95328 l 0.40901,-0.40902 h 0.40902 l 0.40901,-0.40902 h 1.63608 l 0.40901,0.40902 h 0.40901 z m -60.12542,-56.035266 1.22704,-1.227048 0.40903,0.409012 h 1.22705 -1.22705 l -0.40903,-0.409012 0.40903,-0.409012 h 54.8082 l 0.81804,0.409012 0.81802,1.227048 v 41.719677 l -0.40901,0.818035 -0.81804,0.818036 h -0.81803 l -0.40901,0.409012 H 208.2694 l -0.81804,-0.409012 -1.22704,-1.636071 z"
     fill="#000000"
     fill-rule="evenodd"
     id="path10"
     style="stroke-width:0.409017" />
</svg>
