<svg xmlns="http://www.w3.org/2000/svg" width="1672" height="941" viewBox="0 0 1672 941">
<rect width="100%" height="100%" fill="white"/>
<path d="M 1188,482 L 1163,487 L 1146,493 L 1116,512 L 1094,536 L 1082,557 L 1077,572 L 1100,576 L 1104,564 L 1098,564 L 1106,556 L 1107,557 L 1105,560 L 1108,564 L 1102,579 L 1099,594 L 1099,615 L 1102,627 L 1101,633 L 1102,631 L 1109,648 L 1108,650 L 1110,650 L 1122,669 L 1136,683 L 1150,692 L 1150,694 L 1152,693 L 1164,699 L 1182,704 L 1209,705 L 1235,699 L 1253,690 L 1264,682 L 1285,658 L 1294,640 L 1300,616 L 1300,594 L 1294,570 L 1287,555 L 1269,532 L 1245,515 L 1224,507 L 1205,504 L 1179,506 L 1160,512 L 1140,524 L 1138,522 L 1149,514 L 1164,507 L 1184,502 L 1206,501 L 1228,505 L 1253,516 L 1270,529 L 1284,545 L 1289,554 L 1294,556 L 1292,557 L 1294,556 L 1302,567 L 1317,572 L 1322,572 L 1322,569 L 1314,550 L 1297,526 L 1286,515 L 1264,499 L 1233,486 L 1210,482 Z M 1191,661 L 1192,660 L 1208,660 L 1209,661 L 1208,662 L 1192,662 Z M 1200,639 L 1201,640 L 1202,640 L 1203,641 L 1202,642 L 1201,642 L 1202,642 L 1203,641 L 1204,642 L 1204,643 L 1205,644 L 1205,645 L 1201,649 L 1198,649 L 1196,647 L 1197,646 L 1201,646 L 1197,646 L 1196,647 L 1194,645 L 1194,644 L 1195,643 L 1195,642 L 1196,641 L 1197,642 L 1198,642 L 1197,642 L 1196,641 L 1197,640 L 1199,640 Z M 1215,619 L 1217,619 L 1219,621 L 1219,624 L 1217,626 L 1214,626 L 1213,625 L 1214,624 L 1215,624 L 1214,624 L 1213,625 L 1212,624 L 1212,622 Z M 1164,617 L 1165,617 L 1166,618 L 1166,619 L 1167,620 L 1167,621 L 1169,623 L 1169,624 L 1170,625 L 1170,626 L 1171,627 L 1171,628 L 1168,631 L 1166,631 L 1165,630 L 1164,630 L 1161,627 L 1161,626 L 1160,625 L 1160,622 L 1162,620 L 1161,619 L 1162,618 L 1163,618 L 1164,619 L 1163,618 Z M 1240,606 L 1242,608 L 1242,611 L 1241,612 L 1241,614 L 1240,615 L 1241,616 L 1241,620 L 1237,624 L 1234,624 L 1232,622 L 1232,619 L 1233,618 L 1233,617 L 1236,614 L 1237,614 L 1238,615 L 1238,614 L 1237,613 L 1236,614 L 1235,613 L 1235,608 L 1237,606 L 1238,607 L 1239,607 Z M 1196,597 L 1203,597 L 1204,598 L 1205,598 L 1206,599 L 1206,600 L 1207,601 L 1207,602 L 1208,603 L 1208,606 L 1207,607 L 1207,609 L 1204,612 L 1203,612 L 1202,613 L 1198,613 L 1197,612 L 1198,611 L 1201,611 L 1198,611 L 1197,612 L 1195,612 L 1192,609 L 1192,607 L 1193,606 L 1193,603 L 1193,606 L 1192,607 L 1191,606 L 1191,602 L 1193,600 L 1194,601 L 1193,600 Z M 1143,595 L 1144,596 L 1144,613 L 1143,614 L 1142,613 L 1142,596 Z M 1255,591 L 1256,592 L 1256,595 L 1257,596 L 1257,612 L 1256,613 L 1255,612 L 1255,597 L 1254,596 L 1254,592 Z M 1215,583 L 1217,583 L 1220,586 L 1220,589 L 1219,590 L 1218,589 L 1218,587 L 1217,588 L 1217,589 L 1218,589 L 1219,590 L 1218,591 L 1216,591 L 1213,588 L 1213,585 Z M 1182,583 L 1183,583 L 1186,586 L 1186,588 L 1184,590 L 1182,588 L 1182,585 L 1181,584 Z M 1169,575 L 1171,577 L 1171,581 L 1170,582 L 1170,583 L 1168,585 L 1167,584 L 1167,583 L 1164,583 L 1164,584 L 1163,585 L 1162,584 L 1162,580 L 1164,578 L 1164,577 L 1165,576 L 1166,576 L 1167,575 Z M 1195,563 L 1196,562 L 1197,563 L 1197,564 L 1198,563 L 1201,563 L 1198,563 L 1197,562 L 1198,561 L 1202,561 L 1204,563 L 1204,567 L 1202,569 L 1197,569 L 1196,568 L 1197,567 L 1201,567 L 1198,567 L 1197,566 L 1197,567 L 1196,568 L 1195,567 Z M 1192,548 L 1193,547 L 1205,547 L 1206,548 L 1205,549 L 1193,549 Z M 1138,522 L 1140,524 L 1139,525 L 1138,525 L 1133,530 L 1132,530 L 1124,538 L 1124,539 L 1120,543 L 1120,544 L 1117,547 L 1117,548 L 1115,550 L 1115,551 L 1113,553 L 1113,554 L 1112,555 L 1112,556 L 1111,557 L 1111,558 L 1110,559 L 1110,560 L 1109,561 L 1108,560 L 1108,559 L 1107,558 L 1107,556 L 1108,555 L 1109,555 L 1110,554 L 1110,553 L 1111,552 L 1111,551 L 1113,549 L 1113,548 L 1115,546 L 1115,545 L 1117,543 L 1117,542 L 1124,535 L 1124,534 L 1129,529 L 1130,529 L 1136,523 L 1137,523 Z" fill="black" fill-rule="evenodd"/>
<path d="M 228,474 L 196,483 L 166,501 L 154,512 L 151,536 L 124,561 L 117,561 L 116,552 L 114,551 L 104,552 L 100,561 L 100,573 L 102,580 L 106,584 L 115,584 L 117,577 L 124,577 L 144,593 L 145,583 L 142,583 L 141,580 L 135,577 L 148,576 L 153,561 L 136,560 L 152,545 L 156,556 L 166,541 L 168,543 L 154,566 L 148,585 L 146,600 L 148,625 L 158,652 L 172,672 L 185,684 L 200,694 L 230,704 L 258,705 L 288,697 L 313,681 L 333,657 L 344,632 L 347,617 L 347,591 L 342,571 L 329,546 L 304,522 L 306,520 L 327,539 L 335,550 L 344,568 L 349,591 L 359,591 L 363,596 L 350,598 L 350,610 L 382,610 L 390,604 L 395,592 L 418,591 L 394,574 L 331,506 L 309,490 L 291,481 L 270,475 L 253,473 Z M 238,661 L 239,660 L 255,660 L 256,661 L 255,662 L 239,662 Z M 211,649 L 212,648 L 213,648 L 215,650 L 216,650 L 218,652 L 219,652 L 220,653 L 221,653 L 223,655 L 222,656 L 221,656 L 220,655 L 219,655 L 218,654 L 217,654 L 215,652 L 214,652 Z M 290,640 L 291,641 L 291,642 L 285,648 L 284,648 L 283,647 Z M 244,640 L 246,640 L 247,639 L 248,640 L 250,640 L 252,642 L 252,646 L 250,648 L 245,648 L 244,647 L 245,646 L 247,646 L 245,646 L 244,647 L 242,645 L 242,643 L 243,642 L 243,641 Z M 255,626 L 256,625 L 256,624 L 258,622 L 259,622 L 260,623 L 258,625 L 258,626 L 260,626 L 261,625 L 261,624 L 260,623 L 261,622 L 262,622 L 264,624 L 264,625 L 261,628 L 257,628 Z M 228,618 L 231,618 L 232,619 L 231,620 L 229,620 L 229,622 L 230,623 L 231,623 L 232,624 L 231,625 L 228,625 L 226,623 L 226,622 L 225,621 Z M 206,618 L 207,617 L 209,617 L 210,618 L 208,620 L 209,619 L 210,620 L 211,619 L 212,619 L 213,618 L 214,619 L 214,620 L 215,621 L 215,622 L 217,624 L 217,627 L 216,628 L 215,628 L 214,627 L 213,627 L 214,627 L 215,628 L 214,629 L 211,629 L 209,627 L 209,626 L 207,624 L 207,622 L 206,621 Z M 285,616 L 287,618 L 287,623 L 286,624 L 286,625 L 285,626 L 285,627 L 282,630 L 281,630 L 280,631 L 279,631 L 277,629 L 277,624 L 278,623 L 278,622 L 280,620 L 280,619 L 281,618 L 281,617 L 282,616 Z M 269,604 L 270,603 L 274,603 L 275,604 L 275,608 L 274,609 L 273,608 L 273,605 L 271,605 L 271,607 L 272,608 L 273,608 L 274,609 L 273,610 L 271,610 L 269,608 Z M 243,597 L 250,597 L 251,598 L 252,598 L 255,601 L 255,608 L 251,612 L 250,612 L 249,613 L 245,613 L 244,612 L 245,611 L 248,611 L 245,611 L 244,612 L 243,612 L 242,611 L 243,610 L 242,609 L 243,610 L 242,611 L 241,611 L 240,610 L 240,609 L 239,608 L 239,602 L 240,601 L 240,600 Z M 191,593 L 192,594 L 192,600 L 191,601 L 191,608 L 190,609 L 189,608 L 189,600 L 190,599 L 190,594 Z M 228,584 L 229,584 L 230,585 L 229,586 L 230,587 L 230,588 L 229,589 L 230,590 L 229,591 L 228,591 L 226,589 L 226,586 Z M 260,585 L 261,584 L 262,585 L 262,587 L 263,586 L 263,585 L 262,585 L 261,584 L 262,583 L 265,583 L 268,586 L 268,588 L 265,591 L 263,591 L 260,588 Z M 217,577 L 219,579 L 219,582 L 215,586 L 212,586 L 210,584 L 210,582 L 211,581 L 211,580 L 214,577 Z M 281,576 L 284,579 L 284,580 L 285,581 L 285,582 L 284,583 L 283,582 L 283,583 L 280,586 L 278,584 L 278,582 L 277,581 L 277,580 Z M 242,564 L 244,562 L 245,563 L 245,564 L 246,563 L 248,563 L 245,563 L 244,562 L 245,561 L 249,561 L 252,564 L 252,567 L 250,569 L 249,569 L 248,570 L 245,570 L 242,567 Z M 240,548 L 241,547 L 253,547 L 254,548 L 253,549 L 241,549 Z M 292,515 L 294,513 L 295,513 L 296,514 L 297,514 L 298,515 L 299,515 L 301,517 L 302,517 L 304,519 L 305,519 L 306,520 L 304,522 L 303,521 L 302,521 L 300,519 L 299,519 L 298,518 L 297,518 L 296,517 L 295,517 L 294,516 L 293,516 Z M 211,511 L 210,512 L 209,512 L 208,513 L 206,513 L 205,514 L 204,514 L 203,515 L 202,515 L 201,516 L 200,516 L 198,518 L 197,518 L 196,519 L 195,519 L 193,521 L 192,521 L 190,523 L 189,523 L 187,525 L 186,525 L 182,529 L 181,529 L 171,539 L 171,540 L 168,543 L 166,541 L 168,539 L 168,538 L 179,527 L 180,527 L 185,522 L 186,522 L 188,520 L 189,520 L 191,518 L 192,518 L 193,517 L 194,517 L 196,515 L 197,515 L 199,513 L 200,513 L 201,512 L 202,512 L 203,511 L 204,511 L 205,510 L 207,510 L 208,509 L 209,509 Z M 278,509 L 279,508 L 280,508 L 281,507 L 283,507 L 284,508 L 285,508 L 286,509 L 287,509 L 288,510 L 289,510 L 290,511 L 288,513 L 287,513 L 286,512 L 284,512 L 283,511 L 281,511 L 280,510 L 279,510 Z M 209,509 L 210,508 L 211,508 L 212,507 L 214,507 L 215,506 L 217,506 L 218,505 L 221,505 L 222,504 L 225,504 L 226,503 L 230,503 L 231,502 L 238,502 L 239,501 L 257,501 L 258,502 L 263,502 L 264,503 L 269,503 L 270,504 L 273,504 L 274,505 L 277,505 L 278,506 L 280,506 L 281,507 L 280,508 L 279,508 L 278,509 L 275,509 L 274,508 L 272,508 L 271,507 L 268,507 L 267,506 L 262,506 L 261,505 L 252,505 L 251,504 L 241,504 L 240,505 L 234,505 L 233,506 L 228,506 L 227,507 L 224,507 L 223,508 L 220,508 L 219,509 L 217,509 L 216,510 L 214,510 L 213,511 L 211,511 Z" fill="black" fill-rule="evenodd"/>
<path d="M 169,418 L 162,418 L 160,420 L 160,421 L 159,422 L 159,424 L 158,425 L 158,427 L 157,428 L 157,432 L 156,433 L 156,455 L 157,456 L 157,462 L 158,463 L 158,466 L 159,467 L 159,468 L 161,470 L 162,470 L 163,471 L 167,467 L 168,467 L 170,465 L 171,465 L 173,463 L 174,463 L 176,461 L 177,461 L 178,460 L 179,460 L 180,459 L 181,459 L 182,458 L 183,458 L 184,457 L 185,457 L 186,456 L 188,456 L 189,455 L 190,455 L 191,454 L 191,453 L 192,452 L 192,451 L 193,450 L 193,447 L 194,446 L 194,441 L 193,440 L 193,437 L 192,436 L 192,435 L 193,434 L 194,434 L 194,433 L 193,433 L 193,434 L 192,435 L 191,434 L 191,433 L 189,431 L 189,430 L 185,426 L 184,426 L 181,423 L 180,423 L 178,421 L 177,421 L 176,420 L 174,420 L 173,419 L 170,419 Z M 160,428 L 161,429 L 161,460 L 160,461 L 159,460 L 159,452 L 158,451 L 158,438 L 159,437 L 159,429 Z" fill="black" fill-rule="evenodd"/>
<path d="M 1336,406 L 1336,416 L 1337,417 L 1337,431 L 1336,432 L 1337,434 L 1336,435 L 1337,436 L 1339,435 L 1551,435 L 1551,401 L 1550,400 L 1337,400 L 1337,405 Z" fill="black" fill-rule="evenodd"/>
<path d="M 1091,400 L 1091,435 L 1309,435 L 1309,401 L 1308,400 Z" fill="black" fill-rule="evenodd"/>
<path d="M 819,400 L 819,419 L 818,420 L 818,429 L 819,430 L 819,435 L 1063,435 L 1063,401 L 1062,400 Z" fill="black" fill-rule="evenodd"/>
<path d="M 1091,324 L 1091,359 L 1105,360 L 1092,361 L 1287,362 L 1091,363 L 1091,398 L 1309,397 L 1309,363 L 1292,362 L 1310,361 L 1293,360 L 1309,359 L 1308,324 Z M 1112,360 L 1113,359 L 1272,359 L 1273,360 L 1272,361 L 1113,361 Z" fill="black" fill-rule="evenodd"/>
<path d="M 818,325 L 818,358 L 820,361 L 1054,362 L 819,363 L 819,398 L 1063,397 L 1063,363 L 1061,361 L 1063,359 L 1062,324 Z M 970,360 L 971,359 L 1030,359 L 1031,360 L 1030,361 L 971,361 Z M 937,360 L 938,359 L 951,359 L 952,360 L 951,361 L 938,361 Z M 872,360 L 873,359 L 914,359 L 915,360 L 914,361 L 873,361 Z M 858,360 L 859,359 L 871,359 L 872,360 L 871,361 L 859,361 Z M 825,360 L 826,359 L 839,359 L 840,360 L 839,361 L 826,361 Z" fill="black" fill-rule="evenodd"/>
<path d="M 403,542 L 443,577 L 483,590 L 749,590 L 751,581 L 752,588 L 847,581 L 848,573 L 850,592 L 996,592 L 997,581 L 1096,608 L 1098,588 L 1010,568 L 1038,560 L 1046,572 L 1059,561 L 1075,568 L 1117,507 L 1019,507 L 1018,487 L 994,487 L 992,507 L 891,507 L 888,487 L 865,487 L 864,507 L 819,507 L 818,486 L 1308,480 L 1320,486 L 1320,506 L 1281,508 L 1322,562 L 1354,555 L 1367,569 L 1301,586 L 1303,605 L 1383,575 L 1397,554 L 1496,555 L 1499,578 L 1541,578 L 1534,526 L 1554,525 L 1553,539 L 1562,540 L 1562,526 L 1572,524 L 1577,325 L 1571,311 L 1556,311 L 1554,324 L 1336,326 L 1336,359 L 1344,362 L 1337,363 L 1337,398 L 1550,398 L 1552,338 L 1553,462 L 1551,438 L 1338,438 L 1335,474 L 1333,317 L 1315,315 L 1311,474 L 1308,438 L 1093,438 L 1089,474 L 1086,316 L 1069,315 L 1064,474 L 1062,438 L 819,438 L 817,462 L 815,311 L 798,309 L 792,484 L 800,541 Z M 848,541 L 849,542 L 849,566 L 848,567 L 847,566 L 847,542 Z M 1034,541 L 1035,540 L 1046,540 L 1047,541 L 1046,542 L 1035,542 Z M 969,541 L 970,540 L 995,540 L 996,541 L 995,542 L 970,542 Z M 878,541 L 879,540 L 963,540 L 964,541 L 963,542 L 879,542 Z M 848,541 L 849,540 L 873,540 L 874,541 L 873,542 L 849,542 Z M 1344,486 L 1345,485 L 1541,485 L 1542,486 L 1542,506 L 1541,507 L 1498,507 L 1496,503 L 1496,494 L 1497,493 L 1497,489 L 1496,487 L 1474,487 L 1473,488 L 1471,488 L 1471,506 L 1470,507 L 1346,507 L 1345,506 L 1345,487 Z M 1346,362 L 1347,361 L 1540,361 L 1541,362 L 1540,363 L 1347,363 Z M 1405,360 L 1406,359 L 1508,359 L 1509,360 L 1508,361 L 1406,361 Z M 1371,360 L 1372,359 L 1398,359 L 1399,360 L 1398,361 L 1372,361 Z M 1356,360 L 1357,359 L 1367,359 L 1368,360 L 1367,361 L 1357,361 Z" fill="black" fill-rule="evenodd"/>
<path d="M 785,214 L 775,208 L 730,207 L 580,214 L 513,222 L 510,232 L 520,236 L 503,240 L 495,251 L 520,254 L 519,370 L 224,370 L 228,368 L 225,362 L 210,361 L 206,368 L 210,369 L 201,370 L 196,380 L 197,451 L 233,442 L 258,442 L 299,453 L 258,445 L 194,453 L 157,478 L 139,498 L 133,514 L 149,511 L 177,490 L 207,476 L 241,470 L 269,472 L 300,482 L 326,498 L 394,570 L 444,600 L 470,605 L 751,605 L 750,592 L 473,591 L 436,576 L 398,540 L 784,539 L 779,538 L 785,531 Z M 533,515 L 534,514 L 535,515 L 535,524 L 625,524 L 626,525 L 625,526 L 534,526 L 533,525 Z M 420,512 L 422,512 L 423,513 L 424,513 L 427,516 L 427,522 L 425,524 L 424,523 L 425,524 L 423,526 L 418,526 L 414,522 L 414,517 L 418,513 L 419,513 Z M 457,497 L 459,499 L 459,515 L 458,516 L 456,516 L 455,515 L 455,499 Z M 534,496 L 535,497 L 535,513 L 534,514 L 533,513 L 533,497 Z M 460,485 L 461,486 L 461,496 L 460,497 L 459,496 L 459,486 Z M 326,465 L 327,465 L 329,467 L 330,467 L 332,469 L 333,469 L 335,471 L 336,471 L 338,473 L 339,473 L 342,476 L 343,476 L 347,480 L 348,480 L 356,488 L 357,488 L 366,497 L 366,498 L 367,498 L 369,500 L 369,501 L 375,507 L 375,508 L 382,515 L 382,516 L 386,520 L 386,521 L 391,526 L 391,527 L 395,531 L 395,532 L 398,535 L 398,536 L 400,538 L 398,540 L 397,539 L 397,538 L 392,533 L 392,532 L 389,529 L 389,528 L 384,523 L 384,522 L 379,517 L 379,516 L 373,510 L 373,509 L 363,499 L 363,498 L 357,492 L 356,492 L 346,482 L 345,482 L 341,478 L 340,478 L 337,475 L 336,475 L 334,473 L 333,473 L 331,471 L 330,471 L 328,469 L 327,469 L 326,468 L 325,468 L 324,467 Z M 298,454 L 300,452 L 301,452 L 302,453 L 303,453 L 304,454 L 306,454 L 307,455 L 308,455 L 309,456 L 310,456 L 311,457 L 311,458 L 310,459 L 308,459 L 307,458 L 306,458 L 305,457 L 304,457 L 303,456 L 302,456 L 301,455 L 299,455 Z M 425,435 L 426,435 L 427,436 L 427,497 L 426,498 L 424,496 L 424,436 Z M 398,435 L 399,435 L 400,436 L 400,496 L 399,497 L 398,497 L 397,496 L 397,436 Z M 385,435 L 386,436 L 386,443 L 387,444 L 387,469 L 386,470 L 386,480 L 387,481 L 387,487 L 386,488 L 386,495 L 387,496 L 386,497 L 385,497 L 384,496 L 384,436 Z M 371,435 L 372,435 L 373,436 L 373,487 L 372,488 L 370,486 L 370,436 Z M 345,435 L 346,435 L 347,436 L 347,465 L 346,466 L 344,464 L 344,436 Z M 317,435 L 318,436 L 318,447 L 317,448 L 315,446 L 315,437 Z M 412,434 L 414,436 L 414,496 L 412,498 L 411,497 L 411,466 L 410,465 L 410,461 L 411,460 L 411,449 L 410,448 L 410,436 Z M 358,434 L 360,436 L 360,475 L 359,476 L 357,474 L 357,435 Z M 332,434 L 333,435 L 333,456 L 332,457 L 331,457 L 330,456 L 330,436 Z M 534,420 L 535,421 L 535,470 L 534,471 L 533,470 L 533,421 Z M 534,405 L 535,406 L 535,416 L 534,417 L 533,416 L 533,406 Z M 695,392 L 695,396 L 692,399 L 690,399 L 689,400 L 688,399 L 687,399 L 685,397 L 667,397 L 665,395 L 665,393 L 667,391 L 684,391 L 685,390 L 686,390 L 687,389 L 691,389 L 692,390 L 693,390 Z M 548,255 L 551,252 L 552,253 L 555,253 L 552,253 L 551,252 L 552,251 L 686,251 L 688,252 L 690,255 L 690,357 L 689,359 L 687,361 L 685,361 L 684,362 L 553,362 L 551,361 L 548,357 Z" fill="black" fill-rule="evenodd"/>
</svg>