<svg xmlns="http://www.w3.org/2000/svg" viewBox="0 0 148 99" width="148" height="99">
  <path d="M 9.00 54.00 L 11.00 72.00 L 23.00 70.00 L 26.00 66.00 L 41.00 61.00 L 45.00 63.00 L 43.00 78.00 L 50.00 79.00 L 51.00 69.00 L 53.00 67.00 L 58.00 67.00 L 59.00 63.00 L 64.00 59.00 L 97.00 58.00 L 103.00 55.00 L 109.00 55.00 L 110.00 65.00 L 106.00 85.00 L 103.00 90.00 L 109.00 90.00 L 108.00 84.00 L 114.00 60.00 L 117.00 61.00 L 122.00 84.00 L 121.00 89.00 L 127.00 90.00 L 121.00 71.00 L 120.00 51.00 L 140.00 50.00 L 141.00 46.00 L 115.00 45.00 L 114.00 36.00 L 111.00 36.00 L 110.00 45.00 L 96.00 45.00 L 94.00 41.00 L 77.00 40.00 L 77.00 28.00 L 85.00 13.00 L 78.00 4.00 L 75.00 3.00 L 65.00 21.00 L 64.00 38.00 L 61.00 42.00 L 47.00 40.00 L 47.00 46.00 L 43.00 47.00 L 39.00 53.00 L 31.00 53.00 L 29.00 51.00 L 11.00 51.00 Z" fill="#FF0000" stroke="#FF0000" stroke-width="0.5" fill-rule="evenodd" clip-rule="evenodd"/>
</svg>
