<svg xmlns="http://www.w3.org/2000/svg" viewBox="0 0 157 84" width="157" height="84">
  <path d="M 153.00 37.00 L 151.00 31.00 L 146.00 26.00 L 141.00 24.00 L 132.00 25.00 L 131.00 21.00 L 129.00 19.00 L 109.00 21.00 L 100.00 17.00 L 95.00 21.00 L 82.00 21.00 L 78.00 23.00 L 73.00 22.00 L 64.00 24.00 L 58.00 23.00 L 55.00 26.00 L 50.00 25.00 L 49.00 27.00 L 46.00 27.00 L 40.00 30.00 L 36.00 30.00 L 26.00 34.00 L 16.00 36.00 L 7.00 42.00 L 3.00 51.00 L 3.00 55.00 L 6.00 56.00 L 9.00 52.00 L 15.00 52.00 L 26.00 46.00 L 28.00 42.00 L 27.00 38.00 L 30.00 36.00 L 40.00 33.00 L 47.00 33.00 L 48.00 40.00 L 55.00 41.00 L 56.00 35.00 L 59.00 34.00 L 61.00 31.00 L 66.00 31.00 L 68.00 29.00 L 74.00 29.00 L 75.00 30.00 L 74.00 35.00 L 75.00 55.00 L 74.00 58.00 L 76.00 63.00 L 78.00 64.00 L 91.00 63.00 L 93.00 56.00 L 96.00 55.00 L 98.00 63.00 L 111.00 64.00 L 115.00 62.00 L 116.00 55.00 L 123.00 56.00 L 143.00 55.00 L 151.00 47.00 Z M 94.00 37.00 L 96.00 37.00 L 97.00 38.00 L 97.00 41.00 L 98.00 42.00 L 98.00 49.00 L 96.00 51.00 L 93.00 51.00 L 92.00 50.00 L 92.00 40.00 Z M 113.00 28.00 L 115.00 26.00 L 118.00 26.00 L 119.00 27.00 L 121.00 27.00 L 122.00 28.00 L 126.00 28.00 L 127.00 29.00 L 127.00 31.00 L 128.00 32.00 L 129.00 32.00 L 130.00 31.00 L 130.00 29.00 L 132.00 27.00 L 136.00 27.00 L 137.00 28.00 L 142.00 28.00 L 145.00 31.00 L 146.00 31.00 L 148.00 34.00 L 148.00 37.00 L 149.00 38.00 L 149.00 42.00 L 148.00 43.00 L 148.00 45.00 L 143.00 50.00 L 142.00 50.00 L 139.00 52.00 L 135.00 52.00 L 134.00 53.00 L 129.00 53.00 L 128.00 52.00 L 124.00 52.00 L 122.00 50.00 L 121.00 50.00 L 120.00 51.00 L 116.00 51.00 L 115.00 50.00 L 115.00 40.00 L 116.00 39.00 L 116.00 36.00 L 115.00 35.00 L 115.00 32.00 L 113.00 30.00 Z M 109.00 27.00 L 110.00 26.00 L 112.00 26.00 L 113.00 27.00 L 113.00 29.00 L 112.00 30.00 L 110.00 30.00 L 109.00 29.00 Z M 86.00 27.00 L 87.00 26.00 L 97.00 26.00 L 99.00 29.00 L 99.00 31.00 L 97.00 33.00 L 97.00 35.00 L 96.00 36.00 L 93.00 36.00 L 92.00 35.00 L 92.00 32.00 L 90.00 30.00 L 87.00 30.00 L 86.00 29.00 Z" fill="#FF0000" stroke="#FF0000" stroke-width="0.5" fill-rule="evenodd" clip-rule="evenodd"/>
</svg>
