<svg xmlns="http://www.w3.org/2000/svg" viewBox="0 0 159 64" width="159" height="64">
  <path d="M 158.00 17.00 L 154.00 16.00 L 151.00 11.00 L 149.00 12.00 L 148.00 16.00 L 105.00 16.00 L 104.00 15.00 L 80.00 15.00 L 77.00 14.00 L 76.00 17.00 L 72.00 16.00 L 66.00 16.00 L 65.00 17.00 L 58.00 17.00 L 56.00 16.00 L 53.00 17.00 L 49.00 15.00 L 47.00 18.00 L 44.00 19.00 L 44.00 22.00 L 41.00 25.00 L 35.00 28.00 L 31.00 27.00 L 29.00 28.00 L 19.00 28.00 L 18.00 29.00 L 12.00 29.00 L 5.00 31.00 L 7.00 50.00 L 8.00 51.00 L 12.00 49.00 L 18.00 50.00 L 18.00 47.00 L 21.00 44.00 L 23.00 44.00 L 31.00 39.00 L 37.00 39.00 L 37.00 37.00 L 42.00 32.00 L 45.00 32.00 L 47.00 36.00 L 56.00 36.00 L 65.00 32.00 L 67.00 29.00 L 92.00 27.00 L 93.00 26.00 L 103.00 26.00 L 104.00 25.00 L 112.00 25.00 L 115.00 28.00 L 117.00 24.00 L 150.00 22.00 L 152.00 19.00 L 156.00 19.00 Z" fill="#FF0000" stroke="#FF0000" stroke-width="0.5" fill-rule="evenodd" clip-rule="evenodd"/>
</svg>
