<svg xmlns="http://www.w3.org/2000/svg" viewBox="0 0 139 50" width="139" height="50">
  <path d="M 136.00 15.00 L 133.00 14.00 L 133.00 11.00 L 130.00 11.00 L 130.00 13.00 L 128.00 16.00 L 120.00 16.00 L 119.00 15.00 L 87.00 15.00 L 86.00 14.00 L 75.00 14.00 L 74.00 16.00 L 64.00 15.00 L 62.00 17.00 L 56.00 17.00 L 50.00 15.00 L 41.00 16.00 L 41.00 21.00 L 35.00 25.00 L 32.00 24.00 L 21.00 24.00 L 20.00 25.00 L 6.00 26.00 L 5.00 27.00 L 6.00 38.00 L 7.00 39.00 L 7.00 43.00 L 8.00 44.00 L 11.00 44.00 L 16.00 41.00 L 20.00 40.00 L 22.00 38.00 L 27.00 37.00 L 29.00 35.00 L 37.00 35.00 L 38.00 32.00 L 40.00 30.00 L 42.00 30.00 L 43.00 32.00 L 45.00 33.00 L 48.00 33.00 L 50.00 32.00 L 52.00 29.00 L 55.00 28.00 L 61.00 28.00 L 62.00 27.00 L 67.00 27.00 L 68.00 26.00 L 78.00 26.00 L 79.00 25.00 L 87.00 25.00 L 88.00 24.00 L 96.00 24.00 L 97.00 23.00 L 107.00 23.00 L 108.00 25.00 L 109.00 25.00 L 111.00 22.00 L 129.00 21.00 L 131.00 19.00 L 136.00 19.00 Z" fill="#FF0000" stroke="#FF0000" stroke-width="0.5" fill-rule="evenodd" clip-rule="evenodd"/>
</svg>
