<svg xmlns="http://www.w3.org/2000/svg" viewBox="0 0 131 68" width="131" height="68">
  <path d="M 126.00 28.00 L 124.00 25.00 L 124.00 23.00 L 118.00 16.00 L 118.00 12.00 L 115.00 10.00 L 111.00 10.00 L 110.00 9.00 L 96.00 9.00 L 95.00 8.00 L 92.00 10.00 L 67.00 10.00 L 65.00 6.00 L 62.00 6.00 L 59.00 10.00 L 47.00 10.00 L 45.00 11.00 L 37.00 19.00 L 34.00 19.00 L 31.00 22.00 L 28.00 23.00 L 20.00 34.00 L 10.00 35.00 L 7.00 39.00 L 5.00 40.00 L 5.00 52.00 L 6.00 53.00 L 21.00 52.00 L 23.00 54.00 L 26.00 54.00 L 27.00 55.00 L 41.00 55.00 L 46.00 52.00 L 52.00 52.00 L 52.00 39.00 L 53.00 38.00 L 73.00 38.00 L 74.00 39.00 L 74.00 43.00 L 73.00 44.00 L 70.00 44.00 L 70.00 49.00 L 73.00 49.00 L 74.00 52.00 L 81.00 51.00 L 82.00 52.00 L 92.00 52.00 L 93.00 53.00 L 110.00 53.00 L 120.00 48.00 L 124.00 43.00 L 126.00 38.00 Z M 38.00 27.00 L 39.00 28.00 L 39.00 30.00 L 40.00 30.00 L 41.00 31.00 L 43.00 37.00 L 44.00 38.00 L 47.00 38.00 L 48.00 39.00 L 48.00 47.00 L 47.00 48.00 L 47.00 49.00 L 43.00 52.00 L 28.00 52.00 L 27.00 51.00 L 23.00 51.00 L 22.00 50.00 L 22.00 46.00 L 23.00 45.00 L 23.00 38.00 L 29.00 32.00 L 31.00 32.00 L 34.00 28.00 L 35.00 28.00 L 36.00 27.00 Z M 78.00 14.00 L 79.00 13.00 L 92.00 13.00 L 93.00 14.00 L 93.00 19.00 L 95.00 19.00 L 95.00 16.00 L 96.00 15.00 L 109.00 15.00 L 110.00 16.00 L 111.00 16.00 L 113.00 18.00 L 113.00 19.00 L 116.00 19.00 L 119.00 22.00 L 119.00 23.00 L 121.00 25.00 L 121.00 27.00 L 122.00 28.00 L 122.00 38.00 L 121.00 39.00 L 120.00 42.00 L 115.00 47.00 L 114.00 47.00 L 113.00 48.00 L 111.00 48.00 L 110.00 49.00 L 108.00 49.00 L 107.00 50.00 L 96.00 50.00 L 95.00 49.00 L 88.00 49.00 L 87.00 48.00 L 85.00 48.00 L 84.00 47.00 L 84.00 44.00 L 83.00 43.00 L 79.00 43.00 L 78.00 42.00 L 78.00 39.00 L 79.00 38.00 L 84.00 38.00 L 87.00 35.00 L 87.00 34.00 L 88.00 33.00 L 88.00 31.00 L 89.00 30.00 L 90.00 30.00 L 90.00 27.00 L 88.00 25.00 L 88.00 24.00 L 85.00 19.00 L 79.00 19.00 L 78.00 18.00 Z M 65.00 15.00 L 67.00 13.00 L 73.00 13.00 L 74.00 14.00 L 74.00 17.00 L 72.00 19.00 L 66.00 19.00 L 65.00 18.00 Z M 51.00 14.00 L 52.00 13.00 L 59.00 13.00 L 61.00 16.00 L 61.00 18.00 L 60.00 19.00 L 52.00 19.00 L 51.00 18.00 Z" fill="#FF0000" stroke="#FF0000" stroke-width="0.5" fill-rule="evenodd" clip-rule="evenodd"/>
</svg>
