<svg xmlns="http://www.w3.org/2000/svg" viewBox="0 0 132 66" width="132" height="66">
  <path d="M 126.00 26.00 L 126.00 20.00 L 125.00 19.00 L 122.00 19.00 L 120.00 22.00 L 101.00 22.00 L 94.00 18.00 L 92.00 13.00 L 88.00 17.00 L 40.00 17.00 L 37.00 14.00 L 35.00 17.00 L 26.00 17.00 L 23.00 20.00 L 8.00 20.00 L 7.00 21.00 L 8.00 24.00 L 22.00 23.00 L 23.00 24.00 L 23.00 29.00 L 27.00 28.00 L 30.00 29.00 L 31.00 59.00 L 32.00 60.00 L 39.00 60.00 L 40.00 59.00 L 39.00 56.00 L 39.00 36.00 L 42.00 31.00 L 47.00 31.00 L 50.00 34.00 L 58.00 34.00 L 60.00 36.00 L 61.00 40.00 L 65.00 42.00 L 69.00 42.00 L 74.00 40.00 L 81.00 55.00 L 81.00 58.00 L 86.00 58.00 L 91.00 56.00 L 91.00 52.00 L 85.00 38.00 L 85.00 28.00 L 87.00 26.00 L 93.00 26.00 L 94.00 27.00 L 96.00 26.00 L 106.00 26.00 L 107.00 25.00 L 121.00 26.00 L 123.00 37.00 L 125.00 36.00 L 125.00 27.00 Z M 62.00 35.00 L 63.00 34.00 L 66.00 34.00 L 67.00 35.00 L 67.00 38.00 L 65.00 40.00 L 63.00 40.00 L 62.00 39.00 Z" fill="#FF0000" stroke="#FF0000" stroke-width="0.5" fill-rule="evenodd" clip-rule="evenodd"/>
</svg>
