<svg xmlns="http://www.w3.org/2000/svg" viewBox="0 0 154 71" width="154" height="71">
  <path d="M 7.00 21.00 L 10.00 27.00 L 10.00 41.00 L 13.00 41.00 L 16.00 38.00 L 21.00 39.00 L 23.00 33.00 L 33.00 33.00 L 36.00 35.00 L 40.00 34.00 L 41.00 40.00 L 38.00 47.00 L 42.00 50.00 L 45.00 49.00 L 46.00 42.00 L 55.00 41.00 L 57.00 39.00 L 58.00 34.00 L 129.00 32.00 L 131.00 34.00 L 131.00 40.00 L 127.00 60.00 L 125.00 61.00 L 125.00 63.00 L 129.00 63.00 L 132.00 47.00 L 135.00 48.00 L 137.00 55.00 L 137.00 62.00 L 138.00 63.00 L 142.00 62.00 L 142.00 60.00 L 139.00 57.00 L 135.00 33.00 L 145.00 32.00 L 151.00 29.00 L 150.00 25.00 L 135.00 23.00 L 133.00 18.00 L 131.00 19.00 L 130.00 24.00 L 94.00 24.00 L 91.00 23.00 L 90.00 20.00 L 82.00 20.00 L 81.00 18.00 L 79.00 19.00 L 78.00 23.00 L 58.00 22.00 L 56.00 19.00 L 54.00 19.00 L 48.00 24.00 L 37.00 25.00 L 36.00 23.00 L 34.00 23.00 L 33.00 25.00 L 19.00 25.00 L 11.00 20.00 Z" fill="#FF0000" stroke="#FF0000" stroke-width="0.5" fill-rule="evenodd" clip-rule="evenodd"/>
</svg>
