<svg xmlns="http://www.w3.org/2000/svg" viewBox="0 0 115 73" width="115" height="73">
  <path d="M 97.00 22.00 L 94.00 18.00 L 91.00 18.00 L 89.00 21.00 L 76.00 21.00 L 75.00 22.00 L 67.00 22.00 L 66.00 21.00 L 47.00 21.00 L 46.00 20.00 L 43.00 20.00 L 41.00 24.00 L 35.00 24.00 L 36.00 26.00 L 38.00 26.00 L 39.00 27.00 L 39.00 31.00 L 38.00 32.00 L 36.00 32.00 L 35.00 33.00 L 31.00 33.00 L 30.00 34.00 L 30.00 40.00 L 28.00 42.00 L 25.00 48.00 L 25.00 50.00 L 24.00 51.00 L 24.00 54.00 L 23.00 55.00 L 23.00 59.00 L 22.00 60.00 L 22.00 63.00 L 24.00 65.00 L 25.00 65.00 L 28.00 69.00 L 31.00 68.00 L 31.00 66.00 L 32.00 65.00 L 34.00 65.00 L 36.00 63.00 L 36.00 53.00 L 37.00 52.00 L 38.00 48.00 L 40.00 46.00 L 44.00 45.00 L 46.00 47.00 L 46.00 49.00 L 50.00 52.00 L 53.00 52.00 L 54.00 51.00 L 56.00 51.00 L 58.00 50.00 L 60.00 47.00 L 60.00 42.00 L 61.00 41.00 L 64.00 41.00 L 65.00 40.00 L 65.00 39.00 L 67.00 37.00 L 67.00 33.00 L 70.00 30.00 L 80.00 30.00 L 80.00 27.00 L 81.00 26.00 L 97.00 26.00 Z M 54.00 41.00 L 56.00 41.00 L 58.00 43.00 L 58.00 47.00 L 57.00 48.00 L 54.00 48.00 L 53.00 47.00 L 53.00 42.00 Z" fill="#FF0000" stroke="#FF0000" stroke-width="0.5" fill-rule="evenodd" clip-rule="evenodd"/>
</svg>
