<svg xmlns="http://www.w3.org/2000/svg" viewBox="0 0 144 71" width="144" height="71">
  <path d="M 139.00 21.00 L 138.00 20.00 L 138.00 16.00 L 136.00 13.00 L 133.00 15.00 L 132.00 18.00 L 127.00 23.00 L 105.00 23.00 L 102.00 21.00 L 100.00 23.00 L 96.00 24.00 L 37.00 24.00 L 33.00 25.00 L 32.00 24.00 L 16.00 23.00 L 11.00 20.00 L 9.00 20.00 L 8.00 22.00 L 9.00 40.00 L 14.00 39.00 L 17.00 37.00 L 26.00 36.00 L 28.00 41.00 L 41.00 43.00 L 42.00 45.00 L 44.00 45.00 L 46.00 36.00 L 65.00 36.00 L 66.00 39.00 L 70.00 42.00 L 72.00 56.00 L 74.00 57.00 L 77.00 55.00 L 80.00 55.00 L 79.00 48.00 L 76.00 41.00 L 78.00 36.00 L 98.00 36.00 L 102.00 40.00 L 105.00 37.00 L 125.00 37.00 L 128.00 38.00 L 133.00 43.00 L 133.00 45.00 L 136.00 47.00 L 138.00 45.00 L 138.00 40.00 L 139.00 39.00 Z M 28.00 37.00 L 29.00 36.00 L 39.00 36.00 L 40.00 37.00 L 42.00 37.00 L 43.00 38.00 L 43.00 40.00 L 42.00 41.00 L 38.00 41.00 L 37.00 40.00 L 29.00 40.00 L 28.00 39.00 Z" fill="#FF0000" stroke="#FF0000" stroke-width="0.5" fill-rule="evenodd" clip-rule="evenodd"/>
</svg>
