<svg xmlns="http://www.w3.org/2000/svg" viewBox="0 0 158 56" width="158" height="56">
  <path d="M 154.00 13.00 L 150.00 12.00 L 148.00 7.00 L 145.00 8.00 L 144.00 12.00 L 87.00 12.00 L 86.00 11.00 L 71.00 12.00 L 66.00 9.00 L 63.00 9.00 L 62.00 11.00 L 58.00 10.00 L 56.00 12.00 L 52.00 12.00 L 50.00 16.00 L 40.00 23.00 L 30.00 22.00 L 29.00 23.00 L 7.00 25.00 L 5.00 27.00 L 6.00 47.00 L 11.00 48.00 L 27.00 40.00 L 34.00 35.00 L 42.00 35.00 L 44.00 31.00 L 50.00 26.00 L 53.00 26.00 L 54.00 30.00 L 56.00 32.00 L 65.00 32.00 L 69.00 25.00 L 79.00 25.00 L 88.00 27.00 L 88.00 41.00 L 89.00 47.00 L 92.00 53.00 L 101.00 53.00 L 104.00 48.00 L 104.00 31.00 L 102.00 26.00 L 103.00 21.00 L 109.00 20.00 L 152.00 20.00 Z M 59.00 26.00 L 60.00 25.00 L 64.00 25.00 L 66.00 27.00 L 66.00 29.00 L 64.00 31.00 L 61.00 31.00 L 59.00 28.00 Z" fill="#FF0000" stroke="#FF0000" stroke-width="0.5" fill-rule="evenodd" clip-rule="evenodd"/>
</svg>
