<svg xmlns="http://www.w3.org/2000/svg" viewBox="0 0 146 68" width="146" height="68">
  <path d="M 137.00 15.00 L 127.00 15.00 L 125.00 10.00 L 121.00 10.00 L 121.00 13.00 L 119.00 15.00 L 93.00 15.00 L 92.00 14.00 L 78.00 15.00 L 77.00 14.00 L 69.00 14.00 L 62.00 11.00 L 60.00 13.00 L 50.00 15.00 L 49.00 19.00 L 39.00 27.00 L 36.00 27.00 L 34.00 25.00 L 27.00 25.00 L 21.00 27.00 L 6.00 29.00 L 5.00 30.00 L 5.00 48.00 L 6.00 52.00 L 9.00 53.00 L 15.00 51.00 L 32.00 41.00 L 39.00 43.00 L 42.00 36.00 L 48.00 31.00 L 51.00 32.00 L 51.00 36.00 L 53.00 38.00 L 61.00 39.00 L 64.00 37.00 L 64.00 33.00 L 66.00 31.00 L 72.00 30.00 L 79.00 33.00 L 79.00 44.00 L 82.00 56.00 L 85.00 60.00 L 94.00 60.00 L 96.00 57.00 L 97.00 48.00 L 96.00 47.00 L 95.00 32.00 L 93.00 27.00 L 95.00 25.00 L 99.00 25.00 L 102.00 22.00 L 135.00 22.00 L 137.00 20.00 Z M 57.00 32.00 L 58.00 31.00 L 60.00 31.00 L 61.00 32.00 L 61.00 33.00 L 62.00 33.00 L 63.00 34.00 L 63.00 36.00 L 62.00 37.00 L 59.00 37.00 L 57.00 35.00 Z" fill="#FF0000" stroke="#FF0000" stroke-width="0.5" fill-rule="evenodd" clip-rule="evenodd"/>
</svg>
