<svg xmlns="http://www.w3.org/2000/svg" viewBox="0 0 152 66" width="152" height="66">
  <path d="M 151.00 22.00 L 149.00 21.00 L 148.00 16.00 L 135.00 16.00 L 135.00 20.00 L 131.00 22.00 L 72.00 23.00 L 71.00 24.00 L 59.00 24.00 L 49.00 22.00 L 40.00 23.00 L 29.00 22.00 L 30.00 30.00 L 26.00 33.00 L 22.00 31.00 L 4.00 30.00 L 3.00 32.00 L 4.00 48.00 L 8.00 48.00 L 19.00 42.00 L 22.00 42.00 L 24.00 45.00 L 28.00 45.00 L 31.00 37.00 L 33.00 37.00 L 35.00 41.00 L 40.00 41.00 L 55.00 34.00 L 96.00 32.00 L 97.00 40.00 L 95.00 45.00 L 94.00 56.00 L 91.00 60.00 L 95.00 60.00 L 97.00 46.00 L 99.00 43.00 L 102.00 44.00 L 105.00 58.00 L 108.00 58.00 L 101.00 36.00 L 103.00 27.00 L 134.00 26.00 L 136.00 30.00 L 148.00 29.00 Z" fill="#FF0000" stroke="#FF0000" stroke-width="0.5" fill-rule="evenodd" clip-rule="evenodd"/>
</svg>
