<svg xmlns="http://www.w3.org/2000/svg" viewBox="0 0 150 76" width="150" height="76">
  <path d="M 145.00 21.00 L 140.00 20.00 L 140.00 10.00 L 136.00 10.00 L 136.00 18.00 L 134.00 22.00 L 130.00 22.00 L 128.00 18.00 L 115.00 17.00 L 89.00 18.00 L 84.00 17.00 L 83.00 14.00 L 73.00 14.00 L 71.00 18.00 L 50.00 18.00 L 49.00 19.00 L 44.00 18.00 L 37.00 19.00 L 30.00 24.00 L 26.00 23.00 L 6.00 24.00 L 4.00 26.00 L 4.00 29.00 L 6.00 32.00 L 5.00 46.00 L 9.00 48.00 L 35.00 32.00 L 47.00 32.00 L 49.00 34.00 L 49.00 37.00 L 43.00 48.00 L 43.00 53.00 L 50.00 55.00 L 51.00 50.00 L 55.00 44.00 L 63.00 44.00 L 67.00 39.00 L 70.00 39.00 L 77.00 61.00 L 81.00 69.00 L 83.00 70.00 L 91.00 63.00 L 91.00 61.00 L 86.00 54.00 L 81.00 39.00 L 82.00 29.00 L 99.00 26.00 L 115.00 26.00 L 124.00 24.00 L 145.00 24.00 Z M 61.00 36.00 L 63.00 36.00 L 65.00 38.00 L 65.00 40.00 L 63.00 42.00 L 61.00 42.00 L 59.00 40.00 L 59.00 38.00 Z" fill="#FF0000" stroke="#FF0000" stroke-width="0.5" fill-rule="evenodd" clip-rule="evenodd"/>
</svg>
