<svg xmlns="http://www.w3.org/2000/svg" viewBox="0 0 103 79" width="103" height="79">
  <path d="M 13.00 68.00 L 14.00 69.00 L 35.00 69.00 L 36.00 68.00 L 36.00 66.00 L 35.00 65.00 L 35.00 60.00 L 36.00 59.00 L 38.00 48.00 L 41.00 42.00 L 43.00 41.00 L 45.00 41.00 L 46.00 42.00 L 57.00 42.00 L 61.00 39.00 L 63.00 31.00 L 64.00 30.00 L 69.00 29.00 L 70.00 27.00 L 70.00 24.00 L 71.00 23.00 L 75.00 23.00 L 75.00 21.00 L 76.00 20.00 L 97.00 19.00 L 98.00 18.00 L 97.00 15.00 L 94.00 11.00 L 92.00 11.00 L 90.00 14.00 L 70.00 14.00 L 69.00 13.00 L 63.00 13.00 L 62.00 14.00 L 45.00 14.00 L 44.00 13.00 L 29.00 13.00 L 24.00 11.00 L 22.00 11.00 L 22.00 12.00 L 21.00 13.00 L 19.00 13.00 L 18.00 15.00 L 13.00 14.00 L 12.00 15.00 L 12.00 17.00 L 16.00 19.00 L 16.00 22.00 L 15.00 23.00 L 15.00 25.00 L 12.00 28.00 L 12.00 29.00 L 13.00 30.00 L 16.00 30.00 L 20.00 33.00 L 20.00 39.00 L 16.00 45.00 L 16.00 47.00 L 13.00 54.00 L 13.00 58.00 L 12.00 59.00 Z M 45.00 32.00 L 47.00 32.00 L 48.00 33.00 L 48.00 35.00 L 50.00 38.00 L 50.00 40.00 L 49.00 41.00 L 47.00 41.00 L 43.00 38.00 L 43.00 34.00 Z M 53.00 30.00 L 58.00 30.00 L 60.00 32.00 L 60.00 38.00 L 58.00 40.00 L 55.00 40.00 L 54.00 39.00 L 54.00 38.00 L 53.00 38.00 L 50.00 35.00 L 50.00 33.00 Z" fill="#FF0000" stroke="#FF0000" stroke-width="0.5" fill-rule="evenodd" clip-rule="evenodd"/>
</svg>
